<?xml version="1.0" encoding="utf-8" standalone="no"?>
<!DOCTYPE svg PUBLIC "-//W3C//DTD SVG 1.1//EN"
  "http://www.w3.org/Graphics/SVG/1.1/DTD/svg11.dtd">
<svg xmlns:xlink="http://www.w3.org/1999/xlink" width="1440pt" height="648pt" viewBox="0 0 1440 648" xmlns="http://www.w3.org/2000/svg" version="1.1">
 <metadata>
  <rdf:RDF xmlns:dc="http://purl.org/dc/elements/1.1/" xmlns:cc="http://creativecommons.org/ns#" xmlns:rdf="http://www.w3.org/1999/02/22-rdf-syntax-ns#">
   <cc:Work>
    <dc:type rdf:resource="http://purl.org/dc/dcmitype/StillImage"/>
    <dc:date>2024-08-31T15:13:42.120233</dc:date>
    <dc:format>image/svg+xml</dc:format>
    <dc:creator>
     <cc:Agent>
      <dc:title>Matplotlib v3.8.3, https://matplotlib.org/</dc:title>
     </cc:Agent>
    </dc:creator>
   </cc:Work>
  </rdf:RDF>
 </metadata>
 <defs>
  <style type="text/css">*{stroke-linejoin: round; stroke-linecap: butt}</style>
 </defs>
 <g id="figure_1">
  <g id="patch_1">
   <path d="M 0 648 
L 1440 648 
L 1440 0 
L 0 0 
z
" style="fill: #ffffff"/>
  </g>
  <g id="axes_1">
   <g id="patch_2">
    <path d="M 180 576.72 
L 1296 576.72 
L 1296 77.76 
L 180 77.76 
z
" style="fill: #ffffff"/>
   </g>
   <g id="patch_3">
    <path d="M 180 554.04 
L 274.701134 554.04 
L 274.701134 542.258182 
L 180 542.258182 
z
" clip-path="url(#p8623fa25ef)" style="fill: #0000ff"/>
   </g>
   <g id="patch_4">
    <path d="M 193.046712 554.04 
L 248.157823 554.04 
L 248.157823 542.258182 
L 193.046712 542.258182 
z
" clip-path="url(#p8623fa25ef)" style="fill: #0000ff"/>
   </g>
   <g id="patch_5">
    <path d="M 193.046712 554.04 
L 222.064399 554.04 
L 222.064399 542.258182 
L 193.046712 542.258182 
z
" clip-path="url(#p8623fa25ef)" style="fill: #0000ff"/>
   </g>
   <g id="patch_6">
    <path d="M 193.046712 554.04 
L 216.440816 554.04 
L 216.440816 542.258182 
L 193.046712 542.258182 
z
" clip-path="url(#p8623fa25ef)" style="fill: #0000ff"/>
   </g>
   <g id="patch_7">
    <path d="M 199.795011 554.04 
L 227.463039 554.04 
L 227.463039 542.258182 
L 199.795011 542.258182 
z
" clip-path="url(#p8623fa25ef)" style="fill: #0000ff"/>
   </g>
   <g id="patch_8">
    <path d="M 199.795011 554.04 
L 218.240363 554.04 
L 218.240363 542.258182 
L 199.795011 542.258182 
z
" clip-path="url(#p8623fa25ef)" style="fill: #0000ff"/>
   </g>
   <g id="patch_9">
    <path d="M 199.795011 554.04 
L 267.952834 554.04 
L 267.952834 542.258182 
L 199.795011 542.258182 
z
" clip-path="url(#p8623fa25ef)" style="fill: #0000ff"/>
   </g>
   <g id="patch_10">
    <path d="M 222.964172 554.04 
L 231.287075 554.04 
L 231.287075 542.258182 
L 222.964172 542.258182 
z
" clip-path="url(#p8623fa25ef)" style="fill: #0000ff"/>
   </g>
   <g id="patch_11">
    <path d="M 225.663492 554.04 
L 267.952834 554.04 
L 267.952834 542.258182 
L 225.663492 542.258182 
z
" clip-path="url(#p8623fa25ef)" style="fill: #0000ff"/>
   </g>
   <g id="patch_12">
    <path d="M 261.429478 554.04 
L 274.701134 554.04 
L 274.701134 542.258182 
L 261.429478 542.258182 
z
" clip-path="url(#p8623fa25ef)" style="fill: #0000ff"/>
   </g>
   <g id="patch_13">
    <path d="M 180 524.585455 
L 191.022222 524.585455 
L 191.022222 512.803636 
L 180 512.803636 
z
" clip-path="url(#p8623fa25ef)" style="fill: #0000ff"/>
   </g>
   <g id="patch_14">
    <path d="M 180 524.585455 
L 499.644444 524.585455 
L 499.644444 512.803636 
L 180 512.803636 
z
" clip-path="url(#p8623fa25ef)" style="fill: #0000ff"/>
   </g>
   <g id="patch_15">
    <path d="M 211.717007 524.585455 
L 226.788209 524.585455 
L 226.788209 512.803636 
L 211.717007 512.803636 
z
" clip-path="url(#p8623fa25ef)" style="fill: #0000ff"/>
   </g>
   <g id="patch_16">
    <path d="M 213.741497 524.585455 
L 311.366893 524.585455 
L 311.366893 512.803636 
L 213.741497 512.803636 
z
" clip-path="url(#p8623fa25ef)" style="fill: #0000ff"/>
   </g>
   <g id="patch_17">
    <path d="M 223.189116 524.585455 
L 370.302041 524.585455 
L 370.302041 512.803636 
L 223.189116 512.803636 
z
" clip-path="url(#p8623fa25ef)" style="fill: #0000ff"/>
   </g>
   <g id="patch_18">
    <path d="M 271.776871 524.585455 
L 403.593651 524.585455 
L 403.593651 512.803636 
L 271.776871 512.803636 
z
" clip-path="url(#p8623fa25ef)" style="fill: #0000ff"/>
   </g>
   <g id="patch_19">
    <path d="M 273.126531 524.585455 
L 299.669841 524.585455 
L 299.669841 512.803636 
L 273.126531 512.803636 
z
" clip-path="url(#p8623fa25ef)" style="fill: #0000ff"/>
   </g>
   <g id="patch_20">
    <path d="M 316.090703 524.585455 
L 506.392744 524.585455 
L 506.392744 512.803636 
L 316.090703 512.803636 
z
" clip-path="url(#p8623fa25ef)" style="fill: #0000ff"/>
   </g>
   <g id="patch_21">
    <path d="M 321.714286 524.585455 
L 447.907483 524.585455 
L 447.907483 512.803636 
L 321.714286 512.803636 
z
" clip-path="url(#p8623fa25ef)" style="fill: #0000ff"/>
   </g>
   <g id="patch_22">
    <path d="M 341.73424 524.585455 
L 480.97415 524.585455 
L 480.97415 512.803636 
L 341.73424 512.803636 
z
" clip-path="url(#p8623fa25ef)" style="fill: #0000ff"/>
   </g>
   <g id="patch_23">
    <path d="M 378.175057 524.585455 
L 574.325624 524.585455 
L 574.325624 512.803636 
L 378.175057 512.803636 
z
" clip-path="url(#p8623fa25ef)" style="fill: #0000ff"/>
   </g>
   <g id="patch_24">
    <path d="M 378.624943 524.585455 
L 520.114286 524.585455 
L 520.114286 512.803636 
L 378.624943 512.803636 
z
" clip-path="url(#p8623fa25ef)" style="fill: #0000ff"/>
   </g>
   <g id="patch_25">
    <path d="M 395.045805 524.585455 
L 404.268481 524.585455 
L 404.268481 512.803636 
L 395.045805 512.803636 
z
" clip-path="url(#p8623fa25ef)" style="fill: #0000ff"/>
   </g>
   <g id="patch_26">
    <path d="M 459.154649 524.585455 
L 596.595011 524.585455 
L 596.595011 512.803636 
L 459.154649 512.803636 
z
" clip-path="url(#p8623fa25ef)" style="fill: #0000ff"/>
   </g>
   <g id="patch_27">
    <path d="M 467.477551 524.585455 
L 500.094331 524.585455 
L 500.094331 512.803636 
L 467.477551 512.803636 
z
" clip-path="url(#p8623fa25ef)" style="fill: #0000ff"/>
   </g>
   <g id="patch_28">
    <path d="M 471.076644 524.585455 
L 658.904308 524.585455 
L 658.904308 512.803636 
L 471.076644 512.803636 
z
" clip-path="url(#p8623fa25ef)" style="fill: #0000ff"/>
   </g>
   <g id="patch_29">
    <path d="M 497.395011 524.585455 
L 527.762358 524.585455 
L 527.762358 512.803636 
L 497.395011 512.803636 
z
" clip-path="url(#p8623fa25ef)" style="fill: #0000ff"/>
   </g>
   <g id="patch_30">
    <path d="M 502.568707 524.585455 
L 528.662132 524.585455 
L 528.662132 512.803636 
L 502.568707 512.803636 
z
" clip-path="url(#p8623fa25ef)" style="fill: #0000ff"/>
   </g>
   <g id="patch_31">
    <path d="M 550.481633 524.585455 
L 583.323356 524.585455 
L 583.323356 512.803636 
L 550.481633 512.803636 
z
" clip-path="url(#p8623fa25ef)" style="fill: #0000ff"/>
   </g>
   <g id="patch_32">
    <path d="M 563.078458 524.585455 
L 584.223129 524.585455 
L 584.223129 512.803636 
L 563.078458 512.803636 
z
" clip-path="url(#p8623fa25ef)" style="fill: #0000ff"/>
   </g>
   <g id="patch_33">
    <path d="M 570.051701 524.585455 
L 703.892971 524.585455 
L 703.892971 512.803636 
L 570.051701 512.803636 
z
" clip-path="url(#p8623fa25ef)" style="fill: #0000ff"/>
   </g>
   <g id="patch_34">
    <path d="M 616.390023 524.585455 
L 648.107029 524.585455 
L 648.107029 512.803636 
L 616.390023 512.803636 
z
" clip-path="url(#p8623fa25ef)" style="fill: #0000ff"/>
   </g>
   <g id="patch_35">
    <path d="M 628.761905 524.585455 
L 768.226757 524.585455 
L 768.226757 512.803636 
L 628.761905 512.803636 
z
" clip-path="url(#p8623fa25ef)" style="fill: #0000ff"/>
   </g>
   <g id="patch_36">
    <path d="M 651.481179 524.585455 
L 768.226757 524.585455 
L 768.226757 512.803636 
L 651.481179 512.803636 
z
" clip-path="url(#p8623fa25ef)" style="fill: #0000ff"/>
   </g>
   <g id="patch_37">
    <path d="M 768.451701 519.136364 
L 780.823583 519.136364 
L 780.823583 518.252727 
L 768.451701 518.252727 
z
" clip-path="url(#p8623fa25ef)" style="fill: #0000ff"/>
   </g>
   <g id="patch_38">
    <path d="M 781.048526 524.585455 
L 908.36644 524.585455 
L 908.36644 512.803636 
L 781.048526 512.803636 
z
" clip-path="url(#p8623fa25ef)" style="fill: #0000ff"/>
   </g>
   <g id="patch_39">
    <path d="M 820.188662 524.585455 
L 851.905669 524.585455 
L 851.905669 512.803636 
L 820.188662 512.803636 
z
" clip-path="url(#p8623fa25ef)" style="fill: #0000ff"/>
   </g>
   <g id="patch_40">
    <path d="M 846.057143 524.585455 
L 1002.392744 524.585455 
L 1002.392744 512.803636 
L 846.057143 512.803636 
z
" clip-path="url(#p8623fa25ef)" style="fill: #0000ff"/>
   </g>
   <g id="patch_41">
    <path d="M 855.279819 524.585455 
L 1164.126984 524.585455 
L 1164.126984 512.803636 
L 855.279819 512.803636 
z
" clip-path="url(#p8623fa25ef)" style="fill: #0000ff"/>
   </g>
   <g id="patch_42">
    <path d="M 887.671655 524.585455 
L 1196.518821 524.585455 
L 1196.518821 512.803636 
L 887.671655 512.803636 
z
" clip-path="url(#p8623fa25ef)" style="fill: #0000ff"/>
   </g>
   <g id="patch_43">
    <path d="M 918.938776 524.585455 
L 1035.009524 524.585455 
L 1035.009524 512.803636 
L 918.938776 512.803636 
z
" clip-path="url(#p8623fa25ef)" style="fill: #0000ff"/>
   </g>
   <g id="patch_44">
    <path d="M 948.406349 524.585455 
L 978.098866 524.585455 
L 978.098866 512.803636 
L 948.406349 512.803636 
z
" clip-path="url(#p8623fa25ef)" style="fill: #0000ff"/>
   </g>
   <g id="patch_45">
    <path d="M 1042.432653 524.585455 
L 1072.12517 524.585455 
L 1072.12517 512.803636 
L 1042.432653 512.803636 
z
" clip-path="url(#p8623fa25ef)" style="fill: #0000ff"/>
   </g>
   <g id="patch_46">
    <path d="M 1046.256689 524.585455 
L 1184.821769 524.585455 
L 1184.821769 512.803636 
L 1046.256689 512.803636 
z
" clip-path="url(#p8623fa25ef)" style="fill: #0000ff"/>
   </g>
   <g id="patch_47">
    <path d="M 1075.274376 524.585455 
L 1242.857143 524.585455 
L 1242.857143 512.803636 
L 1075.274376 512.803636 
z
" clip-path="url(#p8623fa25ef)" style="fill: #0000ff"/>
   </g>
   <g id="patch_48">
    <path d="M 1125.211791 524.585455 
L 1150.405442 524.585455 
L 1150.405442 512.803636 
L 1125.211791 512.803636 
z
" clip-path="url(#p8623fa25ef)" style="fill: #0000ff"/>
   </g>
   <g id="patch_49">
    <path d="M 1147.031293 524.585455 
L 1196.518821 524.585455 
L 1196.518821 512.803636 
L 1147.031293 512.803636 
z
" clip-path="url(#p8623fa25ef)" style="fill: #0000ff"/>
   </g>
   <g id="patch_50">
    <path d="M 1229.810431 524.585455 
L 1242.857143 524.585455 
L 1242.857143 512.803636 
L 1229.810431 512.803636 
z
" clip-path="url(#p8623fa25ef)" style="fill: #0000ff"/>
   </g>
   <g id="patch_51">
    <path d="M 180 489.681818 
L 213.066667 489.681818 
L 213.066667 488.798182 
L 180 488.798182 
z
" clip-path="url(#p8623fa25ef)" style="fill: #0000ff"/>
   </g>
   <g id="patch_52">
    <path d="M 213.29161 495.130909 
L 261.654422 495.130909 
L 261.654422 483.349091 
L 213.29161 483.349091 
z
" clip-path="url(#p8623fa25ef)" style="fill: #0000ff"/>
   </g>
   <g id="patch_53">
    <path d="M 250.182313 495.130909 
L 260.979592 495.130909 
L 260.979592 483.349091 
L 250.182313 483.349091 
z
" clip-path="url(#p8623fa25ef)" style="fill: #0000ff"/>
   </g>
   <g id="patch_54">
    <path d="M 180 460.227273 
L 307.317914 460.227273 
L 307.317914 459.343636 
L 180 459.343636 
z
" clip-path="url(#p8623fa25ef)" style="fill: #0000ff"/>
   </g>
   <g id="patch_55">
    <path d="M 307.542857 465.676364 
L 319.689796 465.676364 
L 319.689796 453.894545 
L 307.542857 453.894545 
z
" clip-path="url(#p8623fa25ef)" style="fill: #0000ff"/>
   </g>
   <g id="patch_56">
    <path d="M 180 436.221818 
L 189.447619 436.221818 
L 189.447619 424.44 
L 180 424.44 
z
" clip-path="url(#p8623fa25ef)" style="fill: #0000ff"/>
   </g>
   <g id="patch_57">
    <path d="M 189.672562 430.772727 
L 250.6322 430.772727 
L 250.6322 429.889091 
L 189.672562 429.889091 
z
" clip-path="url(#p8623fa25ef)" style="fill: #0000ff"/>
   </g>
   <g id="patch_58">
    <path d="M 250.857143 436.221818 
L 344.658503 436.221818 
L 344.658503 424.44 
L 250.857143 424.44 
z
" clip-path="url(#p8623fa25ef)" style="fill: #0000ff"/>
   </g>
   <g id="patch_59">
    <path d="M 252.206803 436.221818 
L 374.800907 436.221818 
L 374.800907 424.44 
L 252.206803 424.44 
z
" clip-path="url(#p8623fa25ef)" style="fill: #0000ff"/>
   </g>
   <g id="patch_60">
    <path d="M 256.255782 436.221818 
L 435.085714 436.221818 
L 435.085714 424.44 
L 256.255782 424.44 
z
" clip-path="url(#p8623fa25ef)" style="fill: #0000ff"/>
   </g>
   <g id="patch_61">
    <path d="M 286.398186 436.221818 
L 312.49161 436.221818 
L 312.49161 424.44 
L 286.398186 424.44 
z
" clip-path="url(#p8623fa25ef)" style="fill: #0000ff"/>
   </g>
   <g id="patch_62">
    <path d="M 287.297959 436.221818 
L 315.640816 436.221818 
L 315.640816 424.44 
L 287.297959 424.44 
z
" clip-path="url(#p8623fa25ef)" style="fill: #0000ff"/>
   </g>
   <g id="patch_63">
    <path d="M 297.870295 436.221818 
L 324.863492 436.221818 
L 324.863492 424.44 
L 297.870295 424.44 
z
" clip-path="url(#p8623fa25ef)" style="fill: #0000ff"/>
   </g>
   <g id="patch_64">
    <path d="M 298.545125 436.221818 
L 406.9678 436.221818 
L 406.9678 424.44 
L 298.545125 424.44 
z
" clip-path="url(#p8623fa25ef)" style="fill: #0000ff"/>
   </g>
   <g id="patch_65">
    <path d="M 310.017234 436.221818 
L 328.912472 436.221818 
L 328.912472 424.44 
L 310.017234 424.44 
z
" clip-path="url(#p8623fa25ef)" style="fill: #0000ff"/>
   </g>
   <g id="patch_66">
    <path d="M 317.440363 436.221818 
L 458.479819 436.221818 
L 458.479819 424.44 
L 317.440363 424.44 
z
" clip-path="url(#p8623fa25ef)" style="fill: #0000ff"/>
   </g>
   <g id="patch_67">
    <path d="M 360.179592 436.221818 
L 380.42449 436.221818 
L 380.42449 424.44 
L 360.179592 424.44 
z
" clip-path="url(#p8623fa25ef)" style="fill: #0000ff"/>
   </g>
   <g id="patch_68">
    <path d="M 370.976871 436.221818 
L 399.319728 436.221818 
L 399.319728 424.44 
L 370.976871 424.44 
z
" clip-path="url(#p8623fa25ef)" style="fill: #0000ff"/>
   </g>
   <g id="patch_69">
    <path d="M 374.800907 436.221818 
L 524.838095 436.221818 
L 524.838095 424.44 
L 374.800907 424.44 
z
" clip-path="url(#p8623fa25ef)" style="fill: #0000ff"/>
   </g>
   <g id="patch_70">
    <path d="M 378.849887 436.221818 
L 541.933787 436.221818 
L 541.933787 424.44 
L 378.849887 424.44 
z
" clip-path="url(#p8623fa25ef)" style="fill: #0000ff"/>
   </g>
   <g id="patch_71">
    <path d="M 384.248526 436.221818 
L 411.916553 436.221818 
L 411.916553 424.44 
L 384.248526 424.44 
z
" clip-path="url(#p8623fa25ef)" style="fill: #0000ff"/>
   </g>
   <g id="patch_72">
    <path d="M 387.172789 436.221818 
L 414.840816 436.221818 
L 414.840816 424.44 
L 387.172789 424.44 
z
" clip-path="url(#p8623fa25ef)" style="fill: #0000ff"/>
   </g>
   <g id="patch_73">
    <path d="M 390.546939 436.221818 
L 417.315193 436.221818 
L 417.315193 424.44 
L 390.546939 424.44 
z
" clip-path="url(#p8623fa25ef)" style="fill: #0000ff"/>
   </g>
   <g id="patch_74">
    <path d="M 499.194558 436.221818 
L 513.365986 436.221818 
L 513.365986 424.44 
L 499.194558 424.44 
z
" clip-path="url(#p8623fa25ef)" style="fill: #0000ff"/>
   </g>
   <g id="patch_75">
    <path d="M 500.769161 436.221818 
L 518.989569 436.221818 
L 518.989569 424.44 
L 500.769161 424.44 
z
" clip-path="url(#p8623fa25ef)" style="fill: #0000ff"/>
   </g>
   <g id="patch_76">
    <path d="M 500.769161 436.221818 
L 515.840363 436.221818 
L 515.840363 424.44 
L 500.769161 424.44 
z
" clip-path="url(#p8623fa25ef)" style="fill: #0000ff"/>
   </g>
   <g id="patch_77">
    <path d="M 500.769161 436.221818 
L 516.290249 436.221818 
L 516.290249 424.44 
L 500.769161 424.44 
z
" clip-path="url(#p8623fa25ef)" style="fill: #0000ff"/>
   </g>
   <g id="patch_78">
    <path d="M 500.769161 436.221818 
L 515.840363 436.221818 
L 515.840363 424.44 
L 500.769161 424.44 
z
" clip-path="url(#p8623fa25ef)" style="fill: #0000ff"/>
   </g>
   <g id="patch_79">
    <path d="M 501.668934 436.221818 
L 515.61542 436.221818 
L 515.61542 424.44 
L 501.668934 424.44 
z
" clip-path="url(#p8623fa25ef)" style="fill: #0000ff"/>
   </g>
   <g id="patch_80">
    <path d="M 528.437188 436.221818 
L 541.933787 436.221818 
L 541.933787 424.44 
L 528.437188 424.44 
z
" clip-path="url(#p8623fa25ef)" style="fill: #0000ff"/>
   </g>
   <g id="patch_81">
    <path d="M 180 401.318182 
L 225.213605 401.318182 
L 225.213605 400.434545 
L 180 400.434545 
z
" clip-path="url(#p8623fa25ef)" style="fill: #0000ff"/>
   </g>
   <g id="patch_82">
    <path d="M 225.438549 406.767273 
L 244.55873 406.767273 
L 244.55873 394.985455 
L 225.438549 394.985455 
z
" clip-path="url(#p8623fa25ef)" style="fill: #0000ff"/>
   </g>
   <g id="patch_83">
    <path d="M 244.783673 401.318182 
L 250.407256 401.318182 
L 250.407256 400.434545 
L 244.783673 400.434545 
z
" clip-path="url(#p8623fa25ef)" style="fill: #0000ff"/>
   </g>
   <g id="patch_84">
    <path d="M 180 377.312727 
L 188.772789 377.312727 
L 188.772789 365.530909 
L 180 365.530909 
z
" clip-path="url(#p8623fa25ef)" style="fill: #0000ff"/>
   </g>
   <g id="patch_85">
    <path d="M 188.997732 371.863636 
L 196.870748 371.863636 
L 196.870748 370.98 
L 188.997732 370.98 
z
" clip-path="url(#p8623fa25ef)" style="fill: #0000ff"/>
   </g>
   <g id="patch_86">
    <path d="M 197.095692 377.312727 
L 361.529252 377.312727 
L 361.529252 365.530909 
L 197.095692 365.530909 
z
" clip-path="url(#p8623fa25ef)" style="fill: #0000ff"/>
   </g>
   <g id="patch_87">
    <path d="M 205.868481 377.312727 
L 367.152834 377.312727 
L 367.152834 365.530909 
L 205.868481 365.530909 
z
" clip-path="url(#p8623fa25ef)" style="fill: #0000ff"/>
   </g>
   <g id="patch_88">
    <path d="M 213.066667 377.312727 
L 322.614059 377.312727 
L 322.614059 365.530909 
L 213.066667 365.530909 
z
" clip-path="url(#p8623fa25ef)" style="fill: #0000ff"/>
   </g>
   <g id="patch_89">
    <path d="M 217.790476 377.312727 
L 386.722902 377.312727 
L 386.722902 365.530909 
L 217.790476 365.530909 
z
" clip-path="url(#p8623fa25ef)" style="fill: #0000ff"/>
   </g>
   <g id="patch_90">
    <path d="M 226.338322 377.312727 
L 404.268481 377.312727 
L 404.268481 365.530909 
L 226.338322 365.530909 
z
" clip-path="url(#p8623fa25ef)" style="fill: #0000ff"/>
   </g>
   <g id="patch_91">
    <path d="M 232.861678 377.312727 
L 330.262132 377.312727 
L 330.262132 365.530909 
L 232.861678 365.530909 
z
" clip-path="url(#p8623fa25ef)" style="fill: #0000ff"/>
   </g>
   <g id="patch_92">
    <path d="M 252.206803 377.312727 
L 269.527438 377.312727 
L 269.527438 365.530909 
L 252.206803 365.530909 
z
" clip-path="url(#p8623fa25ef)" style="fill: #0000ff"/>
   </g>
   <g id="patch_93">
    <path d="M 264.128798 377.312727 
L 324.638549 377.312727 
L 324.638549 365.530909 
L 264.128798 365.530909 
z
" clip-path="url(#p8623fa25ef)" style="fill: #0000ff"/>
   </g>
   <g id="patch_94">
    <path d="M 269.752381 377.312727 
L 363.103855 377.312727 
L 363.103855 365.530909 
L 269.752381 365.530909 
z
" clip-path="url(#p8623fa25ef)" style="fill: #0000ff"/>
   </g>
   <g id="patch_95">
    <path d="M 271.326984 377.312727 
L 295.170975 377.312727 
L 295.170975 365.530909 
L 271.326984 365.530909 
z
" clip-path="url(#p8623fa25ef)" style="fill: #0000ff"/>
   </g>
   <g id="patch_96">
    <path d="M 271.776871 377.312727 
L 294.946032 377.312727 
L 294.946032 365.530909 
L 271.776871 365.530909 
z
" clip-path="url(#p8623fa25ef)" style="fill: #0000ff"/>
   </g>
   <g id="patch_97">
    <path d="M 271.776871 377.312727 
L 411.241723 377.312727 
L 411.241723 365.530909 
L 271.776871 365.530909 
z
" clip-path="url(#p8623fa25ef)" style="fill: #0000ff"/>
   </g>
   <g id="patch_98">
    <path d="M 272.001814 377.312727 
L 414.615873 377.312727 
L 414.615873 365.530909 
L 272.001814 365.530909 
z
" clip-path="url(#p8623fa25ef)" style="fill: #0000ff"/>
   </g>
   <g id="patch_99">
    <path d="M 272.226757 377.312727 
L 326.887982 377.312727 
L 326.887982 365.530909 
L 272.226757 365.530909 
z
" clip-path="url(#p8623fa25ef)" style="fill: #0000ff"/>
   </g>
   <g id="patch_100">
    <path d="M 273.126531 377.312727 
L 289.997279 377.312727 
L 289.997279 365.530909 
L 273.126531 365.530909 
z
" clip-path="url(#p8623fa25ef)" style="fill: #0000ff"/>
   </g>
   <g id="patch_101">
    <path d="M 274.026304 377.312727 
L 299.669841 377.312727 
L 299.669841 365.530909 
L 274.026304 365.530909 
z
" clip-path="url(#p8623fa25ef)" style="fill: #0000ff"/>
   </g>
   <g id="patch_102">
    <path d="M 274.251247 377.312727 
L 296.295692 377.312727 
L 296.295692 365.530909 
L 274.251247 365.530909 
z
" clip-path="url(#p8623fa25ef)" style="fill: #0000ff"/>
   </g>
   <g id="patch_103">
    <path d="M 274.926077 377.312727 
L 432.611338 377.312727 
L 432.611338 365.530909 
L 274.926077 365.530909 
z
" clip-path="url(#p8623fa25ef)" style="fill: #0000ff"/>
   </g>
   <g id="patch_104">
    <path d="M 275.600907 377.312727 
L 411.241723 377.312727 
L 411.241723 365.530909 
L 275.600907 365.530909 
z
" clip-path="url(#p8623fa25ef)" style="fill: #0000ff"/>
   </g>
   <g id="patch_105">
    <path d="M 275.82585 377.312727 
L 360.404535 377.312727 
L 360.404535 365.530909 
L 275.82585 365.530909 
z
" clip-path="url(#p8623fa25ef)" style="fill: #0000ff"/>
   </g>
   <g id="patch_106">
    <path d="M 276.275737 377.312727 
L 371.651701 377.312727 
L 371.651701 365.530909 
L 276.275737 365.530909 
z
" clip-path="url(#p8623fa25ef)" style="fill: #0000ff"/>
   </g>
   <g id="patch_107">
    <path d="M 276.725624 377.312727 
L 325.538322 377.312727 
L 325.538322 365.530909 
L 276.725624 365.530909 
z
" clip-path="url(#p8623fa25ef)" style="fill: #0000ff"/>
   </g>
   <g id="patch_108">
    <path d="M 276.725624 377.312727 
L 302.819048 377.312727 
L 302.819048 365.530909 
L 276.725624 365.530909 
z
" clip-path="url(#p8623fa25ef)" style="fill: #0000ff"/>
   </g>
   <g id="patch_109">
    <path d="M 277.625397 377.312727 
L 362.653968 377.312727 
L 362.653968 365.530909 
L 277.625397 365.530909 
z
" clip-path="url(#p8623fa25ef)" style="fill: #0000ff"/>
   </g>
   <g id="patch_110">
    <path d="M 277.625397 377.312727 
L 417.540136 377.312727 
L 417.540136 365.530909 
L 277.625397 365.530909 
z
" clip-path="url(#p8623fa25ef)" style="fill: #0000ff"/>
   </g>
   <g id="patch_111">
    <path d="M 277.625397 377.312727 
L 294.721088 377.312727 
L 294.721088 365.530909 
L 277.625397 365.530909 
z
" clip-path="url(#p8623fa25ef)" style="fill: #0000ff"/>
   </g>
   <g id="patch_112">
    <path d="M 277.85034 377.312727 
L 330.262132 377.312727 
L 330.262132 365.530909 
L 277.85034 365.530909 
z
" clip-path="url(#p8623fa25ef)" style="fill: #0000ff"/>
   </g>
   <g id="patch_113">
    <path d="M 277.85034 377.312727 
L 299.444898 377.312727 
L 299.444898 365.530909 
L 277.85034 365.530909 
z
" clip-path="url(#p8623fa25ef)" style="fill: #0000ff"/>
   </g>
   <g id="patch_114">
    <path d="M 277.85034 377.312727 
L 305.968254 377.312727 
L 305.968254 365.530909 
L 277.85034 365.530909 
z
" clip-path="url(#p8623fa25ef)" style="fill: #0000ff"/>
   </g>
   <g id="patch_115">
    <path d="M 278.075283 377.312727 
L 333.186395 377.312727 
L 333.186395 365.530909 
L 278.075283 365.530909 
z
" clip-path="url(#p8623fa25ef)" style="fill: #0000ff"/>
   </g>
   <g id="patch_116">
    <path d="M 279.649887 377.312727 
L 301.019501 377.312727 
L 301.019501 365.530909 
L 279.649887 365.530909 
z
" clip-path="url(#p8623fa25ef)" style="fill: #0000ff"/>
   </g>
   <g id="patch_117">
    <path d="M 280.999546 377.312727 
L 301.694331 377.312727 
L 301.694331 365.530909 
L 280.999546 365.530909 
z
" clip-path="url(#p8623fa25ef)" style="fill: #0000ff"/>
   </g>
   <g id="patch_118">
    <path d="M 280.999546 377.312727 
L 309.11746 377.312727 
L 309.11746 365.530909 
L 280.999546 365.530909 
z
" clip-path="url(#p8623fa25ef)" style="fill: #0000ff"/>
   </g>
   <g id="patch_119">
    <path d="M 280.999546 377.312727 
L 335.435828 377.312727 
L 335.435828 365.530909 
L 280.999546 365.530909 
z
" clip-path="url(#p8623fa25ef)" style="fill: #0000ff"/>
   </g>
   <g id="patch_120">
    <path d="M 281.22449 377.312727 
L 327.787755 377.312727 
L 327.787755 365.530909 
L 281.22449 365.530909 
z
" clip-path="url(#p8623fa25ef)" style="fill: #0000ff"/>
   </g>
   <g id="patch_121">
    <path d="M 282.349206 377.312727 
L 304.168707 377.312727 
L 304.168707 365.530909 
L 282.349206 365.530909 
z
" clip-path="url(#p8623fa25ef)" style="fill: #0000ff"/>
   </g>
   <g id="patch_122">
    <path d="M 282.57415 377.312727 
L 341.509297 377.312727 
L 341.509297 365.530909 
L 282.57415 365.530909 
z
" clip-path="url(#p8623fa25ef)" style="fill: #0000ff"/>
   </g>
   <g id="patch_123">
    <path d="M 284.148753 377.312727 
L 312.266667 377.312727 
L 312.266667 365.530909 
L 284.148753 365.530909 
z
" clip-path="url(#p8623fa25ef)" style="fill: #0000ff"/>
   </g>
   <g id="patch_124">
    <path d="M 284.148753 377.312727 
L 405.393197 377.312727 
L 405.393197 365.530909 
L 284.148753 365.530909 
z
" clip-path="url(#p8623fa25ef)" style="fill: #0000ff"/>
   </g>
   <g id="patch_125">
    <path d="M 284.148753 377.312727 
L 341.73424 377.312727 
L 341.73424 365.530909 
L 284.148753 365.530909 
z
" clip-path="url(#p8623fa25ef)" style="fill: #0000ff"/>
   </g>
   <g id="patch_126">
    <path d="M 285.048526 377.312727 
L 396.845351 377.312727 
L 396.845351 365.530909 
L 285.048526 365.530909 
z
" clip-path="url(#p8623fa25ef)" style="fill: #0000ff"/>
   </g>
   <g id="patch_127">
    <path d="M 287.297959 377.312727 
L 351.181859 377.312727 
L 351.181859 365.530909 
L 287.297959 365.530909 
z
" clip-path="url(#p8623fa25ef)" style="fill: #0000ff"/>
   </g>
   <g id="patch_128">
    <path d="M 287.297959 377.312727 
L 315.415873 377.312727 
L 315.415873 365.530909 
L 287.297959 365.530909 
z
" clip-path="url(#p8623fa25ef)" style="fill: #0000ff"/>
   </g>
   <g id="patch_129">
    <path d="M 287.522902 377.312727 
L 342.634014 377.312727 
L 342.634014 365.530909 
L 287.522902 365.530909 
z
" clip-path="url(#p8623fa25ef)" style="fill: #0000ff"/>
   </g>
   <g id="patch_130">
    <path d="M 289.097506 377.312727 
L 310.46712 377.312727 
L 310.46712 365.530909 
L 289.097506 365.530909 
z
" clip-path="url(#p8623fa25ef)" style="fill: #0000ff"/>
   </g>
   <g id="patch_131">
    <path d="M 290.447166 377.312727 
L 344.883447 377.312727 
L 344.883447 365.530909 
L 290.447166 365.530909 
z
" clip-path="url(#p8623fa25ef)" style="fill: #0000ff"/>
   </g>
   <g id="patch_132">
    <path d="M 290.447166 377.312727 
L 311.14195 377.312727 
L 311.14195 365.530909 
L 290.447166 365.530909 
z
" clip-path="url(#p8623fa25ef)" style="fill: #0000ff"/>
   </g>
   <g id="patch_133">
    <path d="M 290.447166 377.312727 
L 318.565079 377.312727 
L 318.565079 365.530909 
L 290.447166 365.530909 
z
" clip-path="url(#p8623fa25ef)" style="fill: #0000ff"/>
   </g>
   <g id="patch_134">
    <path d="M 291.796825 377.312727 
L 313.616327 377.312727 
L 313.616327 365.530909 
L 291.796825 365.530909 
z
" clip-path="url(#p8623fa25ef)" style="fill: #0000ff"/>
   </g>
   <g id="patch_135">
    <path d="M 293.596372 377.312727 
L 321.714286 377.312727 
L 321.714286 365.530909 
L 293.596372 365.530909 
z
" clip-path="url(#p8623fa25ef)" style="fill: #0000ff"/>
   </g>
   <g id="patch_136">
    <path d="M 296.745578 377.312727 
L 324.863492 377.312727 
L 324.863492 365.530909 
L 296.745578 365.530909 
z
" clip-path="url(#p8623fa25ef)" style="fill: #0000ff"/>
   </g>
   <g id="patch_137">
    <path d="M 296.970522 377.312727 
L 366.927891 377.312727 
L 366.927891 365.530909 
L 296.970522 365.530909 
z
" clip-path="url(#p8623fa25ef)" style="fill: #0000ff"/>
   </g>
   <g id="patch_138">
    <path d="M 297.870295 377.312727 
L 353.881179 377.312727 
L 353.881179 365.530909 
L 297.870295 365.530909 
z
" clip-path="url(#p8623fa25ef)" style="fill: #0000ff"/>
   </g>
   <g id="patch_139">
    <path d="M 298.545125 377.312727 
L 319.914739 377.312727 
L 319.914739 365.530909 
L 298.545125 365.530909 
z
" clip-path="url(#p8623fa25ef)" style="fill: #0000ff"/>
   </g>
   <g id="patch_140">
    <path d="M 299.894785 377.312727 
L 352.306576 377.312727 
L 352.306576 365.530909 
L 299.894785 365.530909 
z
" clip-path="url(#p8623fa25ef)" style="fill: #0000ff"/>
   </g>
   <g id="patch_141">
    <path d="M 299.894785 377.312727 
L 320.589569 377.312727 
L 320.589569 365.530909 
L 299.894785 365.530909 
z
" clip-path="url(#p8623fa25ef)" style="fill: #0000ff"/>
   </g>
   <g id="patch_142">
    <path d="M 299.894785 377.312727 
L 328.012698 377.312727 
L 328.012698 365.530909 
L 299.894785 365.530909 
z
" clip-path="url(#p8623fa25ef)" style="fill: #0000ff"/>
   </g>
   <g id="patch_143">
    <path d="M 301.244444 377.312727 
L 373.226304 377.312727 
L 373.226304 365.530909 
L 301.244444 365.530909 
z
" clip-path="url(#p8623fa25ef)" style="fill: #0000ff"/>
   </g>
   <g id="patch_144">
    <path d="M 301.244444 377.312727 
L 323.063946 377.312727 
L 323.063946 365.530909 
L 301.244444 365.530909 
z
" clip-path="url(#p8623fa25ef)" style="fill: #0000ff"/>
   </g>
   <g id="patch_145">
    <path d="M 303.043991 377.312727 
L 331.161905 377.312727 
L 331.161905 365.530909 
L 303.043991 365.530909 
z
" clip-path="url(#p8623fa25ef)" style="fill: #0000ff"/>
   </g>
   <g id="patch_146">
    <path d="M 303.943764 377.312727 
L 404.943311 377.312727 
L 404.943311 365.530909 
L 303.943764 365.530909 
z
" clip-path="url(#p8623fa25ef)" style="fill: #0000ff"/>
   </g>
   <g id="patch_147">
    <path d="M 304.393651 377.312727 
L 326.213152 377.312727 
L 326.213152 365.530909 
L 304.393651 365.530909 
z
" clip-path="url(#p8623fa25ef)" style="fill: #0000ff"/>
   </g>
   <g id="patch_148">
    <path d="M 304.618594 377.312727 
L 332.736508 377.312727 
L 332.736508 365.530909 
L 304.618594 365.530909 
z
" clip-path="url(#p8623fa25ef)" style="fill: #0000ff"/>
   </g>
   <g id="patch_149">
    <path d="M 306.193197 377.312727 
L 334.311111 377.312727 
L 334.311111 365.530909 
L 306.193197 365.530909 
z
" clip-path="url(#p8623fa25ef)" style="fill: #0000ff"/>
   </g>
   <g id="patch_150">
    <path d="M 307.992744 377.312727 
L 329.362358 377.312727 
L 329.362358 365.530909 
L 307.992744 365.530909 
z
" clip-path="url(#p8623fa25ef)" style="fill: #0000ff"/>
   </g>
   <g id="patch_151">
    <path d="M 308.892517 377.312727 
L 326.663039 377.312727 
L 326.663039 365.530909 
L 308.892517 365.530909 
z
" clip-path="url(#p8623fa25ef)" style="fill: #0000ff"/>
   </g>
   <g id="patch_152">
    <path d="M 309.342404 377.312727 
L 337.460317 377.312727 
L 337.460317 365.530909 
L 309.342404 365.530909 
z
" clip-path="url(#p8623fa25ef)" style="fill: #0000ff"/>
   </g>
   <g id="patch_153">
    <path d="M 310.692063 377.312727 
L 370.077098 377.312727 
L 370.077098 365.530909 
L 310.692063 365.530909 
z
" clip-path="url(#p8623fa25ef)" style="fill: #0000ff"/>
   </g>
   <g id="patch_154">
    <path d="M 310.692063 377.312727 
L 385.373243 377.312727 
L 385.373243 365.530909 
L 310.692063 365.530909 
z
" clip-path="url(#p8623fa25ef)" style="fill: #0000ff"/>
   </g>
   <g id="patch_155">
    <path d="M 312.49161 377.312727 
L 335.660771 377.312727 
L 335.660771 365.530909 
L 312.49161 365.530909 
z
" clip-path="url(#p8623fa25ef)" style="fill: #0000ff"/>
   </g>
   <g id="patch_156">
    <path d="M 312.49161 377.312727 
L 340.609524 377.312727 
L 340.609524 365.530909 
L 312.49161 365.530909 
z
" clip-path="url(#p8623fa25ef)" style="fill: #0000ff"/>
   </g>
   <g id="patch_157">
    <path d="M 315.640816 377.312727 
L 369.177324 377.312727 
L 369.177324 365.530909 
L 315.640816 365.530909 
z
" clip-path="url(#p8623fa25ef)" style="fill: #0000ff"/>
   </g>
   <g id="patch_158">
    <path d="M 315.640816 377.312727 
L 343.75873 377.312727 
L 343.75873 365.530909 
L 315.640816 365.530909 
z
" clip-path="url(#p8623fa25ef)" style="fill: #0000ff"/>
   </g>
   <g id="patch_159">
    <path d="M 317.440363 377.312727 
L 338.809977 377.312727 
L 338.809977 365.530909 
L 317.440363 365.530909 
z
" clip-path="url(#p8623fa25ef)" style="fill: #0000ff"/>
   </g>
   <g id="patch_160">
    <path d="M 318.790023 377.312727 
L 346.907937 377.312727 
L 346.907937 365.530909 
L 318.790023 365.530909 
z
" clip-path="url(#p8623fa25ef)" style="fill: #0000ff"/>
   </g>
   <g id="patch_161">
    <path d="M 321.939229 377.312727 
L 350.057143 377.312727 
L 350.057143 365.530909 
L 321.939229 365.530909 
z
" clip-path="url(#p8623fa25ef)" style="fill: #0000ff"/>
   </g>
   <g id="patch_162">
    <path d="M 323.288889 377.312727 
L 345.10839 377.312727 
L 345.10839 365.530909 
L 323.288889 365.530909 
z
" clip-path="url(#p8623fa25ef)" style="fill: #0000ff"/>
   </g>
   <g id="patch_163">
    <path d="M 323.963719 377.312727 
L 379.299773 377.312727 
L 379.299773 365.530909 
L 323.963719 365.530909 
z
" clip-path="url(#p8623fa25ef)" style="fill: #0000ff"/>
   </g>
   <g id="patch_164">
    <path d="M 325.088435 377.312727 
L 353.206349 377.312727 
L 353.206349 365.530909 
L 325.088435 365.530909 
z
" clip-path="url(#p8623fa25ef)" style="fill: #0000ff"/>
   </g>
   <g id="patch_165">
    <path d="M 328.237642 377.312727 
L 356.355556 377.312727 
L 356.355556 365.530909 
L 328.237642 365.530909 
z
" clip-path="url(#p8623fa25ef)" style="fill: #0000ff"/>
   </g>
   <g id="patch_166">
    <path d="M 330.037188 377.312727 
L 351.406803 377.312727 
L 351.406803 365.530909 
L 330.037188 365.530909 
z
" clip-path="url(#p8623fa25ef)" style="fill: #0000ff"/>
   </g>
   <g id="patch_167">
    <path d="M 331.386848 377.312727 
L 359.504762 377.312727 
L 359.504762 365.530909 
L 331.386848 365.530909 
z
" clip-path="url(#p8623fa25ef)" style="fill: #0000ff"/>
   </g>
   <g id="patch_168">
    <path d="M 332.736508 377.312727 
L 354.556009 377.312727 
L 354.556009 365.530909 
L 332.736508 365.530909 
z
" clip-path="url(#p8623fa25ef)" style="fill: #0000ff"/>
   </g>
   <g id="patch_169">
    <path d="M 334.536054 377.312727 
L 362.653968 377.312727 
L 362.653968 365.530909 
L 334.536054 365.530909 
z
" clip-path="url(#p8623fa25ef)" style="fill: #0000ff"/>
   </g>
   <g id="patch_170">
    <path d="M 337.685261 377.312727 
L 365.803175 377.312727 
L 365.803175 365.530909 
L 337.685261 365.530909 
z
" clip-path="url(#p8623fa25ef)" style="fill: #0000ff"/>
   </g>
   <g id="patch_171">
    <path d="M 340.834467 377.312727 
L 362.429025 377.312727 
L 362.429025 365.530909 
L 340.834467 365.530909 
z
" clip-path="url(#p8623fa25ef)" style="fill: #0000ff"/>
   </g>
   <g id="patch_172">
    <path d="M 340.834467 377.312727 
L 368.952381 377.312727 
L 368.952381 365.530909 
L 340.834467 365.530909 
z
" clip-path="url(#p8623fa25ef)" style="fill: #0000ff"/>
   </g>
   <g id="patch_173">
    <path d="M 342.40907 377.312727 
L 364.003628 377.312727 
L 364.003628 365.530909 
L 342.40907 365.530909 
z
" clip-path="url(#p8623fa25ef)" style="fill: #0000ff"/>
   </g>
   <g id="patch_174">
    <path d="M 343.983673 377.312727 
L 371.876644 377.312727 
L 371.876644 365.530909 
L 343.983673 365.530909 
z
" clip-path="url(#p8623fa25ef)" style="fill: #0000ff"/>
   </g>
   <g id="patch_175">
    <path d="M 343.983673 377.312727 
L 365.578231 377.312727 
L 365.578231 365.530909 
L 343.983673 365.530909 
z
" clip-path="url(#p8623fa25ef)" style="fill: #0000ff"/>
   </g>
   <g id="patch_176">
    <path d="M 347.13288 377.312727 
L 373.451247 377.312727 
L 373.451247 365.530909 
L 347.13288 365.530909 
z
" clip-path="url(#p8623fa25ef)" style="fill: #0000ff"/>
   </g>
   <g id="patch_177">
    <path d="M 348.932426 377.312727 
L 370.302041 377.312727 
L 370.302041 365.530909 
L 348.932426 365.530909 
z
" clip-path="url(#p8623fa25ef)" style="fill: #0000ff"/>
   </g>
   <g id="patch_178">
    <path d="M 350.282086 377.312727 
L 384.698413 377.312727 
L 384.698413 365.530909 
L 350.282086 365.530909 
z
" clip-path="url(#p8623fa25ef)" style="fill: #0000ff"/>
   </g>
   <g id="patch_179">
    <path d="M 351.631746 377.312727 
L 373.451247 377.312727 
L 373.451247 365.530909 
L 351.631746 365.530909 
z
" clip-path="url(#p8623fa25ef)" style="fill: #0000ff"/>
   </g>
   <g id="patch_180">
    <path d="M 356.580499 377.312727 
L 387.847619 377.312727 
L 387.847619 365.530909 
L 356.580499 365.530909 
z
" clip-path="url(#p8623fa25ef)" style="fill: #0000ff"/>
   </g>
   <g id="patch_181">
    <path d="M 359.729705 377.312727 
L 390.771882 377.312727 
L 390.771882 365.530909 
L 359.729705 365.530909 
z
" clip-path="url(#p8623fa25ef)" style="fill: #0000ff"/>
   </g>
   <g id="patch_182">
    <path d="M 361.079365 377.312727 
L 382.898866 377.312727 
L 382.898866 365.530909 
L 361.079365 365.530909 
z
" clip-path="url(#p8623fa25ef)" style="fill: #0000ff"/>
   </g>
   <g id="patch_183">
    <path d="M 366.028118 377.312727 
L 397.070295 377.312727 
L 397.070295 365.530909 
L 366.028118 365.530909 
z
" clip-path="url(#p8623fa25ef)" style="fill: #0000ff"/>
   </g>
   <g id="patch_184">
    <path d="M 367.602721 377.312727 
L 401.344218 377.312727 
L 401.344218 365.530909 
L 367.602721 365.530909 
z
" clip-path="url(#p8623fa25ef)" style="fill: #0000ff"/>
   </g>
   <g id="patch_185">
    <path d="M 369.177324 377.312727 
L 400.444444 377.312727 
L 400.444444 365.530909 
L 369.177324 365.530909 
z
" clip-path="url(#p8623fa25ef)" style="fill: #0000ff"/>
   </g>
   <g id="patch_186">
    <path d="M 377.72517 377.312727 
L 403.143764 377.312727 
L 403.143764 365.530909 
L 377.72517 365.530909 
z
" clip-path="url(#p8623fa25ef)" style="fill: #0000ff"/>
   </g>
   <g id="patch_187">
    <path d="M 377.72517 377.312727 
L 398.644898 377.312727 
L 398.644898 365.530909 
L 377.72517 365.530909 
z
" clip-path="url(#p8623fa25ef)" style="fill: #0000ff"/>
   </g>
   <g id="patch_188">
    <path d="M 378.849887 377.312727 
L 405.168254 377.312727 
L 405.168254 365.530909 
L 378.849887 365.530909 
z
" clip-path="url(#p8623fa25ef)" style="fill: #0000ff"/>
   </g>
   <g id="patch_189">
    <path d="M 381.77415 377.312727 
L 408.99229 377.312727 
L 408.99229 365.530909 
L 381.77415 365.530909 
z
" clip-path="url(#p8623fa25ef)" style="fill: #0000ff"/>
   </g>
   <g id="patch_190">
    <path d="M 419.564626 377.312727 
L 432.611338 377.312727 
L 432.611338 365.530909 
L 419.564626 365.530909 
z
" clip-path="url(#p8623fa25ef)" style="fill: #0000ff"/>
   </g>
   <g id="patch_191">
    <path d="M 180 342.409091 
L 187.423129 342.409091 
L 187.423129 341.525455 
L 180 341.525455 
z
" clip-path="url(#p8623fa25ef)" style="fill: #0000ff"/>
   </g>
   <g id="patch_192">
    <path d="M 187.648073 347.858182 
L 224.088889 347.858182 
L 224.088889 336.076364 
L 187.648073 336.076364 
z
" clip-path="url(#p8623fa25ef)" style="fill: #0000ff"/>
   </g>
   <g id="patch_193">
    <path d="M 187.648073 347.858182 
L 221.389569 347.858182 
L 221.389569 336.076364 
L 187.648073 336.076364 
z
" clip-path="url(#p8623fa25ef)" style="fill: #0000ff"/>
   </g>
   <g id="patch_194">
    <path d="M 187.648073 347.858182 
L 223.414059 347.858182 
L 223.414059 336.076364 
L 187.648073 336.076364 
z
" clip-path="url(#p8623fa25ef)" style="fill: #0000ff"/>
   </g>
   <g id="patch_195">
    <path d="M 187.648073 347.858182 
L 221.164626 347.858182 
L 221.164626 336.076364 
L 187.648073 336.076364 
z
" clip-path="url(#p8623fa25ef)" style="fill: #0000ff"/>
   </g>
   <g id="patch_196">
    <path d="M 187.873016 347.858182 
L 223.414059 347.858182 
L 223.414059 336.076364 
L 187.873016 336.076364 
z
" clip-path="url(#p8623fa25ef)" style="fill: #0000ff"/>
   </g>
   <g id="patch_197">
    <path d="M 187.873016 347.858182 
L 221.389569 347.858182 
L 221.389569 336.076364 
L 187.873016 336.076364 
z
" clip-path="url(#p8623fa25ef)" style="fill: #0000ff"/>
   </g>
   <g id="patch_198">
    <path d="M 187.873016 347.858182 
L 223.414059 347.858182 
L 223.414059 336.076364 
L 187.873016 336.076364 
z
" clip-path="url(#p8623fa25ef)" style="fill: #0000ff"/>
   </g>
   <g id="patch_199">
    <path d="M 187.873016 347.858182 
L 229.712472 347.858182 
L 229.712472 336.076364 
L 187.873016 336.076364 
z
" clip-path="url(#p8623fa25ef)" style="fill: #0000ff"/>
   </g>
   <g id="patch_200">
    <path d="M 187.873016 347.858182 
L 221.164626 347.858182 
L 221.164626 336.076364 
L 187.873016 336.076364 
z
" clip-path="url(#p8623fa25ef)" style="fill: #0000ff"/>
   </g>
   <g id="patch_201">
    <path d="M 188.097959 347.858182 
L 222.289342 347.858182 
L 222.289342 336.076364 
L 188.097959 336.076364 
z
" clip-path="url(#p8623fa25ef)" style="fill: #0000ff"/>
   </g>
   <g id="patch_202">
    <path d="M 188.322902 347.858182 
L 221.389569 347.858182 
L 221.389569 336.076364 
L 188.322902 336.076364 
z
" clip-path="url(#p8623fa25ef)" style="fill: #0000ff"/>
   </g>
   <g id="patch_203">
    <path d="M 188.322902 347.858182 
L 221.389569 347.858182 
L 221.389569 336.076364 
L 188.322902 336.076364 
z
" clip-path="url(#p8623fa25ef)" style="fill: #0000ff"/>
   </g>
   <g id="patch_204">
    <path d="M 224.088889 347.858182 
L 237.360544 347.858182 
L 237.360544 336.076364 
L 224.088889 336.076364 
z
" clip-path="url(#p8623fa25ef)" style="fill: #0000ff"/>
   </g>
   <g id="patch_205">
    <path d="M 180 318.403636 
L 312.716553 318.403636 
L 312.716553 306.621818 
L 180 306.621818 
z
" clip-path="url(#p8623fa25ef)" style="fill: #0000ff"/>
   </g>
   <g id="patch_206">
    <path d="M 180 318.403636 
L 190.797279 318.403636 
L 190.797279 306.621818 
L 180 306.621818 
z
" clip-path="url(#p8623fa25ef)" style="fill: #0000ff"/>
   </g>
   <g id="patch_207">
    <path d="M 238.035374 318.403636 
L 251.082086 318.403636 
L 251.082086 306.621818 
L 238.035374 306.621818 
z
" clip-path="url(#p8623fa25ef)" style="fill: #0000ff"/>
   </g>
   <g id="patch_208">
    <path d="M 287.747846 318.403636 
L 297.195465 318.403636 
L 297.195465 306.621818 
L 287.747846 306.621818 
z
" clip-path="url(#p8623fa25ef)" style="fill: #0000ff"/>
   </g>
   <g id="patch_209">
    <path d="M 299.444898 318.403636 
L 312.716553 318.403636 
L 312.716553 306.621818 
L 299.444898 306.621818 
z
" clip-path="url(#p8623fa25ef)" style="fill: #0000ff"/>
   </g>
   <g id="patch_210">
    <path d="M 180 288.949091 
L 621.788662 288.949091 
L 621.788662 277.167273 
L 180 277.167273 
z
" clip-path="url(#p8623fa25ef)" style="fill: #0000ff"/>
   </g>
   <g id="patch_211">
    <path d="M 180 288.949091 
L 604.243084 288.949091 
L 604.243084 277.167273 
L 180 277.167273 
z
" clip-path="url(#p8623fa25ef)" style="fill: #0000ff"/>
   </g>
   <g id="patch_212">
    <path d="M 180 288.949091 
L 185.398639 288.949091 
L 185.398639 277.167273 
L 180 277.167273 
z
" clip-path="url(#p8623fa25ef)" style="fill: #0000ff"/>
   </g>
   <g id="patch_213">
    <path d="M 205.643537 288.949091 
L 229.937415 288.949091 
L 229.937415 277.167273 
L 205.643537 277.167273 
z
" clip-path="url(#p8623fa25ef)" style="fill: #0000ff"/>
   </g>
   <g id="patch_214">
    <path d="M 205.643537 288.949091 
L 228.362812 288.949091 
L 228.362812 277.167273 
L 205.643537 277.167273 
z
" clip-path="url(#p8623fa25ef)" style="fill: #0000ff"/>
   </g>
   <g id="patch_215">
    <path d="M 209.692517 288.949091 
L 241.409524 288.949091 
L 241.409524 277.167273 
L 209.692517 277.167273 
z
" clip-path="url(#p8623fa25ef)" style="fill: #0000ff"/>
   </g>
   <g id="patch_216">
    <path d="M 216.440816 288.949091 
L 256.930612 288.949091 
L 256.930612 277.167273 
L 216.440816 277.167273 
z
" clip-path="url(#p8623fa25ef)" style="fill: #0000ff"/>
   </g>
   <g id="patch_217">
    <path d="M 236.685714 288.949091 
L 265.928345 288.949091 
L 265.928345 277.167273 
L 236.685714 277.167273 
z
" clip-path="url(#p8623fa25ef)" style="fill: #0000ff"/>
   </g>
   <g id="patch_218">
    <path d="M 254.006349 288.949091 
L 266.828118 288.949091 
L 266.828118 277.167273 
L 254.006349 277.167273 
z
" clip-path="url(#p8623fa25ef)" style="fill: #0000ff"/>
   </g>
   <g id="patch_219">
    <path d="M 293.146485 288.949091 
L 310.017234 288.949091 
L 310.017234 277.167273 
L 293.146485 277.167273 
z
" clip-path="url(#p8623fa25ef)" style="fill: #0000ff"/>
   </g>
   <g id="patch_220">
    <path d="M 315.86576 288.949091 
L 325.763265 288.949091 
L 325.763265 277.167273 
L 315.86576 277.167273 
z
" clip-path="url(#p8623fa25ef)" style="fill: #0000ff"/>
   </g>
   <g id="patch_221">
    <path d="M 407.64263 288.949091 
L 416.640363 288.949091 
L 416.640363 277.167273 
L 407.64263 277.167273 
z
" clip-path="url(#p8623fa25ef)" style="fill: #0000ff"/>
   </g>
   <g id="patch_222">
    <path d="M 491.321542 288.949091 
L 621.788662 288.949091 
L 621.788662 277.167273 
L 491.321542 277.167273 
z
" clip-path="url(#p8623fa25ef)" style="fill: #0000ff"/>
   </g>
   <g id="patch_223">
    <path d="M 541.034014 288.949091 
L 571.626304 288.949091 
L 571.626304 277.167273 
L 541.034014 277.167273 
z
" clip-path="url(#p8623fa25ef)" style="fill: #0000ff"/>
   </g>
   <g id="patch_224">
    <path d="M 565.102948 288.949091 
L 573.875737 288.949091 
L 573.875737 277.167273 
L 565.102948 277.167273 
z
" clip-path="url(#p8623fa25ef)" style="fill: #0000ff"/>
   </g>
   <g id="patch_225">
    <path d="M 595.245351 288.949091 
L 604.692971 288.949091 
L 604.692971 277.167273 
L 595.245351 277.167273 
z
" clip-path="url(#p8623fa25ef)" style="fill: #0000ff"/>
   </g>
   <g id="patch_226">
    <path d="M 608.292063 288.949091 
L 621.788662 288.949091 
L 621.788662 277.167273 
L 608.292063 277.167273 
z
" clip-path="url(#p8623fa25ef)" style="fill: #0000ff"/>
   </g>
   <g id="patch_227">
    <path d="M 180 259.494545 
L 191.022222 259.494545 
L 191.022222 247.712727 
L 180 247.712727 
z
" clip-path="url(#p8623fa25ef)" style="fill: #0000ff"/>
   </g>
   <g id="patch_228">
    <path d="M 180 259.494545 
L 534.960544 259.494545 
L 534.960544 247.712727 
L 180 247.712727 
z
" clip-path="url(#p8623fa25ef)" style="fill: #0000ff"/>
   </g>
   <g id="patch_229">
    <path d="M 194.171429 259.494545 
L 420.464399 259.494545 
L 420.464399 247.712727 
L 194.171429 247.712727 
z
" clip-path="url(#p8623fa25ef)" style="fill: #0000ff"/>
   </g>
   <g id="patch_230">
    <path d="M 196.195918 259.494545 
L 224.988662 259.494545 
L 224.988662 247.712727 
L 196.195918 247.712727 
z
" clip-path="url(#p8623fa25ef)" style="fill: #0000ff"/>
   </g>
   <g id="patch_231">
    <path d="M 200.244898 259.494545 
L 228.137868 259.494545 
L 228.137868 247.712727 
L 200.244898 247.712727 
z
" clip-path="url(#p8623fa25ef)" style="fill: #0000ff"/>
   </g>
   <g id="patch_232">
    <path d="M 202.269388 259.494545 
L 555.205442 259.494545 
L 555.205442 247.712727 
L 202.269388 247.712727 
z
" clip-path="url(#p8623fa25ef)" style="fill: #0000ff"/>
   </g>
   <g id="patch_233">
    <path d="M 222.289342 259.494545 
L 249.95737 259.494545 
L 249.95737 247.712727 
L 222.289342 247.712727 
z
" clip-path="url(#p8623fa25ef)" style="fill: #0000ff"/>
   </g>
   <g id="patch_234">
    <path d="M 225.213605 259.494545 
L 251.981859 259.494545 
L 251.981859 247.712727 
L 225.213605 247.712727 
z
" clip-path="url(#p8623fa25ef)" style="fill: #0000ff"/>
   </g>
   <g id="patch_235">
    <path d="M 252.881633 259.494545 
L 278.750113 259.494545 
L 278.750113 247.712727 
L 252.881633 247.712727 
z
" clip-path="url(#p8623fa25ef)" style="fill: #0000ff"/>
   </g>
   <g id="patch_236">
    <path d="M 255.805896 259.494545 
L 299.444898 259.494545 
L 299.444898 247.712727 
L 255.805896 247.712727 
z
" clip-path="url(#p8623fa25ef)" style="fill: #0000ff"/>
   </g>
   <g id="patch_237">
    <path d="M 292.696599 259.494545 
L 433.286168 259.494545 
L 433.286168 247.712727 
L 292.696599 247.712727 
z
" clip-path="url(#p8623fa25ef)" style="fill: #0000ff"/>
   </g>
   <g id="patch_238">
    <path d="M 293.371429 259.494545 
L 339.034921 259.494545 
L 339.034921 247.712727 
L 293.371429 247.712727 
z
" clip-path="url(#p8623fa25ef)" style="fill: #0000ff"/>
   </g>
   <g id="patch_239">
    <path d="M 294.046259 259.494545 
L 304.168707 259.494545 
L 304.168707 247.712727 
L 294.046259 247.712727 
z
" clip-path="url(#p8623fa25ef)" style="fill: #0000ff"/>
   </g>
   <g id="patch_240">
    <path d="M 296.970522 259.494545 
L 347.357823 259.494545 
L 347.357823 247.712727 
L 296.970522 247.712727 
z
" clip-path="url(#p8623fa25ef)" style="fill: #0000ff"/>
   </g>
   <g id="patch_241">
    <path d="M 300.119728 259.494545 
L 348.707483 259.494545 
L 348.707483 247.712727 
L 300.119728 247.712727 
z
" clip-path="url(#p8623fa25ef)" style="fill: #0000ff"/>
   </g>
   <g id="patch_242">
    <path d="M 323.738776 259.494545 
L 333.861224 259.494545 
L 333.861224 247.712727 
L 323.738776 247.712727 
z
" clip-path="url(#p8623fa25ef)" style="fill: #0000ff"/>
   </g>
   <g id="patch_243">
    <path d="M 326.663039 259.494545 
L 364.903401 259.494545 
L 364.903401 247.712727 
L 326.663039 247.712727 
z
" clip-path="url(#p8623fa25ef)" style="fill: #0000ff"/>
   </g>
   <g id="patch_244">
    <path d="M 352.306576 259.494545 
L 396.395465 259.494545 
L 396.395465 247.712727 
L 352.306576 247.712727 
z
" clip-path="url(#p8623fa25ef)" style="fill: #0000ff"/>
   </g>
   <g id="patch_245">
    <path d="M 362.653968 259.494545 
L 408.767347 259.494545 
L 408.767347 247.712727 
L 362.653968 247.712727 
z
" clip-path="url(#p8623fa25ef)" style="fill: #0000ff"/>
   </g>
   <g id="patch_246">
    <path d="M 384.698413 259.494545 
L 430.361905 259.494545 
L 430.361905 247.712727 
L 384.698413 247.712727 
z
" clip-path="url(#p8623fa25ef)" style="fill: #0000ff"/>
   </g>
   <g id="patch_247">
    <path d="M 401.569161 259.494545 
L 556.330159 259.494545 
L 556.330159 247.712727 
L 401.569161 247.712727 
z
" clip-path="url(#p8623fa25ef)" style="fill: #0000ff"/>
   </g>
   <g id="patch_248">
    <path d="M 403.593651 259.494545 
L 413.491156 259.494545 
L 413.491156 247.712727 
L 403.593651 247.712727 
z
" clip-path="url(#p8623fa25ef)" style="fill: #0000ff"/>
   </g>
   <g id="patch_249">
    <path d="M 406.292971 259.494545 
L 431.261678 259.494545 
L 431.261678 247.712727 
L 406.292971 247.712727 
z
" clip-path="url(#p8623fa25ef)" style="fill: #0000ff"/>
   </g>
   <g id="patch_250">
    <path d="M 488.172336 259.494545 
L 550.706576 259.494545 
L 550.706576 247.712727 
L 488.172336 247.712727 
z
" clip-path="url(#p8623fa25ef)" style="fill: #0000ff"/>
   </g>
   <g id="patch_251">
    <path d="M 489.746939 259.494545 
L 498.969615 259.494545 
L 498.969615 247.712727 
L 489.746939 247.712727 
z
" clip-path="url(#p8623fa25ef)" style="fill: #0000ff"/>
   </g>
   <g id="patch_252">
    <path d="M 542.83356 259.494545 
L 556.330159 259.494545 
L 556.330159 247.712727 
L 542.83356 247.712727 
z
" clip-path="url(#p8623fa25ef)" style="fill: #0000ff"/>
   </g>
   <g id="patch_253">
    <path d="M 180 230.04 
L 190.122449 230.04 
L 190.122449 218.258182 
L 180 218.258182 
z
" clip-path="url(#p8623fa25ef)" style="fill: #0000ff"/>
   </g>
   <g id="patch_254">
    <path d="M 190.347392 224.590909 
L 191.472109 224.590909 
L 191.472109 223.707273 
L 190.347392 223.707273 
z
" clip-path="url(#p8623fa25ef)" style="fill: #0000ff"/>
   </g>
   <g id="patch_255">
    <path d="M 191.697052 230.04 
L 203.619048 230.04 
L 203.619048 218.258182 
L 191.697052 218.258182 
z
" clip-path="url(#p8623fa25ef)" style="fill: #0000ff"/>
   </g>
   <g id="patch_256">
    <path d="M 194.396372 230.04 
L 297.645351 230.04 
L 297.645351 218.258182 
L 194.396372 218.258182 
z
" clip-path="url(#p8623fa25ef)" style="fill: #0000ff"/>
   </g>
   <g id="patch_257">
    <path d="M 206.318367 230.04 
L 217.115646 230.04 
L 217.115646 218.258182 
L 206.318367 218.258182 
z
" clip-path="url(#p8623fa25ef)" style="fill: #0000ff"/>
   </g>
   <g id="patch_258">
    <path d="M 271.776871 230.04 
L 286.623129 230.04 
L 286.623129 218.258182 
L 271.776871 218.258182 
z
" clip-path="url(#p8623fa25ef)" style="fill: #0000ff"/>
   </g>
   <g id="patch_259">
    <path d="M 293.596372 230.04 
L 450.606803 230.04 
L 450.606803 218.258182 
L 293.596372 218.258182 
z
" clip-path="url(#p8623fa25ef)" style="fill: #0000ff"/>
   </g>
   <g id="patch_260">
    <path d="M 336.335601 230.04 
L 348.707483 230.04 
L 348.707483 218.258182 
L 336.335601 218.258182 
z
" clip-path="url(#p8623fa25ef)" style="fill: #0000ff"/>
   </g>
   <g id="patch_261">
    <path d="M 351.406803 230.04 
L 363.103855 230.04 
L 363.103855 218.258182 
L 351.406803 218.258182 
z
" clip-path="url(#p8623fa25ef)" style="fill: #0000ff"/>
   </g>
   <g id="patch_262">
    <path d="M 365.353288 230.04 
L 383.573696 230.04 
L 383.573696 218.258182 
L 365.353288 218.258182 
z
" clip-path="url(#p8623fa25ef)" style="fill: #0000ff"/>
   </g>
   <g id="patch_263">
    <path d="M 402.019048 230.04 
L 449.931973 230.04 
L 449.931973 218.258182 
L 402.019048 218.258182 
z
" clip-path="url(#p8623fa25ef)" style="fill: #0000ff"/>
   </g>
   <g id="patch_264">
    <path d="M 437.110204 230.04 
L 450.606803 230.04 
L 450.606803 218.258182 
L 437.110204 218.258182 
z
" clip-path="url(#p8623fa25ef)" style="fill: #0000ff"/>
   </g>
   <g id="patch_265">
    <path d="M 180 200.585455 
L 233.536508 200.585455 
L 233.536508 188.803636 
L 180 188.803636 
z
" clip-path="url(#p8623fa25ef)" style="fill: #0000ff"/>
   </g>
   <g id="patch_266">
    <path d="M 180 200.585455 
L 191.022222 200.585455 
L 191.022222 188.803636 
L 180 188.803636 
z
" clip-path="url(#p8623fa25ef)" style="fill: #0000ff"/>
   </g>
   <g id="patch_267">
    <path d="M 196.195918 200.585455 
L 222.739229 200.585455 
L 222.739229 188.803636 
L 196.195918 188.803636 
z
" clip-path="url(#p8623fa25ef)" style="fill: #0000ff"/>
   </g>
   <g id="patch_268">
    <path d="M 199.795011 200.585455 
L 507.292517 200.585455 
L 507.292517 188.803636 
L 199.795011 188.803636 
z
" clip-path="url(#p8623fa25ef)" style="fill: #0000ff"/>
   </g>
   <g id="patch_269">
    <path d="M 201.144671 200.585455 
L 231.287075 200.585455 
L 231.287075 188.803636 
L 201.144671 188.803636 
z
" clip-path="url(#p8623fa25ef)" style="fill: #0000ff"/>
   </g>
   <g id="patch_270">
    <path d="M 229.937415 200.585455 
L 335.435828 200.585455 
L 335.435828 188.803636 
L 229.937415 188.803636 
z
" clip-path="url(#p8623fa25ef)" style="fill: #0000ff"/>
   </g>
   <g id="patch_271">
    <path d="M 234.661224 200.585455 
L 289.097506 200.585455 
L 289.097506 188.803636 
L 234.661224 188.803636 
z
" clip-path="url(#p8623fa25ef)" style="fill: #0000ff"/>
   </g>
   <g id="patch_272">
    <path d="M 255.580952 200.585455 
L 265.478458 200.585455 
L 265.478458 188.803636 
L 255.580952 188.803636 
z
" clip-path="url(#p8623fa25ef)" style="fill: #0000ff"/>
   </g>
   <g id="patch_273">
    <path d="M 258.505215 200.585455 
L 307.7678 200.585455 
L 307.7678 188.803636 
L 258.505215 188.803636 
z
" clip-path="url(#p8623fa25ef)" style="fill: #0000ff"/>
   </g>
   <g id="patch_274">
    <path d="M 282.349206 200.585455 
L 292.246712 200.585455 
L 292.246712 188.803636 
L 282.349206 188.803636 
z
" clip-path="url(#p8623fa25ef)" style="fill: #0000ff"/>
   </g>
   <g id="patch_275">
    <path d="M 285.273469 200.585455 
L 330.037188 200.585455 
L 330.037188 188.803636 
L 285.273469 188.803636 
z
" clip-path="url(#p8623fa25ef)" style="fill: #0000ff"/>
   </g>
   <g id="patch_276">
    <path d="M 295.620862 200.585455 
L 404.043537 200.585455 
L 404.043537 188.803636 
L 295.620862 188.803636 
z
" clip-path="url(#p8623fa25ef)" style="fill: #0000ff"/>
   </g>
   <g id="patch_277">
    <path d="M 302.819048 200.585455 
L 312.716553 200.585455 
L 312.716553 188.803636 
L 302.819048 188.803636 
z
" clip-path="url(#p8623fa25ef)" style="fill: #0000ff"/>
   </g>
   <g id="patch_278">
    <path d="M 305.743311 200.585455 
L 346.008163 200.585455 
L 346.008163 188.803636 
L 305.743311 188.803636 
z
" clip-path="url(#p8623fa25ef)" style="fill: #0000ff"/>
   </g>
   <g id="patch_279">
    <path d="M 323.288889 200.585455 
L 333.186395 200.585455 
L 333.186395 188.803636 
L 323.288889 188.803636 
z
" clip-path="url(#p8623fa25ef)" style="fill: #0000ff"/>
   </g>
   <g id="patch_280">
    <path d="M 338.585034 200.585455 
L 508.417234 200.585455 
L 508.417234 188.803636 
L 338.585034 188.803636 
z
" clip-path="url(#p8623fa25ef)" style="fill: #0000ff"/>
   </g>
   <g id="patch_281">
    <path d="M 339.259864 200.585455 
L 349.15737 200.585455 
L 349.15737 188.803636 
L 339.259864 188.803636 
z
" clip-path="url(#p8623fa25ef)" style="fill: #0000ff"/>
   </g>
   <g id="patch_282">
    <path d="M 341.959184 200.585455 
L 381.09932 200.585455 
L 381.09932 188.803636 
L 341.959184 188.803636 
z
" clip-path="url(#p8623fa25ef)" style="fill: #0000ff"/>
   </g>
   <g id="patch_283">
    <path d="M 359.729705 200.585455 
L 369.627211 200.585455 
L 369.627211 188.803636 
L 359.729705 188.803636 
z
" clip-path="url(#p8623fa25ef)" style="fill: #0000ff"/>
   </g>
   <g id="patch_284">
    <path d="M 390.771882 200.585455 
L 401.569161 200.585455 
L 401.569161 188.803636 
L 390.771882 188.803636 
z
" clip-path="url(#p8623fa25ef)" style="fill: #0000ff"/>
   </g>
   <g id="patch_285">
    <path d="M 440.25941 200.585455 
L 507.967347 200.585455 
L 507.967347 188.803636 
L 440.25941 188.803636 
z
" clip-path="url(#p8623fa25ef)" style="fill: #0000ff"/>
   </g>
   <g id="patch_286">
    <path d="M 441.834014 200.585455 
L 451.056689 200.585455 
L 451.056689 188.803636 
L 441.834014 188.803636 
z
" clip-path="url(#p8623fa25ef)" style="fill: #0000ff"/>
   </g>
   <g id="patch_287">
    <path d="M 469.052154 200.585455 
L 478.049887 200.585455 
L 478.049887 188.803636 
L 469.052154 188.803636 
z
" clip-path="url(#p8623fa25ef)" style="fill: #0000ff"/>
   </g>
   <g id="patch_288">
    <path d="M 494.920635 200.585455 
L 508.417234 200.585455 
L 508.417234 188.803636 
L 494.920635 188.803636 
z
" clip-path="url(#p8623fa25ef)" style="fill: #0000ff"/>
   </g>
   <g id="patch_289">
    <path d="M 180 171.130909 
L 601.093878 171.130909 
L 601.093878 159.349091 
L 180 159.349091 
z
" clip-path="url(#p8623fa25ef)" style="fill: #0000ff"/>
   </g>
   <g id="patch_290">
    <path d="M 180 171.130909 
L 184.948753 171.130909 
L 184.948753 159.349091 
L 180 159.349091 
z
" clip-path="url(#p8623fa25ef)" style="fill: #0000ff"/>
   </g>
   <g id="patch_291">
    <path d="M 204.293878 171.130909 
L 226.338322 171.130909 
L 226.338322 159.349091 
L 204.293878 159.349091 
z
" clip-path="url(#p8623fa25ef)" style="fill: #0000ff"/>
   </g>
   <g id="patch_292">
    <path d="M 204.518821 171.130909 
L 227.912925 171.130909 
L 227.912925 159.349091 
L 204.518821 159.349091 
z
" clip-path="url(#p8623fa25ef)" style="fill: #0000ff"/>
   </g>
   <g id="patch_293">
    <path d="M 207.668027 171.130909 
L 240.284807 171.130909 
L 240.284807 159.349091 
L 207.668027 159.349091 
z
" clip-path="url(#p8623fa25ef)" style="fill: #0000ff"/>
   </g>
   <g id="patch_294">
    <path d="M 211.26712 171.130909 
L 243.658957 171.130909 
L 243.658957 159.349091 
L 211.26712 159.349091 
z
" clip-path="url(#p8623fa25ef)" style="fill: #0000ff"/>
   </g>
   <g id="patch_295">
    <path d="M 214.416327 171.130909 
L 246.358277 171.130909 
L 246.358277 159.349091 
L 214.416327 159.349091 
z
" clip-path="url(#p8623fa25ef)" style="fill: #0000ff"/>
   </g>
   <g id="patch_296">
    <path d="M 220.489796 171.130909 
L 252.881633 171.130909 
L 252.881633 159.349091 
L 220.489796 159.349091 
z
" clip-path="url(#p8623fa25ef)" style="fill: #0000ff"/>
   </g>
   <g id="patch_297">
    <path d="M 234.436281 171.130909 
L 252.656689 171.130909 
L 252.656689 159.349091 
L 234.436281 159.349091 
z
" clip-path="url(#p8623fa25ef)" style="fill: #0000ff"/>
   </g>
   <g id="patch_298">
    <path d="M 240.959637 171.130909 
L 289.772336 171.130909 
L 289.772336 159.349091 
L 240.959637 159.349091 
z
" clip-path="url(#p8623fa25ef)" style="fill: #0000ff"/>
   </g>
   <g id="patch_299">
    <path d="M 268.852608 171.130909 
L 291.346939 171.130909 
L 291.346939 159.349091 
L 268.852608 159.349091 
z
" clip-path="url(#p8623fa25ef)" style="fill: #0000ff"/>
   </g>
   <g id="patch_300">
    <path d="M 268.852608 171.130909 
L 292.021769 171.130909 
L 292.021769 159.349091 
L 268.852608 159.349091 
z
" clip-path="url(#p8623fa25ef)" style="fill: #0000ff"/>
   </g>
   <g id="patch_301">
    <path d="M 269.752381 171.130909 
L 305.743311 171.130909 
L 305.743311 159.349091 
L 269.752381 159.349091 
z
" clip-path="url(#p8623fa25ef)" style="fill: #0000ff"/>
   </g>
   <g id="patch_302">
    <path d="M 273.126531 171.130909 
L 307.092971 171.130909 
L 307.092971 159.349091 
L 273.126531 159.349091 
z
" clip-path="url(#p8623fa25ef)" style="fill: #0000ff"/>
   </g>
   <g id="patch_303">
    <path d="M 276.050794 171.130909 
L 316.765533 171.130909 
L 316.765533 159.349091 
L 276.050794 159.349091 
z
" clip-path="url(#p8623fa25ef)" style="fill: #0000ff"/>
   </g>
   <g id="patch_304">
    <path d="M 283.92381 171.130909 
L 324.638549 171.130909 
L 324.638549 159.349091 
L 283.92381 159.349091 
z
" clip-path="url(#p8623fa25ef)" style="fill: #0000ff"/>
   </g>
   <g id="patch_305">
    <path d="M 299.669841 171.130909 
L 341.284354 171.130909 
L 341.284354 159.349091 
L 299.669841 159.349091 
z
" clip-path="url(#p8623fa25ef)" style="fill: #0000ff"/>
   </g>
   <g id="patch_306">
    <path d="M 315.415873 171.130909 
L 345.558277 171.130909 
L 345.558277 159.349091 
L 315.415873 159.349091 
z
" clip-path="url(#p8623fa25ef)" style="fill: #0000ff"/>
   </g>
   <g id="patch_307">
    <path d="M 348.032653 171.130909 
L 357.255329 171.130909 
L 357.255329 159.349091 
L 348.032653 159.349091 
z
" clip-path="url(#p8623fa25ef)" style="fill: #0000ff"/>
   </g>
   <g id="patch_308">
    <path d="M 351.856689 171.130909 
L 423.388662 171.130909 
L 423.388662 159.349091 
L 351.856689 159.349091 
z
" clip-path="url(#p8623fa25ef)" style="fill: #0000ff"/>
   </g>
   <g id="patch_309">
    <path d="M 351.856689 171.130909 
L 423.163719 171.130909 
L 423.163719 159.349091 
L 351.856689 159.349091 
z
" clip-path="url(#p8623fa25ef)" style="fill: #0000ff"/>
   </g>
   <g id="patch_310">
    <path d="M 352.081633 171.130909 
L 423.163719 171.130909 
L 423.163719 159.349091 
L 352.081633 159.349091 
z
" clip-path="url(#p8623fa25ef)" style="fill: #0000ff"/>
   </g>
   <g id="patch_311">
    <path d="M 352.081633 171.130909 
L 423.388662 171.130909 
L 423.388662 159.349091 
L 352.081633 159.349091 
z
" clip-path="url(#p8623fa25ef)" style="fill: #0000ff"/>
   </g>
   <g id="patch_312">
    <path d="M 352.081633 171.130909 
L 423.163719 171.130909 
L 423.163719 159.349091 
L 352.081633 159.349091 
z
" clip-path="url(#p8623fa25ef)" style="fill: #0000ff"/>
   </g>
   <g id="patch_313">
    <path d="M 352.306576 171.130909 
L 423.163719 171.130909 
L 423.163719 159.349091 
L 352.306576 159.349091 
z
" clip-path="url(#p8623fa25ef)" style="fill: #0000ff"/>
   </g>
   <g id="patch_314">
    <path d="M 352.306576 171.130909 
L 428.562358 171.130909 
L 428.562358 159.349091 
L 352.306576 159.349091 
z
" clip-path="url(#p8623fa25ef)" style="fill: #0000ff"/>
   </g>
   <g id="patch_315">
    <path d="M 395.270748 171.130909 
L 426.087982 171.130909 
L 426.087982 159.349091 
L 395.270748 159.349091 
z
" clip-path="url(#p8623fa25ef)" style="fill: #0000ff"/>
   </g>
   <g id="patch_316">
    <path d="M 442.508844 171.130909 
L 494.020862 171.130909 
L 494.020862 159.349091 
L 442.508844 159.349091 
z
" clip-path="url(#p8623fa25ef)" style="fill: #0000ff"/>
   </g>
   <g id="patch_317">
    <path d="M 444.30839 171.130909 
L 462.528798 171.130909 
L 462.528798 159.349091 
L 444.30839 159.349091 
z
" clip-path="url(#p8623fa25ef)" style="fill: #0000ff"/>
   </g>
   <g id="patch_318">
    <path d="M 490.646712 171.130909 
L 549.131973 171.130909 
L 549.131973 159.349091 
L 490.646712 159.349091 
z
" clip-path="url(#p8623fa25ef)" style="fill: #0000ff"/>
   </g>
   <g id="patch_319">
    <path d="M 524.613152 171.130909 
L 567.802268 171.130909 
L 567.802268 159.349091 
L 524.613152 159.349091 
z
" clip-path="url(#p8623fa25ef)" style="fill: #0000ff"/>
   </g>
   <g id="patch_320">
    <path d="M 587.822222 171.130909 
L 600.194104 171.130909 
L 600.194104 159.349091 
L 587.822222 159.349091 
z
" clip-path="url(#p8623fa25ef)" style="fill: #0000ff"/>
   </g>
   <g id="patch_321">
    <path d="M 180 136.227273 
L 230.612245 136.227273 
L 230.612245 135.343636 
L 180 135.343636 
z
" clip-path="url(#p8623fa25ef)" style="fill: #0000ff"/>
   </g>
   <g id="patch_322">
    <path d="M 230.837188 141.676364 
L 292.021769 141.676364 
L 292.021769 129.894545 
L 230.837188 129.894545 
z
" clip-path="url(#p8623fa25ef)" style="fill: #0000ff"/>
   </g>
   <g id="patch_323">
    <path d="M 292.246712 136.227273 
L 377.500227 136.227273 
L 377.500227 135.343636 
L 292.246712 135.343636 
z
" clip-path="url(#p8623fa25ef)" style="fill: #0000ff"/>
   </g>
   <g id="patch_324">
    <path d="M 180 112.221818 
L 538.559637 112.221818 
L 538.559637 100.44 
L 180 100.44 
z
" clip-path="url(#p8623fa25ef)" style="fill: #0000ff"/>
   </g>
   <g id="patch_325">
    <path d="M 180 112.221818 
L 190.122449 112.221818 
L 190.122449 100.44 
L 180 100.44 
z
" clip-path="url(#p8623fa25ef)" style="fill: #0000ff"/>
   </g>
   <g id="patch_326">
    <path d="M 191.921995 112.221818 
L 535.410431 112.221818 
L 535.410431 100.44 
L 191.921995 100.44 
z
" clip-path="url(#p8623fa25ef)" style="fill: #0000ff"/>
   </g>
   <g id="patch_327">
    <path d="M 193.496599 112.221818 
L 226.338322 112.221818 
L 226.338322 100.44 
L 193.496599 100.44 
z
" clip-path="url(#p8623fa25ef)" style="fill: #0000ff"/>
   </g>
   <g id="patch_328">
    <path d="M 197.095692 112.221818 
L 234.661224 112.221818 
L 234.661224 100.44 
L 197.095692 100.44 
z
" clip-path="url(#p8623fa25ef)" style="fill: #0000ff"/>
   </g>
   <g id="patch_329">
    <path d="M 213.96644 112.221818 
L 247.25805 112.221818 
L 247.25805 100.44 
L 213.96644 100.44 
z
" clip-path="url(#p8623fa25ef)" style="fill: #0000ff"/>
   </g>
   <g id="patch_330">
    <path d="M 223.414059 112.221818 
L 253.556463 112.221818 
L 253.556463 100.44 
L 223.414059 100.44 
z
" clip-path="url(#p8623fa25ef)" style="fill: #0000ff"/>
   </g>
   <g id="patch_331">
    <path d="M 229.262585 112.221818 
L 256.705669 112.221818 
L 256.705669 100.44 
L 229.262585 100.44 
z
" clip-path="url(#p8623fa25ef)" style="fill: #0000ff"/>
   </g>
   <g id="patch_332">
    <path d="M 231.961905 112.221818 
L 259.629932 112.221818 
L 259.629932 100.44 
L 231.961905 100.44 
z
" clip-path="url(#p8623fa25ef)" style="fill: #0000ff"/>
   </g>
   <g id="patch_333">
    <path d="M 234.886168 112.221818 
L 259.404989 112.221818 
L 259.404989 100.44 
L 234.886168 100.44 
z
" clip-path="url(#p8623fa25ef)" style="fill: #0000ff"/>
   </g>
   <g id="patch_334">
    <path d="M 268.177778 112.221818 
L 278.300227 112.221818 
L 278.300227 100.44 
L 268.177778 100.44 
z
" clip-path="url(#p8623fa25ef)" style="fill: #0000ff"/>
   </g>
   <g id="patch_335">
    <path d="M 373.901134 112.221818 
L 403.593651 112.221818 
L 403.593651 100.44 
L 373.901134 100.44 
z
" clip-path="url(#p8623fa25ef)" style="fill: #0000ff"/>
   </g>
   <g id="patch_336">
    <path d="M 495.145578 112.221818 
L 503.918367 112.221818 
L 503.918367 100.44 
L 495.145578 100.44 
z
" clip-path="url(#p8623fa25ef)" style="fill: #0000ff"/>
   </g>
   <g id="patch_337">
    <path d="M 511.116553 112.221818 
L 524.163265 112.221818 
L 524.163265 100.44 
L 511.116553 100.44 
z
" clip-path="url(#p8623fa25ef)" style="fill: #0000ff"/>
   </g>
   <g id="patch_338">
    <path d="M 519.664399 112.221818 
L 598.394558 112.221818 
L 598.394558 100.44 
L 519.664399 100.44 
z
" clip-path="url(#p8623fa25ef)" style="fill: #0000ff"/>
   </g>
   <g id="patch_339">
    <path d="M 550.481633 112.221818 
L 566.002721 112.221818 
L 566.002721 100.44 
L 550.481633 100.44 
z
" clip-path="url(#p8623fa25ef)" style="fill: #0000ff"/>
   </g>
   <g id="patch_340">
    <path d="M 550.481633 112.221818 
L 562.403628 112.221818 
L 562.403628 100.44 
L 550.481633 100.44 
z
" clip-path="url(#p8623fa25ef)" style="fill: #0000ff"/>
   </g>
   <g id="patch_341">
    <path d="M 594.120635 112.221818 
L 603.568254 112.221818 
L 603.568254 100.44 
L 594.120635 100.44 
z
" clip-path="url(#p8623fa25ef)" style="fill: #0000ff"/>
   </g>
   <g id="patch_342">
    <path d="M 603.793197 106.772727 
L 632.360998 106.772727 
L 632.360998 105.889091 
L 603.793197 105.889091 
z
" clip-path="url(#p8623fa25ef)" style="fill: #0000ff"/>
   </g>
   <g id="matplotlib.axis_1">
    <g id="xtick_1">
     <g id="line2d_1">
      <defs>
       <path id="m2061625aef" d="M 0 0 
L 0 3.5 
" style="stroke: #000000; stroke-width: 0.8"/>
      </defs>
      <g>
       <use xlink:href="#m2061625aef" x="404.718367" y="576.72" style="stroke: #000000; stroke-width: 0.8"/>
      </g>
     </g>
     <g id="text_1">
      <!-- 1000 -->
      <g transform="translate(391.993367 591.318438) scale(0.1 -0.1)">
       <defs>
        <path id="DejaVuSans-31" d="M 794 531 
L 1825 531 
L 1825 4091 
L 703 3866 
L 703 4441 
L 1819 4666 
L 2450 4666 
L 2450 531 
L 3481 531 
L 3481 0 
L 794 0 
L 794 531 
z
" transform="scale(0.015625)"/>
        <path id="DejaVuSans-30" d="M 2034 4250 
Q 1547 4250 1301 3770 
Q 1056 3291 1056 2328 
Q 1056 1369 1301 889 
Q 1547 409 2034 409 
Q 2525 409 2770 889 
Q 3016 1369 3016 2328 
Q 3016 3291 2770 3770 
Q 2525 4250 2034 4250 
z
M 2034 4750 
Q 2819 4750 3233 4129 
Q 3647 3509 3647 2328 
Q 3647 1150 3233 529 
Q 2819 -91 2034 -91 
Q 1250 -91 836 529 
Q 422 1150 422 2328 
Q 422 3509 836 4129 
Q 1250 4750 2034 4750 
z
" transform="scale(0.015625)"/>
       </defs>
       <use xlink:href="#DejaVuSans-31"/>
       <use xlink:href="#DejaVuSans-30" x="63.623047"/>
       <use xlink:href="#DejaVuSans-30" x="127.246094"/>
       <use xlink:href="#DejaVuSans-30" x="190.869141"/>
      </g>
     </g>
    </g>
    <g id="xtick_2">
     <g id="line2d_2">
      <g>
       <use xlink:href="#m2061625aef" x="629.661678" y="576.72" style="stroke: #000000; stroke-width: 0.8"/>
      </g>
     </g>
     <g id="text_2">
      <!-- 2000 -->
      <g transform="translate(616.936678 591.318438) scale(0.1 -0.1)">
       <defs>
        <path id="DejaVuSans-32" d="M 1228 531 
L 3431 531 
L 3431 0 
L 469 0 
L 469 531 
Q 828 903 1448 1529 
Q 2069 2156 2228 2338 
Q 2531 2678 2651 2914 
Q 2772 3150 2772 3378 
Q 2772 3750 2511 3984 
Q 2250 4219 1831 4219 
Q 1534 4219 1204 4116 
Q 875 4013 500 3803 
L 500 4441 
Q 881 4594 1212 4672 
Q 1544 4750 1819 4750 
Q 2544 4750 2975 4387 
Q 3406 4025 3406 3419 
Q 3406 3131 3298 2873 
Q 3191 2616 2906 2266 
Q 2828 2175 2409 1742 
Q 1991 1309 1228 531 
z
" transform="scale(0.015625)"/>
       </defs>
       <use xlink:href="#DejaVuSans-32"/>
       <use xlink:href="#DejaVuSans-30" x="63.623047"/>
       <use xlink:href="#DejaVuSans-30" x="127.246094"/>
       <use xlink:href="#DejaVuSans-30" x="190.869141"/>
      </g>
     </g>
    </g>
    <g id="xtick_3">
     <g id="line2d_3">
      <g>
       <use xlink:href="#m2061625aef" x="854.604989" y="576.72" style="stroke: #000000; stroke-width: 0.8"/>
      </g>
     </g>
     <g id="text_3">
      <!-- 3000 -->
      <g transform="translate(841.879989 591.318438) scale(0.1 -0.1)">
       <defs>
        <path id="DejaVuSans-33" d="M 2597 2516 
Q 3050 2419 3304 2112 
Q 3559 1806 3559 1356 
Q 3559 666 3084 287 
Q 2609 -91 1734 -91 
Q 1441 -91 1130 -33 
Q 819 25 488 141 
L 488 750 
Q 750 597 1062 519 
Q 1375 441 1716 441 
Q 2309 441 2620 675 
Q 2931 909 2931 1356 
Q 2931 1769 2642 2001 
Q 2353 2234 1838 2234 
L 1294 2234 
L 1294 2753 
L 1863 2753 
Q 2328 2753 2575 2939 
Q 2822 3125 2822 3475 
Q 2822 3834 2567 4026 
Q 2313 4219 1838 4219 
Q 1578 4219 1281 4162 
Q 984 4106 628 3988 
L 628 4550 
Q 988 4650 1302 4700 
Q 1616 4750 1894 4750 
Q 2613 4750 3031 4423 
Q 3450 4097 3450 3541 
Q 3450 3153 3228 2886 
Q 3006 2619 2597 2516 
z
" transform="scale(0.015625)"/>
       </defs>
       <use xlink:href="#DejaVuSans-33"/>
       <use xlink:href="#DejaVuSans-30" x="63.623047"/>
       <use xlink:href="#DejaVuSans-30" x="127.246094"/>
       <use xlink:href="#DejaVuSans-30" x="190.869141"/>
      </g>
     </g>
    </g>
    <g id="xtick_4">
     <g id="line2d_4">
      <g>
       <use xlink:href="#m2061625aef" x="1079.548299" y="576.72" style="stroke: #000000; stroke-width: 0.8"/>
      </g>
     </g>
     <g id="text_4">
      <!-- 4000 -->
      <g transform="translate(1066.823299 591.318438) scale(0.1 -0.1)">
       <defs>
        <path id="DejaVuSans-34" d="M 2419 4116 
L 825 1625 
L 2419 1625 
L 2419 4116 
z
M 2253 4666 
L 3047 4666 
L 3047 1625 
L 3713 1625 
L 3713 1100 
L 3047 1100 
L 3047 0 
L 2419 0 
L 2419 1100 
L 313 1100 
L 313 1709 
L 2253 4666 
z
" transform="scale(0.015625)"/>
       </defs>
       <use xlink:href="#DejaVuSans-34"/>
       <use xlink:href="#DejaVuSans-30" x="63.623047"/>
       <use xlink:href="#DejaVuSans-30" x="127.246094"/>
       <use xlink:href="#DejaVuSans-30" x="190.869141"/>
      </g>
     </g>
    </g>
    <g id="text_5">
     <!-- Residual -->
     <g transform="translate(716.884375 604.996562) scale(0.1 -0.1)">
      <defs>
       <path id="DejaVuSans-52" d="M 2841 2188 
Q 3044 2119 3236 1894 
Q 3428 1669 3622 1275 
L 4263 0 
L 3584 0 
L 2988 1197 
Q 2756 1666 2539 1819 
Q 2322 1972 1947 1972 
L 1259 1972 
L 1259 0 
L 628 0 
L 628 4666 
L 2053 4666 
Q 2853 4666 3247 4331 
Q 3641 3997 3641 3322 
Q 3641 2881 3436 2590 
Q 3231 2300 2841 2188 
z
M 1259 4147 
L 1259 2491 
L 2053 2491 
Q 2509 2491 2742 2702 
Q 2975 2913 2975 3322 
Q 2975 3731 2742 3939 
Q 2509 4147 2053 4147 
L 1259 4147 
z
" transform="scale(0.015625)"/>
       <path id="DejaVuSans-65" d="M 3597 1894 
L 3597 1613 
L 953 1613 
Q 991 1019 1311 708 
Q 1631 397 2203 397 
Q 2534 397 2845 478 
Q 3156 559 3463 722 
L 3463 178 
Q 3153 47 2828 -22 
Q 2503 -91 2169 -91 
Q 1331 -91 842 396 
Q 353 884 353 1716 
Q 353 2575 817 3079 
Q 1281 3584 2069 3584 
Q 2775 3584 3186 3129 
Q 3597 2675 3597 1894 
z
M 3022 2063 
Q 3016 2534 2758 2815 
Q 2500 3097 2075 3097 
Q 1594 3097 1305 2825 
Q 1016 2553 972 2059 
L 3022 2063 
z
" transform="scale(0.015625)"/>
       <path id="DejaVuSans-73" d="M 2834 3397 
L 2834 2853 
Q 2591 2978 2328 3040 
Q 2066 3103 1784 3103 
Q 1356 3103 1142 2972 
Q 928 2841 928 2578 
Q 928 2378 1081 2264 
Q 1234 2150 1697 2047 
L 1894 2003 
Q 2506 1872 2764 1633 
Q 3022 1394 3022 966 
Q 3022 478 2636 193 
Q 2250 -91 1575 -91 
Q 1294 -91 989 -36 
Q 684 19 347 128 
L 347 722 
Q 666 556 975 473 
Q 1284 391 1588 391 
Q 1994 391 2212 530 
Q 2431 669 2431 922 
Q 2431 1156 2273 1281 
Q 2116 1406 1581 1522 
L 1381 1569 
Q 847 1681 609 1914 
Q 372 2147 372 2553 
Q 372 3047 722 3315 
Q 1072 3584 1716 3584 
Q 2034 3584 2315 3537 
Q 2597 3491 2834 3397 
z
" transform="scale(0.015625)"/>
       <path id="DejaVuSans-69" d="M 603 3500 
L 1178 3500 
L 1178 0 
L 603 0 
L 603 3500 
z
M 603 4863 
L 1178 4863 
L 1178 4134 
L 603 4134 
L 603 4863 
z
" transform="scale(0.015625)"/>
       <path id="DejaVuSans-64" d="M 2906 2969 
L 2906 4863 
L 3481 4863 
L 3481 0 
L 2906 0 
L 2906 525 
Q 2725 213 2448 61 
Q 2172 -91 1784 -91 
Q 1150 -91 751 415 
Q 353 922 353 1747 
Q 353 2572 751 3078 
Q 1150 3584 1784 3584 
Q 2172 3584 2448 3432 
Q 2725 3281 2906 2969 
z
M 947 1747 
Q 947 1113 1208 752 
Q 1469 391 1925 391 
Q 2381 391 2643 752 
Q 2906 1113 2906 1747 
Q 2906 2381 2643 2742 
Q 2381 3103 1925 3103 
Q 1469 3103 1208 2742 
Q 947 2381 947 1747 
z
" transform="scale(0.015625)"/>
       <path id="DejaVuSans-75" d="M 544 1381 
L 544 3500 
L 1119 3500 
L 1119 1403 
Q 1119 906 1312 657 
Q 1506 409 1894 409 
Q 2359 409 2629 706 
Q 2900 1003 2900 1516 
L 2900 3500 
L 3475 3500 
L 3475 0 
L 2900 0 
L 2900 538 
Q 2691 219 2414 64 
Q 2138 -91 1772 -91 
Q 1169 -91 856 284 
Q 544 659 544 1381 
z
M 1991 3584 
L 1991 3584 
z
" transform="scale(0.015625)"/>
       <path id="DejaVuSans-61" d="M 2194 1759 
Q 1497 1759 1228 1600 
Q 959 1441 959 1056 
Q 959 750 1161 570 
Q 1363 391 1709 391 
Q 2188 391 2477 730 
Q 2766 1069 2766 1631 
L 2766 1759 
L 2194 1759 
z
M 3341 1997 
L 3341 0 
L 2766 0 
L 2766 531 
Q 2569 213 2275 61 
Q 1981 -91 1556 -91 
Q 1019 -91 701 211 
Q 384 513 384 1019 
Q 384 1609 779 1909 
Q 1175 2209 1959 2209 
L 2766 2209 
L 2766 2266 
Q 2766 2663 2505 2880 
Q 2244 3097 1772 3097 
Q 1472 3097 1187 3025 
Q 903 2953 641 2809 
L 641 3341 
Q 956 3463 1253 3523 
Q 1550 3584 1831 3584 
Q 2591 3584 2966 3190 
Q 3341 2797 3341 1997 
z
" transform="scale(0.015625)"/>
       <path id="DejaVuSans-6c" d="M 603 4863 
L 1178 4863 
L 1178 0 
L 603 0 
L 603 4863 
z
" transform="scale(0.015625)"/>
      </defs>
      <use xlink:href="#DejaVuSans-52"/>
      <use xlink:href="#DejaVuSans-65" x="64.982422"/>
      <use xlink:href="#DejaVuSans-73" x="126.505859"/>
      <use xlink:href="#DejaVuSans-69" x="178.605469"/>
      <use xlink:href="#DejaVuSans-64" x="206.388672"/>
      <use xlink:href="#DejaVuSans-75" x="269.865234"/>
      <use xlink:href="#DejaVuSans-61" x="333.244141"/>
      <use xlink:href="#DejaVuSans-6c" x="394.523438"/>
     </g>
    </g>
   </g>
   <g id="matplotlib.axis_2">
    <g id="ytick_1">
     <g id="line2d_5">
      <defs>
       <path id="m4f3b79906a" d="M 0 0 
L -3.5 0 
" style="stroke: #000000; stroke-width: 0.8"/>
      </defs>
      <g>
       <use xlink:href="#m4f3b79906a" x="180" y="548.149091" style="stroke: #000000; stroke-width: 0.8"/>
      </g>
     </g>
     <g id="text_6">
      <!-- 1.B.40.1.1 -->
      <g transform="translate(121.614062 551.94831) scale(0.1 -0.1)">
       <defs>
        <path id="DejaVuSans-2e" d="M 684 794 
L 1344 794 
L 1344 0 
L 684 0 
L 684 794 
z
" transform="scale(0.015625)"/>
        <path id="DejaVuSans-42" d="M 1259 2228 
L 1259 519 
L 2272 519 
Q 2781 519 3026 730 
Q 3272 941 3272 1375 
Q 3272 1813 3026 2020 
Q 2781 2228 2272 2228 
L 1259 2228 
z
M 1259 4147 
L 1259 2741 
L 2194 2741 
Q 2656 2741 2882 2914 
Q 3109 3088 3109 3444 
Q 3109 3797 2882 3972 
Q 2656 4147 2194 4147 
L 1259 4147 
z
M 628 4666 
L 2241 4666 
Q 2963 4666 3353 4366 
Q 3744 4066 3744 3513 
Q 3744 3084 3544 2831 
Q 3344 2578 2956 2516 
Q 3422 2416 3680 2098 
Q 3938 1781 3938 1306 
Q 3938 681 3513 340 
Q 3088 0 2303 0 
L 628 0 
L 628 4666 
z
" transform="scale(0.015625)"/>
       </defs>
       <use xlink:href="#DejaVuSans-31"/>
       <use xlink:href="#DejaVuSans-2e" x="63.623047"/>
       <use xlink:href="#DejaVuSans-42" x="95.410156"/>
       <use xlink:href="#DejaVuSans-2e" x="164.013672"/>
       <use xlink:href="#DejaVuSans-34" x="195.800781"/>
       <use xlink:href="#DejaVuSans-30" x="259.423828"/>
       <use xlink:href="#DejaVuSans-2e" x="323.046875"/>
       <use xlink:href="#DejaVuSans-31" x="354.833984"/>
       <use xlink:href="#DejaVuSans-2e" x="418.457031"/>
       <use xlink:href="#DejaVuSans-31" x="450.244141"/>
      </g>
     </g>
    </g>
    <g id="ytick_2">
     <g id="line2d_6">
      <g>
       <use xlink:href="#m4f3b79906a" x="180" y="518.694545" style="stroke: #000000; stroke-width: 0.8"/>
      </g>
     </g>
     <g id="text_7">
      <!-- 1.B.40.1.2 -->
      <g transform="translate(121.614062 522.493764) scale(0.1 -0.1)">
       <use xlink:href="#DejaVuSans-31"/>
       <use xlink:href="#DejaVuSans-2e" x="63.623047"/>
       <use xlink:href="#DejaVuSans-42" x="95.410156"/>
       <use xlink:href="#DejaVuSans-2e" x="164.013672"/>
       <use xlink:href="#DejaVuSans-34" x="195.800781"/>
       <use xlink:href="#DejaVuSans-30" x="259.423828"/>
       <use xlink:href="#DejaVuSans-2e" x="323.046875"/>
       <use xlink:href="#DejaVuSans-31" x="354.833984"/>
       <use xlink:href="#DejaVuSans-2e" x="418.457031"/>
       <use xlink:href="#DejaVuSans-32" x="450.244141"/>
      </g>
     </g>
    </g>
    <g id="ytick_3">
     <g id="line2d_7">
      <g>
       <use xlink:href="#m4f3b79906a" x="180" y="489.24" style="stroke: #000000; stroke-width: 0.8"/>
      </g>
     </g>
     <g id="text_8">
      <!-- 1.B.40.1.3 -->
      <g transform="translate(121.614062 493.039219) scale(0.1 -0.1)">
       <use xlink:href="#DejaVuSans-31"/>
       <use xlink:href="#DejaVuSans-2e" x="63.623047"/>
       <use xlink:href="#DejaVuSans-42" x="95.410156"/>
       <use xlink:href="#DejaVuSans-2e" x="164.013672"/>
       <use xlink:href="#DejaVuSans-34" x="195.800781"/>
       <use xlink:href="#DejaVuSans-30" x="259.423828"/>
       <use xlink:href="#DejaVuSans-2e" x="323.046875"/>
       <use xlink:href="#DejaVuSans-31" x="354.833984"/>
       <use xlink:href="#DejaVuSans-2e" x="418.457031"/>
       <use xlink:href="#DejaVuSans-33" x="450.244141"/>
      </g>
     </g>
    </g>
    <g id="ytick_4">
     <g id="line2d_8">
      <g>
       <use xlink:href="#m4f3b79906a" x="180" y="459.785455" style="stroke: #000000; stroke-width: 0.8"/>
      </g>
     </g>
     <g id="text_9">
      <!-- 1.B.40.1.4 -->
      <g transform="translate(121.614062 463.584673) scale(0.1 -0.1)">
       <use xlink:href="#DejaVuSans-31"/>
       <use xlink:href="#DejaVuSans-2e" x="63.623047"/>
       <use xlink:href="#DejaVuSans-42" x="95.410156"/>
       <use xlink:href="#DejaVuSans-2e" x="164.013672"/>
       <use xlink:href="#DejaVuSans-34" x="195.800781"/>
       <use xlink:href="#DejaVuSans-30" x="259.423828"/>
       <use xlink:href="#DejaVuSans-2e" x="323.046875"/>
       <use xlink:href="#DejaVuSans-31" x="354.833984"/>
       <use xlink:href="#DejaVuSans-2e" x="418.457031"/>
       <use xlink:href="#DejaVuSans-34" x="450.244141"/>
      </g>
     </g>
    </g>
    <g id="ytick_5">
     <g id="line2d_9">
      <g>
       <use xlink:href="#m4f3b79906a" x="180" y="430.330909" style="stroke: #000000; stroke-width: 0.8"/>
      </g>
     </g>
     <g id="text_10">
      <!-- 1.B.40.1.5 -->
      <g transform="translate(121.614062 434.130128) scale(0.1 -0.1)">
       <defs>
        <path id="DejaVuSans-35" d="M 691 4666 
L 3169 4666 
L 3169 4134 
L 1269 4134 
L 1269 2991 
Q 1406 3038 1543 3061 
Q 1681 3084 1819 3084 
Q 2600 3084 3056 2656 
Q 3513 2228 3513 1497 
Q 3513 744 3044 326 
Q 2575 -91 1722 -91 
Q 1428 -91 1123 -41 
Q 819 9 494 109 
L 494 744 
Q 775 591 1075 516 
Q 1375 441 1709 441 
Q 2250 441 2565 725 
Q 2881 1009 2881 1497 
Q 2881 1984 2565 2268 
Q 2250 2553 1709 2553 
Q 1456 2553 1204 2497 
Q 953 2441 691 2322 
L 691 4666 
z
" transform="scale(0.015625)"/>
       </defs>
       <use xlink:href="#DejaVuSans-31"/>
       <use xlink:href="#DejaVuSans-2e" x="63.623047"/>
       <use xlink:href="#DejaVuSans-42" x="95.410156"/>
       <use xlink:href="#DejaVuSans-2e" x="164.013672"/>
       <use xlink:href="#DejaVuSans-34" x="195.800781"/>
       <use xlink:href="#DejaVuSans-30" x="259.423828"/>
       <use xlink:href="#DejaVuSans-2e" x="323.046875"/>
       <use xlink:href="#DejaVuSans-31" x="354.833984"/>
       <use xlink:href="#DejaVuSans-2e" x="418.457031"/>
       <use xlink:href="#DejaVuSans-35" x="450.244141"/>
      </g>
     </g>
    </g>
    <g id="ytick_6">
     <g id="line2d_10">
      <g>
       <use xlink:href="#m4f3b79906a" x="180" y="400.876364" style="stroke: #000000; stroke-width: 0.8"/>
      </g>
     </g>
     <g id="text_11">
      <!-- 1.B.40.1.6 -->
      <g transform="translate(121.614062 404.675582) scale(0.1 -0.1)">
       <defs>
        <path id="DejaVuSans-36" d="M 2113 2584 
Q 1688 2584 1439 2293 
Q 1191 2003 1191 1497 
Q 1191 994 1439 701 
Q 1688 409 2113 409 
Q 2538 409 2786 701 
Q 3034 994 3034 1497 
Q 3034 2003 2786 2293 
Q 2538 2584 2113 2584 
z
M 3366 4563 
L 3366 3988 
Q 3128 4100 2886 4159 
Q 2644 4219 2406 4219 
Q 1781 4219 1451 3797 
Q 1122 3375 1075 2522 
Q 1259 2794 1537 2939 
Q 1816 3084 2150 3084 
Q 2853 3084 3261 2657 
Q 3669 2231 3669 1497 
Q 3669 778 3244 343 
Q 2819 -91 2113 -91 
Q 1303 -91 875 529 
Q 447 1150 447 2328 
Q 447 3434 972 4092 
Q 1497 4750 2381 4750 
Q 2619 4750 2861 4703 
Q 3103 4656 3366 4563 
z
" transform="scale(0.015625)"/>
       </defs>
       <use xlink:href="#DejaVuSans-31"/>
       <use xlink:href="#DejaVuSans-2e" x="63.623047"/>
       <use xlink:href="#DejaVuSans-42" x="95.410156"/>
       <use xlink:href="#DejaVuSans-2e" x="164.013672"/>
       <use xlink:href="#DejaVuSans-34" x="195.800781"/>
       <use xlink:href="#DejaVuSans-30" x="259.423828"/>
       <use xlink:href="#DejaVuSans-2e" x="323.046875"/>
       <use xlink:href="#DejaVuSans-31" x="354.833984"/>
       <use xlink:href="#DejaVuSans-2e" x="418.457031"/>
       <use xlink:href="#DejaVuSans-36" x="450.244141"/>
      </g>
     </g>
    </g>
    <g id="ytick_7">
     <g id="line2d_11">
      <g>
       <use xlink:href="#m4f3b79906a" x="180" y="371.421818" style="stroke: #000000; stroke-width: 0.8"/>
      </g>
     </g>
     <g id="text_12">
      <!-- 1.B.40.1.7 -->
      <g transform="translate(121.614062 375.221037) scale(0.1 -0.1)">
       <defs>
        <path id="DejaVuSans-37" d="M 525 4666 
L 3525 4666 
L 3525 4397 
L 1831 0 
L 1172 0 
L 2766 4134 
L 525 4134 
L 525 4666 
z
" transform="scale(0.015625)"/>
       </defs>
       <use xlink:href="#DejaVuSans-31"/>
       <use xlink:href="#DejaVuSans-2e" x="63.623047"/>
       <use xlink:href="#DejaVuSans-42" x="95.410156"/>
       <use xlink:href="#DejaVuSans-2e" x="164.013672"/>
       <use xlink:href="#DejaVuSans-34" x="195.800781"/>
       <use xlink:href="#DejaVuSans-30" x="259.423828"/>
       <use xlink:href="#DejaVuSans-2e" x="323.046875"/>
       <use xlink:href="#DejaVuSans-31" x="354.833984"/>
       <use xlink:href="#DejaVuSans-2e" x="418.457031"/>
       <use xlink:href="#DejaVuSans-37" x="450.244141"/>
      </g>
     </g>
    </g>
    <g id="ytick_8">
     <g id="line2d_12">
      <g>
       <use xlink:href="#m4f3b79906a" x="180" y="341.967273" style="stroke: #000000; stroke-width: 0.8"/>
      </g>
     </g>
     <g id="text_13">
      <!-- 1.B.40.1.8 -->
      <g transform="translate(121.614062 345.766491) scale(0.1 -0.1)">
       <defs>
        <path id="DejaVuSans-38" d="M 2034 2216 
Q 1584 2216 1326 1975 
Q 1069 1734 1069 1313 
Q 1069 891 1326 650 
Q 1584 409 2034 409 
Q 2484 409 2743 651 
Q 3003 894 3003 1313 
Q 3003 1734 2745 1975 
Q 2488 2216 2034 2216 
z
M 1403 2484 
Q 997 2584 770 2862 
Q 544 3141 544 3541 
Q 544 4100 942 4425 
Q 1341 4750 2034 4750 
Q 2731 4750 3128 4425 
Q 3525 4100 3525 3541 
Q 3525 3141 3298 2862 
Q 3072 2584 2669 2484 
Q 3125 2378 3379 2068 
Q 3634 1759 3634 1313 
Q 3634 634 3220 271 
Q 2806 -91 2034 -91 
Q 1263 -91 848 271 
Q 434 634 434 1313 
Q 434 1759 690 2068 
Q 947 2378 1403 2484 
z
M 1172 3481 
Q 1172 3119 1398 2916 
Q 1625 2713 2034 2713 
Q 2441 2713 2670 2916 
Q 2900 3119 2900 3481 
Q 2900 3844 2670 4047 
Q 2441 4250 2034 4250 
Q 1625 4250 1398 4047 
Q 1172 3844 1172 3481 
z
" transform="scale(0.015625)"/>
       </defs>
       <use xlink:href="#DejaVuSans-31"/>
       <use xlink:href="#DejaVuSans-2e" x="63.623047"/>
       <use xlink:href="#DejaVuSans-42" x="95.410156"/>
       <use xlink:href="#DejaVuSans-2e" x="164.013672"/>
       <use xlink:href="#DejaVuSans-34" x="195.800781"/>
       <use xlink:href="#DejaVuSans-30" x="259.423828"/>
       <use xlink:href="#DejaVuSans-2e" x="323.046875"/>
       <use xlink:href="#DejaVuSans-31" x="354.833984"/>
       <use xlink:href="#DejaVuSans-2e" x="418.457031"/>
       <use xlink:href="#DejaVuSans-38" x="450.244141"/>
      </g>
     </g>
    </g>
    <g id="ytick_9">
     <g id="line2d_13">
      <g>
       <use xlink:href="#m4f3b79906a" x="180" y="312.512727" style="stroke: #000000; stroke-width: 0.8"/>
      </g>
     </g>
     <g id="text_14">
      <!-- 1.B.40.2.1 -->
      <g transform="translate(121.614062 316.311946) scale(0.1 -0.1)">
       <use xlink:href="#DejaVuSans-31"/>
       <use xlink:href="#DejaVuSans-2e" x="63.623047"/>
       <use xlink:href="#DejaVuSans-42" x="95.410156"/>
       <use xlink:href="#DejaVuSans-2e" x="164.013672"/>
       <use xlink:href="#DejaVuSans-34" x="195.800781"/>
       <use xlink:href="#DejaVuSans-30" x="259.423828"/>
       <use xlink:href="#DejaVuSans-2e" x="323.046875"/>
       <use xlink:href="#DejaVuSans-32" x="354.833984"/>
       <use xlink:href="#DejaVuSans-2e" x="418.457031"/>
       <use xlink:href="#DejaVuSans-31" x="450.244141"/>
      </g>
     </g>
    </g>
    <g id="ytick_10">
     <g id="line2d_14">
      <g>
       <use xlink:href="#m4f3b79906a" x="180" y="283.058182" style="stroke: #000000; stroke-width: 0.8"/>
      </g>
     </g>
     <g id="text_15">
      <!-- 1.B.40.2.2 -->
      <g transform="translate(121.614062 286.857401) scale(0.1 -0.1)">
       <use xlink:href="#DejaVuSans-31"/>
       <use xlink:href="#DejaVuSans-2e" x="63.623047"/>
       <use xlink:href="#DejaVuSans-42" x="95.410156"/>
       <use xlink:href="#DejaVuSans-2e" x="164.013672"/>
       <use xlink:href="#DejaVuSans-34" x="195.800781"/>
       <use xlink:href="#DejaVuSans-30" x="259.423828"/>
       <use xlink:href="#DejaVuSans-2e" x="323.046875"/>
       <use xlink:href="#DejaVuSans-32" x="354.833984"/>
       <use xlink:href="#DejaVuSans-2e" x="418.457031"/>
       <use xlink:href="#DejaVuSans-32" x="450.244141"/>
      </g>
     </g>
    </g>
    <g id="ytick_11">
     <g id="line2d_15">
      <g>
       <use xlink:href="#m4f3b79906a" x="180" y="253.603636" style="stroke: #000000; stroke-width: 0.8"/>
      </g>
     </g>
     <g id="text_16">
      <!-- 1.B.40.2.3 -->
      <g transform="translate(121.614062 257.402855) scale(0.1 -0.1)">
       <use xlink:href="#DejaVuSans-31"/>
       <use xlink:href="#DejaVuSans-2e" x="63.623047"/>
       <use xlink:href="#DejaVuSans-42" x="95.410156"/>
       <use xlink:href="#DejaVuSans-2e" x="164.013672"/>
       <use xlink:href="#DejaVuSans-34" x="195.800781"/>
       <use xlink:href="#DejaVuSans-30" x="259.423828"/>
       <use xlink:href="#DejaVuSans-2e" x="323.046875"/>
       <use xlink:href="#DejaVuSans-32" x="354.833984"/>
       <use xlink:href="#DejaVuSans-2e" x="418.457031"/>
       <use xlink:href="#DejaVuSans-33" x="450.244141"/>
      </g>
     </g>
    </g>
    <g id="ytick_12">
     <g id="line2d_16">
      <g>
       <use xlink:href="#m4f3b79906a" x="180" y="224.149091" style="stroke: #000000; stroke-width: 0.8"/>
      </g>
     </g>
     <g id="text_17">
      <!-- 1.B.40.2.4 -->
      <g transform="translate(121.614062 227.94831) scale(0.1 -0.1)">
       <use xlink:href="#DejaVuSans-31"/>
       <use xlink:href="#DejaVuSans-2e" x="63.623047"/>
       <use xlink:href="#DejaVuSans-42" x="95.410156"/>
       <use xlink:href="#DejaVuSans-2e" x="164.013672"/>
       <use xlink:href="#DejaVuSans-34" x="195.800781"/>
       <use xlink:href="#DejaVuSans-30" x="259.423828"/>
       <use xlink:href="#DejaVuSans-2e" x="323.046875"/>
       <use xlink:href="#DejaVuSans-32" x="354.833984"/>
       <use xlink:href="#DejaVuSans-2e" x="418.457031"/>
       <use xlink:href="#DejaVuSans-34" x="450.244141"/>
      </g>
     </g>
    </g>
    <g id="ytick_13">
     <g id="line2d_17">
      <g>
       <use xlink:href="#m4f3b79906a" x="180" y="194.694545" style="stroke: #000000; stroke-width: 0.8"/>
      </g>
     </g>
     <g id="text_18">
      <!-- 1.B.40.2.5 -->
      <g transform="translate(121.614062 198.493764) scale(0.1 -0.1)">
       <use xlink:href="#DejaVuSans-31"/>
       <use xlink:href="#DejaVuSans-2e" x="63.623047"/>
       <use xlink:href="#DejaVuSans-42" x="95.410156"/>
       <use xlink:href="#DejaVuSans-2e" x="164.013672"/>
       <use xlink:href="#DejaVuSans-34" x="195.800781"/>
       <use xlink:href="#DejaVuSans-30" x="259.423828"/>
       <use xlink:href="#DejaVuSans-2e" x="323.046875"/>
       <use xlink:href="#DejaVuSans-32" x="354.833984"/>
       <use xlink:href="#DejaVuSans-2e" x="418.457031"/>
       <use xlink:href="#DejaVuSans-35" x="450.244141"/>
      </g>
     </g>
    </g>
    <g id="ytick_14">
     <g id="line2d_18">
      <g>
       <use xlink:href="#m4f3b79906a" x="180" y="165.24" style="stroke: #000000; stroke-width: 0.8"/>
      </g>
     </g>
     <g id="text_19">
      <!-- 1.B.40.2.6 -->
      <g transform="translate(121.614062 169.039219) scale(0.1 -0.1)">
       <use xlink:href="#DejaVuSans-31"/>
       <use xlink:href="#DejaVuSans-2e" x="63.623047"/>
       <use xlink:href="#DejaVuSans-42" x="95.410156"/>
       <use xlink:href="#DejaVuSans-2e" x="164.013672"/>
       <use xlink:href="#DejaVuSans-34" x="195.800781"/>
       <use xlink:href="#DejaVuSans-30" x="259.423828"/>
       <use xlink:href="#DejaVuSans-2e" x="323.046875"/>
       <use xlink:href="#DejaVuSans-32" x="354.833984"/>
       <use xlink:href="#DejaVuSans-2e" x="418.457031"/>
       <use xlink:href="#DejaVuSans-36" x="450.244141"/>
      </g>
     </g>
    </g>
    <g id="ytick_15">
     <g id="line2d_19">
      <g>
       <use xlink:href="#m4f3b79906a" x="180" y="135.785455" style="stroke: #000000; stroke-width: 0.8"/>
      </g>
     </g>
     <g id="text_20">
      <!-- 1.B.40.2.7 -->
      <g transform="translate(121.614062 139.584673) scale(0.1 -0.1)">
       <use xlink:href="#DejaVuSans-31"/>
       <use xlink:href="#DejaVuSans-2e" x="63.623047"/>
       <use xlink:href="#DejaVuSans-42" x="95.410156"/>
       <use xlink:href="#DejaVuSans-2e" x="164.013672"/>
       <use xlink:href="#DejaVuSans-34" x="195.800781"/>
       <use xlink:href="#DejaVuSans-30" x="259.423828"/>
       <use xlink:href="#DejaVuSans-2e" x="323.046875"/>
       <use xlink:href="#DejaVuSans-32" x="354.833984"/>
       <use xlink:href="#DejaVuSans-2e" x="418.457031"/>
       <use xlink:href="#DejaVuSans-37" x="450.244141"/>
      </g>
     </g>
    </g>
    <g id="ytick_16">
     <g id="line2d_20">
      <g>
       <use xlink:href="#m4f3b79906a" x="180" y="106.330909" style="stroke: #000000; stroke-width: 0.8"/>
      </g>
     </g>
     <g id="text_21">
      <!-- 1.B.40.2.8 -->
      <g transform="translate(121.614062 110.130128) scale(0.1 -0.1)">
       <use xlink:href="#DejaVuSans-31"/>
       <use xlink:href="#DejaVuSans-2e" x="63.623047"/>
       <use xlink:href="#DejaVuSans-42" x="95.410156"/>
       <use xlink:href="#DejaVuSans-2e" x="164.013672"/>
       <use xlink:href="#DejaVuSans-34" x="195.800781"/>
       <use xlink:href="#DejaVuSans-30" x="259.423828"/>
       <use xlink:href="#DejaVuSans-2e" x="323.046875"/>
       <use xlink:href="#DejaVuSans-32" x="354.833984"/>
       <use xlink:href="#DejaVuSans-2e" x="418.457031"/>
       <use xlink:href="#DejaVuSans-38" x="450.244141"/>
      </g>
     </g>
    </g>
   </g>
   <g id="patch_343">
    <path d="M 180 576.72 
L 180 77.76 
" style="fill: none; stroke: #000000; stroke-width: 0.8; stroke-linejoin: miter; stroke-linecap: square"/>
   </g>
   <g id="patch_344">
    <path d="M 1296 576.72 
L 1296 77.76 
" style="fill: none; stroke: #000000; stroke-width: 0.8; stroke-linejoin: miter; stroke-linecap: square"/>
   </g>
   <g id="patch_345">
    <path d="M 180 576.72 
L 1296 576.72 
" style="fill: none; stroke: #000000; stroke-width: 0.8; stroke-linejoin: miter; stroke-linecap: square"/>
   </g>
   <g id="patch_346">
    <path d="M 180 77.76 
L 1296 77.76 
" style="fill: none; stroke: #000000; stroke-width: 0.8; stroke-linejoin: miter; stroke-linecap: square"/>
   </g>
   <g id="text_22">
    <!-- 1.B.40 Summary -->
    <g transform="translate(687.715312 71.76) scale(0.12 -0.12)">
     <defs>
      <path id="DejaVuSans-20" transform="scale(0.015625)"/>
      <path id="DejaVuSans-53" d="M 3425 4513 
L 3425 3897 
Q 3066 4069 2747 4153 
Q 2428 4238 2131 4238 
Q 1616 4238 1336 4038 
Q 1056 3838 1056 3469 
Q 1056 3159 1242 3001 
Q 1428 2844 1947 2747 
L 2328 2669 
Q 3034 2534 3370 2195 
Q 3706 1856 3706 1288 
Q 3706 609 3251 259 
Q 2797 -91 1919 -91 
Q 1588 -91 1214 -16 
Q 841 59 441 206 
L 441 856 
Q 825 641 1194 531 
Q 1563 422 1919 422 
Q 2459 422 2753 634 
Q 3047 847 3047 1241 
Q 3047 1584 2836 1778 
Q 2625 1972 2144 2069 
L 1759 2144 
Q 1053 2284 737 2584 
Q 422 2884 422 3419 
Q 422 4038 858 4394 
Q 1294 4750 2059 4750 
Q 2388 4750 2728 4690 
Q 3069 4631 3425 4513 
z
" transform="scale(0.015625)"/>
      <path id="DejaVuSans-6d" d="M 3328 2828 
Q 3544 3216 3844 3400 
Q 4144 3584 4550 3584 
Q 5097 3584 5394 3201 
Q 5691 2819 5691 2113 
L 5691 0 
L 5113 0 
L 5113 2094 
Q 5113 2597 4934 2840 
Q 4756 3084 4391 3084 
Q 3944 3084 3684 2787 
Q 3425 2491 3425 1978 
L 3425 0 
L 2847 0 
L 2847 2094 
Q 2847 2600 2669 2842 
Q 2491 3084 2119 3084 
Q 1678 3084 1418 2786 
Q 1159 2488 1159 1978 
L 1159 0 
L 581 0 
L 581 3500 
L 1159 3500 
L 1159 2956 
Q 1356 3278 1631 3431 
Q 1906 3584 2284 3584 
Q 2666 3584 2933 3390 
Q 3200 3197 3328 2828 
z
" transform="scale(0.015625)"/>
      <path id="DejaVuSans-72" d="M 2631 2963 
Q 2534 3019 2420 3045 
Q 2306 3072 2169 3072 
Q 1681 3072 1420 2755 
Q 1159 2438 1159 1844 
L 1159 0 
L 581 0 
L 581 3500 
L 1159 3500 
L 1159 2956 
Q 1341 3275 1631 3429 
Q 1922 3584 2338 3584 
Q 2397 3584 2469 3576 
Q 2541 3569 2628 3553 
L 2631 2963 
z
" transform="scale(0.015625)"/>
      <path id="DejaVuSans-79" d="M 2059 -325 
Q 1816 -950 1584 -1140 
Q 1353 -1331 966 -1331 
L 506 -1331 
L 506 -850 
L 844 -850 
Q 1081 -850 1212 -737 
Q 1344 -625 1503 -206 
L 1606 56 
L 191 3500 
L 800 3500 
L 1894 763 
L 2988 3500 
L 3597 3500 
L 2059 -325 
z
" transform="scale(0.015625)"/>
     </defs>
     <use xlink:href="#DejaVuSans-31"/>
     <use xlink:href="#DejaVuSans-2e" x="63.623047"/>
     <use xlink:href="#DejaVuSans-42" x="95.410156"/>
     <use xlink:href="#DejaVuSans-2e" x="164.013672"/>
     <use xlink:href="#DejaVuSans-34" x="195.800781"/>
     <use xlink:href="#DejaVuSans-30" x="259.423828"/>
     <use xlink:href="#DejaVuSans-20" x="323.046875"/>
     <use xlink:href="#DejaVuSans-53" x="354.833984"/>
     <use xlink:href="#DejaVuSans-75" x="418.310547"/>
     <use xlink:href="#DejaVuSans-6d" x="481.689453"/>
     <use xlink:href="#DejaVuSans-6d" x="579.101562"/>
     <use xlink:href="#DejaVuSans-61" x="676.513672"/>
     <use xlink:href="#DejaVuSans-72" x="737.792969"/>
     <use xlink:href="#DejaVuSans-79" x="778.90625"/>
    </g>
   </g>
  </g>
 </g>
 <defs>
  <clipPath id="p8623fa25ef">
   <rect x="180" y="77.76" width="1116" height="498.96"/>
  </clipPath>
 </defs>
</svg>
