<?xml version="1.0" encoding="utf-8" standalone="no"?>
<!DOCTYPE svg PUBLIC "-//W3C//DTD SVG 1.1//EN"
  "http://www.w3.org/Graphics/SVG/1.1/DTD/svg11.dtd">
<svg xmlns:xlink="http://www.w3.org/1999/xlink" width="1152pt" height="234pt" viewBox="0 0 1152 234" xmlns="http://www.w3.org/2000/svg" version="1.1">
 <metadata>
  <rdf:RDF xmlns:dc="http://purl.org/dc/elements/1.1/" xmlns:cc="http://creativecommons.org/ns#" xmlns:rdf="http://www.w3.org/1999/02/22-rdf-syntax-ns#">
   <cc:Work>
    <dc:type rdf:resource="http://purl.org/dc/dcmitype/StillImage"/>
    <dc:date>2024-10-10T19:08:24.500511</dc:date>
    <dc:format>image/svg+xml</dc:format>
    <dc:creator>
     <cc:Agent>
      <dc:title>Matplotlib v3.9.2, https://matplotlib.org/</dc:title>
     </cc:Agent>
    </dc:creator>
   </cc:Work>
  </rdf:RDF>
 </metadata>
 <defs>
  <style type="text/css">*{stroke-linejoin: round; stroke-linecap: butt}</style>
 </defs>
 <g id="figure_1">
  <g id="patch_1">
   <path d="M 0 234 
L 1152 234 
L 1152 0 
L 0 0 
z
" style="fill: #ffffff"/>
  </g>
  <g id="axes_1">
   <g id="patch_2">
    <path d="M 144 208.26 
L 1036.8 208.26 
L 1036.8 28.08 
L 144 28.08 
z
" style="fill: #ffffff"/>
   </g>
   <g id="patch_3">
    <path d="M 144 197.15625 
L 275.197125 197.15625 
L 275.197125 196.68375 
L 144 196.68375 
z
" clip-path="url(#pb6f5182075)" style="fill: #0000ff"/>
   </g>
   <g id="patch_4">
    <path d="M 275.553639 200.07 
L 322.613477 200.07 
L 322.613477 193.77 
L 275.553639 193.77 
z
" clip-path="url(#pb6f5182075)" style="fill: #0000ff"/>
   </g>
   <g id="patch_5">
    <path d="M 276.979695 200.07 
L 289.457682 200.07 
L 289.457682 193.77 
L 276.979695 193.77 
z
" clip-path="url(#pb6f5182075)" style="fill: #0000ff"/>
   </g>
   <g id="patch_6">
    <path d="M 279.118778 200.07 
L 322.613477 200.07 
L 322.613477 193.77 
L 279.118778 193.77 
z
" clip-path="url(#pb6f5182075)" style="fill: #0000ff"/>
   </g>
   <g id="patch_7">
    <path d="M 280.18832 200.07 
L 287.675112 200.07 
L 287.675112 193.77 
L 280.18832 193.77 
z
" clip-path="url(#pb6f5182075)" style="fill: #0000ff"/>
   </g>
   <g id="patch_8">
    <path d="M 280.544834 200.07 
L 315.483199 200.07 
L 315.483199 193.77 
L 280.544834 193.77 
z
" clip-path="url(#pb6f5182075)" style="fill: #0000ff"/>
   </g>
   <g id="patch_9">
    <path d="M 280.544834 200.07 
L 306.213836 200.07 
L 306.213836 193.77 
L 280.544834 193.77 
z
" clip-path="url(#pb6f5182075)" style="fill: #0000ff"/>
   </g>
   <g id="patch_10">
    <path d="M 322.969991 197.15625 
L 504.792093 197.15625 
L 504.792093 196.68375 
L 322.969991 196.68375 
z
" clip-path="url(#pb6f5182075)" style="fill: #0000ff"/>
   </g>
   <g id="patch_11">
    <path d="M 505.148607 200.07 
L 647.04115 200.07 
L 647.04115 193.77 
L 505.148607 193.77 
z
" clip-path="url(#pb6f5182075)" style="fill: #0000ff"/>
   </g>
   <g id="patch_12">
    <path d="M 512.6354 200.07 
L 623.154717 200.07 
L 623.154717 193.77 
L 512.6354 193.77 
z
" clip-path="url(#pb6f5182075)" style="fill: #0000ff"/>
   </g>
   <g id="patch_13">
    <path d="M 515.130997 200.07 
L 622.798203 200.07 
L 622.798203 193.77 
L 515.130997 193.77 
z
" clip-path="url(#pb6f5182075)" style="fill: #0000ff"/>
   </g>
   <g id="patch_14">
    <path d="M 516.557053 200.07 
L 607.824618 200.07 
L 607.824618 193.77 
L 516.557053 193.77 
z
" clip-path="url(#pb6f5182075)" style="fill: #0000ff"/>
   </g>
   <g id="patch_15">
    <path d="M 524.043845 200.07 
L 625.293801 200.07 
L 625.293801 193.77 
L 524.043845 193.77 
z
" clip-path="url(#pb6f5182075)" style="fill: #0000ff"/>
   </g>
   <g id="patch_16">
    <path d="M 524.043845 200.07 
L 606.042049 200.07 
L 606.042049 193.77 
L 524.043845 193.77 
z
" clip-path="url(#pb6f5182075)" style="fill: #0000ff"/>
   </g>
   <g id="patch_17">
    <path d="M 524.400359 200.07 
L 622.798203 200.07 
L 622.798203 193.77 
L 524.400359 193.77 
z
" clip-path="url(#pb6f5182075)" style="fill: #0000ff"/>
   </g>
   <g id="patch_18">
    <path d="M 524.756873 200.07 
L 647.754178 200.07 
L 647.754178 193.77 
L 524.756873 193.77 
z
" clip-path="url(#pb6f5182075)" style="fill: #0000ff"/>
   </g>
   <g id="patch_19">
    <path d="M 525.469901 200.07 
L 622.798203 200.07 
L 622.798203 193.77 
L 525.469901 193.77 
z
" clip-path="url(#pb6f5182075)" style="fill: #0000ff"/>
   </g>
   <g id="patch_20">
    <path d="M 525.469901 200.07 
L 623.154717 200.07 
L 623.154717 193.77 
L 525.469901 193.77 
z
" clip-path="url(#pb6f5182075)" style="fill: #0000ff"/>
   </g>
   <g id="patch_21">
    <path d="M 525.469901 200.07 
L 606.042049 200.07 
L 606.042049 193.77 
L 525.469901 193.77 
z
" clip-path="url(#pb6f5182075)" style="fill: #0000ff"/>
   </g>
   <g id="patch_22">
    <path d="M 525.469901 200.07 
L 622.798203 200.07 
L 622.798203 193.77 
L 525.469901 193.77 
z
" clip-path="url(#pb6f5182075)" style="fill: #0000ff"/>
   </g>
   <g id="patch_23">
    <path d="M 526.539443 200.07 
L 608.181132 200.07 
L 608.181132 193.77 
L 526.539443 193.77 
z
" clip-path="url(#pb6f5182075)" style="fill: #0000ff"/>
   </g>
   <g id="patch_24">
    <path d="M 526.895957 200.07 
L 647.04115 200.07 
L 647.04115 193.77 
L 526.895957 193.77 
z
" clip-path="url(#pb6f5182075)" style="fill: #0000ff"/>
   </g>
   <g id="patch_25">
    <path d="M 527.252471 200.07 
L 648.110692 200.07 
L 648.110692 193.77 
L 527.252471 193.77 
z
" clip-path="url(#pb6f5182075)" style="fill: #0000ff"/>
   </g>
   <g id="patch_26">
    <path d="M 527.252471 200.07 
L 650.249775 200.07 
L 650.249775 193.77 
L 527.252471 193.77 
z
" clip-path="url(#pb6f5182075)" style="fill: #0000ff"/>
   </g>
   <g id="patch_27">
    <path d="M 541.513028 200.07 
L 647.04115 200.07 
L 647.04115 193.77 
L 541.513028 193.77 
z
" clip-path="url(#pb6f5182075)" style="fill: #0000ff"/>
   </g>
   <g id="patch_28">
    <path d="M 541.869542 200.07 
L 646.684636 200.07 
L 646.684636 193.77 
L 541.869542 193.77 
z
" clip-path="url(#pb6f5182075)" style="fill: #0000ff"/>
   </g>
   <g id="patch_29">
    <path d="M 541.869542 200.07 
L 647.397664 200.07 
L 647.397664 193.77 
L 541.869542 193.77 
z
" clip-path="url(#pb6f5182075)" style="fill: #0000ff"/>
   </g>
   <g id="patch_30">
    <path d="M 542.226056 200.07 
L 630.998023 200.07 
L 630.998023 193.77 
L 542.226056 193.77 
z
" clip-path="url(#pb6f5182075)" style="fill: #0000ff"/>
   </g>
   <g id="patch_31">
    <path d="M 542.226056 200.07 
L 647.04115 200.07 
L 647.04115 193.77 
L 542.226056 193.77 
z
" clip-path="url(#pb6f5182075)" style="fill: #0000ff"/>
   </g>
   <g id="patch_32">
    <path d="M 542.226056 200.07 
L 645.615094 200.07 
L 645.615094 193.77 
L 542.226056 193.77 
z
" clip-path="url(#pb6f5182075)" style="fill: #0000ff"/>
   </g>
   <g id="patch_33">
    <path d="M 542.226056 200.07 
L 594.633603 200.07 
L 594.633603 193.77 
L 542.226056 193.77 
z
" clip-path="url(#pb6f5182075)" style="fill: #0000ff"/>
   </g>
   <g id="patch_34">
    <path d="M 542.226056 200.07 
L 629.215454 200.07 
L 629.215454 193.77 
L 542.226056 193.77 
z
" clip-path="url(#pb6f5182075)" style="fill: #0000ff"/>
   </g>
   <g id="patch_35">
    <path d="M 542.226056 200.07 
L 647.04115 200.07 
L 647.04115 193.77 
L 542.226056 193.77 
z
" clip-path="url(#pb6f5182075)" style="fill: #0000ff"/>
   </g>
   <g id="patch_36">
    <path d="M 542.58257 200.07 
L 646.328122 200.07 
L 646.328122 193.77 
L 542.58257 193.77 
z
" clip-path="url(#pb6f5182075)" style="fill: #0000ff"/>
   </g>
   <g id="patch_37">
    <path d="M 542.58257 200.07 
L 624.224259 200.07 
L 624.224259 193.77 
L 542.58257 193.77 
z
" clip-path="url(#pb6f5182075)" style="fill: #0000ff"/>
   </g>
   <g id="patch_38">
    <path d="M 542.58257 200.07 
L 611.746271 200.07 
L 611.746271 193.77 
L 542.58257 193.77 
z
" clip-path="url(#pb6f5182075)" style="fill: #0000ff"/>
   </g>
   <g id="patch_39">
    <path d="M 542.58257 200.07 
L 606.042049 200.07 
L 606.042049 193.77 
L 542.58257 193.77 
z
" clip-path="url(#pb6f5182075)" style="fill: #0000ff"/>
   </g>
   <g id="patch_40">
    <path d="M 542.939084 200.07 
L 647.04115 200.07 
L 647.04115 193.77 
L 542.939084 193.77 
z
" clip-path="url(#pb6f5182075)" style="fill: #0000ff"/>
   </g>
   <g id="patch_41">
    <path d="M 544.008625 200.07 
L 630.998023 200.07 
L 630.998023 193.77 
L 544.008625 193.77 
z
" clip-path="url(#pb6f5182075)" style="fill: #0000ff"/>
   </g>
   <g id="patch_42">
    <path d="M 558.625696 200.07 
L 646.684636 200.07 
L 646.684636 193.77 
L 558.625696 193.77 
z
" clip-path="url(#pb6f5182075)" style="fill: #0000ff"/>
   </g>
   <g id="patch_43">
    <path d="M 562.190836 200.07 
L 645.615094 200.07 
L 645.615094 193.77 
L 562.190836 193.77 
z
" clip-path="url(#pb6f5182075)" style="fill: #0000ff"/>
   </g>
   <g id="patch_44">
    <path d="M 650.606289 197.15625 
L 659.519137 197.15625 
L 659.519137 196.68375 
L 650.606289 196.68375 
z
" clip-path="url(#pb6f5182075)" style="fill: #0000ff"/>
   </g>
   <g id="patch_45">
    <path d="M 144 181.40625 
L 235.624079 181.40625 
L 235.624079 180.93375 
L 144 180.93375 
z
" clip-path="url(#pb6f5182075)" style="fill: #0000ff"/>
   </g>
   <g id="patch_46">
    <path d="M 235.980593 184.32 
L 290.17071 184.32 
L 290.17071 178.02 
L 235.980593 178.02 
z
" clip-path="url(#pb6f5182075)" style="fill: #0000ff"/>
   </g>
   <g id="patch_47">
    <path d="M 264.501707 184.32 
L 289.101168 184.32 
L 289.101168 178.02 
L 264.501707 178.02 
z
" clip-path="url(#pb6f5182075)" style="fill: #0000ff"/>
   </g>
   <g id="patch_48">
    <path d="M 279.831806 184.32 
L 308.35292 184.32 
L 308.35292 178.02 
L 279.831806 178.02 
z
" clip-path="url(#pb6f5182075)" style="fill: #0000ff"/>
   </g>
   <g id="patch_49">
    <path d="M 280.18832 184.32 
L 289.457682 184.32 
L 289.457682 178.02 
L 280.18832 178.02 
z
" clip-path="url(#pb6f5182075)" style="fill: #0000ff"/>
   </g>
   <g id="patch_50">
    <path d="M 280.18832 184.32 
L 289.457682 184.32 
L 289.457682 178.02 
L 280.18832 178.02 
z
" clip-path="url(#pb6f5182075)" style="fill: #0000ff"/>
   </g>
   <g id="patch_51">
    <path d="M 280.901348 184.32 
L 289.814196 184.32 
L 289.814196 178.02 
L 280.901348 178.02 
z
" clip-path="url(#pb6f5182075)" style="fill: #0000ff"/>
   </g>
   <g id="patch_52">
    <path d="M 280.901348 184.32 
L 289.457682 184.32 
L 289.457682 178.02 
L 280.901348 178.02 
z
" clip-path="url(#pb6f5182075)" style="fill: #0000ff"/>
   </g>
   <g id="patch_53">
    <path d="M 281.257862 184.32 
L 316.196226 184.32 
L 316.196226 178.02 
L 281.257862 178.02 
z
" clip-path="url(#pb6f5182075)" style="fill: #0000ff"/>
   </g>
   <g id="patch_54">
    <path d="M 281.257862 184.32 
L 310.492004 184.32 
L 310.492004 178.02 
L 281.257862 178.02 
z
" clip-path="url(#pb6f5182075)" style="fill: #0000ff"/>
   </g>
   <g id="patch_55">
    <path d="M 316.55274 181.40625 
L 517.983109 181.40625 
L 517.983109 180.93375 
L 316.55274 180.93375 
z
" clip-path="url(#pb6f5182075)" style="fill: #0000ff"/>
   </g>
   <g id="patch_56">
    <path d="M 518.339623 184.32 
L 629.215454 184.32 
L 629.215454 178.02 
L 518.339623 178.02 
z
" clip-path="url(#pb6f5182075)" style="fill: #0000ff"/>
   </g>
   <g id="patch_57">
    <path d="M 519.05265 184.32 
L 667.362444 184.32 
L 667.362444 178.02 
L 519.05265 178.02 
z
" clip-path="url(#pb6f5182075)" style="fill: #0000ff"/>
   </g>
   <g id="patch_58">
    <path d="M 532.243666 184.32 
L 672.353639 184.32 
L 672.353639 178.02 
L 532.243666 178.02 
z
" clip-path="url(#pb6f5182075)" style="fill: #0000ff"/>
   </g>
   <g id="patch_59">
    <path d="M 532.956694 184.32 
L 640.980413 184.32 
L 640.980413 178.02 
L 532.956694 178.02 
z
" clip-path="url(#pb6f5182075)" style="fill: #0000ff"/>
   </g>
   <g id="patch_60">
    <path d="M 536.521833 184.32 
L 641.336927 184.32 
L 641.336927 178.02 
L 536.521833 178.02 
z
" clip-path="url(#pb6f5182075)" style="fill: #0000ff"/>
   </g>
   <g id="patch_61">
    <path d="M 540.8 184.32 
L 628.85894 184.32 
L 628.85894 178.02 
L 540.8 178.02 
z
" clip-path="url(#pb6f5182075)" style="fill: #0000ff"/>
   </g>
   <g id="patch_62">
    <path d="M 541.156514 184.32 
L 640.980413 184.32 
L 640.980413 178.02 
L 541.156514 178.02 
z
" clip-path="url(#pb6f5182075)" style="fill: #0000ff"/>
   </g>
   <g id="patch_63">
    <path d="M 541.156514 184.32 
L 626.363342 184.32 
L 626.363342 178.02 
L 541.156514 178.02 
z
" clip-path="url(#pb6f5182075)" style="fill: #0000ff"/>
   </g>
   <g id="patch_64">
    <path d="M 541.513028 184.32 
L 651.675831 184.32 
L 651.675831 178.02 
L 541.513028 178.02 
z
" clip-path="url(#pb6f5182075)" style="fill: #0000ff"/>
   </g>
   <g id="patch_65">
    <path d="M 541.513028 184.32 
L 648.82372 184.32 
L 648.82372 178.02 
L 541.513028 178.02 
z
" clip-path="url(#pb6f5182075)" style="fill: #0000ff"/>
   </g>
   <g id="patch_66">
    <path d="M 542.58257 184.32 
L 657.736568 184.32 
L 657.736568 178.02 
L 542.58257 178.02 
z
" clip-path="url(#pb6f5182075)" style="fill: #0000ff"/>
   </g>
   <g id="patch_67">
    <path d="M 542.939084 184.32 
L 613.885355 184.32 
L 613.885355 178.02 
L 542.939084 178.02 
z
" clip-path="url(#pb6f5182075)" style="fill: #0000ff"/>
   </g>
   <g id="patch_68">
    <path d="M 542.939084 184.32 
L 642.049955 184.32 
L 642.049955 178.02 
L 542.939084 178.02 
z
" clip-path="url(#pb6f5182075)" style="fill: #0000ff"/>
   </g>
   <g id="patch_69">
    <path d="M 544.365139 184.32 
L 665.22336 184.32 
L 665.22336 178.02 
L 544.365139 178.02 
z
" clip-path="url(#pb6f5182075)" style="fill: #0000ff"/>
   </g>
   <g id="patch_70">
    <path d="M 544.721653 184.32 
L 665.936388 184.32 
L 665.936388 178.02 
L 544.721653 178.02 
z
" clip-path="url(#pb6f5182075)" style="fill: #0000ff"/>
   </g>
   <g id="patch_71">
    <path d="M 544.721653 184.32 
L 614.598383 184.32 
L 614.598383 178.02 
L 544.721653 178.02 
z
" clip-path="url(#pb6f5182075)" style="fill: #0000ff"/>
   </g>
   <g id="patch_72">
    <path d="M 544.721653 184.32 
L 667.00593 184.32 
L 667.00593 178.02 
L 544.721653 178.02 
z
" clip-path="url(#pb6f5182075)" style="fill: #0000ff"/>
   </g>
   <g id="patch_73">
    <path d="M 558.625696 184.32 
L 648.82372 184.32 
L 648.82372 178.02 
L 558.625696 178.02 
z
" clip-path="url(#pb6f5182075)" style="fill: #0000ff"/>
   </g>
   <g id="patch_74">
    <path d="M 558.625696 184.32 
L 632.780593 184.32 
L 632.780593 178.02 
L 558.625696 178.02 
z
" clip-path="url(#pb6f5182075)" style="fill: #0000ff"/>
   </g>
   <g id="patch_75">
    <path d="M 559.338724 184.32 
L 665.579874 184.32 
L 665.579874 178.02 
L 559.338724 178.02 
z
" clip-path="url(#pb6f5182075)" style="fill: #0000ff"/>
   </g>
   <g id="patch_76">
    <path d="M 559.338724 184.32 
L 665.579874 184.32 
L 665.579874 178.02 
L 559.338724 178.02 
z
" clip-path="url(#pb6f5182075)" style="fill: #0000ff"/>
   </g>
   <g id="patch_77">
    <path d="M 559.338724 184.32 
L 665.579874 184.32 
L 665.579874 178.02 
L 559.338724 178.02 
z
" clip-path="url(#pb6f5182075)" style="fill: #0000ff"/>
   </g>
   <g id="patch_78">
    <path d="M 559.338724 184.32 
L 673.423181 184.32 
L 673.423181 178.02 
L 559.338724 178.02 
z
" clip-path="url(#pb6f5182075)" style="fill: #0000ff"/>
   </g>
   <g id="patch_79">
    <path d="M 559.338724 184.32 
L 669.501527 184.32 
L 669.501527 178.02 
L 559.338724 178.02 
z
" clip-path="url(#pb6f5182075)" style="fill: #0000ff"/>
   </g>
   <g id="patch_80">
    <path d="M 559.695238 184.32 
L 665.579874 184.32 
L 665.579874 178.02 
L 559.695238 178.02 
z
" clip-path="url(#pb6f5182075)" style="fill: #0000ff"/>
   </g>
   <g id="patch_81">
    <path d="M 559.695238 184.32 
L 640.980413 184.32 
L 640.980413 178.02 
L 559.695238 178.02 
z
" clip-path="url(#pb6f5182075)" style="fill: #0000ff"/>
   </g>
   <g id="patch_82">
    <path d="M 559.695238 184.32 
L 641.693441 184.32 
L 641.693441 178.02 
L 559.695238 178.02 
z
" clip-path="url(#pb6f5182075)" style="fill: #0000ff"/>
   </g>
   <g id="patch_83">
    <path d="M 560.051752 184.32 
L 650.606289 184.32 
L 650.606289 178.02 
L 560.051752 178.02 
z
" clip-path="url(#pb6f5182075)" style="fill: #0000ff"/>
   </g>
   <g id="patch_84">
    <path d="M 560.051752 184.32 
L 671.284097 184.32 
L 671.284097 178.02 
L 560.051752 178.02 
z
" clip-path="url(#pb6f5182075)" style="fill: #0000ff"/>
   </g>
   <g id="patch_85">
    <path d="M 561.477808 184.32 
L 628.502426 184.32 
L 628.502426 178.02 
L 561.477808 178.02 
z
" clip-path="url(#pb6f5182075)" style="fill: #0000ff"/>
   </g>
   <g id="patch_86">
    <path d="M 561.477808 184.32 
L 648.82372 184.32 
L 648.82372 178.02 
L 561.477808 178.02 
z
" clip-path="url(#pb6f5182075)" style="fill: #0000ff"/>
   </g>
   <g id="patch_87">
    <path d="M 561.477808 184.32 
L 665.579874 184.32 
L 665.579874 178.02 
L 561.477808 178.02 
z
" clip-path="url(#pb6f5182075)" style="fill: #0000ff"/>
   </g>
   <g id="patch_88">
    <path d="M 581.442588 184.32 
L 665.579874 184.32 
L 665.579874 178.02 
L 581.442588 178.02 
z
" clip-path="url(#pb6f5182075)" style="fill: #0000ff"/>
   </g>
   <g id="patch_89">
    <path d="M 673.779695 181.40625 
L 678.770889 181.40625 
L 678.770889 180.93375 
L 673.779695 180.93375 
z
" clip-path="url(#pb6f5182075)" style="fill: #0000ff"/>
   </g>
   <g id="patch_90">
    <path d="M 679.127403 184.32 
L 775.386164 184.32 
L 775.386164 178.02 
L 679.127403 178.02 
z
" clip-path="url(#pb6f5182075)" style="fill: #0000ff"/>
   </g>
   <g id="patch_91">
    <path d="M 699.092183 184.32 
L 754.708356 184.32 
L 754.708356 178.02 
L 699.092183 178.02 
z
" clip-path="url(#pb6f5182075)" style="fill: #0000ff"/>
   </g>
   <g id="patch_92">
    <path d="M 710.857143 184.32 
L 729.752381 184.32 
L 729.752381 178.02 
L 710.857143 178.02 
z
" clip-path="url(#pb6f5182075)" style="fill: #0000ff"/>
   </g>
   <g id="patch_93">
    <path d="M 775.742677 181.40625 
L 869.862354 181.40625 
L 869.862354 180.93375 
L 775.742677 180.93375 
z
" clip-path="url(#pb6f5182075)" style="fill: #0000ff"/>
   </g>
   <g id="patch_94">
    <path d="M 144 165.65625 
L 254.162803 165.65625 
L 254.162803 165.18375 
L 144 165.18375 
z
" clip-path="url(#pb6f5182075)" style="fill: #0000ff"/>
   </g>
   <g id="patch_95">
    <path d="M 254.519317 168.57 
L 290.883738 168.57 
L 290.883738 162.27 
L 254.519317 162.27 
z
" clip-path="url(#pb6f5182075)" style="fill: #0000ff"/>
   </g>
   <g id="patch_96">
    <path d="M 277.692722 168.57 
L 328.3177 168.57 
L 328.3177 162.27 
L 277.692722 162.27 
z
" clip-path="url(#pb6f5182075)" style="fill: #0000ff"/>
   </g>
   <g id="patch_97">
    <path d="M 280.544834 168.57 
L 291.240252 168.57 
L 291.240252 162.27 
L 280.544834 162.27 
z
" clip-path="url(#pb6f5182075)" style="fill: #0000ff"/>
   </g>
   <g id="patch_98">
    <path d="M 283.396945 168.57 
L 327.961186 168.57 
L 327.961186 162.27 
L 283.396945 162.27 
z
" clip-path="url(#pb6f5182075)" style="fill: #0000ff"/>
   </g>
   <g id="patch_99">
    <path d="M 283.753459 168.57 
L 318.691824 168.57 
L 318.691824 162.27 
L 283.753459 162.27 
z
" clip-path="url(#pb6f5182075)" style="fill: #0000ff"/>
   </g>
   <g id="patch_100">
    <path d="M 328.674214 165.65625 
L 510.496316 165.65625 
L 510.496316 165.18375 
L 328.674214 165.18375 
z
" clip-path="url(#pb6f5182075)" style="fill: #0000ff"/>
   </g>
   <g id="patch_101">
    <path d="M 510.85283 168.57 
L 645.615094 168.57 
L 645.615094 162.27 
L 510.85283 162.27 
z
" clip-path="url(#pb6f5182075)" style="fill: #0000ff"/>
   </g>
   <g id="patch_102">
    <path d="M 515.487511 168.57 
L 611.389757 168.57 
L 611.389757 162.27 
L 515.487511 162.27 
z
" clip-path="url(#pb6f5182075)" style="fill: #0000ff"/>
   </g>
   <g id="patch_103">
    <path d="M 515.844025 168.57 
L 662.371249 168.57 
L 662.371249 162.27 
L 515.844025 162.27 
z
" clip-path="url(#pb6f5182075)" style="fill: #0000ff"/>
   </g>
   <g id="patch_104">
    <path d="M 540.086972 168.57 
L 661.301707 168.57 
L 661.301707 162.27 
L 540.086972 162.27 
z
" clip-path="url(#pb6f5182075)" style="fill: #0000ff"/>
   </g>
   <g id="patch_105">
    <path d="M 540.086972 168.57 
L 647.397664 168.57 
L 647.397664 162.27 
L 540.086972 162.27 
z
" clip-path="url(#pb6f5182075)" style="fill: #0000ff"/>
   </g>
   <g id="patch_106">
    <path d="M 540.086972 168.57 
L 636.345732 168.57 
L 636.345732 162.27 
L 540.086972 162.27 
z
" clip-path="url(#pb6f5182075)" style="fill: #0000ff"/>
   </g>
   <g id="patch_107">
    <path d="M 540.086972 168.57 
L 638.484816 168.57 
L 638.484816 162.27 
L 540.086972 162.27 
z
" clip-path="url(#pb6f5182075)" style="fill: #0000ff"/>
   </g>
   <g id="patch_108">
    <path d="M 540.086972 168.57 
L 651.675831 168.57 
L 651.675831 162.27 
L 540.086972 162.27 
z
" clip-path="url(#pb6f5182075)" style="fill: #0000ff"/>
   </g>
   <g id="patch_109">
    <path d="M 540.086972 168.57 
L 662.014735 168.57 
L 662.014735 162.27 
L 540.086972 162.27 
z
" clip-path="url(#pb6f5182075)" style="fill: #0000ff"/>
   </g>
   <g id="patch_110">
    <path d="M 540.086972 168.57 
L 663.797305 168.57 
L 663.797305 162.27 
L 540.086972 162.27 
z
" clip-path="url(#pb6f5182075)" style="fill: #0000ff"/>
   </g>
   <g id="patch_111">
    <path d="M 545.078167 168.57 
L 658.449596 168.57 
L 658.449596 162.27 
L 545.078167 162.27 
z
" clip-path="url(#pb6f5182075)" style="fill: #0000ff"/>
   </g>
   <g id="patch_112">
    <path d="M 545.791195 168.57 
L 636.345732 168.57 
L 636.345732 162.27 
L 545.791195 162.27 
z
" clip-path="url(#pb6f5182075)" style="fill: #0000ff"/>
   </g>
   <g id="patch_113">
    <path d="M 548.99982 168.57 
L 644.545553 168.57 
L 644.545553 162.27 
L 548.99982 162.27 
z
" clip-path="url(#pb6f5182075)" style="fill: #0000ff"/>
   </g>
   <g id="patch_114">
    <path d="M 548.99982 168.57 
L 657.380054 168.57 
L 657.380054 162.27 
L 548.99982 162.27 
z
" clip-path="url(#pb6f5182075)" style="fill: #0000ff"/>
   </g>
   <g id="patch_115">
    <path d="M 550.069362 168.57 
L 621.372147 168.57 
L 621.372147 162.27 
L 550.069362 162.27 
z
" clip-path="url(#pb6f5182075)" style="fill: #0000ff"/>
   </g>
   <g id="patch_116">
    <path d="M 551.495418 168.57 
L 665.936388 168.57 
L 665.936388 162.27 
L 551.495418 162.27 
z
" clip-path="url(#pb6f5182075)" style="fill: #0000ff"/>
   </g>
   <g id="patch_117">
    <path d="M 552.56496 168.57 
L 636.345732 168.57 
L 636.345732 162.27 
L 552.56496 162.27 
z
" clip-path="url(#pb6f5182075)" style="fill: #0000ff"/>
   </g>
   <g id="patch_118">
    <path d="M 554.347529 168.57 
L 628.502426 168.57 
L 628.502426 162.27 
L 554.347529 162.27 
z
" clip-path="url(#pb6f5182075)" style="fill: #0000ff"/>
   </g>
   <g id="patch_119">
    <path d="M 554.347529 168.57 
L 660.945193 168.57 
L 660.945193 162.27 
L 554.347529 162.27 
z
" clip-path="url(#pb6f5182075)" style="fill: #0000ff"/>
   </g>
   <g id="patch_120">
    <path d="M 554.704043 168.57 
L 660.945193 168.57 
L 660.945193 162.27 
L 554.704043 162.27 
z
" clip-path="url(#pb6f5182075)" style="fill: #0000ff"/>
   </g>
   <g id="patch_121">
    <path d="M 554.704043 168.57 
L 660.945193 168.57 
L 660.945193 162.27 
L 554.704043 162.27 
z
" clip-path="url(#pb6f5182075)" style="fill: #0000ff"/>
   </g>
   <g id="patch_122">
    <path d="M 555.060557 168.57 
L 660.945193 168.57 
L 660.945193 162.27 
L 555.060557 162.27 
z
" clip-path="url(#pb6f5182075)" style="fill: #0000ff"/>
   </g>
   <g id="patch_123">
    <path d="M 555.060557 168.57 
L 660.945193 168.57 
L 660.945193 162.27 
L 555.060557 162.27 
z
" clip-path="url(#pb6f5182075)" style="fill: #0000ff"/>
   </g>
   <g id="patch_124">
    <path d="M 555.060557 168.57 
L 636.345732 168.57 
L 636.345732 162.27 
L 555.060557 162.27 
z
" clip-path="url(#pb6f5182075)" style="fill: #0000ff"/>
   </g>
   <g id="patch_125">
    <path d="M 555.060557 168.57 
L 665.22336 168.57 
L 665.22336 162.27 
L 555.060557 162.27 
z
" clip-path="url(#pb6f5182075)" style="fill: #0000ff"/>
   </g>
   <g id="patch_126">
    <path d="M 555.060557 168.57 
L 659.162624 168.57 
L 659.162624 162.27 
L 555.060557 162.27 
z
" clip-path="url(#pb6f5182075)" style="fill: #0000ff"/>
   </g>
   <g id="patch_127">
    <path d="M 555.060557 168.57 
L 647.04115 168.57 
L 647.04115 162.27 
L 555.060557 162.27 
z
" clip-path="url(#pb6f5182075)" style="fill: #0000ff"/>
   </g>
   <g id="patch_128">
    <path d="M 555.773585 168.57 
L 660.945193 168.57 
L 660.945193 162.27 
L 555.773585 162.27 
z
" clip-path="url(#pb6f5182075)" style="fill: #0000ff"/>
   </g>
   <g id="patch_129">
    <path d="M 556.843127 168.57 
L 644.189039 168.57 
L 644.189039 162.27 
L 556.843127 162.27 
z
" clip-path="url(#pb6f5182075)" style="fill: #0000ff"/>
   </g>
   <g id="patch_130">
    <path d="M 575.025337 168.57 
L 658.80611 168.57 
L 658.80611 162.27 
L 575.025337 162.27 
z
" clip-path="url(#pb6f5182075)" style="fill: #0000ff"/>
   </g>
   <g id="patch_131">
    <path d="M 666.292902 165.65625 
L 679.127403 165.65625 
L 679.127403 165.18375 
L 666.292902 165.18375 
z
" clip-path="url(#pb6f5182075)" style="fill: #0000ff"/>
   </g>
   <g id="patch_132">
    <path d="M 679.483917 168.57 
L 767.899371 168.57 
L 767.899371 162.27 
L 679.483917 162.27 
z
" clip-path="url(#pb6f5182075)" style="fill: #0000ff"/>
   </g>
   <g id="patch_133">
    <path d="M 703.013836 168.57 
L 746.865049 168.57 
L 746.865049 162.27 
L 703.013836 162.27 
z
" clip-path="url(#pb6f5182075)" style="fill: #0000ff"/>
   </g>
   <g id="patch_134">
    <path d="M 703.013836 168.57 
L 725.830728 168.57 
L 725.830728 162.27 
L 703.013836 162.27 
z
" clip-path="url(#pb6f5182075)" style="fill: #0000ff"/>
   </g>
   <g id="patch_135">
    <path d="M 768.255885 165.65625 
L 853.462713 165.65625 
L 853.462713 165.18375 
L 768.255885 165.18375 
z
" clip-path="url(#pb6f5182075)" style="fill: #0000ff"/>
   </g>
   <g id="patch_136">
    <path d="M 144 149.90625 
L 331.169811 149.90625 
L 331.169811 149.43375 
L 144 149.43375 
z
" clip-path="url(#pb6f5182075)" style="fill: #0000ff"/>
   </g>
   <g id="patch_137">
    <path d="M 331.526325 152.82 
L 367.534232 152.82 
L 367.534232 146.52 
L 331.526325 146.52 
z
" clip-path="url(#pb6f5182075)" style="fill: #0000ff"/>
   </g>
   <g id="patch_138">
    <path d="M 367.890746 149.90625 
L 384.6469 149.90625 
L 384.6469 149.43375 
L 367.890746 149.43375 
z
" clip-path="url(#pb6f5182075)" style="fill: #0000ff"/>
   </g>
   <g id="patch_139">
    <path d="M 385.003414 152.82 
L 578.94699 152.82 
L 578.94699 146.52 
L 385.003414 146.52 
z
" clip-path="url(#pb6f5182075)" style="fill: #0000ff"/>
   </g>
   <g id="patch_140">
    <path d="M 579.303504 149.90625 
L 587.859838 149.90625 
L 587.859838 149.43375 
L 579.303504 149.43375 
z
" clip-path="url(#pb6f5182075)" style="fill: #0000ff"/>
   </g>
   <g id="patch_141">
    <path d="M 588.216352 152.82 
L 727.256783 152.82 
L 727.256783 146.52 
L 588.216352 146.52 
z
" clip-path="url(#pb6f5182075)" style="fill: #0000ff"/>
   </g>
   <g id="patch_142">
    <path d="M 588.216352 152.82 
L 732.961006 152.82 
L 732.961006 146.52 
L 588.216352 146.52 
z
" clip-path="url(#pb6f5182075)" style="fill: #0000ff"/>
   </g>
   <g id="patch_143">
    <path d="M 590.71195 152.82 
L 735.10009 152.82 
L 735.10009 146.52 
L 590.71195 146.52 
z
" clip-path="url(#pb6f5182075)" style="fill: #0000ff"/>
   </g>
   <g id="patch_144">
    <path d="M 592.138005 152.82 
L 756.490925 152.82 
L 756.490925 146.52 
L 592.138005 146.52 
z
" clip-path="url(#pb6f5182075)" style="fill: #0000ff"/>
   </g>
   <g id="patch_145">
    <path d="M 593.564061 152.82 
L 749.717161 152.82 
L 749.717161 146.52 
L 593.564061 146.52 
z
" clip-path="url(#pb6f5182075)" style="fill: #0000ff"/>
   </g>
   <g id="patch_146">
    <path d="M 596.772686 152.82 
L 756.847439 152.82 
L 756.847439 146.52 
L 596.772686 146.52 
z
" clip-path="url(#pb6f5182075)" style="fill: #0000ff"/>
   </g>
   <g id="patch_147">
    <path d="M 596.772686 152.82 
L 734.743576 152.82 
L 734.743576 146.52 
L 596.772686 146.52 
z
" clip-path="url(#pb6f5182075)" style="fill: #0000ff"/>
   </g>
   <g id="patch_148">
    <path d="M 617.09398 152.82 
L 754.351842 152.82 
L 754.351842 146.52 
L 617.09398 146.52 
z
" clip-path="url(#pb6f5182075)" style="fill: #0000ff"/>
   </g>
   <g id="patch_149">
    <path d="M 621.728661 152.82 
L 732.961006 152.82 
L 732.961006 146.52 
L 621.728661 146.52 
z
" clip-path="url(#pb6f5182075)" style="fill: #0000ff"/>
   </g>
   <g id="patch_150">
    <path d="M 622.798203 152.82 
L 737.239173 152.82 
L 737.239173 146.52 
L 622.798203 146.52 
z
" clip-path="url(#pb6f5182075)" style="fill: #0000ff"/>
   </g>
   <g id="patch_151">
    <path d="M 622.798203 152.82 
L 734.387062 152.82 
L 734.387062 146.52 
L 622.798203 146.52 
z
" clip-path="url(#pb6f5182075)" style="fill: #0000ff"/>
   </g>
   <g id="patch_152">
    <path d="M 623.154717 152.82 
L 748.291105 152.82 
L 748.291105 146.52 
L 623.154717 146.52 
z
" clip-path="url(#pb6f5182075)" style="fill: #0000ff"/>
   </g>
   <g id="patch_153">
    <path d="M 623.154717 152.82 
L 724.761186 152.82 
L 724.761186 146.52 
L 623.154717 146.52 
z
" clip-path="url(#pb6f5182075)" style="fill: #0000ff"/>
   </g>
   <g id="patch_154">
    <path d="M 623.511231 152.82 
L 735.10009 152.82 
L 735.10009 146.52 
L 623.511231 146.52 
z
" clip-path="url(#pb6f5182075)" style="fill: #0000ff"/>
   </g>
   <g id="patch_155">
    <path d="M 636.702246 152.82 
L 723.691644 152.82 
L 723.691644 146.52 
L 636.702246 146.52 
z
" clip-path="url(#pb6f5182075)" style="fill: #0000ff"/>
   </g>
   <g id="patch_156">
    <path d="M 638.484816 152.82 
L 755.421384 152.82 
L 755.421384 146.52 
L 638.484816 146.52 
z
" clip-path="url(#pb6f5182075)" style="fill: #0000ff"/>
   </g>
   <g id="patch_157">
    <path d="M 639.910872 152.82 
L 748.647619 152.82 
L 748.647619 146.52 
L 639.910872 146.52 
z
" clip-path="url(#pb6f5182075)" style="fill: #0000ff"/>
   </g>
   <g id="patch_158">
    <path d="M 639.910872 152.82 
L 745.795508 152.82 
L 745.795508 146.52 
L 639.910872 146.52 
z
" clip-path="url(#pb6f5182075)" style="fill: #0000ff"/>
   </g>
   <g id="patch_159">
    <path d="M 640.267385 152.82 
L 748.647619 152.82 
L 748.647619 146.52 
L 640.267385 146.52 
z
" clip-path="url(#pb6f5182075)" style="fill: #0000ff"/>
   </g>
   <g id="patch_160">
    <path d="M 640.267385 152.82 
L 748.647619 152.82 
L 748.647619 146.52 
L 640.267385 146.52 
z
" clip-path="url(#pb6f5182075)" style="fill: #0000ff"/>
   </g>
   <g id="patch_161">
    <path d="M 640.267385 152.82 
L 745.795508 152.82 
L 745.795508 146.52 
L 640.267385 146.52 
z
" clip-path="url(#pb6f5182075)" style="fill: #0000ff"/>
   </g>
   <g id="patch_162">
    <path d="M 640.623899 152.82 
L 732.604492 152.82 
L 732.604492 146.52 
L 640.623899 146.52 
z
" clip-path="url(#pb6f5182075)" style="fill: #0000ff"/>
   </g>
   <g id="patch_163">
    <path d="M 640.623899 152.82 
L 748.291105 152.82 
L 748.291105 146.52 
L 640.623899 146.52 
z
" clip-path="url(#pb6f5182075)" style="fill: #0000ff"/>
   </g>
   <g id="patch_164">
    <path d="M 640.980413 152.82 
L 748.291105 152.82 
L 748.291105 146.52 
L 640.980413 146.52 
z
" clip-path="url(#pb6f5182075)" style="fill: #0000ff"/>
   </g>
   <g id="patch_165">
    <path d="M 642.049955 152.82 
L 732.604492 152.82 
L 732.604492 146.52 
L 642.049955 146.52 
z
" clip-path="url(#pb6f5182075)" style="fill: #0000ff"/>
   </g>
   <g id="patch_166">
    <path d="M 642.049955 152.82 
L 757.203953 152.82 
L 757.203953 146.52 
L 642.049955 146.52 
z
" clip-path="url(#pb6f5182075)" style="fill: #0000ff"/>
   </g>
   <g id="patch_167">
    <path d="M 661.301707 152.82 
L 734.387062 152.82 
L 734.387062 146.52 
L 661.301707 146.52 
z
" clip-path="url(#pb6f5182075)" style="fill: #0000ff"/>
   </g>
   <g id="patch_168">
    <path d="M 662.371249 152.82 
L 734.387062 152.82 
L 734.387062 146.52 
L 662.371249 146.52 
z
" clip-path="url(#pb6f5182075)" style="fill: #0000ff"/>
   </g>
   <g id="patch_169">
    <path d="M 667.362444 152.82 
L 733.674034 152.82 
L 733.674034 146.52 
L 667.362444 146.52 
z
" clip-path="url(#pb6f5182075)" style="fill: #0000ff"/>
   </g>
   <g id="patch_170">
    <path d="M 667.718958 152.82 
L 725.474214 152.82 
L 725.474214 146.52 
L 667.718958 146.52 
z
" clip-path="url(#pb6f5182075)" style="fill: #0000ff"/>
   </g>
   <g id="patch_171">
    <path d="M 669.858041 152.82 
L 749.004133 152.82 
L 749.004133 146.52 
L 669.858041 146.52 
z
" clip-path="url(#pb6f5182075)" style="fill: #0000ff"/>
   </g>
   <g id="patch_172">
    <path d="M 757.560467 149.90625 
L 765.04726 149.90625 
L 765.04726 149.43375 
L 757.560467 149.43375 
z
" clip-path="url(#pb6f5182075)" style="fill: #0000ff"/>
   </g>
   <g id="patch_173">
    <path d="M 144 134.15625 
L 208.529021 134.15625 
L 208.529021 133.68375 
L 144 133.68375 
z
" clip-path="url(#pb6f5182075)" style="fill: #0000ff"/>
   </g>
   <g id="patch_174">
    <path d="M 208.885535 137.07 
L 285.536029 137.07 
L 285.536029 130.77 
L 208.885535 130.77 
z
" clip-path="url(#pb6f5182075)" style="fill: #0000ff"/>
   </g>
   <g id="patch_175">
    <path d="M 144 118.40625 
L 244.536927 118.40625 
L 244.536927 117.93375 
L 144 117.93375 
z
" clip-path="url(#pb6f5182075)" style="fill: #0000ff"/>
   </g>
   <g id="patch_176">
    <path d="M 244.893441 121.32 
L 279.831806 121.32 
L 279.831806 115.02 
L 244.893441 115.02 
z
" clip-path="url(#pb6f5182075)" style="fill: #0000ff"/>
   </g>
   <g id="patch_177">
    <path d="M 280.18832 118.40625 
L 444.897754 118.40625 
L 444.897754 117.93375 
L 280.18832 117.93375 
z
" clip-path="url(#pb6f5182075)" style="fill: #0000ff"/>
   </g>
   <g id="patch_178">
    <path d="M 445.254268 121.32 
L 515.487511 121.32 
L 515.487511 115.02 
L 445.254268 115.02 
z
" clip-path="url(#pb6f5182075)" style="fill: #0000ff"/>
   </g>
   <g id="patch_179">
    <path d="M 515.844025 118.40625 
L 551.851932 118.40625 
L 551.851932 117.93375 
L 515.844025 117.93375 
z
" clip-path="url(#pb6f5182075)" style="fill: #0000ff"/>
   </g>
   <g id="patch_180">
    <path d="M 552.208446 121.32 
L 689.466307 121.32 
L 689.466307 115.02 
L 552.208446 115.02 
z
" clip-path="url(#pb6f5182075)" style="fill: #0000ff"/>
   </g>
   <g id="patch_181">
    <path d="M 552.921473 121.32 
L 662.371249 121.32 
L 662.371249 115.02 
L 552.921473 115.02 
z
" clip-path="url(#pb6f5182075)" style="fill: #0000ff"/>
   </g>
   <g id="patch_182">
    <path d="M 553.277987 121.32 
L 693.031447 121.32 
L 693.031447 115.02 
L 553.277987 115.02 
z
" clip-path="url(#pb6f5182075)" style="fill: #0000ff"/>
   </g>
   <g id="patch_183">
    <path d="M 555.060557 121.32 
L 670.214555 121.32 
L 670.214555 115.02 
L 555.060557 115.02 
z
" clip-path="url(#pb6f5182075)" style="fill: #0000ff"/>
   </g>
   <g id="patch_184">
    <path d="M 555.773585 121.32 
L 682.692543 121.32 
L 682.692543 115.02 
L 555.773585 115.02 
z
" clip-path="url(#pb6f5182075)" style="fill: #0000ff"/>
   </g>
   <g id="patch_185">
    <path d="M 555.773585 121.32 
L 661.301707 121.32 
L 661.301707 115.02 
L 555.773585 115.02 
z
" clip-path="url(#pb6f5182075)" style="fill: #0000ff"/>
   </g>
   <g id="patch_186">
    <path d="M 556.843127 121.32 
L 669.501527 121.32 
L 669.501527 115.02 
L 556.843127 115.02 
z
" clip-path="url(#pb6f5182075)" style="fill: #0000ff"/>
   </g>
   <g id="patch_187">
    <path d="M 557.199641 121.32 
L 685.18814 121.32 
L 685.18814 115.02 
L 557.199641 115.02 
z
" clip-path="url(#pb6f5182075)" style="fill: #0000ff"/>
   </g>
   <g id="patch_188">
    <path d="M 557.199641 121.32 
L 661.301707 121.32 
L 661.301707 115.02 
L 557.199641 115.02 
z
" clip-path="url(#pb6f5182075)" style="fill: #0000ff"/>
   </g>
   <g id="patch_189">
    <path d="M 557.199641 121.32 
L 660.945193 121.32 
L 660.945193 115.02 
L 557.199641 115.02 
z
" clip-path="url(#pb6f5182075)" style="fill: #0000ff"/>
   </g>
   <g id="patch_190">
    <path d="M 557.199641 121.32 
L 663.084277 121.32 
L 663.084277 115.02 
L 557.199641 115.02 
z
" clip-path="url(#pb6f5182075)" style="fill: #0000ff"/>
   </g>
   <g id="patch_191">
    <path d="M 557.556155 121.32 
L 670.571069 121.32 
L 670.571069 115.02 
L 557.556155 115.02 
z
" clip-path="url(#pb6f5182075)" style="fill: #0000ff"/>
   </g>
   <g id="patch_192">
    <path d="M 557.556155 121.32 
L 670.571069 121.32 
L 670.571069 115.02 
L 557.556155 115.02 
z
" clip-path="url(#pb6f5182075)" style="fill: #0000ff"/>
   </g>
   <g id="patch_193">
    <path d="M 557.556155 121.32 
L 693.031447 121.32 
L 693.031447 115.02 
L 557.556155 115.02 
z
" clip-path="url(#pb6f5182075)" style="fill: #0000ff"/>
   </g>
   <g id="patch_194">
    <path d="M 557.556155 121.32 
L 685.18814 121.32 
L 685.18814 115.02 
L 557.556155 115.02 
z
" clip-path="url(#pb6f5182075)" style="fill: #0000ff"/>
   </g>
   <g id="patch_195">
    <path d="M 573.242767 121.32 
L 670.571069 121.32 
L 670.571069 115.02 
L 573.242767 115.02 
z
" clip-path="url(#pb6f5182075)" style="fill: #0000ff"/>
   </g>
   <g id="patch_196">
    <path d="M 575.025337 121.32 
L 685.18814 121.32 
L 685.18814 115.02 
L 575.025337 115.02 
z
" clip-path="url(#pb6f5182075)" style="fill: #0000ff"/>
   </g>
   <g id="patch_197">
    <path d="M 575.025337 121.32 
L 685.18814 121.32 
L 685.18814 115.02 
L 575.025337 115.02 
z
" clip-path="url(#pb6f5182075)" style="fill: #0000ff"/>
   </g>
   <g id="patch_198">
    <path d="M 575.025337 121.32 
L 660.945193 121.32 
L 660.945193 115.02 
L 575.025337 115.02 
z
" clip-path="url(#pb6f5182075)" style="fill: #0000ff"/>
   </g>
   <g id="patch_199">
    <path d="M 575.381851 121.32 
L 685.18814 121.32 
L 685.18814 115.02 
L 575.381851 115.02 
z
" clip-path="url(#pb6f5182075)" style="fill: #0000ff"/>
   </g>
   <g id="patch_200">
    <path d="M 575.381851 121.32 
L 661.301707 121.32 
L 661.301707 115.02 
L 575.381851 115.02 
z
" clip-path="url(#pb6f5182075)" style="fill: #0000ff"/>
   </g>
   <g id="patch_201">
    <path d="M 575.381851 121.32 
L 669.858041 121.32 
L 669.858041 115.02 
L 575.381851 115.02 
z
" clip-path="url(#pb6f5182075)" style="fill: #0000ff"/>
   </g>
   <g id="patch_202">
    <path d="M 575.381851 121.32 
L 671.640611 121.32 
L 671.640611 115.02 
L 575.381851 115.02 
z
" clip-path="url(#pb6f5182075)" style="fill: #0000ff"/>
   </g>
   <g id="patch_203">
    <path d="M 575.738365 121.32 
L 669.145013 121.32 
L 669.145013 115.02 
L 575.738365 115.02 
z
" clip-path="url(#pb6f5182075)" style="fill: #0000ff"/>
   </g>
   <g id="patch_204">
    <path d="M 575.738365 121.32 
L 670.927583 121.32 
L 670.927583 115.02 
L 575.738365 115.02 
z
" clip-path="url(#pb6f5182075)" style="fill: #0000ff"/>
   </g>
   <g id="patch_205">
    <path d="M 575.738365 121.32 
L 669.858041 121.32 
L 669.858041 115.02 
L 575.738365 115.02 
z
" clip-path="url(#pb6f5182075)" style="fill: #0000ff"/>
   </g>
   <g id="patch_206">
    <path d="M 575.738365 121.32 
L 680.553459 121.32 
L 680.553459 115.02 
L 575.738365 115.02 
z
" clip-path="url(#pb6f5182075)" style="fill: #0000ff"/>
   </g>
   <g id="patch_207">
    <path d="M 575.738365 121.32 
L 661.301707 121.32 
L 661.301707 115.02 
L 575.738365 115.02 
z
" clip-path="url(#pb6f5182075)" style="fill: #0000ff"/>
   </g>
   <g id="patch_208">
    <path d="M 575.738365 121.32 
L 673.423181 121.32 
L 673.423181 115.02 
L 575.738365 115.02 
z
" clip-path="url(#pb6f5182075)" style="fill: #0000ff"/>
   </g>
   <g id="patch_209">
    <path d="M 575.738365 121.32 
L 669.858041 121.32 
L 669.858041 115.02 
L 575.738365 115.02 
z
" clip-path="url(#pb6f5182075)" style="fill: #0000ff"/>
   </g>
   <g id="patch_210">
    <path d="M 575.738365 121.32 
L 660.232165 121.32 
L 660.232165 115.02 
L 575.738365 115.02 
z
" clip-path="url(#pb6f5182075)" style="fill: #0000ff"/>
   </g>
   <g id="patch_211">
    <path d="M 577.16442 121.32 
L 642.049955 121.32 
L 642.049955 115.02 
L 577.16442 115.02 
z
" clip-path="url(#pb6f5182075)" style="fill: #0000ff"/>
   </g>
   <g id="patch_212">
    <path d="M 577.16442 121.32 
L 669.145013 121.32 
L 669.145013 115.02 
L 577.16442 115.02 
z
" clip-path="url(#pb6f5182075)" style="fill: #0000ff"/>
   </g>
   <g id="patch_213">
    <path d="M 596.416173 121.32 
L 660.945193 121.32 
L 660.945193 115.02 
L 596.416173 115.02 
z
" clip-path="url(#pb6f5182075)" style="fill: #0000ff"/>
   </g>
   <g id="patch_214">
    <path d="M 596.772686 121.32 
L 669.501527 121.32 
L 669.501527 115.02 
L 596.772686 115.02 
z
" clip-path="url(#pb6f5182075)" style="fill: #0000ff"/>
   </g>
   <g id="patch_215">
    <path d="M 603.902965 121.32 
L 643.832525 121.32 
L 643.832525 115.02 
L 603.902965 115.02 
z
" clip-path="url(#pb6f5182075)" style="fill: #0000ff"/>
   </g>
   <g id="patch_216">
    <path d="M 693.38796 118.40625 
L 930.826235 118.40625 
L 930.826235 117.93375 
L 693.38796 117.93375 
z
" clip-path="url(#pb6f5182075)" style="fill: #0000ff"/>
   </g>
   <g id="patch_217">
    <path d="M 144 102.65625 
L 294.448877 102.65625 
L 294.448877 102.18375 
L 144 102.18375 
z
" clip-path="url(#pb6f5182075)" style="fill: #0000ff"/>
   </g>
   <g id="patch_218">
    <path d="M 294.805391 105.57 
L 326.53513 105.57 
L 326.53513 99.27 
L 294.805391 99.27 
z
" clip-path="url(#pb6f5182075)" style="fill: #0000ff"/>
   </g>
   <g id="patch_219">
    <path d="M 296.944474 105.57 
L 330.456783 105.57 
L 330.456783 99.27 
L 296.944474 99.27 
z
" clip-path="url(#pb6f5182075)" style="fill: #0000ff"/>
   </g>
   <g id="patch_220">
    <path d="M 330.813297 102.65625 
L 362.186523 102.65625 
L 362.186523 102.18375 
L 330.813297 102.18375 
z
" clip-path="url(#pb6f5182075)" style="fill: #0000ff"/>
   </g>
   <g id="patch_221">
    <path d="M 362.543037 105.57 
L 383.220845 105.57 
L 383.220845 99.27 
L 362.543037 99.27 
z
" clip-path="url(#pb6f5182075)" style="fill: #0000ff"/>
   </g>
   <g id="patch_222">
    <path d="M 373.238455 105.57 
L 383.220845 105.57 
L 383.220845 99.27 
L 373.238455 99.27 
z
" clip-path="url(#pb6f5182075)" style="fill: #0000ff"/>
   </g>
   <g id="patch_223">
    <path d="M 373.951482 105.57 
L 389.638095 105.57 
L 389.638095 99.27 
L 373.951482 99.27 
z
" clip-path="url(#pb6f5182075)" style="fill: #0000ff"/>
   </g>
   <g id="patch_224">
    <path d="M 389.994609 102.65625 
L 627.432884 102.65625 
L 627.432884 102.18375 
L 389.994609 102.18375 
z
" clip-path="url(#pb6f5182075)" style="fill: #0000ff"/>
   </g>
   <g id="patch_225">
    <path d="M 627.789398 105.57 
L 781.803414 105.57 
L 781.803414 99.27 
L 627.789398 99.27 
z
" clip-path="url(#pb6f5182075)" style="fill: #0000ff"/>
   </g>
   <g id="patch_226">
    <path d="M 627.789398 105.57 
L 757.560467 105.57 
L 757.560467 99.27 
L 627.789398 99.27 
z
" clip-path="url(#pb6f5182075)" style="fill: #0000ff"/>
   </g>
   <g id="patch_227">
    <path d="M 645.615094 105.57 
L 757.560467 105.57 
L 757.560467 99.27 
L 645.615094 99.27 
z
" clip-path="url(#pb6f5182075)" style="fill: #0000ff"/>
   </g>
   <g id="patch_228">
    <path d="M 651.319317 105.57 
L 758.630009 105.57 
L 758.630009 99.27 
L 651.319317 99.27 
z
" clip-path="url(#pb6f5182075)" style="fill: #0000ff"/>
   </g>
   <g id="patch_229">
    <path d="M 651.675831 105.57 
L 781.4469 105.57 
L 781.4469 99.27 
L 651.675831 99.27 
z
" clip-path="url(#pb6f5182075)" style="fill: #0000ff"/>
   </g>
   <g id="patch_230">
    <path d="M 651.675831 105.57 
L 788.577179 105.57 
L 788.577179 99.27 
L 651.675831 99.27 
z
" clip-path="url(#pb6f5182075)" style="fill: #0000ff"/>
   </g>
   <g id="patch_231">
    <path d="M 651.675831 105.57 
L 780.733872 105.57 
L 780.733872 99.27 
L 651.675831 99.27 
z
" clip-path="url(#pb6f5182075)" style="fill: #0000ff"/>
   </g>
   <g id="patch_232">
    <path d="M 651.675831 105.57 
L 784.655526 105.57 
L 784.655526 99.27 
L 651.675831 99.27 
z
" clip-path="url(#pb6f5182075)" style="fill: #0000ff"/>
   </g>
   <g id="patch_233">
    <path d="M 652.032345 105.57 
L 767.899371 105.57 
L 767.899371 99.27 
L 652.032345 99.27 
z
" clip-path="url(#pb6f5182075)" style="fill: #0000ff"/>
   </g>
   <g id="patch_234">
    <path d="M 652.032345 105.57 
L 790.003235 105.57 
L 790.003235 99.27 
L 652.032345 99.27 
z
" clip-path="url(#pb6f5182075)" style="fill: #0000ff"/>
   </g>
   <g id="patch_235">
    <path d="M 652.032345 105.57 
L 767.899371 105.57 
L 767.899371 99.27 
L 652.032345 99.27 
z
" clip-path="url(#pb6f5182075)" style="fill: #0000ff"/>
   </g>
   <g id="patch_236">
    <path d="M 652.032345 105.57 
L 782.872956 105.57 
L 782.872956 99.27 
L 652.032345 99.27 
z
" clip-path="url(#pb6f5182075)" style="fill: #0000ff"/>
   </g>
   <g id="patch_237">
    <path d="M 660.232165 105.57 
L 765.760288 105.57 
L 765.760288 99.27 
L 660.232165 99.27 
z
" clip-path="url(#pb6f5182075)" style="fill: #0000ff"/>
   </g>
   <g id="patch_238">
    <path d="M 665.936388 105.57 
L 765.760288 105.57 
L 765.760288 99.27 
L 665.936388 99.27 
z
" clip-path="url(#pb6f5182075)" style="fill: #0000ff"/>
   </g>
   <g id="patch_239">
    <path d="M 667.00593 105.57 
L 765.403774 105.57 
L 765.403774 99.27 
L 667.00593 99.27 
z
" clip-path="url(#pb6f5182075)" style="fill: #0000ff"/>
   </g>
   <g id="patch_240">
    <path d="M 667.718958 105.57 
L 764.690746 105.57 
L 764.690746 99.27 
L 667.718958 99.27 
z
" clip-path="url(#pb6f5182075)" style="fill: #0000ff"/>
   </g>
   <g id="patch_241">
    <path d="M 669.145013 105.57 
L 764.334232 105.57 
L 764.334232 99.27 
L 669.145013 99.27 
z
" clip-path="url(#pb6f5182075)" style="fill: #0000ff"/>
   </g>
   <g id="patch_242">
    <path d="M 669.145013 105.57 
L 787.151123 105.57 
L 787.151123 99.27 
L 669.145013 99.27 
z
" clip-path="url(#pb6f5182075)" style="fill: #0000ff"/>
   </g>
   <g id="patch_243">
    <path d="M 669.145013 105.57 
L 765.760288 105.57 
L 765.760288 99.27 
L 669.145013 99.27 
z
" clip-path="url(#pb6f5182075)" style="fill: #0000ff"/>
   </g>
   <g id="patch_244">
    <path d="M 669.145013 105.57 
L 787.507637 105.57 
L 787.507637 99.27 
L 669.145013 99.27 
z
" clip-path="url(#pb6f5182075)" style="fill: #0000ff"/>
   </g>
   <g id="patch_245">
    <path d="M 669.858041 105.57 
L 781.4469 105.57 
L 781.4469 99.27 
L 669.858041 99.27 
z
" clip-path="url(#pb6f5182075)" style="fill: #0000ff"/>
   </g>
   <g id="patch_246">
    <path d="M 669.858041 105.57 
L 781.4469 105.57 
L 781.4469 99.27 
L 669.858041 99.27 
z
" clip-path="url(#pb6f5182075)" style="fill: #0000ff"/>
   </g>
   <g id="patch_247">
    <path d="M 669.858041 105.57 
L 778.951303 105.57 
L 778.951303 99.27 
L 669.858041 99.27 
z
" clip-path="url(#pb6f5182075)" style="fill: #0000ff"/>
   </g>
   <g id="patch_248">
    <path d="M 670.214555 105.57 
L 780.733872 105.57 
L 780.733872 99.27 
L 670.214555 99.27 
z
" clip-path="url(#pb6f5182075)" style="fill: #0000ff"/>
   </g>
   <g id="patch_249">
    <path d="M 670.571069 105.57 
L 780.733872 105.57 
L 780.733872 99.27 
L 670.571069 99.27 
z
" clip-path="url(#pb6f5182075)" style="fill: #0000ff"/>
   </g>
   <g id="patch_250">
    <path d="M 671.640611 105.57 
L 780.020845 105.57 
L 780.020845 99.27 
L 671.640611 99.27 
z
" clip-path="url(#pb6f5182075)" style="fill: #0000ff"/>
   </g>
   <g id="patch_251">
    <path d="M 671.640611 105.57 
L 766.116801 105.57 
L 766.116801 99.27 
L 671.640611 99.27 
z
" clip-path="url(#pb6f5182075)" style="fill: #0000ff"/>
   </g>
   <g id="patch_252">
    <path d="M 690.179335 105.57 
L 778.951303 105.57 
L 778.951303 99.27 
L 690.179335 99.27 
z
" clip-path="url(#pb6f5182075)" style="fill: #0000ff"/>
   </g>
   <g id="patch_253">
    <path d="M 716.561366 105.57 
L 765.760288 105.57 
L 765.760288 99.27 
L 716.561366 99.27 
z
" clip-path="url(#pb6f5182075)" style="fill: #0000ff"/>
   </g>
   <g id="patch_254">
    <path d="M 790.359748 102.65625 
L 807.828931 102.65625 
L 807.828931 102.18375 
L 790.359748 102.18375 
z
" clip-path="url(#pb6f5182075)" style="fill: #0000ff"/>
   </g>
   <g id="patch_255">
    <path d="M 808.185445 105.57 
L 903.018149 105.57 
L 903.018149 99.27 
L 808.185445 99.27 
z
" clip-path="url(#pb6f5182075)" style="fill: #0000ff"/>
   </g>
   <g id="patch_256">
    <path d="M 824.585085 105.57 
L 878.775202 105.57 
L 878.775202 99.27 
L 824.585085 99.27 
z
" clip-path="url(#pb6f5182075)" style="fill: #0000ff"/>
   </g>
   <g id="patch_257">
    <path d="M 826.724169 105.57 
L 868.792812 105.57 
L 868.792812 99.27 
L 826.724169 99.27 
z
" clip-path="url(#pb6f5182075)" style="fill: #0000ff"/>
   </g>
   <g id="patch_258">
    <path d="M 903.374663 102.65625 
L 994.285714 102.65625 
L 994.285714 102.18375 
L 903.374663 102.18375 
z
" clip-path="url(#pb6f5182075)" style="fill: #0000ff"/>
   </g>
   <g id="patch_259">
    <path d="M 144 86.90625 
L 150.060737 86.90625 
L 150.060737 86.43375 
L 144 86.43375 
z
" clip-path="url(#pb6f5182075)" style="fill: #0000ff"/>
   </g>
   <g id="patch_260">
    <path d="M 150.417251 89.82 
L 187.851213 89.82 
L 187.851213 83.52 
L 150.417251 83.52 
z
" clip-path="url(#pb6f5182075)" style="fill: #0000ff"/>
   </g>
   <g id="patch_261">
    <path d="M 188.207727 86.90625 
L 207.102965 86.90625 
L 207.102965 86.43375 
L 188.207727 86.43375 
z
" clip-path="url(#pb6f5182075)" style="fill: #0000ff"/>
   </g>
   <g id="patch_262">
    <path d="M 144 71.15625 
L 151.486792 71.15625 
L 151.486792 70.68375 
L 144 70.68375 
z
" clip-path="url(#pb6f5182075)" style="fill: #0000ff"/>
   </g>
   <g id="patch_263">
    <path d="M 151.843306 74.07 
L 188.920755 74.07 
L 188.920755 67.77 
L 151.843306 67.77 
z
" clip-path="url(#pb6f5182075)" style="fill: #0000ff"/>
   </g>
   <g id="patch_264">
    <path d="M 189.277269 71.15625 
L 204.250854 71.15625 
L 204.250854 70.68375 
L 189.277269 70.68375 
z
" clip-path="url(#pb6f5182075)" style="fill: #0000ff"/>
   </g>
   <g id="patch_265">
    <path d="M 144 55.40625 
L 155.76496 55.40625 
L 155.76496 54.93375 
L 144 54.93375 
z
" clip-path="url(#pb6f5182075)" style="fill: #0000ff"/>
   </g>
   <g id="patch_266">
    <path d="M 156.121473 58.32 
L 187.851213 58.32 
L 187.851213 52.02 
L 156.121473 52.02 
z
" clip-path="url(#pb6f5182075)" style="fill: #0000ff"/>
   </g>
   <g id="patch_267">
    <path d="M 188.207727 55.40625 
L 215.659299 55.40625 
L 215.659299 54.93375 
L 188.207727 54.93375 
z
" clip-path="url(#pb6f5182075)" style="fill: #0000ff"/>
   </g>
   <g id="patch_268">
    <path d="M 144 39.65625 
L 150.060737 39.65625 
L 150.060737 39.18375 
L 144 39.18375 
z
" clip-path="url(#pb6f5182075)" style="fill: #0000ff"/>
   </g>
   <g id="patch_269">
    <path d="M 150.417251 42.57 
L 186.781671 42.57 
L 186.781671 36.27 
L 150.417251 36.27 
z
" clip-path="url(#pb6f5182075)" style="fill: #0000ff"/>
   </g>
   <g id="patch_270">
    <path d="M 187.138185 39.65625 
L 198.546631 39.65625 
L 198.546631 39.18375 
L 187.138185 39.18375 
z
" clip-path="url(#pb6f5182075)" style="fill: #0000ff"/>
   </g>
   <g id="patch_271">
    <path d="M 198.903145 42.57 
L 234.911051 42.57 
L 234.911051 36.27 
L 198.903145 36.27 
z
" clip-path="url(#pb6f5182075)" style="fill: #0000ff"/>
   </g>
   <g id="patch_272">
    <path d="M 235.267565 39.65625 
L 266.640791 39.65625 
L 266.640791 39.18375 
L 235.267565 39.18375 
z
" clip-path="url(#pb6f5182075)" style="fill: #0000ff"/>
   </g>
   <g id="matplotlib.axis_1">
    <g id="xtick_1">
     <g id="line2d_1">
      <defs>
       <path id="m23d7ea2ef3" d="M 0 0 
L 0 3.5 
" style="stroke: #000000; stroke-width: 0.8"/>
      </defs>
      <g>
       <use xlink:href="#m23d7ea2ef3" x="321.900449" y="208.26" style="stroke: #000000; stroke-width: 0.8"/>
      </g>
     </g>
     <g id="text_1">
      <!-- 500 -->
      <g transform="translate(312.356699 222.858438) scale(0.1 -0.1)">
       <defs>
        <path id="DejaVuSans-35" d="M 691 4666 
L 3169 4666 
L 3169 4134 
L 1269 4134 
L 1269 2991 
Q 1406 3038 1543 3061 
Q 1681 3084 1819 3084 
Q 2600 3084 3056 2656 
Q 3513 2228 3513 1497 
Q 3513 744 3044 326 
Q 2575 -91 1722 -91 
Q 1428 -91 1123 -41 
Q 819 9 494 109 
L 494 744 
Q 775 591 1075 516 
Q 1375 441 1709 441 
Q 2250 441 2565 725 
Q 2881 1009 2881 1497 
Q 2881 1984 2565 2268 
Q 2250 2553 1709 2553 
Q 1456 2553 1204 2497 
Q 953 2441 691 2322 
L 691 4666 
z
" transform="scale(0.015625)"/>
        <path id="DejaVuSans-30" d="M 2034 4250 
Q 1547 4250 1301 3770 
Q 1056 3291 1056 2328 
Q 1056 1369 1301 889 
Q 1547 409 2034 409 
Q 2525 409 2770 889 
Q 3016 1369 3016 2328 
Q 3016 3291 2770 3770 
Q 2525 4250 2034 4250 
z
M 2034 4750 
Q 2819 4750 3233 4129 
Q 3647 3509 3647 2328 
Q 3647 1150 3233 529 
Q 2819 -91 2034 -91 
Q 1250 -91 836 529 
Q 422 1150 422 2328 
Q 422 3509 836 4129 
Q 1250 4750 2034 4750 
z
" transform="scale(0.015625)"/>
       </defs>
       <use xlink:href="#DejaVuSans-35"/>
       <use xlink:href="#DejaVuSans-30" x="63.623047"/>
       <use xlink:href="#DejaVuSans-30" x="127.246094"/>
      </g>
     </g>
    </g>
    <g id="xtick_2">
     <g id="line2d_2">
      <g>
       <use xlink:href="#m23d7ea2ef3" x="500.157412" y="208.26" style="stroke: #000000; stroke-width: 0.8"/>
      </g>
     </g>
     <g id="text_2">
      <!-- 1000 -->
      <g transform="translate(487.432412 222.858438) scale(0.1 -0.1)">
       <defs>
        <path id="DejaVuSans-31" d="M 794 531 
L 1825 531 
L 1825 4091 
L 703 3866 
L 703 4441 
L 1819 4666 
L 2450 4666 
L 2450 531 
L 3481 531 
L 3481 0 
L 794 0 
L 794 531 
z
" transform="scale(0.015625)"/>
       </defs>
       <use xlink:href="#DejaVuSans-31"/>
       <use xlink:href="#DejaVuSans-30" x="63.623047"/>
       <use xlink:href="#DejaVuSans-30" x="127.246094"/>
       <use xlink:href="#DejaVuSans-30" x="190.869141"/>
      </g>
     </g>
    </g>
    <g id="xtick_3">
     <g id="line2d_3">
      <g>
       <use xlink:href="#m23d7ea2ef3" x="678.414376" y="208.26" style="stroke: #000000; stroke-width: 0.8"/>
      </g>
     </g>
     <g id="text_3">
      <!-- 1500 -->
      <g transform="translate(665.689376 222.858438) scale(0.1 -0.1)">
       <use xlink:href="#DejaVuSans-31"/>
       <use xlink:href="#DejaVuSans-35" x="63.623047"/>
       <use xlink:href="#DejaVuSans-30" x="127.246094"/>
       <use xlink:href="#DejaVuSans-30" x="190.869141"/>
      </g>
     </g>
    </g>
    <g id="xtick_4">
     <g id="line2d_4">
      <g>
       <use xlink:href="#m23d7ea2ef3" x="856.671339" y="208.26" style="stroke: #000000; stroke-width: 0.8"/>
      </g>
     </g>
     <g id="text_4">
      <!-- 2000 -->
      <g transform="translate(843.946339 222.858438) scale(0.1 -0.1)">
       <defs>
        <path id="DejaVuSans-32" d="M 1228 531 
L 3431 531 
L 3431 0 
L 469 0 
L 469 531 
Q 828 903 1448 1529 
Q 2069 2156 2228 2338 
Q 2531 2678 2651 2914 
Q 2772 3150 2772 3378 
Q 2772 3750 2511 3984 
Q 2250 4219 1831 4219 
Q 1534 4219 1204 4116 
Q 875 4013 500 3803 
L 500 4441 
Q 881 4594 1212 4672 
Q 1544 4750 1819 4750 
Q 2544 4750 2975 4387 
Q 3406 4025 3406 3419 
Q 3406 3131 3298 2873 
Q 3191 2616 2906 2266 
Q 2828 2175 2409 1742 
Q 1991 1309 1228 531 
z
" transform="scale(0.015625)"/>
       </defs>
       <use xlink:href="#DejaVuSans-32"/>
       <use xlink:href="#DejaVuSans-30" x="63.623047"/>
       <use xlink:href="#DejaVuSans-30" x="127.246094"/>
       <use xlink:href="#DejaVuSans-30" x="190.869141"/>
      </g>
     </g>
    </g>
    <g id="xtick_5">
     <g id="line2d_5">
      <g>
       <use xlink:href="#m23d7ea2ef3" x="1034.928302" y="208.26" style="stroke: #000000; stroke-width: 0.8"/>
      </g>
     </g>
     <g id="text_5">
      <!-- 2500 -->
      <g transform="translate(1022.203302 222.858438) scale(0.1 -0.1)">
       <use xlink:href="#DejaVuSans-32"/>
       <use xlink:href="#DejaVuSans-35" x="63.623047"/>
       <use xlink:href="#DejaVuSans-30" x="127.246094"/>
       <use xlink:href="#DejaVuSans-30" x="190.869141"/>
      </g>
     </g>
    </g>
    <g id="text_6">
     <!-- Residual -->
     <g transform="translate(569.284375 236.536563) scale(0.1 -0.1)">
      <defs>
       <path id="DejaVuSans-52" d="M 2841 2188 
Q 3044 2119 3236 1894 
Q 3428 1669 3622 1275 
L 4263 0 
L 3584 0 
L 2988 1197 
Q 2756 1666 2539 1819 
Q 2322 1972 1947 1972 
L 1259 1972 
L 1259 0 
L 628 0 
L 628 4666 
L 2053 4666 
Q 2853 4666 3247 4331 
Q 3641 3997 3641 3322 
Q 3641 2881 3436 2590 
Q 3231 2300 2841 2188 
z
M 1259 4147 
L 1259 2491 
L 2053 2491 
Q 2509 2491 2742 2702 
Q 2975 2913 2975 3322 
Q 2975 3731 2742 3939 
Q 2509 4147 2053 4147 
L 1259 4147 
z
" transform="scale(0.015625)"/>
       <path id="DejaVuSans-65" d="M 3597 1894 
L 3597 1613 
L 953 1613 
Q 991 1019 1311 708 
Q 1631 397 2203 397 
Q 2534 397 2845 478 
Q 3156 559 3463 722 
L 3463 178 
Q 3153 47 2828 -22 
Q 2503 -91 2169 -91 
Q 1331 -91 842 396 
Q 353 884 353 1716 
Q 353 2575 817 3079 
Q 1281 3584 2069 3584 
Q 2775 3584 3186 3129 
Q 3597 2675 3597 1894 
z
M 3022 2063 
Q 3016 2534 2758 2815 
Q 2500 3097 2075 3097 
Q 1594 3097 1305 2825 
Q 1016 2553 972 2059 
L 3022 2063 
z
" transform="scale(0.015625)"/>
       <path id="DejaVuSans-73" d="M 2834 3397 
L 2834 2853 
Q 2591 2978 2328 3040 
Q 2066 3103 1784 3103 
Q 1356 3103 1142 2972 
Q 928 2841 928 2578 
Q 928 2378 1081 2264 
Q 1234 2150 1697 2047 
L 1894 2003 
Q 2506 1872 2764 1633 
Q 3022 1394 3022 966 
Q 3022 478 2636 193 
Q 2250 -91 1575 -91 
Q 1294 -91 989 -36 
Q 684 19 347 128 
L 347 722 
Q 666 556 975 473 
Q 1284 391 1588 391 
Q 1994 391 2212 530 
Q 2431 669 2431 922 
Q 2431 1156 2273 1281 
Q 2116 1406 1581 1522 
L 1381 1569 
Q 847 1681 609 1914 
Q 372 2147 372 2553 
Q 372 3047 722 3315 
Q 1072 3584 1716 3584 
Q 2034 3584 2315 3537 
Q 2597 3491 2834 3397 
z
" transform="scale(0.015625)"/>
       <path id="DejaVuSans-69" d="M 603 3500 
L 1178 3500 
L 1178 0 
L 603 0 
L 603 3500 
z
M 603 4863 
L 1178 4863 
L 1178 4134 
L 603 4134 
L 603 4863 
z
" transform="scale(0.015625)"/>
       <path id="DejaVuSans-64" d="M 2906 2969 
L 2906 4863 
L 3481 4863 
L 3481 0 
L 2906 0 
L 2906 525 
Q 2725 213 2448 61 
Q 2172 -91 1784 -91 
Q 1150 -91 751 415 
Q 353 922 353 1747 
Q 353 2572 751 3078 
Q 1150 3584 1784 3584 
Q 2172 3584 2448 3432 
Q 2725 3281 2906 2969 
z
M 947 1747 
Q 947 1113 1208 752 
Q 1469 391 1925 391 
Q 2381 391 2643 752 
Q 2906 1113 2906 1747 
Q 2906 2381 2643 2742 
Q 2381 3103 1925 3103 
Q 1469 3103 1208 2742 
Q 947 2381 947 1747 
z
" transform="scale(0.015625)"/>
       <path id="DejaVuSans-75" d="M 544 1381 
L 544 3500 
L 1119 3500 
L 1119 1403 
Q 1119 906 1312 657 
Q 1506 409 1894 409 
Q 2359 409 2629 706 
Q 2900 1003 2900 1516 
L 2900 3500 
L 3475 3500 
L 3475 0 
L 2900 0 
L 2900 538 
Q 2691 219 2414 64 
Q 2138 -91 1772 -91 
Q 1169 -91 856 284 
Q 544 659 544 1381 
z
M 1991 3584 
L 1991 3584 
z
" transform="scale(0.015625)"/>
       <path id="DejaVuSans-61" d="M 2194 1759 
Q 1497 1759 1228 1600 
Q 959 1441 959 1056 
Q 959 750 1161 570 
Q 1363 391 1709 391 
Q 2188 391 2477 730 
Q 2766 1069 2766 1631 
L 2766 1759 
L 2194 1759 
z
M 3341 1997 
L 3341 0 
L 2766 0 
L 2766 531 
Q 2569 213 2275 61 
Q 1981 -91 1556 -91 
Q 1019 -91 701 211 
Q 384 513 384 1019 
Q 384 1609 779 1909 
Q 1175 2209 1959 2209 
L 2766 2209 
L 2766 2266 
Q 2766 2663 2505 2880 
Q 2244 3097 1772 3097 
Q 1472 3097 1187 3025 
Q 903 2953 641 2809 
L 641 3341 
Q 956 3463 1253 3523 
Q 1550 3584 1831 3584 
Q 2591 3584 2966 3190 
Q 3341 2797 3341 1997 
z
" transform="scale(0.015625)"/>
       <path id="DejaVuSans-6c" d="M 603 4863 
L 1178 4863 
L 1178 0 
L 603 0 
L 603 4863 
z
" transform="scale(0.015625)"/>
      </defs>
      <use xlink:href="#DejaVuSans-52"/>
      <use xlink:href="#DejaVuSans-65" x="64.982422"/>
      <use xlink:href="#DejaVuSans-73" x="126.505859"/>
      <use xlink:href="#DejaVuSans-69" x="178.605469"/>
      <use xlink:href="#DejaVuSans-64" x="206.388672"/>
      <use xlink:href="#DejaVuSans-75" x="269.865234"/>
      <use xlink:href="#DejaVuSans-61" x="333.244141"/>
      <use xlink:href="#DejaVuSans-6c" x="394.523438"/>
     </g>
    </g>
   </g>
   <g id="matplotlib.axis_2">
    <g id="ytick_1">
     <g id="line2d_6">
      <defs>
       <path id="mfdfefb460f" d="M 0 0 
L -3.5 0 
" style="stroke: #000000; stroke-width: 0.8"/>
      </defs>
      <g>
       <use xlink:href="#mfdfefb460f" x="144" y="196.92" style="stroke: #000000; stroke-width: 0.8"/>
      </g>
     </g>
     <g id="text_7">
      <!-- 1.A.125.1.1 -->
      <g transform="translate(79.446875 200.719219) scale(0.1 -0.1)">
       <defs>
        <path id="DejaVuSans-2e" d="M 684 794 
L 1344 794 
L 1344 0 
L 684 0 
L 684 794 
z
" transform="scale(0.015625)"/>
        <path id="DejaVuSans-41" d="M 2188 4044 
L 1331 1722 
L 3047 1722 
L 2188 4044 
z
M 1831 4666 
L 2547 4666 
L 4325 0 
L 3669 0 
L 3244 1197 
L 1141 1197 
L 716 0 
L 50 0 
L 1831 4666 
z
" transform="scale(0.015625)"/>
       </defs>
       <use xlink:href="#DejaVuSans-31"/>
       <use xlink:href="#DejaVuSans-2e" x="63.623047"/>
       <use xlink:href="#DejaVuSans-41" x="95.410156"/>
       <use xlink:href="#DejaVuSans-2e" x="162.068359"/>
       <use xlink:href="#DejaVuSans-31" x="193.855469"/>
       <use xlink:href="#DejaVuSans-32" x="257.478516"/>
       <use xlink:href="#DejaVuSans-35" x="321.101562"/>
       <use xlink:href="#DejaVuSans-2e" x="384.724609"/>
       <use xlink:href="#DejaVuSans-31" x="416.511719"/>
       <use xlink:href="#DejaVuSans-2e" x="480.134766"/>
       <use xlink:href="#DejaVuSans-31" x="511.921875"/>
      </g>
     </g>
    </g>
    <g id="ytick_2">
     <g id="line2d_7">
      <g>
       <use xlink:href="#mfdfefb460f" x="144" y="181.17" style="stroke: #000000; stroke-width: 0.8"/>
      </g>
     </g>
     <g id="text_8">
      <!-- 1.A.125.1.2 -->
      <g transform="translate(79.446875 184.969219) scale(0.1 -0.1)">
       <use xlink:href="#DejaVuSans-31"/>
       <use xlink:href="#DejaVuSans-2e" x="63.623047"/>
       <use xlink:href="#DejaVuSans-41" x="95.410156"/>
       <use xlink:href="#DejaVuSans-2e" x="162.068359"/>
       <use xlink:href="#DejaVuSans-31" x="193.855469"/>
       <use xlink:href="#DejaVuSans-32" x="257.478516"/>
       <use xlink:href="#DejaVuSans-35" x="321.101562"/>
       <use xlink:href="#DejaVuSans-2e" x="384.724609"/>
       <use xlink:href="#DejaVuSans-31" x="416.511719"/>
       <use xlink:href="#DejaVuSans-2e" x="480.134766"/>
       <use xlink:href="#DejaVuSans-32" x="511.921875"/>
      </g>
     </g>
    </g>
    <g id="ytick_3">
     <g id="line2d_8">
      <g>
       <use xlink:href="#mfdfefb460f" x="144" y="165.42" style="stroke: #000000; stroke-width: 0.8"/>
      </g>
     </g>
     <g id="text_9">
      <!-- 1.A.125.1.3 -->
      <g transform="translate(79.446875 169.219219) scale(0.1 -0.1)">
       <defs>
        <path id="DejaVuSans-33" d="M 2597 2516 
Q 3050 2419 3304 2112 
Q 3559 1806 3559 1356 
Q 3559 666 3084 287 
Q 2609 -91 1734 -91 
Q 1441 -91 1130 -33 
Q 819 25 488 141 
L 488 750 
Q 750 597 1062 519 
Q 1375 441 1716 441 
Q 2309 441 2620 675 
Q 2931 909 2931 1356 
Q 2931 1769 2642 2001 
Q 2353 2234 1838 2234 
L 1294 2234 
L 1294 2753 
L 1863 2753 
Q 2328 2753 2575 2939 
Q 2822 3125 2822 3475 
Q 2822 3834 2567 4026 
Q 2313 4219 1838 4219 
Q 1578 4219 1281 4162 
Q 984 4106 628 3988 
L 628 4550 
Q 988 4650 1302 4700 
Q 1616 4750 1894 4750 
Q 2613 4750 3031 4423 
Q 3450 4097 3450 3541 
Q 3450 3153 3228 2886 
Q 3006 2619 2597 2516 
z
" transform="scale(0.015625)"/>
       </defs>
       <use xlink:href="#DejaVuSans-31"/>
       <use xlink:href="#DejaVuSans-2e" x="63.623047"/>
       <use xlink:href="#DejaVuSans-41" x="95.410156"/>
       <use xlink:href="#DejaVuSans-2e" x="162.068359"/>
       <use xlink:href="#DejaVuSans-31" x="193.855469"/>
       <use xlink:href="#DejaVuSans-32" x="257.478516"/>
       <use xlink:href="#DejaVuSans-35" x="321.101562"/>
       <use xlink:href="#DejaVuSans-2e" x="384.724609"/>
       <use xlink:href="#DejaVuSans-31" x="416.511719"/>
       <use xlink:href="#DejaVuSans-2e" x="480.134766"/>
       <use xlink:href="#DejaVuSans-33" x="511.921875"/>
      </g>
     </g>
    </g>
    <g id="ytick_4">
     <g id="line2d_9">
      <g>
       <use xlink:href="#mfdfefb460f" x="144" y="149.67" style="stroke: #000000; stroke-width: 0.8"/>
      </g>
     </g>
     <g id="text_10">
      <!-- 1.A.125.1.4 -->
      <g transform="translate(79.446875 153.469219) scale(0.1 -0.1)">
       <defs>
        <path id="DejaVuSans-34" d="M 2419 4116 
L 825 1625 
L 2419 1625 
L 2419 4116 
z
M 2253 4666 
L 3047 4666 
L 3047 1625 
L 3713 1625 
L 3713 1100 
L 3047 1100 
L 3047 0 
L 2419 0 
L 2419 1100 
L 313 1100 
L 313 1709 
L 2253 4666 
z
" transform="scale(0.015625)"/>
       </defs>
       <use xlink:href="#DejaVuSans-31"/>
       <use xlink:href="#DejaVuSans-2e" x="63.623047"/>
       <use xlink:href="#DejaVuSans-41" x="95.410156"/>
       <use xlink:href="#DejaVuSans-2e" x="162.068359"/>
       <use xlink:href="#DejaVuSans-31" x="193.855469"/>
       <use xlink:href="#DejaVuSans-32" x="257.478516"/>
       <use xlink:href="#DejaVuSans-35" x="321.101562"/>
       <use xlink:href="#DejaVuSans-2e" x="384.724609"/>
       <use xlink:href="#DejaVuSans-31" x="416.511719"/>
       <use xlink:href="#DejaVuSans-2e" x="480.134766"/>
       <use xlink:href="#DejaVuSans-34" x="511.921875"/>
      </g>
     </g>
    </g>
    <g id="ytick_5">
     <g id="line2d_10">
      <g>
       <use xlink:href="#mfdfefb460f" x="144" y="133.92" style="stroke: #000000; stroke-width: 0.8"/>
      </g>
     </g>
     <g id="text_11">
      <!-- 1.A.125.1.5 -->
      <g transform="translate(79.446875 137.719219) scale(0.1 -0.1)">
       <use xlink:href="#DejaVuSans-31"/>
       <use xlink:href="#DejaVuSans-2e" x="63.623047"/>
       <use xlink:href="#DejaVuSans-41" x="95.410156"/>
       <use xlink:href="#DejaVuSans-2e" x="162.068359"/>
       <use xlink:href="#DejaVuSans-31" x="193.855469"/>
       <use xlink:href="#DejaVuSans-32" x="257.478516"/>
       <use xlink:href="#DejaVuSans-35" x="321.101562"/>
       <use xlink:href="#DejaVuSans-2e" x="384.724609"/>
       <use xlink:href="#DejaVuSans-31" x="416.511719"/>
       <use xlink:href="#DejaVuSans-2e" x="480.134766"/>
       <use xlink:href="#DejaVuSans-35" x="511.921875"/>
      </g>
     </g>
    </g>
    <g id="ytick_6">
     <g id="line2d_11">
      <g>
       <use xlink:href="#mfdfefb460f" x="144" y="118.17" style="stroke: #000000; stroke-width: 0.8"/>
      </g>
     </g>
     <g id="text_12">
      <!-- 1.A.125.1.6 -->
      <g transform="translate(79.446875 121.969219) scale(0.1 -0.1)">
       <defs>
        <path id="DejaVuSans-36" d="M 2113 2584 
Q 1688 2584 1439 2293 
Q 1191 2003 1191 1497 
Q 1191 994 1439 701 
Q 1688 409 2113 409 
Q 2538 409 2786 701 
Q 3034 994 3034 1497 
Q 3034 2003 2786 2293 
Q 2538 2584 2113 2584 
z
M 3366 4563 
L 3366 3988 
Q 3128 4100 2886 4159 
Q 2644 4219 2406 4219 
Q 1781 4219 1451 3797 
Q 1122 3375 1075 2522 
Q 1259 2794 1537 2939 
Q 1816 3084 2150 3084 
Q 2853 3084 3261 2657 
Q 3669 2231 3669 1497 
Q 3669 778 3244 343 
Q 2819 -91 2113 -91 
Q 1303 -91 875 529 
Q 447 1150 447 2328 
Q 447 3434 972 4092 
Q 1497 4750 2381 4750 
Q 2619 4750 2861 4703 
Q 3103 4656 3366 4563 
z
" transform="scale(0.015625)"/>
       </defs>
       <use xlink:href="#DejaVuSans-31"/>
       <use xlink:href="#DejaVuSans-2e" x="63.623047"/>
       <use xlink:href="#DejaVuSans-41" x="95.410156"/>
       <use xlink:href="#DejaVuSans-2e" x="162.068359"/>
       <use xlink:href="#DejaVuSans-31" x="193.855469"/>
       <use xlink:href="#DejaVuSans-32" x="257.478516"/>
       <use xlink:href="#DejaVuSans-35" x="321.101562"/>
       <use xlink:href="#DejaVuSans-2e" x="384.724609"/>
       <use xlink:href="#DejaVuSans-31" x="416.511719"/>
       <use xlink:href="#DejaVuSans-2e" x="480.134766"/>
       <use xlink:href="#DejaVuSans-36" x="511.921875"/>
      </g>
     </g>
    </g>
    <g id="ytick_7">
     <g id="line2d_12">
      <g>
       <use xlink:href="#mfdfefb460f" x="144" y="102.42" style="stroke: #000000; stroke-width: 0.8"/>
      </g>
     </g>
     <g id="text_13">
      <!-- 1.A.125.1.7 -->
      <g transform="translate(79.446875 106.219219) scale(0.1 -0.1)">
       <defs>
        <path id="DejaVuSans-37" d="M 525 4666 
L 3525 4666 
L 3525 4397 
L 1831 0 
L 1172 0 
L 2766 4134 
L 525 4134 
L 525 4666 
z
" transform="scale(0.015625)"/>
       </defs>
       <use xlink:href="#DejaVuSans-31"/>
       <use xlink:href="#DejaVuSans-2e" x="63.623047"/>
       <use xlink:href="#DejaVuSans-41" x="95.410156"/>
       <use xlink:href="#DejaVuSans-2e" x="162.068359"/>
       <use xlink:href="#DejaVuSans-31" x="193.855469"/>
       <use xlink:href="#DejaVuSans-32" x="257.478516"/>
       <use xlink:href="#DejaVuSans-35" x="321.101562"/>
       <use xlink:href="#DejaVuSans-2e" x="384.724609"/>
       <use xlink:href="#DejaVuSans-31" x="416.511719"/>
       <use xlink:href="#DejaVuSans-2e" x="480.134766"/>
       <use xlink:href="#DejaVuSans-37" x="511.921875"/>
      </g>
     </g>
    </g>
    <g id="ytick_8">
     <g id="line2d_13">
      <g>
       <use xlink:href="#mfdfefb460f" x="144" y="86.67" style="stroke: #000000; stroke-width: 0.8"/>
      </g>
     </g>
     <g id="text_14">
      <!-- 1.A.125.2.1 -->
      <g transform="translate(79.446875 90.469219) scale(0.1 -0.1)">
       <use xlink:href="#DejaVuSans-31"/>
       <use xlink:href="#DejaVuSans-2e" x="63.623047"/>
       <use xlink:href="#DejaVuSans-41" x="95.410156"/>
       <use xlink:href="#DejaVuSans-2e" x="162.068359"/>
       <use xlink:href="#DejaVuSans-31" x="193.855469"/>
       <use xlink:href="#DejaVuSans-32" x="257.478516"/>
       <use xlink:href="#DejaVuSans-35" x="321.101562"/>
       <use xlink:href="#DejaVuSans-2e" x="384.724609"/>
       <use xlink:href="#DejaVuSans-32" x="416.511719"/>
       <use xlink:href="#DejaVuSans-2e" x="480.134766"/>
       <use xlink:href="#DejaVuSans-31" x="511.921875"/>
      </g>
     </g>
    </g>
    <g id="ytick_9">
     <g id="line2d_14">
      <g>
       <use xlink:href="#mfdfefb460f" x="144" y="70.92" style="stroke: #000000; stroke-width: 0.8"/>
      </g>
     </g>
     <g id="text_15">
      <!-- 1.A.125.2.2 -->
      <g transform="translate(79.446875 74.719219) scale(0.1 -0.1)">
       <use xlink:href="#DejaVuSans-31"/>
       <use xlink:href="#DejaVuSans-2e" x="63.623047"/>
       <use xlink:href="#DejaVuSans-41" x="95.410156"/>
       <use xlink:href="#DejaVuSans-2e" x="162.068359"/>
       <use xlink:href="#DejaVuSans-31" x="193.855469"/>
       <use xlink:href="#DejaVuSans-32" x="257.478516"/>
       <use xlink:href="#DejaVuSans-35" x="321.101562"/>
       <use xlink:href="#DejaVuSans-2e" x="384.724609"/>
       <use xlink:href="#DejaVuSans-32" x="416.511719"/>
       <use xlink:href="#DejaVuSans-2e" x="480.134766"/>
       <use xlink:href="#DejaVuSans-32" x="511.921875"/>
      </g>
     </g>
    </g>
    <g id="ytick_10">
     <g id="line2d_15">
      <g>
       <use xlink:href="#mfdfefb460f" x="144" y="55.17" style="stroke: #000000; stroke-width: 0.8"/>
      </g>
     </g>
     <g id="text_16">
      <!-- 1.A.125.2.3 -->
      <g transform="translate(79.446875 58.969219) scale(0.1 -0.1)">
       <use xlink:href="#DejaVuSans-31"/>
       <use xlink:href="#DejaVuSans-2e" x="63.623047"/>
       <use xlink:href="#DejaVuSans-41" x="95.410156"/>
       <use xlink:href="#DejaVuSans-2e" x="162.068359"/>
       <use xlink:href="#DejaVuSans-31" x="193.855469"/>
       <use xlink:href="#DejaVuSans-32" x="257.478516"/>
       <use xlink:href="#DejaVuSans-35" x="321.101562"/>
       <use xlink:href="#DejaVuSans-2e" x="384.724609"/>
       <use xlink:href="#DejaVuSans-32" x="416.511719"/>
       <use xlink:href="#DejaVuSans-2e" x="480.134766"/>
       <use xlink:href="#DejaVuSans-33" x="511.921875"/>
      </g>
     </g>
    </g>
    <g id="ytick_11">
     <g id="line2d_16">
      <g>
       <use xlink:href="#mfdfefb460f" x="144" y="39.42" style="stroke: #000000; stroke-width: 0.8"/>
      </g>
     </g>
     <g id="text_17">
      <!-- 1.A.125.2.4 -->
      <g transform="translate(79.446875 43.219219) scale(0.1 -0.1)">
       <use xlink:href="#DejaVuSans-31"/>
       <use xlink:href="#DejaVuSans-2e" x="63.623047"/>
       <use xlink:href="#DejaVuSans-41" x="95.410156"/>
       <use xlink:href="#DejaVuSans-2e" x="162.068359"/>
       <use xlink:href="#DejaVuSans-31" x="193.855469"/>
       <use xlink:href="#DejaVuSans-32" x="257.478516"/>
       <use xlink:href="#DejaVuSans-35" x="321.101562"/>
       <use xlink:href="#DejaVuSans-2e" x="384.724609"/>
       <use xlink:href="#DejaVuSans-32" x="416.511719"/>
       <use xlink:href="#DejaVuSans-2e" x="480.134766"/>
       <use xlink:href="#DejaVuSans-34" x="511.921875"/>
      </g>
     </g>
    </g>
   </g>
   <g id="patch_273">
    <path d="M 144 208.26 
L 144 28.08 
" style="fill: none; stroke: #000000; stroke-width: 0.8; stroke-linejoin: miter; stroke-linecap: square"/>
   </g>
   <g id="patch_274">
    <path d="M 1036.8 208.26 
L 1036.8 28.08 
" style="fill: none; stroke: #000000; stroke-width: 0.8; stroke-linejoin: miter; stroke-linecap: square"/>
   </g>
   <g id="patch_275">
    <path d="M 144 208.26 
L 1036.8 208.26 
" style="fill: none; stroke: #000000; stroke-width: 0.8; stroke-linejoin: miter; stroke-linecap: square"/>
   </g>
   <g id="patch_276">
    <path d="M 144 28.08 
L 1036.8 28.08 
" style="fill: none; stroke: #000000; stroke-width: 0.8; stroke-linejoin: miter; stroke-linecap: square"/>
   </g>
   <g id="text_18">
    <!-- 1.A.125 Summary -->
    <g transform="translate(536.415 22.08) scale(0.12 -0.12)">
     <defs>
      <path id="DejaVuSans-20" transform="scale(0.015625)"/>
      <path id="DejaVuSans-53" d="M 3425 4513 
L 3425 3897 
Q 3066 4069 2747 4153 
Q 2428 4238 2131 4238 
Q 1616 4238 1336 4038 
Q 1056 3838 1056 3469 
Q 1056 3159 1242 3001 
Q 1428 2844 1947 2747 
L 2328 2669 
Q 3034 2534 3370 2195 
Q 3706 1856 3706 1288 
Q 3706 609 3251 259 
Q 2797 -91 1919 -91 
Q 1588 -91 1214 -16 
Q 841 59 441 206 
L 441 856 
Q 825 641 1194 531 
Q 1563 422 1919 422 
Q 2459 422 2753 634 
Q 3047 847 3047 1241 
Q 3047 1584 2836 1778 
Q 2625 1972 2144 2069 
L 1759 2144 
Q 1053 2284 737 2584 
Q 422 2884 422 3419 
Q 422 4038 858 4394 
Q 1294 4750 2059 4750 
Q 2388 4750 2728 4690 
Q 3069 4631 3425 4513 
z
" transform="scale(0.015625)"/>
      <path id="DejaVuSans-6d" d="M 3328 2828 
Q 3544 3216 3844 3400 
Q 4144 3584 4550 3584 
Q 5097 3584 5394 3201 
Q 5691 2819 5691 2113 
L 5691 0 
L 5113 0 
L 5113 2094 
Q 5113 2597 4934 2840 
Q 4756 3084 4391 3084 
Q 3944 3084 3684 2787 
Q 3425 2491 3425 1978 
L 3425 0 
L 2847 0 
L 2847 2094 
Q 2847 2600 2669 2842 
Q 2491 3084 2119 3084 
Q 1678 3084 1418 2786 
Q 1159 2488 1159 1978 
L 1159 0 
L 581 0 
L 581 3500 
L 1159 3500 
L 1159 2956 
Q 1356 3278 1631 3431 
Q 1906 3584 2284 3584 
Q 2666 3584 2933 3390 
Q 3200 3197 3328 2828 
z
" transform="scale(0.015625)"/>
      <path id="DejaVuSans-72" d="M 2631 2963 
Q 2534 3019 2420 3045 
Q 2306 3072 2169 3072 
Q 1681 3072 1420 2755 
Q 1159 2438 1159 1844 
L 1159 0 
L 581 0 
L 581 3500 
L 1159 3500 
L 1159 2956 
Q 1341 3275 1631 3429 
Q 1922 3584 2338 3584 
Q 2397 3584 2469 3576 
Q 2541 3569 2628 3553 
L 2631 2963 
z
" transform="scale(0.015625)"/>
      <path id="DejaVuSans-79" d="M 2059 -325 
Q 1816 -950 1584 -1140 
Q 1353 -1331 966 -1331 
L 506 -1331 
L 506 -850 
L 844 -850 
Q 1081 -850 1212 -737 
Q 1344 -625 1503 -206 
L 1606 56 
L 191 3500 
L 800 3500 
L 1894 763 
L 2988 3500 
L 3597 3500 
L 2059 -325 
z
" transform="scale(0.015625)"/>
     </defs>
     <use xlink:href="#DejaVuSans-31"/>
     <use xlink:href="#DejaVuSans-2e" x="63.623047"/>
     <use xlink:href="#DejaVuSans-41" x="95.410156"/>
     <use xlink:href="#DejaVuSans-2e" x="162.068359"/>
     <use xlink:href="#DejaVuSans-31" x="193.855469"/>
     <use xlink:href="#DejaVuSans-32" x="257.478516"/>
     <use xlink:href="#DejaVuSans-35" x="321.101562"/>
     <use xlink:href="#DejaVuSans-20" x="384.724609"/>
     <use xlink:href="#DejaVuSans-53" x="416.511719"/>
     <use xlink:href="#DejaVuSans-75" x="479.988281"/>
     <use xlink:href="#DejaVuSans-6d" x="543.367188"/>
     <use xlink:href="#DejaVuSans-6d" x="640.779297"/>
     <use xlink:href="#DejaVuSans-61" x="738.191406"/>
     <use xlink:href="#DejaVuSans-72" x="799.470703"/>
     <use xlink:href="#DejaVuSans-79" x="840.583984"/>
    </g>
   </g>
  </g>
 </g>
 <defs>
  <clipPath id="pb6f5182075">
   <rect x="144" y="28.08" width="892.8" height="180.18"/>
  </clipPath>
 </defs>
</svg>
