<?xml version="1.0" encoding="utf-8" standalone="no"?>
<!DOCTYPE svg PUBLIC "-//W3C//DTD SVG 1.1//EN"
  "http://www.w3.org/Graphics/SVG/1.1/DTD/svg11.dtd">
<svg xmlns:xlink="http://www.w3.org/1999/xlink" width="1152pt" height="198pt" viewBox="0 0 1152 198" xmlns="http://www.w3.org/2000/svg" version="1.1">
 <metadata>
  <rdf:RDF xmlns:dc="http://purl.org/dc/elements/1.1/" xmlns:cc="http://creativecommons.org/ns#" xmlns:rdf="http://www.w3.org/1999/02/22-rdf-syntax-ns#">
   <cc:Work>
    <dc:type rdf:resource="http://purl.org/dc/dcmitype/StillImage"/>
    <dc:date>2024-10-10T19:09:09.059347</dc:date>
    <dc:format>image/svg+xml</dc:format>
    <dc:creator>
     <cc:Agent>
      <dc:title>Matplotlib v3.9.2, https://matplotlib.org/</dc:title>
     </cc:Agent>
    </dc:creator>
   </cc:Work>
  </rdf:RDF>
 </metadata>
 <defs>
  <style type="text/css">*{stroke-linejoin: round; stroke-linecap: butt}</style>
 </defs>
 <g id="figure_1">
  <g id="patch_1">
   <path d="M 0 198 
L 1152 198 
L 1152 0 
L 0 0 
z
" style="fill: #ffffff"/>
  </g>
  <g id="axes_1">
   <g id="patch_2">
    <path d="M 144 176.22 
L 1036.8 176.22 
L 1036.8 23.76 
L 144 23.76 
z
" style="fill: #ffffff"/>
   </g>
   <g id="patch_3">
    <path d="M 144 166.2375 
L 144 166.2375 
L 144 165.7425 
L 144 165.7425 
z
" clip-path="url(#pdbeb1907b4)" style="fill: #0000ff"/>
   </g>
   <g id="patch_4">
    <path d="M 144.966234 169.29 
L 698.618182 169.29 
L 698.618182 162.69 
L 144.966234 162.69 
z
" clip-path="url(#pdbeb1907b4)" style="fill: #0000ff"/>
   </g>
   <g id="patch_5">
    <path d="M 144.966234 169.29 
L 740.166234 169.29 
L 740.166234 162.69 
L 144.966234 162.69 
z
" clip-path="url(#pdbeb1907b4)" style="fill: #0000ff"/>
   </g>
   <g id="patch_6">
    <path d="M 147.864935 169.29 
L 772.051948 169.29 
L 772.051948 162.69 
L 147.864935 162.69 
z
" clip-path="url(#pdbeb1907b4)" style="fill: #0000ff"/>
   </g>
   <g id="patch_7">
    <path d="M 149.797403 169.29 
L 670.597403 169.29 
L 670.597403 162.69 
L 149.797403 162.69 
z
" clip-path="url(#pdbeb1907b4)" style="fill: #0000ff"/>
   </g>
   <g id="patch_8">
    <path d="M 149.797403 169.29 
L 772.051948 169.29 
L 772.051948 162.69 
L 149.797403 162.69 
z
" clip-path="url(#pdbeb1907b4)" style="fill: #0000ff"/>
   </g>
   <g id="patch_9">
    <path d="M 149.797403 169.29 
L 516 169.29 
L 516 162.69 
L 149.797403 162.69 
z
" clip-path="url(#pdbeb1907b4)" style="fill: #0000ff"/>
   </g>
   <g id="patch_10">
    <path d="M 149.797403 169.29 
L 514.067532 169.29 
L 514.067532 162.69 
L 149.797403 162.69 
z
" clip-path="url(#pdbeb1907b4)" style="fill: #0000ff"/>
   </g>
   <g id="patch_11">
    <path d="M 149.797403 169.29 
L 516 169.29 
L 516 162.69 
L 149.797403 162.69 
z
" clip-path="url(#pdbeb1907b4)" style="fill: #0000ff"/>
   </g>
   <g id="patch_12">
    <path d="M 149.797403 169.29 
L 740.166234 169.29 
L 740.166234 162.69 
L 149.797403 162.69 
z
" clip-path="url(#pdbeb1907b4)" style="fill: #0000ff"/>
   </g>
   <g id="patch_13">
    <path d="M 149.797403 169.29 
L 756.592208 169.29 
L 756.592208 162.69 
L 149.797403 162.69 
z
" clip-path="url(#pdbeb1907b4)" style="fill: #0000ff"/>
   </g>
   <g id="patch_14">
    <path d="M 150.763636 169.29 
L 516.966234 169.29 
L 516.966234 162.69 
L 150.763636 162.69 
z
" clip-path="url(#pdbeb1907b4)" style="fill: #0000ff"/>
   </g>
   <g id="patch_15">
    <path d="M 150.763636 169.29 
L 514.067532 169.29 
L 514.067532 162.69 
L 150.763636 162.69 
z
" clip-path="url(#pdbeb1907b4)" style="fill: #0000ff"/>
   </g>
   <g id="patch_16">
    <path d="M 150.763636 169.29 
L 740.166234 169.29 
L 740.166234 162.69 
L 150.763636 162.69 
z
" clip-path="url(#pdbeb1907b4)" style="fill: #0000ff"/>
   </g>
   <g id="patch_17">
    <path d="M 151.72987 169.29 
L 516.966234 169.29 
L 516.966234 162.69 
L 151.72987 162.69 
z
" clip-path="url(#pdbeb1907b4)" style="fill: #0000ff"/>
   </g>
   <g id="patch_18">
    <path d="M 151.72987 169.29 
L 513.101299 169.29 
L 513.101299 162.69 
L 151.72987 162.69 
z
" clip-path="url(#pdbeb1907b4)" style="fill: #0000ff"/>
   </g>
   <g id="patch_19">
    <path d="M 151.72987 169.29 
L 514.067532 169.29 
L 514.067532 162.69 
L 151.72987 162.69 
z
" clip-path="url(#pdbeb1907b4)" style="fill: #0000ff"/>
   </g>
   <g id="patch_20">
    <path d="M 151.72987 169.29 
L 735.335065 169.29 
L 735.335065 162.69 
L 151.72987 162.69 
z
" clip-path="url(#pdbeb1907b4)" style="fill: #0000ff"/>
   </g>
   <g id="patch_21">
    <path d="M 151.72987 169.29 
L 728.571429 169.29 
L 728.571429 162.69 
L 151.72987 162.69 
z
" clip-path="url(#pdbeb1907b4)" style="fill: #0000ff"/>
   </g>
   <g id="patch_22">
    <path d="M 151.72987 169.29 
L 737.267532 169.29 
L 737.267532 162.69 
L 151.72987 162.69 
z
" clip-path="url(#pdbeb1907b4)" style="fill: #0000ff"/>
   </g>
   <g id="patch_23">
    <path d="M 151.72987 169.29 
L 740.166234 169.29 
L 740.166234 162.69 
L 151.72987 162.69 
z
" clip-path="url(#pdbeb1907b4)" style="fill: #0000ff"/>
   </g>
   <g id="patch_24">
    <path d="M 151.72987 169.29 
L 740.166234 169.29 
L 740.166234 162.69 
L 151.72987 162.69 
z
" clip-path="url(#pdbeb1907b4)" style="fill: #0000ff"/>
   </g>
   <g id="patch_25">
    <path d="M 152.696104 169.29 
L 385.558442 169.29 
L 385.558442 162.69 
L 152.696104 162.69 
z
" clip-path="url(#pdbeb1907b4)" style="fill: #0000ff"/>
   </g>
   <g id="patch_26">
    <path d="M 152.696104 169.29 
L 514.067532 169.29 
L 514.067532 162.69 
L 152.696104 162.69 
z
" clip-path="url(#pdbeb1907b4)" style="fill: #0000ff"/>
   </g>
   <g id="patch_27">
    <path d="M 152.696104 169.29 
L 513.101299 169.29 
L 513.101299 162.69 
L 152.696104 162.69 
z
" clip-path="url(#pdbeb1907b4)" style="fill: #0000ff"/>
   </g>
   <g id="patch_28">
    <path d="M 152.696104 169.29 
L 514.067532 169.29 
L 514.067532 162.69 
L 152.696104 162.69 
z
" clip-path="url(#pdbeb1907b4)" style="fill: #0000ff"/>
   </g>
   <g id="patch_29">
    <path d="M 152.696104 169.29 
L 490.877922 169.29 
L 490.877922 162.69 
L 152.696104 162.69 
z
" clip-path="url(#pdbeb1907b4)" style="fill: #0000ff"/>
   </g>
   <g id="patch_30">
    <path d="M 152.696104 169.29 
L 514.067532 169.29 
L 514.067532 162.69 
L 152.696104 162.69 
z
" clip-path="url(#pdbeb1907b4)" style="fill: #0000ff"/>
   </g>
   <g id="patch_31">
    <path d="M 152.696104 169.29 
L 517.932468 169.29 
L 517.932468 162.69 
L 152.696104 162.69 
z
" clip-path="url(#pdbeb1907b4)" style="fill: #0000ff"/>
   </g>
   <g id="patch_32">
    <path d="M 152.696104 169.29 
L 514.067532 169.29 
L 514.067532 162.69 
L 152.696104 162.69 
z
" clip-path="url(#pdbeb1907b4)" style="fill: #0000ff"/>
   </g>
   <g id="patch_33">
    <path d="M 152.696104 169.29 
L 516 169.29 
L 516 162.69 
L 152.696104 162.69 
z
" clip-path="url(#pdbeb1907b4)" style="fill: #0000ff"/>
   </g>
   <g id="patch_34">
    <path d="M 152.696104 169.29 
L 516.966234 169.29 
L 516.966234 162.69 
L 152.696104 162.69 
z
" clip-path="url(#pdbeb1907b4)" style="fill: #0000ff"/>
   </g>
   <g id="patch_35">
    <path d="M 152.696104 169.29 
L 516.966234 169.29 
L 516.966234 162.69 
L 152.696104 162.69 
z
" clip-path="url(#pdbeb1907b4)" style="fill: #0000ff"/>
   </g>
   <g id="patch_36">
    <path d="M 152.696104 169.29 
L 516.966234 169.29 
L 516.966234 162.69 
L 152.696104 162.69 
z
" clip-path="url(#pdbeb1907b4)" style="fill: #0000ff"/>
   </g>
   <g id="patch_37">
    <path d="M 152.696104 169.29 
L 766.254545 169.29 
L 766.254545 162.69 
L 152.696104 162.69 
z
" clip-path="url(#pdbeb1907b4)" style="fill: #0000ff"/>
   </g>
   <g id="patch_38">
    <path d="M 259.948052 169.29 
L 488.945455 169.29 
L 488.945455 162.69 
L 259.948052 162.69 
z
" clip-path="url(#pdbeb1907b4)" style="fill: #0000ff"/>
   </g>
   <g id="patch_39">
    <path d="M 264.779221 169.29 
L 364.301299 169.29 
L 364.301299 162.69 
L 264.779221 162.69 
z
" clip-path="url(#pdbeb1907b4)" style="fill: #0000ff"/>
   </g>
   <g id="patch_40">
    <path d="M 268.644156 169.29 
L 369.132468 169.29 
L 369.132468 162.69 
L 268.644156 162.69 
z
" clip-path="url(#pdbeb1907b4)" style="fill: #0000ff"/>
   </g>
   <g id="patch_41">
    <path d="M 268.644156 169.29 
L 369.132468 169.29 
L 369.132468 162.69 
L 268.644156 162.69 
z
" clip-path="url(#pdbeb1907b4)" style="fill: #0000ff"/>
   </g>
   <g id="patch_42">
    <path d="M 271.542857 169.29 
L 510.202597 169.29 
L 510.202597 162.69 
L 271.542857 162.69 
z
" clip-path="url(#pdbeb1907b4)" style="fill: #0000ff"/>
   </g>
   <g id="patch_43">
    <path d="M 283.137662 169.29 
L 516 169.29 
L 516 162.69 
L 283.137662 162.69 
z
" clip-path="url(#pdbeb1907b4)" style="fill: #0000ff"/>
   </g>
   <g id="patch_44">
    <path d="M 283.137662 169.29 
L 380.727273 169.29 
L 380.727273 162.69 
L 283.137662 162.69 
z
" clip-path="url(#pdbeb1907b4)" style="fill: #0000ff"/>
   </g>
   <g id="patch_45">
    <path d="M 285.07013 169.29 
L 386.524675 169.29 
L 386.524675 162.69 
L 285.07013 162.69 
z
" clip-path="url(#pdbeb1907b4)" style="fill: #0000ff"/>
   </g>
   <g id="patch_46">
    <path d="M 312.124675 169.29 
L 508.27013 169.29 
L 508.27013 162.69 
L 312.124675 162.69 
z
" clip-path="url(#pdbeb1907b4)" style="fill: #0000ff"/>
   </g>
   <g id="patch_47">
    <path d="M 144 152.79 
L 713.111688 152.79 
L 713.111688 146.19 
L 144 146.19 
z
" clip-path="url(#pdbeb1907b4)" style="fill: #0000ff"/>
   </g>
   <g id="patch_48">
    <path d="M 144 152.79 
L 723.74026 152.79 
L 723.74026 146.19 
L 144 146.19 
z
" clip-path="url(#pdbeb1907b4)" style="fill: #0000ff"/>
   </g>
   <g id="patch_49">
    <path d="M 144 152.79 
L 512.135065 152.79 
L 512.135065 146.19 
L 144 146.19 
z
" clip-path="url(#pdbeb1907b4)" style="fill: #0000ff"/>
   </g>
   <g id="patch_50">
    <path d="M 144 152.79 
L 512.135065 152.79 
L 512.135065 146.19 
L 144 146.19 
z
" clip-path="url(#pdbeb1907b4)" style="fill: #0000ff"/>
   </g>
   <g id="patch_51">
    <path d="M 144 152.79 
L 754.65974 152.79 
L 754.65974 146.19 
L 144 146.19 
z
" clip-path="url(#pdbeb1907b4)" style="fill: #0000ff"/>
   </g>
   <g id="patch_52">
    <path d="M 144 152.79 
L 723.74026 152.79 
L 723.74026 146.19 
L 144 146.19 
z
" clip-path="url(#pdbeb1907b4)" style="fill: #0000ff"/>
   </g>
   <g id="patch_53">
    <path d="M 144 152.79 
L 759.490909 152.79 
L 759.490909 146.19 
L 144 146.19 
z
" clip-path="url(#pdbeb1907b4)" style="fill: #0000ff"/>
   </g>
   <g id="patch_54">
    <path d="M 144 152.79 
L 506.337662 152.79 
L 506.337662 146.19 
L 144 146.19 
z
" clip-path="url(#pdbeb1907b4)" style="fill: #0000ff"/>
   </g>
   <g id="patch_55">
    <path d="M 144.966234 152.79 
L 713.111688 152.79 
L 713.111688 146.19 
L 144.966234 146.19 
z
" clip-path="url(#pdbeb1907b4)" style="fill: #0000ff"/>
   </g>
   <g id="patch_56">
    <path d="M 144.966234 152.79 
L 510.202597 152.79 
L 510.202597 146.19 
L 144.966234 146.19 
z
" clip-path="url(#pdbeb1907b4)" style="fill: #0000ff"/>
   </g>
   <g id="patch_57">
    <path d="M 144.966234 152.79 
L 720.841558 152.79 
L 720.841558 146.19 
L 144.966234 146.19 
z
" clip-path="url(#pdbeb1907b4)" style="fill: #0000ff"/>
   </g>
   <g id="patch_58">
    <path d="M 145.932468 152.79 
L 514.067532 152.79 
L 514.067532 146.19 
L 145.932468 146.19 
z
" clip-path="url(#pdbeb1907b4)" style="fill: #0000ff"/>
   </g>
   <g id="patch_59">
    <path d="M 145.932468 152.79 
L 512.135065 152.79 
L 512.135065 146.19 
L 145.932468 146.19 
z
" clip-path="url(#pdbeb1907b4)" style="fill: #0000ff"/>
   </g>
   <g id="patch_60">
    <path d="M 145.932468 152.79 
L 754.65974 152.79 
L 754.65974 146.19 
L 145.932468 146.19 
z
" clip-path="url(#pdbeb1907b4)" style="fill: #0000ff"/>
   </g>
   <g id="patch_61">
    <path d="M 145.932468 152.79 
L 722.774026 152.79 
L 722.774026 146.19 
L 145.932468 146.19 
z
" clip-path="url(#pdbeb1907b4)" style="fill: #0000ff"/>
   </g>
   <g id="patch_62">
    <path d="M 146.898701 152.79 
L 509.236364 152.79 
L 509.236364 146.19 
L 146.898701 146.19 
z
" clip-path="url(#pdbeb1907b4)" style="fill: #0000ff"/>
   </g>
   <g id="patch_63">
    <path d="M 146.898701 152.79 
L 509.236364 152.79 
L 509.236364 146.19 
L 146.898701 146.19 
z
" clip-path="url(#pdbeb1907b4)" style="fill: #0000ff"/>
   </g>
   <g id="patch_64">
    <path d="M 146.898701 152.79 
L 509.236364 152.79 
L 509.236364 146.19 
L 146.898701 146.19 
z
" clip-path="url(#pdbeb1907b4)" style="fill: #0000ff"/>
   </g>
   <g id="patch_65">
    <path d="M 146.898701 152.79 
L 513.101299 152.79 
L 513.101299 146.19 
L 146.898701 146.19 
z
" clip-path="url(#pdbeb1907b4)" style="fill: #0000ff"/>
   </g>
   <g id="patch_66">
    <path d="M 146.898701 152.79 
L 513.101299 152.79 
L 513.101299 146.19 
L 146.898701 146.19 
z
" clip-path="url(#pdbeb1907b4)" style="fill: #0000ff"/>
   </g>
   <g id="patch_67">
    <path d="M 146.898701 152.79 
L 513.101299 152.79 
L 513.101299 146.19 
L 146.898701 146.19 
z
" clip-path="url(#pdbeb1907b4)" style="fill: #0000ff"/>
   </g>
   <g id="patch_68">
    <path d="M 146.898701 152.79 
L 717.942857 152.79 
L 717.942857 146.19 
L 146.898701 146.19 
z
" clip-path="url(#pdbeb1907b4)" style="fill: #0000ff"/>
   </g>
   <g id="patch_69">
    <path d="M 146.898701 152.79 
L 722.774026 152.79 
L 722.774026 146.19 
L 146.898701 146.19 
z
" clip-path="url(#pdbeb1907b4)" style="fill: #0000ff"/>
   </g>
   <g id="patch_70">
    <path d="M 147.864935 152.79 
L 504.405195 152.79 
L 504.405195 146.19 
L 147.864935 146.19 
z
" clip-path="url(#pdbeb1907b4)" style="fill: #0000ff"/>
   </g>
   <g id="patch_71">
    <path d="M 147.864935 152.79 
L 510.202597 152.79 
L 510.202597 146.19 
L 147.864935 146.19 
z
" clip-path="url(#pdbeb1907b4)" style="fill: #0000ff"/>
   </g>
   <g id="patch_72">
    <path d="M 147.864935 152.79 
L 506.337662 152.79 
L 506.337662 146.19 
L 147.864935 146.19 
z
" clip-path="url(#pdbeb1907b4)" style="fill: #0000ff"/>
   </g>
   <g id="patch_73">
    <path d="M 147.864935 152.79 
L 512.135065 152.79 
L 512.135065 146.19 
L 147.864935 146.19 
z
" clip-path="url(#pdbeb1907b4)" style="fill: #0000ff"/>
   </g>
   <g id="patch_74">
    <path d="M 147.864935 152.79 
L 509.236364 152.79 
L 509.236364 146.19 
L 147.864935 146.19 
z
" clip-path="url(#pdbeb1907b4)" style="fill: #0000ff"/>
   </g>
   <g id="patch_75">
    <path d="M 147.864935 152.79 
L 491.844156 152.79 
L 491.844156 146.19 
L 147.864935 146.19 
z
" clip-path="url(#pdbeb1907b4)" style="fill: #0000ff"/>
   </g>
   <g id="patch_76">
    <path d="M 147.864935 152.79 
L 513.101299 152.79 
L 513.101299 146.19 
L 147.864935 146.19 
z
" clip-path="url(#pdbeb1907b4)" style="fill: #0000ff"/>
   </g>
   <g id="patch_77">
    <path d="M 147.864935 152.79 
L 510.202597 152.79 
L 510.202597 146.19 
L 147.864935 146.19 
z
" clip-path="url(#pdbeb1907b4)" style="fill: #0000ff"/>
   </g>
   <g id="patch_78">
    <path d="M 147.864935 152.79 
L 510.202597 152.79 
L 510.202597 146.19 
L 147.864935 146.19 
z
" clip-path="url(#pdbeb1907b4)" style="fill: #0000ff"/>
   </g>
   <g id="patch_79">
    <path d="M 147.864935 152.79 
L 508.27013 152.79 
L 508.27013 146.19 
L 147.864935 146.19 
z
" clip-path="url(#pdbeb1907b4)" style="fill: #0000ff"/>
   </g>
   <g id="patch_80">
    <path d="M 147.864935 152.79 
L 473.485714 152.79 
L 473.485714 146.19 
L 147.864935 146.19 
z
" clip-path="url(#pdbeb1907b4)" style="fill: #0000ff"/>
   </g>
   <g id="patch_81">
    <path d="M 147.864935 152.79 
L 722.774026 152.79 
L 722.774026 146.19 
L 147.864935 146.19 
z
" clip-path="url(#pdbeb1907b4)" style="fill: #0000ff"/>
   </g>
   <g id="patch_82">
    <path d="M 147.864935 152.79 
L 718.909091 152.79 
L 718.909091 146.19 
L 147.864935 146.19 
z
" clip-path="url(#pdbeb1907b4)" style="fill: #0000ff"/>
   </g>
   <g id="patch_83">
    <path d="M 147.864935 152.79 
L 486.046753 152.79 
L 486.046753 146.19 
L 147.864935 146.19 
z
" clip-path="url(#pdbeb1907b4)" style="fill: #0000ff"/>
   </g>
   <g id="patch_84">
    <path d="M 147.864935 152.79 
L 721.807792 152.79 
L 721.807792 146.19 
L 147.864935 146.19 
z
" clip-path="url(#pdbeb1907b4)" style="fill: #0000ff"/>
   </g>
   <g id="patch_85">
    <path d="M 255.116883 152.79 
L 362.368831 152.79 
L 362.368831 146.19 
L 255.116883 146.19 
z
" clip-path="url(#pdbeb1907b4)" style="fill: #0000ff"/>
   </g>
   <g id="patch_86">
    <path d="M 255.116883 152.79 
L 362.368831 152.79 
L 362.368831 146.19 
L 255.116883 146.19 
z
" clip-path="url(#pdbeb1907b4)" style="fill: #0000ff"/>
   </g>
   <g id="patch_87">
    <path d="M 256.083117 152.79 
L 342.077922 152.79 
L 342.077922 146.19 
L 256.083117 146.19 
z
" clip-path="url(#pdbeb1907b4)" style="fill: #0000ff"/>
   </g>
   <g id="patch_88">
    <path d="M 276.374026 152.79 
L 505.371429 152.79 
L 505.371429 146.19 
L 276.374026 146.19 
z
" clip-path="url(#pdbeb1907b4)" style="fill: #0000ff"/>
   </g>
   <g id="patch_89">
    <path d="M 277.34026 152.79 
L 505.371429 152.79 
L 505.371429 146.19 
L 277.34026 146.19 
z
" clip-path="url(#pdbeb1907b4)" style="fill: #0000ff"/>
   </g>
   <g id="patch_90">
    <path d="M 277.34026 152.79 
L 379.761039 152.79 
L 379.761039 146.19 
L 277.34026 146.19 
z
" clip-path="url(#pdbeb1907b4)" style="fill: #0000ff"/>
   </g>
   <g id="patch_91">
    <path d="M 298.597403 152.79 
L 492.81039 152.79 
L 492.81039 146.19 
L 298.597403 146.19 
z
" clip-path="url(#pdbeb1907b4)" style="fill: #0000ff"/>
   </g>
   <g id="patch_92">
    <path d="M 304.394805 152.79 
L 504.405195 152.79 
L 504.405195 146.19 
L 304.394805 146.19 
z
" clip-path="url(#pdbeb1907b4)" style="fill: #0000ff"/>
   </g>
   <g id="patch_93">
    <path d="M 144 136.29 
L 733.402597 136.29 
L 733.402597 129.69 
L 144 129.69 
z
" clip-path="url(#pdbeb1907b4)" style="fill: #0000ff"/>
   </g>
   <g id="patch_94">
    <path d="M 144 136.29 
L 374.92987 136.29 
L 374.92987 129.69 
L 144 129.69 
z
" clip-path="url(#pdbeb1907b4)" style="fill: #0000ff"/>
   </g>
   <g id="patch_95">
    <path d="M 144 136.29 
L 510.202597 136.29 
L 510.202597 129.69 
L 144 129.69 
z
" clip-path="url(#pdbeb1907b4)" style="fill: #0000ff"/>
   </g>
   <g id="patch_96">
    <path d="M 144 136.29 
L 724.706494 136.29 
L 724.706494 129.69 
L 144 129.69 
z
" clip-path="url(#pdbeb1907b4)" style="fill: #0000ff"/>
   </g>
   <g id="patch_97">
    <path d="M 144 136.29 
L 733.402597 136.29 
L 733.402597 129.69 
L 144 129.69 
z
" clip-path="url(#pdbeb1907b4)" style="fill: #0000ff"/>
   </g>
   <g id="patch_98">
    <path d="M 144 136.29 
L 733.402597 136.29 
L 733.402597 129.69 
L 144 129.69 
z
" clip-path="url(#pdbeb1907b4)" style="fill: #0000ff"/>
   </g>
   <g id="patch_99">
    <path d="M 144 136.29 
L 733.402597 136.29 
L 733.402597 129.69 
L 144 129.69 
z
" clip-path="url(#pdbeb1907b4)" style="fill: #0000ff"/>
   </g>
   <g id="patch_100">
    <path d="M 145.932468 136.29 
L 510.202597 136.29 
L 510.202597 129.69 
L 145.932468 129.69 
z
" clip-path="url(#pdbeb1907b4)" style="fill: #0000ff"/>
   </g>
   <g id="patch_101">
    <path d="M 147.864935 136.29 
L 510.202597 136.29 
L 510.202597 129.69 
L 147.864935 129.69 
z
" clip-path="url(#pdbeb1907b4)" style="fill: #0000ff"/>
   </g>
   <g id="patch_102">
    <path d="M 147.864935 136.29 
L 508.27013 136.29 
L 508.27013 129.69 
L 147.864935 129.69 
z
" clip-path="url(#pdbeb1907b4)" style="fill: #0000ff"/>
   </g>
   <g id="patch_103">
    <path d="M 147.864935 136.29 
L 508.27013 136.29 
L 508.27013 129.69 
L 147.864935 129.69 
z
" clip-path="url(#pdbeb1907b4)" style="fill: #0000ff"/>
   </g>
   <g id="patch_104">
    <path d="M 147.864935 136.29 
L 510.202597 136.29 
L 510.202597 129.69 
L 147.864935 129.69 
z
" clip-path="url(#pdbeb1907b4)" style="fill: #0000ff"/>
   </g>
   <g id="patch_105">
    <path d="M 147.864935 136.29 
L 510.202597 136.29 
L 510.202597 129.69 
L 147.864935 129.69 
z
" clip-path="url(#pdbeb1907b4)" style="fill: #0000ff"/>
   </g>
   <g id="patch_106">
    <path d="M 147.864935 136.29 
L 510.202597 136.29 
L 510.202597 129.69 
L 147.864935 129.69 
z
" clip-path="url(#pdbeb1907b4)" style="fill: #0000ff"/>
   </g>
   <g id="patch_107">
    <path d="M 148.831169 136.29 
L 511.168831 136.29 
L 511.168831 129.69 
L 148.831169 129.69 
z
" clip-path="url(#pdbeb1907b4)" style="fill: #0000ff"/>
   </g>
   <g id="patch_108">
    <path d="M 148.831169 136.29 
L 507.303896 136.29 
L 507.303896 129.69 
L 148.831169 129.69 
z
" clip-path="url(#pdbeb1907b4)" style="fill: #0000ff"/>
   </g>
   <g id="patch_109">
    <path d="M 148.831169 136.29 
L 732.436364 136.29 
L 732.436364 129.69 
L 148.831169 129.69 
z
" clip-path="url(#pdbeb1907b4)" style="fill: #0000ff"/>
   </g>
   <g id="patch_110">
    <path d="M 148.831169 136.29 
L 668.664935 136.29 
L 668.664935 129.69 
L 148.831169 129.69 
z
" clip-path="url(#pdbeb1907b4)" style="fill: #0000ff"/>
   </g>
   <g id="patch_111">
    <path d="M 148.831169 136.29 
L 702.483117 136.29 
L 702.483117 129.69 
L 148.831169 129.69 
z
" clip-path="url(#pdbeb1907b4)" style="fill: #0000ff"/>
   </g>
   <g id="patch_112">
    <path d="M 148.831169 136.29 
L 733.402597 136.29 
L 733.402597 129.69 
L 148.831169 129.69 
z
" clip-path="url(#pdbeb1907b4)" style="fill: #0000ff"/>
   </g>
   <g id="patch_113">
    <path d="M 148.831169 136.29 
L 733.402597 136.29 
L 733.402597 129.69 
L 148.831169 129.69 
z
" clip-path="url(#pdbeb1907b4)" style="fill: #0000ff"/>
   </g>
   <g id="patch_114">
    <path d="M 149.797403 136.29 
L 723.74026 136.29 
L 723.74026 129.69 
L 149.797403 129.69 
z
" clip-path="url(#pdbeb1907b4)" style="fill: #0000ff"/>
   </g>
   <g id="patch_115">
    <path d="M 149.797403 136.29 
L 713.111688 136.29 
L 713.111688 129.69 
L 149.797403 129.69 
z
" clip-path="url(#pdbeb1907b4)" style="fill: #0000ff"/>
   </g>
   <g id="patch_116">
    <path d="M 149.797403 136.29 
L 508.27013 136.29 
L 508.27013 129.69 
L 149.797403 129.69 
z
" clip-path="url(#pdbeb1907b4)" style="fill: #0000ff"/>
   </g>
   <g id="patch_117">
    <path d="M 149.797403 136.29 
L 504.405195 136.29 
L 504.405195 129.69 
L 149.797403 129.69 
z
" clip-path="url(#pdbeb1907b4)" style="fill: #0000ff"/>
   </g>
   <g id="patch_118">
    <path d="M 149.797403 136.29 
L 504.405195 136.29 
L 504.405195 129.69 
L 149.797403 129.69 
z
" clip-path="url(#pdbeb1907b4)" style="fill: #0000ff"/>
   </g>
   <g id="patch_119">
    <path d="M 149.797403 136.29 
L 508.27013 136.29 
L 508.27013 129.69 
L 149.797403 129.69 
z
" clip-path="url(#pdbeb1907b4)" style="fill: #0000ff"/>
   </g>
   <g id="patch_120">
    <path d="M 149.797403 136.29 
L 485.080519 136.29 
L 485.080519 129.69 
L 149.797403 129.69 
z
" clip-path="url(#pdbeb1907b4)" style="fill: #0000ff"/>
   </g>
   <g id="patch_121">
    <path d="M 149.797403 136.29 
L 508.27013 136.29 
L 508.27013 129.69 
L 149.797403 129.69 
z
" clip-path="url(#pdbeb1907b4)" style="fill: #0000ff"/>
   </g>
   <g id="patch_122">
    <path d="M 149.797403 136.29 
L 512.135065 136.29 
L 512.135065 129.69 
L 149.797403 129.69 
z
" clip-path="url(#pdbeb1907b4)" style="fill: #0000ff"/>
   </g>
   <g id="patch_123">
    <path d="M 149.797403 136.29 
L 508.27013 136.29 
L 508.27013 129.69 
L 149.797403 129.69 
z
" clip-path="url(#pdbeb1907b4)" style="fill: #0000ff"/>
   </g>
   <g id="patch_124">
    <path d="M 149.797403 136.29 
L 508.27013 136.29 
L 508.27013 129.69 
L 149.797403 129.69 
z
" clip-path="url(#pdbeb1907b4)" style="fill: #0000ff"/>
   </g>
   <g id="patch_125">
    <path d="M 149.797403 136.29 
L 510.202597 136.29 
L 510.202597 129.69 
L 149.797403 129.69 
z
" clip-path="url(#pdbeb1907b4)" style="fill: #0000ff"/>
   </g>
   <g id="patch_126">
    <path d="M 149.797403 136.29 
L 724.706494 136.29 
L 724.706494 129.69 
L 149.797403 129.69 
z
" clip-path="url(#pdbeb1907b4)" style="fill: #0000ff"/>
   </g>
   <g id="patch_127">
    <path d="M 149.797403 136.29 
L 380.727273 136.29 
L 380.727273 129.69 
L 149.797403 129.69 
z
" clip-path="url(#pdbeb1907b4)" style="fill: #0000ff"/>
   </g>
   <g id="patch_128">
    <path d="M 149.797403 136.29 
L 482.181818 136.29 
L 482.181818 129.69 
L 149.797403 129.69 
z
" clip-path="url(#pdbeb1907b4)" style="fill: #0000ff"/>
   </g>
   <g id="patch_129">
    <path d="M 149.797403 136.29 
L 384.592208 136.29 
L 384.592208 129.69 
L 149.797403 129.69 
z
" clip-path="url(#pdbeb1907b4)" style="fill: #0000ff"/>
   </g>
   <g id="patch_130">
    <path d="M 149.797403 136.29 
L 504.405195 136.29 
L 504.405195 129.69 
L 149.797403 129.69 
z
" clip-path="url(#pdbeb1907b4)" style="fill: #0000ff"/>
   </g>
   <g id="patch_131">
    <path d="M 149.797403 136.29 
L 733.402597 136.29 
L 733.402597 129.69 
L 149.797403 129.69 
z
" clip-path="url(#pdbeb1907b4)" style="fill: #0000ff"/>
   </g>
   <g id="patch_132">
    <path d="M 149.797403 136.29 
L 503.438961 136.29 
L 503.438961 129.69 
L 149.797403 129.69 
z
" clip-path="url(#pdbeb1907b4)" style="fill: #0000ff"/>
   </g>
   <g id="patch_133">
    <path d="M 231.927273 136.29 
L 358.503896 136.29 
L 358.503896 129.69 
L 231.927273 129.69 
z
" clip-path="url(#pdbeb1907b4)" style="fill: #0000ff"/>
   </g>
   <g id="patch_134">
    <path d="M 261.880519 136.29 
L 385.558442 136.29 
L 385.558442 129.69 
L 261.880519 129.69 
z
" clip-path="url(#pdbeb1907b4)" style="fill: #0000ff"/>
   </g>
   <g id="patch_135">
    <path d="M 261.880519 136.29 
L 363.335065 136.29 
L 363.335065 129.69 
L 261.880519 129.69 
z
" clip-path="url(#pdbeb1907b4)" style="fill: #0000ff"/>
   </g>
   <g id="patch_136">
    <path d="M 281.205195 136.29 
L 409.714286 136.29 
L 409.714286 129.69 
L 281.205195 129.69 
z
" clip-path="url(#pdbeb1907b4)" style="fill: #0000ff"/>
   </g>
   <g id="patch_137">
    <path d="M 734.368831 133.2375 
L 762.38961 133.2375 
L 762.38961 132.7425 
L 734.368831 132.7425 
z
" clip-path="url(#pdbeb1907b4)" style="fill: #0000ff"/>
   </g>
   <g id="patch_138">
    <path d="M 144 119.79 
L 698.618182 119.79 
L 698.618182 113.19 
L 144 113.19 
z
" clip-path="url(#pdbeb1907b4)" style="fill: #0000ff"/>
   </g>
   <g id="patch_139">
    <path d="M 144 119.79 
L 701.516883 119.79 
L 701.516883 113.19 
L 144 113.19 
z
" clip-path="url(#pdbeb1907b4)" style="fill: #0000ff"/>
   </g>
   <g id="patch_140">
    <path d="M 144 119.79 
L 483.148052 119.79 
L 483.148052 113.19 
L 144 113.19 
z
" clip-path="url(#pdbeb1907b4)" style="fill: #0000ff"/>
   </g>
   <g id="patch_141">
    <path d="M 144 119.79 
L 483.148052 119.79 
L 483.148052 113.19 
L 144 113.19 
z
" clip-path="url(#pdbeb1907b4)" style="fill: #0000ff"/>
   </g>
   <g id="patch_142">
    <path d="M 144 119.79 
L 725.672727 119.79 
L 725.672727 113.19 
L 144 113.19 
z
" clip-path="url(#pdbeb1907b4)" style="fill: #0000ff"/>
   </g>
   <g id="patch_143">
    <path d="M 144 119.79 
L 698.618182 119.79 
L 698.618182 113.19 
L 144 113.19 
z
" clip-path="url(#pdbeb1907b4)" style="fill: #0000ff"/>
   </g>
   <g id="patch_144">
    <path d="M 144 119.79 
L 729.537662 119.79 
L 729.537662 113.19 
L 144 113.19 
z
" clip-path="url(#pdbeb1907b4)" style="fill: #0000ff"/>
   </g>
   <g id="patch_145">
    <path d="M 144 119.79 
L 349.807792 119.79 
L 349.807792 113.19 
L 144 113.19 
z
" clip-path="url(#pdbeb1907b4)" style="fill: #0000ff"/>
   </g>
   <g id="patch_146">
    <path d="M 144 119.79 
L 350.774026 119.79 
L 350.774026 113.19 
L 144 113.19 
z
" clip-path="url(#pdbeb1907b4)" style="fill: #0000ff"/>
   </g>
   <g id="patch_147">
    <path d="M 144 119.79 
L 478.316883 119.79 
L 478.316883 113.19 
L 144 113.19 
z
" clip-path="url(#pdbeb1907b4)" style="fill: #0000ff"/>
   </g>
   <g id="patch_148">
    <path d="M 144.966234 119.79 
L 483.148052 119.79 
L 483.148052 113.19 
L 144.966234 113.19 
z
" clip-path="url(#pdbeb1907b4)" style="fill: #0000ff"/>
   </g>
   <g id="patch_149">
    <path d="M 144.966234 119.79 
L 478.316883 119.79 
L 478.316883 113.19 
L 144.966234 113.19 
z
" clip-path="url(#pdbeb1907b4)" style="fill: #0000ff"/>
   </g>
   <g id="patch_150">
    <path d="M 144.966234 119.79 
L 478.316883 119.79 
L 478.316883 113.19 
L 144.966234 113.19 
z
" clip-path="url(#pdbeb1907b4)" style="fill: #0000ff"/>
   </g>
   <g id="patch_151">
    <path d="M 145.932468 119.79 
L 485.080519 119.79 
L 485.080519 113.19 
L 145.932468 113.19 
z
" clip-path="url(#pdbeb1907b4)" style="fill: #0000ff"/>
   </g>
   <g id="patch_152">
    <path d="M 145.932468 119.79 
L 725.672727 119.79 
L 725.672727 113.19 
L 145.932468 113.19 
z
" clip-path="url(#pdbeb1907b4)" style="fill: #0000ff"/>
   </g>
   <g id="patch_153">
    <path d="M 145.932468 119.79 
L 697.651948 119.79 
L 697.651948 113.19 
L 145.932468 113.19 
z
" clip-path="url(#pdbeb1907b4)" style="fill: #0000ff"/>
   </g>
   <g id="patch_154">
    <path d="M 146.898701 119.79 
L 732.436364 119.79 
L 732.436364 113.19 
L 146.898701 113.19 
z
" clip-path="url(#pdbeb1907b4)" style="fill: #0000ff"/>
   </g>
   <g id="patch_155">
    <path d="M 146.898701 119.79 
L 475.418182 119.79 
L 475.418182 113.19 
L 146.898701 113.19 
z
" clip-path="url(#pdbeb1907b4)" style="fill: #0000ff"/>
   </g>
   <g id="patch_156">
    <path d="M 146.898701 119.79 
L 480.249351 119.79 
L 480.249351 113.19 
L 146.898701 113.19 
z
" clip-path="url(#pdbeb1907b4)" style="fill: #0000ff"/>
   </g>
   <g id="patch_157">
    <path d="M 146.898701 119.79 
L 480.249351 119.79 
L 480.249351 113.19 
L 146.898701 113.19 
z
" clip-path="url(#pdbeb1907b4)" style="fill: #0000ff"/>
   </g>
   <g id="patch_158">
    <path d="M 146.898701 119.79 
L 480.249351 119.79 
L 480.249351 113.19 
L 146.898701 113.19 
z
" clip-path="url(#pdbeb1907b4)" style="fill: #0000ff"/>
   </g>
   <g id="patch_159">
    <path d="M 146.898701 119.79 
L 480.249351 119.79 
L 480.249351 113.19 
L 146.898701 113.19 
z
" clip-path="url(#pdbeb1907b4)" style="fill: #0000ff"/>
   </g>
   <g id="patch_160">
    <path d="M 146.898701 119.79 
L 481.215584 119.79 
L 481.215584 113.19 
L 146.898701 113.19 
z
" clip-path="url(#pdbeb1907b4)" style="fill: #0000ff"/>
   </g>
   <g id="patch_161">
    <path d="M 146.898701 119.79 
L 484.114286 119.79 
L 484.114286 113.19 
L 146.898701 113.19 
z
" clip-path="url(#pdbeb1907b4)" style="fill: #0000ff"/>
   </g>
   <g id="patch_162">
    <path d="M 146.898701 119.79 
L 484.114286 119.79 
L 484.114286 113.19 
L 146.898701 113.19 
z
" clip-path="url(#pdbeb1907b4)" style="fill: #0000ff"/>
   </g>
   <g id="patch_163">
    <path d="M 146.898701 119.79 
L 484.114286 119.79 
L 484.114286 113.19 
L 146.898701 113.19 
z
" clip-path="url(#pdbeb1907b4)" style="fill: #0000ff"/>
   </g>
   <g id="patch_164">
    <path d="M 146.898701 119.79 
L 682.192208 119.79 
L 682.192208 113.19 
L 146.898701 113.19 
z
" clip-path="url(#pdbeb1907b4)" style="fill: #0000ff"/>
   </g>
   <g id="patch_165">
    <path d="M 146.898701 119.79 
L 717.942857 119.79 
L 717.942857 113.19 
L 146.898701 113.19 
z
" clip-path="url(#pdbeb1907b4)" style="fill: #0000ff"/>
   </g>
   <g id="patch_166">
    <path d="M 146.898701 119.79 
L 685.090909 119.79 
L 685.090909 113.19 
L 146.898701 113.19 
z
" clip-path="url(#pdbeb1907b4)" style="fill: #0000ff"/>
   </g>
   <g id="patch_167">
    <path d="M 146.898701 119.79 
L 697.651948 119.79 
L 697.651948 113.19 
L 146.898701 113.19 
z
" clip-path="url(#pdbeb1907b4)" style="fill: #0000ff"/>
   </g>
   <g id="patch_168">
    <path d="M 147.864935 119.79 
L 476.384416 119.79 
L 476.384416 113.19 
L 147.864935 113.19 
z
" clip-path="url(#pdbeb1907b4)" style="fill: #0000ff"/>
   </g>
   <g id="patch_169">
    <path d="M 147.864935 119.79 
L 475.418182 119.79 
L 475.418182 113.19 
L 147.864935 113.19 
z
" clip-path="url(#pdbeb1907b4)" style="fill: #0000ff"/>
   </g>
   <g id="patch_170">
    <path d="M 147.864935 119.79 
L 320.820779 119.79 
L 320.820779 113.19 
L 147.864935 113.19 
z
" clip-path="url(#pdbeb1907b4)" style="fill: #0000ff"/>
   </g>
   <g id="patch_171">
    <path d="M 147.864935 119.79 
L 481.215584 119.79 
L 481.215584 113.19 
L 147.864935 113.19 
z
" clip-path="url(#pdbeb1907b4)" style="fill: #0000ff"/>
   </g>
   <g id="patch_172">
    <path d="M 147.864935 119.79 
L 478.316883 119.79 
L 478.316883 113.19 
L 147.864935 113.19 
z
" clip-path="url(#pdbeb1907b4)" style="fill: #0000ff"/>
   </g>
   <g id="patch_173">
    <path d="M 147.864935 119.79 
L 480.249351 119.79 
L 480.249351 113.19 
L 147.864935 113.19 
z
" clip-path="url(#pdbeb1907b4)" style="fill: #0000ff"/>
   </g>
   <g id="patch_174">
    <path d="M 147.864935 119.79 
L 478.316883 119.79 
L 478.316883 113.19 
L 147.864935 113.19 
z
" clip-path="url(#pdbeb1907b4)" style="fill: #0000ff"/>
   </g>
   <g id="patch_175">
    <path d="M 147.864935 119.79 
L 484.114286 119.79 
L 484.114286 113.19 
L 147.864935 113.19 
z
" clip-path="url(#pdbeb1907b4)" style="fill: #0000ff"/>
   </g>
   <g id="patch_176">
    <path d="M 147.864935 119.79 
L 481.215584 119.79 
L 481.215584 113.19 
L 147.864935 113.19 
z
" clip-path="url(#pdbeb1907b4)" style="fill: #0000ff"/>
   </g>
   <g id="patch_177">
    <path d="M 147.864935 119.79 
L 481.215584 119.79 
L 481.215584 113.19 
L 147.864935 113.19 
z
" clip-path="url(#pdbeb1907b4)" style="fill: #0000ff"/>
   </g>
   <g id="patch_178">
    <path d="M 147.864935 119.79 
L 479.283117 119.79 
L 479.283117 113.19 
L 147.864935 113.19 
z
" clip-path="url(#pdbeb1907b4)" style="fill: #0000ff"/>
   </g>
   <g id="patch_179">
    <path d="M 147.864935 119.79 
L 690.888312 119.79 
L 690.888312 113.19 
L 147.864935 113.19 
z
" clip-path="url(#pdbeb1907b4)" style="fill: #0000ff"/>
   </g>
   <g id="patch_180">
    <path d="M 147.864935 119.79 
L 455.127273 119.79 
L 455.127273 113.19 
L 147.864935 113.19 
z
" clip-path="url(#pdbeb1907b4)" style="fill: #0000ff"/>
   </g>
   <g id="patch_181">
    <path d="M 147.864935 119.79 
L 713.111688 119.79 
L 713.111688 113.19 
L 147.864935 113.19 
z
" clip-path="url(#pdbeb1907b4)" style="fill: #0000ff"/>
   </g>
   <g id="patch_182">
    <path d="M 232.893506 119.79 
L 481.215584 119.79 
L 481.215584 113.19 
L 232.893506 113.19 
z
" clip-path="url(#pdbeb1907b4)" style="fill: #0000ff"/>
   </g>
   <g id="patch_183">
    <path d="M 232.893506 119.79 
L 477.350649 119.79 
L 477.350649 113.19 
L 232.893506 113.19 
z
" clip-path="url(#pdbeb1907b4)" style="fill: #0000ff"/>
   </g>
   <g id="patch_184">
    <path d="M 273.475325 119.79 
L 482.181818 119.79 
L 482.181818 113.19 
L 273.475325 113.19 
z
" clip-path="url(#pdbeb1907b4)" style="fill: #0000ff"/>
   </g>
   <g id="patch_185">
    <path d="M 583.636364 119.79 
L 733.402597 119.79 
L 733.402597 113.19 
L 583.636364 113.19 
z
" clip-path="url(#pdbeb1907b4)" style="fill: #0000ff"/>
   </g>
   <g id="patch_186">
    <path d="M 607.792208 119.79 
L 703.449351 119.79 
L 703.449351 113.19 
L 607.792208 113.19 
z
" clip-path="url(#pdbeb1907b4)" style="fill: #0000ff"/>
   </g>
   <g id="patch_187">
    <path d="M 607.792208 119.79 
L 715.044156 119.79 
L 715.044156 113.19 
L 607.792208 113.19 
z
" clip-path="url(#pdbeb1907b4)" style="fill: #0000ff"/>
   </g>
   <g id="patch_188">
    <path d="M 144 100.2375 
L 160.425974 100.2375 
L 160.425974 99.7425 
L 144 99.7425 
z
" clip-path="url(#pdbeb1907b4)" style="fill: #0000ff"/>
   </g>
   <g id="patch_189">
    <path d="M 161.392208 103.29 
L 755.625974 103.29 
L 755.625974 96.69 
L 161.392208 96.69 
z
" clip-path="url(#pdbeb1907b4)" style="fill: #0000ff"/>
   </g>
   <g id="patch_190">
    <path d="M 170.088312 103.29 
L 748.862338 103.29 
L 748.862338 96.69 
L 170.088312 96.69 
z
" clip-path="url(#pdbeb1907b4)" style="fill: #0000ff"/>
   </g>
   <g id="patch_191">
    <path d="M 170.088312 103.29 
L 736.301299 103.29 
L 736.301299 96.69 
L 170.088312 96.69 
z
" clip-path="url(#pdbeb1907b4)" style="fill: #0000ff"/>
   </g>
   <g id="patch_192">
    <path d="M 170.088312 103.29 
L 770.119481 103.29 
L 770.119481 96.69 
L 170.088312 96.69 
z
" clip-path="url(#pdbeb1907b4)" style="fill: #0000ff"/>
   </g>
   <g id="patch_193">
    <path d="M 170.088312 103.29 
L 534.358442 103.29 
L 534.358442 96.69 
L 170.088312 96.69 
z
" clip-path="url(#pdbeb1907b4)" style="fill: #0000ff"/>
   </g>
   <g id="patch_194">
    <path d="M 170.088312 103.29 
L 532.425974 103.29 
L 532.425974 96.69 
L 170.088312 96.69 
z
" clip-path="url(#pdbeb1907b4)" style="fill: #0000ff"/>
   </g>
   <g id="patch_195">
    <path d="M 170.088312 103.29 
L 534.358442 103.29 
L 534.358442 96.69 
L 170.088312 96.69 
z
" clip-path="url(#pdbeb1907b4)" style="fill: #0000ff"/>
   </g>
   <g id="patch_196">
    <path d="M 170.088312 103.29 
L 769.153247 103.29 
L 769.153247 96.69 
L 170.088312 96.69 
z
" clip-path="url(#pdbeb1907b4)" style="fill: #0000ff"/>
   </g>
   <g id="patch_197">
    <path d="M 170.088312 103.29 
L 773.984416 103.29 
L 773.984416 96.69 
L 170.088312 96.69 
z
" clip-path="url(#pdbeb1907b4)" style="fill: #0000ff"/>
   </g>
   <g id="patch_198">
    <path d="M 170.088312 103.29 
L 404.883117 103.29 
L 404.883117 96.69 
L 170.088312 96.69 
z
" clip-path="url(#pdbeb1907b4)" style="fill: #0000ff"/>
   </g>
   <g id="patch_199">
    <path d="M 170.088312 103.29 
L 773.018182 103.29 
L 773.018182 96.69 
L 170.088312 96.69 
z
" clip-path="url(#pdbeb1907b4)" style="fill: #0000ff"/>
   </g>
   <g id="patch_200">
    <path d="M 171.054545 103.29 
L 403.916883 103.29 
L 403.916883 96.69 
L 171.054545 96.69 
z
" clip-path="url(#pdbeb1907b4)" style="fill: #0000ff"/>
   </g>
   <g id="patch_201">
    <path d="M 171.054545 103.29 
L 535.324675 103.29 
L 535.324675 96.69 
L 171.054545 96.69 
z
" clip-path="url(#pdbeb1907b4)" style="fill: #0000ff"/>
   </g>
   <g id="patch_202">
    <path d="M 171.054545 103.29 
L 531.45974 103.29 
L 531.45974 96.69 
L 171.054545 96.69 
z
" clip-path="url(#pdbeb1907b4)" style="fill: #0000ff"/>
   </g>
   <g id="patch_203">
    <path d="M 171.054545 103.29 
L 531.45974 103.29 
L 531.45974 96.69 
L 171.054545 96.69 
z
" clip-path="url(#pdbeb1907b4)" style="fill: #0000ff"/>
   </g>
   <g id="patch_204">
    <path d="M 171.054545 103.29 
L 532.425974 103.29 
L 532.425974 96.69 
L 171.054545 96.69 
z
" clip-path="url(#pdbeb1907b4)" style="fill: #0000ff"/>
   </g>
   <g id="patch_205">
    <path d="M 171.054545 103.29 
L 534.358442 103.29 
L 534.358442 96.69 
L 171.054545 96.69 
z
" clip-path="url(#pdbeb1907b4)" style="fill: #0000ff"/>
   </g>
   <g id="patch_206">
    <path d="M 171.054545 103.29 
L 535.324675 103.29 
L 535.324675 96.69 
L 171.054545 96.69 
z
" clip-path="url(#pdbeb1907b4)" style="fill: #0000ff"/>
   </g>
   <g id="patch_207">
    <path d="M 171.054545 103.29 
L 535.324675 103.29 
L 535.324675 96.69 
L 171.054545 96.69 
z
" clip-path="url(#pdbeb1907b4)" style="fill: #0000ff"/>
   </g>
   <g id="patch_208">
    <path d="M 171.054545 103.29 
L 535.324675 103.29 
L 535.324675 96.69 
L 171.054545 96.69 
z
" clip-path="url(#pdbeb1907b4)" style="fill: #0000ff"/>
   </g>
   <g id="patch_209">
    <path d="M 171.054545 103.29 
L 758.524675 103.29 
L 758.524675 96.69 
L 171.054545 96.69 
z
" clip-path="url(#pdbeb1907b4)" style="fill: #0000ff"/>
   </g>
   <g id="patch_210">
    <path d="M 171.054545 103.29 
L 394.254545 103.29 
L 394.254545 96.69 
L 171.054545 96.69 
z
" clip-path="url(#pdbeb1907b4)" style="fill: #0000ff"/>
   </g>
   <g id="patch_211">
    <path d="M 172.020779 103.29 
L 528.561039 103.29 
L 528.561039 96.69 
L 172.020779 96.69 
z
" clip-path="url(#pdbeb1907b4)" style="fill: #0000ff"/>
   </g>
   <g id="patch_212">
    <path d="M 172.020779 103.29 
L 536.290909 103.29 
L 536.290909 96.69 
L 172.020779 96.69 
z
" clip-path="url(#pdbeb1907b4)" style="fill: #0000ff"/>
   </g>
   <g id="patch_213">
    <path d="M 172.020779 103.29 
L 771.085714 103.29 
L 771.085714 96.69 
L 172.020779 96.69 
z
" clip-path="url(#pdbeb1907b4)" style="fill: #0000ff"/>
   </g>
   <g id="patch_214">
    <path d="M 172.020779 103.29 
L 754.65974 103.29 
L 754.65974 96.69 
L 172.020779 96.69 
z
" clip-path="url(#pdbeb1907b4)" style="fill: #0000ff"/>
   </g>
   <g id="patch_215">
    <path d="M 172.020779 103.29 
L 756.592208 103.29 
L 756.592208 96.69 
L 172.020779 96.69 
z
" clip-path="url(#pdbeb1907b4)" style="fill: #0000ff"/>
   </g>
   <g id="patch_216">
    <path d="M 172.020779 103.29 
L 756.592208 103.29 
L 756.592208 96.69 
L 172.020779 96.69 
z
" clip-path="url(#pdbeb1907b4)" style="fill: #0000ff"/>
   </g>
   <g id="patch_217">
    <path d="M 172.987013 103.29 
L 532.425974 103.29 
L 532.425974 96.69 
L 172.987013 96.69 
z
" clip-path="url(#pdbeb1907b4)" style="fill: #0000ff"/>
   </g>
   <g id="patch_218">
    <path d="M 172.987013 103.29 
L 528.561039 103.29 
L 528.561039 96.69 
L 172.987013 96.69 
z
" clip-path="url(#pdbeb1907b4)" style="fill: #0000ff"/>
   </g>
   <g id="patch_219">
    <path d="M 172.987013 103.29 
L 531.45974 103.29 
L 531.45974 96.69 
L 172.987013 96.69 
z
" clip-path="url(#pdbeb1907b4)" style="fill: #0000ff"/>
   </g>
   <g id="patch_220">
    <path d="M 172.987013 103.29 
L 532.425974 103.29 
L 532.425974 96.69 
L 172.987013 96.69 
z
" clip-path="url(#pdbeb1907b4)" style="fill: #0000ff"/>
   </g>
   <g id="patch_221">
    <path d="M 172.987013 103.29 
L 535.324675 103.29 
L 535.324675 96.69 
L 172.987013 96.69 
z
" clip-path="url(#pdbeb1907b4)" style="fill: #0000ff"/>
   </g>
   <g id="patch_222">
    <path d="M 172.987013 103.29 
L 532.425974 103.29 
L 532.425974 96.69 
L 172.987013 96.69 
z
" clip-path="url(#pdbeb1907b4)" style="fill: #0000ff"/>
   </g>
   <g id="patch_223">
    <path d="M 172.987013 103.29 
L 736.301299 103.29 
L 736.301299 96.69 
L 172.987013 96.69 
z
" clip-path="url(#pdbeb1907b4)" style="fill: #0000ff"/>
   </g>
   <g id="patch_224">
    <path d="M 172.987013 103.29 
L 760.457143 103.29 
L 760.457143 96.69 
L 172.987013 96.69 
z
" clip-path="url(#pdbeb1907b4)" style="fill: #0000ff"/>
   </g>
   <g id="patch_225">
    <path d="M 172.987013 103.29 
L 527.594805 103.29 
L 527.594805 96.69 
L 172.987013 96.69 
z
" clip-path="url(#pdbeb1907b4)" style="fill: #0000ff"/>
   </g>
   <g id="patch_226">
    <path d="M 173.953247 103.29 
L 531.45974 103.29 
L 531.45974 96.69 
L 173.953247 96.69 
z
" clip-path="url(#pdbeb1907b4)" style="fill: #0000ff"/>
   </g>
   <g id="patch_227">
    <path d="M 258.981818 103.29 
L 382.65974 103.29 
L 382.65974 96.69 
L 258.981818 96.69 
z
" clip-path="url(#pdbeb1907b4)" style="fill: #0000ff"/>
   </g>
   <g id="patch_228">
    <path d="M 283.137662 103.29 
L 379.761039 103.29 
L 379.761039 96.69 
L 283.137662 96.69 
z
" clip-path="url(#pdbeb1907b4)" style="fill: #0000ff"/>
   </g>
   <g id="patch_229">
    <path d="M 285.07013 103.29 
L 504.405195 103.29 
L 504.405195 96.69 
L 285.07013 96.69 
z
" clip-path="url(#pdbeb1907b4)" style="fill: #0000ff"/>
   </g>
   <g id="patch_230">
    <path d="M 287.002597 103.29 
L 387.490909 103.29 
L 387.490909 96.69 
L 287.002597 96.69 
z
" clip-path="url(#pdbeb1907b4)" style="fill: #0000ff"/>
   </g>
   <g id="patch_231">
    <path d="M 287.002597 103.29 
L 387.490909 103.29 
L 387.490909 96.69 
L 287.002597 96.69 
z
" clip-path="url(#pdbeb1907b4)" style="fill: #0000ff"/>
   </g>
   <g id="patch_232">
    <path d="M 304.394805 103.29 
L 528.561039 103.29 
L 528.561039 96.69 
L 304.394805 96.69 
z
" clip-path="url(#pdbeb1907b4)" style="fill: #0000ff"/>
   </g>
   <g id="patch_233">
    <path d="M 333.381818 103.29 
L 526.628571 103.29 
L 526.628571 96.69 
L 333.381818 96.69 
z
" clip-path="url(#pdbeb1907b4)" style="fill: #0000ff"/>
   </g>
   <g id="patch_234">
    <path d="M 452.228571 103.29 
L 548.851948 103.29 
L 548.851948 96.69 
L 452.228571 96.69 
z
" clip-path="url(#pdbeb1907b4)" style="fill: #0000ff"/>
   </g>
   <g id="patch_235">
    <path d="M 660.935065 103.29 
L 760.457143 103.29 
L 760.457143 96.69 
L 660.935065 96.69 
z
" clip-path="url(#pdbeb1907b4)" style="fill: #0000ff"/>
   </g>
   <g id="patch_236">
    <path d="M 774.950649 100.2375 
L 774.950649 100.2375 
L 774.950649 99.7425 
L 774.950649 99.7425 
z
" clip-path="url(#pdbeb1907b4)" style="fill: #0000ff"/>
   </g>
   <g id="patch_237">
    <path d="M 144 83.7375 
L 158.493506 83.7375 
L 158.493506 83.2425 
L 144 83.2425 
z
" clip-path="url(#pdbeb1907b4)" style="fill: #0000ff"/>
   </g>
   <g id="patch_238">
    <path d="M 159.45974 86.79 
L 924.716883 86.79 
L 924.716883 80.19 
L 159.45974 80.19 
z
" clip-path="url(#pdbeb1907b4)" style="fill: #0000ff"/>
   </g>
   <g id="patch_239">
    <path d="M 163.324675 86.79 
L 562.379221 86.79 
L 562.379221 80.19 
L 163.324675 80.19 
z
" clip-path="url(#pdbeb1907b4)" style="fill: #0000ff"/>
   </g>
   <g id="patch_240">
    <path d="M 163.324675 86.79 
L 532.425974 86.79 
L 532.425974 80.19 
L 163.324675 80.19 
z
" clip-path="url(#pdbeb1907b4)" style="fill: #0000ff"/>
   </g>
   <g id="patch_241">
    <path d="M 163.324675 86.79 
L 562.379221 86.79 
L 562.379221 80.19 
L 163.324675 80.19 
z
" clip-path="url(#pdbeb1907b4)" style="fill: #0000ff"/>
   </g>
   <g id="patch_242">
    <path d="M 163.324675 86.79 
L 562.379221 86.79 
L 562.379221 80.19 
L 163.324675 80.19 
z
" clip-path="url(#pdbeb1907b4)" style="fill: #0000ff"/>
   </g>
   <g id="patch_243">
    <path d="M 164.290909 86.79 
L 558.514286 86.79 
L 558.514286 80.19 
L 164.290909 80.19 
z
" clip-path="url(#pdbeb1907b4)" style="fill: #0000ff"/>
   </g>
   <g id="patch_244">
    <path d="M 164.290909 86.79 
L 558.514286 86.79 
L 558.514286 80.19 
L 164.290909 80.19 
z
" clip-path="url(#pdbeb1907b4)" style="fill: #0000ff"/>
   </g>
   <g id="patch_245">
    <path d="M 165.257143 86.79 
L 558.514286 86.79 
L 558.514286 80.19 
L 165.257143 80.19 
z
" clip-path="url(#pdbeb1907b4)" style="fill: #0000ff"/>
   </g>
   <g id="patch_246">
    <path d="M 165.257143 86.79 
L 555.615584 86.79 
L 555.615584 80.19 
L 165.257143 80.19 
z
" clip-path="url(#pdbeb1907b4)" style="fill: #0000ff"/>
   </g>
   <g id="patch_247">
    <path d="M 206.805195 86.79 
L 559.480519 86.79 
L 559.480519 80.19 
L 206.805195 80.19 
z
" clip-path="url(#pdbeb1907b4)" style="fill: #0000ff"/>
   </g>
   <g id="patch_248">
    <path d="M 207.771429 86.79 
L 548.851948 86.79 
L 548.851948 80.19 
L 207.771429 80.19 
z
" clip-path="url(#pdbeb1907b4)" style="fill: #0000ff"/>
   </g>
   <g id="patch_249">
    <path d="M 212.602597 86.79 
L 533.392208 86.79 
L 533.392208 80.19 
L 212.602597 80.19 
z
" clip-path="url(#pdbeb1907b4)" style="fill: #0000ff"/>
   </g>
   <g id="patch_250">
    <path d="M 214.535065 86.79 
L 622.285714 86.79 
L 622.285714 80.19 
L 214.535065 80.19 
z
" clip-path="url(#pdbeb1907b4)" style="fill: #0000ff"/>
   </g>
   <g id="patch_251">
    <path d="M 216.467532 86.79 
L 553.683117 86.79 
L 553.683117 80.19 
L 216.467532 80.19 
z
" clip-path="url(#pdbeb1907b4)" style="fill: #0000ff"/>
   </g>
   <g id="patch_252">
    <path d="M 216.467532 86.79 
L 562.379221 86.79 
L 562.379221 80.19 
L 216.467532 80.19 
z
" clip-path="url(#pdbeb1907b4)" style="fill: #0000ff"/>
   </g>
   <g id="patch_253">
    <path d="M 216.467532 86.79 
L 558.514286 86.79 
L 558.514286 80.19 
L 216.467532 80.19 
z
" clip-path="url(#pdbeb1907b4)" style="fill: #0000ff"/>
   </g>
   <g id="patch_254">
    <path d="M 216.467532 86.79 
L 558.514286 86.79 
L 558.514286 80.19 
L 216.467532 80.19 
z
" clip-path="url(#pdbeb1907b4)" style="fill: #0000ff"/>
   </g>
   <g id="patch_255">
    <path d="M 216.467532 86.79 
L 772.051948 86.79 
L 772.051948 80.19 
L 216.467532 80.19 
z
" clip-path="url(#pdbeb1907b4)" style="fill: #0000ff"/>
   </g>
   <g id="patch_256">
    <path d="M 216.467532 86.79 
L 558.514286 86.79 
L 558.514286 80.19 
L 216.467532 80.19 
z
" clip-path="url(#pdbeb1907b4)" style="fill: #0000ff"/>
   </g>
   <g id="patch_257">
    <path d="M 216.467532 86.79 
L 788.477922 86.79 
L 788.477922 80.19 
L 216.467532 80.19 
z
" clip-path="url(#pdbeb1907b4)" style="fill: #0000ff"/>
   </g>
   <g id="patch_258">
    <path d="M 217.433766 86.79 
L 562.379221 86.79 
L 562.379221 80.19 
L 217.433766 80.19 
z
" clip-path="url(#pdbeb1907b4)" style="fill: #0000ff"/>
   </g>
   <g id="patch_259">
    <path d="M 218.4 86.79 
L 548.851948 86.79 
L 548.851948 80.19 
L 218.4 80.19 
z
" clip-path="url(#pdbeb1907b4)" style="fill: #0000ff"/>
   </g>
   <g id="patch_260">
    <path d="M 223.231169 86.79 
L 548.851948 86.79 
L 548.851948 80.19 
L 223.231169 80.19 
z
" clip-path="url(#pdbeb1907b4)" style="fill: #0000ff"/>
   </g>
   <g id="patch_261">
    <path d="M 223.231169 86.79 
L 558.514286 86.79 
L 558.514286 80.19 
L 223.231169 80.19 
z
" clip-path="url(#pdbeb1907b4)" style="fill: #0000ff"/>
   </g>
   <g id="patch_262">
    <path d="M 223.231169 86.79 
L 558.514286 86.79 
L 558.514286 80.19 
L 223.231169 80.19 
z
" clip-path="url(#pdbeb1907b4)" style="fill: #0000ff"/>
   </g>
   <g id="patch_263">
    <path d="M 223.231169 86.79 
L 558.514286 86.79 
L 558.514286 80.19 
L 223.231169 80.19 
z
" clip-path="url(#pdbeb1907b4)" style="fill: #0000ff"/>
   </g>
   <g id="patch_264">
    <path d="M 232.893506 86.79 
L 548.851948 86.79 
L 548.851948 80.19 
L 232.893506 80.19 
z
" clip-path="url(#pdbeb1907b4)" style="fill: #0000ff"/>
   </g>
   <g id="patch_265">
    <path d="M 234.825974 86.79 
L 564.311688 86.79 
L 564.311688 80.19 
L 234.825974 80.19 
z
" clip-path="url(#pdbeb1907b4)" style="fill: #0000ff"/>
   </g>
   <g id="patch_266">
    <path d="M 315.98961 86.79 
L 558.514286 86.79 
L 558.514286 80.19 
L 315.98961 80.19 
z
" clip-path="url(#pdbeb1907b4)" style="fill: #0000ff"/>
   </g>
   <g id="patch_267">
    <path d="M 446.431169 86.79 
L 548.851948 86.79 
L 548.851948 80.19 
L 446.431169 80.19 
z
" clip-path="url(#pdbeb1907b4)" style="fill: #0000ff"/>
   </g>
   <g id="patch_268">
    <path d="M 704.415584 86.79 
L 855.148052 86.79 
L 855.148052 80.19 
L 704.415584 80.19 
z
" clip-path="url(#pdbeb1907b4)" style="fill: #0000ff"/>
   </g>
   <g id="patch_269">
    <path d="M 925.683117 83.7375 
L 994.285714 83.7375 
L 994.285714 83.2425 
L 925.683117 83.2425 
z
" clip-path="url(#pdbeb1907b4)" style="fill: #0000ff"/>
   </g>
   <g id="patch_270">
    <path d="M 144 70.29 
L 476.384416 70.29 
L 476.384416 63.69 
L 144 63.69 
z
" clip-path="url(#pdbeb1907b4)" style="fill: #0000ff"/>
   </g>
   <g id="patch_271">
    <path d="M 205.838961 70.29 
L 473.485714 70.29 
L 473.485714 63.69 
L 205.838961 63.69 
z
" clip-path="url(#pdbeb1907b4)" style="fill: #0000ff"/>
   </g>
   <g id="patch_272">
    <path d="M 292.8 70.29 
L 470.587013 70.29 
L 470.587013 63.69 
L 292.8 63.69 
z
" clip-path="url(#pdbeb1907b4)" style="fill: #0000ff"/>
   </g>
   <g id="patch_273">
    <path d="M 329.516883 70.29 
L 470.587013 70.29 
L 470.587013 63.69 
L 329.516883 63.69 
z
" clip-path="url(#pdbeb1907b4)" style="fill: #0000ff"/>
   </g>
   <g id="patch_274">
    <path d="M 477.350649 67.2375 
L 734.368831 67.2375 
L 734.368831 66.7425 
L 477.350649 66.7425 
z
" clip-path="url(#pdbeb1907b4)" style="fill: #0000ff"/>
   </g>
   <g id="patch_275">
    <path d="M 144 50.7375 
L 144 50.7375 
L 144 50.2425 
L 144 50.2425 
z
" clip-path="url(#pdbeb1907b4)" style="fill: #0000ff"/>
   </g>
   <g id="patch_276">
    <path d="M 144.966234 53.79 
L 582.67013 53.79 
L 582.67013 47.19 
L 144.966234 47.19 
z
" clip-path="url(#pdbeb1907b4)" style="fill: #0000ff"/>
   </g>
   <g id="patch_277">
    <path d="M 235.792208 53.79 
L 469.620779 53.79 
L 469.620779 47.19 
L 235.792208 47.19 
z
" clip-path="url(#pdbeb1907b4)" style="fill: #0000ff"/>
   </g>
   <g id="patch_278">
    <path d="M 287.968831 53.79 
L 447.397403 53.79 
L 447.397403 47.19 
L 287.968831 47.19 
z
" clip-path="url(#pdbeb1907b4)" style="fill: #0000ff"/>
   </g>
   <g id="patch_279">
    <path d="M 294.732468 53.79 
L 468.654545 53.79 
L 468.654545 47.19 
L 294.732468 47.19 
z
" clip-path="url(#pdbeb1907b4)" style="fill: #0000ff"/>
   </g>
   <g id="patch_280">
    <path d="M 294.732468 53.79 
L 469.620779 53.79 
L 469.620779 47.19 
L 294.732468 47.19 
z
" clip-path="url(#pdbeb1907b4)" style="fill: #0000ff"/>
   </g>
   <g id="patch_281">
    <path d="M 294.732468 53.79 
L 447.397403 53.79 
L 447.397403 47.19 
L 294.732468 47.19 
z
" clip-path="url(#pdbeb1907b4)" style="fill: #0000ff"/>
   </g>
   <g id="patch_282">
    <path d="M 294.732468 53.79 
L 468.654545 53.79 
L 468.654545 47.19 
L 294.732468 47.19 
z
" clip-path="url(#pdbeb1907b4)" style="fill: #0000ff"/>
   </g>
   <g id="patch_283">
    <path d="M 294.732468 53.79 
L 439.667532 53.79 
L 439.667532 47.19 
L 294.732468 47.19 
z
" clip-path="url(#pdbeb1907b4)" style="fill: #0000ff"/>
   </g>
   <g id="patch_284">
    <path d="M 294.732468 53.79 
L 469.620779 53.79 
L 469.620779 47.19 
L 294.732468 47.19 
z
" clip-path="url(#pdbeb1907b4)" style="fill: #0000ff"/>
   </g>
   <g id="patch_285">
    <path d="M 295.698701 53.79 
L 454.161039 53.79 
L 454.161039 47.19 
L 295.698701 47.19 
z
" clip-path="url(#pdbeb1907b4)" style="fill: #0000ff"/>
   </g>
   <g id="patch_286">
    <path d="M 295.698701 53.79 
L 469.620779 53.79 
L 469.620779 47.19 
L 295.698701 47.19 
z
" clip-path="url(#pdbeb1907b4)" style="fill: #0000ff"/>
   </g>
   <g id="patch_287">
    <path d="M 295.698701 53.79 
L 469.620779 53.79 
L 469.620779 47.19 
L 295.698701 47.19 
z
" clip-path="url(#pdbeb1907b4)" style="fill: #0000ff"/>
   </g>
   <g id="patch_288">
    <path d="M 296.664935 53.79 
L 444.498701 53.79 
L 444.498701 47.19 
L 296.664935 47.19 
z
" clip-path="url(#pdbeb1907b4)" style="fill: #0000ff"/>
   </g>
   <g id="patch_289">
    <path d="M 296.664935 53.79 
L 439.667532 53.79 
L 439.667532 47.19 
L 296.664935 47.19 
z
" clip-path="url(#pdbeb1907b4)" style="fill: #0000ff"/>
   </g>
   <g id="patch_290">
    <path d="M 296.664935 53.79 
L 479.283117 53.79 
L 479.283117 47.19 
L 296.664935 47.19 
z
" clip-path="url(#pdbeb1907b4)" style="fill: #0000ff"/>
   </g>
   <g id="patch_291">
    <path d="M 296.664935 53.79 
L 474.451948 53.79 
L 474.451948 47.19 
L 296.664935 47.19 
z
" clip-path="url(#pdbeb1907b4)" style="fill: #0000ff"/>
   </g>
   <g id="patch_292">
    <path d="M 298.597403 53.79 
L 468.654545 53.79 
L 468.654545 47.19 
L 298.597403 47.19 
z
" clip-path="url(#pdbeb1907b4)" style="fill: #0000ff"/>
   </g>
   <g id="patch_293">
    <path d="M 298.597403 53.79 
L 480.249351 53.79 
L 480.249351 47.19 
L 298.597403 47.19 
z
" clip-path="url(#pdbeb1907b4)" style="fill: #0000ff"/>
   </g>
   <g id="patch_294">
    <path d="M 360.436364 53.79 
L 439.667532 53.79 
L 439.667532 47.19 
L 360.436364 47.19 
z
" clip-path="url(#pdbeb1907b4)" style="fill: #0000ff"/>
   </g>
   <g id="patch_295">
    <path d="M 360.436364 53.79 
L 469.620779 53.79 
L 469.620779 47.19 
L 360.436364 47.19 
z
" clip-path="url(#pdbeb1907b4)" style="fill: #0000ff"/>
   </g>
   <g id="patch_296">
    <path d="M 370.098701 53.79 
L 447.397403 53.79 
L 447.397403 47.19 
L 370.098701 47.19 
z
" clip-path="url(#pdbeb1907b4)" style="fill: #0000ff"/>
   </g>
   <g id="patch_297">
    <path d="M 370.098701 53.79 
L 439.667532 53.79 
L 439.667532 47.19 
L 370.098701 47.19 
z
" clip-path="url(#pdbeb1907b4)" style="fill: #0000ff"/>
   </g>
   <g id="patch_298">
    <path d="M 583.636364 50.7375 
L 704.415584 50.7375 
L 704.415584 50.2425 
L 583.636364 50.2425 
z
" clip-path="url(#pdbeb1907b4)" style="fill: #0000ff"/>
   </g>
   <g id="patch_299">
    <path d="M 144 34.2375 
L 177.818182 34.2375 
L 177.818182 33.7425 
L 144 33.7425 
z
" clip-path="url(#pdbeb1907b4)" style="fill: #0000ff"/>
   </g>
   <g id="patch_300">
    <path d="M 178.784416 37.29 
L 405.849351 37.29 
L 405.849351 30.69 
L 178.784416 30.69 
z
" clip-path="url(#pdbeb1907b4)" style="fill: #0000ff"/>
   </g>
   <g id="patch_301">
    <path d="M 220.332468 37.29 
L 408.748052 37.29 
L 408.748052 30.69 
L 220.332468 30.69 
z
" clip-path="url(#pdbeb1907b4)" style="fill: #0000ff"/>
   </g>
   <g id="patch_302">
    <path d="M 225.163636 37.29 
L 407.781818 37.29 
L 407.781818 30.69 
L 225.163636 30.69 
z
" clip-path="url(#pdbeb1907b4)" style="fill: #0000ff"/>
   </g>
   <g id="patch_303">
    <path d="M 245.454545 37.29 
L 407.781818 37.29 
L 407.781818 30.69 
L 245.454545 30.69 
z
" clip-path="url(#pdbeb1907b4)" style="fill: #0000ff"/>
   </g>
   <g id="patch_304">
    <path d="M 248.353247 37.29 
L 407.781818 37.29 
L 407.781818 30.69 
L 248.353247 30.69 
z
" clip-path="url(#pdbeb1907b4)" style="fill: #0000ff"/>
   </g>
   <g id="patch_305">
    <path d="M 248.353247 37.29 
L 407.781818 37.29 
L 407.781818 30.69 
L 248.353247 30.69 
z
" clip-path="url(#pdbeb1907b4)" style="fill: #0000ff"/>
   </g>
   <g id="patch_306">
    <path d="M 248.353247 37.29 
L 407.781818 37.29 
L 407.781818 30.69 
L 248.353247 30.69 
z
" clip-path="url(#pdbeb1907b4)" style="fill: #0000ff"/>
   </g>
   <g id="patch_307">
    <path d="M 279.272727 37.29 
L 407.781818 37.29 
L 407.781818 30.69 
L 279.272727 30.69 
z
" clip-path="url(#pdbeb1907b4)" style="fill: #0000ff"/>
   </g>
   <g id="patch_308">
    <path d="M 315.023377 37.29 
L 406.815584 37.29 
L 406.815584 30.69 
L 315.023377 30.69 
z
" clip-path="url(#pdbeb1907b4)" style="fill: #0000ff"/>
   </g>
   <g id="patch_309">
    <path d="M 358.503896 37.29 
L 408.748052 37.29 
L 408.748052 30.69 
L 358.503896 30.69 
z
" clip-path="url(#pdbeb1907b4)" style="fill: #0000ff"/>
   </g>
   <g id="patch_310">
    <path d="M 365.267532 37.29 
L 404.883117 37.29 
L 404.883117 30.69 
L 365.267532 30.69 
z
" clip-path="url(#pdbeb1907b4)" style="fill: #0000ff"/>
   </g>
   <g id="patch_311">
    <path d="M 409.714286 34.2375 
L 582.67013 34.2375 
L 582.67013 33.7425 
L 409.714286 33.7425 
z
" clip-path="url(#pdbeb1907b4)" style="fill: #0000ff"/>
   </g>
   <g id="matplotlib.axis_1">
    <g id="xtick_1">
     <g id="line2d_1">
      <defs>
       <path id="mccae997a18" d="M 0 0 
L 0 3.5 
" style="stroke: #000000; stroke-width: 0.8"/>
      </defs>
      <g>
       <use xlink:href="#mccae997a18" x="336.280519" y="176.22" style="stroke: #000000; stroke-width: 0.8"/>
      </g>
     </g>
     <g id="text_1">
      <!-- 200 -->
      <g transform="translate(326.736769 190.818438) scale(0.1 -0.1)">
       <defs>
        <path id="DejaVuSans-32" d="M 1228 531 
L 3431 531 
L 3431 0 
L 469 0 
L 469 531 
Q 828 903 1448 1529 
Q 2069 2156 2228 2338 
Q 2531 2678 2651 2914 
Q 2772 3150 2772 3378 
Q 2772 3750 2511 3984 
Q 2250 4219 1831 4219 
Q 1534 4219 1204 4116 
Q 875 4013 500 3803 
L 500 4441 
Q 881 4594 1212 4672 
Q 1544 4750 1819 4750 
Q 2544 4750 2975 4387 
Q 3406 4025 3406 3419 
Q 3406 3131 3298 2873 
Q 3191 2616 2906 2266 
Q 2828 2175 2409 1742 
Q 1991 1309 1228 531 
z
" transform="scale(0.015625)"/>
        <path id="DejaVuSans-30" d="M 2034 4250 
Q 1547 4250 1301 3770 
Q 1056 3291 1056 2328 
Q 1056 1369 1301 889 
Q 1547 409 2034 409 
Q 2525 409 2770 889 
Q 3016 1369 3016 2328 
Q 3016 3291 2770 3770 
Q 2525 4250 2034 4250 
z
M 2034 4750 
Q 2819 4750 3233 4129 
Q 3647 3509 3647 2328 
Q 3647 1150 3233 529 
Q 2819 -91 2034 -91 
Q 1250 -91 836 529 
Q 422 1150 422 2328 
Q 422 3509 836 4129 
Q 1250 4750 2034 4750 
z
" transform="scale(0.015625)"/>
       </defs>
       <use xlink:href="#DejaVuSans-32"/>
       <use xlink:href="#DejaVuSans-30" x="63.623047"/>
       <use xlink:href="#DejaVuSans-30" x="127.246094"/>
      </g>
     </g>
    </g>
    <g id="xtick_2">
     <g id="line2d_2">
      <g>
       <use xlink:href="#mccae997a18" x="529.527273" y="176.22" style="stroke: #000000; stroke-width: 0.8"/>
      </g>
     </g>
     <g id="text_2">
      <!-- 400 -->
      <g transform="translate(519.983523 190.818438) scale(0.1 -0.1)">
       <defs>
        <path id="DejaVuSans-34" d="M 2419 4116 
L 825 1625 
L 2419 1625 
L 2419 4116 
z
M 2253 4666 
L 3047 4666 
L 3047 1625 
L 3713 1625 
L 3713 1100 
L 3047 1100 
L 3047 0 
L 2419 0 
L 2419 1100 
L 313 1100 
L 313 1709 
L 2253 4666 
z
" transform="scale(0.015625)"/>
       </defs>
       <use xlink:href="#DejaVuSans-34"/>
       <use xlink:href="#DejaVuSans-30" x="63.623047"/>
       <use xlink:href="#DejaVuSans-30" x="127.246094"/>
      </g>
     </g>
    </g>
    <g id="xtick_3">
     <g id="line2d_3">
      <g>
       <use xlink:href="#mccae997a18" x="722.774026" y="176.22" style="stroke: #000000; stroke-width: 0.8"/>
      </g>
     </g>
     <g id="text_3">
      <!-- 600 -->
      <g transform="translate(713.230276 190.818438) scale(0.1 -0.1)">
       <defs>
        <path id="DejaVuSans-36" d="M 2113 2584 
Q 1688 2584 1439 2293 
Q 1191 2003 1191 1497 
Q 1191 994 1439 701 
Q 1688 409 2113 409 
Q 2538 409 2786 701 
Q 3034 994 3034 1497 
Q 3034 2003 2786 2293 
Q 2538 2584 2113 2584 
z
M 3366 4563 
L 3366 3988 
Q 3128 4100 2886 4159 
Q 2644 4219 2406 4219 
Q 1781 4219 1451 3797 
Q 1122 3375 1075 2522 
Q 1259 2794 1537 2939 
Q 1816 3084 2150 3084 
Q 2853 3084 3261 2657 
Q 3669 2231 3669 1497 
Q 3669 778 3244 343 
Q 2819 -91 2113 -91 
Q 1303 -91 875 529 
Q 447 1150 447 2328 
Q 447 3434 972 4092 
Q 1497 4750 2381 4750 
Q 2619 4750 2861 4703 
Q 3103 4656 3366 4563 
z
" transform="scale(0.015625)"/>
       </defs>
       <use xlink:href="#DejaVuSans-36"/>
       <use xlink:href="#DejaVuSans-30" x="63.623047"/>
       <use xlink:href="#DejaVuSans-30" x="127.246094"/>
      </g>
     </g>
    </g>
    <g id="xtick_4">
     <g id="line2d_4">
      <g>
       <use xlink:href="#mccae997a18" x="916.020779" y="176.22" style="stroke: #000000; stroke-width: 0.8"/>
      </g>
     </g>
     <g id="text_4">
      <!-- 800 -->
      <g transform="translate(906.477029 190.818438) scale(0.1 -0.1)">
       <defs>
        <path id="DejaVuSans-38" d="M 2034 2216 
Q 1584 2216 1326 1975 
Q 1069 1734 1069 1313 
Q 1069 891 1326 650 
Q 1584 409 2034 409 
Q 2484 409 2743 651 
Q 3003 894 3003 1313 
Q 3003 1734 2745 1975 
Q 2488 2216 2034 2216 
z
M 1403 2484 
Q 997 2584 770 2862 
Q 544 3141 544 3541 
Q 544 4100 942 4425 
Q 1341 4750 2034 4750 
Q 2731 4750 3128 4425 
Q 3525 4100 3525 3541 
Q 3525 3141 3298 2862 
Q 3072 2584 2669 2484 
Q 3125 2378 3379 2068 
Q 3634 1759 3634 1313 
Q 3634 634 3220 271 
Q 2806 -91 2034 -91 
Q 1263 -91 848 271 
Q 434 634 434 1313 
Q 434 1759 690 2068 
Q 947 2378 1403 2484 
z
M 1172 3481 
Q 1172 3119 1398 2916 
Q 1625 2713 2034 2713 
Q 2441 2713 2670 2916 
Q 2900 3119 2900 3481 
Q 2900 3844 2670 4047 
Q 2441 4250 2034 4250 
Q 1625 4250 1398 4047 
Q 1172 3844 1172 3481 
z
" transform="scale(0.015625)"/>
       </defs>
       <use xlink:href="#DejaVuSans-38"/>
       <use xlink:href="#DejaVuSans-30" x="63.623047"/>
       <use xlink:href="#DejaVuSans-30" x="127.246094"/>
      </g>
     </g>
    </g>
    <g id="text_5">
     <!-- Residual -->
     <g transform="translate(569.284375 204.496563) scale(0.1 -0.1)">
      <defs>
       <path id="DejaVuSans-52" d="M 2841 2188 
Q 3044 2119 3236 1894 
Q 3428 1669 3622 1275 
L 4263 0 
L 3584 0 
L 2988 1197 
Q 2756 1666 2539 1819 
Q 2322 1972 1947 1972 
L 1259 1972 
L 1259 0 
L 628 0 
L 628 4666 
L 2053 4666 
Q 2853 4666 3247 4331 
Q 3641 3997 3641 3322 
Q 3641 2881 3436 2590 
Q 3231 2300 2841 2188 
z
M 1259 4147 
L 1259 2491 
L 2053 2491 
Q 2509 2491 2742 2702 
Q 2975 2913 2975 3322 
Q 2975 3731 2742 3939 
Q 2509 4147 2053 4147 
L 1259 4147 
z
" transform="scale(0.015625)"/>
       <path id="DejaVuSans-65" d="M 3597 1894 
L 3597 1613 
L 953 1613 
Q 991 1019 1311 708 
Q 1631 397 2203 397 
Q 2534 397 2845 478 
Q 3156 559 3463 722 
L 3463 178 
Q 3153 47 2828 -22 
Q 2503 -91 2169 -91 
Q 1331 -91 842 396 
Q 353 884 353 1716 
Q 353 2575 817 3079 
Q 1281 3584 2069 3584 
Q 2775 3584 3186 3129 
Q 3597 2675 3597 1894 
z
M 3022 2063 
Q 3016 2534 2758 2815 
Q 2500 3097 2075 3097 
Q 1594 3097 1305 2825 
Q 1016 2553 972 2059 
L 3022 2063 
z
" transform="scale(0.015625)"/>
       <path id="DejaVuSans-73" d="M 2834 3397 
L 2834 2853 
Q 2591 2978 2328 3040 
Q 2066 3103 1784 3103 
Q 1356 3103 1142 2972 
Q 928 2841 928 2578 
Q 928 2378 1081 2264 
Q 1234 2150 1697 2047 
L 1894 2003 
Q 2506 1872 2764 1633 
Q 3022 1394 3022 966 
Q 3022 478 2636 193 
Q 2250 -91 1575 -91 
Q 1294 -91 989 -36 
Q 684 19 347 128 
L 347 722 
Q 666 556 975 473 
Q 1284 391 1588 391 
Q 1994 391 2212 530 
Q 2431 669 2431 922 
Q 2431 1156 2273 1281 
Q 2116 1406 1581 1522 
L 1381 1569 
Q 847 1681 609 1914 
Q 372 2147 372 2553 
Q 372 3047 722 3315 
Q 1072 3584 1716 3584 
Q 2034 3584 2315 3537 
Q 2597 3491 2834 3397 
z
" transform="scale(0.015625)"/>
       <path id="DejaVuSans-69" d="M 603 3500 
L 1178 3500 
L 1178 0 
L 603 0 
L 603 3500 
z
M 603 4863 
L 1178 4863 
L 1178 4134 
L 603 4134 
L 603 4863 
z
" transform="scale(0.015625)"/>
       <path id="DejaVuSans-64" d="M 2906 2969 
L 2906 4863 
L 3481 4863 
L 3481 0 
L 2906 0 
L 2906 525 
Q 2725 213 2448 61 
Q 2172 -91 1784 -91 
Q 1150 -91 751 415 
Q 353 922 353 1747 
Q 353 2572 751 3078 
Q 1150 3584 1784 3584 
Q 2172 3584 2448 3432 
Q 2725 3281 2906 2969 
z
M 947 1747 
Q 947 1113 1208 752 
Q 1469 391 1925 391 
Q 2381 391 2643 752 
Q 2906 1113 2906 1747 
Q 2906 2381 2643 2742 
Q 2381 3103 1925 3103 
Q 1469 3103 1208 2742 
Q 947 2381 947 1747 
z
" transform="scale(0.015625)"/>
       <path id="DejaVuSans-75" d="M 544 1381 
L 544 3500 
L 1119 3500 
L 1119 1403 
Q 1119 906 1312 657 
Q 1506 409 1894 409 
Q 2359 409 2629 706 
Q 2900 1003 2900 1516 
L 2900 3500 
L 3475 3500 
L 3475 0 
L 2900 0 
L 2900 538 
Q 2691 219 2414 64 
Q 2138 -91 1772 -91 
Q 1169 -91 856 284 
Q 544 659 544 1381 
z
M 1991 3584 
L 1991 3584 
z
" transform="scale(0.015625)"/>
       <path id="DejaVuSans-61" d="M 2194 1759 
Q 1497 1759 1228 1600 
Q 959 1441 959 1056 
Q 959 750 1161 570 
Q 1363 391 1709 391 
Q 2188 391 2477 730 
Q 2766 1069 2766 1631 
L 2766 1759 
L 2194 1759 
z
M 3341 1997 
L 3341 0 
L 2766 0 
L 2766 531 
Q 2569 213 2275 61 
Q 1981 -91 1556 -91 
Q 1019 -91 701 211 
Q 384 513 384 1019 
Q 384 1609 779 1909 
Q 1175 2209 1959 2209 
L 2766 2209 
L 2766 2266 
Q 2766 2663 2505 2880 
Q 2244 3097 1772 3097 
Q 1472 3097 1187 3025 
Q 903 2953 641 2809 
L 641 3341 
Q 956 3463 1253 3523 
Q 1550 3584 1831 3584 
Q 2591 3584 2966 3190 
Q 3341 2797 3341 1997 
z
" transform="scale(0.015625)"/>
       <path id="DejaVuSans-6c" d="M 603 4863 
L 1178 4863 
L 1178 0 
L 603 0 
L 603 4863 
z
" transform="scale(0.015625)"/>
      </defs>
      <use xlink:href="#DejaVuSans-52"/>
      <use xlink:href="#DejaVuSans-65" x="64.982422"/>
      <use xlink:href="#DejaVuSans-73" x="126.505859"/>
      <use xlink:href="#DejaVuSans-69" x="178.605469"/>
      <use xlink:href="#DejaVuSans-64" x="206.388672"/>
      <use xlink:href="#DejaVuSans-75" x="269.865234"/>
      <use xlink:href="#DejaVuSans-61" x="333.244141"/>
      <use xlink:href="#DejaVuSans-6c" x="394.523438"/>
     </g>
    </g>
   </g>
   <g id="matplotlib.axis_2">
    <g id="ytick_1">
     <g id="line2d_5">
      <defs>
       <path id="mb54ad31240" d="M 0 0 
L -3.5 0 
" style="stroke: #000000; stroke-width: 0.8"/>
      </defs>
      <g>
       <use xlink:href="#mb54ad31240" x="144" y="165.99" style="stroke: #000000; stroke-width: 0.8"/>
      </g>
     </g>
     <g id="text_6">
      <!-- 1.A.33.1.1 -->
      <g transform="translate(85.809375 169.789219) scale(0.1 -0.1)">
       <defs>
        <path id="DejaVuSans-31" d="M 794 531 
L 1825 531 
L 1825 4091 
L 703 3866 
L 703 4441 
L 1819 4666 
L 2450 4666 
L 2450 531 
L 3481 531 
L 3481 0 
L 794 0 
L 794 531 
z
" transform="scale(0.015625)"/>
        <path id="DejaVuSans-2e" d="M 684 794 
L 1344 794 
L 1344 0 
L 684 0 
L 684 794 
z
" transform="scale(0.015625)"/>
        <path id="DejaVuSans-41" d="M 2188 4044 
L 1331 1722 
L 3047 1722 
L 2188 4044 
z
M 1831 4666 
L 2547 4666 
L 4325 0 
L 3669 0 
L 3244 1197 
L 1141 1197 
L 716 0 
L 50 0 
L 1831 4666 
z
" transform="scale(0.015625)"/>
        <path id="DejaVuSans-33" d="M 2597 2516 
Q 3050 2419 3304 2112 
Q 3559 1806 3559 1356 
Q 3559 666 3084 287 
Q 2609 -91 1734 -91 
Q 1441 -91 1130 -33 
Q 819 25 488 141 
L 488 750 
Q 750 597 1062 519 
Q 1375 441 1716 441 
Q 2309 441 2620 675 
Q 2931 909 2931 1356 
Q 2931 1769 2642 2001 
Q 2353 2234 1838 2234 
L 1294 2234 
L 1294 2753 
L 1863 2753 
Q 2328 2753 2575 2939 
Q 2822 3125 2822 3475 
Q 2822 3834 2567 4026 
Q 2313 4219 1838 4219 
Q 1578 4219 1281 4162 
Q 984 4106 628 3988 
L 628 4550 
Q 988 4650 1302 4700 
Q 1616 4750 1894 4750 
Q 2613 4750 3031 4423 
Q 3450 4097 3450 3541 
Q 3450 3153 3228 2886 
Q 3006 2619 2597 2516 
z
" transform="scale(0.015625)"/>
       </defs>
       <use xlink:href="#DejaVuSans-31"/>
       <use xlink:href="#DejaVuSans-2e" x="63.623047"/>
       <use xlink:href="#DejaVuSans-41" x="95.410156"/>
       <use xlink:href="#DejaVuSans-2e" x="162.068359"/>
       <use xlink:href="#DejaVuSans-33" x="193.855469"/>
       <use xlink:href="#DejaVuSans-33" x="257.478516"/>
       <use xlink:href="#DejaVuSans-2e" x="321.101562"/>
       <use xlink:href="#DejaVuSans-31" x="352.888672"/>
       <use xlink:href="#DejaVuSans-2e" x="416.511719"/>
       <use xlink:href="#DejaVuSans-31" x="448.298828"/>
      </g>
     </g>
    </g>
    <g id="ytick_2">
     <g id="line2d_6">
      <g>
       <use xlink:href="#mb54ad31240" x="144" y="149.49" style="stroke: #000000; stroke-width: 0.8"/>
      </g>
     </g>
     <g id="text_7">
      <!-- 1.A.33.1.2 -->
      <g transform="translate(85.809375 153.289219) scale(0.1 -0.1)">
       <use xlink:href="#DejaVuSans-31"/>
       <use xlink:href="#DejaVuSans-2e" x="63.623047"/>
       <use xlink:href="#DejaVuSans-41" x="95.410156"/>
       <use xlink:href="#DejaVuSans-2e" x="162.068359"/>
       <use xlink:href="#DejaVuSans-33" x="193.855469"/>
       <use xlink:href="#DejaVuSans-33" x="257.478516"/>
       <use xlink:href="#DejaVuSans-2e" x="321.101562"/>
       <use xlink:href="#DejaVuSans-31" x="352.888672"/>
       <use xlink:href="#DejaVuSans-2e" x="416.511719"/>
       <use xlink:href="#DejaVuSans-32" x="448.298828"/>
      </g>
     </g>
    </g>
    <g id="ytick_3">
     <g id="line2d_7">
      <g>
       <use xlink:href="#mb54ad31240" x="144" y="132.99" style="stroke: #000000; stroke-width: 0.8"/>
      </g>
     </g>
     <g id="text_8">
      <!-- 1.A.33.1.3 -->
      <g transform="translate(85.809375 136.789219) scale(0.1 -0.1)">
       <use xlink:href="#DejaVuSans-31"/>
       <use xlink:href="#DejaVuSans-2e" x="63.623047"/>
       <use xlink:href="#DejaVuSans-41" x="95.410156"/>
       <use xlink:href="#DejaVuSans-2e" x="162.068359"/>
       <use xlink:href="#DejaVuSans-33" x="193.855469"/>
       <use xlink:href="#DejaVuSans-33" x="257.478516"/>
       <use xlink:href="#DejaVuSans-2e" x="321.101562"/>
       <use xlink:href="#DejaVuSans-31" x="352.888672"/>
       <use xlink:href="#DejaVuSans-2e" x="416.511719"/>
       <use xlink:href="#DejaVuSans-33" x="448.298828"/>
      </g>
     </g>
    </g>
    <g id="ytick_4">
     <g id="line2d_8">
      <g>
       <use xlink:href="#mb54ad31240" x="144" y="116.49" style="stroke: #000000; stroke-width: 0.8"/>
      </g>
     </g>
     <g id="text_9">
      <!-- 1.A.33.1.4 -->
      <g transform="translate(85.809375 120.289219) scale(0.1 -0.1)">
       <use xlink:href="#DejaVuSans-31"/>
       <use xlink:href="#DejaVuSans-2e" x="63.623047"/>
       <use xlink:href="#DejaVuSans-41" x="95.410156"/>
       <use xlink:href="#DejaVuSans-2e" x="162.068359"/>
       <use xlink:href="#DejaVuSans-33" x="193.855469"/>
       <use xlink:href="#DejaVuSans-33" x="257.478516"/>
       <use xlink:href="#DejaVuSans-2e" x="321.101562"/>
       <use xlink:href="#DejaVuSans-31" x="352.888672"/>
       <use xlink:href="#DejaVuSans-2e" x="416.511719"/>
       <use xlink:href="#DejaVuSans-34" x="448.298828"/>
      </g>
     </g>
    </g>
    <g id="ytick_5">
     <g id="line2d_9">
      <g>
       <use xlink:href="#mb54ad31240" x="144" y="99.99" style="stroke: #000000; stroke-width: 0.8"/>
      </g>
     </g>
     <g id="text_10">
      <!-- 1.A.33.1.5 -->
      <g transform="translate(85.809375 103.789219) scale(0.1 -0.1)">
       <defs>
        <path id="DejaVuSans-35" d="M 691 4666 
L 3169 4666 
L 3169 4134 
L 1269 4134 
L 1269 2991 
Q 1406 3038 1543 3061 
Q 1681 3084 1819 3084 
Q 2600 3084 3056 2656 
Q 3513 2228 3513 1497 
Q 3513 744 3044 326 
Q 2575 -91 1722 -91 
Q 1428 -91 1123 -41 
Q 819 9 494 109 
L 494 744 
Q 775 591 1075 516 
Q 1375 441 1709 441 
Q 2250 441 2565 725 
Q 2881 1009 2881 1497 
Q 2881 1984 2565 2268 
Q 2250 2553 1709 2553 
Q 1456 2553 1204 2497 
Q 953 2441 691 2322 
L 691 4666 
z
" transform="scale(0.015625)"/>
       </defs>
       <use xlink:href="#DejaVuSans-31"/>
       <use xlink:href="#DejaVuSans-2e" x="63.623047"/>
       <use xlink:href="#DejaVuSans-41" x="95.410156"/>
       <use xlink:href="#DejaVuSans-2e" x="162.068359"/>
       <use xlink:href="#DejaVuSans-33" x="193.855469"/>
       <use xlink:href="#DejaVuSans-33" x="257.478516"/>
       <use xlink:href="#DejaVuSans-2e" x="321.101562"/>
       <use xlink:href="#DejaVuSans-31" x="352.888672"/>
       <use xlink:href="#DejaVuSans-2e" x="416.511719"/>
       <use xlink:href="#DejaVuSans-35" x="448.298828"/>
      </g>
     </g>
    </g>
    <g id="ytick_6">
     <g id="line2d_10">
      <g>
       <use xlink:href="#mb54ad31240" x="144" y="83.49" style="stroke: #000000; stroke-width: 0.8"/>
      </g>
     </g>
     <g id="text_11">
      <!-- 1.A.33.1.6 -->
      <g transform="translate(85.809375 87.289219) scale(0.1 -0.1)">
       <use xlink:href="#DejaVuSans-31"/>
       <use xlink:href="#DejaVuSans-2e" x="63.623047"/>
       <use xlink:href="#DejaVuSans-41" x="95.410156"/>
       <use xlink:href="#DejaVuSans-2e" x="162.068359"/>
       <use xlink:href="#DejaVuSans-33" x="193.855469"/>
       <use xlink:href="#DejaVuSans-33" x="257.478516"/>
       <use xlink:href="#DejaVuSans-2e" x="321.101562"/>
       <use xlink:href="#DejaVuSans-31" x="352.888672"/>
       <use xlink:href="#DejaVuSans-2e" x="416.511719"/>
       <use xlink:href="#DejaVuSans-36" x="448.298828"/>
      </g>
     </g>
    </g>
    <g id="ytick_7">
     <g id="line2d_11">
      <g>
       <use xlink:href="#mb54ad31240" x="144" y="66.99" style="stroke: #000000; stroke-width: 0.8"/>
      </g>
     </g>
     <g id="text_12">
      <!-- 1.A.33.2.1 -->
      <g transform="translate(85.809375 70.789219) scale(0.1 -0.1)">
       <use xlink:href="#DejaVuSans-31"/>
       <use xlink:href="#DejaVuSans-2e" x="63.623047"/>
       <use xlink:href="#DejaVuSans-41" x="95.410156"/>
       <use xlink:href="#DejaVuSans-2e" x="162.068359"/>
       <use xlink:href="#DejaVuSans-33" x="193.855469"/>
       <use xlink:href="#DejaVuSans-33" x="257.478516"/>
       <use xlink:href="#DejaVuSans-2e" x="321.101562"/>
       <use xlink:href="#DejaVuSans-32" x="352.888672"/>
       <use xlink:href="#DejaVuSans-2e" x="416.511719"/>
       <use xlink:href="#DejaVuSans-31" x="448.298828"/>
      </g>
     </g>
    </g>
    <g id="ytick_8">
     <g id="line2d_12">
      <g>
       <use xlink:href="#mb54ad31240" x="144" y="50.49" style="stroke: #000000; stroke-width: 0.8"/>
      </g>
     </g>
     <g id="text_13">
      <!-- 1.A.33.2.2 -->
      <g transform="translate(85.809375 54.289219) scale(0.1 -0.1)">
       <use xlink:href="#DejaVuSans-31"/>
       <use xlink:href="#DejaVuSans-2e" x="63.623047"/>
       <use xlink:href="#DejaVuSans-41" x="95.410156"/>
       <use xlink:href="#DejaVuSans-2e" x="162.068359"/>
       <use xlink:href="#DejaVuSans-33" x="193.855469"/>
       <use xlink:href="#DejaVuSans-33" x="257.478516"/>
       <use xlink:href="#DejaVuSans-2e" x="321.101562"/>
       <use xlink:href="#DejaVuSans-32" x="352.888672"/>
       <use xlink:href="#DejaVuSans-2e" x="416.511719"/>
       <use xlink:href="#DejaVuSans-32" x="448.298828"/>
      </g>
     </g>
    </g>
    <g id="ytick_9">
     <g id="line2d_13">
      <g>
       <use xlink:href="#mb54ad31240" x="144" y="33.99" style="stroke: #000000; stroke-width: 0.8"/>
      </g>
     </g>
     <g id="text_14">
      <!-- 1.A.33.2.3 -->
      <g transform="translate(85.809375 37.789219) scale(0.1 -0.1)">
       <use xlink:href="#DejaVuSans-31"/>
       <use xlink:href="#DejaVuSans-2e" x="63.623047"/>
       <use xlink:href="#DejaVuSans-41" x="95.410156"/>
       <use xlink:href="#DejaVuSans-2e" x="162.068359"/>
       <use xlink:href="#DejaVuSans-33" x="193.855469"/>
       <use xlink:href="#DejaVuSans-33" x="257.478516"/>
       <use xlink:href="#DejaVuSans-2e" x="321.101562"/>
       <use xlink:href="#DejaVuSans-32" x="352.888672"/>
       <use xlink:href="#DejaVuSans-2e" x="416.511719"/>
       <use xlink:href="#DejaVuSans-33" x="448.298828"/>
      </g>
     </g>
    </g>
   </g>
   <g id="patch_312">
    <path d="M 144 176.22 
L 144 23.76 
" style="fill: none; stroke: #000000; stroke-width: 0.8; stroke-linejoin: miter; stroke-linecap: square"/>
   </g>
   <g id="patch_313">
    <path d="M 1036.8 176.22 
L 1036.8 23.76 
" style="fill: none; stroke: #000000; stroke-width: 0.8; stroke-linejoin: miter; stroke-linecap: square"/>
   </g>
   <g id="patch_314">
    <path d="M 144 176.22 
L 1036.8 176.22 
" style="fill: none; stroke: #000000; stroke-width: 0.8; stroke-linejoin: miter; stroke-linecap: square"/>
   </g>
   <g id="patch_315">
    <path d="M 144 23.76 
L 1036.8 23.76 
" style="fill: none; stroke: #000000; stroke-width: 0.8; stroke-linejoin: miter; stroke-linecap: square"/>
   </g>
   <g id="text_15">
    <!-- 1.A.33 Summary -->
    <g transform="translate(540.2325 17.76) scale(0.12 -0.12)">
     <defs>
      <path id="DejaVuSans-20" transform="scale(0.015625)"/>
      <path id="DejaVuSans-53" d="M 3425 4513 
L 3425 3897 
Q 3066 4069 2747 4153 
Q 2428 4238 2131 4238 
Q 1616 4238 1336 4038 
Q 1056 3838 1056 3469 
Q 1056 3159 1242 3001 
Q 1428 2844 1947 2747 
L 2328 2669 
Q 3034 2534 3370 2195 
Q 3706 1856 3706 1288 
Q 3706 609 3251 259 
Q 2797 -91 1919 -91 
Q 1588 -91 1214 -16 
Q 841 59 441 206 
L 441 856 
Q 825 641 1194 531 
Q 1563 422 1919 422 
Q 2459 422 2753 634 
Q 3047 847 3047 1241 
Q 3047 1584 2836 1778 
Q 2625 1972 2144 2069 
L 1759 2144 
Q 1053 2284 737 2584 
Q 422 2884 422 3419 
Q 422 4038 858 4394 
Q 1294 4750 2059 4750 
Q 2388 4750 2728 4690 
Q 3069 4631 3425 4513 
z
" transform="scale(0.015625)"/>
      <path id="DejaVuSans-6d" d="M 3328 2828 
Q 3544 3216 3844 3400 
Q 4144 3584 4550 3584 
Q 5097 3584 5394 3201 
Q 5691 2819 5691 2113 
L 5691 0 
L 5113 0 
L 5113 2094 
Q 5113 2597 4934 2840 
Q 4756 3084 4391 3084 
Q 3944 3084 3684 2787 
Q 3425 2491 3425 1978 
L 3425 0 
L 2847 0 
L 2847 2094 
Q 2847 2600 2669 2842 
Q 2491 3084 2119 3084 
Q 1678 3084 1418 2786 
Q 1159 2488 1159 1978 
L 1159 0 
L 581 0 
L 581 3500 
L 1159 3500 
L 1159 2956 
Q 1356 3278 1631 3431 
Q 1906 3584 2284 3584 
Q 2666 3584 2933 3390 
Q 3200 3197 3328 2828 
z
" transform="scale(0.015625)"/>
      <path id="DejaVuSans-72" d="M 2631 2963 
Q 2534 3019 2420 3045 
Q 2306 3072 2169 3072 
Q 1681 3072 1420 2755 
Q 1159 2438 1159 1844 
L 1159 0 
L 581 0 
L 581 3500 
L 1159 3500 
L 1159 2956 
Q 1341 3275 1631 3429 
Q 1922 3584 2338 3584 
Q 2397 3584 2469 3576 
Q 2541 3569 2628 3553 
L 2631 2963 
z
" transform="scale(0.015625)"/>
      <path id="DejaVuSans-79" d="M 2059 -325 
Q 1816 -950 1584 -1140 
Q 1353 -1331 966 -1331 
L 506 -1331 
L 506 -850 
L 844 -850 
Q 1081 -850 1212 -737 
Q 1344 -625 1503 -206 
L 1606 56 
L 191 3500 
L 800 3500 
L 1894 763 
L 2988 3500 
L 3597 3500 
L 2059 -325 
z
" transform="scale(0.015625)"/>
     </defs>
     <use xlink:href="#DejaVuSans-31"/>
     <use xlink:href="#DejaVuSans-2e" x="63.623047"/>
     <use xlink:href="#DejaVuSans-41" x="95.410156"/>
     <use xlink:href="#DejaVuSans-2e" x="162.068359"/>
     <use xlink:href="#DejaVuSans-33" x="193.855469"/>
     <use xlink:href="#DejaVuSans-33" x="257.478516"/>
     <use xlink:href="#DejaVuSans-20" x="321.101562"/>
     <use xlink:href="#DejaVuSans-53" x="352.888672"/>
     <use xlink:href="#DejaVuSans-75" x="416.365234"/>
     <use xlink:href="#DejaVuSans-6d" x="479.744141"/>
     <use xlink:href="#DejaVuSans-6d" x="577.15625"/>
     <use xlink:href="#DejaVuSans-61" x="674.568359"/>
     <use xlink:href="#DejaVuSans-72" x="735.847656"/>
     <use xlink:href="#DejaVuSans-79" x="776.960938"/>
    </g>
   </g>
  </g>
 </g>
 <defs>
  <clipPath id="pdbeb1907b4">
   <rect x="144" y="23.76" width="892.8" height="152.46"/>
  </clipPath>
 </defs>
</svg>
