<?xml version="1.0" encoding="utf-8" standalone="no"?>
<!DOCTYPE svg PUBLIC "-//W3C//DTD SVG 1.1//EN"
  "http://www.w3.org/Graphics/SVG/1.1/DTD/svg11.dtd">
<svg xmlns:xlink="http://www.w3.org/1999/xlink" width="1152pt" height="216pt" viewBox="0 0 1152 216" xmlns="http://www.w3.org/2000/svg" version="1.1">
 <metadata>
  <rdf:RDF xmlns:dc="http://purl.org/dc/elements/1.1/" xmlns:cc="http://creativecommons.org/ns#" xmlns:rdf="http://www.w3.org/1999/02/22-rdf-syntax-ns#">
   <cc:Work>
    <dc:type rdf:resource="http://purl.org/dc/dcmitype/StillImage"/>
    <dc:date>2024-10-25T07:44:53.312742</dc:date>
    <dc:format>image/svg+xml</dc:format>
    <dc:creator>
     <cc:Agent>
      <dc:title>Matplotlib v3.9.2, https://matplotlib.org/</dc:title>
     </cc:Agent>
    </dc:creator>
   </cc:Work>
  </rdf:RDF>
 </metadata>
 <defs>
  <style type="text/css">*{stroke-linejoin: round; stroke-linecap: butt}</style>
 </defs>
 <g id="figure_1">
  <g id="patch_1">
   <path d="M 0 216 
L 1152 216 
L 1152 0 
L 0 0 
z
" style="fill: #ffffff"/>
  </g>
  <g id="axes_1">
   <g id="patch_2">
    <path d="M 144 192.24 
L 1036.8 192.24 
L 1036.8 25.92 
L 144 25.92 
z
" style="fill: #ffffff"/>
   </g>
   <g id="patch_3">
    <path d="M 144 180.9 
L 469.326708 180.9 
L 469.326708 180.287027 
L 144 180.287027 
z
" clip-path="url(#paf9387424e)" style="fill: #0000ff"/>
   </g>
   <g id="patch_4">
    <path d="M 470.805466 184.68 
L 540.307081 184.68 
L 540.307081 176.507027 
L 470.805466 176.507027 
z
" clip-path="url(#paf9387424e)" style="fill: #0000ff"/>
   </g>
   <g id="patch_5">
    <path d="M 144 160.467568 
L 475.241739 160.467568 
L 475.241739 159.854595 
L 144 159.854595 
z
" clip-path="url(#paf9387424e)" style="fill: #0000ff"/>
   </g>
   <g id="patch_6">
    <path d="M 476.720497 164.247568 
L 546.222112 164.247568 
L 546.222112 156.074595 
L 476.720497 156.074595 
z
" clip-path="url(#paf9387424e)" style="fill: #0000ff"/>
   </g>
   <g id="patch_7">
    <path d="M 144 140.035135 
L 222.374161 140.035135 
L 222.374161 139.422162 
L 144 139.422162 
z
" clip-path="url(#paf9387424e)" style="fill: #0000ff"/>
   </g>
   <g id="patch_8">
    <path d="M 223.852919 143.815135 
L 386.516273 143.815135 
L 386.516273 135.642162 
L 223.852919 135.642162 
z
" clip-path="url(#paf9387424e)" style="fill: #0000ff"/>
   </g>
   <g id="patch_9">
    <path d="M 387.995031 140.035135 
L 495.944348 140.035135 
L 495.944348 139.422162 
L 387.995031 139.422162 
z
" clip-path="url(#paf9387424e)" style="fill: #0000ff"/>
   </g>
   <g id="patch_10">
    <path d="M 144 119.602703 
L 277.088199 119.602703 
L 277.088199 118.98973 
L 144 118.98973 
z
" clip-path="url(#paf9387424e)" style="fill: #0000ff"/>
   </g>
   <g id="patch_11">
    <path d="M 278.566957 123.382703 
L 401.303851 123.382703 
L 401.303851 115.20973 
L 278.566957 115.20973 
z
" clip-path="url(#paf9387424e)" style="fill: #0000ff"/>
   </g>
   <g id="patch_12">
    <path d="M 402.782609 119.602703 
L 454.53913 119.602703 
L 454.53913 118.98973 
L 402.782609 118.98973 
z
" clip-path="url(#paf9387424e)" style="fill: #0000ff"/>
   </g>
   <g id="patch_13">
    <path d="M 144 99.17027 
L 318.493416 99.17027 
L 318.493416 98.557297 
L 144 98.557297 
z
" clip-path="url(#paf9387424e)" style="fill: #0000ff"/>
   </g>
   <g id="patch_14">
    <path d="M 319.972174 102.95027 
L 498.901863 102.95027 
L 498.901863 94.777297 
L 319.972174 94.777297 
z
" clip-path="url(#paf9387424e)" style="fill: #0000ff"/>
   </g>
   <g id="patch_15">
    <path d="M 500.380621 99.17027 
L 509.253168 99.17027 
L 509.253168 98.557297 
L 500.380621 98.557297 
z
" clip-path="url(#paf9387424e)" style="fill: #0000ff"/>
   </g>
   <g id="patch_16">
    <path d="M 510.731925 102.95027 
L 770.993292 102.95027 
L 770.993292 94.777297 
L 510.731925 94.777297 
z
" clip-path="url(#paf9387424e)" style="fill: #0000ff"/>
   </g>
   <g id="patch_17">
    <path d="M 528.477019 102.95027 
L 770.993292 102.95027 
L 770.993292 94.777297 
L 528.477019 94.777297 
z
" clip-path="url(#paf9387424e)" style="fill: #0000ff"/>
   </g>
   <g id="patch_18">
    <path d="M 528.477019 102.95027 
L 765.078261 102.95027 
L 765.078261 94.777297 
L 528.477019 94.777297 
z
" clip-path="url(#paf9387424e)" style="fill: #0000ff"/>
   </g>
   <g id="patch_19">
    <path d="M 531.434534 102.95027 
L 770.993292 102.95027 
L 770.993292 94.777297 
L 531.434534 94.777297 
z
" clip-path="url(#paf9387424e)" style="fill: #0000ff"/>
   </g>
   <g id="patch_20">
    <path d="M 531.434534 102.95027 
L 766.557019 102.95027 
L 766.557019 94.777297 
L 531.434534 94.777297 
z
" clip-path="url(#paf9387424e)" style="fill: #0000ff"/>
   </g>
   <g id="patch_21">
    <path d="M 531.434534 102.95027 
L 770.993292 102.95027 
L 770.993292 94.777297 
L 531.434534 94.777297 
z
" clip-path="url(#paf9387424e)" style="fill: #0000ff"/>
   </g>
   <g id="patch_22">
    <path d="M 531.434534 102.95027 
L 766.557019 102.95027 
L 766.557019 94.777297 
L 531.434534 94.777297 
z
" clip-path="url(#paf9387424e)" style="fill: #0000ff"/>
   </g>
   <g id="patch_23">
    <path d="M 531.434534 102.95027 
L 766.557019 102.95027 
L 766.557019 94.777297 
L 531.434534 94.777297 
z
" clip-path="url(#paf9387424e)" style="fill: #0000ff"/>
   </g>
   <g id="patch_24">
    <path d="M 531.434534 102.95027 
L 766.557019 102.95027 
L 766.557019 94.777297 
L 531.434534 94.777297 
z
" clip-path="url(#paf9387424e)" style="fill: #0000ff"/>
   </g>
   <g id="patch_25">
    <path d="M 534.39205 102.95027 
L 770.993292 102.95027 
L 770.993292 94.777297 
L 534.39205 94.777297 
z
" clip-path="url(#paf9387424e)" style="fill: #0000ff"/>
   </g>
   <g id="patch_26">
    <path d="M 593.54236 102.95027 
L 695.576646 102.95027 
L 695.576646 94.777297 
L 593.54236 94.777297 
z
" clip-path="url(#paf9387424e)" style="fill: #0000ff"/>
   </g>
   <g id="patch_27">
    <path d="M 600.936149 102.95027 
L 731.066832 102.95027 
L 731.066832 94.777297 
L 600.936149 94.777297 
z
" clip-path="url(#paf9387424e)" style="fill: #0000ff"/>
   </g>
   <g id="patch_28">
    <path d="M 600.936149 102.95027 
L 731.066832 102.95027 
L 731.066832 94.777297 
L 600.936149 94.777297 
z
" clip-path="url(#paf9387424e)" style="fill: #0000ff"/>
   </g>
   <g id="patch_29">
    <path d="M 600.936149 102.95027 
L 731.066832 102.95027 
L 731.066832 94.777297 
L 600.936149 94.777297 
z
" clip-path="url(#paf9387424e)" style="fill: #0000ff"/>
   </g>
   <g id="patch_30">
    <path d="M 602.414907 102.95027 
L 769.514534 102.95027 
L 769.514534 94.777297 
L 602.414907 94.777297 
z
" clip-path="url(#paf9387424e)" style="fill: #0000ff"/>
   </g>
   <g id="patch_31">
    <path d="M 603.893665 102.95027 
L 719.23677 102.95027 
L 719.23677 94.777297 
L 603.893665 94.777297 
z
" clip-path="url(#paf9387424e)" style="fill: #0000ff"/>
   </g>
   <g id="patch_32">
    <path d="M 611.287453 102.95027 
L 778.387081 102.95027 
L 778.387081 94.777297 
L 611.287453 94.777297 
z
" clip-path="url(#paf9387424e)" style="fill: #0000ff"/>
   </g>
   <g id="patch_33">
    <path d="M 626.075031 102.95027 
L 732.54559 102.95027 
L 732.54559 94.777297 
L 626.075031 94.777297 
z
" clip-path="url(#paf9387424e)" style="fill: #0000ff"/>
   </g>
   <g id="patch_34">
    <path d="M 627.553789 102.95027 
L 731.066832 102.95027 
L 731.066832 94.777297 
L 627.553789 94.777297 
z
" clip-path="url(#paf9387424e)" style="fill: #0000ff"/>
   </g>
   <g id="patch_35">
    <path d="M 627.553789 102.95027 
L 747.333168 102.95027 
L 747.333168 94.777297 
L 627.553789 94.777297 
z
" clip-path="url(#paf9387424e)" style="fill: #0000ff"/>
   </g>
   <g id="patch_36">
    <path d="M 631.990062 102.95027 
L 705.92795 102.95027 
L 705.92795 94.777297 
L 631.990062 94.777297 
z
" clip-path="url(#paf9387424e)" style="fill: #0000ff"/>
   </g>
   <g id="patch_37">
    <path d="M 631.990062 102.95027 
L 705.92795 102.95027 
L 705.92795 94.777297 
L 631.990062 94.777297 
z
" clip-path="url(#paf9387424e)" style="fill: #0000ff"/>
   </g>
   <g id="patch_38">
    <path d="M 631.990062 102.95027 
L 711.842981 102.95027 
L 711.842981 94.777297 
L 631.990062 94.777297 
z
" clip-path="url(#paf9387424e)" style="fill: #0000ff"/>
   </g>
   <g id="patch_39">
    <path d="M 631.990062 102.95027 
L 707.406708 102.95027 
L 707.406708 94.777297 
L 631.990062 94.777297 
z
" clip-path="url(#paf9387424e)" style="fill: #0000ff"/>
   </g>
   <g id="patch_40">
    <path d="M 637.905093 102.95027 
L 731.066832 102.95027 
L 731.066832 94.777297 
L 637.905093 94.777297 
z
" clip-path="url(#paf9387424e)" style="fill: #0000ff"/>
   </g>
   <g id="patch_41">
    <path d="M 673.39528 102.95027 
L 762.120745 102.95027 
L 762.120745 94.777297 
L 673.39528 94.777297 
z
" clip-path="url(#paf9387424e)" style="fill: #0000ff"/>
   </g>
   <g id="patch_42">
    <path d="M 779.865839 99.17027 
L 782.823354 99.17027 
L 782.823354 98.557297 
L 779.865839 98.557297 
z
" clip-path="url(#paf9387424e)" style="fill: #0000ff"/>
   </g>
   <g id="patch_43">
    <path d="M 784.302112 102.95027 
L 988.370683 102.95027 
L 988.370683 94.777297 
L 784.302112 94.777297 
z
" clip-path="url(#paf9387424e)" style="fill: #0000ff"/>
   </g>
   <g id="patch_44">
    <path d="M 989.849441 99.17027 
L 994.285714 99.17027 
L 994.285714 98.557297 
L 989.849441 98.557297 
z
" clip-path="url(#paf9387424e)" style="fill: #0000ff"/>
   </g>
   <g id="patch_45">
    <path d="M 144 78.737838 
L 220.895404 78.737838 
L 220.895404 78.124865 
L 144 78.124865 
z
" clip-path="url(#paf9387424e)" style="fill: #0000ff"/>
   </g>
   <g id="patch_46">
    <path d="M 222.374161 82.517838 
L 399.825093 82.517838 
L 399.825093 74.344865 
L 222.374161 74.344865 
z
" clip-path="url(#paf9387424e)" style="fill: #0000ff"/>
   </g>
   <g id="patch_47">
    <path d="M 401.303851 78.737838 
L 417.570186 78.737838 
L 417.570186 78.124865 
L 401.303851 78.124865 
z
" clip-path="url(#paf9387424e)" style="fill: #0000ff"/>
   </g>
   <g id="patch_48">
    <path d="M 419.048944 82.517838 
L 679.310311 82.517838 
L 679.310311 74.344865 
L 419.048944 74.344865 
z
" clip-path="url(#paf9387424e)" style="fill: #0000ff"/>
   </g>
   <g id="patch_49">
    <path d="M 436.794037 82.517838 
L 673.39528 82.517838 
L 673.39528 74.344865 
L 436.794037 74.344865 
z
" clip-path="url(#paf9387424e)" style="fill: #0000ff"/>
   </g>
   <g id="patch_50">
    <path d="M 436.794037 82.517838 
L 673.39528 82.517838 
L 673.39528 74.344865 
L 436.794037 74.344865 
z
" clip-path="url(#paf9387424e)" style="fill: #0000ff"/>
   </g>
   <g id="patch_51">
    <path d="M 439.751553 82.517838 
L 676.352795 82.517838 
L 676.352795 74.344865 
L 439.751553 74.344865 
z
" clip-path="url(#paf9387424e)" style="fill: #0000ff"/>
   </g>
   <g id="patch_52">
    <path d="M 439.751553 82.517838 
L 674.874037 82.517838 
L 674.874037 74.344865 
L 439.751553 74.344865 
z
" clip-path="url(#paf9387424e)" style="fill: #0000ff"/>
   </g>
   <g id="patch_53">
    <path d="M 439.751553 82.517838 
L 679.310311 82.517838 
L 679.310311 74.344865 
L 439.751553 74.344865 
z
" clip-path="url(#paf9387424e)" style="fill: #0000ff"/>
   </g>
   <g id="patch_54">
    <path d="M 439.751553 82.517838 
L 679.310311 82.517838 
L 679.310311 74.344865 
L 439.751553 74.344865 
z
" clip-path="url(#paf9387424e)" style="fill: #0000ff"/>
   </g>
   <g id="patch_55">
    <path d="M 439.751553 82.517838 
L 673.39528 82.517838 
L 673.39528 74.344865 
L 439.751553 74.344865 
z
" clip-path="url(#paf9387424e)" style="fill: #0000ff"/>
   </g>
   <g id="patch_56">
    <path d="M 439.751553 82.517838 
L 674.874037 82.517838 
L 674.874037 74.344865 
L 439.751553 74.344865 
z
" clip-path="url(#paf9387424e)" style="fill: #0000ff"/>
   </g>
   <g id="patch_57">
    <path d="M 441.230311 82.517838 
L 670.437764 82.517838 
L 670.437764 74.344865 
L 441.230311 74.344865 
z
" clip-path="url(#paf9387424e)" style="fill: #0000ff"/>
   </g>
   <g id="patch_58">
    <path d="M 450.102857 82.517838 
L 676.352795 82.517838 
L 676.352795 74.344865 
L 450.102857 74.344865 
z
" clip-path="url(#paf9387424e)" style="fill: #0000ff"/>
   </g>
   <g id="patch_59">
    <path d="M 504.816894 82.517838 
L 634.947578 82.517838 
L 634.947578 74.344865 
L 504.816894 74.344865 
z
" clip-path="url(#paf9387424e)" style="fill: #0000ff"/>
   </g>
   <g id="patch_60">
    <path d="M 506.295652 82.517838 
L 655.650186 82.517838 
L 655.650186 74.344865 
L 506.295652 74.344865 
z
" clip-path="url(#paf9387424e)" style="fill: #0000ff"/>
   </g>
   <g id="patch_61">
    <path d="M 509.253168 82.517838 
L 612.766211 82.517838 
L 612.766211 74.344865 
L 509.253168 74.344865 
z
" clip-path="url(#paf9387424e)" style="fill: #0000ff"/>
   </g>
   <g id="patch_62">
    <path d="M 509.253168 82.517838 
L 631.990062 82.517838 
L 631.990062 74.344865 
L 509.253168 74.344865 
z
" clip-path="url(#paf9387424e)" style="fill: #0000ff"/>
   </g>
   <g id="patch_63">
    <path d="M 512.210683 82.517838 
L 609.808696 82.517838 
L 609.808696 74.344865 
L 512.210683 74.344865 
z
" clip-path="url(#paf9387424e)" style="fill: #0000ff"/>
   </g>
   <g id="patch_64">
    <path d="M 524.040745 82.517838 
L 603.893665 82.517838 
L 603.893665 74.344865 
L 524.040745 74.344865 
z
" clip-path="url(#paf9387424e)" style="fill: #0000ff"/>
   </g>
   <g id="patch_65">
    <path d="M 537.349565 82.517838 
L 704.449193 82.517838 
L 704.449193 74.344865 
L 537.349565 74.344865 
z
" clip-path="url(#paf9387424e)" style="fill: #0000ff"/>
   </g>
   <g id="patch_66">
    <path d="M 540.307081 82.517838 
L 679.310311 82.517838 
L 679.310311 74.344865 
L 540.307081 74.344865 
z
" clip-path="url(#paf9387424e)" style="fill: #0000ff"/>
   </g>
   <g id="patch_67">
    <path d="M 540.307081 82.517838 
L 679.310311 82.517838 
L 679.310311 74.344865 
L 540.307081 74.344865 
z
" clip-path="url(#paf9387424e)" style="fill: #0000ff"/>
   </g>
   <g id="patch_68">
    <path d="M 540.307081 82.517838 
L 605.372422 82.517838 
L 605.372422 74.344865 
L 540.307081 74.344865 
z
" clip-path="url(#paf9387424e)" style="fill: #0000ff"/>
   </g>
   <g id="patch_69">
    <path d="M 540.307081 82.517838 
L 670.437764 82.517838 
L 670.437764 74.344865 
L 540.307081 74.344865 
z
" clip-path="url(#paf9387424e)" style="fill: #0000ff"/>
   </g>
   <g id="patch_70">
    <path d="M 546.222112 82.517838 
L 627.553789 82.517838 
L 627.553789 74.344865 
L 546.222112 74.344865 
z
" clip-path="url(#paf9387424e)" style="fill: #0000ff"/>
   </g>
   <g id="patch_71">
    <path d="M 692.61913 82.517838 
L 895.208944 82.517838 
L 895.208944 74.344865 
L 692.61913 74.344865 
z
" clip-path="url(#paf9387424e)" style="fill: #0000ff"/>
   </g>
   <g id="patch_72">
    <path d="M 144 58.305405 
L 445.666584 58.305405 
L 445.666584 57.692432 
L 144 57.692432 
z
" clip-path="url(#paf9387424e)" style="fill: #0000ff"/>
   </g>
   <g id="patch_73">
    <path d="M 447.145342 62.085405 
L 707.406708 62.085405 
L 707.406708 53.912432 
L 447.145342 53.912432 
z
" clip-path="url(#paf9387424e)" style="fill: #0000ff"/>
   </g>
   <g id="patch_74">
    <path d="M 464.890435 62.085405 
L 707.406708 62.085405 
L 707.406708 53.912432 
L 464.890435 53.912432 
z
" clip-path="url(#paf9387424e)" style="fill: #0000ff"/>
   </g>
   <g id="patch_75">
    <path d="M 464.890435 62.085405 
L 701.491677 62.085405 
L 701.491677 53.912432 
L 464.890435 53.912432 
z
" clip-path="url(#paf9387424e)" style="fill: #0000ff"/>
   </g>
   <g id="patch_76">
    <path d="M 467.84795 62.085405 
L 702.970435 62.085405 
L 702.970435 53.912432 
L 467.84795 53.912432 
z
" clip-path="url(#paf9387424e)" style="fill: #0000ff"/>
   </g>
   <g id="patch_77">
    <path d="M 467.84795 62.085405 
L 704.449193 62.085405 
L 704.449193 53.912432 
L 467.84795 53.912432 
z
" clip-path="url(#paf9387424e)" style="fill: #0000ff"/>
   </g>
   <g id="patch_78">
    <path d="M 467.84795 62.085405 
L 705.92795 62.085405 
L 705.92795 53.912432 
L 467.84795 53.912432 
z
" clip-path="url(#paf9387424e)" style="fill: #0000ff"/>
   </g>
   <g id="patch_79">
    <path d="M 467.84795 62.085405 
L 704.449193 62.085405 
L 704.449193 53.912432 
L 467.84795 53.912432 
z
" clip-path="url(#paf9387424e)" style="fill: #0000ff"/>
   </g>
   <g id="patch_80">
    <path d="M 467.84795 62.085405 
L 702.970435 62.085405 
L 702.970435 53.912432 
L 467.84795 53.912432 
z
" clip-path="url(#paf9387424e)" style="fill: #0000ff"/>
   </g>
   <g id="patch_81">
    <path d="M 467.84795 62.085405 
L 704.449193 62.085405 
L 704.449193 53.912432 
L 467.84795 53.912432 
z
" clip-path="url(#paf9387424e)" style="fill: #0000ff"/>
   </g>
   <g id="patch_82">
    <path d="M 473.762981 62.085405 
L 698.534161 62.085405 
L 698.534161 53.912432 
L 473.762981 53.912432 
z
" clip-path="url(#paf9387424e)" style="fill: #0000ff"/>
   </g>
   <g id="patch_83">
    <path d="M 478.199255 62.085405 
L 705.92795 62.085405 
L 705.92795 53.912432 
L 478.199255 53.912432 
z
" clip-path="url(#paf9387424e)" style="fill: #0000ff"/>
   </g>
   <g id="patch_84">
    <path d="M 478.199255 62.085405 
L 639.383851 62.085405 
L 639.383851 53.912432 
L 478.199255 53.912432 
z
" clip-path="url(#paf9387424e)" style="fill: #0000ff"/>
   </g>
   <g id="patch_85">
    <path d="M 487.071801 62.085405 
L 645.298882 62.085405 
L 645.298882 53.912432 
L 487.071801 53.912432 
z
" clip-path="url(#paf9387424e)" style="fill: #0000ff"/>
   </g>
   <g id="patch_86">
    <path d="M 537.349565 62.085405 
L 670.437764 62.085405 
L 670.437764 53.912432 
L 537.349565 53.912432 
z
" clip-path="url(#paf9387424e)" style="fill: #0000ff"/>
   </g>
   <g id="patch_87">
    <path d="M 540.307081 62.085405 
L 725.151801 62.085405 
L 725.151801 53.912432 
L 540.307081 53.912432 
z
" clip-path="url(#paf9387424e)" style="fill: #0000ff"/>
   </g>
   <g id="patch_88">
    <path d="M 556.573416 62.085405 
L 654.171429 62.085405 
L 654.171429 53.912432 
L 556.573416 53.912432 
z
" clip-path="url(#paf9387424e)" style="fill: #0000ff"/>
   </g>
   <g id="patch_89">
    <path d="M 563.967205 62.085405 
L 642.341366 62.085405 
L 642.341366 53.912432 
L 563.967205 53.912432 
z
" clip-path="url(#paf9387424e)" style="fill: #0000ff"/>
   </g>
   <g id="patch_90">
    <path d="M 568.403478 62.085405 
L 654.171429 62.085405 
L 654.171429 53.912432 
L 568.403478 53.912432 
z
" clip-path="url(#paf9387424e)" style="fill: #0000ff"/>
   </g>
   <g id="patch_91">
    <path d="M 568.403478 62.085405 
L 654.171429 62.085405 
L 654.171429 53.912432 
L 568.403478 53.912432 
z
" clip-path="url(#paf9387424e)" style="fill: #0000ff"/>
   </g>
   <g id="patch_92">
    <path d="M 609.808696 62.085405 
L 654.171429 62.085405 
L 654.171429 53.912432 
L 609.808696 53.912432 
z
" clip-path="url(#paf9387424e)" style="fill: #0000ff"/>
   </g>
   <g id="patch_93">
    <path d="M 720.715528 62.085405 
L 912.954037 62.085405 
L 912.954037 53.912432 
L 720.715528 53.912432 
z
" clip-path="url(#paf9387424e)" style="fill: #0000ff"/>
   </g>
   <g id="patch_94">
    <path d="M 914.432795 58.305405 
L 914.432795 58.305405 
L 914.432795 57.692432 
L 914.432795 57.692432 
z
" clip-path="url(#paf9387424e)" style="fill: #0000ff"/>
   </g>
   <g id="patch_95">
    <path d="M 144 37.872973 
L 155.830062 37.872973 
L 155.830062 37.26 
L 144 37.26 
z
" clip-path="url(#paf9387424e)" style="fill: #0000ff"/>
   </g>
   <g id="patch_96">
    <path d="M 157.30882 41.652973 
L 410.176398 41.652973 
L 410.176398 33.48 
L 157.30882 33.48 
z
" clip-path="url(#paf9387424e)" style="fill: #0000ff"/>
   </g>
   <g id="patch_97">
    <path d="M 175.053913 41.652973 
L 407.218882 41.652973 
L 407.218882 33.48 
L 175.053913 33.48 
z
" clip-path="url(#paf9387424e)" style="fill: #0000ff"/>
   </g>
   <g id="patch_98">
    <path d="M 175.053913 41.652973 
L 404.261366 41.652973 
L 404.261366 33.48 
L 175.053913 33.48 
z
" clip-path="url(#paf9387424e)" style="fill: #0000ff"/>
   </g>
   <g id="patch_99">
    <path d="M 178.011429 41.652973 
L 410.176398 41.652973 
L 410.176398 33.48 
L 178.011429 33.48 
z
" clip-path="url(#paf9387424e)" style="fill: #0000ff"/>
   </g>
   <g id="patch_100">
    <path d="M 178.011429 41.652973 
L 410.176398 41.652973 
L 410.176398 33.48 
L 178.011429 33.48 
z
" clip-path="url(#paf9387424e)" style="fill: #0000ff"/>
   </g>
   <g id="patch_101">
    <path d="M 178.011429 41.652973 
L 410.176398 41.652973 
L 410.176398 33.48 
L 178.011429 33.48 
z
" clip-path="url(#paf9387424e)" style="fill: #0000ff"/>
   </g>
   <g id="patch_102">
    <path d="M 178.011429 41.652973 
L 410.176398 41.652973 
L 410.176398 33.48 
L 178.011429 33.48 
z
" clip-path="url(#paf9387424e)" style="fill: #0000ff"/>
   </g>
   <g id="patch_103">
    <path d="M 178.011429 41.652973 
L 410.176398 41.652973 
L 410.176398 33.48 
L 178.011429 33.48 
z
" clip-path="url(#paf9387424e)" style="fill: #0000ff"/>
   </g>
   <g id="patch_104">
    <path d="M 178.011429 41.652973 
L 410.176398 41.652973 
L 410.176398 33.48 
L 178.011429 33.48 
z
" clip-path="url(#paf9387424e)" style="fill: #0000ff"/>
   </g>
   <g id="patch_105">
    <path d="M 179.490186 41.652973 
L 404.261366 41.652973 
L 404.261366 33.48 
L 179.490186 33.48 
z
" clip-path="url(#paf9387424e)" style="fill: #0000ff"/>
   </g>
   <g id="patch_106">
    <path d="M 179.490186 41.652973 
L 408.69764 41.652973 
L 408.69764 33.48 
L 179.490186 33.48 
z
" clip-path="url(#paf9387424e)" style="fill: #0000ff"/>
   </g>
   <g id="patch_107">
    <path d="M 204.629068 41.652973 
L 402.782609 41.652973 
L 402.782609 33.48 
L 204.629068 33.48 
z
" clip-path="url(#paf9387424e)" style="fill: #0000ff"/>
   </g>
   <g id="patch_108">
    <path d="M 212.022857 41.652973 
L 383.558758 41.652973 
L 383.558758 33.48 
L 212.022857 33.48 
z
" clip-path="url(#paf9387424e)" style="fill: #0000ff"/>
   </g>
   <g id="patch_109">
    <path d="M 212.022857 41.652973 
L 365.813665 41.652973 
L 365.813665 33.48 
L 212.022857 33.48 
z
" clip-path="url(#paf9387424e)" style="fill: #0000ff"/>
   </g>
   <g id="patch_110">
    <path d="M 212.022857 41.652973 
L 380.601242 41.652973 
L 380.601242 33.48 
L 212.022857 33.48 
z
" clip-path="url(#paf9387424e)" style="fill: #0000ff"/>
   </g>
   <g id="patch_111">
    <path d="M 222.374161 41.652973 
L 377.643727 41.652973 
L 377.643727 33.48 
L 222.374161 33.48 
z
" clip-path="url(#paf9387424e)" style="fill: #0000ff"/>
   </g>
   <g id="patch_112">
    <path d="M 241.598012 41.652973 
L 377.643727 41.652973 
L 377.643727 33.48 
L 241.598012 33.48 
z
" clip-path="url(#paf9387424e)" style="fill: #0000ff"/>
   </g>
   <g id="patch_113">
    <path d="M 250.470559 41.652973 
L 377.643727 41.652973 
L 377.643727 33.48 
L 250.470559 33.48 
z
" clip-path="url(#paf9387424e)" style="fill: #0000ff"/>
   </g>
   <g id="patch_114">
    <path d="M 251.949317 41.652973 
L 348.068571 41.652973 
L 348.068571 33.48 
L 251.949317 33.48 
z
" clip-path="url(#paf9387424e)" style="fill: #0000ff"/>
   </g>
   <g id="patch_115">
    <path d="M 257.864348 41.652973 
L 377.643727 41.652973 
L 377.643727 33.48 
L 257.864348 33.48 
z
" clip-path="url(#paf9387424e)" style="fill: #0000ff"/>
   </g>
   <g id="patch_116">
    <path d="M 268.215652 41.652973 
L 423.485217 41.652973 
L 423.485217 33.48 
L 268.215652 33.48 
z
" clip-path="url(#paf9387424e)" style="fill: #0000ff"/>
   </g>
   <g id="patch_117">
    <path d="M 271.173168 41.652973 
L 377.643727 41.652973 
L 377.643727 33.48 
L 271.173168 33.48 
z
" clip-path="url(#paf9387424e)" style="fill: #0000ff"/>
   </g>
   <g id="patch_118">
    <path d="M 271.173168 41.652973 
L 414.612671 41.652973 
L 414.612671 33.48 
L 271.173168 33.48 
z
" clip-path="url(#paf9387424e)" style="fill: #0000ff"/>
   </g>
   <g id="patch_119">
    <path d="M 272.651925 41.652973 
L 401.303851 41.652973 
L 401.303851 33.48 
L 272.651925 33.48 
z
" clip-path="url(#paf9387424e)" style="fill: #0000ff"/>
   </g>
   <g id="patch_120">
    <path d="M 274.130683 41.652973 
L 377.643727 41.652973 
L 377.643727 33.48 
L 274.130683 33.48 
z
" clip-path="url(#paf9387424e)" style="fill: #0000ff"/>
   </g>
   <g id="patch_121">
    <path d="M 278.566957 41.652973 
L 413.133913 41.652973 
L 413.133913 33.48 
L 278.566957 33.48 
z
" clip-path="url(#paf9387424e)" style="fill: #0000ff"/>
   </g>
   <g id="patch_122">
    <path d="M 278.566957 41.652973 
L 413.133913 41.652973 
L 413.133913 33.48 
L 278.566957 33.48 
z
" clip-path="url(#paf9387424e)" style="fill: #0000ff"/>
   </g>
   <g id="patch_123">
    <path d="M 278.566957 41.652973 
L 377.643727 41.652973 
L 377.643727 33.48 
L 278.566957 33.48 
z
" clip-path="url(#paf9387424e)" style="fill: #0000ff"/>
   </g>
   <g id="patch_124">
    <path d="M 280.045714 41.652973 
L 377.643727 41.652973 
L 377.643727 33.48 
L 280.045714 33.48 
z
" clip-path="url(#paf9387424e)" style="fill: #0000ff"/>
   </g>
   <g id="patch_125">
    <path d="M 284.481988 41.652973 
L 377.643727 41.652973 
L 377.643727 33.48 
L 284.481988 33.48 
z
" clip-path="url(#paf9387424e)" style="fill: #0000ff"/>
   </g>
   <g id="patch_126">
    <path d="M 305.184596 41.652973 
L 349.547329 41.652973 
L 349.547329 33.48 
L 305.184596 33.48 
z
" clip-path="url(#paf9387424e)" style="fill: #0000ff"/>
   </g>
   <g id="patch_127">
    <path d="M 420.527702 41.652973 
L 658.607702 41.652973 
L 658.607702 33.48 
L 420.527702 33.48 
z
" clip-path="url(#paf9387424e)" style="fill: #0000ff"/>
   </g>
   <g id="patch_128">
    <path d="M 660.08646 37.872973 
L 738.460621 37.872973 
L 738.460621 37.26 
L 660.08646 37.26 
z
" clip-path="url(#paf9387424e)" style="fill: #0000ff"/>
   </g>
   <g id="matplotlib.axis_1">
    <g id="xtick_1">
     <g id="line2d_1">
      <defs>
       <path id="m11565ad920" d="M 0 0 
L 0 3.5 
" style="stroke: #000000; stroke-width: 0.8"/>
      </defs>
      <g>
       <use xlink:href="#m11565ad920" x="290.397019" y="192.24" style="stroke: #000000; stroke-width: 0.8"/>
      </g>
     </g>
     <g id="text_1">
      <!-- 100 -->
      <g transform="translate(280.853269 206.838437) scale(0.1 -0.1)">
       <defs>
        <path id="DejaVuSans-31" d="M 794 531 
L 1825 531 
L 1825 4091 
L 703 3866 
L 703 4441 
L 1819 4666 
L 2450 4666 
L 2450 531 
L 3481 531 
L 3481 0 
L 794 0 
L 794 531 
z
" transform="scale(0.015625)"/>
        <path id="DejaVuSans-30" d="M 2034 4250 
Q 1547 4250 1301 3770 
Q 1056 3291 1056 2328 
Q 1056 1369 1301 889 
Q 1547 409 2034 409 
Q 2525 409 2770 889 
Q 3016 1369 3016 2328 
Q 3016 3291 2770 3770 
Q 2525 4250 2034 4250 
z
M 2034 4750 
Q 2819 4750 3233 4129 
Q 3647 3509 3647 2328 
Q 3647 1150 3233 529 
Q 2819 -91 2034 -91 
Q 1250 -91 836 529 
Q 422 1150 422 2328 
Q 422 3509 836 4129 
Q 1250 4750 2034 4750 
z
" transform="scale(0.015625)"/>
       </defs>
       <use xlink:href="#DejaVuSans-31"/>
       <use xlink:href="#DejaVuSans-30" x="63.623047"/>
       <use xlink:href="#DejaVuSans-30" x="127.246094"/>
      </g>
     </g>
    </g>
    <g id="xtick_2">
     <g id="line2d_2">
      <g>
       <use xlink:href="#m11565ad920" x="438.272795" y="192.24" style="stroke: #000000; stroke-width: 0.8"/>
      </g>
     </g>
     <g id="text_2">
      <!-- 200 -->
      <g transform="translate(428.729045 206.838437) scale(0.1 -0.1)">
       <defs>
        <path id="DejaVuSans-32" d="M 1228 531 
L 3431 531 
L 3431 0 
L 469 0 
L 469 531 
Q 828 903 1448 1529 
Q 2069 2156 2228 2338 
Q 2531 2678 2651 2914 
Q 2772 3150 2772 3378 
Q 2772 3750 2511 3984 
Q 2250 4219 1831 4219 
Q 1534 4219 1204 4116 
Q 875 4013 500 3803 
L 500 4441 
Q 881 4594 1212 4672 
Q 1544 4750 1819 4750 
Q 2544 4750 2975 4387 
Q 3406 4025 3406 3419 
Q 3406 3131 3298 2873 
Q 3191 2616 2906 2266 
Q 2828 2175 2409 1742 
Q 1991 1309 1228 531 
z
" transform="scale(0.015625)"/>
       </defs>
       <use xlink:href="#DejaVuSans-32"/>
       <use xlink:href="#DejaVuSans-30" x="63.623047"/>
       <use xlink:href="#DejaVuSans-30" x="127.246094"/>
      </g>
     </g>
    </g>
    <g id="xtick_3">
     <g id="line2d_3">
      <g>
       <use xlink:href="#m11565ad920" x="586.148571" y="192.24" style="stroke: #000000; stroke-width: 0.8"/>
      </g>
     </g>
     <g id="text_3">
      <!-- 300 -->
      <g transform="translate(576.604821 206.838437) scale(0.1 -0.1)">
       <defs>
        <path id="DejaVuSans-33" d="M 2597 2516 
Q 3050 2419 3304 2112 
Q 3559 1806 3559 1356 
Q 3559 666 3084 287 
Q 2609 -91 1734 -91 
Q 1441 -91 1130 -33 
Q 819 25 488 141 
L 488 750 
Q 750 597 1062 519 
Q 1375 441 1716 441 
Q 2309 441 2620 675 
Q 2931 909 2931 1356 
Q 2931 1769 2642 2001 
Q 2353 2234 1838 2234 
L 1294 2234 
L 1294 2753 
L 1863 2753 
Q 2328 2753 2575 2939 
Q 2822 3125 2822 3475 
Q 2822 3834 2567 4026 
Q 2313 4219 1838 4219 
Q 1578 4219 1281 4162 
Q 984 4106 628 3988 
L 628 4550 
Q 988 4650 1302 4700 
Q 1616 4750 1894 4750 
Q 2613 4750 3031 4423 
Q 3450 4097 3450 3541 
Q 3450 3153 3228 2886 
Q 3006 2619 2597 2516 
z
" transform="scale(0.015625)"/>
       </defs>
       <use xlink:href="#DejaVuSans-33"/>
       <use xlink:href="#DejaVuSans-30" x="63.623047"/>
       <use xlink:href="#DejaVuSans-30" x="127.246094"/>
      </g>
     </g>
    </g>
    <g id="xtick_4">
     <g id="line2d_4">
      <g>
       <use xlink:href="#m11565ad920" x="734.024348" y="192.24" style="stroke: #000000; stroke-width: 0.8"/>
      </g>
     </g>
     <g id="text_4">
      <!-- 400 -->
      <g transform="translate(724.480598 206.838437) scale(0.1 -0.1)">
       <defs>
        <path id="DejaVuSans-34" d="M 2419 4116 
L 825 1625 
L 2419 1625 
L 2419 4116 
z
M 2253 4666 
L 3047 4666 
L 3047 1625 
L 3713 1625 
L 3713 1100 
L 3047 1100 
L 3047 0 
L 2419 0 
L 2419 1100 
L 313 1100 
L 313 1709 
L 2253 4666 
z
" transform="scale(0.015625)"/>
       </defs>
       <use xlink:href="#DejaVuSans-34"/>
       <use xlink:href="#DejaVuSans-30" x="63.623047"/>
       <use xlink:href="#DejaVuSans-30" x="127.246094"/>
      </g>
     </g>
    </g>
    <g id="xtick_5">
     <g id="line2d_5">
      <g>
       <use xlink:href="#m11565ad920" x="881.900124" y="192.24" style="stroke: #000000; stroke-width: 0.8"/>
      </g>
     </g>
     <g id="text_5">
      <!-- 500 -->
      <g transform="translate(872.356374 206.838437) scale(0.1 -0.1)">
       <defs>
        <path id="DejaVuSans-35" d="M 691 4666 
L 3169 4666 
L 3169 4134 
L 1269 4134 
L 1269 2991 
Q 1406 3038 1543 3061 
Q 1681 3084 1819 3084 
Q 2600 3084 3056 2656 
Q 3513 2228 3513 1497 
Q 3513 744 3044 326 
Q 2575 -91 1722 -91 
Q 1428 -91 1123 -41 
Q 819 9 494 109 
L 494 744 
Q 775 591 1075 516 
Q 1375 441 1709 441 
Q 2250 441 2565 725 
Q 2881 1009 2881 1497 
Q 2881 1984 2565 2268 
Q 2250 2553 1709 2553 
Q 1456 2553 1204 2497 
Q 953 2441 691 2322 
L 691 4666 
z
" transform="scale(0.015625)"/>
       </defs>
       <use xlink:href="#DejaVuSans-35"/>
       <use xlink:href="#DejaVuSans-30" x="63.623047"/>
       <use xlink:href="#DejaVuSans-30" x="127.246094"/>
      </g>
     </g>
    </g>
    <g id="xtick_6">
     <g id="line2d_6">
      <g>
       <use xlink:href="#m11565ad920" x="1029.775901" y="192.24" style="stroke: #000000; stroke-width: 0.8"/>
      </g>
     </g>
     <g id="text_6">
      <!-- 600 -->
      <g transform="translate(1020.232151 206.838437) scale(0.1 -0.1)">
       <defs>
        <path id="DejaVuSans-36" d="M 2113 2584 
Q 1688 2584 1439 2293 
Q 1191 2003 1191 1497 
Q 1191 994 1439 701 
Q 1688 409 2113 409 
Q 2538 409 2786 701 
Q 3034 994 3034 1497 
Q 3034 2003 2786 2293 
Q 2538 2584 2113 2584 
z
M 3366 4563 
L 3366 3988 
Q 3128 4100 2886 4159 
Q 2644 4219 2406 4219 
Q 1781 4219 1451 3797 
Q 1122 3375 1075 2522 
Q 1259 2794 1537 2939 
Q 1816 3084 2150 3084 
Q 2853 3084 3261 2657 
Q 3669 2231 3669 1497 
Q 3669 778 3244 343 
Q 2819 -91 2113 -91 
Q 1303 -91 875 529 
Q 447 1150 447 2328 
Q 447 3434 972 4092 
Q 1497 4750 2381 4750 
Q 2619 4750 2861 4703 
Q 3103 4656 3366 4563 
z
" transform="scale(0.015625)"/>
       </defs>
       <use xlink:href="#DejaVuSans-36"/>
       <use xlink:href="#DejaVuSans-30" x="63.623047"/>
       <use xlink:href="#DejaVuSans-30" x="127.246094"/>
      </g>
     </g>
    </g>
    <g id="text_7">
     <!-- Residual -->
     <g transform="translate(569.284375 220.516562) scale(0.1 -0.1)">
      <defs>
       <path id="DejaVuSans-52" d="M 2841 2188 
Q 3044 2119 3236 1894 
Q 3428 1669 3622 1275 
L 4263 0 
L 3584 0 
L 2988 1197 
Q 2756 1666 2539 1819 
Q 2322 1972 1947 1972 
L 1259 1972 
L 1259 0 
L 628 0 
L 628 4666 
L 2053 4666 
Q 2853 4666 3247 4331 
Q 3641 3997 3641 3322 
Q 3641 2881 3436 2590 
Q 3231 2300 2841 2188 
z
M 1259 4147 
L 1259 2491 
L 2053 2491 
Q 2509 2491 2742 2702 
Q 2975 2913 2975 3322 
Q 2975 3731 2742 3939 
Q 2509 4147 2053 4147 
L 1259 4147 
z
" transform="scale(0.015625)"/>
       <path id="DejaVuSans-65" d="M 3597 1894 
L 3597 1613 
L 953 1613 
Q 991 1019 1311 708 
Q 1631 397 2203 397 
Q 2534 397 2845 478 
Q 3156 559 3463 722 
L 3463 178 
Q 3153 47 2828 -22 
Q 2503 -91 2169 -91 
Q 1331 -91 842 396 
Q 353 884 353 1716 
Q 353 2575 817 3079 
Q 1281 3584 2069 3584 
Q 2775 3584 3186 3129 
Q 3597 2675 3597 1894 
z
M 3022 2063 
Q 3016 2534 2758 2815 
Q 2500 3097 2075 3097 
Q 1594 3097 1305 2825 
Q 1016 2553 972 2059 
L 3022 2063 
z
" transform="scale(0.015625)"/>
       <path id="DejaVuSans-73" d="M 2834 3397 
L 2834 2853 
Q 2591 2978 2328 3040 
Q 2066 3103 1784 3103 
Q 1356 3103 1142 2972 
Q 928 2841 928 2578 
Q 928 2378 1081 2264 
Q 1234 2150 1697 2047 
L 1894 2003 
Q 2506 1872 2764 1633 
Q 3022 1394 3022 966 
Q 3022 478 2636 193 
Q 2250 -91 1575 -91 
Q 1294 -91 989 -36 
Q 684 19 347 128 
L 347 722 
Q 666 556 975 473 
Q 1284 391 1588 391 
Q 1994 391 2212 530 
Q 2431 669 2431 922 
Q 2431 1156 2273 1281 
Q 2116 1406 1581 1522 
L 1381 1569 
Q 847 1681 609 1914 
Q 372 2147 372 2553 
Q 372 3047 722 3315 
Q 1072 3584 1716 3584 
Q 2034 3584 2315 3537 
Q 2597 3491 2834 3397 
z
" transform="scale(0.015625)"/>
       <path id="DejaVuSans-69" d="M 603 3500 
L 1178 3500 
L 1178 0 
L 603 0 
L 603 3500 
z
M 603 4863 
L 1178 4863 
L 1178 4134 
L 603 4134 
L 603 4863 
z
" transform="scale(0.015625)"/>
       <path id="DejaVuSans-64" d="M 2906 2969 
L 2906 4863 
L 3481 4863 
L 3481 0 
L 2906 0 
L 2906 525 
Q 2725 213 2448 61 
Q 2172 -91 1784 -91 
Q 1150 -91 751 415 
Q 353 922 353 1747 
Q 353 2572 751 3078 
Q 1150 3584 1784 3584 
Q 2172 3584 2448 3432 
Q 2725 3281 2906 2969 
z
M 947 1747 
Q 947 1113 1208 752 
Q 1469 391 1925 391 
Q 2381 391 2643 752 
Q 2906 1113 2906 1747 
Q 2906 2381 2643 2742 
Q 2381 3103 1925 3103 
Q 1469 3103 1208 2742 
Q 947 2381 947 1747 
z
" transform="scale(0.015625)"/>
       <path id="DejaVuSans-75" d="M 544 1381 
L 544 3500 
L 1119 3500 
L 1119 1403 
Q 1119 906 1312 657 
Q 1506 409 1894 409 
Q 2359 409 2629 706 
Q 2900 1003 2900 1516 
L 2900 3500 
L 3475 3500 
L 3475 0 
L 2900 0 
L 2900 538 
Q 2691 219 2414 64 
Q 2138 -91 1772 -91 
Q 1169 -91 856 284 
Q 544 659 544 1381 
z
M 1991 3584 
L 1991 3584 
z
" transform="scale(0.015625)"/>
       <path id="DejaVuSans-61" d="M 2194 1759 
Q 1497 1759 1228 1600 
Q 959 1441 959 1056 
Q 959 750 1161 570 
Q 1363 391 1709 391 
Q 2188 391 2477 730 
Q 2766 1069 2766 1631 
L 2766 1759 
L 2194 1759 
z
M 3341 1997 
L 3341 0 
L 2766 0 
L 2766 531 
Q 2569 213 2275 61 
Q 1981 -91 1556 -91 
Q 1019 -91 701 211 
Q 384 513 384 1019 
Q 384 1609 779 1909 
Q 1175 2209 1959 2209 
L 2766 2209 
L 2766 2266 
Q 2766 2663 2505 2880 
Q 2244 3097 1772 3097 
Q 1472 3097 1187 3025 
Q 903 2953 641 2809 
L 641 3341 
Q 956 3463 1253 3523 
Q 1550 3584 1831 3584 
Q 2591 3584 2966 3190 
Q 3341 2797 3341 1997 
z
" transform="scale(0.015625)"/>
       <path id="DejaVuSans-6c" d="M 603 4863 
L 1178 4863 
L 1178 0 
L 603 0 
L 603 4863 
z
" transform="scale(0.015625)"/>
      </defs>
      <use xlink:href="#DejaVuSans-52"/>
      <use xlink:href="#DejaVuSans-65" x="64.982422"/>
      <use xlink:href="#DejaVuSans-73" x="126.505859"/>
      <use xlink:href="#DejaVuSans-69" x="178.605469"/>
      <use xlink:href="#DejaVuSans-64" x="206.388672"/>
      <use xlink:href="#DejaVuSans-75" x="269.865234"/>
      <use xlink:href="#DejaVuSans-61" x="333.244141"/>
      <use xlink:href="#DejaVuSans-6c" x="394.523438"/>
     </g>
    </g>
   </g>
   <g id="matplotlib.axis_2">
    <g id="ytick_1">
     <g id="line2d_7">
      <defs>
       <path id="m95d761ffaa" d="M 0 0 
L -3.5 0 
" style="stroke: #000000; stroke-width: 0.8"/>
      </defs>
      <g>
       <use xlink:href="#m95d761ffaa" x="144" y="180.593514" style="stroke: #000000; stroke-width: 0.8"/>
      </g>
     </g>
     <g id="text_8">
      <!-- 1.A.51.1.1 -->
      <g transform="translate(85.809375 184.392732) scale(0.1 -0.1)">
       <defs>
        <path id="DejaVuSans-2e" d="M 684 794 
L 1344 794 
L 1344 0 
L 684 0 
L 684 794 
z
" transform="scale(0.015625)"/>
        <path id="DejaVuSans-41" d="M 2188 4044 
L 1331 1722 
L 3047 1722 
L 2188 4044 
z
M 1831 4666 
L 2547 4666 
L 4325 0 
L 3669 0 
L 3244 1197 
L 1141 1197 
L 716 0 
L 50 0 
L 1831 4666 
z
" transform="scale(0.015625)"/>
       </defs>
       <use xlink:href="#DejaVuSans-31"/>
       <use xlink:href="#DejaVuSans-2e" x="63.623047"/>
       <use xlink:href="#DejaVuSans-41" x="95.410156"/>
       <use xlink:href="#DejaVuSans-2e" x="162.068359"/>
       <use xlink:href="#DejaVuSans-35" x="193.855469"/>
       <use xlink:href="#DejaVuSans-31" x="257.478516"/>
       <use xlink:href="#DejaVuSans-2e" x="321.101562"/>
       <use xlink:href="#DejaVuSans-31" x="352.888672"/>
       <use xlink:href="#DejaVuSans-2e" x="416.511719"/>
       <use xlink:href="#DejaVuSans-31" x="448.298828"/>
      </g>
     </g>
    </g>
    <g id="ytick_2">
     <g id="line2d_8">
      <g>
       <use xlink:href="#m95d761ffaa" x="144" y="160.161081" style="stroke: #000000; stroke-width: 0.8"/>
      </g>
     </g>
     <g id="text_9">
      <!-- 1.A.51.1.2 -->
      <g transform="translate(85.809375 163.9603) scale(0.1 -0.1)">
       <use xlink:href="#DejaVuSans-31"/>
       <use xlink:href="#DejaVuSans-2e" x="63.623047"/>
       <use xlink:href="#DejaVuSans-41" x="95.410156"/>
       <use xlink:href="#DejaVuSans-2e" x="162.068359"/>
       <use xlink:href="#DejaVuSans-35" x="193.855469"/>
       <use xlink:href="#DejaVuSans-31" x="257.478516"/>
       <use xlink:href="#DejaVuSans-2e" x="321.101562"/>
       <use xlink:href="#DejaVuSans-31" x="352.888672"/>
       <use xlink:href="#DejaVuSans-2e" x="416.511719"/>
       <use xlink:href="#DejaVuSans-32" x="448.298828"/>
      </g>
     </g>
    </g>
    <g id="ytick_3">
     <g id="line2d_9">
      <g>
       <use xlink:href="#m95d761ffaa" x="144" y="139.728649" style="stroke: #000000; stroke-width: 0.8"/>
      </g>
     </g>
     <g id="text_10">
      <!-- 1.A.51.1.5 -->
      <g transform="translate(85.809375 143.527867) scale(0.1 -0.1)">
       <use xlink:href="#DejaVuSans-31"/>
       <use xlink:href="#DejaVuSans-2e" x="63.623047"/>
       <use xlink:href="#DejaVuSans-41" x="95.410156"/>
       <use xlink:href="#DejaVuSans-2e" x="162.068359"/>
       <use xlink:href="#DejaVuSans-35" x="193.855469"/>
       <use xlink:href="#DejaVuSans-31" x="257.478516"/>
       <use xlink:href="#DejaVuSans-2e" x="321.101562"/>
       <use xlink:href="#DejaVuSans-31" x="352.888672"/>
       <use xlink:href="#DejaVuSans-2e" x="416.511719"/>
       <use xlink:href="#DejaVuSans-35" x="448.298828"/>
      </g>
     </g>
    </g>
    <g id="ytick_4">
     <g id="line2d_10">
      <g>
       <use xlink:href="#m95d761ffaa" x="144" y="119.296216" style="stroke: #000000; stroke-width: 0.8"/>
      </g>
     </g>
     <g id="text_11">
      <!-- 1.A.51.1.7 -->
      <g transform="translate(85.809375 123.095435) scale(0.1 -0.1)">
       <defs>
        <path id="DejaVuSans-37" d="M 525 4666 
L 3525 4666 
L 3525 4397 
L 1831 0 
L 1172 0 
L 2766 4134 
L 525 4134 
L 525 4666 
z
" transform="scale(0.015625)"/>
       </defs>
       <use xlink:href="#DejaVuSans-31"/>
       <use xlink:href="#DejaVuSans-2e" x="63.623047"/>
       <use xlink:href="#DejaVuSans-41" x="95.410156"/>
       <use xlink:href="#DejaVuSans-2e" x="162.068359"/>
       <use xlink:href="#DejaVuSans-35" x="193.855469"/>
       <use xlink:href="#DejaVuSans-31" x="257.478516"/>
       <use xlink:href="#DejaVuSans-2e" x="321.101562"/>
       <use xlink:href="#DejaVuSans-31" x="352.888672"/>
       <use xlink:href="#DejaVuSans-2e" x="416.511719"/>
       <use xlink:href="#DejaVuSans-37" x="448.298828"/>
      </g>
     </g>
    </g>
    <g id="ytick_5">
     <g id="line2d_11">
      <g>
       <use xlink:href="#m95d761ffaa" x="144" y="98.863784" style="stroke: #000000; stroke-width: 0.8"/>
      </g>
     </g>
     <g id="text_12">
      <!-- 1.A.51.2.1 -->
      <g transform="translate(85.809375 102.663003) scale(0.1 -0.1)">
       <use xlink:href="#DejaVuSans-31"/>
       <use xlink:href="#DejaVuSans-2e" x="63.623047"/>
       <use xlink:href="#DejaVuSans-41" x="95.410156"/>
       <use xlink:href="#DejaVuSans-2e" x="162.068359"/>
       <use xlink:href="#DejaVuSans-35" x="193.855469"/>
       <use xlink:href="#DejaVuSans-31" x="257.478516"/>
       <use xlink:href="#DejaVuSans-2e" x="321.101562"/>
       <use xlink:href="#DejaVuSans-32" x="352.888672"/>
       <use xlink:href="#DejaVuSans-2e" x="416.511719"/>
       <use xlink:href="#DejaVuSans-31" x="448.298828"/>
      </g>
     </g>
    </g>
    <g id="ytick_6">
     <g id="line2d_12">
      <g>
       <use xlink:href="#m95d761ffaa" x="144" y="78.431351" style="stroke: #000000; stroke-width: 0.8"/>
      </g>
     </g>
     <g id="text_13">
      <!-- 1.A.51.2.2 -->
      <g transform="translate(85.809375 82.23057) scale(0.1 -0.1)">
       <use xlink:href="#DejaVuSans-31"/>
       <use xlink:href="#DejaVuSans-2e" x="63.623047"/>
       <use xlink:href="#DejaVuSans-41" x="95.410156"/>
       <use xlink:href="#DejaVuSans-2e" x="162.068359"/>
       <use xlink:href="#DejaVuSans-35" x="193.855469"/>
       <use xlink:href="#DejaVuSans-31" x="257.478516"/>
       <use xlink:href="#DejaVuSans-2e" x="321.101562"/>
       <use xlink:href="#DejaVuSans-32" x="352.888672"/>
       <use xlink:href="#DejaVuSans-2e" x="416.511719"/>
       <use xlink:href="#DejaVuSans-32" x="448.298828"/>
      </g>
     </g>
    </g>
    <g id="ytick_7">
     <g id="line2d_13">
      <g>
       <use xlink:href="#m95d761ffaa" x="144" y="57.998919" style="stroke: #000000; stroke-width: 0.8"/>
      </g>
     </g>
     <g id="text_14">
      <!-- 1.A.51.2.3 -->
      <g transform="translate(85.809375 61.798138) scale(0.1 -0.1)">
       <use xlink:href="#DejaVuSans-31"/>
       <use xlink:href="#DejaVuSans-2e" x="63.623047"/>
       <use xlink:href="#DejaVuSans-41" x="95.410156"/>
       <use xlink:href="#DejaVuSans-2e" x="162.068359"/>
       <use xlink:href="#DejaVuSans-35" x="193.855469"/>
       <use xlink:href="#DejaVuSans-31" x="257.478516"/>
       <use xlink:href="#DejaVuSans-2e" x="321.101562"/>
       <use xlink:href="#DejaVuSans-32" x="352.888672"/>
       <use xlink:href="#DejaVuSans-2e" x="416.511719"/>
       <use xlink:href="#DejaVuSans-33" x="448.298828"/>
      </g>
     </g>
    </g>
    <g id="ytick_8">
     <g id="line2d_14">
      <g>
       <use xlink:href="#m95d761ffaa" x="144" y="37.566486" style="stroke: #000000; stroke-width: 0.8"/>
      </g>
     </g>
     <g id="text_15">
      <!-- 1.A.51.2.4 -->
      <g transform="translate(85.809375 41.365705) scale(0.1 -0.1)">
       <use xlink:href="#DejaVuSans-31"/>
       <use xlink:href="#DejaVuSans-2e" x="63.623047"/>
       <use xlink:href="#DejaVuSans-41" x="95.410156"/>
       <use xlink:href="#DejaVuSans-2e" x="162.068359"/>
       <use xlink:href="#DejaVuSans-35" x="193.855469"/>
       <use xlink:href="#DejaVuSans-31" x="257.478516"/>
       <use xlink:href="#DejaVuSans-2e" x="321.101562"/>
       <use xlink:href="#DejaVuSans-32" x="352.888672"/>
       <use xlink:href="#DejaVuSans-2e" x="416.511719"/>
       <use xlink:href="#DejaVuSans-34" x="448.298828"/>
      </g>
     </g>
    </g>
   </g>
   <g id="patch_129">
    <path d="M 144 192.24 
L 144 25.92 
" style="fill: none; stroke: #000000; stroke-width: 0.8; stroke-linejoin: miter; stroke-linecap: square"/>
   </g>
   <g id="patch_130">
    <path d="M 1036.8 192.24 
L 1036.8 25.92 
" style="fill: none; stroke: #000000; stroke-width: 0.8; stroke-linejoin: miter; stroke-linecap: square"/>
   </g>
   <g id="patch_131">
    <path d="M 144 192.24 
L 1036.8 192.24 
" style="fill: none; stroke: #000000; stroke-width: 0.8; stroke-linejoin: miter; stroke-linecap: square"/>
   </g>
   <g id="patch_132">
    <path d="M 144 25.92 
L 1036.8 25.92 
" style="fill: none; stroke: #000000; stroke-width: 0.8; stroke-linejoin: miter; stroke-linecap: square"/>
   </g>
   <g id="text_16">
    <!-- 1.A.51 Summary -->
    <g transform="translate(540.2325 19.92) scale(0.12 -0.12)">
     <defs>
      <path id="DejaVuSans-20" transform="scale(0.015625)"/>
      <path id="DejaVuSans-53" d="M 3425 4513 
L 3425 3897 
Q 3066 4069 2747 4153 
Q 2428 4238 2131 4238 
Q 1616 4238 1336 4038 
Q 1056 3838 1056 3469 
Q 1056 3159 1242 3001 
Q 1428 2844 1947 2747 
L 2328 2669 
Q 3034 2534 3370 2195 
Q 3706 1856 3706 1288 
Q 3706 609 3251 259 
Q 2797 -91 1919 -91 
Q 1588 -91 1214 -16 
Q 841 59 441 206 
L 441 856 
Q 825 641 1194 531 
Q 1563 422 1919 422 
Q 2459 422 2753 634 
Q 3047 847 3047 1241 
Q 3047 1584 2836 1778 
Q 2625 1972 2144 2069 
L 1759 2144 
Q 1053 2284 737 2584 
Q 422 2884 422 3419 
Q 422 4038 858 4394 
Q 1294 4750 2059 4750 
Q 2388 4750 2728 4690 
Q 3069 4631 3425 4513 
z
" transform="scale(0.015625)"/>
      <path id="DejaVuSans-6d" d="M 3328 2828 
Q 3544 3216 3844 3400 
Q 4144 3584 4550 3584 
Q 5097 3584 5394 3201 
Q 5691 2819 5691 2113 
L 5691 0 
L 5113 0 
L 5113 2094 
Q 5113 2597 4934 2840 
Q 4756 3084 4391 3084 
Q 3944 3084 3684 2787 
Q 3425 2491 3425 1978 
L 3425 0 
L 2847 0 
L 2847 2094 
Q 2847 2600 2669 2842 
Q 2491 3084 2119 3084 
Q 1678 3084 1418 2786 
Q 1159 2488 1159 1978 
L 1159 0 
L 581 0 
L 581 3500 
L 1159 3500 
L 1159 2956 
Q 1356 3278 1631 3431 
Q 1906 3584 2284 3584 
Q 2666 3584 2933 3390 
Q 3200 3197 3328 2828 
z
" transform="scale(0.015625)"/>
      <path id="DejaVuSans-72" d="M 2631 2963 
Q 2534 3019 2420 3045 
Q 2306 3072 2169 3072 
Q 1681 3072 1420 2755 
Q 1159 2438 1159 1844 
L 1159 0 
L 581 0 
L 581 3500 
L 1159 3500 
L 1159 2956 
Q 1341 3275 1631 3429 
Q 1922 3584 2338 3584 
Q 2397 3584 2469 3576 
Q 2541 3569 2628 3553 
L 2631 2963 
z
" transform="scale(0.015625)"/>
      <path id="DejaVuSans-79" d="M 2059 -325 
Q 1816 -950 1584 -1140 
Q 1353 -1331 966 -1331 
L 506 -1331 
L 506 -850 
L 844 -850 
Q 1081 -850 1212 -737 
Q 1344 -625 1503 -206 
L 1606 56 
L 191 3500 
L 800 3500 
L 1894 763 
L 2988 3500 
L 3597 3500 
L 2059 -325 
z
" transform="scale(0.015625)"/>
     </defs>
     <use xlink:href="#DejaVuSans-31"/>
     <use xlink:href="#DejaVuSans-2e" x="63.623047"/>
     <use xlink:href="#DejaVuSans-41" x="95.410156"/>
     <use xlink:href="#DejaVuSans-2e" x="162.068359"/>
     <use xlink:href="#DejaVuSans-35" x="193.855469"/>
     <use xlink:href="#DejaVuSans-31" x="257.478516"/>
     <use xlink:href="#DejaVuSans-20" x="321.101562"/>
     <use xlink:href="#DejaVuSans-53" x="352.888672"/>
     <use xlink:href="#DejaVuSans-75" x="416.365234"/>
     <use xlink:href="#DejaVuSans-6d" x="479.744141"/>
     <use xlink:href="#DejaVuSans-6d" x="577.15625"/>
     <use xlink:href="#DejaVuSans-61" x="674.568359"/>
     <use xlink:href="#DejaVuSans-72" x="735.847656"/>
     <use xlink:href="#DejaVuSans-79" x="776.960938"/>
    </g>
   </g>
  </g>
 </g>
 <defs>
  <clipPath id="paf9387424e">
   <rect x="144" y="25.92" width="892.8" height="166.32"/>
  </clipPath>
 </defs>
</svg>
