<?xml version="1.0" encoding="utf-8" standalone="no"?>
<!DOCTYPE svg PUBLIC "-//W3C//DTD SVG 1.1//EN"
  "http://www.w3.org/Graphics/SVG/1.1/DTD/svg11.dtd">
<svg xmlns:xlink="http://www.w3.org/1999/xlink" width="1152pt" height="252pt" viewBox="0 0 1152 252" xmlns="http://www.w3.org/2000/svg" version="1.1">
 <metadata>
  <rdf:RDF xmlns:dc="http://purl.org/dc/elements/1.1/" xmlns:cc="http://creativecommons.org/ns#" xmlns:rdf="http://www.w3.org/1999/02/22-rdf-syntax-ns#">
   <cc:Work>
    <dc:type rdf:resource="http://purl.org/dc/dcmitype/StillImage"/>
    <dc:date>2024-10-10T19:09:00.220439</dc:date>
    <dc:format>image/svg+xml</dc:format>
    <dc:creator>
     <cc:Agent>
      <dc:title>Matplotlib v3.9.2, https://matplotlib.org/</dc:title>
     </cc:Agent>
    </dc:creator>
   </cc:Work>
  </rdf:RDF>
 </metadata>
 <defs>
  <style type="text/css">*{stroke-linejoin: round; stroke-linecap: butt}</style>
 </defs>
 <g id="figure_1">
  <g id="patch_1">
   <path d="M 0 252 
L 1152 252 
L 1152 0 
L 0 0 
z
" style="fill: #ffffff"/>
  </g>
  <g id="axes_1">
   <g id="patch_2">
    <path d="M 144 224.28 
L 1036.8 224.28 
L 1036.8 30.24 
L 144 30.24 
z
" style="fill: #ffffff"/>
   </g>
   <g id="patch_3">
    <path d="M 144 215.46 
L 601.846154 215.46 
L 601.846154 209.270526 
L 144 209.270526 
z
" clip-path="url(#p8f48f23eac)" style="fill: #0000ff"/>
   </g>
   <g id="patch_4">
    <path d="M 144 215.46 
L 325.354645 215.46 
L 325.354645 209.270526 
L 144 209.270526 
z
" clip-path="url(#p8f48f23eac)" style="fill: #0000ff"/>
   </g>
   <g id="patch_5">
    <path d="M 144 215.46 
L 606.305694 215.46 
L 606.305694 209.270526 
L 144 209.270526 
z
" clip-path="url(#p8f48f23eac)" style="fill: #0000ff"/>
   </g>
   <g id="patch_6">
    <path d="M 144 215.46 
L 313.462537 215.46 
L 313.462537 209.270526 
L 144 209.270526 
z
" clip-path="url(#p8f48f23eac)" style="fill: #0000ff"/>
   </g>
   <g id="patch_7">
    <path d="M 144 215.46 
L 313.462537 215.46 
L 313.462537 209.270526 
L 144 209.270526 
z
" clip-path="url(#p8f48f23eac)" style="fill: #0000ff"/>
   </g>
   <g id="patch_8">
    <path d="M 144 215.46 
L 309.002997 215.46 
L 309.002997 209.270526 
L 144 209.270526 
z
" clip-path="url(#p8f48f23eac)" style="fill: #0000ff"/>
   </g>
   <g id="patch_9">
    <path d="M 144 215.46 
L 309.002997 215.46 
L 309.002997 209.270526 
L 144 209.270526 
z
" clip-path="url(#p8f48f23eac)" style="fill: #0000ff"/>
   </g>
   <g id="patch_10">
    <path d="M 144 215.46 
L 310.48951 215.46 
L 310.48951 209.270526 
L 144 209.270526 
z
" clip-path="url(#p8f48f23eac)" style="fill: #0000ff"/>
   </g>
   <g id="patch_11">
    <path d="M 144 215.46 
L 313.462537 215.46 
L 313.462537 209.270526 
L 144 209.270526 
z
" clip-path="url(#p8f48f23eac)" style="fill: #0000ff"/>
   </g>
   <g id="patch_12">
    <path d="M 144 215.46 
L 309.002997 215.46 
L 309.002997 209.270526 
L 144 209.270526 
z
" clip-path="url(#p8f48f23eac)" style="fill: #0000ff"/>
   </g>
   <g id="patch_13">
    <path d="M 144 215.46 
L 307.516484 215.46 
L 307.516484 209.270526 
L 144 209.270526 
z
" clip-path="url(#p8f48f23eac)" style="fill: #0000ff"/>
   </g>
   <g id="patch_14">
    <path d="M 144 215.46 
L 309.002997 215.46 
L 309.002997 209.270526 
L 144 209.270526 
z
" clip-path="url(#p8f48f23eac)" style="fill: #0000ff"/>
   </g>
   <g id="patch_15">
    <path d="M 144 215.46 
L 309.002997 215.46 
L 309.002997 209.270526 
L 144 209.270526 
z
" clip-path="url(#p8f48f23eac)" style="fill: #0000ff"/>
   </g>
   <g id="patch_16">
    <path d="M 144 215.46 
L 313.462537 215.46 
L 313.462537 209.270526 
L 144 209.270526 
z
" clip-path="url(#p8f48f23eac)" style="fill: #0000ff"/>
   </g>
   <g id="patch_17">
    <path d="M 144 215.46 
L 317.922078 215.46 
L 317.922078 209.270526 
L 144 209.270526 
z
" clip-path="url(#p8f48f23eac)" style="fill: #0000ff"/>
   </g>
   <g id="patch_18">
    <path d="M 144 215.46 
L 317.922078 215.46 
L 317.922078 209.270526 
L 144 209.270526 
z
" clip-path="url(#p8f48f23eac)" style="fill: #0000ff"/>
   </g>
   <g id="patch_19">
    <path d="M 144 215.46 
L 313.462537 215.46 
L 313.462537 209.270526 
L 144 209.270526 
z
" clip-path="url(#p8f48f23eac)" style="fill: #0000ff"/>
   </g>
   <g id="patch_20">
    <path d="M 144 215.46 
L 313.462537 215.46 
L 313.462537 209.270526 
L 144 209.270526 
z
" clip-path="url(#p8f48f23eac)" style="fill: #0000ff"/>
   </g>
   <g id="patch_21">
    <path d="M 144 215.46 
L 297.110889 215.46 
L 297.110889 209.270526 
L 144 209.270526 
z
" clip-path="url(#p8f48f23eac)" style="fill: #0000ff"/>
   </g>
   <g id="patch_22">
    <path d="M 144 215.46 
L 224.271728 215.46 
L 224.271728 209.270526 
L 144 209.270526 
z
" clip-path="url(#p8f48f23eac)" style="fill: #0000ff"/>
   </g>
   <g id="patch_23">
    <path d="M 145.486513 215.46 
L 317.922078 215.46 
L 317.922078 209.270526 
L 145.486513 209.270526 
z
" clip-path="url(#p8f48f23eac)" style="fill: #0000ff"/>
   </g>
   <g id="patch_24">
    <path d="M 145.486513 215.46 
L 310.48951 215.46 
L 310.48951 209.270526 
L 145.486513 209.270526 
z
" clip-path="url(#p8f48f23eac)" style="fill: #0000ff"/>
   </g>
   <g id="patch_25">
    <path d="M 145.486513 215.46 
L 310.48951 215.46 
L 310.48951 209.270526 
L 145.486513 209.270526 
z
" clip-path="url(#p8f48f23eac)" style="fill: #0000ff"/>
   </g>
   <g id="patch_26">
    <path d="M 146.973027 215.46 
L 309.002997 215.46 
L 309.002997 209.270526 
L 146.973027 209.270526 
z
" clip-path="url(#p8f48f23eac)" style="fill: #0000ff"/>
   </g>
   <g id="patch_27">
    <path d="M 148.45954 215.46 
L 227.244755 215.46 
L 227.244755 209.270526 
L 148.45954 209.270526 
z
" clip-path="url(#p8f48f23eac)" style="fill: #0000ff"/>
   </g>
   <g id="patch_28">
    <path d="M 151.432567 215.46 
L 301.57043 215.46 
L 301.57043 209.270526 
L 151.432567 209.270526 
z
" clip-path="url(#p8f48f23eac)" style="fill: #0000ff"/>
   </g>
   <g id="patch_29">
    <path d="M 151.432567 215.46 
L 313.462537 215.46 
L 313.462537 209.270526 
L 151.432567 209.270526 
z
" clip-path="url(#p8f48f23eac)" style="fill: #0000ff"/>
   </g>
   <g id="patch_30">
    <path d="M 151.432567 215.46 
L 310.48951 215.46 
L 310.48951 209.270526 
L 151.432567 209.270526 
z
" clip-path="url(#p8f48f23eac)" style="fill: #0000ff"/>
   </g>
   <g id="patch_31">
    <path d="M 151.432567 215.46 
L 298.597403 215.46 
L 298.597403 209.270526 
L 151.432567 209.270526 
z
" clip-path="url(#p8f48f23eac)" style="fill: #0000ff"/>
   </g>
   <g id="patch_32">
    <path d="M 188.595405 215.46 
L 307.516484 215.46 
L 307.516484 209.270526 
L 188.595405 209.270526 
z
" clip-path="url(#p8f48f23eac)" style="fill: #0000ff"/>
   </g>
   <g id="patch_33">
    <path d="M 188.595405 215.46 
L 307.516484 215.46 
L 307.516484 209.270526 
L 188.595405 209.270526 
z
" clip-path="url(#p8f48f23eac)" style="fill: #0000ff"/>
   </g>
   <g id="patch_34">
    <path d="M 191.568432 215.46 
L 309.002997 215.46 
L 309.002997 209.270526 
L 191.568432 209.270526 
z
" clip-path="url(#p8f48f23eac)" style="fill: #0000ff"/>
   </g>
   <g id="patch_35">
    <path d="M 191.568432 215.46 
L 334.273726 215.46 
L 334.273726 209.270526 
L 191.568432 209.270526 
z
" clip-path="url(#p8f48f23eac)" style="fill: #0000ff"/>
   </g>
   <g id="patch_36">
    <path d="M 193.054945 215.46 
L 326.841159 215.46 
L 326.841159 209.270526 
L 193.054945 209.270526 
z
" clip-path="url(#p8f48f23eac)" style="fill: #0000ff"/>
   </g>
   <g id="patch_37">
    <path d="M 193.054945 215.46 
L 310.48951 215.46 
L 310.48951 209.270526 
L 193.054945 209.270526 
z
" clip-path="url(#p8f48f23eac)" style="fill: #0000ff"/>
   </g>
   <g id="patch_38">
    <path d="M 193.054945 215.46 
L 310.48951 215.46 
L 310.48951 209.270526 
L 193.054945 209.270526 
z
" clip-path="url(#p8f48f23eac)" style="fill: #0000ff"/>
   </g>
   <g id="patch_39">
    <path d="M 193.054945 215.46 
L 313.462537 215.46 
L 313.462537 209.270526 
L 193.054945 209.270526 
z
" clip-path="url(#p8f48f23eac)" style="fill: #0000ff"/>
   </g>
   <g id="patch_40">
    <path d="M 194.541459 215.46 
L 313.462537 215.46 
L 313.462537 209.270526 
L 194.541459 209.270526 
z
" clip-path="url(#p8f48f23eac)" style="fill: #0000ff"/>
   </g>
   <g id="patch_41">
    <path d="M 196.027972 215.46 
L 314.949051 215.46 
L 314.949051 209.270526 
L 196.027972 209.270526 
z
" clip-path="url(#p8f48f23eac)" style="fill: #0000ff"/>
   </g>
   <g id="patch_42">
    <path d="M 196.027972 215.46 
L 309.002997 215.46 
L 309.002997 209.270526 
L 196.027972 209.270526 
z
" clip-path="url(#p8f48f23eac)" style="fill: #0000ff"/>
   </g>
   <g id="patch_43">
    <path d="M 196.027972 215.46 
L 310.48951 215.46 
L 310.48951 209.270526 
L 196.027972 209.270526 
z
" clip-path="url(#p8f48f23eac)" style="fill: #0000ff"/>
   </g>
   <g id="patch_44">
    <path d="M 196.027972 215.46 
L 309.002997 215.46 
L 309.002997 209.270526 
L 196.027972 209.270526 
z
" clip-path="url(#p8f48f23eac)" style="fill: #0000ff"/>
   </g>
   <g id="patch_45">
    <path d="M 196.027972 215.46 
L 309.002997 215.46 
L 309.002997 209.270526 
L 196.027972 209.270526 
z
" clip-path="url(#p8f48f23eac)" style="fill: #0000ff"/>
   </g>
   <g id="patch_46">
    <path d="M 196.027972 215.46 
L 307.516484 215.46 
L 307.516484 209.270526 
L 196.027972 209.270526 
z
" clip-path="url(#p8f48f23eac)" style="fill: #0000ff"/>
   </g>
   <g id="patch_47">
    <path d="M 196.027972 215.46 
L 309.002997 215.46 
L 309.002997 209.270526 
L 196.027972 209.270526 
z
" clip-path="url(#p8f48f23eac)" style="fill: #0000ff"/>
   </g>
   <g id="patch_48">
    <path d="M 196.027972 215.46 
L 307.516484 215.46 
L 307.516484 209.270526 
L 196.027972 209.270526 
z
" clip-path="url(#p8f48f23eac)" style="fill: #0000ff"/>
   </g>
   <g id="patch_49">
    <path d="M 196.027972 215.46 
L 301.57043 215.46 
L 301.57043 209.270526 
L 196.027972 209.270526 
z
" clip-path="url(#p8f48f23eac)" style="fill: #0000ff"/>
   </g>
   <g id="patch_50">
    <path d="M 196.027972 215.46 
L 309.002997 215.46 
L 309.002997 209.270526 
L 196.027972 209.270526 
z
" clip-path="url(#p8f48f23eac)" style="fill: #0000ff"/>
   </g>
   <g id="patch_51">
    <path d="M 197.514486 215.46 
L 309.002997 215.46 
L 309.002997 209.270526 
L 197.514486 209.270526 
z
" clip-path="url(#p8f48f23eac)" style="fill: #0000ff"/>
   </g>
   <g id="patch_52">
    <path d="M 204.947053 215.46 
L 314.949051 215.46 
L 314.949051 209.270526 
L 204.947053 209.270526 
z
" clip-path="url(#p8f48f23eac)" style="fill: #0000ff"/>
   </g>
   <g id="patch_53">
    <path d="M 204.947053 215.46 
L 313.462537 215.46 
L 313.462537 209.270526 
L 204.947053 209.270526 
z
" clip-path="url(#p8f48f23eac)" style="fill: #0000ff"/>
   </g>
   <g id="patch_54">
    <path d="M 215.352647 215.46 
L 334.273726 215.46 
L 334.273726 209.270526 
L 215.352647 209.270526 
z
" clip-path="url(#p8f48f23eac)" style="fill: #0000ff"/>
   </g>
   <g id="patch_55">
    <path d="M 231.704296 215.46 
L 314.949051 215.46 
L 314.949051 209.270526 
L 231.704296 209.270526 
z
" clip-path="url(#p8f48f23eac)" style="fill: #0000ff"/>
   </g>
   <g id="patch_56">
    <path d="M 233.190809 215.46 
L 317.922078 215.46 
L 317.922078 209.270526 
L 233.190809 209.270526 
z
" clip-path="url(#p8f48f23eac)" style="fill: #0000ff"/>
   </g>
   <g id="patch_57">
    <path d="M 233.190809 215.46 
L 313.462537 215.46 
L 313.462537 209.270526 
L 233.190809 209.270526 
z
" clip-path="url(#p8f48f23eac)" style="fill: #0000ff"/>
   </g>
   <g id="patch_58">
    <path d="M 233.190809 215.46 
L 316.435564 215.46 
L 316.435564 209.270526 
L 233.190809 209.270526 
z
" clip-path="url(#p8f48f23eac)" style="fill: #0000ff"/>
   </g>
   <g id="patch_59">
    <path d="M 243.596404 215.46 
L 314.949051 215.46 
L 314.949051 209.270526 
L 243.596404 209.270526 
z
" clip-path="url(#p8f48f23eac)" style="fill: #0000ff"/>
   </g>
   <g id="patch_60">
    <path d="M 361.030969 215.46 
L 595.9001 215.46 
L 595.9001 209.270526 
L 361.030969 209.270526 
z
" clip-path="url(#p8f48f23eac)" style="fill: #0000ff"/>
   </g>
   <g id="patch_61">
    <path d="M 411.572428 215.46 
L 591.440559 215.46 
L 591.440559 209.270526 
L 411.572428 209.270526 
z
" clip-path="url(#p8f48f23eac)" style="fill: #0000ff"/>
   </g>
   <g id="patch_62">
    <path d="M 144 197.123684 
L 145.486513 197.123684 
L 145.486513 196.659474 
L 144 196.659474 
z
" clip-path="url(#p8f48f23eac)" style="fill: #0000ff"/>
   </g>
   <g id="patch_63">
    <path d="M 146.973027 199.986316 
L 806.985015 199.986316 
L 806.985015 193.796842 
L 146.973027 193.796842 
z
" clip-path="url(#p8f48f23eac)" style="fill: #0000ff"/>
   </g>
   <g id="patch_64">
    <path d="M 155.892108 199.986316 
L 808.471528 199.986316 
L 808.471528 193.796842 
L 155.892108 193.796842 
z
" clip-path="url(#p8f48f23eac)" style="fill: #0000ff"/>
   </g>
   <g id="patch_65">
    <path d="M 184.135864 199.986316 
L 341.706294 199.986316 
L 341.706294 193.796842 
L 184.135864 193.796842 
z
" clip-path="url(#p8f48f23eac)" style="fill: #0000ff"/>
   </g>
   <g id="patch_66">
    <path d="M 184.135864 199.986316 
L 338.733267 199.986316 
L 338.733267 193.796842 
L 184.135864 193.796842 
z
" clip-path="url(#p8f48f23eac)" style="fill: #0000ff"/>
   </g>
   <g id="patch_67">
    <path d="M 212.37962 199.986316 
L 323.868132 199.986316 
L 323.868132 193.796842 
L 212.37962 193.796842 
z
" clip-path="url(#p8f48f23eac)" style="fill: #0000ff"/>
   </g>
   <g id="patch_68">
    <path d="M 300.083916 199.986316 
L 527.52048 199.986316 
L 527.52048 193.796842 
L 300.083916 193.796842 
z
" clip-path="url(#p8f48f23eac)" style="fill: #0000ff"/>
   </g>
   <g id="patch_69">
    <path d="M 320.895105 199.986316 
L 537.926074 199.986316 
L 537.926074 193.796842 
L 320.895105 193.796842 
z
" clip-path="url(#p8f48f23eac)" style="fill: #0000ff"/>
   </g>
   <g id="patch_70">
    <path d="M 322.381618 199.986316 
L 512.655345 199.986316 
L 512.655345 193.796842 
L 322.381618 193.796842 
z
" clip-path="url(#p8f48f23eac)" style="fill: #0000ff"/>
   </g>
   <g id="patch_71">
    <path d="M 323.868132 199.986316 
L 521.574426 199.986316 
L 521.574426 193.796842 
L 323.868132 193.796842 
z
" clip-path="url(#p8f48f23eac)" style="fill: #0000ff"/>
   </g>
   <g id="patch_72">
    <path d="M 338.733267 199.986316 
L 517.114885 199.986316 
L 517.114885 193.796842 
L 338.733267 193.796842 
z
" clip-path="url(#p8f48f23eac)" style="fill: #0000ff"/>
   </g>
   <g id="patch_73">
    <path d="M 341.706294 199.986316 
L 427.924076 199.986316 
L 427.924076 193.796842 
L 341.706294 193.796842 
z
" clip-path="url(#p8f48f23eac)" style="fill: #0000ff"/>
   </g>
   <g id="patch_74">
    <path d="M 346.165834 199.986316 
L 518.601399 199.986316 
L 518.601399 193.796842 
L 346.165834 193.796842 
z
" clip-path="url(#p8f48f23eac)" style="fill: #0000ff"/>
   </g>
   <g id="patch_75">
    <path d="M 346.165834 199.986316 
L 526.033966 199.986316 
L 526.033966 193.796842 
L 346.165834 193.796842 
z
" clip-path="url(#p8f48f23eac)" style="fill: #0000ff"/>
   </g>
   <g id="patch_76">
    <path d="M 346.165834 199.986316 
L 512.655345 199.986316 
L 512.655345 193.796842 
L 346.165834 193.796842 
z
" clip-path="url(#p8f48f23eac)" style="fill: #0000ff"/>
   </g>
   <g id="patch_77">
    <path d="M 346.165834 199.986316 
L 511.168831 199.986316 
L 511.168831 193.796842 
L 346.165834 193.796842 
z
" clip-path="url(#p8f48f23eac)" style="fill: #0000ff"/>
   </g>
   <g id="patch_78">
    <path d="M 346.165834 199.986316 
L 517.114885 199.986316 
L 517.114885 193.796842 
L 346.165834 193.796842 
z
" clip-path="url(#p8f48f23eac)" style="fill: #0000ff"/>
   </g>
   <g id="patch_79">
    <path d="M 346.165834 199.986316 
L 512.655345 199.986316 
L 512.655345 193.796842 
L 346.165834 193.796842 
z
" clip-path="url(#p8f48f23eac)" style="fill: #0000ff"/>
   </g>
   <g id="patch_80">
    <path d="M 346.165834 199.986316 
L 521.574426 199.986316 
L 521.574426 193.796842 
L 346.165834 193.796842 
z
" clip-path="url(#p8f48f23eac)" style="fill: #0000ff"/>
   </g>
   <g id="patch_81">
    <path d="M 346.165834 199.986316 
L 512.655345 199.986316 
L 512.655345 193.796842 
L 346.165834 193.796842 
z
" clip-path="url(#p8f48f23eac)" style="fill: #0000ff"/>
   </g>
   <g id="patch_82">
    <path d="M 346.165834 199.986316 
L 500.763237 199.986316 
L 500.763237 193.796842 
L 346.165834 193.796842 
z
" clip-path="url(#p8f48f23eac)" style="fill: #0000ff"/>
   </g>
   <g id="patch_83">
    <path d="M 347.652348 199.986316 
L 527.52048 199.986316 
L 527.52048 193.796842 
L 347.652348 193.796842 
z
" clip-path="url(#p8f48f23eac)" style="fill: #0000ff"/>
   </g>
   <g id="patch_84">
    <path d="M 347.652348 199.986316 
L 569.142857 199.986316 
L 569.142857 193.796842 
L 347.652348 193.796842 
z
" clip-path="url(#p8f48f23eac)" style="fill: #0000ff"/>
   </g>
   <g id="patch_85">
    <path d="M 347.652348 199.986316 
L 520.087912 199.986316 
L 520.087912 193.796842 
L 347.652348 193.796842 
z
" clip-path="url(#p8f48f23eac)" style="fill: #0000ff"/>
   </g>
   <g id="patch_86">
    <path d="M 347.652348 199.986316 
L 514.141858 199.986316 
L 514.141858 193.796842 
L 347.652348 193.796842 
z
" clip-path="url(#p8f48f23eac)" style="fill: #0000ff"/>
   </g>
   <g id="patch_87">
    <path d="M 347.652348 199.986316 
L 512.655345 199.986316 
L 512.655345 193.796842 
L 347.652348 193.796842 
z
" clip-path="url(#p8f48f23eac)" style="fill: #0000ff"/>
   </g>
   <g id="patch_88">
    <path d="M 347.652348 199.986316 
L 511.168831 199.986316 
L 511.168831 193.796842 
L 347.652348 193.796842 
z
" clip-path="url(#p8f48f23eac)" style="fill: #0000ff"/>
   </g>
   <g id="patch_89">
    <path d="M 347.652348 199.986316 
L 517.114885 199.986316 
L 517.114885 193.796842 
L 347.652348 193.796842 
z
" clip-path="url(#p8f48f23eac)" style="fill: #0000ff"/>
   </g>
   <g id="patch_90">
    <path d="M 347.652348 199.986316 
L 512.655345 199.986316 
L 512.655345 193.796842 
L 347.652348 193.796842 
z
" clip-path="url(#p8f48f23eac)" style="fill: #0000ff"/>
   </g>
   <g id="patch_91">
    <path d="M 347.652348 199.986316 
L 517.114885 199.986316 
L 517.114885 193.796842 
L 347.652348 193.796842 
z
" clip-path="url(#p8f48f23eac)" style="fill: #0000ff"/>
   </g>
   <g id="patch_92">
    <path d="M 347.652348 199.986316 
L 517.114885 199.986316 
L 517.114885 193.796842 
L 347.652348 193.796842 
z
" clip-path="url(#p8f48f23eac)" style="fill: #0000ff"/>
   </g>
   <g id="patch_93">
    <path d="M 347.652348 199.986316 
L 512.655345 199.986316 
L 512.655345 193.796842 
L 347.652348 193.796842 
z
" clip-path="url(#p8f48f23eac)" style="fill: #0000ff"/>
   </g>
   <g id="patch_94">
    <path d="M 349.138861 199.986316 
L 512.655345 199.986316 
L 512.655345 193.796842 
L 349.138861 193.796842 
z
" clip-path="url(#p8f48f23eac)" style="fill: #0000ff"/>
   </g>
   <g id="patch_95">
    <path d="M 349.138861 199.986316 
L 548.331668 199.986316 
L 548.331668 193.796842 
L 349.138861 193.796842 
z
" clip-path="url(#p8f48f23eac)" style="fill: #0000ff"/>
   </g>
   <g id="patch_96">
    <path d="M 349.138861 199.986316 
L 515.628372 199.986316 
L 515.628372 193.796842 
L 349.138861 193.796842 
z
" clip-path="url(#p8f48f23eac)" style="fill: #0000ff"/>
   </g>
   <g id="patch_97">
    <path d="M 349.138861 199.986316 
L 515.628372 199.986316 
L 515.628372 193.796842 
L 349.138861 193.796842 
z
" clip-path="url(#p8f48f23eac)" style="fill: #0000ff"/>
   </g>
   <g id="patch_98">
    <path d="M 349.138861 199.986316 
L 514.141858 199.986316 
L 514.141858 193.796842 
L 349.138861 193.796842 
z
" clip-path="url(#p8f48f23eac)" style="fill: #0000ff"/>
   </g>
   <g id="patch_99">
    <path d="M 352.111888 199.986316 
L 533.466533 199.986316 
L 533.466533 193.796842 
L 352.111888 193.796842 
z
" clip-path="url(#p8f48f23eac)" style="fill: #0000ff"/>
   </g>
   <g id="patch_100">
    <path d="M 353.598402 199.986316 
L 517.114885 199.986316 
L 517.114885 193.796842 
L 353.598402 193.796842 
z
" clip-path="url(#p8f48f23eac)" style="fill: #0000ff"/>
   </g>
   <g id="patch_101">
    <path d="M 355.084915 199.986316 
L 427.924076 199.986316 
L 427.924076 193.796842 
L 355.084915 193.796842 
z
" clip-path="url(#p8f48f23eac)" style="fill: #0000ff"/>
   </g>
   <g id="patch_102">
    <path d="M 355.084915 199.986316 
L 517.114885 199.986316 
L 517.114885 193.796842 
L 355.084915 193.796842 
z
" clip-path="url(#p8f48f23eac)" style="fill: #0000ff"/>
   </g>
   <g id="patch_103">
    <path d="M 355.084915 199.986316 
L 512.655345 199.986316 
L 512.655345 193.796842 
L 355.084915 193.796842 
z
" clip-path="url(#p8f48f23eac)" style="fill: #0000ff"/>
   </g>
   <g id="patch_104">
    <path d="M 355.084915 199.986316 
L 505.222777 199.986316 
L 505.222777 193.796842 
L 355.084915 193.796842 
z
" clip-path="url(#p8f48f23eac)" style="fill: #0000ff"/>
   </g>
   <g id="patch_105">
    <path d="M 355.084915 199.986316 
L 511.168831 199.986316 
L 511.168831 193.796842 
L 355.084915 193.796842 
z
" clip-path="url(#p8f48f23eac)" style="fill: #0000ff"/>
   </g>
   <g id="patch_106">
    <path d="M 355.084915 199.986316 
L 502.24975 199.986316 
L 502.24975 193.796842 
L 355.084915 193.796842 
z
" clip-path="url(#p8f48f23eac)" style="fill: #0000ff"/>
   </g>
   <g id="patch_107">
    <path d="M 356.571429 199.986316 
L 514.141858 199.986316 
L 514.141858 193.796842 
L 356.571429 193.796842 
z
" clip-path="url(#p8f48f23eac)" style="fill: #0000ff"/>
   </g>
   <g id="patch_108">
    <path d="M 358.057942 199.986316 
L 517.114885 199.986316 
L 517.114885 193.796842 
L 358.057942 193.796842 
z
" clip-path="url(#p8f48f23eac)" style="fill: #0000ff"/>
   </g>
   <g id="patch_109">
    <path d="M 358.057942 199.986316 
L 512.655345 199.986316 
L 512.655345 193.796842 
L 358.057942 193.796842 
z
" clip-path="url(#p8f48f23eac)" style="fill: #0000ff"/>
   </g>
   <g id="patch_110">
    <path d="M 358.057942 199.986316 
L 512.655345 199.986316 
L 512.655345 193.796842 
L 358.057942 193.796842 
z
" clip-path="url(#p8f48f23eac)" style="fill: #0000ff"/>
   </g>
   <g id="patch_111">
    <path d="M 358.057942 199.986316 
L 512.655345 199.986316 
L 512.655345 193.796842 
L 358.057942 193.796842 
z
" clip-path="url(#p8f48f23eac)" style="fill: #0000ff"/>
   </g>
   <g id="patch_112">
    <path d="M 361.030969 199.986316 
L 548.331668 199.986316 
L 548.331668 193.796842 
L 361.030969 193.796842 
z
" clip-path="url(#p8f48f23eac)" style="fill: #0000ff"/>
   </g>
   <g id="patch_113">
    <path d="M 364.003996 199.986316 
L 503.736264 199.986316 
L 503.736264 193.796842 
L 364.003996 193.796842 
z
" clip-path="url(#p8f48f23eac)" style="fill: #0000ff"/>
   </g>
   <g id="patch_114">
    <path d="M 364.003996 199.986316 
L 506.709291 199.986316 
L 506.709291 193.796842 
L 364.003996 193.796842 
z
" clip-path="url(#p8f48f23eac)" style="fill: #0000ff"/>
   </g>
   <g id="patch_115">
    <path d="M 377.382617 199.986316 
L 517.114885 199.986316 
L 517.114885 193.796842 
L 377.382617 193.796842 
z
" clip-path="url(#p8f48f23eac)" style="fill: #0000ff"/>
   </g>
   <g id="patch_116">
    <path d="M 392.247752 199.986316 
L 511.168831 199.986316 
L 511.168831 193.796842 
L 392.247752 193.796842 
z
" clip-path="url(#p8f48f23eac)" style="fill: #0000ff"/>
   </g>
   <g id="patch_117">
    <path d="M 395.220779 199.986316 
L 505.222777 199.986316 
L 505.222777 193.796842 
L 395.220779 193.796842 
z
" clip-path="url(#p8f48f23eac)" style="fill: #0000ff"/>
   </g>
   <g id="patch_118">
    <path d="M 395.220779 199.986316 
L 505.222777 199.986316 
L 505.222777 193.796842 
L 395.220779 193.796842 
z
" clip-path="url(#p8f48f23eac)" style="fill: #0000ff"/>
   </g>
   <g id="patch_119">
    <path d="M 396.707293 199.986316 
L 517.114885 199.986316 
L 517.114885 193.796842 
L 396.707293 193.796842 
z
" clip-path="url(#p8f48f23eac)" style="fill: #0000ff"/>
   </g>
   <g id="patch_120">
    <path d="M 396.707293 199.986316 
L 505.222777 199.986316 
L 505.222777 193.796842 
L 396.707293 193.796842 
z
" clip-path="url(#p8f48f23eac)" style="fill: #0000ff"/>
   </g>
   <g id="patch_121">
    <path d="M 396.707293 199.986316 
L 502.24975 199.986316 
L 502.24975 193.796842 
L 396.707293 193.796842 
z
" clip-path="url(#p8f48f23eac)" style="fill: #0000ff"/>
   </g>
   <g id="patch_122">
    <path d="M 399.68032 199.986316 
L 512.655345 199.986316 
L 512.655345 193.796842 
L 399.68032 193.796842 
z
" clip-path="url(#p8f48f23eac)" style="fill: #0000ff"/>
   </g>
   <g id="patch_123">
    <path d="M 399.68032 199.986316 
L 515.628372 199.986316 
L 515.628372 193.796842 
L 399.68032 193.796842 
z
" clip-path="url(#p8f48f23eac)" style="fill: #0000ff"/>
   </g>
   <g id="patch_124">
    <path d="M 399.68032 199.986316 
L 514.141858 199.986316 
L 514.141858 193.796842 
L 399.68032 193.796842 
z
" clip-path="url(#p8f48f23eac)" style="fill: #0000ff"/>
   </g>
   <g id="patch_125">
    <path d="M 399.68032 199.986316 
L 512.655345 199.986316 
L 512.655345 193.796842 
L 399.68032 193.796842 
z
" clip-path="url(#p8f48f23eac)" style="fill: #0000ff"/>
   </g>
   <g id="patch_126">
    <path d="M 399.68032 199.986316 
L 515.628372 199.986316 
L 515.628372 193.796842 
L 399.68032 193.796842 
z
" clip-path="url(#p8f48f23eac)" style="fill: #0000ff"/>
   </g>
   <g id="patch_127">
    <path d="M 399.68032 199.986316 
L 511.168831 199.986316 
L 511.168831 193.796842 
L 399.68032 193.796842 
z
" clip-path="url(#p8f48f23eac)" style="fill: #0000ff"/>
   </g>
   <g id="patch_128">
    <path d="M 399.68032 199.986316 
L 512.655345 199.986316 
L 512.655345 193.796842 
L 399.68032 193.796842 
z
" clip-path="url(#p8f48f23eac)" style="fill: #0000ff"/>
   </g>
   <g id="patch_129">
    <path d="M 399.68032 199.986316 
L 512.655345 199.986316 
L 512.655345 193.796842 
L 399.68032 193.796842 
z
" clip-path="url(#p8f48f23eac)" style="fill: #0000ff"/>
   </g>
   <g id="patch_130">
    <path d="M 401.166833 199.986316 
L 512.655345 199.986316 
L 512.655345 193.796842 
L 401.166833 193.796842 
z
" clip-path="url(#p8f48f23eac)" style="fill: #0000ff"/>
   </g>
   <g id="patch_131">
    <path d="M 402.653347 199.986316 
L 518.601399 199.986316 
L 518.601399 193.796842 
L 402.653347 193.796842 
z
" clip-path="url(#p8f48f23eac)" style="fill: #0000ff"/>
   </g>
   <g id="patch_132">
    <path d="M 420.491508 199.986316 
L 512.655345 199.986316 
L 512.655345 193.796842 
L 420.491508 193.796842 
z
" clip-path="url(#p8f48f23eac)" style="fill: #0000ff"/>
   </g>
   <g id="patch_133">
    <path d="M 423.464535 199.986316 
L 537.926074 199.986316 
L 537.926074 193.796842 
L 423.464535 193.796842 
z
" clip-path="url(#p8f48f23eac)" style="fill: #0000ff"/>
   </g>
   <g id="patch_134">
    <path d="M 432.383616 199.986316 
L 540.899101 199.986316 
L 540.899101 193.796842 
L 432.383616 193.796842 
z
" clip-path="url(#p8f48f23eac)" style="fill: #0000ff"/>
   </g>
   <g id="patch_135">
    <path d="M 433.87013 199.986316 
L 546.845155 199.986316 
L 546.845155 193.796842 
L 433.87013 193.796842 
z
" clip-path="url(#p8f48f23eac)" style="fill: #0000ff"/>
   </g>
   <g id="patch_136">
    <path d="M 436.843157 199.986316 
L 517.114885 199.986316 
L 517.114885 193.796842 
L 436.843157 193.796842 
z
" clip-path="url(#p8f48f23eac)" style="fill: #0000ff"/>
   </g>
   <g id="patch_137">
    <path d="M 436.843157 199.986316 
L 518.601399 199.986316 
L 518.601399 193.796842 
L 436.843157 193.796842 
z
" clip-path="url(#p8f48f23eac)" style="fill: #0000ff"/>
   </g>
   <g id="patch_138">
    <path d="M 448.735265 199.986316 
L 518.601399 199.986316 
L 518.601399 193.796842 
L 448.735265 193.796842 
z
" clip-path="url(#p8f48f23eac)" style="fill: #0000ff"/>
   </g>
   <g id="patch_139">
    <path d="M 572.115884 199.986316 
L 806.985015 199.986316 
L 806.985015 193.796842 
L 572.115884 193.796842 
z
" clip-path="url(#p8f48f23eac)" style="fill: #0000ff"/>
   </g>
   <g id="patch_140">
    <path d="M 618.197802 199.986316 
L 796.579421 199.986316 
L 796.579421 193.796842 
L 618.197802 193.796842 
z
" clip-path="url(#p8f48f23eac)" style="fill: #0000ff"/>
   </g>
   <g id="patch_141">
    <path d="M 809.958042 197.123684 
L 811.444555 197.123684 
L 811.444555 196.659474 
L 809.958042 196.659474 
z
" clip-path="url(#p8f48f23eac)" style="fill: #0000ff"/>
   </g>
   <g id="patch_142">
    <path d="M 144 181.65 
L 146.973027 181.65 
L 146.973027 181.185789 
L 144 181.185789 
z
" clip-path="url(#p8f48f23eac)" style="fill: #0000ff"/>
   </g>
   <g id="patch_143">
    <path d="M 148.45954 184.512632 
L 811.444555 184.512632 
L 811.444555 178.323158 
L 148.45954 178.323158 
z
" clip-path="url(#p8f48f23eac)" style="fill: #0000ff"/>
   </g>
   <g id="patch_144">
    <path d="M 172.243756 184.512632 
L 812.931069 184.512632 
L 812.931069 178.323158 
L 172.243756 178.323158 
z
" clip-path="url(#p8f48f23eac)" style="fill: #0000ff"/>
   </g>
   <g id="patch_145">
    <path d="M 191.568432 184.512632 
L 344.679321 184.512632 
L 344.679321 178.323158 
L 191.568432 178.323158 
z
" clip-path="url(#p8f48f23eac)" style="fill: #0000ff"/>
   </g>
   <g id="patch_146">
    <path d="M 191.568432 184.512632 
L 341.706294 184.512632 
L 341.706294 178.323158 
L 191.568432 178.323158 
z
" clip-path="url(#p8f48f23eac)" style="fill: #0000ff"/>
   </g>
   <g id="patch_147">
    <path d="M 286.705295 184.512632 
L 526.033966 184.512632 
L 526.033966 178.323158 
L 286.705295 178.323158 
z
" clip-path="url(#p8f48f23eac)" style="fill: #0000ff"/>
   </g>
   <g id="patch_148">
    <path d="M 338.733267 184.512632 
L 521.574426 184.512632 
L 521.574426 178.323158 
L 338.733267 178.323158 
z
" clip-path="url(#p8f48f23eac)" style="fill: #0000ff"/>
   </g>
   <g id="patch_149">
    <path d="M 341.706294 184.512632 
L 520.087912 184.512632 
L 520.087912 178.323158 
L 341.706294 178.323158 
z
" clip-path="url(#p8f48f23eac)" style="fill: #0000ff"/>
   </g>
   <g id="patch_150">
    <path d="M 349.138861 184.512632 
L 521.574426 184.512632 
L 521.574426 178.323158 
L 349.138861 178.323158 
z
" clip-path="url(#p8f48f23eac)" style="fill: #0000ff"/>
   </g>
   <g id="patch_151">
    <path d="M 350.625375 184.512632 
L 514.141858 184.512632 
L 514.141858 178.323158 
L 350.625375 178.323158 
z
" clip-path="url(#p8f48f23eac)" style="fill: #0000ff"/>
   </g>
   <g id="patch_152">
    <path d="M 350.625375 184.512632 
L 515.628372 184.512632 
L 515.628372 178.323158 
L 350.625375 178.323158 
z
" clip-path="url(#p8f48f23eac)" style="fill: #0000ff"/>
   </g>
   <g id="patch_153">
    <path d="M 350.625375 184.512632 
L 514.141858 184.512632 
L 514.141858 178.323158 
L 350.625375 178.323158 
z
" clip-path="url(#p8f48f23eac)" style="fill: #0000ff"/>
   </g>
   <g id="patch_154">
    <path d="M 350.625375 184.512632 
L 515.628372 184.512632 
L 515.628372 178.323158 
L 350.625375 178.323158 
z
" clip-path="url(#p8f48f23eac)" style="fill: #0000ff"/>
   </g>
   <g id="patch_155">
    <path d="M 350.625375 184.512632 
L 515.628372 184.512632 
L 515.628372 178.323158 
L 350.625375 178.323158 
z
" clip-path="url(#p8f48f23eac)" style="fill: #0000ff"/>
   </g>
   <g id="patch_156">
    <path d="M 361.030969 184.512632 
L 497.79021 184.512632 
L 497.79021 178.323158 
L 361.030969 178.323158 
z
" clip-path="url(#p8f48f23eac)" style="fill: #0000ff"/>
   </g>
   <g id="patch_157">
    <path d="M 368.463536 184.512632 
L 531.98002 184.512632 
L 531.98002 178.323158 
L 368.463536 178.323158 
z
" clip-path="url(#p8f48f23eac)" style="fill: #0000ff"/>
   </g>
   <g id="patch_158">
    <path d="M 368.463536 184.512632 
L 530.493506 184.512632 
L 530.493506 178.323158 
L 368.463536 178.323158 
z
" clip-path="url(#p8f48f23eac)" style="fill: #0000ff"/>
   </g>
   <g id="patch_159">
    <path d="M 368.463536 184.512632 
L 518.601399 184.512632 
L 518.601399 178.323158 
L 368.463536 178.323158 
z
" clip-path="url(#p8f48f23eac)" style="fill: #0000ff"/>
   </g>
   <g id="patch_160">
    <path d="M 368.463536 184.512632 
L 520.087912 184.512632 
L 520.087912 178.323158 
L 368.463536 178.323158 
z
" clip-path="url(#p8f48f23eac)" style="fill: #0000ff"/>
   </g>
   <g id="patch_161">
    <path d="M 368.463536 184.512632 
L 520.087912 184.512632 
L 520.087912 178.323158 
L 368.463536 178.323158 
z
" clip-path="url(#p8f48f23eac)" style="fill: #0000ff"/>
   </g>
   <g id="patch_162">
    <path d="M 380.355644 184.512632 
L 515.628372 184.512632 
L 515.628372 178.323158 
L 380.355644 178.323158 
z
" clip-path="url(#p8f48f23eac)" style="fill: #0000ff"/>
   </g>
   <g id="patch_163">
    <path d="M 383.328671 184.512632 
L 515.628372 184.512632 
L 515.628372 178.323158 
L 383.328671 178.323158 
z
" clip-path="url(#p8f48f23eac)" style="fill: #0000ff"/>
   </g>
   <g id="patch_164">
    <path d="M 395.220779 184.512632 
L 530.493506 184.512632 
L 530.493506 178.323158 
L 395.220779 178.323158 
z
" clip-path="url(#p8f48f23eac)" style="fill: #0000ff"/>
   </g>
   <g id="patch_165">
    <path d="M 399.68032 184.512632 
L 520.087912 184.512632 
L 520.087912 178.323158 
L 399.68032 178.323158 
z
" clip-path="url(#p8f48f23eac)" style="fill: #0000ff"/>
   </g>
   <g id="patch_166">
    <path d="M 401.166833 184.512632 
L 515.628372 184.512632 
L 515.628372 178.323158 
L 401.166833 178.323158 
z
" clip-path="url(#p8f48f23eac)" style="fill: #0000ff"/>
   </g>
   <g id="patch_167">
    <path d="M 402.653347 184.512632 
L 515.628372 184.512632 
L 515.628372 178.323158 
L 402.653347 178.323158 
z
" clip-path="url(#p8f48f23eac)" style="fill: #0000ff"/>
   </g>
   <g id="patch_168">
    <path d="M 402.653347 184.512632 
L 515.628372 184.512632 
L 515.628372 178.323158 
L 402.653347 178.323158 
z
" clip-path="url(#p8f48f23eac)" style="fill: #0000ff"/>
   </g>
   <g id="patch_169">
    <path d="M 402.653347 184.512632 
L 515.628372 184.512632 
L 515.628372 178.323158 
L 402.653347 178.323158 
z
" clip-path="url(#p8f48f23eac)" style="fill: #0000ff"/>
   </g>
   <g id="patch_170">
    <path d="M 402.653347 184.512632 
L 514.141858 184.512632 
L 514.141858 178.323158 
L 402.653347 178.323158 
z
" clip-path="url(#p8f48f23eac)" style="fill: #0000ff"/>
   </g>
   <g id="patch_171">
    <path d="M 402.653347 184.512632 
L 515.628372 184.512632 
L 515.628372 178.323158 
L 402.653347 178.323158 
z
" clip-path="url(#p8f48f23eac)" style="fill: #0000ff"/>
   </g>
   <g id="patch_172">
    <path d="M 402.653347 184.512632 
L 520.087912 184.512632 
L 520.087912 178.323158 
L 402.653347 178.323158 
z
" clip-path="url(#p8f48f23eac)" style="fill: #0000ff"/>
   </g>
   <g id="patch_173">
    <path d="M 402.653347 184.512632 
L 517.114885 184.512632 
L 517.114885 178.323158 
L 402.653347 178.323158 
z
" clip-path="url(#p8f48f23eac)" style="fill: #0000ff"/>
   </g>
   <g id="patch_174">
    <path d="M 407.112887 184.512632 
L 515.628372 184.512632 
L 515.628372 178.323158 
L 407.112887 178.323158 
z
" clip-path="url(#p8f48f23eac)" style="fill: #0000ff"/>
   </g>
   <g id="patch_175">
    <path d="M 407.112887 184.512632 
L 515.628372 184.512632 
L 515.628372 178.323158 
L 407.112887 178.323158 
z
" clip-path="url(#p8f48f23eac)" style="fill: #0000ff"/>
   </g>
   <g id="patch_176">
    <path d="M 407.112887 184.512632 
L 515.628372 184.512632 
L 515.628372 178.323158 
L 407.112887 178.323158 
z
" clip-path="url(#p8f48f23eac)" style="fill: #0000ff"/>
   </g>
   <g id="patch_177">
    <path d="M 438.32967 184.512632 
L 530.493506 184.512632 
L 530.493506 178.323158 
L 438.32967 178.323158 
z
" clip-path="url(#p8f48f23eac)" style="fill: #0000ff"/>
   </g>
   <g id="patch_178">
    <path d="M 438.32967 184.512632 
L 515.628372 184.512632 
L 515.628372 178.323158 
L 438.32967 178.323158 
z
" clip-path="url(#p8f48f23eac)" style="fill: #0000ff"/>
   </g>
   <g id="patch_179">
    <path d="M 438.32967 184.512632 
L 529.006993 184.512632 
L 529.006993 178.323158 
L 438.32967 178.323158 
z
" clip-path="url(#p8f48f23eac)" style="fill: #0000ff"/>
   </g>
   <g id="patch_180">
    <path d="M 439.816184 184.512632 
L 523.060939 184.512632 
L 523.060939 178.323158 
L 439.816184 178.323158 
z
" clip-path="url(#p8f48f23eac)" style="fill: #0000ff"/>
   </g>
   <g id="patch_181">
    <path d="M 450.221778 184.512632 
L 521.574426 184.512632 
L 521.574426 178.323158 
L 450.221778 178.323158 
z
" clip-path="url(#p8f48f23eac)" style="fill: #0000ff"/>
   </g>
   <g id="patch_182">
    <path d="M 586.981019 184.512632 
L 802.525475 184.512632 
L 802.525475 178.323158 
L 586.981019 178.323158 
z
" clip-path="url(#p8f48f23eac)" style="fill: #0000ff"/>
   </g>
   <g id="patch_183">
    <path d="M 618.197802 184.512632 
L 798.065934 184.512632 
L 798.065934 178.323158 
L 618.197802 178.323158 
z
" clip-path="url(#p8f48f23eac)" style="fill: #0000ff"/>
   </g>
   <g id="patch_184">
    <path d="M 144 166.176316 
L 204.947053 166.176316 
L 204.947053 165.712105 
L 144 165.712105 
z
" clip-path="url(#p8f48f23eac)" style="fill: #0000ff"/>
   </g>
   <g id="patch_185">
    <path d="M 206.433566 169.038947 
L 368.463536 169.038947 
L 368.463536 162.849474 
L 206.433566 162.849474 
z
" clip-path="url(#p8f48f23eac)" style="fill: #0000ff"/>
   </g>
   <g id="patch_186">
    <path d="M 206.433566 169.038947 
L 368.463536 169.038947 
L 368.463536 162.849474 
L 206.433566 162.849474 
z
" clip-path="url(#p8f48f23eac)" style="fill: #0000ff"/>
   </g>
   <g id="patch_187">
    <path d="M 216.839161 169.038947 
L 671.712288 169.038947 
L 671.712288 162.849474 
L 216.839161 162.849474 
z
" clip-path="url(#p8f48f23eac)" style="fill: #0000ff"/>
   </g>
   <g id="patch_188">
    <path d="M 252.515485 169.038947 
L 368.463536 169.038947 
L 368.463536 162.849474 
L 252.515485 162.849474 
z
" clip-path="url(#p8f48f23eac)" style="fill: #0000ff"/>
   </g>
   <g id="patch_189">
    <path d="M 252.515485 169.038947 
L 368.463536 169.038947 
L 368.463536 162.849474 
L 252.515485 162.849474 
z
" clip-path="url(#p8f48f23eac)" style="fill: #0000ff"/>
   </g>
   <g id="patch_190">
    <path d="M 254.001998 169.038947 
L 665.766234 169.038947 
L 665.766234 162.849474 
L 254.001998 162.849474 
z
" clip-path="url(#p8f48f23eac)" style="fill: #0000ff"/>
   </g>
   <g id="patch_191">
    <path d="M 254.001998 169.038947 
L 361.030969 169.038947 
L 361.030969 162.849474 
L 254.001998 162.849474 
z
" clip-path="url(#p8f48f23eac)" style="fill: #0000ff"/>
   </g>
   <g id="patch_192">
    <path d="M 255.488511 169.038947 
L 361.030969 169.038947 
L 361.030969 162.849474 
L 255.488511 162.849474 
z
" clip-path="url(#p8f48f23eac)" style="fill: #0000ff"/>
   </g>
   <g id="patch_193">
    <path d="M 255.488511 169.038947 
L 347.652348 169.038947 
L 347.652348 162.849474 
L 255.488511 162.849474 
z
" clip-path="url(#p8f48f23eac)" style="fill: #0000ff"/>
   </g>
   <g id="patch_194">
    <path d="M 256.975025 169.038947 
L 374.40959 169.038947 
L 374.40959 162.849474 
L 256.975025 162.849474 
z
" clip-path="url(#p8f48f23eac)" style="fill: #0000ff"/>
   </g>
   <g id="patch_195">
    <path d="M 258.461538 169.038947 
L 368.463536 169.038947 
L 368.463536 162.849474 
L 258.461538 162.849474 
z
" clip-path="url(#p8f48f23eac)" style="fill: #0000ff"/>
   </g>
   <g id="patch_196">
    <path d="M 294.137862 169.038947 
L 361.030969 169.038947 
L 361.030969 162.849474 
L 294.137862 162.849474 
z
" clip-path="url(#p8f48f23eac)" style="fill: #0000ff"/>
   </g>
   <g id="patch_197">
    <path d="M 295.624376 169.038947 
L 377.382617 169.038947 
L 377.382617 162.849474 
L 295.624376 162.849474 
z
" clip-path="url(#p8f48f23eac)" style="fill: #0000ff"/>
   </g>
   <g id="patch_198">
    <path d="M 414.545455 169.038947 
L 665.766234 169.038947 
L 665.766234 162.849474 
L 414.545455 162.849474 
z
" clip-path="url(#p8f48f23eac)" style="fill: #0000ff"/>
   </g>
   <g id="patch_199">
    <path d="M 475.492507 169.038947 
L 655.360639 169.038947 
L 655.360639 162.849474 
L 475.492507 162.849474 
z
" clip-path="url(#p8f48f23eac)" style="fill: #0000ff"/>
   </g>
   <g id="patch_200">
    <path d="M 144 153.565263 
L 604.819181 153.565263 
L 604.819181 147.375789 
L 144 147.375789 
z
" clip-path="url(#p8f48f23eac)" style="fill: #0000ff"/>
   </g>
   <g id="patch_201">
    <path d="M 152.919081 153.565263 
L 313.462537 153.565263 
L 313.462537 147.375789 
L 152.919081 147.375789 
z
" clip-path="url(#p8f48f23eac)" style="fill: #0000ff"/>
   </g>
   <g id="patch_202">
    <path d="M 152.919081 153.565263 
L 317.922078 153.565263 
L 317.922078 147.375789 
L 152.919081 147.375789 
z
" clip-path="url(#p8f48f23eac)" style="fill: #0000ff"/>
   </g>
   <g id="patch_203">
    <path d="M 152.919081 153.565263 
L 317.922078 153.565263 
L 317.922078 147.375789 
L 152.919081 147.375789 
z
" clip-path="url(#p8f48f23eac)" style="fill: #0000ff"/>
   </g>
   <g id="patch_204">
    <path d="M 154.405594 153.565263 
L 314.949051 153.565263 
L 314.949051 147.375789 
L 154.405594 147.375789 
z
" clip-path="url(#p8f48f23eac)" style="fill: #0000ff"/>
   </g>
   <g id="patch_205">
    <path d="M 154.405594 153.565263 
L 317.922078 153.565263 
L 317.922078 147.375789 
L 154.405594 147.375789 
z
" clip-path="url(#p8f48f23eac)" style="fill: #0000ff"/>
   </g>
   <g id="patch_206">
    <path d="M 154.405594 153.565263 
L 314.949051 153.565263 
L 314.949051 147.375789 
L 154.405594 147.375789 
z
" clip-path="url(#p8f48f23eac)" style="fill: #0000ff"/>
   </g>
   <g id="patch_207">
    <path d="M 154.405594 153.565263 
L 304.543457 153.565263 
L 304.543457 147.375789 
L 154.405594 147.375789 
z
" clip-path="url(#p8f48f23eac)" style="fill: #0000ff"/>
   </g>
   <g id="patch_208">
    <path d="M 154.405594 153.565263 
L 304.543457 153.565263 
L 304.543457 147.375789 
L 154.405594 147.375789 
z
" clip-path="url(#p8f48f23eac)" style="fill: #0000ff"/>
   </g>
   <g id="patch_209">
    <path d="M 154.405594 153.565263 
L 314.949051 153.565263 
L 314.949051 147.375789 
L 154.405594 147.375789 
z
" clip-path="url(#p8f48f23eac)" style="fill: #0000ff"/>
   </g>
   <g id="patch_210">
    <path d="M 154.405594 153.565263 
L 314.949051 153.565263 
L 314.949051 147.375789 
L 154.405594 147.375789 
z
" clip-path="url(#p8f48f23eac)" style="fill: #0000ff"/>
   </g>
   <g id="patch_211">
    <path d="M 154.405594 153.565263 
L 317.922078 153.565263 
L 317.922078 147.375789 
L 154.405594 147.375789 
z
" clip-path="url(#p8f48f23eac)" style="fill: #0000ff"/>
   </g>
   <g id="patch_212">
    <path d="M 158.865135 153.565263 
L 311.976024 153.565263 
L 311.976024 147.375789 
L 158.865135 147.375789 
z
" clip-path="url(#p8f48f23eac)" style="fill: #0000ff"/>
   </g>
   <g id="patch_213">
    <path d="M 160.351648 153.565263 
L 304.543457 153.565263 
L 304.543457 147.375789 
L 160.351648 147.375789 
z
" clip-path="url(#p8f48f23eac)" style="fill: #0000ff"/>
   </g>
   <g id="patch_214">
    <path d="M 161.838162 153.565263 
L 304.543457 153.565263 
L 304.543457 147.375789 
L 161.838162 147.375789 
z
" clip-path="url(#p8f48f23eac)" style="fill: #0000ff"/>
   </g>
   <g id="patch_215">
    <path d="M 161.838162 153.565263 
L 317.922078 153.565263 
L 317.922078 147.375789 
L 161.838162 147.375789 
z
" clip-path="url(#p8f48f23eac)" style="fill: #0000ff"/>
   </g>
   <g id="patch_216">
    <path d="M 175.216783 153.565263 
L 604.819181 153.565263 
L 604.819181 147.375789 
L 175.216783 147.375789 
z
" clip-path="url(#p8f48f23eac)" style="fill: #0000ff"/>
   </g>
   <g id="patch_217">
    <path d="M 237.65035 153.565263 
L 319.408591 153.565263 
L 319.408591 147.375789 
L 237.65035 147.375789 
z
" clip-path="url(#p8f48f23eac)" style="fill: #0000ff"/>
   </g>
   <g id="patch_218">
    <path d="M 248.055944 153.565263 
L 319.408591 153.565263 
L 319.408591 147.375789 
L 248.055944 147.375789 
z
" clip-path="url(#p8f48f23eac)" style="fill: #0000ff"/>
   </g>
   <g id="patch_219">
    <path d="M 417.518482 153.565263 
L 594.413586 153.565263 
L 594.413586 147.375789 
L 417.518482 147.375789 
z
" clip-path="url(#p8f48f23eac)" style="fill: #0000ff"/>
   </g>
   <g id="patch_220">
    <path d="M 144 135.228947 
L 178.18981 135.228947 
L 178.18981 134.764737 
L 144 134.764737 
z
" clip-path="url(#p8f48f23eac)" style="fill: #0000ff"/>
   </g>
   <g id="patch_221">
    <path d="M 179.676324 138.091579 
L 838.201798 138.091579 
L 838.201798 131.902105 
L 179.676324 131.902105 
z
" clip-path="url(#p8f48f23eac)" style="fill: #0000ff"/>
   </g>
   <g id="patch_222">
    <path d="M 182.649351 138.091579 
L 835.228771 138.091579 
L 835.228771 131.902105 
L 182.649351 131.902105 
z
" clip-path="url(#p8f48f23eac)" style="fill: #0000ff"/>
   </g>
   <g id="patch_223">
    <path d="M 212.37962 138.091579 
L 365.490509 138.091579 
L 365.490509 131.902105 
L 212.37962 131.902105 
z
" clip-path="url(#p8f48f23eac)" style="fill: #0000ff"/>
   </g>
   <g id="patch_224">
    <path d="M 213.866134 138.091579 
L 362.517483 138.091579 
L 362.517483 131.902105 
L 213.866134 131.902105 
z
" clip-path="url(#p8f48f23eac)" style="fill: #0000ff"/>
   </g>
   <g id="patch_225">
    <path d="M 285.218781 138.091579 
L 536.43956 138.091579 
L 536.43956 131.902105 
L 285.218781 131.902105 
z
" clip-path="url(#p8f48f23eac)" style="fill: #0000ff"/>
   </g>
   <g id="patch_226">
    <path d="M 362.517483 138.091579 
L 543.872128 138.091579 
L 543.872128 131.902105 
L 362.517483 131.902105 
z
" clip-path="url(#p8f48f23eac)" style="fill: #0000ff"/>
   </g>
   <g id="patch_227">
    <path d="M 362.517483 138.091579 
L 540.899101 138.091579 
L 540.899101 131.902105 
L 362.517483 131.902105 
z
" clip-path="url(#p8f48f23eac)" style="fill: #0000ff"/>
   </g>
   <g id="patch_228">
    <path d="M 364.003996 138.091579 
L 534.953047 138.091579 
L 534.953047 131.902105 
L 364.003996 131.902105 
z
" clip-path="url(#p8f48f23eac)" style="fill: #0000ff"/>
   </g>
   <g id="patch_229">
    <path d="M 368.463536 138.091579 
L 551.304695 138.091579 
L 551.304695 131.902105 
L 368.463536 131.902105 
z
" clip-path="url(#p8f48f23eac)" style="fill: #0000ff"/>
   </g>
   <g id="patch_230">
    <path d="M 368.463536 138.091579 
L 536.43956 138.091579 
L 536.43956 131.902105 
L 368.463536 131.902105 
z
" clip-path="url(#p8f48f23eac)" style="fill: #0000ff"/>
   </g>
   <g id="patch_231">
    <path d="M 369.95005 138.091579 
L 548.331668 138.091579 
L 548.331668 131.902105 
L 369.95005 131.902105 
z
" clip-path="url(#p8f48f23eac)" style="fill: #0000ff"/>
   </g>
   <g id="patch_232">
    <path d="M 369.95005 138.091579 
L 536.43956 138.091579 
L 536.43956 131.902105 
L 369.95005 131.902105 
z
" clip-path="url(#p8f48f23eac)" style="fill: #0000ff"/>
   </g>
   <g id="patch_233">
    <path d="M 371.436563 138.091579 
L 536.43956 138.091579 
L 536.43956 131.902105 
L 371.436563 131.902105 
z
" clip-path="url(#p8f48f23eac)" style="fill: #0000ff"/>
   </g>
   <g id="patch_234">
    <path d="M 371.436563 138.091579 
L 536.43956 138.091579 
L 536.43956 131.902105 
L 371.436563 131.902105 
z
" clip-path="url(#p8f48f23eac)" style="fill: #0000ff"/>
   </g>
   <g id="patch_235">
    <path d="M 371.436563 138.091579 
L 536.43956 138.091579 
L 536.43956 131.902105 
L 371.436563 131.902105 
z
" clip-path="url(#p8f48f23eac)" style="fill: #0000ff"/>
   </g>
   <g id="patch_236">
    <path d="M 371.436563 138.091579 
L 540.899101 138.091579 
L 540.899101 131.902105 
L 371.436563 131.902105 
z
" clip-path="url(#p8f48f23eac)" style="fill: #0000ff"/>
   </g>
   <g id="patch_237">
    <path d="M 371.436563 138.091579 
L 540.899101 138.091579 
L 540.899101 131.902105 
L 371.436563 131.902105 
z
" clip-path="url(#p8f48f23eac)" style="fill: #0000ff"/>
   </g>
   <g id="patch_238">
    <path d="M 371.436563 138.091579 
L 540.899101 138.091579 
L 540.899101 131.902105 
L 371.436563 131.902105 
z
" clip-path="url(#p8f48f23eac)" style="fill: #0000ff"/>
   </g>
   <g id="patch_239">
    <path d="M 371.436563 138.091579 
L 536.43956 138.091579 
L 536.43956 131.902105 
L 371.436563 131.902105 
z
" clip-path="url(#p8f48f23eac)" style="fill: #0000ff"/>
   </g>
   <g id="patch_240">
    <path d="M 372.923077 138.091579 
L 542.385614 138.091579 
L 542.385614 131.902105 
L 372.923077 131.902105 
z
" clip-path="url(#p8f48f23eac)" style="fill: #0000ff"/>
   </g>
   <g id="patch_241">
    <path d="M 372.923077 138.091579 
L 539.412587 138.091579 
L 539.412587 131.902105 
L 372.923077 131.902105 
z
" clip-path="url(#p8f48f23eac)" style="fill: #0000ff"/>
   </g>
   <g id="patch_242">
    <path d="M 372.923077 138.091579 
L 537.926074 138.091579 
L 537.926074 131.902105 
L 372.923077 131.902105 
z
" clip-path="url(#p8f48f23eac)" style="fill: #0000ff"/>
   </g>
   <g id="patch_243">
    <path d="M 372.923077 138.091579 
L 536.43956 138.091579 
L 536.43956 131.902105 
L 372.923077 131.902105 
z
" clip-path="url(#p8f48f23eac)" style="fill: #0000ff"/>
   </g>
   <g id="patch_244">
    <path d="M 372.923077 138.091579 
L 537.926074 138.091579 
L 537.926074 131.902105 
L 372.923077 131.902105 
z
" clip-path="url(#p8f48f23eac)" style="fill: #0000ff"/>
   </g>
   <g id="patch_245">
    <path d="M 378.869131 138.091579 
L 539.412587 138.091579 
L 539.412587 131.902105 
L 378.869131 131.902105 
z
" clip-path="url(#p8f48f23eac)" style="fill: #0000ff"/>
   </g>
   <g id="patch_246">
    <path d="M 381.842158 138.091579 
L 526.033966 138.091579 
L 526.033966 131.902105 
L 381.842158 131.902105 
z
" clip-path="url(#p8f48f23eac)" style="fill: #0000ff"/>
   </g>
   <g id="patch_247">
    <path d="M 387.788212 138.091579 
L 537.926074 138.091579 
L 537.926074 131.902105 
L 387.788212 131.902105 
z
" clip-path="url(#p8f48f23eac)" style="fill: #0000ff"/>
   </g>
   <g id="patch_248">
    <path d="M 387.788212 138.091579 
L 534.953047 138.091579 
L 534.953047 131.902105 
L 387.788212 131.902105 
z
" clip-path="url(#p8f48f23eac)" style="fill: #0000ff"/>
   </g>
   <g id="patch_249">
    <path d="M 389.274725 138.091579 
L 529.006993 138.091579 
L 529.006993 131.902105 
L 389.274725 131.902105 
z
" clip-path="url(#p8f48f23eac)" style="fill: #0000ff"/>
   </g>
   <g id="patch_250">
    <path d="M 389.274725 138.091579 
L 539.412587 138.091579 
L 539.412587 131.902105 
L 389.274725 131.902105 
z
" clip-path="url(#p8f48f23eac)" style="fill: #0000ff"/>
   </g>
   <g id="patch_251">
    <path d="M 389.274725 138.091579 
L 549.818182 138.091579 
L 549.818182 131.902105 
L 389.274725 131.902105 
z
" clip-path="url(#p8f48f23eac)" style="fill: #0000ff"/>
   </g>
   <g id="patch_252">
    <path d="M 389.274725 138.091579 
L 536.43956 138.091579 
L 536.43956 131.902105 
L 389.274725 131.902105 
z
" clip-path="url(#p8f48f23eac)" style="fill: #0000ff"/>
   </g>
   <g id="patch_253">
    <path d="M 393.734266 138.091579 
L 536.43956 138.091579 
L 536.43956 131.902105 
L 393.734266 131.902105 
z
" clip-path="url(#p8f48f23eac)" style="fill: #0000ff"/>
   </g>
   <g id="patch_254">
    <path d="M 395.220779 138.091579 
L 533.466533 138.091579 
L 533.466533 131.902105 
L 395.220779 131.902105 
z
" clip-path="url(#p8f48f23eac)" style="fill: #0000ff"/>
   </g>
   <g id="patch_255">
    <path d="M 395.220779 138.091579 
L 549.818182 138.091579 
L 549.818182 131.902105 
L 395.220779 131.902105 
z
" clip-path="url(#p8f48f23eac)" style="fill: #0000ff"/>
   </g>
   <g id="patch_256">
    <path d="M 410.085914 138.091579 
L 529.006993 138.091579 
L 529.006993 131.902105 
L 410.085914 131.902105 
z
" clip-path="url(#p8f48f23eac)" style="fill: #0000ff"/>
   </g>
   <g id="patch_257">
    <path d="M 416.031968 138.091579 
L 540.899101 138.091579 
L 540.899101 131.902105 
L 416.031968 131.902105 
z
" clip-path="url(#p8f48f23eac)" style="fill: #0000ff"/>
   </g>
   <g id="patch_258">
    <path d="M 416.031968 138.091579 
L 534.953047 138.091579 
L 534.953047 131.902105 
L 416.031968 131.902105 
z
" clip-path="url(#p8f48f23eac)" style="fill: #0000ff"/>
   </g>
   <g id="patch_259">
    <path d="M 419.004995 138.091579 
L 536.43956 138.091579 
L 536.43956 131.902105 
L 419.004995 131.902105 
z
" clip-path="url(#p8f48f23eac)" style="fill: #0000ff"/>
   </g>
   <g id="patch_260">
    <path d="M 419.004995 138.091579 
L 534.953047 138.091579 
L 534.953047 131.902105 
L 419.004995 131.902105 
z
" clip-path="url(#p8f48f23eac)" style="fill: #0000ff"/>
   </g>
   <g id="patch_261">
    <path d="M 423.464535 138.091579 
L 536.43956 138.091579 
L 536.43956 131.902105 
L 423.464535 131.902105 
z
" clip-path="url(#p8f48f23eac)" style="fill: #0000ff"/>
   </g>
   <g id="patch_262">
    <path d="M 423.464535 138.091579 
L 536.43956 138.091579 
L 536.43956 131.902105 
L 423.464535 131.902105 
z
" clip-path="url(#p8f48f23eac)" style="fill: #0000ff"/>
   </g>
   <g id="patch_263">
    <path d="M 423.464535 138.091579 
L 534.953047 138.091579 
L 534.953047 131.902105 
L 423.464535 131.902105 
z
" clip-path="url(#p8f48f23eac)" style="fill: #0000ff"/>
   </g>
   <g id="patch_264">
    <path d="M 423.464535 138.091579 
L 536.43956 138.091579 
L 536.43956 131.902105 
L 423.464535 131.902105 
z
" clip-path="url(#p8f48f23eac)" style="fill: #0000ff"/>
   </g>
   <g id="patch_265">
    <path d="M 423.464535 138.091579 
L 536.43956 138.091579 
L 536.43956 131.902105 
L 423.464535 131.902105 
z
" clip-path="url(#p8f48f23eac)" style="fill: #0000ff"/>
   </g>
   <g id="patch_266">
    <path d="M 423.464535 138.091579 
L 529.006993 138.091579 
L 529.006993 131.902105 
L 423.464535 131.902105 
z
" clip-path="url(#p8f48f23eac)" style="fill: #0000ff"/>
   </g>
   <g id="patch_267">
    <path d="M 427.924076 138.091579 
L 536.43956 138.091579 
L 536.43956 131.902105 
L 427.924076 131.902105 
z
" clip-path="url(#p8f48f23eac)" style="fill: #0000ff"/>
   </g>
   <g id="patch_268">
    <path d="M 438.32967 138.091579 
L 570.629371 138.091579 
L 570.629371 131.902105 
L 438.32967 131.902105 
z
" clip-path="url(#p8f48f23eac)" style="fill: #0000ff"/>
   </g>
   <g id="patch_269">
    <path d="M 442.789211 138.091579 
L 536.43956 138.091579 
L 536.43956 131.902105 
L 442.789211 131.902105 
z
" clip-path="url(#p8f48f23eac)" style="fill: #0000ff"/>
   </g>
   <g id="patch_270">
    <path d="M 450.221778 138.091579 
L 586.981019 138.091579 
L 586.981019 131.902105 
L 450.221778 131.902105 
z
" clip-path="url(#p8f48f23eac)" style="fill: #0000ff"/>
   </g>
   <g id="patch_271">
    <path d="M 454.681319 138.091579 
L 573.602398 138.091579 
L 573.602398 131.902105 
L 454.681319 131.902105 
z
" clip-path="url(#p8f48f23eac)" style="fill: #0000ff"/>
   </g>
   <g id="patch_272">
    <path d="M 459.140859 138.091579 
L 542.385614 138.091579 
L 542.385614 131.902105 
L 459.140859 131.902105 
z
" clip-path="url(#p8f48f23eac)" style="fill: #0000ff"/>
   </g>
   <g id="patch_273">
    <path d="M 459.140859 138.091579 
L 536.43956 138.091579 
L 536.43956 131.902105 
L 459.140859 131.902105 
z
" clip-path="url(#p8f48f23eac)" style="fill: #0000ff"/>
   </g>
   <g id="patch_274">
    <path d="M 460.627373 138.091579 
L 540.899101 138.091579 
L 540.899101 131.902105 
L 460.627373 131.902105 
z
" clip-path="url(#p8f48f23eac)" style="fill: #0000ff"/>
   </g>
   <g id="patch_275">
    <path d="M 460.627373 138.091579 
L 542.385614 138.091579 
L 542.385614 131.902105 
L 460.627373 131.902105 
z
" clip-path="url(#p8f48f23eac)" style="fill: #0000ff"/>
   </g>
   <g id="patch_276">
    <path d="M 471.032967 138.091579 
L 542.385614 138.091579 
L 542.385614 131.902105 
L 471.032967 131.902105 
z
" clip-path="url(#p8f48f23eac)" style="fill: #0000ff"/>
   </g>
   <g id="patch_277">
    <path d="M 588.467532 138.091579 
L 833.742258 138.091579 
L 833.742258 131.902105 
L 588.467532 131.902105 
z
" clip-path="url(#p8f48f23eac)" style="fill: #0000ff"/>
   </g>
   <g id="patch_278">
    <path d="M 643.468531 138.091579 
L 823.336663 138.091579 
L 823.336663 131.902105 
L 643.468531 131.902105 
z
" clip-path="url(#p8f48f23eac)" style="fill: #0000ff"/>
   </g>
   <g id="patch_279">
    <path d="M 839.688312 135.228947 
L 839.688312 135.228947 
L 839.688312 134.764737 
L 839.688312 134.764737 
z
" clip-path="url(#p8f48f23eac)" style="fill: #0000ff"/>
   </g>
   <g id="patch_280">
    <path d="M 144 119.755263 
L 160.351648 119.755263 
L 160.351648 119.291053 
L 144 119.291053 
z
" clip-path="url(#p8f48f23eac)" style="fill: #0000ff"/>
   </g>
   <g id="patch_281">
    <path d="M 161.838162 122.617895 
L 817.390609 122.617895 
L 817.390609 116.428421 
L 161.838162 116.428421 
z
" clip-path="url(#p8f48f23eac)" style="fill: #0000ff"/>
   </g>
   <g id="patch_282">
    <path d="M 175.216783 122.617895 
L 814.417582 122.617895 
L 814.417582 116.428421 
L 175.216783 116.428421 
z
" clip-path="url(#p8f48f23eac)" style="fill: #0000ff"/>
   </g>
   <g id="patch_283">
    <path d="M 197.514486 122.617895 
L 350.625375 122.617895 
L 350.625375 116.428421 
L 197.514486 116.428421 
z
" clip-path="url(#p8f48f23eac)" style="fill: #0000ff"/>
   </g>
   <g id="patch_284">
    <path d="M 203.460539 122.617895 
L 347.652348 122.617895 
L 347.652348 116.428421 
L 203.460539 116.428421 
z
" clip-path="url(#p8f48f23eac)" style="fill: #0000ff"/>
   </g>
   <g id="patch_285">
    <path d="M 316.435564 122.617895 
L 534.953047 122.617895 
L 534.953047 116.428421 
L 316.435564 116.428421 
z
" clip-path="url(#p8f48f23eac)" style="fill: #0000ff"/>
   </g>
   <g id="patch_286">
    <path d="M 334.273726 122.617895 
L 526.033966 122.617895 
L 526.033966 116.428421 
L 334.273726 116.428421 
z
" clip-path="url(#p8f48f23eac)" style="fill: #0000ff"/>
   </g>
   <g id="patch_287">
    <path d="M 346.165834 122.617895 
L 514.141858 122.617895 
L 514.141858 116.428421 
L 346.165834 116.428421 
z
" clip-path="url(#p8f48f23eac)" style="fill: #0000ff"/>
   </g>
   <g id="patch_288">
    <path d="M 347.652348 122.617895 
L 526.033966 122.617895 
L 526.033966 116.428421 
L 347.652348 116.428421 
z
" clip-path="url(#p8f48f23eac)" style="fill: #0000ff"/>
   </g>
   <g id="patch_289">
    <path d="M 356.571429 122.617895 
L 521.574426 122.617895 
L 521.574426 116.428421 
L 356.571429 116.428421 
z
" clip-path="url(#p8f48f23eac)" style="fill: #0000ff"/>
   </g>
   <g id="patch_290">
    <path d="M 356.571429 122.617895 
L 521.574426 122.617895 
L 521.574426 116.428421 
L 356.571429 116.428421 
z
" clip-path="url(#p8f48f23eac)" style="fill: #0000ff"/>
   </g>
   <g id="patch_291">
    <path d="M 356.571429 122.617895 
L 520.087912 122.617895 
L 520.087912 116.428421 
L 356.571429 116.428421 
z
" clip-path="url(#p8f48f23eac)" style="fill: #0000ff"/>
   </g>
   <g id="patch_292">
    <path d="M 358.057942 122.617895 
L 526.033966 122.617895 
L 526.033966 116.428421 
L 358.057942 116.428421 
z
" clip-path="url(#p8f48f23eac)" style="fill: #0000ff"/>
   </g>
   <g id="patch_293">
    <path d="M 358.057942 122.617895 
L 524.547453 122.617895 
L 524.547453 116.428421 
L 358.057942 116.428421 
z
" clip-path="url(#p8f48f23eac)" style="fill: #0000ff"/>
   </g>
   <g id="patch_294">
    <path d="M 359.544456 122.617895 
L 521.574426 122.617895 
L 521.574426 116.428421 
L 359.544456 116.428421 
z
" clip-path="url(#p8f48f23eac)" style="fill: #0000ff"/>
   </g>
   <g id="patch_295">
    <path d="M 359.544456 122.617895 
L 521.574426 122.617895 
L 521.574426 116.428421 
L 359.544456 116.428421 
z
" clip-path="url(#p8f48f23eac)" style="fill: #0000ff"/>
   </g>
   <g id="patch_296">
    <path d="M 361.030969 122.617895 
L 521.574426 122.617895 
L 521.574426 116.428421 
L 361.030969 116.428421 
z
" clip-path="url(#p8f48f23eac)" style="fill: #0000ff"/>
   </g>
   <g id="patch_297">
    <path d="M 362.517483 122.617895 
L 514.141858 122.617895 
L 514.141858 116.428421 
L 362.517483 116.428421 
z
" clip-path="url(#p8f48f23eac)" style="fill: #0000ff"/>
   </g>
   <g id="patch_298">
    <path d="M 404.13986 122.617895 
L 514.141858 122.617895 
L 514.141858 116.428421 
L 404.13986 116.428421 
z
" clip-path="url(#p8f48f23eac)" style="fill: #0000ff"/>
   </g>
   <g id="patch_299">
    <path d="M 408.599401 122.617895 
L 520.087912 122.617895 
L 520.087912 116.428421 
L 408.599401 116.428421 
z
" clip-path="url(#p8f48f23eac)" style="fill: #0000ff"/>
   </g>
   <g id="patch_300">
    <path d="M 430.897103 122.617895 
L 526.033966 122.617895 
L 526.033966 116.428421 
L 430.897103 116.428421 
z
" clip-path="url(#p8f48f23eac)" style="fill: #0000ff"/>
   </g>
   <g id="patch_301">
    <path d="M 445.762238 122.617895 
L 529.006993 122.617895 
L 529.006993 116.428421 
L 445.762238 116.428421 
z
" clip-path="url(#p8f48f23eac)" style="fill: #0000ff"/>
   </g>
   <g id="patch_302">
    <path d="M 624.143856 122.617895 
L 804.011988 122.617895 
L 804.011988 116.428421 
L 624.143856 116.428421 
z
" clip-path="url(#p8f48f23eac)" style="fill: #0000ff"/>
   </g>
   <g id="patch_303">
    <path d="M 144 104.281579 
L 344.679321 104.281579 
L 344.679321 103.817368 
L 144 103.817368 
z
" clip-path="url(#p8f48f23eac)" style="fill: #0000ff"/>
   </g>
   <g id="patch_304">
    <path d="M 346.165834 107.144211 
L 554.277722 107.144211 
L 554.277722 100.954737 
L 346.165834 100.954737 
z
" clip-path="url(#p8f48f23eac)" style="fill: #0000ff"/>
   </g>
   <g id="patch_305">
    <path d="M 349.138861 107.144211 
L 543.872128 107.144211 
L 543.872128 100.954737 
L 349.138861 100.954737 
z
" clip-path="url(#p8f48f23eac)" style="fill: #0000ff"/>
   </g>
   <g id="patch_306">
    <path d="M 555.764236 104.281579 
L 621.170829 104.281579 
L 621.170829 103.817368 
L 555.764236 103.817368 
z
" clip-path="url(#p8f48f23eac)" style="fill: #0000ff"/>
   </g>
   <g id="patch_307">
    <path d="M 622.657343 107.144211 
L 860.4995 107.144211 
L 860.4995 100.954737 
L 622.657343 100.954737 
z
" clip-path="url(#p8f48f23eac)" style="fill: #0000ff"/>
   </g>
   <g id="patch_308">
    <path d="M 667.252747 107.144211 
L 860.4995 107.144211 
L 860.4995 100.954737 
L 667.252747 100.954737 
z
" clip-path="url(#p8f48f23eac)" style="fill: #0000ff"/>
   </g>
   <g id="patch_309">
    <path d="M 861.986014 104.281579 
L 905.094905 104.281579 
L 905.094905 103.817368 
L 861.986014 103.817368 
z
" clip-path="url(#p8f48f23eac)" style="fill: #0000ff"/>
   </g>
   <g id="patch_310">
    <path d="M 144 88.807895 
L 435.356643 88.807895 
L 435.356643 88.343684 
L 144 88.343684 
z
" clip-path="url(#p8f48f23eac)" style="fill: #0000ff"/>
   </g>
   <g id="patch_311">
    <path d="M 436.843157 91.670526 
L 634.549451 91.670526 
L 634.549451 85.481053 
L 436.843157 85.481053 
z
" clip-path="url(#p8f48f23eac)" style="fill: #0000ff"/>
   </g>
   <g id="patch_312">
    <path d="M 439.816184 91.670526 
L 636.035964 91.670526 
L 636.035964 85.481053 
L 439.816184 85.481053 
z
" clip-path="url(#p8f48f23eac)" style="fill: #0000ff"/>
   </g>
   <g id="patch_313">
    <path d="M 637.522478 88.807895 
L 710.361638 88.807895 
L 710.361638 88.343684 
L 637.522478 88.343684 
z
" clip-path="url(#p8f48f23eac)" style="fill: #0000ff"/>
   </g>
   <g id="patch_314">
    <path d="M 711.848152 91.670526 
L 976.447552 91.670526 
L 976.447552 85.481053 
L 711.848152 85.481053 
z
" clip-path="url(#p8f48f23eac)" style="fill: #0000ff"/>
   </g>
   <g id="patch_315">
    <path d="M 757.93007 91.670526 
L 967.528472 91.670526 
L 967.528472 85.481053 
L 757.93007 85.481053 
z
" clip-path="url(#p8f48f23eac)" style="fill: #0000ff"/>
   </g>
   <g id="patch_316">
    <path d="M 977.934066 88.807895 
L 994.285714 88.807895 
L 994.285714 88.343684 
L 977.934066 88.343684 
z
" clip-path="url(#p8f48f23eac)" style="fill: #0000ff"/>
   </g>
   <g id="patch_317">
    <path d="M 144 73.334211 
L 245.082917 73.334211 
L 245.082917 72.87 
L 144 72.87 
z
" clip-path="url(#p8f48f23eac)" style="fill: #0000ff"/>
   </g>
   <g id="patch_318">
    <path d="M 246.569431 76.196842 
L 499.276723 76.196842 
L 499.276723 70.007368 
L 246.569431 70.007368 
z
" clip-path="url(#p8f48f23eac)" style="fill: #0000ff"/>
   </g>
   <g id="patch_319">
    <path d="M 300.083916 76.196842 
L 496.303696 76.196842 
L 496.303696 70.007368 
L 300.083916 70.007368 
z
" clip-path="url(#p8f48f23eac)" style="fill: #0000ff"/>
   </g>
   <g id="patch_320">
    <path d="M 500.763237 73.334211 
L 557.250749 73.334211 
L 557.250749 72.87 
L 500.763237 72.87 
z
" clip-path="url(#p8f48f23eac)" style="fill: #0000ff"/>
   </g>
   <g id="patch_321">
    <path d="M 558.737263 76.196842 
L 820.363636 76.196842 
L 820.363636 70.007368 
L 558.737263 70.007368 
z
" clip-path="url(#p8f48f23eac)" style="fill: #0000ff"/>
   </g>
   <g id="patch_322">
    <path d="M 616.711289 76.196842 
L 820.363636 76.196842 
L 820.363636 70.007368 
L 616.711289 70.007368 
z
" clip-path="url(#p8f48f23eac)" style="fill: #0000ff"/>
   </g>
   <g id="patch_323">
    <path d="M 821.85015 73.334211 
L 896.175824 73.334211 
L 896.175824 72.87 
L 821.85015 72.87 
z
" clip-path="url(#p8f48f23eac)" style="fill: #0000ff"/>
   </g>
   <g id="patch_324">
    <path d="M 144 57.860526 
L 274.813187 57.860526 
L 274.813187 57.396316 
L 144 57.396316 
z
" clip-path="url(#p8f48f23eac)" style="fill: #0000ff"/>
   </g>
   <g id="patch_325">
    <path d="M 276.2997 60.723158 
L 526.033966 60.723158 
L 526.033966 54.533684 
L 276.2997 54.533684 
z
" clip-path="url(#p8f48f23eac)" style="fill: #0000ff"/>
   </g>
   <g id="patch_326">
    <path d="M 331.300699 60.723158 
L 523.060939 60.723158 
L 523.060939 54.533684 
L 331.300699 54.533684 
z
" clip-path="url(#p8f48f23eac)" style="fill: #0000ff"/>
   </g>
   <g id="patch_327">
    <path d="M 527.52048 57.860526 
L 597.386613 57.860526 
L 597.386613 57.396316 
L 527.52048 57.396316 
z
" clip-path="url(#p8f48f23eac)" style="fill: #0000ff"/>
   </g>
   <g id="patch_328">
    <path d="M 598.873127 60.723158 
L 853.066933 60.723158 
L 853.066933 54.533684 
L 598.873127 54.533684 
z
" clip-path="url(#p8f48f23eac)" style="fill: #0000ff"/>
   </g>
   <g id="patch_329">
    <path d="M 641.982018 60.723158 
L 851.58042 60.723158 
L 851.58042 54.533684 
L 641.982018 54.533684 
z
" clip-path="url(#p8f48f23eac)" style="fill: #0000ff"/>
   </g>
   <g id="patch_330">
    <path d="M 854.553447 57.860526 
L 890.22977 57.860526 
L 890.22977 57.396316 
L 854.553447 57.396316 
z
" clip-path="url(#p8f48f23eac)" style="fill: #0000ff"/>
   </g>
   <g id="patch_331">
    <path d="M 144 45.249474 
L 423.464535 45.249474 
L 423.464535 39.06 
L 144 39.06 
z
" clip-path="url(#p8f48f23eac)" style="fill: #0000ff"/>
   </g>
   <g id="patch_332">
    <path d="M 227.244755 45.249474 
L 411.572428 45.249474 
L 411.572428 39.06 
L 227.244755 39.06 
z
" clip-path="url(#p8f48f23eac)" style="fill: #0000ff"/>
   </g>
   <g id="patch_333">
    <path d="M 424.951049 42.386842 
L 426.437562 42.386842 
L 426.437562 41.922632 
L 424.951049 41.922632 
z
" clip-path="url(#p8f48f23eac)" style="fill: #0000ff"/>
   </g>
   <g id="matplotlib.axis_1">
    <g id="xtick_1">
     <g id="line2d_1">
      <defs>
       <path id="m069aca3fff" d="M 0 0 
L 0 3.5 
" style="stroke: #000000; stroke-width: 0.8"/>
      </defs>
      <g>
       <use xlink:href="#m069aca3fff" x="291.164835" y="224.28" style="stroke: #000000; stroke-width: 0.8"/>
      </g>
     </g>
     <g id="text_1">
      <!-- 100 -->
      <g transform="translate(281.621085 238.878438) scale(0.1 -0.1)">
       <defs>
        <path id="DejaVuSans-31" d="M 794 531 
L 1825 531 
L 1825 4091 
L 703 3866 
L 703 4441 
L 1819 4666 
L 2450 4666 
L 2450 531 
L 3481 531 
L 3481 0 
L 794 0 
L 794 531 
z
" transform="scale(0.015625)"/>
        <path id="DejaVuSans-30" d="M 2034 4250 
Q 1547 4250 1301 3770 
Q 1056 3291 1056 2328 
Q 1056 1369 1301 889 
Q 1547 409 2034 409 
Q 2525 409 2770 889 
Q 3016 1369 3016 2328 
Q 3016 3291 2770 3770 
Q 2525 4250 2034 4250 
z
M 2034 4750 
Q 2819 4750 3233 4129 
Q 3647 3509 3647 2328 
Q 3647 1150 3233 529 
Q 2819 -91 2034 -91 
Q 1250 -91 836 529 
Q 422 1150 422 2328 
Q 422 3509 836 4129 
Q 1250 4750 2034 4750 
z
" transform="scale(0.015625)"/>
       </defs>
       <use xlink:href="#DejaVuSans-31"/>
       <use xlink:href="#DejaVuSans-30" x="63.623047"/>
       <use xlink:href="#DejaVuSans-30" x="127.246094"/>
      </g>
     </g>
    </g>
    <g id="xtick_2">
     <g id="line2d_2">
      <g>
       <use xlink:href="#m069aca3fff" x="439.816184" y="224.28" style="stroke: #000000; stroke-width: 0.8"/>
      </g>
     </g>
     <g id="text_2">
      <!-- 200 -->
      <g transform="translate(430.272434 238.878438) scale(0.1 -0.1)">
       <defs>
        <path id="DejaVuSans-32" d="M 1228 531 
L 3431 531 
L 3431 0 
L 469 0 
L 469 531 
Q 828 903 1448 1529 
Q 2069 2156 2228 2338 
Q 2531 2678 2651 2914 
Q 2772 3150 2772 3378 
Q 2772 3750 2511 3984 
Q 2250 4219 1831 4219 
Q 1534 4219 1204 4116 
Q 875 4013 500 3803 
L 500 4441 
Q 881 4594 1212 4672 
Q 1544 4750 1819 4750 
Q 2544 4750 2975 4387 
Q 3406 4025 3406 3419 
Q 3406 3131 3298 2873 
Q 3191 2616 2906 2266 
Q 2828 2175 2409 1742 
Q 1991 1309 1228 531 
z
" transform="scale(0.015625)"/>
       </defs>
       <use xlink:href="#DejaVuSans-32"/>
       <use xlink:href="#DejaVuSans-30" x="63.623047"/>
       <use xlink:href="#DejaVuSans-30" x="127.246094"/>
      </g>
     </g>
    </g>
    <g id="xtick_3">
     <g id="line2d_3">
      <g>
       <use xlink:href="#m069aca3fff" x="588.467532" y="224.28" style="stroke: #000000; stroke-width: 0.8"/>
      </g>
     </g>
     <g id="text_3">
      <!-- 300 -->
      <g transform="translate(578.923782 238.878438) scale(0.1 -0.1)">
       <defs>
        <path id="DejaVuSans-33" d="M 2597 2516 
Q 3050 2419 3304 2112 
Q 3559 1806 3559 1356 
Q 3559 666 3084 287 
Q 2609 -91 1734 -91 
Q 1441 -91 1130 -33 
Q 819 25 488 141 
L 488 750 
Q 750 597 1062 519 
Q 1375 441 1716 441 
Q 2309 441 2620 675 
Q 2931 909 2931 1356 
Q 2931 1769 2642 2001 
Q 2353 2234 1838 2234 
L 1294 2234 
L 1294 2753 
L 1863 2753 
Q 2328 2753 2575 2939 
Q 2822 3125 2822 3475 
Q 2822 3834 2567 4026 
Q 2313 4219 1838 4219 
Q 1578 4219 1281 4162 
Q 984 4106 628 3988 
L 628 4550 
Q 988 4650 1302 4700 
Q 1616 4750 1894 4750 
Q 2613 4750 3031 4423 
Q 3450 4097 3450 3541 
Q 3450 3153 3228 2886 
Q 3006 2619 2597 2516 
z
" transform="scale(0.015625)"/>
       </defs>
       <use xlink:href="#DejaVuSans-33"/>
       <use xlink:href="#DejaVuSans-30" x="63.623047"/>
       <use xlink:href="#DejaVuSans-30" x="127.246094"/>
      </g>
     </g>
    </g>
    <g id="xtick_4">
     <g id="line2d_4">
      <g>
       <use xlink:href="#m069aca3fff" x="737.118881" y="224.28" style="stroke: #000000; stroke-width: 0.8"/>
      </g>
     </g>
     <g id="text_4">
      <!-- 400 -->
      <g transform="translate(727.575131 238.878438) scale(0.1 -0.1)">
       <defs>
        <path id="DejaVuSans-34" d="M 2419 4116 
L 825 1625 
L 2419 1625 
L 2419 4116 
z
M 2253 4666 
L 3047 4666 
L 3047 1625 
L 3713 1625 
L 3713 1100 
L 3047 1100 
L 3047 0 
L 2419 0 
L 2419 1100 
L 313 1100 
L 313 1709 
L 2253 4666 
z
" transform="scale(0.015625)"/>
       </defs>
       <use xlink:href="#DejaVuSans-34"/>
       <use xlink:href="#DejaVuSans-30" x="63.623047"/>
       <use xlink:href="#DejaVuSans-30" x="127.246094"/>
      </g>
     </g>
    </g>
    <g id="xtick_5">
     <g id="line2d_5">
      <g>
       <use xlink:href="#m069aca3fff" x="885.77023" y="224.28" style="stroke: #000000; stroke-width: 0.8"/>
      </g>
     </g>
     <g id="text_5">
      <!-- 500 -->
      <g transform="translate(876.22648 238.878438) scale(0.1 -0.1)">
       <defs>
        <path id="DejaVuSans-35" d="M 691 4666 
L 3169 4666 
L 3169 4134 
L 1269 4134 
L 1269 2991 
Q 1406 3038 1543 3061 
Q 1681 3084 1819 3084 
Q 2600 3084 3056 2656 
Q 3513 2228 3513 1497 
Q 3513 744 3044 326 
Q 2575 -91 1722 -91 
Q 1428 -91 1123 -41 
Q 819 9 494 109 
L 494 744 
Q 775 591 1075 516 
Q 1375 441 1709 441 
Q 2250 441 2565 725 
Q 2881 1009 2881 1497 
Q 2881 1984 2565 2268 
Q 2250 2553 1709 2553 
Q 1456 2553 1204 2497 
Q 953 2441 691 2322 
L 691 4666 
z
" transform="scale(0.015625)"/>
       </defs>
       <use xlink:href="#DejaVuSans-35"/>
       <use xlink:href="#DejaVuSans-30" x="63.623047"/>
       <use xlink:href="#DejaVuSans-30" x="127.246094"/>
      </g>
     </g>
    </g>
    <g id="xtick_6">
     <g id="line2d_6">
      <g>
       <use xlink:href="#m069aca3fff" x="1034.421578" y="224.28" style="stroke: #000000; stroke-width: 0.8"/>
      </g>
     </g>
     <g id="text_6">
      <!-- 600 -->
      <g transform="translate(1024.877828 238.878438) scale(0.1 -0.1)">
       <defs>
        <path id="DejaVuSans-36" d="M 2113 2584 
Q 1688 2584 1439 2293 
Q 1191 2003 1191 1497 
Q 1191 994 1439 701 
Q 1688 409 2113 409 
Q 2538 409 2786 701 
Q 3034 994 3034 1497 
Q 3034 2003 2786 2293 
Q 2538 2584 2113 2584 
z
M 3366 4563 
L 3366 3988 
Q 3128 4100 2886 4159 
Q 2644 4219 2406 4219 
Q 1781 4219 1451 3797 
Q 1122 3375 1075 2522 
Q 1259 2794 1537 2939 
Q 1816 3084 2150 3084 
Q 2853 3084 3261 2657 
Q 3669 2231 3669 1497 
Q 3669 778 3244 343 
Q 2819 -91 2113 -91 
Q 1303 -91 875 529 
Q 447 1150 447 2328 
Q 447 3434 972 4092 
Q 1497 4750 2381 4750 
Q 2619 4750 2861 4703 
Q 3103 4656 3366 4563 
z
" transform="scale(0.015625)"/>
       </defs>
       <use xlink:href="#DejaVuSans-36"/>
       <use xlink:href="#DejaVuSans-30" x="63.623047"/>
       <use xlink:href="#DejaVuSans-30" x="127.246094"/>
      </g>
     </g>
    </g>
    <g id="text_7">
     <!-- Residual -->
     <g transform="translate(569.284375 252.556563) scale(0.1 -0.1)">
      <defs>
       <path id="DejaVuSans-52" d="M 2841 2188 
Q 3044 2119 3236 1894 
Q 3428 1669 3622 1275 
L 4263 0 
L 3584 0 
L 2988 1197 
Q 2756 1666 2539 1819 
Q 2322 1972 1947 1972 
L 1259 1972 
L 1259 0 
L 628 0 
L 628 4666 
L 2053 4666 
Q 2853 4666 3247 4331 
Q 3641 3997 3641 3322 
Q 3641 2881 3436 2590 
Q 3231 2300 2841 2188 
z
M 1259 4147 
L 1259 2491 
L 2053 2491 
Q 2509 2491 2742 2702 
Q 2975 2913 2975 3322 
Q 2975 3731 2742 3939 
Q 2509 4147 2053 4147 
L 1259 4147 
z
" transform="scale(0.015625)"/>
       <path id="DejaVuSans-65" d="M 3597 1894 
L 3597 1613 
L 953 1613 
Q 991 1019 1311 708 
Q 1631 397 2203 397 
Q 2534 397 2845 478 
Q 3156 559 3463 722 
L 3463 178 
Q 3153 47 2828 -22 
Q 2503 -91 2169 -91 
Q 1331 -91 842 396 
Q 353 884 353 1716 
Q 353 2575 817 3079 
Q 1281 3584 2069 3584 
Q 2775 3584 3186 3129 
Q 3597 2675 3597 1894 
z
M 3022 2063 
Q 3016 2534 2758 2815 
Q 2500 3097 2075 3097 
Q 1594 3097 1305 2825 
Q 1016 2553 972 2059 
L 3022 2063 
z
" transform="scale(0.015625)"/>
       <path id="DejaVuSans-73" d="M 2834 3397 
L 2834 2853 
Q 2591 2978 2328 3040 
Q 2066 3103 1784 3103 
Q 1356 3103 1142 2972 
Q 928 2841 928 2578 
Q 928 2378 1081 2264 
Q 1234 2150 1697 2047 
L 1894 2003 
Q 2506 1872 2764 1633 
Q 3022 1394 3022 966 
Q 3022 478 2636 193 
Q 2250 -91 1575 -91 
Q 1294 -91 989 -36 
Q 684 19 347 128 
L 347 722 
Q 666 556 975 473 
Q 1284 391 1588 391 
Q 1994 391 2212 530 
Q 2431 669 2431 922 
Q 2431 1156 2273 1281 
Q 2116 1406 1581 1522 
L 1381 1569 
Q 847 1681 609 1914 
Q 372 2147 372 2553 
Q 372 3047 722 3315 
Q 1072 3584 1716 3584 
Q 2034 3584 2315 3537 
Q 2597 3491 2834 3397 
z
" transform="scale(0.015625)"/>
       <path id="DejaVuSans-69" d="M 603 3500 
L 1178 3500 
L 1178 0 
L 603 0 
L 603 3500 
z
M 603 4863 
L 1178 4863 
L 1178 4134 
L 603 4134 
L 603 4863 
z
" transform="scale(0.015625)"/>
       <path id="DejaVuSans-64" d="M 2906 2969 
L 2906 4863 
L 3481 4863 
L 3481 0 
L 2906 0 
L 2906 525 
Q 2725 213 2448 61 
Q 2172 -91 1784 -91 
Q 1150 -91 751 415 
Q 353 922 353 1747 
Q 353 2572 751 3078 
Q 1150 3584 1784 3584 
Q 2172 3584 2448 3432 
Q 2725 3281 2906 2969 
z
M 947 1747 
Q 947 1113 1208 752 
Q 1469 391 1925 391 
Q 2381 391 2643 752 
Q 2906 1113 2906 1747 
Q 2906 2381 2643 2742 
Q 2381 3103 1925 3103 
Q 1469 3103 1208 2742 
Q 947 2381 947 1747 
z
" transform="scale(0.015625)"/>
       <path id="DejaVuSans-75" d="M 544 1381 
L 544 3500 
L 1119 3500 
L 1119 1403 
Q 1119 906 1312 657 
Q 1506 409 1894 409 
Q 2359 409 2629 706 
Q 2900 1003 2900 1516 
L 2900 3500 
L 3475 3500 
L 3475 0 
L 2900 0 
L 2900 538 
Q 2691 219 2414 64 
Q 2138 -91 1772 -91 
Q 1169 -91 856 284 
Q 544 659 544 1381 
z
M 1991 3584 
L 1991 3584 
z
" transform="scale(0.015625)"/>
       <path id="DejaVuSans-61" d="M 2194 1759 
Q 1497 1759 1228 1600 
Q 959 1441 959 1056 
Q 959 750 1161 570 
Q 1363 391 1709 391 
Q 2188 391 2477 730 
Q 2766 1069 2766 1631 
L 2766 1759 
L 2194 1759 
z
M 3341 1997 
L 3341 0 
L 2766 0 
L 2766 531 
Q 2569 213 2275 61 
Q 1981 -91 1556 -91 
Q 1019 -91 701 211 
Q 384 513 384 1019 
Q 384 1609 779 1909 
Q 1175 2209 1959 2209 
L 2766 2209 
L 2766 2266 
Q 2766 2663 2505 2880 
Q 2244 3097 1772 3097 
Q 1472 3097 1187 3025 
Q 903 2953 641 2809 
L 641 3341 
Q 956 3463 1253 3523 
Q 1550 3584 1831 3584 
Q 2591 3584 2966 3190 
Q 3341 2797 3341 1997 
z
" transform="scale(0.015625)"/>
       <path id="DejaVuSans-6c" d="M 603 4863 
L 1178 4863 
L 1178 0 
L 603 0 
L 603 4863 
z
" transform="scale(0.015625)"/>
      </defs>
      <use xlink:href="#DejaVuSans-52"/>
      <use xlink:href="#DejaVuSans-65" x="64.982422"/>
      <use xlink:href="#DejaVuSans-73" x="126.505859"/>
      <use xlink:href="#DejaVuSans-69" x="178.605469"/>
      <use xlink:href="#DejaVuSans-64" x="206.388672"/>
      <use xlink:href="#DejaVuSans-75" x="269.865234"/>
      <use xlink:href="#DejaVuSans-61" x="333.244141"/>
      <use xlink:href="#DejaVuSans-6c" x="394.523438"/>
     </g>
    </g>
   </g>
   <g id="matplotlib.axis_2">
    <g id="ytick_1">
     <g id="line2d_7">
      <defs>
       <path id="m255629aeb0" d="M 0 0 
L -3.5 0 
" style="stroke: #000000; stroke-width: 0.8"/>
      </defs>
      <g>
       <use xlink:href="#m255629aeb0" x="144" y="212.365263" style="stroke: #000000; stroke-width: 0.8"/>
      </g>
     </g>
     <g id="text_8">
      <!-- 1.A.26.1.1 -->
      <g transform="translate(85.809375 216.164482) scale(0.1 -0.1)">
       <defs>
        <path id="DejaVuSans-2e" d="M 684 794 
L 1344 794 
L 1344 0 
L 684 0 
L 684 794 
z
" transform="scale(0.015625)"/>
        <path id="DejaVuSans-41" d="M 2188 4044 
L 1331 1722 
L 3047 1722 
L 2188 4044 
z
M 1831 4666 
L 2547 4666 
L 4325 0 
L 3669 0 
L 3244 1197 
L 1141 1197 
L 716 0 
L 50 0 
L 1831 4666 
z
" transform="scale(0.015625)"/>
       </defs>
       <use xlink:href="#DejaVuSans-31"/>
       <use xlink:href="#DejaVuSans-2e" x="63.623047"/>
       <use xlink:href="#DejaVuSans-41" x="95.410156"/>
       <use xlink:href="#DejaVuSans-2e" x="162.068359"/>
       <use xlink:href="#DejaVuSans-32" x="193.855469"/>
       <use xlink:href="#DejaVuSans-36" x="257.478516"/>
       <use xlink:href="#DejaVuSans-2e" x="321.101562"/>
       <use xlink:href="#DejaVuSans-31" x="352.888672"/>
       <use xlink:href="#DejaVuSans-2e" x="416.511719"/>
       <use xlink:href="#DejaVuSans-31" x="448.298828"/>
      </g>
     </g>
    </g>
    <g id="ytick_2">
     <g id="line2d_8">
      <g>
       <use xlink:href="#m255629aeb0" x="144" y="196.891579" style="stroke: #000000; stroke-width: 0.8"/>
      </g>
     </g>
     <g id="text_9">
      <!-- 1.A.26.1.2 -->
      <g transform="translate(85.809375 200.690798) scale(0.1 -0.1)">
       <use xlink:href="#DejaVuSans-31"/>
       <use xlink:href="#DejaVuSans-2e" x="63.623047"/>
       <use xlink:href="#DejaVuSans-41" x="95.410156"/>
       <use xlink:href="#DejaVuSans-2e" x="162.068359"/>
       <use xlink:href="#DejaVuSans-32" x="193.855469"/>
       <use xlink:href="#DejaVuSans-36" x="257.478516"/>
       <use xlink:href="#DejaVuSans-2e" x="321.101562"/>
       <use xlink:href="#DejaVuSans-31" x="352.888672"/>
       <use xlink:href="#DejaVuSans-2e" x="416.511719"/>
       <use xlink:href="#DejaVuSans-32" x="448.298828"/>
      </g>
     </g>
    </g>
    <g id="ytick_3">
     <g id="line2d_9">
      <g>
       <use xlink:href="#m255629aeb0" x="144" y="181.417895" style="stroke: #000000; stroke-width: 0.8"/>
      </g>
     </g>
     <g id="text_10">
      <!-- 1.A.26.1.3 -->
      <g transform="translate(85.809375 185.217113) scale(0.1 -0.1)">
       <use xlink:href="#DejaVuSans-31"/>
       <use xlink:href="#DejaVuSans-2e" x="63.623047"/>
       <use xlink:href="#DejaVuSans-41" x="95.410156"/>
       <use xlink:href="#DejaVuSans-2e" x="162.068359"/>
       <use xlink:href="#DejaVuSans-32" x="193.855469"/>
       <use xlink:href="#DejaVuSans-36" x="257.478516"/>
       <use xlink:href="#DejaVuSans-2e" x="321.101562"/>
       <use xlink:href="#DejaVuSans-31" x="352.888672"/>
       <use xlink:href="#DejaVuSans-2e" x="416.511719"/>
       <use xlink:href="#DejaVuSans-33" x="448.298828"/>
      </g>
     </g>
    </g>
    <g id="ytick_4">
     <g id="line2d_10">
      <g>
       <use xlink:href="#m255629aeb0" x="144" y="165.944211" style="stroke: #000000; stroke-width: 0.8"/>
      </g>
     </g>
     <g id="text_11">
      <!-- 1.A.26.1.4 -->
      <g transform="translate(85.809375 169.743429) scale(0.1 -0.1)">
       <use xlink:href="#DejaVuSans-31"/>
       <use xlink:href="#DejaVuSans-2e" x="63.623047"/>
       <use xlink:href="#DejaVuSans-41" x="95.410156"/>
       <use xlink:href="#DejaVuSans-2e" x="162.068359"/>
       <use xlink:href="#DejaVuSans-32" x="193.855469"/>
       <use xlink:href="#DejaVuSans-36" x="257.478516"/>
       <use xlink:href="#DejaVuSans-2e" x="321.101562"/>
       <use xlink:href="#DejaVuSans-31" x="352.888672"/>
       <use xlink:href="#DejaVuSans-2e" x="416.511719"/>
       <use xlink:href="#DejaVuSans-34" x="448.298828"/>
      </g>
     </g>
    </g>
    <g id="ytick_5">
     <g id="line2d_11">
      <g>
       <use xlink:href="#m255629aeb0" x="144" y="150.470526" style="stroke: #000000; stroke-width: 0.8"/>
      </g>
     </g>
     <g id="text_12">
      <!-- 1.A.26.1.5 -->
      <g transform="translate(85.809375 154.269745) scale(0.1 -0.1)">
       <use xlink:href="#DejaVuSans-31"/>
       <use xlink:href="#DejaVuSans-2e" x="63.623047"/>
       <use xlink:href="#DejaVuSans-41" x="95.410156"/>
       <use xlink:href="#DejaVuSans-2e" x="162.068359"/>
       <use xlink:href="#DejaVuSans-32" x="193.855469"/>
       <use xlink:href="#DejaVuSans-36" x="257.478516"/>
       <use xlink:href="#DejaVuSans-2e" x="321.101562"/>
       <use xlink:href="#DejaVuSans-31" x="352.888672"/>
       <use xlink:href="#DejaVuSans-2e" x="416.511719"/>
       <use xlink:href="#DejaVuSans-35" x="448.298828"/>
      </g>
     </g>
    </g>
    <g id="ytick_6">
     <g id="line2d_12">
      <g>
       <use xlink:href="#m255629aeb0" x="144" y="134.996842" style="stroke: #000000; stroke-width: 0.8"/>
      </g>
     </g>
     <g id="text_13">
      <!-- 1.A.26.1.6 -->
      <g transform="translate(85.809375 138.796061) scale(0.1 -0.1)">
       <use xlink:href="#DejaVuSans-31"/>
       <use xlink:href="#DejaVuSans-2e" x="63.623047"/>
       <use xlink:href="#DejaVuSans-41" x="95.410156"/>
       <use xlink:href="#DejaVuSans-2e" x="162.068359"/>
       <use xlink:href="#DejaVuSans-32" x="193.855469"/>
       <use xlink:href="#DejaVuSans-36" x="257.478516"/>
       <use xlink:href="#DejaVuSans-2e" x="321.101562"/>
       <use xlink:href="#DejaVuSans-31" x="352.888672"/>
       <use xlink:href="#DejaVuSans-2e" x="416.511719"/>
       <use xlink:href="#DejaVuSans-36" x="448.298828"/>
      </g>
     </g>
    </g>
    <g id="ytick_7">
     <g id="line2d_13">
      <g>
       <use xlink:href="#m255629aeb0" x="144" y="119.523158" style="stroke: #000000; stroke-width: 0.8"/>
      </g>
     </g>
     <g id="text_14">
      <!-- 1.A.26.1.7 -->
      <g transform="translate(85.809375 123.322377) scale(0.1 -0.1)">
       <defs>
        <path id="DejaVuSans-37" d="M 525 4666 
L 3525 4666 
L 3525 4397 
L 1831 0 
L 1172 0 
L 2766 4134 
L 525 4134 
L 525 4666 
z
" transform="scale(0.015625)"/>
       </defs>
       <use xlink:href="#DejaVuSans-31"/>
       <use xlink:href="#DejaVuSans-2e" x="63.623047"/>
       <use xlink:href="#DejaVuSans-41" x="95.410156"/>
       <use xlink:href="#DejaVuSans-2e" x="162.068359"/>
       <use xlink:href="#DejaVuSans-32" x="193.855469"/>
       <use xlink:href="#DejaVuSans-36" x="257.478516"/>
       <use xlink:href="#DejaVuSans-2e" x="321.101562"/>
       <use xlink:href="#DejaVuSans-31" x="352.888672"/>
       <use xlink:href="#DejaVuSans-2e" x="416.511719"/>
       <use xlink:href="#DejaVuSans-37" x="448.298828"/>
      </g>
     </g>
    </g>
    <g id="ytick_8">
     <g id="line2d_14">
      <g>
       <use xlink:href="#m255629aeb0" x="144" y="104.049474" style="stroke: #000000; stroke-width: 0.8"/>
      </g>
     </g>
     <g id="text_15">
      <!-- 1.A.26.2.1 -->
      <g transform="translate(85.809375 107.848692) scale(0.1 -0.1)">
       <use xlink:href="#DejaVuSans-31"/>
       <use xlink:href="#DejaVuSans-2e" x="63.623047"/>
       <use xlink:href="#DejaVuSans-41" x="95.410156"/>
       <use xlink:href="#DejaVuSans-2e" x="162.068359"/>
       <use xlink:href="#DejaVuSans-32" x="193.855469"/>
       <use xlink:href="#DejaVuSans-36" x="257.478516"/>
       <use xlink:href="#DejaVuSans-2e" x="321.101562"/>
       <use xlink:href="#DejaVuSans-32" x="352.888672"/>
       <use xlink:href="#DejaVuSans-2e" x="416.511719"/>
       <use xlink:href="#DejaVuSans-31" x="448.298828"/>
      </g>
     </g>
    </g>
    <g id="ytick_9">
     <g id="line2d_15">
      <g>
       <use xlink:href="#m255629aeb0" x="144" y="88.575789" style="stroke: #000000; stroke-width: 0.8"/>
      </g>
     </g>
     <g id="text_16">
      <!-- 1.A.26.2.2 -->
      <g transform="translate(85.809375 92.375008) scale(0.1 -0.1)">
       <use xlink:href="#DejaVuSans-31"/>
       <use xlink:href="#DejaVuSans-2e" x="63.623047"/>
       <use xlink:href="#DejaVuSans-41" x="95.410156"/>
       <use xlink:href="#DejaVuSans-2e" x="162.068359"/>
       <use xlink:href="#DejaVuSans-32" x="193.855469"/>
       <use xlink:href="#DejaVuSans-36" x="257.478516"/>
       <use xlink:href="#DejaVuSans-2e" x="321.101562"/>
       <use xlink:href="#DejaVuSans-32" x="352.888672"/>
       <use xlink:href="#DejaVuSans-2e" x="416.511719"/>
       <use xlink:href="#DejaVuSans-32" x="448.298828"/>
      </g>
     </g>
    </g>
    <g id="ytick_10">
     <g id="line2d_16">
      <g>
       <use xlink:href="#m255629aeb0" x="144" y="73.102105" style="stroke: #000000; stroke-width: 0.8"/>
      </g>
     </g>
     <g id="text_17">
      <!-- 1.A.26.2.3 -->
      <g transform="translate(85.809375 76.901324) scale(0.1 -0.1)">
       <use xlink:href="#DejaVuSans-31"/>
       <use xlink:href="#DejaVuSans-2e" x="63.623047"/>
       <use xlink:href="#DejaVuSans-41" x="95.410156"/>
       <use xlink:href="#DejaVuSans-2e" x="162.068359"/>
       <use xlink:href="#DejaVuSans-32" x="193.855469"/>
       <use xlink:href="#DejaVuSans-36" x="257.478516"/>
       <use xlink:href="#DejaVuSans-2e" x="321.101562"/>
       <use xlink:href="#DejaVuSans-32" x="352.888672"/>
       <use xlink:href="#DejaVuSans-2e" x="416.511719"/>
       <use xlink:href="#DejaVuSans-33" x="448.298828"/>
      </g>
     </g>
    </g>
    <g id="ytick_11">
     <g id="line2d_17">
      <g>
       <use xlink:href="#m255629aeb0" x="144" y="57.628421" style="stroke: #000000; stroke-width: 0.8"/>
      </g>
     </g>
     <g id="text_18">
      <!-- 1.A.26.2.4 -->
      <g transform="translate(85.809375 61.42764) scale(0.1 -0.1)">
       <use xlink:href="#DejaVuSans-31"/>
       <use xlink:href="#DejaVuSans-2e" x="63.623047"/>
       <use xlink:href="#DejaVuSans-41" x="95.410156"/>
       <use xlink:href="#DejaVuSans-2e" x="162.068359"/>
       <use xlink:href="#DejaVuSans-32" x="193.855469"/>
       <use xlink:href="#DejaVuSans-36" x="257.478516"/>
       <use xlink:href="#DejaVuSans-2e" x="321.101562"/>
       <use xlink:href="#DejaVuSans-32" x="352.888672"/>
       <use xlink:href="#DejaVuSans-2e" x="416.511719"/>
       <use xlink:href="#DejaVuSans-34" x="448.298828"/>
      </g>
     </g>
    </g>
    <g id="ytick_12">
     <g id="line2d_18">
      <g>
       <use xlink:href="#m255629aeb0" x="144" y="42.154737" style="stroke: #000000; stroke-width: 0.8"/>
      </g>
     </g>
     <g id="text_19">
      <!-- 1.A.26.3.1 -->
      <g transform="translate(85.809375 45.953956) scale(0.1 -0.1)">
       <use xlink:href="#DejaVuSans-31"/>
       <use xlink:href="#DejaVuSans-2e" x="63.623047"/>
       <use xlink:href="#DejaVuSans-41" x="95.410156"/>
       <use xlink:href="#DejaVuSans-2e" x="162.068359"/>
       <use xlink:href="#DejaVuSans-32" x="193.855469"/>
       <use xlink:href="#DejaVuSans-36" x="257.478516"/>
       <use xlink:href="#DejaVuSans-2e" x="321.101562"/>
       <use xlink:href="#DejaVuSans-33" x="352.888672"/>
       <use xlink:href="#DejaVuSans-2e" x="416.511719"/>
       <use xlink:href="#DejaVuSans-31" x="448.298828"/>
      </g>
     </g>
    </g>
   </g>
   <g id="patch_334">
    <path d="M 144 224.28 
L 144 30.24 
" style="fill: none; stroke: #000000; stroke-width: 0.8; stroke-linejoin: miter; stroke-linecap: square"/>
   </g>
   <g id="patch_335">
    <path d="M 1036.8 224.28 
L 1036.8 30.24 
" style="fill: none; stroke: #000000; stroke-width: 0.8; stroke-linejoin: miter; stroke-linecap: square"/>
   </g>
   <g id="patch_336">
    <path d="M 144 224.28 
L 1036.8 224.28 
" style="fill: none; stroke: #000000; stroke-width: 0.8; stroke-linejoin: miter; stroke-linecap: square"/>
   </g>
   <g id="patch_337">
    <path d="M 144 30.24 
L 1036.8 30.24 
" style="fill: none; stroke: #000000; stroke-width: 0.8; stroke-linejoin: miter; stroke-linecap: square"/>
   </g>
   <g id="text_20">
    <!-- 1.A.26 Summary -->
    <g transform="translate(540.2325 24.24) scale(0.12 -0.12)">
     <defs>
      <path id="DejaVuSans-20" transform="scale(0.015625)"/>
      <path id="DejaVuSans-53" d="M 3425 4513 
L 3425 3897 
Q 3066 4069 2747 4153 
Q 2428 4238 2131 4238 
Q 1616 4238 1336 4038 
Q 1056 3838 1056 3469 
Q 1056 3159 1242 3001 
Q 1428 2844 1947 2747 
L 2328 2669 
Q 3034 2534 3370 2195 
Q 3706 1856 3706 1288 
Q 3706 609 3251 259 
Q 2797 -91 1919 -91 
Q 1588 -91 1214 -16 
Q 841 59 441 206 
L 441 856 
Q 825 641 1194 531 
Q 1563 422 1919 422 
Q 2459 422 2753 634 
Q 3047 847 3047 1241 
Q 3047 1584 2836 1778 
Q 2625 1972 2144 2069 
L 1759 2144 
Q 1053 2284 737 2584 
Q 422 2884 422 3419 
Q 422 4038 858 4394 
Q 1294 4750 2059 4750 
Q 2388 4750 2728 4690 
Q 3069 4631 3425 4513 
z
" transform="scale(0.015625)"/>
      <path id="DejaVuSans-6d" d="M 3328 2828 
Q 3544 3216 3844 3400 
Q 4144 3584 4550 3584 
Q 5097 3584 5394 3201 
Q 5691 2819 5691 2113 
L 5691 0 
L 5113 0 
L 5113 2094 
Q 5113 2597 4934 2840 
Q 4756 3084 4391 3084 
Q 3944 3084 3684 2787 
Q 3425 2491 3425 1978 
L 3425 0 
L 2847 0 
L 2847 2094 
Q 2847 2600 2669 2842 
Q 2491 3084 2119 3084 
Q 1678 3084 1418 2786 
Q 1159 2488 1159 1978 
L 1159 0 
L 581 0 
L 581 3500 
L 1159 3500 
L 1159 2956 
Q 1356 3278 1631 3431 
Q 1906 3584 2284 3584 
Q 2666 3584 2933 3390 
Q 3200 3197 3328 2828 
z
" transform="scale(0.015625)"/>
      <path id="DejaVuSans-72" d="M 2631 2963 
Q 2534 3019 2420 3045 
Q 2306 3072 2169 3072 
Q 1681 3072 1420 2755 
Q 1159 2438 1159 1844 
L 1159 0 
L 581 0 
L 581 3500 
L 1159 3500 
L 1159 2956 
Q 1341 3275 1631 3429 
Q 1922 3584 2338 3584 
Q 2397 3584 2469 3576 
Q 2541 3569 2628 3553 
L 2631 2963 
z
" transform="scale(0.015625)"/>
      <path id="DejaVuSans-79" d="M 2059 -325 
Q 1816 -950 1584 -1140 
Q 1353 -1331 966 -1331 
L 506 -1331 
L 506 -850 
L 844 -850 
Q 1081 -850 1212 -737 
Q 1344 -625 1503 -206 
L 1606 56 
L 191 3500 
L 800 3500 
L 1894 763 
L 2988 3500 
L 3597 3500 
L 2059 -325 
z
" transform="scale(0.015625)"/>
     </defs>
     <use xlink:href="#DejaVuSans-31"/>
     <use xlink:href="#DejaVuSans-2e" x="63.623047"/>
     <use xlink:href="#DejaVuSans-41" x="95.410156"/>
     <use xlink:href="#DejaVuSans-2e" x="162.068359"/>
     <use xlink:href="#DejaVuSans-32" x="193.855469"/>
     <use xlink:href="#DejaVuSans-36" x="257.478516"/>
     <use xlink:href="#DejaVuSans-20" x="321.101562"/>
     <use xlink:href="#DejaVuSans-53" x="352.888672"/>
     <use xlink:href="#DejaVuSans-75" x="416.365234"/>
     <use xlink:href="#DejaVuSans-6d" x="479.744141"/>
     <use xlink:href="#DejaVuSans-6d" x="577.15625"/>
     <use xlink:href="#DejaVuSans-61" x="674.568359"/>
     <use xlink:href="#DejaVuSans-72" x="735.847656"/>
     <use xlink:href="#DejaVuSans-79" x="776.960938"/>
    </g>
   </g>
  </g>
 </g>
 <defs>
  <clipPath id="p8f48f23eac">
   <rect x="144" y="30.24" width="892.8" height="194.04"/>
  </clipPath>
 </defs>
</svg>
