<?xml version="1.0" encoding="utf-8" standalone="no"?>
<!DOCTYPE svg PUBLIC "-//W3C//DTD SVG 1.1//EN"
  "http://www.w3.org/Graphics/SVG/1.1/DTD/svg11.dtd">
<svg xmlns:xlink="http://www.w3.org/1999/xlink" width="1152pt" height="216pt" viewBox="0 0 1152 216" xmlns="http://www.w3.org/2000/svg" version="1.1">
 <metadata>
  <rdf:RDF xmlns:dc="http://purl.org/dc/elements/1.1/" xmlns:cc="http://creativecommons.org/ns#" xmlns:rdf="http://www.w3.org/1999/02/22-rdf-syntax-ns#">
   <cc:Work>
    <dc:type rdf:resource="http://purl.org/dc/dcmitype/StillImage"/>
    <dc:date>2024-10-24T15:43:05.258196</dc:date>
    <dc:format>image/svg+xml</dc:format>
    <dc:creator>
     <cc:Agent>
      <dc:title>Matplotlib v3.8.4, https://matplotlib.org/</dc:title>
     </cc:Agent>
    </dc:creator>
   </cc:Work>
  </rdf:RDF>
 </metadata>
 <defs>
  <style type="text/css">*{stroke-linejoin: round; stroke-linecap: butt}</style>
 </defs>
 <g id="figure_1">
  <g id="patch_1">
   <path d="M 0 216 
L 1152 216 
L 1152 0 
L 0 0 
z
" style="fill: #ffffff"/>
  </g>
  <g id="axes_1">
   <g id="patch_2">
    <path d="M 144 192.24 
L 1036.8 192.24 
L 1036.8 25.92 
L 144 25.92 
z
" style="fill: #ffffff"/>
   </g>
   <g id="patch_3">
    <path d="M 144 184.68 
L 154.231293 184.68 
L 154.231293 178.245957 
L 144 178.245957 
z
" clip-path="url(#p74b62573e3)" style="fill: #0000ff"/>
   </g>
   <g id="patch_4">
    <path d="M 154.44898 181.704255 
L 157.496599 181.704255 
L 157.496599 181.221702 
L 154.44898 181.221702 
z
" clip-path="url(#p74b62573e3)" style="fill: #0000ff"/>
   </g>
   <g id="patch_5">
    <path d="M 144 168.594894 
L 155.537415 168.594894 
L 155.537415 162.160851 
L 144 162.160851 
z
" clip-path="url(#p74b62573e3)" style="fill: #0000ff"/>
   </g>
   <g id="patch_6">
    <path d="M 144 149.534043 
L 161.85034 149.534043 
L 161.85034 149.051489 
L 144 149.051489 
z
" clip-path="url(#p74b62573e3)" style="fill: #0000ff"/>
   </g>
   <g id="patch_7">
    <path d="M 162.068027 152.509787 
L 177.52381 152.509787 
L 177.52381 146.075745 
L 162.068027 146.075745 
z
" clip-path="url(#p74b62573e3)" style="fill: #0000ff"/>
   </g>
   <g id="patch_8">
    <path d="M 177.741497 149.534043 
L 354.721088 149.534043 
L 354.721088 149.051489 
L 177.741497 149.051489 
z
" clip-path="url(#p74b62573e3)" style="fill: #0000ff"/>
   </g>
   <g id="patch_9">
    <path d="M 354.938776 152.509787 
L 387.156463 152.509787 
L 387.156463 146.075745 
L 354.938776 146.075745 
z
" clip-path="url(#p74b62573e3)" style="fill: #0000ff"/>
   </g>
   <g id="patch_10">
    <path d="M 387.37415 149.534043 
L 390.639456 149.534043 
L 390.639456 149.051489 
L 387.37415 149.051489 
z
" clip-path="url(#p74b62573e3)" style="fill: #0000ff"/>
   </g>
   <g id="patch_11">
    <path d="M 390.857143 152.509787 
L 425.251701 152.509787 
L 425.251701 146.075745 
L 390.857143 146.075745 
z
" clip-path="url(#p74b62573e3)" style="fill: #0000ff"/>
   </g>
   <g id="patch_12">
    <path d="M 391.727891 152.509787 
L 421.986395 152.509787 
L 421.986395 146.075745 
L 391.727891 146.075745 
z
" clip-path="url(#p74b62573e3)" style="fill: #0000ff"/>
   </g>
   <g id="patch_13">
    <path d="M 393.469388 152.509787 
L 420.897959 152.509787 
L 420.897959 146.075745 
L 393.469388 146.075745 
z
" clip-path="url(#p74b62573e3)" style="fill: #0000ff"/>
   </g>
   <g id="patch_14">
    <path d="M 421.115646 152.509787 
L 445.061224 152.509787 
L 445.061224 146.075745 
L 421.115646 146.075745 
z
" clip-path="url(#p74b62573e3)" style="fill: #0000ff"/>
   </g>
   <g id="patch_15">
    <path d="M 445.278912 149.534043 
L 639.238095 149.534043 
L 639.238095 149.051489 
L 445.278912 149.051489 
z
" clip-path="url(#p74b62573e3)" style="fill: #0000ff"/>
   </g>
   <g id="patch_16">
    <path d="M 639.455782 152.509787 
L 750.040816 152.509787 
L 750.040816 146.075745 
L 639.455782 146.075745 
z
" clip-path="url(#p74b62573e3)" style="fill: #0000ff"/>
   </g>
   <g id="patch_17">
    <path d="M 641.632653 152.509787 
L 753.306122 152.509787 
L 753.306122 146.075745 
L 641.632653 146.075745 
z
" clip-path="url(#p74b62573e3)" style="fill: #0000ff"/>
   </g>
   <g id="patch_18">
    <path d="M 642.285714 152.509787 
L 746.340136 152.509787 
L 746.340136 146.075745 
L 642.285714 146.075745 
z
" clip-path="url(#p74b62573e3)" style="fill: #0000ff"/>
   </g>
   <g id="patch_19">
    <path d="M 663.619048 152.509787 
L 724.789116 152.509787 
L 724.789116 146.075745 
L 663.619048 146.075745 
z
" clip-path="url(#p74b62573e3)" style="fill: #0000ff"/>
   </g>
   <g id="patch_20">
    <path d="M 668.408163 152.509787 
L 728.054422 152.509787 
L 728.054422 146.075745 
L 668.408163 146.075745 
z
" clip-path="url(#p74b62573e3)" style="fill: #0000ff"/>
   </g>
   <g id="patch_21">
    <path d="M 698.884354 152.509787 
L 708.680272 152.509787 
L 708.680272 146.075745 
L 698.884354 146.075745 
z
" clip-path="url(#p74b62573e3)" style="fill: #0000ff"/>
   </g>
   <g id="patch_22">
    <path d="M 753.52381 149.534043 
L 767.238095 149.534043 
L 767.238095 149.051489 
L 753.52381 149.051489 
z
" clip-path="url(#p74b62573e3)" style="fill: #0000ff"/>
   </g>
   <g id="patch_23">
    <path d="M 144 133.448936 
L 147.482993 133.448936 
L 147.482993 132.966383 
L 144 132.966383 
z
" clip-path="url(#p74b62573e3)" style="fill: #0000ff"/>
   </g>
   <g id="patch_24">
    <path d="M 147.70068 136.424681 
L 157.496599 136.424681 
L 157.496599 129.990638 
L 147.70068 129.990638 
z
" clip-path="url(#p74b62573e3)" style="fill: #0000ff"/>
   </g>
   <g id="patch_25">
    <path d="M 144 117.36383 
L 145.741497 117.36383 
L 145.741497 116.881277 
L 144 116.881277 
z
" clip-path="url(#p74b62573e3)" style="fill: #0000ff"/>
   </g>
   <g id="patch_26">
    <path d="M 145.959184 120.339574 
L 171.863946 120.339574 
L 171.863946 113.905532 
L 145.959184 113.905532 
z
" clip-path="url(#p74b62573e3)" style="fill: #0000ff"/>
   </g>
   <g id="patch_27">
    <path d="M 172.081633 120.339574 
L 187.319728 120.339574 
L 187.319728 113.905532 
L 172.081633 113.905532 
z
" clip-path="url(#p74b62573e3)" style="fill: #0000ff"/>
   </g>
   <g id="patch_28">
    <path d="M 187.537415 117.36383 
L 315.972789 117.36383 
L 315.972789 116.881277 
L 187.537415 116.881277 
z
" clip-path="url(#p74b62573e3)" style="fill: #0000ff"/>
   </g>
   <g id="patch_29">
    <path d="M 316.190476 120.339574 
L 358.421769 120.339574 
L 358.421769 113.905532 
L 316.190476 113.905532 
z
" clip-path="url(#p74b62573e3)" style="fill: #0000ff"/>
   </g>
   <g id="patch_30">
    <path d="M 358.639456 117.36383 
L 369.52381 117.36383 
L 369.52381 116.881277 
L 358.639456 116.881277 
z
" clip-path="url(#p74b62573e3)" style="fill: #0000ff"/>
   </g>
   <g id="patch_31">
    <path d="M 369.741497 120.339574 
L 399.782313 120.339574 
L 399.782313 113.905532 
L 369.741497 113.905532 
z
" clip-path="url(#p74b62573e3)" style="fill: #0000ff"/>
   </g>
   <g id="patch_32">
    <path d="M 400 117.36383 
L 404.353741 117.36383 
L 404.353741 116.881277 
L 400 116.881277 
z
" clip-path="url(#p74b62573e3)" style="fill: #0000ff"/>
   </g>
   <g id="patch_33">
    <path d="M 404.571429 120.339574 
L 434.176871 120.339574 
L 434.176871 113.905532 
L 404.571429 113.905532 
z
" clip-path="url(#p74b62573e3)" style="fill: #0000ff"/>
   </g>
   <g id="patch_34">
    <path d="M 406.095238 120.339574 
L 437.006803 120.339574 
L 437.006803 113.905532 
L 406.095238 113.905532 
z
" clip-path="url(#p74b62573e3)" style="fill: #0000ff"/>
   </g>
   <g id="patch_35">
    <path d="M 436.136054 120.339574 
L 462.258503 120.339574 
L 462.258503 113.905532 
L 436.136054 113.905532 
z
" clip-path="url(#p74b62573e3)" style="fill: #0000ff"/>
   </g>
   <g id="patch_36">
    <path d="M 441.360544 120.339574 
L 452.897959 120.339574 
L 452.897959 113.905532 
L 441.360544 113.905532 
z
" clip-path="url(#p74b62573e3)" style="fill: #0000ff"/>
   </g>
   <g id="patch_37">
    <path d="M 462.47619 117.36383 
L 588.734694 117.36383 
L 588.734694 116.881277 
L 462.47619 116.881277 
z
" clip-path="url(#p74b62573e3)" style="fill: #0000ff"/>
   </g>
   <g id="patch_38">
    <path d="M 588.952381 120.339574 
L 610.721088 120.339574 
L 610.721088 113.905532 
L 588.952381 113.905532 
z
" clip-path="url(#p74b62573e3)" style="fill: #0000ff"/>
   </g>
   <g id="patch_39">
    <path d="M 610.938776 117.36383 
L 656.870748 117.36383 
L 656.870748 116.881277 
L 610.938776 116.881277 
z
" clip-path="url(#p74b62573e3)" style="fill: #0000ff"/>
   </g>
   <g id="patch_40">
    <path d="M 657.088435 120.339574 
L 767.891156 120.339574 
L 767.891156 113.905532 
L 657.088435 113.905532 
z
" clip-path="url(#p74b62573e3)" style="fill: #0000ff"/>
   </g>
   <g id="patch_41">
    <path d="M 657.741497 120.339574 
L 764.190476 120.339574 
L 764.190476 113.905532 
L 657.741497 113.905532 
z
" clip-path="url(#p74b62573e3)" style="fill: #0000ff"/>
   </g>
   <g id="patch_42">
    <path d="M 659.482993 120.339574 
L 771.156463 120.339574 
L 771.156463 113.905532 
L 659.482993 113.905532 
z
" clip-path="url(#p74b62573e3)" style="fill: #0000ff"/>
   </g>
   <g id="patch_43">
    <path d="M 674.721088 120.339574 
L 740.680272 120.339574 
L 740.680272 113.905532 
L 674.721088 113.905532 
z
" clip-path="url(#p74b62573e3)" style="fill: #0000ff"/>
   </g>
   <g id="patch_44">
    <path d="M 681.687075 120.339574 
L 742.639456 120.339574 
L 742.639456 113.905532 
L 681.687075 113.905532 
z
" clip-path="url(#p74b62573e3)" style="fill: #0000ff"/>
   </g>
   <g id="patch_45">
    <path d="M 685.605442 120.339574 
L 746.993197 120.339574 
L 746.993197 113.905532 
L 685.605442 113.905532 
z
" clip-path="url(#p74b62573e3)" style="fill: #0000ff"/>
   </g>
   <g id="patch_46">
    <path d="M 689.088435 120.339574 
L 741.768707 120.339574 
L 741.768707 113.905532 
L 689.088435 113.905532 
z
" clip-path="url(#p74b62573e3)" style="fill: #0000ff"/>
   </g>
   <g id="patch_47">
    <path d="M 698.44898 120.339574 
L 735.891156 120.339574 
L 735.891156 113.905532 
L 698.44898 113.905532 
z
" clip-path="url(#p74b62573e3)" style="fill: #0000ff"/>
   </g>
   <g id="patch_48">
    <path d="M 698.44898 120.339574 
L 745.687075 120.339574 
L 745.687075 113.905532 
L 698.44898 113.905532 
z
" clip-path="url(#p74b62573e3)" style="fill: #0000ff"/>
   </g>
   <g id="patch_49">
    <path d="M 771.37415 117.36383 
L 783.129252 117.36383 
L 783.129252 116.881277 
L 771.37415 116.881277 
z
" clip-path="url(#p74b62573e3)" style="fill: #0000ff"/>
   </g>
   <g id="patch_50">
    <path d="M 144 101.278723 
L 180.571429 101.278723 
L 180.571429 100.79617 
L 144 100.79617 
z
" clip-path="url(#p74b62573e3)" style="fill: #0000ff"/>
   </g>
   <g id="patch_51">
    <path d="M 180.789116 104.254468 
L 191.020408 104.254468 
L 191.020408 97.820426 
L 180.789116 97.820426 
z
" clip-path="url(#p74b62573e3)" style="fill: #0000ff"/>
   </g>
   <g id="patch_52">
    <path d="M 191.238095 101.278723 
L 206.47619 101.278723 
L 206.47619 100.79617 
L 191.238095 100.79617 
z
" clip-path="url(#p74b62573e3)" style="fill: #0000ff"/>
   </g>
   <g id="patch_53">
    <path d="M 206.693878 104.254468 
L 220.62585 104.254468 
L 220.62585 97.820426 
L 206.693878 97.820426 
z
" clip-path="url(#p74b62573e3)" style="fill: #0000ff"/>
   </g>
   <g id="patch_54">
    <path d="M 220.843537 101.278723 
L 293.986395 101.278723 
L 293.986395 100.79617 
L 220.843537 100.79617 
z
" clip-path="url(#p74b62573e3)" style="fill: #0000ff"/>
   </g>
   <g id="patch_55">
    <path d="M 294.204082 104.254468 
L 374.530612 104.254468 
L 374.530612 97.820426 
L 294.204082 97.820426 
z
" clip-path="url(#p74b62573e3)" style="fill: #0000ff"/>
   </g>
   <g id="patch_56">
    <path d="M 374.748299 101.278723 
L 489.687075 101.278723 
L 489.687075 100.79617 
L 374.748299 100.79617 
z
" clip-path="url(#p74b62573e3)" style="fill: #0000ff"/>
   </g>
   <g id="patch_57">
    <path d="M 489.904762 104.254468 
L 535.619048 104.254468 
L 535.619048 97.820426 
L 489.904762 97.820426 
z
" clip-path="url(#p74b62573e3)" style="fill: #0000ff"/>
   </g>
   <g id="patch_58">
    <path d="M 535.836735 101.278723 
L 537.142857 101.278723 
L 537.142857 100.79617 
L 535.836735 100.79617 
z
" clip-path="url(#p74b62573e3)" style="fill: #0000ff"/>
   </g>
   <g id="patch_59">
    <path d="M 537.360544 104.254468 
L 566.312925 104.254468 
L 566.312925 97.820426 
L 537.360544 97.820426 
z
" clip-path="url(#p74b62573e3)" style="fill: #0000ff"/>
   </g>
   <g id="patch_60">
    <path d="M 537.360544 104.254468 
L 570.231293 104.254468 
L 570.231293 97.820426 
L 537.360544 97.820426 
z
" clip-path="url(#p74b62573e3)" style="fill: #0000ff"/>
   </g>
   <g id="patch_61">
    <path d="M 537.795918 104.254468 
L 566.312925 104.254468 
L 566.312925 97.820426 
L 537.795918 97.820426 
z
" clip-path="url(#p74b62573e3)" style="fill: #0000ff"/>
   </g>
   <g id="patch_62">
    <path d="M 538.231293 104.254468 
L 601.360544 104.254468 
L 601.360544 97.820426 
L 538.231293 97.820426 
z
" clip-path="url(#p74b62573e3)" style="fill: #0000ff"/>
   </g>
   <g id="patch_63">
    <path d="M 538.44898 104.254468 
L 573.931973 104.254468 
L 573.931973 97.820426 
L 538.44898 97.820426 
z
" clip-path="url(#p74b62573e3)" style="fill: #0000ff"/>
   </g>
   <g id="patch_64">
    <path d="M 538.44898 104.254468 
L 602.44898 104.254468 
L 602.44898 97.820426 
L 538.44898 97.820426 
z
" clip-path="url(#p74b62573e3)" style="fill: #0000ff"/>
   </g>
   <g id="patch_65">
    <path d="M 538.44898 104.254468 
L 566.530612 104.254468 
L 566.530612 97.820426 
L 538.44898 97.820426 
z
" clip-path="url(#p74b62573e3)" style="fill: #0000ff"/>
   </g>
   <g id="patch_66">
    <path d="M 539.319728 104.254468 
L 567.401361 104.254468 
L 567.401361 97.820426 
L 539.319728 97.820426 
z
" clip-path="url(#p74b62573e3)" style="fill: #0000ff"/>
   </g>
   <g id="patch_67">
    <path d="M 539.319728 104.254468 
L 566.312925 104.254468 
L 566.312925 97.820426 
L 539.319728 97.820426 
z
" clip-path="url(#p74b62573e3)" style="fill: #0000ff"/>
   </g>
   <g id="patch_68">
    <path d="M 568.92517 104.254468 
L 602.231293 104.254468 
L 602.231293 97.820426 
L 568.92517 97.820426 
z
" clip-path="url(#p74b62573e3)" style="fill: #0000ff"/>
   </g>
   <g id="patch_69">
    <path d="M 575.673469 104.254468 
L 600.92517 104.254468 
L 600.92517 97.820426 
L 575.673469 97.820426 
z
" clip-path="url(#p74b62573e3)" style="fill: #0000ff"/>
   </g>
   <g id="patch_70">
    <path d="M 577.197279 104.254468 
L 600.489796 104.254468 
L 600.489796 97.820426 
L 577.197279 97.820426 
z
" clip-path="url(#p74b62573e3)" style="fill: #0000ff"/>
   </g>
   <g id="patch_71">
    <path d="M 579.591837 104.254468 
L 600.92517 104.254468 
L 600.92517 97.820426 
L 579.591837 97.820426 
z
" clip-path="url(#p74b62573e3)" style="fill: #0000ff"/>
   </g>
   <g id="patch_72">
    <path d="M 586.557823 104.254468 
L 602.231293 104.254468 
L 602.231293 97.820426 
L 586.557823 97.820426 
z
" clip-path="url(#p74b62573e3)" style="fill: #0000ff"/>
   </g>
   <g id="patch_73">
    <path d="M 602.666667 101.278723 
L 856.92517 101.278723 
L 856.92517 100.79617 
L 602.666667 100.79617 
z
" clip-path="url(#p74b62573e3)" style="fill: #0000ff"/>
   </g>
   <g id="patch_74">
    <path d="M 857.142857 104.254468 
L 982.965986 104.254468 
L 982.965986 97.820426 
L 857.142857 97.820426 
z
" clip-path="url(#p74b62573e3)" style="fill: #0000ff"/>
   </g>
   <g id="patch_75">
    <path d="M 869.115646 104.254468 
L 959.891156 104.254468 
L 959.891156 97.820426 
L 869.115646 97.820426 
z
" clip-path="url(#p74b62573e3)" style="fill: #0000ff"/>
   </g>
   <g id="patch_76">
    <path d="M 888.054422 104.254468 
L 950.748299 104.254468 
L 950.748299 97.820426 
L 888.054422 97.820426 
z
" clip-path="url(#p74b62573e3)" style="fill: #0000ff"/>
   </g>
   <g id="patch_77">
    <path d="M 891.755102 104.254468 
L 956.190476 104.254468 
L 956.190476 97.820426 
L 891.755102 97.820426 
z
" clip-path="url(#p74b62573e3)" style="fill: #0000ff"/>
   </g>
   <g id="patch_78">
    <path d="M 893.278912 104.254468 
L 944.435374 104.254468 
L 944.435374 97.820426 
L 893.278912 97.820426 
z
" clip-path="url(#p74b62573e3)" style="fill: #0000ff"/>
   </g>
   <g id="patch_79">
    <path d="M 897.414966 104.254468 
L 944.435374 104.254468 
L 944.435374 97.820426 
L 897.414966 97.820426 
z
" clip-path="url(#p74b62573e3)" style="fill: #0000ff"/>
   </g>
   <g id="patch_80">
    <path d="M 897.414966 104.254468 
L 945.088435 104.254468 
L 945.088435 97.820426 
L 897.414966 97.820426 
z
" clip-path="url(#p74b62573e3)" style="fill: #0000ff"/>
   </g>
   <g id="patch_81">
    <path d="M 897.85034 104.254468 
L 945.306122 104.254468 
L 945.306122 97.820426 
L 897.85034 97.820426 
z
" clip-path="url(#p74b62573e3)" style="fill: #0000ff"/>
   </g>
   <g id="patch_82">
    <path d="M 897.85034 104.254468 
L 950.312925 104.254468 
L 950.312925 97.820426 
L 897.85034 97.820426 
z
" clip-path="url(#p74b62573e3)" style="fill: #0000ff"/>
   </g>
   <g id="patch_83">
    <path d="M 897.85034 104.254468 
L 952.92517 104.254468 
L 952.92517 97.820426 
L 897.85034 97.820426 
z
" clip-path="url(#p74b62573e3)" style="fill: #0000ff"/>
   </g>
   <g id="patch_84">
    <path d="M 897.85034 104.254468 
L 945.306122 104.254468 
L 945.306122 97.820426 
L 897.85034 97.820426 
z
" clip-path="url(#p74b62573e3)" style="fill: #0000ff"/>
   </g>
   <g id="patch_85">
    <path d="M 897.85034 104.254468 
L 945.306122 104.254468 
L 945.306122 97.820426 
L 897.85034 97.820426 
z
" clip-path="url(#p74b62573e3)" style="fill: #0000ff"/>
   </g>
   <g id="patch_86">
    <path d="M 898.068027 104.254468 
L 945.741497 104.254468 
L 945.741497 97.820426 
L 898.068027 97.820426 
z
" clip-path="url(#p74b62573e3)" style="fill: #0000ff"/>
   </g>
   <g id="patch_87">
    <path d="M 903.510204 104.254468 
L 950.312925 104.254468 
L 950.312925 97.820426 
L 903.510204 97.820426 
z
" clip-path="url(#p74b62573e3)" style="fill: #0000ff"/>
   </g>
   <g id="patch_88">
    <path d="M 903.510204 104.254468 
L 950.312925 104.254468 
L 950.312925 97.820426 
L 903.510204 97.820426 
z
" clip-path="url(#p74b62573e3)" style="fill: #0000ff"/>
   </g>
   <g id="patch_89">
    <path d="M 903.510204 104.254468 
L 950.312925 104.254468 
L 950.312925 97.820426 
L 903.510204 97.820426 
z
" clip-path="url(#p74b62573e3)" style="fill: #0000ff"/>
   </g>
   <g id="patch_90">
    <path d="M 903.945578 104.254468 
L 946.394558 104.254468 
L 946.394558 97.820426 
L 903.945578 97.820426 
z
" clip-path="url(#p74b62573e3)" style="fill: #0000ff"/>
   </g>
   <g id="patch_91">
    <path d="M 907.428571 104.254468 
L 945.741497 104.254468 
L 945.741497 97.820426 
L 907.428571 97.820426 
z
" clip-path="url(#p74b62573e3)" style="fill: #0000ff"/>
   </g>
   <g id="patch_92">
    <path d="M 908.29932 104.254468 
L 949.877551 104.254468 
L 949.877551 97.820426 
L 908.29932 97.820426 
z
" clip-path="url(#p74b62573e3)" style="fill: #0000ff"/>
   </g>
   <g id="patch_93">
    <path d="M 908.517007 104.254468 
L 944.217687 104.254468 
L 944.217687 97.820426 
L 908.517007 97.820426 
z
" clip-path="url(#p74b62573e3)" style="fill: #0000ff"/>
   </g>
   <g id="patch_94">
    <path d="M 908.952381 104.254468 
L 945.52381 104.254468 
L 945.52381 97.820426 
L 908.952381 97.820426 
z
" clip-path="url(#p74b62573e3)" style="fill: #0000ff"/>
   </g>
   <g id="patch_95">
    <path d="M 911.129252 104.254468 
L 956.408163 104.254468 
L 956.408163 97.820426 
L 911.129252 97.820426 
z
" clip-path="url(#p74b62573e3)" style="fill: #0000ff"/>
   </g>
   <g id="patch_96">
    <path d="M 915.265306 104.254468 
L 944.870748 104.254468 
L 944.870748 97.820426 
L 915.265306 97.820426 
z
" clip-path="url(#p74b62573e3)" style="fill: #0000ff"/>
   </g>
   <g id="patch_97">
    <path d="M 918.312925 104.254468 
L 934.421769 104.254468 
L 934.421769 97.820426 
L 918.312925 97.820426 
z
" clip-path="url(#p74b62573e3)" style="fill: #0000ff"/>
   </g>
   <g id="patch_98">
    <path d="M 922.44898 104.254468 
L 935.07483 104.254468 
L 935.07483 97.820426 
L 922.44898 97.820426 
z
" clip-path="url(#p74b62573e3)" style="fill: #0000ff"/>
   </g>
   <g id="patch_99">
    <path d="M 983.183673 101.278723 
L 992.326531 101.278723 
L 992.326531 100.79617 
L 983.183673 100.79617 
z
" clip-path="url(#p74b62573e3)" style="fill: #0000ff"/>
   </g>
   <g id="patch_100">
    <path d="M 144 88.169362 
L 180.353741 88.169362 
L 180.353741 81.735319 
L 144 81.735319 
z
" clip-path="url(#p74b62573e3)" style="fill: #0000ff"/>
   </g>
   <g id="patch_101">
    <path d="M 180.571429 85.193617 
L 181.22449 85.193617 
L 181.22449 84.711064 
L 180.571429 84.711064 
z
" clip-path="url(#p74b62573e3)" style="fill: #0000ff"/>
   </g>
   <g id="patch_102">
    <path d="M 181.442177 88.169362 
L 190.802721 88.169362 
L 190.802721 81.735319 
L 181.442177 81.735319 
z
" clip-path="url(#p74b62573e3)" style="fill: #0000ff"/>
   </g>
   <g id="patch_103">
    <path d="M 191.020408 85.193617 
L 294.857143 85.193617 
L 294.857143 84.711064 
L 191.020408 84.711064 
z
" clip-path="url(#p74b62573e3)" style="fill: #0000ff"/>
   </g>
   <g id="patch_104">
    <path d="M 295.07483 88.169362 
L 375.401361 88.169362 
L 375.401361 81.735319 
L 295.07483 81.735319 
z
" clip-path="url(#p74b62573e3)" style="fill: #0000ff"/>
   </g>
   <g id="patch_105">
    <path d="M 375.619048 85.193617 
L 491.646259 85.193617 
L 491.646259 84.711064 
L 375.619048 84.711064 
z
" clip-path="url(#p74b62573e3)" style="fill: #0000ff"/>
   </g>
   <g id="patch_106">
    <path d="M 491.863946 88.169362 
L 537.578231 88.169362 
L 537.578231 81.735319 
L 491.863946 81.735319 
z
" clip-path="url(#p74b62573e3)" style="fill: #0000ff"/>
   </g>
   <g id="patch_107">
    <path d="M 536.92517 88.169362 
L 568.489796 88.169362 
L 568.489796 81.735319 
L 536.92517 81.735319 
z
" clip-path="url(#p74b62573e3)" style="fill: #0000ff"/>
   </g>
   <g id="patch_108">
    <path d="M 539.102041 88.169362 
L 569.142857 88.169362 
L 569.142857 81.735319 
L 539.102041 81.735319 
z
" clip-path="url(#p74b62573e3)" style="fill: #0000ff"/>
   </g>
   <g id="patch_109">
    <path d="M 539.319728 88.169362 
L 572.190476 88.169362 
L 572.190476 81.735319 
L 539.319728 81.735319 
z
" clip-path="url(#p74b62573e3)" style="fill: #0000ff"/>
   </g>
   <g id="patch_110">
    <path d="M 540.408163 88.169362 
L 574.367347 88.169362 
L 574.367347 81.735319 
L 540.408163 81.735319 
z
" clip-path="url(#p74b62573e3)" style="fill: #0000ff"/>
   </g>
   <g id="patch_111">
    <path d="M 540.408163 88.169362 
L 605.278912 88.169362 
L 605.278912 81.735319 
L 540.408163 81.735319 
z
" clip-path="url(#p74b62573e3)" style="fill: #0000ff"/>
   </g>
   <g id="patch_112">
    <path d="M 540.408163 88.169362 
L 568.272109 88.169362 
L 568.272109 81.735319 
L 540.408163 81.735319 
z
" clip-path="url(#p74b62573e3)" style="fill: #0000ff"/>
   </g>
   <g id="patch_113">
    <path d="M 540.408163 88.169362 
L 568.272109 88.169362 
L 568.272109 81.735319 
L 540.408163 81.735319 
z
" clip-path="url(#p74b62573e3)" style="fill: #0000ff"/>
   </g>
   <g id="patch_114">
    <path d="M 540.408163 88.169362 
L 568.489796 88.169362 
L 568.489796 81.735319 
L 540.408163 81.735319 
z
" clip-path="url(#p74b62573e3)" style="fill: #0000ff"/>
   </g>
   <g id="patch_115">
    <path d="M 541.061224 88.169362 
L 568.272109 88.169362 
L 568.272109 81.735319 
L 541.061224 81.735319 
z
" clip-path="url(#p74b62573e3)" style="fill: #0000ff"/>
   </g>
   <g id="patch_116">
    <path d="M 541.278912 88.169362 
L 569.360544 88.169362 
L 569.360544 81.735319 
L 541.278912 81.735319 
z
" clip-path="url(#p74b62573e3)" style="fill: #0000ff"/>
   </g>
   <g id="patch_117">
    <path d="M 541.278912 88.169362 
L 568.272109 88.169362 
L 568.272109 81.735319 
L 541.278912 81.735319 
z
" clip-path="url(#p74b62573e3)" style="fill: #0000ff"/>
   </g>
   <g id="patch_118">
    <path d="M 560.435374 88.169362 
L 593.306122 88.169362 
L 593.306122 81.735319 
L 560.435374 81.735319 
z
" clip-path="url(#p74b62573e3)" style="fill: #0000ff"/>
   </g>
   <g id="patch_119">
    <path d="M 570.884354 88.169362 
L 604.190476 88.169362 
L 604.190476 81.735319 
L 570.884354 81.735319 
z
" clip-path="url(#p74b62573e3)" style="fill: #0000ff"/>
   </g>
   <g id="patch_120">
    <path d="M 576.326531 88.169362 
L 602.44898 88.169362 
L 602.44898 81.735319 
L 576.326531 81.735319 
z
" clip-path="url(#p74b62573e3)" style="fill: #0000ff"/>
   </g>
   <g id="patch_121">
    <path d="M 577.632653 88.169362 
L 602.884354 88.169362 
L 602.884354 81.735319 
L 577.632653 81.735319 
z
" clip-path="url(#p74b62573e3)" style="fill: #0000ff"/>
   </g>
   <g id="patch_122">
    <path d="M 581.55102 88.169362 
L 602.884354 88.169362 
L 602.884354 81.735319 
L 581.55102 81.735319 
z
" clip-path="url(#p74b62573e3)" style="fill: #0000ff"/>
   </g>
   <g id="patch_123">
    <path d="M 588.517007 88.169362 
L 604.190476 88.169362 
L 604.190476 81.735319 
L 588.517007 81.735319 
z
" clip-path="url(#p74b62573e3)" style="fill: #0000ff"/>
   </g>
   <g id="patch_124">
    <path d="M 605.496599 85.193617 
L 858.666667 85.193617 
L 858.666667 84.711064 
L 605.496599 84.711064 
z
" clip-path="url(#p74b62573e3)" style="fill: #0000ff"/>
   </g>
   <g id="patch_125">
    <path d="M 858.884354 88.169362 
L 984.707483 88.169362 
L 984.707483 81.735319 
L 858.884354 81.735319 
z
" clip-path="url(#p74b62573e3)" style="fill: #0000ff"/>
   </g>
   <g id="patch_126">
    <path d="M 889.795918 88.169362 
L 952.489796 88.169362 
L 952.489796 81.735319 
L 889.795918 81.735319 
z
" clip-path="url(#p74b62573e3)" style="fill: #0000ff"/>
   </g>
   <g id="patch_127">
    <path d="M 890.44898 88.169362 
L 953.142857 88.169362 
L 953.142857 81.735319 
L 890.44898 81.735319 
z
" clip-path="url(#p74b62573e3)" style="fill: #0000ff"/>
   </g>
   <g id="patch_128">
    <path d="M 891.537415 88.169362 
L 949.659864 88.169362 
L 949.659864 81.735319 
L 891.537415 81.735319 
z
" clip-path="url(#p74b62573e3)" style="fill: #0000ff"/>
   </g>
   <g id="patch_129">
    <path d="M 891.537415 88.169362 
L 952.054422 88.169362 
L 952.054422 81.735319 
L 891.537415 81.735319 
z
" clip-path="url(#p74b62573e3)" style="fill: #0000ff"/>
   </g>
   <g id="patch_130">
    <path d="M 892.190476 88.169362 
L 947.047619 88.169362 
L 947.047619 81.735319 
L 892.190476 81.735319 
z
" clip-path="url(#p74b62573e3)" style="fill: #0000ff"/>
   </g>
   <g id="patch_131">
    <path d="M 892.190476 88.169362 
L 967.292517 88.169362 
L 967.292517 81.735319 
L 892.190476 81.735319 
z
" clip-path="url(#p74b62573e3)" style="fill: #0000ff"/>
   </g>
   <g id="patch_132">
    <path d="M 893.496599 88.169362 
L 957.931973 88.169362 
L 957.931973 81.735319 
L 893.496599 81.735319 
z
" clip-path="url(#p74b62573e3)" style="fill: #0000ff"/>
   </g>
   <g id="patch_133">
    <path d="M 895.020408 88.169362 
L 946.176871 88.169362 
L 946.176871 81.735319 
L 895.020408 81.735319 
z
" clip-path="url(#p74b62573e3)" style="fill: #0000ff"/>
   </g>
   <g id="patch_134">
    <path d="M 898.285714 88.169362 
L 946.829932 88.169362 
L 946.829932 81.735319 
L 898.285714 81.735319 
z
" clip-path="url(#p74b62573e3)" style="fill: #0000ff"/>
   </g>
   <g id="patch_135">
    <path d="M 899.156463 88.169362 
L 946.176871 88.169362 
L 946.176871 81.735319 
L 899.156463 81.735319 
z
" clip-path="url(#p74b62573e3)" style="fill: #0000ff"/>
   </g>
   <g id="patch_136">
    <path d="M 899.591837 88.169362 
L 947.047619 88.169362 
L 947.047619 81.735319 
L 899.591837 81.735319 
z
" clip-path="url(#p74b62573e3)" style="fill: #0000ff"/>
   </g>
   <g id="patch_137">
    <path d="M 901.986395 88.169362 
L 937.034014 88.169362 
L 937.034014 81.735319 
L 901.986395 81.735319 
z
" clip-path="url(#p74b62573e3)" style="fill: #0000ff"/>
   </g>
   <g id="patch_138">
    <path d="M 908.952381 88.169362 
L 951.836735 88.169362 
L 951.836735 81.735319 
L 908.952381 81.735319 
z
" clip-path="url(#p74b62573e3)" style="fill: #0000ff"/>
   </g>
   <g id="patch_139">
    <path d="M 909.387755 88.169362 
L 945.959184 88.169362 
L 945.959184 81.735319 
L 909.387755 81.735319 
z
" clip-path="url(#p74b62573e3)" style="fill: #0000ff"/>
   </g>
   <g id="patch_140">
    <path d="M 910.911565 88.169362 
L 947.047619 88.169362 
L 947.047619 81.735319 
L 910.911565 81.735319 
z
" clip-path="url(#p74b62573e3)" style="fill: #0000ff"/>
   </g>
   <g id="patch_141">
    <path d="M 912.870748 88.169362 
L 946.394558 88.169362 
L 946.394558 81.735319 
L 912.870748 81.735319 
z
" clip-path="url(#p74b62573e3)" style="fill: #0000ff"/>
   </g>
   <g id="patch_142">
    <path d="M 915.047619 88.169362 
L 935.727891 88.169362 
L 935.727891 81.735319 
L 915.047619 81.735319 
z
" clip-path="url(#p74b62573e3)" style="fill: #0000ff"/>
   </g>
   <g id="patch_143">
    <path d="M 923.102041 88.169362 
L 935.510204 88.169362 
L 935.510204 81.735319 
L 923.102041 81.735319 
z
" clip-path="url(#p74b62573e3)" style="fill: #0000ff"/>
   </g>
   <g id="patch_144">
    <path d="M 924.190476 88.169362 
L 936.816327 88.169362 
L 936.816327 81.735319 
L 924.190476 81.735319 
z
" clip-path="url(#p74b62573e3)" style="fill: #0000ff"/>
   </g>
   <g id="patch_145">
    <path d="M 984.92517 85.193617 
L 994.285714 85.193617 
L 994.285714 84.711064 
L 984.92517 84.711064 
z
" clip-path="url(#p74b62573e3)" style="fill: #0000ff"/>
   </g>
   <g id="patch_146">
    <path d="M 144 69.108511 
L 144 69.108511 
L 144 68.625957 
L 144 68.625957 
z
" clip-path="url(#p74b62573e3)" style="fill: #0000ff"/>
   </g>
   <g id="patch_147">
    <path d="M 144.217687 72.084255 
L 168.816327 72.084255 
L 168.816327 65.650213 
L 144.217687 65.650213 
z
" clip-path="url(#p74b62573e3)" style="fill: #0000ff"/>
   </g>
   <g id="patch_148">
    <path d="M 169.034014 72.084255 
L 185.142857 72.084255 
L 185.142857 65.650213 
L 169.034014 65.650213 
z
" clip-path="url(#p74b62573e3)" style="fill: #0000ff"/>
   </g>
   <g id="patch_149">
    <path d="M 185.360544 69.108511 
L 186.231293 69.108511 
L 186.231293 68.625957 
L 185.360544 68.625957 
z
" clip-path="url(#p74b62573e3)" style="fill: #0000ff"/>
   </g>
   <g id="patch_150">
    <path d="M 186.44898 72.084255 
L 226.938776 72.084255 
L 226.938776 65.650213 
L 186.44898 65.650213 
z
" clip-path="url(#p74b62573e3)" style="fill: #0000ff"/>
   </g>
   <g id="patch_151">
    <path d="M 227.156463 69.108511 
L 227.591837 69.108511 
L 227.591837 68.625957 
L 227.156463 68.625957 
z
" clip-path="url(#p74b62573e3)" style="fill: #0000ff"/>
   </g>
   <g id="patch_152">
    <path d="M 227.809524 72.084255 
L 302.040816 72.084255 
L 302.040816 65.650213 
L 227.809524 65.650213 
z
" clip-path="url(#p74b62573e3)" style="fill: #0000ff"/>
   </g>
   <g id="patch_153">
    <path d="M 302.258503 69.108511 
L 305.741497 69.108511 
L 305.741497 68.625957 
L 302.258503 68.625957 
z
" clip-path="url(#p74b62573e3)" style="fill: #0000ff"/>
   </g>
   <g id="patch_154">
    <path d="M 305.959184 72.084255 
L 315.319728 72.084255 
L 315.319728 65.650213 
L 305.959184 65.650213 
z
" clip-path="url(#p74b62573e3)" style="fill: #0000ff"/>
   </g>
   <g id="patch_155">
    <path d="M 315.537415 69.108511 
L 319.673469 69.108511 
L 319.673469 68.625957 
L 315.537415 68.625957 
z
" clip-path="url(#p74b62573e3)" style="fill: #0000ff"/>
   </g>
   <g id="patch_156">
    <path d="M 319.891156 72.084255 
L 362.122449 72.084255 
L 362.122449 65.650213 
L 319.891156 65.650213 
z
" clip-path="url(#p74b62573e3)" style="fill: #0000ff"/>
   </g>
   <g id="patch_157">
    <path d="M 362.340136 69.108511 
L 373.006803 69.108511 
L 373.006803 68.625957 
L 362.340136 68.625957 
z
" clip-path="url(#p74b62573e3)" style="fill: #0000ff"/>
   </g>
   <g id="patch_158">
    <path d="M 373.22449 72.084255 
L 405.442177 72.084255 
L 405.442177 65.650213 
L 373.22449 65.650213 
z
" clip-path="url(#p74b62573e3)" style="fill: #0000ff"/>
   </g>
   <g id="patch_159">
    <path d="M 405.659864 69.108511 
L 408.054422 69.108511 
L 408.054422 68.625957 
L 405.659864 68.625957 
z
" clip-path="url(#p74b62573e3)" style="fill: #0000ff"/>
   </g>
   <g id="patch_160">
    <path d="M 408.272109 72.084255 
L 438.312925 72.084255 
L 438.312925 65.650213 
L 408.272109 65.650213 
z
" clip-path="url(#p74b62573e3)" style="fill: #0000ff"/>
   </g>
   <g id="patch_161">
    <path d="M 409.795918 72.084255 
L 440.707483 72.084255 
L 440.707483 65.650213 
L 409.795918 65.650213 
z
" clip-path="url(#p74b62573e3)" style="fill: #0000ff"/>
   </g>
   <g id="patch_162">
    <path d="M 410.231293 72.084255 
L 430.47619 72.084255 
L 430.47619 65.650213 
L 410.231293 65.650213 
z
" clip-path="url(#p74b62573e3)" style="fill: #0000ff"/>
   </g>
   <g id="patch_163">
    <path d="M 411.755102 72.084255 
L 439.619048 72.084255 
L 439.619048 65.650213 
L 411.755102 65.650213 
z
" clip-path="url(#p74b62573e3)" style="fill: #0000ff"/>
   </g>
   <g id="patch_164">
    <path d="M 439.401361 72.084255 
L 456.598639 72.084255 
L 456.598639 65.650213 
L 439.401361 65.650213 
z
" clip-path="url(#p74b62573e3)" style="fill: #0000ff"/>
   </g>
   <g id="patch_165">
    <path d="M 439.836735 72.084255 
L 470.530612 72.084255 
L 470.530612 65.650213 
L 439.836735 65.650213 
z
" clip-path="url(#p74b62573e3)" style="fill: #0000ff"/>
   </g>
   <g id="patch_166">
    <path d="M 470.748299 69.108511 
L 504.054422 69.108511 
L 504.054422 68.625957 
L 470.748299 68.625957 
z
" clip-path="url(#p74b62573e3)" style="fill: #0000ff"/>
   </g>
   <g id="patch_167">
    <path d="M 504.272109 72.084255 
L 515.809524 72.084255 
L 515.809524 65.650213 
L 504.272109 65.650213 
z
" clip-path="url(#p74b62573e3)" style="fill: #0000ff"/>
   </g>
   <g id="patch_168">
    <path d="M 516.027211 69.108511 
L 519.292517 69.108511 
L 519.292517 68.625957 
L 516.027211 68.625957 
z
" clip-path="url(#p74b62573e3)" style="fill: #0000ff"/>
   </g>
   <g id="patch_169">
    <path d="M 519.510204 72.084255 
L 561.52381 72.084255 
L 561.52381 65.650213 
L 519.510204 65.650213 
z
" clip-path="url(#p74b62573e3)" style="fill: #0000ff"/>
   </g>
   <g id="patch_170">
    <path d="M 561.741497 69.108511 
L 593.306122 69.108511 
L 593.306122 68.625957 
L 561.741497 68.625957 
z
" clip-path="url(#p74b62573e3)" style="fill: #0000ff"/>
   </g>
   <g id="patch_171">
    <path d="M 593.52381 72.084255 
L 615.292517 72.084255 
L 615.292517 65.650213 
L 593.52381 65.650213 
z
" clip-path="url(#p74b62573e3)" style="fill: #0000ff"/>
   </g>
   <g id="patch_172">
    <path d="M 615.510204 69.108511 
L 671.455782 69.108511 
L 671.455782 68.625957 
L 615.510204 68.625957 
z
" clip-path="url(#p74b62573e3)" style="fill: #0000ff"/>
   </g>
   <g id="patch_173">
    <path d="M 671.673469 72.084255 
L 782.911565 72.084255 
L 782.911565 65.650213 
L 671.673469 65.650213 
z
" clip-path="url(#p74b62573e3)" style="fill: #0000ff"/>
   </g>
   <g id="patch_174">
    <path d="M 672.326531 72.084255 
L 779.210884 72.084255 
L 779.210884 65.650213 
L 672.326531 65.650213 
z
" clip-path="url(#p74b62573e3)" style="fill: #0000ff"/>
   </g>
   <g id="patch_175">
    <path d="M 674.068027 72.084255 
L 786.612245 72.084255 
L 786.612245 65.650213 
L 674.068027 65.650213 
z
" clip-path="url(#p74b62573e3)" style="fill: #0000ff"/>
   </g>
   <g id="patch_176">
    <path d="M 696.272109 72.084255 
L 757.659864 72.084255 
L 757.659864 65.650213 
L 696.272109 65.650213 
z
" clip-path="url(#p74b62573e3)" style="fill: #0000ff"/>
   </g>
   <g id="patch_177">
    <path d="M 700.190476 72.084255 
L 762.013605 72.084255 
L 762.013605 65.650213 
L 700.190476 65.650213 
z
" clip-path="url(#p74b62573e3)" style="fill: #0000ff"/>
   </g>
   <g id="patch_178">
    <path d="M 700.843537 72.084255 
L 741.768707 72.084255 
L 741.768707 65.650213 
L 700.843537 65.650213 
z
" clip-path="url(#p74b62573e3)" style="fill: #0000ff"/>
   </g>
   <g id="patch_179">
    <path d="M 713.469388 72.084255 
L 744.598639 72.084255 
L 744.598639 65.650213 
L 713.469388 65.650213 
z
" clip-path="url(#p74b62573e3)" style="fill: #0000ff"/>
   </g>
   <g id="patch_180">
    <path d="M 716.29932 72.084255 
L 758.530612 72.084255 
L 758.530612 65.650213 
L 716.29932 65.650213 
z
" clip-path="url(#p74b62573e3)" style="fill: #0000ff"/>
   </g>
   <g id="patch_181">
    <path d="M 716.29932 72.084255 
L 760.707483 72.084255 
L 760.707483 65.650213 
L 716.29932 65.650213 
z
" clip-path="url(#p74b62573e3)" style="fill: #0000ff"/>
   </g>
   <g id="patch_182">
    <path d="M 731.755102 72.084255 
L 741.768707 72.084255 
L 741.768707 65.650213 
L 731.755102 65.650213 
z
" clip-path="url(#p74b62573e3)" style="fill: #0000ff"/>
   </g>
   <g id="patch_183">
    <path d="M 786.829932 69.108511 
L 799.673469 69.108511 
L 799.673469 68.625957 
L 786.829932 68.625957 
z
" clip-path="url(#p74b62573e3)" style="fill: #0000ff"/>
   </g>
   <g id="patch_184">
    <path d="M 144 53.023404 
L 144 53.023404 
L 144 52.540851 
L 144 52.540851 
z
" clip-path="url(#p74b62573e3)" style="fill: #0000ff"/>
   </g>
   <g id="patch_185">
    <path d="M 144.217687 55.999149 
L 168.816327 55.999149 
L 168.816327 49.565106 
L 144.217687 49.565106 
z
" clip-path="url(#p74b62573e3)" style="fill: #0000ff"/>
   </g>
   <g id="patch_186">
    <path d="M 169.034014 55.999149 
L 185.142857 55.999149 
L 185.142857 49.565106 
L 169.034014 49.565106 
z
" clip-path="url(#p74b62573e3)" style="fill: #0000ff"/>
   </g>
   <g id="patch_187">
    <path d="M 185.360544 53.023404 
L 186.231293 53.023404 
L 186.231293 52.540851 
L 185.360544 52.540851 
z
" clip-path="url(#p74b62573e3)" style="fill: #0000ff"/>
   </g>
   <g id="patch_188">
    <path d="M 186.44898 55.999149 
L 226.938776 55.999149 
L 226.938776 49.565106 
L 186.44898 49.565106 
z
" clip-path="url(#p74b62573e3)" style="fill: #0000ff"/>
   </g>
   <g id="patch_189">
    <path d="M 227.156463 53.023404 
L 228.680272 53.023404 
L 228.680272 52.540851 
L 227.156463 52.540851 
z
" clip-path="url(#p74b62573e3)" style="fill: #0000ff"/>
   </g>
   <g id="patch_190">
    <path d="M 228.897959 55.999149 
L 303.346939 55.999149 
L 303.346939 49.565106 
L 228.897959 49.565106 
z
" clip-path="url(#p74b62573e3)" style="fill: #0000ff"/>
   </g>
   <g id="patch_191">
    <path d="M 303.564626 53.023404 
L 307.047619 53.023404 
L 307.047619 52.540851 
L 303.564626 52.540851 
z
" clip-path="url(#p74b62573e3)" style="fill: #0000ff"/>
   </g>
   <g id="patch_192">
    <path d="M 307.265306 55.999149 
L 319.673469 55.999149 
L 319.673469 49.565106 
L 307.265306 49.565106 
z
" clip-path="url(#p74b62573e3)" style="fill: #0000ff"/>
   </g>
   <g id="patch_193">
    <path d="M 319.891156 53.023404 
L 320.979592 53.023404 
L 320.979592 52.540851 
L 319.891156 52.540851 
z
" clip-path="url(#p74b62573e3)" style="fill: #0000ff"/>
   </g>
   <g id="patch_194">
    <path d="M 321.197279 55.999149 
L 363.428571 55.999149 
L 363.428571 49.565106 
L 321.197279 49.565106 
z
" clip-path="url(#p74b62573e3)" style="fill: #0000ff"/>
   </g>
   <g id="patch_195">
    <path d="M 363.646259 53.023404 
L 374.312925 53.023404 
L 374.312925 52.540851 
L 363.646259 52.540851 
z
" clip-path="url(#p74b62573e3)" style="fill: #0000ff"/>
   </g>
   <g id="patch_196">
    <path d="M 374.530612 55.999149 
L 406.748299 55.999149 
L 406.748299 49.565106 
L 374.530612 49.565106 
z
" clip-path="url(#p74b62573e3)" style="fill: #0000ff"/>
   </g>
   <g id="patch_197">
    <path d="M 406.965986 53.023404 
L 409.360544 53.023404 
L 409.360544 52.540851 
L 406.965986 52.540851 
z
" clip-path="url(#p74b62573e3)" style="fill: #0000ff"/>
   </g>
   <g id="patch_198">
    <path d="M 409.578231 55.999149 
L 446.367347 55.999149 
L 446.367347 49.565106 
L 409.578231 49.565106 
z
" clip-path="url(#p74b62573e3)" style="fill: #0000ff"/>
   </g>
   <g id="patch_199">
    <path d="M 411.102041 55.999149 
L 442.013605 55.999149 
L 442.013605 49.565106 
L 411.102041 49.565106 
z
" clip-path="url(#p74b62573e3)" style="fill: #0000ff"/>
   </g>
   <g id="patch_200">
    <path d="M 411.102041 55.999149 
L 433.52381 55.999149 
L 433.52381 49.565106 
L 411.102041 49.565106 
z
" clip-path="url(#p74b62573e3)" style="fill: #0000ff"/>
   </g>
   <g id="patch_201">
    <path d="M 411.972789 55.999149 
L 435.047619 55.999149 
L 435.047619 49.565106 
L 411.972789 49.565106 
z
" clip-path="url(#p74b62573e3)" style="fill: #0000ff"/>
   </g>
   <g id="patch_202">
    <path d="M 413.061224 55.999149 
L 440.92517 55.999149 
L 440.92517 49.565106 
L 413.061224 49.565106 
z
" clip-path="url(#p74b62573e3)" style="fill: #0000ff"/>
   </g>
   <g id="patch_203">
    <path d="M 440.707483 55.999149 
L 470.312925 55.999149 
L 470.312925 49.565106 
L 440.707483 49.565106 
z
" clip-path="url(#p74b62573e3)" style="fill: #0000ff"/>
   </g>
   <g id="patch_204">
    <path d="M 441.142857 55.999149 
L 471.836735 55.999149 
L 471.836735 49.565106 
L 441.142857 49.565106 
z
" clip-path="url(#p74b62573e3)" style="fill: #0000ff"/>
   </g>
   <g id="patch_205">
    <path d="M 472.054422 53.023404 
L 505.360544 53.023404 
L 505.360544 52.540851 
L 472.054422 52.540851 
z
" clip-path="url(#p74b62573e3)" style="fill: #0000ff"/>
   </g>
   <g id="patch_206">
    <path d="M 505.578231 55.999149 
L 517.115646 55.999149 
L 517.115646 49.565106 
L 505.578231 49.565106 
z
" clip-path="url(#p74b62573e3)" style="fill: #0000ff"/>
   </g>
   <g id="patch_207">
    <path d="M 517.333333 53.023404 
L 520.598639 53.023404 
L 520.598639 52.540851 
L 517.333333 52.540851 
z
" clip-path="url(#p74b62573e3)" style="fill: #0000ff"/>
   </g>
   <g id="patch_208">
    <path d="M 520.816327 55.999149 
L 562.829932 55.999149 
L 562.829932 49.565106 
L 520.816327 49.565106 
z
" clip-path="url(#p74b62573e3)" style="fill: #0000ff"/>
   </g>
   <g id="patch_209">
    <path d="M 563.047619 53.023404 
L 594.612245 53.023404 
L 594.612245 52.540851 
L 563.047619 52.540851 
z
" clip-path="url(#p74b62573e3)" style="fill: #0000ff"/>
   </g>
   <g id="patch_210">
    <path d="M 594.829932 55.999149 
L 616.598639 55.999149 
L 616.598639 49.565106 
L 594.829932 49.565106 
z
" clip-path="url(#p74b62573e3)" style="fill: #0000ff"/>
   </g>
   <g id="patch_211">
    <path d="M 616.816327 53.023404 
L 672.544218 53.023404 
L 672.544218 52.540851 
L 616.816327 52.540851 
z
" clip-path="url(#p74b62573e3)" style="fill: #0000ff"/>
   </g>
   <g id="patch_212">
    <path d="M 672.761905 55.999149 
L 784 55.999149 
L 784 49.565106 
L 672.761905 49.565106 
z
" clip-path="url(#p74b62573e3)" style="fill: #0000ff"/>
   </g>
   <g id="patch_213">
    <path d="M 673.414966 55.999149 
L 779.428571 55.999149 
L 779.428571 49.565106 
L 673.414966 49.565106 
z
" clip-path="url(#p74b62573e3)" style="fill: #0000ff"/>
   </g>
   <g id="patch_214">
    <path d="M 675.156463 55.999149 
L 787.70068 55.999149 
L 787.70068 49.565106 
L 675.156463 49.565106 
z
" clip-path="url(#p74b62573e3)" style="fill: #0000ff"/>
   </g>
   <g id="patch_215">
    <path d="M 696.92517 55.999149 
L 758.748299 55.999149 
L 758.748299 49.565106 
L 696.92517 49.565106 
z
" clip-path="url(#p74b62573e3)" style="fill: #0000ff"/>
   </g>
   <g id="patch_216">
    <path d="M 701.278912 55.999149 
L 763.102041 55.999149 
L 763.102041 49.565106 
L 701.278912 49.565106 
z
" clip-path="url(#p74b62573e3)" style="fill: #0000ff"/>
   </g>
   <g id="patch_217">
    <path d="M 705.632653 55.999149 
L 742.857143 55.999149 
L 742.857143 49.565106 
L 705.632653 49.565106 
z
" clip-path="url(#p74b62573e3)" style="fill: #0000ff"/>
   </g>
   <g id="patch_218">
    <path d="M 714.557823 55.999149 
L 743.292517 55.999149 
L 743.292517 49.565106 
L 714.557823 49.565106 
z
" clip-path="url(#p74b62573e3)" style="fill: #0000ff"/>
   </g>
   <g id="patch_219">
    <path d="M 714.557823 55.999149 
L 743.07483 55.999149 
L 743.07483 49.565106 
L 714.557823 49.565106 
z
" clip-path="url(#p74b62573e3)" style="fill: #0000ff"/>
   </g>
   <g id="patch_220">
    <path d="M 732.843537 55.999149 
L 742.857143 55.999149 
L 742.857143 49.565106 
L 732.843537 49.565106 
z
" clip-path="url(#p74b62573e3)" style="fill: #0000ff"/>
   </g>
   <g id="patch_221">
    <path d="M 733.061224 55.999149 
L 752.653061 55.999149 
L 752.653061 49.565106 
L 733.061224 49.565106 
z
" clip-path="url(#p74b62573e3)" style="fill: #0000ff"/>
   </g>
   <g id="patch_222">
    <path d="M 787.918367 53.023404 
L 800.761905 53.023404 
L 800.761905 52.540851 
L 787.918367 52.540851 
z
" clip-path="url(#p74b62573e3)" style="fill: #0000ff"/>
   </g>
   <g id="patch_223">
    <path d="M 144 39.914043 
L 148.353741 39.914043 
L 148.353741 33.48 
L 144 33.48 
z
" clip-path="url(#p74b62573e3)" style="fill: #0000ff"/>
   </g>
   <g id="patch_224">
    <path d="M 148.571429 36.938298 
L 159.020408 36.938298 
L 159.020408 36.455745 
L 148.571429 36.455745 
z
" clip-path="url(#p74b62573e3)" style="fill: #0000ff"/>
   </g>
   <g id="matplotlib.axis_1">
    <g id="xtick_1">
     <g id="line2d_1">
      <defs>
       <path id="m785cbe1536" d="M 0 0 
L 0 3.5 
" style="stroke: #000000; stroke-width: 0.8"/>
      </defs>
      <g>
       <use xlink:href="#m785cbe1536" x="252.62585" y="192.24" style="stroke: #000000; stroke-width: 0.8"/>
      </g>
     </g>
     <g id="text_1">
      <!-- 500 -->
      <g transform="translate(243.0821 206.838437) scale(0.1 -0.1)">
       <defs>
        <path id="DejaVuSans-35" d="M 691 4666 
L 3169 4666 
L 3169 4134 
L 1269 4134 
L 1269 2991 
Q 1406 3038 1543 3061 
Q 1681 3084 1819 3084 
Q 2600 3084 3056 2656 
Q 3513 2228 3513 1497 
Q 3513 744 3044 326 
Q 2575 -91 1722 -91 
Q 1428 -91 1123 -41 
Q 819 9 494 109 
L 494 744 
Q 775 591 1075 516 
Q 1375 441 1709 441 
Q 2250 441 2565 725 
Q 2881 1009 2881 1497 
Q 2881 1984 2565 2268 
Q 2250 2553 1709 2553 
Q 1456 2553 1204 2497 
Q 953 2441 691 2322 
L 691 4666 
z
" transform="scale(0.015625)"/>
        <path id="DejaVuSans-30" d="M 2034 4250 
Q 1547 4250 1301 3770 
Q 1056 3291 1056 2328 
Q 1056 1369 1301 889 
Q 1547 409 2034 409 
Q 2525 409 2770 889 
Q 3016 1369 3016 2328 
Q 3016 3291 2770 3770 
Q 2525 4250 2034 4250 
z
M 2034 4750 
Q 2819 4750 3233 4129 
Q 3647 3509 3647 2328 
Q 3647 1150 3233 529 
Q 2819 -91 2034 -91 
Q 1250 -91 836 529 
Q 422 1150 422 2328 
Q 422 3509 836 4129 
Q 1250 4750 2034 4750 
z
" transform="scale(0.015625)"/>
       </defs>
       <use xlink:href="#DejaVuSans-35"/>
       <use xlink:href="#DejaVuSans-30" x="63.623047"/>
       <use xlink:href="#DejaVuSans-30" x="127.246094"/>
      </g>
     </g>
    </g>
    <g id="xtick_2">
     <g id="line2d_2">
      <g>
       <use xlink:href="#m785cbe1536" x="361.469388" y="192.24" style="stroke: #000000; stroke-width: 0.8"/>
      </g>
     </g>
     <g id="text_2">
      <!-- 1000 -->
      <g transform="translate(348.744388 206.838437) scale(0.1 -0.1)">
       <defs>
        <path id="DejaVuSans-31" d="M 794 531 
L 1825 531 
L 1825 4091 
L 703 3866 
L 703 4441 
L 1819 4666 
L 2450 4666 
L 2450 531 
L 3481 531 
L 3481 0 
L 794 0 
L 794 531 
z
" transform="scale(0.015625)"/>
       </defs>
       <use xlink:href="#DejaVuSans-31"/>
       <use xlink:href="#DejaVuSans-30" x="63.623047"/>
       <use xlink:href="#DejaVuSans-30" x="127.246094"/>
       <use xlink:href="#DejaVuSans-30" x="190.869141"/>
      </g>
     </g>
    </g>
    <g id="xtick_3">
     <g id="line2d_3">
      <g>
       <use xlink:href="#m785cbe1536" x="470.312925" y="192.24" style="stroke: #000000; stroke-width: 0.8"/>
      </g>
     </g>
     <g id="text_3">
      <!-- 1500 -->
      <g transform="translate(457.587925 206.838437) scale(0.1 -0.1)">
       <use xlink:href="#DejaVuSans-31"/>
       <use xlink:href="#DejaVuSans-35" x="63.623047"/>
       <use xlink:href="#DejaVuSans-30" x="127.246094"/>
       <use xlink:href="#DejaVuSans-30" x="190.869141"/>
      </g>
     </g>
    </g>
    <g id="xtick_4">
     <g id="line2d_4">
      <g>
       <use xlink:href="#m785cbe1536" x="579.156463" y="192.24" style="stroke: #000000; stroke-width: 0.8"/>
      </g>
     </g>
     <g id="text_4">
      <!-- 2000 -->
      <g transform="translate(566.431463 206.838437) scale(0.1 -0.1)">
       <defs>
        <path id="DejaVuSans-32" d="M 1228 531 
L 3431 531 
L 3431 0 
L 469 0 
L 469 531 
Q 828 903 1448 1529 
Q 2069 2156 2228 2338 
Q 2531 2678 2651 2914 
Q 2772 3150 2772 3378 
Q 2772 3750 2511 3984 
Q 2250 4219 1831 4219 
Q 1534 4219 1204 4116 
Q 875 4013 500 3803 
L 500 4441 
Q 881 4594 1212 4672 
Q 1544 4750 1819 4750 
Q 2544 4750 2975 4387 
Q 3406 4025 3406 3419 
Q 3406 3131 3298 2873 
Q 3191 2616 2906 2266 
Q 2828 2175 2409 1742 
Q 1991 1309 1228 531 
z
" transform="scale(0.015625)"/>
       </defs>
       <use xlink:href="#DejaVuSans-32"/>
       <use xlink:href="#DejaVuSans-30" x="63.623047"/>
       <use xlink:href="#DejaVuSans-30" x="127.246094"/>
       <use xlink:href="#DejaVuSans-30" x="190.869141"/>
      </g>
     </g>
    </g>
    <g id="xtick_5">
     <g id="line2d_5">
      <g>
       <use xlink:href="#m785cbe1536" x="688" y="192.24" style="stroke: #000000; stroke-width: 0.8"/>
      </g>
     </g>
     <g id="text_5">
      <!-- 2500 -->
      <g transform="translate(675.275 206.838437) scale(0.1 -0.1)">
       <use xlink:href="#DejaVuSans-32"/>
       <use xlink:href="#DejaVuSans-35" x="63.623047"/>
       <use xlink:href="#DejaVuSans-30" x="127.246094"/>
       <use xlink:href="#DejaVuSans-30" x="190.869141"/>
      </g>
     </g>
    </g>
    <g id="xtick_6">
     <g id="line2d_6">
      <g>
       <use xlink:href="#m785cbe1536" x="796.843537" y="192.24" style="stroke: #000000; stroke-width: 0.8"/>
      </g>
     </g>
     <g id="text_6">
      <!-- 3000 -->
      <g transform="translate(784.118537 206.838437) scale(0.1 -0.1)">
       <defs>
        <path id="DejaVuSans-33" d="M 2597 2516 
Q 3050 2419 3304 2112 
Q 3559 1806 3559 1356 
Q 3559 666 3084 287 
Q 2609 -91 1734 -91 
Q 1441 -91 1130 -33 
Q 819 25 488 141 
L 488 750 
Q 750 597 1062 519 
Q 1375 441 1716 441 
Q 2309 441 2620 675 
Q 2931 909 2931 1356 
Q 2931 1769 2642 2001 
Q 2353 2234 1838 2234 
L 1294 2234 
L 1294 2753 
L 1863 2753 
Q 2328 2753 2575 2939 
Q 2822 3125 2822 3475 
Q 2822 3834 2567 4026 
Q 2313 4219 1838 4219 
Q 1578 4219 1281 4162 
Q 984 4106 628 3988 
L 628 4550 
Q 988 4650 1302 4700 
Q 1616 4750 1894 4750 
Q 2613 4750 3031 4423 
Q 3450 4097 3450 3541 
Q 3450 3153 3228 2886 
Q 3006 2619 2597 2516 
z
" transform="scale(0.015625)"/>
       </defs>
       <use xlink:href="#DejaVuSans-33"/>
       <use xlink:href="#DejaVuSans-30" x="63.623047"/>
       <use xlink:href="#DejaVuSans-30" x="127.246094"/>
       <use xlink:href="#DejaVuSans-30" x="190.869141"/>
      </g>
     </g>
    </g>
    <g id="xtick_7">
     <g id="line2d_7">
      <g>
       <use xlink:href="#m785cbe1536" x="905.687075" y="192.24" style="stroke: #000000; stroke-width: 0.8"/>
      </g>
     </g>
     <g id="text_7">
      <!-- 3500 -->
      <g transform="translate(892.962075 206.838437) scale(0.1 -0.1)">
       <use xlink:href="#DejaVuSans-33"/>
       <use xlink:href="#DejaVuSans-35" x="63.623047"/>
       <use xlink:href="#DejaVuSans-30" x="127.246094"/>
       <use xlink:href="#DejaVuSans-30" x="190.869141"/>
      </g>
     </g>
    </g>
    <g id="xtick_8">
     <g id="line2d_8">
      <g>
       <use xlink:href="#m785cbe1536" x="1014.530612" y="192.24" style="stroke: #000000; stroke-width: 0.8"/>
      </g>
     </g>
     <g id="text_8">
      <!-- 4000 -->
      <g transform="translate(1001.805612 206.838437) scale(0.1 -0.1)">
       <defs>
        <path id="DejaVuSans-34" d="M 2419 4116 
L 825 1625 
L 2419 1625 
L 2419 4116 
z
M 2253 4666 
L 3047 4666 
L 3047 1625 
L 3713 1625 
L 3713 1100 
L 3047 1100 
L 3047 0 
L 2419 0 
L 2419 1100 
L 313 1100 
L 313 1709 
L 2253 4666 
z
" transform="scale(0.015625)"/>
       </defs>
       <use xlink:href="#DejaVuSans-34"/>
       <use xlink:href="#DejaVuSans-30" x="63.623047"/>
       <use xlink:href="#DejaVuSans-30" x="127.246094"/>
       <use xlink:href="#DejaVuSans-30" x="190.869141"/>
      </g>
     </g>
    </g>
    <g id="text_9">
     <!-- Residual -->
     <g transform="translate(569.284375 220.516562) scale(0.1 -0.1)">
      <defs>
       <path id="DejaVuSans-52" d="M 2841 2188 
Q 3044 2119 3236 1894 
Q 3428 1669 3622 1275 
L 4263 0 
L 3584 0 
L 2988 1197 
Q 2756 1666 2539 1819 
Q 2322 1972 1947 1972 
L 1259 1972 
L 1259 0 
L 628 0 
L 628 4666 
L 2053 4666 
Q 2853 4666 3247 4331 
Q 3641 3997 3641 3322 
Q 3641 2881 3436 2590 
Q 3231 2300 2841 2188 
z
M 1259 4147 
L 1259 2491 
L 2053 2491 
Q 2509 2491 2742 2702 
Q 2975 2913 2975 3322 
Q 2975 3731 2742 3939 
Q 2509 4147 2053 4147 
L 1259 4147 
z
" transform="scale(0.015625)"/>
       <path id="DejaVuSans-65" d="M 3597 1894 
L 3597 1613 
L 953 1613 
Q 991 1019 1311 708 
Q 1631 397 2203 397 
Q 2534 397 2845 478 
Q 3156 559 3463 722 
L 3463 178 
Q 3153 47 2828 -22 
Q 2503 -91 2169 -91 
Q 1331 -91 842 396 
Q 353 884 353 1716 
Q 353 2575 817 3079 
Q 1281 3584 2069 3584 
Q 2775 3584 3186 3129 
Q 3597 2675 3597 1894 
z
M 3022 2063 
Q 3016 2534 2758 2815 
Q 2500 3097 2075 3097 
Q 1594 3097 1305 2825 
Q 1016 2553 972 2059 
L 3022 2063 
z
" transform="scale(0.015625)"/>
       <path id="DejaVuSans-73" d="M 2834 3397 
L 2834 2853 
Q 2591 2978 2328 3040 
Q 2066 3103 1784 3103 
Q 1356 3103 1142 2972 
Q 928 2841 928 2578 
Q 928 2378 1081 2264 
Q 1234 2150 1697 2047 
L 1894 2003 
Q 2506 1872 2764 1633 
Q 3022 1394 3022 966 
Q 3022 478 2636 193 
Q 2250 -91 1575 -91 
Q 1294 -91 989 -36 
Q 684 19 347 128 
L 347 722 
Q 666 556 975 473 
Q 1284 391 1588 391 
Q 1994 391 2212 530 
Q 2431 669 2431 922 
Q 2431 1156 2273 1281 
Q 2116 1406 1581 1522 
L 1381 1569 
Q 847 1681 609 1914 
Q 372 2147 372 2553 
Q 372 3047 722 3315 
Q 1072 3584 1716 3584 
Q 2034 3584 2315 3537 
Q 2597 3491 2834 3397 
z
" transform="scale(0.015625)"/>
       <path id="DejaVuSans-69" d="M 603 3500 
L 1178 3500 
L 1178 0 
L 603 0 
L 603 3500 
z
M 603 4863 
L 1178 4863 
L 1178 4134 
L 603 4134 
L 603 4863 
z
" transform="scale(0.015625)"/>
       <path id="DejaVuSans-64" d="M 2906 2969 
L 2906 4863 
L 3481 4863 
L 3481 0 
L 2906 0 
L 2906 525 
Q 2725 213 2448 61 
Q 2172 -91 1784 -91 
Q 1150 -91 751 415 
Q 353 922 353 1747 
Q 353 2572 751 3078 
Q 1150 3584 1784 3584 
Q 2172 3584 2448 3432 
Q 2725 3281 2906 2969 
z
M 947 1747 
Q 947 1113 1208 752 
Q 1469 391 1925 391 
Q 2381 391 2643 752 
Q 2906 1113 2906 1747 
Q 2906 2381 2643 2742 
Q 2381 3103 1925 3103 
Q 1469 3103 1208 2742 
Q 947 2381 947 1747 
z
" transform="scale(0.015625)"/>
       <path id="DejaVuSans-75" d="M 544 1381 
L 544 3500 
L 1119 3500 
L 1119 1403 
Q 1119 906 1312 657 
Q 1506 409 1894 409 
Q 2359 409 2629 706 
Q 2900 1003 2900 1516 
L 2900 3500 
L 3475 3500 
L 3475 0 
L 2900 0 
L 2900 538 
Q 2691 219 2414 64 
Q 2138 -91 1772 -91 
Q 1169 -91 856 284 
Q 544 659 544 1381 
z
M 1991 3584 
L 1991 3584 
z
" transform="scale(0.015625)"/>
       <path id="DejaVuSans-61" d="M 2194 1759 
Q 1497 1759 1228 1600 
Q 959 1441 959 1056 
Q 959 750 1161 570 
Q 1363 391 1709 391 
Q 2188 391 2477 730 
Q 2766 1069 2766 1631 
L 2766 1759 
L 2194 1759 
z
M 3341 1997 
L 3341 0 
L 2766 0 
L 2766 531 
Q 2569 213 2275 61 
Q 1981 -91 1556 -91 
Q 1019 -91 701 211 
Q 384 513 384 1019 
Q 384 1609 779 1909 
Q 1175 2209 1959 2209 
L 2766 2209 
L 2766 2266 
Q 2766 2663 2505 2880 
Q 2244 3097 1772 3097 
Q 1472 3097 1187 3025 
Q 903 2953 641 2809 
L 641 3341 
Q 956 3463 1253 3523 
Q 1550 3584 1831 3584 
Q 2591 3584 2966 3190 
Q 3341 2797 3341 1997 
z
" transform="scale(0.015625)"/>
       <path id="DejaVuSans-6c" d="M 603 4863 
L 1178 4863 
L 1178 0 
L 603 0 
L 603 4863 
z
" transform="scale(0.015625)"/>
      </defs>
      <use xlink:href="#DejaVuSans-52"/>
      <use xlink:href="#DejaVuSans-65" x="64.982422"/>
      <use xlink:href="#DejaVuSans-73" x="126.505859"/>
      <use xlink:href="#DejaVuSans-69" x="178.605469"/>
      <use xlink:href="#DejaVuSans-64" x="206.388672"/>
      <use xlink:href="#DejaVuSans-75" x="269.865234"/>
      <use xlink:href="#DejaVuSans-61" x="333.244141"/>
      <use xlink:href="#DejaVuSans-6c" x="394.523438"/>
     </g>
    </g>
   </g>
   <g id="matplotlib.axis_2">
    <g id="ytick_1">
     <g id="line2d_9">
      <defs>
       <path id="m3bed7d922d" d="M 0 0 
L -3.5 0 
" style="stroke: #000000; stroke-width: 0.8"/>
      </defs>
      <g>
       <use xlink:href="#m3bed7d922d" x="144" y="181.462979" style="stroke: #000000; stroke-width: 0.8"/>
      </g>
     </g>
     <g id="text_10">
      <!-- 1.A.53.1.1 -->
      <g transform="translate(85.809375 185.262197) scale(0.1 -0.1)">
       <defs>
        <path id="DejaVuSans-2e" d="M 684 794 
L 1344 794 
L 1344 0 
L 684 0 
L 684 794 
z
" transform="scale(0.015625)"/>
        <path id="DejaVuSans-41" d="M 2188 4044 
L 1331 1722 
L 3047 1722 
L 2188 4044 
z
M 1831 4666 
L 2547 4666 
L 4325 0 
L 3669 0 
L 3244 1197 
L 1141 1197 
L 716 0 
L 50 0 
L 1831 4666 
z
" transform="scale(0.015625)"/>
       </defs>
       <use xlink:href="#DejaVuSans-31"/>
       <use xlink:href="#DejaVuSans-2e" x="63.623047"/>
       <use xlink:href="#DejaVuSans-41" x="95.410156"/>
       <use xlink:href="#DejaVuSans-2e" x="162.068359"/>
       <use xlink:href="#DejaVuSans-35" x="193.855469"/>
       <use xlink:href="#DejaVuSans-33" x="257.478516"/>
       <use xlink:href="#DejaVuSans-2e" x="321.101562"/>
       <use xlink:href="#DejaVuSans-31" x="352.888672"/>
       <use xlink:href="#DejaVuSans-2e" x="416.511719"/>
       <use xlink:href="#DejaVuSans-31" x="448.298828"/>
      </g>
     </g>
    </g>
    <g id="ytick_2">
     <g id="line2d_10">
      <g>
       <use xlink:href="#m3bed7d922d" x="144" y="165.377872" style="stroke: #000000; stroke-width: 0.8"/>
      </g>
     </g>
     <g id="text_11">
      <!-- 1.A.53.1.10 -->
      <g transform="translate(79.446875 169.177091) scale(0.1 -0.1)">
       <use xlink:href="#DejaVuSans-31"/>
       <use xlink:href="#DejaVuSans-2e" x="63.623047"/>
       <use xlink:href="#DejaVuSans-41" x="95.410156"/>
       <use xlink:href="#DejaVuSans-2e" x="162.068359"/>
       <use xlink:href="#DejaVuSans-35" x="193.855469"/>
       <use xlink:href="#DejaVuSans-33" x="257.478516"/>
       <use xlink:href="#DejaVuSans-2e" x="321.101562"/>
       <use xlink:href="#DejaVuSans-31" x="352.888672"/>
       <use xlink:href="#DejaVuSans-2e" x="416.511719"/>
       <use xlink:href="#DejaVuSans-31" x="448.298828"/>
       <use xlink:href="#DejaVuSans-30" x="511.921875"/>
      </g>
     </g>
    </g>
    <g id="ytick_3">
     <g id="line2d_11">
      <g>
       <use xlink:href="#m3bed7d922d" x="144" y="149.292766" style="stroke: #000000; stroke-width: 0.8"/>
      </g>
     </g>
     <g id="text_12">
      <!-- 1.A.53.1.11 -->
      <g transform="translate(79.446875 153.091985) scale(0.1 -0.1)">
       <use xlink:href="#DejaVuSans-31"/>
       <use xlink:href="#DejaVuSans-2e" x="63.623047"/>
       <use xlink:href="#DejaVuSans-41" x="95.410156"/>
       <use xlink:href="#DejaVuSans-2e" x="162.068359"/>
       <use xlink:href="#DejaVuSans-35" x="193.855469"/>
       <use xlink:href="#DejaVuSans-33" x="257.478516"/>
       <use xlink:href="#DejaVuSans-2e" x="321.101562"/>
       <use xlink:href="#DejaVuSans-31" x="352.888672"/>
       <use xlink:href="#DejaVuSans-2e" x="416.511719"/>
       <use xlink:href="#DejaVuSans-31" x="448.298828"/>
       <use xlink:href="#DejaVuSans-31" x="511.921875"/>
      </g>
     </g>
    </g>
    <g id="ytick_4">
     <g id="line2d_12">
      <g>
       <use xlink:href="#m3bed7d922d" x="144" y="133.20766" style="stroke: #000000; stroke-width: 0.8"/>
      </g>
     </g>
     <g id="text_13">
      <!-- 1.A.53.1.2 -->
      <g transform="translate(85.809375 137.006878) scale(0.1 -0.1)">
       <use xlink:href="#DejaVuSans-31"/>
       <use xlink:href="#DejaVuSans-2e" x="63.623047"/>
       <use xlink:href="#DejaVuSans-41" x="95.410156"/>
       <use xlink:href="#DejaVuSans-2e" x="162.068359"/>
       <use xlink:href="#DejaVuSans-35" x="193.855469"/>
       <use xlink:href="#DejaVuSans-33" x="257.478516"/>
       <use xlink:href="#DejaVuSans-2e" x="321.101562"/>
       <use xlink:href="#DejaVuSans-31" x="352.888672"/>
       <use xlink:href="#DejaVuSans-2e" x="416.511719"/>
       <use xlink:href="#DejaVuSans-32" x="448.298828"/>
      </g>
     </g>
    </g>
    <g id="ytick_5">
     <g id="line2d_13">
      <g>
       <use xlink:href="#m3bed7d922d" x="144" y="117.122553" style="stroke: #000000; stroke-width: 0.8"/>
      </g>
     </g>
     <g id="text_14">
      <!-- 1.A.53.1.3 -->
      <g transform="translate(85.809375 120.921772) scale(0.1 -0.1)">
       <use xlink:href="#DejaVuSans-31"/>
       <use xlink:href="#DejaVuSans-2e" x="63.623047"/>
       <use xlink:href="#DejaVuSans-41" x="95.410156"/>
       <use xlink:href="#DejaVuSans-2e" x="162.068359"/>
       <use xlink:href="#DejaVuSans-35" x="193.855469"/>
       <use xlink:href="#DejaVuSans-33" x="257.478516"/>
       <use xlink:href="#DejaVuSans-2e" x="321.101562"/>
       <use xlink:href="#DejaVuSans-31" x="352.888672"/>
       <use xlink:href="#DejaVuSans-2e" x="416.511719"/>
       <use xlink:href="#DejaVuSans-33" x="448.298828"/>
      </g>
     </g>
    </g>
    <g id="ytick_6">
     <g id="line2d_14">
      <g>
       <use xlink:href="#m3bed7d922d" x="144" y="101.037447" style="stroke: #000000; stroke-width: 0.8"/>
      </g>
     </g>
     <g id="text_15">
      <!-- 1.A.53.1.4 -->
      <g transform="translate(85.809375 104.836666) scale(0.1 -0.1)">
       <use xlink:href="#DejaVuSans-31"/>
       <use xlink:href="#DejaVuSans-2e" x="63.623047"/>
       <use xlink:href="#DejaVuSans-41" x="95.410156"/>
       <use xlink:href="#DejaVuSans-2e" x="162.068359"/>
       <use xlink:href="#DejaVuSans-35" x="193.855469"/>
       <use xlink:href="#DejaVuSans-33" x="257.478516"/>
       <use xlink:href="#DejaVuSans-2e" x="321.101562"/>
       <use xlink:href="#DejaVuSans-31" x="352.888672"/>
       <use xlink:href="#DejaVuSans-2e" x="416.511719"/>
       <use xlink:href="#DejaVuSans-34" x="448.298828"/>
      </g>
     </g>
    </g>
    <g id="ytick_7">
     <g id="line2d_15">
      <g>
       <use xlink:href="#m3bed7d922d" x="144" y="84.95234" style="stroke: #000000; stroke-width: 0.8"/>
      </g>
     </g>
     <g id="text_16">
      <!-- 1.A.53.1.5 -->
      <g transform="translate(85.809375 88.751559) scale(0.1 -0.1)">
       <use xlink:href="#DejaVuSans-31"/>
       <use xlink:href="#DejaVuSans-2e" x="63.623047"/>
       <use xlink:href="#DejaVuSans-41" x="95.410156"/>
       <use xlink:href="#DejaVuSans-2e" x="162.068359"/>
       <use xlink:href="#DejaVuSans-35" x="193.855469"/>
       <use xlink:href="#DejaVuSans-33" x="257.478516"/>
       <use xlink:href="#DejaVuSans-2e" x="321.101562"/>
       <use xlink:href="#DejaVuSans-31" x="352.888672"/>
       <use xlink:href="#DejaVuSans-2e" x="416.511719"/>
       <use xlink:href="#DejaVuSans-35" x="448.298828"/>
      </g>
     </g>
    </g>
    <g id="ytick_8">
     <g id="line2d_16">
      <g>
       <use xlink:href="#m3bed7d922d" x="144" y="68.867234" style="stroke: #000000; stroke-width: 0.8"/>
      </g>
     </g>
     <g id="text_17">
      <!-- 1.A.53.1.6 -->
      <g transform="translate(85.809375 72.666453) scale(0.1 -0.1)">
       <defs>
        <path id="DejaVuSans-36" d="M 2113 2584 
Q 1688 2584 1439 2293 
Q 1191 2003 1191 1497 
Q 1191 994 1439 701 
Q 1688 409 2113 409 
Q 2538 409 2786 701 
Q 3034 994 3034 1497 
Q 3034 2003 2786 2293 
Q 2538 2584 2113 2584 
z
M 3366 4563 
L 3366 3988 
Q 3128 4100 2886 4159 
Q 2644 4219 2406 4219 
Q 1781 4219 1451 3797 
Q 1122 3375 1075 2522 
Q 1259 2794 1537 2939 
Q 1816 3084 2150 3084 
Q 2853 3084 3261 2657 
Q 3669 2231 3669 1497 
Q 3669 778 3244 343 
Q 2819 -91 2113 -91 
Q 1303 -91 875 529 
Q 447 1150 447 2328 
Q 447 3434 972 4092 
Q 1497 4750 2381 4750 
Q 2619 4750 2861 4703 
Q 3103 4656 3366 4563 
z
" transform="scale(0.015625)"/>
       </defs>
       <use xlink:href="#DejaVuSans-31"/>
       <use xlink:href="#DejaVuSans-2e" x="63.623047"/>
       <use xlink:href="#DejaVuSans-41" x="95.410156"/>
       <use xlink:href="#DejaVuSans-2e" x="162.068359"/>
       <use xlink:href="#DejaVuSans-35" x="193.855469"/>
       <use xlink:href="#DejaVuSans-33" x="257.478516"/>
       <use xlink:href="#DejaVuSans-2e" x="321.101562"/>
       <use xlink:href="#DejaVuSans-31" x="352.888672"/>
       <use xlink:href="#DejaVuSans-2e" x="416.511719"/>
       <use xlink:href="#DejaVuSans-36" x="448.298828"/>
      </g>
     </g>
    </g>
    <g id="ytick_9">
     <g id="line2d_17">
      <g>
       <use xlink:href="#m3bed7d922d" x="144" y="52.782128" style="stroke: #000000; stroke-width: 0.8"/>
      </g>
     </g>
     <g id="text_18">
      <!-- 1.A.53.1.7 -->
      <g transform="translate(85.809375 56.581346) scale(0.1 -0.1)">
       <defs>
        <path id="DejaVuSans-37" d="M 525 4666 
L 3525 4666 
L 3525 4397 
L 1831 0 
L 1172 0 
L 2766 4134 
L 525 4134 
L 525 4666 
z
" transform="scale(0.015625)"/>
       </defs>
       <use xlink:href="#DejaVuSans-31"/>
       <use xlink:href="#DejaVuSans-2e" x="63.623047"/>
       <use xlink:href="#DejaVuSans-41" x="95.410156"/>
       <use xlink:href="#DejaVuSans-2e" x="162.068359"/>
       <use xlink:href="#DejaVuSans-35" x="193.855469"/>
       <use xlink:href="#DejaVuSans-33" x="257.478516"/>
       <use xlink:href="#DejaVuSans-2e" x="321.101562"/>
       <use xlink:href="#DejaVuSans-31" x="352.888672"/>
       <use xlink:href="#DejaVuSans-2e" x="416.511719"/>
       <use xlink:href="#DejaVuSans-37" x="448.298828"/>
      </g>
     </g>
    </g>
    <g id="ytick_10">
     <g id="line2d_18">
      <g>
       <use xlink:href="#m3bed7d922d" x="144" y="36.697021" style="stroke: #000000; stroke-width: 0.8"/>
      </g>
     </g>
     <g id="text_19">
      <!-- 1.A.53.1.8 -->
      <g transform="translate(85.809375 40.49624) scale(0.1 -0.1)">
       <defs>
        <path id="DejaVuSans-38" d="M 2034 2216 
Q 1584 2216 1326 1975 
Q 1069 1734 1069 1313 
Q 1069 891 1326 650 
Q 1584 409 2034 409 
Q 2484 409 2743 651 
Q 3003 894 3003 1313 
Q 3003 1734 2745 1975 
Q 2488 2216 2034 2216 
z
M 1403 2484 
Q 997 2584 770 2862 
Q 544 3141 544 3541 
Q 544 4100 942 4425 
Q 1341 4750 2034 4750 
Q 2731 4750 3128 4425 
Q 3525 4100 3525 3541 
Q 3525 3141 3298 2862 
Q 3072 2584 2669 2484 
Q 3125 2378 3379 2068 
Q 3634 1759 3634 1313 
Q 3634 634 3220 271 
Q 2806 -91 2034 -91 
Q 1263 -91 848 271 
Q 434 634 434 1313 
Q 434 1759 690 2068 
Q 947 2378 1403 2484 
z
M 1172 3481 
Q 1172 3119 1398 2916 
Q 1625 2713 2034 2713 
Q 2441 2713 2670 2916 
Q 2900 3119 2900 3481 
Q 2900 3844 2670 4047 
Q 2441 4250 2034 4250 
Q 1625 4250 1398 4047 
Q 1172 3844 1172 3481 
z
" transform="scale(0.015625)"/>
       </defs>
       <use xlink:href="#DejaVuSans-31"/>
       <use xlink:href="#DejaVuSans-2e" x="63.623047"/>
       <use xlink:href="#DejaVuSans-41" x="95.410156"/>
       <use xlink:href="#DejaVuSans-2e" x="162.068359"/>
       <use xlink:href="#DejaVuSans-35" x="193.855469"/>
       <use xlink:href="#DejaVuSans-33" x="257.478516"/>
       <use xlink:href="#DejaVuSans-2e" x="321.101562"/>
       <use xlink:href="#DejaVuSans-31" x="352.888672"/>
       <use xlink:href="#DejaVuSans-2e" x="416.511719"/>
       <use xlink:href="#DejaVuSans-38" x="448.298828"/>
      </g>
     </g>
    </g>
   </g>
   <g id="patch_225">
    <path d="M 144 192.24 
L 144 25.92 
" style="fill: none; stroke: #000000; stroke-width: 0.8; stroke-linejoin: miter; stroke-linecap: square"/>
   </g>
   <g id="patch_226">
    <path d="M 1036.8 192.24 
L 1036.8 25.92 
" style="fill: none; stroke: #000000; stroke-width: 0.8; stroke-linejoin: miter; stroke-linecap: square"/>
   </g>
   <g id="patch_227">
    <path d="M 144 192.24 
L 1036.8 192.24 
" style="fill: none; stroke: #000000; stroke-width: 0.8; stroke-linejoin: miter; stroke-linecap: square"/>
   </g>
   <g id="patch_228">
    <path d="M 144 25.92 
L 1036.8 25.92 
" style="fill: none; stroke: #000000; stroke-width: 0.8; stroke-linejoin: miter; stroke-linecap: square"/>
   </g>
   <g id="text_20">
    <!-- 1.A.53 Summary -->
    <g transform="translate(540.2325 19.92) scale(0.12 -0.12)">
     <defs>
      <path id="DejaVuSans-20" transform="scale(0.015625)"/>
      <path id="DejaVuSans-53" d="M 3425 4513 
L 3425 3897 
Q 3066 4069 2747 4153 
Q 2428 4238 2131 4238 
Q 1616 4238 1336 4038 
Q 1056 3838 1056 3469 
Q 1056 3159 1242 3001 
Q 1428 2844 1947 2747 
L 2328 2669 
Q 3034 2534 3370 2195 
Q 3706 1856 3706 1288 
Q 3706 609 3251 259 
Q 2797 -91 1919 -91 
Q 1588 -91 1214 -16 
Q 841 59 441 206 
L 441 856 
Q 825 641 1194 531 
Q 1563 422 1919 422 
Q 2459 422 2753 634 
Q 3047 847 3047 1241 
Q 3047 1584 2836 1778 
Q 2625 1972 2144 2069 
L 1759 2144 
Q 1053 2284 737 2584 
Q 422 2884 422 3419 
Q 422 4038 858 4394 
Q 1294 4750 2059 4750 
Q 2388 4750 2728 4690 
Q 3069 4631 3425 4513 
z
" transform="scale(0.015625)"/>
      <path id="DejaVuSans-6d" d="M 3328 2828 
Q 3544 3216 3844 3400 
Q 4144 3584 4550 3584 
Q 5097 3584 5394 3201 
Q 5691 2819 5691 2113 
L 5691 0 
L 5113 0 
L 5113 2094 
Q 5113 2597 4934 2840 
Q 4756 3084 4391 3084 
Q 3944 3084 3684 2787 
Q 3425 2491 3425 1978 
L 3425 0 
L 2847 0 
L 2847 2094 
Q 2847 2600 2669 2842 
Q 2491 3084 2119 3084 
Q 1678 3084 1418 2786 
Q 1159 2488 1159 1978 
L 1159 0 
L 581 0 
L 581 3500 
L 1159 3500 
L 1159 2956 
Q 1356 3278 1631 3431 
Q 1906 3584 2284 3584 
Q 2666 3584 2933 3390 
Q 3200 3197 3328 2828 
z
" transform="scale(0.015625)"/>
      <path id="DejaVuSans-72" d="M 2631 2963 
Q 2534 3019 2420 3045 
Q 2306 3072 2169 3072 
Q 1681 3072 1420 2755 
Q 1159 2438 1159 1844 
L 1159 0 
L 581 0 
L 581 3500 
L 1159 3500 
L 1159 2956 
Q 1341 3275 1631 3429 
Q 1922 3584 2338 3584 
Q 2397 3584 2469 3576 
Q 2541 3569 2628 3553 
L 2631 2963 
z
" transform="scale(0.015625)"/>
      <path id="DejaVuSans-79" d="M 2059 -325 
Q 1816 -950 1584 -1140 
Q 1353 -1331 966 -1331 
L 506 -1331 
L 506 -850 
L 844 -850 
Q 1081 -850 1212 -737 
Q 1344 -625 1503 -206 
L 1606 56 
L 191 3500 
L 800 3500 
L 1894 763 
L 2988 3500 
L 3597 3500 
L 2059 -325 
z
" transform="scale(0.015625)"/>
     </defs>
     <use xlink:href="#DejaVuSans-31"/>
     <use xlink:href="#DejaVuSans-2e" x="63.623047"/>
     <use xlink:href="#DejaVuSans-41" x="95.410156"/>
     <use xlink:href="#DejaVuSans-2e" x="162.068359"/>
     <use xlink:href="#DejaVuSans-35" x="193.855469"/>
     <use xlink:href="#DejaVuSans-33" x="257.478516"/>
     <use xlink:href="#DejaVuSans-20" x="321.101562"/>
     <use xlink:href="#DejaVuSans-53" x="352.888672"/>
     <use xlink:href="#DejaVuSans-75" x="416.365234"/>
     <use xlink:href="#DejaVuSans-6d" x="479.744141"/>
     <use xlink:href="#DejaVuSans-6d" x="577.15625"/>
     <use xlink:href="#DejaVuSans-61" x="674.568359"/>
     <use xlink:href="#DejaVuSans-72" x="735.847656"/>
     <use xlink:href="#DejaVuSans-79" x="776.960938"/>
    </g>
   </g>
  </g>
 </g>
 <defs>
  <clipPath id="p74b62573e3">
   <rect x="144" y="25.92" width="892.8" height="166.32"/>
  </clipPath>
 </defs>
</svg>
