<?xml version="1.0" encoding="utf-8" standalone="no"?>
<!DOCTYPE svg PUBLIC "-//W3C//DTD SVG 1.1//EN"
  "http://www.w3.org/Graphics/SVG/1.1/DTD/svg11.dtd">
<svg xmlns:xlink="http://www.w3.org/1999/xlink" width="1152pt" height="216pt" viewBox="0 0 1152 216" xmlns="http://www.w3.org/2000/svg" version="1.1">
 <metadata>
  <rdf:RDF xmlns:dc="http://purl.org/dc/elements/1.1/" xmlns:cc="http://creativecommons.org/ns#" xmlns:rdf="http://www.w3.org/1999/02/22-rdf-syntax-ns#">
   <cc:Work>
    <dc:type rdf:resource="http://purl.org/dc/dcmitype/StillImage"/>
    <dc:date>2024-10-25T07:45:24.945242</dc:date>
    <dc:format>image/svg+xml</dc:format>
    <dc:creator>
     <cc:Agent>
      <dc:title>Matplotlib v3.9.2, https://matplotlib.org/</dc:title>
     </cc:Agent>
    </dc:creator>
   </cc:Work>
  </rdf:RDF>
 </metadata>
 <defs>
  <style type="text/css">*{stroke-linejoin: round; stroke-linecap: butt}</style>
 </defs>
 <g id="figure_1">
  <g id="patch_1">
   <path d="M 0 216 
L 1152 216 
L 1152 0 
L 0 0 
z
" style="fill: #ffffff"/>
  </g>
  <g id="axes_1">
   <g id="patch_2">
    <path d="M 144 192.24 
L 1036.8 192.24 
L 1036.8 25.92 
L 144 25.92 
z
" style="fill: #ffffff"/>
   </g>
   <g id="patch_3">
    <path d="M 144 180.9 
L 144 180.9 
L 144 180.287027 
L 144 180.287027 
z
" clip-path="url(#pdd96032b3e)" style="fill: #0000ff"/>
   </g>
   <g id="patch_4">
    <path d="M 144.364617 184.68 
L 168.793923 184.68 
L 168.793923 176.507027 
L 144.364617 176.507027 
z
" clip-path="url(#pdd96032b3e)" style="fill: #0000ff"/>
   </g>
   <g id="patch_5">
    <path d="M 169.15854 180.9 
L 177.180103 180.9 
L 177.180103 180.287027 
L 169.15854 180.287027 
z
" clip-path="url(#pdd96032b3e)" style="fill: #0000ff"/>
   </g>
   <g id="patch_6">
    <path d="M 177.544719 184.68 
L 255.93727 184.68 
L 255.93727 176.507027 
L 177.544719 176.507027 
z
" clip-path="url(#pdd96032b3e)" style="fill: #0000ff"/>
   </g>
   <g id="patch_7">
    <path d="M 189.212448 184.68 
L 266.146533 184.68 
L 266.146533 176.507027 
L 189.212448 176.507027 
z
" clip-path="url(#pdd96032b3e)" style="fill: #0000ff"/>
   </g>
   <g id="patch_8">
    <path d="M 266.511149 180.9 
L 277.814261 180.9 
L 277.814261 180.287027 
L 266.511149 180.287027 
z
" clip-path="url(#pdd96032b3e)" style="fill: #0000ff"/>
   </g>
   <g id="patch_9">
    <path d="M 278.178878 184.68 
L 338.705219 184.68 
L 338.705219 176.507027 
L 278.178878 176.507027 
z
" clip-path="url(#pdd96032b3e)" style="fill: #0000ff"/>
   </g>
   <g id="patch_10">
    <path d="M 283.648125 184.68 
L 351.466797 184.68 
L 351.466797 176.507027 
L 283.648125 176.507027 
z
" clip-path="url(#pdd96032b3e)" style="fill: #0000ff"/>
   </g>
   <g id="patch_11">
    <path d="M 298.962019 184.68 
L 350.372948 184.68 
L 350.372948 176.507027 
L 298.962019 176.507027 
z
" clip-path="url(#pdd96032b3e)" style="fill: #0000ff"/>
   </g>
   <g id="patch_12">
    <path d="M 351.831414 180.9 
L 375.166871 180.9 
L 375.166871 180.287027 
L 351.831414 180.287027 
z
" clip-path="url(#pdd96032b3e)" style="fill: #0000ff"/>
   </g>
   <g id="patch_13">
    <path d="M 375.531487 184.68 
L 431.682431 184.68 
L 431.682431 176.507027 
L 375.531487 176.507027 
z
" clip-path="url(#pdd96032b3e)" style="fill: #0000ff"/>
   </g>
   <g id="patch_14">
    <path d="M 383.917667 184.68 
L 455.017888 184.68 
L 455.017888 176.507027 
L 383.917667 176.507027 
z
" clip-path="url(#pdd96032b3e)" style="fill: #0000ff"/>
   </g>
   <g id="patch_15">
    <path d="M 455.382504 180.9 
L 471.061014 180.9 
L 471.061014 180.287027 
L 455.382504 180.287027 
z
" clip-path="url(#pdd96032b3e)" style="fill: #0000ff"/>
   </g>
   <g id="patch_16">
    <path d="M 471.425631 184.68 
L 517.367312 184.68 
L 517.367312 176.507027 
L 471.425631 176.507027 
z
" clip-path="url(#pdd96032b3e)" style="fill: #0000ff"/>
   </g>
   <g id="patch_17">
    <path d="M 517.731928 180.9 
L 518.825778 180.9 
L 518.825778 180.287027 
L 517.731928 180.287027 
z
" clip-path="url(#pdd96032b3e)" style="fill: #0000ff"/>
   </g>
   <g id="patch_18">
    <path d="M 519.190395 184.68 
L 554.922813 184.68 
L 554.922813 176.507027 
L 519.190395 176.507027 
z
" clip-path="url(#pdd96032b3e)" style="fill: #0000ff"/>
   </g>
   <g id="patch_19">
    <path d="M 555.28743 180.9 
L 599.406028 180.9 
L 599.406028 180.287027 
L 555.28743 180.287027 
z
" clip-path="url(#pdd96032b3e)" style="fill: #0000ff"/>
   </g>
   <g id="patch_20">
    <path d="M 599.770644 184.68 
L 621.283019 184.68 
L 621.283019 176.507027 
L 599.770644 176.507027 
z
" clip-path="url(#pdd96032b3e)" style="fill: #0000ff"/>
   </g>
   <g id="patch_21">
    <path d="M 600.135261 184.68 
L 635.867679 184.68 
L 635.867679 176.507027 
L 600.135261 176.507027 
z
" clip-path="url(#pdd96032b3e)" style="fill: #0000ff"/>
   </g>
   <g id="patch_22">
    <path d="M 636.232296 180.9 
L 674.51703 180.9 
L 674.51703 180.287027 
L 636.232296 180.287027 
z
" clip-path="url(#pdd96032b3e)" style="fill: #0000ff"/>
   </g>
   <g id="patch_23">
    <path d="M 674.881647 184.68 
L 696.029405 184.68 
L 696.029405 176.507027 
L 674.881647 176.507027 
z
" clip-path="url(#pdd96032b3e)" style="fill: #0000ff"/>
   </g>
   <g id="patch_24">
    <path d="M 696.394021 180.9 
L 714.26023 180.9 
L 714.26023 180.287027 
L 696.394021 180.287027 
z
" clip-path="url(#pdd96032b3e)" style="fill: #0000ff"/>
   </g>
   <g id="patch_25">
    <path d="M 714.624847 184.68 
L 774.786572 184.68 
L 774.786572 176.507027 
L 714.624847 176.507027 
z
" clip-path="url(#pdd96032b3e)" style="fill: #0000ff"/>
   </g>
   <g id="patch_26">
    <path d="M 775.151188 180.9 
L 783.901985 180.9 
L 783.901985 180.287027 
L 775.151188 180.287027 
z
" clip-path="url(#pdd96032b3e)" style="fill: #0000ff"/>
   </g>
   <g id="patch_27">
    <path d="M 784.266601 184.68 
L 949.073266 184.68 
L 949.073266 176.507027 
L 784.266601 176.507027 
z
" clip-path="url(#pdd96032b3e)" style="fill: #0000ff"/>
   </g>
   <g id="patch_28">
    <path d="M 786.4543 184.68 
L 949.073266 184.68 
L 949.073266 176.507027 
L 786.4543 176.507027 
z
" clip-path="url(#pdd96032b3e)" style="fill: #0000ff"/>
   </g>
   <g id="patch_29">
    <path d="M 786.4543 184.68 
L 948.344033 184.68 
L 948.344033 176.507027 
L 786.4543 176.507027 
z
" clip-path="url(#pdd96032b3e)" style="fill: #0000ff"/>
   </g>
   <g id="patch_30">
    <path d="M 786.4543 184.68 
L 949.073266 184.68 
L 949.073266 176.507027 
L 786.4543 176.507027 
z
" clip-path="url(#pdd96032b3e)" style="fill: #0000ff"/>
   </g>
   <g id="patch_31">
    <path d="M 786.4543 184.68 
L 949.073266 184.68 
L 949.073266 176.507027 
L 786.4543 176.507027 
z
" clip-path="url(#pdd96032b3e)" style="fill: #0000ff"/>
   </g>
   <g id="patch_32">
    <path d="M 787.183533 184.68 
L 947.979417 184.68 
L 947.979417 176.507027 
L 787.183533 176.507027 
z
" clip-path="url(#pdd96032b3e)" style="fill: #0000ff"/>
   </g>
   <g id="patch_33">
    <path d="M 790.465082 184.68 
L 940.687086 184.68 
L 940.687086 176.507027 
L 790.465082 176.507027 
z
" clip-path="url(#pdd96032b3e)" style="fill: #0000ff"/>
   </g>
   <g id="patch_34">
    <path d="M 790.465082 184.68 
L 947.979417 184.68 
L 947.979417 176.507027 
L 790.465082 176.507027 
z
" clip-path="url(#pdd96032b3e)" style="fill: #0000ff"/>
   </g>
   <g id="patch_35">
    <path d="M 792.288165 184.68 
L 939.957853 184.68 
L 939.957853 176.507027 
L 792.288165 176.507027 
z
" clip-path="url(#pdd96032b3e)" style="fill: #0000ff"/>
   </g>
   <g id="patch_36">
    <path d="M 802.132811 184.68 
L 940.687086 184.68 
L 940.687086 176.507027 
L 802.132811 176.507027 
z
" clip-path="url(#pdd96032b3e)" style="fill: #0000ff"/>
   </g>
   <g id="patch_37">
    <path d="M 814.894389 184.68 
L 939.22862 184.68 
L 939.22862 176.507027 
L 814.894389 176.507027 
z
" clip-path="url(#pdd96032b3e)" style="fill: #0000ff"/>
   </g>
   <g id="patch_38">
    <path d="M 816.352855 184.68 
L 939.957853 184.68 
L 939.957853 176.507027 
L 816.352855 176.507027 
z
" clip-path="url(#pdd96032b3e)" style="fill: #0000ff"/>
   </g>
   <g id="patch_39">
    <path d="M 816.352855 184.68 
L 945.062485 184.68 
L 945.062485 176.507027 
L 816.352855 176.507027 
z
" clip-path="url(#pdd96032b3e)" style="fill: #0000ff"/>
   </g>
   <g id="patch_40">
    <path d="M 817.082088 184.68 
L 949.073266 184.68 
L 949.073266 176.507027 
L 817.082088 176.507027 
z
" clip-path="url(#pdd96032b3e)" style="fill: #0000ff"/>
   </g>
   <g id="patch_41">
    <path d="M 817.082088 184.68 
L 947.979417 184.68 
L 947.979417 176.507027 
L 817.082088 176.507027 
z
" clip-path="url(#pdd96032b3e)" style="fill: #0000ff"/>
   </g>
   <g id="patch_42">
    <path d="M 817.446704 184.68 
L 940.32247 184.68 
L 940.32247 176.507027 
L 817.446704 176.507027 
z
" clip-path="url(#pdd96032b3e)" style="fill: #0000ff"/>
   </g>
   <g id="patch_43">
    <path d="M 817.446704 184.68 
L 938.499387 184.68 
L 938.499387 176.507027 
L 817.446704 176.507027 
z
" clip-path="url(#pdd96032b3e)" style="fill: #0000ff"/>
   </g>
   <g id="patch_44">
    <path d="M 817.446704 184.68 
L 949.073266 184.68 
L 949.073266 176.507027 
L 817.446704 176.507027 
z
" clip-path="url(#pdd96032b3e)" style="fill: #0000ff"/>
   </g>
   <g id="patch_45">
    <path d="M 817.446704 184.68 
L 947.979417 184.68 
L 947.979417 176.507027 
L 817.446704 176.507027 
z
" clip-path="url(#pdd96032b3e)" style="fill: #0000ff"/>
   </g>
   <g id="patch_46">
    <path d="M 817.446704 184.68 
L 949.073266 184.68 
L 949.073266 176.507027 
L 817.446704 176.507027 
z
" clip-path="url(#pdd96032b3e)" style="fill: #0000ff"/>
   </g>
   <g id="patch_47">
    <path d="M 818.540554 184.68 
L 947.6148 184.68 
L 947.6148 176.507027 
L 818.540554 176.507027 
z
" clip-path="url(#pdd96032b3e)" style="fill: #0000ff"/>
   </g>
   <g id="patch_48">
    <path d="M 819.634403 184.68 
L 940.32247 184.68 
L 940.32247 176.507027 
L 819.634403 176.507027 
z
" clip-path="url(#pdd96032b3e)" style="fill: #0000ff"/>
   </g>
   <g id="patch_49">
    <path d="M 821.092869 184.68 
L 937.405538 184.68 
L 937.405538 176.507027 
L 821.092869 176.507027 
z
" clip-path="url(#pdd96032b3e)" style="fill: #0000ff"/>
   </g>
   <g id="patch_50">
    <path d="M 821.092869 184.68 
L 937.770154 184.68 
L 937.770154 176.507027 
L 821.092869 176.507027 
z
" clip-path="url(#pdd96032b3e)" style="fill: #0000ff"/>
   </g>
   <g id="patch_51">
    <path d="M 821.092869 184.68 
L 945.791718 184.68 
L 945.791718 176.507027 
L 821.092869 176.507027 
z
" clip-path="url(#pdd96032b3e)" style="fill: #0000ff"/>
   </g>
   <g id="patch_52">
    <path d="M 836.042147 184.68 
L 919.539329 184.68 
L 919.539329 176.507027 
L 836.042147 176.507027 
z
" clip-path="url(#pdd96032b3e)" style="fill: #0000ff"/>
   </g>
   <g id="patch_53">
    <path d="M 836.406763 184.68 
L 928.290125 184.68 
L 928.290125 176.507027 
L 836.406763 176.507027 
z
" clip-path="url(#pdd96032b3e)" style="fill: #0000ff"/>
   </g>
   <g id="patch_54">
    <path d="M 837.500613 184.68 
L 940.32247 184.68 
L 940.32247 176.507027 
L 837.500613 176.507027 
z
" clip-path="url(#pdd96032b3e)" style="fill: #0000ff"/>
   </g>
   <g id="patch_55">
    <path d="M 838.594462 184.68 
L 940.687086 184.68 
L 940.687086 176.507027 
L 838.594462 176.507027 
z
" clip-path="url(#pdd96032b3e)" style="fill: #0000ff"/>
   </g>
   <g id="patch_56">
    <path d="M 838.594462 184.68 
L 940.32247 184.68 
L 940.32247 176.507027 
L 838.594462 176.507027 
z
" clip-path="url(#pdd96032b3e)" style="fill: #0000ff"/>
   </g>
   <g id="patch_57">
    <path d="M 838.959079 184.68 
L 938.134771 184.68 
L 938.134771 176.507027 
L 838.959079 176.507027 
z
" clip-path="url(#pdd96032b3e)" style="fill: #0000ff"/>
   </g>
   <g id="patch_58">
    <path d="M 838.959079 184.68 
L 940.32247 184.68 
L 940.32247 176.507027 
L 838.959079 176.507027 
z
" clip-path="url(#pdd96032b3e)" style="fill: #0000ff"/>
   </g>
   <g id="patch_59">
    <path d="M 838.959079 184.68 
L 940.32247 184.68 
L 940.32247 176.507027 
L 838.959079 176.507027 
z
" clip-path="url(#pdd96032b3e)" style="fill: #0000ff"/>
   </g>
   <g id="patch_60">
    <path d="M 838.959079 184.68 
L 939.957853 184.68 
L 939.957853 176.507027 
L 838.959079 176.507027 
z
" clip-path="url(#pdd96032b3e)" style="fill: #0000ff"/>
   </g>
   <g id="patch_61">
    <path d="M 857.189904 184.68 
L 937.770154 184.68 
L 937.770154 176.507027 
L 857.189904 176.507027 
z
" clip-path="url(#pdd96032b3e)" style="fill: #0000ff"/>
   </g>
   <g id="patch_62">
    <path d="M 864.482235 184.68 
L 903.131585 184.68 
L 903.131585 176.507027 
L 864.482235 176.507027 
z
" clip-path="url(#pdd96032b3e)" style="fill: #0000ff"/>
   </g>
   <g id="patch_63">
    <path d="M 144 164.247568 
L 179.732419 164.247568 
L 179.732419 156.074595 
L 144 156.074595 
z
" clip-path="url(#pdd96032b3e)" style="fill: #0000ff"/>
   </g>
   <g id="patch_64">
    <path d="M 149.469248 164.247568 
L 179.732419 164.247568 
L 179.732419 156.074595 
L 149.469248 156.074595 
z
" clip-path="url(#pdd96032b3e)" style="fill: #0000ff"/>
   </g>
   <g id="patch_65">
    <path d="M 144 140.035135 
L 150.563097 140.035135 
L 150.563097 139.422162 
L 144 139.422162 
z
" clip-path="url(#pdd96032b3e)" style="fill: #0000ff"/>
   </g>
   <g id="patch_66">
    <path d="M 150.927714 143.815135 
L 187.024749 143.815135 
L 187.024749 135.642162 
L 150.927714 135.642162 
z
" clip-path="url(#pdd96032b3e)" style="fill: #0000ff"/>
   </g>
   <g id="patch_67">
    <path d="M 187.389365 140.035135 
L 190.306297 140.035135 
L 190.306297 139.422162 
L 187.389365 139.422162 
z
" clip-path="url(#pdd96032b3e)" style="fill: #0000ff"/>
   </g>
   <g id="patch_68">
    <path d="M 144 123.382703 
L 216.923303 123.382703 
L 216.923303 115.20973 
L 144 115.20973 
z
" clip-path="url(#pdd96032b3e)" style="fill: #0000ff"/>
   </g>
   <g id="patch_69">
    <path d="M 217.28792 123.382703 
L 247.55109 123.382703 
L 247.55109 115.20973 
L 217.28792 115.20973 
z
" clip-path="url(#pdd96032b3e)" style="fill: #0000ff"/>
   </g>
   <g id="patch_70">
    <path d="M 247.915707 119.602703 
L 256.666503 119.602703 
L 256.666503 118.98973 
L 247.915707 118.98973 
z
" clip-path="url(#pdd96032b3e)" style="fill: #0000ff"/>
   </g>
   <g id="patch_71">
    <path d="M 257.03112 123.382703 
L 316.828228 123.382703 
L 316.828228 115.20973 
L 257.03112 115.20973 
z
" clip-path="url(#pdd96032b3e)" style="fill: #0000ff"/>
   </g>
   <g id="patch_72">
    <path d="M 271.251164 123.382703 
L 327.037491 123.382703 
L 327.037491 115.20973 
L 271.251164 115.20973 
z
" clip-path="url(#pdd96032b3e)" style="fill: #0000ff"/>
   </g>
   <g id="patch_73">
    <path d="M 327.402107 119.602703 
L 329.954423 119.602703 
L 329.954423 118.98973 
L 327.402107 118.98973 
z
" clip-path="url(#pdd96032b3e)" style="fill: #0000ff"/>
   </g>
   <g id="patch_74">
    <path d="M 330.319039 123.382703 
L 414.180838 123.382703 
L 414.180838 115.20973 
L 330.319039 115.20973 
z
" clip-path="url(#pdd96032b3e)" style="fill: #0000ff"/>
   </g>
   <g id="patch_75">
    <path d="M 337.975986 123.382703 
L 394.856163 123.382703 
L 394.856163 115.20973 
L 337.975986 115.20973 
z
" clip-path="url(#pdd96032b3e)" style="fill: #0000ff"/>
   </g>
   <g id="patch_76">
    <path d="M 355.112963 123.382703 
L 407.253124 123.382703 
L 407.253124 115.20973 
L 355.112963 115.20973 
z
" clip-path="url(#pdd96032b3e)" style="fill: #0000ff"/>
   </g>
   <g id="patch_77">
    <path d="M 407.617741 123.382703 
L 459.393286 123.382703 
L 459.393286 115.20973 
L 407.617741 115.20973 
z
" clip-path="url(#pdd96032b3e)" style="fill: #0000ff"/>
   </g>
   <g id="patch_78">
    <path d="M 419.650086 123.382703 
L 477.624112 123.382703 
L 477.624112 115.20973 
L 419.650086 115.20973 
z
" clip-path="url(#pdd96032b3e)" style="fill: #0000ff"/>
   </g>
   <g id="patch_79">
    <path d="M 477.988728 119.602703 
L 585.915217 119.602703 
L 585.915217 118.98973 
L 477.988728 118.98973 
z
" clip-path="url(#pdd96032b3e)" style="fill: #0000ff"/>
   </g>
   <g id="patch_80">
    <path d="M 586.279833 123.382703 
L 623.106101 123.382703 
L 623.106101 115.20973 
L 586.279833 115.20973 
z
" clip-path="url(#pdd96032b3e)" style="fill: #0000ff"/>
   </g>
   <g id="patch_81">
    <path d="M 623.470718 119.602703 
L 745.981867 119.602703 
L 745.981867 118.98973 
L 623.470718 118.98973 
z
" clip-path="url(#pdd96032b3e)" style="fill: #0000ff"/>
   </g>
   <g id="patch_82">
    <path d="M 746.346484 123.382703 
L 813.435923 123.382703 
L 813.435923 115.20973 
L 746.346484 115.20973 
z
" clip-path="url(#pdd96032b3e)" style="fill: #0000ff"/>
   </g>
   <g id="patch_83">
    <path d="M 813.800539 119.602703 
L 822.915952 119.602703 
L 822.915952 118.98973 
L 813.800539 118.98973 
z
" clip-path="url(#pdd96032b3e)" style="fill: #0000ff"/>
   </g>
   <g id="patch_84">
    <path d="M 823.280568 123.382703 
L 992.098015 123.382703 
L 992.098015 115.20973 
L 823.280568 115.20973 
z
" clip-path="url(#pdd96032b3e)" style="fill: #0000ff"/>
   </g>
   <g id="patch_85">
    <path d="M 825.832884 123.382703 
L 992.462632 123.382703 
L 992.462632 115.20973 
L 825.832884 115.20973 
z
" clip-path="url(#pdd96032b3e)" style="fill: #0000ff"/>
   </g>
   <g id="patch_86">
    <path d="M 826.926734 123.382703 
L 992.098015 123.382703 
L 992.098015 115.20973 
L 826.926734 115.20973 
z
" clip-path="url(#pdd96032b3e)" style="fill: #0000ff"/>
   </g>
   <g id="patch_87">
    <path d="M 827.29135 123.382703 
L 991.368782 123.382703 
L 991.368782 115.20973 
L 827.29135 115.20973 
z
" clip-path="url(#pdd96032b3e)" style="fill: #0000ff"/>
   </g>
   <g id="patch_88">
    <path d="M 827.655967 123.382703 
L 992.098015 123.382703 
L 992.098015 115.20973 
L 827.655967 115.20973 
z
" clip-path="url(#pdd96032b3e)" style="fill: #0000ff"/>
   </g>
   <g id="patch_89">
    <path d="M 827.655967 123.382703 
L 992.827248 123.382703 
L 992.827248 115.20973 
L 827.655967 115.20973 
z
" clip-path="url(#pdd96032b3e)" style="fill: #0000ff"/>
   </g>
   <g id="patch_90">
    <path d="M 831.302132 123.382703 
L 985.534918 123.382703 
L 985.534918 115.20973 
L 831.302132 115.20973 
z
" clip-path="url(#pdd96032b3e)" style="fill: #0000ff"/>
   </g>
   <g id="patch_91">
    <path d="M 831.302132 123.382703 
L 983.347219 123.382703 
L 983.347219 115.20973 
L 831.302132 115.20973 
z
" clip-path="url(#pdd96032b3e)" style="fill: #0000ff"/>
   </g>
   <g id="patch_92">
    <path d="M 832.395981 123.382703 
L 986.264151 123.382703 
L 986.264151 115.20973 
L 832.395981 115.20973 
z
" clip-path="url(#pdd96032b3e)" style="fill: #0000ff"/>
   </g>
   <g id="patch_93">
    <path d="M 857.554521 123.382703 
L 985.899534 123.382703 
L 985.899534 115.20973 
L 857.554521 115.20973 
z
" clip-path="url(#pdd96032b3e)" style="fill: #0000ff"/>
   </g>
   <g id="patch_94">
    <path d="M 857.554521 123.382703 
L 987.358 123.382703 
L 987.358 115.20973 
L 857.554521 115.20973 
z
" clip-path="url(#pdd96032b3e)" style="fill: #0000ff"/>
   </g>
   <g id="patch_95">
    <path d="M 858.64837 123.382703 
L 991.368782 123.382703 
L 991.368782 115.20973 
L 858.64837 115.20973 
z
" clip-path="url(#pdd96032b3e)" style="fill: #0000ff"/>
   </g>
   <g id="patch_96">
    <path d="M 858.64837 123.382703 
L 958.188679 123.382703 
L 958.188679 115.20973 
L 858.64837 115.20973 
z
" clip-path="url(#pdd96032b3e)" style="fill: #0000ff"/>
   </g>
   <g id="patch_97">
    <path d="M 859.377604 123.382703 
L 992.098015 123.382703 
L 992.098015 115.20973 
L 859.377604 115.20973 
z
" clip-path="url(#pdd96032b3e)" style="fill: #0000ff"/>
   </g>
   <g id="patch_98">
    <path d="M 859.377604 123.382703 
L 992.827248 123.382703 
L 992.827248 115.20973 
L 859.377604 115.20973 
z
" clip-path="url(#pdd96032b3e)" style="fill: #0000ff"/>
   </g>
   <g id="patch_99">
    <path d="M 859.74222 123.382703 
L 985.899534 123.382703 
L 985.899534 115.20973 
L 859.74222 115.20973 
z
" clip-path="url(#pdd96032b3e)" style="fill: #0000ff"/>
   </g>
   <g id="patch_100">
    <path d="M 859.74222 123.382703 
L 985.534918 123.382703 
L 985.534918 115.20973 
L 859.74222 115.20973 
z
" clip-path="url(#pdd96032b3e)" style="fill: #0000ff"/>
   </g>
   <g id="patch_101">
    <path d="M 859.74222 123.382703 
L 983.711835 123.382703 
L 983.711835 115.20973 
L 859.74222 115.20973 
z
" clip-path="url(#pdd96032b3e)" style="fill: #0000ff"/>
   </g>
   <g id="patch_102">
    <path d="M 859.74222 123.382703 
L 991.368782 123.382703 
L 991.368782 115.20973 
L 859.74222 115.20973 
z
" clip-path="url(#pdd96032b3e)" style="fill: #0000ff"/>
   </g>
   <g id="patch_103">
    <path d="M 859.74222 123.382703 
L 965.116393 123.382703 
L 965.116393 115.20973 
L 859.74222 115.20973 
z
" clip-path="url(#pdd96032b3e)" style="fill: #0000ff"/>
   </g>
   <g id="patch_104">
    <path d="M 859.74222 123.382703 
L 992.098015 123.382703 
L 992.098015 115.20973 
L 859.74222 115.20973 
z
" clip-path="url(#pdd96032b3e)" style="fill: #0000ff"/>
   </g>
   <g id="patch_105">
    <path d="M 861.565303 123.382703 
L 969.491791 123.382703 
L 969.491791 115.20973 
L 861.565303 115.20973 
z
" clip-path="url(#pdd96032b3e)" style="fill: #0000ff"/>
   </g>
   <g id="patch_106">
    <path d="M 864.846851 123.382703 
L 982.982602 123.382703 
L 982.982602 115.20973 
L 864.846851 115.20973 
z
" clip-path="url(#pdd96032b3e)" style="fill: #0000ff"/>
   </g>
   <g id="patch_107">
    <path d="M 864.846851 123.382703 
L 982.982602 123.382703 
L 982.982602 115.20973 
L 864.846851 115.20973 
z
" clip-path="url(#pdd96032b3e)" style="fill: #0000ff"/>
   </g>
   <g id="patch_108">
    <path d="M 867.763783 123.382703 
L 969.856408 123.382703 
L 969.856408 115.20973 
L 867.763783 115.20973 
z
" clip-path="url(#pdd96032b3e)" style="fill: #0000ff"/>
   </g>
   <g id="patch_109">
    <path d="M 879.066895 123.382703 
L 965.48101 123.382703 
L 965.48101 115.20973 
L 879.066895 115.20973 
z
" clip-path="url(#pdd96032b3e)" style="fill: #0000ff"/>
   </g>
   <g id="patch_110">
    <path d="M 880.160745 123.382703 
L 985.899534 123.382703 
L 985.899534 115.20973 
L 880.160745 115.20973 
z
" clip-path="url(#pdd96032b3e)" style="fill: #0000ff"/>
   </g>
   <g id="patch_111">
    <path d="M 880.889978 123.382703 
L 973.502573 123.382703 
L 973.502573 115.20973 
L 880.889978 115.20973 
z
" clip-path="url(#pdd96032b3e)" style="fill: #0000ff"/>
   </g>
   <g id="patch_112">
    <path d="M 880.889978 123.382703 
L 965.116393 123.382703 
L 965.116393 115.20973 
L 880.889978 115.20973 
z
" clip-path="url(#pdd96032b3e)" style="fill: #0000ff"/>
   </g>
   <g id="patch_113">
    <path d="M 881.983827 123.382703 
L 965.116393 123.382703 
L 965.116393 115.20973 
L 881.983827 115.20973 
z
" clip-path="url(#pdd96032b3e)" style="fill: #0000ff"/>
   </g>
   <g id="patch_114">
    <path d="M 881.983827 123.382703 
L 973.137956 123.382703 
L 973.137956 115.20973 
L 881.983827 115.20973 
z
" clip-path="url(#pdd96032b3e)" style="fill: #0000ff"/>
   </g>
   <g id="patch_115">
    <path d="M 881.983827 123.382703 
L 965.116393 123.382703 
L 965.116393 115.20973 
L 881.983827 115.20973 
z
" clip-path="url(#pdd96032b3e)" style="fill: #0000ff"/>
   </g>
   <g id="patch_116">
    <path d="M 882.348444 123.382703 
L 965.48101 123.382703 
L 965.48101 115.20973 
L 882.348444 115.20973 
z
" clip-path="url(#pdd96032b3e)" style="fill: #0000ff"/>
   </g>
   <g id="patch_117">
    <path d="M 882.348444 123.382703 
L 947.979417 123.382703 
L 947.979417 115.20973 
L 882.348444 115.20973 
z
" clip-path="url(#pdd96032b3e)" style="fill: #0000ff"/>
   </g>
   <g id="patch_118">
    <path d="M 882.348444 123.382703 
L 965.116393 123.382703 
L 965.116393 115.20973 
L 882.348444 115.20973 
z
" clip-path="url(#pdd96032b3e)" style="fill: #0000ff"/>
   </g>
   <g id="patch_119">
    <path d="M 883.077677 123.382703 
L 973.867189 123.382703 
L 973.867189 115.20973 
L 883.077677 115.20973 
z
" clip-path="url(#pdd96032b3e)" style="fill: #0000ff"/>
   </g>
   <g id="patch_120">
    <path d="M 883.80691 123.382703 
L 971.314874 123.382703 
L 971.314874 115.20973 
L 883.80691 115.20973 
z
" clip-path="url(#pdd96032b3e)" style="fill: #0000ff"/>
   </g>
   <g id="patch_121">
    <path d="M 907.142367 123.382703 
L 951.625582 123.382703 
L 951.625582 115.20973 
L 907.142367 115.20973 
z
" clip-path="url(#pdd96032b3e)" style="fill: #0000ff"/>
   </g>
   <g id="patch_122">
    <path d="M 910.059299 123.382703 
L 954.542514 123.382703 
L 954.542514 115.20973 
L 910.059299 115.20973 
z
" clip-path="url(#pdd96032b3e)" style="fill: #0000ff"/>
   </g>
   <g id="patch_123">
    <path d="M 910.423916 123.382703 
L 966.574859 123.382703 
L 966.574859 115.20973 
L 910.423916 115.20973 
z
" clip-path="url(#pdd96032b3e)" style="fill: #0000ff"/>
   </g>
   <g id="patch_124">
    <path d="M 930.477824 123.382703 
L 947.979417 123.382703 
L 947.979417 115.20973 
L 930.477824 115.20973 
z
" clip-path="url(#pdd96032b3e)" style="fill: #0000ff"/>
   </g>
   <g id="patch_125">
    <path d="M 993.191865 119.602703 
L 994.285714 119.602703 
L 994.285714 118.98973 
L 993.191865 118.98973 
z
" clip-path="url(#pdd96032b3e)" style="fill: #0000ff"/>
   </g>
   <g id="patch_126">
    <path d="M 144 99.17027 
L 146.187699 99.17027 
L 146.187699 98.557297 
L 144 98.557297 
z
" clip-path="url(#pdd96032b3e)" style="fill: #0000ff"/>
   </g>
   <g id="patch_127">
    <path d="M 146.552316 102.95027 
L 182.284734 102.95027 
L 182.284734 94.777297 
L 146.552316 94.777297 
z
" clip-path="url(#pdd96032b3e)" style="fill: #0000ff"/>
   </g>
   <g id="patch_128">
    <path d="M 182.649351 99.17027 
L 185.930899 99.17027 
L 185.930899 98.557297 
L 182.649351 98.557297 
z
" clip-path="url(#pdd96032b3e)" style="fill: #0000ff"/>
   </g>
   <g id="patch_129">
    <path d="M 144 82.517838 
L 155.303112 82.517838 
L 155.303112 74.344865 
L 144 74.344865 
z
" clip-path="url(#pdd96032b3e)" style="fill: #0000ff"/>
   </g>
   <g id="patch_130">
    <path d="M 155.667728 78.737838 
L 173.169321 78.737838 
L 173.169321 78.124865 
L 155.667728 78.124865 
z
" clip-path="url(#pdd96032b3e)" style="fill: #0000ff"/>
   </g>
   <g id="patch_131">
    <path d="M 173.533938 82.517838 
L 180.826268 82.517838 
L 180.826268 74.344865 
L 173.533938 74.344865 
z
" clip-path="url(#pdd96032b3e)" style="fill: #0000ff"/>
   </g>
   <g id="patch_132">
    <path d="M 181.190885 78.737838 
L 202.338642 78.737838 
L 202.338642 78.124865 
L 181.190885 78.124865 
z
" clip-path="url(#pdd96032b3e)" style="fill: #0000ff"/>
   </g>
   <g id="patch_133">
    <path d="M 202.703259 82.517838 
L 275.261946 82.517838 
L 275.261946 74.344865 
L 202.703259 74.344865 
z
" clip-path="url(#pdd96032b3e)" style="fill: #0000ff"/>
   </g>
   <g id="patch_134">
    <path d="M 215.464837 82.517838 
L 284.377358 82.517838 
L 284.377358 74.344865 
L 215.464837 74.344865 
z
" clip-path="url(#pdd96032b3e)" style="fill: #0000ff"/>
   </g>
   <g id="patch_135">
    <path d="M 284.741975 78.737838 
L 297.138937 78.737838 
L 297.138937 78.124865 
L 284.741975 78.124865 
z
" clip-path="url(#pdd96032b3e)" style="fill: #0000ff"/>
   </g>
   <g id="patch_136">
    <path d="M 297.503553 82.517838 
L 356.206812 82.517838 
L 356.206812 74.344865 
L 297.503553 74.344865 
z
" clip-path="url(#pdd96032b3e)" style="fill: #0000ff"/>
   </g>
   <g id="patch_137">
    <path d="M 303.702034 82.517838 
L 368.96839 82.517838 
L 368.96839 74.344865 
L 303.702034 74.344865 
z
" clip-path="url(#pdd96032b3e)" style="fill: #0000ff"/>
   </g>
   <g id="patch_138">
    <path d="M 369.333007 78.737838 
L 413.086988 78.737838 
L 413.086988 78.124865 
L 369.333007 78.124865 
z
" clip-path="url(#pdd96032b3e)" style="fill: #0000ff"/>
   </g>
   <g id="patch_139">
    <path d="M 413.451605 82.517838 
L 463.768684 82.517838 
L 463.768684 74.344865 
L 413.451605 74.344865 
z
" clip-path="url(#pdd96032b3e)" style="fill: #0000ff"/>
   </g>
   <g id="patch_140">
    <path d="M 464.133301 78.737838 
L 620.553786 78.737838 
L 620.553786 78.124865 
L 464.133301 78.124865 
z
" clip-path="url(#pdd96032b3e)" style="fill: #0000ff"/>
   </g>
   <g id="patch_141">
    <path d="M 620.918402 82.517838 
L 657.380054 82.517838 
L 657.380054 74.344865 
L 620.918402 74.344865 
z
" clip-path="url(#pdd96032b3e)" style="fill: #0000ff"/>
   </g>
   <g id="patch_142">
    <path d="M 657.74467 78.737838 
L 744.888018 78.737838 
L 744.888018 78.124865 
L 657.74467 78.124865 
z
" clip-path="url(#pdd96032b3e)" style="fill: #0000ff"/>
   </g>
   <g id="patch_143">
    <path d="M 745.252634 82.517838 
L 802.497427 82.517838 
L 802.497427 74.344865 
L 745.252634 74.344865 
z
" clip-path="url(#pdd96032b3e)" style="fill: #0000ff"/>
   </g>
   <g id="patch_144">
    <path d="M 802.862044 78.737838 
L 811.61284 78.737838 
L 811.61284 78.124865 
L 802.862044 78.124865 
z
" clip-path="url(#pdd96032b3e)" style="fill: #0000ff"/>
   </g>
   <g id="patch_145">
    <path d="M 811.977457 82.517838 
L 978.971821 82.517838 
L 978.971821 74.344865 
L 811.977457 74.344865 
z
" clip-path="url(#pdd96032b3e)" style="fill: #0000ff"/>
   </g>
   <g id="patch_146">
    <path d="M 811.977457 82.517838 
L 978.971821 82.517838 
L 978.971821 74.344865 
L 811.977457 74.344865 
z
" clip-path="url(#pdd96032b3e)" style="fill: #0000ff"/>
   </g>
   <g id="patch_147">
    <path d="M 811.977457 82.517838 
L 978.971821 82.517838 
L 978.971821 74.344865 
L 811.977457 74.344865 
z
" clip-path="url(#pdd96032b3e)" style="fill: #0000ff"/>
   </g>
   <g id="patch_148">
    <path d="M 814.529772 82.517838 
L 977.513355 82.517838 
L 977.513355 74.344865 
L 814.529772 74.344865 
z
" clip-path="url(#pdd96032b3e)" style="fill: #0000ff"/>
   </g>
   <g id="patch_149">
    <path d="M 815.259005 82.517838 
L 978.971821 82.517838 
L 978.971821 74.344865 
L 815.259005 74.344865 
z
" clip-path="url(#pdd96032b3e)" style="fill: #0000ff"/>
   </g>
   <g id="patch_150">
    <path d="M 815.259005 82.517838 
L 978.607204 82.517838 
L 978.607204 74.344865 
L 815.259005 74.344865 
z
" clip-path="url(#pdd96032b3e)" style="fill: #0000ff"/>
   </g>
   <g id="patch_151">
    <path d="M 819.269787 82.517838 
L 974.961039 82.517838 
L 974.961039 74.344865 
L 819.269787 74.344865 
z
" clip-path="url(#pdd96032b3e)" style="fill: #0000ff"/>
   </g>
   <g id="patch_152">
    <path d="M 819.634403 82.517838 
L 972.044107 82.517838 
L 972.044107 74.344865 
L 819.634403 74.344865 
z
" clip-path="url(#pdd96032b3e)" style="fill: #0000ff"/>
   </g>
   <g id="patch_153">
    <path d="M 821.822102 82.517838 
L 968.762558 82.517838 
L 968.762558 74.344865 
L 821.822102 74.344865 
z
" clip-path="url(#pdd96032b3e)" style="fill: #0000ff"/>
   </g>
   <g id="patch_154">
    <path d="M 824.374418 82.517838 
L 979.336437 82.517838 
L 979.336437 74.344865 
L 824.374418 74.344865 
z
" clip-path="url(#pdd96032b3e)" style="fill: #0000ff"/>
   </g>
   <g id="patch_155">
    <path d="M 844.428326 82.517838 
L 972.77334 82.517838 
L 972.77334 74.344865 
L 844.428326 74.344865 
z
" clip-path="url(#pdd96032b3e)" style="fill: #0000ff"/>
   </g>
   <g id="patch_156">
    <path d="M 845.157559 82.517838 
L 951.990198 82.517838 
L 951.990198 74.344865 
L 845.157559 74.344865 
z
" clip-path="url(#pdd96032b3e)" style="fill: #0000ff"/>
   </g>
   <g id="patch_157">
    <path d="M 845.886792 82.517838 
L 978.607204 82.517838 
L 978.607204 74.344865 
L 845.886792 74.344865 
z
" clip-path="url(#pdd96032b3e)" style="fill: #0000ff"/>
   </g>
   <g id="patch_158">
    <path d="M 845.886792 82.517838 
L 978.607204 82.517838 
L 978.607204 74.344865 
L 845.886792 74.344865 
z
" clip-path="url(#pdd96032b3e)" style="fill: #0000ff"/>
   </g>
   <g id="patch_159">
    <path d="M 846.251409 82.517838 
L 971.67949 82.517838 
L 971.67949 74.344865 
L 846.251409 74.344865 
z
" clip-path="url(#pdd96032b3e)" style="fill: #0000ff"/>
   </g>
   <g id="patch_160">
    <path d="M 846.251409 82.517838 
L 972.408723 82.517838 
L 972.408723 74.344865 
L 846.251409 74.344865 
z
" clip-path="url(#pdd96032b3e)" style="fill: #0000ff"/>
   </g>
   <g id="patch_161">
    <path d="M 846.251409 82.517838 
L 969.491791 82.517838 
L 969.491791 74.344865 
L 846.251409 74.344865 
z
" clip-path="url(#pdd96032b3e)" style="fill: #0000ff"/>
   </g>
   <g id="patch_162">
    <path d="M 846.251409 82.517838 
L 978.971821 82.517838 
L 978.971821 74.344865 
L 846.251409 74.344865 
z
" clip-path="url(#pdd96032b3e)" style="fill: #0000ff"/>
   </g>
   <g id="patch_163">
    <path d="M 846.616025 82.517838 
L 976.784122 82.517838 
L 976.784122 74.344865 
L 846.616025 74.344865 
z
" clip-path="url(#pdd96032b3e)" style="fill: #0000ff"/>
   </g>
   <g id="patch_164">
    <path d="M 847.345259 82.517838 
L 978.971821 82.517838 
L 978.971821 74.344865 
L 847.345259 74.344865 
z
" clip-path="url(#pdd96032b3e)" style="fill: #0000ff"/>
   </g>
   <g id="patch_165">
    <path d="M 848.439108 82.517838 
L 975.325655 82.517838 
L 975.325655 74.344865 
L 848.439108 74.344865 
z
" clip-path="url(#pdd96032b3e)" style="fill: #0000ff"/>
   </g>
   <g id="patch_166">
    <path d="M 849.532958 82.517838 
L 968.762558 82.517838 
L 968.762558 74.344865 
L 849.532958 74.344865 
z
" clip-path="url(#pdd96032b3e)" style="fill: #0000ff"/>
   </g>
   <g id="patch_167">
    <path d="M 849.532958 82.517838 
L 970.585641 82.517838 
L 970.585641 74.344865 
L 849.532958 74.344865 
z
" clip-path="url(#pdd96032b3e)" style="fill: #0000ff"/>
   </g>
   <g id="patch_168">
    <path d="M 849.532958 82.517838 
L 971.314874 82.517838 
L 971.314874 74.344865 
L 849.532958 74.344865 
z
" clip-path="url(#pdd96032b3e)" style="fill: #0000ff"/>
   </g>
   <g id="patch_169">
    <path d="M 849.532958 82.517838 
L 974.961039 82.517838 
L 974.961039 74.344865 
L 849.532958 74.344865 
z
" clip-path="url(#pdd96032b3e)" style="fill: #0000ff"/>
   </g>
   <g id="patch_170">
    <path d="M 861.929919 82.517838 
L 951.990198 82.517838 
L 951.990198 74.344865 
L 861.929919 74.344865 
z
" clip-path="url(#pdd96032b3e)" style="fill: #0000ff"/>
   </g>
   <g id="patch_171">
    <path d="M 866.305317 82.517838 
L 969.127175 82.517838 
L 969.127175 74.344865 
L 866.305317 74.344865 
z
" clip-path="url(#pdd96032b3e)" style="fill: #0000ff"/>
   </g>
   <g id="patch_172">
    <path d="M 866.669934 82.517838 
L 960.011762 82.517838 
L 960.011762 74.344865 
L 866.669934 74.344865 
z
" clip-path="url(#pdd96032b3e)" style="fill: #0000ff"/>
   </g>
   <g id="patch_173">
    <path d="M 867.399167 82.517838 
L 969.856408 82.517838 
L 969.856408 74.344865 
L 867.399167 74.344865 
z
" clip-path="url(#pdd96032b3e)" style="fill: #0000ff"/>
   </g>
   <g id="patch_174">
    <path d="M 867.399167 82.517838 
L 960.376378 82.517838 
L 960.376378 74.344865 
L 867.399167 74.344865 
z
" clip-path="url(#pdd96032b3e)" style="fill: #0000ff"/>
   </g>
   <g id="patch_175">
    <path d="M 867.399167 82.517838 
L 951.625582 82.517838 
L 951.625582 74.344865 
L 867.399167 74.344865 
z
" clip-path="url(#pdd96032b3e)" style="fill: #0000ff"/>
   </g>
   <g id="patch_176">
    <path d="M 867.399167 82.517838 
L 951.990198 82.517838 
L 951.990198 74.344865 
L 867.399167 74.344865 
z
" clip-path="url(#pdd96032b3e)" style="fill: #0000ff"/>
   </g>
   <g id="patch_177">
    <path d="M 869.222249 82.517838 
L 961.105611 82.517838 
L 961.105611 74.344865 
L 869.222249 74.344865 
z
" clip-path="url(#pdd96032b3e)" style="fill: #0000ff"/>
   </g>
   <g id="patch_178">
    <path d="M 869.222249 82.517838 
L 956.365597 82.517838 
L 956.365597 74.344865 
L 869.222249 74.344865 
z
" clip-path="url(#pdd96032b3e)" style="fill: #0000ff"/>
   </g>
   <g id="patch_179">
    <path d="M 877.608429 82.517838 
L 960.011762 82.517838 
L 960.011762 74.344865 
L 877.608429 74.344865 
z
" clip-path="url(#pdd96032b3e)" style="fill: #0000ff"/>
   </g>
   <g id="patch_180">
    <path d="M 897.297721 82.517838 
L 951.625582 82.517838 
L 951.625582 74.344865 
L 897.297721 74.344865 
z
" clip-path="url(#pdd96032b3e)" style="fill: #0000ff"/>
   </g>
   <g id="patch_181">
    <path d="M 915.16393 82.517838 
L 935.582455 82.517838 
L 935.582455 74.344865 
L 915.16393 74.344865 
z
" clip-path="url(#pdd96032b3e)" style="fill: #0000ff"/>
   </g>
   <g id="patch_182">
    <path d="M 144 58.305405 
L 144 58.305405 
L 144 57.692432 
L 144 57.692432 
z
" clip-path="url(#pdd96032b3e)" style="fill: #0000ff"/>
   </g>
   <g id="patch_183">
    <path d="M 144.364617 62.085405 
L 168.793923 62.085405 
L 168.793923 53.912432 
L 144.364617 53.912432 
z
" clip-path="url(#pdd96032b3e)" style="fill: #0000ff"/>
   </g>
   <g id="patch_184">
    <path d="M 169.15854 58.305405 
L 177.180103 58.305405 
L 177.180103 57.692432 
L 169.15854 57.692432 
z
" clip-path="url(#pdd96032b3e)" style="fill: #0000ff"/>
   </g>
   <g id="patch_185">
    <path d="M 177.544719 62.085405 
L 253.020338 62.085405 
L 253.020338 53.912432 
L 177.544719 53.912432 
z
" clip-path="url(#pdd96032b3e)" style="fill: #0000ff"/>
   </g>
   <g id="patch_186">
    <path d="M 189.212448 62.085405 
L 263.594217 62.085405 
L 263.594217 53.912432 
L 189.212448 53.912432 
z
" clip-path="url(#pdd96032b3e)" style="fill: #0000ff"/>
   </g>
   <g id="patch_187">
    <path d="M 263.958834 58.305405 
L 274.532713 58.305405 
L 274.532713 57.692432 
L 263.958834 57.692432 
z
" clip-path="url(#pdd96032b3e)" style="fill: #0000ff"/>
   </g>
   <g id="patch_188">
    <path d="M 274.897329 62.085405 
L 335.059054 62.085405 
L 335.059054 53.912432 
L 274.897329 53.912432 
z
" clip-path="url(#pdd96032b3e)" style="fill: #0000ff"/>
   </g>
   <g id="patch_189">
    <path d="M 288.752757 62.085405 
L 347.456016 62.085405 
L 347.456016 53.912432 
L 288.752757 53.912432 
z
" clip-path="url(#pdd96032b3e)" style="fill: #0000ff"/>
   </g>
   <g id="patch_190">
    <path d="M 295.315854 62.085405 
L 346.726783 62.085405 
L 346.726783 53.912432 
L 295.315854 53.912432 
z
" clip-path="url(#pdd96032b3e)" style="fill: #0000ff"/>
   </g>
   <g id="patch_191">
    <path d="M 347.820632 58.305405 
L 368.239157 58.305405 
L 368.239157 57.692432 
L 347.820632 57.692432 
z
" clip-path="url(#pdd96032b3e)" style="fill: #0000ff"/>
   </g>
   <g id="patch_192">
    <path d="M 368.603774 62.085405 
L 424.025484 62.085405 
L 424.025484 53.912432 
L 368.603774 53.912432 
z
" clip-path="url(#pdd96032b3e)" style="fill: #0000ff"/>
   </g>
   <g id="patch_193">
    <path d="M 375.896104 62.085405 
L 444.444009 62.085405 
L 444.444009 53.912432 
L 375.896104 53.912432 
z
" clip-path="url(#pdd96032b3e)" style="fill: #0000ff"/>
   </g>
   <g id="patch_194">
    <path d="M 444.808625 58.305405 
L 461.580985 58.305405 
L 461.580985 57.692432 
L 444.808625 57.692432 
z
" clip-path="url(#pdd96032b3e)" style="fill: #0000ff"/>
   </g>
   <g id="patch_195">
    <path d="M 461.945602 62.085405 
L 507.522666 62.085405 
L 507.522666 53.912432 
L 461.945602 53.912432 
z
" clip-path="url(#pdd96032b3e)" style="fill: #0000ff"/>
   </g>
   <g id="patch_196">
    <path d="M 507.887283 62.085405 
L 542.890468 62.085405 
L 542.890468 53.912432 
L 507.887283 53.912432 
z
" clip-path="url(#pdd96032b3e)" style="fill: #0000ff"/>
   </g>
   <g id="patch_197">
    <path d="M 543.255085 58.305405 
L 585.5506 58.305405 
L 585.5506 57.692432 
L 543.255085 57.692432 
z
" clip-path="url(#pdd96032b3e)" style="fill: #0000ff"/>
   </g>
   <g id="patch_198">
    <path d="M 585.915217 62.085405 
L 606.698358 62.085405 
L 606.698358 53.912432 
L 585.915217 53.912432 
z
" clip-path="url(#pdd96032b3e)" style="fill: #0000ff"/>
   </g>
   <g id="patch_199">
    <path d="M 586.279833 62.085405 
L 621.283019 62.085405 
L 621.283019 53.912432 
L 586.279833 53.912432 
z
" clip-path="url(#pdd96032b3e)" style="fill: #0000ff"/>
   </g>
   <g id="patch_200">
    <path d="M 621.647635 58.305405 
L 658.473903 58.305405 
L 658.473903 57.692432 
L 621.647635 57.692432 
z
" clip-path="url(#pdd96032b3e)" style="fill: #0000ff"/>
   </g>
   <g id="patch_201">
    <path d="M 658.83852 62.085405 
L 676.704729 62.085405 
L 676.704729 53.912432 
L 658.83852 53.912432 
z
" clip-path="url(#pdd96032b3e)" style="fill: #0000ff"/>
   </g>
   <g id="patch_202">
    <path d="M 677.069346 58.305405 
L 695.664788 58.305405 
L 695.664788 57.692432 
L 677.069346 57.692432 
z
" clip-path="url(#pdd96032b3e)" style="fill: #0000ff"/>
   </g>
   <g id="patch_203">
    <path d="M 696.029405 62.085405 
L 756.19113 62.085405 
L 756.19113 53.912432 
L 696.029405 53.912432 
z
" clip-path="url(#pdd96032b3e)" style="fill: #0000ff"/>
   </g>
   <g id="patch_204">
    <path d="M 756.555746 58.305405 
L 766.035776 58.305405 
L 766.035776 57.692432 
L 756.555746 57.692432 
z
" clip-path="url(#pdd96032b3e)" style="fill: #0000ff"/>
   </g>
   <g id="patch_205">
    <path d="M 766.400392 62.085405 
L 930.113208 62.085405 
L 930.113208 53.912432 
L 766.400392 53.912432 
z
" clip-path="url(#pdd96032b3e)" style="fill: #0000ff"/>
   </g>
   <g id="patch_206">
    <path d="M 767.858858 62.085405 
L 930.113208 62.085405 
L 930.113208 53.912432 
L 767.858858 53.912432 
z
" clip-path="url(#pdd96032b3e)" style="fill: #0000ff"/>
   </g>
   <g id="patch_207">
    <path d="M 767.858858 62.085405 
L 928.654741 62.085405 
L 928.654741 53.912432 
L 767.858858 53.912432 
z
" clip-path="url(#pdd96032b3e)" style="fill: #0000ff"/>
   </g>
   <g id="patch_208">
    <path d="M 767.858858 62.085405 
L 930.113208 62.085405 
L 930.113208 53.912432 
L 767.858858 53.912432 
z
" clip-path="url(#pdd96032b3e)" style="fill: #0000ff"/>
   </g>
   <g id="patch_209">
    <path d="M 767.858858 62.085405 
L 930.113208 62.085405 
L 930.113208 53.912432 
L 767.858858 53.912432 
z
" clip-path="url(#pdd96032b3e)" style="fill: #0000ff"/>
   </g>
   <g id="patch_210">
    <path d="M 768.588091 62.085405 
L 929.748591 62.085405 
L 929.748591 53.912432 
L 768.588091 53.912432 
z
" clip-path="url(#pdd96032b3e)" style="fill: #0000ff"/>
   </g>
   <g id="patch_211">
    <path d="M 771.86964 62.085405 
L 928.654741 62.085405 
L 928.654741 53.912432 
L 771.86964 53.912432 
z
" clip-path="url(#pdd96032b3e)" style="fill: #0000ff"/>
   </g>
   <g id="patch_212">
    <path d="M 772.234256 62.085405 
L 921.727028 62.085405 
L 921.727028 53.912432 
L 772.234256 53.912432 
z
" clip-path="url(#pdd96032b3e)" style="fill: #0000ff"/>
   </g>
   <g id="patch_213">
    <path d="M 773.692722 62.085405 
L 920.997795 62.085405 
L 920.997795 53.912432 
L 773.692722 53.912432 
z
" clip-path="url(#pdd96032b3e)" style="fill: #0000ff"/>
   </g>
   <g id="patch_214">
    <path d="M 796.663563 62.085405 
L 918.810096 62.085405 
L 918.810096 53.912432 
L 796.663563 53.912432 
z
" clip-path="url(#pdd96032b3e)" style="fill: #0000ff"/>
   </g>
   <g id="patch_215">
    <path d="M 796.663563 62.085405 
L 929.019358 62.085405 
L 929.019358 53.912432 
L 796.663563 53.912432 
z
" clip-path="url(#pdd96032b3e)" style="fill: #0000ff"/>
   </g>
   <g id="patch_216">
    <path d="M 797.757412 62.085405 
L 918.810096 62.085405 
L 918.810096 53.912432 
L 797.757412 53.912432 
z
" clip-path="url(#pdd96032b3e)" style="fill: #0000ff"/>
   </g>
   <g id="patch_217">
    <path d="M 797.757412 62.085405 
L 926.467042 62.085405 
L 926.467042 53.912432 
L 797.757412 53.912432 
z
" clip-path="url(#pdd96032b3e)" style="fill: #0000ff"/>
   </g>
   <g id="patch_218">
    <path d="M 798.486645 62.085405 
L 930.113208 62.085405 
L 930.113208 53.912432 
L 798.486645 53.912432 
z
" clip-path="url(#pdd96032b3e)" style="fill: #0000ff"/>
   </g>
   <g id="patch_219">
    <path d="M 798.486645 62.085405 
L 929.383975 62.085405 
L 929.383975 53.912432 
L 798.486645 53.912432 
z
" clip-path="url(#pdd96032b3e)" style="fill: #0000ff"/>
   </g>
   <g id="patch_220">
    <path d="M 798.851262 62.085405 
L 927.925508 62.085405 
L 927.925508 53.912432 
L 798.851262 53.912432 
z
" clip-path="url(#pdd96032b3e)" style="fill: #0000ff"/>
   </g>
   <g id="patch_221">
    <path d="M 798.851262 62.085405 
L 930.113208 62.085405 
L 930.113208 53.912432 
L 798.851262 53.912432 
z
" clip-path="url(#pdd96032b3e)" style="fill: #0000ff"/>
   </g>
   <g id="patch_222">
    <path d="M 799.215878 62.085405 
L 921.362411 62.085405 
L 921.362411 53.912432 
L 799.215878 53.912432 
z
" clip-path="url(#pdd96032b3e)" style="fill: #0000ff"/>
   </g>
   <g id="patch_223">
    <path d="M 799.215878 62.085405 
L 928.654741 62.085405 
L 928.654741 53.912432 
L 799.215878 53.912432 
z
" clip-path="url(#pdd96032b3e)" style="fill: #0000ff"/>
   </g>
   <g id="patch_224">
    <path d="M 799.945111 62.085405 
L 930.113208 62.085405 
L 930.113208 53.912432 
L 799.945111 53.912432 
z
" clip-path="url(#pdd96032b3e)" style="fill: #0000ff"/>
   </g>
   <g id="patch_225">
    <path d="M 801.038961 62.085405 
L 926.831659 62.085405 
L 926.831659 53.912432 
L 801.038961 53.912432 
z
" clip-path="url(#pdd96032b3e)" style="fill: #0000ff"/>
   </g>
   <g id="patch_226">
    <path d="M 801.768194 62.085405 
L 929.748591 62.085405 
L 929.748591 53.912432 
L 801.768194 53.912432 
z
" clip-path="url(#pdd96032b3e)" style="fill: #0000ff"/>
   </g>
   <g id="patch_227">
    <path d="M 802.497427 62.085405 
L 921.727028 62.085405 
L 921.727028 53.912432 
L 802.497427 53.912432 
z
" clip-path="url(#pdd96032b3e)" style="fill: #0000ff"/>
   </g>
   <g id="patch_228">
    <path d="M 802.497427 62.085405 
L 918.445479 62.085405 
L 918.445479 53.912432 
L 802.497427 53.912432 
z
" clip-path="url(#pdd96032b3e)" style="fill: #0000ff"/>
   </g>
   <g id="patch_229">
    <path d="M 802.497427 62.085405 
L 926.467042 62.085405 
L 926.467042 53.912432 
L 802.497427 53.912432 
z
" clip-path="url(#pdd96032b3e)" style="fill: #0000ff"/>
   </g>
   <g id="patch_230">
    <path d="M 813.800539 62.085405 
L 909.330066 62.085405 
L 909.330066 53.912432 
L 813.800539 53.912432 
z
" clip-path="url(#pdd96032b3e)" style="fill: #0000ff"/>
   </g>
   <g id="patch_231">
    <path d="M 816.352855 62.085405 
L 901.308503 62.085405 
L 901.308503 53.912432 
L 816.352855 53.912432 
z
" clip-path="url(#pdd96032b3e)" style="fill: #0000ff"/>
   </g>
   <g id="patch_232">
    <path d="M 818.175937 62.085405 
L 919.539329 62.085405 
L 919.539329 53.912432 
L 818.175937 53.912432 
z
" clip-path="url(#pdd96032b3e)" style="fill: #0000ff"/>
   </g>
   <g id="patch_233">
    <path d="M 818.90517 62.085405 
L 921.362411 62.085405 
L 921.362411 53.912432 
L 818.90517 53.912432 
z
" clip-path="url(#pdd96032b3e)" style="fill: #0000ff"/>
   </g>
   <g id="patch_234">
    <path d="M 819.634403 62.085405 
L 885.629993 62.085405 
L 885.629993 53.912432 
L 819.634403 53.912432 
z
" clip-path="url(#pdd96032b3e)" style="fill: #0000ff"/>
   </g>
   <g id="patch_235">
    <path d="M 819.634403 62.085405 
L 921.362411 62.085405 
L 921.362411 53.912432 
L 819.634403 53.912432 
z
" clip-path="url(#pdd96032b3e)" style="fill: #0000ff"/>
   </g>
   <g id="patch_236">
    <path d="M 819.634403 62.085405 
L 920.997795 62.085405 
L 920.997795 53.912432 
L 819.634403 53.912432 
z
" clip-path="url(#pdd96032b3e)" style="fill: #0000ff"/>
   </g>
   <g id="patch_237">
    <path d="M 819.99902 62.085405 
L 918.810096 62.085405 
L 918.810096 53.912432 
L 819.99902 53.912432 
z
" clip-path="url(#pdd96032b3e)" style="fill: #0000ff"/>
   </g>
   <g id="patch_238">
    <path d="M 819.99902 62.085405 
L 921.362411 62.085405 
L 921.362411 53.912432 
L 819.99902 53.912432 
z
" clip-path="url(#pdd96032b3e)" style="fill: #0000ff"/>
   </g>
   <g id="patch_239">
    <path d="M 819.99902 62.085405 
L 900.57927 62.085405 
L 900.57927 53.912432 
L 819.99902 53.912432 
z
" clip-path="url(#pdd96032b3e)" style="fill: #0000ff"/>
   </g>
   <g id="patch_240">
    <path d="M 822.551335 62.085405 
L 896.933105 62.085405 
L 896.933105 53.912432 
L 822.551335 53.912432 
z
" clip-path="url(#pdd96032b3e)" style="fill: #0000ff"/>
   </g>
   <g id="patch_241">
    <path d="M 846.251409 62.085405 
L 883.80691 62.085405 
L 883.80691 53.912432 
L 846.251409 53.912432 
z
" clip-path="url(#pdd96032b3e)" style="fill: #0000ff"/>
   </g>
   <g id="patch_242">
    <path d="M 847.709875 62.085405 
L 899.850037 62.085405 
L 899.850037 53.912432 
L 847.709875 53.912432 
z
" clip-path="url(#pdd96032b3e)" style="fill: #0000ff"/>
   </g>
   <g id="patch_243">
    <path d="M 144 41.652973 
L 216.923303 41.652973 
L 216.923303 33.48 
L 144 33.48 
z
" clip-path="url(#pdd96032b3e)" style="fill: #0000ff"/>
   </g>
   <g id="patch_244">
    <path d="M 217.28792 41.652973 
L 247.55109 41.652973 
L 247.55109 33.48 
L 217.28792 33.48 
z
" clip-path="url(#pdd96032b3e)" style="fill: #0000ff"/>
   </g>
   <g id="patch_245">
    <path d="M 247.915707 37.872973 
L 256.666503 37.872973 
L 256.666503 37.26 
L 247.915707 37.26 
z
" clip-path="url(#pdd96032b3e)" style="fill: #0000ff"/>
   </g>
   <g id="patch_246">
    <path d="M 257.03112 41.652973 
L 316.828228 41.652973 
L 316.828228 33.48 
L 257.03112 33.48 
z
" clip-path="url(#pdd96032b3e)" style="fill: #0000ff"/>
   </g>
   <g id="patch_247">
    <path d="M 271.251164 41.652973 
L 325.214408 41.652973 
L 325.214408 33.48 
L 271.251164 33.48 
z
" clip-path="url(#pdd96032b3e)" style="fill: #0000ff"/>
   </g>
   <g id="patch_248">
    <path d="M 325.579025 37.872973 
L 338.340603 37.872973 
L 338.340603 37.26 
L 325.579025 37.26 
z
" clip-path="url(#pdd96032b3e)" style="fill: #0000ff"/>
   </g>
   <g id="patch_249">
    <path d="M 338.705219 41.652973 
L 395.585396 41.652973 
L 395.585396 33.48 
L 338.705219 33.48 
z
" clip-path="url(#pdd96032b3e)" style="fill: #0000ff"/>
   </g>
   <g id="patch_250">
    <path d="M 352.19603 41.652973 
L 406.888508 41.652973 
L 406.888508 33.48 
L 352.19603 33.48 
z
" clip-path="url(#pdd96032b3e)" style="fill: #0000ff"/>
   </g>
   <g id="patch_251">
    <path d="M 407.253124 41.652973 
L 461.216369 41.652973 
L 461.216369 33.48 
L 407.253124 33.48 
z
" clip-path="url(#pdd96032b3e)" style="fill: #0000ff"/>
   </g>
   <g id="patch_252">
    <path d="M 419.285469 41.652973 
L 477.624112 41.652973 
L 477.624112 33.48 
L 419.285469 33.48 
z
" clip-path="url(#pdd96032b3e)" style="fill: #0000ff"/>
   </g>
   <g id="patch_253">
    <path d="M 477.988728 37.872973 
L 585.5506 37.872973 
L 585.5506 37.26 
L 477.988728 37.26 
z
" clip-path="url(#pdd96032b3e)" style="fill: #0000ff"/>
   </g>
   <g id="patch_254">
    <path d="M 585.915217 41.652973 
L 622.741485 41.652973 
L 622.741485 33.48 
L 585.915217 33.48 
z
" clip-path="url(#pdd96032b3e)" style="fill: #0000ff"/>
   </g>
   <g id="patch_255">
    <path d="M 623.106101 37.872973 
L 745.617251 37.872973 
L 745.617251 37.26 
L 623.106101 37.26 
z
" clip-path="url(#pdd96032b3e)" style="fill: #0000ff"/>
   </g>
   <g id="patch_256">
    <path d="M 745.981867 41.652973 
L 813.071306 41.652973 
L 813.071306 33.48 
L 745.981867 33.48 
z
" clip-path="url(#pdd96032b3e)" style="fill: #0000ff"/>
   </g>
   <g id="patch_257">
    <path d="M 813.435923 37.872973 
L 822.551335 37.872973 
L 822.551335 37.26 
L 813.435923 37.26 
z
" clip-path="url(#pdd96032b3e)" style="fill: #0000ff"/>
   </g>
   <g id="patch_258">
    <path d="M 822.915952 41.652973 
L 991.733399 41.652973 
L 991.733399 33.48 
L 822.915952 33.48 
z
" clip-path="url(#pdd96032b3e)" style="fill: #0000ff"/>
   </g>
   <g id="patch_259">
    <path d="M 825.468268 41.652973 
L 992.098015 41.652973 
L 992.098015 33.48 
L 825.468268 33.48 
z
" clip-path="url(#pdd96032b3e)" style="fill: #0000ff"/>
   </g>
   <g id="patch_260">
    <path d="M 826.562117 41.652973 
L 991.733399 41.652973 
L 991.733399 33.48 
L 826.562117 33.48 
z
" clip-path="url(#pdd96032b3e)" style="fill: #0000ff"/>
   </g>
   <g id="patch_261">
    <path d="M 826.926734 41.652973 
L 991.004166 41.652973 
L 991.004166 33.48 
L 826.926734 33.48 
z
" clip-path="url(#pdd96032b3e)" style="fill: #0000ff"/>
   </g>
   <g id="patch_262">
    <path d="M 827.29135 41.652973 
L 991.733399 41.652973 
L 991.733399 33.48 
L 827.29135 33.48 
z
" clip-path="url(#pdd96032b3e)" style="fill: #0000ff"/>
   </g>
   <g id="patch_263">
    <path d="M 827.29135 41.652973 
L 992.462632 41.652973 
L 992.462632 33.48 
L 827.29135 33.48 
z
" clip-path="url(#pdd96032b3e)" style="fill: #0000ff"/>
   </g>
   <g id="patch_264">
    <path d="M 830.937515 41.652973 
L 985.170301 41.652973 
L 985.170301 33.48 
L 830.937515 33.48 
z
" clip-path="url(#pdd96032b3e)" style="fill: #0000ff"/>
   </g>
   <g id="patch_265">
    <path d="M 830.937515 41.652973 
L 982.982602 41.652973 
L 982.982602 33.48 
L 830.937515 33.48 
z
" clip-path="url(#pdd96032b3e)" style="fill: #0000ff"/>
   </g>
   <g id="patch_266">
    <path d="M 832.031365 41.652973 
L 985.899534 41.652973 
L 985.899534 33.48 
L 832.031365 33.48 
z
" clip-path="url(#pdd96032b3e)" style="fill: #0000ff"/>
   </g>
   <g id="patch_267">
    <path d="M 857.189904 41.652973 
L 985.534918 41.652973 
L 985.534918 33.48 
L 857.189904 33.48 
z
" clip-path="url(#pdd96032b3e)" style="fill: #0000ff"/>
   </g>
   <g id="patch_268">
    <path d="M 857.189904 41.652973 
L 986.993384 41.652973 
L 986.993384 33.48 
L 857.189904 33.48 
z
" clip-path="url(#pdd96032b3e)" style="fill: #0000ff"/>
   </g>
   <g id="patch_269">
    <path d="M 858.283754 41.652973 
L 991.004166 41.652973 
L 991.004166 33.48 
L 858.283754 33.48 
z
" clip-path="url(#pdd96032b3e)" style="fill: #0000ff"/>
   </g>
   <g id="patch_270">
    <path d="M 858.283754 41.652973 
L 967.668709 41.652973 
L 967.668709 33.48 
L 858.283754 33.48 
z
" clip-path="url(#pdd96032b3e)" style="fill: #0000ff"/>
   </g>
   <g id="patch_271">
    <path d="M 859.012987 41.652973 
L 991.733399 41.652973 
L 991.733399 33.48 
L 859.012987 33.48 
z
" clip-path="url(#pdd96032b3e)" style="fill: #0000ff"/>
   </g>
   <g id="patch_272">
    <path d="M 859.012987 41.652973 
L 992.462632 41.652973 
L 992.462632 33.48 
L 859.012987 33.48 
z
" clip-path="url(#pdd96032b3e)" style="fill: #0000ff"/>
   </g>
   <g id="patch_273">
    <path d="M 859.377604 41.652973 
L 985.534918 41.652973 
L 985.534918 33.48 
L 859.377604 33.48 
z
" clip-path="url(#pdd96032b3e)" style="fill: #0000ff"/>
   </g>
   <g id="patch_274">
    <path d="M 859.377604 41.652973 
L 985.170301 41.652973 
L 985.170301 33.48 
L 859.377604 33.48 
z
" clip-path="url(#pdd96032b3e)" style="fill: #0000ff"/>
   </g>
   <g id="patch_275">
    <path d="M 859.377604 41.652973 
L 983.347219 41.652973 
L 983.347219 33.48 
L 859.377604 33.48 
z
" clip-path="url(#pdd96032b3e)" style="fill: #0000ff"/>
   </g>
   <g id="patch_276">
    <path d="M 859.377604 41.652973 
L 991.004166 41.652973 
L 991.004166 33.48 
L 859.377604 33.48 
z
" clip-path="url(#pdd96032b3e)" style="fill: #0000ff"/>
   </g>
   <g id="patch_277">
    <path d="M 859.377604 41.652973 
L 988.816467 41.652973 
L 988.816467 33.48 
L 859.377604 33.48 
z
" clip-path="url(#pdd96032b3e)" style="fill: #0000ff"/>
   </g>
   <g id="patch_278">
    <path d="M 859.377604 41.652973 
L 991.733399 41.652973 
L 991.733399 33.48 
L 859.377604 33.48 
z
" clip-path="url(#pdd96032b3e)" style="fill: #0000ff"/>
   </g>
   <g id="patch_279">
    <path d="M 861.200686 41.652973 
L 969.127175 41.652973 
L 969.127175 33.48 
L 861.200686 33.48 
z
" clip-path="url(#pdd96032b3e)" style="fill: #0000ff"/>
   </g>
   <g id="patch_280">
    <path d="M 864.482235 41.652973 
L 982.617986 41.652973 
L 982.617986 33.48 
L 864.482235 33.48 
z
" clip-path="url(#pdd96032b3e)" style="fill: #0000ff"/>
   </g>
   <g id="patch_281">
    <path d="M 864.482235 41.652973 
L 964.022543 41.652973 
L 964.022543 33.48 
L 864.482235 33.48 
z
" clip-path="url(#pdd96032b3e)" style="fill: #0000ff"/>
   </g>
   <g id="patch_282">
    <path d="M 868.1284 41.652973 
L 969.491791 41.652973 
L 969.491791 33.48 
L 868.1284 33.48 
z
" clip-path="url(#pdd96032b3e)" style="fill: #0000ff"/>
   </g>
   <g id="patch_283">
    <path d="M 879.796128 41.652973 
L 985.534918 41.652973 
L 985.534918 33.48 
L 879.796128 33.48 
z
" clip-path="url(#pdd96032b3e)" style="fill: #0000ff"/>
   </g>
   <g id="patch_284">
    <path d="M 879.796128 41.652973 
L 965.845626 41.652973 
L 965.845626 33.48 
L 879.796128 33.48 
z
" clip-path="url(#pdd96032b3e)" style="fill: #0000ff"/>
   </g>
   <g id="patch_285">
    <path d="M 880.160745 41.652973 
L 973.137956 41.652973 
L 973.137956 33.48 
L 880.160745 33.48 
z
" clip-path="url(#pdd96032b3e)" style="fill: #0000ff"/>
   </g>
   <g id="patch_286">
    <path d="M 880.160745 41.652973 
L 964.751777 41.652973 
L 964.751777 33.48 
L 880.160745 33.48 
z
" clip-path="url(#pdd96032b3e)" style="fill: #0000ff"/>
   </g>
   <g id="patch_287">
    <path d="M 881.619211 41.652973 
L 964.751777 41.652973 
L 964.751777 33.48 
L 881.619211 33.48 
z
" clip-path="url(#pdd96032b3e)" style="fill: #0000ff"/>
   </g>
   <g id="patch_288">
    <path d="M 881.619211 41.652973 
L 972.77334 41.652973 
L 972.77334 33.48 
L 881.619211 33.48 
z
" clip-path="url(#pdd96032b3e)" style="fill: #0000ff"/>
   </g>
   <g id="patch_289">
    <path d="M 881.619211 41.652973 
L 964.751777 41.652973 
L 964.751777 33.48 
L 881.619211 33.48 
z
" clip-path="url(#pdd96032b3e)" style="fill: #0000ff"/>
   </g>
   <g id="patch_290">
    <path d="M 881.983827 41.652973 
L 965.845626 41.652973 
L 965.845626 33.48 
L 881.983827 33.48 
z
" clip-path="url(#pdd96032b3e)" style="fill: #0000ff"/>
   </g>
   <g id="patch_291">
    <path d="M 881.983827 41.652973 
L 947.6148 41.652973 
L 947.6148 33.48 
L 881.983827 33.48 
z
" clip-path="url(#pdd96032b3e)" style="fill: #0000ff"/>
   </g>
   <g id="patch_292">
    <path d="M 881.983827 41.652973 
L 964.751777 41.652973 
L 964.751777 33.48 
L 881.983827 33.48 
z
" clip-path="url(#pdd96032b3e)" style="fill: #0000ff"/>
   </g>
   <g id="patch_293">
    <path d="M 882.713061 41.652973 
L 973.502573 41.652973 
L 973.502573 33.48 
L 882.713061 33.48 
z
" clip-path="url(#pdd96032b3e)" style="fill: #0000ff"/>
   </g>
   <g id="patch_294">
    <path d="M 883.442294 41.652973 
L 970.950257 41.652973 
L 970.950257 33.48 
L 883.442294 33.48 
z
" clip-path="url(#pdd96032b3e)" style="fill: #0000ff"/>
   </g>
   <g id="patch_295">
    <path d="M 906.777751 41.652973 
L 951.260965 41.652973 
L 951.260965 33.48 
L 906.777751 33.48 
z
" clip-path="url(#pdd96032b3e)" style="fill: #0000ff"/>
   </g>
   <g id="patch_296">
    <path d="M 910.059299 41.652973 
L 964.751777 41.652973 
L 964.751777 33.48 
L 910.059299 33.48 
z
" clip-path="url(#pdd96032b3e)" style="fill: #0000ff"/>
   </g>
   <g id="patch_297">
    <path d="M 910.059299 41.652973 
L 966.210243 41.652973 
L 966.210243 33.48 
L 910.059299 33.48 
z
" clip-path="url(#pdd96032b3e)" style="fill: #0000ff"/>
   </g>
   <g id="patch_298">
    <path d="M 930.113208 41.652973 
L 947.6148 41.652973 
L 947.6148 33.48 
L 930.113208 33.48 
z
" clip-path="url(#pdd96032b3e)" style="fill: #0000ff"/>
   </g>
   <g id="patch_299">
    <path d="M 992.827248 37.872973 
L 993.921098 37.872973 
L 993.921098 37.26 
L 992.827248 37.26 
z
" clip-path="url(#pdd96032b3e)" style="fill: #0000ff"/>
   </g>
   <g id="matplotlib.axis_1">
    <g id="xtick_1">
     <g id="line2d_1">
      <defs>
       <path id="mc32ef0f08a" d="M 0 0 
L 0 3.5 
" style="stroke: #000000; stroke-width: 0.8"/>
      </defs>
      <g>
       <use xlink:href="#mc32ef0f08a" x="325.943641" y="192.24" style="stroke: #000000; stroke-width: 0.8"/>
      </g>
     </g>
     <g id="text_1">
      <!-- 500 -->
      <g transform="translate(316.399891 206.838437) scale(0.1 -0.1)">
       <defs>
        <path id="DejaVuSans-35" d="M 691 4666 
L 3169 4666 
L 3169 4134 
L 1269 4134 
L 1269 2991 
Q 1406 3038 1543 3061 
Q 1681 3084 1819 3084 
Q 2600 3084 3056 2656 
Q 3513 2228 3513 1497 
Q 3513 744 3044 326 
Q 2575 -91 1722 -91 
Q 1428 -91 1123 -41 
Q 819 9 494 109 
L 494 744 
Q 775 591 1075 516 
Q 1375 441 1709 441 
Q 2250 441 2565 725 
Q 2881 1009 2881 1497 
Q 2881 1984 2565 2268 
Q 2250 2553 1709 2553 
Q 1456 2553 1204 2497 
Q 953 2441 691 2322 
L 691 4666 
z
" transform="scale(0.015625)"/>
        <path id="DejaVuSans-30" d="M 2034 4250 
Q 1547 4250 1301 3770 
Q 1056 3291 1056 2328 
Q 1056 1369 1301 889 
Q 1547 409 2034 409 
Q 2525 409 2770 889 
Q 3016 1369 3016 2328 
Q 3016 3291 2770 3770 
Q 2525 4250 2034 4250 
z
M 2034 4750 
Q 2819 4750 3233 4129 
Q 3647 3509 3647 2328 
Q 3647 1150 3233 529 
Q 2819 -91 2034 -91 
Q 1250 -91 836 529 
Q 422 1150 422 2328 
Q 422 3509 836 4129 
Q 1250 4750 2034 4750 
z
" transform="scale(0.015625)"/>
       </defs>
       <use xlink:href="#DejaVuSans-35"/>
       <use xlink:href="#DejaVuSans-30" x="63.623047"/>
       <use xlink:href="#DejaVuSans-30" x="127.246094"/>
      </g>
     </g>
    </g>
    <g id="xtick_2">
     <g id="line2d_2">
      <g>
       <use xlink:href="#mc32ef0f08a" x="508.251899" y="192.24" style="stroke: #000000; stroke-width: 0.8"/>
      </g>
     </g>
     <g id="text_2">
      <!-- 1000 -->
      <g transform="translate(495.526899 206.838437) scale(0.1 -0.1)">
       <defs>
        <path id="DejaVuSans-31" d="M 794 531 
L 1825 531 
L 1825 4091 
L 703 3866 
L 703 4441 
L 1819 4666 
L 2450 4666 
L 2450 531 
L 3481 531 
L 3481 0 
L 794 0 
L 794 531 
z
" transform="scale(0.015625)"/>
       </defs>
       <use xlink:href="#DejaVuSans-31"/>
       <use xlink:href="#DejaVuSans-30" x="63.623047"/>
       <use xlink:href="#DejaVuSans-30" x="127.246094"/>
       <use xlink:href="#DejaVuSans-30" x="190.869141"/>
      </g>
     </g>
    </g>
    <g id="xtick_3">
     <g id="line2d_3">
      <g>
       <use xlink:href="#mc32ef0f08a" x="690.560157" y="192.24" style="stroke: #000000; stroke-width: 0.8"/>
      </g>
     </g>
     <g id="text_3">
      <!-- 1500 -->
      <g transform="translate(677.835157 206.838437) scale(0.1 -0.1)">
       <use xlink:href="#DejaVuSans-31"/>
       <use xlink:href="#DejaVuSans-35" x="63.623047"/>
       <use xlink:href="#DejaVuSans-30" x="127.246094"/>
       <use xlink:href="#DejaVuSans-30" x="190.869141"/>
      </g>
     </g>
    </g>
    <g id="xtick_4">
     <g id="line2d_4">
      <g>
       <use xlink:href="#mc32ef0f08a" x="872.868415" y="192.24" style="stroke: #000000; stroke-width: 0.8"/>
      </g>
     </g>
     <g id="text_4">
      <!-- 2000 -->
      <g transform="translate(860.143415 206.838437) scale(0.1 -0.1)">
       <defs>
        <path id="DejaVuSans-32" d="M 1228 531 
L 3431 531 
L 3431 0 
L 469 0 
L 469 531 
Q 828 903 1448 1529 
Q 2069 2156 2228 2338 
Q 2531 2678 2651 2914 
Q 2772 3150 2772 3378 
Q 2772 3750 2511 3984 
Q 2250 4219 1831 4219 
Q 1534 4219 1204 4116 
Q 875 4013 500 3803 
L 500 4441 
Q 881 4594 1212 4672 
Q 1544 4750 1819 4750 
Q 2544 4750 2975 4387 
Q 3406 4025 3406 3419 
Q 3406 3131 3298 2873 
Q 3191 2616 2906 2266 
Q 2828 2175 2409 1742 
Q 1991 1309 1228 531 
z
" transform="scale(0.015625)"/>
       </defs>
       <use xlink:href="#DejaVuSans-32"/>
       <use xlink:href="#DejaVuSans-30" x="63.623047"/>
       <use xlink:href="#DejaVuSans-30" x="127.246094"/>
       <use xlink:href="#DejaVuSans-30" x="190.869141"/>
      </g>
     </g>
    </g>
    <g id="text_5">
     <!-- Residual -->
     <g transform="translate(569.284375 220.516562) scale(0.1 -0.1)">
      <defs>
       <path id="DejaVuSans-52" d="M 2841 2188 
Q 3044 2119 3236 1894 
Q 3428 1669 3622 1275 
L 4263 0 
L 3584 0 
L 2988 1197 
Q 2756 1666 2539 1819 
Q 2322 1972 1947 1972 
L 1259 1972 
L 1259 0 
L 628 0 
L 628 4666 
L 2053 4666 
Q 2853 4666 3247 4331 
Q 3641 3997 3641 3322 
Q 3641 2881 3436 2590 
Q 3231 2300 2841 2188 
z
M 1259 4147 
L 1259 2491 
L 2053 2491 
Q 2509 2491 2742 2702 
Q 2975 2913 2975 3322 
Q 2975 3731 2742 3939 
Q 2509 4147 2053 4147 
L 1259 4147 
z
" transform="scale(0.015625)"/>
       <path id="DejaVuSans-65" d="M 3597 1894 
L 3597 1613 
L 953 1613 
Q 991 1019 1311 708 
Q 1631 397 2203 397 
Q 2534 397 2845 478 
Q 3156 559 3463 722 
L 3463 178 
Q 3153 47 2828 -22 
Q 2503 -91 2169 -91 
Q 1331 -91 842 396 
Q 353 884 353 1716 
Q 353 2575 817 3079 
Q 1281 3584 2069 3584 
Q 2775 3584 3186 3129 
Q 3597 2675 3597 1894 
z
M 3022 2063 
Q 3016 2534 2758 2815 
Q 2500 3097 2075 3097 
Q 1594 3097 1305 2825 
Q 1016 2553 972 2059 
L 3022 2063 
z
" transform="scale(0.015625)"/>
       <path id="DejaVuSans-73" d="M 2834 3397 
L 2834 2853 
Q 2591 2978 2328 3040 
Q 2066 3103 1784 3103 
Q 1356 3103 1142 2972 
Q 928 2841 928 2578 
Q 928 2378 1081 2264 
Q 1234 2150 1697 2047 
L 1894 2003 
Q 2506 1872 2764 1633 
Q 3022 1394 3022 966 
Q 3022 478 2636 193 
Q 2250 -91 1575 -91 
Q 1294 -91 989 -36 
Q 684 19 347 128 
L 347 722 
Q 666 556 975 473 
Q 1284 391 1588 391 
Q 1994 391 2212 530 
Q 2431 669 2431 922 
Q 2431 1156 2273 1281 
Q 2116 1406 1581 1522 
L 1381 1569 
Q 847 1681 609 1914 
Q 372 2147 372 2553 
Q 372 3047 722 3315 
Q 1072 3584 1716 3584 
Q 2034 3584 2315 3537 
Q 2597 3491 2834 3397 
z
" transform="scale(0.015625)"/>
       <path id="DejaVuSans-69" d="M 603 3500 
L 1178 3500 
L 1178 0 
L 603 0 
L 603 3500 
z
M 603 4863 
L 1178 4863 
L 1178 4134 
L 603 4134 
L 603 4863 
z
" transform="scale(0.015625)"/>
       <path id="DejaVuSans-64" d="M 2906 2969 
L 2906 4863 
L 3481 4863 
L 3481 0 
L 2906 0 
L 2906 525 
Q 2725 213 2448 61 
Q 2172 -91 1784 -91 
Q 1150 -91 751 415 
Q 353 922 353 1747 
Q 353 2572 751 3078 
Q 1150 3584 1784 3584 
Q 2172 3584 2448 3432 
Q 2725 3281 2906 2969 
z
M 947 1747 
Q 947 1113 1208 752 
Q 1469 391 1925 391 
Q 2381 391 2643 752 
Q 2906 1113 2906 1747 
Q 2906 2381 2643 2742 
Q 2381 3103 1925 3103 
Q 1469 3103 1208 2742 
Q 947 2381 947 1747 
z
" transform="scale(0.015625)"/>
       <path id="DejaVuSans-75" d="M 544 1381 
L 544 3500 
L 1119 3500 
L 1119 1403 
Q 1119 906 1312 657 
Q 1506 409 1894 409 
Q 2359 409 2629 706 
Q 2900 1003 2900 1516 
L 2900 3500 
L 3475 3500 
L 3475 0 
L 2900 0 
L 2900 538 
Q 2691 219 2414 64 
Q 2138 -91 1772 -91 
Q 1169 -91 856 284 
Q 544 659 544 1381 
z
M 1991 3584 
L 1991 3584 
z
" transform="scale(0.015625)"/>
       <path id="DejaVuSans-61" d="M 2194 1759 
Q 1497 1759 1228 1600 
Q 959 1441 959 1056 
Q 959 750 1161 570 
Q 1363 391 1709 391 
Q 2188 391 2477 730 
Q 2766 1069 2766 1631 
L 2766 1759 
L 2194 1759 
z
M 3341 1997 
L 3341 0 
L 2766 0 
L 2766 531 
Q 2569 213 2275 61 
Q 1981 -91 1556 -91 
Q 1019 -91 701 211 
Q 384 513 384 1019 
Q 384 1609 779 1909 
Q 1175 2209 1959 2209 
L 2766 2209 
L 2766 2266 
Q 2766 2663 2505 2880 
Q 2244 3097 1772 3097 
Q 1472 3097 1187 3025 
Q 903 2953 641 2809 
L 641 3341 
Q 956 3463 1253 3523 
Q 1550 3584 1831 3584 
Q 2591 3584 2966 3190 
Q 3341 2797 3341 1997 
z
" transform="scale(0.015625)"/>
       <path id="DejaVuSans-6c" d="M 603 4863 
L 1178 4863 
L 1178 0 
L 603 0 
L 603 4863 
z
" transform="scale(0.015625)"/>
      </defs>
      <use xlink:href="#DejaVuSans-52"/>
      <use xlink:href="#DejaVuSans-65" x="64.982422"/>
      <use xlink:href="#DejaVuSans-73" x="126.505859"/>
      <use xlink:href="#DejaVuSans-69" x="178.605469"/>
      <use xlink:href="#DejaVuSans-64" x="206.388672"/>
      <use xlink:href="#DejaVuSans-75" x="269.865234"/>
      <use xlink:href="#DejaVuSans-61" x="333.244141"/>
      <use xlink:href="#DejaVuSans-6c" x="394.523438"/>
     </g>
    </g>
   </g>
   <g id="matplotlib.axis_2">
    <g id="ytick_1">
     <g id="line2d_5">
      <defs>
       <path id="md7532ee191" d="M 0 0 
L -3.5 0 
" style="stroke: #000000; stroke-width: 0.8"/>
      </defs>
      <g>
       <use xlink:href="#md7532ee191" x="144" y="180.593514" style="stroke: #000000; stroke-width: 0.8"/>
      </g>
     </g>
     <g id="text_6">
      <!-- 1.A.85.1.1 -->
      <g transform="translate(85.809375 184.392732) scale(0.1 -0.1)">
       <defs>
        <path id="DejaVuSans-2e" d="M 684 794 
L 1344 794 
L 1344 0 
L 684 0 
L 684 794 
z
" transform="scale(0.015625)"/>
        <path id="DejaVuSans-41" d="M 2188 4044 
L 1331 1722 
L 3047 1722 
L 2188 4044 
z
M 1831 4666 
L 2547 4666 
L 4325 0 
L 3669 0 
L 3244 1197 
L 1141 1197 
L 716 0 
L 50 0 
L 1831 4666 
z
" transform="scale(0.015625)"/>
        <path id="DejaVuSans-38" d="M 2034 2216 
Q 1584 2216 1326 1975 
Q 1069 1734 1069 1313 
Q 1069 891 1326 650 
Q 1584 409 2034 409 
Q 2484 409 2743 651 
Q 3003 894 3003 1313 
Q 3003 1734 2745 1975 
Q 2488 2216 2034 2216 
z
M 1403 2484 
Q 997 2584 770 2862 
Q 544 3141 544 3541 
Q 544 4100 942 4425 
Q 1341 4750 2034 4750 
Q 2731 4750 3128 4425 
Q 3525 4100 3525 3541 
Q 3525 3141 3298 2862 
Q 3072 2584 2669 2484 
Q 3125 2378 3379 2068 
Q 3634 1759 3634 1313 
Q 3634 634 3220 271 
Q 2806 -91 2034 -91 
Q 1263 -91 848 271 
Q 434 634 434 1313 
Q 434 1759 690 2068 
Q 947 2378 1403 2484 
z
M 1172 3481 
Q 1172 3119 1398 2916 
Q 1625 2713 2034 2713 
Q 2441 2713 2670 2916 
Q 2900 3119 2900 3481 
Q 2900 3844 2670 4047 
Q 2441 4250 2034 4250 
Q 1625 4250 1398 4047 
Q 1172 3844 1172 3481 
z
" transform="scale(0.015625)"/>
       </defs>
       <use xlink:href="#DejaVuSans-31"/>
       <use xlink:href="#DejaVuSans-2e" x="63.623047"/>
       <use xlink:href="#DejaVuSans-41" x="95.410156"/>
       <use xlink:href="#DejaVuSans-2e" x="162.068359"/>
       <use xlink:href="#DejaVuSans-38" x="193.855469"/>
       <use xlink:href="#DejaVuSans-35" x="257.478516"/>
       <use xlink:href="#DejaVuSans-2e" x="321.101562"/>
       <use xlink:href="#DejaVuSans-31" x="352.888672"/>
       <use xlink:href="#DejaVuSans-2e" x="416.511719"/>
       <use xlink:href="#DejaVuSans-31" x="448.298828"/>
      </g>
     </g>
    </g>
    <g id="ytick_2">
     <g id="line2d_6">
      <g>
       <use xlink:href="#md7532ee191" x="144" y="160.161081" style="stroke: #000000; stroke-width: 0.8"/>
      </g>
     </g>
     <g id="text_7">
      <!-- 1.A.85.1.2 -->
      <g transform="translate(85.809375 163.9603) scale(0.1 -0.1)">
       <use xlink:href="#DejaVuSans-31"/>
       <use xlink:href="#DejaVuSans-2e" x="63.623047"/>
       <use xlink:href="#DejaVuSans-41" x="95.410156"/>
       <use xlink:href="#DejaVuSans-2e" x="162.068359"/>
       <use xlink:href="#DejaVuSans-38" x="193.855469"/>
       <use xlink:href="#DejaVuSans-35" x="257.478516"/>
       <use xlink:href="#DejaVuSans-2e" x="321.101562"/>
       <use xlink:href="#DejaVuSans-31" x="352.888672"/>
       <use xlink:href="#DejaVuSans-2e" x="416.511719"/>
       <use xlink:href="#DejaVuSans-32" x="448.298828"/>
      </g>
     </g>
    </g>
    <g id="ytick_3">
     <g id="line2d_7">
      <g>
       <use xlink:href="#md7532ee191" x="144" y="139.728649" style="stroke: #000000; stroke-width: 0.8"/>
      </g>
     </g>
     <g id="text_8">
      <!-- 1.A.85.1.3 -->
      <g transform="translate(85.809375 143.527867) scale(0.1 -0.1)">
       <defs>
        <path id="DejaVuSans-33" d="M 2597 2516 
Q 3050 2419 3304 2112 
Q 3559 1806 3559 1356 
Q 3559 666 3084 287 
Q 2609 -91 1734 -91 
Q 1441 -91 1130 -33 
Q 819 25 488 141 
L 488 750 
Q 750 597 1062 519 
Q 1375 441 1716 441 
Q 2309 441 2620 675 
Q 2931 909 2931 1356 
Q 2931 1769 2642 2001 
Q 2353 2234 1838 2234 
L 1294 2234 
L 1294 2753 
L 1863 2753 
Q 2328 2753 2575 2939 
Q 2822 3125 2822 3475 
Q 2822 3834 2567 4026 
Q 2313 4219 1838 4219 
Q 1578 4219 1281 4162 
Q 984 4106 628 3988 
L 628 4550 
Q 988 4650 1302 4700 
Q 1616 4750 1894 4750 
Q 2613 4750 3031 4423 
Q 3450 4097 3450 3541 
Q 3450 3153 3228 2886 
Q 3006 2619 2597 2516 
z
" transform="scale(0.015625)"/>
       </defs>
       <use xlink:href="#DejaVuSans-31"/>
       <use xlink:href="#DejaVuSans-2e" x="63.623047"/>
       <use xlink:href="#DejaVuSans-41" x="95.410156"/>
       <use xlink:href="#DejaVuSans-2e" x="162.068359"/>
       <use xlink:href="#DejaVuSans-38" x="193.855469"/>
       <use xlink:href="#DejaVuSans-35" x="257.478516"/>
       <use xlink:href="#DejaVuSans-2e" x="321.101562"/>
       <use xlink:href="#DejaVuSans-31" x="352.888672"/>
       <use xlink:href="#DejaVuSans-2e" x="416.511719"/>
       <use xlink:href="#DejaVuSans-33" x="448.298828"/>
      </g>
     </g>
    </g>
    <g id="ytick_4">
     <g id="line2d_8">
      <g>
       <use xlink:href="#md7532ee191" x="144" y="119.296216" style="stroke: #000000; stroke-width: 0.8"/>
      </g>
     </g>
     <g id="text_9">
      <!-- 1.A.85.1.4 -->
      <g transform="translate(85.809375 123.095435) scale(0.1 -0.1)">
       <defs>
        <path id="DejaVuSans-34" d="M 2419 4116 
L 825 1625 
L 2419 1625 
L 2419 4116 
z
M 2253 4666 
L 3047 4666 
L 3047 1625 
L 3713 1625 
L 3713 1100 
L 3047 1100 
L 3047 0 
L 2419 0 
L 2419 1100 
L 313 1100 
L 313 1709 
L 2253 4666 
z
" transform="scale(0.015625)"/>
       </defs>
       <use xlink:href="#DejaVuSans-31"/>
       <use xlink:href="#DejaVuSans-2e" x="63.623047"/>
       <use xlink:href="#DejaVuSans-41" x="95.410156"/>
       <use xlink:href="#DejaVuSans-2e" x="162.068359"/>
       <use xlink:href="#DejaVuSans-38" x="193.855469"/>
       <use xlink:href="#DejaVuSans-35" x="257.478516"/>
       <use xlink:href="#DejaVuSans-2e" x="321.101562"/>
       <use xlink:href="#DejaVuSans-31" x="352.888672"/>
       <use xlink:href="#DejaVuSans-2e" x="416.511719"/>
       <use xlink:href="#DejaVuSans-34" x="448.298828"/>
      </g>
     </g>
    </g>
    <g id="ytick_5">
     <g id="line2d_9">
      <g>
       <use xlink:href="#md7532ee191" x="144" y="98.863784" style="stroke: #000000; stroke-width: 0.8"/>
      </g>
     </g>
     <g id="text_10">
      <!-- 1.A.85.1.5 -->
      <g transform="translate(85.809375 102.663003) scale(0.1 -0.1)">
       <use xlink:href="#DejaVuSans-31"/>
       <use xlink:href="#DejaVuSans-2e" x="63.623047"/>
       <use xlink:href="#DejaVuSans-41" x="95.410156"/>
       <use xlink:href="#DejaVuSans-2e" x="162.068359"/>
       <use xlink:href="#DejaVuSans-38" x="193.855469"/>
       <use xlink:href="#DejaVuSans-35" x="257.478516"/>
       <use xlink:href="#DejaVuSans-2e" x="321.101562"/>
       <use xlink:href="#DejaVuSans-31" x="352.888672"/>
       <use xlink:href="#DejaVuSans-2e" x="416.511719"/>
       <use xlink:href="#DejaVuSans-35" x="448.298828"/>
      </g>
     </g>
    </g>
    <g id="ytick_6">
     <g id="line2d_10">
      <g>
       <use xlink:href="#md7532ee191" x="144" y="78.431351" style="stroke: #000000; stroke-width: 0.8"/>
      </g>
     </g>
     <g id="text_11">
      <!-- 1.A.85.1.6 -->
      <g transform="translate(85.809375 82.23057) scale(0.1 -0.1)">
       <defs>
        <path id="DejaVuSans-36" d="M 2113 2584 
Q 1688 2584 1439 2293 
Q 1191 2003 1191 1497 
Q 1191 994 1439 701 
Q 1688 409 2113 409 
Q 2538 409 2786 701 
Q 3034 994 3034 1497 
Q 3034 2003 2786 2293 
Q 2538 2584 2113 2584 
z
M 3366 4563 
L 3366 3988 
Q 3128 4100 2886 4159 
Q 2644 4219 2406 4219 
Q 1781 4219 1451 3797 
Q 1122 3375 1075 2522 
Q 1259 2794 1537 2939 
Q 1816 3084 2150 3084 
Q 2853 3084 3261 2657 
Q 3669 2231 3669 1497 
Q 3669 778 3244 343 
Q 2819 -91 2113 -91 
Q 1303 -91 875 529 
Q 447 1150 447 2328 
Q 447 3434 972 4092 
Q 1497 4750 2381 4750 
Q 2619 4750 2861 4703 
Q 3103 4656 3366 4563 
z
" transform="scale(0.015625)"/>
       </defs>
       <use xlink:href="#DejaVuSans-31"/>
       <use xlink:href="#DejaVuSans-2e" x="63.623047"/>
       <use xlink:href="#DejaVuSans-41" x="95.410156"/>
       <use xlink:href="#DejaVuSans-2e" x="162.068359"/>
       <use xlink:href="#DejaVuSans-38" x="193.855469"/>
       <use xlink:href="#DejaVuSans-35" x="257.478516"/>
       <use xlink:href="#DejaVuSans-2e" x="321.101562"/>
       <use xlink:href="#DejaVuSans-31" x="352.888672"/>
       <use xlink:href="#DejaVuSans-2e" x="416.511719"/>
       <use xlink:href="#DejaVuSans-36" x="448.298828"/>
      </g>
     </g>
    </g>
    <g id="ytick_7">
     <g id="line2d_11">
      <g>
       <use xlink:href="#md7532ee191" x="144" y="57.998919" style="stroke: #000000; stroke-width: 0.8"/>
      </g>
     </g>
     <g id="text_12">
      <!-- 1.A.85.1.7 -->
      <g transform="translate(85.809375 61.798138) scale(0.1 -0.1)">
       <defs>
        <path id="DejaVuSans-37" d="M 525 4666 
L 3525 4666 
L 3525 4397 
L 1831 0 
L 1172 0 
L 2766 4134 
L 525 4134 
L 525 4666 
z
" transform="scale(0.015625)"/>
       </defs>
       <use xlink:href="#DejaVuSans-31"/>
       <use xlink:href="#DejaVuSans-2e" x="63.623047"/>
       <use xlink:href="#DejaVuSans-41" x="95.410156"/>
       <use xlink:href="#DejaVuSans-2e" x="162.068359"/>
       <use xlink:href="#DejaVuSans-38" x="193.855469"/>
       <use xlink:href="#DejaVuSans-35" x="257.478516"/>
       <use xlink:href="#DejaVuSans-2e" x="321.101562"/>
       <use xlink:href="#DejaVuSans-31" x="352.888672"/>
       <use xlink:href="#DejaVuSans-2e" x="416.511719"/>
       <use xlink:href="#DejaVuSans-37" x="448.298828"/>
      </g>
     </g>
    </g>
    <g id="ytick_8">
     <g id="line2d_12">
      <g>
       <use xlink:href="#md7532ee191" x="144" y="37.566486" style="stroke: #000000; stroke-width: 0.8"/>
      </g>
     </g>
     <g id="text_13">
      <!-- 1.A.85.1.8 -->
      <g transform="translate(85.809375 41.365705) scale(0.1 -0.1)">
       <use xlink:href="#DejaVuSans-31"/>
       <use xlink:href="#DejaVuSans-2e" x="63.623047"/>
       <use xlink:href="#DejaVuSans-41" x="95.410156"/>
       <use xlink:href="#DejaVuSans-2e" x="162.068359"/>
       <use xlink:href="#DejaVuSans-38" x="193.855469"/>
       <use xlink:href="#DejaVuSans-35" x="257.478516"/>
       <use xlink:href="#DejaVuSans-2e" x="321.101562"/>
       <use xlink:href="#DejaVuSans-31" x="352.888672"/>
       <use xlink:href="#DejaVuSans-2e" x="416.511719"/>
       <use xlink:href="#DejaVuSans-38" x="448.298828"/>
      </g>
     </g>
    </g>
   </g>
   <g id="patch_300">
    <path d="M 144 192.24 
L 144 25.92 
" style="fill: none; stroke: #000000; stroke-width: 0.8; stroke-linejoin: miter; stroke-linecap: square"/>
   </g>
   <g id="patch_301">
    <path d="M 1036.8 192.24 
L 1036.8 25.92 
" style="fill: none; stroke: #000000; stroke-width: 0.8; stroke-linejoin: miter; stroke-linecap: square"/>
   </g>
   <g id="patch_302">
    <path d="M 144 192.24 
L 1036.8 192.24 
" style="fill: none; stroke: #000000; stroke-width: 0.8; stroke-linejoin: miter; stroke-linecap: square"/>
   </g>
   <g id="patch_303">
    <path d="M 144 25.92 
L 1036.8 25.92 
" style="fill: none; stroke: #000000; stroke-width: 0.8; stroke-linejoin: miter; stroke-linecap: square"/>
   </g>
   <g id="text_14">
    <!-- 1.A.85 Summary -->
    <g transform="translate(540.2325 19.92) scale(0.12 -0.12)">
     <defs>
      <path id="DejaVuSans-20" transform="scale(0.015625)"/>
      <path id="DejaVuSans-53" d="M 3425 4513 
L 3425 3897 
Q 3066 4069 2747 4153 
Q 2428 4238 2131 4238 
Q 1616 4238 1336 4038 
Q 1056 3838 1056 3469 
Q 1056 3159 1242 3001 
Q 1428 2844 1947 2747 
L 2328 2669 
Q 3034 2534 3370 2195 
Q 3706 1856 3706 1288 
Q 3706 609 3251 259 
Q 2797 -91 1919 -91 
Q 1588 -91 1214 -16 
Q 841 59 441 206 
L 441 856 
Q 825 641 1194 531 
Q 1563 422 1919 422 
Q 2459 422 2753 634 
Q 3047 847 3047 1241 
Q 3047 1584 2836 1778 
Q 2625 1972 2144 2069 
L 1759 2144 
Q 1053 2284 737 2584 
Q 422 2884 422 3419 
Q 422 4038 858 4394 
Q 1294 4750 2059 4750 
Q 2388 4750 2728 4690 
Q 3069 4631 3425 4513 
z
" transform="scale(0.015625)"/>
      <path id="DejaVuSans-6d" d="M 3328 2828 
Q 3544 3216 3844 3400 
Q 4144 3584 4550 3584 
Q 5097 3584 5394 3201 
Q 5691 2819 5691 2113 
L 5691 0 
L 5113 0 
L 5113 2094 
Q 5113 2597 4934 2840 
Q 4756 3084 4391 3084 
Q 3944 3084 3684 2787 
Q 3425 2491 3425 1978 
L 3425 0 
L 2847 0 
L 2847 2094 
Q 2847 2600 2669 2842 
Q 2491 3084 2119 3084 
Q 1678 3084 1418 2786 
Q 1159 2488 1159 1978 
L 1159 0 
L 581 0 
L 581 3500 
L 1159 3500 
L 1159 2956 
Q 1356 3278 1631 3431 
Q 1906 3584 2284 3584 
Q 2666 3584 2933 3390 
Q 3200 3197 3328 2828 
z
" transform="scale(0.015625)"/>
      <path id="DejaVuSans-72" d="M 2631 2963 
Q 2534 3019 2420 3045 
Q 2306 3072 2169 3072 
Q 1681 3072 1420 2755 
Q 1159 2438 1159 1844 
L 1159 0 
L 581 0 
L 581 3500 
L 1159 3500 
L 1159 2956 
Q 1341 3275 1631 3429 
Q 1922 3584 2338 3584 
Q 2397 3584 2469 3576 
Q 2541 3569 2628 3553 
L 2631 2963 
z
" transform="scale(0.015625)"/>
      <path id="DejaVuSans-79" d="M 2059 -325 
Q 1816 -950 1584 -1140 
Q 1353 -1331 966 -1331 
L 506 -1331 
L 506 -850 
L 844 -850 
Q 1081 -850 1212 -737 
Q 1344 -625 1503 -206 
L 1606 56 
L 191 3500 
L 800 3500 
L 1894 763 
L 2988 3500 
L 3597 3500 
L 2059 -325 
z
" transform="scale(0.015625)"/>
     </defs>
     <use xlink:href="#DejaVuSans-31"/>
     <use xlink:href="#DejaVuSans-2e" x="63.623047"/>
     <use xlink:href="#DejaVuSans-41" x="95.410156"/>
     <use xlink:href="#DejaVuSans-2e" x="162.068359"/>
     <use xlink:href="#DejaVuSans-38" x="193.855469"/>
     <use xlink:href="#DejaVuSans-35" x="257.478516"/>
     <use xlink:href="#DejaVuSans-20" x="321.101562"/>
     <use xlink:href="#DejaVuSans-53" x="352.888672"/>
     <use xlink:href="#DejaVuSans-75" x="416.365234"/>
     <use xlink:href="#DejaVuSans-6d" x="479.744141"/>
     <use xlink:href="#DejaVuSans-6d" x="577.15625"/>
     <use xlink:href="#DejaVuSans-61" x="674.568359"/>
     <use xlink:href="#DejaVuSans-72" x="735.847656"/>
     <use xlink:href="#DejaVuSans-79" x="776.960938"/>
    </g>
   </g>
  </g>
 </g>
 <defs>
  <clipPath id="pdd96032b3e">
   <rect x="144" y="25.92" width="892.8" height="166.32"/>
  </clipPath>
 </defs>
</svg>
