<?xml version="1.0" encoding="utf-8" standalone="no"?>
<!DOCTYPE svg PUBLIC "-//W3C//DTD SVG 1.1//EN"
  "http://www.w3.org/Graphics/SVG/1.1/DTD/svg11.dtd">
<svg xmlns:xlink="http://www.w3.org/1999/xlink" width="1152pt" height="302.4pt" viewBox="0 0 1152 302.4" xmlns="http://www.w3.org/2000/svg" version="1.1">
 <metadata>
  <rdf:RDF xmlns:dc="http://purl.org/dc/elements/1.1/" xmlns:cc="http://creativecommons.org/ns#" xmlns:rdf="http://www.w3.org/1999/02/22-rdf-syntax-ns#">
   <cc:Work>
    <dc:type rdf:resource="http://purl.org/dc/dcmitype/StillImage"/>
    <dc:date>2024-10-25T07:45:07.481102</dc:date>
    <dc:format>image/svg+xml</dc:format>
    <dc:creator>
     <cc:Agent>
      <dc:title>Matplotlib v3.9.2, https://matplotlib.org/</dc:title>
     </cc:Agent>
    </dc:creator>
   </cc:Work>
  </rdf:RDF>
 </metadata>
 <defs>
  <style type="text/css">*{stroke-linejoin: round; stroke-linecap: butt}</style>
 </defs>
 <g id="figure_1">
  <g id="patch_1">
   <path d="M 0 302.4 
L 1152 302.4 
L 1152 0 
L 0 0 
z
" style="fill: #ffffff"/>
  </g>
  <g id="axes_1">
   <g id="patch_2">
    <path d="M 144 269.136 
L 1036.8 269.136 
L 1036.8 36.288 
L 144 36.288 
z
" style="fill: #ffffff"/>
   </g>
   <g id="patch_3">
    <path d="M 144 255.116842 
L 255.736264 255.116842 
L 255.736264 254.559789 
L 144 254.559789 
z
" clip-path="url(#p6448d29f5d)" style="fill: #0000ff"/>
   </g>
   <g id="patch_4">
    <path d="M 258.461538 258.552 
L 757.186813 258.552 
L 757.186813 251.124632 
L 258.461538 251.124632 
z
" clip-path="url(#p6448d29f5d)" style="fill: #0000ff"/>
   </g>
   <g id="patch_5">
    <path d="M 759.912088 255.116842 
L 953.406593 255.116842 
L 953.406593 254.559789 
L 759.912088 254.559789 
z
" clip-path="url(#p6448d29f5d)" style="fill: #0000ff"/>
   </g>
   <g id="patch_6">
    <path d="M 144 236.548421 
L 244.835165 236.548421 
L 244.835165 235.991368 
L 144 235.991368 
z
" clip-path="url(#p6448d29f5d)" style="fill: #0000ff"/>
   </g>
   <g id="patch_7">
    <path d="M 247.56044 239.983579 
L 746.285714 239.983579 
L 746.285714 232.556211 
L 247.56044 232.556211 
z
" clip-path="url(#p6448d29f5d)" style="fill: #0000ff"/>
   </g>
   <g id="patch_8">
    <path d="M 749.010989 236.548421 
L 937.054945 236.548421 
L 937.054945 235.991368 
L 749.010989 235.991368 
z
" clip-path="url(#p6448d29f5d)" style="fill: #0000ff"/>
   </g>
   <g id="patch_9">
    <path d="M 144 217.98 
L 244.835165 217.98 
L 244.835165 217.422947 
L 144 217.422947 
z
" clip-path="url(#p6448d29f5d)" style="fill: #0000ff"/>
   </g>
   <g id="patch_10">
    <path d="M 247.56044 221.415158 
L 743.56044 221.415158 
L 743.56044 213.987789 
L 247.56044 213.987789 
z
" clip-path="url(#p6448d29f5d)" style="fill: #0000ff"/>
   </g>
   <g id="patch_11">
    <path d="M 746.285714 217.98 
L 934.32967 217.98 
L 934.32967 217.422947 
L 746.285714 217.422947 
z
" clip-path="url(#p6448d29f5d)" style="fill: #0000ff"/>
   </g>
   <g id="patch_12">
    <path d="M 144 199.411579 
L 277.538462 199.411579 
L 277.538462 198.854526 
L 144 198.854526 
z
" clip-path="url(#p6448d29f5d)" style="fill: #0000ff"/>
   </g>
   <g id="patch_13">
    <path d="M 280.263736 202.846737 
L 781.714286 202.846737 
L 781.714286 195.419368 
L 280.263736 195.419368 
z
" clip-path="url(#p6448d29f5d)" style="fill: #0000ff"/>
   </g>
   <g id="patch_14">
    <path d="M 784.43956 199.411579 
L 994.285714 199.411579 
L 994.285714 198.854526 
L 784.43956 198.854526 
z
" clip-path="url(#p6448d29f5d)" style="fill: #0000ff"/>
   </g>
   <g id="patch_15">
    <path d="M 144 180.843158 
L 435.604396 180.843158 
L 435.604396 180.286105 
L 144 180.286105 
z
" clip-path="url(#p6448d29f5d)" style="fill: #0000ff"/>
   </g>
   <g id="patch_16">
    <path d="M 438.32967 184.278316 
L 762.637363 184.278316 
L 762.637363 176.850947 
L 438.32967 176.850947 
z
" clip-path="url(#p6448d29f5d)" style="fill: #0000ff"/>
   </g>
   <g id="patch_17">
    <path d="M 765.362637 180.843158 
L 967.032967 180.843158 
L 967.032967 180.286105 
L 765.362637 180.286105 
z
" clip-path="url(#p6448d29f5d)" style="fill: #0000ff"/>
   </g>
   <g id="patch_18">
    <path d="M 144 162.274737 
L 149.450549 162.274737 
L 149.450549 161.717684 
L 144 161.717684 
z
" clip-path="url(#p6448d29f5d)" style="fill: #0000ff"/>
   </g>
   <g id="patch_19">
    <path d="M 152.175824 165.709895 
L 716.307692 165.709895 
L 716.307692 158.282526 
L 152.175824 158.282526 
z
" clip-path="url(#p6448d29f5d)" style="fill: #0000ff"/>
   </g>
   <g id="patch_20">
    <path d="M 171.252747 165.709895 
L 364.747253 165.709895 
L 364.747253 158.282526 
L 171.252747 158.282526 
z
" clip-path="url(#p6448d29f5d)" style="fill: #0000ff"/>
   </g>
   <g id="patch_21">
    <path d="M 173.978022 165.709895 
L 697.230769 165.709895 
L 697.230769 158.282526 
L 173.978022 158.282526 
z
" clip-path="url(#p6448d29f5d)" style="fill: #0000ff"/>
   </g>
   <g id="patch_22">
    <path d="M 402.901099 165.709895 
L 596.395604 165.709895 
L 596.395604 158.282526 
L 402.901099 158.282526 
z
" clip-path="url(#p6448d29f5d)" style="fill: #0000ff"/>
   </g>
   <g id="patch_23">
    <path d="M 719.032967 162.274737 
L 727.208791 162.274737 
L 727.208791 161.717684 
L 719.032967 161.717684 
z
" clip-path="url(#p6448d29f5d)" style="fill: #0000ff"/>
   </g>
   <g id="patch_24">
    <path d="M 144 147.141474 
L 697.230769 147.141474 
L 697.230769 139.714105 
L 144 139.714105 
z
" clip-path="url(#p6448d29f5d)" style="fill: #0000ff"/>
   </g>
   <g id="patch_25">
    <path d="M 144 147.141474 
L 697.230769 147.141474 
L 697.230769 139.714105 
L 144 139.714105 
z
" clip-path="url(#p6448d29f5d)" style="fill: #0000ff"/>
   </g>
   <g id="patch_26">
    <path d="M 152.175824 147.141474 
L 348.395604 147.141474 
L 348.395604 139.714105 
L 152.175824 139.714105 
z
" clip-path="url(#p6448d29f5d)" style="fill: #0000ff"/>
   </g>
   <g id="patch_27">
    <path d="M 144 128.573053 
L 550.065934 128.573053 
L 550.065934 121.145684 
L 144 121.145684 
z
" clip-path="url(#p6448d29f5d)" style="fill: #0000ff"/>
   </g>
   <g id="patch_28">
    <path d="M 144 128.573053 
L 699.956044 128.573053 
L 699.956044 121.145684 
L 144 121.145684 
z
" clip-path="url(#p6448d29f5d)" style="fill: #0000ff"/>
   </g>
   <g id="patch_29">
    <path d="M 152.175824 128.573053 
L 345.67033 128.573053 
L 345.67033 121.145684 
L 152.175824 121.145684 
z
" clip-path="url(#p6448d29f5d)" style="fill: #0000ff"/>
   </g>
   <g id="patch_30">
    <path d="M 386.549451 128.573053 
L 580.043956 128.573053 
L 580.043956 121.145684 
L 386.549451 121.145684 
z
" clip-path="url(#p6448d29f5d)" style="fill: #0000ff"/>
   </g>
   <g id="patch_31">
    <path d="M 144 106.569474 
L 160.351648 106.569474 
L 160.351648 106.012421 
L 144 106.012421 
z
" clip-path="url(#p6448d29f5d)" style="fill: #0000ff"/>
   </g>
   <g id="patch_32">
    <path d="M 163.076923 110.004632 
L 708.131868 110.004632 
L 708.131868 102.577263 
L 163.076923 102.577263 
z
" clip-path="url(#p6448d29f5d)" style="fill: #0000ff"/>
   </g>
   <g id="patch_33">
    <path d="M 163.076923 110.004632 
L 356.571429 110.004632 
L 356.571429 102.577263 
L 163.076923 102.577263 
z
" clip-path="url(#p6448d29f5d)" style="fill: #0000ff"/>
   </g>
   <g id="patch_34">
    <path d="M 165.802198 110.004632 
L 689.054945 110.004632 
L 689.054945 102.577263 
L 165.802198 102.577263 
z
" clip-path="url(#p6448d29f5d)" style="fill: #0000ff"/>
   </g>
   <g id="patch_35">
    <path d="M 394.725275 110.004632 
L 588.21978 110.004632 
L 588.21978 102.577263 
L 394.725275 102.577263 
z
" clip-path="url(#p6448d29f5d)" style="fill: #0000ff"/>
   </g>
   <g id="patch_36">
    <path d="M 710.857143 106.569474 
L 721.758242 106.569474 
L 721.758242 106.012421 
L 710.857143 106.012421 
z
" clip-path="url(#p6448d29f5d)" style="fill: #0000ff"/>
   </g>
   <g id="patch_37">
    <path d="M 144 88.001053 
L 146.725275 88.001053 
L 146.725275 87.444 
L 144 87.444 
z
" clip-path="url(#p6448d29f5d)" style="fill: #0000ff"/>
   </g>
   <g id="patch_38">
    <path d="M 149.450549 91.436211 
L 680.879121 91.436211 
L 680.879121 84.008842 
L 149.450549 84.008842 
z
" clip-path="url(#p6448d29f5d)" style="fill: #0000ff"/>
   </g>
   <g id="patch_39">
    <path d="M 149.450549 91.436211 
L 699.956044 91.436211 
L 699.956044 84.008842 
L 149.450549 84.008842 
z
" clip-path="url(#p6448d29f5d)" style="fill: #0000ff"/>
   </g>
   <g id="patch_40">
    <path d="M 157.626374 91.436211 
L 353.846154 91.436211 
L 353.846154 84.008842 
L 157.626374 84.008842 
z
" clip-path="url(#p6448d29f5d)" style="fill: #0000ff"/>
   </g>
   <g id="patch_41">
    <path d="M 400.175824 91.436211 
L 590.945055 91.436211 
L 590.945055 84.008842 
L 400.175824 84.008842 
z
" clip-path="url(#p6448d29f5d)" style="fill: #0000ff"/>
   </g>
   <g id="patch_42">
    <path d="M 144 69.432632 
L 160.351648 69.432632 
L 160.351648 68.875579 
L 144 68.875579 
z
" clip-path="url(#p6448d29f5d)" style="fill: #0000ff"/>
   </g>
   <g id="patch_43">
    <path d="M 163.076923 72.867789 
L 691.78022 72.867789 
L 691.78022 65.440421 
L 163.076923 65.440421 
z
" clip-path="url(#p6448d29f5d)" style="fill: #0000ff"/>
   </g>
   <g id="patch_44">
    <path d="M 165.802198 72.867789 
L 332.043956 72.867789 
L 332.043956 65.440421 
L 165.802198 65.440421 
z
" clip-path="url(#p6448d29f5d)" style="fill: #0000ff"/>
   </g>
   <g id="patch_45">
    <path d="M 171.252747 72.867789 
L 610.021978 72.867789 
L 610.021978 65.440421 
L 171.252747 65.440421 
z
" clip-path="url(#p6448d29f5d)" style="fill: #0000ff"/>
   </g>
   <g id="patch_46">
    <path d="M 402.901099 72.867789 
L 596.395604 72.867789 
L 596.395604 65.440421 
L 402.901099 65.440421 
z
" clip-path="url(#p6448d29f5d)" style="fill: #0000ff"/>
   </g>
   <g id="patch_47">
    <path d="M 694.505495 69.432632 
L 735.384615 69.432632 
L 735.384615 68.875579 
L 694.505495 68.875579 
z
" clip-path="url(#p6448d29f5d)" style="fill: #0000ff"/>
   </g>
   <g id="patch_48">
    <path d="M 144 50.864211 
L 272.087912 50.864211 
L 272.087912 50.307158 
L 144 50.307158 
z
" clip-path="url(#p6448d29f5d)" style="fill: #0000ff"/>
   </g>
   <g id="patch_49">
    <path d="M 274.813187 54.299368 
L 588.21978 54.299368 
L 588.21978 46.872 
L 274.813187 46.872 
z
" clip-path="url(#p6448d29f5d)" style="fill: #0000ff"/>
   </g>
   <g id="patch_50">
    <path d="M 590.945055 50.864211 
L 705.406593 50.864211 
L 705.406593 50.307158 
L 590.945055 50.307158 
z
" clip-path="url(#p6448d29f5d)" style="fill: #0000ff"/>
   </g>
   <g id="matplotlib.axis_1">
    <g id="xtick_1">
     <g id="line2d_1">
      <defs>
       <path id="m691bb70ca8" d="M 0 0 
L 0 3.5 
" style="stroke: #000000; stroke-width: 0.8"/>
      </defs>
      <g>
       <use xlink:href="#m691bb70ca8" x="277.538462" y="269.136" style="stroke: #000000; stroke-width: 0.8"/>
      </g>
     </g>
     <g id="text_1">
      <!-- 50 -->
      <g transform="translate(271.175962 283.734438) scale(0.1 -0.1)">
       <defs>
        <path id="DejaVuSans-35" d="M 691 4666 
L 3169 4666 
L 3169 4134 
L 1269 4134 
L 1269 2991 
Q 1406 3038 1543 3061 
Q 1681 3084 1819 3084 
Q 2600 3084 3056 2656 
Q 3513 2228 3513 1497 
Q 3513 744 3044 326 
Q 2575 -91 1722 -91 
Q 1428 -91 1123 -41 
Q 819 9 494 109 
L 494 744 
Q 775 591 1075 516 
Q 1375 441 1709 441 
Q 2250 441 2565 725 
Q 2881 1009 2881 1497 
Q 2881 1984 2565 2268 
Q 2250 2553 1709 2553 
Q 1456 2553 1204 2497 
Q 953 2441 691 2322 
L 691 4666 
z
" transform="scale(0.015625)"/>
        <path id="DejaVuSans-30" d="M 2034 4250 
Q 1547 4250 1301 3770 
Q 1056 3291 1056 2328 
Q 1056 1369 1301 889 
Q 1547 409 2034 409 
Q 2525 409 2770 889 
Q 3016 1369 3016 2328 
Q 3016 3291 2770 3770 
Q 2525 4250 2034 4250 
z
M 2034 4750 
Q 2819 4750 3233 4129 
Q 3647 3509 3647 2328 
Q 3647 1150 3233 529 
Q 2819 -91 2034 -91 
Q 1250 -91 836 529 
Q 422 1150 422 2328 
Q 422 3509 836 4129 
Q 1250 4750 2034 4750 
z
" transform="scale(0.015625)"/>
       </defs>
       <use xlink:href="#DejaVuSans-35"/>
       <use xlink:href="#DejaVuSans-30" x="63.623047"/>
      </g>
     </g>
    </g>
    <g id="xtick_2">
     <g id="line2d_2">
      <g>
       <use xlink:href="#m691bb70ca8" x="413.802198" y="269.136" style="stroke: #000000; stroke-width: 0.8"/>
      </g>
     </g>
     <g id="text_2">
      <!-- 100 -->
      <g transform="translate(404.258448 283.734438) scale(0.1 -0.1)">
       <defs>
        <path id="DejaVuSans-31" d="M 794 531 
L 1825 531 
L 1825 4091 
L 703 3866 
L 703 4441 
L 1819 4666 
L 2450 4666 
L 2450 531 
L 3481 531 
L 3481 0 
L 794 0 
L 794 531 
z
" transform="scale(0.015625)"/>
       </defs>
       <use xlink:href="#DejaVuSans-31"/>
       <use xlink:href="#DejaVuSans-30" x="63.623047"/>
       <use xlink:href="#DejaVuSans-30" x="127.246094"/>
      </g>
     </g>
    </g>
    <g id="xtick_3">
     <g id="line2d_3">
      <g>
       <use xlink:href="#m691bb70ca8" x="550.065934" y="269.136" style="stroke: #000000; stroke-width: 0.8"/>
      </g>
     </g>
     <g id="text_3">
      <!-- 150 -->
      <g transform="translate(540.522184 283.734438) scale(0.1 -0.1)">
       <use xlink:href="#DejaVuSans-31"/>
       <use xlink:href="#DejaVuSans-35" x="63.623047"/>
       <use xlink:href="#DejaVuSans-30" x="127.246094"/>
      </g>
     </g>
    </g>
    <g id="xtick_4">
     <g id="line2d_4">
      <g>
       <use xlink:href="#m691bb70ca8" x="686.32967" y="269.136" style="stroke: #000000; stroke-width: 0.8"/>
      </g>
     </g>
     <g id="text_4">
      <!-- 200 -->
      <g transform="translate(676.78592 283.734438) scale(0.1 -0.1)">
       <defs>
        <path id="DejaVuSans-32" d="M 1228 531 
L 3431 531 
L 3431 0 
L 469 0 
L 469 531 
Q 828 903 1448 1529 
Q 2069 2156 2228 2338 
Q 2531 2678 2651 2914 
Q 2772 3150 2772 3378 
Q 2772 3750 2511 3984 
Q 2250 4219 1831 4219 
Q 1534 4219 1204 4116 
Q 875 4013 500 3803 
L 500 4441 
Q 881 4594 1212 4672 
Q 1544 4750 1819 4750 
Q 2544 4750 2975 4387 
Q 3406 4025 3406 3419 
Q 3406 3131 3298 2873 
Q 3191 2616 2906 2266 
Q 2828 2175 2409 1742 
Q 1991 1309 1228 531 
z
" transform="scale(0.015625)"/>
       </defs>
       <use xlink:href="#DejaVuSans-32"/>
       <use xlink:href="#DejaVuSans-30" x="63.623047"/>
       <use xlink:href="#DejaVuSans-30" x="127.246094"/>
      </g>
     </g>
    </g>
    <g id="xtick_5">
     <g id="line2d_5">
      <g>
       <use xlink:href="#m691bb70ca8" x="822.593407" y="269.136" style="stroke: #000000; stroke-width: 0.8"/>
      </g>
     </g>
     <g id="text_5">
      <!-- 250 -->
      <g transform="translate(813.049657 283.734438) scale(0.1 -0.1)">
       <use xlink:href="#DejaVuSans-32"/>
       <use xlink:href="#DejaVuSans-35" x="63.623047"/>
       <use xlink:href="#DejaVuSans-30" x="127.246094"/>
      </g>
     </g>
    </g>
    <g id="xtick_6">
     <g id="line2d_6">
      <g>
       <use xlink:href="#m691bb70ca8" x="958.857143" y="269.136" style="stroke: #000000; stroke-width: 0.8"/>
      </g>
     </g>
     <g id="text_6">
      <!-- 300 -->
      <g transform="translate(949.313393 283.734438) scale(0.1 -0.1)">
       <defs>
        <path id="DejaVuSans-33" d="M 2597 2516 
Q 3050 2419 3304 2112 
Q 3559 1806 3559 1356 
Q 3559 666 3084 287 
Q 2609 -91 1734 -91 
Q 1441 -91 1130 -33 
Q 819 25 488 141 
L 488 750 
Q 750 597 1062 519 
Q 1375 441 1716 441 
Q 2309 441 2620 675 
Q 2931 909 2931 1356 
Q 2931 1769 2642 2001 
Q 2353 2234 1838 2234 
L 1294 2234 
L 1294 2753 
L 1863 2753 
Q 2328 2753 2575 2939 
Q 2822 3125 2822 3475 
Q 2822 3834 2567 4026 
Q 2313 4219 1838 4219 
Q 1578 4219 1281 4162 
Q 984 4106 628 3988 
L 628 4550 
Q 988 4650 1302 4700 
Q 1616 4750 1894 4750 
Q 2613 4750 3031 4423 
Q 3450 4097 3450 3541 
Q 3450 3153 3228 2886 
Q 3006 2619 2597 2516 
z
" transform="scale(0.015625)"/>
       </defs>
       <use xlink:href="#DejaVuSans-33"/>
       <use xlink:href="#DejaVuSans-30" x="63.623047"/>
       <use xlink:href="#DejaVuSans-30" x="127.246094"/>
      </g>
     </g>
    </g>
    <g id="text_7">
     <!-- Residual -->
     <g transform="translate(569.284375 297.412563) scale(0.1 -0.1)">
      <defs>
       <path id="DejaVuSans-52" d="M 2841 2188 
Q 3044 2119 3236 1894 
Q 3428 1669 3622 1275 
L 4263 0 
L 3584 0 
L 2988 1197 
Q 2756 1666 2539 1819 
Q 2322 1972 1947 1972 
L 1259 1972 
L 1259 0 
L 628 0 
L 628 4666 
L 2053 4666 
Q 2853 4666 3247 4331 
Q 3641 3997 3641 3322 
Q 3641 2881 3436 2590 
Q 3231 2300 2841 2188 
z
M 1259 4147 
L 1259 2491 
L 2053 2491 
Q 2509 2491 2742 2702 
Q 2975 2913 2975 3322 
Q 2975 3731 2742 3939 
Q 2509 4147 2053 4147 
L 1259 4147 
z
" transform="scale(0.015625)"/>
       <path id="DejaVuSans-65" d="M 3597 1894 
L 3597 1613 
L 953 1613 
Q 991 1019 1311 708 
Q 1631 397 2203 397 
Q 2534 397 2845 478 
Q 3156 559 3463 722 
L 3463 178 
Q 3153 47 2828 -22 
Q 2503 -91 2169 -91 
Q 1331 -91 842 396 
Q 353 884 353 1716 
Q 353 2575 817 3079 
Q 1281 3584 2069 3584 
Q 2775 3584 3186 3129 
Q 3597 2675 3597 1894 
z
M 3022 2063 
Q 3016 2534 2758 2815 
Q 2500 3097 2075 3097 
Q 1594 3097 1305 2825 
Q 1016 2553 972 2059 
L 3022 2063 
z
" transform="scale(0.015625)"/>
       <path id="DejaVuSans-73" d="M 2834 3397 
L 2834 2853 
Q 2591 2978 2328 3040 
Q 2066 3103 1784 3103 
Q 1356 3103 1142 2972 
Q 928 2841 928 2578 
Q 928 2378 1081 2264 
Q 1234 2150 1697 2047 
L 1894 2003 
Q 2506 1872 2764 1633 
Q 3022 1394 3022 966 
Q 3022 478 2636 193 
Q 2250 -91 1575 -91 
Q 1294 -91 989 -36 
Q 684 19 347 128 
L 347 722 
Q 666 556 975 473 
Q 1284 391 1588 391 
Q 1994 391 2212 530 
Q 2431 669 2431 922 
Q 2431 1156 2273 1281 
Q 2116 1406 1581 1522 
L 1381 1569 
Q 847 1681 609 1914 
Q 372 2147 372 2553 
Q 372 3047 722 3315 
Q 1072 3584 1716 3584 
Q 2034 3584 2315 3537 
Q 2597 3491 2834 3397 
z
" transform="scale(0.015625)"/>
       <path id="DejaVuSans-69" d="M 603 3500 
L 1178 3500 
L 1178 0 
L 603 0 
L 603 3500 
z
M 603 4863 
L 1178 4863 
L 1178 4134 
L 603 4134 
L 603 4863 
z
" transform="scale(0.015625)"/>
       <path id="DejaVuSans-64" d="M 2906 2969 
L 2906 4863 
L 3481 4863 
L 3481 0 
L 2906 0 
L 2906 525 
Q 2725 213 2448 61 
Q 2172 -91 1784 -91 
Q 1150 -91 751 415 
Q 353 922 353 1747 
Q 353 2572 751 3078 
Q 1150 3584 1784 3584 
Q 2172 3584 2448 3432 
Q 2725 3281 2906 2969 
z
M 947 1747 
Q 947 1113 1208 752 
Q 1469 391 1925 391 
Q 2381 391 2643 752 
Q 2906 1113 2906 1747 
Q 2906 2381 2643 2742 
Q 2381 3103 1925 3103 
Q 1469 3103 1208 2742 
Q 947 2381 947 1747 
z
" transform="scale(0.015625)"/>
       <path id="DejaVuSans-75" d="M 544 1381 
L 544 3500 
L 1119 3500 
L 1119 1403 
Q 1119 906 1312 657 
Q 1506 409 1894 409 
Q 2359 409 2629 706 
Q 2900 1003 2900 1516 
L 2900 3500 
L 3475 3500 
L 3475 0 
L 2900 0 
L 2900 538 
Q 2691 219 2414 64 
Q 2138 -91 1772 -91 
Q 1169 -91 856 284 
Q 544 659 544 1381 
z
M 1991 3584 
L 1991 3584 
z
" transform="scale(0.015625)"/>
       <path id="DejaVuSans-61" d="M 2194 1759 
Q 1497 1759 1228 1600 
Q 959 1441 959 1056 
Q 959 750 1161 570 
Q 1363 391 1709 391 
Q 2188 391 2477 730 
Q 2766 1069 2766 1631 
L 2766 1759 
L 2194 1759 
z
M 3341 1997 
L 3341 0 
L 2766 0 
L 2766 531 
Q 2569 213 2275 61 
Q 1981 -91 1556 -91 
Q 1019 -91 701 211 
Q 384 513 384 1019 
Q 384 1609 779 1909 
Q 1175 2209 1959 2209 
L 2766 2209 
L 2766 2266 
Q 2766 2663 2505 2880 
Q 2244 3097 1772 3097 
Q 1472 3097 1187 3025 
Q 903 2953 641 2809 
L 641 3341 
Q 956 3463 1253 3523 
Q 1550 3584 1831 3584 
Q 2591 3584 2966 3190 
Q 3341 2797 3341 1997 
z
" transform="scale(0.015625)"/>
       <path id="DejaVuSans-6c" d="M 603 4863 
L 1178 4863 
L 1178 0 
L 603 0 
L 603 4863 
z
" transform="scale(0.015625)"/>
      </defs>
      <use xlink:href="#DejaVuSans-52"/>
      <use xlink:href="#DejaVuSans-65" x="64.982422"/>
      <use xlink:href="#DejaVuSans-73" x="126.505859"/>
      <use xlink:href="#DejaVuSans-69" x="178.605469"/>
      <use xlink:href="#DejaVuSans-64" x="206.388672"/>
      <use xlink:href="#DejaVuSans-75" x="269.865234"/>
      <use xlink:href="#DejaVuSans-61" x="333.244141"/>
      <use xlink:href="#DejaVuSans-6c" x="394.523438"/>
     </g>
    </g>
   </g>
   <g id="matplotlib.axis_2">
    <g id="ytick_1">
     <g id="line2d_7">
      <defs>
       <path id="mc9241d8fa9" d="M 0 0 
L -3.5 0 
" style="stroke: #000000; stroke-width: 0.8"/>
      </defs>
      <g>
       <use xlink:href="#mc9241d8fa9" x="144" y="254.838316" style="stroke: #000000; stroke-width: 0.8"/>
      </g>
     </g>
     <g id="text_8">
      <!-- 1.A.62.1.1 -->
      <g transform="translate(85.809375 258.637535) scale(0.1 -0.1)">
       <defs>
        <path id="DejaVuSans-2e" d="M 684 794 
L 1344 794 
L 1344 0 
L 684 0 
L 684 794 
z
" transform="scale(0.015625)"/>
        <path id="DejaVuSans-41" d="M 2188 4044 
L 1331 1722 
L 3047 1722 
L 2188 4044 
z
M 1831 4666 
L 2547 4666 
L 4325 0 
L 3669 0 
L 3244 1197 
L 1141 1197 
L 716 0 
L 50 0 
L 1831 4666 
z
" transform="scale(0.015625)"/>
        <path id="DejaVuSans-36" d="M 2113 2584 
Q 1688 2584 1439 2293 
Q 1191 2003 1191 1497 
Q 1191 994 1439 701 
Q 1688 409 2113 409 
Q 2538 409 2786 701 
Q 3034 994 3034 1497 
Q 3034 2003 2786 2293 
Q 2538 2584 2113 2584 
z
M 3366 4563 
L 3366 3988 
Q 3128 4100 2886 4159 
Q 2644 4219 2406 4219 
Q 1781 4219 1451 3797 
Q 1122 3375 1075 2522 
Q 1259 2794 1537 2939 
Q 1816 3084 2150 3084 
Q 2853 3084 3261 2657 
Q 3669 2231 3669 1497 
Q 3669 778 3244 343 
Q 2819 -91 2113 -91 
Q 1303 -91 875 529 
Q 447 1150 447 2328 
Q 447 3434 972 4092 
Q 1497 4750 2381 4750 
Q 2619 4750 2861 4703 
Q 3103 4656 3366 4563 
z
" transform="scale(0.015625)"/>
       </defs>
       <use xlink:href="#DejaVuSans-31"/>
       <use xlink:href="#DejaVuSans-2e" x="63.623047"/>
       <use xlink:href="#DejaVuSans-41" x="95.410156"/>
       <use xlink:href="#DejaVuSans-2e" x="162.068359"/>
       <use xlink:href="#DejaVuSans-36" x="193.855469"/>
       <use xlink:href="#DejaVuSans-32" x="257.478516"/>
       <use xlink:href="#DejaVuSans-2e" x="321.101562"/>
       <use xlink:href="#DejaVuSans-31" x="352.888672"/>
       <use xlink:href="#DejaVuSans-2e" x="416.511719"/>
       <use xlink:href="#DejaVuSans-31" x="448.298828"/>
      </g>
     </g>
    </g>
    <g id="ytick_2">
     <g id="line2d_8">
      <g>
       <use xlink:href="#mc9241d8fa9" x="144" y="236.269895" style="stroke: #000000; stroke-width: 0.8"/>
      </g>
     </g>
     <g id="text_9">
      <!-- 1.A.62.1.2 -->
      <g transform="translate(85.809375 240.069113) scale(0.1 -0.1)">
       <use xlink:href="#DejaVuSans-31"/>
       <use xlink:href="#DejaVuSans-2e" x="63.623047"/>
       <use xlink:href="#DejaVuSans-41" x="95.410156"/>
       <use xlink:href="#DejaVuSans-2e" x="162.068359"/>
       <use xlink:href="#DejaVuSans-36" x="193.855469"/>
       <use xlink:href="#DejaVuSans-32" x="257.478516"/>
       <use xlink:href="#DejaVuSans-2e" x="321.101562"/>
       <use xlink:href="#DejaVuSans-31" x="352.888672"/>
       <use xlink:href="#DejaVuSans-2e" x="416.511719"/>
       <use xlink:href="#DejaVuSans-32" x="448.298828"/>
      </g>
     </g>
    </g>
    <g id="ytick_3">
     <g id="line2d_9">
      <g>
       <use xlink:href="#mc9241d8fa9" x="144" y="217.701474" style="stroke: #000000; stroke-width: 0.8"/>
      </g>
     </g>
     <g id="text_10">
      <!-- 1.A.62.1.3 -->
      <g transform="translate(85.809375 221.500692) scale(0.1 -0.1)">
       <use xlink:href="#DejaVuSans-31"/>
       <use xlink:href="#DejaVuSans-2e" x="63.623047"/>
       <use xlink:href="#DejaVuSans-41" x="95.410156"/>
       <use xlink:href="#DejaVuSans-2e" x="162.068359"/>
       <use xlink:href="#DejaVuSans-36" x="193.855469"/>
       <use xlink:href="#DejaVuSans-32" x="257.478516"/>
       <use xlink:href="#DejaVuSans-2e" x="321.101562"/>
       <use xlink:href="#DejaVuSans-31" x="352.888672"/>
       <use xlink:href="#DejaVuSans-2e" x="416.511719"/>
       <use xlink:href="#DejaVuSans-33" x="448.298828"/>
      </g>
     </g>
    </g>
    <g id="ytick_4">
     <g id="line2d_10">
      <g>
       <use xlink:href="#mc9241d8fa9" x="144" y="199.133053" style="stroke: #000000; stroke-width: 0.8"/>
      </g>
     </g>
     <g id="text_11">
      <!-- 1.A.62.1.4 -->
      <g transform="translate(85.809375 202.932271) scale(0.1 -0.1)">
       <defs>
        <path id="DejaVuSans-34" d="M 2419 4116 
L 825 1625 
L 2419 1625 
L 2419 4116 
z
M 2253 4666 
L 3047 4666 
L 3047 1625 
L 3713 1625 
L 3713 1100 
L 3047 1100 
L 3047 0 
L 2419 0 
L 2419 1100 
L 313 1100 
L 313 1709 
L 2253 4666 
z
" transform="scale(0.015625)"/>
       </defs>
       <use xlink:href="#DejaVuSans-31"/>
       <use xlink:href="#DejaVuSans-2e" x="63.623047"/>
       <use xlink:href="#DejaVuSans-41" x="95.410156"/>
       <use xlink:href="#DejaVuSans-2e" x="162.068359"/>
       <use xlink:href="#DejaVuSans-36" x="193.855469"/>
       <use xlink:href="#DejaVuSans-32" x="257.478516"/>
       <use xlink:href="#DejaVuSans-2e" x="321.101562"/>
       <use xlink:href="#DejaVuSans-31" x="352.888672"/>
       <use xlink:href="#DejaVuSans-2e" x="416.511719"/>
       <use xlink:href="#DejaVuSans-34" x="448.298828"/>
      </g>
     </g>
    </g>
    <g id="ytick_5">
     <g id="line2d_11">
      <g>
       <use xlink:href="#mc9241d8fa9" x="144" y="180.564632" style="stroke: #000000; stroke-width: 0.8"/>
      </g>
     </g>
     <g id="text_12">
      <!-- 1.A.62.1.5 -->
      <g transform="translate(85.809375 184.36385) scale(0.1 -0.1)">
       <use xlink:href="#DejaVuSans-31"/>
       <use xlink:href="#DejaVuSans-2e" x="63.623047"/>
       <use xlink:href="#DejaVuSans-41" x="95.410156"/>
       <use xlink:href="#DejaVuSans-2e" x="162.068359"/>
       <use xlink:href="#DejaVuSans-36" x="193.855469"/>
       <use xlink:href="#DejaVuSans-32" x="257.478516"/>
       <use xlink:href="#DejaVuSans-2e" x="321.101562"/>
       <use xlink:href="#DejaVuSans-31" x="352.888672"/>
       <use xlink:href="#DejaVuSans-2e" x="416.511719"/>
       <use xlink:href="#DejaVuSans-35" x="448.298828"/>
      </g>
     </g>
    </g>
    <g id="ytick_6">
     <g id="line2d_12">
      <g>
       <use xlink:href="#mc9241d8fa9" x="144" y="161.996211" style="stroke: #000000; stroke-width: 0.8"/>
      </g>
     </g>
     <g id="text_13">
      <!-- 1.A.62.2.1 -->
      <g transform="translate(85.809375 165.795429) scale(0.1 -0.1)">
       <use xlink:href="#DejaVuSans-31"/>
       <use xlink:href="#DejaVuSans-2e" x="63.623047"/>
       <use xlink:href="#DejaVuSans-41" x="95.410156"/>
       <use xlink:href="#DejaVuSans-2e" x="162.068359"/>
       <use xlink:href="#DejaVuSans-36" x="193.855469"/>
       <use xlink:href="#DejaVuSans-32" x="257.478516"/>
       <use xlink:href="#DejaVuSans-2e" x="321.101562"/>
       <use xlink:href="#DejaVuSans-32" x="352.888672"/>
       <use xlink:href="#DejaVuSans-2e" x="416.511719"/>
       <use xlink:href="#DejaVuSans-31" x="448.298828"/>
      </g>
     </g>
    </g>
    <g id="ytick_7">
     <g id="line2d_13">
      <g>
       <use xlink:href="#mc9241d8fa9" x="144" y="143.427789" style="stroke: #000000; stroke-width: 0.8"/>
      </g>
     </g>
     <g id="text_14">
      <!-- 1.A.62.2.2 -->
      <g transform="translate(85.809375 147.227008) scale(0.1 -0.1)">
       <use xlink:href="#DejaVuSans-31"/>
       <use xlink:href="#DejaVuSans-2e" x="63.623047"/>
       <use xlink:href="#DejaVuSans-41" x="95.410156"/>
       <use xlink:href="#DejaVuSans-2e" x="162.068359"/>
       <use xlink:href="#DejaVuSans-36" x="193.855469"/>
       <use xlink:href="#DejaVuSans-32" x="257.478516"/>
       <use xlink:href="#DejaVuSans-2e" x="321.101562"/>
       <use xlink:href="#DejaVuSans-32" x="352.888672"/>
       <use xlink:href="#DejaVuSans-2e" x="416.511719"/>
       <use xlink:href="#DejaVuSans-32" x="448.298828"/>
      </g>
     </g>
    </g>
    <g id="ytick_8">
     <g id="line2d_14">
      <g>
       <use xlink:href="#mc9241d8fa9" x="144" y="124.859368" style="stroke: #000000; stroke-width: 0.8"/>
      </g>
     </g>
     <g id="text_15">
      <!-- 1.A.62.2.3 -->
      <g transform="translate(85.809375 128.658587) scale(0.1 -0.1)">
       <use xlink:href="#DejaVuSans-31"/>
       <use xlink:href="#DejaVuSans-2e" x="63.623047"/>
       <use xlink:href="#DejaVuSans-41" x="95.410156"/>
       <use xlink:href="#DejaVuSans-2e" x="162.068359"/>
       <use xlink:href="#DejaVuSans-36" x="193.855469"/>
       <use xlink:href="#DejaVuSans-32" x="257.478516"/>
       <use xlink:href="#DejaVuSans-2e" x="321.101562"/>
       <use xlink:href="#DejaVuSans-32" x="352.888672"/>
       <use xlink:href="#DejaVuSans-2e" x="416.511719"/>
       <use xlink:href="#DejaVuSans-33" x="448.298828"/>
      </g>
     </g>
    </g>
    <g id="ytick_9">
     <g id="line2d_15">
      <g>
       <use xlink:href="#mc9241d8fa9" x="144" y="106.290947" style="stroke: #000000; stroke-width: 0.8"/>
      </g>
     </g>
     <g id="text_16">
      <!-- 1.A.62.2.4 -->
      <g transform="translate(85.809375 110.090166) scale(0.1 -0.1)">
       <use xlink:href="#DejaVuSans-31"/>
       <use xlink:href="#DejaVuSans-2e" x="63.623047"/>
       <use xlink:href="#DejaVuSans-41" x="95.410156"/>
       <use xlink:href="#DejaVuSans-2e" x="162.068359"/>
       <use xlink:href="#DejaVuSans-36" x="193.855469"/>
       <use xlink:href="#DejaVuSans-32" x="257.478516"/>
       <use xlink:href="#DejaVuSans-2e" x="321.101562"/>
       <use xlink:href="#DejaVuSans-32" x="352.888672"/>
       <use xlink:href="#DejaVuSans-2e" x="416.511719"/>
       <use xlink:href="#DejaVuSans-34" x="448.298828"/>
      </g>
     </g>
    </g>
    <g id="ytick_10">
     <g id="line2d_16">
      <g>
       <use xlink:href="#mc9241d8fa9" x="144" y="87.722526" style="stroke: #000000; stroke-width: 0.8"/>
      </g>
     </g>
     <g id="text_17">
      <!-- 1.A.62.3.1 -->
      <g transform="translate(85.809375 91.521745) scale(0.1 -0.1)">
       <use xlink:href="#DejaVuSans-31"/>
       <use xlink:href="#DejaVuSans-2e" x="63.623047"/>
       <use xlink:href="#DejaVuSans-41" x="95.410156"/>
       <use xlink:href="#DejaVuSans-2e" x="162.068359"/>
       <use xlink:href="#DejaVuSans-36" x="193.855469"/>
       <use xlink:href="#DejaVuSans-32" x="257.478516"/>
       <use xlink:href="#DejaVuSans-2e" x="321.101562"/>
       <use xlink:href="#DejaVuSans-33" x="352.888672"/>
       <use xlink:href="#DejaVuSans-2e" x="416.511719"/>
       <use xlink:href="#DejaVuSans-31" x="448.298828"/>
      </g>
     </g>
    </g>
    <g id="ytick_11">
     <g id="line2d_17">
      <g>
       <use xlink:href="#mc9241d8fa9" x="144" y="69.154105" style="stroke: #000000; stroke-width: 0.8"/>
      </g>
     </g>
     <g id="text_18">
      <!-- 1.A.62.3.2 -->
      <g transform="translate(85.809375 72.953324) scale(0.1 -0.1)">
       <use xlink:href="#DejaVuSans-31"/>
       <use xlink:href="#DejaVuSans-2e" x="63.623047"/>
       <use xlink:href="#DejaVuSans-41" x="95.410156"/>
       <use xlink:href="#DejaVuSans-2e" x="162.068359"/>
       <use xlink:href="#DejaVuSans-36" x="193.855469"/>
       <use xlink:href="#DejaVuSans-32" x="257.478516"/>
       <use xlink:href="#DejaVuSans-2e" x="321.101562"/>
       <use xlink:href="#DejaVuSans-33" x="352.888672"/>
       <use xlink:href="#DejaVuSans-2e" x="416.511719"/>
       <use xlink:href="#DejaVuSans-32" x="448.298828"/>
      </g>
     </g>
    </g>
    <g id="ytick_12">
     <g id="line2d_18">
      <g>
       <use xlink:href="#mc9241d8fa9" x="144" y="50.585684" style="stroke: #000000; stroke-width: 0.8"/>
      </g>
     </g>
     <g id="text_19">
      <!-- 1.A.62.4.2 -->
      <g transform="translate(85.809375 54.384903) scale(0.1 -0.1)">
       <use xlink:href="#DejaVuSans-31"/>
       <use xlink:href="#DejaVuSans-2e" x="63.623047"/>
       <use xlink:href="#DejaVuSans-41" x="95.410156"/>
       <use xlink:href="#DejaVuSans-2e" x="162.068359"/>
       <use xlink:href="#DejaVuSans-36" x="193.855469"/>
       <use xlink:href="#DejaVuSans-32" x="257.478516"/>
       <use xlink:href="#DejaVuSans-2e" x="321.101562"/>
       <use xlink:href="#DejaVuSans-34" x="352.888672"/>
       <use xlink:href="#DejaVuSans-2e" x="416.511719"/>
       <use xlink:href="#DejaVuSans-32" x="448.298828"/>
      </g>
     </g>
    </g>
   </g>
   <g id="patch_51">
    <path d="M 144 269.136 
L 144 36.288 
" style="fill: none; stroke: #000000; stroke-width: 0.8; stroke-linejoin: miter; stroke-linecap: square"/>
   </g>
   <g id="patch_52">
    <path d="M 1036.8 269.136 
L 1036.8 36.288 
" style="fill: none; stroke: #000000; stroke-width: 0.8; stroke-linejoin: miter; stroke-linecap: square"/>
   </g>
   <g id="patch_53">
    <path d="M 144 269.136 
L 1036.8 269.136 
" style="fill: none; stroke: #000000; stroke-width: 0.8; stroke-linejoin: miter; stroke-linecap: square"/>
   </g>
   <g id="patch_54">
    <path d="M 144 36.288 
L 1036.8 36.288 
" style="fill: none; stroke: #000000; stroke-width: 0.8; stroke-linejoin: miter; stroke-linecap: square"/>
   </g>
   <g id="text_20">
    <!-- 1.A.62 Summary -->
    <g transform="translate(540.2325 30.288) scale(0.12 -0.12)">
     <defs>
      <path id="DejaVuSans-20" transform="scale(0.015625)"/>
      <path id="DejaVuSans-53" d="M 3425 4513 
L 3425 3897 
Q 3066 4069 2747 4153 
Q 2428 4238 2131 4238 
Q 1616 4238 1336 4038 
Q 1056 3838 1056 3469 
Q 1056 3159 1242 3001 
Q 1428 2844 1947 2747 
L 2328 2669 
Q 3034 2534 3370 2195 
Q 3706 1856 3706 1288 
Q 3706 609 3251 259 
Q 2797 -91 1919 -91 
Q 1588 -91 1214 -16 
Q 841 59 441 206 
L 441 856 
Q 825 641 1194 531 
Q 1563 422 1919 422 
Q 2459 422 2753 634 
Q 3047 847 3047 1241 
Q 3047 1584 2836 1778 
Q 2625 1972 2144 2069 
L 1759 2144 
Q 1053 2284 737 2584 
Q 422 2884 422 3419 
Q 422 4038 858 4394 
Q 1294 4750 2059 4750 
Q 2388 4750 2728 4690 
Q 3069 4631 3425 4513 
z
" transform="scale(0.015625)"/>
      <path id="DejaVuSans-6d" d="M 3328 2828 
Q 3544 3216 3844 3400 
Q 4144 3584 4550 3584 
Q 5097 3584 5394 3201 
Q 5691 2819 5691 2113 
L 5691 0 
L 5113 0 
L 5113 2094 
Q 5113 2597 4934 2840 
Q 4756 3084 4391 3084 
Q 3944 3084 3684 2787 
Q 3425 2491 3425 1978 
L 3425 0 
L 2847 0 
L 2847 2094 
Q 2847 2600 2669 2842 
Q 2491 3084 2119 3084 
Q 1678 3084 1418 2786 
Q 1159 2488 1159 1978 
L 1159 0 
L 581 0 
L 581 3500 
L 1159 3500 
L 1159 2956 
Q 1356 3278 1631 3431 
Q 1906 3584 2284 3584 
Q 2666 3584 2933 3390 
Q 3200 3197 3328 2828 
z
" transform="scale(0.015625)"/>
      <path id="DejaVuSans-72" d="M 2631 2963 
Q 2534 3019 2420 3045 
Q 2306 3072 2169 3072 
Q 1681 3072 1420 2755 
Q 1159 2438 1159 1844 
L 1159 0 
L 581 0 
L 581 3500 
L 1159 3500 
L 1159 2956 
Q 1341 3275 1631 3429 
Q 1922 3584 2338 3584 
Q 2397 3584 2469 3576 
Q 2541 3569 2628 3553 
L 2631 2963 
z
" transform="scale(0.015625)"/>
      <path id="DejaVuSans-79" d="M 2059 -325 
Q 1816 -950 1584 -1140 
Q 1353 -1331 966 -1331 
L 506 -1331 
L 506 -850 
L 844 -850 
Q 1081 -850 1212 -737 
Q 1344 -625 1503 -206 
L 1606 56 
L 191 3500 
L 800 3500 
L 1894 763 
L 2988 3500 
L 3597 3500 
L 2059 -325 
z
" transform="scale(0.015625)"/>
     </defs>
     <use xlink:href="#DejaVuSans-31"/>
     <use xlink:href="#DejaVuSans-2e" x="63.623047"/>
     <use xlink:href="#DejaVuSans-41" x="95.410156"/>
     <use xlink:href="#DejaVuSans-2e" x="162.068359"/>
     <use xlink:href="#DejaVuSans-36" x="193.855469"/>
     <use xlink:href="#DejaVuSans-32" x="257.478516"/>
     <use xlink:href="#DejaVuSans-20" x="321.101562"/>
     <use xlink:href="#DejaVuSans-53" x="352.888672"/>
     <use xlink:href="#DejaVuSans-75" x="416.365234"/>
     <use xlink:href="#DejaVuSans-6d" x="479.744141"/>
     <use xlink:href="#DejaVuSans-6d" x="577.15625"/>
     <use xlink:href="#DejaVuSans-61" x="674.568359"/>
     <use xlink:href="#DejaVuSans-72" x="735.847656"/>
     <use xlink:href="#DejaVuSans-79" x="776.960938"/>
    </g>
   </g>
  </g>
 </g>
 <defs>
  <clipPath id="p6448d29f5d">
   <rect x="144" y="36.288" width="892.8" height="232.848"/>
  </clipPath>
 </defs>
</svg>
