<?xml version="1.0" encoding="utf-8" standalone="no"?>
<!DOCTYPE svg PUBLIC "-//W3C//DTD SVG 1.1//EN"
  "http://www.w3.org/Graphics/SVG/1.1/DTD/svg11.dtd">
<svg xmlns:xlink="http://www.w3.org/1999/xlink" width="1152pt" height="280.8pt" viewBox="0 0 1152 280.8" xmlns="http://www.w3.org/2000/svg" version="1.1">
 <metadata>
  <rdf:RDF xmlns:dc="http://purl.org/dc/elements/1.1/" xmlns:cc="http://creativecommons.org/ns#" xmlns:rdf="http://www.w3.org/1999/02/22-rdf-syntax-ns#">
   <cc:Work>
    <dc:type rdf:resource="http://purl.org/dc/dcmitype/StillImage"/>
    <dc:date>2025-01-22T14:24:46.416191</dc:date>
    <dc:format>image/svg+xml</dc:format>
    <dc:creator>
     <cc:Agent>
      <dc:title>Matplotlib v3.8.4, https://matplotlib.org/</dc:title>
     </cc:Agent>
    </dc:creator>
   </cc:Work>
  </rdf:RDF>
 </metadata>
 <defs>
  <style type="text/css">*{stroke-linejoin: round; stroke-linecap: butt}</style>
 </defs>
 <g id="figure_1">
  <g id="patch_1">
   <path d="M 0 280.8 
L 1152 280.8 
L 1152 0 
L 0 0 
z
" style="fill: #ffffff"/>
  </g>
  <g id="axes_1">
   <g id="patch_2">
    <path d="M 144 249.912 
L 1036.8 249.912 
L 1036.8 33.696 
L 144 33.696 
z
" style="fill: #ffffff"/>
   </g>
   <g id="patch_3">
    <path d="M 144 236.5875 
L 160.933144 236.5875 
L 160.933144 236.0205 
L 144 236.0205 
z
" clip-path="url(#p3f3cc2c3d4)" style="fill: #0000ff"/>
   </g>
   <g id="patch_4">
    <path d="M 162.142654 240.084 
L 355.664296 240.084 
L 355.664296 232.524 
L 162.142654 232.524 
z
" clip-path="url(#p3f3cc2c3d4)" style="fill: #0000ff"/>
   </g>
   <g id="patch_5">
    <path d="M 347.197724 240.084 
L 654.413331 240.084 
L 654.413331 232.524 
L 347.197724 232.524 
z
" clip-path="url(#p3f3cc2c3d4)" style="fill: #0000ff"/>
   </g>
   <g id="patch_6">
    <path d="M 383.483032 240.084 
L 668.927454 240.084 
L 668.927454 232.524 
L 383.483032 232.524 
z
" clip-path="url(#p3f3cc2c3d4)" style="fill: #0000ff"/>
   </g>
   <g id="patch_7">
    <path d="M 383.483032 240.084 
L 488.710425 240.084 
L 488.710425 232.524 
L 383.483032 232.524 
z
" clip-path="url(#p3f3cc2c3d4)" style="fill: #0000ff"/>
   </g>
   <g id="patch_8">
    <path d="M 385.902052 240.084 
L 645.946759 240.084 
L 645.946759 232.524 
L 385.902052 232.524 
z
" clip-path="url(#p3f3cc2c3d4)" style="fill: #0000ff"/>
   </g>
   <g id="patch_9">
    <path d="M 404.044706 240.084 
L 642.318228 240.084 
L 642.318228 232.524 
L 404.044706 232.524 
z
" clip-path="url(#p3f3cc2c3d4)" style="fill: #0000ff"/>
   </g>
   <g id="patch_10">
    <path d="M 404.044706 240.084 
L 479.034343 240.084 
L 479.034343 232.524 
L 404.044706 232.524 
z
" clip-path="url(#p3f3cc2c3d4)" style="fill: #0000ff"/>
   </g>
   <g id="patch_11">
    <path d="M 404.044706 240.084 
L 480.243853 240.084 
L 480.243853 232.524 
L 404.044706 232.524 
z
" clip-path="url(#p3f3cc2c3d4)" style="fill: #0000ff"/>
   </g>
   <g id="patch_12">
    <path d="M 405.254217 240.084 
L 479.034343 240.084 
L 479.034343 232.524 
L 405.254217 232.524 
z
" clip-path="url(#p3f3cc2c3d4)" style="fill: #0000ff"/>
   </g>
   <g id="patch_13">
    <path d="M 405.254217 240.084 
L 481.453363 240.084 
L 481.453363 232.524 
L 405.254217 232.524 
z
" clip-path="url(#p3f3cc2c3d4)" style="fill: #0000ff"/>
   </g>
   <g id="patch_14">
    <path d="M 405.254217 240.084 
L 481.453363 240.084 
L 481.453363 232.524 
L 405.254217 232.524 
z
" clip-path="url(#p3f3cc2c3d4)" style="fill: #0000ff"/>
   </g>
   <g id="patch_15">
    <path d="M 497.176997 240.084 
L 660.460882 240.084 
L 660.460882 232.524 
L 497.176997 232.524 
z
" clip-path="url(#p3f3cc2c3d4)" style="fill: #0000ff"/>
   </g>
   <g id="patch_16">
    <path d="M 497.176997 240.084 
L 667.717944 240.084 
L 667.717944 232.524 
L 497.176997 232.524 
z
" clip-path="url(#p3f3cc2c3d4)" style="fill: #0000ff"/>
   </g>
   <g id="patch_17">
    <path d="M 497.176997 240.084 
L 667.717944 240.084 
L 667.717944 232.524 
L 497.176997 232.524 
z
" clip-path="url(#p3f3cc2c3d4)" style="fill: #0000ff"/>
   </g>
   <g id="patch_18">
    <path d="M 497.176997 240.084 
L 665.298923 240.084 
L 665.298923 232.524 
L 497.176997 232.524 
z
" clip-path="url(#p3f3cc2c3d4)" style="fill: #0000ff"/>
   </g>
   <g id="patch_19">
    <path d="M 497.176997 240.084 
L 659.251372 240.084 
L 659.251372 232.524 
L 497.176997 232.524 
z
" clip-path="url(#p3f3cc2c3d4)" style="fill: #0000ff"/>
   </g>
   <g id="patch_20">
    <path d="M 497.176997 240.084 
L 666.508433 240.084 
L 666.508433 232.524 
L 497.176997 232.524 
z
" clip-path="url(#p3f3cc2c3d4)" style="fill: #0000ff"/>
   </g>
   <g id="patch_21">
    <path d="M 499.596017 240.084 
L 654.413331 240.084 
L 654.413331 232.524 
L 499.596017 232.524 
z
" clip-path="url(#p3f3cc2c3d4)" style="fill: #0000ff"/>
   </g>
   <g id="patch_22">
    <path d="M 499.596017 240.084 
L 665.298923 240.084 
L 665.298923 232.524 
L 499.596017 232.524 
z
" clip-path="url(#p3f3cc2c3d4)" style="fill: #0000ff"/>
   </g>
   <g id="patch_23">
    <path d="M 509.272099 240.084 
L 633.851656 240.084 
L 633.851656 232.524 
L 509.272099 232.524 
z
" clip-path="url(#p3f3cc2c3d4)" style="fill: #0000ff"/>
   </g>
   <g id="patch_24">
    <path d="M 518.948181 240.084 
L 632.642146 240.084 
L 632.642146 232.524 
L 518.948181 232.524 
z
" clip-path="url(#p3f3cc2c3d4)" style="fill: #0000ff"/>
   </g>
   <g id="patch_25">
    <path d="M 670.136964 236.5875 
L 671.346474 236.5875 
L 671.346474 236.0205 
L 670.136964 236.0205 
z
" clip-path="url(#p3f3cc2c3d4)" style="fill: #0000ff"/>
   </g>
   <g id="patch_26">
    <path d="M 144 217.6875 
L 145.20951 217.6875 
L 145.20951 217.1205 
L 144 217.1205 
z
" clip-path="url(#p3f3cc2c3d4)" style="fill: #0000ff"/>
   </g>
   <g id="patch_27">
    <path d="M 146.419021 221.184 
L 255.274944 221.184 
L 255.274944 213.624 
L 146.419021 213.624 
z
" clip-path="url(#p3f3cc2c3d4)" style="fill: #0000ff"/>
   </g>
   <g id="patch_28">
    <path d="M 150.047551 221.184 
L 434.282463 221.184 
L 434.282463 213.624 
L 150.047551 213.624 
z
" clip-path="url(#p3f3cc2c3d4)" style="fill: #0000ff"/>
   </g>
   <g id="patch_29">
    <path d="M 152.466572 221.184 
L 419.76834 221.184 
L 419.76834 213.624 
L 152.466572 213.624 
z
" clip-path="url(#p3f3cc2c3d4)" style="fill: #0000ff"/>
   </g>
   <g id="patch_30">
    <path d="M 152.466572 221.184 
L 246.808372 221.184 
L 246.808372 213.624 
L 152.466572 213.624 
z
" clip-path="url(#p3f3cc2c3d4)" style="fill: #0000ff"/>
   </g>
   <g id="patch_31">
    <path d="M 166.980695 221.184 
L 419.76834 221.184 
L 419.76834 213.624 
L 166.980695 213.624 
z
" clip-path="url(#p3f3cc2c3d4)" style="fill: #0000ff"/>
   </g>
   <g id="patch_32">
    <path d="M 170.609226 221.184 
L 245.598862 221.184 
L 245.598862 213.624 
L 170.609226 213.624 
z
" clip-path="url(#p3f3cc2c3d4)" style="fill: #0000ff"/>
   </g>
   <g id="patch_33">
    <path d="M 170.609226 221.184 
L 245.598862 221.184 
L 245.598862 213.624 
L 170.609226 213.624 
z
" clip-path="url(#p3f3cc2c3d4)" style="fill: #0000ff"/>
   </g>
   <g id="patch_34">
    <path d="M 171.818736 221.184 
L 246.808372 221.184 
L 246.808372 213.624 
L 171.818736 213.624 
z
" clip-path="url(#p3f3cc2c3d4)" style="fill: #0000ff"/>
   </g>
   <g id="patch_35">
    <path d="M 239.551311 221.184 
L 396.787645 221.184 
L 396.787645 213.624 
L 239.551311 213.624 
z
" clip-path="url(#p3f3cc2c3d4)" style="fill: #0000ff"/>
   </g>
   <g id="patch_36">
    <path d="M 263.741516 221.184 
L 425.815891 221.184 
L 425.815891 213.624 
L 263.741516 213.624 
z
" clip-path="url(#p3f3cc2c3d4)" style="fill: #0000ff"/>
   </g>
   <g id="patch_37">
    <path d="M 263.741516 221.184 
L 433.072953 221.184 
L 433.072953 213.624 
L 263.741516 213.624 
z
" clip-path="url(#p3f3cc2c3d4)" style="fill: #0000ff"/>
   </g>
   <g id="patch_38">
    <path d="M 263.741516 221.184 
L 433.072953 221.184 
L 433.072953 213.624 
L 263.741516 213.624 
z
" clip-path="url(#p3f3cc2c3d4)" style="fill: #0000ff"/>
   </g>
   <g id="patch_39">
    <path d="M 263.741516 221.184 
L 430.653932 221.184 
L 430.653932 213.624 
L 263.741516 213.624 
z
" clip-path="url(#p3f3cc2c3d4)" style="fill: #0000ff"/>
   </g>
   <g id="patch_40">
    <path d="M 263.741516 221.184 
L 430.653932 221.184 
L 430.653932 213.624 
L 263.741516 213.624 
z
" clip-path="url(#p3f3cc2c3d4)" style="fill: #0000ff"/>
   </g>
   <g id="patch_41">
    <path d="M 263.741516 221.184 
L 430.653932 221.184 
L 430.653932 213.624 
L 263.741516 213.624 
z
" clip-path="url(#p3f3cc2c3d4)" style="fill: #0000ff"/>
   </g>
   <g id="patch_42">
    <path d="M 264.951026 221.184 
L 419.76834 221.184 
L 419.76834 213.624 
L 264.951026 213.624 
z
" clip-path="url(#p3f3cc2c3d4)" style="fill: #0000ff"/>
   </g>
   <g id="patch_43">
    <path d="M 264.951026 221.184 
L 424.606381 221.184 
L 424.606381 213.624 
L 264.951026 213.624 
z
" clip-path="url(#p3f3cc2c3d4)" style="fill: #0000ff"/>
   </g>
   <g id="patch_44">
    <path d="M 296.398293 221.184 
L 405.254217 221.184 
L 405.254217 213.624 
L 296.398293 213.624 
z
" clip-path="url(#p3f3cc2c3d4)" style="fill: #0000ff"/>
   </g>
   <g id="patch_45">
    <path d="M 335.102621 221.184 
L 396.787645 221.184 
L 396.787645 213.624 
L 335.102621 213.624 
z
" clip-path="url(#p3f3cc2c3d4)" style="fill: #0000ff"/>
   </g>
   <g id="patch_46">
    <path d="M 144 198.7875 
L 154.885592 198.7875 
L 154.885592 198.2205 
L 144 198.2205 
z
" clip-path="url(#p3f3cc2c3d4)" style="fill: #0000ff"/>
   </g>
   <g id="patch_47">
    <path d="M 156.095103 202.284 
L 264.951026 202.284 
L 264.951026 194.724 
L 156.095103 194.724 
z
" clip-path="url(#p3f3cc2c3d4)" style="fill: #0000ff"/>
   </g>
   <g id="patch_48">
    <path d="M 159.723633 202.284 
L 443.958545 202.284 
L 443.958545 194.724 
L 159.723633 194.724 
z
" clip-path="url(#p3f3cc2c3d4)" style="fill: #0000ff"/>
   </g>
   <g id="patch_49">
    <path d="M 162.142654 202.284 
L 420.97785 202.284 
L 420.97785 194.724 
L 162.142654 194.724 
z
" clip-path="url(#p3f3cc2c3d4)" style="fill: #0000ff"/>
   </g>
   <g id="patch_50">
    <path d="M 162.142654 202.284 
L 429.444422 202.284 
L 429.444422 194.724 
L 162.142654 194.724 
z
" clip-path="url(#p3f3cc2c3d4)" style="fill: #0000ff"/>
   </g>
   <g id="patch_51">
    <path d="M 180.285308 202.284 
L 417.349319 202.284 
L 417.349319 194.724 
L 180.285308 194.724 
z
" clip-path="url(#p3f3cc2c3d4)" style="fill: #0000ff"/>
   </g>
   <g id="patch_52">
    <path d="M 180.285308 202.284 
L 255.274944 202.284 
L 255.274944 194.724 
L 180.285308 194.724 
z
" clip-path="url(#p3f3cc2c3d4)" style="fill: #0000ff"/>
   </g>
   <g id="patch_53">
    <path d="M 180.285308 202.284 
L 256.484454 202.284 
L 256.484454 194.724 
L 180.285308 194.724 
z
" clip-path="url(#p3f3cc2c3d4)" style="fill: #0000ff"/>
   </g>
   <g id="patch_54">
    <path d="M 181.494818 202.284 
L 255.274944 202.284 
L 255.274944 194.724 
L 181.494818 194.724 
z
" clip-path="url(#p3f3cc2c3d4)" style="fill: #0000ff"/>
   </g>
   <g id="patch_55">
    <path d="M 181.494818 202.284 
L 257.693965 202.284 
L 257.693965 194.724 
L 181.494818 194.724 
z
" clip-path="url(#p3f3cc2c3d4)" style="fill: #0000ff"/>
   </g>
   <g id="patch_56">
    <path d="M 181.494818 202.284 
L 257.693965 202.284 
L 257.693965 194.724 
L 181.494818 194.724 
z
" clip-path="url(#p3f3cc2c3d4)" style="fill: #0000ff"/>
   </g>
   <g id="patch_57">
    <path d="M 273.417598 202.284 
L 435.491973 202.284 
L 435.491973 194.724 
L 273.417598 194.724 
z
" clip-path="url(#p3f3cc2c3d4)" style="fill: #0000ff"/>
   </g>
   <g id="patch_58">
    <path d="M 273.417598 202.284 
L 442.749035 202.284 
L 442.749035 194.724 
L 273.417598 194.724 
z
" clip-path="url(#p3f3cc2c3d4)" style="fill: #0000ff"/>
   </g>
   <g id="patch_59">
    <path d="M 273.417598 202.284 
L 442.749035 202.284 
L 442.749035 194.724 
L 273.417598 194.724 
z
" clip-path="url(#p3f3cc2c3d4)" style="fill: #0000ff"/>
   </g>
   <g id="patch_60">
    <path d="M 273.417598 202.284 
L 440.330014 202.284 
L 440.330014 194.724 
L 273.417598 194.724 
z
" clip-path="url(#p3f3cc2c3d4)" style="fill: #0000ff"/>
   </g>
   <g id="patch_61">
    <path d="M 273.417598 202.284 
L 434.282463 202.284 
L 434.282463 194.724 
L 273.417598 194.724 
z
" clip-path="url(#p3f3cc2c3d4)" style="fill: #0000ff"/>
   </g>
   <g id="patch_62">
    <path d="M 273.417598 202.284 
L 441.539524 202.284 
L 441.539524 194.724 
L 273.417598 194.724 
z
" clip-path="url(#p3f3cc2c3d4)" style="fill: #0000ff"/>
   </g>
   <g id="patch_63">
    <path d="M 275.836619 202.284 
L 429.444422 202.284 
L 429.444422 194.724 
L 275.836619 194.724 
z
" clip-path="url(#p3f3cc2c3d4)" style="fill: #0000ff"/>
   </g>
   <g id="patch_64">
    <path d="M 275.836619 202.284 
L 440.330014 202.284 
L 440.330014 194.724 
L 275.836619 194.724 
z
" clip-path="url(#p3f3cc2c3d4)" style="fill: #0000ff"/>
   </g>
   <g id="patch_65">
    <path d="M 293.979273 202.284 
L 389.530583 202.284 
L 389.530583 194.724 
L 293.979273 194.724 
z
" clip-path="url(#p3f3cc2c3d4)" style="fill: #0000ff"/>
   </g>
   <g id="patch_66">
    <path d="M 295.188783 202.284 
L 407.673237 202.284 
L 407.673237 194.724 
L 295.188783 194.724 
z
" clip-path="url(#p3f3cc2c3d4)" style="fill: #0000ff"/>
   </g>
   <g id="patch_67">
    <path d="M 445.168055 198.7875 
L 446.377566 198.7875 
L 446.377566 198.2205 
L 445.168055 198.2205 
z
" clip-path="url(#p3f3cc2c3d4)" style="fill: #0000ff"/>
   </g>
   <g id="patch_68">
    <path d="M 144 183.384 
L 637.480187 183.384 
L 637.480187 175.824 
L 144 175.824 
z
" clip-path="url(#p3f3cc2c3d4)" style="fill: #0000ff"/>
   </g>
   <g id="patch_69">
    <path d="M 144 183.384 
L 676.184515 183.384 
L 676.184515 175.824 
L 144 175.824 
z
" clip-path="url(#p3f3cc2c3d4)" style="fill: #0000ff"/>
   </g>
   <g id="patch_70">
    <path d="M 145.20951 183.384 
L 637.480187 183.384 
L 637.480187 175.824 
L 145.20951 175.824 
z
" clip-path="url(#p3f3cc2c3d4)" style="fill: #0000ff"/>
   </g>
   <g id="patch_71">
    <path d="M 145.20951 183.384 
L 359.292827 183.384 
L 359.292827 175.824 
L 145.20951 175.824 
z
" clip-path="url(#p3f3cc2c3d4)" style="fill: #0000ff"/>
   </g>
   <g id="patch_72">
    <path d="M 148.838041 183.384 
L 289.141231 183.384 
L 289.141231 175.824 
L 148.838041 175.824 
z
" clip-path="url(#p3f3cc2c3d4)" style="fill: #0000ff"/>
   </g>
   <g id="patch_73">
    <path d="M 148.838041 183.384 
L 781.411908 183.384 
L 781.411908 175.824 
L 148.838041 175.824 
z
" clip-path="url(#p3f3cc2c3d4)" style="fill: #0000ff"/>
   </g>
   <g id="patch_74">
    <path d="M 153.676082 183.384 
L 679.813046 183.384 
L 679.813046 175.824 
L 153.676082 175.824 
z
" clip-path="url(#p3f3cc2c3d4)" style="fill: #0000ff"/>
   </g>
   <g id="patch_75">
    <path d="M 173.028246 183.384 
L 493.548466 183.384 
L 493.548466 175.824 
L 173.028246 175.824 
z
" clip-path="url(#p3f3cc2c3d4)" style="fill: #0000ff"/>
   </g>
   <g id="patch_76">
    <path d="M 712.469823 183.384 
L 994.285714 183.384 
L 994.285714 175.824 
L 712.469823 175.824 
z
" clip-path="url(#p3f3cc2c3d4)" style="fill: #0000ff"/>
   </g>
   <g id="patch_77">
    <path d="M 712.469823 183.384 
L 815.278195 183.384 
L 815.278195 175.824 
L 712.469823 175.824 
z
" clip-path="url(#p3f3cc2c3d4)" style="fill: #0000ff"/>
   </g>
   <g id="patch_78">
    <path d="M 725.774436 183.384 
L 971.305019 183.384 
L 971.305019 175.824 
L 725.774436 175.824 
z
" clip-path="url(#p3f3cc2c3d4)" style="fill: #0000ff"/>
   </g>
   <g id="patch_79">
    <path d="M 728.193457 183.384 
L 971.305019 183.384 
L 971.305019 175.824 
L 728.193457 175.824 
z
" clip-path="url(#p3f3cc2c3d4)" style="fill: #0000ff"/>
   </g>
   <g id="patch_80">
    <path d="M 730.612477 183.384 
L 805.602113 183.384 
L 805.602113 175.824 
L 730.612477 175.824 
z
" clip-path="url(#p3f3cc2c3d4)" style="fill: #0000ff"/>
   </g>
   <g id="patch_81">
    <path d="M 730.612477 183.384 
L 808.021134 183.384 
L 808.021134 175.824 
L 730.612477 175.824 
z
" clip-path="url(#p3f3cc2c3d4)" style="fill: #0000ff"/>
   </g>
   <g id="patch_82">
    <path d="M 731.821987 183.384 
L 805.602113 183.384 
L 805.602113 175.824 
L 731.821987 175.824 
z
" clip-path="url(#p3f3cc2c3d4)" style="fill: #0000ff"/>
   </g>
   <g id="patch_83">
    <path d="M 731.821987 183.384 
L 808.021134 183.384 
L 808.021134 175.824 
L 731.821987 175.824 
z
" clip-path="url(#p3f3cc2c3d4)" style="fill: #0000ff"/>
   </g>
   <g id="patch_84">
    <path d="M 731.821987 183.384 
L 814.068685 183.384 
L 814.068685 175.824 
L 731.821987 175.824 
z
" clip-path="url(#p3f3cc2c3d4)" style="fill: #0000ff"/>
   </g>
   <g id="patch_85">
    <path d="M 795.926031 183.384 
L 944.695794 183.384 
L 944.695794 175.824 
L 795.926031 175.824 
z
" clip-path="url(#p3f3cc2c3d4)" style="fill: #0000ff"/>
   </g>
   <g id="patch_86">
    <path d="M 823.744767 183.384 
L 985.819142 183.384 
L 985.819142 175.824 
L 823.744767 175.824 
z
" clip-path="url(#p3f3cc2c3d4)" style="fill: #0000ff"/>
   </g>
   <g id="patch_87">
    <path d="M 823.744767 183.384 
L 993.076204 183.384 
L 993.076204 175.824 
L 823.744767 175.824 
z
" clip-path="url(#p3f3cc2c3d4)" style="fill: #0000ff"/>
   </g>
   <g id="patch_88">
    <path d="M 823.744767 183.384 
L 993.076204 183.384 
L 993.076204 175.824 
L 823.744767 175.824 
z
" clip-path="url(#p3f3cc2c3d4)" style="fill: #0000ff"/>
   </g>
   <g id="patch_89">
    <path d="M 823.744767 183.384 
L 990.657183 183.384 
L 990.657183 175.824 
L 823.744767 175.824 
z
" clip-path="url(#p3f3cc2c3d4)" style="fill: #0000ff"/>
   </g>
   <g id="patch_90">
    <path d="M 823.744767 183.384 
L 985.819142 183.384 
L 985.819142 175.824 
L 823.744767 175.824 
z
" clip-path="url(#p3f3cc2c3d4)" style="fill: #0000ff"/>
   </g>
   <g id="patch_91">
    <path d="M 823.744767 183.384 
L 990.657183 183.384 
L 990.657183 175.824 
L 823.744767 175.824 
z
" clip-path="url(#p3f3cc2c3d4)" style="fill: #0000ff"/>
   </g>
   <g id="patch_92">
    <path d="M 823.744767 183.384 
L 991.866694 183.384 
L 991.866694 175.824 
L 823.744767 175.824 
z
" clip-path="url(#p3f3cc2c3d4)" style="fill: #0000ff"/>
   </g>
   <g id="patch_93">
    <path d="M 824.954278 183.384 
L 979.771591 183.384 
L 979.771591 175.824 
L 824.954278 175.824 
z
" clip-path="url(#p3f3cc2c3d4)" style="fill: #0000ff"/>
   </g>
   <g id="patch_94">
    <path d="M 144 160.9875 
L 152.466572 160.9875 
L 152.466572 160.4205 
L 144 160.4205 
z
" clip-path="url(#p3f3cc2c3d4)" style="fill: #0000ff"/>
   </g>
   <g id="patch_95">
    <path d="M 153.676082 164.484 
L 262.532006 164.484 
L 262.532006 156.924 
L 153.676082 156.924 
z
" clip-path="url(#p3f3cc2c3d4)" style="fill: #0000ff"/>
   </g>
   <g id="patch_96">
    <path d="M 157.304613 164.484 
L 439.120504 164.484 
L 439.120504 156.924 
L 157.304613 156.924 
z
" clip-path="url(#p3f3cc2c3d4)" style="fill: #0000ff"/>
   </g>
   <g id="patch_97">
    <path d="M 159.723633 164.484 
L 433.072953 164.484 
L 433.072953 156.924 
L 159.723633 156.924 
z
" clip-path="url(#p3f3cc2c3d4)" style="fill: #0000ff"/>
   </g>
   <g id="patch_98">
    <path d="M 159.723633 164.484 
L 423.396871 164.484 
L 423.396871 156.924 
L 159.723633 156.924 
z
" clip-path="url(#p3f3cc2c3d4)" style="fill: #0000ff"/>
   </g>
   <g id="patch_99">
    <path d="M 177.866287 164.484 
L 252.855924 164.484 
L 252.855924 156.924 
L 177.866287 156.924 
z
" clip-path="url(#p3f3cc2c3d4)" style="fill: #0000ff"/>
   </g>
   <g id="patch_100">
    <path d="M 177.866287 164.484 
L 232.294249 164.484 
L 232.294249 156.924 
L 177.866287 156.924 
z
" clip-path="url(#p3f3cc2c3d4)" style="fill: #0000ff"/>
   </g>
   <g id="patch_101">
    <path d="M 179.075798 164.484 
L 252.855924 164.484 
L 252.855924 156.924 
L 179.075798 156.924 
z
" clip-path="url(#p3f3cc2c3d4)" style="fill: #0000ff"/>
   </g>
   <g id="patch_102">
    <path d="M 179.075798 164.484 
L 261.322495 164.484 
L 261.322495 156.924 
L 179.075798 156.924 
z
" clip-path="url(#p3f3cc2c3d4)" style="fill: #0000ff"/>
   </g>
   <g id="patch_103">
    <path d="M 246.808372 164.484 
L 406.463727 164.484 
L 406.463727 156.924 
L 246.808372 156.924 
z
" clip-path="url(#p3f3cc2c3d4)" style="fill: #0000ff"/>
   </g>
   <g id="patch_104">
    <path d="M 270.998578 164.484 
L 433.072953 164.484 
L 433.072953 156.924 
L 270.998578 156.924 
z
" clip-path="url(#p3f3cc2c3d4)" style="fill: #0000ff"/>
   </g>
   <g id="patch_105">
    <path d="M 270.998578 164.484 
L 439.120504 164.484 
L 439.120504 156.924 
L 270.998578 156.924 
z
" clip-path="url(#p3f3cc2c3d4)" style="fill: #0000ff"/>
   </g>
   <g id="patch_106">
    <path d="M 270.998578 164.484 
L 439.120504 164.484 
L 439.120504 156.924 
L 270.998578 156.924 
z
" clip-path="url(#p3f3cc2c3d4)" style="fill: #0000ff"/>
   </g>
   <g id="patch_107">
    <path d="M 270.998578 164.484 
L 437.910994 164.484 
L 437.910994 156.924 
L 270.998578 156.924 
z
" clip-path="url(#p3f3cc2c3d4)" style="fill: #0000ff"/>
   </g>
   <g id="patch_108">
    <path d="M 270.998578 164.484 
L 431.863442 164.484 
L 431.863442 156.924 
L 270.998578 156.924 
z
" clip-path="url(#p3f3cc2c3d4)" style="fill: #0000ff"/>
   </g>
   <g id="patch_109">
    <path d="M 270.998578 164.484 
L 439.120504 164.484 
L 439.120504 156.924 
L 270.998578 156.924 
z
" clip-path="url(#p3f3cc2c3d4)" style="fill: #0000ff"/>
   </g>
   <g id="patch_110">
    <path d="M 272.208088 164.484 
L 427.025401 164.484 
L 427.025401 156.924 
L 272.208088 156.924 
z
" clip-path="url(#p3f3cc2c3d4)" style="fill: #0000ff"/>
   </g>
   <g id="patch_111">
    <path d="M 273.417598 164.484 
L 437.910994 164.484 
L 437.910994 156.924 
L 273.417598 156.924 
z
" clip-path="url(#p3f3cc2c3d4)" style="fill: #0000ff"/>
   </g>
   <g id="patch_112">
    <path d="M 347.197724 164.484 
L 404.044706 164.484 
L 404.044706 156.924 
L 347.197724 156.924 
z
" clip-path="url(#p3f3cc2c3d4)" style="fill: #0000ff"/>
   </g>
   <g id="patch_113">
    <path d="M 440.330014 160.9875 
L 441.539524 160.9875 
L 441.539524 160.4205 
L 440.330014 160.4205 
z
" clip-path="url(#p3f3cc2c3d4)" style="fill: #0000ff"/>
   </g>
   <g id="patch_114">
    <path d="M 144 142.0875 
L 158.514123 142.0875 
L 158.514123 141.5205 
L 144 141.5205 
z
" clip-path="url(#p3f3cc2c3d4)" style="fill: #0000ff"/>
   </g>
   <g id="patch_115">
    <path d="M 159.723633 145.584 
L 268.579557 145.584 
L 268.579557 138.024 
L 159.723633 138.024 
z
" clip-path="url(#p3f3cc2c3d4)" style="fill: #0000ff"/>
   </g>
   <g id="patch_116">
    <path d="M 162.142654 145.584 
L 424.606381 145.584 
L 424.606381 138.024 
L 162.142654 138.024 
z
" clip-path="url(#p3f3cc2c3d4)" style="fill: #0000ff"/>
   </g>
   <g id="patch_117">
    <path d="M 163.352164 145.584 
L 447.587076 145.584 
L 447.587076 138.024 
L 163.352164 138.024 
z
" clip-path="url(#p3f3cc2c3d4)" style="fill: #0000ff"/>
   </g>
   <g id="patch_118">
    <path d="M 165.771185 145.584 
L 433.072953 145.584 
L 433.072953 138.024 
L 165.771185 138.024 
z
" clip-path="url(#p3f3cc2c3d4)" style="fill: #0000ff"/>
   </g>
   <g id="patch_119">
    <path d="M 183.913839 145.584 
L 258.903475 145.584 
L 258.903475 138.024 
L 183.913839 138.024 
z
" clip-path="url(#p3f3cc2c3d4)" style="fill: #0000ff"/>
   </g>
   <g id="patch_120">
    <path d="M 183.913839 145.584 
L 260.112985 145.584 
L 260.112985 138.024 
L 183.913839 138.024 
z
" clip-path="url(#p3f3cc2c3d4)" style="fill: #0000ff"/>
   </g>
   <g id="patch_121">
    <path d="M 185.123349 145.584 
L 258.903475 145.584 
L 258.903475 138.024 
L 185.123349 138.024 
z
" clip-path="url(#p3f3cc2c3d4)" style="fill: #0000ff"/>
   </g>
   <g id="patch_122">
    <path d="M 185.123349 145.584 
L 260.112985 145.584 
L 260.112985 138.024 
L 185.123349 138.024 
z
" clip-path="url(#p3f3cc2c3d4)" style="fill: #0000ff"/>
   </g>
   <g id="patch_123">
    <path d="M 249.227393 145.584 
L 395.578135 145.584 
L 395.578135 138.024 
L 249.227393 138.024 
z
" clip-path="url(#p3f3cc2c3d4)" style="fill: #0000ff"/>
   </g>
   <g id="patch_124">
    <path d="M 277.046129 145.584 
L 439.120504 145.584 
L 439.120504 138.024 
L 277.046129 138.024 
z
" clip-path="url(#p3f3cc2c3d4)" style="fill: #0000ff"/>
   </g>
   <g id="patch_125">
    <path d="M 277.046129 145.584 
L 446.377566 145.584 
L 446.377566 138.024 
L 277.046129 138.024 
z
" clip-path="url(#p3f3cc2c3d4)" style="fill: #0000ff"/>
   </g>
   <g id="patch_126">
    <path d="M 277.046129 145.584 
L 446.377566 145.584 
L 446.377566 138.024 
L 277.046129 138.024 
z
" clip-path="url(#p3f3cc2c3d4)" style="fill: #0000ff"/>
   </g>
   <g id="patch_127">
    <path d="M 277.046129 145.584 
L 443.958545 145.584 
L 443.958545 138.024 
L 277.046129 138.024 
z
" clip-path="url(#p3f3cc2c3d4)" style="fill: #0000ff"/>
   </g>
   <g id="patch_128">
    <path d="M 277.046129 145.584 
L 439.120504 145.584 
L 439.120504 138.024 
L 277.046129 138.024 
z
" clip-path="url(#p3f3cc2c3d4)" style="fill: #0000ff"/>
   </g>
   <g id="patch_129">
    <path d="M 277.046129 145.584 
L 443.958545 145.584 
L 443.958545 138.024 
L 277.046129 138.024 
z
" clip-path="url(#p3f3cc2c3d4)" style="fill: #0000ff"/>
   </g>
   <g id="patch_130">
    <path d="M 277.046129 145.584 
L 445.168055 145.584 
L 445.168055 138.024 
L 277.046129 138.024 
z
" clip-path="url(#p3f3cc2c3d4)" style="fill: #0000ff"/>
   </g>
   <g id="patch_131">
    <path d="M 278.255639 145.584 
L 433.072953 145.584 
L 433.072953 138.024 
L 278.255639 138.024 
z
" clip-path="url(#p3f3cc2c3d4)" style="fill: #0000ff"/>
   </g>
   <g id="patch_132">
    <path d="M 448.796586 142.0875 
L 448.796586 142.0875 
L 448.796586 141.5205 
L 448.796586 141.5205 
z
" clip-path="url(#p3f3cc2c3d4)" style="fill: #0000ff"/>
   </g>
   <g id="patch_133">
    <path d="M 144 126.684 
L 252.855924 126.684 
L 252.855924 119.124 
L 144 119.124 
z
" clip-path="url(#p3f3cc2c3d4)" style="fill: #0000ff"/>
   </g>
   <g id="patch_134">
    <path d="M 148.838041 126.684 
L 419.76834 126.684 
L 419.76834 119.124 
L 148.838041 119.124 
z
" clip-path="url(#p3f3cc2c3d4)" style="fill: #0000ff"/>
   </g>
   <g id="patch_135">
    <path d="M 150.047551 126.684 
L 427.025401 126.684 
L 427.025401 119.124 
L 150.047551 119.124 
z
" clip-path="url(#p3f3cc2c3d4)" style="fill: #0000ff"/>
   </g>
   <g id="patch_136">
    <path d="M 150.047551 126.684 
L 424.606381 126.684 
L 424.606381 119.124 
L 150.047551 119.124 
z
" clip-path="url(#p3f3cc2c3d4)" style="fill: #0000ff"/>
   </g>
   <g id="patch_137">
    <path d="M 168.190205 126.684 
L 358.083316 126.684 
L 358.083316 119.124 
L 168.190205 119.124 
z
" clip-path="url(#p3f3cc2c3d4)" style="fill: #0000ff"/>
   </g>
   <g id="patch_138">
    <path d="M 168.190205 126.684 
L 243.179841 126.684 
L 243.179841 119.124 
L 168.190205 119.124 
z
" clip-path="url(#p3f3cc2c3d4)" style="fill: #0000ff"/>
   </g>
   <g id="patch_139">
    <path d="M 168.190205 126.684 
L 245.598862 126.684 
L 245.598862 119.124 
L 168.190205 119.124 
z
" clip-path="url(#p3f3cc2c3d4)" style="fill: #0000ff"/>
   </g>
   <g id="patch_140">
    <path d="M 169.399716 126.684 
L 250.436903 126.684 
L 250.436903 119.124 
L 169.399716 119.124 
z
" clip-path="url(#p3f3cc2c3d4)" style="fill: #0000ff"/>
   </g>
   <g id="patch_141">
    <path d="M 249.227393 126.684 
L 422.18736 126.684 
L 422.18736 119.124 
L 249.227393 119.124 
z
" clip-path="url(#p3f3cc2c3d4)" style="fill: #0000ff"/>
   </g>
   <g id="patch_142">
    <path d="M 261.322495 126.684 
L 420.97785 126.684 
L 420.97785 119.124 
L 261.322495 119.124 
z
" clip-path="url(#p3f3cc2c3d4)" style="fill: #0000ff"/>
   </g>
   <g id="patch_143">
    <path d="M 261.322495 126.684 
L 419.76834 126.684 
L 419.76834 119.124 
L 261.322495 119.124 
z
" clip-path="url(#p3f3cc2c3d4)" style="fill: #0000ff"/>
   </g>
   <g id="patch_144">
    <path d="M 261.322495 126.684 
L 419.76834 126.684 
L 419.76834 119.124 
L 261.322495 119.124 
z
" clip-path="url(#p3f3cc2c3d4)" style="fill: #0000ff"/>
   </g>
   <g id="patch_145">
    <path d="M 261.322495 126.684 
L 420.97785 126.684 
L 420.97785 119.124 
L 261.322495 119.124 
z
" clip-path="url(#p3f3cc2c3d4)" style="fill: #0000ff"/>
   </g>
   <g id="patch_146">
    <path d="M 263.741516 126.684 
L 419.76834 126.684 
L 419.76834 119.124 
L 263.741516 119.124 
z
" clip-path="url(#p3f3cc2c3d4)" style="fill: #0000ff"/>
   </g>
   <g id="patch_147">
    <path d="M 263.741516 126.684 
L 419.76834 126.684 
L 419.76834 119.124 
L 263.741516 119.124 
z
" clip-path="url(#p3f3cc2c3d4)" style="fill: #0000ff"/>
   </g>
   <g id="patch_148">
    <path d="M 263.741516 126.684 
L 419.76834 126.684 
L 419.76834 119.124 
L 263.741516 119.124 
z
" clip-path="url(#p3f3cc2c3d4)" style="fill: #0000ff"/>
   </g>
   <g id="patch_149">
    <path d="M 274.627108 126.684 
L 393.159114 126.684 
L 393.159114 119.124 
L 274.627108 119.124 
z
" clip-path="url(#p3f3cc2c3d4)" style="fill: #0000ff"/>
   </g>
   <g id="patch_150">
    <path d="M 293.979273 126.684 
L 393.159114 126.684 
L 393.159114 119.124 
L 293.979273 119.124 
z
" clip-path="url(#p3f3cc2c3d4)" style="fill: #0000ff"/>
   </g>
   <g id="patch_151">
    <path d="M 428.234912 123.1875 
L 428.234912 123.1875 
L 428.234912 122.6205 
L 428.234912 122.6205 
z
" clip-path="url(#p3f3cc2c3d4)" style="fill: #0000ff"/>
   </g>
   <g id="patch_152">
    <path d="M 144 107.784 
L 400.416176 107.784 
L 400.416176 100.224 
L 144 100.224 
z
" clip-path="url(#p3f3cc2c3d4)" style="fill: #0000ff"/>
   </g>
   <g id="patch_153">
    <path d="M 146.419021 107.784 
L 388.321073 107.784 
L 388.321073 100.224 
L 146.419021 100.224 
z
" clip-path="url(#p3f3cc2c3d4)" style="fill: #0000ff"/>
   </g>
   <g id="patch_154">
    <path d="M 146.419021 107.784 
L 397.997155 107.784 
L 397.997155 100.224 
L 146.419021 100.224 
z
" clip-path="url(#p3f3cc2c3d4)" style="fill: #0000ff"/>
   </g>
   <g id="patch_155">
    <path d="M 146.419021 107.784 
L 241.970331 107.784 
L 241.970331 100.224 
L 146.419021 100.224 
z
" clip-path="url(#p3f3cc2c3d4)" style="fill: #0000ff"/>
   </g>
   <g id="patch_156">
    <path d="M 150.047551 107.784 
L 243.179841 107.784 
L 243.179841 100.224 
L 150.047551 100.224 
z
" clip-path="url(#p3f3cc2c3d4)" style="fill: #0000ff"/>
   </g>
   <g id="patch_157">
    <path d="M 162.142654 107.784 
L 385.902052 107.784 
L 385.902052 100.224 
L 162.142654 100.224 
z
" clip-path="url(#p3f3cc2c3d4)" style="fill: #0000ff"/>
   </g>
   <g id="patch_158">
    <path d="M 162.142654 107.784 
L 235.92278 107.784 
L 235.92278 100.224 
L 162.142654 100.224 
z
" clip-path="url(#p3f3cc2c3d4)" style="fill: #0000ff"/>
   </g>
   <g id="patch_159">
    <path d="M 162.142654 107.784 
L 235.92278 107.784 
L 235.92278 100.224 
L 162.142654 100.224 
z
" clip-path="url(#p3f3cc2c3d4)" style="fill: #0000ff"/>
   </g>
   <g id="patch_160">
    <path d="M 165.771185 107.784 
L 225.037188 107.784 
L 225.037188 100.224 
L 165.771185 100.224 
z
" clip-path="url(#p3f3cc2c3d4)" style="fill: #0000ff"/>
   </g>
   <g id="patch_161">
    <path d="M 165.771185 107.784 
L 383.483032 107.784 
L 383.483032 100.224 
L 165.771185 100.224 
z
" clip-path="url(#p3f3cc2c3d4)" style="fill: #0000ff"/>
   </g>
   <g id="patch_162">
    <path d="M 165.771185 107.784 
L 244.389352 107.784 
L 244.389352 100.224 
L 165.771185 100.224 
z
" clip-path="url(#p3f3cc2c3d4)" style="fill: #0000ff"/>
   </g>
   <g id="patch_163">
    <path d="M 165.771185 107.784 
L 249.227393 107.784 
L 249.227393 100.224 
L 165.771185 100.224 
z
" clip-path="url(#p3f3cc2c3d4)" style="fill: #0000ff"/>
   </g>
   <g id="patch_164">
    <path d="M 166.980695 107.784 
L 243.179841 107.784 
L 243.179841 100.224 
L 166.980695 100.224 
z
" clip-path="url(#p3f3cc2c3d4)" style="fill: #0000ff"/>
   </g>
   <g id="patch_165">
    <path d="M 166.980695 107.784 
L 235.92278 107.784 
L 235.92278 100.224 
L 166.980695 100.224 
z
" clip-path="url(#p3f3cc2c3d4)" style="fill: #0000ff"/>
   </g>
   <g id="patch_166">
    <path d="M 166.980695 107.784 
L 229.875229 107.784 
L 229.875229 100.224 
L 166.980695 100.224 
z
" clip-path="url(#p3f3cc2c3d4)" style="fill: #0000ff"/>
   </g>
   <g id="patch_167">
    <path d="M 166.980695 107.784 
L 243.179841 107.784 
L 243.179841 100.224 
L 166.980695 100.224 
z
" clip-path="url(#p3f3cc2c3d4)" style="fill: #0000ff"/>
   </g>
   <g id="patch_168">
    <path d="M 168.190205 107.784 
L 249.227393 107.784 
L 249.227393 100.224 
L 168.190205 100.224 
z
" clip-path="url(#p3f3cc2c3d4)" style="fill: #0000ff"/>
   </g>
   <g id="patch_169">
    <path d="M 168.190205 107.784 
L 245.598862 107.784 
L 245.598862 100.224 
L 168.190205 100.224 
z
" clip-path="url(#p3f3cc2c3d4)" style="fill: #0000ff"/>
   </g>
   <g id="patch_170">
    <path d="M 168.190205 107.784 
L 245.598862 107.784 
L 245.598862 100.224 
L 168.190205 100.224 
z
" clip-path="url(#p3f3cc2c3d4)" style="fill: #0000ff"/>
   </g>
   <g id="patch_171">
    <path d="M 168.190205 107.784 
L 240.760821 107.784 
L 240.760821 100.224 
L 168.190205 100.224 
z
" clip-path="url(#p3f3cc2c3d4)" style="fill: #0000ff"/>
   </g>
   <g id="patch_172">
    <path d="M 168.190205 107.784 
L 240.760821 107.784 
L 240.760821 100.224 
L 168.190205 100.224 
z
" clip-path="url(#p3f3cc2c3d4)" style="fill: #0000ff"/>
   </g>
   <g id="patch_173">
    <path d="M 168.190205 107.784 
L 241.970331 107.784 
L 241.970331 100.224 
L 168.190205 100.224 
z
" clip-path="url(#p3f3cc2c3d4)" style="fill: #0000ff"/>
   </g>
   <g id="patch_174">
    <path d="M 170.609226 107.784 
L 240.760821 107.784 
L 240.760821 100.224 
L 170.609226 100.224 
z
" clip-path="url(#p3f3cc2c3d4)" style="fill: #0000ff"/>
   </g>
   <g id="patch_175">
    <path d="M 170.609226 107.784 
L 245.598862 107.784 
L 245.598862 100.224 
L 170.609226 100.224 
z
" clip-path="url(#p3f3cc2c3d4)" style="fill: #0000ff"/>
   </g>
   <g id="patch_176">
    <path d="M 179.075798 107.784 
L 245.598862 107.784 
L 245.598862 100.224 
L 179.075798 100.224 
z
" clip-path="url(#p3f3cc2c3d4)" style="fill: #0000ff"/>
   </g>
   <g id="patch_177">
    <path d="M 199.637472 107.784 
L 239.551311 107.784 
L 239.551311 100.224 
L 199.637472 100.224 
z
" clip-path="url(#p3f3cc2c3d4)" style="fill: #0000ff"/>
   </g>
   <g id="patch_178">
    <path d="M 250.436903 107.784 
L 396.787645 107.784 
L 396.787645 100.224 
L 250.436903 100.224 
z
" clip-path="url(#p3f3cc2c3d4)" style="fill: #0000ff"/>
   </g>
   <g id="patch_179">
    <path d="M 254.065434 107.784 
L 399.206665 107.784 
L 399.206665 100.224 
L 254.065434 100.224 
z
" clip-path="url(#p3f3cc2c3d4)" style="fill: #0000ff"/>
   </g>
   <g id="patch_180">
    <path d="M 255.274944 107.784 
L 394.368624 107.784 
L 394.368624 100.224 
L 255.274944 100.224 
z
" clip-path="url(#p3f3cc2c3d4)" style="fill: #0000ff"/>
   </g>
   <g id="patch_181">
    <path d="M 256.484454 107.784 
L 388.321073 107.784 
L 388.321073 100.224 
L 256.484454 100.224 
z
" clip-path="url(#p3f3cc2c3d4)" style="fill: #0000ff"/>
   </g>
   <g id="patch_182">
    <path d="M 256.484454 107.784 
L 394.368624 107.784 
L 394.368624 100.224 
L 256.484454 100.224 
z
" clip-path="url(#p3f3cc2c3d4)" style="fill: #0000ff"/>
   </g>
   <g id="patch_183">
    <path d="M 256.484454 107.784 
L 379.854501 107.784 
L 379.854501 100.224 
L 256.484454 100.224 
z
" clip-path="url(#p3f3cc2c3d4)" style="fill: #0000ff"/>
   </g>
   <g id="patch_184">
    <path d="M 256.484454 107.784 
L 379.854501 107.784 
L 379.854501 100.224 
L 256.484454 100.224 
z
" clip-path="url(#p3f3cc2c3d4)" style="fill: #0000ff"/>
   </g>
   <g id="patch_185">
    <path d="M 256.484454 107.784 
L 379.854501 107.784 
L 379.854501 100.224 
L 256.484454 100.224 
z
" clip-path="url(#p3f3cc2c3d4)" style="fill: #0000ff"/>
   </g>
   <g id="patch_186">
    <path d="M 257.693965 107.784 
L 368.968909 107.784 
L 368.968909 100.224 
L 257.693965 100.224 
z
" clip-path="url(#p3f3cc2c3d4)" style="fill: #0000ff"/>
   </g>
   <g id="patch_187">
    <path d="M 277.046129 107.784 
L 373.80695 107.784 
L 373.80695 100.224 
L 277.046129 100.224 
z
" clip-path="url(#p3f3cc2c3d4)" style="fill: #0000ff"/>
   </g>
   <g id="patch_188">
    <path d="M 283.09368 107.784 
L 335.102621 107.784 
L 335.102621 100.224 
L 283.09368 100.224 
z
" clip-path="url(#p3f3cc2c3d4)" style="fill: #0000ff"/>
   </g>
   <g id="patch_189">
    <path d="M 290.350742 107.784 
L 379.854501 107.784 
L 379.854501 100.224 
L 290.350742 100.224 
z
" clip-path="url(#p3f3cc2c3d4)" style="fill: #0000ff"/>
   </g>
   <g id="patch_190">
    <path d="M 296.398293 107.784 
L 379.854501 107.784 
L 379.854501 100.224 
L 296.398293 100.224 
z
" clip-path="url(#p3f3cc2c3d4)" style="fill: #0000ff"/>
   </g>
   <g id="patch_191">
    <path d="M 296.398293 107.784 
L 366.549888 107.784 
L 366.549888 100.224 
L 296.398293 100.224 
z
" clip-path="url(#p3f3cc2c3d4)" style="fill: #0000ff"/>
   </g>
   <g id="patch_192">
    <path d="M 296.398293 107.784 
L 360.502337 107.784 
L 360.502337 100.224 
L 296.398293 100.224 
z
" clip-path="url(#p3f3cc2c3d4)" style="fill: #0000ff"/>
   </g>
   <g id="patch_193">
    <path d="M 144 88.884 
L 330.26458 88.884 
L 330.26458 81.324 
L 144 81.324 
z
" clip-path="url(#p3f3cc2c3d4)" style="fill: #0000ff"/>
   </g>
   <g id="patch_194">
    <path d="M 144 88.884 
L 226.246698 88.884 
L 226.246698 81.324 
L 144 81.324 
z
" clip-path="url(#p3f3cc2c3d4)" style="fill: #0000ff"/>
   </g>
   <g id="patch_195">
    <path d="M 145.20951 88.884 
L 327.84556 88.884 
L 327.84556 81.324 
L 145.20951 81.324 
z
" clip-path="url(#p3f3cc2c3d4)" style="fill: #0000ff"/>
   </g>
   <g id="patch_196">
    <path d="M 145.20951 88.884 
L 352.035765 88.884 
L 352.035765 81.324 
L 145.20951 81.324 
z
" clip-path="url(#p3f3cc2c3d4)" style="fill: #0000ff"/>
   </g>
   <g id="patch_197">
    <path d="M 145.20951 88.884 
L 227.456208 88.884 
L 227.456208 81.324 
L 145.20951 81.324 
z
" clip-path="url(#p3f3cc2c3d4)" style="fill: #0000ff"/>
   </g>
   <g id="patch_198">
    <path d="M 145.20951 88.884 
L 227.456208 88.884 
L 227.456208 81.324 
L 145.20951 81.324 
z
" clip-path="url(#p3f3cc2c3d4)" style="fill: #0000ff"/>
   </g>
   <g id="patch_199">
    <path d="M 145.20951 88.884 
L 226.246698 88.884 
L 226.246698 81.324 
L 145.20951 81.324 
z
" clip-path="url(#p3f3cc2c3d4)" style="fill: #0000ff"/>
   </g>
   <g id="patch_200">
    <path d="M 145.20951 88.884 
L 226.246698 88.884 
L 226.246698 81.324 
L 145.20951 81.324 
z
" clip-path="url(#p3f3cc2c3d4)" style="fill: #0000ff"/>
   </g>
   <g id="patch_201">
    <path d="M 145.20951 88.884 
L 227.456208 88.884 
L 227.456208 81.324 
L 145.20951 81.324 
z
" clip-path="url(#p3f3cc2c3d4)" style="fill: #0000ff"/>
   </g>
   <g id="patch_202">
    <path d="M 145.20951 88.884 
L 227.456208 88.884 
L 227.456208 81.324 
L 145.20951 81.324 
z
" clip-path="url(#p3f3cc2c3d4)" style="fill: #0000ff"/>
   </g>
   <g id="patch_203">
    <path d="M 145.20951 88.884 
L 226.246698 88.884 
L 226.246698 81.324 
L 145.20951 81.324 
z
" clip-path="url(#p3f3cc2c3d4)" style="fill: #0000ff"/>
   </g>
   <g id="patch_204">
    <path d="M 145.20951 88.884 
L 231.084739 88.884 
L 231.084739 81.324 
L 145.20951 81.324 
z
" clip-path="url(#p3f3cc2c3d4)" style="fill: #0000ff"/>
   </g>
   <g id="patch_205">
    <path d="M 145.20951 88.884 
L 227.456208 88.884 
L 227.456208 81.324 
L 145.20951 81.324 
z
" clip-path="url(#p3f3cc2c3d4)" style="fill: #0000ff"/>
   </g>
   <g id="patch_206">
    <path d="M 146.419021 88.884 
L 227.456208 88.884 
L 227.456208 81.324 
L 146.419021 81.324 
z
" clip-path="url(#p3f3cc2c3d4)" style="fill: #0000ff"/>
   </g>
   <g id="patch_207">
    <path d="M 147.628531 88.884 
L 235.92278 88.884 
L 235.92278 81.324 
L 147.628531 81.324 
z
" clip-path="url(#p3f3cc2c3d4)" style="fill: #0000ff"/>
   </g>
   <g id="patch_208">
    <path d="M 154.885592 88.884 
L 255.274944 88.884 
L 255.274944 81.324 
L 154.885592 81.324 
z
" clip-path="url(#p3f3cc2c3d4)" style="fill: #0000ff"/>
   </g>
   <g id="patch_209">
    <path d="M 154.885592 88.884 
L 229.875229 88.884 
L 229.875229 81.324 
L 154.885592 81.324 
z
" clip-path="url(#p3f3cc2c3d4)" style="fill: #0000ff"/>
   </g>
   <g id="patch_210">
    <path d="M 157.304613 88.884 
L 243.179841 88.884 
L 243.179841 81.324 
L 157.304613 81.324 
z
" clip-path="url(#p3f3cc2c3d4)" style="fill: #0000ff"/>
   </g>
   <g id="patch_211">
    <path d="M 157.304613 88.884 
L 240.760821 88.884 
L 240.760821 81.324 
L 157.304613 81.324 
z
" clip-path="url(#p3f3cc2c3d4)" style="fill: #0000ff"/>
   </g>
   <g id="patch_212">
    <path d="M 157.304613 88.884 
L 329.05507 88.884 
L 329.05507 81.324 
L 157.304613 81.324 
z
" clip-path="url(#p3f3cc2c3d4)" style="fill: #0000ff"/>
   </g>
   <g id="patch_213">
    <path d="M 157.304613 88.884 
L 227.456208 88.884 
L 227.456208 81.324 
L 157.304613 81.324 
z
" clip-path="url(#p3f3cc2c3d4)" style="fill: #0000ff"/>
   </g>
   <g id="patch_214">
    <path d="M 159.723633 88.884 
L 251.646413 88.884 
L 251.646413 81.324 
L 159.723633 81.324 
z
" clip-path="url(#p3f3cc2c3d4)" style="fill: #0000ff"/>
   </g>
   <g id="patch_215">
    <path d="M 160.933144 88.884 
L 330.26458 88.884 
L 330.26458 81.324 
L 160.933144 81.324 
z
" clip-path="url(#p3f3cc2c3d4)" style="fill: #0000ff"/>
   </g>
   <g id="patch_216">
    <path d="M 168.190205 88.884 
L 232.294249 88.884 
L 232.294249 81.324 
L 168.190205 81.324 
z
" clip-path="url(#p3f3cc2c3d4)" style="fill: #0000ff"/>
   </g>
   <g id="patch_217">
    <path d="M 169.399716 88.884 
L 226.246698 88.884 
L 226.246698 81.324 
L 169.399716 81.324 
z
" clip-path="url(#p3f3cc2c3d4)" style="fill: #0000ff"/>
   </g>
   <g id="patch_218">
    <path d="M 170.609226 88.884 
L 226.246698 88.884 
L 226.246698 81.324 
L 170.609226 81.324 
z
" clip-path="url(#p3f3cc2c3d4)" style="fill: #0000ff"/>
   </g>
   <g id="patch_219">
    <path d="M 171.818736 88.884 
L 226.246698 88.884 
L 226.246698 81.324 
L 171.818736 81.324 
z
" clip-path="url(#p3f3cc2c3d4)" style="fill: #0000ff"/>
   </g>
   <g id="patch_220">
    <path d="M 174.237757 88.884 
L 226.246698 88.884 
L 226.246698 81.324 
L 174.237757 81.324 
z
" clip-path="url(#p3f3cc2c3d4)" style="fill: #0000ff"/>
   </g>
   <g id="patch_221">
    <path d="M 251.646413 88.884 
L 352.035765 88.884 
L 352.035765 81.324 
L 251.646413 81.324 
z
" clip-path="url(#p3f3cc2c3d4)" style="fill: #0000ff"/>
   </g>
   <g id="patch_222">
    <path d="M 251.646413 88.884 
L 372.59744 88.884 
L 372.59744 81.324 
L 251.646413 81.324 
z
" clip-path="url(#p3f3cc2c3d4)" style="fill: #0000ff"/>
   </g>
   <g id="patch_223">
    <path d="M 373.80695 85.3875 
L 406.463727 85.3875 
L 406.463727 84.8205 
L 373.80695 84.8205 
z
" clip-path="url(#p3f3cc2c3d4)" style="fill: #0000ff"/>
   </g>
   <g id="patch_224">
    <path d="M 144 69.984 
L 397.997155 69.984 
L 397.997155 62.424 
L 144 62.424 
z
" clip-path="url(#p3f3cc2c3d4)" style="fill: #0000ff"/>
   </g>
   <g id="patch_225">
    <path d="M 153.676082 69.984 
L 240.760821 69.984 
L 240.760821 62.424 
L 153.676082 62.424 
z
" clip-path="url(#p3f3cc2c3d4)" style="fill: #0000ff"/>
   </g>
   <g id="patch_226">
    <path d="M 154.885592 69.984 
L 243.179841 69.984 
L 243.179841 62.424 
L 154.885592 62.424 
z
" clip-path="url(#p3f3cc2c3d4)" style="fill: #0000ff"/>
   </g>
   <g id="patch_227">
    <path d="M 154.885592 69.984 
L 241.970331 69.984 
L 241.970331 62.424 
L 154.885592 62.424 
z
" clip-path="url(#p3f3cc2c3d4)" style="fill: #0000ff"/>
   </g>
   <g id="patch_228">
    <path d="M 156.095103 69.984 
L 257.693965 69.984 
L 257.693965 62.424 
L 156.095103 62.424 
z
" clip-path="url(#p3f3cc2c3d4)" style="fill: #0000ff"/>
   </g>
   <g id="patch_229">
    <path d="M 156.095103 69.984 
L 384.692542 69.984 
L 384.692542 62.424 
L 156.095103 62.424 
z
" clip-path="url(#p3f3cc2c3d4)" style="fill: #0000ff"/>
   </g>
   <g id="patch_230">
    <path d="M 156.095103 69.984 
L 395.578135 69.984 
L 395.578135 62.424 
L 156.095103 62.424 
z
" clip-path="url(#p3f3cc2c3d4)" style="fill: #0000ff"/>
   </g>
   <g id="patch_231">
    <path d="M 156.095103 69.984 
L 239.551311 69.984 
L 239.551311 62.424 
L 156.095103 62.424 
z
" clip-path="url(#p3f3cc2c3d4)" style="fill: #0000ff"/>
   </g>
   <g id="patch_232">
    <path d="M 156.095103 69.984 
L 220.199147 69.984 
L 220.199147 62.424 
L 156.095103 62.424 
z
" clip-path="url(#p3f3cc2c3d4)" style="fill: #0000ff"/>
   </g>
   <g id="patch_233">
    <path d="M 156.095103 69.984 
L 239.551311 69.984 
L 239.551311 62.424 
L 156.095103 62.424 
z
" clip-path="url(#p3f3cc2c3d4)" style="fill: #0000ff"/>
   </g>
   <g id="patch_234">
    <path d="M 156.095103 69.984 
L 239.551311 69.984 
L 239.551311 62.424 
L 156.095103 62.424 
z
" clip-path="url(#p3f3cc2c3d4)" style="fill: #0000ff"/>
   </g>
   <g id="patch_235">
    <path d="M 156.095103 69.984 
L 239.551311 69.984 
L 239.551311 62.424 
L 156.095103 62.424 
z
" clip-path="url(#p3f3cc2c3d4)" style="fill: #0000ff"/>
   </g>
   <g id="patch_236">
    <path d="M 156.095103 69.984 
L 238.3418 69.984 
L 238.3418 62.424 
L 156.095103 62.424 
z
" clip-path="url(#p3f3cc2c3d4)" style="fill: #0000ff"/>
   </g>
   <g id="patch_237">
    <path d="M 156.095103 69.984 
L 243.179841 69.984 
L 243.179841 62.424 
L 156.095103 62.424 
z
" clip-path="url(#p3f3cc2c3d4)" style="fill: #0000ff"/>
   </g>
   <g id="patch_238">
    <path d="M 157.304613 69.984 
L 218.989636 69.984 
L 218.989636 62.424 
L 157.304613 62.424 
z
" clip-path="url(#p3f3cc2c3d4)" style="fill: #0000ff"/>
   </g>
   <g id="patch_239">
    <path d="M 158.514123 69.984 
L 243.179841 69.984 
L 243.179841 62.424 
L 158.514123 62.424 
z
" clip-path="url(#p3f3cc2c3d4)" style="fill: #0000ff"/>
   </g>
   <g id="patch_240">
    <path d="M 158.514123 69.984 
L 248.017883 69.984 
L 248.017883 62.424 
L 158.514123 62.424 
z
" clip-path="url(#p3f3cc2c3d4)" style="fill: #0000ff"/>
   </g>
   <g id="patch_241">
    <path d="M 162.142654 69.984 
L 243.179841 69.984 
L 243.179841 62.424 
L 162.142654 62.424 
z
" clip-path="url(#p3f3cc2c3d4)" style="fill: #0000ff"/>
   </g>
   <g id="patch_242">
    <path d="M 163.352164 69.984 
L 244.389352 69.984 
L 244.389352 62.424 
L 163.352164 62.424 
z
" clip-path="url(#p3f3cc2c3d4)" style="fill: #0000ff"/>
   </g>
   <g id="patch_243">
    <path d="M 168.190205 69.984 
L 387.111563 69.984 
L 387.111563 62.424 
L 168.190205 62.424 
z
" clip-path="url(#p3f3cc2c3d4)" style="fill: #0000ff"/>
   </g>
   <g id="patch_244">
    <path d="M 168.190205 69.984 
L 389.530583 69.984 
L 389.530583 62.424 
L 168.190205 62.424 
z
" clip-path="url(#p3f3cc2c3d4)" style="fill: #0000ff"/>
   </g>
   <g id="patch_245">
    <path d="M 168.190205 69.984 
L 378.644991 69.984 
L 378.644991 62.424 
L 168.190205 62.424 
z
" clip-path="url(#p3f3cc2c3d4)" style="fill: #0000ff"/>
   </g>
   <g id="patch_246">
    <path d="M 168.190205 69.984 
L 239.551311 69.984 
L 239.551311 62.424 
L 168.190205 62.424 
z
" clip-path="url(#p3f3cc2c3d4)" style="fill: #0000ff"/>
   </g>
   <g id="patch_247">
    <path d="M 168.190205 69.984 
L 243.179841 69.984 
L 243.179841 62.424 
L 168.190205 62.424 
z
" clip-path="url(#p3f3cc2c3d4)" style="fill: #0000ff"/>
   </g>
   <g id="patch_248">
    <path d="M 168.190205 69.984 
L 241.970331 69.984 
L 241.970331 62.424 
L 168.190205 62.424 
z
" clip-path="url(#p3f3cc2c3d4)" style="fill: #0000ff"/>
   </g>
   <g id="patch_249">
    <path d="M 169.399716 69.984 
L 244.389352 69.984 
L 244.389352 62.424 
L 169.399716 62.424 
z
" clip-path="url(#p3f3cc2c3d4)" style="fill: #0000ff"/>
   </g>
   <g id="patch_250">
    <path d="M 169.399716 69.984 
L 238.3418 69.984 
L 238.3418 62.424 
L 169.399716 62.424 
z
" clip-path="url(#p3f3cc2c3d4)" style="fill: #0000ff"/>
   </g>
   <g id="patch_251">
    <path d="M 169.399716 69.984 
L 343.569193 69.984 
L 343.569193 62.424 
L 169.399716 62.424 
z
" clip-path="url(#p3f3cc2c3d4)" style="fill: #0000ff"/>
   </g>
   <g id="patch_252">
    <path d="M 173.028246 69.984 
L 238.3418 69.984 
L 238.3418 62.424 
L 173.028246 62.424 
z
" clip-path="url(#p3f3cc2c3d4)" style="fill: #0000ff"/>
   </g>
   <g id="patch_253">
    <path d="M 173.028246 69.984 
L 244.389352 69.984 
L 244.389352 62.424 
L 173.028246 62.424 
z
" clip-path="url(#p3f3cc2c3d4)" style="fill: #0000ff"/>
   </g>
   <g id="patch_254">
    <path d="M 175.447267 69.984 
L 238.3418 69.984 
L 238.3418 62.424 
L 175.447267 62.424 
z
" clip-path="url(#p3f3cc2c3d4)" style="fill: #0000ff"/>
   </g>
   <g id="patch_255">
    <path d="M 202.056493 69.984 
L 261.322495 69.984 
L 261.322495 62.424 
L 202.056493 62.424 
z
" clip-path="url(#p3f3cc2c3d4)" style="fill: #0000ff"/>
   </g>
   <g id="patch_256">
    <path d="M 255.274944 69.984 
L 384.692542 69.984 
L 384.692542 62.424 
L 255.274944 62.424 
z
" clip-path="url(#p3f3cc2c3d4)" style="fill: #0000ff"/>
   </g>
   <g id="patch_257">
    <path d="M 263.741516 69.984 
L 372.59744 69.984 
L 372.59744 62.424 
L 263.741516 62.424 
z
" clip-path="url(#p3f3cc2c3d4)" style="fill: #0000ff"/>
   </g>
   <g id="patch_258">
    <path d="M 264.951026 69.984 
L 377.435481 69.984 
L 377.435481 62.424 
L 264.951026 62.424 
z
" clip-path="url(#p3f3cc2c3d4)" style="fill: #0000ff"/>
   </g>
   <g id="patch_259">
    <path d="M 292.769762 69.984 
L 371.387929 69.984 
L 371.387929 62.424 
L 292.769762 62.424 
z
" clip-path="url(#p3f3cc2c3d4)" style="fill: #0000ff"/>
   </g>
   <g id="patch_260">
    <path d="M 293.979273 69.984 
L 384.692542 69.984 
L 384.692542 62.424 
L 293.979273 62.424 
z
" clip-path="url(#p3f3cc2c3d4)" style="fill: #0000ff"/>
   </g>
   <g id="patch_261">
    <path d="M 316.959967 69.984 
L 379.854501 69.984 
L 379.854501 62.424 
L 316.959967 62.424 
z
" clip-path="url(#p3f3cc2c3d4)" style="fill: #0000ff"/>
   </g>
   <g id="patch_262">
    <path d="M 399.206665 66.4875 
L 399.206665 66.4875 
L 399.206665 65.9205 
L 399.206665 65.9205 
z
" clip-path="url(#p3f3cc2c3d4)" style="fill: #0000ff"/>
   </g>
   <g id="patch_263">
    <path d="M 144 51.084 
L 401.625686 51.084 
L 401.625686 43.524 
L 144 43.524 
z
" clip-path="url(#p3f3cc2c3d4)" style="fill: #0000ff"/>
   </g>
   <g id="patch_264">
    <path d="M 147.628531 51.084 
L 240.760821 51.084 
L 240.760821 43.524 
L 147.628531 43.524 
z
" clip-path="url(#p3f3cc2c3d4)" style="fill: #0000ff"/>
   </g>
   <g id="patch_265">
    <path d="M 150.047551 51.084 
L 390.740093 51.084 
L 390.740093 43.524 
L 150.047551 43.524 
z
" clip-path="url(#p3f3cc2c3d4)" style="fill: #0000ff"/>
   </g>
   <g id="patch_266">
    <path d="M 150.047551 51.084 
L 239.551311 51.084 
L 239.551311 43.524 
L 150.047551 43.524 
z
" clip-path="url(#p3f3cc2c3d4)" style="fill: #0000ff"/>
   </g>
   <g id="patch_267">
    <path d="M 150.047551 51.084 
L 243.179841 51.084 
L 243.179841 43.524 
L 150.047551 43.524 
z
" clip-path="url(#p3f3cc2c3d4)" style="fill: #0000ff"/>
   </g>
   <g id="patch_268">
    <path d="M 150.047551 51.084 
L 243.179841 51.084 
L 243.179841 43.524 
L 150.047551 43.524 
z
" clip-path="url(#p3f3cc2c3d4)" style="fill: #0000ff"/>
   </g>
   <g id="patch_269">
    <path d="M 158.514123 51.084 
L 243.179841 51.084 
L 243.179841 43.524 
L 158.514123 43.524 
z
" clip-path="url(#p3f3cc2c3d4)" style="fill: #0000ff"/>
   </g>
   <g id="patch_270">
    <path d="M 158.514123 51.084 
L 243.179841 51.084 
L 243.179841 43.524 
L 158.514123 43.524 
z
" clip-path="url(#p3f3cc2c3d4)" style="fill: #0000ff"/>
   </g>
   <g id="patch_271">
    <path d="M 158.514123 51.084 
L 241.970331 51.084 
L 241.970331 43.524 
L 158.514123 43.524 
z
" clip-path="url(#p3f3cc2c3d4)" style="fill: #0000ff"/>
   </g>
   <g id="patch_272">
    <path d="M 160.933144 51.084 
L 238.3418 51.084 
L 238.3418 43.524 
L 160.933144 43.524 
z
" clip-path="url(#p3f3cc2c3d4)" style="fill: #0000ff"/>
   </g>
   <g id="patch_273">
    <path d="M 160.933144 51.084 
L 241.970331 51.084 
L 241.970331 43.524 
L 160.933144 43.524 
z
" clip-path="url(#p3f3cc2c3d4)" style="fill: #0000ff"/>
   </g>
   <g id="patch_274">
    <path d="M 160.933144 51.084 
L 246.808372 51.084 
L 246.808372 43.524 
L 160.933144 43.524 
z
" clip-path="url(#p3f3cc2c3d4)" style="fill: #0000ff"/>
   </g>
   <g id="patch_275">
    <path d="M 162.142654 51.084 
L 238.3418 51.084 
L 238.3418 43.524 
L 162.142654 43.524 
z
" clip-path="url(#p3f3cc2c3d4)" style="fill: #0000ff"/>
   </g>
   <g id="patch_276">
    <path d="M 162.142654 51.084 
L 239.551311 51.084 
L 239.551311 43.524 
L 162.142654 43.524 
z
" clip-path="url(#p3f3cc2c3d4)" style="fill: #0000ff"/>
   </g>
   <g id="patch_277">
    <path d="M 166.980695 51.084 
L 241.970331 51.084 
L 241.970331 43.524 
L 166.980695 43.524 
z
" clip-path="url(#p3f3cc2c3d4)" style="fill: #0000ff"/>
   </g>
   <g id="patch_278">
    <path d="M 166.980695 51.084 
L 243.179841 51.084 
L 243.179841 43.524 
L 166.980695 43.524 
z
" clip-path="url(#p3f3cc2c3d4)" style="fill: #0000ff"/>
   </g>
   <g id="patch_279">
    <path d="M 170.609226 51.084 
L 244.389352 51.084 
L 244.389352 43.524 
L 170.609226 43.524 
z
" clip-path="url(#p3f3cc2c3d4)" style="fill: #0000ff"/>
   </g>
   <g id="patch_280">
    <path d="M 171.818736 51.084 
L 239.551311 51.084 
L 239.551311 43.524 
L 171.818736 43.524 
z
" clip-path="url(#p3f3cc2c3d4)" style="fill: #0000ff"/>
   </g>
   <g id="patch_281">
    <path d="M 176.656777 51.084 
L 244.389352 51.084 
L 244.389352 43.524 
L 176.656777 43.524 
z
" clip-path="url(#p3f3cc2c3d4)" style="fill: #0000ff"/>
   </g>
   <g id="patch_282">
    <path d="M 179.075798 51.084 
L 238.3418 51.084 
L 238.3418 43.524 
L 179.075798 43.524 
z
" clip-path="url(#p3f3cc2c3d4)" style="fill: #0000ff"/>
   </g>
   <g id="patch_283">
    <path d="M 257.693965 51.084 
L 397.997155 51.084 
L 397.997155 43.524 
L 257.693965 43.524 
z
" clip-path="url(#p3f3cc2c3d4)" style="fill: #0000ff"/>
   </g>
   <g id="patch_284">
    <path d="M 258.903475 51.084 
L 395.578135 51.084 
L 395.578135 43.524 
L 258.903475 43.524 
z
" clip-path="url(#p3f3cc2c3d4)" style="fill: #0000ff"/>
   </g>
   <g id="patch_285">
    <path d="M 262.532006 51.084 
L 393.159114 51.084 
L 393.159114 43.524 
L 262.532006 43.524 
z
" clip-path="url(#p3f3cc2c3d4)" style="fill: #0000ff"/>
   </g>
   <g id="matplotlib.axis_1">
    <g id="xtick_1">
     <g id="line2d_1">
      <defs>
       <path id="maba071d2fa" d="M 0 0 
L 0 3.5 
" style="stroke: #000000; stroke-width: 0.8"/>
      </defs>
      <g>
       <use xlink:href="#maba071d2fa" x="263.741516" y="249.912" style="stroke: #000000; stroke-width: 0.8"/>
      </g>
     </g>
     <g id="text_1">
      <!-- 100 -->
      <g transform="translate(254.197766 264.510438) scale(0.1 -0.1)">
       <defs>
        <path id="DejaVuSans-31" d="M 794 531 
L 1825 531 
L 1825 4091 
L 703 3866 
L 703 4441 
L 1819 4666 
L 2450 4666 
L 2450 531 
L 3481 531 
L 3481 0 
L 794 0 
L 794 531 
z
" transform="scale(0.015625)"/>
        <path id="DejaVuSans-30" d="M 2034 4250 
Q 1547 4250 1301 3770 
Q 1056 3291 1056 2328 
Q 1056 1369 1301 889 
Q 1547 409 2034 409 
Q 2525 409 2770 889 
Q 3016 1369 3016 2328 
Q 3016 3291 2770 3770 
Q 2525 4250 2034 4250 
z
M 2034 4750 
Q 2819 4750 3233 4129 
Q 3647 3509 3647 2328 
Q 3647 1150 3233 529 
Q 2819 -91 2034 -91 
Q 1250 -91 836 529 
Q 422 1150 422 2328 
Q 422 3509 836 4129 
Q 1250 4750 2034 4750 
z
" transform="scale(0.015625)"/>
       </defs>
       <use xlink:href="#DejaVuSans-31"/>
       <use xlink:href="#DejaVuSans-30" x="63.623047"/>
       <use xlink:href="#DejaVuSans-30" x="127.246094"/>
      </g>
     </g>
    </g>
    <g id="xtick_2">
     <g id="line2d_2">
      <g>
       <use xlink:href="#maba071d2fa" x="384.692542" y="249.912" style="stroke: #000000; stroke-width: 0.8"/>
      </g>
     </g>
     <g id="text_2">
      <!-- 200 -->
      <g transform="translate(375.148792 264.510438) scale(0.1 -0.1)">
       <defs>
        <path id="DejaVuSans-32" d="M 1228 531 
L 3431 531 
L 3431 0 
L 469 0 
L 469 531 
Q 828 903 1448 1529 
Q 2069 2156 2228 2338 
Q 2531 2678 2651 2914 
Q 2772 3150 2772 3378 
Q 2772 3750 2511 3984 
Q 2250 4219 1831 4219 
Q 1534 4219 1204 4116 
Q 875 4013 500 3803 
L 500 4441 
Q 881 4594 1212 4672 
Q 1544 4750 1819 4750 
Q 2544 4750 2975 4387 
Q 3406 4025 3406 3419 
Q 3406 3131 3298 2873 
Q 3191 2616 2906 2266 
Q 2828 2175 2409 1742 
Q 1991 1309 1228 531 
z
" transform="scale(0.015625)"/>
       </defs>
       <use xlink:href="#DejaVuSans-32"/>
       <use xlink:href="#DejaVuSans-30" x="63.623047"/>
       <use xlink:href="#DejaVuSans-30" x="127.246094"/>
      </g>
     </g>
    </g>
    <g id="xtick_3">
     <g id="line2d_3">
      <g>
       <use xlink:href="#maba071d2fa" x="505.643568" y="249.912" style="stroke: #000000; stroke-width: 0.8"/>
      </g>
     </g>
     <g id="text_3">
      <!-- 300 -->
      <g transform="translate(496.099818 264.510438) scale(0.1 -0.1)">
       <defs>
        <path id="DejaVuSans-33" d="M 2597 2516 
Q 3050 2419 3304 2112 
Q 3559 1806 3559 1356 
Q 3559 666 3084 287 
Q 2609 -91 1734 -91 
Q 1441 -91 1130 -33 
Q 819 25 488 141 
L 488 750 
Q 750 597 1062 519 
Q 1375 441 1716 441 
Q 2309 441 2620 675 
Q 2931 909 2931 1356 
Q 2931 1769 2642 2001 
Q 2353 2234 1838 2234 
L 1294 2234 
L 1294 2753 
L 1863 2753 
Q 2328 2753 2575 2939 
Q 2822 3125 2822 3475 
Q 2822 3834 2567 4026 
Q 2313 4219 1838 4219 
Q 1578 4219 1281 4162 
Q 984 4106 628 3988 
L 628 4550 
Q 988 4650 1302 4700 
Q 1616 4750 1894 4750 
Q 2613 4750 3031 4423 
Q 3450 4097 3450 3541 
Q 3450 3153 3228 2886 
Q 3006 2619 2597 2516 
z
" transform="scale(0.015625)"/>
       </defs>
       <use xlink:href="#DejaVuSans-33"/>
       <use xlink:href="#DejaVuSans-30" x="63.623047"/>
       <use xlink:href="#DejaVuSans-30" x="127.246094"/>
      </g>
     </g>
    </g>
    <g id="xtick_4">
     <g id="line2d_4">
      <g>
       <use xlink:href="#maba071d2fa" x="626.594595" y="249.912" style="stroke: #000000; stroke-width: 0.8"/>
      </g>
     </g>
     <g id="text_4">
      <!-- 400 -->
      <g transform="translate(617.050845 264.510438) scale(0.1 -0.1)">
       <defs>
        <path id="DejaVuSans-34" d="M 2419 4116 
L 825 1625 
L 2419 1625 
L 2419 4116 
z
M 2253 4666 
L 3047 4666 
L 3047 1625 
L 3713 1625 
L 3713 1100 
L 3047 1100 
L 3047 0 
L 2419 0 
L 2419 1100 
L 313 1100 
L 313 1709 
L 2253 4666 
z
" transform="scale(0.015625)"/>
       </defs>
       <use xlink:href="#DejaVuSans-34"/>
       <use xlink:href="#DejaVuSans-30" x="63.623047"/>
       <use xlink:href="#DejaVuSans-30" x="127.246094"/>
      </g>
     </g>
    </g>
    <g id="xtick_5">
     <g id="line2d_5">
      <g>
       <use xlink:href="#maba071d2fa" x="747.545621" y="249.912" style="stroke: #000000; stroke-width: 0.8"/>
      </g>
     </g>
     <g id="text_5">
      <!-- 500 -->
      <g transform="translate(738.001871 264.510438) scale(0.1 -0.1)">
       <defs>
        <path id="DejaVuSans-35" d="M 691 4666 
L 3169 4666 
L 3169 4134 
L 1269 4134 
L 1269 2991 
Q 1406 3038 1543 3061 
Q 1681 3084 1819 3084 
Q 2600 3084 3056 2656 
Q 3513 2228 3513 1497 
Q 3513 744 3044 326 
Q 2575 -91 1722 -91 
Q 1428 -91 1123 -41 
Q 819 9 494 109 
L 494 744 
Q 775 591 1075 516 
Q 1375 441 1709 441 
Q 2250 441 2565 725 
Q 2881 1009 2881 1497 
Q 2881 1984 2565 2268 
Q 2250 2553 1709 2553 
Q 1456 2553 1204 2497 
Q 953 2441 691 2322 
L 691 4666 
z
" transform="scale(0.015625)"/>
       </defs>
       <use xlink:href="#DejaVuSans-35"/>
       <use xlink:href="#DejaVuSans-30" x="63.623047"/>
       <use xlink:href="#DejaVuSans-30" x="127.246094"/>
      </g>
     </g>
    </g>
    <g id="xtick_6">
     <g id="line2d_6">
      <g>
       <use xlink:href="#maba071d2fa" x="868.496647" y="249.912" style="stroke: #000000; stroke-width: 0.8"/>
      </g>
     </g>
     <g id="text_6">
      <!-- 600 -->
      <g transform="translate(858.952897 264.510438) scale(0.1 -0.1)">
       <defs>
        <path id="DejaVuSans-36" d="M 2113 2584 
Q 1688 2584 1439 2293 
Q 1191 2003 1191 1497 
Q 1191 994 1439 701 
Q 1688 409 2113 409 
Q 2538 409 2786 701 
Q 3034 994 3034 1497 
Q 3034 2003 2786 2293 
Q 2538 2584 2113 2584 
z
M 3366 4563 
L 3366 3988 
Q 3128 4100 2886 4159 
Q 2644 4219 2406 4219 
Q 1781 4219 1451 3797 
Q 1122 3375 1075 2522 
Q 1259 2794 1537 2939 
Q 1816 3084 2150 3084 
Q 2853 3084 3261 2657 
Q 3669 2231 3669 1497 
Q 3669 778 3244 343 
Q 2819 -91 2113 -91 
Q 1303 -91 875 529 
Q 447 1150 447 2328 
Q 447 3434 972 4092 
Q 1497 4750 2381 4750 
Q 2619 4750 2861 4703 
Q 3103 4656 3366 4563 
z
" transform="scale(0.015625)"/>
       </defs>
       <use xlink:href="#DejaVuSans-36"/>
       <use xlink:href="#DejaVuSans-30" x="63.623047"/>
       <use xlink:href="#DejaVuSans-30" x="127.246094"/>
      </g>
     </g>
    </g>
    <g id="xtick_7">
     <g id="line2d_7">
      <g>
       <use xlink:href="#maba071d2fa" x="989.447673" y="249.912" style="stroke: #000000; stroke-width: 0.8"/>
      </g>
     </g>
     <g id="text_7">
      <!-- 700 -->
      <g transform="translate(979.903923 264.510438) scale(0.1 -0.1)">
       <defs>
        <path id="DejaVuSans-37" d="M 525 4666 
L 3525 4666 
L 3525 4397 
L 1831 0 
L 1172 0 
L 2766 4134 
L 525 4134 
L 525 4666 
z
" transform="scale(0.015625)"/>
       </defs>
       <use xlink:href="#DejaVuSans-37"/>
       <use xlink:href="#DejaVuSans-30" x="63.623047"/>
       <use xlink:href="#DejaVuSans-30" x="127.246094"/>
      </g>
     </g>
    </g>
    <g id="text_8">
     <!-- Residual -->
     <g transform="translate(569.284375 278.188562) scale(0.1 -0.1)">
      <defs>
       <path id="DejaVuSans-52" d="M 2841 2188 
Q 3044 2119 3236 1894 
Q 3428 1669 3622 1275 
L 4263 0 
L 3584 0 
L 2988 1197 
Q 2756 1666 2539 1819 
Q 2322 1972 1947 1972 
L 1259 1972 
L 1259 0 
L 628 0 
L 628 4666 
L 2053 4666 
Q 2853 4666 3247 4331 
Q 3641 3997 3641 3322 
Q 3641 2881 3436 2590 
Q 3231 2300 2841 2188 
z
M 1259 4147 
L 1259 2491 
L 2053 2491 
Q 2509 2491 2742 2702 
Q 2975 2913 2975 3322 
Q 2975 3731 2742 3939 
Q 2509 4147 2053 4147 
L 1259 4147 
z
" transform="scale(0.015625)"/>
       <path id="DejaVuSans-65" d="M 3597 1894 
L 3597 1613 
L 953 1613 
Q 991 1019 1311 708 
Q 1631 397 2203 397 
Q 2534 397 2845 478 
Q 3156 559 3463 722 
L 3463 178 
Q 3153 47 2828 -22 
Q 2503 -91 2169 -91 
Q 1331 -91 842 396 
Q 353 884 353 1716 
Q 353 2575 817 3079 
Q 1281 3584 2069 3584 
Q 2775 3584 3186 3129 
Q 3597 2675 3597 1894 
z
M 3022 2063 
Q 3016 2534 2758 2815 
Q 2500 3097 2075 3097 
Q 1594 3097 1305 2825 
Q 1016 2553 972 2059 
L 3022 2063 
z
" transform="scale(0.015625)"/>
       <path id="DejaVuSans-73" d="M 2834 3397 
L 2834 2853 
Q 2591 2978 2328 3040 
Q 2066 3103 1784 3103 
Q 1356 3103 1142 2972 
Q 928 2841 928 2578 
Q 928 2378 1081 2264 
Q 1234 2150 1697 2047 
L 1894 2003 
Q 2506 1872 2764 1633 
Q 3022 1394 3022 966 
Q 3022 478 2636 193 
Q 2250 -91 1575 -91 
Q 1294 -91 989 -36 
Q 684 19 347 128 
L 347 722 
Q 666 556 975 473 
Q 1284 391 1588 391 
Q 1994 391 2212 530 
Q 2431 669 2431 922 
Q 2431 1156 2273 1281 
Q 2116 1406 1581 1522 
L 1381 1569 
Q 847 1681 609 1914 
Q 372 2147 372 2553 
Q 372 3047 722 3315 
Q 1072 3584 1716 3584 
Q 2034 3584 2315 3537 
Q 2597 3491 2834 3397 
z
" transform="scale(0.015625)"/>
       <path id="DejaVuSans-69" d="M 603 3500 
L 1178 3500 
L 1178 0 
L 603 0 
L 603 3500 
z
M 603 4863 
L 1178 4863 
L 1178 4134 
L 603 4134 
L 603 4863 
z
" transform="scale(0.015625)"/>
       <path id="DejaVuSans-64" d="M 2906 2969 
L 2906 4863 
L 3481 4863 
L 3481 0 
L 2906 0 
L 2906 525 
Q 2725 213 2448 61 
Q 2172 -91 1784 -91 
Q 1150 -91 751 415 
Q 353 922 353 1747 
Q 353 2572 751 3078 
Q 1150 3584 1784 3584 
Q 2172 3584 2448 3432 
Q 2725 3281 2906 2969 
z
M 947 1747 
Q 947 1113 1208 752 
Q 1469 391 1925 391 
Q 2381 391 2643 752 
Q 2906 1113 2906 1747 
Q 2906 2381 2643 2742 
Q 2381 3103 1925 3103 
Q 1469 3103 1208 2742 
Q 947 2381 947 1747 
z
" transform="scale(0.015625)"/>
       <path id="DejaVuSans-75" d="M 544 1381 
L 544 3500 
L 1119 3500 
L 1119 1403 
Q 1119 906 1312 657 
Q 1506 409 1894 409 
Q 2359 409 2629 706 
Q 2900 1003 2900 1516 
L 2900 3500 
L 3475 3500 
L 3475 0 
L 2900 0 
L 2900 538 
Q 2691 219 2414 64 
Q 2138 -91 1772 -91 
Q 1169 -91 856 284 
Q 544 659 544 1381 
z
M 1991 3584 
L 1991 3584 
z
" transform="scale(0.015625)"/>
       <path id="DejaVuSans-61" d="M 2194 1759 
Q 1497 1759 1228 1600 
Q 959 1441 959 1056 
Q 959 750 1161 570 
Q 1363 391 1709 391 
Q 2188 391 2477 730 
Q 2766 1069 2766 1631 
L 2766 1759 
L 2194 1759 
z
M 3341 1997 
L 3341 0 
L 2766 0 
L 2766 531 
Q 2569 213 2275 61 
Q 1981 -91 1556 -91 
Q 1019 -91 701 211 
Q 384 513 384 1019 
Q 384 1609 779 1909 
Q 1175 2209 1959 2209 
L 2766 2209 
L 2766 2266 
Q 2766 2663 2505 2880 
Q 2244 3097 1772 3097 
Q 1472 3097 1187 3025 
Q 903 2953 641 2809 
L 641 3341 
Q 956 3463 1253 3523 
Q 1550 3584 1831 3584 
Q 2591 3584 2966 3190 
Q 3341 2797 3341 1997 
z
" transform="scale(0.015625)"/>
       <path id="DejaVuSans-6c" d="M 603 4863 
L 1178 4863 
L 1178 0 
L 603 0 
L 603 4863 
z
" transform="scale(0.015625)"/>
      </defs>
      <use xlink:href="#DejaVuSans-52"/>
      <use xlink:href="#DejaVuSans-65" x="64.982422"/>
      <use xlink:href="#DejaVuSans-73" x="126.505859"/>
      <use xlink:href="#DejaVuSans-69" x="178.605469"/>
      <use xlink:href="#DejaVuSans-64" x="206.388672"/>
      <use xlink:href="#DejaVuSans-75" x="269.865234"/>
      <use xlink:href="#DejaVuSans-61" x="333.244141"/>
      <use xlink:href="#DejaVuSans-6c" x="394.523438"/>
     </g>
    </g>
   </g>
   <g id="matplotlib.axis_2">
    <g id="ytick_1">
     <g id="line2d_8">
      <defs>
       <path id="m3c8489992c" d="M 0 0 
L -3.5 0 
" style="stroke: #000000; stroke-width: 0.8"/>
      </defs>
      <g>
       <use xlink:href="#m3c8489992c" x="144" y="236.304" style="stroke: #000000; stroke-width: 0.8"/>
      </g>
     </g>
     <g id="text_9">
      <!-- 1.A.12.1.1 -->
      <g transform="translate(85.809375 240.103219) scale(0.1 -0.1)">
       <defs>
        <path id="DejaVuSans-2e" d="M 684 794 
L 1344 794 
L 1344 0 
L 684 0 
L 684 794 
z
" transform="scale(0.015625)"/>
        <path id="DejaVuSans-41" d="M 2188 4044 
L 1331 1722 
L 3047 1722 
L 2188 4044 
z
M 1831 4666 
L 2547 4666 
L 4325 0 
L 3669 0 
L 3244 1197 
L 1141 1197 
L 716 0 
L 50 0 
L 1831 4666 
z
" transform="scale(0.015625)"/>
       </defs>
       <use xlink:href="#DejaVuSans-31"/>
       <use xlink:href="#DejaVuSans-2e" x="63.623047"/>
       <use xlink:href="#DejaVuSans-41" x="95.410156"/>
       <use xlink:href="#DejaVuSans-2e" x="162.068359"/>
       <use xlink:href="#DejaVuSans-31" x="193.855469"/>
       <use xlink:href="#DejaVuSans-32" x="257.478516"/>
       <use xlink:href="#DejaVuSans-2e" x="321.101562"/>
       <use xlink:href="#DejaVuSans-31" x="352.888672"/>
       <use xlink:href="#DejaVuSans-2e" x="416.511719"/>
       <use xlink:href="#DejaVuSans-31" x="448.298828"/>
      </g>
     </g>
    </g>
    <g id="ytick_2">
     <g id="line2d_9">
      <g>
       <use xlink:href="#m3c8489992c" x="144" y="217.404" style="stroke: #000000; stroke-width: 0.8"/>
      </g>
     </g>
     <g id="text_10">
      <!-- 1.A.12.1.2 -->
      <g transform="translate(85.809375 221.203219) scale(0.1 -0.1)">
       <use xlink:href="#DejaVuSans-31"/>
       <use xlink:href="#DejaVuSans-2e" x="63.623047"/>
       <use xlink:href="#DejaVuSans-41" x="95.410156"/>
       <use xlink:href="#DejaVuSans-2e" x="162.068359"/>
       <use xlink:href="#DejaVuSans-31" x="193.855469"/>
       <use xlink:href="#DejaVuSans-32" x="257.478516"/>
       <use xlink:href="#DejaVuSans-2e" x="321.101562"/>
       <use xlink:href="#DejaVuSans-31" x="352.888672"/>
       <use xlink:href="#DejaVuSans-2e" x="416.511719"/>
       <use xlink:href="#DejaVuSans-32" x="448.298828"/>
      </g>
     </g>
    </g>
    <g id="ytick_3">
     <g id="line2d_10">
      <g>
       <use xlink:href="#m3c8489992c" x="144" y="198.504" style="stroke: #000000; stroke-width: 0.8"/>
      </g>
     </g>
     <g id="text_11">
      <!-- 1.A.12.1.3 -->
      <g transform="translate(85.809375 202.303219) scale(0.1 -0.1)">
       <use xlink:href="#DejaVuSans-31"/>
       <use xlink:href="#DejaVuSans-2e" x="63.623047"/>
       <use xlink:href="#DejaVuSans-41" x="95.410156"/>
       <use xlink:href="#DejaVuSans-2e" x="162.068359"/>
       <use xlink:href="#DejaVuSans-31" x="193.855469"/>
       <use xlink:href="#DejaVuSans-32" x="257.478516"/>
       <use xlink:href="#DejaVuSans-2e" x="321.101562"/>
       <use xlink:href="#DejaVuSans-31" x="352.888672"/>
       <use xlink:href="#DejaVuSans-2e" x="416.511719"/>
       <use xlink:href="#DejaVuSans-33" x="448.298828"/>
      </g>
     </g>
    </g>
    <g id="ytick_4">
     <g id="line2d_11">
      <g>
       <use xlink:href="#m3c8489992c" x="144" y="179.604" style="stroke: #000000; stroke-width: 0.8"/>
      </g>
     </g>
     <g id="text_12">
      <!-- 1.A.12.1.4 -->
      <g transform="translate(85.809375 183.403219) scale(0.1 -0.1)">
       <use xlink:href="#DejaVuSans-31"/>
       <use xlink:href="#DejaVuSans-2e" x="63.623047"/>
       <use xlink:href="#DejaVuSans-41" x="95.410156"/>
       <use xlink:href="#DejaVuSans-2e" x="162.068359"/>
       <use xlink:href="#DejaVuSans-31" x="193.855469"/>
       <use xlink:href="#DejaVuSans-32" x="257.478516"/>
       <use xlink:href="#DejaVuSans-2e" x="321.101562"/>
       <use xlink:href="#DejaVuSans-31" x="352.888672"/>
       <use xlink:href="#DejaVuSans-2e" x="416.511719"/>
       <use xlink:href="#DejaVuSans-34" x="448.298828"/>
      </g>
     </g>
    </g>
    <g id="ytick_5">
     <g id="line2d_12">
      <g>
       <use xlink:href="#m3c8489992c" x="144" y="160.704" style="stroke: #000000; stroke-width: 0.8"/>
      </g>
     </g>
     <g id="text_13">
      <!-- 1.A.12.1.5 -->
      <g transform="translate(85.809375 164.503219) scale(0.1 -0.1)">
       <use xlink:href="#DejaVuSans-31"/>
       <use xlink:href="#DejaVuSans-2e" x="63.623047"/>
       <use xlink:href="#DejaVuSans-41" x="95.410156"/>
       <use xlink:href="#DejaVuSans-2e" x="162.068359"/>
       <use xlink:href="#DejaVuSans-31" x="193.855469"/>
       <use xlink:href="#DejaVuSans-32" x="257.478516"/>
       <use xlink:href="#DejaVuSans-2e" x="321.101562"/>
       <use xlink:href="#DejaVuSans-31" x="352.888672"/>
       <use xlink:href="#DejaVuSans-2e" x="416.511719"/>
       <use xlink:href="#DejaVuSans-35" x="448.298828"/>
      </g>
     </g>
    </g>
    <g id="ytick_6">
     <g id="line2d_13">
      <g>
       <use xlink:href="#m3c8489992c" x="144" y="141.804" style="stroke: #000000; stroke-width: 0.8"/>
      </g>
     </g>
     <g id="text_14">
      <!-- 1.A.12.1.6 -->
      <g transform="translate(85.809375 145.603219) scale(0.1 -0.1)">
       <use xlink:href="#DejaVuSans-31"/>
       <use xlink:href="#DejaVuSans-2e" x="63.623047"/>
       <use xlink:href="#DejaVuSans-41" x="95.410156"/>
       <use xlink:href="#DejaVuSans-2e" x="162.068359"/>
       <use xlink:href="#DejaVuSans-31" x="193.855469"/>
       <use xlink:href="#DejaVuSans-32" x="257.478516"/>
       <use xlink:href="#DejaVuSans-2e" x="321.101562"/>
       <use xlink:href="#DejaVuSans-31" x="352.888672"/>
       <use xlink:href="#DejaVuSans-2e" x="416.511719"/>
       <use xlink:href="#DejaVuSans-36" x="448.298828"/>
      </g>
     </g>
    </g>
    <g id="ytick_7">
     <g id="line2d_14">
      <g>
       <use xlink:href="#m3c8489992c" x="144" y="122.904" style="stroke: #000000; stroke-width: 0.8"/>
      </g>
     </g>
     <g id="text_15">
      <!-- 1.A.12.1.7 -->
      <g transform="translate(85.809375 126.703219) scale(0.1 -0.1)">
       <use xlink:href="#DejaVuSans-31"/>
       <use xlink:href="#DejaVuSans-2e" x="63.623047"/>
       <use xlink:href="#DejaVuSans-41" x="95.410156"/>
       <use xlink:href="#DejaVuSans-2e" x="162.068359"/>
       <use xlink:href="#DejaVuSans-31" x="193.855469"/>
       <use xlink:href="#DejaVuSans-32" x="257.478516"/>
       <use xlink:href="#DejaVuSans-2e" x="321.101562"/>
       <use xlink:href="#DejaVuSans-31" x="352.888672"/>
       <use xlink:href="#DejaVuSans-2e" x="416.511719"/>
       <use xlink:href="#DejaVuSans-37" x="448.298828"/>
      </g>
     </g>
    </g>
    <g id="ytick_8">
     <g id="line2d_15">
      <g>
       <use xlink:href="#m3c8489992c" x="144" y="104.004" style="stroke: #000000; stroke-width: 0.8"/>
      </g>
     </g>
     <g id="text_16">
      <!-- 1.A.12.2.1 -->
      <g transform="translate(85.809375 107.803219) scale(0.1 -0.1)">
       <use xlink:href="#DejaVuSans-31"/>
       <use xlink:href="#DejaVuSans-2e" x="63.623047"/>
       <use xlink:href="#DejaVuSans-41" x="95.410156"/>
       <use xlink:href="#DejaVuSans-2e" x="162.068359"/>
       <use xlink:href="#DejaVuSans-31" x="193.855469"/>
       <use xlink:href="#DejaVuSans-32" x="257.478516"/>
       <use xlink:href="#DejaVuSans-2e" x="321.101562"/>
       <use xlink:href="#DejaVuSans-32" x="352.888672"/>
       <use xlink:href="#DejaVuSans-2e" x="416.511719"/>
       <use xlink:href="#DejaVuSans-31" x="448.298828"/>
      </g>
     </g>
    </g>
    <g id="ytick_9">
     <g id="line2d_16">
      <g>
       <use xlink:href="#m3c8489992c" x="144" y="85.104" style="stroke: #000000; stroke-width: 0.8"/>
      </g>
     </g>
     <g id="text_17">
      <!-- 1.A.12.2.2 -->
      <g transform="translate(85.809375 88.903219) scale(0.1 -0.1)">
       <use xlink:href="#DejaVuSans-31"/>
       <use xlink:href="#DejaVuSans-2e" x="63.623047"/>
       <use xlink:href="#DejaVuSans-41" x="95.410156"/>
       <use xlink:href="#DejaVuSans-2e" x="162.068359"/>
       <use xlink:href="#DejaVuSans-31" x="193.855469"/>
       <use xlink:href="#DejaVuSans-32" x="257.478516"/>
       <use xlink:href="#DejaVuSans-2e" x="321.101562"/>
       <use xlink:href="#DejaVuSans-32" x="352.888672"/>
       <use xlink:href="#DejaVuSans-2e" x="416.511719"/>
       <use xlink:href="#DejaVuSans-32" x="448.298828"/>
      </g>
     </g>
    </g>
    <g id="ytick_10">
     <g id="line2d_17">
      <g>
       <use xlink:href="#m3c8489992c" x="144" y="66.204" style="stroke: #000000; stroke-width: 0.8"/>
      </g>
     </g>
     <g id="text_18">
      <!-- 1.A.12.3.1 -->
      <g transform="translate(85.809375 70.003219) scale(0.1 -0.1)">
       <use xlink:href="#DejaVuSans-31"/>
       <use xlink:href="#DejaVuSans-2e" x="63.623047"/>
       <use xlink:href="#DejaVuSans-41" x="95.410156"/>
       <use xlink:href="#DejaVuSans-2e" x="162.068359"/>
       <use xlink:href="#DejaVuSans-31" x="193.855469"/>
       <use xlink:href="#DejaVuSans-32" x="257.478516"/>
       <use xlink:href="#DejaVuSans-2e" x="321.101562"/>
       <use xlink:href="#DejaVuSans-33" x="352.888672"/>
       <use xlink:href="#DejaVuSans-2e" x="416.511719"/>
       <use xlink:href="#DejaVuSans-31" x="448.298828"/>
      </g>
     </g>
    </g>
    <g id="ytick_11">
     <g id="line2d_18">
      <g>
       <use xlink:href="#m3c8489992c" x="144" y="47.304" style="stroke: #000000; stroke-width: 0.8"/>
      </g>
     </g>
     <g id="text_19">
      <!-- 1.A.12.3.2 -->
      <g transform="translate(85.809375 51.103219) scale(0.1 -0.1)">
       <use xlink:href="#DejaVuSans-31"/>
       <use xlink:href="#DejaVuSans-2e" x="63.623047"/>
       <use xlink:href="#DejaVuSans-41" x="95.410156"/>
       <use xlink:href="#DejaVuSans-2e" x="162.068359"/>
       <use xlink:href="#DejaVuSans-31" x="193.855469"/>
       <use xlink:href="#DejaVuSans-32" x="257.478516"/>
       <use xlink:href="#DejaVuSans-2e" x="321.101562"/>
       <use xlink:href="#DejaVuSans-33" x="352.888672"/>
       <use xlink:href="#DejaVuSans-2e" x="416.511719"/>
       <use xlink:href="#DejaVuSans-32" x="448.298828"/>
      </g>
     </g>
    </g>
   </g>
   <g id="patch_286">
    <path d="M 144 249.912 
L 144 33.696 
" style="fill: none; stroke: #000000; stroke-width: 0.8; stroke-linejoin: miter; stroke-linecap: square"/>
   </g>
   <g id="patch_287">
    <path d="M 1036.8 249.912 
L 1036.8 33.696 
" style="fill: none; stroke: #000000; stroke-width: 0.8; stroke-linejoin: miter; stroke-linecap: square"/>
   </g>
   <g id="patch_288">
    <path d="M 144 249.912 
L 1036.8 249.912 
" style="fill: none; stroke: #000000; stroke-width: 0.8; stroke-linejoin: miter; stroke-linecap: square"/>
   </g>
   <g id="patch_289">
    <path d="M 144 33.696 
L 1036.8 33.696 
" style="fill: none; stroke: #000000; stroke-width: 0.8; stroke-linejoin: miter; stroke-linecap: square"/>
   </g>
   <g id="text_20">
    <!-- 1.A.12 Summary -->
    <g transform="translate(540.2325 27.696) scale(0.12 -0.12)">
     <defs>
      <path id="DejaVuSans-20" transform="scale(0.015625)"/>
      <path id="DejaVuSans-53" d="M 3425 4513 
L 3425 3897 
Q 3066 4069 2747 4153 
Q 2428 4238 2131 4238 
Q 1616 4238 1336 4038 
Q 1056 3838 1056 3469 
Q 1056 3159 1242 3001 
Q 1428 2844 1947 2747 
L 2328 2669 
Q 3034 2534 3370 2195 
Q 3706 1856 3706 1288 
Q 3706 609 3251 259 
Q 2797 -91 1919 -91 
Q 1588 -91 1214 -16 
Q 841 59 441 206 
L 441 856 
Q 825 641 1194 531 
Q 1563 422 1919 422 
Q 2459 422 2753 634 
Q 3047 847 3047 1241 
Q 3047 1584 2836 1778 
Q 2625 1972 2144 2069 
L 1759 2144 
Q 1053 2284 737 2584 
Q 422 2884 422 3419 
Q 422 4038 858 4394 
Q 1294 4750 2059 4750 
Q 2388 4750 2728 4690 
Q 3069 4631 3425 4513 
z
" transform="scale(0.015625)"/>
      <path id="DejaVuSans-6d" d="M 3328 2828 
Q 3544 3216 3844 3400 
Q 4144 3584 4550 3584 
Q 5097 3584 5394 3201 
Q 5691 2819 5691 2113 
L 5691 0 
L 5113 0 
L 5113 2094 
Q 5113 2597 4934 2840 
Q 4756 3084 4391 3084 
Q 3944 3084 3684 2787 
Q 3425 2491 3425 1978 
L 3425 0 
L 2847 0 
L 2847 2094 
Q 2847 2600 2669 2842 
Q 2491 3084 2119 3084 
Q 1678 3084 1418 2786 
Q 1159 2488 1159 1978 
L 1159 0 
L 581 0 
L 581 3500 
L 1159 3500 
L 1159 2956 
Q 1356 3278 1631 3431 
Q 1906 3584 2284 3584 
Q 2666 3584 2933 3390 
Q 3200 3197 3328 2828 
z
" transform="scale(0.015625)"/>
      <path id="DejaVuSans-72" d="M 2631 2963 
Q 2534 3019 2420 3045 
Q 2306 3072 2169 3072 
Q 1681 3072 1420 2755 
Q 1159 2438 1159 1844 
L 1159 0 
L 581 0 
L 581 3500 
L 1159 3500 
L 1159 2956 
Q 1341 3275 1631 3429 
Q 1922 3584 2338 3584 
Q 2397 3584 2469 3576 
Q 2541 3569 2628 3553 
L 2631 2963 
z
" transform="scale(0.015625)"/>
      <path id="DejaVuSans-79" d="M 2059 -325 
Q 1816 -950 1584 -1140 
Q 1353 -1331 966 -1331 
L 506 -1331 
L 506 -850 
L 844 -850 
Q 1081 -850 1212 -737 
Q 1344 -625 1503 -206 
L 1606 56 
L 191 3500 
L 800 3500 
L 1894 763 
L 2988 3500 
L 3597 3500 
L 2059 -325 
z
" transform="scale(0.015625)"/>
     </defs>
     <use xlink:href="#DejaVuSans-31"/>
     <use xlink:href="#DejaVuSans-2e" x="63.623047"/>
     <use xlink:href="#DejaVuSans-41" x="95.410156"/>
     <use xlink:href="#DejaVuSans-2e" x="162.068359"/>
     <use xlink:href="#DejaVuSans-31" x="193.855469"/>
     <use xlink:href="#DejaVuSans-32" x="257.478516"/>
     <use xlink:href="#DejaVuSans-20" x="321.101562"/>
     <use xlink:href="#DejaVuSans-53" x="352.888672"/>
     <use xlink:href="#DejaVuSans-75" x="416.365234"/>
     <use xlink:href="#DejaVuSans-6d" x="479.744141"/>
     <use xlink:href="#DejaVuSans-6d" x="577.15625"/>
     <use xlink:href="#DejaVuSans-61" x="674.568359"/>
     <use xlink:href="#DejaVuSans-72" x="735.847656"/>
     <use xlink:href="#DejaVuSans-79" x="776.960938"/>
    </g>
   </g>
  </g>
 </g>
 <defs>
  <clipPath id="p3f3cc2c3d4">
   <rect x="144" y="33.696" width="892.8" height="216.216"/>
  </clipPath>
 </defs>
</svg>
