<?xml version="1.0" encoding="utf-8" standalone="no"?>
<!DOCTYPE svg PUBLIC "-//W3C//DTD SVG 1.1//EN"
  "http://www.w3.org/Graphics/SVG/1.1/DTD/svg11.dtd">
<svg xmlns:xlink="http://www.w3.org/1999/xlink" width="1152pt" height="306pt" viewBox="0 0 1152 306" xmlns="http://www.w3.org/2000/svg" version="1.1">
 <metadata>
  <rdf:RDF xmlns:dc="http://purl.org/dc/elements/1.1/" xmlns:cc="http://creativecommons.org/ns#" xmlns:rdf="http://www.w3.org/1999/02/22-rdf-syntax-ns#">
   <cc:Work>
    <dc:type rdf:resource="http://purl.org/dc/dcmitype/StillImage"/>
    <dc:date>2024-10-10T19:10:23.844191</dc:date>
    <dc:format>image/svg+xml</dc:format>
    <dc:creator>
     <cc:Agent>
      <dc:title>Matplotlib v3.9.2, https://matplotlib.org/</dc:title>
     </cc:Agent>
    </dc:creator>
   </cc:Work>
  </rdf:RDF>
 </metadata>
 <defs>
  <style type="text/css">*{stroke-linejoin: round; stroke-linecap: butt}</style>
 </defs>
 <g id="figure_1">
  <g id="patch_1">
   <path d="M 0 306 
L 1152 306 
L 1152 0 
L 0 0 
z
" style="fill: #ffffff"/>
  </g>
  <g id="axes_1">
   <g id="patch_2">
    <path d="M 144 272.34 
L 1036.8 272.34 
L 1036.8 36.72 
L 144 36.72 
z
" style="fill: #ffffff"/>
   </g>
   <g id="patch_3">
    <path d="M 144 261.63 
L 343.932046 261.63 
L 343.932046 255.68 
L 144 255.68 
z
" clip-path="url(#p819af9aabe)" style="fill: #0000ff"/>
   </g>
   <g id="patch_4">
    <path d="M 186.514286 261.63 
L 281.88417 261.63 
L 281.88417 255.68 
L 186.514286 255.68 
z
" clip-path="url(#p819af9aabe)" style="fill: #0000ff"/>
   </g>
   <g id="patch_5">
    <path d="M 188.812355 261.63 
L 325.54749 261.63 
L 325.54749 255.68 
L 188.812355 255.68 
z
" clip-path="url(#p819af9aabe)" style="fill: #0000ff"/>
   </g>
   <g id="patch_6">
    <path d="M 291.076448 261.63 
L 354.273359 261.63 
L 354.273359 255.68 
L 291.076448 255.68 
z
" clip-path="url(#p819af9aabe)" style="fill: #0000ff"/>
   </g>
   <g id="patch_7">
    <path d="M 355.422394 258.878125 
L 382.999228 258.878125 
L 382.999228 258.431875 
L 355.422394 258.431875 
z
" clip-path="url(#p819af9aabe)" style="fill: #0000ff"/>
   </g>
   <g id="patch_8">
    <path d="M 384.148263 261.63 
L 592.123552 261.63 
L 592.123552 255.68 
L 384.148263 255.68 
z
" clip-path="url(#p819af9aabe)" style="fill: #0000ff"/>
   </g>
   <g id="patch_9">
    <path d="M 384.148263 261.63 
L 589.825483 261.63 
L 589.825483 255.68 
L 384.148263 255.68 
z
" clip-path="url(#p819af9aabe)" style="fill: #0000ff"/>
   </g>
   <g id="patch_10">
    <path d="M 593.272587 258.878125 
L 626.594595 258.878125 
L 626.594595 258.431875 
L 593.272587 258.431875 
z
" clip-path="url(#p819af9aabe)" style="fill: #0000ff"/>
   </g>
   <g id="patch_11">
    <path d="M 144 244.003125 
L 242.816988 244.003125 
L 242.816988 243.556875 
L 144 243.556875 
z
" clip-path="url(#p819af9aabe)" style="fill: #0000ff"/>
   </g>
   <g id="patch_12">
    <path d="M 243.966023 246.755 
L 461.133591 246.755 
L 461.133591 240.805 
L 243.966023 240.805 
z
" clip-path="url(#p819af9aabe)" style="fill: #0000ff"/>
   </g>
   <g id="patch_13">
    <path d="M 243.966023 246.755 
L 323.249421 246.755 
L 323.249421 240.805 
L 243.966023 240.805 
z
" clip-path="url(#p819af9aabe)" style="fill: #0000ff"/>
   </g>
   <g id="patch_14">
    <path d="M 247.413127 246.755 
L 464.580695 246.755 
L 464.580695 240.805 
L 247.413127 240.805 
z
" clip-path="url(#p819af9aabe)" style="fill: #0000ff"/>
   </g>
   <g id="patch_15">
    <path d="M 465.72973 244.003125 
L 784.012355 244.003125 
L 784.012355 243.556875 
L 465.72973 243.556875 
z
" clip-path="url(#p819af9aabe)" style="fill: #0000ff"/>
   </g>
   <g id="patch_16">
    <path d="M 144 231.88 
L 550.758301 231.88 
L 550.758301 225.93 
L 144 225.93 
z
" clip-path="url(#p819af9aabe)" style="fill: #0000ff"/>
   </g>
   <g id="patch_17">
    <path d="M 145.149035 231.88 
L 527.777606 231.88 
L 527.777606 225.93 
L 145.149035 225.93 
z
" clip-path="url(#p819af9aabe)" style="fill: #0000ff"/>
   </g>
   <g id="patch_18">
    <path d="M 225.581467 231.88 
L 453.090347 231.88 
L 453.090347 225.93 
L 225.581467 225.93 
z
" clip-path="url(#p819af9aabe)" style="fill: #0000ff"/>
   </g>
   <g id="patch_19">
    <path d="M 225.581467 231.88 
L 315.206178 231.88 
L 315.206178 225.93 
L 225.581467 225.93 
z
" clip-path="url(#p819af9aabe)" style="fill: #0000ff"/>
   </g>
   <g id="patch_20">
    <path d="M 144 214.253125 
L 148.596139 214.253125 
L 148.596139 213.806875 
L 144 213.806875 
z
" clip-path="url(#p819af9aabe)" style="fill: #0000ff"/>
   </g>
   <g id="patch_21">
    <path d="M 149.745174 217.005 
L 605.911969 217.005 
L 605.911969 211.055 
L 149.745174 211.055 
z
" clip-path="url(#p819af9aabe)" style="fill: #0000ff"/>
   </g>
   <g id="patch_22">
    <path d="M 242.816988 217.005 
L 480.667181 217.005 
L 480.667181 211.055 
L 242.816988 211.055 
z
" clip-path="url(#p819af9aabe)" style="fill: #0000ff"/>
   </g>
   <g id="patch_23">
    <path d="M 242.816988 217.005 
L 342.783012 217.005 
L 342.783012 211.055 
L 242.816988 211.055 
z
" clip-path="url(#p819af9aabe)" style="fill: #0000ff"/>
   </g>
   <g id="patch_24">
    <path d="M 248.562162 217.005 
L 570.291892 217.005 
L 570.291892 211.055 
L 248.562162 211.055 
z
" clip-path="url(#p819af9aabe)" style="fill: #0000ff"/>
   </g>
   <g id="patch_25">
    <path d="M 144 199.378125 
L 147.447104 199.378125 
L 147.447104 198.931875 
L 144 198.931875 
z
" clip-path="url(#p819af9aabe)" style="fill: #0000ff"/>
   </g>
   <g id="patch_26">
    <path d="M 148.596139 202.13 
L 586.378378 202.13 
L 586.378378 196.18 
L 148.596139 196.18 
z
" clip-path="url(#p819af9aabe)" style="fill: #0000ff"/>
   </g>
   <g id="patch_27">
    <path d="M 188.812355 202.13 
L 473.772973 202.13 
L 473.772973 196.18 
L 188.812355 196.18 
z
" clip-path="url(#p819af9aabe)" style="fill: #0000ff"/>
   </g>
   <g id="patch_28">
    <path d="M 239.369884 202.13 
L 337.037838 202.13 
L 337.037838 196.18 
L 239.369884 196.18 
z
" clip-path="url(#p819af9aabe)" style="fill: #0000ff"/>
   </g>
   <g id="patch_29">
    <path d="M 286.480309 202.13 
L 585.229344 202.13 
L 585.229344 196.18 
L 286.480309 196.18 
z
" clip-path="url(#p819af9aabe)" style="fill: #0000ff"/>
   </g>
   <g id="patch_30">
    <path d="M 587.527413 199.378125 
L 592.123552 199.378125 
L 592.123552 198.931875 
L 587.527413 198.931875 
z
" clip-path="url(#p819af9aabe)" style="fill: #0000ff"/>
   </g>
   <g id="patch_31">
    <path d="M 144 187.255 
L 565.695753 187.255 
L 565.695753 181.305 
L 144 181.305 
z
" clip-path="url(#p819af9aabe)" style="fill: #0000ff"/>
   </g>
   <g id="patch_32">
    <path d="M 187.66332 187.255 
L 476.071042 187.255 
L 476.071042 181.305 
L 187.66332 181.305 
z
" clip-path="url(#p819af9aabe)" style="fill: #0000ff"/>
   </g>
   <g id="patch_33">
    <path d="M 242.816988 187.255 
L 339.335907 187.255 
L 339.335907 181.305 
L 242.816988 181.305 
z
" clip-path="url(#p819af9aabe)" style="fill: #0000ff"/>
   </g>
   <g id="patch_34">
    <path d="M 246.264093 187.255 
L 570.291892 187.255 
L 570.291892 181.305 
L 246.264093 181.305 
z
" clip-path="url(#p819af9aabe)" style="fill: #0000ff"/>
   </g>
   <g id="patch_35">
    <path d="M 571.440927 184.503125 
L 595.570656 184.503125 
L 595.570656 184.056875 
L 571.440927 184.056875 
z
" clip-path="url(#p819af9aabe)" style="fill: #0000ff"/>
   </g>
   <g id="patch_36">
    <path d="M 144 172.38 
L 578.335135 172.38 
L 578.335135 166.43 
L 144 166.43 
z
" clip-path="url(#p819af9aabe)" style="fill: #0000ff"/>
   </g>
   <g id="patch_37">
    <path d="M 150.894208 172.38 
L 550.758301 172.38 
L 550.758301 166.43 
L 150.894208 166.43 
z
" clip-path="url(#p819af9aabe)" style="fill: #0000ff"/>
   </g>
   <g id="patch_38">
    <path d="M 188.812355 172.38 
L 471.474903 172.38 
L 471.474903 166.43 
L 188.812355 166.43 
z
" clip-path="url(#p819af9aabe)" style="fill: #0000ff"/>
   </g>
   <g id="patch_39">
    <path d="M 235.92278 172.38 
L 330.143629 172.38 
L 330.143629 166.43 
L 235.92278 166.43 
z
" clip-path="url(#p819af9aabe)" style="fill: #0000ff"/>
   </g>
   <g id="patch_40">
    <path d="M 240.518919 172.38 
L 430.109653 172.38 
L 430.109653 166.43 
L 240.518919 166.43 
z
" clip-path="url(#p819af9aabe)" style="fill: #0000ff"/>
   </g>
   <g id="patch_41">
    <path d="M 541.566023 172.38 
L 574.888031 172.38 
L 574.888031 166.43 
L 541.566023 166.43 
z
" clip-path="url(#p819af9aabe)" style="fill: #0000ff"/>
   </g>
   <g id="patch_42">
    <path d="M 144 154.753125 
L 149.745174 154.753125 
L 149.745174 154.306875 
L 144 154.306875 
z
" clip-path="url(#p819af9aabe)" style="fill: #0000ff"/>
   </g>
   <g id="patch_43">
    <path d="M 150.894208 157.505 
L 562.248649 157.505 
L 562.248649 151.555 
L 150.894208 151.555 
z
" clip-path="url(#p819af9aabe)" style="fill: #0000ff"/>
   </g>
   <g id="patch_44">
    <path d="M 188.812355 157.505 
L 481.816216 157.505 
L 481.816216 151.555 
L 188.812355 151.555 
z
" clip-path="url(#p819af9aabe)" style="fill: #0000ff"/>
   </g>
   <g id="patch_45">
    <path d="M 199.153668 157.505 
L 554.205405 157.505 
L 554.205405 151.555 
L 199.153668 151.555 
z
" clip-path="url(#p819af9aabe)" style="fill: #0000ff"/>
   </g>
   <g id="patch_46">
    <path d="M 230.177606 157.505 
L 339.335907 157.505 
L 339.335907 151.555 
L 230.177606 151.555 
z
" clip-path="url(#p819af9aabe)" style="fill: #0000ff"/>
   </g>
   <g id="patch_47">
    <path d="M 563.397683 154.753125 
L 576.037066 154.753125 
L 576.037066 154.306875 
L 563.397683 154.306875 
z
" clip-path="url(#p819af9aabe)" style="fill: #0000ff"/>
   </g>
   <g id="patch_48">
    <path d="M 144 139.878125 
L 189.96139 139.878125 
L 189.96139 139.431875 
L 144 139.431875 
z
" clip-path="url(#p819af9aabe)" style="fill: #0000ff"/>
   </g>
   <g id="patch_49">
    <path d="M 191.110425 142.63 
L 402.532819 142.63 
L 402.532819 136.68 
L 191.110425 136.68 
z
" clip-path="url(#p819af9aabe)" style="fill: #0000ff"/>
   </g>
   <g id="patch_50">
    <path d="M 194.557529 142.63 
L 304.864865 142.63 
L 304.864865 136.68 
L 194.557529 136.68 
z
" clip-path="url(#p819af9aabe)" style="fill: #0000ff"/>
   </g>
   <g id="patch_51">
    <path d="M 403.681853 139.878125 
L 445.047104 139.878125 
L 445.047104 139.431875 
L 403.681853 139.431875 
z
" clip-path="url(#p819af9aabe)" style="fill: #0000ff"/>
   </g>
   <g id="patch_52">
    <path d="M 144 125.003125 
L 216.389189 125.003125 
L 216.389189 124.556875 
L 144 124.556875 
z
" clip-path="url(#p819af9aabe)" style="fill: #0000ff"/>
   </g>
   <g id="patch_53">
    <path d="M 217.538224 127.755 
L 528.926641 127.755 
L 528.926641 121.805 
L 217.538224 121.805 
z
" clip-path="url(#p819af9aabe)" style="fill: #0000ff"/>
   </g>
   <g id="patch_54">
    <path d="M 226.730502 127.755 
L 503.647876 127.755 
L 503.647876 121.805 
L 226.730502 121.805 
z
" clip-path="url(#p819af9aabe)" style="fill: #0000ff"/>
   </g>
   <g id="patch_55">
    <path d="M 508.244015 127.755 
L 528.926641 127.755 
L 528.926641 121.805 
L 508.244015 121.805 
z
" clip-path="url(#p819af9aabe)" style="fill: #0000ff"/>
   </g>
   <g id="patch_56">
    <path d="M 530.075676 125.003125 
L 542.715058 125.003125 
L 542.715058 124.556875 
L 530.075676 124.556875 
z
" clip-path="url(#p819af9aabe)" style="fill: #0000ff"/>
   </g>
   <g id="patch_57">
    <path d="M 144 110.128125 
L 169.278764 110.128125 
L 169.278764 109.681875 
L 144 109.681875 
z
" clip-path="url(#p819af9aabe)" style="fill: #0000ff"/>
   </g>
   <g id="patch_58">
    <path d="M 170.427799 112.88 
L 422.066409 112.88 
L 422.066409 106.93 
L 170.427799 106.93 
z
" clip-path="url(#p819af9aabe)" style="fill: #0000ff"/>
   </g>
   <g id="patch_59">
    <path d="M 186.514286 112.88 
L 550.758301 112.88 
L 550.758301 106.93 
L 186.514286 106.93 
z
" clip-path="url(#p819af9aabe)" style="fill: #0000ff"/>
   </g>
   <g id="patch_60">
    <path d="M 222.134363 112.88 
L 302.566795 112.88 
L 302.566795 106.93 
L 222.134363 106.93 
z
" clip-path="url(#p819af9aabe)" style="fill: #0000ff"/>
   </g>
   <g id="patch_61">
    <path d="M 512.840154 112.88 
L 682.897297 112.88 
L 682.897297 106.93 
L 512.840154 106.93 
z
" clip-path="url(#p819af9aabe)" style="fill: #0000ff"/>
   </g>
   <g id="patch_62">
    <path d="M 561.099614 112.88 
L 967.857915 112.88 
L 967.857915 106.93 
L 561.099614 106.93 
z
" clip-path="url(#p819af9aabe)" style="fill: #0000ff"/>
   </g>
   <g id="patch_63">
    <path d="M 710.474131 112.88 
L 832.271815 112.88 
L 832.271815 106.93 
L 710.474131 106.93 
z
" clip-path="url(#p819af9aabe)" style="fill: #0000ff"/>
   </g>
   <g id="patch_64">
    <path d="M 855.25251 112.88 
L 956.367568 112.88 
L 956.367568 106.93 
L 855.25251 106.93 
z
" clip-path="url(#p819af9aabe)" style="fill: #0000ff"/>
   </g>
   <g id="patch_65">
    <path d="M 969.00695 110.128125 
L 994.285714 110.128125 
L 994.285714 109.681875 
L 969.00695 109.681875 
z
" clip-path="url(#p819af9aabe)" style="fill: #0000ff"/>
   </g>
   <g id="patch_66">
    <path d="M 144 95.253125 
L 605.911969 95.253125 
L 605.911969 94.806875 
L 144 94.806875 
z
" clip-path="url(#p819af9aabe)" style="fill: #0000ff"/>
   </g>
   <g id="patch_67">
    <path d="M 607.061004 98.005 
L 690.940541 98.005 
L 690.940541 92.055 
L 607.061004 92.055 
z
" clip-path="url(#p819af9aabe)" style="fill: #0000ff"/>
   </g>
   <g id="patch_68">
    <path d="M 608.210039 98.005 
L 840.315058 98.005 
L 840.315058 92.055 
L 608.210039 92.055 
z
" clip-path="url(#p819af9aabe)" style="fill: #0000ff"/>
   </g>
   <g id="patch_69">
    <path d="M 681.748263 98.005 
L 915.002317 98.005 
L 915.002317 92.055 
L 681.748263 92.055 
z
" clip-path="url(#p819af9aabe)" style="fill: #0000ff"/>
   </g>
   <g id="patch_70">
    <path d="M 724.262548 98.005 
L 763.32973 98.005 
L 763.32973 92.055 
L 724.262548 92.055 
z
" clip-path="url(#p819af9aabe)" style="fill: #0000ff"/>
   </g>
   <g id="patch_71">
    <path d="M 786.310425 98.005 
L 840.315058 98.005 
L 840.315058 92.055 
L 786.310425 92.055 
z
" clip-path="url(#p819af9aabe)" style="fill: #0000ff"/>
   </g>
   <g id="patch_72">
    <path d="M 916.151351 95.253125 
L 924.194595 95.253125 
L 924.194595 94.806875 
L 916.151351 94.806875 
z
" clip-path="url(#p819af9aabe)" style="fill: #0000ff"/>
   </g>
   <g id="patch_73">
    <path d="M 144 80.378125 
L 217.538224 80.378125 
L 217.538224 79.931875 
L 144 79.931875 
z
" clip-path="url(#p819af9aabe)" style="fill: #0000ff"/>
   </g>
   <g id="patch_74">
    <path d="M 218.687259 83.13 
L 471.474903 83.13 
L 471.474903 77.18 
L 218.687259 77.18 
z
" clip-path="url(#p819af9aabe)" style="fill: #0000ff"/>
   </g>
   <g id="patch_75">
    <path d="M 238.220849 83.13 
L 447.345174 83.13 
L 447.345174 77.18 
L 238.220849 77.18 
z
" clip-path="url(#p819af9aabe)" style="fill: #0000ff"/>
   </g>
   <g id="patch_76">
    <path d="M 255.456371 83.13 
L 340.484942 83.13 
L 340.484942 77.18 
L 255.456371 77.18 
z
" clip-path="url(#p819af9aabe)" style="fill: #0000ff"/>
   </g>
   <g id="patch_77">
    <path d="M 350.826255 83.13 
L 411.725097 83.13 
L 411.725097 77.18 
L 350.826255 77.18 
z
" clip-path="url(#p819af9aabe)" style="fill: #0000ff"/>
   </g>
   <g id="patch_78">
    <path d="M 144 68.255 
L 576.037066 68.255 
L 576.037066 62.305 
L 144 62.305 
z
" clip-path="url(#p819af9aabe)" style="fill: #0000ff"/>
   </g>
   <g id="patch_79">
    <path d="M 188.812355 68.255 
L 471.474903 68.255 
L 471.474903 62.305 
L 188.812355 62.305 
z
" clip-path="url(#p819af9aabe)" style="fill: #0000ff"/>
   </g>
   <g id="patch_80">
    <path d="M 235.92278 68.255 
L 330.143629 68.255 
L 330.143629 62.305 
L 235.92278 62.305 
z
" clip-path="url(#p819af9aabe)" style="fill: #0000ff"/>
   </g>
   <g id="patch_81">
    <path d="M 246.264093 68.255 
L 548.460232 68.255 
L 548.460232 62.305 
L 246.264093 62.305 
z
" clip-path="url(#p819af9aabe)" style="fill: #0000ff"/>
   </g>
   <g id="patch_82">
    <path d="M 340.484942 68.255 
L 395.63861 68.255 
L 395.63861 62.305 
L 340.484942 62.305 
z
" clip-path="url(#p819af9aabe)" style="fill: #0000ff"/>
   </g>
   <g id="patch_83">
    <path d="M 539.267954 68.255 
L 572.589961 68.255 
L 572.589961 62.305 
L 539.267954 62.305 
z
" clip-path="url(#p819af9aabe)" style="fill: #0000ff"/>
   </g>
   <g id="patch_84">
    <path d="M 577.1861 65.503125 
L 578.335135 65.503125 
L 578.335135 65.056875 
L 577.1861 65.056875 
z
" clip-path="url(#p819af9aabe)" style="fill: #0000ff"/>
   </g>
   <g id="patch_85">
    <path d="M 144 50.628125 
L 195.706564 50.628125 
L 195.706564 50.181875 
L 144 50.181875 
z
" clip-path="url(#p819af9aabe)" style="fill: #0000ff"/>
   </g>
   <g id="patch_86">
    <path d="M 196.855598 53.38 
L 340.484942 53.38 
L 340.484942 47.43 
L 196.855598 47.43 
z
" clip-path="url(#p819af9aabe)" style="fill: #0000ff"/>
   </g>
   <g id="patch_87">
    <path d="M 201.451737 53.38 
L 394.489575 53.38 
L 394.489575 47.43 
L 201.451737 47.43 
z
" clip-path="url(#p819af9aabe)" style="fill: #0000ff"/>
   </g>
   <g id="patch_88">
    <path d="M 206.047876 53.38 
L 289.927413 53.38 
L 289.927413 47.43 
L 206.047876 47.43 
z
" clip-path="url(#p819af9aabe)" style="fill: #0000ff"/>
   </g>
   <g id="patch_89">
    <path d="M 300.268726 53.38 
L 353.124324 53.38 
L 353.124324 47.43 
L 300.268726 47.43 
z
" clip-path="url(#p819af9aabe)" style="fill: #0000ff"/>
   </g>
   <g id="matplotlib.axis_1">
    <g id="xtick_1">
     <g id="line2d_1">
      <defs>
       <path id="m916e8120a0" d="M 0 0 
L 0 3.5 
" style="stroke: #000000; stroke-width: 0.8"/>
      </defs>
      <g>
       <use xlink:href="#m916e8120a0" x="257.75444" y="272.34" style="stroke: #000000; stroke-width: 0.8"/>
      </g>
     </g>
     <g id="text_1">
      <!-- 100 -->
      <g transform="translate(248.21069 286.938438) scale(0.1 -0.1)">
       <defs>
        <path id="DejaVuSans-31" d="M 794 531 
L 1825 531 
L 1825 4091 
L 703 3866 
L 703 4441 
L 1819 4666 
L 2450 4666 
L 2450 531 
L 3481 531 
L 3481 0 
L 794 0 
L 794 531 
z
" transform="scale(0.015625)"/>
        <path id="DejaVuSans-30" d="M 2034 4250 
Q 1547 4250 1301 3770 
Q 1056 3291 1056 2328 
Q 1056 1369 1301 889 
Q 1547 409 2034 409 
Q 2525 409 2770 889 
Q 3016 1369 3016 2328 
Q 3016 3291 2770 3770 
Q 2525 4250 2034 4250 
z
M 2034 4750 
Q 2819 4750 3233 4129 
Q 3647 3509 3647 2328 
Q 3647 1150 3233 529 
Q 2819 -91 2034 -91 
Q 1250 -91 836 529 
Q 422 1150 422 2328 
Q 422 3509 836 4129 
Q 1250 4750 2034 4750 
z
" transform="scale(0.015625)"/>
       </defs>
       <use xlink:href="#DejaVuSans-31"/>
       <use xlink:href="#DejaVuSans-30" x="63.623047"/>
       <use xlink:href="#DejaVuSans-30" x="127.246094"/>
      </g>
     </g>
    </g>
    <g id="xtick_2">
     <g id="line2d_2">
      <g>
       <use xlink:href="#m916e8120a0" x="372.657915" y="272.34" style="stroke: #000000; stroke-width: 0.8"/>
      </g>
     </g>
     <g id="text_2">
      <!-- 200 -->
      <g transform="translate(363.114165 286.938438) scale(0.1 -0.1)">
       <defs>
        <path id="DejaVuSans-32" d="M 1228 531 
L 3431 531 
L 3431 0 
L 469 0 
L 469 531 
Q 828 903 1448 1529 
Q 2069 2156 2228 2338 
Q 2531 2678 2651 2914 
Q 2772 3150 2772 3378 
Q 2772 3750 2511 3984 
Q 2250 4219 1831 4219 
Q 1534 4219 1204 4116 
Q 875 4013 500 3803 
L 500 4441 
Q 881 4594 1212 4672 
Q 1544 4750 1819 4750 
Q 2544 4750 2975 4387 
Q 3406 4025 3406 3419 
Q 3406 3131 3298 2873 
Q 3191 2616 2906 2266 
Q 2828 2175 2409 1742 
Q 1991 1309 1228 531 
z
" transform="scale(0.015625)"/>
       </defs>
       <use xlink:href="#DejaVuSans-32"/>
       <use xlink:href="#DejaVuSans-30" x="63.623047"/>
       <use xlink:href="#DejaVuSans-30" x="127.246094"/>
      </g>
     </g>
    </g>
    <g id="xtick_3">
     <g id="line2d_3">
      <g>
       <use xlink:href="#m916e8120a0" x="487.56139" y="272.34" style="stroke: #000000; stroke-width: 0.8"/>
      </g>
     </g>
     <g id="text_3">
      <!-- 300 -->
      <g transform="translate(478.01764 286.938438) scale(0.1 -0.1)">
       <defs>
        <path id="DejaVuSans-33" d="M 2597 2516 
Q 3050 2419 3304 2112 
Q 3559 1806 3559 1356 
Q 3559 666 3084 287 
Q 2609 -91 1734 -91 
Q 1441 -91 1130 -33 
Q 819 25 488 141 
L 488 750 
Q 750 597 1062 519 
Q 1375 441 1716 441 
Q 2309 441 2620 675 
Q 2931 909 2931 1356 
Q 2931 1769 2642 2001 
Q 2353 2234 1838 2234 
L 1294 2234 
L 1294 2753 
L 1863 2753 
Q 2328 2753 2575 2939 
Q 2822 3125 2822 3475 
Q 2822 3834 2567 4026 
Q 2313 4219 1838 4219 
Q 1578 4219 1281 4162 
Q 984 4106 628 3988 
L 628 4550 
Q 988 4650 1302 4700 
Q 1616 4750 1894 4750 
Q 2613 4750 3031 4423 
Q 3450 4097 3450 3541 
Q 3450 3153 3228 2886 
Q 3006 2619 2597 2516 
z
" transform="scale(0.015625)"/>
       </defs>
       <use xlink:href="#DejaVuSans-33"/>
       <use xlink:href="#DejaVuSans-30" x="63.623047"/>
       <use xlink:href="#DejaVuSans-30" x="127.246094"/>
      </g>
     </g>
    </g>
    <g id="xtick_4">
     <g id="line2d_4">
      <g>
       <use xlink:href="#m916e8120a0" x="602.464865" y="272.34" style="stroke: #000000; stroke-width: 0.8"/>
      </g>
     </g>
     <g id="text_4">
      <!-- 400 -->
      <g transform="translate(592.921115 286.938438) scale(0.1 -0.1)">
       <defs>
        <path id="DejaVuSans-34" d="M 2419 4116 
L 825 1625 
L 2419 1625 
L 2419 4116 
z
M 2253 4666 
L 3047 4666 
L 3047 1625 
L 3713 1625 
L 3713 1100 
L 3047 1100 
L 3047 0 
L 2419 0 
L 2419 1100 
L 313 1100 
L 313 1709 
L 2253 4666 
z
" transform="scale(0.015625)"/>
       </defs>
       <use xlink:href="#DejaVuSans-34"/>
       <use xlink:href="#DejaVuSans-30" x="63.623047"/>
       <use xlink:href="#DejaVuSans-30" x="127.246094"/>
      </g>
     </g>
    </g>
    <g id="xtick_5">
     <g id="line2d_5">
      <g>
       <use xlink:href="#m916e8120a0" x="717.36834" y="272.34" style="stroke: #000000; stroke-width: 0.8"/>
      </g>
     </g>
     <g id="text_5">
      <!-- 500 -->
      <g transform="translate(707.82459 286.938438) scale(0.1 -0.1)">
       <defs>
        <path id="DejaVuSans-35" d="M 691 4666 
L 3169 4666 
L 3169 4134 
L 1269 4134 
L 1269 2991 
Q 1406 3038 1543 3061 
Q 1681 3084 1819 3084 
Q 2600 3084 3056 2656 
Q 3513 2228 3513 1497 
Q 3513 744 3044 326 
Q 2575 -91 1722 -91 
Q 1428 -91 1123 -41 
Q 819 9 494 109 
L 494 744 
Q 775 591 1075 516 
Q 1375 441 1709 441 
Q 2250 441 2565 725 
Q 2881 1009 2881 1497 
Q 2881 1984 2565 2268 
Q 2250 2553 1709 2553 
Q 1456 2553 1204 2497 
Q 953 2441 691 2322 
L 691 4666 
z
" transform="scale(0.015625)"/>
       </defs>
       <use xlink:href="#DejaVuSans-35"/>
       <use xlink:href="#DejaVuSans-30" x="63.623047"/>
       <use xlink:href="#DejaVuSans-30" x="127.246094"/>
      </g>
     </g>
    </g>
    <g id="xtick_6">
     <g id="line2d_6">
      <g>
       <use xlink:href="#m916e8120a0" x="832.271815" y="272.34" style="stroke: #000000; stroke-width: 0.8"/>
      </g>
     </g>
     <g id="text_6">
      <!-- 600 -->
      <g transform="translate(822.728065 286.938438) scale(0.1 -0.1)">
       <defs>
        <path id="DejaVuSans-36" d="M 2113 2584 
Q 1688 2584 1439 2293 
Q 1191 2003 1191 1497 
Q 1191 994 1439 701 
Q 1688 409 2113 409 
Q 2538 409 2786 701 
Q 3034 994 3034 1497 
Q 3034 2003 2786 2293 
Q 2538 2584 2113 2584 
z
M 3366 4563 
L 3366 3988 
Q 3128 4100 2886 4159 
Q 2644 4219 2406 4219 
Q 1781 4219 1451 3797 
Q 1122 3375 1075 2522 
Q 1259 2794 1537 2939 
Q 1816 3084 2150 3084 
Q 2853 3084 3261 2657 
Q 3669 2231 3669 1497 
Q 3669 778 3244 343 
Q 2819 -91 2113 -91 
Q 1303 -91 875 529 
Q 447 1150 447 2328 
Q 447 3434 972 4092 
Q 1497 4750 2381 4750 
Q 2619 4750 2861 4703 
Q 3103 4656 3366 4563 
z
" transform="scale(0.015625)"/>
       </defs>
       <use xlink:href="#DejaVuSans-36"/>
       <use xlink:href="#DejaVuSans-30" x="63.623047"/>
       <use xlink:href="#DejaVuSans-30" x="127.246094"/>
      </g>
     </g>
    </g>
    <g id="xtick_7">
     <g id="line2d_7">
      <g>
       <use xlink:href="#m916e8120a0" x="947.17529" y="272.34" style="stroke: #000000; stroke-width: 0.8"/>
      </g>
     </g>
     <g id="text_7">
      <!-- 700 -->
      <g transform="translate(937.63154 286.938438) scale(0.1 -0.1)">
       <defs>
        <path id="DejaVuSans-37" d="M 525 4666 
L 3525 4666 
L 3525 4397 
L 1831 0 
L 1172 0 
L 2766 4134 
L 525 4134 
L 525 4666 
z
" transform="scale(0.015625)"/>
       </defs>
       <use xlink:href="#DejaVuSans-37"/>
       <use xlink:href="#DejaVuSans-30" x="63.623047"/>
       <use xlink:href="#DejaVuSans-30" x="127.246094"/>
      </g>
     </g>
    </g>
    <g id="text_8">
     <!-- Residual -->
     <g transform="translate(569.284375 300.616562) scale(0.1 -0.1)">
      <defs>
       <path id="DejaVuSans-52" d="M 2841 2188 
Q 3044 2119 3236 1894 
Q 3428 1669 3622 1275 
L 4263 0 
L 3584 0 
L 2988 1197 
Q 2756 1666 2539 1819 
Q 2322 1972 1947 1972 
L 1259 1972 
L 1259 0 
L 628 0 
L 628 4666 
L 2053 4666 
Q 2853 4666 3247 4331 
Q 3641 3997 3641 3322 
Q 3641 2881 3436 2590 
Q 3231 2300 2841 2188 
z
M 1259 4147 
L 1259 2491 
L 2053 2491 
Q 2509 2491 2742 2702 
Q 2975 2913 2975 3322 
Q 2975 3731 2742 3939 
Q 2509 4147 2053 4147 
L 1259 4147 
z
" transform="scale(0.015625)"/>
       <path id="DejaVuSans-65" d="M 3597 1894 
L 3597 1613 
L 953 1613 
Q 991 1019 1311 708 
Q 1631 397 2203 397 
Q 2534 397 2845 478 
Q 3156 559 3463 722 
L 3463 178 
Q 3153 47 2828 -22 
Q 2503 -91 2169 -91 
Q 1331 -91 842 396 
Q 353 884 353 1716 
Q 353 2575 817 3079 
Q 1281 3584 2069 3584 
Q 2775 3584 3186 3129 
Q 3597 2675 3597 1894 
z
M 3022 2063 
Q 3016 2534 2758 2815 
Q 2500 3097 2075 3097 
Q 1594 3097 1305 2825 
Q 1016 2553 972 2059 
L 3022 2063 
z
" transform="scale(0.015625)"/>
       <path id="DejaVuSans-73" d="M 2834 3397 
L 2834 2853 
Q 2591 2978 2328 3040 
Q 2066 3103 1784 3103 
Q 1356 3103 1142 2972 
Q 928 2841 928 2578 
Q 928 2378 1081 2264 
Q 1234 2150 1697 2047 
L 1894 2003 
Q 2506 1872 2764 1633 
Q 3022 1394 3022 966 
Q 3022 478 2636 193 
Q 2250 -91 1575 -91 
Q 1294 -91 989 -36 
Q 684 19 347 128 
L 347 722 
Q 666 556 975 473 
Q 1284 391 1588 391 
Q 1994 391 2212 530 
Q 2431 669 2431 922 
Q 2431 1156 2273 1281 
Q 2116 1406 1581 1522 
L 1381 1569 
Q 847 1681 609 1914 
Q 372 2147 372 2553 
Q 372 3047 722 3315 
Q 1072 3584 1716 3584 
Q 2034 3584 2315 3537 
Q 2597 3491 2834 3397 
z
" transform="scale(0.015625)"/>
       <path id="DejaVuSans-69" d="M 603 3500 
L 1178 3500 
L 1178 0 
L 603 0 
L 603 3500 
z
M 603 4863 
L 1178 4863 
L 1178 4134 
L 603 4134 
L 603 4863 
z
" transform="scale(0.015625)"/>
       <path id="DejaVuSans-64" d="M 2906 2969 
L 2906 4863 
L 3481 4863 
L 3481 0 
L 2906 0 
L 2906 525 
Q 2725 213 2448 61 
Q 2172 -91 1784 -91 
Q 1150 -91 751 415 
Q 353 922 353 1747 
Q 353 2572 751 3078 
Q 1150 3584 1784 3584 
Q 2172 3584 2448 3432 
Q 2725 3281 2906 2969 
z
M 947 1747 
Q 947 1113 1208 752 
Q 1469 391 1925 391 
Q 2381 391 2643 752 
Q 2906 1113 2906 1747 
Q 2906 2381 2643 2742 
Q 2381 3103 1925 3103 
Q 1469 3103 1208 2742 
Q 947 2381 947 1747 
z
" transform="scale(0.015625)"/>
       <path id="DejaVuSans-75" d="M 544 1381 
L 544 3500 
L 1119 3500 
L 1119 1403 
Q 1119 906 1312 657 
Q 1506 409 1894 409 
Q 2359 409 2629 706 
Q 2900 1003 2900 1516 
L 2900 3500 
L 3475 3500 
L 3475 0 
L 2900 0 
L 2900 538 
Q 2691 219 2414 64 
Q 2138 -91 1772 -91 
Q 1169 -91 856 284 
Q 544 659 544 1381 
z
M 1991 3584 
L 1991 3584 
z
" transform="scale(0.015625)"/>
       <path id="DejaVuSans-61" d="M 2194 1759 
Q 1497 1759 1228 1600 
Q 959 1441 959 1056 
Q 959 750 1161 570 
Q 1363 391 1709 391 
Q 2188 391 2477 730 
Q 2766 1069 2766 1631 
L 2766 1759 
L 2194 1759 
z
M 3341 1997 
L 3341 0 
L 2766 0 
L 2766 531 
Q 2569 213 2275 61 
Q 1981 -91 1556 -91 
Q 1019 -91 701 211 
Q 384 513 384 1019 
Q 384 1609 779 1909 
Q 1175 2209 1959 2209 
L 2766 2209 
L 2766 2266 
Q 2766 2663 2505 2880 
Q 2244 3097 1772 3097 
Q 1472 3097 1187 3025 
Q 903 2953 641 2809 
L 641 3341 
Q 956 3463 1253 3523 
Q 1550 3584 1831 3584 
Q 2591 3584 2966 3190 
Q 3341 2797 3341 1997 
z
" transform="scale(0.015625)"/>
       <path id="DejaVuSans-6c" d="M 603 4863 
L 1178 4863 
L 1178 0 
L 603 0 
L 603 4863 
z
" transform="scale(0.015625)"/>
      </defs>
      <use xlink:href="#DejaVuSans-52"/>
      <use xlink:href="#DejaVuSans-65" x="64.982422"/>
      <use xlink:href="#DejaVuSans-73" x="126.505859"/>
      <use xlink:href="#DejaVuSans-69" x="178.605469"/>
      <use xlink:href="#DejaVuSans-64" x="206.388672"/>
      <use xlink:href="#DejaVuSans-75" x="269.865234"/>
      <use xlink:href="#DejaVuSans-61" x="333.244141"/>
      <use xlink:href="#DejaVuSans-6c" x="394.523438"/>
     </g>
    </g>
   </g>
   <g id="matplotlib.axis_2">
    <g id="ytick_1">
     <g id="line2d_8">
      <defs>
       <path id="m505037b387" d="M 0 0 
L -3.5 0 
" style="stroke: #000000; stroke-width: 0.8"/>
      </defs>
      <g>
       <use xlink:href="#m505037b387" x="144" y="258.655" style="stroke: #000000; stroke-width: 0.8"/>
      </g>
     </g>
     <g id="text_9">
      <!-- 1.B.18.1.1 -->
      <g transform="translate(85.614062 262.454219) scale(0.1 -0.1)">
       <defs>
        <path id="DejaVuSans-2e" d="M 684 794 
L 1344 794 
L 1344 0 
L 684 0 
L 684 794 
z
" transform="scale(0.015625)"/>
        <path id="DejaVuSans-42" d="M 1259 2228 
L 1259 519 
L 2272 519 
Q 2781 519 3026 730 
Q 3272 941 3272 1375 
Q 3272 1813 3026 2020 
Q 2781 2228 2272 2228 
L 1259 2228 
z
M 1259 4147 
L 1259 2741 
L 2194 2741 
Q 2656 2741 2882 2914 
Q 3109 3088 3109 3444 
Q 3109 3797 2882 3972 
Q 2656 4147 2194 4147 
L 1259 4147 
z
M 628 4666 
L 2241 4666 
Q 2963 4666 3353 4366 
Q 3744 4066 3744 3513 
Q 3744 3084 3544 2831 
Q 3344 2578 2956 2516 
Q 3422 2416 3680 2098 
Q 3938 1781 3938 1306 
Q 3938 681 3513 340 
Q 3088 0 2303 0 
L 628 0 
L 628 4666 
z
" transform="scale(0.015625)"/>
        <path id="DejaVuSans-38" d="M 2034 2216 
Q 1584 2216 1326 1975 
Q 1069 1734 1069 1313 
Q 1069 891 1326 650 
Q 1584 409 2034 409 
Q 2484 409 2743 651 
Q 3003 894 3003 1313 
Q 3003 1734 2745 1975 
Q 2488 2216 2034 2216 
z
M 1403 2484 
Q 997 2584 770 2862 
Q 544 3141 544 3541 
Q 544 4100 942 4425 
Q 1341 4750 2034 4750 
Q 2731 4750 3128 4425 
Q 3525 4100 3525 3541 
Q 3525 3141 3298 2862 
Q 3072 2584 2669 2484 
Q 3125 2378 3379 2068 
Q 3634 1759 3634 1313 
Q 3634 634 3220 271 
Q 2806 -91 2034 -91 
Q 1263 -91 848 271 
Q 434 634 434 1313 
Q 434 1759 690 2068 
Q 947 2378 1403 2484 
z
M 1172 3481 
Q 1172 3119 1398 2916 
Q 1625 2713 2034 2713 
Q 2441 2713 2670 2916 
Q 2900 3119 2900 3481 
Q 2900 3844 2670 4047 
Q 2441 4250 2034 4250 
Q 1625 4250 1398 4047 
Q 1172 3844 1172 3481 
z
" transform="scale(0.015625)"/>
       </defs>
       <use xlink:href="#DejaVuSans-31"/>
       <use xlink:href="#DejaVuSans-2e" x="63.623047"/>
       <use xlink:href="#DejaVuSans-42" x="95.410156"/>
       <use xlink:href="#DejaVuSans-2e" x="164.013672"/>
       <use xlink:href="#DejaVuSans-31" x="195.800781"/>
       <use xlink:href="#DejaVuSans-38" x="259.423828"/>
       <use xlink:href="#DejaVuSans-2e" x="323.046875"/>
       <use xlink:href="#DejaVuSans-31" x="354.833984"/>
       <use xlink:href="#DejaVuSans-2e" x="418.457031"/>
       <use xlink:href="#DejaVuSans-31" x="450.244141"/>
      </g>
     </g>
    </g>
    <g id="ytick_2">
     <g id="line2d_9">
      <g>
       <use xlink:href="#m505037b387" x="144" y="243.78" style="stroke: #000000; stroke-width: 0.8"/>
      </g>
     </g>
     <g id="text_10">
      <!-- 1.B.18.1.2 -->
      <g transform="translate(85.614062 247.579219) scale(0.1 -0.1)">
       <use xlink:href="#DejaVuSans-31"/>
       <use xlink:href="#DejaVuSans-2e" x="63.623047"/>
       <use xlink:href="#DejaVuSans-42" x="95.410156"/>
       <use xlink:href="#DejaVuSans-2e" x="164.013672"/>
       <use xlink:href="#DejaVuSans-31" x="195.800781"/>
       <use xlink:href="#DejaVuSans-38" x="259.423828"/>
       <use xlink:href="#DejaVuSans-2e" x="323.046875"/>
       <use xlink:href="#DejaVuSans-31" x="354.833984"/>
       <use xlink:href="#DejaVuSans-2e" x="418.457031"/>
       <use xlink:href="#DejaVuSans-32" x="450.244141"/>
      </g>
     </g>
    </g>
    <g id="ytick_3">
     <g id="line2d_10">
      <g>
       <use xlink:href="#m505037b387" x="144" y="228.905" style="stroke: #000000; stroke-width: 0.8"/>
      </g>
     </g>
     <g id="text_11">
      <!-- 1.B.18.2.1 -->
      <g transform="translate(85.614062 232.704219) scale(0.1 -0.1)">
       <use xlink:href="#DejaVuSans-31"/>
       <use xlink:href="#DejaVuSans-2e" x="63.623047"/>
       <use xlink:href="#DejaVuSans-42" x="95.410156"/>
       <use xlink:href="#DejaVuSans-2e" x="164.013672"/>
       <use xlink:href="#DejaVuSans-31" x="195.800781"/>
       <use xlink:href="#DejaVuSans-38" x="259.423828"/>
       <use xlink:href="#DejaVuSans-2e" x="323.046875"/>
       <use xlink:href="#DejaVuSans-32" x="354.833984"/>
       <use xlink:href="#DejaVuSans-2e" x="418.457031"/>
       <use xlink:href="#DejaVuSans-31" x="450.244141"/>
      </g>
     </g>
    </g>
    <g id="ytick_4">
     <g id="line2d_11">
      <g>
       <use xlink:href="#m505037b387" x="144" y="214.03" style="stroke: #000000; stroke-width: 0.8"/>
      </g>
     </g>
     <g id="text_12">
      <!-- 1.B.18.2.2 -->
      <g transform="translate(85.614062 217.829219) scale(0.1 -0.1)">
       <use xlink:href="#DejaVuSans-31"/>
       <use xlink:href="#DejaVuSans-2e" x="63.623047"/>
       <use xlink:href="#DejaVuSans-42" x="95.410156"/>
       <use xlink:href="#DejaVuSans-2e" x="164.013672"/>
       <use xlink:href="#DejaVuSans-31" x="195.800781"/>
       <use xlink:href="#DejaVuSans-38" x="259.423828"/>
       <use xlink:href="#DejaVuSans-2e" x="323.046875"/>
       <use xlink:href="#DejaVuSans-32" x="354.833984"/>
       <use xlink:href="#DejaVuSans-2e" x="418.457031"/>
       <use xlink:href="#DejaVuSans-32" x="450.244141"/>
      </g>
     </g>
    </g>
    <g id="ytick_5">
     <g id="line2d_12">
      <g>
       <use xlink:href="#m505037b387" x="144" y="199.155" style="stroke: #000000; stroke-width: 0.8"/>
      </g>
     </g>
     <g id="text_13">
      <!-- 1.B.18.2.3 -->
      <g transform="translate(85.614062 202.954219) scale(0.1 -0.1)">
       <use xlink:href="#DejaVuSans-31"/>
       <use xlink:href="#DejaVuSans-2e" x="63.623047"/>
       <use xlink:href="#DejaVuSans-42" x="95.410156"/>
       <use xlink:href="#DejaVuSans-2e" x="164.013672"/>
       <use xlink:href="#DejaVuSans-31" x="195.800781"/>
       <use xlink:href="#DejaVuSans-38" x="259.423828"/>
       <use xlink:href="#DejaVuSans-2e" x="323.046875"/>
       <use xlink:href="#DejaVuSans-32" x="354.833984"/>
       <use xlink:href="#DejaVuSans-2e" x="418.457031"/>
       <use xlink:href="#DejaVuSans-33" x="450.244141"/>
      </g>
     </g>
    </g>
    <g id="ytick_6">
     <g id="line2d_13">
      <g>
       <use xlink:href="#m505037b387" x="144" y="184.28" style="stroke: #000000; stroke-width: 0.8"/>
      </g>
     </g>
     <g id="text_14">
      <!-- 1.B.18.2.4 -->
      <g transform="translate(85.614062 188.079219) scale(0.1 -0.1)">
       <use xlink:href="#DejaVuSans-31"/>
       <use xlink:href="#DejaVuSans-2e" x="63.623047"/>
       <use xlink:href="#DejaVuSans-42" x="95.410156"/>
       <use xlink:href="#DejaVuSans-2e" x="164.013672"/>
       <use xlink:href="#DejaVuSans-31" x="195.800781"/>
       <use xlink:href="#DejaVuSans-38" x="259.423828"/>
       <use xlink:href="#DejaVuSans-2e" x="323.046875"/>
       <use xlink:href="#DejaVuSans-32" x="354.833984"/>
       <use xlink:href="#DejaVuSans-2e" x="418.457031"/>
       <use xlink:href="#DejaVuSans-34" x="450.244141"/>
      </g>
     </g>
    </g>
    <g id="ytick_7">
     <g id="line2d_14">
      <g>
       <use xlink:href="#m505037b387" x="144" y="169.405" style="stroke: #000000; stroke-width: 0.8"/>
      </g>
     </g>
     <g id="text_15">
      <!-- 1.B.18.3.1 -->
      <g transform="translate(85.614062 173.204219) scale(0.1 -0.1)">
       <use xlink:href="#DejaVuSans-31"/>
       <use xlink:href="#DejaVuSans-2e" x="63.623047"/>
       <use xlink:href="#DejaVuSans-42" x="95.410156"/>
       <use xlink:href="#DejaVuSans-2e" x="164.013672"/>
       <use xlink:href="#DejaVuSans-31" x="195.800781"/>
       <use xlink:href="#DejaVuSans-38" x="259.423828"/>
       <use xlink:href="#DejaVuSans-2e" x="323.046875"/>
       <use xlink:href="#DejaVuSans-33" x="354.833984"/>
       <use xlink:href="#DejaVuSans-2e" x="418.457031"/>
       <use xlink:href="#DejaVuSans-31" x="450.244141"/>
      </g>
     </g>
    </g>
    <g id="ytick_8">
     <g id="line2d_15">
      <g>
       <use xlink:href="#m505037b387" x="144" y="154.53" style="stroke: #000000; stroke-width: 0.8"/>
      </g>
     </g>
     <g id="text_16">
      <!-- 1.B.18.3.2 -->
      <g transform="translate(85.614062 158.329219) scale(0.1 -0.1)">
       <use xlink:href="#DejaVuSans-31"/>
       <use xlink:href="#DejaVuSans-2e" x="63.623047"/>
       <use xlink:href="#DejaVuSans-42" x="95.410156"/>
       <use xlink:href="#DejaVuSans-2e" x="164.013672"/>
       <use xlink:href="#DejaVuSans-31" x="195.800781"/>
       <use xlink:href="#DejaVuSans-38" x="259.423828"/>
       <use xlink:href="#DejaVuSans-2e" x="323.046875"/>
       <use xlink:href="#DejaVuSans-33" x="354.833984"/>
       <use xlink:href="#DejaVuSans-2e" x="418.457031"/>
       <use xlink:href="#DejaVuSans-32" x="450.244141"/>
      </g>
     </g>
    </g>
    <g id="ytick_9">
     <g id="line2d_16">
      <g>
       <use xlink:href="#m505037b387" x="144" y="139.655" style="stroke: #000000; stroke-width: 0.8"/>
      </g>
     </g>
     <g id="text_17">
      <!-- 1.B.18.3.3 -->
      <g transform="translate(85.614062 143.454219) scale(0.1 -0.1)">
       <use xlink:href="#DejaVuSans-31"/>
       <use xlink:href="#DejaVuSans-2e" x="63.623047"/>
       <use xlink:href="#DejaVuSans-42" x="95.410156"/>
       <use xlink:href="#DejaVuSans-2e" x="164.013672"/>
       <use xlink:href="#DejaVuSans-31" x="195.800781"/>
       <use xlink:href="#DejaVuSans-38" x="259.423828"/>
       <use xlink:href="#DejaVuSans-2e" x="323.046875"/>
       <use xlink:href="#DejaVuSans-33" x="354.833984"/>
       <use xlink:href="#DejaVuSans-2e" x="418.457031"/>
       <use xlink:href="#DejaVuSans-33" x="450.244141"/>
      </g>
     </g>
    </g>
    <g id="ytick_10">
     <g id="line2d_17">
      <g>
       <use xlink:href="#m505037b387" x="144" y="124.78" style="stroke: #000000; stroke-width: 0.8"/>
      </g>
     </g>
     <g id="text_18">
      <!-- 1.B.18.3.4 -->
      <g transform="translate(85.614062 128.579219) scale(0.1 -0.1)">
       <use xlink:href="#DejaVuSans-31"/>
       <use xlink:href="#DejaVuSans-2e" x="63.623047"/>
       <use xlink:href="#DejaVuSans-42" x="95.410156"/>
       <use xlink:href="#DejaVuSans-2e" x="164.013672"/>
       <use xlink:href="#DejaVuSans-31" x="195.800781"/>
       <use xlink:href="#DejaVuSans-38" x="259.423828"/>
       <use xlink:href="#DejaVuSans-2e" x="323.046875"/>
       <use xlink:href="#DejaVuSans-33" x="354.833984"/>
       <use xlink:href="#DejaVuSans-2e" x="418.457031"/>
       <use xlink:href="#DejaVuSans-34" x="450.244141"/>
      </g>
     </g>
    </g>
    <g id="ytick_11">
     <g id="line2d_18">
      <g>
       <use xlink:href="#m505037b387" x="144" y="109.905" style="stroke: #000000; stroke-width: 0.8"/>
      </g>
     </g>
     <g id="text_19">
      <!-- 1.B.18.3.5 -->
      <g transform="translate(85.614062 113.704219) scale(0.1 -0.1)">
       <use xlink:href="#DejaVuSans-31"/>
       <use xlink:href="#DejaVuSans-2e" x="63.623047"/>
       <use xlink:href="#DejaVuSans-42" x="95.410156"/>
       <use xlink:href="#DejaVuSans-2e" x="164.013672"/>
       <use xlink:href="#DejaVuSans-31" x="195.800781"/>
       <use xlink:href="#DejaVuSans-38" x="259.423828"/>
       <use xlink:href="#DejaVuSans-2e" x="323.046875"/>
       <use xlink:href="#DejaVuSans-33" x="354.833984"/>
       <use xlink:href="#DejaVuSans-2e" x="418.457031"/>
       <use xlink:href="#DejaVuSans-35" x="450.244141"/>
      </g>
     </g>
    </g>
    <g id="ytick_12">
     <g id="line2d_19">
      <g>
       <use xlink:href="#m505037b387" x="144" y="95.03" style="stroke: #000000; stroke-width: 0.8"/>
      </g>
     </g>
     <g id="text_20">
      <!-- 1.B.18.3.6 -->
      <g transform="translate(85.614062 98.829219) scale(0.1 -0.1)">
       <use xlink:href="#DejaVuSans-31"/>
       <use xlink:href="#DejaVuSans-2e" x="63.623047"/>
       <use xlink:href="#DejaVuSans-42" x="95.410156"/>
       <use xlink:href="#DejaVuSans-2e" x="164.013672"/>
       <use xlink:href="#DejaVuSans-31" x="195.800781"/>
       <use xlink:href="#DejaVuSans-38" x="259.423828"/>
       <use xlink:href="#DejaVuSans-2e" x="323.046875"/>
       <use xlink:href="#DejaVuSans-33" x="354.833984"/>
       <use xlink:href="#DejaVuSans-2e" x="418.457031"/>
       <use xlink:href="#DejaVuSans-36" x="450.244141"/>
      </g>
     </g>
    </g>
    <g id="ytick_13">
     <g id="line2d_20">
      <g>
       <use xlink:href="#m505037b387" x="144" y="80.155" style="stroke: #000000; stroke-width: 0.8"/>
      </g>
     </g>
     <g id="text_21">
      <!-- 1.B.18.3.7 -->
      <g transform="translate(85.614062 83.954219) scale(0.1 -0.1)">
       <use xlink:href="#DejaVuSans-31"/>
       <use xlink:href="#DejaVuSans-2e" x="63.623047"/>
       <use xlink:href="#DejaVuSans-42" x="95.410156"/>
       <use xlink:href="#DejaVuSans-2e" x="164.013672"/>
       <use xlink:href="#DejaVuSans-31" x="195.800781"/>
       <use xlink:href="#DejaVuSans-38" x="259.423828"/>
       <use xlink:href="#DejaVuSans-2e" x="323.046875"/>
       <use xlink:href="#DejaVuSans-33" x="354.833984"/>
       <use xlink:href="#DejaVuSans-2e" x="418.457031"/>
       <use xlink:href="#DejaVuSans-37" x="450.244141"/>
      </g>
     </g>
    </g>
    <g id="ytick_14">
     <g id="line2d_21">
      <g>
       <use xlink:href="#m505037b387" x="144" y="65.28" style="stroke: #000000; stroke-width: 0.8"/>
      </g>
     </g>
     <g id="text_22">
      <!-- 1.B.18.3.8 -->
      <g transform="translate(85.614062 69.079219) scale(0.1 -0.1)">
       <use xlink:href="#DejaVuSans-31"/>
       <use xlink:href="#DejaVuSans-2e" x="63.623047"/>
       <use xlink:href="#DejaVuSans-42" x="95.410156"/>
       <use xlink:href="#DejaVuSans-2e" x="164.013672"/>
       <use xlink:href="#DejaVuSans-31" x="195.800781"/>
       <use xlink:href="#DejaVuSans-38" x="259.423828"/>
       <use xlink:href="#DejaVuSans-2e" x="323.046875"/>
       <use xlink:href="#DejaVuSans-33" x="354.833984"/>
       <use xlink:href="#DejaVuSans-2e" x="418.457031"/>
       <use xlink:href="#DejaVuSans-38" x="450.244141"/>
      </g>
     </g>
    </g>
    <g id="ytick_15">
     <g id="line2d_22">
      <g>
       <use xlink:href="#m505037b387" x="144" y="50.405" style="stroke: #000000; stroke-width: 0.8"/>
      </g>
     </g>
     <g id="text_23">
      <!-- 1.B.18.3.9 -->
      <g transform="translate(85.614062 54.204219) scale(0.1 -0.1)">
       <defs>
        <path id="DejaVuSans-39" d="M 703 97 
L 703 672 
Q 941 559 1184 500 
Q 1428 441 1663 441 
Q 2288 441 2617 861 
Q 2947 1281 2994 2138 
Q 2813 1869 2534 1725 
Q 2256 1581 1919 1581 
Q 1219 1581 811 2004 
Q 403 2428 403 3163 
Q 403 3881 828 4315 
Q 1253 4750 1959 4750 
Q 2769 4750 3195 4129 
Q 3622 3509 3622 2328 
Q 3622 1225 3098 567 
Q 2575 -91 1691 -91 
Q 1453 -91 1209 -44 
Q 966 3 703 97 
z
M 1959 2075 
Q 2384 2075 2632 2365 
Q 2881 2656 2881 3163 
Q 2881 3666 2632 3958 
Q 2384 4250 1959 4250 
Q 1534 4250 1286 3958 
Q 1038 3666 1038 3163 
Q 1038 2656 1286 2365 
Q 1534 2075 1959 2075 
z
" transform="scale(0.015625)"/>
       </defs>
       <use xlink:href="#DejaVuSans-31"/>
       <use xlink:href="#DejaVuSans-2e" x="63.623047"/>
       <use xlink:href="#DejaVuSans-42" x="95.410156"/>
       <use xlink:href="#DejaVuSans-2e" x="164.013672"/>
       <use xlink:href="#DejaVuSans-31" x="195.800781"/>
       <use xlink:href="#DejaVuSans-38" x="259.423828"/>
       <use xlink:href="#DejaVuSans-2e" x="323.046875"/>
       <use xlink:href="#DejaVuSans-33" x="354.833984"/>
       <use xlink:href="#DejaVuSans-2e" x="418.457031"/>
       <use xlink:href="#DejaVuSans-39" x="450.244141"/>
      </g>
     </g>
    </g>
   </g>
   <g id="patch_90">
    <path d="M 144 272.34 
L 144 36.72 
" style="fill: none; stroke: #000000; stroke-width: 0.8; stroke-linejoin: miter; stroke-linecap: square"/>
   </g>
   <g id="patch_91">
    <path d="M 1036.8 272.34 
L 1036.8 36.72 
" style="fill: none; stroke: #000000; stroke-width: 0.8; stroke-linejoin: miter; stroke-linecap: square"/>
   </g>
   <g id="patch_92">
    <path d="M 144 272.34 
L 1036.8 272.34 
" style="fill: none; stroke: #000000; stroke-width: 0.8; stroke-linejoin: miter; stroke-linecap: square"/>
   </g>
   <g id="patch_93">
    <path d="M 144 36.72 
L 1036.8 36.72 
" style="fill: none; stroke: #000000; stroke-width: 0.8; stroke-linejoin: miter; stroke-linecap: square"/>
   </g>
   <g id="text_24">
    <!-- 1.B.18 Summary -->
    <g transform="translate(540.115312 30.72) scale(0.12 -0.12)">
     <defs>
      <path id="DejaVuSans-20" transform="scale(0.015625)"/>
      <path id="DejaVuSans-53" d="M 3425 4513 
L 3425 3897 
Q 3066 4069 2747 4153 
Q 2428 4238 2131 4238 
Q 1616 4238 1336 4038 
Q 1056 3838 1056 3469 
Q 1056 3159 1242 3001 
Q 1428 2844 1947 2747 
L 2328 2669 
Q 3034 2534 3370 2195 
Q 3706 1856 3706 1288 
Q 3706 609 3251 259 
Q 2797 -91 1919 -91 
Q 1588 -91 1214 -16 
Q 841 59 441 206 
L 441 856 
Q 825 641 1194 531 
Q 1563 422 1919 422 
Q 2459 422 2753 634 
Q 3047 847 3047 1241 
Q 3047 1584 2836 1778 
Q 2625 1972 2144 2069 
L 1759 2144 
Q 1053 2284 737 2584 
Q 422 2884 422 3419 
Q 422 4038 858 4394 
Q 1294 4750 2059 4750 
Q 2388 4750 2728 4690 
Q 3069 4631 3425 4513 
z
" transform="scale(0.015625)"/>
      <path id="DejaVuSans-6d" d="M 3328 2828 
Q 3544 3216 3844 3400 
Q 4144 3584 4550 3584 
Q 5097 3584 5394 3201 
Q 5691 2819 5691 2113 
L 5691 0 
L 5113 0 
L 5113 2094 
Q 5113 2597 4934 2840 
Q 4756 3084 4391 3084 
Q 3944 3084 3684 2787 
Q 3425 2491 3425 1978 
L 3425 0 
L 2847 0 
L 2847 2094 
Q 2847 2600 2669 2842 
Q 2491 3084 2119 3084 
Q 1678 3084 1418 2786 
Q 1159 2488 1159 1978 
L 1159 0 
L 581 0 
L 581 3500 
L 1159 3500 
L 1159 2956 
Q 1356 3278 1631 3431 
Q 1906 3584 2284 3584 
Q 2666 3584 2933 3390 
Q 3200 3197 3328 2828 
z
" transform="scale(0.015625)"/>
      <path id="DejaVuSans-72" d="M 2631 2963 
Q 2534 3019 2420 3045 
Q 2306 3072 2169 3072 
Q 1681 3072 1420 2755 
Q 1159 2438 1159 1844 
L 1159 0 
L 581 0 
L 581 3500 
L 1159 3500 
L 1159 2956 
Q 1341 3275 1631 3429 
Q 1922 3584 2338 3584 
Q 2397 3584 2469 3576 
Q 2541 3569 2628 3553 
L 2631 2963 
z
" transform="scale(0.015625)"/>
      <path id="DejaVuSans-79" d="M 2059 -325 
Q 1816 -950 1584 -1140 
Q 1353 -1331 966 -1331 
L 506 -1331 
L 506 -850 
L 844 -850 
Q 1081 -850 1212 -737 
Q 1344 -625 1503 -206 
L 1606 56 
L 191 3500 
L 800 3500 
L 1894 763 
L 2988 3500 
L 3597 3500 
L 2059 -325 
z
" transform="scale(0.015625)"/>
     </defs>
     <use xlink:href="#DejaVuSans-31"/>
     <use xlink:href="#DejaVuSans-2e" x="63.623047"/>
     <use xlink:href="#DejaVuSans-42" x="95.410156"/>
     <use xlink:href="#DejaVuSans-2e" x="164.013672"/>
     <use xlink:href="#DejaVuSans-31" x="195.800781"/>
     <use xlink:href="#DejaVuSans-38" x="259.423828"/>
     <use xlink:href="#DejaVuSans-20" x="323.046875"/>
     <use xlink:href="#DejaVuSans-53" x="354.833984"/>
     <use xlink:href="#DejaVuSans-75" x="418.310547"/>
     <use xlink:href="#DejaVuSans-6d" x="481.689453"/>
     <use xlink:href="#DejaVuSans-6d" x="579.101562"/>
     <use xlink:href="#DejaVuSans-61" x="676.513672"/>
     <use xlink:href="#DejaVuSans-72" x="737.792969"/>
     <use xlink:href="#DejaVuSans-79" x="778.90625"/>
    </g>
   </g>
  </g>
 </g>
 <defs>
  <clipPath id="p819af9aabe">
   <rect x="144" y="36.72" width="892.8" height="235.62"/>
  </clipPath>
 </defs>
</svg>
