<?xml version="1.0" encoding="utf-8" standalone="no"?>
<!DOCTYPE svg PUBLIC "-//W3C//DTD SVG 1.1//EN"
  "http://www.w3.org/Graphics/SVG/1.1/DTD/svg11.dtd">
<svg xmlns:xlink="http://www.w3.org/1999/xlink" width="1152pt" height="432pt" viewBox="0 0 1152 432" xmlns="http://www.w3.org/2000/svg" version="1.1">
 <metadata>
  <rdf:RDF xmlns:dc="http://purl.org/dc/elements/1.1/" xmlns:cc="http://creativecommons.org/ns#" xmlns:rdf="http://www.w3.org/1999/02/22-rdf-syntax-ns#">
   <cc:Work>
    <dc:type rdf:resource="http://purl.org/dc/dcmitype/StillImage"/>
    <dc:date>2024-10-25T07:47:20.270839</dc:date>
    <dc:format>image/svg+xml</dc:format>
    <dc:creator>
     <cc:Agent>
      <dc:title>Matplotlib v3.9.2, https://matplotlib.org/</dc:title>
     </cc:Agent>
    </dc:creator>
   </cc:Work>
  </rdf:RDF>
 </metadata>
 <defs>
  <style type="text/css">*{stroke-linejoin: round; stroke-linecap: butt}</style>
 </defs>
 <g id="figure_1">
  <g id="patch_1">
   <path d="M 0 432 
L 1152 432 
L 1152 0 
L 0 0 
z
" style="fill: #ffffff"/>
  </g>
  <g id="axes_1">
   <g id="patch_2">
    <path d="M 144 384.48 
L 1036.8 384.48 
L 1036.8 51.84 
L 144 51.84 
z
" style="fill: #ffffff"/>
   </g>
   <g id="patch_3">
    <path d="M 144 366.144828 
L 184.781089 366.144828 
L 184.781089 365.623448 
L 144 365.623448 
z
" clip-path="url(#pb803baa00c)" style="fill: #0000ff"/>
   </g>
   <g id="patch_4">
    <path d="M 186.820144 369.36 
L 665.997945 369.36 
L 665.997945 362.408276 
L 186.820144 362.408276 
z
" clip-path="url(#pb803baa00c)" style="fill: #0000ff"/>
   </g>
   <g id="patch_5">
    <path d="M 186.820144 369.36 
L 551.810894 369.36 
L 551.810894 362.408276 
L 186.820144 362.408276 
z
" clip-path="url(#pb803baa00c)" style="fill: #0000ff"/>
   </g>
   <g id="patch_6">
    <path d="M 144 348.765517 
L 190.898253 348.765517 
L 190.898253 348.244138 
L 144 348.244138 
z
" clip-path="url(#pb803baa00c)" style="fill: #0000ff"/>
   </g>
   <g id="patch_7">
    <path d="M 192.937307 351.98069 
L 674.154162 351.98069 
L 674.154162 345.028966 
L 192.937307 345.028966 
z
" clip-path="url(#pb803baa00c)" style="fill: #0000ff"/>
   </g>
   <g id="patch_8">
    <path d="M 192.937307 351.98069 
L 551.810894 351.98069 
L 551.810894 345.028966 
L 192.937307 345.028966 
z
" clip-path="url(#pb803baa00c)" style="fill: #0000ff"/>
   </g>
   <g id="patch_9">
    <path d="M 144 331.386207 
L 188.859198 331.386207 
L 188.859198 330.864828 
L 144 330.864828 
z
" clip-path="url(#pb803baa00c)" style="fill: #0000ff"/>
   </g>
   <g id="patch_10">
    <path d="M 190.898253 334.601379 
L 672.115108 334.601379 
L 672.115108 327.649655 
L 190.898253 327.649655 
z
" clip-path="url(#pb803baa00c)" style="fill: #0000ff"/>
   </g>
   <g id="patch_11">
    <path d="M 190.898253 334.601379 
L 557.928058 334.601379 
L 557.928058 327.649655 
L 190.898253 327.649655 
z
" clip-path="url(#pb803baa00c)" style="fill: #0000ff"/>
   </g>
   <g id="patch_12">
    <path d="M 144 314.006897 
L 182.742035 314.006897 
L 182.742035 313.485517 
L 144 313.485517 
z
" clip-path="url(#pb803baa00c)" style="fill: #0000ff"/>
   </g>
   <g id="patch_13">
    <path d="M 184.781089 317.222069 
L 551.810894 317.222069 
L 551.810894 310.270345 
L 184.781089 310.270345 
z
" clip-path="url(#pb803baa00c)" style="fill: #0000ff"/>
   </g>
   <g id="patch_14">
    <path d="M 186.820144 317.222069 
L 668.036999 317.222069 
L 668.036999 310.270345 
L 186.820144 310.270345 
z
" clip-path="url(#pb803baa00c)" style="fill: #0000ff"/>
   </g>
   <g id="patch_15">
    <path d="M 144 296.627586 
L 229.640288 296.627586 
L 229.640288 296.106207 
L 144 296.106207 
z
" clip-path="url(#pb803baa00c)" style="fill: #0000ff"/>
   </g>
   <g id="patch_16">
    <path d="M 231.679342 299.842759 
L 592.591984 299.842759 
L 592.591984 292.891034 
L 231.679342 292.891034 
z
" clip-path="url(#pb803baa00c)" style="fill: #0000ff"/>
   </g>
   <g id="patch_17">
    <path d="M 233.718397 299.842759 
L 704.739979 299.842759 
L 704.739979 292.891034 
L 233.718397 292.891034 
z
" clip-path="url(#pb803baa00c)" style="fill: #0000ff"/>
   </g>
   <g id="patch_18">
    <path d="M 144 279.248276 
L 519.186023 279.248276 
L 519.186023 278.726897 
L 144 278.726897 
z
" clip-path="url(#pb803baa00c)" style="fill: #0000ff"/>
   </g>
   <g id="patch_19">
    <path d="M 521.225077 282.463448 
L 882.137718 282.463448 
L 882.137718 275.511724 
L 521.225077 275.511724 
z
" clip-path="url(#pb803baa00c)" style="fill: #0000ff"/>
   </g>
   <g id="patch_20">
    <path d="M 523.264132 282.463448 
L 994.285714 282.463448 
L 994.285714 275.511724 
L 523.264132 275.511724 
z
" clip-path="url(#pb803baa00c)" style="fill: #0000ff"/>
   </g>
   <g id="patch_21">
    <path d="M 144 261.868966 
L 219.445015 261.868966 
L 219.445015 261.347586 
L 144 261.347586 
z
" clip-path="url(#pb803baa00c)" style="fill: #0000ff"/>
   </g>
   <g id="patch_22">
    <path d="M 221.48407 265.084138 
L 572.201439 265.084138 
L 572.201439 258.132414 
L 221.48407 258.132414 
z
" clip-path="url(#pb803baa00c)" style="fill: #0000ff"/>
   </g>
   <g id="patch_23">
    <path d="M 223.523124 265.084138 
L 684.349435 265.084138 
L 684.349435 258.132414 
L 223.523124 258.132414 
z
" clip-path="url(#pb803baa00c)" style="fill: #0000ff"/>
   </g>
   <g id="patch_24">
    <path d="M 144 244.489655 
L 209.249743 244.489655 
L 209.249743 243.968276 
L 144 243.968276 
z
" clip-path="url(#pb803baa00c)" style="fill: #0000ff"/>
   </g>
   <g id="patch_25">
    <path d="M 211.288798 247.704828 
L 668.036999 247.704828 
L 668.036999 240.753103 
L 211.288798 240.753103 
z
" clip-path="url(#pb803baa00c)" style="fill: #0000ff"/>
   </g>
   <g id="patch_26">
    <path d="M 211.288798 247.704828 
L 553.849949 247.704828 
L 553.849949 240.753103 
L 211.288798 240.753103 
z
" clip-path="url(#pb803baa00c)" style="fill: #0000ff"/>
   </g>
   <g id="patch_27">
    <path d="M 144 227.110345 
L 150.117163 227.110345 
L 150.117163 226.588966 
L 144 226.588966 
z
" clip-path="url(#pb803baa00c)" style="fill: #0000ff"/>
   </g>
   <g id="patch_28">
    <path d="M 152.156218 230.325517 
L 362.178828 230.325517 
L 362.178828 223.373793 
L 152.156218 223.373793 
z
" clip-path="url(#pb803baa00c)" style="fill: #0000ff"/>
   </g>
   <g id="patch_29">
    <path d="M 154.195272 230.325517 
L 370.335046 230.325517 
L 370.335046 223.373793 
L 154.195272 223.373793 
z
" clip-path="url(#pb803baa00c)" style="fill: #0000ff"/>
   </g>
   <g id="patch_30">
    <path d="M 154.195272 230.325517 
L 341.788284 230.325517 
L 341.788284 223.373793 
L 154.195272 223.373793 
z
" clip-path="url(#pb803baa00c)" style="fill: #0000ff"/>
   </g>
   <g id="patch_31">
    <path d="M 154.195272 230.325517 
L 368.295992 230.325517 
L 368.295992 223.373793 
L 154.195272 223.373793 
z
" clip-path="url(#pb803baa00c)" style="fill: #0000ff"/>
   </g>
   <g id="patch_32">
    <path d="M 156.234327 230.325517 
L 360.139774 230.325517 
L 360.139774 223.373793 
L 156.234327 223.373793 
z
" clip-path="url(#pb803baa00c)" style="fill: #0000ff"/>
   </g>
   <g id="patch_33">
    <path d="M 158.273381 230.325517 
L 298.96814 230.325517 
L 298.96814 223.373793 
L 158.273381 223.373793 
z
" clip-path="url(#pb803baa00c)" style="fill: #0000ff"/>
   </g>
   <g id="patch_34">
    <path d="M 166.429599 230.325517 
L 368.295992 230.325517 
L 368.295992 223.373793 
L 166.429599 223.373793 
z
" clip-path="url(#pb803baa00c)" style="fill: #0000ff"/>
   </g>
   <g id="patch_35">
    <path d="M 166.429599 230.325517 
L 364.217883 230.325517 
L 364.217883 223.373793 
L 166.429599 223.373793 
z
" clip-path="url(#pb803baa00c)" style="fill: #0000ff"/>
   </g>
   <g id="patch_36">
    <path d="M 168.468654 230.325517 
L 368.295992 230.325517 
L 368.295992 223.373793 
L 168.468654 223.373793 
z
" clip-path="url(#pb803baa00c)" style="fill: #0000ff"/>
   </g>
   <g id="patch_37">
    <path d="M 170.507708 230.325517 
L 366.256937 230.325517 
L 366.256937 223.373793 
L 170.507708 223.373793 
z
" clip-path="url(#pb803baa00c)" style="fill: #0000ff"/>
   </g>
   <g id="patch_38">
    <path d="M 170.507708 230.325517 
L 360.139774 230.325517 
L 360.139774 223.373793 
L 170.507708 223.373793 
z
" clip-path="url(#pb803baa00c)" style="fill: #0000ff"/>
   </g>
   <g id="patch_39">
    <path d="M 186.820144 230.325517 
L 368.295992 230.325517 
L 368.295992 223.373793 
L 186.820144 223.373793 
z
" clip-path="url(#pb803baa00c)" style="fill: #0000ff"/>
   </g>
   <g id="patch_40">
    <path d="M 190.898253 230.325517 
L 360.139774 230.325517 
L 360.139774 223.373793 
L 190.898253 223.373793 
z
" clip-path="url(#pb803baa00c)" style="fill: #0000ff"/>
   </g>
   <g id="patch_41">
    <path d="M 372.374101 227.110345 
L 445.780062 227.110345 
L 445.780062 226.588966 
L 372.374101 226.588966 
z
" clip-path="url(#pb803baa00c)" style="fill: #0000ff"/>
   </g>
   <g id="patch_42">
    <path d="M 447.819116 230.325517 
L 794.458376 230.325517 
L 794.458376 223.373793 
L 447.819116 223.373793 
z
" clip-path="url(#pb803baa00c)" style="fill: #0000ff"/>
   </g>
   <g id="patch_43">
    <path d="M 449.858171 230.325517 
L 906.606372 230.325517 
L 906.606372 223.373793 
L 449.858171 223.373793 
z
" clip-path="url(#pb803baa00c)" style="fill: #0000ff"/>
   </g>
   <g id="patch_44">
    <path d="M 144 209.731034 
L 178.663926 209.731034 
L 178.663926 209.209655 
L 144 209.209655 
z
" clip-path="url(#pb803baa00c)" style="fill: #0000ff"/>
   </g>
   <g id="patch_45">
    <path d="M 180.70298 212.946207 
L 337.710175 212.946207 
L 337.710175 205.994483 
L 180.70298 205.994483 
z
" clip-path="url(#pb803baa00c)" style="fill: #0000ff"/>
   </g>
   <g id="patch_46">
    <path d="M 180.70298 212.946207 
L 296.929085 212.946207 
L 296.929085 205.994483 
L 180.70298 205.994483 
z
" clip-path="url(#pb803baa00c)" style="fill: #0000ff"/>
   </g>
   <g id="patch_47">
    <path d="M 184.781089 212.946207 
L 345.866393 212.946207 
L 345.866393 205.994483 
L 184.781089 205.994483 
z
" clip-path="url(#pb803baa00c)" style="fill: #0000ff"/>
   </g>
   <g id="patch_48">
    <path d="M 203.13258 212.946207 
L 331.593011 212.946207 
L 331.593011 205.994483 
L 203.13258 205.994483 
z
" clip-path="url(#pb803baa00c)" style="fill: #0000ff"/>
   </g>
   <g id="patch_49">
    <path d="M 347.905447 209.731034 
L 443.741007 209.731034 
L 443.741007 209.209655 
L 347.905447 209.209655 
z
" clip-path="url(#pb803baa00c)" style="fill: #0000ff"/>
   </g>
   <g id="patch_50">
    <path d="M 445.780062 212.946207 
L 788.341213 212.946207 
L 788.341213 205.994483 
L 445.780062 205.994483 
z
" clip-path="url(#pb803baa00c)" style="fill: #0000ff"/>
   </g>
   <g id="patch_51">
    <path d="M 449.858171 212.946207 
L 906.606372 212.946207 
L 906.606372 205.994483 
L 449.858171 205.994483 
z
" clip-path="url(#pb803baa00c)" style="fill: #0000ff"/>
   </g>
   <g id="patch_52">
    <path d="M 144 192.351724 
L 221.48407 192.351724 
L 221.48407 191.830345 
L 144 191.830345 
z
" clip-path="url(#pb803baa00c)" style="fill: #0000ff"/>
   </g>
   <g id="patch_53">
    <path d="M 223.523124 195.566897 
L 686.388489 195.566897 
L 686.388489 188.615172 
L 223.523124 188.615172 
z
" clip-path="url(#pb803baa00c)" style="fill: #0000ff"/>
   </g>
   <g id="patch_54">
    <path d="M 223.523124 195.566897 
L 574.240493 195.566897 
L 574.240493 188.615172 
L 223.523124 188.615172 
z
" clip-path="url(#pb803baa00c)" style="fill: #0000ff"/>
   </g>
   <g id="patch_55">
    <path d="M 144 174.972414 
L 231.679342 174.972414 
L 231.679342 174.451034 
L 144 174.451034 
z
" clip-path="url(#pb803baa00c)" style="fill: #0000ff"/>
   </g>
   <g id="patch_56">
    <path d="M 233.718397 178.187586 
L 686.388489 178.187586 
L 686.388489 171.235862 
L 233.718397 171.235862 
z
" clip-path="url(#pb803baa00c)" style="fill: #0000ff"/>
   </g>
   <g id="patch_57">
    <path d="M 144 157.593103 
L 298.96814 157.593103 
L 298.96814 157.071724 
L 144 157.071724 
z
" clip-path="url(#pb803baa00c)" style="fill: #0000ff"/>
   </g>
   <g id="patch_58">
    <path d="M 301.007194 160.808276 
L 576.279548 160.808276 
L 576.279548 153.856552 
L 301.007194 153.856552 
z
" clip-path="url(#pb803baa00c)" style="fill: #0000ff"/>
   </g>
   <g id="patch_59">
    <path d="M 321.397739 160.808276 
L 584.435766 160.808276 
L 584.435766 153.856552 
L 321.397739 153.856552 
z
" clip-path="url(#pb803baa00c)" style="fill: #0000ff"/>
   </g>
   <g id="patch_60">
    <path d="M 437.623844 160.808276 
L 570.162384 160.808276 
L 570.162384 153.856552 
L 437.623844 153.856552 
z
" clip-path="url(#pb803baa00c)" style="fill: #0000ff"/>
   </g>
   <g id="patch_61">
    <path d="M 586.47482 157.593103 
L 617.060637 157.593103 
L 617.060637 157.071724 
L 586.47482 157.071724 
z
" clip-path="url(#pb803baa00c)" style="fill: #0000ff"/>
   </g>
   <g id="patch_62">
    <path d="M 144 140.213793 
L 290.811922 140.213793 
L 290.811922 139.692414 
L 144 139.692414 
z
" clip-path="url(#pb803baa00c)" style="fill: #0000ff"/>
   </g>
   <g id="patch_63">
    <path d="M 292.850976 143.428966 
L 553.849949 143.428966 
L 553.849949 136.477241 
L 292.850976 136.477241 
z
" clip-path="url(#pb803baa00c)" style="fill: #0000ff"/>
   </g>
   <g id="patch_64">
    <path d="M 305.085303 143.428966 
L 572.201439 143.428966 
L 572.201439 136.477241 
L 305.085303 136.477241 
z
" clip-path="url(#pb803baa00c)" style="fill: #0000ff"/>
   </g>
   <g id="patch_65">
    <path d="M 305.085303 143.428966 
L 551.810894 143.428966 
L 551.810894 136.477241 
L 305.085303 136.477241 
z
" clip-path="url(#pb803baa00c)" style="fill: #0000ff"/>
   </g>
   <g id="patch_66">
    <path d="M 313.241521 143.428966 
L 602.787256 143.428966 
L 602.787256 136.477241 
L 313.241521 136.477241 
z
" clip-path="url(#pb803baa00c)" style="fill: #0000ff"/>
   </g>
   <g id="patch_67">
    <path d="M 144 122.834483 
L 360.139774 122.834483 
L 360.139774 122.313103 
L 144 122.313103 
z
" clip-path="url(#pb803baa00c)" style="fill: #0000ff"/>
   </g>
   <g id="patch_68">
    <path d="M 362.178828 126.049655 
L 641.529291 126.049655 
L 641.529291 119.097931 
L 362.178828 119.097931 
z
" clip-path="url(#pb803baa00c)" style="fill: #0000ff"/>
   </g>
   <g id="patch_69">
    <path d="M 144 105.455172 
L 197.015416 105.455172 
L 197.015416 104.933793 
L 144 104.933793 
z
" clip-path="url(#pb803baa00c)" style="fill: #0000ff"/>
   </g>
   <g id="patch_70">
    <path d="M 199.054471 108.670345 
L 576.279548 108.670345 
L 576.279548 101.718621 
L 199.054471 101.718621 
z
" clip-path="url(#pb803baa00c)" style="fill: #0000ff"/>
   </g>
   <g id="patch_71">
    <path d="M 199.054471 108.670345 
L 513.068859 108.670345 
L 513.068859 101.718621 
L 199.054471 101.718621 
z
" clip-path="url(#pb803baa00c)" style="fill: #0000ff"/>
   </g>
   <g id="patch_72">
    <path d="M 203.13258 108.670345 
L 453.93628 108.670345 
L 453.93628 101.718621 
L 203.13258 101.718621 
z
" clip-path="url(#pb803baa00c)" style="fill: #0000ff"/>
   </g>
   <g id="patch_73">
    <path d="M 207.210689 108.670345 
L 484.522097 108.670345 
L 484.522097 101.718621 
L 207.210689 101.718621 
z
" clip-path="url(#pb803baa00c)" style="fill: #0000ff"/>
   </g>
   <g id="patch_74">
    <path d="M 215.366906 108.670345 
L 476.365879 108.670345 
L 476.365879 101.718621 
L 215.366906 101.718621 
z
" clip-path="url(#pb803baa00c)" style="fill: #0000ff"/>
   </g>
   <g id="patch_75">
    <path d="M 217.405961 108.670345 
L 486.561151 108.670345 
L 486.561151 101.718621 
L 217.405961 101.718621 
z
" clip-path="url(#pb803baa00c)" style="fill: #0000ff"/>
   </g>
   <g id="patch_76">
    <path d="M 219.445015 108.670345 
L 415.194245 108.670345 
L 415.194245 101.718621 
L 219.445015 101.718621 
z
" clip-path="url(#pb803baa00c)" style="fill: #0000ff"/>
   </g>
   <g id="patch_77">
    <path d="M 219.445015 108.670345 
L 470.248715 108.670345 
L 470.248715 101.718621 
L 219.445015 101.718621 
z
" clip-path="url(#pb803baa00c)" style="fill: #0000ff"/>
   </g>
   <g id="patch_78">
    <path d="M 221.48407 108.670345 
L 421.311408 108.670345 
L 421.311408 101.718621 
L 221.48407 101.718621 
z
" clip-path="url(#pb803baa00c)" style="fill: #0000ff"/>
   </g>
   <g id="patch_79">
    <path d="M 227.601233 108.670345 
L 411.116136 108.670345 
L 411.116136 101.718621 
L 227.601233 101.718621 
z
" clip-path="url(#pb803baa00c)" style="fill: #0000ff"/>
   </g>
   <g id="patch_80">
    <path d="M 227.601233 108.670345 
L 486.561151 108.670345 
L 486.561151 101.718621 
L 227.601233 101.718621 
z
" clip-path="url(#pb803baa00c)" style="fill: #0000ff"/>
   </g>
   <g id="patch_81">
    <path d="M 239.83556 108.670345 
L 484.522097 108.670345 
L 484.522097 101.718621 
L 239.83556 101.718621 
z
" clip-path="url(#pb803baa00c)" style="fill: #0000ff"/>
   </g>
   <g id="patch_82">
    <path d="M 250.030832 108.670345 
L 504.912641 108.670345 
L 504.912641 101.718621 
L 250.030832 101.718621 
z
" clip-path="url(#pb803baa00c)" style="fill: #0000ff"/>
   </g>
   <g id="patch_83">
    <path d="M 515.107914 108.670345 
L 975.934224 108.670345 
L 975.934224 101.718621 
L 515.107914 101.718621 
z
" clip-path="url(#pb803baa00c)" style="fill: #0000ff"/>
   </g>
   <g id="patch_84">
    <path d="M 557.928058 108.670345 
L 784.263104 108.670345 
L 784.263104 101.718621 
L 557.928058 101.718621 
z
" clip-path="url(#pb803baa00c)" style="fill: #0000ff"/>
   </g>
   <g id="patch_85">
    <path d="M 144 88.075862 
L 178.663926 88.075862 
L 178.663926 87.554483 
L 144 87.554483 
z
" clip-path="url(#pb803baa00c)" style="fill: #0000ff"/>
   </g>
   <g id="patch_86">
    <path d="M 180.70298 91.291034 
L 504.912641 91.291034 
L 504.912641 84.33931 
L 180.70298 84.33931 
z
" clip-path="url(#pb803baa00c)" style="fill: #0000ff"/>
   </g>
   <g id="patch_87">
    <path d="M 194.976362 91.291034 
L 390.725591 91.291034 
L 390.725591 84.33931 
L 194.976362 84.33931 
z
" clip-path="url(#pb803baa00c)" style="fill: #0000ff"/>
   </g>
   <g id="patch_88">
    <path d="M 506.951696 91.291034 
L 857.669065 91.291034 
L 857.669065 84.33931 
L 506.951696 84.33931 
z
" clip-path="url(#pb803baa00c)" style="fill: #0000ff"/>
   </g>
   <g id="patch_89">
    <path d="M 508.99075 91.291034 
L 975.934224 91.291034 
L 975.934224 84.33931 
L 508.99075 84.33931 
z
" clip-path="url(#pb803baa00c)" style="fill: #0000ff"/>
   </g>
   <g id="patch_90">
    <path d="M 144 70.696552 
L 194.976362 70.696552 
L 194.976362 70.175172 
L 144 70.175172 
z
" clip-path="url(#pb803baa00c)" style="fill: #0000ff"/>
   </g>
   <g id="patch_91">
    <path d="M 197.015416 73.911724 
L 482.483042 73.911724 
L 482.483042 66.96 
L 197.015416 66.96 
z
" clip-path="url(#pb803baa00c)" style="fill: #0000ff"/>
   </g>
   <g id="patch_92">
    <path d="M 199.054471 73.911724 
L 386.647482 73.911724 
L 386.647482 66.96 
L 199.054471 66.96 
z
" clip-path="url(#pb803baa00c)" style="fill: #0000ff"/>
   </g>
   <g id="patch_93">
    <path d="M 201.093525 73.911724 
L 386.647482 73.911724 
L 386.647482 66.96 
L 201.093525 66.96 
z
" clip-path="url(#pb803baa00c)" style="fill: #0000ff"/>
   </g>
   <g id="patch_94">
    <path d="M 209.249743 73.911724 
L 376.45221 73.911724 
L 376.45221 66.96 
L 209.249743 66.96 
z
" clip-path="url(#pb803baa00c)" style="fill: #0000ff"/>
   </g>
   <g id="patch_95">
    <path d="M 209.249743 73.911724 
L 386.647482 73.911724 
L 386.647482 66.96 
L 209.249743 66.96 
z
" clip-path="url(#pb803baa00c)" style="fill: #0000ff"/>
   </g>
   <g id="patch_96">
    <path d="M 221.48407 73.911724 
L 321.397739 73.911724 
L 321.397739 66.96 
L 221.48407 66.96 
z
" clip-path="url(#pb803baa00c)" style="fill: #0000ff"/>
   </g>
   <g id="patch_97">
    <path d="M 484.522097 70.696552 
L 490.63926 70.696552 
L 490.63926 70.175172 
L 484.522097 70.175172 
z
" clip-path="url(#pb803baa00c)" style="fill: #0000ff"/>
   </g>
   <g id="patch_98">
    <path d="M 492.678314 73.911724 
L 924.957862 73.911724 
L 924.957862 66.96 
L 492.678314 66.96 
z
" clip-path="url(#pb803baa00c)" style="fill: #0000ff"/>
   </g>
   <g id="patch_99">
    <path d="M 496.756423 73.911724 
L 833.200411 73.911724 
L 833.200411 66.96 
L 496.756423 66.96 
z
" clip-path="url(#pb803baa00c)" style="fill: #0000ff"/>
   </g>
   <g id="patch_100">
    <path d="M 926.996917 70.696552 
L 957.582734 70.696552 
L 957.582734 70.175172 
L 926.996917 70.175172 
z
" clip-path="url(#pb803baa00c)" style="fill: #0000ff"/>
   </g>
   <g id="matplotlib.axis_1">
    <g id="xtick_1">
     <g id="line2d_1">
      <defs>
       <path id="m134a664d5e" d="M 0 0 
L 0 3.5 
" style="stroke: #000000; stroke-width: 0.8"/>
      </defs>
      <g>
       <use xlink:href="#m134a664d5e" x="243.913669" y="384.48" style="stroke: #000000; stroke-width: 0.8"/>
      </g>
     </g>
     <g id="text_1">
      <!-- 50 -->
      <g transform="translate(237.551169 399.078438) scale(0.1 -0.1)">
       <defs>
        <path id="DejaVuSans-35" d="M 691 4666 
L 3169 4666 
L 3169 4134 
L 1269 4134 
L 1269 2991 
Q 1406 3038 1543 3061 
Q 1681 3084 1819 3084 
Q 2600 3084 3056 2656 
Q 3513 2228 3513 1497 
Q 3513 744 3044 326 
Q 2575 -91 1722 -91 
Q 1428 -91 1123 -41 
Q 819 9 494 109 
L 494 744 
Q 775 591 1075 516 
Q 1375 441 1709 441 
Q 2250 441 2565 725 
Q 2881 1009 2881 1497 
Q 2881 1984 2565 2268 
Q 2250 2553 1709 2553 
Q 1456 2553 1204 2497 
Q 953 2441 691 2322 
L 691 4666 
z
" transform="scale(0.015625)"/>
        <path id="DejaVuSans-30" d="M 2034 4250 
Q 1547 4250 1301 3770 
Q 1056 3291 1056 2328 
Q 1056 1369 1301 889 
Q 1547 409 2034 409 
Q 2525 409 2770 889 
Q 3016 1369 3016 2328 
Q 3016 3291 2770 3770 
Q 2525 4250 2034 4250 
z
M 2034 4750 
Q 2819 4750 3233 4129 
Q 3647 3509 3647 2328 
Q 3647 1150 3233 529 
Q 2819 -91 2034 -91 
Q 1250 -91 836 529 
Q 422 1150 422 2328 
Q 422 3509 836 4129 
Q 1250 4750 2034 4750 
z
" transform="scale(0.015625)"/>
       </defs>
       <use xlink:href="#DejaVuSans-35"/>
       <use xlink:href="#DejaVuSans-30" x="63.623047"/>
      </g>
     </g>
    </g>
    <g id="xtick_2">
     <g id="line2d_2">
      <g>
       <use xlink:href="#m134a664d5e" x="345.866393" y="384.48" style="stroke: #000000; stroke-width: 0.8"/>
      </g>
     </g>
     <g id="text_2">
      <!-- 100 -->
      <g transform="translate(336.322643 399.078438) scale(0.1 -0.1)">
       <defs>
        <path id="DejaVuSans-31" d="M 794 531 
L 1825 531 
L 1825 4091 
L 703 3866 
L 703 4441 
L 1819 4666 
L 2450 4666 
L 2450 531 
L 3481 531 
L 3481 0 
L 794 0 
L 794 531 
z
" transform="scale(0.015625)"/>
       </defs>
       <use xlink:href="#DejaVuSans-31"/>
       <use xlink:href="#DejaVuSans-30" x="63.623047"/>
       <use xlink:href="#DejaVuSans-30" x="127.246094"/>
      </g>
     </g>
    </g>
    <g id="xtick_3">
     <g id="line2d_3">
      <g>
       <use xlink:href="#m134a664d5e" x="447.819116" y="384.48" style="stroke: #000000; stroke-width: 0.8"/>
      </g>
     </g>
     <g id="text_3">
      <!-- 150 -->
      <g transform="translate(438.275366 399.078438) scale(0.1 -0.1)">
       <use xlink:href="#DejaVuSans-31"/>
       <use xlink:href="#DejaVuSans-35" x="63.623047"/>
       <use xlink:href="#DejaVuSans-30" x="127.246094"/>
      </g>
     </g>
    </g>
    <g id="xtick_4">
     <g id="line2d_4">
      <g>
       <use xlink:href="#m134a664d5e" x="549.77184" y="384.48" style="stroke: #000000; stroke-width: 0.8"/>
      </g>
     </g>
     <g id="text_4">
      <!-- 200 -->
      <g transform="translate(540.22809 399.078438) scale(0.1 -0.1)">
       <defs>
        <path id="DejaVuSans-32" d="M 1228 531 
L 3431 531 
L 3431 0 
L 469 0 
L 469 531 
Q 828 903 1448 1529 
Q 2069 2156 2228 2338 
Q 2531 2678 2651 2914 
Q 2772 3150 2772 3378 
Q 2772 3750 2511 3984 
Q 2250 4219 1831 4219 
Q 1534 4219 1204 4116 
Q 875 4013 500 3803 
L 500 4441 
Q 881 4594 1212 4672 
Q 1544 4750 1819 4750 
Q 2544 4750 2975 4387 
Q 3406 4025 3406 3419 
Q 3406 3131 3298 2873 
Q 3191 2616 2906 2266 
Q 2828 2175 2409 1742 
Q 1991 1309 1228 531 
z
" transform="scale(0.015625)"/>
       </defs>
       <use xlink:href="#DejaVuSans-32"/>
       <use xlink:href="#DejaVuSans-30" x="63.623047"/>
       <use xlink:href="#DejaVuSans-30" x="127.246094"/>
      </g>
     </g>
    </g>
    <g id="xtick_5">
     <g id="line2d_5">
      <g>
       <use xlink:href="#m134a664d5e" x="651.724563" y="384.48" style="stroke: #000000; stroke-width: 0.8"/>
      </g>
     </g>
     <g id="text_5">
      <!-- 250 -->
      <g transform="translate(642.180813 399.078438) scale(0.1 -0.1)">
       <use xlink:href="#DejaVuSans-32"/>
       <use xlink:href="#DejaVuSans-35" x="63.623047"/>
       <use xlink:href="#DejaVuSans-30" x="127.246094"/>
      </g>
     </g>
    </g>
    <g id="xtick_6">
     <g id="line2d_6">
      <g>
       <use xlink:href="#m134a664d5e" x="753.677287" y="384.48" style="stroke: #000000; stroke-width: 0.8"/>
      </g>
     </g>
     <g id="text_6">
      <!-- 300 -->
      <g transform="translate(744.133537 399.078438) scale(0.1 -0.1)">
       <defs>
        <path id="DejaVuSans-33" d="M 2597 2516 
Q 3050 2419 3304 2112 
Q 3559 1806 3559 1356 
Q 3559 666 3084 287 
Q 2609 -91 1734 -91 
Q 1441 -91 1130 -33 
Q 819 25 488 141 
L 488 750 
Q 750 597 1062 519 
Q 1375 441 1716 441 
Q 2309 441 2620 675 
Q 2931 909 2931 1356 
Q 2931 1769 2642 2001 
Q 2353 2234 1838 2234 
L 1294 2234 
L 1294 2753 
L 1863 2753 
Q 2328 2753 2575 2939 
Q 2822 3125 2822 3475 
Q 2822 3834 2567 4026 
Q 2313 4219 1838 4219 
Q 1578 4219 1281 4162 
Q 984 4106 628 3988 
L 628 4550 
Q 988 4650 1302 4700 
Q 1616 4750 1894 4750 
Q 2613 4750 3031 4423 
Q 3450 4097 3450 3541 
Q 3450 3153 3228 2886 
Q 3006 2619 2597 2516 
z
" transform="scale(0.015625)"/>
       </defs>
       <use xlink:href="#DejaVuSans-33"/>
       <use xlink:href="#DejaVuSans-30" x="63.623047"/>
       <use xlink:href="#DejaVuSans-30" x="127.246094"/>
      </g>
     </g>
    </g>
    <g id="xtick_7">
     <g id="line2d_7">
      <g>
       <use xlink:href="#m134a664d5e" x="855.63001" y="384.48" style="stroke: #000000; stroke-width: 0.8"/>
      </g>
     </g>
     <g id="text_7">
      <!-- 350 -->
      <g transform="translate(846.08626 399.078438) scale(0.1 -0.1)">
       <use xlink:href="#DejaVuSans-33"/>
       <use xlink:href="#DejaVuSans-35" x="63.623047"/>
       <use xlink:href="#DejaVuSans-30" x="127.246094"/>
      </g>
     </g>
    </g>
    <g id="xtick_8">
     <g id="line2d_8">
      <g>
       <use xlink:href="#m134a664d5e" x="957.582734" y="384.48" style="stroke: #000000; stroke-width: 0.8"/>
      </g>
     </g>
     <g id="text_8">
      <!-- 400 -->
      <g transform="translate(948.038984 399.078438) scale(0.1 -0.1)">
       <defs>
        <path id="DejaVuSans-34" d="M 2419 4116 
L 825 1625 
L 2419 1625 
L 2419 4116 
z
M 2253 4666 
L 3047 4666 
L 3047 1625 
L 3713 1625 
L 3713 1100 
L 3047 1100 
L 3047 0 
L 2419 0 
L 2419 1100 
L 313 1100 
L 313 1709 
L 2253 4666 
z
" transform="scale(0.015625)"/>
       </defs>
       <use xlink:href="#DejaVuSans-34"/>
       <use xlink:href="#DejaVuSans-30" x="63.623047"/>
       <use xlink:href="#DejaVuSans-30" x="127.246094"/>
      </g>
     </g>
    </g>
    <g id="text_9">
     <!-- Residual -->
     <g transform="translate(569.284375 412.756563) scale(0.1 -0.1)">
      <defs>
       <path id="DejaVuSans-52" d="M 2841 2188 
Q 3044 2119 3236 1894 
Q 3428 1669 3622 1275 
L 4263 0 
L 3584 0 
L 2988 1197 
Q 2756 1666 2539 1819 
Q 2322 1972 1947 1972 
L 1259 1972 
L 1259 0 
L 628 0 
L 628 4666 
L 2053 4666 
Q 2853 4666 3247 4331 
Q 3641 3997 3641 3322 
Q 3641 2881 3436 2590 
Q 3231 2300 2841 2188 
z
M 1259 4147 
L 1259 2491 
L 2053 2491 
Q 2509 2491 2742 2702 
Q 2975 2913 2975 3322 
Q 2975 3731 2742 3939 
Q 2509 4147 2053 4147 
L 1259 4147 
z
" transform="scale(0.015625)"/>
       <path id="DejaVuSans-65" d="M 3597 1894 
L 3597 1613 
L 953 1613 
Q 991 1019 1311 708 
Q 1631 397 2203 397 
Q 2534 397 2845 478 
Q 3156 559 3463 722 
L 3463 178 
Q 3153 47 2828 -22 
Q 2503 -91 2169 -91 
Q 1331 -91 842 396 
Q 353 884 353 1716 
Q 353 2575 817 3079 
Q 1281 3584 2069 3584 
Q 2775 3584 3186 3129 
Q 3597 2675 3597 1894 
z
M 3022 2063 
Q 3016 2534 2758 2815 
Q 2500 3097 2075 3097 
Q 1594 3097 1305 2825 
Q 1016 2553 972 2059 
L 3022 2063 
z
" transform="scale(0.015625)"/>
       <path id="DejaVuSans-73" d="M 2834 3397 
L 2834 2853 
Q 2591 2978 2328 3040 
Q 2066 3103 1784 3103 
Q 1356 3103 1142 2972 
Q 928 2841 928 2578 
Q 928 2378 1081 2264 
Q 1234 2150 1697 2047 
L 1894 2003 
Q 2506 1872 2764 1633 
Q 3022 1394 3022 966 
Q 3022 478 2636 193 
Q 2250 -91 1575 -91 
Q 1294 -91 989 -36 
Q 684 19 347 128 
L 347 722 
Q 666 556 975 473 
Q 1284 391 1588 391 
Q 1994 391 2212 530 
Q 2431 669 2431 922 
Q 2431 1156 2273 1281 
Q 2116 1406 1581 1522 
L 1381 1569 
Q 847 1681 609 1914 
Q 372 2147 372 2553 
Q 372 3047 722 3315 
Q 1072 3584 1716 3584 
Q 2034 3584 2315 3537 
Q 2597 3491 2834 3397 
z
" transform="scale(0.015625)"/>
       <path id="DejaVuSans-69" d="M 603 3500 
L 1178 3500 
L 1178 0 
L 603 0 
L 603 3500 
z
M 603 4863 
L 1178 4863 
L 1178 4134 
L 603 4134 
L 603 4863 
z
" transform="scale(0.015625)"/>
       <path id="DejaVuSans-64" d="M 2906 2969 
L 2906 4863 
L 3481 4863 
L 3481 0 
L 2906 0 
L 2906 525 
Q 2725 213 2448 61 
Q 2172 -91 1784 -91 
Q 1150 -91 751 415 
Q 353 922 353 1747 
Q 353 2572 751 3078 
Q 1150 3584 1784 3584 
Q 2172 3584 2448 3432 
Q 2725 3281 2906 2969 
z
M 947 1747 
Q 947 1113 1208 752 
Q 1469 391 1925 391 
Q 2381 391 2643 752 
Q 2906 1113 2906 1747 
Q 2906 2381 2643 2742 
Q 2381 3103 1925 3103 
Q 1469 3103 1208 2742 
Q 947 2381 947 1747 
z
" transform="scale(0.015625)"/>
       <path id="DejaVuSans-75" d="M 544 1381 
L 544 3500 
L 1119 3500 
L 1119 1403 
Q 1119 906 1312 657 
Q 1506 409 1894 409 
Q 2359 409 2629 706 
Q 2900 1003 2900 1516 
L 2900 3500 
L 3475 3500 
L 3475 0 
L 2900 0 
L 2900 538 
Q 2691 219 2414 64 
Q 2138 -91 1772 -91 
Q 1169 -91 856 284 
Q 544 659 544 1381 
z
M 1991 3584 
L 1991 3584 
z
" transform="scale(0.015625)"/>
       <path id="DejaVuSans-61" d="M 2194 1759 
Q 1497 1759 1228 1600 
Q 959 1441 959 1056 
Q 959 750 1161 570 
Q 1363 391 1709 391 
Q 2188 391 2477 730 
Q 2766 1069 2766 1631 
L 2766 1759 
L 2194 1759 
z
M 3341 1997 
L 3341 0 
L 2766 0 
L 2766 531 
Q 2569 213 2275 61 
Q 1981 -91 1556 -91 
Q 1019 -91 701 211 
Q 384 513 384 1019 
Q 384 1609 779 1909 
Q 1175 2209 1959 2209 
L 2766 2209 
L 2766 2266 
Q 2766 2663 2505 2880 
Q 2244 3097 1772 3097 
Q 1472 3097 1187 3025 
Q 903 2953 641 2809 
L 641 3341 
Q 956 3463 1253 3523 
Q 1550 3584 1831 3584 
Q 2591 3584 2966 3190 
Q 3341 2797 3341 1997 
z
" transform="scale(0.015625)"/>
       <path id="DejaVuSans-6c" d="M 603 4863 
L 1178 4863 
L 1178 0 
L 603 0 
L 603 4863 
z
" transform="scale(0.015625)"/>
      </defs>
      <use xlink:href="#DejaVuSans-52"/>
      <use xlink:href="#DejaVuSans-65" x="64.982422"/>
      <use xlink:href="#DejaVuSans-73" x="126.505859"/>
      <use xlink:href="#DejaVuSans-69" x="178.605469"/>
      <use xlink:href="#DejaVuSans-64" x="206.388672"/>
      <use xlink:href="#DejaVuSans-75" x="269.865234"/>
      <use xlink:href="#DejaVuSans-61" x="333.244141"/>
      <use xlink:href="#DejaVuSans-6c" x="394.523438"/>
     </g>
    </g>
   </g>
   <g id="matplotlib.axis_2">
    <g id="ytick_1">
     <g id="line2d_9">
      <defs>
       <path id="mcc48f1d255" d="M 0 0 
L -3.5 0 
" style="stroke: #000000; stroke-width: 0.8"/>
      </defs>
      <g>
       <use xlink:href="#mcc48f1d255" x="144" y="365.884138" style="stroke: #000000; stroke-width: 0.8"/>
      </g>
     </g>
     <g id="text_10">
      <!-- 1.B.95.1.1 -->
      <g transform="translate(85.614062 369.683357) scale(0.1 -0.1)">
       <defs>
        <path id="DejaVuSans-2e" d="M 684 794 
L 1344 794 
L 1344 0 
L 684 0 
L 684 794 
z
" transform="scale(0.015625)"/>
        <path id="DejaVuSans-42" d="M 1259 2228 
L 1259 519 
L 2272 519 
Q 2781 519 3026 730 
Q 3272 941 3272 1375 
Q 3272 1813 3026 2020 
Q 2781 2228 2272 2228 
L 1259 2228 
z
M 1259 4147 
L 1259 2741 
L 2194 2741 
Q 2656 2741 2882 2914 
Q 3109 3088 3109 3444 
Q 3109 3797 2882 3972 
Q 2656 4147 2194 4147 
L 1259 4147 
z
M 628 4666 
L 2241 4666 
Q 2963 4666 3353 4366 
Q 3744 4066 3744 3513 
Q 3744 3084 3544 2831 
Q 3344 2578 2956 2516 
Q 3422 2416 3680 2098 
Q 3938 1781 3938 1306 
Q 3938 681 3513 340 
Q 3088 0 2303 0 
L 628 0 
L 628 4666 
z
" transform="scale(0.015625)"/>
        <path id="DejaVuSans-39" d="M 703 97 
L 703 672 
Q 941 559 1184 500 
Q 1428 441 1663 441 
Q 2288 441 2617 861 
Q 2947 1281 2994 2138 
Q 2813 1869 2534 1725 
Q 2256 1581 1919 1581 
Q 1219 1581 811 2004 
Q 403 2428 403 3163 
Q 403 3881 828 4315 
Q 1253 4750 1959 4750 
Q 2769 4750 3195 4129 
Q 3622 3509 3622 2328 
Q 3622 1225 3098 567 
Q 2575 -91 1691 -91 
Q 1453 -91 1209 -44 
Q 966 3 703 97 
z
M 1959 2075 
Q 2384 2075 2632 2365 
Q 2881 2656 2881 3163 
Q 2881 3666 2632 3958 
Q 2384 4250 1959 4250 
Q 1534 4250 1286 3958 
Q 1038 3666 1038 3163 
Q 1038 2656 1286 2365 
Q 1534 2075 1959 2075 
z
" transform="scale(0.015625)"/>
       </defs>
       <use xlink:href="#DejaVuSans-31"/>
       <use xlink:href="#DejaVuSans-2e" x="63.623047"/>
       <use xlink:href="#DejaVuSans-42" x="95.410156"/>
       <use xlink:href="#DejaVuSans-2e" x="164.013672"/>
       <use xlink:href="#DejaVuSans-39" x="195.800781"/>
       <use xlink:href="#DejaVuSans-35" x="259.423828"/>
       <use xlink:href="#DejaVuSans-2e" x="323.046875"/>
       <use xlink:href="#DejaVuSans-31" x="354.833984"/>
       <use xlink:href="#DejaVuSans-2e" x="418.457031"/>
       <use xlink:href="#DejaVuSans-31" x="450.244141"/>
      </g>
     </g>
    </g>
    <g id="ytick_2">
     <g id="line2d_10">
      <g>
       <use xlink:href="#mcc48f1d255" x="144" y="348.504828" style="stroke: #000000; stroke-width: 0.8"/>
      </g>
     </g>
     <g id="text_11">
      <!-- 1.B.95.1.2 -->
      <g transform="translate(85.614062 352.304046) scale(0.1 -0.1)">
       <use xlink:href="#DejaVuSans-31"/>
       <use xlink:href="#DejaVuSans-2e" x="63.623047"/>
       <use xlink:href="#DejaVuSans-42" x="95.410156"/>
       <use xlink:href="#DejaVuSans-2e" x="164.013672"/>
       <use xlink:href="#DejaVuSans-39" x="195.800781"/>
       <use xlink:href="#DejaVuSans-35" x="259.423828"/>
       <use xlink:href="#DejaVuSans-2e" x="323.046875"/>
       <use xlink:href="#DejaVuSans-31" x="354.833984"/>
       <use xlink:href="#DejaVuSans-2e" x="418.457031"/>
       <use xlink:href="#DejaVuSans-32" x="450.244141"/>
      </g>
     </g>
    </g>
    <g id="ytick_3">
     <g id="line2d_11">
      <g>
       <use xlink:href="#mcc48f1d255" x="144" y="331.125517" style="stroke: #000000; stroke-width: 0.8"/>
      </g>
     </g>
     <g id="text_12">
      <!-- 1.B.95.1.3 -->
      <g transform="translate(85.614062 334.924736) scale(0.1 -0.1)">
       <use xlink:href="#DejaVuSans-31"/>
       <use xlink:href="#DejaVuSans-2e" x="63.623047"/>
       <use xlink:href="#DejaVuSans-42" x="95.410156"/>
       <use xlink:href="#DejaVuSans-2e" x="164.013672"/>
       <use xlink:href="#DejaVuSans-39" x="195.800781"/>
       <use xlink:href="#DejaVuSans-35" x="259.423828"/>
       <use xlink:href="#DejaVuSans-2e" x="323.046875"/>
       <use xlink:href="#DejaVuSans-31" x="354.833984"/>
       <use xlink:href="#DejaVuSans-2e" x="418.457031"/>
       <use xlink:href="#DejaVuSans-33" x="450.244141"/>
      </g>
     </g>
    </g>
    <g id="ytick_4">
     <g id="line2d_12">
      <g>
       <use xlink:href="#mcc48f1d255" x="144" y="313.746207" style="stroke: #000000; stroke-width: 0.8"/>
      </g>
     </g>
     <g id="text_13">
      <!-- 1.B.95.2.1 -->
      <g transform="translate(85.614062 317.545426) scale(0.1 -0.1)">
       <use xlink:href="#DejaVuSans-31"/>
       <use xlink:href="#DejaVuSans-2e" x="63.623047"/>
       <use xlink:href="#DejaVuSans-42" x="95.410156"/>
       <use xlink:href="#DejaVuSans-2e" x="164.013672"/>
       <use xlink:href="#DejaVuSans-39" x="195.800781"/>
       <use xlink:href="#DejaVuSans-35" x="259.423828"/>
       <use xlink:href="#DejaVuSans-2e" x="323.046875"/>
       <use xlink:href="#DejaVuSans-32" x="354.833984"/>
       <use xlink:href="#DejaVuSans-2e" x="418.457031"/>
       <use xlink:href="#DejaVuSans-31" x="450.244141"/>
      </g>
     </g>
    </g>
    <g id="ytick_5">
     <g id="line2d_13">
      <g>
       <use xlink:href="#mcc48f1d255" x="144" y="296.366897" style="stroke: #000000; stroke-width: 0.8"/>
      </g>
     </g>
     <g id="text_14">
      <!-- 1.B.95.2.2 -->
      <g transform="translate(85.614062 300.166115) scale(0.1 -0.1)">
       <use xlink:href="#DejaVuSans-31"/>
       <use xlink:href="#DejaVuSans-2e" x="63.623047"/>
       <use xlink:href="#DejaVuSans-42" x="95.410156"/>
       <use xlink:href="#DejaVuSans-2e" x="164.013672"/>
       <use xlink:href="#DejaVuSans-39" x="195.800781"/>
       <use xlink:href="#DejaVuSans-35" x="259.423828"/>
       <use xlink:href="#DejaVuSans-2e" x="323.046875"/>
       <use xlink:href="#DejaVuSans-32" x="354.833984"/>
       <use xlink:href="#DejaVuSans-2e" x="418.457031"/>
       <use xlink:href="#DejaVuSans-32" x="450.244141"/>
      </g>
     </g>
    </g>
    <g id="ytick_6">
     <g id="line2d_14">
      <g>
       <use xlink:href="#mcc48f1d255" x="144" y="278.987586" style="stroke: #000000; stroke-width: 0.8"/>
      </g>
     </g>
     <g id="text_15">
      <!-- 1.B.95.2.3 -->
      <g transform="translate(85.614062 282.786805) scale(0.1 -0.1)">
       <use xlink:href="#DejaVuSans-31"/>
       <use xlink:href="#DejaVuSans-2e" x="63.623047"/>
       <use xlink:href="#DejaVuSans-42" x="95.410156"/>
       <use xlink:href="#DejaVuSans-2e" x="164.013672"/>
       <use xlink:href="#DejaVuSans-39" x="195.800781"/>
       <use xlink:href="#DejaVuSans-35" x="259.423828"/>
       <use xlink:href="#DejaVuSans-2e" x="323.046875"/>
       <use xlink:href="#DejaVuSans-32" x="354.833984"/>
       <use xlink:href="#DejaVuSans-2e" x="418.457031"/>
       <use xlink:href="#DejaVuSans-33" x="450.244141"/>
      </g>
     </g>
    </g>
    <g id="ytick_7">
     <g id="line2d_15">
      <g>
       <use xlink:href="#mcc48f1d255" x="144" y="261.608276" style="stroke: #000000; stroke-width: 0.8"/>
      </g>
     </g>
     <g id="text_16">
      <!-- 1.B.95.3.1 -->
      <g transform="translate(85.614062 265.407495) scale(0.1 -0.1)">
       <use xlink:href="#DejaVuSans-31"/>
       <use xlink:href="#DejaVuSans-2e" x="63.623047"/>
       <use xlink:href="#DejaVuSans-42" x="95.410156"/>
       <use xlink:href="#DejaVuSans-2e" x="164.013672"/>
       <use xlink:href="#DejaVuSans-39" x="195.800781"/>
       <use xlink:href="#DejaVuSans-35" x="259.423828"/>
       <use xlink:href="#DejaVuSans-2e" x="323.046875"/>
       <use xlink:href="#DejaVuSans-33" x="354.833984"/>
       <use xlink:href="#DejaVuSans-2e" x="418.457031"/>
       <use xlink:href="#DejaVuSans-31" x="450.244141"/>
      </g>
     </g>
    </g>
    <g id="ytick_8">
     <g id="line2d_16">
      <g>
       <use xlink:href="#mcc48f1d255" x="144" y="244.228966" style="stroke: #000000; stroke-width: 0.8"/>
      </g>
     </g>
     <g id="text_17">
      <!-- 1.B.95.3.2 -->
      <g transform="translate(85.614062 248.028184) scale(0.1 -0.1)">
       <use xlink:href="#DejaVuSans-31"/>
       <use xlink:href="#DejaVuSans-2e" x="63.623047"/>
       <use xlink:href="#DejaVuSans-42" x="95.410156"/>
       <use xlink:href="#DejaVuSans-2e" x="164.013672"/>
       <use xlink:href="#DejaVuSans-39" x="195.800781"/>
       <use xlink:href="#DejaVuSans-35" x="259.423828"/>
       <use xlink:href="#DejaVuSans-2e" x="323.046875"/>
       <use xlink:href="#DejaVuSans-33" x="354.833984"/>
       <use xlink:href="#DejaVuSans-2e" x="418.457031"/>
       <use xlink:href="#DejaVuSans-32" x="450.244141"/>
      </g>
     </g>
    </g>
    <g id="ytick_9">
     <g id="line2d_17">
      <g>
       <use xlink:href="#mcc48f1d255" x="144" y="226.849655" style="stroke: #000000; stroke-width: 0.8"/>
      </g>
     </g>
     <g id="text_18">
      <!-- 1.B.95.3.3 -->
      <g transform="translate(85.614062 230.648874) scale(0.1 -0.1)">
       <use xlink:href="#DejaVuSans-31"/>
       <use xlink:href="#DejaVuSans-2e" x="63.623047"/>
       <use xlink:href="#DejaVuSans-42" x="95.410156"/>
       <use xlink:href="#DejaVuSans-2e" x="164.013672"/>
       <use xlink:href="#DejaVuSans-39" x="195.800781"/>
       <use xlink:href="#DejaVuSans-35" x="259.423828"/>
       <use xlink:href="#DejaVuSans-2e" x="323.046875"/>
       <use xlink:href="#DejaVuSans-33" x="354.833984"/>
       <use xlink:href="#DejaVuSans-2e" x="418.457031"/>
       <use xlink:href="#DejaVuSans-33" x="450.244141"/>
      </g>
     </g>
    </g>
    <g id="ytick_10">
     <g id="line2d_18">
      <g>
       <use xlink:href="#mcc48f1d255" x="144" y="209.470345" style="stroke: #000000; stroke-width: 0.8"/>
      </g>
     </g>
     <g id="text_19">
      <!-- 1.B.95.3.4 -->
      <g transform="translate(85.614062 213.269564) scale(0.1 -0.1)">
       <use xlink:href="#DejaVuSans-31"/>
       <use xlink:href="#DejaVuSans-2e" x="63.623047"/>
       <use xlink:href="#DejaVuSans-42" x="95.410156"/>
       <use xlink:href="#DejaVuSans-2e" x="164.013672"/>
       <use xlink:href="#DejaVuSans-39" x="195.800781"/>
       <use xlink:href="#DejaVuSans-35" x="259.423828"/>
       <use xlink:href="#DejaVuSans-2e" x="323.046875"/>
       <use xlink:href="#DejaVuSans-33" x="354.833984"/>
       <use xlink:href="#DejaVuSans-2e" x="418.457031"/>
       <use xlink:href="#DejaVuSans-34" x="450.244141"/>
      </g>
     </g>
    </g>
    <g id="ytick_11">
     <g id="line2d_19">
      <g>
       <use xlink:href="#mcc48f1d255" x="144" y="192.091034" style="stroke: #000000; stroke-width: 0.8"/>
      </g>
     </g>
     <g id="text_20">
      <!-- 1.B.95.3.5 -->
      <g transform="translate(85.614062 195.890253) scale(0.1 -0.1)">
       <use xlink:href="#DejaVuSans-31"/>
       <use xlink:href="#DejaVuSans-2e" x="63.623047"/>
       <use xlink:href="#DejaVuSans-42" x="95.410156"/>
       <use xlink:href="#DejaVuSans-2e" x="164.013672"/>
       <use xlink:href="#DejaVuSans-39" x="195.800781"/>
       <use xlink:href="#DejaVuSans-35" x="259.423828"/>
       <use xlink:href="#DejaVuSans-2e" x="323.046875"/>
       <use xlink:href="#DejaVuSans-33" x="354.833984"/>
       <use xlink:href="#DejaVuSans-2e" x="418.457031"/>
       <use xlink:href="#DejaVuSans-35" x="450.244141"/>
      </g>
     </g>
    </g>
    <g id="ytick_12">
     <g id="line2d_20">
      <g>
       <use xlink:href="#mcc48f1d255" x="144" y="174.711724" style="stroke: #000000; stroke-width: 0.8"/>
      </g>
     </g>
     <g id="text_21">
      <!-- 1.B.95.3.6 -->
      <g transform="translate(85.614062 178.510943) scale(0.1 -0.1)">
       <defs>
        <path id="DejaVuSans-36" d="M 2113 2584 
Q 1688 2584 1439 2293 
Q 1191 2003 1191 1497 
Q 1191 994 1439 701 
Q 1688 409 2113 409 
Q 2538 409 2786 701 
Q 3034 994 3034 1497 
Q 3034 2003 2786 2293 
Q 2538 2584 2113 2584 
z
M 3366 4563 
L 3366 3988 
Q 3128 4100 2886 4159 
Q 2644 4219 2406 4219 
Q 1781 4219 1451 3797 
Q 1122 3375 1075 2522 
Q 1259 2794 1537 2939 
Q 1816 3084 2150 3084 
Q 2853 3084 3261 2657 
Q 3669 2231 3669 1497 
Q 3669 778 3244 343 
Q 2819 -91 2113 -91 
Q 1303 -91 875 529 
Q 447 1150 447 2328 
Q 447 3434 972 4092 
Q 1497 4750 2381 4750 
Q 2619 4750 2861 4703 
Q 3103 4656 3366 4563 
z
" transform="scale(0.015625)"/>
       </defs>
       <use xlink:href="#DejaVuSans-31"/>
       <use xlink:href="#DejaVuSans-2e" x="63.623047"/>
       <use xlink:href="#DejaVuSans-42" x="95.410156"/>
       <use xlink:href="#DejaVuSans-2e" x="164.013672"/>
       <use xlink:href="#DejaVuSans-39" x="195.800781"/>
       <use xlink:href="#DejaVuSans-35" x="259.423828"/>
       <use xlink:href="#DejaVuSans-2e" x="323.046875"/>
       <use xlink:href="#DejaVuSans-33" x="354.833984"/>
       <use xlink:href="#DejaVuSans-2e" x="418.457031"/>
       <use xlink:href="#DejaVuSans-36" x="450.244141"/>
      </g>
     </g>
    </g>
    <g id="ytick_13">
     <g id="line2d_21">
      <g>
       <use xlink:href="#mcc48f1d255" x="144" y="157.332414" style="stroke: #000000; stroke-width: 0.8"/>
      </g>
     </g>
     <g id="text_22">
      <!-- 1.B.95.4.2 -->
      <g transform="translate(85.614062 161.131633) scale(0.1 -0.1)">
       <use xlink:href="#DejaVuSans-31"/>
       <use xlink:href="#DejaVuSans-2e" x="63.623047"/>
       <use xlink:href="#DejaVuSans-42" x="95.410156"/>
       <use xlink:href="#DejaVuSans-2e" x="164.013672"/>
       <use xlink:href="#DejaVuSans-39" x="195.800781"/>
       <use xlink:href="#DejaVuSans-35" x="259.423828"/>
       <use xlink:href="#DejaVuSans-2e" x="323.046875"/>
       <use xlink:href="#DejaVuSans-34" x="354.833984"/>
       <use xlink:href="#DejaVuSans-2e" x="418.457031"/>
       <use xlink:href="#DejaVuSans-32" x="450.244141"/>
      </g>
     </g>
    </g>
    <g id="ytick_14">
     <g id="line2d_22">
      <g>
       <use xlink:href="#mcc48f1d255" x="144" y="139.953103" style="stroke: #000000; stroke-width: 0.8"/>
      </g>
     </g>
     <g id="text_23">
      <!-- 1.B.95.4.3 -->
      <g transform="translate(85.614062 143.752322) scale(0.1 -0.1)">
       <use xlink:href="#DejaVuSans-31"/>
       <use xlink:href="#DejaVuSans-2e" x="63.623047"/>
       <use xlink:href="#DejaVuSans-42" x="95.410156"/>
       <use xlink:href="#DejaVuSans-2e" x="164.013672"/>
       <use xlink:href="#DejaVuSans-39" x="195.800781"/>
       <use xlink:href="#DejaVuSans-35" x="259.423828"/>
       <use xlink:href="#DejaVuSans-2e" x="323.046875"/>
       <use xlink:href="#DejaVuSans-34" x="354.833984"/>
       <use xlink:href="#DejaVuSans-2e" x="418.457031"/>
       <use xlink:href="#DejaVuSans-33" x="450.244141"/>
      </g>
     </g>
    </g>
    <g id="ytick_15">
     <g id="line2d_23">
      <g>
       <use xlink:href="#mcc48f1d255" x="144" y="122.573793" style="stroke: #000000; stroke-width: 0.8"/>
      </g>
     </g>
     <g id="text_24">
      <!-- 1.B.95.4.4 -->
      <g transform="translate(85.614062 126.373012) scale(0.1 -0.1)">
       <use xlink:href="#DejaVuSans-31"/>
       <use xlink:href="#DejaVuSans-2e" x="63.623047"/>
       <use xlink:href="#DejaVuSans-42" x="95.410156"/>
       <use xlink:href="#DejaVuSans-2e" x="164.013672"/>
       <use xlink:href="#DejaVuSans-39" x="195.800781"/>
       <use xlink:href="#DejaVuSans-35" x="259.423828"/>
       <use xlink:href="#DejaVuSans-2e" x="323.046875"/>
       <use xlink:href="#DejaVuSans-34" x="354.833984"/>
       <use xlink:href="#DejaVuSans-2e" x="418.457031"/>
       <use xlink:href="#DejaVuSans-34" x="450.244141"/>
      </g>
     </g>
    </g>
    <g id="ytick_16">
     <g id="line2d_24">
      <g>
       <use xlink:href="#mcc48f1d255" x="144" y="105.194483" style="stroke: #000000; stroke-width: 0.8"/>
      </g>
     </g>
     <g id="text_25">
      <!-- 1.B.95.5.1 -->
      <g transform="translate(85.614062 108.993702) scale(0.1 -0.1)">
       <use xlink:href="#DejaVuSans-31"/>
       <use xlink:href="#DejaVuSans-2e" x="63.623047"/>
       <use xlink:href="#DejaVuSans-42" x="95.410156"/>
       <use xlink:href="#DejaVuSans-2e" x="164.013672"/>
       <use xlink:href="#DejaVuSans-39" x="195.800781"/>
       <use xlink:href="#DejaVuSans-35" x="259.423828"/>
       <use xlink:href="#DejaVuSans-2e" x="323.046875"/>
       <use xlink:href="#DejaVuSans-35" x="354.833984"/>
       <use xlink:href="#DejaVuSans-2e" x="418.457031"/>
       <use xlink:href="#DejaVuSans-31" x="450.244141"/>
      </g>
     </g>
    </g>
    <g id="ytick_17">
     <g id="line2d_25">
      <g>
       <use xlink:href="#mcc48f1d255" x="144" y="87.815172" style="stroke: #000000; stroke-width: 0.8"/>
      </g>
     </g>
     <g id="text_26">
      <!-- 1.B.95.5.2 -->
      <g transform="translate(85.614062 91.614391) scale(0.1 -0.1)">
       <use xlink:href="#DejaVuSans-31"/>
       <use xlink:href="#DejaVuSans-2e" x="63.623047"/>
       <use xlink:href="#DejaVuSans-42" x="95.410156"/>
       <use xlink:href="#DejaVuSans-2e" x="164.013672"/>
       <use xlink:href="#DejaVuSans-39" x="195.800781"/>
       <use xlink:href="#DejaVuSans-35" x="259.423828"/>
       <use xlink:href="#DejaVuSans-2e" x="323.046875"/>
       <use xlink:href="#DejaVuSans-35" x="354.833984"/>
       <use xlink:href="#DejaVuSans-2e" x="418.457031"/>
       <use xlink:href="#DejaVuSans-32" x="450.244141"/>
      </g>
     </g>
    </g>
    <g id="ytick_18">
     <g id="line2d_26">
      <g>
       <use xlink:href="#mcc48f1d255" x="144" y="70.435862" style="stroke: #000000; stroke-width: 0.8"/>
      </g>
     </g>
     <g id="text_27">
      <!-- 1.B.95.5.3 -->
      <g transform="translate(85.614062 74.235081) scale(0.1 -0.1)">
       <use xlink:href="#DejaVuSans-31"/>
       <use xlink:href="#DejaVuSans-2e" x="63.623047"/>
       <use xlink:href="#DejaVuSans-42" x="95.410156"/>
       <use xlink:href="#DejaVuSans-2e" x="164.013672"/>
       <use xlink:href="#DejaVuSans-39" x="195.800781"/>
       <use xlink:href="#DejaVuSans-35" x="259.423828"/>
       <use xlink:href="#DejaVuSans-2e" x="323.046875"/>
       <use xlink:href="#DejaVuSans-35" x="354.833984"/>
       <use xlink:href="#DejaVuSans-2e" x="418.457031"/>
       <use xlink:href="#DejaVuSans-33" x="450.244141"/>
      </g>
     </g>
    </g>
   </g>
   <g id="patch_101">
    <path d="M 144 384.48 
L 144 51.84 
" style="fill: none; stroke: #000000; stroke-width: 0.8; stroke-linejoin: miter; stroke-linecap: square"/>
   </g>
   <g id="patch_102">
    <path d="M 1036.8 384.48 
L 1036.8 51.84 
" style="fill: none; stroke: #000000; stroke-width: 0.8; stroke-linejoin: miter; stroke-linecap: square"/>
   </g>
   <g id="patch_103">
    <path d="M 144 384.48 
L 1036.8 384.48 
" style="fill: none; stroke: #000000; stroke-width: 0.8; stroke-linejoin: miter; stroke-linecap: square"/>
   </g>
   <g id="patch_104">
    <path d="M 144 51.84 
L 1036.8 51.84 
" style="fill: none; stroke: #000000; stroke-width: 0.8; stroke-linejoin: miter; stroke-linecap: square"/>
   </g>
   <g id="text_28">
    <!-- 1.B.95 Summary -->
    <g transform="translate(540.115312 45.84) scale(0.12 -0.12)">
     <defs>
      <path id="DejaVuSans-20" transform="scale(0.015625)"/>
      <path id="DejaVuSans-53" d="M 3425 4513 
L 3425 3897 
Q 3066 4069 2747 4153 
Q 2428 4238 2131 4238 
Q 1616 4238 1336 4038 
Q 1056 3838 1056 3469 
Q 1056 3159 1242 3001 
Q 1428 2844 1947 2747 
L 2328 2669 
Q 3034 2534 3370 2195 
Q 3706 1856 3706 1288 
Q 3706 609 3251 259 
Q 2797 -91 1919 -91 
Q 1588 -91 1214 -16 
Q 841 59 441 206 
L 441 856 
Q 825 641 1194 531 
Q 1563 422 1919 422 
Q 2459 422 2753 634 
Q 3047 847 3047 1241 
Q 3047 1584 2836 1778 
Q 2625 1972 2144 2069 
L 1759 2144 
Q 1053 2284 737 2584 
Q 422 2884 422 3419 
Q 422 4038 858 4394 
Q 1294 4750 2059 4750 
Q 2388 4750 2728 4690 
Q 3069 4631 3425 4513 
z
" transform="scale(0.015625)"/>
      <path id="DejaVuSans-6d" d="M 3328 2828 
Q 3544 3216 3844 3400 
Q 4144 3584 4550 3584 
Q 5097 3584 5394 3201 
Q 5691 2819 5691 2113 
L 5691 0 
L 5113 0 
L 5113 2094 
Q 5113 2597 4934 2840 
Q 4756 3084 4391 3084 
Q 3944 3084 3684 2787 
Q 3425 2491 3425 1978 
L 3425 0 
L 2847 0 
L 2847 2094 
Q 2847 2600 2669 2842 
Q 2491 3084 2119 3084 
Q 1678 3084 1418 2786 
Q 1159 2488 1159 1978 
L 1159 0 
L 581 0 
L 581 3500 
L 1159 3500 
L 1159 2956 
Q 1356 3278 1631 3431 
Q 1906 3584 2284 3584 
Q 2666 3584 2933 3390 
Q 3200 3197 3328 2828 
z
" transform="scale(0.015625)"/>
      <path id="DejaVuSans-72" d="M 2631 2963 
Q 2534 3019 2420 3045 
Q 2306 3072 2169 3072 
Q 1681 3072 1420 2755 
Q 1159 2438 1159 1844 
L 1159 0 
L 581 0 
L 581 3500 
L 1159 3500 
L 1159 2956 
Q 1341 3275 1631 3429 
Q 1922 3584 2338 3584 
Q 2397 3584 2469 3576 
Q 2541 3569 2628 3553 
L 2631 2963 
z
" transform="scale(0.015625)"/>
      <path id="DejaVuSans-79" d="M 2059 -325 
Q 1816 -950 1584 -1140 
Q 1353 -1331 966 -1331 
L 506 -1331 
L 506 -850 
L 844 -850 
Q 1081 -850 1212 -737 
Q 1344 -625 1503 -206 
L 1606 56 
L 191 3500 
L 800 3500 
L 1894 763 
L 2988 3500 
L 3597 3500 
L 2059 -325 
z
" transform="scale(0.015625)"/>
     </defs>
     <use xlink:href="#DejaVuSans-31"/>
     <use xlink:href="#DejaVuSans-2e" x="63.623047"/>
     <use xlink:href="#DejaVuSans-42" x="95.410156"/>
     <use xlink:href="#DejaVuSans-2e" x="164.013672"/>
     <use xlink:href="#DejaVuSans-39" x="195.800781"/>
     <use xlink:href="#DejaVuSans-35" x="259.423828"/>
     <use xlink:href="#DejaVuSans-20" x="323.046875"/>
     <use xlink:href="#DejaVuSans-53" x="354.833984"/>
     <use xlink:href="#DejaVuSans-75" x="418.310547"/>
     <use xlink:href="#DejaVuSans-6d" x="481.689453"/>
     <use xlink:href="#DejaVuSans-6d" x="579.101562"/>
     <use xlink:href="#DejaVuSans-61" x="676.513672"/>
     <use xlink:href="#DejaVuSans-72" x="737.792969"/>
     <use xlink:href="#DejaVuSans-79" x="778.90625"/>
    </g>
   </g>
  </g>
 </g>
 <defs>
  <clipPath id="pb803baa00c">
   <rect x="144" y="51.84" width="892.8" height="332.64"/>
  </clipPath>
 </defs>
</svg>
