<?xml version="1.0" encoding="utf-8" standalone="no"?>
<!DOCTYPE svg PUBLIC "-//W3C//DTD SVG 1.1//EN"
  "http://www.w3.org/Graphics/SVG/1.1/DTD/svg11.dtd">
<svg xmlns:xlink="http://www.w3.org/1999/xlink" width="1152pt" height="288pt" viewBox="0 0 1152 288" xmlns="http://www.w3.org/2000/svg" version="1.1">
 <metadata>
  <rdf:RDF xmlns:dc="http://purl.org/dc/elements/1.1/" xmlns:cc="http://creativecommons.org/ns#" xmlns:rdf="http://www.w3.org/1999/02/22-rdf-syntax-ns#">
   <cc:Work>
    <dc:type rdf:resource="http://purl.org/dc/dcmitype/StillImage"/>
    <dc:date>2024-10-24T15:47:13.181630</dc:date>
    <dc:format>image/svg+xml</dc:format>
    <dc:creator>
     <cc:Agent>
      <dc:title>Matplotlib v3.8.4, https://matplotlib.org/</dc:title>
     </cc:Agent>
    </dc:creator>
   </cc:Work>
  </rdf:RDF>
 </metadata>
 <defs>
  <style type="text/css">*{stroke-linejoin: round; stroke-linecap: butt}</style>
 </defs>
 <g id="figure_1">
  <g id="patch_1">
   <path d="M 0 288 
L 1152 288 
L 1152 0 
L 0 0 
z
" style="fill: #ffffff"/>
  </g>
  <g id="axes_1">
   <g id="patch_2">
    <path d="M 144 256.32 
L 1036.8 256.32 
L 1036.8 34.56 
L 144 34.56 
z
" style="fill: #ffffff"/>
   </g>
   <g id="patch_3">
    <path d="M 144 243.456716 
L 197.35801 243.456716 
L 197.35801 243.005373 
L 144 243.005373 
z
" clip-path="url(#p188546f92c)" style="fill: #0000ff"/>
   </g>
   <g id="patch_4">
    <path d="M 199.079237 246.24 
L 483.08155 246.24 
L 483.08155 240.22209 
L 199.079237 240.22209 
z
" clip-path="url(#p188546f92c)" style="fill: #0000ff"/>
   </g>
   <g id="patch_5">
    <path d="M 228.340081 246.24 
L 477.917872 246.24 
L 477.917872 240.22209 
L 228.340081 240.22209 
z
" clip-path="url(#p188546f92c)" style="fill: #0000ff"/>
   </g>
   <g id="patch_6">
    <path d="M 484.802776 243.456716 
L 498.572585 243.456716 
L 498.572585 243.005373 
L 484.802776 243.005373 
z
" clip-path="url(#p188546f92c)" style="fill: #0000ff"/>
   </g>
   <g id="patch_7">
    <path d="M 144 228.41194 
L 185.309427 228.41194 
L 185.309427 227.960597 
L 144 227.960597 
z
" clip-path="url(#p188546f92c)" style="fill: #0000ff"/>
   </g>
   <g id="patch_8">
    <path d="M 187.030654 231.195224 
L 646.598034 231.195224 
L 646.598034 225.177313 
L 187.030654 225.177313 
z
" clip-path="url(#p188546f92c)" style="fill: #0000ff"/>
   </g>
   <g id="patch_9">
    <path d="M 648.31926 228.41194 
L 682.743783 228.41194 
L 682.743783 227.960597 
L 648.31926 227.960597 
z
" clip-path="url(#p188546f92c)" style="fill: #0000ff"/>
   </g>
   <g id="patch_10">
    <path d="M 684.465009 231.195224 
L 971.909774 231.195224 
L 971.909774 225.177313 
L 684.465009 225.177313 
z
" clip-path="url(#p188546f92c)" style="fill: #0000ff"/>
   </g>
   <g id="patch_11">
    <path d="M 698.234818 231.195224 
L 966.746096 231.195224 
L 966.746096 225.177313 
L 698.234818 225.177313 
z
" clip-path="url(#p188546f92c)" style="fill: #0000ff"/>
   </g>
   <g id="patch_12">
    <path d="M 973.631001 228.41194 
L 994.285714 228.41194 
L 994.285714 227.960597 
L 973.631001 227.960597 
z
" clip-path="url(#p188546f92c)" style="fill: #0000ff"/>
   </g>
   <g id="patch_13">
    <path d="M 144 213.367164 
L 204.242915 213.367164 
L 204.242915 212.915821 
L 144 212.915821 
z
" clip-path="url(#p188546f92c)" style="fill: #0000ff"/>
   </g>
   <g id="patch_14">
    <path d="M 205.964141 216.150448 
L 483.08155 216.150448 
L 483.08155 210.132537 
L 205.964141 210.132537 
z
" clip-path="url(#p188546f92c)" style="fill: #0000ff"/>
   </g>
   <g id="patch_15">
    <path d="M 228.340081 216.150448 
L 500.293811 216.150448 
L 500.293811 210.132537 
L 228.340081 210.132537 
z
" clip-path="url(#p188546f92c)" style="fill: #0000ff"/>
   </g>
   <g id="patch_16">
    <path d="M 502.015038 213.367164 
L 519.227299 213.367164 
L 519.227299 212.915821 
L 502.015038 212.915821 
z
" clip-path="url(#p188546f92c)" style="fill: #0000ff"/>
   </g>
   <g id="patch_17">
    <path d="M 144 198.322388 
L 200.800463 198.322388 
L 200.800463 197.871045 
L 144 197.871045 
z
" clip-path="url(#p188546f92c)" style="fill: #0000ff"/>
   </g>
   <g id="patch_18">
    <path d="M 202.521689 201.105672 
L 503.736264 201.105672 
L 503.736264 195.087761 
L 202.521689 195.087761 
z
" clip-path="url(#p188546f92c)" style="fill: #0000ff"/>
   </g>
   <g id="patch_19">
    <path d="M 219.73395 201.105672 
L 508.899942 201.105672 
L 508.899942 195.087761 
L 219.73395 195.087761 
z
" clip-path="url(#p188546f92c)" style="fill: #0000ff"/>
   </g>
   <g id="patch_20">
    <path d="M 510.621168 198.322388 
L 545.045691 198.322388 
L 545.045691 197.871045 
L 510.621168 197.871045 
z
" clip-path="url(#p188546f92c)" style="fill: #0000ff"/>
   </g>
   <g id="patch_21">
    <path d="M 144 183.277612 
L 290.304222 183.277612 
L 290.304222 182.826269 
L 144 182.826269 
z
" clip-path="url(#p188546f92c)" style="fill: #0000ff"/>
   </g>
   <g id="patch_22">
    <path d="M 292.025448 186.060896 
L 557.094274 186.060896 
L 557.094274 180.042985 
L 292.025448 180.042985 
z
" clip-path="url(#p188546f92c)" style="fill: #0000ff"/>
   </g>
   <g id="patch_23">
    <path d="M 319.565067 186.060896 
L 555.373048 186.060896 
L 555.373048 180.042985 
L 319.565067 180.042985 
z
" clip-path="url(#p188546f92c)" style="fill: #0000ff"/>
   </g>
   <g id="patch_24">
    <path d="M 558.8155 183.277612 
L 581.19144 183.277612 
L 581.19144 182.826269 
L 558.8155 182.826269 
z
" clip-path="url(#p188546f92c)" style="fill: #0000ff"/>
   </g>
   <g id="patch_25">
    <path d="M 144 168.232836 
L 168.097166 168.232836 
L 168.097166 167.781493 
L 144 167.781493 
z
" clip-path="url(#p188546f92c)" style="fill: #0000ff"/>
   </g>
   <g id="patch_26">
    <path d="M 169.818392 171.016119 
L 462.426836 171.016119 
L 462.426836 164.998209 
L 169.818392 164.998209 
z
" clip-path="url(#p188546f92c)" style="fill: #0000ff"/>
   </g>
   <g id="patch_27">
    <path d="M 187.030654 171.016119 
L 457.263158 171.016119 
L 457.263158 164.998209 
L 187.030654 164.998209 
z
" clip-path="url(#p188546f92c)" style="fill: #0000ff"/>
   </g>
   <g id="patch_28">
    <path d="M 464.148062 168.232836 
L 481.360324 168.232836 
L 481.360324 167.781493 
L 464.148062 167.781493 
z
" clip-path="url(#p188546f92c)" style="fill: #0000ff"/>
   </g>
   <g id="patch_29">
    <path d="M 144 153.18806 
L 192.194332 153.18806 
L 192.194332 152.736716 
L 144 152.736716 
z
" clip-path="url(#p188546f92c)" style="fill: #0000ff"/>
   </g>
   <g id="patch_30">
    <path d="M 193.915558 155.971343 
L 474.475419 155.971343 
L 474.475419 149.953433 
L 193.915558 149.953433 
z
" clip-path="url(#p188546f92c)" style="fill: #0000ff"/>
   </g>
   <g id="patch_31">
    <path d="M 197.35801 155.971343 
L 467.590515 155.971343 
L 467.590515 149.953433 
L 197.35801 149.953433 
z
" clip-path="url(#p188546f92c)" style="fill: #0000ff"/>
   </g>
   <g id="patch_32">
    <path d="M 476.196645 153.18806 
L 479.639098 153.18806 
L 479.639098 152.736716 
L 476.196645 152.736716 
z
" clip-path="url(#p188546f92c)" style="fill: #0000ff"/>
   </g>
   <g id="patch_33">
    <path d="M 144 140.926567 
L 469.311741 140.926567 
L 469.311741 134.908657 
L 144 134.908657 
z
" clip-path="url(#p188546f92c)" style="fill: #0000ff"/>
   </g>
   <g id="patch_34">
    <path d="M 164.654714 140.926567 
L 467.590515 140.926567 
L 467.590515 134.908657 
L 164.654714 134.908657 
z
" clip-path="url(#p188546f92c)" style="fill: #0000ff"/>
   </g>
   <g id="patch_35">
    <path d="M 471.032967 138.143284 
L 481.360324 138.143284 
L 481.360324 137.69194 
L 471.032967 137.69194 
z
" clip-path="url(#p188546f92c)" style="fill: #0000ff"/>
   </g>
   <g id="patch_36">
    <path d="M 144 123.098507 
L 166.37594 123.098507 
L 166.37594 122.647164 
L 144 122.647164 
z
" clip-path="url(#p188546f92c)" style="fill: #0000ff"/>
   </g>
   <g id="patch_37">
    <path d="M 168.097166 125.881791 
L 476.196645 125.881791 
L 476.196645 119.863881 
L 168.097166 119.863881 
z
" clip-path="url(#p188546f92c)" style="fill: #0000ff"/>
   </g>
   <g id="patch_38">
    <path d="M 187.030654 125.881791 
L 471.032967 125.881791 
L 471.032967 119.863881 
L 187.030654 119.863881 
z
" clip-path="url(#p188546f92c)" style="fill: #0000ff"/>
   </g>
   <g id="patch_39">
    <path d="M 477.917872 123.098507 
L 483.08155 123.098507 
L 483.08155 122.647164 
L 477.917872 122.647164 
z
" clip-path="url(#p188546f92c)" style="fill: #0000ff"/>
   </g>
   <g id="patch_40">
    <path d="M 144 108.053731 
L 257.600925 108.053731 
L 257.600925 107.602388 
L 144 107.602388 
z
" clip-path="url(#p188546f92c)" style="fill: #0000ff"/>
   </g>
   <g id="patch_41">
    <path d="M 259.322152 110.837015 
L 545.045691 110.837015 
L 545.045691 104.819104 
L 259.322152 104.819104 
z
" clip-path="url(#p188546f92c)" style="fill: #0000ff"/>
   </g>
   <g id="patch_42">
    <path d="M 273.091961 110.837015 
L 541.603239 110.837015 
L 541.603239 104.819104 
L 273.091961 104.819104 
z
" clip-path="url(#p188546f92c)" style="fill: #0000ff"/>
   </g>
   <g id="patch_43">
    <path d="M 546.766917 108.053731 
L 558.8155 108.053731 
L 558.8155 107.602388 
L 546.766917 107.602388 
z
" clip-path="url(#p188546f92c)" style="fill: #0000ff"/>
   </g>
   <g id="patch_44">
    <path d="M 144 93.008955 
L 271.370735 93.008955 
L 271.370735 92.557612 
L 144 92.557612 
z
" clip-path="url(#p188546f92c)" style="fill: #0000ff"/>
   </g>
   <g id="patch_45">
    <path d="M 273.091961 95.792239 
L 593.240023 95.792239 
L 593.240023 89.774328 
L 273.091961 89.774328 
z
" clip-path="url(#p188546f92c)" style="fill: #0000ff"/>
   </g>
   <g id="patch_46">
    <path d="M 305.795257 95.792239 
L 596.682475 95.792239 
L 596.682475 89.774328 
L 305.795257 89.774328 
z
" clip-path="url(#p188546f92c)" style="fill: #0000ff"/>
   </g>
   <g id="patch_47">
    <path d="M 598.403702 93.008955 
L 622.500868 93.008955 
L 622.500868 92.557612 
L 598.403702 92.557612 
z
" clip-path="url(#p188546f92c)" style="fill: #0000ff"/>
   </g>
   <g id="patch_48">
    <path d="M 144 77.964179 
L 426.281087 77.964179 
L 426.281087 77.512836 
L 144 77.512836 
z
" clip-path="url(#p188546f92c)" style="fill: #0000ff"/>
   </g>
   <g id="patch_49">
    <path d="M 428.002313 80.747463 
L 760.198959 80.747463 
L 760.198959 74.729552 
L 428.002313 74.729552 
z
" clip-path="url(#p188546f92c)" style="fill: #0000ff"/>
   </g>
   <g id="patch_50">
    <path d="M 428.002313 80.747463 
L 742.986698 80.747463 
L 742.986698 74.729552 
L 428.002313 74.729552 
z
" clip-path="url(#p188546f92c)" style="fill: #0000ff"/>
   </g>
   <g id="patch_51">
    <path d="M 761.920185 77.964179 
L 765.362637 77.964179 
L 765.362637 77.512836 
L 761.920185 77.512836 
z
" clip-path="url(#p188546f92c)" style="fill: #0000ff"/>
   </g>
   <g id="patch_52">
    <path d="M 144 62.919403 
L 221.455176 62.919403 
L 221.455176 62.46806 
L 144 62.46806 
z
" clip-path="url(#p188546f92c)" style="fill: #0000ff"/>
   </g>
   <g id="patch_53">
    <path d="M 223.176403 65.702687 
L 496.851359 65.702687 
L 496.851359 59.684776 
L 223.176403 59.684776 
z
" clip-path="url(#p188546f92c)" style="fill: #0000ff"/>
   </g>
   <g id="patch_54">
    <path d="M 254.158473 65.702687 
L 489.966455 65.702687 
L 489.966455 59.684776 
L 254.158473 59.684776 
z
" clip-path="url(#p188546f92c)" style="fill: #0000ff"/>
   </g>
   <g id="patch_55">
    <path d="M 498.572585 62.919403 
L 551.930596 62.919403 
L 551.930596 62.46806 
L 498.572585 62.46806 
z
" clip-path="url(#p188546f92c)" style="fill: #0000ff"/>
   </g>
   <g id="patch_56">
    <path d="M 144 47.874627 
L 395.299017 47.874627 
L 395.299017 47.423284 
L 144 47.423284 
z
" clip-path="url(#p188546f92c)" style="fill: #0000ff"/>
   </g>
   <g id="patch_57">
    <path d="M 397.020243 50.65791 
L 691.349913 50.65791 
L 691.349913 44.64 
L 397.020243 44.64 
z
" clip-path="url(#p188546f92c)" style="fill: #0000ff"/>
   </g>
   <g id="patch_58">
    <path d="M 693.071139 47.874627 
L 715.447079 47.874627 
L 715.447079 47.423284 
L 693.071139 47.423284 
z
" clip-path="url(#p188546f92c)" style="fill: #0000ff"/>
   </g>
   <g id="matplotlib.axis_1">
    <g id="xtick_1">
     <g id="line2d_1">
      <defs>
       <path id="ma3f5f5ba59" d="M 0 0 
L 0 3.5 
" style="stroke: #000000; stroke-width: 0.8"/>
      </defs>
      <g>
       <use xlink:href="#ma3f5f5ba59" x="314.401388" y="256.32" style="stroke: #000000; stroke-width: 0.8"/>
      </g>
     </g>
     <g id="text_1">
      <!-- 100 -->
      <g transform="translate(304.857638 270.918437) scale(0.1 -0.1)">
       <defs>
        <path id="DejaVuSans-31" d="M 794 531 
L 1825 531 
L 1825 4091 
L 703 3866 
L 703 4441 
L 1819 4666 
L 2450 4666 
L 2450 531 
L 3481 531 
L 3481 0 
L 794 0 
L 794 531 
z
" transform="scale(0.015625)"/>
        <path id="DejaVuSans-30" d="M 2034 4250 
Q 1547 4250 1301 3770 
Q 1056 3291 1056 2328 
Q 1056 1369 1301 889 
Q 1547 409 2034 409 
Q 2525 409 2770 889 
Q 3016 1369 3016 2328 
Q 3016 3291 2770 3770 
Q 2525 4250 2034 4250 
z
M 2034 4750 
Q 2819 4750 3233 4129 
Q 3647 3509 3647 2328 
Q 3647 1150 3233 529 
Q 2819 -91 2034 -91 
Q 1250 -91 836 529 
Q 422 1150 422 2328 
Q 422 3509 836 4129 
Q 1250 4750 2034 4750 
z
" transform="scale(0.015625)"/>
       </defs>
       <use xlink:href="#DejaVuSans-31"/>
       <use xlink:href="#DejaVuSans-30" x="63.623047"/>
       <use xlink:href="#DejaVuSans-30" x="127.246094"/>
      </g>
     </g>
    </g>
    <g id="xtick_2">
     <g id="line2d_2">
      <g>
       <use xlink:href="#ma3f5f5ba59" x="486.524002" y="256.32" style="stroke: #000000; stroke-width: 0.8"/>
      </g>
     </g>
     <g id="text_2">
      <!-- 200 -->
      <g transform="translate(476.980252 270.918437) scale(0.1 -0.1)">
       <defs>
        <path id="DejaVuSans-32" d="M 1228 531 
L 3431 531 
L 3431 0 
L 469 0 
L 469 531 
Q 828 903 1448 1529 
Q 2069 2156 2228 2338 
Q 2531 2678 2651 2914 
Q 2772 3150 2772 3378 
Q 2772 3750 2511 3984 
Q 2250 4219 1831 4219 
Q 1534 4219 1204 4116 
Q 875 4013 500 3803 
L 500 4441 
Q 881 4594 1212 4672 
Q 1544 4750 1819 4750 
Q 2544 4750 2975 4387 
Q 3406 4025 3406 3419 
Q 3406 3131 3298 2873 
Q 3191 2616 2906 2266 
Q 2828 2175 2409 1742 
Q 1991 1309 1228 531 
z
" transform="scale(0.015625)"/>
       </defs>
       <use xlink:href="#DejaVuSans-32"/>
       <use xlink:href="#DejaVuSans-30" x="63.623047"/>
       <use xlink:href="#DejaVuSans-30" x="127.246094"/>
      </g>
     </g>
    </g>
    <g id="xtick_3">
     <g id="line2d_3">
      <g>
       <use xlink:href="#ma3f5f5ba59" x="658.646617" y="256.32" style="stroke: #000000; stroke-width: 0.8"/>
      </g>
     </g>
     <g id="text_3">
      <!-- 300 -->
      <g transform="translate(649.102867 270.918437) scale(0.1 -0.1)">
       <defs>
        <path id="DejaVuSans-33" d="M 2597 2516 
Q 3050 2419 3304 2112 
Q 3559 1806 3559 1356 
Q 3559 666 3084 287 
Q 2609 -91 1734 -91 
Q 1441 -91 1130 -33 
Q 819 25 488 141 
L 488 750 
Q 750 597 1062 519 
Q 1375 441 1716 441 
Q 2309 441 2620 675 
Q 2931 909 2931 1356 
Q 2931 1769 2642 2001 
Q 2353 2234 1838 2234 
L 1294 2234 
L 1294 2753 
L 1863 2753 
Q 2328 2753 2575 2939 
Q 2822 3125 2822 3475 
Q 2822 3834 2567 4026 
Q 2313 4219 1838 4219 
Q 1578 4219 1281 4162 
Q 984 4106 628 3988 
L 628 4550 
Q 988 4650 1302 4700 
Q 1616 4750 1894 4750 
Q 2613 4750 3031 4423 
Q 3450 4097 3450 3541 
Q 3450 3153 3228 2886 
Q 3006 2619 2597 2516 
z
" transform="scale(0.015625)"/>
       </defs>
       <use xlink:href="#DejaVuSans-33"/>
       <use xlink:href="#DejaVuSans-30" x="63.623047"/>
       <use xlink:href="#DejaVuSans-30" x="127.246094"/>
      </g>
     </g>
    </g>
    <g id="xtick_4">
     <g id="line2d_4">
      <g>
       <use xlink:href="#ma3f5f5ba59" x="830.769231" y="256.32" style="stroke: #000000; stroke-width: 0.8"/>
      </g>
     </g>
     <g id="text_4">
      <!-- 400 -->
      <g transform="translate(821.225481 270.918437) scale(0.1 -0.1)">
       <defs>
        <path id="DejaVuSans-34" d="M 2419 4116 
L 825 1625 
L 2419 1625 
L 2419 4116 
z
M 2253 4666 
L 3047 4666 
L 3047 1625 
L 3713 1625 
L 3713 1100 
L 3047 1100 
L 3047 0 
L 2419 0 
L 2419 1100 
L 313 1100 
L 313 1709 
L 2253 4666 
z
" transform="scale(0.015625)"/>
       </defs>
       <use xlink:href="#DejaVuSans-34"/>
       <use xlink:href="#DejaVuSans-30" x="63.623047"/>
       <use xlink:href="#DejaVuSans-30" x="127.246094"/>
      </g>
     </g>
    </g>
    <g id="xtick_5">
     <g id="line2d_5">
      <g>
       <use xlink:href="#ma3f5f5ba59" x="1002.891845" y="256.32" style="stroke: #000000; stroke-width: 0.8"/>
      </g>
     </g>
     <g id="text_5">
      <!-- 500 -->
      <g transform="translate(993.348095 270.918437) scale(0.1 -0.1)">
       <defs>
        <path id="DejaVuSans-35" d="M 691 4666 
L 3169 4666 
L 3169 4134 
L 1269 4134 
L 1269 2991 
Q 1406 3038 1543 3061 
Q 1681 3084 1819 3084 
Q 2600 3084 3056 2656 
Q 3513 2228 3513 1497 
Q 3513 744 3044 326 
Q 2575 -91 1722 -91 
Q 1428 -91 1123 -41 
Q 819 9 494 109 
L 494 744 
Q 775 591 1075 516 
Q 1375 441 1709 441 
Q 2250 441 2565 725 
Q 2881 1009 2881 1497 
Q 2881 1984 2565 2268 
Q 2250 2553 1709 2553 
Q 1456 2553 1204 2497 
Q 953 2441 691 2322 
L 691 4666 
z
" transform="scale(0.015625)"/>
       </defs>
       <use xlink:href="#DejaVuSans-35"/>
       <use xlink:href="#DejaVuSans-30" x="63.623047"/>
       <use xlink:href="#DejaVuSans-30" x="127.246094"/>
      </g>
     </g>
    </g>
    <g id="text_6">
     <!-- Residual -->
     <g transform="translate(569.284375 284.596563) scale(0.1 -0.1)">
      <defs>
       <path id="DejaVuSans-52" d="M 2841 2188 
Q 3044 2119 3236 1894 
Q 3428 1669 3622 1275 
L 4263 0 
L 3584 0 
L 2988 1197 
Q 2756 1666 2539 1819 
Q 2322 1972 1947 1972 
L 1259 1972 
L 1259 0 
L 628 0 
L 628 4666 
L 2053 4666 
Q 2853 4666 3247 4331 
Q 3641 3997 3641 3322 
Q 3641 2881 3436 2590 
Q 3231 2300 2841 2188 
z
M 1259 4147 
L 1259 2491 
L 2053 2491 
Q 2509 2491 2742 2702 
Q 2975 2913 2975 3322 
Q 2975 3731 2742 3939 
Q 2509 4147 2053 4147 
L 1259 4147 
z
" transform="scale(0.015625)"/>
       <path id="DejaVuSans-65" d="M 3597 1894 
L 3597 1613 
L 953 1613 
Q 991 1019 1311 708 
Q 1631 397 2203 397 
Q 2534 397 2845 478 
Q 3156 559 3463 722 
L 3463 178 
Q 3153 47 2828 -22 
Q 2503 -91 2169 -91 
Q 1331 -91 842 396 
Q 353 884 353 1716 
Q 353 2575 817 3079 
Q 1281 3584 2069 3584 
Q 2775 3584 3186 3129 
Q 3597 2675 3597 1894 
z
M 3022 2063 
Q 3016 2534 2758 2815 
Q 2500 3097 2075 3097 
Q 1594 3097 1305 2825 
Q 1016 2553 972 2059 
L 3022 2063 
z
" transform="scale(0.015625)"/>
       <path id="DejaVuSans-73" d="M 2834 3397 
L 2834 2853 
Q 2591 2978 2328 3040 
Q 2066 3103 1784 3103 
Q 1356 3103 1142 2972 
Q 928 2841 928 2578 
Q 928 2378 1081 2264 
Q 1234 2150 1697 2047 
L 1894 2003 
Q 2506 1872 2764 1633 
Q 3022 1394 3022 966 
Q 3022 478 2636 193 
Q 2250 -91 1575 -91 
Q 1294 -91 989 -36 
Q 684 19 347 128 
L 347 722 
Q 666 556 975 473 
Q 1284 391 1588 391 
Q 1994 391 2212 530 
Q 2431 669 2431 922 
Q 2431 1156 2273 1281 
Q 2116 1406 1581 1522 
L 1381 1569 
Q 847 1681 609 1914 
Q 372 2147 372 2553 
Q 372 3047 722 3315 
Q 1072 3584 1716 3584 
Q 2034 3584 2315 3537 
Q 2597 3491 2834 3397 
z
" transform="scale(0.015625)"/>
       <path id="DejaVuSans-69" d="M 603 3500 
L 1178 3500 
L 1178 0 
L 603 0 
L 603 3500 
z
M 603 4863 
L 1178 4863 
L 1178 4134 
L 603 4134 
L 603 4863 
z
" transform="scale(0.015625)"/>
       <path id="DejaVuSans-64" d="M 2906 2969 
L 2906 4863 
L 3481 4863 
L 3481 0 
L 2906 0 
L 2906 525 
Q 2725 213 2448 61 
Q 2172 -91 1784 -91 
Q 1150 -91 751 415 
Q 353 922 353 1747 
Q 353 2572 751 3078 
Q 1150 3584 1784 3584 
Q 2172 3584 2448 3432 
Q 2725 3281 2906 2969 
z
M 947 1747 
Q 947 1113 1208 752 
Q 1469 391 1925 391 
Q 2381 391 2643 752 
Q 2906 1113 2906 1747 
Q 2906 2381 2643 2742 
Q 2381 3103 1925 3103 
Q 1469 3103 1208 2742 
Q 947 2381 947 1747 
z
" transform="scale(0.015625)"/>
       <path id="DejaVuSans-75" d="M 544 1381 
L 544 3500 
L 1119 3500 
L 1119 1403 
Q 1119 906 1312 657 
Q 1506 409 1894 409 
Q 2359 409 2629 706 
Q 2900 1003 2900 1516 
L 2900 3500 
L 3475 3500 
L 3475 0 
L 2900 0 
L 2900 538 
Q 2691 219 2414 64 
Q 2138 -91 1772 -91 
Q 1169 -91 856 284 
Q 544 659 544 1381 
z
M 1991 3584 
L 1991 3584 
z
" transform="scale(0.015625)"/>
       <path id="DejaVuSans-61" d="M 2194 1759 
Q 1497 1759 1228 1600 
Q 959 1441 959 1056 
Q 959 750 1161 570 
Q 1363 391 1709 391 
Q 2188 391 2477 730 
Q 2766 1069 2766 1631 
L 2766 1759 
L 2194 1759 
z
M 3341 1997 
L 3341 0 
L 2766 0 
L 2766 531 
Q 2569 213 2275 61 
Q 1981 -91 1556 -91 
Q 1019 -91 701 211 
Q 384 513 384 1019 
Q 384 1609 779 1909 
Q 1175 2209 1959 2209 
L 2766 2209 
L 2766 2266 
Q 2766 2663 2505 2880 
Q 2244 3097 1772 3097 
Q 1472 3097 1187 3025 
Q 903 2953 641 2809 
L 641 3341 
Q 956 3463 1253 3523 
Q 1550 3584 1831 3584 
Q 2591 3584 2966 3190 
Q 3341 2797 3341 1997 
z
" transform="scale(0.015625)"/>
       <path id="DejaVuSans-6c" d="M 603 4863 
L 1178 4863 
L 1178 0 
L 603 0 
L 603 4863 
z
" transform="scale(0.015625)"/>
      </defs>
      <use xlink:href="#DejaVuSans-52"/>
      <use xlink:href="#DejaVuSans-65" x="64.982422"/>
      <use xlink:href="#DejaVuSans-73" x="126.505859"/>
      <use xlink:href="#DejaVuSans-69" x="178.605469"/>
      <use xlink:href="#DejaVuSans-64" x="206.388672"/>
      <use xlink:href="#DejaVuSans-75" x="269.865234"/>
      <use xlink:href="#DejaVuSans-61" x="333.244141"/>
      <use xlink:href="#DejaVuSans-6c" x="394.523438"/>
     </g>
    </g>
   </g>
   <g id="matplotlib.axis_2">
    <g id="ytick_1">
     <g id="line2d_6">
      <defs>
       <path id="m87dd22e137" d="M 0 0 
L -3.5 0 
" style="stroke: #000000; stroke-width: 0.8"/>
      </defs>
      <g>
       <use xlink:href="#m87dd22e137" x="144" y="243.231045" style="stroke: #000000; stroke-width: 0.8"/>
      </g>
     </g>
     <g id="text_7">
      <!-- 1.B.77.1.1 -->
      <g transform="translate(85.614062 247.030264) scale(0.1 -0.1)">
       <defs>
        <path id="DejaVuSans-2e" d="M 684 794 
L 1344 794 
L 1344 0 
L 684 0 
L 684 794 
z
" transform="scale(0.015625)"/>
        <path id="DejaVuSans-42" d="M 1259 2228 
L 1259 519 
L 2272 519 
Q 2781 519 3026 730 
Q 3272 941 3272 1375 
Q 3272 1813 3026 2020 
Q 2781 2228 2272 2228 
L 1259 2228 
z
M 1259 4147 
L 1259 2741 
L 2194 2741 
Q 2656 2741 2882 2914 
Q 3109 3088 3109 3444 
Q 3109 3797 2882 3972 
Q 2656 4147 2194 4147 
L 1259 4147 
z
M 628 4666 
L 2241 4666 
Q 2963 4666 3353 4366 
Q 3744 4066 3744 3513 
Q 3744 3084 3544 2831 
Q 3344 2578 2956 2516 
Q 3422 2416 3680 2098 
Q 3938 1781 3938 1306 
Q 3938 681 3513 340 
Q 3088 0 2303 0 
L 628 0 
L 628 4666 
z
" transform="scale(0.015625)"/>
        <path id="DejaVuSans-37" d="M 525 4666 
L 3525 4666 
L 3525 4397 
L 1831 0 
L 1172 0 
L 2766 4134 
L 525 4134 
L 525 4666 
z
" transform="scale(0.015625)"/>
       </defs>
       <use xlink:href="#DejaVuSans-31"/>
       <use xlink:href="#DejaVuSans-2e" x="63.623047"/>
       <use xlink:href="#DejaVuSans-42" x="95.410156"/>
       <use xlink:href="#DejaVuSans-2e" x="164.013672"/>
       <use xlink:href="#DejaVuSans-37" x="195.800781"/>
       <use xlink:href="#DejaVuSans-37" x="259.423828"/>
       <use xlink:href="#DejaVuSans-2e" x="323.046875"/>
       <use xlink:href="#DejaVuSans-31" x="354.833984"/>
       <use xlink:href="#DejaVuSans-2e" x="418.457031"/>
       <use xlink:href="#DejaVuSans-31" x="450.244141"/>
      </g>
     </g>
    </g>
    <g id="ytick_2">
     <g id="line2d_7">
      <g>
       <use xlink:href="#m87dd22e137" x="144" y="228.186269" style="stroke: #000000; stroke-width: 0.8"/>
      </g>
     </g>
     <g id="text_8">
      <!-- 1.B.77.1.10 -->
      <g transform="translate(79.251563 231.985487) scale(0.1 -0.1)">
       <use xlink:href="#DejaVuSans-31"/>
       <use xlink:href="#DejaVuSans-2e" x="63.623047"/>
       <use xlink:href="#DejaVuSans-42" x="95.410156"/>
       <use xlink:href="#DejaVuSans-2e" x="164.013672"/>
       <use xlink:href="#DejaVuSans-37" x="195.800781"/>
       <use xlink:href="#DejaVuSans-37" x="259.423828"/>
       <use xlink:href="#DejaVuSans-2e" x="323.046875"/>
       <use xlink:href="#DejaVuSans-31" x="354.833984"/>
       <use xlink:href="#DejaVuSans-2e" x="418.457031"/>
       <use xlink:href="#DejaVuSans-31" x="450.244141"/>
       <use xlink:href="#DejaVuSans-30" x="513.867188"/>
      </g>
     </g>
    </g>
    <g id="ytick_3">
     <g id="line2d_8">
      <g>
       <use xlink:href="#m87dd22e137" x="144" y="213.141493" style="stroke: #000000; stroke-width: 0.8"/>
      </g>
     </g>
     <g id="text_9">
      <!-- 1.B.77.1.2 -->
      <g transform="translate(85.614062 216.940711) scale(0.1 -0.1)">
       <use xlink:href="#DejaVuSans-31"/>
       <use xlink:href="#DejaVuSans-2e" x="63.623047"/>
       <use xlink:href="#DejaVuSans-42" x="95.410156"/>
       <use xlink:href="#DejaVuSans-2e" x="164.013672"/>
       <use xlink:href="#DejaVuSans-37" x="195.800781"/>
       <use xlink:href="#DejaVuSans-37" x="259.423828"/>
       <use xlink:href="#DejaVuSans-2e" x="323.046875"/>
       <use xlink:href="#DejaVuSans-31" x="354.833984"/>
       <use xlink:href="#DejaVuSans-2e" x="418.457031"/>
       <use xlink:href="#DejaVuSans-32" x="450.244141"/>
      </g>
     </g>
    </g>
    <g id="ytick_4">
     <g id="line2d_9">
      <g>
       <use xlink:href="#m87dd22e137" x="144" y="198.096716" style="stroke: #000000; stroke-width: 0.8"/>
      </g>
     </g>
     <g id="text_10">
      <!-- 1.B.77.1.3 -->
      <g transform="translate(85.614062 201.895935) scale(0.1 -0.1)">
       <use xlink:href="#DejaVuSans-31"/>
       <use xlink:href="#DejaVuSans-2e" x="63.623047"/>
       <use xlink:href="#DejaVuSans-42" x="95.410156"/>
       <use xlink:href="#DejaVuSans-2e" x="164.013672"/>
       <use xlink:href="#DejaVuSans-37" x="195.800781"/>
       <use xlink:href="#DejaVuSans-37" x="259.423828"/>
       <use xlink:href="#DejaVuSans-2e" x="323.046875"/>
       <use xlink:href="#DejaVuSans-31" x="354.833984"/>
       <use xlink:href="#DejaVuSans-2e" x="418.457031"/>
       <use xlink:href="#DejaVuSans-33" x="450.244141"/>
      </g>
     </g>
    </g>
    <g id="ytick_5">
     <g id="line2d_10">
      <g>
       <use xlink:href="#m87dd22e137" x="144" y="183.05194" style="stroke: #000000; stroke-width: 0.8"/>
      </g>
     </g>
     <g id="text_11">
      <!-- 1.B.77.1.4 -->
      <g transform="translate(85.614062 186.851159) scale(0.1 -0.1)">
       <use xlink:href="#DejaVuSans-31"/>
       <use xlink:href="#DejaVuSans-2e" x="63.623047"/>
       <use xlink:href="#DejaVuSans-42" x="95.410156"/>
       <use xlink:href="#DejaVuSans-2e" x="164.013672"/>
       <use xlink:href="#DejaVuSans-37" x="195.800781"/>
       <use xlink:href="#DejaVuSans-37" x="259.423828"/>
       <use xlink:href="#DejaVuSans-2e" x="323.046875"/>
       <use xlink:href="#DejaVuSans-31" x="354.833984"/>
       <use xlink:href="#DejaVuSans-2e" x="418.457031"/>
       <use xlink:href="#DejaVuSans-34" x="450.244141"/>
      </g>
     </g>
    </g>
    <g id="ytick_6">
     <g id="line2d_11">
      <g>
       <use xlink:href="#m87dd22e137" x="144" y="168.007164" style="stroke: #000000; stroke-width: 0.8"/>
      </g>
     </g>
     <g id="text_12">
      <!-- 1.B.77.1.5 -->
      <g transform="translate(85.614062 171.806383) scale(0.1 -0.1)">
       <use xlink:href="#DejaVuSans-31"/>
       <use xlink:href="#DejaVuSans-2e" x="63.623047"/>
       <use xlink:href="#DejaVuSans-42" x="95.410156"/>
       <use xlink:href="#DejaVuSans-2e" x="164.013672"/>
       <use xlink:href="#DejaVuSans-37" x="195.800781"/>
       <use xlink:href="#DejaVuSans-37" x="259.423828"/>
       <use xlink:href="#DejaVuSans-2e" x="323.046875"/>
       <use xlink:href="#DejaVuSans-31" x="354.833984"/>
       <use xlink:href="#DejaVuSans-2e" x="418.457031"/>
       <use xlink:href="#DejaVuSans-35" x="450.244141"/>
      </g>
     </g>
    </g>
    <g id="ytick_7">
     <g id="line2d_12">
      <g>
       <use xlink:href="#m87dd22e137" x="144" y="152.962388" style="stroke: #000000; stroke-width: 0.8"/>
      </g>
     </g>
     <g id="text_13">
      <!-- 1.B.77.1.6 -->
      <g transform="translate(85.614062 156.761607) scale(0.1 -0.1)">
       <defs>
        <path id="DejaVuSans-36" d="M 2113 2584 
Q 1688 2584 1439 2293 
Q 1191 2003 1191 1497 
Q 1191 994 1439 701 
Q 1688 409 2113 409 
Q 2538 409 2786 701 
Q 3034 994 3034 1497 
Q 3034 2003 2786 2293 
Q 2538 2584 2113 2584 
z
M 3366 4563 
L 3366 3988 
Q 3128 4100 2886 4159 
Q 2644 4219 2406 4219 
Q 1781 4219 1451 3797 
Q 1122 3375 1075 2522 
Q 1259 2794 1537 2939 
Q 1816 3084 2150 3084 
Q 2853 3084 3261 2657 
Q 3669 2231 3669 1497 
Q 3669 778 3244 343 
Q 2819 -91 2113 -91 
Q 1303 -91 875 529 
Q 447 1150 447 2328 
Q 447 3434 972 4092 
Q 1497 4750 2381 4750 
Q 2619 4750 2861 4703 
Q 3103 4656 3366 4563 
z
" transform="scale(0.015625)"/>
       </defs>
       <use xlink:href="#DejaVuSans-31"/>
       <use xlink:href="#DejaVuSans-2e" x="63.623047"/>
       <use xlink:href="#DejaVuSans-42" x="95.410156"/>
       <use xlink:href="#DejaVuSans-2e" x="164.013672"/>
       <use xlink:href="#DejaVuSans-37" x="195.800781"/>
       <use xlink:href="#DejaVuSans-37" x="259.423828"/>
       <use xlink:href="#DejaVuSans-2e" x="323.046875"/>
       <use xlink:href="#DejaVuSans-31" x="354.833984"/>
       <use xlink:href="#DejaVuSans-2e" x="418.457031"/>
       <use xlink:href="#DejaVuSans-36" x="450.244141"/>
      </g>
     </g>
    </g>
    <g id="ytick_8">
     <g id="line2d_13">
      <g>
       <use xlink:href="#m87dd22e137" x="144" y="137.917612" style="stroke: #000000; stroke-width: 0.8"/>
      </g>
     </g>
     <g id="text_14">
      <!-- 1.B.77.1.7 -->
      <g transform="translate(85.614062 141.716831) scale(0.1 -0.1)">
       <use xlink:href="#DejaVuSans-31"/>
       <use xlink:href="#DejaVuSans-2e" x="63.623047"/>
       <use xlink:href="#DejaVuSans-42" x="95.410156"/>
       <use xlink:href="#DejaVuSans-2e" x="164.013672"/>
       <use xlink:href="#DejaVuSans-37" x="195.800781"/>
       <use xlink:href="#DejaVuSans-37" x="259.423828"/>
       <use xlink:href="#DejaVuSans-2e" x="323.046875"/>
       <use xlink:href="#DejaVuSans-31" x="354.833984"/>
       <use xlink:href="#DejaVuSans-2e" x="418.457031"/>
       <use xlink:href="#DejaVuSans-37" x="450.244141"/>
      </g>
     </g>
    </g>
    <g id="ytick_9">
     <g id="line2d_14">
      <g>
       <use xlink:href="#m87dd22e137" x="144" y="122.872836" style="stroke: #000000; stroke-width: 0.8"/>
      </g>
     </g>
     <g id="text_15">
      <!-- 1.B.77.1.8 -->
      <g transform="translate(85.614062 126.672055) scale(0.1 -0.1)">
       <defs>
        <path id="DejaVuSans-38" d="M 2034 2216 
Q 1584 2216 1326 1975 
Q 1069 1734 1069 1313 
Q 1069 891 1326 650 
Q 1584 409 2034 409 
Q 2484 409 2743 651 
Q 3003 894 3003 1313 
Q 3003 1734 2745 1975 
Q 2488 2216 2034 2216 
z
M 1403 2484 
Q 997 2584 770 2862 
Q 544 3141 544 3541 
Q 544 4100 942 4425 
Q 1341 4750 2034 4750 
Q 2731 4750 3128 4425 
Q 3525 4100 3525 3541 
Q 3525 3141 3298 2862 
Q 3072 2584 2669 2484 
Q 3125 2378 3379 2068 
Q 3634 1759 3634 1313 
Q 3634 634 3220 271 
Q 2806 -91 2034 -91 
Q 1263 -91 848 271 
Q 434 634 434 1313 
Q 434 1759 690 2068 
Q 947 2378 1403 2484 
z
M 1172 3481 
Q 1172 3119 1398 2916 
Q 1625 2713 2034 2713 
Q 2441 2713 2670 2916 
Q 2900 3119 2900 3481 
Q 2900 3844 2670 4047 
Q 2441 4250 2034 4250 
Q 1625 4250 1398 4047 
Q 1172 3844 1172 3481 
z
" transform="scale(0.015625)"/>
       </defs>
       <use xlink:href="#DejaVuSans-31"/>
       <use xlink:href="#DejaVuSans-2e" x="63.623047"/>
       <use xlink:href="#DejaVuSans-42" x="95.410156"/>
       <use xlink:href="#DejaVuSans-2e" x="164.013672"/>
       <use xlink:href="#DejaVuSans-37" x="195.800781"/>
       <use xlink:href="#DejaVuSans-37" x="259.423828"/>
       <use xlink:href="#DejaVuSans-2e" x="323.046875"/>
       <use xlink:href="#DejaVuSans-31" x="354.833984"/>
       <use xlink:href="#DejaVuSans-2e" x="418.457031"/>
       <use xlink:href="#DejaVuSans-38" x="450.244141"/>
      </g>
     </g>
    </g>
    <g id="ytick_10">
     <g id="line2d_15">
      <g>
       <use xlink:href="#m87dd22e137" x="144" y="107.82806" style="stroke: #000000; stroke-width: 0.8"/>
      </g>
     </g>
     <g id="text_16">
      <!-- 1.B.77.1.9 -->
      <g transform="translate(85.614062 111.627278) scale(0.1 -0.1)">
       <defs>
        <path id="DejaVuSans-39" d="M 703 97 
L 703 672 
Q 941 559 1184 500 
Q 1428 441 1663 441 
Q 2288 441 2617 861 
Q 2947 1281 2994 2138 
Q 2813 1869 2534 1725 
Q 2256 1581 1919 1581 
Q 1219 1581 811 2004 
Q 403 2428 403 3163 
Q 403 3881 828 4315 
Q 1253 4750 1959 4750 
Q 2769 4750 3195 4129 
Q 3622 3509 3622 2328 
Q 3622 1225 3098 567 
Q 2575 -91 1691 -91 
Q 1453 -91 1209 -44 
Q 966 3 703 97 
z
M 1959 2075 
Q 2384 2075 2632 2365 
Q 2881 2656 2881 3163 
Q 2881 3666 2632 3958 
Q 2384 4250 1959 4250 
Q 1534 4250 1286 3958 
Q 1038 3666 1038 3163 
Q 1038 2656 1286 2365 
Q 1534 2075 1959 2075 
z
" transform="scale(0.015625)"/>
       </defs>
       <use xlink:href="#DejaVuSans-31"/>
       <use xlink:href="#DejaVuSans-2e" x="63.623047"/>
       <use xlink:href="#DejaVuSans-42" x="95.410156"/>
       <use xlink:href="#DejaVuSans-2e" x="164.013672"/>
       <use xlink:href="#DejaVuSans-37" x="195.800781"/>
       <use xlink:href="#DejaVuSans-37" x="259.423828"/>
       <use xlink:href="#DejaVuSans-2e" x="323.046875"/>
       <use xlink:href="#DejaVuSans-31" x="354.833984"/>
       <use xlink:href="#DejaVuSans-2e" x="418.457031"/>
       <use xlink:href="#DejaVuSans-39" x="450.244141"/>
      </g>
     </g>
    </g>
    <g id="ytick_11">
     <g id="line2d_16">
      <g>
       <use xlink:href="#m87dd22e137" x="144" y="92.783284" style="stroke: #000000; stroke-width: 0.8"/>
      </g>
     </g>
     <g id="text_17">
      <!-- 1.B.77.2.1 -->
      <g transform="translate(85.614062 96.582502) scale(0.1 -0.1)">
       <use xlink:href="#DejaVuSans-31"/>
       <use xlink:href="#DejaVuSans-2e" x="63.623047"/>
       <use xlink:href="#DejaVuSans-42" x="95.410156"/>
       <use xlink:href="#DejaVuSans-2e" x="164.013672"/>
       <use xlink:href="#DejaVuSans-37" x="195.800781"/>
       <use xlink:href="#DejaVuSans-37" x="259.423828"/>
       <use xlink:href="#DejaVuSans-2e" x="323.046875"/>
       <use xlink:href="#DejaVuSans-32" x="354.833984"/>
       <use xlink:href="#DejaVuSans-2e" x="418.457031"/>
       <use xlink:href="#DejaVuSans-31" x="450.244141"/>
      </g>
     </g>
    </g>
    <g id="ytick_12">
     <g id="line2d_17">
      <g>
       <use xlink:href="#m87dd22e137" x="144" y="77.738507" style="stroke: #000000; stroke-width: 0.8"/>
      </g>
     </g>
     <g id="text_18">
      <!-- 1.B.77.2.2 -->
      <g transform="translate(85.614062 81.537726) scale(0.1 -0.1)">
       <use xlink:href="#DejaVuSans-31"/>
       <use xlink:href="#DejaVuSans-2e" x="63.623047"/>
       <use xlink:href="#DejaVuSans-42" x="95.410156"/>
       <use xlink:href="#DejaVuSans-2e" x="164.013672"/>
       <use xlink:href="#DejaVuSans-37" x="195.800781"/>
       <use xlink:href="#DejaVuSans-37" x="259.423828"/>
       <use xlink:href="#DejaVuSans-2e" x="323.046875"/>
       <use xlink:href="#DejaVuSans-32" x="354.833984"/>
       <use xlink:href="#DejaVuSans-2e" x="418.457031"/>
       <use xlink:href="#DejaVuSans-32" x="450.244141"/>
      </g>
     </g>
    </g>
    <g id="ytick_13">
     <g id="line2d_18">
      <g>
       <use xlink:href="#m87dd22e137" x="144" y="62.693731" style="stroke: #000000; stroke-width: 0.8"/>
      </g>
     </g>
     <g id="text_19">
      <!-- 1.B.77.2.3 -->
      <g transform="translate(85.614062 66.49295) scale(0.1 -0.1)">
       <use xlink:href="#DejaVuSans-31"/>
       <use xlink:href="#DejaVuSans-2e" x="63.623047"/>
       <use xlink:href="#DejaVuSans-42" x="95.410156"/>
       <use xlink:href="#DejaVuSans-2e" x="164.013672"/>
       <use xlink:href="#DejaVuSans-37" x="195.800781"/>
       <use xlink:href="#DejaVuSans-37" x="259.423828"/>
       <use xlink:href="#DejaVuSans-2e" x="323.046875"/>
       <use xlink:href="#DejaVuSans-32" x="354.833984"/>
       <use xlink:href="#DejaVuSans-2e" x="418.457031"/>
       <use xlink:href="#DejaVuSans-33" x="450.244141"/>
      </g>
     </g>
    </g>
    <g id="ytick_14">
     <g id="line2d_19">
      <g>
       <use xlink:href="#m87dd22e137" x="144" y="47.648955" style="stroke: #000000; stroke-width: 0.8"/>
      </g>
     </g>
     <g id="text_20">
      <!-- 1.B.77.2.4 -->
      <g transform="translate(85.614062 51.448174) scale(0.1 -0.1)">
       <use xlink:href="#DejaVuSans-31"/>
       <use xlink:href="#DejaVuSans-2e" x="63.623047"/>
       <use xlink:href="#DejaVuSans-42" x="95.410156"/>
       <use xlink:href="#DejaVuSans-2e" x="164.013672"/>
       <use xlink:href="#DejaVuSans-37" x="195.800781"/>
       <use xlink:href="#DejaVuSans-37" x="259.423828"/>
       <use xlink:href="#DejaVuSans-2e" x="323.046875"/>
       <use xlink:href="#DejaVuSans-32" x="354.833984"/>
       <use xlink:href="#DejaVuSans-2e" x="418.457031"/>
       <use xlink:href="#DejaVuSans-34" x="450.244141"/>
      </g>
     </g>
    </g>
   </g>
   <g id="patch_59">
    <path d="M 144 256.32 
L 144 34.56 
" style="fill: none; stroke: #000000; stroke-width: 0.8; stroke-linejoin: miter; stroke-linecap: square"/>
   </g>
   <g id="patch_60">
    <path d="M 1036.8 256.32 
L 1036.8 34.56 
" style="fill: none; stroke: #000000; stroke-width: 0.8; stroke-linejoin: miter; stroke-linecap: square"/>
   </g>
   <g id="patch_61">
    <path d="M 144 256.32 
L 1036.8 256.32 
" style="fill: none; stroke: #000000; stroke-width: 0.8; stroke-linejoin: miter; stroke-linecap: square"/>
   </g>
   <g id="patch_62">
    <path d="M 144 34.56 
L 1036.8 34.56 
" style="fill: none; stroke: #000000; stroke-width: 0.8; stroke-linejoin: miter; stroke-linecap: square"/>
   </g>
   <g id="text_21">
    <!-- 1.B.77 Summary -->
    <g transform="translate(540.115312 28.56) scale(0.12 -0.12)">
     <defs>
      <path id="DejaVuSans-20" transform="scale(0.015625)"/>
      <path id="DejaVuSans-53" d="M 3425 4513 
L 3425 3897 
Q 3066 4069 2747 4153 
Q 2428 4238 2131 4238 
Q 1616 4238 1336 4038 
Q 1056 3838 1056 3469 
Q 1056 3159 1242 3001 
Q 1428 2844 1947 2747 
L 2328 2669 
Q 3034 2534 3370 2195 
Q 3706 1856 3706 1288 
Q 3706 609 3251 259 
Q 2797 -91 1919 -91 
Q 1588 -91 1214 -16 
Q 841 59 441 206 
L 441 856 
Q 825 641 1194 531 
Q 1563 422 1919 422 
Q 2459 422 2753 634 
Q 3047 847 3047 1241 
Q 3047 1584 2836 1778 
Q 2625 1972 2144 2069 
L 1759 2144 
Q 1053 2284 737 2584 
Q 422 2884 422 3419 
Q 422 4038 858 4394 
Q 1294 4750 2059 4750 
Q 2388 4750 2728 4690 
Q 3069 4631 3425 4513 
z
" transform="scale(0.015625)"/>
      <path id="DejaVuSans-6d" d="M 3328 2828 
Q 3544 3216 3844 3400 
Q 4144 3584 4550 3584 
Q 5097 3584 5394 3201 
Q 5691 2819 5691 2113 
L 5691 0 
L 5113 0 
L 5113 2094 
Q 5113 2597 4934 2840 
Q 4756 3084 4391 3084 
Q 3944 3084 3684 2787 
Q 3425 2491 3425 1978 
L 3425 0 
L 2847 0 
L 2847 2094 
Q 2847 2600 2669 2842 
Q 2491 3084 2119 3084 
Q 1678 3084 1418 2786 
Q 1159 2488 1159 1978 
L 1159 0 
L 581 0 
L 581 3500 
L 1159 3500 
L 1159 2956 
Q 1356 3278 1631 3431 
Q 1906 3584 2284 3584 
Q 2666 3584 2933 3390 
Q 3200 3197 3328 2828 
z
" transform="scale(0.015625)"/>
      <path id="DejaVuSans-72" d="M 2631 2963 
Q 2534 3019 2420 3045 
Q 2306 3072 2169 3072 
Q 1681 3072 1420 2755 
Q 1159 2438 1159 1844 
L 1159 0 
L 581 0 
L 581 3500 
L 1159 3500 
L 1159 2956 
Q 1341 3275 1631 3429 
Q 1922 3584 2338 3584 
Q 2397 3584 2469 3576 
Q 2541 3569 2628 3553 
L 2631 2963 
z
" transform="scale(0.015625)"/>
      <path id="DejaVuSans-79" d="M 2059 -325 
Q 1816 -950 1584 -1140 
Q 1353 -1331 966 -1331 
L 506 -1331 
L 506 -850 
L 844 -850 
Q 1081 -850 1212 -737 
Q 1344 -625 1503 -206 
L 1606 56 
L 191 3500 
L 800 3500 
L 1894 763 
L 2988 3500 
L 3597 3500 
L 2059 -325 
z
" transform="scale(0.015625)"/>
     </defs>
     <use xlink:href="#DejaVuSans-31"/>
     <use xlink:href="#DejaVuSans-2e" x="63.623047"/>
     <use xlink:href="#DejaVuSans-42" x="95.410156"/>
     <use xlink:href="#DejaVuSans-2e" x="164.013672"/>
     <use xlink:href="#DejaVuSans-37" x="195.800781"/>
     <use xlink:href="#DejaVuSans-37" x="259.423828"/>
     <use xlink:href="#DejaVuSans-20" x="323.046875"/>
     <use xlink:href="#DejaVuSans-53" x="354.833984"/>
     <use xlink:href="#DejaVuSans-75" x="418.310547"/>
     <use xlink:href="#DejaVuSans-6d" x="481.689453"/>
     <use xlink:href="#DejaVuSans-6d" x="579.101562"/>
     <use xlink:href="#DejaVuSans-61" x="676.513672"/>
     <use xlink:href="#DejaVuSans-72" x="737.792969"/>
     <use xlink:href="#DejaVuSans-79" x="778.90625"/>
    </g>
   </g>
  </g>
 </g>
 <defs>
  <clipPath id="p188546f92c">
   <rect x="144" y="34.56" width="892.8" height="221.76"/>
  </clipPath>
 </defs>
</svg>
