<?xml version="1.0" encoding="utf-8" standalone="no"?>
<!DOCTYPE svg PUBLIC "-//W3C//DTD SVG 1.1//EN"
  "http://www.w3.org/Graphics/SVG/1.1/DTD/svg11.dtd">
<svg xmlns:xlink="http://www.w3.org/1999/xlink" width="1152pt" height="280.8pt" viewBox="0 0 1152 280.8" xmlns="http://www.w3.org/2000/svg" version="1.1">
 <metadata>
  <rdf:RDF xmlns:dc="http://purl.org/dc/elements/1.1/" xmlns:cc="http://creativecommons.org/ns#" xmlns:rdf="http://www.w3.org/1999/02/22-rdf-syntax-ns#">
   <cc:Work>
    <dc:type rdf:resource="http://purl.org/dc/dcmitype/StillImage"/>
    <dc:date>2024-10-25T07:48:29.667797</dc:date>
    <dc:format>image/svg+xml</dc:format>
    <dc:creator>
     <cc:Agent>
      <dc:title>Matplotlib v3.9.2, https://matplotlib.org/</dc:title>
     </cc:Agent>
    </dc:creator>
   </cc:Work>
  </rdf:RDF>
 </metadata>
 <defs>
  <style type="text/css">*{stroke-linejoin: round; stroke-linecap: butt}</style>
 </defs>
 <g id="figure_1">
  <g id="patch_1">
   <path d="M 0 280.8 
L 1152 280.8 
L 1152 0 
L 0 0 
z
" style="fill: #ffffff"/>
  </g>
  <g id="axes_1">
   <g id="patch_2">
    <path d="M 144 249.912 
L 1036.8 249.912 
L 1036.8 33.696 
L 144 33.696 
z
" style="fill: #ffffff"/>
   </g>
   <g id="patch_3">
    <path d="M 144 236.5875 
L 179.767277 236.5875 
L 179.767277 236.0205 
L 144 236.0205 
z
" clip-path="url(#p553e0d3eb3)" style="fill: #0000ff"/>
   </g>
   <g id="patch_4">
    <path d="M 181.393062 240.084 
L 301.701175 240.084 
L 301.701175 232.524 
L 181.393062 232.524 
z
" clip-path="url(#p553e0d3eb3)" style="fill: #0000ff"/>
   </g>
   <g id="patch_5">
    <path d="M 144 217.6875 
L 176.515706 217.6875 
L 176.515706 217.1205 
L 144 217.1205 
z
" clip-path="url(#p553e0d3eb3)" style="fill: #0000ff"/>
   </g>
   <g id="patch_6">
    <path d="M 178.141491 221.184 
L 298.449604 221.184 
L 298.449604 213.624 
L 178.141491 213.624 
z
" clip-path="url(#p553e0d3eb3)" style="fill: #0000ff"/>
   </g>
   <g id="patch_7">
    <path d="M 144 198.7875 
L 186.270418 198.7875 
L 186.270418 198.2205 
L 144 198.2205 
z
" clip-path="url(#p553e0d3eb3)" style="fill: #0000ff"/>
   </g>
   <g id="patch_8">
    <path d="M 187.896203 202.284 
L 306.57853 202.284 
L 306.57853 194.724 
L 187.896203 194.724 
z
" clip-path="url(#p553e0d3eb3)" style="fill: #0000ff"/>
   </g>
   <g id="patch_9">
    <path d="M 144 179.8875 
L 178.141491 179.8875 
L 178.141491 179.3205 
L 144 179.3205 
z
" clip-path="url(#p553e0d3eb3)" style="fill: #0000ff"/>
   </g>
   <g id="patch_10">
    <path d="M 179.767277 183.384 
L 300.075389 183.384 
L 300.075389 175.824 
L 179.767277 175.824 
z
" clip-path="url(#p553e0d3eb3)" style="fill: #0000ff"/>
   </g>
   <g id="patch_11">
    <path d="M 144 160.9875 
L 174.889921 160.9875 
L 174.889921 160.4205 
L 144 160.4205 
z
" clip-path="url(#p553e0d3eb3)" style="fill: #0000ff"/>
   </g>
   <g id="patch_12">
    <path d="M 176.515706 164.484 
L 300.075389 164.484 
L 300.075389 156.924 
L 176.515706 156.924 
z
" clip-path="url(#p553e0d3eb3)" style="fill: #0000ff"/>
   </g>
   <g id="patch_13">
    <path d="M 144 142.0875 
L 174.889921 142.0875 
L 174.889921 141.5205 
L 144 141.5205 
z
" clip-path="url(#p553e0d3eb3)" style="fill: #0000ff"/>
   </g>
   <g id="patch_14">
    <path d="M 176.515706 145.584 
L 230.166621 145.584 
L 230.166621 138.024 
L 176.515706 138.024 
z
" clip-path="url(#p553e0d3eb3)" style="fill: #0000ff"/>
   </g>
   <g id="patch_15">
    <path d="M 179.767277 145.584 
L 230.166621 145.584 
L 230.166621 138.024 
L 179.767277 138.024 
z
" clip-path="url(#p553e0d3eb3)" style="fill: #0000ff"/>
   </g>
   <g id="patch_16">
    <path d="M 231.792406 142.0875 
L 239.921333 142.0875 
L 239.921333 141.5205 
L 231.792406 141.5205 
z
" clip-path="url(#p553e0d3eb3)" style="fill: #0000ff"/>
   </g>
   <g id="patch_17">
    <path d="M 241.547118 145.584 
L 366.732587 145.584 
L 366.732587 138.024 
L 241.547118 138.024 
z
" clip-path="url(#p553e0d3eb3)" style="fill: #0000ff"/>
   </g>
   <g id="patch_18">
    <path d="M 241.547118 145.584 
L 301.701175 145.584 
L 301.701175 138.024 
L 241.547118 138.024 
z
" clip-path="url(#p553e0d3eb3)" style="fill: #0000ff"/>
   </g>
   <g id="patch_19">
    <path d="M 314.707457 145.584 
L 366.732587 145.584 
L 366.732587 138.024 
L 314.707457 138.024 
z
" clip-path="url(#p553e0d3eb3)" style="fill: #0000ff"/>
   </g>
   <g id="patch_20">
    <path d="M 368.358372 142.0875 
L 459.402349 142.0875 
L 459.402349 141.5205 
L 368.358372 141.5205 
z
" clip-path="url(#p553e0d3eb3)" style="fill: #0000ff"/>
   </g>
   <g id="patch_21">
    <path d="M 461.028134 145.584 
L 582.962032 145.584 
L 582.962032 138.024 
L 461.028134 138.024 
z
" clip-path="url(#p553e0d3eb3)" style="fill: #0000ff"/>
   </g>
   <g id="patch_22">
    <path d="M 584.587818 142.0875 
L 652.8708 142.0875 
L 652.8708 141.5205 
L 584.587818 141.5205 
z
" clip-path="url(#p553e0d3eb3)" style="fill: #0000ff"/>
   </g>
   <g id="patch_23">
    <path d="M 654.496586 145.584 
L 773.178913 145.584 
L 773.178913 138.024 
L 654.496586 138.024 
z
" clip-path="url(#p553e0d3eb3)" style="fill: #0000ff"/>
   </g>
   <g id="patch_24">
    <path d="M 654.496586 145.584 
L 711.399071 145.584 
L 711.399071 138.024 
L 654.496586 138.024 
z
" clip-path="url(#p553e0d3eb3)" style="fill: #0000ff"/>
   </g>
   <g id="patch_25">
    <path d="M 722.779568 145.584 
L 773.178913 145.584 
L 773.178913 138.024 
L 722.779568 138.024 
z
" clip-path="url(#p553e0d3eb3)" style="fill: #0000ff"/>
   </g>
   <g id="patch_26">
    <path d="M 774.804698 142.0875 
L 804.068834 142.0875 
L 804.068834 141.5205 
L 774.804698 141.5205 
z
" clip-path="url(#p553e0d3eb3)" style="fill: #0000ff"/>
   </g>
   <g id="patch_27">
    <path d="M 805.694619 145.584 
L 926.002731 145.584 
L 926.002731 138.024 
L 805.694619 138.024 
z
" clip-path="url(#p553e0d3eb3)" style="fill: #0000ff"/>
   </g>
   <g id="patch_28">
    <path d="M 805.694619 145.584 
L 864.22289 145.584 
L 864.22289 138.024 
L 805.694619 138.024 
z
" clip-path="url(#p553e0d3eb3)" style="fill: #0000ff"/>
   </g>
   <g id="patch_29">
    <path d="M 875.603387 145.584 
L 926.002731 145.584 
L 926.002731 138.024 
L 875.603387 138.024 
z
" clip-path="url(#p553e0d3eb3)" style="fill: #0000ff"/>
   </g>
   <g id="patch_30">
    <path d="M 927.628517 142.0875 
L 939.009014 142.0875 
L 939.009014 141.5205 
L 927.628517 141.5205 
z
" clip-path="url(#p553e0d3eb3)" style="fill: #0000ff"/>
   </g>
   <g id="patch_31">
    <path d="M 940.634799 145.584 
L 994.285714 145.584 
L 994.285714 138.024 
L 940.634799 138.024 
z
" clip-path="url(#p553e0d3eb3)" style="fill: #0000ff"/>
   </g>
   <g id="patch_32">
    <path d="M 942.260585 145.584 
L 994.285714 145.584 
L 994.285714 138.024 
L 942.260585 138.024 
z
" clip-path="url(#p553e0d3eb3)" style="fill: #0000ff"/>
   </g>
   <g id="patch_33">
    <path d="M 144 123.1875 
L 184.644633 123.1875 
L 184.644633 122.6205 
L 144 122.6205 
z
" clip-path="url(#p553e0d3eb3)" style="fill: #0000ff"/>
   </g>
   <g id="patch_34">
    <path d="M 186.270418 126.684 
L 304.952745 126.684 
L 304.952745 119.124 
L 186.270418 119.124 
z
" clip-path="url(#p553e0d3eb3)" style="fill: #0000ff"/>
   </g>
   <g id="patch_35">
    <path d="M 254.553401 126.684 
L 304.952745 126.684 
L 304.952745 119.124 
L 254.553401 119.124 
z
" clip-path="url(#p553e0d3eb3)" style="fill: #0000ff"/>
   </g>
   <g id="patch_36">
    <path d="M 306.57853 123.1875 
L 397.622508 123.1875 
L 397.622508 122.6205 
L 306.57853 122.6205 
z
" clip-path="url(#p553e0d3eb3)" style="fill: #0000ff"/>
   </g>
   <g id="patch_37">
    <path d="M 144 104.2875 
L 212.282983 104.2875 
L 212.282983 103.7205 
L 144 103.7205 
z
" clip-path="url(#p553e0d3eb3)" style="fill: #0000ff"/>
   </g>
   <g id="patch_38">
    <path d="M 213.908768 107.784 
L 329.339525 107.784 
L 329.339525 100.224 
L 213.908768 100.224 
z
" clip-path="url(#p553e0d3eb3)" style="fill: #0000ff"/>
   </g>
   <g id="patch_39">
    <path d="M 330.96531 104.2875 
L 374.861513 104.2875 
L 374.861513 103.7205 
L 330.96531 103.7205 
z
" clip-path="url(#p553e0d3eb3)" style="fill: #0000ff"/>
   </g>
   <g id="patch_40">
    <path d="M 376.487299 107.784 
L 500.046982 107.784 
L 500.046982 100.224 
L 376.487299 100.224 
z
" clip-path="url(#p553e0d3eb3)" style="fill: #0000ff"/>
   </g>
   <g id="patch_41">
    <path d="M 376.487299 107.784 
L 438.26714 107.784 
L 438.26714 100.224 
L 376.487299 100.224 
z
" clip-path="url(#p553e0d3eb3)" style="fill: #0000ff"/>
   </g>
   <g id="patch_42">
    <path d="M 501.672767 104.2875 
L 555.323682 104.2875 
L 555.323682 103.7205 
L 501.672767 103.7205 
z
" clip-path="url(#p553e0d3eb3)" style="fill: #0000ff"/>
   </g>
   <g id="patch_43">
    <path d="M 144 85.3875 
L 218.786124 85.3875 
L 218.786124 84.8205 
L 144 84.8205 
z
" clip-path="url(#p553e0d3eb3)" style="fill: #0000ff"/>
   </g>
   <g id="patch_44">
    <path d="M 220.411909 88.884 
L 340.720022 88.884 
L 340.720022 81.324 
L 220.411909 81.324 
z
" clip-path="url(#p553e0d3eb3)" style="fill: #0000ff"/>
   </g>
   <g id="patch_45">
    <path d="M 342.345807 85.3875 
L 352.100519 85.3875 
L 352.100519 84.8205 
L 342.345807 84.8205 
z
" clip-path="url(#p553e0d3eb3)" style="fill: #0000ff"/>
   </g>
   <g id="patch_46">
    <path d="M 144 66.4875 
L 251.30183 66.4875 
L 251.30183 65.9205 
L 144 65.9205 
z
" clip-path="url(#p553e0d3eb3)" style="fill: #0000ff"/>
   </g>
   <g id="patch_47">
    <path d="M 252.927615 69.984 
L 366.732587 69.984 
L 366.732587 62.424 
L 252.927615 62.424 
z
" clip-path="url(#p553e0d3eb3)" style="fill: #0000ff"/>
   </g>
   <g id="patch_48">
    <path d="M 368.358372 66.4875 
L 378.113084 66.4875 
L 378.113084 65.9205 
L 368.358372 65.9205 
z
" clip-path="url(#p553e0d3eb3)" style="fill: #0000ff"/>
   </g>
   <g id="patch_49">
    <path d="M 144 47.5875 
L 178.141491 47.5875 
L 178.141491 47.0205 
L 144 47.0205 
z
" clip-path="url(#p553e0d3eb3)" style="fill: #0000ff"/>
   </g>
   <g id="patch_50">
    <path d="M 179.767277 51.084 
L 308.204316 51.084 
L 308.204316 43.524 
L 179.767277 43.524 
z
" clip-path="url(#p553e0d3eb3)" style="fill: #0000ff"/>
   </g>
   <g id="patch_51">
    <path d="M 309.830101 47.5875 
L 561.826823 47.5875 
L 561.826823 47.0205 
L 309.830101 47.0205 
z
" clip-path="url(#p553e0d3eb3)" style="fill: #0000ff"/>
   </g>
   <g id="matplotlib.axis_1">
    <g id="xtick_1">
     <g id="line2d_1">
      <defs>
       <path id="mbe167358da" d="M 0 0 
L 0 3.5 
" style="stroke: #000000; stroke-width: 0.8"/>
      </defs>
      <g>
       <use xlink:href="#mbe167358da" x="304.952745" y="249.912" style="stroke: #000000; stroke-width: 0.8"/>
      </g>
     </g>
     <g id="text_1">
      <!-- 100 -->
      <g transform="translate(295.408995 264.510438) scale(0.1 -0.1)">
       <defs>
        <path id="DejaVuSans-31" d="M 794 531 
L 1825 531 
L 1825 4091 
L 703 3866 
L 703 4441 
L 1819 4666 
L 2450 4666 
L 2450 531 
L 3481 531 
L 3481 0 
L 794 0 
L 794 531 
z
" transform="scale(0.015625)"/>
        <path id="DejaVuSans-30" d="M 2034 4250 
Q 1547 4250 1301 3770 
Q 1056 3291 1056 2328 
Q 1056 1369 1301 889 
Q 1547 409 2034 409 
Q 2525 409 2770 889 
Q 3016 1369 3016 2328 
Q 3016 3291 2770 3770 
Q 2525 4250 2034 4250 
z
M 2034 4750 
Q 2819 4750 3233 4129 
Q 3647 3509 3647 2328 
Q 3647 1150 3233 529 
Q 2819 -91 2034 -91 
Q 1250 -91 836 529 
Q 422 1150 422 2328 
Q 422 3509 836 4129 
Q 1250 4750 2034 4750 
z
" transform="scale(0.015625)"/>
       </defs>
       <use xlink:href="#DejaVuSans-31"/>
       <use xlink:href="#DejaVuSans-30" x="63.623047"/>
       <use xlink:href="#DejaVuSans-30" x="127.246094"/>
      </g>
     </g>
    </g>
    <g id="xtick_2">
     <g id="line2d_2">
      <g>
       <use xlink:href="#mbe167358da" x="467.531276" y="249.912" style="stroke: #000000; stroke-width: 0.8"/>
      </g>
     </g>
     <g id="text_2">
      <!-- 200 -->
      <g transform="translate(457.987526 264.510438) scale(0.1 -0.1)">
       <defs>
        <path id="DejaVuSans-32" d="M 1228 531 
L 3431 531 
L 3431 0 
L 469 0 
L 469 531 
Q 828 903 1448 1529 
Q 2069 2156 2228 2338 
Q 2531 2678 2651 2914 
Q 2772 3150 2772 3378 
Q 2772 3750 2511 3984 
Q 2250 4219 1831 4219 
Q 1534 4219 1204 4116 
Q 875 4013 500 3803 
L 500 4441 
Q 881 4594 1212 4672 
Q 1544 4750 1819 4750 
Q 2544 4750 2975 4387 
Q 3406 4025 3406 3419 
Q 3406 3131 3298 2873 
Q 3191 2616 2906 2266 
Q 2828 2175 2409 1742 
Q 1991 1309 1228 531 
z
" transform="scale(0.015625)"/>
       </defs>
       <use xlink:href="#DejaVuSans-32"/>
       <use xlink:href="#DejaVuSans-30" x="63.623047"/>
       <use xlink:href="#DejaVuSans-30" x="127.246094"/>
      </g>
     </g>
    </g>
    <g id="xtick_3">
     <g id="line2d_3">
      <g>
       <use xlink:href="#mbe167358da" x="630.109806" y="249.912" style="stroke: #000000; stroke-width: 0.8"/>
      </g>
     </g>
     <g id="text_3">
      <!-- 300 -->
      <g transform="translate(620.566056 264.510438) scale(0.1 -0.1)">
       <defs>
        <path id="DejaVuSans-33" d="M 2597 2516 
Q 3050 2419 3304 2112 
Q 3559 1806 3559 1356 
Q 3559 666 3084 287 
Q 2609 -91 1734 -91 
Q 1441 -91 1130 -33 
Q 819 25 488 141 
L 488 750 
Q 750 597 1062 519 
Q 1375 441 1716 441 
Q 2309 441 2620 675 
Q 2931 909 2931 1356 
Q 2931 1769 2642 2001 
Q 2353 2234 1838 2234 
L 1294 2234 
L 1294 2753 
L 1863 2753 
Q 2328 2753 2575 2939 
Q 2822 3125 2822 3475 
Q 2822 3834 2567 4026 
Q 2313 4219 1838 4219 
Q 1578 4219 1281 4162 
Q 984 4106 628 3988 
L 628 4550 
Q 988 4650 1302 4700 
Q 1616 4750 1894 4750 
Q 2613 4750 3031 4423 
Q 3450 4097 3450 3541 
Q 3450 3153 3228 2886 
Q 3006 2619 2597 2516 
z
" transform="scale(0.015625)"/>
       </defs>
       <use xlink:href="#DejaVuSans-33"/>
       <use xlink:href="#DejaVuSans-30" x="63.623047"/>
       <use xlink:href="#DejaVuSans-30" x="127.246094"/>
      </g>
     </g>
    </g>
    <g id="xtick_4">
     <g id="line2d_4">
      <g>
       <use xlink:href="#mbe167358da" x="792.688337" y="249.912" style="stroke: #000000; stroke-width: 0.8"/>
      </g>
     </g>
     <g id="text_4">
      <!-- 400 -->
      <g transform="translate(783.144587 264.510438) scale(0.1 -0.1)">
       <defs>
        <path id="DejaVuSans-34" d="M 2419 4116 
L 825 1625 
L 2419 1625 
L 2419 4116 
z
M 2253 4666 
L 3047 4666 
L 3047 1625 
L 3713 1625 
L 3713 1100 
L 3047 1100 
L 3047 0 
L 2419 0 
L 2419 1100 
L 313 1100 
L 313 1709 
L 2253 4666 
z
" transform="scale(0.015625)"/>
       </defs>
       <use xlink:href="#DejaVuSans-34"/>
       <use xlink:href="#DejaVuSans-30" x="63.623047"/>
       <use xlink:href="#DejaVuSans-30" x="127.246094"/>
      </g>
     </g>
    </g>
    <g id="xtick_5">
     <g id="line2d_5">
      <g>
       <use xlink:href="#mbe167358da" x="955.266867" y="249.912" style="stroke: #000000; stroke-width: 0.8"/>
      </g>
     </g>
     <g id="text_5">
      <!-- 500 -->
      <g transform="translate(945.723117 264.510438) scale(0.1 -0.1)">
       <defs>
        <path id="DejaVuSans-35" d="M 691 4666 
L 3169 4666 
L 3169 4134 
L 1269 4134 
L 1269 2991 
Q 1406 3038 1543 3061 
Q 1681 3084 1819 3084 
Q 2600 3084 3056 2656 
Q 3513 2228 3513 1497 
Q 3513 744 3044 326 
Q 2575 -91 1722 -91 
Q 1428 -91 1123 -41 
Q 819 9 494 109 
L 494 744 
Q 775 591 1075 516 
Q 1375 441 1709 441 
Q 2250 441 2565 725 
Q 2881 1009 2881 1497 
Q 2881 1984 2565 2268 
Q 2250 2553 1709 2553 
Q 1456 2553 1204 2497 
Q 953 2441 691 2322 
L 691 4666 
z
" transform="scale(0.015625)"/>
       </defs>
       <use xlink:href="#DejaVuSans-35"/>
       <use xlink:href="#DejaVuSans-30" x="63.623047"/>
       <use xlink:href="#DejaVuSans-30" x="127.246094"/>
      </g>
     </g>
    </g>
    <g id="text_6">
     <!-- Residual -->
     <g transform="translate(569.284375 278.188562) scale(0.1 -0.1)">
      <defs>
       <path id="DejaVuSans-52" d="M 2841 2188 
Q 3044 2119 3236 1894 
Q 3428 1669 3622 1275 
L 4263 0 
L 3584 0 
L 2988 1197 
Q 2756 1666 2539 1819 
Q 2322 1972 1947 1972 
L 1259 1972 
L 1259 0 
L 628 0 
L 628 4666 
L 2053 4666 
Q 2853 4666 3247 4331 
Q 3641 3997 3641 3322 
Q 3641 2881 3436 2590 
Q 3231 2300 2841 2188 
z
M 1259 4147 
L 1259 2491 
L 2053 2491 
Q 2509 2491 2742 2702 
Q 2975 2913 2975 3322 
Q 2975 3731 2742 3939 
Q 2509 4147 2053 4147 
L 1259 4147 
z
" transform="scale(0.015625)"/>
       <path id="DejaVuSans-65" d="M 3597 1894 
L 3597 1613 
L 953 1613 
Q 991 1019 1311 708 
Q 1631 397 2203 397 
Q 2534 397 2845 478 
Q 3156 559 3463 722 
L 3463 178 
Q 3153 47 2828 -22 
Q 2503 -91 2169 -91 
Q 1331 -91 842 396 
Q 353 884 353 1716 
Q 353 2575 817 3079 
Q 1281 3584 2069 3584 
Q 2775 3584 3186 3129 
Q 3597 2675 3597 1894 
z
M 3022 2063 
Q 3016 2534 2758 2815 
Q 2500 3097 2075 3097 
Q 1594 3097 1305 2825 
Q 1016 2553 972 2059 
L 3022 2063 
z
" transform="scale(0.015625)"/>
       <path id="DejaVuSans-73" d="M 2834 3397 
L 2834 2853 
Q 2591 2978 2328 3040 
Q 2066 3103 1784 3103 
Q 1356 3103 1142 2972 
Q 928 2841 928 2578 
Q 928 2378 1081 2264 
Q 1234 2150 1697 2047 
L 1894 2003 
Q 2506 1872 2764 1633 
Q 3022 1394 3022 966 
Q 3022 478 2636 193 
Q 2250 -91 1575 -91 
Q 1294 -91 989 -36 
Q 684 19 347 128 
L 347 722 
Q 666 556 975 473 
Q 1284 391 1588 391 
Q 1994 391 2212 530 
Q 2431 669 2431 922 
Q 2431 1156 2273 1281 
Q 2116 1406 1581 1522 
L 1381 1569 
Q 847 1681 609 1914 
Q 372 2147 372 2553 
Q 372 3047 722 3315 
Q 1072 3584 1716 3584 
Q 2034 3584 2315 3537 
Q 2597 3491 2834 3397 
z
" transform="scale(0.015625)"/>
       <path id="DejaVuSans-69" d="M 603 3500 
L 1178 3500 
L 1178 0 
L 603 0 
L 603 3500 
z
M 603 4863 
L 1178 4863 
L 1178 4134 
L 603 4134 
L 603 4863 
z
" transform="scale(0.015625)"/>
       <path id="DejaVuSans-64" d="M 2906 2969 
L 2906 4863 
L 3481 4863 
L 3481 0 
L 2906 0 
L 2906 525 
Q 2725 213 2448 61 
Q 2172 -91 1784 -91 
Q 1150 -91 751 415 
Q 353 922 353 1747 
Q 353 2572 751 3078 
Q 1150 3584 1784 3584 
Q 2172 3584 2448 3432 
Q 2725 3281 2906 2969 
z
M 947 1747 
Q 947 1113 1208 752 
Q 1469 391 1925 391 
Q 2381 391 2643 752 
Q 2906 1113 2906 1747 
Q 2906 2381 2643 2742 
Q 2381 3103 1925 3103 
Q 1469 3103 1208 2742 
Q 947 2381 947 1747 
z
" transform="scale(0.015625)"/>
       <path id="DejaVuSans-75" d="M 544 1381 
L 544 3500 
L 1119 3500 
L 1119 1403 
Q 1119 906 1312 657 
Q 1506 409 1894 409 
Q 2359 409 2629 706 
Q 2900 1003 2900 1516 
L 2900 3500 
L 3475 3500 
L 3475 0 
L 2900 0 
L 2900 538 
Q 2691 219 2414 64 
Q 2138 -91 1772 -91 
Q 1169 -91 856 284 
Q 544 659 544 1381 
z
M 1991 3584 
L 1991 3584 
z
" transform="scale(0.015625)"/>
       <path id="DejaVuSans-61" d="M 2194 1759 
Q 1497 1759 1228 1600 
Q 959 1441 959 1056 
Q 959 750 1161 570 
Q 1363 391 1709 391 
Q 2188 391 2477 730 
Q 2766 1069 2766 1631 
L 2766 1759 
L 2194 1759 
z
M 3341 1997 
L 3341 0 
L 2766 0 
L 2766 531 
Q 2569 213 2275 61 
Q 1981 -91 1556 -91 
Q 1019 -91 701 211 
Q 384 513 384 1019 
Q 384 1609 779 1909 
Q 1175 2209 1959 2209 
L 2766 2209 
L 2766 2266 
Q 2766 2663 2505 2880 
Q 2244 3097 1772 3097 
Q 1472 3097 1187 3025 
Q 903 2953 641 2809 
L 641 3341 
Q 956 3463 1253 3523 
Q 1550 3584 1831 3584 
Q 2591 3584 2966 3190 
Q 3341 2797 3341 1997 
z
" transform="scale(0.015625)"/>
       <path id="DejaVuSans-6c" d="M 603 4863 
L 1178 4863 
L 1178 0 
L 603 0 
L 603 4863 
z
" transform="scale(0.015625)"/>
      </defs>
      <use xlink:href="#DejaVuSans-52"/>
      <use xlink:href="#DejaVuSans-65" x="64.982422"/>
      <use xlink:href="#DejaVuSans-73" x="126.505859"/>
      <use xlink:href="#DejaVuSans-69" x="178.605469"/>
      <use xlink:href="#DejaVuSans-64" x="206.388672"/>
      <use xlink:href="#DejaVuSans-75" x="269.865234"/>
      <use xlink:href="#DejaVuSans-61" x="333.244141"/>
      <use xlink:href="#DejaVuSans-6c" x="394.523438"/>
     </g>
    </g>
   </g>
   <g id="matplotlib.axis_2">
    <g id="ytick_1">
     <g id="line2d_6">
      <defs>
       <path id="m5e7ea8b405" d="M 0 0 
L -3.5 0 
" style="stroke: #000000; stroke-width: 0.8"/>
      </defs>
      <g>
       <use xlink:href="#m5e7ea8b405" x="144" y="236.304" style="stroke: #000000; stroke-width: 0.8"/>
      </g>
     </g>
     <g id="text_7">
      <!-- 1.C.35.1.1 -->
      <g transform="translate(85.492188 240.103219) scale(0.1 -0.1)">
       <defs>
        <path id="DejaVuSans-2e" d="M 684 794 
L 1344 794 
L 1344 0 
L 684 0 
L 684 794 
z
" transform="scale(0.015625)"/>
        <path id="DejaVuSans-43" d="M 4122 4306 
L 4122 3641 
Q 3803 3938 3442 4084 
Q 3081 4231 2675 4231 
Q 1875 4231 1450 3742 
Q 1025 3253 1025 2328 
Q 1025 1406 1450 917 
Q 1875 428 2675 428 
Q 3081 428 3442 575 
Q 3803 722 4122 1019 
L 4122 359 
Q 3791 134 3420 21 
Q 3050 -91 2638 -91 
Q 1578 -91 968 557 
Q 359 1206 359 2328 
Q 359 3453 968 4101 
Q 1578 4750 2638 4750 
Q 3056 4750 3426 4639 
Q 3797 4528 4122 4306 
z
" transform="scale(0.015625)"/>
       </defs>
       <use xlink:href="#DejaVuSans-31"/>
       <use xlink:href="#DejaVuSans-2e" x="63.623047"/>
       <use xlink:href="#DejaVuSans-43" x="95.410156"/>
       <use xlink:href="#DejaVuSans-2e" x="165.234375"/>
       <use xlink:href="#DejaVuSans-33" x="197.021484"/>
       <use xlink:href="#DejaVuSans-35" x="260.644531"/>
       <use xlink:href="#DejaVuSans-2e" x="324.267578"/>
       <use xlink:href="#DejaVuSans-31" x="356.054688"/>
       <use xlink:href="#DejaVuSans-2e" x="419.677734"/>
       <use xlink:href="#DejaVuSans-31" x="451.464844"/>
      </g>
     </g>
    </g>
    <g id="ytick_2">
     <g id="line2d_7">
      <g>
       <use xlink:href="#m5e7ea8b405" x="144" y="217.404" style="stroke: #000000; stroke-width: 0.8"/>
      </g>
     </g>
     <g id="text_8">
      <!-- 1.C.35.1.2 -->
      <g transform="translate(85.492188 221.203219) scale(0.1 -0.1)">
       <use xlink:href="#DejaVuSans-31"/>
       <use xlink:href="#DejaVuSans-2e" x="63.623047"/>
       <use xlink:href="#DejaVuSans-43" x="95.410156"/>
       <use xlink:href="#DejaVuSans-2e" x="165.234375"/>
       <use xlink:href="#DejaVuSans-33" x="197.021484"/>
       <use xlink:href="#DejaVuSans-35" x="260.644531"/>
       <use xlink:href="#DejaVuSans-2e" x="324.267578"/>
       <use xlink:href="#DejaVuSans-31" x="356.054688"/>
       <use xlink:href="#DejaVuSans-2e" x="419.677734"/>
       <use xlink:href="#DejaVuSans-32" x="451.464844"/>
      </g>
     </g>
    </g>
    <g id="ytick_3">
     <g id="line2d_8">
      <g>
       <use xlink:href="#m5e7ea8b405" x="144" y="198.504" style="stroke: #000000; stroke-width: 0.8"/>
      </g>
     </g>
     <g id="text_9">
      <!-- 1.C.35.1.3 -->
      <g transform="translate(85.492188 202.303219) scale(0.1 -0.1)">
       <use xlink:href="#DejaVuSans-31"/>
       <use xlink:href="#DejaVuSans-2e" x="63.623047"/>
       <use xlink:href="#DejaVuSans-43" x="95.410156"/>
       <use xlink:href="#DejaVuSans-2e" x="165.234375"/>
       <use xlink:href="#DejaVuSans-33" x="197.021484"/>
       <use xlink:href="#DejaVuSans-35" x="260.644531"/>
       <use xlink:href="#DejaVuSans-2e" x="324.267578"/>
       <use xlink:href="#DejaVuSans-31" x="356.054688"/>
       <use xlink:href="#DejaVuSans-2e" x="419.677734"/>
       <use xlink:href="#DejaVuSans-33" x="451.464844"/>
      </g>
     </g>
    </g>
    <g id="ytick_4">
     <g id="line2d_9">
      <g>
       <use xlink:href="#m5e7ea8b405" x="144" y="179.604" style="stroke: #000000; stroke-width: 0.8"/>
      </g>
     </g>
     <g id="text_10">
      <!-- 1.C.35.1.4 -->
      <g transform="translate(85.492188 183.403219) scale(0.1 -0.1)">
       <use xlink:href="#DejaVuSans-31"/>
       <use xlink:href="#DejaVuSans-2e" x="63.623047"/>
       <use xlink:href="#DejaVuSans-43" x="95.410156"/>
       <use xlink:href="#DejaVuSans-2e" x="165.234375"/>
       <use xlink:href="#DejaVuSans-33" x="197.021484"/>
       <use xlink:href="#DejaVuSans-35" x="260.644531"/>
       <use xlink:href="#DejaVuSans-2e" x="324.267578"/>
       <use xlink:href="#DejaVuSans-31" x="356.054688"/>
       <use xlink:href="#DejaVuSans-2e" x="419.677734"/>
       <use xlink:href="#DejaVuSans-34" x="451.464844"/>
      </g>
     </g>
    </g>
    <g id="ytick_5">
     <g id="line2d_10">
      <g>
       <use xlink:href="#m5e7ea8b405" x="144" y="160.704" style="stroke: #000000; stroke-width: 0.8"/>
      </g>
     </g>
     <g id="text_11">
      <!-- 1.C.35.1.5 -->
      <g transform="translate(85.492188 164.503219) scale(0.1 -0.1)">
       <use xlink:href="#DejaVuSans-31"/>
       <use xlink:href="#DejaVuSans-2e" x="63.623047"/>
       <use xlink:href="#DejaVuSans-43" x="95.410156"/>
       <use xlink:href="#DejaVuSans-2e" x="165.234375"/>
       <use xlink:href="#DejaVuSans-33" x="197.021484"/>
       <use xlink:href="#DejaVuSans-35" x="260.644531"/>
       <use xlink:href="#DejaVuSans-2e" x="324.267578"/>
       <use xlink:href="#DejaVuSans-31" x="356.054688"/>
       <use xlink:href="#DejaVuSans-2e" x="419.677734"/>
       <use xlink:href="#DejaVuSans-35" x="451.464844"/>
      </g>
     </g>
    </g>
    <g id="ytick_6">
     <g id="line2d_11">
      <g>
       <use xlink:href="#m5e7ea8b405" x="144" y="141.804" style="stroke: #000000; stroke-width: 0.8"/>
      </g>
     </g>
     <g id="text_12">
      <!-- 1.C.35.2.1 -->
      <g transform="translate(85.492188 145.603219) scale(0.1 -0.1)">
       <use xlink:href="#DejaVuSans-31"/>
       <use xlink:href="#DejaVuSans-2e" x="63.623047"/>
       <use xlink:href="#DejaVuSans-43" x="95.410156"/>
       <use xlink:href="#DejaVuSans-2e" x="165.234375"/>
       <use xlink:href="#DejaVuSans-33" x="197.021484"/>
       <use xlink:href="#DejaVuSans-35" x="260.644531"/>
       <use xlink:href="#DejaVuSans-2e" x="324.267578"/>
       <use xlink:href="#DejaVuSans-32" x="356.054688"/>
       <use xlink:href="#DejaVuSans-2e" x="419.677734"/>
       <use xlink:href="#DejaVuSans-31" x="451.464844"/>
      </g>
     </g>
    </g>
    <g id="ytick_7">
     <g id="line2d_12">
      <g>
       <use xlink:href="#m5e7ea8b405" x="144" y="122.904" style="stroke: #000000; stroke-width: 0.8"/>
      </g>
     </g>
     <g id="text_13">
      <!-- 1.C.35.2.2 -->
      <g transform="translate(85.492188 126.703219) scale(0.1 -0.1)">
       <use xlink:href="#DejaVuSans-31"/>
       <use xlink:href="#DejaVuSans-2e" x="63.623047"/>
       <use xlink:href="#DejaVuSans-43" x="95.410156"/>
       <use xlink:href="#DejaVuSans-2e" x="165.234375"/>
       <use xlink:href="#DejaVuSans-33" x="197.021484"/>
       <use xlink:href="#DejaVuSans-35" x="260.644531"/>
       <use xlink:href="#DejaVuSans-2e" x="324.267578"/>
       <use xlink:href="#DejaVuSans-32" x="356.054688"/>
       <use xlink:href="#DejaVuSans-2e" x="419.677734"/>
       <use xlink:href="#DejaVuSans-32" x="451.464844"/>
      </g>
     </g>
    </g>
    <g id="ytick_8">
     <g id="line2d_13">
      <g>
       <use xlink:href="#m5e7ea8b405" x="144" y="104.004" style="stroke: #000000; stroke-width: 0.8"/>
      </g>
     </g>
     <g id="text_14">
      <!-- 1.C.35.2.3 -->
      <g transform="translate(85.492188 107.803219) scale(0.1 -0.1)">
       <use xlink:href="#DejaVuSans-31"/>
       <use xlink:href="#DejaVuSans-2e" x="63.623047"/>
       <use xlink:href="#DejaVuSans-43" x="95.410156"/>
       <use xlink:href="#DejaVuSans-2e" x="165.234375"/>
       <use xlink:href="#DejaVuSans-33" x="197.021484"/>
       <use xlink:href="#DejaVuSans-35" x="260.644531"/>
       <use xlink:href="#DejaVuSans-2e" x="324.267578"/>
       <use xlink:href="#DejaVuSans-32" x="356.054688"/>
       <use xlink:href="#DejaVuSans-2e" x="419.677734"/>
       <use xlink:href="#DejaVuSans-33" x="451.464844"/>
      </g>
     </g>
    </g>
    <g id="ytick_9">
     <g id="line2d_14">
      <g>
       <use xlink:href="#m5e7ea8b405" x="144" y="85.104" style="stroke: #000000; stroke-width: 0.8"/>
      </g>
     </g>
     <g id="text_15">
      <!-- 1.C.35.3.1 -->
      <g transform="translate(85.492188 88.903219) scale(0.1 -0.1)">
       <use xlink:href="#DejaVuSans-31"/>
       <use xlink:href="#DejaVuSans-2e" x="63.623047"/>
       <use xlink:href="#DejaVuSans-43" x="95.410156"/>
       <use xlink:href="#DejaVuSans-2e" x="165.234375"/>
       <use xlink:href="#DejaVuSans-33" x="197.021484"/>
       <use xlink:href="#DejaVuSans-35" x="260.644531"/>
       <use xlink:href="#DejaVuSans-2e" x="324.267578"/>
       <use xlink:href="#DejaVuSans-33" x="356.054688"/>
       <use xlink:href="#DejaVuSans-2e" x="419.677734"/>
       <use xlink:href="#DejaVuSans-31" x="451.464844"/>
      </g>
     </g>
    </g>
    <g id="ytick_10">
     <g id="line2d_15">
      <g>
       <use xlink:href="#m5e7ea8b405" x="144" y="66.204" style="stroke: #000000; stroke-width: 0.8"/>
      </g>
     </g>
     <g id="text_16">
      <!-- 1.C.35.3.2 -->
      <g transform="translate(85.492188 70.003219) scale(0.1 -0.1)">
       <use xlink:href="#DejaVuSans-31"/>
       <use xlink:href="#DejaVuSans-2e" x="63.623047"/>
       <use xlink:href="#DejaVuSans-43" x="95.410156"/>
       <use xlink:href="#DejaVuSans-2e" x="165.234375"/>
       <use xlink:href="#DejaVuSans-33" x="197.021484"/>
       <use xlink:href="#DejaVuSans-35" x="260.644531"/>
       <use xlink:href="#DejaVuSans-2e" x="324.267578"/>
       <use xlink:href="#DejaVuSans-33" x="356.054688"/>
       <use xlink:href="#DejaVuSans-2e" x="419.677734"/>
       <use xlink:href="#DejaVuSans-32" x="451.464844"/>
      </g>
     </g>
    </g>
    <g id="ytick_11">
     <g id="line2d_16">
      <g>
       <use xlink:href="#m5e7ea8b405" x="144" y="47.304" style="stroke: #000000; stroke-width: 0.8"/>
      </g>
     </g>
     <g id="text_17">
      <!-- 1.C.35.4.1 -->
      <g transform="translate(85.492188 51.103219) scale(0.1 -0.1)">
       <use xlink:href="#DejaVuSans-31"/>
       <use xlink:href="#DejaVuSans-2e" x="63.623047"/>
       <use xlink:href="#DejaVuSans-43" x="95.410156"/>
       <use xlink:href="#DejaVuSans-2e" x="165.234375"/>
       <use xlink:href="#DejaVuSans-33" x="197.021484"/>
       <use xlink:href="#DejaVuSans-35" x="260.644531"/>
       <use xlink:href="#DejaVuSans-2e" x="324.267578"/>
       <use xlink:href="#DejaVuSans-34" x="356.054688"/>
       <use xlink:href="#DejaVuSans-2e" x="419.677734"/>
       <use xlink:href="#DejaVuSans-31" x="451.464844"/>
      </g>
     </g>
    </g>
   </g>
   <g id="patch_52">
    <path d="M 144 249.912 
L 144 33.696 
" style="fill: none; stroke: #000000; stroke-width: 0.8; stroke-linejoin: miter; stroke-linecap: square"/>
   </g>
   <g id="patch_53">
    <path d="M 1036.8 249.912 
L 1036.8 33.696 
" style="fill: none; stroke: #000000; stroke-width: 0.8; stroke-linejoin: miter; stroke-linecap: square"/>
   </g>
   <g id="patch_54">
    <path d="M 144 249.912 
L 1036.8 249.912 
" style="fill: none; stroke: #000000; stroke-width: 0.8; stroke-linejoin: miter; stroke-linecap: square"/>
   </g>
   <g id="patch_55">
    <path d="M 144 33.696 
L 1036.8 33.696 
" style="fill: none; stroke: #000000; stroke-width: 0.8; stroke-linejoin: miter; stroke-linecap: square"/>
   </g>
   <g id="text_18">
    <!-- 1.C.35 Summary -->
    <g transform="translate(540.042187 27.696) scale(0.12 -0.12)">
     <defs>
      <path id="DejaVuSans-20" transform="scale(0.015625)"/>
      <path id="DejaVuSans-53" d="M 3425 4513 
L 3425 3897 
Q 3066 4069 2747 4153 
Q 2428 4238 2131 4238 
Q 1616 4238 1336 4038 
Q 1056 3838 1056 3469 
Q 1056 3159 1242 3001 
Q 1428 2844 1947 2747 
L 2328 2669 
Q 3034 2534 3370 2195 
Q 3706 1856 3706 1288 
Q 3706 609 3251 259 
Q 2797 -91 1919 -91 
Q 1588 -91 1214 -16 
Q 841 59 441 206 
L 441 856 
Q 825 641 1194 531 
Q 1563 422 1919 422 
Q 2459 422 2753 634 
Q 3047 847 3047 1241 
Q 3047 1584 2836 1778 
Q 2625 1972 2144 2069 
L 1759 2144 
Q 1053 2284 737 2584 
Q 422 2884 422 3419 
Q 422 4038 858 4394 
Q 1294 4750 2059 4750 
Q 2388 4750 2728 4690 
Q 3069 4631 3425 4513 
z
" transform="scale(0.015625)"/>
      <path id="DejaVuSans-6d" d="M 3328 2828 
Q 3544 3216 3844 3400 
Q 4144 3584 4550 3584 
Q 5097 3584 5394 3201 
Q 5691 2819 5691 2113 
L 5691 0 
L 5113 0 
L 5113 2094 
Q 5113 2597 4934 2840 
Q 4756 3084 4391 3084 
Q 3944 3084 3684 2787 
Q 3425 2491 3425 1978 
L 3425 0 
L 2847 0 
L 2847 2094 
Q 2847 2600 2669 2842 
Q 2491 3084 2119 3084 
Q 1678 3084 1418 2786 
Q 1159 2488 1159 1978 
L 1159 0 
L 581 0 
L 581 3500 
L 1159 3500 
L 1159 2956 
Q 1356 3278 1631 3431 
Q 1906 3584 2284 3584 
Q 2666 3584 2933 3390 
Q 3200 3197 3328 2828 
z
" transform="scale(0.015625)"/>
      <path id="DejaVuSans-72" d="M 2631 2963 
Q 2534 3019 2420 3045 
Q 2306 3072 2169 3072 
Q 1681 3072 1420 2755 
Q 1159 2438 1159 1844 
L 1159 0 
L 581 0 
L 581 3500 
L 1159 3500 
L 1159 2956 
Q 1341 3275 1631 3429 
Q 1922 3584 2338 3584 
Q 2397 3584 2469 3576 
Q 2541 3569 2628 3553 
L 2631 2963 
z
" transform="scale(0.015625)"/>
      <path id="DejaVuSans-79" d="M 2059 -325 
Q 1816 -950 1584 -1140 
Q 1353 -1331 966 -1331 
L 506 -1331 
L 506 -850 
L 844 -850 
Q 1081 -850 1212 -737 
Q 1344 -625 1503 -206 
L 1606 56 
L 191 3500 
L 800 3500 
L 1894 763 
L 2988 3500 
L 3597 3500 
L 2059 -325 
z
" transform="scale(0.015625)"/>
     </defs>
     <use xlink:href="#DejaVuSans-31"/>
     <use xlink:href="#DejaVuSans-2e" x="63.623047"/>
     <use xlink:href="#DejaVuSans-43" x="95.410156"/>
     <use xlink:href="#DejaVuSans-2e" x="165.234375"/>
     <use xlink:href="#DejaVuSans-33" x="197.021484"/>
     <use xlink:href="#DejaVuSans-35" x="260.644531"/>
     <use xlink:href="#DejaVuSans-20" x="324.267578"/>
     <use xlink:href="#DejaVuSans-53" x="356.054688"/>
     <use xlink:href="#DejaVuSans-75" x="419.53125"/>
     <use xlink:href="#DejaVuSans-6d" x="482.910156"/>
     <use xlink:href="#DejaVuSans-6d" x="580.322266"/>
     <use xlink:href="#DejaVuSans-61" x="677.734375"/>
     <use xlink:href="#DejaVuSans-72" x="739.013672"/>
     <use xlink:href="#DejaVuSans-79" x="780.126953"/>
    </g>
   </g>
  </g>
 </g>
 <defs>
  <clipPath id="p553e0d3eb3">
   <rect x="144" y="33.696" width="892.8" height="216.216"/>
  </clipPath>
 </defs>
</svg>
