<?xml version="1.0" encoding="utf-8" standalone="no"?>
<!DOCTYPE svg PUBLIC "-//W3C//DTD SVG 1.1//EN"
  "http://www.w3.org/Graphics/SVG/1.1/DTD/svg11.dtd">
<svg xmlns:xlink="http://www.w3.org/1999/xlink" width="1152pt" height="367.2pt" viewBox="0 0 1152 367.2" xmlns="http://www.w3.org/2000/svg" version="1.1">
 <metadata>
  <rdf:RDF xmlns:dc="http://purl.org/dc/elements/1.1/" xmlns:cc="http://creativecommons.org/ns#" xmlns:rdf="http://www.w3.org/1999/02/22-rdf-syntax-ns#">
   <cc:Work>
    <dc:type rdf:resource="http://purl.org/dc/dcmitype/StillImage"/>
    <dc:date>2024-10-25T07:47:31.185503</dc:date>
    <dc:format>image/svg+xml</dc:format>
    <dc:creator>
     <cc:Agent>
      <dc:title>Matplotlib v3.9.2, https://matplotlib.org/</dc:title>
     </cc:Agent>
    </dc:creator>
   </cc:Work>
  </rdf:RDF>
 </metadata>
 <defs>
  <style type="text/css">*{stroke-linejoin: round; stroke-linecap: butt}</style>
 </defs>
 <g id="figure_1">
  <g id="patch_1">
   <path d="M 0 367.2 
L 1152 367.2 
L 1152 0 
L 0 0 
z
" style="fill: #ffffff"/>
  </g>
  <g id="axes_1">
   <g id="patch_2">
    <path d="M 144 326.808 
L 1036.8 326.808 
L 1036.8 44.064 
L 144 44.064 
z
" style="fill: #ffffff"/>
   </g>
   <g id="patch_3">
    <path d="M 144 310.65375 
L 146.86581 310.65375 
L 146.86581 310.11825 
L 144 310.11825 
z
" clip-path="url(#padc1044cd4)" style="fill: #0000ff"/>
   </g>
   <g id="patch_4">
    <path d="M 147.152391 313.956 
L 197.59064 313.956 
L 197.59064 306.816 
L 147.152391 306.816 
z
" clip-path="url(#padc1044cd4)" style="fill: #0000ff"/>
   </g>
   <g id="patch_5">
    <path d="M 197.877221 310.65375 
L 297.034234 310.65375 
L 297.034234 310.11825 
L 197.877221 310.11825 
z
" clip-path="url(#padc1044cd4)" style="fill: #0000ff"/>
   </g>
   <g id="patch_6">
    <path d="M 297.320815 313.956 
L 330.850787 313.956 
L 330.850787 306.816 
L 297.320815 306.816 
z
" clip-path="url(#padc1044cd4)" style="fill: #0000ff"/>
   </g>
   <g id="patch_7">
    <path d="M 331.137368 310.65375 
L 369.825798 310.65375 
L 369.825798 310.11825 
L 331.137368 310.11825 
z
" clip-path="url(#padc1044cd4)" style="fill: #0000ff"/>
   </g>
   <g id="patch_8">
    <path d="M 144 292.80375 
L 146.86581 292.80375 
L 146.86581 292.26825 
L 144 292.26825 
z
" clip-path="url(#padc1044cd4)" style="fill: #0000ff"/>
   </g>
   <g id="patch_9">
    <path d="M 147.152391 296.106 
L 197.59064 296.106 
L 197.59064 288.966 
L 147.152391 288.966 
z
" clip-path="url(#padc1044cd4)" style="fill: #0000ff"/>
   </g>
   <g id="patch_10">
    <path d="M 197.877221 292.80375 
L 299.326881 292.80375 
L 299.326881 292.26825 
L 197.877221 292.26825 
z
" clip-path="url(#padc1044cd4)" style="fill: #0000ff"/>
   </g>
   <g id="patch_11">
    <path d="M 299.613462 296.106 
L 333.143435 296.106 
L 333.143435 288.966 
L 299.613462 288.966 
z
" clip-path="url(#padc1044cd4)" style="fill: #0000ff"/>
   </g>
   <g id="patch_12">
    <path d="M 333.430016 292.80375 
L 373.837932 292.80375 
L 373.837932 292.26825 
L 333.430016 292.26825 
z
" clip-path="url(#padc1044cd4)" style="fill: #0000ff"/>
   </g>
   <g id="patch_13">
    <path d="M 144 274.95375 
L 306.491405 274.95375 
L 306.491405 274.41825 
L 144 274.41825 
z
" clip-path="url(#padc1044cd4)" style="fill: #0000ff"/>
   </g>
   <g id="patch_14">
    <path d="M 306.777986 278.256 
L 345.752997 278.256 
L 345.752997 271.116 
L 306.777986 271.116 
z
" clip-path="url(#padc1044cd4)" style="fill: #0000ff"/>
   </g>
   <g id="patch_15">
    <path d="M 346.039578 274.95375 
L 405.361837 274.95375 
L 405.361837 274.41825 
L 346.039578 274.41825 
z
" clip-path="url(#padc1044cd4)" style="fill: #0000ff"/>
   </g>
   <g id="patch_16">
    <path d="M 405.648418 278.256 
L 438.318648 278.256 
L 438.318648 271.116 
L 405.648418 271.116 
z
" clip-path="url(#padc1044cd4)" style="fill: #0000ff"/>
   </g>
   <g id="patch_17">
    <path d="M 405.934999 278.256 
L 422.556695 278.256 
L 422.556695 271.116 
L 405.934999 271.116 
z
" clip-path="url(#padc1044cd4)" style="fill: #0000ff"/>
   </g>
   <g id="patch_18">
    <path d="M 438.605229 274.95375 
L 443.190524 274.95375 
L 443.190524 274.41825 
L 438.605229 274.41825 
z
" clip-path="url(#padc1044cd4)" style="fill: #0000ff"/>
   </g>
   <g id="patch_19">
    <path d="M 443.477105 278.256 
L 460.958544 278.256 
L 460.958544 271.116 
L 443.477105 271.116 
z
" clip-path="url(#padc1044cd4)" style="fill: #0000ff"/>
   </g>
   <g id="patch_20">
    <path d="M 443.763686 278.256 
L 477.58024 278.256 
L 477.58024 271.116 
L 443.763686 271.116 
z
" clip-path="url(#padc1044cd4)" style="fill: #0000ff"/>
   </g>
   <g id="patch_21">
    <path d="M 477.866821 274.95375 
L 481.592373 274.95375 
L 481.592373 274.41825 
L 477.866821 274.41825 
z
" clip-path="url(#padc1044cd4)" style="fill: #0000ff"/>
   </g>
   <g id="patch_22">
    <path d="M 144 257.10375 
L 150.304781 257.10375 
L 150.304781 256.56825 
L 144 256.56825 
z
" clip-path="url(#padc1044cd4)" style="fill: #0000ff"/>
   </g>
   <g id="patch_23">
    <path d="M 150.591362 260.406 
L 450.641629 260.406 
L 450.641629 253.266 
L 150.591362 253.266 
z
" clip-path="url(#padc1044cd4)" style="fill: #0000ff"/>
   </g>
   <g id="patch_24">
    <path d="M 172.944677 260.406 
L 246.022822 260.406 
L 246.022822 253.266 
L 172.944677 253.266 
z
" clip-path="url(#padc1044cd4)" style="fill: #0000ff"/>
   </g>
   <g id="patch_25">
    <path d="M 173.80442 260.406 
L 433.733353 260.406 
L 433.733353 253.266 
L 173.80442 253.266 
z
" clip-path="url(#padc1044cd4)" style="fill: #0000ff"/>
   </g>
   <g id="patch_26">
    <path d="M 206.188069 260.406 
L 433.446772 260.406 
L 433.446772 253.266 
L 206.188069 253.266 
z
" clip-path="url(#padc1044cd4)" style="fill: #0000ff"/>
   </g>
   <g id="patch_27">
    <path d="M 247.169146 260.406 
L 420.550628 260.406 
L 420.550628 253.266 
L 247.169146 253.266 
z
" clip-path="url(#padc1044cd4)" style="fill: #0000ff"/>
   </g>
   <g id="patch_28">
    <path d="M 251.467861 260.406 
L 313.082768 260.406 
L 313.082768 253.266 
L 251.467861 253.266 
z
" clip-path="url(#padc1044cd4)" style="fill: #0000ff"/>
   </g>
   <g id="patch_29">
    <path d="M 257.772642 260.406 
L 422.556695 260.406 
L 422.556695 253.266 
L 257.772642 253.266 
z
" clip-path="url(#padc1044cd4)" style="fill: #0000ff"/>
   </g>
   <g id="patch_30">
    <path d="M 450.92821 257.10375 
L 453.507439 257.10375 
L 453.507439 256.56825 
L 450.92821 256.56825 
z
" clip-path="url(#padc1044cd4)" style="fill: #0000ff"/>
   </g>
   <g id="patch_31">
    <path d="M 144 239.25375 
L 213.066012 239.25375 
L 213.066012 238.71825 
L 144 238.71825 
z
" clip-path="url(#padc1044cd4)" style="fill: #0000ff"/>
   </g>
   <g id="patch_32">
    <path d="M 213.352593 242.556 
L 926.939188 242.556 
L 926.939188 235.416 
L 213.352593 235.416 
z
" clip-path="url(#padc1044cd4)" style="fill: #0000ff"/>
   </g>
   <g id="patch_33">
    <path d="M 481.019211 242.556 
L 993.712552 242.556 
L 993.712552 235.416 
L 481.019211 235.416 
z
" clip-path="url(#padc1044cd4)" style="fill: #0000ff"/>
   </g>
   <g id="patch_34">
    <path d="M 576.450672 242.556 
L 825.776109 242.556 
L 825.776109 235.416 
L 576.450672 235.416 
z
" clip-path="url(#padc1044cd4)" style="fill: #0000ff"/>
   </g>
   <g id="patch_35">
    <path d="M 595.365015 242.556 
L 825.776109 242.556 
L 825.776109 235.416 
L 595.365015 235.416 
z
" clip-path="url(#padc1044cd4)" style="fill: #0000ff"/>
   </g>
   <g id="patch_36">
    <path d="M 611.413549 242.556 
L 813.739708 242.556 
L 813.739708 235.416 
L 611.413549 235.416 
z
" clip-path="url(#padc1044cd4)" style="fill: #0000ff"/>
   </g>
   <g id="patch_37">
    <path d="M 726.619096 242.556 
L 813.166546 242.556 
L 813.166546 235.416 
L 726.619096 235.416 
z
" clip-path="url(#padc1044cd4)" style="fill: #0000ff"/>
   </g>
   <g id="patch_38">
    <path d="M 993.999133 239.25375 
L 994.285714 239.25375 
L 994.285714 238.71825 
L 993.999133 238.71825 
z
" clip-path="url(#padc1044cd4)" style="fill: #0000ff"/>
   </g>
   <g id="patch_39">
    <path d="M 144 221.40375 
L 153.170591 221.40375 
L 153.170591 220.86825 
L 144 220.86825 
z
" clip-path="url(#padc1044cd4)" style="fill: #0000ff"/>
   </g>
   <g id="patch_40">
    <path d="M 153.457172 224.706 
L 254.620251 224.706 
L 254.620251 217.566 
L 153.457172 217.566 
z
" clip-path="url(#padc1044cd4)" style="fill: #0000ff"/>
   </g>
   <g id="patch_41">
    <path d="M 158.329048 224.706 
L 346.61274 224.706 
L 346.61274 217.566 
L 158.329048 217.566 
z
" clip-path="url(#padc1044cd4)" style="fill: #0000ff"/>
   </g>
   <g id="patch_42">
    <path d="M 166.639896 224.706 
L 255.766575 224.706 
L 255.766575 217.566 
L 166.639896 217.566 
z
" clip-path="url(#padc1044cd4)" style="fill: #0000ff"/>
   </g>
   <g id="patch_43">
    <path d="M 346.899321 221.40375 
L 362.088112 221.40375 
L 362.088112 220.86825 
L 346.899321 220.86825 
z
" clip-path="url(#padc1044cd4)" style="fill: #0000ff"/>
   </g>
   <g id="patch_44">
    <path d="M 362.374693 224.706 
L 468.123068 224.706 
L 468.123068 217.566 
L 362.374693 217.566 
z
" clip-path="url(#padc1044cd4)" style="fill: #0000ff"/>
   </g>
   <g id="patch_45">
    <path d="M 468.409649 221.40375 
L 491.049545 221.40375 
L 491.049545 220.86825 
L 468.409649 220.86825 
z
" clip-path="url(#padc1044cd4)" style="fill: #0000ff"/>
   </g>
   <g id="patch_46">
    <path d="M 144 203.55375 
L 230.834031 203.55375 
L 230.834031 203.01825 
L 144 203.01825 
z
" clip-path="url(#padc1044cd4)" style="fill: #0000ff"/>
   </g>
   <g id="patch_47">
    <path d="M 231.120612 206.856 
L 254.047089 206.856 
L 254.047089 199.716 
L 231.120612 199.716 
z
" clip-path="url(#padc1044cd4)" style="fill: #0000ff"/>
   </g>
   <g id="patch_48">
    <path d="M 254.33367 203.55375 
L 347.185902 203.55375 
L 347.185902 203.01825 
L 254.33367 203.01825 
z
" clip-path="url(#padc1044cd4)" style="fill: #0000ff"/>
   </g>
   <g id="patch_49">
    <path d="M 144 185.70375 
L 213.066012 185.70375 
L 213.066012 185.16825 
L 144 185.16825 
z
" clip-path="url(#padc1044cd4)" style="fill: #0000ff"/>
   </g>
   <g id="patch_50">
    <path d="M 213.352593 189.006 
L 242.583851 189.006 
L 242.583851 181.866 
L 213.352593 181.866 
z
" clip-path="url(#padc1044cd4)" style="fill: #0000ff"/>
   </g>
   <g id="patch_51">
    <path d="M 242.870432 185.70375 
L 467.549906 185.70375 
L 467.549906 185.16825 
L 242.870432 185.16825 
z
" clip-path="url(#padc1044cd4)" style="fill: #0000ff"/>
   </g>
   <g id="patch_52">
    <path d="M 144 167.85375 
L 153.170591 167.85375 
L 153.170591 167.31825 
L 144 167.31825 
z
" clip-path="url(#padc1044cd4)" style="fill: #0000ff"/>
   </g>
   <g id="patch_53">
    <path d="M 153.457172 171.156 
L 651.248303 171.156 
L 651.248303 164.016 
L 153.457172 164.016 
z
" clip-path="url(#padc1044cd4)" style="fill: #0000ff"/>
   </g>
   <g id="patch_54">
    <path d="M 153.457172 171.156 
L 694.235447 171.156 
L 694.235447 164.016 
L 153.457172 164.016 
z
" clip-path="url(#padc1044cd4)" style="fill: #0000ff"/>
   </g>
   <g id="patch_55">
    <path d="M 156.0364 171.156 
L 692.802542 171.156 
L 692.802542 164.016 
L 156.0364 164.016 
z
" clip-path="url(#padc1044cd4)" style="fill: #0000ff"/>
   </g>
   <g id="patch_56">
    <path d="M 160.048534 171.156 
L 434.306515 171.156 
L 434.306515 164.016 
L 160.048534 164.016 
z
" clip-path="url(#padc1044cd4)" style="fill: #0000ff"/>
   </g>
   <g id="patch_57">
    <path d="M 174.950744 171.156 
L 259.778709 171.156 
L 259.778709 164.016 
L 174.950744 164.016 
z
" clip-path="url(#padc1044cd4)" style="fill: #0000ff"/>
   </g>
   <g id="patch_58">
    <path d="M 175.810487 171.156 
L 478.153402 171.156 
L 478.153402 164.016 
L 175.810487 164.016 
z
" clip-path="url(#padc1044cd4)" style="fill: #0000ff"/>
   </g>
   <g id="patch_59">
    <path d="M 176.383649 171.156 
L 415.10559 171.156 
L 415.10559 164.016 
L 176.383649 164.016 
z
" clip-path="url(#padc1044cd4)" style="fill: #0000ff"/>
   </g>
   <g id="patch_60">
    <path d="M 176.67023 171.156 
L 259.205547 171.156 
L 259.205547 164.016 
L 176.67023 164.016 
z
" clip-path="url(#padc1044cd4)" style="fill: #0000ff"/>
   </g>
   <g id="patch_61">
    <path d="M 178.103134 171.156 
L 498.214069 171.156 
L 498.214069 164.016 
L 178.103134 164.016 
z
" clip-path="url(#padc1044cd4)" style="fill: #0000ff"/>
   </g>
   <g id="patch_62">
    <path d="M 178.389715 171.156 
L 589.060234 171.156 
L 589.060234 164.016 
L 178.389715 164.016 
z
" clip-path="url(#padc1044cd4)" style="fill: #0000ff"/>
   </g>
   <g id="patch_63">
    <path d="M 178.676296 171.156 
L 702.546295 171.156 
L 702.546295 164.016 
L 178.676296 164.016 
z
" clip-path="url(#padc1044cd4)" style="fill: #0000ff"/>
   </g>
   <g id="patch_64">
    <path d="M 178.676296 171.156 
L 691.656218 171.156 
L 691.656218 164.016 
L 178.676296 164.016 
z
" clip-path="url(#padc1044cd4)" style="fill: #0000ff"/>
   </g>
   <g id="patch_65">
    <path d="M 178.962877 171.156 
L 315.088834 171.156 
L 315.088834 164.016 
L 178.962877 164.016 
z
" clip-path="url(#padc1044cd4)" style="fill: #0000ff"/>
   </g>
   <g id="patch_66">
    <path d="M 178.962877 171.156 
L 259.778709 171.156 
L 259.778709 164.016 
L 178.962877 164.016 
z
" clip-path="url(#padc1044cd4)" style="fill: #0000ff"/>
   </g>
   <g id="patch_67">
    <path d="M 179.536039 171.156 
L 442.617362 171.156 
L 442.617362 164.016 
L 179.536039 164.016 
z
" clip-path="url(#padc1044cd4)" style="fill: #0000ff"/>
   </g>
   <g id="patch_68">
    <path d="M 181.542106 171.156 
L 539.481728 171.156 
L 539.481728 164.016 
L 181.542106 164.016 
z
" clip-path="url(#padc1044cd4)" style="fill: #0000ff"/>
   </g>
   <g id="patch_69">
    <path d="M 183.548173 171.156 
L 601.383215 171.156 
L 601.383215 164.016 
L 183.548173 164.016 
z
" clip-path="url(#padc1044cd4)" style="fill: #0000ff"/>
   </g>
   <g id="patch_70">
    <path d="M 187.560306 171.156 
L 282.991767 171.156 
L 282.991767 164.016 
L 187.560306 164.016 
z
" clip-path="url(#padc1044cd4)" style="fill: #0000ff"/>
   </g>
   <g id="patch_71">
    <path d="M 188.420049 171.156 
L 438.032067 171.156 
L 438.032067 164.016 
L 188.420049 164.016 
z
" clip-path="url(#padc1044cd4)" style="fill: #0000ff"/>
   </g>
   <g id="patch_72">
    <path d="M 192.432183 171.156 
L 378.423227 171.156 
L 378.423227 164.016 
L 192.432183 164.016 
z
" clip-path="url(#padc1044cd4)" style="fill: #0000ff"/>
   </g>
   <g id="patch_73">
    <path d="M 194.72483 171.156 
L 440.611296 171.156 
L 440.611296 164.016 
L 194.72483 164.016 
z
" clip-path="url(#padc1044cd4)" style="fill: #0000ff"/>
   </g>
   <g id="patch_74">
    <path d="M 200.74303 171.156 
L 539.195147 171.156 
L 539.195147 164.016 
L 200.74303 164.016 
z
" clip-path="url(#padc1044cd4)" style="fill: #0000ff"/>
   </g>
   <g id="patch_75">
    <path d="M 206.47465 171.156 
L 411.380038 171.156 
L 411.380038 164.016 
L 206.47465 164.016 
z
" clip-path="url(#padc1044cd4)" style="fill: #0000ff"/>
   </g>
   <g id="patch_76">
    <path d="M 209.340459 171.156 
L 425.995667 171.156 
L 425.995667 164.016 
L 209.340459 164.016 
z
" clip-path="url(#padc1044cd4)" style="fill: #0000ff"/>
   </g>
   <g id="patch_77">
    <path d="M 209.913621 171.156 
L 444.050267 171.156 
L 444.050267 164.016 
L 209.913621 164.016 
z
" clip-path="url(#padc1044cd4)" style="fill: #0000ff"/>
   </g>
   <g id="patch_78">
    <path d="M 211.919688 171.156 
L 428.288314 171.156 
L 428.288314 164.016 
L 211.919688 164.016 
z
" clip-path="url(#padc1044cd4)" style="fill: #0000ff"/>
   </g>
   <g id="patch_79">
    <path d="M 222.236603 171.156 
L 498.214069 171.156 
L 498.214069 164.016 
L 222.236603 164.016 
z
" clip-path="url(#padc1044cd4)" style="fill: #0000ff"/>
   </g>
   <g id="patch_80">
    <path d="M 226.248736 171.156 
L 441.75762 171.156 
L 441.75762 164.016 
L 226.248736 164.016 
z
" clip-path="url(#padc1044cd4)" style="fill: #0000ff"/>
   </g>
   <g id="patch_81">
    <path d="M 229.687708 171.156 
L 413.672685 171.156 
L 413.672685 164.016 
L 229.687708 164.016 
z
" clip-path="url(#padc1044cd4)" style="fill: #0000ff"/>
   </g>
   <g id="patch_82">
    <path d="M 229.687708 171.156 
L 330.277625 171.156 
L 330.277625 164.016 
L 229.687708 164.016 
z
" clip-path="url(#padc1044cd4)" style="fill: #0000ff"/>
   </g>
   <g id="patch_83">
    <path d="M 232.553517 171.156 
L 329.991044 171.156 
L 329.991044 164.016 
L 232.553517 164.016 
z
" clip-path="url(#padc1044cd4)" style="fill: #0000ff"/>
   </g>
   <g id="patch_84">
    <path d="M 234.846165 171.156 
L 357.502817 171.156 
L 357.502817 164.016 
L 234.846165 164.016 
z
" clip-path="url(#padc1044cd4)" style="fill: #0000ff"/>
   </g>
   <g id="patch_85">
    <path d="M 241.437527 171.156 
L 372.405027 171.156 
L 372.405027 164.016 
L 241.437527 164.016 
z
" clip-path="url(#padc1044cd4)" style="fill: #0000ff"/>
   </g>
   <g id="patch_86">
    <path d="M 248.31547 171.156 
L 330.850787 171.156 
L 330.850787 164.016 
L 248.31547 164.016 
z
" clip-path="url(#padc1044cd4)" style="fill: #0000ff"/>
   </g>
   <g id="patch_87">
    <path d="M 265.796909 171.156 
L 398.197313 171.156 
L 398.197313 164.016 
L 265.796909 164.016 
z
" clip-path="url(#padc1044cd4)" style="fill: #0000ff"/>
   </g>
   <g id="patch_88">
    <path d="M 279.552795 171.156 
L 377.850065 171.156 
L 377.850065 164.016 
L 279.552795 164.016 
z
" clip-path="url(#padc1044cd4)" style="fill: #0000ff"/>
   </g>
   <g id="patch_89">
    <path d="M 281.558862 171.156 
L 390.173046 171.156 
L 390.173046 164.016 
L 281.558862 164.016 
z
" clip-path="url(#padc1044cd4)" style="fill: #0000ff"/>
   </g>
   <g id="patch_90">
    <path d="M 282.991767 171.156 
L 343.46035 171.156 
L 343.46035 164.016 
L 282.991767 164.016 
z
" clip-path="url(#padc1044cd4)" style="fill: #0000ff"/>
   </g>
   <g id="patch_91">
    <path d="M 285.570995 171.156 
L 330.564206 171.156 
L 330.564206 164.016 
L 285.570995 164.016 
z
" clip-path="url(#padc1044cd4)" style="fill: #0000ff"/>
   </g>
   <g id="patch_92">
    <path d="M 291.016034 171.156 
L 326.552073 171.156 
L 326.552073 164.016 
L 291.016034 164.016 
z
" clip-path="url(#padc1044cd4)" style="fill: #0000ff"/>
   </g>
   <g id="patch_93">
    <path d="M 300.759786 171.156 
L 344.606673 171.156 
L 344.606673 164.016 
L 300.759786 164.016 
z
" clip-path="url(#padc1044cd4)" style="fill: #0000ff"/>
   </g>
   <g id="patch_94">
    <path d="M 301.619529 171.156 
L 330.564206 171.156 
L 330.564206 164.016 
L 301.619529 164.016 
z
" clip-path="url(#padc1044cd4)" style="fill: #0000ff"/>
   </g>
   <g id="patch_95">
    <path d="M 301.619529 171.156 
L 343.746931 171.156 
L 343.746931 164.016 
L 301.619529 164.016 
z
" clip-path="url(#padc1044cd4)" style="fill: #0000ff"/>
   </g>
   <g id="patch_96">
    <path d="M 342.600607 171.156 
L 368.966055 171.156 
L 368.966055 164.016 
L 342.600607 164.016 
z
" clip-path="url(#padc1044cd4)" style="fill: #0000ff"/>
   </g>
   <g id="patch_97">
    <path d="M 345.466416 171.156 
L 373.26477 171.156 
L 373.26477 164.016 
L 345.466416 164.016 
z
" clip-path="url(#padc1044cd4)" style="fill: #0000ff"/>
   </g>
   <g id="patch_98">
    <path d="M 346.039578 171.156 
L 391.892532 171.156 
L 391.892532 164.016 
L 346.039578 164.016 
z
" clip-path="url(#padc1044cd4)" style="fill: #0000ff"/>
   </g>
   <g id="patch_99">
    <path d="M 356.069912 171.156 
L 471.275459 171.156 
L 471.275459 164.016 
L 356.069912 164.016 
z
" clip-path="url(#padc1044cd4)" style="fill: #0000ff"/>
   </g>
   <g id="patch_100">
    <path d="M 358.649141 171.156 
L 406.794742 171.156 
L 406.794742 164.016 
L 358.649141 164.016 
z
" clip-path="url(#padc1044cd4)" style="fill: #0000ff"/>
   </g>
   <g id="patch_101">
    <path d="M 382.721941 171.156 
L 407.941066 171.156 
L 407.941066 164.016 
L 382.721941 164.016 
z
" clip-path="url(#padc1044cd4)" style="fill: #0000ff"/>
   </g>
   <g id="patch_102">
    <path d="M 453.79402 171.156 
L 691.656218 171.156 
L 691.656218 164.016 
L 453.79402 164.016 
z
" clip-path="url(#padc1044cd4)" style="fill: #0000ff"/>
   </g>
   <g id="patch_103">
    <path d="M 458.379315 171.156 
L 487.323992 171.156 
L 487.323992 164.016 
L 458.379315 164.016 
z
" clip-path="url(#padc1044cd4)" style="fill: #0000ff"/>
   </g>
   <g id="patch_104">
    <path d="M 461.245125 171.156 
L 691.656218 171.156 
L 691.656218 164.016 
L 461.245125 164.016 
z
" clip-path="url(#padc1044cd4)" style="fill: #0000ff"/>
   </g>
   <g id="patch_105">
    <path d="M 496.208002 171.156 
L 584.188358 171.156 
L 584.188358 164.016 
L 496.208002 164.016 
z
" clip-path="url(#padc1044cd4)" style="fill: #0000ff"/>
   </g>
   <g id="patch_106">
    <path d="M 531.457461 171.156 
L 691.656218 171.156 
L 691.656218 164.016 
L 531.457461 164.016 
z
" clip-path="url(#padc1044cd4)" style="fill: #0000ff"/>
   </g>
   <g id="patch_107">
    <path d="M 577.596996 171.156 
L 649.528817 171.156 
L 649.528817 164.016 
L 577.596996 164.016 
z
" clip-path="url(#padc1044cd4)" style="fill: #0000ff"/>
   </g>
   <g id="patch_108">
    <path d="M 702.832876 167.85375 
L 719.741153 167.85375 
L 719.741153 167.31825 
L 702.832876 167.31825 
z
" clip-path="url(#padc1044cd4)" style="fill: #0000ff"/>
   </g>
   <g id="patch_109">
    <path d="M 144 150.00375 
L 207.620974 150.00375 
L 207.620974 149.46825 
L 144 149.46825 
z
" clip-path="url(#padc1044cd4)" style="fill: #0000ff"/>
   </g>
   <g id="patch_110">
    <path d="M 207.907555 153.306 
L 363.234436 153.306 
L 363.234436 146.166 
L 207.907555 146.166 
z
" clip-path="url(#padc1044cd4)" style="fill: #0000ff"/>
   </g>
   <g id="patch_111">
    <path d="M 363.521017 150.00375 
L 422.556695 150.00375 
L 422.556695 149.46825 
L 363.521017 149.46825 
z
" clip-path="url(#padc1044cd4)" style="fill: #0000ff"/>
   </g>
   <g id="patch_112">
    <path d="M 144 132.15375 
L 399.343637 132.15375 
L 399.343637 131.61825 
L 144 131.61825 
z
" clip-path="url(#padc1044cd4)" style="fill: #0000ff"/>
   </g>
   <g id="patch_113">
    <path d="M 399.630218 135.456 
L 533.176946 135.456 
L 533.176946 128.316 
L 399.630218 128.316 
z
" clip-path="url(#padc1044cd4)" style="fill: #0000ff"/>
   </g>
   <g id="patch_114">
    <path d="M 417.398238 135.456 
L 533.463527 135.456 
L 533.463527 128.316 
L 417.398238 128.316 
z
" clip-path="url(#padc1044cd4)" style="fill: #0000ff"/>
   </g>
   <g id="patch_115">
    <path d="M 420.264047 135.456 
L 533.176946 135.456 
L 533.176946 128.316 
L 420.264047 128.316 
z
" clip-path="url(#padc1044cd4)" style="fill: #0000ff"/>
   </g>
   <g id="patch_116">
    <path d="M 423.9896 135.456 
L 532.317204 135.456 
L 532.317204 128.316 
L 423.9896 128.316 
z
" clip-path="url(#padc1044cd4)" style="fill: #0000ff"/>
   </g>
   <g id="patch_117">
    <path d="M 424.849343 135.456 
L 519.994222 135.456 
L 519.994222 128.316 
L 424.849343 128.316 
z
" clip-path="url(#padc1044cd4)" style="fill: #0000ff"/>
   </g>
   <g id="patch_118">
    <path d="M 433.446772 135.456 
L 532.317204 135.456 
L 532.317204 128.316 
L 433.446772 128.316 
z
" clip-path="url(#padc1044cd4)" style="fill: #0000ff"/>
   </g>
   <g id="patch_119">
    <path d="M 433.446772 135.456 
L 511.396793 135.456 
L 511.396793 128.316 
L 433.446772 128.316 
z
" clip-path="url(#padc1044cd4)" style="fill: #0000ff"/>
   </g>
   <g id="patch_120">
    <path d="M 433.446772 135.456 
L 532.890365 135.456 
L 532.890365 128.316 
L 433.446772 128.316 
z
" clip-path="url(#padc1044cd4)" style="fill: #0000ff"/>
   </g>
   <g id="patch_121">
    <path d="M 433.446772 135.456 
L 532.890365 135.456 
L 532.890365 128.316 
L 433.446772 128.316 
z
" clip-path="url(#padc1044cd4)" style="fill: #0000ff"/>
   </g>
   <g id="patch_122">
    <path d="M 433.446772 135.456 
L 533.176946 135.456 
L 533.176946 128.316 
L 433.446772 128.316 
z
" clip-path="url(#padc1044cd4)" style="fill: #0000ff"/>
   </g>
   <g id="patch_123">
    <path d="M 433.446772 135.456 
L 531.457461 135.456 
L 531.457461 128.316 
L 433.446772 128.316 
z
" clip-path="url(#padc1044cd4)" style="fill: #0000ff"/>
   </g>
   <g id="patch_124">
    <path d="M 433.446772 135.456 
L 533.463527 135.456 
L 533.463527 128.316 
L 433.446772 128.316 
z
" clip-path="url(#padc1044cd4)" style="fill: #0000ff"/>
   </g>
   <g id="patch_125">
    <path d="M 433.446772 135.456 
L 530.597718 135.456 
L 530.597718 128.316 
L 433.446772 128.316 
z
" clip-path="url(#padc1044cd4)" style="fill: #0000ff"/>
   </g>
   <g id="patch_126">
    <path d="M 433.733353 135.456 
L 533.463527 135.456 
L 533.463527 128.316 
L 433.733353 128.316 
z
" clip-path="url(#padc1044cd4)" style="fill: #0000ff"/>
   </g>
   <g id="patch_127">
    <path d="M 434.019934 135.456 
L 533.176946 135.456 
L 533.176946 128.316 
L 434.019934 128.316 
z
" clip-path="url(#padc1044cd4)" style="fill: #0000ff"/>
   </g>
   <g id="patch_128">
    <path d="M 434.019934 135.456 
L 532.317204 135.456 
L 532.317204 128.316 
L 434.019934 128.316 
z
" clip-path="url(#padc1044cd4)" style="fill: #0000ff"/>
   </g>
   <g id="patch_129">
    <path d="M 434.593095 135.456 
L 533.176946 135.456 
L 533.176946 128.316 
L 434.593095 128.316 
z
" clip-path="url(#padc1044cd4)" style="fill: #0000ff"/>
   </g>
   <g id="patch_130">
    <path d="M 434.593095 135.456 
L 536.615918 135.456 
L 536.615918 128.316 
L 434.593095 128.316 
z
" clip-path="url(#padc1044cd4)" style="fill: #0000ff"/>
   </g>
   <g id="patch_131">
    <path d="M 435.166257 135.456 
L 523.433194 135.456 
L 523.433194 128.316 
L 435.166257 128.316 
z
" clip-path="url(#padc1044cd4)" style="fill: #0000ff"/>
   </g>
   <g id="patch_132">
    <path d="M 435.452838 135.456 
L 530.024556 135.456 
L 530.024556 128.316 
L 435.452838 128.316 
z
" clip-path="url(#padc1044cd4)" style="fill: #0000ff"/>
   </g>
   <g id="patch_133">
    <path d="M 435.452838 135.456 
L 533.463527 135.456 
L 533.463527 128.316 
L 435.452838 128.316 
z
" clip-path="url(#padc1044cd4)" style="fill: #0000ff"/>
   </g>
   <g id="patch_134">
    <path d="M 435.452838 135.456 
L 531.457461 135.456 
L 531.457461 128.316 
L 435.452838 128.316 
z
" clip-path="url(#padc1044cd4)" style="fill: #0000ff"/>
   </g>
   <g id="patch_135">
    <path d="M 435.739419 135.456 
L 532.317204 135.456 
L 532.317204 128.316 
L 435.739419 128.316 
z
" clip-path="url(#padc1044cd4)" style="fill: #0000ff"/>
   </g>
   <g id="patch_136">
    <path d="M 436.026 135.456 
L 532.890365 135.456 
L 532.890365 128.316 
L 436.026 128.316 
z
" clip-path="url(#padc1044cd4)" style="fill: #0000ff"/>
   </g>
   <g id="patch_137">
    <path d="M 438.89181 135.456 
L 503.659107 135.456 
L 503.659107 128.316 
L 438.89181 128.316 
z
" clip-path="url(#padc1044cd4)" style="fill: #0000ff"/>
   </g>
   <g id="patch_138">
    <path d="M 441.184458 135.456 
L 533.176946 135.456 
L 533.176946 128.316 
L 441.184458 128.316 
z
" clip-path="url(#padc1044cd4)" style="fill: #0000ff"/>
   </g>
   <g id="patch_139">
    <path d="M 447.202658 135.456 
L 532.030623 135.456 
L 532.030623 128.316 
L 447.202658 128.316 
z
" clip-path="url(#padc1044cd4)" style="fill: #0000ff"/>
   </g>
   <g id="patch_140">
    <path d="M 457.519572 135.456 
L 501.939622 135.456 
L 501.939622 128.316 
L 457.519572 128.316 
z
" clip-path="url(#padc1044cd4)" style="fill: #0000ff"/>
   </g>
   <g id="patch_141">
    <path d="M 460.098801 135.456 
L 532.890365 135.456 
L 532.890365 128.316 
L 460.098801 128.316 
z
" clip-path="url(#padc1044cd4)" style="fill: #0000ff"/>
   </g>
   <g id="patch_142">
    <path d="M 461.818287 135.456 
L 511.969955 135.456 
L 511.969955 128.316 
L 461.818287 128.316 
z
" clip-path="url(#padc1044cd4)" style="fill: #0000ff"/>
   </g>
   <g id="patch_143">
    <path d="M 473.568106 135.456 
L 510.53705 135.456 
L 510.53705 128.316 
L 473.568106 128.316 
z
" clip-path="url(#padc1044cd4)" style="fill: #0000ff"/>
   </g>
   <g id="patch_144">
    <path d="M 536.902499 132.15375 
L 550.085223 132.15375 
L 550.085223 131.61825 
L 536.902499 131.61825 
z
" clip-path="url(#padc1044cd4)" style="fill: #0000ff"/>
   </g>
   <g id="patch_145">
    <path d="M 144 114.30375 
L 153.170591 114.30375 
L 153.170591 113.76825 
L 144 113.76825 
z
" clip-path="url(#padc1044cd4)" style="fill: #0000ff"/>
   </g>
   <g id="patch_146">
    <path d="M 153.457172 117.606 
L 210.486783 117.606 
L 210.486783 110.466 
L 153.457172 110.466 
z
" clip-path="url(#padc1044cd4)" style="fill: #0000ff"/>
   </g>
   <g id="patch_147">
    <path d="M 153.743753 117.606 
L 253.473927 117.606 
L 253.473927 110.466 
L 153.743753 110.466 
z
" clip-path="url(#padc1044cd4)" style="fill: #0000ff"/>
   </g>
   <g id="patch_148">
    <path d="M 158.042467 117.606 
L 205.041745 117.606 
L 205.041745 110.466 
L 158.042467 110.466 
z
" clip-path="url(#padc1044cd4)" style="fill: #0000ff"/>
   </g>
   <g id="patch_149">
    <path d="M 164.347248 117.606 
L 251.467861 117.606 
L 251.467861 110.466 
L 164.347248 110.466 
z
" clip-path="url(#padc1044cd4)" style="fill: #0000ff"/>
   </g>
   <g id="patch_150">
    <path d="M 172.371515 117.606 
L 250.608118 117.606 
L 250.608118 110.466 
L 172.371515 110.466 
z
" clip-path="url(#padc1044cd4)" style="fill: #0000ff"/>
   </g>
   <g id="patch_151">
    <path d="M 249.748375 117.606 
L 337.72873 117.606 
L 337.72873 110.466 
L 249.748375 110.466 
z
" clip-path="url(#padc1044cd4)" style="fill: #0000ff"/>
   </g>
   <g id="patch_152">
    <path d="M 253.760508 117.606 
L 290.442872 117.606 
L 290.442872 110.466 
L 253.760508 110.466 
z
" clip-path="url(#padc1044cd4)" style="fill: #0000ff"/>
   </g>
   <g id="patch_153">
    <path d="M 254.047089 117.606 
L 291.302614 117.606 
L 291.302614 110.466 
L 254.047089 110.466 
z
" clip-path="url(#padc1044cd4)" style="fill: #0000ff"/>
   </g>
   <g id="patch_154">
    <path d="M 265.796909 117.606 
L 290.442872 117.606 
L 290.442872 110.466 
L 265.796909 110.466 
z
" clip-path="url(#padc1044cd4)" style="fill: #0000ff"/>
   </g>
   <g id="patch_155">
    <path d="M 338.015311 114.30375 
L 481.019211 114.30375 
L 481.019211 113.76825 
L 338.015311 113.76825 
z
" clip-path="url(#padc1044cd4)" style="fill: #0000ff"/>
   </g>
   <g id="patch_156">
    <path d="M 481.305792 117.606 
L 543.493861 117.606 
L 543.493861 110.466 
L 481.305792 110.466 
z
" clip-path="url(#padc1044cd4)" style="fill: #0000ff"/>
   </g>
   <g id="patch_157">
    <path d="M 496.781164 117.606 
L 541.774375 117.606 
L 541.774375 110.466 
L 496.781164 110.466 
z
" clip-path="url(#padc1044cd4)" style="fill: #0000ff"/>
   </g>
   <g id="patch_158">
    <path d="M 499.933555 117.606 
L 524.579518 117.606 
L 524.579518 110.466 
L 499.933555 110.466 
z
" clip-path="url(#padc1044cd4)" style="fill: #0000ff"/>
   </g>
   <g id="patch_159">
    <path d="M 144 96.45375 
L 146.579229 96.45375 
L 146.579229 95.91825 
L 144 95.91825 
z
" clip-path="url(#padc1044cd4)" style="fill: #0000ff"/>
   </g>
   <g id="patch_160">
    <path d="M 146.86581 99.756 
L 282.418605 99.756 
L 282.418605 92.616 
L 146.86581 92.616 
z
" clip-path="url(#padc1044cd4)" style="fill: #0000ff"/>
   </g>
   <g id="patch_161">
    <path d="M 147.152391 99.756 
L 278.979633 99.756 
L 278.979633 92.616 
L 147.152391 92.616 
z
" clip-path="url(#padc1044cd4)" style="fill: #0000ff"/>
   </g>
   <g id="patch_162">
    <path d="M 152.310848 99.756 
L 285.570995 99.756 
L 285.570995 92.616 
L 152.310848 92.616 
z
" clip-path="url(#padc1044cd4)" style="fill: #0000ff"/>
   </g>
   <g id="patch_163">
    <path d="M 154.890077 99.756 
L 247.455727 99.756 
L 247.455727 92.616 
L 154.890077 92.616 
z
" clip-path="url(#padc1044cd4)" style="fill: #0000ff"/>
   </g>
   <g id="patch_164">
    <path d="M 160.048534 99.756 
L 260.351871 99.756 
L 260.351871 92.616 
L 160.048534 92.616 
z
" clip-path="url(#padc1044cd4)" style="fill: #0000ff"/>
   </g>
   <g id="patch_165">
    <path d="M 172.084934 99.756 
L 270.382204 99.756 
L 270.382204 92.616 
L 172.084934 92.616 
z
" clip-path="url(#padc1044cd4)" style="fill: #0000ff"/>
   </g>
   <g id="patch_166">
    <path d="M 189.279792 99.756 
L 266.370071 99.756 
L 266.370071 92.616 
L 189.279792 92.616 
z
" clip-path="url(#padc1044cd4)" style="fill: #0000ff"/>
   </g>
   <g id="patch_167">
    <path d="M 195.871154 99.756 
L 274.9675 99.756 
L 274.9675 92.616 
L 195.871154 92.616 
z
" clip-path="url(#padc1044cd4)" style="fill: #0000ff"/>
   </g>
   <g id="patch_168">
    <path d="M 201.029611 99.756 
L 251.754442 99.756 
L 251.754442 92.616 
L 201.029611 92.616 
z
" clip-path="url(#padc1044cd4)" style="fill: #0000ff"/>
   </g>
   <g id="patch_169">
    <path d="M 211.346526 99.756 
L 270.095623 99.756 
L 270.095623 92.616 
L 211.346526 92.616 
z
" clip-path="url(#padc1044cd4)" style="fill: #0000ff"/>
   </g>
   <g id="patch_170">
    <path d="M 231.120612 99.756 
L 273.248014 99.756 
L 273.248014 92.616 
L 231.120612 92.616 
z
" clip-path="url(#padc1044cd4)" style="fill: #0000ff"/>
   </g>
   <g id="patch_171">
    <path d="M 233.126679 99.756 
L 276.686985 99.756 
L 276.686985 92.616 
L 233.126679 92.616 
z
" clip-path="url(#padc1044cd4)" style="fill: #0000ff"/>
   </g>
   <g id="patch_172">
    <path d="M 285.857576 96.45375 
L 293.0221 96.45375 
L 293.0221 95.91825 
L 285.857576 95.91825 
z
" clip-path="url(#padc1044cd4)" style="fill: #0000ff"/>
   </g>
   <g id="patch_173">
    <path d="M 293.308681 99.756 
L 388.453561 99.756 
L 388.453561 92.616 
L 293.308681 92.616 
z
" clip-path="url(#padc1044cd4)" style="fill: #0000ff"/>
   </g>
   <g id="patch_174">
    <path d="M 301.90611 99.756 
L 335.722664 99.756 
L 335.722664 92.616 
L 301.90611 92.616 
z
" clip-path="url(#padc1044cd4)" style="fill: #0000ff"/>
   </g>
   <g id="patch_175">
    <path d="M 302.192691 99.756 
L 339.448216 99.756 
L 339.448216 92.616 
L 302.192691 92.616 
z
" clip-path="url(#padc1044cd4)" style="fill: #0000ff"/>
   </g>
   <g id="patch_176">
    <path d="M 313.94251 99.756 
L 338.588473 99.756 
L 338.588473 92.616 
L 313.94251 92.616 
z
" clip-path="url(#padc1044cd4)" style="fill: #0000ff"/>
   </g>
   <g id="patch_177">
    <path d="M 388.740142 96.45375 
L 502.799364 96.45375 
L 502.799364 95.91825 
L 388.740142 95.91825 
z
" clip-path="url(#padc1044cd4)" style="fill: #0000ff"/>
   </g>
   <g id="patch_178">
    <path d="M 503.085945 99.756 
L 562.981366 99.756 
L 562.981366 92.616 
L 503.085945 92.616 
z
" clip-path="url(#padc1044cd4)" style="fill: #0000ff"/>
   </g>
   <g id="patch_179">
    <path d="M 515.982089 99.756 
L 561.548462 99.756 
L 561.548462 92.616 
L 515.982089 92.616 
z
" clip-path="url(#padc1044cd4)" style="fill: #0000ff"/>
   </g>
   <g id="patch_180">
    <path d="M 519.42106 99.756 
L 544.067023 99.756 
L 544.067023 92.616 
L 519.42106 92.616 
z
" clip-path="url(#padc1044cd4)" style="fill: #0000ff"/>
   </g>
   <g id="patch_181">
    <path d="M 144 81.906 
L 218.224469 81.906 
L 218.224469 74.766 
L 144 74.766 
z
" clip-path="url(#padc1044cd4)" style="fill: #0000ff"/>
   </g>
   <g id="patch_182">
    <path d="M 144 81.906 
L 213.352593 81.906 
L 213.352593 74.766 
L 144 74.766 
z
" clip-path="url(#padc1044cd4)" style="fill: #0000ff"/>
   </g>
   <g id="patch_183">
    <path d="M 144 81.906 
L 215.931821 81.906 
L 215.931821 74.766 
L 144 74.766 
z
" clip-path="url(#padc1044cd4)" style="fill: #0000ff"/>
   </g>
   <g id="patch_184">
    <path d="M 144 81.906 
L 218.224469 81.906 
L 218.224469 74.766 
L 144 74.766 
z
" clip-path="url(#padc1044cd4)" style="fill: #0000ff"/>
   </g>
   <g id="patch_185">
    <path d="M 144 81.906 
L 154.890077 81.906 
L 154.890077 74.766 
L 144 74.766 
z
" clip-path="url(#padc1044cd4)" style="fill: #0000ff"/>
   </g>
   <g id="patch_186">
    <path d="M 145.432905 81.906 
L 164.633829 81.906 
L 164.633829 74.766 
L 145.432905 74.766 
z
" clip-path="url(#padc1044cd4)" style="fill: #0000ff"/>
   </g>
   <g id="patch_187">
    <path d="M 218.51105 78.60375 
L 239.718041 78.60375 
L 239.718041 78.06825 
L 218.51105 78.06825 
z
" clip-path="url(#padc1044cd4)" style="fill: #0000ff"/>
   </g>
   <g id="patch_188">
    <path d="M 240.004622 81.906 
L 292.162357 81.906 
L 292.162357 74.766 
L 240.004622 74.766 
z
" clip-path="url(#padc1044cd4)" style="fill: #0000ff"/>
   </g>
   <g id="patch_189">
    <path d="M 240.004622 81.906 
L 293.595262 81.906 
L 293.595262 74.766 
L 240.004622 74.766 
z
" clip-path="url(#padc1044cd4)" style="fill: #0000ff"/>
   </g>
   <g id="patch_190">
    <path d="M 293.881843 78.60375 
L 295.314748 78.60375 
L 295.314748 78.06825 
L 293.881843 78.06825 
z
" clip-path="url(#padc1044cd4)" style="fill: #0000ff"/>
   </g>
   <g id="patch_191">
    <path d="M 144 60.75375 
L 195.584573 60.75375 
L 195.584573 60.21825 
L 144 60.21825 
z
" clip-path="url(#padc1044cd4)" style="fill: #0000ff"/>
   </g>
   <g id="patch_192">
    <path d="M 195.871154 64.056 
L 370.972122 64.056 
L 370.972122 56.916 
L 195.871154 56.916 
z
" clip-path="url(#padc1044cd4)" style="fill: #0000ff"/>
   </g>
   <g id="patch_193">
    <path d="M 325.405749 64.056 
L 383.581684 64.056 
L 383.581684 56.916 
L 325.405749 56.916 
z
" clip-path="url(#padc1044cd4)" style="fill: #0000ff"/>
   </g>
   <g id="patch_194">
    <path d="M 383.868265 60.75375 
L 393.612018 60.75375 
L 393.612018 60.21825 
L 383.868265 60.21825 
z
" clip-path="url(#padc1044cd4)" style="fill: #0000ff"/>
   </g>
   <g id="matplotlib.axis_1">
    <g id="xtick_1">
     <g id="line2d_1">
      <defs>
       <path id="m91547c2e08" d="M 0 0 
L 0 3.5 
" style="stroke: #000000; stroke-width: 0.8"/>
      </defs>
      <g>
       <use xlink:href="#m91547c2e08" x="287.0039" y="326.808" style="stroke: #000000; stroke-width: 0.8"/>
      </g>
     </g>
     <g id="text_1">
      <!-- 500 -->
      <g transform="translate(277.46015 341.406437) scale(0.1 -0.1)">
       <defs>
        <path id="DejaVuSans-35" d="M 691 4666 
L 3169 4666 
L 3169 4134 
L 1269 4134 
L 1269 2991 
Q 1406 3038 1543 3061 
Q 1681 3084 1819 3084 
Q 2600 3084 3056 2656 
Q 3513 2228 3513 1497 
Q 3513 744 3044 326 
Q 2575 -91 1722 -91 
Q 1428 -91 1123 -41 
Q 819 9 494 109 
L 494 744 
Q 775 591 1075 516 
Q 1375 441 1709 441 
Q 2250 441 2565 725 
Q 2881 1009 2881 1497 
Q 2881 1984 2565 2268 
Q 2250 2553 1709 2553 
Q 1456 2553 1204 2497 
Q 953 2441 691 2322 
L 691 4666 
z
" transform="scale(0.015625)"/>
        <path id="DejaVuSans-30" d="M 2034 4250 
Q 1547 4250 1301 3770 
Q 1056 3291 1056 2328 
Q 1056 1369 1301 889 
Q 1547 409 2034 409 
Q 2525 409 2770 889 
Q 3016 1369 3016 2328 
Q 3016 3291 2770 3770 
Q 2525 4250 2034 4250 
z
M 2034 4750 
Q 2819 4750 3233 4129 
Q 3647 3509 3647 2328 
Q 3647 1150 3233 529 
Q 2819 -91 2034 -91 
Q 1250 -91 836 529 
Q 422 1150 422 2328 
Q 422 3509 836 4129 
Q 1250 4750 2034 4750 
z
" transform="scale(0.015625)"/>
       </defs>
       <use xlink:href="#DejaVuSans-35"/>
       <use xlink:href="#DejaVuSans-30" x="63.623047"/>
       <use xlink:href="#DejaVuSans-30" x="127.246094"/>
      </g>
     </g>
    </g>
    <g id="xtick_2">
     <g id="line2d_2">
      <g>
       <use xlink:href="#m91547c2e08" x="430.294381" y="326.808" style="stroke: #000000; stroke-width: 0.8"/>
      </g>
     </g>
     <g id="text_2">
      <!-- 1000 -->
      <g transform="translate(417.569381 341.406437) scale(0.1 -0.1)">
       <defs>
        <path id="DejaVuSans-31" d="M 794 531 
L 1825 531 
L 1825 4091 
L 703 3866 
L 703 4441 
L 1819 4666 
L 2450 4666 
L 2450 531 
L 3481 531 
L 3481 0 
L 794 0 
L 794 531 
z
" transform="scale(0.015625)"/>
       </defs>
       <use xlink:href="#DejaVuSans-31"/>
       <use xlink:href="#DejaVuSans-30" x="63.623047"/>
       <use xlink:href="#DejaVuSans-30" x="127.246094"/>
       <use xlink:href="#DejaVuSans-30" x="190.869141"/>
      </g>
     </g>
    </g>
    <g id="xtick_3">
     <g id="line2d_3">
      <g>
       <use xlink:href="#m91547c2e08" x="573.584862" y="326.808" style="stroke: #000000; stroke-width: 0.8"/>
      </g>
     </g>
     <g id="text_3">
      <!-- 1500 -->
      <g transform="translate(560.859862 341.406437) scale(0.1 -0.1)">
       <use xlink:href="#DejaVuSans-31"/>
       <use xlink:href="#DejaVuSans-35" x="63.623047"/>
       <use xlink:href="#DejaVuSans-30" x="127.246094"/>
       <use xlink:href="#DejaVuSans-30" x="190.869141"/>
      </g>
     </g>
    </g>
    <g id="xtick_4">
     <g id="line2d_4">
      <g>
       <use xlink:href="#m91547c2e08" x="716.875343" y="326.808" style="stroke: #000000; stroke-width: 0.8"/>
      </g>
     </g>
     <g id="text_4">
      <!-- 2000 -->
      <g transform="translate(704.150343 341.406437) scale(0.1 -0.1)">
       <defs>
        <path id="DejaVuSans-32" d="M 1228 531 
L 3431 531 
L 3431 0 
L 469 0 
L 469 531 
Q 828 903 1448 1529 
Q 2069 2156 2228 2338 
Q 2531 2678 2651 2914 
Q 2772 3150 2772 3378 
Q 2772 3750 2511 3984 
Q 2250 4219 1831 4219 
Q 1534 4219 1204 4116 
Q 875 4013 500 3803 
L 500 4441 
Q 881 4594 1212 4672 
Q 1544 4750 1819 4750 
Q 2544 4750 2975 4387 
Q 3406 4025 3406 3419 
Q 3406 3131 3298 2873 
Q 3191 2616 2906 2266 
Q 2828 2175 2409 1742 
Q 1991 1309 1228 531 
z
" transform="scale(0.015625)"/>
       </defs>
       <use xlink:href="#DejaVuSans-32"/>
       <use xlink:href="#DejaVuSans-30" x="63.623047"/>
       <use xlink:href="#DejaVuSans-30" x="127.246094"/>
       <use xlink:href="#DejaVuSans-30" x="190.869141"/>
      </g>
     </g>
    </g>
    <g id="xtick_5">
     <g id="line2d_5">
      <g>
       <use xlink:href="#m91547c2e08" x="860.165824" y="326.808" style="stroke: #000000; stroke-width: 0.8"/>
      </g>
     </g>
     <g id="text_5">
      <!-- 2500 -->
      <g transform="translate(847.440824 341.406437) scale(0.1 -0.1)">
       <use xlink:href="#DejaVuSans-32"/>
       <use xlink:href="#DejaVuSans-35" x="63.623047"/>
       <use xlink:href="#DejaVuSans-30" x="127.246094"/>
       <use xlink:href="#DejaVuSans-30" x="190.869141"/>
      </g>
     </g>
    </g>
    <g id="xtick_6">
     <g id="line2d_6">
      <g>
       <use xlink:href="#m91547c2e08" x="1003.456305" y="326.808" style="stroke: #000000; stroke-width: 0.8"/>
      </g>
     </g>
     <g id="text_6">
      <!-- 3000 -->
      <g transform="translate(990.731305 341.406437) scale(0.1 -0.1)">
       <defs>
        <path id="DejaVuSans-33" d="M 2597 2516 
Q 3050 2419 3304 2112 
Q 3559 1806 3559 1356 
Q 3559 666 3084 287 
Q 2609 -91 1734 -91 
Q 1441 -91 1130 -33 
Q 819 25 488 141 
L 488 750 
Q 750 597 1062 519 
Q 1375 441 1716 441 
Q 2309 441 2620 675 
Q 2931 909 2931 1356 
Q 2931 1769 2642 2001 
Q 2353 2234 1838 2234 
L 1294 2234 
L 1294 2753 
L 1863 2753 
Q 2328 2753 2575 2939 
Q 2822 3125 2822 3475 
Q 2822 3834 2567 4026 
Q 2313 4219 1838 4219 
Q 1578 4219 1281 4162 
Q 984 4106 628 3988 
L 628 4550 
Q 988 4650 1302 4700 
Q 1616 4750 1894 4750 
Q 2613 4750 3031 4423 
Q 3450 4097 3450 3541 
Q 3450 3153 3228 2886 
Q 3006 2619 2597 2516 
z
" transform="scale(0.015625)"/>
       </defs>
       <use xlink:href="#DejaVuSans-33"/>
       <use xlink:href="#DejaVuSans-30" x="63.623047"/>
       <use xlink:href="#DejaVuSans-30" x="127.246094"/>
       <use xlink:href="#DejaVuSans-30" x="190.869141"/>
      </g>
     </g>
    </g>
    <g id="text_7">
     <!-- Residual -->
     <g transform="translate(569.284375 355.084563) scale(0.1 -0.1)">
      <defs>
       <path id="DejaVuSans-52" d="M 2841 2188 
Q 3044 2119 3236 1894 
Q 3428 1669 3622 1275 
L 4263 0 
L 3584 0 
L 2988 1197 
Q 2756 1666 2539 1819 
Q 2322 1972 1947 1972 
L 1259 1972 
L 1259 0 
L 628 0 
L 628 4666 
L 2053 4666 
Q 2853 4666 3247 4331 
Q 3641 3997 3641 3322 
Q 3641 2881 3436 2590 
Q 3231 2300 2841 2188 
z
M 1259 4147 
L 1259 2491 
L 2053 2491 
Q 2509 2491 2742 2702 
Q 2975 2913 2975 3322 
Q 2975 3731 2742 3939 
Q 2509 4147 2053 4147 
L 1259 4147 
z
" transform="scale(0.015625)"/>
       <path id="DejaVuSans-65" d="M 3597 1894 
L 3597 1613 
L 953 1613 
Q 991 1019 1311 708 
Q 1631 397 2203 397 
Q 2534 397 2845 478 
Q 3156 559 3463 722 
L 3463 178 
Q 3153 47 2828 -22 
Q 2503 -91 2169 -91 
Q 1331 -91 842 396 
Q 353 884 353 1716 
Q 353 2575 817 3079 
Q 1281 3584 2069 3584 
Q 2775 3584 3186 3129 
Q 3597 2675 3597 1894 
z
M 3022 2063 
Q 3016 2534 2758 2815 
Q 2500 3097 2075 3097 
Q 1594 3097 1305 2825 
Q 1016 2553 972 2059 
L 3022 2063 
z
" transform="scale(0.015625)"/>
       <path id="DejaVuSans-73" d="M 2834 3397 
L 2834 2853 
Q 2591 2978 2328 3040 
Q 2066 3103 1784 3103 
Q 1356 3103 1142 2972 
Q 928 2841 928 2578 
Q 928 2378 1081 2264 
Q 1234 2150 1697 2047 
L 1894 2003 
Q 2506 1872 2764 1633 
Q 3022 1394 3022 966 
Q 3022 478 2636 193 
Q 2250 -91 1575 -91 
Q 1294 -91 989 -36 
Q 684 19 347 128 
L 347 722 
Q 666 556 975 473 
Q 1284 391 1588 391 
Q 1994 391 2212 530 
Q 2431 669 2431 922 
Q 2431 1156 2273 1281 
Q 2116 1406 1581 1522 
L 1381 1569 
Q 847 1681 609 1914 
Q 372 2147 372 2553 
Q 372 3047 722 3315 
Q 1072 3584 1716 3584 
Q 2034 3584 2315 3537 
Q 2597 3491 2834 3397 
z
" transform="scale(0.015625)"/>
       <path id="DejaVuSans-69" d="M 603 3500 
L 1178 3500 
L 1178 0 
L 603 0 
L 603 3500 
z
M 603 4863 
L 1178 4863 
L 1178 4134 
L 603 4134 
L 603 4863 
z
" transform="scale(0.015625)"/>
       <path id="DejaVuSans-64" d="M 2906 2969 
L 2906 4863 
L 3481 4863 
L 3481 0 
L 2906 0 
L 2906 525 
Q 2725 213 2448 61 
Q 2172 -91 1784 -91 
Q 1150 -91 751 415 
Q 353 922 353 1747 
Q 353 2572 751 3078 
Q 1150 3584 1784 3584 
Q 2172 3584 2448 3432 
Q 2725 3281 2906 2969 
z
M 947 1747 
Q 947 1113 1208 752 
Q 1469 391 1925 391 
Q 2381 391 2643 752 
Q 2906 1113 2906 1747 
Q 2906 2381 2643 2742 
Q 2381 3103 1925 3103 
Q 1469 3103 1208 2742 
Q 947 2381 947 1747 
z
" transform="scale(0.015625)"/>
       <path id="DejaVuSans-75" d="M 544 1381 
L 544 3500 
L 1119 3500 
L 1119 1403 
Q 1119 906 1312 657 
Q 1506 409 1894 409 
Q 2359 409 2629 706 
Q 2900 1003 2900 1516 
L 2900 3500 
L 3475 3500 
L 3475 0 
L 2900 0 
L 2900 538 
Q 2691 219 2414 64 
Q 2138 -91 1772 -91 
Q 1169 -91 856 284 
Q 544 659 544 1381 
z
M 1991 3584 
L 1991 3584 
z
" transform="scale(0.015625)"/>
       <path id="DejaVuSans-61" d="M 2194 1759 
Q 1497 1759 1228 1600 
Q 959 1441 959 1056 
Q 959 750 1161 570 
Q 1363 391 1709 391 
Q 2188 391 2477 730 
Q 2766 1069 2766 1631 
L 2766 1759 
L 2194 1759 
z
M 3341 1997 
L 3341 0 
L 2766 0 
L 2766 531 
Q 2569 213 2275 61 
Q 1981 -91 1556 -91 
Q 1019 -91 701 211 
Q 384 513 384 1019 
Q 384 1609 779 1909 
Q 1175 2209 1959 2209 
L 2766 2209 
L 2766 2266 
Q 2766 2663 2505 2880 
Q 2244 3097 1772 3097 
Q 1472 3097 1187 3025 
Q 903 2953 641 2809 
L 641 3341 
Q 956 3463 1253 3523 
Q 1550 3584 1831 3584 
Q 2591 3584 2966 3190 
Q 3341 2797 3341 1997 
z
" transform="scale(0.015625)"/>
       <path id="DejaVuSans-6c" d="M 603 4863 
L 1178 4863 
L 1178 0 
L 603 0 
L 603 4863 
z
" transform="scale(0.015625)"/>
      </defs>
      <use xlink:href="#DejaVuSans-52"/>
      <use xlink:href="#DejaVuSans-65" x="64.982422"/>
      <use xlink:href="#DejaVuSans-73" x="126.505859"/>
      <use xlink:href="#DejaVuSans-69" x="178.605469"/>
      <use xlink:href="#DejaVuSans-64" x="206.388672"/>
      <use xlink:href="#DejaVuSans-75" x="269.865234"/>
      <use xlink:href="#DejaVuSans-61" x="333.244141"/>
      <use xlink:href="#DejaVuSans-6c" x="394.523438"/>
     </g>
    </g>
   </g>
   <g id="matplotlib.axis_2">
    <g id="ytick_1">
     <g id="line2d_7">
      <defs>
       <path id="m0308c68a6e" d="M 0 0 
L -3.5 0 
" style="stroke: #000000; stroke-width: 0.8"/>
      </defs>
      <g>
       <use xlink:href="#m0308c68a6e" x="144" y="310.386" style="stroke: #000000; stroke-width: 0.8"/>
      </g>
     </g>
     <g id="text_8">
      <!-- 1.C.105.1.1 -->
      <g transform="translate(79.129687 314.185219) scale(0.1 -0.1)">
       <defs>
        <path id="DejaVuSans-2e" d="M 684 794 
L 1344 794 
L 1344 0 
L 684 0 
L 684 794 
z
" transform="scale(0.015625)"/>
        <path id="DejaVuSans-43" d="M 4122 4306 
L 4122 3641 
Q 3803 3938 3442 4084 
Q 3081 4231 2675 4231 
Q 1875 4231 1450 3742 
Q 1025 3253 1025 2328 
Q 1025 1406 1450 917 
Q 1875 428 2675 428 
Q 3081 428 3442 575 
Q 3803 722 4122 1019 
L 4122 359 
Q 3791 134 3420 21 
Q 3050 -91 2638 -91 
Q 1578 -91 968 557 
Q 359 1206 359 2328 
Q 359 3453 968 4101 
Q 1578 4750 2638 4750 
Q 3056 4750 3426 4639 
Q 3797 4528 4122 4306 
z
" transform="scale(0.015625)"/>
       </defs>
       <use xlink:href="#DejaVuSans-31"/>
       <use xlink:href="#DejaVuSans-2e" x="63.623047"/>
       <use xlink:href="#DejaVuSans-43" x="95.410156"/>
       <use xlink:href="#DejaVuSans-2e" x="165.234375"/>
       <use xlink:href="#DejaVuSans-31" x="197.021484"/>
       <use xlink:href="#DejaVuSans-30" x="260.644531"/>
       <use xlink:href="#DejaVuSans-35" x="324.267578"/>
       <use xlink:href="#DejaVuSans-2e" x="387.890625"/>
       <use xlink:href="#DejaVuSans-31" x="419.677734"/>
       <use xlink:href="#DejaVuSans-2e" x="483.300781"/>
       <use xlink:href="#DejaVuSans-31" x="515.087891"/>
      </g>
     </g>
    </g>
    <g id="ytick_2">
     <g id="line2d_8">
      <g>
       <use xlink:href="#m0308c68a6e" x="144" y="292.536" style="stroke: #000000; stroke-width: 0.8"/>
      </g>
     </g>
     <g id="text_9">
      <!-- 1.C.105.1.2 -->
      <g transform="translate(79.129687 296.335219) scale(0.1 -0.1)">
       <use xlink:href="#DejaVuSans-31"/>
       <use xlink:href="#DejaVuSans-2e" x="63.623047"/>
       <use xlink:href="#DejaVuSans-43" x="95.410156"/>
       <use xlink:href="#DejaVuSans-2e" x="165.234375"/>
       <use xlink:href="#DejaVuSans-31" x="197.021484"/>
       <use xlink:href="#DejaVuSans-30" x="260.644531"/>
       <use xlink:href="#DejaVuSans-35" x="324.267578"/>
       <use xlink:href="#DejaVuSans-2e" x="387.890625"/>
       <use xlink:href="#DejaVuSans-31" x="419.677734"/>
       <use xlink:href="#DejaVuSans-2e" x="483.300781"/>
       <use xlink:href="#DejaVuSans-32" x="515.087891"/>
      </g>
     </g>
    </g>
    <g id="ytick_3">
     <g id="line2d_9">
      <g>
       <use xlink:href="#m0308c68a6e" x="144" y="274.686" style="stroke: #000000; stroke-width: 0.8"/>
      </g>
     </g>
     <g id="text_10">
      <!-- 1.C.105.1.3 -->
      <g transform="translate(79.129687 278.485219) scale(0.1 -0.1)">
       <use xlink:href="#DejaVuSans-31"/>
       <use xlink:href="#DejaVuSans-2e" x="63.623047"/>
       <use xlink:href="#DejaVuSans-43" x="95.410156"/>
       <use xlink:href="#DejaVuSans-2e" x="165.234375"/>
       <use xlink:href="#DejaVuSans-31" x="197.021484"/>
       <use xlink:href="#DejaVuSans-30" x="260.644531"/>
       <use xlink:href="#DejaVuSans-35" x="324.267578"/>
       <use xlink:href="#DejaVuSans-2e" x="387.890625"/>
       <use xlink:href="#DejaVuSans-31" x="419.677734"/>
       <use xlink:href="#DejaVuSans-2e" x="483.300781"/>
       <use xlink:href="#DejaVuSans-33" x="515.087891"/>
      </g>
     </g>
    </g>
    <g id="ytick_4">
     <g id="line2d_10">
      <g>
       <use xlink:href="#m0308c68a6e" x="144" y="256.836" style="stroke: #000000; stroke-width: 0.8"/>
      </g>
     </g>
     <g id="text_11">
      <!-- 1.C.105.2.1 -->
      <g transform="translate(79.129687 260.635219) scale(0.1 -0.1)">
       <use xlink:href="#DejaVuSans-31"/>
       <use xlink:href="#DejaVuSans-2e" x="63.623047"/>
       <use xlink:href="#DejaVuSans-43" x="95.410156"/>
       <use xlink:href="#DejaVuSans-2e" x="165.234375"/>
       <use xlink:href="#DejaVuSans-31" x="197.021484"/>
       <use xlink:href="#DejaVuSans-30" x="260.644531"/>
       <use xlink:href="#DejaVuSans-35" x="324.267578"/>
       <use xlink:href="#DejaVuSans-2e" x="387.890625"/>
       <use xlink:href="#DejaVuSans-32" x="419.677734"/>
       <use xlink:href="#DejaVuSans-2e" x="483.300781"/>
       <use xlink:href="#DejaVuSans-31" x="515.087891"/>
      </g>
     </g>
    </g>
    <g id="ytick_5">
     <g id="line2d_11">
      <g>
       <use xlink:href="#m0308c68a6e" x="144" y="238.986" style="stroke: #000000; stroke-width: 0.8"/>
      </g>
     </g>
     <g id="text_12">
      <!-- 1.C.105.2.10 -->
      <g transform="translate(72.767187 242.785219) scale(0.1 -0.1)">
       <use xlink:href="#DejaVuSans-31"/>
       <use xlink:href="#DejaVuSans-2e" x="63.623047"/>
       <use xlink:href="#DejaVuSans-43" x="95.410156"/>
       <use xlink:href="#DejaVuSans-2e" x="165.234375"/>
       <use xlink:href="#DejaVuSans-31" x="197.021484"/>
       <use xlink:href="#DejaVuSans-30" x="260.644531"/>
       <use xlink:href="#DejaVuSans-35" x="324.267578"/>
       <use xlink:href="#DejaVuSans-2e" x="387.890625"/>
       <use xlink:href="#DejaVuSans-32" x="419.677734"/>
       <use xlink:href="#DejaVuSans-2e" x="483.300781"/>
       <use xlink:href="#DejaVuSans-31" x="515.087891"/>
       <use xlink:href="#DejaVuSans-30" x="578.710938"/>
      </g>
     </g>
    </g>
    <g id="ytick_6">
     <g id="line2d_12">
      <g>
       <use xlink:href="#m0308c68a6e" x="144" y="221.136" style="stroke: #000000; stroke-width: 0.8"/>
      </g>
     </g>
     <g id="text_13">
      <!-- 1.C.105.2.11 -->
      <g transform="translate(72.767187 224.935219) scale(0.1 -0.1)">
       <use xlink:href="#DejaVuSans-31"/>
       <use xlink:href="#DejaVuSans-2e" x="63.623047"/>
       <use xlink:href="#DejaVuSans-43" x="95.410156"/>
       <use xlink:href="#DejaVuSans-2e" x="165.234375"/>
       <use xlink:href="#DejaVuSans-31" x="197.021484"/>
       <use xlink:href="#DejaVuSans-30" x="260.644531"/>
       <use xlink:href="#DejaVuSans-35" x="324.267578"/>
       <use xlink:href="#DejaVuSans-2e" x="387.890625"/>
       <use xlink:href="#DejaVuSans-32" x="419.677734"/>
       <use xlink:href="#DejaVuSans-2e" x="483.300781"/>
       <use xlink:href="#DejaVuSans-31" x="515.087891"/>
       <use xlink:href="#DejaVuSans-31" x="578.710938"/>
      </g>
     </g>
    </g>
    <g id="ytick_7">
     <g id="line2d_13">
      <g>
       <use xlink:href="#m0308c68a6e" x="144" y="203.286" style="stroke: #000000; stroke-width: 0.8"/>
      </g>
     </g>
     <g id="text_14">
      <!-- 1.C.105.2.13 -->
      <g transform="translate(72.767187 207.085219) scale(0.1 -0.1)">
       <use xlink:href="#DejaVuSans-31"/>
       <use xlink:href="#DejaVuSans-2e" x="63.623047"/>
       <use xlink:href="#DejaVuSans-43" x="95.410156"/>
       <use xlink:href="#DejaVuSans-2e" x="165.234375"/>
       <use xlink:href="#DejaVuSans-31" x="197.021484"/>
       <use xlink:href="#DejaVuSans-30" x="260.644531"/>
       <use xlink:href="#DejaVuSans-35" x="324.267578"/>
       <use xlink:href="#DejaVuSans-2e" x="387.890625"/>
       <use xlink:href="#DejaVuSans-32" x="419.677734"/>
       <use xlink:href="#DejaVuSans-2e" x="483.300781"/>
       <use xlink:href="#DejaVuSans-31" x="515.087891"/>
       <use xlink:href="#DejaVuSans-33" x="578.710938"/>
      </g>
     </g>
    </g>
    <g id="ytick_8">
     <g id="line2d_14">
      <g>
       <use xlink:href="#m0308c68a6e" x="144" y="185.436" style="stroke: #000000; stroke-width: 0.8"/>
      </g>
     </g>
     <g id="text_15">
      <!-- 1.C.105.2.17 -->
      <g transform="translate(72.767187 189.235219) scale(0.1 -0.1)">
       <defs>
        <path id="DejaVuSans-37" d="M 525 4666 
L 3525 4666 
L 3525 4397 
L 1831 0 
L 1172 0 
L 2766 4134 
L 525 4134 
L 525 4666 
z
" transform="scale(0.015625)"/>
       </defs>
       <use xlink:href="#DejaVuSans-31"/>
       <use xlink:href="#DejaVuSans-2e" x="63.623047"/>
       <use xlink:href="#DejaVuSans-43" x="95.410156"/>
       <use xlink:href="#DejaVuSans-2e" x="165.234375"/>
       <use xlink:href="#DejaVuSans-31" x="197.021484"/>
       <use xlink:href="#DejaVuSans-30" x="260.644531"/>
       <use xlink:href="#DejaVuSans-35" x="324.267578"/>
       <use xlink:href="#DejaVuSans-2e" x="387.890625"/>
       <use xlink:href="#DejaVuSans-32" x="419.677734"/>
       <use xlink:href="#DejaVuSans-2e" x="483.300781"/>
       <use xlink:href="#DejaVuSans-31" x="515.087891"/>
       <use xlink:href="#DejaVuSans-37" x="578.710938"/>
      </g>
     </g>
    </g>
    <g id="ytick_9">
     <g id="line2d_15">
      <g>
       <use xlink:href="#m0308c68a6e" x="144" y="167.586" style="stroke: #000000; stroke-width: 0.8"/>
      </g>
     </g>
     <g id="text_16">
      <!-- 1.C.105.2.2 -->
      <g transform="translate(79.129687 171.385219) scale(0.1 -0.1)">
       <use xlink:href="#DejaVuSans-31"/>
       <use xlink:href="#DejaVuSans-2e" x="63.623047"/>
       <use xlink:href="#DejaVuSans-43" x="95.410156"/>
       <use xlink:href="#DejaVuSans-2e" x="165.234375"/>
       <use xlink:href="#DejaVuSans-31" x="197.021484"/>
       <use xlink:href="#DejaVuSans-30" x="260.644531"/>
       <use xlink:href="#DejaVuSans-35" x="324.267578"/>
       <use xlink:href="#DejaVuSans-2e" x="387.890625"/>
       <use xlink:href="#DejaVuSans-32" x="419.677734"/>
       <use xlink:href="#DejaVuSans-2e" x="483.300781"/>
       <use xlink:href="#DejaVuSans-32" x="515.087891"/>
      </g>
     </g>
    </g>
    <g id="ytick_10">
     <g id="line2d_16">
      <g>
       <use xlink:href="#m0308c68a6e" x="144" y="149.736" style="stroke: #000000; stroke-width: 0.8"/>
      </g>
     </g>
     <g id="text_17">
      <!-- 1.C.105.2.3 -->
      <g transform="translate(79.129687 153.535219) scale(0.1 -0.1)">
       <use xlink:href="#DejaVuSans-31"/>
       <use xlink:href="#DejaVuSans-2e" x="63.623047"/>
       <use xlink:href="#DejaVuSans-43" x="95.410156"/>
       <use xlink:href="#DejaVuSans-2e" x="165.234375"/>
       <use xlink:href="#DejaVuSans-31" x="197.021484"/>
       <use xlink:href="#DejaVuSans-30" x="260.644531"/>
       <use xlink:href="#DejaVuSans-35" x="324.267578"/>
       <use xlink:href="#DejaVuSans-2e" x="387.890625"/>
       <use xlink:href="#DejaVuSans-32" x="419.677734"/>
       <use xlink:href="#DejaVuSans-2e" x="483.300781"/>
       <use xlink:href="#DejaVuSans-33" x="515.087891"/>
      </g>
     </g>
    </g>
    <g id="ytick_11">
     <g id="line2d_17">
      <g>
       <use xlink:href="#m0308c68a6e" x="144" y="131.886" style="stroke: #000000; stroke-width: 0.8"/>
      </g>
     </g>
     <g id="text_18">
      <!-- 1.C.105.2.5 -->
      <g transform="translate(79.129687 135.685219) scale(0.1 -0.1)">
       <use xlink:href="#DejaVuSans-31"/>
       <use xlink:href="#DejaVuSans-2e" x="63.623047"/>
       <use xlink:href="#DejaVuSans-43" x="95.410156"/>
       <use xlink:href="#DejaVuSans-2e" x="165.234375"/>
       <use xlink:href="#DejaVuSans-31" x="197.021484"/>
       <use xlink:href="#DejaVuSans-30" x="260.644531"/>
       <use xlink:href="#DejaVuSans-35" x="324.267578"/>
       <use xlink:href="#DejaVuSans-2e" x="387.890625"/>
       <use xlink:href="#DejaVuSans-32" x="419.677734"/>
       <use xlink:href="#DejaVuSans-2e" x="483.300781"/>
       <use xlink:href="#DejaVuSans-35" x="515.087891"/>
      </g>
     </g>
    </g>
    <g id="ytick_12">
     <g id="line2d_18">
      <g>
       <use xlink:href="#m0308c68a6e" x="144" y="114.036" style="stroke: #000000; stroke-width: 0.8"/>
      </g>
     </g>
     <g id="text_19">
      <!-- 1.C.105.2.6 -->
      <g transform="translate(79.129687 117.835219) scale(0.1 -0.1)">
       <defs>
        <path id="DejaVuSans-36" d="M 2113 2584 
Q 1688 2584 1439 2293 
Q 1191 2003 1191 1497 
Q 1191 994 1439 701 
Q 1688 409 2113 409 
Q 2538 409 2786 701 
Q 3034 994 3034 1497 
Q 3034 2003 2786 2293 
Q 2538 2584 2113 2584 
z
M 3366 4563 
L 3366 3988 
Q 3128 4100 2886 4159 
Q 2644 4219 2406 4219 
Q 1781 4219 1451 3797 
Q 1122 3375 1075 2522 
Q 1259 2794 1537 2939 
Q 1816 3084 2150 3084 
Q 2853 3084 3261 2657 
Q 3669 2231 3669 1497 
Q 3669 778 3244 343 
Q 2819 -91 2113 -91 
Q 1303 -91 875 529 
Q 447 1150 447 2328 
Q 447 3434 972 4092 
Q 1497 4750 2381 4750 
Q 2619 4750 2861 4703 
Q 3103 4656 3366 4563 
z
" transform="scale(0.015625)"/>
       </defs>
       <use xlink:href="#DejaVuSans-31"/>
       <use xlink:href="#DejaVuSans-2e" x="63.623047"/>
       <use xlink:href="#DejaVuSans-43" x="95.410156"/>
       <use xlink:href="#DejaVuSans-2e" x="165.234375"/>
       <use xlink:href="#DejaVuSans-31" x="197.021484"/>
       <use xlink:href="#DejaVuSans-30" x="260.644531"/>
       <use xlink:href="#DejaVuSans-35" x="324.267578"/>
       <use xlink:href="#DejaVuSans-2e" x="387.890625"/>
       <use xlink:href="#DejaVuSans-32" x="419.677734"/>
       <use xlink:href="#DejaVuSans-2e" x="483.300781"/>
       <use xlink:href="#DejaVuSans-36" x="515.087891"/>
      </g>
     </g>
    </g>
    <g id="ytick_13">
     <g id="line2d_19">
      <g>
       <use xlink:href="#m0308c68a6e" x="144" y="96.186" style="stroke: #000000; stroke-width: 0.8"/>
      </g>
     </g>
     <g id="text_20">
      <!-- 1.C.105.2.7 -->
      <g transform="translate(79.129687 99.985219) scale(0.1 -0.1)">
       <use xlink:href="#DejaVuSans-31"/>
       <use xlink:href="#DejaVuSans-2e" x="63.623047"/>
       <use xlink:href="#DejaVuSans-43" x="95.410156"/>
       <use xlink:href="#DejaVuSans-2e" x="165.234375"/>
       <use xlink:href="#DejaVuSans-31" x="197.021484"/>
       <use xlink:href="#DejaVuSans-30" x="260.644531"/>
       <use xlink:href="#DejaVuSans-35" x="324.267578"/>
       <use xlink:href="#DejaVuSans-2e" x="387.890625"/>
       <use xlink:href="#DejaVuSans-32" x="419.677734"/>
       <use xlink:href="#DejaVuSans-2e" x="483.300781"/>
       <use xlink:href="#DejaVuSans-37" x="515.087891"/>
      </g>
     </g>
    </g>
    <g id="ytick_14">
     <g id="line2d_20">
      <g>
       <use xlink:href="#m0308c68a6e" x="144" y="78.336" style="stroke: #000000; stroke-width: 0.8"/>
      </g>
     </g>
     <g id="text_21">
      <!-- 1.C.105.2.8 -->
      <g transform="translate(79.129687 82.135219) scale(0.1 -0.1)">
       <defs>
        <path id="DejaVuSans-38" d="M 2034 2216 
Q 1584 2216 1326 1975 
Q 1069 1734 1069 1313 
Q 1069 891 1326 650 
Q 1584 409 2034 409 
Q 2484 409 2743 651 
Q 3003 894 3003 1313 
Q 3003 1734 2745 1975 
Q 2488 2216 2034 2216 
z
M 1403 2484 
Q 997 2584 770 2862 
Q 544 3141 544 3541 
Q 544 4100 942 4425 
Q 1341 4750 2034 4750 
Q 2731 4750 3128 4425 
Q 3525 4100 3525 3541 
Q 3525 3141 3298 2862 
Q 3072 2584 2669 2484 
Q 3125 2378 3379 2068 
Q 3634 1759 3634 1313 
Q 3634 634 3220 271 
Q 2806 -91 2034 -91 
Q 1263 -91 848 271 
Q 434 634 434 1313 
Q 434 1759 690 2068 
Q 947 2378 1403 2484 
z
M 1172 3481 
Q 1172 3119 1398 2916 
Q 1625 2713 2034 2713 
Q 2441 2713 2670 2916 
Q 2900 3119 2900 3481 
Q 2900 3844 2670 4047 
Q 2441 4250 2034 4250 
Q 1625 4250 1398 4047 
Q 1172 3844 1172 3481 
z
" transform="scale(0.015625)"/>
       </defs>
       <use xlink:href="#DejaVuSans-31"/>
       <use xlink:href="#DejaVuSans-2e" x="63.623047"/>
       <use xlink:href="#DejaVuSans-43" x="95.410156"/>
       <use xlink:href="#DejaVuSans-2e" x="165.234375"/>
       <use xlink:href="#DejaVuSans-31" x="197.021484"/>
       <use xlink:href="#DejaVuSans-30" x="260.644531"/>
       <use xlink:href="#DejaVuSans-35" x="324.267578"/>
       <use xlink:href="#DejaVuSans-2e" x="387.890625"/>
       <use xlink:href="#DejaVuSans-32" x="419.677734"/>
       <use xlink:href="#DejaVuSans-2e" x="483.300781"/>
       <use xlink:href="#DejaVuSans-38" x="515.087891"/>
      </g>
     </g>
    </g>
    <g id="ytick_15">
     <g id="line2d_21">
      <g>
       <use xlink:href="#m0308c68a6e" x="144" y="60.486" style="stroke: #000000; stroke-width: 0.8"/>
      </g>
     </g>
     <g id="text_22">
      <!-- 1.C.105.2.9 -->
      <g transform="translate(79.129687 64.285219) scale(0.1 -0.1)">
       <defs>
        <path id="DejaVuSans-39" d="M 703 97 
L 703 672 
Q 941 559 1184 500 
Q 1428 441 1663 441 
Q 2288 441 2617 861 
Q 2947 1281 2994 2138 
Q 2813 1869 2534 1725 
Q 2256 1581 1919 1581 
Q 1219 1581 811 2004 
Q 403 2428 403 3163 
Q 403 3881 828 4315 
Q 1253 4750 1959 4750 
Q 2769 4750 3195 4129 
Q 3622 3509 3622 2328 
Q 3622 1225 3098 567 
Q 2575 -91 1691 -91 
Q 1453 -91 1209 -44 
Q 966 3 703 97 
z
M 1959 2075 
Q 2384 2075 2632 2365 
Q 2881 2656 2881 3163 
Q 2881 3666 2632 3958 
Q 2384 4250 1959 4250 
Q 1534 4250 1286 3958 
Q 1038 3666 1038 3163 
Q 1038 2656 1286 2365 
Q 1534 2075 1959 2075 
z
" transform="scale(0.015625)"/>
       </defs>
       <use xlink:href="#DejaVuSans-31"/>
       <use xlink:href="#DejaVuSans-2e" x="63.623047"/>
       <use xlink:href="#DejaVuSans-43" x="95.410156"/>
       <use xlink:href="#DejaVuSans-2e" x="165.234375"/>
       <use xlink:href="#DejaVuSans-31" x="197.021484"/>
       <use xlink:href="#DejaVuSans-30" x="260.644531"/>
       <use xlink:href="#DejaVuSans-35" x="324.267578"/>
       <use xlink:href="#DejaVuSans-2e" x="387.890625"/>
       <use xlink:href="#DejaVuSans-32" x="419.677734"/>
       <use xlink:href="#DejaVuSans-2e" x="483.300781"/>
       <use xlink:href="#DejaVuSans-39" x="515.087891"/>
      </g>
     </g>
    </g>
   </g>
   <g id="patch_195">
    <path d="M 144 326.808 
L 144 44.064 
" style="fill: none; stroke: #000000; stroke-width: 0.8; stroke-linejoin: miter; stroke-linecap: square"/>
   </g>
   <g id="patch_196">
    <path d="M 1036.8 326.808 
L 1036.8 44.064 
" style="fill: none; stroke: #000000; stroke-width: 0.8; stroke-linejoin: miter; stroke-linecap: square"/>
   </g>
   <g id="patch_197">
    <path d="M 144 326.808 
L 1036.8 326.808 
" style="fill: none; stroke: #000000; stroke-width: 0.8; stroke-linejoin: miter; stroke-linecap: square"/>
   </g>
   <g id="patch_198">
    <path d="M 144 44.064 
L 1036.8 44.064 
" style="fill: none; stroke: #000000; stroke-width: 0.8; stroke-linejoin: miter; stroke-linecap: square"/>
   </g>
   <g id="text_23">
    <!-- 1.C.105 Summary -->
    <g transform="translate(536.224687 38.064) scale(0.12 -0.12)">
     <defs>
      <path id="DejaVuSans-20" transform="scale(0.015625)"/>
      <path id="DejaVuSans-53" d="M 3425 4513 
L 3425 3897 
Q 3066 4069 2747 4153 
Q 2428 4238 2131 4238 
Q 1616 4238 1336 4038 
Q 1056 3838 1056 3469 
Q 1056 3159 1242 3001 
Q 1428 2844 1947 2747 
L 2328 2669 
Q 3034 2534 3370 2195 
Q 3706 1856 3706 1288 
Q 3706 609 3251 259 
Q 2797 -91 1919 -91 
Q 1588 -91 1214 -16 
Q 841 59 441 206 
L 441 856 
Q 825 641 1194 531 
Q 1563 422 1919 422 
Q 2459 422 2753 634 
Q 3047 847 3047 1241 
Q 3047 1584 2836 1778 
Q 2625 1972 2144 2069 
L 1759 2144 
Q 1053 2284 737 2584 
Q 422 2884 422 3419 
Q 422 4038 858 4394 
Q 1294 4750 2059 4750 
Q 2388 4750 2728 4690 
Q 3069 4631 3425 4513 
z
" transform="scale(0.015625)"/>
      <path id="DejaVuSans-6d" d="M 3328 2828 
Q 3544 3216 3844 3400 
Q 4144 3584 4550 3584 
Q 5097 3584 5394 3201 
Q 5691 2819 5691 2113 
L 5691 0 
L 5113 0 
L 5113 2094 
Q 5113 2597 4934 2840 
Q 4756 3084 4391 3084 
Q 3944 3084 3684 2787 
Q 3425 2491 3425 1978 
L 3425 0 
L 2847 0 
L 2847 2094 
Q 2847 2600 2669 2842 
Q 2491 3084 2119 3084 
Q 1678 3084 1418 2786 
Q 1159 2488 1159 1978 
L 1159 0 
L 581 0 
L 581 3500 
L 1159 3500 
L 1159 2956 
Q 1356 3278 1631 3431 
Q 1906 3584 2284 3584 
Q 2666 3584 2933 3390 
Q 3200 3197 3328 2828 
z
" transform="scale(0.015625)"/>
      <path id="DejaVuSans-72" d="M 2631 2963 
Q 2534 3019 2420 3045 
Q 2306 3072 2169 3072 
Q 1681 3072 1420 2755 
Q 1159 2438 1159 1844 
L 1159 0 
L 581 0 
L 581 3500 
L 1159 3500 
L 1159 2956 
Q 1341 3275 1631 3429 
Q 1922 3584 2338 3584 
Q 2397 3584 2469 3576 
Q 2541 3569 2628 3553 
L 2631 2963 
z
" transform="scale(0.015625)"/>
      <path id="DejaVuSans-79" d="M 2059 -325 
Q 1816 -950 1584 -1140 
Q 1353 -1331 966 -1331 
L 506 -1331 
L 506 -850 
L 844 -850 
Q 1081 -850 1212 -737 
Q 1344 -625 1503 -206 
L 1606 56 
L 191 3500 
L 800 3500 
L 1894 763 
L 2988 3500 
L 3597 3500 
L 2059 -325 
z
" transform="scale(0.015625)"/>
     </defs>
     <use xlink:href="#DejaVuSans-31"/>
     <use xlink:href="#DejaVuSans-2e" x="63.623047"/>
     <use xlink:href="#DejaVuSans-43" x="95.410156"/>
     <use xlink:href="#DejaVuSans-2e" x="165.234375"/>
     <use xlink:href="#DejaVuSans-31" x="197.021484"/>
     <use xlink:href="#DejaVuSans-30" x="260.644531"/>
     <use xlink:href="#DejaVuSans-35" x="324.267578"/>
     <use xlink:href="#DejaVuSans-20" x="387.890625"/>
     <use xlink:href="#DejaVuSans-53" x="419.677734"/>
     <use xlink:href="#DejaVuSans-75" x="483.154297"/>
     <use xlink:href="#DejaVuSans-6d" x="546.533203"/>
     <use xlink:href="#DejaVuSans-6d" x="643.945312"/>
     <use xlink:href="#DejaVuSans-61" x="741.357422"/>
     <use xlink:href="#DejaVuSans-72" x="802.636719"/>
     <use xlink:href="#DejaVuSans-79" x="843.75"/>
    </g>
   </g>
  </g>
 </g>
 <defs>
  <clipPath id="padc1044cd4">
   <rect x="144" y="44.064" width="892.8" height="282.744"/>
  </clipPath>
 </defs>
</svg>
