<?xml version="1.0" encoding="utf-8" standalone="no"?>
<!DOCTYPE svg PUBLIC "-//W3C//DTD SVG 1.1//EN"
  "http://www.w3.org/Graphics/SVG/1.1/DTD/svg11.dtd">
<svg xmlns:xlink="http://www.w3.org/1999/xlink" width="1152pt" height="360pt" viewBox="0 0 1152 360" xmlns="http://www.w3.org/2000/svg" version="1.1">
 <metadata>
  <rdf:RDF xmlns:dc="http://purl.org/dc/elements/1.1/" xmlns:cc="http://creativecommons.org/ns#" xmlns:rdf="http://www.w3.org/1999/02/22-rdf-syntax-ns#">
   <cc:Work>
    <dc:type rdf:resource="http://purl.org/dc/dcmitype/StillImage"/>
    <dc:date>2024-10-10T19:12:10.562155</dc:date>
    <dc:format>image/svg+xml</dc:format>
    <dc:creator>
     <cc:Agent>
      <dc:title>Matplotlib v3.9.2, https://matplotlib.org/</dc:title>
     </cc:Agent>
    </dc:creator>
   </cc:Work>
  </rdf:RDF>
 </metadata>
 <defs>
  <style type="text/css">*{stroke-linejoin: round; stroke-linecap: butt}</style>
 </defs>
 <g id="figure_1">
  <g id="patch_1">
   <path d="M 0 360 
L 1152 360 
L 1152 0 
L 0 0 
z
" style="fill: #ffffff"/>
  </g>
  <g id="axes_1">
   <g id="patch_2">
    <path d="M 144 320.4 
L 1036.8 320.4 
L 1036.8 43.2 
L 144 43.2 
z
" style="fill: #ffffff"/>
   </g>
   <g id="patch_3">
    <path d="M 144 305.12069 
L 197.409907 305.12069 
L 197.409907 304.686207 
L 144 304.686207 
z
" clip-path="url(#pbbec27aea9)" style="fill: #0000ff"/>
   </g>
   <g id="patch_4">
    <path d="M 199.546303 307.8 
L 511.460158 307.8 
L 511.460158 302.006897 
L 199.546303 302.006897 
z
" clip-path="url(#pbbec27aea9)" style="fill: #0000ff"/>
   </g>
   <g id="patch_5">
    <path d="M 227.319454 307.8 
L 507.187365 307.8 
L 507.187365 302.006897 
L 227.319454 302.006897 
z
" clip-path="url(#pbbec27aea9)" style="fill: #0000ff"/>
   </g>
   <g id="patch_6">
    <path d="M 227.319454 307.8 
L 507.187365 307.8 
L 507.187365 302.006897 
L 227.319454 302.006897 
z
" clip-path="url(#pbbec27aea9)" style="fill: #0000ff"/>
   </g>
   <g id="patch_7">
    <path d="M 227.319454 307.8 
L 507.187365 307.8 
L 507.187365 302.006897 
L 227.319454 302.006897 
z
" clip-path="url(#pbbec27aea9)" style="fill: #0000ff"/>
   </g>
   <g id="patch_8">
    <path d="M 227.319454 307.8 
L 507.187365 307.8 
L 507.187365 302.006897 
L 227.319454 302.006897 
z
" clip-path="url(#pbbec27aea9)" style="fill: #0000ff"/>
   </g>
   <g id="patch_9">
    <path d="M 227.319454 307.8 
L 509.323762 307.8 
L 509.323762 302.006897 
L 227.319454 302.006897 
z
" clip-path="url(#pbbec27aea9)" style="fill: #0000ff"/>
   </g>
   <g id="patch_10">
    <path d="M 227.319454 307.8 
L 509.323762 307.8 
L 509.323762 302.006897 
L 227.319454 302.006897 
z
" clip-path="url(#pbbec27aea9)" style="fill: #0000ff"/>
   </g>
   <g id="patch_11">
    <path d="M 227.319454 307.8 
L 507.187365 307.8 
L 507.187365 302.006897 
L 227.319454 302.006897 
z
" clip-path="url(#pbbec27aea9)" style="fill: #0000ff"/>
   </g>
   <g id="patch_12">
    <path d="M 248.683417 307.8 
L 509.323762 307.8 
L 509.323762 302.006897 
L 248.683417 302.006897 
z
" clip-path="url(#pbbec27aea9)" style="fill: #0000ff"/>
   </g>
   <g id="patch_13">
    <path d="M 250.819813 307.8 
L 509.323762 307.8 
L 509.323762 302.006897 
L 250.819813 302.006897 
z
" clip-path="url(#pbbec27aea9)" style="fill: #0000ff"/>
   </g>
   <g id="patch_14">
    <path d="M 250.819813 307.8 
L 509.323762 307.8 
L 509.323762 302.006897 
L 250.819813 302.006897 
z
" clip-path="url(#pbbec27aea9)" style="fill: #0000ff"/>
   </g>
   <g id="patch_15">
    <path d="M 252.95621 307.8 
L 509.323762 307.8 
L 509.323762 302.006897 
L 252.95621 302.006897 
z
" clip-path="url(#pbbec27aea9)" style="fill: #0000ff"/>
   </g>
   <g id="patch_16">
    <path d="M 252.95621 307.8 
L 505.050969 307.8 
L 505.050969 302.006897 
L 252.95621 302.006897 
z
" clip-path="url(#pbbec27aea9)" style="fill: #0000ff"/>
   </g>
   <g id="patch_17">
    <path d="M 252.95621 307.8 
L 447.36827 307.8 
L 447.36827 302.006897 
L 252.95621 302.006897 
z
" clip-path="url(#pbbec27aea9)" style="fill: #0000ff"/>
   </g>
   <g id="patch_18">
    <path d="M 265.774587 307.8 
L 509.323762 307.8 
L 509.323762 302.006897 
L 265.774587 302.006897 
z
" clip-path="url(#pbbec27aea9)" style="fill: #0000ff"/>
   </g>
   <g id="patch_19">
    <path d="M 270.04738 307.8 
L 509.323762 307.8 
L 509.323762 302.006897 
L 270.04738 302.006897 
z
" clip-path="url(#pbbec27aea9)" style="fill: #0000ff"/>
   </g>
   <g id="patch_20">
    <path d="M 513.596554 305.12069 
L 513.596554 305.12069 
L 513.596554 304.686207 
L 513.596554 304.686207 
z
" clip-path="url(#pbbec27aea9)" style="fill: #0000ff"/>
   </g>
   <g id="patch_21">
    <path d="M 144 290.637931 
L 195.27351 290.637931 
L 195.27351 290.203448 
L 144 290.203448 
z
" clip-path="url(#pbbec27aea9)" style="fill: #0000ff"/>
   </g>
   <g id="patch_22">
    <path d="M 197.409907 293.317241 
L 451.641062 293.317241 
L 451.641062 287.524138 
L 197.409907 287.524138 
z
" clip-path="url(#pbbec27aea9)" style="fill: #0000ff"/>
   </g>
   <g id="patch_23">
    <path d="M 201.682699 293.317241 
L 464.45944 293.317241 
L 464.45944 287.524138 
L 201.682699 287.524138 
z
" clip-path="url(#pbbec27aea9)" style="fill: #0000ff"/>
   </g>
   <g id="patch_24">
    <path d="M 201.682699 293.317241 
L 460.186648 293.317241 
L 460.186648 287.524138 
L 201.682699 287.524138 
z
" clip-path="url(#pbbec27aea9)" style="fill: #0000ff"/>
   </g>
   <g id="patch_25">
    <path d="M 201.682699 293.317241 
L 464.45944 293.317241 
L 464.45944 287.524138 
L 201.682699 287.524138 
z
" clip-path="url(#pbbec27aea9)" style="fill: #0000ff"/>
   </g>
   <g id="patch_26">
    <path d="M 201.682699 293.317241 
L 464.45944 293.317241 
L 464.45944 287.524138 
L 201.682699 287.524138 
z
" clip-path="url(#pbbec27aea9)" style="fill: #0000ff"/>
   </g>
   <g id="patch_27">
    <path d="M 201.682699 293.317241 
L 462.323044 293.317241 
L 462.323044 287.524138 
L 201.682699 287.524138 
z
" clip-path="url(#pbbec27aea9)" style="fill: #0000ff"/>
   </g>
   <g id="patch_28">
    <path d="M 201.682699 293.317241 
L 462.323044 293.317241 
L 462.323044 287.524138 
L 201.682699 287.524138 
z
" clip-path="url(#pbbec27aea9)" style="fill: #0000ff"/>
   </g>
   <g id="patch_29">
    <path d="M 218.773869 293.317241 
L 462.323044 293.317241 
L 462.323044 287.524138 
L 218.773869 287.524138 
z
" clip-path="url(#pbbec27aea9)" style="fill: #0000ff"/>
   </g>
   <g id="patch_30">
    <path d="M 220.910266 293.317241 
L 460.186648 293.317241 
L 460.186648 287.524138 
L 220.910266 287.524138 
z
" clip-path="url(#pbbec27aea9)" style="fill: #0000ff"/>
   </g>
   <g id="patch_31">
    <path d="M 220.910266 293.317241 
L 462.323044 293.317241 
L 462.323044 287.524138 
L 220.910266 287.524138 
z
" clip-path="url(#pbbec27aea9)" style="fill: #0000ff"/>
   </g>
   <g id="patch_32">
    <path d="M 223.046662 293.317241 
L 464.45944 293.317241 
L 464.45944 287.524138 
L 223.046662 287.524138 
z
" clip-path="url(#pbbec27aea9)" style="fill: #0000ff"/>
   </g>
   <g id="patch_33">
    <path d="M 223.046662 293.317241 
L 438.822685 293.317241 
L 438.822685 287.524138 
L 223.046662 287.524138 
z
" clip-path="url(#pbbec27aea9)" style="fill: #0000ff"/>
   </g>
   <g id="patch_34">
    <path d="M 227.319454 293.317241 
L 462.323044 293.317241 
L 462.323044 287.524138 
L 227.319454 287.524138 
z
" clip-path="url(#pbbec27aea9)" style="fill: #0000ff"/>
   </g>
   <g id="patch_35">
    <path d="M 242.274228 293.317241 
L 464.45944 293.317241 
L 464.45944 287.524138 
L 242.274228 287.524138 
z
" clip-path="url(#pbbec27aea9)" style="fill: #0000ff"/>
   </g>
   <g id="patch_36">
    <path d="M 242.274228 293.317241 
L 464.45944 293.317241 
L 464.45944 287.524138 
L 242.274228 287.524138 
z
" clip-path="url(#pbbec27aea9)" style="fill: #0000ff"/>
   </g>
   <g id="patch_37">
    <path d="M 244.410625 293.317241 
L 460.186648 293.317241 
L 460.186648 287.524138 
L 244.410625 287.524138 
z
" clip-path="url(#pbbec27aea9)" style="fill: #0000ff"/>
   </g>
   <g id="patch_38">
    <path d="M 466.595836 290.637931 
L 468.732233 290.637931 
L 468.732233 290.203448 
L 466.595836 290.203448 
z
" clip-path="url(#pbbec27aea9)" style="fill: #0000ff"/>
   </g>
   <g id="patch_39">
    <path d="M 144 276.155172 
L 225.183058 276.155172 
L 225.183058 275.72069 
L 144 275.72069 
z
" clip-path="url(#pbbec27aea9)" style="fill: #0000ff"/>
   </g>
   <g id="patch_40">
    <path d="M 227.319454 278.834483 
L 479.414214 278.834483 
L 479.414214 273.041379 
L 227.319454 273.041379 
z
" clip-path="url(#pbbec27aea9)" style="fill: #0000ff"/>
   </g>
   <g id="patch_41">
    <path d="M 451.641062 278.834483 
L 697.326633 278.834483 
L 697.326633 273.041379 
L 451.641062 273.041379 
z
" clip-path="url(#pbbec27aea9)" style="fill: #0000ff"/>
   </g>
   <g id="patch_42">
    <path d="M 451.641062 278.834483 
L 697.326633 278.834483 
L 697.326633 273.041379 
L 451.641062 273.041379 
z
" clip-path="url(#pbbec27aea9)" style="fill: #0000ff"/>
   </g>
   <g id="patch_43">
    <path d="M 458.050251 278.834483 
L 725.099785 278.834483 
L 725.099785 273.041379 
L 458.050251 273.041379 
z
" clip-path="url(#pbbec27aea9)" style="fill: #0000ff"/>
   </g>
   <g id="patch_44">
    <path d="M 458.050251 278.834483 
L 573.41565 278.834483 
L 573.41565 273.041379 
L 458.050251 273.041379 
z
" clip-path="url(#pbbec27aea9)" style="fill: #0000ff"/>
   </g>
   <g id="patch_45">
    <path d="M 458.050251 278.834483 
L 695.190237 278.834483 
L 695.190237 273.041379 
L 458.050251 273.041379 
z
" clip-path="url(#pbbec27aea9)" style="fill: #0000ff"/>
   </g>
   <g id="patch_46">
    <path d="M 458.050251 278.834483 
L 701.599426 278.834483 
L 701.599426 273.041379 
L 458.050251 273.041379 
z
" clip-path="url(#pbbec27aea9)" style="fill: #0000ff"/>
   </g>
   <g id="patch_47">
    <path d="M 470.868629 278.834483 
L 697.326633 278.834483 
L 697.326633 273.041379 
L 470.868629 273.041379 
z
" clip-path="url(#pbbec27aea9)" style="fill: #0000ff"/>
   </g>
   <g id="patch_48">
    <path d="M 487.959799 278.834483 
L 697.326633 278.834483 
L 697.326633 273.041379 
L 487.959799 273.041379 
z
" clip-path="url(#pbbec27aea9)" style="fill: #0000ff"/>
   </g>
   <g id="patch_49">
    <path d="M 144 261.672414 
L 376.867193 261.672414 
L 376.867193 261.237931 
L 144 261.237931 
z
" clip-path="url(#pbbec27aea9)" style="fill: #0000ff"/>
   </g>
   <g id="patch_50">
    <path d="M 379.003589 264.351724 
L 547.778894 264.351724 
L 547.778894 258.558621 
L 379.003589 258.558621 
z
" clip-path="url(#pbbec27aea9)" style="fill: #0000ff"/>
   </g>
   <g id="patch_51">
    <path d="M 379.003589 264.351724 
L 635.371141 264.351724 
L 635.371141 258.558621 
L 379.003589 258.558621 
z
" clip-path="url(#pbbec27aea9)" style="fill: #0000ff"/>
   </g>
   <g id="patch_52">
    <path d="M 379.003589 264.351724 
L 635.371141 264.351724 
L 635.371141 258.558621 
L 379.003589 258.558621 
z
" clip-path="url(#pbbec27aea9)" style="fill: #0000ff"/>
   </g>
   <g id="patch_53">
    <path d="M 379.003589 264.351724 
L 633.234745 264.351724 
L 633.234745 258.558621 
L 379.003589 258.558621 
z
" clip-path="url(#pbbec27aea9)" style="fill: #0000ff"/>
   </g>
   <g id="patch_54">
    <path d="M 379.003589 264.351724 
L 635.371141 264.351724 
L 635.371141 258.558621 
L 379.003589 258.558621 
z
" clip-path="url(#pbbec27aea9)" style="fill: #0000ff"/>
   </g>
   <g id="patch_55">
    <path d="M 379.003589 264.351724 
L 509.323762 264.351724 
L 509.323762 258.558621 
L 379.003589 258.558621 
z
" clip-path="url(#pbbec27aea9)" style="fill: #0000ff"/>
   </g>
   <g id="patch_56">
    <path d="M 379.003589 264.351724 
L 633.234745 264.351724 
L 633.234745 258.558621 
L 379.003589 258.558621 
z
" clip-path="url(#pbbec27aea9)" style="fill: #0000ff"/>
   </g>
   <g id="patch_57">
    <path d="M 379.003589 264.351724 
L 631.098349 264.351724 
L 631.098349 258.558621 
L 379.003589 258.558621 
z
" clip-path="url(#pbbec27aea9)" style="fill: #0000ff"/>
   </g>
   <g id="patch_58">
    <path d="M 400.367552 264.351724 
L 635.371141 264.351724 
L 635.371141 258.558621 
L 400.367552 258.558621 
z
" clip-path="url(#pbbec27aea9)" style="fill: #0000ff"/>
   </g>
   <g id="patch_59">
    <path d="M 423.867911 264.351724 
L 635.371141 264.351724 
L 635.371141 258.558621 
L 423.867911 258.558621 
z
" clip-path="url(#pbbec27aea9)" style="fill: #0000ff"/>
   </g>
   <g id="patch_60">
    <path d="M 637.507538 261.672414 
L 650.325915 261.672414 
L 650.325915 261.237931 
L 637.507538 261.237931 
z
" clip-path="url(#pbbec27aea9)" style="fill: #0000ff"/>
   </g>
   <g id="patch_61">
    <path d="M 144 247.189655 
L 240.137832 247.189655 
L 240.137832 246.755172 
L 144 246.755172 
z
" clip-path="url(#pbbec27aea9)" style="fill: #0000ff"/>
   </g>
   <g id="patch_62">
    <path d="M 242.274228 249.868966 
L 599.052405 249.868966 
L 599.052405 244.075862 
L 242.274228 244.075862 
z
" clip-path="url(#pbbec27aea9)" style="fill: #0000ff"/>
   </g>
   <g id="patch_63">
    <path d="M 257.229002 249.868966 
L 509.323762 249.868966 
L 509.323762 244.075862 
L 257.229002 244.075862 
z
" clip-path="url(#pbbec27aea9)" style="fill: #0000ff"/>
   </g>
   <g id="patch_64">
    <path d="M 353.366834 249.868966 
L 507.187365 249.868966 
L 507.187365 244.075862 
L 353.366834 244.075862 
z
" clip-path="url(#pbbec27aea9)" style="fill: #0000ff"/>
   </g>
   <g id="patch_65">
    <path d="M 353.366834 249.868966 
L 509.323762 249.868966 
L 509.323762 244.075862 
L 353.366834 244.075862 
z
" clip-path="url(#pbbec27aea9)" style="fill: #0000ff"/>
   </g>
   <g id="patch_66">
    <path d="M 353.366834 249.868966 
L 592.643216 249.868966 
L 592.643216 244.075862 
L 353.366834 244.075862 
z
" clip-path="url(#pbbec27aea9)" style="fill: #0000ff"/>
   </g>
   <g id="patch_67">
    <path d="M 353.366834 249.868966 
L 596.916009 249.868966 
L 596.916009 244.075862 
L 353.366834 244.075862 
z
" clip-path="url(#pbbec27aea9)" style="fill: #0000ff"/>
   </g>
   <g id="patch_68">
    <path d="M 353.366834 249.868966 
L 592.643216 249.868966 
L 592.643216 244.075862 
L 353.366834 244.075862 
z
" clip-path="url(#pbbec27aea9)" style="fill: #0000ff"/>
   </g>
   <g id="patch_69">
    <path d="M 353.366834 249.868966 
L 466.595836 249.868966 
L 466.595836 244.075862 
L 353.366834 244.075862 
z
" clip-path="url(#pbbec27aea9)" style="fill: #0000ff"/>
   </g>
   <g id="patch_70">
    <path d="M 353.366834 249.868966 
L 592.643216 249.868966 
L 592.643216 244.075862 
L 353.366834 244.075862 
z
" clip-path="url(#pbbec27aea9)" style="fill: #0000ff"/>
   </g>
   <g id="patch_71">
    <path d="M 374.730797 249.868966 
L 592.643216 249.868966 
L 592.643216 244.075862 
L 374.730797 244.075862 
z
" clip-path="url(#pbbec27aea9)" style="fill: #0000ff"/>
   </g>
   <g id="patch_72">
    <path d="M 379.003589 249.868966 
L 594.779612 249.868966 
L 594.779612 244.075862 
L 379.003589 244.075862 
z
" clip-path="url(#pbbec27aea9)" style="fill: #0000ff"/>
   </g>
   <g id="patch_73">
    <path d="M 391.821967 249.868966 
L 596.916009 249.868966 
L 596.916009 244.075862 
L 391.821967 244.075862 
z
" clip-path="url(#pbbec27aea9)" style="fill: #0000ff"/>
   </g>
   <g id="patch_74">
    <path d="M 601.188801 247.189655 
L 603.325197 247.189655 
L 603.325197 246.755172 
L 601.188801 246.755172 
z
" clip-path="url(#pbbec27aea9)" style="fill: #0000ff"/>
   </g>
   <g id="patch_75">
    <path d="M 144 232.706897 
L 396.09476 232.706897 
L 396.09476 232.272414 
L 144 232.272414 
z
" clip-path="url(#pbbec27aea9)" style="fill: #0000ff"/>
   </g>
   <g id="patch_76">
    <path d="M 398.231156 235.386207 
L 447.36827 235.386207 
L 447.36827 229.593103 
L 398.231156 229.593103 
z
" clip-path="url(#pbbec27aea9)" style="fill: #0000ff"/>
   </g>
   <g id="patch_77">
    <path d="M 398.231156 235.386207 
L 447.36827 235.386207 
L 447.36827 229.593103 
L 398.231156 229.593103 
z
" clip-path="url(#pbbec27aea9)" style="fill: #0000ff"/>
   </g>
   <g id="patch_78">
    <path d="M 398.231156 235.386207 
L 447.36827 235.386207 
L 447.36827 229.593103 
L 398.231156 229.593103 
z
" clip-path="url(#pbbec27aea9)" style="fill: #0000ff"/>
   </g>
   <g id="patch_79">
    <path d="M 449.504666 232.706897 
L 479.414214 232.706897 
L 479.414214 232.272414 
L 449.504666 232.272414 
z
" clip-path="url(#pbbec27aea9)" style="fill: #0000ff"/>
   </g>
   <g id="patch_80">
    <path d="M 144 218.224138 
L 235.865039 218.224138 
L 235.865039 217.789655 
L 144 217.789655 
z
" clip-path="url(#pbbec27aea9)" style="fill: #0000ff"/>
   </g>
   <g id="patch_81">
    <path d="M 238.001436 220.903448 
L 714.417803 220.903448 
L 714.417803 215.110345 
L 238.001436 215.110345 
z
" clip-path="url(#pbbec27aea9)" style="fill: #0000ff"/>
   </g>
   <g id="patch_82">
    <path d="M 248.683417 220.903448 
L 697.326633 220.903448 
L 697.326633 215.110345 
L 248.683417 215.110345 
z
" clip-path="url(#pbbec27aea9)" style="fill: #0000ff"/>
   </g>
   <g id="patch_83">
    <path d="M 293.547739 220.903448 
L 705.872218 220.903448 
L 705.872218 215.110345 
L 293.547739 215.110345 
z
" clip-path="url(#pbbec27aea9)" style="fill: #0000ff"/>
   </g>
   <g id="patch_84">
    <path d="M 314.911701 220.903448 
L 693.053841 220.903448 
L 693.053841 215.110345 
L 314.911701 215.110345 
z
" clip-path="url(#pbbec27aea9)" style="fill: #0000ff"/>
   </g>
   <g id="patch_85">
    <path d="M 321.32089 220.903448 
L 705.872218 220.903448 
L 705.872218 215.110345 
L 321.32089 215.110345 
z
" clip-path="url(#pbbec27aea9)" style="fill: #0000ff"/>
   </g>
   <g id="patch_86">
    <path d="M 368.321608 220.903448 
L 705.872218 220.903448 
L 705.872218 215.110345 
L 368.321608 215.110345 
z
" clip-path="url(#pbbec27aea9)" style="fill: #0000ff"/>
   </g>
   <g id="patch_87">
    <path d="M 699.463029 220.903448 
L 814.828428 220.903448 
L 814.828428 215.110345 
L 699.463029 215.110345 
z
" clip-path="url(#pbbec27aea9)" style="fill: #0000ff"/>
   </g>
   <g id="patch_88">
    <path d="M 712.281407 220.903448 
L 975.058148 220.903448 
L 975.058148 215.110345 
L 712.281407 215.110345 
z
" clip-path="url(#pbbec27aea9)" style="fill: #0000ff"/>
   </g>
   <g id="patch_89">
    <path d="M 714.417803 220.903448 
L 977.194544 220.903448 
L 977.194544 215.110345 
L 714.417803 215.110345 
z
" clip-path="url(#pbbec27aea9)" style="fill: #0000ff"/>
   </g>
   <g id="patch_90">
    <path d="M 714.417803 220.903448 
L 975.058148 220.903448 
L 975.058148 215.110345 
L 714.417803 215.110345 
z
" clip-path="url(#pbbec27aea9)" style="fill: #0000ff"/>
   </g>
   <g id="patch_91">
    <path d="M 714.417803 220.903448 
L 977.194544 220.903448 
L 977.194544 215.110345 
L 714.417803 215.110345 
z
" clip-path="url(#pbbec27aea9)" style="fill: #0000ff"/>
   </g>
   <g id="patch_92">
    <path d="M 714.417803 220.903448 
L 977.194544 220.903448 
L 977.194544 215.110345 
L 714.417803 215.110345 
z
" clip-path="url(#pbbec27aea9)" style="fill: #0000ff"/>
   </g>
   <g id="patch_93">
    <path d="M 714.417803 220.903448 
L 975.058148 220.903448 
L 975.058148 215.110345 
L 714.417803 215.110345 
z
" clip-path="url(#pbbec27aea9)" style="fill: #0000ff"/>
   </g>
   <g id="patch_94">
    <path d="M 714.417803 220.903448 
L 919.511845 220.903448 
L 919.511845 215.110345 
L 714.417803 215.110345 
z
" clip-path="url(#pbbec27aea9)" style="fill: #0000ff"/>
   </g>
   <g id="patch_95">
    <path d="M 714.417803 220.903448 
L 977.194544 220.903448 
L 977.194544 215.110345 
L 714.417803 215.110345 
z
" clip-path="url(#pbbec27aea9)" style="fill: #0000ff"/>
   </g>
   <g id="patch_96">
    <path d="M 714.417803 220.903448 
L 975.058148 220.903448 
L 975.058148 215.110345 
L 714.417803 215.110345 
z
" clip-path="url(#pbbec27aea9)" style="fill: #0000ff"/>
   </g>
   <g id="patch_97">
    <path d="M 714.417803 220.903448 
L 972.921752 220.903448 
L 972.921752 215.110345 
L 714.417803 215.110345 
z
" clip-path="url(#pbbec27aea9)" style="fill: #0000ff"/>
   </g>
   <g id="patch_98">
    <path d="M 735.781766 220.903448 
L 977.194544 220.903448 
L 977.194544 215.110345 
L 735.781766 215.110345 
z
" clip-path="url(#pbbec27aea9)" style="fill: #0000ff"/>
   </g>
   <g id="patch_99">
    <path d="M 737.918162 220.903448 
L 972.921752 220.903448 
L 972.921752 215.110345 
L 737.918162 215.110345 
z
" clip-path="url(#pbbec27aea9)" style="fill: #0000ff"/>
   </g>
   <g id="patch_100">
    <path d="M 740.054559 220.903448 
L 972.921752 220.903448 
L 972.921752 215.110345 
L 740.054559 215.110345 
z
" clip-path="url(#pbbec27aea9)" style="fill: #0000ff"/>
   </g>
   <g id="patch_101">
    <path d="M 740.054559 220.903448 
L 972.921752 220.903448 
L 972.921752 215.110345 
L 740.054559 215.110345 
z
" clip-path="url(#pbbec27aea9)" style="fill: #0000ff"/>
   </g>
   <g id="patch_102">
    <path d="M 740.054559 220.903448 
L 975.058148 220.903448 
L 975.058148 215.110345 
L 740.054559 215.110345 
z
" clip-path="url(#pbbec27aea9)" style="fill: #0000ff"/>
   </g>
   <g id="patch_103">
    <path d="M 740.054559 220.903448 
L 972.921752 220.903448 
L 972.921752 215.110345 
L 740.054559 215.110345 
z
" clip-path="url(#pbbec27aea9)" style="fill: #0000ff"/>
   </g>
   <g id="patch_104">
    <path d="M 752.872936 220.903448 
L 977.194544 220.903448 
L 977.194544 215.110345 
L 752.872936 215.110345 
z
" clip-path="url(#pbbec27aea9)" style="fill: #0000ff"/>
   </g>
   <g id="patch_105">
    <path d="M 757.145729 220.903448 
L 949.421393 220.903448 
L 949.421393 215.110345 
L 757.145729 215.110345 
z
" clip-path="url(#pbbec27aea9)" style="fill: #0000ff"/>
   </g>
   <g id="patch_106">
    <path d="M 979.33094 218.224138 
L 994.285714 218.224138 
L 994.285714 217.789655 
L 979.33094 217.789655 
z
" clip-path="url(#pbbec27aea9)" style="fill: #0000ff"/>
   </g>
   <g id="patch_107">
    <path d="M 144 203.741379 
L 402.503948 203.741379 
L 402.503948 203.306897 
L 144 203.306897 
z
" clip-path="url(#pbbec27aea9)" style="fill: #0000ff"/>
   </g>
   <g id="patch_108">
    <path d="M 404.640345 206.42069 
L 675.96267 206.42069 
L 675.96267 200.627586 
L 404.640345 200.627586 
z
" clip-path="url(#pbbec27aea9)" style="fill: #0000ff"/>
   </g>
   <g id="patch_109">
    <path d="M 421.731515 206.42069 
L 549.915291 206.42069 
L 549.915291 200.627586 
L 421.731515 200.627586 
z
" clip-path="url(#pbbec27aea9)" style="fill: #0000ff"/>
   </g>
   <g id="patch_110">
    <path d="M 426.004307 206.42069 
L 675.96267 206.42069 
L 675.96267 200.627586 
L 426.004307 200.627586 
z
" clip-path="url(#pbbec27aea9)" style="fill: #0000ff"/>
   </g>
   <g id="patch_111">
    <path d="M 426.004307 206.42069 
L 675.96267 206.42069 
L 675.96267 200.627586 
L 426.004307 200.627586 
z
" clip-path="url(#pbbec27aea9)" style="fill: #0000ff"/>
   </g>
   <g id="patch_112">
    <path d="M 426.004307 206.42069 
L 673.826274 206.42069 
L 673.826274 200.627586 
L 426.004307 200.627586 
z
" clip-path="url(#pbbec27aea9)" style="fill: #0000ff"/>
   </g>
   <g id="patch_113">
    <path d="M 426.004307 206.42069 
L 673.826274 206.42069 
L 673.826274 200.627586 
L 426.004307 200.627586 
z
" clip-path="url(#pbbec27aea9)" style="fill: #0000ff"/>
   </g>
   <g id="patch_114">
    <path d="M 447.36827 206.42069 
L 675.96267 206.42069 
L 675.96267 200.627586 
L 447.36827 200.627586 
z
" clip-path="url(#pbbec27aea9)" style="fill: #0000ff"/>
   </g>
   <g id="patch_115">
    <path d="M 468.732233 206.42069 
L 675.96267 206.42069 
L 675.96267 200.627586 
L 468.732233 200.627586 
z
" clip-path="url(#pbbec27aea9)" style="fill: #0000ff"/>
   </g>
   <g id="patch_116">
    <path d="M 678.099067 203.741379 
L 708.008615 203.741379 
L 708.008615 203.306897 
L 678.099067 203.306897 
z
" clip-path="url(#pbbec27aea9)" style="fill: #0000ff"/>
   </g>
   <g id="patch_117">
    <path d="M 144 189.258621 
L 191.000718 189.258621 
L 191.000718 188.824138 
L 144 188.824138 
z
" clip-path="url(#pbbec27aea9)" style="fill: #0000ff"/>
   </g>
   <g id="patch_118">
    <path d="M 193.137114 191.937931 
L 391.821967 191.937931 
L 391.821967 186.144828 
L 193.137114 186.144828 
z
" clip-path="url(#pbbec27aea9)" style="fill: #0000ff"/>
   </g>
   <g id="patch_119">
    <path d="M 218.773869 191.937931 
L 490.096195 191.937931 
L 490.096195 186.144828 
L 218.773869 186.144828 
z
" clip-path="url(#pbbec27aea9)" style="fill: #0000ff"/>
   </g>
   <g id="patch_120">
    <path d="M 218.773869 191.937931 
L 490.096195 191.937931 
L 490.096195 186.144828 
L 218.773869 186.144828 
z
" clip-path="url(#pbbec27aea9)" style="fill: #0000ff"/>
   </g>
   <g id="patch_121">
    <path d="M 218.773869 191.937931 
L 490.096195 191.937931 
L 490.096195 186.144828 
L 218.773869 186.144828 
z
" clip-path="url(#pbbec27aea9)" style="fill: #0000ff"/>
   </g>
   <g id="patch_122">
    <path d="M 218.773869 191.937931 
L 490.096195 191.937931 
L 490.096195 186.144828 
L 218.773869 186.144828 
z
" clip-path="url(#pbbec27aea9)" style="fill: #0000ff"/>
   </g>
   <g id="patch_123">
    <path d="M 218.773869 191.937931 
L 492.232592 191.937931 
L 492.232592 186.144828 
L 218.773869 186.144828 
z
" clip-path="url(#pbbec27aea9)" style="fill: #0000ff"/>
   </g>
   <g id="patch_124">
    <path d="M 218.773869 191.937931 
L 492.232592 191.937931 
L 492.232592 186.144828 
L 218.773869 186.144828 
z
" clip-path="url(#pbbec27aea9)" style="fill: #0000ff"/>
   </g>
   <g id="patch_125">
    <path d="M 218.773869 191.937931 
L 470.868629 191.937931 
L 470.868629 186.144828 
L 218.773869 186.144828 
z
" clip-path="url(#pbbec27aea9)" style="fill: #0000ff"/>
   </g>
   <g id="patch_126">
    <path d="M 218.773869 191.937931 
L 494.368988 191.937931 
L 494.368988 186.144828 
L 218.773869 186.144828 
z
" clip-path="url(#pbbec27aea9)" style="fill: #0000ff"/>
   </g>
   <g id="patch_127">
    <path d="M 218.773869 191.937931 
L 490.096195 191.937931 
L 490.096195 186.144828 
L 218.773869 186.144828 
z
" clip-path="url(#pbbec27aea9)" style="fill: #0000ff"/>
   </g>
   <g id="patch_128">
    <path d="M 240.137832 191.937931 
L 492.232592 191.937931 
L 492.232592 186.144828 
L 240.137832 186.144828 
z
" clip-path="url(#pbbec27aea9)" style="fill: #0000ff"/>
   </g>
   <g id="patch_129">
    <path d="M 242.274228 191.937931 
L 492.232592 191.937931 
L 492.232592 186.144828 
L 242.274228 186.144828 
z
" clip-path="url(#pbbec27aea9)" style="fill: #0000ff"/>
   </g>
   <g id="patch_130">
    <path d="M 242.274228 191.937931 
L 492.232592 191.937931 
L 492.232592 186.144828 
L 242.274228 186.144828 
z
" clip-path="url(#pbbec27aea9)" style="fill: #0000ff"/>
   </g>
   <g id="patch_131">
    <path d="M 244.410625 191.937931 
L 492.232592 191.937931 
L 492.232592 186.144828 
L 244.410625 186.144828 
z
" clip-path="url(#pbbec27aea9)" style="fill: #0000ff"/>
   </g>
   <g id="patch_132">
    <path d="M 244.410625 191.937931 
L 487.959799 191.937931 
L 487.959799 186.144828 
L 244.410625 186.144828 
z
" clip-path="url(#pbbec27aea9)" style="fill: #0000ff"/>
   </g>
   <g id="patch_133">
    <path d="M 244.410625 191.937931 
L 487.959799 191.937931 
L 487.959799 186.144828 
L 244.410625 186.144828 
z
" clip-path="url(#pbbec27aea9)" style="fill: #0000ff"/>
   </g>
   <g id="patch_134">
    <path d="M 244.410625 191.937931 
L 432.413496 191.937931 
L 432.413496 186.144828 
L 244.410625 186.144828 
z
" clip-path="url(#pbbec27aea9)" style="fill: #0000ff"/>
   </g>
   <g id="patch_135">
    <path d="M 257.229002 191.937931 
L 492.232592 191.937931 
L 492.232592 186.144828 
L 257.229002 186.144828 
z
" clip-path="url(#pbbec27aea9)" style="fill: #0000ff"/>
   </g>
   <g id="patch_136">
    <path d="M 285.002154 191.937931 
L 492.232592 191.937931 
L 492.232592 186.144828 
L 285.002154 186.144828 
z
" clip-path="url(#pbbec27aea9)" style="fill: #0000ff"/>
   </g>
   <g id="patch_137">
    <path d="M 496.505384 189.258621 
L 496.505384 189.258621 
L 496.505384 188.824138 
L 496.505384 188.824138 
z
" clip-path="url(#pbbec27aea9)" style="fill: #0000ff"/>
   </g>
   <g id="patch_138">
    <path d="M 144 174.775862 
L 304.22972 174.775862 
L 304.22972 174.341379 
L 144 174.341379 
z
" clip-path="url(#pbbec27aea9)" style="fill: #0000ff"/>
   </g>
   <g id="patch_139">
    <path d="M 306.366116 177.455172 
L 564.870065 177.455172 
L 564.870065 171.662069 
L 306.366116 171.662069 
z
" clip-path="url(#pbbec27aea9)" style="fill: #0000ff"/>
   </g>
   <g id="patch_140">
    <path d="M 321.32089 177.455172 
L 564.870065 177.455172 
L 564.870065 171.662069 
L 321.32089 171.662069 
z
" clip-path="url(#pbbec27aea9)" style="fill: #0000ff"/>
   </g>
   <g id="patch_141">
    <path d="M 323.457286 177.455172 
L 560.597272 177.455172 
L 560.597272 171.662069 
L 323.457286 171.662069 
z
" clip-path="url(#pbbec27aea9)" style="fill: #0000ff"/>
   </g>
   <g id="patch_142">
    <path d="M 323.457286 177.455172 
L 556.32448 177.455172 
L 556.32448 171.662069 
L 323.457286 171.662069 
z
" clip-path="url(#pbbec27aea9)" style="fill: #0000ff"/>
   </g>
   <g id="patch_143">
    <path d="M 323.457286 177.455172 
L 560.597272 177.455172 
L 560.597272 171.662069 
L 323.457286 171.662069 
z
" clip-path="url(#pbbec27aea9)" style="fill: #0000ff"/>
   </g>
   <g id="patch_144">
    <path d="M 323.457286 177.455172 
L 560.597272 177.455172 
L 560.597272 171.662069 
L 323.457286 171.662069 
z
" clip-path="url(#pbbec27aea9)" style="fill: #0000ff"/>
   </g>
   <g id="patch_145">
    <path d="M 323.457286 177.455172 
L 556.32448 177.455172 
L 556.32448 171.662069 
L 323.457286 171.662069 
z
" clip-path="url(#pbbec27aea9)" style="fill: #0000ff"/>
   </g>
   <g id="patch_146">
    <path d="M 323.457286 177.455172 
L 562.733668 177.455172 
L 562.733668 171.662069 
L 323.457286 171.662069 
z
" clip-path="url(#pbbec27aea9)" style="fill: #0000ff"/>
   </g>
   <g id="patch_147">
    <path d="M 323.457286 177.455172 
L 556.32448 177.455172 
L 556.32448 171.662069 
L 323.457286 171.662069 
z
" clip-path="url(#pbbec27aea9)" style="fill: #0000ff"/>
   </g>
   <g id="patch_148">
    <path d="M 342.684853 177.455172 
L 451.641062 177.455172 
L 451.641062 171.662069 
L 342.684853 171.662069 
z
" clip-path="url(#pbbec27aea9)" style="fill: #0000ff"/>
   </g>
   <g id="patch_149">
    <path d="M 344.821249 177.455172 
L 556.32448 177.455172 
L 556.32448 171.662069 
L 344.821249 171.662069 
z
" clip-path="url(#pbbec27aea9)" style="fill: #0000ff"/>
   </g>
   <g id="patch_150">
    <path d="M 344.821249 177.455172 
L 556.32448 177.455172 
L 556.32448 171.662069 
L 344.821249 171.662069 
z
" clip-path="url(#pbbec27aea9)" style="fill: #0000ff"/>
   </g>
   <g id="patch_151">
    <path d="M 346.957645 177.455172 
L 517.869347 177.455172 
L 517.869347 171.662069 
L 346.957645 171.662069 
z
" clip-path="url(#pbbec27aea9)" style="fill: #0000ff"/>
   </g>
   <g id="patch_152">
    <path d="M 349.094042 177.455172 
L 556.32448 177.455172 
L 556.32448 171.662069 
L 349.094042 171.662069 
z
" clip-path="url(#pbbec27aea9)" style="fill: #0000ff"/>
   </g>
   <g id="patch_153">
    <path d="M 361.912419 177.455172 
L 556.32448 177.455172 
L 556.32448 171.662069 
L 361.912419 171.662069 
z
" clip-path="url(#pbbec27aea9)" style="fill: #0000ff"/>
   </g>
   <g id="patch_154">
    <path d="M 567.006461 174.775862 
L 567.006461 174.775862 
L 567.006461 174.341379 
L 567.006461 174.341379 
z
" clip-path="url(#pbbec27aea9)" style="fill: #0000ff"/>
   </g>
   <g id="patch_155">
    <path d="M 144 160.293103 
L 195.27351 160.293103 
L 195.27351 159.858621 
L 144 159.858621 
z
" clip-path="url(#pbbec27aea9)" style="fill: #0000ff"/>
   </g>
   <g id="patch_156">
    <path d="M 197.409907 162.972414 
L 511.460158 162.972414 
L 511.460158 157.17931 
L 197.409907 157.17931 
z
" clip-path="url(#pbbec27aea9)" style="fill: #0000ff"/>
   </g>
   <g id="patch_157">
    <path d="M 227.319454 162.972414 
L 509.323762 162.972414 
L 509.323762 157.17931 
L 227.319454 157.17931 
z
" clip-path="url(#pbbec27aea9)" style="fill: #0000ff"/>
   </g>
   <g id="patch_158">
    <path d="M 227.319454 162.972414 
L 509.323762 162.972414 
L 509.323762 157.17931 
L 227.319454 157.17931 
z
" clip-path="url(#pbbec27aea9)" style="fill: #0000ff"/>
   </g>
   <g id="patch_159">
    <path d="M 227.319454 162.972414 
L 509.323762 162.972414 
L 509.323762 157.17931 
L 227.319454 157.17931 
z
" clip-path="url(#pbbec27aea9)" style="fill: #0000ff"/>
   </g>
   <g id="patch_160">
    <path d="M 227.319454 162.972414 
L 509.323762 162.972414 
L 509.323762 157.17931 
L 227.319454 157.17931 
z
" clip-path="url(#pbbec27aea9)" style="fill: #0000ff"/>
   </g>
   <g id="patch_161">
    <path d="M 227.319454 162.972414 
L 511.460158 162.972414 
L 511.460158 157.17931 
L 227.319454 157.17931 
z
" clip-path="url(#pbbec27aea9)" style="fill: #0000ff"/>
   </g>
   <g id="patch_162">
    <path d="M 227.319454 162.972414 
L 511.460158 162.972414 
L 511.460158 157.17931 
L 227.319454 157.17931 
z
" clip-path="url(#pbbec27aea9)" style="fill: #0000ff"/>
   </g>
   <g id="patch_163">
    <path d="M 227.319454 162.972414 
L 509.323762 162.972414 
L 509.323762 157.17931 
L 227.319454 157.17931 
z
" clip-path="url(#pbbec27aea9)" style="fill: #0000ff"/>
   </g>
   <g id="patch_164">
    <path d="M 244.410625 162.972414 
L 511.460158 162.972414 
L 511.460158 157.17931 
L 244.410625 157.17931 
z
" clip-path="url(#pbbec27aea9)" style="fill: #0000ff"/>
   </g>
   <g id="patch_165">
    <path d="M 248.683417 162.972414 
L 511.460158 162.972414 
L 511.460158 157.17931 
L 248.683417 157.17931 
z
" clip-path="url(#pbbec27aea9)" style="fill: #0000ff"/>
   </g>
   <g id="patch_166">
    <path d="M 248.683417 162.972414 
L 432.413496 162.972414 
L 432.413496 157.17931 
L 248.683417 157.17931 
z
" clip-path="url(#pbbec27aea9)" style="fill: #0000ff"/>
   </g>
   <g id="patch_167">
    <path d="M 250.819813 162.972414 
L 511.460158 162.972414 
L 511.460158 157.17931 
L 250.819813 157.17931 
z
" clip-path="url(#pbbec27aea9)" style="fill: #0000ff"/>
   </g>
   <g id="patch_168">
    <path d="M 265.774587 162.972414 
L 507.187365 162.972414 
L 507.187365 157.17931 
L 265.774587 157.17931 
z
" clip-path="url(#pbbec27aea9)" style="fill: #0000ff"/>
   </g>
   <g id="patch_169">
    <path d="M 265.774587 162.972414 
L 511.460158 162.972414 
L 511.460158 157.17931 
L 265.774587 157.17931 
z
" clip-path="url(#pbbec27aea9)" style="fill: #0000ff"/>
   </g>
   <g id="patch_170">
    <path d="M 270.04738 162.972414 
L 511.460158 162.972414 
L 511.460158 157.17931 
L 270.04738 157.17931 
z
" clip-path="url(#pbbec27aea9)" style="fill: #0000ff"/>
   </g>
   <g id="patch_171">
    <path d="M 513.596554 160.293103 
L 515.73295 160.293103 
L 515.73295 159.858621 
L 513.596554 159.858621 
z
" clip-path="url(#pbbec27aea9)" style="fill: #0000ff"/>
   </g>
   <g id="patch_172">
    <path d="M 144 145.810345 
L 195.27351 145.810345 
L 195.27351 145.375862 
L 144 145.375862 
z
" clip-path="url(#pbbec27aea9)" style="fill: #0000ff"/>
   </g>
   <g id="patch_173">
    <path d="M 197.409907 148.489655 
L 379.003589 148.489655 
L 379.003589 142.696552 
L 197.409907 142.696552 
z
" clip-path="url(#pbbec27aea9)" style="fill: #0000ff"/>
   </g>
   <g id="patch_174">
    <path d="M 197.409907 148.489655 
L 372.594401 148.489655 
L 372.594401 142.696552 
L 197.409907 142.696552 
z
" clip-path="url(#pbbec27aea9)" style="fill: #0000ff"/>
   </g>
   <g id="patch_175">
    <path d="M 199.546303 148.489655 
L 473.005025 148.489655 
L 473.005025 142.696552 
L 199.546303 142.696552 
z
" clip-path="url(#pbbec27aea9)" style="fill: #0000ff"/>
   </g>
   <g id="patch_176">
    <path d="M 199.546303 148.489655 
L 473.005025 148.489655 
L 473.005025 142.696552 
L 199.546303 142.696552 
z
" clip-path="url(#pbbec27aea9)" style="fill: #0000ff"/>
   </g>
   <g id="patch_177">
    <path d="M 199.546303 148.489655 
L 473.005025 148.489655 
L 473.005025 142.696552 
L 199.546303 142.696552 
z
" clip-path="url(#pbbec27aea9)" style="fill: #0000ff"/>
   </g>
   <g id="patch_178">
    <path d="M 199.546303 148.489655 
L 475.141421 148.489655 
L 475.141421 142.696552 
L 199.546303 142.696552 
z
" clip-path="url(#pbbec27aea9)" style="fill: #0000ff"/>
   </g>
   <g id="patch_179">
    <path d="M 199.546303 148.489655 
L 475.141421 148.489655 
L 475.141421 142.696552 
L 199.546303 142.696552 
z
" clip-path="url(#pbbec27aea9)" style="fill: #0000ff"/>
   </g>
   <g id="patch_180">
    <path d="M 199.546303 148.489655 
L 402.503948 148.489655 
L 402.503948 142.696552 
L 199.546303 142.696552 
z
" clip-path="url(#pbbec27aea9)" style="fill: #0000ff"/>
   </g>
   <g id="patch_181">
    <path d="M 199.546303 148.489655 
L 473.005025 148.489655 
L 473.005025 142.696552 
L 199.546303 142.696552 
z
" clip-path="url(#pbbec27aea9)" style="fill: #0000ff"/>
   </g>
   <g id="patch_182">
    <path d="M 216.637473 148.489655 
L 483.687006 148.489655 
L 483.687006 142.696552 
L 216.637473 142.696552 
z
" clip-path="url(#pbbec27aea9)" style="fill: #0000ff"/>
   </g>
   <g id="patch_183">
    <path d="M 218.773869 148.489655 
L 470.868629 148.489655 
L 470.868629 142.696552 
L 218.773869 142.696552 
z
" clip-path="url(#pbbec27aea9)" style="fill: #0000ff"/>
   </g>
   <g id="patch_184">
    <path d="M 218.773869 148.489655 
L 473.005025 148.489655 
L 473.005025 142.696552 
L 218.773869 142.696552 
z
" clip-path="url(#pbbec27aea9)" style="fill: #0000ff"/>
   </g>
   <g id="patch_185">
    <path d="M 220.910266 148.489655 
L 473.005025 148.489655 
L 473.005025 142.696552 
L 220.910266 142.696552 
z
" clip-path="url(#pbbec27aea9)" style="fill: #0000ff"/>
   </g>
   <g id="patch_186">
    <path d="M 223.046662 148.489655 
L 470.868629 148.489655 
L 470.868629 142.696552 
L 223.046662 142.696552 
z
" clip-path="url(#pbbec27aea9)" style="fill: #0000ff"/>
   </g>
   <g id="patch_187">
    <path d="M 225.183058 148.489655 
L 470.868629 148.489655 
L 470.868629 142.696552 
L 225.183058 142.696552 
z
" clip-path="url(#pbbec27aea9)" style="fill: #0000ff"/>
   </g>
   <g id="patch_188">
    <path d="M 225.183058 148.489655 
L 470.868629 148.489655 
L 470.868629 142.696552 
L 225.183058 142.696552 
z
" clip-path="url(#pbbec27aea9)" style="fill: #0000ff"/>
   </g>
   <g id="patch_189">
    <path d="M 225.183058 148.489655 
L 470.868629 148.489655 
L 470.868629 142.696552 
L 225.183058 142.696552 
z
" clip-path="url(#pbbec27aea9)" style="fill: #0000ff"/>
   </g>
   <g id="patch_190">
    <path d="M 225.183058 148.489655 
L 447.36827 148.489655 
L 447.36827 142.696552 
L 225.183058 142.696552 
z
" clip-path="url(#pbbec27aea9)" style="fill: #0000ff"/>
   </g>
   <g id="patch_191">
    <path d="M 240.137832 148.489655 
L 473.005025 148.489655 
L 473.005025 142.696552 
L 240.137832 142.696552 
z
" clip-path="url(#pbbec27aea9)" style="fill: #0000ff"/>
   </g>
   <g id="patch_192">
    <path d="M 252.95621 148.489655 
L 473.005025 148.489655 
L 473.005025 142.696552 
L 252.95621 142.696552 
z
" clip-path="url(#pbbec27aea9)" style="fill: #0000ff"/>
   </g>
   <g id="patch_193">
    <path d="M 144 131.327586 
L 203.819095 131.327586 
L 203.819095 130.893103 
L 144 130.893103 
z
" clip-path="url(#pbbec27aea9)" style="fill: #0000ff"/>
   </g>
   <g id="patch_194">
    <path d="M 205.955492 134.006897 
L 513.596554 134.006897 
L 513.596554 128.213793 
L 205.955492 128.213793 
z
" clip-path="url(#pbbec27aea9)" style="fill: #0000ff"/>
   </g>
   <g id="patch_195">
    <path d="M 205.955492 134.006897 
L 545.642498 134.006897 
L 545.642498 128.213793 
L 205.955492 128.213793 
z
" clip-path="url(#pbbec27aea9)" style="fill: #0000ff"/>
   </g>
   <g id="patch_196">
    <path d="M 205.955492 134.006897 
L 545.642498 134.006897 
L 545.642498 128.213793 
L 205.955492 128.213793 
z
" clip-path="url(#pbbec27aea9)" style="fill: #0000ff"/>
   </g>
   <g id="patch_197">
    <path d="M 205.955492 134.006897 
L 543.506102 134.006897 
L 543.506102 128.213793 
L 205.955492 128.213793 
z
" clip-path="url(#pbbec27aea9)" style="fill: #0000ff"/>
   </g>
   <g id="patch_198">
    <path d="M 205.955492 134.006897 
L 543.506102 134.006897 
L 543.506102 128.213793 
L 205.955492 128.213793 
z
" clip-path="url(#pbbec27aea9)" style="fill: #0000ff"/>
   </g>
   <g id="patch_199">
    <path d="M 205.955492 134.006897 
L 415.322326 134.006897 
L 415.322326 128.213793 
L 205.955492 128.213793 
z
" clip-path="url(#pbbec27aea9)" style="fill: #0000ff"/>
   </g>
   <g id="patch_200">
    <path d="M 205.955492 134.006897 
L 543.506102 134.006897 
L 543.506102 128.213793 
L 205.955492 128.213793 
z
" clip-path="url(#pbbec27aea9)" style="fill: #0000ff"/>
   </g>
   <g id="patch_201">
    <path d="M 218.773869 134.006897 
L 543.506102 134.006897 
L 543.506102 128.213793 
L 218.773869 128.213793 
z
" clip-path="url(#pbbec27aea9)" style="fill: #0000ff"/>
   </g>
   <g id="patch_202">
    <path d="M 227.319454 134.006897 
L 543.506102 134.006897 
L 543.506102 128.213793 
L 227.319454 128.213793 
z
" clip-path="url(#pbbec27aea9)" style="fill: #0000ff"/>
   </g>
   <g id="patch_203">
    <path d="M 227.319454 134.006897 
L 509.323762 134.006897 
L 509.323762 128.213793 
L 227.319454 128.213793 
z
" clip-path="url(#pbbec27aea9)" style="fill: #0000ff"/>
   </g>
   <g id="patch_204">
    <path d="M 229.455851 134.006897 
L 541.369706 134.006897 
L 541.369706 128.213793 
L 229.455851 128.213793 
z
" clip-path="url(#pbbec27aea9)" style="fill: #0000ff"/>
   </g>
   <g id="patch_205">
    <path d="M 231.592247 134.006897 
L 541.369706 134.006897 
L 541.369706 128.213793 
L 231.592247 128.213793 
z
" clip-path="url(#pbbec27aea9)" style="fill: #0000ff"/>
   </g>
   <g id="patch_206">
    <path d="M 235.865039 134.006897 
L 534.960517 134.006897 
L 534.960517 128.213793 
L 235.865039 128.213793 
z
" clip-path="url(#pbbec27aea9)" style="fill: #0000ff"/>
   </g>
   <g id="patch_207">
    <path d="M 250.819813 134.006897 
L 545.642498 134.006897 
L 545.642498 128.213793 
L 250.819813 128.213793 
z
" clip-path="url(#pbbec27aea9)" style="fill: #0000ff"/>
   </g>
   <g id="patch_208">
    <path d="M 302.093324 134.006897 
L 534.960517 134.006897 
L 534.960517 128.213793 
L 302.093324 128.213793 
z
" clip-path="url(#pbbec27aea9)" style="fill: #0000ff"/>
   </g>
   <g id="patch_209">
    <path d="M 368.321608 134.006897 
L 481.55061 134.006897 
L 481.55061 128.213793 
L 368.321608 128.213793 
z
" clip-path="url(#pbbec27aea9)" style="fill: #0000ff"/>
   </g>
   <g id="patch_210">
    <path d="M 381.139986 134.006897 
L 541.369706 134.006897 
L 541.369706 128.213793 
L 381.139986 128.213793 
z
" clip-path="url(#pbbec27aea9)" style="fill: #0000ff"/>
   </g>
   <g id="patch_211">
    <path d="M 547.778894 131.327586 
L 552.051687 131.327586 
L 552.051687 130.893103 
L 547.778894 130.893103 
z
" clip-path="url(#pbbec27aea9)" style="fill: #0000ff"/>
   </g>
   <g id="patch_212">
    <path d="M 144 116.844828 
L 220.910266 116.844828 
L 220.910266 116.410345 
L 144 116.410345 
z
" clip-path="url(#pbbec27aea9)" style="fill: #0000ff"/>
   </g>
   <g id="patch_213">
    <path d="M 223.046662 119.524138 
L 547.778894 119.524138 
L 547.778894 113.731034 
L 223.046662 113.731034 
z
" clip-path="url(#pbbec27aea9)" style="fill: #0000ff"/>
   </g>
   <g id="patch_214">
    <path d="M 270.04738 119.524138 
L 537.096913 119.524138 
L 537.096913 113.731034 
L 270.04738 113.731034 
z
" clip-path="url(#pbbec27aea9)" style="fill: #0000ff"/>
   </g>
   <g id="patch_215">
    <path d="M 270.04738 119.524138 
L 537.096913 119.524138 
L 537.096913 113.731034 
L 270.04738 113.731034 
z
" clip-path="url(#pbbec27aea9)" style="fill: #0000ff"/>
   </g>
   <g id="patch_216">
    <path d="M 270.04738 119.524138 
L 537.096913 119.524138 
L 537.096913 113.731034 
L 270.04738 113.731034 
z
" clip-path="url(#pbbec27aea9)" style="fill: #0000ff"/>
   </g>
   <g id="patch_217">
    <path d="M 270.04738 119.524138 
L 455.913855 119.524138 
L 455.913855 113.731034 
L 270.04738 113.731034 
z
" clip-path="url(#pbbec27aea9)" style="fill: #0000ff"/>
   </g>
   <g id="patch_218">
    <path d="M 270.04738 119.524138 
L 537.096913 119.524138 
L 537.096913 113.731034 
L 270.04738 113.731034 
z
" clip-path="url(#pbbec27aea9)" style="fill: #0000ff"/>
   </g>
   <g id="patch_219">
    <path d="M 270.04738 119.524138 
L 537.096913 119.524138 
L 537.096913 113.731034 
L 270.04738 113.731034 
z
" clip-path="url(#pbbec27aea9)" style="fill: #0000ff"/>
   </g>
   <g id="patch_220">
    <path d="M 289.274946 119.524138 
L 537.096913 119.524138 
L 537.096913 113.731034 
L 289.274946 113.731034 
z
" clip-path="url(#pbbec27aea9)" style="fill: #0000ff"/>
   </g>
   <g id="patch_221">
    <path d="M 289.274946 119.524138 
L 539.233309 119.524138 
L 539.233309 113.731034 
L 289.274946 113.731034 
z
" clip-path="url(#pbbec27aea9)" style="fill: #0000ff"/>
   </g>
   <g id="patch_222">
    <path d="M 291.411342 119.524138 
L 537.096913 119.524138 
L 537.096913 113.731034 
L 291.411342 113.731034 
z
" clip-path="url(#pbbec27aea9)" style="fill: #0000ff"/>
   </g>
   <g id="patch_223">
    <path d="M 293.547739 119.524138 
L 522.142139 119.524138 
L 522.142139 113.731034 
L 293.547739 113.731034 
z
" clip-path="url(#pbbec27aea9)" style="fill: #0000ff"/>
   </g>
   <g id="patch_224">
    <path d="M 295.684135 119.524138 
L 537.096913 119.524138 
L 537.096913 113.731034 
L 295.684135 113.731034 
z
" clip-path="url(#pbbec27aea9)" style="fill: #0000ff"/>
   </g>
   <g id="patch_225">
    <path d="M 295.684135 119.524138 
L 537.096913 119.524138 
L 537.096913 113.731034 
L 295.684135 113.731034 
z
" clip-path="url(#pbbec27aea9)" style="fill: #0000ff"/>
   </g>
   <g id="patch_226">
    <path d="M 295.684135 119.524138 
L 517.869347 119.524138 
L 517.869347 113.731034 
L 295.684135 113.731034 
z
" clip-path="url(#pbbec27aea9)" style="fill: #0000ff"/>
   </g>
   <g id="patch_227">
    <path d="M 297.820531 119.524138 
L 537.096913 119.524138 
L 537.096913 113.731034 
L 297.820531 113.731034 
z
" clip-path="url(#pbbec27aea9)" style="fill: #0000ff"/>
   </g>
   <g id="patch_228">
    <path d="M 297.820531 119.524138 
L 537.096913 119.524138 
L 537.096913 113.731034 
L 297.820531 113.731034 
z
" clip-path="url(#pbbec27aea9)" style="fill: #0000ff"/>
   </g>
   <g id="patch_229">
    <path d="M 310.638909 119.524138 
L 537.096913 119.524138 
L 537.096913 113.731034 
L 310.638909 113.731034 
z
" clip-path="url(#pbbec27aea9)" style="fill: #0000ff"/>
   </g>
   <g id="patch_230">
    <path d="M 549.915291 116.844828 
L 552.051687 116.844828 
L 552.051687 116.410345 
L 549.915291 116.410345 
z
" clip-path="url(#pbbec27aea9)" style="fill: #0000ff"/>
   </g>
   <g id="patch_231">
    <path d="M 144 102.362069 
L 188.864322 102.362069 
L 188.864322 101.927586 
L 144 101.927586 
z
" clip-path="url(#pbbec27aea9)" style="fill: #0000ff"/>
   </g>
   <g id="patch_232">
    <path d="M 191.000718 105.041379 
L 389.685571 105.041379 
L 389.685571 99.248276 
L 191.000718 99.248276 
z
" clip-path="url(#pbbec27aea9)" style="fill: #0000ff"/>
   </g>
   <g id="patch_233">
    <path d="M 197.409907 105.041379 
L 466.595836 105.041379 
L 466.595836 99.248276 
L 197.409907 99.248276 
z
" clip-path="url(#pbbec27aea9)" style="fill: #0000ff"/>
   </g>
   <g id="patch_234">
    <path d="M 197.409907 105.041379 
L 462.323044 105.041379 
L 462.323044 99.248276 
L 197.409907 99.248276 
z
" clip-path="url(#pbbec27aea9)" style="fill: #0000ff"/>
   </g>
   <g id="patch_235">
    <path d="M 197.409907 105.041379 
L 466.595836 105.041379 
L 466.595836 99.248276 
L 197.409907 99.248276 
z
" clip-path="url(#pbbec27aea9)" style="fill: #0000ff"/>
   </g>
   <g id="patch_236">
    <path d="M 197.409907 105.041379 
L 466.595836 105.041379 
L 466.595836 99.248276 
L 197.409907 99.248276 
z
" clip-path="url(#pbbec27aea9)" style="fill: #0000ff"/>
   </g>
   <g id="patch_237">
    <path d="M 197.409907 105.041379 
L 462.323044 105.041379 
L 462.323044 99.248276 
L 197.409907 99.248276 
z
" clip-path="url(#pbbec27aea9)" style="fill: #0000ff"/>
   </g>
   <g id="patch_238">
    <path d="M 197.409907 105.041379 
L 402.503948 105.041379 
L 402.503948 99.248276 
L 197.409907 99.248276 
z
" clip-path="url(#pbbec27aea9)" style="fill: #0000ff"/>
   </g>
   <g id="patch_239">
    <path d="M 197.409907 105.041379 
L 462.323044 105.041379 
L 462.323044 99.248276 
L 197.409907 99.248276 
z
" clip-path="url(#pbbec27aea9)" style="fill: #0000ff"/>
   </g>
   <g id="patch_240">
    <path d="M 214.501077 105.041379 
L 462.323044 105.041379 
L 462.323044 99.248276 
L 214.501077 99.248276 
z
" clip-path="url(#pbbec27aea9)" style="fill: #0000ff"/>
   </g>
   <g id="patch_241">
    <path d="M 218.773869 105.041379 
L 466.595836 105.041379 
L 466.595836 99.248276 
L 218.773869 99.248276 
z
" clip-path="url(#pbbec27aea9)" style="fill: #0000ff"/>
   </g>
   <g id="patch_242">
    <path d="M 218.773869 105.041379 
L 464.45944 105.041379 
L 464.45944 99.248276 
L 218.773869 99.248276 
z
" clip-path="url(#pbbec27aea9)" style="fill: #0000ff"/>
   </g>
   <g id="patch_243">
    <path d="M 227.319454 105.041379 
L 466.595836 105.041379 
L 466.595836 99.248276 
L 227.319454 99.248276 
z
" clip-path="url(#pbbec27aea9)" style="fill: #0000ff"/>
   </g>
   <g id="patch_244">
    <path d="M 233.728643 105.041379 
L 443.095477 105.041379 
L 443.095477 99.248276 
L 233.728643 99.248276 
z
" clip-path="url(#pbbec27aea9)" style="fill: #0000ff"/>
   </g>
   <g id="patch_245">
    <path d="M 235.865039 105.041379 
L 466.595836 105.041379 
L 466.595836 99.248276 
L 235.865039 99.248276 
z
" clip-path="url(#pbbec27aea9)" style="fill: #0000ff"/>
   </g>
   <g id="patch_246">
    <path d="M 235.865039 105.041379 
L 466.595836 105.041379 
L 466.595836 99.248276 
L 235.865039 99.248276 
z
" clip-path="url(#pbbec27aea9)" style="fill: #0000ff"/>
   </g>
   <g id="patch_247">
    <path d="M 238.001436 105.041379 
L 462.323044 105.041379 
L 462.323044 99.248276 
L 238.001436 99.248276 
z
" clip-path="url(#pbbec27aea9)" style="fill: #0000ff"/>
   </g>
   <g id="patch_248">
    <path d="M 240.137832 105.041379 
L 466.595836 105.041379 
L 466.595836 99.248276 
L 240.137832 99.248276 
z
" clip-path="url(#pbbec27aea9)" style="fill: #0000ff"/>
   </g>
   <g id="patch_249">
    <path d="M 257.229002 105.041379 
L 462.323044 105.041379 
L 462.323044 99.248276 
L 257.229002 99.248276 
z
" clip-path="url(#pbbec27aea9)" style="fill: #0000ff"/>
   </g>
   <g id="patch_250">
    <path d="M 257.229002 105.041379 
L 462.323044 105.041379 
L 462.323044 99.248276 
L 257.229002 99.248276 
z
" clip-path="url(#pbbec27aea9)" style="fill: #0000ff"/>
   </g>
   <g id="patch_251">
    <path d="M 468.732233 102.362069 
L 473.005025 102.362069 
L 473.005025 101.927586 
L 468.732233 101.927586 
z
" clip-path="url(#pbbec27aea9)" style="fill: #0000ff"/>
   </g>
   <g id="patch_252">
    <path d="M 144 87.87931 
L 250.819813 87.87931 
L 250.819813 87.444828 
L 144 87.444828 
z
" clip-path="url(#pbbec27aea9)" style="fill: #0000ff"/>
   </g>
   <g id="patch_253">
    <path d="M 252.95621 90.558621 
L 522.142139 90.558621 
L 522.142139 84.765517 
L 252.95621 84.765517 
z
" clip-path="url(#pbbec27aea9)" style="fill: #0000ff"/>
   </g>
   <g id="patch_254">
    <path d="M 252.95621 90.558621 
L 517.869347 90.558621 
L 517.869347 84.765517 
L 252.95621 84.765517 
z
" clip-path="url(#pbbec27aea9)" style="fill: #0000ff"/>
   </g>
   <g id="patch_255">
    <path d="M 252.95621 90.558621 
L 522.142139 90.558621 
L 522.142139 84.765517 
L 252.95621 84.765517 
z
" clip-path="url(#pbbec27aea9)" style="fill: #0000ff"/>
   </g>
   <g id="patch_256">
    <path d="M 252.95621 90.558621 
L 464.45944 90.558621 
L 464.45944 84.765517 
L 252.95621 84.765517 
z
" clip-path="url(#pbbec27aea9)" style="fill: #0000ff"/>
   </g>
   <g id="patch_257">
    <path d="M 252.95621 90.558621 
L 517.869347 90.558621 
L 517.869347 84.765517 
L 252.95621 84.765517 
z
" clip-path="url(#pbbec27aea9)" style="fill: #0000ff"/>
   </g>
   <g id="patch_258">
    <path d="M 252.95621 90.558621 
L 426.004307 90.558621 
L 426.004307 84.765517 
L 252.95621 84.765517 
z
" clip-path="url(#pbbec27aea9)" style="fill: #0000ff"/>
   </g>
   <g id="patch_259">
    <path d="M 252.95621 90.558621 
L 517.869347 90.558621 
L 517.869347 84.765517 
L 252.95621 84.765517 
z
" clip-path="url(#pbbec27aea9)" style="fill: #0000ff"/>
   </g>
   <g id="patch_260">
    <path d="M 270.04738 90.558621 
L 517.869347 90.558621 
L 517.869347 84.765517 
L 270.04738 84.765517 
z
" clip-path="url(#pbbec27aea9)" style="fill: #0000ff"/>
   </g>
   <g id="patch_261">
    <path d="M 272.183776 90.558621 
L 520.005743 90.558621 
L 520.005743 84.765517 
L 272.183776 84.765517 
z
" clip-path="url(#pbbec27aea9)" style="fill: #0000ff"/>
   </g>
   <g id="patch_262">
    <path d="M 274.320172 90.558621 
L 522.142139 90.558621 
L 522.142139 84.765517 
L 274.320172 84.765517 
z
" clip-path="url(#pbbec27aea9)" style="fill: #0000ff"/>
   </g>
   <g id="patch_263">
    <path d="M 276.456569 90.558621 
L 517.869347 90.558621 
L 517.869347 84.765517 
L 276.456569 84.765517 
z
" clip-path="url(#pbbec27aea9)" style="fill: #0000ff"/>
   </g>
   <g id="patch_264">
    <path d="M 278.592965 90.558621 
L 517.869347 90.558621 
L 517.869347 84.765517 
L 278.592965 84.765517 
z
" clip-path="url(#pbbec27aea9)" style="fill: #0000ff"/>
   </g>
   <g id="patch_265">
    <path d="M 278.592965 90.558621 
L 498.64178 90.558621 
L 498.64178 84.765517 
L 278.592965 84.765517 
z
" clip-path="url(#pbbec27aea9)" style="fill: #0000ff"/>
   </g>
   <g id="patch_266">
    <path d="M 291.411342 90.558621 
L 517.869347 90.558621 
L 517.869347 84.765517 
L 291.411342 84.765517 
z
" clip-path="url(#pbbec27aea9)" style="fill: #0000ff"/>
   </g>
   <g id="patch_267">
    <path d="M 291.411342 90.558621 
L 517.869347 90.558621 
L 517.869347 84.765517 
L 291.411342 84.765517 
z
" clip-path="url(#pbbec27aea9)" style="fill: #0000ff"/>
   </g>
   <g id="patch_268">
    <path d="M 291.411342 90.558621 
L 517.869347 90.558621 
L 517.869347 84.765517 
L 291.411342 84.765517 
z
" clip-path="url(#pbbec27aea9)" style="fill: #0000ff"/>
   </g>
   <g id="patch_269">
    <path d="M 293.547739 90.558621 
L 517.869347 90.558621 
L 517.869347 84.765517 
L 293.547739 84.765517 
z
" clip-path="url(#pbbec27aea9)" style="fill: #0000ff"/>
   </g>
   <g id="patch_270">
    <path d="M 385.412778 90.558621 
L 522.142139 90.558621 
L 522.142139 84.765517 
L 385.412778 84.765517 
z
" clip-path="url(#pbbec27aea9)" style="fill: #0000ff"/>
   </g>
   <g id="patch_271">
    <path d="M 524.278536 87.87931 
L 528.551328 87.87931 
L 528.551328 87.444828 
L 524.278536 87.444828 
z
" clip-path="url(#pbbec27aea9)" style="fill: #0000ff"/>
   </g>
   <g id="patch_272">
    <path d="M 144 73.396552 
L 205.955492 73.396552 
L 205.955492 72.962069 
L 144 72.962069 
z
" clip-path="url(#pbbec27aea9)" style="fill: #0000ff"/>
   </g>
   <g id="patch_273">
    <path d="M 208.091888 76.075862 
L 487.959799 76.075862 
L 487.959799 70.282759 
L 208.091888 70.282759 
z
" clip-path="url(#pbbec27aea9)" style="fill: #0000ff"/>
   </g>
   <g id="patch_274">
    <path d="M 208.091888 76.075862 
L 487.959799 76.075862 
L 487.959799 70.282759 
L 208.091888 70.282759 
z
" clip-path="url(#pbbec27aea9)" style="fill: #0000ff"/>
   </g>
   <g id="patch_275">
    <path d="M 208.091888 76.075862 
L 487.959799 76.075862 
L 487.959799 70.282759 
L 208.091888 70.282759 
z
" clip-path="url(#pbbec27aea9)" style="fill: #0000ff"/>
   </g>
   <g id="patch_276">
    <path d="M 208.091888 76.075862 
L 393.958363 76.075862 
L 393.958363 70.282759 
L 208.091888 70.282759 
z
" clip-path="url(#pbbec27aea9)" style="fill: #0000ff"/>
   </g>
   <g id="patch_277">
    <path d="M 208.091888 76.075862 
L 490.096195 76.075862 
L 490.096195 70.282759 
L 208.091888 70.282759 
z
" clip-path="url(#pbbec27aea9)" style="fill: #0000ff"/>
   </g>
   <g id="patch_278">
    <path d="M 208.091888 76.075862 
L 487.959799 76.075862 
L 487.959799 70.282759 
L 208.091888 70.282759 
z
" clip-path="url(#pbbec27aea9)" style="fill: #0000ff"/>
   </g>
   <g id="patch_279">
    <path d="M 208.091888 76.075862 
L 353.366834 76.075862 
L 353.366834 70.282759 
L 208.091888 70.282759 
z
" clip-path="url(#pbbec27aea9)" style="fill: #0000ff"/>
   </g>
   <g id="patch_280">
    <path d="M 231.592247 76.075862 
L 490.096195 76.075862 
L 490.096195 70.282759 
L 231.592247 70.282759 
z
" clip-path="url(#pbbec27aea9)" style="fill: #0000ff"/>
   </g>
   <g id="patch_281">
    <path d="M 231.592247 76.075862 
L 413.18593 76.075862 
L 413.18593 70.282759 
L 231.592247 70.282759 
z
" clip-path="url(#pbbec27aea9)" style="fill: #0000ff"/>
   </g>
   <g id="patch_282">
    <path d="M 233.728643 76.075862 
L 490.096195 76.075862 
L 490.096195 70.282759 
L 233.728643 70.282759 
z
" clip-path="url(#pbbec27aea9)" style="fill: #0000ff"/>
   </g>
   <g id="patch_283">
    <path d="M 233.728643 76.075862 
L 485.823403 76.075862 
L 485.823403 70.282759 
L 233.728643 70.282759 
z
" clip-path="url(#pbbec27aea9)" style="fill: #0000ff"/>
   </g>
   <g id="patch_284">
    <path d="M 233.728643 76.075862 
L 483.687006 76.075862 
L 483.687006 70.282759 
L 233.728643 70.282759 
z
" clip-path="url(#pbbec27aea9)" style="fill: #0000ff"/>
   </g>
   <g id="patch_285">
    <path d="M 246.547021 76.075862 
L 490.096195 76.075862 
L 490.096195 70.282759 
L 246.547021 70.282759 
z
" clip-path="url(#pbbec27aea9)" style="fill: #0000ff"/>
   </g>
   <g id="patch_286">
    <path d="M 492.232592 73.396552 
L 520.005743 73.396552 
L 520.005743 72.962069 
L 492.232592 72.962069 
z
" clip-path="url(#pbbec27aea9)" style="fill: #0000ff"/>
   </g>
   <g id="patch_287">
    <path d="M 144 58.913793 
L 250.819813 58.913793 
L 250.819813 58.47931 
L 144 58.47931 
z
" clip-path="url(#pbbec27aea9)" style="fill: #0000ff"/>
   </g>
   <g id="patch_288">
    <path d="M 252.95621 61.593103 
L 562.733668 61.593103 
L 562.733668 55.8 
L 252.95621 55.8 
z
" clip-path="url(#pbbec27aea9)" style="fill: #0000ff"/>
   </g>
   <g id="patch_289">
    <path d="M 278.592965 61.593103 
L 549.915291 61.593103 
L 549.915291 55.8 
L 278.592965 55.8 
z
" clip-path="url(#pbbec27aea9)" style="fill: #0000ff"/>
   </g>
   <g id="patch_290">
    <path d="M 278.592965 61.593103 
L 564.870065 61.593103 
L 564.870065 55.8 
L 278.592965 55.8 
z
" clip-path="url(#pbbec27aea9)" style="fill: #0000ff"/>
   </g>
   <g id="patch_291">
    <path d="M 278.592965 61.593103 
L 569.142857 61.593103 
L 569.142857 55.8 
L 278.592965 55.8 
z
" clip-path="url(#pbbec27aea9)" style="fill: #0000ff"/>
   </g>
   <g id="patch_292">
    <path d="M 278.592965 61.593103 
L 567.006461 61.593103 
L 567.006461 55.8 
L 278.592965 55.8 
z
" clip-path="url(#pbbec27aea9)" style="fill: #0000ff"/>
   </g>
   <g id="patch_293">
    <path d="M 278.592965 61.593103 
L 567.006461 61.593103 
L 567.006461 55.8 
L 278.592965 55.8 
z
" clip-path="url(#pbbec27aea9)" style="fill: #0000ff"/>
   </g>
   <g id="patch_294">
    <path d="M 278.592965 61.593103 
L 485.823403 61.593103 
L 485.823403 55.8 
L 278.592965 55.8 
z
" clip-path="url(#pbbec27aea9)" style="fill: #0000ff"/>
   </g>
   <g id="patch_295">
    <path d="M 278.592965 61.593103 
L 379.003589 61.593103 
L 379.003589 55.8 
L 278.592965 55.8 
z
" clip-path="url(#pbbec27aea9)" style="fill: #0000ff"/>
   </g>
   <g id="patch_296">
    <path d="M 278.592965 61.593103 
L 567.006461 61.593103 
L 567.006461 55.8 
L 278.592965 55.8 
z
" clip-path="url(#pbbec27aea9)" style="fill: #0000ff"/>
   </g>
   <g id="patch_297">
    <path d="M 293.547739 61.593103 
L 567.006461 61.593103 
L 567.006461 55.8 
L 293.547739 55.8 
z
" clip-path="url(#pbbec27aea9)" style="fill: #0000ff"/>
   </g>
   <g id="patch_298">
    <path d="M 299.956927 61.593103 
L 567.006461 61.593103 
L 567.006461 55.8 
L 299.956927 55.8 
z
" clip-path="url(#pbbec27aea9)" style="fill: #0000ff"/>
   </g>
   <g id="patch_299">
    <path d="M 302.093324 61.593103 
L 567.006461 61.593103 
L 567.006461 55.8 
L 302.093324 55.8 
z
" clip-path="url(#pbbec27aea9)" style="fill: #0000ff"/>
   </g>
   <g id="patch_300">
    <path d="M 304.22972 61.593103 
L 567.006461 61.593103 
L 567.006461 55.8 
L 304.22972 55.8 
z
" clip-path="url(#pbbec27aea9)" style="fill: #0000ff"/>
   </g>
   <g id="patch_301">
    <path d="M 304.22972 61.593103 
L 569.142857 61.593103 
L 569.142857 55.8 
L 304.22972 55.8 
z
" clip-path="url(#pbbec27aea9)" style="fill: #0000ff"/>
   </g>
   <g id="patch_302">
    <path d="M 304.22972 61.593103 
L 545.642498 61.593103 
L 545.642498 55.8 
L 304.22972 55.8 
z
" clip-path="url(#pbbec27aea9)" style="fill: #0000ff"/>
   </g>
   <g id="patch_303">
    <path d="M 319.184494 61.593103 
L 569.142857 61.593103 
L 569.142857 55.8 
L 319.184494 55.8 
z
" clip-path="url(#pbbec27aea9)" style="fill: #0000ff"/>
   </g>
   <g id="patch_304">
    <path d="M 571.279253 58.913793 
L 579.824838 58.913793 
L 579.824838 58.47931 
L 571.279253 58.47931 
z
" clip-path="url(#pbbec27aea9)" style="fill: #0000ff"/>
   </g>
   <g id="matplotlib.axis_1">
    <g id="xtick_1">
     <g id="line2d_1">
      <defs>
       <path id="ma511f88f86" d="M 0 0 
L 0 3.5 
" style="stroke: #000000; stroke-width: 0.8"/>
      </defs>
      <g>
       <use xlink:href="#ma511f88f86" x="248.683417" y="320.4" style="stroke: #000000; stroke-width: 0.8"/>
      </g>
     </g>
     <g id="text_1">
      <!-- 50 -->
      <g transform="translate(242.320917 334.998438) scale(0.1 -0.1)">
       <defs>
        <path id="DejaVuSans-35" d="M 691 4666 
L 3169 4666 
L 3169 4134 
L 1269 4134 
L 1269 2991 
Q 1406 3038 1543 3061 
Q 1681 3084 1819 3084 
Q 2600 3084 3056 2656 
Q 3513 2228 3513 1497 
Q 3513 744 3044 326 
Q 2575 -91 1722 -91 
Q 1428 -91 1123 -41 
Q 819 9 494 109 
L 494 744 
Q 775 591 1075 516 
Q 1375 441 1709 441 
Q 2250 441 2565 725 
Q 2881 1009 2881 1497 
Q 2881 1984 2565 2268 
Q 2250 2553 1709 2553 
Q 1456 2553 1204 2497 
Q 953 2441 691 2322 
L 691 4666 
z
" transform="scale(0.015625)"/>
        <path id="DejaVuSans-30" d="M 2034 4250 
Q 1547 4250 1301 3770 
Q 1056 3291 1056 2328 
Q 1056 1369 1301 889 
Q 1547 409 2034 409 
Q 2525 409 2770 889 
Q 3016 1369 3016 2328 
Q 3016 3291 2770 3770 
Q 2525 4250 2034 4250 
z
M 2034 4750 
Q 2819 4750 3233 4129 
Q 3647 3509 3647 2328 
Q 3647 1150 3233 529 
Q 2819 -91 2034 -91 
Q 1250 -91 836 529 
Q 422 1150 422 2328 
Q 422 3509 836 4129 
Q 1250 4750 2034 4750 
z
" transform="scale(0.015625)"/>
       </defs>
       <use xlink:href="#DejaVuSans-35"/>
       <use xlink:href="#DejaVuSans-30" x="63.623047"/>
      </g>
     </g>
    </g>
    <g id="xtick_2">
     <g id="line2d_2">
      <g>
       <use xlink:href="#ma511f88f86" x="355.50323" y="320.4" style="stroke: #000000; stroke-width: 0.8"/>
      </g>
     </g>
     <g id="text_2">
      <!-- 100 -->
      <g transform="translate(345.95948 334.998438) scale(0.1 -0.1)">
       <defs>
        <path id="DejaVuSans-31" d="M 794 531 
L 1825 531 
L 1825 4091 
L 703 3866 
L 703 4441 
L 1819 4666 
L 2450 4666 
L 2450 531 
L 3481 531 
L 3481 0 
L 794 0 
L 794 531 
z
" transform="scale(0.015625)"/>
       </defs>
       <use xlink:href="#DejaVuSans-31"/>
       <use xlink:href="#DejaVuSans-30" x="63.623047"/>
       <use xlink:href="#DejaVuSans-30" x="127.246094"/>
      </g>
     </g>
    </g>
    <g id="xtick_3">
     <g id="line2d_3">
      <g>
       <use xlink:href="#ma511f88f86" x="462.323044" y="320.4" style="stroke: #000000; stroke-width: 0.8"/>
      </g>
     </g>
     <g id="text_3">
      <!-- 150 -->
      <g transform="translate(452.779294 334.998438) scale(0.1 -0.1)">
       <use xlink:href="#DejaVuSans-31"/>
       <use xlink:href="#DejaVuSans-35" x="63.623047"/>
       <use xlink:href="#DejaVuSans-30" x="127.246094"/>
      </g>
     </g>
    </g>
    <g id="xtick_4">
     <g id="line2d_4">
      <g>
       <use xlink:href="#ma511f88f86" x="569.142857" y="320.4" style="stroke: #000000; stroke-width: 0.8"/>
      </g>
     </g>
     <g id="text_4">
      <!-- 200 -->
      <g transform="translate(559.599107 334.998438) scale(0.1 -0.1)">
       <defs>
        <path id="DejaVuSans-32" d="M 1228 531 
L 3431 531 
L 3431 0 
L 469 0 
L 469 531 
Q 828 903 1448 1529 
Q 2069 2156 2228 2338 
Q 2531 2678 2651 2914 
Q 2772 3150 2772 3378 
Q 2772 3750 2511 3984 
Q 2250 4219 1831 4219 
Q 1534 4219 1204 4116 
Q 875 4013 500 3803 
L 500 4441 
Q 881 4594 1212 4672 
Q 1544 4750 1819 4750 
Q 2544 4750 2975 4387 
Q 3406 4025 3406 3419 
Q 3406 3131 3298 2873 
Q 3191 2616 2906 2266 
Q 2828 2175 2409 1742 
Q 1991 1309 1228 531 
z
" transform="scale(0.015625)"/>
       </defs>
       <use xlink:href="#DejaVuSans-32"/>
       <use xlink:href="#DejaVuSans-30" x="63.623047"/>
       <use xlink:href="#DejaVuSans-30" x="127.246094"/>
      </g>
     </g>
    </g>
    <g id="xtick_5">
     <g id="line2d_5">
      <g>
       <use xlink:href="#ma511f88f86" x="675.96267" y="320.4" style="stroke: #000000; stroke-width: 0.8"/>
      </g>
     </g>
     <g id="text_5">
      <!-- 250 -->
      <g transform="translate(666.41892 334.998438) scale(0.1 -0.1)">
       <use xlink:href="#DejaVuSans-32"/>
       <use xlink:href="#DejaVuSans-35" x="63.623047"/>
       <use xlink:href="#DejaVuSans-30" x="127.246094"/>
      </g>
     </g>
    </g>
    <g id="xtick_6">
     <g id="line2d_6">
      <g>
       <use xlink:href="#ma511f88f86" x="782.782484" y="320.4" style="stroke: #000000; stroke-width: 0.8"/>
      </g>
     </g>
     <g id="text_6">
      <!-- 300 -->
      <g transform="translate(773.238734 334.998438) scale(0.1 -0.1)">
       <defs>
        <path id="DejaVuSans-33" d="M 2597 2516 
Q 3050 2419 3304 2112 
Q 3559 1806 3559 1356 
Q 3559 666 3084 287 
Q 2609 -91 1734 -91 
Q 1441 -91 1130 -33 
Q 819 25 488 141 
L 488 750 
Q 750 597 1062 519 
Q 1375 441 1716 441 
Q 2309 441 2620 675 
Q 2931 909 2931 1356 
Q 2931 1769 2642 2001 
Q 2353 2234 1838 2234 
L 1294 2234 
L 1294 2753 
L 1863 2753 
Q 2328 2753 2575 2939 
Q 2822 3125 2822 3475 
Q 2822 3834 2567 4026 
Q 2313 4219 1838 4219 
Q 1578 4219 1281 4162 
Q 984 4106 628 3988 
L 628 4550 
Q 988 4650 1302 4700 
Q 1616 4750 1894 4750 
Q 2613 4750 3031 4423 
Q 3450 4097 3450 3541 
Q 3450 3153 3228 2886 
Q 3006 2619 2597 2516 
z
" transform="scale(0.015625)"/>
       </defs>
       <use xlink:href="#DejaVuSans-33"/>
       <use xlink:href="#DejaVuSans-30" x="63.623047"/>
       <use xlink:href="#DejaVuSans-30" x="127.246094"/>
      </g>
     </g>
    </g>
    <g id="xtick_7">
     <g id="line2d_7">
      <g>
       <use xlink:href="#ma511f88f86" x="889.602297" y="320.4" style="stroke: #000000; stroke-width: 0.8"/>
      </g>
     </g>
     <g id="text_7">
      <!-- 350 -->
      <g transform="translate(880.058547 334.998438) scale(0.1 -0.1)">
       <use xlink:href="#DejaVuSans-33"/>
       <use xlink:href="#DejaVuSans-35" x="63.623047"/>
       <use xlink:href="#DejaVuSans-30" x="127.246094"/>
      </g>
     </g>
    </g>
    <g id="xtick_8">
     <g id="line2d_8">
      <g>
       <use xlink:href="#ma511f88f86" x="996.422111" y="320.4" style="stroke: #000000; stroke-width: 0.8"/>
      </g>
     </g>
     <g id="text_8">
      <!-- 400 -->
      <g transform="translate(986.878361 334.998438) scale(0.1 -0.1)">
       <defs>
        <path id="DejaVuSans-34" d="M 2419 4116 
L 825 1625 
L 2419 1625 
L 2419 4116 
z
M 2253 4666 
L 3047 4666 
L 3047 1625 
L 3713 1625 
L 3713 1100 
L 3047 1100 
L 3047 0 
L 2419 0 
L 2419 1100 
L 313 1100 
L 313 1709 
L 2253 4666 
z
" transform="scale(0.015625)"/>
       </defs>
       <use xlink:href="#DejaVuSans-34"/>
       <use xlink:href="#DejaVuSans-30" x="63.623047"/>
       <use xlink:href="#DejaVuSans-30" x="127.246094"/>
      </g>
     </g>
    </g>
    <g id="text_9">
     <!-- Residual -->
     <g transform="translate(569.284375 348.676562) scale(0.1 -0.1)">
      <defs>
       <path id="DejaVuSans-52" d="M 2841 2188 
Q 3044 2119 3236 1894 
Q 3428 1669 3622 1275 
L 4263 0 
L 3584 0 
L 2988 1197 
Q 2756 1666 2539 1819 
Q 2322 1972 1947 1972 
L 1259 1972 
L 1259 0 
L 628 0 
L 628 4666 
L 2053 4666 
Q 2853 4666 3247 4331 
Q 3641 3997 3641 3322 
Q 3641 2881 3436 2590 
Q 3231 2300 2841 2188 
z
M 1259 4147 
L 1259 2491 
L 2053 2491 
Q 2509 2491 2742 2702 
Q 2975 2913 2975 3322 
Q 2975 3731 2742 3939 
Q 2509 4147 2053 4147 
L 1259 4147 
z
" transform="scale(0.015625)"/>
       <path id="DejaVuSans-65" d="M 3597 1894 
L 3597 1613 
L 953 1613 
Q 991 1019 1311 708 
Q 1631 397 2203 397 
Q 2534 397 2845 478 
Q 3156 559 3463 722 
L 3463 178 
Q 3153 47 2828 -22 
Q 2503 -91 2169 -91 
Q 1331 -91 842 396 
Q 353 884 353 1716 
Q 353 2575 817 3079 
Q 1281 3584 2069 3584 
Q 2775 3584 3186 3129 
Q 3597 2675 3597 1894 
z
M 3022 2063 
Q 3016 2534 2758 2815 
Q 2500 3097 2075 3097 
Q 1594 3097 1305 2825 
Q 1016 2553 972 2059 
L 3022 2063 
z
" transform="scale(0.015625)"/>
       <path id="DejaVuSans-73" d="M 2834 3397 
L 2834 2853 
Q 2591 2978 2328 3040 
Q 2066 3103 1784 3103 
Q 1356 3103 1142 2972 
Q 928 2841 928 2578 
Q 928 2378 1081 2264 
Q 1234 2150 1697 2047 
L 1894 2003 
Q 2506 1872 2764 1633 
Q 3022 1394 3022 966 
Q 3022 478 2636 193 
Q 2250 -91 1575 -91 
Q 1294 -91 989 -36 
Q 684 19 347 128 
L 347 722 
Q 666 556 975 473 
Q 1284 391 1588 391 
Q 1994 391 2212 530 
Q 2431 669 2431 922 
Q 2431 1156 2273 1281 
Q 2116 1406 1581 1522 
L 1381 1569 
Q 847 1681 609 1914 
Q 372 2147 372 2553 
Q 372 3047 722 3315 
Q 1072 3584 1716 3584 
Q 2034 3584 2315 3537 
Q 2597 3491 2834 3397 
z
" transform="scale(0.015625)"/>
       <path id="DejaVuSans-69" d="M 603 3500 
L 1178 3500 
L 1178 0 
L 603 0 
L 603 3500 
z
M 603 4863 
L 1178 4863 
L 1178 4134 
L 603 4134 
L 603 4863 
z
" transform="scale(0.015625)"/>
       <path id="DejaVuSans-64" d="M 2906 2969 
L 2906 4863 
L 3481 4863 
L 3481 0 
L 2906 0 
L 2906 525 
Q 2725 213 2448 61 
Q 2172 -91 1784 -91 
Q 1150 -91 751 415 
Q 353 922 353 1747 
Q 353 2572 751 3078 
Q 1150 3584 1784 3584 
Q 2172 3584 2448 3432 
Q 2725 3281 2906 2969 
z
M 947 1747 
Q 947 1113 1208 752 
Q 1469 391 1925 391 
Q 2381 391 2643 752 
Q 2906 1113 2906 1747 
Q 2906 2381 2643 2742 
Q 2381 3103 1925 3103 
Q 1469 3103 1208 2742 
Q 947 2381 947 1747 
z
" transform="scale(0.015625)"/>
       <path id="DejaVuSans-75" d="M 544 1381 
L 544 3500 
L 1119 3500 
L 1119 1403 
Q 1119 906 1312 657 
Q 1506 409 1894 409 
Q 2359 409 2629 706 
Q 2900 1003 2900 1516 
L 2900 3500 
L 3475 3500 
L 3475 0 
L 2900 0 
L 2900 538 
Q 2691 219 2414 64 
Q 2138 -91 1772 -91 
Q 1169 -91 856 284 
Q 544 659 544 1381 
z
M 1991 3584 
L 1991 3584 
z
" transform="scale(0.015625)"/>
       <path id="DejaVuSans-61" d="M 2194 1759 
Q 1497 1759 1228 1600 
Q 959 1441 959 1056 
Q 959 750 1161 570 
Q 1363 391 1709 391 
Q 2188 391 2477 730 
Q 2766 1069 2766 1631 
L 2766 1759 
L 2194 1759 
z
M 3341 1997 
L 3341 0 
L 2766 0 
L 2766 531 
Q 2569 213 2275 61 
Q 1981 -91 1556 -91 
Q 1019 -91 701 211 
Q 384 513 384 1019 
Q 384 1609 779 1909 
Q 1175 2209 1959 2209 
L 2766 2209 
L 2766 2266 
Q 2766 2663 2505 2880 
Q 2244 3097 1772 3097 
Q 1472 3097 1187 3025 
Q 903 2953 641 2809 
L 641 3341 
Q 956 3463 1253 3523 
Q 1550 3584 1831 3584 
Q 2591 3584 2966 3190 
Q 3341 2797 3341 1997 
z
" transform="scale(0.015625)"/>
       <path id="DejaVuSans-6c" d="M 603 4863 
L 1178 4863 
L 1178 0 
L 603 0 
L 603 4863 
z
" transform="scale(0.015625)"/>
      </defs>
      <use xlink:href="#DejaVuSans-52"/>
      <use xlink:href="#DejaVuSans-65" x="64.982422"/>
      <use xlink:href="#DejaVuSans-73" x="126.505859"/>
      <use xlink:href="#DejaVuSans-69" x="178.605469"/>
      <use xlink:href="#DejaVuSans-64" x="206.388672"/>
      <use xlink:href="#DejaVuSans-75" x="269.865234"/>
      <use xlink:href="#DejaVuSans-61" x="333.244141"/>
      <use xlink:href="#DejaVuSans-6c" x="394.523438"/>
     </g>
    </g>
   </g>
   <g id="matplotlib.axis_2">
    <g id="ytick_1">
     <g id="line2d_9">
      <defs>
       <path id="m47be3dd78d" d="M 0 0 
L -3.5 0 
" style="stroke: #000000; stroke-width: 0.8"/>
      </defs>
      <g>
       <use xlink:href="#m47be3dd78d" x="144" y="304.903448" style="stroke: #000000; stroke-width: 0.8"/>
      </g>
     </g>
     <g id="text_10">
      <!-- 1.C.111.1.1 -->
      <g transform="translate(79.129687 308.702667) scale(0.1 -0.1)">
       <defs>
        <path id="DejaVuSans-2e" d="M 684 794 
L 1344 794 
L 1344 0 
L 684 0 
L 684 794 
z
" transform="scale(0.015625)"/>
        <path id="DejaVuSans-43" d="M 4122 4306 
L 4122 3641 
Q 3803 3938 3442 4084 
Q 3081 4231 2675 4231 
Q 1875 4231 1450 3742 
Q 1025 3253 1025 2328 
Q 1025 1406 1450 917 
Q 1875 428 2675 428 
Q 3081 428 3442 575 
Q 3803 722 4122 1019 
L 4122 359 
Q 3791 134 3420 21 
Q 3050 -91 2638 -91 
Q 1578 -91 968 557 
Q 359 1206 359 2328 
Q 359 3453 968 4101 
Q 1578 4750 2638 4750 
Q 3056 4750 3426 4639 
Q 3797 4528 4122 4306 
z
" transform="scale(0.015625)"/>
       </defs>
       <use xlink:href="#DejaVuSans-31"/>
       <use xlink:href="#DejaVuSans-2e" x="63.623047"/>
       <use xlink:href="#DejaVuSans-43" x="95.410156"/>
       <use xlink:href="#DejaVuSans-2e" x="165.234375"/>
       <use xlink:href="#DejaVuSans-31" x="197.021484"/>
       <use xlink:href="#DejaVuSans-31" x="260.644531"/>
       <use xlink:href="#DejaVuSans-31" x="324.267578"/>
       <use xlink:href="#DejaVuSans-2e" x="387.890625"/>
       <use xlink:href="#DejaVuSans-31" x="419.677734"/>
       <use xlink:href="#DejaVuSans-2e" x="483.300781"/>
       <use xlink:href="#DejaVuSans-31" x="515.087891"/>
      </g>
     </g>
    </g>
    <g id="ytick_2">
     <g id="line2d_10">
      <g>
       <use xlink:href="#m47be3dd78d" x="144" y="290.42069" style="stroke: #000000; stroke-width: 0.8"/>
      </g>
     </g>
     <g id="text_11">
      <!-- 1.C.111.1.10 -->
      <g transform="translate(72.767187 294.219908) scale(0.1 -0.1)">
       <use xlink:href="#DejaVuSans-31"/>
       <use xlink:href="#DejaVuSans-2e" x="63.623047"/>
       <use xlink:href="#DejaVuSans-43" x="95.410156"/>
       <use xlink:href="#DejaVuSans-2e" x="165.234375"/>
       <use xlink:href="#DejaVuSans-31" x="197.021484"/>
       <use xlink:href="#DejaVuSans-31" x="260.644531"/>
       <use xlink:href="#DejaVuSans-31" x="324.267578"/>
       <use xlink:href="#DejaVuSans-2e" x="387.890625"/>
       <use xlink:href="#DejaVuSans-31" x="419.677734"/>
       <use xlink:href="#DejaVuSans-2e" x="483.300781"/>
       <use xlink:href="#DejaVuSans-31" x="515.087891"/>
       <use xlink:href="#DejaVuSans-30" x="578.710938"/>
      </g>
     </g>
    </g>
    <g id="ytick_3">
     <g id="line2d_11">
      <g>
       <use xlink:href="#m47be3dd78d" x="144" y="275.937931" style="stroke: #000000; stroke-width: 0.8"/>
      </g>
     </g>
     <g id="text_12">
      <!-- 1.C.111.1.11 -->
      <g transform="translate(72.767187 279.73715) scale(0.1 -0.1)">
       <use xlink:href="#DejaVuSans-31"/>
       <use xlink:href="#DejaVuSans-2e" x="63.623047"/>
       <use xlink:href="#DejaVuSans-43" x="95.410156"/>
       <use xlink:href="#DejaVuSans-2e" x="165.234375"/>
       <use xlink:href="#DejaVuSans-31" x="197.021484"/>
       <use xlink:href="#DejaVuSans-31" x="260.644531"/>
       <use xlink:href="#DejaVuSans-31" x="324.267578"/>
       <use xlink:href="#DejaVuSans-2e" x="387.890625"/>
       <use xlink:href="#DejaVuSans-31" x="419.677734"/>
       <use xlink:href="#DejaVuSans-2e" x="483.300781"/>
       <use xlink:href="#DejaVuSans-31" x="515.087891"/>
       <use xlink:href="#DejaVuSans-31" x="578.710938"/>
      </g>
     </g>
    </g>
    <g id="ytick_4">
     <g id="line2d_12">
      <g>
       <use xlink:href="#m47be3dd78d" x="144" y="261.455172" style="stroke: #000000; stroke-width: 0.8"/>
      </g>
     </g>
     <g id="text_13">
      <!-- 1.C.111.1.12 -->
      <g transform="translate(72.767187 265.254391) scale(0.1 -0.1)">
       <use xlink:href="#DejaVuSans-31"/>
       <use xlink:href="#DejaVuSans-2e" x="63.623047"/>
       <use xlink:href="#DejaVuSans-43" x="95.410156"/>
       <use xlink:href="#DejaVuSans-2e" x="165.234375"/>
       <use xlink:href="#DejaVuSans-31" x="197.021484"/>
       <use xlink:href="#DejaVuSans-31" x="260.644531"/>
       <use xlink:href="#DejaVuSans-31" x="324.267578"/>
       <use xlink:href="#DejaVuSans-2e" x="387.890625"/>
       <use xlink:href="#DejaVuSans-31" x="419.677734"/>
       <use xlink:href="#DejaVuSans-2e" x="483.300781"/>
       <use xlink:href="#DejaVuSans-31" x="515.087891"/>
       <use xlink:href="#DejaVuSans-32" x="578.710938"/>
      </g>
     </g>
    </g>
    <g id="ytick_5">
     <g id="line2d_13">
      <g>
       <use xlink:href="#m47be3dd78d" x="144" y="246.972414" style="stroke: #000000; stroke-width: 0.8"/>
      </g>
     </g>
     <g id="text_14">
      <!-- 1.C.111.1.13 -->
      <g transform="translate(72.767187 250.771633) scale(0.1 -0.1)">
       <use xlink:href="#DejaVuSans-31"/>
       <use xlink:href="#DejaVuSans-2e" x="63.623047"/>
       <use xlink:href="#DejaVuSans-43" x="95.410156"/>
       <use xlink:href="#DejaVuSans-2e" x="165.234375"/>
       <use xlink:href="#DejaVuSans-31" x="197.021484"/>
       <use xlink:href="#DejaVuSans-31" x="260.644531"/>
       <use xlink:href="#DejaVuSans-31" x="324.267578"/>
       <use xlink:href="#DejaVuSans-2e" x="387.890625"/>
       <use xlink:href="#DejaVuSans-31" x="419.677734"/>
       <use xlink:href="#DejaVuSans-2e" x="483.300781"/>
       <use xlink:href="#DejaVuSans-31" x="515.087891"/>
       <use xlink:href="#DejaVuSans-33" x="578.710938"/>
      </g>
     </g>
    </g>
    <g id="ytick_6">
     <g id="line2d_14">
      <g>
       <use xlink:href="#m47be3dd78d" x="144" y="232.489655" style="stroke: #000000; stroke-width: 0.8"/>
      </g>
     </g>
     <g id="text_15">
      <!-- 1.C.111.1.14 -->
      <g transform="translate(72.767187 236.288874) scale(0.1 -0.1)">
       <use xlink:href="#DejaVuSans-31"/>
       <use xlink:href="#DejaVuSans-2e" x="63.623047"/>
       <use xlink:href="#DejaVuSans-43" x="95.410156"/>
       <use xlink:href="#DejaVuSans-2e" x="165.234375"/>
       <use xlink:href="#DejaVuSans-31" x="197.021484"/>
       <use xlink:href="#DejaVuSans-31" x="260.644531"/>
       <use xlink:href="#DejaVuSans-31" x="324.267578"/>
       <use xlink:href="#DejaVuSans-2e" x="387.890625"/>
       <use xlink:href="#DejaVuSans-31" x="419.677734"/>
       <use xlink:href="#DejaVuSans-2e" x="483.300781"/>
       <use xlink:href="#DejaVuSans-31" x="515.087891"/>
       <use xlink:href="#DejaVuSans-34" x="578.710938"/>
      </g>
     </g>
    </g>
    <g id="ytick_7">
     <g id="line2d_15">
      <g>
       <use xlink:href="#m47be3dd78d" x="144" y="218.006897" style="stroke: #000000; stroke-width: 0.8"/>
      </g>
     </g>
     <g id="text_16">
      <!-- 1.C.111.1.15 -->
      <g transform="translate(72.767187 221.806115) scale(0.1 -0.1)">
       <use xlink:href="#DejaVuSans-31"/>
       <use xlink:href="#DejaVuSans-2e" x="63.623047"/>
       <use xlink:href="#DejaVuSans-43" x="95.410156"/>
       <use xlink:href="#DejaVuSans-2e" x="165.234375"/>
       <use xlink:href="#DejaVuSans-31" x="197.021484"/>
       <use xlink:href="#DejaVuSans-31" x="260.644531"/>
       <use xlink:href="#DejaVuSans-31" x="324.267578"/>
       <use xlink:href="#DejaVuSans-2e" x="387.890625"/>
       <use xlink:href="#DejaVuSans-31" x="419.677734"/>
       <use xlink:href="#DejaVuSans-2e" x="483.300781"/>
       <use xlink:href="#DejaVuSans-31" x="515.087891"/>
       <use xlink:href="#DejaVuSans-35" x="578.710938"/>
      </g>
     </g>
    </g>
    <g id="ytick_8">
     <g id="line2d_16">
      <g>
       <use xlink:href="#m47be3dd78d" x="144" y="203.524138" style="stroke: #000000; stroke-width: 0.8"/>
      </g>
     </g>
     <g id="text_17">
      <!-- 1.C.111.1.16 -->
      <g transform="translate(72.767187 207.323357) scale(0.1 -0.1)">
       <defs>
        <path id="DejaVuSans-36" d="M 2113 2584 
Q 1688 2584 1439 2293 
Q 1191 2003 1191 1497 
Q 1191 994 1439 701 
Q 1688 409 2113 409 
Q 2538 409 2786 701 
Q 3034 994 3034 1497 
Q 3034 2003 2786 2293 
Q 2538 2584 2113 2584 
z
M 3366 4563 
L 3366 3988 
Q 3128 4100 2886 4159 
Q 2644 4219 2406 4219 
Q 1781 4219 1451 3797 
Q 1122 3375 1075 2522 
Q 1259 2794 1537 2939 
Q 1816 3084 2150 3084 
Q 2853 3084 3261 2657 
Q 3669 2231 3669 1497 
Q 3669 778 3244 343 
Q 2819 -91 2113 -91 
Q 1303 -91 875 529 
Q 447 1150 447 2328 
Q 447 3434 972 4092 
Q 1497 4750 2381 4750 
Q 2619 4750 2861 4703 
Q 3103 4656 3366 4563 
z
" transform="scale(0.015625)"/>
       </defs>
       <use xlink:href="#DejaVuSans-31"/>
       <use xlink:href="#DejaVuSans-2e" x="63.623047"/>
       <use xlink:href="#DejaVuSans-43" x="95.410156"/>
       <use xlink:href="#DejaVuSans-2e" x="165.234375"/>
       <use xlink:href="#DejaVuSans-31" x="197.021484"/>
       <use xlink:href="#DejaVuSans-31" x="260.644531"/>
       <use xlink:href="#DejaVuSans-31" x="324.267578"/>
       <use xlink:href="#DejaVuSans-2e" x="387.890625"/>
       <use xlink:href="#DejaVuSans-31" x="419.677734"/>
       <use xlink:href="#DejaVuSans-2e" x="483.300781"/>
       <use xlink:href="#DejaVuSans-31" x="515.087891"/>
       <use xlink:href="#DejaVuSans-36" x="578.710938"/>
      </g>
     </g>
    </g>
    <g id="ytick_9">
     <g id="line2d_17">
      <g>
       <use xlink:href="#m47be3dd78d" x="144" y="189.041379" style="stroke: #000000; stroke-width: 0.8"/>
      </g>
     </g>
     <g id="text_18">
      <!-- 1.C.111.1.17 -->
      <g transform="translate(72.767187 192.840598) scale(0.1 -0.1)">
       <defs>
        <path id="DejaVuSans-37" d="M 525 4666 
L 3525 4666 
L 3525 4397 
L 1831 0 
L 1172 0 
L 2766 4134 
L 525 4134 
L 525 4666 
z
" transform="scale(0.015625)"/>
       </defs>
       <use xlink:href="#DejaVuSans-31"/>
       <use xlink:href="#DejaVuSans-2e" x="63.623047"/>
       <use xlink:href="#DejaVuSans-43" x="95.410156"/>
       <use xlink:href="#DejaVuSans-2e" x="165.234375"/>
       <use xlink:href="#DejaVuSans-31" x="197.021484"/>
       <use xlink:href="#DejaVuSans-31" x="260.644531"/>
       <use xlink:href="#DejaVuSans-31" x="324.267578"/>
       <use xlink:href="#DejaVuSans-2e" x="387.890625"/>
       <use xlink:href="#DejaVuSans-31" x="419.677734"/>
       <use xlink:href="#DejaVuSans-2e" x="483.300781"/>
       <use xlink:href="#DejaVuSans-31" x="515.087891"/>
       <use xlink:href="#DejaVuSans-37" x="578.710938"/>
      </g>
     </g>
    </g>
    <g id="ytick_10">
     <g id="line2d_18">
      <g>
       <use xlink:href="#m47be3dd78d" x="144" y="174.558621" style="stroke: #000000; stroke-width: 0.8"/>
      </g>
     </g>
     <g id="text_19">
      <!-- 1.C.111.1.18 -->
      <g transform="translate(72.767187 178.357839) scale(0.1 -0.1)">
       <defs>
        <path id="DejaVuSans-38" d="M 2034 2216 
Q 1584 2216 1326 1975 
Q 1069 1734 1069 1313 
Q 1069 891 1326 650 
Q 1584 409 2034 409 
Q 2484 409 2743 651 
Q 3003 894 3003 1313 
Q 3003 1734 2745 1975 
Q 2488 2216 2034 2216 
z
M 1403 2484 
Q 997 2584 770 2862 
Q 544 3141 544 3541 
Q 544 4100 942 4425 
Q 1341 4750 2034 4750 
Q 2731 4750 3128 4425 
Q 3525 4100 3525 3541 
Q 3525 3141 3298 2862 
Q 3072 2584 2669 2484 
Q 3125 2378 3379 2068 
Q 3634 1759 3634 1313 
Q 3634 634 3220 271 
Q 2806 -91 2034 -91 
Q 1263 -91 848 271 
Q 434 634 434 1313 
Q 434 1759 690 2068 
Q 947 2378 1403 2484 
z
M 1172 3481 
Q 1172 3119 1398 2916 
Q 1625 2713 2034 2713 
Q 2441 2713 2670 2916 
Q 2900 3119 2900 3481 
Q 2900 3844 2670 4047 
Q 2441 4250 2034 4250 
Q 1625 4250 1398 4047 
Q 1172 3844 1172 3481 
z
" transform="scale(0.015625)"/>
       </defs>
       <use xlink:href="#DejaVuSans-31"/>
       <use xlink:href="#DejaVuSans-2e" x="63.623047"/>
       <use xlink:href="#DejaVuSans-43" x="95.410156"/>
       <use xlink:href="#DejaVuSans-2e" x="165.234375"/>
       <use xlink:href="#DejaVuSans-31" x="197.021484"/>
       <use xlink:href="#DejaVuSans-31" x="260.644531"/>
       <use xlink:href="#DejaVuSans-31" x="324.267578"/>
       <use xlink:href="#DejaVuSans-2e" x="387.890625"/>
       <use xlink:href="#DejaVuSans-31" x="419.677734"/>
       <use xlink:href="#DejaVuSans-2e" x="483.300781"/>
       <use xlink:href="#DejaVuSans-31" x="515.087891"/>
       <use xlink:href="#DejaVuSans-38" x="578.710938"/>
      </g>
     </g>
    </g>
    <g id="ytick_11">
     <g id="line2d_19">
      <g>
       <use xlink:href="#m47be3dd78d" x="144" y="160.075862" style="stroke: #000000; stroke-width: 0.8"/>
      </g>
     </g>
     <g id="text_20">
      <!-- 1.C.111.1.2 -->
      <g transform="translate(79.129687 163.875081) scale(0.1 -0.1)">
       <use xlink:href="#DejaVuSans-31"/>
       <use xlink:href="#DejaVuSans-2e" x="63.623047"/>
       <use xlink:href="#DejaVuSans-43" x="95.410156"/>
       <use xlink:href="#DejaVuSans-2e" x="165.234375"/>
       <use xlink:href="#DejaVuSans-31" x="197.021484"/>
       <use xlink:href="#DejaVuSans-31" x="260.644531"/>
       <use xlink:href="#DejaVuSans-31" x="324.267578"/>
       <use xlink:href="#DejaVuSans-2e" x="387.890625"/>
       <use xlink:href="#DejaVuSans-31" x="419.677734"/>
       <use xlink:href="#DejaVuSans-2e" x="483.300781"/>
       <use xlink:href="#DejaVuSans-32" x="515.087891"/>
      </g>
     </g>
    </g>
    <g id="ytick_12">
     <g id="line2d_20">
      <g>
       <use xlink:href="#m47be3dd78d" x="144" y="145.593103" style="stroke: #000000; stroke-width: 0.8"/>
      </g>
     </g>
     <g id="text_21">
      <!-- 1.C.111.1.3 -->
      <g transform="translate(79.129687 149.392322) scale(0.1 -0.1)">
       <use xlink:href="#DejaVuSans-31"/>
       <use xlink:href="#DejaVuSans-2e" x="63.623047"/>
       <use xlink:href="#DejaVuSans-43" x="95.410156"/>
       <use xlink:href="#DejaVuSans-2e" x="165.234375"/>
       <use xlink:href="#DejaVuSans-31" x="197.021484"/>
       <use xlink:href="#DejaVuSans-31" x="260.644531"/>
       <use xlink:href="#DejaVuSans-31" x="324.267578"/>
       <use xlink:href="#DejaVuSans-2e" x="387.890625"/>
       <use xlink:href="#DejaVuSans-31" x="419.677734"/>
       <use xlink:href="#DejaVuSans-2e" x="483.300781"/>
       <use xlink:href="#DejaVuSans-33" x="515.087891"/>
      </g>
     </g>
    </g>
    <g id="ytick_13">
     <g id="line2d_21">
      <g>
       <use xlink:href="#m47be3dd78d" x="144" y="131.110345" style="stroke: #000000; stroke-width: 0.8"/>
      </g>
     </g>
     <g id="text_22">
      <!-- 1.C.111.1.4 -->
      <g transform="translate(79.129687 134.909564) scale(0.1 -0.1)">
       <use xlink:href="#DejaVuSans-31"/>
       <use xlink:href="#DejaVuSans-2e" x="63.623047"/>
       <use xlink:href="#DejaVuSans-43" x="95.410156"/>
       <use xlink:href="#DejaVuSans-2e" x="165.234375"/>
       <use xlink:href="#DejaVuSans-31" x="197.021484"/>
       <use xlink:href="#DejaVuSans-31" x="260.644531"/>
       <use xlink:href="#DejaVuSans-31" x="324.267578"/>
       <use xlink:href="#DejaVuSans-2e" x="387.890625"/>
       <use xlink:href="#DejaVuSans-31" x="419.677734"/>
       <use xlink:href="#DejaVuSans-2e" x="483.300781"/>
       <use xlink:href="#DejaVuSans-34" x="515.087891"/>
      </g>
     </g>
    </g>
    <g id="ytick_14">
     <g id="line2d_22">
      <g>
       <use xlink:href="#m47be3dd78d" x="144" y="116.627586" style="stroke: #000000; stroke-width: 0.8"/>
      </g>
     </g>
     <g id="text_23">
      <!-- 1.C.111.1.5 -->
      <g transform="translate(79.129687 120.426805) scale(0.1 -0.1)">
       <use xlink:href="#DejaVuSans-31"/>
       <use xlink:href="#DejaVuSans-2e" x="63.623047"/>
       <use xlink:href="#DejaVuSans-43" x="95.410156"/>
       <use xlink:href="#DejaVuSans-2e" x="165.234375"/>
       <use xlink:href="#DejaVuSans-31" x="197.021484"/>
       <use xlink:href="#DejaVuSans-31" x="260.644531"/>
       <use xlink:href="#DejaVuSans-31" x="324.267578"/>
       <use xlink:href="#DejaVuSans-2e" x="387.890625"/>
       <use xlink:href="#DejaVuSans-31" x="419.677734"/>
       <use xlink:href="#DejaVuSans-2e" x="483.300781"/>
       <use xlink:href="#DejaVuSans-35" x="515.087891"/>
      </g>
     </g>
    </g>
    <g id="ytick_15">
     <g id="line2d_23">
      <g>
       <use xlink:href="#m47be3dd78d" x="144" y="102.144828" style="stroke: #000000; stroke-width: 0.8"/>
      </g>
     </g>
     <g id="text_24">
      <!-- 1.C.111.1.6 -->
      <g transform="translate(79.129687 105.944046) scale(0.1 -0.1)">
       <use xlink:href="#DejaVuSans-31"/>
       <use xlink:href="#DejaVuSans-2e" x="63.623047"/>
       <use xlink:href="#DejaVuSans-43" x="95.410156"/>
       <use xlink:href="#DejaVuSans-2e" x="165.234375"/>
       <use xlink:href="#DejaVuSans-31" x="197.021484"/>
       <use xlink:href="#DejaVuSans-31" x="260.644531"/>
       <use xlink:href="#DejaVuSans-31" x="324.267578"/>
       <use xlink:href="#DejaVuSans-2e" x="387.890625"/>
       <use xlink:href="#DejaVuSans-31" x="419.677734"/>
       <use xlink:href="#DejaVuSans-2e" x="483.300781"/>
       <use xlink:href="#DejaVuSans-36" x="515.087891"/>
      </g>
     </g>
    </g>
    <g id="ytick_16">
     <g id="line2d_24">
      <g>
       <use xlink:href="#m47be3dd78d" x="144" y="87.662069" style="stroke: #000000; stroke-width: 0.8"/>
      </g>
     </g>
     <g id="text_25">
      <!-- 1.C.111.1.7 -->
      <g transform="translate(79.129687 91.461288) scale(0.1 -0.1)">
       <use xlink:href="#DejaVuSans-31"/>
       <use xlink:href="#DejaVuSans-2e" x="63.623047"/>
       <use xlink:href="#DejaVuSans-43" x="95.410156"/>
       <use xlink:href="#DejaVuSans-2e" x="165.234375"/>
       <use xlink:href="#DejaVuSans-31" x="197.021484"/>
       <use xlink:href="#DejaVuSans-31" x="260.644531"/>
       <use xlink:href="#DejaVuSans-31" x="324.267578"/>
       <use xlink:href="#DejaVuSans-2e" x="387.890625"/>
       <use xlink:href="#DejaVuSans-31" x="419.677734"/>
       <use xlink:href="#DejaVuSans-2e" x="483.300781"/>
       <use xlink:href="#DejaVuSans-37" x="515.087891"/>
      </g>
     </g>
    </g>
    <g id="ytick_17">
     <g id="line2d_25">
      <g>
       <use xlink:href="#m47be3dd78d" x="144" y="73.17931" style="stroke: #000000; stroke-width: 0.8"/>
      </g>
     </g>
     <g id="text_26">
      <!-- 1.C.111.1.8 -->
      <g transform="translate(79.129687 76.978529) scale(0.1 -0.1)">
       <use xlink:href="#DejaVuSans-31"/>
       <use xlink:href="#DejaVuSans-2e" x="63.623047"/>
       <use xlink:href="#DejaVuSans-43" x="95.410156"/>
       <use xlink:href="#DejaVuSans-2e" x="165.234375"/>
       <use xlink:href="#DejaVuSans-31" x="197.021484"/>
       <use xlink:href="#DejaVuSans-31" x="260.644531"/>
       <use xlink:href="#DejaVuSans-31" x="324.267578"/>
       <use xlink:href="#DejaVuSans-2e" x="387.890625"/>
       <use xlink:href="#DejaVuSans-31" x="419.677734"/>
       <use xlink:href="#DejaVuSans-2e" x="483.300781"/>
       <use xlink:href="#DejaVuSans-38" x="515.087891"/>
      </g>
     </g>
    </g>
    <g id="ytick_18">
     <g id="line2d_26">
      <g>
       <use xlink:href="#m47be3dd78d" x="144" y="58.696552" style="stroke: #000000; stroke-width: 0.8"/>
      </g>
     </g>
     <g id="text_27">
      <!-- 1.C.111.1.9 -->
      <g transform="translate(79.129687 62.49577) scale(0.1 -0.1)">
       <defs>
        <path id="DejaVuSans-39" d="M 703 97 
L 703 672 
Q 941 559 1184 500 
Q 1428 441 1663 441 
Q 2288 441 2617 861 
Q 2947 1281 2994 2138 
Q 2813 1869 2534 1725 
Q 2256 1581 1919 1581 
Q 1219 1581 811 2004 
Q 403 2428 403 3163 
Q 403 3881 828 4315 
Q 1253 4750 1959 4750 
Q 2769 4750 3195 4129 
Q 3622 3509 3622 2328 
Q 3622 1225 3098 567 
Q 2575 -91 1691 -91 
Q 1453 -91 1209 -44 
Q 966 3 703 97 
z
M 1959 2075 
Q 2384 2075 2632 2365 
Q 2881 2656 2881 3163 
Q 2881 3666 2632 3958 
Q 2384 4250 1959 4250 
Q 1534 4250 1286 3958 
Q 1038 3666 1038 3163 
Q 1038 2656 1286 2365 
Q 1534 2075 1959 2075 
z
" transform="scale(0.015625)"/>
       </defs>
       <use xlink:href="#DejaVuSans-31"/>
       <use xlink:href="#DejaVuSans-2e" x="63.623047"/>
       <use xlink:href="#DejaVuSans-43" x="95.410156"/>
       <use xlink:href="#DejaVuSans-2e" x="165.234375"/>
       <use xlink:href="#DejaVuSans-31" x="197.021484"/>
       <use xlink:href="#DejaVuSans-31" x="260.644531"/>
       <use xlink:href="#DejaVuSans-31" x="324.267578"/>
       <use xlink:href="#DejaVuSans-2e" x="387.890625"/>
       <use xlink:href="#DejaVuSans-31" x="419.677734"/>
       <use xlink:href="#DejaVuSans-2e" x="483.300781"/>
       <use xlink:href="#DejaVuSans-39" x="515.087891"/>
      </g>
     </g>
    </g>
   </g>
   <g id="patch_305">
    <path d="M 144 320.4 
L 144 43.2 
" style="fill: none; stroke: #000000; stroke-width: 0.8; stroke-linejoin: miter; stroke-linecap: square"/>
   </g>
   <g id="patch_306">
    <path d="M 1036.8 320.4 
L 1036.8 43.2 
" style="fill: none; stroke: #000000; stroke-width: 0.8; stroke-linejoin: miter; stroke-linecap: square"/>
   </g>
   <g id="patch_307">
    <path d="M 144 320.4 
L 1036.8 320.4 
" style="fill: none; stroke: #000000; stroke-width: 0.8; stroke-linejoin: miter; stroke-linecap: square"/>
   </g>
   <g id="patch_308">
    <path d="M 144 43.2 
L 1036.8 43.2 
" style="fill: none; stroke: #000000; stroke-width: 0.8; stroke-linejoin: miter; stroke-linecap: square"/>
   </g>
   <g id="text_28">
    <!-- 1.C.111 Summary -->
    <g transform="translate(536.224687 37.2) scale(0.12 -0.12)">
     <defs>
      <path id="DejaVuSans-20" transform="scale(0.015625)"/>
      <path id="DejaVuSans-53" d="M 3425 4513 
L 3425 3897 
Q 3066 4069 2747 4153 
Q 2428 4238 2131 4238 
Q 1616 4238 1336 4038 
Q 1056 3838 1056 3469 
Q 1056 3159 1242 3001 
Q 1428 2844 1947 2747 
L 2328 2669 
Q 3034 2534 3370 2195 
Q 3706 1856 3706 1288 
Q 3706 609 3251 259 
Q 2797 -91 1919 -91 
Q 1588 -91 1214 -16 
Q 841 59 441 206 
L 441 856 
Q 825 641 1194 531 
Q 1563 422 1919 422 
Q 2459 422 2753 634 
Q 3047 847 3047 1241 
Q 3047 1584 2836 1778 
Q 2625 1972 2144 2069 
L 1759 2144 
Q 1053 2284 737 2584 
Q 422 2884 422 3419 
Q 422 4038 858 4394 
Q 1294 4750 2059 4750 
Q 2388 4750 2728 4690 
Q 3069 4631 3425 4513 
z
" transform="scale(0.015625)"/>
      <path id="DejaVuSans-6d" d="M 3328 2828 
Q 3544 3216 3844 3400 
Q 4144 3584 4550 3584 
Q 5097 3584 5394 3201 
Q 5691 2819 5691 2113 
L 5691 0 
L 5113 0 
L 5113 2094 
Q 5113 2597 4934 2840 
Q 4756 3084 4391 3084 
Q 3944 3084 3684 2787 
Q 3425 2491 3425 1978 
L 3425 0 
L 2847 0 
L 2847 2094 
Q 2847 2600 2669 2842 
Q 2491 3084 2119 3084 
Q 1678 3084 1418 2786 
Q 1159 2488 1159 1978 
L 1159 0 
L 581 0 
L 581 3500 
L 1159 3500 
L 1159 2956 
Q 1356 3278 1631 3431 
Q 1906 3584 2284 3584 
Q 2666 3584 2933 3390 
Q 3200 3197 3328 2828 
z
" transform="scale(0.015625)"/>
      <path id="DejaVuSans-72" d="M 2631 2963 
Q 2534 3019 2420 3045 
Q 2306 3072 2169 3072 
Q 1681 3072 1420 2755 
Q 1159 2438 1159 1844 
L 1159 0 
L 581 0 
L 581 3500 
L 1159 3500 
L 1159 2956 
Q 1341 3275 1631 3429 
Q 1922 3584 2338 3584 
Q 2397 3584 2469 3576 
Q 2541 3569 2628 3553 
L 2631 2963 
z
" transform="scale(0.015625)"/>
      <path id="DejaVuSans-79" d="M 2059 -325 
Q 1816 -950 1584 -1140 
Q 1353 -1331 966 -1331 
L 506 -1331 
L 506 -850 
L 844 -850 
Q 1081 -850 1212 -737 
Q 1344 -625 1503 -206 
L 1606 56 
L 191 3500 
L 800 3500 
L 1894 763 
L 2988 3500 
L 3597 3500 
L 2059 -325 
z
" transform="scale(0.015625)"/>
     </defs>
     <use xlink:href="#DejaVuSans-31"/>
     <use xlink:href="#DejaVuSans-2e" x="63.623047"/>
     <use xlink:href="#DejaVuSans-43" x="95.410156"/>
     <use xlink:href="#DejaVuSans-2e" x="165.234375"/>
     <use xlink:href="#DejaVuSans-31" x="197.021484"/>
     <use xlink:href="#DejaVuSans-31" x="260.644531"/>
     <use xlink:href="#DejaVuSans-31" x="324.267578"/>
     <use xlink:href="#DejaVuSans-20" x="387.890625"/>
     <use xlink:href="#DejaVuSans-53" x="419.677734"/>
     <use xlink:href="#DejaVuSans-75" x="483.154297"/>
     <use xlink:href="#DejaVuSans-6d" x="546.533203"/>
     <use xlink:href="#DejaVuSans-6d" x="643.945312"/>
     <use xlink:href="#DejaVuSans-61" x="741.357422"/>
     <use xlink:href="#DejaVuSans-72" x="802.636719"/>
     <use xlink:href="#DejaVuSans-79" x="843.75"/>
    </g>
   </g>
  </g>
 </g>
 <defs>
  <clipPath id="pbbec27aea9">
   <rect x="144" y="43.2" width="892.8" height="277.2"/>
  </clipPath>
 </defs>
</svg>
