<?xml version="1.0" encoding="utf-8" standalone="no"?>
<!DOCTYPE svg PUBLIC "-//W3C//DTD SVG 1.1//EN"
  "http://www.w3.org/Graphics/SVG/1.1/DTD/svg11.dtd">
<svg xmlns:xlink="http://www.w3.org/1999/xlink" width="1152pt" height="216pt" viewBox="0 0 1152 216" xmlns="http://www.w3.org/2000/svg" version="1.1">
 <metadata>
  <rdf:RDF xmlns:dc="http://purl.org/dc/elements/1.1/" xmlns:cc="http://creativecommons.org/ns#" xmlns:rdf="http://www.w3.org/1999/02/22-rdf-syntax-ns#">
   <cc:Work>
    <dc:type rdf:resource="http://purl.org/dc/dcmitype/StillImage"/>
    <dc:date>2024-10-25T07:49:19.672159</dc:date>
    <dc:format>image/svg+xml</dc:format>
    <dc:creator>
     <cc:Agent>
      <dc:title>Matplotlib v3.9.2, https://matplotlib.org/</dc:title>
     </cc:Agent>
    </dc:creator>
   </cc:Work>
  </rdf:RDF>
 </metadata>
 <defs>
  <style type="text/css">*{stroke-linejoin: round; stroke-linecap: butt}</style>
 </defs>
 <g id="figure_1">
  <g id="patch_1">
   <path d="M 0 216 
L 1152 216 
L 1152 0 
L 0 0 
z
" style="fill: #ffffff"/>
  </g>
  <g id="axes_1">
   <g id="patch_2">
    <path d="M 144 192.24 
L 1036.8 192.24 
L 1036.8 25.92 
L 144 25.92 
z
" style="fill: #ffffff"/>
   </g>
   <g id="patch_3">
    <path d="M 144 180.9 
L 151.629192 180.9 
L 151.629192 180.287027 
L 144 180.287027 
z
" clip-path="url(#p61776a70f8)" style="fill: #0000ff"/>
   </g>
   <g id="patch_4">
    <path d="M 151.875295 184.68 
L 183.868679 184.68 
L 183.868679 176.507027 
L 151.875295 176.507027 
z
" clip-path="url(#p61776a70f8)" style="fill: #0000ff"/>
   </g>
   <g id="patch_5">
    <path d="M 155.566839 184.68 
L 185.099194 184.68 
L 185.099194 176.507027 
L 155.566839 176.507027 
z
" clip-path="url(#p61776a70f8)" style="fill: #0000ff"/>
   </g>
   <g id="patch_6">
    <path d="M 159.996692 184.68 
L 183.868679 184.68 
L 183.868679 176.507027 
L 159.996692 176.507027 
z
" clip-path="url(#p61776a70f8)" style="fill: #0000ff"/>
   </g>
   <g id="patch_7">
    <path d="M 185.345297 180.9 
L 296.829936 180.9 
L 296.829936 180.287027 
L 185.345297 180.287027 
z
" clip-path="url(#p61776a70f8)" style="fill: #0000ff"/>
   </g>
   <g id="patch_8">
    <path d="M 297.076039 184.68 
L 332.268762 184.68 
L 332.268762 176.507027 
L 297.076039 176.507027 
z
" clip-path="url(#p61776a70f8)" style="fill: #0000ff"/>
   </g>
   <g id="patch_9">
    <path d="M 332.514865 180.9 
L 376.813397 180.9 
L 376.813397 180.287027 
L 332.514865 180.287027 
z
" clip-path="url(#p61776a70f8)" style="fill: #0000ff"/>
   </g>
   <g id="patch_10">
    <path d="M 377.0595 184.68 
L 481.653256 184.68 
L 481.653256 176.507027 
L 377.0595 176.507027 
z
" clip-path="url(#p61776a70f8)" style="fill: #0000ff"/>
   </g>
   <g id="patch_11">
    <path d="M 481.899359 180.9 
L 539.487451 180.9 
L 539.487451 180.287027 
L 481.899359 180.287027 
z
" clip-path="url(#p61776a70f8)" style="fill: #0000ff"/>
   </g>
   <g id="patch_12">
    <path d="M 144 164.247568 
L 157.781766 164.247568 
L 157.781766 156.074595 
L 144 156.074595 
z
" clip-path="url(#p61776a70f8)" style="fill: #0000ff"/>
   </g>
   <g id="patch_13">
    <path d="M 158.027869 160.467568 
L 161.719413 160.467568 
L 161.719413 159.854595 
L 158.027869 159.854595 
z
" clip-path="url(#p61776a70f8)" style="fill: #0000ff"/>
   </g>
   <g id="patch_14">
    <path d="M 161.965516 164.247568 
L 193.220591 164.247568 
L 193.220591 156.074595 
L 161.965516 156.074595 
z
" clip-path="url(#p61776a70f8)" style="fill: #0000ff"/>
   </g>
   <g id="patch_15">
    <path d="M 165.164854 164.247568 
L 194.697209 164.247568 
L 194.697209 156.074595 
L 165.164854 156.074595 
z
" clip-path="url(#p61776a70f8)" style="fill: #0000ff"/>
   </g>
   <g id="patch_16">
    <path d="M 169.84081 164.247568 
L 193.220591 164.247568 
L 193.220591 156.074595 
L 169.84081 156.074595 
z
" clip-path="url(#p61776a70f8)" style="fill: #0000ff"/>
   </g>
   <g id="patch_17">
    <path d="M 194.943312 160.467568 
L 225.213976 160.467568 
L 225.213976 159.854595 
L 194.943312 159.854595 
z
" clip-path="url(#p61776a70f8)" style="fill: #0000ff"/>
   </g>
   <g id="patch_18">
    <path d="M 225.460079 164.247568 
L 567.543188 164.247568 
L 567.543188 156.074595 
L 225.460079 156.074595 
z
" clip-path="url(#p61776a70f8)" style="fill: #0000ff"/>
   </g>
   <g id="patch_19">
    <path d="M 292.400083 164.247568 
L 430.709944 164.247568 
L 430.709944 156.074595 
L 292.400083 156.074595 
z
" clip-path="url(#p61776a70f8)" style="fill: #0000ff"/>
   </g>
   <g id="patch_20">
    <path d="M 496.419434 164.247568 
L 752.366508 164.247568 
L 752.366508 156.074595 
L 496.419434 156.074595 
z
" clip-path="url(#p61776a70f8)" style="fill: #0000ff"/>
   </g>
   <g id="patch_21">
    <path d="M 712.497829 164.247568 
L 768.609303 164.247568 
L 768.609303 156.074595 
L 712.497829 156.074595 
z
" clip-path="url(#p61776a70f8)" style="fill: #0000ff"/>
   </g>
   <g id="patch_22">
    <path d="M 768.855406 160.467568 
L 792.973496 160.467568 
L 792.973496 159.854595 
L 768.855406 159.854595 
z
" clip-path="url(#p61776a70f8)" style="fill: #0000ff"/>
   </g>
   <g id="patch_23">
    <path d="M 793.219599 164.247568 
L 836.041513 164.247568 
L 836.041513 156.074595 
L 793.219599 156.074595 
z
" clip-path="url(#p61776a70f8)" style="fill: #0000ff"/>
   </g>
   <g id="patch_24">
    <path d="M 836.287616 160.467568 
L 994.285714 160.467568 
L 994.285714 159.854595 
L 836.287616 159.854595 
z
" clip-path="url(#p61776a70f8)" style="fill: #0000ff"/>
   </g>
   <g id="patch_25">
    <path d="M 144 140.035135 
L 151.136986 140.035135 
L 151.136986 139.422162 
L 144 139.422162 
z
" clip-path="url(#p61776a70f8)" style="fill: #0000ff"/>
   </g>
   <g id="patch_26">
    <path d="M 151.383089 143.815135 
L 184.853091 143.815135 
L 184.853091 135.642162 
L 151.383089 135.642162 
z
" clip-path="url(#p61776a70f8)" style="fill: #0000ff"/>
   </g>
   <g id="patch_27">
    <path d="M 155.320736 143.815135 
L 185.099194 143.815135 
L 185.099194 135.642162 
L 155.320736 135.642162 
z
" clip-path="url(#p61776a70f8)" style="fill: #0000ff"/>
   </g>
   <g id="patch_28">
    <path d="M 159.996692 143.815135 
L 183.868679 143.815135 
L 183.868679 135.642162 
L 159.996692 135.642162 
z
" clip-path="url(#p61776a70f8)" style="fill: #0000ff"/>
   </g>
   <g id="patch_29">
    <path d="M 185.345297 140.035135 
L 207.986769 140.035135 
L 207.986769 139.422162 
L 185.345297 139.422162 
z
" clip-path="url(#p61776a70f8)" style="fill: #0000ff"/>
   </g>
   <g id="patch_30">
    <path d="M 208.232872 143.815135 
L 529.39723 143.815135 
L 529.39723 135.642162 
L 208.232872 135.642162 
z
" clip-path="url(#p61776a70f8)" style="fill: #0000ff"/>
   </g>
   <g id="patch_31">
    <path d="M 211.924416 143.815135 
L 656.386355 143.815135 
L 656.386355 135.642162 
L 211.924416 135.642162 
z
" clip-path="url(#p61776a70f8)" style="fill: #0000ff"/>
   </g>
   <g id="patch_32">
    <path d="M 461.226711 143.815135 
L 705.606946 143.815135 
L 705.606946 135.642162 
L 461.226711 135.642162 
z
" clip-path="url(#p61776a70f8)" style="fill: #0000ff"/>
   </g>
   <g id="patch_33">
    <path d="M 705.853049 140.035135 
L 709.298491 140.035135 
L 709.298491 139.422162 
L 705.853049 139.422162 
z
" clip-path="url(#p61776a70f8)" style="fill: #0000ff"/>
   </g>
   <g id="patch_34">
    <path d="M 709.544594 143.815135 
L 761.718421 143.815135 
L 761.718421 135.642162 
L 709.544594 135.642162 
z
" clip-path="url(#p61776a70f8)" style="fill: #0000ff"/>
   </g>
   <g id="patch_35">
    <path d="M 761.964523 140.035135 
L 764.17945 140.035135 
L 764.17945 139.422162 
L 761.964523 139.422162 
z
" clip-path="url(#p61776a70f8)" style="fill: #0000ff"/>
   </g>
   <g id="patch_36">
    <path d="M 144 123.382703 
L 153.844118 123.382703 
L 153.844118 115.20973 
L 144 115.20973 
z
" clip-path="url(#p61776a70f8)" style="fill: #0000ff"/>
   </g>
   <g id="patch_37">
    <path d="M 154.090221 119.602703 
L 163.196031 119.602703 
L 163.196031 118.98973 
L 154.090221 118.98973 
z
" clip-path="url(#p61776a70f8)" style="fill: #0000ff"/>
   </g>
   <g id="patch_38">
    <path d="M 163.442134 123.382703 
L 192.728385 123.382703 
L 192.728385 115.20973 
L 163.442134 115.20973 
z
" clip-path="url(#p61776a70f8)" style="fill: #0000ff"/>
   </g>
   <g id="patch_39">
    <path d="M 167.133678 123.382703 
L 193.220591 123.382703 
L 193.220591 115.20973 
L 167.133678 115.20973 
z
" clip-path="url(#p61776a70f8)" style="fill: #0000ff"/>
   </g>
   <g id="patch_40">
    <path d="M 171.071325 123.382703 
L 192.236179 123.382703 
L 192.236179 115.20973 
L 171.071325 115.20973 
z
" clip-path="url(#p61776a70f8)" style="fill: #0000ff"/>
   </g>
   <g id="patch_41">
    <path d="M 181.407649 123.382703 
L 316.272069 123.382703 
L 316.272069 115.20973 
L 181.407649 115.20973 
z
" clip-path="url(#p61776a70f8)" style="fill: #0000ff"/>
   </g>
   <g id="patch_42">
    <path d="M 316.518172 119.602703 
L 411.513914 119.602703 
L 411.513914 118.98973 
L 316.518172 118.98973 
z
" clip-path="url(#p61776a70f8)" style="fill: #0000ff"/>
   </g>
   <g id="patch_43">
    <path d="M 411.760017 123.382703 
L 537.272524 123.382703 
L 537.272524 115.20973 
L 411.760017 115.20973 
z
" clip-path="url(#p61776a70f8)" style="fill: #0000ff"/>
   </g>
   <g id="patch_44">
    <path d="M 502.325904 123.382703 
L 537.272524 123.382703 
L 537.272524 115.20973 
L 502.325904 115.20973 
z
" clip-path="url(#p61776a70f8)" style="fill: #0000ff"/>
   </g>
   <g id="patch_45">
    <path d="M 144 99.17027 
L 151.629192 99.17027 
L 151.629192 98.557297 
L 144 98.557297 
z
" clip-path="url(#p61776a70f8)" style="fill: #0000ff"/>
   </g>
   <g id="patch_46">
    <path d="M 151.875295 102.95027 
L 184.114782 102.95027 
L 184.114782 94.777297 
L 151.875295 94.777297 
z
" clip-path="url(#p61776a70f8)" style="fill: #0000ff"/>
   </g>
   <g id="patch_47">
    <path d="M 156.305148 102.95027 
L 185.345297 102.95027 
L 185.345297 94.777297 
L 156.305148 94.777297 
z
" clip-path="url(#p61776a70f8)" style="fill: #0000ff"/>
   </g>
   <g id="patch_48">
    <path d="M 160.242795 102.95027 
L 184.114782 102.95027 
L 184.114782 94.777297 
L 160.242795 94.777297 
z
" clip-path="url(#p61776a70f8)" style="fill: #0000ff"/>
   </g>
   <g id="patch_49">
    <path d="M 185.5914 99.17027 
L 300.275377 99.17027 
L 300.275377 98.557297 
L 185.5914 98.557297 
z
" clip-path="url(#p61776a70f8)" style="fill: #0000ff"/>
   </g>
   <g id="patch_50">
    <path d="M 300.52148 102.95027 
L 361.801116 102.95027 
L 361.801116 94.777297 
L 300.52148 94.777297 
z
" clip-path="url(#p61776a70f8)" style="fill: #0000ff"/>
   </g>
   <g id="patch_51">
    <path d="M 362.047219 99.17027 
L 374.352367 99.17027 
L 374.352367 98.557297 
L 362.047219 98.557297 
z
" clip-path="url(#p61776a70f8)" style="fill: #0000ff"/>
   </g>
   <g id="patch_52">
    <path d="M 374.59847 102.95027 
L 462.949431 102.95027 
L 462.949431 94.777297 
L 374.59847 94.777297 
z
" clip-path="url(#p61776a70f8)" style="fill: #0000ff"/>
   </g>
   <g id="patch_53">
    <path d="M 463.195534 99.17027 
L 505.525243 99.17027 
L 505.525243 98.557297 
L 463.195534 98.557297 
z
" clip-path="url(#p61776a70f8)" style="fill: #0000ff"/>
   </g>
   <g id="patch_54">
    <path d="M 144 78.737838 
L 153.844118 78.737838 
L 153.844118 78.124865 
L 144 78.124865 
z
" clip-path="url(#p61776a70f8)" style="fill: #0000ff"/>
   </g>
   <g id="patch_55">
    <path d="M 154.090221 82.517838 
L 184.606988 82.517838 
L 184.606988 74.344865 
L 154.090221 74.344865 
z
" clip-path="url(#p61776a70f8)" style="fill: #0000ff"/>
   </g>
   <g id="patch_56">
    <path d="M 155.320736 82.517838 
L 184.853091 82.517838 
L 184.853091 74.344865 
L 155.320736 74.344865 
z
" clip-path="url(#p61776a70f8)" style="fill: #0000ff"/>
   </g>
   <g id="patch_57">
    <path d="M 159.750589 82.517838 
L 184.360885 82.517838 
L 184.360885 74.344865 
L 159.750589 74.344865 
z
" clip-path="url(#p61776a70f8)" style="fill: #0000ff"/>
   </g>
   <g id="patch_58">
    <path d="M 185.099194 78.737838 
L 243.179491 78.737838 
L 243.179491 78.124865 
L 185.099194 78.124865 
z
" clip-path="url(#p61776a70f8)" style="fill: #0000ff"/>
   </g>
   <g id="patch_59">
    <path d="M 243.425594 82.517838 
L 277.633905 82.517838 
L 277.633905 74.344865 
L 243.425594 74.344865 
z
" clip-path="url(#p61776a70f8)" style="fill: #0000ff"/>
   </g>
   <g id="patch_60">
    <path d="M 277.880008 78.737838 
L 300.52148 78.737838 
L 300.52148 78.124865 
L 277.880008 78.124865 
z
" clip-path="url(#p61776a70f8)" style="fill: #0000ff"/>
   </g>
   <g id="patch_61">
    <path d="M 300.767583 82.517838 
L 340.144056 82.517838 
L 340.144056 74.344865 
L 300.767583 74.344865 
z
" clip-path="url(#p61776a70f8)" style="fill: #0000ff"/>
   </g>
   <g id="patch_62">
    <path d="M 340.390159 78.737838 
L 375.090676 78.737838 
L 375.090676 78.124865 
L 340.390159 78.124865 
z
" clip-path="url(#p61776a70f8)" style="fill: #0000ff"/>
   </g>
   <g id="patch_63">
    <path d="M 375.336779 82.517838 
L 415.697664 82.517838 
L 415.697664 74.344865 
L 375.336779 74.344865 
z
" clip-path="url(#p61776a70f8)" style="fill: #0000ff"/>
   </g>
   <g id="patch_64">
    <path d="M 415.943767 78.737838 
L 427.264503 78.737838 
L 427.264503 78.124865 
L 415.943767 78.124865 
z
" clip-path="url(#p61776a70f8)" style="fill: #0000ff"/>
   </g>
   <g id="patch_65">
    <path d="M 427.510606 82.517838 
L 488.298036 82.517838 
L 488.298036 74.344865 
L 427.510606 74.344865 
z
" clip-path="url(#p61776a70f8)" style="fill: #0000ff"/>
   </g>
   <g id="patch_66">
    <path d="M 488.544139 78.737838 
L 544.40951 78.737838 
L 544.40951 78.124865 
L 488.544139 78.124865 
z
" clip-path="url(#p61776a70f8)" style="fill: #0000ff"/>
   </g>
   <g id="patch_67">
    <path d="M 144 58.305405 
L 156.797354 58.305405 
L 156.797354 57.692432 
L 144 57.692432 
z
" clip-path="url(#p61776a70f8)" style="fill: #0000ff"/>
   </g>
   <g id="patch_68">
    <path d="M 157.043457 62.085405 
L 184.606988 62.085405 
L 184.606988 53.912432 
L 157.043457 53.912432 
z
" clip-path="url(#p61776a70f8)" style="fill: #0000ff"/>
   </g>
   <g id="patch_69">
    <path d="M 160.242795 62.085405 
L 184.606988 62.085405 
L 184.606988 53.912432 
L 160.242795 53.912432 
z
" clip-path="url(#p61776a70f8)" style="fill: #0000ff"/>
   </g>
   <g id="patch_70">
    <path d="M 174.270664 62.085405 
L 440.307959 62.085405 
L 440.307959 53.912432 
L 174.270664 53.912432 
z
" clip-path="url(#p61776a70f8)" style="fill: #0000ff"/>
   </g>
   <g id="patch_71">
    <path d="M 224.229564 62.085405 
L 440.307959 62.085405 
L 440.307959 53.912432 
L 224.229564 53.912432 
z
" clip-path="url(#p61776a70f8)" style="fill: #0000ff"/>
   </g>
   <g id="patch_72">
    <path d="M 230.382138 62.085405 
L 451.382593 62.085405 
L 451.382593 53.912432 
L 230.382138 53.912432 
z
" clip-path="url(#p61776a70f8)" style="fill: #0000ff"/>
   </g>
   <g id="patch_73">
    <path d="M 256.469051 62.085405 
L 335.960306 62.085405 
L 335.960306 53.912432 
L 256.469051 53.912432 
z
" clip-path="url(#p61776a70f8)" style="fill: #0000ff"/>
   </g>
   <g id="patch_74">
    <path d="M 260.160595 62.085405 
L 434.647591 62.085405 
L 434.647591 53.912432 
L 260.160595 53.912432 
z
" clip-path="url(#p61776a70f8)" style="fill: #0000ff"/>
   </g>
   <g id="patch_75">
    <path d="M 264.344346 62.085405 
L 342.11288 62.085405 
L 342.11288 53.912432 
L 264.344346 53.912432 
z
" clip-path="url(#p61776a70f8)" style="fill: #0000ff"/>
   </g>
   <g id="patch_76">
    <path d="M 270.004714 62.085405 
L 298.060451 62.085405 
L 298.060451 53.912432 
L 270.004714 53.912432 
z
" clip-path="url(#p61776a70f8)" style="fill: #0000ff"/>
   </g>
   <g id="patch_77">
    <path d="M 285.016994 62.085405 
L 387.88803 62.085405 
L 387.88803 53.912432 
L 285.016994 53.912432 
z
" clip-path="url(#p61776a70f8)" style="fill: #0000ff"/>
   </g>
   <g id="patch_78">
    <path d="M 362.293322 62.085405 
L 407.576266 62.085405 
L 407.576266 53.912432 
L 362.293322 53.912432 
z
" clip-path="url(#p61776a70f8)" style="fill: #0000ff"/>
   </g>
   <g id="patch_79">
    <path d="M 374.352367 62.085405 
L 455.074137 62.085405 
L 455.074137 53.912432 
L 374.352367 53.912432 
z
" clip-path="url(#p61776a70f8)" style="fill: #0000ff"/>
   </g>
   <g id="patch_80">
    <path d="M 455.32024 58.305405 
L 712.990035 58.305405 
L 712.990035 57.692432 
L 455.32024 57.692432 
z
" clip-path="url(#p61776a70f8)" style="fill: #0000ff"/>
   </g>
   <g id="patch_81">
    <path d="M 713.236138 62.085405 
L 742.52239 62.085405 
L 742.52239 53.912432 
L 713.236138 53.912432 
z
" clip-path="url(#p61776a70f8)" style="fill: #0000ff"/>
   </g>
   <g id="patch_82">
    <path d="M 742.768493 58.305405 
L 837.272028 58.305405 
L 837.272028 57.692432 
L 742.768493 57.692432 
z
" clip-path="url(#p61776a70f8)" style="fill: #0000ff"/>
   </g>
   <g id="patch_83">
    <path d="M 144 37.872973 
L 150.398677 37.872973 
L 150.398677 37.26 
L 144 37.26 
z
" clip-path="url(#p61776a70f8)" style="fill: #0000ff"/>
   </g>
   <g id="patch_84">
    <path d="M 150.64478 41.652973 
L 182.884267 41.652973 
L 182.884267 33.48 
L 150.64478 33.48 
z
" clip-path="url(#p61776a70f8)" style="fill: #0000ff"/>
   </g>
   <g id="patch_85">
    <path d="M 183.13037 37.872973 
L 417.666487 37.872973 
L 417.666487 37.26 
L 183.13037 37.26 
z
" clip-path="url(#p61776a70f8)" style="fill: #0000ff"/>
   </g>
   <g id="patch_86">
    <path d="M 417.91259 41.652973 
L 593.137895 41.652973 
L 593.137895 33.48 
L 417.91259 33.48 
z
" clip-path="url(#p61776a70f8)" style="fill: #0000ff"/>
   </g>
   <g id="patch_87">
    <path d="M 418.404796 41.652973 
L 450.152078 41.652973 
L 450.152078 33.48 
L 418.404796 33.48 
z
" clip-path="url(#p61776a70f8)" style="fill: #0000ff"/>
   </g>
   <g id="patch_88">
    <path d="M 452.85921 41.652973 
L 599.290469 41.652973 
L 599.290469 33.48 
L 452.85921 33.48 
z
" clip-path="url(#p61776a70f8)" style="fill: #0000ff"/>
   </g>
   <g id="patch_89">
    <path d="M 462.457226 41.652973 
L 604.458631 41.652973 
L 604.458631 33.48 
L 462.457226 33.48 
z
" clip-path="url(#p61776a70f8)" style="fill: #0000ff"/>
   </g>
   <g id="patch_90">
    <path d="M 474.762373 41.652973 
L 585.016498 41.652973 
L 585.016498 33.48 
L 474.762373 33.48 
z
" clip-path="url(#p61776a70f8)" style="fill: #0000ff"/>
   </g>
   <g id="patch_91">
    <path d="M 517.338185 41.652973 
L 590.676866 41.652973 
L 590.676866 33.48 
L 517.338185 33.48 
z
" clip-path="url(#p61776a70f8)" style="fill: #0000ff"/>
   </g>
   <g id="patch_92">
    <path d="M 604.704734 37.872973 
L 606.673558 37.872973 
L 606.673558 37.26 
L 604.704734 37.26 
z
" clip-path="url(#p61776a70f8)" style="fill: #0000ff"/>
   </g>
   <g id="matplotlib.axis_1">
    <g id="xtick_1">
     <g id="line2d_1">
      <defs>
       <path id="mf9274fcf4b" d="M 0 0 
L 0 3.5 
" style="stroke: #000000; stroke-width: 0.8"/>
      </defs>
      <g>
       <use xlink:href="#mf9274fcf4b" x="266.805375" y="192.24" style="stroke: #000000; stroke-width: 0.8"/>
      </g>
     </g>
     <g id="text_1">
      <!-- 500 -->
      <g transform="translate(257.261625 206.838437) scale(0.1 -0.1)">
       <defs>
        <path id="DejaVuSans-35" d="M 691 4666 
L 3169 4666 
L 3169 4134 
L 1269 4134 
L 1269 2991 
Q 1406 3038 1543 3061 
Q 1681 3084 1819 3084 
Q 2600 3084 3056 2656 
Q 3513 2228 3513 1497 
Q 3513 744 3044 326 
Q 2575 -91 1722 -91 
Q 1428 -91 1123 -41 
Q 819 9 494 109 
L 494 744 
Q 775 591 1075 516 
Q 1375 441 1709 441 
Q 2250 441 2565 725 
Q 2881 1009 2881 1497 
Q 2881 1984 2565 2268 
Q 2250 2553 1709 2553 
Q 1456 2553 1204 2497 
Q 953 2441 691 2322 
L 691 4666 
z
" transform="scale(0.015625)"/>
        <path id="DejaVuSans-30" d="M 2034 4250 
Q 1547 4250 1301 3770 
Q 1056 3291 1056 2328 
Q 1056 1369 1301 889 
Q 1547 409 2034 409 
Q 2525 409 2770 889 
Q 3016 1369 3016 2328 
Q 3016 3291 2770 3770 
Q 2525 4250 2034 4250 
z
M 2034 4750 
Q 2819 4750 3233 4129 
Q 3647 3509 3647 2328 
Q 3647 1150 3233 529 
Q 2819 -91 2034 -91 
Q 1250 -91 836 529 
Q 422 1150 422 2328 
Q 422 3509 836 4129 
Q 1250 4750 2034 4750 
z
" transform="scale(0.015625)"/>
       </defs>
       <use xlink:href="#DejaVuSans-35"/>
       <use xlink:href="#DejaVuSans-30" x="63.623047"/>
       <use xlink:href="#DejaVuSans-30" x="127.246094"/>
      </g>
     </g>
    </g>
    <g id="xtick_2">
     <g id="line2d_2">
      <g>
       <use xlink:href="#mf9274fcf4b" x="389.856853" y="192.24" style="stroke: #000000; stroke-width: 0.8"/>
      </g>
     </g>
     <g id="text_2">
      <!-- 1000 -->
      <g transform="translate(377.131853 206.838437) scale(0.1 -0.1)">
       <defs>
        <path id="DejaVuSans-31" d="M 794 531 
L 1825 531 
L 1825 4091 
L 703 3866 
L 703 4441 
L 1819 4666 
L 2450 4666 
L 2450 531 
L 3481 531 
L 3481 0 
L 794 0 
L 794 531 
z
" transform="scale(0.015625)"/>
       </defs>
       <use xlink:href="#DejaVuSans-31"/>
       <use xlink:href="#DejaVuSans-30" x="63.623047"/>
       <use xlink:href="#DejaVuSans-30" x="127.246094"/>
       <use xlink:href="#DejaVuSans-30" x="190.869141"/>
      </g>
     </g>
    </g>
    <g id="xtick_3">
     <g id="line2d_3">
      <g>
       <use xlink:href="#mf9274fcf4b" x="512.908332" y="192.24" style="stroke: #000000; stroke-width: 0.8"/>
      </g>
     </g>
     <g id="text_3">
      <!-- 1500 -->
      <g transform="translate(500.183332 206.838437) scale(0.1 -0.1)">
       <use xlink:href="#DejaVuSans-31"/>
       <use xlink:href="#DejaVuSans-35" x="63.623047"/>
       <use xlink:href="#DejaVuSans-30" x="127.246094"/>
       <use xlink:href="#DejaVuSans-30" x="190.869141"/>
      </g>
     </g>
    </g>
    <g id="xtick_4">
     <g id="line2d_4">
      <g>
       <use xlink:href="#mf9274fcf4b" x="635.95981" y="192.24" style="stroke: #000000; stroke-width: 0.8"/>
      </g>
     </g>
     <g id="text_4">
      <!-- 2000 -->
      <g transform="translate(623.23481 206.838437) scale(0.1 -0.1)">
       <defs>
        <path id="DejaVuSans-32" d="M 1228 531 
L 3431 531 
L 3431 0 
L 469 0 
L 469 531 
Q 828 903 1448 1529 
Q 2069 2156 2228 2338 
Q 2531 2678 2651 2914 
Q 2772 3150 2772 3378 
Q 2772 3750 2511 3984 
Q 2250 4219 1831 4219 
Q 1534 4219 1204 4116 
Q 875 4013 500 3803 
L 500 4441 
Q 881 4594 1212 4672 
Q 1544 4750 1819 4750 
Q 2544 4750 2975 4387 
Q 3406 4025 3406 3419 
Q 3406 3131 3298 2873 
Q 3191 2616 2906 2266 
Q 2828 2175 2409 1742 
Q 1991 1309 1228 531 
z
" transform="scale(0.015625)"/>
       </defs>
       <use xlink:href="#DejaVuSans-32"/>
       <use xlink:href="#DejaVuSans-30" x="63.623047"/>
       <use xlink:href="#DejaVuSans-30" x="127.246094"/>
       <use xlink:href="#DejaVuSans-30" x="190.869141"/>
      </g>
     </g>
    </g>
    <g id="xtick_5">
     <g id="line2d_5">
      <g>
       <use xlink:href="#mf9274fcf4b" x="759.011288" y="192.24" style="stroke: #000000; stroke-width: 0.8"/>
      </g>
     </g>
     <g id="text_5">
      <!-- 2500 -->
      <g transform="translate(746.286288 206.838437) scale(0.1 -0.1)">
       <use xlink:href="#DejaVuSans-32"/>
       <use xlink:href="#DejaVuSans-35" x="63.623047"/>
       <use xlink:href="#DejaVuSans-30" x="127.246094"/>
       <use xlink:href="#DejaVuSans-30" x="190.869141"/>
      </g>
     </g>
    </g>
    <g id="xtick_6">
     <g id="line2d_6">
      <g>
       <use xlink:href="#mf9274fcf4b" x="882.062766" y="192.24" style="stroke: #000000; stroke-width: 0.8"/>
      </g>
     </g>
     <g id="text_6">
      <!-- 3000 -->
      <g transform="translate(869.337766 206.838437) scale(0.1 -0.1)">
       <defs>
        <path id="DejaVuSans-33" d="M 2597 2516 
Q 3050 2419 3304 2112 
Q 3559 1806 3559 1356 
Q 3559 666 3084 287 
Q 2609 -91 1734 -91 
Q 1441 -91 1130 -33 
Q 819 25 488 141 
L 488 750 
Q 750 597 1062 519 
Q 1375 441 1716 441 
Q 2309 441 2620 675 
Q 2931 909 2931 1356 
Q 2931 1769 2642 2001 
Q 2353 2234 1838 2234 
L 1294 2234 
L 1294 2753 
L 1863 2753 
Q 2328 2753 2575 2939 
Q 2822 3125 2822 3475 
Q 2822 3834 2567 4026 
Q 2313 4219 1838 4219 
Q 1578 4219 1281 4162 
Q 984 4106 628 3988 
L 628 4550 
Q 988 4650 1302 4700 
Q 1616 4750 1894 4750 
Q 2613 4750 3031 4423 
Q 3450 4097 3450 3541 
Q 3450 3153 3228 2886 
Q 3006 2619 2597 2516 
z
" transform="scale(0.015625)"/>
       </defs>
       <use xlink:href="#DejaVuSans-33"/>
       <use xlink:href="#DejaVuSans-30" x="63.623047"/>
       <use xlink:href="#DejaVuSans-30" x="127.246094"/>
       <use xlink:href="#DejaVuSans-30" x="190.869141"/>
      </g>
     </g>
    </g>
    <g id="xtick_7">
     <g id="line2d_7">
      <g>
       <use xlink:href="#mf9274fcf4b" x="1005.114244" y="192.24" style="stroke: #000000; stroke-width: 0.8"/>
      </g>
     </g>
     <g id="text_7">
      <!-- 3500 -->
      <g transform="translate(992.389244 206.838437) scale(0.1 -0.1)">
       <use xlink:href="#DejaVuSans-33"/>
       <use xlink:href="#DejaVuSans-35" x="63.623047"/>
       <use xlink:href="#DejaVuSans-30" x="127.246094"/>
       <use xlink:href="#DejaVuSans-30" x="190.869141"/>
      </g>
     </g>
    </g>
    <g id="text_8">
     <!-- Residual -->
     <g transform="translate(569.284375 220.516562) scale(0.1 -0.1)">
      <defs>
       <path id="DejaVuSans-52" d="M 2841 2188 
Q 3044 2119 3236 1894 
Q 3428 1669 3622 1275 
L 4263 0 
L 3584 0 
L 2988 1197 
Q 2756 1666 2539 1819 
Q 2322 1972 1947 1972 
L 1259 1972 
L 1259 0 
L 628 0 
L 628 4666 
L 2053 4666 
Q 2853 4666 3247 4331 
Q 3641 3997 3641 3322 
Q 3641 2881 3436 2590 
Q 3231 2300 2841 2188 
z
M 1259 4147 
L 1259 2491 
L 2053 2491 
Q 2509 2491 2742 2702 
Q 2975 2913 2975 3322 
Q 2975 3731 2742 3939 
Q 2509 4147 2053 4147 
L 1259 4147 
z
" transform="scale(0.015625)"/>
       <path id="DejaVuSans-65" d="M 3597 1894 
L 3597 1613 
L 953 1613 
Q 991 1019 1311 708 
Q 1631 397 2203 397 
Q 2534 397 2845 478 
Q 3156 559 3463 722 
L 3463 178 
Q 3153 47 2828 -22 
Q 2503 -91 2169 -91 
Q 1331 -91 842 396 
Q 353 884 353 1716 
Q 353 2575 817 3079 
Q 1281 3584 2069 3584 
Q 2775 3584 3186 3129 
Q 3597 2675 3597 1894 
z
M 3022 2063 
Q 3016 2534 2758 2815 
Q 2500 3097 2075 3097 
Q 1594 3097 1305 2825 
Q 1016 2553 972 2059 
L 3022 2063 
z
" transform="scale(0.015625)"/>
       <path id="DejaVuSans-73" d="M 2834 3397 
L 2834 2853 
Q 2591 2978 2328 3040 
Q 2066 3103 1784 3103 
Q 1356 3103 1142 2972 
Q 928 2841 928 2578 
Q 928 2378 1081 2264 
Q 1234 2150 1697 2047 
L 1894 2003 
Q 2506 1872 2764 1633 
Q 3022 1394 3022 966 
Q 3022 478 2636 193 
Q 2250 -91 1575 -91 
Q 1294 -91 989 -36 
Q 684 19 347 128 
L 347 722 
Q 666 556 975 473 
Q 1284 391 1588 391 
Q 1994 391 2212 530 
Q 2431 669 2431 922 
Q 2431 1156 2273 1281 
Q 2116 1406 1581 1522 
L 1381 1569 
Q 847 1681 609 1914 
Q 372 2147 372 2553 
Q 372 3047 722 3315 
Q 1072 3584 1716 3584 
Q 2034 3584 2315 3537 
Q 2597 3491 2834 3397 
z
" transform="scale(0.015625)"/>
       <path id="DejaVuSans-69" d="M 603 3500 
L 1178 3500 
L 1178 0 
L 603 0 
L 603 3500 
z
M 603 4863 
L 1178 4863 
L 1178 4134 
L 603 4134 
L 603 4863 
z
" transform="scale(0.015625)"/>
       <path id="DejaVuSans-64" d="M 2906 2969 
L 2906 4863 
L 3481 4863 
L 3481 0 
L 2906 0 
L 2906 525 
Q 2725 213 2448 61 
Q 2172 -91 1784 -91 
Q 1150 -91 751 415 
Q 353 922 353 1747 
Q 353 2572 751 3078 
Q 1150 3584 1784 3584 
Q 2172 3584 2448 3432 
Q 2725 3281 2906 2969 
z
M 947 1747 
Q 947 1113 1208 752 
Q 1469 391 1925 391 
Q 2381 391 2643 752 
Q 2906 1113 2906 1747 
Q 2906 2381 2643 2742 
Q 2381 3103 1925 3103 
Q 1469 3103 1208 2742 
Q 947 2381 947 1747 
z
" transform="scale(0.015625)"/>
       <path id="DejaVuSans-75" d="M 544 1381 
L 544 3500 
L 1119 3500 
L 1119 1403 
Q 1119 906 1312 657 
Q 1506 409 1894 409 
Q 2359 409 2629 706 
Q 2900 1003 2900 1516 
L 2900 3500 
L 3475 3500 
L 3475 0 
L 2900 0 
L 2900 538 
Q 2691 219 2414 64 
Q 2138 -91 1772 -91 
Q 1169 -91 856 284 
Q 544 659 544 1381 
z
M 1991 3584 
L 1991 3584 
z
" transform="scale(0.015625)"/>
       <path id="DejaVuSans-61" d="M 2194 1759 
Q 1497 1759 1228 1600 
Q 959 1441 959 1056 
Q 959 750 1161 570 
Q 1363 391 1709 391 
Q 2188 391 2477 730 
Q 2766 1069 2766 1631 
L 2766 1759 
L 2194 1759 
z
M 3341 1997 
L 3341 0 
L 2766 0 
L 2766 531 
Q 2569 213 2275 61 
Q 1981 -91 1556 -91 
Q 1019 -91 701 211 
Q 384 513 384 1019 
Q 384 1609 779 1909 
Q 1175 2209 1959 2209 
L 2766 2209 
L 2766 2266 
Q 2766 2663 2505 2880 
Q 2244 3097 1772 3097 
Q 1472 3097 1187 3025 
Q 903 2953 641 2809 
L 641 3341 
Q 956 3463 1253 3523 
Q 1550 3584 1831 3584 
Q 2591 3584 2966 3190 
Q 3341 2797 3341 1997 
z
" transform="scale(0.015625)"/>
       <path id="DejaVuSans-6c" d="M 603 4863 
L 1178 4863 
L 1178 0 
L 603 0 
L 603 4863 
z
" transform="scale(0.015625)"/>
      </defs>
      <use xlink:href="#DejaVuSans-52"/>
      <use xlink:href="#DejaVuSans-65" x="64.982422"/>
      <use xlink:href="#DejaVuSans-73" x="126.505859"/>
      <use xlink:href="#DejaVuSans-69" x="178.605469"/>
      <use xlink:href="#DejaVuSans-64" x="206.388672"/>
      <use xlink:href="#DejaVuSans-75" x="269.865234"/>
      <use xlink:href="#DejaVuSans-61" x="333.244141"/>
      <use xlink:href="#DejaVuSans-6c" x="394.523438"/>
     </g>
    </g>
   </g>
   <g id="matplotlib.axis_2">
    <g id="ytick_1">
     <g id="line2d_8">
      <defs>
       <path id="maba0633083" d="M 0 0 
L -3.5 0 
" style="stroke: #000000; stroke-width: 0.8"/>
      </defs>
      <g>
       <use xlink:href="#maba0633083" x="144" y="180.593514" style="stroke: #000000; stroke-width: 0.8"/>
      </g>
     </g>
     <g id="text_9">
      <!-- 1.C.75.1.1 -->
      <g transform="translate(85.492188 184.392732) scale(0.1 -0.1)">
       <defs>
        <path id="DejaVuSans-2e" d="M 684 794 
L 1344 794 
L 1344 0 
L 684 0 
L 684 794 
z
" transform="scale(0.015625)"/>
        <path id="DejaVuSans-43" d="M 4122 4306 
L 4122 3641 
Q 3803 3938 3442 4084 
Q 3081 4231 2675 4231 
Q 1875 4231 1450 3742 
Q 1025 3253 1025 2328 
Q 1025 1406 1450 917 
Q 1875 428 2675 428 
Q 3081 428 3442 575 
Q 3803 722 4122 1019 
L 4122 359 
Q 3791 134 3420 21 
Q 3050 -91 2638 -91 
Q 1578 -91 968 557 
Q 359 1206 359 2328 
Q 359 3453 968 4101 
Q 1578 4750 2638 4750 
Q 3056 4750 3426 4639 
Q 3797 4528 4122 4306 
z
" transform="scale(0.015625)"/>
        <path id="DejaVuSans-37" d="M 525 4666 
L 3525 4666 
L 3525 4397 
L 1831 0 
L 1172 0 
L 2766 4134 
L 525 4134 
L 525 4666 
z
" transform="scale(0.015625)"/>
       </defs>
       <use xlink:href="#DejaVuSans-31"/>
       <use xlink:href="#DejaVuSans-2e" x="63.623047"/>
       <use xlink:href="#DejaVuSans-43" x="95.410156"/>
       <use xlink:href="#DejaVuSans-2e" x="165.234375"/>
       <use xlink:href="#DejaVuSans-37" x="197.021484"/>
       <use xlink:href="#DejaVuSans-35" x="260.644531"/>
       <use xlink:href="#DejaVuSans-2e" x="324.267578"/>
       <use xlink:href="#DejaVuSans-31" x="356.054688"/>
       <use xlink:href="#DejaVuSans-2e" x="419.677734"/>
       <use xlink:href="#DejaVuSans-31" x="451.464844"/>
      </g>
     </g>
    </g>
    <g id="ytick_2">
     <g id="line2d_9">
      <g>
       <use xlink:href="#maba0633083" x="144" y="160.161081" style="stroke: #000000; stroke-width: 0.8"/>
      </g>
     </g>
     <g id="text_10">
      <!-- 1.C.75.1.2 -->
      <g transform="translate(85.492188 163.9603) scale(0.1 -0.1)">
       <use xlink:href="#DejaVuSans-31"/>
       <use xlink:href="#DejaVuSans-2e" x="63.623047"/>
       <use xlink:href="#DejaVuSans-43" x="95.410156"/>
       <use xlink:href="#DejaVuSans-2e" x="165.234375"/>
       <use xlink:href="#DejaVuSans-37" x="197.021484"/>
       <use xlink:href="#DejaVuSans-35" x="260.644531"/>
       <use xlink:href="#DejaVuSans-2e" x="324.267578"/>
       <use xlink:href="#DejaVuSans-31" x="356.054688"/>
       <use xlink:href="#DejaVuSans-2e" x="419.677734"/>
       <use xlink:href="#DejaVuSans-32" x="451.464844"/>
      </g>
     </g>
    </g>
    <g id="ytick_3">
     <g id="line2d_10">
      <g>
       <use xlink:href="#maba0633083" x="144" y="139.728649" style="stroke: #000000; stroke-width: 0.8"/>
      </g>
     </g>
     <g id="text_11">
      <!-- 1.C.75.1.3 -->
      <g transform="translate(85.492188 143.527867) scale(0.1 -0.1)">
       <use xlink:href="#DejaVuSans-31"/>
       <use xlink:href="#DejaVuSans-2e" x="63.623047"/>
       <use xlink:href="#DejaVuSans-43" x="95.410156"/>
       <use xlink:href="#DejaVuSans-2e" x="165.234375"/>
       <use xlink:href="#DejaVuSans-37" x="197.021484"/>
       <use xlink:href="#DejaVuSans-35" x="260.644531"/>
       <use xlink:href="#DejaVuSans-2e" x="324.267578"/>
       <use xlink:href="#DejaVuSans-31" x="356.054688"/>
       <use xlink:href="#DejaVuSans-2e" x="419.677734"/>
       <use xlink:href="#DejaVuSans-33" x="451.464844"/>
      </g>
     </g>
    </g>
    <g id="ytick_4">
     <g id="line2d_11">
      <g>
       <use xlink:href="#maba0633083" x="144" y="119.296216" style="stroke: #000000; stroke-width: 0.8"/>
      </g>
     </g>
     <g id="text_12">
      <!-- 1.C.75.1.4 -->
      <g transform="translate(85.492188 123.095435) scale(0.1 -0.1)">
       <defs>
        <path id="DejaVuSans-34" d="M 2419 4116 
L 825 1625 
L 2419 1625 
L 2419 4116 
z
M 2253 4666 
L 3047 4666 
L 3047 1625 
L 3713 1625 
L 3713 1100 
L 3047 1100 
L 3047 0 
L 2419 0 
L 2419 1100 
L 313 1100 
L 313 1709 
L 2253 4666 
z
" transform="scale(0.015625)"/>
       </defs>
       <use xlink:href="#DejaVuSans-31"/>
       <use xlink:href="#DejaVuSans-2e" x="63.623047"/>
       <use xlink:href="#DejaVuSans-43" x="95.410156"/>
       <use xlink:href="#DejaVuSans-2e" x="165.234375"/>
       <use xlink:href="#DejaVuSans-37" x="197.021484"/>
       <use xlink:href="#DejaVuSans-35" x="260.644531"/>
       <use xlink:href="#DejaVuSans-2e" x="324.267578"/>
       <use xlink:href="#DejaVuSans-31" x="356.054688"/>
       <use xlink:href="#DejaVuSans-2e" x="419.677734"/>
       <use xlink:href="#DejaVuSans-34" x="451.464844"/>
      </g>
     </g>
    </g>
    <g id="ytick_5">
     <g id="line2d_12">
      <g>
       <use xlink:href="#maba0633083" x="144" y="98.863784" style="stroke: #000000; stroke-width: 0.8"/>
      </g>
     </g>
     <g id="text_13">
      <!-- 1.C.75.1.5 -->
      <g transform="translate(85.492188 102.663003) scale(0.1 -0.1)">
       <use xlink:href="#DejaVuSans-31"/>
       <use xlink:href="#DejaVuSans-2e" x="63.623047"/>
       <use xlink:href="#DejaVuSans-43" x="95.410156"/>
       <use xlink:href="#DejaVuSans-2e" x="165.234375"/>
       <use xlink:href="#DejaVuSans-37" x="197.021484"/>
       <use xlink:href="#DejaVuSans-35" x="260.644531"/>
       <use xlink:href="#DejaVuSans-2e" x="324.267578"/>
       <use xlink:href="#DejaVuSans-31" x="356.054688"/>
       <use xlink:href="#DejaVuSans-2e" x="419.677734"/>
       <use xlink:href="#DejaVuSans-35" x="451.464844"/>
      </g>
     </g>
    </g>
    <g id="ytick_6">
     <g id="line2d_13">
      <g>
       <use xlink:href="#maba0633083" x="144" y="78.431351" style="stroke: #000000; stroke-width: 0.8"/>
      </g>
     </g>
     <g id="text_14">
      <!-- 1.C.75.1.6 -->
      <g transform="translate(85.492188 82.23057) scale(0.1 -0.1)">
       <defs>
        <path id="DejaVuSans-36" d="M 2113 2584 
Q 1688 2584 1439 2293 
Q 1191 2003 1191 1497 
Q 1191 994 1439 701 
Q 1688 409 2113 409 
Q 2538 409 2786 701 
Q 3034 994 3034 1497 
Q 3034 2003 2786 2293 
Q 2538 2584 2113 2584 
z
M 3366 4563 
L 3366 3988 
Q 3128 4100 2886 4159 
Q 2644 4219 2406 4219 
Q 1781 4219 1451 3797 
Q 1122 3375 1075 2522 
Q 1259 2794 1537 2939 
Q 1816 3084 2150 3084 
Q 2853 3084 3261 2657 
Q 3669 2231 3669 1497 
Q 3669 778 3244 343 
Q 2819 -91 2113 -91 
Q 1303 -91 875 529 
Q 447 1150 447 2328 
Q 447 3434 972 4092 
Q 1497 4750 2381 4750 
Q 2619 4750 2861 4703 
Q 3103 4656 3366 4563 
z
" transform="scale(0.015625)"/>
       </defs>
       <use xlink:href="#DejaVuSans-31"/>
       <use xlink:href="#DejaVuSans-2e" x="63.623047"/>
       <use xlink:href="#DejaVuSans-43" x="95.410156"/>
       <use xlink:href="#DejaVuSans-2e" x="165.234375"/>
       <use xlink:href="#DejaVuSans-37" x="197.021484"/>
       <use xlink:href="#DejaVuSans-35" x="260.644531"/>
       <use xlink:href="#DejaVuSans-2e" x="324.267578"/>
       <use xlink:href="#DejaVuSans-31" x="356.054688"/>
       <use xlink:href="#DejaVuSans-2e" x="419.677734"/>
       <use xlink:href="#DejaVuSans-36" x="451.464844"/>
      </g>
     </g>
    </g>
    <g id="ytick_7">
     <g id="line2d_14">
      <g>
       <use xlink:href="#maba0633083" x="144" y="57.998919" style="stroke: #000000; stroke-width: 0.8"/>
      </g>
     </g>
     <g id="text_15">
      <!-- 1.C.75.1.7 -->
      <g transform="translate(85.492188 61.798138) scale(0.1 -0.1)">
       <use xlink:href="#DejaVuSans-31"/>
       <use xlink:href="#DejaVuSans-2e" x="63.623047"/>
       <use xlink:href="#DejaVuSans-43" x="95.410156"/>
       <use xlink:href="#DejaVuSans-2e" x="165.234375"/>
       <use xlink:href="#DejaVuSans-37" x="197.021484"/>
       <use xlink:href="#DejaVuSans-35" x="260.644531"/>
       <use xlink:href="#DejaVuSans-2e" x="324.267578"/>
       <use xlink:href="#DejaVuSans-31" x="356.054688"/>
       <use xlink:href="#DejaVuSans-2e" x="419.677734"/>
       <use xlink:href="#DejaVuSans-37" x="451.464844"/>
      </g>
     </g>
    </g>
    <g id="ytick_8">
     <g id="line2d_15">
      <g>
       <use xlink:href="#maba0633083" x="144" y="37.566486" style="stroke: #000000; stroke-width: 0.8"/>
      </g>
     </g>
     <g id="text_16">
      <!-- 1.C.75.1.8 -->
      <g transform="translate(85.492188 41.365705) scale(0.1 -0.1)">
       <defs>
        <path id="DejaVuSans-38" d="M 2034 2216 
Q 1584 2216 1326 1975 
Q 1069 1734 1069 1313 
Q 1069 891 1326 650 
Q 1584 409 2034 409 
Q 2484 409 2743 651 
Q 3003 894 3003 1313 
Q 3003 1734 2745 1975 
Q 2488 2216 2034 2216 
z
M 1403 2484 
Q 997 2584 770 2862 
Q 544 3141 544 3541 
Q 544 4100 942 4425 
Q 1341 4750 2034 4750 
Q 2731 4750 3128 4425 
Q 3525 4100 3525 3541 
Q 3525 3141 3298 2862 
Q 3072 2584 2669 2484 
Q 3125 2378 3379 2068 
Q 3634 1759 3634 1313 
Q 3634 634 3220 271 
Q 2806 -91 2034 -91 
Q 1263 -91 848 271 
Q 434 634 434 1313 
Q 434 1759 690 2068 
Q 947 2378 1403 2484 
z
M 1172 3481 
Q 1172 3119 1398 2916 
Q 1625 2713 2034 2713 
Q 2441 2713 2670 2916 
Q 2900 3119 2900 3481 
Q 2900 3844 2670 4047 
Q 2441 4250 2034 4250 
Q 1625 4250 1398 4047 
Q 1172 3844 1172 3481 
z
" transform="scale(0.015625)"/>
       </defs>
       <use xlink:href="#DejaVuSans-31"/>
       <use xlink:href="#DejaVuSans-2e" x="63.623047"/>
       <use xlink:href="#DejaVuSans-43" x="95.410156"/>
       <use xlink:href="#DejaVuSans-2e" x="165.234375"/>
       <use xlink:href="#DejaVuSans-37" x="197.021484"/>
       <use xlink:href="#DejaVuSans-35" x="260.644531"/>
       <use xlink:href="#DejaVuSans-2e" x="324.267578"/>
       <use xlink:href="#DejaVuSans-31" x="356.054688"/>
       <use xlink:href="#DejaVuSans-2e" x="419.677734"/>
       <use xlink:href="#DejaVuSans-38" x="451.464844"/>
      </g>
     </g>
    </g>
   </g>
   <g id="patch_93">
    <path d="M 144 192.24 
L 144 25.92 
" style="fill: none; stroke: #000000; stroke-width: 0.8; stroke-linejoin: miter; stroke-linecap: square"/>
   </g>
   <g id="patch_94">
    <path d="M 1036.8 192.24 
L 1036.8 25.92 
" style="fill: none; stroke: #000000; stroke-width: 0.8; stroke-linejoin: miter; stroke-linecap: square"/>
   </g>
   <g id="patch_95">
    <path d="M 144 192.24 
L 1036.8 192.24 
" style="fill: none; stroke: #000000; stroke-width: 0.8; stroke-linejoin: miter; stroke-linecap: square"/>
   </g>
   <g id="patch_96">
    <path d="M 144 25.92 
L 1036.8 25.92 
" style="fill: none; stroke: #000000; stroke-width: 0.8; stroke-linejoin: miter; stroke-linecap: square"/>
   </g>
   <g id="text_17">
    <!-- 1.C.75 Summary -->
    <g transform="translate(540.042187 19.92) scale(0.12 -0.12)">
     <defs>
      <path id="DejaVuSans-20" transform="scale(0.015625)"/>
      <path id="DejaVuSans-53" d="M 3425 4513 
L 3425 3897 
Q 3066 4069 2747 4153 
Q 2428 4238 2131 4238 
Q 1616 4238 1336 4038 
Q 1056 3838 1056 3469 
Q 1056 3159 1242 3001 
Q 1428 2844 1947 2747 
L 2328 2669 
Q 3034 2534 3370 2195 
Q 3706 1856 3706 1288 
Q 3706 609 3251 259 
Q 2797 -91 1919 -91 
Q 1588 -91 1214 -16 
Q 841 59 441 206 
L 441 856 
Q 825 641 1194 531 
Q 1563 422 1919 422 
Q 2459 422 2753 634 
Q 3047 847 3047 1241 
Q 3047 1584 2836 1778 
Q 2625 1972 2144 2069 
L 1759 2144 
Q 1053 2284 737 2584 
Q 422 2884 422 3419 
Q 422 4038 858 4394 
Q 1294 4750 2059 4750 
Q 2388 4750 2728 4690 
Q 3069 4631 3425 4513 
z
" transform="scale(0.015625)"/>
      <path id="DejaVuSans-6d" d="M 3328 2828 
Q 3544 3216 3844 3400 
Q 4144 3584 4550 3584 
Q 5097 3584 5394 3201 
Q 5691 2819 5691 2113 
L 5691 0 
L 5113 0 
L 5113 2094 
Q 5113 2597 4934 2840 
Q 4756 3084 4391 3084 
Q 3944 3084 3684 2787 
Q 3425 2491 3425 1978 
L 3425 0 
L 2847 0 
L 2847 2094 
Q 2847 2600 2669 2842 
Q 2491 3084 2119 3084 
Q 1678 3084 1418 2786 
Q 1159 2488 1159 1978 
L 1159 0 
L 581 0 
L 581 3500 
L 1159 3500 
L 1159 2956 
Q 1356 3278 1631 3431 
Q 1906 3584 2284 3584 
Q 2666 3584 2933 3390 
Q 3200 3197 3328 2828 
z
" transform="scale(0.015625)"/>
      <path id="DejaVuSans-72" d="M 2631 2963 
Q 2534 3019 2420 3045 
Q 2306 3072 2169 3072 
Q 1681 3072 1420 2755 
Q 1159 2438 1159 1844 
L 1159 0 
L 581 0 
L 581 3500 
L 1159 3500 
L 1159 2956 
Q 1341 3275 1631 3429 
Q 1922 3584 2338 3584 
Q 2397 3584 2469 3576 
Q 2541 3569 2628 3553 
L 2631 2963 
z
" transform="scale(0.015625)"/>
      <path id="DejaVuSans-79" d="M 2059 -325 
Q 1816 -950 1584 -1140 
Q 1353 -1331 966 -1331 
L 506 -1331 
L 506 -850 
L 844 -850 
Q 1081 -850 1212 -737 
Q 1344 -625 1503 -206 
L 1606 56 
L 191 3500 
L 800 3500 
L 1894 763 
L 2988 3500 
L 3597 3500 
L 2059 -325 
z
" transform="scale(0.015625)"/>
     </defs>
     <use xlink:href="#DejaVuSans-31"/>
     <use xlink:href="#DejaVuSans-2e" x="63.623047"/>
     <use xlink:href="#DejaVuSans-43" x="95.410156"/>
     <use xlink:href="#DejaVuSans-2e" x="165.234375"/>
     <use xlink:href="#DejaVuSans-37" x="197.021484"/>
     <use xlink:href="#DejaVuSans-35" x="260.644531"/>
     <use xlink:href="#DejaVuSans-20" x="324.267578"/>
     <use xlink:href="#DejaVuSans-53" x="356.054688"/>
     <use xlink:href="#DejaVuSans-75" x="419.53125"/>
     <use xlink:href="#DejaVuSans-6d" x="482.910156"/>
     <use xlink:href="#DejaVuSans-6d" x="580.322266"/>
     <use xlink:href="#DejaVuSans-61" x="677.734375"/>
     <use xlink:href="#DejaVuSans-72" x="739.013672"/>
     <use xlink:href="#DejaVuSans-79" x="780.126953"/>
    </g>
   </g>
  </g>
 </g>
 <defs>
  <clipPath id="p61776a70f8">
   <rect x="144" y="25.92" width="892.8" height="166.32"/>
  </clipPath>
 </defs>
</svg>
