<?xml version="1.0" encoding="utf-8" standalone="no"?>
<!DOCTYPE svg PUBLIC "-//W3C//DTD SVG 1.1//EN"
  "http://www.w3.org/Graphics/SVG/1.1/DTD/svg11.dtd">
<svg xmlns:xlink="http://www.w3.org/1999/xlink" width="1152pt" height="345.6pt" viewBox="0 0 1152 345.6" xmlns="http://www.w3.org/2000/svg" version="1.1">
 <metadata>
  <rdf:RDF xmlns:dc="http://purl.org/dc/elements/1.1/" xmlns:cc="http://creativecommons.org/ns#" xmlns:rdf="http://www.w3.org/1999/02/22-rdf-syntax-ns#">
   <cc:Work>
    <dc:type rdf:resource="http://purl.org/dc/dcmitype/StillImage"/>
    <dc:date>2024-10-25T07:48:57.697610</dc:date>
    <dc:format>image/svg+xml</dc:format>
    <dc:creator>
     <cc:Agent>
      <dc:title>Matplotlib v3.9.2, https://matplotlib.org/</dc:title>
     </cc:Agent>
    </dc:creator>
   </cc:Work>
  </rdf:RDF>
 </metadata>
 <defs>
  <style type="text/css">*{stroke-linejoin: round; stroke-linecap: butt}</style>
 </defs>
 <g id="figure_1">
  <g id="patch_1">
   <path d="M 0 345.6 
L 1152 345.6 
L 1152 0 
L 0 0 
z
" style="fill: #ffffff"/>
  </g>
  <g id="axes_1">
   <g id="patch_2">
    <path d="M 144 307.584 
L 1036.8 307.584 
L 1036.8 41.472 
L 144 41.472 
z
" style="fill: #ffffff"/>
   </g>
   <g id="patch_3">
    <path d="M 144 292.14806 
L 144.326719 292.14806 
L 144.326719 291.606448 
L 144 291.606448 
z
" clip-path="url(#p0bfe28c621)" style="fill: #0000ff"/>
   </g>
   <g id="patch_4">
    <path d="M 144.490078 295.488 
L 157.558831 295.488 
L 157.558831 288.266507 
L 144.490078 288.266507 
z
" clip-path="url(#p0bfe28c621)" style="fill: #0000ff"/>
   </g>
   <g id="patch_5">
    <path d="M 144.653438 295.488 
L 157.558831 295.488 
L 157.558831 288.266507 
L 144.653438 288.266507 
z
" clip-path="url(#p0bfe28c621)" style="fill: #0000ff"/>
   </g>
   <g id="patch_6">
    <path d="M 145.306875 295.488 
L 156.742034 295.488 
L 156.742034 288.266507 
L 145.306875 288.266507 
z
" clip-path="url(#p0bfe28c621)" style="fill: #0000ff"/>
   </g>
   <g id="patch_7">
    <path d="M 147.430548 295.488 
L 157.395471 295.488 
L 157.395471 288.266507 
L 147.430548 288.266507 
z
" clip-path="url(#p0bfe28c621)" style="fill: #0000ff"/>
   </g>
   <g id="patch_8">
    <path d="M 157.72219 292.14806 
L 159.355784 292.14806 
L 159.355784 291.606448 
L 157.72219 291.606448 
z
" clip-path="url(#p0bfe28c621)" style="fill: #0000ff"/>
   </g>
   <g id="patch_9">
    <path d="M 159.519144 295.488 
L 220.288843 295.488 
L 220.288843 288.266507 
L 159.519144 288.266507 
z
" clip-path="url(#p0bfe28c621)" style="fill: #0000ff"/>
   </g>
   <g id="patch_10">
    <path d="M 220.452203 292.14806 
L 237.60494 292.14806 
L 237.60494 291.606448 
L 220.452203 291.606448 
z
" clip-path="url(#p0bfe28c621)" style="fill: #0000ff"/>
   </g>
   <g id="patch_11">
    <path d="M 237.7683 295.488 
L 267.009634 295.488 
L 267.009634 288.266507 
L 237.7683 288.266507 
z
" clip-path="url(#p0bfe28c621)" style="fill: #0000ff"/>
   </g>
   <g id="patch_12">
    <path d="M 238.095019 295.488 
L 273.053932 295.488 
L 273.053932 288.266507 
L 238.095019 288.266507 
z
" clip-path="url(#p0bfe28c621)" style="fill: #0000ff"/>
   </g>
   <g id="patch_13">
    <path d="M 238.421737 295.488 
L 266.682915 295.488 
L 266.682915 288.266507 
L 238.421737 288.266507 
z
" clip-path="url(#p0bfe28c621)" style="fill: #0000ff"/>
   </g>
   <g id="patch_14">
    <path d="M 238.748456 295.488 
L 268.806587 295.488 
L 268.806587 288.266507 
L 238.748456 288.266507 
z
" clip-path="url(#p0bfe28c621)" style="fill: #0000ff"/>
   </g>
   <g id="patch_15">
    <path d="M 273.217291 292.14806 
L 284.48909 292.14806 
L 284.48909 291.606448 
L 273.217291 291.606448 
z
" clip-path="url(#p0bfe28c621)" style="fill: #0000ff"/>
   </g>
   <g id="patch_16">
    <path d="M 284.65245 295.488 
L 393.286455 295.488 
L 393.286455 288.266507 
L 284.65245 288.266507 
z
" clip-path="url(#p0bfe28c621)" style="fill: #0000ff"/>
   </g>
   <g id="patch_17">
    <path d="M 393.449815 292.14806 
L 438.210292 292.14806 
L 438.210292 291.606448 
L 393.449815 291.606448 
z
" clip-path="url(#p0bfe28c621)" style="fill: #0000ff"/>
   </g>
   <g id="patch_18">
    <path d="M 438.373652 295.488 
L 529.201482 295.488 
L 529.201482 288.266507 
L 438.373652 288.266507 
z
" clip-path="url(#p0bfe28c621)" style="fill: #0000ff"/>
   </g>
   <g id="patch_19">
    <path d="M 441.64084 295.488 
L 503.227336 295.488 
L 503.227336 288.266507 
L 441.64084 288.266507 
z
" clip-path="url(#p0bfe28c621)" style="fill: #0000ff"/>
   </g>
   <g id="patch_20">
    <path d="M 460.100453 295.488 
L 475.782956 295.488 
L 475.782956 288.266507 
L 460.100453 288.266507 
z
" clip-path="url(#p0bfe28c621)" style="fill: #0000ff"/>
   </g>
   <g id="patch_21">
    <path d="M 465.164594 295.488 
L 471.698971 295.488 
L 471.698971 288.266507 
L 465.164594 288.266507 
z
" clip-path="url(#p0bfe28c621)" style="fill: #0000ff"/>
   </g>
   <g id="patch_22">
    <path d="M 481.500535 295.488 
L 495.876163 295.488 
L 495.876163 288.266507 
L 481.500535 288.266507 
z
" clip-path="url(#p0bfe28c621)" style="fill: #0000ff"/>
   </g>
   <g id="patch_23">
    <path d="M 523.320543 295.488 
L 530.181639 295.488 
L 530.181639 288.266507 
L 523.320543 288.266507 
z
" clip-path="url(#p0bfe28c621)" style="fill: #0000ff"/>
   </g>
   <g id="patch_24">
    <path d="M 524.954138 295.488 
L 529.69156 295.488 
L 529.69156 288.266507 
L 524.954138 288.266507 
z
" clip-path="url(#p0bfe28c621)" style="fill: #0000ff"/>
   </g>
   <g id="patch_25">
    <path d="M 530.344998 292.14806 
L 530.344998 292.14806 
L 530.344998 291.606448 
L 530.344998 291.606448 
z
" clip-path="url(#p0bfe28c621)" style="fill: #0000ff"/>
   </g>
   <g id="patch_26">
    <path d="M 144 274.094328 
L 144.326719 274.094328 
L 144.326719 273.552716 
L 144 273.552716 
z
" clip-path="url(#p0bfe28c621)" style="fill: #0000ff"/>
   </g>
   <g id="patch_27">
    <path d="M 144.490078 277.434269 
L 157.395471 277.434269 
L 157.395471 270.212776 
L 144.490078 270.212776 
z
" clip-path="url(#p0bfe28c621)" style="fill: #0000ff"/>
   </g>
   <g id="patch_28">
    <path d="M 144.653438 277.434269 
L 157.232112 277.434269 
L 157.232112 270.212776 
L 144.653438 270.212776 
z
" clip-path="url(#p0bfe28c621)" style="fill: #0000ff"/>
   </g>
   <g id="patch_29">
    <path d="M 147.267188 277.434269 
L 157.232112 277.434269 
L 157.232112 270.212776 
L 147.267188 270.212776 
z
" clip-path="url(#p0bfe28c621)" style="fill: #0000ff"/>
   </g>
   <g id="patch_30">
    <path d="M 157.558831 274.094328 
L 159.192425 274.094328 
L 159.192425 273.552716 
L 157.558831 273.552716 
z
" clip-path="url(#p0bfe28c621)" style="fill: #0000ff"/>
   </g>
   <g id="patch_31">
    <path d="M 159.355784 277.434269 
L 220.125484 277.434269 
L 220.125484 270.212776 
L 159.355784 270.212776 
z
" clip-path="url(#p0bfe28c621)" style="fill: #0000ff"/>
   </g>
   <g id="patch_32">
    <path d="M 220.288843 274.094328 
L 237.931659 274.094328 
L 237.931659 273.552716 
L 220.288843 273.552716 
z
" clip-path="url(#p0bfe28c621)" style="fill: #0000ff"/>
   </g>
   <g id="patch_33">
    <path d="M 238.095019 277.434269 
L 267.336352 277.434269 
L 267.336352 270.212776 
L 238.095019 270.212776 
z
" clip-path="url(#p0bfe28c621)" style="fill: #0000ff"/>
   </g>
   <g id="patch_34">
    <path d="M 238.421737 277.434269 
L 273.38065 277.434269 
L 273.38065 270.212776 
L 238.421737 270.212776 
z
" clip-path="url(#p0bfe28c621)" style="fill: #0000ff"/>
   </g>
   <g id="patch_35">
    <path d="M 238.421737 277.434269 
L 258.351585 277.434269 
L 258.351585 270.212776 
L 238.421737 270.212776 
z
" clip-path="url(#p0bfe28c621)" style="fill: #0000ff"/>
   </g>
   <g id="patch_36">
    <path d="M 238.748456 277.434269 
L 267.009634 277.434269 
L 267.009634 270.212776 
L 238.748456 270.212776 
z
" clip-path="url(#p0bfe28c621)" style="fill: #0000ff"/>
   </g>
   <g id="patch_37">
    <path d="M 239.075175 277.434269 
L 269.133306 277.434269 
L 269.133306 270.212776 
L 239.075175 270.212776 
z
" clip-path="url(#p0bfe28c621)" style="fill: #0000ff"/>
   </g>
   <g id="patch_38">
    <path d="M 273.54401 274.094328 
L 284.815809 274.094328 
L 284.815809 273.552716 
L 273.54401 273.552716 
z
" clip-path="url(#p0bfe28c621)" style="fill: #0000ff"/>
   </g>
   <g id="patch_39">
    <path d="M 284.979168 277.434269 
L 392.796377 277.434269 
L 392.796377 270.212776 
L 284.979168 270.212776 
z
" clip-path="url(#p0bfe28c621)" style="fill: #0000ff"/>
   </g>
   <g id="patch_40">
    <path d="M 392.959737 274.094328 
L 439.517168 274.094328 
L 439.517168 273.552716 
L 392.959737 273.552716 
z
" clip-path="url(#p0bfe28c621)" style="fill: #0000ff"/>
   </g>
   <g id="patch_41">
    <path d="M 439.680527 277.434269 
L 585.233759 277.434269 
L 585.233759 270.212776 
L 439.680527 270.212776 
z
" clip-path="url(#p0bfe28c621)" style="fill: #0000ff"/>
   </g>
   <g id="patch_42">
    <path d="M 439.843886 277.434269 
L 572.165006 277.434269 
L 572.165006 270.212776 
L 439.843886 270.212776 
z
" clip-path="url(#p0bfe28c621)" style="fill: #0000ff"/>
   </g>
   <g id="patch_43">
    <path d="M 439.843886 277.434269 
L 452.74928 277.434269 
L 452.74928 270.212776 
L 439.843886 270.212776 
z
" clip-path="url(#p0bfe28c621)" style="fill: #0000ff"/>
   </g>
   <g id="patch_44">
    <path d="M 441.314121 277.434269 
L 472.842487 277.434269 
L 472.842487 270.212776 
L 441.314121 270.212776 
z
" clip-path="url(#p0bfe28c621)" style="fill: #0000ff"/>
   </g>
   <g id="patch_45">
    <path d="M 441.314121 277.434269 
L 586.050556 277.434269 
L 586.050556 270.212776 
L 441.314121 270.212776 
z
" clip-path="url(#p0bfe28c621)" style="fill: #0000ff"/>
   </g>
   <g id="patch_46">
    <path d="M 458.793578 277.434269 
L 467.451626 277.434269 
L 467.451626 270.212776 
L 458.793578 270.212776 
z
" clip-path="url(#p0bfe28c621)" style="fill: #0000ff"/>
   </g>
   <g id="patch_47">
    <path d="M 468.268423 277.434269 
L 474.149362 277.434269 
L 474.149362 270.212776 
L 468.268423 270.212776 
z
" clip-path="url(#p0bfe28c621)" style="fill: #0000ff"/>
   </g>
   <g id="patch_48">
    <path d="M 480.683738 277.434269 
L 492.772334 277.434269 
L 492.772334 270.212776 
L 480.683738 270.212776 
z
" clip-path="url(#p0bfe28c621)" style="fill: #0000ff"/>
   </g>
   <g id="patch_49">
    <path d="M 481.663895 277.434269 
L 492.772334 277.434269 
L 492.772334 270.212776 
L 481.663895 270.212776 
z
" clip-path="url(#p0bfe28c621)" style="fill: #0000ff"/>
   </g>
   <g id="patch_50">
    <path d="M 502.573899 277.434269 
L 507.8014 277.434269 
L 507.8014 270.212776 
L 502.573899 270.212776 
z
" clip-path="url(#p0bfe28c621)" style="fill: #0000ff"/>
   </g>
   <g id="patch_51">
    <path d="M 503.554055 277.434269 
L 513.19226 277.434269 
L 513.19226 270.212776 
L 503.554055 270.212776 
z
" clip-path="url(#p0bfe28c621)" style="fill: #0000ff"/>
   </g>
   <g id="patch_52">
    <path d="M 521.196871 277.434269 
L 533.285467 277.434269 
L 533.285467 270.212776 
L 521.196871 270.212776 
z
" clip-path="url(#p0bfe28c621)" style="fill: #0000ff"/>
   </g>
   <g id="patch_53">
    <path d="M 522.177028 277.434269 
L 533.285467 277.434269 
L 533.285467 270.212776 
L 522.177028 270.212776 
z
" clip-path="url(#p0bfe28c621)" style="fill: #0000ff"/>
   </g>
   <g id="patch_54">
    <path d="M 543.087032 277.434269 
L 555.012268 277.434269 
L 555.012268 270.212776 
L 543.087032 270.212776 
z
" clip-path="url(#p0bfe28c621)" style="fill: #0000ff"/>
   </g>
   <g id="patch_55">
    <path d="M 544.067188 277.434269 
L 551.74508 277.434269 
L 551.74508 270.212776 
L 544.067188 270.212776 
z
" clip-path="url(#p0bfe28c621)" style="fill: #0000ff"/>
   </g>
   <g id="patch_56">
    <path d="M 562.526801 277.434269 
L 569.551256 277.434269 
L 569.551256 270.212776 
L 562.526801 270.212776 
z
" clip-path="url(#p0bfe28c621)" style="fill: #0000ff"/>
   </g>
   <g id="patch_57">
    <path d="M 563.997036 277.434269 
L 569.551256 277.434269 
L 569.551256 270.212776 
L 563.997036 270.212776 
z
" clip-path="url(#p0bfe28c621)" style="fill: #0000ff"/>
   </g>
   <g id="patch_58">
    <path d="M 577.392507 277.434269 
L 584.580321 277.434269 
L 584.580321 270.212776 
L 577.392507 270.212776 
z
" clip-path="url(#p0bfe28c621)" style="fill: #0000ff"/>
   </g>
   <g id="patch_59">
    <path d="M 578.862742 277.434269 
L 585.070399 277.434269 
L 585.070399 270.212776 
L 578.862742 270.212776 
z
" clip-path="url(#p0bfe28c621)" style="fill: #0000ff"/>
   </g>
   <g id="patch_60">
    <path d="M 586.213915 274.094328 
L 586.540634 274.094328 
L 586.540634 273.552716 
L 586.213915 273.552716 
z
" clip-path="url(#p0bfe28c621)" style="fill: #0000ff"/>
   </g>
   <g id="patch_61">
    <path d="M 144 256.040597 
L 144 256.040597 
L 144 255.498985 
L 144 255.498985 
z
" clip-path="url(#p0bfe28c621)" style="fill: #0000ff"/>
   </g>
   <g id="patch_62">
    <path d="M 144.163359 259.380537 
L 157.068753 259.380537 
L 157.068753 252.159045 
L 144.163359 252.159045 
z
" clip-path="url(#p0bfe28c621)" style="fill: #0000ff"/>
   </g>
   <g id="patch_63">
    <path d="M 144.490078 259.380537 
L 157.558831 259.380537 
L 157.558831 252.159045 
L 144.490078 252.159045 
z
" clip-path="url(#p0bfe28c621)" style="fill: #0000ff"/>
   </g>
   <g id="patch_64">
    <path d="M 144.653438 259.380537 
L 157.558831 259.380537 
L 157.558831 252.159045 
L 144.653438 252.159045 
z
" clip-path="url(#p0bfe28c621)" style="fill: #0000ff"/>
   </g>
   <g id="patch_65">
    <path d="M 147.430548 259.380537 
L 157.395471 259.380537 
L 157.395471 252.159045 
L 147.430548 252.159045 
z
" clip-path="url(#p0bfe28c621)" style="fill: #0000ff"/>
   </g>
   <g id="patch_66">
    <path d="M 157.72219 256.040597 
L 159.355784 256.040597 
L 159.355784 255.498985 
L 157.72219 255.498985 
z
" clip-path="url(#p0bfe28c621)" style="fill: #0000ff"/>
   </g>
   <g id="patch_67">
    <path d="M 159.519144 259.380537 
L 220.288843 259.380537 
L 220.288843 252.159045 
L 159.519144 252.159045 
z
" clip-path="url(#p0bfe28c621)" style="fill: #0000ff"/>
   </g>
   <g id="patch_68">
    <path d="M 220.452203 256.040597 
L 237.931659 256.040597 
L 237.931659 255.498985 
L 220.452203 255.498985 
z
" clip-path="url(#p0bfe28c621)" style="fill: #0000ff"/>
   </g>
   <g id="patch_69">
    <path d="M 238.095019 259.380537 
L 267.009634 259.380537 
L 267.009634 252.159045 
L 238.095019 252.159045 
z
" clip-path="url(#p0bfe28c621)" style="fill: #0000ff"/>
   </g>
   <g id="patch_70">
    <path d="M 238.095019 259.380537 
L 273.053932 259.380537 
L 273.053932 252.159045 
L 238.095019 252.159045 
z
" clip-path="url(#p0bfe28c621)" style="fill: #0000ff"/>
   </g>
   <g id="patch_71">
    <path d="M 238.421737 259.380537 
L 267.009634 259.380537 
L 267.009634 252.159045 
L 238.421737 252.159045 
z
" clip-path="url(#p0bfe28c621)" style="fill: #0000ff"/>
   </g>
   <g id="patch_72">
    <path d="M 238.748456 259.380537 
L 268.806587 259.380537 
L 268.806587 252.159045 
L 238.748456 252.159045 
z
" clip-path="url(#p0bfe28c621)" style="fill: #0000ff"/>
   </g>
   <g id="patch_73">
    <path d="M 273.217291 256.040597 
L 284.48909 256.040597 
L 284.48909 255.498985 
L 273.217291 255.498985 
z
" clip-path="url(#p0bfe28c621)" style="fill: #0000ff"/>
   </g>
   <g id="patch_74">
    <path d="M 284.65245 259.380537 
L 389.529189 259.380537 
L 389.529189 252.159045 
L 284.65245 252.159045 
z
" clip-path="url(#p0bfe28c621)" style="fill: #0000ff"/>
   </g>
   <g id="patch_75">
    <path d="M 389.692548 256.040597 
L 440.170605 256.040597 
L 440.170605 255.498985 
L 389.692548 255.498985 
z
" clip-path="url(#p0bfe28c621)" style="fill: #0000ff"/>
   </g>
   <g id="patch_76">
    <path d="M 440.333965 259.380537 
L 528.874763 259.380537 
L 528.874763 252.159045 
L 440.333965 252.159045 
z
" clip-path="url(#p0bfe28c621)" style="fill: #0000ff"/>
   </g>
   <g id="patch_77">
    <path d="M 440.333965 259.380537 
L 503.063977 259.380537 
L 503.063977 252.159045 
L 440.333965 252.159045 
z
" clip-path="url(#p0bfe28c621)" style="fill: #0000ff"/>
   </g>
   <g id="patch_78">
    <path d="M 441.64084 259.380537 
L 528.384685 259.380537 
L 528.384685 252.159045 
L 441.64084 252.159045 
z
" clip-path="url(#p0bfe28c621)" style="fill: #0000ff"/>
   </g>
   <g id="patch_79">
    <path d="M 441.804199 259.380537 
L 455.689749 259.380537 
L 455.689749 252.159045 
L 441.804199 252.159045 
z
" clip-path="url(#p0bfe28c621)" style="fill: #0000ff"/>
   </g>
   <g id="patch_80">
    <path d="M 458.630218 259.380537 
L 475.946315 259.380537 
L 475.946315 252.159045 
L 458.630218 252.159045 
z
" clip-path="url(#p0bfe28c621)" style="fill: #0000ff"/>
   </g>
   <g id="patch_81">
    <path d="M 465.164594 259.380537 
L 474.312721 259.380537 
L 474.312721 252.159045 
L 465.164594 252.159045 
z
" clip-path="url(#p0bfe28c621)" style="fill: #0000ff"/>
   </g>
   <g id="patch_82">
    <path d="M 485.094442 259.380537 
L 492.118897 259.380537 
L 492.118897 252.159045 
L 485.094442 252.159045 
z
" clip-path="url(#p0bfe28c621)" style="fill: #0000ff"/>
   </g>
   <g id="patch_83">
    <path d="M 504.86093 259.380537 
L 528.711404 259.380537 
L 528.711404 252.159045 
L 504.86093 252.159045 
z
" clip-path="url(#p0bfe28c621)" style="fill: #0000ff"/>
   </g>
   <g id="patch_84">
    <path d="M 509.925072 259.380537 
L 517.276245 259.380537 
L 517.276245 252.159045 
L 509.925072 252.159045 
z
" clip-path="url(#p0bfe28c621)" style="fill: #0000ff"/>
   </g>
   <g id="patch_85">
    <path d="M 522.993825 259.380537 
L 529.85492 259.380537 
L 529.85492 252.159045 
L 522.993825 252.159045 
z
" clip-path="url(#p0bfe28c621)" style="fill: #0000ff"/>
   </g>
   <g id="patch_86">
    <path d="M 522.993825 259.380537 
L 529.85492 259.380537 
L 529.85492 252.159045 
L 522.993825 252.159045 
z
" clip-path="url(#p0bfe28c621)" style="fill: #0000ff"/>
   </g>
   <g id="patch_87">
    <path d="M 530.018279 256.040597 
L 530.018279 256.040597 
L 530.018279 255.498985 
L 530.018279 255.498985 
z
" clip-path="url(#p0bfe28c621)" style="fill: #0000ff"/>
   </g>
   <g id="patch_88">
    <path d="M 144 237.986866 
L 144 237.986866 
L 144 237.445254 
L 144 237.445254 
z
" clip-path="url(#p0bfe28c621)" style="fill: #0000ff"/>
   </g>
   <g id="patch_89">
    <path d="M 144.163359 241.326806 
L 156.742034 241.326806 
L 156.742034 234.105313 
L 144.163359 234.105313 
z
" clip-path="url(#p0bfe28c621)" style="fill: #0000ff"/>
   </g>
   <g id="patch_90">
    <path d="M 144.326719 241.326806 
L 157.395471 241.326806 
L 157.395471 234.105313 
L 144.326719 234.105313 
z
" clip-path="url(#p0bfe28c621)" style="fill: #0000ff"/>
   </g>
   <g id="patch_91">
    <path d="M 144.490078 241.326806 
L 157.395471 241.326806 
L 157.395471 234.105313 
L 144.490078 234.105313 
z
" clip-path="url(#p0bfe28c621)" style="fill: #0000ff"/>
   </g>
   <g id="patch_92">
    <path d="M 147.267188 241.326806 
L 157.395471 241.326806 
L 157.395471 234.105313 
L 147.267188 234.105313 
z
" clip-path="url(#p0bfe28c621)" style="fill: #0000ff"/>
   </g>
   <g id="patch_93">
    <path d="M 157.558831 237.986866 
L 159.682503 237.986866 
L 159.682503 237.445254 
L 157.558831 237.445254 
z
" clip-path="url(#p0bfe28c621)" style="fill: #0000ff"/>
   </g>
   <g id="patch_94">
    <path d="M 159.845862 241.326806 
L 220.942281 241.326806 
L 220.942281 234.105313 
L 159.845862 234.105313 
z
" clip-path="url(#p0bfe28c621)" style="fill: #0000ff"/>
   </g>
   <g id="patch_95">
    <path d="M 186.636805 241.326806 
L 191.047509 241.326806 
L 191.047509 234.105313 
L 186.636805 234.105313 
z
" clip-path="url(#p0bfe28c621)" style="fill: #0000ff"/>
   </g>
   <g id="patch_96">
    <path d="M 221.10564 237.986866 
L 236.951503 237.986866 
L 236.951503 237.445254 
L 221.10564 237.445254 
z
" clip-path="url(#p0bfe28c621)" style="fill: #0000ff"/>
   </g>
   <g id="patch_97">
    <path d="M 237.114862 241.326806 
L 272.563853 241.326806 
L 272.563853 234.105313 
L 237.114862 234.105313 
z
" clip-path="url(#p0bfe28c621)" style="fill: #0000ff"/>
   </g>
   <g id="patch_98">
    <path d="M 238.911816 241.326806 
L 268.153149 241.326806 
L 268.153149 234.105313 
L 238.911816 234.105313 
z
" clip-path="url(#p0bfe28c621)" style="fill: #0000ff"/>
   </g>
   <g id="patch_99">
    <path d="M 239.238534 241.326806 
L 274.197448 241.326806 
L 274.197448 234.105313 
L 239.238534 234.105313 
z
" clip-path="url(#p0bfe28c621)" style="fill: #0000ff"/>
   </g>
   <g id="patch_100">
    <path d="M 239.401894 241.326806 
L 268.153149 241.326806 
L 268.153149 234.105313 
L 239.401894 234.105313 
z
" clip-path="url(#p0bfe28c621)" style="fill: #0000ff"/>
   </g>
   <g id="patch_101">
    <path d="M 274.360807 237.986866 
L 285.469247 237.986866 
L 285.469247 237.445254 
L 274.360807 237.445254 
z
" clip-path="url(#p0bfe28c621)" style="fill: #0000ff"/>
   </g>
   <g id="patch_102">
    <path d="M 285.632606 241.326806 
L 381.524578 241.326806 
L 381.524578 234.105313 
L 285.632606 234.105313 
z
" clip-path="url(#p0bfe28c621)" style="fill: #0000ff"/>
   </g>
   <g id="patch_103">
    <path d="M 381.687937 237.986866 
L 435.269823 237.986866 
L 435.269823 237.445254 
L 381.687937 237.445254 
z
" clip-path="url(#p0bfe28c621)" style="fill: #0000ff"/>
   </g>
   <g id="patch_104">
    <path d="M 435.433182 241.326806 
L 499.306711 241.326806 
L 499.306711 234.105313 
L 435.433182 234.105313 
z
" clip-path="url(#p0bfe28c621)" style="fill: #0000ff"/>
   </g>
   <g id="patch_105">
    <path d="M 437.066776 241.326806 
L 499.306711 241.326806 
L 499.306711 234.105313 
L 437.066776 234.105313 
z
" clip-path="url(#p0bfe28c621)" style="fill: #0000ff"/>
   </g>
   <g id="patch_106">
    <path d="M 438.046933 241.326806 
L 480.19366 241.326806 
L 480.19366 234.105313 
L 438.046933 234.105313 
z
" clip-path="url(#p0bfe28c621)" style="fill: #0000ff"/>
   </g>
   <g id="patch_107">
    <path d="M 449.482091 241.326806 
L 458.956937 241.326806 
L 458.956937 234.105313 
L 449.482091 234.105313 
z
" clip-path="url(#p0bfe28c621)" style="fill: #0000ff"/>
   </g>
   <g id="patch_108">
    <path d="M 451.115685 241.326806 
L 462.714203 241.326806 
L 462.714203 234.105313 
L 451.115685 234.105313 
z
" clip-path="url(#p0bfe28c621)" style="fill: #0000ff"/>
   </g>
   <g id="patch_109">
    <path d="M 471.372252 241.326806 
L 478.396706 241.326806 
L 478.396706 234.105313 
L 471.372252 234.105313 
z
" clip-path="url(#p0bfe28c621)" style="fill: #0000ff"/>
   </g>
   <g id="patch_110">
    <path d="M 473.005846 241.326806 
L 483.950926 241.326806 
L 483.950926 234.105313 
L 473.005846 234.105313 
z
" clip-path="url(#p0bfe28c621)" style="fill: #0000ff"/>
   </g>
   <g id="patch_111">
    <path d="M 483.460848 241.326806 
L 499.306711 241.326806 
L 499.306711 234.105313 
L 483.460848 234.105313 
z
" clip-path="url(#p0bfe28c621)" style="fill: #0000ff"/>
   </g>
   <g id="patch_112">
    <path d="M 499.47007 237.986866 
L 499.633429 237.986866 
L 499.633429 237.445254 
L 499.47007 237.445254 
z
" clip-path="url(#p0bfe28c621)" style="fill: #0000ff"/>
   </g>
   <g id="patch_113">
    <path d="M 144 219.933134 
L 144.326719 219.933134 
L 144.326719 219.391522 
L 144 219.391522 
z
" clip-path="url(#p0bfe28c621)" style="fill: #0000ff"/>
   </g>
   <g id="patch_114">
    <path d="M 144.490078 223.273075 
L 157.88555 223.273075 
L 157.88555 216.051582 
L 144.490078 216.051582 
z
" clip-path="url(#p0bfe28c621)" style="fill: #0000ff"/>
   </g>
   <g id="patch_115">
    <path d="M 146.77711 223.273075 
L 157.72219 223.273075 
L 157.72219 216.051582 
L 146.77711 216.051582 
z
" clip-path="url(#p0bfe28c621)" style="fill: #0000ff"/>
   </g>
   <g id="patch_116">
    <path d="M 147.430548 223.273075 
L 157.72219 223.273075 
L 157.72219 216.051582 
L 147.430548 216.051582 
z
" clip-path="url(#p0bfe28c621)" style="fill: #0000ff"/>
   </g>
   <g id="patch_117">
    <path d="M 158.048909 219.933134 
L 159.682503 219.933134 
L 159.682503 219.391522 
L 158.048909 219.391522 
z
" clip-path="url(#p0bfe28c621)" style="fill: #0000ff"/>
   </g>
   <g id="patch_118">
    <path d="M 159.845862 223.273075 
L 220.125484 223.273075 
L 220.125484 216.051582 
L 159.845862 216.051582 
z
" clip-path="url(#p0bfe28c621)" style="fill: #0000ff"/>
   </g>
   <g id="patch_119">
    <path d="M 220.288843 219.933134 
L 238.095019 219.933134 
L 238.095019 219.391522 
L 220.288843 219.391522 
z
" clip-path="url(#p0bfe28c621)" style="fill: #0000ff"/>
   </g>
   <g id="patch_120">
    <path d="M 238.258378 223.273075 
L 266.682915 223.273075 
L 266.682915 216.051582 
L 238.258378 216.051582 
z
" clip-path="url(#p0bfe28c621)" style="fill: #0000ff"/>
   </g>
   <g id="patch_121">
    <path d="M 238.258378 223.273075 
L 272.563853 223.273075 
L 272.563853 216.051582 
L 238.258378 216.051582 
z
" clip-path="url(#p0bfe28c621)" style="fill: #0000ff"/>
   </g>
   <g id="patch_122">
    <path d="M 238.421737 223.273075 
L 266.356196 223.273075 
L 266.356196 216.051582 
L 238.421737 216.051582 
z
" clip-path="url(#p0bfe28c621)" style="fill: #0000ff"/>
   </g>
   <g id="patch_123">
    <path d="M 238.911816 223.273075 
L 268.479868 223.273075 
L 268.479868 216.051582 
L 238.911816 216.051582 
z
" clip-path="url(#p0bfe28c621)" style="fill: #0000ff"/>
   </g>
   <g id="patch_124">
    <path d="M 272.727213 219.933134 
L 282.038699 219.933134 
L 282.038699 219.391522 
L 272.727213 219.391522 
z
" clip-path="url(#p0bfe28c621)" style="fill: #0000ff"/>
   </g>
   <g id="patch_125">
    <path d="M 282.202058 223.273075 
L 380.381062 223.273075 
L 380.381062 216.051582 
L 282.202058 216.051582 
z
" clip-path="url(#p0bfe28c621)" style="fill: #0000ff"/>
   </g>
   <g id="patch_126">
    <path d="M 380.544422 219.933134 
L 413.543022 219.933134 
L 413.543022 219.391522 
L 380.544422 219.391522 
z
" clip-path="url(#p0bfe28c621)" style="fill: #0000ff"/>
   </g>
   <g id="patch_127">
    <path d="M 144 201.879403 
L 374.500124 201.879403 
L 374.500124 201.337791 
L 144 201.337791 
z
" clip-path="url(#p0bfe28c621)" style="fill: #0000ff"/>
   </g>
   <g id="patch_128">
    <path d="M 374.663483 205.219343 
L 403.251379 205.219343 
L 403.251379 197.997851 
L 374.663483 197.997851 
z
" clip-path="url(#p0bfe28c621)" style="fill: #0000ff"/>
   </g>
   <g id="patch_129">
    <path d="M 383.81161 205.219343 
L 399.004035 205.219343 
L 399.004035 197.997851 
L 383.81161 197.997851 
z
" clip-path="url(#p0bfe28c621)" style="fill: #0000ff"/>
   </g>
   <g id="patch_130">
    <path d="M 403.414739 201.879403 
L 413.379662 201.879403 
L 413.379662 201.337791 
L 403.414739 201.337791 
z
" clip-path="url(#p0bfe28c621)" style="fill: #0000ff"/>
   </g>
   <g id="patch_131">
    <path d="M 413.543022 205.219343 
L 516.622808 205.219343 
L 516.622808 197.997851 
L 413.543022 197.997851 
z
" clip-path="url(#p0bfe28c621)" style="fill: #0000ff"/>
   </g>
   <g id="patch_132">
    <path d="M 516.786167 201.879403 
L 632.771346 201.879403 
L 632.771346 201.337791 
L 516.786167 201.337791 
z
" clip-path="url(#p0bfe28c621)" style="fill: #0000ff"/>
   </g>
   <g id="patch_133">
    <path d="M 144 183.825672 
L 172.751256 183.825672 
L 172.751256 183.28406 
L 144 183.28406 
z
" clip-path="url(#p0bfe28c621)" style="fill: #0000ff"/>
   </g>
   <g id="patch_134">
    <path d="M 172.914615 187.165612 
L 182.062742 187.165612 
L 182.062742 179.944119 
L 172.914615 179.944119 
z
" clip-path="url(#p0bfe28c621)" style="fill: #0000ff"/>
   </g>
   <g id="patch_135">
    <path d="M 182.226101 183.825672 
L 187.780321 183.825672 
L 187.780321 183.28406 
L 182.226101 183.28406 
z
" clip-path="url(#p0bfe28c621)" style="fill: #0000ff"/>
   </g>
   <g id="patch_136">
    <path d="M 187.943681 187.165612 
L 258.841663 187.165612 
L 258.841663 179.944119 
L 187.943681 179.944119 
z
" clip-path="url(#p0bfe28c621)" style="fill: #0000ff"/>
   </g>
   <g id="patch_137">
    <path d="M 222.902594 187.165612 
L 228.293454 187.165612 
L 228.293454 179.944119 
L 222.902594 179.944119 
z
" clip-path="url(#p0bfe28c621)" style="fill: #0000ff"/>
   </g>
   <g id="patch_138">
    <path d="M 259.005023 183.825672 
L 375.153561 183.825672 
L 375.153561 183.28406 
L 259.005023 183.28406 
z
" clip-path="url(#p0bfe28c621)" style="fill: #0000ff"/>
   </g>
   <g id="patch_139">
    <path d="M 375.316921 187.165612 
L 402.761301 187.165612 
L 402.761301 179.944119 
L 375.316921 179.944119 
z
" clip-path="url(#p0bfe28c621)" style="fill: #0000ff"/>
   </g>
   <g id="patch_140">
    <path d="M 375.806999 187.165612 
L 405.86513 187.165612 
L 405.86513 179.944119 
L 375.806999 179.944119 
z
" clip-path="url(#p0bfe28c621)" style="fill: #0000ff"/>
   </g>
   <g id="patch_141">
    <path d="M 406.028489 183.825672 
L 498.163195 183.825672 
L 498.163195 183.28406 
L 406.028489 183.28406 
z
" clip-path="url(#p0bfe28c621)" style="fill: #0000ff"/>
   </g>
   <g id="patch_142">
    <path d="M 498.326554 187.165612 
L 626.727048 187.165612 
L 626.727048 179.944119 
L 498.326554 179.944119 
z
" clip-path="url(#p0bfe28c621)" style="fill: #0000ff"/>
   </g>
   <g id="patch_143">
    <path d="M 626.890408 183.825672 
L 661.522602 183.825672 
L 661.522602 183.28406 
L 626.890408 183.28406 
z
" clip-path="url(#p0bfe28c621)" style="fill: #0000ff"/>
   </g>
   <g id="patch_144">
    <path d="M 144 165.77194 
L 149.55422 165.77194 
L 149.55422 165.230328 
L 144 165.230328 
z
" clip-path="url(#p0bfe28c621)" style="fill: #0000ff"/>
   </g>
   <g id="patch_145">
    <path d="M 149.717579 169.111881 
L 672.794401 169.111881 
L 672.794401 161.890388 
L 149.717579 161.890388 
z
" clip-path="url(#p0bfe28c621)" style="fill: #0000ff"/>
   </g>
   <g id="patch_146">
    <path d="M 175.365006 169.111881 
L 185.493289 169.111881 
L 185.493289 161.890388 
L 175.365006 161.890388 
z
" clip-path="url(#p0bfe28c621)" style="fill: #0000ff"/>
   </g>
   <g id="patch_147">
    <path d="M 191.210869 169.111881 
L 264.722602 169.111881 
L 264.722602 161.890388 
L 191.210869 161.890388 
z
" clip-path="url(#p0bfe28c621)" style="fill: #0000ff"/>
   </g>
   <g id="patch_148">
    <path d="M 216.858296 169.111881 
L 232.704158 169.111881 
L 232.704158 161.890388 
L 216.858296 161.890388 
z
" clip-path="url(#p0bfe28c621)" style="fill: #0000ff"/>
   </g>
   <g id="patch_149">
    <path d="M 382.341375 169.111881 
L 412.399506 169.111881 
L 412.399506 161.890388 
L 382.341375 161.890388 
z
" clip-path="url(#p0bfe28c621)" style="fill: #0000ff"/>
   </g>
   <g id="patch_150">
    <path d="M 382.831453 169.111881 
L 411.909428 169.111881 
L 411.909428 161.890388 
L 382.831453 161.890388 
z
" clip-path="url(#p0bfe28c621)" style="fill: #0000ff"/>
   </g>
   <g id="patch_151">
    <path d="M 499.47007 169.111881 
L 655.151585 169.111881 
L 655.151585 161.890388 
L 499.47007 161.890388 
z
" clip-path="url(#p0bfe28c621)" style="fill: #0000ff"/>
   </g>
   <g id="patch_152">
    <path d="M 672.95776 165.77194 
L 675.571511 165.77194 
L 675.571511 165.230328 
L 672.95776 165.230328 
z
" clip-path="url(#p0bfe28c621)" style="fill: #0000ff"/>
   </g>
   <g id="patch_153">
    <path d="M 144 147.718209 
L 149.39086 147.718209 
L 149.39086 147.176597 
L 144 147.176597 
z
" clip-path="url(#p0bfe28c621)" style="fill: #0000ff"/>
   </g>
   <g id="patch_154">
    <path d="M 149.55422 151.058149 
L 666.913462 151.058149 
L 666.913462 143.836657 
L 149.55422 143.836657 
z
" clip-path="url(#p0bfe28c621)" style="fill: #0000ff"/>
   </g>
   <g id="patch_155">
    <path d="M 173.404693 151.058149 
L 183.532977 151.058149 
L 183.532977 143.836657 
L 173.404693 143.836657 
z
" clip-path="url(#p0bfe28c621)" style="fill: #0000ff"/>
   </g>
   <g id="patch_156">
    <path d="M 188.760478 151.058149 
L 262.272211 151.058149 
L 262.272211 143.836657 
L 188.760478 143.836657 
z
" clip-path="url(#p0bfe28c621)" style="fill: #0000ff"/>
   </g>
   <g id="patch_157">
    <path d="M 220.615562 151.058149 
L 230.743845 151.058149 
L 230.743845 143.836657 
L 220.615562 143.836657 
z
" clip-path="url(#p0bfe28c621)" style="fill: #0000ff"/>
   </g>
   <g id="patch_158">
    <path d="M 379.237546 151.058149 
L 409.295677 151.058149 
L 409.295677 143.836657 
L 379.237546 143.836657 
z
" clip-path="url(#p0bfe28c621)" style="fill: #0000ff"/>
   </g>
   <g id="patch_159">
    <path d="M 379.727625 151.058149 
L 408.805599 151.058149 
L 408.805599 143.836657 
L 379.727625 143.836657 
z
" clip-path="url(#p0bfe28c621)" style="fill: #0000ff"/>
   </g>
   <g id="patch_160">
    <path d="M 497.346398 151.058149 
L 649.107287 151.058149 
L 649.107287 143.836657 
L 497.346398 143.836657 
z
" clip-path="url(#p0bfe28c621)" style="fill: #0000ff"/>
   </g>
   <g id="patch_161">
    <path d="M 667.076822 147.718209 
L 669.527213 147.718209 
L 669.527213 147.176597 
L 667.076822 147.176597 
z
" clip-path="url(#p0bfe28c621)" style="fill: #0000ff"/>
   </g>
   <g id="patch_162">
    <path d="M 144 129.664478 
L 240.055331 129.664478 
L 240.055331 129.122866 
L 144 129.122866 
z
" clip-path="url(#p0bfe28c621)" style="fill: #0000ff"/>
   </g>
   <g id="patch_163">
    <path d="M 240.218691 133.004418 
L 253.124084 133.004418 
L 253.124084 125.782925 
L 240.218691 125.782925 
z
" clip-path="url(#p0bfe28c621)" style="fill: #0000ff"/>
   </g>
   <g id="patch_164">
    <path d="M 240.38205 133.004418 
L 253.124084 133.004418 
L 253.124084 125.782925 
L 240.38205 125.782925 
z
" clip-path="url(#p0bfe28c621)" style="fill: #0000ff"/>
   </g>
   <g id="patch_165">
    <path d="M 240.54541 133.004418 
L 253.124084 133.004418 
L 253.124084 125.782925 
L 240.54541 125.782925 
z
" clip-path="url(#p0bfe28c621)" style="fill: #0000ff"/>
   </g>
   <g id="patch_166">
    <path d="M 253.287443 129.664478 
L 292.493701 129.664478 
L 292.493701 129.122866 
L 253.287443 129.122866 
z
" clip-path="url(#p0bfe28c621)" style="fill: #0000ff"/>
   </g>
   <g id="patch_167">
    <path d="M 292.657061 133.004418 
L 314.71058 133.004418 
L 314.71058 125.782925 
L 292.657061 125.782925 
z
" clip-path="url(#p0bfe28c621)" style="fill: #0000ff"/>
   </g>
   <g id="patch_168">
    <path d="M 294.127295 133.004418 
L 318.794566 133.004418 
L 318.794566 125.782925 
L 294.127295 125.782925 
z
" clip-path="url(#p0bfe28c621)" style="fill: #0000ff"/>
   </g>
   <g id="patch_169">
    <path d="M 318.957925 129.664478 
L 353.753479 129.664478 
L 353.753479 129.122866 
L 318.957925 129.122866 
z
" clip-path="url(#p0bfe28c621)" style="fill: #0000ff"/>
   </g>
   <g id="patch_170">
    <path d="M 144 114.950687 
L 309.483079 114.950687 
L 309.483079 107.729194 
L 144 107.729194 
z
" clip-path="url(#p0bfe28c621)" style="fill: #0000ff"/>
   </g>
   <g id="patch_171">
    <path d="M 228.946892 114.950687 
L 257.861507 114.950687 
L 257.861507 107.729194 
L 228.946892 107.729194 
z
" clip-path="url(#p0bfe28c621)" style="fill: #0000ff"/>
   </g>
   <g id="patch_172">
    <path d="M 262.272211 114.950687 
L 308.339564 114.950687 
L 308.339564 107.729194 
L 262.272211 107.729194 
z
" clip-path="url(#p0bfe28c621)" style="fill: #0000ff"/>
   </g>
   <g id="patch_173">
    <path d="M 279.09823 114.950687 
L 306.379251 114.950687 
L 306.379251 107.729194 
L 279.09823 107.729194 
z
" clip-path="url(#p0bfe28c621)" style="fill: #0000ff"/>
   </g>
   <g id="patch_174">
    <path d="M 279.424949 114.950687 
L 303.7655 114.950687 
L 303.7655 107.729194 
L 279.424949 107.729194 
z
" clip-path="url(#p0bfe28c621)" style="fill: #0000ff"/>
   </g>
   <g id="patch_175">
    <path d="M 144 96.896955 
L 309.483079 96.896955 
L 309.483079 89.675463 
L 144 89.675463 
z
" clip-path="url(#p0bfe28c621)" style="fill: #0000ff"/>
   </g>
   <g id="patch_176">
    <path d="M 226.496501 96.896955 
L 259.168382 96.896955 
L 259.168382 89.675463 
L 226.496501 89.675463 
z
" clip-path="url(#p0bfe28c621)" style="fill: #0000ff"/>
   </g>
   <g id="patch_177">
    <path d="M 263.415727 96.896955 
L 306.869329 96.896955 
L 306.869329 89.675463 
L 263.415727 89.675463 
z
" clip-path="url(#p0bfe28c621)" style="fill: #0000ff"/>
   </g>
   <g id="patch_178">
    <path d="M 279.09823 96.896955 
L 306.379251 96.896955 
L 306.379251 89.675463 
L 279.09823 89.675463 
z
" clip-path="url(#p0bfe28c621)" style="fill: #0000ff"/>
   </g>
   <g id="patch_179">
    <path d="M 279.424949 96.896955 
L 303.7655 96.896955 
L 303.7655 89.675463 
L 279.424949 89.675463 
z
" clip-path="url(#p0bfe28c621)" style="fill: #0000ff"/>
   </g>
   <g id="patch_180">
    <path d="M 144 78.843224 
L 456.343186 78.843224 
L 456.343186 71.621731 
L 144 71.621731 
z
" clip-path="url(#p0bfe28c621)" style="fill: #0000ff"/>
   </g>
   <g id="patch_181">
    <path d="M 233.684315 78.843224 
L 289.389872 78.843224 
L 289.389872 71.621731 
L 233.684315 71.621731 
z
" clip-path="url(#p0bfe28c621)" style="fill: #0000ff"/>
   </g>
   <g id="patch_182">
    <path d="M 238.095019 78.843224 
L 313.240346 78.843224 
L 313.240346 71.621731 
L 238.095019 71.621731 
z
" clip-path="url(#p0bfe28c621)" style="fill: #0000ff"/>
   </g>
   <g id="patch_183">
    <path d="M 321.898394 78.843224 
L 352.936682 78.843224 
L 352.936682 71.621731 
L 321.898394 71.621731 
z
" clip-path="url(#p0bfe28c621)" style="fill: #0000ff"/>
   </g>
   <g id="patch_184">
    <path d="M 401.944504 78.843224 
L 449.80881 78.843224 
L 449.80881 71.621731 
L 401.944504 71.621731 
z
" clip-path="url(#p0bfe28c621)" style="fill: #0000ff"/>
   </g>
   <g id="patch_185">
    <path d="M 401.944504 78.843224 
L 447.19506 78.843224 
L 447.19506 71.621731 
L 401.944504 71.621731 
z
" clip-path="url(#p0bfe28c621)" style="fill: #0000ff"/>
   </g>
   <g id="patch_186">
    <path d="M 404.721614 78.843224 
L 445.071387 78.843224 
L 445.071387 71.621731 
L 404.721614 71.621731 
z
" clip-path="url(#p0bfe28c621)" style="fill: #0000ff"/>
   </g>
   <g id="patch_187">
    <path d="M 405.211692 78.843224 
L 446.704981 78.843224 
L 446.704981 71.621731 
L 405.211692 71.621731 
z
" clip-path="url(#p0bfe28c621)" style="fill: #0000ff"/>
   </g>
   <g id="patch_188">
    <path d="M 406.355208 78.843224 
L 449.80881 78.843224 
L 449.80881 71.621731 
L 406.355208 71.621731 
z
" clip-path="url(#p0bfe28c621)" style="fill: #0000ff"/>
   </g>
   <g id="patch_189">
    <path d="M 407.008646 78.843224 
L 445.724825 78.843224 
L 445.724825 71.621731 
L 407.008646 71.621731 
z
" clip-path="url(#p0bfe28c621)" style="fill: #0000ff"/>
   </g>
   <g id="patch_190">
    <path d="M 411.25599 78.843224 
L 444.25459 78.843224 
L 444.25459 71.621731 
L 411.25599 71.621731 
z
" clip-path="url(#p0bfe28c621)" style="fill: #0000ff"/>
   </g>
   <g id="patch_191">
    <path d="M 426.121696 78.843224 
L 443.601153 78.843224 
L 443.601153 71.621731 
L 426.121696 71.621731 
z
" clip-path="url(#p0bfe28c621)" style="fill: #0000ff"/>
   </g>
   <g id="patch_192">
    <path d="M 432.656072 78.843224 
L 440.824043 78.843224 
L 440.824043 71.621731 
L 432.656072 71.621731 
z
" clip-path="url(#p0bfe28c621)" style="fill: #0000ff"/>
   </g>
   <g id="patch_193">
    <path d="M 456.506546 75.503284 
L 531.978592 75.503284 
L 531.978592 74.961672 
L 456.506546 74.961672 
z
" clip-path="url(#p0bfe28c621)" style="fill: #0000ff"/>
   </g>
   <g id="patch_194">
    <path d="M 532.141951 78.843224 
L 546.027501 78.843224 
L 546.027501 71.621731 
L 532.141951 71.621731 
z
" clip-path="url(#p0bfe28c621)" style="fill: #0000ff"/>
   </g>
   <g id="patch_195">
    <path d="M 532.46867 78.843224 
L 546.027501 78.843224 
L 546.027501 71.621731 
L 532.46867 71.621731 
z
" clip-path="url(#p0bfe28c621)" style="fill: #0000ff"/>
   </g>
   <g id="patch_196">
    <path d="M 532.63203 78.843224 
L 546.027501 78.843224 
L 546.027501 71.621731 
L 532.63203 71.621731 
z
" clip-path="url(#p0bfe28c621)" style="fill: #0000ff"/>
   </g>
   <g id="patch_197">
    <path d="M 546.19086 75.503284 
L 632.607987 75.503284 
L 632.607987 74.961672 
L 546.19086 74.961672 
z
" clip-path="url(#p0bfe28c621)" style="fill: #0000ff"/>
   </g>
   <g id="patch_198">
    <path d="M 632.771346 78.843224 
L 662.17604 78.843224 
L 662.17604 71.621731 
L 632.771346 71.621731 
z
" clip-path="url(#p0bfe28c621)" style="fill: #0000ff"/>
   </g>
   <g id="patch_199">
    <path d="M 633.098065 78.843224 
L 650.250803 78.843224 
L 650.250803 71.621731 
L 633.098065 71.621731 
z
" clip-path="url(#p0bfe28c621)" style="fill: #0000ff"/>
   </g>
   <g id="patch_200">
    <path d="M 633.261424 78.843224 
L 651.394319 78.843224 
L 651.394319 71.621731 
L 633.261424 71.621731 
z
" clip-path="url(#p0bfe28c621)" style="fill: #0000ff"/>
   </g>
   <g id="patch_201">
    <path d="M 633.424784 78.843224 
L 652.374475 78.843224 
L 652.374475 71.621731 
L 633.424784 71.621731 
z
" clip-path="url(#p0bfe28c621)" style="fill: #0000ff"/>
   </g>
   <g id="patch_202">
    <path d="M 633.424784 78.843224 
L 650.90424 78.843224 
L 650.90424 71.621731 
L 633.424784 71.621731 
z
" clip-path="url(#p0bfe28c621)" style="fill: #0000ff"/>
   </g>
   <g id="patch_203">
    <path d="M 633.751503 78.843224 
L 650.414162 78.843224 
L 650.414162 71.621731 
L 633.751503 71.621731 
z
" clip-path="url(#p0bfe28c621)" style="fill: #0000ff"/>
   </g>
   <g id="patch_204">
    <path d="M 662.339399 75.503284 
L 687.496748 75.503284 
L 687.496748 74.961672 
L 662.339399 74.961672 
z
" clip-path="url(#p0bfe28c621)" style="fill: #0000ff"/>
   </g>
   <g id="patch_205">
    <path d="M 687.660107 78.843224 
L 720.168629 78.843224 
L 720.168629 71.621731 
L 687.660107 71.621731 
z
" clip-path="url(#p0bfe28c621)" style="fill: #0000ff"/>
   </g>
   <g id="patch_206">
    <path d="M 707.753314 78.843224 
L 719.515191 78.843224 
L 719.515191 71.621731 
L 707.753314 71.621731 
z
" clip-path="url(#p0bfe28c621)" style="fill: #0000ff"/>
   </g>
   <g id="patch_207">
    <path d="M 720.331988 75.503284 
L 730.623631 75.503284 
L 730.623631 74.961672 
L 720.331988 74.961672 
z
" clip-path="url(#p0bfe28c621)" style="fill: #0000ff"/>
   </g>
   <g id="patch_208">
    <path d="M 730.786991 78.843224 
L 743.365665 78.843224 
L 743.365665 71.621731 
L 730.786991 71.621731 
z
" clip-path="url(#p0bfe28c621)" style="fill: #0000ff"/>
   </g>
   <g id="patch_209">
    <path d="M 730.95035 78.843224 
L 743.202305 78.843224 
L 743.202305 71.621731 
L 730.95035 71.621731 
z
" clip-path="url(#p0bfe28c621)" style="fill: #0000ff"/>
   </g>
   <g id="patch_210">
    <path d="M 730.95035 78.843224 
L 743.365665 78.843224 
L 743.365665 71.621731 
L 730.95035 71.621731 
z
" clip-path="url(#p0bfe28c621)" style="fill: #0000ff"/>
   </g>
   <g id="patch_211">
    <path d="M 743.529024 75.503284 
L 779.958172 75.503284 
L 779.958172 74.961672 
L 743.529024 74.961672 
z
" clip-path="url(#p0bfe28c621)" style="fill: #0000ff"/>
   </g>
   <g id="patch_212">
    <path d="M 780.121531 78.843224 
L 806.585755 78.843224 
L 806.585755 71.621731 
L 780.121531 71.621731 
z
" clip-path="url(#p0bfe28c621)" style="fill: #0000ff"/>
   </g>
   <g id="patch_213">
    <path d="M 806.749115 75.503284 
L 814.100288 75.503284 
L 814.100288 74.961672 
L 806.749115 74.961672 
z
" clip-path="url(#p0bfe28c621)" style="fill: #0000ff"/>
   </g>
   <g id="patch_214">
    <path d="M 814.263648 78.843224 
L 845.628654 78.843224 
L 845.628654 71.621731 
L 814.263648 71.621731 
z
" clip-path="url(#p0bfe28c621)" style="fill: #0000ff"/>
   </g>
   <g id="patch_215">
    <path d="M 816.714039 78.843224 
L 842.198106 78.843224 
L 842.198106 71.621731 
L 816.714039 71.621731 
z
" clip-path="url(#p0bfe28c621)" style="fill: #0000ff"/>
   </g>
   <g id="patch_216">
    <path d="M 816.714039 78.843224 
L 842.034747 78.843224 
L 842.034747 71.621731 
L 816.714039 71.621731 
z
" clip-path="url(#p0bfe28c621)" style="fill: #0000ff"/>
   </g>
   <g id="patch_217">
    <path d="M 817.367476 78.843224 
L 842.198106 78.843224 
L 842.198106 71.621731 
L 817.367476 71.621731 
z
" clip-path="url(#p0bfe28c621)" style="fill: #0000ff"/>
   </g>
   <g id="patch_218">
    <path d="M 817.367476 78.843224 
L 846.935529 78.843224 
L 846.935529 71.621731 
L 817.367476 71.621731 
z
" clip-path="url(#p0bfe28c621)" style="fill: #0000ff"/>
   </g>
   <g id="patch_219">
    <path d="M 847.098888 75.503284 
L 931.392343 75.503284 
L 931.392343 74.961672 
L 847.098888 74.961672 
z
" clip-path="url(#p0bfe28c621)" style="fill: #0000ff"/>
   </g>
   <g id="patch_220">
    <path d="M 931.555702 78.843224 
L 979.910086 78.843224 
L 979.910086 71.621731 
L 931.555702 71.621731 
z
" clip-path="url(#p0bfe28c621)" style="fill: #0000ff"/>
   </g>
   <g id="patch_221">
    <path d="M 980.073446 75.503284 
L 994.285714 75.503284 
L 994.285714 74.961672 
L 980.073446 74.961672 
z
" clip-path="url(#p0bfe28c621)" style="fill: #0000ff"/>
   </g>
   <g id="patch_222">
    <path d="M 144 57.449552 
L 145.960313 57.449552 
L 145.960313 56.90794 
L 144 56.90794 
z
" clip-path="url(#p0bfe28c621)" style="fill: #0000ff"/>
   </g>
   <g id="patch_223">
    <path d="M 146.123672 60.789493 
L 457.650062 60.789493 
L 457.650062 53.568 
L 146.123672 53.568 
z
" clip-path="url(#p0bfe28c621)" style="fill: #0000ff"/>
   </g>
   <g id="patch_224">
    <path d="M 342.31832 60.789493 
L 360.941293 60.789493 
L 360.941293 53.568 
L 342.31832 53.568 
z
" clip-path="url(#p0bfe28c621)" style="fill: #0000ff"/>
   </g>
   <g id="patch_225">
    <path d="M 403.251379 60.789493 
L 445.234747 60.789493 
L 445.234747 53.568 
L 403.251379 53.568 
z
" clip-path="url(#p0bfe28c621)" style="fill: #0000ff"/>
   </g>
   <g id="patch_226">
    <path d="M 406.355208 60.789493 
L 450.788967 60.789493 
L 450.788967 53.568 
L 406.355208 53.568 
z
" clip-path="url(#p0bfe28c621)" style="fill: #0000ff"/>
   </g>
   <g id="patch_227">
    <path d="M 407.172005 60.789493 
L 445.888184 60.789493 
L 445.888184 53.568 
L 407.172005 53.568 
z
" clip-path="url(#p0bfe28c621)" style="fill: #0000ff"/>
   </g>
   <g id="patch_228">
    <path d="M 407.662083 60.789493 
L 449.97217 60.789493 
L 449.97217 53.568 
L 407.662083 53.568 
z
" clip-path="url(#p0bfe28c621)" style="fill: #0000ff"/>
   </g>
   <g id="patch_229">
    <path d="M 408.315521 60.789493 
L 447.0317 60.789493 
L 447.0317 53.568 
L 408.315521 53.568 
z
" clip-path="url(#p0bfe28c621)" style="fill: #0000ff"/>
   </g>
   <g id="patch_230">
    <path d="M 412.562865 60.789493 
L 445.561466 60.789493 
L 445.561466 53.568 
L 412.562865 53.568 
z
" clip-path="url(#p0bfe28c621)" style="fill: #0000ff"/>
   </g>
   <g id="patch_231">
    <path d="M 434.943104 60.789493 
L 447.0317 60.789493 
L 447.0317 53.568 
L 434.943104 53.568 
z
" clip-path="url(#p0bfe28c621)" style="fill: #0000ff"/>
   </g>
   <g id="patch_232">
    <path d="M 457.813421 57.449552 
L 468.105064 57.449552 
L 468.105064 56.90794 
L 457.813421 56.90794 
z
" clip-path="url(#p0bfe28c621)" style="fill: #0000ff"/>
   </g>
   <g id="patch_233">
    <path d="M 468.268423 60.789493 
L 531.161795 60.789493 
L 531.161795 53.568 
L 468.268423 53.568 
z
" clip-path="url(#p0bfe28c621)" style="fill: #0000ff"/>
   </g>
   <g id="patch_234">
    <path d="M 531.325154 57.449552 
L 564.160395 57.449552 
L 564.160395 56.90794 
L 531.325154 56.90794 
z
" clip-path="url(#p0bfe28c621)" style="fill: #0000ff"/>
   </g>
   <g id="patch_235">
    <path d="M 564.323755 60.789493 
L 578.209304 60.789493 
L 578.209304 53.568 
L 564.323755 53.568 
z
" clip-path="url(#p0bfe28c621)" style="fill: #0000ff"/>
   </g>
   <g id="patch_236">
    <path d="M 564.650473 60.789493 
L 578.209304 60.789493 
L 578.209304 53.568 
L 564.650473 53.568 
z
" clip-path="url(#p0bfe28c621)" style="fill: #0000ff"/>
   </g>
   <g id="patch_237">
    <path d="M 564.813833 60.789493 
L 578.045945 60.789493 
L 578.045945 53.568 
L 564.813833 53.568 
z
" clip-path="url(#p0bfe28c621)" style="fill: #0000ff"/>
   </g>
   <g id="patch_238">
    <path d="M 578.372664 57.449552 
L 655.641663 57.449552 
L 655.641663 56.90794 
L 578.372664 56.90794 
z
" clip-path="url(#p0bfe28c621)" style="fill: #0000ff"/>
   </g>
   <g id="patch_239">
    <path d="M 655.805023 60.789493 
L 682.922684 60.789493 
L 682.922684 53.568 
L 655.805023 53.568 
z
" clip-path="url(#p0bfe28c621)" style="fill: #0000ff"/>
   </g>
   <g id="patch_240">
    <path d="M 660.869164 60.789493 
L 686.353232 60.789493 
L 686.353232 53.568 
L 660.869164 53.568 
z
" clip-path="url(#p0bfe28c621)" style="fill: #0000ff"/>
   </g>
   <g id="patch_241">
    <path d="M 662.666118 60.789493 
L 683.086044 60.789493 
L 683.086044 53.568 
L 662.666118 53.568 
z
" clip-path="url(#p0bfe28c621)" style="fill: #0000ff"/>
   </g>
   <g id="patch_242">
    <path d="M 665.116509 60.789493 
L 696.481515 60.789493 
L 696.481515 53.568 
L 665.116509 53.568 
z
" clip-path="url(#p0bfe28c621)" style="fill: #0000ff"/>
   </g>
   <g id="patch_243">
    <path d="M 665.116509 60.789493 
L 683.576122 60.789493 
L 683.576122 53.568 
L 665.116509 53.568 
z
" clip-path="url(#p0bfe28c621)" style="fill: #0000ff"/>
   </g>
   <g id="patch_244">
    <path d="M 665.116509 60.789493 
L 694.357843 60.789493 
L 694.357843 53.568 
L 665.116509 53.568 
z
" clip-path="url(#p0bfe28c621)" style="fill: #0000ff"/>
   </g>
   <g id="patch_245">
    <path d="M 665.279868 60.789493 
L 682.432606 60.789493 
L 682.432606 53.568 
L 665.279868 53.568 
z
" clip-path="url(#p0bfe28c621)" style="fill: #0000ff"/>
   </g>
   <g id="patch_246">
    <path d="M 665.606587 60.789493 
L 684.556278 60.789493 
L 684.556278 53.568 
L 665.606587 53.568 
z
" clip-path="url(#p0bfe28c621)" style="fill: #0000ff"/>
   </g>
   <g id="patch_247">
    <path d="M 665.606587 60.789493 
L 683.086044 60.789493 
L 683.086044 53.568 
L 665.606587 53.568 
z
" clip-path="url(#p0bfe28c621)" style="fill: #0000ff"/>
   </g>
   <g id="patch_248">
    <path d="M 665.933306 60.789493 
L 682.595965 60.789493 
L 682.595965 53.568 
L 665.933306 53.568 
z
" clip-path="url(#p0bfe28c621)" style="fill: #0000ff"/>
   </g>
   <g id="patch_249">
    <path d="M 696.644874 57.449552 
L 708.080033 57.449552 
L 708.080033 56.90794 
L 696.644874 56.90794 
z
" clip-path="url(#p0bfe28c621)" style="fill: #0000ff"/>
   </g>
   <g id="patch_250">
    <path d="M 708.243392 60.789493 
L 739.608399 60.789493 
L 739.608399 53.568 
L 708.243392 53.568 
z
" clip-path="url(#p0bfe28c621)" style="fill: #0000ff"/>
   </g>
   <g id="patch_251">
    <path d="M 710.693783 60.789493 
L 736.177851 60.789493 
L 736.177851 53.568 
L 710.693783 53.568 
z
" clip-path="url(#p0bfe28c621)" style="fill: #0000ff"/>
   </g>
   <g id="patch_252">
    <path d="M 710.693783 60.789493 
L 736.014492 60.789493 
L 736.014492 53.568 
L 710.693783 53.568 
z
" clip-path="url(#p0bfe28c621)" style="fill: #0000ff"/>
   </g>
   <g id="patch_253">
    <path d="M 711.347221 60.789493 
L 736.177851 60.789493 
L 736.177851 53.568 
L 711.347221 53.568 
z
" clip-path="url(#p0bfe28c621)" style="fill: #0000ff"/>
   </g>
   <g id="patch_254">
    <path d="M 711.347221 60.789493 
L 740.915274 60.789493 
L 740.915274 53.568 
L 711.347221 53.568 
z
" clip-path="url(#p0bfe28c621)" style="fill: #0000ff"/>
   </g>
   <g id="patch_255">
    <path d="M 741.078633 57.449552 
L 824.882009 57.449552 
L 824.882009 56.90794 
L 741.078633 56.90794 
z
" clip-path="url(#p0bfe28c621)" style="fill: #0000ff"/>
   </g>
   <g id="patch_256">
    <path d="M 825.045368 60.789493 
L 877.647098 60.789493 
L 877.647098 53.568 
L 825.045368 53.568 
z
" clip-path="url(#p0bfe28c621)" style="fill: #0000ff"/>
   </g>
   <g id="patch_257">
    <path d="M 877.810457 57.449552 
L 888.428818 57.449552 
L 888.428818 56.90794 
L 877.810457 56.90794 
z
" clip-path="url(#p0bfe28c621)" style="fill: #0000ff"/>
   </g>
   <g id="matplotlib.axis_1">
    <g id="xtick_1">
     <g id="line2d_1">
      <defs>
       <path id="m7155e95c99" d="M 0 0 
L 0 3.5 
" style="stroke: #000000; stroke-width: 0.8"/>
      </defs>
      <g>
       <use xlink:href="#m7155e95c99" x="307.196048" y="307.584" style="stroke: #000000; stroke-width: 0.8"/>
      </g>
     </g>
     <g id="text_1">
      <!-- 1000 -->
      <g transform="translate(294.471048 322.182437) scale(0.1 -0.1)">
       <defs>
        <path id="DejaVuSans-31" d="M 794 531 
L 1825 531 
L 1825 4091 
L 703 3866 
L 703 4441 
L 1819 4666 
L 2450 4666 
L 2450 531 
L 3481 531 
L 3481 0 
L 794 0 
L 794 531 
z
" transform="scale(0.015625)"/>
        <path id="DejaVuSans-30" d="M 2034 4250 
Q 1547 4250 1301 3770 
Q 1056 3291 1056 2328 
Q 1056 1369 1301 889 
Q 1547 409 2034 409 
Q 2525 409 2770 889 
Q 3016 1369 3016 2328 
Q 3016 3291 2770 3770 
Q 2525 4250 2034 4250 
z
M 2034 4750 
Q 2819 4750 3233 4129 
Q 3647 3509 3647 2328 
Q 3647 1150 3233 529 
Q 2819 -91 2034 -91 
Q 1250 -91 836 529 
Q 422 1150 422 2328 
Q 422 3509 836 4129 
Q 1250 4750 2034 4750 
z
" transform="scale(0.015625)"/>
       </defs>
       <use xlink:href="#DejaVuSans-31"/>
       <use xlink:href="#DejaVuSans-30" x="63.623047"/>
       <use xlink:href="#DejaVuSans-30" x="127.246094"/>
       <use xlink:href="#DejaVuSans-30" x="190.869141"/>
      </g>
     </g>
    </g>
    <g id="xtick_2">
     <g id="line2d_2">
      <g>
       <use xlink:href="#m7155e95c99" x="470.555455" y="307.584" style="stroke: #000000; stroke-width: 0.8"/>
      </g>
     </g>
     <g id="text_2">
      <!-- 2000 -->
      <g transform="translate(457.830455 322.182437) scale(0.1 -0.1)">
       <defs>
        <path id="DejaVuSans-32" d="M 1228 531 
L 3431 531 
L 3431 0 
L 469 0 
L 469 531 
Q 828 903 1448 1529 
Q 2069 2156 2228 2338 
Q 2531 2678 2651 2914 
Q 2772 3150 2772 3378 
Q 2772 3750 2511 3984 
Q 2250 4219 1831 4219 
Q 1534 4219 1204 4116 
Q 875 4013 500 3803 
L 500 4441 
Q 881 4594 1212 4672 
Q 1544 4750 1819 4750 
Q 2544 4750 2975 4387 
Q 3406 4025 3406 3419 
Q 3406 3131 3298 2873 
Q 3191 2616 2906 2266 
Q 2828 2175 2409 1742 
Q 1991 1309 1228 531 
z
" transform="scale(0.015625)"/>
       </defs>
       <use xlink:href="#DejaVuSans-32"/>
       <use xlink:href="#DejaVuSans-30" x="63.623047"/>
       <use xlink:href="#DejaVuSans-30" x="127.246094"/>
       <use xlink:href="#DejaVuSans-30" x="190.869141"/>
      </g>
     </g>
    </g>
    <g id="xtick_3">
     <g id="line2d_3">
      <g>
       <use xlink:href="#m7155e95c99" x="633.914862" y="307.584" style="stroke: #000000; stroke-width: 0.8"/>
      </g>
     </g>
     <g id="text_3">
      <!-- 3000 -->
      <g transform="translate(621.189862 322.182437) scale(0.1 -0.1)">
       <defs>
        <path id="DejaVuSans-33" d="M 2597 2516 
Q 3050 2419 3304 2112 
Q 3559 1806 3559 1356 
Q 3559 666 3084 287 
Q 2609 -91 1734 -91 
Q 1441 -91 1130 -33 
Q 819 25 488 141 
L 488 750 
Q 750 597 1062 519 
Q 1375 441 1716 441 
Q 2309 441 2620 675 
Q 2931 909 2931 1356 
Q 2931 1769 2642 2001 
Q 2353 2234 1838 2234 
L 1294 2234 
L 1294 2753 
L 1863 2753 
Q 2328 2753 2575 2939 
Q 2822 3125 2822 3475 
Q 2822 3834 2567 4026 
Q 2313 4219 1838 4219 
Q 1578 4219 1281 4162 
Q 984 4106 628 3988 
L 628 4550 
Q 988 4650 1302 4700 
Q 1616 4750 1894 4750 
Q 2613 4750 3031 4423 
Q 3450 4097 3450 3541 
Q 3450 3153 3228 2886 
Q 3006 2619 2597 2516 
z
" transform="scale(0.015625)"/>
       </defs>
       <use xlink:href="#DejaVuSans-33"/>
       <use xlink:href="#DejaVuSans-30" x="63.623047"/>
       <use xlink:href="#DejaVuSans-30" x="127.246094"/>
       <use xlink:href="#DejaVuSans-30" x="190.869141"/>
      </g>
     </g>
    </g>
    <g id="xtick_4">
     <g id="line2d_4">
      <g>
       <use xlink:href="#m7155e95c99" x="797.274269" y="307.584" style="stroke: #000000; stroke-width: 0.8"/>
      </g>
     </g>
     <g id="text_4">
      <!-- 4000 -->
      <g transform="translate(784.549269 322.182437) scale(0.1 -0.1)">
       <defs>
        <path id="DejaVuSans-34" d="M 2419 4116 
L 825 1625 
L 2419 1625 
L 2419 4116 
z
M 2253 4666 
L 3047 4666 
L 3047 1625 
L 3713 1625 
L 3713 1100 
L 3047 1100 
L 3047 0 
L 2419 0 
L 2419 1100 
L 313 1100 
L 313 1709 
L 2253 4666 
z
" transform="scale(0.015625)"/>
       </defs>
       <use xlink:href="#DejaVuSans-34"/>
       <use xlink:href="#DejaVuSans-30" x="63.623047"/>
       <use xlink:href="#DejaVuSans-30" x="127.246094"/>
       <use xlink:href="#DejaVuSans-30" x="190.869141"/>
      </g>
     </g>
    </g>
    <g id="xtick_5">
     <g id="line2d_5">
      <g>
       <use xlink:href="#m7155e95c99" x="960.633676" y="307.584" style="stroke: #000000; stroke-width: 0.8"/>
      </g>
     </g>
     <g id="text_5">
      <!-- 5000 -->
      <g transform="translate(947.908676 322.182437) scale(0.1 -0.1)">
       <defs>
        <path id="DejaVuSans-35" d="M 691 4666 
L 3169 4666 
L 3169 4134 
L 1269 4134 
L 1269 2991 
Q 1406 3038 1543 3061 
Q 1681 3084 1819 3084 
Q 2600 3084 3056 2656 
Q 3513 2228 3513 1497 
Q 3513 744 3044 326 
Q 2575 -91 1722 -91 
Q 1428 -91 1123 -41 
Q 819 9 494 109 
L 494 744 
Q 775 591 1075 516 
Q 1375 441 1709 441 
Q 2250 441 2565 725 
Q 2881 1009 2881 1497 
Q 2881 1984 2565 2268 
Q 2250 2553 1709 2553 
Q 1456 2553 1204 2497 
Q 953 2441 691 2322 
L 691 4666 
z
" transform="scale(0.015625)"/>
       </defs>
       <use xlink:href="#DejaVuSans-35"/>
       <use xlink:href="#DejaVuSans-30" x="63.623047"/>
       <use xlink:href="#DejaVuSans-30" x="127.246094"/>
       <use xlink:href="#DejaVuSans-30" x="190.869141"/>
      </g>
     </g>
    </g>
    <g id="text_6">
     <!-- Residual -->
     <g transform="translate(569.284375 335.860562) scale(0.1 -0.1)">
      <defs>
       <path id="DejaVuSans-52" d="M 2841 2188 
Q 3044 2119 3236 1894 
Q 3428 1669 3622 1275 
L 4263 0 
L 3584 0 
L 2988 1197 
Q 2756 1666 2539 1819 
Q 2322 1972 1947 1972 
L 1259 1972 
L 1259 0 
L 628 0 
L 628 4666 
L 2053 4666 
Q 2853 4666 3247 4331 
Q 3641 3997 3641 3322 
Q 3641 2881 3436 2590 
Q 3231 2300 2841 2188 
z
M 1259 4147 
L 1259 2491 
L 2053 2491 
Q 2509 2491 2742 2702 
Q 2975 2913 2975 3322 
Q 2975 3731 2742 3939 
Q 2509 4147 2053 4147 
L 1259 4147 
z
" transform="scale(0.015625)"/>
       <path id="DejaVuSans-65" d="M 3597 1894 
L 3597 1613 
L 953 1613 
Q 991 1019 1311 708 
Q 1631 397 2203 397 
Q 2534 397 2845 478 
Q 3156 559 3463 722 
L 3463 178 
Q 3153 47 2828 -22 
Q 2503 -91 2169 -91 
Q 1331 -91 842 396 
Q 353 884 353 1716 
Q 353 2575 817 3079 
Q 1281 3584 2069 3584 
Q 2775 3584 3186 3129 
Q 3597 2675 3597 1894 
z
M 3022 2063 
Q 3016 2534 2758 2815 
Q 2500 3097 2075 3097 
Q 1594 3097 1305 2825 
Q 1016 2553 972 2059 
L 3022 2063 
z
" transform="scale(0.015625)"/>
       <path id="DejaVuSans-73" d="M 2834 3397 
L 2834 2853 
Q 2591 2978 2328 3040 
Q 2066 3103 1784 3103 
Q 1356 3103 1142 2972 
Q 928 2841 928 2578 
Q 928 2378 1081 2264 
Q 1234 2150 1697 2047 
L 1894 2003 
Q 2506 1872 2764 1633 
Q 3022 1394 3022 966 
Q 3022 478 2636 193 
Q 2250 -91 1575 -91 
Q 1294 -91 989 -36 
Q 684 19 347 128 
L 347 722 
Q 666 556 975 473 
Q 1284 391 1588 391 
Q 1994 391 2212 530 
Q 2431 669 2431 922 
Q 2431 1156 2273 1281 
Q 2116 1406 1581 1522 
L 1381 1569 
Q 847 1681 609 1914 
Q 372 2147 372 2553 
Q 372 3047 722 3315 
Q 1072 3584 1716 3584 
Q 2034 3584 2315 3537 
Q 2597 3491 2834 3397 
z
" transform="scale(0.015625)"/>
       <path id="DejaVuSans-69" d="M 603 3500 
L 1178 3500 
L 1178 0 
L 603 0 
L 603 3500 
z
M 603 4863 
L 1178 4863 
L 1178 4134 
L 603 4134 
L 603 4863 
z
" transform="scale(0.015625)"/>
       <path id="DejaVuSans-64" d="M 2906 2969 
L 2906 4863 
L 3481 4863 
L 3481 0 
L 2906 0 
L 2906 525 
Q 2725 213 2448 61 
Q 2172 -91 1784 -91 
Q 1150 -91 751 415 
Q 353 922 353 1747 
Q 353 2572 751 3078 
Q 1150 3584 1784 3584 
Q 2172 3584 2448 3432 
Q 2725 3281 2906 2969 
z
M 947 1747 
Q 947 1113 1208 752 
Q 1469 391 1925 391 
Q 2381 391 2643 752 
Q 2906 1113 2906 1747 
Q 2906 2381 2643 2742 
Q 2381 3103 1925 3103 
Q 1469 3103 1208 2742 
Q 947 2381 947 1747 
z
" transform="scale(0.015625)"/>
       <path id="DejaVuSans-75" d="M 544 1381 
L 544 3500 
L 1119 3500 
L 1119 1403 
Q 1119 906 1312 657 
Q 1506 409 1894 409 
Q 2359 409 2629 706 
Q 2900 1003 2900 1516 
L 2900 3500 
L 3475 3500 
L 3475 0 
L 2900 0 
L 2900 538 
Q 2691 219 2414 64 
Q 2138 -91 1772 -91 
Q 1169 -91 856 284 
Q 544 659 544 1381 
z
M 1991 3584 
L 1991 3584 
z
" transform="scale(0.015625)"/>
       <path id="DejaVuSans-61" d="M 2194 1759 
Q 1497 1759 1228 1600 
Q 959 1441 959 1056 
Q 959 750 1161 570 
Q 1363 391 1709 391 
Q 2188 391 2477 730 
Q 2766 1069 2766 1631 
L 2766 1759 
L 2194 1759 
z
M 3341 1997 
L 3341 0 
L 2766 0 
L 2766 531 
Q 2569 213 2275 61 
Q 1981 -91 1556 -91 
Q 1019 -91 701 211 
Q 384 513 384 1019 
Q 384 1609 779 1909 
Q 1175 2209 1959 2209 
L 2766 2209 
L 2766 2266 
Q 2766 2663 2505 2880 
Q 2244 3097 1772 3097 
Q 1472 3097 1187 3025 
Q 903 2953 641 2809 
L 641 3341 
Q 956 3463 1253 3523 
Q 1550 3584 1831 3584 
Q 2591 3584 2966 3190 
Q 3341 2797 3341 1997 
z
" transform="scale(0.015625)"/>
       <path id="DejaVuSans-6c" d="M 603 4863 
L 1178 4863 
L 1178 0 
L 603 0 
L 603 4863 
z
" transform="scale(0.015625)"/>
      </defs>
      <use xlink:href="#DejaVuSans-52"/>
      <use xlink:href="#DejaVuSans-65" x="64.982422"/>
      <use xlink:href="#DejaVuSans-73" x="126.505859"/>
      <use xlink:href="#DejaVuSans-69" x="178.605469"/>
      <use xlink:href="#DejaVuSans-64" x="206.388672"/>
      <use xlink:href="#DejaVuSans-75" x="269.865234"/>
      <use xlink:href="#DejaVuSans-61" x="333.244141"/>
      <use xlink:href="#DejaVuSans-6c" x="394.523438"/>
     </g>
    </g>
   </g>
   <g id="matplotlib.axis_2">
    <g id="ytick_1">
     <g id="line2d_6">
      <defs>
       <path id="me4a7139adb" d="M 0 0 
L -3.5 0 
" style="stroke: #000000; stroke-width: 0.8"/>
      </defs>
      <g>
       <use xlink:href="#me4a7139adb" x="144" y="291.877254" style="stroke: #000000; stroke-width: 0.8"/>
      </g>
     </g>
     <g id="text_7">
      <!-- 1.C.57.1.1 -->
      <g transform="translate(85.492188 295.676472) scale(0.1 -0.1)">
       <defs>
        <path id="DejaVuSans-2e" d="M 684 794 
L 1344 794 
L 1344 0 
L 684 0 
L 684 794 
z
" transform="scale(0.015625)"/>
        <path id="DejaVuSans-43" d="M 4122 4306 
L 4122 3641 
Q 3803 3938 3442 4084 
Q 3081 4231 2675 4231 
Q 1875 4231 1450 3742 
Q 1025 3253 1025 2328 
Q 1025 1406 1450 917 
Q 1875 428 2675 428 
Q 3081 428 3442 575 
Q 3803 722 4122 1019 
L 4122 359 
Q 3791 134 3420 21 
Q 3050 -91 2638 -91 
Q 1578 -91 968 557 
Q 359 1206 359 2328 
Q 359 3453 968 4101 
Q 1578 4750 2638 4750 
Q 3056 4750 3426 4639 
Q 3797 4528 4122 4306 
z
" transform="scale(0.015625)"/>
        <path id="DejaVuSans-37" d="M 525 4666 
L 3525 4666 
L 3525 4397 
L 1831 0 
L 1172 0 
L 2766 4134 
L 525 4134 
L 525 4666 
z
" transform="scale(0.015625)"/>
       </defs>
       <use xlink:href="#DejaVuSans-31"/>
       <use xlink:href="#DejaVuSans-2e" x="63.623047"/>
       <use xlink:href="#DejaVuSans-43" x="95.410156"/>
       <use xlink:href="#DejaVuSans-2e" x="165.234375"/>
       <use xlink:href="#DejaVuSans-35" x="197.021484"/>
       <use xlink:href="#DejaVuSans-37" x="260.644531"/>
       <use xlink:href="#DejaVuSans-2e" x="324.267578"/>
       <use xlink:href="#DejaVuSans-31" x="356.054688"/>
       <use xlink:href="#DejaVuSans-2e" x="419.677734"/>
       <use xlink:href="#DejaVuSans-31" x="451.464844"/>
      </g>
     </g>
    </g>
    <g id="ytick_2">
     <g id="line2d_7">
      <g>
       <use xlink:href="#me4a7139adb" x="144" y="273.823522" style="stroke: #000000; stroke-width: 0.8"/>
      </g>
     </g>
     <g id="text_8">
      <!-- 1.C.57.1.2 -->
      <g transform="translate(85.492188 277.622741) scale(0.1 -0.1)">
       <use xlink:href="#DejaVuSans-31"/>
       <use xlink:href="#DejaVuSans-2e" x="63.623047"/>
       <use xlink:href="#DejaVuSans-43" x="95.410156"/>
       <use xlink:href="#DejaVuSans-2e" x="165.234375"/>
       <use xlink:href="#DejaVuSans-35" x="197.021484"/>
       <use xlink:href="#DejaVuSans-37" x="260.644531"/>
       <use xlink:href="#DejaVuSans-2e" x="324.267578"/>
       <use xlink:href="#DejaVuSans-31" x="356.054688"/>
       <use xlink:href="#DejaVuSans-2e" x="419.677734"/>
       <use xlink:href="#DejaVuSans-32" x="451.464844"/>
      </g>
     </g>
    </g>
    <g id="ytick_3">
     <g id="line2d_8">
      <g>
       <use xlink:href="#me4a7139adb" x="144" y="255.769791" style="stroke: #000000; stroke-width: 0.8"/>
      </g>
     </g>
     <g id="text_9">
      <!-- 1.C.57.1.3 -->
      <g transform="translate(85.492188 259.56901) scale(0.1 -0.1)">
       <use xlink:href="#DejaVuSans-31"/>
       <use xlink:href="#DejaVuSans-2e" x="63.623047"/>
       <use xlink:href="#DejaVuSans-43" x="95.410156"/>
       <use xlink:href="#DejaVuSans-2e" x="165.234375"/>
       <use xlink:href="#DejaVuSans-35" x="197.021484"/>
       <use xlink:href="#DejaVuSans-37" x="260.644531"/>
       <use xlink:href="#DejaVuSans-2e" x="324.267578"/>
       <use xlink:href="#DejaVuSans-31" x="356.054688"/>
       <use xlink:href="#DejaVuSans-2e" x="419.677734"/>
       <use xlink:href="#DejaVuSans-33" x="451.464844"/>
      </g>
     </g>
    </g>
    <g id="ytick_4">
     <g id="line2d_9">
      <g>
       <use xlink:href="#me4a7139adb" x="144" y="237.71606" style="stroke: #000000; stroke-width: 0.8"/>
      </g>
     </g>
     <g id="text_10">
      <!-- 1.C.57.1.4 -->
      <g transform="translate(85.492188 241.515278) scale(0.1 -0.1)">
       <use xlink:href="#DejaVuSans-31"/>
       <use xlink:href="#DejaVuSans-2e" x="63.623047"/>
       <use xlink:href="#DejaVuSans-43" x="95.410156"/>
       <use xlink:href="#DejaVuSans-2e" x="165.234375"/>
       <use xlink:href="#DejaVuSans-35" x="197.021484"/>
       <use xlink:href="#DejaVuSans-37" x="260.644531"/>
       <use xlink:href="#DejaVuSans-2e" x="324.267578"/>
       <use xlink:href="#DejaVuSans-31" x="356.054688"/>
       <use xlink:href="#DejaVuSans-2e" x="419.677734"/>
       <use xlink:href="#DejaVuSans-34" x="451.464844"/>
      </g>
     </g>
    </g>
    <g id="ytick_5">
     <g id="line2d_10">
      <g>
       <use xlink:href="#me4a7139adb" x="144" y="219.662328" style="stroke: #000000; stroke-width: 0.8"/>
      </g>
     </g>
     <g id="text_11">
      <!-- 1.C.57.1.5 -->
      <g transform="translate(85.492188 223.461547) scale(0.1 -0.1)">
       <use xlink:href="#DejaVuSans-31"/>
       <use xlink:href="#DejaVuSans-2e" x="63.623047"/>
       <use xlink:href="#DejaVuSans-43" x="95.410156"/>
       <use xlink:href="#DejaVuSans-2e" x="165.234375"/>
       <use xlink:href="#DejaVuSans-35" x="197.021484"/>
       <use xlink:href="#DejaVuSans-37" x="260.644531"/>
       <use xlink:href="#DejaVuSans-2e" x="324.267578"/>
       <use xlink:href="#DejaVuSans-31" x="356.054688"/>
       <use xlink:href="#DejaVuSans-2e" x="419.677734"/>
       <use xlink:href="#DejaVuSans-35" x="451.464844"/>
      </g>
     </g>
    </g>
    <g id="ytick_6">
     <g id="line2d_11">
      <g>
       <use xlink:href="#me4a7139adb" x="144" y="201.608597" style="stroke: #000000; stroke-width: 0.8"/>
      </g>
     </g>
     <g id="text_12">
      <!-- 1.C.57.1.6 -->
      <g transform="translate(85.492188 205.407816) scale(0.1 -0.1)">
       <defs>
        <path id="DejaVuSans-36" d="M 2113 2584 
Q 1688 2584 1439 2293 
Q 1191 2003 1191 1497 
Q 1191 994 1439 701 
Q 1688 409 2113 409 
Q 2538 409 2786 701 
Q 3034 994 3034 1497 
Q 3034 2003 2786 2293 
Q 2538 2584 2113 2584 
z
M 3366 4563 
L 3366 3988 
Q 3128 4100 2886 4159 
Q 2644 4219 2406 4219 
Q 1781 4219 1451 3797 
Q 1122 3375 1075 2522 
Q 1259 2794 1537 2939 
Q 1816 3084 2150 3084 
Q 2853 3084 3261 2657 
Q 3669 2231 3669 1497 
Q 3669 778 3244 343 
Q 2819 -91 2113 -91 
Q 1303 -91 875 529 
Q 447 1150 447 2328 
Q 447 3434 972 4092 
Q 1497 4750 2381 4750 
Q 2619 4750 2861 4703 
Q 3103 4656 3366 4563 
z
" transform="scale(0.015625)"/>
       </defs>
       <use xlink:href="#DejaVuSans-31"/>
       <use xlink:href="#DejaVuSans-2e" x="63.623047"/>
       <use xlink:href="#DejaVuSans-43" x="95.410156"/>
       <use xlink:href="#DejaVuSans-2e" x="165.234375"/>
       <use xlink:href="#DejaVuSans-35" x="197.021484"/>
       <use xlink:href="#DejaVuSans-37" x="260.644531"/>
       <use xlink:href="#DejaVuSans-2e" x="324.267578"/>
       <use xlink:href="#DejaVuSans-31" x="356.054688"/>
       <use xlink:href="#DejaVuSans-2e" x="419.677734"/>
       <use xlink:href="#DejaVuSans-36" x="451.464844"/>
      </g>
     </g>
    </g>
    <g id="ytick_7">
     <g id="line2d_12">
      <g>
       <use xlink:href="#me4a7139adb" x="144" y="183.554866" style="stroke: #000000; stroke-width: 0.8"/>
      </g>
     </g>
     <g id="text_13">
      <!-- 1.C.57.2.1 -->
      <g transform="translate(85.492188 187.354084) scale(0.1 -0.1)">
       <use xlink:href="#DejaVuSans-31"/>
       <use xlink:href="#DejaVuSans-2e" x="63.623047"/>
       <use xlink:href="#DejaVuSans-43" x="95.410156"/>
       <use xlink:href="#DejaVuSans-2e" x="165.234375"/>
       <use xlink:href="#DejaVuSans-35" x="197.021484"/>
       <use xlink:href="#DejaVuSans-37" x="260.644531"/>
       <use xlink:href="#DejaVuSans-2e" x="324.267578"/>
       <use xlink:href="#DejaVuSans-32" x="356.054688"/>
       <use xlink:href="#DejaVuSans-2e" x="419.677734"/>
       <use xlink:href="#DejaVuSans-31" x="451.464844"/>
      </g>
     </g>
    </g>
    <g id="ytick_8">
     <g id="line2d_13">
      <g>
       <use xlink:href="#me4a7139adb" x="144" y="165.501134" style="stroke: #000000; stroke-width: 0.8"/>
      </g>
     </g>
     <g id="text_14">
      <!-- 1.C.57.2.2 -->
      <g transform="translate(85.492188 169.300353) scale(0.1 -0.1)">
       <use xlink:href="#DejaVuSans-31"/>
       <use xlink:href="#DejaVuSans-2e" x="63.623047"/>
       <use xlink:href="#DejaVuSans-43" x="95.410156"/>
       <use xlink:href="#DejaVuSans-2e" x="165.234375"/>
       <use xlink:href="#DejaVuSans-35" x="197.021484"/>
       <use xlink:href="#DejaVuSans-37" x="260.644531"/>
       <use xlink:href="#DejaVuSans-2e" x="324.267578"/>
       <use xlink:href="#DejaVuSans-32" x="356.054688"/>
       <use xlink:href="#DejaVuSans-2e" x="419.677734"/>
       <use xlink:href="#DejaVuSans-32" x="451.464844"/>
      </g>
     </g>
    </g>
    <g id="ytick_9">
     <g id="line2d_14">
      <g>
       <use xlink:href="#me4a7139adb" x="144" y="147.447403" style="stroke: #000000; stroke-width: 0.8"/>
      </g>
     </g>
     <g id="text_15">
      <!-- 1.C.57.2.3 -->
      <g transform="translate(85.492188 151.246622) scale(0.1 -0.1)">
       <use xlink:href="#DejaVuSans-31"/>
       <use xlink:href="#DejaVuSans-2e" x="63.623047"/>
       <use xlink:href="#DejaVuSans-43" x="95.410156"/>
       <use xlink:href="#DejaVuSans-2e" x="165.234375"/>
       <use xlink:href="#DejaVuSans-35" x="197.021484"/>
       <use xlink:href="#DejaVuSans-37" x="260.644531"/>
       <use xlink:href="#DejaVuSans-2e" x="324.267578"/>
       <use xlink:href="#DejaVuSans-32" x="356.054688"/>
       <use xlink:href="#DejaVuSans-2e" x="419.677734"/>
       <use xlink:href="#DejaVuSans-33" x="451.464844"/>
      </g>
     </g>
    </g>
    <g id="ytick_10">
     <g id="line2d_15">
      <g>
       <use xlink:href="#me4a7139adb" x="144" y="129.393672" style="stroke: #000000; stroke-width: 0.8"/>
      </g>
     </g>
     <g id="text_16">
      <!-- 1.C.57.3.1 -->
      <g transform="translate(85.492188 133.19289) scale(0.1 -0.1)">
       <use xlink:href="#DejaVuSans-31"/>
       <use xlink:href="#DejaVuSans-2e" x="63.623047"/>
       <use xlink:href="#DejaVuSans-43" x="95.410156"/>
       <use xlink:href="#DejaVuSans-2e" x="165.234375"/>
       <use xlink:href="#DejaVuSans-35" x="197.021484"/>
       <use xlink:href="#DejaVuSans-37" x="260.644531"/>
       <use xlink:href="#DejaVuSans-2e" x="324.267578"/>
       <use xlink:href="#DejaVuSans-33" x="356.054688"/>
       <use xlink:href="#DejaVuSans-2e" x="419.677734"/>
       <use xlink:href="#DejaVuSans-31" x="451.464844"/>
      </g>
     </g>
    </g>
    <g id="ytick_11">
     <g id="line2d_16">
      <g>
       <use xlink:href="#me4a7139adb" x="144" y="111.33994" style="stroke: #000000; stroke-width: 0.8"/>
      </g>
     </g>
     <g id="text_17">
      <!-- 1.C.57.3.2 -->
      <g transform="translate(85.492188 115.139159) scale(0.1 -0.1)">
       <use xlink:href="#DejaVuSans-31"/>
       <use xlink:href="#DejaVuSans-2e" x="63.623047"/>
       <use xlink:href="#DejaVuSans-43" x="95.410156"/>
       <use xlink:href="#DejaVuSans-2e" x="165.234375"/>
       <use xlink:href="#DejaVuSans-35" x="197.021484"/>
       <use xlink:href="#DejaVuSans-37" x="260.644531"/>
       <use xlink:href="#DejaVuSans-2e" x="324.267578"/>
       <use xlink:href="#DejaVuSans-33" x="356.054688"/>
       <use xlink:href="#DejaVuSans-2e" x="419.677734"/>
       <use xlink:href="#DejaVuSans-32" x="451.464844"/>
      </g>
     </g>
    </g>
    <g id="ytick_12">
     <g id="line2d_17">
      <g>
       <use xlink:href="#me4a7139adb" x="144" y="93.286209" style="stroke: #000000; stroke-width: 0.8"/>
      </g>
     </g>
     <g id="text_18">
      <!-- 1.C.57.3.3 -->
      <g transform="translate(85.492188 97.085428) scale(0.1 -0.1)">
       <use xlink:href="#DejaVuSans-31"/>
       <use xlink:href="#DejaVuSans-2e" x="63.623047"/>
       <use xlink:href="#DejaVuSans-43" x="95.410156"/>
       <use xlink:href="#DejaVuSans-2e" x="165.234375"/>
       <use xlink:href="#DejaVuSans-35" x="197.021484"/>
       <use xlink:href="#DejaVuSans-37" x="260.644531"/>
       <use xlink:href="#DejaVuSans-2e" x="324.267578"/>
       <use xlink:href="#DejaVuSans-33" x="356.054688"/>
       <use xlink:href="#DejaVuSans-2e" x="419.677734"/>
       <use xlink:href="#DejaVuSans-33" x="451.464844"/>
      </g>
     </g>
    </g>
    <g id="ytick_13">
     <g id="line2d_18">
      <g>
       <use xlink:href="#me4a7139adb" x="144" y="75.232478" style="stroke: #000000; stroke-width: 0.8"/>
      </g>
     </g>
     <g id="text_19">
      <!-- 1.C.57.3.4 -->
      <g transform="translate(85.492188 79.031696) scale(0.1 -0.1)">
       <use xlink:href="#DejaVuSans-31"/>
       <use xlink:href="#DejaVuSans-2e" x="63.623047"/>
       <use xlink:href="#DejaVuSans-43" x="95.410156"/>
       <use xlink:href="#DejaVuSans-2e" x="165.234375"/>
       <use xlink:href="#DejaVuSans-35" x="197.021484"/>
       <use xlink:href="#DejaVuSans-37" x="260.644531"/>
       <use xlink:href="#DejaVuSans-2e" x="324.267578"/>
       <use xlink:href="#DejaVuSans-33" x="356.054688"/>
       <use xlink:href="#DejaVuSans-2e" x="419.677734"/>
       <use xlink:href="#DejaVuSans-34" x="451.464844"/>
      </g>
     </g>
    </g>
    <g id="ytick_14">
     <g id="line2d_19">
      <g>
       <use xlink:href="#me4a7139adb" x="144" y="57.178746" style="stroke: #000000; stroke-width: 0.8"/>
      </g>
     </g>
     <g id="text_20">
      <!-- 1.C.57.3.5 -->
      <g transform="translate(85.492188 60.977965) scale(0.1 -0.1)">
       <use xlink:href="#DejaVuSans-31"/>
       <use xlink:href="#DejaVuSans-2e" x="63.623047"/>
       <use xlink:href="#DejaVuSans-43" x="95.410156"/>
       <use xlink:href="#DejaVuSans-2e" x="165.234375"/>
       <use xlink:href="#DejaVuSans-35" x="197.021484"/>
       <use xlink:href="#DejaVuSans-37" x="260.644531"/>
       <use xlink:href="#DejaVuSans-2e" x="324.267578"/>
       <use xlink:href="#DejaVuSans-33" x="356.054688"/>
       <use xlink:href="#DejaVuSans-2e" x="419.677734"/>
       <use xlink:href="#DejaVuSans-35" x="451.464844"/>
      </g>
     </g>
    </g>
   </g>
   <g id="patch_258">
    <path d="M 144 307.584 
L 144 41.472 
" style="fill: none; stroke: #000000; stroke-width: 0.8; stroke-linejoin: miter; stroke-linecap: square"/>
   </g>
   <g id="patch_259">
    <path d="M 1036.8 307.584 
L 1036.8 41.472 
" style="fill: none; stroke: #000000; stroke-width: 0.8; stroke-linejoin: miter; stroke-linecap: square"/>
   </g>
   <g id="patch_260">
    <path d="M 144 307.584 
L 1036.8 307.584 
" style="fill: none; stroke: #000000; stroke-width: 0.8; stroke-linejoin: miter; stroke-linecap: square"/>
   </g>
   <g id="patch_261">
    <path d="M 144 41.472 
L 1036.8 41.472 
" style="fill: none; stroke: #000000; stroke-width: 0.8; stroke-linejoin: miter; stroke-linecap: square"/>
   </g>
   <g id="text_21">
    <!-- 1.C.57 Summary -->
    <g transform="translate(540.042187 35.472) scale(0.12 -0.12)">
     <defs>
      <path id="DejaVuSans-20" transform="scale(0.015625)"/>
      <path id="DejaVuSans-53" d="M 3425 4513 
L 3425 3897 
Q 3066 4069 2747 4153 
Q 2428 4238 2131 4238 
Q 1616 4238 1336 4038 
Q 1056 3838 1056 3469 
Q 1056 3159 1242 3001 
Q 1428 2844 1947 2747 
L 2328 2669 
Q 3034 2534 3370 2195 
Q 3706 1856 3706 1288 
Q 3706 609 3251 259 
Q 2797 -91 1919 -91 
Q 1588 -91 1214 -16 
Q 841 59 441 206 
L 441 856 
Q 825 641 1194 531 
Q 1563 422 1919 422 
Q 2459 422 2753 634 
Q 3047 847 3047 1241 
Q 3047 1584 2836 1778 
Q 2625 1972 2144 2069 
L 1759 2144 
Q 1053 2284 737 2584 
Q 422 2884 422 3419 
Q 422 4038 858 4394 
Q 1294 4750 2059 4750 
Q 2388 4750 2728 4690 
Q 3069 4631 3425 4513 
z
" transform="scale(0.015625)"/>
      <path id="DejaVuSans-6d" d="M 3328 2828 
Q 3544 3216 3844 3400 
Q 4144 3584 4550 3584 
Q 5097 3584 5394 3201 
Q 5691 2819 5691 2113 
L 5691 0 
L 5113 0 
L 5113 2094 
Q 5113 2597 4934 2840 
Q 4756 3084 4391 3084 
Q 3944 3084 3684 2787 
Q 3425 2491 3425 1978 
L 3425 0 
L 2847 0 
L 2847 2094 
Q 2847 2600 2669 2842 
Q 2491 3084 2119 3084 
Q 1678 3084 1418 2786 
Q 1159 2488 1159 1978 
L 1159 0 
L 581 0 
L 581 3500 
L 1159 3500 
L 1159 2956 
Q 1356 3278 1631 3431 
Q 1906 3584 2284 3584 
Q 2666 3584 2933 3390 
Q 3200 3197 3328 2828 
z
" transform="scale(0.015625)"/>
      <path id="DejaVuSans-72" d="M 2631 2963 
Q 2534 3019 2420 3045 
Q 2306 3072 2169 3072 
Q 1681 3072 1420 2755 
Q 1159 2438 1159 1844 
L 1159 0 
L 581 0 
L 581 3500 
L 1159 3500 
L 1159 2956 
Q 1341 3275 1631 3429 
Q 1922 3584 2338 3584 
Q 2397 3584 2469 3576 
Q 2541 3569 2628 3553 
L 2631 2963 
z
" transform="scale(0.015625)"/>
      <path id="DejaVuSans-79" d="M 2059 -325 
Q 1816 -950 1584 -1140 
Q 1353 -1331 966 -1331 
L 506 -1331 
L 506 -850 
L 844 -850 
Q 1081 -850 1212 -737 
Q 1344 -625 1503 -206 
L 1606 56 
L 191 3500 
L 800 3500 
L 1894 763 
L 2988 3500 
L 3597 3500 
L 2059 -325 
z
" transform="scale(0.015625)"/>
     </defs>
     <use xlink:href="#DejaVuSans-31"/>
     <use xlink:href="#DejaVuSans-2e" x="63.623047"/>
     <use xlink:href="#DejaVuSans-43" x="95.410156"/>
     <use xlink:href="#DejaVuSans-2e" x="165.234375"/>
     <use xlink:href="#DejaVuSans-35" x="197.021484"/>
     <use xlink:href="#DejaVuSans-37" x="260.644531"/>
     <use xlink:href="#DejaVuSans-20" x="324.267578"/>
     <use xlink:href="#DejaVuSans-53" x="356.054688"/>
     <use xlink:href="#DejaVuSans-75" x="419.53125"/>
     <use xlink:href="#DejaVuSans-6d" x="482.910156"/>
     <use xlink:href="#DejaVuSans-6d" x="580.322266"/>
     <use xlink:href="#DejaVuSans-61" x="677.734375"/>
     <use xlink:href="#DejaVuSans-72" x="739.013672"/>
     <use xlink:href="#DejaVuSans-79" x="780.126953"/>
    </g>
   </g>
  </g>
 </g>
 <defs>
  <clipPath id="p0bfe28c621">
   <rect x="144" y="41.472" width="892.8" height="266.112"/>
  </clipPath>
 </defs>
</svg>
