<?xml version="1.0" encoding="utf-8" standalone="no"?>
<!DOCTYPE svg PUBLIC "-//W3C//DTD SVG 1.1//EN"
  "http://www.w3.org/Graphics/SVG/1.1/DTD/svg11.dtd">
<svg xmlns:xlink="http://www.w3.org/1999/xlink" width="1152pt" height="432pt" viewBox="0 0 1152 432" xmlns="http://www.w3.org/2000/svg" version="1.1">
 <metadata>
  <rdf:RDF xmlns:dc="http://purl.org/dc/elements/1.1/" xmlns:cc="http://creativecommons.org/ns#" xmlns:rdf="http://www.w3.org/1999/02/22-rdf-syntax-ns#">
   <cc:Work>
    <dc:type rdf:resource="http://purl.org/dc/dcmitype/StillImage"/>
    <dc:date>2024-10-25T07:49:01.655504</dc:date>
    <dc:format>image/svg+xml</dc:format>
    <dc:creator>
     <cc:Agent>
      <dc:title>Matplotlib v3.9.2, https://matplotlib.org/</dc:title>
     </cc:Agent>
    </dc:creator>
   </cc:Work>
  </rdf:RDF>
 </metadata>
 <defs>
  <style type="text/css">*{stroke-linejoin: round; stroke-linecap: butt}</style>
 </defs>
 <g id="figure_1">
  <g id="patch_1">
   <path d="M 0 432 
L 1152 432 
L 1152 0 
L 0 0 
z
" style="fill: #ffffff"/>
  </g>
  <g id="axes_1">
   <g id="patch_2">
    <path d="M 144 384.48 
L 1036.8 384.48 
L 1036.8 51.84 
L 144 51.84 
z
" style="fill: #ffffff"/>
   </g>
   <g id="patch_3">
    <path d="M 144 366.144828 
L 190.539307 366.144828 
L 190.539307 365.623448 
L 144 365.623448 
z
" clip-path="url(#p07a9e63c97)" style="fill: #0000ff"/>
   </g>
   <g id="patch_4">
    <path d="M 191.797126 369.36 
L 393.048183 369.36 
L 393.048183 362.408276 
L 191.797126 362.408276 
z
" clip-path="url(#p07a9e63c97)" style="fill: #0000ff"/>
   </g>
   <g id="patch_5">
    <path d="M 210.664413 369.36 
L 444.618766 369.36 
L 444.618766 362.408276 
L 210.664413 362.408276 
z
" clip-path="url(#p07a9e63c97)" style="fill: #0000ff"/>
   </g>
   <g id="patch_6">
    <path d="M 445.876585 366.144828 
L 543.986475 366.144828 
L 543.986475 365.623448 
L 445.876585 365.623448 
z
" clip-path="url(#p07a9e63c97)" style="fill: #0000ff"/>
   </g>
   <g id="patch_7">
    <path d="M 144 348.765517 
L 170.414201 348.765517 
L 170.414201 348.244138 
L 144 348.244138 
z
" clip-path="url(#p07a9e63c97)" style="fill: #0000ff"/>
   </g>
   <g id="patch_8">
    <path d="M 171.67202 351.98069 
L 371.665258 351.98069 
L 371.665258 345.028966 
L 171.67202 345.028966 
z
" clip-path="url(#p07a9e63c97)" style="fill: #0000ff"/>
   </g>
   <g id="patch_9">
    <path d="M 372.923077 348.765517 
L 406.884193 348.765517 
L 406.884193 348.244138 
L 372.923077 348.244138 
z
" clip-path="url(#p07a9e63c97)" style="fill: #0000ff"/>
   </g>
   <g id="patch_10">
    <path d="M 408.142012 351.98069 
L 611.908707 351.98069 
L 611.908707 345.028966 
L 408.142012 345.028966 
z
" clip-path="url(#p07a9e63c97)" style="fill: #0000ff"/>
   </g>
   <g id="patch_11">
    <path d="M 428.267117 351.98069 
L 674.799662 351.98069 
L 674.799662 345.028966 
L 428.267117 345.028966 
z
" clip-path="url(#p07a9e63c97)" style="fill: #0000ff"/>
   </g>
   <g id="patch_12">
    <path d="M 676.057481 348.765517 
L 757.815723 348.765517 
L 757.815723 348.244138 
L 676.057481 348.244138 
z
" clip-path="url(#p07a9e63c97)" style="fill: #0000ff"/>
   </g>
   <g id="patch_13">
    <path d="M 759.073542 351.98069 
L 916.30093 351.98069 
L 916.30093 345.028966 
L 759.073542 345.028966 
z
" clip-path="url(#p07a9e63c97)" style="fill: #0000ff"/>
   </g>
   <g id="patch_14">
    <path d="M 917.558749 348.765517 
L 926.363483 348.765517 
L 926.363483 348.244138 
L 917.558749 348.244138 
z
" clip-path="url(#p07a9e63c97)" style="fill: #0000ff"/>
   </g>
   <g id="patch_15">
    <path d="M 144 331.386207 
L 193.054945 331.386207 
L 193.054945 330.864828 
L 144 330.864828 
z
" clip-path="url(#p07a9e63c97)" style="fill: #0000ff"/>
   </g>
   <g id="patch_16">
    <path d="M 194.312764 334.601379 
L 478.579882 334.601379 
L 478.579882 327.649655 
L 194.312764 327.649655 
z
" clip-path="url(#p07a9e63c97)" style="fill: #0000ff"/>
   </g>
   <g id="patch_17">
    <path d="M 196.828402 334.601379 
L 453.4235 334.601379 
L 453.4235 327.649655 
L 196.828402 327.649655 
z
" clip-path="url(#p07a9e63c97)" style="fill: #0000ff"/>
   </g>
   <g id="patch_18">
    <path d="M 200.60186 334.601379 
L 372.923077 334.601379 
L 372.923077 327.649655 
L 200.60186 327.649655 
z
" clip-path="url(#p07a9e63c97)" style="fill: #0000ff"/>
   </g>
   <g id="patch_19">
    <path d="M 479.837701 331.386207 
L 483.611158 331.386207 
L 483.611158 330.864828 
L 479.837701 330.864828 
z
" clip-path="url(#p07a9e63c97)" style="fill: #0000ff"/>
   </g>
   <g id="patch_20">
    <path d="M 144 314.006897 
L 159.093829 314.006897 
L 159.093829 313.485517 
L 144 313.485517 
z
" clip-path="url(#p07a9e63c97)" style="fill: #0000ff"/>
   </g>
   <g id="patch_21">
    <path d="M 160.351648 317.222069 
L 445.876585 317.222069 
L 445.876585 310.270345 
L 160.351648 310.270345 
z
" clip-path="url(#p07a9e63c97)" style="fill: #0000ff"/>
   </g>
   <g id="patch_22">
    <path d="M 162.867287 317.222069 
L 420.720203 317.222069 
L 420.720203 310.270345 
L 162.867287 310.270345 
z
" clip-path="url(#p07a9e63c97)" style="fill: #0000ff"/>
   </g>
   <g id="patch_23">
    <path d="M 447.134404 314.006897 
L 450.907861 314.006897 
L 450.907861 313.485517 
L 447.134404 313.485517 
z
" clip-path="url(#p07a9e63c97)" style="fill: #0000ff"/>
   </g>
   <g id="patch_24">
    <path d="M 144 296.627586 
L 193.054945 296.627586 
L 193.054945 296.106207 
L 144 296.106207 
z
" clip-path="url(#p07a9e63c97)" style="fill: #0000ff"/>
   </g>
   <g id="patch_25">
    <path d="M 194.312764 299.842759 
L 469.775148 299.842759 
L 469.775148 292.891034 
L 194.312764 292.891034 
z
" clip-path="url(#p07a9e63c97)" style="fill: #0000ff"/>
   </g>
   <g id="patch_26">
    <path d="M 198.086221 299.842759 
L 452.16568 299.842759 
L 452.16568 292.891034 
L 198.086221 292.891034 
z
" clip-path="url(#p07a9e63c97)" style="fill: #0000ff"/>
   </g>
   <g id="patch_27">
    <path d="M 204.375317 299.842759 
L 428.267117 299.842759 
L 428.267117 292.891034 
L 204.375317 292.891034 
z
" clip-path="url(#p07a9e63c97)" style="fill: #0000ff"/>
   </g>
   <g id="patch_28">
    <path d="M 471.032967 296.627586 
L 474.806424 296.627586 
L 474.806424 296.106207 
L 471.032967 296.106207 
z
" clip-path="url(#p07a9e63c97)" style="fill: #0000ff"/>
   </g>
   <g id="patch_29">
    <path d="M 144 279.248276 
L 215.695689 279.248276 
L 215.695689 278.726897 
L 144 278.726897 
z
" clip-path="url(#p07a9e63c97)" style="fill: #0000ff"/>
   </g>
   <g id="patch_30">
    <path d="M 216.953508 282.463448 
L 482.353339 282.463448 
L 482.353339 275.511724 
L 216.953508 275.511724 
z
" clip-path="url(#p07a9e63c97)" style="fill: #0000ff"/>
   </g>
   <g id="patch_31">
    <path d="M 232.047337 282.463448 
L 487.384615 282.463448 
L 487.384615 275.511724 
L 232.047337 275.511724 
z
" clip-path="url(#p07a9e63c97)" style="fill: #0000ff"/>
   </g>
   <g id="patch_32">
    <path d="M 306.258664 282.463448 
L 411.915469 282.463448 
L 411.915469 275.511724 
L 306.258664 275.511724 
z
" clip-path="url(#p07a9e63c97)" style="fill: #0000ff"/>
   </g>
   <g id="patch_33">
    <path d="M 488.642434 279.248276 
L 498.704987 279.248276 
L 498.704987 278.726897 
L 488.642434 278.726897 
z
" clip-path="url(#p07a9e63c97)" style="fill: #0000ff"/>
   </g>
   <g id="patch_34">
    <path d="M 144 261.868966 
L 179.218935 261.868966 
L 179.218935 261.347586 
L 144 261.347586 
z
" clip-path="url(#p07a9e63c97)" style="fill: #0000ff"/>
   </g>
   <g id="patch_35">
    <path d="M 180.476754 265.084138 
L 443.360947 265.084138 
L 443.360947 258.132414 
L 180.476754 258.132414 
z
" clip-path="url(#p07a9e63c97)" style="fill: #0000ff"/>
   </g>
   <g id="patch_36">
    <path d="M 181.734573 265.084138 
L 444.618766 265.084138 
L 444.618766 258.132414 
L 181.734573 258.132414 
z
" clip-path="url(#p07a9e63c97)" style="fill: #0000ff"/>
   </g>
   <g id="patch_37">
    <path d="M 445.876585 261.868966 
L 457.196957 261.868966 
L 457.196957 261.347586 
L 445.876585 261.347586 
z
" clip-path="url(#p07a9e63c97)" style="fill: #0000ff"/>
   </g>
   <g id="patch_38">
    <path d="M 144 244.489655 
L 240.852071 244.489655 
L 240.852071 243.968276 
L 144 243.968276 
z
" clip-path="url(#p07a9e63c97)" style="fill: #0000ff"/>
   </g>
   <g id="patch_39">
    <path d="M 242.10989 247.704828 
L 477.322063 247.704828 
L 477.322063 240.753103 
L 242.10989 240.753103 
z
" clip-path="url(#p07a9e63c97)" style="fill: #0000ff"/>
   </g>
   <g id="patch_40">
    <path d="M 267.266272 247.704828 
L 478.579882 247.704828 
L 478.579882 240.753103 
L 267.266272 240.753103 
z
" clip-path="url(#p07a9e63c97)" style="fill: #0000ff"/>
   </g>
   <g id="patch_41">
    <path d="M 479.837701 244.489655 
L 483.611158 244.489655 
L 483.611158 243.968276 
L 479.837701 243.968276 
z
" clip-path="url(#p07a9e63c97)" style="fill: #0000ff"/>
   </g>
   <g id="patch_42">
    <path d="M 144 227.110345 
L 219.469146 227.110345 
L 219.469146 226.588966 
L 144 226.588966 
z
" clip-path="url(#p07a9e63c97)" style="fill: #0000ff"/>
   </g>
   <g id="patch_43">
    <path d="M 220.726965 230.325517 
L 496.189349 230.325517 
L 496.189349 223.373793 
L 220.726965 223.373793 
z
" clip-path="url(#p07a9e63c97)" style="fill: #0000ff"/>
   </g>
   <g id="patch_44">
    <path d="M 230.789518 230.325517 
L 499.962806 230.325517 
L 499.962806 223.373793 
L 230.789518 223.373793 
z
" clip-path="url(#p07a9e63c97)" style="fill: #0000ff"/>
   </g>
   <g id="patch_45">
    <path d="M 501.220626 227.110345 
L 550.275571 227.110345 
L 550.275571 226.588966 
L 501.220626 226.588966 
z
" clip-path="url(#p07a9e63c97)" style="fill: #0000ff"/>
   </g>
   <g id="patch_46">
    <path d="M 144 209.731034 
L 188.023669 209.731034 
L 188.023669 209.209655 
L 144 209.209655 
z
" clip-path="url(#p07a9e63c97)" style="fill: #0000ff"/>
   </g>
   <g id="patch_47">
    <path d="M 189.281488 212.946207 
L 549.017751 212.946207 
L 549.017751 205.994483 
L 189.281488 205.994483 
z
" clip-path="url(#p07a9e63c97)" style="fill: #0000ff"/>
   </g>
   <g id="patch_48">
    <path d="M 303.743026 212.946207 
L 545.244294 212.946207 
L 545.244294 205.994483 
L 303.743026 205.994483 
z
" clip-path="url(#p07a9e63c97)" style="fill: #0000ff"/>
   </g>
   <g id="patch_49">
    <path d="M 332.672866 212.946207 
L 533.923922 212.946207 
L 533.923922 205.994483 
L 332.672866 205.994483 
z
" clip-path="url(#p07a9e63c97)" style="fill: #0000ff"/>
   </g>
   <g id="patch_50">
    <path d="M 453.4235 212.946207 
L 533.923922 212.946207 
L 533.923922 205.994483 
L 453.4235 205.994483 
z
" clip-path="url(#p07a9e63c97)" style="fill: #0000ff"/>
   </g>
   <g id="patch_51">
    <path d="M 550.275571 209.731034 
L 655.932375 209.731034 
L 655.932375 209.209655 
L 550.275571 209.209655 
z
" clip-path="url(#p07a9e63c97)" style="fill: #0000ff"/>
   </g>
   <g id="patch_52">
    <path d="M 144 192.351724 
L 269.78191 192.351724 
L 269.78191 191.830345 
L 144 191.830345 
z
" clip-path="url(#p07a9e63c97)" style="fill: #0000ff"/>
   </g>
   <g id="patch_53">
    <path d="M 271.03973 195.566897 
L 503.736264 195.566897 
L 503.736264 188.615172 
L 271.03973 188.615172 
z
" clip-path="url(#p07a9e63c97)" style="fill: #0000ff"/>
   </g>
   <g id="patch_54">
    <path d="M 283.617921 195.566897 
L 521.345731 195.566897 
L 521.345731 188.615172 
L 283.617921 188.615172 
z
" clip-path="url(#p07a9e63c97)" style="fill: #0000ff"/>
   </g>
   <g id="patch_55">
    <path d="M 311.289941 195.566897 
L 476.064243 195.566897 
L 476.064243 188.615172 
L 311.289941 188.615172 
z
" clip-path="url(#p07a9e63c97)" style="fill: #0000ff"/>
   </g>
   <g id="patch_56">
    <path d="M 311.289941 195.566897 
L 508.76754 195.566897 
L 508.76754 188.615172 
L 311.289941 188.615172 
z
" clip-path="url(#p07a9e63c97)" style="fill: #0000ff"/>
   </g>
   <g id="patch_57">
    <path d="M 312.54776 195.566897 
L 535.181741 195.566897 
L 535.181741 188.615172 
L 312.54776 188.615172 
z
" clip-path="url(#p07a9e63c97)" style="fill: #0000ff"/>
   </g>
   <g id="patch_58">
    <path d="M 315.063398 195.566897 
L 503.736264 195.566897 
L 503.736264 188.615172 
L 315.063398 188.615172 
z
" clip-path="url(#p07a9e63c97)" style="fill: #0000ff"/>
   </g>
   <g id="patch_59">
    <path d="M 315.063398 195.566897 
L 463.486052 195.566897 
L 463.486052 188.615172 
L 315.063398 188.615172 
z
" clip-path="url(#p07a9e63c97)" style="fill: #0000ff"/>
   </g>
   <g id="patch_60">
    <path d="M 423.235841 195.566897 
L 499.962806 195.566897 
L 499.962806 188.615172 
L 423.235841 188.615172 
z
" clip-path="url(#p07a9e63c97)" style="fill: #0000ff"/>
   </g>
   <g id="patch_61">
    <path d="M 536.43956 192.351724 
L 588.010144 192.351724 
L 588.010144 191.830345 
L 536.43956 191.830345 
z
" clip-path="url(#p07a9e63c97)" style="fill: #0000ff"/>
   </g>
   <g id="patch_62">
    <path d="M 144 174.972414 
L 200.60186 174.972414 
L 200.60186 174.451034 
L 144 174.451034 
z
" clip-path="url(#p07a9e63c97)" style="fill: #0000ff"/>
   </g>
   <g id="patch_63">
    <path d="M 201.859679 178.187586 
L 492.415892 178.187586 
L 492.415892 171.235862 
L 201.859679 171.235862 
z
" clip-path="url(#p07a9e63c97)" style="fill: #0000ff"/>
   </g>
   <g id="patch_64">
    <path d="M 213.180051 178.187586 
L 522.60355 178.187586 
L 522.60355 171.235862 
L 213.180051 171.235862 
z
" clip-path="url(#p07a9e63c97)" style="fill: #0000ff"/>
   </g>
   <g id="patch_65">
    <path d="M 223.242604 178.187586 
L 525.119189 178.187586 
L 525.119189 171.235862 
L 223.242604 171.235862 
z
" clip-path="url(#p07a9e63c97)" style="fill: #0000ff"/>
   </g>
   <g id="patch_66">
    <path d="M 327.641589 178.187586 
L 522.60355 178.187586 
L 522.60355 171.235862 
L 327.641589 171.235862 
z
" clip-path="url(#p07a9e63c97)" style="fill: #0000ff"/>
   </g>
   <g id="patch_67">
    <path d="M 428.267117 178.187586 
L 489.900254 178.187586 
L 489.900254 171.235862 
L 428.267117 171.235862 
z
" clip-path="url(#p07a9e63c97)" style="fill: #0000ff"/>
   </g>
   <g id="patch_68">
    <path d="M 437.071851 178.187586 
L 522.60355 178.187586 
L 522.60355 171.235862 
L 437.071851 171.235862 
z
" clip-path="url(#p07a9e63c97)" style="fill: #0000ff"/>
   </g>
   <g id="patch_69">
    <path d="M 439.587489 178.187586 
L 538.955199 178.187586 
L 538.955199 171.235862 
L 439.587489 171.235862 
z
" clip-path="url(#p07a9e63c97)" style="fill: #0000ff"/>
   </g>
   <g id="patch_70">
    <path d="M 540.213018 174.972414 
L 994.285714 174.972414 
L 994.285714 174.451034 
L 540.213018 174.451034 
z
" clip-path="url(#p07a9e63c97)" style="fill: #0000ff"/>
   </g>
   <g id="patch_71">
    <path d="M 144 157.593103 
L 159.093829 157.593103 
L 159.093829 157.071724 
L 144 157.071724 
z
" clip-path="url(#p07a9e63c97)" style="fill: #0000ff"/>
   </g>
   <g id="patch_72">
    <path d="M 160.351648 160.808276 
L 272.297549 160.808276 
L 272.297549 153.856552 
L 160.351648 153.856552 
z
" clip-path="url(#p07a9e63c97)" style="fill: #0000ff"/>
   </g>
   <g id="patch_73">
    <path d="M 273.555368 157.593103 
L 365.376162 157.593103 
L 365.376162 157.071724 
L 273.555368 157.071724 
z
" clip-path="url(#p07a9e63c97)" style="fill: #0000ff"/>
   </g>
   <g id="patch_74">
    <path d="M 366.633981 160.808276 
L 657.190194 160.808276 
L 657.190194 153.856552 
L 366.633981 153.856552 
z
" clip-path="url(#p07a9e63c97)" style="fill: #0000ff"/>
   </g>
   <g id="patch_75">
    <path d="M 395.563821 160.808276 
L 681.088757 160.808276 
L 681.088757 153.856552 
L 395.563821 153.856552 
z
" clip-path="url(#p07a9e63c97)" style="fill: #0000ff"/>
   </g>
   <g id="patch_76">
    <path d="M 415.688926 160.808276 
L 657.190194 160.808276 
L 657.190194 153.856552 
L 415.688926 153.856552 
z
" clip-path="url(#p07a9e63c97)" style="fill: #0000ff"/>
   </g>
   <g id="patch_77">
    <path d="M 457.196957 160.808276 
L 667.252747 160.808276 
L 667.252747 153.856552 
L 457.196957 153.856552 
z
" clip-path="url(#p07a9e63c97)" style="fill: #0000ff"/>
   </g>
   <g id="patch_78">
    <path d="M 463.486052 160.808276 
L 674.799662 160.808276 
L 674.799662 153.856552 
L 463.486052 153.856552 
z
" clip-path="url(#p07a9e63c97)" style="fill: #0000ff"/>
   </g>
   <g id="patch_79">
    <path d="M 584.236686 160.808276 
L 707.502959 160.808276 
L 707.502959 153.856552 
L 584.236686 153.856552 
z
" clip-path="url(#p07a9e63c97)" style="fill: #0000ff"/>
   </g>
   <g id="patch_80">
    <path d="M 589.267963 160.808276 
L 644.612003 160.808276 
L 644.612003 153.856552 
L 589.267963 153.856552 
z
" clip-path="url(#p07a9e63c97)" style="fill: #0000ff"/>
   </g>
   <g id="patch_81">
    <path d="M 590.525782 160.808276 
L 642.096365 160.808276 
L 642.096365 153.856552 
L 590.525782 153.856552 
z
" clip-path="url(#p07a9e63c97)" style="fill: #0000ff"/>
   </g>
   <g id="patch_82">
    <path d="M 708.760778 157.593103 
L 756.557904 157.593103 
L 756.557904 157.071724 
L 708.760778 157.071724 
z
" clip-path="url(#p07a9e63c97)" style="fill: #0000ff"/>
   </g>
   <g id="patch_83">
    <path d="M 144 140.213793 
L 169.156382 140.213793 
L 169.156382 139.692414 
L 144 139.692414 
z
" clip-path="url(#p07a9e63c97)" style="fill: #0000ff"/>
   </g>
   <g id="patch_84">
    <path d="M 170.414201 143.428966 
L 566.627219 143.428966 
L 566.627219 136.477241 
L 170.414201 136.477241 
z
" clip-path="url(#p07a9e63c97)" style="fill: #0000ff"/>
   </g>
   <g id="patch_85">
    <path d="M 215.695689 143.428966 
L 572.916314 143.428966 
L 572.916314 136.477241 
L 215.695689 136.477241 
z
" clip-path="url(#p07a9e63c97)" style="fill: #0000ff"/>
   </g>
   <g id="patch_86">
    <path d="M 338.961961 143.428966 
L 571.658495 143.428966 
L 571.658495 136.477241 
L 338.961961 136.477241 
z
" clip-path="url(#p07a9e63c97)" style="fill: #0000ff"/>
   </g>
   <g id="patch_87">
    <path d="M 352.797971 143.428966 
L 541.470837 143.428966 
L 541.470837 136.477241 
L 352.797971 136.477241 
z
" clip-path="url(#p07a9e63c97)" style="fill: #0000ff"/>
   </g>
   <g id="patch_88">
    <path d="M 457.196957 143.428966 
L 541.470837 143.428966 
L 541.470837 136.477241 
L 457.196957 136.477241 
z
" clip-path="url(#p07a9e63c97)" style="fill: #0000ff"/>
   </g>
   <g id="patch_89">
    <path d="M 474.806424 143.428966 
L 564.111581 143.428966 
L 564.111581 136.477241 
L 474.806424 136.477241 
z
" clip-path="url(#p07a9e63c97)" style="fill: #0000ff"/>
   </g>
   <g id="patch_90">
    <path d="M 476.064243 143.428966 
L 538.955199 143.428966 
L 538.955199 136.477241 
L 476.064243 136.477241 
z
" clip-path="url(#p07a9e63c97)" style="fill: #0000ff"/>
   </g>
   <g id="patch_91">
    <path d="M 476.064243 143.428966 
L 541.470837 143.428966 
L 541.470837 136.477241 
L 476.064243 136.477241 
z
" clip-path="url(#p07a9e63c97)" style="fill: #0000ff"/>
   </g>
   <g id="patch_92">
    <path d="M 574.174134 140.213793 
L 663.47929 140.213793 
L 663.47929 139.692414 
L 574.174134 139.692414 
z
" clip-path="url(#p07a9e63c97)" style="fill: #0000ff"/>
   </g>
   <g id="patch_93">
    <path d="M 144 122.834483 
L 244.625528 122.834483 
L 244.625528 122.313103 
L 144 122.313103 
z
" clip-path="url(#p07a9e63c97)" style="fill: #0000ff"/>
   </g>
   <g id="patch_94">
    <path d="M 245.883347 126.049655 
L 479.837701 126.049655 
L 479.837701 119.097931 
L 245.883347 119.097931 
z
" clip-path="url(#p07a9e63c97)" style="fill: #0000ff"/>
   </g>
   <g id="patch_95">
    <path d="M 264.750634 126.049655 
L 473.548605 126.049655 
L 473.548605 119.097931 
L 264.750634 119.097931 
z
" clip-path="url(#p07a9e63c97)" style="fill: #0000ff"/>
   </g>
   <g id="patch_96">
    <path d="M 347.766695 126.049655 
L 473.548605 126.049655 
L 473.548605 119.097931 
L 347.766695 119.097931 
z
" clip-path="url(#p07a9e63c97)" style="fill: #0000ff"/>
   </g>
   <g id="patch_97">
    <path d="M 393.048183 126.049655 
L 468.517329 126.049655 
L 468.517329 119.097931 
L 393.048183 119.097931 
z
" clip-path="url(#p07a9e63c97)" style="fill: #0000ff"/>
   </g>
   <g id="patch_98">
    <path d="M 481.09552 122.834483 
L 549.017751 122.834483 
L 549.017751 122.313103 
L 481.09552 122.313103 
z
" clip-path="url(#p07a9e63c97)" style="fill: #0000ff"/>
   </g>
   <g id="patch_99">
    <path d="M 144 105.455172 
L 205.633136 105.455172 
L 205.633136 104.933793 
L 144 104.933793 
z
" clip-path="url(#p07a9e63c97)" style="fill: #0000ff"/>
   </g>
   <g id="patch_100">
    <path d="M 206.890955 108.670345 
L 569.142857 108.670345 
L 569.142857 101.718621 
L 206.890955 101.718621 
z
" clip-path="url(#p07a9e63c97)" style="fill: #0000ff"/>
   </g>
   <g id="patch_101">
    <path d="M 320.094675 108.670345 
L 562.853762 108.670345 
L 562.853762 101.718621 
L 320.094675 101.718621 
z
" clip-path="url(#p07a9e63c97)" style="fill: #0000ff"/>
   </g>
   <g id="patch_102">
    <path d="M 570.400676 105.455172 
L 668.510566 105.455172 
L 668.510566 104.933793 
L 570.400676 104.933793 
z
" clip-path="url(#p07a9e63c97)" style="fill: #0000ff"/>
   </g>
   <g id="patch_103">
    <path d="M 144 88.075862 
L 237.078614 88.075862 
L 237.078614 87.554483 
L 144 87.554483 
z
" clip-path="url(#p07a9e63c97)" style="fill: #0000ff"/>
   </g>
   <g id="patch_104">
    <path d="M 238.336433 91.291034 
L 600.588335 91.291034 
L 600.588335 84.33931 
L 238.336433 84.33931 
z
" clip-path="url(#p07a9e63c97)" style="fill: #0000ff"/>
   </g>
   <g id="patch_105">
    <path d="M 260.977177 91.291034 
L 585.494505 91.291034 
L 585.494505 84.33931 
L 260.977177 84.33931 
z
" clip-path="url(#p07a9e63c97)" style="fill: #0000ff"/>
   </g>
   <g id="patch_106">
    <path d="M 299.969569 91.291034 
L 593.04142 91.291034 
L 593.04142 84.33931 
L 299.969569 84.33931 
z
" clip-path="url(#p07a9e63c97)" style="fill: #0000ff"/>
   </g>
   <g id="patch_107">
    <path d="M 362.860524 91.291034 
L 598.072697 91.291034 
L 598.072697 84.33931 
L 362.860524 84.33931 
z
" clip-path="url(#p07a9e63c97)" style="fill: #0000ff"/>
   </g>
   <g id="patch_108">
    <path d="M 365.376162 91.291034 
L 562.853762 91.291034 
L 562.853762 84.33931 
L 365.376162 84.33931 
z
" clip-path="url(#p07a9e63c97)" style="fill: #0000ff"/>
   </g>
   <g id="patch_109">
    <path d="M 601.846154 88.075862 
L 681.088757 88.075862 
L 681.088757 87.554483 
L 601.846154 87.554483 
z
" clip-path="url(#p07a9e63c97)" style="fill: #0000ff"/>
   </g>
   <g id="patch_110">
    <path d="M 144 70.696552 
L 199.344041 70.696552 
L 199.344041 70.175172 
L 144 70.175172 
z
" clip-path="url(#p07a9e63c97)" style="fill: #0000ff"/>
   </g>
   <g id="patch_111">
    <path d="M 200.60186 73.911724 
L 496.189349 73.911724 
L 496.189349 66.96 
L 200.60186 66.96 
z
" clip-path="url(#p07a9e63c97)" style="fill: #0000ff"/>
   </g>
   <g id="patch_112">
    <path d="M 209.406593 73.911724 
L 488.642434 73.911724 
L 488.642434 66.96 
L 209.406593 66.96 
z
" clip-path="url(#p07a9e63c97)" style="fill: #0000ff"/>
   </g>
   <g id="patch_113">
    <path d="M 218.211327 73.911724 
L 486.126796 73.911724 
L 486.126796 66.96 
L 218.211327 66.96 
z
" clip-path="url(#p07a9e63c97)" style="fill: #0000ff"/>
   </g>
   <g id="patch_114">
    <path d="M 382.98563 73.911724 
L 503.736264 73.911724 
L 503.736264 66.96 
L 382.98563 66.96 
z
" clip-path="url(#p07a9e63c97)" style="fill: #0000ff"/>
   </g>
   <g id="patch_115">
    <path d="M 389.274725 73.911724 
L 503.736264 73.911724 
L 503.736264 66.96 
L 389.274725 66.96 
z
" clip-path="url(#p07a9e63c97)" style="fill: #0000ff"/>
   </g>
   <g id="patch_116">
    <path d="M 405.626374 73.911724 
L 489.900254 73.911724 
L 489.900254 66.96 
L 405.626374 66.96 
z
" clip-path="url(#p07a9e63c97)" style="fill: #0000ff"/>
   </g>
   <g id="patch_117">
    <path d="M 405.626374 73.911724 
L 484.868977 73.911724 
L 484.868977 66.96 
L 405.626374 66.96 
z
" clip-path="url(#p07a9e63c97)" style="fill: #0000ff"/>
   </g>
   <g id="patch_118">
    <path d="M 504.994083 70.696552 
L 557.822485 70.696552 
L 557.822485 70.175172 
L 504.994083 70.175172 
z
" clip-path="url(#p07a9e63c97)" style="fill: #0000ff"/>
   </g>
   <g id="matplotlib.axis_1">
    <g id="xtick_1">
     <g id="line2d_1">
      <defs>
       <path id="md7ddb445cc" d="M 0 0 
L 0 3.5 
" style="stroke: #000000; stroke-width: 0.8"/>
      </defs>
      <g>
       <use xlink:href="#md7ddb445cc" x="268.524091" y="384.48" style="stroke: #000000; stroke-width: 0.8"/>
      </g>
     </g>
     <g id="text_1">
      <!-- 100 -->
      <g transform="translate(258.980341 399.078438) scale(0.1 -0.1)">
       <defs>
        <path id="DejaVuSans-31" d="M 794 531 
L 1825 531 
L 1825 4091 
L 703 3866 
L 703 4441 
L 1819 4666 
L 2450 4666 
L 2450 531 
L 3481 531 
L 3481 0 
L 794 0 
L 794 531 
z
" transform="scale(0.015625)"/>
        <path id="DejaVuSans-30" d="M 2034 4250 
Q 1547 4250 1301 3770 
Q 1056 3291 1056 2328 
Q 1056 1369 1301 889 
Q 1547 409 2034 409 
Q 2525 409 2770 889 
Q 3016 1369 3016 2328 
Q 3016 3291 2770 3770 
Q 2525 4250 2034 4250 
z
M 2034 4750 
Q 2819 4750 3233 4129 
Q 3647 3509 3647 2328 
Q 3647 1150 3233 529 
Q 2819 -91 2034 -91 
Q 1250 -91 836 529 
Q 422 1150 422 2328 
Q 422 3509 836 4129 
Q 1250 4750 2034 4750 
z
" transform="scale(0.015625)"/>
       </defs>
       <use xlink:href="#DejaVuSans-31"/>
       <use xlink:href="#DejaVuSans-30" x="63.623047"/>
       <use xlink:href="#DejaVuSans-30" x="127.246094"/>
      </g>
     </g>
    </g>
    <g id="xtick_2">
     <g id="line2d_2">
      <g>
       <use xlink:href="#md7ddb445cc" x="394.306002" y="384.48" style="stroke: #000000; stroke-width: 0.8"/>
      </g>
     </g>
     <g id="text_2">
      <!-- 200 -->
      <g transform="translate(384.762252 399.078438) scale(0.1 -0.1)">
       <defs>
        <path id="DejaVuSans-32" d="M 1228 531 
L 3431 531 
L 3431 0 
L 469 0 
L 469 531 
Q 828 903 1448 1529 
Q 2069 2156 2228 2338 
Q 2531 2678 2651 2914 
Q 2772 3150 2772 3378 
Q 2772 3750 2511 3984 
Q 2250 4219 1831 4219 
Q 1534 4219 1204 4116 
Q 875 4013 500 3803 
L 500 4441 
Q 881 4594 1212 4672 
Q 1544 4750 1819 4750 
Q 2544 4750 2975 4387 
Q 3406 4025 3406 3419 
Q 3406 3131 3298 2873 
Q 3191 2616 2906 2266 
Q 2828 2175 2409 1742 
Q 1991 1309 1228 531 
z
" transform="scale(0.015625)"/>
       </defs>
       <use xlink:href="#DejaVuSans-32"/>
       <use xlink:href="#DejaVuSans-30" x="63.623047"/>
       <use xlink:href="#DejaVuSans-30" x="127.246094"/>
      </g>
     </g>
    </g>
    <g id="xtick_3">
     <g id="line2d_3">
      <g>
       <use xlink:href="#md7ddb445cc" x="520.087912" y="384.48" style="stroke: #000000; stroke-width: 0.8"/>
      </g>
     </g>
     <g id="text_3">
      <!-- 300 -->
      <g transform="translate(510.544162 399.078438) scale(0.1 -0.1)">
       <defs>
        <path id="DejaVuSans-33" d="M 2597 2516 
Q 3050 2419 3304 2112 
Q 3559 1806 3559 1356 
Q 3559 666 3084 287 
Q 2609 -91 1734 -91 
Q 1441 -91 1130 -33 
Q 819 25 488 141 
L 488 750 
Q 750 597 1062 519 
Q 1375 441 1716 441 
Q 2309 441 2620 675 
Q 2931 909 2931 1356 
Q 2931 1769 2642 2001 
Q 2353 2234 1838 2234 
L 1294 2234 
L 1294 2753 
L 1863 2753 
Q 2328 2753 2575 2939 
Q 2822 3125 2822 3475 
Q 2822 3834 2567 4026 
Q 2313 4219 1838 4219 
Q 1578 4219 1281 4162 
Q 984 4106 628 3988 
L 628 4550 
Q 988 4650 1302 4700 
Q 1616 4750 1894 4750 
Q 2613 4750 3031 4423 
Q 3450 4097 3450 3541 
Q 3450 3153 3228 2886 
Q 3006 2619 2597 2516 
z
" transform="scale(0.015625)"/>
       </defs>
       <use xlink:href="#DejaVuSans-33"/>
       <use xlink:href="#DejaVuSans-30" x="63.623047"/>
       <use xlink:href="#DejaVuSans-30" x="127.246094"/>
      </g>
     </g>
    </g>
    <g id="xtick_4">
     <g id="line2d_4">
      <g>
       <use xlink:href="#md7ddb445cc" x="645.869822" y="384.48" style="stroke: #000000; stroke-width: 0.8"/>
      </g>
     </g>
     <g id="text_4">
      <!-- 400 -->
      <g transform="translate(636.326072 399.078438) scale(0.1 -0.1)">
       <defs>
        <path id="DejaVuSans-34" d="M 2419 4116 
L 825 1625 
L 2419 1625 
L 2419 4116 
z
M 2253 4666 
L 3047 4666 
L 3047 1625 
L 3713 1625 
L 3713 1100 
L 3047 1100 
L 3047 0 
L 2419 0 
L 2419 1100 
L 313 1100 
L 313 1709 
L 2253 4666 
z
" transform="scale(0.015625)"/>
       </defs>
       <use xlink:href="#DejaVuSans-34"/>
       <use xlink:href="#DejaVuSans-30" x="63.623047"/>
       <use xlink:href="#DejaVuSans-30" x="127.246094"/>
      </g>
     </g>
    </g>
    <g id="xtick_5">
     <g id="line2d_5">
      <g>
       <use xlink:href="#md7ddb445cc" x="771.651733" y="384.48" style="stroke: #000000; stroke-width: 0.8"/>
      </g>
     </g>
     <g id="text_5">
      <!-- 500 -->
      <g transform="translate(762.107983 399.078438) scale(0.1 -0.1)">
       <defs>
        <path id="DejaVuSans-35" d="M 691 4666 
L 3169 4666 
L 3169 4134 
L 1269 4134 
L 1269 2991 
Q 1406 3038 1543 3061 
Q 1681 3084 1819 3084 
Q 2600 3084 3056 2656 
Q 3513 2228 3513 1497 
Q 3513 744 3044 326 
Q 2575 -91 1722 -91 
Q 1428 -91 1123 -41 
Q 819 9 494 109 
L 494 744 
Q 775 591 1075 516 
Q 1375 441 1709 441 
Q 2250 441 2565 725 
Q 2881 1009 2881 1497 
Q 2881 1984 2565 2268 
Q 2250 2553 1709 2553 
Q 1456 2553 1204 2497 
Q 953 2441 691 2322 
L 691 4666 
z
" transform="scale(0.015625)"/>
       </defs>
       <use xlink:href="#DejaVuSans-35"/>
       <use xlink:href="#DejaVuSans-30" x="63.623047"/>
       <use xlink:href="#DejaVuSans-30" x="127.246094"/>
      </g>
     </g>
    </g>
    <g id="xtick_6">
     <g id="line2d_6">
      <g>
       <use xlink:href="#md7ddb445cc" x="897.433643" y="384.48" style="stroke: #000000; stroke-width: 0.8"/>
      </g>
     </g>
     <g id="text_6">
      <!-- 600 -->
      <g transform="translate(887.889893 399.078438) scale(0.1 -0.1)">
       <defs>
        <path id="DejaVuSans-36" d="M 2113 2584 
Q 1688 2584 1439 2293 
Q 1191 2003 1191 1497 
Q 1191 994 1439 701 
Q 1688 409 2113 409 
Q 2538 409 2786 701 
Q 3034 994 3034 1497 
Q 3034 2003 2786 2293 
Q 2538 2584 2113 2584 
z
M 3366 4563 
L 3366 3988 
Q 3128 4100 2886 4159 
Q 2644 4219 2406 4219 
Q 1781 4219 1451 3797 
Q 1122 3375 1075 2522 
Q 1259 2794 1537 2939 
Q 1816 3084 2150 3084 
Q 2853 3084 3261 2657 
Q 3669 2231 3669 1497 
Q 3669 778 3244 343 
Q 2819 -91 2113 -91 
Q 1303 -91 875 529 
Q 447 1150 447 2328 
Q 447 3434 972 4092 
Q 1497 4750 2381 4750 
Q 2619 4750 2861 4703 
Q 3103 4656 3366 4563 
z
" transform="scale(0.015625)"/>
       </defs>
       <use xlink:href="#DejaVuSans-36"/>
       <use xlink:href="#DejaVuSans-30" x="63.623047"/>
       <use xlink:href="#DejaVuSans-30" x="127.246094"/>
      </g>
     </g>
    </g>
    <g id="xtick_7">
     <g id="line2d_7">
      <g>
       <use xlink:href="#md7ddb445cc" x="1023.215554" y="384.48" style="stroke: #000000; stroke-width: 0.8"/>
      </g>
     </g>
     <g id="text_7">
      <!-- 700 -->
      <g transform="translate(1013.671804 399.078438) scale(0.1 -0.1)">
       <defs>
        <path id="DejaVuSans-37" d="M 525 4666 
L 3525 4666 
L 3525 4397 
L 1831 0 
L 1172 0 
L 2766 4134 
L 525 4134 
L 525 4666 
z
" transform="scale(0.015625)"/>
       </defs>
       <use xlink:href="#DejaVuSans-37"/>
       <use xlink:href="#DejaVuSans-30" x="63.623047"/>
       <use xlink:href="#DejaVuSans-30" x="127.246094"/>
      </g>
     </g>
    </g>
    <g id="text_8">
     <!-- Residual -->
     <g transform="translate(569.284375 412.756563) scale(0.1 -0.1)">
      <defs>
       <path id="DejaVuSans-52" d="M 2841 2188 
Q 3044 2119 3236 1894 
Q 3428 1669 3622 1275 
L 4263 0 
L 3584 0 
L 2988 1197 
Q 2756 1666 2539 1819 
Q 2322 1972 1947 1972 
L 1259 1972 
L 1259 0 
L 628 0 
L 628 4666 
L 2053 4666 
Q 2853 4666 3247 4331 
Q 3641 3997 3641 3322 
Q 3641 2881 3436 2590 
Q 3231 2300 2841 2188 
z
M 1259 4147 
L 1259 2491 
L 2053 2491 
Q 2509 2491 2742 2702 
Q 2975 2913 2975 3322 
Q 2975 3731 2742 3939 
Q 2509 4147 2053 4147 
L 1259 4147 
z
" transform="scale(0.015625)"/>
       <path id="DejaVuSans-65" d="M 3597 1894 
L 3597 1613 
L 953 1613 
Q 991 1019 1311 708 
Q 1631 397 2203 397 
Q 2534 397 2845 478 
Q 3156 559 3463 722 
L 3463 178 
Q 3153 47 2828 -22 
Q 2503 -91 2169 -91 
Q 1331 -91 842 396 
Q 353 884 353 1716 
Q 353 2575 817 3079 
Q 1281 3584 2069 3584 
Q 2775 3584 3186 3129 
Q 3597 2675 3597 1894 
z
M 3022 2063 
Q 3016 2534 2758 2815 
Q 2500 3097 2075 3097 
Q 1594 3097 1305 2825 
Q 1016 2553 972 2059 
L 3022 2063 
z
" transform="scale(0.015625)"/>
       <path id="DejaVuSans-73" d="M 2834 3397 
L 2834 2853 
Q 2591 2978 2328 3040 
Q 2066 3103 1784 3103 
Q 1356 3103 1142 2972 
Q 928 2841 928 2578 
Q 928 2378 1081 2264 
Q 1234 2150 1697 2047 
L 1894 2003 
Q 2506 1872 2764 1633 
Q 3022 1394 3022 966 
Q 3022 478 2636 193 
Q 2250 -91 1575 -91 
Q 1294 -91 989 -36 
Q 684 19 347 128 
L 347 722 
Q 666 556 975 473 
Q 1284 391 1588 391 
Q 1994 391 2212 530 
Q 2431 669 2431 922 
Q 2431 1156 2273 1281 
Q 2116 1406 1581 1522 
L 1381 1569 
Q 847 1681 609 1914 
Q 372 2147 372 2553 
Q 372 3047 722 3315 
Q 1072 3584 1716 3584 
Q 2034 3584 2315 3537 
Q 2597 3491 2834 3397 
z
" transform="scale(0.015625)"/>
       <path id="DejaVuSans-69" d="M 603 3500 
L 1178 3500 
L 1178 0 
L 603 0 
L 603 3500 
z
M 603 4863 
L 1178 4863 
L 1178 4134 
L 603 4134 
L 603 4863 
z
" transform="scale(0.015625)"/>
       <path id="DejaVuSans-64" d="M 2906 2969 
L 2906 4863 
L 3481 4863 
L 3481 0 
L 2906 0 
L 2906 525 
Q 2725 213 2448 61 
Q 2172 -91 1784 -91 
Q 1150 -91 751 415 
Q 353 922 353 1747 
Q 353 2572 751 3078 
Q 1150 3584 1784 3584 
Q 2172 3584 2448 3432 
Q 2725 3281 2906 2969 
z
M 947 1747 
Q 947 1113 1208 752 
Q 1469 391 1925 391 
Q 2381 391 2643 752 
Q 2906 1113 2906 1747 
Q 2906 2381 2643 2742 
Q 2381 3103 1925 3103 
Q 1469 3103 1208 2742 
Q 947 2381 947 1747 
z
" transform="scale(0.015625)"/>
       <path id="DejaVuSans-75" d="M 544 1381 
L 544 3500 
L 1119 3500 
L 1119 1403 
Q 1119 906 1312 657 
Q 1506 409 1894 409 
Q 2359 409 2629 706 
Q 2900 1003 2900 1516 
L 2900 3500 
L 3475 3500 
L 3475 0 
L 2900 0 
L 2900 538 
Q 2691 219 2414 64 
Q 2138 -91 1772 -91 
Q 1169 -91 856 284 
Q 544 659 544 1381 
z
M 1991 3584 
L 1991 3584 
z
" transform="scale(0.015625)"/>
       <path id="DejaVuSans-61" d="M 2194 1759 
Q 1497 1759 1228 1600 
Q 959 1441 959 1056 
Q 959 750 1161 570 
Q 1363 391 1709 391 
Q 2188 391 2477 730 
Q 2766 1069 2766 1631 
L 2766 1759 
L 2194 1759 
z
M 3341 1997 
L 3341 0 
L 2766 0 
L 2766 531 
Q 2569 213 2275 61 
Q 1981 -91 1556 -91 
Q 1019 -91 701 211 
Q 384 513 384 1019 
Q 384 1609 779 1909 
Q 1175 2209 1959 2209 
L 2766 2209 
L 2766 2266 
Q 2766 2663 2505 2880 
Q 2244 3097 1772 3097 
Q 1472 3097 1187 3025 
Q 903 2953 641 2809 
L 641 3341 
Q 956 3463 1253 3523 
Q 1550 3584 1831 3584 
Q 2591 3584 2966 3190 
Q 3341 2797 3341 1997 
z
" transform="scale(0.015625)"/>
       <path id="DejaVuSans-6c" d="M 603 4863 
L 1178 4863 
L 1178 0 
L 603 0 
L 603 4863 
z
" transform="scale(0.015625)"/>
      </defs>
      <use xlink:href="#DejaVuSans-52"/>
      <use xlink:href="#DejaVuSans-65" x="64.982422"/>
      <use xlink:href="#DejaVuSans-73" x="126.505859"/>
      <use xlink:href="#DejaVuSans-69" x="178.605469"/>
      <use xlink:href="#DejaVuSans-64" x="206.388672"/>
      <use xlink:href="#DejaVuSans-75" x="269.865234"/>
      <use xlink:href="#DejaVuSans-61" x="333.244141"/>
      <use xlink:href="#DejaVuSans-6c" x="394.523438"/>
     </g>
    </g>
   </g>
   <g id="matplotlib.axis_2">
    <g id="ytick_1">
     <g id="line2d_8">
      <defs>
       <path id="mbe47047b4a" d="M 0 0 
L -3.5 0 
" style="stroke: #000000; stroke-width: 0.8"/>
      </defs>
      <g>
       <use xlink:href="#mbe47047b4a" x="144" y="365.884138" style="stroke: #000000; stroke-width: 0.8"/>
      </g>
     </g>
     <g id="text_9">
      <!-- 1.C.59.1.1 -->
      <g transform="translate(85.492188 369.683357) scale(0.1 -0.1)">
       <defs>
        <path id="DejaVuSans-2e" d="M 684 794 
L 1344 794 
L 1344 0 
L 684 0 
L 684 794 
z
" transform="scale(0.015625)"/>
        <path id="DejaVuSans-43" d="M 4122 4306 
L 4122 3641 
Q 3803 3938 3442 4084 
Q 3081 4231 2675 4231 
Q 1875 4231 1450 3742 
Q 1025 3253 1025 2328 
Q 1025 1406 1450 917 
Q 1875 428 2675 428 
Q 3081 428 3442 575 
Q 3803 722 4122 1019 
L 4122 359 
Q 3791 134 3420 21 
Q 3050 -91 2638 -91 
Q 1578 -91 968 557 
Q 359 1206 359 2328 
Q 359 3453 968 4101 
Q 1578 4750 2638 4750 
Q 3056 4750 3426 4639 
Q 3797 4528 4122 4306 
z
" transform="scale(0.015625)"/>
        <path id="DejaVuSans-39" d="M 703 97 
L 703 672 
Q 941 559 1184 500 
Q 1428 441 1663 441 
Q 2288 441 2617 861 
Q 2947 1281 2994 2138 
Q 2813 1869 2534 1725 
Q 2256 1581 1919 1581 
Q 1219 1581 811 2004 
Q 403 2428 403 3163 
Q 403 3881 828 4315 
Q 1253 4750 1959 4750 
Q 2769 4750 3195 4129 
Q 3622 3509 3622 2328 
Q 3622 1225 3098 567 
Q 2575 -91 1691 -91 
Q 1453 -91 1209 -44 
Q 966 3 703 97 
z
M 1959 2075 
Q 2384 2075 2632 2365 
Q 2881 2656 2881 3163 
Q 2881 3666 2632 3958 
Q 2384 4250 1959 4250 
Q 1534 4250 1286 3958 
Q 1038 3666 1038 3163 
Q 1038 2656 1286 2365 
Q 1534 2075 1959 2075 
z
" transform="scale(0.015625)"/>
       </defs>
       <use xlink:href="#DejaVuSans-31"/>
       <use xlink:href="#DejaVuSans-2e" x="63.623047"/>
       <use xlink:href="#DejaVuSans-43" x="95.410156"/>
       <use xlink:href="#DejaVuSans-2e" x="165.234375"/>
       <use xlink:href="#DejaVuSans-35" x="197.021484"/>
       <use xlink:href="#DejaVuSans-39" x="260.644531"/>
       <use xlink:href="#DejaVuSans-2e" x="324.267578"/>
       <use xlink:href="#DejaVuSans-31" x="356.054688"/>
       <use xlink:href="#DejaVuSans-2e" x="419.677734"/>
       <use xlink:href="#DejaVuSans-31" x="451.464844"/>
      </g>
     </g>
    </g>
    <g id="ytick_2">
     <g id="line2d_9">
      <g>
       <use xlink:href="#mbe47047b4a" x="144" y="348.504828" style="stroke: #000000; stroke-width: 0.8"/>
      </g>
     </g>
     <g id="text_10">
      <!-- 1.C.59.2.1 -->
      <g transform="translate(85.492188 352.304046) scale(0.1 -0.1)">
       <use xlink:href="#DejaVuSans-31"/>
       <use xlink:href="#DejaVuSans-2e" x="63.623047"/>
       <use xlink:href="#DejaVuSans-43" x="95.410156"/>
       <use xlink:href="#DejaVuSans-2e" x="165.234375"/>
       <use xlink:href="#DejaVuSans-35" x="197.021484"/>
       <use xlink:href="#DejaVuSans-39" x="260.644531"/>
       <use xlink:href="#DejaVuSans-2e" x="324.267578"/>
       <use xlink:href="#DejaVuSans-32" x="356.054688"/>
       <use xlink:href="#DejaVuSans-2e" x="419.677734"/>
       <use xlink:href="#DejaVuSans-31" x="451.464844"/>
      </g>
     </g>
    </g>
    <g id="ytick_3">
     <g id="line2d_10">
      <g>
       <use xlink:href="#mbe47047b4a" x="144" y="331.125517" style="stroke: #000000; stroke-width: 0.8"/>
      </g>
     </g>
     <g id="text_11">
      <!-- 1.C.59.3.1 -->
      <g transform="translate(85.492188 334.924736) scale(0.1 -0.1)">
       <use xlink:href="#DejaVuSans-31"/>
       <use xlink:href="#DejaVuSans-2e" x="63.623047"/>
       <use xlink:href="#DejaVuSans-43" x="95.410156"/>
       <use xlink:href="#DejaVuSans-2e" x="165.234375"/>
       <use xlink:href="#DejaVuSans-35" x="197.021484"/>
       <use xlink:href="#DejaVuSans-39" x="260.644531"/>
       <use xlink:href="#DejaVuSans-2e" x="324.267578"/>
       <use xlink:href="#DejaVuSans-33" x="356.054688"/>
       <use xlink:href="#DejaVuSans-2e" x="419.677734"/>
       <use xlink:href="#DejaVuSans-31" x="451.464844"/>
      </g>
     </g>
    </g>
    <g id="ytick_4">
     <g id="line2d_11">
      <g>
       <use xlink:href="#mbe47047b4a" x="144" y="313.746207" style="stroke: #000000; stroke-width: 0.8"/>
      </g>
     </g>
     <g id="text_12">
      <!-- 1.C.59.3.2 -->
      <g transform="translate(85.492188 317.545426) scale(0.1 -0.1)">
       <use xlink:href="#DejaVuSans-31"/>
       <use xlink:href="#DejaVuSans-2e" x="63.623047"/>
       <use xlink:href="#DejaVuSans-43" x="95.410156"/>
       <use xlink:href="#DejaVuSans-2e" x="165.234375"/>
       <use xlink:href="#DejaVuSans-35" x="197.021484"/>
       <use xlink:href="#DejaVuSans-39" x="260.644531"/>
       <use xlink:href="#DejaVuSans-2e" x="324.267578"/>
       <use xlink:href="#DejaVuSans-33" x="356.054688"/>
       <use xlink:href="#DejaVuSans-2e" x="419.677734"/>
       <use xlink:href="#DejaVuSans-32" x="451.464844"/>
      </g>
     </g>
    </g>
    <g id="ytick_5">
     <g id="line2d_12">
      <g>
       <use xlink:href="#mbe47047b4a" x="144" y="296.366897" style="stroke: #000000; stroke-width: 0.8"/>
      </g>
     </g>
     <g id="text_13">
      <!-- 1.C.59.3.3 -->
      <g transform="translate(85.492188 300.166115) scale(0.1 -0.1)">
       <use xlink:href="#DejaVuSans-31"/>
       <use xlink:href="#DejaVuSans-2e" x="63.623047"/>
       <use xlink:href="#DejaVuSans-43" x="95.410156"/>
       <use xlink:href="#DejaVuSans-2e" x="165.234375"/>
       <use xlink:href="#DejaVuSans-35" x="197.021484"/>
       <use xlink:href="#DejaVuSans-39" x="260.644531"/>
       <use xlink:href="#DejaVuSans-2e" x="324.267578"/>
       <use xlink:href="#DejaVuSans-33" x="356.054688"/>
       <use xlink:href="#DejaVuSans-2e" x="419.677734"/>
       <use xlink:href="#DejaVuSans-33" x="451.464844"/>
      </g>
     </g>
    </g>
    <g id="ytick_6">
     <g id="line2d_13">
      <g>
       <use xlink:href="#mbe47047b4a" x="144" y="278.987586" style="stroke: #000000; stroke-width: 0.8"/>
      </g>
     </g>
     <g id="text_14">
      <!-- 1.C.59.4.1 -->
      <g transform="translate(85.492188 282.786805) scale(0.1 -0.1)">
       <use xlink:href="#DejaVuSans-31"/>
       <use xlink:href="#DejaVuSans-2e" x="63.623047"/>
       <use xlink:href="#DejaVuSans-43" x="95.410156"/>
       <use xlink:href="#DejaVuSans-2e" x="165.234375"/>
       <use xlink:href="#DejaVuSans-35" x="197.021484"/>
       <use xlink:href="#DejaVuSans-39" x="260.644531"/>
       <use xlink:href="#DejaVuSans-2e" x="324.267578"/>
       <use xlink:href="#DejaVuSans-34" x="356.054688"/>
       <use xlink:href="#DejaVuSans-2e" x="419.677734"/>
       <use xlink:href="#DejaVuSans-31" x="451.464844"/>
      </g>
     </g>
    </g>
    <g id="ytick_7">
     <g id="line2d_14">
      <g>
       <use xlink:href="#mbe47047b4a" x="144" y="261.608276" style="stroke: #000000; stroke-width: 0.8"/>
      </g>
     </g>
     <g id="text_15">
      <!-- 1.C.59.4.2 -->
      <g transform="translate(85.492188 265.407495) scale(0.1 -0.1)">
       <use xlink:href="#DejaVuSans-31"/>
       <use xlink:href="#DejaVuSans-2e" x="63.623047"/>
       <use xlink:href="#DejaVuSans-43" x="95.410156"/>
       <use xlink:href="#DejaVuSans-2e" x="165.234375"/>
       <use xlink:href="#DejaVuSans-35" x="197.021484"/>
       <use xlink:href="#DejaVuSans-39" x="260.644531"/>
       <use xlink:href="#DejaVuSans-2e" x="324.267578"/>
       <use xlink:href="#DejaVuSans-34" x="356.054688"/>
       <use xlink:href="#DejaVuSans-2e" x="419.677734"/>
       <use xlink:href="#DejaVuSans-32" x="451.464844"/>
      </g>
     </g>
    </g>
    <g id="ytick_8">
     <g id="line2d_15">
      <g>
       <use xlink:href="#mbe47047b4a" x="144" y="244.228966" style="stroke: #000000; stroke-width: 0.8"/>
      </g>
     </g>
     <g id="text_16">
      <!-- 1.C.59.4.3 -->
      <g transform="translate(85.492188 248.028184) scale(0.1 -0.1)">
       <use xlink:href="#DejaVuSans-31"/>
       <use xlink:href="#DejaVuSans-2e" x="63.623047"/>
       <use xlink:href="#DejaVuSans-43" x="95.410156"/>
       <use xlink:href="#DejaVuSans-2e" x="165.234375"/>
       <use xlink:href="#DejaVuSans-35" x="197.021484"/>
       <use xlink:href="#DejaVuSans-39" x="260.644531"/>
       <use xlink:href="#DejaVuSans-2e" x="324.267578"/>
       <use xlink:href="#DejaVuSans-34" x="356.054688"/>
       <use xlink:href="#DejaVuSans-2e" x="419.677734"/>
       <use xlink:href="#DejaVuSans-33" x="451.464844"/>
      </g>
     </g>
    </g>
    <g id="ytick_9">
     <g id="line2d_16">
      <g>
       <use xlink:href="#mbe47047b4a" x="144" y="226.849655" style="stroke: #000000; stroke-width: 0.8"/>
      </g>
     </g>
     <g id="text_17">
      <!-- 1.C.59.4.4 -->
      <g transform="translate(85.492188 230.648874) scale(0.1 -0.1)">
       <use xlink:href="#DejaVuSans-31"/>
       <use xlink:href="#DejaVuSans-2e" x="63.623047"/>
       <use xlink:href="#DejaVuSans-43" x="95.410156"/>
       <use xlink:href="#DejaVuSans-2e" x="165.234375"/>
       <use xlink:href="#DejaVuSans-35" x="197.021484"/>
       <use xlink:href="#DejaVuSans-39" x="260.644531"/>
       <use xlink:href="#DejaVuSans-2e" x="324.267578"/>
       <use xlink:href="#DejaVuSans-34" x="356.054688"/>
       <use xlink:href="#DejaVuSans-2e" x="419.677734"/>
       <use xlink:href="#DejaVuSans-34" x="451.464844"/>
      </g>
     </g>
    </g>
    <g id="ytick_10">
     <g id="line2d_17">
      <g>
       <use xlink:href="#mbe47047b4a" x="144" y="209.470345" style="stroke: #000000; stroke-width: 0.8"/>
      </g>
     </g>
     <g id="text_18">
      <!-- 1.C.59.5.1 -->
      <g transform="translate(85.492188 213.269564) scale(0.1 -0.1)">
       <use xlink:href="#DejaVuSans-31"/>
       <use xlink:href="#DejaVuSans-2e" x="63.623047"/>
       <use xlink:href="#DejaVuSans-43" x="95.410156"/>
       <use xlink:href="#DejaVuSans-2e" x="165.234375"/>
       <use xlink:href="#DejaVuSans-35" x="197.021484"/>
       <use xlink:href="#DejaVuSans-39" x="260.644531"/>
       <use xlink:href="#DejaVuSans-2e" x="324.267578"/>
       <use xlink:href="#DejaVuSans-35" x="356.054688"/>
       <use xlink:href="#DejaVuSans-2e" x="419.677734"/>
       <use xlink:href="#DejaVuSans-31" x="451.464844"/>
      </g>
     </g>
    </g>
    <g id="ytick_11">
     <g id="line2d_18">
      <g>
       <use xlink:href="#mbe47047b4a" x="144" y="192.091034" style="stroke: #000000; stroke-width: 0.8"/>
      </g>
     </g>
     <g id="text_19">
      <!-- 1.C.59.5.2 -->
      <g transform="translate(85.492188 195.890253) scale(0.1 -0.1)">
       <use xlink:href="#DejaVuSans-31"/>
       <use xlink:href="#DejaVuSans-2e" x="63.623047"/>
       <use xlink:href="#DejaVuSans-43" x="95.410156"/>
       <use xlink:href="#DejaVuSans-2e" x="165.234375"/>
       <use xlink:href="#DejaVuSans-35" x="197.021484"/>
       <use xlink:href="#DejaVuSans-39" x="260.644531"/>
       <use xlink:href="#DejaVuSans-2e" x="324.267578"/>
       <use xlink:href="#DejaVuSans-35" x="356.054688"/>
       <use xlink:href="#DejaVuSans-2e" x="419.677734"/>
       <use xlink:href="#DejaVuSans-32" x="451.464844"/>
      </g>
     </g>
    </g>
    <g id="ytick_12">
     <g id="line2d_19">
      <g>
       <use xlink:href="#mbe47047b4a" x="144" y="174.711724" style="stroke: #000000; stroke-width: 0.8"/>
      </g>
     </g>
     <g id="text_20">
      <!-- 1.C.59.5.3 -->
      <g transform="translate(85.492188 178.510943) scale(0.1 -0.1)">
       <use xlink:href="#DejaVuSans-31"/>
       <use xlink:href="#DejaVuSans-2e" x="63.623047"/>
       <use xlink:href="#DejaVuSans-43" x="95.410156"/>
       <use xlink:href="#DejaVuSans-2e" x="165.234375"/>
       <use xlink:href="#DejaVuSans-35" x="197.021484"/>
       <use xlink:href="#DejaVuSans-39" x="260.644531"/>
       <use xlink:href="#DejaVuSans-2e" x="324.267578"/>
       <use xlink:href="#DejaVuSans-35" x="356.054688"/>
       <use xlink:href="#DejaVuSans-2e" x="419.677734"/>
       <use xlink:href="#DejaVuSans-33" x="451.464844"/>
      </g>
     </g>
    </g>
    <g id="ytick_13">
     <g id="line2d_20">
      <g>
       <use xlink:href="#mbe47047b4a" x="144" y="157.332414" style="stroke: #000000; stroke-width: 0.8"/>
      </g>
     </g>
     <g id="text_21">
      <!-- 1.C.59.5.4 -->
      <g transform="translate(85.492188 161.131633) scale(0.1 -0.1)">
       <use xlink:href="#DejaVuSans-31"/>
       <use xlink:href="#DejaVuSans-2e" x="63.623047"/>
       <use xlink:href="#DejaVuSans-43" x="95.410156"/>
       <use xlink:href="#DejaVuSans-2e" x="165.234375"/>
       <use xlink:href="#DejaVuSans-35" x="197.021484"/>
       <use xlink:href="#DejaVuSans-39" x="260.644531"/>
       <use xlink:href="#DejaVuSans-2e" x="324.267578"/>
       <use xlink:href="#DejaVuSans-35" x="356.054688"/>
       <use xlink:href="#DejaVuSans-2e" x="419.677734"/>
       <use xlink:href="#DejaVuSans-34" x="451.464844"/>
      </g>
     </g>
    </g>
    <g id="ytick_14">
     <g id="line2d_21">
      <g>
       <use xlink:href="#mbe47047b4a" x="144" y="139.953103" style="stroke: #000000; stroke-width: 0.8"/>
      </g>
     </g>
     <g id="text_22">
      <!-- 1.C.59.5.5 -->
      <g transform="translate(85.492188 143.752322) scale(0.1 -0.1)">
       <use xlink:href="#DejaVuSans-31"/>
       <use xlink:href="#DejaVuSans-2e" x="63.623047"/>
       <use xlink:href="#DejaVuSans-43" x="95.410156"/>
       <use xlink:href="#DejaVuSans-2e" x="165.234375"/>
       <use xlink:href="#DejaVuSans-35" x="197.021484"/>
       <use xlink:href="#DejaVuSans-39" x="260.644531"/>
       <use xlink:href="#DejaVuSans-2e" x="324.267578"/>
       <use xlink:href="#DejaVuSans-35" x="356.054688"/>
       <use xlink:href="#DejaVuSans-2e" x="419.677734"/>
       <use xlink:href="#DejaVuSans-35" x="451.464844"/>
      </g>
     </g>
    </g>
    <g id="ytick_15">
     <g id="line2d_22">
      <g>
       <use xlink:href="#mbe47047b4a" x="144" y="122.573793" style="stroke: #000000; stroke-width: 0.8"/>
      </g>
     </g>
     <g id="text_23">
      <!-- 1.C.59.5.6 -->
      <g transform="translate(85.492188 126.373012) scale(0.1 -0.1)">
       <use xlink:href="#DejaVuSans-31"/>
       <use xlink:href="#DejaVuSans-2e" x="63.623047"/>
       <use xlink:href="#DejaVuSans-43" x="95.410156"/>
       <use xlink:href="#DejaVuSans-2e" x="165.234375"/>
       <use xlink:href="#DejaVuSans-35" x="197.021484"/>
       <use xlink:href="#DejaVuSans-39" x="260.644531"/>
       <use xlink:href="#DejaVuSans-2e" x="324.267578"/>
       <use xlink:href="#DejaVuSans-35" x="356.054688"/>
       <use xlink:href="#DejaVuSans-2e" x="419.677734"/>
       <use xlink:href="#DejaVuSans-36" x="451.464844"/>
      </g>
     </g>
    </g>
    <g id="ytick_16">
     <g id="line2d_23">
      <g>
       <use xlink:href="#mbe47047b4a" x="144" y="105.194483" style="stroke: #000000; stroke-width: 0.8"/>
      </g>
     </g>
     <g id="text_24">
      <!-- 1.C.59.5.7 -->
      <g transform="translate(85.492188 108.993702) scale(0.1 -0.1)">
       <use xlink:href="#DejaVuSans-31"/>
       <use xlink:href="#DejaVuSans-2e" x="63.623047"/>
       <use xlink:href="#DejaVuSans-43" x="95.410156"/>
       <use xlink:href="#DejaVuSans-2e" x="165.234375"/>
       <use xlink:href="#DejaVuSans-35" x="197.021484"/>
       <use xlink:href="#DejaVuSans-39" x="260.644531"/>
       <use xlink:href="#DejaVuSans-2e" x="324.267578"/>
       <use xlink:href="#DejaVuSans-35" x="356.054688"/>
       <use xlink:href="#DejaVuSans-2e" x="419.677734"/>
       <use xlink:href="#DejaVuSans-37" x="451.464844"/>
      </g>
     </g>
    </g>
    <g id="ytick_17">
     <g id="line2d_24">
      <g>
       <use xlink:href="#mbe47047b4a" x="144" y="87.815172" style="stroke: #000000; stroke-width: 0.8"/>
      </g>
     </g>
     <g id="text_25">
      <!-- 1.C.59.5.8 -->
      <g transform="translate(85.492188 91.614391) scale(0.1 -0.1)">
       <defs>
        <path id="DejaVuSans-38" d="M 2034 2216 
Q 1584 2216 1326 1975 
Q 1069 1734 1069 1313 
Q 1069 891 1326 650 
Q 1584 409 2034 409 
Q 2484 409 2743 651 
Q 3003 894 3003 1313 
Q 3003 1734 2745 1975 
Q 2488 2216 2034 2216 
z
M 1403 2484 
Q 997 2584 770 2862 
Q 544 3141 544 3541 
Q 544 4100 942 4425 
Q 1341 4750 2034 4750 
Q 2731 4750 3128 4425 
Q 3525 4100 3525 3541 
Q 3525 3141 3298 2862 
Q 3072 2584 2669 2484 
Q 3125 2378 3379 2068 
Q 3634 1759 3634 1313 
Q 3634 634 3220 271 
Q 2806 -91 2034 -91 
Q 1263 -91 848 271 
Q 434 634 434 1313 
Q 434 1759 690 2068 
Q 947 2378 1403 2484 
z
M 1172 3481 
Q 1172 3119 1398 2916 
Q 1625 2713 2034 2713 
Q 2441 2713 2670 2916 
Q 2900 3119 2900 3481 
Q 2900 3844 2670 4047 
Q 2441 4250 2034 4250 
Q 1625 4250 1398 4047 
Q 1172 3844 1172 3481 
z
" transform="scale(0.015625)"/>
       </defs>
       <use xlink:href="#DejaVuSans-31"/>
       <use xlink:href="#DejaVuSans-2e" x="63.623047"/>
       <use xlink:href="#DejaVuSans-43" x="95.410156"/>
       <use xlink:href="#DejaVuSans-2e" x="165.234375"/>
       <use xlink:href="#DejaVuSans-35" x="197.021484"/>
       <use xlink:href="#DejaVuSans-39" x="260.644531"/>
       <use xlink:href="#DejaVuSans-2e" x="324.267578"/>
       <use xlink:href="#DejaVuSans-35" x="356.054688"/>
       <use xlink:href="#DejaVuSans-2e" x="419.677734"/>
       <use xlink:href="#DejaVuSans-38" x="451.464844"/>
      </g>
     </g>
    </g>
    <g id="ytick_18">
     <g id="line2d_25">
      <g>
       <use xlink:href="#mbe47047b4a" x="144" y="70.435862" style="stroke: #000000; stroke-width: 0.8"/>
      </g>
     </g>
     <g id="text_26">
      <!-- 1.C.59.5.9 -->
      <g transform="translate(85.492188 74.235081) scale(0.1 -0.1)">
       <use xlink:href="#DejaVuSans-31"/>
       <use xlink:href="#DejaVuSans-2e" x="63.623047"/>
       <use xlink:href="#DejaVuSans-43" x="95.410156"/>
       <use xlink:href="#DejaVuSans-2e" x="165.234375"/>
       <use xlink:href="#DejaVuSans-35" x="197.021484"/>
       <use xlink:href="#DejaVuSans-39" x="260.644531"/>
       <use xlink:href="#DejaVuSans-2e" x="324.267578"/>
       <use xlink:href="#DejaVuSans-35" x="356.054688"/>
       <use xlink:href="#DejaVuSans-2e" x="419.677734"/>
       <use xlink:href="#DejaVuSans-39" x="451.464844"/>
      </g>
     </g>
    </g>
   </g>
   <g id="patch_119">
    <path d="M 144 384.48 
L 144 51.84 
" style="fill: none; stroke: #000000; stroke-width: 0.8; stroke-linejoin: miter; stroke-linecap: square"/>
   </g>
   <g id="patch_120">
    <path d="M 1036.8 384.48 
L 1036.8 51.84 
" style="fill: none; stroke: #000000; stroke-width: 0.8; stroke-linejoin: miter; stroke-linecap: square"/>
   </g>
   <g id="patch_121">
    <path d="M 144 384.48 
L 1036.8 384.48 
" style="fill: none; stroke: #000000; stroke-width: 0.8; stroke-linejoin: miter; stroke-linecap: square"/>
   </g>
   <g id="patch_122">
    <path d="M 144 51.84 
L 1036.8 51.84 
" style="fill: none; stroke: #000000; stroke-width: 0.8; stroke-linejoin: miter; stroke-linecap: square"/>
   </g>
   <g id="text_27">
    <!-- 1.C.59 Summary -->
    <g transform="translate(540.042187 45.84) scale(0.12 -0.12)">
     <defs>
      <path id="DejaVuSans-20" transform="scale(0.015625)"/>
      <path id="DejaVuSans-53" d="M 3425 4513 
L 3425 3897 
Q 3066 4069 2747 4153 
Q 2428 4238 2131 4238 
Q 1616 4238 1336 4038 
Q 1056 3838 1056 3469 
Q 1056 3159 1242 3001 
Q 1428 2844 1947 2747 
L 2328 2669 
Q 3034 2534 3370 2195 
Q 3706 1856 3706 1288 
Q 3706 609 3251 259 
Q 2797 -91 1919 -91 
Q 1588 -91 1214 -16 
Q 841 59 441 206 
L 441 856 
Q 825 641 1194 531 
Q 1563 422 1919 422 
Q 2459 422 2753 634 
Q 3047 847 3047 1241 
Q 3047 1584 2836 1778 
Q 2625 1972 2144 2069 
L 1759 2144 
Q 1053 2284 737 2584 
Q 422 2884 422 3419 
Q 422 4038 858 4394 
Q 1294 4750 2059 4750 
Q 2388 4750 2728 4690 
Q 3069 4631 3425 4513 
z
" transform="scale(0.015625)"/>
      <path id="DejaVuSans-6d" d="M 3328 2828 
Q 3544 3216 3844 3400 
Q 4144 3584 4550 3584 
Q 5097 3584 5394 3201 
Q 5691 2819 5691 2113 
L 5691 0 
L 5113 0 
L 5113 2094 
Q 5113 2597 4934 2840 
Q 4756 3084 4391 3084 
Q 3944 3084 3684 2787 
Q 3425 2491 3425 1978 
L 3425 0 
L 2847 0 
L 2847 2094 
Q 2847 2600 2669 2842 
Q 2491 3084 2119 3084 
Q 1678 3084 1418 2786 
Q 1159 2488 1159 1978 
L 1159 0 
L 581 0 
L 581 3500 
L 1159 3500 
L 1159 2956 
Q 1356 3278 1631 3431 
Q 1906 3584 2284 3584 
Q 2666 3584 2933 3390 
Q 3200 3197 3328 2828 
z
" transform="scale(0.015625)"/>
      <path id="DejaVuSans-72" d="M 2631 2963 
Q 2534 3019 2420 3045 
Q 2306 3072 2169 3072 
Q 1681 3072 1420 2755 
Q 1159 2438 1159 1844 
L 1159 0 
L 581 0 
L 581 3500 
L 1159 3500 
L 1159 2956 
Q 1341 3275 1631 3429 
Q 1922 3584 2338 3584 
Q 2397 3584 2469 3576 
Q 2541 3569 2628 3553 
L 2631 2963 
z
" transform="scale(0.015625)"/>
      <path id="DejaVuSans-79" d="M 2059 -325 
Q 1816 -950 1584 -1140 
Q 1353 -1331 966 -1331 
L 506 -1331 
L 506 -850 
L 844 -850 
Q 1081 -850 1212 -737 
Q 1344 -625 1503 -206 
L 1606 56 
L 191 3500 
L 800 3500 
L 1894 763 
L 2988 3500 
L 3597 3500 
L 2059 -325 
z
" transform="scale(0.015625)"/>
     </defs>
     <use xlink:href="#DejaVuSans-31"/>
     <use xlink:href="#DejaVuSans-2e" x="63.623047"/>
     <use xlink:href="#DejaVuSans-43" x="95.410156"/>
     <use xlink:href="#DejaVuSans-2e" x="165.234375"/>
     <use xlink:href="#DejaVuSans-35" x="197.021484"/>
     <use xlink:href="#DejaVuSans-39" x="260.644531"/>
     <use xlink:href="#DejaVuSans-20" x="324.267578"/>
     <use xlink:href="#DejaVuSans-53" x="356.054688"/>
     <use xlink:href="#DejaVuSans-75" x="419.53125"/>
     <use xlink:href="#DejaVuSans-6d" x="482.910156"/>
     <use xlink:href="#DejaVuSans-6d" x="580.322266"/>
     <use xlink:href="#DejaVuSans-61" x="677.734375"/>
     <use xlink:href="#DejaVuSans-72" x="739.013672"/>
     <use xlink:href="#DejaVuSans-79" x="780.126953"/>
    </g>
   </g>
  </g>
 </g>
 <defs>
  <clipPath id="p07a9e63c97">
   <rect x="144" y="51.84" width="892.8" height="332.64"/>
  </clipPath>
 </defs>
</svg>
