<?xml version="1.0" encoding="utf-8" standalone="no"?>
<!DOCTYPE svg PUBLIC "-//W3C//DTD SVG 1.1//EN"
  "http://www.w3.org/Graphics/SVG/1.1/DTD/svg11.dtd">
<svg xmlns:xlink="http://www.w3.org/1999/xlink" width="1152pt" height="90pt" viewBox="0 0 1152 90" xmlns="http://www.w3.org/2000/svg" version="1.1">
 <metadata>
  <rdf:RDF xmlns:dc="http://purl.org/dc/elements/1.1/" xmlns:cc="http://creativecommons.org/ns#" xmlns:rdf="http://www.w3.org/1999/02/22-rdf-syntax-ns#">
   <cc:Work>
    <dc:type rdf:resource="http://purl.org/dc/dcmitype/StillImage"/>
    <dc:date>2024-10-24T15:52:55.320934</dc:date>
    <dc:format>image/svg+xml</dc:format>
    <dc:creator>
     <cc:Agent>
      <dc:title>Matplotlib v3.8.4, https://matplotlib.org/</dc:title>
     </cc:Agent>
    </dc:creator>
   </cc:Work>
  </rdf:RDF>
 </metadata>
 <defs>
  <style type="text/css">*{stroke-linejoin: round; stroke-linecap: butt}</style>
 </defs>
 <g id="figure_1">
  <g id="patch_1">
   <path d="M 0 90 
L 1152 90 
L 1152 0 
L 0 0 
z
" style="fill: #ffffff"/>
  </g>
  <g id="axes_1">
   <g id="patch_2">
    <path d="M 144 80.1 
L 1036.8 80.1 
L 1036.8 10.8 
L 144 10.8 
z
" style="fill: #ffffff"/>
   </g>
   <g id="patch_3">
    <path d="M 144 72.09375 
L 396.673556 72.09375 
L 396.673556 71.30625 
L 144 71.30625 
z
" clip-path="url(#pbd4d09d1cc)" style="fill: #0000ff"/>
   </g>
   <g id="patch_4">
    <path d="M 397.276596 76.95 
L 717.490578 76.95 
L 717.490578 66.45 
L 397.276596 66.45 
z
" clip-path="url(#pbd4d09d1cc)" style="fill: #0000ff"/>
   </g>
   <g id="patch_5">
    <path d="M 419.589058 76.95 
L 861.013982 76.95 
L 861.013982 66.45 
L 419.589058 66.45 
z
" clip-path="url(#pbd4d09d1cc)" style="fill: #0000ff"/>
   </g>
   <g id="patch_6">
    <path d="M 429.23769 76.95 
L 866.441337 76.95 
L 866.441337 66.45 
L 429.23769 66.45 
z
" clip-path="url(#pbd4d09d1cc)" style="fill: #0000ff"/>
   </g>
   <g id="patch_7">
    <path d="M 431.046809 76.95 
L 555.875988 76.95 
L 555.875988 66.45 
L 431.046809 66.45 
z
" clip-path="url(#pbd4d09d1cc)" style="fill: #0000ff"/>
   </g>
   <g id="patch_8">
    <path d="M 433.458967 76.95 
L 861.013982 76.95 
L 861.013982 66.45 
L 433.458967 66.45 
z
" clip-path="url(#pbd4d09d1cc)" style="fill: #0000ff"/>
   </g>
   <g id="patch_9">
    <path d="M 433.458967 76.95 
L 554.066869 76.95 
L 554.066869 66.45 
L 433.458967 66.45 
z
" clip-path="url(#pbd4d09d1cc)" style="fill: #0000ff"/>
   </g>
   <g id="patch_10">
    <path d="M 439.489362 76.95 
L 520.296657 76.95 
L 520.296657 66.45 
L 439.489362 66.45 
z
" clip-path="url(#pbd4d09d1cc)" style="fill: #0000ff"/>
   </g>
   <g id="patch_11">
    <path d="M 439.489362 76.95 
L 513.060182 76.95 
L 513.060182 66.45 
L 439.489362 66.45 
z
" clip-path="url(#pbd4d09d1cc)" style="fill: #0000ff"/>
   </g>
   <g id="patch_12">
    <path d="M 440.092401 76.95 
L 882.723404 76.95 
L 882.723404 66.45 
L 440.092401 66.45 
z
" clip-path="url(#pbd4d09d1cc)" style="fill: #0000ff"/>
   </g>
   <g id="patch_13">
    <path d="M 447.328875 76.95 
L 856.189666 76.95 
L 856.189666 66.45 
L 447.328875 66.45 
z
" clip-path="url(#pbd4d09d1cc)" style="fill: #0000ff"/>
   </g>
   <g id="patch_14">
    <path d="M 452.153191 76.95 
L 702.41459 76.95 
L 702.41459 66.45 
L 452.153191 66.45 
z
" clip-path="url(#pbd4d09d1cc)" style="fill: #0000ff"/>
   </g>
   <g id="patch_15">
    <path d="M 455.771429 76.95 
L 861.013982 76.95 
L 861.013982 66.45 
L 455.771429 66.45 
z
" clip-path="url(#pbd4d09d1cc)" style="fill: #0000ff"/>
   </g>
   <g id="patch_16">
    <path d="M 455.771429 76.95 
L 485.320365 76.95 
L 485.320365 66.45 
L 455.771429 66.45 
z
" clip-path="url(#pbd4d09d1cc)" style="fill: #0000ff"/>
   </g>
   <g id="patch_17">
    <path d="M 459.992705 76.95 
L 476.877812 76.95 
L 476.877812 66.45 
L 459.992705 66.45 
z
" clip-path="url(#pbd4d09d1cc)" style="fill: #0000ff"/>
   </g>
   <g id="patch_18">
    <path d="M 459.992705 76.95 
L 478.68693 76.95 
L 478.68693 66.45 
L 459.992705 66.45 
z
" clip-path="url(#pbd4d09d1cc)" style="fill: #0000ff"/>
   </g>
   <g id="patch_19">
    <path d="M 463.610942 76.95 
L 520.296657 76.95 
L 520.296657 66.45 
L 463.610942 66.45 
z
" clip-path="url(#pbd4d09d1cc)" style="fill: #0000ff"/>
   </g>
   <g id="patch_20">
    <path d="M 515.47234 76.95 
L 546.227356 76.95 
L 546.227356 66.45 
L 515.47234 66.45 
z
" clip-path="url(#pbd4d09d1cc)" style="fill: #0000ff"/>
   </g>
   <g id="patch_21">
    <path d="M 521.502736 76.95 
L 554.066869 76.95 
L 554.066869 66.45 
L 521.502736 66.45 
z
" clip-path="url(#pbd4d09d1cc)" style="fill: #0000ff"/>
   </g>
   <g id="patch_22">
    <path d="M 563.715502 76.95 
L 635.477204 76.95 
L 635.477204 66.45 
L 563.715502 66.45 
z
" clip-path="url(#pbd4d09d1cc)" style="fill: #0000ff"/>
   </g>
   <g id="patch_23">
    <path d="M 564.318541 76.95 
L 714.47538 76.95 
L 714.47538 66.45 
L 564.318541 66.45 
z
" clip-path="url(#pbd4d09d1cc)" style="fill: #0000ff"/>
   </g>
   <g id="patch_24">
    <path d="M 583.615805 76.95 
L 675.880851 76.95 
L 675.880851 66.45 
L 583.615805 66.45 
z
" clip-path="url(#pbd4d09d1cc)" style="fill: #0000ff"/>
   </g>
   <g id="patch_25">
    <path d="M 598.088754 76.95 
L 627.63769 76.95 
L 627.63769 66.45 
L 598.088754 66.45 
z
" clip-path="url(#pbd4d09d1cc)" style="fill: #0000ff"/>
   </g>
   <g id="patch_26">
    <path d="M 604.722188 76.95 
L 703.017629 76.95 
L 703.017629 66.45 
L 604.722188 66.45 
z
" clip-path="url(#pbd4d09d1cc)" style="fill: #0000ff"/>
   </g>
   <g id="patch_27">
    <path d="M 604.722188 76.95 
L 721.108815 76.95 
L 721.108815 66.45 
L 604.722188 66.45 
z
" clip-path="url(#pbd4d09d1cc)" style="fill: #0000ff"/>
   </g>
   <g id="patch_28">
    <path d="M 651.156231 76.95 
L 713.87234 76.95 
L 713.87234 66.45 
L 651.156231 66.45 
z
" clip-path="url(#pbd4d09d1cc)" style="fill: #0000ff"/>
   </g>
   <g id="patch_29">
    <path d="M 659.598784 76.95 
L 686.132523 76.95 
L 686.132523 66.45 
L 659.598784 66.45 
z
" clip-path="url(#pbd4d09d1cc)" style="fill: #0000ff"/>
   </g>
   <g id="patch_30">
    <path d="M 663.217021 76.95 
L 680.102128 76.95 
L 680.102128 66.45 
L 663.217021 66.45 
z
" clip-path="url(#pbd4d09d1cc)" style="fill: #0000ff"/>
   </g>
   <g id="patch_31">
    <path d="M 665.02614 76.95 
L 714.47538 76.95 
L 714.47538 66.45 
L 665.02614 66.45 
z
" clip-path="url(#pbd4d09d1cc)" style="fill: #0000ff"/>
   </g>
   <g id="patch_32">
    <path d="M 748.848632 76.95 
L 864.029179 76.95 
L 864.029179 66.45 
L 748.848632 66.45 
z
" clip-path="url(#pbd4d09d1cc)" style="fill: #0000ff"/>
   </g>
   <g id="patch_33">
    <path d="M 750.657751 76.95 
L 861.013982 76.95 
L 861.013982 66.45 
L 750.657751 66.45 
z
" clip-path="url(#pbd4d09d1cc)" style="fill: #0000ff"/>
   </g>
   <g id="patch_34">
    <path d="M 750.657751 76.95 
L 861.013982 76.95 
L 861.013982 66.45 
L 750.657751 66.45 
z
" clip-path="url(#pbd4d09d1cc)" style="fill: #0000ff"/>
   </g>
   <g id="patch_35">
    <path d="M 750.657751 76.95 
L 820.007295 76.95 
L 820.007295 66.45 
L 750.657751 66.45 
z
" clip-path="url(#pbd4d09d1cc)" style="fill: #0000ff"/>
   </g>
   <g id="patch_36">
    <path d="M 765.130699 76.95 
L 849.556231 76.95 
L 849.556231 66.45 
L 765.130699 66.45 
z
" clip-path="url(#pbd4d09d1cc)" style="fill: #0000ff"/>
   </g>
   <g id="patch_37">
    <path d="M 775.98541 76.95 
L 858.601824 76.95 
L 858.601824 66.45 
L 775.98541 66.45 
z
" clip-path="url(#pbd4d09d1cc)" style="fill: #0000ff"/>
   </g>
   <g id="patch_38">
    <path d="M 779.603647 76.95 
L 812.167781 76.95 
L 812.167781 66.45 
L 779.603647 66.45 
z
" clip-path="url(#pbd4d09d1cc)" style="fill: #0000ff"/>
   </g>
   <g id="patch_39">
    <path d="M 792.267477 76.95 
L 845.334954 76.95 
L 845.334954 66.45 
L 792.267477 66.45 
z
" clip-path="url(#pbd4d09d1cc)" style="fill: #0000ff"/>
   </g>
   <g id="patch_40">
    <path d="M 821.816413 76.95 
L 853.777508 76.95 
L 853.777508 66.45 
L 821.816413 66.45 
z
" clip-path="url(#pbd4d09d1cc)" style="fill: #0000ff"/>
   </g>
   <g id="patch_41">
    <path d="M 829.052888 76.95 
L 846.541033 76.95 
L 846.541033 66.45 
L 829.052888 66.45 
z
" clip-path="url(#pbd4d09d1cc)" style="fill: #0000ff"/>
   </g>
   <g id="patch_42">
    <path d="M 829.052888 76.95 
L 847.747112 76.95 
L 847.747112 66.45 
L 829.052888 66.45 
z
" clip-path="url(#pbd4d09d1cc)" style="fill: #0000ff"/>
   </g>
   <g id="patch_43">
    <path d="M 830.862006 76.95 
L 861.013982 76.95 
L 861.013982 66.45 
L 830.862006 66.45 
z
" clip-path="url(#pbd4d09d1cc)" style="fill: #0000ff"/>
   </g>
   <g id="patch_44">
    <path d="M 883.326444 72.09375 
L 988.255319 72.09375 
L 988.255319 71.30625 
L 883.326444 71.30625 
z
" clip-path="url(#pbd4d09d1cc)" style="fill: #0000ff"/>
   </g>
   <g id="patch_45">
    <path d="M 144 45.84375 
L 399.688754 45.84375 
L 399.688754 45.05625 
L 144 45.05625 
z
" clip-path="url(#pbd4d09d1cc)" style="fill: #0000ff"/>
   </g>
   <g id="patch_46">
    <path d="M 400.291793 50.7 
L 721.711854 50.7 
L 721.711854 40.2 
L 400.291793 40.2 
z
" clip-path="url(#pbd4d09d1cc)" style="fill: #0000ff"/>
   </g>
   <g id="patch_47">
    <path d="M 422.604255 50.7 
L 877.899088 50.7 
L 877.899088 40.2 
L 422.604255 40.2 
z
" clip-path="url(#pbd4d09d1cc)" style="fill: #0000ff"/>
   </g>
   <g id="patch_48">
    <path d="M 425.016413 50.7 
L 852.571429 50.7 
L 852.571429 40.2 
L 425.016413 40.2 
z
" clip-path="url(#pbd4d09d1cc)" style="fill: #0000ff"/>
   </g>
   <g id="patch_49">
    <path d="M 429.840729 50.7 
L 832.068085 50.7 
L 832.068085 40.2 
L 429.840729 40.2 
z
" clip-path="url(#pbd4d09d1cc)" style="fill: #0000ff"/>
   </g>
   <g id="patch_50">
    <path d="M 430.443769 50.7 
L 859.204863 50.7 
L 859.204863 40.2 
L 430.443769 40.2 
z
" clip-path="url(#pbd4d09d1cc)" style="fill: #0000ff"/>
   </g>
   <g id="patch_51">
    <path d="M 430.443769 50.7 
L 699.399392 50.7 
L 699.399392 40.2 
L 430.443769 40.2 
z
" clip-path="url(#pbd4d09d1cc)" style="fill: #0000ff"/>
   </g>
   <g id="patch_52">
    <path d="M 432.855927 50.7 
L 758.497264 50.7 
L 758.497264 40.2 
L 432.855927 40.2 
z
" clip-path="url(#pbd4d09d1cc)" style="fill: #0000ff"/>
   </g>
   <g id="patch_53">
    <path d="M 435.268085 50.7 
L 497.984195 50.7 
L 497.984195 40.2 
L 435.268085 40.2 
z
" clip-path="url(#pbd4d09d1cc)" style="fill: #0000ff"/>
   </g>
   <g id="patch_54">
    <path d="M 436.474164 50.7 
L 535.372644 50.7 
L 535.372644 40.2 
L 436.474164 40.2 
z
" clip-path="url(#pbd4d09d1cc)" style="fill: #0000ff"/>
   </g>
   <g id="patch_55">
    <path d="M 441.29848 50.7 
L 582.409726 50.7 
L 582.409726 40.2 
L 441.29848 40.2 
z
" clip-path="url(#pbd4d09d1cc)" style="fill: #0000ff"/>
   </g>
   <g id="patch_56">
    <path d="M 447.328875 50.7 
L 926.745289 50.7 
L 926.745289 40.2 
L 447.328875 40.2 
z
" clip-path="url(#pbd4d09d1cc)" style="fill: #0000ff"/>
   </g>
   <g id="patch_57">
    <path d="M 449.137994 50.7 
L 756.688146 50.7 
L 756.688146 40.2 
L 449.137994 40.2 
z
" clip-path="url(#pbd4d09d1cc)" style="fill: #0000ff"/>
   </g>
   <g id="patch_58">
    <path d="M 453.96231 50.7 
L 859.807903 50.7 
L 859.807903 40.2 
L 453.96231 40.2 
z
" clip-path="url(#pbd4d09d1cc)" style="fill: #0000ff"/>
   </g>
   <g id="patch_59">
    <path d="M 456.374468 50.7 
L 490.144681 50.7 
L 490.144681 40.2 
L 456.374468 40.2 
z
" clip-path="url(#pbd4d09d1cc)" style="fill: #0000ff"/>
   </g>
   <g id="patch_60">
    <path d="M 464.817021 50.7 
L 482.305167 50.7 
L 482.305167 40.2 
L 464.817021 40.2 
z
" clip-path="url(#pbd4d09d1cc)" style="fill: #0000ff"/>
   </g>
   <g id="patch_61">
    <path d="M 464.817021 50.7 
L 484.114286 50.7 
L 484.114286 40.2 
L 464.817021 40.2 
z
" clip-path="url(#pbd4d09d1cc)" style="fill: #0000ff"/>
   </g>
   <g id="patch_62">
    <path d="M 465.420061 50.7 
L 570.348936 50.7 
L 570.348936 40.2 
L 465.420061 40.2 
z
" clip-path="url(#pbd4d09d1cc)" style="fill: #0000ff"/>
   </g>
   <g id="patch_63">
    <path d="M 465.420061 50.7 
L 560.097264 50.7 
L 560.097264 40.2 
L 465.420061 40.2 
z
" clip-path="url(#pbd4d09d1cc)" style="fill: #0000ff"/>
   </g>
   <g id="patch_64">
    <path d="M 465.420061 50.7 
L 560.097264 50.7 
L 560.097264 40.2 
L 465.420061 40.2 
z
" clip-path="url(#pbd4d09d1cc)" style="fill: #0000ff"/>
   </g>
   <g id="patch_65">
    <path d="M 465.420061 50.7 
L 570.348936 50.7 
L 570.348936 40.2 
L 465.420061 40.2 
z
" clip-path="url(#pbd4d09d1cc)" style="fill: #0000ff"/>
   </g>
   <g id="patch_66">
    <path d="M 465.420061 50.7 
L 530.548328 50.7 
L 530.548328 40.2 
L 465.420061 40.2 
z
" clip-path="url(#pbd4d09d1cc)" style="fill: #0000ff"/>
   </g>
   <g id="patch_67">
    <path d="M 526.327052 50.7 
L 579.394529 50.7 
L 579.394529 40.2 
L 526.327052 40.2 
z
" clip-path="url(#pbd4d09d1cc)" style="fill: #0000ff"/>
   </g>
   <g id="patch_68">
    <path d="M 537.181763 50.7 
L 571.555015 50.7 
L 571.555015 40.2 
L 537.181763 40.2 
z
" clip-path="url(#pbd4d09d1cc)" style="fill: #0000ff"/>
   </g>
   <g id="patch_69">
    <path d="M 545.624316 50.7 
L 563.715502 50.7 
L 563.715502 40.2 
L 545.624316 40.2 
z
" clip-path="url(#pbd4d09d1cc)" style="fill: #0000ff"/>
   </g>
   <g id="patch_70">
    <path d="M 545.624316 50.7 
L 563.715502 50.7 
L 563.715502 40.2 
L 545.624316 40.2 
z
" clip-path="url(#pbd4d09d1cc)" style="fill: #0000ff"/>
   </g>
   <g id="patch_71">
    <path d="M 545.624316 50.7 
L 565.52462 50.7 
L 565.52462 40.2 
L 545.624316 40.2 
z
" clip-path="url(#pbd4d09d1cc)" style="fill: #0000ff"/>
   </g>
   <g id="patch_72">
    <path d="M 573.364134 50.7 
L 718.696657 50.7 
L 718.696657 40.2 
L 573.364134 40.2 
z
" clip-path="url(#pbd4d09d1cc)" style="fill: #0000ff"/>
   </g>
   <g id="patch_73">
    <path d="M 578.18845 50.7 
L 690.353799 50.7 
L 690.353799 40.2 
L 578.18845 40.2 
z
" clip-path="url(#pbd4d09d1cc)" style="fill: #0000ff"/>
   </g>
   <g id="patch_74">
    <path d="M 595.073556 50.7 
L 743.421277 50.7 
L 743.421277 40.2 
L 595.073556 40.2 
z
" clip-path="url(#pbd4d09d1cc)" style="fill: #0000ff"/>
   </g>
   <g id="patch_75">
    <path d="M 608.943465 50.7 
L 659.598784 50.7 
L 659.598784 40.2 
L 608.943465 40.2 
z
" clip-path="url(#pbd4d09d1cc)" style="fill: #0000ff"/>
   </g>
   <g id="patch_76">
    <path d="M 614.97386 50.7 
L 687.941641 50.7 
L 687.941641 40.2 
L 614.97386 40.2 
z
" clip-path="url(#pbd4d09d1cc)" style="fill: #0000ff"/>
   </g>
   <g id="patch_77">
    <path d="M 619.195137 50.7 
L 717.490578 50.7 
L 717.490578 40.2 
L 619.195137 40.2 
z
" clip-path="url(#pbd4d09d1cc)" style="fill: #0000ff"/>
   </g>
   <g id="patch_78">
    <path d="M 619.195137 50.7 
L 651.759271 50.7 
L 651.759271 40.2 
L 619.195137 40.2 
z
" clip-path="url(#pbd4d09d1cc)" style="fill: #0000ff"/>
   </g>
   <g id="patch_79">
    <path d="M 621.004255 50.7 
L 703.017629 50.7 
L 703.017629 40.2 
L 621.004255 40.2 
z
" clip-path="url(#pbd4d09d1cc)" style="fill: #0000ff"/>
   </g>
   <g id="patch_80">
    <path d="M 627.63769 50.7 
L 645.728875 50.7 
L 645.728875 40.2 
L 627.63769 40.2 
z
" clip-path="url(#pbd4d09d1cc)" style="fill: #0000ff"/>
   </g>
   <g id="patch_81">
    <path d="M 650.553191 50.7 
L 713.87234 50.7 
L 713.87234 40.2 
L 650.553191 40.2 
z
" clip-path="url(#pbd4d09d1cc)" style="fill: #0000ff"/>
   </g>
   <g id="patch_82">
    <path d="M 655.980547 50.7 
L 758.497264 50.7 
L 758.497264 40.2 
L 655.980547 40.2 
z
" clip-path="url(#pbd4d09d1cc)" style="fill: #0000ff"/>
   </g>
   <g id="patch_83">
    <path d="M 672.262614 50.7 
L 719.902736 50.7 
L 719.902736 40.2 
L 672.262614 40.2 
z
" clip-path="url(#pbd4d09d1cc)" style="fill: #0000ff"/>
   </g>
   <g id="patch_84">
    <path d="M 736.184802 50.7 
L 859.204863 50.7 
L 859.204863 40.2 
L 736.184802 40.2 
z
" clip-path="url(#pbd4d09d1cc)" style="fill: #0000ff"/>
   </g>
   <g id="patch_85">
    <path d="M 793.473556 50.7 
L 854.983587 50.7 
L 854.983587 40.2 
L 793.473556 40.2 
z
" clip-path="url(#pbd4d09d1cc)" style="fill: #0000ff"/>
   </g>
   <g id="patch_86">
    <path d="M 795.282675 50.7 
L 847.144073 50.7 
L 847.144073 40.2 
L 795.282675 40.2 
z
" clip-path="url(#pbd4d09d1cc)" style="fill: #0000ff"/>
   </g>
   <g id="patch_87">
    <path d="M 796.488754 50.7 
L 859.204863 50.7 
L 859.204863 40.2 
L 796.488754 40.2 
z
" clip-path="url(#pbd4d09d1cc)" style="fill: #0000ff"/>
   </g>
   <g id="patch_88">
    <path d="M 809.152584 50.7 
L 847.747112 50.7 
L 847.747112 40.2 
L 809.152584 40.2 
z
" clip-path="url(#pbd4d09d1cc)" style="fill: #0000ff"/>
   </g>
   <g id="patch_89">
    <path d="M 826.03769 50.7 
L 859.204863 50.7 
L 859.204863 40.2 
L 826.03769 40.2 
z
" clip-path="url(#pbd4d09d1cc)" style="fill: #0000ff"/>
   </g>
   <g id="patch_90">
    <path d="M 835.686322 50.7 
L 851.968389 50.7 
L 851.968389 40.2 
L 835.686322 40.2 
z
" clip-path="url(#pbd4d09d1cc)" style="fill: #0000ff"/>
   </g>
   <g id="patch_91">
    <path d="M 835.686322 50.7 
L 852.571429 50.7 
L 852.571429 40.2 
L 835.686322 40.2 
z
" clip-path="url(#pbd4d09d1cc)" style="fill: #0000ff"/>
   </g>
   <g id="patch_92">
    <path d="M 836.289362 50.7 
L 851.968389 50.7 
L 851.968389 40.2 
L 836.289362 40.2 
z
" clip-path="url(#pbd4d09d1cc)" style="fill: #0000ff"/>
   </g>
   <g id="patch_93">
    <path d="M 927.348328 45.84375 
L 994.285714 45.84375 
L 994.285714 45.05625 
L 927.348328 45.05625 
z
" clip-path="url(#pbd4d09d1cc)" style="fill: #0000ff"/>
   </g>
   <g id="patch_94">
    <path d="M 144 19.59375 
L 413.558663 19.59375 
L 413.558663 18.80625 
L 144 18.80625 
z
" clip-path="url(#pbd4d09d1cc)" style="fill: #0000ff"/>
   </g>
   <g id="patch_95">
    <path d="M 414.161702 24.45 
L 530.548328 24.45 
L 530.548328 13.95 
L 414.161702 13.95 
z
" clip-path="url(#pbd4d09d1cc)" style="fill: #0000ff"/>
   </g>
   <g id="patch_96">
    <path d="M 424.413374 24.45 
L 561.303343 24.45 
L 561.303343 13.95 
L 424.413374 13.95 
z
" clip-path="url(#pbd4d09d1cc)" style="fill: #0000ff"/>
   </g>
   <g id="patch_97">
    <path d="M 432.252888 24.45 
L 576.982371 24.45 
L 576.982371 13.95 
L 432.252888 13.95 
z
" clip-path="url(#pbd4d09d1cc)" style="fill: #0000ff"/>
   </g>
   <g id="patch_98">
    <path d="M 432.252888 24.45 
L 561.303343 24.45 
L 561.303343 13.95 
L 432.252888 13.95 
z
" clip-path="url(#pbd4d09d1cc)" style="fill: #0000ff"/>
   </g>
   <g id="patch_99">
    <path d="M 432.252888 24.45 
L 561.303343 24.45 
L 561.303343 13.95 
L 432.252888 13.95 
z
" clip-path="url(#pbd4d09d1cc)" style="fill: #0000ff"/>
   </g>
   <g id="patch_100">
    <path d="M 432.855927 24.45 
L 561.303343 24.45 
L 561.303343 13.95 
L 432.855927 13.95 
z
" clip-path="url(#pbd4d09d1cc)" style="fill: #0000ff"/>
   </g>
   <g id="patch_101">
    <path d="M 432.855927 24.45 
L 540.19696 24.45 
L 540.19696 13.95 
L 432.855927 13.95 
z
" clip-path="url(#pbd4d09d1cc)" style="fill: #0000ff"/>
   </g>
   <g id="patch_102">
    <path d="M 434.062006 24.45 
L 561.303343 24.45 
L 561.303343 13.95 
L 434.062006 13.95 
z
" clip-path="url(#pbd4d09d1cc)" style="fill: #0000ff"/>
   </g>
   <g id="patch_103">
    <path d="M 434.062006 24.45 
L 523.914894 24.45 
L 523.914894 13.95 
L 434.062006 13.95 
z
" clip-path="url(#pbd4d09d1cc)" style="fill: #0000ff"/>
   </g>
   <g id="patch_104">
    <path d="M 443.107599 24.45 
L 495.572036 24.45 
L 495.572036 13.95 
L 443.107599 13.95 
z
" clip-path="url(#pbd4d09d1cc)" style="fill: #0000ff"/>
   </g>
   <g id="patch_105">
    <path d="M 446.725836 24.45 
L 555.875988 24.45 
L 555.875988 13.95 
L 446.725836 13.95 
z
" clip-path="url(#pbd4d09d1cc)" style="fill: #0000ff"/>
   </g>
   <g id="patch_106">
    <path d="M 453.96231 24.45 
L 487.732523 24.45 
L 487.732523 13.95 
L 453.96231 13.95 
z
" clip-path="url(#pbd4d09d1cc)" style="fill: #0000ff"/>
   </g>
   <g id="patch_107">
    <path d="M 463.007903 24.45 
L 479.893009 24.45 
L 479.893009 13.95 
L 463.007903 13.95 
z
" clip-path="url(#pbd4d09d1cc)" style="fill: #0000ff"/>
   </g>
   <g id="patch_108">
    <path d="M 463.007903 24.45 
L 479.893009 24.45 
L 479.893009 13.95 
L 463.007903 13.95 
z
" clip-path="url(#pbd4d09d1cc)" style="fill: #0000ff"/>
   </g>
   <g id="patch_109">
    <path d="M 463.007903 24.45 
L 481.099088 24.45 
L 481.099088 13.95 
L 463.007903 13.95 
z
" clip-path="url(#pbd4d09d1cc)" style="fill: #0000ff"/>
   </g>
   <g id="patch_110">
    <path d="M 577.58541 19.59375 
L 578.791489 19.59375 
L 578.791489 18.80625 
L 577.58541 18.80625 
z
" clip-path="url(#pbd4d09d1cc)" style="fill: #0000ff"/>
   </g>
   <g id="matplotlib.axis_1">
    <g id="xtick_1">
     <g id="line2d_1">
      <defs>
       <path id="m0fd06c2986" d="M 0 0 
L 0 3.5 
" style="stroke: #000000; stroke-width: 0.8"/>
      </defs>
      <g>
       <use xlink:href="#m0fd06c2986" x="264.004863" y="80.1" style="stroke: #000000; stroke-width: 0.8"/>
      </g>
     </g>
     <g id="text_1">
      <!-- 200 -->
      <g transform="translate(254.461113 94.698437) scale(0.1 -0.1)">
       <defs>
        <path id="DejaVuSans-32" d="M 1228 531 
L 3431 531 
L 3431 0 
L 469 0 
L 469 531 
Q 828 903 1448 1529 
Q 2069 2156 2228 2338 
Q 2531 2678 2651 2914 
Q 2772 3150 2772 3378 
Q 2772 3750 2511 3984 
Q 2250 4219 1831 4219 
Q 1534 4219 1204 4116 
Q 875 4013 500 3803 
L 500 4441 
Q 881 4594 1212 4672 
Q 1544 4750 1819 4750 
Q 2544 4750 2975 4387 
Q 3406 4025 3406 3419 
Q 3406 3131 3298 2873 
Q 3191 2616 2906 2266 
Q 2828 2175 2409 1742 
Q 1991 1309 1228 531 
z
" transform="scale(0.015625)"/>
        <path id="DejaVuSans-30" d="M 2034 4250 
Q 1547 4250 1301 3770 
Q 1056 3291 1056 2328 
Q 1056 1369 1301 889 
Q 1547 409 2034 409 
Q 2525 409 2770 889 
Q 3016 1369 3016 2328 
Q 3016 3291 2770 3770 
Q 2525 4250 2034 4250 
z
M 2034 4750 
Q 2819 4750 3233 4129 
Q 3647 3509 3647 2328 
Q 3647 1150 3233 529 
Q 2819 -91 2034 -91 
Q 1250 -91 836 529 
Q 422 1150 422 2328 
Q 422 3509 836 4129 
Q 1250 4750 2034 4750 
z
" transform="scale(0.015625)"/>
       </defs>
       <use xlink:href="#DejaVuSans-32"/>
       <use xlink:href="#DejaVuSans-30" x="63.623047"/>
       <use xlink:href="#DejaVuSans-30" x="127.246094"/>
      </g>
     </g>
    </g>
    <g id="xtick_2">
     <g id="line2d_2">
      <g>
       <use xlink:href="#m0fd06c2986" x="384.612766" y="80.1" style="stroke: #000000; stroke-width: 0.8"/>
      </g>
     </g>
     <g id="text_2">
      <!-- 400 -->
      <g transform="translate(375.069016 94.698437) scale(0.1 -0.1)">
       <defs>
        <path id="DejaVuSans-34" d="M 2419 4116 
L 825 1625 
L 2419 1625 
L 2419 4116 
z
M 2253 4666 
L 3047 4666 
L 3047 1625 
L 3713 1625 
L 3713 1100 
L 3047 1100 
L 3047 0 
L 2419 0 
L 2419 1100 
L 313 1100 
L 313 1709 
L 2253 4666 
z
" transform="scale(0.015625)"/>
       </defs>
       <use xlink:href="#DejaVuSans-34"/>
       <use xlink:href="#DejaVuSans-30" x="63.623047"/>
       <use xlink:href="#DejaVuSans-30" x="127.246094"/>
      </g>
     </g>
    </g>
    <g id="xtick_3">
     <g id="line2d_3">
      <g>
       <use xlink:href="#m0fd06c2986" x="505.220669" y="80.1" style="stroke: #000000; stroke-width: 0.8"/>
      </g>
     </g>
     <g id="text_3">
      <!-- 600 -->
      <g transform="translate(495.676919 94.698437) scale(0.1 -0.1)">
       <defs>
        <path id="DejaVuSans-36" d="M 2113 2584 
Q 1688 2584 1439 2293 
Q 1191 2003 1191 1497 
Q 1191 994 1439 701 
Q 1688 409 2113 409 
Q 2538 409 2786 701 
Q 3034 994 3034 1497 
Q 3034 2003 2786 2293 
Q 2538 2584 2113 2584 
z
M 3366 4563 
L 3366 3988 
Q 3128 4100 2886 4159 
Q 2644 4219 2406 4219 
Q 1781 4219 1451 3797 
Q 1122 3375 1075 2522 
Q 1259 2794 1537 2939 
Q 1816 3084 2150 3084 
Q 2853 3084 3261 2657 
Q 3669 2231 3669 1497 
Q 3669 778 3244 343 
Q 2819 -91 2113 -91 
Q 1303 -91 875 529 
Q 447 1150 447 2328 
Q 447 3434 972 4092 
Q 1497 4750 2381 4750 
Q 2619 4750 2861 4703 
Q 3103 4656 3366 4563 
z
" transform="scale(0.015625)"/>
       </defs>
       <use xlink:href="#DejaVuSans-36"/>
       <use xlink:href="#DejaVuSans-30" x="63.623047"/>
       <use xlink:href="#DejaVuSans-30" x="127.246094"/>
      </g>
     </g>
    </g>
    <g id="xtick_4">
     <g id="line2d_4">
      <g>
       <use xlink:href="#m0fd06c2986" x="625.828571" y="80.1" style="stroke: #000000; stroke-width: 0.8"/>
      </g>
     </g>
     <g id="text_4">
      <!-- 800 -->
      <g transform="translate(616.284821 94.698437) scale(0.1 -0.1)">
       <defs>
        <path id="DejaVuSans-38" d="M 2034 2216 
Q 1584 2216 1326 1975 
Q 1069 1734 1069 1313 
Q 1069 891 1326 650 
Q 1584 409 2034 409 
Q 2484 409 2743 651 
Q 3003 894 3003 1313 
Q 3003 1734 2745 1975 
Q 2488 2216 2034 2216 
z
M 1403 2484 
Q 997 2584 770 2862 
Q 544 3141 544 3541 
Q 544 4100 942 4425 
Q 1341 4750 2034 4750 
Q 2731 4750 3128 4425 
Q 3525 4100 3525 3541 
Q 3525 3141 3298 2862 
Q 3072 2584 2669 2484 
Q 3125 2378 3379 2068 
Q 3634 1759 3634 1313 
Q 3634 634 3220 271 
Q 2806 -91 2034 -91 
Q 1263 -91 848 271 
Q 434 634 434 1313 
Q 434 1759 690 2068 
Q 947 2378 1403 2484 
z
M 1172 3481 
Q 1172 3119 1398 2916 
Q 1625 2713 2034 2713 
Q 2441 2713 2670 2916 
Q 2900 3119 2900 3481 
Q 2900 3844 2670 4047 
Q 2441 4250 2034 4250 
Q 1625 4250 1398 4047 
Q 1172 3844 1172 3481 
z
" transform="scale(0.015625)"/>
       </defs>
       <use xlink:href="#DejaVuSans-38"/>
       <use xlink:href="#DejaVuSans-30" x="63.623047"/>
       <use xlink:href="#DejaVuSans-30" x="127.246094"/>
      </g>
     </g>
    </g>
    <g id="xtick_5">
     <g id="line2d_5">
      <g>
       <use xlink:href="#m0fd06c2986" x="746.436474" y="80.1" style="stroke: #000000; stroke-width: 0.8"/>
      </g>
     </g>
     <g id="text_5">
      <!-- 1000 -->
      <g transform="translate(733.711474 94.698437) scale(0.1 -0.1)">
       <defs>
        <path id="DejaVuSans-31" d="M 794 531 
L 1825 531 
L 1825 4091 
L 703 3866 
L 703 4441 
L 1819 4666 
L 2450 4666 
L 2450 531 
L 3481 531 
L 3481 0 
L 794 0 
L 794 531 
z
" transform="scale(0.015625)"/>
       </defs>
       <use xlink:href="#DejaVuSans-31"/>
       <use xlink:href="#DejaVuSans-30" x="63.623047"/>
       <use xlink:href="#DejaVuSans-30" x="127.246094"/>
       <use xlink:href="#DejaVuSans-30" x="190.869141"/>
      </g>
     </g>
    </g>
    <g id="xtick_6">
     <g id="line2d_6">
      <g>
       <use xlink:href="#m0fd06c2986" x="867.044377" y="80.1" style="stroke: #000000; stroke-width: 0.8"/>
      </g>
     </g>
     <g id="text_6">
      <!-- 1200 -->
      <g transform="translate(854.319377 94.698437) scale(0.1 -0.1)">
       <use xlink:href="#DejaVuSans-31"/>
       <use xlink:href="#DejaVuSans-32" x="63.623047"/>
       <use xlink:href="#DejaVuSans-30" x="127.246094"/>
       <use xlink:href="#DejaVuSans-30" x="190.869141"/>
      </g>
     </g>
    </g>
    <g id="xtick_7">
     <g id="line2d_7">
      <g>
       <use xlink:href="#m0fd06c2986" x="987.65228" y="80.1" style="stroke: #000000; stroke-width: 0.8"/>
      </g>
     </g>
     <g id="text_7">
      <!-- 1400 -->
      <g transform="translate(974.92728 94.698437) scale(0.1 -0.1)">
       <use xlink:href="#DejaVuSans-31"/>
       <use xlink:href="#DejaVuSans-34" x="63.623047"/>
       <use xlink:href="#DejaVuSans-30" x="127.246094"/>
       <use xlink:href="#DejaVuSans-30" x="190.869141"/>
      </g>
     </g>
    </g>
    <g id="text_8">
     <!-- Residual -->
     <g transform="translate(569.284375 108.376563) scale(0.1 -0.1)">
      <defs>
       <path id="DejaVuSans-52" d="M 2841 2188 
Q 3044 2119 3236 1894 
Q 3428 1669 3622 1275 
L 4263 0 
L 3584 0 
L 2988 1197 
Q 2756 1666 2539 1819 
Q 2322 1972 1947 1972 
L 1259 1972 
L 1259 0 
L 628 0 
L 628 4666 
L 2053 4666 
Q 2853 4666 3247 4331 
Q 3641 3997 3641 3322 
Q 3641 2881 3436 2590 
Q 3231 2300 2841 2188 
z
M 1259 4147 
L 1259 2491 
L 2053 2491 
Q 2509 2491 2742 2702 
Q 2975 2913 2975 3322 
Q 2975 3731 2742 3939 
Q 2509 4147 2053 4147 
L 1259 4147 
z
" transform="scale(0.015625)"/>
       <path id="DejaVuSans-65" d="M 3597 1894 
L 3597 1613 
L 953 1613 
Q 991 1019 1311 708 
Q 1631 397 2203 397 
Q 2534 397 2845 478 
Q 3156 559 3463 722 
L 3463 178 
Q 3153 47 2828 -22 
Q 2503 -91 2169 -91 
Q 1331 -91 842 396 
Q 353 884 353 1716 
Q 353 2575 817 3079 
Q 1281 3584 2069 3584 
Q 2775 3584 3186 3129 
Q 3597 2675 3597 1894 
z
M 3022 2063 
Q 3016 2534 2758 2815 
Q 2500 3097 2075 3097 
Q 1594 3097 1305 2825 
Q 1016 2553 972 2059 
L 3022 2063 
z
" transform="scale(0.015625)"/>
       <path id="DejaVuSans-73" d="M 2834 3397 
L 2834 2853 
Q 2591 2978 2328 3040 
Q 2066 3103 1784 3103 
Q 1356 3103 1142 2972 
Q 928 2841 928 2578 
Q 928 2378 1081 2264 
Q 1234 2150 1697 2047 
L 1894 2003 
Q 2506 1872 2764 1633 
Q 3022 1394 3022 966 
Q 3022 478 2636 193 
Q 2250 -91 1575 -91 
Q 1294 -91 989 -36 
Q 684 19 347 128 
L 347 722 
Q 666 556 975 473 
Q 1284 391 1588 391 
Q 1994 391 2212 530 
Q 2431 669 2431 922 
Q 2431 1156 2273 1281 
Q 2116 1406 1581 1522 
L 1381 1569 
Q 847 1681 609 1914 
Q 372 2147 372 2553 
Q 372 3047 722 3315 
Q 1072 3584 1716 3584 
Q 2034 3584 2315 3537 
Q 2597 3491 2834 3397 
z
" transform="scale(0.015625)"/>
       <path id="DejaVuSans-69" d="M 603 3500 
L 1178 3500 
L 1178 0 
L 603 0 
L 603 3500 
z
M 603 4863 
L 1178 4863 
L 1178 4134 
L 603 4134 
L 603 4863 
z
" transform="scale(0.015625)"/>
       <path id="DejaVuSans-64" d="M 2906 2969 
L 2906 4863 
L 3481 4863 
L 3481 0 
L 2906 0 
L 2906 525 
Q 2725 213 2448 61 
Q 2172 -91 1784 -91 
Q 1150 -91 751 415 
Q 353 922 353 1747 
Q 353 2572 751 3078 
Q 1150 3584 1784 3584 
Q 2172 3584 2448 3432 
Q 2725 3281 2906 2969 
z
M 947 1747 
Q 947 1113 1208 752 
Q 1469 391 1925 391 
Q 2381 391 2643 752 
Q 2906 1113 2906 1747 
Q 2906 2381 2643 2742 
Q 2381 3103 1925 3103 
Q 1469 3103 1208 2742 
Q 947 2381 947 1747 
z
" transform="scale(0.015625)"/>
       <path id="DejaVuSans-75" d="M 544 1381 
L 544 3500 
L 1119 3500 
L 1119 1403 
Q 1119 906 1312 657 
Q 1506 409 1894 409 
Q 2359 409 2629 706 
Q 2900 1003 2900 1516 
L 2900 3500 
L 3475 3500 
L 3475 0 
L 2900 0 
L 2900 538 
Q 2691 219 2414 64 
Q 2138 -91 1772 -91 
Q 1169 -91 856 284 
Q 544 659 544 1381 
z
M 1991 3584 
L 1991 3584 
z
" transform="scale(0.015625)"/>
       <path id="DejaVuSans-61" d="M 2194 1759 
Q 1497 1759 1228 1600 
Q 959 1441 959 1056 
Q 959 750 1161 570 
Q 1363 391 1709 391 
Q 2188 391 2477 730 
Q 2766 1069 2766 1631 
L 2766 1759 
L 2194 1759 
z
M 3341 1997 
L 3341 0 
L 2766 0 
L 2766 531 
Q 2569 213 2275 61 
Q 1981 -91 1556 -91 
Q 1019 -91 701 211 
Q 384 513 384 1019 
Q 384 1609 779 1909 
Q 1175 2209 1959 2209 
L 2766 2209 
L 2766 2266 
Q 2766 2663 2505 2880 
Q 2244 3097 1772 3097 
Q 1472 3097 1187 3025 
Q 903 2953 641 2809 
L 641 3341 
Q 956 3463 1253 3523 
Q 1550 3584 1831 3584 
Q 2591 3584 2966 3190 
Q 3341 2797 3341 1997 
z
" transform="scale(0.015625)"/>
       <path id="DejaVuSans-6c" d="M 603 4863 
L 1178 4863 
L 1178 0 
L 603 0 
L 603 4863 
z
" transform="scale(0.015625)"/>
      </defs>
      <use xlink:href="#DejaVuSans-52"/>
      <use xlink:href="#DejaVuSans-65" x="64.982422"/>
      <use xlink:href="#DejaVuSans-73" x="126.505859"/>
      <use xlink:href="#DejaVuSans-69" x="178.605469"/>
      <use xlink:href="#DejaVuSans-64" x="206.388672"/>
      <use xlink:href="#DejaVuSans-75" x="269.865234"/>
      <use xlink:href="#DejaVuSans-61" x="333.244141"/>
      <use xlink:href="#DejaVuSans-6c" x="394.523438"/>
     </g>
    </g>
   </g>
   <g id="matplotlib.axis_2">
    <g id="ytick_1">
     <g id="line2d_8">
      <defs>
       <path id="m27ae4a0964" d="M 0 0 
L -3.5 0 
" style="stroke: #000000; stroke-width: 0.8"/>
      </defs>
      <g>
       <use xlink:href="#m27ae4a0964" x="144" y="71.7" style="stroke: #000000; stroke-width: 0.8"/>
      </g>
     </g>
     <g id="text_9">
      <!-- 1.C.63.1.1 -->
      <g transform="translate(85.492188 75.499219) scale(0.1 -0.1)">
       <defs>
        <path id="DejaVuSans-2e" d="M 684 794 
L 1344 794 
L 1344 0 
L 684 0 
L 684 794 
z
" transform="scale(0.015625)"/>
        <path id="DejaVuSans-43" d="M 4122 4306 
L 4122 3641 
Q 3803 3938 3442 4084 
Q 3081 4231 2675 4231 
Q 1875 4231 1450 3742 
Q 1025 3253 1025 2328 
Q 1025 1406 1450 917 
Q 1875 428 2675 428 
Q 3081 428 3442 575 
Q 3803 722 4122 1019 
L 4122 359 
Q 3791 134 3420 21 
Q 3050 -91 2638 -91 
Q 1578 -91 968 557 
Q 359 1206 359 2328 
Q 359 3453 968 4101 
Q 1578 4750 2638 4750 
Q 3056 4750 3426 4639 
Q 3797 4528 4122 4306 
z
" transform="scale(0.015625)"/>
        <path id="DejaVuSans-33" d="M 2597 2516 
Q 3050 2419 3304 2112 
Q 3559 1806 3559 1356 
Q 3559 666 3084 287 
Q 2609 -91 1734 -91 
Q 1441 -91 1130 -33 
Q 819 25 488 141 
L 488 750 
Q 750 597 1062 519 
Q 1375 441 1716 441 
Q 2309 441 2620 675 
Q 2931 909 2931 1356 
Q 2931 1769 2642 2001 
Q 2353 2234 1838 2234 
L 1294 2234 
L 1294 2753 
L 1863 2753 
Q 2328 2753 2575 2939 
Q 2822 3125 2822 3475 
Q 2822 3834 2567 4026 
Q 2313 4219 1838 4219 
Q 1578 4219 1281 4162 
Q 984 4106 628 3988 
L 628 4550 
Q 988 4650 1302 4700 
Q 1616 4750 1894 4750 
Q 2613 4750 3031 4423 
Q 3450 4097 3450 3541 
Q 3450 3153 3228 2886 
Q 3006 2619 2597 2516 
z
" transform="scale(0.015625)"/>
       </defs>
       <use xlink:href="#DejaVuSans-31"/>
       <use xlink:href="#DejaVuSans-2e" x="63.623047"/>
       <use xlink:href="#DejaVuSans-43" x="95.410156"/>
       <use xlink:href="#DejaVuSans-2e" x="165.234375"/>
       <use xlink:href="#DejaVuSans-36" x="197.021484"/>
       <use xlink:href="#DejaVuSans-33" x="260.644531"/>
       <use xlink:href="#DejaVuSans-2e" x="324.267578"/>
       <use xlink:href="#DejaVuSans-31" x="356.054688"/>
       <use xlink:href="#DejaVuSans-2e" x="419.677734"/>
       <use xlink:href="#DejaVuSans-31" x="451.464844"/>
      </g>
     </g>
    </g>
    <g id="ytick_2">
     <g id="line2d_9">
      <g>
       <use xlink:href="#m27ae4a0964" x="144" y="45.45" style="stroke: #000000; stroke-width: 0.8"/>
      </g>
     </g>
     <g id="text_10">
      <!-- 1.C.63.1.2 -->
      <g transform="translate(85.492188 49.249219) scale(0.1 -0.1)">
       <use xlink:href="#DejaVuSans-31"/>
       <use xlink:href="#DejaVuSans-2e" x="63.623047"/>
       <use xlink:href="#DejaVuSans-43" x="95.410156"/>
       <use xlink:href="#DejaVuSans-2e" x="165.234375"/>
       <use xlink:href="#DejaVuSans-36" x="197.021484"/>
       <use xlink:href="#DejaVuSans-33" x="260.644531"/>
       <use xlink:href="#DejaVuSans-2e" x="324.267578"/>
       <use xlink:href="#DejaVuSans-31" x="356.054688"/>
       <use xlink:href="#DejaVuSans-2e" x="419.677734"/>
       <use xlink:href="#DejaVuSans-32" x="451.464844"/>
      </g>
     </g>
    </g>
    <g id="ytick_3">
     <g id="line2d_10">
      <g>
       <use xlink:href="#m27ae4a0964" x="144" y="19.2" style="stroke: #000000; stroke-width: 0.8"/>
      </g>
     </g>
     <g id="text_11">
      <!-- 1.C.63.1.3 -->
      <g transform="translate(85.492188 22.999219) scale(0.1 -0.1)">
       <use xlink:href="#DejaVuSans-31"/>
       <use xlink:href="#DejaVuSans-2e" x="63.623047"/>
       <use xlink:href="#DejaVuSans-43" x="95.410156"/>
       <use xlink:href="#DejaVuSans-2e" x="165.234375"/>
       <use xlink:href="#DejaVuSans-36" x="197.021484"/>
       <use xlink:href="#DejaVuSans-33" x="260.644531"/>
       <use xlink:href="#DejaVuSans-2e" x="324.267578"/>
       <use xlink:href="#DejaVuSans-31" x="356.054688"/>
       <use xlink:href="#DejaVuSans-2e" x="419.677734"/>
       <use xlink:href="#DejaVuSans-33" x="451.464844"/>
      </g>
     </g>
    </g>
   </g>
   <g id="patch_111">
    <path d="M 144 80.1 
L 144 10.8 
" style="fill: none; stroke: #000000; stroke-width: 0.8; stroke-linejoin: miter; stroke-linecap: square"/>
   </g>
   <g id="patch_112">
    <path d="M 1036.8 80.1 
L 1036.8 10.8 
" style="fill: none; stroke: #000000; stroke-width: 0.8; stroke-linejoin: miter; stroke-linecap: square"/>
   </g>
   <g id="patch_113">
    <path d="M 144 80.1 
L 1036.8 80.1 
" style="fill: none; stroke: #000000; stroke-width: 0.8; stroke-linejoin: miter; stroke-linecap: square"/>
   </g>
   <g id="patch_114">
    <path d="M 144 10.8 
L 1036.8 10.8 
" style="fill: none; stroke: #000000; stroke-width: 0.8; stroke-linejoin: miter; stroke-linecap: square"/>
   </g>
   <g id="text_12">
    <!-- 1.C.63 Summary -->
    <g transform="translate(540.042187 4.8) scale(0.12 -0.12)">
     <defs>
      <path id="DejaVuSans-20" transform="scale(0.015625)"/>
      <path id="DejaVuSans-53" d="M 3425 4513 
L 3425 3897 
Q 3066 4069 2747 4153 
Q 2428 4238 2131 4238 
Q 1616 4238 1336 4038 
Q 1056 3838 1056 3469 
Q 1056 3159 1242 3001 
Q 1428 2844 1947 2747 
L 2328 2669 
Q 3034 2534 3370 2195 
Q 3706 1856 3706 1288 
Q 3706 609 3251 259 
Q 2797 -91 1919 -91 
Q 1588 -91 1214 -16 
Q 841 59 441 206 
L 441 856 
Q 825 641 1194 531 
Q 1563 422 1919 422 
Q 2459 422 2753 634 
Q 3047 847 3047 1241 
Q 3047 1584 2836 1778 
Q 2625 1972 2144 2069 
L 1759 2144 
Q 1053 2284 737 2584 
Q 422 2884 422 3419 
Q 422 4038 858 4394 
Q 1294 4750 2059 4750 
Q 2388 4750 2728 4690 
Q 3069 4631 3425 4513 
z
" transform="scale(0.015625)"/>
      <path id="DejaVuSans-6d" d="M 3328 2828 
Q 3544 3216 3844 3400 
Q 4144 3584 4550 3584 
Q 5097 3584 5394 3201 
Q 5691 2819 5691 2113 
L 5691 0 
L 5113 0 
L 5113 2094 
Q 5113 2597 4934 2840 
Q 4756 3084 4391 3084 
Q 3944 3084 3684 2787 
Q 3425 2491 3425 1978 
L 3425 0 
L 2847 0 
L 2847 2094 
Q 2847 2600 2669 2842 
Q 2491 3084 2119 3084 
Q 1678 3084 1418 2786 
Q 1159 2488 1159 1978 
L 1159 0 
L 581 0 
L 581 3500 
L 1159 3500 
L 1159 2956 
Q 1356 3278 1631 3431 
Q 1906 3584 2284 3584 
Q 2666 3584 2933 3390 
Q 3200 3197 3328 2828 
z
" transform="scale(0.015625)"/>
      <path id="DejaVuSans-72" d="M 2631 2963 
Q 2534 3019 2420 3045 
Q 2306 3072 2169 3072 
Q 1681 3072 1420 2755 
Q 1159 2438 1159 1844 
L 1159 0 
L 581 0 
L 581 3500 
L 1159 3500 
L 1159 2956 
Q 1341 3275 1631 3429 
Q 1922 3584 2338 3584 
Q 2397 3584 2469 3576 
Q 2541 3569 2628 3553 
L 2631 2963 
z
" transform="scale(0.015625)"/>
      <path id="DejaVuSans-79" d="M 2059 -325 
Q 1816 -950 1584 -1140 
Q 1353 -1331 966 -1331 
L 506 -1331 
L 506 -850 
L 844 -850 
Q 1081 -850 1212 -737 
Q 1344 -625 1503 -206 
L 1606 56 
L 191 3500 
L 800 3500 
L 1894 763 
L 2988 3500 
L 3597 3500 
L 2059 -325 
z
" transform="scale(0.015625)"/>
     </defs>
     <use xlink:href="#DejaVuSans-31"/>
     <use xlink:href="#DejaVuSans-2e" x="63.623047"/>
     <use xlink:href="#DejaVuSans-43" x="95.410156"/>
     <use xlink:href="#DejaVuSans-2e" x="165.234375"/>
     <use xlink:href="#DejaVuSans-36" x="197.021484"/>
     <use xlink:href="#DejaVuSans-33" x="260.644531"/>
     <use xlink:href="#DejaVuSans-20" x="324.267578"/>
     <use xlink:href="#DejaVuSans-53" x="356.054688"/>
     <use xlink:href="#DejaVuSans-75" x="419.53125"/>
     <use xlink:href="#DejaVuSans-6d" x="482.910156"/>
     <use xlink:href="#DejaVuSans-6d" x="580.322266"/>
     <use xlink:href="#DejaVuSans-61" x="677.734375"/>
     <use xlink:href="#DejaVuSans-72" x="739.013672"/>
     <use xlink:href="#DejaVuSans-79" x="780.126953"/>
    </g>
   </g>
  </g>
 </g>
 <defs>
  <clipPath id="pbd4d09d1cc">
   <rect x="144" y="10.8" width="892.8" height="69.3"/>
  </clipPath>
 </defs>
</svg>
