<?xml version="1.0" encoding="utf-8" standalone="no"?>
<!DOCTYPE svg PUBLIC "-//W3C//DTD SVG 1.1//EN"
  "http://www.w3.org/Graphics/SVG/1.1/DTD/svg11.dtd">
<svg xmlns:xlink="http://www.w3.org/1999/xlink" width="1152pt" height="342pt" viewBox="0 0 1152 342" xmlns="http://www.w3.org/2000/svg" version="1.1">
 <metadata>
  <rdf:RDF xmlns:dc="http://purl.org/dc/elements/1.1/" xmlns:cc="http://creativecommons.org/ns#" xmlns:rdf="http://www.w3.org/1999/02/22-rdf-syntax-ns#">
   <cc:Work>
    <dc:type rdf:resource="http://purl.org/dc/dcmitype/StillImage"/>
    <dc:date>2024-10-10T19:14:17.369522</dc:date>
    <dc:format>image/svg+xml</dc:format>
    <dc:creator>
     <cc:Agent>
      <dc:title>Matplotlib v3.9.2, https://matplotlib.org/</dc:title>
     </cc:Agent>
    </dc:creator>
   </cc:Work>
  </rdf:RDF>
 </metadata>
 <defs>
  <style type="text/css">*{stroke-linejoin: round; stroke-linecap: butt}</style>
 </defs>
 <g id="figure_1">
  <g id="patch_1">
   <path d="M 0 342 
L 1152 342 
L 1152 0 
L 0 0 
z
" style="fill: #ffffff"/>
  </g>
  <g id="axes_1">
   <g id="patch_2">
    <path d="M 144 304.38 
L 1036.8 304.38 
L 1036.8 41.04 
L 144 41.04 
z
" style="fill: #ffffff"/>
   </g>
   <g id="patch_3">
    <path d="M 144 289.709451 
L 171.606679 289.709451 
L 171.606679 289.271524 
L 144 289.271524 
z
" clip-path="url(#p5eaaeec845)" style="fill: #0000ff"/>
   </g>
   <g id="patch_4">
    <path d="M 177.128015 292.41 
L 933.55102 292.41 
L 933.55102 286.570976 
L 177.128015 286.570976 
z
" clip-path="url(#p5eaaeec845)" style="fill: #0000ff"/>
   </g>
   <g id="patch_5">
    <path d="M 188.170686 292.41 
L 889.380334 292.41 
L 889.380334 286.570976 
L 188.170686 286.570976 
z
" clip-path="url(#p5eaaeec845)" style="fill: #0000ff"/>
   </g>
   <g id="patch_6">
    <path d="M 237.862709 292.41 
L 856.252319 292.41 
L 856.252319 286.570976 
L 237.862709 286.570976 
z
" clip-path="url(#p5eaaeec845)" style="fill: #0000ff"/>
   </g>
   <g id="patch_7">
    <path d="M 248.90538 292.41 
L 812.081633 292.41 
L 812.081633 286.570976 
L 248.90538 286.570976 
z
" clip-path="url(#p5eaaeec845)" style="fill: #0000ff"/>
   </g>
   <g id="patch_8">
    <path d="M 282.033395 292.41 
L 795.517625 292.41 
L 795.517625 286.570976 
L 282.033395 286.570976 
z
" clip-path="url(#p5eaaeec845)" style="fill: #0000ff"/>
   </g>
   <g id="patch_9">
    <path d="M 939.072356 289.709451 
L 950.115028 289.709451 
L 950.115028 289.271524 
L 939.072356 289.271524 
z
" clip-path="url(#p5eaaeec845)" style="fill: #0000ff"/>
   </g>
   <g id="patch_10">
    <path d="M 144 275.11189 
L 188.170686 275.11189 
L 188.170686 274.673963 
L 144 274.673963 
z
" clip-path="url(#p5eaaeec845)" style="fill: #0000ff"/>
   </g>
   <g id="patch_11">
    <path d="M 193.692022 277.812439 
L 850.730983 277.812439 
L 850.730983 271.973415 
L 193.692022 271.973415 
z
" clip-path="url(#p5eaaeec845)" style="fill: #0000ff"/>
   </g>
   <g id="patch_12">
    <path d="M 193.692022 277.812439 
L 944.593692 277.812439 
L 944.593692 271.973415 
L 193.692022 271.973415 
z
" clip-path="url(#p5eaaeec845)" style="fill: #0000ff"/>
   </g>
   <g id="patch_13">
    <path d="M 270.990724 277.812439 
L 856.252319 277.812439 
L 856.252319 271.973415 
L 270.990724 271.973415 
z
" clip-path="url(#p5eaaeec845)" style="fill: #0000ff"/>
   </g>
   <g id="patch_14">
    <path d="M 282.033395 277.812439 
L 806.560297 277.812439 
L 806.560297 271.973415 
L 282.033395 271.973415 
z
" clip-path="url(#p5eaaeec845)" style="fill: #0000ff"/>
   </g>
   <g id="patch_15">
    <path d="M 359.332096 277.812439 
L 850.730983 277.812439 
L 850.730983 271.973415 
L 359.332096 271.973415 
z
" clip-path="url(#p5eaaeec845)" style="fill: #0000ff"/>
   </g>
   <g id="patch_16">
    <path d="M 950.115028 275.11189 
L 994.285714 275.11189 
L 994.285714 274.673963 
L 950.115028 274.673963 
z
" clip-path="url(#p5eaaeec845)" style="fill: #0000ff"/>
   </g>
   <g id="patch_17">
    <path d="M 144 260.514329 
L 226.820037 260.514329 
L 226.820037 260.076402 
L 144 260.076402 
z
" clip-path="url(#p5eaaeec845)" style="fill: #0000ff"/>
   </g>
   <g id="patch_18">
    <path d="M 232.341373 263.214878 
L 651.962894 263.214878 
L 651.962894 257.375854 
L 232.341373 257.375854 
z
" clip-path="url(#p5eaaeec845)" style="fill: #0000ff"/>
   </g>
   <g id="patch_19">
    <path d="M 237.862709 263.214878 
L 729.261596 263.214878 
L 729.261596 257.375854 
L 237.862709 257.375854 
z
" clip-path="url(#p5eaaeec845)" style="fill: #0000ff"/>
   </g>
   <g id="patch_20">
    <path d="M 265.469388 263.214878 
L 651.962894 263.214878 
L 651.962894 257.375854 
L 265.469388 257.375854 
z
" clip-path="url(#p5eaaeec845)" style="fill: #0000ff"/>
   </g>
   <g id="patch_21">
    <path d="M 309.640074 263.214878 
L 723.74026 263.214878 
L 723.74026 257.375854 
L 309.640074 257.375854 
z
" clip-path="url(#p5eaaeec845)" style="fill: #0000ff"/>
   </g>
   <g id="patch_22">
    <path d="M 734.782931 260.514329 
L 889.380334 260.514329 
L 889.380334 260.076402 
L 734.782931 260.076402 
z
" clip-path="url(#p5eaaeec845)" style="fill: #0000ff"/>
   </g>
   <g id="patch_23">
    <path d="M 144 248.617317 
L 789.996289 248.617317 
L 789.996289 242.778293 
L 144 242.778293 
z
" clip-path="url(#p5eaaeec845)" style="fill: #0000ff"/>
   </g>
   <g id="patch_24">
    <path d="M 144 248.617317 
L 762.38961 248.617317 
L 762.38961 242.778293 
L 144 242.778293 
z
" clip-path="url(#p5eaaeec845)" style="fill: #0000ff"/>
   </g>
   <g id="patch_25">
    <path d="M 177.128015 248.617317 
L 773.432282 248.617317 
L 773.432282 242.778293 
L 177.128015 242.778293 
z
" clip-path="url(#p5eaaeec845)" style="fill: #0000ff"/>
   </g>
   <g id="patch_26">
    <path d="M 204.734694 248.617317 
L 762.38961 248.617317 
L 762.38961 242.778293 
L 204.734694 242.778293 
z
" clip-path="url(#p5eaaeec845)" style="fill: #0000ff"/>
   </g>
   <g id="patch_27">
    <path d="M 232.341373 248.617317 
L 740.304267 248.617317 
L 740.304267 242.778293 
L 232.341373 242.778293 
z
" clip-path="url(#p5eaaeec845)" style="fill: #0000ff"/>
   </g>
   <g id="patch_28">
    <path d="M 144 234.019756 
L 767.910946 234.019756 
L 767.910946 228.180732 
L 144 228.180732 
z
" clip-path="url(#p5eaaeec845)" style="fill: #0000ff"/>
   </g>
   <g id="patch_29">
    <path d="M 149.521336 234.019756 
L 629.877551 234.019756 
L 629.877551 228.180732 
L 149.521336 228.180732 
z
" clip-path="url(#p5eaaeec845)" style="fill: #0000ff"/>
   </g>
   <g id="patch_30">
    <path d="M 221.298701 234.019756 
L 767.910946 234.019756 
L 767.910946 228.180732 
L 221.298701 228.180732 
z
" clip-path="url(#p5eaaeec845)" style="fill: #0000ff"/>
   </g>
   <g id="patch_31">
    <path d="M 221.298701 234.019756 
L 629.877551 234.019756 
L 629.877551 228.180732 
L 221.298701 228.180732 
z
" clip-path="url(#p5eaaeec845)" style="fill: #0000ff"/>
   </g>
   <g id="patch_32">
    <path d="M 237.862709 234.019756 
L 756.868275 234.019756 
L 756.868275 228.180732 
L 237.862709 228.180732 
z
" clip-path="url(#p5eaaeec845)" style="fill: #0000ff"/>
   </g>
   <g id="patch_33">
    <path d="M 144 219.422195 
L 812.081633 219.422195 
L 812.081633 213.583171 
L 144 213.583171 
z
" clip-path="url(#p5eaaeec845)" style="fill: #0000ff"/>
   </g>
   <g id="patch_34">
    <path d="M 166.085343 219.422195 
L 828.64564 219.422195 
L 828.64564 213.583171 
L 166.085343 213.583171 
z
" clip-path="url(#p5eaaeec845)" style="fill: #0000ff"/>
   </g>
   <g id="patch_35">
    <path d="M 188.170686 219.422195 
L 823.124304 219.422195 
L 823.124304 213.583171 
L 188.170686 213.583171 
z
" clip-path="url(#p5eaaeec845)" style="fill: #0000ff"/>
   </g>
   <g id="patch_36">
    <path d="M 199.213358 219.422195 
L 817.602968 219.422195 
L 817.602968 213.583171 
L 199.213358 213.583171 
z
" clip-path="url(#p5eaaeec845)" style="fill: #0000ff"/>
   </g>
   <g id="patch_37">
    <path d="M 265.469388 219.422195 
L 773.432282 219.422195 
L 773.432282 213.583171 
L 265.469388 213.583171 
z
" clip-path="url(#p5eaaeec845)" style="fill: #0000ff"/>
   </g>
   <g id="patch_38">
    <path d="M 834.166976 216.721646 
L 850.730983 216.721646 
L 850.730983 216.28372 
L 834.166976 216.28372 
z
" clip-path="url(#p5eaaeec845)" style="fill: #0000ff"/>
   </g>
   <g id="patch_39">
    <path d="M 144 204.824634 
L 756.868275 204.824634 
L 756.868275 198.98561 
L 144 198.98561 
z
" clip-path="url(#p5eaaeec845)" style="fill: #0000ff"/>
   </g>
   <g id="patch_40">
    <path d="M 144 204.824634 
L 756.868275 204.824634 
L 756.868275 198.98561 
L 144 198.98561 
z
" clip-path="url(#p5eaaeec845)" style="fill: #0000ff"/>
   </g>
   <g id="patch_41">
    <path d="M 149.521336 204.824634 
L 784.474954 204.824634 
L 784.474954 198.98561 
L 149.521336 198.98561 
z
" clip-path="url(#p5eaaeec845)" style="fill: #0000ff"/>
   </g>
   <g id="patch_42">
    <path d="M 171.606679 204.824634 
L 745.825603 204.824634 
L 745.825603 198.98561 
L 171.606679 198.98561 
z
" clip-path="url(#p5eaaeec845)" style="fill: #0000ff"/>
   </g>
   <g id="patch_43">
    <path d="M 215.777365 204.824634 
L 729.261596 204.824634 
L 729.261596 198.98561 
L 215.777365 198.98561 
z
" clip-path="url(#p5eaaeec845)" style="fill: #0000ff"/>
   </g>
   <g id="patch_44">
    <path d="M 789.996289 202.124085 
L 801.038961 202.124085 
L 801.038961 201.686159 
L 789.996289 201.686159 
z
" clip-path="url(#p5eaaeec845)" style="fill: #0000ff"/>
   </g>
   <g id="patch_45">
    <path d="M 144 190.227073 
L 845.209647 190.227073 
L 845.209647 184.388049 
L 144 184.388049 
z
" clip-path="url(#p5eaaeec845)" style="fill: #0000ff"/>
   </g>
   <g id="patch_46">
    <path d="M 144 190.227073 
L 789.996289 190.227073 
L 789.996289 184.388049 
L 144 184.388049 
z
" clip-path="url(#p5eaaeec845)" style="fill: #0000ff"/>
   </g>
   <g id="patch_47">
    <path d="M 149.521336 190.227073 
L 817.602968 190.227073 
L 817.602968 184.388049 
L 149.521336 184.388049 
z
" clip-path="url(#p5eaaeec845)" style="fill: #0000ff"/>
   </g>
   <g id="patch_48">
    <path d="M 221.298701 190.227073 
L 806.560297 190.227073 
L 806.560297 184.388049 
L 221.298701 184.388049 
z
" clip-path="url(#p5eaaeec845)" style="fill: #0000ff"/>
   </g>
   <g id="patch_49">
    <path d="M 259.948052 190.227073 
L 751.346939 190.227073 
L 751.346939 184.388049 
L 259.948052 184.388049 
z
" clip-path="url(#p5eaaeec845)" style="fill: #0000ff"/>
   </g>
   <g id="patch_50">
    <path d="M 144 175.629512 
L 911.465677 175.629512 
L 911.465677 169.790488 
L 144 169.790488 
z
" clip-path="url(#p5eaaeec845)" style="fill: #0000ff"/>
   </g>
   <g id="patch_51">
    <path d="M 155.042672 175.629512 
L 856.252319 175.629512 
L 856.252319 169.790488 
L 155.042672 169.790488 
z
" clip-path="url(#p5eaaeec845)" style="fill: #0000ff"/>
   </g>
   <g id="patch_52">
    <path d="M 160.564007 175.629512 
L 828.64564 175.629512 
L 828.64564 169.790488 
L 160.564007 169.790488 
z
" clip-path="url(#p5eaaeec845)" style="fill: #0000ff"/>
   </g>
   <g id="patch_53">
    <path d="M 193.692022 175.629512 
L 778.953618 175.629512 
L 778.953618 169.790488 
L 193.692022 169.790488 
z
" clip-path="url(#p5eaaeec845)" style="fill: #0000ff"/>
   </g>
   <g id="patch_54">
    <path d="M 254.426716 175.629512 
L 751.346939 175.629512 
L 751.346939 169.790488 
L 254.426716 169.790488 
z
" clip-path="url(#p5eaaeec845)" style="fill: #0000ff"/>
   </g>
   <g id="patch_55">
    <path d="M 916.987013 172.928963 
L 944.593692 172.928963 
L 944.593692 172.491037 
L 916.987013 172.491037 
z
" clip-path="url(#p5eaaeec845)" style="fill: #0000ff"/>
   </g>
   <g id="patch_56">
    <path d="M 144 158.331402 
L 248.90538 158.331402 
L 248.90538 157.893476 
L 144 157.893476 
z
" clip-path="url(#p5eaaeec845)" style="fill: #0000ff"/>
   </g>
   <g id="patch_57">
    <path d="M 254.426716 161.031951 
L 767.910946 161.031951 
L 767.910946 155.192927 
L 254.426716 155.192927 
z
" clip-path="url(#p5eaaeec845)" style="fill: #0000ff"/>
   </g>
   <g id="patch_58">
    <path d="M 259.948052 161.031951 
L 861.773655 161.031951 
L 861.773655 155.192927 
L 259.948052 155.192927 
z
" clip-path="url(#p5eaaeec845)" style="fill: #0000ff"/>
   </g>
   <g id="patch_59">
    <path d="M 259.948052 161.031951 
L 850.730983 161.031951 
L 850.730983 155.192927 
L 259.948052 155.192927 
z
" clip-path="url(#p5eaaeec845)" style="fill: #0000ff"/>
   </g>
   <g id="patch_60">
    <path d="M 265.469388 161.031951 
L 828.64564 161.031951 
L 828.64564 155.192927 
L 265.469388 155.192927 
z
" clip-path="url(#p5eaaeec845)" style="fill: #0000ff"/>
   </g>
   <g id="patch_61">
    <path d="M 144 146.43439 
L 773.432282 146.43439 
L 773.432282 140.595366 
L 144 140.595366 
z
" clip-path="url(#p5eaaeec845)" style="fill: #0000ff"/>
   </g>
   <g id="patch_62">
    <path d="M 149.521336 146.43439 
L 773.432282 146.43439 
L 773.432282 140.595366 
L 149.521336 140.595366 
z
" clip-path="url(#p5eaaeec845)" style="fill: #0000ff"/>
   </g>
   <g id="patch_63">
    <path d="M 171.606679 146.43439 
L 773.432282 146.43439 
L 773.432282 140.595366 
L 171.606679 140.595366 
z
" clip-path="url(#p5eaaeec845)" style="fill: #0000ff"/>
   </g>
   <g id="patch_64">
    <path d="M 171.606679 146.43439 
L 773.432282 146.43439 
L 773.432282 140.595366 
L 171.606679 140.595366 
z
" clip-path="url(#p5eaaeec845)" style="fill: #0000ff"/>
   </g>
   <g id="patch_65">
    <path d="M 210.25603 146.43439 
L 718.218924 146.43439 
L 718.218924 140.595366 
L 210.25603 140.595366 
z
" clip-path="url(#p5eaaeec845)" style="fill: #0000ff"/>
   </g>
   <g id="patch_66">
    <path d="M 144 129.13628 
L 155.042672 129.13628 
L 155.042672 128.698354 
L 144 128.698354 
z
" clip-path="url(#p5eaaeec845)" style="fill: #0000ff"/>
   </g>
   <g id="patch_67">
    <path d="M 160.564007 131.836829 
L 883.858998 131.836829 
L 883.858998 125.997805 
L 160.564007 125.997805 
z
" clip-path="url(#p5eaaeec845)" style="fill: #0000ff"/>
   </g>
   <g id="patch_68">
    <path d="M 182.649351 131.836829 
L 883.858998 131.836829 
L 883.858998 125.997805 
L 182.649351 125.997805 
z
" clip-path="url(#p5eaaeec845)" style="fill: #0000ff"/>
   </g>
   <g id="patch_69">
    <path d="M 199.213358 131.836829 
L 806.560297 131.836829 
L 806.560297 125.997805 
L 199.213358 125.997805 
z
" clip-path="url(#p5eaaeec845)" style="fill: #0000ff"/>
   </g>
   <g id="patch_70">
    <path d="M 276.512059 131.836829 
L 778.953618 131.836829 
L 778.953618 125.997805 
L 276.512059 125.997805 
z
" clip-path="url(#p5eaaeec845)" style="fill: #0000ff"/>
   </g>
   <g id="patch_71">
    <path d="M 309.640074 131.836829 
L 806.560297 131.836829 
L 806.560297 125.997805 
L 309.640074 125.997805 
z
" clip-path="url(#p5eaaeec845)" style="fill: #0000ff"/>
   </g>
   <g id="patch_72">
    <path d="M 144 117.239268 
L 756.868275 117.239268 
L 756.868275 111.400244 
L 144 111.400244 
z
" clip-path="url(#p5eaaeec845)" style="fill: #0000ff"/>
   </g>
   <g id="patch_73">
    <path d="M 166.085343 117.239268 
L 756.868275 117.239268 
L 756.868275 111.400244 
L 166.085343 111.400244 
z
" clip-path="url(#p5eaaeec845)" style="fill: #0000ff"/>
   </g>
   <g id="patch_74">
    <path d="M 188.170686 117.239268 
L 745.825603 117.239268 
L 745.825603 111.400244 
L 188.170686 111.400244 
z
" clip-path="url(#p5eaaeec845)" style="fill: #0000ff"/>
   </g>
   <g id="patch_75">
    <path d="M 215.777365 117.239268 
L 729.261596 117.239268 
L 729.261596 111.400244 
L 215.777365 111.400244 
z
" clip-path="url(#p5eaaeec845)" style="fill: #0000ff"/>
   </g>
   <g id="patch_76">
    <path d="M 243.384045 117.239268 
L 707.176252 117.239268 
L 707.176252 111.400244 
L 243.384045 111.400244 
z
" clip-path="url(#p5eaaeec845)" style="fill: #0000ff"/>
   </g>
   <g id="patch_77">
    <path d="M 144 102.641707 
L 740.304267 102.641707 
L 740.304267 96.802683 
L 144 96.802683 
z
" clip-path="url(#p5eaaeec845)" style="fill: #0000ff"/>
   </g>
   <g id="patch_78">
    <path d="M 166.085343 102.641707 
L 729.261596 102.641707 
L 729.261596 96.802683 
L 166.085343 96.802683 
z
" clip-path="url(#p5eaaeec845)" style="fill: #0000ff"/>
   </g>
   <g id="patch_79">
    <path d="M 166.085343 102.641707 
L 674.048237 102.641707 
L 674.048237 96.802683 
L 166.085343 96.802683 
z
" clip-path="url(#p5eaaeec845)" style="fill: #0000ff"/>
   </g>
   <g id="patch_80">
    <path d="M 171.606679 102.641707 
L 729.261596 102.641707 
L 729.261596 96.802683 
L 171.606679 96.802683 
z
" clip-path="url(#p5eaaeec845)" style="fill: #0000ff"/>
   </g>
   <g id="patch_81">
    <path d="M 204.734694 102.641707 
L 712.697588 102.641707 
L 712.697588 96.802683 
L 204.734694 96.802683 
z
" clip-path="url(#p5eaaeec845)" style="fill: #0000ff"/>
   </g>
   <g id="patch_82">
    <path d="M 144 88.044146 
L 762.38961 88.044146 
L 762.38961 82.205122 
L 144 82.205122 
z
" clip-path="url(#p5eaaeec845)" style="fill: #0000ff"/>
   </g>
   <g id="patch_83">
    <path d="M 166.085343 88.044146 
L 762.38961 88.044146 
L 762.38961 82.205122 
L 166.085343 82.205122 
z
" clip-path="url(#p5eaaeec845)" style="fill: #0000ff"/>
   </g>
   <g id="patch_84">
    <path d="M 210.25603 88.044146 
L 723.74026 88.044146 
L 723.74026 82.205122 
L 210.25603 82.205122 
z
" clip-path="url(#p5eaaeec845)" style="fill: #0000ff"/>
   </g>
   <g id="patch_85">
    <path d="M 215.777365 88.044146 
L 762.38961 88.044146 
L 762.38961 82.205122 
L 215.777365 82.205122 
z
" clip-path="url(#p5eaaeec845)" style="fill: #0000ff"/>
   </g>
   <g id="patch_86">
    <path d="M 215.777365 88.044146 
L 718.218924 88.044146 
L 718.218924 82.205122 
L 215.777365 82.205122 
z
" clip-path="url(#p5eaaeec845)" style="fill: #0000ff"/>
   </g>
   <g id="patch_87">
    <path d="M 144 70.746037 
L 166.085343 70.746037 
L 166.085343 70.30811 
L 144 70.30811 
z
" clip-path="url(#p5eaaeec845)" style="fill: #0000ff"/>
   </g>
   <g id="patch_88">
    <path d="M 171.606679 73.446585 
L 679.569573 73.446585 
L 679.569573 67.607561 
L 171.606679 67.607561 
z
" clip-path="url(#p5eaaeec845)" style="fill: #0000ff"/>
   </g>
   <g id="patch_89">
    <path d="M 177.128015 73.446585 
L 607.792208 73.446585 
L 607.792208 67.607561 
L 177.128015 67.607561 
z
" clip-path="url(#p5eaaeec845)" style="fill: #0000ff"/>
   </g>
   <g id="patch_90">
    <path d="M 204.734694 73.446585 
L 867.294991 73.446585 
L 867.294991 67.607561 
L 204.734694 67.607561 
z
" clip-path="url(#p5eaaeec845)" style="fill: #0000ff"/>
   </g>
   <g id="patch_91">
    <path d="M 232.341373 73.446585 
L 651.962894 73.446585 
L 651.962894 67.607561 
L 232.341373 67.607561 
z
" clip-path="url(#p5eaaeec845)" style="fill: #0000ff"/>
   </g>
   <g id="patch_92">
    <path d="M 265.469388 73.446585 
L 679.569573 73.446585 
L 679.569573 67.607561 
L 265.469388 67.607561 
z
" clip-path="url(#p5eaaeec845)" style="fill: #0000ff"/>
   </g>
   <g id="patch_93">
    <path d="M 872.816327 70.746037 
L 889.380334 70.746037 
L 889.380334 70.30811 
L 872.816327 70.30811 
z
" clip-path="url(#p5eaaeec845)" style="fill: #0000ff"/>
   </g>
   <g id="patch_94">
    <path d="M 144 56.148476 
L 199.213358 56.148476 
L 199.213358 55.710549 
L 144 55.710549 
z
" clip-path="url(#p5eaaeec845)" style="fill: #0000ff"/>
   </g>
   <g id="patch_95">
    <path d="M 204.734694 58.849024 
L 883.858998 58.849024 
L 883.858998 53.01 
L 204.734694 53.01 
z
" clip-path="url(#p5eaaeec845)" style="fill: #0000ff"/>
   </g>
   <g id="patch_96">
    <path d="M 293.076067 58.849024 
L 773.432282 58.849024 
L 773.432282 53.01 
L 293.076067 53.01 
z
" clip-path="url(#p5eaaeec845)" style="fill: #0000ff"/>
   </g>
   <g id="patch_97">
    <path d="M 331.725417 58.849024 
L 812.081633 58.849024 
L 812.081633 53.01 
L 331.725417 53.01 
z
" clip-path="url(#p5eaaeec845)" style="fill: #0000ff"/>
   </g>
   <g id="patch_98">
    <path d="M 889.380334 56.148476 
L 889.380334 56.148476 
L 889.380334 55.710549 
L 889.380334 55.710549 
z
" clip-path="url(#p5eaaeec845)" style="fill: #0000ff"/>
   </g>
   <g id="matplotlib.axis_1">
    <g id="xtick_1">
     <g id="line2d_1">
      <defs>
       <path id="m3c4c52f783" d="M 0 0 
L 0 3.5 
" style="stroke: #000000; stroke-width: 0.8"/>
      </defs>
      <g>
       <use xlink:href="#m3c4c52f783" x="248.90538" y="304.38" style="stroke: #000000; stroke-width: 0.8"/>
      </g>
     </g>
     <g id="text_1">
      <!-- 20 -->
      <g transform="translate(242.54288 318.978437) scale(0.1 -0.1)">
       <defs>
        <path id="DejaVuSans-32" d="M 1228 531 
L 3431 531 
L 3431 0 
L 469 0 
L 469 531 
Q 828 903 1448 1529 
Q 2069 2156 2228 2338 
Q 2531 2678 2651 2914 
Q 2772 3150 2772 3378 
Q 2772 3750 2511 3984 
Q 2250 4219 1831 4219 
Q 1534 4219 1204 4116 
Q 875 4013 500 3803 
L 500 4441 
Q 881 4594 1212 4672 
Q 1544 4750 1819 4750 
Q 2544 4750 2975 4387 
Q 3406 4025 3406 3419 
Q 3406 3131 3298 2873 
Q 3191 2616 2906 2266 
Q 2828 2175 2409 1742 
Q 1991 1309 1228 531 
z
" transform="scale(0.015625)"/>
        <path id="DejaVuSans-30" d="M 2034 4250 
Q 1547 4250 1301 3770 
Q 1056 3291 1056 2328 
Q 1056 1369 1301 889 
Q 1547 409 2034 409 
Q 2525 409 2770 889 
Q 3016 1369 3016 2328 
Q 3016 3291 2770 3770 
Q 2525 4250 2034 4250 
z
M 2034 4750 
Q 2819 4750 3233 4129 
Q 3647 3509 3647 2328 
Q 3647 1150 3233 529 
Q 2819 -91 2034 -91 
Q 1250 -91 836 529 
Q 422 1150 422 2328 
Q 422 3509 836 4129 
Q 1250 4750 2034 4750 
z
" transform="scale(0.015625)"/>
       </defs>
       <use xlink:href="#DejaVuSans-32"/>
       <use xlink:href="#DejaVuSans-30" x="63.623047"/>
      </g>
     </g>
    </g>
    <g id="xtick_2">
     <g id="line2d_2">
      <g>
       <use xlink:href="#m3c4c52f783" x="359.332096" y="304.38" style="stroke: #000000; stroke-width: 0.8"/>
      </g>
     </g>
     <g id="text_2">
      <!-- 40 -->
      <g transform="translate(352.969596 318.978437) scale(0.1 -0.1)">
       <defs>
        <path id="DejaVuSans-34" d="M 2419 4116 
L 825 1625 
L 2419 1625 
L 2419 4116 
z
M 2253 4666 
L 3047 4666 
L 3047 1625 
L 3713 1625 
L 3713 1100 
L 3047 1100 
L 3047 0 
L 2419 0 
L 2419 1100 
L 313 1100 
L 313 1709 
L 2253 4666 
z
" transform="scale(0.015625)"/>
       </defs>
       <use xlink:href="#DejaVuSans-34"/>
       <use xlink:href="#DejaVuSans-30" x="63.623047"/>
      </g>
     </g>
    </g>
    <g id="xtick_3">
     <g id="line2d_3">
      <g>
       <use xlink:href="#m3c4c52f783" x="469.758813" y="304.38" style="stroke: #000000; stroke-width: 0.8"/>
      </g>
     </g>
     <g id="text_3">
      <!-- 60 -->
      <g transform="translate(463.396313 318.978437) scale(0.1 -0.1)">
       <defs>
        <path id="DejaVuSans-36" d="M 2113 2584 
Q 1688 2584 1439 2293 
Q 1191 2003 1191 1497 
Q 1191 994 1439 701 
Q 1688 409 2113 409 
Q 2538 409 2786 701 
Q 3034 994 3034 1497 
Q 3034 2003 2786 2293 
Q 2538 2584 2113 2584 
z
M 3366 4563 
L 3366 3988 
Q 3128 4100 2886 4159 
Q 2644 4219 2406 4219 
Q 1781 4219 1451 3797 
Q 1122 3375 1075 2522 
Q 1259 2794 1537 2939 
Q 1816 3084 2150 3084 
Q 2853 3084 3261 2657 
Q 3669 2231 3669 1497 
Q 3669 778 3244 343 
Q 2819 -91 2113 -91 
Q 1303 -91 875 529 
Q 447 1150 447 2328 
Q 447 3434 972 4092 
Q 1497 4750 2381 4750 
Q 2619 4750 2861 4703 
Q 3103 4656 3366 4563 
z
" transform="scale(0.015625)"/>
       </defs>
       <use xlink:href="#DejaVuSans-36"/>
       <use xlink:href="#DejaVuSans-30" x="63.623047"/>
      </g>
     </g>
    </g>
    <g id="xtick_4">
     <g id="line2d_4">
      <g>
       <use xlink:href="#m3c4c52f783" x="580.185529" y="304.38" style="stroke: #000000; stroke-width: 0.8"/>
      </g>
     </g>
     <g id="text_4">
      <!-- 80 -->
      <g transform="translate(573.823029 318.978437) scale(0.1 -0.1)">
       <defs>
        <path id="DejaVuSans-38" d="M 2034 2216 
Q 1584 2216 1326 1975 
Q 1069 1734 1069 1313 
Q 1069 891 1326 650 
Q 1584 409 2034 409 
Q 2484 409 2743 651 
Q 3003 894 3003 1313 
Q 3003 1734 2745 1975 
Q 2488 2216 2034 2216 
z
M 1403 2484 
Q 997 2584 770 2862 
Q 544 3141 544 3541 
Q 544 4100 942 4425 
Q 1341 4750 2034 4750 
Q 2731 4750 3128 4425 
Q 3525 4100 3525 3541 
Q 3525 3141 3298 2862 
Q 3072 2584 2669 2484 
Q 3125 2378 3379 2068 
Q 3634 1759 3634 1313 
Q 3634 634 3220 271 
Q 2806 -91 2034 -91 
Q 1263 -91 848 271 
Q 434 634 434 1313 
Q 434 1759 690 2068 
Q 947 2378 1403 2484 
z
M 1172 3481 
Q 1172 3119 1398 2916 
Q 1625 2713 2034 2713 
Q 2441 2713 2670 2916 
Q 2900 3119 2900 3481 
Q 2900 3844 2670 4047 
Q 2441 4250 2034 4250 
Q 1625 4250 1398 4047 
Q 1172 3844 1172 3481 
z
" transform="scale(0.015625)"/>
       </defs>
       <use xlink:href="#DejaVuSans-38"/>
       <use xlink:href="#DejaVuSans-30" x="63.623047"/>
      </g>
     </g>
    </g>
    <g id="xtick_5">
     <g id="line2d_5">
      <g>
       <use xlink:href="#m3c4c52f783" x="690.612245" y="304.38" style="stroke: #000000; stroke-width: 0.8"/>
      </g>
     </g>
     <g id="text_5">
      <!-- 100 -->
      <g transform="translate(681.068495 318.978437) scale(0.1 -0.1)">
       <defs>
        <path id="DejaVuSans-31" d="M 794 531 
L 1825 531 
L 1825 4091 
L 703 3866 
L 703 4441 
L 1819 4666 
L 2450 4666 
L 2450 531 
L 3481 531 
L 3481 0 
L 794 0 
L 794 531 
z
" transform="scale(0.015625)"/>
       </defs>
       <use xlink:href="#DejaVuSans-31"/>
       <use xlink:href="#DejaVuSans-30" x="63.623047"/>
       <use xlink:href="#DejaVuSans-30" x="127.246094"/>
      </g>
     </g>
    </g>
    <g id="xtick_6">
     <g id="line2d_6">
      <g>
       <use xlink:href="#m3c4c52f783" x="801.038961" y="304.38" style="stroke: #000000; stroke-width: 0.8"/>
      </g>
     </g>
     <g id="text_6">
      <!-- 120 -->
      <g transform="translate(791.495211 318.978437) scale(0.1 -0.1)">
       <use xlink:href="#DejaVuSans-31"/>
       <use xlink:href="#DejaVuSans-32" x="63.623047"/>
       <use xlink:href="#DejaVuSans-30" x="127.246094"/>
      </g>
     </g>
    </g>
    <g id="xtick_7">
     <g id="line2d_7">
      <g>
       <use xlink:href="#m3c4c52f783" x="911.465677" y="304.38" style="stroke: #000000; stroke-width: 0.8"/>
      </g>
     </g>
     <g id="text_7">
      <!-- 140 -->
      <g transform="translate(901.921927 318.978437) scale(0.1 -0.1)">
       <use xlink:href="#DejaVuSans-31"/>
       <use xlink:href="#DejaVuSans-34" x="63.623047"/>
       <use xlink:href="#DejaVuSans-30" x="127.246094"/>
      </g>
     </g>
    </g>
    <g id="xtick_8">
     <g id="line2d_8">
      <g>
       <use xlink:href="#m3c4c52f783" x="1021.892393" y="304.38" style="stroke: #000000; stroke-width: 0.8"/>
      </g>
     </g>
     <g id="text_8">
      <!-- 160 -->
      <g transform="translate(1012.348643 318.978437) scale(0.1 -0.1)">
       <use xlink:href="#DejaVuSans-31"/>
       <use xlink:href="#DejaVuSans-36" x="63.623047"/>
       <use xlink:href="#DejaVuSans-30" x="127.246094"/>
      </g>
     </g>
    </g>
    <g id="text_9">
     <!-- Residual -->
     <g transform="translate(569.284375 332.656563) scale(0.1 -0.1)">
      <defs>
       <path id="DejaVuSans-52" d="M 2841 2188 
Q 3044 2119 3236 1894 
Q 3428 1669 3622 1275 
L 4263 0 
L 3584 0 
L 2988 1197 
Q 2756 1666 2539 1819 
Q 2322 1972 1947 1972 
L 1259 1972 
L 1259 0 
L 628 0 
L 628 4666 
L 2053 4666 
Q 2853 4666 3247 4331 
Q 3641 3997 3641 3322 
Q 3641 2881 3436 2590 
Q 3231 2300 2841 2188 
z
M 1259 4147 
L 1259 2491 
L 2053 2491 
Q 2509 2491 2742 2702 
Q 2975 2913 2975 3322 
Q 2975 3731 2742 3939 
Q 2509 4147 2053 4147 
L 1259 4147 
z
" transform="scale(0.015625)"/>
       <path id="DejaVuSans-65" d="M 3597 1894 
L 3597 1613 
L 953 1613 
Q 991 1019 1311 708 
Q 1631 397 2203 397 
Q 2534 397 2845 478 
Q 3156 559 3463 722 
L 3463 178 
Q 3153 47 2828 -22 
Q 2503 -91 2169 -91 
Q 1331 -91 842 396 
Q 353 884 353 1716 
Q 353 2575 817 3079 
Q 1281 3584 2069 3584 
Q 2775 3584 3186 3129 
Q 3597 2675 3597 1894 
z
M 3022 2063 
Q 3016 2534 2758 2815 
Q 2500 3097 2075 3097 
Q 1594 3097 1305 2825 
Q 1016 2553 972 2059 
L 3022 2063 
z
" transform="scale(0.015625)"/>
       <path id="DejaVuSans-73" d="M 2834 3397 
L 2834 2853 
Q 2591 2978 2328 3040 
Q 2066 3103 1784 3103 
Q 1356 3103 1142 2972 
Q 928 2841 928 2578 
Q 928 2378 1081 2264 
Q 1234 2150 1697 2047 
L 1894 2003 
Q 2506 1872 2764 1633 
Q 3022 1394 3022 966 
Q 3022 478 2636 193 
Q 2250 -91 1575 -91 
Q 1294 -91 989 -36 
Q 684 19 347 128 
L 347 722 
Q 666 556 975 473 
Q 1284 391 1588 391 
Q 1994 391 2212 530 
Q 2431 669 2431 922 
Q 2431 1156 2273 1281 
Q 2116 1406 1581 1522 
L 1381 1569 
Q 847 1681 609 1914 
Q 372 2147 372 2553 
Q 372 3047 722 3315 
Q 1072 3584 1716 3584 
Q 2034 3584 2315 3537 
Q 2597 3491 2834 3397 
z
" transform="scale(0.015625)"/>
       <path id="DejaVuSans-69" d="M 603 3500 
L 1178 3500 
L 1178 0 
L 603 0 
L 603 3500 
z
M 603 4863 
L 1178 4863 
L 1178 4134 
L 603 4134 
L 603 4863 
z
" transform="scale(0.015625)"/>
       <path id="DejaVuSans-64" d="M 2906 2969 
L 2906 4863 
L 3481 4863 
L 3481 0 
L 2906 0 
L 2906 525 
Q 2725 213 2448 61 
Q 2172 -91 1784 -91 
Q 1150 -91 751 415 
Q 353 922 353 1747 
Q 353 2572 751 3078 
Q 1150 3584 1784 3584 
Q 2172 3584 2448 3432 
Q 2725 3281 2906 2969 
z
M 947 1747 
Q 947 1113 1208 752 
Q 1469 391 1925 391 
Q 2381 391 2643 752 
Q 2906 1113 2906 1747 
Q 2906 2381 2643 2742 
Q 2381 3103 1925 3103 
Q 1469 3103 1208 2742 
Q 947 2381 947 1747 
z
" transform="scale(0.015625)"/>
       <path id="DejaVuSans-75" d="M 544 1381 
L 544 3500 
L 1119 3500 
L 1119 1403 
Q 1119 906 1312 657 
Q 1506 409 1894 409 
Q 2359 409 2629 706 
Q 2900 1003 2900 1516 
L 2900 3500 
L 3475 3500 
L 3475 0 
L 2900 0 
L 2900 538 
Q 2691 219 2414 64 
Q 2138 -91 1772 -91 
Q 1169 -91 856 284 
Q 544 659 544 1381 
z
M 1991 3584 
L 1991 3584 
z
" transform="scale(0.015625)"/>
       <path id="DejaVuSans-61" d="M 2194 1759 
Q 1497 1759 1228 1600 
Q 959 1441 959 1056 
Q 959 750 1161 570 
Q 1363 391 1709 391 
Q 2188 391 2477 730 
Q 2766 1069 2766 1631 
L 2766 1759 
L 2194 1759 
z
M 3341 1997 
L 3341 0 
L 2766 0 
L 2766 531 
Q 2569 213 2275 61 
Q 1981 -91 1556 -91 
Q 1019 -91 701 211 
Q 384 513 384 1019 
Q 384 1609 779 1909 
Q 1175 2209 1959 2209 
L 2766 2209 
L 2766 2266 
Q 2766 2663 2505 2880 
Q 2244 3097 1772 3097 
Q 1472 3097 1187 3025 
Q 903 2953 641 2809 
L 641 3341 
Q 956 3463 1253 3523 
Q 1550 3584 1831 3584 
Q 2591 3584 2966 3190 
Q 3341 2797 3341 1997 
z
" transform="scale(0.015625)"/>
       <path id="DejaVuSans-6c" d="M 603 4863 
L 1178 4863 
L 1178 0 
L 603 0 
L 603 4863 
z
" transform="scale(0.015625)"/>
      </defs>
      <use xlink:href="#DejaVuSans-52"/>
      <use xlink:href="#DejaVuSans-65" x="64.982422"/>
      <use xlink:href="#DejaVuSans-73" x="126.505859"/>
      <use xlink:href="#DejaVuSans-69" x="178.605469"/>
      <use xlink:href="#DejaVuSans-64" x="206.388672"/>
      <use xlink:href="#DejaVuSans-75" x="269.865234"/>
      <use xlink:href="#DejaVuSans-61" x="333.244141"/>
      <use xlink:href="#DejaVuSans-6c" x="394.523438"/>
     </g>
    </g>
   </g>
   <g id="matplotlib.axis_2">
    <g id="ytick_1">
     <g id="line2d_9">
      <defs>
       <path id="m2fcc8d0f5b" d="M 0 0 
L -3.5 0 
" style="stroke: #000000; stroke-width: 0.8"/>
      </defs>
      <g>
       <use xlink:href="#m2fcc8d0f5b" x="144" y="289.490488" style="stroke: #000000; stroke-width: 0.8"/>
      </g>
     </g>
     <g id="text_10">
      <!-- 1.E.14.1.1 -->
      <g transform="translate(86.15625 293.289707) scale(0.1 -0.1)">
       <defs>
        <path id="DejaVuSans-2e" d="M 684 794 
L 1344 794 
L 1344 0 
L 684 0 
L 684 794 
z
" transform="scale(0.015625)"/>
        <path id="DejaVuSans-45" d="M 628 4666 
L 3578 4666 
L 3578 4134 
L 1259 4134 
L 1259 2753 
L 3481 2753 
L 3481 2222 
L 1259 2222 
L 1259 531 
L 3634 531 
L 3634 0 
L 628 0 
L 628 4666 
z
" transform="scale(0.015625)"/>
       </defs>
       <use xlink:href="#DejaVuSans-31"/>
       <use xlink:href="#DejaVuSans-2e" x="63.623047"/>
       <use xlink:href="#DejaVuSans-45" x="95.410156"/>
       <use xlink:href="#DejaVuSans-2e" x="158.59375"/>
       <use xlink:href="#DejaVuSans-31" x="190.380859"/>
       <use xlink:href="#DejaVuSans-34" x="254.003906"/>
       <use xlink:href="#DejaVuSans-2e" x="317.626953"/>
       <use xlink:href="#DejaVuSans-31" x="349.414062"/>
       <use xlink:href="#DejaVuSans-2e" x="413.037109"/>
       <use xlink:href="#DejaVuSans-31" x="444.824219"/>
      </g>
     </g>
    </g>
    <g id="ytick_2">
     <g id="line2d_10">
      <g>
       <use xlink:href="#m2fcc8d0f5b" x="144" y="274.892927" style="stroke: #000000; stroke-width: 0.8"/>
      </g>
     </g>
     <g id="text_11">
      <!-- 1.E.14.1.10 -->
      <g transform="translate(79.79375 278.692146) scale(0.1 -0.1)">
       <use xlink:href="#DejaVuSans-31"/>
       <use xlink:href="#DejaVuSans-2e" x="63.623047"/>
       <use xlink:href="#DejaVuSans-45" x="95.410156"/>
       <use xlink:href="#DejaVuSans-2e" x="158.59375"/>
       <use xlink:href="#DejaVuSans-31" x="190.380859"/>
       <use xlink:href="#DejaVuSans-34" x="254.003906"/>
       <use xlink:href="#DejaVuSans-2e" x="317.626953"/>
       <use xlink:href="#DejaVuSans-31" x="349.414062"/>
       <use xlink:href="#DejaVuSans-2e" x="413.037109"/>
       <use xlink:href="#DejaVuSans-31" x="444.824219"/>
       <use xlink:href="#DejaVuSans-30" x="508.447266"/>
      </g>
     </g>
    </g>
    <g id="ytick_3">
     <g id="line2d_11">
      <g>
       <use xlink:href="#m2fcc8d0f5b" x="144" y="260.295366" style="stroke: #000000; stroke-width: 0.8"/>
      </g>
     </g>
     <g id="text_12">
      <!-- 1.E.14.1.11 -->
      <g transform="translate(79.79375 264.094585) scale(0.1 -0.1)">
       <use xlink:href="#DejaVuSans-31"/>
       <use xlink:href="#DejaVuSans-2e" x="63.623047"/>
       <use xlink:href="#DejaVuSans-45" x="95.410156"/>
       <use xlink:href="#DejaVuSans-2e" x="158.59375"/>
       <use xlink:href="#DejaVuSans-31" x="190.380859"/>
       <use xlink:href="#DejaVuSans-34" x="254.003906"/>
       <use xlink:href="#DejaVuSans-2e" x="317.626953"/>
       <use xlink:href="#DejaVuSans-31" x="349.414062"/>
       <use xlink:href="#DejaVuSans-2e" x="413.037109"/>
       <use xlink:href="#DejaVuSans-31" x="444.824219"/>
       <use xlink:href="#DejaVuSans-31" x="508.447266"/>
      </g>
     </g>
    </g>
    <g id="ytick_4">
     <g id="line2d_12">
      <g>
       <use xlink:href="#m2fcc8d0f5b" x="144" y="245.697805" style="stroke: #000000; stroke-width: 0.8"/>
      </g>
     </g>
     <g id="text_13">
      <!-- 1.E.14.1.12 -->
      <g transform="translate(79.79375 249.497024) scale(0.1 -0.1)">
       <use xlink:href="#DejaVuSans-31"/>
       <use xlink:href="#DejaVuSans-2e" x="63.623047"/>
       <use xlink:href="#DejaVuSans-45" x="95.410156"/>
       <use xlink:href="#DejaVuSans-2e" x="158.59375"/>
       <use xlink:href="#DejaVuSans-31" x="190.380859"/>
       <use xlink:href="#DejaVuSans-34" x="254.003906"/>
       <use xlink:href="#DejaVuSans-2e" x="317.626953"/>
       <use xlink:href="#DejaVuSans-31" x="349.414062"/>
       <use xlink:href="#DejaVuSans-2e" x="413.037109"/>
       <use xlink:href="#DejaVuSans-31" x="444.824219"/>
       <use xlink:href="#DejaVuSans-32" x="508.447266"/>
      </g>
     </g>
    </g>
    <g id="ytick_5">
     <g id="line2d_13">
      <g>
       <use xlink:href="#m2fcc8d0f5b" x="144" y="231.100244" style="stroke: #000000; stroke-width: 0.8"/>
      </g>
     </g>
     <g id="text_14">
      <!-- 1.E.14.1.13 -->
      <g transform="translate(79.79375 234.899463) scale(0.1 -0.1)">
       <defs>
        <path id="DejaVuSans-33" d="M 2597 2516 
Q 3050 2419 3304 2112 
Q 3559 1806 3559 1356 
Q 3559 666 3084 287 
Q 2609 -91 1734 -91 
Q 1441 -91 1130 -33 
Q 819 25 488 141 
L 488 750 
Q 750 597 1062 519 
Q 1375 441 1716 441 
Q 2309 441 2620 675 
Q 2931 909 2931 1356 
Q 2931 1769 2642 2001 
Q 2353 2234 1838 2234 
L 1294 2234 
L 1294 2753 
L 1863 2753 
Q 2328 2753 2575 2939 
Q 2822 3125 2822 3475 
Q 2822 3834 2567 4026 
Q 2313 4219 1838 4219 
Q 1578 4219 1281 4162 
Q 984 4106 628 3988 
L 628 4550 
Q 988 4650 1302 4700 
Q 1616 4750 1894 4750 
Q 2613 4750 3031 4423 
Q 3450 4097 3450 3541 
Q 3450 3153 3228 2886 
Q 3006 2619 2597 2516 
z
" transform="scale(0.015625)"/>
       </defs>
       <use xlink:href="#DejaVuSans-31"/>
       <use xlink:href="#DejaVuSans-2e" x="63.623047"/>
       <use xlink:href="#DejaVuSans-45" x="95.410156"/>
       <use xlink:href="#DejaVuSans-2e" x="158.59375"/>
       <use xlink:href="#DejaVuSans-31" x="190.380859"/>
       <use xlink:href="#DejaVuSans-34" x="254.003906"/>
       <use xlink:href="#DejaVuSans-2e" x="317.626953"/>
       <use xlink:href="#DejaVuSans-31" x="349.414062"/>
       <use xlink:href="#DejaVuSans-2e" x="413.037109"/>
       <use xlink:href="#DejaVuSans-31" x="444.824219"/>
       <use xlink:href="#DejaVuSans-33" x="508.447266"/>
      </g>
     </g>
    </g>
    <g id="ytick_6">
     <g id="line2d_14">
      <g>
       <use xlink:href="#m2fcc8d0f5b" x="144" y="216.502683" style="stroke: #000000; stroke-width: 0.8"/>
      </g>
     </g>
     <g id="text_15">
      <!-- 1.E.14.1.14 -->
      <g transform="translate(79.79375 220.301902) scale(0.1 -0.1)">
       <use xlink:href="#DejaVuSans-31"/>
       <use xlink:href="#DejaVuSans-2e" x="63.623047"/>
       <use xlink:href="#DejaVuSans-45" x="95.410156"/>
       <use xlink:href="#DejaVuSans-2e" x="158.59375"/>
       <use xlink:href="#DejaVuSans-31" x="190.380859"/>
       <use xlink:href="#DejaVuSans-34" x="254.003906"/>
       <use xlink:href="#DejaVuSans-2e" x="317.626953"/>
       <use xlink:href="#DejaVuSans-31" x="349.414062"/>
       <use xlink:href="#DejaVuSans-2e" x="413.037109"/>
       <use xlink:href="#DejaVuSans-31" x="444.824219"/>
       <use xlink:href="#DejaVuSans-34" x="508.447266"/>
      </g>
     </g>
    </g>
    <g id="ytick_7">
     <g id="line2d_15">
      <g>
       <use xlink:href="#m2fcc8d0f5b" x="144" y="201.905122" style="stroke: #000000; stroke-width: 0.8"/>
      </g>
     </g>
     <g id="text_16">
      <!-- 1.E.14.1.15 -->
      <g transform="translate(79.79375 205.704341) scale(0.1 -0.1)">
       <defs>
        <path id="DejaVuSans-35" d="M 691 4666 
L 3169 4666 
L 3169 4134 
L 1269 4134 
L 1269 2991 
Q 1406 3038 1543 3061 
Q 1681 3084 1819 3084 
Q 2600 3084 3056 2656 
Q 3513 2228 3513 1497 
Q 3513 744 3044 326 
Q 2575 -91 1722 -91 
Q 1428 -91 1123 -41 
Q 819 9 494 109 
L 494 744 
Q 775 591 1075 516 
Q 1375 441 1709 441 
Q 2250 441 2565 725 
Q 2881 1009 2881 1497 
Q 2881 1984 2565 2268 
Q 2250 2553 1709 2553 
Q 1456 2553 1204 2497 
Q 953 2441 691 2322 
L 691 4666 
z
" transform="scale(0.015625)"/>
       </defs>
       <use xlink:href="#DejaVuSans-31"/>
       <use xlink:href="#DejaVuSans-2e" x="63.623047"/>
       <use xlink:href="#DejaVuSans-45" x="95.410156"/>
       <use xlink:href="#DejaVuSans-2e" x="158.59375"/>
       <use xlink:href="#DejaVuSans-31" x="190.380859"/>
       <use xlink:href="#DejaVuSans-34" x="254.003906"/>
       <use xlink:href="#DejaVuSans-2e" x="317.626953"/>
       <use xlink:href="#DejaVuSans-31" x="349.414062"/>
       <use xlink:href="#DejaVuSans-2e" x="413.037109"/>
       <use xlink:href="#DejaVuSans-31" x="444.824219"/>
       <use xlink:href="#DejaVuSans-35" x="508.447266"/>
      </g>
     </g>
    </g>
    <g id="ytick_8">
     <g id="line2d_16">
      <g>
       <use xlink:href="#m2fcc8d0f5b" x="144" y="187.307561" style="stroke: #000000; stroke-width: 0.8"/>
      </g>
     </g>
     <g id="text_17">
      <!-- 1.E.14.1.16 -->
      <g transform="translate(79.79375 191.10678) scale(0.1 -0.1)">
       <use xlink:href="#DejaVuSans-31"/>
       <use xlink:href="#DejaVuSans-2e" x="63.623047"/>
       <use xlink:href="#DejaVuSans-45" x="95.410156"/>
       <use xlink:href="#DejaVuSans-2e" x="158.59375"/>
       <use xlink:href="#DejaVuSans-31" x="190.380859"/>
       <use xlink:href="#DejaVuSans-34" x="254.003906"/>
       <use xlink:href="#DejaVuSans-2e" x="317.626953"/>
       <use xlink:href="#DejaVuSans-31" x="349.414062"/>
       <use xlink:href="#DejaVuSans-2e" x="413.037109"/>
       <use xlink:href="#DejaVuSans-31" x="444.824219"/>
       <use xlink:href="#DejaVuSans-36" x="508.447266"/>
      </g>
     </g>
    </g>
    <g id="ytick_9">
     <g id="line2d_17">
      <g>
       <use xlink:href="#m2fcc8d0f5b" x="144" y="172.71" style="stroke: #000000; stroke-width: 0.8"/>
      </g>
     </g>
     <g id="text_18">
      <!-- 1.E.14.1.17 -->
      <g transform="translate(79.79375 176.509219) scale(0.1 -0.1)">
       <defs>
        <path id="DejaVuSans-37" d="M 525 4666 
L 3525 4666 
L 3525 4397 
L 1831 0 
L 1172 0 
L 2766 4134 
L 525 4134 
L 525 4666 
z
" transform="scale(0.015625)"/>
       </defs>
       <use xlink:href="#DejaVuSans-31"/>
       <use xlink:href="#DejaVuSans-2e" x="63.623047"/>
       <use xlink:href="#DejaVuSans-45" x="95.410156"/>
       <use xlink:href="#DejaVuSans-2e" x="158.59375"/>
       <use xlink:href="#DejaVuSans-31" x="190.380859"/>
       <use xlink:href="#DejaVuSans-34" x="254.003906"/>
       <use xlink:href="#DejaVuSans-2e" x="317.626953"/>
       <use xlink:href="#DejaVuSans-31" x="349.414062"/>
       <use xlink:href="#DejaVuSans-2e" x="413.037109"/>
       <use xlink:href="#DejaVuSans-31" x="444.824219"/>
       <use xlink:href="#DejaVuSans-37" x="508.447266"/>
      </g>
     </g>
    </g>
    <g id="ytick_10">
     <g id="line2d_18">
      <g>
       <use xlink:href="#m2fcc8d0f5b" x="144" y="158.112439" style="stroke: #000000; stroke-width: 0.8"/>
      </g>
     </g>
     <g id="text_19">
      <!-- 1.E.14.1.2 -->
      <g transform="translate(86.15625 161.911658) scale(0.1 -0.1)">
       <use xlink:href="#DejaVuSans-31"/>
       <use xlink:href="#DejaVuSans-2e" x="63.623047"/>
       <use xlink:href="#DejaVuSans-45" x="95.410156"/>
       <use xlink:href="#DejaVuSans-2e" x="158.59375"/>
       <use xlink:href="#DejaVuSans-31" x="190.380859"/>
       <use xlink:href="#DejaVuSans-34" x="254.003906"/>
       <use xlink:href="#DejaVuSans-2e" x="317.626953"/>
       <use xlink:href="#DejaVuSans-31" x="349.414062"/>
       <use xlink:href="#DejaVuSans-2e" x="413.037109"/>
       <use xlink:href="#DejaVuSans-32" x="444.824219"/>
      </g>
     </g>
    </g>
    <g id="ytick_11">
     <g id="line2d_19">
      <g>
       <use xlink:href="#m2fcc8d0f5b" x="144" y="143.514878" style="stroke: #000000; stroke-width: 0.8"/>
      </g>
     </g>
     <g id="text_20">
      <!-- 1.E.14.1.3 -->
      <g transform="translate(86.15625 147.314097) scale(0.1 -0.1)">
       <use xlink:href="#DejaVuSans-31"/>
       <use xlink:href="#DejaVuSans-2e" x="63.623047"/>
       <use xlink:href="#DejaVuSans-45" x="95.410156"/>
       <use xlink:href="#DejaVuSans-2e" x="158.59375"/>
       <use xlink:href="#DejaVuSans-31" x="190.380859"/>
       <use xlink:href="#DejaVuSans-34" x="254.003906"/>
       <use xlink:href="#DejaVuSans-2e" x="317.626953"/>
       <use xlink:href="#DejaVuSans-31" x="349.414062"/>
       <use xlink:href="#DejaVuSans-2e" x="413.037109"/>
       <use xlink:href="#DejaVuSans-33" x="444.824219"/>
      </g>
     </g>
    </g>
    <g id="ytick_12">
     <g id="line2d_20">
      <g>
       <use xlink:href="#m2fcc8d0f5b" x="144" y="128.917317" style="stroke: #000000; stroke-width: 0.8"/>
      </g>
     </g>
     <g id="text_21">
      <!-- 1.E.14.1.4 -->
      <g transform="translate(86.15625 132.716536) scale(0.1 -0.1)">
       <use xlink:href="#DejaVuSans-31"/>
       <use xlink:href="#DejaVuSans-2e" x="63.623047"/>
       <use xlink:href="#DejaVuSans-45" x="95.410156"/>
       <use xlink:href="#DejaVuSans-2e" x="158.59375"/>
       <use xlink:href="#DejaVuSans-31" x="190.380859"/>
       <use xlink:href="#DejaVuSans-34" x="254.003906"/>
       <use xlink:href="#DejaVuSans-2e" x="317.626953"/>
       <use xlink:href="#DejaVuSans-31" x="349.414062"/>
       <use xlink:href="#DejaVuSans-2e" x="413.037109"/>
       <use xlink:href="#DejaVuSans-34" x="444.824219"/>
      </g>
     </g>
    </g>
    <g id="ytick_13">
     <g id="line2d_21">
      <g>
       <use xlink:href="#m2fcc8d0f5b" x="144" y="114.319756" style="stroke: #000000; stroke-width: 0.8"/>
      </g>
     </g>
     <g id="text_22">
      <!-- 1.E.14.1.5 -->
      <g transform="translate(86.15625 118.118975) scale(0.1 -0.1)">
       <use xlink:href="#DejaVuSans-31"/>
       <use xlink:href="#DejaVuSans-2e" x="63.623047"/>
       <use xlink:href="#DejaVuSans-45" x="95.410156"/>
       <use xlink:href="#DejaVuSans-2e" x="158.59375"/>
       <use xlink:href="#DejaVuSans-31" x="190.380859"/>
       <use xlink:href="#DejaVuSans-34" x="254.003906"/>
       <use xlink:href="#DejaVuSans-2e" x="317.626953"/>
       <use xlink:href="#DejaVuSans-31" x="349.414062"/>
       <use xlink:href="#DejaVuSans-2e" x="413.037109"/>
       <use xlink:href="#DejaVuSans-35" x="444.824219"/>
      </g>
     </g>
    </g>
    <g id="ytick_14">
     <g id="line2d_22">
      <g>
       <use xlink:href="#m2fcc8d0f5b" x="144" y="99.722195" style="stroke: #000000; stroke-width: 0.8"/>
      </g>
     </g>
     <g id="text_23">
      <!-- 1.E.14.1.6 -->
      <g transform="translate(86.15625 103.521414) scale(0.1 -0.1)">
       <use xlink:href="#DejaVuSans-31"/>
       <use xlink:href="#DejaVuSans-2e" x="63.623047"/>
       <use xlink:href="#DejaVuSans-45" x="95.410156"/>
       <use xlink:href="#DejaVuSans-2e" x="158.59375"/>
       <use xlink:href="#DejaVuSans-31" x="190.380859"/>
       <use xlink:href="#DejaVuSans-34" x="254.003906"/>
       <use xlink:href="#DejaVuSans-2e" x="317.626953"/>
       <use xlink:href="#DejaVuSans-31" x="349.414062"/>
       <use xlink:href="#DejaVuSans-2e" x="413.037109"/>
       <use xlink:href="#DejaVuSans-36" x="444.824219"/>
      </g>
     </g>
    </g>
    <g id="ytick_15">
     <g id="line2d_23">
      <g>
       <use xlink:href="#m2fcc8d0f5b" x="144" y="85.124634" style="stroke: #000000; stroke-width: 0.8"/>
      </g>
     </g>
     <g id="text_24">
      <!-- 1.E.14.1.7 -->
      <g transform="translate(86.15625 88.923853) scale(0.1 -0.1)">
       <use xlink:href="#DejaVuSans-31"/>
       <use xlink:href="#DejaVuSans-2e" x="63.623047"/>
       <use xlink:href="#DejaVuSans-45" x="95.410156"/>
       <use xlink:href="#DejaVuSans-2e" x="158.59375"/>
       <use xlink:href="#DejaVuSans-31" x="190.380859"/>
       <use xlink:href="#DejaVuSans-34" x="254.003906"/>
       <use xlink:href="#DejaVuSans-2e" x="317.626953"/>
       <use xlink:href="#DejaVuSans-31" x="349.414062"/>
       <use xlink:href="#DejaVuSans-2e" x="413.037109"/>
       <use xlink:href="#DejaVuSans-37" x="444.824219"/>
      </g>
     </g>
    </g>
    <g id="ytick_16">
     <g id="line2d_24">
      <g>
       <use xlink:href="#m2fcc8d0f5b" x="144" y="70.527073" style="stroke: #000000; stroke-width: 0.8"/>
      </g>
     </g>
     <g id="text_25">
      <!-- 1.E.14.1.8 -->
      <g transform="translate(86.15625 74.326292) scale(0.1 -0.1)">
       <use xlink:href="#DejaVuSans-31"/>
       <use xlink:href="#DejaVuSans-2e" x="63.623047"/>
       <use xlink:href="#DejaVuSans-45" x="95.410156"/>
       <use xlink:href="#DejaVuSans-2e" x="158.59375"/>
       <use xlink:href="#DejaVuSans-31" x="190.380859"/>
       <use xlink:href="#DejaVuSans-34" x="254.003906"/>
       <use xlink:href="#DejaVuSans-2e" x="317.626953"/>
       <use xlink:href="#DejaVuSans-31" x="349.414062"/>
       <use xlink:href="#DejaVuSans-2e" x="413.037109"/>
       <use xlink:href="#DejaVuSans-38" x="444.824219"/>
      </g>
     </g>
    </g>
    <g id="ytick_17">
     <g id="line2d_25">
      <g>
       <use xlink:href="#m2fcc8d0f5b" x="144" y="55.929512" style="stroke: #000000; stroke-width: 0.8"/>
      </g>
     </g>
     <g id="text_26">
      <!-- 1.E.14.1.9 -->
      <g transform="translate(86.15625 59.728731) scale(0.1 -0.1)">
       <defs>
        <path id="DejaVuSans-39" d="M 703 97 
L 703 672 
Q 941 559 1184 500 
Q 1428 441 1663 441 
Q 2288 441 2617 861 
Q 2947 1281 2994 2138 
Q 2813 1869 2534 1725 
Q 2256 1581 1919 1581 
Q 1219 1581 811 2004 
Q 403 2428 403 3163 
Q 403 3881 828 4315 
Q 1253 4750 1959 4750 
Q 2769 4750 3195 4129 
Q 3622 3509 3622 2328 
Q 3622 1225 3098 567 
Q 2575 -91 1691 -91 
Q 1453 -91 1209 -44 
Q 966 3 703 97 
z
M 1959 2075 
Q 2384 2075 2632 2365 
Q 2881 2656 2881 3163 
Q 2881 3666 2632 3958 
Q 2384 4250 1959 4250 
Q 1534 4250 1286 3958 
Q 1038 3666 1038 3163 
Q 1038 2656 1286 2365 
Q 1534 2075 1959 2075 
z
" transform="scale(0.015625)"/>
       </defs>
       <use xlink:href="#DejaVuSans-31"/>
       <use xlink:href="#DejaVuSans-2e" x="63.623047"/>
       <use xlink:href="#DejaVuSans-45" x="95.410156"/>
       <use xlink:href="#DejaVuSans-2e" x="158.59375"/>
       <use xlink:href="#DejaVuSans-31" x="190.380859"/>
       <use xlink:href="#DejaVuSans-34" x="254.003906"/>
       <use xlink:href="#DejaVuSans-2e" x="317.626953"/>
       <use xlink:href="#DejaVuSans-31" x="349.414062"/>
       <use xlink:href="#DejaVuSans-2e" x="413.037109"/>
       <use xlink:href="#DejaVuSans-39" x="444.824219"/>
      </g>
     </g>
    </g>
   </g>
   <g id="patch_99">
    <path d="M 144 304.38 
L 144 41.04 
" style="fill: none; stroke: #000000; stroke-width: 0.8; stroke-linejoin: miter; stroke-linecap: square"/>
   </g>
   <g id="patch_100">
    <path d="M 1036.8 304.38 
L 1036.8 41.04 
" style="fill: none; stroke: #000000; stroke-width: 0.8; stroke-linejoin: miter; stroke-linecap: square"/>
   </g>
   <g id="patch_101">
    <path d="M 144 304.38 
L 1036.8 304.38 
" style="fill: none; stroke: #000000; stroke-width: 0.8; stroke-linejoin: miter; stroke-linecap: square"/>
   </g>
   <g id="patch_102">
    <path d="M 144 41.04 
L 1036.8 41.04 
" style="fill: none; stroke: #000000; stroke-width: 0.8; stroke-linejoin: miter; stroke-linecap: square"/>
   </g>
   <g id="text_27">
    <!-- 1.E.14 Summary -->
    <g transform="translate(540.440625 35.04) scale(0.12 -0.12)">
     <defs>
      <path id="DejaVuSans-20" transform="scale(0.015625)"/>
      <path id="DejaVuSans-53" d="M 3425 4513 
L 3425 3897 
Q 3066 4069 2747 4153 
Q 2428 4238 2131 4238 
Q 1616 4238 1336 4038 
Q 1056 3838 1056 3469 
Q 1056 3159 1242 3001 
Q 1428 2844 1947 2747 
L 2328 2669 
Q 3034 2534 3370 2195 
Q 3706 1856 3706 1288 
Q 3706 609 3251 259 
Q 2797 -91 1919 -91 
Q 1588 -91 1214 -16 
Q 841 59 441 206 
L 441 856 
Q 825 641 1194 531 
Q 1563 422 1919 422 
Q 2459 422 2753 634 
Q 3047 847 3047 1241 
Q 3047 1584 2836 1778 
Q 2625 1972 2144 2069 
L 1759 2144 
Q 1053 2284 737 2584 
Q 422 2884 422 3419 
Q 422 4038 858 4394 
Q 1294 4750 2059 4750 
Q 2388 4750 2728 4690 
Q 3069 4631 3425 4513 
z
" transform="scale(0.015625)"/>
      <path id="DejaVuSans-6d" d="M 3328 2828 
Q 3544 3216 3844 3400 
Q 4144 3584 4550 3584 
Q 5097 3584 5394 3201 
Q 5691 2819 5691 2113 
L 5691 0 
L 5113 0 
L 5113 2094 
Q 5113 2597 4934 2840 
Q 4756 3084 4391 3084 
Q 3944 3084 3684 2787 
Q 3425 2491 3425 1978 
L 3425 0 
L 2847 0 
L 2847 2094 
Q 2847 2600 2669 2842 
Q 2491 3084 2119 3084 
Q 1678 3084 1418 2786 
Q 1159 2488 1159 1978 
L 1159 0 
L 581 0 
L 581 3500 
L 1159 3500 
L 1159 2956 
Q 1356 3278 1631 3431 
Q 1906 3584 2284 3584 
Q 2666 3584 2933 3390 
Q 3200 3197 3328 2828 
z
" transform="scale(0.015625)"/>
      <path id="DejaVuSans-72" d="M 2631 2963 
Q 2534 3019 2420 3045 
Q 2306 3072 2169 3072 
Q 1681 3072 1420 2755 
Q 1159 2438 1159 1844 
L 1159 0 
L 581 0 
L 581 3500 
L 1159 3500 
L 1159 2956 
Q 1341 3275 1631 3429 
Q 1922 3584 2338 3584 
Q 2397 3584 2469 3576 
Q 2541 3569 2628 3553 
L 2631 2963 
z
" transform="scale(0.015625)"/>
      <path id="DejaVuSans-79" d="M 2059 -325 
Q 1816 -950 1584 -1140 
Q 1353 -1331 966 -1331 
L 506 -1331 
L 506 -850 
L 844 -850 
Q 1081 -850 1212 -737 
Q 1344 -625 1503 -206 
L 1606 56 
L 191 3500 
L 800 3500 
L 1894 763 
L 2988 3500 
L 3597 3500 
L 2059 -325 
z
" transform="scale(0.015625)"/>
     </defs>
     <use xlink:href="#DejaVuSans-31"/>
     <use xlink:href="#DejaVuSans-2e" x="63.623047"/>
     <use xlink:href="#DejaVuSans-45" x="95.410156"/>
     <use xlink:href="#DejaVuSans-2e" x="158.59375"/>
     <use xlink:href="#DejaVuSans-31" x="190.380859"/>
     <use xlink:href="#DejaVuSans-34" x="254.003906"/>
     <use xlink:href="#DejaVuSans-20" x="317.626953"/>
     <use xlink:href="#DejaVuSans-53" x="349.414062"/>
     <use xlink:href="#DejaVuSans-75" x="412.890625"/>
     <use xlink:href="#DejaVuSans-6d" x="476.269531"/>
     <use xlink:href="#DejaVuSans-6d" x="573.681641"/>
     <use xlink:href="#DejaVuSans-61" x="671.09375"/>
     <use xlink:href="#DejaVuSans-72" x="732.373047"/>
     <use xlink:href="#DejaVuSans-79" x="773.486328"/>
    </g>
   </g>
  </g>
 </g>
 <defs>
  <clipPath id="p5eaaeec845">
   <rect x="144" y="41.04" width="892.8" height="263.34"/>
  </clipPath>
 </defs>
</svg>
