<?xml version="1.0" encoding="utf-8" standalone="no"?>
<!DOCTYPE svg PUBLIC "-//W3C//DTD SVG 1.1//EN"
  "http://www.w3.org/Graphics/SVG/1.1/DTD/svg11.dtd">
<svg xmlns:xlink="http://www.w3.org/1999/xlink" width="1152pt" height="162pt" viewBox="0 0 1152 162" xmlns="http://www.w3.org/2000/svg" version="1.1">
 <metadata>
  <rdf:RDF xmlns:dc="http://purl.org/dc/elements/1.1/" xmlns:cc="http://creativecommons.org/ns#" xmlns:rdf="http://www.w3.org/1999/02/22-rdf-syntax-ns#">
   <cc:Work>
    <dc:type rdf:resource="http://purl.org/dc/dcmitype/StillImage"/>
    <dc:date>2024-10-24T15:59:49.100360</dc:date>
    <dc:format>image/svg+xml</dc:format>
    <dc:creator>
     <cc:Agent>
      <dc:title>Matplotlib v3.8.4, https://matplotlib.org/</dc:title>
     </cc:Agent>
    </dc:creator>
   </cc:Work>
  </rdf:RDF>
 </metadata>
 <defs>
  <style type="text/css">*{stroke-linejoin: round; stroke-linecap: butt}</style>
 </defs>
 <g id="figure_1">
  <g id="patch_1">
   <path d="M 0 162 
L 1152 162 
L 1152 0 
L 0 0 
z
" style="fill: #ffffff"/>
  </g>
  <g id="axes_1">
   <g id="patch_2">
    <path d="M 144 144.18 
L 1036.8 144.18 
L 1036.8 19.44 
L 144 19.44 
z
" style="fill: #ffffff"/>
   </g>
   <g id="patch_3">
    <path d="M 144 135.232031 
L 153.36438 135.232031 
L 153.36438 134.700469 
L 144 134.700469 
z
" clip-path="url(#pd3ddc71cce)" style="fill: #0000ff"/>
   </g>
   <g id="patch_4">
    <path d="M 153.988672 138.51 
L 325.044682 138.51 
L 325.044682 131.4225 
L 153.988672 131.4225 
z
" clip-path="url(#pd3ddc71cce)" style="fill: #0000ff"/>
   </g>
   <g id="patch_5">
    <path d="M 161.480176 138.51 
L 323.796098 138.51 
L 323.796098 131.4225 
L 161.480176 131.4225 
z
" clip-path="url(#pd3ddc71cce)" style="fill: #0000ff"/>
   </g>
   <g id="patch_6">
    <path d="M 163.977344 138.51 
L 345.646318 138.51 
L 345.646318 131.4225 
L 163.977344 131.4225 
z
" clip-path="url(#pd3ddc71cce)" style="fill: #0000ff"/>
   </g>
   <g id="patch_7">
    <path d="M 205.804909 138.51 
L 323.171806 138.51 
L 323.171806 131.4225 
L 205.804909 131.4225 
z
" clip-path="url(#pd3ddc71cce)" style="fill: #0000ff"/>
   </g>
   <g id="patch_8">
    <path d="M 288.211454 138.51 
L 323.796098 138.51 
L 323.796098 131.4225 
L 288.211454 131.4225 
z
" clip-path="url(#pd3ddc71cce)" style="fill: #0000ff"/>
   </g>
   <g id="patch_9">
    <path d="M 332.536186 138.51 
L 416.191315 138.51 
L 416.191315 131.4225 
L 332.536186 131.4225 
z
" clip-path="url(#pd3ddc71cce)" style="fill: #0000ff"/>
   </g>
   <g id="patch_10">
    <path d="M 332.536186 138.51 
L 438.041536 138.51 
L 438.041536 131.4225 
L 332.536186 131.4225 
z
" clip-path="url(#pd3ddc71cce)" style="fill: #0000ff"/>
   </g>
   <g id="patch_11">
    <path d="M 332.536186 138.51 
L 421.809943 138.51 
L 421.809943 131.4225 
L 332.536186 131.4225 
z
" clip-path="url(#pd3ddc71cce)" style="fill: #0000ff"/>
   </g>
   <g id="patch_12">
    <path d="M 332.536186 138.51 
L 418.064191 138.51 
L 418.064191 131.4225 
L 332.536186 131.4225 
z
" clip-path="url(#pd3ddc71cce)" style="fill: #0000ff"/>
   </g>
   <g id="patch_13">
    <path d="M 333.78477 138.51 
L 408.075519 138.51 
L 408.075519 131.4225 
L 333.78477 131.4225 
z
" clip-path="url(#pd3ddc71cce)" style="fill: #0000ff"/>
   </g>
   <g id="patch_14">
    <path d="M 334.409062 138.51 
L 472.377596 138.51 
L 472.377596 131.4225 
L 334.409062 131.4225 
z
" clip-path="url(#pd3ddc71cce)" style="fill: #0000ff"/>
   </g>
   <g id="patch_15">
    <path d="M 334.409062 138.51 
L 472.377596 138.51 
L 472.377596 131.4225 
L 334.409062 131.4225 
z
" clip-path="url(#pd3ddc71cce)" style="fill: #0000ff"/>
   </g>
   <g id="patch_16">
    <path d="M 334.409062 138.51 
L 472.377596 138.51 
L 472.377596 131.4225 
L 334.409062 131.4225 
z
" clip-path="url(#pd3ddc71cce)" style="fill: #0000ff"/>
   </g>
   <g id="patch_17">
    <path d="M 335.033354 138.51 
L 463.013216 138.51 
L 463.013216 131.4225 
L 335.033354 131.4225 
z
" clip-path="url(#pd3ddc71cce)" style="fill: #0000ff"/>
   </g>
   <g id="patch_18">
    <path d="M 336.281938 138.51 
L 455.521712 138.51 
L 455.521712 131.4225 
L 336.281938 131.4225 
z
" clip-path="url(#pd3ddc71cce)" style="fill: #0000ff"/>
   </g>
   <g id="patch_19">
    <path d="M 336.90623 138.51 
L 416.815607 138.51 
L 416.815607 131.4225 
L 336.90623 131.4225 
z
" clip-path="url(#pd3ddc71cce)" style="fill: #0000ff"/>
   </g>
   <g id="patch_20">
    <path d="M 340.02769 138.51 
L 419.312775 138.51 
L 419.312775 131.4225 
L 340.02769 131.4225 
z
" clip-path="url(#pd3ddc71cce)" style="fill: #0000ff"/>
   </g>
   <g id="patch_21">
    <path d="M 352.513531 138.51 
L 463.013216 138.51 
L 463.013216 131.4225 
L 352.513531 131.4225 
z
" clip-path="url(#pd3ddc71cce)" style="fill: #0000ff"/>
   </g>
   <g id="patch_22">
    <path d="M 466.134676 138.51 
L 888.156073 138.51 
L 888.156073 131.4225 
L 466.134676 131.4225 
z
" clip-path="url(#pd3ddc71cce)" style="fill: #0000ff"/>
   </g>
   <g id="patch_23">
    <path d="M 466.758968 138.51 
L 883.161737 138.51 
L 883.161737 131.4225 
L 466.758968 131.4225 
z
" clip-path="url(#pd3ddc71cce)" style="fill: #0000ff"/>
   </g>
   <g id="patch_24">
    <path d="M 467.38326 138.51 
L 914.376337 138.51 
L 914.376337 131.4225 
L 467.38326 131.4225 
z
" clip-path="url(#pd3ddc71cce)" style="fill: #0000ff"/>
   </g>
   <g id="patch_25">
    <path d="M 469.256136 138.51 
L 883.161737 138.51 
L 883.161737 131.4225 
L 469.256136 131.4225 
z
" clip-path="url(#pd3ddc71cce)" style="fill: #0000ff"/>
   </g>
   <g id="patch_26">
    <path d="M 469.256136 138.51 
L 887.531781 138.51 
L 887.531781 131.4225 
L 469.256136 131.4225 
z
" clip-path="url(#pd3ddc71cce)" style="fill: #0000ff"/>
   </g>
   <g id="patch_27">
    <path d="M 469.256136 138.51 
L 914.376337 138.51 
L 914.376337 131.4225 
L 469.256136 131.4225 
z
" clip-path="url(#pd3ddc71cce)" style="fill: #0000ff"/>
   </g>
   <g id="patch_28">
    <path d="M 473.62618 138.51 
L 883.161737 138.51 
L 883.161737 131.4225 
L 473.62618 131.4225 
z
" clip-path="url(#pd3ddc71cce)" style="fill: #0000ff"/>
   </g>
   <g id="patch_29">
    <path d="M 473.62618 138.51 
L 915.000629 138.51 
L 915.000629 131.4225 
L 473.62618 131.4225 
z
" clip-path="url(#pd3ddc71cce)" style="fill: #0000ff"/>
   </g>
   <g id="patch_30">
    <path d="M 473.62618 138.51 
L 886.283197 138.51 
L 886.283197 131.4225 
L 473.62618 131.4225 
z
" clip-path="url(#pd3ddc71cce)" style="fill: #0000ff"/>
   </g>
   <g id="patch_31">
    <path d="M 473.62618 138.51 
L 922.492133 138.51 
L 922.492133 131.4225 
L 473.62618 131.4225 
z
" clip-path="url(#pd3ddc71cce)" style="fill: #0000ff"/>
   </g>
   <g id="patch_32">
    <path d="M 474.874764 138.51 
L 883.161737 138.51 
L 883.161737 131.4225 
L 474.874764 131.4225 
z
" clip-path="url(#pd3ddc71cce)" style="fill: #0000ff"/>
   </g>
   <g id="patch_33">
    <path d="M 501.095028 138.51 
L 888.156073 138.51 
L 888.156073 131.4225 
L 501.095028 131.4225 
z
" clip-path="url(#pd3ddc71cce)" style="fill: #0000ff"/>
   </g>
   <g id="patch_34">
    <path d="M 543.546885 138.51 
L 885.658905 138.51 
L 885.658905 131.4225 
L 543.546885 131.4225 
z
" clip-path="url(#pd3ddc71cce)" style="fill: #0000ff"/>
   </g>
   <g id="patch_35">
    <path d="M 551.038389 138.51 
L 883.161737 138.51 
L 883.161737 131.4225 
L 551.038389 131.4225 
z
" clip-path="url(#pd3ddc71cce)" style="fill: #0000ff"/>
   </g>
   <g id="patch_36">
    <path d="M 575.385777 138.51 
L 888.156073 138.51 
L 888.156073 131.4225 
L 575.385777 131.4225 
z
" clip-path="url(#pd3ddc71cce)" style="fill: #0000ff"/>
   </g>
   <g id="patch_37">
    <path d="M 902.514789 138.51 
L 926.237885 138.51 
L 926.237885 131.4225 
L 902.514789 131.4225 
z
" clip-path="url(#pd3ddc71cce)" style="fill: #0000ff"/>
   </g>
   <g id="patch_38">
    <path d="M 926.862177 135.232031 
L 926.862177 135.232031 
L 926.862177 134.700469 
L 926.862177 134.700469 
z
" clip-path="url(#pd3ddc71cce)" style="fill: #0000ff"/>
   </g>
   <g id="patch_39">
    <path d="M 144 117.513281 
L 152.740088 117.513281 
L 152.740088 116.981719 
L 144 116.981719 
z
" clip-path="url(#pd3ddc71cce)" style="fill: #0000ff"/>
   </g>
   <g id="patch_40">
    <path d="M 153.36438 120.79125 
L 329.414726 120.79125 
L 329.414726 113.70375 
L 153.36438 113.70375 
z
" clip-path="url(#pd3ddc71cce)" style="fill: #0000ff"/>
   </g>
   <g id="patch_41">
    <path d="M 165.225928 120.79125 
L 328.790434 120.79125 
L 328.790434 113.70375 
L 165.225928 113.70375 
z
" clip-path="url(#pd3ddc71cce)" style="fill: #0000ff"/>
   </g>
   <g id="patch_42">
    <path d="M 169.595972 120.79125 
L 350.640654 120.79125 
L 350.640654 113.70375 
L 169.595972 113.70375 
z
" clip-path="url(#pd3ddc71cce)" style="fill: #0000ff"/>
   </g>
   <g id="patch_43">
    <path d="M 173.341724 120.79125 
L 330.039018 120.79125 
L 330.039018 113.70375 
L 173.341724 113.70375 
z
" clip-path="url(#pd3ddc71cce)" style="fill: #0000ff"/>
   </g>
   <g id="patch_44">
    <path d="M 337.530522 120.79125 
L 531.685337 120.79125 
L 531.685337 113.70375 
L 337.530522 113.70375 
z
" clip-path="url(#pd3ddc71cce)" style="fill: #0000ff"/>
   </g>
   <g id="patch_45">
    <path d="M 337.530522 120.79125 
L 529.812461 120.79125 
L 529.812461 113.70375 
L 337.530522 113.70375 
z
" clip-path="url(#pd3ddc71cce)" style="fill: #0000ff"/>
   </g>
   <g id="patch_46">
    <path d="M 337.530522 120.79125 
L 529.812461 120.79125 
L 529.812461 113.70375 
L 337.530522 113.70375 
z
" clip-path="url(#pd3ddc71cce)" style="fill: #0000ff"/>
   </g>
   <g id="patch_47">
    <path d="M 337.530522 120.79125 
L 531.685337 120.79125 
L 531.685337 113.70375 
L 337.530522 113.70375 
z
" clip-path="url(#pd3ddc71cce)" style="fill: #0000ff"/>
   </g>
   <g id="patch_48">
    <path d="M 337.530522 120.79125 
L 531.061045 120.79125 
L 531.061045 113.70375 
L 337.530522 113.70375 
z
" clip-path="url(#pd3ddc71cce)" style="fill: #0000ff"/>
   </g>
   <g id="patch_49">
    <path d="M 338.154814 120.79125 
L 531.685337 120.79125 
L 531.685337 113.70375 
L 338.154814 113.70375 
z
" clip-path="url(#pd3ddc71cce)" style="fill: #0000ff"/>
   </g>
   <g id="patch_50">
    <path d="M 340.02769 120.79125 
L 416.815607 120.79125 
L 416.815607 113.70375 
L 340.02769 113.70375 
z
" clip-path="url(#pd3ddc71cce)" style="fill: #0000ff"/>
   </g>
   <g id="patch_51">
    <path d="M 340.02769 120.79125 
L 413.069855 120.79125 
L 413.069855 113.70375 
L 340.02769 113.70375 
z
" clip-path="url(#pd3ddc71cce)" style="fill: #0000ff"/>
   </g>
   <g id="patch_52">
    <path d="M 340.02769 120.79125 
L 413.069855 120.79125 
L 413.069855 113.70375 
L 340.02769 113.70375 
z
" clip-path="url(#pd3ddc71cce)" style="fill: #0000ff"/>
   </g>
   <g id="patch_53">
    <path d="M 340.02769 120.79125 
L 413.069855 120.79125 
L 413.069855 113.70375 
L 340.02769 113.70375 
z
" clip-path="url(#pd3ddc71cce)" style="fill: #0000ff"/>
   </g>
   <g id="patch_54">
    <path d="M 346.894902 120.79125 
L 419.312775 120.79125 
L 419.312775 113.70375 
L 346.894902 113.70375 
z
" clip-path="url(#pd3ddc71cce)" style="fill: #0000ff"/>
   </g>
   <g id="patch_55">
    <path d="M 346.894902 120.79125 
L 419.312775 120.79125 
L 419.312775 113.70375 
L 346.894902 113.70375 
z
" clip-path="url(#pd3ddc71cce)" style="fill: #0000ff"/>
   </g>
   <g id="patch_56">
    <path d="M 357.507867 120.79125 
L 414.318439 120.79125 
L 414.318439 113.70375 
L 357.507867 113.70375 
z
" clip-path="url(#pd3ddc71cce)" style="fill: #0000ff"/>
   </g>
   <g id="patch_57">
    <path d="M 357.507867 120.79125 
L 465.510384 120.79125 
L 465.510384 113.70375 
L 357.507867 113.70375 
z
" clip-path="url(#pd3ddc71cce)" style="fill: #0000ff"/>
   </g>
   <g id="patch_58">
    <path d="M 532.309629 117.513281 
L 532.309629 117.513281 
L 532.309629 116.981719 
L 532.309629 116.981719 
z
" clip-path="url(#pd3ddc71cce)" style="fill: #0000ff"/>
   </g>
   <g id="patch_59">
    <path d="M 532.933921 120.79125 
L 958.076778 120.79125 
L 958.076778 113.70375 
L 532.933921 113.70375 
z
" clip-path="url(#pd3ddc71cce)" style="fill: #0000ff"/>
   </g>
   <g id="patch_60">
    <path d="M 533.558213 120.79125 
L 951.833858 120.79125 
L 951.833858 113.70375 
L 533.558213 113.70375 
z
" clip-path="url(#pd3ddc71cce)" style="fill: #0000ff"/>
   </g>
   <g id="patch_61">
    <path d="M 534.182505 120.79125 
L 951.209566 120.79125 
L 951.209566 113.70375 
L 534.182505 113.70375 
z
" clip-path="url(#pd3ddc71cce)" style="fill: #0000ff"/>
   </g>
   <g id="patch_62">
    <path d="M 534.182505 120.79125 
L 983.048458 120.79125 
L 983.048458 113.70375 
L 534.182505 113.70375 
z
" clip-path="url(#pd3ddc71cce)" style="fill: #0000ff"/>
   </g>
   <g id="patch_63">
    <path d="M 534.182505 120.79125 
L 971.811202 120.79125 
L 971.811202 113.70375 
L 534.182505 113.70375 
z
" clip-path="url(#pd3ddc71cce)" style="fill: #0000ff"/>
   </g>
   <g id="patch_64">
    <path d="M 535.431089 120.79125 
L 943.09377 120.79125 
L 943.09377 113.70375 
L 535.431089 113.70375 
z
" clip-path="url(#pd3ddc71cce)" style="fill: #0000ff"/>
   </g>
   <g id="patch_65">
    <path d="M 536.055381 120.79125 
L 950.585274 120.79125 
L 950.585274 113.70375 
L 536.055381 113.70375 
z
" clip-path="url(#pd3ddc71cce)" style="fill: #0000ff"/>
   </g>
   <g id="patch_66">
    <path d="M 536.055381 120.79125 
L 571.640025 120.79125 
L 571.640025 113.70375 
L 536.055381 113.70375 
z
" clip-path="url(#pd3ddc71cce)" style="fill: #0000ff"/>
   </g>
   <g id="patch_67">
    <path d="M 540.425425 120.79125 
L 951.833858 120.79125 
L 951.833858 113.70375 
L 540.425425 113.70375 
z
" clip-path="url(#pd3ddc71cce)" style="fill: #0000ff"/>
   </g>
   <g id="patch_68">
    <path d="M 540.425425 120.79125 
L 958.076778 120.79125 
L 958.076778 113.70375 
L 540.425425 113.70375 
z
" clip-path="url(#pd3ddc71cce)" style="fill: #0000ff"/>
   </g>
   <g id="patch_69">
    <path d="M 540.425425 120.79125 
L 953.082442 120.79125 
L 953.082442 113.70375 
L 540.425425 113.70375 
z
" clip-path="url(#pd3ddc71cce)" style="fill: #0000ff"/>
   </g>
   <g id="patch_70">
    <path d="M 540.425425 120.79125 
L 970.562618 120.79125 
L 970.562618 113.70375 
L 540.425425 113.70375 
z
" clip-path="url(#pd3ddc71cce)" style="fill: #0000ff"/>
   </g>
   <g id="patch_71">
    <path d="M 541.674009 120.79125 
L 983.67275 120.79125 
L 983.67275 113.70375 
L 541.674009 113.70375 
z
" clip-path="url(#pd3ddc71cce)" style="fill: #0000ff"/>
   </g>
   <g id="patch_72">
    <path d="M 541.674009 120.79125 
L 955.57961 120.79125 
L 955.57961 113.70375 
L 541.674009 113.70375 
z
" clip-path="url(#pd3ddc71cce)" style="fill: #0000ff"/>
   </g>
   <g id="patch_73">
    <path d="M 641.56073 120.79125 
L 958.076778 120.79125 
L 958.076778 113.70375 
L 641.56073 113.70375 
z
" clip-path="url(#pd3ddc71cce)" style="fill: #0000ff"/>
   </g>
   <g id="patch_74">
    <path d="M 642.185022 120.79125 
L 952.45815 120.79125 
L 952.45815 113.70375 
L 642.185022 113.70375 
z
" clip-path="url(#pd3ddc71cce)" style="fill: #0000ff"/>
   </g>
   <g id="patch_75">
    <path d="M 984.297042 117.513281 
L 994.285714 117.513281 
L 994.285714 116.981719 
L 984.297042 116.981719 
z
" clip-path="url(#pd3ddc71cce)" style="fill: #0000ff"/>
   </g>
   <g id="patch_76">
    <path d="M 144 103.0725 
L 202.683449 103.0725 
L 202.683449 95.985 
L 144 95.985 
z
" clip-path="url(#pd3ddc71cce)" style="fill: #0000ff"/>
   </g>
   <g id="patch_77">
    <path d="M 144 103.0725 
L 211.423537 103.0725 
L 211.423537 95.985 
L 144 95.985 
z
" clip-path="url(#pd3ddc71cce)" style="fill: #0000ff"/>
   </g>
   <g id="patch_78">
    <path d="M 144 103.0725 
L 211.423537 103.0725 
L 211.423537 95.985 
L 144 95.985 
z
" clip-path="url(#pd3ddc71cce)" style="fill: #0000ff"/>
   </g>
   <g id="patch_79">
    <path d="M 144 103.0725 
L 205.804909 103.0725 
L 205.804909 95.985 
L 144 95.985 
z
" clip-path="url(#pd3ddc71cce)" style="fill: #0000ff"/>
   </g>
   <g id="patch_80">
    <path d="M 144 103.0725 
L 218.290749 103.0725 
L 218.290749 95.985 
L 144 95.985 
z
" clip-path="url(#pd3ddc71cce)" style="fill: #0000ff"/>
   </g>
   <g id="patch_81">
    <path d="M 144 103.0725 
L 216.417873 103.0725 
L 216.417873 95.985 
L 144 95.985 
z
" clip-path="url(#pd3ddc71cce)" style="fill: #0000ff"/>
   </g>
   <g id="patch_82">
    <path d="M 144 103.0725 
L 214.544997 103.0725 
L 214.544997 95.985 
L 144 95.985 
z
" clip-path="url(#pd3ddc71cce)" style="fill: #0000ff"/>
   </g>
   <g id="patch_83">
    <path d="M 144 103.0725 
L 218.290749 103.0725 
L 218.290749 95.985 
L 144 95.985 
z
" clip-path="url(#pd3ddc71cce)" style="fill: #0000ff"/>
   </g>
   <g id="patch_84">
    <path d="M 144 103.0725 
L 216.417873 103.0725 
L 216.417873 95.985 
L 144 95.985 
z
" clip-path="url(#pd3ddc71cce)" style="fill: #0000ff"/>
   </g>
   <g id="patch_85">
    <path d="M 149.618628 103.0725 
L 218.290749 103.0725 
L 218.290749 95.985 
L 149.618628 95.985 
z
" clip-path="url(#pd3ddc71cce)" style="fill: #0000ff"/>
   </g>
   <g id="patch_86">
    <path d="M 150.24292 103.0725 
L 218.290749 103.0725 
L 218.290749 95.985 
L 150.24292 95.985 
z
" clip-path="url(#pd3ddc71cce)" style="fill: #0000ff"/>
   </g>
   <g id="patch_87">
    <path d="M 144 82.075781 
L 399.959723 82.075781 
L 399.959723 81.544219 
L 144 81.544219 
z
" clip-path="url(#pd3ddc71cce)" style="fill: #0000ff"/>
   </g>
   <g id="patch_88">
    <path d="M 400.584015 85.35375 
L 841.958464 85.35375 
L 841.958464 78.26625 
L 400.584015 78.26625 
z
" clip-path="url(#pd3ddc71cce)" style="fill: #0000ff"/>
   </g>
   <g id="patch_89">
    <path d="M 413.069855 85.35375 
L 783.275016 85.35375 
L 783.275016 78.26625 
L 413.069855 78.26625 
z
" clip-path="url(#pd3ddc71cce)" style="fill: #0000ff"/>
   </g>
   <g id="patch_90">
    <path d="M 413.069855 85.35375 
L 840.70988 85.35375 
L 840.70988 78.26625 
L 413.069855 78.26625 
z
" clip-path="url(#pd3ddc71cce)" style="fill: #0000ff"/>
   </g>
   <g id="patch_91">
    <path d="M 413.694147 85.35375 
L 825.10258 85.35375 
L 825.10258 78.26625 
L 413.694147 78.26625 
z
" clip-path="url(#pd3ddc71cce)" style="fill: #0000ff"/>
   </g>
   <g id="patch_92">
    <path d="M 414.318439 85.35375 
L 825.10258 85.35375 
L 825.10258 78.26625 
L 414.318439 78.26625 
z
" clip-path="url(#pd3ddc71cce)" style="fill: #0000ff"/>
   </g>
   <g id="patch_93">
    <path d="M 414.318439 85.35375 
L 830.096916 85.35375 
L 830.096916 78.26625 
L 414.318439 78.26625 
z
" clip-path="url(#pd3ddc71cce)" style="fill: #0000ff"/>
   </g>
   <g id="patch_94">
    <path d="M 416.815607 85.35375 
L 824.478288 85.35375 
L 824.478288 78.26625 
L 416.815607 78.26625 
z
" clip-path="url(#pd3ddc71cce)" style="fill: #0000ff"/>
   </g>
   <g id="patch_95">
    <path d="M 485.487728 85.35375 
L 846.952801 85.35375 
L 846.952801 78.26625 
L 485.487728 78.26625 
z
" clip-path="url(#pd3ddc71cce)" style="fill: #0000ff"/>
   </g>
   <g id="patch_96">
    <path d="M 492.979232 85.35375 
L 825.10258 85.35375 
L 825.10258 78.26625 
L 492.979232 78.26625 
z
" clip-path="url(#pd3ddc71cce)" style="fill: #0000ff"/>
   </g>
   <g id="patch_97">
    <path d="M 503.592196 85.35375 
L 825.10258 85.35375 
L 825.10258 78.26625 
L 503.592196 78.26625 
z
" clip-path="url(#pd3ddc71cce)" style="fill: #0000ff"/>
   </g>
   <g id="patch_98">
    <path d="M 504.216488 85.35375 
L 825.10258 85.35375 
L 825.10258 78.26625 
L 504.216488 78.26625 
z
" clip-path="url(#pd3ddc71cce)" style="fill: #0000ff"/>
   </g>
   <g id="patch_99">
    <path d="M 512.332284 85.35375 
L 830.096916 85.35375 
L 830.096916 78.26625 
L 512.332284 78.26625 
z
" clip-path="url(#pd3ddc71cce)" style="fill: #0000ff"/>
   </g>
   <g id="patch_100">
    <path d="M 513.580868 85.35375 
L 825.10258 85.35375 
L 825.10258 78.26625 
L 513.580868 78.26625 
z
" clip-path="url(#pd3ddc71cce)" style="fill: #0000ff"/>
   </g>
   <g id="patch_101">
    <path d="M 513.580868 85.35375 
L 835.715544 85.35375 
L 835.715544 78.26625 
L 513.580868 78.26625 
z
" clip-path="url(#pd3ddc71cce)" style="fill: #0000ff"/>
   </g>
   <g id="patch_102">
    <path d="M 514.829452 85.35375 
L 823.853996 85.35375 
L 823.853996 78.26625 
L 514.829452 78.26625 
z
" clip-path="url(#pd3ddc71cce)" style="fill: #0000ff"/>
   </g>
   <g id="patch_103">
    <path d="M 847.577093 82.075781 
L 874.421649 82.075781 
L 874.421649 81.544219 
L 847.577093 81.544219 
z
" clip-path="url(#pd3ddc71cce)" style="fill: #0000ff"/>
   </g>
   <g id="patch_104">
    <path d="M 144 64.357031 
L 160.231592 64.357031 
L 160.231592 63.825469 
L 144 63.825469 
z
" clip-path="url(#pd3ddc71cce)" style="fill: #0000ff"/>
   </g>
   <g id="patch_105">
    <path d="M 160.855884 67.635 
L 367.496539 67.635 
L 367.496539 60.5475 
L 160.855884 60.5475 
z
" clip-path="url(#pd3ddc71cce)" style="fill: #0000ff"/>
   </g>
   <g id="patch_106">
    <path d="M 173.966016 67.635 
L 367.496539 67.635 
L 367.496539 60.5475 
L 173.966016 60.5475 
z
" clip-path="url(#pd3ddc71cce)" style="fill: #0000ff"/>
   </g>
   <g id="patch_107">
    <path d="M 178.33606 67.635 
L 388.722467 67.635 
L 388.722467 60.5475 
L 178.33606 60.5475 
z
" clip-path="url(#pd3ddc71cce)" style="fill: #0000ff"/>
   </g>
   <g id="patch_108">
    <path d="M 343.14915 67.635 
L 367.496539 67.635 
L 367.496539 60.5475 
L 343.14915 60.5475 
z
" clip-path="url(#pd3ddc71cce)" style="fill: #0000ff"/>
   </g>
   <g id="patch_109">
    <path d="M 378.733795 67.635 
L 508.586532 67.635 
L 508.586532 60.5475 
L 378.733795 60.5475 
z
" clip-path="url(#pd3ddc71cce)" style="fill: #0000ff"/>
   </g>
   <g id="patch_110">
    <path d="M 378.733795 67.635 
L 508.586532 67.635 
L 508.586532 60.5475 
L 378.733795 60.5475 
z
" clip-path="url(#pd3ddc71cce)" style="fill: #0000ff"/>
   </g>
   <g id="patch_111">
    <path d="M 378.733795 67.635 
L 508.586532 67.635 
L 508.586532 60.5475 
L 378.733795 60.5475 
z
" clip-path="url(#pd3ddc71cce)" style="fill: #0000ff"/>
   </g>
   <g id="patch_112">
    <path d="M 378.733795 67.635 
L 508.586532 67.635 
L 508.586532 60.5475 
L 378.733795 60.5475 
z
" clip-path="url(#pd3ddc71cce)" style="fill: #0000ff"/>
   </g>
   <g id="patch_113">
    <path d="M 379.982379 67.635 
L 460.516048 67.635 
L 460.516048 60.5475 
L 379.982379 60.5475 
z
" clip-path="url(#pd3ddc71cce)" style="fill: #0000ff"/>
   </g>
   <g id="patch_114">
    <path d="M 386.225299 67.635 
L 444.908748 67.635 
L 444.908748 60.5475 
L 386.225299 60.5475 
z
" clip-path="url(#pd3ddc71cce)" style="fill: #0000ff"/>
   </g>
   <g id="patch_115">
    <path d="M 386.225299 67.635 
L 492.979232 67.635 
L 492.979232 60.5475 
L 386.225299 60.5475 
z
" clip-path="url(#pd3ddc71cce)" style="fill: #0000ff"/>
   </g>
   <g id="patch_116">
    <path d="M 387.473883 67.635 
L 476.123348 67.635 
L 476.123348 60.5475 
L 387.473883 60.5475 
z
" clip-path="url(#pd3ddc71cce)" style="fill: #0000ff"/>
   </g>
   <g id="patch_117">
    <path d="M 387.473883 67.635 
L 485.487728 67.635 
L 485.487728 60.5475 
L 387.473883 60.5475 
z
" clip-path="url(#pd3ddc71cce)" style="fill: #0000ff"/>
   </g>
   <g id="patch_118">
    <path d="M 388.098175 67.635 
L 476.123348 67.635 
L 476.123348 60.5475 
L 388.098175 60.5475 
z
" clip-path="url(#pd3ddc71cce)" style="fill: #0000ff"/>
   </g>
   <g id="patch_119">
    <path d="M 394.341095 67.635 
L 476.123348 67.635 
L 476.123348 60.5475 
L 394.341095 60.5475 
z
" clip-path="url(#pd3ddc71cce)" style="fill: #0000ff"/>
   </g>
   <g id="patch_120">
    <path d="M 394.341095 67.635 
L 459.267464 67.635 
L 459.267464 60.5475 
L 394.341095 60.5475 
z
" clip-path="url(#pd3ddc71cce)" style="fill: #0000ff"/>
   </g>
   <g id="patch_121">
    <path d="M 394.341095 67.635 
L 459.267464 67.635 
L 459.267464 60.5475 
L 394.341095 60.5475 
z
" clip-path="url(#pd3ddc71cce)" style="fill: #0000ff"/>
   </g>
   <g id="patch_122">
    <path d="M 394.965387 67.635 
L 508.586532 67.635 
L 508.586532 60.5475 
L 394.965387 60.5475 
z
" clip-path="url(#pd3ddc71cce)" style="fill: #0000ff"/>
   </g>
   <g id="patch_123">
    <path d="M 509.210824 64.357031 
L 516.078037 64.357031 
L 516.078037 63.825469 
L 509.210824 63.825469 
z
" clip-path="url(#pd3ddc71cce)" style="fill: #0000ff"/>
   </g>
   <g id="patch_124">
    <path d="M 516.702329 67.635 
L 947.463814 67.635 
L 947.463814 60.5475 
L 516.702329 60.5475 
z
" clip-path="url(#pd3ddc71cce)" style="fill: #0000ff"/>
   </g>
   <g id="patch_125">
    <path d="M 516.702329 67.635 
L 947.463814 67.635 
L 947.463814 60.5475 
L 516.702329 60.5475 
z
" clip-path="url(#pd3ddc71cce)" style="fill: #0000ff"/>
   </g>
   <g id="patch_126">
    <path d="M 517.326621 67.635 
L 947.463814 67.635 
L 947.463814 60.5475 
L 517.326621 60.5475 
z
" clip-path="url(#pd3ddc71cce)" style="fill: #0000ff"/>
   </g>
   <g id="patch_127">
    <path d="M 517.326621 67.635 
L 979.302706 67.635 
L 979.302706 60.5475 
L 517.326621 60.5475 
z
" clip-path="url(#pd3ddc71cce)" style="fill: #0000ff"/>
   </g>
   <g id="patch_128">
    <path d="M 517.326621 67.635 
L 979.302706 67.635 
L 979.302706 60.5475 
L 517.326621 60.5475 
z
" clip-path="url(#pd3ddc71cce)" style="fill: #0000ff"/>
   </g>
   <g id="patch_129">
    <path d="M 517.950913 67.635 
L 944.966646 67.635 
L 944.966646 60.5475 
L 517.950913 60.5475 
z
" clip-path="url(#pd3ddc71cce)" style="fill: #0000ff"/>
   </g>
   <g id="patch_130">
    <path d="M 517.950913 67.635 
L 552.911265 67.635 
L 552.911265 60.5475 
L 517.950913 60.5475 
z
" clip-path="url(#pd3ddc71cce)" style="fill: #0000ff"/>
   </g>
   <g id="patch_131">
    <path d="M 522.320957 67.635 
L 947.463814 67.635 
L 947.463814 60.5475 
L 522.320957 60.5475 
z
" clip-path="url(#pd3ddc71cce)" style="fill: #0000ff"/>
   </g>
   <g id="patch_132">
    <path d="M 522.320957 67.635 
L 949.33669 67.635 
L 949.33669 60.5475 
L 522.320957 60.5475 
z
" clip-path="url(#pd3ddc71cce)" style="fill: #0000ff"/>
   </g>
   <g id="patch_133">
    <path d="M 522.320957 67.635 
L 952.45815 67.635 
L 952.45815 60.5475 
L 522.320957 60.5475 
z
" clip-path="url(#pd3ddc71cce)" style="fill: #0000ff"/>
   </g>
   <g id="patch_134">
    <path d="M 522.320957 67.635 
L 947.463814 67.635 
L 947.463814 60.5475 
L 522.320957 60.5475 
z
" clip-path="url(#pd3ddc71cce)" style="fill: #0000ff"/>
   </g>
   <g id="patch_135">
    <path d="M 522.320957 67.635 
L 983.67275 67.635 
L 983.67275 60.5475 
L 522.320957 60.5475 
z
" clip-path="url(#pd3ddc71cce)" style="fill: #0000ff"/>
   </g>
   <g id="patch_136">
    <path d="M 532.933921 67.635 
L 979.302706 67.635 
L 979.302706 60.5475 
L 532.933921 60.5475 
z
" clip-path="url(#pd3ddc71cce)" style="fill: #0000ff"/>
   </g>
   <g id="patch_137">
    <path d="M 615.964758 67.635 
L 947.463814 67.635 
L 947.463814 60.5475 
L 615.964758 60.5475 
z
" clip-path="url(#pd3ddc71cce)" style="fill: #0000ff"/>
   </g>
   <g id="patch_138">
    <path d="M 622.83197 67.635 
L 947.463814 67.635 
L 947.463814 60.5475 
L 622.83197 60.5475 
z
" clip-path="url(#pd3ddc71cce)" style="fill: #0000ff"/>
   </g>
   <g id="patch_139">
    <path d="M 629.07489 67.635 
L 952.45815 67.635 
L 952.45815 60.5475 
L 629.07489 60.5475 
z
" clip-path="url(#pd3ddc71cce)" style="fill: #0000ff"/>
   </g>
   <g id="patch_140">
    <path d="M 966.192574 67.635 
L 988.042794 67.635 
L 988.042794 60.5475 
L 966.192574 60.5475 
z
" clip-path="url(#pd3ddc71cce)" style="fill: #0000ff"/>
   </g>
   <g id="patch_141">
    <path d="M 144 46.638281 
L 150.867212 46.638281 
L 150.867212 46.106719 
L 144 46.106719 
z
" clip-path="url(#pd3ddc71cce)" style="fill: #0000ff"/>
   </g>
   <g id="patch_142">
    <path d="M 151.491504 49.91625 
L 333.160478 49.91625 
L 333.160478 42.82875 
L 151.491504 42.82875 
z
" clip-path="url(#pd3ddc71cce)" style="fill: #0000ff"/>
   </g>
   <g id="patch_143">
    <path d="M 164.601636 49.91625 
L 331.287602 49.91625 
L 331.287602 42.82875 
L 164.601636 42.82875 
z
" clip-path="url(#pd3ddc71cce)" style="fill: #0000ff"/>
   </g>
   <g id="patch_144">
    <path d="M 164.601636 49.91625 
L 353.762115 49.91625 
L 353.762115 42.82875 
L 164.601636 42.82875 
z
" clip-path="url(#pd3ddc71cce)" style="fill: #0000ff"/>
   </g>
   <g id="patch_145">
    <path d="M 263.239773 49.91625 
L 331.287602 49.91625 
L 331.287602 42.82875 
L 263.239773 42.82875 
z
" clip-path="url(#pd3ddc71cce)" style="fill: #0000ff"/>
   </g>
   <g id="patch_146">
    <path d="M 296.951542 49.91625 
L 331.911894 49.91625 
L 331.911894 42.82875 
L 296.951542 42.82875 
z
" clip-path="url(#pd3ddc71cce)" style="fill: #0000ff"/>
   </g>
   <g id="patch_147">
    <path d="M 308.81309 49.91625 
L 331.287602 49.91625 
L 331.287602 42.82875 
L 308.81309 42.82875 
z
" clip-path="url(#pd3ddc71cce)" style="fill: #0000ff"/>
   </g>
   <g id="patch_148">
    <path d="M 340.651982 49.91625 
L 413.069855 49.91625 
L 413.069855 42.82875 
L 340.651982 42.82875 
z
" clip-path="url(#pd3ddc71cce)" style="fill: #0000ff"/>
   </g>
   <g id="patch_149">
    <path d="M 340.651982 49.91625 
L 424.307111 49.91625 
L 424.307111 42.82875 
L 340.651982 42.82875 
z
" clip-path="url(#pd3ddc71cce)" style="fill: #0000ff"/>
   </g>
   <g id="patch_150">
    <path d="M 340.651982 49.91625 
L 424.307111 49.91625 
L 424.307111 42.82875 
L 340.651982 42.82875 
z
" clip-path="url(#pd3ddc71cce)" style="fill: #0000ff"/>
   </g>
   <g id="patch_151">
    <path d="M 340.651982 49.91625 
L 413.069855 49.91625 
L 413.069855 42.82875 
L 340.651982 42.82875 
z
" clip-path="url(#pd3ddc71cce)" style="fill: #0000ff"/>
   </g>
   <g id="patch_152">
    <path d="M 340.651982 49.91625 
L 416.191315 49.91625 
L 416.191315 42.82875 
L 340.651982 42.82875 
z
" clip-path="url(#pd3ddc71cce)" style="fill: #0000ff"/>
   </g>
   <g id="patch_153">
    <path d="M 341.900566 49.91625 
L 416.191315 49.91625 
L 416.191315 42.82875 
L 341.900566 42.82875 
z
" clip-path="url(#pd3ddc71cce)" style="fill: #0000ff"/>
   </g>
   <g id="patch_154">
    <path d="M 342.524858 49.91625 
L 481.117684 49.91625 
L 481.117684 42.82875 
L 342.524858 42.82875 
z
" clip-path="url(#pd3ddc71cce)" style="fill: #0000ff"/>
   </g>
   <g id="patch_155">
    <path d="M 342.524858 49.91625 
L 481.117684 49.91625 
L 481.117684 42.82875 
L 342.524858 42.82875 
z
" clip-path="url(#pd3ddc71cce)" style="fill: #0000ff"/>
   </g>
   <g id="patch_156">
    <path d="M 342.524858 49.91625 
L 481.117684 49.91625 
L 481.117684 42.82875 
L 342.524858 42.82875 
z
" clip-path="url(#pd3ddc71cce)" style="fill: #0000ff"/>
   </g>
   <g id="patch_157">
    <path d="M 343.14915 49.91625 
L 471.753304 49.91625 
L 471.753304 42.82875 
L 343.14915 42.82875 
z
" clip-path="url(#pd3ddc71cce)" style="fill: #0000ff"/>
   </g>
   <g id="patch_158">
    <path d="M 343.14915 49.91625 
L 454.89742 49.91625 
L 454.89742 42.82875 
L 343.14915 42.82875 
z
" clip-path="url(#pd3ddc71cce)" style="fill: #0000ff"/>
   </g>
   <g id="patch_159">
    <path d="M 343.14915 49.91625 
L 438.665828 49.91625 
L 438.665828 42.82875 
L 343.14915 42.82875 
z
" clip-path="url(#pd3ddc71cce)" style="fill: #0000ff"/>
   </g>
   <g id="patch_160">
    <path d="M 360.629327 49.91625 
L 471.753304 49.91625 
L 471.753304 42.82875 
L 360.629327 42.82875 
z
" clip-path="url(#pd3ddc71cce)" style="fill: #0000ff"/>
   </g>
   <g id="patch_161">
    <path d="M 474.874764 49.91625 
L 899.393329 49.91625 
L 899.393329 42.82875 
L 474.874764 42.82875 
z
" clip-path="url(#pd3ddc71cce)" style="fill: #0000ff"/>
   </g>
   <g id="patch_162">
    <path d="M 474.874764 49.91625 
L 919.370673 49.91625 
L 919.370673 42.82875 
L 474.874764 42.82875 
z
" clip-path="url(#pd3ddc71cce)" style="fill: #0000ff"/>
   </g>
   <g id="patch_163">
    <path d="M 475.499056 49.91625 
L 894.398993 49.91625 
L 894.398993 42.82875 
L 475.499056 42.82875 
z
" clip-path="url(#pd3ddc71cce)" style="fill: #0000ff"/>
   </g>
   <g id="patch_164">
    <path d="M 475.499056 49.91625 
L 894.398993 49.91625 
L 894.398993 42.82875 
L 475.499056 42.82875 
z
" clip-path="url(#pd3ddc71cce)" style="fill: #0000ff"/>
   </g>
   <g id="patch_165">
    <path d="M 477.996224 49.91625 
L 898.769037 49.91625 
L 898.769037 42.82875 
L 477.996224 42.82875 
z
" clip-path="url(#pd3ddc71cce)" style="fill: #0000ff"/>
   </g>
   <g id="patch_166">
    <path d="M 477.996224 49.91625 
L 918.122089 49.91625 
L 918.122089 42.82875 
L 477.996224 42.82875 
z
" clip-path="url(#pd3ddc71cce)" style="fill: #0000ff"/>
   </g>
   <g id="patch_167">
    <path d="M 477.996224 49.91625 
L 512.956576 49.91625 
L 512.956576 42.82875 
L 477.996224 42.82875 
z
" clip-path="url(#pd3ddc71cce)" style="fill: #0000ff"/>
   </g>
   <g id="patch_168">
    <path d="M 479.244808 49.91625 
L 896.896161 49.91625 
L 896.896161 42.82875 
L 479.244808 42.82875 
z
" clip-path="url(#pd3ddc71cce)" style="fill: #0000ff"/>
   </g>
   <g id="patch_169">
    <path d="M 482.366268 49.91625 
L 894.398993 49.91625 
L 894.398993 42.82875 
L 482.366268 42.82875 
z
" clip-path="url(#pd3ddc71cce)" style="fill: #0000ff"/>
   </g>
   <g id="patch_170">
    <path d="M 482.366268 49.91625 
L 919.370673 49.91625 
L 919.370673 42.82875 
L 482.366268 42.82875 
z
" clip-path="url(#pd3ddc71cce)" style="fill: #0000ff"/>
   </g>
   <g id="patch_171">
    <path d="M 482.366268 49.91625 
L 897.520453 49.91625 
L 897.520453 42.82875 
L 482.366268 42.82875 
z
" clip-path="url(#pd3ddc71cce)" style="fill: #0000ff"/>
   </g>
   <g id="patch_172">
    <path d="M 482.366268 49.91625 
L 919.994965 49.91625 
L 919.994965 42.82875 
L 482.366268 42.82875 
z
" clip-path="url(#pd3ddc71cce)" style="fill: #0000ff"/>
   </g>
   <g id="patch_173">
    <path d="M 482.99056 49.91625 
L 899.393329 49.91625 
L 899.393329 42.82875 
L 482.99056 42.82875 
z
" clip-path="url(#pd3ddc71cce)" style="fill: #0000ff"/>
   </g>
   <g id="patch_174">
    <path d="M 483.614852 49.91625 
L 894.398993 49.91625 
L 894.398993 42.82875 
L 483.614852 42.82875 
z
" clip-path="url(#pd3ddc71cce)" style="fill: #0000ff"/>
   </g>
   <g id="patch_175">
    <path d="M 559.778477 49.91625 
L 894.398993 49.91625 
L 894.398993 42.82875 
L 559.778477 42.82875 
z
" clip-path="url(#pd3ddc71cce)" style="fill: #0000ff"/>
   </g>
   <g id="patch_176">
    <path d="M 587.871617 49.91625 
L 899.393329 49.91625 
L 899.393329 42.82875 
L 587.871617 42.82875 
z
" clip-path="url(#pd3ddc71cce)" style="fill: #0000ff"/>
   </g>
   <g id="patch_177">
    <path d="M 920.619257 46.638281 
L 938.099434 46.638281 
L 938.099434 46.106719 
L 920.619257 46.106719 
z
" clip-path="url(#pd3ddc71cce)" style="fill: #0000ff"/>
   </g>
   <g id="patch_178">
    <path d="M 144 28.919531 
L 157.734424 28.919531 
L 157.734424 28.387969 
L 144 28.387969 
z
" clip-path="url(#pd3ddc71cce)" style="fill: #0000ff"/>
   </g>
   <g id="patch_179">
    <path d="M 158.358716 32.1975 
L 361.877911 32.1975 
L 361.877911 25.11 
L 158.358716 25.11 
z
" clip-path="url(#pd3ddc71cce)" style="fill: #0000ff"/>
   </g>
   <g id="patch_180">
    <path d="M 169.595972 32.1975 
L 361.877911 32.1975 
L 361.877911 25.11 
L 169.595972 25.11 
z
" clip-path="url(#pd3ddc71cce)" style="fill: #0000ff"/>
   </g>
   <g id="patch_181">
    <path d="M 173.966016 32.1975 
L 383.103839 32.1975 
L 383.103839 25.11 
L 173.966016 25.11 
z
" clip-path="url(#pd3ddc71cce)" style="fill: #0000ff"/>
   </g>
   <g id="patch_182">
    <path d="M 287.587162 32.1975 
L 361.877911 32.1975 
L 361.877911 25.11 
L 287.587162 25.11 
z
" clip-path="url(#pd3ddc71cce)" style="fill: #0000ff"/>
   </g>
   <g id="patch_183">
    <path d="M 370.617999 32.1975 
L 449.903084 32.1975 
L 449.903084 25.11 
L 370.617999 25.11 
z
" clip-path="url(#pd3ddc71cce)" style="fill: #0000ff"/>
   </g>
   <g id="patch_184">
    <path d="M 370.617999 32.1975 
L 449.903084 32.1975 
L 449.903084 25.11 
L 370.617999 25.11 
z
" clip-path="url(#pd3ddc71cce)" style="fill: #0000ff"/>
   </g>
   <g id="patch_185">
    <path d="M 370.617999 32.1975 
L 450.527376 32.1975 
L 450.527376 25.11 
L 370.617999 25.11 
z
" clip-path="url(#pd3ddc71cce)" style="fill: #0000ff"/>
   </g>
   <g id="patch_186">
    <path d="M 373.115167 32.1975 
L 509.210824 32.1975 
L 509.210824 25.11 
L 373.115167 25.11 
z
" clip-path="url(#pd3ddc71cce)" style="fill: #0000ff"/>
   </g>
   <g id="patch_187">
    <path d="M 373.115167 32.1975 
L 509.210824 32.1975 
L 509.210824 25.11 
L 373.115167 25.11 
z
" clip-path="url(#pd3ddc71cce)" style="fill: #0000ff"/>
   </g>
   <g id="patch_188">
    <path d="M 373.115167 32.1975 
L 509.210824 32.1975 
L 509.210824 25.11 
L 373.115167 25.11 
z
" clip-path="url(#pd3ddc71cce)" style="fill: #0000ff"/>
   </g>
   <g id="patch_189">
    <path d="M 373.115167 32.1975 
L 509.210824 32.1975 
L 509.210824 25.11 
L 373.115167 25.11 
z
" clip-path="url(#pd3ddc71cce)" style="fill: #0000ff"/>
   </g>
   <g id="patch_190">
    <path d="M 381.855255 32.1975 
L 451.151668 32.1975 
L 451.151668 25.11 
L 381.855255 25.11 
z
" clip-path="url(#pd3ddc71cce)" style="fill: #0000ff"/>
   </g>
   <g id="patch_191">
    <path d="M 382.479547 32.1975 
L 436.792952 32.1975 
L 436.792952 25.11 
L 382.479547 25.11 
z
" clip-path="url(#pd3ddc71cce)" style="fill: #0000ff"/>
   </g>
   <g id="patch_192">
    <path d="M 382.479547 32.1975 
L 471.753304 32.1975 
L 471.753304 25.11 
L 382.479547 25.11 
z
" clip-path="url(#pd3ddc71cce)" style="fill: #0000ff"/>
   </g>
   <g id="patch_193">
    <path d="M 389.346759 32.1975 
L 446.157332 32.1975 
L 446.157332 25.11 
L 389.346759 25.11 
z
" clip-path="url(#pd3ddc71cce)" style="fill: #0000ff"/>
   </g>
   <g id="patch_194">
    <path d="M 389.346759 32.1975 
L 509.210824 32.1975 
L 509.210824 25.11 
L 389.346759 25.11 
z
" clip-path="url(#pd3ddc71cce)" style="fill: #0000ff"/>
   </g>
   <g id="patch_195">
    <path d="M 509.835116 28.919531 
L 517.326621 28.919531 
L 517.326621 28.387969 
L 509.835116 28.387969 
z
" clip-path="url(#pd3ddc71cce)" style="fill: #0000ff"/>
   </g>
   <g id="patch_196">
    <path d="M 517.950913 32.1975 
L 946.21523 32.1975 
L 946.21523 25.11 
L 517.950913 25.11 
z
" clip-path="url(#pd3ddc71cce)" style="fill: #0000ff"/>
   </g>
   <g id="patch_197">
    <path d="M 517.950913 32.1975 
L 951.833858 32.1975 
L 951.833858 25.11 
L 517.950913 25.11 
z
" clip-path="url(#pd3ddc71cce)" style="fill: #0000ff"/>
   </g>
   <g id="patch_198">
    <path d="M 518.575205 32.1975 
L 553.535557 32.1975 
L 553.535557 25.11 
L 518.575205 25.11 
z
" clip-path="url(#pd3ddc71cce)" style="fill: #0000ff"/>
   </g>
   <g id="patch_199">
    <path d="M 522.945249 32.1975 
L 946.21523 32.1975 
L 946.21523 25.11 
L 522.945249 25.11 
z
" clip-path="url(#pd3ddc71cce)" style="fill: #0000ff"/>
   </g>
   <g id="patch_200">
    <path d="M 522.945249 32.1975 
L 951.209566 32.1975 
L 951.209566 25.11 
L 522.945249 25.11 
z
" clip-path="url(#pd3ddc71cce)" style="fill: #0000ff"/>
   </g>
   <g id="patch_201">
    <path d="M 522.945249 32.1975 
L 946.21523 32.1975 
L 946.21523 25.11 
L 522.945249 25.11 
z
" clip-path="url(#pd3ddc71cce)" style="fill: #0000ff"/>
   </g>
   <g id="patch_202">
    <path d="M 522.945249 32.1975 
L 982.424166 32.1975 
L 982.424166 25.11 
L 522.945249 25.11 
z
" clip-path="url(#pd3ddc71cce)" style="fill: #0000ff"/>
   </g>
   <g id="patch_203">
    <path d="M 528.563877 32.1975 
L 978.054122 32.1975 
L 978.054122 25.11 
L 528.563877 25.11 
z
" clip-path="url(#pd3ddc71cce)" style="fill: #0000ff"/>
   </g>
   <g id="patch_204">
    <path d="M 554.784141 32.1975 
L 948.088106 32.1975 
L 948.088106 25.11 
L 554.784141 25.11 
z
" clip-path="url(#pd3ddc71cce)" style="fill: #0000ff"/>
   </g>
   <g id="patch_205">
    <path d="M 614.716174 32.1975 
L 978.054122 32.1975 
L 978.054122 25.11 
L 614.716174 25.11 
z
" clip-path="url(#pd3ddc71cce)" style="fill: #0000ff"/>
   </g>
   <g id="patch_206">
    <path d="M 630.323474 32.1975 
L 946.21523 32.1975 
L 946.21523 25.11 
L 630.323474 25.11 
z
" clip-path="url(#pd3ddc71cce)" style="fill: #0000ff"/>
   </g>
   <g id="patch_207">
    <path d="M 630.323474 32.1975 
L 943.718062 32.1975 
L 943.718062 25.11 
L 630.323474 25.11 
z
" clip-path="url(#pd3ddc71cce)" style="fill: #0000ff"/>
   </g>
   <g id="patch_208">
    <path d="M 630.323474 32.1975 
L 946.21523 32.1975 
L 946.21523 25.11 
L 630.323474 25.11 
z
" clip-path="url(#pd3ddc71cce)" style="fill: #0000ff"/>
   </g>
   <g id="patch_209">
    <path d="M 630.323474 32.1975 
L 978.054122 32.1975 
L 978.054122 25.11 
L 630.323474 25.11 
z
" clip-path="url(#pd3ddc71cce)" style="fill: #0000ff"/>
   </g>
   <g id="patch_210">
    <path d="M 630.323474 32.1975 
L 951.209566 32.1975 
L 951.209566 25.11 
L 630.323474 25.11 
z
" clip-path="url(#pd3ddc71cce)" style="fill: #0000ff"/>
   </g>
   <g id="patch_211">
    <path d="M 630.947766 32.1975 
L 946.21523 32.1975 
L 946.21523 25.11 
L 630.947766 25.11 
z
" clip-path="url(#pd3ddc71cce)" style="fill: #0000ff"/>
   </g>
   <g id="patch_212">
    <path d="M 964.94399 32.1975 
L 988.042794 32.1975 
L 988.042794 25.11 
L 964.94399 25.11 
z
" clip-path="url(#pd3ddc71cce)" style="fill: #0000ff"/>
   </g>
   <g id="matplotlib.axis_1">
    <g id="xtick_1">
     <g id="line2d_1">
      <defs>
       <path id="mc70b856064" d="M 0 0 
L 0 3.5 
" style="stroke: #000000; stroke-width: 0.8"/>
      </defs>
      <g>
       <use xlink:href="#mc70b856064" x="268.23411" y="144.18" style="stroke: #000000; stroke-width: 0.8"/>
      </g>
     </g>
     <g id="text_1">
      <!-- 200 -->
      <g transform="translate(258.69036 158.778437) scale(0.1 -0.1)">
       <defs>
        <path id="DejaVuSans-32" d="M 1228 531 
L 3431 531 
L 3431 0 
L 469 0 
L 469 531 
Q 828 903 1448 1529 
Q 2069 2156 2228 2338 
Q 2531 2678 2651 2914 
Q 2772 3150 2772 3378 
Q 2772 3750 2511 3984 
Q 2250 4219 1831 4219 
Q 1534 4219 1204 4116 
Q 875 4013 500 3803 
L 500 4441 
Q 881 4594 1212 4672 
Q 1544 4750 1819 4750 
Q 2544 4750 2975 4387 
Q 3406 4025 3406 3419 
Q 3406 3131 3298 2873 
Q 3191 2616 2906 2266 
Q 2828 2175 2409 1742 
Q 1991 1309 1228 531 
z
" transform="scale(0.015625)"/>
        <path id="DejaVuSans-30" d="M 2034 4250 
Q 1547 4250 1301 3770 
Q 1056 3291 1056 2328 
Q 1056 1369 1301 889 
Q 1547 409 2034 409 
Q 2525 409 2770 889 
Q 3016 1369 3016 2328 
Q 3016 3291 2770 3770 
Q 2525 4250 2034 4250 
z
M 2034 4750 
Q 2819 4750 3233 4129 
Q 3647 3509 3647 2328 
Q 3647 1150 3233 529 
Q 2819 -91 2034 -91 
Q 1250 -91 836 529 
Q 422 1150 422 2328 
Q 422 3509 836 4129 
Q 1250 4750 2034 4750 
z
" transform="scale(0.015625)"/>
       </defs>
       <use xlink:href="#DejaVuSans-32"/>
       <use xlink:href="#DejaVuSans-30" x="63.623047"/>
       <use xlink:href="#DejaVuSans-30" x="127.246094"/>
      </g>
     </g>
    </g>
    <g id="xtick_2">
     <g id="line2d_2">
      <g>
       <use xlink:href="#mc70b856064" x="393.092511" y="144.18" style="stroke: #000000; stroke-width: 0.8"/>
      </g>
     </g>
     <g id="text_2">
      <!-- 400 -->
      <g transform="translate(383.548761 158.778437) scale(0.1 -0.1)">
       <defs>
        <path id="DejaVuSans-34" d="M 2419 4116 
L 825 1625 
L 2419 1625 
L 2419 4116 
z
M 2253 4666 
L 3047 4666 
L 3047 1625 
L 3713 1625 
L 3713 1100 
L 3047 1100 
L 3047 0 
L 2419 0 
L 2419 1100 
L 313 1100 
L 313 1709 
L 2253 4666 
z
" transform="scale(0.015625)"/>
       </defs>
       <use xlink:href="#DejaVuSans-34"/>
       <use xlink:href="#DejaVuSans-30" x="63.623047"/>
       <use xlink:href="#DejaVuSans-30" x="127.246094"/>
      </g>
     </g>
    </g>
    <g id="xtick_3">
     <g id="line2d_3">
      <g>
       <use xlink:href="#mc70b856064" x="517.950913" y="144.18" style="stroke: #000000; stroke-width: 0.8"/>
      </g>
     </g>
     <g id="text_3">
      <!-- 600 -->
      <g transform="translate(508.407163 158.778437) scale(0.1 -0.1)">
       <defs>
        <path id="DejaVuSans-36" d="M 2113 2584 
Q 1688 2584 1439 2293 
Q 1191 2003 1191 1497 
Q 1191 994 1439 701 
Q 1688 409 2113 409 
Q 2538 409 2786 701 
Q 3034 994 3034 1497 
Q 3034 2003 2786 2293 
Q 2538 2584 2113 2584 
z
M 3366 4563 
L 3366 3988 
Q 3128 4100 2886 4159 
Q 2644 4219 2406 4219 
Q 1781 4219 1451 3797 
Q 1122 3375 1075 2522 
Q 1259 2794 1537 2939 
Q 1816 3084 2150 3084 
Q 2853 3084 3261 2657 
Q 3669 2231 3669 1497 
Q 3669 778 3244 343 
Q 2819 -91 2113 -91 
Q 1303 -91 875 529 
Q 447 1150 447 2328 
Q 447 3434 972 4092 
Q 1497 4750 2381 4750 
Q 2619 4750 2861 4703 
Q 3103 4656 3366 4563 
z
" transform="scale(0.015625)"/>
       </defs>
       <use xlink:href="#DejaVuSans-36"/>
       <use xlink:href="#DejaVuSans-30" x="63.623047"/>
       <use xlink:href="#DejaVuSans-30" x="127.246094"/>
      </g>
     </g>
    </g>
    <g id="xtick_4">
     <g id="line2d_4">
      <g>
       <use xlink:href="#mc70b856064" x="642.809314" y="144.18" style="stroke: #000000; stroke-width: 0.8"/>
      </g>
     </g>
     <g id="text_4">
      <!-- 800 -->
      <g transform="translate(633.265564 158.778437) scale(0.1 -0.1)">
       <defs>
        <path id="DejaVuSans-38" d="M 2034 2216 
Q 1584 2216 1326 1975 
Q 1069 1734 1069 1313 
Q 1069 891 1326 650 
Q 1584 409 2034 409 
Q 2484 409 2743 651 
Q 3003 894 3003 1313 
Q 3003 1734 2745 1975 
Q 2488 2216 2034 2216 
z
M 1403 2484 
Q 997 2584 770 2862 
Q 544 3141 544 3541 
Q 544 4100 942 4425 
Q 1341 4750 2034 4750 
Q 2731 4750 3128 4425 
Q 3525 4100 3525 3541 
Q 3525 3141 3298 2862 
Q 3072 2584 2669 2484 
Q 3125 2378 3379 2068 
Q 3634 1759 3634 1313 
Q 3634 634 3220 271 
Q 2806 -91 2034 -91 
Q 1263 -91 848 271 
Q 434 634 434 1313 
Q 434 1759 690 2068 
Q 947 2378 1403 2484 
z
M 1172 3481 
Q 1172 3119 1398 2916 
Q 1625 2713 2034 2713 
Q 2441 2713 2670 2916 
Q 2900 3119 2900 3481 
Q 2900 3844 2670 4047 
Q 2441 4250 2034 4250 
Q 1625 4250 1398 4047 
Q 1172 3844 1172 3481 
z
" transform="scale(0.015625)"/>
       </defs>
       <use xlink:href="#DejaVuSans-38"/>
       <use xlink:href="#DejaVuSans-30" x="63.623047"/>
       <use xlink:href="#DejaVuSans-30" x="127.246094"/>
      </g>
     </g>
    </g>
    <g id="xtick_5">
     <g id="line2d_5">
      <g>
       <use xlink:href="#mc70b856064" x="767.667716" y="144.18" style="stroke: #000000; stroke-width: 0.8"/>
      </g>
     </g>
     <g id="text_5">
      <!-- 1000 -->
      <g transform="translate(754.942716 158.778437) scale(0.1 -0.1)">
       <defs>
        <path id="DejaVuSans-31" d="M 794 531 
L 1825 531 
L 1825 4091 
L 703 3866 
L 703 4441 
L 1819 4666 
L 2450 4666 
L 2450 531 
L 3481 531 
L 3481 0 
L 794 0 
L 794 531 
z
" transform="scale(0.015625)"/>
       </defs>
       <use xlink:href="#DejaVuSans-31"/>
       <use xlink:href="#DejaVuSans-30" x="63.623047"/>
       <use xlink:href="#DejaVuSans-30" x="127.246094"/>
       <use xlink:href="#DejaVuSans-30" x="190.869141"/>
      </g>
     </g>
    </g>
    <g id="xtick_6">
     <g id="line2d_6">
      <g>
       <use xlink:href="#mc70b856064" x="892.526117" y="144.18" style="stroke: #000000; stroke-width: 0.8"/>
      </g>
     </g>
     <g id="text_6">
      <!-- 1200 -->
      <g transform="translate(879.801117 158.778437) scale(0.1 -0.1)">
       <use xlink:href="#DejaVuSans-31"/>
       <use xlink:href="#DejaVuSans-32" x="63.623047"/>
       <use xlink:href="#DejaVuSans-30" x="127.246094"/>
       <use xlink:href="#DejaVuSans-30" x="190.869141"/>
      </g>
     </g>
    </g>
    <g id="xtick_7">
     <g id="line2d_7">
      <g>
       <use xlink:href="#mc70b856064" x="1017.384519" y="144.18" style="stroke: #000000; stroke-width: 0.8"/>
      </g>
     </g>
     <g id="text_7">
      <!-- 1400 -->
      <g transform="translate(1004.659519 158.778437) scale(0.1 -0.1)">
       <use xlink:href="#DejaVuSans-31"/>
       <use xlink:href="#DejaVuSans-34" x="63.623047"/>
       <use xlink:href="#DejaVuSans-30" x="127.246094"/>
       <use xlink:href="#DejaVuSans-30" x="190.869141"/>
      </g>
     </g>
    </g>
    <g id="text_8">
     <!-- Residual -->
     <g transform="translate(569.284375 172.456563) scale(0.1 -0.1)">
      <defs>
       <path id="DejaVuSans-52" d="M 2841 2188 
Q 3044 2119 3236 1894 
Q 3428 1669 3622 1275 
L 4263 0 
L 3584 0 
L 2988 1197 
Q 2756 1666 2539 1819 
Q 2322 1972 1947 1972 
L 1259 1972 
L 1259 0 
L 628 0 
L 628 4666 
L 2053 4666 
Q 2853 4666 3247 4331 
Q 3641 3997 3641 3322 
Q 3641 2881 3436 2590 
Q 3231 2300 2841 2188 
z
M 1259 4147 
L 1259 2491 
L 2053 2491 
Q 2509 2491 2742 2702 
Q 2975 2913 2975 3322 
Q 2975 3731 2742 3939 
Q 2509 4147 2053 4147 
L 1259 4147 
z
" transform="scale(0.015625)"/>
       <path id="DejaVuSans-65" d="M 3597 1894 
L 3597 1613 
L 953 1613 
Q 991 1019 1311 708 
Q 1631 397 2203 397 
Q 2534 397 2845 478 
Q 3156 559 3463 722 
L 3463 178 
Q 3153 47 2828 -22 
Q 2503 -91 2169 -91 
Q 1331 -91 842 396 
Q 353 884 353 1716 
Q 353 2575 817 3079 
Q 1281 3584 2069 3584 
Q 2775 3584 3186 3129 
Q 3597 2675 3597 1894 
z
M 3022 2063 
Q 3016 2534 2758 2815 
Q 2500 3097 2075 3097 
Q 1594 3097 1305 2825 
Q 1016 2553 972 2059 
L 3022 2063 
z
" transform="scale(0.015625)"/>
       <path id="DejaVuSans-73" d="M 2834 3397 
L 2834 2853 
Q 2591 2978 2328 3040 
Q 2066 3103 1784 3103 
Q 1356 3103 1142 2972 
Q 928 2841 928 2578 
Q 928 2378 1081 2264 
Q 1234 2150 1697 2047 
L 1894 2003 
Q 2506 1872 2764 1633 
Q 3022 1394 3022 966 
Q 3022 478 2636 193 
Q 2250 -91 1575 -91 
Q 1294 -91 989 -36 
Q 684 19 347 128 
L 347 722 
Q 666 556 975 473 
Q 1284 391 1588 391 
Q 1994 391 2212 530 
Q 2431 669 2431 922 
Q 2431 1156 2273 1281 
Q 2116 1406 1581 1522 
L 1381 1569 
Q 847 1681 609 1914 
Q 372 2147 372 2553 
Q 372 3047 722 3315 
Q 1072 3584 1716 3584 
Q 2034 3584 2315 3537 
Q 2597 3491 2834 3397 
z
" transform="scale(0.015625)"/>
       <path id="DejaVuSans-69" d="M 603 3500 
L 1178 3500 
L 1178 0 
L 603 0 
L 603 3500 
z
M 603 4863 
L 1178 4863 
L 1178 4134 
L 603 4134 
L 603 4863 
z
" transform="scale(0.015625)"/>
       <path id="DejaVuSans-64" d="M 2906 2969 
L 2906 4863 
L 3481 4863 
L 3481 0 
L 2906 0 
L 2906 525 
Q 2725 213 2448 61 
Q 2172 -91 1784 -91 
Q 1150 -91 751 415 
Q 353 922 353 1747 
Q 353 2572 751 3078 
Q 1150 3584 1784 3584 
Q 2172 3584 2448 3432 
Q 2725 3281 2906 2969 
z
M 947 1747 
Q 947 1113 1208 752 
Q 1469 391 1925 391 
Q 2381 391 2643 752 
Q 2906 1113 2906 1747 
Q 2906 2381 2643 2742 
Q 2381 3103 1925 3103 
Q 1469 3103 1208 2742 
Q 947 2381 947 1747 
z
" transform="scale(0.015625)"/>
       <path id="DejaVuSans-75" d="M 544 1381 
L 544 3500 
L 1119 3500 
L 1119 1403 
Q 1119 906 1312 657 
Q 1506 409 1894 409 
Q 2359 409 2629 706 
Q 2900 1003 2900 1516 
L 2900 3500 
L 3475 3500 
L 3475 0 
L 2900 0 
L 2900 538 
Q 2691 219 2414 64 
Q 2138 -91 1772 -91 
Q 1169 -91 856 284 
Q 544 659 544 1381 
z
M 1991 3584 
L 1991 3584 
z
" transform="scale(0.015625)"/>
       <path id="DejaVuSans-61" d="M 2194 1759 
Q 1497 1759 1228 1600 
Q 959 1441 959 1056 
Q 959 750 1161 570 
Q 1363 391 1709 391 
Q 2188 391 2477 730 
Q 2766 1069 2766 1631 
L 2766 1759 
L 2194 1759 
z
M 3341 1997 
L 3341 0 
L 2766 0 
L 2766 531 
Q 2569 213 2275 61 
Q 1981 -91 1556 -91 
Q 1019 -91 701 211 
Q 384 513 384 1019 
Q 384 1609 779 1909 
Q 1175 2209 1959 2209 
L 2766 2209 
L 2766 2266 
Q 2766 2663 2505 2880 
Q 2244 3097 1772 3097 
Q 1472 3097 1187 3025 
Q 903 2953 641 2809 
L 641 3341 
Q 956 3463 1253 3523 
Q 1550 3584 1831 3584 
Q 2591 3584 2966 3190 
Q 3341 2797 3341 1997 
z
" transform="scale(0.015625)"/>
       <path id="DejaVuSans-6c" d="M 603 4863 
L 1178 4863 
L 1178 0 
L 603 0 
L 603 4863 
z
" transform="scale(0.015625)"/>
      </defs>
      <use xlink:href="#DejaVuSans-52"/>
      <use xlink:href="#DejaVuSans-65" x="64.982422"/>
      <use xlink:href="#DejaVuSans-73" x="126.505859"/>
      <use xlink:href="#DejaVuSans-69" x="178.605469"/>
      <use xlink:href="#DejaVuSans-64" x="206.388672"/>
      <use xlink:href="#DejaVuSans-75" x="269.865234"/>
      <use xlink:href="#DejaVuSans-61" x="333.244141"/>
      <use xlink:href="#DejaVuSans-6c" x="394.523438"/>
     </g>
    </g>
   </g>
   <g id="matplotlib.axis_2">
    <g id="ytick_1">
     <g id="line2d_8">
      <defs>
       <path id="md21bea17ab" d="M 0 0 
L -3.5 0 
" style="stroke: #000000; stroke-width: 0.8"/>
      </defs>
      <g>
       <use xlink:href="#md21bea17ab" x="144" y="134.96625" style="stroke: #000000; stroke-width: 0.8"/>
      </g>
     </g>
     <g id="text_9">
      <!-- 1.G.18.1.1 -->
      <g transform="translate(84.726562 138.765469) scale(0.1 -0.1)">
       <defs>
        <path id="DejaVuSans-2e" d="M 684 794 
L 1344 794 
L 1344 0 
L 684 0 
L 684 794 
z
" transform="scale(0.015625)"/>
        <path id="DejaVuSans-47" d="M 3809 666 
L 3809 1919 
L 2778 1919 
L 2778 2438 
L 4434 2438 
L 4434 434 
Q 4069 175 3628 42 
Q 3188 -91 2688 -91 
Q 1594 -91 976 548 
Q 359 1188 359 2328 
Q 359 3472 976 4111 
Q 1594 4750 2688 4750 
Q 3144 4750 3555 4637 
Q 3966 4525 4313 4306 
L 4313 3634 
Q 3963 3931 3569 4081 
Q 3175 4231 2741 4231 
Q 1884 4231 1454 3753 
Q 1025 3275 1025 2328 
Q 1025 1384 1454 906 
Q 1884 428 2741 428 
Q 3075 428 3337 486 
Q 3600 544 3809 666 
z
" transform="scale(0.015625)"/>
       </defs>
       <use xlink:href="#DejaVuSans-31"/>
       <use xlink:href="#DejaVuSans-2e" x="63.623047"/>
       <use xlink:href="#DejaVuSans-47" x="95.410156"/>
       <use xlink:href="#DejaVuSans-2e" x="172.900391"/>
       <use xlink:href="#DejaVuSans-31" x="204.6875"/>
       <use xlink:href="#DejaVuSans-38" x="268.310547"/>
       <use xlink:href="#DejaVuSans-2e" x="331.933594"/>
       <use xlink:href="#DejaVuSans-31" x="363.720703"/>
       <use xlink:href="#DejaVuSans-2e" x="427.34375"/>
       <use xlink:href="#DejaVuSans-31" x="459.130859"/>
      </g>
     </g>
    </g>
    <g id="ytick_2">
     <g id="line2d_9">
      <g>
       <use xlink:href="#md21bea17ab" x="144" y="117.2475" style="stroke: #000000; stroke-width: 0.8"/>
      </g>
     </g>
     <g id="text_10">
      <!-- 1.G.18.1.2 -->
      <g transform="translate(84.726562 121.046719) scale(0.1 -0.1)">
       <use xlink:href="#DejaVuSans-31"/>
       <use xlink:href="#DejaVuSans-2e" x="63.623047"/>
       <use xlink:href="#DejaVuSans-47" x="95.410156"/>
       <use xlink:href="#DejaVuSans-2e" x="172.900391"/>
       <use xlink:href="#DejaVuSans-31" x="204.6875"/>
       <use xlink:href="#DejaVuSans-38" x="268.310547"/>
       <use xlink:href="#DejaVuSans-2e" x="331.933594"/>
       <use xlink:href="#DejaVuSans-31" x="363.720703"/>
       <use xlink:href="#DejaVuSans-2e" x="427.34375"/>
       <use xlink:href="#DejaVuSans-32" x="459.130859"/>
      </g>
     </g>
    </g>
    <g id="ytick_3">
     <g id="line2d_10">
      <g>
       <use xlink:href="#md21bea17ab" x="144" y="99.52875" style="stroke: #000000; stroke-width: 0.8"/>
      </g>
     </g>
     <g id="text_11">
      <!-- 1.G.18.1.3 -->
      <g transform="translate(84.726562 103.327969) scale(0.1 -0.1)">
       <defs>
        <path id="DejaVuSans-33" d="M 2597 2516 
Q 3050 2419 3304 2112 
Q 3559 1806 3559 1356 
Q 3559 666 3084 287 
Q 2609 -91 1734 -91 
Q 1441 -91 1130 -33 
Q 819 25 488 141 
L 488 750 
Q 750 597 1062 519 
Q 1375 441 1716 441 
Q 2309 441 2620 675 
Q 2931 909 2931 1356 
Q 2931 1769 2642 2001 
Q 2353 2234 1838 2234 
L 1294 2234 
L 1294 2753 
L 1863 2753 
Q 2328 2753 2575 2939 
Q 2822 3125 2822 3475 
Q 2822 3834 2567 4026 
Q 2313 4219 1838 4219 
Q 1578 4219 1281 4162 
Q 984 4106 628 3988 
L 628 4550 
Q 988 4650 1302 4700 
Q 1616 4750 1894 4750 
Q 2613 4750 3031 4423 
Q 3450 4097 3450 3541 
Q 3450 3153 3228 2886 
Q 3006 2619 2597 2516 
z
" transform="scale(0.015625)"/>
       </defs>
       <use xlink:href="#DejaVuSans-31"/>
       <use xlink:href="#DejaVuSans-2e" x="63.623047"/>
       <use xlink:href="#DejaVuSans-47" x="95.410156"/>
       <use xlink:href="#DejaVuSans-2e" x="172.900391"/>
       <use xlink:href="#DejaVuSans-31" x="204.6875"/>
       <use xlink:href="#DejaVuSans-38" x="268.310547"/>
       <use xlink:href="#DejaVuSans-2e" x="331.933594"/>
       <use xlink:href="#DejaVuSans-31" x="363.720703"/>
       <use xlink:href="#DejaVuSans-2e" x="427.34375"/>
       <use xlink:href="#DejaVuSans-33" x="459.130859"/>
      </g>
     </g>
    </g>
    <g id="ytick_4">
     <g id="line2d_11">
      <g>
       <use xlink:href="#md21bea17ab" x="144" y="81.81" style="stroke: #000000; stroke-width: 0.8"/>
      </g>
     </g>
     <g id="text_12">
      <!-- 1.G.18.1.4 -->
      <g transform="translate(84.726562 85.609219) scale(0.1 -0.1)">
       <use xlink:href="#DejaVuSans-31"/>
       <use xlink:href="#DejaVuSans-2e" x="63.623047"/>
       <use xlink:href="#DejaVuSans-47" x="95.410156"/>
       <use xlink:href="#DejaVuSans-2e" x="172.900391"/>
       <use xlink:href="#DejaVuSans-31" x="204.6875"/>
       <use xlink:href="#DejaVuSans-38" x="268.310547"/>
       <use xlink:href="#DejaVuSans-2e" x="331.933594"/>
       <use xlink:href="#DejaVuSans-31" x="363.720703"/>
       <use xlink:href="#DejaVuSans-2e" x="427.34375"/>
       <use xlink:href="#DejaVuSans-34" x="459.130859"/>
      </g>
     </g>
    </g>
    <g id="ytick_5">
     <g id="line2d_12">
      <g>
       <use xlink:href="#md21bea17ab" x="144" y="64.09125" style="stroke: #000000; stroke-width: 0.8"/>
      </g>
     </g>
     <g id="text_13">
      <!-- 1.G.18.1.5 -->
      <g transform="translate(84.726562 67.890469) scale(0.1 -0.1)">
       <defs>
        <path id="DejaVuSans-35" d="M 691 4666 
L 3169 4666 
L 3169 4134 
L 1269 4134 
L 1269 2991 
Q 1406 3038 1543 3061 
Q 1681 3084 1819 3084 
Q 2600 3084 3056 2656 
Q 3513 2228 3513 1497 
Q 3513 744 3044 326 
Q 2575 -91 1722 -91 
Q 1428 -91 1123 -41 
Q 819 9 494 109 
L 494 744 
Q 775 591 1075 516 
Q 1375 441 1709 441 
Q 2250 441 2565 725 
Q 2881 1009 2881 1497 
Q 2881 1984 2565 2268 
Q 2250 2553 1709 2553 
Q 1456 2553 1204 2497 
Q 953 2441 691 2322 
L 691 4666 
z
" transform="scale(0.015625)"/>
       </defs>
       <use xlink:href="#DejaVuSans-31"/>
       <use xlink:href="#DejaVuSans-2e" x="63.623047"/>
       <use xlink:href="#DejaVuSans-47" x="95.410156"/>
       <use xlink:href="#DejaVuSans-2e" x="172.900391"/>
       <use xlink:href="#DejaVuSans-31" x="204.6875"/>
       <use xlink:href="#DejaVuSans-38" x="268.310547"/>
       <use xlink:href="#DejaVuSans-2e" x="331.933594"/>
       <use xlink:href="#DejaVuSans-31" x="363.720703"/>
       <use xlink:href="#DejaVuSans-2e" x="427.34375"/>
       <use xlink:href="#DejaVuSans-35" x="459.130859"/>
      </g>
     </g>
    </g>
    <g id="ytick_6">
     <g id="line2d_13">
      <g>
       <use xlink:href="#md21bea17ab" x="144" y="46.3725" style="stroke: #000000; stroke-width: 0.8"/>
      </g>
     </g>
     <g id="text_14">
      <!-- 1.G.18.1.6 -->
      <g transform="translate(84.726562 50.171719) scale(0.1 -0.1)">
       <use xlink:href="#DejaVuSans-31"/>
       <use xlink:href="#DejaVuSans-2e" x="63.623047"/>
       <use xlink:href="#DejaVuSans-47" x="95.410156"/>
       <use xlink:href="#DejaVuSans-2e" x="172.900391"/>
       <use xlink:href="#DejaVuSans-31" x="204.6875"/>
       <use xlink:href="#DejaVuSans-38" x="268.310547"/>
       <use xlink:href="#DejaVuSans-2e" x="331.933594"/>
       <use xlink:href="#DejaVuSans-31" x="363.720703"/>
       <use xlink:href="#DejaVuSans-2e" x="427.34375"/>
       <use xlink:href="#DejaVuSans-36" x="459.130859"/>
      </g>
     </g>
    </g>
    <g id="ytick_7">
     <g id="line2d_14">
      <g>
       <use xlink:href="#md21bea17ab" x="144" y="28.65375" style="stroke: #000000; stroke-width: 0.8"/>
      </g>
     </g>
     <g id="text_15">
      <!-- 1.G.18.1.7 -->
      <g transform="translate(84.726562 32.452969) scale(0.1 -0.1)">
       <defs>
        <path id="DejaVuSans-37" d="M 525 4666 
L 3525 4666 
L 3525 4397 
L 1831 0 
L 1172 0 
L 2766 4134 
L 525 4134 
L 525 4666 
z
" transform="scale(0.015625)"/>
       </defs>
       <use xlink:href="#DejaVuSans-31"/>
       <use xlink:href="#DejaVuSans-2e" x="63.623047"/>
       <use xlink:href="#DejaVuSans-47" x="95.410156"/>
       <use xlink:href="#DejaVuSans-2e" x="172.900391"/>
       <use xlink:href="#DejaVuSans-31" x="204.6875"/>
       <use xlink:href="#DejaVuSans-38" x="268.310547"/>
       <use xlink:href="#DejaVuSans-2e" x="331.933594"/>
       <use xlink:href="#DejaVuSans-31" x="363.720703"/>
       <use xlink:href="#DejaVuSans-2e" x="427.34375"/>
       <use xlink:href="#DejaVuSans-37" x="459.130859"/>
      </g>
     </g>
    </g>
   </g>
   <g id="patch_213">
    <path d="M 144 144.18 
L 144 19.44 
" style="fill: none; stroke: #000000; stroke-width: 0.8; stroke-linejoin: miter; stroke-linecap: square"/>
   </g>
   <g id="patch_214">
    <path d="M 1036.8 144.18 
L 1036.8 19.44 
" style="fill: none; stroke: #000000; stroke-width: 0.8; stroke-linejoin: miter; stroke-linecap: square"/>
   </g>
   <g id="patch_215">
    <path d="M 144 144.18 
L 1036.8 144.18 
" style="fill: none; stroke: #000000; stroke-width: 0.8; stroke-linejoin: miter; stroke-linecap: square"/>
   </g>
   <g id="patch_216">
    <path d="M 144 19.44 
L 1036.8 19.44 
" style="fill: none; stroke: #000000; stroke-width: 0.8; stroke-linejoin: miter; stroke-linecap: square"/>
   </g>
   <g id="text_16">
    <!-- 1.G.18 Summary -->
    <g transform="translate(539.582812 13.44) scale(0.12 -0.12)">
     <defs>
      <path id="DejaVuSans-20" transform="scale(0.015625)"/>
      <path id="DejaVuSans-53" d="M 3425 4513 
L 3425 3897 
Q 3066 4069 2747 4153 
Q 2428 4238 2131 4238 
Q 1616 4238 1336 4038 
Q 1056 3838 1056 3469 
Q 1056 3159 1242 3001 
Q 1428 2844 1947 2747 
L 2328 2669 
Q 3034 2534 3370 2195 
Q 3706 1856 3706 1288 
Q 3706 609 3251 259 
Q 2797 -91 1919 -91 
Q 1588 -91 1214 -16 
Q 841 59 441 206 
L 441 856 
Q 825 641 1194 531 
Q 1563 422 1919 422 
Q 2459 422 2753 634 
Q 3047 847 3047 1241 
Q 3047 1584 2836 1778 
Q 2625 1972 2144 2069 
L 1759 2144 
Q 1053 2284 737 2584 
Q 422 2884 422 3419 
Q 422 4038 858 4394 
Q 1294 4750 2059 4750 
Q 2388 4750 2728 4690 
Q 3069 4631 3425 4513 
z
" transform="scale(0.015625)"/>
      <path id="DejaVuSans-6d" d="M 3328 2828 
Q 3544 3216 3844 3400 
Q 4144 3584 4550 3584 
Q 5097 3584 5394 3201 
Q 5691 2819 5691 2113 
L 5691 0 
L 5113 0 
L 5113 2094 
Q 5113 2597 4934 2840 
Q 4756 3084 4391 3084 
Q 3944 3084 3684 2787 
Q 3425 2491 3425 1978 
L 3425 0 
L 2847 0 
L 2847 2094 
Q 2847 2600 2669 2842 
Q 2491 3084 2119 3084 
Q 1678 3084 1418 2786 
Q 1159 2488 1159 1978 
L 1159 0 
L 581 0 
L 581 3500 
L 1159 3500 
L 1159 2956 
Q 1356 3278 1631 3431 
Q 1906 3584 2284 3584 
Q 2666 3584 2933 3390 
Q 3200 3197 3328 2828 
z
" transform="scale(0.015625)"/>
      <path id="DejaVuSans-72" d="M 2631 2963 
Q 2534 3019 2420 3045 
Q 2306 3072 2169 3072 
Q 1681 3072 1420 2755 
Q 1159 2438 1159 1844 
L 1159 0 
L 581 0 
L 581 3500 
L 1159 3500 
L 1159 2956 
Q 1341 3275 1631 3429 
Q 1922 3584 2338 3584 
Q 2397 3584 2469 3576 
Q 2541 3569 2628 3553 
L 2631 2963 
z
" transform="scale(0.015625)"/>
      <path id="DejaVuSans-79" d="M 2059 -325 
Q 1816 -950 1584 -1140 
Q 1353 -1331 966 -1331 
L 506 -1331 
L 506 -850 
L 844 -850 
Q 1081 -850 1212 -737 
Q 1344 -625 1503 -206 
L 1606 56 
L 191 3500 
L 800 3500 
L 1894 763 
L 2988 3500 
L 3597 3500 
L 2059 -325 
z
" transform="scale(0.015625)"/>
     </defs>
     <use xlink:href="#DejaVuSans-31"/>
     <use xlink:href="#DejaVuSans-2e" x="63.623047"/>
     <use xlink:href="#DejaVuSans-47" x="95.410156"/>
     <use xlink:href="#DejaVuSans-2e" x="172.900391"/>
     <use xlink:href="#DejaVuSans-31" x="204.6875"/>
     <use xlink:href="#DejaVuSans-38" x="268.310547"/>
     <use xlink:href="#DejaVuSans-20" x="331.933594"/>
     <use xlink:href="#DejaVuSans-53" x="363.720703"/>
     <use xlink:href="#DejaVuSans-75" x="427.197266"/>
     <use xlink:href="#DejaVuSans-6d" x="490.576172"/>
     <use xlink:href="#DejaVuSans-6d" x="587.988281"/>
     <use xlink:href="#DejaVuSans-61" x="685.400391"/>
     <use xlink:href="#DejaVuSans-72" x="746.679688"/>
     <use xlink:href="#DejaVuSans-79" x="787.792969"/>
    </g>
   </g>
  </g>
 </g>
 <defs>
  <clipPath id="pd3ddc71cce">
   <rect x="144" y="19.44" width="892.8" height="124.74"/>
  </clipPath>
 </defs>
</svg>
