<?xml version="1.0" encoding="utf-8" standalone="no"?>
<!DOCTYPE svg PUBLIC "-//W3C//DTD SVG 1.1//EN"
  "http://www.w3.org/Graphics/SVG/1.1/DTD/svg11.dtd">
<svg xmlns:xlink="http://www.w3.org/1999/xlink" width="1152pt" height="252pt" viewBox="0 0 1152 252" xmlns="http://www.w3.org/2000/svg" version="1.1">
 <metadata>
  <rdf:RDF xmlns:dc="http://purl.org/dc/elements/1.1/" xmlns:cc="http://creativecommons.org/ns#" xmlns:rdf="http://www.w3.org/1999/02/22-rdf-syntax-ns#">
   <cc:Work>
    <dc:type rdf:resource="http://purl.org/dc/dcmitype/StillImage"/>
    <dc:date>2024-10-10T19:15:43.224073</dc:date>
    <dc:format>image/svg+xml</dc:format>
    <dc:creator>
     <cc:Agent>
      <dc:title>Matplotlib v3.9.2, https://matplotlib.org/</dc:title>
     </cc:Agent>
    </dc:creator>
   </cc:Work>
  </rdf:RDF>
 </metadata>
 <defs>
  <style type="text/css">*{stroke-linejoin: round; stroke-linecap: butt}</style>
 </defs>
 <g id="figure_1">
  <g id="patch_1">
   <path d="M 0 252 
L 1152 252 
L 1152 0 
L 0 0 
z
" style="fill: #ffffff"/>
  </g>
  <g id="axes_1">
   <g id="patch_2">
    <path d="M 144 224.28 
L 1036.8 224.28 
L 1036.8 30.24 
L 144 30.24 
z
" style="fill: #ffffff"/>
   </g>
   <g id="patch_3">
    <path d="M 144 212.597368 
L 148.010782 212.597368 
L 148.010782 212.133158 
L 144 212.133158 
z
" clip-path="url(#p17cea353ba)" style="fill: #0000ff"/>
   </g>
   <g id="patch_4">
    <path d="M 152.021563 215.46 
L 517.002695 215.46 
L 517.002695 209.270526 
L 152.021563 209.270526 
z
" clip-path="url(#p17cea353ba)" style="fill: #0000ff"/>
   </g>
   <g id="patch_5">
    <path d="M 156.032345 215.46 
L 508.981132 215.46 
L 508.981132 209.270526 
L 156.032345 209.270526 
z
" clip-path="url(#p17cea353ba)" style="fill: #0000ff"/>
   </g>
   <g id="patch_6">
    <path d="M 160.043127 215.46 
L 360.58221 215.46 
L 360.58221 209.270526 
L 160.043127 209.270526 
z
" clip-path="url(#p17cea353ba)" style="fill: #0000ff"/>
   </g>
   <g id="patch_7">
    <path d="M 160.043127 215.46 
L 492.938005 215.46 
L 492.938005 209.270526 
L 160.043127 209.270526 
z
" clip-path="url(#p17cea353ba)" style="fill: #0000ff"/>
   </g>
   <g id="patch_8">
    <path d="M 160.043127 215.46 
L 360.58221 215.46 
L 360.58221 209.270526 
L 160.043127 209.270526 
z
" clip-path="url(#p17cea353ba)" style="fill: #0000ff"/>
   </g>
   <g id="patch_9">
    <path d="M 160.043127 215.46 
L 460.851752 215.46 
L 460.851752 209.270526 
L 160.043127 209.270526 
z
" clip-path="url(#p17cea353ba)" style="fill: #0000ff"/>
   </g>
   <g id="patch_10">
    <path d="M 160.043127 215.46 
L 460.851752 215.46 
L 460.851752 209.270526 
L 160.043127 209.270526 
z
" clip-path="url(#p17cea353ba)" style="fill: #0000ff"/>
   </g>
   <g id="patch_11">
    <path d="M 160.043127 215.46 
L 496.948787 215.46 
L 496.948787 209.270526 
L 160.043127 209.270526 
z
" clip-path="url(#p17cea353ba)" style="fill: #0000ff"/>
   </g>
   <g id="patch_12">
    <path d="M 160.043127 215.46 
L 496.948787 215.46 
L 496.948787 209.270526 
L 160.043127 209.270526 
z
" clip-path="url(#p17cea353ba)" style="fill: #0000ff"/>
   </g>
   <g id="patch_13">
    <path d="M 160.043127 215.46 
L 496.948787 215.46 
L 496.948787 209.270526 
L 160.043127 209.270526 
z
" clip-path="url(#p17cea353ba)" style="fill: #0000ff"/>
   </g>
   <g id="patch_14">
    <path d="M 160.043127 215.46 
L 480.90566 215.46 
L 480.90566 209.270526 
L 160.043127 209.270526 
z
" clip-path="url(#p17cea353ba)" style="fill: #0000ff"/>
   </g>
   <g id="patch_15">
    <path d="M 160.043127 215.46 
L 460.851752 215.46 
L 460.851752 209.270526 
L 160.043127 209.270526 
z
" clip-path="url(#p17cea353ba)" style="fill: #0000ff"/>
   </g>
   <g id="patch_16">
    <path d="M 160.043127 215.46 
L 452.830189 215.46 
L 452.830189 209.270526 
L 160.043127 209.270526 
z
" clip-path="url(#p17cea353ba)" style="fill: #0000ff"/>
   </g>
   <g id="patch_17">
    <path d="M 144 199.986316 
L 504.97035 199.986316 
L 504.97035 193.796842 
L 144 193.796842 
z
" clip-path="url(#p17cea353ba)" style="fill: #0000ff"/>
   </g>
   <g id="patch_18">
    <path d="M 144 199.986316 
L 488.927224 199.986316 
L 488.927224 193.796842 
L 144 193.796842 
z
" clip-path="url(#p17cea353ba)" style="fill: #0000ff"/>
   </g>
   <g id="patch_19">
    <path d="M 148.010782 199.986316 
L 488.927224 199.986316 
L 488.927224 193.796842 
L 148.010782 193.796842 
z
" clip-path="url(#p17cea353ba)" style="fill: #0000ff"/>
   </g>
   <g id="patch_20">
    <path d="M 148.010782 199.986316 
L 468.873315 199.986316 
L 468.873315 193.796842 
L 148.010782 193.796842 
z
" clip-path="url(#p17cea353ba)" style="fill: #0000ff"/>
   </g>
   <g id="patch_21">
    <path d="M 152.021563 199.986316 
L 484.916442 199.986316 
L 484.916442 193.796842 
L 152.021563 193.796842 
z
" clip-path="url(#p17cea353ba)" style="fill: #0000ff"/>
   </g>
   <g id="patch_22">
    <path d="M 156.032345 199.986316 
L 380.636119 199.986316 
L 380.636119 193.796842 
L 156.032345 193.796842 
z
" clip-path="url(#p17cea353ba)" style="fill: #0000ff"/>
   </g>
   <g id="patch_23">
    <path d="M 156.032345 199.986316 
L 488.927224 199.986316 
L 488.927224 193.796842 
L 156.032345 193.796842 
z
" clip-path="url(#p17cea353ba)" style="fill: #0000ff"/>
   </g>
   <g id="patch_24">
    <path d="M 156.032345 199.986316 
L 460.851752 199.986316 
L 460.851752 193.796842 
L 156.032345 193.796842 
z
" clip-path="url(#p17cea353ba)" style="fill: #0000ff"/>
   </g>
   <g id="patch_25">
    <path d="M 156.032345 199.986316 
L 456.84097 199.986316 
L 456.84097 193.796842 
L 156.032345 193.796842 
z
" clip-path="url(#p17cea353ba)" style="fill: #0000ff"/>
   </g>
   <g id="patch_26">
    <path d="M 156.032345 199.986316 
L 456.84097 199.986316 
L 456.84097 193.796842 
L 156.032345 193.796842 
z
" clip-path="url(#p17cea353ba)" style="fill: #0000ff"/>
   </g>
   <g id="patch_27">
    <path d="M 156.032345 199.986316 
L 472.884097 199.986316 
L 472.884097 193.796842 
L 156.032345 193.796842 
z
" clip-path="url(#p17cea353ba)" style="fill: #0000ff"/>
   </g>
   <g id="patch_28">
    <path d="M 156.032345 199.986316 
L 488.927224 199.986316 
L 488.927224 193.796842 
L 156.032345 193.796842 
z
" clip-path="url(#p17cea353ba)" style="fill: #0000ff"/>
   </g>
   <g id="patch_29">
    <path d="M 156.032345 199.986316 
L 456.84097 199.986316 
L 456.84097 193.796842 
L 156.032345 193.796842 
z
" clip-path="url(#p17cea353ba)" style="fill: #0000ff"/>
   </g>
   <g id="patch_30">
    <path d="M 156.032345 199.986316 
L 448.819407 199.986316 
L 448.819407 193.796842 
L 156.032345 193.796842 
z
" clip-path="url(#p17cea353ba)" style="fill: #0000ff"/>
   </g>
   <g id="patch_31">
    <path d="M 508.981132 197.123684 
L 517.002695 197.123684 
L 517.002695 196.659474 
L 508.981132 196.659474 
z
" clip-path="url(#p17cea353ba)" style="fill: #0000ff"/>
   </g>
   <g id="patch_32">
    <path d="M 144 184.512632 
L 914.070081 184.512632 
L 914.070081 178.323158 
L 144 178.323158 
z
" clip-path="url(#p17cea353ba)" style="fill: #0000ff"/>
   </g>
   <g id="patch_33">
    <path d="M 144 184.512632 
L 950.167116 184.512632 
L 950.167116 178.323158 
L 144 178.323158 
z
" clip-path="url(#p17cea353ba)" style="fill: #0000ff"/>
   </g>
   <g id="patch_34">
    <path d="M 152.021563 184.512632 
L 500.959569 184.512632 
L 500.959569 178.323158 
L 152.021563 178.323158 
z
" clip-path="url(#p17cea353ba)" style="fill: #0000ff"/>
   </g>
   <g id="patch_35">
    <path d="M 156.032345 184.512632 
L 396.679245 184.512632 
L 396.679245 178.323158 
L 156.032345 178.323158 
z
" clip-path="url(#p17cea353ba)" style="fill: #0000ff"/>
   </g>
   <g id="patch_36">
    <path d="M 156.032345 184.512632 
L 488.927224 184.512632 
L 488.927224 178.323158 
L 156.032345 178.323158 
z
" clip-path="url(#p17cea353ba)" style="fill: #0000ff"/>
   </g>
   <g id="patch_37">
    <path d="M 156.032345 184.512632 
L 460.851752 184.512632 
L 460.851752 178.323158 
L 156.032345 178.323158 
z
" clip-path="url(#p17cea353ba)" style="fill: #0000ff"/>
   </g>
   <g id="patch_38">
    <path d="M 156.032345 184.512632 
L 456.84097 184.512632 
L 456.84097 178.323158 
L 156.032345 178.323158 
z
" clip-path="url(#p17cea353ba)" style="fill: #0000ff"/>
   </g>
   <g id="patch_39">
    <path d="M 156.032345 184.512632 
L 456.84097 184.512632 
L 456.84097 178.323158 
L 156.032345 178.323158 
z
" clip-path="url(#p17cea353ba)" style="fill: #0000ff"/>
   </g>
   <g id="patch_40">
    <path d="M 156.032345 184.512632 
L 496.948787 184.512632 
L 496.948787 178.323158 
L 156.032345 178.323158 
z
" clip-path="url(#p17cea353ba)" style="fill: #0000ff"/>
   </g>
   <g id="patch_41">
    <path d="M 156.032345 184.512632 
L 492.938005 184.512632 
L 492.938005 178.323158 
L 156.032345 178.323158 
z
" clip-path="url(#p17cea353ba)" style="fill: #0000ff"/>
   </g>
   <g id="patch_42">
    <path d="M 156.032345 184.512632 
L 492.938005 184.512632 
L 492.938005 178.323158 
L 156.032345 178.323158 
z
" clip-path="url(#p17cea353ba)" style="fill: #0000ff"/>
   </g>
   <g id="patch_43">
    <path d="M 156.032345 184.512632 
L 456.84097 184.512632 
L 456.84097 178.323158 
L 156.032345 178.323158 
z
" clip-path="url(#p17cea353ba)" style="fill: #0000ff"/>
   </g>
   <g id="patch_44">
    <path d="M 156.032345 184.512632 
L 448.819407 184.512632 
L 448.819407 178.323158 
L 156.032345 178.323158 
z
" clip-path="url(#p17cea353ba)" style="fill: #0000ff"/>
   </g>
   <g id="patch_45">
    <path d="M 609.250674 184.512632 
L 958.188679 184.512632 
L 958.188679 178.323158 
L 609.250674 178.323158 
z
" clip-path="url(#p17cea353ba)" style="fill: #0000ff"/>
   </g>
   <g id="patch_46">
    <path d="M 613.261456 184.512632 
L 853.908356 184.512632 
L 853.908356 178.323158 
L 613.261456 178.323158 
z
" clip-path="url(#p17cea353ba)" style="fill: #0000ff"/>
   </g>
   <g id="patch_47">
    <path d="M 613.261456 184.512632 
L 946.156334 184.512632 
L 946.156334 178.323158 
L 613.261456 178.323158 
z
" clip-path="url(#p17cea353ba)" style="fill: #0000ff"/>
   </g>
   <g id="patch_48">
    <path d="M 613.261456 184.512632 
L 918.080863 184.512632 
L 918.080863 178.323158 
L 613.261456 178.323158 
z
" clip-path="url(#p17cea353ba)" style="fill: #0000ff"/>
   </g>
   <g id="patch_49">
    <path d="M 613.261456 184.512632 
L 914.070081 184.512632 
L 914.070081 178.323158 
L 613.261456 178.323158 
z
" clip-path="url(#p17cea353ba)" style="fill: #0000ff"/>
   </g>
   <g id="patch_50">
    <path d="M 613.261456 184.512632 
L 914.070081 184.512632 
L 914.070081 178.323158 
L 613.261456 178.323158 
z
" clip-path="url(#p17cea353ba)" style="fill: #0000ff"/>
   </g>
   <g id="patch_51">
    <path d="M 613.261456 184.512632 
L 954.177898 184.512632 
L 954.177898 178.323158 
L 613.261456 178.323158 
z
" clip-path="url(#p17cea353ba)" style="fill: #0000ff"/>
   </g>
   <g id="patch_52">
    <path d="M 613.261456 184.512632 
L 950.167116 184.512632 
L 950.167116 178.323158 
L 613.261456 178.323158 
z
" clip-path="url(#p17cea353ba)" style="fill: #0000ff"/>
   </g>
   <g id="patch_53">
    <path d="M 613.261456 184.512632 
L 950.167116 184.512632 
L 950.167116 178.323158 
L 613.261456 178.323158 
z
" clip-path="url(#p17cea353ba)" style="fill: #0000ff"/>
   </g>
   <g id="patch_54">
    <path d="M 613.261456 184.512632 
L 914.070081 184.512632 
L 914.070081 178.323158 
L 613.261456 178.323158 
z
" clip-path="url(#p17cea353ba)" style="fill: #0000ff"/>
   </g>
   <g id="patch_55">
    <path d="M 613.261456 184.512632 
L 906.048518 184.512632 
L 906.048518 178.323158 
L 613.261456 178.323158 
z
" clip-path="url(#p17cea353ba)" style="fill: #0000ff"/>
   </g>
   <g id="patch_56">
    <path d="M 962.199461 181.65 
L 994.285714 181.65 
L 994.285714 181.185789 
L 962.199461 181.185789 
z
" clip-path="url(#p17cea353ba)" style="fill: #0000ff"/>
   </g>
   <g id="patch_57">
    <path d="M 144 169.038947 
L 512.991914 169.038947 
L 512.991914 162.849474 
L 144 162.849474 
z
" clip-path="url(#p17cea353ba)" style="fill: #0000ff"/>
   </g>
   <g id="patch_58">
    <path d="M 156.032345 169.038947 
L 396.679245 169.038947 
L 396.679245 162.849474 
L 156.032345 162.849474 
z
" clip-path="url(#p17cea353ba)" style="fill: #0000ff"/>
   </g>
   <g id="patch_59">
    <path d="M 156.032345 169.038947 
L 404.700809 169.038947 
L 404.700809 162.849474 
L 156.032345 162.849474 
z
" clip-path="url(#p17cea353ba)" style="fill: #0000ff"/>
   </g>
   <g id="patch_60">
    <path d="M 156.032345 169.038947 
L 412.722372 169.038947 
L 412.722372 162.849474 
L 156.032345 162.849474 
z
" clip-path="url(#p17cea353ba)" style="fill: #0000ff"/>
   </g>
   <g id="patch_61">
    <path d="M 156.032345 169.038947 
L 456.84097 169.038947 
L 456.84097 162.849474 
L 156.032345 162.849474 
z
" clip-path="url(#p17cea353ba)" style="fill: #0000ff"/>
   </g>
   <g id="patch_62">
    <path d="M 156.032345 169.038947 
L 484.916442 169.038947 
L 484.916442 162.849474 
L 156.032345 162.849474 
z
" clip-path="url(#p17cea353ba)" style="fill: #0000ff"/>
   </g>
   <g id="patch_63">
    <path d="M 156.032345 169.038947 
L 488.927224 169.038947 
L 488.927224 162.849474 
L 156.032345 162.849474 
z
" clip-path="url(#p17cea353ba)" style="fill: #0000ff"/>
   </g>
   <g id="patch_64">
    <path d="M 156.032345 169.038947 
L 440.797844 169.038947 
L 440.797844 162.849474 
L 156.032345 162.849474 
z
" clip-path="url(#p17cea353ba)" style="fill: #0000ff"/>
   </g>
   <g id="patch_65">
    <path d="M 156.032345 169.038947 
L 412.722372 169.038947 
L 412.722372 162.849474 
L 156.032345 162.849474 
z
" clip-path="url(#p17cea353ba)" style="fill: #0000ff"/>
   </g>
   <g id="patch_66">
    <path d="M 517.002695 166.176316 
L 633.315364 166.176316 
L 633.315364 165.712105 
L 517.002695 165.712105 
z
" clip-path="url(#p17cea353ba)" style="fill: #0000ff"/>
   </g>
   <g id="patch_67">
    <path d="M 637.326146 169.038947 
L 817.811321 169.038947 
L 817.811321 162.849474 
L 637.326146 162.849474 
z
" clip-path="url(#p17cea353ba)" style="fill: #0000ff"/>
   </g>
   <g id="patch_68">
    <path d="M 637.326146 169.038947 
L 970.221024 169.038947 
L 970.221024 162.849474 
L 637.326146 162.849474 
z
" clip-path="url(#p17cea353ba)" style="fill: #0000ff"/>
   </g>
   <g id="patch_69">
    <path d="M 637.326146 169.038947 
L 938.134771 169.038947 
L 938.134771 162.849474 
L 637.326146 162.849474 
z
" clip-path="url(#p17cea353ba)" style="fill: #0000ff"/>
   </g>
   <g id="patch_70">
    <path d="M 637.326146 169.038947 
L 938.134771 169.038947 
L 938.134771 162.849474 
L 637.326146 162.849474 
z
" clip-path="url(#p17cea353ba)" style="fill: #0000ff"/>
   </g>
   <g id="patch_71">
    <path d="M 637.326146 169.038947 
L 974.231806 169.038947 
L 974.231806 162.849474 
L 637.326146 162.849474 
z
" clip-path="url(#p17cea353ba)" style="fill: #0000ff"/>
   </g>
   <g id="patch_72">
    <path d="M 637.326146 169.038947 
L 974.231806 169.038947 
L 974.231806 162.849474 
L 637.326146 162.849474 
z
" clip-path="url(#p17cea353ba)" style="fill: #0000ff"/>
   </g>
   <g id="patch_73">
    <path d="M 637.326146 169.038947 
L 974.231806 169.038947 
L 974.231806 162.849474 
L 637.326146 162.849474 
z
" clip-path="url(#p17cea353ba)" style="fill: #0000ff"/>
   </g>
   <g id="patch_74">
    <path d="M 637.326146 169.038947 
L 938.134771 169.038947 
L 938.134771 162.849474 
L 637.326146 162.849474 
z
" clip-path="url(#p17cea353ba)" style="fill: #0000ff"/>
   </g>
   <g id="patch_75">
    <path d="M 637.326146 169.038947 
L 974.231806 169.038947 
L 974.231806 162.849474 
L 637.326146 162.849474 
z
" clip-path="url(#p17cea353ba)" style="fill: #0000ff"/>
   </g>
   <g id="patch_76">
    <path d="M 637.326146 169.038947 
L 938.134771 169.038947 
L 938.134771 162.849474 
L 637.326146 162.849474 
z
" clip-path="url(#p17cea353ba)" style="fill: #0000ff"/>
   </g>
   <g id="patch_77">
    <path d="M 637.326146 169.038947 
L 974.231806 169.038947 
L 974.231806 162.849474 
L 637.326146 162.849474 
z
" clip-path="url(#p17cea353ba)" style="fill: #0000ff"/>
   </g>
   <g id="patch_78">
    <path d="M 637.326146 169.038947 
L 930.113208 169.038947 
L 930.113208 162.849474 
L 637.326146 162.849474 
z
" clip-path="url(#p17cea353ba)" style="fill: #0000ff"/>
   </g>
   <g id="patch_79">
    <path d="M 144 153.565263 
L 529.03504 153.565263 
L 529.03504 147.375789 
L 144 147.375789 
z
" clip-path="url(#p17cea353ba)" style="fill: #0000ff"/>
   </g>
   <g id="patch_80">
    <path d="M 144 153.565263 
L 525.024259 153.565263 
L 525.024259 147.375789 
L 144 147.375789 
z
" clip-path="url(#p17cea353ba)" style="fill: #0000ff"/>
   </g>
   <g id="patch_81">
    <path d="M 152.021563 153.565263 
L 352.560647 153.565263 
L 352.560647 147.375789 
L 152.021563 147.375789 
z
" clip-path="url(#p17cea353ba)" style="fill: #0000ff"/>
   </g>
   <g id="patch_82">
    <path d="M 152.021563 153.565263 
L 484.916442 153.565263 
L 484.916442 147.375789 
L 152.021563 147.375789 
z
" clip-path="url(#p17cea353ba)" style="fill: #0000ff"/>
   </g>
   <g id="patch_83">
    <path d="M 152.021563 153.565263 
L 456.84097 153.565263 
L 456.84097 147.375789 
L 152.021563 147.375789 
z
" clip-path="url(#p17cea353ba)" style="fill: #0000ff"/>
   </g>
   <g id="patch_84">
    <path d="M 152.021563 153.565263 
L 452.830189 153.565263 
L 452.830189 147.375789 
L 152.021563 147.375789 
z
" clip-path="url(#p17cea353ba)" style="fill: #0000ff"/>
   </g>
   <g id="patch_85">
    <path d="M 152.021563 153.565263 
L 452.830189 153.565263 
L 452.830189 147.375789 
L 152.021563 147.375789 
z
" clip-path="url(#p17cea353ba)" style="fill: #0000ff"/>
   </g>
   <g id="patch_86">
    <path d="M 152.021563 153.565263 
L 492.938005 153.565263 
L 492.938005 147.375789 
L 152.021563 147.375789 
z
" clip-path="url(#p17cea353ba)" style="fill: #0000ff"/>
   </g>
   <g id="patch_87">
    <path d="M 152.021563 153.565263 
L 488.927224 153.565263 
L 488.927224 147.375789 
L 152.021563 147.375789 
z
" clip-path="url(#p17cea353ba)" style="fill: #0000ff"/>
   </g>
   <g id="patch_88">
    <path d="M 152.021563 153.565263 
L 488.927224 153.565263 
L 488.927224 147.375789 
L 152.021563 147.375789 
z
" clip-path="url(#p17cea353ba)" style="fill: #0000ff"/>
   </g>
   <g id="patch_89">
    <path d="M 152.021563 153.565263 
L 472.884097 153.565263 
L 472.884097 147.375789 
L 152.021563 147.375789 
z
" clip-path="url(#p17cea353ba)" style="fill: #0000ff"/>
   </g>
   <g id="patch_90">
    <path d="M 152.021563 153.565263 
L 452.830189 153.565263 
L 452.830189 147.375789 
L 152.021563 147.375789 
z
" clip-path="url(#p17cea353ba)" style="fill: #0000ff"/>
   </g>
   <g id="patch_91">
    <path d="M 152.021563 153.565263 
L 444.808625 153.565263 
L 444.808625 147.375789 
L 152.021563 147.375789 
z
" clip-path="url(#p17cea353ba)" style="fill: #0000ff"/>
   </g>
   <g id="patch_92">
    <path d="M 144 138.091579 
L 553.09973 138.091579 
L 553.09973 131.902105 
L 144 131.902105 
z
" clip-path="url(#p17cea353ba)" style="fill: #0000ff"/>
   </g>
   <g id="patch_93">
    <path d="M 156.032345 138.091579 
L 496.948787 138.091579 
L 496.948787 131.902105 
L 156.032345 131.902105 
z
" clip-path="url(#p17cea353ba)" style="fill: #0000ff"/>
   </g>
   <g id="patch_94">
    <path d="M 156.032345 138.091579 
L 504.97035 138.091579 
L 504.97035 131.902105 
L 156.032345 131.902105 
z
" clip-path="url(#p17cea353ba)" style="fill: #0000ff"/>
   </g>
   <g id="patch_95">
    <path d="M 156.032345 138.091579 
L 500.959569 138.091579 
L 500.959569 131.902105 
L 156.032345 131.902105 
z
" clip-path="url(#p17cea353ba)" style="fill: #0000ff"/>
   </g>
   <g id="patch_96">
    <path d="M 156.032345 138.091579 
L 529.03504 138.091579 
L 529.03504 131.902105 
L 156.032345 131.902105 
z
" clip-path="url(#p17cea353ba)" style="fill: #0000ff"/>
   </g>
   <g id="patch_97">
    <path d="M 156.032345 138.091579 
L 464.862534 138.091579 
L 464.862534 131.902105 
L 156.032345 131.902105 
z
" clip-path="url(#p17cea353ba)" style="fill: #0000ff"/>
   </g>
   <g id="patch_98">
    <path d="M 156.032345 138.091579 
L 456.84097 138.091579 
L 456.84097 131.902105 
L 156.032345 131.902105 
z
" clip-path="url(#p17cea353ba)" style="fill: #0000ff"/>
   </g>
   <g id="patch_99">
    <path d="M 144 122.617895 
L 865.940701 122.617895 
L 865.940701 116.428421 
L 144 116.428421 
z
" clip-path="url(#p17cea353ba)" style="fill: #0000ff"/>
   </g>
   <g id="patch_100">
    <path d="M 144 122.617895 
L 380.636119 122.617895 
L 380.636119 116.428421 
L 144 116.428421 
z
" clip-path="url(#p17cea353ba)" style="fill: #0000ff"/>
   </g>
   <g id="patch_101">
    <path d="M 144 122.617895 
L 865.940701 122.617895 
L 865.940701 116.428421 
L 144 116.428421 
z
" clip-path="url(#p17cea353ba)" style="fill: #0000ff"/>
   </g>
   <g id="patch_102">
    <path d="M 156.032345 122.617895 
L 384.6469 122.617895 
L 384.6469 116.428421 
L 156.032345 116.428421 
z
" clip-path="url(#p17cea353ba)" style="fill: #0000ff"/>
   </g>
   <g id="patch_103">
    <path d="M 156.032345 122.617895 
L 480.90566 122.617895 
L 480.90566 116.428421 
L 156.032345 116.428421 
z
" clip-path="url(#p17cea353ba)" style="fill: #0000ff"/>
   </g>
   <g id="patch_104">
    <path d="M 156.032345 122.617895 
L 456.84097 122.617895 
L 456.84097 116.428421 
L 156.032345 116.428421 
z
" clip-path="url(#p17cea353ba)" style="fill: #0000ff"/>
   </g>
   <g id="patch_105">
    <path d="M 156.032345 122.617895 
L 444.808625 122.617895 
L 444.808625 116.428421 
L 156.032345 116.428421 
z
" clip-path="url(#p17cea353ba)" style="fill: #0000ff"/>
   </g>
   <g id="patch_106">
    <path d="M 156.032345 122.617895 
L 464.862534 122.617895 
L 464.862534 116.428421 
L 156.032345 116.428421 
z
" clip-path="url(#p17cea353ba)" style="fill: #0000ff"/>
   </g>
   <g id="patch_107">
    <path d="M 156.032345 122.617895 
L 464.862534 122.617895 
L 464.862534 116.428421 
L 156.032345 116.428421 
z
" clip-path="url(#p17cea353ba)" style="fill: #0000ff"/>
   </g>
   <g id="patch_108">
    <path d="M 156.032345 122.617895 
L 464.862534 122.617895 
L 464.862534 116.428421 
L 156.032345 116.428421 
z
" clip-path="url(#p17cea353ba)" style="fill: #0000ff"/>
   </g>
   <g id="patch_109">
    <path d="M 156.032345 122.617895 
L 448.819407 122.617895 
L 448.819407 116.428421 
L 156.032345 116.428421 
z
" clip-path="url(#p17cea353ba)" style="fill: #0000ff"/>
   </g>
   <g id="patch_110">
    <path d="M 156.032345 122.617895 
L 440.797844 122.617895 
L 440.797844 116.428421 
L 156.032345 116.428421 
z
" clip-path="url(#p17cea353ba)" style="fill: #0000ff"/>
   </g>
   <g id="patch_111">
    <path d="M 537.056604 122.617895 
L 785.725067 122.617895 
L 785.725067 116.428421 
L 537.056604 116.428421 
z
" clip-path="url(#p17cea353ba)" style="fill: #0000ff"/>
   </g>
   <g id="patch_112">
    <path d="M 537.056604 122.617895 
L 861.929919 122.617895 
L 861.929919 116.428421 
L 537.056604 116.428421 
z
" clip-path="url(#p17cea353ba)" style="fill: #0000ff"/>
   </g>
   <g id="patch_113">
    <path d="M 537.056604 122.617895 
L 853.908356 122.617895 
L 853.908356 116.428421 
L 537.056604 116.428421 
z
" clip-path="url(#p17cea353ba)" style="fill: #0000ff"/>
   </g>
   <g id="patch_114">
    <path d="M 537.056604 122.617895 
L 837.865229 122.617895 
L 837.865229 116.428421 
L 537.056604 116.428421 
z
" clip-path="url(#p17cea353ba)" style="fill: #0000ff"/>
   </g>
   <g id="patch_115">
    <path d="M 537.056604 122.617895 
L 837.865229 122.617895 
L 837.865229 116.428421 
L 537.056604 116.428421 
z
" clip-path="url(#p17cea353ba)" style="fill: #0000ff"/>
   </g>
   <g id="patch_116">
    <path d="M 537.056604 122.617895 
L 861.929919 122.617895 
L 861.929919 116.428421 
L 537.056604 116.428421 
z
" clip-path="url(#p17cea353ba)" style="fill: #0000ff"/>
   </g>
   <g id="patch_117">
    <path d="M 537.056604 122.617895 
L 777.703504 122.617895 
L 777.703504 116.428421 
L 537.056604 116.428421 
z
" clip-path="url(#p17cea353ba)" style="fill: #0000ff"/>
   </g>
   <g id="patch_118">
    <path d="M 537.056604 122.617895 
L 861.929919 122.617895 
L 861.929919 116.428421 
L 537.056604 116.428421 
z
" clip-path="url(#p17cea353ba)" style="fill: #0000ff"/>
   </g>
   <g id="patch_119">
    <path d="M 537.056604 122.617895 
L 837.865229 122.617895 
L 837.865229 116.428421 
L 537.056604 116.428421 
z
" clip-path="url(#p17cea353ba)" style="fill: #0000ff"/>
   </g>
   <g id="patch_120">
    <path d="M 537.056604 122.617895 
L 801.768194 122.617895 
L 801.768194 116.428421 
L 537.056604 116.428421 
z
" clip-path="url(#p17cea353ba)" style="fill: #0000ff"/>
   </g>
   <g id="patch_121">
    <path d="M 537.056604 122.617895 
L 837.865229 122.617895 
L 837.865229 116.428421 
L 537.056604 116.428421 
z
" clip-path="url(#p17cea353ba)" style="fill: #0000ff"/>
   </g>
   <g id="patch_122">
    <path d="M 869.951482 119.755263 
L 881.983827 119.755263 
L 881.983827 119.291053 
L 869.951482 119.291053 
z
" clip-path="url(#p17cea353ba)" style="fill: #0000ff"/>
   </g>
   <g id="patch_123">
    <path d="M 144 107.144211 
L 488.927224 107.144211 
L 488.927224 100.954737 
L 144 100.954737 
z
" clip-path="url(#p17cea353ba)" style="fill: #0000ff"/>
   </g>
   <g id="patch_124">
    <path d="M 152.021563 107.144211 
L 400.690027 107.144211 
L 400.690027 100.954737 
L 152.021563 100.954737 
z
" clip-path="url(#p17cea353ba)" style="fill: #0000ff"/>
   </g>
   <g id="patch_125">
    <path d="M 156.032345 107.144211 
L 396.679245 107.144211 
L 396.679245 100.954737 
L 156.032345 100.954737 
z
" clip-path="url(#p17cea353ba)" style="fill: #0000ff"/>
   </g>
   <g id="patch_126">
    <path d="M 156.032345 107.144211 
L 484.916442 107.144211 
L 484.916442 100.954737 
L 156.032345 100.954737 
z
" clip-path="url(#p17cea353ba)" style="fill: #0000ff"/>
   </g>
   <g id="patch_127">
    <path d="M 156.032345 107.144211 
L 476.894879 107.144211 
L 476.894879 100.954737 
L 156.032345 100.954737 
z
" clip-path="url(#p17cea353ba)" style="fill: #0000ff"/>
   </g>
   <g id="patch_128">
    <path d="M 156.032345 107.144211 
L 400.690027 107.144211 
L 400.690027 100.954737 
L 156.032345 100.954737 
z
" clip-path="url(#p17cea353ba)" style="fill: #0000ff"/>
   </g>
   <g id="patch_129">
    <path d="M 156.032345 107.144211 
L 444.808625 107.144211 
L 444.808625 100.954737 
L 156.032345 100.954737 
z
" clip-path="url(#p17cea353ba)" style="fill: #0000ff"/>
   </g>
   <g id="patch_130">
    <path d="M 156.032345 107.144211 
L 444.808625 107.144211 
L 444.808625 100.954737 
L 156.032345 100.954737 
z
" clip-path="url(#p17cea353ba)" style="fill: #0000ff"/>
   </g>
   <g id="patch_131">
    <path d="M 492.938005 104.281579 
L 525.024259 104.281579 
L 525.024259 103.817368 
L 492.938005 103.817368 
z
" clip-path="url(#p17cea353ba)" style="fill: #0000ff"/>
   </g>
   <g id="patch_132">
    <path d="M 144 91.670526 
L 396.679245 91.670526 
L 396.679245 85.481053 
L 144 85.481053 
z
" clip-path="url(#p17cea353ba)" style="fill: #0000ff"/>
   </g>
   <g id="patch_133">
    <path d="M 144 91.670526 
L 484.916442 91.670526 
L 484.916442 85.481053 
L 144 85.481053 
z
" clip-path="url(#p17cea353ba)" style="fill: #0000ff"/>
   </g>
   <g id="patch_134">
    <path d="M 152.021563 91.670526 
L 496.948787 91.670526 
L 496.948787 85.481053 
L 152.021563 85.481053 
z
" clip-path="url(#p17cea353ba)" style="fill: #0000ff"/>
   </g>
   <g id="patch_135">
    <path d="M 156.032345 91.670526 
L 400.690027 91.670526 
L 400.690027 85.481053 
L 156.032345 85.481053 
z
" clip-path="url(#p17cea353ba)" style="fill: #0000ff"/>
   </g>
   <g id="patch_136">
    <path d="M 156.032345 91.670526 
L 504.97035 91.670526 
L 504.97035 85.481053 
L 156.032345 85.481053 
z
" clip-path="url(#p17cea353ba)" style="fill: #0000ff"/>
   </g>
   <g id="patch_137">
    <path d="M 156.032345 91.670526 
L 480.90566 91.670526 
L 480.90566 85.481053 
L 156.032345 85.481053 
z
" clip-path="url(#p17cea353ba)" style="fill: #0000ff"/>
   </g>
   <g id="patch_138">
    <path d="M 156.032345 91.670526 
L 529.03504 91.670526 
L 529.03504 85.481053 
L 156.032345 85.481053 
z
" clip-path="url(#p17cea353ba)" style="fill: #0000ff"/>
   </g>
   <g id="patch_139">
    <path d="M 168.06469 91.670526 
L 464.862534 91.670526 
L 464.862534 85.481053 
L 168.06469 85.481053 
z
" clip-path="url(#p17cea353ba)" style="fill: #0000ff"/>
   </g>
   <g id="patch_140">
    <path d="M 172.075472 91.670526 
L 396.679245 91.670526 
L 396.679245 85.481053 
L 172.075472 85.481053 
z
" clip-path="url(#p17cea353ba)" style="fill: #0000ff"/>
   </g>
   <g id="patch_141">
    <path d="M 172.075472 91.670526 
L 480.90566 91.670526 
L 480.90566 85.481053 
L 172.075472 85.481053 
z
" clip-path="url(#p17cea353ba)" style="fill: #0000ff"/>
   </g>
   <g id="patch_142">
    <path d="M 172.075472 91.670526 
L 464.862534 91.670526 
L 464.862534 85.481053 
L 172.075472 85.481053 
z
" clip-path="url(#p17cea353ba)" style="fill: #0000ff"/>
   </g>
   <g id="patch_143">
    <path d="M 172.075472 91.670526 
L 400.690027 91.670526 
L 400.690027 85.481053 
L 172.075472 85.481053 
z
" clip-path="url(#p17cea353ba)" style="fill: #0000ff"/>
   </g>
   <g id="patch_144">
    <path d="M 216.19407 91.670526 
L 408.71159 91.670526 
L 408.71159 85.481053 
L 216.19407 85.481053 
z
" clip-path="url(#p17cea353ba)" style="fill: #0000ff"/>
   </g>
   <g id="patch_145">
    <path d="M 533.045822 88.807895 
L 553.09973 88.807895 
L 553.09973 88.343684 
L 533.045822 88.343684 
z
" clip-path="url(#p17cea353ba)" style="fill: #0000ff"/>
   </g>
   <g id="patch_146">
    <path d="M 144 76.196842 
L 496.948787 76.196842 
L 496.948787 70.007368 
L 144 70.007368 
z
" clip-path="url(#p17cea353ba)" style="fill: #0000ff"/>
   </g>
   <g id="patch_147">
    <path d="M 144 76.196842 
L 581.175202 76.196842 
L 581.175202 70.007368 
L 144 70.007368 
z
" clip-path="url(#p17cea353ba)" style="fill: #0000ff"/>
   </g>
   <g id="patch_148">
    <path d="M 152.021563 76.196842 
L 500.959569 76.196842 
L 500.959569 70.007368 
L 152.021563 70.007368 
z
" clip-path="url(#p17cea353ba)" style="fill: #0000ff"/>
   </g>
   <g id="patch_149">
    <path d="M 156.032345 76.196842 
L 396.679245 76.196842 
L 396.679245 70.007368 
L 156.032345 70.007368 
z
" clip-path="url(#p17cea353ba)" style="fill: #0000ff"/>
   </g>
   <g id="patch_150">
    <path d="M 156.032345 76.196842 
L 496.948787 76.196842 
L 496.948787 70.007368 
L 156.032345 70.007368 
z
" clip-path="url(#p17cea353ba)" style="fill: #0000ff"/>
   </g>
   <g id="patch_151">
    <path d="M 156.032345 76.196842 
L 472.884097 76.196842 
L 472.884097 70.007368 
L 156.032345 70.007368 
z
" clip-path="url(#p17cea353ba)" style="fill: #0000ff"/>
   </g>
   <g id="patch_152">
    <path d="M 156.032345 76.196842 
L 464.862534 76.196842 
L 464.862534 70.007368 
L 156.032345 70.007368 
z
" clip-path="url(#p17cea353ba)" style="fill: #0000ff"/>
   </g>
   <g id="patch_153">
    <path d="M 156.032345 76.196842 
L 464.862534 76.196842 
L 464.862534 70.007368 
L 156.032345 70.007368 
z
" clip-path="url(#p17cea353ba)" style="fill: #0000ff"/>
   </g>
   <g id="patch_154">
    <path d="M 156.032345 76.196842 
L 504.97035 76.196842 
L 504.97035 70.007368 
L 156.032345 70.007368 
z
" clip-path="url(#p17cea353ba)" style="fill: #0000ff"/>
   </g>
   <g id="patch_155">
    <path d="M 156.032345 76.196842 
L 500.959569 76.196842 
L 500.959569 70.007368 
L 156.032345 70.007368 
z
" clip-path="url(#p17cea353ba)" style="fill: #0000ff"/>
   </g>
   <g id="patch_156">
    <path d="M 156.032345 76.196842 
L 512.991914 76.196842 
L 512.991914 70.007368 
L 156.032345 70.007368 
z
" clip-path="url(#p17cea353ba)" style="fill: #0000ff"/>
   </g>
   <g id="patch_157">
    <path d="M 156.032345 76.196842 
L 464.862534 76.196842 
L 464.862534 70.007368 
L 156.032345 70.007368 
z
" clip-path="url(#p17cea353ba)" style="fill: #0000ff"/>
   </g>
   <g id="patch_158">
    <path d="M 156.032345 76.196842 
L 456.84097 76.196842 
L 456.84097 70.007368 
L 156.032345 70.007368 
z
" clip-path="url(#p17cea353ba)" style="fill: #0000ff"/>
   </g>
   <g id="patch_159">
    <path d="M 585.185984 73.334211 
L 585.185984 73.334211 
L 585.185984 72.87 
L 585.185984 72.87 
z
" clip-path="url(#p17cea353ba)" style="fill: #0000ff"/>
   </g>
   <g id="patch_160">
    <path d="M 144 60.723158 
L 549.088949 60.723158 
L 549.088949 54.533684 
L 144 54.533684 
z
" clip-path="url(#p17cea353ba)" style="fill: #0000ff"/>
   </g>
   <g id="patch_161">
    <path d="M 156.032345 60.723158 
L 484.916442 60.723158 
L 484.916442 54.533684 
L 156.032345 54.533684 
z
" clip-path="url(#p17cea353ba)" style="fill: #0000ff"/>
   </g>
   <g id="patch_162">
    <path d="M 156.032345 60.723158 
L 504.97035 60.723158 
L 504.97035 54.533684 
L 156.032345 54.533684 
z
" clip-path="url(#p17cea353ba)" style="fill: #0000ff"/>
   </g>
   <g id="patch_163">
    <path d="M 156.032345 60.723158 
L 500.959569 60.723158 
L 500.959569 54.533684 
L 156.032345 54.533684 
z
" clip-path="url(#p17cea353ba)" style="fill: #0000ff"/>
   </g>
   <g id="patch_164">
    <path d="M 156.032345 60.723158 
L 529.03504 60.723158 
L 529.03504 54.533684 
L 156.032345 54.533684 
z
" clip-path="url(#p17cea353ba)" style="fill: #0000ff"/>
   </g>
   <g id="patch_165">
    <path d="M 156.032345 60.723158 
L 464.862534 60.723158 
L 464.862534 54.533684 
L 156.032345 54.533684 
z
" clip-path="url(#p17cea353ba)" style="fill: #0000ff"/>
   </g>
   <g id="patch_166">
    <path d="M 156.032345 60.723158 
L 456.84097 60.723158 
L 456.84097 54.533684 
L 156.032345 54.533684 
z
" clip-path="url(#p17cea353ba)" style="fill: #0000ff"/>
   </g>
   <g id="patch_167">
    <path d="M 144 42.386842 
L 148.010782 42.386842 
L 148.010782 41.922632 
L 144 41.922632 
z
" clip-path="url(#p17cea353ba)" style="fill: #0000ff"/>
   </g>
   <g id="patch_168">
    <path d="M 152.021563 45.249474 
L 589.196765 45.249474 
L 589.196765 39.06 
L 152.021563 39.06 
z
" clip-path="url(#p17cea353ba)" style="fill: #0000ff"/>
   </g>
   <g id="patch_169">
    <path d="M 160.043127 45.249474 
L 416.733154 45.249474 
L 416.733154 39.06 
L 160.043127 39.06 
z
" clip-path="url(#p17cea353ba)" style="fill: #0000ff"/>
   </g>
   <g id="patch_170">
    <path d="M 164.053908 45.249474 
L 404.700809 45.249474 
L 404.700809 39.06 
L 164.053908 39.06 
z
" clip-path="url(#p17cea353ba)" style="fill: #0000ff"/>
   </g>
   <g id="patch_171">
    <path d="M 164.053908 45.249474 
L 504.97035 45.249474 
L 504.97035 39.06 
L 164.053908 39.06 
z
" clip-path="url(#p17cea353ba)" style="fill: #0000ff"/>
   </g>
   <g id="patch_172">
    <path d="M 164.053908 45.249474 
L 472.884097 45.249474 
L 472.884097 39.06 
L 164.053908 39.06 
z
" clip-path="url(#p17cea353ba)" style="fill: #0000ff"/>
   </g>
   <g id="patch_173">
    <path d="M 164.053908 45.249474 
L 512.991914 45.249474 
L 512.991914 39.06 
L 164.053908 39.06 
z
" clip-path="url(#p17cea353ba)" style="fill: #0000ff"/>
   </g>
   <g id="patch_174">
    <path d="M 164.053908 45.249474 
L 508.981132 45.249474 
L 508.981132 39.06 
L 164.053908 39.06 
z
" clip-path="url(#p17cea353ba)" style="fill: #0000ff"/>
   </g>
   <g id="patch_175">
    <path d="M 164.053908 45.249474 
L 508.981132 45.249474 
L 508.981132 39.06 
L 164.053908 39.06 
z
" clip-path="url(#p17cea353ba)" style="fill: #0000ff"/>
   </g>
   <g id="patch_176">
    <path d="M 164.053908 45.249474 
L 521.013477 45.249474 
L 521.013477 39.06 
L 164.053908 39.06 
z
" clip-path="url(#p17cea353ba)" style="fill: #0000ff"/>
   </g>
   <g id="patch_177">
    <path d="M 164.053908 45.249474 
L 472.884097 45.249474 
L 472.884097 39.06 
L 164.053908 39.06 
z
" clip-path="url(#p17cea353ba)" style="fill: #0000ff"/>
   </g>
   <g id="patch_178">
    <path d="M 164.053908 45.249474 
L 464.862534 45.249474 
L 464.862534 39.06 
L 164.053908 39.06 
z
" clip-path="url(#p17cea353ba)" style="fill: #0000ff"/>
   </g>
   <g id="patch_179">
    <path d="M 208.172507 45.249474 
L 480.90566 45.249474 
L 480.90566 39.06 
L 208.172507 39.06 
z
" clip-path="url(#p17cea353ba)" style="fill: #0000ff"/>
   </g>
   <g id="matplotlib.axis_1">
    <g id="xtick_1">
     <g id="line2d_1">
      <defs>
       <path id="m36a0455921" d="M 0 0 
L 0 3.5 
" style="stroke: #000000; stroke-width: 0.8"/>
      </defs>
      <g>
       <use xlink:href="#m36a0455921" x="240.25876" y="224.28" style="stroke: #000000; stroke-width: 0.8"/>
      </g>
     </g>
     <g id="text_1">
      <!-- 25 -->
      <g transform="translate(233.89626 238.878438) scale(0.1 -0.1)">
       <defs>
        <path id="DejaVuSans-32" d="M 1228 531 
L 3431 531 
L 3431 0 
L 469 0 
L 469 531 
Q 828 903 1448 1529 
Q 2069 2156 2228 2338 
Q 2531 2678 2651 2914 
Q 2772 3150 2772 3378 
Q 2772 3750 2511 3984 
Q 2250 4219 1831 4219 
Q 1534 4219 1204 4116 
Q 875 4013 500 3803 
L 500 4441 
Q 881 4594 1212 4672 
Q 1544 4750 1819 4750 
Q 2544 4750 2975 4387 
Q 3406 4025 3406 3419 
Q 3406 3131 3298 2873 
Q 3191 2616 2906 2266 
Q 2828 2175 2409 1742 
Q 1991 1309 1228 531 
z
" transform="scale(0.015625)"/>
        <path id="DejaVuSans-35" d="M 691 4666 
L 3169 4666 
L 3169 4134 
L 1269 4134 
L 1269 2991 
Q 1406 3038 1543 3061 
Q 1681 3084 1819 3084 
Q 2600 3084 3056 2656 
Q 3513 2228 3513 1497 
Q 3513 744 3044 326 
Q 2575 -91 1722 -91 
Q 1428 -91 1123 -41 
Q 819 9 494 109 
L 494 744 
Q 775 591 1075 516 
Q 1375 441 1709 441 
Q 2250 441 2565 725 
Q 2881 1009 2881 1497 
Q 2881 1984 2565 2268 
Q 2250 2553 1709 2553 
Q 1456 2553 1204 2497 
Q 953 2441 691 2322 
L 691 4666 
z
" transform="scale(0.015625)"/>
       </defs>
       <use xlink:href="#DejaVuSans-32"/>
       <use xlink:href="#DejaVuSans-35" x="63.623047"/>
      </g>
     </g>
    </g>
    <g id="xtick_2">
     <g id="line2d_2">
      <g>
       <use xlink:href="#m36a0455921" x="340.528302" y="224.28" style="stroke: #000000; stroke-width: 0.8"/>
      </g>
     </g>
     <g id="text_2">
      <!-- 50 -->
      <g transform="translate(334.165802 238.878438) scale(0.1 -0.1)">
       <defs>
        <path id="DejaVuSans-30" d="M 2034 4250 
Q 1547 4250 1301 3770 
Q 1056 3291 1056 2328 
Q 1056 1369 1301 889 
Q 1547 409 2034 409 
Q 2525 409 2770 889 
Q 3016 1369 3016 2328 
Q 3016 3291 2770 3770 
Q 2525 4250 2034 4250 
z
M 2034 4750 
Q 2819 4750 3233 4129 
Q 3647 3509 3647 2328 
Q 3647 1150 3233 529 
Q 2819 -91 2034 -91 
Q 1250 -91 836 529 
Q 422 1150 422 2328 
Q 422 3509 836 4129 
Q 1250 4750 2034 4750 
z
" transform="scale(0.015625)"/>
       </defs>
       <use xlink:href="#DejaVuSans-35"/>
       <use xlink:href="#DejaVuSans-30" x="63.623047"/>
      </g>
     </g>
    </g>
    <g id="xtick_3">
     <g id="line2d_3">
      <g>
       <use xlink:href="#m36a0455921" x="440.797844" y="224.28" style="stroke: #000000; stroke-width: 0.8"/>
      </g>
     </g>
     <g id="text_3">
      <!-- 75 -->
      <g transform="translate(434.435344 238.878438) scale(0.1 -0.1)">
       <defs>
        <path id="DejaVuSans-37" d="M 525 4666 
L 3525 4666 
L 3525 4397 
L 1831 0 
L 1172 0 
L 2766 4134 
L 525 4134 
L 525 4666 
z
" transform="scale(0.015625)"/>
       </defs>
       <use xlink:href="#DejaVuSans-37"/>
       <use xlink:href="#DejaVuSans-35" x="63.623047"/>
      </g>
     </g>
    </g>
    <g id="xtick_4">
     <g id="line2d_4">
      <g>
       <use xlink:href="#m36a0455921" x="541.067385" y="224.28" style="stroke: #000000; stroke-width: 0.8"/>
      </g>
     </g>
     <g id="text_4">
      <!-- 100 -->
      <g transform="translate(531.523635 238.878438) scale(0.1 -0.1)">
       <defs>
        <path id="DejaVuSans-31" d="M 794 531 
L 1825 531 
L 1825 4091 
L 703 3866 
L 703 4441 
L 1819 4666 
L 2450 4666 
L 2450 531 
L 3481 531 
L 3481 0 
L 794 0 
L 794 531 
z
" transform="scale(0.015625)"/>
       </defs>
       <use xlink:href="#DejaVuSans-31"/>
       <use xlink:href="#DejaVuSans-30" x="63.623047"/>
       <use xlink:href="#DejaVuSans-30" x="127.246094"/>
      </g>
     </g>
    </g>
    <g id="xtick_5">
     <g id="line2d_5">
      <g>
       <use xlink:href="#m36a0455921" x="641.336927" y="224.28" style="stroke: #000000; stroke-width: 0.8"/>
      </g>
     </g>
     <g id="text_5">
      <!-- 125 -->
      <g transform="translate(631.793177 238.878438) scale(0.1 -0.1)">
       <use xlink:href="#DejaVuSans-31"/>
       <use xlink:href="#DejaVuSans-32" x="63.623047"/>
       <use xlink:href="#DejaVuSans-35" x="127.246094"/>
      </g>
     </g>
    </g>
    <g id="xtick_6">
     <g id="line2d_6">
      <g>
       <use xlink:href="#m36a0455921" x="741.606469" y="224.28" style="stroke: #000000; stroke-width: 0.8"/>
      </g>
     </g>
     <g id="text_6">
      <!-- 150 -->
      <g transform="translate(732.062719 238.878438) scale(0.1 -0.1)">
       <use xlink:href="#DejaVuSans-31"/>
       <use xlink:href="#DejaVuSans-35" x="63.623047"/>
       <use xlink:href="#DejaVuSans-30" x="127.246094"/>
      </g>
     </g>
    </g>
    <g id="xtick_7">
     <g id="line2d_7">
      <g>
       <use xlink:href="#m36a0455921" x="841.876011" y="224.28" style="stroke: #000000; stroke-width: 0.8"/>
      </g>
     </g>
     <g id="text_7">
      <!-- 175 -->
      <g transform="translate(832.332261 238.878438) scale(0.1 -0.1)">
       <use xlink:href="#DejaVuSans-31"/>
       <use xlink:href="#DejaVuSans-37" x="63.623047"/>
       <use xlink:href="#DejaVuSans-35" x="127.246094"/>
      </g>
     </g>
    </g>
    <g id="xtick_8">
     <g id="line2d_8">
      <g>
       <use xlink:href="#m36a0455921" x="942.145553" y="224.28" style="stroke: #000000; stroke-width: 0.8"/>
      </g>
     </g>
     <g id="text_8">
      <!-- 200 -->
      <g transform="translate(932.601803 238.878438) scale(0.1 -0.1)">
       <use xlink:href="#DejaVuSans-32"/>
       <use xlink:href="#DejaVuSans-30" x="63.623047"/>
       <use xlink:href="#DejaVuSans-30" x="127.246094"/>
      </g>
     </g>
    </g>
    <g id="text_9">
     <!-- Residual -->
     <g transform="translate(569.284375 252.556563) scale(0.1 -0.1)">
      <defs>
       <path id="DejaVuSans-52" d="M 2841 2188 
Q 3044 2119 3236 1894 
Q 3428 1669 3622 1275 
L 4263 0 
L 3584 0 
L 2988 1197 
Q 2756 1666 2539 1819 
Q 2322 1972 1947 1972 
L 1259 1972 
L 1259 0 
L 628 0 
L 628 4666 
L 2053 4666 
Q 2853 4666 3247 4331 
Q 3641 3997 3641 3322 
Q 3641 2881 3436 2590 
Q 3231 2300 2841 2188 
z
M 1259 4147 
L 1259 2491 
L 2053 2491 
Q 2509 2491 2742 2702 
Q 2975 2913 2975 3322 
Q 2975 3731 2742 3939 
Q 2509 4147 2053 4147 
L 1259 4147 
z
" transform="scale(0.015625)"/>
       <path id="DejaVuSans-65" d="M 3597 1894 
L 3597 1613 
L 953 1613 
Q 991 1019 1311 708 
Q 1631 397 2203 397 
Q 2534 397 2845 478 
Q 3156 559 3463 722 
L 3463 178 
Q 3153 47 2828 -22 
Q 2503 -91 2169 -91 
Q 1331 -91 842 396 
Q 353 884 353 1716 
Q 353 2575 817 3079 
Q 1281 3584 2069 3584 
Q 2775 3584 3186 3129 
Q 3597 2675 3597 1894 
z
M 3022 2063 
Q 3016 2534 2758 2815 
Q 2500 3097 2075 3097 
Q 1594 3097 1305 2825 
Q 1016 2553 972 2059 
L 3022 2063 
z
" transform="scale(0.015625)"/>
       <path id="DejaVuSans-73" d="M 2834 3397 
L 2834 2853 
Q 2591 2978 2328 3040 
Q 2066 3103 1784 3103 
Q 1356 3103 1142 2972 
Q 928 2841 928 2578 
Q 928 2378 1081 2264 
Q 1234 2150 1697 2047 
L 1894 2003 
Q 2506 1872 2764 1633 
Q 3022 1394 3022 966 
Q 3022 478 2636 193 
Q 2250 -91 1575 -91 
Q 1294 -91 989 -36 
Q 684 19 347 128 
L 347 722 
Q 666 556 975 473 
Q 1284 391 1588 391 
Q 1994 391 2212 530 
Q 2431 669 2431 922 
Q 2431 1156 2273 1281 
Q 2116 1406 1581 1522 
L 1381 1569 
Q 847 1681 609 1914 
Q 372 2147 372 2553 
Q 372 3047 722 3315 
Q 1072 3584 1716 3584 
Q 2034 3584 2315 3537 
Q 2597 3491 2834 3397 
z
" transform="scale(0.015625)"/>
       <path id="DejaVuSans-69" d="M 603 3500 
L 1178 3500 
L 1178 0 
L 603 0 
L 603 3500 
z
M 603 4863 
L 1178 4863 
L 1178 4134 
L 603 4134 
L 603 4863 
z
" transform="scale(0.015625)"/>
       <path id="DejaVuSans-64" d="M 2906 2969 
L 2906 4863 
L 3481 4863 
L 3481 0 
L 2906 0 
L 2906 525 
Q 2725 213 2448 61 
Q 2172 -91 1784 -91 
Q 1150 -91 751 415 
Q 353 922 353 1747 
Q 353 2572 751 3078 
Q 1150 3584 1784 3584 
Q 2172 3584 2448 3432 
Q 2725 3281 2906 2969 
z
M 947 1747 
Q 947 1113 1208 752 
Q 1469 391 1925 391 
Q 2381 391 2643 752 
Q 2906 1113 2906 1747 
Q 2906 2381 2643 2742 
Q 2381 3103 1925 3103 
Q 1469 3103 1208 2742 
Q 947 2381 947 1747 
z
" transform="scale(0.015625)"/>
       <path id="DejaVuSans-75" d="M 544 1381 
L 544 3500 
L 1119 3500 
L 1119 1403 
Q 1119 906 1312 657 
Q 1506 409 1894 409 
Q 2359 409 2629 706 
Q 2900 1003 2900 1516 
L 2900 3500 
L 3475 3500 
L 3475 0 
L 2900 0 
L 2900 538 
Q 2691 219 2414 64 
Q 2138 -91 1772 -91 
Q 1169 -91 856 284 
Q 544 659 544 1381 
z
M 1991 3584 
L 1991 3584 
z
" transform="scale(0.015625)"/>
       <path id="DejaVuSans-61" d="M 2194 1759 
Q 1497 1759 1228 1600 
Q 959 1441 959 1056 
Q 959 750 1161 570 
Q 1363 391 1709 391 
Q 2188 391 2477 730 
Q 2766 1069 2766 1631 
L 2766 1759 
L 2194 1759 
z
M 3341 1997 
L 3341 0 
L 2766 0 
L 2766 531 
Q 2569 213 2275 61 
Q 1981 -91 1556 -91 
Q 1019 -91 701 211 
Q 384 513 384 1019 
Q 384 1609 779 1909 
Q 1175 2209 1959 2209 
L 2766 2209 
L 2766 2266 
Q 2766 2663 2505 2880 
Q 2244 3097 1772 3097 
Q 1472 3097 1187 3025 
Q 903 2953 641 2809 
L 641 3341 
Q 956 3463 1253 3523 
Q 1550 3584 1831 3584 
Q 2591 3584 2966 3190 
Q 3341 2797 3341 1997 
z
" transform="scale(0.015625)"/>
       <path id="DejaVuSans-6c" d="M 603 4863 
L 1178 4863 
L 1178 0 
L 603 0 
L 603 4863 
z
" transform="scale(0.015625)"/>
      </defs>
      <use xlink:href="#DejaVuSans-52"/>
      <use xlink:href="#DejaVuSans-65" x="64.982422"/>
      <use xlink:href="#DejaVuSans-73" x="126.505859"/>
      <use xlink:href="#DejaVuSans-69" x="178.605469"/>
      <use xlink:href="#DejaVuSans-64" x="206.388672"/>
      <use xlink:href="#DejaVuSans-75" x="269.865234"/>
      <use xlink:href="#DejaVuSans-61" x="333.244141"/>
      <use xlink:href="#DejaVuSans-6c" x="394.523438"/>
     </g>
    </g>
   </g>
   <g id="matplotlib.axis_2">
    <g id="ytick_1">
     <g id="line2d_9">
      <defs>
       <path id="mb25229bb77" d="M 0 0 
L -3.5 0 
" style="stroke: #000000; stroke-width: 0.8"/>
      </defs>
      <g>
       <use xlink:href="#mb25229bb77" x="144" y="212.365263" style="stroke: #000000; stroke-width: 0.8"/>
      </g>
     </g>
     <g id="text_10">
      <!-- 1.S.1.1.1 -->
      <g transform="translate(92.489062 216.164482) scale(0.1 -0.1)">
       <defs>
        <path id="DejaVuSans-2e" d="M 684 794 
L 1344 794 
L 1344 0 
L 684 0 
L 684 794 
z
" transform="scale(0.015625)"/>
        <path id="DejaVuSans-53" d="M 3425 4513 
L 3425 3897 
Q 3066 4069 2747 4153 
Q 2428 4238 2131 4238 
Q 1616 4238 1336 4038 
Q 1056 3838 1056 3469 
Q 1056 3159 1242 3001 
Q 1428 2844 1947 2747 
L 2328 2669 
Q 3034 2534 3370 2195 
Q 3706 1856 3706 1288 
Q 3706 609 3251 259 
Q 2797 -91 1919 -91 
Q 1588 -91 1214 -16 
Q 841 59 441 206 
L 441 856 
Q 825 641 1194 531 
Q 1563 422 1919 422 
Q 2459 422 2753 634 
Q 3047 847 3047 1241 
Q 3047 1584 2836 1778 
Q 2625 1972 2144 2069 
L 1759 2144 
Q 1053 2284 737 2584 
Q 422 2884 422 3419 
Q 422 4038 858 4394 
Q 1294 4750 2059 4750 
Q 2388 4750 2728 4690 
Q 3069 4631 3425 4513 
z
" transform="scale(0.015625)"/>
       </defs>
       <use xlink:href="#DejaVuSans-31"/>
       <use xlink:href="#DejaVuSans-2e" x="63.623047"/>
       <use xlink:href="#DejaVuSans-53" x="95.410156"/>
       <use xlink:href="#DejaVuSans-2e" x="158.886719"/>
       <use xlink:href="#DejaVuSans-31" x="190.673828"/>
       <use xlink:href="#DejaVuSans-2e" x="254.296875"/>
       <use xlink:href="#DejaVuSans-31" x="286.083984"/>
       <use xlink:href="#DejaVuSans-2e" x="349.707031"/>
       <use xlink:href="#DejaVuSans-31" x="381.494141"/>
      </g>
     </g>
    </g>
    <g id="ytick_2">
     <g id="line2d_10">
      <g>
       <use xlink:href="#mb25229bb77" x="144" y="196.891579" style="stroke: #000000; stroke-width: 0.8"/>
      </g>
     </g>
     <g id="text_11">
      <!-- 1.S.1.1.11 -->
      <g transform="translate(86.126563 200.690798) scale(0.1 -0.1)">
       <use xlink:href="#DejaVuSans-31"/>
       <use xlink:href="#DejaVuSans-2e" x="63.623047"/>
       <use xlink:href="#DejaVuSans-53" x="95.410156"/>
       <use xlink:href="#DejaVuSans-2e" x="158.886719"/>
       <use xlink:href="#DejaVuSans-31" x="190.673828"/>
       <use xlink:href="#DejaVuSans-2e" x="254.296875"/>
       <use xlink:href="#DejaVuSans-31" x="286.083984"/>
       <use xlink:href="#DejaVuSans-2e" x="349.707031"/>
       <use xlink:href="#DejaVuSans-31" x="381.494141"/>
       <use xlink:href="#DejaVuSans-31" x="445.117188"/>
      </g>
     </g>
    </g>
    <g id="ytick_3">
     <g id="line2d_11">
      <g>
       <use xlink:href="#mb25229bb77" x="144" y="181.417895" style="stroke: #000000; stroke-width: 0.8"/>
      </g>
     </g>
     <g id="text_12">
      <!-- 1.S.1.1.13 -->
      <g transform="translate(86.126563 185.217113) scale(0.1 -0.1)">
       <defs>
        <path id="DejaVuSans-33" d="M 2597 2516 
Q 3050 2419 3304 2112 
Q 3559 1806 3559 1356 
Q 3559 666 3084 287 
Q 2609 -91 1734 -91 
Q 1441 -91 1130 -33 
Q 819 25 488 141 
L 488 750 
Q 750 597 1062 519 
Q 1375 441 1716 441 
Q 2309 441 2620 675 
Q 2931 909 2931 1356 
Q 2931 1769 2642 2001 
Q 2353 2234 1838 2234 
L 1294 2234 
L 1294 2753 
L 1863 2753 
Q 2328 2753 2575 2939 
Q 2822 3125 2822 3475 
Q 2822 3834 2567 4026 
Q 2313 4219 1838 4219 
Q 1578 4219 1281 4162 
Q 984 4106 628 3988 
L 628 4550 
Q 988 4650 1302 4700 
Q 1616 4750 1894 4750 
Q 2613 4750 3031 4423 
Q 3450 4097 3450 3541 
Q 3450 3153 3228 2886 
Q 3006 2619 2597 2516 
z
" transform="scale(0.015625)"/>
       </defs>
       <use xlink:href="#DejaVuSans-31"/>
       <use xlink:href="#DejaVuSans-2e" x="63.623047"/>
       <use xlink:href="#DejaVuSans-53" x="95.410156"/>
       <use xlink:href="#DejaVuSans-2e" x="158.886719"/>
       <use xlink:href="#DejaVuSans-31" x="190.673828"/>
       <use xlink:href="#DejaVuSans-2e" x="254.296875"/>
       <use xlink:href="#DejaVuSans-31" x="286.083984"/>
       <use xlink:href="#DejaVuSans-2e" x="349.707031"/>
       <use xlink:href="#DejaVuSans-31" x="381.494141"/>
       <use xlink:href="#DejaVuSans-33" x="445.117188"/>
      </g>
     </g>
    </g>
    <g id="ytick_4">
     <g id="line2d_12">
      <g>
       <use xlink:href="#mb25229bb77" x="144" y="165.944211" style="stroke: #000000; stroke-width: 0.8"/>
      </g>
     </g>
     <g id="text_13">
      <!-- 1.S.1.1.14 -->
      <g transform="translate(86.126563 169.743429) scale(0.1 -0.1)">
       <defs>
        <path id="DejaVuSans-34" d="M 2419 4116 
L 825 1625 
L 2419 1625 
L 2419 4116 
z
M 2253 4666 
L 3047 4666 
L 3047 1625 
L 3713 1625 
L 3713 1100 
L 3047 1100 
L 3047 0 
L 2419 0 
L 2419 1100 
L 313 1100 
L 313 1709 
L 2253 4666 
z
" transform="scale(0.015625)"/>
       </defs>
       <use xlink:href="#DejaVuSans-31"/>
       <use xlink:href="#DejaVuSans-2e" x="63.623047"/>
       <use xlink:href="#DejaVuSans-53" x="95.410156"/>
       <use xlink:href="#DejaVuSans-2e" x="158.886719"/>
       <use xlink:href="#DejaVuSans-31" x="190.673828"/>
       <use xlink:href="#DejaVuSans-2e" x="254.296875"/>
       <use xlink:href="#DejaVuSans-31" x="286.083984"/>
       <use xlink:href="#DejaVuSans-2e" x="349.707031"/>
       <use xlink:href="#DejaVuSans-31" x="381.494141"/>
       <use xlink:href="#DejaVuSans-34" x="445.117188"/>
      </g>
     </g>
    </g>
    <g id="ytick_5">
     <g id="line2d_13">
      <g>
       <use xlink:href="#mb25229bb77" x="144" y="150.470526" style="stroke: #000000; stroke-width: 0.8"/>
      </g>
     </g>
     <g id="text_14">
      <!-- 1.S.1.1.2 -->
      <g transform="translate(92.489062 154.269745) scale(0.1 -0.1)">
       <use xlink:href="#DejaVuSans-31"/>
       <use xlink:href="#DejaVuSans-2e" x="63.623047"/>
       <use xlink:href="#DejaVuSans-53" x="95.410156"/>
       <use xlink:href="#DejaVuSans-2e" x="158.886719"/>
       <use xlink:href="#DejaVuSans-31" x="190.673828"/>
       <use xlink:href="#DejaVuSans-2e" x="254.296875"/>
       <use xlink:href="#DejaVuSans-31" x="286.083984"/>
       <use xlink:href="#DejaVuSans-2e" x="349.707031"/>
       <use xlink:href="#DejaVuSans-32" x="381.494141"/>
      </g>
     </g>
    </g>
    <g id="ytick_6">
     <g id="line2d_14">
      <g>
       <use xlink:href="#mb25229bb77" x="144" y="134.996842" style="stroke: #000000; stroke-width: 0.8"/>
      </g>
     </g>
     <g id="text_15">
      <!-- 1.S.1.1.3 -->
      <g transform="translate(92.489062 138.796061) scale(0.1 -0.1)">
       <use xlink:href="#DejaVuSans-31"/>
       <use xlink:href="#DejaVuSans-2e" x="63.623047"/>
       <use xlink:href="#DejaVuSans-53" x="95.410156"/>
       <use xlink:href="#DejaVuSans-2e" x="158.886719"/>
       <use xlink:href="#DejaVuSans-31" x="190.673828"/>
       <use xlink:href="#DejaVuSans-2e" x="254.296875"/>
       <use xlink:href="#DejaVuSans-31" x="286.083984"/>
       <use xlink:href="#DejaVuSans-2e" x="349.707031"/>
       <use xlink:href="#DejaVuSans-33" x="381.494141"/>
      </g>
     </g>
    </g>
    <g id="ytick_7">
     <g id="line2d_15">
      <g>
       <use xlink:href="#mb25229bb77" x="144" y="119.523158" style="stroke: #000000; stroke-width: 0.8"/>
      </g>
     </g>
     <g id="text_16">
      <!-- 1.S.1.1.4 -->
      <g transform="translate(92.489062 123.322377) scale(0.1 -0.1)">
       <use xlink:href="#DejaVuSans-31"/>
       <use xlink:href="#DejaVuSans-2e" x="63.623047"/>
       <use xlink:href="#DejaVuSans-53" x="95.410156"/>
       <use xlink:href="#DejaVuSans-2e" x="158.886719"/>
       <use xlink:href="#DejaVuSans-31" x="190.673828"/>
       <use xlink:href="#DejaVuSans-2e" x="254.296875"/>
       <use xlink:href="#DejaVuSans-31" x="286.083984"/>
       <use xlink:href="#DejaVuSans-2e" x="349.707031"/>
       <use xlink:href="#DejaVuSans-34" x="381.494141"/>
      </g>
     </g>
    </g>
    <g id="ytick_8">
     <g id="line2d_16">
      <g>
       <use xlink:href="#mb25229bb77" x="144" y="104.049474" style="stroke: #000000; stroke-width: 0.8"/>
      </g>
     </g>
     <g id="text_17">
      <!-- 1.S.1.1.5 -->
      <g transform="translate(92.489062 107.848692) scale(0.1 -0.1)">
       <use xlink:href="#DejaVuSans-31"/>
       <use xlink:href="#DejaVuSans-2e" x="63.623047"/>
       <use xlink:href="#DejaVuSans-53" x="95.410156"/>
       <use xlink:href="#DejaVuSans-2e" x="158.886719"/>
       <use xlink:href="#DejaVuSans-31" x="190.673828"/>
       <use xlink:href="#DejaVuSans-2e" x="254.296875"/>
       <use xlink:href="#DejaVuSans-31" x="286.083984"/>
       <use xlink:href="#DejaVuSans-2e" x="349.707031"/>
       <use xlink:href="#DejaVuSans-35" x="381.494141"/>
      </g>
     </g>
    </g>
    <g id="ytick_9">
     <g id="line2d_17">
      <g>
       <use xlink:href="#mb25229bb77" x="144" y="88.575789" style="stroke: #000000; stroke-width: 0.8"/>
      </g>
     </g>
     <g id="text_18">
      <!-- 1.S.1.1.6 -->
      <g transform="translate(92.489062 92.375008) scale(0.1 -0.1)">
       <defs>
        <path id="DejaVuSans-36" d="M 2113 2584 
Q 1688 2584 1439 2293 
Q 1191 2003 1191 1497 
Q 1191 994 1439 701 
Q 1688 409 2113 409 
Q 2538 409 2786 701 
Q 3034 994 3034 1497 
Q 3034 2003 2786 2293 
Q 2538 2584 2113 2584 
z
M 3366 4563 
L 3366 3988 
Q 3128 4100 2886 4159 
Q 2644 4219 2406 4219 
Q 1781 4219 1451 3797 
Q 1122 3375 1075 2522 
Q 1259 2794 1537 2939 
Q 1816 3084 2150 3084 
Q 2853 3084 3261 2657 
Q 3669 2231 3669 1497 
Q 3669 778 3244 343 
Q 2819 -91 2113 -91 
Q 1303 -91 875 529 
Q 447 1150 447 2328 
Q 447 3434 972 4092 
Q 1497 4750 2381 4750 
Q 2619 4750 2861 4703 
Q 3103 4656 3366 4563 
z
" transform="scale(0.015625)"/>
       </defs>
       <use xlink:href="#DejaVuSans-31"/>
       <use xlink:href="#DejaVuSans-2e" x="63.623047"/>
       <use xlink:href="#DejaVuSans-53" x="95.410156"/>
       <use xlink:href="#DejaVuSans-2e" x="158.886719"/>
       <use xlink:href="#DejaVuSans-31" x="190.673828"/>
       <use xlink:href="#DejaVuSans-2e" x="254.296875"/>
       <use xlink:href="#DejaVuSans-31" x="286.083984"/>
       <use xlink:href="#DejaVuSans-2e" x="349.707031"/>
       <use xlink:href="#DejaVuSans-36" x="381.494141"/>
      </g>
     </g>
    </g>
    <g id="ytick_10">
     <g id="line2d_18">
      <g>
       <use xlink:href="#mb25229bb77" x="144" y="73.102105" style="stroke: #000000; stroke-width: 0.8"/>
      </g>
     </g>
     <g id="text_19">
      <!-- 1.S.1.1.7 -->
      <g transform="translate(92.489062 76.901324) scale(0.1 -0.1)">
       <use xlink:href="#DejaVuSans-31"/>
       <use xlink:href="#DejaVuSans-2e" x="63.623047"/>
       <use xlink:href="#DejaVuSans-53" x="95.410156"/>
       <use xlink:href="#DejaVuSans-2e" x="158.886719"/>
       <use xlink:href="#DejaVuSans-31" x="190.673828"/>
       <use xlink:href="#DejaVuSans-2e" x="254.296875"/>
       <use xlink:href="#DejaVuSans-31" x="286.083984"/>
       <use xlink:href="#DejaVuSans-2e" x="349.707031"/>
       <use xlink:href="#DejaVuSans-37" x="381.494141"/>
      </g>
     </g>
    </g>
    <g id="ytick_11">
     <g id="line2d_19">
      <g>
       <use xlink:href="#mb25229bb77" x="144" y="57.628421" style="stroke: #000000; stroke-width: 0.8"/>
      </g>
     </g>
     <g id="text_20">
      <!-- 1.S.1.1.8 -->
      <g transform="translate(92.489062 61.42764) scale(0.1 -0.1)">
       <defs>
        <path id="DejaVuSans-38" d="M 2034 2216 
Q 1584 2216 1326 1975 
Q 1069 1734 1069 1313 
Q 1069 891 1326 650 
Q 1584 409 2034 409 
Q 2484 409 2743 651 
Q 3003 894 3003 1313 
Q 3003 1734 2745 1975 
Q 2488 2216 2034 2216 
z
M 1403 2484 
Q 997 2584 770 2862 
Q 544 3141 544 3541 
Q 544 4100 942 4425 
Q 1341 4750 2034 4750 
Q 2731 4750 3128 4425 
Q 3525 4100 3525 3541 
Q 3525 3141 3298 2862 
Q 3072 2584 2669 2484 
Q 3125 2378 3379 2068 
Q 3634 1759 3634 1313 
Q 3634 634 3220 271 
Q 2806 -91 2034 -91 
Q 1263 -91 848 271 
Q 434 634 434 1313 
Q 434 1759 690 2068 
Q 947 2378 1403 2484 
z
M 1172 3481 
Q 1172 3119 1398 2916 
Q 1625 2713 2034 2713 
Q 2441 2713 2670 2916 
Q 2900 3119 2900 3481 
Q 2900 3844 2670 4047 
Q 2441 4250 2034 4250 
Q 1625 4250 1398 4047 
Q 1172 3844 1172 3481 
z
" transform="scale(0.015625)"/>
       </defs>
       <use xlink:href="#DejaVuSans-31"/>
       <use xlink:href="#DejaVuSans-2e" x="63.623047"/>
       <use xlink:href="#DejaVuSans-53" x="95.410156"/>
       <use xlink:href="#DejaVuSans-2e" x="158.886719"/>
       <use xlink:href="#DejaVuSans-31" x="190.673828"/>
       <use xlink:href="#DejaVuSans-2e" x="254.296875"/>
       <use xlink:href="#DejaVuSans-31" x="286.083984"/>
       <use xlink:href="#DejaVuSans-2e" x="349.707031"/>
       <use xlink:href="#DejaVuSans-38" x="381.494141"/>
      </g>
     </g>
    </g>
    <g id="ytick_12">
     <g id="line2d_20">
      <g>
       <use xlink:href="#mb25229bb77" x="144" y="42.154737" style="stroke: #000000; stroke-width: 0.8"/>
      </g>
     </g>
     <g id="text_21">
      <!-- 1.S.1.1.9 -->
      <g transform="translate(92.489062 45.953956) scale(0.1 -0.1)">
       <defs>
        <path id="DejaVuSans-39" d="M 703 97 
L 703 672 
Q 941 559 1184 500 
Q 1428 441 1663 441 
Q 2288 441 2617 861 
Q 2947 1281 2994 2138 
Q 2813 1869 2534 1725 
Q 2256 1581 1919 1581 
Q 1219 1581 811 2004 
Q 403 2428 403 3163 
Q 403 3881 828 4315 
Q 1253 4750 1959 4750 
Q 2769 4750 3195 4129 
Q 3622 3509 3622 2328 
Q 3622 1225 3098 567 
Q 2575 -91 1691 -91 
Q 1453 -91 1209 -44 
Q 966 3 703 97 
z
M 1959 2075 
Q 2384 2075 2632 2365 
Q 2881 2656 2881 3163 
Q 2881 3666 2632 3958 
Q 2384 4250 1959 4250 
Q 1534 4250 1286 3958 
Q 1038 3666 1038 3163 
Q 1038 2656 1286 2365 
Q 1534 2075 1959 2075 
z
" transform="scale(0.015625)"/>
       </defs>
       <use xlink:href="#DejaVuSans-31"/>
       <use xlink:href="#DejaVuSans-2e" x="63.623047"/>
       <use xlink:href="#DejaVuSans-53" x="95.410156"/>
       <use xlink:href="#DejaVuSans-2e" x="158.886719"/>
       <use xlink:href="#DejaVuSans-31" x="190.673828"/>
       <use xlink:href="#DejaVuSans-2e" x="254.296875"/>
       <use xlink:href="#DejaVuSans-31" x="286.083984"/>
       <use xlink:href="#DejaVuSans-2e" x="349.707031"/>
       <use xlink:href="#DejaVuSans-39" x="381.494141"/>
      </g>
     </g>
    </g>
   </g>
   <g id="patch_180">
    <path d="M 144 224.28 
L 144 30.24 
" style="fill: none; stroke: #000000; stroke-width: 0.8; stroke-linejoin: miter; stroke-linecap: square"/>
   </g>
   <g id="patch_181">
    <path d="M 1036.8 224.28 
L 1036.8 30.24 
" style="fill: none; stroke: #000000; stroke-width: 0.8; stroke-linejoin: miter; stroke-linecap: square"/>
   </g>
   <g id="patch_182">
    <path d="M 144 224.28 
L 1036.8 224.28 
" style="fill: none; stroke: #000000; stroke-width: 0.8; stroke-linejoin: miter; stroke-linecap: square"/>
   </g>
   <g id="patch_183">
    <path d="M 144 30.24 
L 1036.8 30.24 
" style="fill: none; stroke: #000000; stroke-width: 0.8; stroke-linejoin: miter; stroke-linecap: square"/>
   </g>
   <g id="text_22">
    <!-- 1.S.1 Summary -->
    <g transform="translate(544.240312 24.24) scale(0.12 -0.12)">
     <defs>
      <path id="DejaVuSans-20" transform="scale(0.015625)"/>
      <path id="DejaVuSans-6d" d="M 3328 2828 
Q 3544 3216 3844 3400 
Q 4144 3584 4550 3584 
Q 5097 3584 5394 3201 
Q 5691 2819 5691 2113 
L 5691 0 
L 5113 0 
L 5113 2094 
Q 5113 2597 4934 2840 
Q 4756 3084 4391 3084 
Q 3944 3084 3684 2787 
Q 3425 2491 3425 1978 
L 3425 0 
L 2847 0 
L 2847 2094 
Q 2847 2600 2669 2842 
Q 2491 3084 2119 3084 
Q 1678 3084 1418 2786 
Q 1159 2488 1159 1978 
L 1159 0 
L 581 0 
L 581 3500 
L 1159 3500 
L 1159 2956 
Q 1356 3278 1631 3431 
Q 1906 3584 2284 3584 
Q 2666 3584 2933 3390 
Q 3200 3197 3328 2828 
z
" transform="scale(0.015625)"/>
      <path id="DejaVuSans-72" d="M 2631 2963 
Q 2534 3019 2420 3045 
Q 2306 3072 2169 3072 
Q 1681 3072 1420 2755 
Q 1159 2438 1159 1844 
L 1159 0 
L 581 0 
L 581 3500 
L 1159 3500 
L 1159 2956 
Q 1341 3275 1631 3429 
Q 1922 3584 2338 3584 
Q 2397 3584 2469 3576 
Q 2541 3569 2628 3553 
L 2631 2963 
z
" transform="scale(0.015625)"/>
      <path id="DejaVuSans-79" d="M 2059 -325 
Q 1816 -950 1584 -1140 
Q 1353 -1331 966 -1331 
L 506 -1331 
L 506 -850 
L 844 -850 
Q 1081 -850 1212 -737 
Q 1344 -625 1503 -206 
L 1606 56 
L 191 3500 
L 800 3500 
L 1894 763 
L 2988 3500 
L 3597 3500 
L 2059 -325 
z
" transform="scale(0.015625)"/>
     </defs>
     <use xlink:href="#DejaVuSans-31"/>
     <use xlink:href="#DejaVuSans-2e" x="63.623047"/>
     <use xlink:href="#DejaVuSans-53" x="95.410156"/>
     <use xlink:href="#DejaVuSans-2e" x="158.886719"/>
     <use xlink:href="#DejaVuSans-31" x="190.673828"/>
     <use xlink:href="#DejaVuSans-20" x="254.296875"/>
     <use xlink:href="#DejaVuSans-53" x="286.083984"/>
     <use xlink:href="#DejaVuSans-75" x="349.560547"/>
     <use xlink:href="#DejaVuSans-6d" x="412.939453"/>
     <use xlink:href="#DejaVuSans-6d" x="510.351562"/>
     <use xlink:href="#DejaVuSans-61" x="607.763672"/>
     <use xlink:href="#DejaVuSans-72" x="669.042969"/>
     <use xlink:href="#DejaVuSans-79" x="710.15625"/>
    </g>
   </g>
  </g>
 </g>
 <defs>
  <clipPath id="p17cea353ba">
   <rect x="144" y="30.24" width="892.8" height="194.04"/>
  </clipPath>
 </defs>
</svg>
