<?xml version="1.0" encoding="utf-8" standalone="no"?>
<!DOCTYPE svg PUBLIC "-//W3C//DTD SVG 1.1//EN"
  "http://www.w3.org/Graphics/SVG/1.1/DTD/svg11.dtd">
<svg xmlns:xlink="http://www.w3.org/1999/xlink" width="1152pt" height="475.2pt" viewBox="0 0 1152 475.2" xmlns="http://www.w3.org/2000/svg" version="1.1">
 <metadata>
  <rdf:RDF xmlns:dc="http://purl.org/dc/elements/1.1/" xmlns:cc="http://creativecommons.org/ns#" xmlns:rdf="http://www.w3.org/1999/02/22-rdf-syntax-ns#">
   <cc:Work>
    <dc:type rdf:resource="http://purl.org/dc/dcmitype/StillImage"/>
    <dc:date>2024-10-25T07:52:59.252228</dc:date>
    <dc:format>image/svg+xml</dc:format>
    <dc:creator>
     <cc:Agent>
      <dc:title>Matplotlib v3.9.2, https://matplotlib.org/</dc:title>
     </cc:Agent>
    </dc:creator>
   </cc:Work>
  </rdf:RDF>
 </metadata>
 <defs>
  <style type="text/css">*{stroke-linejoin: round; stroke-linecap: butt}</style>
 </defs>
 <g id="figure_1">
  <g id="patch_1">
   <path d="M 0 475.2 
L 1152 475.2 
L 1152 0 
L 0 0 
z
" style="fill: #ffffff"/>
  </g>
  <g id="axes_1">
   <g id="patch_2">
    <path d="M 144 422.928 
L 1036.8 422.928 
L 1036.8 57.024 
L 144 57.024 
z
" style="fill: #ffffff"/>
   </g>
   <g id="patch_3">
    <path d="M 144 406.296 
L 274.439257 406.296 
L 274.439257 399.437443 
L 144 399.437443 
z
" clip-path="url(#p82185c4afd)" style="fill: #0000ff"/>
   </g>
   <g id="patch_4">
    <path d="M 144 406.296 
L 274.844348 406.296 
L 274.844348 399.437443 
L 144 399.437443 
z
" clip-path="url(#p82185c4afd)" style="fill: #0000ff"/>
   </g>
   <g id="patch_5">
    <path d="M 146.835636 406.296 
L 267.147621 406.296 
L 267.147621 399.437443 
L 146.835636 399.437443 
z
" clip-path="url(#p82185c4afd)" style="fill: #0000ff"/>
   </g>
   <g id="patch_6">
    <path d="M 146.835636 406.296 
L 266.74253 406.296 
L 266.74253 399.437443 
L 146.835636 399.437443 
z
" clip-path="url(#p82185c4afd)" style="fill: #0000ff"/>
   </g>
   <g id="patch_7">
    <path d="M 146.835636 406.296 
L 267.147621 406.296 
L 267.147621 399.437443 
L 146.835636 399.437443 
z
" clip-path="url(#p82185c4afd)" style="fill: #0000ff"/>
   </g>
   <g id="patch_8">
    <path d="M 147.240727 406.296 
L 269.983257 406.296 
L 269.983257 399.437443 
L 147.240727 399.437443 
z
" clip-path="url(#p82185c4afd)" style="fill: #0000ff"/>
   </g>
   <g id="patch_9">
    <path d="M 147.645818 406.296 
L 269.173076 406.296 
L 269.173076 399.437443 
L 147.645818 399.437443 
z
" clip-path="url(#p82185c4afd)" style="fill: #0000ff"/>
   </g>
   <g id="patch_10">
    <path d="M 148.455999 406.296 
L 267.552712 406.296 
L 267.552712 399.437443 
L 148.455999 399.437443 
z
" clip-path="url(#p82185c4afd)" style="fill: #0000ff"/>
   </g>
   <g id="patch_11">
    <path d="M 148.86109 406.296 
L 267.147621 406.296 
L 267.147621 399.437443 
L 148.86109 399.437443 
z
" clip-path="url(#p82185c4afd)" style="fill: #0000ff"/>
   </g>
   <g id="patch_12">
    <path d="M 148.86109 406.296 
L 265.932349 406.296 
L 265.932349 399.437443 
L 148.86109 399.437443 
z
" clip-path="url(#p82185c4afd)" style="fill: #0000ff"/>
   </g>
   <g id="patch_13">
    <path d="M 275.249439 403.123918 
L 277.274893 403.123918 
L 277.274893 402.609526 
L 275.249439 402.609526 
z
" clip-path="url(#p82185c4afd)" style="fill: #0000ff"/>
   </g>
   <g id="patch_14">
    <path d="M 144 385.977526 
L 149.266181 385.977526 
L 149.266181 385.463134 
L 144 385.463134 
z
" clip-path="url(#p82185c4afd)" style="fill: #0000ff"/>
   </g>
   <g id="patch_15">
    <path d="M 149.671272 389.149608 
L 276.464711 389.149608 
L 276.464711 382.291052 
L 149.671272 382.291052 
z
" clip-path="url(#p82185c4afd)" style="fill: #0000ff"/>
   </g>
   <g id="patch_16">
    <path d="M 149.671272 389.149608 
L 276.464711 389.149608 
L 276.464711 382.291052 
L 149.671272 382.291052 
z
" clip-path="url(#p82185c4afd)" style="fill: #0000ff"/>
   </g>
   <g id="patch_17">
    <path d="M 152.911999 389.149608 
L 271.603621 389.149608 
L 271.603621 382.291052 
L 152.911999 382.291052 
z
" clip-path="url(#p82185c4afd)" style="fill: #0000ff"/>
   </g>
   <g id="patch_18">
    <path d="M 152.911999 389.149608 
L 274.439257 389.149608 
L 274.439257 382.291052 
L 152.911999 382.291052 
z
" clip-path="url(#p82185c4afd)" style="fill: #0000ff"/>
   </g>
   <g id="patch_19">
    <path d="M 152.911999 389.149608 
L 272.008712 389.149608 
L 272.008712 382.291052 
L 152.911999 382.291052 
z
" clip-path="url(#p82185c4afd)" style="fill: #0000ff"/>
   </g>
   <g id="patch_20">
    <path d="M 153.31709 389.149608 
L 274.844348 389.149608 
L 274.844348 382.291052 
L 153.31709 382.291052 
z
" clip-path="url(#p82185c4afd)" style="fill: #0000ff"/>
   </g>
   <g id="patch_21">
    <path d="M 154.127271 389.149608 
L 265.932349 389.149608 
L 265.932349 382.291052 
L 154.127271 382.291052 
z
" clip-path="url(#p82185c4afd)" style="fill: #0000ff"/>
   </g>
   <g id="patch_22">
    <path d="M 154.532362 389.149608 
L 271.603621 389.149608 
L 271.603621 382.291052 
L 154.532362 382.291052 
z
" clip-path="url(#p82185c4afd)" style="fill: #0000ff"/>
   </g>
   <g id="patch_23">
    <path d="M 154.532362 389.149608 
L 271.603621 389.149608 
L 271.603621 382.291052 
L 154.532362 382.291052 
z
" clip-path="url(#p82185c4afd)" style="fill: #0000ff"/>
   </g>
   <g id="patch_24">
    <path d="M 155.747635 389.149608 
L 269.173076 389.149608 
L 269.173076 382.291052 
L 155.747635 382.291052 
z
" clip-path="url(#p82185c4afd)" style="fill: #0000ff"/>
   </g>
   <g id="patch_25">
    <path d="M 144 368.831134 
L 153.722181 368.831134 
L 153.722181 368.316742 
L 144 368.316742 
z
" clip-path="url(#p82185c4afd)" style="fill: #0000ff"/>
   </g>
   <g id="patch_26">
    <path d="M 154.127271 372.003216 
L 301.580344 372.003216 
L 301.580344 365.14466 
L 154.127271 365.14466 
z
" clip-path="url(#p82185c4afd)" style="fill: #0000ff"/>
   </g>
   <g id="patch_27">
    <path d="M 155.747635 372.003216 
L 293.073436 372.003216 
L 293.073436 365.14466 
L 155.747635 365.14466 
z
" clip-path="url(#p82185c4afd)" style="fill: #0000ff"/>
   </g>
   <g id="patch_28">
    <path d="M 156.962908 372.003216 
L 295.098891 372.003216 
L 295.098891 365.14466 
L 156.962908 365.14466 
z
" clip-path="url(#p82185c4afd)" style="fill: #0000ff"/>
   </g>
   <g id="patch_29">
    <path d="M 156.962908 372.003216 
L 294.6938 372.003216 
L 294.6938 365.14466 
L 156.962908 365.14466 
z
" clip-path="url(#p82185c4afd)" style="fill: #0000ff"/>
   </g>
   <g id="patch_30">
    <path d="M 157.367998 372.003216 
L 293.478527 372.003216 
L 293.478527 365.14466 
L 157.367998 365.14466 
z
" clip-path="url(#p82185c4afd)" style="fill: #0000ff"/>
   </g>
   <g id="patch_31">
    <path d="M 157.367998 372.003216 
L 297.124345 372.003216 
L 297.124345 365.14466 
L 157.367998 365.14466 
z
" clip-path="url(#p82185c4afd)" style="fill: #0000ff"/>
   </g>
   <g id="patch_32">
    <path d="M 158.988362 372.003216 
L 293.073436 372.003216 
L 293.073436 365.14466 
L 158.988362 365.14466 
z
" clip-path="url(#p82185c4afd)" style="fill: #0000ff"/>
   </g>
   <g id="patch_33">
    <path d="M 158.988362 372.003216 
L 293.073436 372.003216 
L 293.073436 365.14466 
L 158.988362 365.14466 
z
" clip-path="url(#p82185c4afd)" style="fill: #0000ff"/>
   </g>
   <g id="patch_34">
    <path d="M 158.988362 372.003216 
L 293.478527 372.003216 
L 293.478527 365.14466 
L 158.988362 365.14466 
z
" clip-path="url(#p82185c4afd)" style="fill: #0000ff"/>
   </g>
   <g id="patch_35">
    <path d="M 198.687266 372.003216 
L 277.274893 372.003216 
L 277.274893 365.14466 
L 198.687266 365.14466 
z
" clip-path="url(#p82185c4afd)" style="fill: #0000ff"/>
   </g>
   <g id="patch_36">
    <path d="M 301.985435 368.831134 
L 321.024706 368.831134 
L 321.024706 368.316742 
L 301.985435 368.316742 
z
" clip-path="url(#p82185c4afd)" style="fill: #0000ff"/>
   </g>
   <g id="patch_37">
    <path d="M 144 354.856825 
L 282.135983 354.856825 
L 282.135983 347.998268 
L 144 347.998268 
z
" clip-path="url(#p82185c4afd)" style="fill: #0000ff"/>
   </g>
   <g id="patch_38">
    <path d="M 144 354.856825 
L 211.245083 354.856825 
L 211.245083 347.998268 
L 144 347.998268 
z
" clip-path="url(#p82185c4afd)" style="fill: #0000ff"/>
   </g>
   <g id="patch_39">
    <path d="M 144 354.856825 
L 211.650174 354.856825 
L 211.650174 347.998268 
L 144 347.998268 
z
" clip-path="url(#p82185c4afd)" style="fill: #0000ff"/>
   </g>
   <g id="patch_40">
    <path d="M 144 354.856825 
L 198.687266 354.856825 
L 198.687266 347.998268 
L 144 347.998268 
z
" clip-path="url(#p82185c4afd)" style="fill: #0000ff"/>
   </g>
   <g id="patch_41">
    <path d="M 144 354.856825 
L 205.978902 354.856825 
L 205.978902 347.998268 
L 144 347.998268 
z
" clip-path="url(#p82185c4afd)" style="fill: #0000ff"/>
   </g>
   <g id="patch_42">
    <path d="M 144 354.856825 
L 210.434901 354.856825 
L 210.434901 347.998268 
L 144 347.998268 
z
" clip-path="url(#p82185c4afd)" style="fill: #0000ff"/>
   </g>
   <g id="patch_43">
    <path d="M 144 354.856825 
L 211.650174 354.856825 
L 211.650174 347.998268 
L 144 347.998268 
z
" clip-path="url(#p82185c4afd)" style="fill: #0000ff"/>
   </g>
   <g id="patch_44">
    <path d="M 152.911999 354.856825 
L 199.092357 354.856825 
L 199.092357 347.998268 
L 152.911999 347.998268 
z
" clip-path="url(#p82185c4afd)" style="fill: #0000ff"/>
   </g>
   <g id="patch_45">
    <path d="M 152.911999 354.856825 
L 199.092357 354.856825 
L 199.092357 347.998268 
L 152.911999 347.998268 
z
" clip-path="url(#p82185c4afd)" style="fill: #0000ff"/>
   </g>
   <g id="patch_46">
    <path d="M 282.541074 351.684742 
L 694.113387 351.684742 
L 694.113387 351.170351 
L 282.541074 351.170351 
z
" clip-path="url(#p82185c4afd)" style="fill: #0000ff"/>
   </g>
   <g id="patch_47">
    <path d="M 694.518478 354.856825 
L 952.966447 354.856825 
L 952.966447 347.998268 
L 694.518478 347.998268 
z
" clip-path="url(#p82185c4afd)" style="fill: #0000ff"/>
   </g>
   <g id="patch_48">
    <path d="M 694.518478 354.856825 
L 775.131559 354.856825 
L 775.131559 347.998268 
L 694.518478 347.998268 
z
" clip-path="url(#p82185c4afd)" style="fill: #0000ff"/>
   </g>
   <g id="patch_49">
    <path d="M 694.518478 354.856825 
L 753.661744 354.856825 
L 753.661744 347.998268 
L 694.518478 347.998268 
z
" clip-path="url(#p82185c4afd)" style="fill: #0000ff"/>
   </g>
   <g id="patch_50">
    <path d="M 694.518478 354.856825 
L 753.661744 354.856825 
L 753.661744 347.998268 
L 694.518478 347.998268 
z
" clip-path="url(#p82185c4afd)" style="fill: #0000ff"/>
   </g>
   <g id="patch_51">
    <path d="M 694.518478 354.856825 
L 773.106105 354.856825 
L 773.106105 347.998268 
L 694.518478 347.998268 
z
" clip-path="url(#p82185c4afd)" style="fill: #0000ff"/>
   </g>
   <g id="patch_52">
    <path d="M 694.518478 354.856825 
L 753.661744 354.856825 
L 753.661744 347.998268 
L 694.518478 347.998268 
z
" clip-path="url(#p82185c4afd)" style="fill: #0000ff"/>
   </g>
   <g id="patch_53">
    <path d="M 694.923569 354.856825 
L 838.325733 354.856825 
L 838.325733 347.998268 
L 694.923569 347.998268 
z
" clip-path="url(#p82185c4afd)" style="fill: #0000ff"/>
   </g>
   <g id="patch_54">
    <path d="M 694.923569 354.856825 
L 773.106105 354.856825 
L 773.106105 347.998268 
L 694.923569 347.998268 
z
" clip-path="url(#p82185c4afd)" style="fill: #0000ff"/>
   </g>
   <g id="patch_55">
    <path d="M 697.354114 354.856825 
L 830.223916 354.856825 
L 830.223916 347.998268 
L 697.354114 347.998268 
z
" clip-path="url(#p82185c4afd)" style="fill: #0000ff"/>
   </g>
   <g id="patch_56">
    <path d="M 700.999932 354.856825 
L 779.587559 354.856825 
L 779.587559 347.998268 
L 700.999932 347.998268 
z
" clip-path="url(#p82185c4afd)" style="fill: #0000ff"/>
   </g>
   <g id="patch_57">
    <path d="M 700.999932 354.856825 
L 770.67556 354.856825 
L 770.67556 347.998268 
L 700.999932 347.998268 
z
" clip-path="url(#p82185c4afd)" style="fill: #0000ff"/>
   </g>
   <g id="patch_58">
    <path d="M 701.810114 354.856825 
L 837.515552 354.856825 
L 837.515552 347.998268 
L 701.810114 347.998268 
z
" clip-path="url(#p82185c4afd)" style="fill: #0000ff"/>
   </g>
   <g id="patch_59">
    <path d="M 703.835568 354.856825 
L 838.730824 354.856825 
L 838.730824 347.998268 
L 703.835568 347.998268 
z
" clip-path="url(#p82185c4afd)" style="fill: #0000ff"/>
   </g>
   <g id="patch_60">
    <path d="M 703.835568 354.856825 
L 754.471925 354.856825 
L 754.471925 347.998268 
L 703.835568 347.998268 
z
" clip-path="url(#p82185c4afd)" style="fill: #0000ff"/>
   </g>
   <g id="patch_61">
    <path d="M 704.240659 354.856825 
L 835.490097 354.856825 
L 835.490097 347.998268 
L 704.240659 347.998268 
z
" clip-path="url(#p82185c4afd)" style="fill: #0000ff"/>
   </g>
   <g id="patch_62">
    <path d="M 704.240659 354.856825 
L 841.161369 354.856825 
L 841.161369 347.998268 
L 704.240659 347.998268 
z
" clip-path="url(#p82185c4afd)" style="fill: #0000ff"/>
   </g>
   <g id="patch_63">
    <path d="M 704.240659 354.856825 
L 769.460287 354.856825 
L 769.460287 347.998268 
L 704.240659 347.998268 
z
" clip-path="url(#p82185c4afd)" style="fill: #0000ff"/>
   </g>
   <g id="patch_64">
    <path d="M 705.050841 354.856825 
L 835.085006 354.856825 
L 835.085006 347.998268 
L 705.050841 347.998268 
z
" clip-path="url(#p82185c4afd)" style="fill: #0000ff"/>
   </g>
   <g id="patch_65">
    <path d="M 705.861022 354.856825 
L 766.21956 354.856825 
L 766.21956 347.998268 
L 705.861022 347.998268 
z
" clip-path="url(#p82185c4afd)" style="fill: #0000ff"/>
   </g>
   <g id="patch_66">
    <path d="M 706.266113 354.856825 
L 815.640645 354.856825 
L 815.640645 347.998268 
L 706.266113 347.998268 
z
" clip-path="url(#p82185c4afd)" style="fill: #0000ff"/>
   </g>
   <g id="patch_67">
    <path d="M 706.266113 354.856825 
L 831.034098 354.856825 
L 831.034098 347.998268 
L 706.266113 347.998268 
z
" clip-path="url(#p82185c4afd)" style="fill: #0000ff"/>
   </g>
   <g id="patch_68">
    <path d="M 706.266113 354.856825 
L 835.895188 354.856825 
L 835.895188 347.998268 
L 706.266113 347.998268 
z
" clip-path="url(#p82185c4afd)" style="fill: #0000ff"/>
   </g>
   <g id="patch_69">
    <path d="M 706.266113 354.856825 
L 767.029742 354.856825 
L 767.029742 347.998268 
L 706.266113 347.998268 
z
" clip-path="url(#p82185c4afd)" style="fill: #0000ff"/>
   </g>
   <g id="patch_70">
    <path d="M 706.266113 354.856825 
L 770.270469 354.856825 
L 770.270469 347.998268 
L 706.266113 347.998268 
z
" clip-path="url(#p82185c4afd)" style="fill: #0000ff"/>
   </g>
   <g id="patch_71">
    <path d="M 706.266113 354.856825 
L 753.661744 354.856825 
L 753.661744 347.998268 
L 706.266113 347.998268 
z
" clip-path="url(#p82185c4afd)" style="fill: #0000ff"/>
   </g>
   <g id="patch_72">
    <path d="M 706.671204 354.856825 
L 831.439189 354.856825 
L 831.439189 347.998268 
L 706.671204 347.998268 
z
" clip-path="url(#p82185c4afd)" style="fill: #0000ff"/>
   </g>
   <g id="patch_73">
    <path d="M 707.886477 354.856825 
L 836.300279 354.856825 
L 836.300279 347.998268 
L 707.886477 347.998268 
z
" clip-path="url(#p82185c4afd)" style="fill: #0000ff"/>
   </g>
   <g id="patch_74">
    <path d="M 708.696658 354.856825 
L 831.034098 354.856825 
L 831.034098 347.998268 
L 708.696658 347.998268 
z
" clip-path="url(#p82185c4afd)" style="fill: #0000ff"/>
   </g>
   <g id="patch_75">
    <path d="M 764.599197 354.856825 
L 836.70537 354.856825 
L 836.70537 347.998268 
L 764.599197 347.998268 
z
" clip-path="url(#p82185c4afd)" style="fill: #0000ff"/>
   </g>
   <g id="patch_76">
    <path d="M 777.157014 354.856825 
L 834.679916 354.856825 
L 834.679916 347.998268 
L 777.157014 347.998268 
z
" clip-path="url(#p82185c4afd)" style="fill: #0000ff"/>
   </g>
   <g id="patch_77">
    <path d="M 777.157014 354.856825 
L 831.034098 354.856825 
L 831.034098 347.998268 
L 777.157014 347.998268 
z
" clip-path="url(#p82185c4afd)" style="fill: #0000ff"/>
   </g>
   <g id="patch_78">
    <path d="M 780.802831 354.856825 
L 833.869734 354.856825 
L 833.869734 347.998268 
L 780.802831 347.998268 
z
" clip-path="url(#p82185c4afd)" style="fill: #0000ff"/>
   </g>
   <g id="patch_79">
    <path d="M 783.638467 354.856825 
L 831.034098 354.856825 
L 831.034098 347.998268 
L 783.638467 347.998268 
z
" clip-path="url(#p82185c4afd)" style="fill: #0000ff"/>
   </g>
   <g id="patch_80">
    <path d="M 784.043558 354.856825 
L 848.047914 354.856825 
L 848.047914 347.998268 
L 784.043558 347.998268 
z
" clip-path="url(#p82185c4afd)" style="fill: #0000ff"/>
   </g>
   <g id="patch_81">
    <path d="M 786.069012 354.856825 
L 831.439189 354.856825 
L 831.439189 347.998268 
L 786.069012 347.998268 
z
" clip-path="url(#p82185c4afd)" style="fill: #0000ff"/>
   </g>
   <g id="patch_82">
    <path d="M 790.119921 354.856825 
L 831.034098 354.856825 
L 831.034098 347.998268 
L 790.119921 347.998268 
z
" clip-path="url(#p82185c4afd)" style="fill: #0000ff"/>
   </g>
   <g id="patch_83">
    <path d="M 790.930103 354.856825 
L 834.274825 354.856825 
L 834.274825 347.998268 
L 790.930103 347.998268 
z
" clip-path="url(#p82185c4afd)" style="fill: #0000ff"/>
   </g>
   <g id="patch_84">
    <path d="M 802.677738 354.856825 
L 831.034098 354.856825 
L 831.034098 347.998268 
L 802.677738 347.998268 
z
" clip-path="url(#p82185c4afd)" style="fill: #0000ff"/>
   </g>
   <g id="patch_85">
    <path d="M 814.020282 354.856825 
L 831.439189 354.856825 
L 831.439189 347.998268 
L 814.020282 347.998268 
z
" clip-path="url(#p82185c4afd)" style="fill: #0000ff"/>
   </g>
   <g id="patch_86">
    <path d="M 953.371537 351.684742 
L 994.285714 351.684742 
L 994.285714 351.170351 
L 953.371537 351.170351 
z
" clip-path="url(#p82185c4afd)" style="fill: #0000ff"/>
   </g>
   <g id="patch_87">
    <path d="M 144 334.538351 
L 158.17818 334.538351 
L 158.17818 334.023959 
L 144 334.023959 
z
" clip-path="url(#p82185c4afd)" style="fill: #0000ff"/>
   </g>
   <g id="patch_88">
    <path d="M 158.583271 337.710433 
L 304.01089 337.710433 
L 304.01089 330.851876 
L 158.583271 330.851876 
z
" clip-path="url(#p82185c4afd)" style="fill: #0000ff"/>
   </g>
   <g id="patch_89">
    <path d="M 159.393453 337.710433 
L 295.503981 337.710433 
L 295.503981 330.851876 
L 159.393453 330.851876 
z
" clip-path="url(#p82185c4afd)" style="fill: #0000ff"/>
   </g>
   <g id="patch_90">
    <path d="M 160.608725 337.710433 
L 295.909072 337.710433 
L 295.909072 330.851876 
L 160.608725 330.851876 
z
" clip-path="url(#p82185c4afd)" style="fill: #0000ff"/>
   </g>
   <g id="patch_91">
    <path d="M 160.608725 337.710433 
L 297.124345 337.710433 
L 297.124345 330.851876 
L 160.608725 330.851876 
z
" clip-path="url(#p82185c4afd)" style="fill: #0000ff"/>
   </g>
   <g id="patch_92">
    <path d="M 161.013816 337.710433 
L 297.124345 337.710433 
L 297.124345 330.851876 
L 161.013816 330.851876 
z
" clip-path="url(#p82185c4afd)" style="fill: #0000ff"/>
   </g>
   <g id="patch_93">
    <path d="M 161.013816 337.710433 
L 299.149799 337.710433 
L 299.149799 330.851876 
L 161.013816 330.851876 
z
" clip-path="url(#p82185c4afd)" style="fill: #0000ff"/>
   </g>
   <g id="patch_94">
    <path d="M 162.229089 337.710433 
L 290.642891 337.710433 
L 290.642891 330.851876 
L 162.229089 330.851876 
z
" clip-path="url(#p82185c4afd)" style="fill: #0000ff"/>
   </g>
   <g id="patch_95">
    <path d="M 162.229089 337.710433 
L 295.098891 337.710433 
L 295.098891 330.851876 
L 162.229089 330.851876 
z
" clip-path="url(#p82185c4afd)" style="fill: #0000ff"/>
   </g>
   <g id="patch_96">
    <path d="M 162.63418 337.710433 
L 295.503981 337.710433 
L 295.503981 330.851876 
L 162.63418 330.851876 
z
" clip-path="url(#p82185c4afd)" style="fill: #0000ff"/>
   </g>
   <g id="patch_97">
    <path d="M 162.63418 337.710433 
L 295.503981 337.710433 
L 295.503981 330.851876 
L 162.63418 330.851876 
z
" clip-path="url(#p82185c4afd)" style="fill: #0000ff"/>
   </g>
   <g id="patch_98">
    <path d="M 163.849452 337.710433 
L 295.503981 337.710433 
L 295.503981 330.851876 
L 163.849452 330.851876 
z
" clip-path="url(#p82185c4afd)" style="fill: #0000ff"/>
   </g>
   <g id="patch_99">
    <path d="M 304.41598 334.538351 
L 304.821071 334.538351 
L 304.821071 334.023959 
L 304.41598 334.023959 
z
" clip-path="url(#p82185c4afd)" style="fill: #0000ff"/>
   </g>
   <g id="patch_100">
    <path d="M 144 317.391959 
L 145.215273 317.391959 
L 145.215273 316.877567 
L 144 316.877567 
z
" clip-path="url(#p82185c4afd)" style="fill: #0000ff"/>
   </g>
   <g id="patch_101">
    <path d="M 145.620363 320.564041 
L 316.568706 320.564041 
L 316.568706 313.705485 
L 145.620363 313.705485 
z
" clip-path="url(#p82185c4afd)" style="fill: #0000ff"/>
   </g>
   <g id="patch_102">
    <path d="M 147.240727 320.564041 
L 307.656707 320.564041 
L 307.656707 313.705485 
L 147.240727 313.705485 
z
" clip-path="url(#p82185c4afd)" style="fill: #0000ff"/>
   </g>
   <g id="patch_103">
    <path d="M 148.455999 320.564041 
L 309.277071 320.564041 
L 309.277071 313.705485 
L 148.455999 313.705485 
z
" clip-path="url(#p82185c4afd)" style="fill: #0000ff"/>
   </g>
   <g id="patch_104">
    <path d="M 150.481454 320.564041 
L 307.251616 320.564041 
L 307.251616 313.705485 
L 150.481454 313.705485 
z
" clip-path="url(#p82185c4afd)" style="fill: #0000ff"/>
   </g>
   <g id="patch_105">
    <path d="M 150.886545 320.564041 
L 290.2378 320.564041 
L 290.2378 313.705485 
L 150.886545 313.705485 
z
" clip-path="url(#p82185c4afd)" style="fill: #0000ff"/>
   </g>
   <g id="patch_106">
    <path d="M 152.101817 320.564041 
L 295.909072 320.564041 
L 295.909072 313.705485 
L 152.101817 313.705485 
z
" clip-path="url(#p82185c4afd)" style="fill: #0000ff"/>
   </g>
   <g id="patch_107">
    <path d="M 316.973797 317.391959 
L 329.126523 317.391959 
L 329.126523 316.877567 
L 316.973797 316.877567 
z
" clip-path="url(#p82185c4afd)" style="fill: #0000ff"/>
   </g>
   <g id="patch_108">
    <path d="M 144 300.245567 
L 152.101817 300.245567 
L 152.101817 299.731175 
L 144 299.731175 
z
" clip-path="url(#p82185c4afd)" style="fill: #0000ff"/>
   </g>
   <g id="patch_109">
    <path d="M 152.506908 303.417649 
L 291.047982 303.417649 
L 291.047982 296.559093 
L 152.506908 296.559093 
z
" clip-path="url(#p82185c4afd)" style="fill: #0000ff"/>
   </g>
   <g id="patch_110">
    <path d="M 152.911999 303.417649 
L 293.478527 303.417649 
L 293.478527 296.559093 
L 152.911999 296.559093 
z
" clip-path="url(#p82185c4afd)" style="fill: #0000ff"/>
   </g>
   <g id="patch_111">
    <path d="M 153.722181 303.417649 
L 292.668345 303.417649 
L 292.668345 296.559093 
L 153.722181 296.559093 
z
" clip-path="url(#p82185c4afd)" style="fill: #0000ff"/>
   </g>
   <g id="patch_112">
    <path d="M 154.937453 303.417649 
L 292.263255 303.417649 
L 292.263255 296.559093 
L 154.937453 296.559093 
z
" clip-path="url(#p82185c4afd)" style="fill: #0000ff"/>
   </g>
   <g id="patch_113">
    <path d="M 154.937453 303.417649 
L 289.832709 303.417649 
L 289.832709 296.559093 
L 154.937453 296.559093 
z
" clip-path="url(#p82185c4afd)" style="fill: #0000ff"/>
   </g>
   <g id="patch_114">
    <path d="M 157.773089 303.417649 
L 290.642891 303.417649 
L 290.642891 296.559093 
L 157.773089 296.559093 
z
" clip-path="url(#p82185c4afd)" style="fill: #0000ff"/>
   </g>
   <g id="patch_115">
    <path d="M 157.773089 303.417649 
L 289.022528 303.417649 
L 289.022528 296.559093 
L 157.773089 296.559093 
z
" clip-path="url(#p82185c4afd)" style="fill: #0000ff"/>
   </g>
   <g id="patch_116">
    <path d="M 293.883618 300.245567 
L 299.149799 300.245567 
L 299.149799 299.731175 
L 293.883618 299.731175 
z
" clip-path="url(#p82185c4afd)" style="fill: #0000ff"/>
   </g>
   <g id="patch_117">
    <path d="M 144 283.099175 
L 154.937453 283.099175 
L 154.937453 282.584784 
L 144 282.584784 
z
" clip-path="url(#p82185c4afd)" style="fill: #0000ff"/>
   </g>
   <g id="patch_118">
    <path d="M 155.342544 286.271258 
L 296.314163 286.271258 
L 296.314163 279.412701 
L 155.342544 279.412701 
z
" clip-path="url(#p82185c4afd)" style="fill: #0000ff"/>
   </g>
   <g id="patch_119">
    <path d="M 155.342544 286.271258 
L 298.744708 286.271258 
L 298.744708 279.412701 
L 155.342544 279.412701 
z
" clip-path="url(#p82185c4afd)" style="fill: #0000ff"/>
   </g>
   <g id="patch_120">
    <path d="M 155.342544 286.271258 
L 297.529436 286.271258 
L 297.529436 279.412701 
L 155.342544 279.412701 
z
" clip-path="url(#p82185c4afd)" style="fill: #0000ff"/>
   </g>
   <g id="patch_121">
    <path d="M 155.747635 286.271258 
L 295.098891 286.271258 
L 295.098891 279.412701 
L 155.747635 279.412701 
z
" clip-path="url(#p82185c4afd)" style="fill: #0000ff"/>
   </g>
   <g id="patch_122">
    <path d="M 157.367998 286.271258 
L 294.288709 286.271258 
L 294.288709 279.412701 
L 157.367998 279.412701 
z
" clip-path="url(#p82185c4afd)" style="fill: #0000ff"/>
   </g>
   <g id="patch_123">
    <path d="M 157.773089 286.271258 
L 280.51562 286.271258 
L 280.51562 279.412701 
L 157.773089 279.412701 
z
" clip-path="url(#p82185c4afd)" style="fill: #0000ff"/>
   </g>
   <g id="patch_124">
    <path d="M 199.497448 286.271258 
L 297.529436 286.271258 
L 297.529436 279.412701 
L 199.497448 279.412701 
z
" clip-path="url(#p82185c4afd)" style="fill: #0000ff"/>
   </g>
   <g id="patch_125">
    <path d="M 299.149799 283.099175 
L 302.390526 283.099175 
L 302.390526 282.584784 
L 299.149799 282.584784 
z
" clip-path="url(#p82185c4afd)" style="fill: #0000ff"/>
   </g>
   <g id="patch_126">
    <path d="M 144 265.952784 
L 152.101817 265.952784 
L 152.101817 265.438392 
L 144 265.438392 
z
" clip-path="url(#p82185c4afd)" style="fill: #0000ff"/>
   </g>
   <g id="patch_127">
    <path d="M 152.506908 269.124866 
L 284.161437 269.124866 
L 284.161437 262.266309 
L 152.506908 262.266309 
z
" clip-path="url(#p82185c4afd)" style="fill: #0000ff"/>
   </g>
   <g id="patch_128">
    <path d="M 152.911999 269.124866 
L 284.566528 269.124866 
L 284.566528 262.266309 
L 152.911999 262.266309 
z
" clip-path="url(#p82185c4afd)" style="fill: #0000ff"/>
   </g>
   <g id="patch_129">
    <path d="M 153.722181 269.124866 
L 284.161437 269.124866 
L 284.161437 262.266309 
L 153.722181 262.266309 
z
" clip-path="url(#p82185c4afd)" style="fill: #0000ff"/>
   </g>
   <g id="patch_130">
    <path d="M 153.722181 269.124866 
L 284.161437 269.124866 
L 284.161437 262.266309 
L 153.722181 262.266309 
z
" clip-path="url(#p82185c4afd)" style="fill: #0000ff"/>
   </g>
   <g id="patch_131">
    <path d="M 154.127271 269.124866 
L 283.756347 269.124866 
L 283.756347 262.266309 
L 154.127271 262.266309 
z
" clip-path="url(#p82185c4afd)" style="fill: #0000ff"/>
   </g>
   <g id="patch_132">
    <path d="M 154.127271 269.124866 
L 283.756347 269.124866 
L 283.756347 262.266309 
L 154.127271 262.266309 
z
" clip-path="url(#p82185c4afd)" style="fill: #0000ff"/>
   </g>
   <g id="patch_133">
    <path d="M 154.937453 269.124866 
L 284.161437 269.124866 
L 284.161437 262.266309 
L 154.937453 262.266309 
z
" clip-path="url(#p82185c4afd)" style="fill: #0000ff"/>
   </g>
   <g id="patch_134">
    <path d="M 154.937453 269.124866 
L 284.161437 269.124866 
L 284.161437 262.266309 
L 154.937453 262.266309 
z
" clip-path="url(#p82185c4afd)" style="fill: #0000ff"/>
   </g>
   <g id="patch_135">
    <path d="M 155.747635 269.124866 
L 284.161437 269.124866 
L 284.161437 262.266309 
L 155.747635 262.266309 
z
" clip-path="url(#p82185c4afd)" style="fill: #0000ff"/>
   </g>
   <g id="patch_136">
    <path d="M 155.747635 269.124866 
L 284.161437 269.124866 
L 284.161437 262.266309 
L 155.747635 262.266309 
z
" clip-path="url(#p82185c4afd)" style="fill: #0000ff"/>
   </g>
   <g id="patch_137">
    <path d="M 155.747635 269.124866 
L 284.161437 269.124866 
L 284.161437 262.266309 
L 155.747635 262.266309 
z
" clip-path="url(#p82185c4afd)" style="fill: #0000ff"/>
   </g>
   <g id="patch_138">
    <path d="M 284.971619 265.952784 
L 302.390526 265.952784 
L 302.390526 265.438392 
L 284.971619 265.438392 
z
" clip-path="url(#p82185c4afd)" style="fill: #0000ff"/>
   </g>
   <g id="patch_139">
    <path d="M 144 248.806392 
L 153.31709 248.806392 
L 153.31709 248.292 
L 144 248.292 
z
" clip-path="url(#p82185c4afd)" style="fill: #0000ff"/>
   </g>
   <g id="patch_140">
    <path d="M 153.722181 251.978474 
L 289.832709 251.978474 
L 289.832709 245.119918 
L 153.722181 245.119918 
z
" clip-path="url(#p82185c4afd)" style="fill: #0000ff"/>
   </g>
   <g id="patch_141">
    <path d="M 154.127271 251.978474 
L 295.098891 251.978474 
L 295.098891 245.119918 
L 154.127271 245.119918 
z
" clip-path="url(#p82185c4afd)" style="fill: #0000ff"/>
   </g>
   <g id="patch_142">
    <path d="M 154.937453 251.978474 
L 291.047982 251.978474 
L 291.047982 245.119918 
L 154.937453 245.119918 
z
" clip-path="url(#p82185c4afd)" style="fill: #0000ff"/>
   </g>
   <g id="patch_143">
    <path d="M 154.937453 251.978474 
L 291.453073 251.978474 
L 291.453073 245.119918 
L 154.937453 245.119918 
z
" clip-path="url(#p82185c4afd)" style="fill: #0000ff"/>
   </g>
   <g id="patch_144">
    <path d="M 155.342544 251.978474 
L 291.453073 251.978474 
L 291.453073 245.119918 
L 155.342544 245.119918 
z
" clip-path="url(#p82185c4afd)" style="fill: #0000ff"/>
   </g>
   <g id="patch_145">
    <path d="M 155.342544 251.978474 
L 292.263255 251.978474 
L 292.263255 245.119918 
L 155.342544 245.119918 
z
" clip-path="url(#p82185c4afd)" style="fill: #0000ff"/>
   </g>
   <g id="patch_146">
    <path d="M 156.152726 251.978474 
L 290.2378 251.978474 
L 290.2378 245.119918 
L 156.152726 245.119918 
z
" clip-path="url(#p82185c4afd)" style="fill: #0000ff"/>
   </g>
   <g id="patch_147">
    <path d="M 156.152726 251.978474 
L 289.427619 251.978474 
L 289.427619 245.119918 
L 156.152726 245.119918 
z
" clip-path="url(#p82185c4afd)" style="fill: #0000ff"/>
   </g>
   <g id="patch_148">
    <path d="M 156.962908 251.978474 
L 289.832709 251.978474 
L 289.832709 245.119918 
L 156.962908 245.119918 
z
" clip-path="url(#p82185c4afd)" style="fill: #0000ff"/>
   </g>
   <g id="patch_149">
    <path d="M 156.962908 251.978474 
L 289.832709 251.978474 
L 289.832709 245.119918 
L 156.962908 245.119918 
z
" clip-path="url(#p82185c4afd)" style="fill: #0000ff"/>
   </g>
   <g id="patch_150">
    <path d="M 156.962908 251.978474 
L 289.832709 251.978474 
L 289.832709 245.119918 
L 156.962908 245.119918 
z
" clip-path="url(#p82185c4afd)" style="fill: #0000ff"/>
   </g>
   <g id="patch_151">
    <path d="M 164.659634 251.978474 
L 289.832709 251.978474 
L 289.832709 245.119918 
L 164.659634 245.119918 
z
" clip-path="url(#p82185c4afd)" style="fill: #0000ff"/>
   </g>
   <g id="patch_152">
    <path d="M 295.503981 248.806392 
L 295.503981 248.806392 
L 295.503981 248.292 
L 295.503981 248.292 
z
" clip-path="url(#p82185c4afd)" style="fill: #0000ff"/>
   </g>
   <g id="patch_153">
    <path d="M 144 231.66 
L 152.911999 231.66 
L 152.911999 231.145608 
L 144 231.145608 
z
" clip-path="url(#p82185c4afd)" style="fill: #0000ff"/>
   </g>
   <g id="patch_154">
    <path d="M 153.31709 234.832082 
L 297.529436 234.832082 
L 297.529436 227.973526 
L 153.31709 227.973526 
z
" clip-path="url(#p82185c4afd)" style="fill: #0000ff"/>
   </g>
   <g id="patch_155">
    <path d="M 153.722181 234.832082 
L 304.01089 234.832082 
L 304.01089 227.973526 
L 153.722181 227.973526 
z
" clip-path="url(#p82185c4afd)" style="fill: #0000ff"/>
   </g>
   <g id="patch_156">
    <path d="M 154.532362 234.832082 
L 297.124345 234.832082 
L 297.124345 227.973526 
L 154.532362 227.973526 
z
" clip-path="url(#p82185c4afd)" style="fill: #0000ff"/>
   </g>
   <g id="patch_157">
    <path d="M 154.532362 234.832082 
L 299.149799 234.832082 
L 299.149799 227.973526 
L 154.532362 227.973526 
z
" clip-path="url(#p82185c4afd)" style="fill: #0000ff"/>
   </g>
   <g id="patch_158">
    <path d="M 154.937453 234.832082 
L 299.149799 234.832082 
L 299.149799 227.973526 
L 154.937453 227.973526 
z
" clip-path="url(#p82185c4afd)" style="fill: #0000ff"/>
   </g>
   <g id="patch_159">
    <path d="M 154.937453 234.832082 
L 301.580344 234.832082 
L 301.580344 227.973526 
L 154.937453 227.973526 
z
" clip-path="url(#p82185c4afd)" style="fill: #0000ff"/>
   </g>
   <g id="patch_160">
    <path d="M 155.747635 234.832082 
L 298.339618 234.832082 
L 298.339618 227.973526 
L 155.747635 227.973526 
z
" clip-path="url(#p82185c4afd)" style="fill: #0000ff"/>
   </g>
   <g id="patch_161">
    <path d="M 155.747635 234.832082 
L 298.744708 234.832082 
L 298.744708 227.973526 
L 155.747635 227.973526 
z
" clip-path="url(#p82185c4afd)" style="fill: #0000ff"/>
   </g>
   <g id="patch_162">
    <path d="M 156.557817 234.832082 
L 297.124345 234.832082 
L 297.124345 227.973526 
L 156.557817 227.973526 
z
" clip-path="url(#p82185c4afd)" style="fill: #0000ff"/>
   </g>
   <g id="patch_163">
    <path d="M 156.557817 234.832082 
L 297.124345 234.832082 
L 297.124345 227.973526 
L 156.557817 227.973526 
z
" clip-path="url(#p82185c4afd)" style="fill: #0000ff"/>
   </g>
   <g id="patch_164">
    <path d="M 156.557817 234.832082 
L 296.719254 234.832082 
L 296.719254 227.973526 
L 156.557817 227.973526 
z
" clip-path="url(#p82185c4afd)" style="fill: #0000ff"/>
   </g>
   <g id="patch_165">
    <path d="M 304.41598 231.66 
L 311.302525 231.66 
L 311.302525 231.145608 
L 304.41598 231.145608 
z
" clip-path="url(#p82185c4afd)" style="fill: #0000ff"/>
   </g>
   <g id="patch_166">
    <path d="M 144 217.685691 
L 282.135983 217.685691 
L 282.135983 210.827134 
L 144 210.827134 
z
" clip-path="url(#p82185c4afd)" style="fill: #0000ff"/>
   </g>
   <g id="patch_167">
    <path d="M 145.620363 217.685691 
L 274.034166 217.685691 
L 274.034166 210.827134 
L 145.620363 210.827134 
z
" clip-path="url(#p82185c4afd)" style="fill: #0000ff"/>
   </g>
   <g id="patch_168">
    <path d="M 146.430545 217.685691 
L 276.05962 217.685691 
L 276.05962 210.827134 
L 146.430545 210.827134 
z
" clip-path="url(#p82185c4afd)" style="fill: #0000ff"/>
   </g>
   <g id="patch_169">
    <path d="M 146.430545 217.685691 
L 276.464711 217.685691 
L 276.464711 210.827134 
L 146.430545 210.827134 
z
" clip-path="url(#p82185c4afd)" style="fill: #0000ff"/>
   </g>
   <g id="patch_170">
    <path d="M 146.835636 217.685691 
L 276.464711 217.685691 
L 276.464711 210.827134 
L 146.835636 210.827134 
z
" clip-path="url(#p82185c4afd)" style="fill: #0000ff"/>
   </g>
   <g id="patch_171">
    <path d="M 146.835636 217.685691 
L 278.895256 217.685691 
L 278.895256 210.827134 
L 146.835636 210.827134 
z
" clip-path="url(#p82185c4afd)" style="fill: #0000ff"/>
   </g>
   <g id="patch_172">
    <path d="M 147.645818 217.685691 
L 258.640713 217.685691 
L 258.640713 210.827134 
L 147.645818 210.827134 
z
" clip-path="url(#p82185c4afd)" style="fill: #0000ff"/>
   </g>
   <g id="patch_173">
    <path d="M 148.050909 217.685691 
L 275.249439 217.685691 
L 275.249439 210.827134 
L 148.050909 210.827134 
z
" clip-path="url(#p82185c4afd)" style="fill: #0000ff"/>
   </g>
   <g id="patch_174">
    <path d="M 148.050909 217.685691 
L 276.05962 217.685691 
L 276.05962 210.827134 
L 148.050909 210.827134 
z
" clip-path="url(#p82185c4afd)" style="fill: #0000ff"/>
   </g>
   <g id="patch_175">
    <path d="M 148.050909 217.685691 
L 276.464711 217.685691 
L 276.464711 210.827134 
L 148.050909 210.827134 
z
" clip-path="url(#p82185c4afd)" style="fill: #0000ff"/>
   </g>
   <g id="patch_176">
    <path d="M 148.455999 217.685691 
L 274.034166 217.685691 
L 274.034166 210.827134 
L 148.455999 210.827134 
z
" clip-path="url(#p82185c4afd)" style="fill: #0000ff"/>
   </g>
   <g id="patch_177">
    <path d="M 148.455999 217.685691 
L 274.844348 217.685691 
L 274.844348 210.827134 
L 148.455999 210.827134 
z
" clip-path="url(#p82185c4afd)" style="fill: #0000ff"/>
   </g>
   <g id="patch_178">
    <path d="M 148.455999 217.685691 
L 274.844348 217.685691 
L 274.844348 210.827134 
L 148.455999 210.827134 
z
" clip-path="url(#p82185c4afd)" style="fill: #0000ff"/>
   </g>
   <g id="patch_179">
    <path d="M 151.696726 217.685691 
L 269.173076 217.685691 
L 269.173076 210.827134 
L 151.696726 210.827134 
z
" clip-path="url(#p82185c4afd)" style="fill: #0000ff"/>
   </g>
   <g id="patch_180">
    <path d="M 144 197.367216 
L 150.076363 197.367216 
L 150.076363 196.852825 
L 144 196.852825 
z
" clip-path="url(#p82185c4afd)" style="fill: #0000ff"/>
   </g>
   <g id="patch_181">
    <path d="M 150.481454 200.539299 
L 267.147621 200.539299 
L 267.147621 193.680742 
L 150.481454 193.680742 
z
" clip-path="url(#p82185c4afd)" style="fill: #0000ff"/>
   </g>
   <g id="patch_182">
    <path d="M 150.481454 200.539299 
L 278.895256 200.539299 
L 278.895256 193.680742 
L 150.481454 193.680742 
z
" clip-path="url(#p82185c4afd)" style="fill: #0000ff"/>
   </g>
   <g id="patch_183">
    <path d="M 150.481454 200.539299 
L 269.578166 200.539299 
L 269.578166 193.680742 
L 150.481454 193.680742 
z
" clip-path="url(#p82185c4afd)" style="fill: #0000ff"/>
   </g>
   <g id="patch_184">
    <path d="M 150.481454 200.539299 
L 283.351256 200.539299 
L 283.351256 193.680742 
L 150.481454 193.680742 
z
" clip-path="url(#p82185c4afd)" style="fill: #0000ff"/>
   </g>
   <g id="patch_185">
    <path d="M 150.481454 200.539299 
L 280.110529 200.539299 
L 280.110529 193.680742 
L 150.481454 193.680742 
z
" clip-path="url(#p82185c4afd)" style="fill: #0000ff"/>
   </g>
   <g id="patch_186">
    <path d="M 151.291635 200.539299 
L 274.844348 200.539299 
L 274.844348 193.680742 
L 151.291635 193.680742 
z
" clip-path="url(#p82185c4afd)" style="fill: #0000ff"/>
   </g>
   <g id="patch_187">
    <path d="M 283.756347 197.367216 
L 283.756347 197.367216 
L 283.756347 196.852825 
L 283.756347 196.852825 
z
" clip-path="url(#p82185c4afd)" style="fill: #0000ff"/>
   </g>
   <g id="patch_188">
    <path d="M 144 180.220825 
L 150.886545 180.220825 
L 150.886545 179.706433 
L 144 179.706433 
z
" clip-path="url(#p82185c4afd)" style="fill: #0000ff"/>
   </g>
   <g id="patch_189">
    <path d="M 151.291635 183.392907 
L 269.983257 183.392907 
L 269.983257 176.534351 
L 151.291635 176.534351 
z
" clip-path="url(#p82185c4afd)" style="fill: #0000ff"/>
   </g>
   <g id="patch_190">
    <path d="M 270.388348 180.220825 
L 280.51562 180.220825 
L 280.51562 179.706433 
L 270.388348 179.706433 
z
" clip-path="url(#p82185c4afd)" style="fill: #0000ff"/>
   </g>
   <g id="patch_191">
    <path d="M 144 163.074433 
L 218.536718 163.074433 
L 218.536718 162.560041 
L 144 162.560041 
z
" clip-path="url(#p82185c4afd)" style="fill: #0000ff"/>
   </g>
   <g id="patch_192">
    <path d="M 218.941809 166.246515 
L 343.709794 166.246515 
L 343.709794 159.387959 
L 218.941809 159.387959 
z
" clip-path="url(#p82185c4afd)" style="fill: #0000ff"/>
   </g>
   <g id="patch_193">
    <path d="M 219.3469 166.246515 
L 343.304703 166.246515 
L 343.304703 159.387959 
L 219.3469 159.387959 
z
" clip-path="url(#p82185c4afd)" style="fill: #0000ff"/>
   </g>
   <g id="patch_194">
    <path d="M 219.3469 166.246515 
L 343.709794 166.246515 
L 343.709794 159.387959 
L 219.3469 159.387959 
z
" clip-path="url(#p82185c4afd)" style="fill: #0000ff"/>
   </g>
   <g id="patch_195">
    <path d="M 219.751991 166.246515 
L 344.114885 166.246515 
L 344.114885 159.387959 
L 219.751991 159.387959 
z
" clip-path="url(#p82185c4afd)" style="fill: #0000ff"/>
   </g>
   <g id="patch_196">
    <path d="M 219.751991 166.246515 
L 345.330157 166.246515 
L 345.330157 159.387959 
L 219.751991 159.387959 
z
" clip-path="url(#p82185c4afd)" style="fill: #0000ff"/>
   </g>
   <g id="patch_197">
    <path d="M 220.157082 166.246515 
L 343.709794 166.246515 
L 343.709794 159.387959 
L 220.157082 159.387959 
z
" clip-path="url(#p82185c4afd)" style="fill: #0000ff"/>
   </g>
   <g id="patch_198">
    <path d="M 220.157082 166.246515 
L 342.494521 166.246515 
L 342.494521 159.387959 
L 220.157082 159.387959 
z
" clip-path="url(#p82185c4afd)" style="fill: #0000ff"/>
   </g>
   <g id="patch_199">
    <path d="M 221.777445 166.246515 
L 342.08943 166.246515 
L 342.08943 159.387959 
L 221.777445 159.387959 
z
" clip-path="url(#p82185c4afd)" style="fill: #0000ff"/>
   </g>
   <g id="patch_200">
    <path d="M 345.735248 163.074433 
L 368.825427 163.074433 
L 368.825427 162.560041 
L 345.735248 162.560041 
z
" clip-path="url(#p82185c4afd)" style="fill: #0000ff"/>
   </g>
   <g id="patch_201">
    <path d="M 144 145.928041 
L 247.298169 145.928041 
L 247.298169 145.413649 
L 144 145.413649 
z
" clip-path="url(#p82185c4afd)" style="fill: #0000ff"/>
   </g>
   <g id="patch_202">
    <path d="M 247.70326 149.100124 
L 370.445791 149.100124 
L 370.445791 142.241567 
L 247.70326 142.241567 
z
" clip-path="url(#p82185c4afd)" style="fill: #0000ff"/>
   </g>
   <g id="patch_203">
    <path d="M 247.70326 149.100124 
L 370.850881 149.100124 
L 370.850881 142.241567 
L 247.70326 142.241567 
z
" clip-path="url(#p82185c4afd)" style="fill: #0000ff"/>
   </g>
   <g id="patch_204">
    <path d="M 248.108351 149.100124 
L 372.471245 149.100124 
L 372.471245 142.241567 
L 248.108351 142.241567 
z
" clip-path="url(#p82185c4afd)" style="fill: #0000ff"/>
   </g>
   <g id="patch_205">
    <path d="M 248.513442 149.100124 
L 370.850881 149.100124 
L 370.850881 142.241567 
L 248.513442 142.241567 
z
" clip-path="url(#p82185c4afd)" style="fill: #0000ff"/>
   </g>
   <g id="patch_206">
    <path d="M 248.513442 149.100124 
L 373.281427 149.100124 
L 373.281427 142.241567 
L 248.513442 142.241567 
z
" clip-path="url(#p82185c4afd)" style="fill: #0000ff"/>
   </g>
   <g id="patch_207">
    <path d="M 248.513442 149.100124 
L 371.255972 149.100124 
L 371.255972 142.241567 
L 248.513442 142.241567 
z
" clip-path="url(#p82185c4afd)" style="fill: #0000ff"/>
   </g>
   <g id="patch_208">
    <path d="M 250.133805 149.100124 
L 370.0407 149.100124 
L 370.0407 142.241567 
L 250.133805 142.241567 
z
" clip-path="url(#p82185c4afd)" style="fill: #0000ff"/>
   </g>
   <g id="patch_209">
    <path d="M 250.133805 149.100124 
L 369.230518 149.100124 
L 369.230518 142.241567 
L 250.133805 142.241567 
z
" clip-path="url(#p82185c4afd)" style="fill: #0000ff"/>
   </g>
   <g id="patch_210">
    <path d="M 262.286531 149.100124 
L 367.610154 149.100124 
L 367.610154 142.241567 
L 262.286531 142.241567 
z
" clip-path="url(#p82185c4afd)" style="fill: #0000ff"/>
   </g>
   <g id="patch_211">
    <path d="M 263.501804 149.100124 
L 370.850881 149.100124 
L 370.850881 142.241567 
L 263.501804 142.241567 
z
" clip-path="url(#p82185c4afd)" style="fill: #0000ff"/>
   </g>
   <g id="patch_212">
    <path d="M 305.631253 149.100124 
L 368.420336 149.100124 
L 368.420336 142.241567 
L 305.631253 142.241567 
z
" clip-path="url(#p82185c4afd)" style="fill: #0000ff"/>
   </g>
   <g id="patch_213">
    <path d="M 341.279249 149.100124 
L 368.015245 149.100124 
L 368.015245 142.241567 
L 341.279249 142.241567 
z
" clip-path="url(#p82185c4afd)" style="fill: #0000ff"/>
   </g>
   <g id="patch_214">
    <path d="M 373.686517 145.928041 
L 400.827605 145.928041 
L 400.827605 145.413649 
L 373.686517 145.413649 
z
" clip-path="url(#p82185c4afd)" style="fill: #0000ff"/>
   </g>
   <g id="patch_215">
    <path d="M 144 128.781649 
L 152.506908 128.781649 
L 152.506908 128.267258 
L 144 128.267258 
z
" clip-path="url(#p82185c4afd)" style="fill: #0000ff"/>
   </g>
   <g id="patch_216">
    <path d="M 152.911999 131.953732 
L 242.437079 131.953732 
L 242.437079 125.095175 
L 152.911999 125.095175 
z
" clip-path="url(#p82185c4afd)" style="fill: #0000ff"/>
   </g>
   <g id="patch_217">
    <path d="M 161.823998 131.953732 
L 370.850881 131.953732 
L 370.850881 125.095175 
L 161.823998 125.095175 
z
" clip-path="url(#p82185c4afd)" style="fill: #0000ff"/>
   </g>
   <g id="patch_218">
    <path d="M 161.823998 131.953732 
L 369.230518 131.953732 
L 369.230518 125.095175 
L 161.823998 125.095175 
z
" clip-path="url(#p82185c4afd)" style="fill: #0000ff"/>
   </g>
   <g id="patch_219">
    <path d="M 161.823998 131.953732 
L 372.066154 131.953732 
L 372.066154 125.095175 
L 161.823998 125.095175 
z
" clip-path="url(#p82185c4afd)" style="fill: #0000ff"/>
   </g>
   <g id="patch_220">
    <path d="M 161.823998 131.953732 
L 372.066154 131.953732 
L 372.066154 125.095175 
L 161.823998 125.095175 
z
" clip-path="url(#p82185c4afd)" style="fill: #0000ff"/>
   </g>
   <g id="patch_221">
    <path d="M 161.823998 131.953732 
L 370.445791 131.953732 
L 370.445791 125.095175 
L 161.823998 125.095175 
z
" clip-path="url(#p82185c4afd)" style="fill: #0000ff"/>
   </g>
   <g id="patch_222">
    <path d="M 162.229089 131.953732 
L 353.837065 131.953732 
L 353.837065 125.095175 
L 162.229089 125.095175 
z
" clip-path="url(#p82185c4afd)" style="fill: #0000ff"/>
   </g>
   <g id="patch_223">
    <path d="M 162.229089 131.953732 
L 372.066154 131.953732 
L 372.066154 125.095175 
L 162.229089 125.095175 
z
" clip-path="url(#p82185c4afd)" style="fill: #0000ff"/>
   </g>
   <g id="patch_224">
    <path d="M 162.229089 131.953732 
L 369.635609 131.953732 
L 369.635609 125.095175 
L 162.229089 125.095175 
z
" clip-path="url(#p82185c4afd)" style="fill: #0000ff"/>
   </g>
   <g id="patch_225">
    <path d="M 162.229089 131.953732 
L 372.066154 131.953732 
L 372.066154 125.095175 
L 162.229089 125.095175 
z
" clip-path="url(#p82185c4afd)" style="fill: #0000ff"/>
   </g>
   <g id="patch_226">
    <path d="M 162.229089 131.953732 
L 371.255972 131.953732 
L 371.255972 125.095175 
L 162.229089 125.095175 
z
" clip-path="url(#p82185c4afd)" style="fill: #0000ff"/>
   </g>
   <g id="patch_227">
    <path d="M 162.63418 131.953732 
L 371.255972 131.953732 
L 371.255972 125.095175 
L 162.63418 125.095175 
z
" clip-path="url(#p82185c4afd)" style="fill: #0000ff"/>
   </g>
   <g id="patch_228">
    <path d="M 163.03927 131.953732 
L 371.255972 131.953732 
L 371.255972 125.095175 
L 163.03927 125.095175 
z
" clip-path="url(#p82185c4afd)" style="fill: #0000ff"/>
   </g>
   <g id="patch_229">
    <path d="M 163.03927 131.953732 
L 344.925066 131.953732 
L 344.925066 125.095175 
L 163.03927 125.095175 
z
" clip-path="url(#p82185c4afd)" style="fill: #0000ff"/>
   </g>
   <g id="patch_230">
    <path d="M 163.03927 131.953732 
L 370.445791 131.953732 
L 370.445791 125.095175 
L 163.03927 125.095175 
z
" clip-path="url(#p82185c4afd)" style="fill: #0000ff"/>
   </g>
   <g id="patch_231">
    <path d="M 163.444361 131.953732 
L 243.652351 131.953732 
L 243.652351 125.095175 
L 163.444361 125.095175 
z
" clip-path="url(#p82185c4afd)" style="fill: #0000ff"/>
   </g>
   <g id="patch_232">
    <path d="M 163.444361 131.953732 
L 348.570884 131.953732 
L 348.570884 125.095175 
L 163.444361 125.095175 
z
" clip-path="url(#p82185c4afd)" style="fill: #0000ff"/>
   </g>
   <g id="patch_233">
    <path d="M 163.849452 131.953732 
L 354.647247 131.953732 
L 354.647247 125.095175 
L 163.849452 125.095175 
z
" clip-path="url(#p82185c4afd)" style="fill: #0000ff"/>
   </g>
   <g id="patch_234">
    <path d="M 163.849452 131.953732 
L 371.661063 131.953732 
L 371.661063 125.095175 
L 163.849452 125.095175 
z
" clip-path="url(#p82185c4afd)" style="fill: #0000ff"/>
   </g>
   <g id="patch_235">
    <path d="M 164.254543 131.953732 
L 371.255972 131.953732 
L 371.255972 125.095175 
L 164.254543 125.095175 
z
" clip-path="url(#p82185c4afd)" style="fill: #0000ff"/>
   </g>
   <g id="patch_236">
    <path d="M 164.254543 131.953732 
L 252.56435 131.953732 
L 252.56435 125.095175 
L 164.254543 125.095175 
z
" clip-path="url(#p82185c4afd)" style="fill: #0000ff"/>
   </g>
   <g id="patch_237">
    <path d="M 165.874906 131.953732 
L 354.242156 131.953732 
L 354.242156 125.095175 
L 165.874906 125.095175 
z
" clip-path="url(#p82185c4afd)" style="fill: #0000ff"/>
   </g>
   <g id="patch_238">
    <path d="M 168.710542 131.953732 
L 329.936705 131.953732 
L 329.936705 125.095175 
L 168.710542 125.095175 
z
" clip-path="url(#p82185c4afd)" style="fill: #0000ff"/>
   </g>
   <g id="patch_239">
    <path d="M 189.370176 131.953732 
L 357.887974 131.953732 
L 357.887974 125.095175 
L 189.370176 125.095175 
z
" clip-path="url(#p82185c4afd)" style="fill: #0000ff"/>
   </g>
   <g id="patch_240">
    <path d="M 372.471245 128.781649 
L 372.471245 128.781649 
L 372.471245 128.267258 
L 372.471245 128.267258 
z
" clip-path="url(#p82185c4afd)" style="fill: #0000ff"/>
   </g>
   <g id="patch_241">
    <path d="M 144 114.80734 
L 265.932349 114.80734 
L 265.932349 107.948784 
L 144 107.948784 
z
" clip-path="url(#p82185c4afd)" style="fill: #0000ff"/>
   </g>
   <g id="patch_242">
    <path d="M 146.430545 114.80734 
L 263.096713 114.80734 
L 263.096713 107.948784 
L 146.430545 107.948784 
z
" clip-path="url(#p82185c4afd)" style="fill: #0000ff"/>
   </g>
   <g id="patch_243">
    <path d="M 146.835636 114.80734 
L 260.666168 114.80734 
L 260.666168 107.948784 
L 146.835636 107.948784 
z
" clip-path="url(#p82185c4afd)" style="fill: #0000ff"/>
   </g>
   <g id="patch_244">
    <path d="M 148.050909 114.80734 
L 261.071258 114.80734 
L 261.071258 107.948784 
L 148.050909 107.948784 
z
" clip-path="url(#p82185c4afd)" style="fill: #0000ff"/>
   </g>
   <g id="patch_245">
    <path d="M 144 94.488866 
L 147.645818 94.488866 
L 147.645818 93.974474 
L 144 93.974474 
z
" clip-path="url(#p82185c4afd)" style="fill: #0000ff"/>
   </g>
   <g id="patch_246">
    <path d="M 148.050909 97.660948 
L 256.615259 97.660948 
L 256.615259 90.802392 
L 148.050909 90.802392 
z
" clip-path="url(#p82185c4afd)" style="fill: #0000ff"/>
   </g>
   <g id="patch_247">
    <path d="M 148.050909 97.660948 
L 266.74253 97.660948 
L 266.74253 90.802392 
L 148.050909 90.802392 
z
" clip-path="url(#p82185c4afd)" style="fill: #0000ff"/>
   </g>
   <g id="patch_248">
    <path d="M 157.773089 97.660948 
L 265.932349 97.660948 
L 265.932349 90.802392 
L 157.773089 90.802392 
z
" clip-path="url(#p82185c4afd)" style="fill: #0000ff"/>
   </g>
   <g id="patch_249">
    <path d="M 160.203634 97.660948 
L 268.362894 97.660948 
L 268.362894 90.802392 
L 160.203634 90.802392 
z
" clip-path="url(#p82185c4afd)" style="fill: #0000ff"/>
   </g>
   <g id="patch_250">
    <path d="M 162.63418 97.660948 
L 257.425441 97.660948 
L 257.425441 90.802392 
L 162.63418 90.802392 
z
" clip-path="url(#p82185c4afd)" style="fill: #0000ff"/>
   </g>
   <g id="patch_251">
    <path d="M 268.767985 94.488866 
L 270.793439 94.488866 
L 270.793439 93.974474 
L 268.767985 93.974474 
z
" clip-path="url(#p82185c4afd)" style="fill: #0000ff"/>
   </g>
   <g id="patch_252">
    <path d="M 144 77.342474 
L 145.215273 77.342474 
L 145.215273 76.828082 
L 144 76.828082 
z
" clip-path="url(#p82185c4afd)" style="fill: #0000ff"/>
   </g>
   <g id="patch_253">
    <path d="M 145.620363 80.514557 
L 269.983257 80.514557 
L 269.983257 73.656 
L 145.620363 73.656 
z
" clip-path="url(#p82185c4afd)" style="fill: #0000ff"/>
   </g>
   <g id="patch_254">
    <path d="M 146.430545 80.514557 
L 265.122167 80.514557 
L 265.122167 73.656 
L 146.430545 73.656 
z
" clip-path="url(#p82185c4afd)" style="fill: #0000ff"/>
   </g>
   <g id="patch_255">
    <path d="M 146.430545 80.514557 
L 267.552712 80.514557 
L 267.552712 73.656 
L 146.430545 73.656 
z
" clip-path="url(#p82185c4afd)" style="fill: #0000ff"/>
   </g>
   <g id="patch_256">
    <path d="M 147.240727 80.514557 
L 265.932349 80.514557 
L 265.932349 73.656 
L 147.240727 73.656 
z
" clip-path="url(#p82185c4afd)" style="fill: #0000ff"/>
   </g>
   <g id="patch_257">
    <path d="M 147.645818 80.514557 
L 264.311985 80.514557 
L 264.311985 73.656 
L 147.645818 73.656 
z
" clip-path="url(#p82185c4afd)" style="fill: #0000ff"/>
   </g>
   <g id="patch_258">
    <path d="M 149.266181 80.514557 
L 265.932349 80.514557 
L 265.932349 73.656 
L 149.266181 73.656 
z
" clip-path="url(#p82185c4afd)" style="fill: #0000ff"/>
   </g>
   <g id="patch_259">
    <path d="M 150.076363 80.514557 
L 265.932349 80.514557 
L 265.932349 73.656 
L 150.076363 73.656 
z
" clip-path="url(#p82185c4afd)" style="fill: #0000ff"/>
   </g>
   <g id="patch_260">
    <path d="M 270.388348 77.342474 
L 278.085075 77.342474 
L 278.085075 76.828082 
L 270.388348 76.828082 
z
" clip-path="url(#p82185c4afd)" style="fill: #0000ff"/>
   </g>
   <g id="matplotlib.axis_1">
    <g id="xtick_1">
     <g id="line2d_1">
      <defs>
       <path id="mdd4c4ef4c1" d="M 0 0 
L 0 3.5 
" style="stroke: #000000; stroke-width: 0.8"/>
      </defs>
      <g>
       <use xlink:href="#mdd4c4ef4c1" x="244.867624" y="422.928" style="stroke: #000000; stroke-width: 0.8"/>
      </g>
     </g>
     <g id="text_1">
      <!-- 250 -->
      <g transform="translate(235.323874 437.526437) scale(0.1 -0.1)">
       <defs>
        <path id="DejaVuSans-32" d="M 1228 531 
L 3431 531 
L 3431 0 
L 469 0 
L 469 531 
Q 828 903 1448 1529 
Q 2069 2156 2228 2338 
Q 2531 2678 2651 2914 
Q 2772 3150 2772 3378 
Q 2772 3750 2511 3984 
Q 2250 4219 1831 4219 
Q 1534 4219 1204 4116 
Q 875 4013 500 3803 
L 500 4441 
Q 881 4594 1212 4672 
Q 1544 4750 1819 4750 
Q 2544 4750 2975 4387 
Q 3406 4025 3406 3419 
Q 3406 3131 3298 2873 
Q 3191 2616 2906 2266 
Q 2828 2175 2409 1742 
Q 1991 1309 1228 531 
z
" transform="scale(0.015625)"/>
        <path id="DejaVuSans-35" d="M 691 4666 
L 3169 4666 
L 3169 4134 
L 1269 4134 
L 1269 2991 
Q 1406 3038 1543 3061 
Q 1681 3084 1819 3084 
Q 2600 3084 3056 2656 
Q 3513 2228 3513 1497 
Q 3513 744 3044 326 
Q 2575 -91 1722 -91 
Q 1428 -91 1123 -41 
Q 819 9 494 109 
L 494 744 
Q 775 591 1075 516 
Q 1375 441 1709 441 
Q 2250 441 2565 725 
Q 2881 1009 2881 1497 
Q 2881 1984 2565 2268 
Q 2250 2553 1709 2553 
Q 1456 2553 1204 2497 
Q 953 2441 691 2322 
L 691 4666 
z
" transform="scale(0.015625)"/>
        <path id="DejaVuSans-30" d="M 2034 4250 
Q 1547 4250 1301 3770 
Q 1056 3291 1056 2328 
Q 1056 1369 1301 889 
Q 1547 409 2034 409 
Q 2525 409 2770 889 
Q 3016 1369 3016 2328 
Q 3016 3291 2770 3770 
Q 2525 4250 2034 4250 
z
M 2034 4750 
Q 2819 4750 3233 4129 
Q 3647 3509 3647 2328 
Q 3647 1150 3233 529 
Q 2819 -91 2034 -91 
Q 1250 -91 836 529 
Q 422 1150 422 2328 
Q 422 3509 836 4129 
Q 1250 4750 2034 4750 
z
" transform="scale(0.015625)"/>
       </defs>
       <use xlink:href="#DejaVuSans-32"/>
       <use xlink:href="#DejaVuSans-35" x="63.623047"/>
       <use xlink:href="#DejaVuSans-30" x="127.246094"/>
      </g>
     </g>
    </g>
    <g id="xtick_2">
     <g id="line2d_2">
      <g>
       <use xlink:href="#mdd4c4ef4c1" x="346.140339" y="422.928" style="stroke: #000000; stroke-width: 0.8"/>
      </g>
     </g>
     <g id="text_2">
      <!-- 500 -->
      <g transform="translate(336.596589 437.526437) scale(0.1 -0.1)">
       <use xlink:href="#DejaVuSans-35"/>
       <use xlink:href="#DejaVuSans-30" x="63.623047"/>
       <use xlink:href="#DejaVuSans-30" x="127.246094"/>
      </g>
     </g>
    </g>
    <g id="xtick_3">
     <g id="line2d_3">
      <g>
       <use xlink:href="#mdd4c4ef4c1" x="447.413054" y="422.928" style="stroke: #000000; stroke-width: 0.8"/>
      </g>
     </g>
     <g id="text_3">
      <!-- 750 -->
      <g transform="translate(437.869304 437.526437) scale(0.1 -0.1)">
       <defs>
        <path id="DejaVuSans-37" d="M 525 4666 
L 3525 4666 
L 3525 4397 
L 1831 0 
L 1172 0 
L 2766 4134 
L 525 4134 
L 525 4666 
z
" transform="scale(0.015625)"/>
       </defs>
       <use xlink:href="#DejaVuSans-37"/>
       <use xlink:href="#DejaVuSans-35" x="63.623047"/>
       <use xlink:href="#DejaVuSans-30" x="127.246094"/>
      </g>
     </g>
    </g>
    <g id="xtick_4">
     <g id="line2d_4">
      <g>
       <use xlink:href="#mdd4c4ef4c1" x="548.685769" y="422.928" style="stroke: #000000; stroke-width: 0.8"/>
      </g>
     </g>
     <g id="text_4">
      <!-- 1000 -->
      <g transform="translate(535.960769 437.526437) scale(0.1 -0.1)">
       <defs>
        <path id="DejaVuSans-31" d="M 794 531 
L 1825 531 
L 1825 4091 
L 703 3866 
L 703 4441 
L 1819 4666 
L 2450 4666 
L 2450 531 
L 3481 531 
L 3481 0 
L 794 0 
L 794 531 
z
" transform="scale(0.015625)"/>
       </defs>
       <use xlink:href="#DejaVuSans-31"/>
       <use xlink:href="#DejaVuSans-30" x="63.623047"/>
       <use xlink:href="#DejaVuSans-30" x="127.246094"/>
       <use xlink:href="#DejaVuSans-30" x="190.869141"/>
      </g>
     </g>
    </g>
    <g id="xtick_5">
     <g id="line2d_5">
      <g>
       <use xlink:href="#mdd4c4ef4c1" x="649.958484" y="422.928" style="stroke: #000000; stroke-width: 0.8"/>
      </g>
     </g>
     <g id="text_5">
      <!-- 1250 -->
      <g transform="translate(637.233484 437.526437) scale(0.1 -0.1)">
       <use xlink:href="#DejaVuSans-31"/>
       <use xlink:href="#DejaVuSans-32" x="63.623047"/>
       <use xlink:href="#DejaVuSans-35" x="127.246094"/>
       <use xlink:href="#DejaVuSans-30" x="190.869141"/>
      </g>
     </g>
    </g>
    <g id="xtick_6">
     <g id="line2d_6">
      <g>
       <use xlink:href="#mdd4c4ef4c1" x="751.231199" y="422.928" style="stroke: #000000; stroke-width: 0.8"/>
      </g>
     </g>
     <g id="text_6">
      <!-- 1500 -->
      <g transform="translate(738.506199 437.526437) scale(0.1 -0.1)">
       <use xlink:href="#DejaVuSans-31"/>
       <use xlink:href="#DejaVuSans-35" x="63.623047"/>
       <use xlink:href="#DejaVuSans-30" x="127.246094"/>
       <use xlink:href="#DejaVuSans-30" x="190.869141"/>
      </g>
     </g>
    </g>
    <g id="xtick_7">
     <g id="line2d_7">
      <g>
       <use xlink:href="#mdd4c4ef4c1" x="852.503913" y="422.928" style="stroke: #000000; stroke-width: 0.8"/>
      </g>
     </g>
     <g id="text_7">
      <!-- 1750 -->
      <g transform="translate(839.778913 437.526437) scale(0.1 -0.1)">
       <use xlink:href="#DejaVuSans-31"/>
       <use xlink:href="#DejaVuSans-37" x="63.623047"/>
       <use xlink:href="#DejaVuSans-35" x="127.246094"/>
       <use xlink:href="#DejaVuSans-30" x="190.869141"/>
      </g>
     </g>
    </g>
    <g id="xtick_8">
     <g id="line2d_8">
      <g>
       <use xlink:href="#mdd4c4ef4c1" x="953.776628" y="422.928" style="stroke: #000000; stroke-width: 0.8"/>
      </g>
     </g>
     <g id="text_8">
      <!-- 2000 -->
      <g transform="translate(941.051628 437.526437) scale(0.1 -0.1)">
       <use xlink:href="#DejaVuSans-32"/>
       <use xlink:href="#DejaVuSans-30" x="63.623047"/>
       <use xlink:href="#DejaVuSans-30" x="127.246094"/>
       <use xlink:href="#DejaVuSans-30" x="190.869141"/>
      </g>
     </g>
    </g>
    <g id="text_9">
     <!-- Residual -->
     <g transform="translate(569.284375 451.204563) scale(0.1 -0.1)">
      <defs>
       <path id="DejaVuSans-52" d="M 2841 2188 
Q 3044 2119 3236 1894 
Q 3428 1669 3622 1275 
L 4263 0 
L 3584 0 
L 2988 1197 
Q 2756 1666 2539 1819 
Q 2322 1972 1947 1972 
L 1259 1972 
L 1259 0 
L 628 0 
L 628 4666 
L 2053 4666 
Q 2853 4666 3247 4331 
Q 3641 3997 3641 3322 
Q 3641 2881 3436 2590 
Q 3231 2300 2841 2188 
z
M 1259 4147 
L 1259 2491 
L 2053 2491 
Q 2509 2491 2742 2702 
Q 2975 2913 2975 3322 
Q 2975 3731 2742 3939 
Q 2509 4147 2053 4147 
L 1259 4147 
z
" transform="scale(0.015625)"/>
       <path id="DejaVuSans-65" d="M 3597 1894 
L 3597 1613 
L 953 1613 
Q 991 1019 1311 708 
Q 1631 397 2203 397 
Q 2534 397 2845 478 
Q 3156 559 3463 722 
L 3463 178 
Q 3153 47 2828 -22 
Q 2503 -91 2169 -91 
Q 1331 -91 842 396 
Q 353 884 353 1716 
Q 353 2575 817 3079 
Q 1281 3584 2069 3584 
Q 2775 3584 3186 3129 
Q 3597 2675 3597 1894 
z
M 3022 2063 
Q 3016 2534 2758 2815 
Q 2500 3097 2075 3097 
Q 1594 3097 1305 2825 
Q 1016 2553 972 2059 
L 3022 2063 
z
" transform="scale(0.015625)"/>
       <path id="DejaVuSans-73" d="M 2834 3397 
L 2834 2853 
Q 2591 2978 2328 3040 
Q 2066 3103 1784 3103 
Q 1356 3103 1142 2972 
Q 928 2841 928 2578 
Q 928 2378 1081 2264 
Q 1234 2150 1697 2047 
L 1894 2003 
Q 2506 1872 2764 1633 
Q 3022 1394 3022 966 
Q 3022 478 2636 193 
Q 2250 -91 1575 -91 
Q 1294 -91 989 -36 
Q 684 19 347 128 
L 347 722 
Q 666 556 975 473 
Q 1284 391 1588 391 
Q 1994 391 2212 530 
Q 2431 669 2431 922 
Q 2431 1156 2273 1281 
Q 2116 1406 1581 1522 
L 1381 1569 
Q 847 1681 609 1914 
Q 372 2147 372 2553 
Q 372 3047 722 3315 
Q 1072 3584 1716 3584 
Q 2034 3584 2315 3537 
Q 2597 3491 2834 3397 
z
" transform="scale(0.015625)"/>
       <path id="DejaVuSans-69" d="M 603 3500 
L 1178 3500 
L 1178 0 
L 603 0 
L 603 3500 
z
M 603 4863 
L 1178 4863 
L 1178 4134 
L 603 4134 
L 603 4863 
z
" transform="scale(0.015625)"/>
       <path id="DejaVuSans-64" d="M 2906 2969 
L 2906 4863 
L 3481 4863 
L 3481 0 
L 2906 0 
L 2906 525 
Q 2725 213 2448 61 
Q 2172 -91 1784 -91 
Q 1150 -91 751 415 
Q 353 922 353 1747 
Q 353 2572 751 3078 
Q 1150 3584 1784 3584 
Q 2172 3584 2448 3432 
Q 2725 3281 2906 2969 
z
M 947 1747 
Q 947 1113 1208 752 
Q 1469 391 1925 391 
Q 2381 391 2643 752 
Q 2906 1113 2906 1747 
Q 2906 2381 2643 2742 
Q 2381 3103 1925 3103 
Q 1469 3103 1208 2742 
Q 947 2381 947 1747 
z
" transform="scale(0.015625)"/>
       <path id="DejaVuSans-75" d="M 544 1381 
L 544 3500 
L 1119 3500 
L 1119 1403 
Q 1119 906 1312 657 
Q 1506 409 1894 409 
Q 2359 409 2629 706 
Q 2900 1003 2900 1516 
L 2900 3500 
L 3475 3500 
L 3475 0 
L 2900 0 
L 2900 538 
Q 2691 219 2414 64 
Q 2138 -91 1772 -91 
Q 1169 -91 856 284 
Q 544 659 544 1381 
z
M 1991 3584 
L 1991 3584 
z
" transform="scale(0.015625)"/>
       <path id="DejaVuSans-61" d="M 2194 1759 
Q 1497 1759 1228 1600 
Q 959 1441 959 1056 
Q 959 750 1161 570 
Q 1363 391 1709 391 
Q 2188 391 2477 730 
Q 2766 1069 2766 1631 
L 2766 1759 
L 2194 1759 
z
M 3341 1997 
L 3341 0 
L 2766 0 
L 2766 531 
Q 2569 213 2275 61 
Q 1981 -91 1556 -91 
Q 1019 -91 701 211 
Q 384 513 384 1019 
Q 384 1609 779 1909 
Q 1175 2209 1959 2209 
L 2766 2209 
L 2766 2266 
Q 2766 2663 2505 2880 
Q 2244 3097 1772 3097 
Q 1472 3097 1187 3025 
Q 903 2953 641 2809 
L 641 3341 
Q 956 3463 1253 3523 
Q 1550 3584 1831 3584 
Q 2591 3584 2966 3190 
Q 3341 2797 3341 1997 
z
" transform="scale(0.015625)"/>
       <path id="DejaVuSans-6c" d="M 603 4863 
L 1178 4863 
L 1178 0 
L 603 0 
L 603 4863 
z
" transform="scale(0.015625)"/>
      </defs>
      <use xlink:href="#DejaVuSans-52"/>
      <use xlink:href="#DejaVuSans-65" x="64.982422"/>
      <use xlink:href="#DejaVuSans-73" x="126.505859"/>
      <use xlink:href="#DejaVuSans-69" x="178.605469"/>
      <use xlink:href="#DejaVuSans-64" x="206.388672"/>
      <use xlink:href="#DejaVuSans-75" x="269.865234"/>
      <use xlink:href="#DejaVuSans-61" x="333.244141"/>
      <use xlink:href="#DejaVuSans-6c" x="394.523438"/>
     </g>
    </g>
   </g>
   <g id="matplotlib.axis_2">
    <g id="ytick_1">
     <g id="line2d_9">
      <defs>
       <path id="mde0c1052bd" d="M 0 0 
L -3.5 0 
" style="stroke: #000000; stroke-width: 0.8"/>
      </defs>
      <g>
       <use xlink:href="#mde0c1052bd" x="144" y="402.866722" style="stroke: #000000; stroke-width: 0.8"/>
      </g>
     </g>
     <g id="text_10">
      <!-- 2.A.16.1.1 -->
      <g transform="translate(85.809375 406.66594) scale(0.1 -0.1)">
       <defs>
        <path id="DejaVuSans-2e" d="M 684 794 
L 1344 794 
L 1344 0 
L 684 0 
L 684 794 
z
" transform="scale(0.015625)"/>
        <path id="DejaVuSans-41" d="M 2188 4044 
L 1331 1722 
L 3047 1722 
L 2188 4044 
z
M 1831 4666 
L 2547 4666 
L 4325 0 
L 3669 0 
L 3244 1197 
L 1141 1197 
L 716 0 
L 50 0 
L 1831 4666 
z
" transform="scale(0.015625)"/>
        <path id="DejaVuSans-36" d="M 2113 2584 
Q 1688 2584 1439 2293 
Q 1191 2003 1191 1497 
Q 1191 994 1439 701 
Q 1688 409 2113 409 
Q 2538 409 2786 701 
Q 3034 994 3034 1497 
Q 3034 2003 2786 2293 
Q 2538 2584 2113 2584 
z
M 3366 4563 
L 3366 3988 
Q 3128 4100 2886 4159 
Q 2644 4219 2406 4219 
Q 1781 4219 1451 3797 
Q 1122 3375 1075 2522 
Q 1259 2794 1537 2939 
Q 1816 3084 2150 3084 
Q 2853 3084 3261 2657 
Q 3669 2231 3669 1497 
Q 3669 778 3244 343 
Q 2819 -91 2113 -91 
Q 1303 -91 875 529 
Q 447 1150 447 2328 
Q 447 3434 972 4092 
Q 1497 4750 2381 4750 
Q 2619 4750 2861 4703 
Q 3103 4656 3366 4563 
z
" transform="scale(0.015625)"/>
       </defs>
       <use xlink:href="#DejaVuSans-32"/>
       <use xlink:href="#DejaVuSans-2e" x="63.623047"/>
       <use xlink:href="#DejaVuSans-41" x="95.410156"/>
       <use xlink:href="#DejaVuSans-2e" x="162.068359"/>
       <use xlink:href="#DejaVuSans-31" x="193.855469"/>
       <use xlink:href="#DejaVuSans-36" x="257.478516"/>
       <use xlink:href="#DejaVuSans-2e" x="321.101562"/>
       <use xlink:href="#DejaVuSans-31" x="352.888672"/>
       <use xlink:href="#DejaVuSans-2e" x="416.511719"/>
       <use xlink:href="#DejaVuSans-31" x="448.298828"/>
      </g>
     </g>
    </g>
    <g id="ytick_2">
     <g id="line2d_10">
      <g>
       <use xlink:href="#mde0c1052bd" x="144" y="385.72033" style="stroke: #000000; stroke-width: 0.8"/>
      </g>
     </g>
     <g id="text_11">
      <!-- 2.A.16.1.2 -->
      <g transform="translate(85.809375 389.519549) scale(0.1 -0.1)">
       <use xlink:href="#DejaVuSans-32"/>
       <use xlink:href="#DejaVuSans-2e" x="63.623047"/>
       <use xlink:href="#DejaVuSans-41" x="95.410156"/>
       <use xlink:href="#DejaVuSans-2e" x="162.068359"/>
       <use xlink:href="#DejaVuSans-31" x="193.855469"/>
       <use xlink:href="#DejaVuSans-36" x="257.478516"/>
       <use xlink:href="#DejaVuSans-2e" x="321.101562"/>
       <use xlink:href="#DejaVuSans-31" x="352.888672"/>
       <use xlink:href="#DejaVuSans-2e" x="416.511719"/>
       <use xlink:href="#DejaVuSans-32" x="448.298828"/>
      </g>
     </g>
    </g>
    <g id="ytick_3">
     <g id="line2d_11">
      <g>
       <use xlink:href="#mde0c1052bd" x="144" y="368.573938" style="stroke: #000000; stroke-width: 0.8"/>
      </g>
     </g>
     <g id="text_12">
      <!-- 2.A.16.2.1 -->
      <g transform="translate(85.809375 372.373157) scale(0.1 -0.1)">
       <use xlink:href="#DejaVuSans-32"/>
       <use xlink:href="#DejaVuSans-2e" x="63.623047"/>
       <use xlink:href="#DejaVuSans-41" x="95.410156"/>
       <use xlink:href="#DejaVuSans-2e" x="162.068359"/>
       <use xlink:href="#DejaVuSans-31" x="193.855469"/>
       <use xlink:href="#DejaVuSans-36" x="257.478516"/>
       <use xlink:href="#DejaVuSans-2e" x="321.101562"/>
       <use xlink:href="#DejaVuSans-32" x="352.888672"/>
       <use xlink:href="#DejaVuSans-2e" x="416.511719"/>
       <use xlink:href="#DejaVuSans-31" x="448.298828"/>
      </g>
     </g>
    </g>
    <g id="ytick_4">
     <g id="line2d_12">
      <g>
       <use xlink:href="#mde0c1052bd" x="144" y="351.427546" style="stroke: #000000; stroke-width: 0.8"/>
      </g>
     </g>
     <g id="text_13">
      <!-- 2.A.16.2.2 -->
      <g transform="translate(85.809375 355.226765) scale(0.1 -0.1)">
       <use xlink:href="#DejaVuSans-32"/>
       <use xlink:href="#DejaVuSans-2e" x="63.623047"/>
       <use xlink:href="#DejaVuSans-41" x="95.410156"/>
       <use xlink:href="#DejaVuSans-2e" x="162.068359"/>
       <use xlink:href="#DejaVuSans-31" x="193.855469"/>
       <use xlink:href="#DejaVuSans-36" x="257.478516"/>
       <use xlink:href="#DejaVuSans-2e" x="321.101562"/>
       <use xlink:href="#DejaVuSans-32" x="352.888672"/>
       <use xlink:href="#DejaVuSans-2e" x="416.511719"/>
       <use xlink:href="#DejaVuSans-32" x="448.298828"/>
      </g>
     </g>
    </g>
    <g id="ytick_5">
     <g id="line2d_13">
      <g>
       <use xlink:href="#mde0c1052bd" x="144" y="334.281155" style="stroke: #000000; stroke-width: 0.8"/>
      </g>
     </g>
     <g id="text_14">
      <!-- 2.A.16.2.3 -->
      <g transform="translate(85.809375 338.080373) scale(0.1 -0.1)">
       <defs>
        <path id="DejaVuSans-33" d="M 2597 2516 
Q 3050 2419 3304 2112 
Q 3559 1806 3559 1356 
Q 3559 666 3084 287 
Q 2609 -91 1734 -91 
Q 1441 -91 1130 -33 
Q 819 25 488 141 
L 488 750 
Q 750 597 1062 519 
Q 1375 441 1716 441 
Q 2309 441 2620 675 
Q 2931 909 2931 1356 
Q 2931 1769 2642 2001 
Q 2353 2234 1838 2234 
L 1294 2234 
L 1294 2753 
L 1863 2753 
Q 2328 2753 2575 2939 
Q 2822 3125 2822 3475 
Q 2822 3834 2567 4026 
Q 2313 4219 1838 4219 
Q 1578 4219 1281 4162 
Q 984 4106 628 3988 
L 628 4550 
Q 988 4650 1302 4700 
Q 1616 4750 1894 4750 
Q 2613 4750 3031 4423 
Q 3450 4097 3450 3541 
Q 3450 3153 3228 2886 
Q 3006 2619 2597 2516 
z
" transform="scale(0.015625)"/>
       </defs>
       <use xlink:href="#DejaVuSans-32"/>
       <use xlink:href="#DejaVuSans-2e" x="63.623047"/>
       <use xlink:href="#DejaVuSans-41" x="95.410156"/>
       <use xlink:href="#DejaVuSans-2e" x="162.068359"/>
       <use xlink:href="#DejaVuSans-31" x="193.855469"/>
       <use xlink:href="#DejaVuSans-36" x="257.478516"/>
       <use xlink:href="#DejaVuSans-2e" x="321.101562"/>
       <use xlink:href="#DejaVuSans-32" x="352.888672"/>
       <use xlink:href="#DejaVuSans-2e" x="416.511719"/>
       <use xlink:href="#DejaVuSans-33" x="448.298828"/>
      </g>
     </g>
    </g>
    <g id="ytick_6">
     <g id="line2d_14">
      <g>
       <use xlink:href="#mde0c1052bd" x="144" y="317.134763" style="stroke: #000000; stroke-width: 0.8"/>
      </g>
     </g>
     <g id="text_15">
      <!-- 2.A.16.3.1 -->
      <g transform="translate(85.809375 320.933982) scale(0.1 -0.1)">
       <use xlink:href="#DejaVuSans-32"/>
       <use xlink:href="#DejaVuSans-2e" x="63.623047"/>
       <use xlink:href="#DejaVuSans-41" x="95.410156"/>
       <use xlink:href="#DejaVuSans-2e" x="162.068359"/>
       <use xlink:href="#DejaVuSans-31" x="193.855469"/>
       <use xlink:href="#DejaVuSans-36" x="257.478516"/>
       <use xlink:href="#DejaVuSans-2e" x="321.101562"/>
       <use xlink:href="#DejaVuSans-33" x="352.888672"/>
       <use xlink:href="#DejaVuSans-2e" x="416.511719"/>
       <use xlink:href="#DejaVuSans-31" x="448.298828"/>
      </g>
     </g>
    </g>
    <g id="ytick_7">
     <g id="line2d_15">
      <g>
       <use xlink:href="#mde0c1052bd" x="144" y="299.988371" style="stroke: #000000; stroke-width: 0.8"/>
      </g>
     </g>
     <g id="text_16">
      <!-- 2.A.16.3.2 -->
      <g transform="translate(85.809375 303.78759) scale(0.1 -0.1)">
       <use xlink:href="#DejaVuSans-32"/>
       <use xlink:href="#DejaVuSans-2e" x="63.623047"/>
       <use xlink:href="#DejaVuSans-41" x="95.410156"/>
       <use xlink:href="#DejaVuSans-2e" x="162.068359"/>
       <use xlink:href="#DejaVuSans-31" x="193.855469"/>
       <use xlink:href="#DejaVuSans-36" x="257.478516"/>
       <use xlink:href="#DejaVuSans-2e" x="321.101562"/>
       <use xlink:href="#DejaVuSans-33" x="352.888672"/>
       <use xlink:href="#DejaVuSans-2e" x="416.511719"/>
       <use xlink:href="#DejaVuSans-32" x="448.298828"/>
      </g>
     </g>
    </g>
    <g id="ytick_8">
     <g id="line2d_16">
      <g>
       <use xlink:href="#mde0c1052bd" x="144" y="282.841979" style="stroke: #000000; stroke-width: 0.8"/>
      </g>
     </g>
     <g id="text_17">
      <!-- 2.A.16.3.3 -->
      <g transform="translate(85.809375 286.641198) scale(0.1 -0.1)">
       <use xlink:href="#DejaVuSans-32"/>
       <use xlink:href="#DejaVuSans-2e" x="63.623047"/>
       <use xlink:href="#DejaVuSans-41" x="95.410156"/>
       <use xlink:href="#DejaVuSans-2e" x="162.068359"/>
       <use xlink:href="#DejaVuSans-31" x="193.855469"/>
       <use xlink:href="#DejaVuSans-36" x="257.478516"/>
       <use xlink:href="#DejaVuSans-2e" x="321.101562"/>
       <use xlink:href="#DejaVuSans-33" x="352.888672"/>
       <use xlink:href="#DejaVuSans-2e" x="416.511719"/>
       <use xlink:href="#DejaVuSans-33" x="448.298828"/>
      </g>
     </g>
    </g>
    <g id="ytick_9">
     <g id="line2d_17">
      <g>
       <use xlink:href="#mde0c1052bd" x="144" y="265.695588" style="stroke: #000000; stroke-width: 0.8"/>
      </g>
     </g>
     <g id="text_18">
      <!-- 2.A.16.4.1 -->
      <g transform="translate(85.809375 269.494806) scale(0.1 -0.1)">
       <defs>
        <path id="DejaVuSans-34" d="M 2419 4116 
L 825 1625 
L 2419 1625 
L 2419 4116 
z
M 2253 4666 
L 3047 4666 
L 3047 1625 
L 3713 1625 
L 3713 1100 
L 3047 1100 
L 3047 0 
L 2419 0 
L 2419 1100 
L 313 1100 
L 313 1709 
L 2253 4666 
z
" transform="scale(0.015625)"/>
       </defs>
       <use xlink:href="#DejaVuSans-32"/>
       <use xlink:href="#DejaVuSans-2e" x="63.623047"/>
       <use xlink:href="#DejaVuSans-41" x="95.410156"/>
       <use xlink:href="#DejaVuSans-2e" x="162.068359"/>
       <use xlink:href="#DejaVuSans-31" x="193.855469"/>
       <use xlink:href="#DejaVuSans-36" x="257.478516"/>
       <use xlink:href="#DejaVuSans-2e" x="321.101562"/>
       <use xlink:href="#DejaVuSans-34" x="352.888672"/>
       <use xlink:href="#DejaVuSans-2e" x="416.511719"/>
       <use xlink:href="#DejaVuSans-31" x="448.298828"/>
      </g>
     </g>
    </g>
    <g id="ytick_10">
     <g id="line2d_18">
      <g>
       <use xlink:href="#mde0c1052bd" x="144" y="248.549196" style="stroke: #000000; stroke-width: 0.8"/>
      </g>
     </g>
     <g id="text_19">
      <!-- 2.A.16.4.2 -->
      <g transform="translate(85.809375 252.348415) scale(0.1 -0.1)">
       <use xlink:href="#DejaVuSans-32"/>
       <use xlink:href="#DejaVuSans-2e" x="63.623047"/>
       <use xlink:href="#DejaVuSans-41" x="95.410156"/>
       <use xlink:href="#DejaVuSans-2e" x="162.068359"/>
       <use xlink:href="#DejaVuSans-31" x="193.855469"/>
       <use xlink:href="#DejaVuSans-36" x="257.478516"/>
       <use xlink:href="#DejaVuSans-2e" x="321.101562"/>
       <use xlink:href="#DejaVuSans-34" x="352.888672"/>
       <use xlink:href="#DejaVuSans-2e" x="416.511719"/>
       <use xlink:href="#DejaVuSans-32" x="448.298828"/>
      </g>
     </g>
    </g>
    <g id="ytick_11">
     <g id="line2d_19">
      <g>
       <use xlink:href="#mde0c1052bd" x="144" y="231.402804" style="stroke: #000000; stroke-width: 0.8"/>
      </g>
     </g>
     <g id="text_20">
      <!-- 2.A.16.4.3 -->
      <g transform="translate(85.809375 235.202023) scale(0.1 -0.1)">
       <use xlink:href="#DejaVuSans-32"/>
       <use xlink:href="#DejaVuSans-2e" x="63.623047"/>
       <use xlink:href="#DejaVuSans-41" x="95.410156"/>
       <use xlink:href="#DejaVuSans-2e" x="162.068359"/>
       <use xlink:href="#DejaVuSans-31" x="193.855469"/>
       <use xlink:href="#DejaVuSans-36" x="257.478516"/>
       <use xlink:href="#DejaVuSans-2e" x="321.101562"/>
       <use xlink:href="#DejaVuSans-34" x="352.888672"/>
       <use xlink:href="#DejaVuSans-2e" x="416.511719"/>
       <use xlink:href="#DejaVuSans-33" x="448.298828"/>
      </g>
     </g>
    </g>
    <g id="ytick_12">
     <g id="line2d_20">
      <g>
       <use xlink:href="#mde0c1052bd" x="144" y="214.256412" style="stroke: #000000; stroke-width: 0.8"/>
      </g>
     </g>
     <g id="text_21">
      <!-- 2.A.16.4.4 -->
      <g transform="translate(85.809375 218.055631) scale(0.1 -0.1)">
       <use xlink:href="#DejaVuSans-32"/>
       <use xlink:href="#DejaVuSans-2e" x="63.623047"/>
       <use xlink:href="#DejaVuSans-41" x="95.410156"/>
       <use xlink:href="#DejaVuSans-2e" x="162.068359"/>
       <use xlink:href="#DejaVuSans-31" x="193.855469"/>
       <use xlink:href="#DejaVuSans-36" x="257.478516"/>
       <use xlink:href="#DejaVuSans-2e" x="321.101562"/>
       <use xlink:href="#DejaVuSans-34" x="352.888672"/>
       <use xlink:href="#DejaVuSans-2e" x="416.511719"/>
       <use xlink:href="#DejaVuSans-34" x="448.298828"/>
      </g>
     </g>
    </g>
    <g id="ytick_13">
     <g id="line2d_21">
      <g>
       <use xlink:href="#mde0c1052bd" x="144" y="197.110021" style="stroke: #000000; stroke-width: 0.8"/>
      </g>
     </g>
     <g id="text_22">
      <!-- 2.A.16.4.5 -->
      <g transform="translate(85.809375 200.909239) scale(0.1 -0.1)">
       <use xlink:href="#DejaVuSans-32"/>
       <use xlink:href="#DejaVuSans-2e" x="63.623047"/>
       <use xlink:href="#DejaVuSans-41" x="95.410156"/>
       <use xlink:href="#DejaVuSans-2e" x="162.068359"/>
       <use xlink:href="#DejaVuSans-31" x="193.855469"/>
       <use xlink:href="#DejaVuSans-36" x="257.478516"/>
       <use xlink:href="#DejaVuSans-2e" x="321.101562"/>
       <use xlink:href="#DejaVuSans-34" x="352.888672"/>
       <use xlink:href="#DejaVuSans-2e" x="416.511719"/>
       <use xlink:href="#DejaVuSans-35" x="448.298828"/>
      </g>
     </g>
    </g>
    <g id="ytick_14">
     <g id="line2d_22">
      <g>
       <use xlink:href="#mde0c1052bd" x="144" y="179.963629" style="stroke: #000000; stroke-width: 0.8"/>
      </g>
     </g>
     <g id="text_23">
      <!-- 2.A.16.4.6 -->
      <g transform="translate(85.809375 183.762848) scale(0.1 -0.1)">
       <use xlink:href="#DejaVuSans-32"/>
       <use xlink:href="#DejaVuSans-2e" x="63.623047"/>
       <use xlink:href="#DejaVuSans-41" x="95.410156"/>
       <use xlink:href="#DejaVuSans-2e" x="162.068359"/>
       <use xlink:href="#DejaVuSans-31" x="193.855469"/>
       <use xlink:href="#DejaVuSans-36" x="257.478516"/>
       <use xlink:href="#DejaVuSans-2e" x="321.101562"/>
       <use xlink:href="#DejaVuSans-34" x="352.888672"/>
       <use xlink:href="#DejaVuSans-2e" x="416.511719"/>
       <use xlink:href="#DejaVuSans-36" x="448.298828"/>
      </g>
     </g>
    </g>
    <g id="ytick_15">
     <g id="line2d_23">
      <g>
       <use xlink:href="#mde0c1052bd" x="144" y="162.817237" style="stroke: #000000; stroke-width: 0.8"/>
      </g>
     </g>
     <g id="text_24">
      <!-- 2.A.16.5.1 -->
      <g transform="translate(85.809375 166.616456) scale(0.1 -0.1)">
       <use xlink:href="#DejaVuSans-32"/>
       <use xlink:href="#DejaVuSans-2e" x="63.623047"/>
       <use xlink:href="#DejaVuSans-41" x="95.410156"/>
       <use xlink:href="#DejaVuSans-2e" x="162.068359"/>
       <use xlink:href="#DejaVuSans-31" x="193.855469"/>
       <use xlink:href="#DejaVuSans-36" x="257.478516"/>
       <use xlink:href="#DejaVuSans-2e" x="321.101562"/>
       <use xlink:href="#DejaVuSans-35" x="352.888672"/>
       <use xlink:href="#DejaVuSans-2e" x="416.511719"/>
       <use xlink:href="#DejaVuSans-31" x="448.298828"/>
      </g>
     </g>
    </g>
    <g id="ytick_16">
     <g id="line2d_24">
      <g>
       <use xlink:href="#mde0c1052bd" x="144" y="145.670845" style="stroke: #000000; stroke-width: 0.8"/>
      </g>
     </g>
     <g id="text_25">
      <!-- 2.A.16.5.2 -->
      <g transform="translate(85.809375 149.470064) scale(0.1 -0.1)">
       <use xlink:href="#DejaVuSans-32"/>
       <use xlink:href="#DejaVuSans-2e" x="63.623047"/>
       <use xlink:href="#DejaVuSans-41" x="95.410156"/>
       <use xlink:href="#DejaVuSans-2e" x="162.068359"/>
       <use xlink:href="#DejaVuSans-31" x="193.855469"/>
       <use xlink:href="#DejaVuSans-36" x="257.478516"/>
       <use xlink:href="#DejaVuSans-2e" x="321.101562"/>
       <use xlink:href="#DejaVuSans-35" x="352.888672"/>
       <use xlink:href="#DejaVuSans-2e" x="416.511719"/>
       <use xlink:href="#DejaVuSans-32" x="448.298828"/>
      </g>
     </g>
    </g>
    <g id="ytick_17">
     <g id="line2d_25">
      <g>
       <use xlink:href="#mde0c1052bd" x="144" y="128.524454" style="stroke: #000000; stroke-width: 0.8"/>
      </g>
     </g>
     <g id="text_26">
      <!-- 2.A.16.5.3 -->
      <g transform="translate(85.809375 132.323672) scale(0.1 -0.1)">
       <use xlink:href="#DejaVuSans-32"/>
       <use xlink:href="#DejaVuSans-2e" x="63.623047"/>
       <use xlink:href="#DejaVuSans-41" x="95.410156"/>
       <use xlink:href="#DejaVuSans-2e" x="162.068359"/>
       <use xlink:href="#DejaVuSans-31" x="193.855469"/>
       <use xlink:href="#DejaVuSans-36" x="257.478516"/>
       <use xlink:href="#DejaVuSans-2e" x="321.101562"/>
       <use xlink:href="#DejaVuSans-35" x="352.888672"/>
       <use xlink:href="#DejaVuSans-2e" x="416.511719"/>
       <use xlink:href="#DejaVuSans-33" x="448.298828"/>
      </g>
     </g>
    </g>
    <g id="ytick_18">
     <g id="line2d_26">
      <g>
       <use xlink:href="#mde0c1052bd" x="144" y="111.378062" style="stroke: #000000; stroke-width: 0.8"/>
      </g>
     </g>
     <g id="text_27">
      <!-- 2.A.16.6.1 -->
      <g transform="translate(85.809375 115.177281) scale(0.1 -0.1)">
       <use xlink:href="#DejaVuSans-32"/>
       <use xlink:href="#DejaVuSans-2e" x="63.623047"/>
       <use xlink:href="#DejaVuSans-41" x="95.410156"/>
       <use xlink:href="#DejaVuSans-2e" x="162.068359"/>
       <use xlink:href="#DejaVuSans-31" x="193.855469"/>
       <use xlink:href="#DejaVuSans-36" x="257.478516"/>
       <use xlink:href="#DejaVuSans-2e" x="321.101562"/>
       <use xlink:href="#DejaVuSans-36" x="352.888672"/>
       <use xlink:href="#DejaVuSans-2e" x="416.511719"/>
       <use xlink:href="#DejaVuSans-31" x="448.298828"/>
      </g>
     </g>
    </g>
    <g id="ytick_19">
     <g id="line2d_27">
      <g>
       <use xlink:href="#mde0c1052bd" x="144" y="94.23167" style="stroke: #000000; stroke-width: 0.8"/>
      </g>
     </g>
     <g id="text_28">
      <!-- 2.A.16.6.2 -->
      <g transform="translate(85.809375 98.030889) scale(0.1 -0.1)">
       <use xlink:href="#DejaVuSans-32"/>
       <use xlink:href="#DejaVuSans-2e" x="63.623047"/>
       <use xlink:href="#DejaVuSans-41" x="95.410156"/>
       <use xlink:href="#DejaVuSans-2e" x="162.068359"/>
       <use xlink:href="#DejaVuSans-31" x="193.855469"/>
       <use xlink:href="#DejaVuSans-36" x="257.478516"/>
       <use xlink:href="#DejaVuSans-2e" x="321.101562"/>
       <use xlink:href="#DejaVuSans-36" x="352.888672"/>
       <use xlink:href="#DejaVuSans-2e" x="416.511719"/>
       <use xlink:href="#DejaVuSans-32" x="448.298828"/>
      </g>
     </g>
    </g>
    <g id="ytick_20">
     <g id="line2d_28">
      <g>
       <use xlink:href="#mde0c1052bd" x="144" y="77.085278" style="stroke: #000000; stroke-width: 0.8"/>
      </g>
     </g>
     <g id="text_29">
      <!-- 2.A.16.6.3 -->
      <g transform="translate(85.809375 80.884497) scale(0.1 -0.1)">
       <use xlink:href="#DejaVuSans-32"/>
       <use xlink:href="#DejaVuSans-2e" x="63.623047"/>
       <use xlink:href="#DejaVuSans-41" x="95.410156"/>
       <use xlink:href="#DejaVuSans-2e" x="162.068359"/>
       <use xlink:href="#DejaVuSans-31" x="193.855469"/>
       <use xlink:href="#DejaVuSans-36" x="257.478516"/>
       <use xlink:href="#DejaVuSans-2e" x="321.101562"/>
       <use xlink:href="#DejaVuSans-36" x="352.888672"/>
       <use xlink:href="#DejaVuSans-2e" x="416.511719"/>
       <use xlink:href="#DejaVuSans-33" x="448.298828"/>
      </g>
     </g>
    </g>
   </g>
   <g id="patch_261">
    <path d="M 144 422.928 
L 144 57.024 
" style="fill: none; stroke: #000000; stroke-width: 0.8; stroke-linejoin: miter; stroke-linecap: square"/>
   </g>
   <g id="patch_262">
    <path d="M 1036.8 422.928 
L 1036.8 57.024 
" style="fill: none; stroke: #000000; stroke-width: 0.8; stroke-linejoin: miter; stroke-linecap: square"/>
   </g>
   <g id="patch_263">
    <path d="M 144 422.928 
L 1036.8 422.928 
" style="fill: none; stroke: #000000; stroke-width: 0.8; stroke-linejoin: miter; stroke-linecap: square"/>
   </g>
   <g id="patch_264">
    <path d="M 144 57.024 
L 1036.8 57.024 
" style="fill: none; stroke: #000000; stroke-width: 0.8; stroke-linejoin: miter; stroke-linecap: square"/>
   </g>
   <g id="text_30">
    <!-- 2.A.16 Summary -->
    <g transform="translate(540.2325 51.024) scale(0.12 -0.12)">
     <defs>
      <path id="DejaVuSans-20" transform="scale(0.015625)"/>
      <path id="DejaVuSans-53" d="M 3425 4513 
L 3425 3897 
Q 3066 4069 2747 4153 
Q 2428 4238 2131 4238 
Q 1616 4238 1336 4038 
Q 1056 3838 1056 3469 
Q 1056 3159 1242 3001 
Q 1428 2844 1947 2747 
L 2328 2669 
Q 3034 2534 3370 2195 
Q 3706 1856 3706 1288 
Q 3706 609 3251 259 
Q 2797 -91 1919 -91 
Q 1588 -91 1214 -16 
Q 841 59 441 206 
L 441 856 
Q 825 641 1194 531 
Q 1563 422 1919 422 
Q 2459 422 2753 634 
Q 3047 847 3047 1241 
Q 3047 1584 2836 1778 
Q 2625 1972 2144 2069 
L 1759 2144 
Q 1053 2284 737 2584 
Q 422 2884 422 3419 
Q 422 4038 858 4394 
Q 1294 4750 2059 4750 
Q 2388 4750 2728 4690 
Q 3069 4631 3425 4513 
z
" transform="scale(0.015625)"/>
      <path id="DejaVuSans-6d" d="M 3328 2828 
Q 3544 3216 3844 3400 
Q 4144 3584 4550 3584 
Q 5097 3584 5394 3201 
Q 5691 2819 5691 2113 
L 5691 0 
L 5113 0 
L 5113 2094 
Q 5113 2597 4934 2840 
Q 4756 3084 4391 3084 
Q 3944 3084 3684 2787 
Q 3425 2491 3425 1978 
L 3425 0 
L 2847 0 
L 2847 2094 
Q 2847 2600 2669 2842 
Q 2491 3084 2119 3084 
Q 1678 3084 1418 2786 
Q 1159 2488 1159 1978 
L 1159 0 
L 581 0 
L 581 3500 
L 1159 3500 
L 1159 2956 
Q 1356 3278 1631 3431 
Q 1906 3584 2284 3584 
Q 2666 3584 2933 3390 
Q 3200 3197 3328 2828 
z
" transform="scale(0.015625)"/>
      <path id="DejaVuSans-72" d="M 2631 2963 
Q 2534 3019 2420 3045 
Q 2306 3072 2169 3072 
Q 1681 3072 1420 2755 
Q 1159 2438 1159 1844 
L 1159 0 
L 581 0 
L 581 3500 
L 1159 3500 
L 1159 2956 
Q 1341 3275 1631 3429 
Q 1922 3584 2338 3584 
Q 2397 3584 2469 3576 
Q 2541 3569 2628 3553 
L 2631 2963 
z
" transform="scale(0.015625)"/>
      <path id="DejaVuSans-79" d="M 2059 -325 
Q 1816 -950 1584 -1140 
Q 1353 -1331 966 -1331 
L 506 -1331 
L 506 -850 
L 844 -850 
Q 1081 -850 1212 -737 
Q 1344 -625 1503 -206 
L 1606 56 
L 191 3500 
L 800 3500 
L 1894 763 
L 2988 3500 
L 3597 3500 
L 2059 -325 
z
" transform="scale(0.015625)"/>
     </defs>
     <use xlink:href="#DejaVuSans-32"/>
     <use xlink:href="#DejaVuSans-2e" x="63.623047"/>
     <use xlink:href="#DejaVuSans-41" x="95.410156"/>
     <use xlink:href="#DejaVuSans-2e" x="162.068359"/>
     <use xlink:href="#DejaVuSans-31" x="193.855469"/>
     <use xlink:href="#DejaVuSans-36" x="257.478516"/>
     <use xlink:href="#DejaVuSans-20" x="321.101562"/>
     <use xlink:href="#DejaVuSans-53" x="352.888672"/>
     <use xlink:href="#DejaVuSans-75" x="416.365234"/>
     <use xlink:href="#DejaVuSans-6d" x="479.744141"/>
     <use xlink:href="#DejaVuSans-6d" x="577.15625"/>
     <use xlink:href="#DejaVuSans-61" x="674.568359"/>
     <use xlink:href="#DejaVuSans-72" x="735.847656"/>
     <use xlink:href="#DejaVuSans-79" x="776.960938"/>
    </g>
   </g>
  </g>
 </g>
 <defs>
  <clipPath id="p82185c4afd">
   <rect x="144" y="57.024" width="892.8" height="365.904"/>
  </clipPath>
 </defs>
</svg>
