<?xml version="1.0" encoding="utf-8" standalone="no"?>
<!DOCTYPE svg PUBLIC "-//W3C//DTD SVG 1.1//EN"
  "http://www.w3.org/Graphics/SVG/1.1/DTD/svg11.dtd">
<svg xmlns:xlink="http://www.w3.org/1999/xlink" width="1152pt" height="410.4pt" viewBox="0 0 1152 410.4" xmlns="http://www.w3.org/2000/svg" version="1.1">
 <metadata>
  <rdf:RDF xmlns:dc="http://purl.org/dc/elements/1.1/" xmlns:cc="http://creativecommons.org/ns#" xmlns:rdf="http://www.w3.org/1999/02/22-rdf-syntax-ns#">
   <cc:Work>
    <dc:type rdf:resource="http://purl.org/dc/dcmitype/StillImage"/>
    <dc:date>2024-10-25T07:52:16.190819</dc:date>
    <dc:format>image/svg+xml</dc:format>
    <dc:creator>
     <cc:Agent>
      <dc:title>Matplotlib v3.9.2, https://matplotlib.org/</dc:title>
     </cc:Agent>
    </dc:creator>
   </cc:Work>
  </rdf:RDF>
 </metadata>
 <defs>
  <style type="text/css">*{stroke-linejoin: round; stroke-linecap: butt}</style>
 </defs>
 <g id="figure_1">
  <g id="patch_1">
   <path d="M 0 410.4 
L 1152 410.4 
L 1152 0 
L 0 0 
z
" style="fill: #ffffff"/>
  </g>
  <g id="axes_1">
   <g id="patch_2">
    <path d="M 144 365.256 
L 1036.8 365.256 
L 1036.8 49.248 
L 144 49.248 
z
" style="fill: #ffffff"/>
   </g>
   <g id="patch_3">
    <path d="M 144 347.651341 
L 227.796273 347.651341 
L 227.796273 347.125829 
L 144 347.125829 
z
" clip-path="url(#p855c554c04)" style="fill: #0000ff"/>
   </g>
   <g id="patch_4">
    <path d="M 230.26087 350.892 
L 562.981366 350.892 
L 562.981366 343.885171 
L 230.26087 343.885171 
z
" clip-path="url(#p855c554c04)" style="fill: #0000ff"/>
   </g>
   <g id="patch_5">
    <path d="M 240.119255 350.892 
L 550.658385 350.892 
L 550.658385 343.885171 
L 240.119255 343.885171 
z
" clip-path="url(#p855c554c04)" style="fill: #0000ff"/>
   </g>
   <g id="patch_6">
    <path d="M 240.119255 350.892 
L 548.193789 350.892 
L 548.193789 343.885171 
L 240.119255 343.885171 
z
" clip-path="url(#p855c554c04)" style="fill: #0000ff"/>
   </g>
   <g id="patch_7">
    <path d="M 240.119255 350.892 
L 548.193789 350.892 
L 548.193789 343.885171 
L 240.119255 343.885171 
z
" clip-path="url(#p855c554c04)" style="fill: #0000ff"/>
   </g>
   <g id="patch_8">
    <path d="M 240.119255 350.892 
L 383.065839 350.892 
L 383.065839 343.885171 
L 240.119255 343.885171 
z
" clip-path="url(#p855c554c04)" style="fill: #0000ff"/>
   </g>
   <g id="patch_9">
    <path d="M 400.318012 350.892 
L 550.658385 350.892 
L 550.658385 343.885171 
L 400.318012 343.885171 
z
" clip-path="url(#p855c554c04)" style="fill: #0000ff"/>
   </g>
   <g id="patch_10">
    <path d="M 565.445963 347.651341 
L 582.698137 347.651341 
L 582.698137 347.125829 
L 565.445963 347.125829 
z
" clip-path="url(#p855c554c04)" style="fill: #0000ff"/>
   </g>
   <g id="patch_11">
    <path d="M 144 330.134268 
L 146.464596 330.134268 
L 146.464596 329.608756 
L 144 329.608756 
z
" clip-path="url(#p855c554c04)" style="fill: #0000ff"/>
   </g>
   <g id="patch_12">
    <path d="M 148.929193 333.374927 
L 491.508075 333.374927 
L 491.508075 326.368098 
L 148.929193 326.368098 
z
" clip-path="url(#p855c554c04)" style="fill: #0000ff"/>
   </g>
   <g id="patch_13">
    <path d="M 161.252174 333.374927 
L 316.521739 333.374927 
L 316.521739 326.368098 
L 161.252174 326.368098 
z
" clip-path="url(#p855c554c04)" style="fill: #0000ff"/>
   </g>
   <g id="patch_14">
    <path d="M 163.71677 333.374927 
L 491.508075 333.374927 
L 491.508075 326.368098 
L 163.71677 326.368098 
z
" clip-path="url(#p855c554c04)" style="fill: #0000ff"/>
   </g>
   <g id="patch_15">
    <path d="M 338.703106 333.374927 
L 491.508075 333.374927 
L 491.508075 326.368098 
L 338.703106 326.368098 
z
" clip-path="url(#p855c554c04)" style="fill: #0000ff"/>
   </g>
   <g id="patch_16">
    <path d="M 493.972671 330.134268 
L 506.295652 330.134268 
L 506.295652 329.608756 
L 493.972671 329.608756 
z
" clip-path="url(#p855c554c04)" style="fill: #0000ff"/>
   </g>
   <g id="patch_17">
    <path d="M 144 315.857854 
L 474.255901 315.857854 
L 474.255901 308.851024 
L 144 308.851024 
z
" clip-path="url(#p855c554c04)" style="fill: #0000ff"/>
   </g>
   <g id="patch_18">
    <path d="M 151.393789 315.857854 
L 304.198758 315.857854 
L 304.198758 308.851024 
L 151.393789 308.851024 
z
" clip-path="url(#p855c554c04)" style="fill: #0000ff"/>
   </g>
   <g id="patch_19">
    <path d="M 163.71677 315.857854 
L 474.255901 315.857854 
L 474.255901 308.851024 
L 163.71677 308.851024 
z
" clip-path="url(#p855c554c04)" style="fill: #0000ff"/>
   </g>
   <g id="patch_20">
    <path d="M 163.71677 315.857854 
L 469.326708 315.857854 
L 469.326708 308.851024 
L 163.71677 308.851024 
z
" clip-path="url(#p855c554c04)" style="fill: #0000ff"/>
   </g>
   <g id="patch_21">
    <path d="M 323.915528 315.857854 
L 474.255901 315.857854 
L 474.255901 308.851024 
L 323.915528 308.851024 
z
" clip-path="url(#p855c554c04)" style="fill: #0000ff"/>
   </g>
   <g id="patch_22">
    <path d="M 476.720497 312.617195 
L 486.578882 312.617195 
L 486.578882 312.091683 
L 476.720497 312.091683 
z
" clip-path="url(#p855c554c04)" style="fill: #0000ff"/>
   </g>
   <g id="patch_23">
    <path d="M 144 298.34078 
L 474.255901 298.34078 
L 474.255901 291.333951 
L 144 291.333951 
z
" clip-path="url(#p855c554c04)" style="fill: #0000ff"/>
   </g>
   <g id="patch_24">
    <path d="M 146.464596 298.34078 
L 301.734161 298.34078 
L 301.734161 291.333951 
L 146.464596 291.333951 
z
" clip-path="url(#p855c554c04)" style="fill: #0000ff"/>
   </g>
   <g id="patch_25">
    <path d="M 148.929193 298.34078 
L 469.326708 298.34078 
L 469.326708 291.333951 
L 148.929193 291.333951 
z
" clip-path="url(#p855c554c04)" style="fill: #0000ff"/>
   </g>
   <g id="patch_26">
    <path d="M 153.858385 298.34078 
L 464.397516 298.34078 
L 464.397516 291.333951 
L 153.858385 291.333951 
z
" clip-path="url(#p855c554c04)" style="fill: #0000ff"/>
   </g>
   <g id="patch_27">
    <path d="M 316.521739 298.34078 
L 471.791304 298.34078 
L 471.791304 291.333951 
L 316.521739 291.333951 
z
" clip-path="url(#p855c554c04)" style="fill: #0000ff"/>
   </g>
   <g id="patch_28">
    <path d="M 476.720497 295.100122 
L 501.36646 295.100122 
L 501.36646 294.57461 
L 476.720497 294.57461 
z
" clip-path="url(#p855c554c04)" style="fill: #0000ff"/>
   </g>
   <g id="patch_29">
    <path d="M 144 280.823707 
L 296.804969 280.823707 
L 296.804969 273.816878 
L 144 273.816878 
z
" clip-path="url(#p855c554c04)" style="fill: #0000ff"/>
   </g>
   <g id="patch_30">
    <path d="M 146.464596 280.823707 
L 459.468323 280.823707 
L 459.468323 273.816878 
L 146.464596 273.816878 
z
" clip-path="url(#p855c554c04)" style="fill: #0000ff"/>
   </g>
   <g id="patch_31">
    <path d="M 153.858385 280.823707 
L 464.397516 280.823707 
L 464.397516 273.816878 
L 153.858385 273.816878 
z
" clip-path="url(#p855c554c04)" style="fill: #0000ff"/>
   </g>
   <g id="patch_32">
    <path d="M 153.858385 280.823707 
L 464.397516 280.823707 
L 464.397516 273.816878 
L 153.858385 273.816878 
z
" clip-path="url(#p855c554c04)" style="fill: #0000ff"/>
   </g>
   <g id="patch_33">
    <path d="M 311.592547 280.823707 
L 464.397516 280.823707 
L 464.397516 273.816878 
L 311.592547 273.816878 
z
" clip-path="url(#p855c554c04)" style="fill: #0000ff"/>
   </g>
   <g id="patch_34">
    <path d="M 466.862112 277.583049 
L 486.578882 277.583049 
L 486.578882 277.057537 
L 466.862112 277.057537 
z
" clip-path="url(#p855c554c04)" style="fill: #0000ff"/>
   </g>
   <g id="patch_35">
    <path d="M 144 260.065976 
L 185.898137 260.065976 
L 185.898137 259.540463 
L 144 259.540463 
z
" clip-path="url(#p855c554c04)" style="fill: #0000ff"/>
   </g>
   <g id="patch_36">
    <path d="M 188.362733 263.306634 
L 553.122981 263.306634 
L 553.122981 256.299805 
L 188.362733 256.299805 
z
" clip-path="url(#p855c554c04)" style="fill: #0000ff"/>
   </g>
   <g id="patch_37">
    <path d="M 203.150311 263.306634 
L 358.419876 263.306634 
L 358.419876 256.299805 
L 203.150311 256.299805 
z
" clip-path="url(#p855c554c04)" style="fill: #0000ff"/>
   </g>
   <g id="patch_38">
    <path d="M 205.614907 263.306634 
L 523.547826 263.306634 
L 523.547826 256.299805 
L 205.614907 256.299805 
z
" clip-path="url(#p855c554c04)" style="fill: #0000ff"/>
   </g>
   <g id="patch_39">
    <path d="M 205.614907 263.306634 
L 523.547826 263.306634 
L 523.547826 256.299805 
L 205.614907 256.299805 
z
" clip-path="url(#p855c554c04)" style="fill: #0000ff"/>
   </g>
   <g id="patch_40">
    <path d="M 370.742857 263.306634 
L 526.012422 263.306634 
L 526.012422 256.299805 
L 370.742857 256.299805 
z
" clip-path="url(#p855c554c04)" style="fill: #0000ff"/>
   </g>
   <g id="patch_41">
    <path d="M 555.587578 260.065976 
L 562.981366 260.065976 
L 562.981366 259.540463 
L 555.587578 259.540463 
z
" clip-path="url(#p855c554c04)" style="fill: #0000ff"/>
   </g>
   <g id="patch_42">
    <path d="M 144 242.548902 
L 183.43354 242.548902 
L 183.43354 242.02339 
L 144 242.02339 
z
" clip-path="url(#p855c554c04)" style="fill: #0000ff"/>
   </g>
   <g id="patch_43">
    <path d="M 185.898137 245.789561 
L 535.870807 245.789561 
L 535.870807 238.782732 
L 185.898137 238.782732 
z
" clip-path="url(#p855c554c04)" style="fill: #0000ff"/>
   </g>
   <g id="patch_44">
    <path d="M 185.898137 245.789561 
L 338.703106 245.789561 
L 338.703106 238.782732 
L 185.898137 238.782732 
z
" clip-path="url(#p855c554c04)" style="fill: #0000ff"/>
   </g>
   <g id="patch_45">
    <path d="M 188.362733 245.789561 
L 503.831056 245.789561 
L 503.831056 238.782732 
L 188.362733 238.782732 
z
" clip-path="url(#p855c554c04)" style="fill: #0000ff"/>
   </g>
   <g id="patch_46">
    <path d="M 188.362733 245.789561 
L 506.295652 245.789561 
L 506.295652 238.782732 
L 188.362733 238.782732 
z
" clip-path="url(#p855c554c04)" style="fill: #0000ff"/>
   </g>
   <g id="patch_47">
    <path d="M 353.490683 245.789561 
L 508.760248 245.789561 
L 508.760248 238.782732 
L 353.490683 238.782732 
z
" clip-path="url(#p855c554c04)" style="fill: #0000ff"/>
   </g>
   <g id="patch_48">
    <path d="M 144 228.272488 
L 498.901863 228.272488 
L 498.901863 221.265659 
L 144 221.265659 
z
" clip-path="url(#p855c554c04)" style="fill: #0000ff"/>
   </g>
   <g id="patch_49">
    <path d="M 146.464596 228.272488 
L 301.734161 228.272488 
L 301.734161 221.265659 
L 146.464596 221.265659 
z
" clip-path="url(#p855c554c04)" style="fill: #0000ff"/>
   </g>
   <g id="patch_50">
    <path d="M 148.929193 228.272488 
L 469.326708 228.272488 
L 469.326708 221.265659 
L 148.929193 221.265659 
z
" clip-path="url(#p855c554c04)" style="fill: #0000ff"/>
   </g>
   <g id="patch_51">
    <path d="M 151.393789 228.272488 
L 464.397516 228.272488 
L 464.397516 221.265659 
L 151.393789 221.265659 
z
" clip-path="url(#p855c554c04)" style="fill: #0000ff"/>
   </g>
   <g id="patch_52">
    <path d="M 316.521739 228.272488 
L 471.791304 228.272488 
L 471.791304 221.265659 
L 316.521739 221.265659 
z
" clip-path="url(#p855c554c04)" style="fill: #0000ff"/>
   </g>
   <g id="patch_53">
    <path d="M 501.36646 225.031829 
L 503.831056 225.031829 
L 503.831056 224.506317 
L 501.36646 224.506317 
z
" clip-path="url(#p855c554c04)" style="fill: #0000ff"/>
   </g>
   <g id="patch_54">
    <path d="M 144 210.755415 
L 479.185093 210.755415 
L 479.185093 203.748585 
L 144 203.748585 
z
" clip-path="url(#p855c554c04)" style="fill: #0000ff"/>
   </g>
   <g id="patch_55">
    <path d="M 146.464596 210.755415 
L 301.734161 210.755415 
L 301.734161 203.748585 
L 146.464596 203.748585 
z
" clip-path="url(#p855c554c04)" style="fill: #0000ff"/>
   </g>
   <g id="patch_56">
    <path d="M 158.787578 210.755415 
L 474.255901 210.755415 
L 474.255901 203.748585 
L 158.787578 203.748585 
z
" clip-path="url(#p855c554c04)" style="fill: #0000ff"/>
   </g>
   <g id="patch_57">
    <path d="M 158.787578 210.755415 
L 469.326708 210.755415 
L 469.326708 203.748585 
L 158.787578 203.748585 
z
" clip-path="url(#p855c554c04)" style="fill: #0000ff"/>
   </g>
   <g id="patch_58">
    <path d="M 321.450932 210.755415 
L 476.720497 210.755415 
L 476.720497 203.748585 
L 321.450932 203.748585 
z
" clip-path="url(#p855c554c04)" style="fill: #0000ff"/>
   </g>
   <g id="patch_59">
    <path d="M 481.649689 207.514756 
L 496.437267 207.514756 
L 496.437267 206.989244 
L 481.649689 206.989244 
z
" clip-path="url(#p855c554c04)" style="fill: #0000ff"/>
   </g>
   <g id="patch_60">
    <path d="M 144 193.238341 
L 291.875776 193.238341 
L 291.875776 186.231512 
L 144 186.231512 
z
" clip-path="url(#p855c554c04)" style="fill: #0000ff"/>
   </g>
   <g id="patch_61">
    <path d="M 146.464596 193.238341 
L 457.003727 193.238341 
L 457.003727 186.231512 
L 146.464596 186.231512 
z
" clip-path="url(#p855c554c04)" style="fill: #0000ff"/>
   </g>
   <g id="patch_62">
    <path d="M 153.858385 193.238341 
L 457.003727 193.238341 
L 457.003727 186.231512 
L 153.858385 186.231512 
z
" clip-path="url(#p855c554c04)" style="fill: #0000ff"/>
   </g>
   <g id="patch_63">
    <path d="M 306.663354 193.238341 
L 459.468323 193.238341 
L 459.468323 186.231512 
L 306.663354 186.231512 
z
" clip-path="url(#p855c554c04)" style="fill: #0000ff"/>
   </g>
   <g id="patch_64">
    <path d="M 461.932919 189.997683 
L 471.791304 189.997683 
L 471.791304 189.472171 
L 461.932919 189.472171 
z
" clip-path="url(#p855c554c04)" style="fill: #0000ff"/>
   </g>
   <g id="patch_65">
    <path d="M 144 175.721268 
L 496.437267 175.721268 
L 496.437267 168.714439 
L 144 168.714439 
z
" clip-path="url(#p855c554c04)" style="fill: #0000ff"/>
   </g>
   <g id="patch_66">
    <path d="M 146.464596 175.721268 
L 301.734161 175.721268 
L 301.734161 168.714439 
L 146.464596 168.714439 
z
" clip-path="url(#p855c554c04)" style="fill: #0000ff"/>
   </g>
   <g id="patch_67">
    <path d="M 148.929193 175.721268 
L 471.791304 175.721268 
L 471.791304 168.714439 
L 148.929193 168.714439 
z
" clip-path="url(#p855c554c04)" style="fill: #0000ff"/>
   </g>
   <g id="patch_68">
    <path d="M 148.929193 175.721268 
L 466.862112 175.721268 
L 466.862112 168.714439 
L 148.929193 168.714439 
z
" clip-path="url(#p855c554c04)" style="fill: #0000ff"/>
   </g>
   <g id="patch_69">
    <path d="M 318.986335 175.721268 
L 474.255901 175.721268 
L 474.255901 168.714439 
L 318.986335 168.714439 
z
" clip-path="url(#p855c554c04)" style="fill: #0000ff"/>
   </g>
   <g id="patch_70">
    <path d="M 498.901863 172.48061 
L 503.831056 172.48061 
L 503.831056 171.955098 
L 498.901863 171.955098 
z
" clip-path="url(#p855c554c04)" style="fill: #0000ff"/>
   </g>
   <g id="patch_71">
    <path d="M 144 154.963537 
L 237.654658 154.963537 
L 237.654658 154.438024 
L 144 154.438024 
z
" clip-path="url(#p855c554c04)" style="fill: #0000ff"/>
   </g>
   <g id="patch_72">
    <path d="M 240.119255 158.204195 
L 558.052174 158.204195 
L 558.052174 151.197366 
L 240.119255 151.197366 
z
" clip-path="url(#p855c554c04)" style="fill: #0000ff"/>
   </g>
   <g id="patch_73">
    <path d="M 240.119255 158.204195 
L 390.459627 158.204195 
L 390.459627 151.197366 
L 240.119255 151.197366 
z
" clip-path="url(#p855c554c04)" style="fill: #0000ff"/>
   </g>
   <g id="patch_74">
    <path d="M 242.583851 158.204195 
L 582.698137 158.204195 
L 582.698137 151.197366 
L 242.583851 151.197366 
z
" clip-path="url(#p855c554c04)" style="fill: #0000ff"/>
   </g>
   <g id="patch_75">
    <path d="M 242.583851 158.204195 
L 553.122981 158.204195 
L 553.122981 151.197366 
L 242.583851 151.197366 
z
" clip-path="url(#p855c554c04)" style="fill: #0000ff"/>
   </g>
   <g id="patch_76">
    <path d="M 405.247205 158.204195 
L 560.51677 158.204195 
L 560.51677 151.197366 
L 405.247205 151.197366 
z
" clip-path="url(#p855c554c04)" style="fill: #0000ff"/>
   </g>
   <g id="patch_77">
    <path d="M 144 140.687122 
L 449.609938 140.687122 
L 449.609938 133.680293 
L 144 133.680293 
z
" clip-path="url(#p855c554c04)" style="fill: #0000ff"/>
   </g>
   <g id="patch_78">
    <path d="M 146.464596 140.687122 
L 301.734161 140.687122 
L 301.734161 133.680293 
L 146.464596 133.680293 
z
" clip-path="url(#p855c554c04)" style="fill: #0000ff"/>
   </g>
   <g id="patch_79">
    <path d="M 148.929193 140.687122 
L 449.609938 140.687122 
L 449.609938 133.680293 
L 148.929193 133.680293 
z
" clip-path="url(#p855c554c04)" style="fill: #0000ff"/>
   </g>
   <g id="patch_80">
    <path d="M 316.521739 140.687122 
L 449.609938 140.687122 
L 449.609938 133.680293 
L 316.521739 133.680293 
z
" clip-path="url(#p855c554c04)" style="fill: #0000ff"/>
   </g>
   <g id="patch_81">
    <path d="M 452.074534 137.446463 
L 683.746584 137.446463 
L 683.746584 136.920951 
L 452.074534 136.920951 
z
" clip-path="url(#p855c554c04)" style="fill: #0000ff"/>
   </g>
   <g id="patch_82">
    <path d="M 686.21118 140.687122 
L 935.135404 140.687122 
L 935.135404 133.680293 
L 686.21118 133.680293 
z
" clip-path="url(#p855c554c04)" style="fill: #0000ff"/>
   </g>
   <g id="patch_83">
    <path d="M 937.6 137.446463 
L 994.285714 137.446463 
L 994.285714 136.920951 
L 937.6 136.920951 
z
" clip-path="url(#p855c554c04)" style="fill: #0000ff"/>
   </g>
   <g id="patch_84">
    <path d="M 144 119.92939 
L 148.929193 119.92939 
L 148.929193 119.403878 
L 144 119.403878 
z
" clip-path="url(#p855c554c04)" style="fill: #0000ff"/>
   </g>
   <g id="patch_85">
    <path d="M 151.393789 123.170049 
L 299.269565 123.170049 
L 299.269565 116.16322 
L 151.393789 116.16322 
z
" clip-path="url(#p855c554c04)" style="fill: #0000ff"/>
   </g>
   <g id="patch_86">
    <path d="M 301.734161 119.92939 
L 491.508075 119.92939 
L 491.508075 119.403878 
L 301.734161 119.403878 
z
" clip-path="url(#p855c554c04)" style="fill: #0000ff"/>
   </g>
   <g id="patch_87">
    <path d="M 144 105.652976 
L 503.831056 105.652976 
L 503.831056 98.646146 
L 144 98.646146 
z
" clip-path="url(#p855c554c04)" style="fill: #0000ff"/>
   </g>
   <g id="patch_88">
    <path d="M 151.393789 105.652976 
L 301.734161 105.652976 
L 301.734161 98.646146 
L 151.393789 98.646146 
z
" clip-path="url(#p855c554c04)" style="fill: #0000ff"/>
   </g>
   <g id="patch_89">
    <path d="M 153.858385 105.652976 
L 489.043478 105.652976 
L 489.043478 98.646146 
L 153.858385 98.646146 
z
" clip-path="url(#p855c554c04)" style="fill: #0000ff"/>
   </g>
   <g id="patch_90">
    <path d="M 328.84472 105.652976 
L 481.649689 105.652976 
L 481.649689 98.646146 
L 328.84472 98.646146 
z
" clip-path="url(#p855c554c04)" style="fill: #0000ff"/>
   </g>
   <g id="patch_91">
    <path d="M 506.295652 102.412317 
L 506.295652 102.412317 
L 506.295652 101.886805 
L 506.295652 101.886805 
z
" clip-path="url(#p855c554c04)" style="fill: #0000ff"/>
   </g>
   <g id="patch_92">
    <path d="M 144 88.135902 
L 469.326708 88.135902 
L 469.326708 81.129073 
L 144 81.129073 
z
" clip-path="url(#p855c554c04)" style="fill: #0000ff"/>
   </g>
   <g id="patch_93">
    <path d="M 144 88.135902 
L 294.340373 88.135902 
L 294.340373 81.129073 
L 144 81.129073 
z
" clip-path="url(#p855c554c04)" style="fill: #0000ff"/>
   </g>
   <g id="patch_94">
    <path d="M 148.929193 88.135902 
L 471.791304 88.135902 
L 471.791304 81.129073 
L 148.929193 81.129073 
z
" clip-path="url(#p855c554c04)" style="fill: #0000ff"/>
   </g>
   <g id="patch_95">
    <path d="M 316.521739 88.135902 
L 471.791304 88.135902 
L 471.791304 81.129073 
L 316.521739 81.129073 
z
" clip-path="url(#p855c554c04)" style="fill: #0000ff"/>
   </g>
   <g id="patch_96">
    <path d="M 474.255901 84.895244 
L 518.618634 84.895244 
L 518.618634 84.369732 
L 474.255901 84.369732 
z
" clip-path="url(#p855c554c04)" style="fill: #0000ff"/>
   </g>
   <g id="patch_97">
    <path d="M 144 70.618829 
L 247.513043 70.618829 
L 247.513043 63.612 
L 144 63.612 
z
" clip-path="url(#p855c554c04)" style="fill: #0000ff"/>
   </g>
   <g id="patch_98">
    <path d="M 148.929193 70.618829 
L 240.119255 70.618829 
L 240.119255 63.612 
L 148.929193 63.612 
z
" clip-path="url(#p855c554c04)" style="fill: #0000ff"/>
   </g>
   <g id="patch_99">
    <path d="M 158.787578 70.618829 
L 247.513043 70.618829 
L 247.513043 63.612 
L 158.787578 63.612 
z
" clip-path="url(#p855c554c04)" style="fill: #0000ff"/>
   </g>
   <g id="patch_100">
    <path d="M 249.97764 67.378171 
L 358.419876 67.378171 
L 358.419876 66.852659 
L 249.97764 66.852659 
z
" clip-path="url(#p855c554c04)" style="fill: #0000ff"/>
   </g>
   <g id="matplotlib.axis_1">
    <g id="xtick_1">
     <g id="line2d_1">
      <defs>
       <path id="m8a102901a5" d="M 0 0 
L 0 3.5 
" style="stroke: #000000; stroke-width: 0.8"/>
      </defs>
      <g>
       <use xlink:href="#m8a102901a5" x="264.765217" y="365.256" style="stroke: #000000; stroke-width: 0.8"/>
      </g>
     </g>
     <g id="text_1">
      <!-- 50 -->
      <g transform="translate(258.402717 379.854438) scale(0.1 -0.1)">
       <defs>
        <path id="DejaVuSans-35" d="M 691 4666 
L 3169 4666 
L 3169 4134 
L 1269 4134 
L 1269 2991 
Q 1406 3038 1543 3061 
Q 1681 3084 1819 3084 
Q 2600 3084 3056 2656 
Q 3513 2228 3513 1497 
Q 3513 744 3044 326 
Q 2575 -91 1722 -91 
Q 1428 -91 1123 -41 
Q 819 9 494 109 
L 494 744 
Q 775 591 1075 516 
Q 1375 441 1709 441 
Q 2250 441 2565 725 
Q 2881 1009 2881 1497 
Q 2881 1984 2565 2268 
Q 2250 2553 1709 2553 
Q 1456 2553 1204 2497 
Q 953 2441 691 2322 
L 691 4666 
z
" transform="scale(0.015625)"/>
        <path id="DejaVuSans-30" d="M 2034 4250 
Q 1547 4250 1301 3770 
Q 1056 3291 1056 2328 
Q 1056 1369 1301 889 
Q 1547 409 2034 409 
Q 2525 409 2770 889 
Q 3016 1369 3016 2328 
Q 3016 3291 2770 3770 
Q 2525 4250 2034 4250 
z
M 2034 4750 
Q 2819 4750 3233 4129 
Q 3647 3509 3647 2328 
Q 3647 1150 3233 529 
Q 2819 -91 2034 -91 
Q 1250 -91 836 529 
Q 422 1150 422 2328 
Q 422 3509 836 4129 
Q 1250 4750 2034 4750 
z
" transform="scale(0.015625)"/>
       </defs>
       <use xlink:href="#DejaVuSans-35"/>
       <use xlink:href="#DejaVuSans-30" x="63.623047"/>
      </g>
     </g>
    </g>
    <g id="xtick_2">
     <g id="line2d_2">
      <g>
       <use xlink:href="#m8a102901a5" x="387.995031" y="365.256" style="stroke: #000000; stroke-width: 0.8"/>
      </g>
     </g>
     <g id="text_2">
      <!-- 100 -->
      <g transform="translate(378.451281 379.854438) scale(0.1 -0.1)">
       <defs>
        <path id="DejaVuSans-31" d="M 794 531 
L 1825 531 
L 1825 4091 
L 703 3866 
L 703 4441 
L 1819 4666 
L 2450 4666 
L 2450 531 
L 3481 531 
L 3481 0 
L 794 0 
L 794 531 
z
" transform="scale(0.015625)"/>
       </defs>
       <use xlink:href="#DejaVuSans-31"/>
       <use xlink:href="#DejaVuSans-30" x="63.623047"/>
       <use xlink:href="#DejaVuSans-30" x="127.246094"/>
      </g>
     </g>
    </g>
    <g id="xtick_3">
     <g id="line2d_3">
      <g>
       <use xlink:href="#m8a102901a5" x="511.224845" y="365.256" style="stroke: #000000; stroke-width: 0.8"/>
      </g>
     </g>
     <g id="text_3">
      <!-- 150 -->
      <g transform="translate(501.681095 379.854438) scale(0.1 -0.1)">
       <use xlink:href="#DejaVuSans-31"/>
       <use xlink:href="#DejaVuSans-35" x="63.623047"/>
       <use xlink:href="#DejaVuSans-30" x="127.246094"/>
      </g>
     </g>
    </g>
    <g id="xtick_4">
     <g id="line2d_4">
      <g>
       <use xlink:href="#m8a102901a5" x="634.454658" y="365.256" style="stroke: #000000; stroke-width: 0.8"/>
      </g>
     </g>
     <g id="text_4">
      <!-- 200 -->
      <g transform="translate(624.910908 379.854438) scale(0.1 -0.1)">
       <defs>
        <path id="DejaVuSans-32" d="M 1228 531 
L 3431 531 
L 3431 0 
L 469 0 
L 469 531 
Q 828 903 1448 1529 
Q 2069 2156 2228 2338 
Q 2531 2678 2651 2914 
Q 2772 3150 2772 3378 
Q 2772 3750 2511 3984 
Q 2250 4219 1831 4219 
Q 1534 4219 1204 4116 
Q 875 4013 500 3803 
L 500 4441 
Q 881 4594 1212 4672 
Q 1544 4750 1819 4750 
Q 2544 4750 2975 4387 
Q 3406 4025 3406 3419 
Q 3406 3131 3298 2873 
Q 3191 2616 2906 2266 
Q 2828 2175 2409 1742 
Q 1991 1309 1228 531 
z
" transform="scale(0.015625)"/>
       </defs>
       <use xlink:href="#DejaVuSans-32"/>
       <use xlink:href="#DejaVuSans-30" x="63.623047"/>
       <use xlink:href="#DejaVuSans-30" x="127.246094"/>
      </g>
     </g>
    </g>
    <g id="xtick_5">
     <g id="line2d_5">
      <g>
       <use xlink:href="#m8a102901a5" x="757.684472" y="365.256" style="stroke: #000000; stroke-width: 0.8"/>
      </g>
     </g>
     <g id="text_5">
      <!-- 250 -->
      <g transform="translate(748.140722 379.854438) scale(0.1 -0.1)">
       <use xlink:href="#DejaVuSans-32"/>
       <use xlink:href="#DejaVuSans-35" x="63.623047"/>
       <use xlink:href="#DejaVuSans-30" x="127.246094"/>
      </g>
     </g>
    </g>
    <g id="xtick_6">
     <g id="line2d_6">
      <g>
       <use xlink:href="#m8a102901a5" x="880.914286" y="365.256" style="stroke: #000000; stroke-width: 0.8"/>
      </g>
     </g>
     <g id="text_6">
      <!-- 300 -->
      <g transform="translate(871.370536 379.854438) scale(0.1 -0.1)">
       <defs>
        <path id="DejaVuSans-33" d="M 2597 2516 
Q 3050 2419 3304 2112 
Q 3559 1806 3559 1356 
Q 3559 666 3084 287 
Q 2609 -91 1734 -91 
Q 1441 -91 1130 -33 
Q 819 25 488 141 
L 488 750 
Q 750 597 1062 519 
Q 1375 441 1716 441 
Q 2309 441 2620 675 
Q 2931 909 2931 1356 
Q 2931 1769 2642 2001 
Q 2353 2234 1838 2234 
L 1294 2234 
L 1294 2753 
L 1863 2753 
Q 2328 2753 2575 2939 
Q 2822 3125 2822 3475 
Q 2822 3834 2567 4026 
Q 2313 4219 1838 4219 
Q 1578 4219 1281 4162 
Q 984 4106 628 3988 
L 628 4550 
Q 988 4650 1302 4700 
Q 1616 4750 1894 4750 
Q 2613 4750 3031 4423 
Q 3450 4097 3450 3541 
Q 3450 3153 3228 2886 
Q 3006 2619 2597 2516 
z
" transform="scale(0.015625)"/>
       </defs>
       <use xlink:href="#DejaVuSans-33"/>
       <use xlink:href="#DejaVuSans-30" x="63.623047"/>
       <use xlink:href="#DejaVuSans-30" x="127.246094"/>
      </g>
     </g>
    </g>
    <g id="xtick_7">
     <g id="line2d_7">
      <g>
       <use xlink:href="#m8a102901a5" x="1004.144099" y="365.256" style="stroke: #000000; stroke-width: 0.8"/>
      </g>
     </g>
     <g id="text_7">
      <!-- 350 -->
      <g transform="translate(994.600349 379.854438) scale(0.1 -0.1)">
       <use xlink:href="#DejaVuSans-33"/>
       <use xlink:href="#DejaVuSans-35" x="63.623047"/>
       <use xlink:href="#DejaVuSans-30" x="127.246094"/>
      </g>
     </g>
    </g>
    <g id="text_8">
     <!-- Residual -->
     <g transform="translate(569.284375 393.532563) scale(0.1 -0.1)">
      <defs>
       <path id="DejaVuSans-52" d="M 2841 2188 
Q 3044 2119 3236 1894 
Q 3428 1669 3622 1275 
L 4263 0 
L 3584 0 
L 2988 1197 
Q 2756 1666 2539 1819 
Q 2322 1972 1947 1972 
L 1259 1972 
L 1259 0 
L 628 0 
L 628 4666 
L 2053 4666 
Q 2853 4666 3247 4331 
Q 3641 3997 3641 3322 
Q 3641 2881 3436 2590 
Q 3231 2300 2841 2188 
z
M 1259 4147 
L 1259 2491 
L 2053 2491 
Q 2509 2491 2742 2702 
Q 2975 2913 2975 3322 
Q 2975 3731 2742 3939 
Q 2509 4147 2053 4147 
L 1259 4147 
z
" transform="scale(0.015625)"/>
       <path id="DejaVuSans-65" d="M 3597 1894 
L 3597 1613 
L 953 1613 
Q 991 1019 1311 708 
Q 1631 397 2203 397 
Q 2534 397 2845 478 
Q 3156 559 3463 722 
L 3463 178 
Q 3153 47 2828 -22 
Q 2503 -91 2169 -91 
Q 1331 -91 842 396 
Q 353 884 353 1716 
Q 353 2575 817 3079 
Q 1281 3584 2069 3584 
Q 2775 3584 3186 3129 
Q 3597 2675 3597 1894 
z
M 3022 2063 
Q 3016 2534 2758 2815 
Q 2500 3097 2075 3097 
Q 1594 3097 1305 2825 
Q 1016 2553 972 2059 
L 3022 2063 
z
" transform="scale(0.015625)"/>
       <path id="DejaVuSans-73" d="M 2834 3397 
L 2834 2853 
Q 2591 2978 2328 3040 
Q 2066 3103 1784 3103 
Q 1356 3103 1142 2972 
Q 928 2841 928 2578 
Q 928 2378 1081 2264 
Q 1234 2150 1697 2047 
L 1894 2003 
Q 2506 1872 2764 1633 
Q 3022 1394 3022 966 
Q 3022 478 2636 193 
Q 2250 -91 1575 -91 
Q 1294 -91 989 -36 
Q 684 19 347 128 
L 347 722 
Q 666 556 975 473 
Q 1284 391 1588 391 
Q 1994 391 2212 530 
Q 2431 669 2431 922 
Q 2431 1156 2273 1281 
Q 2116 1406 1581 1522 
L 1381 1569 
Q 847 1681 609 1914 
Q 372 2147 372 2553 
Q 372 3047 722 3315 
Q 1072 3584 1716 3584 
Q 2034 3584 2315 3537 
Q 2597 3491 2834 3397 
z
" transform="scale(0.015625)"/>
       <path id="DejaVuSans-69" d="M 603 3500 
L 1178 3500 
L 1178 0 
L 603 0 
L 603 3500 
z
M 603 4863 
L 1178 4863 
L 1178 4134 
L 603 4134 
L 603 4863 
z
" transform="scale(0.015625)"/>
       <path id="DejaVuSans-64" d="M 2906 2969 
L 2906 4863 
L 3481 4863 
L 3481 0 
L 2906 0 
L 2906 525 
Q 2725 213 2448 61 
Q 2172 -91 1784 -91 
Q 1150 -91 751 415 
Q 353 922 353 1747 
Q 353 2572 751 3078 
Q 1150 3584 1784 3584 
Q 2172 3584 2448 3432 
Q 2725 3281 2906 2969 
z
M 947 1747 
Q 947 1113 1208 752 
Q 1469 391 1925 391 
Q 2381 391 2643 752 
Q 2906 1113 2906 1747 
Q 2906 2381 2643 2742 
Q 2381 3103 1925 3103 
Q 1469 3103 1208 2742 
Q 947 2381 947 1747 
z
" transform="scale(0.015625)"/>
       <path id="DejaVuSans-75" d="M 544 1381 
L 544 3500 
L 1119 3500 
L 1119 1403 
Q 1119 906 1312 657 
Q 1506 409 1894 409 
Q 2359 409 2629 706 
Q 2900 1003 2900 1516 
L 2900 3500 
L 3475 3500 
L 3475 0 
L 2900 0 
L 2900 538 
Q 2691 219 2414 64 
Q 2138 -91 1772 -91 
Q 1169 -91 856 284 
Q 544 659 544 1381 
z
M 1991 3584 
L 1991 3584 
z
" transform="scale(0.015625)"/>
       <path id="DejaVuSans-61" d="M 2194 1759 
Q 1497 1759 1228 1600 
Q 959 1441 959 1056 
Q 959 750 1161 570 
Q 1363 391 1709 391 
Q 2188 391 2477 730 
Q 2766 1069 2766 1631 
L 2766 1759 
L 2194 1759 
z
M 3341 1997 
L 3341 0 
L 2766 0 
L 2766 531 
Q 2569 213 2275 61 
Q 1981 -91 1556 -91 
Q 1019 -91 701 211 
Q 384 513 384 1019 
Q 384 1609 779 1909 
Q 1175 2209 1959 2209 
L 2766 2209 
L 2766 2266 
Q 2766 2663 2505 2880 
Q 2244 3097 1772 3097 
Q 1472 3097 1187 3025 
Q 903 2953 641 2809 
L 641 3341 
Q 956 3463 1253 3523 
Q 1550 3584 1831 3584 
Q 2591 3584 2966 3190 
Q 3341 2797 3341 1997 
z
" transform="scale(0.015625)"/>
       <path id="DejaVuSans-6c" d="M 603 4863 
L 1178 4863 
L 1178 0 
L 603 0 
L 603 4863 
z
" transform="scale(0.015625)"/>
      </defs>
      <use xlink:href="#DejaVuSans-52"/>
      <use xlink:href="#DejaVuSans-65" x="64.982422"/>
      <use xlink:href="#DejaVuSans-73" x="126.505859"/>
      <use xlink:href="#DejaVuSans-69" x="178.605469"/>
      <use xlink:href="#DejaVuSans-64" x="206.388672"/>
      <use xlink:href="#DejaVuSans-75" x="269.865234"/>
      <use xlink:href="#DejaVuSans-61" x="333.244141"/>
      <use xlink:href="#DejaVuSans-6c" x="394.523438"/>
     </g>
    </g>
   </g>
   <g id="matplotlib.axis_2">
    <g id="ytick_1">
     <g id="line2d_8">
      <defs>
       <path id="m6eac7926f4" d="M 0 0 
L -3.5 0 
" style="stroke: #000000; stroke-width: 0.8"/>
      </defs>
      <g>
       <use xlink:href="#m6eac7926f4" x="144" y="347.388585" style="stroke: #000000; stroke-width: 0.8"/>
      </g>
     </g>
     <g id="text_9">
      <!-- 2.A.117.1.1 -->
      <g transform="translate(79.446875 351.187804) scale(0.1 -0.1)">
       <defs>
        <path id="DejaVuSans-2e" d="M 684 794 
L 1344 794 
L 1344 0 
L 684 0 
L 684 794 
z
" transform="scale(0.015625)"/>
        <path id="DejaVuSans-41" d="M 2188 4044 
L 1331 1722 
L 3047 1722 
L 2188 4044 
z
M 1831 4666 
L 2547 4666 
L 4325 0 
L 3669 0 
L 3244 1197 
L 1141 1197 
L 716 0 
L 50 0 
L 1831 4666 
z
" transform="scale(0.015625)"/>
        <path id="DejaVuSans-37" d="M 525 4666 
L 3525 4666 
L 3525 4397 
L 1831 0 
L 1172 0 
L 2766 4134 
L 525 4134 
L 525 4666 
z
" transform="scale(0.015625)"/>
       </defs>
       <use xlink:href="#DejaVuSans-32"/>
       <use xlink:href="#DejaVuSans-2e" x="63.623047"/>
       <use xlink:href="#DejaVuSans-41" x="95.410156"/>
       <use xlink:href="#DejaVuSans-2e" x="162.068359"/>
       <use xlink:href="#DejaVuSans-31" x="193.855469"/>
       <use xlink:href="#DejaVuSans-31" x="257.478516"/>
       <use xlink:href="#DejaVuSans-37" x="321.101562"/>
       <use xlink:href="#DejaVuSans-2e" x="384.724609"/>
       <use xlink:href="#DejaVuSans-31" x="416.511719"/>
       <use xlink:href="#DejaVuSans-2e" x="480.134766"/>
       <use xlink:href="#DejaVuSans-31" x="511.921875"/>
      </g>
     </g>
    </g>
    <g id="ytick_2">
     <g id="line2d_9">
      <g>
       <use xlink:href="#m6eac7926f4" x="144" y="329.871512" style="stroke: #000000; stroke-width: 0.8"/>
      </g>
     </g>
     <g id="text_10">
      <!-- 2.A.117.1.10 -->
      <g transform="translate(73.084375 333.670731) scale(0.1 -0.1)">
       <use xlink:href="#DejaVuSans-32"/>
       <use xlink:href="#DejaVuSans-2e" x="63.623047"/>
       <use xlink:href="#DejaVuSans-41" x="95.410156"/>
       <use xlink:href="#DejaVuSans-2e" x="162.068359"/>
       <use xlink:href="#DejaVuSans-31" x="193.855469"/>
       <use xlink:href="#DejaVuSans-31" x="257.478516"/>
       <use xlink:href="#DejaVuSans-37" x="321.101562"/>
       <use xlink:href="#DejaVuSans-2e" x="384.724609"/>
       <use xlink:href="#DejaVuSans-31" x="416.511719"/>
       <use xlink:href="#DejaVuSans-2e" x="480.134766"/>
       <use xlink:href="#DejaVuSans-31" x="511.921875"/>
       <use xlink:href="#DejaVuSans-30" x="575.544922"/>
      </g>
     </g>
    </g>
    <g id="ytick_3">
     <g id="line2d_10">
      <g>
       <use xlink:href="#m6eac7926f4" x="144" y="312.354439" style="stroke: #000000; stroke-width: 0.8"/>
      </g>
     </g>
     <g id="text_11">
      <!-- 2.A.117.1.11 -->
      <g transform="translate(73.084375 316.153658) scale(0.1 -0.1)">
       <use xlink:href="#DejaVuSans-32"/>
       <use xlink:href="#DejaVuSans-2e" x="63.623047"/>
       <use xlink:href="#DejaVuSans-41" x="95.410156"/>
       <use xlink:href="#DejaVuSans-2e" x="162.068359"/>
       <use xlink:href="#DejaVuSans-31" x="193.855469"/>
       <use xlink:href="#DejaVuSans-31" x="257.478516"/>
       <use xlink:href="#DejaVuSans-37" x="321.101562"/>
       <use xlink:href="#DejaVuSans-2e" x="384.724609"/>
       <use xlink:href="#DejaVuSans-31" x="416.511719"/>
       <use xlink:href="#DejaVuSans-2e" x="480.134766"/>
       <use xlink:href="#DejaVuSans-31" x="511.921875"/>
       <use xlink:href="#DejaVuSans-31" x="575.544922"/>
      </g>
     </g>
    </g>
    <g id="ytick_4">
     <g id="line2d_11">
      <g>
       <use xlink:href="#m6eac7926f4" x="144" y="294.837366" style="stroke: #000000; stroke-width: 0.8"/>
      </g>
     </g>
     <g id="text_12">
      <!-- 2.A.117.1.12 -->
      <g transform="translate(73.084375 298.636585) scale(0.1 -0.1)">
       <use xlink:href="#DejaVuSans-32"/>
       <use xlink:href="#DejaVuSans-2e" x="63.623047"/>
       <use xlink:href="#DejaVuSans-41" x="95.410156"/>
       <use xlink:href="#DejaVuSans-2e" x="162.068359"/>
       <use xlink:href="#DejaVuSans-31" x="193.855469"/>
       <use xlink:href="#DejaVuSans-31" x="257.478516"/>
       <use xlink:href="#DejaVuSans-37" x="321.101562"/>
       <use xlink:href="#DejaVuSans-2e" x="384.724609"/>
       <use xlink:href="#DejaVuSans-31" x="416.511719"/>
       <use xlink:href="#DejaVuSans-2e" x="480.134766"/>
       <use xlink:href="#DejaVuSans-31" x="511.921875"/>
       <use xlink:href="#DejaVuSans-32" x="575.544922"/>
      </g>
     </g>
    </g>
    <g id="ytick_5">
     <g id="line2d_12">
      <g>
       <use xlink:href="#m6eac7926f4" x="144" y="277.320293" style="stroke: #000000; stroke-width: 0.8"/>
      </g>
     </g>
     <g id="text_13">
      <!-- 2.A.117.1.13 -->
      <g transform="translate(73.084375 281.119511) scale(0.1 -0.1)">
       <use xlink:href="#DejaVuSans-32"/>
       <use xlink:href="#DejaVuSans-2e" x="63.623047"/>
       <use xlink:href="#DejaVuSans-41" x="95.410156"/>
       <use xlink:href="#DejaVuSans-2e" x="162.068359"/>
       <use xlink:href="#DejaVuSans-31" x="193.855469"/>
       <use xlink:href="#DejaVuSans-31" x="257.478516"/>
       <use xlink:href="#DejaVuSans-37" x="321.101562"/>
       <use xlink:href="#DejaVuSans-2e" x="384.724609"/>
       <use xlink:href="#DejaVuSans-31" x="416.511719"/>
       <use xlink:href="#DejaVuSans-2e" x="480.134766"/>
       <use xlink:href="#DejaVuSans-31" x="511.921875"/>
       <use xlink:href="#DejaVuSans-33" x="575.544922"/>
      </g>
     </g>
    </g>
    <g id="ytick_6">
     <g id="line2d_13">
      <g>
       <use xlink:href="#m6eac7926f4" x="144" y="259.80322" style="stroke: #000000; stroke-width: 0.8"/>
      </g>
     </g>
     <g id="text_14">
      <!-- 2.A.117.1.2 -->
      <g transform="translate(79.446875 263.602438) scale(0.1 -0.1)">
       <use xlink:href="#DejaVuSans-32"/>
       <use xlink:href="#DejaVuSans-2e" x="63.623047"/>
       <use xlink:href="#DejaVuSans-41" x="95.410156"/>
       <use xlink:href="#DejaVuSans-2e" x="162.068359"/>
       <use xlink:href="#DejaVuSans-31" x="193.855469"/>
       <use xlink:href="#DejaVuSans-31" x="257.478516"/>
       <use xlink:href="#DejaVuSans-37" x="321.101562"/>
       <use xlink:href="#DejaVuSans-2e" x="384.724609"/>
       <use xlink:href="#DejaVuSans-31" x="416.511719"/>
       <use xlink:href="#DejaVuSans-2e" x="480.134766"/>
       <use xlink:href="#DejaVuSans-32" x="511.921875"/>
      </g>
     </g>
    </g>
    <g id="ytick_7">
     <g id="line2d_14">
      <g>
       <use xlink:href="#m6eac7926f4" x="144" y="242.286146" style="stroke: #000000; stroke-width: 0.8"/>
      </g>
     </g>
     <g id="text_15">
      <!-- 2.A.117.1.3 -->
      <g transform="translate(79.446875 246.085365) scale(0.1 -0.1)">
       <use xlink:href="#DejaVuSans-32"/>
       <use xlink:href="#DejaVuSans-2e" x="63.623047"/>
       <use xlink:href="#DejaVuSans-41" x="95.410156"/>
       <use xlink:href="#DejaVuSans-2e" x="162.068359"/>
       <use xlink:href="#DejaVuSans-31" x="193.855469"/>
       <use xlink:href="#DejaVuSans-31" x="257.478516"/>
       <use xlink:href="#DejaVuSans-37" x="321.101562"/>
       <use xlink:href="#DejaVuSans-2e" x="384.724609"/>
       <use xlink:href="#DejaVuSans-31" x="416.511719"/>
       <use xlink:href="#DejaVuSans-2e" x="480.134766"/>
       <use xlink:href="#DejaVuSans-33" x="511.921875"/>
      </g>
     </g>
    </g>
    <g id="ytick_8">
     <g id="line2d_15">
      <g>
       <use xlink:href="#m6eac7926f4" x="144" y="224.769073" style="stroke: #000000; stroke-width: 0.8"/>
      </g>
     </g>
     <g id="text_16">
      <!-- 2.A.117.1.4 -->
      <g transform="translate(79.446875 228.568292) scale(0.1 -0.1)">
       <defs>
        <path id="DejaVuSans-34" d="M 2419 4116 
L 825 1625 
L 2419 1625 
L 2419 4116 
z
M 2253 4666 
L 3047 4666 
L 3047 1625 
L 3713 1625 
L 3713 1100 
L 3047 1100 
L 3047 0 
L 2419 0 
L 2419 1100 
L 313 1100 
L 313 1709 
L 2253 4666 
z
" transform="scale(0.015625)"/>
       </defs>
       <use xlink:href="#DejaVuSans-32"/>
       <use xlink:href="#DejaVuSans-2e" x="63.623047"/>
       <use xlink:href="#DejaVuSans-41" x="95.410156"/>
       <use xlink:href="#DejaVuSans-2e" x="162.068359"/>
       <use xlink:href="#DejaVuSans-31" x="193.855469"/>
       <use xlink:href="#DejaVuSans-31" x="257.478516"/>
       <use xlink:href="#DejaVuSans-37" x="321.101562"/>
       <use xlink:href="#DejaVuSans-2e" x="384.724609"/>
       <use xlink:href="#DejaVuSans-31" x="416.511719"/>
       <use xlink:href="#DejaVuSans-2e" x="480.134766"/>
       <use xlink:href="#DejaVuSans-34" x="511.921875"/>
      </g>
     </g>
    </g>
    <g id="ytick_9">
     <g id="line2d_16">
      <g>
       <use xlink:href="#m6eac7926f4" x="144" y="207.252" style="stroke: #000000; stroke-width: 0.8"/>
      </g>
     </g>
     <g id="text_17">
      <!-- 2.A.117.1.5 -->
      <g transform="translate(79.446875 211.051219) scale(0.1 -0.1)">
       <use xlink:href="#DejaVuSans-32"/>
       <use xlink:href="#DejaVuSans-2e" x="63.623047"/>
       <use xlink:href="#DejaVuSans-41" x="95.410156"/>
       <use xlink:href="#DejaVuSans-2e" x="162.068359"/>
       <use xlink:href="#DejaVuSans-31" x="193.855469"/>
       <use xlink:href="#DejaVuSans-31" x="257.478516"/>
       <use xlink:href="#DejaVuSans-37" x="321.101562"/>
       <use xlink:href="#DejaVuSans-2e" x="384.724609"/>
       <use xlink:href="#DejaVuSans-31" x="416.511719"/>
       <use xlink:href="#DejaVuSans-2e" x="480.134766"/>
       <use xlink:href="#DejaVuSans-35" x="511.921875"/>
      </g>
     </g>
    </g>
    <g id="ytick_10">
     <g id="line2d_17">
      <g>
       <use xlink:href="#m6eac7926f4" x="144" y="189.734927" style="stroke: #000000; stroke-width: 0.8"/>
      </g>
     </g>
     <g id="text_18">
      <!-- 2.A.117.1.6 -->
      <g transform="translate(79.446875 193.534146) scale(0.1 -0.1)">
       <defs>
        <path id="DejaVuSans-36" d="M 2113 2584 
Q 1688 2584 1439 2293 
Q 1191 2003 1191 1497 
Q 1191 994 1439 701 
Q 1688 409 2113 409 
Q 2538 409 2786 701 
Q 3034 994 3034 1497 
Q 3034 2003 2786 2293 
Q 2538 2584 2113 2584 
z
M 3366 4563 
L 3366 3988 
Q 3128 4100 2886 4159 
Q 2644 4219 2406 4219 
Q 1781 4219 1451 3797 
Q 1122 3375 1075 2522 
Q 1259 2794 1537 2939 
Q 1816 3084 2150 3084 
Q 2853 3084 3261 2657 
Q 3669 2231 3669 1497 
Q 3669 778 3244 343 
Q 2819 -91 2113 -91 
Q 1303 -91 875 529 
Q 447 1150 447 2328 
Q 447 3434 972 4092 
Q 1497 4750 2381 4750 
Q 2619 4750 2861 4703 
Q 3103 4656 3366 4563 
z
" transform="scale(0.015625)"/>
       </defs>
       <use xlink:href="#DejaVuSans-32"/>
       <use xlink:href="#DejaVuSans-2e" x="63.623047"/>
       <use xlink:href="#DejaVuSans-41" x="95.410156"/>
       <use xlink:href="#DejaVuSans-2e" x="162.068359"/>
       <use xlink:href="#DejaVuSans-31" x="193.855469"/>
       <use xlink:href="#DejaVuSans-31" x="257.478516"/>
       <use xlink:href="#DejaVuSans-37" x="321.101562"/>
       <use xlink:href="#DejaVuSans-2e" x="384.724609"/>
       <use xlink:href="#DejaVuSans-31" x="416.511719"/>
       <use xlink:href="#DejaVuSans-2e" x="480.134766"/>
       <use xlink:href="#DejaVuSans-36" x="511.921875"/>
      </g>
     </g>
    </g>
    <g id="ytick_11">
     <g id="line2d_18">
      <g>
       <use xlink:href="#m6eac7926f4" x="144" y="172.217854" style="stroke: #000000; stroke-width: 0.8"/>
      </g>
     </g>
     <g id="text_19">
      <!-- 2.A.117.1.7 -->
      <g transform="translate(79.446875 176.017072) scale(0.1 -0.1)">
       <use xlink:href="#DejaVuSans-32"/>
       <use xlink:href="#DejaVuSans-2e" x="63.623047"/>
       <use xlink:href="#DejaVuSans-41" x="95.410156"/>
       <use xlink:href="#DejaVuSans-2e" x="162.068359"/>
       <use xlink:href="#DejaVuSans-31" x="193.855469"/>
       <use xlink:href="#DejaVuSans-31" x="257.478516"/>
       <use xlink:href="#DejaVuSans-37" x="321.101562"/>
       <use xlink:href="#DejaVuSans-2e" x="384.724609"/>
       <use xlink:href="#DejaVuSans-31" x="416.511719"/>
       <use xlink:href="#DejaVuSans-2e" x="480.134766"/>
       <use xlink:href="#DejaVuSans-37" x="511.921875"/>
      </g>
     </g>
    </g>
    <g id="ytick_12">
     <g id="line2d_19">
      <g>
       <use xlink:href="#m6eac7926f4" x="144" y="154.70078" style="stroke: #000000; stroke-width: 0.8"/>
      </g>
     </g>
     <g id="text_20">
      <!-- 2.A.117.1.8 -->
      <g transform="translate(79.446875 158.499999) scale(0.1 -0.1)">
       <defs>
        <path id="DejaVuSans-38" d="M 2034 2216 
Q 1584 2216 1326 1975 
Q 1069 1734 1069 1313 
Q 1069 891 1326 650 
Q 1584 409 2034 409 
Q 2484 409 2743 651 
Q 3003 894 3003 1313 
Q 3003 1734 2745 1975 
Q 2488 2216 2034 2216 
z
M 1403 2484 
Q 997 2584 770 2862 
Q 544 3141 544 3541 
Q 544 4100 942 4425 
Q 1341 4750 2034 4750 
Q 2731 4750 3128 4425 
Q 3525 4100 3525 3541 
Q 3525 3141 3298 2862 
Q 3072 2584 2669 2484 
Q 3125 2378 3379 2068 
Q 3634 1759 3634 1313 
Q 3634 634 3220 271 
Q 2806 -91 2034 -91 
Q 1263 -91 848 271 
Q 434 634 434 1313 
Q 434 1759 690 2068 
Q 947 2378 1403 2484 
z
M 1172 3481 
Q 1172 3119 1398 2916 
Q 1625 2713 2034 2713 
Q 2441 2713 2670 2916 
Q 2900 3119 2900 3481 
Q 2900 3844 2670 4047 
Q 2441 4250 2034 4250 
Q 1625 4250 1398 4047 
Q 1172 3844 1172 3481 
z
" transform="scale(0.015625)"/>
       </defs>
       <use xlink:href="#DejaVuSans-32"/>
       <use xlink:href="#DejaVuSans-2e" x="63.623047"/>
       <use xlink:href="#DejaVuSans-41" x="95.410156"/>
       <use xlink:href="#DejaVuSans-2e" x="162.068359"/>
       <use xlink:href="#DejaVuSans-31" x="193.855469"/>
       <use xlink:href="#DejaVuSans-31" x="257.478516"/>
       <use xlink:href="#DejaVuSans-37" x="321.101562"/>
       <use xlink:href="#DejaVuSans-2e" x="384.724609"/>
       <use xlink:href="#DejaVuSans-31" x="416.511719"/>
       <use xlink:href="#DejaVuSans-2e" x="480.134766"/>
       <use xlink:href="#DejaVuSans-38" x="511.921875"/>
      </g>
     </g>
    </g>
    <g id="ytick_13">
     <g id="line2d_20">
      <g>
       <use xlink:href="#m6eac7926f4" x="144" y="137.183707" style="stroke: #000000; stroke-width: 0.8"/>
      </g>
     </g>
     <g id="text_21">
      <!-- 2.A.117.1.9 -->
      <g transform="translate(79.446875 140.982926) scale(0.1 -0.1)">
       <defs>
        <path id="DejaVuSans-39" d="M 703 97 
L 703 672 
Q 941 559 1184 500 
Q 1428 441 1663 441 
Q 2288 441 2617 861 
Q 2947 1281 2994 2138 
Q 2813 1869 2534 1725 
Q 2256 1581 1919 1581 
Q 1219 1581 811 2004 
Q 403 2428 403 3163 
Q 403 3881 828 4315 
Q 1253 4750 1959 4750 
Q 2769 4750 3195 4129 
Q 3622 3509 3622 2328 
Q 3622 1225 3098 567 
Q 2575 -91 1691 -91 
Q 1453 -91 1209 -44 
Q 966 3 703 97 
z
M 1959 2075 
Q 2384 2075 2632 2365 
Q 2881 2656 2881 3163 
Q 2881 3666 2632 3958 
Q 2384 4250 1959 4250 
Q 1534 4250 1286 3958 
Q 1038 3666 1038 3163 
Q 1038 2656 1286 2365 
Q 1534 2075 1959 2075 
z
" transform="scale(0.015625)"/>
       </defs>
       <use xlink:href="#DejaVuSans-32"/>
       <use xlink:href="#DejaVuSans-2e" x="63.623047"/>
       <use xlink:href="#DejaVuSans-41" x="95.410156"/>
       <use xlink:href="#DejaVuSans-2e" x="162.068359"/>
       <use xlink:href="#DejaVuSans-31" x="193.855469"/>
       <use xlink:href="#DejaVuSans-31" x="257.478516"/>
       <use xlink:href="#DejaVuSans-37" x="321.101562"/>
       <use xlink:href="#DejaVuSans-2e" x="384.724609"/>
       <use xlink:href="#DejaVuSans-31" x="416.511719"/>
       <use xlink:href="#DejaVuSans-2e" x="480.134766"/>
       <use xlink:href="#DejaVuSans-39" x="511.921875"/>
      </g>
     </g>
    </g>
    <g id="ytick_14">
     <g id="line2d_21">
      <g>
       <use xlink:href="#m6eac7926f4" x="144" y="119.666634" style="stroke: #000000; stroke-width: 0.8"/>
      </g>
     </g>
     <g id="text_22">
      <!-- 2.A.117.2.1 -->
      <g transform="translate(79.446875 123.465853) scale(0.1 -0.1)">
       <use xlink:href="#DejaVuSans-32"/>
       <use xlink:href="#DejaVuSans-2e" x="63.623047"/>
       <use xlink:href="#DejaVuSans-41" x="95.410156"/>
       <use xlink:href="#DejaVuSans-2e" x="162.068359"/>
       <use xlink:href="#DejaVuSans-31" x="193.855469"/>
       <use xlink:href="#DejaVuSans-31" x="257.478516"/>
       <use xlink:href="#DejaVuSans-37" x="321.101562"/>
       <use xlink:href="#DejaVuSans-2e" x="384.724609"/>
       <use xlink:href="#DejaVuSans-32" x="416.511719"/>
       <use xlink:href="#DejaVuSans-2e" x="480.134766"/>
       <use xlink:href="#DejaVuSans-31" x="511.921875"/>
      </g>
     </g>
    </g>
    <g id="ytick_15">
     <g id="line2d_22">
      <g>
       <use xlink:href="#m6eac7926f4" x="144" y="102.149561" style="stroke: #000000; stroke-width: 0.8"/>
      </g>
     </g>
     <g id="text_23">
      <!-- 2.A.117.2.2 -->
      <g transform="translate(79.446875 105.94878) scale(0.1 -0.1)">
       <use xlink:href="#DejaVuSans-32"/>
       <use xlink:href="#DejaVuSans-2e" x="63.623047"/>
       <use xlink:href="#DejaVuSans-41" x="95.410156"/>
       <use xlink:href="#DejaVuSans-2e" x="162.068359"/>
       <use xlink:href="#DejaVuSans-31" x="193.855469"/>
       <use xlink:href="#DejaVuSans-31" x="257.478516"/>
       <use xlink:href="#DejaVuSans-37" x="321.101562"/>
       <use xlink:href="#DejaVuSans-2e" x="384.724609"/>
       <use xlink:href="#DejaVuSans-32" x="416.511719"/>
       <use xlink:href="#DejaVuSans-2e" x="480.134766"/>
       <use xlink:href="#DejaVuSans-32" x="511.921875"/>
      </g>
     </g>
    </g>
    <g id="ytick_16">
     <g id="line2d_23">
      <g>
       <use xlink:href="#m6eac7926f4" x="144" y="84.632488" style="stroke: #000000; stroke-width: 0.8"/>
      </g>
     </g>
     <g id="text_24">
      <!-- 2.A.117.2.3 -->
      <g transform="translate(79.446875 88.431707) scale(0.1 -0.1)">
       <use xlink:href="#DejaVuSans-32"/>
       <use xlink:href="#DejaVuSans-2e" x="63.623047"/>
       <use xlink:href="#DejaVuSans-41" x="95.410156"/>
       <use xlink:href="#DejaVuSans-2e" x="162.068359"/>
       <use xlink:href="#DejaVuSans-31" x="193.855469"/>
       <use xlink:href="#DejaVuSans-31" x="257.478516"/>
       <use xlink:href="#DejaVuSans-37" x="321.101562"/>
       <use xlink:href="#DejaVuSans-2e" x="384.724609"/>
       <use xlink:href="#DejaVuSans-32" x="416.511719"/>
       <use xlink:href="#DejaVuSans-2e" x="480.134766"/>
       <use xlink:href="#DejaVuSans-33" x="511.921875"/>
      </g>
     </g>
    </g>
    <g id="ytick_17">
     <g id="line2d_24">
      <g>
       <use xlink:href="#m6eac7926f4" x="144" y="67.115415" style="stroke: #000000; stroke-width: 0.8"/>
      </g>
     </g>
     <g id="text_25">
      <!-- 2.A.117.3.1 -->
      <g transform="translate(79.446875 70.914633) scale(0.1 -0.1)">
       <use xlink:href="#DejaVuSans-32"/>
       <use xlink:href="#DejaVuSans-2e" x="63.623047"/>
       <use xlink:href="#DejaVuSans-41" x="95.410156"/>
       <use xlink:href="#DejaVuSans-2e" x="162.068359"/>
       <use xlink:href="#DejaVuSans-31" x="193.855469"/>
       <use xlink:href="#DejaVuSans-31" x="257.478516"/>
       <use xlink:href="#DejaVuSans-37" x="321.101562"/>
       <use xlink:href="#DejaVuSans-2e" x="384.724609"/>
       <use xlink:href="#DejaVuSans-33" x="416.511719"/>
       <use xlink:href="#DejaVuSans-2e" x="480.134766"/>
       <use xlink:href="#DejaVuSans-31" x="511.921875"/>
      </g>
     </g>
    </g>
   </g>
   <g id="patch_101">
    <path d="M 144 365.256 
L 144 49.248 
" style="fill: none; stroke: #000000; stroke-width: 0.8; stroke-linejoin: miter; stroke-linecap: square"/>
   </g>
   <g id="patch_102">
    <path d="M 1036.8 365.256 
L 1036.8 49.248 
" style="fill: none; stroke: #000000; stroke-width: 0.8; stroke-linejoin: miter; stroke-linecap: square"/>
   </g>
   <g id="patch_103">
    <path d="M 144 365.256 
L 1036.8 365.256 
" style="fill: none; stroke: #000000; stroke-width: 0.8; stroke-linejoin: miter; stroke-linecap: square"/>
   </g>
   <g id="patch_104">
    <path d="M 144 49.248 
L 1036.8 49.248 
" style="fill: none; stroke: #000000; stroke-width: 0.8; stroke-linejoin: miter; stroke-linecap: square"/>
   </g>
   <g id="text_26">
    <!-- 2.A.117 Summary -->
    <g transform="translate(536.415 43.248) scale(0.12 -0.12)">
     <defs>
      <path id="DejaVuSans-20" transform="scale(0.015625)"/>
      <path id="DejaVuSans-53" d="M 3425 4513 
L 3425 3897 
Q 3066 4069 2747 4153 
Q 2428 4238 2131 4238 
Q 1616 4238 1336 4038 
Q 1056 3838 1056 3469 
Q 1056 3159 1242 3001 
Q 1428 2844 1947 2747 
L 2328 2669 
Q 3034 2534 3370 2195 
Q 3706 1856 3706 1288 
Q 3706 609 3251 259 
Q 2797 -91 1919 -91 
Q 1588 -91 1214 -16 
Q 841 59 441 206 
L 441 856 
Q 825 641 1194 531 
Q 1563 422 1919 422 
Q 2459 422 2753 634 
Q 3047 847 3047 1241 
Q 3047 1584 2836 1778 
Q 2625 1972 2144 2069 
L 1759 2144 
Q 1053 2284 737 2584 
Q 422 2884 422 3419 
Q 422 4038 858 4394 
Q 1294 4750 2059 4750 
Q 2388 4750 2728 4690 
Q 3069 4631 3425 4513 
z
" transform="scale(0.015625)"/>
      <path id="DejaVuSans-6d" d="M 3328 2828 
Q 3544 3216 3844 3400 
Q 4144 3584 4550 3584 
Q 5097 3584 5394 3201 
Q 5691 2819 5691 2113 
L 5691 0 
L 5113 0 
L 5113 2094 
Q 5113 2597 4934 2840 
Q 4756 3084 4391 3084 
Q 3944 3084 3684 2787 
Q 3425 2491 3425 1978 
L 3425 0 
L 2847 0 
L 2847 2094 
Q 2847 2600 2669 2842 
Q 2491 3084 2119 3084 
Q 1678 3084 1418 2786 
Q 1159 2488 1159 1978 
L 1159 0 
L 581 0 
L 581 3500 
L 1159 3500 
L 1159 2956 
Q 1356 3278 1631 3431 
Q 1906 3584 2284 3584 
Q 2666 3584 2933 3390 
Q 3200 3197 3328 2828 
z
" transform="scale(0.015625)"/>
      <path id="DejaVuSans-72" d="M 2631 2963 
Q 2534 3019 2420 3045 
Q 2306 3072 2169 3072 
Q 1681 3072 1420 2755 
Q 1159 2438 1159 1844 
L 1159 0 
L 581 0 
L 581 3500 
L 1159 3500 
L 1159 2956 
Q 1341 3275 1631 3429 
Q 1922 3584 2338 3584 
Q 2397 3584 2469 3576 
Q 2541 3569 2628 3553 
L 2631 2963 
z
" transform="scale(0.015625)"/>
      <path id="DejaVuSans-79" d="M 2059 -325 
Q 1816 -950 1584 -1140 
Q 1353 -1331 966 -1331 
L 506 -1331 
L 506 -850 
L 844 -850 
Q 1081 -850 1212 -737 
Q 1344 -625 1503 -206 
L 1606 56 
L 191 3500 
L 800 3500 
L 1894 763 
L 2988 3500 
L 3597 3500 
L 2059 -325 
z
" transform="scale(0.015625)"/>
     </defs>
     <use xlink:href="#DejaVuSans-32"/>
     <use xlink:href="#DejaVuSans-2e" x="63.623047"/>
     <use xlink:href="#DejaVuSans-41" x="95.410156"/>
     <use xlink:href="#DejaVuSans-2e" x="162.068359"/>
     <use xlink:href="#DejaVuSans-31" x="193.855469"/>
     <use xlink:href="#DejaVuSans-31" x="257.478516"/>
     <use xlink:href="#DejaVuSans-37" x="321.101562"/>
     <use xlink:href="#DejaVuSans-20" x="384.724609"/>
     <use xlink:href="#DejaVuSans-53" x="416.511719"/>
     <use xlink:href="#DejaVuSans-75" x="479.988281"/>
     <use xlink:href="#DejaVuSans-6d" x="543.367188"/>
     <use xlink:href="#DejaVuSans-6d" x="640.779297"/>
     <use xlink:href="#DejaVuSans-61" x="738.191406"/>
     <use xlink:href="#DejaVuSans-72" x="799.470703"/>
     <use xlink:href="#DejaVuSans-79" x="840.583984"/>
    </g>
   </g>
  </g>
 </g>
 <defs>
  <clipPath id="p855c554c04">
   <rect x="144" y="49.248" width="892.8" height="316.008"/>
  </clipPath>
 </defs>
</svg>
