<?xml version="1.0" encoding="utf-8" standalone="no"?>
<!DOCTYPE svg PUBLIC "-//W3C//DTD SVG 1.1//EN"
  "http://www.w3.org/Graphics/SVG/1.1/DTD/svg11.dtd">
<svg xmlns:xlink="http://www.w3.org/1999/xlink" width="1152pt" height="306pt" viewBox="0 0 1152 306" xmlns="http://www.w3.org/2000/svg" version="1.1">
 <metadata>
  <rdf:RDF xmlns:dc="http://purl.org/dc/elements/1.1/" xmlns:cc="http://creativecommons.org/ns#" xmlns:rdf="http://www.w3.org/1999/02/22-rdf-syntax-ns#">
   <cc:Work>
    <dc:type rdf:resource="http://purl.org/dc/dcmitype/StillImage"/>
    <dc:date>2024-10-24T16:09:13.245452</dc:date>
    <dc:format>image/svg+xml</dc:format>
    <dc:creator>
     <cc:Agent>
      <dc:title>Matplotlib v3.8.4, https://matplotlib.org/</dc:title>
     </cc:Agent>
    </dc:creator>
   </cc:Work>
  </rdf:RDF>
 </metadata>
 <defs>
  <style type="text/css">*{stroke-linejoin: round; stroke-linecap: butt}</style>
 </defs>
 <g id="figure_1">
  <g id="patch_1">
   <path d="M 0 306 
L 1152 306 
L 1152 0 
L 0 0 
z
" style="fill: #ffffff"/>
  </g>
  <g id="axes_1">
   <g id="patch_2">
    <path d="M 144 272.34 
L 1036.8 272.34 
L 1036.8 36.72 
L 144 36.72 
z
" style="fill: #ffffff"/>
   </g>
   <g id="patch_3">
    <path d="M 144 261.63 
L 468.321251 261.63 
L 468.321251 255.68 
L 144 255.68 
z
" clip-path="url(#p0a4a23feba)" style="fill: #0000ff"/>
   </g>
   <g id="patch_4">
    <path d="M 144 261.63 
L 462.680881 261.63 
L 462.680881 255.68 
L 144 255.68 
z
" clip-path="url(#p0a4a23feba)" style="fill: #0000ff"/>
   </g>
   <g id="patch_5">
    <path d="M 145.410092 261.63 
L 462.680881 261.63 
L 462.680881 255.68 
L 145.410092 255.68 
z
" clip-path="url(#p0a4a23feba)" style="fill: #0000ff"/>
   </g>
   <g id="patch_6">
    <path d="M 158.100924 261.63 
L 462.680881 261.63 
L 462.680881 255.68 
L 158.100924 255.68 
z
" clip-path="url(#p0a4a23feba)" style="fill: #0000ff"/>
   </g>
   <g id="patch_7">
    <path d="M 162.331201 261.63 
L 451.400142 261.63 
L 451.400142 255.68 
L 162.331201 255.68 
z
" clip-path="url(#p0a4a23feba)" style="fill: #0000ff"/>
   </g>
   <g id="patch_8">
    <path d="M 144 244.003125 
L 145.410092 244.003125 
L 145.410092 243.556875 
L 144 243.556875 
z
" clip-path="url(#p0a4a23feba)" style="fill: #0000ff"/>
   </g>
   <g id="patch_9">
    <path d="M 146.820185 246.755 
L 468.321251 246.755 
L 468.321251 240.805 
L 146.820185 240.805 
z
" clip-path="url(#p0a4a23feba)" style="fill: #0000ff"/>
   </g>
   <g id="patch_10">
    <path d="M 158.100924 246.755 
L 468.321251 246.755 
L 468.321251 240.805 
L 158.100924 240.805 
z
" clip-path="url(#p0a4a23feba)" style="fill: #0000ff"/>
   </g>
   <g id="patch_11">
    <path d="M 160.921109 246.755 
L 466.911158 246.755 
L 466.911158 240.805 
L 160.921109 240.805 
z
" clip-path="url(#p0a4a23feba)" style="fill: #0000ff"/>
   </g>
   <g id="patch_12">
    <path d="M 163.741294 246.755 
L 461.270789 246.755 
L 461.270789 240.805 
L 163.741294 240.805 
z
" clip-path="url(#p0a4a23feba)" style="fill: #0000ff"/>
   </g>
   <g id="patch_13">
    <path d="M 167.971571 246.755 
L 457.040512 246.755 
L 457.040512 240.805 
L 167.971571 240.805 
z
" clip-path="url(#p0a4a23feba)" style="fill: #0000ff"/>
   </g>
   <g id="patch_14">
    <path d="M 144 229.128125 
L 144 229.128125 
L 144 228.681875 
L 144 228.681875 
z
" clip-path="url(#p0a4a23feba)" style="fill: #0000ff"/>
   </g>
   <g id="patch_15">
    <path d="M 145.410092 231.88 
L 444.34968 231.88 
L 444.34968 225.93 
L 145.410092 225.93 
z
" clip-path="url(#p0a4a23feba)" style="fill: #0000ff"/>
   </g>
   <g id="patch_16">
    <path d="M 148.230277 231.88 
L 444.34968 231.88 
L 444.34968 225.93 
L 148.230277 225.93 
z
" clip-path="url(#p0a4a23feba)" style="fill: #0000ff"/>
   </g>
   <g id="patch_17">
    <path d="M 158.100924 231.88 
L 444.34968 231.88 
L 444.34968 225.93 
L 158.100924 225.93 
z
" clip-path="url(#p0a4a23feba)" style="fill: #0000ff"/>
   </g>
   <g id="patch_18">
    <path d="M 165.151386 231.88 
L 444.34968 231.88 
L 444.34968 225.93 
L 165.151386 225.93 
z
" clip-path="url(#p0a4a23feba)" style="fill: #0000ff"/>
   </g>
   <g id="patch_19">
    <path d="M 172.201848 231.88 
L 444.34968 231.88 
L 444.34968 225.93 
L 172.201848 225.93 
z
" clip-path="url(#p0a4a23feba)" style="fill: #0000ff"/>
   </g>
   <g id="patch_20">
    <path d="M 445.759773 229.128125 
L 471.141436 229.128125 
L 471.141436 228.681875 
L 445.759773 228.681875 
z
" clip-path="url(#p0a4a23feba)" style="fill: #0000ff"/>
   </g>
   <g id="patch_21">
    <path d="M 144 214.253125 
L 144 214.253125 
L 144 213.806875 
L 144 213.806875 
z
" clip-path="url(#p0a4a23feba)" style="fill: #0000ff"/>
   </g>
   <g id="patch_22">
    <path d="M 145.410092 217.005 
L 468.321251 217.005 
L 468.321251 211.055 
L 145.410092 211.055 
z
" clip-path="url(#p0a4a23feba)" style="fill: #0000ff"/>
   </g>
   <g id="patch_23">
    <path d="M 148.230277 217.005 
L 468.321251 217.005 
L 468.321251 211.055 
L 148.230277 211.055 
z
" clip-path="url(#p0a4a23feba)" style="fill: #0000ff"/>
   </g>
   <g id="patch_24">
    <path d="M 152.460554 217.005 
L 466.911158 217.005 
L 466.911158 211.055 
L 152.460554 211.055 
z
" clip-path="url(#p0a4a23feba)" style="fill: #0000ff"/>
   </g>
   <g id="patch_25">
    <path d="M 159.511016 217.005 
L 466.911158 217.005 
L 466.911158 211.055 
L 159.511016 211.055 
z
" clip-path="url(#p0a4a23feba)" style="fill: #0000ff"/>
   </g>
   <g id="patch_26">
    <path d="M 167.971571 217.005 
L 454.220327 217.005 
L 454.220327 211.055 
L 167.971571 211.055 
z
" clip-path="url(#p0a4a23feba)" style="fill: #0000ff"/>
   </g>
   <g id="patch_27">
    <path d="M 144 202.13 
L 459.860697 202.13 
L 459.860697 196.18 
L 144 196.18 
z
" clip-path="url(#p0a4a23feba)" style="fill: #0000ff"/>
   </g>
   <g id="patch_28">
    <path d="M 144 202.13 
L 455.630419 202.13 
L 455.630419 196.18 
L 144 196.18 
z
" clip-path="url(#p0a4a23feba)" style="fill: #0000ff"/>
   </g>
   <g id="patch_29">
    <path d="M 152.460554 202.13 
L 459.860697 202.13 
L 459.860697 196.18 
L 152.460554 196.18 
z
" clip-path="url(#p0a4a23feba)" style="fill: #0000ff"/>
   </g>
   <g id="patch_30">
    <path d="M 160.921109 202.13 
L 449.99005 202.13 
L 449.99005 196.18 
L 160.921109 196.18 
z
" clip-path="url(#p0a4a23feba)" style="fill: #0000ff"/>
   </g>
   <g id="patch_31">
    <path d="M 186.302772 202.13 
L 459.860697 202.13 
L 459.860697 196.18 
L 186.302772 196.18 
z
" clip-path="url(#p0a4a23feba)" style="fill: #0000ff"/>
   </g>
   <g id="patch_32">
    <path d="M 144 187.255 
L 466.911158 187.255 
L 466.911158 181.305 
L 144 181.305 
z
" clip-path="url(#p0a4a23feba)" style="fill: #0000ff"/>
   </g>
   <g id="patch_33">
    <path d="M 144 187.255 
L 468.321251 187.255 
L 468.321251 181.305 
L 144 181.305 
z
" clip-path="url(#p0a4a23feba)" style="fill: #0000ff"/>
   </g>
   <g id="patch_34">
    <path d="M 153.870647 187.255 
L 465.501066 187.255 
L 465.501066 181.305 
L 153.870647 181.305 
z
" clip-path="url(#p0a4a23feba)" style="fill: #0000ff"/>
   </g>
   <g id="patch_35">
    <path d="M 165.151386 187.255 
L 438.709311 187.255 
L 438.709311 181.305 
L 165.151386 181.305 
z
" clip-path="url(#p0a4a23feba)" style="fill: #0000ff"/>
   </g>
   <g id="patch_36">
    <path d="M 189.122957 187.255 
L 438.709311 187.255 
L 438.709311 181.305 
L 189.122957 181.305 
z
" clip-path="url(#p0a4a23feba)" style="fill: #0000ff"/>
   </g>
   <g id="patch_37">
    <path d="M 144 172.38 
L 464.090974 172.38 
L 464.090974 166.43 
L 144 166.43 
z
" clip-path="url(#p0a4a23feba)" style="fill: #0000ff"/>
   </g>
   <g id="patch_38">
    <path d="M 159.511016 172.38 
L 464.090974 172.38 
L 464.090974 166.43 
L 159.511016 166.43 
z
" clip-path="url(#p0a4a23feba)" style="fill: #0000ff"/>
   </g>
   <g id="patch_39">
    <path d="M 160.921109 172.38 
L 458.450604 172.38 
L 458.450604 166.43 
L 160.921109 166.43 
z
" clip-path="url(#p0a4a23feba)" style="fill: #0000ff"/>
   </g>
   <g id="patch_40">
    <path d="M 160.921109 172.38 
L 459.860697 172.38 
L 459.860697 166.43 
L 160.921109 166.43 
z
" clip-path="url(#p0a4a23feba)" style="fill: #0000ff"/>
   </g>
   <g id="patch_41">
    <path d="M 165.151386 172.38 
L 452.810235 172.38 
L 452.810235 166.43 
L 165.151386 166.43 
z
" clip-path="url(#p0a4a23feba)" style="fill: #0000ff"/>
   </g>
   <g id="patch_42">
    <path d="M 465.501066 169.628125 
L 466.911158 169.628125 
L 466.911158 169.181875 
L 465.501066 169.181875 
z
" clip-path="url(#p0a4a23feba)" style="fill: #0000ff"/>
   </g>
   <g id="patch_43">
    <path d="M 144 157.505 
L 444.34968 157.505 
L 444.34968 151.555 
L 144 151.555 
z
" clip-path="url(#p0a4a23feba)" style="fill: #0000ff"/>
   </g>
   <g id="patch_44">
    <path d="M 162.331201 157.505 
L 444.34968 157.505 
L 444.34968 151.555 
L 162.331201 151.555 
z
" clip-path="url(#p0a4a23feba)" style="fill: #0000ff"/>
   </g>
   <g id="patch_45">
    <path d="M 162.331201 157.505 
L 444.34968 157.505 
L 444.34968 151.555 
L 162.331201 151.555 
z
" clip-path="url(#p0a4a23feba)" style="fill: #0000ff"/>
   </g>
   <g id="patch_46">
    <path d="M 165.151386 157.505 
L 444.34968 157.505 
L 444.34968 151.555 
L 165.151386 151.555 
z
" clip-path="url(#p0a4a23feba)" style="fill: #0000ff"/>
   </g>
   <g id="patch_47">
    <path d="M 189.122957 157.505 
L 444.34968 157.505 
L 444.34968 151.555 
L 189.122957 151.555 
z
" clip-path="url(#p0a4a23feba)" style="fill: #0000ff"/>
   </g>
   <g id="patch_48">
    <path d="M 445.759773 154.753125 
L 464.090974 154.753125 
L 464.090974 154.306875 
L 445.759773 154.306875 
z
" clip-path="url(#p0a4a23feba)" style="fill: #0000ff"/>
   </g>
   <g id="patch_49">
    <path d="M 144 139.878125 
L 614.97086 139.878125 
L 614.97086 139.431875 
L 144 139.431875 
z
" clip-path="url(#p0a4a23feba)" style="fill: #0000ff"/>
   </g>
   <g id="patch_50">
    <path d="M 616.380952 142.63 
L 843.405828 142.63 
L 843.405828 136.68 
L 616.380952 136.68 
z
" clip-path="url(#p0a4a23feba)" style="fill: #0000ff"/>
   </g>
   <g id="patch_51">
    <path d="M 617.791045 142.63 
L 806.743426 142.63 
L 806.743426 136.68 
L 617.791045 136.68 
z
" clip-path="url(#p0a4a23feba)" style="fill: #0000ff"/>
   </g>
   <g id="patch_52">
    <path d="M 620.61123 142.63 
L 864.557214 142.63 
L 864.557214 136.68 
L 620.61123 136.68 
z
" clip-path="url(#p0a4a23feba)" style="fill: #0000ff"/>
   </g>
   <g id="patch_53">
    <path d="M 626.251599 142.63 
L 843.405828 142.63 
L 843.405828 136.68 
L 626.251599 136.68 
z
" clip-path="url(#p0a4a23feba)" style="fill: #0000ff"/>
   </g>
   <g id="patch_54">
    <path d="M 144 125.003125 
L 624.841507 125.003125 
L 624.841507 124.556875 
L 144 124.556875 
z
" clip-path="url(#p0a4a23feba)" style="fill: #0000ff"/>
   </g>
   <g id="patch_55">
    <path d="M 626.251599 127.755 
L 853.276475 127.755 
L 853.276475 121.805 
L 626.251599 121.805 
z
" clip-path="url(#p0a4a23feba)" style="fill: #0000ff"/>
   </g>
   <g id="patch_56">
    <path d="M 627.661692 127.755 
L 816.614072 127.755 
L 816.614072 121.805 
L 627.661692 121.805 
z
" clip-path="url(#p0a4a23feba)" style="fill: #0000ff"/>
   </g>
   <g id="patch_57">
    <path d="M 630.481876 127.755 
L 853.276475 127.755 
L 853.276475 121.805 
L 630.481876 121.805 
z
" clip-path="url(#p0a4a23feba)" style="fill: #0000ff"/>
   </g>
   <g id="patch_58">
    <path d="M 630.481876 127.755 
L 853.276475 127.755 
L 853.276475 121.805 
L 630.481876 121.805 
z
" clip-path="url(#p0a4a23feba)" style="fill: #0000ff"/>
   </g>
   <g id="patch_59">
    <path d="M 854.686567 125.003125 
L 874.427861 125.003125 
L 874.427861 124.556875 
L 854.686567 124.556875 
z
" clip-path="url(#p0a4a23feba)" style="fill: #0000ff"/>
   </g>
   <g id="patch_60">
    <path d="M 144 110.128125 
L 521.904762 110.128125 
L 521.904762 109.681875 
L 144 109.681875 
z
" clip-path="url(#p0a4a23feba)" style="fill: #0000ff"/>
   </g>
   <g id="patch_61">
    <path d="M 523.314854 112.88 
L 750.33973 112.88 
L 750.33973 106.93 
L 523.314854 106.93 
z
" clip-path="url(#p0a4a23feba)" style="fill: #0000ff"/>
   </g>
   <g id="patch_62">
    <path d="M 524.724947 112.88 
L 744.69936 112.88 
L 744.69936 106.93 
L 524.724947 106.93 
z
" clip-path="url(#p0a4a23feba)" style="fill: #0000ff"/>
   </g>
   <g id="patch_63">
    <path d="M 527.545131 112.88 
L 748.929638 112.88 
L 748.929638 106.93 
L 527.545131 106.93 
z
" clip-path="url(#p0a4a23feba)" style="fill: #0000ff"/>
   </g>
   <g id="patch_64">
    <path d="M 533.185501 112.88 
L 748.929638 112.88 
L 748.929638 106.93 
L 533.185501 106.93 
z
" clip-path="url(#p0a4a23feba)" style="fill: #0000ff"/>
   </g>
   <g id="patch_65">
    <path d="M 751.749822 110.128125 
L 788.412225 110.128125 
L 788.412225 109.681875 
L 751.749822 109.681875 
z
" clip-path="url(#p0a4a23feba)" style="fill: #0000ff"/>
   </g>
   <g id="patch_66">
    <path d="M 144 95.253125 
L 502.163468 95.253125 
L 502.163468 94.806875 
L 144 94.806875 
z
" clip-path="url(#p0a4a23feba)" style="fill: #0000ff"/>
   </g>
   <g id="patch_67">
    <path d="M 503.573561 98.005 
L 734.828714 98.005 
L 734.828714 92.055 
L 503.573561 92.055 
z
" clip-path="url(#p0a4a23feba)" style="fill: #0000ff"/>
   </g>
   <g id="patch_68">
    <path d="M 513.444208 98.005 
L 755.9801 98.005 
L 755.9801 92.055 
L 513.444208 92.055 
z
" clip-path="url(#p0a4a23feba)" style="fill: #0000ff"/>
   </g>
   <g id="patch_69">
    <path d="M 612.150675 98.005 
L 755.9801 98.005 
L 755.9801 92.055 
L 612.150675 92.055 
z
" clip-path="url(#p0a4a23feba)" style="fill: #0000ff"/>
   </g>
   <g id="patch_70">
    <path d="M 757.390192 95.253125 
L 784.181947 95.253125 
L 784.181947 94.806875 
L 757.390192 94.806875 
z
" clip-path="url(#p0a4a23feba)" style="fill: #0000ff"/>
   </g>
   <g id="patch_71">
    <path d="M 144 80.378125 
L 533.185501 80.378125 
L 533.185501 79.931875 
L 144 79.931875 
z
" clip-path="url(#p0a4a23feba)" style="fill: #0000ff"/>
   </g>
   <g id="patch_72">
    <path d="M 534.595593 83.13 
L 847.636105 83.13 
L 847.636105 77.18 
L 534.595593 77.18 
z
" clip-path="url(#p0a4a23feba)" style="fill: #0000ff"/>
   </g>
   <g id="patch_73">
    <path d="M 551.516702 83.13 
L 860.326937 83.13 
L 860.326937 77.18 
L 551.516702 77.18 
z
" clip-path="url(#p0a4a23feba)" style="fill: #0000ff"/>
   </g>
   <g id="patch_74">
    <path d="M 596.639659 83.13 
L 823.664534 83.13 
L 823.664534 77.18 
L 596.639659 77.18 
z
" clip-path="url(#p0a4a23feba)" style="fill: #0000ff"/>
   </g>
   <g id="patch_75">
    <path d="M 637.532338 83.13 
L 827.894812 83.13 
L 827.894812 77.18 
L 637.532338 77.18 
z
" clip-path="url(#p0a4a23feba)" style="fill: #0000ff"/>
   </g>
   <g id="patch_76">
    <path d="M 861.737029 80.378125 
L 882.888415 80.378125 
L 882.888415 79.931875 
L 861.737029 79.931875 
z
" clip-path="url(#p0a4a23feba)" style="fill: #0000ff"/>
   </g>
   <g id="patch_77">
    <path d="M 144 65.503125 
L 442.939588 65.503125 
L 442.939588 65.056875 
L 144 65.056875 
z
" clip-path="url(#p0a4a23feba)" style="fill: #0000ff"/>
   </g>
   <g id="patch_78">
    <path d="M 444.34968 68.255 
L 709.44705 68.255 
L 709.44705 62.305 
L 444.34968 62.305 
z
" clip-path="url(#p0a4a23feba)" style="fill: #0000ff"/>
   </g>
   <g id="patch_79">
    <path d="M 478.191898 68.255 
L 706.626866 68.255 
L 706.626866 62.305 
L 478.191898 62.305 
z
" clip-path="url(#p0a4a23feba)" style="fill: #0000ff"/>
   </g>
   <g id="patch_80">
    <path d="M 488.062544 68.255 
L 668.554371 68.255 
L 668.554371 62.305 
L 488.062544 62.305 
z
" clip-path="url(#p0a4a23feba)" style="fill: #0000ff"/>
   </g>
   <g id="patch_81">
    <path d="M 710.857143 65.503125 
L 724.958067 65.503125 
L 724.958067 65.056875 
L 710.857143 65.056875 
z
" clip-path="url(#p0a4a23feba)" style="fill: #0000ff"/>
   </g>
   <g id="patch_82">
    <path d="M 144 50.628125 
L 700.986496 50.628125 
L 700.986496 50.181875 
L 144 50.181875 
z
" clip-path="url(#p0a4a23feba)" style="fill: #0000ff"/>
   </g>
   <g id="patch_83">
    <path d="M 702.396588 53.38 
L 973.134328 53.38 
L 973.134328 47.43 
L 702.396588 47.43 
z
" clip-path="url(#p0a4a23feba)" style="fill: #0000ff"/>
   </g>
   <g id="patch_84">
    <path d="M 974.544421 50.628125 
L 994.285714 50.628125 
L 994.285714 50.181875 
L 974.544421 50.181875 
z
" clip-path="url(#p0a4a23feba)" style="fill: #0000ff"/>
   </g>
   <g id="matplotlib.axis_1">
    <g id="xtick_1">
     <g id="line2d_1">
      <defs>
       <path id="m79acc48598" d="M 0 0 
L 0 3.5 
" style="stroke: #000000; stroke-width: 0.8"/>
      </defs>
      <g>
       <use xlink:href="#m79acc48598" x="283.599147" y="272.34" style="stroke: #000000; stroke-width: 0.8"/>
      </g>
     </g>
     <g id="text_1">
      <!-- 100 -->
      <g transform="translate(274.055397 286.938438) scale(0.1 -0.1)">
       <defs>
        <path id="DejaVuSans-31" d="M 794 531 
L 1825 531 
L 1825 4091 
L 703 3866 
L 703 4441 
L 1819 4666 
L 2450 4666 
L 2450 531 
L 3481 531 
L 3481 0 
L 794 0 
L 794 531 
z
" transform="scale(0.015625)"/>
        <path id="DejaVuSans-30" d="M 2034 4250 
Q 1547 4250 1301 3770 
Q 1056 3291 1056 2328 
Q 1056 1369 1301 889 
Q 1547 409 2034 409 
Q 2525 409 2770 889 
Q 3016 1369 3016 2328 
Q 3016 3291 2770 3770 
Q 2525 4250 2034 4250 
z
M 2034 4750 
Q 2819 4750 3233 4129 
Q 3647 3509 3647 2328 
Q 3647 1150 3233 529 
Q 2819 -91 2034 -91 
Q 1250 -91 836 529 
Q 422 1150 422 2328 
Q 422 3509 836 4129 
Q 1250 4750 2034 4750 
z
" transform="scale(0.015625)"/>
       </defs>
       <use xlink:href="#DejaVuSans-31"/>
       <use xlink:href="#DejaVuSans-30" x="63.623047"/>
       <use xlink:href="#DejaVuSans-30" x="127.246094"/>
      </g>
     </g>
    </g>
    <g id="xtick_2">
     <g id="line2d_2">
      <g>
       <use xlink:href="#m79acc48598" x="424.608387" y="272.34" style="stroke: #000000; stroke-width: 0.8"/>
      </g>
     </g>
     <g id="text_2">
      <!-- 200 -->
      <g transform="translate(415.064637 286.938438) scale(0.1 -0.1)">
       <defs>
        <path id="DejaVuSans-32" d="M 1228 531 
L 3431 531 
L 3431 0 
L 469 0 
L 469 531 
Q 828 903 1448 1529 
Q 2069 2156 2228 2338 
Q 2531 2678 2651 2914 
Q 2772 3150 2772 3378 
Q 2772 3750 2511 3984 
Q 2250 4219 1831 4219 
Q 1534 4219 1204 4116 
Q 875 4013 500 3803 
L 500 4441 
Q 881 4594 1212 4672 
Q 1544 4750 1819 4750 
Q 2544 4750 2975 4387 
Q 3406 4025 3406 3419 
Q 3406 3131 3298 2873 
Q 3191 2616 2906 2266 
Q 2828 2175 2409 1742 
Q 1991 1309 1228 531 
z
" transform="scale(0.015625)"/>
       </defs>
       <use xlink:href="#DejaVuSans-32"/>
       <use xlink:href="#DejaVuSans-30" x="63.623047"/>
       <use xlink:href="#DejaVuSans-30" x="127.246094"/>
      </g>
     </g>
    </g>
    <g id="xtick_3">
     <g id="line2d_3">
      <g>
       <use xlink:href="#m79acc48598" x="565.617626" y="272.34" style="stroke: #000000; stroke-width: 0.8"/>
      </g>
     </g>
     <g id="text_3">
      <!-- 300 -->
      <g transform="translate(556.073876 286.938438) scale(0.1 -0.1)">
       <defs>
        <path id="DejaVuSans-33" d="M 2597 2516 
Q 3050 2419 3304 2112 
Q 3559 1806 3559 1356 
Q 3559 666 3084 287 
Q 2609 -91 1734 -91 
Q 1441 -91 1130 -33 
Q 819 25 488 141 
L 488 750 
Q 750 597 1062 519 
Q 1375 441 1716 441 
Q 2309 441 2620 675 
Q 2931 909 2931 1356 
Q 2931 1769 2642 2001 
Q 2353 2234 1838 2234 
L 1294 2234 
L 1294 2753 
L 1863 2753 
Q 2328 2753 2575 2939 
Q 2822 3125 2822 3475 
Q 2822 3834 2567 4026 
Q 2313 4219 1838 4219 
Q 1578 4219 1281 4162 
Q 984 4106 628 3988 
L 628 4550 
Q 988 4650 1302 4700 
Q 1616 4750 1894 4750 
Q 2613 4750 3031 4423 
Q 3450 4097 3450 3541 
Q 3450 3153 3228 2886 
Q 3006 2619 2597 2516 
z
" transform="scale(0.015625)"/>
       </defs>
       <use xlink:href="#DejaVuSans-33"/>
       <use xlink:href="#DejaVuSans-30" x="63.623047"/>
       <use xlink:href="#DejaVuSans-30" x="127.246094"/>
      </g>
     </g>
    </g>
    <g id="xtick_4">
     <g id="line2d_4">
      <g>
       <use xlink:href="#m79acc48598" x="706.626866" y="272.34" style="stroke: #000000; stroke-width: 0.8"/>
      </g>
     </g>
     <g id="text_4">
      <!-- 400 -->
      <g transform="translate(697.083116 286.938438) scale(0.1 -0.1)">
       <defs>
        <path id="DejaVuSans-34" d="M 2419 4116 
L 825 1625 
L 2419 1625 
L 2419 4116 
z
M 2253 4666 
L 3047 4666 
L 3047 1625 
L 3713 1625 
L 3713 1100 
L 3047 1100 
L 3047 0 
L 2419 0 
L 2419 1100 
L 313 1100 
L 313 1709 
L 2253 4666 
z
" transform="scale(0.015625)"/>
       </defs>
       <use xlink:href="#DejaVuSans-34"/>
       <use xlink:href="#DejaVuSans-30" x="63.623047"/>
       <use xlink:href="#DejaVuSans-30" x="127.246094"/>
      </g>
     </g>
    </g>
    <g id="xtick_5">
     <g id="line2d_5">
      <g>
       <use xlink:href="#m79acc48598" x="847.636105" y="272.34" style="stroke: #000000; stroke-width: 0.8"/>
      </g>
     </g>
     <g id="text_5">
      <!-- 500 -->
      <g transform="translate(838.092355 286.938438) scale(0.1 -0.1)">
       <defs>
        <path id="DejaVuSans-35" d="M 691 4666 
L 3169 4666 
L 3169 4134 
L 1269 4134 
L 1269 2991 
Q 1406 3038 1543 3061 
Q 1681 3084 1819 3084 
Q 2600 3084 3056 2656 
Q 3513 2228 3513 1497 
Q 3513 744 3044 326 
Q 2575 -91 1722 -91 
Q 1428 -91 1123 -41 
Q 819 9 494 109 
L 494 744 
Q 775 591 1075 516 
Q 1375 441 1709 441 
Q 2250 441 2565 725 
Q 2881 1009 2881 1497 
Q 2881 1984 2565 2268 
Q 2250 2553 1709 2553 
Q 1456 2553 1204 2497 
Q 953 2441 691 2322 
L 691 4666 
z
" transform="scale(0.015625)"/>
       </defs>
       <use xlink:href="#DejaVuSans-35"/>
       <use xlink:href="#DejaVuSans-30" x="63.623047"/>
       <use xlink:href="#DejaVuSans-30" x="127.246094"/>
      </g>
     </g>
    </g>
    <g id="xtick_6">
     <g id="line2d_6">
      <g>
       <use xlink:href="#m79acc48598" x="988.645345" y="272.34" style="stroke: #000000; stroke-width: 0.8"/>
      </g>
     </g>
     <g id="text_6">
      <!-- 600 -->
      <g transform="translate(979.101595 286.938438) scale(0.1 -0.1)">
       <defs>
        <path id="DejaVuSans-36" d="M 2113 2584 
Q 1688 2584 1439 2293 
Q 1191 2003 1191 1497 
Q 1191 994 1439 701 
Q 1688 409 2113 409 
Q 2538 409 2786 701 
Q 3034 994 3034 1497 
Q 3034 2003 2786 2293 
Q 2538 2584 2113 2584 
z
M 3366 4563 
L 3366 3988 
Q 3128 4100 2886 4159 
Q 2644 4219 2406 4219 
Q 1781 4219 1451 3797 
Q 1122 3375 1075 2522 
Q 1259 2794 1537 2939 
Q 1816 3084 2150 3084 
Q 2853 3084 3261 2657 
Q 3669 2231 3669 1497 
Q 3669 778 3244 343 
Q 2819 -91 2113 -91 
Q 1303 -91 875 529 
Q 447 1150 447 2328 
Q 447 3434 972 4092 
Q 1497 4750 2381 4750 
Q 2619 4750 2861 4703 
Q 3103 4656 3366 4563 
z
" transform="scale(0.015625)"/>
       </defs>
       <use xlink:href="#DejaVuSans-36"/>
       <use xlink:href="#DejaVuSans-30" x="63.623047"/>
       <use xlink:href="#DejaVuSans-30" x="127.246094"/>
      </g>
     </g>
    </g>
    <g id="text_7">
     <!-- Residual -->
     <g transform="translate(569.284375 300.616562) scale(0.1 -0.1)">
      <defs>
       <path id="DejaVuSans-52" d="M 2841 2188 
Q 3044 2119 3236 1894 
Q 3428 1669 3622 1275 
L 4263 0 
L 3584 0 
L 2988 1197 
Q 2756 1666 2539 1819 
Q 2322 1972 1947 1972 
L 1259 1972 
L 1259 0 
L 628 0 
L 628 4666 
L 2053 4666 
Q 2853 4666 3247 4331 
Q 3641 3997 3641 3322 
Q 3641 2881 3436 2590 
Q 3231 2300 2841 2188 
z
M 1259 4147 
L 1259 2491 
L 2053 2491 
Q 2509 2491 2742 2702 
Q 2975 2913 2975 3322 
Q 2975 3731 2742 3939 
Q 2509 4147 2053 4147 
L 1259 4147 
z
" transform="scale(0.015625)"/>
       <path id="DejaVuSans-65" d="M 3597 1894 
L 3597 1613 
L 953 1613 
Q 991 1019 1311 708 
Q 1631 397 2203 397 
Q 2534 397 2845 478 
Q 3156 559 3463 722 
L 3463 178 
Q 3153 47 2828 -22 
Q 2503 -91 2169 -91 
Q 1331 -91 842 396 
Q 353 884 353 1716 
Q 353 2575 817 3079 
Q 1281 3584 2069 3584 
Q 2775 3584 3186 3129 
Q 3597 2675 3597 1894 
z
M 3022 2063 
Q 3016 2534 2758 2815 
Q 2500 3097 2075 3097 
Q 1594 3097 1305 2825 
Q 1016 2553 972 2059 
L 3022 2063 
z
" transform="scale(0.015625)"/>
       <path id="DejaVuSans-73" d="M 2834 3397 
L 2834 2853 
Q 2591 2978 2328 3040 
Q 2066 3103 1784 3103 
Q 1356 3103 1142 2972 
Q 928 2841 928 2578 
Q 928 2378 1081 2264 
Q 1234 2150 1697 2047 
L 1894 2003 
Q 2506 1872 2764 1633 
Q 3022 1394 3022 966 
Q 3022 478 2636 193 
Q 2250 -91 1575 -91 
Q 1294 -91 989 -36 
Q 684 19 347 128 
L 347 722 
Q 666 556 975 473 
Q 1284 391 1588 391 
Q 1994 391 2212 530 
Q 2431 669 2431 922 
Q 2431 1156 2273 1281 
Q 2116 1406 1581 1522 
L 1381 1569 
Q 847 1681 609 1914 
Q 372 2147 372 2553 
Q 372 3047 722 3315 
Q 1072 3584 1716 3584 
Q 2034 3584 2315 3537 
Q 2597 3491 2834 3397 
z
" transform="scale(0.015625)"/>
       <path id="DejaVuSans-69" d="M 603 3500 
L 1178 3500 
L 1178 0 
L 603 0 
L 603 3500 
z
M 603 4863 
L 1178 4863 
L 1178 4134 
L 603 4134 
L 603 4863 
z
" transform="scale(0.015625)"/>
       <path id="DejaVuSans-64" d="M 2906 2969 
L 2906 4863 
L 3481 4863 
L 3481 0 
L 2906 0 
L 2906 525 
Q 2725 213 2448 61 
Q 2172 -91 1784 -91 
Q 1150 -91 751 415 
Q 353 922 353 1747 
Q 353 2572 751 3078 
Q 1150 3584 1784 3584 
Q 2172 3584 2448 3432 
Q 2725 3281 2906 2969 
z
M 947 1747 
Q 947 1113 1208 752 
Q 1469 391 1925 391 
Q 2381 391 2643 752 
Q 2906 1113 2906 1747 
Q 2906 2381 2643 2742 
Q 2381 3103 1925 3103 
Q 1469 3103 1208 2742 
Q 947 2381 947 1747 
z
" transform="scale(0.015625)"/>
       <path id="DejaVuSans-75" d="M 544 1381 
L 544 3500 
L 1119 3500 
L 1119 1403 
Q 1119 906 1312 657 
Q 1506 409 1894 409 
Q 2359 409 2629 706 
Q 2900 1003 2900 1516 
L 2900 3500 
L 3475 3500 
L 3475 0 
L 2900 0 
L 2900 538 
Q 2691 219 2414 64 
Q 2138 -91 1772 -91 
Q 1169 -91 856 284 
Q 544 659 544 1381 
z
M 1991 3584 
L 1991 3584 
z
" transform="scale(0.015625)"/>
       <path id="DejaVuSans-61" d="M 2194 1759 
Q 1497 1759 1228 1600 
Q 959 1441 959 1056 
Q 959 750 1161 570 
Q 1363 391 1709 391 
Q 2188 391 2477 730 
Q 2766 1069 2766 1631 
L 2766 1759 
L 2194 1759 
z
M 3341 1997 
L 3341 0 
L 2766 0 
L 2766 531 
Q 2569 213 2275 61 
Q 1981 -91 1556 -91 
Q 1019 -91 701 211 
Q 384 513 384 1019 
Q 384 1609 779 1909 
Q 1175 2209 1959 2209 
L 2766 2209 
L 2766 2266 
Q 2766 2663 2505 2880 
Q 2244 3097 1772 3097 
Q 1472 3097 1187 3025 
Q 903 2953 641 2809 
L 641 3341 
Q 956 3463 1253 3523 
Q 1550 3584 1831 3584 
Q 2591 3584 2966 3190 
Q 3341 2797 3341 1997 
z
" transform="scale(0.015625)"/>
       <path id="DejaVuSans-6c" d="M 603 4863 
L 1178 4863 
L 1178 0 
L 603 0 
L 603 4863 
z
" transform="scale(0.015625)"/>
      </defs>
      <use xlink:href="#DejaVuSans-52"/>
      <use xlink:href="#DejaVuSans-65" x="64.982422"/>
      <use xlink:href="#DejaVuSans-73" x="126.505859"/>
      <use xlink:href="#DejaVuSans-69" x="178.605469"/>
      <use xlink:href="#DejaVuSans-64" x="206.388672"/>
      <use xlink:href="#DejaVuSans-75" x="269.865234"/>
      <use xlink:href="#DejaVuSans-61" x="333.244141"/>
      <use xlink:href="#DejaVuSans-6c" x="394.523438"/>
     </g>
    </g>
   </g>
   <g id="matplotlib.axis_2">
    <g id="ytick_1">
     <g id="line2d_7">
      <defs>
       <path id="m89f864947e" d="M 0 0 
L -3.5 0 
" style="stroke: #000000; stroke-width: 0.8"/>
      </defs>
      <g>
       <use xlink:href="#m89f864947e" x="144" y="258.655" style="stroke: #000000; stroke-width: 0.8"/>
      </g>
     </g>
     <g id="text_8">
      <!-- 2.A.122.1.1 -->
      <g transform="translate(79.446875 262.454219) scale(0.1 -0.1)">
       <defs>
        <path id="DejaVuSans-2e" d="M 684 794 
L 1344 794 
L 1344 0 
L 684 0 
L 684 794 
z
" transform="scale(0.015625)"/>
        <path id="DejaVuSans-41" d="M 2188 4044 
L 1331 1722 
L 3047 1722 
L 2188 4044 
z
M 1831 4666 
L 2547 4666 
L 4325 0 
L 3669 0 
L 3244 1197 
L 1141 1197 
L 716 0 
L 50 0 
L 1831 4666 
z
" transform="scale(0.015625)"/>
       </defs>
       <use xlink:href="#DejaVuSans-32"/>
       <use xlink:href="#DejaVuSans-2e" x="63.623047"/>
       <use xlink:href="#DejaVuSans-41" x="95.410156"/>
       <use xlink:href="#DejaVuSans-2e" x="162.068359"/>
       <use xlink:href="#DejaVuSans-31" x="193.855469"/>
       <use xlink:href="#DejaVuSans-32" x="257.478516"/>
       <use xlink:href="#DejaVuSans-32" x="321.101562"/>
       <use xlink:href="#DejaVuSans-2e" x="384.724609"/>
       <use xlink:href="#DejaVuSans-31" x="416.511719"/>
       <use xlink:href="#DejaVuSans-2e" x="480.134766"/>
       <use xlink:href="#DejaVuSans-31" x="511.921875"/>
      </g>
     </g>
    </g>
    <g id="ytick_2">
     <g id="line2d_8">
      <g>
       <use xlink:href="#m89f864947e" x="144" y="243.78" style="stroke: #000000; stroke-width: 0.8"/>
      </g>
     </g>
     <g id="text_9">
      <!-- 2.A.122.1.2 -->
      <g transform="translate(79.446875 247.579219) scale(0.1 -0.1)">
       <use xlink:href="#DejaVuSans-32"/>
       <use xlink:href="#DejaVuSans-2e" x="63.623047"/>
       <use xlink:href="#DejaVuSans-41" x="95.410156"/>
       <use xlink:href="#DejaVuSans-2e" x="162.068359"/>
       <use xlink:href="#DejaVuSans-31" x="193.855469"/>
       <use xlink:href="#DejaVuSans-32" x="257.478516"/>
       <use xlink:href="#DejaVuSans-32" x="321.101562"/>
       <use xlink:href="#DejaVuSans-2e" x="384.724609"/>
       <use xlink:href="#DejaVuSans-31" x="416.511719"/>
       <use xlink:href="#DejaVuSans-2e" x="480.134766"/>
       <use xlink:href="#DejaVuSans-32" x="511.921875"/>
      </g>
     </g>
    </g>
    <g id="ytick_3">
     <g id="line2d_9">
      <g>
       <use xlink:href="#m89f864947e" x="144" y="228.905" style="stroke: #000000; stroke-width: 0.8"/>
      </g>
     </g>
     <g id="text_10">
      <!-- 2.A.122.1.3 -->
      <g transform="translate(79.446875 232.704219) scale(0.1 -0.1)">
       <use xlink:href="#DejaVuSans-32"/>
       <use xlink:href="#DejaVuSans-2e" x="63.623047"/>
       <use xlink:href="#DejaVuSans-41" x="95.410156"/>
       <use xlink:href="#DejaVuSans-2e" x="162.068359"/>
       <use xlink:href="#DejaVuSans-31" x="193.855469"/>
       <use xlink:href="#DejaVuSans-32" x="257.478516"/>
       <use xlink:href="#DejaVuSans-32" x="321.101562"/>
       <use xlink:href="#DejaVuSans-2e" x="384.724609"/>
       <use xlink:href="#DejaVuSans-31" x="416.511719"/>
       <use xlink:href="#DejaVuSans-2e" x="480.134766"/>
       <use xlink:href="#DejaVuSans-33" x="511.921875"/>
      </g>
     </g>
    </g>
    <g id="ytick_4">
     <g id="line2d_10">
      <g>
       <use xlink:href="#m89f864947e" x="144" y="214.03" style="stroke: #000000; stroke-width: 0.8"/>
      </g>
     </g>
     <g id="text_11">
      <!-- 2.A.122.1.4 -->
      <g transform="translate(79.446875 217.829219) scale(0.1 -0.1)">
       <use xlink:href="#DejaVuSans-32"/>
       <use xlink:href="#DejaVuSans-2e" x="63.623047"/>
       <use xlink:href="#DejaVuSans-41" x="95.410156"/>
       <use xlink:href="#DejaVuSans-2e" x="162.068359"/>
       <use xlink:href="#DejaVuSans-31" x="193.855469"/>
       <use xlink:href="#DejaVuSans-32" x="257.478516"/>
       <use xlink:href="#DejaVuSans-32" x="321.101562"/>
       <use xlink:href="#DejaVuSans-2e" x="384.724609"/>
       <use xlink:href="#DejaVuSans-31" x="416.511719"/>
       <use xlink:href="#DejaVuSans-2e" x="480.134766"/>
       <use xlink:href="#DejaVuSans-34" x="511.921875"/>
      </g>
     </g>
    </g>
    <g id="ytick_5">
     <g id="line2d_11">
      <g>
       <use xlink:href="#m89f864947e" x="144" y="199.155" style="stroke: #000000; stroke-width: 0.8"/>
      </g>
     </g>
     <g id="text_12">
      <!-- 2.A.122.1.5 -->
      <g transform="translate(79.446875 202.954219) scale(0.1 -0.1)">
       <use xlink:href="#DejaVuSans-32"/>
       <use xlink:href="#DejaVuSans-2e" x="63.623047"/>
       <use xlink:href="#DejaVuSans-41" x="95.410156"/>
       <use xlink:href="#DejaVuSans-2e" x="162.068359"/>
       <use xlink:href="#DejaVuSans-31" x="193.855469"/>
       <use xlink:href="#DejaVuSans-32" x="257.478516"/>
       <use xlink:href="#DejaVuSans-32" x="321.101562"/>
       <use xlink:href="#DejaVuSans-2e" x="384.724609"/>
       <use xlink:href="#DejaVuSans-31" x="416.511719"/>
       <use xlink:href="#DejaVuSans-2e" x="480.134766"/>
       <use xlink:href="#DejaVuSans-35" x="511.921875"/>
      </g>
     </g>
    </g>
    <g id="ytick_6">
     <g id="line2d_12">
      <g>
       <use xlink:href="#m89f864947e" x="144" y="184.28" style="stroke: #000000; stroke-width: 0.8"/>
      </g>
     </g>
     <g id="text_13">
      <!-- 2.A.122.1.6 -->
      <g transform="translate(79.446875 188.079219) scale(0.1 -0.1)">
       <use xlink:href="#DejaVuSans-32"/>
       <use xlink:href="#DejaVuSans-2e" x="63.623047"/>
       <use xlink:href="#DejaVuSans-41" x="95.410156"/>
       <use xlink:href="#DejaVuSans-2e" x="162.068359"/>
       <use xlink:href="#DejaVuSans-31" x="193.855469"/>
       <use xlink:href="#DejaVuSans-32" x="257.478516"/>
       <use xlink:href="#DejaVuSans-32" x="321.101562"/>
       <use xlink:href="#DejaVuSans-2e" x="384.724609"/>
       <use xlink:href="#DejaVuSans-31" x="416.511719"/>
       <use xlink:href="#DejaVuSans-2e" x="480.134766"/>
       <use xlink:href="#DejaVuSans-36" x="511.921875"/>
      </g>
     </g>
    </g>
    <g id="ytick_7">
     <g id="line2d_13">
      <g>
       <use xlink:href="#m89f864947e" x="144" y="169.405" style="stroke: #000000; stroke-width: 0.8"/>
      </g>
     </g>
     <g id="text_14">
      <!-- 2.A.122.1.7 -->
      <g transform="translate(79.446875 173.204219) scale(0.1 -0.1)">
       <defs>
        <path id="DejaVuSans-37" d="M 525 4666 
L 3525 4666 
L 3525 4397 
L 1831 0 
L 1172 0 
L 2766 4134 
L 525 4134 
L 525 4666 
z
" transform="scale(0.015625)"/>
       </defs>
       <use xlink:href="#DejaVuSans-32"/>
       <use xlink:href="#DejaVuSans-2e" x="63.623047"/>
       <use xlink:href="#DejaVuSans-41" x="95.410156"/>
       <use xlink:href="#DejaVuSans-2e" x="162.068359"/>
       <use xlink:href="#DejaVuSans-31" x="193.855469"/>
       <use xlink:href="#DejaVuSans-32" x="257.478516"/>
       <use xlink:href="#DejaVuSans-32" x="321.101562"/>
       <use xlink:href="#DejaVuSans-2e" x="384.724609"/>
       <use xlink:href="#DejaVuSans-31" x="416.511719"/>
       <use xlink:href="#DejaVuSans-2e" x="480.134766"/>
       <use xlink:href="#DejaVuSans-37" x="511.921875"/>
      </g>
     </g>
    </g>
    <g id="ytick_8">
     <g id="line2d_14">
      <g>
       <use xlink:href="#m89f864947e" x="144" y="154.53" style="stroke: #000000; stroke-width: 0.8"/>
      </g>
     </g>
     <g id="text_15">
      <!-- 2.A.122.1.8 -->
      <g transform="translate(79.446875 158.329219) scale(0.1 -0.1)">
       <defs>
        <path id="DejaVuSans-38" d="M 2034 2216 
Q 1584 2216 1326 1975 
Q 1069 1734 1069 1313 
Q 1069 891 1326 650 
Q 1584 409 2034 409 
Q 2484 409 2743 651 
Q 3003 894 3003 1313 
Q 3003 1734 2745 1975 
Q 2488 2216 2034 2216 
z
M 1403 2484 
Q 997 2584 770 2862 
Q 544 3141 544 3541 
Q 544 4100 942 4425 
Q 1341 4750 2034 4750 
Q 2731 4750 3128 4425 
Q 3525 4100 3525 3541 
Q 3525 3141 3298 2862 
Q 3072 2584 2669 2484 
Q 3125 2378 3379 2068 
Q 3634 1759 3634 1313 
Q 3634 634 3220 271 
Q 2806 -91 2034 -91 
Q 1263 -91 848 271 
Q 434 634 434 1313 
Q 434 1759 690 2068 
Q 947 2378 1403 2484 
z
M 1172 3481 
Q 1172 3119 1398 2916 
Q 1625 2713 2034 2713 
Q 2441 2713 2670 2916 
Q 2900 3119 2900 3481 
Q 2900 3844 2670 4047 
Q 2441 4250 2034 4250 
Q 1625 4250 1398 4047 
Q 1172 3844 1172 3481 
z
" transform="scale(0.015625)"/>
       </defs>
       <use xlink:href="#DejaVuSans-32"/>
       <use xlink:href="#DejaVuSans-2e" x="63.623047"/>
       <use xlink:href="#DejaVuSans-41" x="95.410156"/>
       <use xlink:href="#DejaVuSans-2e" x="162.068359"/>
       <use xlink:href="#DejaVuSans-31" x="193.855469"/>
       <use xlink:href="#DejaVuSans-32" x="257.478516"/>
       <use xlink:href="#DejaVuSans-32" x="321.101562"/>
       <use xlink:href="#DejaVuSans-2e" x="384.724609"/>
       <use xlink:href="#DejaVuSans-31" x="416.511719"/>
       <use xlink:href="#DejaVuSans-2e" x="480.134766"/>
       <use xlink:href="#DejaVuSans-38" x="511.921875"/>
      </g>
     </g>
    </g>
    <g id="ytick_9">
     <g id="line2d_15">
      <g>
       <use xlink:href="#m89f864947e" x="144" y="139.655" style="stroke: #000000; stroke-width: 0.8"/>
      </g>
     </g>
     <g id="text_16">
      <!-- 2.A.122.2.1 -->
      <g transform="translate(79.446875 143.454219) scale(0.1 -0.1)">
       <use xlink:href="#DejaVuSans-32"/>
       <use xlink:href="#DejaVuSans-2e" x="63.623047"/>
       <use xlink:href="#DejaVuSans-41" x="95.410156"/>
       <use xlink:href="#DejaVuSans-2e" x="162.068359"/>
       <use xlink:href="#DejaVuSans-31" x="193.855469"/>
       <use xlink:href="#DejaVuSans-32" x="257.478516"/>
       <use xlink:href="#DejaVuSans-32" x="321.101562"/>
       <use xlink:href="#DejaVuSans-2e" x="384.724609"/>
       <use xlink:href="#DejaVuSans-32" x="416.511719"/>
       <use xlink:href="#DejaVuSans-2e" x="480.134766"/>
       <use xlink:href="#DejaVuSans-31" x="511.921875"/>
      </g>
     </g>
    </g>
    <g id="ytick_10">
     <g id="line2d_16">
      <g>
       <use xlink:href="#m89f864947e" x="144" y="124.78" style="stroke: #000000; stroke-width: 0.8"/>
      </g>
     </g>
     <g id="text_17">
      <!-- 2.A.122.2.2 -->
      <g transform="translate(79.446875 128.579219) scale(0.1 -0.1)">
       <use xlink:href="#DejaVuSans-32"/>
       <use xlink:href="#DejaVuSans-2e" x="63.623047"/>
       <use xlink:href="#DejaVuSans-41" x="95.410156"/>
       <use xlink:href="#DejaVuSans-2e" x="162.068359"/>
       <use xlink:href="#DejaVuSans-31" x="193.855469"/>
       <use xlink:href="#DejaVuSans-32" x="257.478516"/>
       <use xlink:href="#DejaVuSans-32" x="321.101562"/>
       <use xlink:href="#DejaVuSans-2e" x="384.724609"/>
       <use xlink:href="#DejaVuSans-32" x="416.511719"/>
       <use xlink:href="#DejaVuSans-2e" x="480.134766"/>
       <use xlink:href="#DejaVuSans-32" x="511.921875"/>
      </g>
     </g>
    </g>
    <g id="ytick_11">
     <g id="line2d_17">
      <g>
       <use xlink:href="#m89f864947e" x="144" y="109.905" style="stroke: #000000; stroke-width: 0.8"/>
      </g>
     </g>
     <g id="text_18">
      <!-- 2.A.122.2.3 -->
      <g transform="translate(79.446875 113.704219) scale(0.1 -0.1)">
       <use xlink:href="#DejaVuSans-32"/>
       <use xlink:href="#DejaVuSans-2e" x="63.623047"/>
       <use xlink:href="#DejaVuSans-41" x="95.410156"/>
       <use xlink:href="#DejaVuSans-2e" x="162.068359"/>
       <use xlink:href="#DejaVuSans-31" x="193.855469"/>
       <use xlink:href="#DejaVuSans-32" x="257.478516"/>
       <use xlink:href="#DejaVuSans-32" x="321.101562"/>
       <use xlink:href="#DejaVuSans-2e" x="384.724609"/>
       <use xlink:href="#DejaVuSans-32" x="416.511719"/>
       <use xlink:href="#DejaVuSans-2e" x="480.134766"/>
       <use xlink:href="#DejaVuSans-33" x="511.921875"/>
      </g>
     </g>
    </g>
    <g id="ytick_12">
     <g id="line2d_18">
      <g>
       <use xlink:href="#m89f864947e" x="144" y="95.03" style="stroke: #000000; stroke-width: 0.8"/>
      </g>
     </g>
     <g id="text_19">
      <!-- 2.A.122.2.4 -->
      <g transform="translate(79.446875 98.829219) scale(0.1 -0.1)">
       <use xlink:href="#DejaVuSans-32"/>
       <use xlink:href="#DejaVuSans-2e" x="63.623047"/>
       <use xlink:href="#DejaVuSans-41" x="95.410156"/>
       <use xlink:href="#DejaVuSans-2e" x="162.068359"/>
       <use xlink:href="#DejaVuSans-31" x="193.855469"/>
       <use xlink:href="#DejaVuSans-32" x="257.478516"/>
       <use xlink:href="#DejaVuSans-32" x="321.101562"/>
       <use xlink:href="#DejaVuSans-2e" x="384.724609"/>
       <use xlink:href="#DejaVuSans-32" x="416.511719"/>
       <use xlink:href="#DejaVuSans-2e" x="480.134766"/>
       <use xlink:href="#DejaVuSans-34" x="511.921875"/>
      </g>
     </g>
    </g>
    <g id="ytick_13">
     <g id="line2d_19">
      <g>
       <use xlink:href="#m89f864947e" x="144" y="80.155" style="stroke: #000000; stroke-width: 0.8"/>
      </g>
     </g>
     <g id="text_20">
      <!-- 2.A.122.2.5 -->
      <g transform="translate(79.446875 83.954219) scale(0.1 -0.1)">
       <use xlink:href="#DejaVuSans-32"/>
       <use xlink:href="#DejaVuSans-2e" x="63.623047"/>
       <use xlink:href="#DejaVuSans-41" x="95.410156"/>
       <use xlink:href="#DejaVuSans-2e" x="162.068359"/>
       <use xlink:href="#DejaVuSans-31" x="193.855469"/>
       <use xlink:href="#DejaVuSans-32" x="257.478516"/>
       <use xlink:href="#DejaVuSans-32" x="321.101562"/>
       <use xlink:href="#DejaVuSans-2e" x="384.724609"/>
       <use xlink:href="#DejaVuSans-32" x="416.511719"/>
       <use xlink:href="#DejaVuSans-2e" x="480.134766"/>
       <use xlink:href="#DejaVuSans-35" x="511.921875"/>
      </g>
     </g>
    </g>
    <g id="ytick_14">
     <g id="line2d_20">
      <g>
       <use xlink:href="#m89f864947e" x="144" y="65.28" style="stroke: #000000; stroke-width: 0.8"/>
      </g>
     </g>
     <g id="text_21">
      <!-- 2.A.122.2.6 -->
      <g transform="translate(79.446875 69.079219) scale(0.1 -0.1)">
       <use xlink:href="#DejaVuSans-32"/>
       <use xlink:href="#DejaVuSans-2e" x="63.623047"/>
       <use xlink:href="#DejaVuSans-41" x="95.410156"/>
       <use xlink:href="#DejaVuSans-2e" x="162.068359"/>
       <use xlink:href="#DejaVuSans-31" x="193.855469"/>
       <use xlink:href="#DejaVuSans-32" x="257.478516"/>
       <use xlink:href="#DejaVuSans-32" x="321.101562"/>
       <use xlink:href="#DejaVuSans-2e" x="384.724609"/>
       <use xlink:href="#DejaVuSans-32" x="416.511719"/>
       <use xlink:href="#DejaVuSans-2e" x="480.134766"/>
       <use xlink:href="#DejaVuSans-36" x="511.921875"/>
      </g>
     </g>
    </g>
    <g id="ytick_15">
     <g id="line2d_21">
      <g>
       <use xlink:href="#m89f864947e" x="144" y="50.405" style="stroke: #000000; stroke-width: 0.8"/>
      </g>
     </g>
     <g id="text_22">
      <!-- 2.A.122.3.1 -->
      <g transform="translate(79.446875 54.204219) scale(0.1 -0.1)">
       <use xlink:href="#DejaVuSans-32"/>
       <use xlink:href="#DejaVuSans-2e" x="63.623047"/>
       <use xlink:href="#DejaVuSans-41" x="95.410156"/>
       <use xlink:href="#DejaVuSans-2e" x="162.068359"/>
       <use xlink:href="#DejaVuSans-31" x="193.855469"/>
       <use xlink:href="#DejaVuSans-32" x="257.478516"/>
       <use xlink:href="#DejaVuSans-32" x="321.101562"/>
       <use xlink:href="#DejaVuSans-2e" x="384.724609"/>
       <use xlink:href="#DejaVuSans-33" x="416.511719"/>
       <use xlink:href="#DejaVuSans-2e" x="480.134766"/>
       <use xlink:href="#DejaVuSans-31" x="511.921875"/>
      </g>
     </g>
    </g>
   </g>
   <g id="patch_85">
    <path d="M 144 272.34 
L 144 36.72 
" style="fill: none; stroke: #000000; stroke-width: 0.8; stroke-linejoin: miter; stroke-linecap: square"/>
   </g>
   <g id="patch_86">
    <path d="M 1036.8 272.34 
L 1036.8 36.72 
" style="fill: none; stroke: #000000; stroke-width: 0.8; stroke-linejoin: miter; stroke-linecap: square"/>
   </g>
   <g id="patch_87">
    <path d="M 144 272.34 
L 1036.8 272.34 
" style="fill: none; stroke: #000000; stroke-width: 0.8; stroke-linejoin: miter; stroke-linecap: square"/>
   </g>
   <g id="patch_88">
    <path d="M 144 36.72 
L 1036.8 36.72 
" style="fill: none; stroke: #000000; stroke-width: 0.8; stroke-linejoin: miter; stroke-linecap: square"/>
   </g>
   <g id="text_23">
    <!-- 2.A.122 Summary -->
    <g transform="translate(536.415 30.72) scale(0.12 -0.12)">
     <defs>
      <path id="DejaVuSans-20" transform="scale(0.015625)"/>
      <path id="DejaVuSans-53" d="M 3425 4513 
L 3425 3897 
Q 3066 4069 2747 4153 
Q 2428 4238 2131 4238 
Q 1616 4238 1336 4038 
Q 1056 3838 1056 3469 
Q 1056 3159 1242 3001 
Q 1428 2844 1947 2747 
L 2328 2669 
Q 3034 2534 3370 2195 
Q 3706 1856 3706 1288 
Q 3706 609 3251 259 
Q 2797 -91 1919 -91 
Q 1588 -91 1214 -16 
Q 841 59 441 206 
L 441 856 
Q 825 641 1194 531 
Q 1563 422 1919 422 
Q 2459 422 2753 634 
Q 3047 847 3047 1241 
Q 3047 1584 2836 1778 
Q 2625 1972 2144 2069 
L 1759 2144 
Q 1053 2284 737 2584 
Q 422 2884 422 3419 
Q 422 4038 858 4394 
Q 1294 4750 2059 4750 
Q 2388 4750 2728 4690 
Q 3069 4631 3425 4513 
z
" transform="scale(0.015625)"/>
      <path id="DejaVuSans-6d" d="M 3328 2828 
Q 3544 3216 3844 3400 
Q 4144 3584 4550 3584 
Q 5097 3584 5394 3201 
Q 5691 2819 5691 2113 
L 5691 0 
L 5113 0 
L 5113 2094 
Q 5113 2597 4934 2840 
Q 4756 3084 4391 3084 
Q 3944 3084 3684 2787 
Q 3425 2491 3425 1978 
L 3425 0 
L 2847 0 
L 2847 2094 
Q 2847 2600 2669 2842 
Q 2491 3084 2119 3084 
Q 1678 3084 1418 2786 
Q 1159 2488 1159 1978 
L 1159 0 
L 581 0 
L 581 3500 
L 1159 3500 
L 1159 2956 
Q 1356 3278 1631 3431 
Q 1906 3584 2284 3584 
Q 2666 3584 2933 3390 
Q 3200 3197 3328 2828 
z
" transform="scale(0.015625)"/>
      <path id="DejaVuSans-72" d="M 2631 2963 
Q 2534 3019 2420 3045 
Q 2306 3072 2169 3072 
Q 1681 3072 1420 2755 
Q 1159 2438 1159 1844 
L 1159 0 
L 581 0 
L 581 3500 
L 1159 3500 
L 1159 2956 
Q 1341 3275 1631 3429 
Q 1922 3584 2338 3584 
Q 2397 3584 2469 3576 
Q 2541 3569 2628 3553 
L 2631 2963 
z
" transform="scale(0.015625)"/>
      <path id="DejaVuSans-79" d="M 2059 -325 
Q 1816 -950 1584 -1140 
Q 1353 -1331 966 -1331 
L 506 -1331 
L 506 -850 
L 844 -850 
Q 1081 -850 1212 -737 
Q 1344 -625 1503 -206 
L 1606 56 
L 191 3500 
L 800 3500 
L 1894 763 
L 2988 3500 
L 3597 3500 
L 2059 -325 
z
" transform="scale(0.015625)"/>
     </defs>
     <use xlink:href="#DejaVuSans-32"/>
     <use xlink:href="#DejaVuSans-2e" x="63.623047"/>
     <use xlink:href="#DejaVuSans-41" x="95.410156"/>
     <use xlink:href="#DejaVuSans-2e" x="162.068359"/>
     <use xlink:href="#DejaVuSans-31" x="193.855469"/>
     <use xlink:href="#DejaVuSans-32" x="257.478516"/>
     <use xlink:href="#DejaVuSans-32" x="321.101562"/>
     <use xlink:href="#DejaVuSans-20" x="384.724609"/>
     <use xlink:href="#DejaVuSans-53" x="416.511719"/>
     <use xlink:href="#DejaVuSans-75" x="479.988281"/>
     <use xlink:href="#DejaVuSans-6d" x="543.367188"/>
     <use xlink:href="#DejaVuSans-6d" x="640.779297"/>
     <use xlink:href="#DejaVuSans-61" x="738.191406"/>
     <use xlink:href="#DejaVuSans-72" x="799.470703"/>
     <use xlink:href="#DejaVuSans-79" x="840.583984"/>
    </g>
   </g>
  </g>
 </g>
 <defs>
  <clipPath id="p0a4a23feba">
   <rect x="144" y="36.72" width="892.8" height="235.62"/>
  </clipPath>
 </defs>
</svg>
