<?xml version="1.0" encoding="utf-8" standalone="no"?>
<!DOCTYPE svg PUBLIC "-//W3C//DTD SVG 1.1//EN"
  "http://www.w3.org/Graphics/SVG/1.1/DTD/svg11.dtd">
<svg xmlns:xlink="http://www.w3.org/1999/xlink" width="1152pt" height="345.6pt" viewBox="0 0 1152 345.6" xmlns="http://www.w3.org/2000/svg" version="1.1">
 <metadata>
  <rdf:RDF xmlns:dc="http://purl.org/dc/elements/1.1/" xmlns:cc="http://creativecommons.org/ns#" xmlns:rdf="http://www.w3.org/1999/02/22-rdf-syntax-ns#">
   <cc:Work>
    <dc:type rdf:resource="http://purl.org/dc/dcmitype/StillImage"/>
    <dc:date>2024-10-25T07:53:33.101507</dc:date>
    <dc:format>image/svg+xml</dc:format>
    <dc:creator>
     <cc:Agent>
      <dc:title>Matplotlib v3.9.2, https://matplotlib.org/</dc:title>
     </cc:Agent>
    </dc:creator>
   </cc:Work>
  </rdf:RDF>
 </metadata>
 <defs>
  <style type="text/css">*{stroke-linejoin: round; stroke-linecap: butt}</style>
 </defs>
 <g id="figure_1">
  <g id="patch_1">
   <path d="M 0 345.6 
L 1152 345.6 
L 1152 0 
L 0 0 
z
" style="fill: #ffffff"/>
  </g>
  <g id="axes_1">
   <g id="patch_2">
    <path d="M 144 307.584 
L 1036.8 307.584 
L 1036.8 41.472 
L 144 41.472 
z
" style="fill: #ffffff"/>
   </g>
   <g id="patch_3">
    <path d="M 144 292.14806 
L 179.084605 292.14806 
L 179.084605 291.606448 
L 144 291.606448 
z
" clip-path="url(#p9be3399f46)" style="fill: #0000ff"/>
   </g>
   <g id="patch_4">
    <path d="M 181.148405 295.488 
L 853.947295 295.488 
L 853.947295 288.266507 
L 181.148405 288.266507 
z
" clip-path="url(#p9be3399f46)" style="fill: #0000ff"/>
   </g>
   <g id="patch_5">
    <path d="M 240.998613 295.488 
L 839.500693 295.488 
L 839.500693 288.266507 
L 240.998613 288.266507 
z
" clip-path="url(#p9be3399f46)" style="fill: #0000ff"/>
   </g>
   <g id="patch_6">
    <path d="M 249.253814 295.488 
L 827.117892 295.488 
L 827.117892 288.266507 
L 249.253814 288.266507 
z
" clip-path="url(#p9be3399f46)" style="fill: #0000ff"/>
   </g>
   <g id="patch_7">
    <path d="M 856.011096 292.14806 
L 866.330097 292.14806 
L 866.330097 291.606448 
L 856.011096 291.606448 
z
" clip-path="url(#p9be3399f46)" style="fill: #0000ff"/>
   </g>
   <g id="patch_8">
    <path d="M 144 274.094328 
L 183.212205 274.094328 
L 183.212205 273.552716 
L 144 273.552716 
z
" clip-path="url(#p9be3399f46)" style="fill: #0000ff"/>
   </g>
   <g id="patch_9">
    <path d="M 185.276006 277.434269 
L 849.819695 277.434269 
L 849.819695 270.212776 
L 185.276006 270.212776 
z
" clip-path="url(#p9be3399f46)" style="fill: #0000ff"/>
   </g>
   <g id="patch_10">
    <path d="M 263.700416 277.434269 
L 839.500693 277.434269 
L 839.500693 270.212776 
L 263.700416 270.212776 
z
" clip-path="url(#p9be3399f46)" style="fill: #0000ff"/>
   </g>
   <g id="patch_11">
    <path d="M 263.700416 277.434269 
L 849.819695 277.434269 
L 849.819695 270.212776 
L 263.700416 270.212776 
z
" clip-path="url(#p9be3399f46)" style="fill: #0000ff"/>
   </g>
   <g id="patch_12">
    <path d="M 851.883495 274.094328 
L 868.393897 274.094328 
L 868.393897 273.552716 
L 851.883495 273.552716 
z
" clip-path="url(#p9be3399f46)" style="fill: #0000ff"/>
   </g>
   <g id="patch_13">
    <path d="M 144 256.040597 
L 168.765603 256.040597 
L 168.765603 255.498985 
L 144 255.498985 
z
" clip-path="url(#p9be3399f46)" style="fill: #0000ff"/>
   </g>
   <g id="patch_14">
    <path d="M 170.829404 259.380537 
L 876.649098 259.380537 
L 876.649098 252.159045 
L 170.829404 252.159045 
z
" clip-path="url(#p9be3399f46)" style="fill: #0000ff"/>
   </g>
   <g id="patch_15">
    <path d="M 278.147018 259.380537 
L 862.202497 259.380537 
L 862.202497 252.159045 
L 278.147018 252.159045 
z
" clip-path="url(#p9be3399f46)" style="fill: #0000ff"/>
   </g>
   <g id="patch_16">
    <path d="M 280.210818 259.380537 
L 847.755895 259.380537 
L 847.755895 252.159045 
L 280.210818 252.159045 
z
" clip-path="url(#p9be3399f46)" style="fill: #0000ff"/>
   </g>
   <g id="patch_17">
    <path d="M 878.712899 256.040597 
L 977.775312 256.040597 
L 977.775312 255.498985 
L 878.712899 255.498985 
z
" clip-path="url(#p9be3399f46)" style="fill: #0000ff"/>
   </g>
   <g id="patch_18">
    <path d="M 144 241.326806 
L 818.862691 241.326806 
L 818.862691 234.105313 
L 144 234.105313 
z
" clip-path="url(#p9be3399f46)" style="fill: #0000ff"/>
   </g>
   <g id="patch_19">
    <path d="M 203.850208 241.326806 
L 800.288488 241.326806 
L 800.288488 234.105313 
L 203.850208 234.105313 
z
" clip-path="url(#p9be3399f46)" style="fill: #0000ff"/>
   </g>
   <g id="patch_20">
    <path d="M 212.105409 241.326806 
L 792.033287 241.326806 
L 792.033287 234.105313 
L 212.105409 234.105313 
z
" clip-path="url(#p9be3399f46)" style="fill: #0000ff"/>
   </g>
   <g id="patch_21">
    <path d="M 820.926491 237.986866 
L 825.054092 237.986866 
L 825.054092 237.445254 
L 820.926491 237.445254 
z
" clip-path="url(#p9be3399f46)" style="fill: #0000ff"/>
   </g>
   <g id="patch_22">
    <path d="M 144 219.933134 
L 168.765603 219.933134 
L 168.765603 219.391522 
L 144 219.391522 
z
" clip-path="url(#p9be3399f46)" style="fill: #0000ff"/>
   </g>
   <g id="patch_23">
    <path d="M 170.829404 223.273075 
L 853.947295 223.273075 
L 853.947295 216.051582 
L 170.829404 216.051582 
z
" clip-path="url(#p9be3399f46)" style="fill: #0000ff"/>
   </g>
   <g id="patch_24">
    <path d="M 247.190014 223.273075 
L 839.500693 223.273075 
L 839.500693 216.051582 
L 247.190014 216.051582 
z
" clip-path="url(#p9be3399f46)" style="fill: #0000ff"/>
   </g>
   <g id="patch_25">
    <path d="M 255.445215 223.273075 
L 827.117892 223.273075 
L 827.117892 216.051582 
L 255.445215 216.051582 
z
" clip-path="url(#p9be3399f46)" style="fill: #0000ff"/>
   </g>
   <g id="patch_26">
    <path d="M 856.011096 219.933134 
L 864.266297 219.933134 
L 864.266297 219.391522 
L 856.011096 219.391522 
z
" clip-path="url(#p9be3399f46)" style="fill: #0000ff"/>
   </g>
   <g id="patch_27">
    <path d="M 144 201.879403 
L 216.23301 201.879403 
L 216.23301 201.337791 
L 144 201.337791 
z
" clip-path="url(#p9be3399f46)" style="fill: #0000ff"/>
   </g>
   <g id="patch_28">
    <path d="M 218.29681 205.219343 
L 880.776699 205.219343 
L 880.776699 197.997851 
L 218.29681 197.997851 
z
" clip-path="url(#p9be3399f46)" style="fill: #0000ff"/>
   </g>
   <g id="patch_29">
    <path d="M 278.147018 205.219343 
L 874.585298 205.219343 
L 874.585298 197.997851 
L 278.147018 197.997851 
z
" clip-path="url(#p9be3399f46)" style="fill: #0000ff"/>
   </g>
   <g id="patch_30">
    <path d="M 286.402219 205.219343 
L 862.202497 205.219343 
L 862.202497 197.997851 
L 286.402219 197.997851 
z
" clip-path="url(#p9be3399f46)" style="fill: #0000ff"/>
   </g>
   <g id="patch_31">
    <path d="M 882.840499 201.879403 
L 928.244105 201.879403 
L 928.244105 201.337791 
L 882.840499 201.337791 
z
" clip-path="url(#p9be3399f46)" style="fill: #0000ff"/>
   </g>
   <g id="patch_32">
    <path d="M 144 183.825672 
L 158.446602 183.825672 
L 158.446602 183.28406 
L 144 183.28406 
z
" clip-path="url(#p9be3399f46)" style="fill: #0000ff"/>
   </g>
   <g id="patch_33">
    <path d="M 160.510402 187.165612 
L 880.776699 187.165612 
L 880.776699 179.944119 
L 160.510402 179.944119 
z
" clip-path="url(#p9be3399f46)" style="fill: #0000ff"/>
   </g>
   <g id="patch_34">
    <path d="M 271.955617 187.165612 
L 872.521498 187.165612 
L 872.521498 179.944119 
L 271.955617 179.944119 
z
" clip-path="url(#p9be3399f46)" style="fill: #0000ff"/>
   </g>
   <g id="patch_35">
    <path d="M 280.210818 187.165612 
L 860.138696 187.165612 
L 860.138696 179.944119 
L 280.210818 179.944119 
z
" clip-path="url(#p9be3399f46)" style="fill: #0000ff"/>
   </g>
   <g id="patch_36">
    <path d="M 882.840499 183.825672 
L 909.669903 183.825672 
L 909.669903 183.28406 
L 882.840499 183.28406 
z
" clip-path="url(#p9be3399f46)" style="fill: #0000ff"/>
   </g>
   <g id="patch_37">
    <path d="M 144 165.77194 
L 214.169209 165.77194 
L 214.169209 165.230328 
L 144 165.230328 
z
" clip-path="url(#p9be3399f46)" style="fill: #0000ff"/>
   </g>
   <g id="patch_38">
    <path d="M 216.23301 169.111881 
L 899.350902 169.111881 
L 899.350902 161.890388 
L 216.23301 161.890388 
z
" clip-path="url(#p9be3399f46)" style="fill: #0000ff"/>
   </g>
   <g id="patch_39">
    <path d="M 247.190014 169.111881 
L 880.776699 169.111881 
L 880.776699 161.890388 
L 247.190014 161.890388 
z
" clip-path="url(#p9be3399f46)" style="fill: #0000ff"/>
   </g>
   <g id="patch_40">
    <path d="M 253.381415 169.111881 
L 864.266297 169.111881 
L 864.266297 161.890388 
L 253.381415 161.890388 
z
" clip-path="url(#p9be3399f46)" style="fill: #0000ff"/>
   </g>
   <g id="patch_41">
    <path d="M 901.414702 165.77194 
L 994.285714 165.77194 
L 994.285714 165.230328 
L 901.414702 165.230328 
z
" clip-path="url(#p9be3399f46)" style="fill: #0000ff"/>
   </g>
   <g id="patch_42">
    <path d="M 144 147.718209 
L 170.829404 147.718209 
L 170.829404 147.176597 
L 144 147.176597 
z
" clip-path="url(#p9be3399f46)" style="fill: #0000ff"/>
   </g>
   <g id="patch_43">
    <path d="M 172.893204 151.058149 
L 552.632455 151.058149 
L 552.632455 143.836657 
L 172.893204 143.836657 
z
" clip-path="url(#p9be3399f46)" style="fill: #0000ff"/>
   </g>
   <g id="patch_44">
    <path d="M 185.276006 151.058149 
L 552.632455 151.058149 
L 552.632455 143.836657 
L 185.276006 143.836657 
z
" clip-path="url(#p9be3399f46)" style="fill: #0000ff"/>
   </g>
   <g id="patch_45">
    <path d="M 554.696255 147.718209 
L 713.608877 147.718209 
L 713.608877 147.176597 
L 554.696255 147.176597 
z
" clip-path="url(#p9be3399f46)" style="fill: #0000ff"/>
   </g>
   <g id="patch_46">
    <path d="M 144 129.664478 
L 158.446602 129.664478 
L 158.446602 129.122866 
L 144 129.122866 
z
" clip-path="url(#p9be3399f46)" style="fill: #0000ff"/>
   </g>
   <g id="patch_47">
    <path d="M 160.510402 133.004418 
L 531.994452 133.004418 
L 531.994452 125.782925 
L 160.510402 125.782925 
z
" clip-path="url(#p9be3399f46)" style="fill: #0000ff"/>
   </g>
   <g id="patch_48">
    <path d="M 160.510402 133.004418 
L 531.994452 133.004418 
L 531.994452 125.782925 
L 160.510402 125.782925 
z
" clip-path="url(#p9be3399f46)" style="fill: #0000ff"/>
   </g>
   <g id="patch_49">
    <path d="M 534.058252 129.664478 
L 697.098474 129.664478 
L 697.098474 129.122866 
L 534.058252 129.122866 
z
" clip-path="url(#p9be3399f46)" style="fill: #0000ff"/>
   </g>
   <g id="patch_50">
    <path d="M 144 114.950687 
L 251.317614 114.950687 
L 251.317614 107.729194 
L 144 107.729194 
z
" clip-path="url(#p9be3399f46)" style="fill: #0000ff"/>
   </g>
   <g id="patch_51">
    <path d="M 148.127601 114.950687 
L 251.317614 114.950687 
L 251.317614 107.729194 
L 148.127601 107.729194 
z
" clip-path="url(#p9be3399f46)" style="fill: #0000ff"/>
   </g>
   <g id="patch_52">
    <path d="M 253.381415 111.610746 
L 595.972261 111.610746 
L 595.972261 111.069134 
L 253.381415 111.069134 
z
" clip-path="url(#p9be3399f46)" style="fill: #0000ff"/>
   </g>
   <g id="patch_53">
    <path d="M 144 96.896955 
L 255.445215 96.896955 
L 255.445215 89.675463 
L 144 89.675463 
z
" clip-path="url(#p9be3399f46)" style="fill: #0000ff"/>
   </g>
   <g id="patch_54">
    <path d="M 146.0638 96.896955 
L 253.381415 96.896955 
L 253.381415 89.675463 
L 146.0638 89.675463 
z
" clip-path="url(#p9be3399f46)" style="fill: #0000ff"/>
   </g>
   <g id="patch_55">
    <path d="M 257.509015 93.557015 
L 610.418863 93.557015 
L 610.418863 93.015403 
L 257.509015 93.015403 
z
" clip-path="url(#p9be3399f46)" style="fill: #0000ff"/>
   </g>
   <g id="patch_56">
    <path d="M 144 75.503284 
L 160.510402 75.503284 
L 160.510402 74.961672 
L 144 74.961672 
z
" clip-path="url(#p9be3399f46)" style="fill: #0000ff"/>
   </g>
   <g id="patch_57">
    <path d="M 162.574202 78.843224 
L 282.274619 78.843224 
L 282.274619 71.621731 
L 162.574202 71.621731 
z
" clip-path="url(#p9be3399f46)" style="fill: #0000ff"/>
   </g>
   <g id="patch_58">
    <path d="M 177.020804 78.843224 
L 521.675451 78.843224 
L 521.675451 71.621731 
L 177.020804 71.621731 
z
" clip-path="url(#p9be3399f46)" style="fill: #0000ff"/>
   </g>
   <g id="patch_59">
    <path d="M 523.739251 75.503284 
L 707.417476 75.503284 
L 707.417476 74.961672 
L 523.739251 74.961672 
z
" clip-path="url(#p9be3399f46)" style="fill: #0000ff"/>
   </g>
   <g id="patch_60">
    <path d="M 144 57.449552 
L 154.319001 57.449552 
L 154.319001 56.90794 
L 144 56.90794 
z
" clip-path="url(#p9be3399f46)" style="fill: #0000ff"/>
   </g>
   <g id="patch_61">
    <path d="M 156.382802 60.789493 
L 251.317614 60.789493 
L 251.317614 53.568 
L 156.382802 53.568 
z
" clip-path="url(#p9be3399f46)" style="fill: #0000ff"/>
   </g>
   <g id="patch_62">
    <path d="M 253.381415 57.449552 
L 604.227462 57.449552 
L 604.227462 56.90794 
L 253.381415 56.90794 
z
" clip-path="url(#p9be3399f46)" style="fill: #0000ff"/>
   </g>
   <g id="matplotlib.axis_1">
    <g id="xtick_1">
     <g id="line2d_1">
      <defs>
       <path id="mcb2561b4b1" d="M 0 0 
L 0 3.5 
" style="stroke: #000000; stroke-width: 0.8"/>
      </defs>
      <g>
       <use xlink:href="#mcb2561b4b1" x="245.126214" y="307.584" style="stroke: #000000; stroke-width: 0.8"/>
      </g>
     </g>
     <g id="text_1">
      <!-- 50 -->
      <g transform="translate(238.763714 322.182437) scale(0.1 -0.1)">
       <defs>
        <path id="DejaVuSans-35" d="M 691 4666 
L 3169 4666 
L 3169 4134 
L 1269 4134 
L 1269 2991 
Q 1406 3038 1543 3061 
Q 1681 3084 1819 3084 
Q 2600 3084 3056 2656 
Q 3513 2228 3513 1497 
Q 3513 744 3044 326 
Q 2575 -91 1722 -91 
Q 1428 -91 1123 -41 
Q 819 9 494 109 
L 494 744 
Q 775 591 1075 516 
Q 1375 441 1709 441 
Q 2250 441 2565 725 
Q 2881 1009 2881 1497 
Q 2881 1984 2565 2268 
Q 2250 2553 1709 2553 
Q 1456 2553 1204 2497 
Q 953 2441 691 2322 
L 691 4666 
z
" transform="scale(0.015625)"/>
        <path id="DejaVuSans-30" d="M 2034 4250 
Q 1547 4250 1301 3770 
Q 1056 3291 1056 2328 
Q 1056 1369 1301 889 
Q 1547 409 2034 409 
Q 2525 409 2770 889 
Q 3016 1369 3016 2328 
Q 3016 3291 2770 3770 
Q 2525 4250 2034 4250 
z
M 2034 4750 
Q 2819 4750 3233 4129 
Q 3647 3509 3647 2328 
Q 3647 1150 3233 529 
Q 2819 -91 2034 -91 
Q 1250 -91 836 529 
Q 422 1150 422 2328 
Q 422 3509 836 4129 
Q 1250 4750 2034 4750 
z
" transform="scale(0.015625)"/>
       </defs>
       <use xlink:href="#DejaVuSans-35"/>
       <use xlink:href="#DejaVuSans-30" x="63.623047"/>
      </g>
     </g>
    </g>
    <g id="xtick_2">
     <g id="line2d_2">
      <g>
       <use xlink:href="#mcb2561b4b1" x="348.316227" y="307.584" style="stroke: #000000; stroke-width: 0.8"/>
      </g>
     </g>
     <g id="text_2">
      <!-- 100 -->
      <g transform="translate(338.772477 322.182437) scale(0.1 -0.1)">
       <defs>
        <path id="DejaVuSans-31" d="M 794 531 
L 1825 531 
L 1825 4091 
L 703 3866 
L 703 4441 
L 1819 4666 
L 2450 4666 
L 2450 531 
L 3481 531 
L 3481 0 
L 794 0 
L 794 531 
z
" transform="scale(0.015625)"/>
       </defs>
       <use xlink:href="#DejaVuSans-31"/>
       <use xlink:href="#DejaVuSans-30" x="63.623047"/>
       <use xlink:href="#DejaVuSans-30" x="127.246094"/>
      </g>
     </g>
    </g>
    <g id="xtick_3">
     <g id="line2d_3">
      <g>
       <use xlink:href="#mcb2561b4b1" x="451.506241" y="307.584" style="stroke: #000000; stroke-width: 0.8"/>
      </g>
     </g>
     <g id="text_3">
      <!-- 150 -->
      <g transform="translate(441.962491 322.182437) scale(0.1 -0.1)">
       <use xlink:href="#DejaVuSans-31"/>
       <use xlink:href="#DejaVuSans-35" x="63.623047"/>
       <use xlink:href="#DejaVuSans-30" x="127.246094"/>
      </g>
     </g>
    </g>
    <g id="xtick_4">
     <g id="line2d_4">
      <g>
       <use xlink:href="#mcb2561b4b1" x="554.696255" y="307.584" style="stroke: #000000; stroke-width: 0.8"/>
      </g>
     </g>
     <g id="text_4">
      <!-- 200 -->
      <g transform="translate(545.152505 322.182437) scale(0.1 -0.1)">
       <defs>
        <path id="DejaVuSans-32" d="M 1228 531 
L 3431 531 
L 3431 0 
L 469 0 
L 469 531 
Q 828 903 1448 1529 
Q 2069 2156 2228 2338 
Q 2531 2678 2651 2914 
Q 2772 3150 2772 3378 
Q 2772 3750 2511 3984 
Q 2250 4219 1831 4219 
Q 1534 4219 1204 4116 
Q 875 4013 500 3803 
L 500 4441 
Q 881 4594 1212 4672 
Q 1544 4750 1819 4750 
Q 2544 4750 2975 4387 
Q 3406 4025 3406 3419 
Q 3406 3131 3298 2873 
Q 3191 2616 2906 2266 
Q 2828 2175 2409 1742 
Q 1991 1309 1228 531 
z
" transform="scale(0.015625)"/>
       </defs>
       <use xlink:href="#DejaVuSans-32"/>
       <use xlink:href="#DejaVuSans-30" x="63.623047"/>
       <use xlink:href="#DejaVuSans-30" x="127.246094"/>
      </g>
     </g>
    </g>
    <g id="xtick_5">
     <g id="line2d_5">
      <g>
       <use xlink:href="#mcb2561b4b1" x="657.886269" y="307.584" style="stroke: #000000; stroke-width: 0.8"/>
      </g>
     </g>
     <g id="text_5">
      <!-- 250 -->
      <g transform="translate(648.342519 322.182437) scale(0.1 -0.1)">
       <use xlink:href="#DejaVuSans-32"/>
       <use xlink:href="#DejaVuSans-35" x="63.623047"/>
       <use xlink:href="#DejaVuSans-30" x="127.246094"/>
      </g>
     </g>
    </g>
    <g id="xtick_6">
     <g id="line2d_6">
      <g>
       <use xlink:href="#mcb2561b4b1" x="761.076283" y="307.584" style="stroke: #000000; stroke-width: 0.8"/>
      </g>
     </g>
     <g id="text_6">
      <!-- 300 -->
      <g transform="translate(751.532533 322.182437) scale(0.1 -0.1)">
       <defs>
        <path id="DejaVuSans-33" d="M 2597 2516 
Q 3050 2419 3304 2112 
Q 3559 1806 3559 1356 
Q 3559 666 3084 287 
Q 2609 -91 1734 -91 
Q 1441 -91 1130 -33 
Q 819 25 488 141 
L 488 750 
Q 750 597 1062 519 
Q 1375 441 1716 441 
Q 2309 441 2620 675 
Q 2931 909 2931 1356 
Q 2931 1769 2642 2001 
Q 2353 2234 1838 2234 
L 1294 2234 
L 1294 2753 
L 1863 2753 
Q 2328 2753 2575 2939 
Q 2822 3125 2822 3475 
Q 2822 3834 2567 4026 
Q 2313 4219 1838 4219 
Q 1578 4219 1281 4162 
Q 984 4106 628 3988 
L 628 4550 
Q 988 4650 1302 4700 
Q 1616 4750 1894 4750 
Q 2613 4750 3031 4423 
Q 3450 4097 3450 3541 
Q 3450 3153 3228 2886 
Q 3006 2619 2597 2516 
z
" transform="scale(0.015625)"/>
       </defs>
       <use xlink:href="#DejaVuSans-33"/>
       <use xlink:href="#DejaVuSans-30" x="63.623047"/>
       <use xlink:href="#DejaVuSans-30" x="127.246094"/>
      </g>
     </g>
    </g>
    <g id="xtick_7">
     <g id="line2d_7">
      <g>
       <use xlink:href="#mcb2561b4b1" x="864.266297" y="307.584" style="stroke: #000000; stroke-width: 0.8"/>
      </g>
     </g>
     <g id="text_7">
      <!-- 350 -->
      <g transform="translate(854.722547 322.182437) scale(0.1 -0.1)">
       <use xlink:href="#DejaVuSans-33"/>
       <use xlink:href="#DejaVuSans-35" x="63.623047"/>
       <use xlink:href="#DejaVuSans-30" x="127.246094"/>
      </g>
     </g>
    </g>
    <g id="xtick_8">
     <g id="line2d_8">
      <g>
       <use xlink:href="#mcb2561b4b1" x="967.456311" y="307.584" style="stroke: #000000; stroke-width: 0.8"/>
      </g>
     </g>
     <g id="text_8">
      <!-- 400 -->
      <g transform="translate(957.912561 322.182437) scale(0.1 -0.1)">
       <defs>
        <path id="DejaVuSans-34" d="M 2419 4116 
L 825 1625 
L 2419 1625 
L 2419 4116 
z
M 2253 4666 
L 3047 4666 
L 3047 1625 
L 3713 1625 
L 3713 1100 
L 3047 1100 
L 3047 0 
L 2419 0 
L 2419 1100 
L 313 1100 
L 313 1709 
L 2253 4666 
z
" transform="scale(0.015625)"/>
       </defs>
       <use xlink:href="#DejaVuSans-34"/>
       <use xlink:href="#DejaVuSans-30" x="63.623047"/>
       <use xlink:href="#DejaVuSans-30" x="127.246094"/>
      </g>
     </g>
    </g>
    <g id="text_9">
     <!-- Residual -->
     <g transform="translate(569.284375 335.860562) scale(0.1 -0.1)">
      <defs>
       <path id="DejaVuSans-52" d="M 2841 2188 
Q 3044 2119 3236 1894 
Q 3428 1669 3622 1275 
L 4263 0 
L 3584 0 
L 2988 1197 
Q 2756 1666 2539 1819 
Q 2322 1972 1947 1972 
L 1259 1972 
L 1259 0 
L 628 0 
L 628 4666 
L 2053 4666 
Q 2853 4666 3247 4331 
Q 3641 3997 3641 3322 
Q 3641 2881 3436 2590 
Q 3231 2300 2841 2188 
z
M 1259 4147 
L 1259 2491 
L 2053 2491 
Q 2509 2491 2742 2702 
Q 2975 2913 2975 3322 
Q 2975 3731 2742 3939 
Q 2509 4147 2053 4147 
L 1259 4147 
z
" transform="scale(0.015625)"/>
       <path id="DejaVuSans-65" d="M 3597 1894 
L 3597 1613 
L 953 1613 
Q 991 1019 1311 708 
Q 1631 397 2203 397 
Q 2534 397 2845 478 
Q 3156 559 3463 722 
L 3463 178 
Q 3153 47 2828 -22 
Q 2503 -91 2169 -91 
Q 1331 -91 842 396 
Q 353 884 353 1716 
Q 353 2575 817 3079 
Q 1281 3584 2069 3584 
Q 2775 3584 3186 3129 
Q 3597 2675 3597 1894 
z
M 3022 2063 
Q 3016 2534 2758 2815 
Q 2500 3097 2075 3097 
Q 1594 3097 1305 2825 
Q 1016 2553 972 2059 
L 3022 2063 
z
" transform="scale(0.015625)"/>
       <path id="DejaVuSans-73" d="M 2834 3397 
L 2834 2853 
Q 2591 2978 2328 3040 
Q 2066 3103 1784 3103 
Q 1356 3103 1142 2972 
Q 928 2841 928 2578 
Q 928 2378 1081 2264 
Q 1234 2150 1697 2047 
L 1894 2003 
Q 2506 1872 2764 1633 
Q 3022 1394 3022 966 
Q 3022 478 2636 193 
Q 2250 -91 1575 -91 
Q 1294 -91 989 -36 
Q 684 19 347 128 
L 347 722 
Q 666 556 975 473 
Q 1284 391 1588 391 
Q 1994 391 2212 530 
Q 2431 669 2431 922 
Q 2431 1156 2273 1281 
Q 2116 1406 1581 1522 
L 1381 1569 
Q 847 1681 609 1914 
Q 372 2147 372 2553 
Q 372 3047 722 3315 
Q 1072 3584 1716 3584 
Q 2034 3584 2315 3537 
Q 2597 3491 2834 3397 
z
" transform="scale(0.015625)"/>
       <path id="DejaVuSans-69" d="M 603 3500 
L 1178 3500 
L 1178 0 
L 603 0 
L 603 3500 
z
M 603 4863 
L 1178 4863 
L 1178 4134 
L 603 4134 
L 603 4863 
z
" transform="scale(0.015625)"/>
       <path id="DejaVuSans-64" d="M 2906 2969 
L 2906 4863 
L 3481 4863 
L 3481 0 
L 2906 0 
L 2906 525 
Q 2725 213 2448 61 
Q 2172 -91 1784 -91 
Q 1150 -91 751 415 
Q 353 922 353 1747 
Q 353 2572 751 3078 
Q 1150 3584 1784 3584 
Q 2172 3584 2448 3432 
Q 2725 3281 2906 2969 
z
M 947 1747 
Q 947 1113 1208 752 
Q 1469 391 1925 391 
Q 2381 391 2643 752 
Q 2906 1113 2906 1747 
Q 2906 2381 2643 2742 
Q 2381 3103 1925 3103 
Q 1469 3103 1208 2742 
Q 947 2381 947 1747 
z
" transform="scale(0.015625)"/>
       <path id="DejaVuSans-75" d="M 544 1381 
L 544 3500 
L 1119 3500 
L 1119 1403 
Q 1119 906 1312 657 
Q 1506 409 1894 409 
Q 2359 409 2629 706 
Q 2900 1003 2900 1516 
L 2900 3500 
L 3475 3500 
L 3475 0 
L 2900 0 
L 2900 538 
Q 2691 219 2414 64 
Q 2138 -91 1772 -91 
Q 1169 -91 856 284 
Q 544 659 544 1381 
z
M 1991 3584 
L 1991 3584 
z
" transform="scale(0.015625)"/>
       <path id="DejaVuSans-61" d="M 2194 1759 
Q 1497 1759 1228 1600 
Q 959 1441 959 1056 
Q 959 750 1161 570 
Q 1363 391 1709 391 
Q 2188 391 2477 730 
Q 2766 1069 2766 1631 
L 2766 1759 
L 2194 1759 
z
M 3341 1997 
L 3341 0 
L 2766 0 
L 2766 531 
Q 2569 213 2275 61 
Q 1981 -91 1556 -91 
Q 1019 -91 701 211 
Q 384 513 384 1019 
Q 384 1609 779 1909 
Q 1175 2209 1959 2209 
L 2766 2209 
L 2766 2266 
Q 2766 2663 2505 2880 
Q 2244 3097 1772 3097 
Q 1472 3097 1187 3025 
Q 903 2953 641 2809 
L 641 3341 
Q 956 3463 1253 3523 
Q 1550 3584 1831 3584 
Q 2591 3584 2966 3190 
Q 3341 2797 3341 1997 
z
" transform="scale(0.015625)"/>
       <path id="DejaVuSans-6c" d="M 603 4863 
L 1178 4863 
L 1178 0 
L 603 0 
L 603 4863 
z
" transform="scale(0.015625)"/>
      </defs>
      <use xlink:href="#DejaVuSans-52"/>
      <use xlink:href="#DejaVuSans-65" x="64.982422"/>
      <use xlink:href="#DejaVuSans-73" x="126.505859"/>
      <use xlink:href="#DejaVuSans-69" x="178.605469"/>
      <use xlink:href="#DejaVuSans-64" x="206.388672"/>
      <use xlink:href="#DejaVuSans-75" x="269.865234"/>
      <use xlink:href="#DejaVuSans-61" x="333.244141"/>
      <use xlink:href="#DejaVuSans-6c" x="394.523438"/>
     </g>
    </g>
   </g>
   <g id="matplotlib.axis_2">
    <g id="ytick_1">
     <g id="line2d_9">
      <defs>
       <path id="m36922355ac" d="M 0 0 
L -3.5 0 
" style="stroke: #000000; stroke-width: 0.8"/>
      </defs>
      <g>
       <use xlink:href="#m36922355ac" x="144" y="291.877254" style="stroke: #000000; stroke-width: 0.8"/>
      </g>
     </g>
     <g id="text_10">
      <!-- 2.A.52.1.1 -->
      <g transform="translate(85.809375 295.676472) scale(0.1 -0.1)">
       <defs>
        <path id="DejaVuSans-2e" d="M 684 794 
L 1344 794 
L 1344 0 
L 684 0 
L 684 794 
z
" transform="scale(0.015625)"/>
        <path id="DejaVuSans-41" d="M 2188 4044 
L 1331 1722 
L 3047 1722 
L 2188 4044 
z
M 1831 4666 
L 2547 4666 
L 4325 0 
L 3669 0 
L 3244 1197 
L 1141 1197 
L 716 0 
L 50 0 
L 1831 4666 
z
" transform="scale(0.015625)"/>
       </defs>
       <use xlink:href="#DejaVuSans-32"/>
       <use xlink:href="#DejaVuSans-2e" x="63.623047"/>
       <use xlink:href="#DejaVuSans-41" x="95.410156"/>
       <use xlink:href="#DejaVuSans-2e" x="162.068359"/>
       <use xlink:href="#DejaVuSans-35" x="193.855469"/>
       <use xlink:href="#DejaVuSans-32" x="257.478516"/>
       <use xlink:href="#DejaVuSans-2e" x="321.101562"/>
       <use xlink:href="#DejaVuSans-31" x="352.888672"/>
       <use xlink:href="#DejaVuSans-2e" x="416.511719"/>
       <use xlink:href="#DejaVuSans-31" x="448.298828"/>
      </g>
     </g>
    </g>
    <g id="ytick_2">
     <g id="line2d_10">
      <g>
       <use xlink:href="#m36922355ac" x="144" y="273.823522" style="stroke: #000000; stroke-width: 0.8"/>
      </g>
     </g>
     <g id="text_11">
      <!-- 2.A.52.1.2 -->
      <g transform="translate(85.809375 277.622741) scale(0.1 -0.1)">
       <use xlink:href="#DejaVuSans-32"/>
       <use xlink:href="#DejaVuSans-2e" x="63.623047"/>
       <use xlink:href="#DejaVuSans-41" x="95.410156"/>
       <use xlink:href="#DejaVuSans-2e" x="162.068359"/>
       <use xlink:href="#DejaVuSans-35" x="193.855469"/>
       <use xlink:href="#DejaVuSans-32" x="257.478516"/>
       <use xlink:href="#DejaVuSans-2e" x="321.101562"/>
       <use xlink:href="#DejaVuSans-31" x="352.888672"/>
       <use xlink:href="#DejaVuSans-2e" x="416.511719"/>
       <use xlink:href="#DejaVuSans-32" x="448.298828"/>
      </g>
     </g>
    </g>
    <g id="ytick_3">
     <g id="line2d_11">
      <g>
       <use xlink:href="#m36922355ac" x="144" y="255.769791" style="stroke: #000000; stroke-width: 0.8"/>
      </g>
     </g>
     <g id="text_12">
      <!-- 2.A.52.1.3 -->
      <g transform="translate(85.809375 259.56901) scale(0.1 -0.1)">
       <use xlink:href="#DejaVuSans-32"/>
       <use xlink:href="#DejaVuSans-2e" x="63.623047"/>
       <use xlink:href="#DejaVuSans-41" x="95.410156"/>
       <use xlink:href="#DejaVuSans-2e" x="162.068359"/>
       <use xlink:href="#DejaVuSans-35" x="193.855469"/>
       <use xlink:href="#DejaVuSans-32" x="257.478516"/>
       <use xlink:href="#DejaVuSans-2e" x="321.101562"/>
       <use xlink:href="#DejaVuSans-31" x="352.888672"/>
       <use xlink:href="#DejaVuSans-2e" x="416.511719"/>
       <use xlink:href="#DejaVuSans-33" x="448.298828"/>
      </g>
     </g>
    </g>
    <g id="ytick_4">
     <g id="line2d_12">
      <g>
       <use xlink:href="#m36922355ac" x="144" y="237.71606" style="stroke: #000000; stroke-width: 0.8"/>
      </g>
     </g>
     <g id="text_13">
      <!-- 2.A.52.1.4 -->
      <g transform="translate(85.809375 241.515278) scale(0.1 -0.1)">
       <use xlink:href="#DejaVuSans-32"/>
       <use xlink:href="#DejaVuSans-2e" x="63.623047"/>
       <use xlink:href="#DejaVuSans-41" x="95.410156"/>
       <use xlink:href="#DejaVuSans-2e" x="162.068359"/>
       <use xlink:href="#DejaVuSans-35" x="193.855469"/>
       <use xlink:href="#DejaVuSans-32" x="257.478516"/>
       <use xlink:href="#DejaVuSans-2e" x="321.101562"/>
       <use xlink:href="#DejaVuSans-31" x="352.888672"/>
       <use xlink:href="#DejaVuSans-2e" x="416.511719"/>
       <use xlink:href="#DejaVuSans-34" x="448.298828"/>
      </g>
     </g>
    </g>
    <g id="ytick_5">
     <g id="line2d_13">
      <g>
       <use xlink:href="#m36922355ac" x="144" y="219.662328" style="stroke: #000000; stroke-width: 0.8"/>
      </g>
     </g>
     <g id="text_14">
      <!-- 2.A.52.1.5 -->
      <g transform="translate(85.809375 223.461547) scale(0.1 -0.1)">
       <use xlink:href="#DejaVuSans-32"/>
       <use xlink:href="#DejaVuSans-2e" x="63.623047"/>
       <use xlink:href="#DejaVuSans-41" x="95.410156"/>
       <use xlink:href="#DejaVuSans-2e" x="162.068359"/>
       <use xlink:href="#DejaVuSans-35" x="193.855469"/>
       <use xlink:href="#DejaVuSans-32" x="257.478516"/>
       <use xlink:href="#DejaVuSans-2e" x="321.101562"/>
       <use xlink:href="#DejaVuSans-31" x="352.888672"/>
       <use xlink:href="#DejaVuSans-2e" x="416.511719"/>
       <use xlink:href="#DejaVuSans-35" x="448.298828"/>
      </g>
     </g>
    </g>
    <g id="ytick_6">
     <g id="line2d_14">
      <g>
       <use xlink:href="#m36922355ac" x="144" y="201.608597" style="stroke: #000000; stroke-width: 0.8"/>
      </g>
     </g>
     <g id="text_15">
      <!-- 2.A.52.1.6 -->
      <g transform="translate(85.809375 205.407816) scale(0.1 -0.1)">
       <defs>
        <path id="DejaVuSans-36" d="M 2113 2584 
Q 1688 2584 1439 2293 
Q 1191 2003 1191 1497 
Q 1191 994 1439 701 
Q 1688 409 2113 409 
Q 2538 409 2786 701 
Q 3034 994 3034 1497 
Q 3034 2003 2786 2293 
Q 2538 2584 2113 2584 
z
M 3366 4563 
L 3366 3988 
Q 3128 4100 2886 4159 
Q 2644 4219 2406 4219 
Q 1781 4219 1451 3797 
Q 1122 3375 1075 2522 
Q 1259 2794 1537 2939 
Q 1816 3084 2150 3084 
Q 2853 3084 3261 2657 
Q 3669 2231 3669 1497 
Q 3669 778 3244 343 
Q 2819 -91 2113 -91 
Q 1303 -91 875 529 
Q 447 1150 447 2328 
Q 447 3434 972 4092 
Q 1497 4750 2381 4750 
Q 2619 4750 2861 4703 
Q 3103 4656 3366 4563 
z
" transform="scale(0.015625)"/>
       </defs>
       <use xlink:href="#DejaVuSans-32"/>
       <use xlink:href="#DejaVuSans-2e" x="63.623047"/>
       <use xlink:href="#DejaVuSans-41" x="95.410156"/>
       <use xlink:href="#DejaVuSans-2e" x="162.068359"/>
       <use xlink:href="#DejaVuSans-35" x="193.855469"/>
       <use xlink:href="#DejaVuSans-32" x="257.478516"/>
       <use xlink:href="#DejaVuSans-2e" x="321.101562"/>
       <use xlink:href="#DejaVuSans-31" x="352.888672"/>
       <use xlink:href="#DejaVuSans-2e" x="416.511719"/>
       <use xlink:href="#DejaVuSans-36" x="448.298828"/>
      </g>
     </g>
    </g>
    <g id="ytick_7">
     <g id="line2d_15">
      <g>
       <use xlink:href="#m36922355ac" x="144" y="183.554866" style="stroke: #000000; stroke-width: 0.8"/>
      </g>
     </g>
     <g id="text_16">
      <!-- 2.A.52.1.7 -->
      <g transform="translate(85.809375 187.354084) scale(0.1 -0.1)">
       <defs>
        <path id="DejaVuSans-37" d="M 525 4666 
L 3525 4666 
L 3525 4397 
L 1831 0 
L 1172 0 
L 2766 4134 
L 525 4134 
L 525 4666 
z
" transform="scale(0.015625)"/>
       </defs>
       <use xlink:href="#DejaVuSans-32"/>
       <use xlink:href="#DejaVuSans-2e" x="63.623047"/>
       <use xlink:href="#DejaVuSans-41" x="95.410156"/>
       <use xlink:href="#DejaVuSans-2e" x="162.068359"/>
       <use xlink:href="#DejaVuSans-35" x="193.855469"/>
       <use xlink:href="#DejaVuSans-32" x="257.478516"/>
       <use xlink:href="#DejaVuSans-2e" x="321.101562"/>
       <use xlink:href="#DejaVuSans-31" x="352.888672"/>
       <use xlink:href="#DejaVuSans-2e" x="416.511719"/>
       <use xlink:href="#DejaVuSans-37" x="448.298828"/>
      </g>
     </g>
    </g>
    <g id="ytick_8">
     <g id="line2d_16">
      <g>
       <use xlink:href="#m36922355ac" x="144" y="165.501134" style="stroke: #000000; stroke-width: 0.8"/>
      </g>
     </g>
     <g id="text_17">
      <!-- 2.A.52.1.8 -->
      <g transform="translate(85.809375 169.300353) scale(0.1 -0.1)">
       <defs>
        <path id="DejaVuSans-38" d="M 2034 2216 
Q 1584 2216 1326 1975 
Q 1069 1734 1069 1313 
Q 1069 891 1326 650 
Q 1584 409 2034 409 
Q 2484 409 2743 651 
Q 3003 894 3003 1313 
Q 3003 1734 2745 1975 
Q 2488 2216 2034 2216 
z
M 1403 2484 
Q 997 2584 770 2862 
Q 544 3141 544 3541 
Q 544 4100 942 4425 
Q 1341 4750 2034 4750 
Q 2731 4750 3128 4425 
Q 3525 4100 3525 3541 
Q 3525 3141 3298 2862 
Q 3072 2584 2669 2484 
Q 3125 2378 3379 2068 
Q 3634 1759 3634 1313 
Q 3634 634 3220 271 
Q 2806 -91 2034 -91 
Q 1263 -91 848 271 
Q 434 634 434 1313 
Q 434 1759 690 2068 
Q 947 2378 1403 2484 
z
M 1172 3481 
Q 1172 3119 1398 2916 
Q 1625 2713 2034 2713 
Q 2441 2713 2670 2916 
Q 2900 3119 2900 3481 
Q 2900 3844 2670 4047 
Q 2441 4250 2034 4250 
Q 1625 4250 1398 4047 
Q 1172 3844 1172 3481 
z
" transform="scale(0.015625)"/>
       </defs>
       <use xlink:href="#DejaVuSans-32"/>
       <use xlink:href="#DejaVuSans-2e" x="63.623047"/>
       <use xlink:href="#DejaVuSans-41" x="95.410156"/>
       <use xlink:href="#DejaVuSans-2e" x="162.068359"/>
       <use xlink:href="#DejaVuSans-35" x="193.855469"/>
       <use xlink:href="#DejaVuSans-32" x="257.478516"/>
       <use xlink:href="#DejaVuSans-2e" x="321.101562"/>
       <use xlink:href="#DejaVuSans-31" x="352.888672"/>
       <use xlink:href="#DejaVuSans-2e" x="416.511719"/>
       <use xlink:href="#DejaVuSans-38" x="448.298828"/>
      </g>
     </g>
    </g>
    <g id="ytick_9">
     <g id="line2d_17">
      <g>
       <use xlink:href="#m36922355ac" x="144" y="147.447403" style="stroke: #000000; stroke-width: 0.8"/>
      </g>
     </g>
     <g id="text_18">
      <!-- 2.A.52.2.1 -->
      <g transform="translate(85.809375 151.246622) scale(0.1 -0.1)">
       <use xlink:href="#DejaVuSans-32"/>
       <use xlink:href="#DejaVuSans-2e" x="63.623047"/>
       <use xlink:href="#DejaVuSans-41" x="95.410156"/>
       <use xlink:href="#DejaVuSans-2e" x="162.068359"/>
       <use xlink:href="#DejaVuSans-35" x="193.855469"/>
       <use xlink:href="#DejaVuSans-32" x="257.478516"/>
       <use xlink:href="#DejaVuSans-2e" x="321.101562"/>
       <use xlink:href="#DejaVuSans-32" x="352.888672"/>
       <use xlink:href="#DejaVuSans-2e" x="416.511719"/>
       <use xlink:href="#DejaVuSans-31" x="448.298828"/>
      </g>
     </g>
    </g>
    <g id="ytick_10">
     <g id="line2d_18">
      <g>
       <use xlink:href="#m36922355ac" x="144" y="129.393672" style="stroke: #000000; stroke-width: 0.8"/>
      </g>
     </g>
     <g id="text_19">
      <!-- 2.A.52.2.2 -->
      <g transform="translate(85.809375 133.19289) scale(0.1 -0.1)">
       <use xlink:href="#DejaVuSans-32"/>
       <use xlink:href="#DejaVuSans-2e" x="63.623047"/>
       <use xlink:href="#DejaVuSans-41" x="95.410156"/>
       <use xlink:href="#DejaVuSans-2e" x="162.068359"/>
       <use xlink:href="#DejaVuSans-35" x="193.855469"/>
       <use xlink:href="#DejaVuSans-32" x="257.478516"/>
       <use xlink:href="#DejaVuSans-2e" x="321.101562"/>
       <use xlink:href="#DejaVuSans-32" x="352.888672"/>
       <use xlink:href="#DejaVuSans-2e" x="416.511719"/>
       <use xlink:href="#DejaVuSans-32" x="448.298828"/>
      </g>
     </g>
    </g>
    <g id="ytick_11">
     <g id="line2d_19">
      <g>
       <use xlink:href="#m36922355ac" x="144" y="111.33994" style="stroke: #000000; stroke-width: 0.8"/>
      </g>
     </g>
     <g id="text_20">
      <!-- 2.A.52.2.3 -->
      <g transform="translate(85.809375 115.139159) scale(0.1 -0.1)">
       <use xlink:href="#DejaVuSans-32"/>
       <use xlink:href="#DejaVuSans-2e" x="63.623047"/>
       <use xlink:href="#DejaVuSans-41" x="95.410156"/>
       <use xlink:href="#DejaVuSans-2e" x="162.068359"/>
       <use xlink:href="#DejaVuSans-35" x="193.855469"/>
       <use xlink:href="#DejaVuSans-32" x="257.478516"/>
       <use xlink:href="#DejaVuSans-2e" x="321.101562"/>
       <use xlink:href="#DejaVuSans-32" x="352.888672"/>
       <use xlink:href="#DejaVuSans-2e" x="416.511719"/>
       <use xlink:href="#DejaVuSans-33" x="448.298828"/>
      </g>
     </g>
    </g>
    <g id="ytick_12">
     <g id="line2d_20">
      <g>
       <use xlink:href="#m36922355ac" x="144" y="93.286209" style="stroke: #000000; stroke-width: 0.8"/>
      </g>
     </g>
     <g id="text_21">
      <!-- 2.A.52.2.4 -->
      <g transform="translate(85.809375 97.085428) scale(0.1 -0.1)">
       <use xlink:href="#DejaVuSans-32"/>
       <use xlink:href="#DejaVuSans-2e" x="63.623047"/>
       <use xlink:href="#DejaVuSans-41" x="95.410156"/>
       <use xlink:href="#DejaVuSans-2e" x="162.068359"/>
       <use xlink:href="#DejaVuSans-35" x="193.855469"/>
       <use xlink:href="#DejaVuSans-32" x="257.478516"/>
       <use xlink:href="#DejaVuSans-2e" x="321.101562"/>
       <use xlink:href="#DejaVuSans-32" x="352.888672"/>
       <use xlink:href="#DejaVuSans-2e" x="416.511719"/>
       <use xlink:href="#DejaVuSans-34" x="448.298828"/>
      </g>
     </g>
    </g>
    <g id="ytick_13">
     <g id="line2d_21">
      <g>
       <use xlink:href="#m36922355ac" x="144" y="75.232478" style="stroke: #000000; stroke-width: 0.8"/>
      </g>
     </g>
     <g id="text_22">
      <!-- 2.A.52.2.5 -->
      <g transform="translate(85.809375 79.031696) scale(0.1 -0.1)">
       <use xlink:href="#DejaVuSans-32"/>
       <use xlink:href="#DejaVuSans-2e" x="63.623047"/>
       <use xlink:href="#DejaVuSans-41" x="95.410156"/>
       <use xlink:href="#DejaVuSans-2e" x="162.068359"/>
       <use xlink:href="#DejaVuSans-35" x="193.855469"/>
       <use xlink:href="#DejaVuSans-32" x="257.478516"/>
       <use xlink:href="#DejaVuSans-2e" x="321.101562"/>
       <use xlink:href="#DejaVuSans-32" x="352.888672"/>
       <use xlink:href="#DejaVuSans-2e" x="416.511719"/>
       <use xlink:href="#DejaVuSans-35" x="448.298828"/>
      </g>
     </g>
    </g>
    <g id="ytick_14">
     <g id="line2d_22">
      <g>
       <use xlink:href="#m36922355ac" x="144" y="57.178746" style="stroke: #000000; stroke-width: 0.8"/>
      </g>
     </g>
     <g id="text_23">
      <!-- 2.A.52.2.6 -->
      <g transform="translate(85.809375 60.977965) scale(0.1 -0.1)">
       <use xlink:href="#DejaVuSans-32"/>
       <use xlink:href="#DejaVuSans-2e" x="63.623047"/>
       <use xlink:href="#DejaVuSans-41" x="95.410156"/>
       <use xlink:href="#DejaVuSans-2e" x="162.068359"/>
       <use xlink:href="#DejaVuSans-35" x="193.855469"/>
       <use xlink:href="#DejaVuSans-32" x="257.478516"/>
       <use xlink:href="#DejaVuSans-2e" x="321.101562"/>
       <use xlink:href="#DejaVuSans-32" x="352.888672"/>
       <use xlink:href="#DejaVuSans-2e" x="416.511719"/>
       <use xlink:href="#DejaVuSans-36" x="448.298828"/>
      </g>
     </g>
    </g>
   </g>
   <g id="patch_63">
    <path d="M 144 307.584 
L 144 41.472 
" style="fill: none; stroke: #000000; stroke-width: 0.8; stroke-linejoin: miter; stroke-linecap: square"/>
   </g>
   <g id="patch_64">
    <path d="M 1036.8 307.584 
L 1036.8 41.472 
" style="fill: none; stroke: #000000; stroke-width: 0.8; stroke-linejoin: miter; stroke-linecap: square"/>
   </g>
   <g id="patch_65">
    <path d="M 144 307.584 
L 1036.8 307.584 
" style="fill: none; stroke: #000000; stroke-width: 0.8; stroke-linejoin: miter; stroke-linecap: square"/>
   </g>
   <g id="patch_66">
    <path d="M 144 41.472 
L 1036.8 41.472 
" style="fill: none; stroke: #000000; stroke-width: 0.8; stroke-linejoin: miter; stroke-linecap: square"/>
   </g>
   <g id="text_24">
    <!-- 2.A.52 Summary -->
    <g transform="translate(540.2325 35.472) scale(0.12 -0.12)">
     <defs>
      <path id="DejaVuSans-20" transform="scale(0.015625)"/>
      <path id="DejaVuSans-53" d="M 3425 4513 
L 3425 3897 
Q 3066 4069 2747 4153 
Q 2428 4238 2131 4238 
Q 1616 4238 1336 4038 
Q 1056 3838 1056 3469 
Q 1056 3159 1242 3001 
Q 1428 2844 1947 2747 
L 2328 2669 
Q 3034 2534 3370 2195 
Q 3706 1856 3706 1288 
Q 3706 609 3251 259 
Q 2797 -91 1919 -91 
Q 1588 -91 1214 -16 
Q 841 59 441 206 
L 441 856 
Q 825 641 1194 531 
Q 1563 422 1919 422 
Q 2459 422 2753 634 
Q 3047 847 3047 1241 
Q 3047 1584 2836 1778 
Q 2625 1972 2144 2069 
L 1759 2144 
Q 1053 2284 737 2584 
Q 422 2884 422 3419 
Q 422 4038 858 4394 
Q 1294 4750 2059 4750 
Q 2388 4750 2728 4690 
Q 3069 4631 3425 4513 
z
" transform="scale(0.015625)"/>
      <path id="DejaVuSans-6d" d="M 3328 2828 
Q 3544 3216 3844 3400 
Q 4144 3584 4550 3584 
Q 5097 3584 5394 3201 
Q 5691 2819 5691 2113 
L 5691 0 
L 5113 0 
L 5113 2094 
Q 5113 2597 4934 2840 
Q 4756 3084 4391 3084 
Q 3944 3084 3684 2787 
Q 3425 2491 3425 1978 
L 3425 0 
L 2847 0 
L 2847 2094 
Q 2847 2600 2669 2842 
Q 2491 3084 2119 3084 
Q 1678 3084 1418 2786 
Q 1159 2488 1159 1978 
L 1159 0 
L 581 0 
L 581 3500 
L 1159 3500 
L 1159 2956 
Q 1356 3278 1631 3431 
Q 1906 3584 2284 3584 
Q 2666 3584 2933 3390 
Q 3200 3197 3328 2828 
z
" transform="scale(0.015625)"/>
      <path id="DejaVuSans-72" d="M 2631 2963 
Q 2534 3019 2420 3045 
Q 2306 3072 2169 3072 
Q 1681 3072 1420 2755 
Q 1159 2438 1159 1844 
L 1159 0 
L 581 0 
L 581 3500 
L 1159 3500 
L 1159 2956 
Q 1341 3275 1631 3429 
Q 1922 3584 2338 3584 
Q 2397 3584 2469 3576 
Q 2541 3569 2628 3553 
L 2631 2963 
z
" transform="scale(0.015625)"/>
      <path id="DejaVuSans-79" d="M 2059 -325 
Q 1816 -950 1584 -1140 
Q 1353 -1331 966 -1331 
L 506 -1331 
L 506 -850 
L 844 -850 
Q 1081 -850 1212 -737 
Q 1344 -625 1503 -206 
L 1606 56 
L 191 3500 
L 800 3500 
L 1894 763 
L 2988 3500 
L 3597 3500 
L 2059 -325 
z
" transform="scale(0.015625)"/>
     </defs>
     <use xlink:href="#DejaVuSans-32"/>
     <use xlink:href="#DejaVuSans-2e" x="63.623047"/>
     <use xlink:href="#DejaVuSans-41" x="95.410156"/>
     <use xlink:href="#DejaVuSans-2e" x="162.068359"/>
     <use xlink:href="#DejaVuSans-35" x="193.855469"/>
     <use xlink:href="#DejaVuSans-32" x="257.478516"/>
     <use xlink:href="#DejaVuSans-20" x="321.101562"/>
     <use xlink:href="#DejaVuSans-53" x="352.888672"/>
     <use xlink:href="#DejaVuSans-75" x="416.365234"/>
     <use xlink:href="#DejaVuSans-6d" x="479.744141"/>
     <use xlink:href="#DejaVuSans-6d" x="577.15625"/>
     <use xlink:href="#DejaVuSans-61" x="674.568359"/>
     <use xlink:href="#DejaVuSans-72" x="735.847656"/>
     <use xlink:href="#DejaVuSans-79" x="776.960938"/>
    </g>
   </g>
  </g>
 </g>
 <defs>
  <clipPath id="p9be3399f46">
   <rect x="144" y="41.472" width="892.8" height="266.112"/>
  </clipPath>
 </defs>
</svg>
