<?xml version="1.0" encoding="utf-8" standalone="no"?>
<!DOCTYPE svg PUBLIC "-//W3C//DTD SVG 1.1//EN"
  "http://www.w3.org/Graphics/SVG/1.1/DTD/svg11.dtd">
<svg xmlns:xlink="http://www.w3.org/1999/xlink" width="1152pt" height="378pt" viewBox="0 0 1152 378" xmlns="http://www.w3.org/2000/svg" version="1.1">
 <metadata>
  <rdf:RDF xmlns:dc="http://purl.org/dc/elements/1.1/" xmlns:cc="http://creativecommons.org/ns#" xmlns:rdf="http://www.w3.org/1999/02/22-rdf-syntax-ns#">
   <cc:Work>
    <dc:type rdf:resource="http://purl.org/dc/dcmitype/StillImage"/>
    <dc:date>2024-10-24T16:06:51.320811</dc:date>
    <dc:format>image/svg+xml</dc:format>
    <dc:creator>
     <cc:Agent>
      <dc:title>Matplotlib v3.8.4, https://matplotlib.org/</dc:title>
     </cc:Agent>
    </dc:creator>
   </cc:Work>
  </rdf:RDF>
 </metadata>
 <defs>
  <style type="text/css">*{stroke-linejoin: round; stroke-linecap: butt}</style>
 </defs>
 <g id="figure_1">
  <g id="patch_1">
   <path d="M 0 378 
L 1152 378 
L 1152 0 
L 0 0 
z
" style="fill: #ffffff"/>
  </g>
  <g id="axes_1">
   <g id="patch_2">
    <path d="M 144 336.42 
L 1036.8 336.42 
L 1036.8 45.36 
L 144 45.36 
z
" style="fill: #ffffff"/>
   </g>
   <g id="patch_3">
    <path d="M 144 323.19 
L 688.876968 323.19 
L 688.876968 317.437826 
L 144 317.437826 
z
" clip-path="url(#p203f7265bc)" style="fill: #0000ff"/>
   </g>
   <g id="patch_4">
    <path d="M 168.293878 323.19 
L 687.141691 323.19 
L 687.141691 317.437826 
L 168.293878 317.437826 
z
" clip-path="url(#p203f7265bc)" style="fill: #0000ff"/>
   </g>
   <g id="patch_5">
    <path d="M 215.146356 323.19 
L 688.876968 323.19 
L 688.876968 317.437826 
L 215.146356 317.437826 
z
" clip-path="url(#p203f7265bc)" style="fill: #0000ff"/>
   </g>
   <g id="patch_6">
    <path d="M 144 306.149185 
L 152.676385 306.149185 
L 152.676385 305.717772 
L 144 305.717772 
z
" clip-path="url(#p203f7265bc)" style="fill: #0000ff"/>
   </g>
   <g id="patch_7">
    <path d="M 154.411662 308.809565 
L 730.523615 308.809565 
L 730.523615 303.057391 
L 154.411662 303.057391 
z
" clip-path="url(#p203f7265bc)" style="fill: #0000ff"/>
   </g>
   <g id="patch_8">
    <path d="M 161.35277 308.809565 
L 730.523615 308.809565 
L 730.523615 303.057391 
L 161.35277 303.057391 
z
" clip-path="url(#p203f7265bc)" style="fill: #0000ff"/>
   </g>
   <g id="patch_9">
    <path d="M 189.117201 308.809565 
L 732.258892 308.809565 
L 732.258892 303.057391 
L 189.117201 303.057391 
z
" clip-path="url(#p203f7265bc)" style="fill: #0000ff"/>
   </g>
   <g id="patch_10">
    <path d="M 144 291.76875 
L 180.440816 291.76875 
L 180.440816 291.337337 
L 144 291.337337 
z
" clip-path="url(#p203f7265bc)" style="fill: #0000ff"/>
   </g>
   <g id="patch_11">
    <path d="M 182.176093 294.42913 
L 694.082799 294.42913 
L 694.082799 288.676957 
L 182.176093 288.676957 
z
" clip-path="url(#p203f7265bc)" style="fill: #0000ff"/>
   </g>
   <g id="patch_12">
    <path d="M 194.323032 294.42913 
L 694.082799 294.42913 
L 694.082799 288.676957 
L 194.323032 288.676957 
z
" clip-path="url(#p203f7265bc)" style="fill: #0000ff"/>
   </g>
   <g id="patch_13">
    <path d="M 263.734111 294.42913 
L 694.082799 294.42913 
L 694.082799 288.676957 
L 263.734111 288.676957 
z
" clip-path="url(#p203f7265bc)" style="fill: #0000ff"/>
   </g>
   <g id="patch_14">
    <path d="M 144 277.388315 
L 161.35277 277.388315 
L 161.35277 276.956902 
L 144 276.956902 
z
" clip-path="url(#p203f7265bc)" style="fill: #0000ff"/>
   </g>
   <g id="patch_15">
    <path d="M 163.088047 280.048696 
L 655.906706 280.048696 
L 655.906706 274.296522 
L 163.088047 274.296522 
z
" clip-path="url(#p203f7265bc)" style="fill: #0000ff"/>
   </g>
   <g id="patch_16">
    <path d="M 178.705539 280.048696 
L 652.436152 280.048696 
L 652.436152 274.296522 
L 178.705539 274.296522 
z
" clip-path="url(#p203f7265bc)" style="fill: #0000ff"/>
   </g>
   <g id="patch_17">
    <path d="M 183.91137 280.048696 
L 657.641983 280.048696 
L 657.641983 274.296522 
L 183.91137 274.296522 
z
" clip-path="url(#p203f7265bc)" style="fill: #0000ff"/>
   </g>
   <g id="patch_18">
    <path d="M 144 263.00788 
L 154.411662 263.00788 
L 154.411662 262.576467 
L 144 262.576467 
z
" clip-path="url(#p203f7265bc)" style="fill: #0000ff"/>
   </g>
   <g id="patch_19">
    <path d="M 156.146939 265.668261 
L 652.436152 265.668261 
L 652.436152 259.916087 
L 156.146939 259.916087 
z
" clip-path="url(#p203f7265bc)" style="fill: #0000ff"/>
   </g>
   <g id="patch_20">
    <path d="M 175.234985 265.668261 
L 657.641983 265.668261 
L 657.641983 259.916087 
L 175.234985 259.916087 
z
" clip-path="url(#p203f7265bc)" style="fill: #0000ff"/>
   </g>
   <g id="patch_21">
    <path d="M 192.587755 265.668261 
L 655.906706 265.668261 
L 655.906706 259.916087 
L 192.587755 259.916087 
z
" clip-path="url(#p203f7265bc)" style="fill: #0000ff"/>
   </g>
   <g id="patch_22">
    <path d="M 144 248.627446 
L 144 248.627446 
L 144 248.196033 
L 144 248.196033 
z
" clip-path="url(#p203f7265bc)" style="fill: #0000ff"/>
   </g>
   <g id="patch_23">
    <path d="M 145.735277 251.287826 
L 902.316035 251.287826 
L 902.316035 245.535652 
L 145.735277 245.535652 
z
" clip-path="url(#p203f7265bc)" style="fill: #0000ff"/>
   </g>
   <g id="patch_24">
    <path d="M 145.735277 251.287826 
L 900.580758 251.287826 
L 900.580758 245.535652 
L 145.735277 245.535652 
z
" clip-path="url(#p203f7265bc)" style="fill: #0000ff"/>
   </g>
   <g id="patch_25">
    <path d="M 154.411662 251.287826 
L 966.521283 251.287826 
L 966.521283 245.535652 
L 154.411662 245.535652 
z
" clip-path="url(#p203f7265bc)" style="fill: #0000ff"/>
   </g>
   <g id="patch_26">
    <path d="M 968.25656 248.627446 
L 994.285714 248.627446 
L 994.285714 248.196033 
L 968.25656 248.196033 
z
" clip-path="url(#p203f7265bc)" style="fill: #0000ff"/>
   </g>
   <g id="patch_27">
    <path d="M 144 234.247011 
L 164.823324 234.247011 
L 164.823324 233.815598 
L 144 233.815598 
z
" clip-path="url(#p203f7265bc)" style="fill: #0000ff"/>
   </g>
   <g id="patch_28">
    <path d="M 166.558601 236.907391 
L 617.730612 236.907391 
L 617.730612 231.155217 
L 166.558601 231.155217 
z
" clip-path="url(#p203f7265bc)" style="fill: #0000ff"/>
   </g>
   <g id="patch_29">
    <path d="M 232.499125 236.907391 
L 629.877551 236.907391 
L 629.877551 231.155217 
L 232.499125 231.155217 
z
" clip-path="url(#p203f7265bc)" style="fill: #0000ff"/>
   </g>
   <g id="patch_30">
    <path d="M 631.612828 234.247011 
L 633.348105 234.247011 
L 633.348105 233.815598 
L 631.612828 233.815598 
z
" clip-path="url(#p203f7265bc)" style="fill: #0000ff"/>
   </g>
   <g id="patch_31">
    <path d="M 144 219.866576 
L 164.823324 219.866576 
L 164.823324 219.435163 
L 144 219.435163 
z
" clip-path="url(#p203f7265bc)" style="fill: #0000ff"/>
   </g>
   <g id="patch_32">
    <path d="M 166.558601 222.526957 
L 683.671137 222.526957 
L 683.671137 216.774783 
L 166.558601 216.774783 
z
" clip-path="url(#p203f7265bc)" style="fill: #0000ff"/>
   </g>
   <g id="patch_33">
    <path d="M 178.705539 222.526957 
L 685.406414 222.526957 
L 685.406414 216.774783 
L 178.705539 216.774783 
z
" clip-path="url(#p203f7265bc)" style="fill: #0000ff"/>
   </g>
   <g id="patch_34">
    <path d="M 687.141691 219.866576 
L 690.612245 219.866576 
L 690.612245 219.435163 
L 687.141691 219.435163 
z
" clip-path="url(#p203f7265bc)" style="fill: #0000ff"/>
   </g>
   <g id="patch_35">
    <path d="M 144 205.486141 
L 150.941108 205.486141 
L 150.941108 205.054728 
L 144 205.054728 
z
" clip-path="url(#p203f7265bc)" style="fill: #0000ff"/>
   </g>
   <g id="patch_36">
    <path d="M 152.676385 208.146522 
L 796.46414 208.146522 
L 796.46414 202.394348 
L 152.676385 202.394348 
z
" clip-path="url(#p203f7265bc)" style="fill: #0000ff"/>
   </g>
   <g id="patch_37">
    <path d="M 178.705539 208.146522 
L 300.174927 208.146522 
L 300.174927 202.394348 
L 178.705539 202.394348 
z
" clip-path="url(#p203f7265bc)" style="fill: #0000ff"/>
   </g>
   <g id="patch_38">
    <path d="M 798.199417 205.486141 
L 810.346356 205.486141 
L 810.346356 205.054728 
L 798.199417 205.054728 
z
" clip-path="url(#p203f7265bc)" style="fill: #0000ff"/>
   </g>
   <g id="patch_39">
    <path d="M 144 191.105707 
L 144 191.105707 
L 144 190.674293 
L 144 190.674293 
z
" clip-path="url(#p203f7265bc)" style="fill: #0000ff"/>
   </g>
   <g id="patch_40">
    <path d="M 145.735277 193.766087 
L 772.170262 193.766087 
L 772.170262 188.013913 
L 145.735277 188.013913 
z
" clip-path="url(#p203f7265bc)" style="fill: #0000ff"/>
   </g>
   <g id="patch_41">
    <path d="M 215.146356 193.766087 
L 768.699708 193.766087 
L 768.699708 188.013913 
L 215.146356 188.013913 
z
" clip-path="url(#p203f7265bc)" style="fill: #0000ff"/>
   </g>
   <g id="patch_42">
    <path d="M 773.905539 191.105707 
L 782.581924 191.105707 
L 782.581924 190.674293 
L 773.905539 190.674293 
z
" clip-path="url(#p203f7265bc)" style="fill: #0000ff"/>
   </g>
   <g id="patch_43">
    <path d="M 144 176.725272 
L 154.411662 176.725272 
L 154.411662 176.293859 
L 144 176.293859 
z
" clip-path="url(#p203f7265bc)" style="fill: #0000ff"/>
   </g>
   <g id="patch_44">
    <path d="M 156.146939 179.385652 
L 367.850729 179.385652 
L 367.850729 173.633478 
L 156.146939 173.633478 
z
" clip-path="url(#p203f7265bc)" style="fill: #0000ff"/>
   </g>
   <g id="patch_45">
    <path d="M 170.029155 179.385652 
L 676.730029 179.385652 
L 676.730029 173.633478 
L 170.029155 173.633478 
z
" clip-path="url(#p203f7265bc)" style="fill: #0000ff"/>
   </g>
   <g id="patch_46">
    <path d="M 532.702041 179.385652 
L 676.730029 179.385652 
L 676.730029 173.633478 
L 532.702041 173.633478 
z
" clip-path="url(#p203f7265bc)" style="fill: #0000ff"/>
   </g>
   <g id="patch_47">
    <path d="M 678.465306 176.725272 
L 694.082799 176.725272 
L 694.082799 176.293859 
L 678.465306 176.293859 
z
" clip-path="url(#p203f7265bc)" style="fill: #0000ff"/>
   </g>
   <g id="patch_48">
    <path d="M 144 162.344837 
L 209.940525 162.344837 
L 209.940525 161.913424 
L 144 161.913424 
z
" clip-path="url(#p203f7265bc)" style="fill: #0000ff"/>
   </g>
   <g id="patch_49">
    <path d="M 211.675802 165.005217 
L 839.846064 165.005217 
L 839.846064 159.253043 
L 211.675802 159.253043 
z
" clip-path="url(#p203f7265bc)" style="fill: #0000ff"/>
   </g>
   <g id="patch_50">
    <path d="M 230.763848 165.005217 
L 829.434402 165.005217 
L 829.434402 159.253043 
L 230.763848 159.253043 
z
" clip-path="url(#p203f7265bc)" style="fill: #0000ff"/>
   </g>
   <g id="patch_51">
    <path d="M 841.581341 162.344837 
L 843.316618 162.344837 
L 843.316618 161.913424 
L 841.581341 161.913424 
z
" clip-path="url(#p203f7265bc)" style="fill: #0000ff"/>
   </g>
   <g id="patch_52">
    <path d="M 144 147.964402 
L 163.088047 147.964402 
L 163.088047 147.532989 
L 144 147.532989 
z
" clip-path="url(#p203f7265bc)" style="fill: #0000ff"/>
   </g>
   <g id="patch_53">
    <path d="M 164.823324 150.624783 
L 624.67172 150.624783 
L 624.67172 144.872609 
L 164.823324 144.872609 
z
" clip-path="url(#p203f7265bc)" style="fill: #0000ff"/>
   </g>
   <g id="patch_54">
    <path d="M 173.499708 150.624783 
L 614.260058 150.624783 
L 614.260058 144.872609 
L 173.499708 144.872609 
z
" clip-path="url(#p203f7265bc)" style="fill: #0000ff"/>
   </g>
   <g id="patch_55">
    <path d="M 626.406997 147.964402 
L 628.142274 147.964402 
L 628.142274 147.532989 
L 626.406997 147.532989 
z
" clip-path="url(#p203f7265bc)" style="fill: #0000ff"/>
   </g>
   <g id="patch_56">
    <path d="M 144 133.583967 
L 145.735277 133.583967 
L 145.735277 133.152554 
L 144 133.152554 
z
" clip-path="url(#p203f7265bc)" style="fill: #0000ff"/>
   </g>
   <g id="patch_57">
    <path d="M 147.470554 136.244348 
L 843.316618 136.244348 
L 843.316618 130.492174 
L 147.470554 130.492174 
z
" clip-path="url(#p203f7265bc)" style="fill: #0000ff"/>
   </g>
   <g id="patch_58">
    <path d="M 166.558601 136.244348 
L 834.640233 136.244348 
L 834.640233 130.492174 
L 166.558601 130.492174 
z
" clip-path="url(#p203f7265bc)" style="fill: #0000ff"/>
   </g>
   <g id="patch_59">
    <path d="M 845.051895 133.583967 
L 869.345773 133.583967 
L 869.345773 133.152554 
L 845.051895 133.152554 
z
" clip-path="url(#p203f7265bc)" style="fill: #0000ff"/>
   </g>
   <g id="patch_60">
    <path d="M 144 119.203533 
L 208.205248 119.203533 
L 208.205248 118.77212 
L 144 118.77212 
z
" clip-path="url(#p203f7265bc)" style="fill: #0000ff"/>
   </g>
   <g id="patch_61">
    <path d="M 209.940525 121.863913 
L 813.81691 121.863913 
L 813.81691 116.111739 
L 209.940525 116.111739 
z
" clip-path="url(#p203f7265bc)" style="fill: #0000ff"/>
   </g>
   <g id="patch_62">
    <path d="M 227.293294 121.863913 
L 806.875802 121.863913 
L 806.875802 116.111739 
L 227.293294 116.111739 
z
" clip-path="url(#p203f7265bc)" style="fill: #0000ff"/>
   </g>
   <g id="patch_63">
    <path d="M 815.552187 119.203533 
L 819.022741 119.203533 
L 819.022741 118.77212 
L 815.552187 118.77212 
z
" clip-path="url(#p203f7265bc)" style="fill: #0000ff"/>
   </g>
   <g id="patch_64">
    <path d="M 144 104.823098 
L 144 104.823098 
L 144 104.391685 
L 144 104.391685 
z
" clip-path="url(#p203f7265bc)" style="fill: #0000ff"/>
   </g>
   <g id="patch_65">
    <path d="M 145.735277 107.483478 
L 780.846647 107.483478 
L 780.846647 101.731304 
L 145.735277 101.731304 
z
" clip-path="url(#p203f7265bc)" style="fill: #0000ff"/>
   </g>
   <g id="patch_66">
    <path d="M 147.470554 107.483478 
L 791.258309 107.483478 
L 791.258309 101.731304 
L 147.470554 101.731304 
z
" clip-path="url(#p203f7265bc)" style="fill: #0000ff"/>
   </g>
   <g id="patch_67">
    <path d="M 144 90.442663 
L 209.940525 90.442663 
L 209.940525 90.01125 
L 144 90.01125 
z
" clip-path="url(#p203f7265bc)" style="fill: #0000ff"/>
   </g>
   <g id="patch_68">
    <path d="M 211.675802 93.103043 
L 825.963848 93.103043 
L 825.963848 87.35087 
L 211.675802 87.35087 
z
" clip-path="url(#p203f7265bc)" style="fill: #0000ff"/>
   </g>
   <g id="patch_69">
    <path d="M 229.028571 93.103043 
L 817.287464 93.103043 
L 817.287464 87.35087 
L 229.028571 87.35087 
z
" clip-path="url(#p203f7265bc)" style="fill: #0000ff"/>
   </g>
   <g id="patch_70">
    <path d="M 827.699125 90.442663 
L 829.434402 90.442663 
L 829.434402 90.01125 
L 827.699125 90.01125 
z
" clip-path="url(#p203f7265bc)" style="fill: #0000ff"/>
   </g>
   <g id="patch_71">
    <path d="M 144 76.062228 
L 232.499125 76.062228 
L 232.499125 75.630815 
L 144 75.630815 
z
" clip-path="url(#p203f7265bc)" style="fill: #0000ff"/>
   </g>
   <g id="patch_72">
    <path d="M 234.234402 78.722609 
L 812.081633 78.722609 
L 812.081633 72.970435 
L 234.234402 72.970435 
z
" clip-path="url(#p203f7265bc)" style="fill: #0000ff"/>
   </g>
   <g id="patch_73">
    <path d="M 253.322449 78.722609 
L 803.405248 78.722609 
L 803.405248 72.970435 
L 253.322449 72.970435 
z
" clip-path="url(#p203f7265bc)" style="fill: #0000ff"/>
   </g>
   <g id="patch_74">
    <path d="M 813.81691 76.062228 
L 822.493294 76.062228 
L 822.493294 75.630815 
L 813.81691 75.630815 
z
" clip-path="url(#p203f7265bc)" style="fill: #0000ff"/>
   </g>
   <g id="patch_75">
    <path d="M 144 61.681793 
L 156.146939 61.681793 
L 156.146939 61.25038 
L 144 61.25038 
z
" clip-path="url(#p203f7265bc)" style="fill: #0000ff"/>
   </g>
   <g id="patch_76">
    <path d="M 157.882216 64.342174 
L 584.76035 64.342174 
L 584.76035 58.59 
L 157.882216 58.59 
z
" clip-path="url(#p203f7265bc)" style="fill: #0000ff"/>
   </g>
   <g id="patch_77">
    <path d="M 208.205248 64.342174 
L 602.11312 64.342174 
L 602.11312 58.59 
L 208.205248 58.59 
z
" clip-path="url(#p203f7265bc)" style="fill: #0000ff"/>
   </g>
   <g id="patch_78">
    <path d="M 603.848397 61.681793 
L 640.289213 61.681793 
L 640.289213 61.25038 
L 603.848397 61.25038 
z
" clip-path="url(#p203f7265bc)" style="fill: #0000ff"/>
   </g>
   <g id="matplotlib.axis_1">
    <g id="xtick_1">
     <g id="line2d_1">
      <defs>
       <path id="mfa66ed7a4e" d="M 0 0 
L 0 3.5 
" style="stroke: #000000; stroke-width: 0.8"/>
      </defs>
      <g>
       <use xlink:href="#mfa66ed7a4e" x="315.79242" y="336.42" style="stroke: #000000; stroke-width: 0.8"/>
      </g>
     </g>
     <g id="text_1">
      <!-- 100 -->
      <g transform="translate(306.24867 351.018438) scale(0.1 -0.1)">
       <defs>
        <path id="DejaVuSans-31" d="M 794 531 
L 1825 531 
L 1825 4091 
L 703 3866 
L 703 4441 
L 1819 4666 
L 2450 4666 
L 2450 531 
L 3481 531 
L 3481 0 
L 794 0 
L 794 531 
z
" transform="scale(0.015625)"/>
        <path id="DejaVuSans-30" d="M 2034 4250 
Q 1547 4250 1301 3770 
Q 1056 3291 1056 2328 
Q 1056 1369 1301 889 
Q 1547 409 2034 409 
Q 2525 409 2770 889 
Q 3016 1369 3016 2328 
Q 3016 3291 2770 3770 
Q 2525 4250 2034 4250 
z
M 2034 4750 
Q 2819 4750 3233 4129 
Q 3647 3509 3647 2328 
Q 3647 1150 3233 529 
Q 2819 -91 2034 -91 
Q 1250 -91 836 529 
Q 422 1150 422 2328 
Q 422 3509 836 4129 
Q 1250 4750 2034 4750 
z
" transform="scale(0.015625)"/>
       </defs>
       <use xlink:href="#DejaVuSans-31"/>
       <use xlink:href="#DejaVuSans-30" x="63.623047"/>
       <use xlink:href="#DejaVuSans-30" x="127.246094"/>
      </g>
     </g>
    </g>
    <g id="xtick_2">
     <g id="line2d_2">
      <g>
       <use xlink:href="#mfa66ed7a4e" x="489.320117" y="336.42" style="stroke: #000000; stroke-width: 0.8"/>
      </g>
     </g>
     <g id="text_2">
      <!-- 200 -->
      <g transform="translate(479.776367 351.018438) scale(0.1 -0.1)">
       <defs>
        <path id="DejaVuSans-32" d="M 1228 531 
L 3431 531 
L 3431 0 
L 469 0 
L 469 531 
Q 828 903 1448 1529 
Q 2069 2156 2228 2338 
Q 2531 2678 2651 2914 
Q 2772 3150 2772 3378 
Q 2772 3750 2511 3984 
Q 2250 4219 1831 4219 
Q 1534 4219 1204 4116 
Q 875 4013 500 3803 
L 500 4441 
Q 881 4594 1212 4672 
Q 1544 4750 1819 4750 
Q 2544 4750 2975 4387 
Q 3406 4025 3406 3419 
Q 3406 3131 3298 2873 
Q 3191 2616 2906 2266 
Q 2828 2175 2409 1742 
Q 1991 1309 1228 531 
z
" transform="scale(0.015625)"/>
       </defs>
       <use xlink:href="#DejaVuSans-32"/>
       <use xlink:href="#DejaVuSans-30" x="63.623047"/>
       <use xlink:href="#DejaVuSans-30" x="127.246094"/>
      </g>
     </g>
    </g>
    <g id="xtick_3">
     <g id="line2d_3">
      <g>
       <use xlink:href="#mfa66ed7a4e" x="662.847813" y="336.42" style="stroke: #000000; stroke-width: 0.8"/>
      </g>
     </g>
     <g id="text_3">
      <!-- 300 -->
      <g transform="translate(653.304063 351.018438) scale(0.1 -0.1)">
       <defs>
        <path id="DejaVuSans-33" d="M 2597 2516 
Q 3050 2419 3304 2112 
Q 3559 1806 3559 1356 
Q 3559 666 3084 287 
Q 2609 -91 1734 -91 
Q 1441 -91 1130 -33 
Q 819 25 488 141 
L 488 750 
Q 750 597 1062 519 
Q 1375 441 1716 441 
Q 2309 441 2620 675 
Q 2931 909 2931 1356 
Q 2931 1769 2642 2001 
Q 2353 2234 1838 2234 
L 1294 2234 
L 1294 2753 
L 1863 2753 
Q 2328 2753 2575 2939 
Q 2822 3125 2822 3475 
Q 2822 3834 2567 4026 
Q 2313 4219 1838 4219 
Q 1578 4219 1281 4162 
Q 984 4106 628 3988 
L 628 4550 
Q 988 4650 1302 4700 
Q 1616 4750 1894 4750 
Q 2613 4750 3031 4423 
Q 3450 4097 3450 3541 
Q 3450 3153 3228 2886 
Q 3006 2619 2597 2516 
z
" transform="scale(0.015625)"/>
       </defs>
       <use xlink:href="#DejaVuSans-33"/>
       <use xlink:href="#DejaVuSans-30" x="63.623047"/>
       <use xlink:href="#DejaVuSans-30" x="127.246094"/>
      </g>
     </g>
    </g>
    <g id="xtick_4">
     <g id="line2d_4">
      <g>
       <use xlink:href="#mfa66ed7a4e" x="836.37551" y="336.42" style="stroke: #000000; stroke-width: 0.8"/>
      </g>
     </g>
     <g id="text_4">
      <!-- 400 -->
      <g transform="translate(826.83176 351.018438) scale(0.1 -0.1)">
       <defs>
        <path id="DejaVuSans-34" d="M 2419 4116 
L 825 1625 
L 2419 1625 
L 2419 4116 
z
M 2253 4666 
L 3047 4666 
L 3047 1625 
L 3713 1625 
L 3713 1100 
L 3047 1100 
L 3047 0 
L 2419 0 
L 2419 1100 
L 313 1100 
L 313 1709 
L 2253 4666 
z
" transform="scale(0.015625)"/>
       </defs>
       <use xlink:href="#DejaVuSans-34"/>
       <use xlink:href="#DejaVuSans-30" x="63.623047"/>
       <use xlink:href="#DejaVuSans-30" x="127.246094"/>
      </g>
     </g>
    </g>
    <g id="xtick_5">
     <g id="line2d_5">
      <g>
       <use xlink:href="#mfa66ed7a4e" x="1009.903207" y="336.42" style="stroke: #000000; stroke-width: 0.8"/>
      </g>
     </g>
     <g id="text_5">
      <!-- 500 -->
      <g transform="translate(1000.359457 351.018438) scale(0.1 -0.1)">
       <defs>
        <path id="DejaVuSans-35" d="M 691 4666 
L 3169 4666 
L 3169 4134 
L 1269 4134 
L 1269 2991 
Q 1406 3038 1543 3061 
Q 1681 3084 1819 3084 
Q 2600 3084 3056 2656 
Q 3513 2228 3513 1497 
Q 3513 744 3044 326 
Q 2575 -91 1722 -91 
Q 1428 -91 1123 -41 
Q 819 9 494 109 
L 494 744 
Q 775 591 1075 516 
Q 1375 441 1709 441 
Q 2250 441 2565 725 
Q 2881 1009 2881 1497 
Q 2881 1984 2565 2268 
Q 2250 2553 1709 2553 
Q 1456 2553 1204 2497 
Q 953 2441 691 2322 
L 691 4666 
z
" transform="scale(0.015625)"/>
       </defs>
       <use xlink:href="#DejaVuSans-35"/>
       <use xlink:href="#DejaVuSans-30" x="63.623047"/>
       <use xlink:href="#DejaVuSans-30" x="127.246094"/>
      </g>
     </g>
    </g>
    <g id="text_6">
     <!-- Residual -->
     <g transform="translate(569.284375 364.696563) scale(0.1 -0.1)">
      <defs>
       <path id="DejaVuSans-52" d="M 2841 2188 
Q 3044 2119 3236 1894 
Q 3428 1669 3622 1275 
L 4263 0 
L 3584 0 
L 2988 1197 
Q 2756 1666 2539 1819 
Q 2322 1972 1947 1972 
L 1259 1972 
L 1259 0 
L 628 0 
L 628 4666 
L 2053 4666 
Q 2853 4666 3247 4331 
Q 3641 3997 3641 3322 
Q 3641 2881 3436 2590 
Q 3231 2300 2841 2188 
z
M 1259 4147 
L 1259 2491 
L 2053 2491 
Q 2509 2491 2742 2702 
Q 2975 2913 2975 3322 
Q 2975 3731 2742 3939 
Q 2509 4147 2053 4147 
L 1259 4147 
z
" transform="scale(0.015625)"/>
       <path id="DejaVuSans-65" d="M 3597 1894 
L 3597 1613 
L 953 1613 
Q 991 1019 1311 708 
Q 1631 397 2203 397 
Q 2534 397 2845 478 
Q 3156 559 3463 722 
L 3463 178 
Q 3153 47 2828 -22 
Q 2503 -91 2169 -91 
Q 1331 -91 842 396 
Q 353 884 353 1716 
Q 353 2575 817 3079 
Q 1281 3584 2069 3584 
Q 2775 3584 3186 3129 
Q 3597 2675 3597 1894 
z
M 3022 2063 
Q 3016 2534 2758 2815 
Q 2500 3097 2075 3097 
Q 1594 3097 1305 2825 
Q 1016 2553 972 2059 
L 3022 2063 
z
" transform="scale(0.015625)"/>
       <path id="DejaVuSans-73" d="M 2834 3397 
L 2834 2853 
Q 2591 2978 2328 3040 
Q 2066 3103 1784 3103 
Q 1356 3103 1142 2972 
Q 928 2841 928 2578 
Q 928 2378 1081 2264 
Q 1234 2150 1697 2047 
L 1894 2003 
Q 2506 1872 2764 1633 
Q 3022 1394 3022 966 
Q 3022 478 2636 193 
Q 2250 -91 1575 -91 
Q 1294 -91 989 -36 
Q 684 19 347 128 
L 347 722 
Q 666 556 975 473 
Q 1284 391 1588 391 
Q 1994 391 2212 530 
Q 2431 669 2431 922 
Q 2431 1156 2273 1281 
Q 2116 1406 1581 1522 
L 1381 1569 
Q 847 1681 609 1914 
Q 372 2147 372 2553 
Q 372 3047 722 3315 
Q 1072 3584 1716 3584 
Q 2034 3584 2315 3537 
Q 2597 3491 2834 3397 
z
" transform="scale(0.015625)"/>
       <path id="DejaVuSans-69" d="M 603 3500 
L 1178 3500 
L 1178 0 
L 603 0 
L 603 3500 
z
M 603 4863 
L 1178 4863 
L 1178 4134 
L 603 4134 
L 603 4863 
z
" transform="scale(0.015625)"/>
       <path id="DejaVuSans-64" d="M 2906 2969 
L 2906 4863 
L 3481 4863 
L 3481 0 
L 2906 0 
L 2906 525 
Q 2725 213 2448 61 
Q 2172 -91 1784 -91 
Q 1150 -91 751 415 
Q 353 922 353 1747 
Q 353 2572 751 3078 
Q 1150 3584 1784 3584 
Q 2172 3584 2448 3432 
Q 2725 3281 2906 2969 
z
M 947 1747 
Q 947 1113 1208 752 
Q 1469 391 1925 391 
Q 2381 391 2643 752 
Q 2906 1113 2906 1747 
Q 2906 2381 2643 2742 
Q 2381 3103 1925 3103 
Q 1469 3103 1208 2742 
Q 947 2381 947 1747 
z
" transform="scale(0.015625)"/>
       <path id="DejaVuSans-75" d="M 544 1381 
L 544 3500 
L 1119 3500 
L 1119 1403 
Q 1119 906 1312 657 
Q 1506 409 1894 409 
Q 2359 409 2629 706 
Q 2900 1003 2900 1516 
L 2900 3500 
L 3475 3500 
L 3475 0 
L 2900 0 
L 2900 538 
Q 2691 219 2414 64 
Q 2138 -91 1772 -91 
Q 1169 -91 856 284 
Q 544 659 544 1381 
z
M 1991 3584 
L 1991 3584 
z
" transform="scale(0.015625)"/>
       <path id="DejaVuSans-61" d="M 2194 1759 
Q 1497 1759 1228 1600 
Q 959 1441 959 1056 
Q 959 750 1161 570 
Q 1363 391 1709 391 
Q 2188 391 2477 730 
Q 2766 1069 2766 1631 
L 2766 1759 
L 2194 1759 
z
M 3341 1997 
L 3341 0 
L 2766 0 
L 2766 531 
Q 2569 213 2275 61 
Q 1981 -91 1556 -91 
Q 1019 -91 701 211 
Q 384 513 384 1019 
Q 384 1609 779 1909 
Q 1175 2209 1959 2209 
L 2766 2209 
L 2766 2266 
Q 2766 2663 2505 2880 
Q 2244 3097 1772 3097 
Q 1472 3097 1187 3025 
Q 903 2953 641 2809 
L 641 3341 
Q 956 3463 1253 3523 
Q 1550 3584 1831 3584 
Q 2591 3584 2966 3190 
Q 3341 2797 3341 1997 
z
" transform="scale(0.015625)"/>
       <path id="DejaVuSans-6c" d="M 603 4863 
L 1178 4863 
L 1178 0 
L 603 0 
L 603 4863 
z
" transform="scale(0.015625)"/>
      </defs>
      <use xlink:href="#DejaVuSans-52"/>
      <use xlink:href="#DejaVuSans-65" x="64.982422"/>
      <use xlink:href="#DejaVuSans-73" x="126.505859"/>
      <use xlink:href="#DejaVuSans-69" x="178.605469"/>
      <use xlink:href="#DejaVuSans-64" x="206.388672"/>
      <use xlink:href="#DejaVuSans-75" x="269.865234"/>
      <use xlink:href="#DejaVuSans-61" x="333.244141"/>
      <use xlink:href="#DejaVuSans-6c" x="394.523438"/>
     </g>
    </g>
   </g>
   <g id="matplotlib.axis_2">
    <g id="ytick_1">
     <g id="line2d_6">
      <defs>
       <path id="m76f409f8ac" d="M 0 0 
L -3.5 0 
" style="stroke: #000000; stroke-width: 0.8"/>
      </defs>
      <g>
       <use xlink:href="#m76f409f8ac" x="144" y="320.313913" style="stroke: #000000; stroke-width: 0.8"/>
      </g>
     </g>
     <g id="text_7">
      <!-- 2.A.119.1.1 -->
      <g transform="translate(79.446875 324.113132) scale(0.1 -0.1)">
       <defs>
        <path id="DejaVuSans-2e" d="M 684 794 
L 1344 794 
L 1344 0 
L 684 0 
L 684 794 
z
" transform="scale(0.015625)"/>
        <path id="DejaVuSans-41" d="M 2188 4044 
L 1331 1722 
L 3047 1722 
L 2188 4044 
z
M 1831 4666 
L 2547 4666 
L 4325 0 
L 3669 0 
L 3244 1197 
L 1141 1197 
L 716 0 
L 50 0 
L 1831 4666 
z
" transform="scale(0.015625)"/>
        <path id="DejaVuSans-39" d="M 703 97 
L 703 672 
Q 941 559 1184 500 
Q 1428 441 1663 441 
Q 2288 441 2617 861 
Q 2947 1281 2994 2138 
Q 2813 1869 2534 1725 
Q 2256 1581 1919 1581 
Q 1219 1581 811 2004 
Q 403 2428 403 3163 
Q 403 3881 828 4315 
Q 1253 4750 1959 4750 
Q 2769 4750 3195 4129 
Q 3622 3509 3622 2328 
Q 3622 1225 3098 567 
Q 2575 -91 1691 -91 
Q 1453 -91 1209 -44 
Q 966 3 703 97 
z
M 1959 2075 
Q 2384 2075 2632 2365 
Q 2881 2656 2881 3163 
Q 2881 3666 2632 3958 
Q 2384 4250 1959 4250 
Q 1534 4250 1286 3958 
Q 1038 3666 1038 3163 
Q 1038 2656 1286 2365 
Q 1534 2075 1959 2075 
z
" transform="scale(0.015625)"/>
       </defs>
       <use xlink:href="#DejaVuSans-32"/>
       <use xlink:href="#DejaVuSans-2e" x="63.623047"/>
       <use xlink:href="#DejaVuSans-41" x="95.410156"/>
       <use xlink:href="#DejaVuSans-2e" x="162.068359"/>
       <use xlink:href="#DejaVuSans-31" x="193.855469"/>
       <use xlink:href="#DejaVuSans-31" x="257.478516"/>
       <use xlink:href="#DejaVuSans-39" x="321.101562"/>
       <use xlink:href="#DejaVuSans-2e" x="384.724609"/>
       <use xlink:href="#DejaVuSans-31" x="416.511719"/>
       <use xlink:href="#DejaVuSans-2e" x="480.134766"/>
       <use xlink:href="#DejaVuSans-31" x="511.921875"/>
      </g>
     </g>
    </g>
    <g id="ytick_2">
     <g id="line2d_7">
      <g>
       <use xlink:href="#m76f409f8ac" x="144" y="305.933478" style="stroke: #000000; stroke-width: 0.8"/>
      </g>
     </g>
     <g id="text_8">
      <!-- 2.A.119.1.2 -->
      <g transform="translate(79.446875 309.732697) scale(0.1 -0.1)">
       <use xlink:href="#DejaVuSans-32"/>
       <use xlink:href="#DejaVuSans-2e" x="63.623047"/>
       <use xlink:href="#DejaVuSans-41" x="95.410156"/>
       <use xlink:href="#DejaVuSans-2e" x="162.068359"/>
       <use xlink:href="#DejaVuSans-31" x="193.855469"/>
       <use xlink:href="#DejaVuSans-31" x="257.478516"/>
       <use xlink:href="#DejaVuSans-39" x="321.101562"/>
       <use xlink:href="#DejaVuSans-2e" x="384.724609"/>
       <use xlink:href="#DejaVuSans-31" x="416.511719"/>
       <use xlink:href="#DejaVuSans-2e" x="480.134766"/>
       <use xlink:href="#DejaVuSans-32" x="511.921875"/>
      </g>
     </g>
    </g>
    <g id="ytick_3">
     <g id="line2d_8">
      <g>
       <use xlink:href="#m76f409f8ac" x="144" y="291.553043" style="stroke: #000000; stroke-width: 0.8"/>
      </g>
     </g>
     <g id="text_9">
      <!-- 2.A.119.1.3 -->
      <g transform="translate(79.446875 295.352262) scale(0.1 -0.1)">
       <use xlink:href="#DejaVuSans-32"/>
       <use xlink:href="#DejaVuSans-2e" x="63.623047"/>
       <use xlink:href="#DejaVuSans-41" x="95.410156"/>
       <use xlink:href="#DejaVuSans-2e" x="162.068359"/>
       <use xlink:href="#DejaVuSans-31" x="193.855469"/>
       <use xlink:href="#DejaVuSans-31" x="257.478516"/>
       <use xlink:href="#DejaVuSans-39" x="321.101562"/>
       <use xlink:href="#DejaVuSans-2e" x="384.724609"/>
       <use xlink:href="#DejaVuSans-31" x="416.511719"/>
       <use xlink:href="#DejaVuSans-2e" x="480.134766"/>
       <use xlink:href="#DejaVuSans-33" x="511.921875"/>
      </g>
     </g>
    </g>
    <g id="ytick_4">
     <g id="line2d_9">
      <g>
       <use xlink:href="#m76f409f8ac" x="144" y="277.172609" style="stroke: #000000; stroke-width: 0.8"/>
      </g>
     </g>
     <g id="text_10">
      <!-- 2.A.119.1.4 -->
      <g transform="translate(79.446875 280.971827) scale(0.1 -0.1)">
       <use xlink:href="#DejaVuSans-32"/>
       <use xlink:href="#DejaVuSans-2e" x="63.623047"/>
       <use xlink:href="#DejaVuSans-41" x="95.410156"/>
       <use xlink:href="#DejaVuSans-2e" x="162.068359"/>
       <use xlink:href="#DejaVuSans-31" x="193.855469"/>
       <use xlink:href="#DejaVuSans-31" x="257.478516"/>
       <use xlink:href="#DejaVuSans-39" x="321.101562"/>
       <use xlink:href="#DejaVuSans-2e" x="384.724609"/>
       <use xlink:href="#DejaVuSans-31" x="416.511719"/>
       <use xlink:href="#DejaVuSans-2e" x="480.134766"/>
       <use xlink:href="#DejaVuSans-34" x="511.921875"/>
      </g>
     </g>
    </g>
    <g id="ytick_5">
     <g id="line2d_10">
      <g>
       <use xlink:href="#m76f409f8ac" x="144" y="262.792174" style="stroke: #000000; stroke-width: 0.8"/>
      </g>
     </g>
     <g id="text_11">
      <!-- 2.A.119.1.5 -->
      <g transform="translate(79.446875 266.591393) scale(0.1 -0.1)">
       <use xlink:href="#DejaVuSans-32"/>
       <use xlink:href="#DejaVuSans-2e" x="63.623047"/>
       <use xlink:href="#DejaVuSans-41" x="95.410156"/>
       <use xlink:href="#DejaVuSans-2e" x="162.068359"/>
       <use xlink:href="#DejaVuSans-31" x="193.855469"/>
       <use xlink:href="#DejaVuSans-31" x="257.478516"/>
       <use xlink:href="#DejaVuSans-39" x="321.101562"/>
       <use xlink:href="#DejaVuSans-2e" x="384.724609"/>
       <use xlink:href="#DejaVuSans-31" x="416.511719"/>
       <use xlink:href="#DejaVuSans-2e" x="480.134766"/>
       <use xlink:href="#DejaVuSans-35" x="511.921875"/>
      </g>
     </g>
    </g>
    <g id="ytick_6">
     <g id="line2d_11">
      <g>
       <use xlink:href="#m76f409f8ac" x="144" y="248.411739" style="stroke: #000000; stroke-width: 0.8"/>
      </g>
     </g>
     <g id="text_12">
      <!-- 2.A.119.1.6 -->
      <g transform="translate(79.446875 252.210958) scale(0.1 -0.1)">
       <defs>
        <path id="DejaVuSans-36" d="M 2113 2584 
Q 1688 2584 1439 2293 
Q 1191 2003 1191 1497 
Q 1191 994 1439 701 
Q 1688 409 2113 409 
Q 2538 409 2786 701 
Q 3034 994 3034 1497 
Q 3034 2003 2786 2293 
Q 2538 2584 2113 2584 
z
M 3366 4563 
L 3366 3988 
Q 3128 4100 2886 4159 
Q 2644 4219 2406 4219 
Q 1781 4219 1451 3797 
Q 1122 3375 1075 2522 
Q 1259 2794 1537 2939 
Q 1816 3084 2150 3084 
Q 2853 3084 3261 2657 
Q 3669 2231 3669 1497 
Q 3669 778 3244 343 
Q 2819 -91 2113 -91 
Q 1303 -91 875 529 
Q 447 1150 447 2328 
Q 447 3434 972 4092 
Q 1497 4750 2381 4750 
Q 2619 4750 2861 4703 
Q 3103 4656 3366 4563 
z
" transform="scale(0.015625)"/>
       </defs>
       <use xlink:href="#DejaVuSans-32"/>
       <use xlink:href="#DejaVuSans-2e" x="63.623047"/>
       <use xlink:href="#DejaVuSans-41" x="95.410156"/>
       <use xlink:href="#DejaVuSans-2e" x="162.068359"/>
       <use xlink:href="#DejaVuSans-31" x="193.855469"/>
       <use xlink:href="#DejaVuSans-31" x="257.478516"/>
       <use xlink:href="#DejaVuSans-39" x="321.101562"/>
       <use xlink:href="#DejaVuSans-2e" x="384.724609"/>
       <use xlink:href="#DejaVuSans-31" x="416.511719"/>
       <use xlink:href="#DejaVuSans-2e" x="480.134766"/>
       <use xlink:href="#DejaVuSans-36" x="511.921875"/>
      </g>
     </g>
    </g>
    <g id="ytick_7">
     <g id="line2d_12">
      <g>
       <use xlink:href="#m76f409f8ac" x="144" y="234.031304" style="stroke: #000000; stroke-width: 0.8"/>
      </g>
     </g>
     <g id="text_13">
      <!-- 2.A.119.2.1 -->
      <g transform="translate(79.446875 237.830523) scale(0.1 -0.1)">
       <use xlink:href="#DejaVuSans-32"/>
       <use xlink:href="#DejaVuSans-2e" x="63.623047"/>
       <use xlink:href="#DejaVuSans-41" x="95.410156"/>
       <use xlink:href="#DejaVuSans-2e" x="162.068359"/>
       <use xlink:href="#DejaVuSans-31" x="193.855469"/>
       <use xlink:href="#DejaVuSans-31" x="257.478516"/>
       <use xlink:href="#DejaVuSans-39" x="321.101562"/>
       <use xlink:href="#DejaVuSans-2e" x="384.724609"/>
       <use xlink:href="#DejaVuSans-32" x="416.511719"/>
       <use xlink:href="#DejaVuSans-2e" x="480.134766"/>
       <use xlink:href="#DejaVuSans-31" x="511.921875"/>
      </g>
     </g>
    </g>
    <g id="ytick_8">
     <g id="line2d_13">
      <g>
       <use xlink:href="#m76f409f8ac" x="144" y="219.65087" style="stroke: #000000; stroke-width: 0.8"/>
      </g>
     </g>
     <g id="text_14">
      <!-- 2.A.119.2.2 -->
      <g transform="translate(79.446875 223.450088) scale(0.1 -0.1)">
       <use xlink:href="#DejaVuSans-32"/>
       <use xlink:href="#DejaVuSans-2e" x="63.623047"/>
       <use xlink:href="#DejaVuSans-41" x="95.410156"/>
       <use xlink:href="#DejaVuSans-2e" x="162.068359"/>
       <use xlink:href="#DejaVuSans-31" x="193.855469"/>
       <use xlink:href="#DejaVuSans-31" x="257.478516"/>
       <use xlink:href="#DejaVuSans-39" x="321.101562"/>
       <use xlink:href="#DejaVuSans-2e" x="384.724609"/>
       <use xlink:href="#DejaVuSans-32" x="416.511719"/>
       <use xlink:href="#DejaVuSans-2e" x="480.134766"/>
       <use xlink:href="#DejaVuSans-32" x="511.921875"/>
      </g>
     </g>
    </g>
    <g id="ytick_9">
     <g id="line2d_14">
      <g>
       <use xlink:href="#m76f409f8ac" x="144" y="205.270435" style="stroke: #000000; stroke-width: 0.8"/>
      </g>
     </g>
     <g id="text_15">
      <!-- 2.A.119.2.3 -->
      <g transform="translate(79.446875 209.069654) scale(0.1 -0.1)">
       <use xlink:href="#DejaVuSans-32"/>
       <use xlink:href="#DejaVuSans-2e" x="63.623047"/>
       <use xlink:href="#DejaVuSans-41" x="95.410156"/>
       <use xlink:href="#DejaVuSans-2e" x="162.068359"/>
       <use xlink:href="#DejaVuSans-31" x="193.855469"/>
       <use xlink:href="#DejaVuSans-31" x="257.478516"/>
       <use xlink:href="#DejaVuSans-39" x="321.101562"/>
       <use xlink:href="#DejaVuSans-2e" x="384.724609"/>
       <use xlink:href="#DejaVuSans-32" x="416.511719"/>
       <use xlink:href="#DejaVuSans-2e" x="480.134766"/>
       <use xlink:href="#DejaVuSans-33" x="511.921875"/>
      </g>
     </g>
    </g>
    <g id="ytick_10">
     <g id="line2d_15">
      <g>
       <use xlink:href="#m76f409f8ac" x="144" y="190.89" style="stroke: #000000; stroke-width: 0.8"/>
      </g>
     </g>
     <g id="text_16">
      <!-- 2.A.119.2.4 -->
      <g transform="translate(79.446875 194.689219) scale(0.1 -0.1)">
       <use xlink:href="#DejaVuSans-32"/>
       <use xlink:href="#DejaVuSans-2e" x="63.623047"/>
       <use xlink:href="#DejaVuSans-41" x="95.410156"/>
       <use xlink:href="#DejaVuSans-2e" x="162.068359"/>
       <use xlink:href="#DejaVuSans-31" x="193.855469"/>
       <use xlink:href="#DejaVuSans-31" x="257.478516"/>
       <use xlink:href="#DejaVuSans-39" x="321.101562"/>
       <use xlink:href="#DejaVuSans-2e" x="384.724609"/>
       <use xlink:href="#DejaVuSans-32" x="416.511719"/>
       <use xlink:href="#DejaVuSans-2e" x="480.134766"/>
       <use xlink:href="#DejaVuSans-34" x="511.921875"/>
      </g>
     </g>
    </g>
    <g id="ytick_11">
     <g id="line2d_16">
      <g>
       <use xlink:href="#m76f409f8ac" x="144" y="176.509565" style="stroke: #000000; stroke-width: 0.8"/>
      </g>
     </g>
     <g id="text_17">
      <!-- 2.A.119.2.5 -->
      <g transform="translate(79.446875 180.308784) scale(0.1 -0.1)">
       <use xlink:href="#DejaVuSans-32"/>
       <use xlink:href="#DejaVuSans-2e" x="63.623047"/>
       <use xlink:href="#DejaVuSans-41" x="95.410156"/>
       <use xlink:href="#DejaVuSans-2e" x="162.068359"/>
       <use xlink:href="#DejaVuSans-31" x="193.855469"/>
       <use xlink:href="#DejaVuSans-31" x="257.478516"/>
       <use xlink:href="#DejaVuSans-39" x="321.101562"/>
       <use xlink:href="#DejaVuSans-2e" x="384.724609"/>
       <use xlink:href="#DejaVuSans-32" x="416.511719"/>
       <use xlink:href="#DejaVuSans-2e" x="480.134766"/>
       <use xlink:href="#DejaVuSans-35" x="511.921875"/>
      </g>
     </g>
    </g>
    <g id="ytick_12">
     <g id="line2d_17">
      <g>
       <use xlink:href="#m76f409f8ac" x="144" y="162.12913" style="stroke: #000000; stroke-width: 0.8"/>
      </g>
     </g>
     <g id="text_18">
      <!-- 2.A.119.3.1 -->
      <g transform="translate(79.446875 165.928349) scale(0.1 -0.1)">
       <use xlink:href="#DejaVuSans-32"/>
       <use xlink:href="#DejaVuSans-2e" x="63.623047"/>
       <use xlink:href="#DejaVuSans-41" x="95.410156"/>
       <use xlink:href="#DejaVuSans-2e" x="162.068359"/>
       <use xlink:href="#DejaVuSans-31" x="193.855469"/>
       <use xlink:href="#DejaVuSans-31" x="257.478516"/>
       <use xlink:href="#DejaVuSans-39" x="321.101562"/>
       <use xlink:href="#DejaVuSans-2e" x="384.724609"/>
       <use xlink:href="#DejaVuSans-33" x="416.511719"/>
       <use xlink:href="#DejaVuSans-2e" x="480.134766"/>
       <use xlink:href="#DejaVuSans-31" x="511.921875"/>
      </g>
     </g>
    </g>
    <g id="ytick_13">
     <g id="line2d_18">
      <g>
       <use xlink:href="#m76f409f8ac" x="144" y="147.748696" style="stroke: #000000; stroke-width: 0.8"/>
      </g>
     </g>
     <g id="text_19">
      <!-- 2.A.119.3.2 -->
      <g transform="translate(79.446875 151.547914) scale(0.1 -0.1)">
       <use xlink:href="#DejaVuSans-32"/>
       <use xlink:href="#DejaVuSans-2e" x="63.623047"/>
       <use xlink:href="#DejaVuSans-41" x="95.410156"/>
       <use xlink:href="#DejaVuSans-2e" x="162.068359"/>
       <use xlink:href="#DejaVuSans-31" x="193.855469"/>
       <use xlink:href="#DejaVuSans-31" x="257.478516"/>
       <use xlink:href="#DejaVuSans-39" x="321.101562"/>
       <use xlink:href="#DejaVuSans-2e" x="384.724609"/>
       <use xlink:href="#DejaVuSans-33" x="416.511719"/>
       <use xlink:href="#DejaVuSans-2e" x="480.134766"/>
       <use xlink:href="#DejaVuSans-32" x="511.921875"/>
      </g>
     </g>
    </g>
    <g id="ytick_14">
     <g id="line2d_19">
      <g>
       <use xlink:href="#m76f409f8ac" x="144" y="133.368261" style="stroke: #000000; stroke-width: 0.8"/>
      </g>
     </g>
     <g id="text_20">
      <!-- 2.A.119.3.3 -->
      <g transform="translate(79.446875 137.16748) scale(0.1 -0.1)">
       <use xlink:href="#DejaVuSans-32"/>
       <use xlink:href="#DejaVuSans-2e" x="63.623047"/>
       <use xlink:href="#DejaVuSans-41" x="95.410156"/>
       <use xlink:href="#DejaVuSans-2e" x="162.068359"/>
       <use xlink:href="#DejaVuSans-31" x="193.855469"/>
       <use xlink:href="#DejaVuSans-31" x="257.478516"/>
       <use xlink:href="#DejaVuSans-39" x="321.101562"/>
       <use xlink:href="#DejaVuSans-2e" x="384.724609"/>
       <use xlink:href="#DejaVuSans-33" x="416.511719"/>
       <use xlink:href="#DejaVuSans-2e" x="480.134766"/>
       <use xlink:href="#DejaVuSans-33" x="511.921875"/>
      </g>
     </g>
    </g>
    <g id="ytick_15">
     <g id="line2d_20">
      <g>
       <use xlink:href="#m76f409f8ac" x="144" y="118.987826" style="stroke: #000000; stroke-width: 0.8"/>
      </g>
     </g>
     <g id="text_21">
      <!-- 2.A.119.3.4 -->
      <g transform="translate(79.446875 122.787045) scale(0.1 -0.1)">
       <use xlink:href="#DejaVuSans-32"/>
       <use xlink:href="#DejaVuSans-2e" x="63.623047"/>
       <use xlink:href="#DejaVuSans-41" x="95.410156"/>
       <use xlink:href="#DejaVuSans-2e" x="162.068359"/>
       <use xlink:href="#DejaVuSans-31" x="193.855469"/>
       <use xlink:href="#DejaVuSans-31" x="257.478516"/>
       <use xlink:href="#DejaVuSans-39" x="321.101562"/>
       <use xlink:href="#DejaVuSans-2e" x="384.724609"/>
       <use xlink:href="#DejaVuSans-33" x="416.511719"/>
       <use xlink:href="#DejaVuSans-2e" x="480.134766"/>
       <use xlink:href="#DejaVuSans-34" x="511.921875"/>
      </g>
     </g>
    </g>
    <g id="ytick_16">
     <g id="line2d_21">
      <g>
       <use xlink:href="#m76f409f8ac" x="144" y="104.607391" style="stroke: #000000; stroke-width: 0.8"/>
      </g>
     </g>
     <g id="text_22">
      <!-- 2.A.119.3.5 -->
      <g transform="translate(79.446875 108.40661) scale(0.1 -0.1)">
       <use xlink:href="#DejaVuSans-32"/>
       <use xlink:href="#DejaVuSans-2e" x="63.623047"/>
       <use xlink:href="#DejaVuSans-41" x="95.410156"/>
       <use xlink:href="#DejaVuSans-2e" x="162.068359"/>
       <use xlink:href="#DejaVuSans-31" x="193.855469"/>
       <use xlink:href="#DejaVuSans-31" x="257.478516"/>
       <use xlink:href="#DejaVuSans-39" x="321.101562"/>
       <use xlink:href="#DejaVuSans-2e" x="384.724609"/>
       <use xlink:href="#DejaVuSans-33" x="416.511719"/>
       <use xlink:href="#DejaVuSans-2e" x="480.134766"/>
       <use xlink:href="#DejaVuSans-35" x="511.921875"/>
      </g>
     </g>
    </g>
    <g id="ytick_17">
     <g id="line2d_22">
      <g>
       <use xlink:href="#m76f409f8ac" x="144" y="90.226957" style="stroke: #000000; stroke-width: 0.8"/>
      </g>
     </g>
     <g id="text_23">
      <!-- 2.A.119.3.6 -->
      <g transform="translate(79.446875 94.026175) scale(0.1 -0.1)">
       <use xlink:href="#DejaVuSans-32"/>
       <use xlink:href="#DejaVuSans-2e" x="63.623047"/>
       <use xlink:href="#DejaVuSans-41" x="95.410156"/>
       <use xlink:href="#DejaVuSans-2e" x="162.068359"/>
       <use xlink:href="#DejaVuSans-31" x="193.855469"/>
       <use xlink:href="#DejaVuSans-31" x="257.478516"/>
       <use xlink:href="#DejaVuSans-39" x="321.101562"/>
       <use xlink:href="#DejaVuSans-2e" x="384.724609"/>
       <use xlink:href="#DejaVuSans-33" x="416.511719"/>
       <use xlink:href="#DejaVuSans-2e" x="480.134766"/>
       <use xlink:href="#DejaVuSans-36" x="511.921875"/>
      </g>
     </g>
    </g>
    <g id="ytick_18">
     <g id="line2d_23">
      <g>
       <use xlink:href="#m76f409f8ac" x="144" y="75.846522" style="stroke: #000000; stroke-width: 0.8"/>
      </g>
     </g>
     <g id="text_24">
      <!-- 2.A.119.3.7 -->
      <g transform="translate(79.446875 79.64574) scale(0.1 -0.1)">
       <defs>
        <path id="DejaVuSans-37" d="M 525 4666 
L 3525 4666 
L 3525 4397 
L 1831 0 
L 1172 0 
L 2766 4134 
L 525 4134 
L 525 4666 
z
" transform="scale(0.015625)"/>
       </defs>
       <use xlink:href="#DejaVuSans-32"/>
       <use xlink:href="#DejaVuSans-2e" x="63.623047"/>
       <use xlink:href="#DejaVuSans-41" x="95.410156"/>
       <use xlink:href="#DejaVuSans-2e" x="162.068359"/>
       <use xlink:href="#DejaVuSans-31" x="193.855469"/>
       <use xlink:href="#DejaVuSans-31" x="257.478516"/>
       <use xlink:href="#DejaVuSans-39" x="321.101562"/>
       <use xlink:href="#DejaVuSans-2e" x="384.724609"/>
       <use xlink:href="#DejaVuSans-33" x="416.511719"/>
       <use xlink:href="#DejaVuSans-2e" x="480.134766"/>
       <use xlink:href="#DejaVuSans-37" x="511.921875"/>
      </g>
     </g>
    </g>
    <g id="ytick_19">
     <g id="line2d_24">
      <g>
       <use xlink:href="#m76f409f8ac" x="144" y="61.466087" style="stroke: #000000; stroke-width: 0.8"/>
      </g>
     </g>
     <g id="text_25">
      <!-- 2.A.119.3.8 -->
      <g transform="translate(79.446875 65.265306) scale(0.1 -0.1)">
       <defs>
        <path id="DejaVuSans-38" d="M 2034 2216 
Q 1584 2216 1326 1975 
Q 1069 1734 1069 1313 
Q 1069 891 1326 650 
Q 1584 409 2034 409 
Q 2484 409 2743 651 
Q 3003 894 3003 1313 
Q 3003 1734 2745 1975 
Q 2488 2216 2034 2216 
z
M 1403 2484 
Q 997 2584 770 2862 
Q 544 3141 544 3541 
Q 544 4100 942 4425 
Q 1341 4750 2034 4750 
Q 2731 4750 3128 4425 
Q 3525 4100 3525 3541 
Q 3525 3141 3298 2862 
Q 3072 2584 2669 2484 
Q 3125 2378 3379 2068 
Q 3634 1759 3634 1313 
Q 3634 634 3220 271 
Q 2806 -91 2034 -91 
Q 1263 -91 848 271 
Q 434 634 434 1313 
Q 434 1759 690 2068 
Q 947 2378 1403 2484 
z
M 1172 3481 
Q 1172 3119 1398 2916 
Q 1625 2713 2034 2713 
Q 2441 2713 2670 2916 
Q 2900 3119 2900 3481 
Q 2900 3844 2670 4047 
Q 2441 4250 2034 4250 
Q 1625 4250 1398 4047 
Q 1172 3844 1172 3481 
z
" transform="scale(0.015625)"/>
       </defs>
       <use xlink:href="#DejaVuSans-32"/>
       <use xlink:href="#DejaVuSans-2e" x="63.623047"/>
       <use xlink:href="#DejaVuSans-41" x="95.410156"/>
       <use xlink:href="#DejaVuSans-2e" x="162.068359"/>
       <use xlink:href="#DejaVuSans-31" x="193.855469"/>
       <use xlink:href="#DejaVuSans-31" x="257.478516"/>
       <use xlink:href="#DejaVuSans-39" x="321.101562"/>
       <use xlink:href="#DejaVuSans-2e" x="384.724609"/>
       <use xlink:href="#DejaVuSans-33" x="416.511719"/>
       <use xlink:href="#DejaVuSans-2e" x="480.134766"/>
       <use xlink:href="#DejaVuSans-38" x="511.921875"/>
      </g>
     </g>
    </g>
   </g>
   <g id="patch_79">
    <path d="M 144 336.42 
L 144 45.36 
" style="fill: none; stroke: #000000; stroke-width: 0.8; stroke-linejoin: miter; stroke-linecap: square"/>
   </g>
   <g id="patch_80">
    <path d="M 1036.8 336.42 
L 1036.8 45.36 
" style="fill: none; stroke: #000000; stroke-width: 0.8; stroke-linejoin: miter; stroke-linecap: square"/>
   </g>
   <g id="patch_81">
    <path d="M 144 336.42 
L 1036.8 336.42 
" style="fill: none; stroke: #000000; stroke-width: 0.8; stroke-linejoin: miter; stroke-linecap: square"/>
   </g>
   <g id="patch_82">
    <path d="M 144 45.36 
L 1036.8 45.36 
" style="fill: none; stroke: #000000; stroke-width: 0.8; stroke-linejoin: miter; stroke-linecap: square"/>
   </g>
   <g id="text_26">
    <!-- 2.A.119 Summary -->
    <g transform="translate(536.415 39.36) scale(0.12 -0.12)">
     <defs>
      <path id="DejaVuSans-20" transform="scale(0.015625)"/>
      <path id="DejaVuSans-53" d="M 3425 4513 
L 3425 3897 
Q 3066 4069 2747 4153 
Q 2428 4238 2131 4238 
Q 1616 4238 1336 4038 
Q 1056 3838 1056 3469 
Q 1056 3159 1242 3001 
Q 1428 2844 1947 2747 
L 2328 2669 
Q 3034 2534 3370 2195 
Q 3706 1856 3706 1288 
Q 3706 609 3251 259 
Q 2797 -91 1919 -91 
Q 1588 -91 1214 -16 
Q 841 59 441 206 
L 441 856 
Q 825 641 1194 531 
Q 1563 422 1919 422 
Q 2459 422 2753 634 
Q 3047 847 3047 1241 
Q 3047 1584 2836 1778 
Q 2625 1972 2144 2069 
L 1759 2144 
Q 1053 2284 737 2584 
Q 422 2884 422 3419 
Q 422 4038 858 4394 
Q 1294 4750 2059 4750 
Q 2388 4750 2728 4690 
Q 3069 4631 3425 4513 
z
" transform="scale(0.015625)"/>
      <path id="DejaVuSans-6d" d="M 3328 2828 
Q 3544 3216 3844 3400 
Q 4144 3584 4550 3584 
Q 5097 3584 5394 3201 
Q 5691 2819 5691 2113 
L 5691 0 
L 5113 0 
L 5113 2094 
Q 5113 2597 4934 2840 
Q 4756 3084 4391 3084 
Q 3944 3084 3684 2787 
Q 3425 2491 3425 1978 
L 3425 0 
L 2847 0 
L 2847 2094 
Q 2847 2600 2669 2842 
Q 2491 3084 2119 3084 
Q 1678 3084 1418 2786 
Q 1159 2488 1159 1978 
L 1159 0 
L 581 0 
L 581 3500 
L 1159 3500 
L 1159 2956 
Q 1356 3278 1631 3431 
Q 1906 3584 2284 3584 
Q 2666 3584 2933 3390 
Q 3200 3197 3328 2828 
z
" transform="scale(0.015625)"/>
      <path id="DejaVuSans-72" d="M 2631 2963 
Q 2534 3019 2420 3045 
Q 2306 3072 2169 3072 
Q 1681 3072 1420 2755 
Q 1159 2438 1159 1844 
L 1159 0 
L 581 0 
L 581 3500 
L 1159 3500 
L 1159 2956 
Q 1341 3275 1631 3429 
Q 1922 3584 2338 3584 
Q 2397 3584 2469 3576 
Q 2541 3569 2628 3553 
L 2631 2963 
z
" transform="scale(0.015625)"/>
      <path id="DejaVuSans-79" d="M 2059 -325 
Q 1816 -950 1584 -1140 
Q 1353 -1331 966 -1331 
L 506 -1331 
L 506 -850 
L 844 -850 
Q 1081 -850 1212 -737 
Q 1344 -625 1503 -206 
L 1606 56 
L 191 3500 
L 800 3500 
L 1894 763 
L 2988 3500 
L 3597 3500 
L 2059 -325 
z
" transform="scale(0.015625)"/>
     </defs>
     <use xlink:href="#DejaVuSans-32"/>
     <use xlink:href="#DejaVuSans-2e" x="63.623047"/>
     <use xlink:href="#DejaVuSans-41" x="95.410156"/>
     <use xlink:href="#DejaVuSans-2e" x="162.068359"/>
     <use xlink:href="#DejaVuSans-31" x="193.855469"/>
     <use xlink:href="#DejaVuSans-31" x="257.478516"/>
     <use xlink:href="#DejaVuSans-39" x="321.101562"/>
     <use xlink:href="#DejaVuSans-20" x="384.724609"/>
     <use xlink:href="#DejaVuSans-53" x="416.511719"/>
     <use xlink:href="#DejaVuSans-75" x="479.988281"/>
     <use xlink:href="#DejaVuSans-6d" x="543.367188"/>
     <use xlink:href="#DejaVuSans-6d" x="640.779297"/>
     <use xlink:href="#DejaVuSans-61" x="738.191406"/>
     <use xlink:href="#DejaVuSans-72" x="799.470703"/>
     <use xlink:href="#DejaVuSans-79" x="840.583984"/>
    </g>
   </g>
  </g>
 </g>
 <defs>
  <clipPath id="p203f7265bc">
   <rect x="144" y="45.36" width="892.8" height="291.06"/>
  </clipPath>
 </defs>
</svg>
