<?xml version="1.0" encoding="utf-8" standalone="no"?>
<!DOCTYPE svg PUBLIC "-//W3C//DTD SVG 1.1//EN"
  "http://www.w3.org/Graphics/SVG/1.1/DTD/svg11.dtd">
<svg xmlns:xlink="http://www.w3.org/1999/xlink" width="1152pt" height="388.8pt" viewBox="0 0 1152 388.8" xmlns="http://www.w3.org/2000/svg" version="1.1">
 <metadata>
  <rdf:RDF xmlns:dc="http://purl.org/dc/elements/1.1/" xmlns:cc="http://creativecommons.org/ns#" xmlns:rdf="http://www.w3.org/1999/02/22-rdf-syntax-ns#">
   <cc:Work>
    <dc:type rdf:resource="http://purl.org/dc/dcmitype/StillImage"/>
    <dc:date>2024-10-25T07:53:36.985981</dc:date>
    <dc:format>image/svg+xml</dc:format>
    <dc:creator>
     <cc:Agent>
      <dc:title>Matplotlib v3.9.2, https://matplotlib.org/</dc:title>
     </cc:Agent>
    </dc:creator>
   </cc:Work>
  </rdf:RDF>
 </metadata>
 <defs>
  <style type="text/css">*{stroke-linejoin: round; stroke-linecap: butt}</style>
 </defs>
 <g id="figure_1">
  <g id="patch_1">
   <path d="M 0 388.8 
L 1152 388.8 
L 1152 0 
L 0 0 
z
" style="fill: #ffffff"/>
  </g>
  <g id="axes_1">
   <g id="patch_2">
    <path d="M 144 346.032 
L 1036.8 346.032 
L 1036.8 46.656 
L 144 46.656 
z
" style="fill: #ffffff"/>
   </g>
   <g id="patch_3">
    <path d="M 144 329.154545 
L 251.36554 329.154545 
L 251.36554 328.624364 
L 144 328.624364 
z
" clip-path="url(#pdb761b99b0)" style="fill: #0000ff"/>
   </g>
   <g id="patch_4">
    <path d="M 252.599627 332.424 
L 754.872901 332.424 
L 754.872901 325.354909 
L 252.599627 325.354909 
z
" clip-path="url(#pdb761b99b0)" style="fill: #0000ff"/>
   </g>
   <g id="patch_5">
    <path d="M 276.047273 332.424 
L 868.408874 332.424 
L 868.408874 325.354909 
L 276.047273 325.354909 
z
" clip-path="url(#pdb761b99b0)" style="fill: #0000ff"/>
   </g>
   <g id="patch_6">
    <path d="M 282.217707 332.424 
L 394.519594 332.424 
L 394.519594 325.354909 
L 282.217707 325.354909 
z
" clip-path="url(#pdb761b99b0)" style="fill: #0000ff"/>
   </g>
   <g id="patch_7">
    <path d="M 321.70848 332.424 
L 435.244454 332.424 
L 435.244454 325.354909 
L 321.70848 325.354909 
z
" clip-path="url(#pdb761b99b0)" style="fill: #0000ff"/>
   </g>
   <g id="patch_8">
    <path d="M 637.634667 332.424 
L 746.234294 332.424 
L 746.234294 325.354909 
L 637.634667 325.354909 
z
" clip-path="url(#pdb761b99b0)" style="fill: #0000ff"/>
   </g>
   <g id="patch_9">
    <path d="M 640.102841 332.424 
L 746.234294 332.424 
L 746.234294 325.354909 
L 640.102841 325.354909 
z
" clip-path="url(#pdb761b99b0)" style="fill: #0000ff"/>
   </g>
   <g id="patch_10">
    <path d="M 640.102841 332.424 
L 707.977607 332.424 
L 707.977607 325.354909 
L 640.102841 325.354909 
z
" clip-path="url(#pdb761b99b0)" style="fill: #0000ff"/>
   </g>
   <g id="patch_11">
    <path d="M 869.642961 329.154545 
L 928.879121 329.154545 
L 928.879121 328.624364 
L 869.642961 328.624364 
z
" clip-path="url(#pdb761b99b0)" style="fill: #0000ff"/>
   </g>
   <g id="patch_12">
    <path d="M 144 311.481818 
L 160.043127 311.481818 
L 160.043127 310.951636 
L 144 310.951636 
z
" clip-path="url(#pdb761b99b0)" style="fill: #0000ff"/>
   </g>
   <g id="patch_13">
    <path d="M 161.277213 314.751273 
L 614.187021 314.751273 
L 614.187021 307.682182 
L 161.277213 307.682182 
z
" clip-path="url(#pdb761b99b0)" style="fill: #0000ff"/>
   </g>
   <g id="patch_14">
    <path d="M 185.958947 314.751273 
L 612.952934 314.751273 
L 612.952934 307.682182 
L 185.958947 307.682182 
z
" clip-path="url(#pdb761b99b0)" style="fill: #0000ff"/>
   </g>
   <g id="patch_15">
    <path d="M 188.42712 314.751273 
L 287.154053 314.751273 
L 287.154053 307.682182 
L 188.42712 307.682182 
z
" clip-path="url(#pdb761b99b0)" style="fill: #0000ff"/>
   </g>
   <g id="patch_16">
    <path d="M 206.93842 314.751273 
L 562.35538 314.751273 
L 562.35538 307.682182 
L 206.93842 307.682182 
z
" clip-path="url(#pdb761b99b0)" style="fill: #0000ff"/>
   </g>
   <g id="patch_17">
    <path d="M 208.172507 314.751273 
L 566.05764 314.751273 
L 566.05764 307.682182 
L 208.172507 307.682182 
z
" clip-path="url(#pdb761b99b0)" style="fill: #0000ff"/>
   </g>
   <g id="patch_18">
    <path d="M 415.499067 314.751273 
L 545.078167 314.751273 
L 545.078167 307.682182 
L 415.499067 307.682182 
z
" clip-path="url(#pdb761b99b0)" style="fill: #0000ff"/>
   </g>
   <g id="patch_19">
    <path d="M 144 293.809091 
L 239.024673 293.809091 
L 239.024673 293.278909 
L 144 293.278909 
z
" clip-path="url(#pdb761b99b0)" style="fill: #0000ff"/>
   </g>
   <g id="patch_20">
    <path d="M 240.25876 297.078545 
L 737.595687 297.078545 
L 737.595687 290.009455 
L 240.25876 290.009455 
z
" clip-path="url(#pdb761b99b0)" style="fill: #0000ff"/>
   </g>
   <g id="patch_21">
    <path d="M 241.492847 297.078545 
L 837.556707 297.078545 
L 837.556707 290.009455 
L 241.492847 290.009455 
z
" clip-path="url(#pdb761b99b0)" style="fill: #0000ff"/>
   </g>
   <g id="patch_22">
    <path d="M 247.66328 297.078545 
L 359.965167 297.078545 
L 359.965167 290.009455 
L 247.66328 290.009455 
z
" clip-path="url(#pdb761b99b0)" style="fill: #0000ff"/>
   </g>
   <g id="patch_23">
    <path d="M 262.47232 297.078545 
L 358.73108 297.078545 
L 358.73108 290.009455 
L 262.47232 290.009455 
z
" clip-path="url(#pdb761b99b0)" style="fill: #0000ff"/>
   </g>
   <g id="patch_24">
    <path d="M 606.782501 297.078545 
L 712.913954 297.078545 
L 712.913954 290.009455 
L 606.782501 290.009455 
z
" clip-path="url(#pdb761b99b0)" style="fill: #0000ff"/>
   </g>
   <g id="patch_25">
    <path d="M 606.782501 297.078545 
L 664.784574 297.078545 
L 664.784574 290.009455 
L 606.782501 290.009455 
z
" clip-path="url(#pdb761b99b0)" style="fill: #0000ff"/>
   </g>
   <g id="patch_26">
    <path d="M 838.790794 293.809091 
L 881.983827 293.809091 
L 881.983827 293.278909 
L 838.790794 293.278909 
z
" clip-path="url(#pdb761b99b0)" style="fill: #0000ff"/>
   </g>
   <g id="patch_27">
    <path d="M 144 276.136364 
L 251.36554 276.136364 
L 251.36554 275.606182 
L 144 275.606182 
z
" clip-path="url(#pdb761b99b0)" style="fill: #0000ff"/>
   </g>
   <g id="patch_28">
    <path d="M 252.599627 279.405818 
L 811.640887 279.405818 
L 811.640887 272.336727 
L 252.599627 272.336727 
z
" clip-path="url(#pdb761b99b0)" style="fill: #0000ff"/>
   </g>
   <g id="patch_29">
    <path d="M 256.301887 279.405818 
L 430.308107 279.405818 
L 430.308107 272.336727 
L 256.301887 272.336727 
z
" clip-path="url(#pdb761b99b0)" style="fill: #0000ff"/>
   </g>
   <g id="patch_30">
    <path d="M 272.345013 279.405818 
L 888.154261 279.405818 
L 888.154261 272.336727 
L 272.345013 272.336727 
z
" clip-path="url(#pdb761b99b0)" style="fill: #0000ff"/>
   </g>
   <g id="patch_31">
    <path d="M 278.515447 279.405818 
L 390.817334 279.405818 
L 390.817334 272.336727 
L 278.515447 272.336727 
z
" clip-path="url(#pdb761b99b0)" style="fill: #0000ff"/>
   </g>
   <g id="patch_32">
    <path d="M 610.484761 279.405818 
L 812.874974 279.405818 
L 812.874974 272.336727 
L 610.484761 272.336727 
z
" clip-path="url(#pdb761b99b0)" style="fill: #0000ff"/>
   </g>
   <g id="patch_33">
    <path d="M 642.571014 279.405818 
L 765.979681 279.405818 
L 765.979681 272.336727 
L 642.571014 272.336727 
z
" clip-path="url(#pdb761b99b0)" style="fill: #0000ff"/>
   </g>
   <g id="patch_34">
    <path d="M 649.975534 279.405818 
L 727.722994 279.405818 
L 727.722994 272.336727 
L 649.975534 272.336727 
z
" clip-path="url(#pdb761b99b0)" style="fill: #0000ff"/>
   </g>
   <g id="patch_35">
    <path d="M 889.388348 276.136364 
L 994.285714 276.136364 
L 994.285714 275.606182 
L 889.388348 275.606182 
z
" clip-path="url(#pdb761b99b0)" style="fill: #0000ff"/>
   </g>
   <g id="patch_36">
    <path d="M 144 258.463636 
L 256.301887 258.463636 
L 256.301887 257.933455 
L 144 257.933455 
z
" clip-path="url(#pdb761b99b0)" style="fill: #0000ff"/>
   </g>
   <g id="patch_37">
    <path d="M 257.535973 261.733091 
L 748.702467 261.733091 
L 748.702467 254.664 
L 257.535973 254.664 
z
" clip-path="url(#pdb761b99b0)" style="fill: #0000ff"/>
   </g>
   <g id="patch_38">
    <path d="M 276.047273 261.733091 
L 870.877047 261.733091 
L 870.877047 254.664 
L 276.047273 254.664 
z
" clip-path="url(#pdb761b99b0)" style="fill: #0000ff"/>
   </g>
   <g id="patch_39">
    <path d="M 278.515447 261.733091 
L 435.244454 261.733091 
L 435.244454 254.664 
L 278.515447 254.664 
z
" clip-path="url(#pdb761b99b0)" style="fill: #0000ff"/>
   </g>
   <g id="patch_40">
    <path d="M 282.217707 261.733091 
L 394.519594 261.733091 
L 394.519594 254.664 
L 282.217707 254.664 
z
" clip-path="url(#pdb761b99b0)" style="fill: #0000ff"/>
   </g>
   <g id="patch_41">
    <path d="M 585.803027 261.733091 
L 747.468381 261.733091 
L 747.468381 254.664 
L 585.803027 254.664 
z
" clip-path="url(#pdb761b99b0)" style="fill: #0000ff"/>
   </g>
   <g id="patch_42">
    <path d="M 640.102841 261.733091 
L 747.468381 261.733091 
L 747.468381 254.664 
L 640.102841 254.664 
z
" clip-path="url(#pdb761b99b0)" style="fill: #0000ff"/>
   </g>
   <g id="patch_43">
    <path d="M 642.571014 261.733091 
L 710.445781 261.733091 
L 710.445781 254.664 
L 642.571014 254.664 
z
" clip-path="url(#pdb761b99b0)" style="fill: #0000ff"/>
   </g>
   <g id="patch_44">
    <path d="M 872.111134 258.463636 
L 931.347294 258.463636 
L 931.347294 257.933455 
L 872.111134 257.933455 
z
" clip-path="url(#pdb761b99b0)" style="fill: #0000ff"/>
   </g>
   <g id="patch_45">
    <path d="M 144 240.790909 
L 251.36554 240.790909 
L 251.36554 240.260727 
L 144 240.260727 
z
" clip-path="url(#pdb761b99b0)" style="fill: #0000ff"/>
   </g>
   <g id="patch_46">
    <path d="M 252.599627 244.060364 
L 811.640887 244.060364 
L 811.640887 236.991273 
L 252.599627 236.991273 
z
" clip-path="url(#pdb761b99b0)" style="fill: #0000ff"/>
   </g>
   <g id="patch_47">
    <path d="M 257.535973 244.060364 
L 873.345221 244.060364 
L 873.345221 236.991273 
L 257.535973 236.991273 
z
" clip-path="url(#pdb761b99b0)" style="fill: #0000ff"/>
   </g>
   <g id="patch_48">
    <path d="M 257.535973 244.060364 
L 432.77628 244.060364 
L 432.77628 236.991273 
L 257.535973 236.991273 
z
" clip-path="url(#pdb761b99b0)" style="fill: #0000ff"/>
   </g>
   <g id="patch_49">
    <path d="M 263.706407 244.060364 
L 376.008294 244.060364 
L 376.008294 236.991273 
L 263.706407 236.991273 
z
" clip-path="url(#pdb761b99b0)" style="fill: #0000ff"/>
   </g>
   <g id="patch_50">
    <path d="M 642.571014 244.060364 
L 749.936554 244.060364 
L 749.936554 236.991273 
L 642.571014 236.991273 
z
" clip-path="url(#pdb761b99b0)" style="fill: #0000ff"/>
   </g>
   <g id="patch_51">
    <path d="M 642.571014 244.060364 
L 751.170641 244.060364 
L 751.170641 236.991273 
L 642.571014 236.991273 
z
" clip-path="url(#pdb761b99b0)" style="fill: #0000ff"/>
   </g>
   <g id="patch_52">
    <path d="M 642.571014 244.060364 
L 712.913954 244.060364 
L 712.913954 236.991273 
L 642.571014 236.991273 
z
" clip-path="url(#pdb761b99b0)" style="fill: #0000ff"/>
   </g>
   <g id="patch_53">
    <path d="M 874.579307 240.790909 
L 970.838068 240.790909 
L 970.838068 240.260727 
L 874.579307 240.260727 
z
" clip-path="url(#pdb761b99b0)" style="fill: #0000ff"/>
   </g>
   <g id="patch_54">
    <path d="M 144 223.118182 
L 225.44972 223.118182 
L 225.44972 222.588 
L 144 222.588 
z
" clip-path="url(#pdb761b99b0)" style="fill: #0000ff"/>
   </g>
   <g id="patch_55">
    <path d="M 226.683807 226.387636 
L 826.449927 226.387636 
L 826.449927 219.318545 
L 226.683807 219.318545 
z
" clip-path="url(#pdb761b99b0)" style="fill: #0000ff"/>
   </g>
   <g id="patch_56">
    <path d="M 229.15198 226.387636 
L 340.21978 226.387636 
L 340.21978 219.318545 
L 229.15198 219.318545 
z
" clip-path="url(#pdb761b99b0)" style="fill: #0000ff"/>
   </g>
   <g id="patch_57">
    <path d="M 595.675721 226.387636 
L 779.554634 226.387636 
L 779.554634 219.318545 
L 595.675721 219.318545 
z
" clip-path="url(#pdb761b99b0)" style="fill: #0000ff"/>
   </g>
   <g id="patch_58">
    <path d="M 595.675721 226.387636 
L 749.936554 226.387636 
L 749.936554 219.318545 
L 595.675721 219.318545 
z
" clip-path="url(#pdb761b99b0)" style="fill: #0000ff"/>
   </g>
   <g id="patch_59">
    <path d="M 595.675721 226.387636 
L 720.318474 226.387636 
L 720.318474 219.318545 
L 595.675721 219.318545 
z
" clip-path="url(#pdb761b99b0)" style="fill: #0000ff"/>
   </g>
   <g id="patch_60">
    <path d="M 595.675721 226.387636 
L 666.018661 226.387636 
L 666.018661 219.318545 
L 595.675721 219.318545 
z
" clip-path="url(#pdb761b99b0)" style="fill: #0000ff"/>
   </g>
   <g id="patch_61">
    <path d="M 827.684014 223.118182 
L 909.133734 223.118182 
L 909.133734 222.588 
L 827.684014 222.588 
z
" clip-path="url(#pdb761b99b0)" style="fill: #0000ff"/>
   </g>
   <g id="patch_62">
    <path d="M 144 205.445455 
L 144 205.445455 
L 144 204.915273 
L 144 204.915273 
z
" clip-path="url(#pdb761b99b0)" style="fill: #0000ff"/>
   </g>
   <g id="patch_63">
    <path d="M 145.234087 208.714909 
L 568.525814 208.714909 
L 568.525814 201.645818 
L 145.234087 201.645818 
z
" clip-path="url(#pdb761b99b0)" style="fill: #0000ff"/>
   </g>
   <g id="patch_64">
    <path d="M 145.234087 208.714909 
L 564.823554 208.714909 
L 564.823554 201.645818 
L 145.234087 201.645818 
z
" clip-path="url(#pdb761b99b0)" style="fill: #0000ff"/>
   </g>
   <g id="patch_65">
    <path d="M 145.234087 208.714909 
L 517.92826 208.714909 
L 517.92826 201.645818 
L 145.234087 201.645818 
z
" clip-path="url(#pdb761b99b0)" style="fill: #0000ff"/>
   </g>
   <g id="patch_66">
    <path d="M 151.40452 208.714909 
L 260.004147 208.714909 
L 260.004147 201.645818 
L 151.40452 201.645818 
z
" clip-path="url(#pdb761b99b0)" style="fill: #0000ff"/>
   </g>
   <g id="patch_67">
    <path d="M 166.21356 208.714909 
L 517.92826 208.714909 
L 517.92826 201.645818 
L 166.21356 201.645818 
z
" clip-path="url(#pdb761b99b0)" style="fill: #0000ff"/>
   </g>
   <g id="patch_68">
    <path d="M 396.987767 208.714909 
L 509.289654 208.714909 
L 509.289654 201.645818 
L 396.987767 201.645818 
z
" clip-path="url(#pdb761b99b0)" style="fill: #0000ff"/>
   </g>
   <g id="patch_69">
    <path d="M 569.7599 205.445455 
L 574.696247 205.445455 
L 574.696247 204.915273 
L 569.7599 204.915273 
z
" clip-path="url(#pdb761b99b0)" style="fill: #0000ff"/>
   </g>
   <g id="patch_70">
    <path d="M 144 187.772727 
L 172.383993 187.772727 
L 172.383993 187.242545 
L 144 187.242545 
z
" clip-path="url(#pdb761b99b0)" style="fill: #0000ff"/>
   </g>
   <g id="patch_71">
    <path d="M 173.61808 191.042182 
L 566.05764 191.042182 
L 566.05764 183.973091 
L 173.61808 183.973091 
z
" clip-path="url(#pdb761b99b0)" style="fill: #0000ff"/>
   </g>
   <g id="patch_72">
    <path d="M 567.291727 187.772727 
L 599.377981 187.772727 
L 599.377981 187.242545 
L 567.291727 187.242545 
z
" clip-path="url(#pdb761b99b0)" style="fill: #0000ff"/>
   </g>
   <g id="patch_73">
    <path d="M 144 173.369455 
L 801.768194 173.369455 
L 801.768194 166.300364 
L 144 166.300364 
z
" clip-path="url(#pdb761b99b0)" style="fill: #0000ff"/>
   </g>
   <g id="patch_74">
    <path d="M 144 173.369455 
L 522.864607 173.369455 
L 522.864607 166.300364 
L 144 166.300364 
z
" clip-path="url(#pdb761b99b0)" style="fill: #0000ff"/>
   </g>
   <g id="patch_75">
    <path d="M 156.340867 173.369455 
L 512.991914 173.369455 
L 512.991914 166.300364 
L 156.340867 166.300364 
z
" clip-path="url(#pdb761b99b0)" style="fill: #0000ff"/>
   </g>
   <g id="patch_76">
    <path d="M 158.80904 173.369455 
L 306.89944 173.369455 
L 306.89944 166.300364 
L 158.80904 166.300364 
z
" clip-path="url(#pdb761b99b0)" style="fill: #0000ff"/>
   </g>
   <g id="patch_77">
    <path d="M 225.44972 173.369455 
L 784.490981 173.369455 
L 784.490981 166.300364 
L 225.44972 166.300364 
z
" clip-path="url(#pdb761b99b0)" style="fill: #0000ff"/>
   </g>
   <g id="patch_78">
    <path d="M 343.92204 173.369455 
L 421.6695 173.369455 
L 421.6695 166.300364 
L 343.92204 166.300364 
z
" clip-path="url(#pdb761b99b0)" style="fill: #0000ff"/>
   </g>
   <g id="patch_79">
    <path d="M 803.002281 170.1 
L 812.874974 170.1 
L 812.874974 169.569818 
L 803.002281 169.569818 
z
" clip-path="url(#pdb761b99b0)" style="fill: #0000ff"/>
   </g>
   <g id="patch_80">
    <path d="M 144 152.427273 
L 147.70226 152.427273 
L 147.70226 151.897091 
L 144 151.897091 
z
" clip-path="url(#pdb761b99b0)" style="fill: #0000ff"/>
   </g>
   <g id="patch_81">
    <path d="M 148.936347 155.696727 
L 807.938627 155.696727 
L 807.938627 148.627636 
L 148.936347 148.627636 
z
" clip-path="url(#pdb761b99b0)" style="fill: #0000ff"/>
   </g>
   <g id="patch_82">
    <path d="M 148.936347 155.696727 
L 532.7373 155.696727 
L 532.7373 148.627636 
L 148.936347 148.627636 
z
" clip-path="url(#pdb761b99b0)" style="fill: #0000ff"/>
   </g>
   <g id="patch_83">
    <path d="M 158.80904 155.696727 
L 525.33278 155.696727 
L 525.33278 148.627636 
L 158.80904 148.627636 
z
" clip-path="url(#pdb761b99b0)" style="fill: #0000ff"/>
   </g>
   <g id="patch_84">
    <path d="M 161.277213 155.696727 
L 545.078167 155.696727 
L 545.078167 148.627636 
L 161.277213 148.627636 
z
" clip-path="url(#pdb761b99b0)" style="fill: #0000ff"/>
   </g>
   <g id="patch_85">
    <path d="M 161.277213 155.696727 
L 432.77628 155.696727 
L 432.77628 148.627636 
L 161.277213 148.627636 
z
" clip-path="url(#pdb761b99b0)" style="fill: #0000ff"/>
   </g>
   <g id="patch_86">
    <path d="M 558.65312 155.696727 
L 805.470454 155.696727 
L 805.470454 148.627636 
L 558.65312 148.627636 
z
" clip-path="url(#pdb761b99b0)" style="fill: #0000ff"/>
   </g>
   <g id="patch_87">
    <path d="M 568.525814 155.696727 
L 804.236367 155.696727 
L 804.236367 148.627636 
L 568.525814 148.627636 
z
" clip-path="url(#pdb761b99b0)" style="fill: #0000ff"/>
   </g>
   <g id="patch_88">
    <path d="M 573.46216 155.696727 
L 679.593614 155.696727 
L 679.593614 148.627636 
L 573.46216 148.627636 
z
" clip-path="url(#pdb761b99b0)" style="fill: #0000ff"/>
   </g>
   <g id="patch_89">
    <path d="M 704.275347 155.696727 
L 804.236367 155.696727 
L 804.236367 148.627636 
L 704.275347 148.627636 
z
" clip-path="url(#pdb761b99b0)" style="fill: #0000ff"/>
   </g>
   <g id="patch_90">
    <path d="M 144 134.754545 
L 145.234087 134.754545 
L 145.234087 134.224364 
L 144 134.224364 
z
" clip-path="url(#pdb761b99b0)" style="fill: #0000ff"/>
   </g>
   <g id="patch_91">
    <path d="M 146.468173 138.024 
L 495.7147 138.024 
L 495.7147 130.954909 
L 146.468173 130.954909 
z
" clip-path="url(#pdb761b99b0)" style="fill: #0000ff"/>
   </g>
   <g id="patch_92">
    <path d="M 155.10678 138.024 
L 494.480614 138.024 
L 494.480614 130.954909 
L 155.10678 130.954909 
z
" clip-path="url(#pdb761b99b0)" style="fill: #0000ff"/>
   </g>
   <g id="patch_93">
    <path d="M 194.597553 138.024 
L 422.903587 138.024 
L 422.903587 130.954909 
L 194.597553 130.954909 
z
" clip-path="url(#pdb761b99b0)" style="fill: #0000ff"/>
   </g>
   <g id="patch_94">
    <path d="M 197.065727 138.024 
L 495.7147 138.024 
L 495.7147 130.954909 
L 197.065727 130.954909 
z
" clip-path="url(#pdb761b99b0)" style="fill: #0000ff"/>
   </g>
   <g id="patch_95">
    <path d="M 496.948787 134.754545 
L 515.460087 134.754545 
L 515.460087 134.224364 
L 496.948787 134.224364 
z
" clip-path="url(#pdb761b99b0)" style="fill: #0000ff"/>
   </g>
   <g id="patch_96">
    <path d="M 144 117.081818 
L 174.852167 117.081818 
L 174.852167 116.551636 
L 144 116.551636 
z
" clip-path="url(#pdb761b99b0)" style="fill: #0000ff"/>
   </g>
   <g id="patch_97">
    <path d="M 176.086253 120.351273 
L 610.484761 120.351273 
L 610.484761 113.282182 
L 176.086253 113.282182 
z
" clip-path="url(#pdb761b99b0)" style="fill: #0000ff"/>
   </g>
   <g id="patch_98">
    <path d="M 177.32034 120.351273 
L 556.184947 120.351273 
L 556.184947 113.282182 
L 177.32034 113.282182 
z
" clip-path="url(#pdb761b99b0)" style="fill: #0000ff"/>
   </g>
   <g id="patch_99">
    <path d="M 179.788513 120.351273 
L 551.2486 120.351273 
L 551.2486 113.282182 
L 179.788513 113.282182 
z
" clip-path="url(#pdb761b99b0)" style="fill: #0000ff"/>
   </g>
   <g id="patch_100">
    <path d="M 182.256687 120.351273 
L 578.398507 120.351273 
L 578.398507 113.282182 
L 182.256687 113.282182 
z
" clip-path="url(#pdb761b99b0)" style="fill: #0000ff"/>
   </g>
   <g id="patch_101">
    <path d="M 182.256687 120.351273 
L 335.283434 120.351273 
L 335.283434 113.282182 
L 182.256687 113.282182 
z
" clip-path="url(#pdb761b99b0)" style="fill: #0000ff"/>
   </g>
   <g id="patch_102">
    <path d="M 611.718847 117.081818 
L 902.963301 117.081818 
L 902.963301 116.551636 
L 611.718847 116.551636 
z
" clip-path="url(#pdb761b99b0)" style="fill: #0000ff"/>
   </g>
   <g id="patch_103">
    <path d="M 144 102.678545 
L 520.396434 102.678545 
L 520.396434 95.609455 
L 144 95.609455 
z
" clip-path="url(#pdb761b99b0)" style="fill: #0000ff"/>
   </g>
   <g id="patch_104">
    <path d="M 144 102.678545 
L 521.63052 102.678545 
L 521.63052 95.609455 
L 144 95.609455 
z
" clip-path="url(#pdb761b99b0)" style="fill: #0000ff"/>
   </g>
   <g id="patch_105">
    <path d="M 151.40452 102.678545 
L 512.991914 102.678545 
L 512.991914 95.609455 
L 151.40452 95.609455 
z
" clip-path="url(#pdb761b99b0)" style="fill: #0000ff"/>
   </g>
   <g id="patch_106">
    <path d="M 152.638607 102.678545 
L 521.63052 102.678545 
L 521.63052 95.609455 
L 152.638607 95.609455 
z
" clip-path="url(#pdb761b99b0)" style="fill: #0000ff"/>
   </g>
   <g id="patch_107">
    <path d="M 158.80904 102.678545 
L 424.137674 102.678545 
L 424.137674 95.609455 
L 158.80904 95.609455 
z
" clip-path="url(#pdb761b99b0)" style="fill: #0000ff"/>
   </g>
   <g id="patch_108">
    <path d="M 144 81.736364 
L 146.468173 81.736364 
L 146.468173 81.206182 
L 144 81.206182 
z
" clip-path="url(#pdb761b99b0)" style="fill: #0000ff"/>
   </g>
   <g id="patch_109">
    <path d="M 147.70226 85.005818 
L 519.162347 85.005818 
L 519.162347 77.936727 
L 147.70226 77.936727 
z
" clip-path="url(#pdb761b99b0)" style="fill: #0000ff"/>
   </g>
   <g id="patch_110">
    <path d="M 150.170433 85.005818 
L 785.725067 85.005818 
L 785.725067 77.936727 
L 150.170433 77.936727 
z
" clip-path="url(#pdb761b99b0)" style="fill: #0000ff"/>
   </g>
   <g id="patch_111">
    <path d="M 158.80904 85.005818 
L 512.991914 85.005818 
L 512.991914 77.936727 
L 158.80904 77.936727 
z
" clip-path="url(#pdb761b99b0)" style="fill: #0000ff"/>
   </g>
   <g id="patch_112">
    <path d="M 161.277213 85.005818 
L 459.926187 85.005818 
L 459.926187 77.936727 
L 161.277213 77.936727 
z
" clip-path="url(#pdb761b99b0)" style="fill: #0000ff"/>
   </g>
   <g id="patch_113">
    <path d="M 178.554427 85.005818 
L 519.162347 85.005818 
L 519.162347 77.936727 
L 178.554427 77.936727 
z
" clip-path="url(#pdb761b99b0)" style="fill: #0000ff"/>
   </g>
   <g id="patch_114">
    <path d="M 786.959154 81.736364 
L 831.386274 81.736364 
L 831.386274 81.206182 
L 786.959154 81.206182 
z
" clip-path="url(#pdb761b99b0)" style="fill: #0000ff"/>
   </g>
   <g id="patch_115">
    <path d="M 144 64.063636 
L 181.0226 64.063636 
L 181.0226 63.533455 
L 144 63.533455 
z
" clip-path="url(#pdb761b99b0)" style="fill: #0000ff"/>
   </g>
   <g id="patch_116">
    <path d="M 182.256687 67.333091 
L 796.831847 67.333091 
L 796.831847 60.264 
L 182.256687 60.264 
z
" clip-path="url(#pdb761b99b0)" style="fill: #0000ff"/>
   </g>
   <g id="patch_117">
    <path d="M 182.256687 67.333091 
L 314.30396 67.333091 
L 314.30396 60.264 
L 182.256687 60.264 
z
" clip-path="url(#pdb761b99b0)" style="fill: #0000ff"/>
   </g>
   <g id="patch_118">
    <path d="M 184.72486 67.333091 
L 547.54634 67.333091 
L 547.54634 60.264 
L 184.72486 60.264 
z
" clip-path="url(#pdb761b99b0)" style="fill: #0000ff"/>
   </g>
   <g id="patch_119">
    <path d="M 184.72486 67.333091 
L 530.269127 67.333091 
L 530.269127 60.264 
L 184.72486 60.264 
z
" clip-path="url(#pdb761b99b0)" style="fill: #0000ff"/>
   </g>
   <g id="patch_120">
    <path d="M 187.193033 67.333091 
L 516.694174 67.333091 
L 516.694174 60.264 
L 187.193033 60.264 
z
" clip-path="url(#pdb761b99b0)" style="fill: #0000ff"/>
   </g>
   <g id="patch_121">
    <path d="M 327.878914 67.333091 
L 463.628447 67.333091 
L 463.628447 60.264 
L 327.878914 60.264 
z
" clip-path="url(#pdb761b99b0)" style="fill: #0000ff"/>
   </g>
   <g id="patch_122">
    <path d="M 516.694174 67.333091 
L 803.002281 67.333091 
L 803.002281 60.264 
L 516.694174 60.264 
z
" clip-path="url(#pdb761b99b0)" style="fill: #0000ff"/>
   </g>
   <g id="patch_123">
    <path d="M 558.65312 67.333091 
L 801.768194 67.333091 
L 801.768194 60.264 
L 558.65312 60.264 
z
" clip-path="url(#pdb761b99b0)" style="fill: #0000ff"/>
   </g>
   <g id="patch_124">
    <path d="M 569.7599 67.333091 
L 674.657267 67.333091 
L 674.657267 60.264 
L 569.7599 60.264 
z
" clip-path="url(#pdb761b99b0)" style="fill: #0000ff"/>
   </g>
   <g id="patch_125">
    <path d="M 700.573087 67.333091 
L 801.768194 67.333091 
L 801.768194 60.264 
L 700.573087 60.264 
z
" clip-path="url(#pdb761b99b0)" style="fill: #0000ff"/>
   </g>
   <g id="matplotlib.axis_1">
    <g id="xtick_1">
     <g id="line2d_1">
      <defs>
       <path id="mefc12a5a4d" d="M 0 0 
L 0 3.5 
" style="stroke: #000000; stroke-width: 0.8"/>
      </defs>
      <g>
       <use xlink:href="#mefc12a5a4d" x="266.17458" y="346.032" style="stroke: #000000; stroke-width: 0.8"/>
      </g>
     </g>
     <g id="text_1">
      <!-- 100 -->
      <g transform="translate(256.63083 360.630437) scale(0.1 -0.1)">
       <defs>
        <path id="DejaVuSans-31" d="M 794 531 
L 1825 531 
L 1825 4091 
L 703 3866 
L 703 4441 
L 1819 4666 
L 2450 4666 
L 2450 531 
L 3481 531 
L 3481 0 
L 794 0 
L 794 531 
z
" transform="scale(0.015625)"/>
        <path id="DejaVuSans-30" d="M 2034 4250 
Q 1547 4250 1301 3770 
Q 1056 3291 1056 2328 
Q 1056 1369 1301 889 
Q 1547 409 2034 409 
Q 2525 409 2770 889 
Q 3016 1369 3016 2328 
Q 3016 3291 2770 3770 
Q 2525 4250 2034 4250 
z
M 2034 4750 
Q 2819 4750 3233 4129 
Q 3647 3509 3647 2328 
Q 3647 1150 3233 529 
Q 2819 -91 2034 -91 
Q 1250 -91 836 529 
Q 422 1150 422 2328 
Q 422 3509 836 4129 
Q 1250 4750 2034 4750 
z
" transform="scale(0.015625)"/>
       </defs>
       <use xlink:href="#DejaVuSans-31"/>
       <use xlink:href="#DejaVuSans-30" x="63.623047"/>
       <use xlink:href="#DejaVuSans-30" x="127.246094"/>
      </g>
     </g>
    </g>
    <g id="xtick_2">
     <g id="line2d_2">
      <g>
       <use xlink:href="#mefc12a5a4d" x="389.583247" y="346.032" style="stroke: #000000; stroke-width: 0.8"/>
      </g>
     </g>
     <g id="text_2">
      <!-- 200 -->
      <g transform="translate(380.039497 360.630437) scale(0.1 -0.1)">
       <defs>
        <path id="DejaVuSans-32" d="M 1228 531 
L 3431 531 
L 3431 0 
L 469 0 
L 469 531 
Q 828 903 1448 1529 
Q 2069 2156 2228 2338 
Q 2531 2678 2651 2914 
Q 2772 3150 2772 3378 
Q 2772 3750 2511 3984 
Q 2250 4219 1831 4219 
Q 1534 4219 1204 4116 
Q 875 4013 500 3803 
L 500 4441 
Q 881 4594 1212 4672 
Q 1544 4750 1819 4750 
Q 2544 4750 2975 4387 
Q 3406 4025 3406 3419 
Q 3406 3131 3298 2873 
Q 3191 2616 2906 2266 
Q 2828 2175 2409 1742 
Q 1991 1309 1228 531 
z
" transform="scale(0.015625)"/>
       </defs>
       <use xlink:href="#DejaVuSans-32"/>
       <use xlink:href="#DejaVuSans-30" x="63.623047"/>
       <use xlink:href="#DejaVuSans-30" x="127.246094"/>
      </g>
     </g>
    </g>
    <g id="xtick_3">
     <g id="line2d_3">
      <g>
       <use xlink:href="#mefc12a5a4d" x="512.991914" y="346.032" style="stroke: #000000; stroke-width: 0.8"/>
      </g>
     </g>
     <g id="text_3">
      <!-- 300 -->
      <g transform="translate(503.448164 360.630437) scale(0.1 -0.1)">
       <defs>
        <path id="DejaVuSans-33" d="M 2597 2516 
Q 3050 2419 3304 2112 
Q 3559 1806 3559 1356 
Q 3559 666 3084 287 
Q 2609 -91 1734 -91 
Q 1441 -91 1130 -33 
Q 819 25 488 141 
L 488 750 
Q 750 597 1062 519 
Q 1375 441 1716 441 
Q 2309 441 2620 675 
Q 2931 909 2931 1356 
Q 2931 1769 2642 2001 
Q 2353 2234 1838 2234 
L 1294 2234 
L 1294 2753 
L 1863 2753 
Q 2328 2753 2575 2939 
Q 2822 3125 2822 3475 
Q 2822 3834 2567 4026 
Q 2313 4219 1838 4219 
Q 1578 4219 1281 4162 
Q 984 4106 628 3988 
L 628 4550 
Q 988 4650 1302 4700 
Q 1616 4750 1894 4750 
Q 2613 4750 3031 4423 
Q 3450 4097 3450 3541 
Q 3450 3153 3228 2886 
Q 3006 2619 2597 2516 
z
" transform="scale(0.015625)"/>
       </defs>
       <use xlink:href="#DejaVuSans-33"/>
       <use xlink:href="#DejaVuSans-30" x="63.623047"/>
       <use xlink:href="#DejaVuSans-30" x="127.246094"/>
      </g>
     </g>
    </g>
    <g id="xtick_4">
     <g id="line2d_4">
      <g>
       <use xlink:href="#mefc12a5a4d" x="636.400581" y="346.032" style="stroke: #000000; stroke-width: 0.8"/>
      </g>
     </g>
     <g id="text_4">
      <!-- 400 -->
      <g transform="translate(626.856831 360.630437) scale(0.1 -0.1)">
       <defs>
        <path id="DejaVuSans-34" d="M 2419 4116 
L 825 1625 
L 2419 1625 
L 2419 4116 
z
M 2253 4666 
L 3047 4666 
L 3047 1625 
L 3713 1625 
L 3713 1100 
L 3047 1100 
L 3047 0 
L 2419 0 
L 2419 1100 
L 313 1100 
L 313 1709 
L 2253 4666 
z
" transform="scale(0.015625)"/>
       </defs>
       <use xlink:href="#DejaVuSans-34"/>
       <use xlink:href="#DejaVuSans-30" x="63.623047"/>
       <use xlink:href="#DejaVuSans-30" x="127.246094"/>
      </g>
     </g>
    </g>
    <g id="xtick_5">
     <g id="line2d_5">
      <g>
       <use xlink:href="#mefc12a5a4d" x="759.809247" y="346.032" style="stroke: #000000; stroke-width: 0.8"/>
      </g>
     </g>
     <g id="text_5">
      <!-- 500 -->
      <g transform="translate(750.265497 360.630437) scale(0.1 -0.1)">
       <defs>
        <path id="DejaVuSans-35" d="M 691 4666 
L 3169 4666 
L 3169 4134 
L 1269 4134 
L 1269 2991 
Q 1406 3038 1543 3061 
Q 1681 3084 1819 3084 
Q 2600 3084 3056 2656 
Q 3513 2228 3513 1497 
Q 3513 744 3044 326 
Q 2575 -91 1722 -91 
Q 1428 -91 1123 -41 
Q 819 9 494 109 
L 494 744 
Q 775 591 1075 516 
Q 1375 441 1709 441 
Q 2250 441 2565 725 
Q 2881 1009 2881 1497 
Q 2881 1984 2565 2268 
Q 2250 2553 1709 2553 
Q 1456 2553 1204 2497 
Q 953 2441 691 2322 
L 691 4666 
z
" transform="scale(0.015625)"/>
       </defs>
       <use xlink:href="#DejaVuSans-35"/>
       <use xlink:href="#DejaVuSans-30" x="63.623047"/>
       <use xlink:href="#DejaVuSans-30" x="127.246094"/>
      </g>
     </g>
    </g>
    <g id="xtick_6">
     <g id="line2d_6">
      <g>
       <use xlink:href="#mefc12a5a4d" x="883.217914" y="346.032" style="stroke: #000000; stroke-width: 0.8"/>
      </g>
     </g>
     <g id="text_6">
      <!-- 600 -->
      <g transform="translate(873.674164 360.630437) scale(0.1 -0.1)">
       <defs>
        <path id="DejaVuSans-36" d="M 2113 2584 
Q 1688 2584 1439 2293 
Q 1191 2003 1191 1497 
Q 1191 994 1439 701 
Q 1688 409 2113 409 
Q 2538 409 2786 701 
Q 3034 994 3034 1497 
Q 3034 2003 2786 2293 
Q 2538 2584 2113 2584 
z
M 3366 4563 
L 3366 3988 
Q 3128 4100 2886 4159 
Q 2644 4219 2406 4219 
Q 1781 4219 1451 3797 
Q 1122 3375 1075 2522 
Q 1259 2794 1537 2939 
Q 1816 3084 2150 3084 
Q 2853 3084 3261 2657 
Q 3669 2231 3669 1497 
Q 3669 778 3244 343 
Q 2819 -91 2113 -91 
Q 1303 -91 875 529 
Q 447 1150 447 2328 
Q 447 3434 972 4092 
Q 1497 4750 2381 4750 
Q 2619 4750 2861 4703 
Q 3103 4656 3366 4563 
z
" transform="scale(0.015625)"/>
       </defs>
       <use xlink:href="#DejaVuSans-36"/>
       <use xlink:href="#DejaVuSans-30" x="63.623047"/>
       <use xlink:href="#DejaVuSans-30" x="127.246094"/>
      </g>
     </g>
    </g>
    <g id="xtick_7">
     <g id="line2d_7">
      <g>
       <use xlink:href="#mefc12a5a4d" x="1006.626581" y="346.032" style="stroke: #000000; stroke-width: 0.8"/>
      </g>
     </g>
     <g id="text_7">
      <!-- 700 -->
      <g transform="translate(997.082831 360.630437) scale(0.1 -0.1)">
       <defs>
        <path id="DejaVuSans-37" d="M 525 4666 
L 3525 4666 
L 3525 4397 
L 1831 0 
L 1172 0 
L 2766 4134 
L 525 4134 
L 525 4666 
z
" transform="scale(0.015625)"/>
       </defs>
       <use xlink:href="#DejaVuSans-37"/>
       <use xlink:href="#DejaVuSans-30" x="63.623047"/>
       <use xlink:href="#DejaVuSans-30" x="127.246094"/>
      </g>
     </g>
    </g>
    <g id="text_8">
     <!-- Residual -->
     <g transform="translate(569.284375 374.308562) scale(0.1 -0.1)">
      <defs>
       <path id="DejaVuSans-52" d="M 2841 2188 
Q 3044 2119 3236 1894 
Q 3428 1669 3622 1275 
L 4263 0 
L 3584 0 
L 2988 1197 
Q 2756 1666 2539 1819 
Q 2322 1972 1947 1972 
L 1259 1972 
L 1259 0 
L 628 0 
L 628 4666 
L 2053 4666 
Q 2853 4666 3247 4331 
Q 3641 3997 3641 3322 
Q 3641 2881 3436 2590 
Q 3231 2300 2841 2188 
z
M 1259 4147 
L 1259 2491 
L 2053 2491 
Q 2509 2491 2742 2702 
Q 2975 2913 2975 3322 
Q 2975 3731 2742 3939 
Q 2509 4147 2053 4147 
L 1259 4147 
z
" transform="scale(0.015625)"/>
       <path id="DejaVuSans-65" d="M 3597 1894 
L 3597 1613 
L 953 1613 
Q 991 1019 1311 708 
Q 1631 397 2203 397 
Q 2534 397 2845 478 
Q 3156 559 3463 722 
L 3463 178 
Q 3153 47 2828 -22 
Q 2503 -91 2169 -91 
Q 1331 -91 842 396 
Q 353 884 353 1716 
Q 353 2575 817 3079 
Q 1281 3584 2069 3584 
Q 2775 3584 3186 3129 
Q 3597 2675 3597 1894 
z
M 3022 2063 
Q 3016 2534 2758 2815 
Q 2500 3097 2075 3097 
Q 1594 3097 1305 2825 
Q 1016 2553 972 2059 
L 3022 2063 
z
" transform="scale(0.015625)"/>
       <path id="DejaVuSans-73" d="M 2834 3397 
L 2834 2853 
Q 2591 2978 2328 3040 
Q 2066 3103 1784 3103 
Q 1356 3103 1142 2972 
Q 928 2841 928 2578 
Q 928 2378 1081 2264 
Q 1234 2150 1697 2047 
L 1894 2003 
Q 2506 1872 2764 1633 
Q 3022 1394 3022 966 
Q 3022 478 2636 193 
Q 2250 -91 1575 -91 
Q 1294 -91 989 -36 
Q 684 19 347 128 
L 347 722 
Q 666 556 975 473 
Q 1284 391 1588 391 
Q 1994 391 2212 530 
Q 2431 669 2431 922 
Q 2431 1156 2273 1281 
Q 2116 1406 1581 1522 
L 1381 1569 
Q 847 1681 609 1914 
Q 372 2147 372 2553 
Q 372 3047 722 3315 
Q 1072 3584 1716 3584 
Q 2034 3584 2315 3537 
Q 2597 3491 2834 3397 
z
" transform="scale(0.015625)"/>
       <path id="DejaVuSans-69" d="M 603 3500 
L 1178 3500 
L 1178 0 
L 603 0 
L 603 3500 
z
M 603 4863 
L 1178 4863 
L 1178 4134 
L 603 4134 
L 603 4863 
z
" transform="scale(0.015625)"/>
       <path id="DejaVuSans-64" d="M 2906 2969 
L 2906 4863 
L 3481 4863 
L 3481 0 
L 2906 0 
L 2906 525 
Q 2725 213 2448 61 
Q 2172 -91 1784 -91 
Q 1150 -91 751 415 
Q 353 922 353 1747 
Q 353 2572 751 3078 
Q 1150 3584 1784 3584 
Q 2172 3584 2448 3432 
Q 2725 3281 2906 2969 
z
M 947 1747 
Q 947 1113 1208 752 
Q 1469 391 1925 391 
Q 2381 391 2643 752 
Q 2906 1113 2906 1747 
Q 2906 2381 2643 2742 
Q 2381 3103 1925 3103 
Q 1469 3103 1208 2742 
Q 947 2381 947 1747 
z
" transform="scale(0.015625)"/>
       <path id="DejaVuSans-75" d="M 544 1381 
L 544 3500 
L 1119 3500 
L 1119 1403 
Q 1119 906 1312 657 
Q 1506 409 1894 409 
Q 2359 409 2629 706 
Q 2900 1003 2900 1516 
L 2900 3500 
L 3475 3500 
L 3475 0 
L 2900 0 
L 2900 538 
Q 2691 219 2414 64 
Q 2138 -91 1772 -91 
Q 1169 -91 856 284 
Q 544 659 544 1381 
z
M 1991 3584 
L 1991 3584 
z
" transform="scale(0.015625)"/>
       <path id="DejaVuSans-61" d="M 2194 1759 
Q 1497 1759 1228 1600 
Q 959 1441 959 1056 
Q 959 750 1161 570 
Q 1363 391 1709 391 
Q 2188 391 2477 730 
Q 2766 1069 2766 1631 
L 2766 1759 
L 2194 1759 
z
M 3341 1997 
L 3341 0 
L 2766 0 
L 2766 531 
Q 2569 213 2275 61 
Q 1981 -91 1556 -91 
Q 1019 -91 701 211 
Q 384 513 384 1019 
Q 384 1609 779 1909 
Q 1175 2209 1959 2209 
L 2766 2209 
L 2766 2266 
Q 2766 2663 2505 2880 
Q 2244 3097 1772 3097 
Q 1472 3097 1187 3025 
Q 903 2953 641 2809 
L 641 3341 
Q 956 3463 1253 3523 
Q 1550 3584 1831 3584 
Q 2591 3584 2966 3190 
Q 3341 2797 3341 1997 
z
" transform="scale(0.015625)"/>
       <path id="DejaVuSans-6c" d="M 603 4863 
L 1178 4863 
L 1178 0 
L 603 0 
L 603 4863 
z
" transform="scale(0.015625)"/>
      </defs>
      <use xlink:href="#DejaVuSans-52"/>
      <use xlink:href="#DejaVuSans-65" x="64.982422"/>
      <use xlink:href="#DejaVuSans-73" x="126.505859"/>
      <use xlink:href="#DejaVuSans-69" x="178.605469"/>
      <use xlink:href="#DejaVuSans-64" x="206.388672"/>
      <use xlink:href="#DejaVuSans-75" x="269.865234"/>
      <use xlink:href="#DejaVuSans-61" x="333.244141"/>
      <use xlink:href="#DejaVuSans-6c" x="394.523438"/>
     </g>
    </g>
   </g>
   <g id="matplotlib.axis_2">
    <g id="ytick_1">
     <g id="line2d_8">
      <defs>
       <path id="m1ead60867b" d="M 0 0 
L -3.5 0 
" style="stroke: #000000; stroke-width: 0.8"/>
      </defs>
      <g>
       <use xlink:href="#m1ead60867b" x="144" y="328.889455" style="stroke: #000000; stroke-width: 0.8"/>
      </g>
     </g>
     <g id="text_9">
      <!-- 2.A.58.1.1 -->
      <g transform="translate(85.809375 332.688673) scale(0.1 -0.1)">
       <defs>
        <path id="DejaVuSans-2e" d="M 684 794 
L 1344 794 
L 1344 0 
L 684 0 
L 684 794 
z
" transform="scale(0.015625)"/>
        <path id="DejaVuSans-41" d="M 2188 4044 
L 1331 1722 
L 3047 1722 
L 2188 4044 
z
M 1831 4666 
L 2547 4666 
L 4325 0 
L 3669 0 
L 3244 1197 
L 1141 1197 
L 716 0 
L 50 0 
L 1831 4666 
z
" transform="scale(0.015625)"/>
        <path id="DejaVuSans-38" d="M 2034 2216 
Q 1584 2216 1326 1975 
Q 1069 1734 1069 1313 
Q 1069 891 1326 650 
Q 1584 409 2034 409 
Q 2484 409 2743 651 
Q 3003 894 3003 1313 
Q 3003 1734 2745 1975 
Q 2488 2216 2034 2216 
z
M 1403 2484 
Q 997 2584 770 2862 
Q 544 3141 544 3541 
Q 544 4100 942 4425 
Q 1341 4750 2034 4750 
Q 2731 4750 3128 4425 
Q 3525 4100 3525 3541 
Q 3525 3141 3298 2862 
Q 3072 2584 2669 2484 
Q 3125 2378 3379 2068 
Q 3634 1759 3634 1313 
Q 3634 634 3220 271 
Q 2806 -91 2034 -91 
Q 1263 -91 848 271 
Q 434 634 434 1313 
Q 434 1759 690 2068 
Q 947 2378 1403 2484 
z
M 1172 3481 
Q 1172 3119 1398 2916 
Q 1625 2713 2034 2713 
Q 2441 2713 2670 2916 
Q 2900 3119 2900 3481 
Q 2900 3844 2670 4047 
Q 2441 4250 2034 4250 
Q 1625 4250 1398 4047 
Q 1172 3844 1172 3481 
z
" transform="scale(0.015625)"/>
       </defs>
       <use xlink:href="#DejaVuSans-32"/>
       <use xlink:href="#DejaVuSans-2e" x="63.623047"/>
       <use xlink:href="#DejaVuSans-41" x="95.410156"/>
       <use xlink:href="#DejaVuSans-2e" x="162.068359"/>
       <use xlink:href="#DejaVuSans-35" x="193.855469"/>
       <use xlink:href="#DejaVuSans-38" x="257.478516"/>
       <use xlink:href="#DejaVuSans-2e" x="321.101562"/>
       <use xlink:href="#DejaVuSans-31" x="352.888672"/>
       <use xlink:href="#DejaVuSans-2e" x="416.511719"/>
       <use xlink:href="#DejaVuSans-31" x="448.298828"/>
      </g>
     </g>
    </g>
    <g id="ytick_2">
     <g id="line2d_9">
      <g>
       <use xlink:href="#m1ead60867b" x="144" y="311.216727" style="stroke: #000000; stroke-width: 0.8"/>
      </g>
     </g>
     <g id="text_10">
      <!-- 2.A.58.1.2 -->
      <g transform="translate(85.809375 315.015946) scale(0.1 -0.1)">
       <use xlink:href="#DejaVuSans-32"/>
       <use xlink:href="#DejaVuSans-2e" x="63.623047"/>
       <use xlink:href="#DejaVuSans-41" x="95.410156"/>
       <use xlink:href="#DejaVuSans-2e" x="162.068359"/>
       <use xlink:href="#DejaVuSans-35" x="193.855469"/>
       <use xlink:href="#DejaVuSans-38" x="257.478516"/>
       <use xlink:href="#DejaVuSans-2e" x="321.101562"/>
       <use xlink:href="#DejaVuSans-31" x="352.888672"/>
       <use xlink:href="#DejaVuSans-2e" x="416.511719"/>
       <use xlink:href="#DejaVuSans-32" x="448.298828"/>
      </g>
     </g>
    </g>
    <g id="ytick_3">
     <g id="line2d_10">
      <g>
       <use xlink:href="#m1ead60867b" x="144" y="293.544" style="stroke: #000000; stroke-width: 0.8"/>
      </g>
     </g>
     <g id="text_11">
      <!-- 2.A.58.1.3 -->
      <g transform="translate(85.809375 297.343219) scale(0.1 -0.1)">
       <use xlink:href="#DejaVuSans-32"/>
       <use xlink:href="#DejaVuSans-2e" x="63.623047"/>
       <use xlink:href="#DejaVuSans-41" x="95.410156"/>
       <use xlink:href="#DejaVuSans-2e" x="162.068359"/>
       <use xlink:href="#DejaVuSans-35" x="193.855469"/>
       <use xlink:href="#DejaVuSans-38" x="257.478516"/>
       <use xlink:href="#DejaVuSans-2e" x="321.101562"/>
       <use xlink:href="#DejaVuSans-31" x="352.888672"/>
       <use xlink:href="#DejaVuSans-2e" x="416.511719"/>
       <use xlink:href="#DejaVuSans-33" x="448.298828"/>
      </g>
     </g>
    </g>
    <g id="ytick_4">
     <g id="line2d_11">
      <g>
       <use xlink:href="#m1ead60867b" x="144" y="275.871273" style="stroke: #000000; stroke-width: 0.8"/>
      </g>
     </g>
     <g id="text_12">
      <!-- 2.A.58.1.4 -->
      <g transform="translate(85.809375 279.670491) scale(0.1 -0.1)">
       <use xlink:href="#DejaVuSans-32"/>
       <use xlink:href="#DejaVuSans-2e" x="63.623047"/>
       <use xlink:href="#DejaVuSans-41" x="95.410156"/>
       <use xlink:href="#DejaVuSans-2e" x="162.068359"/>
       <use xlink:href="#DejaVuSans-35" x="193.855469"/>
       <use xlink:href="#DejaVuSans-38" x="257.478516"/>
       <use xlink:href="#DejaVuSans-2e" x="321.101562"/>
       <use xlink:href="#DejaVuSans-31" x="352.888672"/>
       <use xlink:href="#DejaVuSans-2e" x="416.511719"/>
       <use xlink:href="#DejaVuSans-34" x="448.298828"/>
      </g>
     </g>
    </g>
    <g id="ytick_5">
     <g id="line2d_12">
      <g>
       <use xlink:href="#m1ead60867b" x="144" y="258.198545" style="stroke: #000000; stroke-width: 0.8"/>
      </g>
     </g>
     <g id="text_13">
      <!-- 2.A.58.1.5 -->
      <g transform="translate(85.809375 261.997764) scale(0.1 -0.1)">
       <use xlink:href="#DejaVuSans-32"/>
       <use xlink:href="#DejaVuSans-2e" x="63.623047"/>
       <use xlink:href="#DejaVuSans-41" x="95.410156"/>
       <use xlink:href="#DejaVuSans-2e" x="162.068359"/>
       <use xlink:href="#DejaVuSans-35" x="193.855469"/>
       <use xlink:href="#DejaVuSans-38" x="257.478516"/>
       <use xlink:href="#DejaVuSans-2e" x="321.101562"/>
       <use xlink:href="#DejaVuSans-31" x="352.888672"/>
       <use xlink:href="#DejaVuSans-2e" x="416.511719"/>
       <use xlink:href="#DejaVuSans-35" x="448.298828"/>
      </g>
     </g>
    </g>
    <g id="ytick_6">
     <g id="line2d_13">
      <g>
       <use xlink:href="#m1ead60867b" x="144" y="240.525818" style="stroke: #000000; stroke-width: 0.8"/>
      </g>
     </g>
     <g id="text_14">
      <!-- 2.A.58.1.6 -->
      <g transform="translate(85.809375 244.325037) scale(0.1 -0.1)">
       <use xlink:href="#DejaVuSans-32"/>
       <use xlink:href="#DejaVuSans-2e" x="63.623047"/>
       <use xlink:href="#DejaVuSans-41" x="95.410156"/>
       <use xlink:href="#DejaVuSans-2e" x="162.068359"/>
       <use xlink:href="#DejaVuSans-35" x="193.855469"/>
       <use xlink:href="#DejaVuSans-38" x="257.478516"/>
       <use xlink:href="#DejaVuSans-2e" x="321.101562"/>
       <use xlink:href="#DejaVuSans-31" x="352.888672"/>
       <use xlink:href="#DejaVuSans-2e" x="416.511719"/>
       <use xlink:href="#DejaVuSans-36" x="448.298828"/>
      </g>
     </g>
    </g>
    <g id="ytick_7">
     <g id="line2d_14">
      <g>
       <use xlink:href="#m1ead60867b" x="144" y="222.853091" style="stroke: #000000; stroke-width: 0.8"/>
      </g>
     </g>
     <g id="text_15">
      <!-- 2.A.58.1.7 -->
      <g transform="translate(85.809375 226.65231) scale(0.1 -0.1)">
       <use xlink:href="#DejaVuSans-32"/>
       <use xlink:href="#DejaVuSans-2e" x="63.623047"/>
       <use xlink:href="#DejaVuSans-41" x="95.410156"/>
       <use xlink:href="#DejaVuSans-2e" x="162.068359"/>
       <use xlink:href="#DejaVuSans-35" x="193.855469"/>
       <use xlink:href="#DejaVuSans-38" x="257.478516"/>
       <use xlink:href="#DejaVuSans-2e" x="321.101562"/>
       <use xlink:href="#DejaVuSans-31" x="352.888672"/>
       <use xlink:href="#DejaVuSans-2e" x="416.511719"/>
       <use xlink:href="#DejaVuSans-37" x="448.298828"/>
      </g>
     </g>
    </g>
    <g id="ytick_8">
     <g id="line2d_15">
      <g>
       <use xlink:href="#m1ead60867b" x="144" y="205.180364" style="stroke: #000000; stroke-width: 0.8"/>
      </g>
     </g>
     <g id="text_16">
      <!-- 2.A.58.1.8 -->
      <g transform="translate(85.809375 208.979582) scale(0.1 -0.1)">
       <use xlink:href="#DejaVuSans-32"/>
       <use xlink:href="#DejaVuSans-2e" x="63.623047"/>
       <use xlink:href="#DejaVuSans-41" x="95.410156"/>
       <use xlink:href="#DejaVuSans-2e" x="162.068359"/>
       <use xlink:href="#DejaVuSans-35" x="193.855469"/>
       <use xlink:href="#DejaVuSans-38" x="257.478516"/>
       <use xlink:href="#DejaVuSans-2e" x="321.101562"/>
       <use xlink:href="#DejaVuSans-31" x="352.888672"/>
       <use xlink:href="#DejaVuSans-2e" x="416.511719"/>
       <use xlink:href="#DejaVuSans-38" x="448.298828"/>
      </g>
     </g>
    </g>
    <g id="ytick_9">
     <g id="line2d_16">
      <g>
       <use xlink:href="#m1ead60867b" x="144" y="187.507636" style="stroke: #000000; stroke-width: 0.8"/>
      </g>
     </g>
     <g id="text_17">
      <!-- 2.A.58.1.9 -->
      <g transform="translate(85.809375 191.306855) scale(0.1 -0.1)">
       <defs>
        <path id="DejaVuSans-39" d="M 703 97 
L 703 672 
Q 941 559 1184 500 
Q 1428 441 1663 441 
Q 2288 441 2617 861 
Q 2947 1281 2994 2138 
Q 2813 1869 2534 1725 
Q 2256 1581 1919 1581 
Q 1219 1581 811 2004 
Q 403 2428 403 3163 
Q 403 3881 828 4315 
Q 1253 4750 1959 4750 
Q 2769 4750 3195 4129 
Q 3622 3509 3622 2328 
Q 3622 1225 3098 567 
Q 2575 -91 1691 -91 
Q 1453 -91 1209 -44 
Q 966 3 703 97 
z
M 1959 2075 
Q 2384 2075 2632 2365 
Q 2881 2656 2881 3163 
Q 2881 3666 2632 3958 
Q 2384 4250 1959 4250 
Q 1534 4250 1286 3958 
Q 1038 3666 1038 3163 
Q 1038 2656 1286 2365 
Q 1534 2075 1959 2075 
z
" transform="scale(0.015625)"/>
       </defs>
       <use xlink:href="#DejaVuSans-32"/>
       <use xlink:href="#DejaVuSans-2e" x="63.623047"/>
       <use xlink:href="#DejaVuSans-41" x="95.410156"/>
       <use xlink:href="#DejaVuSans-2e" x="162.068359"/>
       <use xlink:href="#DejaVuSans-35" x="193.855469"/>
       <use xlink:href="#DejaVuSans-38" x="257.478516"/>
       <use xlink:href="#DejaVuSans-2e" x="321.101562"/>
       <use xlink:href="#DejaVuSans-31" x="352.888672"/>
       <use xlink:href="#DejaVuSans-2e" x="416.511719"/>
       <use xlink:href="#DejaVuSans-39" x="448.298828"/>
      </g>
     </g>
    </g>
    <g id="ytick_10">
     <g id="line2d_17">
      <g>
       <use xlink:href="#m1ead60867b" x="144" y="169.834909" style="stroke: #000000; stroke-width: 0.8"/>
      </g>
     </g>
     <g id="text_18">
      <!-- 2.A.58.2.1 -->
      <g transform="translate(85.809375 173.634128) scale(0.1 -0.1)">
       <use xlink:href="#DejaVuSans-32"/>
       <use xlink:href="#DejaVuSans-2e" x="63.623047"/>
       <use xlink:href="#DejaVuSans-41" x="95.410156"/>
       <use xlink:href="#DejaVuSans-2e" x="162.068359"/>
       <use xlink:href="#DejaVuSans-35" x="193.855469"/>
       <use xlink:href="#DejaVuSans-38" x="257.478516"/>
       <use xlink:href="#DejaVuSans-2e" x="321.101562"/>
       <use xlink:href="#DejaVuSans-32" x="352.888672"/>
       <use xlink:href="#DejaVuSans-2e" x="416.511719"/>
       <use xlink:href="#DejaVuSans-31" x="448.298828"/>
      </g>
     </g>
    </g>
    <g id="ytick_11">
     <g id="line2d_18">
      <g>
       <use xlink:href="#m1ead60867b" x="144" y="152.162182" style="stroke: #000000; stroke-width: 0.8"/>
      </g>
     </g>
     <g id="text_19">
      <!-- 2.A.58.2.2 -->
      <g transform="translate(85.809375 155.961401) scale(0.1 -0.1)">
       <use xlink:href="#DejaVuSans-32"/>
       <use xlink:href="#DejaVuSans-2e" x="63.623047"/>
       <use xlink:href="#DejaVuSans-41" x="95.410156"/>
       <use xlink:href="#DejaVuSans-2e" x="162.068359"/>
       <use xlink:href="#DejaVuSans-35" x="193.855469"/>
       <use xlink:href="#DejaVuSans-38" x="257.478516"/>
       <use xlink:href="#DejaVuSans-2e" x="321.101562"/>
       <use xlink:href="#DejaVuSans-32" x="352.888672"/>
       <use xlink:href="#DejaVuSans-2e" x="416.511719"/>
       <use xlink:href="#DejaVuSans-32" x="448.298828"/>
      </g>
     </g>
    </g>
    <g id="ytick_12">
     <g id="line2d_19">
      <g>
       <use xlink:href="#m1ead60867b" x="144" y="134.489455" style="stroke: #000000; stroke-width: 0.8"/>
      </g>
     </g>
     <g id="text_20">
      <!-- 2.A.58.2.3 -->
      <g transform="translate(85.809375 138.288673) scale(0.1 -0.1)">
       <use xlink:href="#DejaVuSans-32"/>
       <use xlink:href="#DejaVuSans-2e" x="63.623047"/>
       <use xlink:href="#DejaVuSans-41" x="95.410156"/>
       <use xlink:href="#DejaVuSans-2e" x="162.068359"/>
       <use xlink:href="#DejaVuSans-35" x="193.855469"/>
       <use xlink:href="#DejaVuSans-38" x="257.478516"/>
       <use xlink:href="#DejaVuSans-2e" x="321.101562"/>
       <use xlink:href="#DejaVuSans-32" x="352.888672"/>
       <use xlink:href="#DejaVuSans-2e" x="416.511719"/>
       <use xlink:href="#DejaVuSans-33" x="448.298828"/>
      </g>
     </g>
    </g>
    <g id="ytick_13">
     <g id="line2d_20">
      <g>
       <use xlink:href="#m1ead60867b" x="144" y="116.816727" style="stroke: #000000; stroke-width: 0.8"/>
      </g>
     </g>
     <g id="text_21">
      <!-- 2.A.58.2.4 -->
      <g transform="translate(85.809375 120.615946) scale(0.1 -0.1)">
       <use xlink:href="#DejaVuSans-32"/>
       <use xlink:href="#DejaVuSans-2e" x="63.623047"/>
       <use xlink:href="#DejaVuSans-41" x="95.410156"/>
       <use xlink:href="#DejaVuSans-2e" x="162.068359"/>
       <use xlink:href="#DejaVuSans-35" x="193.855469"/>
       <use xlink:href="#DejaVuSans-38" x="257.478516"/>
       <use xlink:href="#DejaVuSans-2e" x="321.101562"/>
       <use xlink:href="#DejaVuSans-32" x="352.888672"/>
       <use xlink:href="#DejaVuSans-2e" x="416.511719"/>
       <use xlink:href="#DejaVuSans-34" x="448.298828"/>
      </g>
     </g>
    </g>
    <g id="ytick_14">
     <g id="line2d_21">
      <g>
       <use xlink:href="#m1ead60867b" x="144" y="99.144" style="stroke: #000000; stroke-width: 0.8"/>
      </g>
     </g>
     <g id="text_22">
      <!-- 2.A.58.2.5 -->
      <g transform="translate(85.809375 102.943219) scale(0.1 -0.1)">
       <use xlink:href="#DejaVuSans-32"/>
       <use xlink:href="#DejaVuSans-2e" x="63.623047"/>
       <use xlink:href="#DejaVuSans-41" x="95.410156"/>
       <use xlink:href="#DejaVuSans-2e" x="162.068359"/>
       <use xlink:href="#DejaVuSans-35" x="193.855469"/>
       <use xlink:href="#DejaVuSans-38" x="257.478516"/>
       <use xlink:href="#DejaVuSans-2e" x="321.101562"/>
       <use xlink:href="#DejaVuSans-32" x="352.888672"/>
       <use xlink:href="#DejaVuSans-2e" x="416.511719"/>
       <use xlink:href="#DejaVuSans-35" x="448.298828"/>
      </g>
     </g>
    </g>
    <g id="ytick_15">
     <g id="line2d_22">
      <g>
       <use xlink:href="#m1ead60867b" x="144" y="81.471273" style="stroke: #000000; stroke-width: 0.8"/>
      </g>
     </g>
     <g id="text_23">
      <!-- 2.A.58.2.6 -->
      <g transform="translate(85.809375 85.270491) scale(0.1 -0.1)">
       <use xlink:href="#DejaVuSans-32"/>
       <use xlink:href="#DejaVuSans-2e" x="63.623047"/>
       <use xlink:href="#DejaVuSans-41" x="95.410156"/>
       <use xlink:href="#DejaVuSans-2e" x="162.068359"/>
       <use xlink:href="#DejaVuSans-35" x="193.855469"/>
       <use xlink:href="#DejaVuSans-38" x="257.478516"/>
       <use xlink:href="#DejaVuSans-2e" x="321.101562"/>
       <use xlink:href="#DejaVuSans-32" x="352.888672"/>
       <use xlink:href="#DejaVuSans-2e" x="416.511719"/>
       <use xlink:href="#DejaVuSans-36" x="448.298828"/>
      </g>
     </g>
    </g>
    <g id="ytick_16">
     <g id="line2d_23">
      <g>
       <use xlink:href="#m1ead60867b" x="144" y="63.798545" style="stroke: #000000; stroke-width: 0.8"/>
      </g>
     </g>
     <g id="text_24">
      <!-- 2.A.58.2.7 -->
      <g transform="translate(85.809375 67.597764) scale(0.1 -0.1)">
       <use xlink:href="#DejaVuSans-32"/>
       <use xlink:href="#DejaVuSans-2e" x="63.623047"/>
       <use xlink:href="#DejaVuSans-41" x="95.410156"/>
       <use xlink:href="#DejaVuSans-2e" x="162.068359"/>
       <use xlink:href="#DejaVuSans-35" x="193.855469"/>
       <use xlink:href="#DejaVuSans-38" x="257.478516"/>
       <use xlink:href="#DejaVuSans-2e" x="321.101562"/>
       <use xlink:href="#DejaVuSans-32" x="352.888672"/>
       <use xlink:href="#DejaVuSans-2e" x="416.511719"/>
       <use xlink:href="#DejaVuSans-37" x="448.298828"/>
      </g>
     </g>
    </g>
   </g>
   <g id="patch_126">
    <path d="M 144 346.032 
L 144 46.656 
" style="fill: none; stroke: #000000; stroke-width: 0.8; stroke-linejoin: miter; stroke-linecap: square"/>
   </g>
   <g id="patch_127">
    <path d="M 1036.8 346.032 
L 1036.8 46.656 
" style="fill: none; stroke: #000000; stroke-width: 0.8; stroke-linejoin: miter; stroke-linecap: square"/>
   </g>
   <g id="patch_128">
    <path d="M 144 346.032 
L 1036.8 346.032 
" style="fill: none; stroke: #000000; stroke-width: 0.8; stroke-linejoin: miter; stroke-linecap: square"/>
   </g>
   <g id="patch_129">
    <path d="M 144 46.656 
L 1036.8 46.656 
" style="fill: none; stroke: #000000; stroke-width: 0.8; stroke-linejoin: miter; stroke-linecap: square"/>
   </g>
   <g id="text_25">
    <!-- 2.A.58 Summary -->
    <g transform="translate(540.2325 40.656) scale(0.12 -0.12)">
     <defs>
      <path id="DejaVuSans-20" transform="scale(0.015625)"/>
      <path id="DejaVuSans-53" d="M 3425 4513 
L 3425 3897 
Q 3066 4069 2747 4153 
Q 2428 4238 2131 4238 
Q 1616 4238 1336 4038 
Q 1056 3838 1056 3469 
Q 1056 3159 1242 3001 
Q 1428 2844 1947 2747 
L 2328 2669 
Q 3034 2534 3370 2195 
Q 3706 1856 3706 1288 
Q 3706 609 3251 259 
Q 2797 -91 1919 -91 
Q 1588 -91 1214 -16 
Q 841 59 441 206 
L 441 856 
Q 825 641 1194 531 
Q 1563 422 1919 422 
Q 2459 422 2753 634 
Q 3047 847 3047 1241 
Q 3047 1584 2836 1778 
Q 2625 1972 2144 2069 
L 1759 2144 
Q 1053 2284 737 2584 
Q 422 2884 422 3419 
Q 422 4038 858 4394 
Q 1294 4750 2059 4750 
Q 2388 4750 2728 4690 
Q 3069 4631 3425 4513 
z
" transform="scale(0.015625)"/>
      <path id="DejaVuSans-6d" d="M 3328 2828 
Q 3544 3216 3844 3400 
Q 4144 3584 4550 3584 
Q 5097 3584 5394 3201 
Q 5691 2819 5691 2113 
L 5691 0 
L 5113 0 
L 5113 2094 
Q 5113 2597 4934 2840 
Q 4756 3084 4391 3084 
Q 3944 3084 3684 2787 
Q 3425 2491 3425 1978 
L 3425 0 
L 2847 0 
L 2847 2094 
Q 2847 2600 2669 2842 
Q 2491 3084 2119 3084 
Q 1678 3084 1418 2786 
Q 1159 2488 1159 1978 
L 1159 0 
L 581 0 
L 581 3500 
L 1159 3500 
L 1159 2956 
Q 1356 3278 1631 3431 
Q 1906 3584 2284 3584 
Q 2666 3584 2933 3390 
Q 3200 3197 3328 2828 
z
" transform="scale(0.015625)"/>
      <path id="DejaVuSans-72" d="M 2631 2963 
Q 2534 3019 2420 3045 
Q 2306 3072 2169 3072 
Q 1681 3072 1420 2755 
Q 1159 2438 1159 1844 
L 1159 0 
L 581 0 
L 581 3500 
L 1159 3500 
L 1159 2956 
Q 1341 3275 1631 3429 
Q 1922 3584 2338 3584 
Q 2397 3584 2469 3576 
Q 2541 3569 2628 3553 
L 2631 2963 
z
" transform="scale(0.015625)"/>
      <path id="DejaVuSans-79" d="M 2059 -325 
Q 1816 -950 1584 -1140 
Q 1353 -1331 966 -1331 
L 506 -1331 
L 506 -850 
L 844 -850 
Q 1081 -850 1212 -737 
Q 1344 -625 1503 -206 
L 1606 56 
L 191 3500 
L 800 3500 
L 1894 763 
L 2988 3500 
L 3597 3500 
L 2059 -325 
z
" transform="scale(0.015625)"/>
     </defs>
     <use xlink:href="#DejaVuSans-32"/>
     <use xlink:href="#DejaVuSans-2e" x="63.623047"/>
     <use xlink:href="#DejaVuSans-41" x="95.410156"/>
     <use xlink:href="#DejaVuSans-2e" x="162.068359"/>
     <use xlink:href="#DejaVuSans-35" x="193.855469"/>
     <use xlink:href="#DejaVuSans-38" x="257.478516"/>
     <use xlink:href="#DejaVuSans-20" x="321.101562"/>
     <use xlink:href="#DejaVuSans-53" x="352.888672"/>
     <use xlink:href="#DejaVuSans-75" x="416.365234"/>
     <use xlink:href="#DejaVuSans-6d" x="479.744141"/>
     <use xlink:href="#DejaVuSans-6d" x="577.15625"/>
     <use xlink:href="#DejaVuSans-61" x="674.568359"/>
     <use xlink:href="#DejaVuSans-72" x="735.847656"/>
     <use xlink:href="#DejaVuSans-79" x="776.960938"/>
    </g>
   </g>
  </g>
 </g>
 <defs>
  <clipPath id="pdb761b99b0">
   <rect x="144" y="46.656" width="892.8" height="299.376"/>
  </clipPath>
 </defs>
</svg>
