<?xml version="1.0" encoding="utf-8" standalone="no"?>
<!DOCTYPE svg PUBLIC "-//W3C//DTD SVG 1.1//EN"
  "http://www.w3.org/Graphics/SVG/1.1/DTD/svg11.dtd">
<svg xmlns:xlink="http://www.w3.org/1999/xlink" width="1152pt" height="396pt" viewBox="0 0 1152 396" xmlns="http://www.w3.org/2000/svg" version="1.1">
 <metadata>
  <rdf:RDF xmlns:dc="http://purl.org/dc/elements/1.1/" xmlns:cc="http://creativecommons.org/ns#" xmlns:rdf="http://www.w3.org/1999/02/22-rdf-syntax-ns#">
   <cc:Work>
    <dc:type rdf:resource="http://purl.org/dc/dcmitype/StillImage"/>
    <dc:date>2024-10-24T16:11:47.408777</dc:date>
    <dc:format>image/svg+xml</dc:format>
    <dc:creator>
     <cc:Agent>
      <dc:title>Matplotlib v3.8.4, https://matplotlib.org/</dc:title>
     </cc:Agent>
    </dc:creator>
   </cc:Work>
  </rdf:RDF>
 </metadata>
 <defs>
  <style type="text/css">*{stroke-linejoin: round; stroke-linecap: butt}</style>
 </defs>
 <g id="figure_1">
  <g id="patch_1">
   <path d="M 0 396 
L 1152 396 
L 1152 0 
L 0 0 
z
" style="fill: #ffffff"/>
  </g>
  <g id="axes_1">
   <g id="patch_2">
    <path d="M 144 352.44 
L 1036.8 352.44 
L 1036.8 47.52 
L 144 47.52 
z
" style="fill: #ffffff"/>
   </g>
   <g id="patch_3">
    <path d="M 144 338.58 
L 274.439257 338.58 
L 274.439257 332.864536 
L 144 332.864536 
z
" clip-path="url(#p711e05219e)" style="fill: #0000ff"/>
   </g>
   <g id="patch_4">
    <path d="M 144 338.58 
L 274.844348 338.58 
L 274.844348 332.864536 
L 144 332.864536 
z
" clip-path="url(#p711e05219e)" style="fill: #0000ff"/>
   </g>
   <g id="patch_5">
    <path d="M 146.835636 338.58 
L 267.147621 338.58 
L 267.147621 332.864536 
L 146.835636 332.864536 
z
" clip-path="url(#p711e05219e)" style="fill: #0000ff"/>
   </g>
   <g id="patch_6">
    <path d="M 146.835636 338.58 
L 266.74253 338.58 
L 266.74253 332.864536 
L 146.835636 332.864536 
z
" clip-path="url(#p711e05219e)" style="fill: #0000ff"/>
   </g>
   <g id="patch_7">
    <path d="M 146.835636 338.58 
L 267.147621 338.58 
L 267.147621 332.864536 
L 146.835636 332.864536 
z
" clip-path="url(#p711e05219e)" style="fill: #0000ff"/>
   </g>
   <g id="patch_8">
    <path d="M 147.240727 338.58 
L 269.983257 338.58 
L 269.983257 332.864536 
L 147.240727 332.864536 
z
" clip-path="url(#p711e05219e)" style="fill: #0000ff"/>
   </g>
   <g id="patch_9">
    <path d="M 147.645818 338.58 
L 269.173076 338.58 
L 269.173076 332.864536 
L 147.645818 332.864536 
z
" clip-path="url(#p711e05219e)" style="fill: #0000ff"/>
   </g>
   <g id="patch_10">
    <path d="M 148.455999 338.58 
L 267.552712 338.58 
L 267.552712 332.864536 
L 148.455999 332.864536 
z
" clip-path="url(#p711e05219e)" style="fill: #0000ff"/>
   </g>
   <g id="patch_11">
    <path d="M 148.86109 338.58 
L 267.147621 338.58 
L 267.147621 332.864536 
L 148.86109 332.864536 
z
" clip-path="url(#p711e05219e)" style="fill: #0000ff"/>
   </g>
   <g id="patch_12">
    <path d="M 148.86109 338.58 
L 265.932349 338.58 
L 265.932349 332.864536 
L 148.86109 332.864536 
z
" clip-path="url(#p711e05219e)" style="fill: #0000ff"/>
   </g>
   <g id="patch_13">
    <path d="M 275.249439 335.936598 
L 277.274893 335.936598 
L 277.274893 335.507938 
L 275.249439 335.507938 
z
" clip-path="url(#p711e05219e)" style="fill: #0000ff"/>
   </g>
   <g id="patch_14">
    <path d="M 144 321.647938 
L 149.266181 321.647938 
L 149.266181 321.219278 
L 144 321.219278 
z
" clip-path="url(#p711e05219e)" style="fill: #0000ff"/>
   </g>
   <g id="patch_15">
    <path d="M 149.671272 324.29134 
L 276.464711 324.29134 
L 276.464711 318.575876 
L 149.671272 318.575876 
z
" clip-path="url(#p711e05219e)" style="fill: #0000ff"/>
   </g>
   <g id="patch_16">
    <path d="M 149.671272 324.29134 
L 276.464711 324.29134 
L 276.464711 318.575876 
L 149.671272 318.575876 
z
" clip-path="url(#p711e05219e)" style="fill: #0000ff"/>
   </g>
   <g id="patch_17">
    <path d="M 152.911999 324.29134 
L 271.603621 324.29134 
L 271.603621 318.575876 
L 152.911999 318.575876 
z
" clip-path="url(#p711e05219e)" style="fill: #0000ff"/>
   </g>
   <g id="patch_18">
    <path d="M 152.911999 324.29134 
L 274.439257 324.29134 
L 274.439257 318.575876 
L 152.911999 318.575876 
z
" clip-path="url(#p711e05219e)" style="fill: #0000ff"/>
   </g>
   <g id="patch_19">
    <path d="M 152.911999 324.29134 
L 272.008712 324.29134 
L 272.008712 318.575876 
L 152.911999 318.575876 
z
" clip-path="url(#p711e05219e)" style="fill: #0000ff"/>
   </g>
   <g id="patch_20">
    <path d="M 153.31709 324.29134 
L 274.844348 324.29134 
L 274.844348 318.575876 
L 153.31709 318.575876 
z
" clip-path="url(#p711e05219e)" style="fill: #0000ff"/>
   </g>
   <g id="patch_21">
    <path d="M 154.127271 324.29134 
L 265.932349 324.29134 
L 265.932349 318.575876 
L 154.127271 318.575876 
z
" clip-path="url(#p711e05219e)" style="fill: #0000ff"/>
   </g>
   <g id="patch_22">
    <path d="M 154.532362 324.29134 
L 271.603621 324.29134 
L 271.603621 318.575876 
L 154.532362 318.575876 
z
" clip-path="url(#p711e05219e)" style="fill: #0000ff"/>
   </g>
   <g id="patch_23">
    <path d="M 154.532362 324.29134 
L 271.603621 324.29134 
L 271.603621 318.575876 
L 154.532362 318.575876 
z
" clip-path="url(#p711e05219e)" style="fill: #0000ff"/>
   </g>
   <g id="patch_24">
    <path d="M 155.747635 324.29134 
L 269.173076 324.29134 
L 269.173076 318.575876 
L 155.747635 318.575876 
z
" clip-path="url(#p711e05219e)" style="fill: #0000ff"/>
   </g>
   <g id="patch_25">
    <path d="M 144 307.359278 
L 153.722181 307.359278 
L 153.722181 306.930619 
L 144 306.930619 
z
" clip-path="url(#p711e05219e)" style="fill: #0000ff"/>
   </g>
   <g id="patch_26">
    <path d="M 154.127271 310.00268 
L 301.580344 310.00268 
L 301.580344 304.287216 
L 154.127271 304.287216 
z
" clip-path="url(#p711e05219e)" style="fill: #0000ff"/>
   </g>
   <g id="patch_27">
    <path d="M 155.747635 310.00268 
L 293.073436 310.00268 
L 293.073436 304.287216 
L 155.747635 304.287216 
z
" clip-path="url(#p711e05219e)" style="fill: #0000ff"/>
   </g>
   <g id="patch_28">
    <path d="M 156.962908 310.00268 
L 295.098891 310.00268 
L 295.098891 304.287216 
L 156.962908 304.287216 
z
" clip-path="url(#p711e05219e)" style="fill: #0000ff"/>
   </g>
   <g id="patch_29">
    <path d="M 156.962908 310.00268 
L 294.6938 310.00268 
L 294.6938 304.287216 
L 156.962908 304.287216 
z
" clip-path="url(#p711e05219e)" style="fill: #0000ff"/>
   </g>
   <g id="patch_30">
    <path d="M 157.367998 310.00268 
L 293.478527 310.00268 
L 293.478527 304.287216 
L 157.367998 304.287216 
z
" clip-path="url(#p711e05219e)" style="fill: #0000ff"/>
   </g>
   <g id="patch_31">
    <path d="M 157.367998 310.00268 
L 297.124345 310.00268 
L 297.124345 304.287216 
L 157.367998 304.287216 
z
" clip-path="url(#p711e05219e)" style="fill: #0000ff"/>
   </g>
   <g id="patch_32">
    <path d="M 158.988362 310.00268 
L 293.073436 310.00268 
L 293.073436 304.287216 
L 158.988362 304.287216 
z
" clip-path="url(#p711e05219e)" style="fill: #0000ff"/>
   </g>
   <g id="patch_33">
    <path d="M 158.988362 310.00268 
L 293.073436 310.00268 
L 293.073436 304.287216 
L 158.988362 304.287216 
z
" clip-path="url(#p711e05219e)" style="fill: #0000ff"/>
   </g>
   <g id="patch_34">
    <path d="M 158.988362 310.00268 
L 293.478527 310.00268 
L 293.478527 304.287216 
L 158.988362 304.287216 
z
" clip-path="url(#p711e05219e)" style="fill: #0000ff"/>
   </g>
   <g id="patch_35">
    <path d="M 198.687266 310.00268 
L 277.274893 310.00268 
L 277.274893 304.287216 
L 198.687266 304.287216 
z
" clip-path="url(#p711e05219e)" style="fill: #0000ff"/>
   </g>
   <g id="patch_36">
    <path d="M 301.985435 307.359278 
L 321.024706 307.359278 
L 321.024706 306.930619 
L 301.985435 306.930619 
z
" clip-path="url(#p711e05219e)" style="fill: #0000ff"/>
   </g>
   <g id="patch_37">
    <path d="M 144 295.714021 
L 282.135983 295.714021 
L 282.135983 289.998557 
L 144 289.998557 
z
" clip-path="url(#p711e05219e)" style="fill: #0000ff"/>
   </g>
   <g id="patch_38">
    <path d="M 144 295.714021 
L 211.245083 295.714021 
L 211.245083 289.998557 
L 144 289.998557 
z
" clip-path="url(#p711e05219e)" style="fill: #0000ff"/>
   </g>
   <g id="patch_39">
    <path d="M 144 295.714021 
L 211.650174 295.714021 
L 211.650174 289.998557 
L 144 289.998557 
z
" clip-path="url(#p711e05219e)" style="fill: #0000ff"/>
   </g>
   <g id="patch_40">
    <path d="M 144 295.714021 
L 198.687266 295.714021 
L 198.687266 289.998557 
L 144 289.998557 
z
" clip-path="url(#p711e05219e)" style="fill: #0000ff"/>
   </g>
   <g id="patch_41">
    <path d="M 144 295.714021 
L 205.978902 295.714021 
L 205.978902 289.998557 
L 144 289.998557 
z
" clip-path="url(#p711e05219e)" style="fill: #0000ff"/>
   </g>
   <g id="patch_42">
    <path d="M 144 295.714021 
L 210.434901 295.714021 
L 210.434901 289.998557 
L 144 289.998557 
z
" clip-path="url(#p711e05219e)" style="fill: #0000ff"/>
   </g>
   <g id="patch_43">
    <path d="M 144 295.714021 
L 211.650174 295.714021 
L 211.650174 289.998557 
L 144 289.998557 
z
" clip-path="url(#p711e05219e)" style="fill: #0000ff"/>
   </g>
   <g id="patch_44">
    <path d="M 152.911999 295.714021 
L 199.092357 295.714021 
L 199.092357 289.998557 
L 152.911999 289.998557 
z
" clip-path="url(#p711e05219e)" style="fill: #0000ff"/>
   </g>
   <g id="patch_45">
    <path d="M 152.911999 295.714021 
L 199.092357 295.714021 
L 199.092357 289.998557 
L 152.911999 289.998557 
z
" clip-path="url(#p711e05219e)" style="fill: #0000ff"/>
   </g>
   <g id="patch_46">
    <path d="M 282.541074 293.070619 
L 694.113387 293.070619 
L 694.113387 292.641959 
L 282.541074 292.641959 
z
" clip-path="url(#p711e05219e)" style="fill: #0000ff"/>
   </g>
   <g id="patch_47">
    <path d="M 694.518478 295.714021 
L 952.966447 295.714021 
L 952.966447 289.998557 
L 694.518478 289.998557 
z
" clip-path="url(#p711e05219e)" style="fill: #0000ff"/>
   </g>
   <g id="patch_48">
    <path d="M 694.518478 295.714021 
L 775.131559 295.714021 
L 775.131559 289.998557 
L 694.518478 289.998557 
z
" clip-path="url(#p711e05219e)" style="fill: #0000ff"/>
   </g>
   <g id="patch_49">
    <path d="M 694.518478 295.714021 
L 753.661744 295.714021 
L 753.661744 289.998557 
L 694.518478 289.998557 
z
" clip-path="url(#p711e05219e)" style="fill: #0000ff"/>
   </g>
   <g id="patch_50">
    <path d="M 694.518478 295.714021 
L 753.661744 295.714021 
L 753.661744 289.998557 
L 694.518478 289.998557 
z
" clip-path="url(#p711e05219e)" style="fill: #0000ff"/>
   </g>
   <g id="patch_51">
    <path d="M 694.518478 295.714021 
L 773.106105 295.714021 
L 773.106105 289.998557 
L 694.518478 289.998557 
z
" clip-path="url(#p711e05219e)" style="fill: #0000ff"/>
   </g>
   <g id="patch_52">
    <path d="M 694.518478 295.714021 
L 753.661744 295.714021 
L 753.661744 289.998557 
L 694.518478 289.998557 
z
" clip-path="url(#p711e05219e)" style="fill: #0000ff"/>
   </g>
   <g id="patch_53">
    <path d="M 694.923569 295.714021 
L 838.325733 295.714021 
L 838.325733 289.998557 
L 694.923569 289.998557 
z
" clip-path="url(#p711e05219e)" style="fill: #0000ff"/>
   </g>
   <g id="patch_54">
    <path d="M 694.923569 295.714021 
L 773.106105 295.714021 
L 773.106105 289.998557 
L 694.923569 289.998557 
z
" clip-path="url(#p711e05219e)" style="fill: #0000ff"/>
   </g>
   <g id="patch_55">
    <path d="M 697.354114 295.714021 
L 830.223916 295.714021 
L 830.223916 289.998557 
L 697.354114 289.998557 
z
" clip-path="url(#p711e05219e)" style="fill: #0000ff"/>
   </g>
   <g id="patch_56">
    <path d="M 700.999932 295.714021 
L 779.587559 295.714021 
L 779.587559 289.998557 
L 700.999932 289.998557 
z
" clip-path="url(#p711e05219e)" style="fill: #0000ff"/>
   </g>
   <g id="patch_57">
    <path d="M 700.999932 295.714021 
L 770.67556 295.714021 
L 770.67556 289.998557 
L 700.999932 289.998557 
z
" clip-path="url(#p711e05219e)" style="fill: #0000ff"/>
   </g>
   <g id="patch_58">
    <path d="M 701.810114 295.714021 
L 837.515552 295.714021 
L 837.515552 289.998557 
L 701.810114 289.998557 
z
" clip-path="url(#p711e05219e)" style="fill: #0000ff"/>
   </g>
   <g id="patch_59">
    <path d="M 703.835568 295.714021 
L 838.730824 295.714021 
L 838.730824 289.998557 
L 703.835568 289.998557 
z
" clip-path="url(#p711e05219e)" style="fill: #0000ff"/>
   </g>
   <g id="patch_60">
    <path d="M 703.835568 295.714021 
L 754.471925 295.714021 
L 754.471925 289.998557 
L 703.835568 289.998557 
z
" clip-path="url(#p711e05219e)" style="fill: #0000ff"/>
   </g>
   <g id="patch_61">
    <path d="M 704.240659 295.714021 
L 835.490097 295.714021 
L 835.490097 289.998557 
L 704.240659 289.998557 
z
" clip-path="url(#p711e05219e)" style="fill: #0000ff"/>
   </g>
   <g id="patch_62">
    <path d="M 704.240659 295.714021 
L 841.161369 295.714021 
L 841.161369 289.998557 
L 704.240659 289.998557 
z
" clip-path="url(#p711e05219e)" style="fill: #0000ff"/>
   </g>
   <g id="patch_63">
    <path d="M 704.240659 295.714021 
L 769.460287 295.714021 
L 769.460287 289.998557 
L 704.240659 289.998557 
z
" clip-path="url(#p711e05219e)" style="fill: #0000ff"/>
   </g>
   <g id="patch_64">
    <path d="M 705.050841 295.714021 
L 835.085006 295.714021 
L 835.085006 289.998557 
L 705.050841 289.998557 
z
" clip-path="url(#p711e05219e)" style="fill: #0000ff"/>
   </g>
   <g id="patch_65">
    <path d="M 705.861022 295.714021 
L 766.21956 295.714021 
L 766.21956 289.998557 
L 705.861022 289.998557 
z
" clip-path="url(#p711e05219e)" style="fill: #0000ff"/>
   </g>
   <g id="patch_66">
    <path d="M 706.266113 295.714021 
L 815.640645 295.714021 
L 815.640645 289.998557 
L 706.266113 289.998557 
z
" clip-path="url(#p711e05219e)" style="fill: #0000ff"/>
   </g>
   <g id="patch_67">
    <path d="M 706.266113 295.714021 
L 831.034098 295.714021 
L 831.034098 289.998557 
L 706.266113 289.998557 
z
" clip-path="url(#p711e05219e)" style="fill: #0000ff"/>
   </g>
   <g id="patch_68">
    <path d="M 706.266113 295.714021 
L 835.895188 295.714021 
L 835.895188 289.998557 
L 706.266113 289.998557 
z
" clip-path="url(#p711e05219e)" style="fill: #0000ff"/>
   </g>
   <g id="patch_69">
    <path d="M 706.266113 295.714021 
L 767.029742 295.714021 
L 767.029742 289.998557 
L 706.266113 289.998557 
z
" clip-path="url(#p711e05219e)" style="fill: #0000ff"/>
   </g>
   <g id="patch_70">
    <path d="M 706.266113 295.714021 
L 770.270469 295.714021 
L 770.270469 289.998557 
L 706.266113 289.998557 
z
" clip-path="url(#p711e05219e)" style="fill: #0000ff"/>
   </g>
   <g id="patch_71">
    <path d="M 706.266113 295.714021 
L 753.661744 295.714021 
L 753.661744 289.998557 
L 706.266113 289.998557 
z
" clip-path="url(#p711e05219e)" style="fill: #0000ff"/>
   </g>
   <g id="patch_72">
    <path d="M 706.671204 295.714021 
L 831.439189 295.714021 
L 831.439189 289.998557 
L 706.671204 289.998557 
z
" clip-path="url(#p711e05219e)" style="fill: #0000ff"/>
   </g>
   <g id="patch_73">
    <path d="M 707.886477 295.714021 
L 836.300279 295.714021 
L 836.300279 289.998557 
L 707.886477 289.998557 
z
" clip-path="url(#p711e05219e)" style="fill: #0000ff"/>
   </g>
   <g id="patch_74">
    <path d="M 708.696658 295.714021 
L 831.034098 295.714021 
L 831.034098 289.998557 
L 708.696658 289.998557 
z
" clip-path="url(#p711e05219e)" style="fill: #0000ff"/>
   </g>
   <g id="patch_75">
    <path d="M 764.599197 295.714021 
L 836.70537 295.714021 
L 836.70537 289.998557 
L 764.599197 289.998557 
z
" clip-path="url(#p711e05219e)" style="fill: #0000ff"/>
   </g>
   <g id="patch_76">
    <path d="M 777.157014 295.714021 
L 834.679916 295.714021 
L 834.679916 289.998557 
L 777.157014 289.998557 
z
" clip-path="url(#p711e05219e)" style="fill: #0000ff"/>
   </g>
   <g id="patch_77">
    <path d="M 777.157014 295.714021 
L 831.034098 295.714021 
L 831.034098 289.998557 
L 777.157014 289.998557 
z
" clip-path="url(#p711e05219e)" style="fill: #0000ff"/>
   </g>
   <g id="patch_78">
    <path d="M 780.802831 295.714021 
L 833.869734 295.714021 
L 833.869734 289.998557 
L 780.802831 289.998557 
z
" clip-path="url(#p711e05219e)" style="fill: #0000ff"/>
   </g>
   <g id="patch_79">
    <path d="M 783.638467 295.714021 
L 831.034098 295.714021 
L 831.034098 289.998557 
L 783.638467 289.998557 
z
" clip-path="url(#p711e05219e)" style="fill: #0000ff"/>
   </g>
   <g id="patch_80">
    <path d="M 784.043558 295.714021 
L 848.047914 295.714021 
L 848.047914 289.998557 
L 784.043558 289.998557 
z
" clip-path="url(#p711e05219e)" style="fill: #0000ff"/>
   </g>
   <g id="patch_81">
    <path d="M 786.069012 295.714021 
L 831.439189 295.714021 
L 831.439189 289.998557 
L 786.069012 289.998557 
z
" clip-path="url(#p711e05219e)" style="fill: #0000ff"/>
   </g>
   <g id="patch_82">
    <path d="M 790.119921 295.714021 
L 831.034098 295.714021 
L 831.034098 289.998557 
L 790.119921 289.998557 
z
" clip-path="url(#p711e05219e)" style="fill: #0000ff"/>
   </g>
   <g id="patch_83">
    <path d="M 790.930103 295.714021 
L 834.274825 295.714021 
L 834.274825 289.998557 
L 790.930103 289.998557 
z
" clip-path="url(#p711e05219e)" style="fill: #0000ff"/>
   </g>
   <g id="patch_84">
    <path d="M 802.677738 295.714021 
L 831.034098 295.714021 
L 831.034098 289.998557 
L 802.677738 289.998557 
z
" clip-path="url(#p711e05219e)" style="fill: #0000ff"/>
   </g>
   <g id="patch_85">
    <path d="M 814.020282 295.714021 
L 831.439189 295.714021 
L 831.439189 289.998557 
L 814.020282 289.998557 
z
" clip-path="url(#p711e05219e)" style="fill: #0000ff"/>
   </g>
   <g id="patch_86">
    <path d="M 953.371537 293.070619 
L 994.285714 293.070619 
L 994.285714 292.641959 
L 953.371537 292.641959 
z
" clip-path="url(#p711e05219e)" style="fill: #0000ff"/>
   </g>
   <g id="patch_87">
    <path d="M 144 278.781959 
L 158.17818 278.781959 
L 158.17818 278.353299 
L 144 278.353299 
z
" clip-path="url(#p711e05219e)" style="fill: #0000ff"/>
   </g>
   <g id="patch_88">
    <path d="M 158.583271 281.425361 
L 304.01089 281.425361 
L 304.01089 275.709897 
L 158.583271 275.709897 
z
" clip-path="url(#p711e05219e)" style="fill: #0000ff"/>
   </g>
   <g id="patch_89">
    <path d="M 159.393453 281.425361 
L 295.503981 281.425361 
L 295.503981 275.709897 
L 159.393453 275.709897 
z
" clip-path="url(#p711e05219e)" style="fill: #0000ff"/>
   </g>
   <g id="patch_90">
    <path d="M 160.608725 281.425361 
L 295.909072 281.425361 
L 295.909072 275.709897 
L 160.608725 275.709897 
z
" clip-path="url(#p711e05219e)" style="fill: #0000ff"/>
   </g>
   <g id="patch_91">
    <path d="M 160.608725 281.425361 
L 297.124345 281.425361 
L 297.124345 275.709897 
L 160.608725 275.709897 
z
" clip-path="url(#p711e05219e)" style="fill: #0000ff"/>
   </g>
   <g id="patch_92">
    <path d="M 161.013816 281.425361 
L 297.124345 281.425361 
L 297.124345 275.709897 
L 161.013816 275.709897 
z
" clip-path="url(#p711e05219e)" style="fill: #0000ff"/>
   </g>
   <g id="patch_93">
    <path d="M 161.013816 281.425361 
L 299.149799 281.425361 
L 299.149799 275.709897 
L 161.013816 275.709897 
z
" clip-path="url(#p711e05219e)" style="fill: #0000ff"/>
   </g>
   <g id="patch_94">
    <path d="M 162.229089 281.425361 
L 290.642891 281.425361 
L 290.642891 275.709897 
L 162.229089 275.709897 
z
" clip-path="url(#p711e05219e)" style="fill: #0000ff"/>
   </g>
   <g id="patch_95">
    <path d="M 162.229089 281.425361 
L 295.098891 281.425361 
L 295.098891 275.709897 
L 162.229089 275.709897 
z
" clip-path="url(#p711e05219e)" style="fill: #0000ff"/>
   </g>
   <g id="patch_96">
    <path d="M 162.63418 281.425361 
L 295.503981 281.425361 
L 295.503981 275.709897 
L 162.63418 275.709897 
z
" clip-path="url(#p711e05219e)" style="fill: #0000ff"/>
   </g>
   <g id="patch_97">
    <path d="M 162.63418 281.425361 
L 295.503981 281.425361 
L 295.503981 275.709897 
L 162.63418 275.709897 
z
" clip-path="url(#p711e05219e)" style="fill: #0000ff"/>
   </g>
   <g id="patch_98">
    <path d="M 163.849452 281.425361 
L 295.503981 281.425361 
L 295.503981 275.709897 
L 163.849452 275.709897 
z
" clip-path="url(#p711e05219e)" style="fill: #0000ff"/>
   </g>
   <g id="patch_99">
    <path d="M 304.41598 278.781959 
L 304.821071 278.781959 
L 304.821071 278.353299 
L 304.41598 278.353299 
z
" clip-path="url(#p711e05219e)" style="fill: #0000ff"/>
   </g>
   <g id="patch_100">
    <path d="M 144 264.493299 
L 145.215273 264.493299 
L 145.215273 264.064639 
L 144 264.064639 
z
" clip-path="url(#p711e05219e)" style="fill: #0000ff"/>
   </g>
   <g id="patch_101">
    <path d="M 145.620363 267.136701 
L 316.568706 267.136701 
L 316.568706 261.421237 
L 145.620363 261.421237 
z
" clip-path="url(#p711e05219e)" style="fill: #0000ff"/>
   </g>
   <g id="patch_102">
    <path d="M 147.240727 267.136701 
L 307.656707 267.136701 
L 307.656707 261.421237 
L 147.240727 261.421237 
z
" clip-path="url(#p711e05219e)" style="fill: #0000ff"/>
   </g>
   <g id="patch_103">
    <path d="M 148.455999 267.136701 
L 309.277071 267.136701 
L 309.277071 261.421237 
L 148.455999 261.421237 
z
" clip-path="url(#p711e05219e)" style="fill: #0000ff"/>
   </g>
   <g id="patch_104">
    <path d="M 150.481454 267.136701 
L 307.251616 267.136701 
L 307.251616 261.421237 
L 150.481454 261.421237 
z
" clip-path="url(#p711e05219e)" style="fill: #0000ff"/>
   </g>
   <g id="patch_105">
    <path d="M 150.886545 267.136701 
L 290.2378 267.136701 
L 290.2378 261.421237 
L 150.886545 261.421237 
z
" clip-path="url(#p711e05219e)" style="fill: #0000ff"/>
   </g>
   <g id="patch_106">
    <path d="M 152.101817 267.136701 
L 295.909072 267.136701 
L 295.909072 261.421237 
L 152.101817 261.421237 
z
" clip-path="url(#p711e05219e)" style="fill: #0000ff"/>
   </g>
   <g id="patch_107">
    <path d="M 316.973797 264.493299 
L 329.126523 264.493299 
L 329.126523 264.064639 
L 316.973797 264.064639 
z
" clip-path="url(#p711e05219e)" style="fill: #0000ff"/>
   </g>
   <g id="patch_108">
    <path d="M 144 250.204639 
L 152.101817 250.204639 
L 152.101817 249.775979 
L 144 249.775979 
z
" clip-path="url(#p711e05219e)" style="fill: #0000ff"/>
   </g>
   <g id="patch_109">
    <path d="M 152.506908 252.848041 
L 291.047982 252.848041 
L 291.047982 247.132577 
L 152.506908 247.132577 
z
" clip-path="url(#p711e05219e)" style="fill: #0000ff"/>
   </g>
   <g id="patch_110">
    <path d="M 152.911999 252.848041 
L 293.478527 252.848041 
L 293.478527 247.132577 
L 152.911999 247.132577 
z
" clip-path="url(#p711e05219e)" style="fill: #0000ff"/>
   </g>
   <g id="patch_111">
    <path d="M 153.722181 252.848041 
L 292.668345 252.848041 
L 292.668345 247.132577 
L 153.722181 247.132577 
z
" clip-path="url(#p711e05219e)" style="fill: #0000ff"/>
   </g>
   <g id="patch_112">
    <path d="M 154.937453 252.848041 
L 292.263255 252.848041 
L 292.263255 247.132577 
L 154.937453 247.132577 
z
" clip-path="url(#p711e05219e)" style="fill: #0000ff"/>
   </g>
   <g id="patch_113">
    <path d="M 154.937453 252.848041 
L 289.832709 252.848041 
L 289.832709 247.132577 
L 154.937453 247.132577 
z
" clip-path="url(#p711e05219e)" style="fill: #0000ff"/>
   </g>
   <g id="patch_114">
    <path d="M 157.773089 252.848041 
L 290.642891 252.848041 
L 290.642891 247.132577 
L 157.773089 247.132577 
z
" clip-path="url(#p711e05219e)" style="fill: #0000ff"/>
   </g>
   <g id="patch_115">
    <path d="M 157.773089 252.848041 
L 289.022528 252.848041 
L 289.022528 247.132577 
L 157.773089 247.132577 
z
" clip-path="url(#p711e05219e)" style="fill: #0000ff"/>
   </g>
   <g id="patch_116">
    <path d="M 293.883618 250.204639 
L 299.149799 250.204639 
L 299.149799 249.775979 
L 293.883618 249.775979 
z
" clip-path="url(#p711e05219e)" style="fill: #0000ff"/>
   </g>
   <g id="patch_117">
    <path d="M 144 235.915979 
L 154.937453 235.915979 
L 154.937453 235.48732 
L 144 235.48732 
z
" clip-path="url(#p711e05219e)" style="fill: #0000ff"/>
   </g>
   <g id="patch_118">
    <path d="M 155.342544 238.559381 
L 296.314163 238.559381 
L 296.314163 232.843918 
L 155.342544 232.843918 
z
" clip-path="url(#p711e05219e)" style="fill: #0000ff"/>
   </g>
   <g id="patch_119">
    <path d="M 155.342544 238.559381 
L 298.744708 238.559381 
L 298.744708 232.843918 
L 155.342544 232.843918 
z
" clip-path="url(#p711e05219e)" style="fill: #0000ff"/>
   </g>
   <g id="patch_120">
    <path d="M 155.342544 238.559381 
L 297.529436 238.559381 
L 297.529436 232.843918 
L 155.342544 232.843918 
z
" clip-path="url(#p711e05219e)" style="fill: #0000ff"/>
   </g>
   <g id="patch_121">
    <path d="M 155.747635 238.559381 
L 295.098891 238.559381 
L 295.098891 232.843918 
L 155.747635 232.843918 
z
" clip-path="url(#p711e05219e)" style="fill: #0000ff"/>
   </g>
   <g id="patch_122">
    <path d="M 157.367998 238.559381 
L 294.288709 238.559381 
L 294.288709 232.843918 
L 157.367998 232.843918 
z
" clip-path="url(#p711e05219e)" style="fill: #0000ff"/>
   </g>
   <g id="patch_123">
    <path d="M 157.773089 238.559381 
L 280.51562 238.559381 
L 280.51562 232.843918 
L 157.773089 232.843918 
z
" clip-path="url(#p711e05219e)" style="fill: #0000ff"/>
   </g>
   <g id="patch_124">
    <path d="M 199.497448 238.559381 
L 297.529436 238.559381 
L 297.529436 232.843918 
L 199.497448 232.843918 
z
" clip-path="url(#p711e05219e)" style="fill: #0000ff"/>
   </g>
   <g id="patch_125">
    <path d="M 299.149799 235.915979 
L 302.390526 235.915979 
L 302.390526 235.48732 
L 299.149799 235.48732 
z
" clip-path="url(#p711e05219e)" style="fill: #0000ff"/>
   </g>
   <g id="patch_126">
    <path d="M 144 221.62732 
L 152.101817 221.62732 
L 152.101817 221.19866 
L 144 221.19866 
z
" clip-path="url(#p711e05219e)" style="fill: #0000ff"/>
   </g>
   <g id="patch_127">
    <path d="M 152.506908 224.270722 
L 284.161437 224.270722 
L 284.161437 218.555258 
L 152.506908 218.555258 
z
" clip-path="url(#p711e05219e)" style="fill: #0000ff"/>
   </g>
   <g id="patch_128">
    <path d="M 152.911999 224.270722 
L 284.566528 224.270722 
L 284.566528 218.555258 
L 152.911999 218.555258 
z
" clip-path="url(#p711e05219e)" style="fill: #0000ff"/>
   </g>
   <g id="patch_129">
    <path d="M 153.722181 224.270722 
L 284.161437 224.270722 
L 284.161437 218.555258 
L 153.722181 218.555258 
z
" clip-path="url(#p711e05219e)" style="fill: #0000ff"/>
   </g>
   <g id="patch_130">
    <path d="M 153.722181 224.270722 
L 284.161437 224.270722 
L 284.161437 218.555258 
L 153.722181 218.555258 
z
" clip-path="url(#p711e05219e)" style="fill: #0000ff"/>
   </g>
   <g id="patch_131">
    <path d="M 154.127271 224.270722 
L 283.756347 224.270722 
L 283.756347 218.555258 
L 154.127271 218.555258 
z
" clip-path="url(#p711e05219e)" style="fill: #0000ff"/>
   </g>
   <g id="patch_132">
    <path d="M 154.127271 224.270722 
L 283.756347 224.270722 
L 283.756347 218.555258 
L 154.127271 218.555258 
z
" clip-path="url(#p711e05219e)" style="fill: #0000ff"/>
   </g>
   <g id="patch_133">
    <path d="M 154.937453 224.270722 
L 284.161437 224.270722 
L 284.161437 218.555258 
L 154.937453 218.555258 
z
" clip-path="url(#p711e05219e)" style="fill: #0000ff"/>
   </g>
   <g id="patch_134">
    <path d="M 154.937453 224.270722 
L 284.161437 224.270722 
L 284.161437 218.555258 
L 154.937453 218.555258 
z
" clip-path="url(#p711e05219e)" style="fill: #0000ff"/>
   </g>
   <g id="patch_135">
    <path d="M 155.747635 224.270722 
L 284.161437 224.270722 
L 284.161437 218.555258 
L 155.747635 218.555258 
z
" clip-path="url(#p711e05219e)" style="fill: #0000ff"/>
   </g>
   <g id="patch_136">
    <path d="M 155.747635 224.270722 
L 284.161437 224.270722 
L 284.161437 218.555258 
L 155.747635 218.555258 
z
" clip-path="url(#p711e05219e)" style="fill: #0000ff"/>
   </g>
   <g id="patch_137">
    <path d="M 155.747635 224.270722 
L 284.161437 224.270722 
L 284.161437 218.555258 
L 155.747635 218.555258 
z
" clip-path="url(#p711e05219e)" style="fill: #0000ff"/>
   </g>
   <g id="patch_138">
    <path d="M 284.971619 221.62732 
L 302.390526 221.62732 
L 302.390526 221.19866 
L 284.971619 221.19866 
z
" clip-path="url(#p711e05219e)" style="fill: #0000ff"/>
   </g>
   <g id="patch_139">
    <path d="M 144 207.33866 
L 153.31709 207.33866 
L 153.31709 206.91 
L 144 206.91 
z
" clip-path="url(#p711e05219e)" style="fill: #0000ff"/>
   </g>
   <g id="patch_140">
    <path d="M 153.722181 209.982062 
L 289.832709 209.982062 
L 289.832709 204.266598 
L 153.722181 204.266598 
z
" clip-path="url(#p711e05219e)" style="fill: #0000ff"/>
   </g>
   <g id="patch_141">
    <path d="M 154.127271 209.982062 
L 295.098891 209.982062 
L 295.098891 204.266598 
L 154.127271 204.266598 
z
" clip-path="url(#p711e05219e)" style="fill: #0000ff"/>
   </g>
   <g id="patch_142">
    <path d="M 154.937453 209.982062 
L 291.047982 209.982062 
L 291.047982 204.266598 
L 154.937453 204.266598 
z
" clip-path="url(#p711e05219e)" style="fill: #0000ff"/>
   </g>
   <g id="patch_143">
    <path d="M 154.937453 209.982062 
L 291.453073 209.982062 
L 291.453073 204.266598 
L 154.937453 204.266598 
z
" clip-path="url(#p711e05219e)" style="fill: #0000ff"/>
   </g>
   <g id="patch_144">
    <path d="M 155.342544 209.982062 
L 291.453073 209.982062 
L 291.453073 204.266598 
L 155.342544 204.266598 
z
" clip-path="url(#p711e05219e)" style="fill: #0000ff"/>
   </g>
   <g id="patch_145">
    <path d="M 155.342544 209.982062 
L 292.263255 209.982062 
L 292.263255 204.266598 
L 155.342544 204.266598 
z
" clip-path="url(#p711e05219e)" style="fill: #0000ff"/>
   </g>
   <g id="patch_146">
    <path d="M 156.152726 209.982062 
L 290.2378 209.982062 
L 290.2378 204.266598 
L 156.152726 204.266598 
z
" clip-path="url(#p711e05219e)" style="fill: #0000ff"/>
   </g>
   <g id="patch_147">
    <path d="M 156.152726 209.982062 
L 289.427619 209.982062 
L 289.427619 204.266598 
L 156.152726 204.266598 
z
" clip-path="url(#p711e05219e)" style="fill: #0000ff"/>
   </g>
   <g id="patch_148">
    <path d="M 156.962908 209.982062 
L 289.832709 209.982062 
L 289.832709 204.266598 
L 156.962908 204.266598 
z
" clip-path="url(#p711e05219e)" style="fill: #0000ff"/>
   </g>
   <g id="patch_149">
    <path d="M 156.962908 209.982062 
L 289.832709 209.982062 
L 289.832709 204.266598 
L 156.962908 204.266598 
z
" clip-path="url(#p711e05219e)" style="fill: #0000ff"/>
   </g>
   <g id="patch_150">
    <path d="M 156.962908 209.982062 
L 289.832709 209.982062 
L 289.832709 204.266598 
L 156.962908 204.266598 
z
" clip-path="url(#p711e05219e)" style="fill: #0000ff"/>
   </g>
   <g id="patch_151">
    <path d="M 164.659634 209.982062 
L 289.832709 209.982062 
L 289.832709 204.266598 
L 164.659634 204.266598 
z
" clip-path="url(#p711e05219e)" style="fill: #0000ff"/>
   </g>
   <g id="patch_152">
    <path d="M 295.503981 207.33866 
L 295.503981 207.33866 
L 295.503981 206.91 
L 295.503981 206.91 
z
" clip-path="url(#p711e05219e)" style="fill: #0000ff"/>
   </g>
   <g id="patch_153">
    <path d="M 144 193.05 
L 152.911999 193.05 
L 152.911999 192.62134 
L 144 192.62134 
z
" clip-path="url(#p711e05219e)" style="fill: #0000ff"/>
   </g>
   <g id="patch_154">
    <path d="M 153.31709 195.693402 
L 297.529436 195.693402 
L 297.529436 189.977938 
L 153.31709 189.977938 
z
" clip-path="url(#p711e05219e)" style="fill: #0000ff"/>
   </g>
   <g id="patch_155">
    <path d="M 153.722181 195.693402 
L 304.01089 195.693402 
L 304.01089 189.977938 
L 153.722181 189.977938 
z
" clip-path="url(#p711e05219e)" style="fill: #0000ff"/>
   </g>
   <g id="patch_156">
    <path d="M 154.532362 195.693402 
L 297.124345 195.693402 
L 297.124345 189.977938 
L 154.532362 189.977938 
z
" clip-path="url(#p711e05219e)" style="fill: #0000ff"/>
   </g>
   <g id="patch_157">
    <path d="M 154.532362 195.693402 
L 299.149799 195.693402 
L 299.149799 189.977938 
L 154.532362 189.977938 
z
" clip-path="url(#p711e05219e)" style="fill: #0000ff"/>
   </g>
   <g id="patch_158">
    <path d="M 154.937453 195.693402 
L 299.149799 195.693402 
L 299.149799 189.977938 
L 154.937453 189.977938 
z
" clip-path="url(#p711e05219e)" style="fill: #0000ff"/>
   </g>
   <g id="patch_159">
    <path d="M 154.937453 195.693402 
L 301.580344 195.693402 
L 301.580344 189.977938 
L 154.937453 189.977938 
z
" clip-path="url(#p711e05219e)" style="fill: #0000ff"/>
   </g>
   <g id="patch_160">
    <path d="M 155.747635 195.693402 
L 298.339618 195.693402 
L 298.339618 189.977938 
L 155.747635 189.977938 
z
" clip-path="url(#p711e05219e)" style="fill: #0000ff"/>
   </g>
   <g id="patch_161">
    <path d="M 155.747635 195.693402 
L 298.744708 195.693402 
L 298.744708 189.977938 
L 155.747635 189.977938 
z
" clip-path="url(#p711e05219e)" style="fill: #0000ff"/>
   </g>
   <g id="patch_162">
    <path d="M 156.557817 195.693402 
L 297.124345 195.693402 
L 297.124345 189.977938 
L 156.557817 189.977938 
z
" clip-path="url(#p711e05219e)" style="fill: #0000ff"/>
   </g>
   <g id="patch_163">
    <path d="M 156.557817 195.693402 
L 297.124345 195.693402 
L 297.124345 189.977938 
L 156.557817 189.977938 
z
" clip-path="url(#p711e05219e)" style="fill: #0000ff"/>
   </g>
   <g id="patch_164">
    <path d="M 156.557817 195.693402 
L 296.719254 195.693402 
L 296.719254 189.977938 
L 156.557817 189.977938 
z
" clip-path="url(#p711e05219e)" style="fill: #0000ff"/>
   </g>
   <g id="patch_165">
    <path d="M 304.41598 193.05 
L 311.302525 193.05 
L 311.302525 192.62134 
L 304.41598 192.62134 
z
" clip-path="url(#p711e05219e)" style="fill: #0000ff"/>
   </g>
   <g id="patch_166">
    <path d="M 144 181.404742 
L 282.135983 181.404742 
L 282.135983 175.689278 
L 144 175.689278 
z
" clip-path="url(#p711e05219e)" style="fill: #0000ff"/>
   </g>
   <g id="patch_167">
    <path d="M 145.620363 181.404742 
L 274.034166 181.404742 
L 274.034166 175.689278 
L 145.620363 175.689278 
z
" clip-path="url(#p711e05219e)" style="fill: #0000ff"/>
   </g>
   <g id="patch_168">
    <path d="M 146.430545 181.404742 
L 276.05962 181.404742 
L 276.05962 175.689278 
L 146.430545 175.689278 
z
" clip-path="url(#p711e05219e)" style="fill: #0000ff"/>
   </g>
   <g id="patch_169">
    <path d="M 146.430545 181.404742 
L 276.464711 181.404742 
L 276.464711 175.689278 
L 146.430545 175.689278 
z
" clip-path="url(#p711e05219e)" style="fill: #0000ff"/>
   </g>
   <g id="patch_170">
    <path d="M 146.835636 181.404742 
L 276.464711 181.404742 
L 276.464711 175.689278 
L 146.835636 175.689278 
z
" clip-path="url(#p711e05219e)" style="fill: #0000ff"/>
   </g>
   <g id="patch_171">
    <path d="M 146.835636 181.404742 
L 278.895256 181.404742 
L 278.895256 175.689278 
L 146.835636 175.689278 
z
" clip-path="url(#p711e05219e)" style="fill: #0000ff"/>
   </g>
   <g id="patch_172">
    <path d="M 147.645818 181.404742 
L 258.640713 181.404742 
L 258.640713 175.689278 
L 147.645818 175.689278 
z
" clip-path="url(#p711e05219e)" style="fill: #0000ff"/>
   </g>
   <g id="patch_173">
    <path d="M 148.050909 181.404742 
L 275.249439 181.404742 
L 275.249439 175.689278 
L 148.050909 175.689278 
z
" clip-path="url(#p711e05219e)" style="fill: #0000ff"/>
   </g>
   <g id="patch_174">
    <path d="M 148.050909 181.404742 
L 276.05962 181.404742 
L 276.05962 175.689278 
L 148.050909 175.689278 
z
" clip-path="url(#p711e05219e)" style="fill: #0000ff"/>
   </g>
   <g id="patch_175">
    <path d="M 148.050909 181.404742 
L 276.464711 181.404742 
L 276.464711 175.689278 
L 148.050909 175.689278 
z
" clip-path="url(#p711e05219e)" style="fill: #0000ff"/>
   </g>
   <g id="patch_176">
    <path d="M 148.455999 181.404742 
L 274.034166 181.404742 
L 274.034166 175.689278 
L 148.455999 175.689278 
z
" clip-path="url(#p711e05219e)" style="fill: #0000ff"/>
   </g>
   <g id="patch_177">
    <path d="M 148.455999 181.404742 
L 274.844348 181.404742 
L 274.844348 175.689278 
L 148.455999 175.689278 
z
" clip-path="url(#p711e05219e)" style="fill: #0000ff"/>
   </g>
   <g id="patch_178">
    <path d="M 148.455999 181.404742 
L 274.844348 181.404742 
L 274.844348 175.689278 
L 148.455999 175.689278 
z
" clip-path="url(#p711e05219e)" style="fill: #0000ff"/>
   </g>
   <g id="patch_179">
    <path d="M 151.696726 181.404742 
L 269.173076 181.404742 
L 269.173076 175.689278 
L 151.696726 175.689278 
z
" clip-path="url(#p711e05219e)" style="fill: #0000ff"/>
   </g>
   <g id="patch_180">
    <path d="M 144 164.47268 
L 150.076363 164.47268 
L 150.076363 164.044021 
L 144 164.044021 
z
" clip-path="url(#p711e05219e)" style="fill: #0000ff"/>
   </g>
   <g id="patch_181">
    <path d="M 150.481454 167.116082 
L 267.147621 167.116082 
L 267.147621 161.400619 
L 150.481454 161.400619 
z
" clip-path="url(#p711e05219e)" style="fill: #0000ff"/>
   </g>
   <g id="patch_182">
    <path d="M 150.481454 167.116082 
L 278.895256 167.116082 
L 278.895256 161.400619 
L 150.481454 161.400619 
z
" clip-path="url(#p711e05219e)" style="fill: #0000ff"/>
   </g>
   <g id="patch_183">
    <path d="M 150.481454 167.116082 
L 269.578166 167.116082 
L 269.578166 161.400619 
L 150.481454 161.400619 
z
" clip-path="url(#p711e05219e)" style="fill: #0000ff"/>
   </g>
   <g id="patch_184">
    <path d="M 150.481454 167.116082 
L 283.351256 167.116082 
L 283.351256 161.400619 
L 150.481454 161.400619 
z
" clip-path="url(#p711e05219e)" style="fill: #0000ff"/>
   </g>
   <g id="patch_185">
    <path d="M 150.481454 167.116082 
L 280.110529 167.116082 
L 280.110529 161.400619 
L 150.481454 161.400619 
z
" clip-path="url(#p711e05219e)" style="fill: #0000ff"/>
   </g>
   <g id="patch_186">
    <path d="M 151.291635 167.116082 
L 274.844348 167.116082 
L 274.844348 161.400619 
L 151.291635 161.400619 
z
" clip-path="url(#p711e05219e)" style="fill: #0000ff"/>
   </g>
   <g id="patch_187">
    <path d="M 283.756347 164.47268 
L 283.756347 164.47268 
L 283.756347 164.044021 
L 283.756347 164.044021 
z
" clip-path="url(#p711e05219e)" style="fill: #0000ff"/>
   </g>
   <g id="patch_188">
    <path d="M 144 150.184021 
L 150.886545 150.184021 
L 150.886545 149.755361 
L 144 149.755361 
z
" clip-path="url(#p711e05219e)" style="fill: #0000ff"/>
   </g>
   <g id="patch_189">
    <path d="M 151.291635 152.827423 
L 269.983257 152.827423 
L 269.983257 147.111959 
L 151.291635 147.111959 
z
" clip-path="url(#p711e05219e)" style="fill: #0000ff"/>
   </g>
   <g id="patch_190">
    <path d="M 270.388348 150.184021 
L 280.51562 150.184021 
L 280.51562 149.755361 
L 270.388348 149.755361 
z
" clip-path="url(#p711e05219e)" style="fill: #0000ff"/>
   </g>
   <g id="patch_191">
    <path d="M 144 135.895361 
L 218.536718 135.895361 
L 218.536718 135.466701 
L 144 135.466701 
z
" clip-path="url(#p711e05219e)" style="fill: #0000ff"/>
   </g>
   <g id="patch_192">
    <path d="M 218.941809 138.538763 
L 343.709794 138.538763 
L 343.709794 132.823299 
L 218.941809 132.823299 
z
" clip-path="url(#p711e05219e)" style="fill: #0000ff"/>
   </g>
   <g id="patch_193">
    <path d="M 219.3469 138.538763 
L 343.304703 138.538763 
L 343.304703 132.823299 
L 219.3469 132.823299 
z
" clip-path="url(#p711e05219e)" style="fill: #0000ff"/>
   </g>
   <g id="patch_194">
    <path d="M 219.3469 138.538763 
L 343.709794 138.538763 
L 343.709794 132.823299 
L 219.3469 132.823299 
z
" clip-path="url(#p711e05219e)" style="fill: #0000ff"/>
   </g>
   <g id="patch_195">
    <path d="M 219.751991 138.538763 
L 344.114885 138.538763 
L 344.114885 132.823299 
L 219.751991 132.823299 
z
" clip-path="url(#p711e05219e)" style="fill: #0000ff"/>
   </g>
   <g id="patch_196">
    <path d="M 219.751991 138.538763 
L 345.330157 138.538763 
L 345.330157 132.823299 
L 219.751991 132.823299 
z
" clip-path="url(#p711e05219e)" style="fill: #0000ff"/>
   </g>
   <g id="patch_197">
    <path d="M 220.157082 138.538763 
L 343.709794 138.538763 
L 343.709794 132.823299 
L 220.157082 132.823299 
z
" clip-path="url(#p711e05219e)" style="fill: #0000ff"/>
   </g>
   <g id="patch_198">
    <path d="M 220.157082 138.538763 
L 342.494521 138.538763 
L 342.494521 132.823299 
L 220.157082 132.823299 
z
" clip-path="url(#p711e05219e)" style="fill: #0000ff"/>
   </g>
   <g id="patch_199">
    <path d="M 221.777445 138.538763 
L 342.08943 138.538763 
L 342.08943 132.823299 
L 221.777445 132.823299 
z
" clip-path="url(#p711e05219e)" style="fill: #0000ff"/>
   </g>
   <g id="patch_200">
    <path d="M 345.735248 135.895361 
L 368.825427 135.895361 
L 368.825427 135.466701 
L 345.735248 135.466701 
z
" clip-path="url(#p711e05219e)" style="fill: #0000ff"/>
   </g>
   <g id="patch_201">
    <path d="M 144 121.606701 
L 247.298169 121.606701 
L 247.298169 121.178041 
L 144 121.178041 
z
" clip-path="url(#p711e05219e)" style="fill: #0000ff"/>
   </g>
   <g id="patch_202">
    <path d="M 247.70326 124.250103 
L 370.445791 124.250103 
L 370.445791 118.534639 
L 247.70326 118.534639 
z
" clip-path="url(#p711e05219e)" style="fill: #0000ff"/>
   </g>
   <g id="patch_203">
    <path d="M 247.70326 124.250103 
L 370.850881 124.250103 
L 370.850881 118.534639 
L 247.70326 118.534639 
z
" clip-path="url(#p711e05219e)" style="fill: #0000ff"/>
   </g>
   <g id="patch_204">
    <path d="M 248.108351 124.250103 
L 372.471245 124.250103 
L 372.471245 118.534639 
L 248.108351 118.534639 
z
" clip-path="url(#p711e05219e)" style="fill: #0000ff"/>
   </g>
   <g id="patch_205">
    <path d="M 248.513442 124.250103 
L 370.850881 124.250103 
L 370.850881 118.534639 
L 248.513442 118.534639 
z
" clip-path="url(#p711e05219e)" style="fill: #0000ff"/>
   </g>
   <g id="patch_206">
    <path d="M 248.513442 124.250103 
L 373.281427 124.250103 
L 373.281427 118.534639 
L 248.513442 118.534639 
z
" clip-path="url(#p711e05219e)" style="fill: #0000ff"/>
   </g>
   <g id="patch_207">
    <path d="M 248.513442 124.250103 
L 371.255972 124.250103 
L 371.255972 118.534639 
L 248.513442 118.534639 
z
" clip-path="url(#p711e05219e)" style="fill: #0000ff"/>
   </g>
   <g id="patch_208">
    <path d="M 250.133805 124.250103 
L 370.0407 124.250103 
L 370.0407 118.534639 
L 250.133805 118.534639 
z
" clip-path="url(#p711e05219e)" style="fill: #0000ff"/>
   </g>
   <g id="patch_209">
    <path d="M 250.133805 124.250103 
L 369.230518 124.250103 
L 369.230518 118.534639 
L 250.133805 118.534639 
z
" clip-path="url(#p711e05219e)" style="fill: #0000ff"/>
   </g>
   <g id="patch_210">
    <path d="M 262.286531 124.250103 
L 367.610154 124.250103 
L 367.610154 118.534639 
L 262.286531 118.534639 
z
" clip-path="url(#p711e05219e)" style="fill: #0000ff"/>
   </g>
   <g id="patch_211">
    <path d="M 263.501804 124.250103 
L 370.850881 124.250103 
L 370.850881 118.534639 
L 263.501804 118.534639 
z
" clip-path="url(#p711e05219e)" style="fill: #0000ff"/>
   </g>
   <g id="patch_212">
    <path d="M 305.631253 124.250103 
L 368.420336 124.250103 
L 368.420336 118.534639 
L 305.631253 118.534639 
z
" clip-path="url(#p711e05219e)" style="fill: #0000ff"/>
   </g>
   <g id="patch_213">
    <path d="M 341.279249 124.250103 
L 368.015245 124.250103 
L 368.015245 118.534639 
L 341.279249 118.534639 
z
" clip-path="url(#p711e05219e)" style="fill: #0000ff"/>
   </g>
   <g id="patch_214">
    <path d="M 373.686517 121.606701 
L 400.827605 121.606701 
L 400.827605 121.178041 
L 373.686517 121.178041 
z
" clip-path="url(#p711e05219e)" style="fill: #0000ff"/>
   </g>
   <g id="patch_215">
    <path d="M 144 107.318041 
L 152.506908 107.318041 
L 152.506908 106.889381 
L 144 106.889381 
z
" clip-path="url(#p711e05219e)" style="fill: #0000ff"/>
   </g>
   <g id="patch_216">
    <path d="M 152.911999 109.961443 
L 242.437079 109.961443 
L 242.437079 104.245979 
L 152.911999 104.245979 
z
" clip-path="url(#p711e05219e)" style="fill: #0000ff"/>
   </g>
   <g id="patch_217">
    <path d="M 161.823998 109.961443 
L 370.850881 109.961443 
L 370.850881 104.245979 
L 161.823998 104.245979 
z
" clip-path="url(#p711e05219e)" style="fill: #0000ff"/>
   </g>
   <g id="patch_218">
    <path d="M 161.823998 109.961443 
L 369.230518 109.961443 
L 369.230518 104.245979 
L 161.823998 104.245979 
z
" clip-path="url(#p711e05219e)" style="fill: #0000ff"/>
   </g>
   <g id="patch_219">
    <path d="M 161.823998 109.961443 
L 372.066154 109.961443 
L 372.066154 104.245979 
L 161.823998 104.245979 
z
" clip-path="url(#p711e05219e)" style="fill: #0000ff"/>
   </g>
   <g id="patch_220">
    <path d="M 161.823998 109.961443 
L 372.066154 109.961443 
L 372.066154 104.245979 
L 161.823998 104.245979 
z
" clip-path="url(#p711e05219e)" style="fill: #0000ff"/>
   </g>
   <g id="patch_221">
    <path d="M 161.823998 109.961443 
L 370.445791 109.961443 
L 370.445791 104.245979 
L 161.823998 104.245979 
z
" clip-path="url(#p711e05219e)" style="fill: #0000ff"/>
   </g>
   <g id="patch_222">
    <path d="M 162.229089 109.961443 
L 353.837065 109.961443 
L 353.837065 104.245979 
L 162.229089 104.245979 
z
" clip-path="url(#p711e05219e)" style="fill: #0000ff"/>
   </g>
   <g id="patch_223">
    <path d="M 162.229089 109.961443 
L 372.066154 109.961443 
L 372.066154 104.245979 
L 162.229089 104.245979 
z
" clip-path="url(#p711e05219e)" style="fill: #0000ff"/>
   </g>
   <g id="patch_224">
    <path d="M 162.229089 109.961443 
L 369.635609 109.961443 
L 369.635609 104.245979 
L 162.229089 104.245979 
z
" clip-path="url(#p711e05219e)" style="fill: #0000ff"/>
   </g>
   <g id="patch_225">
    <path d="M 162.229089 109.961443 
L 372.066154 109.961443 
L 372.066154 104.245979 
L 162.229089 104.245979 
z
" clip-path="url(#p711e05219e)" style="fill: #0000ff"/>
   </g>
   <g id="patch_226">
    <path d="M 162.229089 109.961443 
L 371.255972 109.961443 
L 371.255972 104.245979 
L 162.229089 104.245979 
z
" clip-path="url(#p711e05219e)" style="fill: #0000ff"/>
   </g>
   <g id="patch_227">
    <path d="M 162.63418 109.961443 
L 371.255972 109.961443 
L 371.255972 104.245979 
L 162.63418 104.245979 
z
" clip-path="url(#p711e05219e)" style="fill: #0000ff"/>
   </g>
   <g id="patch_228">
    <path d="M 163.03927 109.961443 
L 371.255972 109.961443 
L 371.255972 104.245979 
L 163.03927 104.245979 
z
" clip-path="url(#p711e05219e)" style="fill: #0000ff"/>
   </g>
   <g id="patch_229">
    <path d="M 163.03927 109.961443 
L 344.925066 109.961443 
L 344.925066 104.245979 
L 163.03927 104.245979 
z
" clip-path="url(#p711e05219e)" style="fill: #0000ff"/>
   </g>
   <g id="patch_230">
    <path d="M 163.03927 109.961443 
L 370.445791 109.961443 
L 370.445791 104.245979 
L 163.03927 104.245979 
z
" clip-path="url(#p711e05219e)" style="fill: #0000ff"/>
   </g>
   <g id="patch_231">
    <path d="M 163.444361 109.961443 
L 243.652351 109.961443 
L 243.652351 104.245979 
L 163.444361 104.245979 
z
" clip-path="url(#p711e05219e)" style="fill: #0000ff"/>
   </g>
   <g id="patch_232">
    <path d="M 163.444361 109.961443 
L 348.570884 109.961443 
L 348.570884 104.245979 
L 163.444361 104.245979 
z
" clip-path="url(#p711e05219e)" style="fill: #0000ff"/>
   </g>
   <g id="patch_233">
    <path d="M 163.849452 109.961443 
L 354.647247 109.961443 
L 354.647247 104.245979 
L 163.849452 104.245979 
z
" clip-path="url(#p711e05219e)" style="fill: #0000ff"/>
   </g>
   <g id="patch_234">
    <path d="M 163.849452 109.961443 
L 371.661063 109.961443 
L 371.661063 104.245979 
L 163.849452 104.245979 
z
" clip-path="url(#p711e05219e)" style="fill: #0000ff"/>
   </g>
   <g id="patch_235">
    <path d="M 164.254543 109.961443 
L 371.255972 109.961443 
L 371.255972 104.245979 
L 164.254543 104.245979 
z
" clip-path="url(#p711e05219e)" style="fill: #0000ff"/>
   </g>
   <g id="patch_236">
    <path d="M 164.254543 109.961443 
L 252.56435 109.961443 
L 252.56435 104.245979 
L 164.254543 104.245979 
z
" clip-path="url(#p711e05219e)" style="fill: #0000ff"/>
   </g>
   <g id="patch_237">
    <path d="M 165.874906 109.961443 
L 354.242156 109.961443 
L 354.242156 104.245979 
L 165.874906 104.245979 
z
" clip-path="url(#p711e05219e)" style="fill: #0000ff"/>
   </g>
   <g id="patch_238">
    <path d="M 168.710542 109.961443 
L 329.936705 109.961443 
L 329.936705 104.245979 
L 168.710542 104.245979 
z
" clip-path="url(#p711e05219e)" style="fill: #0000ff"/>
   </g>
   <g id="patch_239">
    <path d="M 189.370176 109.961443 
L 357.887974 109.961443 
L 357.887974 104.245979 
L 189.370176 104.245979 
z
" clip-path="url(#p711e05219e)" style="fill: #0000ff"/>
   </g>
   <g id="patch_240">
    <path d="M 372.471245 107.318041 
L 372.471245 107.318041 
L 372.471245 106.889381 
L 372.471245 106.889381 
z
" clip-path="url(#p711e05219e)" style="fill: #0000ff"/>
   </g>
   <g id="patch_241">
    <path d="M 144 95.672784 
L 265.932349 95.672784 
L 265.932349 89.95732 
L 144 89.95732 
z
" clip-path="url(#p711e05219e)" style="fill: #0000ff"/>
   </g>
   <g id="patch_242">
    <path d="M 146.430545 95.672784 
L 263.096713 95.672784 
L 263.096713 89.95732 
L 146.430545 89.95732 
z
" clip-path="url(#p711e05219e)" style="fill: #0000ff"/>
   </g>
   <g id="patch_243">
    <path d="M 146.835636 95.672784 
L 260.666168 95.672784 
L 260.666168 89.95732 
L 146.835636 89.95732 
z
" clip-path="url(#p711e05219e)" style="fill: #0000ff"/>
   </g>
   <g id="patch_244">
    <path d="M 148.050909 95.672784 
L 261.071258 95.672784 
L 261.071258 89.95732 
L 148.050909 89.95732 
z
" clip-path="url(#p711e05219e)" style="fill: #0000ff"/>
   </g>
   <g id="patch_245">
    <path d="M 144 78.740722 
L 147.645818 78.740722 
L 147.645818 78.312062 
L 144 78.312062 
z
" clip-path="url(#p711e05219e)" style="fill: #0000ff"/>
   </g>
   <g id="patch_246">
    <path d="M 148.050909 81.384124 
L 256.615259 81.384124 
L 256.615259 75.66866 
L 148.050909 75.66866 
z
" clip-path="url(#p711e05219e)" style="fill: #0000ff"/>
   </g>
   <g id="patch_247">
    <path d="M 148.050909 81.384124 
L 266.74253 81.384124 
L 266.74253 75.66866 
L 148.050909 75.66866 
z
" clip-path="url(#p711e05219e)" style="fill: #0000ff"/>
   </g>
   <g id="patch_248">
    <path d="M 157.773089 81.384124 
L 265.932349 81.384124 
L 265.932349 75.66866 
L 157.773089 75.66866 
z
" clip-path="url(#p711e05219e)" style="fill: #0000ff"/>
   </g>
   <g id="patch_249">
    <path d="M 160.203634 81.384124 
L 268.362894 81.384124 
L 268.362894 75.66866 
L 160.203634 75.66866 
z
" clip-path="url(#p711e05219e)" style="fill: #0000ff"/>
   </g>
   <g id="patch_250">
    <path d="M 162.63418 81.384124 
L 257.425441 81.384124 
L 257.425441 75.66866 
L 162.63418 75.66866 
z
" clip-path="url(#p711e05219e)" style="fill: #0000ff"/>
   </g>
   <g id="patch_251">
    <path d="M 268.767985 78.740722 
L 270.793439 78.740722 
L 270.793439 78.312062 
L 268.767985 78.312062 
z
" clip-path="url(#p711e05219e)" style="fill: #0000ff"/>
   </g>
   <g id="patch_252">
    <path d="M 144 64.452062 
L 145.215273 64.452062 
L 145.215273 64.023402 
L 144 64.023402 
z
" clip-path="url(#p711e05219e)" style="fill: #0000ff"/>
   </g>
   <g id="patch_253">
    <path d="M 145.620363 67.095464 
L 269.983257 67.095464 
L 269.983257 61.38 
L 145.620363 61.38 
z
" clip-path="url(#p711e05219e)" style="fill: #0000ff"/>
   </g>
   <g id="patch_254">
    <path d="M 146.430545 67.095464 
L 265.122167 67.095464 
L 265.122167 61.38 
L 146.430545 61.38 
z
" clip-path="url(#p711e05219e)" style="fill: #0000ff"/>
   </g>
   <g id="patch_255">
    <path d="M 146.430545 67.095464 
L 267.552712 67.095464 
L 267.552712 61.38 
L 146.430545 61.38 
z
" clip-path="url(#p711e05219e)" style="fill: #0000ff"/>
   </g>
   <g id="patch_256">
    <path d="M 147.240727 67.095464 
L 265.932349 67.095464 
L 265.932349 61.38 
L 147.240727 61.38 
z
" clip-path="url(#p711e05219e)" style="fill: #0000ff"/>
   </g>
   <g id="patch_257">
    <path d="M 147.645818 67.095464 
L 264.311985 67.095464 
L 264.311985 61.38 
L 147.645818 61.38 
z
" clip-path="url(#p711e05219e)" style="fill: #0000ff"/>
   </g>
   <g id="patch_258">
    <path d="M 149.266181 67.095464 
L 265.932349 67.095464 
L 265.932349 61.38 
L 149.266181 61.38 
z
" clip-path="url(#p711e05219e)" style="fill: #0000ff"/>
   </g>
   <g id="patch_259">
    <path d="M 150.076363 67.095464 
L 265.932349 67.095464 
L 265.932349 61.38 
L 150.076363 61.38 
z
" clip-path="url(#p711e05219e)" style="fill: #0000ff"/>
   </g>
   <g id="patch_260">
    <path d="M 270.388348 64.452062 
L 278.085075 64.452062 
L 278.085075 64.023402 
L 270.388348 64.023402 
z
" clip-path="url(#p711e05219e)" style="fill: #0000ff"/>
   </g>
   <g id="matplotlib.axis_1">
    <g id="xtick_1">
     <g id="line2d_1">
      <defs>
       <path id="mc806a55e2c" d="M 0 0 
L 0 3.5 
" style="stroke: #000000; stroke-width: 0.8"/>
      </defs>
      <g>
       <use xlink:href="#mc806a55e2c" x="244.867624" y="352.44" style="stroke: #000000; stroke-width: 0.8"/>
      </g>
     </g>
     <g id="text_1">
      <!-- 250 -->
      <g transform="translate(235.323874 367.038437) scale(0.1 -0.1)">
       <defs>
        <path id="DejaVuSans-32" d="M 1228 531 
L 3431 531 
L 3431 0 
L 469 0 
L 469 531 
Q 828 903 1448 1529 
Q 2069 2156 2228 2338 
Q 2531 2678 2651 2914 
Q 2772 3150 2772 3378 
Q 2772 3750 2511 3984 
Q 2250 4219 1831 4219 
Q 1534 4219 1204 4116 
Q 875 4013 500 3803 
L 500 4441 
Q 881 4594 1212 4672 
Q 1544 4750 1819 4750 
Q 2544 4750 2975 4387 
Q 3406 4025 3406 3419 
Q 3406 3131 3298 2873 
Q 3191 2616 2906 2266 
Q 2828 2175 2409 1742 
Q 1991 1309 1228 531 
z
" transform="scale(0.015625)"/>
        <path id="DejaVuSans-35" d="M 691 4666 
L 3169 4666 
L 3169 4134 
L 1269 4134 
L 1269 2991 
Q 1406 3038 1543 3061 
Q 1681 3084 1819 3084 
Q 2600 3084 3056 2656 
Q 3513 2228 3513 1497 
Q 3513 744 3044 326 
Q 2575 -91 1722 -91 
Q 1428 -91 1123 -41 
Q 819 9 494 109 
L 494 744 
Q 775 591 1075 516 
Q 1375 441 1709 441 
Q 2250 441 2565 725 
Q 2881 1009 2881 1497 
Q 2881 1984 2565 2268 
Q 2250 2553 1709 2553 
Q 1456 2553 1204 2497 
Q 953 2441 691 2322 
L 691 4666 
z
" transform="scale(0.015625)"/>
        <path id="DejaVuSans-30" d="M 2034 4250 
Q 1547 4250 1301 3770 
Q 1056 3291 1056 2328 
Q 1056 1369 1301 889 
Q 1547 409 2034 409 
Q 2525 409 2770 889 
Q 3016 1369 3016 2328 
Q 3016 3291 2770 3770 
Q 2525 4250 2034 4250 
z
M 2034 4750 
Q 2819 4750 3233 4129 
Q 3647 3509 3647 2328 
Q 3647 1150 3233 529 
Q 2819 -91 2034 -91 
Q 1250 -91 836 529 
Q 422 1150 422 2328 
Q 422 3509 836 4129 
Q 1250 4750 2034 4750 
z
" transform="scale(0.015625)"/>
       </defs>
       <use xlink:href="#DejaVuSans-32"/>
       <use xlink:href="#DejaVuSans-35" x="63.623047"/>
       <use xlink:href="#DejaVuSans-30" x="127.246094"/>
      </g>
     </g>
    </g>
    <g id="xtick_2">
     <g id="line2d_2">
      <g>
       <use xlink:href="#mc806a55e2c" x="346.140339" y="352.44" style="stroke: #000000; stroke-width: 0.8"/>
      </g>
     </g>
     <g id="text_2">
      <!-- 500 -->
      <g transform="translate(336.596589 367.038437) scale(0.1 -0.1)">
       <use xlink:href="#DejaVuSans-35"/>
       <use xlink:href="#DejaVuSans-30" x="63.623047"/>
       <use xlink:href="#DejaVuSans-30" x="127.246094"/>
      </g>
     </g>
    </g>
    <g id="xtick_3">
     <g id="line2d_3">
      <g>
       <use xlink:href="#mc806a55e2c" x="447.413054" y="352.44" style="stroke: #000000; stroke-width: 0.8"/>
      </g>
     </g>
     <g id="text_3">
      <!-- 750 -->
      <g transform="translate(437.869304 367.038437) scale(0.1 -0.1)">
       <defs>
        <path id="DejaVuSans-37" d="M 525 4666 
L 3525 4666 
L 3525 4397 
L 1831 0 
L 1172 0 
L 2766 4134 
L 525 4134 
L 525 4666 
z
" transform="scale(0.015625)"/>
       </defs>
       <use xlink:href="#DejaVuSans-37"/>
       <use xlink:href="#DejaVuSans-35" x="63.623047"/>
       <use xlink:href="#DejaVuSans-30" x="127.246094"/>
      </g>
     </g>
    </g>
    <g id="xtick_4">
     <g id="line2d_4">
      <g>
       <use xlink:href="#mc806a55e2c" x="548.685769" y="352.44" style="stroke: #000000; stroke-width: 0.8"/>
      </g>
     </g>
     <g id="text_4">
      <!-- 1000 -->
      <g transform="translate(535.960769 367.038437) scale(0.1 -0.1)">
       <defs>
        <path id="DejaVuSans-31" d="M 794 531 
L 1825 531 
L 1825 4091 
L 703 3866 
L 703 4441 
L 1819 4666 
L 2450 4666 
L 2450 531 
L 3481 531 
L 3481 0 
L 794 0 
L 794 531 
z
" transform="scale(0.015625)"/>
       </defs>
       <use xlink:href="#DejaVuSans-31"/>
       <use xlink:href="#DejaVuSans-30" x="63.623047"/>
       <use xlink:href="#DejaVuSans-30" x="127.246094"/>
       <use xlink:href="#DejaVuSans-30" x="190.869141"/>
      </g>
     </g>
    </g>
    <g id="xtick_5">
     <g id="line2d_5">
      <g>
       <use xlink:href="#mc806a55e2c" x="649.958484" y="352.44" style="stroke: #000000; stroke-width: 0.8"/>
      </g>
     </g>
     <g id="text_5">
      <!-- 1250 -->
      <g transform="translate(637.233484 367.038437) scale(0.1 -0.1)">
       <use xlink:href="#DejaVuSans-31"/>
       <use xlink:href="#DejaVuSans-32" x="63.623047"/>
       <use xlink:href="#DejaVuSans-35" x="127.246094"/>
       <use xlink:href="#DejaVuSans-30" x="190.869141"/>
      </g>
     </g>
    </g>
    <g id="xtick_6">
     <g id="line2d_6">
      <g>
       <use xlink:href="#mc806a55e2c" x="751.231199" y="352.44" style="stroke: #000000; stroke-width: 0.8"/>
      </g>
     </g>
     <g id="text_6">
      <!-- 1500 -->
      <g transform="translate(738.506199 367.038437) scale(0.1 -0.1)">
       <use xlink:href="#DejaVuSans-31"/>
       <use xlink:href="#DejaVuSans-35" x="63.623047"/>
       <use xlink:href="#DejaVuSans-30" x="127.246094"/>
       <use xlink:href="#DejaVuSans-30" x="190.869141"/>
      </g>
     </g>
    </g>
    <g id="xtick_7">
     <g id="line2d_7">
      <g>
       <use xlink:href="#mc806a55e2c" x="852.503913" y="352.44" style="stroke: #000000; stroke-width: 0.8"/>
      </g>
     </g>
     <g id="text_7">
      <!-- 1750 -->
      <g transform="translate(839.778913 367.038437) scale(0.1 -0.1)">
       <use xlink:href="#DejaVuSans-31"/>
       <use xlink:href="#DejaVuSans-37" x="63.623047"/>
       <use xlink:href="#DejaVuSans-35" x="127.246094"/>
       <use xlink:href="#DejaVuSans-30" x="190.869141"/>
      </g>
     </g>
    </g>
    <g id="xtick_8">
     <g id="line2d_8">
      <g>
       <use xlink:href="#mc806a55e2c" x="953.776628" y="352.44" style="stroke: #000000; stroke-width: 0.8"/>
      </g>
     </g>
     <g id="text_8">
      <!-- 2000 -->
      <g transform="translate(941.051628 367.038437) scale(0.1 -0.1)">
       <use xlink:href="#DejaVuSans-32"/>
       <use xlink:href="#DejaVuSans-30" x="63.623047"/>
       <use xlink:href="#DejaVuSans-30" x="127.246094"/>
       <use xlink:href="#DejaVuSans-30" x="190.869141"/>
      </g>
     </g>
    </g>
    <g id="text_9">
     <!-- Residual -->
     <g transform="translate(569.284375 380.716563) scale(0.1 -0.1)">
      <defs>
       <path id="DejaVuSans-52" d="M 2841 2188 
Q 3044 2119 3236 1894 
Q 3428 1669 3622 1275 
L 4263 0 
L 3584 0 
L 2988 1197 
Q 2756 1666 2539 1819 
Q 2322 1972 1947 1972 
L 1259 1972 
L 1259 0 
L 628 0 
L 628 4666 
L 2053 4666 
Q 2853 4666 3247 4331 
Q 3641 3997 3641 3322 
Q 3641 2881 3436 2590 
Q 3231 2300 2841 2188 
z
M 1259 4147 
L 1259 2491 
L 2053 2491 
Q 2509 2491 2742 2702 
Q 2975 2913 2975 3322 
Q 2975 3731 2742 3939 
Q 2509 4147 2053 4147 
L 1259 4147 
z
" transform="scale(0.015625)"/>
       <path id="DejaVuSans-65" d="M 3597 1894 
L 3597 1613 
L 953 1613 
Q 991 1019 1311 708 
Q 1631 397 2203 397 
Q 2534 397 2845 478 
Q 3156 559 3463 722 
L 3463 178 
Q 3153 47 2828 -22 
Q 2503 -91 2169 -91 
Q 1331 -91 842 396 
Q 353 884 353 1716 
Q 353 2575 817 3079 
Q 1281 3584 2069 3584 
Q 2775 3584 3186 3129 
Q 3597 2675 3597 1894 
z
M 3022 2063 
Q 3016 2534 2758 2815 
Q 2500 3097 2075 3097 
Q 1594 3097 1305 2825 
Q 1016 2553 972 2059 
L 3022 2063 
z
" transform="scale(0.015625)"/>
       <path id="DejaVuSans-73" d="M 2834 3397 
L 2834 2853 
Q 2591 2978 2328 3040 
Q 2066 3103 1784 3103 
Q 1356 3103 1142 2972 
Q 928 2841 928 2578 
Q 928 2378 1081 2264 
Q 1234 2150 1697 2047 
L 1894 2003 
Q 2506 1872 2764 1633 
Q 3022 1394 3022 966 
Q 3022 478 2636 193 
Q 2250 -91 1575 -91 
Q 1294 -91 989 -36 
Q 684 19 347 128 
L 347 722 
Q 666 556 975 473 
Q 1284 391 1588 391 
Q 1994 391 2212 530 
Q 2431 669 2431 922 
Q 2431 1156 2273 1281 
Q 2116 1406 1581 1522 
L 1381 1569 
Q 847 1681 609 1914 
Q 372 2147 372 2553 
Q 372 3047 722 3315 
Q 1072 3584 1716 3584 
Q 2034 3584 2315 3537 
Q 2597 3491 2834 3397 
z
" transform="scale(0.015625)"/>
       <path id="DejaVuSans-69" d="M 603 3500 
L 1178 3500 
L 1178 0 
L 603 0 
L 603 3500 
z
M 603 4863 
L 1178 4863 
L 1178 4134 
L 603 4134 
L 603 4863 
z
" transform="scale(0.015625)"/>
       <path id="DejaVuSans-64" d="M 2906 2969 
L 2906 4863 
L 3481 4863 
L 3481 0 
L 2906 0 
L 2906 525 
Q 2725 213 2448 61 
Q 2172 -91 1784 -91 
Q 1150 -91 751 415 
Q 353 922 353 1747 
Q 353 2572 751 3078 
Q 1150 3584 1784 3584 
Q 2172 3584 2448 3432 
Q 2725 3281 2906 2969 
z
M 947 1747 
Q 947 1113 1208 752 
Q 1469 391 1925 391 
Q 2381 391 2643 752 
Q 2906 1113 2906 1747 
Q 2906 2381 2643 2742 
Q 2381 3103 1925 3103 
Q 1469 3103 1208 2742 
Q 947 2381 947 1747 
z
" transform="scale(0.015625)"/>
       <path id="DejaVuSans-75" d="M 544 1381 
L 544 3500 
L 1119 3500 
L 1119 1403 
Q 1119 906 1312 657 
Q 1506 409 1894 409 
Q 2359 409 2629 706 
Q 2900 1003 2900 1516 
L 2900 3500 
L 3475 3500 
L 3475 0 
L 2900 0 
L 2900 538 
Q 2691 219 2414 64 
Q 2138 -91 1772 -91 
Q 1169 -91 856 284 
Q 544 659 544 1381 
z
M 1991 3584 
L 1991 3584 
z
" transform="scale(0.015625)"/>
       <path id="DejaVuSans-61" d="M 2194 1759 
Q 1497 1759 1228 1600 
Q 959 1441 959 1056 
Q 959 750 1161 570 
Q 1363 391 1709 391 
Q 2188 391 2477 730 
Q 2766 1069 2766 1631 
L 2766 1759 
L 2194 1759 
z
M 3341 1997 
L 3341 0 
L 2766 0 
L 2766 531 
Q 2569 213 2275 61 
Q 1981 -91 1556 -91 
Q 1019 -91 701 211 
Q 384 513 384 1019 
Q 384 1609 779 1909 
Q 1175 2209 1959 2209 
L 2766 2209 
L 2766 2266 
Q 2766 2663 2505 2880 
Q 2244 3097 1772 3097 
Q 1472 3097 1187 3025 
Q 903 2953 641 2809 
L 641 3341 
Q 956 3463 1253 3523 
Q 1550 3584 1831 3584 
Q 2591 3584 2966 3190 
Q 3341 2797 3341 1997 
z
" transform="scale(0.015625)"/>
       <path id="DejaVuSans-6c" d="M 603 4863 
L 1178 4863 
L 1178 0 
L 603 0 
L 603 4863 
z
" transform="scale(0.015625)"/>
      </defs>
      <use xlink:href="#DejaVuSans-52"/>
      <use xlink:href="#DejaVuSans-65" x="64.982422"/>
      <use xlink:href="#DejaVuSans-73" x="126.505859"/>
      <use xlink:href="#DejaVuSans-69" x="178.605469"/>
      <use xlink:href="#DejaVuSans-64" x="206.388672"/>
      <use xlink:href="#DejaVuSans-75" x="269.865234"/>
      <use xlink:href="#DejaVuSans-61" x="333.244141"/>
      <use xlink:href="#DejaVuSans-6c" x="394.523438"/>
     </g>
    </g>
   </g>
   <g id="matplotlib.axis_2">
    <g id="ytick_1">
     <g id="line2d_9">
      <defs>
       <path id="m6a08909bb4" d="M 0 0 
L -3.5 0 
" style="stroke: #000000; stroke-width: 0.8"/>
      </defs>
      <g>
       <use xlink:href="#m6a08909bb4" x="144" y="335.722268" style="stroke: #000000; stroke-width: 0.8"/>
      </g>
     </g>
     <g id="text_10">
      <!-- 2.A.16.1.1 -->
      <g transform="translate(85.809375 339.521487) scale(0.1 -0.1)">
       <defs>
        <path id="DejaVuSans-2e" d="M 684 794 
L 1344 794 
L 1344 0 
L 684 0 
L 684 794 
z
" transform="scale(0.015625)"/>
        <path id="DejaVuSans-41" d="M 2188 4044 
L 1331 1722 
L 3047 1722 
L 2188 4044 
z
M 1831 4666 
L 2547 4666 
L 4325 0 
L 3669 0 
L 3244 1197 
L 1141 1197 
L 716 0 
L 50 0 
L 1831 4666 
z
" transform="scale(0.015625)"/>
        <path id="DejaVuSans-36" d="M 2113 2584 
Q 1688 2584 1439 2293 
Q 1191 2003 1191 1497 
Q 1191 994 1439 701 
Q 1688 409 2113 409 
Q 2538 409 2786 701 
Q 3034 994 3034 1497 
Q 3034 2003 2786 2293 
Q 2538 2584 2113 2584 
z
M 3366 4563 
L 3366 3988 
Q 3128 4100 2886 4159 
Q 2644 4219 2406 4219 
Q 1781 4219 1451 3797 
Q 1122 3375 1075 2522 
Q 1259 2794 1537 2939 
Q 1816 3084 2150 3084 
Q 2853 3084 3261 2657 
Q 3669 2231 3669 1497 
Q 3669 778 3244 343 
Q 2819 -91 2113 -91 
Q 1303 -91 875 529 
Q 447 1150 447 2328 
Q 447 3434 972 4092 
Q 1497 4750 2381 4750 
Q 2619 4750 2861 4703 
Q 3103 4656 3366 4563 
z
" transform="scale(0.015625)"/>
       </defs>
       <use xlink:href="#DejaVuSans-32"/>
       <use xlink:href="#DejaVuSans-2e" x="63.623047"/>
       <use xlink:href="#DejaVuSans-41" x="95.410156"/>
       <use xlink:href="#DejaVuSans-2e" x="162.068359"/>
       <use xlink:href="#DejaVuSans-31" x="193.855469"/>
       <use xlink:href="#DejaVuSans-36" x="257.478516"/>
       <use xlink:href="#DejaVuSans-2e" x="321.101562"/>
       <use xlink:href="#DejaVuSans-31" x="352.888672"/>
       <use xlink:href="#DejaVuSans-2e" x="416.511719"/>
       <use xlink:href="#DejaVuSans-31" x="448.298828"/>
      </g>
     </g>
    </g>
    <g id="ytick_2">
     <g id="line2d_10">
      <g>
       <use xlink:href="#m6a08909bb4" x="144" y="321.433608" style="stroke: #000000; stroke-width: 0.8"/>
      </g>
     </g>
     <g id="text_11">
      <!-- 2.A.16.1.2 -->
      <g transform="translate(85.809375 325.232827) scale(0.1 -0.1)">
       <use xlink:href="#DejaVuSans-32"/>
       <use xlink:href="#DejaVuSans-2e" x="63.623047"/>
       <use xlink:href="#DejaVuSans-41" x="95.410156"/>
       <use xlink:href="#DejaVuSans-2e" x="162.068359"/>
       <use xlink:href="#DejaVuSans-31" x="193.855469"/>
       <use xlink:href="#DejaVuSans-36" x="257.478516"/>
       <use xlink:href="#DejaVuSans-2e" x="321.101562"/>
       <use xlink:href="#DejaVuSans-31" x="352.888672"/>
       <use xlink:href="#DejaVuSans-2e" x="416.511719"/>
       <use xlink:href="#DejaVuSans-32" x="448.298828"/>
      </g>
     </g>
    </g>
    <g id="ytick_3">
     <g id="line2d_11">
      <g>
       <use xlink:href="#m6a08909bb4" x="144" y="307.144948" style="stroke: #000000; stroke-width: 0.8"/>
      </g>
     </g>
     <g id="text_12">
      <!-- 2.A.16.2.1 -->
      <g transform="translate(85.809375 310.944167) scale(0.1 -0.1)">
       <use xlink:href="#DejaVuSans-32"/>
       <use xlink:href="#DejaVuSans-2e" x="63.623047"/>
       <use xlink:href="#DejaVuSans-41" x="95.410156"/>
       <use xlink:href="#DejaVuSans-2e" x="162.068359"/>
       <use xlink:href="#DejaVuSans-31" x="193.855469"/>
       <use xlink:href="#DejaVuSans-36" x="257.478516"/>
       <use xlink:href="#DejaVuSans-2e" x="321.101562"/>
       <use xlink:href="#DejaVuSans-32" x="352.888672"/>
       <use xlink:href="#DejaVuSans-2e" x="416.511719"/>
       <use xlink:href="#DejaVuSans-31" x="448.298828"/>
      </g>
     </g>
    </g>
    <g id="ytick_4">
     <g id="line2d_12">
      <g>
       <use xlink:href="#m6a08909bb4" x="144" y="292.856289" style="stroke: #000000; stroke-width: 0.8"/>
      </g>
     </g>
     <g id="text_13">
      <!-- 2.A.16.2.2 -->
      <g transform="translate(85.809375 296.655507) scale(0.1 -0.1)">
       <use xlink:href="#DejaVuSans-32"/>
       <use xlink:href="#DejaVuSans-2e" x="63.623047"/>
       <use xlink:href="#DejaVuSans-41" x="95.410156"/>
       <use xlink:href="#DejaVuSans-2e" x="162.068359"/>
       <use xlink:href="#DejaVuSans-31" x="193.855469"/>
       <use xlink:href="#DejaVuSans-36" x="257.478516"/>
       <use xlink:href="#DejaVuSans-2e" x="321.101562"/>
       <use xlink:href="#DejaVuSans-32" x="352.888672"/>
       <use xlink:href="#DejaVuSans-2e" x="416.511719"/>
       <use xlink:href="#DejaVuSans-32" x="448.298828"/>
      </g>
     </g>
    </g>
    <g id="ytick_5">
     <g id="line2d_13">
      <g>
       <use xlink:href="#m6a08909bb4" x="144" y="278.567629" style="stroke: #000000; stroke-width: 0.8"/>
      </g>
     </g>
     <g id="text_14">
      <!-- 2.A.16.2.3 -->
      <g transform="translate(85.809375 282.366848) scale(0.1 -0.1)">
       <defs>
        <path id="DejaVuSans-33" d="M 2597 2516 
Q 3050 2419 3304 2112 
Q 3559 1806 3559 1356 
Q 3559 666 3084 287 
Q 2609 -91 1734 -91 
Q 1441 -91 1130 -33 
Q 819 25 488 141 
L 488 750 
Q 750 597 1062 519 
Q 1375 441 1716 441 
Q 2309 441 2620 675 
Q 2931 909 2931 1356 
Q 2931 1769 2642 2001 
Q 2353 2234 1838 2234 
L 1294 2234 
L 1294 2753 
L 1863 2753 
Q 2328 2753 2575 2939 
Q 2822 3125 2822 3475 
Q 2822 3834 2567 4026 
Q 2313 4219 1838 4219 
Q 1578 4219 1281 4162 
Q 984 4106 628 3988 
L 628 4550 
Q 988 4650 1302 4700 
Q 1616 4750 1894 4750 
Q 2613 4750 3031 4423 
Q 3450 4097 3450 3541 
Q 3450 3153 3228 2886 
Q 3006 2619 2597 2516 
z
" transform="scale(0.015625)"/>
       </defs>
       <use xlink:href="#DejaVuSans-32"/>
       <use xlink:href="#DejaVuSans-2e" x="63.623047"/>
       <use xlink:href="#DejaVuSans-41" x="95.410156"/>
       <use xlink:href="#DejaVuSans-2e" x="162.068359"/>
       <use xlink:href="#DejaVuSans-31" x="193.855469"/>
       <use xlink:href="#DejaVuSans-36" x="257.478516"/>
       <use xlink:href="#DejaVuSans-2e" x="321.101562"/>
       <use xlink:href="#DejaVuSans-32" x="352.888672"/>
       <use xlink:href="#DejaVuSans-2e" x="416.511719"/>
       <use xlink:href="#DejaVuSans-33" x="448.298828"/>
      </g>
     </g>
    </g>
    <g id="ytick_6">
     <g id="line2d_14">
      <g>
       <use xlink:href="#m6a08909bb4" x="144" y="264.278969" style="stroke: #000000; stroke-width: 0.8"/>
      </g>
     </g>
     <g id="text_15">
      <!-- 2.A.16.3.1 -->
      <g transform="translate(85.809375 268.078188) scale(0.1 -0.1)">
       <use xlink:href="#DejaVuSans-32"/>
       <use xlink:href="#DejaVuSans-2e" x="63.623047"/>
       <use xlink:href="#DejaVuSans-41" x="95.410156"/>
       <use xlink:href="#DejaVuSans-2e" x="162.068359"/>
       <use xlink:href="#DejaVuSans-31" x="193.855469"/>
       <use xlink:href="#DejaVuSans-36" x="257.478516"/>
       <use xlink:href="#DejaVuSans-2e" x="321.101562"/>
       <use xlink:href="#DejaVuSans-33" x="352.888672"/>
       <use xlink:href="#DejaVuSans-2e" x="416.511719"/>
       <use xlink:href="#DejaVuSans-31" x="448.298828"/>
      </g>
     </g>
    </g>
    <g id="ytick_7">
     <g id="line2d_15">
      <g>
       <use xlink:href="#m6a08909bb4" x="144" y="249.990309" style="stroke: #000000; stroke-width: 0.8"/>
      </g>
     </g>
     <g id="text_16">
      <!-- 2.A.16.3.2 -->
      <g transform="translate(85.809375 253.789528) scale(0.1 -0.1)">
       <use xlink:href="#DejaVuSans-32"/>
       <use xlink:href="#DejaVuSans-2e" x="63.623047"/>
       <use xlink:href="#DejaVuSans-41" x="95.410156"/>
       <use xlink:href="#DejaVuSans-2e" x="162.068359"/>
       <use xlink:href="#DejaVuSans-31" x="193.855469"/>
       <use xlink:href="#DejaVuSans-36" x="257.478516"/>
       <use xlink:href="#DejaVuSans-2e" x="321.101562"/>
       <use xlink:href="#DejaVuSans-33" x="352.888672"/>
       <use xlink:href="#DejaVuSans-2e" x="416.511719"/>
       <use xlink:href="#DejaVuSans-32" x="448.298828"/>
      </g>
     </g>
    </g>
    <g id="ytick_8">
     <g id="line2d_16">
      <g>
       <use xlink:href="#m6a08909bb4" x="144" y="235.701649" style="stroke: #000000; stroke-width: 0.8"/>
      </g>
     </g>
     <g id="text_17">
      <!-- 2.A.16.3.3 -->
      <g transform="translate(85.809375 239.500868) scale(0.1 -0.1)">
       <use xlink:href="#DejaVuSans-32"/>
       <use xlink:href="#DejaVuSans-2e" x="63.623047"/>
       <use xlink:href="#DejaVuSans-41" x="95.410156"/>
       <use xlink:href="#DejaVuSans-2e" x="162.068359"/>
       <use xlink:href="#DejaVuSans-31" x="193.855469"/>
       <use xlink:href="#DejaVuSans-36" x="257.478516"/>
       <use xlink:href="#DejaVuSans-2e" x="321.101562"/>
       <use xlink:href="#DejaVuSans-33" x="352.888672"/>
       <use xlink:href="#DejaVuSans-2e" x="416.511719"/>
       <use xlink:href="#DejaVuSans-33" x="448.298828"/>
      </g>
     </g>
    </g>
    <g id="ytick_9">
     <g id="line2d_17">
      <g>
       <use xlink:href="#m6a08909bb4" x="144" y="221.41299" style="stroke: #000000; stroke-width: 0.8"/>
      </g>
     </g>
     <g id="text_18">
      <!-- 2.A.16.4.1 -->
      <g transform="translate(85.809375 225.212208) scale(0.1 -0.1)">
       <defs>
        <path id="DejaVuSans-34" d="M 2419 4116 
L 825 1625 
L 2419 1625 
L 2419 4116 
z
M 2253 4666 
L 3047 4666 
L 3047 1625 
L 3713 1625 
L 3713 1100 
L 3047 1100 
L 3047 0 
L 2419 0 
L 2419 1100 
L 313 1100 
L 313 1709 
L 2253 4666 
z
" transform="scale(0.015625)"/>
       </defs>
       <use xlink:href="#DejaVuSans-32"/>
       <use xlink:href="#DejaVuSans-2e" x="63.623047"/>
       <use xlink:href="#DejaVuSans-41" x="95.410156"/>
       <use xlink:href="#DejaVuSans-2e" x="162.068359"/>
       <use xlink:href="#DejaVuSans-31" x="193.855469"/>
       <use xlink:href="#DejaVuSans-36" x="257.478516"/>
       <use xlink:href="#DejaVuSans-2e" x="321.101562"/>
       <use xlink:href="#DejaVuSans-34" x="352.888672"/>
       <use xlink:href="#DejaVuSans-2e" x="416.511719"/>
       <use xlink:href="#DejaVuSans-31" x="448.298828"/>
      </g>
     </g>
    </g>
    <g id="ytick_10">
     <g id="line2d_18">
      <g>
       <use xlink:href="#m6a08909bb4" x="144" y="207.12433" style="stroke: #000000; stroke-width: 0.8"/>
      </g>
     </g>
     <g id="text_19">
      <!-- 2.A.16.4.2 -->
      <g transform="translate(85.809375 210.923549) scale(0.1 -0.1)">
       <use xlink:href="#DejaVuSans-32"/>
       <use xlink:href="#DejaVuSans-2e" x="63.623047"/>
       <use xlink:href="#DejaVuSans-41" x="95.410156"/>
       <use xlink:href="#DejaVuSans-2e" x="162.068359"/>
       <use xlink:href="#DejaVuSans-31" x="193.855469"/>
       <use xlink:href="#DejaVuSans-36" x="257.478516"/>
       <use xlink:href="#DejaVuSans-2e" x="321.101562"/>
       <use xlink:href="#DejaVuSans-34" x="352.888672"/>
       <use xlink:href="#DejaVuSans-2e" x="416.511719"/>
       <use xlink:href="#DejaVuSans-32" x="448.298828"/>
      </g>
     </g>
    </g>
    <g id="ytick_11">
     <g id="line2d_19">
      <g>
       <use xlink:href="#m6a08909bb4" x="144" y="192.83567" style="stroke: #000000; stroke-width: 0.8"/>
      </g>
     </g>
     <g id="text_20">
      <!-- 2.A.16.4.3 -->
      <g transform="translate(85.809375 196.634889) scale(0.1 -0.1)">
       <use xlink:href="#DejaVuSans-32"/>
       <use xlink:href="#DejaVuSans-2e" x="63.623047"/>
       <use xlink:href="#DejaVuSans-41" x="95.410156"/>
       <use xlink:href="#DejaVuSans-2e" x="162.068359"/>
       <use xlink:href="#DejaVuSans-31" x="193.855469"/>
       <use xlink:href="#DejaVuSans-36" x="257.478516"/>
       <use xlink:href="#DejaVuSans-2e" x="321.101562"/>
       <use xlink:href="#DejaVuSans-34" x="352.888672"/>
       <use xlink:href="#DejaVuSans-2e" x="416.511719"/>
       <use xlink:href="#DejaVuSans-33" x="448.298828"/>
      </g>
     </g>
    </g>
    <g id="ytick_12">
     <g id="line2d_20">
      <g>
       <use xlink:href="#m6a08909bb4" x="144" y="178.54701" style="stroke: #000000; stroke-width: 0.8"/>
      </g>
     </g>
     <g id="text_21">
      <!-- 2.A.16.4.4 -->
      <g transform="translate(85.809375 182.346229) scale(0.1 -0.1)">
       <use xlink:href="#DejaVuSans-32"/>
       <use xlink:href="#DejaVuSans-2e" x="63.623047"/>
       <use xlink:href="#DejaVuSans-41" x="95.410156"/>
       <use xlink:href="#DejaVuSans-2e" x="162.068359"/>
       <use xlink:href="#DejaVuSans-31" x="193.855469"/>
       <use xlink:href="#DejaVuSans-36" x="257.478516"/>
       <use xlink:href="#DejaVuSans-2e" x="321.101562"/>
       <use xlink:href="#DejaVuSans-34" x="352.888672"/>
       <use xlink:href="#DejaVuSans-2e" x="416.511719"/>
       <use xlink:href="#DejaVuSans-34" x="448.298828"/>
      </g>
     </g>
    </g>
    <g id="ytick_13">
     <g id="line2d_21">
      <g>
       <use xlink:href="#m6a08909bb4" x="144" y="164.258351" style="stroke: #000000; stroke-width: 0.8"/>
      </g>
     </g>
     <g id="text_22">
      <!-- 2.A.16.4.5 -->
      <g transform="translate(85.809375 168.057569) scale(0.1 -0.1)">
       <use xlink:href="#DejaVuSans-32"/>
       <use xlink:href="#DejaVuSans-2e" x="63.623047"/>
       <use xlink:href="#DejaVuSans-41" x="95.410156"/>
       <use xlink:href="#DejaVuSans-2e" x="162.068359"/>
       <use xlink:href="#DejaVuSans-31" x="193.855469"/>
       <use xlink:href="#DejaVuSans-36" x="257.478516"/>
       <use xlink:href="#DejaVuSans-2e" x="321.101562"/>
       <use xlink:href="#DejaVuSans-34" x="352.888672"/>
       <use xlink:href="#DejaVuSans-2e" x="416.511719"/>
       <use xlink:href="#DejaVuSans-35" x="448.298828"/>
      </g>
     </g>
    </g>
    <g id="ytick_14">
     <g id="line2d_22">
      <g>
       <use xlink:href="#m6a08909bb4" x="144" y="149.969691" style="stroke: #000000; stroke-width: 0.8"/>
      </g>
     </g>
     <g id="text_23">
      <!-- 2.A.16.4.6 -->
      <g transform="translate(85.809375 153.768909) scale(0.1 -0.1)">
       <use xlink:href="#DejaVuSans-32"/>
       <use xlink:href="#DejaVuSans-2e" x="63.623047"/>
       <use xlink:href="#DejaVuSans-41" x="95.410156"/>
       <use xlink:href="#DejaVuSans-2e" x="162.068359"/>
       <use xlink:href="#DejaVuSans-31" x="193.855469"/>
       <use xlink:href="#DejaVuSans-36" x="257.478516"/>
       <use xlink:href="#DejaVuSans-2e" x="321.101562"/>
       <use xlink:href="#DejaVuSans-34" x="352.888672"/>
       <use xlink:href="#DejaVuSans-2e" x="416.511719"/>
       <use xlink:href="#DejaVuSans-36" x="448.298828"/>
      </g>
     </g>
    </g>
    <g id="ytick_15">
     <g id="line2d_23">
      <g>
       <use xlink:href="#m6a08909bb4" x="144" y="135.681031" style="stroke: #000000; stroke-width: 0.8"/>
      </g>
     </g>
     <g id="text_24">
      <!-- 2.A.16.5.1 -->
      <g transform="translate(85.809375 139.48025) scale(0.1 -0.1)">
       <use xlink:href="#DejaVuSans-32"/>
       <use xlink:href="#DejaVuSans-2e" x="63.623047"/>
       <use xlink:href="#DejaVuSans-41" x="95.410156"/>
       <use xlink:href="#DejaVuSans-2e" x="162.068359"/>
       <use xlink:href="#DejaVuSans-31" x="193.855469"/>
       <use xlink:href="#DejaVuSans-36" x="257.478516"/>
       <use xlink:href="#DejaVuSans-2e" x="321.101562"/>
       <use xlink:href="#DejaVuSans-35" x="352.888672"/>
       <use xlink:href="#DejaVuSans-2e" x="416.511719"/>
       <use xlink:href="#DejaVuSans-31" x="448.298828"/>
      </g>
     </g>
    </g>
    <g id="ytick_16">
     <g id="line2d_24">
      <g>
       <use xlink:href="#m6a08909bb4" x="144" y="121.392371" style="stroke: #000000; stroke-width: 0.8"/>
      </g>
     </g>
     <g id="text_25">
      <!-- 2.A.16.5.2 -->
      <g transform="translate(85.809375 125.19159) scale(0.1 -0.1)">
       <use xlink:href="#DejaVuSans-32"/>
       <use xlink:href="#DejaVuSans-2e" x="63.623047"/>
       <use xlink:href="#DejaVuSans-41" x="95.410156"/>
       <use xlink:href="#DejaVuSans-2e" x="162.068359"/>
       <use xlink:href="#DejaVuSans-31" x="193.855469"/>
       <use xlink:href="#DejaVuSans-36" x="257.478516"/>
       <use xlink:href="#DejaVuSans-2e" x="321.101562"/>
       <use xlink:href="#DejaVuSans-35" x="352.888672"/>
       <use xlink:href="#DejaVuSans-2e" x="416.511719"/>
       <use xlink:href="#DejaVuSans-32" x="448.298828"/>
      </g>
     </g>
    </g>
    <g id="ytick_17">
     <g id="line2d_25">
      <g>
       <use xlink:href="#m6a08909bb4" x="144" y="107.103711" style="stroke: #000000; stroke-width: 0.8"/>
      </g>
     </g>
     <g id="text_26">
      <!-- 2.A.16.5.3 -->
      <g transform="translate(85.809375 110.90293) scale(0.1 -0.1)">
       <use xlink:href="#DejaVuSans-32"/>
       <use xlink:href="#DejaVuSans-2e" x="63.623047"/>
       <use xlink:href="#DejaVuSans-41" x="95.410156"/>
       <use xlink:href="#DejaVuSans-2e" x="162.068359"/>
       <use xlink:href="#DejaVuSans-31" x="193.855469"/>
       <use xlink:href="#DejaVuSans-36" x="257.478516"/>
       <use xlink:href="#DejaVuSans-2e" x="321.101562"/>
       <use xlink:href="#DejaVuSans-35" x="352.888672"/>
       <use xlink:href="#DejaVuSans-2e" x="416.511719"/>
       <use xlink:href="#DejaVuSans-33" x="448.298828"/>
      </g>
     </g>
    </g>
    <g id="ytick_18">
     <g id="line2d_26">
      <g>
       <use xlink:href="#m6a08909bb4" x="144" y="92.815052" style="stroke: #000000; stroke-width: 0.8"/>
      </g>
     </g>
     <g id="text_27">
      <!-- 2.A.16.6.1 -->
      <g transform="translate(85.809375 96.61427) scale(0.1 -0.1)">
       <use xlink:href="#DejaVuSans-32"/>
       <use xlink:href="#DejaVuSans-2e" x="63.623047"/>
       <use xlink:href="#DejaVuSans-41" x="95.410156"/>
       <use xlink:href="#DejaVuSans-2e" x="162.068359"/>
       <use xlink:href="#DejaVuSans-31" x="193.855469"/>
       <use xlink:href="#DejaVuSans-36" x="257.478516"/>
       <use xlink:href="#DejaVuSans-2e" x="321.101562"/>
       <use xlink:href="#DejaVuSans-36" x="352.888672"/>
       <use xlink:href="#DejaVuSans-2e" x="416.511719"/>
       <use xlink:href="#DejaVuSans-31" x="448.298828"/>
      </g>
     </g>
    </g>
    <g id="ytick_19">
     <g id="line2d_27">
      <g>
       <use xlink:href="#m6a08909bb4" x="144" y="78.526392" style="stroke: #000000; stroke-width: 0.8"/>
      </g>
     </g>
     <g id="text_28">
      <!-- 2.A.16.6.2 -->
      <g transform="translate(85.809375 82.325611) scale(0.1 -0.1)">
       <use xlink:href="#DejaVuSans-32"/>
       <use xlink:href="#DejaVuSans-2e" x="63.623047"/>
       <use xlink:href="#DejaVuSans-41" x="95.410156"/>
       <use xlink:href="#DejaVuSans-2e" x="162.068359"/>
       <use xlink:href="#DejaVuSans-31" x="193.855469"/>
       <use xlink:href="#DejaVuSans-36" x="257.478516"/>
       <use xlink:href="#DejaVuSans-2e" x="321.101562"/>
       <use xlink:href="#DejaVuSans-36" x="352.888672"/>
       <use xlink:href="#DejaVuSans-2e" x="416.511719"/>
       <use xlink:href="#DejaVuSans-32" x="448.298828"/>
      </g>
     </g>
    </g>
    <g id="ytick_20">
     <g id="line2d_28">
      <g>
       <use xlink:href="#m6a08909bb4" x="144" y="64.237732" style="stroke: #000000; stroke-width: 0.8"/>
      </g>
     </g>
     <g id="text_29">
      <!-- 2.A.16.6.3 -->
      <g transform="translate(85.809375 68.036951) scale(0.1 -0.1)">
       <use xlink:href="#DejaVuSans-32"/>
       <use xlink:href="#DejaVuSans-2e" x="63.623047"/>
       <use xlink:href="#DejaVuSans-41" x="95.410156"/>
       <use xlink:href="#DejaVuSans-2e" x="162.068359"/>
       <use xlink:href="#DejaVuSans-31" x="193.855469"/>
       <use xlink:href="#DejaVuSans-36" x="257.478516"/>
       <use xlink:href="#DejaVuSans-2e" x="321.101562"/>
       <use xlink:href="#DejaVuSans-36" x="352.888672"/>
       <use xlink:href="#DejaVuSans-2e" x="416.511719"/>
       <use xlink:href="#DejaVuSans-33" x="448.298828"/>
      </g>
     </g>
    </g>
   </g>
   <g id="patch_261">
    <path d="M 144 352.44 
L 144 47.52 
" style="fill: none; stroke: #000000; stroke-width: 0.8; stroke-linejoin: miter; stroke-linecap: square"/>
   </g>
   <g id="patch_262">
    <path d="M 1036.8 352.44 
L 1036.8 47.52 
" style="fill: none; stroke: #000000; stroke-width: 0.8; stroke-linejoin: miter; stroke-linecap: square"/>
   </g>
   <g id="patch_263">
    <path d="M 144 352.44 
L 1036.8 352.44 
" style="fill: none; stroke: #000000; stroke-width: 0.8; stroke-linejoin: miter; stroke-linecap: square"/>
   </g>
   <g id="patch_264">
    <path d="M 144 47.52 
L 1036.8 47.52 
" style="fill: none; stroke: #000000; stroke-width: 0.8; stroke-linejoin: miter; stroke-linecap: square"/>
   </g>
   <g id="text_30">
    <!-- 2.A.16 Summary -->
    <g transform="translate(540.2325 41.52) scale(0.12 -0.12)">
     <defs>
      <path id="DejaVuSans-20" transform="scale(0.015625)"/>
      <path id="DejaVuSans-53" d="M 3425 4513 
L 3425 3897 
Q 3066 4069 2747 4153 
Q 2428 4238 2131 4238 
Q 1616 4238 1336 4038 
Q 1056 3838 1056 3469 
Q 1056 3159 1242 3001 
Q 1428 2844 1947 2747 
L 2328 2669 
Q 3034 2534 3370 2195 
Q 3706 1856 3706 1288 
Q 3706 609 3251 259 
Q 2797 -91 1919 -91 
Q 1588 -91 1214 -16 
Q 841 59 441 206 
L 441 856 
Q 825 641 1194 531 
Q 1563 422 1919 422 
Q 2459 422 2753 634 
Q 3047 847 3047 1241 
Q 3047 1584 2836 1778 
Q 2625 1972 2144 2069 
L 1759 2144 
Q 1053 2284 737 2584 
Q 422 2884 422 3419 
Q 422 4038 858 4394 
Q 1294 4750 2059 4750 
Q 2388 4750 2728 4690 
Q 3069 4631 3425 4513 
z
" transform="scale(0.015625)"/>
      <path id="DejaVuSans-6d" d="M 3328 2828 
Q 3544 3216 3844 3400 
Q 4144 3584 4550 3584 
Q 5097 3584 5394 3201 
Q 5691 2819 5691 2113 
L 5691 0 
L 5113 0 
L 5113 2094 
Q 5113 2597 4934 2840 
Q 4756 3084 4391 3084 
Q 3944 3084 3684 2787 
Q 3425 2491 3425 1978 
L 3425 0 
L 2847 0 
L 2847 2094 
Q 2847 2600 2669 2842 
Q 2491 3084 2119 3084 
Q 1678 3084 1418 2786 
Q 1159 2488 1159 1978 
L 1159 0 
L 581 0 
L 581 3500 
L 1159 3500 
L 1159 2956 
Q 1356 3278 1631 3431 
Q 1906 3584 2284 3584 
Q 2666 3584 2933 3390 
Q 3200 3197 3328 2828 
z
" transform="scale(0.015625)"/>
      <path id="DejaVuSans-72" d="M 2631 2963 
Q 2534 3019 2420 3045 
Q 2306 3072 2169 3072 
Q 1681 3072 1420 2755 
Q 1159 2438 1159 1844 
L 1159 0 
L 581 0 
L 581 3500 
L 1159 3500 
L 1159 2956 
Q 1341 3275 1631 3429 
Q 1922 3584 2338 3584 
Q 2397 3584 2469 3576 
Q 2541 3569 2628 3553 
L 2631 2963 
z
" transform="scale(0.015625)"/>
      <path id="DejaVuSans-79" d="M 2059 -325 
Q 1816 -950 1584 -1140 
Q 1353 -1331 966 -1331 
L 506 -1331 
L 506 -850 
L 844 -850 
Q 1081 -850 1212 -737 
Q 1344 -625 1503 -206 
L 1606 56 
L 191 3500 
L 800 3500 
L 1894 763 
L 2988 3500 
L 3597 3500 
L 2059 -325 
z
" transform="scale(0.015625)"/>
     </defs>
     <use xlink:href="#DejaVuSans-32"/>
     <use xlink:href="#DejaVuSans-2e" x="63.623047"/>
     <use xlink:href="#DejaVuSans-41" x="95.410156"/>
     <use xlink:href="#DejaVuSans-2e" x="162.068359"/>
     <use xlink:href="#DejaVuSans-31" x="193.855469"/>
     <use xlink:href="#DejaVuSans-36" x="257.478516"/>
     <use xlink:href="#DejaVuSans-20" x="321.101562"/>
     <use xlink:href="#DejaVuSans-53" x="352.888672"/>
     <use xlink:href="#DejaVuSans-75" x="416.365234"/>
     <use xlink:href="#DejaVuSans-6d" x="479.744141"/>
     <use xlink:href="#DejaVuSans-6d" x="577.15625"/>
     <use xlink:href="#DejaVuSans-61" x="674.568359"/>
     <use xlink:href="#DejaVuSans-72" x="735.847656"/>
     <use xlink:href="#DejaVuSans-79" x="776.960938"/>
    </g>
   </g>
  </g>
 </g>
 <defs>
  <clipPath id="p711e05219e">
   <rect x="144" y="47.52" width="892.8" height="304.92"/>
  </clipPath>
 </defs>
</svg>
