<?xml version="1.0" encoding="utf-8" standalone="no"?>
<!DOCTYPE svg PUBLIC "-//W3C//DTD SVG 1.1//EN"
  "http://www.w3.org/Graphics/SVG/1.1/DTD/svg11.dtd">
<svg xmlns:xlink="http://www.w3.org/1999/xlink" width="1152pt" height="378pt" viewBox="0 0 1152 378" xmlns="http://www.w3.org/2000/svg" version="1.1">
 <metadata>
  <rdf:RDF xmlns:dc="http://purl.org/dc/elements/1.1/" xmlns:cc="http://creativecommons.org/ns#" xmlns:rdf="http://www.w3.org/1999/02/22-rdf-syntax-ns#">
   <cc:Work>
    <dc:type rdf:resource="http://purl.org/dc/dcmitype/StillImage"/>
    <dc:date>2024-10-10T19:19:15.000464</dc:date>
    <dc:format>image/svg+xml</dc:format>
    <dc:creator>
     <cc:Agent>
      <dc:title>Matplotlib v3.9.2, https://matplotlib.org/</dc:title>
     </cc:Agent>
    </dc:creator>
   </cc:Work>
  </rdf:RDF>
 </metadata>
 <defs>
  <style type="text/css">*{stroke-linejoin: round; stroke-linecap: butt}</style>
 </defs>
 <g id="figure_1">
  <g id="patch_1">
   <path d="M 0 378 
L 1152 378 
L 1152 0 
L 0 0 
z
" style="fill: #ffffff"/>
  </g>
  <g id="axes_1">
   <g id="patch_2">
    <path d="M 144 336.42 
L 1036.8 336.42 
L 1036.8 45.36 
L 144 45.36 
z
" style="fill: #ffffff"/>
   </g>
   <g id="patch_3">
    <path d="M 144 320.52962 
L 155.846086 320.52962 
L 155.846086 320.098207 
L 144 320.098207 
z
" clip-path="url(#pc2e4970803)" style="fill: #0000ff"/>
   </g>
   <g id="patch_4">
    <path d="M 157.162318 323.19 
L 428.306059 323.19 
L 428.306059 317.437826 
L 157.162318 317.437826 
z
" clip-path="url(#pc2e4970803)" style="fill: #0000ff"/>
   </g>
   <g id="patch_5">
    <path d="M 167.692172 323.19 
L 390.135338 323.19 
L 390.135338 317.437826 
L 167.692172 317.437826 
z
" clip-path="url(#pc2e4970803)" style="fill: #0000ff"/>
   </g>
   <g id="patch_6">
    <path d="M 171.640867 323.19 
L 440.152145 323.19 
L 440.152145 317.437826 
L 171.640867 317.437826 
z
" clip-path="url(#pc2e4970803)" style="fill: #0000ff"/>
   </g>
   <g id="patch_7">
    <path d="M 174.27333 323.19 
L 436.20345 323.19 
L 436.20345 317.437826 
L 174.27333 317.437826 
z
" clip-path="url(#pc2e4970803)" style="fill: #0000ff"/>
   </g>
   <g id="patch_8">
    <path d="M 180.854489 323.19 
L 457.263158 323.19 
L 457.263158 317.437826 
L 180.854489 317.437826 
z
" clip-path="url(#pc2e4970803)" style="fill: #0000ff"/>
   </g>
   <g id="patch_9">
    <path d="M 184.803184 323.19 
L 380.921716 323.19 
L 380.921716 317.437826 
L 184.803184 317.437826 
z
" clip-path="url(#pc2e4970803)" style="fill: #0000ff"/>
   </g>
   <g id="patch_10">
    <path d="M 196.64927 323.19 
L 382.237948 323.19 
L 382.237948 317.437826 
L 196.64927 317.437826 
z
" clip-path="url(#pc2e4970803)" style="fill: #0000ff"/>
   </g>
   <g id="patch_11">
    <path d="M 197.965502 323.19 
L 390.135338 323.19 
L 390.135338 317.437826 
L 197.965502 317.437826 
z
" clip-path="url(#pc2e4970803)" style="fill: #0000ff"/>
   </g>
   <g id="patch_12">
    <path d="M 201.914197 323.19 
L 388.819107 323.19 
L 388.819107 317.437826 
L 201.914197 317.437826 
z
" clip-path="url(#pc2e4970803)" style="fill: #0000ff"/>
   </g>
   <g id="patch_13">
    <path d="M 208.495356 323.19 
L 379.605484 323.19 
L 379.605484 317.437826 
L 208.495356 317.437826 
z
" clip-path="url(#pc2e4970803)" style="fill: #0000ff"/>
   </g>
   <g id="patch_14">
    <path d="M 209.811588 323.19 
L 387.502875 323.19 
L 387.502875 317.437826 
L 209.811588 317.437826 
z
" clip-path="url(#pc2e4970803)" style="fill: #0000ff"/>
   </g>
   <g id="patch_15">
    <path d="M 212.444051 323.19 
L 379.605484 323.19 
L 379.605484 317.437826 
L 212.444051 317.437826 
z
" clip-path="url(#pc2e4970803)" style="fill: #0000ff"/>
   </g>
   <g id="patch_16">
    <path d="M 212.444051 323.19 
L 387.502875 323.19 
L 387.502875 317.437826 
L 212.444051 317.437826 
z
" clip-path="url(#pc2e4970803)" style="fill: #0000ff"/>
   </g>
   <g id="patch_17">
    <path d="M 458.57939 320.52962 
L 474.374171 320.52962 
L 474.374171 320.098207 
L 458.57939 320.098207 
z
" clip-path="url(#pc2e4970803)" style="fill: #0000ff"/>
   </g>
   <g id="patch_18">
    <path d="M 144 306.149185 
L 174.27333 306.149185 
L 174.27333 305.717772 
L 144 305.717772 
z
" clip-path="url(#pc2e4970803)" style="fill: #0000ff"/>
   </g>
   <g id="patch_19">
    <path d="M 175.589562 308.809565 
L 412.511278 308.809565 
L 412.511278 303.057391 
L 175.589562 303.057391 
z
" clip-path="url(#pc2e4970803)" style="fill: #0000ff"/>
   </g>
   <g id="patch_20">
    <path d="M 201.914197 308.809565 
L 362.494471 308.809565 
L 362.494471 303.057391 
L 201.914197 303.057391 
z
" clip-path="url(#pc2e4970803)" style="fill: #0000ff"/>
   </g>
   <g id="patch_21">
    <path d="M 204.546661 308.809565 
L 362.494471 308.809565 
L 362.494471 303.057391 
L 204.546661 303.057391 
z
" clip-path="url(#pc2e4970803)" style="fill: #0000ff"/>
   </g>
   <g id="patch_22">
    <path d="M 204.546661 308.809565 
L 384.870411 308.809565 
L 384.870411 303.057391 
L 204.546661 303.057391 
z
" clip-path="url(#pc2e4970803)" style="fill: #0000ff"/>
   </g>
   <g id="patch_23">
    <path d="M 413.82751 306.149185 
L 434.887218 306.149185 
L 434.887218 305.717772 
L 413.82751 305.717772 
z
" clip-path="url(#pc2e4970803)" style="fill: #0000ff"/>
   </g>
   <g id="patch_24">
    <path d="M 144 294.42913 
L 425.673596 294.42913 
L 425.673596 288.676957 
L 144 288.676957 
z
" clip-path="url(#pc2e4970803)" style="fill: #0000ff"/>
   </g>
   <g id="patch_25">
    <path d="M 144 294.42913 
L 440.152145 294.42913 
L 440.152145 288.676957 
L 144 288.676957 
z
" clip-path="url(#pc2e4970803)" style="fill: #0000ff"/>
   </g>
   <g id="patch_26">
    <path d="M 165.059708 294.42913 
L 390.135338 294.42913 
L 390.135338 288.676957 
L 165.059708 288.676957 
z
" clip-path="url(#pc2e4970803)" style="fill: #0000ff"/>
   </g>
   <g id="patch_27">
    <path d="M 166.37594 294.42913 
L 434.887218 294.42913 
L 434.887218 288.676957 
L 166.37594 288.676957 
z
" clip-path="url(#pc2e4970803)" style="fill: #0000ff"/>
   </g>
   <g id="patch_28">
    <path d="M 170.324635 294.42913 
L 430.938523 294.42913 
L 430.938523 288.676957 
L 170.324635 288.676957 
z
" clip-path="url(#pc2e4970803)" style="fill: #0000ff"/>
   </g>
   <g id="patch_29">
    <path d="M 174.27333 294.42913 
L 454.630694 294.42913 
L 454.630694 288.676957 
L 174.27333 288.676957 
z
" clip-path="url(#pc2e4970803)" style="fill: #0000ff"/>
   </g>
   <g id="patch_30">
    <path d="M 186.119416 294.42913 
L 378.289253 294.42913 
L 378.289253 288.676957 
L 186.119416 288.676957 
z
" clip-path="url(#pc2e4970803)" style="fill: #0000ff"/>
   </g>
   <g id="patch_31">
    <path d="M 190.068111 294.42913 
L 390.135338 294.42913 
L 390.135338 288.676957 
L 190.068111 288.676957 
z
" clip-path="url(#pc2e4970803)" style="fill: #0000ff"/>
   </g>
   <g id="patch_32">
    <path d="M 195.333038 294.42913 
L 384.870411 294.42913 
L 384.870411 288.676957 
L 195.333038 288.676957 
z
" clip-path="url(#pc2e4970803)" style="fill: #0000ff"/>
   </g>
   <g id="patch_33">
    <path d="M 201.914197 294.42913 
L 384.870411 294.42913 
L 384.870411 288.676957 
L 201.914197 288.676957 
z
" clip-path="url(#pc2e4970803)" style="fill: #0000ff"/>
   </g>
   <g id="patch_34">
    <path d="M 203.230429 294.42913 
L 376.973021 294.42913 
L 376.973021 288.676957 
L 203.230429 288.676957 
z
" clip-path="url(#pc2e4970803)" style="fill: #0000ff"/>
   </g>
   <g id="patch_35">
    <path d="M 207.179124 294.42913 
L 376.973021 294.42913 
L 376.973021 288.676957 
L 207.179124 288.676957 
z
" clip-path="url(#pc2e4970803)" style="fill: #0000ff"/>
   </g>
   <g id="patch_36">
    <path d="M 207.179124 294.42913 
L 386.186643 294.42913 
L 386.186643 288.676957 
L 207.179124 288.676957 
z
" clip-path="url(#pc2e4970803)" style="fill: #0000ff"/>
   </g>
   <g id="patch_37">
    <path d="M 455.946926 291.76875 
L 519.12605 291.76875 
L 519.12605 291.337337 
L 455.946926 291.337337 
z
" clip-path="url(#pc2e4970803)" style="fill: #0000ff"/>
   </g>
   <g id="patch_38">
    <path d="M 144 277.388315 
L 163.743476 277.388315 
L 163.743476 276.956902 
L 144 276.956902 
z
" clip-path="url(#pc2e4970803)" style="fill: #0000ff"/>
   </g>
   <g id="patch_39">
    <path d="M 165.059708 280.048696 
L 426.989828 280.048696 
L 426.989828 274.296522 
L 165.059708 274.296522 
z
" clip-path="url(#pc2e4970803)" style="fill: #0000ff"/>
   </g>
   <g id="patch_40">
    <path d="M 166.37594 280.048696 
L 388.819107 280.048696 
L 388.819107 274.296522 
L 166.37594 274.296522 
z
" clip-path="url(#pc2e4970803)" style="fill: #0000ff"/>
   </g>
   <g id="patch_41">
    <path d="M 170.324635 280.048696 
L 426.989828 280.048696 
L 426.989828 274.296522 
L 170.324635 274.296522 
z
" clip-path="url(#pc2e4970803)" style="fill: #0000ff"/>
   </g>
   <g id="patch_42">
    <path d="M 172.957099 280.048696 
L 426.989828 280.048696 
L 426.989828 274.296522 
L 172.957099 274.296522 
z
" clip-path="url(#pc2e4970803)" style="fill: #0000ff"/>
   </g>
   <g id="patch_43">
    <path d="M 179.538257 280.048696 
L 451.998231 280.048696 
L 451.998231 274.296522 
L 179.538257 274.296522 
z
" clip-path="url(#pc2e4970803)" style="fill: #0000ff"/>
   </g>
   <g id="patch_44">
    <path d="M 183.486953 280.048696 
L 379.605484 280.048696 
L 379.605484 274.296522 
L 183.486953 274.296522 
z
" clip-path="url(#pc2e4970803)" style="fill: #0000ff"/>
   </g>
   <g id="patch_45">
    <path d="M 195.333038 280.048696 
L 380.921716 280.048696 
L 380.921716 274.296522 
L 195.333038 274.296522 
z
" clip-path="url(#pc2e4970803)" style="fill: #0000ff"/>
   </g>
   <g id="patch_46">
    <path d="M 196.64927 280.048696 
L 388.819107 280.048696 
L 388.819107 274.296522 
L 196.64927 274.296522 
z
" clip-path="url(#pc2e4970803)" style="fill: #0000ff"/>
   </g>
   <g id="patch_47">
    <path d="M 200.597966 280.048696 
L 387.502875 280.048696 
L 387.502875 274.296522 
L 200.597966 274.296522 
z
" clip-path="url(#pc2e4970803)" style="fill: #0000ff"/>
   </g>
   <g id="patch_48">
    <path d="M 207.179124 280.048696 
L 378.289253 280.048696 
L 378.289253 274.296522 
L 207.179124 274.296522 
z
" clip-path="url(#pc2e4970803)" style="fill: #0000ff"/>
   </g>
   <g id="patch_49">
    <path d="M 208.495356 280.048696 
L 386.186643 280.048696 
L 386.186643 274.296522 
L 208.495356 274.296522 
z
" clip-path="url(#pc2e4970803)" style="fill: #0000ff"/>
   </g>
   <g id="patch_50">
    <path d="M 212.444051 280.048696 
L 378.289253 280.048696 
L 378.289253 274.296522 
L 212.444051 274.296522 
z
" clip-path="url(#pc2e4970803)" style="fill: #0000ff"/>
   </g>
   <g id="patch_51">
    <path d="M 212.444051 280.048696 
L 386.186643 280.048696 
L 386.186643 274.296522 
L 212.444051 274.296522 
z
" clip-path="url(#pc2e4970803)" style="fill: #0000ff"/>
   </g>
   <g id="patch_52">
    <path d="M 453.314463 277.388315 
L 473.057939 277.388315 
L 473.057939 276.956902 
L 453.314463 276.956902 
z
" clip-path="url(#pc2e4970803)" style="fill: #0000ff"/>
   </g>
   <g id="patch_53">
    <path d="M 144 263.00788 
L 154.529854 263.00788 
L 154.529854 262.576467 
L 144 262.576467 
z
" clip-path="url(#pc2e4970803)" style="fill: #0000ff"/>
   </g>
   <g id="patch_54">
    <path d="M 155.846086 265.668261 
L 390.135338 265.668261 
L 390.135338 259.916087 
L 155.846086 259.916087 
z
" clip-path="url(#pc2e4970803)" style="fill: #0000ff"/>
   </g>
   <g id="patch_55">
    <path d="M 157.162318 265.668261 
L 425.673596 265.668261 
L 425.673596 259.916087 
L 157.162318 259.916087 
z
" clip-path="url(#pc2e4970803)" style="fill: #0000ff"/>
   </g>
   <g id="patch_56">
    <path d="M 170.324635 265.668261 
L 445.417072 265.668261 
L 445.417072 259.916087 
L 170.324635 259.916087 
z
" clip-path="url(#pc2e4970803)" style="fill: #0000ff"/>
   </g>
   <g id="patch_57">
    <path d="M 178.222026 265.668261 
L 434.887218 265.668261 
L 434.887218 259.916087 
L 178.222026 259.916087 
z
" clip-path="url(#pc2e4970803)" style="fill: #0000ff"/>
   </g>
   <g id="patch_58">
    <path d="M 187.435648 265.668261 
L 386.186643 265.668261 
L 386.186643 259.916087 
L 187.435648 259.916087 
z
" clip-path="url(#pc2e4970803)" style="fill: #0000ff"/>
   </g>
   <g id="patch_59">
    <path d="M 191.384343 265.668261 
L 380.921716 265.668261 
L 380.921716 259.916087 
L 191.384343 259.916087 
z
" clip-path="url(#pc2e4970803)" style="fill: #0000ff"/>
   </g>
   <g id="patch_60">
    <path d="M 197.965502 265.668261 
L 373.024326 265.668261 
L 373.024326 259.916087 
L 197.965502 259.916087 
z
" clip-path="url(#pc2e4970803)" style="fill: #0000ff"/>
   </g>
   <g id="patch_61">
    <path d="M 197.965502 265.668261 
L 380.921716 265.668261 
L 380.921716 259.916087 
L 197.965502 259.916087 
z
" clip-path="url(#pc2e4970803)" style="fill: #0000ff"/>
   </g>
   <g id="patch_62">
    <path d="M 199.281734 265.668261 
L 373.024326 265.668261 
L 373.024326 259.916087 
L 199.281734 259.916087 
z
" clip-path="url(#pc2e4970803)" style="fill: #0000ff"/>
   </g>
   <g id="patch_63">
    <path d="M 200.597966 265.668261 
L 379.605484 265.668261 
L 379.605484 259.916087 
L 200.597966 259.916087 
z
" clip-path="url(#pc2e4970803)" style="fill: #0000ff"/>
   </g>
   <g id="patch_64">
    <path d="M 203.230429 265.668261 
L 373.024326 265.668261 
L 373.024326 259.916087 
L 203.230429 259.916087 
z
" clip-path="url(#pc2e4970803)" style="fill: #0000ff"/>
   </g>
   <g id="patch_65">
    <path d="M 203.230429 265.668261 
L 380.921716 265.668261 
L 380.921716 259.916087 
L 203.230429 259.916087 
z
" clip-path="url(#pc2e4970803)" style="fill: #0000ff"/>
   </g>
   <g id="patch_66">
    <path d="M 204.546661 265.668261 
L 425.673596 265.668261 
L 425.673596 259.916087 
L 204.546661 259.916087 
z
" clip-path="url(#pc2e4970803)" style="fill: #0000ff"/>
   </g>
   <g id="patch_67">
    <path d="M 446.733304 263.00788 
L 461.211853 263.00788 
L 461.211853 262.576467 
L 446.733304 262.576467 
z
" clip-path="url(#pc2e4970803)" style="fill: #0000ff"/>
   </g>
   <g id="patch_68">
    <path d="M 144 248.627446 
L 145.316232 248.627446 
L 145.316232 248.196033 
L 144 248.196033 
z
" clip-path="url(#pc2e4970803)" style="fill: #0000ff"/>
   </g>
   <g id="patch_69">
    <path d="M 146.632464 251.287826 
L 432.254755 251.287826 
L 432.254755 245.535652 
L 146.632464 245.535652 
z
" clip-path="url(#pc2e4970803)" style="fill: #0000ff"/>
   </g>
   <g id="patch_70">
    <path d="M 182.170721 251.287826 
L 384.870411 251.287826 
L 384.870411 245.535652 
L 182.170721 245.535652 
z
" clip-path="url(#pc2e4970803)" style="fill: #0000ff"/>
   </g>
   <g id="patch_71">
    <path d="M 182.170721 251.287826 
L 446.733304 251.287826 
L 446.733304 245.535652 
L 182.170721 245.535652 
z
" clip-path="url(#pc2e4970803)" style="fill: #0000ff"/>
   </g>
   <g id="patch_72">
    <path d="M 182.170721 251.287826 
L 433.570986 251.287826 
L 433.570986 245.535652 
L 182.170721 245.535652 
z
" clip-path="url(#pc2e4970803)" style="fill: #0000ff"/>
   </g>
   <g id="patch_73">
    <path d="M 182.170721 251.287826 
L 434.887218 251.287826 
L 434.887218 245.535652 
L 182.170721 245.535652 
z
" clip-path="url(#pc2e4970803)" style="fill: #0000ff"/>
   </g>
   <g id="patch_74">
    <path d="M 183.486953 251.287826 
L 416.459973 251.287826 
L 416.459973 245.535652 
L 183.486953 245.535652 
z
" clip-path="url(#pc2e4970803)" style="fill: #0000ff"/>
   </g>
   <g id="patch_75">
    <path d="M 197.965502 251.287826 
L 387.502875 251.287826 
L 387.502875 245.535652 
L 197.965502 245.535652 
z
" clip-path="url(#pc2e4970803)" style="fill: #0000ff"/>
   </g>
   <g id="patch_76">
    <path d="M 204.546661 251.287826 
L 384.870411 251.287826 
L 384.870411 245.535652 
L 204.546661 245.535652 
z
" clip-path="url(#pc2e4970803)" style="fill: #0000ff"/>
   </g>
   <g id="patch_77">
    <path d="M 205.862893 251.287826 
L 376.973021 251.287826 
L 376.973021 245.535652 
L 205.862893 245.535652 
z
" clip-path="url(#pc2e4970803)" style="fill: #0000ff"/>
   </g>
   <g id="patch_78">
    <path d="M 207.179124 251.287826 
L 384.870411 251.287826 
L 384.870411 245.535652 
L 207.179124 245.535652 
z
" clip-path="url(#pc2e4970803)" style="fill: #0000ff"/>
   </g>
   <g id="patch_79">
    <path d="M 209.811588 251.287826 
L 376.973021 251.287826 
L 376.973021 245.535652 
L 209.811588 245.535652 
z
" clip-path="url(#pc2e4970803)" style="fill: #0000ff"/>
   </g>
   <g id="patch_80">
    <path d="M 209.811588 251.287826 
L 386.186643 251.287826 
L 386.186643 245.535652 
L 209.811588 245.535652 
z
" clip-path="url(#pc2e4970803)" style="fill: #0000ff"/>
   </g>
   <g id="patch_81">
    <path d="M 211.12782 251.287826 
L 379.605484 251.287826 
L 379.605484 245.535652 
L 211.12782 245.535652 
z
" clip-path="url(#pc2e4970803)" style="fill: #0000ff"/>
   </g>
   <g id="patch_82">
    <path d="M 448.049536 248.627446 
L 453.314463 248.627446 
L 453.314463 248.196033 
L 448.049536 248.196033 
z
" clip-path="url(#pc2e4970803)" style="fill: #0000ff"/>
   </g>
   <g id="patch_83">
    <path d="M 144 234.247011 
L 155.846086 234.247011 
L 155.846086 233.815598 
L 144 233.815598 
z
" clip-path="url(#pc2e4970803)" style="fill: #0000ff"/>
   </g>
   <g id="patch_84">
    <path d="M 157.162318 236.907391 
L 444.10084 236.907391 
L 444.10084 231.155217 
L 157.162318 231.155217 
z
" clip-path="url(#pc2e4970803)" style="fill: #0000ff"/>
   </g>
   <g id="patch_85">
    <path d="M 175.589562 236.907391 
L 429.622291 236.907391 
L 429.622291 231.155217 
L 175.589562 231.155217 
z
" clip-path="url(#pc2e4970803)" style="fill: #0000ff"/>
   </g>
   <g id="patch_86">
    <path d="M 176.905794 236.907391 
L 394.084034 236.907391 
L 394.084034 231.155217 
L 176.905794 231.155217 
z
" clip-path="url(#pc2e4970803)" style="fill: #0000ff"/>
   </g>
   <g id="patch_87">
    <path d="M 179.538257 236.907391 
L 429.622291 236.907391 
L 429.622291 231.155217 
L 179.538257 231.155217 
z
" clip-path="url(#pc2e4970803)" style="fill: #0000ff"/>
   </g>
   <g id="patch_88">
    <path d="M 180.854489 236.907391 
L 396.716497 236.907391 
L 396.716497 231.155217 
L 180.854489 231.155217 
z
" clip-path="url(#pc2e4970803)" style="fill: #0000ff"/>
   </g>
   <g id="patch_89">
    <path d="M 184.803184 236.907391 
L 461.211853 236.907391 
L 461.211853 231.155217 
L 184.803184 231.155217 
z
" clip-path="url(#pc2e4970803)" style="fill: #0000ff"/>
   </g>
   <g id="patch_90">
    <path d="M 201.914197 236.907391 
L 386.186643 236.907391 
L 386.186643 231.155217 
L 201.914197 231.155217 
z
" clip-path="url(#pc2e4970803)" style="fill: #0000ff"/>
   </g>
   <g id="patch_91">
    <path d="M 201.914197 236.907391 
L 394.084034 236.907391 
L 394.084034 231.155217 
L 201.914197 231.155217 
z
" clip-path="url(#pc2e4970803)" style="fill: #0000ff"/>
   </g>
   <g id="patch_92">
    <path d="M 207.179124 236.907391 
L 392.767802 236.907391 
L 392.767802 231.155217 
L 207.179124 231.155217 
z
" clip-path="url(#pc2e4970803)" style="fill: #0000ff"/>
   </g>
   <g id="patch_93">
    <path d="M 215.076515 236.907391 
L 384.870411 236.907391 
L 384.870411 231.155217 
L 215.076515 231.155217 
z
" clip-path="url(#pc2e4970803)" style="fill: #0000ff"/>
   </g>
   <g id="patch_94">
    <path d="M 215.076515 236.907391 
L 392.767802 236.907391 
L 392.767802 231.155217 
L 215.076515 231.155217 
z
" clip-path="url(#pc2e4970803)" style="fill: #0000ff"/>
   </g>
   <g id="patch_95">
    <path d="M 217.708978 236.907391 
L 384.870411 236.907391 
L 384.870411 231.155217 
L 217.708978 231.155217 
z
" clip-path="url(#pc2e4970803)" style="fill: #0000ff"/>
   </g>
   <g id="patch_96">
    <path d="M 217.708978 236.907391 
L 394.084034 236.907391 
L 394.084034 231.155217 
L 217.708978 231.155217 
z
" clip-path="url(#pc2e4970803)" style="fill: #0000ff"/>
   </g>
   <g id="patch_97">
    <path d="M 144 222.526957 
L 313.793897 222.526957 
L 313.793897 216.774783 
L 144 216.774783 
z
" clip-path="url(#pc2e4970803)" style="fill: #0000ff"/>
   </g>
   <g id="patch_98">
    <path d="M 146.632464 222.526957 
L 290.101725 222.526957 
L 290.101725 216.774783 
L 146.632464 216.774783 
z
" clip-path="url(#pc2e4970803)" style="fill: #0000ff"/>
   </g>
   <g id="patch_99">
    <path d="M 158.478549 222.526957 
L 225.606369 222.526957 
L 225.606369 216.774783 
L 158.478549 216.774783 
z
" clip-path="url(#pc2e4970803)" style="fill: #0000ff"/>
   </g>
   <g id="patch_100">
    <path d="M 313.793897 222.526957 
L 540.185759 222.526957 
L 540.185759 216.774783 
L 313.793897 216.774783 
z
" clip-path="url(#pc2e4970803)" style="fill: #0000ff"/>
   </g>
   <g id="patch_101">
    <path d="M 342.750995 222.526957 
L 502.015038 222.526957 
L 502.015038 216.774783 
L 342.750995 216.774783 
z
" clip-path="url(#pc2e4970803)" style="fill: #0000ff"/>
   </g>
   <g id="patch_102">
    <path d="M 344.067227 222.526957 
L 502.015038 222.526957 
L 502.015038 216.774783 
L 344.067227 216.774783 
z
" clip-path="url(#pc2e4970803)" style="fill: #0000ff"/>
   </g>
   <g id="patch_103">
    <path d="M 344.067227 222.526957 
L 502.015038 222.526957 
L 502.015038 216.774783 
L 344.067227 216.774783 
z
" clip-path="url(#pc2e4970803)" style="fill: #0000ff"/>
   </g>
   <g id="patch_104">
    <path d="M 541.50199 219.866576 
L 548.083149 219.866576 
L 548.083149 219.435163 
L 541.50199 219.435163 
z
" clip-path="url(#pc2e4970803)" style="fill: #0000ff"/>
   </g>
   <g id="patch_105">
    <path d="M 144 205.486141 
L 212.444051 205.486141 
L 212.444051 205.054728 
L 144 205.054728 
z
" clip-path="url(#pc2e4970803)" style="fill: #0000ff"/>
   </g>
   <g id="patch_106">
    <path d="M 213.760283 208.146522 
L 403.297656 208.146522 
L 403.297656 202.394348 
L 213.760283 202.394348 
z
" clip-path="url(#pc2e4970803)" style="fill: #0000ff"/>
   </g>
   <g id="patch_107">
    <path d="M 215.076515 208.146522 
L 390.135338 208.146522 
L 390.135338 202.394348 
L 215.076515 202.394348 
z
" clip-path="url(#pc2e4970803)" style="fill: #0000ff"/>
   </g>
   <g id="patch_108">
    <path d="M 228.238832 208.146522 
L 342.750995 208.146522 
L 342.750995 202.394348 
L 228.238832 202.394348 
z
" clip-path="url(#pc2e4970803)" style="fill: #0000ff"/>
   </g>
   <g id="patch_109">
    <path d="M 388.819107 208.146522 
L 620.475896 208.146522 
L 620.475896 202.394348 
L 388.819107 202.394348 
z
" clip-path="url(#pc2e4970803)" style="fill: #0000ff"/>
   </g>
   <g id="patch_110">
    <path d="M 421.7249 208.146522 
L 582.305175 208.146522 
L 582.305175 202.394348 
L 421.7249 202.394348 
z
" clip-path="url(#pc2e4970803)" style="fill: #0000ff"/>
   </g>
   <g id="patch_111">
    <path d="M 423.041132 208.146522 
L 582.305175 208.146522 
L 582.305175 202.394348 
L 423.041132 202.394348 
z
" clip-path="url(#pc2e4970803)" style="fill: #0000ff"/>
   </g>
   <g id="patch_112">
    <path d="M 621.792127 205.486141 
L 628.373286 205.486141 
L 628.373286 205.054728 
L 621.792127 205.054728 
z
" clip-path="url(#pc2e4970803)" style="fill: #0000ff"/>
   </g>
   <g id="patch_113">
    <path d="M 144 191.105707 
L 192.700575 191.105707 
L 192.700575 190.674293 
L 144 190.674293 
z
" clip-path="url(#pc2e4970803)" style="fill: #0000ff"/>
   </g>
   <g id="patch_114">
    <path d="M 194.016807 193.766087 
L 375.656789 193.766087 
L 375.656789 188.013913 
L 194.016807 188.013913 
z
" clip-path="url(#pc2e4970803)" style="fill: #0000ff"/>
   </g>
   <g id="patch_115">
    <path d="M 195.333038 193.766087 
L 366.443167 193.766087 
L 366.443167 188.013913 
L 195.333038 188.013913 
z
" clip-path="url(#pc2e4970803)" style="fill: #0000ff"/>
   </g>
   <g id="patch_116">
    <path d="M 376.973021 191.105707 
L 434.887218 191.105707 
L 434.887218 190.674293 
L 376.973021 190.674293 
z
" clip-path="url(#pc2e4970803)" style="fill: #0000ff"/>
   </g>
   <g id="patch_117">
    <path d="M 436.20345 193.766087 
L 658.646617 193.766087 
L 658.646617 188.013913 
L 436.20345 188.013913 
z
" clip-path="url(#pc2e4970803)" style="fill: #0000ff"/>
   </g>
   <g id="patch_118">
    <path d="M 467.793012 193.766087 
L 665.227775 193.766087 
L 665.227775 188.013913 
L 467.793012 188.013913 
z
" clip-path="url(#pc2e4970803)" style="fill: #0000ff"/>
   </g>
   <g id="patch_119">
    <path d="M 477.006634 193.766087 
L 625.740823 193.766087 
L 625.740823 188.013913 
L 477.006634 188.013913 
z
" clip-path="url(#pc2e4970803)" style="fill: #0000ff"/>
   </g>
   <g id="patch_120">
    <path d="M 613.894737 193.766087 
L 870.559929 193.766087 
L 870.559929 188.013913 
L 613.894737 188.013913 
z
" clip-path="url(#pc2e4970803)" style="fill: #0000ff"/>
   </g>
   <g id="patch_121">
    <path d="M 678.390093 193.766087 
L 845.551526 193.766087 
L 845.551526 188.013913 
L 678.390093 188.013913 
z
" clip-path="url(#pc2e4970803)" style="fill: #0000ff"/>
   </g>
   <g id="patch_122">
    <path d="M 679.706325 193.766087 
L 844.235294 193.766087 
L 844.235294 188.013913 
L 679.706325 188.013913 
z
" clip-path="url(#pc2e4970803)" style="fill: #0000ff"/>
   </g>
   <g id="patch_123">
    <path d="M 871.876161 191.105707 
L 994.285714 191.105707 
L 994.285714 190.674293 
L 871.876161 190.674293 
z
" clip-path="url(#pc2e4970803)" style="fill: #0000ff"/>
   </g>
   <g id="patch_124">
    <path d="M 144 176.725272 
L 161.111013 176.725272 
L 161.111013 176.293859 
L 144 176.293859 
z
" clip-path="url(#pc2e4970803)" style="fill: #0000ff"/>
   </g>
   <g id="patch_125">
    <path d="M 162.427245 179.385652 
L 365.126935 179.385652 
L 365.126935 173.633478 
L 162.427245 173.633478 
z
" clip-path="url(#pc2e4970803)" style="fill: #0000ff"/>
   </g>
   <g id="patch_126">
    <path d="M 176.905794 179.385652 
L 320.375055 179.385652 
L 320.375055 173.633478 
L 176.905794 173.633478 
z
" clip-path="url(#pc2e4970803)" style="fill: #0000ff"/>
   </g>
   <g id="patch_127">
    <path d="M 366.443167 176.725272 
L 536.237063 176.725272 
L 536.237063 176.293859 
L 366.443167 176.293859 
z
" clip-path="url(#pc2e4970803)" style="fill: #0000ff"/>
   </g>
   <g id="patch_128">
    <path d="M 537.553295 179.385652 
L 598.099956 179.385652 
L 598.099956 173.633478 
L 537.553295 173.633478 
z
" clip-path="url(#pc2e4970803)" style="fill: #0000ff"/>
   </g>
   <g id="patch_129">
    <path d="M 599.416188 176.725272 
L 688.919947 176.725272 
L 688.919947 176.293859 
L 599.416188 176.293859 
z
" clip-path="url(#pc2e4970803)" style="fill: #0000ff"/>
   </g>
   <g id="patch_130">
    <path d="M 144 162.344837 
L 240.084918 162.344837 
L 240.084918 161.913424 
L 144 161.913424 
z
" clip-path="url(#pc2e4970803)" style="fill: #0000ff"/>
   </g>
   <g id="patch_131">
    <path d="M 241.40115 165.005217 
L 375.656789 165.005217 
L 375.656789 159.253043 
L 241.40115 159.253043 
z
" clip-path="url(#pc2e4970803)" style="fill: #0000ff"/>
   </g>
   <g id="patch_132">
    <path d="M 376.973021 162.344837 
L 466.47678 162.344837 
L 466.47678 161.913424 
L 376.973021 161.913424 
z
" clip-path="url(#pc2e4970803)" style="fill: #0000ff"/>
   </g>
   <g id="patch_133">
    <path d="M 467.793012 165.005217 
L 719.193277 165.005217 
L 719.193277 159.253043 
L 467.793012 159.253043 
z
" clip-path="url(#pc2e4970803)" style="fill: #0000ff"/>
   </g>
   <g id="patch_134">
    <path d="M 471.741707 165.005217 
L 623.108359 165.005217 
L 623.108359 159.253043 
L 471.741707 159.253043 
z
" clip-path="url(#pc2e4970803)" style="fill: #0000ff"/>
   </g>
   <g id="patch_135">
    <path d="M 480.95533 165.005217 
L 673.125166 165.005217 
L 673.125166 159.253043 
L 480.95533 159.253043 
z
" clip-path="url(#pc2e4970803)" style="fill: #0000ff"/>
   </g>
   <g id="patch_136">
    <path d="M 720.509509 162.344837 
L 846.867758 162.344837 
L 846.867758 161.913424 
L 720.509509 161.913424 
z
" clip-path="url(#pc2e4970803)" style="fill: #0000ff"/>
   </g>
   <g id="patch_137">
    <path d="M 144 147.964402 
L 265.093322 147.964402 
L 265.093322 147.532989 
L 144 147.532989 
z
" clip-path="url(#pc2e4970803)" style="fill: #0000ff"/>
   </g>
   <g id="patch_138">
    <path d="M 266.409553 150.624783 
L 475.690402 150.624783 
L 475.690402 144.872609 
L 266.409553 144.872609 
z
" clip-path="url(#pc2e4970803)" style="fill: #0000ff"/>
   </g>
   <g id="patch_139">
    <path d="M 297.999115 150.624783 
L 486.220257 150.624783 
L 486.220257 144.872609 
L 297.999115 144.872609 
z
" clip-path="url(#pc2e4970803)" style="fill: #0000ff"/>
   </g>
   <g id="patch_140">
    <path d="M 299.315347 150.624783 
L 463.844317 150.624783 
L 463.844317 144.872609 
L 299.315347 144.872609 
z
" clip-path="url(#pc2e4970803)" style="fill: #0000ff"/>
   </g>
   <g id="patch_141">
    <path d="M 299.315347 150.624783 
L 446.733304 150.624783 
L 446.733304 144.872609 
L 299.315347 144.872609 
z
" clip-path="url(#pc2e4970803)" style="fill: #0000ff"/>
   </g>
   <g id="patch_142">
    <path d="M 487.536488 147.964402 
L 528.339673 147.964402 
L 528.339673 147.532989 
L 487.536488 147.532989 
z
" clip-path="url(#pc2e4970803)" style="fill: #0000ff"/>
   </g>
   <g id="patch_143">
    <path d="M 144 133.583967 
L 194.016807 133.583967 
L 194.016807 133.152554 
L 144 133.152554 
z
" clip-path="url(#pc2e4970803)" style="fill: #0000ff"/>
   </g>
   <g id="patch_144">
    <path d="M 195.333038 136.244348 
L 401.981424 136.244348 
L 401.981424 130.492174 
L 195.333038 130.492174 
z
" clip-path="url(#pc2e4970803)" style="fill: #0000ff"/>
   </g>
   <g id="patch_145">
    <path d="M 205.862893 136.244348 
L 404.613888 136.244348 
L 404.613888 130.492174 
L 205.862893 130.492174 
z
" clip-path="url(#pc2e4970803)" style="fill: #0000ff"/>
   </g>
   <g id="patch_146">
    <path d="M 261.144626 136.244348 
L 399.348961 136.244348 
L 399.348961 130.492174 
L 261.144626 130.492174 
z
" clip-path="url(#pc2e4970803)" style="fill: #0000ff"/>
   </g>
   <g id="patch_147">
    <path d="M 388.819107 136.244348 
L 634.954445 136.244348 
L 634.954445 130.492174 
L 388.819107 130.492174 
z
" clip-path="url(#pc2e4970803)" style="fill: #0000ff"/>
   </g>
   <g id="patch_148">
    <path d="M 432.254755 136.244348 
L 596.783724 136.244348 
L 596.783724 130.492174 
L 432.254755 130.492174 
z
" clip-path="url(#pc2e4970803)" style="fill: #0000ff"/>
   </g>
   <g id="patch_149">
    <path d="M 636.270677 133.583967 
L 661.27908 133.583967 
L 661.27908 133.152554 
L 636.270677 133.152554 
z
" clip-path="url(#pc2e4970803)" style="fill: #0000ff"/>
   </g>
   <g id="patch_150">
    <path d="M 144 119.203533 
L 174.27333 119.203533 
L 174.27333 118.77212 
L 144 118.77212 
z
" clip-path="url(#pc2e4970803)" style="fill: #0000ff"/>
   </g>
   <g id="patch_151">
    <path d="M 175.589562 121.863913 
L 390.135338 121.863913 
L 390.135338 116.111739 
L 175.589562 116.111739 
z
" clip-path="url(#pc2e4970803)" style="fill: #0000ff"/>
   </g>
   <g id="patch_152">
    <path d="M 175.589562 121.863913 
L 399.348961 121.863913 
L 399.348961 116.111739 
L 175.589562 116.111739 
z
" clip-path="url(#pc2e4970803)" style="fill: #0000ff"/>
   </g>
   <g id="patch_153">
    <path d="M 379.605484 121.863913 
L 646.800531 121.863913 
L 646.800531 116.111739 
L 379.605484 116.111739 
z
" clip-path="url(#pc2e4970803)" style="fill: #0000ff"/>
   </g>
   <g id="patch_154">
    <path d="M 448.049536 121.863913 
L 609.946042 121.863913 
L 609.946042 116.111739 
L 448.049536 116.111739 
z
" clip-path="url(#pc2e4970803)" style="fill: #0000ff"/>
   </g>
   <g id="patch_155">
    <path d="M 449.365767 121.863913 
L 609.946042 121.863913 
L 609.946042 116.111739 
L 449.365767 116.111739 
z
" clip-path="url(#pc2e4970803)" style="fill: #0000ff"/>
   </g>
   <g id="patch_156">
    <path d="M 449.365767 121.863913 
L 561.245467 121.863913 
L 561.245467 116.111739 
L 449.365767 116.111739 
z
" clip-path="url(#pc2e4970803)" style="fill: #0000ff"/>
   </g>
   <g id="patch_157">
    <path d="M 450.681999 121.863913 
L 646.800531 121.863913 
L 646.800531 116.111739 
L 450.681999 116.111739 
z
" clip-path="url(#pc2e4970803)" style="fill: #0000ff"/>
   </g>
   <g id="patch_158">
    <path d="M 450.681999 121.863913 
L 609.946042 121.863913 
L 609.946042 116.111739 
L 450.681999 116.111739 
z
" clip-path="url(#pc2e4970803)" style="fill: #0000ff"/>
   </g>
   <g id="patch_159">
    <path d="M 648.116762 119.203533 
L 673.125166 119.203533 
L 673.125166 118.77212 
L 648.116762 118.77212 
z
" clip-path="url(#pc2e4970803)" style="fill: #0000ff"/>
   </g>
   <g id="patch_160">
    <path d="M 144 104.823098 
L 166.37594 104.823098 
L 166.37594 104.391685 
L 144 104.391685 
z
" clip-path="url(#pc2e4970803)" style="fill: #0000ff"/>
   </g>
   <g id="patch_161">
    <path d="M 167.692172 107.483478 
L 415.143742 107.483478 
L 415.143742 101.731304 
L 167.692172 101.731304 
z
" clip-path="url(#pc2e4970803)" style="fill: #0000ff"/>
   </g>
   <g id="patch_162">
    <path d="M 233.503759 107.483478 
L 421.7249 107.483478 
L 421.7249 101.731304 
L 233.503759 101.731304 
z
" clip-path="url(#pc2e4970803)" style="fill: #0000ff"/>
   </g>
   <g id="patch_163">
    <path d="M 423.041132 104.823098 
L 470.425475 104.823098 
L 470.425475 104.391685 
L 423.041132 104.391685 
z
" clip-path="url(#pc2e4970803)" style="fill: #0000ff"/>
   </g>
   <g id="patch_164">
    <path d="M 471.741707 107.483478 
L 674.441398 107.483478 
L 674.441398 101.731304 
L 471.741707 101.731304 
z
" clip-path="url(#pc2e4970803)" style="fill: #0000ff"/>
   </g>
   <g id="patch_165">
    <path d="M 479.639098 107.483478 
L 634.954445 107.483478 
L 634.954445 101.731304 
L 479.639098 101.731304 
z
" clip-path="url(#pc2e4970803)" style="fill: #0000ff"/>
   </g>
   <g id="patch_166">
    <path d="M 479.639098 107.483478 
L 634.954445 107.483478 
L 634.954445 101.731304 
L 479.639098 101.731304 
z
" clip-path="url(#pc2e4970803)" style="fill: #0000ff"/>
   </g>
   <g id="patch_167">
    <path d="M 480.95533 107.483478 
L 666.544007 107.483478 
L 666.544007 101.731304 
L 480.95533 101.731304 
z
" clip-path="url(#pc2e4970803)" style="fill: #0000ff"/>
   </g>
   <g id="patch_168">
    <path d="M 675.757629 104.823098 
L 738.936754 104.823098 
L 738.936754 104.391685 
L 675.757629 104.391685 
z
" clip-path="url(#pc2e4970803)" style="fill: #0000ff"/>
   </g>
   <g id="patch_169">
    <path d="M 144 90.442663 
L 172.957099 90.442663 
L 172.957099 90.01125 
L 144 90.01125 
z
" clip-path="url(#pc2e4970803)" style="fill: #0000ff"/>
   </g>
   <g id="patch_170">
    <path d="M 174.27333 93.103043 
L 395.400265 93.103043 
L 395.400265 87.35087 
L 174.27333 87.35087 
z
" clip-path="url(#pc2e4970803)" style="fill: #0000ff"/>
   </g>
   <g id="patch_171">
    <path d="M 184.803184 93.103043 
L 395.400265 93.103043 
L 395.400265 87.35087 
L 184.803184 87.35087 
z
" clip-path="url(#pc2e4970803)" style="fill: #0000ff"/>
   </g>
   <g id="patch_172">
    <path d="M 387.502875 93.103043 
L 640.219372 93.103043 
L 640.219372 87.35087 
L 387.502875 87.35087 
z
" clip-path="url(#pc2e4970803)" style="fill: #0000ff"/>
   </g>
   <g id="patch_173">
    <path d="M 442.784609 93.103043 
L 603.364883 93.103043 
L 603.364883 87.35087 
L 442.784609 87.35087 
z
" clip-path="url(#pc2e4970803)" style="fill: #0000ff"/>
   </g>
   <g id="patch_174">
    <path d="M 444.10084 93.103043 
L 603.364883 93.103043 
L 603.364883 87.35087 
L 444.10084 87.35087 
z
" clip-path="url(#pc2e4970803)" style="fill: #0000ff"/>
   </g>
   <g id="patch_175">
    <path d="M 444.10084 93.103043 
L 608.62981 93.103043 
L 608.62981 87.35087 
L 444.10084 87.35087 
z
" clip-path="url(#pc2e4970803)" style="fill: #0000ff"/>
   </g>
   <g id="patch_176">
    <path d="M 445.417072 93.103043 
L 637.586908 93.103043 
L 637.586908 87.35087 
L 445.417072 87.35087 
z
" clip-path="url(#pc2e4970803)" style="fill: #0000ff"/>
   </g>
   <g id="patch_177">
    <path d="M 641.535604 90.442663 
L 769.210084 90.442663 
L 769.210084 90.01125 
L 641.535604 90.01125 
z
" clip-path="url(#pc2e4970803)" style="fill: #0000ff"/>
   </g>
   <g id="patch_178">
    <path d="M 144 76.062228 
L 208.495356 76.062228 
L 208.495356 75.630815 
L 144 75.630815 
z
" clip-path="url(#pc2e4970803)" style="fill: #0000ff"/>
   </g>
   <g id="patch_179">
    <path d="M 209.811588 78.722609 
L 508.596196 78.722609 
L 508.596196 72.970435 
L 209.811588 72.970435 
z
" clip-path="url(#pc2e4970803)" style="fill: #0000ff"/>
   </g>
   <g id="patch_180">
    <path d="M 509.912428 76.062228 
L 571.775321 76.062228 
L 571.775321 75.630815 
L 509.912428 75.630815 
z
" clip-path="url(#pc2e4970803)" style="fill: #0000ff"/>
   </g>
   <g id="patch_181">
    <path d="M 573.091552 78.722609 
L 778.423706 78.722609 
L 778.423706 72.970435 
L 573.091552 72.970435 
z
" clip-path="url(#pc2e4970803)" style="fill: #0000ff"/>
   </g>
   <g id="patch_182">
    <path d="M 582.305175 78.722609 
L 785.004865 78.722609 
L 785.004865 72.970435 
L 582.305175 72.970435 
z
" clip-path="url(#pc2e4970803)" style="fill: #0000ff"/>
   </g>
   <g id="patch_183">
    <path d="M 587.570102 78.722609 
L 695.501106 78.722609 
L 695.501106 72.970435 
L 587.570102 72.970435 
z
" clip-path="url(#pc2e4970803)" style="fill: #0000ff"/>
   </g>
   <g id="patch_184">
    <path d="M 588.886333 78.722609 
L 746.834144 78.722609 
L 746.834144 72.970435 
L 588.886333 72.970435 
z
" clip-path="url(#pc2e4970803)" style="fill: #0000ff"/>
   </g>
   <g id="patch_185">
    <path d="M 590.202565 78.722609 
L 727.090668 78.722609 
L 727.090668 72.970435 
L 590.202565 72.970435 
z
" clip-path="url(#pc2e4970803)" style="fill: #0000ff"/>
   </g>
   <g id="patch_186">
    <path d="M 590.202565 78.722609 
L 748.150376 78.722609 
L 748.150376 72.970435 
L 590.202565 72.970435 
z
" clip-path="url(#pc2e4970803)" style="fill: #0000ff"/>
   </g>
   <g id="patch_187">
    <path d="M 786.321097 76.062228 
L 883.722247 76.062228 
L 883.722247 75.630815 
L 786.321097 75.630815 
z
" clip-path="url(#pc2e4970803)" style="fill: #0000ff"/>
   </g>
   <g id="patch_188">
    <path d="M 144 61.681793 
L 212.444051 61.681793 
L 212.444051 61.25038 
L 144 61.25038 
z
" clip-path="url(#pc2e4970803)" style="fill: #0000ff"/>
   </g>
   <g id="patch_189">
    <path d="M 213.760283 64.342174 
L 450.681999 64.342174 
L 450.681999 58.59 
L 213.760283 58.59 
z
" clip-path="url(#pc2e4970803)" style="fill: #0000ff"/>
   </g>
   <g id="patch_190">
    <path d="M 244.033613 64.342174 
L 407.246351 64.342174 
L 407.246351 58.59 
L 244.033613 58.59 
z
" clip-path="url(#pc2e4970803)" style="fill: #0000ff"/>
   </g>
   <g id="patch_191">
    <path d="M 245.349845 64.342174 
L 407.246351 64.342174 
L 407.246351 58.59 
L 245.349845 58.59 
z
" clip-path="url(#pc2e4970803)" style="fill: #0000ff"/>
   </g>
   <g id="patch_192">
    <path d="M 245.349845 64.342174 
L 407.246351 64.342174 
L 407.246351 58.59 
L 245.349845 58.59 
z
" clip-path="url(#pc2e4970803)" style="fill: #0000ff"/>
   </g>
   <g id="patch_193">
    <path d="M 245.349845 64.342174 
L 407.246351 64.342174 
L 407.246351 58.59 
L 245.349845 58.59 
z
" clip-path="url(#pc2e4970803)" style="fill: #0000ff"/>
   </g>
   <g id="patch_194">
    <path d="M 451.998231 61.681793 
L 500.698806 61.681793 
L 500.698806 61.25038 
L 451.998231 61.25038 
z
" clip-path="url(#pc2e4970803)" style="fill: #0000ff"/>
   </g>
   <g id="matplotlib.axis_1">
    <g id="xtick_1">
     <g id="line2d_1">
      <defs>
       <path id="m348cac3091" d="M 0 0 
L 0 3.5 
" style="stroke: #000000; stroke-width: 0.8"/>
      </defs>
      <g>
       <use xlink:href="#m348cac3091" x="274.306944" y="336.42" style="stroke: #000000; stroke-width: 0.8"/>
      </g>
     </g>
     <g id="text_1">
      <!-- 100 -->
      <g transform="translate(264.763194 351.018438) scale(0.1 -0.1)">
       <defs>
        <path id="DejaVuSans-31" d="M 794 531 
L 1825 531 
L 1825 4091 
L 703 3866 
L 703 4441 
L 1819 4666 
L 2450 4666 
L 2450 531 
L 3481 531 
L 3481 0 
L 794 0 
L 794 531 
z
" transform="scale(0.015625)"/>
        <path id="DejaVuSans-30" d="M 2034 4250 
Q 1547 4250 1301 3770 
Q 1056 3291 1056 2328 
Q 1056 1369 1301 889 
Q 1547 409 2034 409 
Q 2525 409 2770 889 
Q 3016 1369 3016 2328 
Q 3016 3291 2770 3770 
Q 2525 4250 2034 4250 
z
M 2034 4750 
Q 2819 4750 3233 4129 
Q 3647 3509 3647 2328 
Q 3647 1150 3233 529 
Q 2819 -91 2034 -91 
Q 1250 -91 836 529 
Q 422 1150 422 2328 
Q 422 3509 836 4129 
Q 1250 4750 2034 4750 
z
" transform="scale(0.015625)"/>
       </defs>
       <use xlink:href="#DejaVuSans-31"/>
       <use xlink:href="#DejaVuSans-30" x="63.623047"/>
       <use xlink:href="#DejaVuSans-30" x="127.246094"/>
      </g>
     </g>
    </g>
    <g id="xtick_2">
     <g id="line2d_2">
      <g>
       <use xlink:href="#m348cac3091" x="405.930119" y="336.42" style="stroke: #000000; stroke-width: 0.8"/>
      </g>
     </g>
     <g id="text_2">
      <!-- 200 -->
      <g transform="translate(396.386369 351.018438) scale(0.1 -0.1)">
       <defs>
        <path id="DejaVuSans-32" d="M 1228 531 
L 3431 531 
L 3431 0 
L 469 0 
L 469 531 
Q 828 903 1448 1529 
Q 2069 2156 2228 2338 
Q 2531 2678 2651 2914 
Q 2772 3150 2772 3378 
Q 2772 3750 2511 3984 
Q 2250 4219 1831 4219 
Q 1534 4219 1204 4116 
Q 875 4013 500 3803 
L 500 4441 
Q 881 4594 1212 4672 
Q 1544 4750 1819 4750 
Q 2544 4750 2975 4387 
Q 3406 4025 3406 3419 
Q 3406 3131 3298 2873 
Q 3191 2616 2906 2266 
Q 2828 2175 2409 1742 
Q 1991 1309 1228 531 
z
" transform="scale(0.015625)"/>
       </defs>
       <use xlink:href="#DejaVuSans-32"/>
       <use xlink:href="#DejaVuSans-30" x="63.623047"/>
       <use xlink:href="#DejaVuSans-30" x="127.246094"/>
      </g>
     </g>
    </g>
    <g id="xtick_3">
     <g id="line2d_3">
      <g>
       <use xlink:href="#m348cac3091" x="537.553295" y="336.42" style="stroke: #000000; stroke-width: 0.8"/>
      </g>
     </g>
     <g id="text_3">
      <!-- 300 -->
      <g transform="translate(528.009545 351.018438) scale(0.1 -0.1)">
       <defs>
        <path id="DejaVuSans-33" d="M 2597 2516 
Q 3050 2419 3304 2112 
Q 3559 1806 3559 1356 
Q 3559 666 3084 287 
Q 2609 -91 1734 -91 
Q 1441 -91 1130 -33 
Q 819 25 488 141 
L 488 750 
Q 750 597 1062 519 
Q 1375 441 1716 441 
Q 2309 441 2620 675 
Q 2931 909 2931 1356 
Q 2931 1769 2642 2001 
Q 2353 2234 1838 2234 
L 1294 2234 
L 1294 2753 
L 1863 2753 
Q 2328 2753 2575 2939 
Q 2822 3125 2822 3475 
Q 2822 3834 2567 4026 
Q 2313 4219 1838 4219 
Q 1578 4219 1281 4162 
Q 984 4106 628 3988 
L 628 4550 
Q 988 4650 1302 4700 
Q 1616 4750 1894 4750 
Q 2613 4750 3031 4423 
Q 3450 4097 3450 3541 
Q 3450 3153 3228 2886 
Q 3006 2619 2597 2516 
z
" transform="scale(0.015625)"/>
       </defs>
       <use xlink:href="#DejaVuSans-33"/>
       <use xlink:href="#DejaVuSans-30" x="63.623047"/>
       <use xlink:href="#DejaVuSans-30" x="127.246094"/>
      </g>
     </g>
    </g>
    <g id="xtick_4">
     <g id="line2d_4">
      <g>
       <use xlink:href="#m348cac3091" x="669.176471" y="336.42" style="stroke: #000000; stroke-width: 0.8"/>
      </g>
     </g>
     <g id="text_4">
      <!-- 400 -->
      <g transform="translate(659.632721 351.018438) scale(0.1 -0.1)">
       <defs>
        <path id="DejaVuSans-34" d="M 2419 4116 
L 825 1625 
L 2419 1625 
L 2419 4116 
z
M 2253 4666 
L 3047 4666 
L 3047 1625 
L 3713 1625 
L 3713 1100 
L 3047 1100 
L 3047 0 
L 2419 0 
L 2419 1100 
L 313 1100 
L 313 1709 
L 2253 4666 
z
" transform="scale(0.015625)"/>
       </defs>
       <use xlink:href="#DejaVuSans-34"/>
       <use xlink:href="#DejaVuSans-30" x="63.623047"/>
       <use xlink:href="#DejaVuSans-30" x="127.246094"/>
      </g>
     </g>
    </g>
    <g id="xtick_5">
     <g id="line2d_5">
      <g>
       <use xlink:href="#m348cac3091" x="800.799646" y="336.42" style="stroke: #000000; stroke-width: 0.8"/>
      </g>
     </g>
     <g id="text_5">
      <!-- 500 -->
      <g transform="translate(791.255896 351.018438) scale(0.1 -0.1)">
       <defs>
        <path id="DejaVuSans-35" d="M 691 4666 
L 3169 4666 
L 3169 4134 
L 1269 4134 
L 1269 2991 
Q 1406 3038 1543 3061 
Q 1681 3084 1819 3084 
Q 2600 3084 3056 2656 
Q 3513 2228 3513 1497 
Q 3513 744 3044 326 
Q 2575 -91 1722 -91 
Q 1428 -91 1123 -41 
Q 819 9 494 109 
L 494 744 
Q 775 591 1075 516 
Q 1375 441 1709 441 
Q 2250 441 2565 725 
Q 2881 1009 2881 1497 
Q 2881 1984 2565 2268 
Q 2250 2553 1709 2553 
Q 1456 2553 1204 2497 
Q 953 2441 691 2322 
L 691 4666 
z
" transform="scale(0.015625)"/>
       </defs>
       <use xlink:href="#DejaVuSans-35"/>
       <use xlink:href="#DejaVuSans-30" x="63.623047"/>
       <use xlink:href="#DejaVuSans-30" x="127.246094"/>
      </g>
     </g>
    </g>
    <g id="xtick_6">
     <g id="line2d_6">
      <g>
       <use xlink:href="#m348cac3091" x="932.422822" y="336.42" style="stroke: #000000; stroke-width: 0.8"/>
      </g>
     </g>
     <g id="text_6">
      <!-- 600 -->
      <g transform="translate(922.879072 351.018438) scale(0.1 -0.1)">
       <defs>
        <path id="DejaVuSans-36" d="M 2113 2584 
Q 1688 2584 1439 2293 
Q 1191 2003 1191 1497 
Q 1191 994 1439 701 
Q 1688 409 2113 409 
Q 2538 409 2786 701 
Q 3034 994 3034 1497 
Q 3034 2003 2786 2293 
Q 2538 2584 2113 2584 
z
M 3366 4563 
L 3366 3988 
Q 3128 4100 2886 4159 
Q 2644 4219 2406 4219 
Q 1781 4219 1451 3797 
Q 1122 3375 1075 2522 
Q 1259 2794 1537 2939 
Q 1816 3084 2150 3084 
Q 2853 3084 3261 2657 
Q 3669 2231 3669 1497 
Q 3669 778 3244 343 
Q 2819 -91 2113 -91 
Q 1303 -91 875 529 
Q 447 1150 447 2328 
Q 447 3434 972 4092 
Q 1497 4750 2381 4750 
Q 2619 4750 2861 4703 
Q 3103 4656 3366 4563 
z
" transform="scale(0.015625)"/>
       </defs>
       <use xlink:href="#DejaVuSans-36"/>
       <use xlink:href="#DejaVuSans-30" x="63.623047"/>
       <use xlink:href="#DejaVuSans-30" x="127.246094"/>
      </g>
     </g>
    </g>
    <g id="text_7">
     <!-- Residual -->
     <g transform="translate(569.284375 364.696563) scale(0.1 -0.1)">
      <defs>
       <path id="DejaVuSans-52" d="M 2841 2188 
Q 3044 2119 3236 1894 
Q 3428 1669 3622 1275 
L 4263 0 
L 3584 0 
L 2988 1197 
Q 2756 1666 2539 1819 
Q 2322 1972 1947 1972 
L 1259 1972 
L 1259 0 
L 628 0 
L 628 4666 
L 2053 4666 
Q 2853 4666 3247 4331 
Q 3641 3997 3641 3322 
Q 3641 2881 3436 2590 
Q 3231 2300 2841 2188 
z
M 1259 4147 
L 1259 2491 
L 2053 2491 
Q 2509 2491 2742 2702 
Q 2975 2913 2975 3322 
Q 2975 3731 2742 3939 
Q 2509 4147 2053 4147 
L 1259 4147 
z
" transform="scale(0.015625)"/>
       <path id="DejaVuSans-65" d="M 3597 1894 
L 3597 1613 
L 953 1613 
Q 991 1019 1311 708 
Q 1631 397 2203 397 
Q 2534 397 2845 478 
Q 3156 559 3463 722 
L 3463 178 
Q 3153 47 2828 -22 
Q 2503 -91 2169 -91 
Q 1331 -91 842 396 
Q 353 884 353 1716 
Q 353 2575 817 3079 
Q 1281 3584 2069 3584 
Q 2775 3584 3186 3129 
Q 3597 2675 3597 1894 
z
M 3022 2063 
Q 3016 2534 2758 2815 
Q 2500 3097 2075 3097 
Q 1594 3097 1305 2825 
Q 1016 2553 972 2059 
L 3022 2063 
z
" transform="scale(0.015625)"/>
       <path id="DejaVuSans-73" d="M 2834 3397 
L 2834 2853 
Q 2591 2978 2328 3040 
Q 2066 3103 1784 3103 
Q 1356 3103 1142 2972 
Q 928 2841 928 2578 
Q 928 2378 1081 2264 
Q 1234 2150 1697 2047 
L 1894 2003 
Q 2506 1872 2764 1633 
Q 3022 1394 3022 966 
Q 3022 478 2636 193 
Q 2250 -91 1575 -91 
Q 1294 -91 989 -36 
Q 684 19 347 128 
L 347 722 
Q 666 556 975 473 
Q 1284 391 1588 391 
Q 1994 391 2212 530 
Q 2431 669 2431 922 
Q 2431 1156 2273 1281 
Q 2116 1406 1581 1522 
L 1381 1569 
Q 847 1681 609 1914 
Q 372 2147 372 2553 
Q 372 3047 722 3315 
Q 1072 3584 1716 3584 
Q 2034 3584 2315 3537 
Q 2597 3491 2834 3397 
z
" transform="scale(0.015625)"/>
       <path id="DejaVuSans-69" d="M 603 3500 
L 1178 3500 
L 1178 0 
L 603 0 
L 603 3500 
z
M 603 4863 
L 1178 4863 
L 1178 4134 
L 603 4134 
L 603 4863 
z
" transform="scale(0.015625)"/>
       <path id="DejaVuSans-64" d="M 2906 2969 
L 2906 4863 
L 3481 4863 
L 3481 0 
L 2906 0 
L 2906 525 
Q 2725 213 2448 61 
Q 2172 -91 1784 -91 
Q 1150 -91 751 415 
Q 353 922 353 1747 
Q 353 2572 751 3078 
Q 1150 3584 1784 3584 
Q 2172 3584 2448 3432 
Q 2725 3281 2906 2969 
z
M 947 1747 
Q 947 1113 1208 752 
Q 1469 391 1925 391 
Q 2381 391 2643 752 
Q 2906 1113 2906 1747 
Q 2906 2381 2643 2742 
Q 2381 3103 1925 3103 
Q 1469 3103 1208 2742 
Q 947 2381 947 1747 
z
" transform="scale(0.015625)"/>
       <path id="DejaVuSans-75" d="M 544 1381 
L 544 3500 
L 1119 3500 
L 1119 1403 
Q 1119 906 1312 657 
Q 1506 409 1894 409 
Q 2359 409 2629 706 
Q 2900 1003 2900 1516 
L 2900 3500 
L 3475 3500 
L 3475 0 
L 2900 0 
L 2900 538 
Q 2691 219 2414 64 
Q 2138 -91 1772 -91 
Q 1169 -91 856 284 
Q 544 659 544 1381 
z
M 1991 3584 
L 1991 3584 
z
" transform="scale(0.015625)"/>
       <path id="DejaVuSans-61" d="M 2194 1759 
Q 1497 1759 1228 1600 
Q 959 1441 959 1056 
Q 959 750 1161 570 
Q 1363 391 1709 391 
Q 2188 391 2477 730 
Q 2766 1069 2766 1631 
L 2766 1759 
L 2194 1759 
z
M 3341 1997 
L 3341 0 
L 2766 0 
L 2766 531 
Q 2569 213 2275 61 
Q 1981 -91 1556 -91 
Q 1019 -91 701 211 
Q 384 513 384 1019 
Q 384 1609 779 1909 
Q 1175 2209 1959 2209 
L 2766 2209 
L 2766 2266 
Q 2766 2663 2505 2880 
Q 2244 3097 1772 3097 
Q 1472 3097 1187 3025 
Q 903 2953 641 2809 
L 641 3341 
Q 956 3463 1253 3523 
Q 1550 3584 1831 3584 
Q 2591 3584 2966 3190 
Q 3341 2797 3341 1997 
z
" transform="scale(0.015625)"/>
       <path id="DejaVuSans-6c" d="M 603 4863 
L 1178 4863 
L 1178 0 
L 603 0 
L 603 4863 
z
" transform="scale(0.015625)"/>
      </defs>
      <use xlink:href="#DejaVuSans-52"/>
      <use xlink:href="#DejaVuSans-65" x="64.982422"/>
      <use xlink:href="#DejaVuSans-73" x="126.505859"/>
      <use xlink:href="#DejaVuSans-69" x="178.605469"/>
      <use xlink:href="#DejaVuSans-64" x="206.388672"/>
      <use xlink:href="#DejaVuSans-75" x="269.865234"/>
      <use xlink:href="#DejaVuSans-61" x="333.244141"/>
      <use xlink:href="#DejaVuSans-6c" x="394.523438"/>
     </g>
    </g>
   </g>
   <g id="matplotlib.axis_2">
    <g id="ytick_1">
     <g id="line2d_7">
      <defs>
       <path id="m1a22c28d40" d="M 0 0 
L -3.5 0 
" style="stroke: #000000; stroke-width: 0.8"/>
      </defs>
      <g>
       <use xlink:href="#m1a22c28d40" x="144" y="320.313913" style="stroke: #000000; stroke-width: 0.8"/>
      </g>
     </g>
     <g id="text_8">
      <!-- 5.B.2.1.1 -->
      <g transform="translate(91.976562 324.113132) scale(0.1 -0.1)">
       <defs>
        <path id="DejaVuSans-2e" d="M 684 794 
L 1344 794 
L 1344 0 
L 684 0 
L 684 794 
z
" transform="scale(0.015625)"/>
        <path id="DejaVuSans-42" d="M 1259 2228 
L 1259 519 
L 2272 519 
Q 2781 519 3026 730 
Q 3272 941 3272 1375 
Q 3272 1813 3026 2020 
Q 2781 2228 2272 2228 
L 1259 2228 
z
M 1259 4147 
L 1259 2741 
L 2194 2741 
Q 2656 2741 2882 2914 
Q 3109 3088 3109 3444 
Q 3109 3797 2882 3972 
Q 2656 4147 2194 4147 
L 1259 4147 
z
M 628 4666 
L 2241 4666 
Q 2963 4666 3353 4366 
Q 3744 4066 3744 3513 
Q 3744 3084 3544 2831 
Q 3344 2578 2956 2516 
Q 3422 2416 3680 2098 
Q 3938 1781 3938 1306 
Q 3938 681 3513 340 
Q 3088 0 2303 0 
L 628 0 
L 628 4666 
z
" transform="scale(0.015625)"/>
       </defs>
       <use xlink:href="#DejaVuSans-35"/>
       <use xlink:href="#DejaVuSans-2e" x="63.623047"/>
       <use xlink:href="#DejaVuSans-42" x="95.410156"/>
       <use xlink:href="#DejaVuSans-2e" x="164.013672"/>
       <use xlink:href="#DejaVuSans-32" x="195.800781"/>
       <use xlink:href="#DejaVuSans-2e" x="259.423828"/>
       <use xlink:href="#DejaVuSans-31" x="291.210938"/>
       <use xlink:href="#DejaVuSans-2e" x="354.833984"/>
       <use xlink:href="#DejaVuSans-31" x="386.621094"/>
      </g>
     </g>
    </g>
    <g id="ytick_2">
     <g id="line2d_8">
      <g>
       <use xlink:href="#m1a22c28d40" x="144" y="305.933478" style="stroke: #000000; stroke-width: 0.8"/>
      </g>
     </g>
     <g id="text_9">
      <!-- 5.B.2.1.2 -->
      <g transform="translate(91.976562 309.732697) scale(0.1 -0.1)">
       <use xlink:href="#DejaVuSans-35"/>
       <use xlink:href="#DejaVuSans-2e" x="63.623047"/>
       <use xlink:href="#DejaVuSans-42" x="95.410156"/>
       <use xlink:href="#DejaVuSans-2e" x="164.013672"/>
       <use xlink:href="#DejaVuSans-32" x="195.800781"/>
       <use xlink:href="#DejaVuSans-2e" x="259.423828"/>
       <use xlink:href="#DejaVuSans-31" x="291.210938"/>
       <use xlink:href="#DejaVuSans-2e" x="354.833984"/>
       <use xlink:href="#DejaVuSans-32" x="386.621094"/>
      </g>
     </g>
    </g>
    <g id="ytick_3">
     <g id="line2d_9">
      <g>
       <use xlink:href="#m1a22c28d40" x="144" y="291.553043" style="stroke: #000000; stroke-width: 0.8"/>
      </g>
     </g>
     <g id="text_10">
      <!-- 5.B.2.1.3 -->
      <g transform="translate(91.976562 295.352262) scale(0.1 -0.1)">
       <use xlink:href="#DejaVuSans-35"/>
       <use xlink:href="#DejaVuSans-2e" x="63.623047"/>
       <use xlink:href="#DejaVuSans-42" x="95.410156"/>
       <use xlink:href="#DejaVuSans-2e" x="164.013672"/>
       <use xlink:href="#DejaVuSans-32" x="195.800781"/>
       <use xlink:href="#DejaVuSans-2e" x="259.423828"/>
       <use xlink:href="#DejaVuSans-31" x="291.210938"/>
       <use xlink:href="#DejaVuSans-2e" x="354.833984"/>
       <use xlink:href="#DejaVuSans-33" x="386.621094"/>
      </g>
     </g>
    </g>
    <g id="ytick_4">
     <g id="line2d_10">
      <g>
       <use xlink:href="#m1a22c28d40" x="144" y="277.172609" style="stroke: #000000; stroke-width: 0.8"/>
      </g>
     </g>
     <g id="text_11">
      <!-- 5.B.2.1.4 -->
      <g transform="translate(91.976562 280.971827) scale(0.1 -0.1)">
       <use xlink:href="#DejaVuSans-35"/>
       <use xlink:href="#DejaVuSans-2e" x="63.623047"/>
       <use xlink:href="#DejaVuSans-42" x="95.410156"/>
       <use xlink:href="#DejaVuSans-2e" x="164.013672"/>
       <use xlink:href="#DejaVuSans-32" x="195.800781"/>
       <use xlink:href="#DejaVuSans-2e" x="259.423828"/>
       <use xlink:href="#DejaVuSans-31" x="291.210938"/>
       <use xlink:href="#DejaVuSans-2e" x="354.833984"/>
       <use xlink:href="#DejaVuSans-34" x="386.621094"/>
      </g>
     </g>
    </g>
    <g id="ytick_5">
     <g id="line2d_11">
      <g>
       <use xlink:href="#m1a22c28d40" x="144" y="262.792174" style="stroke: #000000; stroke-width: 0.8"/>
      </g>
     </g>
     <g id="text_12">
      <!-- 5.B.2.1.5 -->
      <g transform="translate(91.976562 266.591393) scale(0.1 -0.1)">
       <use xlink:href="#DejaVuSans-35"/>
       <use xlink:href="#DejaVuSans-2e" x="63.623047"/>
       <use xlink:href="#DejaVuSans-42" x="95.410156"/>
       <use xlink:href="#DejaVuSans-2e" x="164.013672"/>
       <use xlink:href="#DejaVuSans-32" x="195.800781"/>
       <use xlink:href="#DejaVuSans-2e" x="259.423828"/>
       <use xlink:href="#DejaVuSans-31" x="291.210938"/>
       <use xlink:href="#DejaVuSans-2e" x="354.833984"/>
       <use xlink:href="#DejaVuSans-35" x="386.621094"/>
      </g>
     </g>
    </g>
    <g id="ytick_6">
     <g id="line2d_12">
      <g>
       <use xlink:href="#m1a22c28d40" x="144" y="248.411739" style="stroke: #000000; stroke-width: 0.8"/>
      </g>
     </g>
     <g id="text_13">
      <!-- 5.B.2.1.6 -->
      <g transform="translate(91.976562 252.210958) scale(0.1 -0.1)">
       <use xlink:href="#DejaVuSans-35"/>
       <use xlink:href="#DejaVuSans-2e" x="63.623047"/>
       <use xlink:href="#DejaVuSans-42" x="95.410156"/>
       <use xlink:href="#DejaVuSans-2e" x="164.013672"/>
       <use xlink:href="#DejaVuSans-32" x="195.800781"/>
       <use xlink:href="#DejaVuSans-2e" x="259.423828"/>
       <use xlink:href="#DejaVuSans-31" x="291.210938"/>
       <use xlink:href="#DejaVuSans-2e" x="354.833984"/>
       <use xlink:href="#DejaVuSans-36" x="386.621094"/>
      </g>
     </g>
    </g>
    <g id="ytick_7">
     <g id="line2d_13">
      <g>
       <use xlink:href="#m1a22c28d40" x="144" y="234.031304" style="stroke: #000000; stroke-width: 0.8"/>
      </g>
     </g>
     <g id="text_14">
      <!-- 5.B.2.1.7 -->
      <g transform="translate(91.976562 237.830523) scale(0.1 -0.1)">
       <defs>
        <path id="DejaVuSans-37" d="M 525 4666 
L 3525 4666 
L 3525 4397 
L 1831 0 
L 1172 0 
L 2766 4134 
L 525 4134 
L 525 4666 
z
" transform="scale(0.015625)"/>
       </defs>
       <use xlink:href="#DejaVuSans-35"/>
       <use xlink:href="#DejaVuSans-2e" x="63.623047"/>
       <use xlink:href="#DejaVuSans-42" x="95.410156"/>
       <use xlink:href="#DejaVuSans-2e" x="164.013672"/>
       <use xlink:href="#DejaVuSans-32" x="195.800781"/>
       <use xlink:href="#DejaVuSans-2e" x="259.423828"/>
       <use xlink:href="#DejaVuSans-31" x="291.210938"/>
       <use xlink:href="#DejaVuSans-2e" x="354.833984"/>
       <use xlink:href="#DejaVuSans-37" x="386.621094"/>
      </g>
     </g>
    </g>
    <g id="ytick_8">
     <g id="line2d_14">
      <g>
       <use xlink:href="#m1a22c28d40" x="144" y="219.65087" style="stroke: #000000; stroke-width: 0.8"/>
      </g>
     </g>
     <g id="text_15">
      <!-- 5.B.2.2.1 -->
      <g transform="translate(91.976562 223.450088) scale(0.1 -0.1)">
       <use xlink:href="#DejaVuSans-35"/>
       <use xlink:href="#DejaVuSans-2e" x="63.623047"/>
       <use xlink:href="#DejaVuSans-42" x="95.410156"/>
       <use xlink:href="#DejaVuSans-2e" x="164.013672"/>
       <use xlink:href="#DejaVuSans-32" x="195.800781"/>
       <use xlink:href="#DejaVuSans-2e" x="259.423828"/>
       <use xlink:href="#DejaVuSans-32" x="291.210938"/>
       <use xlink:href="#DejaVuSans-2e" x="354.833984"/>
       <use xlink:href="#DejaVuSans-31" x="386.621094"/>
      </g>
     </g>
    </g>
    <g id="ytick_9">
     <g id="line2d_15">
      <g>
       <use xlink:href="#m1a22c28d40" x="144" y="205.270435" style="stroke: #000000; stroke-width: 0.8"/>
      </g>
     </g>
     <g id="text_16">
      <!-- 5.B.2.2.2 -->
      <g transform="translate(91.976562 209.069654) scale(0.1 -0.1)">
       <use xlink:href="#DejaVuSans-35"/>
       <use xlink:href="#DejaVuSans-2e" x="63.623047"/>
       <use xlink:href="#DejaVuSans-42" x="95.410156"/>
       <use xlink:href="#DejaVuSans-2e" x="164.013672"/>
       <use xlink:href="#DejaVuSans-32" x="195.800781"/>
       <use xlink:href="#DejaVuSans-2e" x="259.423828"/>
       <use xlink:href="#DejaVuSans-32" x="291.210938"/>
       <use xlink:href="#DejaVuSans-2e" x="354.833984"/>
       <use xlink:href="#DejaVuSans-32" x="386.621094"/>
      </g>
     </g>
    </g>
    <g id="ytick_10">
     <g id="line2d_16">
      <g>
       <use xlink:href="#m1a22c28d40" x="144" y="190.89" style="stroke: #000000; stroke-width: 0.8"/>
      </g>
     </g>
     <g id="text_17">
      <!-- 5.B.2.2.3 -->
      <g transform="translate(91.976562 194.689219) scale(0.1 -0.1)">
       <use xlink:href="#DejaVuSans-35"/>
       <use xlink:href="#DejaVuSans-2e" x="63.623047"/>
       <use xlink:href="#DejaVuSans-42" x="95.410156"/>
       <use xlink:href="#DejaVuSans-2e" x="164.013672"/>
       <use xlink:href="#DejaVuSans-32" x="195.800781"/>
       <use xlink:href="#DejaVuSans-2e" x="259.423828"/>
       <use xlink:href="#DejaVuSans-32" x="291.210938"/>
       <use xlink:href="#DejaVuSans-2e" x="354.833984"/>
       <use xlink:href="#DejaVuSans-33" x="386.621094"/>
      </g>
     </g>
    </g>
    <g id="ytick_11">
     <g id="line2d_17">
      <g>
       <use xlink:href="#m1a22c28d40" x="144" y="176.509565" style="stroke: #000000; stroke-width: 0.8"/>
      </g>
     </g>
     <g id="text_18">
      <!-- 5.B.2.2.4 -->
      <g transform="translate(91.976562 180.308784) scale(0.1 -0.1)">
       <use xlink:href="#DejaVuSans-35"/>
       <use xlink:href="#DejaVuSans-2e" x="63.623047"/>
       <use xlink:href="#DejaVuSans-42" x="95.410156"/>
       <use xlink:href="#DejaVuSans-2e" x="164.013672"/>
       <use xlink:href="#DejaVuSans-32" x="195.800781"/>
       <use xlink:href="#DejaVuSans-2e" x="259.423828"/>
       <use xlink:href="#DejaVuSans-32" x="291.210938"/>
       <use xlink:href="#DejaVuSans-2e" x="354.833984"/>
       <use xlink:href="#DejaVuSans-34" x="386.621094"/>
      </g>
     </g>
    </g>
    <g id="ytick_12">
     <g id="line2d_18">
      <g>
       <use xlink:href="#m1a22c28d40" x="144" y="162.12913" style="stroke: #000000; stroke-width: 0.8"/>
      </g>
     </g>
     <g id="text_19">
      <!-- 5.B.2.2.5 -->
      <g transform="translate(91.976562 165.928349) scale(0.1 -0.1)">
       <use xlink:href="#DejaVuSans-35"/>
       <use xlink:href="#DejaVuSans-2e" x="63.623047"/>
       <use xlink:href="#DejaVuSans-42" x="95.410156"/>
       <use xlink:href="#DejaVuSans-2e" x="164.013672"/>
       <use xlink:href="#DejaVuSans-32" x="195.800781"/>
       <use xlink:href="#DejaVuSans-2e" x="259.423828"/>
       <use xlink:href="#DejaVuSans-32" x="291.210938"/>
       <use xlink:href="#DejaVuSans-2e" x="354.833984"/>
       <use xlink:href="#DejaVuSans-35" x="386.621094"/>
      </g>
     </g>
    </g>
    <g id="ytick_13">
     <g id="line2d_19">
      <g>
       <use xlink:href="#m1a22c28d40" x="144" y="147.748696" style="stroke: #000000; stroke-width: 0.8"/>
      </g>
     </g>
     <g id="text_20">
      <!-- 5.B.2.2.6 -->
      <g transform="translate(91.976562 151.547914) scale(0.1 -0.1)">
       <use xlink:href="#DejaVuSans-35"/>
       <use xlink:href="#DejaVuSans-2e" x="63.623047"/>
       <use xlink:href="#DejaVuSans-42" x="95.410156"/>
       <use xlink:href="#DejaVuSans-2e" x="164.013672"/>
       <use xlink:href="#DejaVuSans-32" x="195.800781"/>
       <use xlink:href="#DejaVuSans-2e" x="259.423828"/>
       <use xlink:href="#DejaVuSans-32" x="291.210938"/>
       <use xlink:href="#DejaVuSans-2e" x="354.833984"/>
       <use xlink:href="#DejaVuSans-36" x="386.621094"/>
      </g>
     </g>
    </g>
    <g id="ytick_14">
     <g id="line2d_20">
      <g>
       <use xlink:href="#m1a22c28d40" x="144" y="133.368261" style="stroke: #000000; stroke-width: 0.8"/>
      </g>
     </g>
     <g id="text_21">
      <!-- 5.B.2.2.7 -->
      <g transform="translate(91.976562 137.16748) scale(0.1 -0.1)">
       <use xlink:href="#DejaVuSans-35"/>
       <use xlink:href="#DejaVuSans-2e" x="63.623047"/>
       <use xlink:href="#DejaVuSans-42" x="95.410156"/>
       <use xlink:href="#DejaVuSans-2e" x="164.013672"/>
       <use xlink:href="#DejaVuSans-32" x="195.800781"/>
       <use xlink:href="#DejaVuSans-2e" x="259.423828"/>
       <use xlink:href="#DejaVuSans-32" x="291.210938"/>
       <use xlink:href="#DejaVuSans-2e" x="354.833984"/>
       <use xlink:href="#DejaVuSans-37" x="386.621094"/>
      </g>
     </g>
    </g>
    <g id="ytick_15">
     <g id="line2d_21">
      <g>
       <use xlink:href="#m1a22c28d40" x="144" y="118.987826" style="stroke: #000000; stroke-width: 0.8"/>
      </g>
     </g>
     <g id="text_22">
      <!-- 5.B.2.3.1 -->
      <g transform="translate(91.976562 122.787045) scale(0.1 -0.1)">
       <use xlink:href="#DejaVuSans-35"/>
       <use xlink:href="#DejaVuSans-2e" x="63.623047"/>
       <use xlink:href="#DejaVuSans-42" x="95.410156"/>
       <use xlink:href="#DejaVuSans-2e" x="164.013672"/>
       <use xlink:href="#DejaVuSans-32" x="195.800781"/>
       <use xlink:href="#DejaVuSans-2e" x="259.423828"/>
       <use xlink:href="#DejaVuSans-33" x="291.210938"/>
       <use xlink:href="#DejaVuSans-2e" x="354.833984"/>
       <use xlink:href="#DejaVuSans-31" x="386.621094"/>
      </g>
     </g>
    </g>
    <g id="ytick_16">
     <g id="line2d_22">
      <g>
       <use xlink:href="#m1a22c28d40" x="144" y="104.607391" style="stroke: #000000; stroke-width: 0.8"/>
      </g>
     </g>
     <g id="text_23">
      <!-- 5.B.2.3.2 -->
      <g transform="translate(91.976562 108.40661) scale(0.1 -0.1)">
       <use xlink:href="#DejaVuSans-35"/>
       <use xlink:href="#DejaVuSans-2e" x="63.623047"/>
       <use xlink:href="#DejaVuSans-42" x="95.410156"/>
       <use xlink:href="#DejaVuSans-2e" x="164.013672"/>
       <use xlink:href="#DejaVuSans-32" x="195.800781"/>
       <use xlink:href="#DejaVuSans-2e" x="259.423828"/>
       <use xlink:href="#DejaVuSans-33" x="291.210938"/>
       <use xlink:href="#DejaVuSans-2e" x="354.833984"/>
       <use xlink:href="#DejaVuSans-32" x="386.621094"/>
      </g>
     </g>
    </g>
    <g id="ytick_17">
     <g id="line2d_23">
      <g>
       <use xlink:href="#m1a22c28d40" x="144" y="90.226957" style="stroke: #000000; stroke-width: 0.8"/>
      </g>
     </g>
     <g id="text_24">
      <!-- 5.B.2.3.3 -->
      <g transform="translate(91.976562 94.026175) scale(0.1 -0.1)">
       <use xlink:href="#DejaVuSans-35"/>
       <use xlink:href="#DejaVuSans-2e" x="63.623047"/>
       <use xlink:href="#DejaVuSans-42" x="95.410156"/>
       <use xlink:href="#DejaVuSans-2e" x="164.013672"/>
       <use xlink:href="#DejaVuSans-32" x="195.800781"/>
       <use xlink:href="#DejaVuSans-2e" x="259.423828"/>
       <use xlink:href="#DejaVuSans-33" x="291.210938"/>
       <use xlink:href="#DejaVuSans-2e" x="354.833984"/>
       <use xlink:href="#DejaVuSans-33" x="386.621094"/>
      </g>
     </g>
    </g>
    <g id="ytick_18">
     <g id="line2d_24">
      <g>
       <use xlink:href="#m1a22c28d40" x="144" y="75.846522" style="stroke: #000000; stroke-width: 0.8"/>
      </g>
     </g>
     <g id="text_25">
      <!-- 5.B.2.3.4 -->
      <g transform="translate(91.976562 79.64574) scale(0.1 -0.1)">
       <use xlink:href="#DejaVuSans-35"/>
       <use xlink:href="#DejaVuSans-2e" x="63.623047"/>
       <use xlink:href="#DejaVuSans-42" x="95.410156"/>
       <use xlink:href="#DejaVuSans-2e" x="164.013672"/>
       <use xlink:href="#DejaVuSans-32" x="195.800781"/>
       <use xlink:href="#DejaVuSans-2e" x="259.423828"/>
       <use xlink:href="#DejaVuSans-33" x="291.210938"/>
       <use xlink:href="#DejaVuSans-2e" x="354.833984"/>
       <use xlink:href="#DejaVuSans-34" x="386.621094"/>
      </g>
     </g>
    </g>
    <g id="ytick_19">
     <g id="line2d_25">
      <g>
       <use xlink:href="#m1a22c28d40" x="144" y="61.466087" style="stroke: #000000; stroke-width: 0.8"/>
      </g>
     </g>
     <g id="text_26">
      <!-- 5.B.2.3.5 -->
      <g transform="translate(91.976562 65.265306) scale(0.1 -0.1)">
       <use xlink:href="#DejaVuSans-35"/>
       <use xlink:href="#DejaVuSans-2e" x="63.623047"/>
       <use xlink:href="#DejaVuSans-42" x="95.410156"/>
       <use xlink:href="#DejaVuSans-2e" x="164.013672"/>
       <use xlink:href="#DejaVuSans-32" x="195.800781"/>
       <use xlink:href="#DejaVuSans-2e" x="259.423828"/>
       <use xlink:href="#DejaVuSans-33" x="291.210938"/>
       <use xlink:href="#DejaVuSans-2e" x="354.833984"/>
       <use xlink:href="#DejaVuSans-35" x="386.621094"/>
      </g>
     </g>
    </g>
   </g>
   <g id="patch_195">
    <path d="M 144 336.42 
L 144 45.36 
" style="fill: none; stroke: #000000; stroke-width: 0.8; stroke-linejoin: miter; stroke-linecap: square"/>
   </g>
   <g id="patch_196">
    <path d="M 1036.8 336.42 
L 1036.8 45.36 
" style="fill: none; stroke: #000000; stroke-width: 0.8; stroke-linejoin: miter; stroke-linecap: square"/>
   </g>
   <g id="patch_197">
    <path d="M 144 336.42 
L 1036.8 336.42 
" style="fill: none; stroke: #000000; stroke-width: 0.8; stroke-linejoin: miter; stroke-linecap: square"/>
   </g>
   <g id="patch_198">
    <path d="M 144 45.36 
L 1036.8 45.36 
" style="fill: none; stroke: #000000; stroke-width: 0.8; stroke-linejoin: miter; stroke-linecap: square"/>
   </g>
   <g id="text_27">
    <!-- 5.B.2 Summary -->
    <g transform="translate(543.932812 39.36) scale(0.12 -0.12)">
     <defs>
      <path id="DejaVuSans-20" transform="scale(0.015625)"/>
      <path id="DejaVuSans-53" d="M 3425 4513 
L 3425 3897 
Q 3066 4069 2747 4153 
Q 2428 4238 2131 4238 
Q 1616 4238 1336 4038 
Q 1056 3838 1056 3469 
Q 1056 3159 1242 3001 
Q 1428 2844 1947 2747 
L 2328 2669 
Q 3034 2534 3370 2195 
Q 3706 1856 3706 1288 
Q 3706 609 3251 259 
Q 2797 -91 1919 -91 
Q 1588 -91 1214 -16 
Q 841 59 441 206 
L 441 856 
Q 825 641 1194 531 
Q 1563 422 1919 422 
Q 2459 422 2753 634 
Q 3047 847 3047 1241 
Q 3047 1584 2836 1778 
Q 2625 1972 2144 2069 
L 1759 2144 
Q 1053 2284 737 2584 
Q 422 2884 422 3419 
Q 422 4038 858 4394 
Q 1294 4750 2059 4750 
Q 2388 4750 2728 4690 
Q 3069 4631 3425 4513 
z
" transform="scale(0.015625)"/>
      <path id="DejaVuSans-6d" d="M 3328 2828 
Q 3544 3216 3844 3400 
Q 4144 3584 4550 3584 
Q 5097 3584 5394 3201 
Q 5691 2819 5691 2113 
L 5691 0 
L 5113 0 
L 5113 2094 
Q 5113 2597 4934 2840 
Q 4756 3084 4391 3084 
Q 3944 3084 3684 2787 
Q 3425 2491 3425 1978 
L 3425 0 
L 2847 0 
L 2847 2094 
Q 2847 2600 2669 2842 
Q 2491 3084 2119 3084 
Q 1678 3084 1418 2786 
Q 1159 2488 1159 1978 
L 1159 0 
L 581 0 
L 581 3500 
L 1159 3500 
L 1159 2956 
Q 1356 3278 1631 3431 
Q 1906 3584 2284 3584 
Q 2666 3584 2933 3390 
Q 3200 3197 3328 2828 
z
" transform="scale(0.015625)"/>
      <path id="DejaVuSans-72" d="M 2631 2963 
Q 2534 3019 2420 3045 
Q 2306 3072 2169 3072 
Q 1681 3072 1420 2755 
Q 1159 2438 1159 1844 
L 1159 0 
L 581 0 
L 581 3500 
L 1159 3500 
L 1159 2956 
Q 1341 3275 1631 3429 
Q 1922 3584 2338 3584 
Q 2397 3584 2469 3576 
Q 2541 3569 2628 3553 
L 2631 2963 
z
" transform="scale(0.015625)"/>
      <path id="DejaVuSans-79" d="M 2059 -325 
Q 1816 -950 1584 -1140 
Q 1353 -1331 966 -1331 
L 506 -1331 
L 506 -850 
L 844 -850 
Q 1081 -850 1212 -737 
Q 1344 -625 1503 -206 
L 1606 56 
L 191 3500 
L 800 3500 
L 1894 763 
L 2988 3500 
L 3597 3500 
L 2059 -325 
z
" transform="scale(0.015625)"/>
     </defs>
     <use xlink:href="#DejaVuSans-35"/>
     <use xlink:href="#DejaVuSans-2e" x="63.623047"/>
     <use xlink:href="#DejaVuSans-42" x="95.410156"/>
     <use xlink:href="#DejaVuSans-2e" x="164.013672"/>
     <use xlink:href="#DejaVuSans-32" x="195.800781"/>
     <use xlink:href="#DejaVuSans-20" x="259.423828"/>
     <use xlink:href="#DejaVuSans-53" x="291.210938"/>
     <use xlink:href="#DejaVuSans-75" x="354.6875"/>
     <use xlink:href="#DejaVuSans-6d" x="418.066406"/>
     <use xlink:href="#DejaVuSans-6d" x="515.478516"/>
     <use xlink:href="#DejaVuSans-61" x="612.890625"/>
     <use xlink:href="#DejaVuSans-72" x="674.169922"/>
     <use xlink:href="#DejaVuSans-79" x="715.283203"/>
    </g>
   </g>
  </g>
 </g>
 <defs>
  <clipPath id="pc2e4970803">
   <rect x="144" y="45.36" width="892.8" height="291.06"/>
  </clipPath>
 </defs>
</svg>
