<?xml version="1.0" encoding="utf-8" standalone="no"?>
<!DOCTYPE svg PUBLIC "-//W3C//DTD SVG 1.1//EN"
  "http://www.w3.org/Graphics/SVG/1.1/DTD/svg11.dtd">
<svg xmlns:xlink="http://www.w3.org/1999/xlink" width="1152pt" height="453.6pt" viewBox="0 0 1152 453.6" xmlns="http://www.w3.org/2000/svg" version="1.1">
 <metadata>
  <rdf:RDF xmlns:dc="http://purl.org/dc/elements/1.1/" xmlns:cc="http://creativecommons.org/ns#" xmlns:rdf="http://www.w3.org/1999/02/22-rdf-syntax-ns#">
   <cc:Work>
    <dc:type rdf:resource="http://purl.org/dc/dcmitype/StillImage"/>
    <dc:date>2024-10-25T07:54:50.744421</dc:date>
    <dc:format>image/svg+xml</dc:format>
    <dc:creator>
     <cc:Agent>
      <dc:title>Matplotlib v3.9.2, https://matplotlib.org/</dc:title>
     </cc:Agent>
    </dc:creator>
   </cc:Work>
  </rdf:RDF>
 </metadata>
 <defs>
  <style type="text/css">*{stroke-linejoin: round; stroke-linecap: butt}</style>
 </defs>
 <g id="figure_1">
  <g id="patch_1">
   <path d="M 0 453.6 
L 1152 453.6 
L 1152 0 
L 0 0 
z
" style="fill: #ffffff"/>
  </g>
  <g id="axes_1">
   <g id="patch_2">
    <path d="M 144 403.704 
L 1036.8 403.704 
L 1036.8 54.432 
L 144 54.432 
z
" style="fill: #ffffff"/>
   </g>
   <g id="patch_3">
    <path d="M 144 384.635543 
L 155.846086 384.635543 
L 155.846086 384.117848 
L 144 384.117848 
z
" clip-path="url(#pd3d6b2b1a1)" style="fill: #0000ff"/>
   </g>
   <g id="patch_4">
    <path d="M 157.162318 387.828 
L 428.306059 387.828 
L 428.306059 380.925391 
L 157.162318 380.925391 
z
" clip-path="url(#pd3d6b2b1a1)" style="fill: #0000ff"/>
   </g>
   <g id="patch_5">
    <path d="M 167.692172 387.828 
L 390.135338 387.828 
L 390.135338 380.925391 
L 167.692172 380.925391 
z
" clip-path="url(#pd3d6b2b1a1)" style="fill: #0000ff"/>
   </g>
   <g id="patch_6">
    <path d="M 171.640867 387.828 
L 440.152145 387.828 
L 440.152145 380.925391 
L 171.640867 380.925391 
z
" clip-path="url(#pd3d6b2b1a1)" style="fill: #0000ff"/>
   </g>
   <g id="patch_7">
    <path d="M 174.27333 387.828 
L 436.20345 387.828 
L 436.20345 380.925391 
L 174.27333 380.925391 
z
" clip-path="url(#pd3d6b2b1a1)" style="fill: #0000ff"/>
   </g>
   <g id="patch_8">
    <path d="M 180.854489 387.828 
L 457.263158 387.828 
L 457.263158 380.925391 
L 180.854489 380.925391 
z
" clip-path="url(#pd3d6b2b1a1)" style="fill: #0000ff"/>
   </g>
   <g id="patch_9">
    <path d="M 184.803184 387.828 
L 380.921716 387.828 
L 380.921716 380.925391 
L 184.803184 380.925391 
z
" clip-path="url(#pd3d6b2b1a1)" style="fill: #0000ff"/>
   </g>
   <g id="patch_10">
    <path d="M 196.64927 387.828 
L 382.237948 387.828 
L 382.237948 380.925391 
L 196.64927 380.925391 
z
" clip-path="url(#pd3d6b2b1a1)" style="fill: #0000ff"/>
   </g>
   <g id="patch_11">
    <path d="M 197.965502 387.828 
L 390.135338 387.828 
L 390.135338 380.925391 
L 197.965502 380.925391 
z
" clip-path="url(#pd3d6b2b1a1)" style="fill: #0000ff"/>
   </g>
   <g id="patch_12">
    <path d="M 201.914197 387.828 
L 388.819107 387.828 
L 388.819107 380.925391 
L 201.914197 380.925391 
z
" clip-path="url(#pd3d6b2b1a1)" style="fill: #0000ff"/>
   </g>
   <g id="patch_13">
    <path d="M 208.495356 387.828 
L 379.605484 387.828 
L 379.605484 380.925391 
L 208.495356 380.925391 
z
" clip-path="url(#pd3d6b2b1a1)" style="fill: #0000ff"/>
   </g>
   <g id="patch_14">
    <path d="M 209.811588 387.828 
L 387.502875 387.828 
L 387.502875 380.925391 
L 209.811588 380.925391 
z
" clip-path="url(#pd3d6b2b1a1)" style="fill: #0000ff"/>
   </g>
   <g id="patch_15">
    <path d="M 212.444051 387.828 
L 379.605484 387.828 
L 379.605484 380.925391 
L 212.444051 380.925391 
z
" clip-path="url(#pd3d6b2b1a1)" style="fill: #0000ff"/>
   </g>
   <g id="patch_16">
    <path d="M 212.444051 387.828 
L 387.502875 387.828 
L 387.502875 380.925391 
L 212.444051 380.925391 
z
" clip-path="url(#pd3d6b2b1a1)" style="fill: #0000ff"/>
   </g>
   <g id="patch_17">
    <path d="M 458.57939 384.635543 
L 474.374171 384.635543 
L 474.374171 384.117848 
L 458.57939 384.117848 
z
" clip-path="url(#pd3d6b2b1a1)" style="fill: #0000ff"/>
   </g>
   <g id="patch_18">
    <path d="M 144 367.379022 
L 174.27333 367.379022 
L 174.27333 366.861326 
L 144 366.861326 
z
" clip-path="url(#pd3d6b2b1a1)" style="fill: #0000ff"/>
   </g>
   <g id="patch_19">
    <path d="M 175.589562 370.571478 
L 412.511278 370.571478 
L 412.511278 363.66887 
L 175.589562 363.66887 
z
" clip-path="url(#pd3d6b2b1a1)" style="fill: #0000ff"/>
   </g>
   <g id="patch_20">
    <path d="M 201.914197 370.571478 
L 362.494471 370.571478 
L 362.494471 363.66887 
L 201.914197 363.66887 
z
" clip-path="url(#pd3d6b2b1a1)" style="fill: #0000ff"/>
   </g>
   <g id="patch_21">
    <path d="M 204.546661 370.571478 
L 362.494471 370.571478 
L 362.494471 363.66887 
L 204.546661 363.66887 
z
" clip-path="url(#pd3d6b2b1a1)" style="fill: #0000ff"/>
   </g>
   <g id="patch_22">
    <path d="M 204.546661 370.571478 
L 384.870411 370.571478 
L 384.870411 363.66887 
L 204.546661 363.66887 
z
" clip-path="url(#pd3d6b2b1a1)" style="fill: #0000ff"/>
   </g>
   <g id="patch_23">
    <path d="M 413.82751 367.379022 
L 434.887218 367.379022 
L 434.887218 366.861326 
L 413.82751 366.861326 
z
" clip-path="url(#pd3d6b2b1a1)" style="fill: #0000ff"/>
   </g>
   <g id="patch_24">
    <path d="M 144 353.314957 
L 425.673596 353.314957 
L 425.673596 346.412348 
L 144 346.412348 
z
" clip-path="url(#pd3d6b2b1a1)" style="fill: #0000ff"/>
   </g>
   <g id="patch_25">
    <path d="M 144 353.314957 
L 440.152145 353.314957 
L 440.152145 346.412348 
L 144 346.412348 
z
" clip-path="url(#pd3d6b2b1a1)" style="fill: #0000ff"/>
   </g>
   <g id="patch_26">
    <path d="M 165.059708 353.314957 
L 390.135338 353.314957 
L 390.135338 346.412348 
L 165.059708 346.412348 
z
" clip-path="url(#pd3d6b2b1a1)" style="fill: #0000ff"/>
   </g>
   <g id="patch_27">
    <path d="M 166.37594 353.314957 
L 434.887218 353.314957 
L 434.887218 346.412348 
L 166.37594 346.412348 
z
" clip-path="url(#pd3d6b2b1a1)" style="fill: #0000ff"/>
   </g>
   <g id="patch_28">
    <path d="M 170.324635 353.314957 
L 430.938523 353.314957 
L 430.938523 346.412348 
L 170.324635 346.412348 
z
" clip-path="url(#pd3d6b2b1a1)" style="fill: #0000ff"/>
   </g>
   <g id="patch_29">
    <path d="M 174.27333 353.314957 
L 454.630694 353.314957 
L 454.630694 346.412348 
L 174.27333 346.412348 
z
" clip-path="url(#pd3d6b2b1a1)" style="fill: #0000ff"/>
   </g>
   <g id="patch_30">
    <path d="M 186.119416 353.314957 
L 378.289253 353.314957 
L 378.289253 346.412348 
L 186.119416 346.412348 
z
" clip-path="url(#pd3d6b2b1a1)" style="fill: #0000ff"/>
   </g>
   <g id="patch_31">
    <path d="M 190.068111 353.314957 
L 390.135338 353.314957 
L 390.135338 346.412348 
L 190.068111 346.412348 
z
" clip-path="url(#pd3d6b2b1a1)" style="fill: #0000ff"/>
   </g>
   <g id="patch_32">
    <path d="M 195.333038 353.314957 
L 384.870411 353.314957 
L 384.870411 346.412348 
L 195.333038 346.412348 
z
" clip-path="url(#pd3d6b2b1a1)" style="fill: #0000ff"/>
   </g>
   <g id="patch_33">
    <path d="M 201.914197 353.314957 
L 384.870411 353.314957 
L 384.870411 346.412348 
L 201.914197 346.412348 
z
" clip-path="url(#pd3d6b2b1a1)" style="fill: #0000ff"/>
   </g>
   <g id="patch_34">
    <path d="M 203.230429 353.314957 
L 376.973021 353.314957 
L 376.973021 346.412348 
L 203.230429 346.412348 
z
" clip-path="url(#pd3d6b2b1a1)" style="fill: #0000ff"/>
   </g>
   <g id="patch_35">
    <path d="M 207.179124 353.314957 
L 376.973021 353.314957 
L 376.973021 346.412348 
L 207.179124 346.412348 
z
" clip-path="url(#pd3d6b2b1a1)" style="fill: #0000ff"/>
   </g>
   <g id="patch_36">
    <path d="M 207.179124 353.314957 
L 386.186643 353.314957 
L 386.186643 346.412348 
L 207.179124 346.412348 
z
" clip-path="url(#pd3d6b2b1a1)" style="fill: #0000ff"/>
   </g>
   <g id="patch_37">
    <path d="M 455.946926 350.1225 
L 519.12605 350.1225 
L 519.12605 349.604804 
L 455.946926 349.604804 
z
" clip-path="url(#pd3d6b2b1a1)" style="fill: #0000ff"/>
   </g>
   <g id="patch_38">
    <path d="M 144 332.865978 
L 163.743476 332.865978 
L 163.743476 332.348283 
L 144 332.348283 
z
" clip-path="url(#pd3d6b2b1a1)" style="fill: #0000ff"/>
   </g>
   <g id="patch_39">
    <path d="M 165.059708 336.058435 
L 426.989828 336.058435 
L 426.989828 329.155826 
L 165.059708 329.155826 
z
" clip-path="url(#pd3d6b2b1a1)" style="fill: #0000ff"/>
   </g>
   <g id="patch_40">
    <path d="M 166.37594 336.058435 
L 388.819107 336.058435 
L 388.819107 329.155826 
L 166.37594 329.155826 
z
" clip-path="url(#pd3d6b2b1a1)" style="fill: #0000ff"/>
   </g>
   <g id="patch_41">
    <path d="M 170.324635 336.058435 
L 426.989828 336.058435 
L 426.989828 329.155826 
L 170.324635 329.155826 
z
" clip-path="url(#pd3d6b2b1a1)" style="fill: #0000ff"/>
   </g>
   <g id="patch_42">
    <path d="M 172.957099 336.058435 
L 426.989828 336.058435 
L 426.989828 329.155826 
L 172.957099 329.155826 
z
" clip-path="url(#pd3d6b2b1a1)" style="fill: #0000ff"/>
   </g>
   <g id="patch_43">
    <path d="M 179.538257 336.058435 
L 451.998231 336.058435 
L 451.998231 329.155826 
L 179.538257 329.155826 
z
" clip-path="url(#pd3d6b2b1a1)" style="fill: #0000ff"/>
   </g>
   <g id="patch_44">
    <path d="M 183.486953 336.058435 
L 379.605484 336.058435 
L 379.605484 329.155826 
L 183.486953 329.155826 
z
" clip-path="url(#pd3d6b2b1a1)" style="fill: #0000ff"/>
   </g>
   <g id="patch_45">
    <path d="M 195.333038 336.058435 
L 380.921716 336.058435 
L 380.921716 329.155826 
L 195.333038 329.155826 
z
" clip-path="url(#pd3d6b2b1a1)" style="fill: #0000ff"/>
   </g>
   <g id="patch_46">
    <path d="M 196.64927 336.058435 
L 388.819107 336.058435 
L 388.819107 329.155826 
L 196.64927 329.155826 
z
" clip-path="url(#pd3d6b2b1a1)" style="fill: #0000ff"/>
   </g>
   <g id="patch_47">
    <path d="M 200.597966 336.058435 
L 387.502875 336.058435 
L 387.502875 329.155826 
L 200.597966 329.155826 
z
" clip-path="url(#pd3d6b2b1a1)" style="fill: #0000ff"/>
   </g>
   <g id="patch_48">
    <path d="M 207.179124 336.058435 
L 378.289253 336.058435 
L 378.289253 329.155826 
L 207.179124 329.155826 
z
" clip-path="url(#pd3d6b2b1a1)" style="fill: #0000ff"/>
   </g>
   <g id="patch_49">
    <path d="M 208.495356 336.058435 
L 386.186643 336.058435 
L 386.186643 329.155826 
L 208.495356 329.155826 
z
" clip-path="url(#pd3d6b2b1a1)" style="fill: #0000ff"/>
   </g>
   <g id="patch_50">
    <path d="M 212.444051 336.058435 
L 378.289253 336.058435 
L 378.289253 329.155826 
L 212.444051 329.155826 
z
" clip-path="url(#pd3d6b2b1a1)" style="fill: #0000ff"/>
   </g>
   <g id="patch_51">
    <path d="M 212.444051 336.058435 
L 386.186643 336.058435 
L 386.186643 329.155826 
L 212.444051 329.155826 
z
" clip-path="url(#pd3d6b2b1a1)" style="fill: #0000ff"/>
   </g>
   <g id="patch_52">
    <path d="M 453.314463 332.865978 
L 473.057939 332.865978 
L 473.057939 332.348283 
L 453.314463 332.348283 
z
" clip-path="url(#pd3d6b2b1a1)" style="fill: #0000ff"/>
   </g>
   <g id="patch_53">
    <path d="M 144 315.609457 
L 154.529854 315.609457 
L 154.529854 315.091761 
L 144 315.091761 
z
" clip-path="url(#pd3d6b2b1a1)" style="fill: #0000ff"/>
   </g>
   <g id="patch_54">
    <path d="M 155.846086 318.801913 
L 390.135338 318.801913 
L 390.135338 311.899304 
L 155.846086 311.899304 
z
" clip-path="url(#pd3d6b2b1a1)" style="fill: #0000ff"/>
   </g>
   <g id="patch_55">
    <path d="M 157.162318 318.801913 
L 425.673596 318.801913 
L 425.673596 311.899304 
L 157.162318 311.899304 
z
" clip-path="url(#pd3d6b2b1a1)" style="fill: #0000ff"/>
   </g>
   <g id="patch_56">
    <path d="M 170.324635 318.801913 
L 445.417072 318.801913 
L 445.417072 311.899304 
L 170.324635 311.899304 
z
" clip-path="url(#pd3d6b2b1a1)" style="fill: #0000ff"/>
   </g>
   <g id="patch_57">
    <path d="M 178.222026 318.801913 
L 434.887218 318.801913 
L 434.887218 311.899304 
L 178.222026 311.899304 
z
" clip-path="url(#pd3d6b2b1a1)" style="fill: #0000ff"/>
   </g>
   <g id="patch_58">
    <path d="M 187.435648 318.801913 
L 386.186643 318.801913 
L 386.186643 311.899304 
L 187.435648 311.899304 
z
" clip-path="url(#pd3d6b2b1a1)" style="fill: #0000ff"/>
   </g>
   <g id="patch_59">
    <path d="M 191.384343 318.801913 
L 380.921716 318.801913 
L 380.921716 311.899304 
L 191.384343 311.899304 
z
" clip-path="url(#pd3d6b2b1a1)" style="fill: #0000ff"/>
   </g>
   <g id="patch_60">
    <path d="M 197.965502 318.801913 
L 373.024326 318.801913 
L 373.024326 311.899304 
L 197.965502 311.899304 
z
" clip-path="url(#pd3d6b2b1a1)" style="fill: #0000ff"/>
   </g>
   <g id="patch_61">
    <path d="M 197.965502 318.801913 
L 380.921716 318.801913 
L 380.921716 311.899304 
L 197.965502 311.899304 
z
" clip-path="url(#pd3d6b2b1a1)" style="fill: #0000ff"/>
   </g>
   <g id="patch_62">
    <path d="M 199.281734 318.801913 
L 373.024326 318.801913 
L 373.024326 311.899304 
L 199.281734 311.899304 
z
" clip-path="url(#pd3d6b2b1a1)" style="fill: #0000ff"/>
   </g>
   <g id="patch_63">
    <path d="M 200.597966 318.801913 
L 379.605484 318.801913 
L 379.605484 311.899304 
L 200.597966 311.899304 
z
" clip-path="url(#pd3d6b2b1a1)" style="fill: #0000ff"/>
   </g>
   <g id="patch_64">
    <path d="M 203.230429 318.801913 
L 373.024326 318.801913 
L 373.024326 311.899304 
L 203.230429 311.899304 
z
" clip-path="url(#pd3d6b2b1a1)" style="fill: #0000ff"/>
   </g>
   <g id="patch_65">
    <path d="M 203.230429 318.801913 
L 380.921716 318.801913 
L 380.921716 311.899304 
L 203.230429 311.899304 
z
" clip-path="url(#pd3d6b2b1a1)" style="fill: #0000ff"/>
   </g>
   <g id="patch_66">
    <path d="M 204.546661 318.801913 
L 425.673596 318.801913 
L 425.673596 311.899304 
L 204.546661 311.899304 
z
" clip-path="url(#pd3d6b2b1a1)" style="fill: #0000ff"/>
   </g>
   <g id="patch_67">
    <path d="M 446.733304 315.609457 
L 461.211853 315.609457 
L 461.211853 315.091761 
L 446.733304 315.091761 
z
" clip-path="url(#pd3d6b2b1a1)" style="fill: #0000ff"/>
   </g>
   <g id="patch_68">
    <path d="M 144 298.352935 
L 145.316232 298.352935 
L 145.316232 297.835239 
L 144 297.835239 
z
" clip-path="url(#pd3d6b2b1a1)" style="fill: #0000ff"/>
   </g>
   <g id="patch_69">
    <path d="M 146.632464 301.545391 
L 432.254755 301.545391 
L 432.254755 294.642783 
L 146.632464 294.642783 
z
" clip-path="url(#pd3d6b2b1a1)" style="fill: #0000ff"/>
   </g>
   <g id="patch_70">
    <path d="M 182.170721 301.545391 
L 384.870411 301.545391 
L 384.870411 294.642783 
L 182.170721 294.642783 
z
" clip-path="url(#pd3d6b2b1a1)" style="fill: #0000ff"/>
   </g>
   <g id="patch_71">
    <path d="M 182.170721 301.545391 
L 446.733304 301.545391 
L 446.733304 294.642783 
L 182.170721 294.642783 
z
" clip-path="url(#pd3d6b2b1a1)" style="fill: #0000ff"/>
   </g>
   <g id="patch_72">
    <path d="M 182.170721 301.545391 
L 433.570986 301.545391 
L 433.570986 294.642783 
L 182.170721 294.642783 
z
" clip-path="url(#pd3d6b2b1a1)" style="fill: #0000ff"/>
   </g>
   <g id="patch_73">
    <path d="M 182.170721 301.545391 
L 434.887218 301.545391 
L 434.887218 294.642783 
L 182.170721 294.642783 
z
" clip-path="url(#pd3d6b2b1a1)" style="fill: #0000ff"/>
   </g>
   <g id="patch_74">
    <path d="M 183.486953 301.545391 
L 416.459973 301.545391 
L 416.459973 294.642783 
L 183.486953 294.642783 
z
" clip-path="url(#pd3d6b2b1a1)" style="fill: #0000ff"/>
   </g>
   <g id="patch_75">
    <path d="M 197.965502 301.545391 
L 387.502875 301.545391 
L 387.502875 294.642783 
L 197.965502 294.642783 
z
" clip-path="url(#pd3d6b2b1a1)" style="fill: #0000ff"/>
   </g>
   <g id="patch_76">
    <path d="M 204.546661 301.545391 
L 384.870411 301.545391 
L 384.870411 294.642783 
L 204.546661 294.642783 
z
" clip-path="url(#pd3d6b2b1a1)" style="fill: #0000ff"/>
   </g>
   <g id="patch_77">
    <path d="M 205.862893 301.545391 
L 376.973021 301.545391 
L 376.973021 294.642783 
L 205.862893 294.642783 
z
" clip-path="url(#pd3d6b2b1a1)" style="fill: #0000ff"/>
   </g>
   <g id="patch_78">
    <path d="M 207.179124 301.545391 
L 384.870411 301.545391 
L 384.870411 294.642783 
L 207.179124 294.642783 
z
" clip-path="url(#pd3d6b2b1a1)" style="fill: #0000ff"/>
   </g>
   <g id="patch_79">
    <path d="M 209.811588 301.545391 
L 376.973021 301.545391 
L 376.973021 294.642783 
L 209.811588 294.642783 
z
" clip-path="url(#pd3d6b2b1a1)" style="fill: #0000ff"/>
   </g>
   <g id="patch_80">
    <path d="M 209.811588 301.545391 
L 386.186643 301.545391 
L 386.186643 294.642783 
L 209.811588 294.642783 
z
" clip-path="url(#pd3d6b2b1a1)" style="fill: #0000ff"/>
   </g>
   <g id="patch_81">
    <path d="M 211.12782 301.545391 
L 379.605484 301.545391 
L 379.605484 294.642783 
L 211.12782 294.642783 
z
" clip-path="url(#pd3d6b2b1a1)" style="fill: #0000ff"/>
   </g>
   <g id="patch_82">
    <path d="M 448.049536 298.352935 
L 453.314463 298.352935 
L 453.314463 297.835239 
L 448.049536 297.835239 
z
" clip-path="url(#pd3d6b2b1a1)" style="fill: #0000ff"/>
   </g>
   <g id="patch_83">
    <path d="M 144 281.096413 
L 155.846086 281.096413 
L 155.846086 280.578717 
L 144 280.578717 
z
" clip-path="url(#pd3d6b2b1a1)" style="fill: #0000ff"/>
   </g>
   <g id="patch_84">
    <path d="M 157.162318 284.28887 
L 444.10084 284.28887 
L 444.10084 277.386261 
L 157.162318 277.386261 
z
" clip-path="url(#pd3d6b2b1a1)" style="fill: #0000ff"/>
   </g>
   <g id="patch_85">
    <path d="M 175.589562 284.28887 
L 429.622291 284.28887 
L 429.622291 277.386261 
L 175.589562 277.386261 
z
" clip-path="url(#pd3d6b2b1a1)" style="fill: #0000ff"/>
   </g>
   <g id="patch_86">
    <path d="M 176.905794 284.28887 
L 394.084034 284.28887 
L 394.084034 277.386261 
L 176.905794 277.386261 
z
" clip-path="url(#pd3d6b2b1a1)" style="fill: #0000ff"/>
   </g>
   <g id="patch_87">
    <path d="M 179.538257 284.28887 
L 429.622291 284.28887 
L 429.622291 277.386261 
L 179.538257 277.386261 
z
" clip-path="url(#pd3d6b2b1a1)" style="fill: #0000ff"/>
   </g>
   <g id="patch_88">
    <path d="M 180.854489 284.28887 
L 396.716497 284.28887 
L 396.716497 277.386261 
L 180.854489 277.386261 
z
" clip-path="url(#pd3d6b2b1a1)" style="fill: #0000ff"/>
   </g>
   <g id="patch_89">
    <path d="M 184.803184 284.28887 
L 461.211853 284.28887 
L 461.211853 277.386261 
L 184.803184 277.386261 
z
" clip-path="url(#pd3d6b2b1a1)" style="fill: #0000ff"/>
   </g>
   <g id="patch_90">
    <path d="M 201.914197 284.28887 
L 386.186643 284.28887 
L 386.186643 277.386261 
L 201.914197 277.386261 
z
" clip-path="url(#pd3d6b2b1a1)" style="fill: #0000ff"/>
   </g>
   <g id="patch_91">
    <path d="M 201.914197 284.28887 
L 394.084034 284.28887 
L 394.084034 277.386261 
L 201.914197 277.386261 
z
" clip-path="url(#pd3d6b2b1a1)" style="fill: #0000ff"/>
   </g>
   <g id="patch_92">
    <path d="M 207.179124 284.28887 
L 392.767802 284.28887 
L 392.767802 277.386261 
L 207.179124 277.386261 
z
" clip-path="url(#pd3d6b2b1a1)" style="fill: #0000ff"/>
   </g>
   <g id="patch_93">
    <path d="M 215.076515 284.28887 
L 384.870411 284.28887 
L 384.870411 277.386261 
L 215.076515 277.386261 
z
" clip-path="url(#pd3d6b2b1a1)" style="fill: #0000ff"/>
   </g>
   <g id="patch_94">
    <path d="M 215.076515 284.28887 
L 392.767802 284.28887 
L 392.767802 277.386261 
L 215.076515 277.386261 
z
" clip-path="url(#pd3d6b2b1a1)" style="fill: #0000ff"/>
   </g>
   <g id="patch_95">
    <path d="M 217.708978 284.28887 
L 384.870411 284.28887 
L 384.870411 277.386261 
L 217.708978 277.386261 
z
" clip-path="url(#pd3d6b2b1a1)" style="fill: #0000ff"/>
   </g>
   <g id="patch_96">
    <path d="M 217.708978 284.28887 
L 394.084034 284.28887 
L 394.084034 277.386261 
L 217.708978 277.386261 
z
" clip-path="url(#pd3d6b2b1a1)" style="fill: #0000ff"/>
   </g>
   <g id="patch_97">
    <path d="M 144 267.032348 
L 313.793897 267.032348 
L 313.793897 260.129739 
L 144 260.129739 
z
" clip-path="url(#pd3d6b2b1a1)" style="fill: #0000ff"/>
   </g>
   <g id="patch_98">
    <path d="M 146.632464 267.032348 
L 290.101725 267.032348 
L 290.101725 260.129739 
L 146.632464 260.129739 
z
" clip-path="url(#pd3d6b2b1a1)" style="fill: #0000ff"/>
   </g>
   <g id="patch_99">
    <path d="M 158.478549 267.032348 
L 225.606369 267.032348 
L 225.606369 260.129739 
L 158.478549 260.129739 
z
" clip-path="url(#pd3d6b2b1a1)" style="fill: #0000ff"/>
   </g>
   <g id="patch_100">
    <path d="M 313.793897 267.032348 
L 540.185759 267.032348 
L 540.185759 260.129739 
L 313.793897 260.129739 
z
" clip-path="url(#pd3d6b2b1a1)" style="fill: #0000ff"/>
   </g>
   <g id="patch_101">
    <path d="M 342.750995 267.032348 
L 502.015038 267.032348 
L 502.015038 260.129739 
L 342.750995 260.129739 
z
" clip-path="url(#pd3d6b2b1a1)" style="fill: #0000ff"/>
   </g>
   <g id="patch_102">
    <path d="M 344.067227 267.032348 
L 502.015038 267.032348 
L 502.015038 260.129739 
L 344.067227 260.129739 
z
" clip-path="url(#pd3d6b2b1a1)" style="fill: #0000ff"/>
   </g>
   <g id="patch_103">
    <path d="M 344.067227 267.032348 
L 502.015038 267.032348 
L 502.015038 260.129739 
L 344.067227 260.129739 
z
" clip-path="url(#pd3d6b2b1a1)" style="fill: #0000ff"/>
   </g>
   <g id="patch_104">
    <path d="M 541.50199 263.839891 
L 548.083149 263.839891 
L 548.083149 263.322196 
L 541.50199 263.322196 
z
" clip-path="url(#pd3d6b2b1a1)" style="fill: #0000ff"/>
   </g>
   <g id="patch_105">
    <path d="M 144 246.58337 
L 212.444051 246.58337 
L 212.444051 246.065674 
L 144 246.065674 
z
" clip-path="url(#pd3d6b2b1a1)" style="fill: #0000ff"/>
   </g>
   <g id="patch_106">
    <path d="M 213.760283 249.775826 
L 403.297656 249.775826 
L 403.297656 242.873217 
L 213.760283 242.873217 
z
" clip-path="url(#pd3d6b2b1a1)" style="fill: #0000ff"/>
   </g>
   <g id="patch_107">
    <path d="M 215.076515 249.775826 
L 390.135338 249.775826 
L 390.135338 242.873217 
L 215.076515 242.873217 
z
" clip-path="url(#pd3d6b2b1a1)" style="fill: #0000ff"/>
   </g>
   <g id="patch_108">
    <path d="M 228.238832 249.775826 
L 342.750995 249.775826 
L 342.750995 242.873217 
L 228.238832 242.873217 
z
" clip-path="url(#pd3d6b2b1a1)" style="fill: #0000ff"/>
   </g>
   <g id="patch_109">
    <path d="M 388.819107 249.775826 
L 620.475896 249.775826 
L 620.475896 242.873217 
L 388.819107 242.873217 
z
" clip-path="url(#pd3d6b2b1a1)" style="fill: #0000ff"/>
   </g>
   <g id="patch_110">
    <path d="M 421.7249 249.775826 
L 582.305175 249.775826 
L 582.305175 242.873217 
L 421.7249 242.873217 
z
" clip-path="url(#pd3d6b2b1a1)" style="fill: #0000ff"/>
   </g>
   <g id="patch_111">
    <path d="M 423.041132 249.775826 
L 582.305175 249.775826 
L 582.305175 242.873217 
L 423.041132 242.873217 
z
" clip-path="url(#pd3d6b2b1a1)" style="fill: #0000ff"/>
   </g>
   <g id="patch_112">
    <path d="M 621.792127 246.58337 
L 628.373286 246.58337 
L 628.373286 246.065674 
L 621.792127 246.065674 
z
" clip-path="url(#pd3d6b2b1a1)" style="fill: #0000ff"/>
   </g>
   <g id="patch_113">
    <path d="M 144 229.326848 
L 192.700575 229.326848 
L 192.700575 228.809152 
L 144 228.809152 
z
" clip-path="url(#pd3d6b2b1a1)" style="fill: #0000ff"/>
   </g>
   <g id="patch_114">
    <path d="M 194.016807 232.519304 
L 375.656789 232.519304 
L 375.656789 225.616696 
L 194.016807 225.616696 
z
" clip-path="url(#pd3d6b2b1a1)" style="fill: #0000ff"/>
   </g>
   <g id="patch_115">
    <path d="M 195.333038 232.519304 
L 366.443167 232.519304 
L 366.443167 225.616696 
L 195.333038 225.616696 
z
" clip-path="url(#pd3d6b2b1a1)" style="fill: #0000ff"/>
   </g>
   <g id="patch_116">
    <path d="M 376.973021 229.326848 
L 434.887218 229.326848 
L 434.887218 228.809152 
L 376.973021 228.809152 
z
" clip-path="url(#pd3d6b2b1a1)" style="fill: #0000ff"/>
   </g>
   <g id="patch_117">
    <path d="M 436.20345 232.519304 
L 658.646617 232.519304 
L 658.646617 225.616696 
L 436.20345 225.616696 
z
" clip-path="url(#pd3d6b2b1a1)" style="fill: #0000ff"/>
   </g>
   <g id="patch_118">
    <path d="M 467.793012 232.519304 
L 665.227775 232.519304 
L 665.227775 225.616696 
L 467.793012 225.616696 
z
" clip-path="url(#pd3d6b2b1a1)" style="fill: #0000ff"/>
   </g>
   <g id="patch_119">
    <path d="M 477.006634 232.519304 
L 625.740823 232.519304 
L 625.740823 225.616696 
L 477.006634 225.616696 
z
" clip-path="url(#pd3d6b2b1a1)" style="fill: #0000ff"/>
   </g>
   <g id="patch_120">
    <path d="M 613.894737 232.519304 
L 870.559929 232.519304 
L 870.559929 225.616696 
L 613.894737 225.616696 
z
" clip-path="url(#pd3d6b2b1a1)" style="fill: #0000ff"/>
   </g>
   <g id="patch_121">
    <path d="M 678.390093 232.519304 
L 845.551526 232.519304 
L 845.551526 225.616696 
L 678.390093 225.616696 
z
" clip-path="url(#pd3d6b2b1a1)" style="fill: #0000ff"/>
   </g>
   <g id="patch_122">
    <path d="M 679.706325 232.519304 
L 844.235294 232.519304 
L 844.235294 225.616696 
L 679.706325 225.616696 
z
" clip-path="url(#pd3d6b2b1a1)" style="fill: #0000ff"/>
   </g>
   <g id="patch_123">
    <path d="M 871.876161 229.326848 
L 994.285714 229.326848 
L 994.285714 228.809152 
L 871.876161 228.809152 
z
" clip-path="url(#pd3d6b2b1a1)" style="fill: #0000ff"/>
   </g>
   <g id="patch_124">
    <path d="M 144 212.070326 
L 161.111013 212.070326 
L 161.111013 211.55263 
L 144 211.55263 
z
" clip-path="url(#pd3d6b2b1a1)" style="fill: #0000ff"/>
   </g>
   <g id="patch_125">
    <path d="M 162.427245 215.262783 
L 365.126935 215.262783 
L 365.126935 208.360174 
L 162.427245 208.360174 
z
" clip-path="url(#pd3d6b2b1a1)" style="fill: #0000ff"/>
   </g>
   <g id="patch_126">
    <path d="M 176.905794 215.262783 
L 320.375055 215.262783 
L 320.375055 208.360174 
L 176.905794 208.360174 
z
" clip-path="url(#pd3d6b2b1a1)" style="fill: #0000ff"/>
   </g>
   <g id="patch_127">
    <path d="M 366.443167 212.070326 
L 536.237063 212.070326 
L 536.237063 211.55263 
L 366.443167 211.55263 
z
" clip-path="url(#pd3d6b2b1a1)" style="fill: #0000ff"/>
   </g>
   <g id="patch_128">
    <path d="M 537.553295 215.262783 
L 598.099956 215.262783 
L 598.099956 208.360174 
L 537.553295 208.360174 
z
" clip-path="url(#pd3d6b2b1a1)" style="fill: #0000ff"/>
   </g>
   <g id="patch_129">
    <path d="M 599.416188 212.070326 
L 688.919947 212.070326 
L 688.919947 211.55263 
L 599.416188 211.55263 
z
" clip-path="url(#pd3d6b2b1a1)" style="fill: #0000ff"/>
   </g>
   <g id="patch_130">
    <path d="M 144 194.813804 
L 240.084918 194.813804 
L 240.084918 194.296109 
L 144 194.296109 
z
" clip-path="url(#pd3d6b2b1a1)" style="fill: #0000ff"/>
   </g>
   <g id="patch_131">
    <path d="M 241.40115 198.006261 
L 375.656789 198.006261 
L 375.656789 191.103652 
L 241.40115 191.103652 
z
" clip-path="url(#pd3d6b2b1a1)" style="fill: #0000ff"/>
   </g>
   <g id="patch_132">
    <path d="M 376.973021 194.813804 
L 466.47678 194.813804 
L 466.47678 194.296109 
L 376.973021 194.296109 
z
" clip-path="url(#pd3d6b2b1a1)" style="fill: #0000ff"/>
   </g>
   <g id="patch_133">
    <path d="M 467.793012 198.006261 
L 719.193277 198.006261 
L 719.193277 191.103652 
L 467.793012 191.103652 
z
" clip-path="url(#pd3d6b2b1a1)" style="fill: #0000ff"/>
   </g>
   <g id="patch_134">
    <path d="M 471.741707 198.006261 
L 623.108359 198.006261 
L 623.108359 191.103652 
L 471.741707 191.103652 
z
" clip-path="url(#pd3d6b2b1a1)" style="fill: #0000ff"/>
   </g>
   <g id="patch_135">
    <path d="M 480.95533 198.006261 
L 673.125166 198.006261 
L 673.125166 191.103652 
L 480.95533 191.103652 
z
" clip-path="url(#pd3d6b2b1a1)" style="fill: #0000ff"/>
   </g>
   <g id="patch_136">
    <path d="M 720.509509 194.813804 
L 846.867758 194.813804 
L 846.867758 194.296109 
L 720.509509 194.296109 
z
" clip-path="url(#pd3d6b2b1a1)" style="fill: #0000ff"/>
   </g>
   <g id="patch_137">
    <path d="M 144 177.557283 
L 265.093322 177.557283 
L 265.093322 177.039587 
L 144 177.039587 
z
" clip-path="url(#pd3d6b2b1a1)" style="fill: #0000ff"/>
   </g>
   <g id="patch_138">
    <path d="M 266.409553 180.749739 
L 475.690402 180.749739 
L 475.690402 173.84713 
L 266.409553 173.84713 
z
" clip-path="url(#pd3d6b2b1a1)" style="fill: #0000ff"/>
   </g>
   <g id="patch_139">
    <path d="M 297.999115 180.749739 
L 486.220257 180.749739 
L 486.220257 173.84713 
L 297.999115 173.84713 
z
" clip-path="url(#pd3d6b2b1a1)" style="fill: #0000ff"/>
   </g>
   <g id="patch_140">
    <path d="M 299.315347 180.749739 
L 463.844317 180.749739 
L 463.844317 173.84713 
L 299.315347 173.84713 
z
" clip-path="url(#pd3d6b2b1a1)" style="fill: #0000ff"/>
   </g>
   <g id="patch_141">
    <path d="M 299.315347 180.749739 
L 446.733304 180.749739 
L 446.733304 173.84713 
L 299.315347 173.84713 
z
" clip-path="url(#pd3d6b2b1a1)" style="fill: #0000ff"/>
   </g>
   <g id="patch_142">
    <path d="M 487.536488 177.557283 
L 528.339673 177.557283 
L 528.339673 177.039587 
L 487.536488 177.039587 
z
" clip-path="url(#pd3d6b2b1a1)" style="fill: #0000ff"/>
   </g>
   <g id="patch_143">
    <path d="M 144 160.300761 
L 194.016807 160.300761 
L 194.016807 159.783065 
L 144 159.783065 
z
" clip-path="url(#pd3d6b2b1a1)" style="fill: #0000ff"/>
   </g>
   <g id="patch_144">
    <path d="M 195.333038 163.493217 
L 401.981424 163.493217 
L 401.981424 156.590609 
L 195.333038 156.590609 
z
" clip-path="url(#pd3d6b2b1a1)" style="fill: #0000ff"/>
   </g>
   <g id="patch_145">
    <path d="M 205.862893 163.493217 
L 404.613888 163.493217 
L 404.613888 156.590609 
L 205.862893 156.590609 
z
" clip-path="url(#pd3d6b2b1a1)" style="fill: #0000ff"/>
   </g>
   <g id="patch_146">
    <path d="M 261.144626 163.493217 
L 399.348961 163.493217 
L 399.348961 156.590609 
L 261.144626 156.590609 
z
" clip-path="url(#pd3d6b2b1a1)" style="fill: #0000ff"/>
   </g>
   <g id="patch_147">
    <path d="M 388.819107 163.493217 
L 634.954445 163.493217 
L 634.954445 156.590609 
L 388.819107 156.590609 
z
" clip-path="url(#pd3d6b2b1a1)" style="fill: #0000ff"/>
   </g>
   <g id="patch_148">
    <path d="M 432.254755 163.493217 
L 596.783724 163.493217 
L 596.783724 156.590609 
L 432.254755 156.590609 
z
" clip-path="url(#pd3d6b2b1a1)" style="fill: #0000ff"/>
   </g>
   <g id="patch_149">
    <path d="M 636.270677 160.300761 
L 661.27908 160.300761 
L 661.27908 159.783065 
L 636.270677 159.783065 
z
" clip-path="url(#pd3d6b2b1a1)" style="fill: #0000ff"/>
   </g>
   <g id="patch_150">
    <path d="M 144 143.044239 
L 174.27333 143.044239 
L 174.27333 142.526543 
L 144 142.526543 
z
" clip-path="url(#pd3d6b2b1a1)" style="fill: #0000ff"/>
   </g>
   <g id="patch_151">
    <path d="M 175.589562 146.236696 
L 390.135338 146.236696 
L 390.135338 139.334087 
L 175.589562 139.334087 
z
" clip-path="url(#pd3d6b2b1a1)" style="fill: #0000ff"/>
   </g>
   <g id="patch_152">
    <path d="M 175.589562 146.236696 
L 399.348961 146.236696 
L 399.348961 139.334087 
L 175.589562 139.334087 
z
" clip-path="url(#pd3d6b2b1a1)" style="fill: #0000ff"/>
   </g>
   <g id="patch_153">
    <path d="M 379.605484 146.236696 
L 646.800531 146.236696 
L 646.800531 139.334087 
L 379.605484 139.334087 
z
" clip-path="url(#pd3d6b2b1a1)" style="fill: #0000ff"/>
   </g>
   <g id="patch_154">
    <path d="M 448.049536 146.236696 
L 609.946042 146.236696 
L 609.946042 139.334087 
L 448.049536 139.334087 
z
" clip-path="url(#pd3d6b2b1a1)" style="fill: #0000ff"/>
   </g>
   <g id="patch_155">
    <path d="M 449.365767 146.236696 
L 609.946042 146.236696 
L 609.946042 139.334087 
L 449.365767 139.334087 
z
" clip-path="url(#pd3d6b2b1a1)" style="fill: #0000ff"/>
   </g>
   <g id="patch_156">
    <path d="M 449.365767 146.236696 
L 561.245467 146.236696 
L 561.245467 139.334087 
L 449.365767 139.334087 
z
" clip-path="url(#pd3d6b2b1a1)" style="fill: #0000ff"/>
   </g>
   <g id="patch_157">
    <path d="M 450.681999 146.236696 
L 646.800531 146.236696 
L 646.800531 139.334087 
L 450.681999 139.334087 
z
" clip-path="url(#pd3d6b2b1a1)" style="fill: #0000ff"/>
   </g>
   <g id="patch_158">
    <path d="M 450.681999 146.236696 
L 609.946042 146.236696 
L 609.946042 139.334087 
L 450.681999 139.334087 
z
" clip-path="url(#pd3d6b2b1a1)" style="fill: #0000ff"/>
   </g>
   <g id="patch_159">
    <path d="M 648.116762 143.044239 
L 673.125166 143.044239 
L 673.125166 142.526543 
L 648.116762 142.526543 
z
" clip-path="url(#pd3d6b2b1a1)" style="fill: #0000ff"/>
   </g>
   <g id="patch_160">
    <path d="M 144 125.787717 
L 166.37594 125.787717 
L 166.37594 125.270022 
L 144 125.270022 
z
" clip-path="url(#pd3d6b2b1a1)" style="fill: #0000ff"/>
   </g>
   <g id="patch_161">
    <path d="M 167.692172 128.980174 
L 415.143742 128.980174 
L 415.143742 122.077565 
L 167.692172 122.077565 
z
" clip-path="url(#pd3d6b2b1a1)" style="fill: #0000ff"/>
   </g>
   <g id="patch_162">
    <path d="M 233.503759 128.980174 
L 421.7249 128.980174 
L 421.7249 122.077565 
L 233.503759 122.077565 
z
" clip-path="url(#pd3d6b2b1a1)" style="fill: #0000ff"/>
   </g>
   <g id="patch_163">
    <path d="M 423.041132 125.787717 
L 470.425475 125.787717 
L 470.425475 125.270022 
L 423.041132 125.270022 
z
" clip-path="url(#pd3d6b2b1a1)" style="fill: #0000ff"/>
   </g>
   <g id="patch_164">
    <path d="M 471.741707 128.980174 
L 674.441398 128.980174 
L 674.441398 122.077565 
L 471.741707 122.077565 
z
" clip-path="url(#pd3d6b2b1a1)" style="fill: #0000ff"/>
   </g>
   <g id="patch_165">
    <path d="M 479.639098 128.980174 
L 634.954445 128.980174 
L 634.954445 122.077565 
L 479.639098 122.077565 
z
" clip-path="url(#pd3d6b2b1a1)" style="fill: #0000ff"/>
   </g>
   <g id="patch_166">
    <path d="M 479.639098 128.980174 
L 634.954445 128.980174 
L 634.954445 122.077565 
L 479.639098 122.077565 
z
" clip-path="url(#pd3d6b2b1a1)" style="fill: #0000ff"/>
   </g>
   <g id="patch_167">
    <path d="M 480.95533 128.980174 
L 666.544007 128.980174 
L 666.544007 122.077565 
L 480.95533 122.077565 
z
" clip-path="url(#pd3d6b2b1a1)" style="fill: #0000ff"/>
   </g>
   <g id="patch_168">
    <path d="M 675.757629 125.787717 
L 738.936754 125.787717 
L 738.936754 125.270022 
L 675.757629 125.270022 
z
" clip-path="url(#pd3d6b2b1a1)" style="fill: #0000ff"/>
   </g>
   <g id="patch_169">
    <path d="M 144 108.531196 
L 172.957099 108.531196 
L 172.957099 108.0135 
L 144 108.0135 
z
" clip-path="url(#pd3d6b2b1a1)" style="fill: #0000ff"/>
   </g>
   <g id="patch_170">
    <path d="M 174.27333 111.723652 
L 395.400265 111.723652 
L 395.400265 104.821043 
L 174.27333 104.821043 
z
" clip-path="url(#pd3d6b2b1a1)" style="fill: #0000ff"/>
   </g>
   <g id="patch_171">
    <path d="M 184.803184 111.723652 
L 395.400265 111.723652 
L 395.400265 104.821043 
L 184.803184 104.821043 
z
" clip-path="url(#pd3d6b2b1a1)" style="fill: #0000ff"/>
   </g>
   <g id="patch_172">
    <path d="M 387.502875 111.723652 
L 640.219372 111.723652 
L 640.219372 104.821043 
L 387.502875 104.821043 
z
" clip-path="url(#pd3d6b2b1a1)" style="fill: #0000ff"/>
   </g>
   <g id="patch_173">
    <path d="M 442.784609 111.723652 
L 603.364883 111.723652 
L 603.364883 104.821043 
L 442.784609 104.821043 
z
" clip-path="url(#pd3d6b2b1a1)" style="fill: #0000ff"/>
   </g>
   <g id="patch_174">
    <path d="M 444.10084 111.723652 
L 603.364883 111.723652 
L 603.364883 104.821043 
L 444.10084 104.821043 
z
" clip-path="url(#pd3d6b2b1a1)" style="fill: #0000ff"/>
   </g>
   <g id="patch_175">
    <path d="M 444.10084 111.723652 
L 608.62981 111.723652 
L 608.62981 104.821043 
L 444.10084 104.821043 
z
" clip-path="url(#pd3d6b2b1a1)" style="fill: #0000ff"/>
   </g>
   <g id="patch_176">
    <path d="M 445.417072 111.723652 
L 637.586908 111.723652 
L 637.586908 104.821043 
L 445.417072 104.821043 
z
" clip-path="url(#pd3d6b2b1a1)" style="fill: #0000ff"/>
   </g>
   <g id="patch_177">
    <path d="M 641.535604 108.531196 
L 769.210084 108.531196 
L 769.210084 108.0135 
L 641.535604 108.0135 
z
" clip-path="url(#pd3d6b2b1a1)" style="fill: #0000ff"/>
   </g>
   <g id="patch_178">
    <path d="M 144 91.274674 
L 208.495356 91.274674 
L 208.495356 90.756978 
L 144 90.756978 
z
" clip-path="url(#pd3d6b2b1a1)" style="fill: #0000ff"/>
   </g>
   <g id="patch_179">
    <path d="M 209.811588 94.46713 
L 508.596196 94.46713 
L 508.596196 87.564522 
L 209.811588 87.564522 
z
" clip-path="url(#pd3d6b2b1a1)" style="fill: #0000ff"/>
   </g>
   <g id="patch_180">
    <path d="M 509.912428 91.274674 
L 571.775321 91.274674 
L 571.775321 90.756978 
L 509.912428 90.756978 
z
" clip-path="url(#pd3d6b2b1a1)" style="fill: #0000ff"/>
   </g>
   <g id="patch_181">
    <path d="M 573.091552 94.46713 
L 778.423706 94.46713 
L 778.423706 87.564522 
L 573.091552 87.564522 
z
" clip-path="url(#pd3d6b2b1a1)" style="fill: #0000ff"/>
   </g>
   <g id="patch_182">
    <path d="M 582.305175 94.46713 
L 785.004865 94.46713 
L 785.004865 87.564522 
L 582.305175 87.564522 
z
" clip-path="url(#pd3d6b2b1a1)" style="fill: #0000ff"/>
   </g>
   <g id="patch_183">
    <path d="M 587.570102 94.46713 
L 695.501106 94.46713 
L 695.501106 87.564522 
L 587.570102 87.564522 
z
" clip-path="url(#pd3d6b2b1a1)" style="fill: #0000ff"/>
   </g>
   <g id="patch_184">
    <path d="M 588.886333 94.46713 
L 746.834144 94.46713 
L 746.834144 87.564522 
L 588.886333 87.564522 
z
" clip-path="url(#pd3d6b2b1a1)" style="fill: #0000ff"/>
   </g>
   <g id="patch_185">
    <path d="M 590.202565 94.46713 
L 727.090668 94.46713 
L 727.090668 87.564522 
L 590.202565 87.564522 
z
" clip-path="url(#pd3d6b2b1a1)" style="fill: #0000ff"/>
   </g>
   <g id="patch_186">
    <path d="M 590.202565 94.46713 
L 748.150376 94.46713 
L 748.150376 87.564522 
L 590.202565 87.564522 
z
" clip-path="url(#pd3d6b2b1a1)" style="fill: #0000ff"/>
   </g>
   <g id="patch_187">
    <path d="M 786.321097 91.274674 
L 883.722247 91.274674 
L 883.722247 90.756978 
L 786.321097 90.756978 
z
" clip-path="url(#pd3d6b2b1a1)" style="fill: #0000ff"/>
   </g>
   <g id="patch_188">
    <path d="M 144 74.018152 
L 212.444051 74.018152 
L 212.444051 73.500457 
L 144 73.500457 
z
" clip-path="url(#pd3d6b2b1a1)" style="fill: #0000ff"/>
   </g>
   <g id="patch_189">
    <path d="M 213.760283 77.210609 
L 450.681999 77.210609 
L 450.681999 70.308 
L 213.760283 70.308 
z
" clip-path="url(#pd3d6b2b1a1)" style="fill: #0000ff"/>
   </g>
   <g id="patch_190">
    <path d="M 244.033613 77.210609 
L 407.246351 77.210609 
L 407.246351 70.308 
L 244.033613 70.308 
z
" clip-path="url(#pd3d6b2b1a1)" style="fill: #0000ff"/>
   </g>
   <g id="patch_191">
    <path d="M 245.349845 77.210609 
L 407.246351 77.210609 
L 407.246351 70.308 
L 245.349845 70.308 
z
" clip-path="url(#pd3d6b2b1a1)" style="fill: #0000ff"/>
   </g>
   <g id="patch_192">
    <path d="M 245.349845 77.210609 
L 407.246351 77.210609 
L 407.246351 70.308 
L 245.349845 70.308 
z
" clip-path="url(#pd3d6b2b1a1)" style="fill: #0000ff"/>
   </g>
   <g id="patch_193">
    <path d="M 245.349845 77.210609 
L 407.246351 77.210609 
L 407.246351 70.308 
L 245.349845 70.308 
z
" clip-path="url(#pd3d6b2b1a1)" style="fill: #0000ff"/>
   </g>
   <g id="patch_194">
    <path d="M 451.998231 74.018152 
L 500.698806 74.018152 
L 500.698806 73.500457 
L 451.998231 73.500457 
z
" clip-path="url(#pd3d6b2b1a1)" style="fill: #0000ff"/>
   </g>
   <g id="matplotlib.axis_1">
    <g id="xtick_1">
     <g id="line2d_1">
      <defs>
       <path id="mfa7190b208" d="M 0 0 
L 0 3.5 
" style="stroke: #000000; stroke-width: 0.8"/>
      </defs>
      <g>
       <use xlink:href="#mfa7190b208" x="274.306944" y="403.704" style="stroke: #000000; stroke-width: 0.8"/>
      </g>
     </g>
     <g id="text_1">
      <!-- 100 -->
      <g transform="translate(264.763194 418.302437) scale(0.1 -0.1)">
       <defs>
        <path id="DejaVuSans-31" d="M 794 531 
L 1825 531 
L 1825 4091 
L 703 3866 
L 703 4441 
L 1819 4666 
L 2450 4666 
L 2450 531 
L 3481 531 
L 3481 0 
L 794 0 
L 794 531 
z
" transform="scale(0.015625)"/>
        <path id="DejaVuSans-30" d="M 2034 4250 
Q 1547 4250 1301 3770 
Q 1056 3291 1056 2328 
Q 1056 1369 1301 889 
Q 1547 409 2034 409 
Q 2525 409 2770 889 
Q 3016 1369 3016 2328 
Q 3016 3291 2770 3770 
Q 2525 4250 2034 4250 
z
M 2034 4750 
Q 2819 4750 3233 4129 
Q 3647 3509 3647 2328 
Q 3647 1150 3233 529 
Q 2819 -91 2034 -91 
Q 1250 -91 836 529 
Q 422 1150 422 2328 
Q 422 3509 836 4129 
Q 1250 4750 2034 4750 
z
" transform="scale(0.015625)"/>
       </defs>
       <use xlink:href="#DejaVuSans-31"/>
       <use xlink:href="#DejaVuSans-30" x="63.623047"/>
       <use xlink:href="#DejaVuSans-30" x="127.246094"/>
      </g>
     </g>
    </g>
    <g id="xtick_2">
     <g id="line2d_2">
      <g>
       <use xlink:href="#mfa7190b208" x="405.930119" y="403.704" style="stroke: #000000; stroke-width: 0.8"/>
      </g>
     </g>
     <g id="text_2">
      <!-- 200 -->
      <g transform="translate(396.386369 418.302437) scale(0.1 -0.1)">
       <defs>
        <path id="DejaVuSans-32" d="M 1228 531 
L 3431 531 
L 3431 0 
L 469 0 
L 469 531 
Q 828 903 1448 1529 
Q 2069 2156 2228 2338 
Q 2531 2678 2651 2914 
Q 2772 3150 2772 3378 
Q 2772 3750 2511 3984 
Q 2250 4219 1831 4219 
Q 1534 4219 1204 4116 
Q 875 4013 500 3803 
L 500 4441 
Q 881 4594 1212 4672 
Q 1544 4750 1819 4750 
Q 2544 4750 2975 4387 
Q 3406 4025 3406 3419 
Q 3406 3131 3298 2873 
Q 3191 2616 2906 2266 
Q 2828 2175 2409 1742 
Q 1991 1309 1228 531 
z
" transform="scale(0.015625)"/>
       </defs>
       <use xlink:href="#DejaVuSans-32"/>
       <use xlink:href="#DejaVuSans-30" x="63.623047"/>
       <use xlink:href="#DejaVuSans-30" x="127.246094"/>
      </g>
     </g>
    </g>
    <g id="xtick_3">
     <g id="line2d_3">
      <g>
       <use xlink:href="#mfa7190b208" x="537.553295" y="403.704" style="stroke: #000000; stroke-width: 0.8"/>
      </g>
     </g>
     <g id="text_3">
      <!-- 300 -->
      <g transform="translate(528.009545 418.302437) scale(0.1 -0.1)">
       <defs>
        <path id="DejaVuSans-33" d="M 2597 2516 
Q 3050 2419 3304 2112 
Q 3559 1806 3559 1356 
Q 3559 666 3084 287 
Q 2609 -91 1734 -91 
Q 1441 -91 1130 -33 
Q 819 25 488 141 
L 488 750 
Q 750 597 1062 519 
Q 1375 441 1716 441 
Q 2309 441 2620 675 
Q 2931 909 2931 1356 
Q 2931 1769 2642 2001 
Q 2353 2234 1838 2234 
L 1294 2234 
L 1294 2753 
L 1863 2753 
Q 2328 2753 2575 2939 
Q 2822 3125 2822 3475 
Q 2822 3834 2567 4026 
Q 2313 4219 1838 4219 
Q 1578 4219 1281 4162 
Q 984 4106 628 3988 
L 628 4550 
Q 988 4650 1302 4700 
Q 1616 4750 1894 4750 
Q 2613 4750 3031 4423 
Q 3450 4097 3450 3541 
Q 3450 3153 3228 2886 
Q 3006 2619 2597 2516 
z
" transform="scale(0.015625)"/>
       </defs>
       <use xlink:href="#DejaVuSans-33"/>
       <use xlink:href="#DejaVuSans-30" x="63.623047"/>
       <use xlink:href="#DejaVuSans-30" x="127.246094"/>
      </g>
     </g>
    </g>
    <g id="xtick_4">
     <g id="line2d_4">
      <g>
       <use xlink:href="#mfa7190b208" x="669.176471" y="403.704" style="stroke: #000000; stroke-width: 0.8"/>
      </g>
     </g>
     <g id="text_4">
      <!-- 400 -->
      <g transform="translate(659.632721 418.302437) scale(0.1 -0.1)">
       <defs>
        <path id="DejaVuSans-34" d="M 2419 4116 
L 825 1625 
L 2419 1625 
L 2419 4116 
z
M 2253 4666 
L 3047 4666 
L 3047 1625 
L 3713 1625 
L 3713 1100 
L 3047 1100 
L 3047 0 
L 2419 0 
L 2419 1100 
L 313 1100 
L 313 1709 
L 2253 4666 
z
" transform="scale(0.015625)"/>
       </defs>
       <use xlink:href="#DejaVuSans-34"/>
       <use xlink:href="#DejaVuSans-30" x="63.623047"/>
       <use xlink:href="#DejaVuSans-30" x="127.246094"/>
      </g>
     </g>
    </g>
    <g id="xtick_5">
     <g id="line2d_5">
      <g>
       <use xlink:href="#mfa7190b208" x="800.799646" y="403.704" style="stroke: #000000; stroke-width: 0.8"/>
      </g>
     </g>
     <g id="text_5">
      <!-- 500 -->
      <g transform="translate(791.255896 418.302437) scale(0.1 -0.1)">
       <defs>
        <path id="DejaVuSans-35" d="M 691 4666 
L 3169 4666 
L 3169 4134 
L 1269 4134 
L 1269 2991 
Q 1406 3038 1543 3061 
Q 1681 3084 1819 3084 
Q 2600 3084 3056 2656 
Q 3513 2228 3513 1497 
Q 3513 744 3044 326 
Q 2575 -91 1722 -91 
Q 1428 -91 1123 -41 
Q 819 9 494 109 
L 494 744 
Q 775 591 1075 516 
Q 1375 441 1709 441 
Q 2250 441 2565 725 
Q 2881 1009 2881 1497 
Q 2881 1984 2565 2268 
Q 2250 2553 1709 2553 
Q 1456 2553 1204 2497 
Q 953 2441 691 2322 
L 691 4666 
z
" transform="scale(0.015625)"/>
       </defs>
       <use xlink:href="#DejaVuSans-35"/>
       <use xlink:href="#DejaVuSans-30" x="63.623047"/>
       <use xlink:href="#DejaVuSans-30" x="127.246094"/>
      </g>
     </g>
    </g>
    <g id="xtick_6">
     <g id="line2d_6">
      <g>
       <use xlink:href="#mfa7190b208" x="932.422822" y="403.704" style="stroke: #000000; stroke-width: 0.8"/>
      </g>
     </g>
     <g id="text_6">
      <!-- 600 -->
      <g transform="translate(922.879072 418.302437) scale(0.1 -0.1)">
       <defs>
        <path id="DejaVuSans-36" d="M 2113 2584 
Q 1688 2584 1439 2293 
Q 1191 2003 1191 1497 
Q 1191 994 1439 701 
Q 1688 409 2113 409 
Q 2538 409 2786 701 
Q 3034 994 3034 1497 
Q 3034 2003 2786 2293 
Q 2538 2584 2113 2584 
z
M 3366 4563 
L 3366 3988 
Q 3128 4100 2886 4159 
Q 2644 4219 2406 4219 
Q 1781 4219 1451 3797 
Q 1122 3375 1075 2522 
Q 1259 2794 1537 2939 
Q 1816 3084 2150 3084 
Q 2853 3084 3261 2657 
Q 3669 2231 3669 1497 
Q 3669 778 3244 343 
Q 2819 -91 2113 -91 
Q 1303 -91 875 529 
Q 447 1150 447 2328 
Q 447 3434 972 4092 
Q 1497 4750 2381 4750 
Q 2619 4750 2861 4703 
Q 3103 4656 3366 4563 
z
" transform="scale(0.015625)"/>
       </defs>
       <use xlink:href="#DejaVuSans-36"/>
       <use xlink:href="#DejaVuSans-30" x="63.623047"/>
       <use xlink:href="#DejaVuSans-30" x="127.246094"/>
      </g>
     </g>
    </g>
    <g id="text_7">
     <!-- Residual -->
     <g transform="translate(569.284375 431.980562) scale(0.1 -0.1)">
      <defs>
       <path id="DejaVuSans-52" d="M 2841 2188 
Q 3044 2119 3236 1894 
Q 3428 1669 3622 1275 
L 4263 0 
L 3584 0 
L 2988 1197 
Q 2756 1666 2539 1819 
Q 2322 1972 1947 1972 
L 1259 1972 
L 1259 0 
L 628 0 
L 628 4666 
L 2053 4666 
Q 2853 4666 3247 4331 
Q 3641 3997 3641 3322 
Q 3641 2881 3436 2590 
Q 3231 2300 2841 2188 
z
M 1259 4147 
L 1259 2491 
L 2053 2491 
Q 2509 2491 2742 2702 
Q 2975 2913 2975 3322 
Q 2975 3731 2742 3939 
Q 2509 4147 2053 4147 
L 1259 4147 
z
" transform="scale(0.015625)"/>
       <path id="DejaVuSans-65" d="M 3597 1894 
L 3597 1613 
L 953 1613 
Q 991 1019 1311 708 
Q 1631 397 2203 397 
Q 2534 397 2845 478 
Q 3156 559 3463 722 
L 3463 178 
Q 3153 47 2828 -22 
Q 2503 -91 2169 -91 
Q 1331 -91 842 396 
Q 353 884 353 1716 
Q 353 2575 817 3079 
Q 1281 3584 2069 3584 
Q 2775 3584 3186 3129 
Q 3597 2675 3597 1894 
z
M 3022 2063 
Q 3016 2534 2758 2815 
Q 2500 3097 2075 3097 
Q 1594 3097 1305 2825 
Q 1016 2553 972 2059 
L 3022 2063 
z
" transform="scale(0.015625)"/>
       <path id="DejaVuSans-73" d="M 2834 3397 
L 2834 2853 
Q 2591 2978 2328 3040 
Q 2066 3103 1784 3103 
Q 1356 3103 1142 2972 
Q 928 2841 928 2578 
Q 928 2378 1081 2264 
Q 1234 2150 1697 2047 
L 1894 2003 
Q 2506 1872 2764 1633 
Q 3022 1394 3022 966 
Q 3022 478 2636 193 
Q 2250 -91 1575 -91 
Q 1294 -91 989 -36 
Q 684 19 347 128 
L 347 722 
Q 666 556 975 473 
Q 1284 391 1588 391 
Q 1994 391 2212 530 
Q 2431 669 2431 922 
Q 2431 1156 2273 1281 
Q 2116 1406 1581 1522 
L 1381 1569 
Q 847 1681 609 1914 
Q 372 2147 372 2553 
Q 372 3047 722 3315 
Q 1072 3584 1716 3584 
Q 2034 3584 2315 3537 
Q 2597 3491 2834 3397 
z
" transform="scale(0.015625)"/>
       <path id="DejaVuSans-69" d="M 603 3500 
L 1178 3500 
L 1178 0 
L 603 0 
L 603 3500 
z
M 603 4863 
L 1178 4863 
L 1178 4134 
L 603 4134 
L 603 4863 
z
" transform="scale(0.015625)"/>
       <path id="DejaVuSans-64" d="M 2906 2969 
L 2906 4863 
L 3481 4863 
L 3481 0 
L 2906 0 
L 2906 525 
Q 2725 213 2448 61 
Q 2172 -91 1784 -91 
Q 1150 -91 751 415 
Q 353 922 353 1747 
Q 353 2572 751 3078 
Q 1150 3584 1784 3584 
Q 2172 3584 2448 3432 
Q 2725 3281 2906 2969 
z
M 947 1747 
Q 947 1113 1208 752 
Q 1469 391 1925 391 
Q 2381 391 2643 752 
Q 2906 1113 2906 1747 
Q 2906 2381 2643 2742 
Q 2381 3103 1925 3103 
Q 1469 3103 1208 2742 
Q 947 2381 947 1747 
z
" transform="scale(0.015625)"/>
       <path id="DejaVuSans-75" d="M 544 1381 
L 544 3500 
L 1119 3500 
L 1119 1403 
Q 1119 906 1312 657 
Q 1506 409 1894 409 
Q 2359 409 2629 706 
Q 2900 1003 2900 1516 
L 2900 3500 
L 3475 3500 
L 3475 0 
L 2900 0 
L 2900 538 
Q 2691 219 2414 64 
Q 2138 -91 1772 -91 
Q 1169 -91 856 284 
Q 544 659 544 1381 
z
M 1991 3584 
L 1991 3584 
z
" transform="scale(0.015625)"/>
       <path id="DejaVuSans-61" d="M 2194 1759 
Q 1497 1759 1228 1600 
Q 959 1441 959 1056 
Q 959 750 1161 570 
Q 1363 391 1709 391 
Q 2188 391 2477 730 
Q 2766 1069 2766 1631 
L 2766 1759 
L 2194 1759 
z
M 3341 1997 
L 3341 0 
L 2766 0 
L 2766 531 
Q 2569 213 2275 61 
Q 1981 -91 1556 -91 
Q 1019 -91 701 211 
Q 384 513 384 1019 
Q 384 1609 779 1909 
Q 1175 2209 1959 2209 
L 2766 2209 
L 2766 2266 
Q 2766 2663 2505 2880 
Q 2244 3097 1772 3097 
Q 1472 3097 1187 3025 
Q 903 2953 641 2809 
L 641 3341 
Q 956 3463 1253 3523 
Q 1550 3584 1831 3584 
Q 2591 3584 2966 3190 
Q 3341 2797 3341 1997 
z
" transform="scale(0.015625)"/>
       <path id="DejaVuSans-6c" d="M 603 4863 
L 1178 4863 
L 1178 0 
L 603 0 
L 603 4863 
z
" transform="scale(0.015625)"/>
      </defs>
      <use xlink:href="#DejaVuSans-52"/>
      <use xlink:href="#DejaVuSans-65" x="64.982422"/>
      <use xlink:href="#DejaVuSans-73" x="126.505859"/>
      <use xlink:href="#DejaVuSans-69" x="178.605469"/>
      <use xlink:href="#DejaVuSans-64" x="206.388672"/>
      <use xlink:href="#DejaVuSans-75" x="269.865234"/>
      <use xlink:href="#DejaVuSans-61" x="333.244141"/>
      <use xlink:href="#DejaVuSans-6c" x="394.523438"/>
     </g>
    </g>
   </g>
   <g id="matplotlib.axis_2">
    <g id="ytick_1">
     <g id="line2d_7">
      <defs>
       <path id="m652d66e4be" d="M 0 0 
L -3.5 0 
" style="stroke: #000000; stroke-width: 0.8"/>
      </defs>
      <g>
       <use xlink:href="#m652d66e4be" x="144" y="384.376696" style="stroke: #000000; stroke-width: 0.8"/>
      </g>
     </g>
     <g id="text_8">
      <!-- 5.B.2.1.1 -->
      <g transform="translate(91.976562 388.175914) scale(0.1 -0.1)">
       <defs>
        <path id="DejaVuSans-2e" d="M 684 794 
L 1344 794 
L 1344 0 
L 684 0 
L 684 794 
z
" transform="scale(0.015625)"/>
        <path id="DejaVuSans-42" d="M 1259 2228 
L 1259 519 
L 2272 519 
Q 2781 519 3026 730 
Q 3272 941 3272 1375 
Q 3272 1813 3026 2020 
Q 2781 2228 2272 2228 
L 1259 2228 
z
M 1259 4147 
L 1259 2741 
L 2194 2741 
Q 2656 2741 2882 2914 
Q 3109 3088 3109 3444 
Q 3109 3797 2882 3972 
Q 2656 4147 2194 4147 
L 1259 4147 
z
M 628 4666 
L 2241 4666 
Q 2963 4666 3353 4366 
Q 3744 4066 3744 3513 
Q 3744 3084 3544 2831 
Q 3344 2578 2956 2516 
Q 3422 2416 3680 2098 
Q 3938 1781 3938 1306 
Q 3938 681 3513 340 
Q 3088 0 2303 0 
L 628 0 
L 628 4666 
z
" transform="scale(0.015625)"/>
       </defs>
       <use xlink:href="#DejaVuSans-35"/>
       <use xlink:href="#DejaVuSans-2e" x="63.623047"/>
       <use xlink:href="#DejaVuSans-42" x="95.410156"/>
       <use xlink:href="#DejaVuSans-2e" x="164.013672"/>
       <use xlink:href="#DejaVuSans-32" x="195.800781"/>
       <use xlink:href="#DejaVuSans-2e" x="259.423828"/>
       <use xlink:href="#DejaVuSans-31" x="291.210938"/>
       <use xlink:href="#DejaVuSans-2e" x="354.833984"/>
       <use xlink:href="#DejaVuSans-31" x="386.621094"/>
      </g>
     </g>
    </g>
    <g id="ytick_2">
     <g id="line2d_8">
      <g>
       <use xlink:href="#m652d66e4be" x="144" y="367.120174" style="stroke: #000000; stroke-width: 0.8"/>
      </g>
     </g>
     <g id="text_9">
      <!-- 5.B.2.1.2 -->
      <g transform="translate(91.976562 370.919393) scale(0.1 -0.1)">
       <use xlink:href="#DejaVuSans-35"/>
       <use xlink:href="#DejaVuSans-2e" x="63.623047"/>
       <use xlink:href="#DejaVuSans-42" x="95.410156"/>
       <use xlink:href="#DejaVuSans-2e" x="164.013672"/>
       <use xlink:href="#DejaVuSans-32" x="195.800781"/>
       <use xlink:href="#DejaVuSans-2e" x="259.423828"/>
       <use xlink:href="#DejaVuSans-31" x="291.210938"/>
       <use xlink:href="#DejaVuSans-2e" x="354.833984"/>
       <use xlink:href="#DejaVuSans-32" x="386.621094"/>
      </g>
     </g>
    </g>
    <g id="ytick_3">
     <g id="line2d_9">
      <g>
       <use xlink:href="#m652d66e4be" x="144" y="349.863652" style="stroke: #000000; stroke-width: 0.8"/>
      </g>
     </g>
     <g id="text_10">
      <!-- 5.B.2.1.3 -->
      <g transform="translate(91.976562 353.662871) scale(0.1 -0.1)">
       <use xlink:href="#DejaVuSans-35"/>
       <use xlink:href="#DejaVuSans-2e" x="63.623047"/>
       <use xlink:href="#DejaVuSans-42" x="95.410156"/>
       <use xlink:href="#DejaVuSans-2e" x="164.013672"/>
       <use xlink:href="#DejaVuSans-32" x="195.800781"/>
       <use xlink:href="#DejaVuSans-2e" x="259.423828"/>
       <use xlink:href="#DejaVuSans-31" x="291.210938"/>
       <use xlink:href="#DejaVuSans-2e" x="354.833984"/>
       <use xlink:href="#DejaVuSans-33" x="386.621094"/>
      </g>
     </g>
    </g>
    <g id="ytick_4">
     <g id="line2d_10">
      <g>
       <use xlink:href="#m652d66e4be" x="144" y="332.60713" style="stroke: #000000; stroke-width: 0.8"/>
      </g>
     </g>
     <g id="text_11">
      <!-- 5.B.2.1.4 -->
      <g transform="translate(91.976562 336.406349) scale(0.1 -0.1)">
       <use xlink:href="#DejaVuSans-35"/>
       <use xlink:href="#DejaVuSans-2e" x="63.623047"/>
       <use xlink:href="#DejaVuSans-42" x="95.410156"/>
       <use xlink:href="#DejaVuSans-2e" x="164.013672"/>
       <use xlink:href="#DejaVuSans-32" x="195.800781"/>
       <use xlink:href="#DejaVuSans-2e" x="259.423828"/>
       <use xlink:href="#DejaVuSans-31" x="291.210938"/>
       <use xlink:href="#DejaVuSans-2e" x="354.833984"/>
       <use xlink:href="#DejaVuSans-34" x="386.621094"/>
      </g>
     </g>
    </g>
    <g id="ytick_5">
     <g id="line2d_11">
      <g>
       <use xlink:href="#m652d66e4be" x="144" y="315.350609" style="stroke: #000000; stroke-width: 0.8"/>
      </g>
     </g>
     <g id="text_12">
      <!-- 5.B.2.1.5 -->
      <g transform="translate(91.976562 319.149827) scale(0.1 -0.1)">
       <use xlink:href="#DejaVuSans-35"/>
       <use xlink:href="#DejaVuSans-2e" x="63.623047"/>
       <use xlink:href="#DejaVuSans-42" x="95.410156"/>
       <use xlink:href="#DejaVuSans-2e" x="164.013672"/>
       <use xlink:href="#DejaVuSans-32" x="195.800781"/>
       <use xlink:href="#DejaVuSans-2e" x="259.423828"/>
       <use xlink:href="#DejaVuSans-31" x="291.210938"/>
       <use xlink:href="#DejaVuSans-2e" x="354.833984"/>
       <use xlink:href="#DejaVuSans-35" x="386.621094"/>
      </g>
     </g>
    </g>
    <g id="ytick_6">
     <g id="line2d_12">
      <g>
       <use xlink:href="#m652d66e4be" x="144" y="298.094087" style="stroke: #000000; stroke-width: 0.8"/>
      </g>
     </g>
     <g id="text_13">
      <!-- 5.B.2.1.6 -->
      <g transform="translate(91.976562 301.893306) scale(0.1 -0.1)">
       <use xlink:href="#DejaVuSans-35"/>
       <use xlink:href="#DejaVuSans-2e" x="63.623047"/>
       <use xlink:href="#DejaVuSans-42" x="95.410156"/>
       <use xlink:href="#DejaVuSans-2e" x="164.013672"/>
       <use xlink:href="#DejaVuSans-32" x="195.800781"/>
       <use xlink:href="#DejaVuSans-2e" x="259.423828"/>
       <use xlink:href="#DejaVuSans-31" x="291.210938"/>
       <use xlink:href="#DejaVuSans-2e" x="354.833984"/>
       <use xlink:href="#DejaVuSans-36" x="386.621094"/>
      </g>
     </g>
    </g>
    <g id="ytick_7">
     <g id="line2d_13">
      <g>
       <use xlink:href="#m652d66e4be" x="144" y="280.837565" style="stroke: #000000; stroke-width: 0.8"/>
      </g>
     </g>
     <g id="text_14">
      <!-- 5.B.2.1.7 -->
      <g transform="translate(91.976562 284.636784) scale(0.1 -0.1)">
       <defs>
        <path id="DejaVuSans-37" d="M 525 4666 
L 3525 4666 
L 3525 4397 
L 1831 0 
L 1172 0 
L 2766 4134 
L 525 4134 
L 525 4666 
z
" transform="scale(0.015625)"/>
       </defs>
       <use xlink:href="#DejaVuSans-35"/>
       <use xlink:href="#DejaVuSans-2e" x="63.623047"/>
       <use xlink:href="#DejaVuSans-42" x="95.410156"/>
       <use xlink:href="#DejaVuSans-2e" x="164.013672"/>
       <use xlink:href="#DejaVuSans-32" x="195.800781"/>
       <use xlink:href="#DejaVuSans-2e" x="259.423828"/>
       <use xlink:href="#DejaVuSans-31" x="291.210938"/>
       <use xlink:href="#DejaVuSans-2e" x="354.833984"/>
       <use xlink:href="#DejaVuSans-37" x="386.621094"/>
      </g>
     </g>
    </g>
    <g id="ytick_8">
     <g id="line2d_14">
      <g>
       <use xlink:href="#m652d66e4be" x="144" y="263.581043" style="stroke: #000000; stroke-width: 0.8"/>
      </g>
     </g>
     <g id="text_15">
      <!-- 5.B.2.2.1 -->
      <g transform="translate(91.976562 267.380262) scale(0.1 -0.1)">
       <use xlink:href="#DejaVuSans-35"/>
       <use xlink:href="#DejaVuSans-2e" x="63.623047"/>
       <use xlink:href="#DejaVuSans-42" x="95.410156"/>
       <use xlink:href="#DejaVuSans-2e" x="164.013672"/>
       <use xlink:href="#DejaVuSans-32" x="195.800781"/>
       <use xlink:href="#DejaVuSans-2e" x="259.423828"/>
       <use xlink:href="#DejaVuSans-32" x="291.210938"/>
       <use xlink:href="#DejaVuSans-2e" x="354.833984"/>
       <use xlink:href="#DejaVuSans-31" x="386.621094"/>
      </g>
     </g>
    </g>
    <g id="ytick_9">
     <g id="line2d_15">
      <g>
       <use xlink:href="#m652d66e4be" x="144" y="246.324522" style="stroke: #000000; stroke-width: 0.8"/>
      </g>
     </g>
     <g id="text_16">
      <!-- 5.B.2.2.2 -->
      <g transform="translate(91.976562 250.12374) scale(0.1 -0.1)">
       <use xlink:href="#DejaVuSans-35"/>
       <use xlink:href="#DejaVuSans-2e" x="63.623047"/>
       <use xlink:href="#DejaVuSans-42" x="95.410156"/>
       <use xlink:href="#DejaVuSans-2e" x="164.013672"/>
       <use xlink:href="#DejaVuSans-32" x="195.800781"/>
       <use xlink:href="#DejaVuSans-2e" x="259.423828"/>
       <use xlink:href="#DejaVuSans-32" x="291.210938"/>
       <use xlink:href="#DejaVuSans-2e" x="354.833984"/>
       <use xlink:href="#DejaVuSans-32" x="386.621094"/>
      </g>
     </g>
    </g>
    <g id="ytick_10">
     <g id="line2d_16">
      <g>
       <use xlink:href="#m652d66e4be" x="144" y="229.068" style="stroke: #000000; stroke-width: 0.8"/>
      </g>
     </g>
     <g id="text_17">
      <!-- 5.B.2.2.3 -->
      <g transform="translate(91.976562 232.867219) scale(0.1 -0.1)">
       <use xlink:href="#DejaVuSans-35"/>
       <use xlink:href="#DejaVuSans-2e" x="63.623047"/>
       <use xlink:href="#DejaVuSans-42" x="95.410156"/>
       <use xlink:href="#DejaVuSans-2e" x="164.013672"/>
       <use xlink:href="#DejaVuSans-32" x="195.800781"/>
       <use xlink:href="#DejaVuSans-2e" x="259.423828"/>
       <use xlink:href="#DejaVuSans-32" x="291.210938"/>
       <use xlink:href="#DejaVuSans-2e" x="354.833984"/>
       <use xlink:href="#DejaVuSans-33" x="386.621094"/>
      </g>
     </g>
    </g>
    <g id="ytick_11">
     <g id="line2d_17">
      <g>
       <use xlink:href="#m652d66e4be" x="144" y="211.811478" style="stroke: #000000; stroke-width: 0.8"/>
      </g>
     </g>
     <g id="text_18">
      <!-- 5.B.2.2.4 -->
      <g transform="translate(91.976562 215.610697) scale(0.1 -0.1)">
       <use xlink:href="#DejaVuSans-35"/>
       <use xlink:href="#DejaVuSans-2e" x="63.623047"/>
       <use xlink:href="#DejaVuSans-42" x="95.410156"/>
       <use xlink:href="#DejaVuSans-2e" x="164.013672"/>
       <use xlink:href="#DejaVuSans-32" x="195.800781"/>
       <use xlink:href="#DejaVuSans-2e" x="259.423828"/>
       <use xlink:href="#DejaVuSans-32" x="291.210938"/>
       <use xlink:href="#DejaVuSans-2e" x="354.833984"/>
       <use xlink:href="#DejaVuSans-34" x="386.621094"/>
      </g>
     </g>
    </g>
    <g id="ytick_12">
     <g id="line2d_18">
      <g>
       <use xlink:href="#m652d66e4be" x="144" y="194.554957" style="stroke: #000000; stroke-width: 0.8"/>
      </g>
     </g>
     <g id="text_19">
      <!-- 5.B.2.2.5 -->
      <g transform="translate(91.976562 198.354175) scale(0.1 -0.1)">
       <use xlink:href="#DejaVuSans-35"/>
       <use xlink:href="#DejaVuSans-2e" x="63.623047"/>
       <use xlink:href="#DejaVuSans-42" x="95.410156"/>
       <use xlink:href="#DejaVuSans-2e" x="164.013672"/>
       <use xlink:href="#DejaVuSans-32" x="195.800781"/>
       <use xlink:href="#DejaVuSans-2e" x="259.423828"/>
       <use xlink:href="#DejaVuSans-32" x="291.210938"/>
       <use xlink:href="#DejaVuSans-2e" x="354.833984"/>
       <use xlink:href="#DejaVuSans-35" x="386.621094"/>
      </g>
     </g>
    </g>
    <g id="ytick_13">
     <g id="line2d_19">
      <g>
       <use xlink:href="#m652d66e4be" x="144" y="177.298435" style="stroke: #000000; stroke-width: 0.8"/>
      </g>
     </g>
     <g id="text_20">
      <!-- 5.B.2.2.6 -->
      <g transform="translate(91.976562 181.097654) scale(0.1 -0.1)">
       <use xlink:href="#DejaVuSans-35"/>
       <use xlink:href="#DejaVuSans-2e" x="63.623047"/>
       <use xlink:href="#DejaVuSans-42" x="95.410156"/>
       <use xlink:href="#DejaVuSans-2e" x="164.013672"/>
       <use xlink:href="#DejaVuSans-32" x="195.800781"/>
       <use xlink:href="#DejaVuSans-2e" x="259.423828"/>
       <use xlink:href="#DejaVuSans-32" x="291.210938"/>
       <use xlink:href="#DejaVuSans-2e" x="354.833984"/>
       <use xlink:href="#DejaVuSans-36" x="386.621094"/>
      </g>
     </g>
    </g>
    <g id="ytick_14">
     <g id="line2d_20">
      <g>
       <use xlink:href="#m652d66e4be" x="144" y="160.041913" style="stroke: #000000; stroke-width: 0.8"/>
      </g>
     </g>
     <g id="text_21">
      <!-- 5.B.2.2.7 -->
      <g transform="translate(91.976562 163.841132) scale(0.1 -0.1)">
       <use xlink:href="#DejaVuSans-35"/>
       <use xlink:href="#DejaVuSans-2e" x="63.623047"/>
       <use xlink:href="#DejaVuSans-42" x="95.410156"/>
       <use xlink:href="#DejaVuSans-2e" x="164.013672"/>
       <use xlink:href="#DejaVuSans-32" x="195.800781"/>
       <use xlink:href="#DejaVuSans-2e" x="259.423828"/>
       <use xlink:href="#DejaVuSans-32" x="291.210938"/>
       <use xlink:href="#DejaVuSans-2e" x="354.833984"/>
       <use xlink:href="#DejaVuSans-37" x="386.621094"/>
      </g>
     </g>
    </g>
    <g id="ytick_15">
     <g id="line2d_21">
      <g>
       <use xlink:href="#m652d66e4be" x="144" y="142.785391" style="stroke: #000000; stroke-width: 0.8"/>
      </g>
     </g>
     <g id="text_22">
      <!-- 5.B.2.3.1 -->
      <g transform="translate(91.976562 146.58461) scale(0.1 -0.1)">
       <use xlink:href="#DejaVuSans-35"/>
       <use xlink:href="#DejaVuSans-2e" x="63.623047"/>
       <use xlink:href="#DejaVuSans-42" x="95.410156"/>
       <use xlink:href="#DejaVuSans-2e" x="164.013672"/>
       <use xlink:href="#DejaVuSans-32" x="195.800781"/>
       <use xlink:href="#DejaVuSans-2e" x="259.423828"/>
       <use xlink:href="#DejaVuSans-33" x="291.210938"/>
       <use xlink:href="#DejaVuSans-2e" x="354.833984"/>
       <use xlink:href="#DejaVuSans-31" x="386.621094"/>
      </g>
     </g>
    </g>
    <g id="ytick_16">
     <g id="line2d_22">
      <g>
       <use xlink:href="#m652d66e4be" x="144" y="125.52887" style="stroke: #000000; stroke-width: 0.8"/>
      </g>
     </g>
     <g id="text_23">
      <!-- 5.B.2.3.2 -->
      <g transform="translate(91.976562 129.328088) scale(0.1 -0.1)">
       <use xlink:href="#DejaVuSans-35"/>
       <use xlink:href="#DejaVuSans-2e" x="63.623047"/>
       <use xlink:href="#DejaVuSans-42" x="95.410156"/>
       <use xlink:href="#DejaVuSans-2e" x="164.013672"/>
       <use xlink:href="#DejaVuSans-32" x="195.800781"/>
       <use xlink:href="#DejaVuSans-2e" x="259.423828"/>
       <use xlink:href="#DejaVuSans-33" x="291.210938"/>
       <use xlink:href="#DejaVuSans-2e" x="354.833984"/>
       <use xlink:href="#DejaVuSans-32" x="386.621094"/>
      </g>
     </g>
    </g>
    <g id="ytick_17">
     <g id="line2d_23">
      <g>
       <use xlink:href="#m652d66e4be" x="144" y="108.272348" style="stroke: #000000; stroke-width: 0.8"/>
      </g>
     </g>
     <g id="text_24">
      <!-- 5.B.2.3.3 -->
      <g transform="translate(91.976562 112.071567) scale(0.1 -0.1)">
       <use xlink:href="#DejaVuSans-35"/>
       <use xlink:href="#DejaVuSans-2e" x="63.623047"/>
       <use xlink:href="#DejaVuSans-42" x="95.410156"/>
       <use xlink:href="#DejaVuSans-2e" x="164.013672"/>
       <use xlink:href="#DejaVuSans-32" x="195.800781"/>
       <use xlink:href="#DejaVuSans-2e" x="259.423828"/>
       <use xlink:href="#DejaVuSans-33" x="291.210938"/>
       <use xlink:href="#DejaVuSans-2e" x="354.833984"/>
       <use xlink:href="#DejaVuSans-33" x="386.621094"/>
      </g>
     </g>
    </g>
    <g id="ytick_18">
     <g id="line2d_24">
      <g>
       <use xlink:href="#m652d66e4be" x="144" y="91.015826" style="stroke: #000000; stroke-width: 0.8"/>
      </g>
     </g>
     <g id="text_25">
      <!-- 5.B.2.3.4 -->
      <g transform="translate(91.976562 94.815045) scale(0.1 -0.1)">
       <use xlink:href="#DejaVuSans-35"/>
       <use xlink:href="#DejaVuSans-2e" x="63.623047"/>
       <use xlink:href="#DejaVuSans-42" x="95.410156"/>
       <use xlink:href="#DejaVuSans-2e" x="164.013672"/>
       <use xlink:href="#DejaVuSans-32" x="195.800781"/>
       <use xlink:href="#DejaVuSans-2e" x="259.423828"/>
       <use xlink:href="#DejaVuSans-33" x="291.210938"/>
       <use xlink:href="#DejaVuSans-2e" x="354.833984"/>
       <use xlink:href="#DejaVuSans-34" x="386.621094"/>
      </g>
     </g>
    </g>
    <g id="ytick_19">
     <g id="line2d_25">
      <g>
       <use xlink:href="#m652d66e4be" x="144" y="73.759304" style="stroke: #000000; stroke-width: 0.8"/>
      </g>
     </g>
     <g id="text_26">
      <!-- 5.B.2.3.5 -->
      <g transform="translate(91.976562 77.558523) scale(0.1 -0.1)">
       <use xlink:href="#DejaVuSans-35"/>
       <use xlink:href="#DejaVuSans-2e" x="63.623047"/>
       <use xlink:href="#DejaVuSans-42" x="95.410156"/>
       <use xlink:href="#DejaVuSans-2e" x="164.013672"/>
       <use xlink:href="#DejaVuSans-32" x="195.800781"/>
       <use xlink:href="#DejaVuSans-2e" x="259.423828"/>
       <use xlink:href="#DejaVuSans-33" x="291.210938"/>
       <use xlink:href="#DejaVuSans-2e" x="354.833984"/>
       <use xlink:href="#DejaVuSans-35" x="386.621094"/>
      </g>
     </g>
    </g>
   </g>
   <g id="patch_195">
    <path d="M 144 403.704 
L 144 54.432 
" style="fill: none; stroke: #000000; stroke-width: 0.8; stroke-linejoin: miter; stroke-linecap: square"/>
   </g>
   <g id="patch_196">
    <path d="M 1036.8 403.704 
L 1036.8 54.432 
" style="fill: none; stroke: #000000; stroke-width: 0.8; stroke-linejoin: miter; stroke-linecap: square"/>
   </g>
   <g id="patch_197">
    <path d="M 144 403.704 
L 1036.8 403.704 
" style="fill: none; stroke: #000000; stroke-width: 0.8; stroke-linejoin: miter; stroke-linecap: square"/>
   </g>
   <g id="patch_198">
    <path d="M 144 54.432 
L 1036.8 54.432 
" style="fill: none; stroke: #000000; stroke-width: 0.8; stroke-linejoin: miter; stroke-linecap: square"/>
   </g>
   <g id="text_27">
    <!-- 5.B.2 Summary -->
    <g transform="translate(543.932812 48.432) scale(0.12 -0.12)">
     <defs>
      <path id="DejaVuSans-20" transform="scale(0.015625)"/>
      <path id="DejaVuSans-53" d="M 3425 4513 
L 3425 3897 
Q 3066 4069 2747 4153 
Q 2428 4238 2131 4238 
Q 1616 4238 1336 4038 
Q 1056 3838 1056 3469 
Q 1056 3159 1242 3001 
Q 1428 2844 1947 2747 
L 2328 2669 
Q 3034 2534 3370 2195 
Q 3706 1856 3706 1288 
Q 3706 609 3251 259 
Q 2797 -91 1919 -91 
Q 1588 -91 1214 -16 
Q 841 59 441 206 
L 441 856 
Q 825 641 1194 531 
Q 1563 422 1919 422 
Q 2459 422 2753 634 
Q 3047 847 3047 1241 
Q 3047 1584 2836 1778 
Q 2625 1972 2144 2069 
L 1759 2144 
Q 1053 2284 737 2584 
Q 422 2884 422 3419 
Q 422 4038 858 4394 
Q 1294 4750 2059 4750 
Q 2388 4750 2728 4690 
Q 3069 4631 3425 4513 
z
" transform="scale(0.015625)"/>
      <path id="DejaVuSans-6d" d="M 3328 2828 
Q 3544 3216 3844 3400 
Q 4144 3584 4550 3584 
Q 5097 3584 5394 3201 
Q 5691 2819 5691 2113 
L 5691 0 
L 5113 0 
L 5113 2094 
Q 5113 2597 4934 2840 
Q 4756 3084 4391 3084 
Q 3944 3084 3684 2787 
Q 3425 2491 3425 1978 
L 3425 0 
L 2847 0 
L 2847 2094 
Q 2847 2600 2669 2842 
Q 2491 3084 2119 3084 
Q 1678 3084 1418 2786 
Q 1159 2488 1159 1978 
L 1159 0 
L 581 0 
L 581 3500 
L 1159 3500 
L 1159 2956 
Q 1356 3278 1631 3431 
Q 1906 3584 2284 3584 
Q 2666 3584 2933 3390 
Q 3200 3197 3328 2828 
z
" transform="scale(0.015625)"/>
      <path id="DejaVuSans-72" d="M 2631 2963 
Q 2534 3019 2420 3045 
Q 2306 3072 2169 3072 
Q 1681 3072 1420 2755 
Q 1159 2438 1159 1844 
L 1159 0 
L 581 0 
L 581 3500 
L 1159 3500 
L 1159 2956 
Q 1341 3275 1631 3429 
Q 1922 3584 2338 3584 
Q 2397 3584 2469 3576 
Q 2541 3569 2628 3553 
L 2631 2963 
z
" transform="scale(0.015625)"/>
      <path id="DejaVuSans-79" d="M 2059 -325 
Q 1816 -950 1584 -1140 
Q 1353 -1331 966 -1331 
L 506 -1331 
L 506 -850 
L 844 -850 
Q 1081 -850 1212 -737 
Q 1344 -625 1503 -206 
L 1606 56 
L 191 3500 
L 800 3500 
L 1894 763 
L 2988 3500 
L 3597 3500 
L 2059 -325 
z
" transform="scale(0.015625)"/>
     </defs>
     <use xlink:href="#DejaVuSans-35"/>
     <use xlink:href="#DejaVuSans-2e" x="63.623047"/>
     <use xlink:href="#DejaVuSans-42" x="95.410156"/>
     <use xlink:href="#DejaVuSans-2e" x="164.013672"/>
     <use xlink:href="#DejaVuSans-32" x="195.800781"/>
     <use xlink:href="#DejaVuSans-20" x="259.423828"/>
     <use xlink:href="#DejaVuSans-53" x="291.210938"/>
     <use xlink:href="#DejaVuSans-75" x="354.6875"/>
     <use xlink:href="#DejaVuSans-6d" x="418.066406"/>
     <use xlink:href="#DejaVuSans-6d" x="515.478516"/>
     <use xlink:href="#DejaVuSans-61" x="612.890625"/>
     <use xlink:href="#DejaVuSans-72" x="674.169922"/>
     <use xlink:href="#DejaVuSans-79" x="715.283203"/>
    </g>
   </g>
  </g>
 </g>
 <defs>
  <clipPath id="pd3d6b2b1a1">
   <rect x="144" y="54.432" width="892.8" height="349.272"/>
  </clipPath>
 </defs>
</svg>
