<?xml version="1.0" encoding="utf-8" standalone="no"?>
<!DOCTYPE svg PUBLIC "-//W3C//DTD SVG 1.1//EN"
  "http://www.w3.org/Graphics/SVG/1.1/DTD/svg11.dtd">
<svg xmlns:xlink="http://www.w3.org/1999/xlink" width="1152pt" height="280.8pt" viewBox="0 0 1152 280.8" xmlns="http://www.w3.org/2000/svg" version="1.1">
 <metadata>
  <rdf:RDF xmlns:dc="http://purl.org/dc/elements/1.1/" xmlns:cc="http://creativecommons.org/ns#" xmlns:rdf="http://www.w3.org/1999/02/22-rdf-syntax-ns#">
   <cc:Work>
    <dc:type rdf:resource="http://purl.org/dc/dcmitype/StillImage"/>
    <dc:date>2024-10-25T07:57:20.794263</dc:date>
    <dc:format>image/svg+xml</dc:format>
    <dc:creator>
     <cc:Agent>
      <dc:title>Matplotlib v3.9.2, https://matplotlib.org/</dc:title>
     </cc:Agent>
    </dc:creator>
   </cc:Work>
  </rdf:RDF>
 </metadata>
 <defs>
  <style type="text/css">*{stroke-linejoin: round; stroke-linecap: butt}</style>
 </defs>
 <g id="figure_1">
  <g id="patch_1">
   <path d="M 0 280.8 
L 1152 280.8 
L 1152 0 
L 0 0 
z
" style="fill: #ffffff"/>
  </g>
  <g id="axes_1">
   <g id="patch_2">
    <path d="M 144 249.912 
L 1036.8 249.912 
L 1036.8 33.696 
L 144 33.696 
z
" style="fill: #ffffff"/>
   </g>
   <g id="patch_3">
    <path d="M 144 240.084 
L 292.59362 240.084 
L 292.59362 232.524 
L 144 232.524 
z
" clip-path="url(#pe384e53f08)" style="fill: #0000ff"/>
   </g>
   <g id="patch_4">
    <path d="M 171.517337 240.084 
L 584.277393 240.084 
L 584.277393 232.524 
L 171.517337 232.524 
z
" clip-path="url(#pe384e53f08)" style="fill: #0000ff"/>
   </g>
   <g id="patch_5">
    <path d="M 306.352288 240.084 
L 551.256588 240.084 
L 551.256588 232.524 
L 306.352288 232.524 
z
" clip-path="url(#pe384e53f08)" style="fill: #0000ff"/>
   </g>
   <g id="patch_6">
    <path d="M 317.359223 240.084 
L 548.504854 240.084 
L 548.504854 232.524 
L 317.359223 232.524 
z
" clip-path="url(#pe384e53f08)" style="fill: #0000ff"/>
   </g>
   <g id="patch_7">
    <path d="M 317.359223 240.084 
L 551.256588 240.084 
L 551.256588 232.524 
L 317.359223 232.524 
z
" clip-path="url(#pe384e53f08)" style="fill: #0000ff"/>
   </g>
   <g id="patch_8">
    <path d="M 325.614424 240.084 
L 551.256588 240.084 
L 551.256588 232.524 
L 325.614424 232.524 
z
" clip-path="url(#pe384e53f08)" style="fill: #0000ff"/>
   </g>
   <g id="patch_9">
    <path d="M 325.614424 240.084 
L 554.008322 240.084 
L 554.008322 232.524 
L 325.614424 232.524 
z
" clip-path="url(#pe384e53f08)" style="fill: #0000ff"/>
   </g>
   <g id="patch_10">
    <path d="M 325.614424 240.084 
L 587.029126 240.084 
L 587.029126 232.524 
L 325.614424 232.524 
z
" clip-path="url(#pe384e53f08)" style="fill: #0000ff"/>
   </g>
   <g id="patch_11">
    <path d="M 336.621359 240.084 
L 551.256588 240.084 
L 551.256588 232.524 
L 336.621359 232.524 
z
" clip-path="url(#pe384e53f08)" style="fill: #0000ff"/>
   </g>
   <g id="patch_12">
    <path d="M 336.621359 240.084 
L 551.256588 240.084 
L 551.256588 232.524 
L 336.621359 232.524 
z
" clip-path="url(#pe384e53f08)" style="fill: #0000ff"/>
   </g>
   <g id="patch_13">
    <path d="M 336.621359 240.084 
L 545.753121 240.084 
L 545.753121 232.524 
L 336.621359 232.524 
z
" clip-path="url(#pe384e53f08)" style="fill: #0000ff"/>
   </g>
   <g id="patch_14">
    <path d="M 336.621359 240.084 
L 551.256588 240.084 
L 551.256588 232.524 
L 336.621359 232.524 
z
" clip-path="url(#pe384e53f08)" style="fill: #0000ff"/>
   </g>
   <g id="patch_15">
    <path d="M 336.621359 240.084 
L 551.256588 240.084 
L 551.256588 232.524 
L 336.621359 232.524 
z
" clip-path="url(#pe384e53f08)" style="fill: #0000ff"/>
   </g>
   <g id="patch_16">
    <path d="M 342.124827 240.084 
L 551.256588 240.084 
L 551.256588 232.524 
L 342.124827 232.524 
z
" clip-path="url(#pe384e53f08)" style="fill: #0000ff"/>
   </g>
   <g id="patch_17">
    <path d="M 347.628294 240.084 
L 551.256588 240.084 
L 551.256588 232.524 
L 347.628294 232.524 
z
" clip-path="url(#pe384e53f08)" style="fill: #0000ff"/>
   </g>
   <g id="patch_18">
    <path d="M 358.635229 240.084 
L 548.504854 240.084 
L 548.504854 232.524 
L 358.635229 232.524 
z
" clip-path="url(#pe384e53f08)" style="fill: #0000ff"/>
   </g>
   <g id="patch_19">
    <path d="M 589.78086 236.5875 
L 622.801664 236.5875 
L 622.801664 236.0205 
L 589.78086 236.0205 
z
" clip-path="url(#pe384e53f08)" style="fill: #0000ff"/>
   </g>
   <g id="patch_20">
    <path d="M 144 221.184 
L 289.841886 221.184 
L 289.841886 213.624 
L 144 213.624 
z
" clip-path="url(#pe384e53f08)" style="fill: #0000ff"/>
   </g>
   <g id="patch_21">
    <path d="M 292.59362 217.6875 
L 303.600555 217.6875 
L 303.600555 217.1205 
L 292.59362 217.1205 
z
" clip-path="url(#pe384e53f08)" style="fill: #0000ff"/>
   </g>
   <g id="patch_22">
    <path d="M 306.352288 221.184 
L 537.49792 221.184 
L 537.49792 213.624 
L 306.352288 213.624 
z
" clip-path="url(#pe384e53f08)" style="fill: #0000ff"/>
   </g>
   <g id="patch_23">
    <path d="M 306.352288 221.184 
L 540.249653 221.184 
L 540.249653 213.624 
L 306.352288 213.624 
z
" clip-path="url(#pe384e53f08)" style="fill: #0000ff"/>
   </g>
   <g id="patch_24">
    <path d="M 314.60749 221.184 
L 540.249653 221.184 
L 540.249653 213.624 
L 314.60749 213.624 
z
" clip-path="url(#pe384e53f08)" style="fill: #0000ff"/>
   </g>
   <g id="patch_25">
    <path d="M 314.60749 221.184 
L 540.249653 221.184 
L 540.249653 213.624 
L 314.60749 213.624 
z
" clip-path="url(#pe384e53f08)" style="fill: #0000ff"/>
   </g>
   <g id="patch_26">
    <path d="M 314.60749 221.184 
L 540.249653 221.184 
L 540.249653 213.624 
L 314.60749 213.624 
z
" clip-path="url(#pe384e53f08)" style="fill: #0000ff"/>
   </g>
   <g id="patch_27">
    <path d="M 314.60749 221.184 
L 540.249653 221.184 
L 540.249653 213.624 
L 314.60749 213.624 
z
" clip-path="url(#pe384e53f08)" style="fill: #0000ff"/>
   </g>
   <g id="patch_28">
    <path d="M 314.60749 221.184 
L 526.490985 221.184 
L 526.490985 213.624 
L 314.60749 213.624 
z
" clip-path="url(#pe384e53f08)" style="fill: #0000ff"/>
   </g>
   <g id="patch_29">
    <path d="M 314.60749 221.184 
L 587.029126 221.184 
L 587.029126 213.624 
L 314.60749 213.624 
z
" clip-path="url(#pe384e53f08)" style="fill: #0000ff"/>
   </g>
   <g id="patch_30">
    <path d="M 317.359223 221.184 
L 482.463245 221.184 
L 482.463245 213.624 
L 317.359223 213.624 
z
" clip-path="url(#pe384e53f08)" style="fill: #0000ff"/>
   </g>
   <g id="patch_31">
    <path d="M 317.359223 221.184 
L 540.249653 221.184 
L 540.249653 213.624 
L 317.359223 213.624 
z
" clip-path="url(#pe384e53f08)" style="fill: #0000ff"/>
   </g>
   <g id="patch_32">
    <path d="M 317.359223 221.184 
L 526.490985 221.184 
L 526.490985 213.624 
L 317.359223 213.624 
z
" clip-path="url(#pe384e53f08)" style="fill: #0000ff"/>
   </g>
   <g id="patch_33">
    <path d="M 320.110957 221.184 
L 523.739251 221.184 
L 523.739251 213.624 
L 320.110957 213.624 
z
" clip-path="url(#pe384e53f08)" style="fill: #0000ff"/>
   </g>
   <g id="patch_34">
    <path d="M 325.614424 221.184 
L 540.249653 221.184 
L 540.249653 213.624 
L 325.614424 213.624 
z
" clip-path="url(#pe384e53f08)" style="fill: #0000ff"/>
   </g>
   <g id="patch_35">
    <path d="M 331.117892 221.184 
L 537.49792 221.184 
L 537.49792 213.624 
L 331.117892 213.624 
z
" clip-path="url(#pe384e53f08)" style="fill: #0000ff"/>
   </g>
   <g id="patch_36">
    <path d="M 347.628294 221.184 
L 540.249653 221.184 
L 540.249653 213.624 
L 347.628294 213.624 
z
" clip-path="url(#pe384e53f08)" style="fill: #0000ff"/>
   </g>
   <g id="patch_37">
    <path d="M 589.78086 217.6875 
L 617.298197 217.6875 
L 617.298197 217.1205 
L 589.78086 217.1205 
z
" clip-path="url(#pe384e53f08)" style="fill: #0000ff"/>
   </g>
   <g id="patch_38">
    <path d="M 144 198.7875 
L 270.57975 198.7875 
L 270.57975 198.2205 
L 144 198.2205 
z
" clip-path="url(#pe384e53f08)" style="fill: #0000ff"/>
   </g>
   <g id="patch_39">
    <path d="M 273.331484 202.284 
L 493.47018 202.284 
L 493.47018 194.724 
L 273.331484 194.724 
z
" clip-path="url(#pe384e53f08)" style="fill: #0000ff"/>
   </g>
   <g id="patch_40">
    <path d="M 273.331484 202.284 
L 496.221914 202.284 
L 496.221914 194.724 
L 273.331484 194.724 
z
" clip-path="url(#pe384e53f08)" style="fill: #0000ff"/>
   </g>
   <g id="patch_41">
    <path d="M 273.331484 202.284 
L 496.221914 202.284 
L 496.221914 194.724 
L 273.331484 194.724 
z
" clip-path="url(#pe384e53f08)" style="fill: #0000ff"/>
   </g>
   <g id="patch_42">
    <path d="M 273.331484 202.284 
L 496.221914 202.284 
L 496.221914 194.724 
L 273.331484 194.724 
z
" clip-path="url(#pe384e53f08)" style="fill: #0000ff"/>
   </g>
   <g id="patch_43">
    <path d="M 273.331484 202.284 
L 496.221914 202.284 
L 496.221914 194.724 
L 273.331484 194.724 
z
" clip-path="url(#pe384e53f08)" style="fill: #0000ff"/>
   </g>
   <g id="patch_44">
    <path d="M 276.083218 202.284 
L 496.221914 202.284 
L 496.221914 194.724 
L 276.083218 194.724 
z
" clip-path="url(#pe384e53f08)" style="fill: #0000ff"/>
   </g>
   <g id="patch_45">
    <path d="M 276.083218 202.284 
L 496.221914 202.284 
L 496.221914 194.724 
L 276.083218 194.724 
z
" clip-path="url(#pe384e53f08)" style="fill: #0000ff"/>
   </g>
   <g id="patch_46">
    <path d="M 276.083218 202.284 
L 496.221914 202.284 
L 496.221914 194.724 
L 276.083218 194.724 
z
" clip-path="url(#pe384e53f08)" style="fill: #0000ff"/>
   </g>
   <g id="patch_47">
    <path d="M 276.083218 202.284 
L 531.994452 202.284 
L 531.994452 194.724 
L 276.083218 194.724 
z
" clip-path="url(#pe384e53f08)" style="fill: #0000ff"/>
   </g>
   <g id="patch_48">
    <path d="M 276.083218 202.284 
L 531.994452 202.284 
L 531.994452 194.724 
L 276.083218 194.724 
z
" clip-path="url(#pe384e53f08)" style="fill: #0000ff"/>
   </g>
   <g id="patch_49">
    <path d="M 281.586685 202.284 
L 487.966713 202.284 
L 487.966713 194.724 
L 281.586685 194.724 
z
" clip-path="url(#pe384e53f08)" style="fill: #0000ff"/>
   </g>
   <g id="patch_50">
    <path d="M 281.586685 202.284 
L 493.47018 202.284 
L 493.47018 194.724 
L 281.586685 194.724 
z
" clip-path="url(#pe384e53f08)" style="fill: #0000ff"/>
   </g>
   <g id="patch_51">
    <path d="M 284.338419 202.284 
L 438.435506 202.284 
L 438.435506 194.724 
L 284.338419 194.724 
z
" clip-path="url(#pe384e53f08)" style="fill: #0000ff"/>
   </g>
   <g id="patch_52">
    <path d="M 292.59362 202.284 
L 496.221914 202.284 
L 496.221914 194.724 
L 292.59362 194.724 
z
" clip-path="url(#pe384e53f08)" style="fill: #0000ff"/>
   </g>
   <g id="patch_53">
    <path d="M 534.746186 198.7875 
L 551.256588 198.7875 
L 551.256588 198.2205 
L 534.746186 198.2205 
z
" clip-path="url(#pe384e53f08)" style="fill: #0000ff"/>
   </g>
   <g id="patch_54">
    <path d="M 144 179.8875 
L 353.131761 179.8875 
L 353.131761 179.3205 
L 144 179.3205 
z
" clip-path="url(#pe384e53f08)" style="fill: #0000ff"/>
   </g>
   <g id="patch_55">
    <path d="M 355.883495 183.384 
L 730.119279 183.384 
L 730.119279 175.824 
L 355.883495 175.824 
z
" clip-path="url(#pe384e53f08)" style="fill: #0000ff"/>
   </g>
   <g id="patch_56">
    <path d="M 454.945908 183.384 
L 675.084605 183.384 
L 675.084605 175.824 
L 454.945908 175.824 
z
" clip-path="url(#pe384e53f08)" style="fill: #0000ff"/>
   </g>
   <g id="patch_57">
    <path d="M 457.697642 183.384 
L 675.084605 183.384 
L 675.084605 175.824 
L 457.697642 175.824 
z
" clip-path="url(#pe384e53f08)" style="fill: #0000ff"/>
   </g>
   <g id="patch_58">
    <path d="M 460.449376 183.384 
L 669.581137 183.384 
L 669.581137 175.824 
L 460.449376 175.824 
z
" clip-path="url(#pe384e53f08)" style="fill: #0000ff"/>
   </g>
   <g id="patch_59">
    <path d="M 465.952843 183.384 
L 672.332871 183.384 
L 672.332871 175.824 
L 465.952843 175.824 
z
" clip-path="url(#pe384e53f08)" style="fill: #0000ff"/>
   </g>
   <g id="patch_60">
    <path d="M 474.208044 183.384 
L 675.084605 183.384 
L 675.084605 175.824 
L 474.208044 175.824 
z
" clip-path="url(#pe384e53f08)" style="fill: #0000ff"/>
   </g>
   <g id="patch_61">
    <path d="M 476.959778 183.384 
L 675.084605 183.384 
L 675.084605 175.824 
L 476.959778 175.824 
z
" clip-path="url(#pe384e53f08)" style="fill: #0000ff"/>
   </g>
   <g id="patch_62">
    <path d="M 476.959778 183.384 
L 675.084605 183.384 
L 675.084605 175.824 
L 476.959778 175.824 
z
" clip-path="url(#pe384e53f08)" style="fill: #0000ff"/>
   </g>
   <g id="patch_63">
    <path d="M 476.959778 183.384 
L 675.084605 183.384 
L 675.084605 175.824 
L 476.959778 175.824 
z
" clip-path="url(#pe384e53f08)" style="fill: #0000ff"/>
   </g>
   <g id="patch_64">
    <path d="M 476.959778 183.384 
L 675.084605 183.384 
L 675.084605 175.824 
L 476.959778 175.824 
z
" clip-path="url(#pe384e53f08)" style="fill: #0000ff"/>
   </g>
   <g id="patch_65">
    <path d="M 476.959778 183.384 
L 675.084605 183.384 
L 675.084605 175.824 
L 476.959778 175.824 
z
" clip-path="url(#pe384e53f08)" style="fill: #0000ff"/>
   </g>
   <g id="patch_66">
    <path d="M 485.214979 183.384 
L 675.084605 183.384 
L 675.084605 175.824 
L 485.214979 175.824 
z
" clip-path="url(#pe384e53f08)" style="fill: #0000ff"/>
   </g>
   <g id="patch_67">
    <path d="M 485.214979 183.384 
L 675.084605 183.384 
L 675.084605 175.824 
L 485.214979 175.824 
z
" clip-path="url(#pe384e53f08)" style="fill: #0000ff"/>
   </g>
   <g id="patch_68">
    <path d="M 485.214979 183.384 
L 675.084605 183.384 
L 675.084605 175.824 
L 485.214979 175.824 
z
" clip-path="url(#pe384e53f08)" style="fill: #0000ff"/>
   </g>
   <g id="patch_69">
    <path d="M 490.718447 183.384 
L 675.084605 183.384 
L 675.084605 175.824 
L 490.718447 175.824 
z
" clip-path="url(#pe384e53f08)" style="fill: #0000ff"/>
   </g>
   <g id="patch_70">
    <path d="M 490.718447 183.384 
L 675.084605 183.384 
L 675.084605 175.824 
L 490.718447 175.824 
z
" clip-path="url(#pe384e53f08)" style="fill: #0000ff"/>
   </g>
   <g id="patch_71">
    <path d="M 732.871012 179.8875 
L 774.147018 179.8875 
L 774.147018 179.3205 
L 732.871012 179.3205 
z
" clip-path="url(#pe384e53f08)" style="fill: #0000ff"/>
   </g>
   <g id="patch_72">
    <path d="M 776.898752 183.384 
L 983.278779 183.384 
L 983.278779 175.824 
L 776.898752 175.824 
z
" clip-path="url(#pe384e53f08)" style="fill: #0000ff"/>
   </g>
   <g id="patch_73">
    <path d="M 782.402219 183.384 
L 988.782247 183.384 
L 988.782247 175.824 
L 782.402219 175.824 
z
" clip-path="url(#pe384e53f08)" style="fill: #0000ff"/>
   </g>
   <g id="patch_74">
    <path d="M 782.402219 183.384 
L 988.782247 183.384 
L 988.782247 175.824 
L 782.402219 175.824 
z
" clip-path="url(#pe384e53f08)" style="fill: #0000ff"/>
   </g>
   <g id="patch_75">
    <path d="M 785.153953 183.384 
L 988.782247 183.384 
L 988.782247 175.824 
L 785.153953 175.824 
z
" clip-path="url(#pe384e53f08)" style="fill: #0000ff"/>
   </g>
   <g id="patch_76">
    <path d="M 809.919556 183.384 
L 988.782247 183.384 
L 988.782247 175.824 
L 809.919556 175.824 
z
" clip-path="url(#pe384e53f08)" style="fill: #0000ff"/>
   </g>
   <g id="patch_77">
    <path d="M 870.457698 183.384 
L 988.782247 183.384 
L 988.782247 175.824 
L 870.457698 175.824 
z
" clip-path="url(#pe384e53f08)" style="fill: #0000ff"/>
   </g>
   <g id="patch_78">
    <path d="M 991.533981 179.8875 
L 994.285714 179.8875 
L 994.285714 179.3205 
L 991.533981 179.3205 
z
" clip-path="url(#pe384e53f08)" style="fill: #0000ff"/>
   </g>
   <g id="patch_79">
    <path d="M 144 160.9875 
L 251.317614 160.9875 
L 251.317614 160.4205 
L 144 160.4205 
z
" clip-path="url(#pe384e53f08)" style="fill: #0000ff"/>
   </g>
   <g id="patch_80">
    <path d="M 254.069348 164.484 
L 498.973648 164.484 
L 498.973648 156.924 
L 254.069348 156.924 
z
" clip-path="url(#pe384e53f08)" style="fill: #0000ff"/>
   </g>
   <g id="patch_81">
    <path d="M 267.828017 164.484 
L 504.477115 164.484 
L 504.477115 156.924 
L 267.828017 156.924 
z
" clip-path="url(#pe384e53f08)" style="fill: #0000ff"/>
   </g>
   <g id="patch_82">
    <path d="M 276.083218 164.484 
L 493.47018 164.484 
L 493.47018 156.924 
L 276.083218 156.924 
z
" clip-path="url(#pe384e53f08)" style="fill: #0000ff"/>
   </g>
   <g id="patch_83">
    <path d="M 281.586685 164.484 
L 496.221914 164.484 
L 496.221914 156.924 
L 281.586685 156.924 
z
" clip-path="url(#pe384e53f08)" style="fill: #0000ff"/>
   </g>
   <g id="patch_84">
    <path d="M 281.586685 164.484 
L 496.221914 164.484 
L 496.221914 156.924 
L 281.586685 156.924 
z
" clip-path="url(#pe384e53f08)" style="fill: #0000ff"/>
   </g>
   <g id="patch_85">
    <path d="M 281.586685 164.484 
L 504.477115 164.484 
L 504.477115 156.924 
L 281.586685 156.924 
z
" clip-path="url(#pe384e53f08)" style="fill: #0000ff"/>
   </g>
   <g id="patch_86">
    <path d="M 281.586685 164.484 
L 449.442441 164.484 
L 449.442441 156.924 
L 281.586685 156.924 
z
" clip-path="url(#pe384e53f08)" style="fill: #0000ff"/>
   </g>
   <g id="patch_87">
    <path d="M 284.338419 164.484 
L 501.725381 164.484 
L 501.725381 156.924 
L 284.338419 156.924 
z
" clip-path="url(#pe384e53f08)" style="fill: #0000ff"/>
   </g>
   <g id="patch_88">
    <path d="M 289.841886 164.484 
L 498.973648 164.484 
L 498.973648 156.924 
L 289.841886 156.924 
z
" clip-path="url(#pe384e53f08)" style="fill: #0000ff"/>
   </g>
   <g id="patch_89">
    <path d="M 289.841886 164.484 
L 498.973648 164.484 
L 498.973648 156.924 
L 289.841886 156.924 
z
" clip-path="url(#pe384e53f08)" style="fill: #0000ff"/>
   </g>
   <g id="patch_90">
    <path d="M 507.228849 160.9875 
L 581.525659 160.9875 
L 581.525659 160.4205 
L 507.228849 160.4205 
z
" clip-path="url(#pe384e53f08)" style="fill: #0000ff"/>
   </g>
   <g id="patch_91">
    <path d="M 144 142.0875 
L 199.034674 142.0875 
L 199.034674 141.5205 
L 144 141.5205 
z
" clip-path="url(#pe384e53f08)" style="fill: #0000ff"/>
   </g>
   <g id="patch_92">
    <path d="M 201.786408 145.584 
L 537.49792 145.584 
L 537.49792 138.024 
L 201.786408 138.024 
z
" clip-path="url(#pe384e53f08)" style="fill: #0000ff"/>
   </g>
   <g id="patch_93">
    <path d="M 254.069348 145.584 
L 493.47018 145.584 
L 493.47018 138.024 
L 254.069348 138.024 
z
" clip-path="url(#pe384e53f08)" style="fill: #0000ff"/>
   </g>
   <g id="patch_94">
    <path d="M 256.821082 145.584 
L 504.477115 145.584 
L 504.477115 138.024 
L 256.821082 138.024 
z
" clip-path="url(#pe384e53f08)" style="fill: #0000ff"/>
   </g>
   <g id="patch_95">
    <path d="M 256.821082 145.584 
L 504.477115 145.584 
L 504.477115 138.024 
L 256.821082 138.024 
z
" clip-path="url(#pe384e53f08)" style="fill: #0000ff"/>
   </g>
   <g id="patch_96">
    <path d="M 262.324549 145.584 
L 504.477115 145.584 
L 504.477115 138.024 
L 262.324549 138.024 
z
" clip-path="url(#pe384e53f08)" style="fill: #0000ff"/>
   </g>
   <g id="patch_97">
    <path d="M 262.324549 145.584 
L 501.725381 145.584 
L 501.725381 138.024 
L 262.324549 138.024 
z
" clip-path="url(#pe384e53f08)" style="fill: #0000ff"/>
   </g>
   <g id="patch_98">
    <path d="M 262.324549 145.584 
L 504.477115 145.584 
L 504.477115 138.024 
L 262.324549 138.024 
z
" clip-path="url(#pe384e53f08)" style="fill: #0000ff"/>
   </g>
   <g id="patch_99">
    <path d="M 262.324549 145.584 
L 504.477115 145.584 
L 504.477115 138.024 
L 262.324549 138.024 
z
" clip-path="url(#pe384e53f08)" style="fill: #0000ff"/>
   </g>
   <g id="patch_100">
    <path d="M 262.324549 145.584 
L 507.228849 145.584 
L 507.228849 138.024 
L 262.324549 138.024 
z
" clip-path="url(#pe384e53f08)" style="fill: #0000ff"/>
   </g>
   <g id="patch_101">
    <path d="M 262.324549 145.584 
L 504.477115 145.584 
L 504.477115 138.024 
L 262.324549 138.024 
z
" clip-path="url(#pe384e53f08)" style="fill: #0000ff"/>
   </g>
   <g id="patch_102">
    <path d="M 262.324549 145.584 
L 537.49792 145.584 
L 537.49792 138.024 
L 262.324549 138.024 
z
" clip-path="url(#pe384e53f08)" style="fill: #0000ff"/>
   </g>
   <g id="patch_103">
    <path d="M 265.076283 145.584 
L 504.477115 145.584 
L 504.477115 138.024 
L 265.076283 138.024 
z
" clip-path="url(#pe384e53f08)" style="fill: #0000ff"/>
   </g>
   <g id="patch_104">
    <path d="M 284.338419 145.584 
L 471.456311 145.584 
L 471.456311 138.024 
L 284.338419 138.024 
z
" clip-path="url(#pe384e53f08)" style="fill: #0000ff"/>
   </g>
   <g id="patch_105">
    <path d="M 540.249653 142.0875 
L 545.753121 142.0875 
L 545.753121 141.5205 
L 540.249653 141.5205 
z
" clip-path="url(#pe384e53f08)" style="fill: #0000ff"/>
   </g>
   <g id="patch_106">
    <path d="M 144 123.1875 
L 160.510402 123.1875 
L 160.510402 122.6205 
L 144 122.6205 
z
" clip-path="url(#pe384e53f08)" style="fill: #0000ff"/>
   </g>
   <g id="patch_107">
    <path d="M 163.262136 126.684 
L 540.249653 126.684 
L 540.249653 119.124 
L 163.262136 119.124 
z
" clip-path="url(#pe384e53f08)" style="fill: #0000ff"/>
   </g>
   <g id="patch_108">
    <path d="M 265.076283 126.684 
L 504.477115 126.684 
L 504.477115 119.124 
L 265.076283 119.124 
z
" clip-path="url(#pe384e53f08)" style="fill: #0000ff"/>
   </g>
   <g id="patch_109">
    <path d="M 265.076283 126.684 
L 504.477115 126.684 
L 504.477115 119.124 
L 265.076283 119.124 
z
" clip-path="url(#pe384e53f08)" style="fill: #0000ff"/>
   </g>
   <g id="patch_110">
    <path d="M 265.076283 126.684 
L 504.477115 126.684 
L 504.477115 119.124 
L 265.076283 119.124 
z
" clip-path="url(#pe384e53f08)" style="fill: #0000ff"/>
   </g>
   <g id="patch_111">
    <path d="M 267.828017 126.684 
L 504.477115 126.684 
L 504.477115 119.124 
L 267.828017 119.124 
z
" clip-path="url(#pe384e53f08)" style="fill: #0000ff"/>
   </g>
   <g id="patch_112">
    <path d="M 267.828017 126.684 
L 504.477115 126.684 
L 504.477115 119.124 
L 267.828017 119.124 
z
" clip-path="url(#pe384e53f08)" style="fill: #0000ff"/>
   </g>
   <g id="patch_113">
    <path d="M 267.828017 126.684 
L 504.477115 126.684 
L 504.477115 119.124 
L 267.828017 119.124 
z
" clip-path="url(#pe384e53f08)" style="fill: #0000ff"/>
   </g>
   <g id="patch_114">
    <path d="M 267.828017 126.684 
L 543.001387 126.684 
L 543.001387 119.124 
L 267.828017 119.124 
z
" clip-path="url(#pe384e53f08)" style="fill: #0000ff"/>
   </g>
   <g id="patch_115">
    <path d="M 270.57975 126.684 
L 504.477115 126.684 
L 504.477115 119.124 
L 270.57975 119.124 
z
" clip-path="url(#pe384e53f08)" style="fill: #0000ff"/>
   </g>
   <g id="patch_116">
    <path d="M 281.586685 126.684 
L 498.973648 126.684 
L 498.973648 119.124 
L 281.586685 119.124 
z
" clip-path="url(#pe384e53f08)" style="fill: #0000ff"/>
   </g>
   <g id="patch_117">
    <path d="M 284.338419 126.684 
L 504.477115 126.684 
L 504.477115 119.124 
L 284.338419 119.124 
z
" clip-path="url(#pe384e53f08)" style="fill: #0000ff"/>
   </g>
   <g id="patch_118">
    <path d="M 292.59362 126.684 
L 504.477115 126.684 
L 504.477115 119.124 
L 292.59362 119.124 
z
" clip-path="url(#pe384e53f08)" style="fill: #0000ff"/>
   </g>
   <g id="patch_119">
    <path d="M 306.352288 126.684 
L 496.221914 126.684 
L 496.221914 119.124 
L 306.352288 119.124 
z
" clip-path="url(#pe384e53f08)" style="fill: #0000ff"/>
   </g>
   <g id="patch_120">
    <path d="M 311.855756 126.684 
L 504.477115 126.684 
L 504.477115 119.124 
L 311.855756 119.124 
z
" clip-path="url(#pe384e53f08)" style="fill: #0000ff"/>
   </g>
   <g id="patch_121">
    <path d="M 545.753121 123.1875 
L 606.291262 123.1875 
L 606.291262 122.6205 
L 545.753121 122.6205 
z
" clip-path="url(#pe384e53f08)" style="fill: #0000ff"/>
   </g>
   <g id="patch_122">
    <path d="M 144 104.2875 
L 226.552011 104.2875 
L 226.552011 103.7205 
L 144 103.7205 
z
" clip-path="url(#pe384e53f08)" style="fill: #0000ff"/>
   </g>
   <g id="patch_123">
    <path d="M 229.303745 107.784 
L 509.980583 107.784 
L 509.980583 100.224 
L 229.303745 100.224 
z
" clip-path="url(#pe384e53f08)" style="fill: #0000ff"/>
   </g>
   <g id="patch_124">
    <path d="M 232.055479 107.784 
L 471.456311 107.784 
L 471.456311 100.224 
L 232.055479 100.224 
z
" clip-path="url(#pe384e53f08)" style="fill: #0000ff"/>
   </g>
   <g id="patch_125">
    <path d="M 234.807212 107.784 
L 471.456311 107.784 
L 471.456311 100.224 
L 234.807212 100.224 
z
" clip-path="url(#pe384e53f08)" style="fill: #0000ff"/>
   </g>
   <g id="patch_126">
    <path d="M 240.31068 107.784 
L 471.456311 107.784 
L 471.456311 100.224 
L 240.31068 100.224 
z
" clip-path="url(#pe384e53f08)" style="fill: #0000ff"/>
   </g>
   <g id="patch_127">
    <path d="M 240.31068 107.784 
L 471.456311 107.784 
L 471.456311 100.224 
L 240.31068 100.224 
z
" clip-path="url(#pe384e53f08)" style="fill: #0000ff"/>
   </g>
   <g id="patch_128">
    <path d="M 240.31068 107.784 
L 471.456311 107.784 
L 471.456311 100.224 
L 240.31068 100.224 
z
" clip-path="url(#pe384e53f08)" style="fill: #0000ff"/>
   </g>
   <g id="patch_129">
    <path d="M 240.31068 107.784 
L 471.456311 107.784 
L 471.456311 100.224 
L 240.31068 100.224 
z
" clip-path="url(#pe384e53f08)" style="fill: #0000ff"/>
   </g>
   <g id="patch_130">
    <path d="M 240.31068 107.784 
L 471.456311 107.784 
L 471.456311 100.224 
L 240.31068 100.224 
z
" clip-path="url(#pe384e53f08)" style="fill: #0000ff"/>
   </g>
   <g id="patch_131">
    <path d="M 240.31068 107.784 
L 501.725381 107.784 
L 501.725381 100.224 
L 240.31068 100.224 
z
" clip-path="url(#pe384e53f08)" style="fill: #0000ff"/>
   </g>
   <g id="patch_132">
    <path d="M 243.062413 107.784 
L 471.456311 107.784 
L 471.456311 100.224 
L 243.062413 100.224 
z
" clip-path="url(#pe384e53f08)" style="fill: #0000ff"/>
   </g>
   <g id="patch_133">
    <path d="M 243.062413 107.784 
L 465.952843 107.784 
L 465.952843 100.224 
L 243.062413 100.224 
z
" clip-path="url(#pe384e53f08)" style="fill: #0000ff"/>
   </g>
   <g id="patch_134">
    <path d="M 251.317614 107.784 
L 476.959778 107.784 
L 476.959778 100.224 
L 251.317614 100.224 
z
" clip-path="url(#pe384e53f08)" style="fill: #0000ff"/>
   </g>
   <g id="patch_135">
    <path d="M 254.069348 107.784 
L 463.20111 107.784 
L 463.20111 100.224 
L 254.069348 100.224 
z
" clip-path="url(#pe384e53f08)" style="fill: #0000ff"/>
   </g>
   <g id="patch_136">
    <path d="M 144 85.3875 
L 152.255201 85.3875 
L 152.255201 84.8205 
L 144 84.8205 
z
" clip-path="url(#pe384e53f08)" style="fill: #0000ff"/>
   </g>
   <g id="patch_137">
    <path d="M 155.006935 88.884 
L 498.973648 88.884 
L 498.973648 81.324 
L 155.006935 81.324 
z
" clip-path="url(#pe384e53f08)" style="fill: #0000ff"/>
   </g>
   <g id="patch_138">
    <path d="M 270.57975 88.884 
L 498.973648 88.884 
L 498.973648 81.324 
L 270.57975 81.324 
z
" clip-path="url(#pe384e53f08)" style="fill: #0000ff"/>
   </g>
   <g id="patch_139">
    <path d="M 273.331484 88.884 
L 501.725381 88.884 
L 501.725381 81.324 
L 273.331484 81.324 
z
" clip-path="url(#pe384e53f08)" style="fill: #0000ff"/>
   </g>
   <g id="patch_140">
    <path d="M 273.331484 88.884 
L 501.725381 88.884 
L 501.725381 81.324 
L 273.331484 81.324 
z
" clip-path="url(#pe384e53f08)" style="fill: #0000ff"/>
   </g>
   <g id="patch_141">
    <path d="M 273.331484 88.884 
L 504.477115 88.884 
L 504.477115 81.324 
L 273.331484 81.324 
z
" clip-path="url(#pe384e53f08)" style="fill: #0000ff"/>
   </g>
   <g id="patch_142">
    <path d="M 281.586685 88.884 
L 501.725381 88.884 
L 501.725381 81.324 
L 281.586685 81.324 
z
" clip-path="url(#pe384e53f08)" style="fill: #0000ff"/>
   </g>
   <g id="patch_143">
    <path d="M 281.586685 88.884 
L 498.973648 88.884 
L 498.973648 81.324 
L 281.586685 81.324 
z
" clip-path="url(#pe384e53f08)" style="fill: #0000ff"/>
   </g>
   <g id="patch_144">
    <path d="M 287.090153 88.884 
L 498.973648 88.884 
L 498.973648 81.324 
L 287.090153 81.324 
z
" clip-path="url(#pe384e53f08)" style="fill: #0000ff"/>
   </g>
   <g id="patch_145">
    <path d="M 507.228849 85.3875 
L 551.256588 85.3875 
L 551.256588 84.8205 
L 507.228849 84.8205 
z
" clip-path="url(#pe384e53f08)" style="fill: #0000ff"/>
   </g>
   <g id="patch_146">
    <path d="M 144 66.4875 
L 212.793343 66.4875 
L 212.793343 65.9205 
L 144 65.9205 
z
" clip-path="url(#pe384e53f08)" style="fill: #0000ff"/>
   </g>
   <g id="patch_147">
    <path d="M 215.545076 69.984 
L 592.532594 69.984 
L 592.532594 62.424 
L 215.545076 62.424 
z
" clip-path="url(#pe384e53f08)" style="fill: #0000ff"/>
   </g>
   <g id="patch_148">
    <path d="M 331.117892 69.984 
L 559.511789 69.984 
L 559.511789 62.424 
L 331.117892 62.424 
z
" clip-path="url(#pe384e53f08)" style="fill: #0000ff"/>
   </g>
   <g id="patch_149">
    <path d="M 331.117892 69.984 
L 559.511789 69.984 
L 559.511789 62.424 
L 331.117892 62.424 
z
" clip-path="url(#pe384e53f08)" style="fill: #0000ff"/>
   </g>
   <g id="patch_150">
    <path d="M 331.117892 69.984 
L 559.511789 69.984 
L 559.511789 62.424 
L 331.117892 62.424 
z
" clip-path="url(#pe384e53f08)" style="fill: #0000ff"/>
   </g>
   <g id="patch_151">
    <path d="M 331.117892 69.984 
L 589.78086 69.984 
L 589.78086 62.424 
L 331.117892 62.424 
z
" clip-path="url(#pe384e53f08)" style="fill: #0000ff"/>
   </g>
   <g id="patch_152">
    <path d="M 333.869626 69.984 
L 559.511789 69.984 
L 559.511789 62.424 
L 333.869626 62.424 
z
" clip-path="url(#pe384e53f08)" style="fill: #0000ff"/>
   </g>
   <g id="patch_153">
    <path d="M 333.869626 69.984 
L 507.228849 69.984 
L 507.228849 62.424 
L 333.869626 62.424 
z
" clip-path="url(#pe384e53f08)" style="fill: #0000ff"/>
   </g>
   <g id="patch_154">
    <path d="M 333.869626 69.984 
L 559.511789 69.984 
L 559.511789 62.424 
L 333.869626 62.424 
z
" clip-path="url(#pe384e53f08)" style="fill: #0000ff"/>
   </g>
   <g id="patch_155">
    <path d="M 336.621359 69.984 
L 559.511789 69.984 
L 559.511789 62.424 
L 336.621359 62.424 
z
" clip-path="url(#pe384e53f08)" style="fill: #0000ff"/>
   </g>
   <g id="patch_156">
    <path d="M 342.124827 69.984 
L 493.47018 69.984 
L 493.47018 62.424 
L 342.124827 62.424 
z
" clip-path="url(#pe384e53f08)" style="fill: #0000ff"/>
   </g>
   <g id="patch_157">
    <path d="M 342.124827 69.984 
L 592.532594 69.984 
L 592.532594 62.424 
L 342.124827 62.424 
z
" clip-path="url(#pe384e53f08)" style="fill: #0000ff"/>
   </g>
   <g id="patch_158">
    <path d="M 342.124827 69.984 
L 551.256588 69.984 
L 551.256588 62.424 
L 342.124827 62.424 
z
" clip-path="url(#pe384e53f08)" style="fill: #0000ff"/>
   </g>
   <g id="patch_159">
    <path d="M 344.87656 69.984 
L 556.760055 69.984 
L 556.760055 62.424 
L 344.87656 62.424 
z
" clip-path="url(#pe384e53f08)" style="fill: #0000ff"/>
   </g>
   <g id="patch_160">
    <path d="M 344.87656 69.984 
L 559.511789 69.984 
L 559.511789 62.424 
L 344.87656 62.424 
z
" clip-path="url(#pe384e53f08)" style="fill: #0000ff"/>
   </g>
   <g id="patch_161">
    <path d="M 344.87656 69.984 
L 559.511789 69.984 
L 559.511789 62.424 
L 344.87656 62.424 
z
" clip-path="url(#pe384e53f08)" style="fill: #0000ff"/>
   </g>
   <g id="patch_162">
    <path d="M 344.87656 69.984 
L 559.511789 69.984 
L 559.511789 62.424 
L 344.87656 62.424 
z
" clip-path="url(#pe384e53f08)" style="fill: #0000ff"/>
   </g>
   <g id="patch_163">
    <path d="M 353.131761 69.984 
L 518.235784 69.984 
L 518.235784 62.424 
L 353.131761 62.424 
z
" clip-path="url(#pe384e53f08)" style="fill: #0000ff"/>
   </g>
   <g id="patch_164">
    <path d="M 595.284327 66.4875 
L 598.036061 66.4875 
L 598.036061 65.9205 
L 595.284327 65.9205 
z
" clip-path="url(#pe384e53f08)" style="fill: #0000ff"/>
   </g>
   <g id="patch_165">
    <path d="M 144 47.5875 
L 193.531207 47.5875 
L 193.531207 47.0205 
L 144 47.0205 
z
" clip-path="url(#pe384e53f08)" style="fill: #0000ff"/>
   </g>
   <g id="patch_166">
    <path d="M 196.28294 51.084 
L 600.787795 51.084 
L 600.787795 43.524 
L 196.28294 43.524 
z
" clip-path="url(#pe384e53f08)" style="fill: #0000ff"/>
   </g>
   <g id="patch_167">
    <path d="M 306.352288 51.084 
L 559.511789 51.084 
L 559.511789 43.524 
L 306.352288 43.524 
z
" clip-path="url(#pe384e53f08)" style="fill: #0000ff"/>
   </g>
   <g id="patch_168">
    <path d="M 311.855756 51.084 
L 559.511789 51.084 
L 559.511789 43.524 
L 311.855756 43.524 
z
" clip-path="url(#pe384e53f08)" style="fill: #0000ff"/>
   </g>
   <g id="patch_169">
    <path d="M 311.855756 51.084 
L 559.511789 51.084 
L 559.511789 43.524 
L 311.855756 43.524 
z
" clip-path="url(#pe384e53f08)" style="fill: #0000ff"/>
   </g>
   <g id="patch_170">
    <path d="M 311.855756 51.084 
L 600.787795 51.084 
L 600.787795 43.524 
L 311.855756 43.524 
z
" clip-path="url(#pe384e53f08)" style="fill: #0000ff"/>
   </g>
   <g id="patch_171">
    <path d="M 320.110957 51.084 
L 559.511789 51.084 
L 559.511789 43.524 
L 320.110957 43.524 
z
" clip-path="url(#pe384e53f08)" style="fill: #0000ff"/>
   </g>
   <g id="patch_172">
    <path d="M 320.110957 51.084 
L 556.760055 51.084 
L 556.760055 43.524 
L 320.110957 43.524 
z
" clip-path="url(#pe384e53f08)" style="fill: #0000ff"/>
   </g>
   <g id="patch_173">
    <path d="M 320.110957 51.084 
L 559.511789 51.084 
L 559.511789 43.524 
L 320.110957 43.524 
z
" clip-path="url(#pe384e53f08)" style="fill: #0000ff"/>
   </g>
   <g id="matplotlib.axis_1">
    <g id="xtick_1">
     <g id="line2d_1">
      <defs>
       <path id="m57a184d32d" d="M 0 0 
L 0 3.5 
" style="stroke: #000000; stroke-width: 0.8"/>
      </defs>
      <g>
       <use xlink:href="#m57a184d32d" x="278.834951" y="249.912" style="stroke: #000000; stroke-width: 0.8"/>
      </g>
     </g>
     <g id="text_1">
      <!-- 50 -->
      <g transform="translate(272.472451 264.510438) scale(0.1 -0.1)">
       <defs>
        <path id="DejaVuSans-35" d="M 691 4666 
L 3169 4666 
L 3169 4134 
L 1269 4134 
L 1269 2991 
Q 1406 3038 1543 3061 
Q 1681 3084 1819 3084 
Q 2600 3084 3056 2656 
Q 3513 2228 3513 1497 
Q 3513 744 3044 326 
Q 2575 -91 1722 -91 
Q 1428 -91 1123 -41 
Q 819 9 494 109 
L 494 744 
Q 775 591 1075 516 
Q 1375 441 1709 441 
Q 2250 441 2565 725 
Q 2881 1009 2881 1497 
Q 2881 1984 2565 2268 
Q 2250 2553 1709 2553 
Q 1456 2553 1204 2497 
Q 953 2441 691 2322 
L 691 4666 
z
" transform="scale(0.015625)"/>
        <path id="DejaVuSans-30" d="M 2034 4250 
Q 1547 4250 1301 3770 
Q 1056 3291 1056 2328 
Q 1056 1369 1301 889 
Q 1547 409 2034 409 
Q 2525 409 2770 889 
Q 3016 1369 3016 2328 
Q 3016 3291 2770 3770 
Q 2525 4250 2034 4250 
z
M 2034 4750 
Q 2819 4750 3233 4129 
Q 3647 3509 3647 2328 
Q 3647 1150 3233 529 
Q 2819 -91 2034 -91 
Q 1250 -91 836 529 
Q 422 1150 422 2328 
Q 422 3509 836 4129 
Q 1250 4750 2034 4750 
z
" transform="scale(0.015625)"/>
       </defs>
       <use xlink:href="#DejaVuSans-35"/>
       <use xlink:href="#DejaVuSans-30" x="63.623047"/>
      </g>
     </g>
    </g>
    <g id="xtick_2">
     <g id="line2d_2">
      <g>
       <use xlink:href="#m57a184d32d" x="416.421637" y="249.912" style="stroke: #000000; stroke-width: 0.8"/>
      </g>
     </g>
     <g id="text_2">
      <!-- 100 -->
      <g transform="translate(406.877887 264.510438) scale(0.1 -0.1)">
       <defs>
        <path id="DejaVuSans-31" d="M 794 531 
L 1825 531 
L 1825 4091 
L 703 3866 
L 703 4441 
L 1819 4666 
L 2450 4666 
L 2450 531 
L 3481 531 
L 3481 0 
L 794 0 
L 794 531 
z
" transform="scale(0.015625)"/>
       </defs>
       <use xlink:href="#DejaVuSans-31"/>
       <use xlink:href="#DejaVuSans-30" x="63.623047"/>
       <use xlink:href="#DejaVuSans-30" x="127.246094"/>
      </g>
     </g>
    </g>
    <g id="xtick_3">
     <g id="line2d_3">
      <g>
       <use xlink:href="#m57a184d32d" x="554.008322" y="249.912" style="stroke: #000000; stroke-width: 0.8"/>
      </g>
     </g>
     <g id="text_3">
      <!-- 150 -->
      <g transform="translate(544.464572 264.510438) scale(0.1 -0.1)">
       <use xlink:href="#DejaVuSans-31"/>
       <use xlink:href="#DejaVuSans-35" x="63.623047"/>
       <use xlink:href="#DejaVuSans-30" x="127.246094"/>
      </g>
     </g>
    </g>
    <g id="xtick_4">
     <g id="line2d_4">
      <g>
       <use xlink:href="#m57a184d32d" x="691.595007" y="249.912" style="stroke: #000000; stroke-width: 0.8"/>
      </g>
     </g>
     <g id="text_4">
      <!-- 200 -->
      <g transform="translate(682.051257 264.510438) scale(0.1 -0.1)">
       <defs>
        <path id="DejaVuSans-32" d="M 1228 531 
L 3431 531 
L 3431 0 
L 469 0 
L 469 531 
Q 828 903 1448 1529 
Q 2069 2156 2228 2338 
Q 2531 2678 2651 2914 
Q 2772 3150 2772 3378 
Q 2772 3750 2511 3984 
Q 2250 4219 1831 4219 
Q 1534 4219 1204 4116 
Q 875 4013 500 3803 
L 500 4441 
Q 881 4594 1212 4672 
Q 1544 4750 1819 4750 
Q 2544 4750 2975 4387 
Q 3406 4025 3406 3419 
Q 3406 3131 3298 2873 
Q 3191 2616 2906 2266 
Q 2828 2175 2409 1742 
Q 1991 1309 1228 531 
z
" transform="scale(0.015625)"/>
       </defs>
       <use xlink:href="#DejaVuSans-32"/>
       <use xlink:href="#DejaVuSans-30" x="63.623047"/>
       <use xlink:href="#DejaVuSans-30" x="127.246094"/>
      </g>
     </g>
    </g>
    <g id="xtick_5">
     <g id="line2d_5">
      <g>
       <use xlink:href="#m57a184d32d" x="829.181692" y="249.912" style="stroke: #000000; stroke-width: 0.8"/>
      </g>
     </g>
     <g id="text_5">
      <!-- 250 -->
      <g transform="translate(819.637942 264.510438) scale(0.1 -0.1)">
       <use xlink:href="#DejaVuSans-32"/>
       <use xlink:href="#DejaVuSans-35" x="63.623047"/>
       <use xlink:href="#DejaVuSans-30" x="127.246094"/>
      </g>
     </g>
    </g>
    <g id="xtick_6">
     <g id="line2d_6">
      <g>
       <use xlink:href="#m57a184d32d" x="966.768377" y="249.912" style="stroke: #000000; stroke-width: 0.8"/>
      </g>
     </g>
     <g id="text_6">
      <!-- 300 -->
      <g transform="translate(957.224627 264.510438) scale(0.1 -0.1)">
       <defs>
        <path id="DejaVuSans-33" d="M 2597 2516 
Q 3050 2419 3304 2112 
Q 3559 1806 3559 1356 
Q 3559 666 3084 287 
Q 2609 -91 1734 -91 
Q 1441 -91 1130 -33 
Q 819 25 488 141 
L 488 750 
Q 750 597 1062 519 
Q 1375 441 1716 441 
Q 2309 441 2620 675 
Q 2931 909 2931 1356 
Q 2931 1769 2642 2001 
Q 2353 2234 1838 2234 
L 1294 2234 
L 1294 2753 
L 1863 2753 
Q 2328 2753 2575 2939 
Q 2822 3125 2822 3475 
Q 2822 3834 2567 4026 
Q 2313 4219 1838 4219 
Q 1578 4219 1281 4162 
Q 984 4106 628 3988 
L 628 4550 
Q 988 4650 1302 4700 
Q 1616 4750 1894 4750 
Q 2613 4750 3031 4423 
Q 3450 4097 3450 3541 
Q 3450 3153 3228 2886 
Q 3006 2619 2597 2516 
z
" transform="scale(0.015625)"/>
       </defs>
       <use xlink:href="#DejaVuSans-33"/>
       <use xlink:href="#DejaVuSans-30" x="63.623047"/>
       <use xlink:href="#DejaVuSans-30" x="127.246094"/>
      </g>
     </g>
    </g>
    <g id="text_7">
     <!-- Residual -->
     <g transform="translate(569.284375 278.188562) scale(0.1 -0.1)">
      <defs>
       <path id="DejaVuSans-52" d="M 2841 2188 
Q 3044 2119 3236 1894 
Q 3428 1669 3622 1275 
L 4263 0 
L 3584 0 
L 2988 1197 
Q 2756 1666 2539 1819 
Q 2322 1972 1947 1972 
L 1259 1972 
L 1259 0 
L 628 0 
L 628 4666 
L 2053 4666 
Q 2853 4666 3247 4331 
Q 3641 3997 3641 3322 
Q 3641 2881 3436 2590 
Q 3231 2300 2841 2188 
z
M 1259 4147 
L 1259 2491 
L 2053 2491 
Q 2509 2491 2742 2702 
Q 2975 2913 2975 3322 
Q 2975 3731 2742 3939 
Q 2509 4147 2053 4147 
L 1259 4147 
z
" transform="scale(0.015625)"/>
       <path id="DejaVuSans-65" d="M 3597 1894 
L 3597 1613 
L 953 1613 
Q 991 1019 1311 708 
Q 1631 397 2203 397 
Q 2534 397 2845 478 
Q 3156 559 3463 722 
L 3463 178 
Q 3153 47 2828 -22 
Q 2503 -91 2169 -91 
Q 1331 -91 842 396 
Q 353 884 353 1716 
Q 353 2575 817 3079 
Q 1281 3584 2069 3584 
Q 2775 3584 3186 3129 
Q 3597 2675 3597 1894 
z
M 3022 2063 
Q 3016 2534 2758 2815 
Q 2500 3097 2075 3097 
Q 1594 3097 1305 2825 
Q 1016 2553 972 2059 
L 3022 2063 
z
" transform="scale(0.015625)"/>
       <path id="DejaVuSans-73" d="M 2834 3397 
L 2834 2853 
Q 2591 2978 2328 3040 
Q 2066 3103 1784 3103 
Q 1356 3103 1142 2972 
Q 928 2841 928 2578 
Q 928 2378 1081 2264 
Q 1234 2150 1697 2047 
L 1894 2003 
Q 2506 1872 2764 1633 
Q 3022 1394 3022 966 
Q 3022 478 2636 193 
Q 2250 -91 1575 -91 
Q 1294 -91 989 -36 
Q 684 19 347 128 
L 347 722 
Q 666 556 975 473 
Q 1284 391 1588 391 
Q 1994 391 2212 530 
Q 2431 669 2431 922 
Q 2431 1156 2273 1281 
Q 2116 1406 1581 1522 
L 1381 1569 
Q 847 1681 609 1914 
Q 372 2147 372 2553 
Q 372 3047 722 3315 
Q 1072 3584 1716 3584 
Q 2034 3584 2315 3537 
Q 2597 3491 2834 3397 
z
" transform="scale(0.015625)"/>
       <path id="DejaVuSans-69" d="M 603 3500 
L 1178 3500 
L 1178 0 
L 603 0 
L 603 3500 
z
M 603 4863 
L 1178 4863 
L 1178 4134 
L 603 4134 
L 603 4863 
z
" transform="scale(0.015625)"/>
       <path id="DejaVuSans-64" d="M 2906 2969 
L 2906 4863 
L 3481 4863 
L 3481 0 
L 2906 0 
L 2906 525 
Q 2725 213 2448 61 
Q 2172 -91 1784 -91 
Q 1150 -91 751 415 
Q 353 922 353 1747 
Q 353 2572 751 3078 
Q 1150 3584 1784 3584 
Q 2172 3584 2448 3432 
Q 2725 3281 2906 2969 
z
M 947 1747 
Q 947 1113 1208 752 
Q 1469 391 1925 391 
Q 2381 391 2643 752 
Q 2906 1113 2906 1747 
Q 2906 2381 2643 2742 
Q 2381 3103 1925 3103 
Q 1469 3103 1208 2742 
Q 947 2381 947 1747 
z
" transform="scale(0.015625)"/>
       <path id="DejaVuSans-75" d="M 544 1381 
L 544 3500 
L 1119 3500 
L 1119 1403 
Q 1119 906 1312 657 
Q 1506 409 1894 409 
Q 2359 409 2629 706 
Q 2900 1003 2900 1516 
L 2900 3500 
L 3475 3500 
L 3475 0 
L 2900 0 
L 2900 538 
Q 2691 219 2414 64 
Q 2138 -91 1772 -91 
Q 1169 -91 856 284 
Q 544 659 544 1381 
z
M 1991 3584 
L 1991 3584 
z
" transform="scale(0.015625)"/>
       <path id="DejaVuSans-61" d="M 2194 1759 
Q 1497 1759 1228 1600 
Q 959 1441 959 1056 
Q 959 750 1161 570 
Q 1363 391 1709 391 
Q 2188 391 2477 730 
Q 2766 1069 2766 1631 
L 2766 1759 
L 2194 1759 
z
M 3341 1997 
L 3341 0 
L 2766 0 
L 2766 531 
Q 2569 213 2275 61 
Q 1981 -91 1556 -91 
Q 1019 -91 701 211 
Q 384 513 384 1019 
Q 384 1609 779 1909 
Q 1175 2209 1959 2209 
L 2766 2209 
L 2766 2266 
Q 2766 2663 2505 2880 
Q 2244 3097 1772 3097 
Q 1472 3097 1187 3025 
Q 903 2953 641 2809 
L 641 3341 
Q 956 3463 1253 3523 
Q 1550 3584 1831 3584 
Q 2591 3584 2966 3190 
Q 3341 2797 3341 1997 
z
" transform="scale(0.015625)"/>
       <path id="DejaVuSans-6c" d="M 603 4863 
L 1178 4863 
L 1178 0 
L 603 0 
L 603 4863 
z
" transform="scale(0.015625)"/>
      </defs>
      <use xlink:href="#DejaVuSans-52"/>
      <use xlink:href="#DejaVuSans-65" x="64.982422"/>
      <use xlink:href="#DejaVuSans-73" x="126.505859"/>
      <use xlink:href="#DejaVuSans-69" x="178.605469"/>
      <use xlink:href="#DejaVuSans-64" x="206.388672"/>
      <use xlink:href="#DejaVuSans-75" x="269.865234"/>
      <use xlink:href="#DejaVuSans-61" x="333.244141"/>
      <use xlink:href="#DejaVuSans-6c" x="394.523438"/>
     </g>
    </g>
   </g>
   <g id="matplotlib.axis_2">
    <g id="ytick_1">
     <g id="line2d_7">
      <defs>
       <path id="mae4f6a2d37" d="M 0 0 
L -3.5 0 
" style="stroke: #000000; stroke-width: 0.8"/>
      </defs>
      <g>
       <use xlink:href="#mae4f6a2d37" x="144" y="236.304" style="stroke: #000000; stroke-width: 0.8"/>
      </g>
     </g>
     <g id="text_8">
      <!-- 8.A.172.1.1 -->
      <g transform="translate(79.446875 240.103219) scale(0.1 -0.1)">
       <defs>
        <path id="DejaVuSans-38" d="M 2034 2216 
Q 1584 2216 1326 1975 
Q 1069 1734 1069 1313 
Q 1069 891 1326 650 
Q 1584 409 2034 409 
Q 2484 409 2743 651 
Q 3003 894 3003 1313 
Q 3003 1734 2745 1975 
Q 2488 2216 2034 2216 
z
M 1403 2484 
Q 997 2584 770 2862 
Q 544 3141 544 3541 
Q 544 4100 942 4425 
Q 1341 4750 2034 4750 
Q 2731 4750 3128 4425 
Q 3525 4100 3525 3541 
Q 3525 3141 3298 2862 
Q 3072 2584 2669 2484 
Q 3125 2378 3379 2068 
Q 3634 1759 3634 1313 
Q 3634 634 3220 271 
Q 2806 -91 2034 -91 
Q 1263 -91 848 271 
Q 434 634 434 1313 
Q 434 1759 690 2068 
Q 947 2378 1403 2484 
z
M 1172 3481 
Q 1172 3119 1398 2916 
Q 1625 2713 2034 2713 
Q 2441 2713 2670 2916 
Q 2900 3119 2900 3481 
Q 2900 3844 2670 4047 
Q 2441 4250 2034 4250 
Q 1625 4250 1398 4047 
Q 1172 3844 1172 3481 
z
" transform="scale(0.015625)"/>
        <path id="DejaVuSans-2e" d="M 684 794 
L 1344 794 
L 1344 0 
L 684 0 
L 684 794 
z
" transform="scale(0.015625)"/>
        <path id="DejaVuSans-41" d="M 2188 4044 
L 1331 1722 
L 3047 1722 
L 2188 4044 
z
M 1831 4666 
L 2547 4666 
L 4325 0 
L 3669 0 
L 3244 1197 
L 1141 1197 
L 716 0 
L 50 0 
L 1831 4666 
z
" transform="scale(0.015625)"/>
        <path id="DejaVuSans-37" d="M 525 4666 
L 3525 4666 
L 3525 4397 
L 1831 0 
L 1172 0 
L 2766 4134 
L 525 4134 
L 525 4666 
z
" transform="scale(0.015625)"/>
       </defs>
       <use xlink:href="#DejaVuSans-38"/>
       <use xlink:href="#DejaVuSans-2e" x="63.623047"/>
       <use xlink:href="#DejaVuSans-41" x="95.410156"/>
       <use xlink:href="#DejaVuSans-2e" x="162.068359"/>
       <use xlink:href="#DejaVuSans-31" x="193.855469"/>
       <use xlink:href="#DejaVuSans-37" x="257.478516"/>
       <use xlink:href="#DejaVuSans-32" x="321.101562"/>
       <use xlink:href="#DejaVuSans-2e" x="384.724609"/>
       <use xlink:href="#DejaVuSans-31" x="416.511719"/>
       <use xlink:href="#DejaVuSans-2e" x="480.134766"/>
       <use xlink:href="#DejaVuSans-31" x="511.921875"/>
      </g>
     </g>
    </g>
    <g id="ytick_2">
     <g id="line2d_8">
      <g>
       <use xlink:href="#mae4f6a2d37" x="144" y="217.404" style="stroke: #000000; stroke-width: 0.8"/>
      </g>
     </g>
     <g id="text_9">
      <!-- 8.A.172.1.2 -->
      <g transform="translate(79.446875 221.203219) scale(0.1 -0.1)">
       <use xlink:href="#DejaVuSans-38"/>
       <use xlink:href="#DejaVuSans-2e" x="63.623047"/>
       <use xlink:href="#DejaVuSans-41" x="95.410156"/>
       <use xlink:href="#DejaVuSans-2e" x="162.068359"/>
       <use xlink:href="#DejaVuSans-31" x="193.855469"/>
       <use xlink:href="#DejaVuSans-37" x="257.478516"/>
       <use xlink:href="#DejaVuSans-32" x="321.101562"/>
       <use xlink:href="#DejaVuSans-2e" x="384.724609"/>
       <use xlink:href="#DejaVuSans-31" x="416.511719"/>
       <use xlink:href="#DejaVuSans-2e" x="480.134766"/>
       <use xlink:href="#DejaVuSans-32" x="511.921875"/>
      </g>
     </g>
    </g>
    <g id="ytick_3">
     <g id="line2d_9">
      <g>
       <use xlink:href="#mae4f6a2d37" x="144" y="198.504" style="stroke: #000000; stroke-width: 0.8"/>
      </g>
     </g>
     <g id="text_10">
      <!-- 8.A.172.1.3 -->
      <g transform="translate(79.446875 202.303219) scale(0.1 -0.1)">
       <use xlink:href="#DejaVuSans-38"/>
       <use xlink:href="#DejaVuSans-2e" x="63.623047"/>
       <use xlink:href="#DejaVuSans-41" x="95.410156"/>
       <use xlink:href="#DejaVuSans-2e" x="162.068359"/>
       <use xlink:href="#DejaVuSans-31" x="193.855469"/>
       <use xlink:href="#DejaVuSans-37" x="257.478516"/>
       <use xlink:href="#DejaVuSans-32" x="321.101562"/>
       <use xlink:href="#DejaVuSans-2e" x="384.724609"/>
       <use xlink:href="#DejaVuSans-31" x="416.511719"/>
       <use xlink:href="#DejaVuSans-2e" x="480.134766"/>
       <use xlink:href="#DejaVuSans-33" x="511.921875"/>
      </g>
     </g>
    </g>
    <g id="ytick_4">
     <g id="line2d_10">
      <g>
       <use xlink:href="#mae4f6a2d37" x="144" y="179.604" style="stroke: #000000; stroke-width: 0.8"/>
      </g>
     </g>
     <g id="text_11">
      <!-- 8.A.172.1.4 -->
      <g transform="translate(79.446875 183.403219) scale(0.1 -0.1)">
       <defs>
        <path id="DejaVuSans-34" d="M 2419 4116 
L 825 1625 
L 2419 1625 
L 2419 4116 
z
M 2253 4666 
L 3047 4666 
L 3047 1625 
L 3713 1625 
L 3713 1100 
L 3047 1100 
L 3047 0 
L 2419 0 
L 2419 1100 
L 313 1100 
L 313 1709 
L 2253 4666 
z
" transform="scale(0.015625)"/>
       </defs>
       <use xlink:href="#DejaVuSans-38"/>
       <use xlink:href="#DejaVuSans-2e" x="63.623047"/>
       <use xlink:href="#DejaVuSans-41" x="95.410156"/>
       <use xlink:href="#DejaVuSans-2e" x="162.068359"/>
       <use xlink:href="#DejaVuSans-31" x="193.855469"/>
       <use xlink:href="#DejaVuSans-37" x="257.478516"/>
       <use xlink:href="#DejaVuSans-32" x="321.101562"/>
       <use xlink:href="#DejaVuSans-2e" x="384.724609"/>
       <use xlink:href="#DejaVuSans-31" x="416.511719"/>
       <use xlink:href="#DejaVuSans-2e" x="480.134766"/>
       <use xlink:href="#DejaVuSans-34" x="511.921875"/>
      </g>
     </g>
    </g>
    <g id="ytick_5">
     <g id="line2d_11">
      <g>
       <use xlink:href="#mae4f6a2d37" x="144" y="160.704" style="stroke: #000000; stroke-width: 0.8"/>
      </g>
     </g>
     <g id="text_12">
      <!-- 8.A.172.1.5 -->
      <g transform="translate(79.446875 164.503219) scale(0.1 -0.1)">
       <use xlink:href="#DejaVuSans-38"/>
       <use xlink:href="#DejaVuSans-2e" x="63.623047"/>
       <use xlink:href="#DejaVuSans-41" x="95.410156"/>
       <use xlink:href="#DejaVuSans-2e" x="162.068359"/>
       <use xlink:href="#DejaVuSans-31" x="193.855469"/>
       <use xlink:href="#DejaVuSans-37" x="257.478516"/>
       <use xlink:href="#DejaVuSans-32" x="321.101562"/>
       <use xlink:href="#DejaVuSans-2e" x="384.724609"/>
       <use xlink:href="#DejaVuSans-31" x="416.511719"/>
       <use xlink:href="#DejaVuSans-2e" x="480.134766"/>
       <use xlink:href="#DejaVuSans-35" x="511.921875"/>
      </g>
     </g>
    </g>
    <g id="ytick_6">
     <g id="line2d_12">
      <g>
       <use xlink:href="#mae4f6a2d37" x="144" y="141.804" style="stroke: #000000; stroke-width: 0.8"/>
      </g>
     </g>
     <g id="text_13">
      <!-- 8.A.172.2.1 -->
      <g transform="translate(79.446875 145.603219) scale(0.1 -0.1)">
       <use xlink:href="#DejaVuSans-38"/>
       <use xlink:href="#DejaVuSans-2e" x="63.623047"/>
       <use xlink:href="#DejaVuSans-41" x="95.410156"/>
       <use xlink:href="#DejaVuSans-2e" x="162.068359"/>
       <use xlink:href="#DejaVuSans-31" x="193.855469"/>
       <use xlink:href="#DejaVuSans-37" x="257.478516"/>
       <use xlink:href="#DejaVuSans-32" x="321.101562"/>
       <use xlink:href="#DejaVuSans-2e" x="384.724609"/>
       <use xlink:href="#DejaVuSans-32" x="416.511719"/>
       <use xlink:href="#DejaVuSans-2e" x="480.134766"/>
       <use xlink:href="#DejaVuSans-31" x="511.921875"/>
      </g>
     </g>
    </g>
    <g id="ytick_7">
     <g id="line2d_13">
      <g>
       <use xlink:href="#mae4f6a2d37" x="144" y="122.904" style="stroke: #000000; stroke-width: 0.8"/>
      </g>
     </g>
     <g id="text_14">
      <!-- 8.A.172.2.2 -->
      <g transform="translate(79.446875 126.703219) scale(0.1 -0.1)">
       <use xlink:href="#DejaVuSans-38"/>
       <use xlink:href="#DejaVuSans-2e" x="63.623047"/>
       <use xlink:href="#DejaVuSans-41" x="95.410156"/>
       <use xlink:href="#DejaVuSans-2e" x="162.068359"/>
       <use xlink:href="#DejaVuSans-31" x="193.855469"/>
       <use xlink:href="#DejaVuSans-37" x="257.478516"/>
       <use xlink:href="#DejaVuSans-32" x="321.101562"/>
       <use xlink:href="#DejaVuSans-2e" x="384.724609"/>
       <use xlink:href="#DejaVuSans-32" x="416.511719"/>
       <use xlink:href="#DejaVuSans-2e" x="480.134766"/>
       <use xlink:href="#DejaVuSans-32" x="511.921875"/>
      </g>
     </g>
    </g>
    <g id="ytick_8">
     <g id="line2d_14">
      <g>
       <use xlink:href="#mae4f6a2d37" x="144" y="104.004" style="stroke: #000000; stroke-width: 0.8"/>
      </g>
     </g>
     <g id="text_15">
      <!-- 8.A.172.2.3 -->
      <g transform="translate(79.446875 107.803219) scale(0.1 -0.1)">
       <use xlink:href="#DejaVuSans-38"/>
       <use xlink:href="#DejaVuSans-2e" x="63.623047"/>
       <use xlink:href="#DejaVuSans-41" x="95.410156"/>
       <use xlink:href="#DejaVuSans-2e" x="162.068359"/>
       <use xlink:href="#DejaVuSans-31" x="193.855469"/>
       <use xlink:href="#DejaVuSans-37" x="257.478516"/>
       <use xlink:href="#DejaVuSans-32" x="321.101562"/>
       <use xlink:href="#DejaVuSans-2e" x="384.724609"/>
       <use xlink:href="#DejaVuSans-32" x="416.511719"/>
       <use xlink:href="#DejaVuSans-2e" x="480.134766"/>
       <use xlink:href="#DejaVuSans-33" x="511.921875"/>
      </g>
     </g>
    </g>
    <g id="ytick_9">
     <g id="line2d_15">
      <g>
       <use xlink:href="#mae4f6a2d37" x="144" y="85.104" style="stroke: #000000; stroke-width: 0.8"/>
      </g>
     </g>
     <g id="text_16">
      <!-- 8.A.172.2.4 -->
      <g transform="translate(79.446875 88.903219) scale(0.1 -0.1)">
       <use xlink:href="#DejaVuSans-38"/>
       <use xlink:href="#DejaVuSans-2e" x="63.623047"/>
       <use xlink:href="#DejaVuSans-41" x="95.410156"/>
       <use xlink:href="#DejaVuSans-2e" x="162.068359"/>
       <use xlink:href="#DejaVuSans-31" x="193.855469"/>
       <use xlink:href="#DejaVuSans-37" x="257.478516"/>
       <use xlink:href="#DejaVuSans-32" x="321.101562"/>
       <use xlink:href="#DejaVuSans-2e" x="384.724609"/>
       <use xlink:href="#DejaVuSans-32" x="416.511719"/>
       <use xlink:href="#DejaVuSans-2e" x="480.134766"/>
       <use xlink:href="#DejaVuSans-34" x="511.921875"/>
      </g>
     </g>
    </g>
    <g id="ytick_10">
     <g id="line2d_16">
      <g>
       <use xlink:href="#mae4f6a2d37" x="144" y="66.204" style="stroke: #000000; stroke-width: 0.8"/>
      </g>
     </g>
     <g id="text_17">
      <!-- 8.A.172.2.5 -->
      <g transform="translate(79.446875 70.003219) scale(0.1 -0.1)">
       <use xlink:href="#DejaVuSans-38"/>
       <use xlink:href="#DejaVuSans-2e" x="63.623047"/>
       <use xlink:href="#DejaVuSans-41" x="95.410156"/>
       <use xlink:href="#DejaVuSans-2e" x="162.068359"/>
       <use xlink:href="#DejaVuSans-31" x="193.855469"/>
       <use xlink:href="#DejaVuSans-37" x="257.478516"/>
       <use xlink:href="#DejaVuSans-32" x="321.101562"/>
       <use xlink:href="#DejaVuSans-2e" x="384.724609"/>
       <use xlink:href="#DejaVuSans-32" x="416.511719"/>
       <use xlink:href="#DejaVuSans-2e" x="480.134766"/>
       <use xlink:href="#DejaVuSans-35" x="511.921875"/>
      </g>
     </g>
    </g>
    <g id="ytick_11">
     <g id="line2d_17">
      <g>
       <use xlink:href="#mae4f6a2d37" x="144" y="47.304" style="stroke: #000000; stroke-width: 0.8"/>
      </g>
     </g>
     <g id="text_18">
      <!-- 8.A.172.2.6 -->
      <g transform="translate(79.446875 51.103219) scale(0.1 -0.1)">
       <defs>
        <path id="DejaVuSans-36" d="M 2113 2584 
Q 1688 2584 1439 2293 
Q 1191 2003 1191 1497 
Q 1191 994 1439 701 
Q 1688 409 2113 409 
Q 2538 409 2786 701 
Q 3034 994 3034 1497 
Q 3034 2003 2786 2293 
Q 2538 2584 2113 2584 
z
M 3366 4563 
L 3366 3988 
Q 3128 4100 2886 4159 
Q 2644 4219 2406 4219 
Q 1781 4219 1451 3797 
Q 1122 3375 1075 2522 
Q 1259 2794 1537 2939 
Q 1816 3084 2150 3084 
Q 2853 3084 3261 2657 
Q 3669 2231 3669 1497 
Q 3669 778 3244 343 
Q 2819 -91 2113 -91 
Q 1303 -91 875 529 
Q 447 1150 447 2328 
Q 447 3434 972 4092 
Q 1497 4750 2381 4750 
Q 2619 4750 2861 4703 
Q 3103 4656 3366 4563 
z
" transform="scale(0.015625)"/>
       </defs>
       <use xlink:href="#DejaVuSans-38"/>
       <use xlink:href="#DejaVuSans-2e" x="63.623047"/>
       <use xlink:href="#DejaVuSans-41" x="95.410156"/>
       <use xlink:href="#DejaVuSans-2e" x="162.068359"/>
       <use xlink:href="#DejaVuSans-31" x="193.855469"/>
       <use xlink:href="#DejaVuSans-37" x="257.478516"/>
       <use xlink:href="#DejaVuSans-32" x="321.101562"/>
       <use xlink:href="#DejaVuSans-2e" x="384.724609"/>
       <use xlink:href="#DejaVuSans-32" x="416.511719"/>
       <use xlink:href="#DejaVuSans-2e" x="480.134766"/>
       <use xlink:href="#DejaVuSans-36" x="511.921875"/>
      </g>
     </g>
    </g>
   </g>
   <g id="patch_174">
    <path d="M 144 249.912 
L 144 33.696 
" style="fill: none; stroke: #000000; stroke-width: 0.8; stroke-linejoin: miter; stroke-linecap: square"/>
   </g>
   <g id="patch_175">
    <path d="M 1036.8 249.912 
L 1036.8 33.696 
" style="fill: none; stroke: #000000; stroke-width: 0.8; stroke-linejoin: miter; stroke-linecap: square"/>
   </g>
   <g id="patch_176">
    <path d="M 144 249.912 
L 1036.8 249.912 
" style="fill: none; stroke: #000000; stroke-width: 0.8; stroke-linejoin: miter; stroke-linecap: square"/>
   </g>
   <g id="patch_177">
    <path d="M 144 33.696 
L 1036.8 33.696 
" style="fill: none; stroke: #000000; stroke-width: 0.8; stroke-linejoin: miter; stroke-linecap: square"/>
   </g>
   <g id="text_19">
    <!-- 8.A.172 Summary -->
    <g transform="translate(536.415 27.696) scale(0.12 -0.12)">
     <defs>
      <path id="DejaVuSans-20" transform="scale(0.015625)"/>
      <path id="DejaVuSans-53" d="M 3425 4513 
L 3425 3897 
Q 3066 4069 2747 4153 
Q 2428 4238 2131 4238 
Q 1616 4238 1336 4038 
Q 1056 3838 1056 3469 
Q 1056 3159 1242 3001 
Q 1428 2844 1947 2747 
L 2328 2669 
Q 3034 2534 3370 2195 
Q 3706 1856 3706 1288 
Q 3706 609 3251 259 
Q 2797 -91 1919 -91 
Q 1588 -91 1214 -16 
Q 841 59 441 206 
L 441 856 
Q 825 641 1194 531 
Q 1563 422 1919 422 
Q 2459 422 2753 634 
Q 3047 847 3047 1241 
Q 3047 1584 2836 1778 
Q 2625 1972 2144 2069 
L 1759 2144 
Q 1053 2284 737 2584 
Q 422 2884 422 3419 
Q 422 4038 858 4394 
Q 1294 4750 2059 4750 
Q 2388 4750 2728 4690 
Q 3069 4631 3425 4513 
z
" transform="scale(0.015625)"/>
      <path id="DejaVuSans-6d" d="M 3328 2828 
Q 3544 3216 3844 3400 
Q 4144 3584 4550 3584 
Q 5097 3584 5394 3201 
Q 5691 2819 5691 2113 
L 5691 0 
L 5113 0 
L 5113 2094 
Q 5113 2597 4934 2840 
Q 4756 3084 4391 3084 
Q 3944 3084 3684 2787 
Q 3425 2491 3425 1978 
L 3425 0 
L 2847 0 
L 2847 2094 
Q 2847 2600 2669 2842 
Q 2491 3084 2119 3084 
Q 1678 3084 1418 2786 
Q 1159 2488 1159 1978 
L 1159 0 
L 581 0 
L 581 3500 
L 1159 3500 
L 1159 2956 
Q 1356 3278 1631 3431 
Q 1906 3584 2284 3584 
Q 2666 3584 2933 3390 
Q 3200 3197 3328 2828 
z
" transform="scale(0.015625)"/>
      <path id="DejaVuSans-72" d="M 2631 2963 
Q 2534 3019 2420 3045 
Q 2306 3072 2169 3072 
Q 1681 3072 1420 2755 
Q 1159 2438 1159 1844 
L 1159 0 
L 581 0 
L 581 3500 
L 1159 3500 
L 1159 2956 
Q 1341 3275 1631 3429 
Q 1922 3584 2338 3584 
Q 2397 3584 2469 3576 
Q 2541 3569 2628 3553 
L 2631 2963 
z
" transform="scale(0.015625)"/>
      <path id="DejaVuSans-79" d="M 2059 -325 
Q 1816 -950 1584 -1140 
Q 1353 -1331 966 -1331 
L 506 -1331 
L 506 -850 
L 844 -850 
Q 1081 -850 1212 -737 
Q 1344 -625 1503 -206 
L 1606 56 
L 191 3500 
L 800 3500 
L 1894 763 
L 2988 3500 
L 3597 3500 
L 2059 -325 
z
" transform="scale(0.015625)"/>
     </defs>
     <use xlink:href="#DejaVuSans-38"/>
     <use xlink:href="#DejaVuSans-2e" x="63.623047"/>
     <use xlink:href="#DejaVuSans-41" x="95.410156"/>
     <use xlink:href="#DejaVuSans-2e" x="162.068359"/>
     <use xlink:href="#DejaVuSans-31" x="193.855469"/>
     <use xlink:href="#DejaVuSans-37" x="257.478516"/>
     <use xlink:href="#DejaVuSans-32" x="321.101562"/>
     <use xlink:href="#DejaVuSans-20" x="384.724609"/>
     <use xlink:href="#DejaVuSans-53" x="416.511719"/>
     <use xlink:href="#DejaVuSans-75" x="479.988281"/>
     <use xlink:href="#DejaVuSans-6d" x="543.367188"/>
     <use xlink:href="#DejaVuSans-6d" x="640.779297"/>
     <use xlink:href="#DejaVuSans-61" x="738.191406"/>
     <use xlink:href="#DejaVuSans-72" x="799.470703"/>
     <use xlink:href="#DejaVuSans-79" x="840.583984"/>
    </g>
   </g>
  </g>
 </g>
 <defs>
  <clipPath id="pe384e53f08">
   <rect x="144" y="33.696" width="892.8" height="216.216"/>
  </clipPath>
 </defs>
</svg>
