<?xml version="1.0" encoding="utf-8" standalone="no"?>
<!DOCTYPE svg PUBLIC "-//W3C//DTD SVG 1.1//EN"
  "http://www.w3.org/Graphics/SVG/1.1/DTD/svg11.dtd">
<svg xmlns:xlink="http://www.w3.org/1999/xlink" width="1152pt" height="475.2pt" viewBox="0 0 1152 475.2" xmlns="http://www.w3.org/2000/svg" version="1.1">
 <metadata>
  <rdf:RDF xmlns:dc="http://purl.org/dc/elements/1.1/" xmlns:cc="http://creativecommons.org/ns#" xmlns:rdf="http://www.w3.org/1999/02/22-rdf-syntax-ns#">
   <cc:Work>
    <dc:type rdf:resource="http://purl.org/dc/dcmitype/StillImage"/>
    <dc:date>2024-10-25T07:54:58.209856</dc:date>
    <dc:format>image/svg+xml</dc:format>
    <dc:creator>
     <cc:Agent>
      <dc:title>Matplotlib v3.9.2, https://matplotlib.org/</dc:title>
     </cc:Agent>
    </dc:creator>
   </cc:Work>
  </rdf:RDF>
 </metadata>
 <defs>
  <style type="text/css">*{stroke-linejoin: round; stroke-linecap: butt}</style>
 </defs>
 <g id="figure_1">
  <g id="patch_1">
   <path d="M 0 475.2 
L 1152 475.2 
L 1152 0 
L 0 0 
z
" style="fill: #ffffff"/>
  </g>
  <g id="axes_1">
   <g id="patch_2">
    <path d="M 144 422.928 
L 1036.8 422.928 
L 1036.8 57.024 
L 144 57.024 
z
" style="fill: #ffffff"/>
   </g>
   <g id="patch_3">
    <path d="M 144 406.296 
L 723.26645 406.296 
L 723.26645 399.437443 
L 144 399.437443 
z
" clip-path="url(#pbe41824804)" style="fill: #0000ff"/>
   </g>
   <g id="patch_4">
    <path d="M 155.912935 406.296 
L 665.190893 406.296 
L 665.190893 399.437443 
L 155.912935 399.437443 
z
" clip-path="url(#pbe41824804)" style="fill: #0000ff"/>
   </g>
   <g id="patch_5">
    <path d="M 172.29322 406.296 
L 572.865649 406.296 
L 572.865649 399.437443 
L 172.29322 399.437443 
z
" clip-path="url(#pbe41824804)" style="fill: #0000ff"/>
   </g>
   <g id="patch_6">
    <path d="M 172.29322 406.296 
L 656.256192 406.296 
L 656.256192 399.437443 
L 172.29322 399.437443 
z
" clip-path="url(#pbe41824804)" style="fill: #0000ff"/>
   </g>
   <g id="patch_7">
    <path d="M 188.673505 406.296 
L 648.810608 406.296 
L 648.810608 399.437443 
L 188.673505 399.437443 
z
" clip-path="url(#pbe41824804)" style="fill: #0000ff"/>
   </g>
   <g id="patch_8">
    <path d="M 190.162622 406.296 
L 656.256192 406.296 
L 656.256192 399.437443 
L 190.162622 399.437443 
z
" clip-path="url(#pbe41824804)" style="fill: #0000ff"/>
   </g>
   <g id="patch_9">
    <path d="M 212.499375 406.296 
L 659.234426 406.296 
L 659.234426 399.437443 
L 212.499375 399.437443 
z
" clip-path="url(#pbe41824804)" style="fill: #0000ff"/>
   </g>
   <g id="patch_10">
    <path d="M 219.944959 406.296 
L 639.875907 406.296 
L 639.875907 399.437443 
L 219.944959 399.437443 
z
" clip-path="url(#pbe41824804)" style="fill: #0000ff"/>
   </g>
   <g id="patch_11">
    <path d="M 227.390543 406.296 
L 578.822117 406.296 
L 578.822117 399.437443 
L 227.390543 399.437443 
z
" clip-path="url(#pbe41824804)" style="fill: #0000ff"/>
   </g>
   <g id="patch_12">
    <path d="M 227.390543 406.296 
L 572.865649 406.296 
L 572.865649 399.437443 
L 227.390543 399.437443 
z
" clip-path="url(#pbe41824804)" style="fill: #0000ff"/>
   </g>
   <g id="patch_13">
    <path d="M 228.87966 406.296 
L 550.528897 406.296 
L 550.528897 399.437443 
L 228.87966 399.437443 
z
" clip-path="url(#pbe41824804)" style="fill: #0000ff"/>
   </g>
   <g id="patch_14">
    <path d="M 231.857893 406.296 
L 304.824618 406.296 
L 304.824618 399.437443 
L 231.857893 399.437443 
z
" clip-path="url(#pbe41824804)" style="fill: #0000ff"/>
   </g>
   <g id="patch_15">
    <path d="M 236.325244 406.296 
L 496.920691 406.296 
L 496.920691 399.437443 
L 236.325244 399.437443 
z
" clip-path="url(#pbe41824804)" style="fill: #0000ff"/>
   </g>
   <g id="patch_16">
    <path d="M 240.792594 406.296 
L 572.865649 406.296 
L 572.865649 399.437443 
L 240.792594 399.437443 
z
" clip-path="url(#pbe41824804)" style="fill: #0000ff"/>
   </g>
   <g id="patch_17">
    <path d="M 458.203653 406.296 
L 572.865649 406.296 
L 572.865649 399.437443 
L 458.203653 399.437443 
z
" clip-path="url(#pbe41824804)" style="fill: #0000ff"/>
   </g>
   <g id="patch_18">
    <path d="M 465.649237 406.296 
L 645.832374 406.296 
L 645.832374 399.437443 
L 465.649237 399.437443 
z
" clip-path="url(#pbe41824804)" style="fill: #0000ff"/>
   </g>
   <g id="patch_19">
    <path d="M 144 385.977526 
L 218.455842 385.977526 
L 218.455842 385.463134 
L 144 385.463134 
z
" clip-path="url(#pbe41824804)" style="fill: #0000ff"/>
   </g>
   <g id="patch_20">
    <path d="M 219.944959 389.149608 
L 727.7338 389.149608 
L 727.7338 382.291052 
L 219.944959 382.291052 
z
" clip-path="url(#pbe41824804)" style="fill: #0000ff"/>
   </g>
   <g id="patch_21">
    <path d="M 219.944959 389.149608 
L 675.614711 389.149608 
L 675.614711 382.291052 
L 219.944959 382.291052 
z
" clip-path="url(#pbe41824804)" style="fill: #0000ff"/>
   </g>
   <g id="patch_22">
    <path d="M 219.944959 389.149608 
L 589.245934 389.149608 
L 589.245934 382.291052 
L 219.944959 382.291052 
z
" clip-path="url(#pbe41824804)" style="fill: #0000ff"/>
   </g>
   <g id="patch_23">
    <path d="M 219.944959 389.149608 
L 668.169127 389.149608 
L 668.169127 382.291052 
L 219.944959 382.291052 
z
" clip-path="url(#pbe41824804)" style="fill: #0000ff"/>
   </g>
   <g id="patch_24">
    <path d="M 227.390543 389.149608 
L 671.147361 389.149608 
L 671.147361 382.291052 
L 227.390543 382.291052 
z
" clip-path="url(#pbe41824804)" style="fill: #0000ff"/>
   </g>
   <g id="patch_25">
    <path d="M 228.87966 389.149608 
L 675.614711 389.149608 
L 675.614711 382.291052 
L 228.87966 382.291052 
z
" clip-path="url(#pbe41824804)" style="fill: #0000ff"/>
   </g>
   <g id="patch_26">
    <path d="M 230.368777 389.149608 
L 687.527646 389.149608 
L 687.527646 382.291052 
L 230.368777 382.291052 
z
" clip-path="url(#pbe41824804)" style="fill: #0000ff"/>
   </g>
   <g id="patch_27">
    <path d="M 237.814361 389.149608 
L 562.441831 389.149608 
L 562.441831 382.291052 
L 237.814361 382.291052 
z
" clip-path="url(#pbe41824804)" style="fill: #0000ff"/>
   </g>
   <g id="patch_28">
    <path d="M 237.814361 389.149608 
L 577.333 389.149608 
L 577.333 382.291052 
L 237.814361 382.291052 
z
" clip-path="url(#pbe41824804)" style="fill: #0000ff"/>
   </g>
   <g id="patch_29">
    <path d="M 237.814361 389.149608 
L 584.778584 389.149608 
L 584.778584 382.291052 
L 237.814361 382.291052 
z
" clip-path="url(#pbe41824804)" style="fill: #0000ff"/>
   </g>
   <g id="patch_30">
    <path d="M 239.303478 389.149608 
L 559.463598 389.149608 
L 559.463598 382.291052 
L 239.303478 382.291052 
z
" clip-path="url(#pbe41824804)" style="fill: #0000ff"/>
   </g>
   <g id="patch_31">
    <path d="M 240.792594 389.149608 
L 565.420065 389.149608 
L 565.420065 382.291052 
L 240.792594 382.291052 
z
" clip-path="url(#pbe41824804)" style="fill: #0000ff"/>
   </g>
   <g id="patch_32">
    <path d="M 242.281711 389.149608 
L 313.759319 389.149608 
L 313.759319 382.291052 
L 242.281711 382.291052 
z
" clip-path="url(#pbe41824804)" style="fill: #0000ff"/>
   </g>
   <g id="patch_33">
    <path d="M 272.064048 389.149608 
L 565.420065 389.149608 
L 565.420065 382.291052 
L 272.064048 382.291052 
z
" clip-path="url(#pbe41824804)" style="fill: #0000ff"/>
   </g>
   <g id="patch_34">
    <path d="M 276.531399 389.149608 
L 511.811859 389.149608 
L 511.811859 382.291052 
L 276.531399 382.291052 
z
" clip-path="url(#pbe41824804)" style="fill: #0000ff"/>
   </g>
   <g id="patch_35">
    <path d="M 429.910433 389.149608 
L 586.267701 389.149608 
L 586.267701 382.291052 
L 429.910433 382.291052 
z
" clip-path="url(#pbe41824804)" style="fill: #0000ff"/>
   </g>
   <g id="patch_36">
    <path d="M 476.073055 389.149608 
L 520.74656 389.149608 
L 520.74656 382.291052 
L 476.073055 382.291052 
z
" clip-path="url(#pbe41824804)" style="fill: #0000ff"/>
   </g>
   <g id="patch_37">
    <path d="M 479.051288 389.149608 
L 610.09357 389.149608 
L 610.09357 382.291052 
L 479.051288 382.291052 
z
" clip-path="url(#pbe41824804)" style="fill: #0000ff"/>
   </g>
   <g id="patch_38">
    <path d="M 729.222917 385.977526 
L 729.222917 385.977526 
L 729.222917 385.463134 
L 729.222917 385.463134 
z
" clip-path="url(#pbe41824804)" style="fill: #0000ff"/>
   </g>
   <g id="patch_39">
    <path d="M 144 372.003216 
L 653.277958 372.003216 
L 653.277958 365.14466 
L 144 365.14466 
z
" clip-path="url(#pbe41824804)" style="fill: #0000ff"/>
   </g>
   <g id="patch_40">
    <path d="M 157.402052 372.003216 
L 648.810608 372.003216 
L 648.810608 365.14466 
L 157.402052 365.14466 
z
" clip-path="url(#pbe41824804)" style="fill: #0000ff"/>
   </g>
   <g id="patch_41">
    <path d="M 184.206155 372.003216 
L 565.420065 372.003216 
L 565.420065 365.14466 
L 184.206155 365.14466 
z
" clip-path="url(#pbe41824804)" style="fill: #0000ff"/>
   </g>
   <g id="patch_42">
    <path d="M 184.206155 372.003216 
L 645.832374 372.003216 
L 645.832374 365.14466 
L 184.206155 365.14466 
z
" clip-path="url(#pbe41824804)" style="fill: #0000ff"/>
   </g>
   <g id="patch_43">
    <path d="M 194.629972 372.003216 
L 575.843883 372.003216 
L 575.843883 365.14466 
L 194.629972 365.14466 
z
" clip-path="url(#pbe41824804)" style="fill: #0000ff"/>
   </g>
   <g id="patch_44">
    <path d="M 196.119089 372.003216 
L 642.854141 372.003216 
L 642.854141 365.14466 
L 196.119089 365.14466 
z
" clip-path="url(#pbe41824804)" style="fill: #0000ff"/>
   </g>
   <g id="patch_45">
    <path d="M 197.608206 372.003216 
L 467.138354 372.003216 
L 467.138354 365.14466 
L 197.608206 365.14466 
z
" clip-path="url(#pbe41824804)" style="fill: #0000ff"/>
   </g>
   <g id="patch_46">
    <path d="M 197.608206 372.003216 
L 468.627471 372.003216 
L 468.627471 365.14466 
L 197.608206 365.14466 
z
" clip-path="url(#pbe41824804)" style="fill: #0000ff"/>
   </g>
   <g id="patch_47">
    <path d="M 200.58644 372.003216 
L 650.299725 372.003216 
L 650.299725 365.14466 
L 200.58644 365.14466 
z
" clip-path="url(#pbe41824804)" style="fill: #0000ff"/>
   </g>
   <g id="patch_48">
    <path d="M 209.521141 372.003216 
L 487.985989 372.003216 
L 487.985989 365.14466 
L 209.521141 365.14466 
z
" clip-path="url(#pbe41824804)" style="fill: #0000ff"/>
   </g>
   <g id="patch_49">
    <path d="M 212.499375 372.003216 
L 565.420065 372.003216 
L 565.420065 365.14466 
L 212.499375 365.14466 
z
" clip-path="url(#pbe41824804)" style="fill: #0000ff"/>
   </g>
   <g id="patch_50">
    <path d="M 212.499375 372.003216 
L 285.4661 372.003216 
L 285.4661 365.14466 
L 212.499375 365.14466 
z
" clip-path="url(#pbe41824804)" style="fill: #0000ff"/>
   </g>
   <g id="patch_51">
    <path d="M 213.988491 372.003216 
L 566.909182 372.003216 
L 566.909182 365.14466 
L 213.988491 365.14466 
z
" clip-path="url(#pbe41824804)" style="fill: #0000ff"/>
   </g>
   <g id="patch_52">
    <path d="M 216.966725 372.003216 
L 479.051288 372.003216 
L 479.051288 365.14466 
L 216.966725 365.14466 
z
" clip-path="url(#pbe41824804)" style="fill: #0000ff"/>
   </g>
   <g id="patch_53">
    <path d="M 224.412309 372.003216 
L 560.952715 372.003216 
L 560.952715 365.14466 
L 224.412309 365.14466 
z
" clip-path="url(#pbe41824804)" style="fill: #0000ff"/>
   </g>
   <g id="patch_54">
    <path d="M 228.87966 372.003216 
L 566.909182 372.003216 
L 566.909182 365.14466 
L 228.87966 365.14466 
z
" clip-path="url(#pbe41824804)" style="fill: #0000ff"/>
   </g>
   <g id="patch_55">
    <path d="M 243.770828 372.003216 
L 571.376532 372.003216 
L 571.376532 365.14466 
L 243.770828 365.14466 
z
" clip-path="url(#pbe41824804)" style="fill: #0000ff"/>
   </g>
   <g id="patch_56">
    <path d="M 255.683763 372.003216 
L 407.57368 372.003216 
L 407.57368 365.14466 
L 255.683763 365.14466 
z
" clip-path="url(#pbe41824804)" style="fill: #0000ff"/>
   </g>
   <g id="patch_57">
    <path d="M 455.225419 372.003216 
L 578.822117 372.003216 
L 578.822117 365.14466 
L 455.225419 365.14466 
z
" clip-path="url(#pbe41824804)" style="fill: #0000ff"/>
   </g>
   <g id="patch_58">
    <path d="M 455.225419 372.003216 
L 565.420065 372.003216 
L 565.420065 365.14466 
L 455.225419 365.14466 
z
" clip-path="url(#pbe41824804)" style="fill: #0000ff"/>
   </g>
   <g id="patch_59">
    <path d="M 144 351.684742 
L 145.489117 351.684742 
L 145.489117 351.170351 
L 144 351.170351 
z
" clip-path="url(#pbe41824804)" style="fill: #0000ff"/>
   </g>
   <g id="patch_60">
    <path d="M 146.978234 354.856825 
L 623.495622 354.856825 
L 623.495622 347.998268 
L 146.978234 347.998268 
z
" clip-path="url(#pbe41824804)" style="fill: #0000ff"/>
   </g>
   <g id="patch_61">
    <path d="M 149.956467 354.856825 
L 672.636477 354.856825 
L 672.636477 347.998268 
L 149.956467 347.998268 
z
" clip-path="url(#pbe41824804)" style="fill: #0000ff"/>
   </g>
   <g id="patch_62">
    <path d="M 173.782337 354.856825 
L 590.735051 354.856825 
L 590.735051 347.998268 
L 173.782337 347.998268 
z
" clip-path="url(#pbe41824804)" style="fill: #0000ff"/>
   </g>
   <g id="patch_63">
    <path d="M 215.477608 354.856825 
L 592.224168 354.856825 
L 592.224168 347.998268 
L 215.477608 347.998268 
z
" clip-path="url(#pbe41824804)" style="fill: #0000ff"/>
   </g>
   <g id="patch_64">
    <path d="M 219.944959 354.856825 
L 499.898924 354.856825 
L 499.898924 347.998268 
L 219.944959 347.998268 
z
" clip-path="url(#pbe41824804)" style="fill: #0000ff"/>
   </g>
   <g id="patch_65">
    <path d="M 221.434076 354.856825 
L 596.691519 354.856825 
L 596.691519 347.998268 
L 221.434076 347.998268 
z
" clip-path="url(#pbe41824804)" style="fill: #0000ff"/>
   </g>
   <g id="patch_66">
    <path d="M 231.857893 354.856825 
L 587.756818 354.856825 
L 587.756818 347.998268 
L 231.857893 347.998268 
z
" clip-path="url(#pbe41824804)" style="fill: #0000ff"/>
   </g>
   <g id="patch_67">
    <path d="M 236.325244 354.856825 
L 306.313735 354.856825 
L 306.313735 347.998268 
L 236.325244 347.998268 
z
" clip-path="url(#pbe41824804)" style="fill: #0000ff"/>
   </g>
   <g id="patch_68">
    <path d="M 237.814361 354.856825 
L 584.778584 354.856825 
L 584.778584 347.998268 
L 237.814361 347.998268 
z
" clip-path="url(#pbe41824804)" style="fill: #0000ff"/>
   </g>
   <g id="patch_69">
    <path d="M 240.792594 354.856825 
L 687.527646 354.856825 
L 687.527646 347.998268 
L 240.792594 347.998268 
z
" clip-path="url(#pbe41824804)" style="fill: #0000ff"/>
   </g>
   <g id="patch_70">
    <path d="M 240.792594 354.856825 
L 467.138354 354.856825 
L 467.138354 347.998268 
L 240.792594 347.998268 
z
" clip-path="url(#pbe41824804)" style="fill: #0000ff"/>
   </g>
   <g id="patch_71">
    <path d="M 267.596698 354.856825 
L 590.735051 354.856825 
L 590.735051 347.998268 
L 267.596698 347.998268 
z
" clip-path="url(#pbe41824804)" style="fill: #0000ff"/>
   </g>
   <g id="patch_72">
    <path d="M 269.085814 354.856825 
L 587.756818 354.856825 
L 587.756818 347.998268 
L 269.085814 347.998268 
z
" clip-path="url(#pbe41824804)" style="fill: #0000ff"/>
   </g>
   <g id="patch_73">
    <path d="M 391.193395 354.856825 
L 590.735051 354.856825 
L 590.735051 347.998268 
L 391.193395 347.998268 
z
" clip-path="url(#pbe41824804)" style="fill: #0000ff"/>
   </g>
   <g id="patch_74">
    <path d="M 689.016763 351.684742 
L 705.397048 351.684742 
L 705.397048 351.170351 
L 689.016763 351.170351 
z
" clip-path="url(#pbe41824804)" style="fill: #0000ff"/>
   </g>
   <g id="patch_75">
    <path d="M 144 334.538351 
L 144 334.538351 
L 144 334.023959 
L 144 334.023959 
z
" clip-path="url(#pbe41824804)" style="fill: #0000ff"/>
   </g>
   <g id="patch_76">
    <path d="M 145.489117 337.710433 
L 703.907931 337.710433 
L 703.907931 330.851876 
L 145.489117 330.851876 
z
" clip-path="url(#pbe41824804)" style="fill: #0000ff"/>
   </g>
   <g id="patch_77">
    <path d="M 227.390543 337.710433 
L 715.820866 337.710433 
L 715.820866 330.851876 
L 227.390543 330.851876 
z
" clip-path="url(#pbe41824804)" style="fill: #0000ff"/>
   </g>
   <g id="patch_78">
    <path d="M 237.814361 337.710433 
L 708.375281 337.710433 
L 708.375281 330.851876 
L 237.814361 330.851876 
z
" clip-path="url(#pbe41824804)" style="fill: #0000ff"/>
   </g>
   <g id="patch_79">
    <path d="M 258.661996 337.710433 
L 714.331749 337.710433 
L 714.331749 330.851876 
L 258.661996 330.851876 
z
" clip-path="url(#pbe41824804)" style="fill: #0000ff"/>
   </g>
   <g id="patch_80">
    <path d="M 260.151113 337.710433 
L 700.929697 337.710433 
L 700.929697 330.851876 
L 260.151113 330.851876 
z
" clip-path="url(#pbe41824804)" style="fill: #0000ff"/>
   </g>
   <g id="patch_81">
    <path d="M 261.64023 337.710433 
L 703.907931 337.710433 
L 703.907931 330.851876 
L 261.64023 330.851876 
z
" clip-path="url(#pbe41824804)" style="fill: #0000ff"/>
   </g>
   <g id="patch_82">
    <path d="M 270.574931 337.710433 
L 595.202402 337.710433 
L 595.202402 330.851876 
L 270.574931 330.851876 
z
" clip-path="url(#pbe41824804)" style="fill: #0000ff"/>
   </g>
   <g id="patch_83">
    <path d="M 276.531399 337.710433 
L 729.222917 337.710433 
L 729.222917 330.851876 
L 276.531399 330.851876 
z
" clip-path="url(#pbe41824804)" style="fill: #0000ff"/>
   </g>
   <g id="patch_84">
    <path d="M 282.487866 337.710433 
L 510.322742 337.710433 
L 510.322742 330.851876 
L 282.487866 330.851876 
z
" clip-path="url(#pbe41824804)" style="fill: #0000ff"/>
   </g>
   <g id="patch_85">
    <path d="M 292.911684 337.710433 
L 537.126845 337.710433 
L 537.126845 330.851876 
L 292.911684 330.851876 
z
" clip-path="url(#pbe41824804)" style="fill: #0000ff"/>
   </g>
   <g id="patch_86">
    <path d="M 300.357268 337.710433 
L 537.126845 337.710433 
L 537.126845 330.851876 
L 300.357268 330.851876 
z
" clip-path="url(#pbe41824804)" style="fill: #0000ff"/>
   </g>
   <g id="patch_87">
    <path d="M 303.335502 337.710433 
L 703.907931 337.710433 
L 703.907931 330.851876 
L 303.335502 330.851876 
z
" clip-path="url(#pbe41824804)" style="fill: #0000ff"/>
   </g>
   <g id="patch_88">
    <path d="M 319.715787 337.710433 
L 714.331749 337.710433 
L 714.331749 330.851876 
L 319.715787 330.851876 
z
" clip-path="url(#pbe41824804)" style="fill: #0000ff"/>
   </g>
   <g id="patch_89">
    <path d="M 345.030773 337.710433 
L 559.463598 337.710433 
L 559.463598 330.851876 
L 345.030773 330.851876 
z
" clip-path="url(#pbe41824804)" style="fill: #0000ff"/>
   </g>
   <g id="patch_90">
    <path d="M 453.736302 337.710433 
L 581.80035 337.710433 
L 581.80035 330.851876 
L 453.736302 330.851876 
z
" clip-path="url(#pbe41824804)" style="fill: #0000ff"/>
   </g>
   <g id="patch_91">
    <path d="M 730.712034 334.538351 
L 730.712034 334.538351 
L 730.712034 334.023959 
L 730.712034 334.023959 
z
" clip-path="url(#pbe41824804)" style="fill: #0000ff"/>
   </g>
   <g id="patch_92">
    <path d="M 144 320.564041 
L 571.376532 320.564041 
L 571.376532 313.705485 
L 144 313.705485 
z
" clip-path="url(#pbe41824804)" style="fill: #0000ff"/>
   </g>
   <g id="patch_93">
    <path d="M 144 320.564041 
L 583.289467 320.564041 
L 583.289467 313.705485 
L 144 313.705485 
z
" clip-path="url(#pbe41824804)" style="fill: #0000ff"/>
   </g>
   <g id="patch_94">
    <path d="M 151.445584 320.564041 
L 413.530148 320.564041 
L 413.530148 313.705485 
L 151.445584 313.705485 
z
" clip-path="url(#pbe41824804)" style="fill: #0000ff"/>
   </g>
   <g id="patch_95">
    <path d="M 188.673505 320.564041 
L 365.878409 320.564041 
L 365.878409 313.705485 
L 188.673505 313.705485 
z
" clip-path="url(#pbe41824804)" style="fill: #0000ff"/>
   </g>
   <g id="patch_96">
    <path d="M 188.673505 320.564041 
L 365.878409 320.564041 
L 365.878409 313.705485 
L 188.673505 313.705485 
z
" clip-path="url(#pbe41824804)" style="fill: #0000ff"/>
   </g>
   <g id="patch_97">
    <path d="M 194.629972 320.564041 
L 571.376532 320.564041 
L 571.376532 313.705485 
L 194.629972 313.705485 
z
" clip-path="url(#pbe41824804)" style="fill: #0000ff"/>
   </g>
   <g id="patch_98">
    <path d="M 203.564674 320.564041 
L 474.583938 320.564041 
L 474.583938 313.705485 
L 203.564674 313.705485 
z
" clip-path="url(#pbe41824804)" style="fill: #0000ff"/>
   </g>
   <g id="patch_99">
    <path d="M 213.988491 320.564041 
L 571.376532 320.564041 
L 571.376532 313.705485 
L 213.988491 313.705485 
z
" clip-path="url(#pbe41824804)" style="fill: #0000ff"/>
   </g>
   <g id="patch_100">
    <path d="M 218.455842 320.564041 
L 364.389292 320.564041 
L 364.389292 313.705485 
L 218.455842 313.705485 
z
" clip-path="url(#pbe41824804)" style="fill: #0000ff"/>
   </g>
   <g id="patch_101">
    <path d="M 228.87966 320.564041 
L 295.889917 320.564041 
L 295.889917 313.705485 
L 228.87966 313.705485 
z
" clip-path="url(#pbe41824804)" style="fill: #0000ff"/>
   </g>
   <g id="patch_102">
    <path d="M 230.368777 320.564041 
L 362.900175 320.564041 
L 362.900175 313.705485 
L 230.368777 313.705485 
z
" clip-path="url(#pbe41824804)" style="fill: #0000ff"/>
   </g>
   <g id="patch_103">
    <path d="M 275.042282 320.564041 
L 428.421316 320.564041 
L 428.421316 313.705485 
L 275.042282 313.705485 
z
" clip-path="url(#pbe41824804)" style="fill: #0000ff"/>
   </g>
   <g id="patch_104">
    <path d="M 294.400801 320.564041 
L 480.540405 320.564041 
L 480.540405 313.705485 
L 294.400801 313.705485 
z
" clip-path="url(#pbe41824804)" style="fill: #0000ff"/>
   </g>
   <g id="patch_105">
    <path d="M 321.204904 320.564041 
L 470.116587 320.564041 
L 470.116587 313.705485 
L 321.204904 313.705485 
z
" clip-path="url(#pbe41824804)" style="fill: #0000ff"/>
   </g>
   <g id="patch_106">
    <path d="M 584.778584 317.391959 
L 610.09357 317.391959 
L 610.09357 316.877567 
L 584.778584 316.877567 
z
" clip-path="url(#pbe41824804)" style="fill: #0000ff"/>
   </g>
   <g id="patch_107">
    <path d="M 144 300.245567 
L 212.499375 300.245567 
L 212.499375 299.731175 
L 144 299.731175 
z
" clip-path="url(#pbe41824804)" style="fill: #0000ff"/>
   </g>
   <g id="patch_108">
    <path d="M 213.988491 303.417649 
L 820.059044 303.417649 
L 820.059044 296.559093 
L 213.988491 296.559093 
z
" clip-path="url(#pbe41824804)" style="fill: #0000ff"/>
   </g>
   <g id="patch_109">
    <path d="M 222.923192 303.417649 
L 854.308732 303.417649 
L 854.308732 296.559093 
L 222.923192 296.559093 
z
" clip-path="url(#pbe41824804)" style="fill: #0000ff"/>
   </g>
   <g id="patch_110">
    <path d="M 255.683763 303.417649 
L 840.90668 303.417649 
L 840.90668 296.559093 
L 255.683763 296.559093 
z
" clip-path="url(#pbe41824804)" style="fill: #0000ff"/>
   </g>
   <g id="patch_111">
    <path d="M 257.17288 303.417649 
L 751.55967 303.417649 
L 751.55967 296.559093 
L 257.17288 296.559093 
z
" clip-path="url(#pbe41824804)" style="fill: #0000ff"/>
   </g>
   <g id="patch_112">
    <path d="M 526.703027 303.417649 
L 729.222917 303.417649 
L 729.222917 296.559093 
L 526.703027 296.559093 
z
" clip-path="url(#pbe41824804)" style="fill: #0000ff"/>
   </g>
   <g id="patch_113">
    <path d="M 632.430323 303.417649 
L 784.32024 303.417649 
L 784.32024 296.559093 
L 632.430323 296.559093 
z
" clip-path="url(#pbe41824804)" style="fill: #0000ff"/>
   </g>
   <g id="patch_114">
    <path d="M 144 283.099175 
L 212.499375 283.099175 
L 212.499375 282.584784 
L 144 282.584784 
z
" clip-path="url(#pbe41824804)" style="fill: #0000ff"/>
   </g>
   <g id="patch_115">
    <path d="M 213.988491 286.271258 
L 699.44058 286.271258 
L 699.44058 279.412701 
L 213.988491 279.412701 
z
" clip-path="url(#pbe41824804)" style="fill: #0000ff"/>
   </g>
   <g id="patch_116">
    <path d="M 218.455842 286.271258 
L 797.722292 286.271258 
L 797.722292 279.412701 
L 218.455842 279.412701 
z
" clip-path="url(#pbe41824804)" style="fill: #0000ff"/>
   </g>
   <g id="patch_117">
    <path d="M 218.455842 286.271258 
L 689.016763 286.271258 
L 689.016763 279.412701 
L 218.455842 279.412701 
z
" clip-path="url(#pbe41824804)" style="fill: #0000ff"/>
   </g>
   <g id="patch_118">
    <path d="M 245.259945 286.271258 
L 782.831123 286.271258 
L 782.831123 279.412701 
L 245.259945 279.412701 
z
" clip-path="url(#pbe41824804)" style="fill: #0000ff"/>
   </g>
   <g id="patch_119">
    <path d="M 252.705529 286.271258 
L 733.690268 286.271258 
L 733.690268 279.412701 
L 252.705529 279.412701 
z
" clip-path="url(#pbe41824804)" style="fill: #0000ff"/>
   </g>
   <g id="patch_120">
    <path d="M 266.107581 286.271258 
L 766.450838 286.271258 
L 766.450838 279.412701 
L 266.107581 279.412701 
z
" clip-path="url(#pbe41824804)" style="fill: #0000ff"/>
   </g>
   <g id="patch_121">
    <path d="M 285.4661 286.271258 
L 355.454591 286.271258 
L 355.454591 279.412701 
L 285.4661 279.412701 
z
" clip-path="url(#pbe41824804)" style="fill: #0000ff"/>
   </g>
   <g id="patch_122">
    <path d="M 556.485364 286.271258 
L 750.070553 286.271258 
L 750.070553 279.412701 
L 556.485364 279.412701 
z
" clip-path="url(#pbe41824804)" style="fill: #0000ff"/>
   </g>
   <g id="patch_123">
    <path d="M 575.843883 286.271258 
L 739.646735 286.271258 
L 739.646735 279.412701 
L 575.843883 279.412701 
z
" clip-path="url(#pbe41824804)" style="fill: #0000ff"/>
   </g>
   <g id="patch_124">
    <path d="M 144 265.952784 
L 178.249687 265.952784 
L 178.249687 265.438392 
L 144 265.438392 
z
" clip-path="url(#pbe41824804)" style="fill: #0000ff"/>
   </g>
   <g id="patch_125">
    <path d="M 179.738804 269.124866 
L 723.26645 269.124866 
L 723.26645 262.266309 
L 179.738804 262.266309 
z
" clip-path="url(#pbe41824804)" style="fill: #0000ff"/>
   </g>
   <g id="patch_126">
    <path d="M 181.227921 269.124866 
L 799.211409 269.124866 
L 799.211409 262.266309 
L 181.227921 262.266309 
z
" clip-path="url(#pbe41824804)" style="fill: #0000ff"/>
   </g>
   <g id="patch_127">
    <path d="M 202.075557 269.124866 
L 785.809357 269.124866 
L 785.809357 262.266309 
L 202.075557 262.266309 
z
" clip-path="url(#pbe41824804)" style="fill: #0000ff"/>
   </g>
   <g id="patch_128">
    <path d="M 205.05379 269.124866 
L 358.432825 269.124866 
L 358.432825 262.266309 
L 205.05379 262.266309 
z
" clip-path="url(#pbe41824804)" style="fill: #0000ff"/>
   </g>
   <g id="patch_129">
    <path d="M 208.032024 269.124866 
L 738.157618 269.124866 
L 738.157618 262.266309 
L 208.032024 262.266309 
z
" clip-path="url(#pbe41824804)" style="fill: #0000ff"/>
   </g>
   <g id="patch_130">
    <path d="M 249.727295 269.124866 
L 772.407305 269.124866 
L 772.407305 262.266309 
L 249.727295 262.266309 
z
" clip-path="url(#pbe41824804)" style="fill: #0000ff"/>
   </g>
   <g id="patch_131">
    <path d="M 249.727295 269.124866 
L 306.313735 269.124866 
L 306.313735 262.266309 
L 249.727295 262.266309 
z
" clip-path="url(#pbe41824804)" style="fill: #0000ff"/>
   </g>
   <g id="patch_132">
    <path d="M 279.509632 269.124866 
L 590.735051 269.124866 
L 590.735051 262.266309 
L 279.509632 262.266309 
z
" clip-path="url(#pbe41824804)" style="fill: #0000ff"/>
   </g>
   <g id="patch_133">
    <path d="M 288.444333 269.124866 
L 575.843883 269.124866 
L 575.843883 262.266309 
L 288.444333 262.266309 
z
" clip-path="url(#pbe41824804)" style="fill: #0000ff"/>
   </g>
   <g id="patch_134">
    <path d="M 288.444333 269.124866 
L 575.843883 269.124866 
L 575.843883 262.266309 
L 288.444333 262.266309 
z
" clip-path="url(#pbe41824804)" style="fill: #0000ff"/>
   </g>
   <g id="patch_135">
    <path d="M 346.51989 269.124866 
L 569.887416 269.124866 
L 569.887416 262.266309 
L 346.51989 262.266309 
z
" clip-path="url(#pbe41824804)" style="fill: #0000ff"/>
   </g>
   <g id="patch_136">
    <path d="M 392.682512 269.124866 
L 544.572429 269.124866 
L 544.572429 262.266309 
L 392.682512 262.266309 
z
" clip-path="url(#pbe41824804)" style="fill: #0000ff"/>
   </g>
   <g id="patch_137">
    <path d="M 392.682512 269.124866 
L 575.843883 269.124866 
L 575.843883 262.266309 
L 392.682512 262.266309 
z
" clip-path="url(#pbe41824804)" style="fill: #0000ff"/>
   </g>
   <g id="patch_138">
    <path d="M 477.562172 269.124866 
L 767.939955 269.124866 
L 767.939955 262.266309 
L 477.562172 262.266309 
z
" clip-path="url(#pbe41824804)" style="fill: #0000ff"/>
   </g>
   <g id="patch_139">
    <path d="M 577.333 269.124866 
L 723.26645 269.124866 
L 723.26645 262.266309 
L 577.333 262.266309 
z
" clip-path="url(#pbe41824804)" style="fill: #0000ff"/>
   </g>
   <g id="patch_140">
    <path d="M 144 248.806392 
L 221.434076 248.806392 
L 221.434076 248.292 
L 144 248.292 
z
" clip-path="url(#pbe41824804)" style="fill: #0000ff"/>
   </g>
   <g id="patch_141">
    <path d="M 222.923192 251.978474 
L 852.819615 251.978474 
L 852.819615 245.119918 
L 222.923192 245.119918 
z
" clip-path="url(#pbe41824804)" style="fill: #0000ff"/>
   </g>
   <g id="patch_142">
    <path d="M 245.259945 251.978474 
L 839.417563 251.978474 
L 839.417563 245.119918 
L 245.259945 245.119918 
z
" clip-path="url(#pbe41824804)" style="fill: #0000ff"/>
   </g>
   <g id="patch_143">
    <path d="M 260.151113 251.978474 
L 750.070553 251.978474 
L 750.070553 245.119918 
L 260.151113 245.119918 
z
" clip-path="url(#pbe41824804)" style="fill: #0000ff"/>
   </g>
   <g id="patch_144">
    <path d="M 450.758069 251.978474 
L 750.070553 251.978474 
L 750.070553 245.119918 
L 450.758069 245.119918 
z
" clip-path="url(#pbe41824804)" style="fill: #0000ff"/>
   </g>
   <g id="patch_145">
    <path d="M 613.071804 251.978474 
L 754.537903 251.978474 
L 754.537903 245.119918 
L 613.071804 245.119918 
z
" clip-path="url(#pbe41824804)" style="fill: #0000ff"/>
   </g>
   <g id="patch_146">
    <path d="M 630.941206 251.978474 
L 748.581436 251.978474 
L 748.581436 245.119918 
L 630.941206 245.119918 
z
" clip-path="url(#pbe41824804)" style="fill: #0000ff"/>
   </g>
   <g id="patch_147">
    <path d="M 144 231.66 
L 158.891168 231.66 
L 158.891168 231.145608 
L 144 231.145608 
z
" clip-path="url(#pbe41824804)" style="fill: #0000ff"/>
   </g>
   <g id="patch_148">
    <path d="M 160.380285 234.832082 
L 453.736302 234.832082 
L 453.736302 227.973526 
L 160.380285 227.973526 
z
" clip-path="url(#pbe41824804)" style="fill: #0000ff"/>
   </g>
   <g id="patch_149">
    <path d="M 172.29322 234.832082 
L 552.018014 234.832082 
L 552.018014 227.973526 
L 172.29322 227.973526 
z
" clip-path="url(#pbe41824804)" style="fill: #0000ff"/>
   </g>
   <g id="patch_150">
    <path d="M 172.29322 234.832082 
L 459.69277 234.832082 
L 459.69277 227.973526 
L 172.29322 227.973526 
z
" clip-path="url(#pbe41824804)" style="fill: #0000ff"/>
   </g>
   <g id="patch_151">
    <path d="M 179.738804 234.832082 
L 549.03978 234.832082 
L 549.03978 227.973526 
L 179.738804 227.973526 
z
" clip-path="url(#pbe41824804)" style="fill: #0000ff"/>
   </g>
   <g id="patch_152">
    <path d="M 188.673505 234.832082 
L 522.235677 234.832082 
L 522.235677 227.973526 
L 188.673505 227.973526 
z
" clip-path="url(#pbe41824804)" style="fill: #0000ff"/>
   </g>
   <g id="patch_153">
    <path d="M 197.608206 234.832082 
L 458.203653 234.832082 
L 458.203653 227.973526 
L 197.608206 227.973526 
z
" clip-path="url(#pbe41824804)" style="fill: #0000ff"/>
   </g>
   <g id="patch_154">
    <path d="M 199.097323 234.832082 
L 426.932199 234.832082 
L 426.932199 227.973526 
L 199.097323 227.973526 
z
" clip-path="url(#pbe41824804)" style="fill: #0000ff"/>
   </g>
   <g id="patch_155">
    <path d="M 206.542907 234.832082 
L 605.62622 234.832082 
L 605.62622 227.973526 
L 206.542907 227.973526 
z
" clip-path="url(#pbe41824804)" style="fill: #0000ff"/>
   </g>
   <g id="patch_156">
    <path d="M 209.521141 234.832082 
L 593.713285 234.832082 
L 593.713285 227.973526 
L 209.521141 227.973526 
z
" clip-path="url(#pbe41824804)" style="fill: #0000ff"/>
   </g>
   <g id="patch_157">
    <path d="M 236.325244 234.832082 
L 563.930948 234.832082 
L 563.930948 227.973526 
L 236.325244 227.973526 
z
" clip-path="url(#pbe41824804)" style="fill: #0000ff"/>
   </g>
   <g id="patch_158">
    <path d="M 237.814361 234.832082 
L 312.270203 234.832082 
L 312.270203 227.973526 
L 237.814361 227.973526 
z
" clip-path="url(#pbe41824804)" style="fill: #0000ff"/>
   </g>
   <g id="patch_159">
    <path d="M 249.727295 234.832082 
L 513.300976 234.832082 
L 513.300976 227.973526 
L 249.727295 227.973526 
z
" clip-path="url(#pbe41824804)" style="fill: #0000ff"/>
   </g>
   <g id="patch_160">
    <path d="M 275.042282 234.832082 
L 419.486615 234.832082 
L 419.486615 227.973526 
L 275.042282 227.973526 
z
" clip-path="url(#pbe41824804)" style="fill: #0000ff"/>
   </g>
   <g id="patch_161">
    <path d="M 315.248436 234.832082 
L 450.758069 234.832082 
L 450.758069 227.973526 
L 315.248436 227.973526 
z
" clip-path="url(#pbe41824804)" style="fill: #0000ff"/>
   </g>
   <g id="patch_162">
    <path d="M 417.997498 234.832082 
L 581.80035 234.832082 
L 581.80035 227.973526 
L 417.997498 227.973526 
z
" clip-path="url(#pbe41824804)" style="fill: #0000ff"/>
   </g>
   <g id="patch_163">
    <path d="M 607.115337 231.66 
L 657.745309 231.66 
L 657.745309 231.145608 
L 607.115337 231.145608 
z
" clip-path="url(#pbe41824804)" style="fill: #0000ff"/>
   </g>
   <g id="patch_164">
    <path d="M 144 217.685691 
L 336.096072 217.685691 
L 336.096072 210.827134 
L 144 210.827134 
z
" clip-path="url(#pbe41824804)" style="fill: #0000ff"/>
   </g>
   <g id="patch_165">
    <path d="M 157.402052 217.685691 
L 300.357268 217.685691 
L 300.357268 210.827134 
L 157.402052 210.827134 
z
" clip-path="url(#pbe41824804)" style="fill: #0000ff"/>
   </g>
   <g id="patch_166">
    <path d="M 158.891168 217.685691 
L 279.509632 217.685691 
L 279.509632 210.827134 
L 158.891168 210.827134 
z
" clip-path="url(#pbe41824804)" style="fill: #0000ff"/>
   </g>
   <g id="patch_167">
    <path d="M 158.891168 217.685691 
L 321.204904 217.685691 
L 321.204904 210.827134 
L 158.891168 210.827134 
z
" clip-path="url(#pbe41824804)" style="fill: #0000ff"/>
   </g>
   <g id="patch_168">
    <path d="M 158.891168 217.685691 
L 304.824618 217.685691 
L 304.824618 210.827134 
L 158.891168 210.827134 
z
" clip-path="url(#pbe41824804)" style="fill: #0000ff"/>
   </g>
   <g id="patch_169">
    <path d="M 158.891168 217.685691 
L 288.444333 217.685691 
L 288.444333 210.827134 
L 158.891168 210.827134 
z
" clip-path="url(#pbe41824804)" style="fill: #0000ff"/>
   </g>
   <g id="patch_170">
    <path d="M 160.380285 217.685691 
L 328.650488 217.685691 
L 328.650488 210.827134 
L 160.380285 210.827134 
z
" clip-path="url(#pbe41824804)" style="fill: #0000ff"/>
   </g>
   <g id="patch_171">
    <path d="M 163.358519 217.685691 
L 307.802852 217.685691 
L 307.802852 210.827134 
L 163.358519 210.827134 
z
" clip-path="url(#pbe41824804)" style="fill: #0000ff"/>
   </g>
   <g id="patch_172">
    <path d="M 337.585189 214.513608 
L 388.215161 214.513608 
L 388.215161 213.999216 
L 337.585189 213.999216 
z
" clip-path="url(#pbe41824804)" style="fill: #0000ff"/>
   </g>
   <g id="patch_173">
    <path d="M 389.704278 217.685691 
L 936.210158 217.685691 
L 936.210158 210.827134 
L 389.704278 210.827134 
z
" clip-path="url(#pbe41824804)" style="fill: #0000ff"/>
   </g>
   <g id="patch_174">
    <path d="M 410.551914 217.685691 
L 994.285714 217.685691 
L 994.285714 210.827134 
L 410.551914 210.827134 
z
" clip-path="url(#pbe41824804)" style="fill: #0000ff"/>
   </g>
   <g id="patch_175">
    <path d="M 426.932199 217.685691 
L 607.115337 217.685691 
L 607.115337 210.827134 
L 426.932199 210.827134 
z
" clip-path="url(#pbe41824804)" style="fill: #0000ff"/>
   </g>
   <g id="patch_176">
    <path d="M 437.356017 217.685691 
L 891.536652 217.685691 
L 891.536652 210.827134 
L 437.356017 210.827134 
z
" clip-path="url(#pbe41824804)" style="fill: #0000ff"/>
   </g>
   <g id="patch_177">
    <path d="M 461.181886 217.685691 
L 543.083312 217.685691 
L 543.083312 210.827134 
L 461.181886 210.827134 
z
" clip-path="url(#pbe41824804)" style="fill: #0000ff"/>
   </g>
   <g id="patch_178">
    <path d="M 464.16012 217.685691 
L 960.036027 217.685691 
L 960.036027 210.827134 
L 464.16012 210.827134 
z
" clip-path="url(#pbe41824804)" style="fill: #0000ff"/>
   </g>
   <g id="patch_179">
    <path d="M 767.939955 217.685691 
L 936.210158 217.685691 
L 936.210158 210.827134 
L 767.939955 210.827134 
z
" clip-path="url(#pbe41824804)" style="fill: #0000ff"/>
   </g>
   <g id="patch_180">
    <path d="M 144 197.367216 
L 144 197.367216 
L 144 196.852825 
L 144 196.852825 
z
" clip-path="url(#pbe41824804)" style="fill: #0000ff"/>
   </g>
   <g id="patch_181">
    <path d="M 145.489117 200.539299 
L 821.548161 200.539299 
L 821.548161 193.680742 
L 145.489117 193.680742 
z
" clip-path="url(#pbe41824804)" style="fill: #0000ff"/>
   </g>
   <g id="patch_182">
    <path d="M 172.29322 200.539299 
L 767.939955 200.539299 
L 767.939955 193.680742 
L 172.29322 193.680742 
z
" clip-path="url(#pbe41824804)" style="fill: #0000ff"/>
   </g>
   <g id="patch_183">
    <path d="M 401.617213 200.539299 
L 736.668501 200.539299 
L 736.668501 193.680742 
L 401.617213 193.680742 
z
" clip-path="url(#pbe41824804)" style="fill: #0000ff"/>
   </g>
   <g id="patch_184">
    <path d="M 432.888666 200.539299 
L 610.09357 200.539299 
L 610.09357 193.680742 
L 432.888666 193.680742 
z
" clip-path="url(#pbe41824804)" style="fill: #0000ff"/>
   </g>
   <g id="patch_185">
    <path d="M 483.518639 200.539299 
L 627.962972 200.539299 
L 627.962972 193.680742 
L 483.518639 193.680742 
z
" clip-path="url(#pbe41824804)" style="fill: #0000ff"/>
   </g>
   <g id="patch_186">
    <path d="M 823.037278 197.367216 
L 823.037278 197.367216 
L 823.037278 196.852825 
L 823.037278 196.852825 
z
" clip-path="url(#pbe41824804)" style="fill: #0000ff"/>
   </g>
   <g id="patch_187">
    <path d="M 144 183.392907 
L 811.124343 183.392907 
L 811.124343 176.534351 
L 144 176.534351 
z
" clip-path="url(#pbe41824804)" style="fill: #0000ff"/>
   </g>
   <g id="patch_188">
    <path d="M 176.76057 183.392907 
L 802.189642 183.392907 
L 802.189642 176.534351 
L 176.76057 176.534351 
z
" clip-path="url(#pbe41824804)" style="fill: #0000ff"/>
   </g>
   <g id="patch_189">
    <path d="M 218.455842 183.392907 
L 511.811859 183.392907 
L 511.811859 176.534351 
L 218.455842 176.534351 
z
" clip-path="url(#pbe41824804)" style="fill: #0000ff"/>
   </g>
   <g id="patch_190">
    <path d="M 604.137103 183.392907 
L 751.55967 183.392907 
L 751.55967 176.534351 
L 604.137103 176.534351 
z
" clip-path="url(#pbe41824804)" style="fill: #0000ff"/>
   </g>
   <g id="patch_191">
    <path d="M 144 166.246515 
L 434.377783 166.246515 
L 434.377783 159.387959 
L 144 159.387959 
z
" clip-path="url(#pbe41824804)" style="fill: #0000ff"/>
   </g>
   <g id="patch_192">
    <path d="M 435.8669 163.074433 
L 435.8669 163.074433 
L 435.8669 162.560041 
L 435.8669 162.560041 
z
" clip-path="url(#pbe41824804)" style="fill: #0000ff"/>
   </g>
   <g id="patch_193">
    <path d="M 144 149.100124 
L 724.755567 149.100124 
L 724.755567 142.241567 
L 144 142.241567 
z
" clip-path="url(#pbe41824804)" style="fill: #0000ff"/>
   </g>
   <g id="patch_194">
    <path d="M 144 149.100124 
L 732.201151 149.100124 
L 732.201151 142.241567 
L 144 142.241567 
z
" clip-path="url(#pbe41824804)" style="fill: #0000ff"/>
   </g>
   <g id="patch_195">
    <path d="M 144 149.100124 
L 733.690268 149.100124 
L 733.690268 142.241567 
L 144 142.241567 
z
" clip-path="url(#pbe41824804)" style="fill: #0000ff"/>
   </g>
   <g id="patch_196">
    <path d="M 146.978234 149.100124 
L 708.375281 149.100124 
L 708.375281 142.241567 
L 146.978234 142.241567 
z
" clip-path="url(#pbe41824804)" style="fill: #0000ff"/>
   </g>
   <g id="patch_197">
    <path d="M 148.467351 149.100124 
L 720.288216 149.100124 
L 720.288216 142.241567 
L 148.467351 142.241567 
z
" clip-path="url(#pbe41824804)" style="fill: #0000ff"/>
   </g>
   <g id="patch_198">
    <path d="M 202.075557 149.100124 
L 702.418814 149.100124 
L 702.418814 142.241567 
L 202.075557 142.241567 
z
" clip-path="url(#pbe41824804)" style="fill: #0000ff"/>
   </g>
   <g id="patch_199">
    <path d="M 215.477608 149.100124 
L 678.592945 149.100124 
L 678.592945 142.241567 
L 215.477608 142.241567 
z
" clip-path="url(#pbe41824804)" style="fill: #0000ff"/>
   </g>
   <g id="patch_200">
    <path d="M 216.966725 149.100124 
L 440.334251 149.100124 
L 440.334251 142.241567 
L 216.966725 142.241567 
z
" clip-path="url(#pbe41824804)" style="fill: #0000ff"/>
   </g>
   <g id="patch_201">
    <path d="M 222.923192 149.100124 
L 461.181886 149.100124 
L 461.181886 142.241567 
L 222.923192 142.241567 
z
" clip-path="url(#pbe41824804)" style="fill: #0000ff"/>
   </g>
   <g id="patch_202">
    <path d="M 228.87966 149.100124 
L 681.571178 149.100124 
L 681.571178 142.241567 
L 228.87966 142.241567 
z
" clip-path="url(#pbe41824804)" style="fill: #0000ff"/>
   </g>
   <g id="patch_203">
    <path d="M 234.836127 149.100124 
L 462.671003 149.100124 
L 462.671003 142.241567 
L 234.836127 142.241567 
z
" clip-path="url(#pbe41824804)" style="fill: #0000ff"/>
   </g>
   <g id="patch_204">
    <path d="M 403.10633 149.100124 
L 574.354766 149.100124 
L 574.354766 142.241567 
L 403.10633 142.241567 
z
" clip-path="url(#pbe41824804)" style="fill: #0000ff"/>
   </g>
   <g id="patch_205">
    <path d="M 404.595447 149.100124 
L 578.822117 149.100124 
L 578.822117 142.241567 
L 404.595447 142.241567 
z
" clip-path="url(#pbe41824804)" style="fill: #0000ff"/>
   </g>
   <g id="patch_206">
    <path d="M 538.615962 149.100124 
L 684.549412 149.100124 
L 684.549412 142.241567 
L 538.615962 142.241567 
z
" clip-path="url(#pbe41824804)" style="fill: #0000ff"/>
   </g>
   <g id="patch_207">
    <path d="M 144 131.953732 
L 760.494371 131.953732 
L 760.494371 125.095175 
L 144 125.095175 
z
" clip-path="url(#pbe41824804)" style="fill: #0000ff"/>
   </g>
   <g id="patch_208">
    <path d="M 175.271454 131.953732 
L 702.418814 131.953732 
L 702.418814 125.095175 
L 175.271454 125.095175 
z
" clip-path="url(#pbe41824804)" style="fill: #0000ff"/>
   </g>
   <g id="patch_209">
    <path d="M 200.58644 131.953732 
L 739.646735 131.953732 
L 739.646735 125.095175 
L 200.58644 125.095175 
z
" clip-path="url(#pbe41824804)" style="fill: #0000ff"/>
   </g>
   <g id="patch_210">
    <path d="M 228.87966 131.953732 
L 729.222917 131.953732 
L 729.222917 125.095175 
L 228.87966 125.095175 
z
" clip-path="url(#pbe41824804)" style="fill: #0000ff"/>
   </g>
   <g id="patch_211">
    <path d="M 234.836127 131.953732 
L 736.668501 131.953732 
L 736.668501 125.095175 
L 234.836127 125.095175 
z
" clip-path="url(#pbe41824804)" style="fill: #0000ff"/>
   </g>
   <g id="patch_212">
    <path d="M 234.836127 131.953732 
L 724.755567 131.953732 
L 724.755567 125.095175 
L 234.836127 125.095175 
z
" clip-path="url(#pbe41824804)" style="fill: #0000ff"/>
   </g>
   <g id="patch_213">
    <path d="M 252.705529 131.953732 
L 602.647986 131.953732 
L 602.647986 125.095175 
L 252.705529 125.095175 
z
" clip-path="url(#pbe41824804)" style="fill: #0000ff"/>
   </g>
   <g id="patch_214">
    <path d="M 263.129347 131.953732 
L 702.418814 131.953732 
L 702.418814 125.095175 
L 263.129347 125.095175 
z
" clip-path="url(#pbe41824804)" style="fill: #0000ff"/>
   </g>
   <g id="patch_215">
    <path d="M 264.618464 131.953732 
L 374.81311 131.953732 
L 374.81311 125.095175 
L 264.618464 125.095175 
z
" clip-path="url(#pbe41824804)" style="fill: #0000ff"/>
   </g>
   <g id="patch_216">
    <path d="M 267.596698 131.953732 
L 473.094821 131.953732 
L 473.094821 125.095175 
L 267.596698 125.095175 
z
" clip-path="url(#pbe41824804)" style="fill: #0000ff"/>
   </g>
   <g id="patch_217">
    <path d="M 267.596698 131.953732 
L 470.116587 131.953732 
L 470.116587 125.095175 
L 267.596698 125.095175 
z
" clip-path="url(#pbe41824804)" style="fill: #0000ff"/>
   </g>
   <g id="patch_218">
    <path d="M 267.596698 131.953732 
L 486.496873 131.953732 
L 486.496873 125.095175 
L 267.596698 125.095175 
z
" clip-path="url(#pbe41824804)" style="fill: #0000ff"/>
   </g>
   <g id="patch_219">
    <path d="M 269.085814 131.953732 
L 505.855392 131.953732 
L 505.855392 125.095175 
L 269.085814 125.095175 
z
" clip-path="url(#pbe41824804)" style="fill: #0000ff"/>
   </g>
   <g id="patch_220">
    <path d="M 270.574931 131.953732 
L 343.541656 131.953732 
L 343.541656 125.095175 
L 270.574931 125.095175 
z
" clip-path="url(#pbe41824804)" style="fill: #0000ff"/>
   </g>
   <g id="patch_221">
    <path d="M 272.064048 131.953732 
L 490.964223 131.953732 
L 490.964223 125.095175 
L 272.064048 125.095175 
z
" clip-path="url(#pbe41824804)" style="fill: #0000ff"/>
   </g>
   <g id="patch_222">
    <path d="M 275.042282 131.953732 
L 318.22667 131.953732 
L 318.22667 125.095175 
L 275.042282 125.095175 
z
" clip-path="url(#pbe41824804)" style="fill: #0000ff"/>
   </g>
   <g id="patch_223">
    <path d="M 276.531399 131.953732 
L 741.135852 131.953732 
L 741.135852 125.095175 
L 276.531399 125.095175 
z
" clip-path="url(#pbe41824804)" style="fill: #0000ff"/>
   </g>
   <g id="patch_224">
    <path d="M 435.8669 131.953732 
L 593.713285 131.953732 
L 593.713285 125.095175 
L 435.8669 125.095175 
z
" clip-path="url(#pbe41824804)" style="fill: #0000ff"/>
   </g>
   <g id="patch_225">
    <path d="M 437.356017 131.953732 
L 706.886165 131.953732 
L 706.886165 125.095175 
L 437.356017 125.095175 
z
" clip-path="url(#pbe41824804)" style="fill: #0000ff"/>
   </g>
   <g id="patch_226">
    <path d="M 144 114.80734 
L 715.820866 114.80734 
L 715.820866 107.948784 
L 144 107.948784 
z
" clip-path="url(#pbe41824804)" style="fill: #0000ff"/>
   </g>
   <g id="patch_227">
    <path d="M 144 114.80734 
L 715.820866 114.80734 
L 715.820866 107.948784 
L 144 107.948784 
z
" clip-path="url(#pbe41824804)" style="fill: #0000ff"/>
   </g>
   <g id="patch_228">
    <path d="M 144 114.80734 
L 693.484113 114.80734 
L 693.484113 107.948784 
L 144 107.948784 
z
" clip-path="url(#pbe41824804)" style="fill: #0000ff"/>
   </g>
   <g id="patch_229">
    <path d="M 146.978234 114.80734 
L 696.462347 114.80734 
L 696.462347 107.948784 
L 146.978234 107.948784 
z
" clip-path="url(#pbe41824804)" style="fill: #0000ff"/>
   </g>
   <g id="patch_230">
    <path d="M 196.119089 114.80734 
L 696.462347 114.80734 
L 696.462347 107.948784 
L 196.119089 107.948784 
z
" clip-path="url(#pbe41824804)" style="fill: #0000ff"/>
   </g>
   <g id="patch_231">
    <path d="M 206.542907 114.80734 
L 674.125594 114.80734 
L 674.125594 107.948784 
L 206.542907 107.948784 
z
" clip-path="url(#pbe41824804)" style="fill: #0000ff"/>
   </g>
   <g id="patch_232">
    <path d="M 227.390543 114.80734 
L 456.714536 114.80734 
L 456.714536 107.948784 
L 227.390543 107.948784 
z
" clip-path="url(#pbe41824804)" style="fill: #0000ff"/>
   </g>
   <g id="patch_233">
    <path d="M 231.857893 114.80734 
L 434.377783 114.80734 
L 434.377783 107.948784 
L 231.857893 107.948784 
z
" clip-path="url(#pbe41824804)" style="fill: #0000ff"/>
   </g>
   <g id="patch_234">
    <path d="M 231.857893 114.80734 
L 304.824618 114.80734 
L 304.824618 107.948784 
L 231.857893 107.948784 
z
" clip-path="url(#pbe41824804)" style="fill: #0000ff"/>
   </g>
   <g id="patch_235">
    <path d="M 233.34701 114.80734 
L 572.865649 114.80734 
L 572.865649 107.948784 
L 233.34701 107.948784 
z
" clip-path="url(#pbe41824804)" style="fill: #0000ff"/>
   </g>
   <g id="patch_236">
    <path d="M 234.836127 114.80734 
L 456.714536 114.80734 
L 456.714536 107.948784 
L 234.836127 107.948784 
z
" clip-path="url(#pbe41824804)" style="fill: #0000ff"/>
   </g>
   <g id="patch_237">
    <path d="M 237.814361 114.80734 
L 715.820866 114.80734 
L 715.820866 107.948784 
L 237.814361 107.948784 
z
" clip-path="url(#pbe41824804)" style="fill: #0000ff"/>
   </g>
   <g id="patch_238">
    <path d="M 242.281711 114.80734 
L 687.527646 114.80734 
L 687.527646 107.948784 
L 242.281711 107.948784 
z
" clip-path="url(#pbe41824804)" style="fill: #0000ff"/>
   </g>
   <g id="patch_239">
    <path d="M 243.770828 114.80734 
L 586.267701 114.80734 
L 586.267701 107.948784 
L 243.770828 107.948784 
z
" clip-path="url(#pbe41824804)" style="fill: #0000ff"/>
   </g>
   <g id="patch_240">
    <path d="M 398.638979 114.80734 
L 568.398299 114.80734 
L 568.398299 107.948784 
L 398.638979 107.948784 
z
" clip-path="url(#pbe41824804)" style="fill: #0000ff"/>
   </g>
   <g id="patch_241">
    <path d="M 531.170378 114.80734 
L 678.592945 114.80734 
L 678.592945 107.948784 
L 531.170378 107.948784 
z
" clip-path="url(#pbe41824804)" style="fill: #0000ff"/>
   </g>
   <g id="patch_242">
    <path d="M 144 94.488866 
L 173.782337 94.488866 
L 173.782337 93.974474 
L 144 93.974474 
z
" clip-path="url(#pbe41824804)" style="fill: #0000ff"/>
   </g>
   <g id="patch_243">
    <path d="M 175.271454 97.660948 
L 554.996247 97.660948 
L 554.996247 90.802392 
L 175.271454 90.802392 
z
" clip-path="url(#pbe41824804)" style="fill: #0000ff"/>
   </g>
   <g id="patch_244">
    <path d="M 178.249687 97.660948 
L 556.485364 97.660948 
L 556.485364 90.802392 
L 178.249687 90.802392 
z
" clip-path="url(#pbe41824804)" style="fill: #0000ff"/>
   </g>
   <g id="patch_245">
    <path d="M 178.249687 97.660948 
L 534.148611 97.660948 
L 534.148611 90.802392 
L 178.249687 90.802392 
z
" clip-path="url(#pbe41824804)" style="fill: #0000ff"/>
   </g>
   <g id="patch_246">
    <path d="M 193.140856 97.660948 
L 554.996247 97.660948 
L 554.996247 90.802392 
L 193.140856 90.802392 
z
" clip-path="url(#pbe41824804)" style="fill: #0000ff"/>
   </g>
   <g id="patch_247">
    <path d="M 194.629972 97.660948 
L 458.203653 97.660948 
L 458.203653 90.802392 
L 194.629972 90.802392 
z
" clip-path="url(#pbe41824804)" style="fill: #0000ff"/>
   </g>
   <g id="patch_248">
    <path d="M 199.097323 97.660948 
L 535.637728 97.660948 
L 535.637728 90.802392 
L 199.097323 90.802392 
z
" clip-path="url(#pbe41824804)" style="fill: #0000ff"/>
   </g>
   <g id="patch_249">
    <path d="M 200.58644 97.660948 
L 482.029522 97.660948 
L 482.029522 90.802392 
L 200.58644 90.802392 
z
" clip-path="url(#pbe41824804)" style="fill: #0000ff"/>
   </g>
   <g id="patch_250">
    <path d="M 202.075557 97.660948 
L 422.464849 97.660948 
L 422.464849 90.802392 
L 202.075557 90.802392 
z
" clip-path="url(#pbe41824804)" style="fill: #0000ff"/>
   </g>
   <g id="patch_251">
    <path d="M 202.075557 97.660948 
L 496.920691 97.660948 
L 496.920691 90.802392 
L 202.075557 90.802392 
z
" clip-path="url(#pbe41824804)" style="fill: #0000ff"/>
   </g>
   <g id="patch_252">
    <path d="M 202.075557 97.660948 
L 269.085814 97.660948 
L 269.085814 90.802392 
L 202.075557 90.802392 
z
" clip-path="url(#pbe41824804)" style="fill: #0000ff"/>
   </g>
   <g id="patch_253">
    <path d="M 213.988491 97.660948 
L 510.322742 97.660948 
L 510.322742 90.802392 
L 213.988491 90.802392 
z
" clip-path="url(#pbe41824804)" style="fill: #0000ff"/>
   </g>
   <g id="patch_254">
    <path d="M 213.988491 97.660948 
L 423.953965 97.660948 
L 423.953965 90.802392 
L 213.988491 90.802392 
z
" clip-path="url(#pbe41824804)" style="fill: #0000ff"/>
   </g>
   <g id="patch_255">
    <path d="M 213.988491 97.660948 
L 534.148611 97.660948 
L 534.148611 90.802392 
L 213.988491 90.802392 
z
" clip-path="url(#pbe41824804)" style="fill: #0000ff"/>
   </g>
   <g id="patch_256">
    <path d="M 383.747811 97.660948 
L 529.681261 97.660948 
L 529.681261 90.802392 
L 383.747811 90.802392 
z
" clip-path="url(#pbe41824804)" style="fill: #0000ff"/>
   </g>
   <g id="patch_257">
    <path d="M 557.974481 94.488866 
L 581.80035 94.488866 
L 581.80035 93.974474 
L 557.974481 93.974474 
z
" clip-path="url(#pbe41824804)" style="fill: #0000ff"/>
   </g>
   <g id="patch_258">
    <path d="M 144 80.514557 
L 604.137103 80.514557 
L 604.137103 73.656 
L 144 73.656 
z
" clip-path="url(#pbe41824804)" style="fill: #0000ff"/>
   </g>
   <g id="patch_259">
    <path d="M 145.489117 80.514557 
L 578.822117 80.514557 
L 578.822117 73.656 
L 145.489117 73.656 
z
" clip-path="url(#pbe41824804)" style="fill: #0000ff"/>
   </g>
   <g id="patch_260">
    <path d="M 148.467351 80.514557 
L 556.485364 80.514557 
L 556.485364 73.656 
L 148.467351 73.656 
z
" clip-path="url(#pbe41824804)" style="fill: #0000ff"/>
   </g>
   <g id="patch_261">
    <path d="M 151.445584 80.514557 
L 546.061546 80.514557 
L 546.061546 73.656 
L 151.445584 73.656 
z
" clip-path="url(#pbe41824804)" style="fill: #0000ff"/>
   </g>
   <g id="patch_262">
    <path d="M 155.912935 80.514557 
L 479.051288 80.514557 
L 479.051288 73.656 
L 155.912935 73.656 
z
" clip-path="url(#pbe41824804)" style="fill: #0000ff"/>
   </g>
   <g id="patch_263">
    <path d="M 157.402052 80.514557 
L 566.909182 80.514557 
L 566.909182 73.656 
L 157.402052 73.656 
z
" clip-path="url(#pbe41824804)" style="fill: #0000ff"/>
   </g>
   <g id="patch_264">
    <path d="M 188.673505 80.514557 
L 566.909182 80.514557 
L 566.909182 73.656 
L 188.673505 73.656 
z
" clip-path="url(#pbe41824804)" style="fill: #0000ff"/>
   </g>
   <g id="patch_265">
    <path d="M 193.140856 80.514557 
L 385.236928 80.514557 
L 385.236928 73.656 
L 193.140856 73.656 
z
" clip-path="url(#pbe41824804)" style="fill: #0000ff"/>
   </g>
   <g id="patch_266">
    <path d="M 202.075557 80.514557 
L 465.649237 80.514557 
L 465.649237 73.656 
L 202.075557 73.656 
z
" clip-path="url(#pbe41824804)" style="fill: #0000ff"/>
   </g>
   <g id="patch_267">
    <path d="M 208.032024 80.514557 
L 419.486615 80.514557 
L 419.486615 73.656 
L 208.032024 73.656 
z
" clip-path="url(#pbe41824804)" style="fill: #0000ff"/>
   </g>
   <g id="patch_268">
    <path d="M 211.010258 80.514557 
L 429.910433 80.514557 
L 429.910433 73.656 
L 211.010258 73.656 
z
" clip-path="url(#pbe41824804)" style="fill: #0000ff"/>
   </g>
   <g id="patch_269">
    <path d="M 211.010258 80.514557 
L 577.333 80.514557 
L 577.333 73.656 
L 211.010258 73.656 
z
" clip-path="url(#pbe41824804)" style="fill: #0000ff"/>
   </g>
   <g id="patch_270">
    <path d="M 211.010258 80.514557 
L 283.976983 80.514557 
L 283.976983 73.656 
L 211.010258 73.656 
z
" clip-path="url(#pbe41824804)" style="fill: #0000ff"/>
   </g>
   <g id="patch_271">
    <path d="M 211.010258 80.514557 
L 546.061546 80.514557 
L 546.061546 73.656 
L 211.010258 73.656 
z
" clip-path="url(#pbe41824804)" style="fill: #0000ff"/>
   </g>
   <g id="patch_272">
    <path d="M 212.499375 80.514557 
L 422.464849 80.514557 
L 422.464849 73.656 
L 212.499375 73.656 
z
" clip-path="url(#pbe41824804)" style="fill: #0000ff"/>
   </g>
   <g id="patch_273">
    <path d="M 212.499375 80.514557 
L 498.409807 80.514557 
L 498.409807 73.656 
L 212.499375 73.656 
z
" clip-path="url(#pbe41824804)" style="fill: #0000ff"/>
   </g>
   <g id="patch_274">
    <path d="M 267.596698 80.514557 
L 571.376532 80.514557 
L 571.376532 73.656 
L 267.596698 73.656 
z
" clip-path="url(#pbe41824804)" style="fill: #0000ff"/>
   </g>
   <g id="patch_275">
    <path d="M 374.81311 80.514557 
L 498.409807 80.514557 
L 498.409807 73.656 
L 374.81311 73.656 
z
" clip-path="url(#pbe41824804)" style="fill: #0000ff"/>
   </g>
   <g id="matplotlib.axis_1">
    <g id="xtick_1">
     <g id="line2d_1">
      <defs>
       <path id="m170d2b7b04" d="M 0 0 
L 0 3.5 
" style="stroke: #000000; stroke-width: 0.8"/>
      </defs>
      <g>
       <use xlink:href="#m170d2b7b04" x="291.422567" y="422.928" style="stroke: #000000; stroke-width: 0.8"/>
      </g>
     </g>
     <g id="text_1">
      <!-- 100 -->
      <g transform="translate(281.878817 437.526437) scale(0.1 -0.1)">
       <defs>
        <path id="DejaVuSans-31" d="M 794 531 
L 1825 531 
L 1825 4091 
L 703 3866 
L 703 4441 
L 1819 4666 
L 2450 4666 
L 2450 531 
L 3481 531 
L 3481 0 
L 794 0 
L 794 531 
z
" transform="scale(0.015625)"/>
        <path id="DejaVuSans-30" d="M 2034 4250 
Q 1547 4250 1301 3770 
Q 1056 3291 1056 2328 
Q 1056 1369 1301 889 
Q 1547 409 2034 409 
Q 2525 409 2770 889 
Q 3016 1369 3016 2328 
Q 3016 3291 2770 3770 
Q 2525 4250 2034 4250 
z
M 2034 4750 
Q 2819 4750 3233 4129 
Q 3647 3509 3647 2328 
Q 3647 1150 3233 529 
Q 2819 -91 2034 -91 
Q 1250 -91 836 529 
Q 422 1150 422 2328 
Q 422 3509 836 4129 
Q 1250 4750 2034 4750 
z
" transform="scale(0.015625)"/>
       </defs>
       <use xlink:href="#DejaVuSans-31"/>
       <use xlink:href="#DejaVuSans-30" x="63.623047"/>
       <use xlink:href="#DejaVuSans-30" x="127.246094"/>
      </g>
     </g>
    </g>
    <g id="xtick_2">
     <g id="line2d_2">
      <g>
       <use xlink:href="#m170d2b7b04" x="440.334251" y="422.928" style="stroke: #000000; stroke-width: 0.8"/>
      </g>
     </g>
     <g id="text_2">
      <!-- 200 -->
      <g transform="translate(430.790501 437.526437) scale(0.1 -0.1)">
       <defs>
        <path id="DejaVuSans-32" d="M 1228 531 
L 3431 531 
L 3431 0 
L 469 0 
L 469 531 
Q 828 903 1448 1529 
Q 2069 2156 2228 2338 
Q 2531 2678 2651 2914 
Q 2772 3150 2772 3378 
Q 2772 3750 2511 3984 
Q 2250 4219 1831 4219 
Q 1534 4219 1204 4116 
Q 875 4013 500 3803 
L 500 4441 
Q 881 4594 1212 4672 
Q 1544 4750 1819 4750 
Q 2544 4750 2975 4387 
Q 3406 4025 3406 3419 
Q 3406 3131 3298 2873 
Q 3191 2616 2906 2266 
Q 2828 2175 2409 1742 
Q 1991 1309 1228 531 
z
" transform="scale(0.015625)"/>
       </defs>
       <use xlink:href="#DejaVuSans-32"/>
       <use xlink:href="#DejaVuSans-30" x="63.623047"/>
       <use xlink:href="#DejaVuSans-30" x="127.246094"/>
      </g>
     </g>
    </g>
    <g id="xtick_3">
     <g id="line2d_3">
      <g>
       <use xlink:href="#m170d2b7b04" x="589.245934" y="422.928" style="stroke: #000000; stroke-width: 0.8"/>
      </g>
     </g>
     <g id="text_3">
      <!-- 300 -->
      <g transform="translate(579.702184 437.526437) scale(0.1 -0.1)">
       <defs>
        <path id="DejaVuSans-33" d="M 2597 2516 
Q 3050 2419 3304 2112 
Q 3559 1806 3559 1356 
Q 3559 666 3084 287 
Q 2609 -91 1734 -91 
Q 1441 -91 1130 -33 
Q 819 25 488 141 
L 488 750 
Q 750 597 1062 519 
Q 1375 441 1716 441 
Q 2309 441 2620 675 
Q 2931 909 2931 1356 
Q 2931 1769 2642 2001 
Q 2353 2234 1838 2234 
L 1294 2234 
L 1294 2753 
L 1863 2753 
Q 2328 2753 2575 2939 
Q 2822 3125 2822 3475 
Q 2822 3834 2567 4026 
Q 2313 4219 1838 4219 
Q 1578 4219 1281 4162 
Q 984 4106 628 3988 
L 628 4550 
Q 988 4650 1302 4700 
Q 1616 4750 1894 4750 
Q 2613 4750 3031 4423 
Q 3450 4097 3450 3541 
Q 3450 3153 3228 2886 
Q 3006 2619 2597 2516 
z
" transform="scale(0.015625)"/>
       </defs>
       <use xlink:href="#DejaVuSans-33"/>
       <use xlink:href="#DejaVuSans-30" x="63.623047"/>
       <use xlink:href="#DejaVuSans-30" x="127.246094"/>
      </g>
     </g>
    </g>
    <g id="xtick_4">
     <g id="line2d_4">
      <g>
       <use xlink:href="#m170d2b7b04" x="738.157618" y="422.928" style="stroke: #000000; stroke-width: 0.8"/>
      </g>
     </g>
     <g id="text_4">
      <!-- 400 -->
      <g transform="translate(728.613868 437.526437) scale(0.1 -0.1)">
       <defs>
        <path id="DejaVuSans-34" d="M 2419 4116 
L 825 1625 
L 2419 1625 
L 2419 4116 
z
M 2253 4666 
L 3047 4666 
L 3047 1625 
L 3713 1625 
L 3713 1100 
L 3047 1100 
L 3047 0 
L 2419 0 
L 2419 1100 
L 313 1100 
L 313 1709 
L 2253 4666 
z
" transform="scale(0.015625)"/>
       </defs>
       <use xlink:href="#DejaVuSans-34"/>
       <use xlink:href="#DejaVuSans-30" x="63.623047"/>
       <use xlink:href="#DejaVuSans-30" x="127.246094"/>
      </g>
     </g>
    </g>
    <g id="xtick_5">
     <g id="line2d_5">
      <g>
       <use xlink:href="#m170d2b7b04" x="887.069302" y="422.928" style="stroke: #000000; stroke-width: 0.8"/>
      </g>
     </g>
     <g id="text_5">
      <!-- 500 -->
      <g transform="translate(877.525552 437.526437) scale(0.1 -0.1)">
       <defs>
        <path id="DejaVuSans-35" d="M 691 4666 
L 3169 4666 
L 3169 4134 
L 1269 4134 
L 1269 2991 
Q 1406 3038 1543 3061 
Q 1681 3084 1819 3084 
Q 2600 3084 3056 2656 
Q 3513 2228 3513 1497 
Q 3513 744 3044 326 
Q 2575 -91 1722 -91 
Q 1428 -91 1123 -41 
Q 819 9 494 109 
L 494 744 
Q 775 591 1075 516 
Q 1375 441 1709 441 
Q 2250 441 2565 725 
Q 2881 1009 2881 1497 
Q 2881 1984 2565 2268 
Q 2250 2553 1709 2553 
Q 1456 2553 1204 2497 
Q 953 2441 691 2322 
L 691 4666 
z
" transform="scale(0.015625)"/>
       </defs>
       <use xlink:href="#DejaVuSans-35"/>
       <use xlink:href="#DejaVuSans-30" x="63.623047"/>
       <use xlink:href="#DejaVuSans-30" x="127.246094"/>
      </g>
     </g>
    </g>
    <g id="xtick_6">
     <g id="line2d_6">
      <g>
       <use xlink:href="#m170d2b7b04" x="1035.980986" y="422.928" style="stroke: #000000; stroke-width: 0.8"/>
      </g>
     </g>
     <g id="text_6">
      <!-- 600 -->
      <g transform="translate(1026.437236 437.526437) scale(0.1 -0.1)">
       <defs>
        <path id="DejaVuSans-36" d="M 2113 2584 
Q 1688 2584 1439 2293 
Q 1191 2003 1191 1497 
Q 1191 994 1439 701 
Q 1688 409 2113 409 
Q 2538 409 2786 701 
Q 3034 994 3034 1497 
Q 3034 2003 2786 2293 
Q 2538 2584 2113 2584 
z
M 3366 4563 
L 3366 3988 
Q 3128 4100 2886 4159 
Q 2644 4219 2406 4219 
Q 1781 4219 1451 3797 
Q 1122 3375 1075 2522 
Q 1259 2794 1537 2939 
Q 1816 3084 2150 3084 
Q 2853 3084 3261 2657 
Q 3669 2231 3669 1497 
Q 3669 778 3244 343 
Q 2819 -91 2113 -91 
Q 1303 -91 875 529 
Q 447 1150 447 2328 
Q 447 3434 972 4092 
Q 1497 4750 2381 4750 
Q 2619 4750 2861 4703 
Q 3103 4656 3366 4563 
z
" transform="scale(0.015625)"/>
       </defs>
       <use xlink:href="#DejaVuSans-36"/>
       <use xlink:href="#DejaVuSans-30" x="63.623047"/>
       <use xlink:href="#DejaVuSans-30" x="127.246094"/>
      </g>
     </g>
    </g>
    <g id="text_7">
     <!-- Residual -->
     <g transform="translate(569.284375 451.204563) scale(0.1 -0.1)">
      <defs>
       <path id="DejaVuSans-52" d="M 2841 2188 
Q 3044 2119 3236 1894 
Q 3428 1669 3622 1275 
L 4263 0 
L 3584 0 
L 2988 1197 
Q 2756 1666 2539 1819 
Q 2322 1972 1947 1972 
L 1259 1972 
L 1259 0 
L 628 0 
L 628 4666 
L 2053 4666 
Q 2853 4666 3247 4331 
Q 3641 3997 3641 3322 
Q 3641 2881 3436 2590 
Q 3231 2300 2841 2188 
z
M 1259 4147 
L 1259 2491 
L 2053 2491 
Q 2509 2491 2742 2702 
Q 2975 2913 2975 3322 
Q 2975 3731 2742 3939 
Q 2509 4147 2053 4147 
L 1259 4147 
z
" transform="scale(0.015625)"/>
       <path id="DejaVuSans-65" d="M 3597 1894 
L 3597 1613 
L 953 1613 
Q 991 1019 1311 708 
Q 1631 397 2203 397 
Q 2534 397 2845 478 
Q 3156 559 3463 722 
L 3463 178 
Q 3153 47 2828 -22 
Q 2503 -91 2169 -91 
Q 1331 -91 842 396 
Q 353 884 353 1716 
Q 353 2575 817 3079 
Q 1281 3584 2069 3584 
Q 2775 3584 3186 3129 
Q 3597 2675 3597 1894 
z
M 3022 2063 
Q 3016 2534 2758 2815 
Q 2500 3097 2075 3097 
Q 1594 3097 1305 2825 
Q 1016 2553 972 2059 
L 3022 2063 
z
" transform="scale(0.015625)"/>
       <path id="DejaVuSans-73" d="M 2834 3397 
L 2834 2853 
Q 2591 2978 2328 3040 
Q 2066 3103 1784 3103 
Q 1356 3103 1142 2972 
Q 928 2841 928 2578 
Q 928 2378 1081 2264 
Q 1234 2150 1697 2047 
L 1894 2003 
Q 2506 1872 2764 1633 
Q 3022 1394 3022 966 
Q 3022 478 2636 193 
Q 2250 -91 1575 -91 
Q 1294 -91 989 -36 
Q 684 19 347 128 
L 347 722 
Q 666 556 975 473 
Q 1284 391 1588 391 
Q 1994 391 2212 530 
Q 2431 669 2431 922 
Q 2431 1156 2273 1281 
Q 2116 1406 1581 1522 
L 1381 1569 
Q 847 1681 609 1914 
Q 372 2147 372 2553 
Q 372 3047 722 3315 
Q 1072 3584 1716 3584 
Q 2034 3584 2315 3537 
Q 2597 3491 2834 3397 
z
" transform="scale(0.015625)"/>
       <path id="DejaVuSans-69" d="M 603 3500 
L 1178 3500 
L 1178 0 
L 603 0 
L 603 3500 
z
M 603 4863 
L 1178 4863 
L 1178 4134 
L 603 4134 
L 603 4863 
z
" transform="scale(0.015625)"/>
       <path id="DejaVuSans-64" d="M 2906 2969 
L 2906 4863 
L 3481 4863 
L 3481 0 
L 2906 0 
L 2906 525 
Q 2725 213 2448 61 
Q 2172 -91 1784 -91 
Q 1150 -91 751 415 
Q 353 922 353 1747 
Q 353 2572 751 3078 
Q 1150 3584 1784 3584 
Q 2172 3584 2448 3432 
Q 2725 3281 2906 2969 
z
M 947 1747 
Q 947 1113 1208 752 
Q 1469 391 1925 391 
Q 2381 391 2643 752 
Q 2906 1113 2906 1747 
Q 2906 2381 2643 2742 
Q 2381 3103 1925 3103 
Q 1469 3103 1208 2742 
Q 947 2381 947 1747 
z
" transform="scale(0.015625)"/>
       <path id="DejaVuSans-75" d="M 544 1381 
L 544 3500 
L 1119 3500 
L 1119 1403 
Q 1119 906 1312 657 
Q 1506 409 1894 409 
Q 2359 409 2629 706 
Q 2900 1003 2900 1516 
L 2900 3500 
L 3475 3500 
L 3475 0 
L 2900 0 
L 2900 538 
Q 2691 219 2414 64 
Q 2138 -91 1772 -91 
Q 1169 -91 856 284 
Q 544 659 544 1381 
z
M 1991 3584 
L 1991 3584 
z
" transform="scale(0.015625)"/>
       <path id="DejaVuSans-61" d="M 2194 1759 
Q 1497 1759 1228 1600 
Q 959 1441 959 1056 
Q 959 750 1161 570 
Q 1363 391 1709 391 
Q 2188 391 2477 730 
Q 2766 1069 2766 1631 
L 2766 1759 
L 2194 1759 
z
M 3341 1997 
L 3341 0 
L 2766 0 
L 2766 531 
Q 2569 213 2275 61 
Q 1981 -91 1556 -91 
Q 1019 -91 701 211 
Q 384 513 384 1019 
Q 384 1609 779 1909 
Q 1175 2209 1959 2209 
L 2766 2209 
L 2766 2266 
Q 2766 2663 2505 2880 
Q 2244 3097 1772 3097 
Q 1472 3097 1187 3025 
Q 903 2953 641 2809 
L 641 3341 
Q 956 3463 1253 3523 
Q 1550 3584 1831 3584 
Q 2591 3584 2966 3190 
Q 3341 2797 3341 1997 
z
" transform="scale(0.015625)"/>
       <path id="DejaVuSans-6c" d="M 603 4863 
L 1178 4863 
L 1178 0 
L 603 0 
L 603 4863 
z
" transform="scale(0.015625)"/>
      </defs>
      <use xlink:href="#DejaVuSans-52"/>
      <use xlink:href="#DejaVuSans-65" x="64.982422"/>
      <use xlink:href="#DejaVuSans-73" x="126.505859"/>
      <use xlink:href="#DejaVuSans-69" x="178.605469"/>
      <use xlink:href="#DejaVuSans-64" x="206.388672"/>
      <use xlink:href="#DejaVuSans-75" x="269.865234"/>
      <use xlink:href="#DejaVuSans-61" x="333.244141"/>
      <use xlink:href="#DejaVuSans-6c" x="394.523438"/>
     </g>
    </g>
   </g>
   <g id="matplotlib.axis_2">
    <g id="ytick_1">
     <g id="line2d_7">
      <defs>
       <path id="m9d03141844" d="M 0 0 
L -3.5 0 
" style="stroke: #000000; stroke-width: 0.8"/>
      </defs>
      <g>
       <use xlink:href="#m9d03141844" x="144" y="402.866722" style="stroke: #000000; stroke-width: 0.8"/>
      </g>
     </g>
     <g id="text_8">
      <!-- 8.A.1.1.1 -->
      <g transform="translate(92.171875 406.66594) scale(0.1 -0.1)">
       <defs>
        <path id="DejaVuSans-38" d="M 2034 2216 
Q 1584 2216 1326 1975 
Q 1069 1734 1069 1313 
Q 1069 891 1326 650 
Q 1584 409 2034 409 
Q 2484 409 2743 651 
Q 3003 894 3003 1313 
Q 3003 1734 2745 1975 
Q 2488 2216 2034 2216 
z
M 1403 2484 
Q 997 2584 770 2862 
Q 544 3141 544 3541 
Q 544 4100 942 4425 
Q 1341 4750 2034 4750 
Q 2731 4750 3128 4425 
Q 3525 4100 3525 3541 
Q 3525 3141 3298 2862 
Q 3072 2584 2669 2484 
Q 3125 2378 3379 2068 
Q 3634 1759 3634 1313 
Q 3634 634 3220 271 
Q 2806 -91 2034 -91 
Q 1263 -91 848 271 
Q 434 634 434 1313 
Q 434 1759 690 2068 
Q 947 2378 1403 2484 
z
M 1172 3481 
Q 1172 3119 1398 2916 
Q 1625 2713 2034 2713 
Q 2441 2713 2670 2916 
Q 2900 3119 2900 3481 
Q 2900 3844 2670 4047 
Q 2441 4250 2034 4250 
Q 1625 4250 1398 4047 
Q 1172 3844 1172 3481 
z
" transform="scale(0.015625)"/>
        <path id="DejaVuSans-2e" d="M 684 794 
L 1344 794 
L 1344 0 
L 684 0 
L 684 794 
z
" transform="scale(0.015625)"/>
        <path id="DejaVuSans-41" d="M 2188 4044 
L 1331 1722 
L 3047 1722 
L 2188 4044 
z
M 1831 4666 
L 2547 4666 
L 4325 0 
L 3669 0 
L 3244 1197 
L 1141 1197 
L 716 0 
L 50 0 
L 1831 4666 
z
" transform="scale(0.015625)"/>
       </defs>
       <use xlink:href="#DejaVuSans-38"/>
       <use xlink:href="#DejaVuSans-2e" x="63.623047"/>
       <use xlink:href="#DejaVuSans-41" x="95.410156"/>
       <use xlink:href="#DejaVuSans-2e" x="162.068359"/>
       <use xlink:href="#DejaVuSans-31" x="193.855469"/>
       <use xlink:href="#DejaVuSans-2e" x="257.478516"/>
       <use xlink:href="#DejaVuSans-31" x="289.265625"/>
       <use xlink:href="#DejaVuSans-2e" x="352.888672"/>
       <use xlink:href="#DejaVuSans-31" x="384.675781"/>
      </g>
     </g>
    </g>
    <g id="ytick_2">
     <g id="line2d_8">
      <g>
       <use xlink:href="#m9d03141844" x="144" y="385.72033" style="stroke: #000000; stroke-width: 0.8"/>
      </g>
     </g>
     <g id="text_9">
      <!-- 8.A.1.1.2 -->
      <g transform="translate(92.171875 389.519549) scale(0.1 -0.1)">
       <use xlink:href="#DejaVuSans-38"/>
       <use xlink:href="#DejaVuSans-2e" x="63.623047"/>
       <use xlink:href="#DejaVuSans-41" x="95.410156"/>
       <use xlink:href="#DejaVuSans-2e" x="162.068359"/>
       <use xlink:href="#DejaVuSans-31" x="193.855469"/>
       <use xlink:href="#DejaVuSans-2e" x="257.478516"/>
       <use xlink:href="#DejaVuSans-31" x="289.265625"/>
       <use xlink:href="#DejaVuSans-2e" x="352.888672"/>
       <use xlink:href="#DejaVuSans-32" x="384.675781"/>
      </g>
     </g>
    </g>
    <g id="ytick_3">
     <g id="line2d_9">
      <g>
       <use xlink:href="#m9d03141844" x="144" y="368.573938" style="stroke: #000000; stroke-width: 0.8"/>
      </g>
     </g>
     <g id="text_10">
      <!-- 8.A.1.1.3 -->
      <g transform="translate(92.171875 372.373157) scale(0.1 -0.1)">
       <use xlink:href="#DejaVuSans-38"/>
       <use xlink:href="#DejaVuSans-2e" x="63.623047"/>
       <use xlink:href="#DejaVuSans-41" x="95.410156"/>
       <use xlink:href="#DejaVuSans-2e" x="162.068359"/>
       <use xlink:href="#DejaVuSans-31" x="193.855469"/>
       <use xlink:href="#DejaVuSans-2e" x="257.478516"/>
       <use xlink:href="#DejaVuSans-31" x="289.265625"/>
       <use xlink:href="#DejaVuSans-2e" x="352.888672"/>
       <use xlink:href="#DejaVuSans-33" x="384.675781"/>
      </g>
     </g>
    </g>
    <g id="ytick_4">
     <g id="line2d_10">
      <g>
       <use xlink:href="#m9d03141844" x="144" y="351.427546" style="stroke: #000000; stroke-width: 0.8"/>
      </g>
     </g>
     <g id="text_11">
      <!-- 8.A.1.1.4 -->
      <g transform="translate(92.171875 355.226765) scale(0.1 -0.1)">
       <use xlink:href="#DejaVuSans-38"/>
       <use xlink:href="#DejaVuSans-2e" x="63.623047"/>
       <use xlink:href="#DejaVuSans-41" x="95.410156"/>
       <use xlink:href="#DejaVuSans-2e" x="162.068359"/>
       <use xlink:href="#DejaVuSans-31" x="193.855469"/>
       <use xlink:href="#DejaVuSans-2e" x="257.478516"/>
       <use xlink:href="#DejaVuSans-31" x="289.265625"/>
       <use xlink:href="#DejaVuSans-2e" x="352.888672"/>
       <use xlink:href="#DejaVuSans-34" x="384.675781"/>
      </g>
     </g>
    </g>
    <g id="ytick_5">
     <g id="line2d_11">
      <g>
       <use xlink:href="#m9d03141844" x="144" y="334.281155" style="stroke: #000000; stroke-width: 0.8"/>
      </g>
     </g>
     <g id="text_12">
      <!-- 8.A.1.2.1 -->
      <g transform="translate(92.171875 338.080373) scale(0.1 -0.1)">
       <use xlink:href="#DejaVuSans-38"/>
       <use xlink:href="#DejaVuSans-2e" x="63.623047"/>
       <use xlink:href="#DejaVuSans-41" x="95.410156"/>
       <use xlink:href="#DejaVuSans-2e" x="162.068359"/>
       <use xlink:href="#DejaVuSans-31" x="193.855469"/>
       <use xlink:href="#DejaVuSans-2e" x="257.478516"/>
       <use xlink:href="#DejaVuSans-32" x="289.265625"/>
       <use xlink:href="#DejaVuSans-2e" x="352.888672"/>
       <use xlink:href="#DejaVuSans-31" x="384.675781"/>
      </g>
     </g>
    </g>
    <g id="ytick_6">
     <g id="line2d_12">
      <g>
       <use xlink:href="#m9d03141844" x="144" y="317.134763" style="stroke: #000000; stroke-width: 0.8"/>
      </g>
     </g>
     <g id="text_13">
      <!-- 8.A.1.2.2 -->
      <g transform="translate(92.171875 320.933982) scale(0.1 -0.1)">
       <use xlink:href="#DejaVuSans-38"/>
       <use xlink:href="#DejaVuSans-2e" x="63.623047"/>
       <use xlink:href="#DejaVuSans-41" x="95.410156"/>
       <use xlink:href="#DejaVuSans-2e" x="162.068359"/>
       <use xlink:href="#DejaVuSans-31" x="193.855469"/>
       <use xlink:href="#DejaVuSans-2e" x="257.478516"/>
       <use xlink:href="#DejaVuSans-32" x="289.265625"/>
       <use xlink:href="#DejaVuSans-2e" x="352.888672"/>
       <use xlink:href="#DejaVuSans-32" x="384.675781"/>
      </g>
     </g>
    </g>
    <g id="ytick_7">
     <g id="line2d_13">
      <g>
       <use xlink:href="#m9d03141844" x="144" y="299.988371" style="stroke: #000000; stroke-width: 0.8"/>
      </g>
     </g>
     <g id="text_14">
      <!-- 8.A.1.3.1 -->
      <g transform="translate(92.171875 303.78759) scale(0.1 -0.1)">
       <use xlink:href="#DejaVuSans-38"/>
       <use xlink:href="#DejaVuSans-2e" x="63.623047"/>
       <use xlink:href="#DejaVuSans-41" x="95.410156"/>
       <use xlink:href="#DejaVuSans-2e" x="162.068359"/>
       <use xlink:href="#DejaVuSans-31" x="193.855469"/>
       <use xlink:href="#DejaVuSans-2e" x="257.478516"/>
       <use xlink:href="#DejaVuSans-33" x="289.265625"/>
       <use xlink:href="#DejaVuSans-2e" x="352.888672"/>
       <use xlink:href="#DejaVuSans-31" x="384.675781"/>
      </g>
     </g>
    </g>
    <g id="ytick_8">
     <g id="line2d_14">
      <g>
       <use xlink:href="#m9d03141844" x="144" y="282.841979" style="stroke: #000000; stroke-width: 0.8"/>
      </g>
     </g>
     <g id="text_15">
      <!-- 8.A.1.3.2 -->
      <g transform="translate(92.171875 286.641198) scale(0.1 -0.1)">
       <use xlink:href="#DejaVuSans-38"/>
       <use xlink:href="#DejaVuSans-2e" x="63.623047"/>
       <use xlink:href="#DejaVuSans-41" x="95.410156"/>
       <use xlink:href="#DejaVuSans-2e" x="162.068359"/>
       <use xlink:href="#DejaVuSans-31" x="193.855469"/>
       <use xlink:href="#DejaVuSans-2e" x="257.478516"/>
       <use xlink:href="#DejaVuSans-33" x="289.265625"/>
       <use xlink:href="#DejaVuSans-2e" x="352.888672"/>
       <use xlink:href="#DejaVuSans-32" x="384.675781"/>
      </g>
     </g>
    </g>
    <g id="ytick_9">
     <g id="line2d_15">
      <g>
       <use xlink:href="#m9d03141844" x="144" y="265.695588" style="stroke: #000000; stroke-width: 0.8"/>
      </g>
     </g>
     <g id="text_16">
      <!-- 8.A.1.3.3 -->
      <g transform="translate(92.171875 269.494806) scale(0.1 -0.1)">
       <use xlink:href="#DejaVuSans-38"/>
       <use xlink:href="#DejaVuSans-2e" x="63.623047"/>
       <use xlink:href="#DejaVuSans-41" x="95.410156"/>
       <use xlink:href="#DejaVuSans-2e" x="162.068359"/>
       <use xlink:href="#DejaVuSans-31" x="193.855469"/>
       <use xlink:href="#DejaVuSans-2e" x="257.478516"/>
       <use xlink:href="#DejaVuSans-33" x="289.265625"/>
       <use xlink:href="#DejaVuSans-2e" x="352.888672"/>
       <use xlink:href="#DejaVuSans-33" x="384.675781"/>
      </g>
     </g>
    </g>
    <g id="ytick_10">
     <g id="line2d_16">
      <g>
       <use xlink:href="#m9d03141844" x="144" y="248.549196" style="stroke: #000000; stroke-width: 0.8"/>
      </g>
     </g>
     <g id="text_17">
      <!-- 8.A.1.3.4 -->
      <g transform="translate(92.171875 252.348415) scale(0.1 -0.1)">
       <use xlink:href="#DejaVuSans-38"/>
       <use xlink:href="#DejaVuSans-2e" x="63.623047"/>
       <use xlink:href="#DejaVuSans-41" x="95.410156"/>
       <use xlink:href="#DejaVuSans-2e" x="162.068359"/>
       <use xlink:href="#DejaVuSans-31" x="193.855469"/>
       <use xlink:href="#DejaVuSans-2e" x="257.478516"/>
       <use xlink:href="#DejaVuSans-33" x="289.265625"/>
       <use xlink:href="#DejaVuSans-2e" x="352.888672"/>
       <use xlink:href="#DejaVuSans-34" x="384.675781"/>
      </g>
     </g>
    </g>
    <g id="ytick_11">
     <g id="line2d_17">
      <g>
       <use xlink:href="#m9d03141844" x="144" y="231.402804" style="stroke: #000000; stroke-width: 0.8"/>
      </g>
     </g>
     <g id="text_18">
      <!-- 8.A.1.3.5 -->
      <g transform="translate(92.171875 235.202023) scale(0.1 -0.1)">
       <use xlink:href="#DejaVuSans-38"/>
       <use xlink:href="#DejaVuSans-2e" x="63.623047"/>
       <use xlink:href="#DejaVuSans-41" x="95.410156"/>
       <use xlink:href="#DejaVuSans-2e" x="162.068359"/>
       <use xlink:href="#DejaVuSans-31" x="193.855469"/>
       <use xlink:href="#DejaVuSans-2e" x="257.478516"/>
       <use xlink:href="#DejaVuSans-33" x="289.265625"/>
       <use xlink:href="#DejaVuSans-2e" x="352.888672"/>
       <use xlink:href="#DejaVuSans-35" x="384.675781"/>
      </g>
     </g>
    </g>
    <g id="ytick_12">
     <g id="line2d_18">
      <g>
       <use xlink:href="#m9d03141844" x="144" y="214.256412" style="stroke: #000000; stroke-width: 0.8"/>
      </g>
     </g>
     <g id="text_19">
      <!-- 8.A.1.3.6 -->
      <g transform="translate(92.171875 218.055631) scale(0.1 -0.1)">
       <use xlink:href="#DejaVuSans-38"/>
       <use xlink:href="#DejaVuSans-2e" x="63.623047"/>
       <use xlink:href="#DejaVuSans-41" x="95.410156"/>
       <use xlink:href="#DejaVuSans-2e" x="162.068359"/>
       <use xlink:href="#DejaVuSans-31" x="193.855469"/>
       <use xlink:href="#DejaVuSans-2e" x="257.478516"/>
       <use xlink:href="#DejaVuSans-33" x="289.265625"/>
       <use xlink:href="#DejaVuSans-2e" x="352.888672"/>
       <use xlink:href="#DejaVuSans-36" x="384.675781"/>
      </g>
     </g>
    </g>
    <g id="ytick_13">
     <g id="line2d_19">
      <g>
       <use xlink:href="#m9d03141844" x="144" y="197.110021" style="stroke: #000000; stroke-width: 0.8"/>
      </g>
     </g>
     <g id="text_20">
      <!-- 8.A.1.4.1 -->
      <g transform="translate(92.171875 200.909239) scale(0.1 -0.1)">
       <use xlink:href="#DejaVuSans-38"/>
       <use xlink:href="#DejaVuSans-2e" x="63.623047"/>
       <use xlink:href="#DejaVuSans-41" x="95.410156"/>
       <use xlink:href="#DejaVuSans-2e" x="162.068359"/>
       <use xlink:href="#DejaVuSans-31" x="193.855469"/>
       <use xlink:href="#DejaVuSans-2e" x="257.478516"/>
       <use xlink:href="#DejaVuSans-34" x="289.265625"/>
       <use xlink:href="#DejaVuSans-2e" x="352.888672"/>
       <use xlink:href="#DejaVuSans-31" x="384.675781"/>
      </g>
     </g>
    </g>
    <g id="ytick_14">
     <g id="line2d_20">
      <g>
       <use xlink:href="#m9d03141844" x="144" y="179.963629" style="stroke: #000000; stroke-width: 0.8"/>
      </g>
     </g>
     <g id="text_21">
      <!-- 8.A.1.4.2 -->
      <g transform="translate(92.171875 183.762848) scale(0.1 -0.1)">
       <use xlink:href="#DejaVuSans-38"/>
       <use xlink:href="#DejaVuSans-2e" x="63.623047"/>
       <use xlink:href="#DejaVuSans-41" x="95.410156"/>
       <use xlink:href="#DejaVuSans-2e" x="162.068359"/>
       <use xlink:href="#DejaVuSans-31" x="193.855469"/>
       <use xlink:href="#DejaVuSans-2e" x="257.478516"/>
       <use xlink:href="#DejaVuSans-34" x="289.265625"/>
       <use xlink:href="#DejaVuSans-2e" x="352.888672"/>
       <use xlink:href="#DejaVuSans-32" x="384.675781"/>
      </g>
     </g>
    </g>
    <g id="ytick_15">
     <g id="line2d_21">
      <g>
       <use xlink:href="#m9d03141844" x="144" y="162.817237" style="stroke: #000000; stroke-width: 0.8"/>
      </g>
     </g>
     <g id="text_22">
      <!-- 8.A.1.5.1 -->
      <g transform="translate(92.171875 166.616456) scale(0.1 -0.1)">
       <use xlink:href="#DejaVuSans-38"/>
       <use xlink:href="#DejaVuSans-2e" x="63.623047"/>
       <use xlink:href="#DejaVuSans-41" x="95.410156"/>
       <use xlink:href="#DejaVuSans-2e" x="162.068359"/>
       <use xlink:href="#DejaVuSans-31" x="193.855469"/>
       <use xlink:href="#DejaVuSans-2e" x="257.478516"/>
       <use xlink:href="#DejaVuSans-35" x="289.265625"/>
       <use xlink:href="#DejaVuSans-2e" x="352.888672"/>
       <use xlink:href="#DejaVuSans-31" x="384.675781"/>
      </g>
     </g>
    </g>
    <g id="ytick_16">
     <g id="line2d_22">
      <g>
       <use xlink:href="#m9d03141844" x="144" y="145.670845" style="stroke: #000000; stroke-width: 0.8"/>
      </g>
     </g>
     <g id="text_23">
      <!-- 8.A.1.6.1 -->
      <g transform="translate(92.171875 149.470064) scale(0.1 -0.1)">
       <use xlink:href="#DejaVuSans-38"/>
       <use xlink:href="#DejaVuSans-2e" x="63.623047"/>
       <use xlink:href="#DejaVuSans-41" x="95.410156"/>
       <use xlink:href="#DejaVuSans-2e" x="162.068359"/>
       <use xlink:href="#DejaVuSans-31" x="193.855469"/>
       <use xlink:href="#DejaVuSans-2e" x="257.478516"/>
       <use xlink:href="#DejaVuSans-36" x="289.265625"/>
       <use xlink:href="#DejaVuSans-2e" x="352.888672"/>
       <use xlink:href="#DejaVuSans-31" x="384.675781"/>
      </g>
     </g>
    </g>
    <g id="ytick_17">
     <g id="line2d_23">
      <g>
       <use xlink:href="#m9d03141844" x="144" y="128.524454" style="stroke: #000000; stroke-width: 0.8"/>
      </g>
     </g>
     <g id="text_24">
      <!-- 8.A.1.6.2 -->
      <g transform="translate(92.171875 132.323672) scale(0.1 -0.1)">
       <use xlink:href="#DejaVuSans-38"/>
       <use xlink:href="#DejaVuSans-2e" x="63.623047"/>
       <use xlink:href="#DejaVuSans-41" x="95.410156"/>
       <use xlink:href="#DejaVuSans-2e" x="162.068359"/>
       <use xlink:href="#DejaVuSans-31" x="193.855469"/>
       <use xlink:href="#DejaVuSans-2e" x="257.478516"/>
       <use xlink:href="#DejaVuSans-36" x="289.265625"/>
       <use xlink:href="#DejaVuSans-2e" x="352.888672"/>
       <use xlink:href="#DejaVuSans-32" x="384.675781"/>
      </g>
     </g>
    </g>
    <g id="ytick_18">
     <g id="line2d_24">
      <g>
       <use xlink:href="#m9d03141844" x="144" y="111.378062" style="stroke: #000000; stroke-width: 0.8"/>
      </g>
     </g>
     <g id="text_25">
      <!-- 8.A.1.6.3 -->
      <g transform="translate(92.171875 115.177281) scale(0.1 -0.1)">
       <use xlink:href="#DejaVuSans-38"/>
       <use xlink:href="#DejaVuSans-2e" x="63.623047"/>
       <use xlink:href="#DejaVuSans-41" x="95.410156"/>
       <use xlink:href="#DejaVuSans-2e" x="162.068359"/>
       <use xlink:href="#DejaVuSans-31" x="193.855469"/>
       <use xlink:href="#DejaVuSans-2e" x="257.478516"/>
       <use xlink:href="#DejaVuSans-36" x="289.265625"/>
       <use xlink:href="#DejaVuSans-2e" x="352.888672"/>
       <use xlink:href="#DejaVuSans-33" x="384.675781"/>
      </g>
     </g>
    </g>
    <g id="ytick_19">
     <g id="line2d_25">
      <g>
       <use xlink:href="#m9d03141844" x="144" y="94.23167" style="stroke: #000000; stroke-width: 0.8"/>
      </g>
     </g>
     <g id="text_26">
      <!-- 8.A.1.6.4 -->
      <g transform="translate(92.171875 98.030889) scale(0.1 -0.1)">
       <use xlink:href="#DejaVuSans-38"/>
       <use xlink:href="#DejaVuSans-2e" x="63.623047"/>
       <use xlink:href="#DejaVuSans-41" x="95.410156"/>
       <use xlink:href="#DejaVuSans-2e" x="162.068359"/>
       <use xlink:href="#DejaVuSans-31" x="193.855469"/>
       <use xlink:href="#DejaVuSans-2e" x="257.478516"/>
       <use xlink:href="#DejaVuSans-36" x="289.265625"/>
       <use xlink:href="#DejaVuSans-2e" x="352.888672"/>
       <use xlink:href="#DejaVuSans-34" x="384.675781"/>
      </g>
     </g>
    </g>
    <g id="ytick_20">
     <g id="line2d_26">
      <g>
       <use xlink:href="#m9d03141844" x="144" y="77.085278" style="stroke: #000000; stroke-width: 0.8"/>
      </g>
     </g>
     <g id="text_27">
      <!-- 8.A.1.7.1 -->
      <g transform="translate(92.171875 80.884497) scale(0.1 -0.1)">
       <defs>
        <path id="DejaVuSans-37" d="M 525 4666 
L 3525 4666 
L 3525 4397 
L 1831 0 
L 1172 0 
L 2766 4134 
L 525 4134 
L 525 4666 
z
" transform="scale(0.015625)"/>
       </defs>
       <use xlink:href="#DejaVuSans-38"/>
       <use xlink:href="#DejaVuSans-2e" x="63.623047"/>
       <use xlink:href="#DejaVuSans-41" x="95.410156"/>
       <use xlink:href="#DejaVuSans-2e" x="162.068359"/>
       <use xlink:href="#DejaVuSans-31" x="193.855469"/>
       <use xlink:href="#DejaVuSans-2e" x="257.478516"/>
       <use xlink:href="#DejaVuSans-37" x="289.265625"/>
       <use xlink:href="#DejaVuSans-2e" x="352.888672"/>
       <use xlink:href="#DejaVuSans-31" x="384.675781"/>
      </g>
     </g>
    </g>
   </g>
   <g id="patch_276">
    <path d="M 144 422.928 
L 144 57.024 
" style="fill: none; stroke: #000000; stroke-width: 0.8; stroke-linejoin: miter; stroke-linecap: square"/>
   </g>
   <g id="patch_277">
    <path d="M 1036.8 422.928 
L 1036.8 57.024 
" style="fill: none; stroke: #000000; stroke-width: 0.8; stroke-linejoin: miter; stroke-linecap: square"/>
   </g>
   <g id="patch_278">
    <path d="M 144 422.928 
L 1036.8 422.928 
" style="fill: none; stroke: #000000; stroke-width: 0.8; stroke-linejoin: miter; stroke-linecap: square"/>
   </g>
   <g id="patch_279">
    <path d="M 144 57.024 
L 1036.8 57.024 
" style="fill: none; stroke: #000000; stroke-width: 0.8; stroke-linejoin: miter; stroke-linecap: square"/>
   </g>
   <g id="text_28">
    <!-- 8.A.1 Summary -->
    <g transform="translate(544.05 51.024) scale(0.12 -0.12)">
     <defs>
      <path id="DejaVuSans-20" transform="scale(0.015625)"/>
      <path id="DejaVuSans-53" d="M 3425 4513 
L 3425 3897 
Q 3066 4069 2747 4153 
Q 2428 4238 2131 4238 
Q 1616 4238 1336 4038 
Q 1056 3838 1056 3469 
Q 1056 3159 1242 3001 
Q 1428 2844 1947 2747 
L 2328 2669 
Q 3034 2534 3370 2195 
Q 3706 1856 3706 1288 
Q 3706 609 3251 259 
Q 2797 -91 1919 -91 
Q 1588 -91 1214 -16 
Q 841 59 441 206 
L 441 856 
Q 825 641 1194 531 
Q 1563 422 1919 422 
Q 2459 422 2753 634 
Q 3047 847 3047 1241 
Q 3047 1584 2836 1778 
Q 2625 1972 2144 2069 
L 1759 2144 
Q 1053 2284 737 2584 
Q 422 2884 422 3419 
Q 422 4038 858 4394 
Q 1294 4750 2059 4750 
Q 2388 4750 2728 4690 
Q 3069 4631 3425 4513 
z
" transform="scale(0.015625)"/>
      <path id="DejaVuSans-6d" d="M 3328 2828 
Q 3544 3216 3844 3400 
Q 4144 3584 4550 3584 
Q 5097 3584 5394 3201 
Q 5691 2819 5691 2113 
L 5691 0 
L 5113 0 
L 5113 2094 
Q 5113 2597 4934 2840 
Q 4756 3084 4391 3084 
Q 3944 3084 3684 2787 
Q 3425 2491 3425 1978 
L 3425 0 
L 2847 0 
L 2847 2094 
Q 2847 2600 2669 2842 
Q 2491 3084 2119 3084 
Q 1678 3084 1418 2786 
Q 1159 2488 1159 1978 
L 1159 0 
L 581 0 
L 581 3500 
L 1159 3500 
L 1159 2956 
Q 1356 3278 1631 3431 
Q 1906 3584 2284 3584 
Q 2666 3584 2933 3390 
Q 3200 3197 3328 2828 
z
" transform="scale(0.015625)"/>
      <path id="DejaVuSans-72" d="M 2631 2963 
Q 2534 3019 2420 3045 
Q 2306 3072 2169 3072 
Q 1681 3072 1420 2755 
Q 1159 2438 1159 1844 
L 1159 0 
L 581 0 
L 581 3500 
L 1159 3500 
L 1159 2956 
Q 1341 3275 1631 3429 
Q 1922 3584 2338 3584 
Q 2397 3584 2469 3576 
Q 2541 3569 2628 3553 
L 2631 2963 
z
" transform="scale(0.015625)"/>
      <path id="DejaVuSans-79" d="M 2059 -325 
Q 1816 -950 1584 -1140 
Q 1353 -1331 966 -1331 
L 506 -1331 
L 506 -850 
L 844 -850 
Q 1081 -850 1212 -737 
Q 1344 -625 1503 -206 
L 1606 56 
L 191 3500 
L 800 3500 
L 1894 763 
L 2988 3500 
L 3597 3500 
L 2059 -325 
z
" transform="scale(0.015625)"/>
     </defs>
     <use xlink:href="#DejaVuSans-38"/>
     <use xlink:href="#DejaVuSans-2e" x="63.623047"/>
     <use xlink:href="#DejaVuSans-41" x="95.410156"/>
     <use xlink:href="#DejaVuSans-2e" x="162.068359"/>
     <use xlink:href="#DejaVuSans-31" x="193.855469"/>
     <use xlink:href="#DejaVuSans-20" x="257.478516"/>
     <use xlink:href="#DejaVuSans-53" x="289.265625"/>
     <use xlink:href="#DejaVuSans-75" x="352.742188"/>
     <use xlink:href="#DejaVuSans-6d" x="416.121094"/>
     <use xlink:href="#DejaVuSans-6d" x="513.533203"/>
     <use xlink:href="#DejaVuSans-61" x="610.945312"/>
     <use xlink:href="#DejaVuSans-72" x="672.224609"/>
     <use xlink:href="#DejaVuSans-79" x="713.337891"/>
    </g>
   </g>
  </g>
 </g>
 <defs>
  <clipPath id="pbe41824804">
   <rect x="144" y="57.024" width="892.8" height="365.904"/>
  </clipPath>
 </defs>
</svg>
