<?xml version="1.0" encoding="utf-8" standalone="no"?>
<!DOCTYPE svg PUBLIC "-//W3C//DTD SVG 1.1//EN"
  "http://www.w3.org/Graphics/SVG/1.1/DTD/svg11.dtd">
<svg xmlns:xlink="http://www.w3.org/1999/xlink" width="1152pt" height="162pt" viewBox="0 0 1152 162" xmlns="http://www.w3.org/2000/svg" version="1.1">
 <metadata>
  <rdf:RDF xmlns:dc="http://purl.org/dc/elements/1.1/" xmlns:cc="http://creativecommons.org/ns#" xmlns:rdf="http://www.w3.org/1999/02/22-rdf-syntax-ns#">
   <cc:Work>
    <dc:type rdf:resource="http://purl.org/dc/dcmitype/StillImage"/>
    <dc:date>2024-10-10T19:22:45.417200</dc:date>
    <dc:format>image/svg+xml</dc:format>
    <dc:creator>
     <cc:Agent>
      <dc:title>Matplotlib v3.9.2, https://matplotlib.org/</dc:title>
     </cc:Agent>
    </dc:creator>
   </cc:Work>
  </rdf:RDF>
 </metadata>
 <defs>
  <style type="text/css">*{stroke-linejoin: round; stroke-linecap: butt}</style>
 </defs>
 <g id="figure_1">
  <g id="patch_1">
   <path d="M 0 162 
L 1152 162 
L 1152 0 
L 0 0 
z
" style="fill: #ffffff"/>
  </g>
  <g id="axes_1">
   <g id="patch_2">
    <path d="M 144 144.18 
L 1036.8 144.18 
L 1036.8 19.44 
L 144 19.44 
z
" style="fill: #ffffff"/>
   </g>
   <g id="patch_3">
    <path d="M 144 135.232031 
L 164.264197 135.232031 
L 164.264197 134.700469 
L 144 134.700469 
z
" clip-path="url(#pbda9076044)" style="fill: #0000ff"/>
   </g>
   <g id="patch_4">
    <path d="M 165.074765 138.51 
L 237.215307 138.51 
L 237.215307 131.4225 
L 165.074765 131.4225 
z
" clip-path="url(#pbda9076044)" style="fill: #0000ff"/>
   </g>
   <g id="patch_5">
    <path d="M 165.885333 138.51 
L 235.594171 138.51 
L 235.594171 131.4225 
L 165.885333 131.4225 
z
" clip-path="url(#pbda9076044)" style="fill: #0000ff"/>
   </g>
   <g id="patch_6">
    <path d="M 238.025875 135.232031 
L 270.44859 135.232031 
L 270.44859 134.700469 
L 238.025875 134.700469 
z
" clip-path="url(#pbda9076044)" style="fill: #0000ff"/>
   </g>
   <g id="patch_7">
    <path d="M 271.259158 138.51 
L 352.315947 138.51 
L 352.315947 131.4225 
L 271.259158 131.4225 
z
" clip-path="url(#pbda9076044)" style="fill: #0000ff"/>
   </g>
   <g id="patch_8">
    <path d="M 272.069726 138.51 
L 348.263108 138.51 
L 348.263108 131.4225 
L 272.069726 131.4225 
z
" clip-path="url(#pbda9076044)" style="fill: #0000ff"/>
   </g>
   <g id="patch_9">
    <path d="M 273.690862 138.51 
L 352.315947 138.51 
L 352.315947 131.4225 
L 273.690862 131.4225 
z
" clip-path="url(#pbda9076044)" style="fill: #0000ff"/>
   </g>
   <g id="patch_10">
    <path d="M 293.955059 138.51 
L 353.937083 138.51 
L 353.937083 131.4225 
L 293.955059 131.4225 
z
" clip-path="url(#pbda9076044)" style="fill: #0000ff"/>
   </g>
   <g id="patch_11">
    <path d="M 354.747651 135.232031 
L 357.989922 135.232031 
L 357.989922 134.700469 
L 354.747651 134.700469 
z
" clip-path="url(#pbda9076044)" style="fill: #0000ff"/>
   </g>
   <g id="patch_12">
    <path d="M 358.80049 138.51 
L 443.910118 138.51 
L 443.910118 131.4225 
L 358.80049 131.4225 
z
" clip-path="url(#pbda9076044)" style="fill: #0000ff"/>
   </g>
   <g id="patch_13">
    <path d="M 361.232194 138.51 
L 431.7516 138.51 
L 431.7516 131.4225 
L 361.232194 131.4225 
z
" clip-path="url(#pbda9076044)" style="fill: #0000ff"/>
   </g>
   <g id="patch_14">
    <path d="M 374.20128 138.51 
L 445.531254 138.51 
L 445.531254 131.4225 
L 374.20128 131.4225 
z
" clip-path="url(#pbda9076044)" style="fill: #0000ff"/>
   </g>
   <g id="patch_15">
    <path d="M 446.341822 135.232031 
L 449.584094 135.232031 
L 449.584094 134.700469 
L 446.341822 134.700469 
z
" clip-path="url(#pbda9076044)" style="fill: #0000ff"/>
   </g>
   <g id="patch_16">
    <path d="M 450.394662 138.51 
L 533.883154 138.51 
L 533.883154 131.4225 
L 450.394662 131.4225 
z
" clip-path="url(#pbda9076044)" style="fill: #0000ff"/>
   </g>
   <g id="patch_17">
    <path d="M 451.205229 138.51 
L 530.640882 138.51 
L 530.640882 131.4225 
L 451.205229 131.4225 
z
" clip-path="url(#pbda9076044)" style="fill: #0000ff"/>
   </g>
   <g id="patch_18">
    <path d="M 464.984884 138.51 
L 535.50429 138.51 
L 535.50429 131.4225 
L 464.984884 131.4225 
z
" clip-path="url(#pbda9076044)" style="fill: #0000ff"/>
   </g>
   <g id="patch_19">
    <path d="M 536.314858 135.232031 
L 541.178265 135.232031 
L 541.178265 134.700469 
L 536.314858 134.700469 
z
" clip-path="url(#pbda9076044)" style="fill: #0000ff"/>
   </g>
   <g id="patch_20">
    <path d="M 541.988833 138.51 
L 622.235054 138.51 
L 622.235054 131.4225 
L 541.988833 131.4225 
z
" clip-path="url(#pbda9076044)" style="fill: #0000ff"/>
   </g>
   <g id="patch_21">
    <path d="M 542.799401 138.51 
L 614.129375 138.51 
L 614.129375 131.4225 
L 542.799401 131.4225 
z
" clip-path="url(#pbda9076044)" style="fill: #0000ff"/>
   </g>
   <g id="patch_22">
    <path d="M 555.768487 138.51 
L 623.85619 138.51 
L 623.85619 131.4225 
L 555.768487 131.4225 
z
" clip-path="url(#pbda9076044)" style="fill: #0000ff"/>
   </g>
   <g id="patch_23">
    <path d="M 624.666757 135.232031 
L 627.098461 135.232031 
L 627.098461 134.700469 
L 624.666757 134.700469 
z
" clip-path="url(#pbda9076044)" style="fill: #0000ff"/>
   </g>
   <g id="patch_24">
    <path d="M 627.909029 138.51 
L 699.239003 138.51 
L 699.239003 131.4225 
L 627.909029 131.4225 
z
" clip-path="url(#pbda9076044)" style="fill: #0000ff"/>
   </g>
   <g id="patch_25">
    <path d="M 700.049571 135.232031 
L 740.577965 135.232031 
L 740.577965 134.700469 
L 700.049571 134.700469 
z
" clip-path="url(#pbda9076044)" style="fill: #0000ff"/>
   </g>
   <g id="patch_26">
    <path d="M 741.388533 138.51 
L 854.05747 138.51 
L 854.05747 131.4225 
L 741.388533 131.4225 
z
" clip-path="url(#pbda9076044)" style="fill: #0000ff"/>
   </g>
   <g id="patch_27">
    <path d="M 854.868038 135.232031 
L 858.110309 135.232031 
L 858.110309 134.700469 
L 854.868038 134.700469 
z
" clip-path="url(#pbda9076044)" style="fill: #0000ff"/>
   </g>
   <g id="patch_28">
    <path d="M 144 117.513281 
L 237.215307 117.513281 
L 237.215307 116.981719 
L 144 116.981719 
z
" clip-path="url(#pbda9076044)" style="fill: #0000ff"/>
   </g>
   <g id="patch_29">
    <path d="M 238.025875 120.79125 
L 305.30301 120.79125 
L 305.30301 113.70375 
L 238.025875 113.70375 
z
" clip-path="url(#pbda9076044)" style="fill: #0000ff"/>
   </g>
   <g id="patch_30">
    <path d="M 243.69985 120.79125 
L 308.545281 120.79125 
L 308.545281 113.70375 
L 243.69985 113.70375 
z
" clip-path="url(#pbda9076044)" style="fill: #0000ff"/>
   </g>
   <g id="patch_31">
    <path d="M 247.75269 120.79125 
L 310.976985 120.79125 
L 310.976985 113.70375 
L 247.75269 113.70375 
z
" clip-path="url(#pbda9076044)" style="fill: #0000ff"/>
   </g>
   <g id="patch_32">
    <path d="M 311.787553 117.513281 
L 315.029824 117.513281 
L 315.029824 116.981719 
L 311.787553 116.981719 
z
" clip-path="url(#pbda9076044)" style="fill: #0000ff"/>
   </g>
   <g id="patch_33">
    <path d="M 315.840392 120.79125 
L 397.707749 120.79125 
L 397.707749 113.70375 
L 315.840392 113.70375 
z
" clip-path="url(#pbda9076044)" style="fill: #0000ff"/>
   </g>
   <g id="patch_34">
    <path d="M 316.65096 120.79125 
L 393.654909 120.79125 
L 393.654909 113.70375 
L 316.65096 113.70375 
z
" clip-path="url(#pbda9076044)" style="fill: #0000ff"/>
   </g>
   <g id="patch_35">
    <path d="M 332.05175 120.79125 
L 399.328885 120.79125 
L 399.328885 113.70375 
L 332.05175 113.70375 
z
" clip-path="url(#pbda9076044)" style="fill: #0000ff"/>
   </g>
   <g id="patch_36">
    <path d="M 400.139453 117.513281 
L 404.192292 117.513281 
L 404.192292 116.981719 
L 400.139453 116.981719 
z
" clip-path="url(#pbda9076044)" style="fill: #0000ff"/>
   </g>
   <g id="patch_37">
    <path d="M 405.00286 120.79125 
L 490.923056 120.79125 
L 490.923056 113.70375 
L 405.00286 113.70375 
z
" clip-path="url(#pbda9076044)" style="fill: #0000ff"/>
   </g>
   <g id="patch_38">
    <path d="M 405.00286 120.79125 
L 487.680784 120.79125 
L 487.680784 113.70375 
L 405.00286 113.70375 
z
" clip-path="url(#pbda9076044)" style="fill: #0000ff"/>
   </g>
   <g id="patch_39">
    <path d="M 419.593082 120.79125 
L 492.544192 120.79125 
L 492.544192 113.70375 
L 419.593082 113.70375 
z
" clip-path="url(#pbda9076044)" style="fill: #0000ff"/>
   </g>
   <g id="patch_40">
    <path d="M 493.35476 117.513281 
L 499.028735 117.513281 
L 499.028735 116.981719 
L 493.35476 116.981719 
z
" clip-path="url(#pbda9076044)" style="fill: #0000ff"/>
   </g>
   <g id="patch_41">
    <path d="M 499.839303 120.79125 
L 571.979845 120.79125 
L 571.979845 113.70375 
L 499.839303 113.70375 
z
" clip-path="url(#pbda9076044)" style="fill: #0000ff"/>
   </g>
   <g id="patch_42">
    <path d="M 500.649871 120.79125 
L 576.032684 120.79125 
L 576.032684 113.70375 
L 500.649871 113.70375 
z
" clip-path="url(#pbda9076044)" style="fill: #0000ff"/>
   </g>
   <g id="patch_43">
    <path d="M 512.808389 120.79125 
L 577.65382 120.79125 
L 577.65382 113.70375 
L 512.808389 113.70375 
z
" clip-path="url(#pbda9076044)" style="fill: #0000ff"/>
   </g>
   <g id="patch_44">
    <path d="M 578.464388 117.513281 
L 580.896092 117.513281 
L 580.896092 116.981719 
L 578.464388 116.981719 
z
" clip-path="url(#pbda9076044)" style="fill: #0000ff"/>
   </g>
   <g id="patch_45">
    <path d="M 581.706659 120.79125 
L 661.142312 120.79125 
L 661.142312 113.70375 
L 581.706659 113.70375 
z
" clip-path="url(#pbda9076044)" style="fill: #0000ff"/>
   </g>
   <g id="patch_46">
    <path d="M 582.517227 120.79125 
L 661.142312 120.79125 
L 661.142312 113.70375 
L 582.517227 113.70375 
z
" clip-path="url(#pbda9076044)" style="fill: #0000ff"/>
   </g>
   <g id="patch_47">
    <path d="M 597.107449 120.79125 
L 663.574016 120.79125 
L 663.574016 113.70375 
L 597.107449 113.70375 
z
" clip-path="url(#pbda9076044)" style="fill: #0000ff"/>
   </g>
   <g id="patch_48">
    <path d="M 664.384584 117.513281 
L 699.239003 117.513281 
L 699.239003 116.981719 
L 664.384584 116.981719 
z
" clip-path="url(#pbda9076044)" style="fill: #0000ff"/>
   </g>
   <g id="patch_49">
    <path d="M 700.049571 120.79125 
L 828.119297 120.79125 
L 828.119297 113.70375 
L 700.049571 113.70375 
z
" clip-path="url(#pbda9076044)" style="fill: #0000ff"/>
   </g>
   <g id="patch_50">
    <path d="M 828.929865 117.513281 
L 837.035544 117.513281 
L 837.035544 116.981719 
L 828.929865 116.981719 
z
" clip-path="url(#pbda9076044)" style="fill: #0000ff"/>
   </g>
   <g id="patch_51">
    <path d="M 144 99.794531 
L 186.14953 99.794531 
L 186.14953 99.262969 
L 144 99.262969 
z
" clip-path="url(#pbda9076044)" style="fill: #0000ff"/>
   </g>
   <g id="patch_52">
    <path d="M 186.960098 103.0725 
L 263.15348 103.0725 
L 263.15348 95.985 
L 186.960098 95.985 
z
" clip-path="url(#pbda9076044)" style="fill: #0000ff"/>
   </g>
   <g id="patch_53">
    <path d="M 189.391802 103.0725 
L 267.206319 103.0725 
L 267.206319 95.985 
L 189.391802 95.985 
z
" clip-path="url(#pbda9076044)" style="fill: #0000ff"/>
   </g>
   <g id="patch_54">
    <path d="M 193.444641 103.0725 
L 267.206319 103.0725 
L 267.206319 95.985 
L 193.444641 95.985 
z
" clip-path="url(#pbda9076044)" style="fill: #0000ff"/>
   </g>
   <g id="patch_55">
    <path d="M 202.360888 103.0725 
L 268.827455 103.0725 
L 268.827455 95.985 
L 202.360888 95.985 
z
" clip-path="url(#pbda9076044)" style="fill: #0000ff"/>
   </g>
   <g id="patch_56">
    <path d="M 269.638023 99.794531 
L 272.880294 99.794531 
L 272.880294 99.262969 
L 269.638023 99.262969 
z
" clip-path="url(#pbda9076044)" style="fill: #0000ff"/>
   </g>
   <g id="patch_57">
    <path d="M 273.690862 103.0725 
L 357.989922 103.0725 
L 357.989922 95.985 
L 273.690862 95.985 
z
" clip-path="url(#pbda9076044)" style="fill: #0000ff"/>
   </g>
   <g id="patch_58">
    <path d="M 274.50143 103.0725 
L 353.937083 103.0725 
L 353.937083 95.985 
L 274.50143 95.985 
z
" clip-path="url(#pbda9076044)" style="fill: #0000ff"/>
   </g>
   <g id="patch_59">
    <path d="M 289.091652 103.0725 
L 359.611058 103.0725 
L 359.611058 95.985 
L 289.091652 95.985 
z
" clip-path="url(#pbda9076044)" style="fill: #0000ff"/>
   </g>
   <g id="patch_60">
    <path d="M 360.421626 99.794531 
L 363.663898 99.794531 
L 363.663898 99.262969 
L 360.421626 99.262969 
z
" clip-path="url(#pbda9076044)" style="fill: #0000ff"/>
   </g>
   <g id="patch_61">
    <path d="M 364.474465 103.0725 
L 450.394662 103.0725 
L 450.394662 95.985 
L 364.474465 95.985 
z
" clip-path="url(#pbda9076044)" style="fill: #0000ff"/>
   </g>
   <g id="patch_62">
    <path d="M 365.285033 103.0725 
L 431.7516 103.0725 
L 431.7516 95.985 
L 365.285033 95.985 
z
" clip-path="url(#pbda9076044)" style="fill: #0000ff"/>
   </g>
   <g id="patch_63">
    <path d="M 379.064687 103.0725 
L 450.394662 103.0725 
L 450.394662 95.985 
L 379.064687 95.985 
z
" clip-path="url(#pbda9076044)" style="fill: #0000ff"/>
   </g>
   <g id="patch_64">
    <path d="M 451.205229 99.794531 
L 459.310908 99.794531 
L 459.310908 99.262969 
L 451.205229 99.262969 
z
" clip-path="url(#pbda9076044)" style="fill: #0000ff"/>
   </g>
   <g id="patch_65">
    <path d="M 460.121476 103.0725 
L 535.50429 103.0725 
L 535.50429 95.985 
L 460.121476 95.985 
z
" clip-path="url(#pbda9076044)" style="fill: #0000ff"/>
   </g>
   <g id="patch_66">
    <path d="M 468.227155 103.0725 
L 535.50429 103.0725 
L 535.50429 95.985 
L 468.227155 95.985 
z
" clip-path="url(#pbda9076044)" style="fill: #0000ff"/>
   </g>
   <g id="patch_67">
    <path d="M 536.314858 99.794531 
L 716.260929 99.794531 
L 716.260929 99.262969 
L 536.314858 99.262969 
z
" clip-path="url(#pbda9076044)" style="fill: #0000ff"/>
   </g>
   <g id="patch_68">
    <path d="M 717.071497 103.0725 
L 761.65273 103.0725 
L 761.65273 95.985 
L 717.071497 95.985 
z
" clip-path="url(#pbda9076044)" style="fill: #0000ff"/>
   </g>
   <g id="patch_69">
    <path d="M 762.463298 99.794531 
L 994.285714 99.794531 
L 994.285714 99.262969 
L 762.463298 99.262969 
z
" clip-path="url(#pbda9076044)" style="fill: #0000ff"/>
   </g>
   <g id="patch_70">
    <path d="M 144 82.075781 
L 178.854419 82.075781 
L 178.854419 81.544219 
L 144 81.544219 
z
" clip-path="url(#pbda9076044)" style="fill: #0000ff"/>
   </g>
   <g id="patch_71">
    <path d="M 179.664987 85.35375 
L 257.479504 85.35375 
L 257.479504 78.26625 
L 179.664987 78.26625 
z
" clip-path="url(#pbda9076044)" style="fill: #0000ff"/>
   </g>
   <g id="patch_72">
    <path d="M 203.171456 85.35375 
L 234.783603 85.35375 
L 234.783603 78.26625 
L 203.171456 78.26625 
z
" clip-path="url(#pbda9076044)" style="fill: #0000ff"/>
   </g>
   <g id="patch_73">
    <path d="M 207.224295 85.35375 
L 259.10064 85.35375 
L 259.10064 78.26625 
L 207.224295 78.26625 
z
" clip-path="url(#pbda9076044)" style="fill: #0000ff"/>
   </g>
   <g id="patch_74">
    <path d="M 259.911208 82.075781 
L 264.774615 82.075781 
L 264.774615 81.544219 
L 259.911208 81.544219 
z
" clip-path="url(#pbda9076044)" style="fill: #0000ff"/>
   </g>
   <g id="patch_75">
    <path d="M 265.585183 85.35375 
L 348.263108 85.35375 
L 348.263108 78.26625 
L 265.585183 78.26625 
z
" clip-path="url(#pbda9076044)" style="fill: #0000ff"/>
   </g>
   <g id="patch_76">
    <path d="M 265.585183 85.35375 
L 344.210268 85.35375 
L 344.210268 78.26625 
L 265.585183 78.26625 
z
" clip-path="url(#pbda9076044)" style="fill: #0000ff"/>
   </g>
   <g id="patch_77">
    <path d="M 280.985973 85.35375 
L 349.884243 85.35375 
L 349.884243 78.26625 
L 280.985973 78.26625 
z
" clip-path="url(#pbda9076044)" style="fill: #0000ff"/>
   </g>
   <g id="patch_78">
    <path d="M 350.694811 82.075781 
L 460.121476 82.075781 
L 460.121476 81.544219 
L 350.694811 81.544219 
z
" clip-path="url(#pbda9076044)" style="fill: #0000ff"/>
   </g>
   <g id="patch_79">
    <path d="M 460.932044 85.35375 
L 534.693722 85.35375 
L 534.693722 78.26625 
L 460.932044 78.26625 
z
" clip-path="url(#pbda9076044)" style="fill: #0000ff"/>
   </g>
   <g id="patch_80">
    <path d="M 460.932044 85.35375 
L 529.830315 85.35375 
L 529.830315 78.26625 
L 460.932044 78.26625 
z
" clip-path="url(#pbda9076044)" style="fill: #0000ff"/>
   </g>
   <g id="patch_81">
    <path d="M 470.658859 85.35375 
L 536.314858 85.35375 
L 536.314858 78.26625 
L 470.658859 78.26625 
z
" clip-path="url(#pbda9076044)" style="fill: #0000ff"/>
   </g>
   <g id="patch_82">
    <path d="M 537.125426 82.075781 
L 811.90794 82.075781 
L 811.90794 81.544219 
L 537.125426 81.544219 
z
" clip-path="url(#pbda9076044)" style="fill: #0000ff"/>
   </g>
   <g id="patch_83">
    <path d="M 144 64.357031 
L 167.506469 64.357031 
L 167.506469 63.825469 
L 144 63.825469 
z
" clip-path="url(#pbda9076044)" style="fill: #0000ff"/>
   </g>
   <g id="patch_84">
    <path d="M 168.317037 67.635 
L 233.162468 67.635 
L 233.162468 60.5475 
L 168.317037 60.5475 
z
" clip-path="url(#pbda9076044)" style="fill: #0000ff"/>
   </g>
   <g id="patch_85">
    <path d="M 172.369876 67.635 
L 221.003949 67.635 
L 221.003949 60.5475 
L 172.369876 60.5475 
z
" clip-path="url(#pbda9076044)" style="fill: #0000ff"/>
   </g>
   <g id="patch_86">
    <path d="M 233.973036 64.357031 
L 255.858369 64.357031 
L 255.858369 63.825469 
L 233.973036 63.825469 
z
" clip-path="url(#pbda9076044)" style="fill: #0000ff"/>
   </g>
   <g id="patch_87">
    <path d="M 256.668936 67.635 
L 336.915157 67.635 
L 336.915157 60.5475 
L 256.668936 60.5475 
z
" clip-path="url(#pbda9076044)" style="fill: #0000ff"/>
   </g>
   <g id="patch_88">
    <path d="M 256.668936 67.635 
L 332.862318 67.635 
L 332.862318 60.5475 
L 256.668936 60.5475 
z
" clip-path="url(#pbda9076044)" style="fill: #0000ff"/>
   </g>
   <g id="patch_89">
    <path d="M 273.690862 67.635 
L 338.536293 67.635 
L 338.536293 60.5475 
L 273.690862 60.5475 
z
" clip-path="url(#pbda9076044)" style="fill: #0000ff"/>
   </g>
   <g id="patch_90">
    <path d="M 274.50143 67.635 
L 336.915157 67.635 
L 336.915157 60.5475 
L 274.50143 60.5475 
z
" clip-path="url(#pbda9076044)" style="fill: #0000ff"/>
   </g>
   <g id="patch_91">
    <path d="M 339.346861 64.357031 
L 342.589133 64.357031 
L 342.589133 63.825469 
L 339.346861 63.825469 
z
" clip-path="url(#pbda9076044)" style="fill: #0000ff"/>
   </g>
   <g id="patch_92">
    <path d="M 343.3997 67.635 
L 427.698761 67.635 
L 427.698761 60.5475 
L 343.3997 60.5475 
z
" clip-path="url(#pbda9076044)" style="fill: #0000ff"/>
   </g>
   <g id="patch_93">
    <path d="M 344.210268 67.635 
L 422.835353 67.635 
L 422.835353 60.5475 
L 344.210268 60.5475 
z
" clip-path="url(#pbda9076044)" style="fill: #0000ff"/>
   </g>
   <g id="patch_94">
    <path d="M 359.611058 67.635 
L 429.319897 67.635 
L 429.319897 60.5475 
L 359.611058 60.5475 
z
" clip-path="url(#pbda9076044)" style="fill: #0000ff"/>
   </g>
   <g id="patch_95">
    <path d="M 430.130464 64.357031 
L 433.372736 64.357031 
L 433.372736 63.825469 
L 430.130464 63.825469 
z
" clip-path="url(#pbda9076044)" style="fill: #0000ff"/>
   </g>
   <g id="patch_96">
    <path d="M 434.183304 67.635 
L 521.724636 67.635 
L 521.724636 60.5475 
L 434.183304 60.5475 
z
" clip-path="url(#pbda9076044)" style="fill: #0000ff"/>
   </g>
   <g id="patch_97">
    <path d="M 434.993872 67.635 
L 518.482364 67.635 
L 518.482364 60.5475 
L 434.993872 60.5475 
z
" clip-path="url(#pbda9076044)" style="fill: #0000ff"/>
   </g>
   <g id="patch_98">
    <path d="M 448.773526 67.635 
L 527.398611 67.635 
L 527.398611 60.5475 
L 448.773526 60.5475 
z
" clip-path="url(#pbda9076044)" style="fill: #0000ff"/>
   </g>
   <g id="patch_99">
    <path d="M 528.209179 64.357031 
L 528.209179 64.357031 
L 528.209179 63.825469 
L 528.209179 63.825469 
z
" clip-path="url(#pbda9076044)" style="fill: #0000ff"/>
   </g>
   <g id="patch_100">
    <path d="M 529.019747 67.635 
L 603.591992 67.635 
L 603.591992 60.5475 
L 529.019747 60.5475 
z
" clip-path="url(#pbda9076044)" style="fill: #0000ff"/>
   </g>
   <g id="patch_101">
    <path d="M 529.830315 67.635 
L 607.644832 67.635 
L 607.644832 60.5475 
L 529.830315 60.5475 
z
" clip-path="url(#pbda9076044)" style="fill: #0000ff"/>
   </g>
   <g id="patch_102">
    <path d="M 543.609969 67.635 
L 609.265968 67.635 
L 609.265968 60.5475 
L 543.609969 60.5475 
z
" clip-path="url(#pbda9076044)" style="fill: #0000ff"/>
   </g>
   <g id="patch_103">
    <path d="M 610.076535 64.357031 
L 832.982705 64.357031 
L 832.982705 63.825469 
L 610.076535 63.825469 
z
" clip-path="url(#pbda9076044)" style="fill: #0000ff"/>
   </g>
   <g id="patch_104">
    <path d="M 833.793273 67.635 
L 869.45826 67.635 
L 869.45826 60.5475 
L 833.793273 60.5475 
z
" clip-path="url(#pbda9076044)" style="fill: #0000ff"/>
   </g>
   <g id="patch_105">
    <path d="M 870.268827 64.357031 
L 873.511099 64.357031 
L 873.511099 63.825469 
L 870.268827 63.825469 
z
" clip-path="url(#pbda9076044)" style="fill: #0000ff"/>
   </g>
   <g id="patch_106">
    <path d="M 144 46.638281 
L 190.20237 46.638281 
L 190.20237 46.106719 
L 144 46.106719 
z
" clip-path="url(#pbda9076044)" style="fill: #0000ff"/>
   </g>
   <g id="patch_107">
    <path d="M 191.012937 49.91625 
L 268.827455 49.91625 
L 268.827455 42.82875 
L 191.012937 42.82875 
z
" clip-path="url(#pbda9076044)" style="fill: #0000ff"/>
   </g>
   <g id="patch_108">
    <path d="M 199.118616 49.91625 
L 264.774615 49.91625 
L 264.774615 42.82875 
L 199.118616 42.82875 
z
" clip-path="url(#pbda9076044)" style="fill: #0000ff"/>
   </g>
   <g id="patch_109">
    <path d="M 200.739752 49.91625 
L 268.827455 49.91625 
L 268.827455 42.82875 
L 200.739752 42.82875 
z
" clip-path="url(#pbda9076044)" style="fill: #0000ff"/>
   </g>
   <g id="patch_110">
    <path d="M 207.224295 49.91625 
L 270.44859 49.91625 
L 270.44859 42.82875 
L 207.224295 42.82875 
z
" clip-path="url(#pbda9076044)" style="fill: #0000ff"/>
   </g>
   <g id="patch_111">
    <path d="M 271.259158 46.638281 
L 274.50143 46.638281 
L 274.50143 46.106719 
L 271.259158 46.106719 
z
" clip-path="url(#pbda9076044)" style="fill: #0000ff"/>
   </g>
   <g id="patch_112">
    <path d="M 275.311998 49.91625 
L 357.179354 49.91625 
L 357.179354 42.82875 
L 275.311998 42.82875 
z
" clip-path="url(#pbda9076044)" style="fill: #0000ff"/>
   </g>
   <g id="patch_113">
    <path d="M 276.122566 49.91625 
L 353.126515 49.91625 
L 353.126515 42.82875 
L 276.122566 42.82875 
z
" clip-path="url(#pbda9076044)" style="fill: #0000ff"/>
   </g>
   <g id="patch_114">
    <path d="M 290.712788 49.91625 
L 358.80049 49.91625 
L 358.80049 42.82875 
L 290.712788 42.82875 
z
" clip-path="url(#pbda9076044)" style="fill: #0000ff"/>
   </g>
   <g id="patch_115">
    <path d="M 359.611058 46.638281 
L 362.85333 46.638281 
L 362.85333 46.106719 
L 359.611058 46.106719 
z
" clip-path="url(#pbda9076044)" style="fill: #0000ff"/>
   </g>
   <g id="patch_116">
    <path d="M 363.663898 49.91625 
L 450.394662 49.91625 
L 450.394662 42.82875 
L 363.663898 42.82875 
z
" clip-path="url(#pbda9076044)" style="fill: #0000ff"/>
   </g>
   <g id="patch_117">
    <path d="M 364.474465 49.91625 
L 425.267057 49.91625 
L 425.267057 42.82875 
L 364.474465 42.82875 
z
" clip-path="url(#pbda9076044)" style="fill: #0000ff"/>
   </g>
   <g id="patch_118">
    <path d="M 379.064687 49.91625 
L 452.015797 49.91625 
L 452.015797 42.82875 
L 379.064687 42.82875 
z
" clip-path="url(#pbda9076044)" style="fill: #0000ff"/>
   </g>
   <g id="patch_119">
    <path d="M 452.826365 46.638281 
L 456.068637 46.638281 
L 456.068637 46.106719 
L 452.826365 46.106719 
z
" clip-path="url(#pbda9076044)" style="fill: #0000ff"/>
   </g>
   <g id="patch_120">
    <path d="M 456.879205 49.91625 
L 535.50429 49.91625 
L 535.50429 42.82875 
L 456.879205 42.82875 
z
" clip-path="url(#pbda9076044)" style="fill: #0000ff"/>
   </g>
   <g id="patch_121">
    <path d="M 457.689773 49.91625 
L 531.45145 49.91625 
L 531.45145 42.82875 
L 457.689773 42.82875 
z
" clip-path="url(#pbda9076044)" style="fill: #0000ff"/>
   </g>
   <g id="patch_122">
    <path d="M 473.090562 49.91625 
L 537.125426 49.91625 
L 537.125426 42.82875 
L 473.090562 42.82875 
z
" clip-path="url(#pbda9076044)" style="fill: #0000ff"/>
   </g>
   <g id="patch_123">
    <path d="M 537.935993 46.638281 
L 540.367697 46.638281 
L 540.367697 46.106719 
L 537.935993 46.106719 
z
" clip-path="url(#pbda9076044)" style="fill: #0000ff"/>
   </g>
   <g id="patch_124">
    <path d="M 541.178265 49.91625 
L 620.613918 49.91625 
L 620.613918 42.82875 
L 541.178265 42.82875 
z
" clip-path="url(#pbda9076044)" style="fill: #0000ff"/>
   </g>
   <g id="patch_125">
    <path d="M 541.988833 49.91625 
L 620.613918 49.91625 
L 620.613918 42.82875 
L 541.988833 42.82875 
z
" clip-path="url(#pbda9076044)" style="fill: #0000ff"/>
   </g>
   <g id="patch_126">
    <path d="M 621.424486 46.638281 
L 658.710609 46.638281 
L 658.710609 46.106719 
L 621.424486 46.106719 
z
" clip-path="url(#pbda9076044)" style="fill: #0000ff"/>
   </g>
   <g id="patch_127">
    <path d="M 659.521177 49.91625 
L 777.05352 49.91625 
L 777.05352 42.82875 
L 659.521177 42.82875 
z
" clip-path="url(#pbda9076044)" style="fill: #0000ff"/>
   </g>
   <g id="patch_128">
    <path d="M 777.864088 46.638281 
L 783.538063 46.638281 
L 783.538063 46.106719 
L 777.864088 46.106719 
z
" clip-path="url(#pbda9076044)" style="fill: #0000ff"/>
   </g>
   <g id="patch_129">
    <path d="M 144 28.919531 
L 189.391802 28.919531 
L 189.391802 28.387969 
L 144 28.387969 
z
" clip-path="url(#pbda9076044)" style="fill: #0000ff"/>
   </g>
   <g id="patch_130">
    <path d="M 190.20237 32.1975 
L 267.206319 32.1975 
L 267.206319 25.11 
L 190.20237 25.11 
z
" clip-path="url(#pbda9076044)" style="fill: #0000ff"/>
   </g>
   <g id="patch_131">
    <path d="M 190.20237 32.1975 
L 263.15348 32.1975 
L 263.15348 25.11 
L 190.20237 25.11 
z
" clip-path="url(#pbda9076044)" style="fill: #0000ff"/>
   </g>
   <g id="patch_132">
    <path d="M 193.444641 32.1975 
L 267.206319 32.1975 
L 267.206319 25.11 
L 193.444641 25.11 
z
" clip-path="url(#pbda9076044)" style="fill: #0000ff"/>
   </g>
   <g id="patch_133">
    <path d="M 209.655999 32.1975 
L 268.827455 32.1975 
L 268.827455 25.11 
L 209.655999 25.11 
z
" clip-path="url(#pbda9076044)" style="fill: #0000ff"/>
   </g>
   <g id="patch_134">
    <path d="M 269.638023 28.919531 
L 275.311998 28.919531 
L 275.311998 28.387969 
L 269.638023 28.387969 
z
" clip-path="url(#pbda9076044)" style="fill: #0000ff"/>
   </g>
   <g id="patch_135">
    <path d="M 276.122566 32.1975 
L 351.505379 32.1975 
L 351.505379 25.11 
L 276.122566 25.11 
z
" clip-path="url(#pbda9076044)" style="fill: #0000ff"/>
   </g>
   <g id="patch_136">
    <path d="M 276.933134 32.1975 
L 356.368787 32.1975 
L 356.368787 25.11 
L 276.933134 25.11 
z
" clip-path="url(#pbda9076044)" style="fill: #0000ff"/>
   </g>
   <g id="patch_137">
    <path d="M 289.091652 32.1975 
L 357.989922 32.1975 
L 357.989922 25.11 
L 289.091652 25.11 
z
" clip-path="url(#pbda9076044)" style="fill: #0000ff"/>
   </g>
   <g id="patch_138">
    <path d="M 358.80049 28.919531 
L 362.042762 28.919531 
L 362.042762 28.387969 
L 358.80049 28.387969 
z
" clip-path="url(#pbda9076044)" style="fill: #0000ff"/>
   </g>
   <g id="patch_139">
    <path d="M 362.85333 32.1975 
L 448.773526 32.1975 
L 448.773526 25.11 
L 362.85333 25.11 
z
" clip-path="url(#pbda9076044)" style="fill: #0000ff"/>
   </g>
   <g id="patch_140">
    <path d="M 363.663898 32.1975 
L 447.15239 32.1975 
L 447.15239 25.11 
L 363.663898 25.11 
z
" clip-path="url(#pbda9076044)" style="fill: #0000ff"/>
   </g>
   <g id="patch_141">
    <path d="M 377.443552 32.1975 
L 448.773526 32.1975 
L 448.773526 25.11 
L 377.443552 25.11 
z
" clip-path="url(#pbda9076044)" style="fill: #0000ff"/>
   </g>
   <g id="patch_142">
    <path d="M 449.584094 28.919531 
L 468.227155 28.919531 
L 468.227155 28.387969 
L 449.584094 28.387969 
z
" clip-path="url(#pbda9076044)" style="fill: #0000ff"/>
   </g>
   <g id="patch_143">
    <path d="M 469.037723 32.1975 
L 541.178265 32.1975 
L 541.178265 25.11 
L 469.037723 25.11 
z
" clip-path="url(#pbda9076044)" style="fill: #0000ff"/>
   </g>
   <g id="patch_144">
    <path d="M 475.522266 32.1975 
L 542.799401 32.1975 
L 542.799401 25.11 
L 475.522266 25.11 
z
" clip-path="url(#pbda9076044)" style="fill: #0000ff"/>
   </g>
   <g id="patch_145">
    <path d="M 543.609969 28.919531 
L 952.946752 28.919531 
L 952.946752 28.387969 
L 543.609969 28.387969 
z
" clip-path="url(#pbda9076044)" style="fill: #0000ff"/>
   </g>
   <g id="matplotlib.axis_1">
    <g id="xtick_1">
     <g id="line2d_1">
      <defs>
       <path id="m793be347e8" d="M 0 0 
L 0 3.5 
" style="stroke: #000000; stroke-width: 0.8"/>
      </defs>
      <g>
       <use xlink:href="#m793be347e8" x="305.30301" y="144.18" style="stroke: #000000; stroke-width: 0.8"/>
      </g>
     </g>
     <g id="text_1">
      <!-- 200 -->
      <g transform="translate(295.75926 158.778437) scale(0.1 -0.1)">
       <defs>
        <path id="DejaVuSans-32" d="M 1228 531 
L 3431 531 
L 3431 0 
L 469 0 
L 469 531 
Q 828 903 1448 1529 
Q 2069 2156 2228 2338 
Q 2531 2678 2651 2914 
Q 2772 3150 2772 3378 
Q 2772 3750 2511 3984 
Q 2250 4219 1831 4219 
Q 1534 4219 1204 4116 
Q 875 4013 500 3803 
L 500 4441 
Q 881 4594 1212 4672 
Q 1544 4750 1819 4750 
Q 2544 4750 2975 4387 
Q 3406 4025 3406 3419 
Q 3406 3131 3298 2873 
Q 3191 2616 2906 2266 
Q 2828 2175 2409 1742 
Q 1991 1309 1228 531 
z
" transform="scale(0.015625)"/>
        <path id="DejaVuSans-30" d="M 2034 4250 
Q 1547 4250 1301 3770 
Q 1056 3291 1056 2328 
Q 1056 1369 1301 889 
Q 1547 409 2034 409 
Q 2525 409 2770 889 
Q 3016 1369 3016 2328 
Q 3016 3291 2770 3770 
Q 2525 4250 2034 4250 
z
M 2034 4750 
Q 2819 4750 3233 4129 
Q 3647 3509 3647 2328 
Q 3647 1150 3233 529 
Q 2819 -91 2034 -91 
Q 1250 -91 836 529 
Q 422 1150 422 2328 
Q 422 3509 836 4129 
Q 1250 4750 2034 4750 
z
" transform="scale(0.015625)"/>
       </defs>
       <use xlink:href="#DejaVuSans-32"/>
       <use xlink:href="#DejaVuSans-30" x="63.623047"/>
       <use xlink:href="#DejaVuSans-30" x="127.246094"/>
      </g>
     </g>
    </g>
    <g id="xtick_2">
     <g id="line2d_2">
      <g>
       <use xlink:href="#m793be347e8" x="467.416587" y="144.18" style="stroke: #000000; stroke-width: 0.8"/>
      </g>
     </g>
     <g id="text_2">
      <!-- 400 -->
      <g transform="translate(457.872837 158.778437) scale(0.1 -0.1)">
       <defs>
        <path id="DejaVuSans-34" d="M 2419 4116 
L 825 1625 
L 2419 1625 
L 2419 4116 
z
M 2253 4666 
L 3047 4666 
L 3047 1625 
L 3713 1625 
L 3713 1100 
L 3047 1100 
L 3047 0 
L 2419 0 
L 2419 1100 
L 313 1100 
L 313 1709 
L 2253 4666 
z
" transform="scale(0.015625)"/>
       </defs>
       <use xlink:href="#DejaVuSans-34"/>
       <use xlink:href="#DejaVuSans-30" x="63.623047"/>
       <use xlink:href="#DejaVuSans-30" x="127.246094"/>
      </g>
     </g>
    </g>
    <g id="xtick_3">
     <g id="line2d_3">
      <g>
       <use xlink:href="#m793be347e8" x="629.530165" y="144.18" style="stroke: #000000; stroke-width: 0.8"/>
      </g>
     </g>
     <g id="text_3">
      <!-- 600 -->
      <g transform="translate(619.986415 158.778437) scale(0.1 -0.1)">
       <defs>
        <path id="DejaVuSans-36" d="M 2113 2584 
Q 1688 2584 1439 2293 
Q 1191 2003 1191 1497 
Q 1191 994 1439 701 
Q 1688 409 2113 409 
Q 2538 409 2786 701 
Q 3034 994 3034 1497 
Q 3034 2003 2786 2293 
Q 2538 2584 2113 2584 
z
M 3366 4563 
L 3366 3988 
Q 3128 4100 2886 4159 
Q 2644 4219 2406 4219 
Q 1781 4219 1451 3797 
Q 1122 3375 1075 2522 
Q 1259 2794 1537 2939 
Q 1816 3084 2150 3084 
Q 2853 3084 3261 2657 
Q 3669 2231 3669 1497 
Q 3669 778 3244 343 
Q 2819 -91 2113 -91 
Q 1303 -91 875 529 
Q 447 1150 447 2328 
Q 447 3434 972 4092 
Q 1497 4750 2381 4750 
Q 2619 4750 2861 4703 
Q 3103 4656 3366 4563 
z
" transform="scale(0.015625)"/>
       </defs>
       <use xlink:href="#DejaVuSans-36"/>
       <use xlink:href="#DejaVuSans-30" x="63.623047"/>
       <use xlink:href="#DejaVuSans-30" x="127.246094"/>
      </g>
     </g>
    </g>
    <g id="xtick_4">
     <g id="line2d_4">
      <g>
       <use xlink:href="#m793be347e8" x="791.643742" y="144.18" style="stroke: #000000; stroke-width: 0.8"/>
      </g>
     </g>
     <g id="text_4">
      <!-- 800 -->
      <g transform="translate(782.099992 158.778437) scale(0.1 -0.1)">
       <defs>
        <path id="DejaVuSans-38" d="M 2034 2216 
Q 1584 2216 1326 1975 
Q 1069 1734 1069 1313 
Q 1069 891 1326 650 
Q 1584 409 2034 409 
Q 2484 409 2743 651 
Q 3003 894 3003 1313 
Q 3003 1734 2745 1975 
Q 2488 2216 2034 2216 
z
M 1403 2484 
Q 997 2584 770 2862 
Q 544 3141 544 3541 
Q 544 4100 942 4425 
Q 1341 4750 2034 4750 
Q 2731 4750 3128 4425 
Q 3525 4100 3525 3541 
Q 3525 3141 3298 2862 
Q 3072 2584 2669 2484 
Q 3125 2378 3379 2068 
Q 3634 1759 3634 1313 
Q 3634 634 3220 271 
Q 2806 -91 2034 -91 
Q 1263 -91 848 271 
Q 434 634 434 1313 
Q 434 1759 690 2068 
Q 947 2378 1403 2484 
z
M 1172 3481 
Q 1172 3119 1398 2916 
Q 1625 2713 2034 2713 
Q 2441 2713 2670 2916 
Q 2900 3119 2900 3481 
Q 2900 3844 2670 4047 
Q 2441 4250 2034 4250 
Q 1625 4250 1398 4047 
Q 1172 3844 1172 3481 
z
" transform="scale(0.015625)"/>
       </defs>
       <use xlink:href="#DejaVuSans-38"/>
       <use xlink:href="#DejaVuSans-30" x="63.623047"/>
       <use xlink:href="#DejaVuSans-30" x="127.246094"/>
      </g>
     </g>
    </g>
    <g id="xtick_5">
     <g id="line2d_5">
      <g>
       <use xlink:href="#m793be347e8" x="953.75732" y="144.18" style="stroke: #000000; stroke-width: 0.8"/>
      </g>
     </g>
     <g id="text_5">
      <!-- 1000 -->
      <g transform="translate(941.03232 158.778437) scale(0.1 -0.1)">
       <defs>
        <path id="DejaVuSans-31" d="M 794 531 
L 1825 531 
L 1825 4091 
L 703 3866 
L 703 4441 
L 1819 4666 
L 2450 4666 
L 2450 531 
L 3481 531 
L 3481 0 
L 794 0 
L 794 531 
z
" transform="scale(0.015625)"/>
       </defs>
       <use xlink:href="#DejaVuSans-31"/>
       <use xlink:href="#DejaVuSans-30" x="63.623047"/>
       <use xlink:href="#DejaVuSans-30" x="127.246094"/>
       <use xlink:href="#DejaVuSans-30" x="190.869141"/>
      </g>
     </g>
    </g>
    <g id="text_6">
     <!-- Residual -->
     <g transform="translate(569.284375 172.456563) scale(0.1 -0.1)">
      <defs>
       <path id="DejaVuSans-52" d="M 2841 2188 
Q 3044 2119 3236 1894 
Q 3428 1669 3622 1275 
L 4263 0 
L 3584 0 
L 2988 1197 
Q 2756 1666 2539 1819 
Q 2322 1972 1947 1972 
L 1259 1972 
L 1259 0 
L 628 0 
L 628 4666 
L 2053 4666 
Q 2853 4666 3247 4331 
Q 3641 3997 3641 3322 
Q 3641 2881 3436 2590 
Q 3231 2300 2841 2188 
z
M 1259 4147 
L 1259 2491 
L 2053 2491 
Q 2509 2491 2742 2702 
Q 2975 2913 2975 3322 
Q 2975 3731 2742 3939 
Q 2509 4147 2053 4147 
L 1259 4147 
z
" transform="scale(0.015625)"/>
       <path id="DejaVuSans-65" d="M 3597 1894 
L 3597 1613 
L 953 1613 
Q 991 1019 1311 708 
Q 1631 397 2203 397 
Q 2534 397 2845 478 
Q 3156 559 3463 722 
L 3463 178 
Q 3153 47 2828 -22 
Q 2503 -91 2169 -91 
Q 1331 -91 842 396 
Q 353 884 353 1716 
Q 353 2575 817 3079 
Q 1281 3584 2069 3584 
Q 2775 3584 3186 3129 
Q 3597 2675 3597 1894 
z
M 3022 2063 
Q 3016 2534 2758 2815 
Q 2500 3097 2075 3097 
Q 1594 3097 1305 2825 
Q 1016 2553 972 2059 
L 3022 2063 
z
" transform="scale(0.015625)"/>
       <path id="DejaVuSans-73" d="M 2834 3397 
L 2834 2853 
Q 2591 2978 2328 3040 
Q 2066 3103 1784 3103 
Q 1356 3103 1142 2972 
Q 928 2841 928 2578 
Q 928 2378 1081 2264 
Q 1234 2150 1697 2047 
L 1894 2003 
Q 2506 1872 2764 1633 
Q 3022 1394 3022 966 
Q 3022 478 2636 193 
Q 2250 -91 1575 -91 
Q 1294 -91 989 -36 
Q 684 19 347 128 
L 347 722 
Q 666 556 975 473 
Q 1284 391 1588 391 
Q 1994 391 2212 530 
Q 2431 669 2431 922 
Q 2431 1156 2273 1281 
Q 2116 1406 1581 1522 
L 1381 1569 
Q 847 1681 609 1914 
Q 372 2147 372 2553 
Q 372 3047 722 3315 
Q 1072 3584 1716 3584 
Q 2034 3584 2315 3537 
Q 2597 3491 2834 3397 
z
" transform="scale(0.015625)"/>
       <path id="DejaVuSans-69" d="M 603 3500 
L 1178 3500 
L 1178 0 
L 603 0 
L 603 3500 
z
M 603 4863 
L 1178 4863 
L 1178 4134 
L 603 4134 
L 603 4863 
z
" transform="scale(0.015625)"/>
       <path id="DejaVuSans-64" d="M 2906 2969 
L 2906 4863 
L 3481 4863 
L 3481 0 
L 2906 0 
L 2906 525 
Q 2725 213 2448 61 
Q 2172 -91 1784 -91 
Q 1150 -91 751 415 
Q 353 922 353 1747 
Q 353 2572 751 3078 
Q 1150 3584 1784 3584 
Q 2172 3584 2448 3432 
Q 2725 3281 2906 2969 
z
M 947 1747 
Q 947 1113 1208 752 
Q 1469 391 1925 391 
Q 2381 391 2643 752 
Q 2906 1113 2906 1747 
Q 2906 2381 2643 2742 
Q 2381 3103 1925 3103 
Q 1469 3103 1208 2742 
Q 947 2381 947 1747 
z
" transform="scale(0.015625)"/>
       <path id="DejaVuSans-75" d="M 544 1381 
L 544 3500 
L 1119 3500 
L 1119 1403 
Q 1119 906 1312 657 
Q 1506 409 1894 409 
Q 2359 409 2629 706 
Q 2900 1003 2900 1516 
L 2900 3500 
L 3475 3500 
L 3475 0 
L 2900 0 
L 2900 538 
Q 2691 219 2414 64 
Q 2138 -91 1772 -91 
Q 1169 -91 856 284 
Q 544 659 544 1381 
z
M 1991 3584 
L 1991 3584 
z
" transform="scale(0.015625)"/>
       <path id="DejaVuSans-61" d="M 2194 1759 
Q 1497 1759 1228 1600 
Q 959 1441 959 1056 
Q 959 750 1161 570 
Q 1363 391 1709 391 
Q 2188 391 2477 730 
Q 2766 1069 2766 1631 
L 2766 1759 
L 2194 1759 
z
M 3341 1997 
L 3341 0 
L 2766 0 
L 2766 531 
Q 2569 213 2275 61 
Q 1981 -91 1556 -91 
Q 1019 -91 701 211 
Q 384 513 384 1019 
Q 384 1609 779 1909 
Q 1175 2209 1959 2209 
L 2766 2209 
L 2766 2266 
Q 2766 2663 2505 2880 
Q 2244 3097 1772 3097 
Q 1472 3097 1187 3025 
Q 903 2953 641 2809 
L 641 3341 
Q 956 3463 1253 3523 
Q 1550 3584 1831 3584 
Q 2591 3584 2966 3190 
Q 3341 2797 3341 1997 
z
" transform="scale(0.015625)"/>
       <path id="DejaVuSans-6c" d="M 603 4863 
L 1178 4863 
L 1178 0 
L 603 0 
L 603 4863 
z
" transform="scale(0.015625)"/>
      </defs>
      <use xlink:href="#DejaVuSans-52"/>
      <use xlink:href="#DejaVuSans-65" x="64.982422"/>
      <use xlink:href="#DejaVuSans-73" x="126.505859"/>
      <use xlink:href="#DejaVuSans-69" x="178.605469"/>
      <use xlink:href="#DejaVuSans-64" x="206.388672"/>
      <use xlink:href="#DejaVuSans-75" x="269.865234"/>
      <use xlink:href="#DejaVuSans-61" x="333.244141"/>
      <use xlink:href="#DejaVuSans-6c" x="394.523438"/>
     </g>
    </g>
   </g>
   <g id="matplotlib.axis_2">
    <g id="ytick_1">
     <g id="line2d_6">
      <defs>
       <path id="m1b26790409" d="M 0 0 
L -3.5 0 
" style="stroke: #000000; stroke-width: 0.8"/>
      </defs>
      <g>
       <use xlink:href="#m1b26790409" x="144" y="134.96625" style="stroke: #000000; stroke-width: 0.8"/>
      </g>
     </g>
     <g id="text_7">
      <!-- 8.A.204.1.1 -->
      <g transform="translate(79.446875 138.765469) scale(0.1 -0.1)">
       <defs>
        <path id="DejaVuSans-2e" d="M 684 794 
L 1344 794 
L 1344 0 
L 684 0 
L 684 794 
z
" transform="scale(0.015625)"/>
        <path id="DejaVuSans-41" d="M 2188 4044 
L 1331 1722 
L 3047 1722 
L 2188 4044 
z
M 1831 4666 
L 2547 4666 
L 4325 0 
L 3669 0 
L 3244 1197 
L 1141 1197 
L 716 0 
L 50 0 
L 1831 4666 
z
" transform="scale(0.015625)"/>
       </defs>
       <use xlink:href="#DejaVuSans-38"/>
       <use xlink:href="#DejaVuSans-2e" x="63.623047"/>
       <use xlink:href="#DejaVuSans-41" x="95.410156"/>
       <use xlink:href="#DejaVuSans-2e" x="162.068359"/>
       <use xlink:href="#DejaVuSans-32" x="193.855469"/>
       <use xlink:href="#DejaVuSans-30" x="257.478516"/>
       <use xlink:href="#DejaVuSans-34" x="321.101562"/>
       <use xlink:href="#DejaVuSans-2e" x="384.724609"/>
       <use xlink:href="#DejaVuSans-31" x="416.511719"/>
       <use xlink:href="#DejaVuSans-2e" x="480.134766"/>
       <use xlink:href="#DejaVuSans-31" x="511.921875"/>
      </g>
     </g>
    </g>
    <g id="ytick_2">
     <g id="line2d_7">
      <g>
       <use xlink:href="#m1b26790409" x="144" y="117.2475" style="stroke: #000000; stroke-width: 0.8"/>
      </g>
     </g>
     <g id="text_8">
      <!-- 8.A.204.1.2 -->
      <g transform="translate(79.446875 121.046719) scale(0.1 -0.1)">
       <use xlink:href="#DejaVuSans-38"/>
       <use xlink:href="#DejaVuSans-2e" x="63.623047"/>
       <use xlink:href="#DejaVuSans-41" x="95.410156"/>
       <use xlink:href="#DejaVuSans-2e" x="162.068359"/>
       <use xlink:href="#DejaVuSans-32" x="193.855469"/>
       <use xlink:href="#DejaVuSans-30" x="257.478516"/>
       <use xlink:href="#DejaVuSans-34" x="321.101562"/>
       <use xlink:href="#DejaVuSans-2e" x="384.724609"/>
       <use xlink:href="#DejaVuSans-31" x="416.511719"/>
       <use xlink:href="#DejaVuSans-2e" x="480.134766"/>
       <use xlink:href="#DejaVuSans-32" x="511.921875"/>
      </g>
     </g>
    </g>
    <g id="ytick_3">
     <g id="line2d_8">
      <g>
       <use xlink:href="#m1b26790409" x="144" y="99.52875" style="stroke: #000000; stroke-width: 0.8"/>
      </g>
     </g>
     <g id="text_9">
      <!-- 8.A.204.1.3 -->
      <g transform="translate(79.446875 103.327969) scale(0.1 -0.1)">
       <defs>
        <path id="DejaVuSans-33" d="M 2597 2516 
Q 3050 2419 3304 2112 
Q 3559 1806 3559 1356 
Q 3559 666 3084 287 
Q 2609 -91 1734 -91 
Q 1441 -91 1130 -33 
Q 819 25 488 141 
L 488 750 
Q 750 597 1062 519 
Q 1375 441 1716 441 
Q 2309 441 2620 675 
Q 2931 909 2931 1356 
Q 2931 1769 2642 2001 
Q 2353 2234 1838 2234 
L 1294 2234 
L 1294 2753 
L 1863 2753 
Q 2328 2753 2575 2939 
Q 2822 3125 2822 3475 
Q 2822 3834 2567 4026 
Q 2313 4219 1838 4219 
Q 1578 4219 1281 4162 
Q 984 4106 628 3988 
L 628 4550 
Q 988 4650 1302 4700 
Q 1616 4750 1894 4750 
Q 2613 4750 3031 4423 
Q 3450 4097 3450 3541 
Q 3450 3153 3228 2886 
Q 3006 2619 2597 2516 
z
" transform="scale(0.015625)"/>
       </defs>
       <use xlink:href="#DejaVuSans-38"/>
       <use xlink:href="#DejaVuSans-2e" x="63.623047"/>
       <use xlink:href="#DejaVuSans-41" x="95.410156"/>
       <use xlink:href="#DejaVuSans-2e" x="162.068359"/>
       <use xlink:href="#DejaVuSans-32" x="193.855469"/>
       <use xlink:href="#DejaVuSans-30" x="257.478516"/>
       <use xlink:href="#DejaVuSans-34" x="321.101562"/>
       <use xlink:href="#DejaVuSans-2e" x="384.724609"/>
       <use xlink:href="#DejaVuSans-31" x="416.511719"/>
       <use xlink:href="#DejaVuSans-2e" x="480.134766"/>
       <use xlink:href="#DejaVuSans-33" x="511.921875"/>
      </g>
     </g>
    </g>
    <g id="ytick_4">
     <g id="line2d_9">
      <g>
       <use xlink:href="#m1b26790409" x="144" y="81.81" style="stroke: #000000; stroke-width: 0.8"/>
      </g>
     </g>
     <g id="text_10">
      <!-- 8.A.204.1.4 -->
      <g transform="translate(79.446875 85.609219) scale(0.1 -0.1)">
       <use xlink:href="#DejaVuSans-38"/>
       <use xlink:href="#DejaVuSans-2e" x="63.623047"/>
       <use xlink:href="#DejaVuSans-41" x="95.410156"/>
       <use xlink:href="#DejaVuSans-2e" x="162.068359"/>
       <use xlink:href="#DejaVuSans-32" x="193.855469"/>
       <use xlink:href="#DejaVuSans-30" x="257.478516"/>
       <use xlink:href="#DejaVuSans-34" x="321.101562"/>
       <use xlink:href="#DejaVuSans-2e" x="384.724609"/>
       <use xlink:href="#DejaVuSans-31" x="416.511719"/>
       <use xlink:href="#DejaVuSans-2e" x="480.134766"/>
       <use xlink:href="#DejaVuSans-34" x="511.921875"/>
      </g>
     </g>
    </g>
    <g id="ytick_5">
     <g id="line2d_10">
      <g>
       <use xlink:href="#m1b26790409" x="144" y="64.09125" style="stroke: #000000; stroke-width: 0.8"/>
      </g>
     </g>
     <g id="text_11">
      <!-- 8.A.204.1.5 -->
      <g transform="translate(79.446875 67.890469) scale(0.1 -0.1)">
       <defs>
        <path id="DejaVuSans-35" d="M 691 4666 
L 3169 4666 
L 3169 4134 
L 1269 4134 
L 1269 2991 
Q 1406 3038 1543 3061 
Q 1681 3084 1819 3084 
Q 2600 3084 3056 2656 
Q 3513 2228 3513 1497 
Q 3513 744 3044 326 
Q 2575 -91 1722 -91 
Q 1428 -91 1123 -41 
Q 819 9 494 109 
L 494 744 
Q 775 591 1075 516 
Q 1375 441 1709 441 
Q 2250 441 2565 725 
Q 2881 1009 2881 1497 
Q 2881 1984 2565 2268 
Q 2250 2553 1709 2553 
Q 1456 2553 1204 2497 
Q 953 2441 691 2322 
L 691 4666 
z
" transform="scale(0.015625)"/>
       </defs>
       <use xlink:href="#DejaVuSans-38"/>
       <use xlink:href="#DejaVuSans-2e" x="63.623047"/>
       <use xlink:href="#DejaVuSans-41" x="95.410156"/>
       <use xlink:href="#DejaVuSans-2e" x="162.068359"/>
       <use xlink:href="#DejaVuSans-32" x="193.855469"/>
       <use xlink:href="#DejaVuSans-30" x="257.478516"/>
       <use xlink:href="#DejaVuSans-34" x="321.101562"/>
       <use xlink:href="#DejaVuSans-2e" x="384.724609"/>
       <use xlink:href="#DejaVuSans-31" x="416.511719"/>
       <use xlink:href="#DejaVuSans-2e" x="480.134766"/>
       <use xlink:href="#DejaVuSans-35" x="511.921875"/>
      </g>
     </g>
    </g>
    <g id="ytick_6">
     <g id="line2d_11">
      <g>
       <use xlink:href="#m1b26790409" x="144" y="46.3725" style="stroke: #000000; stroke-width: 0.8"/>
      </g>
     </g>
     <g id="text_12">
      <!-- 8.A.204.1.6 -->
      <g transform="translate(79.446875 50.171719) scale(0.1 -0.1)">
       <use xlink:href="#DejaVuSans-38"/>
       <use xlink:href="#DejaVuSans-2e" x="63.623047"/>
       <use xlink:href="#DejaVuSans-41" x="95.410156"/>
       <use xlink:href="#DejaVuSans-2e" x="162.068359"/>
       <use xlink:href="#DejaVuSans-32" x="193.855469"/>
       <use xlink:href="#DejaVuSans-30" x="257.478516"/>
       <use xlink:href="#DejaVuSans-34" x="321.101562"/>
       <use xlink:href="#DejaVuSans-2e" x="384.724609"/>
       <use xlink:href="#DejaVuSans-31" x="416.511719"/>
       <use xlink:href="#DejaVuSans-2e" x="480.134766"/>
       <use xlink:href="#DejaVuSans-36" x="511.921875"/>
      </g>
     </g>
    </g>
    <g id="ytick_7">
     <g id="line2d_12">
      <g>
       <use xlink:href="#m1b26790409" x="144" y="28.65375" style="stroke: #000000; stroke-width: 0.8"/>
      </g>
     </g>
     <g id="text_13">
      <!-- 8.A.204.1.7 -->
      <g transform="translate(79.446875 32.452969) scale(0.1 -0.1)">
       <defs>
        <path id="DejaVuSans-37" d="M 525 4666 
L 3525 4666 
L 3525 4397 
L 1831 0 
L 1172 0 
L 2766 4134 
L 525 4134 
L 525 4666 
z
" transform="scale(0.015625)"/>
       </defs>
       <use xlink:href="#DejaVuSans-38"/>
       <use xlink:href="#DejaVuSans-2e" x="63.623047"/>
       <use xlink:href="#DejaVuSans-41" x="95.410156"/>
       <use xlink:href="#DejaVuSans-2e" x="162.068359"/>
       <use xlink:href="#DejaVuSans-32" x="193.855469"/>
       <use xlink:href="#DejaVuSans-30" x="257.478516"/>
       <use xlink:href="#DejaVuSans-34" x="321.101562"/>
       <use xlink:href="#DejaVuSans-2e" x="384.724609"/>
       <use xlink:href="#DejaVuSans-31" x="416.511719"/>
       <use xlink:href="#DejaVuSans-2e" x="480.134766"/>
       <use xlink:href="#DejaVuSans-37" x="511.921875"/>
      </g>
     </g>
    </g>
   </g>
   <g id="patch_146">
    <path d="M 144 144.18 
L 144 19.44 
" style="fill: none; stroke: #000000; stroke-width: 0.8; stroke-linejoin: miter; stroke-linecap: square"/>
   </g>
   <g id="patch_147">
    <path d="M 1036.8 144.18 
L 1036.8 19.44 
" style="fill: none; stroke: #000000; stroke-width: 0.8; stroke-linejoin: miter; stroke-linecap: square"/>
   </g>
   <g id="patch_148">
    <path d="M 144 144.18 
L 1036.8 144.18 
" style="fill: none; stroke: #000000; stroke-width: 0.8; stroke-linejoin: miter; stroke-linecap: square"/>
   </g>
   <g id="patch_149">
    <path d="M 144 19.44 
L 1036.8 19.44 
" style="fill: none; stroke: #000000; stroke-width: 0.8; stroke-linejoin: miter; stroke-linecap: square"/>
   </g>
   <g id="text_14">
    <!-- 8.A.204 Summary -->
    <g transform="translate(536.415 13.44) scale(0.12 -0.12)">
     <defs>
      <path id="DejaVuSans-20" transform="scale(0.015625)"/>
      <path id="DejaVuSans-53" d="M 3425 4513 
L 3425 3897 
Q 3066 4069 2747 4153 
Q 2428 4238 2131 4238 
Q 1616 4238 1336 4038 
Q 1056 3838 1056 3469 
Q 1056 3159 1242 3001 
Q 1428 2844 1947 2747 
L 2328 2669 
Q 3034 2534 3370 2195 
Q 3706 1856 3706 1288 
Q 3706 609 3251 259 
Q 2797 -91 1919 -91 
Q 1588 -91 1214 -16 
Q 841 59 441 206 
L 441 856 
Q 825 641 1194 531 
Q 1563 422 1919 422 
Q 2459 422 2753 634 
Q 3047 847 3047 1241 
Q 3047 1584 2836 1778 
Q 2625 1972 2144 2069 
L 1759 2144 
Q 1053 2284 737 2584 
Q 422 2884 422 3419 
Q 422 4038 858 4394 
Q 1294 4750 2059 4750 
Q 2388 4750 2728 4690 
Q 3069 4631 3425 4513 
z
" transform="scale(0.015625)"/>
      <path id="DejaVuSans-6d" d="M 3328 2828 
Q 3544 3216 3844 3400 
Q 4144 3584 4550 3584 
Q 5097 3584 5394 3201 
Q 5691 2819 5691 2113 
L 5691 0 
L 5113 0 
L 5113 2094 
Q 5113 2597 4934 2840 
Q 4756 3084 4391 3084 
Q 3944 3084 3684 2787 
Q 3425 2491 3425 1978 
L 3425 0 
L 2847 0 
L 2847 2094 
Q 2847 2600 2669 2842 
Q 2491 3084 2119 3084 
Q 1678 3084 1418 2786 
Q 1159 2488 1159 1978 
L 1159 0 
L 581 0 
L 581 3500 
L 1159 3500 
L 1159 2956 
Q 1356 3278 1631 3431 
Q 1906 3584 2284 3584 
Q 2666 3584 2933 3390 
Q 3200 3197 3328 2828 
z
" transform="scale(0.015625)"/>
      <path id="DejaVuSans-72" d="M 2631 2963 
Q 2534 3019 2420 3045 
Q 2306 3072 2169 3072 
Q 1681 3072 1420 2755 
Q 1159 2438 1159 1844 
L 1159 0 
L 581 0 
L 581 3500 
L 1159 3500 
L 1159 2956 
Q 1341 3275 1631 3429 
Q 1922 3584 2338 3584 
Q 2397 3584 2469 3576 
Q 2541 3569 2628 3553 
L 2631 2963 
z
" transform="scale(0.015625)"/>
      <path id="DejaVuSans-79" d="M 2059 -325 
Q 1816 -950 1584 -1140 
Q 1353 -1331 966 -1331 
L 506 -1331 
L 506 -850 
L 844 -850 
Q 1081 -850 1212 -737 
Q 1344 -625 1503 -206 
L 1606 56 
L 191 3500 
L 800 3500 
L 1894 763 
L 2988 3500 
L 3597 3500 
L 2059 -325 
z
" transform="scale(0.015625)"/>
     </defs>
     <use xlink:href="#DejaVuSans-38"/>
     <use xlink:href="#DejaVuSans-2e" x="63.623047"/>
     <use xlink:href="#DejaVuSans-41" x="95.410156"/>
     <use xlink:href="#DejaVuSans-2e" x="162.068359"/>
     <use xlink:href="#DejaVuSans-32" x="193.855469"/>
     <use xlink:href="#DejaVuSans-30" x="257.478516"/>
     <use xlink:href="#DejaVuSans-34" x="321.101562"/>
     <use xlink:href="#DejaVuSans-20" x="384.724609"/>
     <use xlink:href="#DejaVuSans-53" x="416.511719"/>
     <use xlink:href="#DejaVuSans-75" x="479.988281"/>
     <use xlink:href="#DejaVuSans-6d" x="543.367188"/>
     <use xlink:href="#DejaVuSans-6d" x="640.779297"/>
     <use xlink:href="#DejaVuSans-61" x="738.191406"/>
     <use xlink:href="#DejaVuSans-72" x="799.470703"/>
     <use xlink:href="#DejaVuSans-79" x="840.583984"/>
    </g>
   </g>
  </g>
 </g>
 <defs>
  <clipPath id="pbda9076044">
   <rect x="144" y="19.44" width="892.8" height="124.74"/>
  </clipPath>
 </defs>
</svg>
