<?xml version="1.0" encoding="utf-8" standalone="no"?>
<!DOCTYPE svg PUBLIC "-//W3C//DTD SVG 1.1//EN"
  "http://www.w3.org/Graphics/SVG/1.1/DTD/svg11.dtd">
<svg xmlns:xlink="http://www.w3.org/1999/xlink" width="1152pt" height="306pt" viewBox="0 0 1152 306" xmlns="http://www.w3.org/2000/svg" version="1.1">
 <metadata>
  <rdf:RDF xmlns:dc="http://purl.org/dc/elements/1.1/" xmlns:cc="http://creativecommons.org/ns#" xmlns:rdf="http://www.w3.org/1999/02/22-rdf-syntax-ns#">
   <cc:Work>
    <dc:type rdf:resource="http://purl.org/dc/dcmitype/StillImage"/>
    <dc:date>2024-10-10T19:20:49.461744</dc:date>
    <dc:format>image/svg+xml</dc:format>
    <dc:creator>
     <cc:Agent>
      <dc:title>Matplotlib v3.9.2, https://matplotlib.org/</dc:title>
     </cc:Agent>
    </dc:creator>
   </cc:Work>
  </rdf:RDF>
 </metadata>
 <defs>
  <style type="text/css">*{stroke-linejoin: round; stroke-linecap: butt}</style>
 </defs>
 <g id="figure_1">
  <g id="patch_1">
   <path d="M 0 306 
L 1152 306 
L 1152 0 
L 0 0 
z
" style="fill: #ffffff"/>
  </g>
  <g id="axes_1">
   <g id="patch_2">
    <path d="M 144 272.34 
L 1036.8 272.34 
L 1036.8 36.72 
L 144 36.72 
z
" style="fill: #ffffff"/>
   </g>
   <g id="patch_3">
    <path d="M 144 258.878125 
L 202.809387 258.878125 
L 202.809387 258.431875 
L 144 258.431875 
z
" clip-path="url(#p8dc27bbba9)" style="fill: #0000ff"/>
   </g>
   <g id="patch_4">
    <path d="M 203.626184 261.63 
L 228.130095 261.63 
L 228.130095 255.68 
L 203.626184 255.68 
z
" clip-path="url(#p8dc27bbba9)" style="fill: #0000ff"/>
   </g>
   <g id="patch_5">
    <path d="M 203.626184 261.63 
L 230.580486 261.63 
L 230.580486 255.68 
L 203.626184 255.68 
z
" clip-path="url(#p8dc27bbba9)" style="fill: #0000ff"/>
   </g>
   <g id="patch_6">
    <path d="M 203.626184 261.63 
L 230.580486 261.63 
L 230.580486 255.68 
L 203.626184 255.68 
z
" clip-path="url(#p8dc27bbba9)" style="fill: #0000ff"/>
   </g>
   <g id="patch_7">
    <path d="M 231.397283 261.63 
L 264.885961 261.63 
L 264.885961 255.68 
L 231.397283 255.68 
z
" clip-path="url(#p8dc27bbba9)" style="fill: #0000ff"/>
   </g>
   <g id="patch_8">
    <path d="M 234.664471 261.63 
L 314.71058 261.63 
L 314.71058 255.68 
L 234.664471 255.68 
z
" clip-path="url(#p8dc27bbba9)" style="fill: #0000ff"/>
   </g>
   <g id="patch_9">
    <path d="M 301.641828 261.63 
L 509.108275 261.63 
L 509.108275 255.68 
L 301.641828 255.68 
z
" clip-path="url(#p8dc27bbba9)" style="fill: #0000ff"/>
   </g>
   <g id="patch_10">
    <path d="M 319.611363 261.63 
L 505.841087 261.63 
L 505.841087 255.68 
L 319.611363 255.68 
z
" clip-path="url(#p8dc27bbba9)" style="fill: #0000ff"/>
   </g>
   <g id="patch_11">
    <path d="M 320.42816 261.63 
L 508.291478 261.63 
L 508.291478 255.68 
L 320.42816 255.68 
z
" clip-path="url(#p8dc27bbba9)" style="fill: #0000ff"/>
   </g>
   <g id="patch_12">
    <path d="M 320.42816 261.63 
L 505.841087 261.63 
L 505.841087 255.68 
L 320.42816 255.68 
z
" clip-path="url(#p8dc27bbba9)" style="fill: #0000ff"/>
   </g>
   <g id="patch_13">
    <path d="M 329.412927 261.63 
L 422.527789 261.63 
L 422.527789 255.68 
L 329.412927 255.68 
z
" clip-path="url(#p8dc27bbba9)" style="fill: #0000ff"/>
   </g>
   <g id="patch_14">
    <path d="M 509.925072 258.878125 
L 514.009057 258.878125 
L 514.009057 258.431875 
L 509.925072 258.431875 
z
" clip-path="url(#p8dc27bbba9)" style="fill: #0000ff"/>
   </g>
   <g id="patch_15">
    <path d="M 144 244.003125 
L 188.10704 244.003125 
L 188.10704 243.556875 
L 144 243.556875 
z
" clip-path="url(#p8dc27bbba9)" style="fill: #0000ff"/>
   </g>
   <g id="patch_16">
    <path d="M 188.923837 246.755 
L 214.244545 246.755 
L 214.244545 240.805 
L 188.923837 240.805 
z
" clip-path="url(#p8dc27bbba9)" style="fill: #0000ff"/>
   </g>
   <g id="patch_17">
    <path d="M 215.061342 244.003125 
L 228.130095 244.003125 
L 228.130095 243.556875 
L 215.061342 243.556875 
z
" clip-path="url(#p8dc27bbba9)" style="fill: #0000ff"/>
   </g>
   <g id="patch_18">
    <path d="M 228.946892 246.755 
L 302.458625 246.755 
L 302.458625 240.805 
L 228.946892 240.805 
z
" clip-path="url(#p8dc27bbba9)" style="fill: #0000ff"/>
   </g>
   <g id="patch_19">
    <path d="M 303.275422 244.003125 
L 304.909016 244.003125 
L 304.909016 243.556875 
L 303.275422 243.556875 
z
" clip-path="url(#p8dc27bbba9)" style="fill: #0000ff"/>
   </g>
   <g id="patch_20">
    <path d="M 305.725813 246.755 
L 495.222725 246.755 
L 495.222725 240.805 
L 305.725813 240.805 
z
" clip-path="url(#p8dc27bbba9)" style="fill: #0000ff"/>
   </g>
   <g id="patch_21">
    <path d="M 306.54261 246.755 
L 490.321943 246.755 
L 490.321943 240.805 
L 306.54261 240.805 
z
" clip-path="url(#p8dc27bbba9)" style="fill: #0000ff"/>
   </g>
   <g id="patch_22">
    <path d="M 307.359407 246.755 
L 492.772334 246.755 
L 492.772334 240.805 
L 307.359407 240.805 
z
" clip-path="url(#p8dc27bbba9)" style="fill: #0000ff"/>
   </g>
   <g id="patch_23">
    <path d="M 307.359407 246.755 
L 490.321943 246.755 
L 490.321943 240.805 
L 307.359407 240.805 
z
" clip-path="url(#p8dc27bbba9)" style="fill: #0000ff"/>
   </g>
   <g id="patch_24">
    <path d="M 316.344175 246.755 
L 399.657472 246.755 
L 399.657472 240.805 
L 316.344175 240.805 
z
" clip-path="url(#p8dc27bbba9)" style="fill: #0000ff"/>
   </g>
   <g id="patch_25">
    <path d="M 329.412927 246.755 
L 469.08522 246.755 
L 469.08522 240.805 
L 329.412927 240.805 
z
" clip-path="url(#p8dc27bbba9)" style="fill: #0000ff"/>
   </g>
   <g id="patch_26">
    <path d="M 496.039522 244.003125 
L 496.856319 244.003125 
L 496.856319 243.556875 
L 496.039522 243.556875 
z
" clip-path="url(#p8dc27bbba9)" style="fill: #0000ff"/>
   </g>
   <g id="patch_27">
    <path d="M 144 229.128125 
L 183.206258 229.128125 
L 183.206258 228.681875 
L 144 228.681875 
z
" clip-path="url(#p8dc27bbba9)" style="fill: #0000ff"/>
   </g>
   <g id="patch_28">
    <path d="M 184.023055 231.88 
L 273.053932 231.88 
L 273.053932 225.93 
L 184.023055 225.93 
z
" clip-path="url(#p8dc27bbba9)" style="fill: #0000ff"/>
   </g>
   <g id="patch_29">
    <path d="M 194.641416 231.88 
L 270.603541 231.88 
L 270.603541 225.93 
L 194.641416 225.93 
z
" clip-path="url(#p8dc27bbba9)" style="fill: #0000ff"/>
   </g>
   <g id="patch_30">
    <path d="M 273.870729 229.128125 
L 273.870729 229.128125 
L 273.870729 228.681875 
L 273.870729 228.681875 
z
" clip-path="url(#p8dc27bbba9)" style="fill: #0000ff"/>
   </g>
   <g id="patch_31">
    <path d="M 274.687526 231.88 
L 469.902017 231.88 
L 469.902017 225.93 
L 274.687526 225.93 
z
" clip-path="url(#p8dc27bbba9)" style="fill: #0000ff"/>
   </g>
   <g id="patch_32">
    <path d="M 275.504323 231.88 
L 469.902017 231.88 
L 469.902017 225.93 
L 275.504323 225.93 
z
" clip-path="url(#p8dc27bbba9)" style="fill: #0000ff"/>
   </g>
   <g id="patch_33">
    <path d="M 276.32112 231.88 
L 469.902017 231.88 
L 469.902017 225.93 
L 276.32112 225.93 
z
" clip-path="url(#p8dc27bbba9)" style="fill: #0000ff"/>
   </g>
   <g id="patch_34">
    <path d="M 276.32112 231.88 
L 469.902017 231.88 
L 469.902017 225.93 
L 276.32112 225.93 
z
" clip-path="url(#p8dc27bbba9)" style="fill: #0000ff"/>
   </g>
   <g id="patch_35">
    <path d="M 470.718814 229.128125 
L 483.787567 229.128125 
L 483.787567 228.681875 
L 470.718814 228.681875 
z
" clip-path="url(#p8dc27bbba9)" style="fill: #0000ff"/>
   </g>
   <g id="patch_36">
    <path d="M 144 217.005 
L 217.511733 217.005 
L 217.511733 211.055 
L 144 211.055 
z
" clip-path="url(#p8dc27bbba9)" style="fill: #0000ff"/>
   </g>
   <g id="patch_37">
    <path d="M 144 217.005 
L 216.694936 217.005 
L 216.694936 211.055 
L 144 211.055 
z
" clip-path="url(#p8dc27bbba9)" style="fill: #0000ff"/>
   </g>
   <g id="patch_38">
    <path d="M 144 217.005 
L 269.786744 217.005 
L 269.786744 211.055 
L 144 211.055 
z
" clip-path="url(#p8dc27bbba9)" style="fill: #0000ff"/>
   </g>
   <g id="patch_39">
    <path d="M 144 217.005 
L 217.511733 217.005 
L 217.511733 211.055 
L 144 211.055 
z
" clip-path="url(#p8dc27bbba9)" style="fill: #0000ff"/>
   </g>
   <g id="patch_40">
    <path d="M 144.816797 217.005 
L 217.511733 217.005 
L 217.511733 211.055 
L 144.816797 211.055 
z
" clip-path="url(#p8dc27bbba9)" style="fill: #0000ff"/>
   </g>
   <g id="patch_41">
    <path d="M 144.816797 217.005 
L 270.603541 217.005 
L 270.603541 211.055 
L 144.816797 211.055 
z
" clip-path="url(#p8dc27bbba9)" style="fill: #0000ff"/>
   </g>
   <g id="patch_42">
    <path d="M 145.633594 217.005 
L 265.702758 217.005 
L 265.702758 211.055 
L 145.633594 211.055 
z
" clip-path="url(#p8dc27bbba9)" style="fill: #0000ff"/>
   </g>
   <g id="patch_43">
    <path d="M 145.633594 217.005 
L 269.786744 217.005 
L 269.786744 211.055 
L 145.633594 211.055 
z
" clip-path="url(#p8dc27bbba9)" style="fill: #0000ff"/>
   </g>
   <g id="patch_44">
    <path d="M 145.633594 217.005 
L 283.672293 217.005 
L 283.672293 211.055 
L 145.633594 211.055 
z
" clip-path="url(#p8dc27bbba9)" style="fill: #0000ff"/>
   </g>
   <g id="patch_45">
    <path d="M 145.633594 217.005 
L 265.702758 217.005 
L 265.702758 211.055 
L 145.633594 211.055 
z
" clip-path="url(#p8dc27bbba9)" style="fill: #0000ff"/>
   </g>
   <g id="patch_46">
    <path d="M 145.633594 217.005 
L 282.038699 217.005 
L 282.038699 211.055 
L 145.633594 211.055 
z
" clip-path="url(#p8dc27bbba9)" style="fill: #0000ff"/>
   </g>
   <g id="patch_47">
    <path d="M 146.450391 217.005 
L 216.694936 217.005 
L 216.694936 211.055 
L 146.450391 211.055 
z
" clip-path="url(#p8dc27bbba9)" style="fill: #0000ff"/>
   </g>
   <g id="patch_48">
    <path d="M 146.450391 217.005 
L 269.786744 217.005 
L 269.786744 211.055 
L 146.450391 211.055 
z
" clip-path="url(#p8dc27bbba9)" style="fill: #0000ff"/>
   </g>
   <g id="patch_49">
    <path d="M 146.450391 217.005 
L 217.511733 217.005 
L 217.511733 211.055 
L 146.450391 211.055 
z
" clip-path="url(#p8dc27bbba9)" style="fill: #0000ff"/>
   </g>
   <g id="patch_50">
    <path d="M 146.450391 217.005 
L 276.32112 217.005 
L 276.32112 211.055 
L 146.450391 211.055 
z
" clip-path="url(#p8dc27bbba9)" style="fill: #0000ff"/>
   </g>
   <g id="patch_51">
    <path d="M 148.900782 217.005 
L 217.511733 217.005 
L 217.511733 211.055 
L 148.900782 211.055 
z
" clip-path="url(#p8dc27bbba9)" style="fill: #0000ff"/>
   </g>
   <g id="patch_52">
    <path d="M 149.717579 217.005 
L 217.511733 217.005 
L 217.511733 211.055 
L 149.717579 211.055 
z
" clip-path="url(#p8dc27bbba9)" style="fill: #0000ff"/>
   </g>
   <g id="patch_53">
    <path d="M 149.717579 217.005 
L 214.244545 217.005 
L 214.244545 211.055 
L 149.717579 211.055 
z
" clip-path="url(#p8dc27bbba9)" style="fill: #0000ff"/>
   </g>
   <g id="patch_54">
    <path d="M 150.534376 217.005 
L 217.511733 217.005 
L 217.511733 211.055 
L 150.534376 211.055 
z
" clip-path="url(#p8dc27bbba9)" style="fill: #0000ff"/>
   </g>
   <g id="patch_55">
    <path d="M 150.534376 217.005 
L 217.511733 217.005 
L 217.511733 211.055 
L 150.534376 211.055 
z
" clip-path="url(#p8dc27bbba9)" style="fill: #0000ff"/>
   </g>
   <g id="patch_56">
    <path d="M 150.534376 217.005 
L 214.244545 217.005 
L 214.244545 211.055 
L 150.534376 211.055 
z
" clip-path="url(#p8dc27bbba9)" style="fill: #0000ff"/>
   </g>
   <g id="patch_57">
    <path d="M 150.534376 217.005 
L 200.358995 217.005 
L 200.358995 211.055 
L 150.534376 211.055 
z
" clip-path="url(#p8dc27bbba9)" style="fill: #0000ff"/>
   </g>
   <g id="patch_58">
    <path d="M 152.16797 217.005 
L 217.511733 217.005 
L 217.511733 211.055 
L 152.16797 211.055 
z
" clip-path="url(#p8dc27bbba9)" style="fill: #0000ff"/>
   </g>
   <g id="patch_59">
    <path d="M 154.618361 217.005 
L 214.244545 217.005 
L 214.244545 211.055 
L 154.618361 211.055 
z
" clip-path="url(#p8dc27bbba9)" style="fill: #0000ff"/>
   </g>
   <g id="patch_60">
    <path d="M 155.435159 217.005 
L 217.511733 217.005 
L 217.511733 211.055 
L 155.435159 211.055 
z
" clip-path="url(#p8dc27bbba9)" style="fill: #0000ff"/>
   </g>
   <g id="patch_61">
    <path d="M 284.48909 214.253125 
L 331.046521 214.253125 
L 331.046521 213.806875 
L 284.48909 213.806875 
z
" clip-path="url(#p8dc27bbba9)" style="fill: #0000ff"/>
   </g>
   <g id="patch_62">
    <path d="M 331.863318 217.005 
L 405.375051 217.005 
L 405.375051 211.055 
L 331.863318 211.055 
z
" clip-path="url(#p8dc27bbba9)" style="fill: #0000ff"/>
   </g>
   <g id="patch_63">
    <path d="M 343.298477 217.005 
L 401.291066 217.005 
L 401.291066 211.055 
L 343.298477 211.055 
z
" clip-path="url(#p8dc27bbba9)" style="fill: #0000ff"/>
   </g>
   <g id="patch_64">
    <path d="M 406.191848 214.253125 
L 406.191848 214.253125 
L 406.191848 213.806875 
L 406.191848 213.806875 
z
" clip-path="url(#p8dc27bbba9)" style="fill: #0000ff"/>
   </g>
   <g id="patch_65">
    <path d="M 407.008646 217.005 
L 598.955949 217.005 
L 598.955949 211.055 
L 407.008646 211.055 
z
" clip-path="url(#p8dc27bbba9)" style="fill: #0000ff"/>
   </g>
   <g id="patch_66">
    <path d="M 408.64224 217.005 
L 595.688761 217.005 
L 595.688761 211.055 
L 408.64224 211.055 
z
" clip-path="url(#p8dc27bbba9)" style="fill: #0000ff"/>
   </g>
   <g id="patch_67">
    <path d="M 409.459037 217.005 
L 598.139152 217.005 
L 598.139152 211.055 
L 409.459037 211.055 
z
" clip-path="url(#p8dc27bbba9)" style="fill: #0000ff"/>
   </g>
   <g id="patch_68">
    <path d="M 409.459037 217.005 
L 595.688761 217.005 
L 595.688761 211.055 
L 409.459037 211.055 
z
" clip-path="url(#p8dc27bbba9)" style="fill: #0000ff"/>
   </g>
   <g id="patch_69">
    <path d="M 418.443804 217.005 
L 499.306711 217.005 
L 499.306711 211.055 
L 418.443804 211.055 
z
" clip-path="url(#p8dc27bbba9)" style="fill: #0000ff"/>
   </g>
   <g id="patch_70">
    <path d="M 599.772746 214.253125 
L 621.826266 214.253125 
L 621.826266 213.806875 
L 599.772746 213.806875 
z
" clip-path="url(#p8dc27bbba9)" style="fill: #0000ff"/>
   </g>
   <g id="patch_71">
    <path d="M 144 199.378125 
L 166.870317 199.378125 
L 166.870317 198.931875 
L 144 198.931875 
z
" clip-path="url(#p8dc27bbba9)" style="fill: #0000ff"/>
   </g>
   <g id="patch_72">
    <path d="M 167.687114 202.13 
L 360.451214 202.13 
L 360.451214 196.18 
L 167.687114 196.18 
z
" clip-path="url(#p8dc27bbba9)" style="fill: #0000ff"/>
   </g>
   <g id="patch_73">
    <path d="M 167.687114 202.13 
L 362.084809 202.13 
L 362.084809 196.18 
L 167.687114 196.18 
z
" clip-path="url(#p8dc27bbba9)" style="fill: #0000ff"/>
   </g>
   <g id="patch_74">
    <path d="M 168.503911 202.13 
L 362.901606 202.13 
L 362.901606 196.18 
L 168.503911 196.18 
z
" clip-path="url(#p8dc27bbba9)" style="fill: #0000ff"/>
   </g>
   <g id="patch_75">
    <path d="M 168.503911 202.13 
L 360.451214 202.13 
L 360.451214 196.18 
L 168.503911 196.18 
z
" clip-path="url(#p8dc27bbba9)" style="fill: #0000ff"/>
   </g>
   <g id="patch_76">
    <path d="M 363.718403 199.378125 
L 391.489502 199.378125 
L 391.489502 198.931875 
L 363.718403 198.931875 
z
" clip-path="url(#p8dc27bbba9)" style="fill: #0000ff"/>
   </g>
   <g id="patch_77">
    <path d="M 144 184.503125 
L 273.870729 184.503125 
L 273.870729 184.056875 
L 144 184.056875 
z
" clip-path="url(#p8dc27bbba9)" style="fill: #0000ff"/>
   </g>
   <g id="patch_78">
    <path d="M 274.687526 187.255 
L 469.08522 187.255 
L 469.08522 181.305 
L 274.687526 181.305 
z
" clip-path="url(#p8dc27bbba9)" style="fill: #0000ff"/>
   </g>
   <g id="patch_79">
    <path d="M 275.504323 187.255 
L 471.535611 187.255 
L 471.535611 181.305 
L 275.504323 181.305 
z
" clip-path="url(#p8dc27bbba9)" style="fill: #0000ff"/>
   </g>
   <g id="patch_80">
    <path d="M 275.504323 187.255 
L 469.08522 187.255 
L 469.08522 181.305 
L 275.504323 181.305 
z
" clip-path="url(#p8dc27bbba9)" style="fill: #0000ff"/>
   </g>
   <g id="patch_81">
    <path d="M 472.352408 184.503125 
L 474.8028 184.503125 
L 474.8028 184.056875 
L 472.352408 184.056875 
z
" clip-path="url(#p8dc27bbba9)" style="fill: #0000ff"/>
   </g>
   <g id="patch_82">
    <path d="M 144 169.628125 
L 151.351173 169.628125 
L 151.351173 169.181875 
L 144 169.181875 
z
" clip-path="url(#p8dc27bbba9)" style="fill: #0000ff"/>
   </g>
   <g id="patch_83">
    <path d="M 152.16797 172.38 
L 345.748868 172.38 
L 345.748868 166.43 
L 152.16797 166.43 
z
" clip-path="url(#p8dc27bbba9)" style="fill: #0000ff"/>
   </g>
   <g id="patch_84">
    <path d="M 163.603129 172.38 
L 345.748868 172.38 
L 345.748868 166.43 
L 163.603129 166.43 
z
" clip-path="url(#p8dc27bbba9)" style="fill: #0000ff"/>
   </g>
   <g id="patch_85">
    <path d="M 163.603129 172.38 
L 348.199259 172.38 
L 348.199259 166.43 
L 163.603129 166.43 
z
" clip-path="url(#p8dc27bbba9)" style="fill: #0000ff"/>
   </g>
   <g id="patch_86">
    <path d="M 163.603129 172.38 
L 345.748868 172.38 
L 345.748868 166.43 
L 163.603129 166.43 
z
" clip-path="url(#p8dc27bbba9)" style="fill: #0000ff"/>
   </g>
   <g id="patch_87">
    <path d="M 193.824619 172.38 
L 344.932071 172.38 
L 344.932071 166.43 
L 193.824619 166.43 
z
" clip-path="url(#p8dc27bbba9)" style="fill: #0000ff"/>
   </g>
   <g id="patch_88">
    <path d="M 349.016056 169.628125 
L 357.184026 169.628125 
L 357.184026 169.181875 
L 349.016056 169.181875 
z
" clip-path="url(#p8dc27bbba9)" style="fill: #0000ff"/>
   </g>
   <g id="patch_89">
    <path d="M 144 154.753125 
L 180.755867 154.753125 
L 180.755867 154.306875 
L 144 154.306875 
z
" clip-path="url(#p8dc27bbba9)" style="fill: #0000ff"/>
   </g>
   <g id="patch_90">
    <path d="M 181.572664 157.505 
L 376.787155 157.505 
L 376.787155 151.555 
L 181.572664 151.555 
z
" clip-path="url(#p8dc27bbba9)" style="fill: #0000ff"/>
   </g>
   <g id="patch_91">
    <path d="M 181.572664 157.505 
L 376.787155 157.505 
L 376.787155 151.555 
L 181.572664 151.555 
z
" clip-path="url(#p8dc27bbba9)" style="fill: #0000ff"/>
   </g>
   <g id="patch_92">
    <path d="M 182.389461 157.505 
L 379.237546 157.505 
L 379.237546 151.555 
L 182.389461 151.555 
z
" clip-path="url(#p8dc27bbba9)" style="fill: #0000ff"/>
   </g>
   <g id="patch_93">
    <path d="M 182.389461 157.505 
L 376.787155 157.505 
L 376.787155 151.555 
L 182.389461 151.555 
z
" clip-path="url(#p8dc27bbba9)" style="fill: #0000ff"/>
   </g>
   <g id="patch_94">
    <path d="M 380.054343 154.753125 
L 405.375051 154.753125 
L 405.375051 154.306875 
L 380.054343 154.306875 
z
" clip-path="url(#p8dc27bbba9)" style="fill: #0000ff"/>
   </g>
   <g id="patch_95">
    <path d="M 144 139.878125 
L 211.794154 139.878125 
L 211.794154 139.431875 
L 144 139.431875 
z
" clip-path="url(#p8dc27bbba9)" style="fill: #0000ff"/>
   </g>
   <g id="patch_96">
    <path d="M 212.610951 142.63 
L 411.092631 142.63 
L 411.092631 136.68 
L 212.610951 136.68 
z
" clip-path="url(#p8dc27bbba9)" style="fill: #0000ff"/>
   </g>
   <g id="patch_97">
    <path d="M 213.427748 142.63 
L 398.840675 142.63 
L 398.840675 136.68 
L 213.427748 136.68 
z
" clip-path="url(#p8dc27bbba9)" style="fill: #0000ff"/>
   </g>
   <g id="patch_98">
    <path d="M 214.244545 142.63 
L 401.291066 142.63 
L 401.291066 136.68 
L 214.244545 136.68 
z
" clip-path="url(#p8dc27bbba9)" style="fill: #0000ff"/>
   </g>
   <g id="patch_99">
    <path d="M 214.244545 142.63 
L 398.840675 142.63 
L 398.840675 136.68 
L 214.244545 136.68 
z
" clip-path="url(#p8dc27bbba9)" style="fill: #0000ff"/>
   </g>
   <g id="patch_100">
    <path d="M 411.909428 139.878125 
L 444.581309 139.878125 
L 444.581309 139.431875 
L 411.909428 139.431875 
z
" clip-path="url(#p8dc27bbba9)" style="fill: #0000ff"/>
   </g>
   <g id="patch_101">
    <path d="M 144 125.003125 
L 214.244545 125.003125 
L 214.244545 124.556875 
L 144 124.556875 
z
" clip-path="url(#p8dc27bbba9)" style="fill: #0000ff"/>
   </g>
   <g id="patch_102">
    <path d="M 215.061342 127.755 
L 276.32112 127.755 
L 276.32112 121.805 
L 215.061342 121.805 
z
" clip-path="url(#p8dc27bbba9)" style="fill: #0000ff"/>
   </g>
   <g id="patch_103">
    <path d="M 277.137917 125.003125 
L 327.779333 125.003125 
L 327.779333 124.556875 
L 277.137917 124.556875 
z
" clip-path="url(#p8dc27bbba9)" style="fill: #0000ff"/>
   </g>
   <g id="patch_104">
    <path d="M 328.59613 127.755 
L 413.543022 127.755 
L 413.543022 121.805 
L 328.59613 121.805 
z
" clip-path="url(#p8dc27bbba9)" style="fill: #0000ff"/>
   </g>
   <g id="patch_105">
    <path d="M 328.59613 127.755 
L 414.359819 127.755 
L 414.359819 121.805 
L 328.59613 121.805 
z
" clip-path="url(#p8dc27bbba9)" style="fill: #0000ff"/>
   </g>
   <g id="patch_106">
    <path d="M 328.59613 127.755 
L 413.543022 127.755 
L 413.543022 121.805 
L 328.59613 121.805 
z
" clip-path="url(#p8dc27bbba9)" style="fill: #0000ff"/>
   </g>
   <g id="patch_107">
    <path d="M 415.176616 125.003125 
L 420.077398 125.003125 
L 420.077398 124.556875 
L 415.176616 124.556875 
z
" clip-path="url(#p8dc27bbba9)" style="fill: #0000ff"/>
   </g>
   <g id="patch_108">
    <path d="M 420.894195 127.755 
L 505.841087 127.755 
L 505.841087 121.805 
L 420.894195 121.805 
z
" clip-path="url(#p8dc27bbba9)" style="fill: #0000ff"/>
   </g>
   <g id="patch_109">
    <path d="M 420.894195 127.755 
L 505.841087 127.755 
L 505.841087 121.805 
L 420.894195 121.805 
z
" clip-path="url(#p8dc27bbba9)" style="fill: #0000ff"/>
   </g>
   <g id="patch_110">
    <path d="M 428.245368 127.755 
L 505.841087 127.755 
L 505.841087 121.805 
L 428.245368 121.805 
z
" clip-path="url(#p8dc27bbba9)" style="fill: #0000ff"/>
   </g>
   <g id="patch_111">
    <path d="M 506.657884 125.003125 
L 513.19226 125.003125 
L 513.19226 124.556875 
L 506.657884 124.556875 
z
" clip-path="url(#p8dc27bbba9)" style="fill: #0000ff"/>
   </g>
   <g id="patch_112">
    <path d="M 514.009057 127.755 
L 537.696171 127.755 
L 537.696171 121.805 
L 514.009057 121.805 
z
" clip-path="url(#p8dc27bbba9)" style="fill: #0000ff"/>
   </g>
   <g id="patch_113">
    <path d="M 514.009057 127.755 
L 540.146562 127.755 
L 540.146562 121.805 
L 514.009057 121.805 
z
" clip-path="url(#p8dc27bbba9)" style="fill: #0000ff"/>
   </g>
   <g id="patch_114">
    <path d="M 514.009057 127.755 
L 540.146562 127.755 
L 540.146562 121.805 
L 514.009057 121.805 
z
" clip-path="url(#p8dc27bbba9)" style="fill: #0000ff"/>
   </g>
   <g id="patch_115">
    <path d="M 540.146562 127.755 
L 567.917662 127.755 
L 567.917662 121.805 
L 540.146562 121.805 
z
" clip-path="url(#p8dc27bbba9)" style="fill: #0000ff"/>
   </g>
   <g id="patch_116">
    <path d="M 541.780156 127.755 
L 570.368053 127.755 
L 570.368053 121.805 
L 541.780156 121.805 
z
" clip-path="url(#p8dc27bbba9)" style="fill: #0000ff"/>
   </g>
   <g id="patch_117">
    <path d="M 545.047345 127.755 
L 570.368053 127.755 
L 570.368053 121.805 
L 545.047345 121.805 
z
" clip-path="url(#p8dc27bbba9)" style="fill: #0000ff"/>
   </g>
   <g id="patch_118">
    <path d="M 571.18485 125.003125 
L 571.18485 125.003125 
L 571.18485 124.556875 
L 571.18485 124.556875 
z
" clip-path="url(#p8dc27bbba9)" style="fill: #0000ff"/>
   </g>
   <g id="patch_119">
    <path d="M 572.001647 127.755 
L 597.322355 127.755 
L 597.322355 121.805 
L 572.001647 121.805 
z
" clip-path="url(#p8dc27bbba9)" style="fill: #0000ff"/>
   </g>
   <g id="patch_120">
    <path d="M 572.001647 127.755 
L 599.772746 127.755 
L 599.772746 121.805 
L 572.001647 121.805 
z
" clip-path="url(#p8dc27bbba9)" style="fill: #0000ff"/>
   </g>
   <g id="patch_121">
    <path d="M 572.001647 127.755 
L 599.772746 127.755 
L 599.772746 121.805 
L 572.001647 121.805 
z
" clip-path="url(#p8dc27bbba9)" style="fill: #0000ff"/>
   </g>
   <g id="patch_122">
    <path d="M 600.589543 125.003125 
L 603.856731 125.003125 
L 603.856731 124.556875 
L 600.589543 124.556875 
z
" clip-path="url(#p8dc27bbba9)" style="fill: #0000ff"/>
   </g>
   <g id="patch_123">
    <path d="M 604.673528 127.755 
L 634.895019 127.755 
L 634.895019 121.805 
L 604.673528 121.805 
z
" clip-path="url(#p8dc27bbba9)" style="fill: #0000ff"/>
   </g>
   <g id="patch_124">
    <path d="M 605.490325 127.755 
L 632.444627 127.755 
L 632.444627 121.805 
L 605.490325 121.805 
z
" clip-path="url(#p8dc27bbba9)" style="fill: #0000ff"/>
   </g>
   <g id="patch_125">
    <path d="M 606.307122 127.755 
L 634.895019 127.755 
L 634.895019 121.805 
L 606.307122 121.805 
z
" clip-path="url(#p8dc27bbba9)" style="fill: #0000ff"/>
   </g>
   <g id="patch_126">
    <path d="M 635.711816 125.003125 
L 643.879786 125.003125 
L 643.879786 124.556875 
L 635.711816 124.556875 
z
" clip-path="url(#p8dc27bbba9)" style="fill: #0000ff"/>
   </g>
   <g id="patch_127">
    <path d="M 644.696583 127.755 
L 836.643886 127.755 
L 836.643886 121.805 
L 644.696583 121.805 
z
" clip-path="url(#p8dc27bbba9)" style="fill: #0000ff"/>
   </g>
   <g id="patch_128">
    <path d="M 644.696583 127.755 
L 836.643886 127.755 
L 836.643886 121.805 
L 644.696583 121.805 
z
" clip-path="url(#p8dc27bbba9)" style="fill: #0000ff"/>
   </g>
   <g id="patch_129">
    <path d="M 645.51338 127.755 
L 839.094277 127.755 
L 839.094277 121.805 
L 645.51338 121.805 
z
" clip-path="url(#p8dc27bbba9)" style="fill: #0000ff"/>
   </g>
   <g id="patch_130">
    <path d="M 645.51338 127.755 
L 836.643886 127.755 
L 836.643886 121.805 
L 645.51338 121.805 
z
" clip-path="url(#p8dc27bbba9)" style="fill: #0000ff"/>
   </g>
   <g id="patch_131">
    <path d="M 839.911075 125.003125 
L 841.544669 125.003125 
L 841.544669 124.556875 
L 839.911075 124.556875 
z
" clip-path="url(#p8dc27bbba9)" style="fill: #0000ff"/>
   </g>
   <g id="patch_132">
    <path d="M 144 110.128125 
L 147.267188 110.128125 
L 147.267188 109.681875 
L 144 109.681875 
z
" clip-path="url(#p8dc27bbba9)" style="fill: #0000ff"/>
   </g>
   <g id="patch_133">
    <path d="M 148.083985 112.88 
L 353.100041 112.88 
L 353.100041 106.93 
L 148.083985 106.93 
z
" clip-path="url(#p8dc27bbba9)" style="fill: #0000ff"/>
   </g>
   <g id="patch_134">
    <path d="M 162.786332 112.88 
L 349.832853 112.88 
L 349.832853 106.93 
L 162.786332 106.93 
z
" clip-path="url(#p8dc27bbba9)" style="fill: #0000ff"/>
   </g>
   <g id="patch_135">
    <path d="M 163.603129 112.88 
L 352.283244 112.88 
L 352.283244 106.93 
L 163.603129 106.93 
z
" clip-path="url(#p8dc27bbba9)" style="fill: #0000ff"/>
   </g>
   <g id="patch_136">
    <path d="M 163.603129 112.88 
L 349.832853 112.88 
L 349.832853 106.93 
L 163.603129 106.93 
z
" clip-path="url(#p8dc27bbba9)" style="fill: #0000ff"/>
   </g>
   <g id="patch_137">
    <path d="M 173.404693 112.88 
L 270.603541 112.88 
L 270.603541 106.93 
L 173.404693 106.93 
z
" clip-path="url(#p8dc27bbba9)" style="fill: #0000ff"/>
   </g>
   <g id="patch_138">
    <path d="M 315.527378 112.88 
L 344.932071 112.88 
L 344.932071 106.93 
L 315.527378 106.93 
z
" clip-path="url(#p8dc27bbba9)" style="fill: #0000ff"/>
   </g>
   <g id="patch_139">
    <path d="M 353.916838 110.128125 
L 356.367229 110.128125 
L 356.367229 109.681875 
L 353.916838 109.681875 
z
" clip-path="url(#p8dc27bbba9)" style="fill: #0000ff"/>
   </g>
   <g id="patch_140">
    <path d="M 144 95.253125 
L 233.847674 95.253125 
L 233.847674 94.806875 
L 144 94.806875 
z
" clip-path="url(#p8dc27bbba9)" style="fill: #0000ff"/>
   </g>
   <g id="patch_141">
    <path d="M 234.664471 98.005 
L 261.618773 98.005 
L 261.618773 92.055 
L 234.664471 92.055 
z
" clip-path="url(#p8dc27bbba9)" style="fill: #0000ff"/>
   </g>
   <g id="patch_142">
    <path d="M 235.481268 98.005 
L 264.069164 98.005 
L 264.069164 92.055 
L 235.481268 92.055 
z
" clip-path="url(#p8dc27bbba9)" style="fill: #0000ff"/>
   </g>
   <g id="patch_143">
    <path d="M 264.885961 98.005 
L 340.031289 98.005 
L 340.031289 92.055 
L 264.885961 92.055 
z
" clip-path="url(#p8dc27bbba9)" style="fill: #0000ff"/>
   </g>
   <g id="patch_144">
    <path d="M 268.153149 98.005 
L 344.115274 98.005 
L 344.115274 92.055 
L 268.153149 92.055 
z
" clip-path="url(#p8dc27bbba9)" style="fill: #0000ff"/>
   </g>
   <g id="patch_145">
    <path d="M 344.932071 95.253125 
L 349.832853 95.253125 
L 349.832853 94.806875 
L 344.932071 94.806875 
z
" clip-path="url(#p8dc27bbba9)" style="fill: #0000ff"/>
   </g>
   <g id="patch_146">
    <path d="M 350.64965 98.005 
L 541.780156 98.005 
L 541.780156 92.055 
L 350.64965 92.055 
z
" clip-path="url(#p8dc27bbba9)" style="fill: #0000ff"/>
   </g>
   <g id="patch_147">
    <path d="M 351.466447 98.005 
L 538.512968 98.005 
L 538.512968 92.055 
L 351.466447 92.055 
z
" clip-path="url(#p8dc27bbba9)" style="fill: #0000ff"/>
   </g>
   <g id="patch_148">
    <path d="M 352.283244 98.005 
L 540.963359 98.005 
L 540.963359 92.055 
L 352.283244 92.055 
z
" clip-path="url(#p8dc27bbba9)" style="fill: #0000ff"/>
   </g>
   <g id="patch_149">
    <path d="M 352.283244 98.005 
L 538.512968 98.005 
L 538.512968 92.055 
L 352.283244 92.055 
z
" clip-path="url(#p8dc27bbba9)" style="fill: #0000ff"/>
   </g>
   <g id="patch_150">
    <path d="M 542.596953 95.253125 
L 545.047345 95.253125 
L 545.047345 94.806875 
L 542.596953 94.806875 
z
" clip-path="url(#p8dc27bbba9)" style="fill: #0000ff"/>
   </g>
   <g id="patch_151">
    <path d="M 144 80.378125 
L 182.389461 80.378125 
L 182.389461 79.931875 
L 144 79.931875 
z
" clip-path="url(#p8dc27bbba9)" style="fill: #0000ff"/>
   </g>
   <g id="patch_152">
    <path d="M 183.206258 83.13 
L 268.969946 83.13 
L 268.969946 77.18 
L 183.206258 77.18 
z
" clip-path="url(#p8dc27bbba9)" style="fill: #0000ff"/>
   </g>
   <g id="patch_153">
    <path d="M 269.786744 80.378125 
L 296.741046 80.378125 
L 296.741046 79.931875 
L 269.786744 79.931875 
z
" clip-path="url(#p8dc27bbba9)" style="fill: #0000ff"/>
   </g>
   <g id="patch_154">
    <path d="M 297.557843 83.13 
L 482.153973 83.13 
L 482.153973 77.18 
L 297.557843 77.18 
z
" clip-path="url(#p8dc27bbba9)" style="fill: #0000ff"/>
   </g>
   <g id="patch_155">
    <path d="M 297.557843 83.13 
L 485.421161 83.13 
L 485.421161 77.18 
L 297.557843 77.18 
z
" clip-path="url(#p8dc27bbba9)" style="fill: #0000ff"/>
   </g>
   <g id="patch_156">
    <path d="M 298.37464 83.13 
L 484.604364 83.13 
L 484.604364 77.18 
L 298.37464 77.18 
z
" clip-path="url(#p8dc27bbba9)" style="fill: #0000ff"/>
   </g>
   <g id="patch_157">
    <path d="M 298.37464 83.13 
L 482.153973 83.13 
L 482.153973 77.18 
L 298.37464 77.18 
z
" clip-path="url(#p8dc27bbba9)" style="fill: #0000ff"/>
   </g>
   <g id="patch_158">
    <path d="M 307.359407 83.13 
L 483.787567 83.13 
L 483.787567 77.18 
L 307.359407 77.18 
z
" clip-path="url(#p8dc27bbba9)" style="fill: #0000ff"/>
   </g>
   <g id="patch_159">
    <path d="M 486.237958 80.378125 
L 487.054755 80.378125 
L 487.054755 79.931875 
L 486.237958 79.931875 
z
" clip-path="url(#p8dc27bbba9)" style="fill: #0000ff"/>
   </g>
   <g id="patch_160">
    <path d="M 144 65.503125 
L 252.634006 65.503125 
L 252.634006 65.056875 
L 144 65.056875 
z
" clip-path="url(#p8dc27bbba9)" style="fill: #0000ff"/>
   </g>
   <g id="patch_161">
    <path d="M 253.450803 68.255 
L 358.000823 68.255 
L 358.000823 62.305 
L 253.450803 62.305 
z
" clip-path="url(#p8dc27bbba9)" style="fill: #0000ff"/>
   </g>
   <g id="patch_162">
    <path d="M 254.2676 68.255 
L 341.664883 68.255 
L 341.664883 62.305 
L 254.2676 62.305 
z
" clip-path="url(#p8dc27bbba9)" style="fill: #0000ff"/>
   </g>
   <g id="patch_163">
    <path d="M 255.084397 68.255 
L 349.016056 68.255 
L 349.016056 62.305 
L 255.084397 62.305 
z
" clip-path="url(#p8dc27bbba9)" style="fill: #0000ff"/>
   </g>
   <g id="patch_164">
    <path d="M 255.901194 68.255 
L 346.565665 68.255 
L 346.565665 62.305 
L 255.901194 62.305 
z
" clip-path="url(#p8dc27bbba9)" style="fill: #0000ff"/>
   </g>
   <g id="patch_165">
    <path d="M 255.901194 68.255 
L 344.115274 68.255 
L 344.115274 62.305 
L 255.901194 62.305 
z
" clip-path="url(#p8dc27bbba9)" style="fill: #0000ff"/>
   </g>
   <g id="patch_166">
    <path d="M 256.717991 68.255 
L 356.367229 68.255 
L 356.367229 62.305 
L 256.717991 62.305 
z
" clip-path="url(#p8dc27bbba9)" style="fill: #0000ff"/>
   </g>
   <g id="patch_167">
    <path d="M 256.717991 68.255 
L 341.664883 68.255 
L 341.664883 62.305 
L 256.717991 62.305 
z
" clip-path="url(#p8dc27bbba9)" style="fill: #0000ff"/>
   </g>
   <g id="patch_168">
    <path d="M 256.717991 68.255 
L 359.634417 68.255 
L 359.634417 62.305 
L 256.717991 62.305 
z
" clip-path="url(#p8dc27bbba9)" style="fill: #0000ff"/>
   </g>
   <g id="patch_169">
    <path d="M 256.717991 68.255 
L 349.832853 68.255 
L 349.832853 62.305 
L 256.717991 62.305 
z
" clip-path="url(#p8dc27bbba9)" style="fill: #0000ff"/>
   </g>
   <g id="patch_170">
    <path d="M 256.717991 68.255 
L 359.634417 68.255 
L 359.634417 62.305 
L 256.717991 62.305 
z
" clip-path="url(#p8dc27bbba9)" style="fill: #0000ff"/>
   </g>
   <g id="patch_171">
    <path d="M 256.717991 68.255 
L 341.664883 68.255 
L 341.664883 62.305 
L 256.717991 62.305 
z
" clip-path="url(#p8dc27bbba9)" style="fill: #0000ff"/>
   </g>
   <g id="patch_172">
    <path d="M 256.717991 68.255 
L 341.664883 68.255 
L 341.664883 62.305 
L 256.717991 62.305 
z
" clip-path="url(#p8dc27bbba9)" style="fill: #0000ff"/>
   </g>
   <g id="patch_173">
    <path d="M 256.717991 68.255 
L 345.748868 68.255 
L 345.748868 62.305 
L 256.717991 62.305 
z
" clip-path="url(#p8dc27bbba9)" style="fill: #0000ff"/>
   </g>
   <g id="patch_174">
    <path d="M 256.717991 68.255 
L 341.664883 68.255 
L 341.664883 62.305 
L 256.717991 62.305 
z
" clip-path="url(#p8dc27bbba9)" style="fill: #0000ff"/>
   </g>
   <g id="patch_175">
    <path d="M 256.717991 68.255 
L 341.664883 68.255 
L 341.664883 62.305 
L 256.717991 62.305 
z
" clip-path="url(#p8dc27bbba9)" style="fill: #0000ff"/>
   </g>
   <g id="patch_176">
    <path d="M 256.717991 68.255 
L 341.664883 68.255 
L 341.664883 62.305 
L 256.717991 62.305 
z
" clip-path="url(#p8dc27bbba9)" style="fill: #0000ff"/>
   </g>
   <g id="patch_177">
    <path d="M 256.717991 68.255 
L 341.664883 68.255 
L 341.664883 62.305 
L 256.717991 62.305 
z
" clip-path="url(#p8dc27bbba9)" style="fill: #0000ff"/>
   </g>
   <g id="patch_178">
    <path d="M 256.717991 68.255 
L 356.367229 68.255 
L 356.367229 62.305 
L 256.717991 62.305 
z
" clip-path="url(#p8dc27bbba9)" style="fill: #0000ff"/>
   </g>
   <g id="patch_179">
    <path d="M 256.717991 68.255 
L 341.664883 68.255 
L 341.664883 62.305 
L 256.717991 62.305 
z
" clip-path="url(#p8dc27bbba9)" style="fill: #0000ff"/>
   </g>
   <g id="patch_180">
    <path d="M 256.717991 68.255 
L 341.664883 68.255 
L 341.664883 62.305 
L 256.717991 62.305 
z
" clip-path="url(#p8dc27bbba9)" style="fill: #0000ff"/>
   </g>
   <g id="patch_181">
    <path d="M 261.618773 68.255 
L 341.664883 68.255 
L 341.664883 62.305 
L 261.618773 62.305 
z
" clip-path="url(#p8dc27bbba9)" style="fill: #0000ff"/>
   </g>
   <g id="patch_182">
    <path d="M 265.702758 68.255 
L 339.214492 68.255 
L 339.214492 62.305 
L 265.702758 62.305 
z
" clip-path="url(#p8dc27bbba9)" style="fill: #0000ff"/>
   </g>
   <g id="patch_183">
    <path d="M 286.122684 68.255 
L 354.733635 68.255 
L 354.733635 62.305 
L 286.122684 62.305 
z
" clip-path="url(#p8dc27bbba9)" style="fill: #0000ff"/>
   </g>
   <g id="patch_184">
    <path d="M 291.840263 68.255 
L 341.664883 68.255 
L 341.664883 62.305 
L 291.840263 62.305 
z
" clip-path="url(#p8dc27bbba9)" style="fill: #0000ff"/>
   </g>
   <g id="patch_185">
    <path d="M 292.657061 68.255 
L 355.550432 68.255 
L 355.550432 62.305 
L 292.657061 62.305 
z
" clip-path="url(#p8dc27bbba9)" style="fill: #0000ff"/>
   </g>
   <g id="patch_186">
    <path d="M 292.657061 68.255 
L 341.664883 68.255 
L 341.664883 62.305 
L 292.657061 62.305 
z
" clip-path="url(#p8dc27bbba9)" style="fill: #0000ff"/>
   </g>
   <g id="patch_187">
    <path d="M 292.657061 68.255 
L 341.664883 68.255 
L 341.664883 62.305 
L 292.657061 62.305 
z
" clip-path="url(#p8dc27bbba9)" style="fill: #0000ff"/>
   </g>
   <g id="patch_188">
    <path d="M 292.657061 68.255 
L 358.000823 68.255 
L 358.000823 62.305 
L 292.657061 62.305 
z
" clip-path="url(#p8dc27bbba9)" style="fill: #0000ff"/>
   </g>
   <g id="patch_189">
    <path d="M 360.451214 65.503125 
L 362.084809 65.503125 
L 362.084809 65.056875 
L 360.451214 65.056875 
z
" clip-path="url(#p8dc27bbba9)" style="fill: #0000ff"/>
   </g>
   <g id="patch_190">
    <path d="M 362.901606 68.255 
L 389.039111 68.255 
L 389.039111 62.305 
L 362.901606 62.305 
z
" clip-path="url(#p8dc27bbba9)" style="fill: #0000ff"/>
   </g>
   <g id="patch_191">
    <path d="M 362.901606 68.255 
L 391.489502 68.255 
L 391.489502 62.305 
L 362.901606 62.305 
z
" clip-path="url(#p8dc27bbba9)" style="fill: #0000ff"/>
   </g>
   <g id="patch_192">
    <path d="M 362.901606 68.255 
L 391.489502 68.255 
L 391.489502 62.305 
L 362.901606 62.305 
z
" clip-path="url(#p8dc27bbba9)" style="fill: #0000ff"/>
   </g>
   <g id="patch_193">
    <path d="M 392.306299 65.503125 
L 392.306299 65.503125 
L 392.306299 65.056875 
L 392.306299 65.056875 
z
" clip-path="url(#p8dc27bbba9)" style="fill: #0000ff"/>
   </g>
   <g id="patch_194">
    <path d="M 393.123096 68.255 
L 418.443804 68.255 
L 418.443804 62.305 
L 393.123096 62.305 
z
" clip-path="url(#p8dc27bbba9)" style="fill: #0000ff"/>
   </g>
   <g id="patch_195">
    <path d="M 393.123096 68.255 
L 420.894195 68.255 
L 420.894195 62.305 
L 393.123096 62.305 
z
" clip-path="url(#p8dc27bbba9)" style="fill: #0000ff"/>
   </g>
   <g id="patch_196">
    <path d="M 393.123096 68.255 
L 420.894195 68.255 
L 420.894195 62.305 
L 393.123096 62.305 
z
" clip-path="url(#p8dc27bbba9)" style="fill: #0000ff"/>
   </g>
   <g id="patch_197">
    <path d="M 421.710992 65.503125 
L 423.344586 65.503125 
L 423.344586 65.056875 
L 421.710992 65.056875 
z
" clip-path="url(#p8dc27bbba9)" style="fill: #0000ff"/>
   </g>
   <g id="patch_198">
    <path d="M 424.161383 68.255 
L 448.665294 68.255 
L 448.665294 62.305 
L 424.161383 62.305 
z
" clip-path="url(#p8dc27bbba9)" style="fill: #0000ff"/>
   </g>
   <g id="patch_199">
    <path d="M 424.161383 68.255 
L 451.115685 68.255 
L 451.115685 62.305 
L 424.161383 62.305 
z
" clip-path="url(#p8dc27bbba9)" style="fill: #0000ff"/>
   </g>
   <g id="patch_200">
    <path d="M 426.611774 68.255 
L 451.115685 68.255 
L 451.115685 62.305 
L 426.611774 62.305 
z
" clip-path="url(#p8dc27bbba9)" style="fill: #0000ff"/>
   </g>
   <g id="patch_201">
    <path d="M 451.932483 65.503125 
L 458.466859 65.503125 
L 458.466859 65.056875 
L 451.932483 65.056875 
z
" clip-path="url(#p8dc27bbba9)" style="fill: #0000ff"/>
   </g>
   <g id="patch_202">
    <path d="M 459.283656 68.255 
L 478.886785 68.255 
L 478.886785 62.305 
L 459.283656 62.305 
z
" clip-path="url(#p8dc27bbba9)" style="fill: #0000ff"/>
   </g>
   <g id="patch_203">
    <path d="M 459.283656 68.255 
L 481.337176 68.255 
L 481.337176 62.305 
L 459.283656 62.305 
z
" clip-path="url(#p8dc27bbba9)" style="fill: #0000ff"/>
   </g>
   <g id="patch_204">
    <path d="M 459.283656 68.255 
L 481.337176 68.255 
L 481.337176 62.305 
L 459.283656 62.305 
z
" clip-path="url(#p8dc27bbba9)" style="fill: #0000ff"/>
   </g>
   <g id="patch_205">
    <path d="M 482.153973 65.503125 
L 510.741869 65.503125 
L 510.741869 65.056875 
L 482.153973 65.056875 
z
" clip-path="url(#p8dc27bbba9)" style="fill: #0000ff"/>
   </g>
   <g id="patch_206">
    <path d="M 511.558666 68.255 
L 607.940716 68.255 
L 607.940716 62.305 
L 511.558666 62.305 
z
" clip-path="url(#p8dc27bbba9)" style="fill: #0000ff"/>
   </g>
   <g id="patch_207">
    <path d="M 512.375463 68.255 
L 614.475093 68.255 
L 614.475093 62.305 
L 512.375463 62.305 
z
" clip-path="url(#p8dc27bbba9)" style="fill: #0000ff"/>
   </g>
   <g id="patch_208">
    <path d="M 513.19226 68.255 
L 609.57431 68.255 
L 609.57431 62.305 
L 513.19226 62.305 
z
" clip-path="url(#p8dc27bbba9)" style="fill: #0000ff"/>
   </g>
   <g id="patch_209">
    <path d="M 513.19226 68.255 
L 611.207904 68.255 
L 611.207904 62.305 
L 513.19226 62.305 
z
" clip-path="url(#p8dc27bbba9)" style="fill: #0000ff"/>
   </g>
   <g id="patch_210">
    <path d="M 513.19226 68.255 
L 611.207904 68.255 
L 611.207904 62.305 
L 513.19226 62.305 
z
" clip-path="url(#p8dc27bbba9)" style="fill: #0000ff"/>
   </g>
   <g id="patch_211">
    <path d="M 513.19226 68.255 
L 609.57431 68.255 
L 609.57431 62.305 
L 513.19226 62.305 
z
" clip-path="url(#p8dc27bbba9)" style="fill: #0000ff"/>
   </g>
   <g id="patch_212">
    <path d="M 513.19226 68.255 
L 606.307122 68.255 
L 606.307122 62.305 
L 513.19226 62.305 
z
" clip-path="url(#p8dc27bbba9)" style="fill: #0000ff"/>
   </g>
   <g id="patch_213">
    <path d="M 513.19226 68.255 
L 612.841499 68.255 
L 612.841499 62.305 
L 513.19226 62.305 
z
" clip-path="url(#p8dc27bbba9)" style="fill: #0000ff"/>
   </g>
   <g id="patch_214">
    <path d="M 514.009057 68.255 
L 612.841499 68.255 
L 612.841499 62.305 
L 514.009057 62.305 
z
" clip-path="url(#p8dc27bbba9)" style="fill: #0000ff"/>
   </g>
   <g id="patch_215">
    <path d="M 514.009057 68.255 
L 600.589543 68.255 
L 600.589543 62.305 
L 514.009057 62.305 
z
" clip-path="url(#p8dc27bbba9)" style="fill: #0000ff"/>
   </g>
   <g id="patch_216">
    <path d="M 514.009057 68.255 
L 609.57431 68.255 
L 609.57431 62.305 
L 514.009057 62.305 
z
" clip-path="url(#p8dc27bbba9)" style="fill: #0000ff"/>
   </g>
   <g id="patch_217">
    <path d="M 514.009057 68.255 
L 614.475093 68.255 
L 614.475093 62.305 
L 514.009057 62.305 
z
" clip-path="url(#p8dc27bbba9)" style="fill: #0000ff"/>
   </g>
   <g id="patch_218">
    <path d="M 514.009057 68.255 
L 609.57431 68.255 
L 609.57431 62.305 
L 514.009057 62.305 
z
" clip-path="url(#p8dc27bbba9)" style="fill: #0000ff"/>
   </g>
   <g id="patch_219">
    <path d="M 514.009057 68.255 
L 609.57431 68.255 
L 609.57431 62.305 
L 514.009057 62.305 
z
" clip-path="url(#p8dc27bbba9)" style="fill: #0000ff"/>
   </g>
   <g id="patch_220">
    <path d="M 514.009057 68.255 
L 612.841499 68.255 
L 612.841499 62.305 
L 514.009057 62.305 
z
" clip-path="url(#p8dc27bbba9)" style="fill: #0000ff"/>
   </g>
   <g id="patch_221">
    <path d="M 514.825854 68.255 
L 616.108687 68.255 
L 616.108687 62.305 
L 514.825854 62.305 
z
" clip-path="url(#p8dc27bbba9)" style="fill: #0000ff"/>
   </g>
   <g id="patch_222">
    <path d="M 514.825854 68.255 
L 602.223137 68.255 
L 602.223137 62.305 
L 514.825854 62.305 
z
" clip-path="url(#p8dc27bbba9)" style="fill: #0000ff"/>
   </g>
   <g id="patch_223">
    <path d="M 514.825854 68.255 
L 601.40634 68.255 
L 601.40634 62.305 
L 514.825854 62.305 
z
" clip-path="url(#p8dc27bbba9)" style="fill: #0000ff"/>
   </g>
   <g id="patch_224">
    <path d="M 514.825854 68.255 
L 612.841499 68.255 
L 612.841499 62.305 
L 514.825854 62.305 
z
" clip-path="url(#p8dc27bbba9)" style="fill: #0000ff"/>
   </g>
   <g id="patch_225">
    <path d="M 514.825854 68.255 
L 609.57431 68.255 
L 609.57431 62.305 
L 514.825854 62.305 
z
" clip-path="url(#p8dc27bbba9)" style="fill: #0000ff"/>
   </g>
   <g id="patch_226">
    <path d="M 514.825854 68.255 
L 609.57431 68.255 
L 609.57431 62.305 
L 514.825854 62.305 
z
" clip-path="url(#p8dc27bbba9)" style="fill: #0000ff"/>
   </g>
   <g id="patch_227">
    <path d="M 514.825854 68.255 
L 601.40634 68.255 
L 601.40634 62.305 
L 514.825854 62.305 
z
" clip-path="url(#p8dc27bbba9)" style="fill: #0000ff"/>
   </g>
   <g id="patch_228">
    <path d="M 514.825854 68.255 
L 601.40634 68.255 
L 601.40634 62.305 
L 514.825854 62.305 
z
" clip-path="url(#p8dc27bbba9)" style="fill: #0000ff"/>
   </g>
   <g id="patch_229">
    <path d="M 514.825854 68.255 
L 603.856731 68.255 
L 603.856731 62.305 
L 514.825854 62.305 
z
" clip-path="url(#p8dc27bbba9)" style="fill: #0000ff"/>
   </g>
   <g id="patch_230">
    <path d="M 514.825854 68.255 
L 603.039934 68.255 
L 603.039934 62.305 
L 514.825854 62.305 
z
" clip-path="url(#p8dc27bbba9)" style="fill: #0000ff"/>
   </g>
   <g id="patch_231">
    <path d="M 516.459448 68.255 
L 603.039934 68.255 
L 603.039934 62.305 
L 516.459448 62.305 
z
" clip-path="url(#p8dc27bbba9)" style="fill: #0000ff"/>
   </g>
   <g id="patch_232">
    <path d="M 516.459448 68.255 
L 624.276657 68.255 
L 624.276657 62.305 
L 516.459448 62.305 
z
" clip-path="url(#p8dc27bbba9)" style="fill: #0000ff"/>
   </g>
   <g id="patch_233">
    <path d="M 516.459448 68.255 
L 603.856731 68.255 
L 603.856731 62.305 
L 516.459448 62.305 
z
" clip-path="url(#p8dc27bbba9)" style="fill: #0000ff"/>
   </g>
   <g id="patch_234">
    <path d="M 616.108687 68.255 
L 642.246192 68.255 
L 642.246192 62.305 
L 616.108687 62.305 
z
" clip-path="url(#p8dc27bbba9)" style="fill: #0000ff"/>
   </g>
   <g id="patch_235">
    <path d="M 616.925484 68.255 
L 644.696583 68.255 
L 644.696583 62.305 
L 616.925484 62.305 
z
" clip-path="url(#p8dc27bbba9)" style="fill: #0000ff"/>
   </g>
   <g id="patch_236">
    <path d="M 616.925484 68.255 
L 644.696583 68.255 
L 644.696583 62.305 
L 616.925484 62.305 
z
" clip-path="url(#p8dc27bbba9)" style="fill: #0000ff"/>
   </g>
   <g id="patch_237">
    <path d="M 645.51338 65.503125 
L 677.368464 65.503125 
L 677.368464 65.056875 
L 645.51338 65.056875 
z
" clip-path="url(#p8dc27bbba9)" style="fill: #0000ff"/>
   </g>
   <g id="patch_238">
    <path d="M 678.185261 68.255 
L 703.50597 68.255 
L 703.50597 62.305 
L 678.185261 62.305 
z
" clip-path="url(#p8dc27bbba9)" style="fill: #0000ff"/>
   </g>
   <g id="patch_239">
    <path d="M 678.185261 68.255 
L 705.956361 68.255 
L 705.956361 62.305 
L 678.185261 62.305 
z
" clip-path="url(#p8dc27bbba9)" style="fill: #0000ff"/>
   </g>
   <g id="patch_240">
    <path d="M 678.185261 68.255 
L 705.956361 68.255 
L 705.956361 62.305 
L 678.185261 62.305 
z
" clip-path="url(#p8dc27bbba9)" style="fill: #0000ff"/>
   </g>
   <g id="patch_241">
    <path d="M 706.773158 68.255 
L 785.185673 68.255 
L 785.185673 62.305 
L 706.773158 62.305 
z
" clip-path="url(#p8dc27bbba9)" style="fill: #0000ff"/>
   </g>
   <g id="patch_242">
    <path d="M 725.55949 68.255 
L 791.720049 68.255 
L 791.720049 62.305 
L 725.55949 62.305 
z
" clip-path="url(#p8dc27bbba9)" style="fill: #0000ff"/>
   </g>
   <g id="patch_243">
    <path d="M 781.918485 68.255 
L 986.934541 68.255 
L 986.934541 62.305 
L 781.918485 62.305 
z
" clip-path="url(#p8dc27bbba9)" style="fill: #0000ff"/>
   </g>
   <g id="patch_244">
    <path d="M 797.437629 68.255 
L 984.48415 68.255 
L 984.48415 62.305 
L 797.437629 62.305 
z
" clip-path="url(#p8dc27bbba9)" style="fill: #0000ff"/>
   </g>
   <g id="patch_245">
    <path d="M 798.254426 68.255 
L 986.934541 68.255 
L 986.934541 62.305 
L 798.254426 62.305 
z
" clip-path="url(#p8dc27bbba9)" style="fill: #0000ff"/>
   </g>
   <g id="patch_246">
    <path d="M 798.254426 68.255 
L 984.48415 68.255 
L 984.48415 62.305 
L 798.254426 62.305 
z
" clip-path="url(#p8dc27bbba9)" style="fill: #0000ff"/>
   </g>
   <g id="patch_247">
    <path d="M 987.751338 65.503125 
L 994.285714 65.503125 
L 994.285714 65.056875 
L 987.751338 65.056875 
z
" clip-path="url(#p8dc27bbba9)" style="fill: #0000ff"/>
   </g>
   <g id="patch_248">
    <path d="M 144 50.628125 
L 168.503911 50.628125 
L 168.503911 50.181875 
L 144 50.181875 
z
" clip-path="url(#p8dc27bbba9)" style="fill: #0000ff"/>
   </g>
   <g id="patch_249">
    <path d="M 169.320708 53.38 
L 352.283244 53.38 
L 352.283244 47.43 
L 169.320708 47.43 
z
" clip-path="url(#p8dc27bbba9)" style="fill: #0000ff"/>
   </g>
   <g id="patch_250">
    <path d="M 170.137505 53.38 
L 352.283244 53.38 
L 352.283244 47.43 
L 170.137505 47.43 
z
" clip-path="url(#p8dc27bbba9)" style="fill: #0000ff"/>
   </g>
   <g id="patch_251">
    <path d="M 170.954302 53.38 
L 354.733635 53.38 
L 354.733635 47.43 
L 170.954302 47.43 
z
" clip-path="url(#p8dc27bbba9)" style="fill: #0000ff"/>
   </g>
   <g id="patch_252">
    <path d="M 170.954302 53.38 
L 352.283244 53.38 
L 352.283244 47.43 
L 170.954302 47.43 
z
" clip-path="url(#p8dc27bbba9)" style="fill: #0000ff"/>
   </g>
   <g id="patch_253">
    <path d="M 315.527378 53.38 
L 358.000823 53.38 
L 358.000823 47.43 
L 315.527378 47.43 
z
" clip-path="url(#p8dc27bbba9)" style="fill: #0000ff"/>
   </g>
   <g id="matplotlib.axis_1">
    <g id="xtick_1">
     <g id="line2d_1">
      <defs>
       <path id="me7f4f28517" d="M 0 0 
L 0 3.5 
" style="stroke: #000000; stroke-width: 0.8"/>
      </defs>
      <g>
       <use xlink:href="#me7f4f28517" x="306.54261" y="272.34" style="stroke: #000000; stroke-width: 0.8"/>
      </g>
     </g>
     <g id="text_1">
      <!-- 200 -->
      <g transform="translate(296.99886 286.938438) scale(0.1 -0.1)">
       <defs>
        <path id="DejaVuSans-32" d="M 1228 531 
L 3431 531 
L 3431 0 
L 469 0 
L 469 531 
Q 828 903 1448 1529 
Q 2069 2156 2228 2338 
Q 2531 2678 2651 2914 
Q 2772 3150 2772 3378 
Q 2772 3750 2511 3984 
Q 2250 4219 1831 4219 
Q 1534 4219 1204 4116 
Q 875 4013 500 3803 
L 500 4441 
Q 881 4594 1212 4672 
Q 1544 4750 1819 4750 
Q 2544 4750 2975 4387 
Q 3406 4025 3406 3419 
Q 3406 3131 3298 2873 
Q 3191 2616 2906 2266 
Q 2828 2175 2409 1742 
Q 1991 1309 1228 531 
z
" transform="scale(0.015625)"/>
        <path id="DejaVuSans-30" d="M 2034 4250 
Q 1547 4250 1301 3770 
Q 1056 3291 1056 2328 
Q 1056 1369 1301 889 
Q 1547 409 2034 409 
Q 2525 409 2770 889 
Q 3016 1369 3016 2328 
Q 3016 3291 2770 3770 
Q 2525 4250 2034 4250 
z
M 2034 4750 
Q 2819 4750 3233 4129 
Q 3647 3509 3647 2328 
Q 3647 1150 3233 529 
Q 2819 -91 2034 -91 
Q 1250 -91 836 529 
Q 422 1150 422 2328 
Q 422 3509 836 4129 
Q 1250 4750 2034 4750 
z
" transform="scale(0.015625)"/>
       </defs>
       <use xlink:href="#DejaVuSans-32"/>
       <use xlink:href="#DejaVuSans-30" x="63.623047"/>
       <use xlink:href="#DejaVuSans-30" x="127.246094"/>
      </g>
     </g>
    </g>
    <g id="xtick_2">
     <g id="line2d_2">
      <g>
       <use xlink:href="#me7f4f28517" x="469.902017" y="272.34" style="stroke: #000000; stroke-width: 0.8"/>
      </g>
     </g>
     <g id="text_2">
      <!-- 400 -->
      <g transform="translate(460.358267 286.938438) scale(0.1 -0.1)">
       <defs>
        <path id="DejaVuSans-34" d="M 2419 4116 
L 825 1625 
L 2419 1625 
L 2419 4116 
z
M 2253 4666 
L 3047 4666 
L 3047 1625 
L 3713 1625 
L 3713 1100 
L 3047 1100 
L 3047 0 
L 2419 0 
L 2419 1100 
L 313 1100 
L 313 1709 
L 2253 4666 
z
" transform="scale(0.015625)"/>
       </defs>
       <use xlink:href="#DejaVuSans-34"/>
       <use xlink:href="#DejaVuSans-30" x="63.623047"/>
       <use xlink:href="#DejaVuSans-30" x="127.246094"/>
      </g>
     </g>
    </g>
    <g id="xtick_3">
     <g id="line2d_3">
      <g>
       <use xlink:href="#me7f4f28517" x="633.261424" y="272.34" style="stroke: #000000; stroke-width: 0.8"/>
      </g>
     </g>
     <g id="text_3">
      <!-- 600 -->
      <g transform="translate(623.717674 286.938438) scale(0.1 -0.1)">
       <defs>
        <path id="DejaVuSans-36" d="M 2113 2584 
Q 1688 2584 1439 2293 
Q 1191 2003 1191 1497 
Q 1191 994 1439 701 
Q 1688 409 2113 409 
Q 2538 409 2786 701 
Q 3034 994 3034 1497 
Q 3034 2003 2786 2293 
Q 2538 2584 2113 2584 
z
M 3366 4563 
L 3366 3988 
Q 3128 4100 2886 4159 
Q 2644 4219 2406 4219 
Q 1781 4219 1451 3797 
Q 1122 3375 1075 2522 
Q 1259 2794 1537 2939 
Q 1816 3084 2150 3084 
Q 2853 3084 3261 2657 
Q 3669 2231 3669 1497 
Q 3669 778 3244 343 
Q 2819 -91 2113 -91 
Q 1303 -91 875 529 
Q 447 1150 447 2328 
Q 447 3434 972 4092 
Q 1497 4750 2381 4750 
Q 2619 4750 2861 4703 
Q 3103 4656 3366 4563 
z
" transform="scale(0.015625)"/>
       </defs>
       <use xlink:href="#DejaVuSans-36"/>
       <use xlink:href="#DejaVuSans-30" x="63.623047"/>
       <use xlink:href="#DejaVuSans-30" x="127.246094"/>
      </g>
     </g>
    </g>
    <g id="xtick_4">
     <g id="line2d_4">
      <g>
       <use xlink:href="#me7f4f28517" x="796.620832" y="272.34" style="stroke: #000000; stroke-width: 0.8"/>
      </g>
     </g>
     <g id="text_4">
      <!-- 800 -->
      <g transform="translate(787.077082 286.938438) scale(0.1 -0.1)">
       <defs>
        <path id="DejaVuSans-38" d="M 2034 2216 
Q 1584 2216 1326 1975 
Q 1069 1734 1069 1313 
Q 1069 891 1326 650 
Q 1584 409 2034 409 
Q 2484 409 2743 651 
Q 3003 894 3003 1313 
Q 3003 1734 2745 1975 
Q 2488 2216 2034 2216 
z
M 1403 2484 
Q 997 2584 770 2862 
Q 544 3141 544 3541 
Q 544 4100 942 4425 
Q 1341 4750 2034 4750 
Q 2731 4750 3128 4425 
Q 3525 4100 3525 3541 
Q 3525 3141 3298 2862 
Q 3072 2584 2669 2484 
Q 3125 2378 3379 2068 
Q 3634 1759 3634 1313 
Q 3634 634 3220 271 
Q 2806 -91 2034 -91 
Q 1263 -91 848 271 
Q 434 634 434 1313 
Q 434 1759 690 2068 
Q 947 2378 1403 2484 
z
M 1172 3481 
Q 1172 3119 1398 2916 
Q 1625 2713 2034 2713 
Q 2441 2713 2670 2916 
Q 2900 3119 2900 3481 
Q 2900 3844 2670 4047 
Q 2441 4250 2034 4250 
Q 1625 4250 1398 4047 
Q 1172 3844 1172 3481 
z
" transform="scale(0.015625)"/>
       </defs>
       <use xlink:href="#DejaVuSans-38"/>
       <use xlink:href="#DejaVuSans-30" x="63.623047"/>
       <use xlink:href="#DejaVuSans-30" x="127.246094"/>
      </g>
     </g>
    </g>
    <g id="xtick_5">
     <g id="line2d_5">
      <g>
       <use xlink:href="#me7f4f28517" x="959.980239" y="272.34" style="stroke: #000000; stroke-width: 0.8"/>
      </g>
     </g>
     <g id="text_5">
      <!-- 1000 -->
      <g transform="translate(947.255239 286.938438) scale(0.1 -0.1)">
       <defs>
        <path id="DejaVuSans-31" d="M 794 531 
L 1825 531 
L 1825 4091 
L 703 3866 
L 703 4441 
L 1819 4666 
L 2450 4666 
L 2450 531 
L 3481 531 
L 3481 0 
L 794 0 
L 794 531 
z
" transform="scale(0.015625)"/>
       </defs>
       <use xlink:href="#DejaVuSans-31"/>
       <use xlink:href="#DejaVuSans-30" x="63.623047"/>
       <use xlink:href="#DejaVuSans-30" x="127.246094"/>
       <use xlink:href="#DejaVuSans-30" x="190.869141"/>
      </g>
     </g>
    </g>
    <g id="text_6">
     <!-- Residual -->
     <g transform="translate(569.284375 300.616562) scale(0.1 -0.1)">
      <defs>
       <path id="DejaVuSans-52" d="M 2841 2188 
Q 3044 2119 3236 1894 
Q 3428 1669 3622 1275 
L 4263 0 
L 3584 0 
L 2988 1197 
Q 2756 1666 2539 1819 
Q 2322 1972 1947 1972 
L 1259 1972 
L 1259 0 
L 628 0 
L 628 4666 
L 2053 4666 
Q 2853 4666 3247 4331 
Q 3641 3997 3641 3322 
Q 3641 2881 3436 2590 
Q 3231 2300 2841 2188 
z
M 1259 4147 
L 1259 2491 
L 2053 2491 
Q 2509 2491 2742 2702 
Q 2975 2913 2975 3322 
Q 2975 3731 2742 3939 
Q 2509 4147 2053 4147 
L 1259 4147 
z
" transform="scale(0.015625)"/>
       <path id="DejaVuSans-65" d="M 3597 1894 
L 3597 1613 
L 953 1613 
Q 991 1019 1311 708 
Q 1631 397 2203 397 
Q 2534 397 2845 478 
Q 3156 559 3463 722 
L 3463 178 
Q 3153 47 2828 -22 
Q 2503 -91 2169 -91 
Q 1331 -91 842 396 
Q 353 884 353 1716 
Q 353 2575 817 3079 
Q 1281 3584 2069 3584 
Q 2775 3584 3186 3129 
Q 3597 2675 3597 1894 
z
M 3022 2063 
Q 3016 2534 2758 2815 
Q 2500 3097 2075 3097 
Q 1594 3097 1305 2825 
Q 1016 2553 972 2059 
L 3022 2063 
z
" transform="scale(0.015625)"/>
       <path id="DejaVuSans-73" d="M 2834 3397 
L 2834 2853 
Q 2591 2978 2328 3040 
Q 2066 3103 1784 3103 
Q 1356 3103 1142 2972 
Q 928 2841 928 2578 
Q 928 2378 1081 2264 
Q 1234 2150 1697 2047 
L 1894 2003 
Q 2506 1872 2764 1633 
Q 3022 1394 3022 966 
Q 3022 478 2636 193 
Q 2250 -91 1575 -91 
Q 1294 -91 989 -36 
Q 684 19 347 128 
L 347 722 
Q 666 556 975 473 
Q 1284 391 1588 391 
Q 1994 391 2212 530 
Q 2431 669 2431 922 
Q 2431 1156 2273 1281 
Q 2116 1406 1581 1522 
L 1381 1569 
Q 847 1681 609 1914 
Q 372 2147 372 2553 
Q 372 3047 722 3315 
Q 1072 3584 1716 3584 
Q 2034 3584 2315 3537 
Q 2597 3491 2834 3397 
z
" transform="scale(0.015625)"/>
       <path id="DejaVuSans-69" d="M 603 3500 
L 1178 3500 
L 1178 0 
L 603 0 
L 603 3500 
z
M 603 4863 
L 1178 4863 
L 1178 4134 
L 603 4134 
L 603 4863 
z
" transform="scale(0.015625)"/>
       <path id="DejaVuSans-64" d="M 2906 2969 
L 2906 4863 
L 3481 4863 
L 3481 0 
L 2906 0 
L 2906 525 
Q 2725 213 2448 61 
Q 2172 -91 1784 -91 
Q 1150 -91 751 415 
Q 353 922 353 1747 
Q 353 2572 751 3078 
Q 1150 3584 1784 3584 
Q 2172 3584 2448 3432 
Q 2725 3281 2906 2969 
z
M 947 1747 
Q 947 1113 1208 752 
Q 1469 391 1925 391 
Q 2381 391 2643 752 
Q 2906 1113 2906 1747 
Q 2906 2381 2643 2742 
Q 2381 3103 1925 3103 
Q 1469 3103 1208 2742 
Q 947 2381 947 1747 
z
" transform="scale(0.015625)"/>
       <path id="DejaVuSans-75" d="M 544 1381 
L 544 3500 
L 1119 3500 
L 1119 1403 
Q 1119 906 1312 657 
Q 1506 409 1894 409 
Q 2359 409 2629 706 
Q 2900 1003 2900 1516 
L 2900 3500 
L 3475 3500 
L 3475 0 
L 2900 0 
L 2900 538 
Q 2691 219 2414 64 
Q 2138 -91 1772 -91 
Q 1169 -91 856 284 
Q 544 659 544 1381 
z
M 1991 3584 
L 1991 3584 
z
" transform="scale(0.015625)"/>
       <path id="DejaVuSans-61" d="M 2194 1759 
Q 1497 1759 1228 1600 
Q 959 1441 959 1056 
Q 959 750 1161 570 
Q 1363 391 1709 391 
Q 2188 391 2477 730 
Q 2766 1069 2766 1631 
L 2766 1759 
L 2194 1759 
z
M 3341 1997 
L 3341 0 
L 2766 0 
L 2766 531 
Q 2569 213 2275 61 
Q 1981 -91 1556 -91 
Q 1019 -91 701 211 
Q 384 513 384 1019 
Q 384 1609 779 1909 
Q 1175 2209 1959 2209 
L 2766 2209 
L 2766 2266 
Q 2766 2663 2505 2880 
Q 2244 3097 1772 3097 
Q 1472 3097 1187 3025 
Q 903 2953 641 2809 
L 641 3341 
Q 956 3463 1253 3523 
Q 1550 3584 1831 3584 
Q 2591 3584 2966 3190 
Q 3341 2797 3341 1997 
z
" transform="scale(0.015625)"/>
       <path id="DejaVuSans-6c" d="M 603 4863 
L 1178 4863 
L 1178 0 
L 603 0 
L 603 4863 
z
" transform="scale(0.015625)"/>
      </defs>
      <use xlink:href="#DejaVuSans-52"/>
      <use xlink:href="#DejaVuSans-65" x="64.982422"/>
      <use xlink:href="#DejaVuSans-73" x="126.505859"/>
      <use xlink:href="#DejaVuSans-69" x="178.605469"/>
      <use xlink:href="#DejaVuSans-64" x="206.388672"/>
      <use xlink:href="#DejaVuSans-75" x="269.865234"/>
      <use xlink:href="#DejaVuSans-61" x="333.244141"/>
      <use xlink:href="#DejaVuSans-6c" x="394.523438"/>
     </g>
    </g>
   </g>
   <g id="matplotlib.axis_2">
    <g id="ytick_1">
     <g id="line2d_6">
      <defs>
       <path id="me0a003b1c8" d="M 0 0 
L -3.5 0 
" style="stroke: #000000; stroke-width: 0.8"/>
      </defs>
      <g>
       <use xlink:href="#me0a003b1c8" x="144" y="258.655" style="stroke: #000000; stroke-width: 0.8"/>
      </g>
     </g>
     <g id="text_7">
      <!-- 8.A.131.1.1 -->
      <g transform="translate(79.446875 262.454219) scale(0.1 -0.1)">
       <defs>
        <path id="DejaVuSans-2e" d="M 684 794 
L 1344 794 
L 1344 0 
L 684 0 
L 684 794 
z
" transform="scale(0.015625)"/>
        <path id="DejaVuSans-41" d="M 2188 4044 
L 1331 1722 
L 3047 1722 
L 2188 4044 
z
M 1831 4666 
L 2547 4666 
L 4325 0 
L 3669 0 
L 3244 1197 
L 1141 1197 
L 716 0 
L 50 0 
L 1831 4666 
z
" transform="scale(0.015625)"/>
        <path id="DejaVuSans-33" d="M 2597 2516 
Q 3050 2419 3304 2112 
Q 3559 1806 3559 1356 
Q 3559 666 3084 287 
Q 2609 -91 1734 -91 
Q 1441 -91 1130 -33 
Q 819 25 488 141 
L 488 750 
Q 750 597 1062 519 
Q 1375 441 1716 441 
Q 2309 441 2620 675 
Q 2931 909 2931 1356 
Q 2931 1769 2642 2001 
Q 2353 2234 1838 2234 
L 1294 2234 
L 1294 2753 
L 1863 2753 
Q 2328 2753 2575 2939 
Q 2822 3125 2822 3475 
Q 2822 3834 2567 4026 
Q 2313 4219 1838 4219 
Q 1578 4219 1281 4162 
Q 984 4106 628 3988 
L 628 4550 
Q 988 4650 1302 4700 
Q 1616 4750 1894 4750 
Q 2613 4750 3031 4423 
Q 3450 4097 3450 3541 
Q 3450 3153 3228 2886 
Q 3006 2619 2597 2516 
z
" transform="scale(0.015625)"/>
       </defs>
       <use xlink:href="#DejaVuSans-38"/>
       <use xlink:href="#DejaVuSans-2e" x="63.623047"/>
       <use xlink:href="#DejaVuSans-41" x="95.410156"/>
       <use xlink:href="#DejaVuSans-2e" x="162.068359"/>
       <use xlink:href="#DejaVuSans-31" x="193.855469"/>
       <use xlink:href="#DejaVuSans-33" x="257.478516"/>
       <use xlink:href="#DejaVuSans-31" x="321.101562"/>
       <use xlink:href="#DejaVuSans-2e" x="384.724609"/>
       <use xlink:href="#DejaVuSans-31" x="416.511719"/>
       <use xlink:href="#DejaVuSans-2e" x="480.134766"/>
       <use xlink:href="#DejaVuSans-31" x="511.921875"/>
      </g>
     </g>
    </g>
    <g id="ytick_2">
     <g id="line2d_7">
      <g>
       <use xlink:href="#me0a003b1c8" x="144" y="243.78" style="stroke: #000000; stroke-width: 0.8"/>
      </g>
     </g>
     <g id="text_8">
      <!-- 8.A.131.1.10 -->
      <g transform="translate(73.084375 247.579219) scale(0.1 -0.1)">
       <use xlink:href="#DejaVuSans-38"/>
       <use xlink:href="#DejaVuSans-2e" x="63.623047"/>
       <use xlink:href="#DejaVuSans-41" x="95.410156"/>
       <use xlink:href="#DejaVuSans-2e" x="162.068359"/>
       <use xlink:href="#DejaVuSans-31" x="193.855469"/>
       <use xlink:href="#DejaVuSans-33" x="257.478516"/>
       <use xlink:href="#DejaVuSans-31" x="321.101562"/>
       <use xlink:href="#DejaVuSans-2e" x="384.724609"/>
       <use xlink:href="#DejaVuSans-31" x="416.511719"/>
       <use xlink:href="#DejaVuSans-2e" x="480.134766"/>
       <use xlink:href="#DejaVuSans-31" x="511.921875"/>
       <use xlink:href="#DejaVuSans-30" x="575.544922"/>
      </g>
     </g>
    </g>
    <g id="ytick_3">
     <g id="line2d_8">
      <g>
       <use xlink:href="#me0a003b1c8" x="144" y="228.905" style="stroke: #000000; stroke-width: 0.8"/>
      </g>
     </g>
     <g id="text_9">
      <!-- 8.A.131.1.12 -->
      <g transform="translate(73.084375 232.704219) scale(0.1 -0.1)">
       <use xlink:href="#DejaVuSans-38"/>
       <use xlink:href="#DejaVuSans-2e" x="63.623047"/>
       <use xlink:href="#DejaVuSans-41" x="95.410156"/>
       <use xlink:href="#DejaVuSans-2e" x="162.068359"/>
       <use xlink:href="#DejaVuSans-31" x="193.855469"/>
       <use xlink:href="#DejaVuSans-33" x="257.478516"/>
       <use xlink:href="#DejaVuSans-31" x="321.101562"/>
       <use xlink:href="#DejaVuSans-2e" x="384.724609"/>
       <use xlink:href="#DejaVuSans-31" x="416.511719"/>
       <use xlink:href="#DejaVuSans-2e" x="480.134766"/>
       <use xlink:href="#DejaVuSans-31" x="511.921875"/>
       <use xlink:href="#DejaVuSans-32" x="575.544922"/>
      </g>
     </g>
    </g>
    <g id="ytick_4">
     <g id="line2d_9">
      <g>
       <use xlink:href="#me0a003b1c8" x="144" y="214.03" style="stroke: #000000; stroke-width: 0.8"/>
      </g>
     </g>
     <g id="text_10">
      <!-- 8.A.131.1.13 -->
      <g transform="translate(73.084375 217.829219) scale(0.1 -0.1)">
       <use xlink:href="#DejaVuSans-38"/>
       <use xlink:href="#DejaVuSans-2e" x="63.623047"/>
       <use xlink:href="#DejaVuSans-41" x="95.410156"/>
       <use xlink:href="#DejaVuSans-2e" x="162.068359"/>
       <use xlink:href="#DejaVuSans-31" x="193.855469"/>
       <use xlink:href="#DejaVuSans-33" x="257.478516"/>
       <use xlink:href="#DejaVuSans-31" x="321.101562"/>
       <use xlink:href="#DejaVuSans-2e" x="384.724609"/>
       <use xlink:href="#DejaVuSans-31" x="416.511719"/>
       <use xlink:href="#DejaVuSans-2e" x="480.134766"/>
       <use xlink:href="#DejaVuSans-31" x="511.921875"/>
       <use xlink:href="#DejaVuSans-33" x="575.544922"/>
      </g>
     </g>
    </g>
    <g id="ytick_5">
     <g id="line2d_10">
      <g>
       <use xlink:href="#me0a003b1c8" x="144" y="199.155" style="stroke: #000000; stroke-width: 0.8"/>
      </g>
     </g>
     <g id="text_11">
      <!-- 8.A.131.1.14 -->
      <g transform="translate(73.084375 202.954219) scale(0.1 -0.1)">
       <use xlink:href="#DejaVuSans-38"/>
       <use xlink:href="#DejaVuSans-2e" x="63.623047"/>
       <use xlink:href="#DejaVuSans-41" x="95.410156"/>
       <use xlink:href="#DejaVuSans-2e" x="162.068359"/>
       <use xlink:href="#DejaVuSans-31" x="193.855469"/>
       <use xlink:href="#DejaVuSans-33" x="257.478516"/>
       <use xlink:href="#DejaVuSans-31" x="321.101562"/>
       <use xlink:href="#DejaVuSans-2e" x="384.724609"/>
       <use xlink:href="#DejaVuSans-31" x="416.511719"/>
       <use xlink:href="#DejaVuSans-2e" x="480.134766"/>
       <use xlink:href="#DejaVuSans-31" x="511.921875"/>
       <use xlink:href="#DejaVuSans-34" x="575.544922"/>
      </g>
     </g>
    </g>
    <g id="ytick_6">
     <g id="line2d_11">
      <g>
       <use xlink:href="#me0a003b1c8" x="144" y="184.28" style="stroke: #000000; stroke-width: 0.8"/>
      </g>
     </g>
     <g id="text_12">
      <!-- 8.A.131.1.15 -->
      <g transform="translate(73.084375 188.079219) scale(0.1 -0.1)">
       <defs>
        <path id="DejaVuSans-35" d="M 691 4666 
L 3169 4666 
L 3169 4134 
L 1269 4134 
L 1269 2991 
Q 1406 3038 1543 3061 
Q 1681 3084 1819 3084 
Q 2600 3084 3056 2656 
Q 3513 2228 3513 1497 
Q 3513 744 3044 326 
Q 2575 -91 1722 -91 
Q 1428 -91 1123 -41 
Q 819 9 494 109 
L 494 744 
Q 775 591 1075 516 
Q 1375 441 1709 441 
Q 2250 441 2565 725 
Q 2881 1009 2881 1497 
Q 2881 1984 2565 2268 
Q 2250 2553 1709 2553 
Q 1456 2553 1204 2497 
Q 953 2441 691 2322 
L 691 4666 
z
" transform="scale(0.015625)"/>
       </defs>
       <use xlink:href="#DejaVuSans-38"/>
       <use xlink:href="#DejaVuSans-2e" x="63.623047"/>
       <use xlink:href="#DejaVuSans-41" x="95.410156"/>
       <use xlink:href="#DejaVuSans-2e" x="162.068359"/>
       <use xlink:href="#DejaVuSans-31" x="193.855469"/>
       <use xlink:href="#DejaVuSans-33" x="257.478516"/>
       <use xlink:href="#DejaVuSans-31" x="321.101562"/>
       <use xlink:href="#DejaVuSans-2e" x="384.724609"/>
       <use xlink:href="#DejaVuSans-31" x="416.511719"/>
       <use xlink:href="#DejaVuSans-2e" x="480.134766"/>
       <use xlink:href="#DejaVuSans-31" x="511.921875"/>
       <use xlink:href="#DejaVuSans-35" x="575.544922"/>
      </g>
     </g>
    </g>
    <g id="ytick_7">
     <g id="line2d_12">
      <g>
       <use xlink:href="#me0a003b1c8" x="144" y="169.405" style="stroke: #000000; stroke-width: 0.8"/>
      </g>
     </g>
     <g id="text_13">
      <!-- 8.A.131.1.16 -->
      <g transform="translate(73.084375 173.204219) scale(0.1 -0.1)">
       <use xlink:href="#DejaVuSans-38"/>
       <use xlink:href="#DejaVuSans-2e" x="63.623047"/>
       <use xlink:href="#DejaVuSans-41" x="95.410156"/>
       <use xlink:href="#DejaVuSans-2e" x="162.068359"/>
       <use xlink:href="#DejaVuSans-31" x="193.855469"/>
       <use xlink:href="#DejaVuSans-33" x="257.478516"/>
       <use xlink:href="#DejaVuSans-31" x="321.101562"/>
       <use xlink:href="#DejaVuSans-2e" x="384.724609"/>
       <use xlink:href="#DejaVuSans-31" x="416.511719"/>
       <use xlink:href="#DejaVuSans-2e" x="480.134766"/>
       <use xlink:href="#DejaVuSans-31" x="511.921875"/>
       <use xlink:href="#DejaVuSans-36" x="575.544922"/>
      </g>
     </g>
    </g>
    <g id="ytick_8">
     <g id="line2d_13">
      <g>
       <use xlink:href="#me0a003b1c8" x="144" y="154.53" style="stroke: #000000; stroke-width: 0.8"/>
      </g>
     </g>
     <g id="text_14">
      <!-- 8.A.131.1.2 -->
      <g transform="translate(79.446875 158.329219) scale(0.1 -0.1)">
       <use xlink:href="#DejaVuSans-38"/>
       <use xlink:href="#DejaVuSans-2e" x="63.623047"/>
       <use xlink:href="#DejaVuSans-41" x="95.410156"/>
       <use xlink:href="#DejaVuSans-2e" x="162.068359"/>
       <use xlink:href="#DejaVuSans-31" x="193.855469"/>
       <use xlink:href="#DejaVuSans-33" x="257.478516"/>
       <use xlink:href="#DejaVuSans-31" x="321.101562"/>
       <use xlink:href="#DejaVuSans-2e" x="384.724609"/>
       <use xlink:href="#DejaVuSans-31" x="416.511719"/>
       <use xlink:href="#DejaVuSans-2e" x="480.134766"/>
       <use xlink:href="#DejaVuSans-32" x="511.921875"/>
      </g>
     </g>
    </g>
    <g id="ytick_9">
     <g id="line2d_14">
      <g>
       <use xlink:href="#me0a003b1c8" x="144" y="139.655" style="stroke: #000000; stroke-width: 0.8"/>
      </g>
     </g>
     <g id="text_15">
      <!-- 8.A.131.1.3 -->
      <g transform="translate(79.446875 143.454219) scale(0.1 -0.1)">
       <use xlink:href="#DejaVuSans-38"/>
       <use xlink:href="#DejaVuSans-2e" x="63.623047"/>
       <use xlink:href="#DejaVuSans-41" x="95.410156"/>
       <use xlink:href="#DejaVuSans-2e" x="162.068359"/>
       <use xlink:href="#DejaVuSans-31" x="193.855469"/>
       <use xlink:href="#DejaVuSans-33" x="257.478516"/>
       <use xlink:href="#DejaVuSans-31" x="321.101562"/>
       <use xlink:href="#DejaVuSans-2e" x="384.724609"/>
       <use xlink:href="#DejaVuSans-31" x="416.511719"/>
       <use xlink:href="#DejaVuSans-2e" x="480.134766"/>
       <use xlink:href="#DejaVuSans-33" x="511.921875"/>
      </g>
     </g>
    </g>
    <g id="ytick_10">
     <g id="line2d_15">
      <g>
       <use xlink:href="#me0a003b1c8" x="144" y="124.78" style="stroke: #000000; stroke-width: 0.8"/>
      </g>
     </g>
     <g id="text_16">
      <!-- 8.A.131.1.4 -->
      <g transform="translate(79.446875 128.579219) scale(0.1 -0.1)">
       <use xlink:href="#DejaVuSans-38"/>
       <use xlink:href="#DejaVuSans-2e" x="63.623047"/>
       <use xlink:href="#DejaVuSans-41" x="95.410156"/>
       <use xlink:href="#DejaVuSans-2e" x="162.068359"/>
       <use xlink:href="#DejaVuSans-31" x="193.855469"/>
       <use xlink:href="#DejaVuSans-33" x="257.478516"/>
       <use xlink:href="#DejaVuSans-31" x="321.101562"/>
       <use xlink:href="#DejaVuSans-2e" x="384.724609"/>
       <use xlink:href="#DejaVuSans-31" x="416.511719"/>
       <use xlink:href="#DejaVuSans-2e" x="480.134766"/>
       <use xlink:href="#DejaVuSans-34" x="511.921875"/>
      </g>
     </g>
    </g>
    <g id="ytick_11">
     <g id="line2d_16">
      <g>
       <use xlink:href="#me0a003b1c8" x="144" y="109.905" style="stroke: #000000; stroke-width: 0.8"/>
      </g>
     </g>
     <g id="text_17">
      <!-- 8.A.131.1.5 -->
      <g transform="translate(79.446875 113.704219) scale(0.1 -0.1)">
       <use xlink:href="#DejaVuSans-38"/>
       <use xlink:href="#DejaVuSans-2e" x="63.623047"/>
       <use xlink:href="#DejaVuSans-41" x="95.410156"/>
       <use xlink:href="#DejaVuSans-2e" x="162.068359"/>
       <use xlink:href="#DejaVuSans-31" x="193.855469"/>
       <use xlink:href="#DejaVuSans-33" x="257.478516"/>
       <use xlink:href="#DejaVuSans-31" x="321.101562"/>
       <use xlink:href="#DejaVuSans-2e" x="384.724609"/>
       <use xlink:href="#DejaVuSans-31" x="416.511719"/>
       <use xlink:href="#DejaVuSans-2e" x="480.134766"/>
       <use xlink:href="#DejaVuSans-35" x="511.921875"/>
      </g>
     </g>
    </g>
    <g id="ytick_12">
     <g id="line2d_17">
      <g>
       <use xlink:href="#me0a003b1c8" x="144" y="95.03" style="stroke: #000000; stroke-width: 0.8"/>
      </g>
     </g>
     <g id="text_18">
      <!-- 8.A.131.1.6 -->
      <g transform="translate(79.446875 98.829219) scale(0.1 -0.1)">
       <use xlink:href="#DejaVuSans-38"/>
       <use xlink:href="#DejaVuSans-2e" x="63.623047"/>
       <use xlink:href="#DejaVuSans-41" x="95.410156"/>
       <use xlink:href="#DejaVuSans-2e" x="162.068359"/>
       <use xlink:href="#DejaVuSans-31" x="193.855469"/>
       <use xlink:href="#DejaVuSans-33" x="257.478516"/>
       <use xlink:href="#DejaVuSans-31" x="321.101562"/>
       <use xlink:href="#DejaVuSans-2e" x="384.724609"/>
       <use xlink:href="#DejaVuSans-31" x="416.511719"/>
       <use xlink:href="#DejaVuSans-2e" x="480.134766"/>
       <use xlink:href="#DejaVuSans-36" x="511.921875"/>
      </g>
     </g>
    </g>
    <g id="ytick_13">
     <g id="line2d_18">
      <g>
       <use xlink:href="#me0a003b1c8" x="144" y="80.155" style="stroke: #000000; stroke-width: 0.8"/>
      </g>
     </g>
     <g id="text_19">
      <!-- 8.A.131.1.7 -->
      <g transform="translate(79.446875 83.954219) scale(0.1 -0.1)">
       <defs>
        <path id="DejaVuSans-37" d="M 525 4666 
L 3525 4666 
L 3525 4397 
L 1831 0 
L 1172 0 
L 2766 4134 
L 525 4134 
L 525 4666 
z
" transform="scale(0.015625)"/>
       </defs>
       <use xlink:href="#DejaVuSans-38"/>
       <use xlink:href="#DejaVuSans-2e" x="63.623047"/>
       <use xlink:href="#DejaVuSans-41" x="95.410156"/>
       <use xlink:href="#DejaVuSans-2e" x="162.068359"/>
       <use xlink:href="#DejaVuSans-31" x="193.855469"/>
       <use xlink:href="#DejaVuSans-33" x="257.478516"/>
       <use xlink:href="#DejaVuSans-31" x="321.101562"/>
       <use xlink:href="#DejaVuSans-2e" x="384.724609"/>
       <use xlink:href="#DejaVuSans-31" x="416.511719"/>
       <use xlink:href="#DejaVuSans-2e" x="480.134766"/>
       <use xlink:href="#DejaVuSans-37" x="511.921875"/>
      </g>
     </g>
    </g>
    <g id="ytick_14">
     <g id="line2d_19">
      <g>
       <use xlink:href="#me0a003b1c8" x="144" y="65.28" style="stroke: #000000; stroke-width: 0.8"/>
      </g>
     </g>
     <g id="text_20">
      <!-- 8.A.131.1.8 -->
      <g transform="translate(79.446875 69.079219) scale(0.1 -0.1)">
       <use xlink:href="#DejaVuSans-38"/>
       <use xlink:href="#DejaVuSans-2e" x="63.623047"/>
       <use xlink:href="#DejaVuSans-41" x="95.410156"/>
       <use xlink:href="#DejaVuSans-2e" x="162.068359"/>
       <use xlink:href="#DejaVuSans-31" x="193.855469"/>
       <use xlink:href="#DejaVuSans-33" x="257.478516"/>
       <use xlink:href="#DejaVuSans-31" x="321.101562"/>
       <use xlink:href="#DejaVuSans-2e" x="384.724609"/>
       <use xlink:href="#DejaVuSans-31" x="416.511719"/>
       <use xlink:href="#DejaVuSans-2e" x="480.134766"/>
       <use xlink:href="#DejaVuSans-38" x="511.921875"/>
      </g>
     </g>
    </g>
    <g id="ytick_15">
     <g id="line2d_20">
      <g>
       <use xlink:href="#me0a003b1c8" x="144" y="50.405" style="stroke: #000000; stroke-width: 0.8"/>
      </g>
     </g>
     <g id="text_21">
      <!-- 8.A.131.1.9 -->
      <g transform="translate(79.446875 54.204219) scale(0.1 -0.1)">
       <defs>
        <path id="DejaVuSans-39" d="M 703 97 
L 703 672 
Q 941 559 1184 500 
Q 1428 441 1663 441 
Q 2288 441 2617 861 
Q 2947 1281 2994 2138 
Q 2813 1869 2534 1725 
Q 2256 1581 1919 1581 
Q 1219 1581 811 2004 
Q 403 2428 403 3163 
Q 403 3881 828 4315 
Q 1253 4750 1959 4750 
Q 2769 4750 3195 4129 
Q 3622 3509 3622 2328 
Q 3622 1225 3098 567 
Q 2575 -91 1691 -91 
Q 1453 -91 1209 -44 
Q 966 3 703 97 
z
M 1959 2075 
Q 2384 2075 2632 2365 
Q 2881 2656 2881 3163 
Q 2881 3666 2632 3958 
Q 2384 4250 1959 4250 
Q 1534 4250 1286 3958 
Q 1038 3666 1038 3163 
Q 1038 2656 1286 2365 
Q 1534 2075 1959 2075 
z
" transform="scale(0.015625)"/>
       </defs>
       <use xlink:href="#DejaVuSans-38"/>
       <use xlink:href="#DejaVuSans-2e" x="63.623047"/>
       <use xlink:href="#DejaVuSans-41" x="95.410156"/>
       <use xlink:href="#DejaVuSans-2e" x="162.068359"/>
       <use xlink:href="#DejaVuSans-31" x="193.855469"/>
       <use xlink:href="#DejaVuSans-33" x="257.478516"/>
       <use xlink:href="#DejaVuSans-31" x="321.101562"/>
       <use xlink:href="#DejaVuSans-2e" x="384.724609"/>
       <use xlink:href="#DejaVuSans-31" x="416.511719"/>
       <use xlink:href="#DejaVuSans-2e" x="480.134766"/>
       <use xlink:href="#DejaVuSans-39" x="511.921875"/>
      </g>
     </g>
    </g>
   </g>
   <g id="patch_254">
    <path d="M 144 272.34 
L 144 36.72 
" style="fill: none; stroke: #000000; stroke-width: 0.8; stroke-linejoin: miter; stroke-linecap: square"/>
   </g>
   <g id="patch_255">
    <path d="M 1036.8 272.34 
L 1036.8 36.72 
" style="fill: none; stroke: #000000; stroke-width: 0.8; stroke-linejoin: miter; stroke-linecap: square"/>
   </g>
   <g id="patch_256">
    <path d="M 144 272.34 
L 1036.8 272.34 
" style="fill: none; stroke: #000000; stroke-width: 0.8; stroke-linejoin: miter; stroke-linecap: square"/>
   </g>
   <g id="patch_257">
    <path d="M 144 36.72 
L 1036.8 36.72 
" style="fill: none; stroke: #000000; stroke-width: 0.8; stroke-linejoin: miter; stroke-linecap: square"/>
   </g>
   <g id="text_22">
    <!-- 8.A.131 Summary -->
    <g transform="translate(536.415 30.72) scale(0.12 -0.12)">
     <defs>
      <path id="DejaVuSans-20" transform="scale(0.015625)"/>
      <path id="DejaVuSans-53" d="M 3425 4513 
L 3425 3897 
Q 3066 4069 2747 4153 
Q 2428 4238 2131 4238 
Q 1616 4238 1336 4038 
Q 1056 3838 1056 3469 
Q 1056 3159 1242 3001 
Q 1428 2844 1947 2747 
L 2328 2669 
Q 3034 2534 3370 2195 
Q 3706 1856 3706 1288 
Q 3706 609 3251 259 
Q 2797 -91 1919 -91 
Q 1588 -91 1214 -16 
Q 841 59 441 206 
L 441 856 
Q 825 641 1194 531 
Q 1563 422 1919 422 
Q 2459 422 2753 634 
Q 3047 847 3047 1241 
Q 3047 1584 2836 1778 
Q 2625 1972 2144 2069 
L 1759 2144 
Q 1053 2284 737 2584 
Q 422 2884 422 3419 
Q 422 4038 858 4394 
Q 1294 4750 2059 4750 
Q 2388 4750 2728 4690 
Q 3069 4631 3425 4513 
z
" transform="scale(0.015625)"/>
      <path id="DejaVuSans-6d" d="M 3328 2828 
Q 3544 3216 3844 3400 
Q 4144 3584 4550 3584 
Q 5097 3584 5394 3201 
Q 5691 2819 5691 2113 
L 5691 0 
L 5113 0 
L 5113 2094 
Q 5113 2597 4934 2840 
Q 4756 3084 4391 3084 
Q 3944 3084 3684 2787 
Q 3425 2491 3425 1978 
L 3425 0 
L 2847 0 
L 2847 2094 
Q 2847 2600 2669 2842 
Q 2491 3084 2119 3084 
Q 1678 3084 1418 2786 
Q 1159 2488 1159 1978 
L 1159 0 
L 581 0 
L 581 3500 
L 1159 3500 
L 1159 2956 
Q 1356 3278 1631 3431 
Q 1906 3584 2284 3584 
Q 2666 3584 2933 3390 
Q 3200 3197 3328 2828 
z
" transform="scale(0.015625)"/>
      <path id="DejaVuSans-72" d="M 2631 2963 
Q 2534 3019 2420 3045 
Q 2306 3072 2169 3072 
Q 1681 3072 1420 2755 
Q 1159 2438 1159 1844 
L 1159 0 
L 581 0 
L 581 3500 
L 1159 3500 
L 1159 2956 
Q 1341 3275 1631 3429 
Q 1922 3584 2338 3584 
Q 2397 3584 2469 3576 
Q 2541 3569 2628 3553 
L 2631 2963 
z
" transform="scale(0.015625)"/>
      <path id="DejaVuSans-79" d="M 2059 -325 
Q 1816 -950 1584 -1140 
Q 1353 -1331 966 -1331 
L 506 -1331 
L 506 -850 
L 844 -850 
Q 1081 -850 1212 -737 
Q 1344 -625 1503 -206 
L 1606 56 
L 191 3500 
L 800 3500 
L 1894 763 
L 2988 3500 
L 3597 3500 
L 2059 -325 
z
" transform="scale(0.015625)"/>
     </defs>
     <use xlink:href="#DejaVuSans-38"/>
     <use xlink:href="#DejaVuSans-2e" x="63.623047"/>
     <use xlink:href="#DejaVuSans-41" x="95.410156"/>
     <use xlink:href="#DejaVuSans-2e" x="162.068359"/>
     <use xlink:href="#DejaVuSans-31" x="193.855469"/>
     <use xlink:href="#DejaVuSans-33" x="257.478516"/>
     <use xlink:href="#DejaVuSans-31" x="321.101562"/>
     <use xlink:href="#DejaVuSans-20" x="384.724609"/>
     <use xlink:href="#DejaVuSans-53" x="416.511719"/>
     <use xlink:href="#DejaVuSans-75" x="479.988281"/>
     <use xlink:href="#DejaVuSans-6d" x="543.367188"/>
     <use xlink:href="#DejaVuSans-6d" x="640.779297"/>
     <use xlink:href="#DejaVuSans-61" x="738.191406"/>
     <use xlink:href="#DejaVuSans-72" x="799.470703"/>
     <use xlink:href="#DejaVuSans-79" x="840.583984"/>
    </g>
   </g>
  </g>
 </g>
 <defs>
  <clipPath id="p8dc27bbba9">
   <rect x="144" y="36.72" width="892.8" height="235.62"/>
  </clipPath>
 </defs>
</svg>
