<?xml version="1.0" encoding="utf-8" standalone="no"?>
<!DOCTYPE svg PUBLIC "-//W3C//DTD SVG 1.1//EN"
  "http://www.w3.org/Graphics/SVG/1.1/DTD/svg11.dtd">
<svg xmlns:xlink="http://www.w3.org/1999/xlink" width="1152pt" height="216pt" viewBox="0 0 1152 216" xmlns="http://www.w3.org/2000/svg" version="1.1">
 <metadata>
  <rdf:RDF xmlns:dc="http://purl.org/dc/elements/1.1/" xmlns:cc="http://creativecommons.org/ns#" xmlns:rdf="http://www.w3.org/1999/02/22-rdf-syntax-ns#">
   <cc:Work>
    <dc:type rdf:resource="http://purl.org/dc/dcmitype/StillImage"/>
    <dc:date>2024-10-25T07:58:52.207396</dc:date>
    <dc:format>image/svg+xml</dc:format>
    <dc:creator>
     <cc:Agent>
      <dc:title>Matplotlib v3.9.2, https://matplotlib.org/</dc:title>
     </cc:Agent>
    </dc:creator>
   </cc:Work>
  </rdf:RDF>
 </metadata>
 <defs>
  <style type="text/css">*{stroke-linejoin: round; stroke-linecap: butt}</style>
 </defs>
 <g id="figure_1">
  <g id="patch_1">
   <path d="M 0 216 
L 1152 216 
L 1152 0 
L 0 0 
z
" style="fill: #ffffff"/>
  </g>
  <g id="axes_1">
   <g id="patch_2">
    <path d="M 144 192.24 
L 1036.8 192.24 
L 1036.8 25.92 
L 144 25.92 
z
" style="fill: #ffffff"/>
   </g>
   <g id="patch_3">
    <path d="M 144 180.9 
L 144.334626 180.9 
L 144.334626 180.287027 
L 144 180.287027 
z
" clip-path="url(#p98cfbad29b)" style="fill: #0000ff"/>
   </g>
   <g id="patch_4">
    <path d="M 144.669253 184.68 
L 172.777871 184.68 
L 172.777871 176.507027 
L 144.669253 176.507027 
z
" clip-path="url(#p98cfbad29b)" style="fill: #0000ff"/>
   </g>
   <g id="patch_5">
    <path d="M 144.669253 184.68 
L 172.777871 184.68 
L 172.777871 176.507027 
L 144.669253 176.507027 
z
" clip-path="url(#p98cfbad29b)" style="fill: #0000ff"/>
   </g>
   <g id="patch_6">
    <path d="M 145.003879 184.68 
L 173.112498 184.68 
L 173.112498 176.507027 
L 145.003879 176.507027 
z
" clip-path="url(#p98cfbad29b)" style="fill: #0000ff"/>
   </g>
   <g id="patch_7">
    <path d="M 145.338506 184.68 
L 171.773992 184.68 
L 171.773992 176.507027 
L 145.338506 176.507027 
z
" clip-path="url(#p98cfbad29b)" style="fill: #0000ff"/>
   </g>
   <g id="patch_8">
    <path d="M 145.338506 184.68 
L 172.777871 184.68 
L 172.777871 176.507027 
L 145.338506 176.507027 
z
" clip-path="url(#p98cfbad29b)" style="fill: #0000ff"/>
   </g>
   <g id="patch_9">
    <path d="M 145.338506 184.68 
L 173.112498 184.68 
L 173.112498 176.507027 
L 145.338506 176.507027 
z
" clip-path="url(#p98cfbad29b)" style="fill: #0000ff"/>
   </g>
   <g id="patch_10">
    <path d="M 145.338506 184.68 
L 172.108619 184.68 
L 172.108619 176.507027 
L 145.338506 176.507027 
z
" clip-path="url(#p98cfbad29b)" style="fill: #0000ff"/>
   </g>
   <g id="patch_11">
    <path d="M 145.338506 184.68 
L 172.777871 184.68 
L 172.777871 176.507027 
L 145.338506 176.507027 
z
" clip-path="url(#p98cfbad29b)" style="fill: #0000ff"/>
   </g>
   <g id="patch_12">
    <path d="M 145.338506 184.68 
L 173.112498 184.68 
L 173.112498 176.507027 
L 145.338506 176.507027 
z
" clip-path="url(#p98cfbad29b)" style="fill: #0000ff"/>
   </g>
   <g id="patch_13">
    <path d="M 145.338506 184.68 
L 172.108619 184.68 
L 172.108619 176.507027 
L 145.338506 176.507027 
z
" clip-path="url(#p98cfbad29b)" style="fill: #0000ff"/>
   </g>
   <g id="patch_14">
    <path d="M 145.338506 184.68 
L 173.112498 184.68 
L 173.112498 176.507027 
L 145.338506 176.507027 
z
" clip-path="url(#p98cfbad29b)" style="fill: #0000ff"/>
   </g>
   <g id="patch_15">
    <path d="M 145.338506 184.68 
L 172.777871 184.68 
L 172.777871 176.507027 
L 145.338506 176.507027 
z
" clip-path="url(#p98cfbad29b)" style="fill: #0000ff"/>
   </g>
   <g id="patch_16">
    <path d="M 145.338506 184.68 
L 172.777871 184.68 
L 172.777871 176.507027 
L 145.338506 176.507027 
z
" clip-path="url(#p98cfbad29b)" style="fill: #0000ff"/>
   </g>
   <g id="patch_17">
    <path d="M 145.673132 184.68 
L 171.104739 184.68 
L 171.104739 176.507027 
L 145.673132 176.507027 
z
" clip-path="url(#p98cfbad29b)" style="fill: #0000ff"/>
   </g>
   <g id="patch_18">
    <path d="M 146.007758 184.68 
L 212.598415 184.68 
L 212.598415 176.507027 
L 146.007758 176.507027 
z
" clip-path="url(#p98cfbad29b)" style="fill: #0000ff"/>
   </g>
   <g id="patch_19">
    <path d="M 146.007758 184.68 
L 170.770113 184.68 
L 170.770113 176.507027 
L 146.007758 176.507027 
z
" clip-path="url(#p98cfbad29b)" style="fill: #0000ff"/>
   </g>
   <g id="patch_20">
    <path d="M 146.007758 184.68 
L 172.108619 184.68 
L 172.108619 176.507027 
L 146.007758 176.507027 
z
" clip-path="url(#p98cfbad29b)" style="fill: #0000ff"/>
   </g>
   <g id="patch_21">
    <path d="M 146.007758 184.68 
L 173.112498 184.68 
L 173.112498 176.507027 
L 146.007758 176.507027 
z
" clip-path="url(#p98cfbad29b)" style="fill: #0000ff"/>
   </g>
   <g id="patch_22">
    <path d="M 146.342385 184.68 
L 173.112498 184.68 
L 173.112498 176.507027 
L 146.342385 176.507027 
z
" clip-path="url(#p98cfbad29b)" style="fill: #0000ff"/>
   </g>
   <g id="patch_23">
    <path d="M 146.342385 184.68 
L 166.41997 184.68 
L 166.41997 176.507027 
L 146.342385 176.507027 
z
" clip-path="url(#p98cfbad29b)" style="fill: #0000ff"/>
   </g>
   <g id="patch_24">
    <path d="M 146.342385 184.68 
L 173.112498 184.68 
L 173.112498 176.507027 
L 146.342385 176.507027 
z
" clip-path="url(#p98cfbad29b)" style="fill: #0000ff"/>
   </g>
   <g id="patch_25">
    <path d="M 146.342385 184.68 
L 173.112498 184.68 
L 173.112498 176.507027 
L 146.342385 176.507027 
z
" clip-path="url(#p98cfbad29b)" style="fill: #0000ff"/>
   </g>
   <g id="patch_26">
    <path d="M 146.342385 184.68 
L 173.112498 184.68 
L 173.112498 176.507027 
L 146.342385 176.507027 
z
" clip-path="url(#p98cfbad29b)" style="fill: #0000ff"/>
   </g>
   <g id="patch_27">
    <path d="M 146.677011 184.68 
L 166.41997 184.68 
L 166.41997 176.507027 
L 146.677011 176.507027 
z
" clip-path="url(#p98cfbad29b)" style="fill: #0000ff"/>
   </g>
   <g id="patch_28">
    <path d="M 148.015517 184.68 
L 172.108619 184.68 
L 172.108619 176.507027 
L 148.015517 176.507027 
z
" clip-path="url(#p98cfbad29b)" style="fill: #0000ff"/>
   </g>
   <g id="patch_29">
    <path d="M 148.015517 184.68 
L 173.447124 184.68 
L 173.447124 176.507027 
L 148.015517 176.507027 
z
" clip-path="url(#p98cfbad29b)" style="fill: #0000ff"/>
   </g>
   <g id="patch_30">
    <path d="M 148.015517 184.68 
L 172.108619 184.68 
L 172.108619 176.507027 
L 148.015517 176.507027 
z
" clip-path="url(#p98cfbad29b)" style="fill: #0000ff"/>
   </g>
   <g id="patch_31">
    <path d="M 148.015517 184.68 
L 173.112498 184.68 
L 173.112498 176.507027 
L 148.015517 176.507027 
z
" clip-path="url(#p98cfbad29b)" style="fill: #0000ff"/>
   </g>
   <g id="patch_32">
    <path d="M 148.015517 184.68 
L 173.447124 184.68 
L 173.447124 176.507027 
L 148.015517 176.507027 
z
" clip-path="url(#p98cfbad29b)" style="fill: #0000ff"/>
   </g>
   <g id="patch_33">
    <path d="M 148.015517 184.68 
L 173.447124 184.68 
L 173.447124 176.507027 
L 148.015517 176.507027 
z
" clip-path="url(#p98cfbad29b)" style="fill: #0000ff"/>
   </g>
   <g id="patch_34">
    <path d="M 148.68477 184.68 
L 172.777871 184.68 
L 172.777871 176.507027 
L 148.68477 176.507027 
z
" clip-path="url(#p98cfbad29b)" style="fill: #0000ff"/>
   </g>
   <g id="patch_35">
    <path d="M 148.68477 184.68 
L 172.108619 184.68 
L 172.108619 176.507027 
L 148.68477 176.507027 
z
" clip-path="url(#p98cfbad29b)" style="fill: #0000ff"/>
   </g>
   <g id="patch_36">
    <path d="M 149.688649 184.68 
L 172.108619 184.68 
L 172.108619 176.507027 
L 149.688649 176.507027 
z
" clip-path="url(#p98cfbad29b)" style="fill: #0000ff"/>
   </g>
   <g id="patch_37">
    <path d="M 149.688649 184.68 
L 172.108619 184.68 
L 172.108619 176.507027 
L 149.688649 176.507027 
z
" clip-path="url(#p98cfbad29b)" style="fill: #0000ff"/>
   </g>
   <g id="patch_38">
    <path d="M 151.696407 184.68 
L 173.112498 184.68 
L 173.112498 176.507027 
L 151.696407 176.507027 
z
" clip-path="url(#p98cfbad29b)" style="fill: #0000ff"/>
   </g>
   <g id="patch_39">
    <path d="M 174.116377 184.68 
L 212.598415 184.68 
L 212.598415 176.507027 
L 174.116377 176.507027 
z
" clip-path="url(#p98cfbad29b)" style="fill: #0000ff"/>
   </g>
   <g id="patch_40">
    <path d="M 176.458762 184.68 
L 209.921403 184.68 
L 209.921403 176.507027 
L 176.458762 176.507027 
z
" clip-path="url(#p98cfbad29b)" style="fill: #0000ff"/>
   </g>
   <g id="patch_41">
    <path d="M 206.240513 184.68 
L 232.006747 184.68 
L 232.006747 176.507027 
L 206.240513 176.507027 
z
" clip-path="url(#p98cfbad29b)" style="fill: #0000ff"/>
   </g>
   <g id="patch_42">
    <path d="M 208.582898 184.68 
L 229.998988 184.68 
L 229.998988 176.507027 
L 208.582898 176.507027 
z
" clip-path="url(#p98cfbad29b)" style="fill: #0000ff"/>
   </g>
   <g id="patch_43">
    <path d="M 210.590656 184.68 
L 229.664362 184.68 
L 229.664362 176.507027 
L 210.590656 176.507027 
z
" clip-path="url(#p98cfbad29b)" style="fill: #0000ff"/>
   </g>
   <g id="patch_44">
    <path d="M 210.590656 184.68 
L 242.714792 184.68 
L 242.714792 176.507027 
L 210.590656 176.507027 
z
" clip-path="url(#p98cfbad29b)" style="fill: #0000ff"/>
   </g>
   <g id="patch_45">
    <path d="M 210.925283 184.68 
L 240.03778 184.68 
L 240.03778 176.507027 
L 210.925283 176.507027 
z
" clip-path="url(#p98cfbad29b)" style="fill: #0000ff"/>
   </g>
   <g id="patch_46">
    <path d="M 210.925283 184.68 
L 241.710912 184.68 
L 241.710912 176.507027 
L 210.925283 176.507027 
z
" clip-path="url(#p98cfbad29b)" style="fill: #0000ff"/>
   </g>
   <g id="patch_47">
    <path d="M 211.259909 184.68 
L 242.714792 184.68 
L 242.714792 176.507027 
L 211.259909 176.507027 
z
" clip-path="url(#p98cfbad29b)" style="fill: #0000ff"/>
   </g>
   <g id="patch_48">
    <path d="M 211.259909 184.68 
L 241.376286 184.68 
L 241.376286 176.507027 
L 211.259909 176.507027 
z
" clip-path="url(#p98cfbad29b)" style="fill: #0000ff"/>
   </g>
   <g id="patch_49">
    <path d="M 212.598415 184.68 
L 243.049418 184.68 
L 243.049418 176.507027 
L 212.598415 176.507027 
z
" clip-path="url(#p98cfbad29b)" style="fill: #0000ff"/>
   </g>
   <g id="patch_50">
    <path d="M 213.602294 184.68 
L 241.710912 184.68 
L 241.710912 176.507027 
L 213.602294 176.507027 
z
" clip-path="url(#p98cfbad29b)" style="fill: #0000ff"/>
   </g>
   <g id="patch_51">
    <path d="M 213.93692 184.68 
L 243.049418 184.68 
L 243.049418 176.507027 
L 213.93692 176.507027 
z
" clip-path="url(#p98cfbad29b)" style="fill: #0000ff"/>
   </g>
   <g id="patch_52">
    <path d="M 235.018384 184.68 
L 339.421825 184.68 
L 339.421825 176.507027 
L 235.018384 176.507027 
z
" clip-path="url(#p98cfbad29b)" style="fill: #0000ff"/>
   </g>
   <g id="patch_53">
    <path d="M 235.018384 184.68 
L 331.056165 184.68 
L 331.056165 176.507027 
L 235.018384 176.507027 
z
" clip-path="url(#p98cfbad29b)" style="fill: #0000ff"/>
   </g>
   <g id="patch_54">
    <path d="M 241.376286 184.68 
L 338.417946 184.68 
L 338.417946 176.507027 
L 241.376286 176.507027 
z
" clip-path="url(#p98cfbad29b)" style="fill: #0000ff"/>
   </g>
   <g id="patch_55">
    <path d="M 241.376286 184.68 
L 298.262776 184.68 
L 298.262776 176.507027 
L 241.376286 176.507027 
z
" clip-path="url(#p98cfbad29b)" style="fill: #0000ff"/>
   </g>
   <g id="patch_56">
    <path d="M 241.376286 184.68 
L 339.421825 184.68 
L 339.421825 176.507027 
L 241.376286 176.507027 
z
" clip-path="url(#p98cfbad29b)" style="fill: #0000ff"/>
   </g>
   <g id="patch_57">
    <path d="M 241.710912 184.68 
L 297.593523 184.68 
L 297.593523 176.507027 
L 241.710912 176.507027 
z
" clip-path="url(#p98cfbad29b)" style="fill: #0000ff"/>
   </g>
   <g id="patch_58">
    <path d="M 242.045539 184.68 
L 339.087199 184.68 
L 339.087199 176.507027 
L 242.045539 176.507027 
z
" clip-path="url(#p98cfbad29b)" style="fill: #0000ff"/>
   </g>
   <g id="patch_59">
    <path d="M 242.045539 184.68 
L 339.756451 184.68 
L 339.756451 176.507027 
L 242.045539 176.507027 
z
" clip-path="url(#p98cfbad29b)" style="fill: #0000ff"/>
   </g>
   <g id="patch_60">
    <path d="M 244.053297 184.68 
L 297.92815 184.68 
L 297.92815 176.507027 
L 244.053297 176.507027 
z
" clip-path="url(#p98cfbad29b)" style="fill: #0000ff"/>
   </g>
   <g id="patch_61">
    <path d="M 244.387924 184.68 
L 298.262776 184.68 
L 298.262776 176.507027 
L 244.387924 176.507027 
z
" clip-path="url(#p98cfbad29b)" style="fill: #0000ff"/>
   </g>
   <g id="patch_62">
    <path d="M 245.391803 184.68 
L 296.255018 184.68 
L 296.255018 176.507027 
L 245.391803 176.507027 
z
" clip-path="url(#p98cfbad29b)" style="fill: #0000ff"/>
   </g>
   <g id="patch_63">
    <path d="M 256.434475 184.68 
L 339.756451 184.68 
L 339.756451 176.507027 
L 256.434475 176.507027 
z
" clip-path="url(#p98cfbad29b)" style="fill: #0000ff"/>
   </g>
   <g id="patch_64">
    <path d="M 144 160.467568 
L 212.933041 160.467568 
L 212.933041 159.854595 
L 144 159.854595 
z
" clip-path="url(#p98cfbad29b)" style="fill: #0000ff"/>
   </g>
   <g id="patch_65">
    <path d="M 213.267667 164.247568 
L 241.376286 164.247568 
L 241.376286 156.074595 
L 213.267667 156.074595 
z
" clip-path="url(#p98cfbad29b)" style="fill: #0000ff"/>
   </g>
   <g id="patch_66">
    <path d="M 213.602294 164.247568 
L 241.376286 164.247568 
L 241.376286 156.074595 
L 213.602294 156.074595 
z
" clip-path="url(#p98cfbad29b)" style="fill: #0000ff"/>
   </g>
   <g id="patch_67">
    <path d="M 213.602294 164.247568 
L 241.376286 164.247568 
L 241.376286 156.074595 
L 213.602294 156.074595 
z
" clip-path="url(#p98cfbad29b)" style="fill: #0000ff"/>
   </g>
   <g id="patch_68">
    <path d="M 213.93692 164.247568 
L 240.03778 164.247568 
L 240.03778 156.074595 
L 213.93692 156.074595 
z
" clip-path="url(#p98cfbad29b)" style="fill: #0000ff"/>
   </g>
   <g id="patch_69">
    <path d="M 213.93692 164.247568 
L 241.710912 164.247568 
L 241.710912 156.074595 
L 213.93692 156.074595 
z
" clip-path="url(#p98cfbad29b)" style="fill: #0000ff"/>
   </g>
   <g id="patch_70">
    <path d="M 213.93692 164.247568 
L 240.372407 164.247568 
L 240.372407 156.074595 
L 213.93692 156.074595 
z
" clip-path="url(#p98cfbad29b)" style="fill: #0000ff"/>
   </g>
   <g id="patch_71">
    <path d="M 213.93692 164.247568 
L 240.372407 164.247568 
L 240.372407 156.074595 
L 213.93692 156.074595 
z
" clip-path="url(#p98cfbad29b)" style="fill: #0000ff"/>
   </g>
   <g id="patch_72">
    <path d="M 213.93692 164.247568 
L 240.372407 164.247568 
L 240.372407 156.074595 
L 213.93692 156.074595 
z
" clip-path="url(#p98cfbad29b)" style="fill: #0000ff"/>
   </g>
   <g id="patch_73">
    <path d="M 213.93692 164.247568 
L 241.376286 164.247568 
L 241.376286 156.074595 
L 213.93692 156.074595 
z
" clip-path="url(#p98cfbad29b)" style="fill: #0000ff"/>
   </g>
   <g id="patch_74">
    <path d="M 213.93692 164.247568 
L 241.376286 164.247568 
L 241.376286 156.074595 
L 213.93692 156.074595 
z
" clip-path="url(#p98cfbad29b)" style="fill: #0000ff"/>
   </g>
   <g id="patch_75">
    <path d="M 213.93692 164.247568 
L 241.710912 164.247568 
L 241.710912 156.074595 
L 213.93692 156.074595 
z
" clip-path="url(#p98cfbad29b)" style="fill: #0000ff"/>
   </g>
   <g id="patch_76">
    <path d="M 213.93692 164.247568 
L 241.710912 164.247568 
L 241.710912 156.074595 
L 213.93692 156.074595 
z
" clip-path="url(#p98cfbad29b)" style="fill: #0000ff"/>
   </g>
   <g id="patch_77">
    <path d="M 213.93692 164.247568 
L 240.372407 164.247568 
L 240.372407 156.074595 
L 213.93692 156.074595 
z
" clip-path="url(#p98cfbad29b)" style="fill: #0000ff"/>
   </g>
   <g id="patch_78">
    <path d="M 214.271547 164.247568 
L 277.850565 164.247568 
L 277.850565 156.074595 
L 214.271547 156.074595 
z
" clip-path="url(#p98cfbad29b)" style="fill: #0000ff"/>
   </g>
   <g id="patch_79">
    <path d="M 214.271547 164.247568 
L 240.372407 164.247568 
L 240.372407 156.074595 
L 214.271547 156.074595 
z
" clip-path="url(#p98cfbad29b)" style="fill: #0000ff"/>
   </g>
   <g id="patch_80">
    <path d="M 214.271547 164.247568 
L 240.372407 164.247568 
L 240.372407 156.074595 
L 214.271547 156.074595 
z
" clip-path="url(#p98cfbad29b)" style="fill: #0000ff"/>
   </g>
   <g id="patch_81">
    <path d="M 214.606173 164.247568 
L 240.372407 164.247568 
L 240.372407 156.074595 
L 214.606173 156.074595 
z
" clip-path="url(#p98cfbad29b)" style="fill: #0000ff"/>
   </g>
   <g id="patch_82">
    <path d="M 214.606173 164.247568 
L 240.372407 164.247568 
L 240.372407 156.074595 
L 214.606173 156.074595 
z
" clip-path="url(#p98cfbad29b)" style="fill: #0000ff"/>
   </g>
   <g id="patch_83">
    <path d="M 214.606173 164.247568 
L 240.372407 164.247568 
L 240.372407 156.074595 
L 214.606173 156.074595 
z
" clip-path="url(#p98cfbad29b)" style="fill: #0000ff"/>
   </g>
   <g id="patch_84">
    <path d="M 214.606173 164.247568 
L 240.372407 164.247568 
L 240.372407 156.074595 
L 214.606173 156.074595 
z
" clip-path="url(#p98cfbad29b)" style="fill: #0000ff"/>
   </g>
   <g id="patch_85">
    <path d="M 214.606173 164.247568 
L 241.376286 164.247568 
L 241.376286 156.074595 
L 214.606173 156.074595 
z
" clip-path="url(#p98cfbad29b)" style="fill: #0000ff"/>
   </g>
   <g id="patch_86">
    <path d="M 214.606173 164.247568 
L 240.372407 164.247568 
L 240.372407 156.074595 
L 214.606173 156.074595 
z
" clip-path="url(#p98cfbad29b)" style="fill: #0000ff"/>
   </g>
   <g id="patch_87">
    <path d="M 214.940799 164.247568 
L 240.707033 164.247568 
L 240.707033 156.074595 
L 214.940799 156.074595 
z
" clip-path="url(#p98cfbad29b)" style="fill: #0000ff"/>
   </g>
   <g id="patch_88">
    <path d="M 214.940799 164.247568 
L 240.372407 164.247568 
L 240.372407 156.074595 
L 214.940799 156.074595 
z
" clip-path="url(#p98cfbad29b)" style="fill: #0000ff"/>
   </g>
   <g id="patch_89">
    <path d="M 214.940799 164.247568 
L 241.376286 164.247568 
L 241.376286 156.074595 
L 214.940799 156.074595 
z
" clip-path="url(#p98cfbad29b)" style="fill: #0000ff"/>
   </g>
   <g id="patch_90">
    <path d="M 214.940799 164.247568 
L 241.04166 164.247568 
L 241.04166 156.074595 
L 214.940799 156.074595 
z
" clip-path="url(#p98cfbad29b)" style="fill: #0000ff"/>
   </g>
   <g id="patch_91">
    <path d="M 214.940799 164.247568 
L 241.04166 164.247568 
L 241.04166 156.074595 
L 214.940799 156.074595 
z
" clip-path="url(#p98cfbad29b)" style="fill: #0000ff"/>
   </g>
   <g id="patch_92">
    <path d="M 215.275426 164.247568 
L 241.04166 164.247568 
L 241.04166 156.074595 
L 215.275426 156.074595 
z
" clip-path="url(#p98cfbad29b)" style="fill: #0000ff"/>
   </g>
   <g id="patch_93">
    <path d="M 215.275426 164.247568 
L 236.022263 164.247568 
L 236.022263 156.074595 
L 215.275426 156.074595 
z
" clip-path="url(#p98cfbad29b)" style="fill: #0000ff"/>
   </g>
   <g id="patch_94">
    <path d="M 216.948558 164.247568 
L 240.707033 164.247568 
L 240.707033 156.074595 
L 216.948558 156.074595 
z
" clip-path="url(#p98cfbad29b)" style="fill: #0000ff"/>
   </g>
   <g id="patch_95">
    <path d="M 216.948558 164.247568 
L 240.707033 164.247568 
L 240.707033 156.074595 
L 216.948558 156.074595 
z
" clip-path="url(#p98cfbad29b)" style="fill: #0000ff"/>
   </g>
   <g id="patch_96">
    <path d="M 216.948558 164.247568 
L 240.707033 164.247568 
L 240.707033 156.074595 
L 216.948558 156.074595 
z
" clip-path="url(#p98cfbad29b)" style="fill: #0000ff"/>
   </g>
   <g id="patch_97">
    <path d="M 216.948558 164.247568 
L 240.707033 164.247568 
L 240.707033 156.074595 
L 216.948558 156.074595 
z
" clip-path="url(#p98cfbad29b)" style="fill: #0000ff"/>
   </g>
   <g id="patch_98">
    <path d="M 216.948558 164.247568 
L 240.707033 164.247568 
L 240.707033 156.074595 
L 216.948558 156.074595 
z
" clip-path="url(#p98cfbad29b)" style="fill: #0000ff"/>
   </g>
   <g id="patch_99">
    <path d="M 241.376286 164.247568 
L 277.850565 164.247568 
L 277.850565 156.074595 
L 241.376286 156.074595 
z
" clip-path="url(#p98cfbad29b)" style="fill: #0000ff"/>
   </g>
   <g id="patch_100">
    <path d="M 244.387924 164.247568 
L 275.173554 164.247568 
L 275.173554 156.074595 
L 244.387924 156.074595 
z
" clip-path="url(#p98cfbad29b)" style="fill: #0000ff"/>
   </g>
   <g id="patch_101">
    <path d="M 271.492663 164.247568 
L 306.963063 164.247568 
L 306.963063 156.074595 
L 271.492663 156.074595 
z
" clip-path="url(#p98cfbad29b)" style="fill: #0000ff"/>
   </g>
   <g id="patch_102">
    <path d="M 273.500422 164.247568 
L 313.320965 164.247568 
L 313.320965 156.074595 
L 273.500422 156.074595 
z
" clip-path="url(#p98cfbad29b)" style="fill: #0000ff"/>
   </g>
   <g id="patch_103">
    <path d="M 275.842807 164.247568 
L 307.297689 164.247568 
L 307.297689 156.074595 
L 275.842807 156.074595 
z
" clip-path="url(#p98cfbad29b)" style="fill: #0000ff"/>
   </g>
   <g id="patch_104">
    <path d="M 275.842807 164.247568 
L 294.247259 164.247568 
L 294.247259 156.074595 
L 275.842807 156.074595 
z
" clip-path="url(#p98cfbad29b)" style="fill: #0000ff"/>
   </g>
   <g id="patch_105">
    <path d="M 276.177433 164.247568 
L 307.297689 164.247568 
L 307.297689 156.074595 
L 276.177433 156.074595 
z
" clip-path="url(#p98cfbad29b)" style="fill: #0000ff"/>
   </g>
   <g id="patch_106">
    <path d="M 276.177433 164.247568 
L 306.29381 164.247568 
L 306.29381 156.074595 
L 276.177433 156.074595 
z
" clip-path="url(#p98cfbad29b)" style="fill: #0000ff"/>
   </g>
   <g id="patch_107">
    <path d="M 276.177433 164.247568 
L 307.297689 164.247568 
L 307.297689 156.074595 
L 276.177433 156.074595 
z
" clip-path="url(#p98cfbad29b)" style="fill: #0000ff"/>
   </g>
   <g id="patch_108">
    <path d="M 276.177433 164.247568 
L 306.963063 164.247568 
L 306.963063 156.074595 
L 276.177433 156.074595 
z
" clip-path="url(#p98cfbad29b)" style="fill: #0000ff"/>
   </g>
   <g id="patch_109">
    <path d="M 276.512059 164.247568 
L 306.963063 164.247568 
L 306.963063 156.074595 
L 276.512059 156.074595 
z
" clip-path="url(#p98cfbad29b)" style="fill: #0000ff"/>
   </g>
   <g id="patch_110">
    <path d="M 276.512059 164.247568 
L 306.963063 164.247568 
L 306.963063 156.074595 
L 276.512059 156.074595 
z
" clip-path="url(#p98cfbad29b)" style="fill: #0000ff"/>
   </g>
   <g id="patch_111">
    <path d="M 279.189071 164.247568 
L 307.297689 164.247568 
L 307.297689 156.074595 
L 279.189071 156.074595 
z
" clip-path="url(#p98cfbad29b)" style="fill: #0000ff"/>
   </g>
   <g id="patch_112">
    <path d="M 281.196829 164.247568 
L 306.29381 164.247568 
L 306.29381 156.074595 
L 281.196829 156.074595 
z
" clip-path="url(#p98cfbad29b)" style="fill: #0000ff"/>
   </g>
   <g id="patch_113">
    <path d="M 310.643953 164.247568 
L 325.032889 164.247568 
L 325.032889 156.074595 
L 310.643953 156.074595 
z
" clip-path="url(#p98cfbad29b)" style="fill: #0000ff"/>
   </g>
   <g id="patch_114">
    <path d="M 325.367516 160.467568 
L 366.526564 160.467568 
L 366.526564 159.854595 
L 325.367516 159.854595 
z
" clip-path="url(#p98cfbad29b)" style="fill: #0000ff"/>
   </g>
   <g id="patch_115">
    <path d="M 366.861191 164.247568 
L 382.923259 164.247568 
L 382.923259 156.074595 
L 366.861191 156.074595 
z
" clip-path="url(#p98cfbad29b)" style="fill: #0000ff"/>
   </g>
   <g id="patch_116">
    <path d="M 383.257885 160.467568 
L 395.304436 160.467568 
L 395.304436 159.854595 
L 383.257885 159.854595 
z
" clip-path="url(#p98cfbad29b)" style="fill: #0000ff"/>
   </g>
   <g id="patch_117">
    <path d="M 395.639062 164.247568 
L 431.444088 164.247568 
L 431.444088 156.074595 
L 395.639062 156.074595 
z
" clip-path="url(#p98cfbad29b)" style="fill: #0000ff"/>
   </g>
   <g id="patch_118">
    <path d="M 431.778715 160.467568 
L 432.782594 160.467568 
L 432.782594 159.854595 
L 431.778715 159.854595 
z
" clip-path="url(#p98cfbad29b)" style="fill: #0000ff"/>
   </g>
   <g id="patch_119">
    <path d="M 144 140.035135 
L 146.677011 140.035135 
L 146.677011 139.422162 
L 144 139.422162 
z
" clip-path="url(#p98cfbad29b)" style="fill: #0000ff"/>
   </g>
   <g id="patch_120">
    <path d="M 147.011638 143.815135 
L 173.112498 143.815135 
L 173.112498 135.642162 
L 147.011638 135.642162 
z
" clip-path="url(#p98cfbad29b)" style="fill: #0000ff"/>
   </g>
   <g id="patch_121">
    <path d="M 147.011638 143.815135 
L 176.124136 143.815135 
L 176.124136 135.642162 
L 147.011638 135.642162 
z
" clip-path="url(#p98cfbad29b)" style="fill: #0000ff"/>
   </g>
   <g id="patch_122">
    <path d="M 147.011638 143.815135 
L 176.124136 143.815135 
L 176.124136 135.642162 
L 147.011638 135.642162 
z
" clip-path="url(#p98cfbad29b)" style="fill: #0000ff"/>
   </g>
   <g id="patch_123">
    <path d="M 147.346264 143.815135 
L 175.789509 143.815135 
L 175.789509 135.642162 
L 147.346264 135.642162 
z
" clip-path="url(#p98cfbad29b)" style="fill: #0000ff"/>
   </g>
   <g id="patch_124">
    <path d="M 147.346264 143.815135 
L 175.789509 143.815135 
L 175.789509 135.642162 
L 147.346264 135.642162 
z
" clip-path="url(#p98cfbad29b)" style="fill: #0000ff"/>
   </g>
   <g id="patch_125">
    <path d="M 147.346264 143.815135 
L 175.789509 143.815135 
L 175.789509 135.642162 
L 147.346264 135.642162 
z
" clip-path="url(#p98cfbad29b)" style="fill: #0000ff"/>
   </g>
   <g id="patch_126">
    <path d="M 147.346264 143.815135 
L 176.124136 143.815135 
L 176.124136 135.642162 
L 147.346264 135.642162 
z
" clip-path="url(#p98cfbad29b)" style="fill: #0000ff"/>
   </g>
   <g id="patch_127">
    <path d="M 147.680891 143.815135 
L 176.124136 143.815135 
L 176.124136 135.642162 
L 147.680891 135.642162 
z
" clip-path="url(#p98cfbad29b)" style="fill: #0000ff"/>
   </g>
   <g id="patch_128">
    <path d="M 147.680891 143.815135 
L 175.454883 143.815135 
L 175.454883 135.642162 
L 147.680891 135.642162 
z
" clip-path="url(#p98cfbad29b)" style="fill: #0000ff"/>
   </g>
   <g id="patch_129">
    <path d="M 147.680891 143.815135 
L 176.124136 143.815135 
L 176.124136 135.642162 
L 147.680891 135.642162 
z
" clip-path="url(#p98cfbad29b)" style="fill: #0000ff"/>
   </g>
   <g id="patch_130">
    <path d="M 147.680891 143.815135 
L 175.789509 143.815135 
L 175.789509 135.642162 
L 147.680891 135.642162 
z
" clip-path="url(#p98cfbad29b)" style="fill: #0000ff"/>
   </g>
   <g id="patch_131">
    <path d="M 147.680891 143.815135 
L 168.762355 143.815135 
L 168.762355 135.642162 
L 147.680891 135.642162 
z
" clip-path="url(#p98cfbad29b)" style="fill: #0000ff"/>
   </g>
   <g id="patch_132">
    <path d="M 147.680891 143.815135 
L 168.762355 143.815135 
L 168.762355 135.642162 
L 147.680891 135.642162 
z
" clip-path="url(#p98cfbad29b)" style="fill: #0000ff"/>
   </g>
   <g id="patch_133">
    <path d="M 147.680891 143.815135 
L 168.762355 143.815135 
L 168.762355 135.642162 
L 147.680891 135.642162 
z
" clip-path="url(#p98cfbad29b)" style="fill: #0000ff"/>
   </g>
   <g id="patch_134">
    <path d="M 147.680891 143.815135 
L 176.124136 143.815135 
L 176.124136 135.642162 
L 147.680891 135.642162 
z
" clip-path="url(#p98cfbad29b)" style="fill: #0000ff"/>
   </g>
   <g id="patch_135">
    <path d="M 148.015517 143.815135 
L 174.451004 143.815135 
L 174.451004 135.642162 
L 148.015517 135.642162 
z
" clip-path="url(#p98cfbad29b)" style="fill: #0000ff"/>
   </g>
   <g id="patch_136">
    <path d="M 148.015517 143.815135 
L 161.7352 143.815135 
L 161.7352 135.642162 
L 148.015517 135.642162 
z
" clip-path="url(#p98cfbad29b)" style="fill: #0000ff"/>
   </g>
   <g id="patch_137">
    <path d="M 148.015517 143.815135 
L 175.789509 143.815135 
L 175.789509 135.642162 
L 148.015517 135.642162 
z
" clip-path="url(#p98cfbad29b)" style="fill: #0000ff"/>
   </g>
   <g id="patch_138">
    <path d="M 148.350143 143.815135 
L 215.944679 143.815135 
L 215.944679 135.642162 
L 148.350143 135.642162 
z
" clip-path="url(#p98cfbad29b)" style="fill: #0000ff"/>
   </g>
   <g id="patch_139">
    <path d="M 148.68477 143.815135 
L 175.789509 143.815135 
L 175.789509 135.642162 
L 148.68477 135.642162 
z
" clip-path="url(#p98cfbad29b)" style="fill: #0000ff"/>
   </g>
   <g id="patch_140">
    <path d="M 149.019396 143.815135 
L 175.454883 143.815135 
L 175.454883 135.642162 
L 149.019396 135.642162 
z
" clip-path="url(#p98cfbad29b)" style="fill: #0000ff"/>
   </g>
   <g id="patch_141">
    <path d="M 150.357902 143.815135 
L 175.120256 143.815135 
L 175.120256 135.642162 
L 150.357902 135.642162 
z
" clip-path="url(#p98cfbad29b)" style="fill: #0000ff"/>
   </g>
   <g id="patch_142">
    <path d="M 150.357902 143.815135 
L 175.789509 143.815135 
L 175.789509 135.642162 
L 150.357902 135.642162 
z
" clip-path="url(#p98cfbad29b)" style="fill: #0000ff"/>
   </g>
   <g id="patch_143">
    <path d="M 150.357902 143.815135 
L 175.454883 143.815135 
L 175.454883 135.642162 
L 150.357902 135.642162 
z
" clip-path="url(#p98cfbad29b)" style="fill: #0000ff"/>
   </g>
   <g id="patch_144">
    <path d="M 150.357902 143.815135 
L 176.793388 143.815135 
L 176.793388 135.642162 
L 150.357902 135.642162 
z
" clip-path="url(#p98cfbad29b)" style="fill: #0000ff"/>
   </g>
   <g id="patch_145">
    <path d="M 150.357902 143.815135 
L 175.789509 143.815135 
L 175.789509 135.642162 
L 150.357902 135.642162 
z
" clip-path="url(#p98cfbad29b)" style="fill: #0000ff"/>
   </g>
   <g id="patch_146">
    <path d="M 150.357902 143.815135 
L 175.789509 143.815135 
L 175.789509 135.642162 
L 150.357902 135.642162 
z
" clip-path="url(#p98cfbad29b)" style="fill: #0000ff"/>
   </g>
   <g id="patch_147">
    <path d="M 150.357902 143.815135 
L 176.793388 143.815135 
L 176.793388 135.642162 
L 150.357902 135.642162 
z
" clip-path="url(#p98cfbad29b)" style="fill: #0000ff"/>
   </g>
   <g id="patch_148">
    <path d="M 150.357902 143.815135 
L 176.793388 143.815135 
L 176.793388 135.642162 
L 150.357902 135.642162 
z
" clip-path="url(#p98cfbad29b)" style="fill: #0000ff"/>
   </g>
   <g id="patch_149">
    <path d="M 150.357902 143.815135 
L 168.762355 143.815135 
L 168.762355 135.642162 
L 150.357902 135.642162 
z
" clip-path="url(#p98cfbad29b)" style="fill: #0000ff"/>
   </g>
   <g id="patch_150">
    <path d="M 150.692528 143.815135 
L 175.454883 143.815135 
L 175.454883 135.642162 
L 150.692528 135.642162 
z
" clip-path="url(#p98cfbad29b)" style="fill: #0000ff"/>
   </g>
   <g id="patch_151">
    <path d="M 152.031034 143.815135 
L 168.762355 143.815135 
L 168.762355 135.642162 
L 152.031034 135.642162 
z
" clip-path="url(#p98cfbad29b)" style="fill: #0000ff"/>
   </g>
   <g id="patch_152">
    <path d="M 152.031034 143.815135 
L 175.454883 143.815135 
L 175.454883 135.642162 
L 152.031034 135.642162 
z
" clip-path="url(#p98cfbad29b)" style="fill: #0000ff"/>
   </g>
   <g id="patch_153">
    <path d="M 154.708045 143.815135 
L 176.458762 143.815135 
L 176.458762 135.642162 
L 154.708045 135.642162 
z
" clip-path="url(#p98cfbad29b)" style="fill: #0000ff"/>
   </g>
   <g id="patch_154">
    <path d="M 177.462641 143.815135 
L 215.944679 143.815135 
L 215.944679 135.642162 
L 177.462641 135.642162 
z
" clip-path="url(#p98cfbad29b)" style="fill: #0000ff"/>
   </g>
   <g id="patch_155">
    <path d="M 179.805026 143.815135 
L 213.267667 143.815135 
L 213.267667 135.642162 
L 179.805026 135.642162 
z
" clip-path="url(#p98cfbad29b)" style="fill: #0000ff"/>
   </g>
   <g id="patch_156">
    <path d="M 209.921403 143.815135 
L 233.679879 143.815135 
L 233.679879 135.642162 
L 209.921403 135.642162 
z
" clip-path="url(#p98cfbad29b)" style="fill: #0000ff"/>
   </g>
   <g id="patch_157">
    <path d="M 211.929162 143.815135 
L 233.679879 143.815135 
L 233.679879 135.642162 
L 211.929162 135.642162 
z
" clip-path="url(#p98cfbad29b)" style="fill: #0000ff"/>
   </g>
   <g id="patch_158">
    <path d="M 213.93692 143.815135 
L 233.679879 143.815135 
L 233.679879 135.642162 
L 213.93692 135.642162 
z
" clip-path="url(#p98cfbad29b)" style="fill: #0000ff"/>
   </g>
   <g id="patch_159">
    <path d="M 213.93692 143.815135 
L 246.061056 143.815135 
L 246.061056 135.642162 
L 213.93692 135.642162 
z
" clip-path="url(#p98cfbad29b)" style="fill: #0000ff"/>
   </g>
   <g id="patch_160">
    <path d="M 214.271547 143.815135 
L 245.057177 143.815135 
L 245.057177 135.642162 
L 214.271547 135.642162 
z
" clip-path="url(#p98cfbad29b)" style="fill: #0000ff"/>
   </g>
   <g id="patch_161">
    <path d="M 214.606173 143.815135 
L 246.061056 143.815135 
L 246.061056 135.642162 
L 214.606173 135.642162 
z
" clip-path="url(#p98cfbad29b)" style="fill: #0000ff"/>
   </g>
   <g id="patch_162">
    <path d="M 214.606173 143.815135 
L 244.72255 143.815135 
L 244.72255 135.642162 
L 214.606173 135.642162 
z
" clip-path="url(#p98cfbad29b)" style="fill: #0000ff"/>
   </g>
   <g id="patch_163">
    <path d="M 217.283184 143.815135 
L 246.395682 143.815135 
L 246.395682 135.642162 
L 217.283184 135.642162 
z
" clip-path="url(#p98cfbad29b)" style="fill: #0000ff"/>
   </g>
   <g id="patch_164">
    <path d="M 219.290943 143.815135 
L 245.057177 143.815135 
L 245.057177 135.642162 
L 219.290943 135.642162 
z
" clip-path="url(#p98cfbad29b)" style="fill: #0000ff"/>
   </g>
   <g id="patch_165">
    <path d="M 219.290943 143.815135 
L 246.395682 143.815135 
L 246.395682 135.642162 
L 219.290943 135.642162 
z
" clip-path="url(#p98cfbad29b)" style="fill: #0000ff"/>
   </g>
   <g id="patch_166">
    <path d="M 244.72255 143.815135 
L 299.601282 143.815135 
L 299.601282 135.642162 
L 244.72255 135.642162 
z
" clip-path="url(#p98cfbad29b)" style="fill: #0000ff"/>
   </g>
   <g id="patch_167">
    <path d="M 244.72255 143.815135 
L 301.943667 143.815135 
L 301.943667 135.642162 
L 244.72255 135.642162 
z
" clip-path="url(#p98cfbad29b)" style="fill: #0000ff"/>
   </g>
   <g id="patch_168">
    <path d="M 244.72255 143.815135 
L 297.92815 143.815135 
L 297.92815 135.642162 
L 244.72255 135.642162 
z
" clip-path="url(#p98cfbad29b)" style="fill: #0000ff"/>
   </g>
   <g id="patch_169">
    <path d="M 245.726429 143.815135 
L 300.270535 143.815135 
L 300.270535 135.642162 
L 245.726429 135.642162 
z
" clip-path="url(#p98cfbad29b)" style="fill: #0000ff"/>
   </g>
   <g id="patch_170">
    <path d="M 248.403441 143.815135 
L 283.539214 143.815135 
L 283.539214 135.642162 
L 248.403441 135.642162 
z
" clip-path="url(#p98cfbad29b)" style="fill: #0000ff"/>
   </g>
   <g id="patch_171">
    <path d="M 250.076573 143.815135 
L 294.916512 143.815135 
L 294.916512 135.642162 
L 250.076573 135.642162 
z
" clip-path="url(#p98cfbad29b)" style="fill: #0000ff"/>
   </g>
   <g id="patch_172">
    <path d="M 251.415078 143.815135 
L 301.274414 143.815135 
L 301.274414 135.642162 
L 251.415078 135.642162 
z
" clip-path="url(#p98cfbad29b)" style="fill: #0000ff"/>
   </g>
   <g id="patch_173">
    <path d="M 257.438354 143.815135 
L 356.153146 143.815135 
L 356.153146 135.642162 
L 257.438354 135.642162 
z
" clip-path="url(#p98cfbad29b)" style="fill: #0000ff"/>
   </g>
   <g id="patch_174">
    <path d="M 144 119.602703 
L 144.669253 119.602703 
L 144.669253 118.98973 
L 144 118.98973 
z
" clip-path="url(#p98cfbad29b)" style="fill: #0000ff"/>
   </g>
   <g id="patch_175">
    <path d="M 145.003879 123.382703 
L 173.112498 123.382703 
L 173.112498 115.20973 
L 145.003879 115.20973 
z
" clip-path="url(#p98cfbad29b)" style="fill: #0000ff"/>
   </g>
   <g id="patch_176">
    <path d="M 145.003879 123.382703 
L 173.112498 123.382703 
L 173.112498 115.20973 
L 145.003879 115.20973 
z
" clip-path="url(#p98cfbad29b)" style="fill: #0000ff"/>
   </g>
   <g id="patch_177">
    <path d="M 145.673132 123.382703 
L 173.112498 123.382703 
L 173.112498 115.20973 
L 145.673132 115.20973 
z
" clip-path="url(#p98cfbad29b)" style="fill: #0000ff"/>
   </g>
   <g id="patch_178">
    <path d="M 145.673132 123.382703 
L 173.447124 123.382703 
L 173.447124 115.20973 
L 145.673132 115.20973 
z
" clip-path="url(#p98cfbad29b)" style="fill: #0000ff"/>
   </g>
   <g id="patch_179">
    <path d="M 145.673132 123.382703 
L 173.447124 123.382703 
L 173.447124 115.20973 
L 145.673132 115.20973 
z
" clip-path="url(#p98cfbad29b)" style="fill: #0000ff"/>
   </g>
   <g id="patch_180">
    <path d="M 145.673132 123.382703 
L 172.443245 123.382703 
L 172.443245 115.20973 
L 145.673132 115.20973 
z
" clip-path="url(#p98cfbad29b)" style="fill: #0000ff"/>
   </g>
   <g id="patch_181">
    <path d="M 145.673132 123.382703 
L 173.112498 123.382703 
L 173.112498 115.20973 
L 145.673132 115.20973 
z
" clip-path="url(#p98cfbad29b)" style="fill: #0000ff"/>
   </g>
   <g id="patch_182">
    <path d="M 145.673132 123.382703 
L 173.447124 123.382703 
L 173.447124 115.20973 
L 145.673132 115.20973 
z
" clip-path="url(#p98cfbad29b)" style="fill: #0000ff"/>
   </g>
   <g id="patch_183">
    <path d="M 145.673132 123.382703 
L 166.754596 123.382703 
L 166.754596 115.20973 
L 145.673132 115.20973 
z
" clip-path="url(#p98cfbad29b)" style="fill: #0000ff"/>
   </g>
   <g id="patch_184">
    <path d="M 145.673132 123.382703 
L 173.447124 123.382703 
L 173.447124 115.20973 
L 145.673132 115.20973 
z
" clip-path="url(#p98cfbad29b)" style="fill: #0000ff"/>
   </g>
   <g id="patch_185">
    <path d="M 145.673132 123.382703 
L 172.443245 123.382703 
L 172.443245 115.20973 
L 145.673132 115.20973 
z
" clip-path="url(#p98cfbad29b)" style="fill: #0000ff"/>
   </g>
   <g id="patch_186">
    <path d="M 145.673132 123.382703 
L 173.447124 123.382703 
L 173.447124 115.20973 
L 145.673132 115.20973 
z
" clip-path="url(#p98cfbad29b)" style="fill: #0000ff"/>
   </g>
   <g id="patch_187">
    <path d="M 145.673132 123.382703 
L 173.112498 123.382703 
L 173.112498 115.20973 
L 145.673132 115.20973 
z
" clip-path="url(#p98cfbad29b)" style="fill: #0000ff"/>
   </g>
   <g id="patch_188">
    <path d="M 145.673132 123.382703 
L 173.112498 123.382703 
L 173.112498 115.20973 
L 145.673132 115.20973 
z
" clip-path="url(#p98cfbad29b)" style="fill: #0000ff"/>
   </g>
   <g id="patch_189">
    <path d="M 146.007758 123.382703 
L 171.439366 123.382703 
L 171.439366 115.20973 
L 146.007758 115.20973 
z
" clip-path="url(#p98cfbad29b)" style="fill: #0000ff"/>
   </g>
   <g id="patch_190">
    <path d="M 146.342385 123.382703 
L 212.933041 123.382703 
L 212.933041 115.20973 
L 146.342385 115.20973 
z
" clip-path="url(#p98cfbad29b)" style="fill: #0000ff"/>
   </g>
   <g id="patch_191">
    <path d="M 146.342385 123.382703 
L 171.104739 123.382703 
L 171.104739 115.20973 
L 146.342385 115.20973 
z
" clip-path="url(#p98cfbad29b)" style="fill: #0000ff"/>
   </g>
   <g id="patch_192">
    <path d="M 146.342385 123.382703 
L 172.108619 123.382703 
L 172.108619 115.20973 
L 146.342385 115.20973 
z
" clip-path="url(#p98cfbad29b)" style="fill: #0000ff"/>
   </g>
   <g id="patch_193">
    <path d="M 146.342385 123.382703 
L 172.443245 123.382703 
L 172.443245 115.20973 
L 146.342385 115.20973 
z
" clip-path="url(#p98cfbad29b)" style="fill: #0000ff"/>
   </g>
   <g id="patch_194">
    <path d="M 146.342385 123.382703 
L 173.447124 123.382703 
L 173.447124 115.20973 
L 146.342385 115.20973 
z
" clip-path="url(#p98cfbad29b)" style="fill: #0000ff"/>
   </g>
   <g id="patch_195">
    <path d="M 146.677011 123.382703 
L 173.447124 123.382703 
L 173.447124 115.20973 
L 146.677011 115.20973 
z
" clip-path="url(#p98cfbad29b)" style="fill: #0000ff"/>
   </g>
   <g id="patch_196">
    <path d="M 146.677011 123.382703 
L 173.447124 123.382703 
L 173.447124 115.20973 
L 146.677011 115.20973 
z
" clip-path="url(#p98cfbad29b)" style="fill: #0000ff"/>
   </g>
   <g id="patch_197">
    <path d="M 147.011638 123.382703 
L 167.423849 123.382703 
L 167.423849 115.20973 
L 147.011638 115.20973 
z
" clip-path="url(#p98cfbad29b)" style="fill: #0000ff"/>
   </g>
   <g id="patch_198">
    <path d="M 148.350143 123.382703 
L 172.443245 123.382703 
L 172.443245 115.20973 
L 148.350143 115.20973 
z
" clip-path="url(#p98cfbad29b)" style="fill: #0000ff"/>
   </g>
   <g id="patch_199">
    <path d="M 148.350143 123.382703 
L 173.781751 123.382703 
L 173.781751 115.20973 
L 148.350143 115.20973 
z
" clip-path="url(#p98cfbad29b)" style="fill: #0000ff"/>
   </g>
   <g id="patch_200">
    <path d="M 148.350143 123.382703 
L 172.443245 123.382703 
L 172.443245 115.20973 
L 148.350143 115.20973 
z
" clip-path="url(#p98cfbad29b)" style="fill: #0000ff"/>
   </g>
   <g id="patch_201">
    <path d="M 148.350143 123.382703 
L 173.447124 123.382703 
L 173.447124 115.20973 
L 148.350143 115.20973 
z
" clip-path="url(#p98cfbad29b)" style="fill: #0000ff"/>
   </g>
   <g id="patch_202">
    <path d="M 148.350143 123.382703 
L 173.447124 123.382703 
L 173.447124 115.20973 
L 148.350143 115.20973 
z
" clip-path="url(#p98cfbad29b)" style="fill: #0000ff"/>
   </g>
   <g id="patch_203">
    <path d="M 148.350143 123.382703 
L 173.781751 123.382703 
L 173.781751 115.20973 
L 148.350143 115.20973 
z
" clip-path="url(#p98cfbad29b)" style="fill: #0000ff"/>
   </g>
   <g id="patch_204">
    <path d="M 148.350143 123.382703 
L 173.781751 123.382703 
L 173.781751 115.20973 
L 148.350143 115.20973 
z
" clip-path="url(#p98cfbad29b)" style="fill: #0000ff"/>
   </g>
   <g id="patch_205">
    <path d="M 149.019396 123.382703 
L 173.112498 123.382703 
L 173.112498 115.20973 
L 149.019396 115.20973 
z
" clip-path="url(#p98cfbad29b)" style="fill: #0000ff"/>
   </g>
   <g id="patch_206">
    <path d="M 149.019396 123.382703 
L 172.443245 123.382703 
L 172.443245 115.20973 
L 149.019396 115.20973 
z
" clip-path="url(#p98cfbad29b)" style="fill: #0000ff"/>
   </g>
   <g id="patch_207">
    <path d="M 150.023275 123.382703 
L 172.443245 123.382703 
L 172.443245 115.20973 
L 150.023275 115.20973 
z
" clip-path="url(#p98cfbad29b)" style="fill: #0000ff"/>
   </g>
   <g id="patch_208">
    <path d="M 150.023275 123.382703 
L 172.443245 123.382703 
L 172.443245 115.20973 
L 150.023275 115.20973 
z
" clip-path="url(#p98cfbad29b)" style="fill: #0000ff"/>
   </g>
   <g id="patch_209">
    <path d="M 151.696407 123.382703 
L 173.447124 123.382703 
L 173.447124 115.20973 
L 151.696407 115.20973 
z
" clip-path="url(#p98cfbad29b)" style="fill: #0000ff"/>
   </g>
   <g id="patch_210">
    <path d="M 174.451004 123.382703 
L 212.933041 123.382703 
L 212.933041 115.20973 
L 174.451004 115.20973 
z
" clip-path="url(#p98cfbad29b)" style="fill: #0000ff"/>
   </g>
   <g id="patch_211">
    <path d="M 176.793388 123.382703 
L 210.25603 123.382703 
L 210.25603 115.20973 
L 176.793388 115.20973 
z
" clip-path="url(#p98cfbad29b)" style="fill: #0000ff"/>
   </g>
   <g id="patch_212">
    <path d="M 206.575139 123.382703 
L 232.341373 123.382703 
L 232.341373 115.20973 
L 206.575139 115.20973 
z
" clip-path="url(#p98cfbad29b)" style="fill: #0000ff"/>
   </g>
   <g id="patch_213">
    <path d="M 208.917524 123.382703 
L 230.333614 123.382703 
L 230.333614 115.20973 
L 208.917524 115.20973 
z
" clip-path="url(#p98cfbad29b)" style="fill: #0000ff"/>
   </g>
   <g id="patch_214">
    <path d="M 210.925283 123.382703 
L 229.998988 123.382703 
L 229.998988 115.20973 
L 210.925283 115.20973 
z
" clip-path="url(#p98cfbad29b)" style="fill: #0000ff"/>
   </g>
   <g id="patch_215">
    <path d="M 210.925283 123.382703 
L 243.049418 123.382703 
L 243.049418 115.20973 
L 210.925283 115.20973 
z
" clip-path="url(#p98cfbad29b)" style="fill: #0000ff"/>
   </g>
   <g id="patch_216">
    <path d="M 211.259909 123.382703 
L 240.372407 123.382703 
L 240.372407 115.20973 
L 211.259909 115.20973 
z
" clip-path="url(#p98cfbad29b)" style="fill: #0000ff"/>
   </g>
   <g id="patch_217">
    <path d="M 211.259909 123.382703 
L 242.045539 123.382703 
L 242.045539 115.20973 
L 211.259909 115.20973 
z
" clip-path="url(#p98cfbad29b)" style="fill: #0000ff"/>
   </g>
   <g id="patch_218">
    <path d="M 211.259909 123.382703 
L 242.045539 123.382703 
L 242.045539 115.20973 
L 211.259909 115.20973 
z
" clip-path="url(#p98cfbad29b)" style="fill: #0000ff"/>
   </g>
   <g id="patch_219">
    <path d="M 211.259909 123.382703 
L 229.329735 123.382703 
L 229.329735 115.20973 
L 211.259909 115.20973 
z
" clip-path="url(#p98cfbad29b)" style="fill: #0000ff"/>
   </g>
   <g id="patch_220">
    <path d="M 211.594535 123.382703 
L 243.384045 123.382703 
L 243.384045 115.20973 
L 211.594535 115.20973 
z
" clip-path="url(#p98cfbad29b)" style="fill: #0000ff"/>
   </g>
   <g id="patch_221">
    <path d="M 211.594535 123.382703 
L 243.049418 123.382703 
L 243.049418 115.20973 
L 211.594535 115.20973 
z
" clip-path="url(#p98cfbad29b)" style="fill: #0000ff"/>
   </g>
   <g id="patch_222">
    <path d="M 211.594535 123.382703 
L 241.710912 123.382703 
L 241.710912 115.20973 
L 211.594535 115.20973 
z
" clip-path="url(#p98cfbad29b)" style="fill: #0000ff"/>
   </g>
   <g id="patch_223">
    <path d="M 214.271547 123.382703 
L 243.384045 123.382703 
L 243.384045 115.20973 
L 214.271547 115.20973 
z
" clip-path="url(#p98cfbad29b)" style="fill: #0000ff"/>
   </g>
   <g id="patch_224">
    <path d="M 236.022263 123.382703 
L 276.512059 123.382703 
L 276.512059 115.20973 
L 236.022263 115.20973 
z
" clip-path="url(#p98cfbad29b)" style="fill: #0000ff"/>
   </g>
   <g id="patch_225">
    <path d="M 236.022263 123.382703 
L 294.247259 123.382703 
L 294.247259 115.20973 
L 236.022263 115.20973 
z
" clip-path="url(#p98cfbad29b)" style="fill: #0000ff"/>
   </g>
   <g id="patch_226">
    <path d="M 236.35689 123.382703 
L 332.729297 123.382703 
L 332.729297 115.20973 
L 236.35689 115.20973 
z
" clip-path="url(#p98cfbad29b)" style="fill: #0000ff"/>
   </g>
   <g id="patch_227">
    <path d="M 240.03778 123.382703 
L 335.740934 123.382703 
L 335.740934 115.20973 
L 240.03778 115.20973 
z
" clip-path="url(#p98cfbad29b)" style="fill: #0000ff"/>
   </g>
   <g id="patch_228">
    <path d="M 240.03778 123.382703 
L 329.048406 123.382703 
L 329.048406 115.20973 
L 240.03778 115.20973 
z
" clip-path="url(#p98cfbad29b)" style="fill: #0000ff"/>
   </g>
   <g id="patch_229">
    <path d="M 241.04166 123.382703 
L 288.223984 123.382703 
L 288.223984 115.20973 
L 241.04166 115.20973 
z
" clip-path="url(#p98cfbad29b)" style="fill: #0000ff"/>
   </g>
   <g id="patch_230">
    <path d="M 241.04166 123.382703 
L 294.247259 123.382703 
L 294.247259 115.20973 
L 241.04166 115.20973 
z
" clip-path="url(#p98cfbad29b)" style="fill: #0000ff"/>
   </g>
   <g id="patch_231">
    <path d="M 241.376286 123.382703 
L 294.581886 123.382703 
L 294.581886 115.20973 
L 241.376286 115.20973 
z
" clip-path="url(#p98cfbad29b)" style="fill: #0000ff"/>
   </g>
   <g id="patch_232">
    <path d="M 241.710912 123.382703 
L 294.916512 123.382703 
L 294.916512 115.20973 
L 241.710912 115.20973 
z
" clip-path="url(#p98cfbad29b)" style="fill: #0000ff"/>
   </g>
   <g id="patch_233">
    <path d="M 242.045539 123.382703 
L 294.247259 123.382703 
L 294.247259 115.20973 
L 242.045539 115.20973 
z
" clip-path="url(#p98cfbad29b)" style="fill: #0000ff"/>
   </g>
   <g id="patch_234">
    <path d="M 242.045539 123.382703 
L 293.912633 123.382703 
L 293.912633 115.20973 
L 242.045539 115.20973 
z
" clip-path="url(#p98cfbad29b)" style="fill: #0000ff"/>
   </g>
   <g id="patch_235">
    <path d="M 242.045539 123.382703 
L 292.239501 123.382703 
L 292.239501 115.20973 
L 242.045539 115.20973 
z
" clip-path="url(#p98cfbad29b)" style="fill: #0000ff"/>
   </g>
   <g id="patch_236">
    <path d="M 242.045539 123.382703 
L 322.021251 123.382703 
L 322.021251 115.20973 
L 242.045539 115.20973 
z
" clip-path="url(#p98cfbad29b)" style="fill: #0000ff"/>
   </g>
   <g id="patch_237">
    <path d="M 242.380165 123.382703 
L 294.247259 123.382703 
L 294.247259 115.20973 
L 242.380165 115.20973 
z
" clip-path="url(#p98cfbad29b)" style="fill: #0000ff"/>
   </g>
   <g id="patch_238">
    <path d="M 243.718671 123.382703 
L 292.908754 123.382703 
L 292.908754 115.20973 
L 243.718671 115.20973 
z
" clip-path="url(#p98cfbad29b)" style="fill: #0000ff"/>
   </g>
   <g id="patch_239">
    <path d="M 243.718671 123.382703 
L 293.578006 123.382703 
L 293.578006 115.20973 
L 243.718671 115.20973 
z
" clip-path="url(#p98cfbad29b)" style="fill: #0000ff"/>
   </g>
   <g id="patch_240">
    <path d="M 244.053297 123.382703 
L 293.912633 123.382703 
L 293.912633 115.20973 
L 244.053297 115.20973 
z
" clip-path="url(#p98cfbad29b)" style="fill: #0000ff"/>
   </g>
   <g id="patch_241">
    <path d="M 244.053297 123.382703 
L 275.173554 123.382703 
L 275.173554 115.20973 
L 244.053297 115.20973 
z
" clip-path="url(#p98cfbad29b)" style="fill: #0000ff"/>
   </g>
   <g id="patch_242">
    <path d="M 244.72255 123.382703 
L 276.512059 123.382703 
L 276.512059 115.20973 
L 244.72255 115.20973 
z
" clip-path="url(#p98cfbad29b)" style="fill: #0000ff"/>
   </g>
   <g id="patch_243">
    <path d="M 244.72255 123.382703 
L 294.916512 123.382703 
L 294.916512 115.20973 
L 244.72255 115.20973 
z
" clip-path="url(#p98cfbad29b)" style="fill: #0000ff"/>
   </g>
   <g id="patch_244">
    <path d="M 245.057177 123.382703 
L 328.71378 123.382703 
L 328.71378 115.20973 
L 245.057177 115.20973 
z
" clip-path="url(#p98cfbad29b)" style="fill: #0000ff"/>
   </g>
   <g id="patch_245">
    <path d="M 245.391803 123.382703 
L 286.216225 123.382703 
L 286.216225 115.20973 
L 245.391803 115.20973 
z
" clip-path="url(#p98cfbad29b)" style="fill: #0000ff"/>
   </g>
   <g id="patch_246">
    <path d="M 246.061056 123.382703 
L 284.543093 123.382703 
L 284.543093 115.20973 
L 246.061056 115.20973 
z
" clip-path="url(#p98cfbad29b)" style="fill: #0000ff"/>
   </g>
   <g id="patch_247">
    <path d="M 246.395682 123.382703 
L 293.912633 123.382703 
L 293.912633 115.20973 
L 246.395682 115.20973 
z
" clip-path="url(#p98cfbad29b)" style="fill: #0000ff"/>
   </g>
   <g id="patch_248">
    <path d="M 246.730309 123.382703 
L 276.177433 123.382703 
L 276.177433 115.20973 
L 246.730309 115.20973 
z
" clip-path="url(#p98cfbad29b)" style="fill: #0000ff"/>
   </g>
   <g id="patch_249">
    <path d="M 247.399561 123.382703 
L 294.247259 123.382703 
L 294.247259 115.20973 
L 247.399561 115.20973 
z
" clip-path="url(#p98cfbad29b)" style="fill: #0000ff"/>
   </g>
   <g id="patch_250">
    <path d="M 247.734188 123.382703 
L 294.247259 123.382703 
L 294.247259 115.20973 
L 247.734188 115.20973 
z
" clip-path="url(#p98cfbad29b)" style="fill: #0000ff"/>
   </g>
   <g id="patch_251">
    <path d="M 249.40732 123.382703 
L 291.570248 123.382703 
L 291.570248 115.20973 
L 249.40732 115.20973 
z
" clip-path="url(#p98cfbad29b)" style="fill: #0000ff"/>
   </g>
   <g id="patch_252">
    <path d="M 250.076573 123.382703 
L 292.908754 123.382703 
L 292.908754 115.20973 
L 250.076573 115.20973 
z
" clip-path="url(#p98cfbad29b)" style="fill: #0000ff"/>
   </g>
   <g id="patch_253">
    <path d="M 250.745826 123.382703 
L 273.500422 123.382703 
L 273.500422 115.20973 
L 250.745826 115.20973 
z
" clip-path="url(#p98cfbad29b)" style="fill: #0000ff"/>
   </g>
   <g id="patch_254">
    <path d="M 253.757463 123.382703 
L 290.231742 123.382703 
L 290.231742 115.20973 
L 253.757463 115.20973 
z
" clip-path="url(#p98cfbad29b)" style="fill: #0000ff"/>
   </g>
   <g id="patch_255">
    <path d="M 254.426716 123.382703 
L 337.07944 123.382703 
L 337.07944 115.20973 
L 254.426716 115.20973 
z
" clip-path="url(#p98cfbad29b)" style="fill: #0000ff"/>
   </g>
   <g id="patch_256">
    <path d="M 261.119244 123.382703 
L 292.908754 123.382703 
L 292.908754 115.20973 
L 261.119244 115.20973 
z
" clip-path="url(#p98cfbad29b)" style="fill: #0000ff"/>
   </g>
   <g id="patch_257">
    <path d="M 261.119244 123.382703 
L 292.908754 123.382703 
L 292.908754 115.20973 
L 261.119244 115.20973 
z
" clip-path="url(#p98cfbad29b)" style="fill: #0000ff"/>
   </g>
   <g id="patch_258">
    <path d="M 144 102.95027 
L 172.108619 102.95027 
L 172.108619 94.777297 
L 144 94.777297 
z
" clip-path="url(#p98cfbad29b)" style="fill: #0000ff"/>
   </g>
   <g id="patch_259">
    <path d="M 144 102.95027 
L 172.443245 102.95027 
L 172.443245 94.777297 
L 144 94.777297 
z
" clip-path="url(#p98cfbad29b)" style="fill: #0000ff"/>
   </g>
   <g id="patch_260">
    <path d="M 144 102.95027 
L 172.108619 102.95027 
L 172.108619 94.777297 
L 144 94.777297 
z
" clip-path="url(#p98cfbad29b)" style="fill: #0000ff"/>
   </g>
   <g id="patch_261">
    <path d="M 144.334626 102.95027 
L 170.770113 102.95027 
L 170.770113 94.777297 
L 144.334626 94.777297 
z
" clip-path="url(#p98cfbad29b)" style="fill: #0000ff"/>
   </g>
   <g id="patch_262">
    <path d="M 144.334626 102.95027 
L 172.443245 102.95027 
L 172.443245 94.777297 
L 144.334626 94.777297 
z
" clip-path="url(#p98cfbad29b)" style="fill: #0000ff"/>
   </g>
   <g id="patch_263">
    <path d="M 144.334626 102.95027 
L 172.108619 102.95027 
L 172.108619 94.777297 
L 144.334626 94.777297 
z
" clip-path="url(#p98cfbad29b)" style="fill: #0000ff"/>
   </g>
   <g id="patch_264">
    <path d="M 144.334626 102.95027 
L 172.108619 102.95027 
L 172.108619 94.777297 
L 144.334626 94.777297 
z
" clip-path="url(#p98cfbad29b)" style="fill: #0000ff"/>
   </g>
   <g id="patch_265">
    <path d="M 144.334626 102.95027 
L 172.443245 102.95027 
L 172.443245 94.777297 
L 144.334626 94.777297 
z
" clip-path="url(#p98cfbad29b)" style="fill: #0000ff"/>
   </g>
   <g id="patch_266">
    <path d="M 144.334626 102.95027 
L 171.104739 102.95027 
L 171.104739 94.777297 
L 144.334626 94.777297 
z
" clip-path="url(#p98cfbad29b)" style="fill: #0000ff"/>
   </g>
   <g id="patch_267">
    <path d="M 144.669253 102.95027 
L 207.913645 102.95027 
L 207.913645 94.777297 
L 144.669253 94.777297 
z
" clip-path="url(#p98cfbad29b)" style="fill: #0000ff"/>
   </g>
   <g id="patch_268">
    <path d="M 144.669253 102.95027 
L 171.104739 102.95027 
L 171.104739 94.777297 
L 144.669253 94.777297 
z
" clip-path="url(#p98cfbad29b)" style="fill: #0000ff"/>
   </g>
   <g id="patch_269">
    <path d="M 145.003879 102.95027 
L 171.104739 102.95027 
L 171.104739 94.777297 
L 145.003879 94.777297 
z
" clip-path="url(#p98cfbad29b)" style="fill: #0000ff"/>
   </g>
   <g id="patch_270">
    <path d="M 145.003879 102.95027 
L 171.439366 102.95027 
L 171.439366 94.777297 
L 145.003879 94.777297 
z
" clip-path="url(#p98cfbad29b)" style="fill: #0000ff"/>
   </g>
   <g id="patch_271">
    <path d="M 145.003879 102.95027 
L 172.108619 102.95027 
L 172.108619 94.777297 
L 145.003879 94.777297 
z
" clip-path="url(#p98cfbad29b)" style="fill: #0000ff"/>
   </g>
   <g id="patch_272">
    <path d="M 145.338506 102.95027 
L 171.104739 102.95027 
L 171.104739 94.777297 
L 145.338506 94.777297 
z
" clip-path="url(#p98cfbad29b)" style="fill: #0000ff"/>
   </g>
   <g id="patch_273">
    <path d="M 145.338506 102.95027 
L 171.104739 102.95027 
L 171.104739 94.777297 
L 145.338506 94.777297 
z
" clip-path="url(#p98cfbad29b)" style="fill: #0000ff"/>
   </g>
   <g id="patch_274">
    <path d="M 145.338506 102.95027 
L 172.108619 102.95027 
L 172.108619 94.777297 
L 145.338506 94.777297 
z
" clip-path="url(#p98cfbad29b)" style="fill: #0000ff"/>
   </g>
   <g id="patch_275">
    <path d="M 145.338506 102.95027 
L 172.108619 102.95027 
L 172.108619 94.777297 
L 145.338506 94.777297 
z
" clip-path="url(#p98cfbad29b)" style="fill: #0000ff"/>
   </g>
   <g id="patch_276">
    <path d="M 145.338506 102.95027 
L 171.104739 102.95027 
L 171.104739 94.777297 
L 145.338506 94.777297 
z
" clip-path="url(#p98cfbad29b)" style="fill: #0000ff"/>
   </g>
   <g id="patch_277">
    <path d="M 145.673132 102.95027 
L 171.104739 102.95027 
L 171.104739 94.777297 
L 145.673132 94.777297 
z
" clip-path="url(#p98cfbad29b)" style="fill: #0000ff"/>
   </g>
   <g id="patch_278">
    <path d="M 145.673132 102.95027 
L 171.104739 102.95027 
L 171.104739 94.777297 
L 145.673132 94.777297 
z
" clip-path="url(#p98cfbad29b)" style="fill: #0000ff"/>
   </g>
   <g id="patch_279">
    <path d="M 145.673132 102.95027 
L 171.104739 102.95027 
L 171.104739 94.777297 
L 145.673132 94.777297 
z
" clip-path="url(#p98cfbad29b)" style="fill: #0000ff"/>
   </g>
   <g id="patch_280">
    <path d="M 145.673132 102.95027 
L 171.104739 102.95027 
L 171.104739 94.777297 
L 145.673132 94.777297 
z
" clip-path="url(#p98cfbad29b)" style="fill: #0000ff"/>
   </g>
   <g id="patch_281">
    <path d="M 145.673132 102.95027 
L 171.104739 102.95027 
L 171.104739 94.777297 
L 145.673132 94.777297 
z
" clip-path="url(#p98cfbad29b)" style="fill: #0000ff"/>
   </g>
   <g id="patch_282">
    <path d="M 145.673132 102.95027 
L 166.41997 102.95027 
L 166.41997 94.777297 
L 145.673132 94.777297 
z
" clip-path="url(#p98cfbad29b)" style="fill: #0000ff"/>
   </g>
   <g id="patch_283">
    <path d="M 147.346264 102.95027 
L 171.439366 102.95027 
L 171.439366 94.777297 
L 147.346264 94.777297 
z
" clip-path="url(#p98cfbad29b)" style="fill: #0000ff"/>
   </g>
   <g id="patch_284">
    <path d="M 147.346264 102.95027 
L 171.439366 102.95027 
L 171.439366 94.777297 
L 147.346264 94.777297 
z
" clip-path="url(#p98cfbad29b)" style="fill: #0000ff"/>
   </g>
   <g id="patch_285">
    <path d="M 147.346264 102.95027 
L 171.439366 102.95027 
L 171.439366 94.777297 
L 147.346264 94.777297 
z
" clip-path="url(#p98cfbad29b)" style="fill: #0000ff"/>
   </g>
   <g id="patch_286">
    <path d="M 147.346264 102.95027 
L 171.439366 102.95027 
L 171.439366 94.777297 
L 147.346264 94.777297 
z
" clip-path="url(#p98cfbad29b)" style="fill: #0000ff"/>
   </g>
   <g id="patch_287">
    <path d="M 147.346264 102.95027 
L 171.439366 102.95027 
L 171.439366 94.777297 
L 147.346264 94.777297 
z
" clip-path="url(#p98cfbad29b)" style="fill: #0000ff"/>
   </g>
   <g id="patch_288">
    <path d="M 147.346264 102.95027 
L 171.439366 102.95027 
L 171.439366 94.777297 
L 147.346264 94.777297 
z
" clip-path="url(#p98cfbad29b)" style="fill: #0000ff"/>
   </g>
   <g id="patch_289">
    <path d="M 149.688649 102.95027 
L 171.104739 102.95027 
L 171.104739 94.777297 
L 149.688649 94.777297 
z
" clip-path="url(#p98cfbad29b)" style="fill: #0000ff"/>
   </g>
   <g id="patch_290">
    <path d="M 172.108619 102.95027 
L 207.913645 102.95027 
L 207.913645 94.777297 
L 172.108619 94.777297 
z
" clip-path="url(#p98cfbad29b)" style="fill: #0000ff"/>
   </g>
   <g id="patch_291">
    <path d="M 175.120256 102.95027 
L 205.236633 102.95027 
L 205.236633 94.777297 
L 175.120256 94.777297 
z
" clip-path="url(#p98cfbad29b)" style="fill: #0000ff"/>
   </g>
   <g id="patch_292">
    <path d="M 202.894249 102.95027 
L 237.026143 102.95027 
L 237.026143 94.777297 
L 202.894249 94.777297 
z
" clip-path="url(#p98cfbad29b)" style="fill: #0000ff"/>
   </g>
   <g id="patch_293">
    <path d="M 203.563501 102.95027 
L 243.718671 102.95027 
L 243.718671 94.777297 
L 203.563501 94.777297 
z
" clip-path="url(#p98cfbad29b)" style="fill: #0000ff"/>
   </g>
   <g id="patch_294">
    <path d="M 205.905886 102.95027 
L 237.360769 102.95027 
L 237.360769 94.777297 
L 205.905886 94.777297 
z
" clip-path="url(#p98cfbad29b)" style="fill: #0000ff"/>
   </g>
   <g id="patch_295">
    <path d="M 205.905886 102.95027 
L 231.002867 102.95027 
L 231.002867 94.777297 
L 205.905886 94.777297 
z
" clip-path="url(#p98cfbad29b)" style="fill: #0000ff"/>
   </g>
   <g id="patch_296">
    <path d="M 206.240513 102.95027 
L 237.360769 102.95027 
L 237.360769 94.777297 
L 206.240513 94.777297 
z
" clip-path="url(#p98cfbad29b)" style="fill: #0000ff"/>
   </g>
   <g id="patch_297">
    <path d="M 206.240513 102.95027 
L 237.360769 102.95027 
L 237.360769 94.777297 
L 206.240513 94.777297 
z
" clip-path="url(#p98cfbad29b)" style="fill: #0000ff"/>
   </g>
   <g id="patch_298">
    <path d="M 206.575139 102.95027 
L 237.026143 102.95027 
L 237.026143 94.777297 
L 206.575139 94.777297 
z
" clip-path="url(#p98cfbad29b)" style="fill: #0000ff"/>
   </g>
   <g id="patch_299">
    <path d="M 206.575139 102.95027 
L 237.026143 102.95027 
L 237.026143 94.777297 
L 206.575139 94.777297 
z
" clip-path="url(#p98cfbad29b)" style="fill: #0000ff"/>
   </g>
   <g id="patch_300">
    <path d="M 209.25215 102.95027 
L 238.699275 102.95027 
L 238.699275 94.777297 
L 209.25215 94.777297 
z
" clip-path="url(#p98cfbad29b)" style="fill: #0000ff"/>
   </g>
   <g id="patch_301">
    <path d="M 242.045539 102.95027 
L 253.08821 102.95027 
L 253.08821 94.777297 
L 242.045539 94.777297 
z
" clip-path="url(#p98cfbad29b)" style="fill: #0000ff"/>
   </g>
   <g id="patch_302">
    <path d="M 253.422837 99.17027 
L 382.588632 99.17027 
L 382.588632 98.557297 
L 253.422837 98.557297 
z
" clip-path="url(#p98cfbad29b)" style="fill: #0000ff"/>
   </g>
   <g id="patch_303">
    <path d="M 144 78.737838 
L 144 78.737838 
L 144 78.124865 
L 144 78.124865 
z
" clip-path="url(#p98cfbad29b)" style="fill: #0000ff"/>
   </g>
   <g id="patch_304">
    <path d="M 144.334626 82.517838 
L 172.108619 82.517838 
L 172.108619 74.344865 
L 144.334626 74.344865 
z
" clip-path="url(#p98cfbad29b)" style="fill: #0000ff"/>
   </g>
   <g id="patch_305">
    <path d="M 145.003879 82.517838 
L 172.108619 82.517838 
L 172.108619 74.344865 
L 145.003879 74.344865 
z
" clip-path="url(#p98cfbad29b)" style="fill: #0000ff"/>
   </g>
   <g id="patch_306">
    <path d="M 145.003879 82.517838 
L 172.108619 82.517838 
L 172.108619 74.344865 
L 145.003879 74.344865 
z
" clip-path="url(#p98cfbad29b)" style="fill: #0000ff"/>
   </g>
   <g id="patch_307">
    <path d="M 145.003879 82.517838 
L 171.439366 82.517838 
L 171.439366 74.344865 
L 145.003879 74.344865 
z
" clip-path="url(#p98cfbad29b)" style="fill: #0000ff"/>
   </g>
   <g id="patch_308">
    <path d="M 172.443245 82.517838 
L 209.586777 82.517838 
L 209.586777 74.344865 
L 172.443245 74.344865 
z
" clip-path="url(#p98cfbad29b)" style="fill: #0000ff"/>
   </g>
   <g id="patch_309">
    <path d="M 172.443245 82.517838 
L 209.586777 82.517838 
L 209.586777 74.344865 
L 172.443245 74.344865 
z
" clip-path="url(#p98cfbad29b)" style="fill: #0000ff"/>
   </g>
   <g id="patch_310">
    <path d="M 172.443245 82.517838 
L 209.921403 82.517838 
L 209.921403 74.344865 
L 172.443245 74.344865 
z
" clip-path="url(#p98cfbad29b)" style="fill: #0000ff"/>
   </g>
   <g id="patch_311">
    <path d="M 172.443245 82.517838 
L 209.586777 82.517838 
L 209.586777 74.344865 
L 172.443245 74.344865 
z
" clip-path="url(#p98cfbad29b)" style="fill: #0000ff"/>
   </g>
   <g id="patch_312">
    <path d="M 172.443245 82.517838 
L 209.586777 82.517838 
L 209.586777 74.344865 
L 172.443245 74.344865 
z
" clip-path="url(#p98cfbad29b)" style="fill: #0000ff"/>
   </g>
   <g id="patch_313">
    <path d="M 172.443245 82.517838 
L 209.921403 82.517838 
L 209.921403 74.344865 
L 172.443245 74.344865 
z
" clip-path="url(#p98cfbad29b)" style="fill: #0000ff"/>
   </g>
   <g id="patch_314">
    <path d="M 172.443245 82.517838 
L 209.921403 82.517838 
L 209.921403 74.344865 
L 172.443245 74.344865 
z
" clip-path="url(#p98cfbad29b)" style="fill: #0000ff"/>
   </g>
   <g id="patch_315">
    <path d="M 173.112498 82.517838 
L 248.403441 82.517838 
L 248.403441 74.344865 
L 173.112498 74.344865 
z
" clip-path="url(#p98cfbad29b)" style="fill: #0000ff"/>
   </g>
   <g id="patch_316">
    <path d="M 179.135773 82.517838 
L 209.921403 82.517838 
L 209.921403 74.344865 
L 179.135773 74.344865 
z
" clip-path="url(#p98cfbad29b)" style="fill: #0000ff"/>
   </g>
   <g id="patch_317">
    <path d="M 212.933041 82.517838 
L 248.403441 82.517838 
L 248.403441 74.344865 
L 212.933041 74.344865 
z
" clip-path="url(#p98cfbad29b)" style="fill: #0000ff"/>
   </g>
   <g id="patch_318">
    <path d="M 214.271547 82.517838 
L 245.726429 82.517838 
L 245.726429 74.344865 
L 214.271547 74.344865 
z
" clip-path="url(#p98cfbad29b)" style="fill: #0000ff"/>
   </g>
   <g id="patch_319">
    <path d="M 247.064935 82.517838 
L 277.515939 82.517838 
L 277.515939 74.344865 
L 247.064935 74.344865 
z
" clip-path="url(#p98cfbad29b)" style="fill: #0000ff"/>
   </g>
   <g id="patch_320">
    <path d="M 247.064935 82.517838 
L 277.515939 82.517838 
L 277.515939 74.344865 
L 247.064935 74.344865 
z
" clip-path="url(#p98cfbad29b)" style="fill: #0000ff"/>
   </g>
   <g id="patch_321">
    <path d="M 277.850565 78.737838 
L 307.632316 78.737838 
L 307.632316 78.124865 
L 277.850565 78.124865 
z
" clip-path="url(#p98cfbad29b)" style="fill: #0000ff"/>
   </g>
   <g id="patch_322">
    <path d="M 307.966942 82.517838 
L 361.841795 82.517838 
L 361.841795 74.344865 
L 307.966942 74.344865 
z
" clip-path="url(#p98cfbad29b)" style="fill: #0000ff"/>
   </g>
   <g id="patch_323">
    <path d="M 346.783606 82.517838 
L 397.646821 82.517838 
L 397.646821 74.344865 
L 346.783606 74.344865 
z
" clip-path="url(#p98cfbad29b)" style="fill: #0000ff"/>
   </g>
   <g id="patch_324">
    <path d="M 397.981447 78.737838 
L 696.802834 78.737838 
L 696.802834 78.124865 
L 397.981447 78.124865 
z
" clip-path="url(#p98cfbad29b)" style="fill: #0000ff"/>
   </g>
   <g id="patch_325">
    <path d="M 697.13746 82.517838 
L 754.693203 82.517838 
L 754.693203 74.344865 
L 697.13746 74.344865 
z
" clip-path="url(#p98cfbad29b)" style="fill: #0000ff"/>
   </g>
   <g id="patch_326">
    <path d="M 755.027829 78.737838 
L 762.054984 78.737838 
L 762.054984 78.124865 
L 755.027829 78.124865 
z
" clip-path="url(#p98cfbad29b)" style="fill: #0000ff"/>
   </g>
   <g id="patch_327">
    <path d="M 762.38961 82.517838 
L 803.883286 82.517838 
L 803.883286 74.344865 
L 762.38961 74.344865 
z
" clip-path="url(#p98cfbad29b)" style="fill: #0000ff"/>
   </g>
   <g id="patch_328">
    <path d="M 804.217912 78.737838 
L 925.018047 78.737838 
L 925.018047 78.124865 
L 804.217912 78.124865 
z
" clip-path="url(#p98cfbad29b)" style="fill: #0000ff"/>
   </g>
   <g id="patch_329">
    <path d="M 925.352673 82.517838 
L 990.93945 82.517838 
L 990.93945 74.344865 
L 925.352673 74.344865 
z
" clip-path="url(#p98cfbad29b)" style="fill: #0000ff"/>
   </g>
   <g id="patch_330">
    <path d="M 941.749368 82.517838 
L 990.604824 82.517838 
L 990.604824 74.344865 
L 941.749368 74.344865 
z
" clip-path="url(#p98cfbad29b)" style="fill: #0000ff"/>
   </g>
   <g id="patch_331">
    <path d="M 991.274077 78.737838 
L 993.951088 78.737838 
L 993.951088 78.124865 
L 991.274077 78.124865 
z
" clip-path="url(#p98cfbad29b)" style="fill: #0000ff"/>
   </g>
   <g id="patch_332">
    <path d="M 144 58.305405 
L 144 58.305405 
L 144 57.692432 
L 144 57.692432 
z
" clip-path="url(#p98cfbad29b)" style="fill: #0000ff"/>
   </g>
   <g id="patch_333">
    <path d="M 144.334626 62.085405 
L 172.777871 62.085405 
L 172.777871 53.912432 
L 144.334626 53.912432 
z
" clip-path="url(#p98cfbad29b)" style="fill: #0000ff"/>
   </g>
   <g id="patch_334">
    <path d="M 145.003879 62.085405 
L 172.777871 62.085405 
L 172.777871 53.912432 
L 145.003879 53.912432 
z
" clip-path="url(#p98cfbad29b)" style="fill: #0000ff"/>
   </g>
   <g id="patch_335">
    <path d="M 145.003879 62.085405 
L 172.777871 62.085405 
L 172.777871 53.912432 
L 145.003879 53.912432 
z
" clip-path="url(#p98cfbad29b)" style="fill: #0000ff"/>
   </g>
   <g id="patch_336">
    <path d="M 145.003879 62.085405 
L 172.108619 62.085405 
L 172.108619 53.912432 
L 145.003879 53.912432 
z
" clip-path="url(#p98cfbad29b)" style="fill: #0000ff"/>
   </g>
   <g id="patch_337">
    <path d="M 173.112498 62.085405 
L 210.25603 62.085405 
L 210.25603 53.912432 
L 173.112498 53.912432 
z
" clip-path="url(#p98cfbad29b)" style="fill: #0000ff"/>
   </g>
   <g id="patch_338">
    <path d="M 173.112498 62.085405 
L 210.590656 62.085405 
L 210.590656 53.912432 
L 173.112498 53.912432 
z
" clip-path="url(#p98cfbad29b)" style="fill: #0000ff"/>
   </g>
   <g id="patch_339">
    <path d="M 173.112498 62.085405 
L 210.25603 62.085405 
L 210.25603 53.912432 
L 173.112498 53.912432 
z
" clip-path="url(#p98cfbad29b)" style="fill: #0000ff"/>
   </g>
   <g id="patch_340">
    <path d="M 173.112498 62.085405 
L 210.25603 62.085405 
L 210.25603 53.912432 
L 173.112498 53.912432 
z
" clip-path="url(#p98cfbad29b)" style="fill: #0000ff"/>
   </g>
   <g id="patch_341">
    <path d="M 173.781751 62.085405 
L 249.40732 62.085405 
L 249.40732 53.912432 
L 173.781751 53.912432 
z
" clip-path="url(#p98cfbad29b)" style="fill: #0000ff"/>
   </g>
   <g id="patch_342">
    <path d="M 174.116377 62.085405 
L 210.25603 62.085405 
L 210.25603 53.912432 
L 174.116377 53.912432 
z
" clip-path="url(#p98cfbad29b)" style="fill: #0000ff"/>
   </g>
   <g id="patch_343">
    <path d="M 174.451004 62.085405 
L 206.240513 62.085405 
L 206.240513 53.912432 
L 174.451004 53.912432 
z
" clip-path="url(#p98cfbad29b)" style="fill: #0000ff"/>
   </g>
   <g id="patch_344">
    <path d="M 176.458762 62.085405 
L 210.590656 62.085405 
L 210.590656 53.912432 
L 176.458762 53.912432 
z
" clip-path="url(#p98cfbad29b)" style="fill: #0000ff"/>
   </g>
   <g id="patch_345">
    <path d="M 177.797268 62.085405 
L 210.590656 62.085405 
L 210.590656 53.912432 
L 177.797268 53.912432 
z
" clip-path="url(#p98cfbad29b)" style="fill: #0000ff"/>
   </g>
   <g id="patch_346">
    <path d="M 213.602294 62.085405 
L 249.40732 62.085405 
L 249.40732 53.912432 
L 213.602294 53.912432 
z
" clip-path="url(#p98cfbad29b)" style="fill: #0000ff"/>
   </g>
   <g id="patch_347">
    <path d="M 214.940799 62.085405 
L 246.730309 62.085405 
L 246.730309 53.912432 
L 214.940799 53.912432 
z
" clip-path="url(#p98cfbad29b)" style="fill: #0000ff"/>
   </g>
   <g id="patch_348">
    <path d="M 247.734188 62.085405 
L 277.181312 62.085405 
L 277.181312 53.912432 
L 247.734188 53.912432 
z
" clip-path="url(#p98cfbad29b)" style="fill: #0000ff"/>
   </g>
   <g id="patch_349">
    <path d="M 248.068814 62.085405 
L 278.519818 62.085405 
L 278.519818 53.912432 
L 248.068814 53.912432 
z
" clip-path="url(#p98cfbad29b)" style="fill: #0000ff"/>
   </g>
   <g id="patch_350">
    <path d="M 248.068814 62.085405 
L 278.519818 62.085405 
L 278.519818 53.912432 
L 248.068814 53.912432 
z
" clip-path="url(#p98cfbad29b)" style="fill: #0000ff"/>
   </g>
   <g id="patch_351">
    <path d="M 278.854444 58.305405 
L 308.636195 58.305405 
L 308.636195 57.692432 
L 278.854444 57.692432 
z
" clip-path="url(#p98cfbad29b)" style="fill: #0000ff"/>
   </g>
   <g id="patch_352">
    <path d="M 308.970821 62.085405 
L 362.845674 62.085405 
L 362.845674 53.912432 
L 308.970821 53.912432 
z
" clip-path="url(#p98cfbad29b)" style="fill: #0000ff"/>
   </g>
   <g id="patch_353">
    <path d="M 363.1803 58.305405 
L 493.015348 58.305405 
L 493.015348 57.692432 
L 363.1803 57.692432 
z
" clip-path="url(#p98cfbad29b)" style="fill: #0000ff"/>
   </g>
   <g id="patch_354">
    <path d="M 493.349975 62.085405 
L 536.516782 62.085405 
L 536.516782 53.912432 
L 493.349975 53.912432 
z
" clip-path="url(#p98cfbad29b)" style="fill: #0000ff"/>
   </g>
   <g id="patch_355">
    <path d="M 536.851408 58.305405 
L 697.472086 58.305405 
L 697.472086 57.692432 
L 536.851408 57.692432 
z
" clip-path="url(#p98cfbad29b)" style="fill: #0000ff"/>
   </g>
   <g id="patch_356">
    <path d="M 697.806713 62.085405 
L 755.027829 62.085405 
L 755.027829 53.912432 
L 697.806713 53.912432 
z
" clip-path="url(#p98cfbad29b)" style="fill: #0000ff"/>
   </g>
   <g id="patch_357">
    <path d="M 755.362456 58.305405 
L 762.38961 58.305405 
L 762.38961 57.692432 
L 755.362456 57.692432 
z
" clip-path="url(#p98cfbad29b)" style="fill: #0000ff"/>
   </g>
   <g id="patch_358">
    <path d="M 762.724237 62.085405 
L 804.217912 62.085405 
L 804.217912 53.912432 
L 762.724237 53.912432 
z
" clip-path="url(#p98cfbad29b)" style="fill: #0000ff"/>
   </g>
   <g id="patch_359">
    <path d="M 804.552538 58.305405 
L 925.352673 58.305405 
L 925.352673 57.692432 
L 804.552538 57.692432 
z
" clip-path="url(#p98cfbad29b)" style="fill: #0000ff"/>
   </g>
   <g id="patch_360">
    <path d="M 925.6873 62.085405 
L 990.93945 62.085405 
L 990.93945 53.912432 
L 925.6873 53.912432 
z
" clip-path="url(#p98cfbad29b)" style="fill: #0000ff"/>
   </g>
   <g id="patch_361">
    <path d="M 942.083994 62.085405 
L 990.604824 62.085405 
L 990.604824 53.912432 
L 942.083994 53.912432 
z
" clip-path="url(#p98cfbad29b)" style="fill: #0000ff"/>
   </g>
   <g id="patch_362">
    <path d="M 991.274077 58.305405 
L 994.285714 58.305405 
L 994.285714 57.692432 
L 991.274077 57.692432 
z
" clip-path="url(#p98cfbad29b)" style="fill: #0000ff"/>
   </g>
   <g id="patch_363">
    <path d="M 144 37.872973 
L 147.011638 37.872973 
L 147.011638 37.26 
L 144 37.26 
z
" clip-path="url(#p98cfbad29b)" style="fill: #0000ff"/>
   </g>
   <g id="patch_364">
    <path d="M 147.346264 41.652973 
L 175.120256 41.652973 
L 175.120256 33.48 
L 147.346264 33.48 
z
" clip-path="url(#p98cfbad29b)" style="fill: #0000ff"/>
   </g>
   <g id="patch_365">
    <path d="M 147.346264 41.652973 
L 175.120256 41.652973 
L 175.120256 33.48 
L 147.346264 33.48 
z
" clip-path="url(#p98cfbad29b)" style="fill: #0000ff"/>
   </g>
   <g id="patch_366">
    <path d="M 147.346264 41.652973 
L 175.120256 41.652973 
L 175.120256 33.48 
L 147.346264 33.48 
z
" clip-path="url(#p98cfbad29b)" style="fill: #0000ff"/>
   </g>
   <g id="patch_367">
    <path d="M 147.346264 41.652973 
L 175.120256 41.652973 
L 175.120256 33.48 
L 147.346264 33.48 
z
" clip-path="url(#p98cfbad29b)" style="fill: #0000ff"/>
   </g>
   <g id="patch_368">
    <path d="M 147.346264 41.652973 
L 175.454883 41.652973 
L 175.454883 33.48 
L 147.346264 33.48 
z
" clip-path="url(#p98cfbad29b)" style="fill: #0000ff"/>
   </g>
   <g id="patch_369">
    <path d="M 148.350143 41.652973 
L 175.120256 41.652973 
L 175.120256 33.48 
L 148.350143 33.48 
z
" clip-path="url(#p98cfbad29b)" style="fill: #0000ff"/>
   </g>
   <g id="patch_370">
    <path d="M 175.454883 41.652973 
L 235.687637 41.652973 
L 235.687637 33.48 
L 175.454883 33.48 
z
" clip-path="url(#p98cfbad29b)" style="fill: #0000ff"/>
   </g>
   <g id="patch_371">
    <path d="M 175.454883 41.652973 
L 235.687637 41.652973 
L 235.687637 33.48 
L 175.454883 33.48 
z
" clip-path="url(#p98cfbad29b)" style="fill: #0000ff"/>
   </g>
   <g id="patch_372">
    <path d="M 175.454883 41.652973 
L 235.687637 41.652973 
L 235.687637 33.48 
L 175.454883 33.48 
z
" clip-path="url(#p98cfbad29b)" style="fill: #0000ff"/>
   </g>
   <g id="patch_373">
    <path d="M 175.454883 41.652973 
L 235.687637 41.652973 
L 235.687637 33.48 
L 175.454883 33.48 
z
" clip-path="url(#p98cfbad29b)" style="fill: #0000ff"/>
   </g>
   <g id="patch_374">
    <path d="M 224.979592 41.652973 
L 235.353011 41.652973 
L 235.353011 33.48 
L 224.979592 33.48 
z
" clip-path="url(#p98cfbad29b)" style="fill: #0000ff"/>
   </g>
   <g id="patch_375">
    <path d="M 226.98735 41.652973 
L 235.353011 41.652973 
L 235.353011 33.48 
L 226.98735 33.48 
z
" clip-path="url(#p98cfbad29b)" style="fill: #0000ff"/>
   </g>
   <g id="patch_376">
    <path d="M 227.321977 41.652973 
L 258.442233 41.652973 
L 258.442233 33.48 
L 227.321977 33.48 
z
" clip-path="url(#p98cfbad29b)" style="fill: #0000ff"/>
   </g>
   <g id="patch_377">
    <path d="M 237.026143 41.652973 
L 261.788497 41.652973 
L 261.788497 33.48 
L 237.026143 33.48 
z
" clip-path="url(#p98cfbad29b)" style="fill: #0000ff"/>
   </g>
   <g id="patch_378">
    <path d="M 262.123124 37.872973 
L 267.14252 37.872973 
L 267.14252 37.26 
L 262.123124 37.26 
z
" clip-path="url(#p98cfbad29b)" style="fill: #0000ff"/>
   </g>
   <g id="patch_379">
    <path d="M 267.477146 41.652973 
L 308.636195 41.652973 
L 308.636195 33.48 
L 267.477146 33.48 
z
" clip-path="url(#p98cfbad29b)" style="fill: #0000ff"/>
   </g>
   <g id="patch_380">
    <path d="M 270.154158 41.652973 
L 301.943667 41.652973 
L 301.943667 33.48 
L 270.154158 33.48 
z
" clip-path="url(#p98cfbad29b)" style="fill: #0000ff"/>
   </g>
   <g id="patch_381">
    <path d="M 270.154158 41.652973 
L 300.270535 41.652973 
L 300.270535 33.48 
L 270.154158 33.48 
z
" clip-path="url(#p98cfbad29b)" style="fill: #0000ff"/>
   </g>
   <g id="patch_382">
    <path d="M 270.154158 41.652973 
L 301.943667 41.652973 
L 301.943667 33.48 
L 270.154158 33.48 
z
" clip-path="url(#p98cfbad29b)" style="fill: #0000ff"/>
   </g>
   <g id="patch_383">
    <path d="M 274.169674 41.652973 
L 301.60904 41.652973 
L 301.60904 33.48 
L 274.169674 33.48 
z
" clip-path="url(#p98cfbad29b)" style="fill: #0000ff"/>
   </g>
   <g id="patch_384">
    <path d="M 308.970821 37.872973 
L 332.060044 37.872973 
L 332.060044 37.26 
L 308.970821 37.26 
z
" clip-path="url(#p98cfbad29b)" style="fill: #0000ff"/>
   </g>
   <g id="patch_385">
    <path d="M 332.39467 41.652973 
L 362.845674 41.652973 
L 362.845674 33.48 
L 332.39467 33.48 
z
" clip-path="url(#p98cfbad29b)" style="fill: #0000ff"/>
   </g>
   <g id="patch_386">
    <path d="M 333.063923 41.652973 
L 362.176421 41.652973 
L 362.176421 33.48 
L 333.063923 33.48 
z
" clip-path="url(#p98cfbad29b)" style="fill: #0000ff"/>
   </g>
   <g id="patch_387">
    <path d="M 363.1803 37.872973 
L 370.207455 37.872973 
L 370.207455 37.26 
L 363.1803 37.26 
z
" clip-path="url(#p98cfbad29b)" style="fill: #0000ff"/>
   </g>
   <g id="matplotlib.axis_1">
    <g id="xtick_1">
     <g id="line2d_1">
      <defs>
       <path id="m3ec2991814" d="M 0 0 
L 0 3.5 
" style="stroke: #000000; stroke-width: 0.8"/>
      </defs>
      <g>
       <use xlink:href="#m3ec2991814" x="310.97858" y="192.24" style="stroke: #000000; stroke-width: 0.8"/>
      </g>
     </g>
     <g id="text_1">
      <!-- 500 -->
      <g transform="translate(301.43483 206.838437) scale(0.1 -0.1)">
       <defs>
        <path id="DejaVuSans-35" d="M 691 4666 
L 3169 4666 
L 3169 4134 
L 1269 4134 
L 1269 2991 
Q 1406 3038 1543 3061 
Q 1681 3084 1819 3084 
Q 2600 3084 3056 2656 
Q 3513 2228 3513 1497 
Q 3513 744 3044 326 
Q 2575 -91 1722 -91 
Q 1428 -91 1123 -41 
Q 819 9 494 109 
L 494 744 
Q 775 591 1075 516 
Q 1375 441 1709 441 
Q 2250 441 2565 725 
Q 2881 1009 2881 1497 
Q 2881 1984 2565 2268 
Q 2250 2553 1709 2553 
Q 1456 2553 1204 2497 
Q 953 2441 691 2322 
L 691 4666 
z
" transform="scale(0.015625)"/>
        <path id="DejaVuSans-30" d="M 2034 4250 
Q 1547 4250 1301 3770 
Q 1056 3291 1056 2328 
Q 1056 1369 1301 889 
Q 1547 409 2034 409 
Q 2525 409 2770 889 
Q 3016 1369 3016 2328 
Q 3016 3291 2770 3770 
Q 2525 4250 2034 4250 
z
M 2034 4750 
Q 2819 4750 3233 4129 
Q 3647 3509 3647 2328 
Q 3647 1150 3233 529 
Q 2819 -91 2034 -91 
Q 1250 -91 836 529 
Q 422 1150 422 2328 
Q 422 3509 836 4129 
Q 1250 4750 2034 4750 
z
" transform="scale(0.015625)"/>
       </defs>
       <use xlink:href="#DejaVuSans-35"/>
       <use xlink:href="#DejaVuSans-30" x="63.623047"/>
       <use xlink:href="#DejaVuSans-30" x="127.246094"/>
      </g>
     </g>
    </g>
    <g id="xtick_2">
     <g id="line2d_2">
      <g>
       <use xlink:href="#m3ec2991814" x="478.291786" y="192.24" style="stroke: #000000; stroke-width: 0.8"/>
      </g>
     </g>
     <g id="text_2">
      <!-- 1000 -->
      <g transform="translate(465.566786 206.838437) scale(0.1 -0.1)">
       <defs>
        <path id="DejaVuSans-31" d="M 794 531 
L 1825 531 
L 1825 4091 
L 703 3866 
L 703 4441 
L 1819 4666 
L 2450 4666 
L 2450 531 
L 3481 531 
L 3481 0 
L 794 0 
L 794 531 
z
" transform="scale(0.015625)"/>
       </defs>
       <use xlink:href="#DejaVuSans-31"/>
       <use xlink:href="#DejaVuSans-30" x="63.623047"/>
       <use xlink:href="#DejaVuSans-30" x="127.246094"/>
       <use xlink:href="#DejaVuSans-30" x="190.869141"/>
      </g>
     </g>
    </g>
    <g id="xtick_3">
     <g id="line2d_3">
      <g>
       <use xlink:href="#m3ec2991814" x="645.604992" y="192.24" style="stroke: #000000; stroke-width: 0.8"/>
      </g>
     </g>
     <g id="text_3">
      <!-- 1500 -->
      <g transform="translate(632.879992 206.838437) scale(0.1 -0.1)">
       <use xlink:href="#DejaVuSans-31"/>
       <use xlink:href="#DejaVuSans-35" x="63.623047"/>
       <use xlink:href="#DejaVuSans-30" x="127.246094"/>
       <use xlink:href="#DejaVuSans-30" x="190.869141"/>
      </g>
     </g>
    </g>
    <g id="xtick_4">
     <g id="line2d_4">
      <g>
       <use xlink:href="#m3ec2991814" x="812.918199" y="192.24" style="stroke: #000000; stroke-width: 0.8"/>
      </g>
     </g>
     <g id="text_4">
      <!-- 2000 -->
      <g transform="translate(800.193199 206.838437) scale(0.1 -0.1)">
       <defs>
        <path id="DejaVuSans-32" d="M 1228 531 
L 3431 531 
L 3431 0 
L 469 0 
L 469 531 
Q 828 903 1448 1529 
Q 2069 2156 2228 2338 
Q 2531 2678 2651 2914 
Q 2772 3150 2772 3378 
Q 2772 3750 2511 3984 
Q 2250 4219 1831 4219 
Q 1534 4219 1204 4116 
Q 875 4013 500 3803 
L 500 4441 
Q 881 4594 1212 4672 
Q 1544 4750 1819 4750 
Q 2544 4750 2975 4387 
Q 3406 4025 3406 3419 
Q 3406 3131 3298 2873 
Q 3191 2616 2906 2266 
Q 2828 2175 2409 1742 
Q 1991 1309 1228 531 
z
" transform="scale(0.015625)"/>
       </defs>
       <use xlink:href="#DejaVuSans-32"/>
       <use xlink:href="#DejaVuSans-30" x="63.623047"/>
       <use xlink:href="#DejaVuSans-30" x="127.246094"/>
       <use xlink:href="#DejaVuSans-30" x="190.869141"/>
      </g>
     </g>
    </g>
    <g id="xtick_5">
     <g id="line2d_5">
      <g>
       <use xlink:href="#m3ec2991814" x="980.231405" y="192.24" style="stroke: #000000; stroke-width: 0.8"/>
      </g>
     </g>
     <g id="text_5">
      <!-- 2500 -->
      <g transform="translate(967.506405 206.838437) scale(0.1 -0.1)">
       <use xlink:href="#DejaVuSans-32"/>
       <use xlink:href="#DejaVuSans-35" x="63.623047"/>
       <use xlink:href="#DejaVuSans-30" x="127.246094"/>
       <use xlink:href="#DejaVuSans-30" x="190.869141"/>
      </g>
     </g>
    </g>
    <g id="text_6">
     <!-- Residual -->
     <g transform="translate(569.284375 220.516562) scale(0.1 -0.1)">
      <defs>
       <path id="DejaVuSans-52" d="M 2841 2188 
Q 3044 2119 3236 1894 
Q 3428 1669 3622 1275 
L 4263 0 
L 3584 0 
L 2988 1197 
Q 2756 1666 2539 1819 
Q 2322 1972 1947 1972 
L 1259 1972 
L 1259 0 
L 628 0 
L 628 4666 
L 2053 4666 
Q 2853 4666 3247 4331 
Q 3641 3997 3641 3322 
Q 3641 2881 3436 2590 
Q 3231 2300 2841 2188 
z
M 1259 4147 
L 1259 2491 
L 2053 2491 
Q 2509 2491 2742 2702 
Q 2975 2913 2975 3322 
Q 2975 3731 2742 3939 
Q 2509 4147 2053 4147 
L 1259 4147 
z
" transform="scale(0.015625)"/>
       <path id="DejaVuSans-65" d="M 3597 1894 
L 3597 1613 
L 953 1613 
Q 991 1019 1311 708 
Q 1631 397 2203 397 
Q 2534 397 2845 478 
Q 3156 559 3463 722 
L 3463 178 
Q 3153 47 2828 -22 
Q 2503 -91 2169 -91 
Q 1331 -91 842 396 
Q 353 884 353 1716 
Q 353 2575 817 3079 
Q 1281 3584 2069 3584 
Q 2775 3584 3186 3129 
Q 3597 2675 3597 1894 
z
M 3022 2063 
Q 3016 2534 2758 2815 
Q 2500 3097 2075 3097 
Q 1594 3097 1305 2825 
Q 1016 2553 972 2059 
L 3022 2063 
z
" transform="scale(0.015625)"/>
       <path id="DejaVuSans-73" d="M 2834 3397 
L 2834 2853 
Q 2591 2978 2328 3040 
Q 2066 3103 1784 3103 
Q 1356 3103 1142 2972 
Q 928 2841 928 2578 
Q 928 2378 1081 2264 
Q 1234 2150 1697 2047 
L 1894 2003 
Q 2506 1872 2764 1633 
Q 3022 1394 3022 966 
Q 3022 478 2636 193 
Q 2250 -91 1575 -91 
Q 1294 -91 989 -36 
Q 684 19 347 128 
L 347 722 
Q 666 556 975 473 
Q 1284 391 1588 391 
Q 1994 391 2212 530 
Q 2431 669 2431 922 
Q 2431 1156 2273 1281 
Q 2116 1406 1581 1522 
L 1381 1569 
Q 847 1681 609 1914 
Q 372 2147 372 2553 
Q 372 3047 722 3315 
Q 1072 3584 1716 3584 
Q 2034 3584 2315 3537 
Q 2597 3491 2834 3397 
z
" transform="scale(0.015625)"/>
       <path id="DejaVuSans-69" d="M 603 3500 
L 1178 3500 
L 1178 0 
L 603 0 
L 603 3500 
z
M 603 4863 
L 1178 4863 
L 1178 4134 
L 603 4134 
L 603 4863 
z
" transform="scale(0.015625)"/>
       <path id="DejaVuSans-64" d="M 2906 2969 
L 2906 4863 
L 3481 4863 
L 3481 0 
L 2906 0 
L 2906 525 
Q 2725 213 2448 61 
Q 2172 -91 1784 -91 
Q 1150 -91 751 415 
Q 353 922 353 1747 
Q 353 2572 751 3078 
Q 1150 3584 1784 3584 
Q 2172 3584 2448 3432 
Q 2725 3281 2906 2969 
z
M 947 1747 
Q 947 1113 1208 752 
Q 1469 391 1925 391 
Q 2381 391 2643 752 
Q 2906 1113 2906 1747 
Q 2906 2381 2643 2742 
Q 2381 3103 1925 3103 
Q 1469 3103 1208 2742 
Q 947 2381 947 1747 
z
" transform="scale(0.015625)"/>
       <path id="DejaVuSans-75" d="M 544 1381 
L 544 3500 
L 1119 3500 
L 1119 1403 
Q 1119 906 1312 657 
Q 1506 409 1894 409 
Q 2359 409 2629 706 
Q 2900 1003 2900 1516 
L 2900 3500 
L 3475 3500 
L 3475 0 
L 2900 0 
L 2900 538 
Q 2691 219 2414 64 
Q 2138 -91 1772 -91 
Q 1169 -91 856 284 
Q 544 659 544 1381 
z
M 1991 3584 
L 1991 3584 
z
" transform="scale(0.015625)"/>
       <path id="DejaVuSans-61" d="M 2194 1759 
Q 1497 1759 1228 1600 
Q 959 1441 959 1056 
Q 959 750 1161 570 
Q 1363 391 1709 391 
Q 2188 391 2477 730 
Q 2766 1069 2766 1631 
L 2766 1759 
L 2194 1759 
z
M 3341 1997 
L 3341 0 
L 2766 0 
L 2766 531 
Q 2569 213 2275 61 
Q 1981 -91 1556 -91 
Q 1019 -91 701 211 
Q 384 513 384 1019 
Q 384 1609 779 1909 
Q 1175 2209 1959 2209 
L 2766 2209 
L 2766 2266 
Q 2766 2663 2505 2880 
Q 2244 3097 1772 3097 
Q 1472 3097 1187 3025 
Q 903 2953 641 2809 
L 641 3341 
Q 956 3463 1253 3523 
Q 1550 3584 1831 3584 
Q 2591 3584 2966 3190 
Q 3341 2797 3341 1997 
z
" transform="scale(0.015625)"/>
       <path id="DejaVuSans-6c" d="M 603 4863 
L 1178 4863 
L 1178 0 
L 603 0 
L 603 4863 
z
" transform="scale(0.015625)"/>
      </defs>
      <use xlink:href="#DejaVuSans-52"/>
      <use xlink:href="#DejaVuSans-65" x="64.982422"/>
      <use xlink:href="#DejaVuSans-73" x="126.505859"/>
      <use xlink:href="#DejaVuSans-69" x="178.605469"/>
      <use xlink:href="#DejaVuSans-64" x="206.388672"/>
      <use xlink:href="#DejaVuSans-75" x="269.865234"/>
      <use xlink:href="#DejaVuSans-61" x="333.244141"/>
      <use xlink:href="#DejaVuSans-6c" x="394.523438"/>
     </g>
    </g>
   </g>
   <g id="matplotlib.axis_2">
    <g id="ytick_1">
     <g id="line2d_6">
      <defs>
       <path id="m3626c80928" d="M 0 0 
L -3.5 0 
" style="stroke: #000000; stroke-width: 0.8"/>
      </defs>
      <g>
       <use xlink:href="#m3626c80928" x="144" y="180.593514" style="stroke: #000000; stroke-width: 0.8"/>
      </g>
     </g>
     <g id="text_7">
      <!-- 8.A.25.1.1 -->
      <g transform="translate(85.809375 184.392732) scale(0.1 -0.1)">
       <defs>
        <path id="DejaVuSans-38" d="M 2034 2216 
Q 1584 2216 1326 1975 
Q 1069 1734 1069 1313 
Q 1069 891 1326 650 
Q 1584 409 2034 409 
Q 2484 409 2743 651 
Q 3003 894 3003 1313 
Q 3003 1734 2745 1975 
Q 2488 2216 2034 2216 
z
M 1403 2484 
Q 997 2584 770 2862 
Q 544 3141 544 3541 
Q 544 4100 942 4425 
Q 1341 4750 2034 4750 
Q 2731 4750 3128 4425 
Q 3525 4100 3525 3541 
Q 3525 3141 3298 2862 
Q 3072 2584 2669 2484 
Q 3125 2378 3379 2068 
Q 3634 1759 3634 1313 
Q 3634 634 3220 271 
Q 2806 -91 2034 -91 
Q 1263 -91 848 271 
Q 434 634 434 1313 
Q 434 1759 690 2068 
Q 947 2378 1403 2484 
z
M 1172 3481 
Q 1172 3119 1398 2916 
Q 1625 2713 2034 2713 
Q 2441 2713 2670 2916 
Q 2900 3119 2900 3481 
Q 2900 3844 2670 4047 
Q 2441 4250 2034 4250 
Q 1625 4250 1398 4047 
Q 1172 3844 1172 3481 
z
" transform="scale(0.015625)"/>
        <path id="DejaVuSans-2e" d="M 684 794 
L 1344 794 
L 1344 0 
L 684 0 
L 684 794 
z
" transform="scale(0.015625)"/>
        <path id="DejaVuSans-41" d="M 2188 4044 
L 1331 1722 
L 3047 1722 
L 2188 4044 
z
M 1831 4666 
L 2547 4666 
L 4325 0 
L 3669 0 
L 3244 1197 
L 1141 1197 
L 716 0 
L 50 0 
L 1831 4666 
z
" transform="scale(0.015625)"/>
       </defs>
       <use xlink:href="#DejaVuSans-38"/>
       <use xlink:href="#DejaVuSans-2e" x="63.623047"/>
       <use xlink:href="#DejaVuSans-41" x="95.410156"/>
       <use xlink:href="#DejaVuSans-2e" x="162.068359"/>
       <use xlink:href="#DejaVuSans-32" x="193.855469"/>
       <use xlink:href="#DejaVuSans-35" x="257.478516"/>
       <use xlink:href="#DejaVuSans-2e" x="321.101562"/>
       <use xlink:href="#DejaVuSans-31" x="352.888672"/>
       <use xlink:href="#DejaVuSans-2e" x="416.511719"/>
       <use xlink:href="#DejaVuSans-31" x="448.298828"/>
      </g>
     </g>
    </g>
    <g id="ytick_2">
     <g id="line2d_7">
      <g>
       <use xlink:href="#m3626c80928" x="144" y="160.161081" style="stroke: #000000; stroke-width: 0.8"/>
      </g>
     </g>
     <g id="text_8">
      <!-- 8.A.25.1.2 -->
      <g transform="translate(85.809375 163.9603) scale(0.1 -0.1)">
       <use xlink:href="#DejaVuSans-38"/>
       <use xlink:href="#DejaVuSans-2e" x="63.623047"/>
       <use xlink:href="#DejaVuSans-41" x="95.410156"/>
       <use xlink:href="#DejaVuSans-2e" x="162.068359"/>
       <use xlink:href="#DejaVuSans-32" x="193.855469"/>
       <use xlink:href="#DejaVuSans-35" x="257.478516"/>
       <use xlink:href="#DejaVuSans-2e" x="321.101562"/>
       <use xlink:href="#DejaVuSans-31" x="352.888672"/>
       <use xlink:href="#DejaVuSans-2e" x="416.511719"/>
       <use xlink:href="#DejaVuSans-32" x="448.298828"/>
      </g>
     </g>
    </g>
    <g id="ytick_3">
     <g id="line2d_8">
      <g>
       <use xlink:href="#m3626c80928" x="144" y="139.728649" style="stroke: #000000; stroke-width: 0.8"/>
      </g>
     </g>
     <g id="text_9">
      <!-- 8.A.25.1.3 -->
      <g transform="translate(85.809375 143.527867) scale(0.1 -0.1)">
       <defs>
        <path id="DejaVuSans-33" d="M 2597 2516 
Q 3050 2419 3304 2112 
Q 3559 1806 3559 1356 
Q 3559 666 3084 287 
Q 2609 -91 1734 -91 
Q 1441 -91 1130 -33 
Q 819 25 488 141 
L 488 750 
Q 750 597 1062 519 
Q 1375 441 1716 441 
Q 2309 441 2620 675 
Q 2931 909 2931 1356 
Q 2931 1769 2642 2001 
Q 2353 2234 1838 2234 
L 1294 2234 
L 1294 2753 
L 1863 2753 
Q 2328 2753 2575 2939 
Q 2822 3125 2822 3475 
Q 2822 3834 2567 4026 
Q 2313 4219 1838 4219 
Q 1578 4219 1281 4162 
Q 984 4106 628 3988 
L 628 4550 
Q 988 4650 1302 4700 
Q 1616 4750 1894 4750 
Q 2613 4750 3031 4423 
Q 3450 4097 3450 3541 
Q 3450 3153 3228 2886 
Q 3006 2619 2597 2516 
z
" transform="scale(0.015625)"/>
       </defs>
       <use xlink:href="#DejaVuSans-38"/>
       <use xlink:href="#DejaVuSans-2e" x="63.623047"/>
       <use xlink:href="#DejaVuSans-41" x="95.410156"/>
       <use xlink:href="#DejaVuSans-2e" x="162.068359"/>
       <use xlink:href="#DejaVuSans-32" x="193.855469"/>
       <use xlink:href="#DejaVuSans-35" x="257.478516"/>
       <use xlink:href="#DejaVuSans-2e" x="321.101562"/>
       <use xlink:href="#DejaVuSans-31" x="352.888672"/>
       <use xlink:href="#DejaVuSans-2e" x="416.511719"/>
       <use xlink:href="#DejaVuSans-33" x="448.298828"/>
      </g>
     </g>
    </g>
    <g id="ytick_4">
     <g id="line2d_9">
      <g>
       <use xlink:href="#m3626c80928" x="144" y="119.296216" style="stroke: #000000; stroke-width: 0.8"/>
      </g>
     </g>
     <g id="text_10">
      <!-- 8.A.25.1.4 -->
      <g transform="translate(85.809375 123.095435) scale(0.1 -0.1)">
       <defs>
        <path id="DejaVuSans-34" d="M 2419 4116 
L 825 1625 
L 2419 1625 
L 2419 4116 
z
M 2253 4666 
L 3047 4666 
L 3047 1625 
L 3713 1625 
L 3713 1100 
L 3047 1100 
L 3047 0 
L 2419 0 
L 2419 1100 
L 313 1100 
L 313 1709 
L 2253 4666 
z
" transform="scale(0.015625)"/>
       </defs>
       <use xlink:href="#DejaVuSans-38"/>
       <use xlink:href="#DejaVuSans-2e" x="63.623047"/>
       <use xlink:href="#DejaVuSans-41" x="95.410156"/>
       <use xlink:href="#DejaVuSans-2e" x="162.068359"/>
       <use xlink:href="#DejaVuSans-32" x="193.855469"/>
       <use xlink:href="#DejaVuSans-35" x="257.478516"/>
       <use xlink:href="#DejaVuSans-2e" x="321.101562"/>
       <use xlink:href="#DejaVuSans-31" x="352.888672"/>
       <use xlink:href="#DejaVuSans-2e" x="416.511719"/>
       <use xlink:href="#DejaVuSans-34" x="448.298828"/>
      </g>
     </g>
    </g>
    <g id="ytick_5">
     <g id="line2d_10">
      <g>
       <use xlink:href="#m3626c80928" x="144" y="98.863784" style="stroke: #000000; stroke-width: 0.8"/>
      </g>
     </g>
     <g id="text_11">
      <!-- 8.A.25.1.5 -->
      <g transform="translate(85.809375 102.663003) scale(0.1 -0.1)">
       <use xlink:href="#DejaVuSans-38"/>
       <use xlink:href="#DejaVuSans-2e" x="63.623047"/>
       <use xlink:href="#DejaVuSans-41" x="95.410156"/>
       <use xlink:href="#DejaVuSans-2e" x="162.068359"/>
       <use xlink:href="#DejaVuSans-32" x="193.855469"/>
       <use xlink:href="#DejaVuSans-35" x="257.478516"/>
       <use xlink:href="#DejaVuSans-2e" x="321.101562"/>
       <use xlink:href="#DejaVuSans-31" x="352.888672"/>
       <use xlink:href="#DejaVuSans-2e" x="416.511719"/>
       <use xlink:href="#DejaVuSans-35" x="448.298828"/>
      </g>
     </g>
    </g>
    <g id="ytick_6">
     <g id="line2d_11">
      <g>
       <use xlink:href="#m3626c80928" x="144" y="78.431351" style="stroke: #000000; stroke-width: 0.8"/>
      </g>
     </g>
     <g id="text_12">
      <!-- 8.A.25.1.6 -->
      <g transform="translate(85.809375 82.23057) scale(0.1 -0.1)">
       <defs>
        <path id="DejaVuSans-36" d="M 2113 2584 
Q 1688 2584 1439 2293 
Q 1191 2003 1191 1497 
Q 1191 994 1439 701 
Q 1688 409 2113 409 
Q 2538 409 2786 701 
Q 3034 994 3034 1497 
Q 3034 2003 2786 2293 
Q 2538 2584 2113 2584 
z
M 3366 4563 
L 3366 3988 
Q 3128 4100 2886 4159 
Q 2644 4219 2406 4219 
Q 1781 4219 1451 3797 
Q 1122 3375 1075 2522 
Q 1259 2794 1537 2939 
Q 1816 3084 2150 3084 
Q 2853 3084 3261 2657 
Q 3669 2231 3669 1497 
Q 3669 778 3244 343 
Q 2819 -91 2113 -91 
Q 1303 -91 875 529 
Q 447 1150 447 2328 
Q 447 3434 972 4092 
Q 1497 4750 2381 4750 
Q 2619 4750 2861 4703 
Q 3103 4656 3366 4563 
z
" transform="scale(0.015625)"/>
       </defs>
       <use xlink:href="#DejaVuSans-38"/>
       <use xlink:href="#DejaVuSans-2e" x="63.623047"/>
       <use xlink:href="#DejaVuSans-41" x="95.410156"/>
       <use xlink:href="#DejaVuSans-2e" x="162.068359"/>
       <use xlink:href="#DejaVuSans-32" x="193.855469"/>
       <use xlink:href="#DejaVuSans-35" x="257.478516"/>
       <use xlink:href="#DejaVuSans-2e" x="321.101562"/>
       <use xlink:href="#DejaVuSans-31" x="352.888672"/>
       <use xlink:href="#DejaVuSans-2e" x="416.511719"/>
       <use xlink:href="#DejaVuSans-36" x="448.298828"/>
      </g>
     </g>
    </g>
    <g id="ytick_7">
     <g id="line2d_12">
      <g>
       <use xlink:href="#m3626c80928" x="144" y="57.998919" style="stroke: #000000; stroke-width: 0.8"/>
      </g>
     </g>
     <g id="text_13">
      <!-- 8.A.25.1.7 -->
      <g transform="translate(85.809375 61.798138) scale(0.1 -0.1)">
       <defs>
        <path id="DejaVuSans-37" d="M 525 4666 
L 3525 4666 
L 3525 4397 
L 1831 0 
L 1172 0 
L 2766 4134 
L 525 4134 
L 525 4666 
z
" transform="scale(0.015625)"/>
       </defs>
       <use xlink:href="#DejaVuSans-38"/>
       <use xlink:href="#DejaVuSans-2e" x="63.623047"/>
       <use xlink:href="#DejaVuSans-41" x="95.410156"/>
       <use xlink:href="#DejaVuSans-2e" x="162.068359"/>
       <use xlink:href="#DejaVuSans-32" x="193.855469"/>
       <use xlink:href="#DejaVuSans-35" x="257.478516"/>
       <use xlink:href="#DejaVuSans-2e" x="321.101562"/>
       <use xlink:href="#DejaVuSans-31" x="352.888672"/>
       <use xlink:href="#DejaVuSans-2e" x="416.511719"/>
       <use xlink:href="#DejaVuSans-37" x="448.298828"/>
      </g>
     </g>
    </g>
    <g id="ytick_8">
     <g id="line2d_13">
      <g>
       <use xlink:href="#m3626c80928" x="144" y="37.566486" style="stroke: #000000; stroke-width: 0.8"/>
      </g>
     </g>
     <g id="text_14">
      <!-- 8.A.25.1.8 -->
      <g transform="translate(85.809375 41.365705) scale(0.1 -0.1)">
       <use xlink:href="#DejaVuSans-38"/>
       <use xlink:href="#DejaVuSans-2e" x="63.623047"/>
       <use xlink:href="#DejaVuSans-41" x="95.410156"/>
       <use xlink:href="#DejaVuSans-2e" x="162.068359"/>
       <use xlink:href="#DejaVuSans-32" x="193.855469"/>
       <use xlink:href="#DejaVuSans-35" x="257.478516"/>
       <use xlink:href="#DejaVuSans-2e" x="321.101562"/>
       <use xlink:href="#DejaVuSans-31" x="352.888672"/>
       <use xlink:href="#DejaVuSans-2e" x="416.511719"/>
       <use xlink:href="#DejaVuSans-38" x="448.298828"/>
      </g>
     </g>
    </g>
   </g>
   <g id="patch_388">
    <path d="M 144 192.24 
L 144 25.92 
" style="fill: none; stroke: #000000; stroke-width: 0.8; stroke-linejoin: miter; stroke-linecap: square"/>
   </g>
   <g id="patch_389">
    <path d="M 1036.8 192.24 
L 1036.8 25.92 
" style="fill: none; stroke: #000000; stroke-width: 0.8; stroke-linejoin: miter; stroke-linecap: square"/>
   </g>
   <g id="patch_390">
    <path d="M 144 192.24 
L 1036.8 192.24 
" style="fill: none; stroke: #000000; stroke-width: 0.8; stroke-linejoin: miter; stroke-linecap: square"/>
   </g>
   <g id="patch_391">
    <path d="M 144 25.92 
L 1036.8 25.92 
" style="fill: none; stroke: #000000; stroke-width: 0.8; stroke-linejoin: miter; stroke-linecap: square"/>
   </g>
   <g id="text_15">
    <!-- 8.A.25 Summary -->
    <g transform="translate(540.2325 19.92) scale(0.12 -0.12)">
     <defs>
      <path id="DejaVuSans-20" transform="scale(0.015625)"/>
      <path id="DejaVuSans-53" d="M 3425 4513 
L 3425 3897 
Q 3066 4069 2747 4153 
Q 2428 4238 2131 4238 
Q 1616 4238 1336 4038 
Q 1056 3838 1056 3469 
Q 1056 3159 1242 3001 
Q 1428 2844 1947 2747 
L 2328 2669 
Q 3034 2534 3370 2195 
Q 3706 1856 3706 1288 
Q 3706 609 3251 259 
Q 2797 -91 1919 -91 
Q 1588 -91 1214 -16 
Q 841 59 441 206 
L 441 856 
Q 825 641 1194 531 
Q 1563 422 1919 422 
Q 2459 422 2753 634 
Q 3047 847 3047 1241 
Q 3047 1584 2836 1778 
Q 2625 1972 2144 2069 
L 1759 2144 
Q 1053 2284 737 2584 
Q 422 2884 422 3419 
Q 422 4038 858 4394 
Q 1294 4750 2059 4750 
Q 2388 4750 2728 4690 
Q 3069 4631 3425 4513 
z
" transform="scale(0.015625)"/>
      <path id="DejaVuSans-6d" d="M 3328 2828 
Q 3544 3216 3844 3400 
Q 4144 3584 4550 3584 
Q 5097 3584 5394 3201 
Q 5691 2819 5691 2113 
L 5691 0 
L 5113 0 
L 5113 2094 
Q 5113 2597 4934 2840 
Q 4756 3084 4391 3084 
Q 3944 3084 3684 2787 
Q 3425 2491 3425 1978 
L 3425 0 
L 2847 0 
L 2847 2094 
Q 2847 2600 2669 2842 
Q 2491 3084 2119 3084 
Q 1678 3084 1418 2786 
Q 1159 2488 1159 1978 
L 1159 0 
L 581 0 
L 581 3500 
L 1159 3500 
L 1159 2956 
Q 1356 3278 1631 3431 
Q 1906 3584 2284 3584 
Q 2666 3584 2933 3390 
Q 3200 3197 3328 2828 
z
" transform="scale(0.015625)"/>
      <path id="DejaVuSans-72" d="M 2631 2963 
Q 2534 3019 2420 3045 
Q 2306 3072 2169 3072 
Q 1681 3072 1420 2755 
Q 1159 2438 1159 1844 
L 1159 0 
L 581 0 
L 581 3500 
L 1159 3500 
L 1159 2956 
Q 1341 3275 1631 3429 
Q 1922 3584 2338 3584 
Q 2397 3584 2469 3576 
Q 2541 3569 2628 3553 
L 2631 2963 
z
" transform="scale(0.015625)"/>
      <path id="DejaVuSans-79" d="M 2059 -325 
Q 1816 -950 1584 -1140 
Q 1353 -1331 966 -1331 
L 506 -1331 
L 506 -850 
L 844 -850 
Q 1081 -850 1212 -737 
Q 1344 -625 1503 -206 
L 1606 56 
L 191 3500 
L 800 3500 
L 1894 763 
L 2988 3500 
L 3597 3500 
L 2059 -325 
z
" transform="scale(0.015625)"/>
     </defs>
     <use xlink:href="#DejaVuSans-38"/>
     <use xlink:href="#DejaVuSans-2e" x="63.623047"/>
     <use xlink:href="#DejaVuSans-41" x="95.410156"/>
     <use xlink:href="#DejaVuSans-2e" x="162.068359"/>
     <use xlink:href="#DejaVuSans-32" x="193.855469"/>
     <use xlink:href="#DejaVuSans-35" x="257.478516"/>
     <use xlink:href="#DejaVuSans-20" x="321.101562"/>
     <use xlink:href="#DejaVuSans-53" x="352.888672"/>
     <use xlink:href="#DejaVuSans-75" x="416.365234"/>
     <use xlink:href="#DejaVuSans-6d" x="479.744141"/>
     <use xlink:href="#DejaVuSans-6d" x="577.15625"/>
     <use xlink:href="#DejaVuSans-61" x="674.568359"/>
     <use xlink:href="#DejaVuSans-72" x="735.847656"/>
     <use xlink:href="#DejaVuSans-79" x="776.960938"/>
    </g>
   </g>
  </g>
 </g>
 <defs>
  <clipPath id="p98cfbad29b">
   <rect x="144" y="25.92" width="892.8" height="166.32"/>
  </clipPath>
 </defs>
</svg>
