<?xml version="1.0" encoding="utf-8" standalone="no"?>
<!DOCTYPE svg PUBLIC "-//W3C//DTD SVG 1.1//EN"
  "http://www.w3.org/Graphics/SVG/1.1/DTD/svg11.dtd">
<svg xmlns:xlink="http://www.w3.org/1999/xlink" width="1152pt" height="126pt" viewBox="0 0 1152 126" xmlns="http://www.w3.org/2000/svg" version="1.1">
 <metadata>
  <rdf:RDF xmlns:dc="http://purl.org/dc/elements/1.1/" xmlns:cc="http://creativecommons.org/ns#" xmlns:rdf="http://www.w3.org/1999/02/22-rdf-syntax-ns#">
   <cc:Work>
    <dc:type rdf:resource="http://purl.org/dc/dcmitype/StillImage"/>
    <dc:date>2024-10-24T21:16:58.455781</dc:date>
    <dc:format>image/svg+xml</dc:format>
    <dc:creator>
     <cc:Agent>
      <dc:title>Matplotlib v3.8.4, https://matplotlib.org/</dc:title>
     </cc:Agent>
    </dc:creator>
   </cc:Work>
  </rdf:RDF>
 </metadata>
 <defs>
  <style type="text/css">*{stroke-linejoin: round; stroke-linecap: butt}</style>
 </defs>
 <g id="figure_1">
  <g id="patch_1">
   <path d="M 0 126 
L 1152 126 
L 1152 0 
L 0 0 
z
" style="fill: #ffffff"/>
  </g>
  <g id="axes_1">
   <g id="patch_2">
    <path d="M 144 112.14 
L 1036.8 112.14 
L 1036.8 15.12 
L 144 15.12 
z
" style="fill: #ffffff"/>
   </g>
   <g id="patch_3">
    <path d="M 144 104.021591 
L 155.518142 104.021591 
L 155.518142 103.420227 
L 144 103.420227 
z
" clip-path="url(#p04faa996bc)" style="fill: #0000ff"/>
   </g>
   <g id="patch_4">
    <path d="M 155.929504 107.73 
L 221.74746 107.73 
L 221.74746 99.711818 
L 155.929504 99.711818 
z
" clip-path="url(#p04faa996bc)" style="fill: #0000ff"/>
   </g>
   <g id="patch_5">
    <path d="M 165.390836 107.73 
L 222.158822 107.73 
L 222.158822 99.711818 
L 165.390836 99.711818 
z
" clip-path="url(#p04faa996bc)" style="fill: #0000ff"/>
   </g>
   <g id="patch_6">
    <path d="M 167.447647 107.73 
L 221.74746 107.73 
L 221.74746 99.711818 
L 167.447647 99.711818 
z
" clip-path="url(#p04faa996bc)" style="fill: #0000ff"/>
   </g>
   <g id="patch_7">
    <path d="M 167.859009 107.73 
L 223.804271 107.73 
L 223.804271 99.711818 
L 167.859009 99.711818 
z
" clip-path="url(#p04faa996bc)" style="fill: #0000ff"/>
   </g>
   <g id="patch_8">
    <path d="M 224.215633 104.021591 
L 260.004147 104.021591 
L 260.004147 103.420227 
L 224.215633 103.420227 
z
" clip-path="url(#p04faa996bc)" style="fill: #0000ff"/>
   </g>
   <g id="patch_9">
    <path d="M 260.415509 107.73 
L 325.822102 107.73 
L 325.822102 99.711818 
L 260.415509 99.711818 
z
" clip-path="url(#p04faa996bc)" style="fill: #0000ff"/>
   </g>
   <g id="patch_10">
    <path d="M 269.87684 107.73 
L 327.056189 107.73 
L 327.056189 99.711818 
L 269.87684 99.711818 
z
" clip-path="url(#p04faa996bc)" style="fill: #0000ff"/>
   </g>
   <g id="patch_11">
    <path d="M 271.933651 107.73 
L 326.644827 107.73 
L 326.644827 99.711818 
L 271.933651 99.711818 
z
" clip-path="url(#p04faa996bc)" style="fill: #0000ff"/>
   </g>
   <g id="patch_12">
    <path d="M 271.933651 107.73 
L 325.822102 107.73 
L 325.822102 99.711818 
L 271.933651 99.711818 
z
" clip-path="url(#p04faa996bc)" style="fill: #0000ff"/>
   </g>
   <g id="patch_13">
    <path d="M 327.467551 104.021591 
L 341.042505 104.021591 
L 341.042505 103.420227 
L 327.467551 103.420227 
z
" clip-path="url(#p04faa996bc)" style="fill: #0000ff"/>
   </g>
   <g id="patch_14">
    <path d="M 341.453867 107.73 
L 410.974083 107.73 
L 410.974083 99.711818 
L 341.453867 99.711818 
z
" clip-path="url(#p04faa996bc)" style="fill: #0000ff"/>
   </g>
   <g id="patch_15">
    <path d="M 350.503836 107.73 
L 411.796807 107.73 
L 411.796807 99.711818 
L 350.503836 99.711818 
z
" clip-path="url(#p04faa996bc)" style="fill: #0000ff"/>
   </g>
   <g id="patch_16">
    <path d="M 352.560647 107.73 
L 413.030894 107.73 
L 413.030894 99.711818 
L 352.560647 99.711818 
z
" clip-path="url(#p04faa996bc)" style="fill: #0000ff"/>
   </g>
   <g id="patch_17">
    <path d="M 352.560647 107.73 
L 411.796807 107.73 
L 411.796807 99.711818 
L 352.560647 99.711818 
z
" clip-path="url(#p04faa996bc)" style="fill: #0000ff"/>
   </g>
   <g id="patch_18">
    <path d="M 413.442256 104.021591 
L 422.492225 104.021591 
L 422.492225 103.420227 
L 413.442256 103.420227 
z
" clip-path="url(#p04faa996bc)" style="fill: #0000ff"/>
   </g>
   <g id="patch_19">
    <path d="M 422.903587 107.73 
L 436.889903 107.73 
L 436.889903 99.711818 
L 422.903587 99.711818 
z
" clip-path="url(#p04faa996bc)" style="fill: #0000ff"/>
   </g>
   <g id="patch_20">
    <path d="M 423.314949 107.73 
L 436.889903 107.73 
L 436.889903 99.711818 
L 423.314949 99.711818 
z
" clip-path="url(#p04faa996bc)" style="fill: #0000ff"/>
   </g>
   <g id="patch_21">
    <path d="M 423.314949 107.73 
L 436.889903 107.73 
L 436.889903 99.711818 
L 423.314949 99.711818 
z
" clip-path="url(#p04faa996bc)" style="fill: #0000ff"/>
   </g>
   <g id="patch_22">
    <path d="M 423.314949 107.73 
L 434.421729 107.73 
L 434.421729 99.711818 
L 423.314949 99.711818 
z
" clip-path="url(#p04faa996bc)" style="fill: #0000ff"/>
   </g>
   <g id="patch_23">
    <path d="M 437.301265 104.021591 
L 438.535351 104.021591 
L 438.535351 103.420227 
L 437.301265 103.420227 
z
" clip-path="url(#p04faa996bc)" style="fill: #0000ff"/>
   </g>
   <g id="patch_24">
    <path d="M 438.946714 107.73 
L 503.530583 107.73 
L 503.530583 99.711818 
L 438.946714 99.711818 
z
" clip-path="url(#p04faa996bc)" style="fill: #0000ff"/>
   </g>
   <g id="patch_25">
    <path d="M 448.408045 107.73 
L 504.353307 107.73 
L 504.353307 99.711818 
L 448.408045 99.711818 
z
" clip-path="url(#p04faa996bc)" style="fill: #0000ff"/>
   </g>
   <g id="patch_26">
    <path d="M 450.464856 107.73 
L 505.176032 107.73 
L 505.176032 99.711818 
L 450.464856 99.711818 
z
" clip-path="url(#p04faa996bc)" style="fill: #0000ff"/>
   </g>
   <g id="patch_27">
    <path d="M 450.464856 107.73 
L 503.941945 107.73 
L 503.941945 99.711818 
L 450.464856 99.711818 
z
" clip-path="url(#p04faa996bc)" style="fill: #0000ff"/>
   </g>
   <g id="patch_28">
    <path d="M 505.587394 104.021591 
L 515.871449 104.021591 
L 515.871449 103.420227 
L 505.587394 103.420227 
z
" clip-path="url(#p04faa996bc)" style="fill: #0000ff"/>
   </g>
   <g id="patch_29">
    <path d="M 516.282812 107.73 
L 579.221232 107.73 
L 579.221232 99.711818 
L 516.282812 99.711818 
z
" clip-path="url(#p04faa996bc)" style="fill: #0000ff"/>
   </g>
   <g id="patch_30">
    <path d="M 525.33278 107.73 
L 580.043956 107.73 
L 580.043956 99.711818 
L 525.33278 99.711818 
z
" clip-path="url(#p04faa996bc)" style="fill: #0000ff"/>
   </g>
   <g id="patch_31">
    <path d="M 527.389592 107.73 
L 580.043956 107.73 
L 580.043956 99.711818 
L 527.389592 99.711818 
z
" clip-path="url(#p04faa996bc)" style="fill: #0000ff"/>
   </g>
   <g id="patch_32">
    <path d="M 527.389592 107.73 
L 580.043956 107.73 
L 580.043956 99.711818 
L 527.389592 99.711818 
z
" clip-path="url(#p04faa996bc)" style="fill: #0000ff"/>
   </g>
   <g id="patch_33">
    <path d="M 580.455318 104.021591 
L 605.959776 104.021591 
L 605.959776 103.420227 
L 580.455318 103.420227 
z
" clip-path="url(#p04faa996bc)" style="fill: #0000ff"/>
   </g>
   <g id="patch_34">
    <path d="M 606.371138 107.73 
L 667.252747 107.73 
L 667.252747 99.711818 
L 606.371138 99.711818 
z
" clip-path="url(#p04faa996bc)" style="fill: #0000ff"/>
   </g>
   <g id="patch_35">
    <path d="M 617.066556 107.73 
L 667.664109 107.73 
L 667.664109 99.711818 
L 617.066556 99.711818 
z
" clip-path="url(#p04faa996bc)" style="fill: #0000ff"/>
   </g>
   <g id="patch_36">
    <path d="M 619.123367 107.73 
L 649.152809 107.73 
L 649.152809 99.711818 
L 619.123367 99.711818 
z
" clip-path="url(#p04faa996bc)" style="fill: #0000ff"/>
   </g>
   <g id="patch_37">
    <path d="M 619.123367 107.73 
L 667.664109 107.73 
L 667.664109 99.711818 
L 619.123367 99.711818 
z
" clip-path="url(#p04faa996bc)" style="fill: #0000ff"/>
   </g>
   <g id="patch_38">
    <path d="M 668.075472 104.021591 
L 728.134356 104.021591 
L 728.134356 103.420227 
L 668.075472 103.420227 
z
" clip-path="url(#p04faa996bc)" style="fill: #0000ff"/>
   </g>
   <g id="patch_39">
    <path d="M 728.545718 107.73 
L 735.950238 107.73 
L 735.950238 99.711818 
L 728.545718 99.711818 
z
" clip-path="url(#p04faa996bc)" style="fill: #0000ff"/>
   </g>
   <g id="patch_40">
    <path d="M 736.361601 104.021591 
L 751.170641 104.021591 
L 751.170641 103.420227 
L 736.361601 103.420227 
z
" clip-path="url(#p04faa996bc)" style="fill: #0000ff"/>
   </g>
   <g id="patch_41">
    <path d="M 144 83.976136 
L 161.277213 83.976136 
L 161.277213 83.374773 
L 144 83.374773 
z
" clip-path="url(#p04faa996bc)" style="fill: #0000ff"/>
   </g>
   <g id="patch_42">
    <path d="M 161.688576 87.684545 
L 203.647522 87.684545 
L 203.647522 79.666364 
L 161.688576 79.666364 
z
" clip-path="url(#p04faa996bc)" style="fill: #0000ff"/>
   </g>
   <g id="patch_43">
    <path d="M 204.058885 83.976136 
L 213.931578 83.976136 
L 213.931578 83.374773 
L 204.058885 83.374773 
z
" clip-path="url(#p04faa996bc)" style="fill: #0000ff"/>
   </g>
   <g id="patch_44">
    <path d="M 214.34294 87.684545 
L 237.379225 87.684545 
L 237.379225 79.666364 
L 214.34294 79.666364 
z
" clip-path="url(#p04faa996bc)" style="fill: #0000ff"/>
   </g>
   <g id="patch_45">
    <path d="M 224.215633 87.684545 
L 243.138296 87.684545 
L 243.138296 79.666364 
L 224.215633 79.666364 
z
" clip-path="url(#p04faa996bc)" style="fill: #0000ff"/>
   </g>
   <g id="patch_46">
    <path d="M 225.038358 87.684545 
L 243.138296 87.684545 
L 243.138296 79.666364 
L 225.038358 79.666364 
z
" clip-path="url(#p04faa996bc)" style="fill: #0000ff"/>
   </g>
   <g id="patch_47">
    <path d="M 226.272445 87.684545 
L 243.138296 87.684545 
L 243.138296 79.666364 
L 226.272445 79.666364 
z
" clip-path="url(#p04faa996bc)" style="fill: #0000ff"/>
   </g>
   <g id="patch_48">
    <path d="M 226.683807 87.684545 
L 243.138296 87.684545 
L 243.138296 79.666364 
L 226.683807 79.666364 
z
" clip-path="url(#p04faa996bc)" style="fill: #0000ff"/>
   </g>
   <g id="patch_49">
    <path d="M 226.683807 87.684545 
L 243.138296 87.684545 
L 243.138296 79.666364 
L 226.683807 79.666364 
z
" clip-path="url(#p04faa996bc)" style="fill: #0000ff"/>
   </g>
   <g id="patch_50">
    <path d="M 243.549658 83.976136 
L 255.0678 83.976136 
L 255.0678 83.374773 
L 243.549658 83.374773 
z
" clip-path="url(#p04faa996bc)" style="fill: #0000ff"/>
   </g>
   <g id="patch_51">
    <path d="M 255.479162 87.684545 
L 273.990462 87.684545 
L 273.990462 79.666364 
L 255.479162 79.666364 
z
" clip-path="url(#p04faa996bc)" style="fill: #0000ff"/>
   </g>
   <g id="patch_52">
    <path d="M 260.415509 87.684545 
L 273.990462 87.684545 
L 273.990462 79.666364 
L 260.415509 79.666364 
z
" clip-path="url(#p04faa996bc)" style="fill: #0000ff"/>
   </g>
   <g id="patch_53">
    <path d="M 274.401825 83.976136 
L 285.508605 83.976136 
L 285.508605 83.374773 
L 274.401825 83.374773 
z
" clip-path="url(#p04faa996bc)" style="fill: #0000ff"/>
   </g>
   <g id="patch_54">
    <path d="M 285.919967 87.684545 
L 303.608542 87.684545 
L 303.608542 79.666364 
L 285.919967 79.666364 
z
" clip-path="url(#p04faa996bc)" style="fill: #0000ff"/>
   </g>
   <g id="patch_55">
    <path d="M 287.154053 87.684545 
L 303.608542 87.684545 
L 303.608542 79.666364 
L 287.154053 79.666364 
z
" clip-path="url(#p04faa996bc)" style="fill: #0000ff"/>
   </g>
   <g id="patch_56">
    <path d="M 287.154053 87.684545 
L 303.608542 87.684545 
L 303.608542 79.666364 
L 287.154053 79.666364 
z
" clip-path="url(#p04faa996bc)" style="fill: #0000ff"/>
   </g>
   <g id="patch_57">
    <path d="M 287.154053 87.684545 
L 303.608542 87.684545 
L 303.608542 79.666364 
L 287.154053 79.666364 
z
" clip-path="url(#p04faa996bc)" style="fill: #0000ff"/>
   </g>
   <g id="patch_58">
    <path d="M 304.019905 83.976136 
L 314.30396 83.976136 
L 314.30396 83.374773 
L 304.019905 83.374773 
z
" clip-path="url(#p04faa996bc)" style="fill: #0000ff"/>
   </g>
   <g id="patch_59">
    <path d="M 314.715322 87.684545 
L 333.226622 87.684545 
L 333.226622 79.666364 
L 314.715322 79.666364 
z
" clip-path="url(#p04faa996bc)" style="fill: #0000ff"/>
   </g>
   <g id="patch_60">
    <path d="M 316.772134 87.684545 
L 333.226622 87.684545 
L 333.226622 79.666364 
L 316.772134 79.666364 
z
" clip-path="url(#p04faa996bc)" style="fill: #0000ff"/>
   </g>
   <g id="patch_61">
    <path d="M 333.637985 83.976136 
L 335.283434 83.976136 
L 335.283434 83.374773 
L 333.637985 83.374773 
z
" clip-path="url(#p04faa996bc)" style="fill: #0000ff"/>
   </g>
   <g id="patch_62">
    <path d="M 335.694796 87.684545 
L 358.319718 87.684545 
L 358.319718 79.666364 
L 335.694796 79.666364 
z
" clip-path="url(#p04faa996bc)" style="fill: #0000ff"/>
   </g>
   <g id="patch_63">
    <path d="M 344.744765 87.684545 
L 363.256065 87.684545 
L 363.256065 79.666364 
L 344.744765 79.666364 
z
" clip-path="url(#p04faa996bc)" style="fill: #0000ff"/>
   </g>
   <g id="patch_64">
    <path d="M 344.744765 87.684545 
L 363.256065 87.684545 
L 363.256065 79.666364 
L 344.744765 79.666364 
z
" clip-path="url(#p04faa996bc)" style="fill: #0000ff"/>
   </g>
   <g id="patch_65">
    <path d="M 345.567489 87.684545 
L 363.256065 87.684545 
L 363.256065 79.666364 
L 345.567489 79.666364 
z
" clip-path="url(#p04faa996bc)" style="fill: #0000ff"/>
   </g>
   <g id="patch_66">
    <path d="M 346.390214 87.684545 
L 363.256065 87.684545 
L 363.256065 79.666364 
L 346.390214 79.666364 
z
" clip-path="url(#p04faa996bc)" style="fill: #0000ff"/>
   </g>
   <g id="patch_67">
    <path d="M 346.801576 87.684545 
L 363.256065 87.684545 
L 363.256065 79.666364 
L 346.801576 79.666364 
z
" clip-path="url(#p04faa996bc)" style="fill: #0000ff"/>
   </g>
   <g id="patch_68">
    <path d="M 363.667427 83.976136 
L 370.249222 83.976136 
L 370.249222 83.374773 
L 363.667427 83.374773 
z
" clip-path="url(#p04faa996bc)" style="fill: #0000ff"/>
   </g>
   <g id="patch_69">
    <path d="M 370.660585 87.684545 
L 387.937798 87.684545 
L 387.937798 79.666364 
L 370.660585 79.666364 
z
" clip-path="url(#p04faa996bc)" style="fill: #0000ff"/>
   </g>
   <g id="patch_70">
    <path d="M 371.483309 87.684545 
L 389.994609 87.684545 
L 389.994609 79.666364 
L 371.483309 79.666364 
z
" clip-path="url(#p04faa996bc)" style="fill: #0000ff"/>
   </g>
   <g id="patch_71">
    <path d="M 371.894671 87.684545 
L 389.994609 87.684545 
L 389.994609 79.666364 
L 371.894671 79.666364 
z
" clip-path="url(#p04faa996bc)" style="fill: #0000ff"/>
   </g>
   <g id="patch_72">
    <path d="M 373.54012 87.684545 
L 389.994609 87.684545 
L 389.994609 79.666364 
L 373.54012 79.666364 
z
" clip-path="url(#p04faa996bc)" style="fill: #0000ff"/>
   </g>
   <g id="patch_73">
    <path d="M 373.54012 87.684545 
L 389.994609 87.684545 
L 389.994609 79.666364 
L 373.54012 79.666364 
z
" clip-path="url(#p04faa996bc)" style="fill: #0000ff"/>
   </g>
   <g id="patch_74">
    <path d="M 390.405971 83.976136 
L 397.399129 83.976136 
L 397.399129 83.374773 
L 390.405971 83.374773 
z
" clip-path="url(#p04faa996bc)" style="fill: #0000ff"/>
   </g>
   <g id="patch_75">
    <path d="M 397.810491 87.684545 
L 416.733154 87.684545 
L 416.733154 79.666364 
L 397.810491 79.666364 
z
" clip-path="url(#p04faa996bc)" style="fill: #0000ff"/>
   </g>
   <g id="patch_76">
    <path d="M 398.221854 87.684545 
L 416.733154 87.684545 
L 416.733154 79.666364 
L 398.221854 79.666364 
z
" clip-path="url(#p04faa996bc)" style="fill: #0000ff"/>
   </g>
   <g id="patch_77">
    <path d="M 398.633216 87.684545 
L 416.733154 87.684545 
L 416.733154 79.666364 
L 398.633216 79.666364 
z
" clip-path="url(#p04faa996bc)" style="fill: #0000ff"/>
   </g>
   <g id="patch_78">
    <path d="M 417.144516 83.976136 
L 432.77628 83.976136 
L 432.77628 83.374773 
L 417.144516 83.374773 
z
" clip-path="url(#p04faa996bc)" style="fill: #0000ff"/>
   </g>
   <g id="patch_79">
    <path d="M 433.187643 87.684545 
L 452.110305 87.684545 
L 452.110305 79.666364 
L 433.187643 79.666364 
z
" clip-path="url(#p04faa996bc)" style="fill: #0000ff"/>
   </g>
   <g id="patch_80">
    <path d="M 433.599005 87.684545 
L 448.819407 87.684545 
L 448.819407 79.666364 
L 433.599005 79.666364 
z
" clip-path="url(#p04faa996bc)" style="fill: #0000ff"/>
   </g>
   <g id="patch_81">
    <path d="M 437.712627 87.684545 
L 452.110305 87.684545 
L 452.110305 79.666364 
L 437.712627 79.666364 
z
" clip-path="url(#p04faa996bc)" style="fill: #0000ff"/>
   </g>
   <g id="patch_82">
    <path d="M 452.521667 83.976136 
L 468.976156 83.976136 
L 468.976156 83.374773 
L 452.521667 83.374773 
z
" clip-path="url(#p04faa996bc)" style="fill: #0000ff"/>
   </g>
   <g id="patch_83">
    <path d="M 469.387518 87.684545 
L 486.253369 87.684545 
L 486.253369 79.666364 
L 469.387518 79.666364 
z
" clip-path="url(#p04faa996bc)" style="fill: #0000ff"/>
   </g>
   <g id="patch_84">
    <path d="M 469.79888 87.684545 
L 487.076094 87.684545 
L 487.076094 79.666364 
L 469.79888 79.666364 
z
" clip-path="url(#p04faa996bc)" style="fill: #0000ff"/>
   </g>
   <g id="patch_85">
    <path d="M 469.79888 87.684545 
L 487.076094 87.684545 
L 487.076094 79.666364 
L 469.79888 79.666364 
z
" clip-path="url(#p04faa996bc)" style="fill: #0000ff"/>
   </g>
   <g id="patch_86">
    <path d="M 487.487456 83.976136 
L 491.189716 83.976136 
L 491.189716 83.374773 
L 487.487456 83.374773 
z
" clip-path="url(#p04faa996bc)" style="fill: #0000ff"/>
   </g>
   <g id="patch_87">
    <path d="M 491.601078 87.684545 
L 510.52374 87.684545 
L 510.52374 79.666364 
L 491.601078 79.666364 
z
" clip-path="url(#p04faa996bc)" style="fill: #0000ff"/>
   </g>
   <g id="patch_88">
    <path d="M 492.01244 87.684545 
L 506.82148 87.684545 
L 506.82148 79.666364 
L 492.01244 79.666364 
z
" clip-path="url(#p04faa996bc)" style="fill: #0000ff"/>
   </g>
   <g id="patch_89">
    <path d="M 492.01244 87.684545 
L 506.82148 87.684545 
L 506.82148 79.666364 
L 492.01244 79.666364 
z
" clip-path="url(#p04faa996bc)" style="fill: #0000ff"/>
   </g>
   <g id="patch_90">
    <path d="M 510.935103 83.976136 
L 513.814638 83.976136 
L 513.814638 83.374773 
L 510.935103 83.374773 
z
" clip-path="url(#p04faa996bc)" style="fill: #0000ff"/>
   </g>
   <g id="patch_91">
    <path d="M 514.226 87.684545 
L 536.43956 87.684545 
L 536.43956 79.666364 
L 514.226 79.666364 
z
" clip-path="url(#p04faa996bc)" style="fill: #0000ff"/>
   </g>
   <g id="patch_92">
    <path d="M 522.864607 87.684545 
L 542.198632 87.684545 
L 542.198632 79.666364 
L 522.864607 79.666364 
z
" clip-path="url(#p04faa996bc)" style="fill: #0000ff"/>
   </g>
   <g id="patch_93">
    <path d="M 523.275969 87.684545 
L 542.198632 87.684545 
L 542.198632 79.666364 
L 523.275969 79.666364 
z
" clip-path="url(#p04faa996bc)" style="fill: #0000ff"/>
   </g>
   <g id="patch_94">
    <path d="M 523.687332 87.684545 
L 542.198632 87.684545 
L 542.198632 79.666364 
L 523.687332 79.666364 
z
" clip-path="url(#p04faa996bc)" style="fill: #0000ff"/>
   </g>
   <g id="patch_95">
    <path d="M 524.921418 87.684545 
L 542.198632 87.684545 
L 542.198632 79.666364 
L 524.921418 79.666364 
z
" clip-path="url(#p04faa996bc)" style="fill: #0000ff"/>
   </g>
   <g id="patch_96">
    <path d="M 525.33278 87.684545 
L 542.198632 87.684545 
L 542.198632 79.666364 
L 525.33278 79.666364 
z
" clip-path="url(#p04faa996bc)" style="fill: #0000ff"/>
   </g>
   <g id="patch_97">
    <path d="M 542.609994 83.976136 
L 608.016587 83.976136 
L 608.016587 83.374773 
L 542.609994 83.374773 
z
" clip-path="url(#p04faa996bc)" style="fill: #0000ff"/>
   </g>
   <g id="patch_98">
    <path d="M 608.427949 87.684545 
L 659.436865 87.684545 
L 659.436865 79.666364 
L 608.427949 79.666364 
z
" clip-path="url(#p04faa996bc)" style="fill: #0000ff"/>
   </g>
   <g id="patch_99">
    <path d="M 615.832469 87.684545 
L 647.918723 87.684545 
L 647.918723 79.666364 
L 615.832469 79.666364 
z
" clip-path="url(#p04faa996bc)" style="fill: #0000ff"/>
   </g>
   <g id="patch_100">
    <path d="M 659.848227 83.976136 
L 709.623056 83.976136 
L 709.623056 83.374773 
L 659.848227 83.374773 
z
" clip-path="url(#p04faa996bc)" style="fill: #0000ff"/>
   </g>
   <g id="patch_101">
    <path d="M 710.034418 87.684545 
L 771.32739 87.684545 
L 771.32739 79.666364 
L 710.034418 79.666364 
z
" clip-path="url(#p04faa996bc)" style="fill: #0000ff"/>
   </g>
   <g id="patch_102">
    <path d="M 717.438938 87.684545 
L 772.150114 87.684545 
L 772.150114 79.666364 
L 717.438938 79.666364 
z
" clip-path="url(#p04faa996bc)" style="fill: #0000ff"/>
   </g>
   <g id="patch_103">
    <path d="M 719.49575 87.684545 
L 773.384201 87.684545 
L 773.384201 79.666364 
L 719.49575 79.666364 
z
" clip-path="url(#p04faa996bc)" style="fill: #0000ff"/>
   </g>
   <g id="patch_104">
    <path d="M 719.49575 87.684545 
L 772.150114 87.684545 
L 772.150114 79.666364 
L 719.49575 79.666364 
z
" clip-path="url(#p04faa996bc)" style="fill: #0000ff"/>
   </g>
   <g id="patch_105">
    <path d="M 773.795563 83.976136 
L 817.811321 83.976136 
L 817.811321 83.374773 
L 773.795563 83.374773 
z
" clip-path="url(#p04faa996bc)" style="fill: #0000ff"/>
   </g>
   <g id="patch_106">
    <path d="M 818.222683 87.684545 
L 882.806552 87.684545 
L 882.806552 79.666364 
L 818.222683 79.666364 
z
" clip-path="url(#p04faa996bc)" style="fill: #0000ff"/>
   </g>
   <g id="patch_107">
    <path d="M 828.095376 87.684545 
L 884.040639 87.684545 
L 884.040639 79.666364 
L 828.095376 79.666364 
z
" clip-path="url(#p04faa996bc)" style="fill: #0000ff"/>
   </g>
   <g id="patch_108">
    <path d="M 829.740825 87.684545 
L 885.274725 87.684545 
L 885.274725 79.666364 
L 829.740825 79.666364 
z
" clip-path="url(#p04faa996bc)" style="fill: #0000ff"/>
   </g>
   <g id="patch_109">
    <path d="M 829.740825 87.684545 
L 884.040639 87.684545 
L 884.040639 79.666364 
L 829.740825 79.666364 
z
" clip-path="url(#p04faa996bc)" style="fill: #0000ff"/>
   </g>
   <g id="patch_110">
    <path d="M 885.686087 83.976136 
L 893.913332 83.976136 
L 893.913332 83.374773 
L 885.686087 83.374773 
z
" clip-path="url(#p04faa996bc)" style="fill: #0000ff"/>
   </g>
   <g id="patch_111">
    <path d="M 894.324694 87.684545 
L 907.488285 87.684545 
L 907.488285 79.666364 
L 894.324694 79.666364 
z
" clip-path="url(#p04faa996bc)" style="fill: #0000ff"/>
   </g>
   <g id="patch_112">
    <path d="M 894.324694 87.684545 
L 907.488285 87.684545 
L 907.488285 79.666364 
L 894.324694 79.666364 
z
" clip-path="url(#p04faa996bc)" style="fill: #0000ff"/>
   </g>
   <g id="patch_113">
    <path d="M 907.899648 83.976136 
L 929.701845 83.976136 
L 929.701845 83.374773 
L 907.899648 83.374773 
z
" clip-path="url(#p04faa996bc)" style="fill: #0000ff"/>
   </g>
   <g id="patch_114">
    <path d="M 930.113208 87.684545 
L 984.824383 87.684545 
L 984.824383 79.666364 
L 930.113208 79.666364 
z
" clip-path="url(#p04faa996bc)" style="fill: #0000ff"/>
   </g>
   <g id="patch_115">
    <path d="M 931.347294 87.684545 
L 986.05847 87.684545 
L 986.05847 79.666364 
L 931.347294 79.666364 
z
" clip-path="url(#p04faa996bc)" style="fill: #0000ff"/>
   </g>
   <g id="patch_116">
    <path d="M 933.404105 87.684545 
L 986.05847 87.684545 
L 986.05847 79.666364 
L 933.404105 79.666364 
z
" clip-path="url(#p04faa996bc)" style="fill: #0000ff"/>
   </g>
   <g id="patch_117">
    <path d="M 933.815468 87.684545 
L 987.292557 87.684545 
L 987.292557 79.666364 
L 933.815468 79.666364 
z
" clip-path="url(#p04faa996bc)" style="fill: #0000ff"/>
   </g>
   <g id="patch_118">
    <path d="M 987.703919 83.976136 
L 994.285714 83.976136 
L 994.285714 83.374773 
L 987.703919 83.374773 
z
" clip-path="url(#p04faa996bc)" style="fill: #0000ff"/>
   </g>
   <g id="patch_119">
    <path d="M 144 63.930682 
L 183.902136 63.930682 
L 183.902136 63.329318 
L 144 63.329318 
z
" clip-path="url(#p04faa996bc)" style="fill: #0000ff"/>
   </g>
   <g id="patch_120">
    <path d="M 184.313498 67.639091 
L 202.413436 67.639091 
L 202.413436 59.620909 
L 184.313498 59.620909 
z
" clip-path="url(#p04faa996bc)" style="fill: #0000ff"/>
   </g>
   <g id="patch_121">
    <path d="M 184.313498 67.639091 
L 202.413436 67.639091 
L 202.413436 59.620909 
L 184.313498 59.620909 
z
" clip-path="url(#p04faa996bc)" style="fill: #0000ff"/>
   </g>
   <g id="patch_122">
    <path d="M 184.72486 67.639091 
L 202.413436 67.639091 
L 202.413436 59.620909 
L 184.72486 59.620909 
z
" clip-path="url(#p04faa996bc)" style="fill: #0000ff"/>
   </g>
   <g id="patch_123">
    <path d="M 185.958947 67.639091 
L 202.413436 67.639091 
L 202.413436 59.620909 
L 185.958947 59.620909 
z
" clip-path="url(#p04faa996bc)" style="fill: #0000ff"/>
   </g>
   <g id="patch_124">
    <path d="M 202.824798 63.930682 
L 220.924736 63.930682 
L 220.924736 63.329318 
L 202.824798 63.329318 
z
" clip-path="url(#p04faa996bc)" style="fill: #0000ff"/>
   </g>
   <g id="patch_125">
    <path d="M 221.336098 67.639091 
L 240.25876 67.639091 
L 240.25876 59.620909 
L 221.336098 59.620909 
z
" clip-path="url(#p04faa996bc)" style="fill: #0000ff"/>
   </g>
   <g id="patch_126">
    <path d="M 221.74746 67.639091 
L 240.25876 67.639091 
L 240.25876 59.620909 
L 221.74746 59.620909 
z
" clip-path="url(#p04faa996bc)" style="fill: #0000ff"/>
   </g>
   <g id="patch_127">
    <path d="M 225.038358 67.639091 
L 240.25876 67.639091 
L 240.25876 59.620909 
L 225.038358 59.620909 
z
" clip-path="url(#p04faa996bc)" style="fill: #0000ff"/>
   </g>
   <g id="patch_128">
    <path d="M 240.670122 63.930682 
L 256.301887 63.930682 
L 256.301887 63.329318 
L 240.670122 63.329318 
z
" clip-path="url(#p04faa996bc)" style="fill: #0000ff"/>
   </g>
   <g id="patch_129">
    <path d="M 256.713249 67.639091 
L 271.522289 67.639091 
L 271.522289 59.620909 
L 256.713249 59.620909 
z
" clip-path="url(#p04faa996bc)" style="fill: #0000ff"/>
   </g>
   <g id="patch_130">
    <path d="M 271.933651 63.930682 
L 299.906282 63.930682 
L 299.906282 63.329318 
L 271.933651 63.329318 
z
" clip-path="url(#p04faa996bc)" style="fill: #0000ff"/>
   </g>
   <g id="patch_131">
    <path d="M 144 47.593636 
L 265.763218 47.593636 
L 265.763218 39.575455 
L 144 39.575455 
z
" clip-path="url(#p04faa996bc)" style="fill: #0000ff"/>
   </g>
   <g id="patch_132">
    <path d="M 145.645449 47.593636 
L 270.699565 47.593636 
L 270.699565 39.575455 
L 145.645449 39.575455 
z
" clip-path="url(#p04faa996bc)" style="fill: #0000ff"/>
   </g>
   <g id="patch_133">
    <path d="M 153.049969 47.593636 
L 308.133527 47.593636 
L 308.133527 39.575455 
L 153.049969 39.575455 
z
" clip-path="url(#p04faa996bc)" style="fill: #0000ff"/>
   </g>
   <g id="patch_134">
    <path d="M 308.544889 43.885227 
L 320.885756 43.885227 
L 320.885756 43.283864 
L 308.544889 43.283864 
z
" clip-path="url(#p04faa996bc)" style="fill: #0000ff"/>
   </g>
   <g id="patch_135">
    <path d="M 321.297118 47.593636 
L 330.758449 47.593636 
L 330.758449 39.575455 
L 321.297118 39.575455 
z
" clip-path="url(#p04faa996bc)" style="fill: #0000ff"/>
   </g>
   <g id="patch_136">
    <path d="M 321.70848 47.593636 
L 354.206096 47.593636 
L 354.206096 39.575455 
L 321.70848 39.575455 
z
" clip-path="url(#p04faa996bc)" style="fill: #0000ff"/>
   </g>
   <g id="patch_137">
    <path d="M 321.70848 47.593636 
L 330.347087 47.593636 
L 330.347087 39.575455 
L 321.70848 39.575455 
z
" clip-path="url(#p04faa996bc)" style="fill: #0000ff"/>
   </g>
   <g id="patch_138">
    <path d="M 330.758449 47.593636 
L 352.972009 47.593636 
L 352.972009 39.575455 
L 330.758449 39.575455 
z
" clip-path="url(#p04faa996bc)" style="fill: #0000ff"/>
   </g>
   <g id="patch_139">
    <path d="M 331.169811 47.593636 
L 352.972009 47.593636 
L 352.972009 39.575455 
L 331.169811 39.575455 
z
" clip-path="url(#p04faa996bc)" style="fill: #0000ff"/>
   </g>
   <g id="patch_140">
    <path d="M 333.226622 47.593636 
L 352.972009 47.593636 
L 352.972009 39.575455 
L 333.226622 39.575455 
z
" clip-path="url(#p04faa996bc)" style="fill: #0000ff"/>
   </g>
   <g id="patch_141">
    <path d="M 333.637985 47.593636 
L 352.972009 47.593636 
L 352.972009 39.575455 
L 333.637985 39.575455 
z
" clip-path="url(#p04faa996bc)" style="fill: #0000ff"/>
   </g>
   <g id="patch_142">
    <path d="M 354.617458 47.593636 
L 410.56272 47.593636 
L 410.56272 39.575455 
L 354.617458 39.575455 
z
" clip-path="url(#p04faa996bc)" style="fill: #0000ff"/>
   </g>
   <g id="patch_143">
    <path d="M 355.440182 47.593636 
L 412.208169 47.593636 
L 412.208169 39.575455 
L 355.440182 39.575455 
z
" clip-path="url(#p04faa996bc)" style="fill: #0000ff"/>
   </g>
   <g id="patch_144">
    <path d="M 355.440182 47.593636 
L 413.030894 47.593636 
L 413.030894 39.575455 
L 355.440182 39.575455 
z
" clip-path="url(#p04faa996bc)" style="fill: #0000ff"/>
   </g>
   <g id="patch_145">
    <path d="M 355.440182 47.593636 
L 411.385445 47.593636 
L 411.385445 39.575455 
L 355.440182 39.575455 
z
" clip-path="url(#p04faa996bc)" style="fill: #0000ff"/>
   </g>
   <g id="patch_146">
    <path d="M 355.440182 47.593636 
L 413.030894 47.593636 
L 413.030894 39.575455 
L 355.440182 39.575455 
z
" clip-path="url(#p04faa996bc)" style="fill: #0000ff"/>
   </g>
   <g id="patch_147">
    <path d="M 355.440182 47.593636 
L 413.030894 47.593636 
L 413.030894 39.575455 
L 355.440182 39.575455 
z
" clip-path="url(#p04faa996bc)" style="fill: #0000ff"/>
   </g>
   <g id="patch_148">
    <path d="M 355.440182 47.593636 
L 411.385445 47.593636 
L 411.385445 39.575455 
L 355.440182 39.575455 
z
" clip-path="url(#p04faa996bc)" style="fill: #0000ff"/>
   </g>
   <g id="patch_149">
    <path d="M 387.115074 47.593636 
L 412.208169 47.593636 
L 412.208169 39.575455 
L 387.115074 39.575455 
z
" clip-path="url(#p04faa996bc)" style="fill: #0000ff"/>
   </g>
   <g id="patch_150">
    <path d="M 387.115074 47.593636 
L 411.385445 47.593636 
L 411.385445 39.575455 
L 387.115074 39.575455 
z
" clip-path="url(#p04faa996bc)" style="fill: #0000ff"/>
   </g>
   <g id="patch_151">
    <path d="M 387.115074 47.593636 
L 413.030894 47.593636 
L 413.030894 39.575455 
L 387.115074 39.575455 
z
" clip-path="url(#p04faa996bc)" style="fill: #0000ff"/>
   </g>
   <g id="patch_152">
    <path d="M 387.115074 47.593636 
L 412.208169 47.593636 
L 412.208169 39.575455 
L 387.115074 39.575455 
z
" clip-path="url(#p04faa996bc)" style="fill: #0000ff"/>
   </g>
   <g id="patch_153">
    <path d="M 387.937798 47.593636 
L 411.385445 47.593636 
L 411.385445 39.575455 
L 387.937798 39.575455 
z
" clip-path="url(#p04faa996bc)" style="fill: #0000ff"/>
   </g>
   <g id="patch_154">
    <path d="M 413.442256 43.885227 
L 416.733154 43.885227 
L 416.733154 43.283864 
L 413.442256 43.283864 
z
" clip-path="url(#p04faa996bc)" style="fill: #0000ff"/>
   </g>
   <g id="patch_155">
    <path d="M 144 23.839773 
L 172.383993 23.839773 
L 172.383993 23.238409 
L 144 23.238409 
z
" clip-path="url(#p04faa996bc)" style="fill: #0000ff"/>
   </g>
   <g id="patch_156">
    <path d="M 172.795356 27.548182 
L 182.256687 27.548182 
L 182.256687 19.53 
L 172.795356 19.53 
z
" clip-path="url(#p04faa996bc)" style="fill: #0000ff"/>
   </g>
   <g id="patch_157">
    <path d="M 172.795356 27.548182 
L 206.115696 27.548182 
L 206.115696 19.53 
L 172.795356 19.53 
z
" clip-path="url(#p04faa996bc)" style="fill: #0000ff"/>
   </g>
   <g id="patch_158">
    <path d="M 173.206718 27.548182 
L 181.845324 27.548182 
L 181.845324 19.53 
L 173.206718 19.53 
z
" clip-path="url(#p04faa996bc)" style="fill: #0000ff"/>
   </g>
   <g id="patch_159">
    <path d="M 183.079411 27.548182 
L 204.881609 27.548182 
L 204.881609 19.53 
L 183.079411 19.53 
z
" clip-path="url(#p04faa996bc)" style="fill: #0000ff"/>
   </g>
   <g id="patch_160">
    <path d="M 183.902136 27.548182 
L 204.881609 27.548182 
L 204.881609 19.53 
L 183.902136 19.53 
z
" clip-path="url(#p04faa996bc)" style="fill: #0000ff"/>
   </g>
   <g id="patch_161">
    <path d="M 185.136222 27.548182 
L 204.881609 27.548182 
L 204.881609 19.53 
L 185.136222 19.53 
z
" clip-path="url(#p04faa996bc)" style="fill: #0000ff"/>
   </g>
   <g id="patch_162">
    <path d="M 206.527058 27.548182 
L 261.649596 27.548182 
L 261.649596 19.53 
L 206.527058 19.53 
z
" clip-path="url(#p04faa996bc)" style="fill: #0000ff"/>
   </g>
   <g id="patch_163">
    <path d="M 207.349782 27.548182 
L 263.706407 27.548182 
L 263.706407 19.53 
L 207.349782 19.53 
z
" clip-path="url(#p04faa996bc)" style="fill: #0000ff"/>
   </g>
   <g id="patch_164">
    <path d="M 207.349782 27.548182 
L 264.529131 27.548182 
L 264.529131 19.53 
L 207.349782 19.53 
z
" clip-path="url(#p04faa996bc)" style="fill: #0000ff"/>
   </g>
   <g id="patch_165">
    <path d="M 207.349782 27.548182 
L 262.883682 27.548182 
L 262.883682 19.53 
L 207.349782 19.53 
z
" clip-path="url(#p04faa996bc)" style="fill: #0000ff"/>
   </g>
   <g id="patch_166">
    <path d="M 207.349782 27.548182 
L 264.529131 27.548182 
L 264.529131 19.53 
L 207.349782 19.53 
z
" clip-path="url(#p04faa996bc)" style="fill: #0000ff"/>
   </g>
   <g id="patch_167">
    <path d="M 207.349782 27.548182 
L 264.529131 27.548182 
L 264.529131 19.53 
L 207.349782 19.53 
z
" clip-path="url(#p04faa996bc)" style="fill: #0000ff"/>
   </g>
   <g id="patch_168">
    <path d="M 207.349782 27.548182 
L 264.529131 27.548182 
L 264.529131 19.53 
L 207.349782 19.53 
z
" clip-path="url(#p04faa996bc)" style="fill: #0000ff"/>
   </g>
   <g id="patch_169">
    <path d="M 238.613311 27.548182 
L 263.706407 27.548182 
L 263.706407 19.53 
L 238.613311 19.53 
z
" clip-path="url(#p04faa996bc)" style="fill: #0000ff"/>
   </g>
   <g id="patch_170">
    <path d="M 238.613311 27.548182 
L 262.883682 27.548182 
L 262.883682 19.53 
L 238.613311 19.53 
z
" clip-path="url(#p04faa996bc)" style="fill: #0000ff"/>
   </g>
   <g id="patch_171">
    <path d="M 238.613311 27.548182 
L 264.529131 27.548182 
L 264.529131 19.53 
L 238.613311 19.53 
z
" clip-path="url(#p04faa996bc)" style="fill: #0000ff"/>
   </g>
   <g id="patch_172">
    <path d="M 238.613311 27.548182 
L 264.529131 27.548182 
L 264.529131 19.53 
L 238.613311 19.53 
z
" clip-path="url(#p04faa996bc)" style="fill: #0000ff"/>
   </g>
   <g id="patch_173">
    <path d="M 264.940493 23.839773 
L 268.231391 23.839773 
L 268.231391 23.238409 
L 264.940493 23.238409 
z
" clip-path="url(#p04faa996bc)" style="fill: #0000ff"/>
   </g>
   <g id="matplotlib.axis_1">
    <g id="xtick_1">
     <g id="line2d_1">
      <defs>
       <path id="maa04d4564a" d="M 0 0 
L 0 3.5 
" style="stroke: #000000; stroke-width: 0.8"/>
      </defs>
      <g>
       <use xlink:href="#maa04d4564a" x="246.429193" y="112.14" style="stroke: #000000; stroke-width: 0.8"/>
      </g>
     </g>
     <g id="text_1">
      <!-- 250 -->
      <g transform="translate(236.885443 126.738438) scale(0.1 -0.1)">
       <defs>
        <path id="DejaVuSans-32" d="M 1228 531 
L 3431 531 
L 3431 0 
L 469 0 
L 469 531 
Q 828 903 1448 1529 
Q 2069 2156 2228 2338 
Q 2531 2678 2651 2914 
Q 2772 3150 2772 3378 
Q 2772 3750 2511 3984 
Q 2250 4219 1831 4219 
Q 1534 4219 1204 4116 
Q 875 4013 500 3803 
L 500 4441 
Q 881 4594 1212 4672 
Q 1544 4750 1819 4750 
Q 2544 4750 2975 4387 
Q 3406 4025 3406 3419 
Q 3406 3131 3298 2873 
Q 3191 2616 2906 2266 
Q 2828 2175 2409 1742 
Q 1991 1309 1228 531 
z
" transform="scale(0.015625)"/>
        <path id="DejaVuSans-35" d="M 691 4666 
L 3169 4666 
L 3169 4134 
L 1269 4134 
L 1269 2991 
Q 1406 3038 1543 3061 
Q 1681 3084 1819 3084 
Q 2600 3084 3056 2656 
Q 3513 2228 3513 1497 
Q 3513 744 3044 326 
Q 2575 -91 1722 -91 
Q 1428 -91 1123 -41 
Q 819 9 494 109 
L 494 744 
Q 775 591 1075 516 
Q 1375 441 1709 441 
Q 2250 441 2565 725 
Q 2881 1009 2881 1497 
Q 2881 1984 2565 2268 
Q 2250 2553 1709 2553 
Q 1456 2553 1204 2497 
Q 953 2441 691 2322 
L 691 4666 
z
" transform="scale(0.015625)"/>
        <path id="DejaVuSans-30" d="M 2034 4250 
Q 1547 4250 1301 3770 
Q 1056 3291 1056 2328 
Q 1056 1369 1301 889 
Q 1547 409 2034 409 
Q 2525 409 2770 889 
Q 3016 1369 3016 2328 
Q 3016 3291 2770 3770 
Q 2525 4250 2034 4250 
z
M 2034 4750 
Q 2819 4750 3233 4129 
Q 3647 3509 3647 2328 
Q 3647 1150 3233 529 
Q 2819 -91 2034 -91 
Q 1250 -91 836 529 
Q 422 1150 422 2328 
Q 422 3509 836 4129 
Q 1250 4750 2034 4750 
z
" transform="scale(0.015625)"/>
       </defs>
       <use xlink:href="#DejaVuSans-32"/>
       <use xlink:href="#DejaVuSans-35" x="63.623047"/>
       <use xlink:href="#DejaVuSans-30" x="127.246094"/>
      </g>
     </g>
    </g>
    <g id="xtick_2">
     <g id="line2d_2">
      <g>
       <use xlink:href="#maa04d4564a" x="349.269749" y="112.14" style="stroke: #000000; stroke-width: 0.8"/>
      </g>
     </g>
     <g id="text_2">
      <!-- 500 -->
      <g transform="translate(339.725999 126.738438) scale(0.1 -0.1)">
       <use xlink:href="#DejaVuSans-35"/>
       <use xlink:href="#DejaVuSans-30" x="63.623047"/>
       <use xlink:href="#DejaVuSans-30" x="127.246094"/>
      </g>
     </g>
    </g>
    <g id="xtick_3">
     <g id="line2d_3">
      <g>
       <use xlink:href="#maa04d4564a" x="452.110305" y="112.14" style="stroke: #000000; stroke-width: 0.8"/>
      </g>
     </g>
     <g id="text_3">
      <!-- 750 -->
      <g transform="translate(442.566555 126.738438) scale(0.1 -0.1)">
       <defs>
        <path id="DejaVuSans-37" d="M 525 4666 
L 3525 4666 
L 3525 4397 
L 1831 0 
L 1172 0 
L 2766 4134 
L 525 4134 
L 525 4666 
z
" transform="scale(0.015625)"/>
       </defs>
       <use xlink:href="#DejaVuSans-37"/>
       <use xlink:href="#DejaVuSans-35" x="63.623047"/>
       <use xlink:href="#DejaVuSans-30" x="127.246094"/>
      </g>
     </g>
    </g>
    <g id="xtick_4">
     <g id="line2d_4">
      <g>
       <use xlink:href="#maa04d4564a" x="554.95086" y="112.14" style="stroke: #000000; stroke-width: 0.8"/>
      </g>
     </g>
     <g id="text_4">
      <!-- 1000 -->
      <g transform="translate(542.22586 126.738438) scale(0.1 -0.1)">
       <defs>
        <path id="DejaVuSans-31" d="M 794 531 
L 1825 531 
L 1825 4091 
L 703 3866 
L 703 4441 
L 1819 4666 
L 2450 4666 
L 2450 531 
L 3481 531 
L 3481 0 
L 794 0 
L 794 531 
z
" transform="scale(0.015625)"/>
       </defs>
       <use xlink:href="#DejaVuSans-31"/>
       <use xlink:href="#DejaVuSans-30" x="63.623047"/>
       <use xlink:href="#DejaVuSans-30" x="127.246094"/>
       <use xlink:href="#DejaVuSans-30" x="190.869141"/>
      </g>
     </g>
    </g>
    <g id="xtick_5">
     <g id="line2d_5">
      <g>
       <use xlink:href="#maa04d4564a" x="657.791416" y="112.14" style="stroke: #000000; stroke-width: 0.8"/>
      </g>
     </g>
     <g id="text_5">
      <!-- 1250 -->
      <g transform="translate(645.066416 126.738438) scale(0.1 -0.1)">
       <use xlink:href="#DejaVuSans-31"/>
       <use xlink:href="#DejaVuSans-32" x="63.623047"/>
       <use xlink:href="#DejaVuSans-35" x="127.246094"/>
       <use xlink:href="#DejaVuSans-30" x="190.869141"/>
      </g>
     </g>
    </g>
    <g id="xtick_6">
     <g id="line2d_6">
      <g>
       <use xlink:href="#maa04d4564a" x="760.631972" y="112.14" style="stroke: #000000; stroke-width: 0.8"/>
      </g>
     </g>
     <g id="text_6">
      <!-- 1500 -->
      <g transform="translate(747.906972 126.738438) scale(0.1 -0.1)">
       <use xlink:href="#DejaVuSans-31"/>
       <use xlink:href="#DejaVuSans-35" x="63.623047"/>
       <use xlink:href="#DejaVuSans-30" x="127.246094"/>
       <use xlink:href="#DejaVuSans-30" x="190.869141"/>
      </g>
     </g>
    </g>
    <g id="xtick_7">
     <g id="line2d_7">
      <g>
       <use xlink:href="#maa04d4564a" x="863.472527" y="112.14" style="stroke: #000000; stroke-width: 0.8"/>
      </g>
     </g>
     <g id="text_7">
      <!-- 1750 -->
      <g transform="translate(850.747527 126.738438) scale(0.1 -0.1)">
       <use xlink:href="#DejaVuSans-31"/>
       <use xlink:href="#DejaVuSans-37" x="63.623047"/>
       <use xlink:href="#DejaVuSans-35" x="127.246094"/>
       <use xlink:href="#DejaVuSans-30" x="190.869141"/>
      </g>
     </g>
    </g>
    <g id="xtick_8">
     <g id="line2d_8">
      <g>
       <use xlink:href="#maa04d4564a" x="966.313083" y="112.14" style="stroke: #000000; stroke-width: 0.8"/>
      </g>
     </g>
     <g id="text_8">
      <!-- 2000 -->
      <g transform="translate(953.588083 126.738438) scale(0.1 -0.1)">
       <use xlink:href="#DejaVuSans-32"/>
       <use xlink:href="#DejaVuSans-30" x="63.623047"/>
       <use xlink:href="#DejaVuSans-30" x="127.246094"/>
       <use xlink:href="#DejaVuSans-30" x="190.869141"/>
      </g>
     </g>
    </g>
    <g id="text_9">
     <!-- Residual -->
     <g transform="translate(569.284375 140.416562) scale(0.1 -0.1)">
      <defs>
       <path id="DejaVuSans-52" d="M 2841 2188 
Q 3044 2119 3236 1894 
Q 3428 1669 3622 1275 
L 4263 0 
L 3584 0 
L 2988 1197 
Q 2756 1666 2539 1819 
Q 2322 1972 1947 1972 
L 1259 1972 
L 1259 0 
L 628 0 
L 628 4666 
L 2053 4666 
Q 2853 4666 3247 4331 
Q 3641 3997 3641 3322 
Q 3641 2881 3436 2590 
Q 3231 2300 2841 2188 
z
M 1259 4147 
L 1259 2491 
L 2053 2491 
Q 2509 2491 2742 2702 
Q 2975 2913 2975 3322 
Q 2975 3731 2742 3939 
Q 2509 4147 2053 4147 
L 1259 4147 
z
" transform="scale(0.015625)"/>
       <path id="DejaVuSans-65" d="M 3597 1894 
L 3597 1613 
L 953 1613 
Q 991 1019 1311 708 
Q 1631 397 2203 397 
Q 2534 397 2845 478 
Q 3156 559 3463 722 
L 3463 178 
Q 3153 47 2828 -22 
Q 2503 -91 2169 -91 
Q 1331 -91 842 396 
Q 353 884 353 1716 
Q 353 2575 817 3079 
Q 1281 3584 2069 3584 
Q 2775 3584 3186 3129 
Q 3597 2675 3597 1894 
z
M 3022 2063 
Q 3016 2534 2758 2815 
Q 2500 3097 2075 3097 
Q 1594 3097 1305 2825 
Q 1016 2553 972 2059 
L 3022 2063 
z
" transform="scale(0.015625)"/>
       <path id="DejaVuSans-73" d="M 2834 3397 
L 2834 2853 
Q 2591 2978 2328 3040 
Q 2066 3103 1784 3103 
Q 1356 3103 1142 2972 
Q 928 2841 928 2578 
Q 928 2378 1081 2264 
Q 1234 2150 1697 2047 
L 1894 2003 
Q 2506 1872 2764 1633 
Q 3022 1394 3022 966 
Q 3022 478 2636 193 
Q 2250 -91 1575 -91 
Q 1294 -91 989 -36 
Q 684 19 347 128 
L 347 722 
Q 666 556 975 473 
Q 1284 391 1588 391 
Q 1994 391 2212 530 
Q 2431 669 2431 922 
Q 2431 1156 2273 1281 
Q 2116 1406 1581 1522 
L 1381 1569 
Q 847 1681 609 1914 
Q 372 2147 372 2553 
Q 372 3047 722 3315 
Q 1072 3584 1716 3584 
Q 2034 3584 2315 3537 
Q 2597 3491 2834 3397 
z
" transform="scale(0.015625)"/>
       <path id="DejaVuSans-69" d="M 603 3500 
L 1178 3500 
L 1178 0 
L 603 0 
L 603 3500 
z
M 603 4863 
L 1178 4863 
L 1178 4134 
L 603 4134 
L 603 4863 
z
" transform="scale(0.015625)"/>
       <path id="DejaVuSans-64" d="M 2906 2969 
L 2906 4863 
L 3481 4863 
L 3481 0 
L 2906 0 
L 2906 525 
Q 2725 213 2448 61 
Q 2172 -91 1784 -91 
Q 1150 -91 751 415 
Q 353 922 353 1747 
Q 353 2572 751 3078 
Q 1150 3584 1784 3584 
Q 2172 3584 2448 3432 
Q 2725 3281 2906 2969 
z
M 947 1747 
Q 947 1113 1208 752 
Q 1469 391 1925 391 
Q 2381 391 2643 752 
Q 2906 1113 2906 1747 
Q 2906 2381 2643 2742 
Q 2381 3103 1925 3103 
Q 1469 3103 1208 2742 
Q 947 2381 947 1747 
z
" transform="scale(0.015625)"/>
       <path id="DejaVuSans-75" d="M 544 1381 
L 544 3500 
L 1119 3500 
L 1119 1403 
Q 1119 906 1312 657 
Q 1506 409 1894 409 
Q 2359 409 2629 706 
Q 2900 1003 2900 1516 
L 2900 3500 
L 3475 3500 
L 3475 0 
L 2900 0 
L 2900 538 
Q 2691 219 2414 64 
Q 2138 -91 1772 -91 
Q 1169 -91 856 284 
Q 544 659 544 1381 
z
M 1991 3584 
L 1991 3584 
z
" transform="scale(0.015625)"/>
       <path id="DejaVuSans-61" d="M 2194 1759 
Q 1497 1759 1228 1600 
Q 959 1441 959 1056 
Q 959 750 1161 570 
Q 1363 391 1709 391 
Q 2188 391 2477 730 
Q 2766 1069 2766 1631 
L 2766 1759 
L 2194 1759 
z
M 3341 1997 
L 3341 0 
L 2766 0 
L 2766 531 
Q 2569 213 2275 61 
Q 1981 -91 1556 -91 
Q 1019 -91 701 211 
Q 384 513 384 1019 
Q 384 1609 779 1909 
Q 1175 2209 1959 2209 
L 2766 2209 
L 2766 2266 
Q 2766 2663 2505 2880 
Q 2244 3097 1772 3097 
Q 1472 3097 1187 3025 
Q 903 2953 641 2809 
L 641 3341 
Q 956 3463 1253 3523 
Q 1550 3584 1831 3584 
Q 2591 3584 2966 3190 
Q 3341 2797 3341 1997 
z
" transform="scale(0.015625)"/>
       <path id="DejaVuSans-6c" d="M 603 4863 
L 1178 4863 
L 1178 0 
L 603 0 
L 603 4863 
z
" transform="scale(0.015625)"/>
      </defs>
      <use xlink:href="#DejaVuSans-52"/>
      <use xlink:href="#DejaVuSans-65" x="64.982422"/>
      <use xlink:href="#DejaVuSans-73" x="126.505859"/>
      <use xlink:href="#DejaVuSans-69" x="178.605469"/>
      <use xlink:href="#DejaVuSans-64" x="206.388672"/>
      <use xlink:href="#DejaVuSans-75" x="269.865234"/>
      <use xlink:href="#DejaVuSans-61" x="333.244141"/>
      <use xlink:href="#DejaVuSans-6c" x="394.523438"/>
     </g>
    </g>
   </g>
   <g id="matplotlib.axis_2">
    <g id="ytick_1">
     <g id="line2d_9">
      <defs>
       <path id="m6584a9762a" d="M 0 0 
L -3.5 0 
" style="stroke: #000000; stroke-width: 0.8"/>
      </defs>
      <g>
       <use xlink:href="#m6584a9762a" x="144" y="103.720909" style="stroke: #000000; stroke-width: 0.8"/>
      </g>
     </g>
     <g id="text_10">
      <!-- 8.A.74.1.2 -->
      <g transform="translate(85.809375 107.520128) scale(0.1 -0.1)">
       <defs>
        <path id="DejaVuSans-38" d="M 2034 2216 
Q 1584 2216 1326 1975 
Q 1069 1734 1069 1313 
Q 1069 891 1326 650 
Q 1584 409 2034 409 
Q 2484 409 2743 651 
Q 3003 894 3003 1313 
Q 3003 1734 2745 1975 
Q 2488 2216 2034 2216 
z
M 1403 2484 
Q 997 2584 770 2862 
Q 544 3141 544 3541 
Q 544 4100 942 4425 
Q 1341 4750 2034 4750 
Q 2731 4750 3128 4425 
Q 3525 4100 3525 3541 
Q 3525 3141 3298 2862 
Q 3072 2584 2669 2484 
Q 3125 2378 3379 2068 
Q 3634 1759 3634 1313 
Q 3634 634 3220 271 
Q 2806 -91 2034 -91 
Q 1263 -91 848 271 
Q 434 634 434 1313 
Q 434 1759 690 2068 
Q 947 2378 1403 2484 
z
M 1172 3481 
Q 1172 3119 1398 2916 
Q 1625 2713 2034 2713 
Q 2441 2713 2670 2916 
Q 2900 3119 2900 3481 
Q 2900 3844 2670 4047 
Q 2441 4250 2034 4250 
Q 1625 4250 1398 4047 
Q 1172 3844 1172 3481 
z
" transform="scale(0.015625)"/>
        <path id="DejaVuSans-2e" d="M 684 794 
L 1344 794 
L 1344 0 
L 684 0 
L 684 794 
z
" transform="scale(0.015625)"/>
        <path id="DejaVuSans-41" d="M 2188 4044 
L 1331 1722 
L 3047 1722 
L 2188 4044 
z
M 1831 4666 
L 2547 4666 
L 4325 0 
L 3669 0 
L 3244 1197 
L 1141 1197 
L 716 0 
L 50 0 
L 1831 4666 
z
" transform="scale(0.015625)"/>
        <path id="DejaVuSans-34" d="M 2419 4116 
L 825 1625 
L 2419 1625 
L 2419 4116 
z
M 2253 4666 
L 3047 4666 
L 3047 1625 
L 3713 1625 
L 3713 1100 
L 3047 1100 
L 3047 0 
L 2419 0 
L 2419 1100 
L 313 1100 
L 313 1709 
L 2253 4666 
z
" transform="scale(0.015625)"/>
       </defs>
       <use xlink:href="#DejaVuSans-38"/>
       <use xlink:href="#DejaVuSans-2e" x="63.623047"/>
       <use xlink:href="#DejaVuSans-41" x="95.410156"/>
       <use xlink:href="#DejaVuSans-2e" x="162.068359"/>
       <use xlink:href="#DejaVuSans-37" x="193.855469"/>
       <use xlink:href="#DejaVuSans-34" x="257.478516"/>
       <use xlink:href="#DejaVuSans-2e" x="321.101562"/>
       <use xlink:href="#DejaVuSans-31" x="352.888672"/>
       <use xlink:href="#DejaVuSans-2e" x="416.511719"/>
       <use xlink:href="#DejaVuSans-32" x="448.298828"/>
      </g>
     </g>
    </g>
    <g id="ytick_2">
     <g id="line2d_10">
      <g>
       <use xlink:href="#m6584a9762a" x="144" y="83.675455" style="stroke: #000000; stroke-width: 0.8"/>
      </g>
     </g>
     <g id="text_11">
      <!-- 8.A.74.1.3 -->
      <g transform="translate(85.809375 87.474673) scale(0.1 -0.1)">
       <defs>
        <path id="DejaVuSans-33" d="M 2597 2516 
Q 3050 2419 3304 2112 
Q 3559 1806 3559 1356 
Q 3559 666 3084 287 
Q 2609 -91 1734 -91 
Q 1441 -91 1130 -33 
Q 819 25 488 141 
L 488 750 
Q 750 597 1062 519 
Q 1375 441 1716 441 
Q 2309 441 2620 675 
Q 2931 909 2931 1356 
Q 2931 1769 2642 2001 
Q 2353 2234 1838 2234 
L 1294 2234 
L 1294 2753 
L 1863 2753 
Q 2328 2753 2575 2939 
Q 2822 3125 2822 3475 
Q 2822 3834 2567 4026 
Q 2313 4219 1838 4219 
Q 1578 4219 1281 4162 
Q 984 4106 628 3988 
L 628 4550 
Q 988 4650 1302 4700 
Q 1616 4750 1894 4750 
Q 2613 4750 3031 4423 
Q 3450 4097 3450 3541 
Q 3450 3153 3228 2886 
Q 3006 2619 2597 2516 
z
" transform="scale(0.015625)"/>
       </defs>
       <use xlink:href="#DejaVuSans-38"/>
       <use xlink:href="#DejaVuSans-2e" x="63.623047"/>
       <use xlink:href="#DejaVuSans-41" x="95.410156"/>
       <use xlink:href="#DejaVuSans-2e" x="162.068359"/>
       <use xlink:href="#DejaVuSans-37" x="193.855469"/>
       <use xlink:href="#DejaVuSans-34" x="257.478516"/>
       <use xlink:href="#DejaVuSans-2e" x="321.101562"/>
       <use xlink:href="#DejaVuSans-31" x="352.888672"/>
       <use xlink:href="#DejaVuSans-2e" x="416.511719"/>
       <use xlink:href="#DejaVuSans-33" x="448.298828"/>
      </g>
     </g>
    </g>
    <g id="ytick_3">
     <g id="line2d_11">
      <g>
       <use xlink:href="#m6584a9762a" x="144" y="63.63" style="stroke: #000000; stroke-width: 0.8"/>
      </g>
     </g>
     <g id="text_12">
      <!-- 8.A.74.1.4 -->
      <g transform="translate(85.809375 67.429219) scale(0.1 -0.1)">
       <use xlink:href="#DejaVuSans-38"/>
       <use xlink:href="#DejaVuSans-2e" x="63.623047"/>
       <use xlink:href="#DejaVuSans-41" x="95.410156"/>
       <use xlink:href="#DejaVuSans-2e" x="162.068359"/>
       <use xlink:href="#DejaVuSans-37" x="193.855469"/>
       <use xlink:href="#DejaVuSans-34" x="257.478516"/>
       <use xlink:href="#DejaVuSans-2e" x="321.101562"/>
       <use xlink:href="#DejaVuSans-31" x="352.888672"/>
       <use xlink:href="#DejaVuSans-2e" x="416.511719"/>
       <use xlink:href="#DejaVuSans-34" x="448.298828"/>
      </g>
     </g>
    </g>
    <g id="ytick_4">
     <g id="line2d_12">
      <g>
       <use xlink:href="#m6584a9762a" x="144" y="43.584545" style="stroke: #000000; stroke-width: 0.8"/>
      </g>
     </g>
     <g id="text_13">
      <!-- 8.A.74.1.5 -->
      <g transform="translate(85.809375 47.383764) scale(0.1 -0.1)">
       <use xlink:href="#DejaVuSans-38"/>
       <use xlink:href="#DejaVuSans-2e" x="63.623047"/>
       <use xlink:href="#DejaVuSans-41" x="95.410156"/>
       <use xlink:href="#DejaVuSans-2e" x="162.068359"/>
       <use xlink:href="#DejaVuSans-37" x="193.855469"/>
       <use xlink:href="#DejaVuSans-34" x="257.478516"/>
       <use xlink:href="#DejaVuSans-2e" x="321.101562"/>
       <use xlink:href="#DejaVuSans-31" x="352.888672"/>
       <use xlink:href="#DejaVuSans-2e" x="416.511719"/>
       <use xlink:href="#DejaVuSans-35" x="448.298828"/>
      </g>
     </g>
    </g>
    <g id="ytick_5">
     <g id="line2d_13">
      <g>
       <use xlink:href="#m6584a9762a" x="144" y="23.539091" style="stroke: #000000; stroke-width: 0.8"/>
      </g>
     </g>
     <g id="text_14">
      <!-- 8.A.74.1.6 -->
      <g transform="translate(85.809375 27.33831) scale(0.1 -0.1)">
       <defs>
        <path id="DejaVuSans-36" d="M 2113 2584 
Q 1688 2584 1439 2293 
Q 1191 2003 1191 1497 
Q 1191 994 1439 701 
Q 1688 409 2113 409 
Q 2538 409 2786 701 
Q 3034 994 3034 1497 
Q 3034 2003 2786 2293 
Q 2538 2584 2113 2584 
z
M 3366 4563 
L 3366 3988 
Q 3128 4100 2886 4159 
Q 2644 4219 2406 4219 
Q 1781 4219 1451 3797 
Q 1122 3375 1075 2522 
Q 1259 2794 1537 2939 
Q 1816 3084 2150 3084 
Q 2853 3084 3261 2657 
Q 3669 2231 3669 1497 
Q 3669 778 3244 343 
Q 2819 -91 2113 -91 
Q 1303 -91 875 529 
Q 447 1150 447 2328 
Q 447 3434 972 4092 
Q 1497 4750 2381 4750 
Q 2619 4750 2861 4703 
Q 3103 4656 3366 4563 
z
" transform="scale(0.015625)"/>
       </defs>
       <use xlink:href="#DejaVuSans-38"/>
       <use xlink:href="#DejaVuSans-2e" x="63.623047"/>
       <use xlink:href="#DejaVuSans-41" x="95.410156"/>
       <use xlink:href="#DejaVuSans-2e" x="162.068359"/>
       <use xlink:href="#DejaVuSans-37" x="193.855469"/>
       <use xlink:href="#DejaVuSans-34" x="257.478516"/>
       <use xlink:href="#DejaVuSans-2e" x="321.101562"/>
       <use xlink:href="#DejaVuSans-31" x="352.888672"/>
       <use xlink:href="#DejaVuSans-2e" x="416.511719"/>
       <use xlink:href="#DejaVuSans-36" x="448.298828"/>
      </g>
     </g>
    </g>
   </g>
   <g id="patch_174">
    <path d="M 144 112.14 
L 144 15.12 
" style="fill: none; stroke: #000000; stroke-width: 0.8; stroke-linejoin: miter; stroke-linecap: square"/>
   </g>
   <g id="patch_175">
    <path d="M 1036.8 112.14 
L 1036.8 15.12 
" style="fill: none; stroke: #000000; stroke-width: 0.8; stroke-linejoin: miter; stroke-linecap: square"/>
   </g>
   <g id="patch_176">
    <path d="M 144 112.14 
L 1036.8 112.14 
" style="fill: none; stroke: #000000; stroke-width: 0.8; stroke-linejoin: miter; stroke-linecap: square"/>
   </g>
   <g id="patch_177">
    <path d="M 144 15.12 
L 1036.8 15.12 
" style="fill: none; stroke: #000000; stroke-width: 0.8; stroke-linejoin: miter; stroke-linecap: square"/>
   </g>
   <g id="text_15">
    <!-- 8.A.74 Summary -->
    <g transform="translate(540.2325 9.12) scale(0.12 -0.12)">
     <defs>
      <path id="DejaVuSans-20" transform="scale(0.015625)"/>
      <path id="DejaVuSans-53" d="M 3425 4513 
L 3425 3897 
Q 3066 4069 2747 4153 
Q 2428 4238 2131 4238 
Q 1616 4238 1336 4038 
Q 1056 3838 1056 3469 
Q 1056 3159 1242 3001 
Q 1428 2844 1947 2747 
L 2328 2669 
Q 3034 2534 3370 2195 
Q 3706 1856 3706 1288 
Q 3706 609 3251 259 
Q 2797 -91 1919 -91 
Q 1588 -91 1214 -16 
Q 841 59 441 206 
L 441 856 
Q 825 641 1194 531 
Q 1563 422 1919 422 
Q 2459 422 2753 634 
Q 3047 847 3047 1241 
Q 3047 1584 2836 1778 
Q 2625 1972 2144 2069 
L 1759 2144 
Q 1053 2284 737 2584 
Q 422 2884 422 3419 
Q 422 4038 858 4394 
Q 1294 4750 2059 4750 
Q 2388 4750 2728 4690 
Q 3069 4631 3425 4513 
z
" transform="scale(0.015625)"/>
      <path id="DejaVuSans-6d" d="M 3328 2828 
Q 3544 3216 3844 3400 
Q 4144 3584 4550 3584 
Q 5097 3584 5394 3201 
Q 5691 2819 5691 2113 
L 5691 0 
L 5113 0 
L 5113 2094 
Q 5113 2597 4934 2840 
Q 4756 3084 4391 3084 
Q 3944 3084 3684 2787 
Q 3425 2491 3425 1978 
L 3425 0 
L 2847 0 
L 2847 2094 
Q 2847 2600 2669 2842 
Q 2491 3084 2119 3084 
Q 1678 3084 1418 2786 
Q 1159 2488 1159 1978 
L 1159 0 
L 581 0 
L 581 3500 
L 1159 3500 
L 1159 2956 
Q 1356 3278 1631 3431 
Q 1906 3584 2284 3584 
Q 2666 3584 2933 3390 
Q 3200 3197 3328 2828 
z
" transform="scale(0.015625)"/>
      <path id="DejaVuSans-72" d="M 2631 2963 
Q 2534 3019 2420 3045 
Q 2306 3072 2169 3072 
Q 1681 3072 1420 2755 
Q 1159 2438 1159 1844 
L 1159 0 
L 581 0 
L 581 3500 
L 1159 3500 
L 1159 2956 
Q 1341 3275 1631 3429 
Q 1922 3584 2338 3584 
Q 2397 3584 2469 3576 
Q 2541 3569 2628 3553 
L 2631 2963 
z
" transform="scale(0.015625)"/>
      <path id="DejaVuSans-79" d="M 2059 -325 
Q 1816 -950 1584 -1140 
Q 1353 -1331 966 -1331 
L 506 -1331 
L 506 -850 
L 844 -850 
Q 1081 -850 1212 -737 
Q 1344 -625 1503 -206 
L 1606 56 
L 191 3500 
L 800 3500 
L 1894 763 
L 2988 3500 
L 3597 3500 
L 2059 -325 
z
" transform="scale(0.015625)"/>
     </defs>
     <use xlink:href="#DejaVuSans-38"/>
     <use xlink:href="#DejaVuSans-2e" x="63.623047"/>
     <use xlink:href="#DejaVuSans-41" x="95.410156"/>
     <use xlink:href="#DejaVuSans-2e" x="162.068359"/>
     <use xlink:href="#DejaVuSans-37" x="193.855469"/>
     <use xlink:href="#DejaVuSans-34" x="257.478516"/>
     <use xlink:href="#DejaVuSans-20" x="321.101562"/>
     <use xlink:href="#DejaVuSans-53" x="352.888672"/>
     <use xlink:href="#DejaVuSans-75" x="416.365234"/>
     <use xlink:href="#DejaVuSans-6d" x="479.744141"/>
     <use xlink:href="#DejaVuSans-6d" x="577.15625"/>
     <use xlink:href="#DejaVuSans-61" x="674.568359"/>
     <use xlink:href="#DejaVuSans-72" x="735.847656"/>
     <use xlink:href="#DejaVuSans-79" x="776.960938"/>
    </g>
   </g>
  </g>
 </g>
 <defs>
  <clipPath id="p04faa996bc">
   <rect x="144" y="15.12" width="892.8" height="97.02"/>
  </clipPath>
 </defs>
</svg>
