<?xml version="1.0" encoding="utf-8" standalone="no"?>
<!DOCTYPE svg PUBLIC "-//W3C//DTD SVG 1.1//EN"
  "http://www.w3.org/Graphics/SVG/1.1/DTD/svg11.dtd">
<svg xmlns:xlink="http://www.w3.org/1999/xlink" width="1152pt" height="216pt" viewBox="0 0 1152 216" xmlns="http://www.w3.org/2000/svg" version="1.1">
 <metadata>
  <rdf:RDF xmlns:dc="http://purl.org/dc/elements/1.1/" xmlns:cc="http://creativecommons.org/ns#" xmlns:rdf="http://www.w3.org/1999/02/22-rdf-syntax-ns#">
   <cc:Work>
    <dc:type rdf:resource="http://purl.org/dc/dcmitype/StillImage"/>
    <dc:date>2024-10-25T07:57:57.665712</dc:date>
    <dc:format>image/svg+xml</dc:format>
    <dc:creator>
     <cc:Agent>
      <dc:title>Matplotlib v3.9.2, https://matplotlib.org/</dc:title>
     </cc:Agent>
    </dc:creator>
   </cc:Work>
  </rdf:RDF>
 </metadata>
 <defs>
  <style type="text/css">*{stroke-linejoin: round; stroke-linecap: butt}</style>
 </defs>
 <g id="figure_1">
  <g id="patch_1">
   <path d="M 0 216 
L 1152 216 
L 1152 0 
L 0 0 
z
" style="fill: #ffffff"/>
  </g>
  <g id="axes_1">
   <g id="patch_2">
    <path d="M 144 192.24 
L 1036.8 192.24 
L 1036.8 25.92 
L 144 25.92 
z
" style="fill: #ffffff"/>
   </g>
   <g id="patch_3">
    <path d="M 144 180.9 
L 153.121062 180.9 
L 153.121062 180.287027 
L 144 180.287027 
z
" clip-path="url(#pb50b7e9cd2)" style="fill: #0000ff"/>
   </g>
   <g id="patch_4">
    <path d="M 154.134514 184.68 
L 234.197174 184.68 
L 234.197174 176.507027 
L 154.134514 176.507027 
z
" clip-path="url(#pb50b7e9cd2)" style="fill: #0000ff"/>
   </g>
   <g id="patch_5">
    <path d="M 195.686021 184.68 
L 650.725694 184.68 
L 650.725694 176.507027 
L 195.686021 176.507027 
z
" clip-path="url(#pb50b7e9cd2)" style="fill: #0000ff"/>
   </g>
   <g id="patch_6">
    <path d="M 259.533458 184.68 
L 412.564618 184.68 
L 412.564618 176.507027 
L 259.533458 176.507027 
z
" clip-path="url(#pb50b7e9cd2)" style="fill: #0000ff"/>
   </g>
   <g id="patch_7">
    <path d="M 285.883194 184.68 
L 412.564618 184.68 
L 412.564618 176.507027 
L 285.883194 176.507027 
z
" clip-path="url(#pb50b7e9cd2)" style="fill: #0000ff"/>
   </g>
   <g id="patch_8">
    <path d="M 287.910097 184.68 
L 414.591521 184.68 
L 414.591521 176.507027 
L 287.910097 176.507027 
z
" clip-path="url(#pb50b7e9cd2)" style="fill: #0000ff"/>
   </g>
   <g id="patch_9">
    <path d="M 288.923548 184.68 
L 411.551166 184.68 
L 411.551166 176.507027 
L 288.923548 176.507027 
z
" clip-path="url(#pb50b7e9cd2)" style="fill: #0000ff"/>
   </g>
   <g id="patch_10">
    <path d="M 289.937 184.68 
L 414.591521 184.68 
L 414.591521 176.507027 
L 289.937 176.507027 
z
" clip-path="url(#pb50b7e9cd2)" style="fill: #0000ff"/>
   </g>
   <g id="patch_11">
    <path d="M 289.937 184.68 
L 411.551166 184.68 
L 411.551166 176.507027 
L 289.937 176.507027 
z
" clip-path="url(#pb50b7e9cd2)" style="fill: #0000ff"/>
   </g>
   <g id="patch_12">
    <path d="M 289.937 184.68 
L 412.564618 184.68 
L 412.564618 176.507027 
L 289.937 176.507027 
z
" clip-path="url(#pb50b7e9cd2)" style="fill: #0000ff"/>
   </g>
   <g id="patch_13">
    <path d="M 289.937 184.68 
L 416.618423 184.68 
L 416.618423 176.507027 
L 289.937 176.507027 
z
" clip-path="url(#pb50b7e9cd2)" style="fill: #0000ff"/>
   </g>
   <g id="patch_14">
    <path d="M 289.937 184.68 
L 414.591521 184.68 
L 414.591521 176.507027 
L 289.937 176.507027 
z
" clip-path="url(#pb50b7e9cd2)" style="fill: #0000ff"/>
   </g>
   <g id="patch_15">
    <path d="M 289.937 184.68 
L 412.564618 184.68 
L 412.564618 176.507027 
L 289.937 176.507027 
z
" clip-path="url(#pb50b7e9cd2)" style="fill: #0000ff"/>
   </g>
   <g id="patch_16">
    <path d="M 289.937 184.68 
L 411.551166 184.68 
L 411.551166 176.507027 
L 289.937 176.507027 
z
" clip-path="url(#pb50b7e9cd2)" style="fill: #0000ff"/>
   </g>
   <g id="patch_17">
    <path d="M 289.937 184.68 
L 411.551166 184.68 
L 411.551166 176.507027 
L 289.937 176.507027 
z
" clip-path="url(#pb50b7e9cd2)" style="fill: #0000ff"/>
   </g>
   <g id="patch_18">
    <path d="M 289.937 184.68 
L 416.618423 184.68 
L 416.618423 176.507027 
L 289.937 176.507027 
z
" clip-path="url(#pb50b7e9cd2)" style="fill: #0000ff"/>
   </g>
   <g id="patch_19">
    <path d="M 289.937 184.68 
L 418.645326 184.68 
L 418.645326 176.507027 
L 289.937 176.507027 
z
" clip-path="url(#pb50b7e9cd2)" style="fill: #0000ff"/>
   </g>
   <g id="patch_20">
    <path d="M 289.937 184.68 
L 403.443555 184.68 
L 403.443555 176.507027 
L 289.937 176.507027 
z
" clip-path="url(#pb50b7e9cd2)" style="fill: #0000ff"/>
   </g>
   <g id="patch_21">
    <path d="M 290.950451 184.68 
L 413.578069 184.68 
L 413.578069 176.507027 
L 290.950451 176.507027 
z
" clip-path="url(#pb50b7e9cd2)" style="fill: #0000ff"/>
   </g>
   <g id="patch_22">
    <path d="M 290.950451 184.68 
L 415.604972 184.68 
L 415.604972 176.507027 
L 290.950451 176.507027 
z
" clip-path="url(#pb50b7e9cd2)" style="fill: #0000ff"/>
   </g>
   <g id="patch_23">
    <path d="M 290.950451 184.68 
L 414.591521 184.68 
L 414.591521 176.507027 
L 290.950451 176.507027 
z
" clip-path="url(#pb50b7e9cd2)" style="fill: #0000ff"/>
   </g>
   <g id="patch_24">
    <path d="M 290.950451 184.68 
L 414.591521 184.68 
L 414.591521 176.507027 
L 290.950451 176.507027 
z
" clip-path="url(#pb50b7e9cd2)" style="fill: #0000ff"/>
   </g>
   <g id="patch_25">
    <path d="M 290.950451 184.68 
L 412.564618 184.68 
L 412.564618 176.507027 
L 290.950451 176.507027 
z
" clip-path="url(#pb50b7e9cd2)" style="fill: #0000ff"/>
   </g>
   <g id="patch_26">
    <path d="M 291.963903 184.68 
L 414.591521 184.68 
L 414.591521 176.507027 
L 291.963903 176.507027 
z
" clip-path="url(#pb50b7e9cd2)" style="fill: #0000ff"/>
   </g>
   <g id="patch_27">
    <path d="M 293.990805 184.68 
L 413.578069 184.68 
L 413.578069 176.507027 
L 293.990805 176.507027 
z
" clip-path="url(#pb50b7e9cd2)" style="fill: #0000ff"/>
   </g>
   <g id="patch_28">
    <path d="M 293.990805 184.68 
L 411.551166 184.68 
L 411.551166 176.507027 
L 293.990805 176.507027 
z
" clip-path="url(#pb50b7e9cd2)" style="fill: #0000ff"/>
   </g>
   <g id="patch_29">
    <path d="M 293.990805 184.68 
L 411.551166 184.68 
L 411.551166 176.507027 
L 293.990805 176.507027 
z
" clip-path="url(#pb50b7e9cd2)" style="fill: #0000ff"/>
   </g>
   <g id="patch_30">
    <path d="M 293.990805 184.68 
L 414.591521 184.68 
L 414.591521 176.507027 
L 293.990805 176.507027 
z
" clip-path="url(#pb50b7e9cd2)" style="fill: #0000ff"/>
   </g>
   <g id="patch_31">
    <path d="M 293.990805 184.68 
L 411.551166 184.68 
L 411.551166 176.507027 
L 293.990805 176.507027 
z
" clip-path="url(#pb50b7e9cd2)" style="fill: #0000ff"/>
   </g>
   <g id="patch_32">
    <path d="M 293.990805 184.68 
L 411.551166 184.68 
L 411.551166 176.507027 
L 293.990805 176.507027 
z
" clip-path="url(#pb50b7e9cd2)" style="fill: #0000ff"/>
   </g>
   <g id="patch_33">
    <path d="M 293.990805 184.68 
L 412.564618 184.68 
L 412.564618 176.507027 
L 293.990805 176.507027 
z
" clip-path="url(#pb50b7e9cd2)" style="fill: #0000ff"/>
   </g>
   <g id="patch_34">
    <path d="M 296.017708 184.68 
L 411.551166 184.68 
L 411.551166 176.507027 
L 296.017708 176.507027 
z
" clip-path="url(#pb50b7e9cd2)" style="fill: #0000ff"/>
   </g>
   <g id="patch_35">
    <path d="M 302.098416 184.68 
L 411.551166 184.68 
L 411.551166 176.507027 
L 302.098416 176.507027 
z
" clip-path="url(#pb50b7e9cd2)" style="fill: #0000ff"/>
   </g>
   <g id="patch_36">
    <path d="M 305.138771 184.68 
L 412.564618 184.68 
L 412.564618 176.507027 
L 305.138771 176.507027 
z
" clip-path="url(#pb50b7e9cd2)" style="fill: #0000ff"/>
   </g>
   <g id="patch_37">
    <path d="M 306.152222 184.68 
L 412.564618 184.68 
L 412.564618 176.507027 
L 306.152222 176.507027 
z
" clip-path="url(#pb50b7e9cd2)" style="fill: #0000ff"/>
   </g>
   <g id="patch_38">
    <path d="M 307.165673 184.68 
L 411.551166 184.68 
L 411.551166 176.507027 
L 307.165673 176.507027 
z
" clip-path="url(#pb50b7e9cd2)" style="fill: #0000ff"/>
   </g>
   <g id="patch_39">
    <path d="M 308.179125 184.68 
L 414.591521 184.68 
L 414.591521 176.507027 
L 308.179125 176.507027 
z
" clip-path="url(#pb50b7e9cd2)" style="fill: #0000ff"/>
   </g>
   <g id="patch_40">
    <path d="M 308.179125 184.68 
L 412.564618 184.68 
L 412.564618 176.507027 
L 308.179125 176.507027 
z
" clip-path="url(#pb50b7e9cd2)" style="fill: #0000ff"/>
   </g>
   <g id="patch_41">
    <path d="M 308.179125 184.68 
L 412.564618 184.68 
L 412.564618 176.507027 
L 308.179125 176.507027 
z
" clip-path="url(#pb50b7e9cd2)" style="fill: #0000ff"/>
   </g>
   <g id="patch_42">
    <path d="M 318.313639 184.68 
L 412.564618 184.68 
L 412.564618 176.507027 
L 318.313639 176.507027 
z
" clip-path="url(#pb50b7e9cd2)" style="fill: #0000ff"/>
   </g>
   <g id="patch_43">
    <path d="M 320.340541 184.68 
L 412.564618 184.68 
L 412.564618 176.507027 
L 320.340541 176.507027 
z
" clip-path="url(#pb50b7e9cd2)" style="fill: #0000ff"/>
   </g>
   <g id="patch_44">
    <path d="M 324.394347 184.68 
L 399.38975 184.68 
L 399.38975 176.507027 
L 324.394347 176.507027 
z
" clip-path="url(#pb50b7e9cd2)" style="fill: #0000ff"/>
   </g>
   <g id="patch_45">
    <path d="M 325.407798 184.68 
L 397.362847 184.68 
L 397.362847 176.507027 
L 325.407798 176.507027 
z
" clip-path="url(#pb50b7e9cd2)" style="fill: #0000ff"/>
   </g>
   <g id="patch_46">
    <path d="M 328.448153 184.68 
L 411.551166 184.68 
L 411.551166 176.507027 
L 328.448153 176.507027 
z
" clip-path="url(#pb50b7e9cd2)" style="fill: #0000ff"/>
   </g>
   <g id="patch_47">
    <path d="M 328.448153 184.68 
L 414.591521 184.68 
L 414.591521 176.507027 
L 328.448153 176.507027 
z
" clip-path="url(#pb50b7e9cd2)" style="fill: #0000ff"/>
   </g>
   <g id="patch_48">
    <path d="M 328.448153 184.68 
L 411.551166 184.68 
L 411.551166 176.507027 
L 328.448153 176.507027 
z
" clip-path="url(#pb50b7e9cd2)" style="fill: #0000ff"/>
   </g>
   <g id="patch_49">
    <path d="M 328.448153 184.68 
L 398.376298 184.68 
L 398.376298 176.507027 
L 328.448153 176.507027 
z
" clip-path="url(#pb50b7e9cd2)" style="fill: #0000ff"/>
   </g>
   <g id="patch_50">
    <path d="M 330.475055 184.68 
L 415.604972 184.68 
L 415.604972 176.507027 
L 330.475055 176.507027 
z
" clip-path="url(#pb50b7e9cd2)" style="fill: #0000ff"/>
   </g>
   <g id="patch_51">
    <path d="M 429.793291 184.68 
L 647.68534 184.68 
L 647.68534 176.507027 
L 429.793291 176.507027 
z
" clip-path="url(#pb50b7e9cd2)" style="fill: #0000ff"/>
   </g>
   <g id="patch_52">
    <path d="M 430.806743 184.68 
L 666.940916 184.68 
L 666.940916 176.507027 
L 430.806743 176.507027 
z
" clip-path="url(#pb50b7e9cd2)" style="fill: #0000ff"/>
   </g>
   <g id="patch_53">
    <path d="M 432.833645 184.68 
L 668.967819 184.68 
L 668.967819 176.507027 
L 432.833645 176.507027 
z
" clip-path="url(#pb50b7e9cd2)" style="fill: #0000ff"/>
   </g>
   <g id="patch_54">
    <path d="M 432.833645 184.68 
L 668.967819 184.68 
L 668.967819 176.507027 
L 432.833645 176.507027 
z
" clip-path="url(#pb50b7e9cd2)" style="fill: #0000ff"/>
   </g>
   <g id="patch_55">
    <path d="M 436.887451 184.68 
L 647.68534 184.68 
L 647.68534 176.507027 
L 436.887451 176.507027 
z
" clip-path="url(#pb50b7e9cd2)" style="fill: #0000ff"/>
   </g>
   <g id="patch_56">
    <path d="M 442.968159 184.68 
L 668.967819 184.68 
L 668.967819 176.507027 
L 442.968159 176.507027 
z
" clip-path="url(#pb50b7e9cd2)" style="fill: #0000ff"/>
   </g>
   <g id="patch_57">
    <path d="M 451.07577 184.68 
L 666.940916 184.68 
L 666.940916 176.507027 
L 451.07577 176.507027 
z
" clip-path="url(#pb50b7e9cd2)" style="fill: #0000ff"/>
   </g>
   <g id="patch_58">
    <path d="M 451.07577 184.68 
L 664.914013 184.68 
L 664.914013 176.507027 
L 451.07577 176.507027 
z
" clip-path="url(#pb50b7e9cd2)" style="fill: #0000ff"/>
   </g>
   <g id="patch_59">
    <path d="M 467.290993 184.68 
L 666.940916 184.68 
L 666.940916 176.507027 
L 467.290993 176.507027 
z
" clip-path="url(#pb50b7e9cd2)" style="fill: #0000ff"/>
   </g>
   <g id="patch_60">
    <path d="M 472.35825 184.68 
L 661.873659 184.68 
L 661.873659 176.507027 
L 472.35825 176.507027 
z
" clip-path="url(#pb50b7e9cd2)" style="fill: #0000ff"/>
   </g>
   <g id="patch_61">
    <path d="M 501.74834 184.68 
L 648.698791 184.68 
L 648.698791 176.507027 
L 501.74834 176.507027 
z
" clip-path="url(#pb50b7e9cd2)" style="fill: #0000ff"/>
   </g>
   <g id="patch_62">
    <path d="M 669.98127 180.9 
L 672.008173 180.9 
L 672.008173 180.287027 
L 669.98127 180.287027 
z
" clip-path="url(#pb50b7e9cd2)" style="fill: #0000ff"/>
   </g>
   <g id="patch_63">
    <path d="M 144 160.467568 
L 227.103014 160.467568 
L 227.103014 159.854595 
L 144 159.854595 
z
" clip-path="url(#pb50b7e9cd2)" style="fill: #0000ff"/>
   </g>
   <g id="patch_64">
    <path d="M 228.116465 164.247568 
L 342.636472 164.247568 
L 342.636472 156.074595 
L 228.116465 156.074595 
z
" clip-path="url(#pb50b7e9cd2)" style="fill: #0000ff"/>
   </g>
   <g id="patch_65">
    <path d="M 228.116465 164.247568 
L 344.663375 164.247568 
L 344.663375 156.074595 
L 228.116465 156.074595 
z
" clip-path="url(#pb50b7e9cd2)" style="fill: #0000ff"/>
   </g>
   <g id="patch_66">
    <path d="M 228.116465 164.247568 
L 342.636472 164.247568 
L 342.636472 156.074595 
L 228.116465 156.074595 
z
" clip-path="url(#pb50b7e9cd2)" style="fill: #0000ff"/>
   </g>
   <g id="patch_67">
    <path d="M 228.116465 164.247568 
L 342.636472 164.247568 
L 342.636472 156.074595 
L 228.116465 156.074595 
z
" clip-path="url(#pb50b7e9cd2)" style="fill: #0000ff"/>
   </g>
   <g id="patch_68">
    <path d="M 228.116465 164.247568 
L 341.623021 164.247568 
L 341.623021 156.074595 
L 228.116465 156.074595 
z
" clip-path="url(#pb50b7e9cd2)" style="fill: #0000ff"/>
   </g>
   <g id="patch_69">
    <path d="M 228.116465 164.247568 
L 341.623021 164.247568 
L 341.623021 156.074595 
L 228.116465 156.074595 
z
" clip-path="url(#pb50b7e9cd2)" style="fill: #0000ff"/>
   </g>
   <g id="patch_70">
    <path d="M 228.116465 164.247568 
L 341.623021 164.247568 
L 341.623021 156.074595 
L 228.116465 156.074595 
z
" clip-path="url(#pb50b7e9cd2)" style="fill: #0000ff"/>
   </g>
   <g id="patch_71">
    <path d="M 228.116465 164.247568 
L 344.663375 164.247568 
L 344.663375 156.074595 
L 228.116465 156.074595 
z
" clip-path="url(#pb50b7e9cd2)" style="fill: #0000ff"/>
   </g>
   <g id="patch_72">
    <path d="M 228.116465 164.247568 
L 331.488507 164.247568 
L 331.488507 156.074595 
L 228.116465 156.074595 
z
" clip-path="url(#pb50b7e9cd2)" style="fill: #0000ff"/>
   </g>
   <g id="patch_73">
    <path d="M 229.129917 164.247568 
L 343.649923 164.247568 
L 343.649923 156.074595 
L 229.129917 156.074595 
z
" clip-path="url(#pb50b7e9cd2)" style="fill: #0000ff"/>
   </g>
   <g id="patch_74">
    <path d="M 230.143368 164.247568 
L 344.663375 164.247568 
L 344.663375 156.074595 
L 230.143368 156.074595 
z
" clip-path="url(#pb50b7e9cd2)" style="fill: #0000ff"/>
   </g>
   <g id="patch_75">
    <path d="M 230.143368 164.247568 
L 344.663375 164.247568 
L 344.663375 156.074595 
L 230.143368 156.074595 
z
" clip-path="url(#pb50b7e9cd2)" style="fill: #0000ff"/>
   </g>
   <g id="patch_76">
    <path d="M 257.506555 164.247568 
L 329.461604 164.247568 
L 329.461604 156.074595 
L 257.506555 156.074595 
z
" clip-path="url(#pb50b7e9cd2)" style="fill: #0000ff"/>
   </g>
   <g id="patch_77">
    <path d="M 258.520007 164.247568 
L 341.623021 164.247568 
L 341.623021 156.074595 
L 258.520007 156.074595 
z
" clip-path="url(#pb50b7e9cd2)" style="fill: #0000ff"/>
   </g>
   <g id="patch_78">
    <path d="M 258.520007 164.247568 
L 341.623021 164.247568 
L 341.623021 156.074595 
L 258.520007 156.074595 
z
" clip-path="url(#pb50b7e9cd2)" style="fill: #0000ff"/>
   </g>
   <g id="patch_79">
    <path d="M 259.533458 164.247568 
L 342.636472 164.247568 
L 342.636472 156.074595 
L 259.533458 156.074595 
z
" clip-path="url(#pb50b7e9cd2)" style="fill: #0000ff"/>
   </g>
   <g id="patch_80">
    <path d="M 259.533458 164.247568 
L 341.623021 164.247568 
L 341.623021 156.074595 
L 259.533458 156.074595 
z
" clip-path="url(#pb50b7e9cd2)" style="fill: #0000ff"/>
   </g>
   <g id="patch_81">
    <path d="M 259.533458 164.247568 
L 341.623021 164.247568 
L 341.623021 156.074595 
L 259.533458 156.074595 
z
" clip-path="url(#pb50b7e9cd2)" style="fill: #0000ff"/>
   </g>
   <g id="patch_82">
    <path d="M 259.533458 164.247568 
L 341.623021 164.247568 
L 341.623021 156.074595 
L 259.533458 156.074595 
z
" clip-path="url(#pb50b7e9cd2)" style="fill: #0000ff"/>
   </g>
   <g id="patch_83">
    <path d="M 259.533458 164.247568 
L 341.623021 164.247568 
L 341.623021 156.074595 
L 259.533458 156.074595 
z
" clip-path="url(#pb50b7e9cd2)" style="fill: #0000ff"/>
   </g>
   <g id="patch_84">
    <path d="M 259.533458 164.247568 
L 602.080027 164.247568 
L 602.080027 156.074595 
L 259.533458 156.074595 
z
" clip-path="url(#pb50b7e9cd2)" style="fill: #0000ff"/>
   </g>
   <g id="patch_85">
    <path d="M 259.533458 164.247568 
L 342.636472 164.247568 
L 342.636472 156.074595 
L 259.533458 156.074595 
z
" clip-path="url(#pb50b7e9cd2)" style="fill: #0000ff"/>
   </g>
   <g id="patch_86">
    <path d="M 261.560361 164.247568 
L 332.501958 164.247568 
L 332.501958 156.074595 
L 261.560361 156.074595 
z
" clip-path="url(#pb50b7e9cd2)" style="fill: #0000ff"/>
   </g>
   <g id="patch_87">
    <path d="M 261.560361 164.247568 
L 342.636472 164.247568 
L 342.636472 156.074595 
L 261.560361 156.074595 
z
" clip-path="url(#pb50b7e9cd2)" style="fill: #0000ff"/>
   </g>
   <g id="patch_88">
    <path d="M 262.573812 164.247568 
L 332.501958 164.247568 
L 332.501958 156.074595 
L 262.573812 156.074595 
z
" clip-path="url(#pb50b7e9cd2)" style="fill: #0000ff"/>
   </g>
   <g id="patch_89">
    <path d="M 263.587264 164.247568 
L 342.636472 164.247568 
L 342.636472 156.074595 
L 263.587264 156.074595 
z
" clip-path="url(#pb50b7e9cd2)" style="fill: #0000ff"/>
   </g>
   <g id="patch_90">
    <path d="M 263.587264 164.247568 
L 344.663375 164.247568 
L 344.663375 156.074595 
L 263.587264 156.074595 
z
" clip-path="url(#pb50b7e9cd2)" style="fill: #0000ff"/>
   </g>
   <g id="patch_91">
    <path d="M 266.627618 164.247568 
L 342.636472 164.247568 
L 342.636472 156.074595 
L 266.627618 156.074595 
z
" clip-path="url(#pb50b7e9cd2)" style="fill: #0000ff"/>
   </g>
   <g id="patch_92">
    <path d="M 266.627618 164.247568 
L 342.636472 164.247568 
L 342.636472 156.074595 
L 266.627618 156.074595 
z
" clip-path="url(#pb50b7e9cd2)" style="fill: #0000ff"/>
   </g>
   <g id="patch_93">
    <path d="M 266.627618 164.247568 
L 341.623021 164.247568 
L 341.623021 156.074595 
L 266.627618 156.074595 
z
" clip-path="url(#pb50b7e9cd2)" style="fill: #0000ff"/>
   </g>
   <g id="patch_94">
    <path d="M 266.627618 164.247568 
L 343.649923 164.247568 
L 343.649923 156.074595 
L 266.627618 156.074595 
z
" clip-path="url(#pb50b7e9cd2)" style="fill: #0000ff"/>
   </g>
   <g id="patch_95">
    <path d="M 266.627618 164.247568 
L 341.623021 164.247568 
L 341.623021 156.074595 
L 266.627618 156.074595 
z
" clip-path="url(#pb50b7e9cd2)" style="fill: #0000ff"/>
   </g>
   <g id="patch_96">
    <path d="M 266.627618 164.247568 
L 342.636472 164.247568 
L 342.636472 156.074595 
L 266.627618 156.074595 
z
" clip-path="url(#pb50b7e9cd2)" style="fill: #0000ff"/>
   </g>
   <g id="patch_97">
    <path d="M 328.448153 164.247568 
L 605.120381 164.247568 
L 605.120381 156.074595 
L 328.448153 156.074595 
z
" clip-path="url(#pb50b7e9cd2)" style="fill: #0000ff"/>
   </g>
   <g id="patch_98">
    <path d="M 328.448153 164.247568 
L 604.10693 164.247568 
L 604.10693 156.074595 
L 328.448153 156.074595 
z
" clip-path="url(#pb50b7e9cd2)" style="fill: #0000ff"/>
   </g>
   <g id="patch_99">
    <path d="M 368.986208 164.247568 
L 605.120381 164.247568 
L 605.120381 156.074595 
L 368.986208 156.074595 
z
" clip-path="url(#pb50b7e9cd2)" style="fill: #0000ff"/>
   </g>
   <g id="patch_100">
    <path d="M 382.161076 164.247568 
L 604.10693 164.247568 
L 604.10693 156.074595 
L 382.161076 156.074595 
z
" clip-path="url(#pb50b7e9cd2)" style="fill: #0000ff"/>
   </g>
   <g id="patch_101">
    <path d="M 382.161076 164.247568 
L 603.093479 164.247568 
L 603.093479 156.074595 
L 382.161076 156.074595 
z
" clip-path="url(#pb50b7e9cd2)" style="fill: #0000ff"/>
   </g>
   <g id="patch_102">
    <path d="M 466.277541 164.247568 
L 605.120381 164.247568 
L 605.120381 156.074595 
L 466.277541 156.074595 
z
" clip-path="url(#pb50b7e9cd2)" style="fill: #0000ff"/>
   </g>
   <g id="patch_103">
    <path d="M 606.133833 160.467568 
L 626.402861 160.467568 
L 626.402861 159.854595 
L 606.133833 159.854595 
z
" clip-path="url(#pb50b7e9cd2)" style="fill: #0000ff"/>
   </g>
   <g id="patch_104">
    <path d="M 144 140.035135 
L 217.981951 140.035135 
L 217.981951 139.422162 
L 144 139.422162 
z
" clip-path="url(#pb50b7e9cd2)" style="fill: #0000ff"/>
   </g>
   <g id="patch_105">
    <path d="M 218.995403 143.815135 
L 344.663375 143.815135 
L 344.663375 135.642162 
L 218.995403 135.642162 
z
" clip-path="url(#pb50b7e9cd2)" style="fill: #0000ff"/>
   </g>
   <g id="patch_106">
    <path d="M 249.398944 143.815135 
L 363.918951 143.815135 
L 363.918951 135.642162 
L 249.398944 135.642162 
z
" clip-path="url(#pb50b7e9cd2)" style="fill: #0000ff"/>
   </g>
   <g id="patch_107">
    <path d="M 249.398944 143.815135 
L 364.932403 143.815135 
L 364.932403 135.642162 
L 249.398944 135.642162 
z
" clip-path="url(#pb50b7e9cd2)" style="fill: #0000ff"/>
   </g>
   <g id="patch_108">
    <path d="M 249.398944 143.815135 
L 363.918951 143.815135 
L 363.918951 135.642162 
L 249.398944 135.642162 
z
" clip-path="url(#pb50b7e9cd2)" style="fill: #0000ff"/>
   </g>
   <g id="patch_109">
    <path d="M 249.398944 143.815135 
L 345.676826 143.815135 
L 345.676826 135.642162 
L 249.398944 135.642162 
z
" clip-path="url(#pb50b7e9cd2)" style="fill: #0000ff"/>
   </g>
   <g id="patch_110">
    <path d="M 250.412396 143.815135 
L 363.918951 143.815135 
L 363.918951 135.642162 
L 250.412396 135.642162 
z
" clip-path="url(#pb50b7e9cd2)" style="fill: #0000ff"/>
   </g>
   <g id="patch_111">
    <path d="M 250.412396 143.815135 
L 362.9055 143.815135 
L 362.9055 135.642162 
L 250.412396 135.642162 
z
" clip-path="url(#pb50b7e9cd2)" style="fill: #0000ff"/>
   </g>
   <g id="patch_112">
    <path d="M 252.439298 143.815135 
L 361.892048 143.815135 
L 361.892048 135.642162 
L 252.439298 135.642162 
z
" clip-path="url(#pb50b7e9cd2)" style="fill: #0000ff"/>
   </g>
   <g id="patch_113">
    <path d="M 252.439298 143.815135 
L 363.918951 143.815135 
L 363.918951 135.642162 
L 252.439298 135.642162 
z
" clip-path="url(#pb50b7e9cd2)" style="fill: #0000ff"/>
   </g>
   <g id="patch_114">
    <path d="M 252.439298 143.815135 
L 360.878597 143.815135 
L 360.878597 135.642162 
L 252.439298 135.642162 
z
" clip-path="url(#pb50b7e9cd2)" style="fill: #0000ff"/>
   </g>
   <g id="patch_115">
    <path d="M 252.439298 143.815135 
L 360.878597 143.815135 
L 360.878597 135.642162 
L 252.439298 135.642162 
z
" clip-path="url(#pb50b7e9cd2)" style="fill: #0000ff"/>
   </g>
   <g id="patch_116">
    <path d="M 252.439298 143.815135 
L 363.918951 143.815135 
L 363.918951 135.642162 
L 252.439298 135.642162 
z
" clip-path="url(#pb50b7e9cd2)" style="fill: #0000ff"/>
   </g>
   <g id="patch_117">
    <path d="M 252.439298 143.815135 
L 360.878597 143.815135 
L 360.878597 135.642162 
L 252.439298 135.642162 
z
" clip-path="url(#pb50b7e9cd2)" style="fill: #0000ff"/>
   </g>
   <g id="patch_118">
    <path d="M 252.439298 143.815135 
L 363.918951 143.815135 
L 363.918951 135.642162 
L 252.439298 135.642162 
z
" clip-path="url(#pb50b7e9cd2)" style="fill: #0000ff"/>
   </g>
   <g id="patch_119">
    <path d="M 252.439298 143.815135 
L 363.918951 143.815135 
L 363.918951 135.642162 
L 252.439298 135.642162 
z
" clip-path="url(#pb50b7e9cd2)" style="fill: #0000ff"/>
   </g>
   <g id="patch_120">
    <path d="M 254.466201 143.815135 
L 360.878597 143.815135 
L 360.878597 135.642162 
L 254.466201 135.642162 
z
" clip-path="url(#pb50b7e9cd2)" style="fill: #0000ff"/>
   </g>
   <g id="patch_121">
    <path d="M 254.466201 143.815135 
L 359.865146 143.815135 
L 359.865146 135.642162 
L 254.466201 135.642162 
z
" clip-path="url(#pb50b7e9cd2)" style="fill: #0000ff"/>
   </g>
   <g id="patch_122">
    <path d="M 259.533458 143.815135 
L 344.663375 143.815135 
L 344.663375 135.642162 
L 259.533458 135.642162 
z
" clip-path="url(#pb50b7e9cd2)" style="fill: #0000ff"/>
   </g>
   <g id="patch_123">
    <path d="M 259.533458 143.815135 
L 344.663375 143.815135 
L 344.663375 135.642162 
L 259.533458 135.642162 
z
" clip-path="url(#pb50b7e9cd2)" style="fill: #0000ff"/>
   </g>
   <g id="patch_124">
    <path d="M 259.533458 143.815135 
L 344.663375 143.815135 
L 344.663375 135.642162 
L 259.533458 135.642162 
z
" clip-path="url(#pb50b7e9cd2)" style="fill: #0000ff"/>
   </g>
   <g id="patch_125">
    <path d="M 261.560361 143.815135 
L 360.878597 143.815135 
L 360.878597 135.642162 
L 261.560361 135.642162 
z
" clip-path="url(#pb50b7e9cd2)" style="fill: #0000ff"/>
   </g>
   <g id="patch_126">
    <path d="M 262.573812 143.815135 
L 360.878597 143.815135 
L 360.878597 135.642162 
L 262.573812 135.642162 
z
" clip-path="url(#pb50b7e9cd2)" style="fill: #0000ff"/>
   </g>
   <g id="patch_127">
    <path d="M 264.600715 143.815135 
L 341.623021 143.815135 
L 341.623021 135.642162 
L 264.600715 135.642162 
z
" clip-path="url(#pb50b7e9cd2)" style="fill: #0000ff"/>
   </g>
   <g id="patch_128">
    <path d="M 266.627618 143.815135 
L 353.784437 143.815135 
L 353.784437 135.642162 
L 266.627618 135.642162 
z
" clip-path="url(#pb50b7e9cd2)" style="fill: #0000ff"/>
   </g>
   <g id="patch_129">
    <path d="M 266.627618 143.815135 
L 361.892048 143.815135 
L 361.892048 135.642162 
L 266.627618 135.642162 
z
" clip-path="url(#pb50b7e9cd2)" style="fill: #0000ff"/>
   </g>
   <g id="patch_130">
    <path d="M 267.641069 143.815135 
L 363.918951 143.815135 
L 363.918951 135.642162 
L 267.641069 135.642162 
z
" clip-path="url(#pb50b7e9cd2)" style="fill: #0000ff"/>
   </g>
   <g id="patch_131">
    <path d="M 267.641069 143.815135 
L 361.892048 143.815135 
L 361.892048 135.642162 
L 267.641069 135.642162 
z
" clip-path="url(#pb50b7e9cd2)" style="fill: #0000ff"/>
   </g>
   <g id="patch_132">
    <path d="M 267.641069 143.815135 
L 363.918951 143.815135 
L 363.918951 135.642162 
L 267.641069 135.642162 
z
" clip-path="url(#pb50b7e9cd2)" style="fill: #0000ff"/>
   </g>
   <g id="patch_133">
    <path d="M 268.654521 143.815135 
L 361.892048 143.815135 
L 361.892048 135.642162 
L 268.654521 135.642162 
z
" clip-path="url(#pb50b7e9cd2)" style="fill: #0000ff"/>
   </g>
   <g id="patch_134">
    <path d="M 269.667972 143.815135 
L 361.892048 143.815135 
L 361.892048 135.642162 
L 269.667972 135.642162 
z
" clip-path="url(#pb50b7e9cd2)" style="fill: #0000ff"/>
   </g>
   <g id="patch_135">
    <path d="M 282.84284 143.815135 
L 363.918951 143.815135 
L 363.918951 135.642162 
L 282.84284 135.642162 
z
" clip-path="url(#pb50b7e9cd2)" style="fill: #0000ff"/>
   </g>
   <g id="patch_136">
    <path d="M 288.923548 143.815135 
L 349.730632 143.815135 
L 349.730632 135.642162 
L 288.923548 135.642162 
z
" clip-path="url(#pb50b7e9cd2)" style="fill: #0000ff"/>
   </g>
   <g id="patch_137">
    <path d="M 288.923548 143.815135 
L 362.9055 143.815135 
L 362.9055 135.642162 
L 288.923548 135.642162 
z
" clip-path="url(#pb50b7e9cd2)" style="fill: #0000ff"/>
   </g>
   <g id="patch_138">
    <path d="M 288.923548 143.815135 
L 346.690278 143.815135 
L 346.690278 135.642162 
L 288.923548 135.642162 
z
" clip-path="url(#pb50b7e9cd2)" style="fill: #0000ff"/>
   </g>
   <g id="patch_139">
    <path d="M 289.937 143.815135 
L 357.838243 143.815135 
L 357.838243 135.642162 
L 289.937 135.642162 
z
" clip-path="url(#pb50b7e9cd2)" style="fill: #0000ff"/>
   </g>
   <g id="patch_140">
    <path d="M 289.937 143.815135 
L 346.690278 143.815135 
L 346.690278 135.642162 
L 289.937 135.642162 
z
" clip-path="url(#pb50b7e9cd2)" style="fill: #0000ff"/>
   </g>
   <g id="patch_141">
    <path d="M 289.937 143.815135 
L 345.676826 143.815135 
L 345.676826 135.642162 
L 289.937 135.642162 
z
" clip-path="url(#pb50b7e9cd2)" style="fill: #0000ff"/>
   </g>
   <g id="patch_142">
    <path d="M 289.937 143.815135 
L 349.730632 143.815135 
L 349.730632 135.642162 
L 289.937 135.642162 
z
" clip-path="url(#pb50b7e9cd2)" style="fill: #0000ff"/>
   </g>
   <g id="patch_143">
    <path d="M 365.945854 140.035135 
L 527.084625 140.035135 
L 527.084625 139.422162 
L 365.945854 139.422162 
z
" clip-path="url(#pb50b7e9cd2)" style="fill: #0000ff"/>
   </g>
   <g id="patch_144">
    <path d="M 528.098076 143.815135 
L 754.097735 143.815135 
L 754.097735 135.642162 
L 528.098076 135.642162 
z
" clip-path="url(#pb50b7e9cd2)" style="fill: #0000ff"/>
   </g>
   <g id="patch_145">
    <path d="M 539.246041 143.815135 
L 775.380215 143.815135 
L 775.380215 135.642162 
L 539.246041 135.642162 
z
" clip-path="url(#pb50b7e9cd2)" style="fill: #0000ff"/>
   </g>
   <g id="patch_146">
    <path d="M 144 119.602703 
L 211.901243 119.602703 
L 211.901243 118.98973 
L 144 118.98973 
z
" clip-path="url(#pb50b7e9cd2)" style="fill: #0000ff"/>
   </g>
   <g id="patch_147">
    <path d="M 212.914694 123.382703 
L 261.560361 123.382703 
L 261.560361 115.20973 
L 212.914694 115.20973 
z
" clip-path="url(#pb50b7e9cd2)" style="fill: #0000ff"/>
   </g>
   <g id="patch_148">
    <path d="M 212.914694 123.382703 
L 261.560361 123.382703 
L 261.560361 115.20973 
L 212.914694 115.20973 
z
" clip-path="url(#pb50b7e9cd2)" style="fill: #0000ff"/>
   </g>
   <g id="patch_149">
    <path d="M 218.995403 123.382703 
L 264.600715 123.382703 
L 264.600715 115.20973 
L 218.995403 115.20973 
z
" clip-path="url(#pb50b7e9cd2)" style="fill: #0000ff"/>
   </g>
   <g id="patch_150">
    <path d="M 220.008854 123.382703 
L 264.600715 123.382703 
L 264.600715 115.20973 
L 220.008854 115.20973 
z
" clip-path="url(#pb50b7e9cd2)" style="fill: #0000ff"/>
   </g>
   <g id="patch_151">
    <path d="M 220.008854 123.382703 
L 261.560361 123.382703 
L 261.560361 115.20973 
L 220.008854 115.20973 
z
" clip-path="url(#pb50b7e9cd2)" style="fill: #0000ff"/>
   </g>
   <g id="patch_152">
    <path d="M 221.022305 123.382703 
L 261.560361 123.382703 
L 261.560361 115.20973 
L 221.022305 115.20973 
z
" clip-path="url(#pb50b7e9cd2)" style="fill: #0000ff"/>
   </g>
   <g id="patch_153">
    <path d="M 221.022305 123.382703 
L 261.560361 123.382703 
L 261.560361 115.20973 
L 221.022305 115.20973 
z
" clip-path="url(#pb50b7e9cd2)" style="fill: #0000ff"/>
   </g>
   <g id="patch_154">
    <path d="M 221.022305 123.382703 
L 261.560361 123.382703 
L 261.560361 115.20973 
L 221.022305 115.20973 
z
" clip-path="url(#pb50b7e9cd2)" style="fill: #0000ff"/>
   </g>
   <g id="patch_155">
    <path d="M 221.022305 123.382703 
L 261.560361 123.382703 
L 261.560361 115.20973 
L 221.022305 115.20973 
z
" clip-path="url(#pb50b7e9cd2)" style="fill: #0000ff"/>
   </g>
   <g id="patch_156">
    <path d="M 224.06266 123.382703 
L 261.560361 123.382703 
L 261.560361 115.20973 
L 224.06266 115.20973 
z
" clip-path="url(#pb50b7e9cd2)" style="fill: #0000ff"/>
   </g>
   <g id="patch_157">
    <path d="M 224.06266 123.382703 
L 261.560361 123.382703 
L 261.560361 115.20973 
L 224.06266 115.20973 
z
" clip-path="url(#pb50b7e9cd2)" style="fill: #0000ff"/>
   </g>
   <g id="patch_158">
    <path d="M 225.076111 123.382703 
L 265.614167 123.382703 
L 265.614167 115.20973 
L 225.076111 115.20973 
z
" clip-path="url(#pb50b7e9cd2)" style="fill: #0000ff"/>
   </g>
   <g id="patch_159">
    <path d="M 266.627618 119.602703 
L 392.29559 119.602703 
L 392.29559 118.98973 
L 266.627618 118.98973 
z
" clip-path="url(#pb50b7e9cd2)" style="fill: #0000ff"/>
   </g>
   <g id="patch_160">
    <path d="M 393.309041 123.382703 
L 526.071173 123.382703 
L 526.071173 115.20973 
L 393.309041 115.20973 
z
" clip-path="url(#pb50b7e9cd2)" style="fill: #0000ff"/>
   </g>
   <g id="patch_161">
    <path d="M 396.349396 123.382703 
L 524.04427 123.382703 
L 524.04427 115.20973 
L 396.349396 115.20973 
z
" clip-path="url(#pb50b7e9cd2)" style="fill: #0000ff"/>
   </g>
   <g id="patch_162">
    <path d="M 402.430104 123.382703 
L 523.030819 123.382703 
L 523.030819 115.20973 
L 402.430104 115.20973 
z
" clip-path="url(#pb50b7e9cd2)" style="fill: #0000ff"/>
   </g>
   <g id="patch_163">
    <path d="M 402.430104 123.382703 
L 511.882854 123.382703 
L 511.882854 115.20973 
L 402.430104 115.20973 
z
" clip-path="url(#pb50b7e9cd2)" style="fill: #0000ff"/>
   </g>
   <g id="patch_164">
    <path d="M 402.430104 123.382703 
L 532.151881 123.382703 
L 532.151881 115.20973 
L 402.430104 115.20973 
z
" clip-path="url(#pb50b7e9cd2)" style="fill: #0000ff"/>
   </g>
   <g id="patch_165">
    <path d="M 402.430104 123.382703 
L 523.030819 123.382703 
L 523.030819 115.20973 
L 402.430104 115.20973 
z
" clip-path="url(#pb50b7e9cd2)" style="fill: #0000ff"/>
   </g>
   <g id="patch_166">
    <path d="M 403.443555 123.382703 
L 523.030819 123.382703 
L 523.030819 115.20973 
L 403.443555 115.20973 
z
" clip-path="url(#pb50b7e9cd2)" style="fill: #0000ff"/>
   </g>
   <g id="patch_167">
    <path d="M 403.443555 123.382703 
L 523.030819 123.382703 
L 523.030819 115.20973 
L 403.443555 115.20973 
z
" clip-path="url(#pb50b7e9cd2)" style="fill: #0000ff"/>
   </g>
   <g id="patch_168">
    <path d="M 404.457007 123.382703 
L 523.030819 123.382703 
L 523.030819 115.20973 
L 404.457007 115.20973 
z
" clip-path="url(#pb50b7e9cd2)" style="fill: #0000ff"/>
   </g>
   <g id="patch_169">
    <path d="M 404.457007 123.382703 
L 523.030819 123.382703 
L 523.030819 115.20973 
L 404.457007 115.20973 
z
" clip-path="url(#pb50b7e9cd2)" style="fill: #0000ff"/>
   </g>
   <g id="patch_170">
    <path d="M 404.457007 123.382703 
L 523.030819 123.382703 
L 523.030819 115.20973 
L 404.457007 115.20973 
z
" clip-path="url(#pb50b7e9cd2)" style="fill: #0000ff"/>
   </g>
   <g id="patch_171">
    <path d="M 406.483909 123.382703 
L 526.071173 123.382703 
L 526.071173 115.20973 
L 406.483909 115.20973 
z
" clip-path="url(#pb50b7e9cd2)" style="fill: #0000ff"/>
   </g>
   <g id="patch_172">
    <path d="M 406.483909 123.382703 
L 510.869402 123.382703 
L 510.869402 115.20973 
L 406.483909 115.20973 
z
" clip-path="url(#pb50b7e9cd2)" style="fill: #0000ff"/>
   </g>
   <g id="patch_173">
    <path d="M 410.537715 123.382703 
L 524.04427 123.382703 
L 524.04427 115.20973 
L 410.537715 115.20973 
z
" clip-path="url(#pb50b7e9cd2)" style="fill: #0000ff"/>
   </g>
   <g id="patch_174">
    <path d="M 410.537715 123.382703 
L 524.04427 123.382703 
L 524.04427 115.20973 
L 410.537715 115.20973 
z
" clip-path="url(#pb50b7e9cd2)" style="fill: #0000ff"/>
   </g>
   <g id="patch_175">
    <path d="M 413.578069 123.382703 
L 513.909757 123.382703 
L 513.909757 115.20973 
L 413.578069 115.20973 
z
" clip-path="url(#pb50b7e9cd2)" style="fill: #0000ff"/>
   </g>
   <g id="patch_176">
    <path d="M 414.591521 123.382703 
L 523.030819 123.382703 
L 523.030819 115.20973 
L 414.591521 115.20973 
z
" clip-path="url(#pb50b7e9cd2)" style="fill: #0000ff"/>
   </g>
   <g id="patch_177">
    <path d="M 420.672229 123.382703 
L 523.030819 123.382703 
L 523.030819 115.20973 
L 420.672229 115.20973 
z
" clip-path="url(#pb50b7e9cd2)" style="fill: #0000ff"/>
   </g>
   <g id="patch_178">
    <path d="M 420.672229 123.382703 
L 500.734888 123.382703 
L 500.734888 115.20973 
L 420.672229 115.20973 
z
" clip-path="url(#pb50b7e9cd2)" style="fill: #0000ff"/>
   </g>
   <g id="patch_179">
    <path d="M 441.954708 123.382703 
L 523.030819 123.382703 
L 523.030819 115.20973 
L 441.954708 115.20973 
z
" clip-path="url(#pb50b7e9cd2)" style="fill: #0000ff"/>
   </g>
   <g id="patch_180">
    <path d="M 443.981611 123.382703 
L 524.04427 123.382703 
L 524.04427 115.20973 
L 443.981611 115.20973 
z
" clip-path="url(#pb50b7e9cd2)" style="fill: #0000ff"/>
   </g>
   <g id="patch_181">
    <path d="M 444.995062 123.382703 
L 536.205687 123.382703 
L 536.205687 115.20973 
L 444.995062 115.20973 
z
" clip-path="url(#pb50b7e9cd2)" style="fill: #0000ff"/>
   </g>
   <g id="patch_182">
    <path d="M 446.008514 123.382703 
L 533.165333 123.382703 
L 533.165333 115.20973 
L 446.008514 115.20973 
z
" clip-path="url(#pb50b7e9cd2)" style="fill: #0000ff"/>
   </g>
   <g id="patch_183">
    <path d="M 446.008514 123.382703 
L 523.030819 123.382703 
L 523.030819 115.20973 
L 446.008514 115.20973 
z
" clip-path="url(#pb50b7e9cd2)" style="fill: #0000ff"/>
   </g>
   <g id="patch_184">
    <path d="M 447.021965 123.382703 
L 523.030819 123.382703 
L 523.030819 115.20973 
L 447.021965 115.20973 
z
" clip-path="url(#pb50b7e9cd2)" style="fill: #0000ff"/>
   </g>
   <g id="patch_185">
    <path d="M 448.035416 123.382703 
L 532.151881 123.382703 
L 532.151881 115.20973 
L 448.035416 115.20973 
z
" clip-path="url(#pb50b7e9cd2)" style="fill: #0000ff"/>
   </g>
   <g id="patch_186">
    <path d="M 449.048868 123.382703 
L 523.030819 123.382703 
L 523.030819 115.20973 
L 449.048868 115.20973 
z
" clip-path="url(#pb50b7e9cd2)" style="fill: #0000ff"/>
   </g>
   <g id="patch_187">
    <path d="M 449.048868 123.382703 
L 511.882854 123.382703 
L 511.882854 115.20973 
L 449.048868 115.20973 
z
" clip-path="url(#pb50b7e9cd2)" style="fill: #0000ff"/>
   </g>
   <g id="patch_188">
    <path d="M 451.07577 123.382703 
L 526.071173 123.382703 
L 526.071173 115.20973 
L 451.07577 115.20973 
z
" clip-path="url(#pb50b7e9cd2)" style="fill: #0000ff"/>
   </g>
   <g id="patch_189">
    <path d="M 451.07577 123.382703 
L 527.084625 123.382703 
L 527.084625 115.20973 
L 451.07577 115.20973 
z
" clip-path="url(#pb50b7e9cd2)" style="fill: #0000ff"/>
   </g>
   <g id="patch_190">
    <path d="M 451.07577 123.382703 
L 503.775243 123.382703 
L 503.775243 115.20973 
L 451.07577 115.20973 
z
" clip-path="url(#pb50b7e9cd2)" style="fill: #0000ff"/>
   </g>
   <g id="patch_191">
    <path d="M 451.07577 123.382703 
L 503.775243 123.382703 
L 503.775243 115.20973 
L 451.07577 115.20973 
z
" clip-path="url(#pb50b7e9cd2)" style="fill: #0000ff"/>
   </g>
   <g id="patch_192">
    <path d="M 451.07577 123.382703 
L 523.030819 123.382703 
L 523.030819 115.20973 
L 451.07577 115.20973 
z
" clip-path="url(#pb50b7e9cd2)" style="fill: #0000ff"/>
   </g>
   <g id="patch_193">
    <path d="M 451.07577 123.382703 
L 523.030819 123.382703 
L 523.030819 115.20973 
L 451.07577 115.20973 
z
" clip-path="url(#pb50b7e9cd2)" style="fill: #0000ff"/>
   </g>
   <g id="patch_194">
    <path d="M 451.07577 123.382703 
L 524.04427 123.382703 
L 524.04427 115.20973 
L 451.07577 115.20973 
z
" clip-path="url(#pb50b7e9cd2)" style="fill: #0000ff"/>
   </g>
   <g id="patch_195">
    <path d="M 451.07577 123.382703 
L 511.882854 123.382703 
L 511.882854 115.20973 
L 451.07577 115.20973 
z
" clip-path="url(#pb50b7e9cd2)" style="fill: #0000ff"/>
   </g>
   <g id="patch_196">
    <path d="M 451.07577 123.382703 
L 523.030819 123.382703 
L 523.030819 115.20973 
L 451.07577 115.20973 
z
" clip-path="url(#pb50b7e9cd2)" style="fill: #0000ff"/>
   </g>
   <g id="patch_197">
    <path d="M 451.07577 123.382703 
L 527.084625 123.382703 
L 527.084625 115.20973 
L 451.07577 115.20973 
z
" clip-path="url(#pb50b7e9cd2)" style="fill: #0000ff"/>
   </g>
   <g id="patch_198">
    <path d="M 452.089222 123.382703 
L 523.030819 123.382703 
L 523.030819 115.20973 
L 452.089222 115.20973 
z
" clip-path="url(#pb50b7e9cd2)" style="fill: #0000ff"/>
   </g>
   <g id="patch_199">
    <path d="M 452.089222 123.382703 
L 522.017368 123.382703 
L 522.017368 115.20973 
L 452.089222 115.20973 
z
" clip-path="url(#pb50b7e9cd2)" style="fill: #0000ff"/>
   </g>
   <g id="patch_200">
    <path d="M 452.089222 123.382703 
L 523.030819 123.382703 
L 523.030819 115.20973 
L 452.089222 115.20973 
z
" clip-path="url(#pb50b7e9cd2)" style="fill: #0000ff"/>
   </g>
   <g id="patch_201">
    <path d="M 454.116125 123.382703 
L 503.775243 123.382703 
L 503.775243 115.20973 
L 454.116125 115.20973 
z
" clip-path="url(#pb50b7e9cd2)" style="fill: #0000ff"/>
   </g>
   <g id="patch_202">
    <path d="M 455.129576 123.382703 
L 523.030819 123.382703 
L 523.030819 115.20973 
L 455.129576 115.20973 
z
" clip-path="url(#pb50b7e9cd2)" style="fill: #0000ff"/>
   </g>
   <g id="patch_203">
    <path d="M 537.219138 119.602703 
L 659.846756 119.602703 
L 659.846756 118.98973 
L 537.219138 118.98973 
z
" clip-path="url(#pb50b7e9cd2)" style="fill: #0000ff"/>
   </g>
   <g id="patch_204">
    <path d="M 660.860208 123.382703 
L 771.326409 123.382703 
L 771.326409 115.20973 
L 660.860208 115.20973 
z
" clip-path="url(#pb50b7e9cd2)" style="fill: #0000ff"/>
   </g>
   <g id="patch_205">
    <path d="M 712.546229 123.382703 
L 770.312958 123.382703 
L 770.312958 115.20973 
L 712.546229 115.20973 
z
" clip-path="url(#pb50b7e9cd2)" style="fill: #0000ff"/>
   </g>
   <g id="patch_206">
    <path d="M 712.546229 123.382703 
L 766.259152 123.382703 
L 766.259152 115.20973 
L 712.546229 115.20973 
z
" clip-path="url(#pb50b7e9cd2)" style="fill: #0000ff"/>
   </g>
   <g id="patch_207">
    <path d="M 714.573131 123.382703 
L 770.312958 123.382703 
L 770.312958 115.20973 
L 714.573131 115.20973 
z
" clip-path="url(#pb50b7e9cd2)" style="fill: #0000ff"/>
   </g>
   <g id="patch_208">
    <path d="M 772.33986 119.602703 
L 850.375617 119.602703 
L 850.375617 118.98973 
L 772.33986 118.98973 
z
" clip-path="url(#pb50b7e9cd2)" style="fill: #0000ff"/>
   </g>
   <g id="patch_209">
    <path d="M 144 99.17027 
L 230.143368 99.17027 
L 230.143368 98.557297 
L 144 98.557297 
z
" clip-path="url(#pb50b7e9cd2)" style="fill: #0000ff"/>
   </g>
   <g id="patch_210">
    <path d="M 231.156819 102.95027 
L 349.730632 102.95027 
L 349.730632 94.777297 
L 231.156819 94.777297 
z
" clip-path="url(#pb50b7e9cd2)" style="fill: #0000ff"/>
   </g>
   <g id="patch_211">
    <path d="M 231.156819 102.95027 
L 350.744083 102.95027 
L 350.744083 94.777297 
L 231.156819 94.777297 
z
" clip-path="url(#pb50b7e9cd2)" style="fill: #0000ff"/>
   </g>
   <g id="patch_212">
    <path d="M 231.156819 102.95027 
L 348.71718 102.95027 
L 348.71718 94.777297 
L 231.156819 94.777297 
z
" clip-path="url(#pb50b7e9cd2)" style="fill: #0000ff"/>
   </g>
   <g id="patch_213">
    <path d="M 231.156819 102.95027 
L 348.71718 102.95027 
L 348.71718 94.777297 
L 231.156819 94.777297 
z
" clip-path="url(#pb50b7e9cd2)" style="fill: #0000ff"/>
   </g>
   <g id="patch_214">
    <path d="M 232.170271 102.95027 
L 349.730632 102.95027 
L 349.730632 94.777297 
L 232.170271 94.777297 
z
" clip-path="url(#pb50b7e9cd2)" style="fill: #0000ff"/>
   </g>
   <g id="patch_215">
    <path d="M 232.170271 102.95027 
L 349.730632 102.95027 
L 349.730632 94.777297 
L 232.170271 94.777297 
z
" clip-path="url(#pb50b7e9cd2)" style="fill: #0000ff"/>
   </g>
   <g id="patch_216">
    <path d="M 232.170271 102.95027 
L 349.730632 102.95027 
L 349.730632 94.777297 
L 232.170271 94.777297 
z
" clip-path="url(#pb50b7e9cd2)" style="fill: #0000ff"/>
   </g>
   <g id="patch_217">
    <path d="M 232.170271 102.95027 
L 351.757534 102.95027 
L 351.757534 94.777297 
L 232.170271 94.777297 
z
" clip-path="url(#pb50b7e9cd2)" style="fill: #0000ff"/>
   </g>
   <g id="patch_218">
    <path d="M 232.170271 102.95027 
L 349.730632 102.95027 
L 349.730632 94.777297 
L 232.170271 94.777297 
z
" clip-path="url(#pb50b7e9cd2)" style="fill: #0000ff"/>
   </g>
   <g id="patch_219">
    <path d="M 232.170271 102.95027 
L 351.757534 102.95027 
L 351.757534 94.777297 
L 232.170271 94.777297 
z
" clip-path="url(#pb50b7e9cd2)" style="fill: #0000ff"/>
   </g>
   <g id="patch_220">
    <path d="M 234.197174 102.95027 
L 349.730632 102.95027 
L 349.730632 94.777297 
L 234.197174 94.777297 
z
" clip-path="url(#pb50b7e9cd2)" style="fill: #0000ff"/>
   </g>
   <g id="patch_221">
    <path d="M 284.869743 102.95027 
L 349.730632 102.95027 
L 349.730632 94.777297 
L 284.869743 94.777297 
z
" clip-path="url(#pb50b7e9cd2)" style="fill: #0000ff"/>
   </g>
   <g id="patch_222">
    <path d="M 284.869743 102.95027 
L 588.905159 102.95027 
L 588.905159 94.777297 
L 284.869743 94.777297 
z
" clip-path="url(#pb50b7e9cd2)" style="fill: #0000ff"/>
   </g>
   <g id="patch_223">
    <path d="M 284.869743 102.95027 
L 350.744083 102.95027 
L 350.744083 94.777297 
L 284.869743 94.777297 
z
" clip-path="url(#pb50b7e9cd2)" style="fill: #0000ff"/>
   </g>
   <g id="patch_224">
    <path d="M 290.950451 102.95027 
L 349.730632 102.95027 
L 349.730632 94.777297 
L 290.950451 94.777297 
z
" clip-path="url(#pb50b7e9cd2)" style="fill: #0000ff"/>
   </g>
   <g id="patch_225">
    <path d="M 298.044611 102.95027 
L 350.744083 102.95027 
L 350.744083 94.777297 
L 298.044611 94.777297 
z
" clip-path="url(#pb50b7e9cd2)" style="fill: #0000ff"/>
   </g>
   <g id="patch_226">
    <path d="M 415.604972 102.95027 
L 600.053124 102.95027 
L 600.053124 94.777297 
L 415.604972 94.777297 
z
" clip-path="url(#pb50b7e9cd2)" style="fill: #0000ff"/>
   </g>
   <g id="patch_227">
    <path d="M 415.604972 102.95027 
L 604.10693 102.95027 
L 604.10693 94.777297 
L 415.604972 94.777297 
z
" clip-path="url(#pb50b7e9cd2)" style="fill: #0000ff"/>
   </g>
   <g id="patch_228">
    <path d="M 416.618423 102.95027 
L 601.066576 102.95027 
L 601.066576 94.777297 
L 416.618423 94.777297 
z
" clip-path="url(#pb50b7e9cd2)" style="fill: #0000ff"/>
   </g>
   <g id="patch_229">
    <path d="M 416.618423 102.95027 
L 601.066576 102.95027 
L 601.066576 94.777297 
L 416.618423 94.777297 
z
" clip-path="url(#pb50b7e9cd2)" style="fill: #0000ff"/>
   </g>
   <g id="patch_230">
    <path d="M 605.120381 99.17027 
L 605.120381 99.17027 
L 605.120381 98.557297 
L 605.120381 98.557297 
z
" clip-path="url(#pb50b7e9cd2)" style="fill: #0000ff"/>
   </g>
   <g id="patch_231">
    <path d="M 144 78.737838 
L 320.340541 78.737838 
L 320.340541 78.124865 
L 144 78.124865 
z
" clip-path="url(#pb50b7e9cd2)" style="fill: #0000ff"/>
   </g>
   <g id="patch_232">
    <path d="M 321.353993 82.517838 
L 442.968159 82.517838 
L 442.968159 74.344865 
L 321.353993 74.344865 
z
" clip-path="url(#pb50b7e9cd2)" style="fill: #0000ff"/>
   </g>
   <g id="patch_233">
    <path d="M 342.636472 82.517838 
L 438.914354 82.517838 
L 438.914354 74.344865 
L 342.636472 74.344865 
z
" clip-path="url(#pb50b7e9cd2)" style="fill: #0000ff"/>
   </g>
   <g id="patch_234">
    <path d="M 352.770986 82.517838 
L 441.954708 82.517838 
L 441.954708 74.344865 
L 352.770986 74.344865 
z
" clip-path="url(#pb50b7e9cd2)" style="fill: #0000ff"/>
   </g>
   <g id="patch_235">
    <path d="M 353.784437 82.517838 
L 442.968159 82.517838 
L 442.968159 74.344865 
L 353.784437 74.344865 
z
" clip-path="url(#pb50b7e9cd2)" style="fill: #0000ff"/>
   </g>
   <g id="patch_236">
    <path d="M 354.797889 82.517838 
L 442.968159 82.517838 
L 442.968159 74.344865 
L 354.797889 74.344865 
z
" clip-path="url(#pb50b7e9cd2)" style="fill: #0000ff"/>
   </g>
   <g id="patch_237">
    <path d="M 354.797889 82.517838 
L 442.968159 82.517838 
L 442.968159 74.344865 
L 354.797889 74.344865 
z
" clip-path="url(#pb50b7e9cd2)" style="fill: #0000ff"/>
   </g>
   <g id="patch_238">
    <path d="M 367.972757 82.517838 
L 441.954708 82.517838 
L 441.954708 74.344865 
L 367.972757 74.344865 
z
" clip-path="url(#pb50b7e9cd2)" style="fill: #0000ff"/>
   </g>
   <g id="patch_239">
    <path d="M 367.972757 82.517838 
L 442.968159 82.517838 
L 442.968159 74.344865 
L 367.972757 74.344865 
z
" clip-path="url(#pb50b7e9cd2)" style="fill: #0000ff"/>
   </g>
   <g id="patch_240">
    <path d="M 443.981611 78.737838 
L 457.156479 78.737838 
L 457.156479 78.124865 
L 443.981611 78.124865 
z
" clip-path="url(#pb50b7e9cd2)" style="fill: #0000ff"/>
   </g>
   <g id="patch_241">
    <path d="M 458.16993 82.517838 
L 690.250298 82.517838 
L 690.250298 74.344865 
L 458.16993 74.344865 
z
" clip-path="url(#pb50b7e9cd2)" style="fill: #0000ff"/>
   </g>
   <g id="patch_242">
    <path d="M 472.35825 82.517838 
L 690.250298 82.517838 
L 690.250298 74.344865 
L 472.35825 74.344865 
z
" clip-path="url(#pb50b7e9cd2)" style="fill: #0000ff"/>
   </g>
   <g id="patch_243">
    <path d="M 485.533118 82.517838 
L 677.07543 82.517838 
L 677.07543 74.344865 
L 485.533118 74.344865 
z
" clip-path="url(#pb50b7e9cd2)" style="fill: #0000ff"/>
   </g>
   <g id="patch_244">
    <path d="M 493.640729 82.517838 
L 684.16959 82.517838 
L 684.16959 74.344865 
L 493.640729 74.344865 
z
" clip-path="url(#pb50b7e9cd2)" style="fill: #0000ff"/>
   </g>
   <g id="patch_245">
    <path d="M 498.707986 82.517838 
L 677.07543 82.517838 
L 677.07543 74.344865 
L 498.707986 74.344865 
z
" clip-path="url(#pb50b7e9cd2)" style="fill: #0000ff"/>
   </g>
   <g id="patch_246">
    <path d="M 691.263749 78.737838 
L 785.514728 78.737838 
L 785.514728 78.124865 
L 691.263749 78.124865 
z
" clip-path="url(#pb50b7e9cd2)" style="fill: #0000ff"/>
   </g>
   <g id="patch_247">
    <path d="M 144 58.305405 
L 228.116465 58.305405 
L 228.116465 57.692432 
L 144 57.692432 
z
" clip-path="url(#pb50b7e9cd2)" style="fill: #0000ff"/>
   </g>
   <g id="patch_248">
    <path d="M 229.129917 62.085405 
L 484.519666 62.085405 
L 484.519666 53.912432 
L 229.129917 53.912432 
z
" clip-path="url(#pb50b7e9cd2)" style="fill: #0000ff"/>
   </g>
   <g id="patch_249">
    <path d="M 281.829389 62.085405 
L 392.29559 62.085405 
L 392.29559 53.912432 
L 281.829389 53.912432 
z
" clip-path="url(#pb50b7e9cd2)" style="fill: #0000ff"/>
   </g>
   <g id="patch_250">
    <path d="M 281.829389 62.085405 
L 390.268687 62.085405 
L 390.268687 53.912432 
L 281.829389 53.912432 
z
" clip-path="url(#pb50b7e9cd2)" style="fill: #0000ff"/>
   </g>
   <g id="patch_251">
    <path d="M 282.84284 62.085405 
L 390.268687 62.085405 
L 390.268687 53.912432 
L 282.84284 53.912432 
z
" clip-path="url(#pb50b7e9cd2)" style="fill: #0000ff"/>
   </g>
   <g id="patch_252">
    <path d="M 288.923548 62.085405 
L 389.255236 62.085405 
L 389.255236 53.912432 
L 288.923548 53.912432 
z
" clip-path="url(#pb50b7e9cd2)" style="fill: #0000ff"/>
   </g>
   <g id="patch_253">
    <path d="M 289.937 62.085405 
L 390.268687 62.085405 
L 390.268687 53.912432 
L 289.937 53.912432 
z
" clip-path="url(#pb50b7e9cd2)" style="fill: #0000ff"/>
   </g>
   <g id="patch_254">
    <path d="M 289.937 62.085405 
L 389.255236 62.085405 
L 389.255236 53.912432 
L 289.937 53.912432 
z
" clip-path="url(#pb50b7e9cd2)" style="fill: #0000ff"/>
   </g>
   <g id="patch_255">
    <path d="M 289.937 62.085405 
L 392.29559 62.085405 
L 392.29559 53.912432 
L 289.937 53.912432 
z
" clip-path="url(#pb50b7e9cd2)" style="fill: #0000ff"/>
   </g>
   <g id="patch_256">
    <path d="M 290.950451 62.085405 
L 397.362847 62.085405 
L 397.362847 53.912432 
L 290.950451 53.912432 
z
" clip-path="url(#pb50b7e9cd2)" style="fill: #0000ff"/>
   </g>
   <g id="patch_257">
    <path d="M 292.977354 62.085405 
L 392.29559 62.085405 
L 392.29559 53.912432 
L 292.977354 53.912432 
z
" clip-path="url(#pb50b7e9cd2)" style="fill: #0000ff"/>
   </g>
   <g id="patch_258">
    <path d="M 298.044611 62.085405 
L 390.268687 62.085405 
L 390.268687 53.912432 
L 298.044611 53.912432 
z
" clip-path="url(#pb50b7e9cd2)" style="fill: #0000ff"/>
   </g>
   <g id="patch_259">
    <path d="M 298.044611 62.085405 
L 390.268687 62.085405 
L 390.268687 53.912432 
L 298.044611 53.912432 
z
" clip-path="url(#pb50b7e9cd2)" style="fill: #0000ff"/>
   </g>
   <g id="patch_260">
    <path d="M 298.044611 62.085405 
L 389.255236 62.085405 
L 389.255236 53.912432 
L 298.044611 53.912432 
z
" clip-path="url(#pb50b7e9cd2)" style="fill: #0000ff"/>
   </g>
   <g id="patch_261">
    <path d="M 298.044611 62.085405 
L 390.268687 62.085405 
L 390.268687 53.912432 
L 298.044611 53.912432 
z
" clip-path="url(#pb50b7e9cd2)" style="fill: #0000ff"/>
   </g>
   <g id="patch_262">
    <path d="M 299.058062 62.085405 
L 390.268687 62.085405 
L 390.268687 53.912432 
L 299.058062 53.912432 
z
" clip-path="url(#pb50b7e9cd2)" style="fill: #0000ff"/>
   </g>
   <g id="patch_263">
    <path d="M 299.058062 62.085405 
L 390.268687 62.085405 
L 390.268687 53.912432 
L 299.058062 53.912432 
z
" clip-path="url(#pb50b7e9cd2)" style="fill: #0000ff"/>
   </g>
   <g id="patch_264">
    <path d="M 299.058062 62.085405 
L 390.268687 62.085405 
L 390.268687 53.912432 
L 299.058062 53.912432 
z
" clip-path="url(#pb50b7e9cd2)" style="fill: #0000ff"/>
   </g>
   <g id="patch_265">
    <path d="M 299.058062 62.085405 
L 389.255236 62.085405 
L 389.255236 53.912432 
L 299.058062 53.912432 
z
" clip-path="url(#pb50b7e9cd2)" style="fill: #0000ff"/>
   </g>
   <g id="patch_266">
    <path d="M 299.058062 62.085405 
L 389.255236 62.085405 
L 389.255236 53.912432 
L 299.058062 53.912432 
z
" clip-path="url(#pb50b7e9cd2)" style="fill: #0000ff"/>
   </g>
   <g id="patch_267">
    <path d="M 299.058062 62.085405 
L 388.241784 62.085405 
L 388.241784 53.912432 
L 299.058062 53.912432 
z
" clip-path="url(#pb50b7e9cd2)" style="fill: #0000ff"/>
   </g>
   <g id="patch_268">
    <path d="M 299.058062 62.085405 
L 390.268687 62.085405 
L 390.268687 53.912432 
L 299.058062 53.912432 
z
" clip-path="url(#pb50b7e9cd2)" style="fill: #0000ff"/>
   </g>
   <g id="patch_269">
    <path d="M 299.058062 62.085405 
L 391.282139 62.085405 
L 391.282139 53.912432 
L 299.058062 53.912432 
z
" clip-path="url(#pb50b7e9cd2)" style="fill: #0000ff"/>
   </g>
   <g id="patch_270">
    <path d="M 299.058062 62.085405 
L 412.564618 62.085405 
L 412.564618 53.912432 
L 299.058062 53.912432 
z
" clip-path="url(#pb50b7e9cd2)" style="fill: #0000ff"/>
   </g>
   <g id="patch_271">
    <path d="M 300.071514 62.085405 
L 390.268687 62.085405 
L 390.268687 53.912432 
L 300.071514 53.912432 
z
" clip-path="url(#pb50b7e9cd2)" style="fill: #0000ff"/>
   </g>
   <g id="patch_272">
    <path d="M 303.111868 62.085405 
L 392.29559 62.085405 
L 392.29559 53.912432 
L 303.111868 53.912432 
z
" clip-path="url(#pb50b7e9cd2)" style="fill: #0000ff"/>
   </g>
   <g id="patch_273">
    <path d="M 304.125319 62.085405 
L 390.268687 62.085405 
L 390.268687 53.912432 
L 304.125319 53.912432 
z
" clip-path="url(#pb50b7e9cd2)" style="fill: #0000ff"/>
   </g>
   <g id="patch_274">
    <path d="M 312.23293 62.085405 
L 390.268687 62.085405 
L 390.268687 53.912432 
L 312.23293 53.912432 
z
" clip-path="url(#pb50b7e9cd2)" style="fill: #0000ff"/>
   </g>
   <g id="patch_275">
    <path d="M 312.23293 62.085405 
L 390.268687 62.085405 
L 390.268687 53.912432 
L 312.23293 53.912432 
z
" clip-path="url(#pb50b7e9cd2)" style="fill: #0000ff"/>
   </g>
   <g id="patch_276">
    <path d="M 312.23293 62.085405 
L 389.255236 62.085405 
L 389.255236 53.912432 
L 312.23293 53.912432 
z
" clip-path="url(#pb50b7e9cd2)" style="fill: #0000ff"/>
   </g>
   <g id="patch_277">
    <path d="M 312.23293 62.085405 
L 389.255236 62.085405 
L 389.255236 53.912432 
L 312.23293 53.912432 
z
" clip-path="url(#pb50b7e9cd2)" style="fill: #0000ff"/>
   </g>
   <g id="patch_278">
    <path d="M 312.23293 62.085405 
L 377.093819 62.085405 
L 377.093819 53.912432 
L 312.23293 53.912432 
z
" clip-path="url(#pb50b7e9cd2)" style="fill: #0000ff"/>
   </g>
   <g id="patch_279">
    <path d="M 313.246382 62.085405 
L 373.040014 62.085405 
L 373.040014 53.912432 
L 313.246382 53.912432 
z
" clip-path="url(#pb50b7e9cd2)" style="fill: #0000ff"/>
   </g>
   <g id="patch_280">
    <path d="M 313.246382 62.085405 
L 390.268687 62.085405 
L 390.268687 53.912432 
L 313.246382 53.912432 
z
" clip-path="url(#pb50b7e9cd2)" style="fill: #0000ff"/>
   </g>
   <g id="patch_281">
    <path d="M 313.246382 62.085405 
L 389.255236 62.085405 
L 389.255236 53.912432 
L 313.246382 53.912432 
z
" clip-path="url(#pb50b7e9cd2)" style="fill: #0000ff"/>
   </g>
   <g id="patch_282">
    <path d="M 313.246382 62.085405 
L 389.255236 62.085405 
L 389.255236 53.912432 
L 313.246382 53.912432 
z
" clip-path="url(#pb50b7e9cd2)" style="fill: #0000ff"/>
   </g>
   <g id="patch_283">
    <path d="M 313.246382 62.085405 
L 390.268687 62.085405 
L 390.268687 53.912432 
L 313.246382 53.912432 
z
" clip-path="url(#pb50b7e9cd2)" style="fill: #0000ff"/>
   </g>
   <g id="patch_284">
    <path d="M 313.246382 62.085405 
L 389.255236 62.085405 
L 389.255236 53.912432 
L 313.246382 53.912432 
z
" clip-path="url(#pb50b7e9cd2)" style="fill: #0000ff"/>
   </g>
   <g id="patch_285">
    <path d="M 316.286736 62.085405 
L 389.255236 62.085405 
L 389.255236 53.912432 
L 316.286736 53.912432 
z
" clip-path="url(#pb50b7e9cd2)" style="fill: #0000ff"/>
   </g>
   <g id="patch_286">
    <path d="M 409.524264 62.085405 
L 656.806402 62.085405 
L 656.806402 53.912432 
L 409.524264 53.912432 
z
" clip-path="url(#pb50b7e9cd2)" style="fill: #0000ff"/>
   </g>
   <g id="patch_287">
    <path d="M 427.766389 62.085405 
L 654.779499 62.085405 
L 654.779499 53.912432 
L 427.766389 53.912432 
z
" clip-path="url(#pb50b7e9cd2)" style="fill: #0000ff"/>
   </g>
   <g id="patch_288">
    <path d="M 439.927805 62.085405 
L 654.779499 62.085405 
L 654.779499 53.912432 
L 439.927805 53.912432 
z
" clip-path="url(#pb50b7e9cd2)" style="fill: #0000ff"/>
   </g>
   <g id="patch_289">
    <path d="M 657.819854 58.305405 
L 670.994722 58.305405 
L 670.994722 57.692432 
L 657.819854 57.692432 
z
" clip-path="url(#pb50b7e9cd2)" style="fill: #0000ff"/>
   </g>
   <g id="patch_290">
    <path d="M 144 37.872973 
L 526.071173 37.872973 
L 526.071173 37.26 
L 144 37.26 
z
" clip-path="url(#pb50b7e9cd2)" style="fill: #0000ff"/>
   </g>
   <g id="patch_291">
    <path d="M 527.084625 41.652973 
L 641.604631 41.652973 
L 641.604631 33.48 
L 527.084625 33.48 
z
" clip-path="url(#pb50b7e9cd2)" style="fill: #0000ff"/>
   </g>
   <g id="patch_292">
    <path d="M 527.084625 41.652973 
L 629.443215 41.652973 
L 629.443215 33.48 
L 527.084625 33.48 
z
" clip-path="url(#pb50b7e9cd2)" style="fill: #0000ff"/>
   </g>
   <g id="patch_293">
    <path d="M 527.084625 41.652973 
L 643.631534 41.652973 
L 643.631534 33.48 
L 527.084625 33.48 
z
" clip-path="url(#pb50b7e9cd2)" style="fill: #0000ff"/>
   </g>
   <g id="patch_294">
    <path d="M 527.084625 41.652973 
L 629.443215 41.652973 
L 629.443215 33.48 
L 527.084625 33.48 
z
" clip-path="url(#pb50b7e9cd2)" style="fill: #0000ff"/>
   </g>
   <g id="patch_295">
    <path d="M 527.084625 41.652973 
L 642.618083 41.652973 
L 642.618083 33.48 
L 527.084625 33.48 
z
" clip-path="url(#pb50b7e9cd2)" style="fill: #0000ff"/>
   </g>
   <g id="patch_296">
    <path d="M 528.098076 41.652973 
L 639.577729 41.652973 
L 639.577729 33.48 
L 528.098076 33.48 
z
" clip-path="url(#pb50b7e9cd2)" style="fill: #0000ff"/>
   </g>
   <g id="patch_297">
    <path d="M 528.098076 41.652973 
L 629.443215 41.652973 
L 629.443215 33.48 
L 528.098076 33.48 
z
" clip-path="url(#pb50b7e9cd2)" style="fill: #0000ff"/>
   </g>
   <g id="patch_298">
    <path d="M 528.098076 41.652973 
L 630.456666 41.652973 
L 630.456666 33.48 
L 528.098076 33.48 
z
" clip-path="url(#pb50b7e9cd2)" style="fill: #0000ff"/>
   </g>
   <g id="patch_299">
    <path d="M 528.098076 41.652973 
L 620.322152 41.652973 
L 620.322152 33.48 
L 528.098076 33.48 
z
" clip-path="url(#pb50b7e9cd2)" style="fill: #0000ff"/>
   </g>
   <g id="patch_300">
    <path d="M 528.098076 41.652973 
L 639.577729 41.652973 
L 639.577729 33.48 
L 528.098076 33.48 
z
" clip-path="url(#pb50b7e9cd2)" style="fill: #0000ff"/>
   </g>
   <g id="patch_301">
    <path d="M 528.098076 41.652973 
L 629.443215 41.652973 
L 629.443215 33.48 
L 528.098076 33.48 
z
" clip-path="url(#pb50b7e9cd2)" style="fill: #0000ff"/>
   </g>
   <g id="patch_302">
    <path d="M 537.219138 41.652973 
L 629.443215 41.652973 
L 629.443215 33.48 
L 537.219138 33.48 
z
" clip-path="url(#pb50b7e9cd2)" style="fill: #0000ff"/>
   </g>
   <g id="patch_303">
    <path d="M 539.246041 41.652973 
L 647.68534 41.652973 
L 647.68534 33.48 
L 539.246041 33.48 
z
" clip-path="url(#pb50b7e9cd2)" style="fill: #0000ff"/>
   </g>
   <g id="patch_304">
    <path d="M 544.313298 41.652973 
L 647.68534 41.652973 
L 647.68534 33.48 
L 544.313298 33.48 
z
" clip-path="url(#pb50b7e9cd2)" style="fill: #0000ff"/>
   </g>
   <g id="patch_305">
    <path d="M 546.340201 41.652973 
L 627.416312 41.652973 
L 627.416312 33.48 
L 546.340201 33.48 
z
" clip-path="url(#pb50b7e9cd2)" style="fill: #0000ff"/>
   </g>
   <g id="patch_306">
    <path d="M 549.380555 41.652973 
L 642.618083 41.652973 
L 642.618083 33.48 
L 549.380555 33.48 
z
" clip-path="url(#pb50b7e9cd2)" style="fill: #0000ff"/>
   </g>
   <g id="patch_307">
    <path d="M 549.380555 41.652973 
L 636.537374 41.652973 
L 636.537374 33.48 
L 549.380555 33.48 
z
" clip-path="url(#pb50b7e9cd2)" style="fill: #0000ff"/>
   </g>
   <g id="patch_308">
    <path d="M 549.380555 41.652973 
L 639.577729 41.652973 
L 639.577729 33.48 
L 549.380555 33.48 
z
" clip-path="url(#pb50b7e9cd2)" style="fill: #0000ff"/>
   </g>
   <g id="patch_309">
    <path d="M 563.568875 41.652973 
L 629.443215 41.652973 
L 629.443215 33.48 
L 563.568875 33.48 
z
" clip-path="url(#pb50b7e9cd2)" style="fill: #0000ff"/>
   </g>
   <g id="patch_310">
    <path d="M 563.568875 41.652973 
L 639.577729 41.652973 
L 639.577729 33.48 
L 563.568875 33.48 
z
" clip-path="url(#pb50b7e9cd2)" style="fill: #0000ff"/>
   </g>
   <g id="patch_311">
    <path d="M 565.595777 41.652973 
L 645.658437 41.652973 
L 645.658437 33.48 
L 565.595777 33.48 
z
" clip-path="url(#pb50b7e9cd2)" style="fill: #0000ff"/>
   </g>
   <g id="patch_312">
    <path d="M 565.595777 41.652973 
L 633.49702 41.652973 
L 633.49702 33.48 
L 565.595777 33.48 
z
" clip-path="url(#pb50b7e9cd2)" style="fill: #0000ff"/>
   </g>
   <g id="patch_313">
    <path d="M 565.595777 41.652973 
L 629.443215 41.652973 
L 629.443215 33.48 
L 565.595777 33.48 
z
" clip-path="url(#pb50b7e9cd2)" style="fill: #0000ff"/>
   </g>
   <g id="patch_314">
    <path d="M 568.636131 41.652973 
L 640.59118 41.652973 
L 640.59118 33.48 
L 568.636131 33.48 
z
" clip-path="url(#pb50b7e9cd2)" style="fill: #0000ff"/>
   </g>
   <g id="patch_315">
    <path d="M 648.698791 37.872973 
L 807.810659 37.872973 
L 807.810659 37.26 
L 648.698791 37.26 
z
" clip-path="url(#pb50b7e9cd2)" style="fill: #0000ff"/>
   </g>
   <g id="patch_316">
    <path d="M 808.82411 41.652973 
L 934.492082 41.652973 
L 934.492082 33.48 
L 808.82411 33.48 
z
" clip-path="url(#pb50b7e9cd2)" style="fill: #0000ff"/>
   </g>
   <g id="patch_317">
    <path d="M 935.505534 37.872973 
L 994.285714 37.872973 
L 994.285714 37.26 
L 935.505534 37.26 
z
" clip-path="url(#pb50b7e9cd2)" style="fill: #0000ff"/>
   </g>
   <g id="matplotlib.axis_1">
    <g id="xtick_1">
     <g id="line2d_1">
      <defs>
       <path id="mb856dda38b" d="M 0 0 
L 0 3.5 
" style="stroke: #000000; stroke-width: 0.8"/>
      </defs>
      <g>
       <use xlink:href="#mb856dda38b" x="244.331687" y="192.24" style="stroke: #000000; stroke-width: 0.8"/>
      </g>
     </g>
     <g id="text_1">
      <!-- 100 -->
      <g transform="translate(234.787937 206.838437) scale(0.1 -0.1)">
       <defs>
        <path id="DejaVuSans-31" d="M 794 531 
L 1825 531 
L 1825 4091 
L 703 3866 
L 703 4441 
L 1819 4666 
L 2450 4666 
L 2450 531 
L 3481 531 
L 3481 0 
L 794 0 
L 794 531 
z
" transform="scale(0.015625)"/>
        <path id="DejaVuSans-30" d="M 2034 4250 
Q 1547 4250 1301 3770 
Q 1056 3291 1056 2328 
Q 1056 1369 1301 889 
Q 1547 409 2034 409 
Q 2525 409 2770 889 
Q 3016 1369 3016 2328 
Q 3016 3291 2770 3770 
Q 2525 4250 2034 4250 
z
M 2034 4750 
Q 2819 4750 3233 4129 
Q 3647 3509 3647 2328 
Q 3647 1150 3233 529 
Q 2819 -91 2034 -91 
Q 1250 -91 836 529 
Q 422 1150 422 2328 
Q 422 3509 836 4129 
Q 1250 4750 2034 4750 
z
" transform="scale(0.015625)"/>
       </defs>
       <use xlink:href="#DejaVuSans-31"/>
       <use xlink:href="#DejaVuSans-30" x="63.623047"/>
       <use xlink:href="#DejaVuSans-30" x="127.246094"/>
      </g>
     </g>
    </g>
    <g id="xtick_2">
     <g id="line2d_2">
      <g>
       <use xlink:href="#mb856dda38b" x="345.676826" y="192.24" style="stroke: #000000; stroke-width: 0.8"/>
      </g>
     </g>
     <g id="text_2">
      <!-- 200 -->
      <g transform="translate(336.133076 206.838437) scale(0.1 -0.1)">
       <defs>
        <path id="DejaVuSans-32" d="M 1228 531 
L 3431 531 
L 3431 0 
L 469 0 
L 469 531 
Q 828 903 1448 1529 
Q 2069 2156 2228 2338 
Q 2531 2678 2651 2914 
Q 2772 3150 2772 3378 
Q 2772 3750 2511 3984 
Q 2250 4219 1831 4219 
Q 1534 4219 1204 4116 
Q 875 4013 500 3803 
L 500 4441 
Q 881 4594 1212 4672 
Q 1544 4750 1819 4750 
Q 2544 4750 2975 4387 
Q 3406 4025 3406 3419 
Q 3406 3131 3298 2873 
Q 3191 2616 2906 2266 
Q 2828 2175 2409 1742 
Q 1991 1309 1228 531 
z
" transform="scale(0.015625)"/>
       </defs>
       <use xlink:href="#DejaVuSans-32"/>
       <use xlink:href="#DejaVuSans-30" x="63.623047"/>
       <use xlink:href="#DejaVuSans-30" x="127.246094"/>
      </g>
     </g>
    </g>
    <g id="xtick_3">
     <g id="line2d_3">
      <g>
       <use xlink:href="#mb856dda38b" x="447.021965" y="192.24" style="stroke: #000000; stroke-width: 0.8"/>
      </g>
     </g>
     <g id="text_3">
      <!-- 300 -->
      <g transform="translate(437.478215 206.838437) scale(0.1 -0.1)">
       <defs>
        <path id="DejaVuSans-33" d="M 2597 2516 
Q 3050 2419 3304 2112 
Q 3559 1806 3559 1356 
Q 3559 666 3084 287 
Q 2609 -91 1734 -91 
Q 1441 -91 1130 -33 
Q 819 25 488 141 
L 488 750 
Q 750 597 1062 519 
Q 1375 441 1716 441 
Q 2309 441 2620 675 
Q 2931 909 2931 1356 
Q 2931 1769 2642 2001 
Q 2353 2234 1838 2234 
L 1294 2234 
L 1294 2753 
L 1863 2753 
Q 2328 2753 2575 2939 
Q 2822 3125 2822 3475 
Q 2822 3834 2567 4026 
Q 2313 4219 1838 4219 
Q 1578 4219 1281 4162 
Q 984 4106 628 3988 
L 628 4550 
Q 988 4650 1302 4700 
Q 1616 4750 1894 4750 
Q 2613 4750 3031 4423 
Q 3450 4097 3450 3541 
Q 3450 3153 3228 2886 
Q 3006 2619 2597 2516 
z
" transform="scale(0.015625)"/>
       </defs>
       <use xlink:href="#DejaVuSans-33"/>
       <use xlink:href="#DejaVuSans-30" x="63.623047"/>
       <use xlink:href="#DejaVuSans-30" x="127.246094"/>
      </g>
     </g>
    </g>
    <g id="xtick_4">
     <g id="line2d_4">
      <g>
       <use xlink:href="#mb856dda38b" x="548.367104" y="192.24" style="stroke: #000000; stroke-width: 0.8"/>
      </g>
     </g>
     <g id="text_4">
      <!-- 400 -->
      <g transform="translate(538.823354 206.838437) scale(0.1 -0.1)">
       <defs>
        <path id="DejaVuSans-34" d="M 2419 4116 
L 825 1625 
L 2419 1625 
L 2419 4116 
z
M 2253 4666 
L 3047 4666 
L 3047 1625 
L 3713 1625 
L 3713 1100 
L 3047 1100 
L 3047 0 
L 2419 0 
L 2419 1100 
L 313 1100 
L 313 1709 
L 2253 4666 
z
" transform="scale(0.015625)"/>
       </defs>
       <use xlink:href="#DejaVuSans-34"/>
       <use xlink:href="#DejaVuSans-30" x="63.623047"/>
       <use xlink:href="#DejaVuSans-30" x="127.246094"/>
      </g>
     </g>
    </g>
    <g id="xtick_5">
     <g id="line2d_5">
      <g>
       <use xlink:href="#mb856dda38b" x="649.712242" y="192.24" style="stroke: #000000; stroke-width: 0.8"/>
      </g>
     </g>
     <g id="text_5">
      <!-- 500 -->
      <g transform="translate(640.168492 206.838437) scale(0.1 -0.1)">
       <defs>
        <path id="DejaVuSans-35" d="M 691 4666 
L 3169 4666 
L 3169 4134 
L 1269 4134 
L 1269 2991 
Q 1406 3038 1543 3061 
Q 1681 3084 1819 3084 
Q 2600 3084 3056 2656 
Q 3513 2228 3513 1497 
Q 3513 744 3044 326 
Q 2575 -91 1722 -91 
Q 1428 -91 1123 -41 
Q 819 9 494 109 
L 494 744 
Q 775 591 1075 516 
Q 1375 441 1709 441 
Q 2250 441 2565 725 
Q 2881 1009 2881 1497 
Q 2881 1984 2565 2268 
Q 2250 2553 1709 2553 
Q 1456 2553 1204 2497 
Q 953 2441 691 2322 
L 691 4666 
z
" transform="scale(0.015625)"/>
       </defs>
       <use xlink:href="#DejaVuSans-35"/>
       <use xlink:href="#DejaVuSans-30" x="63.623047"/>
       <use xlink:href="#DejaVuSans-30" x="127.246094"/>
      </g>
     </g>
    </g>
    <g id="xtick_6">
     <g id="line2d_6">
      <g>
       <use xlink:href="#mb856dda38b" x="751.057381" y="192.24" style="stroke: #000000; stroke-width: 0.8"/>
      </g>
     </g>
     <g id="text_6">
      <!-- 600 -->
      <g transform="translate(741.513631 206.838437) scale(0.1 -0.1)">
       <defs>
        <path id="DejaVuSans-36" d="M 2113 2584 
Q 1688 2584 1439 2293 
Q 1191 2003 1191 1497 
Q 1191 994 1439 701 
Q 1688 409 2113 409 
Q 2538 409 2786 701 
Q 3034 994 3034 1497 
Q 3034 2003 2786 2293 
Q 2538 2584 2113 2584 
z
M 3366 4563 
L 3366 3988 
Q 3128 4100 2886 4159 
Q 2644 4219 2406 4219 
Q 1781 4219 1451 3797 
Q 1122 3375 1075 2522 
Q 1259 2794 1537 2939 
Q 1816 3084 2150 3084 
Q 2853 3084 3261 2657 
Q 3669 2231 3669 1497 
Q 3669 778 3244 343 
Q 2819 -91 2113 -91 
Q 1303 -91 875 529 
Q 447 1150 447 2328 
Q 447 3434 972 4092 
Q 1497 4750 2381 4750 
Q 2619 4750 2861 4703 
Q 3103 4656 3366 4563 
z
" transform="scale(0.015625)"/>
       </defs>
       <use xlink:href="#DejaVuSans-36"/>
       <use xlink:href="#DejaVuSans-30" x="63.623047"/>
       <use xlink:href="#DejaVuSans-30" x="127.246094"/>
      </g>
     </g>
    </g>
    <g id="xtick_7">
     <g id="line2d_7">
      <g>
       <use xlink:href="#mb856dda38b" x="852.40252" y="192.24" style="stroke: #000000; stroke-width: 0.8"/>
      </g>
     </g>
     <g id="text_7">
      <!-- 700 -->
      <g transform="translate(842.85877 206.838437) scale(0.1 -0.1)">
       <defs>
        <path id="DejaVuSans-37" d="M 525 4666 
L 3525 4666 
L 3525 4397 
L 1831 0 
L 1172 0 
L 2766 4134 
L 525 4134 
L 525 4666 
z
" transform="scale(0.015625)"/>
       </defs>
       <use xlink:href="#DejaVuSans-37"/>
       <use xlink:href="#DejaVuSans-30" x="63.623047"/>
       <use xlink:href="#DejaVuSans-30" x="127.246094"/>
      </g>
     </g>
    </g>
    <g id="xtick_8">
     <g id="line2d_8">
      <g>
       <use xlink:href="#mb856dda38b" x="953.747659" y="192.24" style="stroke: #000000; stroke-width: 0.8"/>
      </g>
     </g>
     <g id="text_8">
      <!-- 800 -->
      <g transform="translate(944.203909 206.838437) scale(0.1 -0.1)">
       <defs>
        <path id="DejaVuSans-38" d="M 2034 2216 
Q 1584 2216 1326 1975 
Q 1069 1734 1069 1313 
Q 1069 891 1326 650 
Q 1584 409 2034 409 
Q 2484 409 2743 651 
Q 3003 894 3003 1313 
Q 3003 1734 2745 1975 
Q 2488 2216 2034 2216 
z
M 1403 2484 
Q 997 2584 770 2862 
Q 544 3141 544 3541 
Q 544 4100 942 4425 
Q 1341 4750 2034 4750 
Q 2731 4750 3128 4425 
Q 3525 4100 3525 3541 
Q 3525 3141 3298 2862 
Q 3072 2584 2669 2484 
Q 3125 2378 3379 2068 
Q 3634 1759 3634 1313 
Q 3634 634 3220 271 
Q 2806 -91 2034 -91 
Q 1263 -91 848 271 
Q 434 634 434 1313 
Q 434 1759 690 2068 
Q 947 2378 1403 2484 
z
M 1172 3481 
Q 1172 3119 1398 2916 
Q 1625 2713 2034 2713 
Q 2441 2713 2670 2916 
Q 2900 3119 2900 3481 
Q 2900 3844 2670 4047 
Q 2441 4250 2034 4250 
Q 1625 4250 1398 4047 
Q 1172 3844 1172 3481 
z
" transform="scale(0.015625)"/>
       </defs>
       <use xlink:href="#DejaVuSans-38"/>
       <use xlink:href="#DejaVuSans-30" x="63.623047"/>
       <use xlink:href="#DejaVuSans-30" x="127.246094"/>
      </g>
     </g>
    </g>
    <g id="text_9">
     <!-- Residual -->
     <g transform="translate(569.284375 220.516562) scale(0.1 -0.1)">
      <defs>
       <path id="DejaVuSans-52" d="M 2841 2188 
Q 3044 2119 3236 1894 
Q 3428 1669 3622 1275 
L 4263 0 
L 3584 0 
L 2988 1197 
Q 2756 1666 2539 1819 
Q 2322 1972 1947 1972 
L 1259 1972 
L 1259 0 
L 628 0 
L 628 4666 
L 2053 4666 
Q 2853 4666 3247 4331 
Q 3641 3997 3641 3322 
Q 3641 2881 3436 2590 
Q 3231 2300 2841 2188 
z
M 1259 4147 
L 1259 2491 
L 2053 2491 
Q 2509 2491 2742 2702 
Q 2975 2913 2975 3322 
Q 2975 3731 2742 3939 
Q 2509 4147 2053 4147 
L 1259 4147 
z
" transform="scale(0.015625)"/>
       <path id="DejaVuSans-65" d="M 3597 1894 
L 3597 1613 
L 953 1613 
Q 991 1019 1311 708 
Q 1631 397 2203 397 
Q 2534 397 2845 478 
Q 3156 559 3463 722 
L 3463 178 
Q 3153 47 2828 -22 
Q 2503 -91 2169 -91 
Q 1331 -91 842 396 
Q 353 884 353 1716 
Q 353 2575 817 3079 
Q 1281 3584 2069 3584 
Q 2775 3584 3186 3129 
Q 3597 2675 3597 1894 
z
M 3022 2063 
Q 3016 2534 2758 2815 
Q 2500 3097 2075 3097 
Q 1594 3097 1305 2825 
Q 1016 2553 972 2059 
L 3022 2063 
z
" transform="scale(0.015625)"/>
       <path id="DejaVuSans-73" d="M 2834 3397 
L 2834 2853 
Q 2591 2978 2328 3040 
Q 2066 3103 1784 3103 
Q 1356 3103 1142 2972 
Q 928 2841 928 2578 
Q 928 2378 1081 2264 
Q 1234 2150 1697 2047 
L 1894 2003 
Q 2506 1872 2764 1633 
Q 3022 1394 3022 966 
Q 3022 478 2636 193 
Q 2250 -91 1575 -91 
Q 1294 -91 989 -36 
Q 684 19 347 128 
L 347 722 
Q 666 556 975 473 
Q 1284 391 1588 391 
Q 1994 391 2212 530 
Q 2431 669 2431 922 
Q 2431 1156 2273 1281 
Q 2116 1406 1581 1522 
L 1381 1569 
Q 847 1681 609 1914 
Q 372 2147 372 2553 
Q 372 3047 722 3315 
Q 1072 3584 1716 3584 
Q 2034 3584 2315 3537 
Q 2597 3491 2834 3397 
z
" transform="scale(0.015625)"/>
       <path id="DejaVuSans-69" d="M 603 3500 
L 1178 3500 
L 1178 0 
L 603 0 
L 603 3500 
z
M 603 4863 
L 1178 4863 
L 1178 4134 
L 603 4134 
L 603 4863 
z
" transform="scale(0.015625)"/>
       <path id="DejaVuSans-64" d="M 2906 2969 
L 2906 4863 
L 3481 4863 
L 3481 0 
L 2906 0 
L 2906 525 
Q 2725 213 2448 61 
Q 2172 -91 1784 -91 
Q 1150 -91 751 415 
Q 353 922 353 1747 
Q 353 2572 751 3078 
Q 1150 3584 1784 3584 
Q 2172 3584 2448 3432 
Q 2725 3281 2906 2969 
z
M 947 1747 
Q 947 1113 1208 752 
Q 1469 391 1925 391 
Q 2381 391 2643 752 
Q 2906 1113 2906 1747 
Q 2906 2381 2643 2742 
Q 2381 3103 1925 3103 
Q 1469 3103 1208 2742 
Q 947 2381 947 1747 
z
" transform="scale(0.015625)"/>
       <path id="DejaVuSans-75" d="M 544 1381 
L 544 3500 
L 1119 3500 
L 1119 1403 
Q 1119 906 1312 657 
Q 1506 409 1894 409 
Q 2359 409 2629 706 
Q 2900 1003 2900 1516 
L 2900 3500 
L 3475 3500 
L 3475 0 
L 2900 0 
L 2900 538 
Q 2691 219 2414 64 
Q 2138 -91 1772 -91 
Q 1169 -91 856 284 
Q 544 659 544 1381 
z
M 1991 3584 
L 1991 3584 
z
" transform="scale(0.015625)"/>
       <path id="DejaVuSans-61" d="M 2194 1759 
Q 1497 1759 1228 1600 
Q 959 1441 959 1056 
Q 959 750 1161 570 
Q 1363 391 1709 391 
Q 2188 391 2477 730 
Q 2766 1069 2766 1631 
L 2766 1759 
L 2194 1759 
z
M 3341 1997 
L 3341 0 
L 2766 0 
L 2766 531 
Q 2569 213 2275 61 
Q 1981 -91 1556 -91 
Q 1019 -91 701 211 
Q 384 513 384 1019 
Q 384 1609 779 1909 
Q 1175 2209 1959 2209 
L 2766 2209 
L 2766 2266 
Q 2766 2663 2505 2880 
Q 2244 3097 1772 3097 
Q 1472 3097 1187 3025 
Q 903 2953 641 2809 
L 641 3341 
Q 956 3463 1253 3523 
Q 1550 3584 1831 3584 
Q 2591 3584 2966 3190 
Q 3341 2797 3341 1997 
z
" transform="scale(0.015625)"/>
       <path id="DejaVuSans-6c" d="M 603 4863 
L 1178 4863 
L 1178 0 
L 603 0 
L 603 4863 
z
" transform="scale(0.015625)"/>
      </defs>
      <use xlink:href="#DejaVuSans-52"/>
      <use xlink:href="#DejaVuSans-65" x="64.982422"/>
      <use xlink:href="#DejaVuSans-73" x="126.505859"/>
      <use xlink:href="#DejaVuSans-69" x="178.605469"/>
      <use xlink:href="#DejaVuSans-64" x="206.388672"/>
      <use xlink:href="#DejaVuSans-75" x="269.865234"/>
      <use xlink:href="#DejaVuSans-61" x="333.244141"/>
      <use xlink:href="#DejaVuSans-6c" x="394.523438"/>
     </g>
    </g>
   </g>
   <g id="matplotlib.axis_2">
    <g id="ytick_1">
     <g id="line2d_9">
      <defs>
       <path id="mf967ca278f" d="M 0 0 
L -3.5 0 
" style="stroke: #000000; stroke-width: 0.8"/>
      </defs>
      <g>
       <use xlink:href="#mf967ca278f" x="144" y="180.593514" style="stroke: #000000; stroke-width: 0.8"/>
      </g>
     </g>
     <g id="text_10">
      <!-- 8.A.194.1.1 -->
      <g transform="translate(79.446875 184.392732) scale(0.1 -0.1)">
       <defs>
        <path id="DejaVuSans-2e" d="M 684 794 
L 1344 794 
L 1344 0 
L 684 0 
L 684 794 
z
" transform="scale(0.015625)"/>
        <path id="DejaVuSans-41" d="M 2188 4044 
L 1331 1722 
L 3047 1722 
L 2188 4044 
z
M 1831 4666 
L 2547 4666 
L 4325 0 
L 3669 0 
L 3244 1197 
L 1141 1197 
L 716 0 
L 50 0 
L 1831 4666 
z
" transform="scale(0.015625)"/>
        <path id="DejaVuSans-39" d="M 703 97 
L 703 672 
Q 941 559 1184 500 
Q 1428 441 1663 441 
Q 2288 441 2617 861 
Q 2947 1281 2994 2138 
Q 2813 1869 2534 1725 
Q 2256 1581 1919 1581 
Q 1219 1581 811 2004 
Q 403 2428 403 3163 
Q 403 3881 828 4315 
Q 1253 4750 1959 4750 
Q 2769 4750 3195 4129 
Q 3622 3509 3622 2328 
Q 3622 1225 3098 567 
Q 2575 -91 1691 -91 
Q 1453 -91 1209 -44 
Q 966 3 703 97 
z
M 1959 2075 
Q 2384 2075 2632 2365 
Q 2881 2656 2881 3163 
Q 2881 3666 2632 3958 
Q 2384 4250 1959 4250 
Q 1534 4250 1286 3958 
Q 1038 3666 1038 3163 
Q 1038 2656 1286 2365 
Q 1534 2075 1959 2075 
z
" transform="scale(0.015625)"/>
       </defs>
       <use xlink:href="#DejaVuSans-38"/>
       <use xlink:href="#DejaVuSans-2e" x="63.623047"/>
       <use xlink:href="#DejaVuSans-41" x="95.410156"/>
       <use xlink:href="#DejaVuSans-2e" x="162.068359"/>
       <use xlink:href="#DejaVuSans-31" x="193.855469"/>
       <use xlink:href="#DejaVuSans-39" x="257.478516"/>
       <use xlink:href="#DejaVuSans-34" x="321.101562"/>
       <use xlink:href="#DejaVuSans-2e" x="384.724609"/>
       <use xlink:href="#DejaVuSans-31" x="416.511719"/>
       <use xlink:href="#DejaVuSans-2e" x="480.134766"/>
       <use xlink:href="#DejaVuSans-31" x="511.921875"/>
      </g>
     </g>
    </g>
    <g id="ytick_2">
     <g id="line2d_10">
      <g>
       <use xlink:href="#mf967ca278f" x="144" y="160.161081" style="stroke: #000000; stroke-width: 0.8"/>
      </g>
     </g>
     <g id="text_11">
      <!-- 8.A.194.1.2 -->
      <g transform="translate(79.446875 163.9603) scale(0.1 -0.1)">
       <use xlink:href="#DejaVuSans-38"/>
       <use xlink:href="#DejaVuSans-2e" x="63.623047"/>
       <use xlink:href="#DejaVuSans-41" x="95.410156"/>
       <use xlink:href="#DejaVuSans-2e" x="162.068359"/>
       <use xlink:href="#DejaVuSans-31" x="193.855469"/>
       <use xlink:href="#DejaVuSans-39" x="257.478516"/>
       <use xlink:href="#DejaVuSans-34" x="321.101562"/>
       <use xlink:href="#DejaVuSans-2e" x="384.724609"/>
       <use xlink:href="#DejaVuSans-31" x="416.511719"/>
       <use xlink:href="#DejaVuSans-2e" x="480.134766"/>
       <use xlink:href="#DejaVuSans-32" x="511.921875"/>
      </g>
     </g>
    </g>
    <g id="ytick_3">
     <g id="line2d_11">
      <g>
       <use xlink:href="#mf967ca278f" x="144" y="139.728649" style="stroke: #000000; stroke-width: 0.8"/>
      </g>
     </g>
     <g id="text_12">
      <!-- 8.A.194.1.3 -->
      <g transform="translate(79.446875 143.527867) scale(0.1 -0.1)">
       <use xlink:href="#DejaVuSans-38"/>
       <use xlink:href="#DejaVuSans-2e" x="63.623047"/>
       <use xlink:href="#DejaVuSans-41" x="95.410156"/>
       <use xlink:href="#DejaVuSans-2e" x="162.068359"/>
       <use xlink:href="#DejaVuSans-31" x="193.855469"/>
       <use xlink:href="#DejaVuSans-39" x="257.478516"/>
       <use xlink:href="#DejaVuSans-34" x="321.101562"/>
       <use xlink:href="#DejaVuSans-2e" x="384.724609"/>
       <use xlink:href="#DejaVuSans-31" x="416.511719"/>
       <use xlink:href="#DejaVuSans-2e" x="480.134766"/>
       <use xlink:href="#DejaVuSans-33" x="511.921875"/>
      </g>
     </g>
    </g>
    <g id="ytick_4">
     <g id="line2d_12">
      <g>
       <use xlink:href="#mf967ca278f" x="144" y="119.296216" style="stroke: #000000; stroke-width: 0.8"/>
      </g>
     </g>
     <g id="text_13">
      <!-- 8.A.194.1.4 -->
      <g transform="translate(79.446875 123.095435) scale(0.1 -0.1)">
       <use xlink:href="#DejaVuSans-38"/>
       <use xlink:href="#DejaVuSans-2e" x="63.623047"/>
       <use xlink:href="#DejaVuSans-41" x="95.410156"/>
       <use xlink:href="#DejaVuSans-2e" x="162.068359"/>
       <use xlink:href="#DejaVuSans-31" x="193.855469"/>
       <use xlink:href="#DejaVuSans-39" x="257.478516"/>
       <use xlink:href="#DejaVuSans-34" x="321.101562"/>
       <use xlink:href="#DejaVuSans-2e" x="384.724609"/>
       <use xlink:href="#DejaVuSans-31" x="416.511719"/>
       <use xlink:href="#DejaVuSans-2e" x="480.134766"/>
       <use xlink:href="#DejaVuSans-34" x="511.921875"/>
      </g>
     </g>
    </g>
    <g id="ytick_5">
     <g id="line2d_13">
      <g>
       <use xlink:href="#mf967ca278f" x="144" y="98.863784" style="stroke: #000000; stroke-width: 0.8"/>
      </g>
     </g>
     <g id="text_14">
      <!-- 8.A.194.1.5 -->
      <g transform="translate(79.446875 102.663003) scale(0.1 -0.1)">
       <use xlink:href="#DejaVuSans-38"/>
       <use xlink:href="#DejaVuSans-2e" x="63.623047"/>
       <use xlink:href="#DejaVuSans-41" x="95.410156"/>
       <use xlink:href="#DejaVuSans-2e" x="162.068359"/>
       <use xlink:href="#DejaVuSans-31" x="193.855469"/>
       <use xlink:href="#DejaVuSans-39" x="257.478516"/>
       <use xlink:href="#DejaVuSans-34" x="321.101562"/>
       <use xlink:href="#DejaVuSans-2e" x="384.724609"/>
       <use xlink:href="#DejaVuSans-31" x="416.511719"/>
       <use xlink:href="#DejaVuSans-2e" x="480.134766"/>
       <use xlink:href="#DejaVuSans-35" x="511.921875"/>
      </g>
     </g>
    </g>
    <g id="ytick_6">
     <g id="line2d_14">
      <g>
       <use xlink:href="#mf967ca278f" x="144" y="78.431351" style="stroke: #000000; stroke-width: 0.8"/>
      </g>
     </g>
     <g id="text_15">
      <!-- 8.A.194.1.6 -->
      <g transform="translate(79.446875 82.23057) scale(0.1 -0.1)">
       <use xlink:href="#DejaVuSans-38"/>
       <use xlink:href="#DejaVuSans-2e" x="63.623047"/>
       <use xlink:href="#DejaVuSans-41" x="95.410156"/>
       <use xlink:href="#DejaVuSans-2e" x="162.068359"/>
       <use xlink:href="#DejaVuSans-31" x="193.855469"/>
       <use xlink:href="#DejaVuSans-39" x="257.478516"/>
       <use xlink:href="#DejaVuSans-34" x="321.101562"/>
       <use xlink:href="#DejaVuSans-2e" x="384.724609"/>
       <use xlink:href="#DejaVuSans-31" x="416.511719"/>
       <use xlink:href="#DejaVuSans-2e" x="480.134766"/>
       <use xlink:href="#DejaVuSans-36" x="511.921875"/>
      </g>
     </g>
    </g>
    <g id="ytick_7">
     <g id="line2d_15">
      <g>
       <use xlink:href="#mf967ca278f" x="144" y="57.998919" style="stroke: #000000; stroke-width: 0.8"/>
      </g>
     </g>
     <g id="text_16">
      <!-- 8.A.194.1.7 -->
      <g transform="translate(79.446875 61.798138) scale(0.1 -0.1)">
       <use xlink:href="#DejaVuSans-38"/>
       <use xlink:href="#DejaVuSans-2e" x="63.623047"/>
       <use xlink:href="#DejaVuSans-41" x="95.410156"/>
       <use xlink:href="#DejaVuSans-2e" x="162.068359"/>
       <use xlink:href="#DejaVuSans-31" x="193.855469"/>
       <use xlink:href="#DejaVuSans-39" x="257.478516"/>
       <use xlink:href="#DejaVuSans-34" x="321.101562"/>
       <use xlink:href="#DejaVuSans-2e" x="384.724609"/>
       <use xlink:href="#DejaVuSans-31" x="416.511719"/>
       <use xlink:href="#DejaVuSans-2e" x="480.134766"/>
       <use xlink:href="#DejaVuSans-37" x="511.921875"/>
      </g>
     </g>
    </g>
    <g id="ytick_8">
     <g id="line2d_16">
      <g>
       <use xlink:href="#mf967ca278f" x="144" y="37.566486" style="stroke: #000000; stroke-width: 0.8"/>
      </g>
     </g>
     <g id="text_17">
      <!-- 8.A.194.1.8 -->
      <g transform="translate(79.446875 41.365705) scale(0.1 -0.1)">
       <use xlink:href="#DejaVuSans-38"/>
       <use xlink:href="#DejaVuSans-2e" x="63.623047"/>
       <use xlink:href="#DejaVuSans-41" x="95.410156"/>
       <use xlink:href="#DejaVuSans-2e" x="162.068359"/>
       <use xlink:href="#DejaVuSans-31" x="193.855469"/>
       <use xlink:href="#DejaVuSans-39" x="257.478516"/>
       <use xlink:href="#DejaVuSans-34" x="321.101562"/>
       <use xlink:href="#DejaVuSans-2e" x="384.724609"/>
       <use xlink:href="#DejaVuSans-31" x="416.511719"/>
       <use xlink:href="#DejaVuSans-2e" x="480.134766"/>
       <use xlink:href="#DejaVuSans-38" x="511.921875"/>
      </g>
     </g>
    </g>
   </g>
   <g id="patch_318">
    <path d="M 144 192.24 
L 144 25.92 
" style="fill: none; stroke: #000000; stroke-width: 0.8; stroke-linejoin: miter; stroke-linecap: square"/>
   </g>
   <g id="patch_319">
    <path d="M 1036.8 192.24 
L 1036.8 25.92 
" style="fill: none; stroke: #000000; stroke-width: 0.8; stroke-linejoin: miter; stroke-linecap: square"/>
   </g>
   <g id="patch_320">
    <path d="M 144 192.24 
L 1036.8 192.24 
" style="fill: none; stroke: #000000; stroke-width: 0.8; stroke-linejoin: miter; stroke-linecap: square"/>
   </g>
   <g id="patch_321">
    <path d="M 144 25.92 
L 1036.8 25.92 
" style="fill: none; stroke: #000000; stroke-width: 0.8; stroke-linejoin: miter; stroke-linecap: square"/>
   </g>
   <g id="text_18">
    <!-- 8.A.194 Summary -->
    <g transform="translate(536.415 19.92) scale(0.12 -0.12)">
     <defs>
      <path id="DejaVuSans-20" transform="scale(0.015625)"/>
      <path id="DejaVuSans-53" d="M 3425 4513 
L 3425 3897 
Q 3066 4069 2747 4153 
Q 2428 4238 2131 4238 
Q 1616 4238 1336 4038 
Q 1056 3838 1056 3469 
Q 1056 3159 1242 3001 
Q 1428 2844 1947 2747 
L 2328 2669 
Q 3034 2534 3370 2195 
Q 3706 1856 3706 1288 
Q 3706 609 3251 259 
Q 2797 -91 1919 -91 
Q 1588 -91 1214 -16 
Q 841 59 441 206 
L 441 856 
Q 825 641 1194 531 
Q 1563 422 1919 422 
Q 2459 422 2753 634 
Q 3047 847 3047 1241 
Q 3047 1584 2836 1778 
Q 2625 1972 2144 2069 
L 1759 2144 
Q 1053 2284 737 2584 
Q 422 2884 422 3419 
Q 422 4038 858 4394 
Q 1294 4750 2059 4750 
Q 2388 4750 2728 4690 
Q 3069 4631 3425 4513 
z
" transform="scale(0.015625)"/>
      <path id="DejaVuSans-6d" d="M 3328 2828 
Q 3544 3216 3844 3400 
Q 4144 3584 4550 3584 
Q 5097 3584 5394 3201 
Q 5691 2819 5691 2113 
L 5691 0 
L 5113 0 
L 5113 2094 
Q 5113 2597 4934 2840 
Q 4756 3084 4391 3084 
Q 3944 3084 3684 2787 
Q 3425 2491 3425 1978 
L 3425 0 
L 2847 0 
L 2847 2094 
Q 2847 2600 2669 2842 
Q 2491 3084 2119 3084 
Q 1678 3084 1418 2786 
Q 1159 2488 1159 1978 
L 1159 0 
L 581 0 
L 581 3500 
L 1159 3500 
L 1159 2956 
Q 1356 3278 1631 3431 
Q 1906 3584 2284 3584 
Q 2666 3584 2933 3390 
Q 3200 3197 3328 2828 
z
" transform="scale(0.015625)"/>
      <path id="DejaVuSans-72" d="M 2631 2963 
Q 2534 3019 2420 3045 
Q 2306 3072 2169 3072 
Q 1681 3072 1420 2755 
Q 1159 2438 1159 1844 
L 1159 0 
L 581 0 
L 581 3500 
L 1159 3500 
L 1159 2956 
Q 1341 3275 1631 3429 
Q 1922 3584 2338 3584 
Q 2397 3584 2469 3576 
Q 2541 3569 2628 3553 
L 2631 2963 
z
" transform="scale(0.015625)"/>
      <path id="DejaVuSans-79" d="M 2059 -325 
Q 1816 -950 1584 -1140 
Q 1353 -1331 966 -1331 
L 506 -1331 
L 506 -850 
L 844 -850 
Q 1081 -850 1212 -737 
Q 1344 -625 1503 -206 
L 1606 56 
L 191 3500 
L 800 3500 
L 1894 763 
L 2988 3500 
L 3597 3500 
L 2059 -325 
z
" transform="scale(0.015625)"/>
     </defs>
     <use xlink:href="#DejaVuSans-38"/>
     <use xlink:href="#DejaVuSans-2e" x="63.623047"/>
     <use xlink:href="#DejaVuSans-41" x="95.410156"/>
     <use xlink:href="#DejaVuSans-2e" x="162.068359"/>
     <use xlink:href="#DejaVuSans-31" x="193.855469"/>
     <use xlink:href="#DejaVuSans-39" x="257.478516"/>
     <use xlink:href="#DejaVuSans-34" x="321.101562"/>
     <use xlink:href="#DejaVuSans-20" x="384.724609"/>
     <use xlink:href="#DejaVuSans-53" x="416.511719"/>
     <use xlink:href="#DejaVuSans-75" x="479.988281"/>
     <use xlink:href="#DejaVuSans-6d" x="543.367188"/>
     <use xlink:href="#DejaVuSans-6d" x="640.779297"/>
     <use xlink:href="#DejaVuSans-61" x="738.191406"/>
     <use xlink:href="#DejaVuSans-72" x="799.470703"/>
     <use xlink:href="#DejaVuSans-79" x="840.583984"/>
    </g>
   </g>
  </g>
 </g>
 <defs>
  <clipPath id="pb50b7e9cd2">
   <rect x="144" y="25.92" width="892.8" height="166.32"/>
  </clipPath>
 </defs>
</svg>
