<?xml version="1.0" encoding="utf-8" standalone="no"?>
<!DOCTYPE svg PUBLIC "-//W3C//DTD SVG 1.1//EN"
  "http://www.w3.org/Graphics/SVG/1.1/DTD/svg11.dtd">
<svg xmlns:xlink="http://www.w3.org/1999/xlink" width="1152pt" height="288pt" viewBox="0 0 1152 288" xmlns="http://www.w3.org/2000/svg" version="1.1">
 <metadata>
  <rdf:RDF xmlns:dc="http://purl.org/dc/elements/1.1/" xmlns:cc="http://creativecommons.org/ns#" xmlns:rdf="http://www.w3.org/1999/02/22-rdf-syntax-ns#">
   <cc:Work>
    <dc:type rdf:resource="http://purl.org/dc/dcmitype/StillImage"/>
    <dc:date>2024-10-10T19:21:30.087620</dc:date>
    <dc:format>image/svg+xml</dc:format>
    <dc:creator>
     <cc:Agent>
      <dc:title>Matplotlib v3.9.2, https://matplotlib.org/</dc:title>
     </cc:Agent>
    </dc:creator>
   </cc:Work>
  </rdf:RDF>
 </metadata>
 <defs>
  <style type="text/css">*{stroke-linejoin: round; stroke-linecap: butt}</style>
 </defs>
 <g id="figure_1">
  <g id="patch_1">
   <path d="M 0 288 
L 1152 288 
L 1152 0 
L 0 0 
z
" style="fill: #ffffff"/>
  </g>
  <g id="axes_1">
   <g id="patch_2">
    <path d="M 144 256.32 
L 1036.8 256.32 
L 1036.8 34.56 
L 144 34.56 
z
" style="fill: #ffffff"/>
   </g>
   <g id="patch_3">
    <path d="M 144 243.456716 
L 181.558633 243.456716 
L 181.558633 243.005373 
L 144 243.005373 
z
" clip-path="url(#p8e2547df86)" style="fill: #0000ff"/>
   </g>
   <g id="patch_4">
    <path d="M 182.08028 246.24 
L 218.07397 246.24 
L 218.07397 240.22209 
L 182.08028 240.22209 
z
" clip-path="url(#p8e2547df86)" style="fill: #0000ff"/>
   </g>
   <g id="patch_5">
    <path d="M 182.08028 246.24 
L 214.422436 246.24 
L 214.422436 240.22209 
L 182.08028 240.22209 
z
" clip-path="url(#p8e2547df86)" style="fill: #0000ff"/>
   </g>
   <g id="patch_6">
    <path d="M 184.166871 246.24 
L 218.07397 246.24 
L 218.07397 240.22209 
L 184.166871 240.22209 
z
" clip-path="url(#p8e2547df86)" style="fill: #0000ff"/>
   </g>
   <g id="patch_7">
    <path d="M 184.166871 246.24 
L 209.727607 246.24 
L 209.727607 240.22209 
L 184.166871 240.22209 
z
" clip-path="url(#p8e2547df86)" style="fill: #0000ff"/>
   </g>
   <g id="patch_8">
    <path d="M 184.166871 246.24 
L 209.727607 246.24 
L 209.727607 240.22209 
L 184.166871 240.22209 
z
" clip-path="url(#p8e2547df86)" style="fill: #0000ff"/>
   </g>
   <g id="patch_9">
    <path d="M 184.166871 246.24 
L 212.857493 246.24 
L 212.857493 240.22209 
L 184.166871 240.22209 
z
" clip-path="url(#p8e2547df86)" style="fill: #0000ff"/>
   </g>
   <g id="patch_10">
    <path d="M 184.688519 246.24 
L 209.727607 246.24 
L 209.727607 240.22209 
L 184.688519 240.22209 
z
" clip-path="url(#p8e2547df86)" style="fill: #0000ff"/>
   </g>
   <g id="patch_11">
    <path d="M 184.688519 246.24 
L 215.465732 246.24 
L 215.465732 240.22209 
L 184.688519 240.22209 
z
" clip-path="url(#p8e2547df86)" style="fill: #0000ff"/>
   </g>
   <g id="patch_12">
    <path d="M 184.688519 246.24 
L 211.29255 246.24 
L 211.29255 240.22209 
L 184.688519 240.22209 
z
" clip-path="url(#p8e2547df86)" style="fill: #0000ff"/>
   </g>
   <g id="patch_13">
    <path d="M 184.688519 246.24 
L 211.29255 246.24 
L 211.29255 240.22209 
L 184.688519 240.22209 
z
" clip-path="url(#p8e2547df86)" style="fill: #0000ff"/>
   </g>
   <g id="patch_14">
    <path d="M 184.688519 246.24 
L 211.29255 246.24 
L 211.29255 240.22209 
L 184.688519 240.22209 
z
" clip-path="url(#p8e2547df86)" style="fill: #0000ff"/>
   </g>
   <g id="patch_15">
    <path d="M 184.688519 246.24 
L 211.29255 246.24 
L 211.29255 240.22209 
L 184.688519 240.22209 
z
" clip-path="url(#p8e2547df86)" style="fill: #0000ff"/>
   </g>
   <g id="patch_16">
    <path d="M 184.688519 246.24 
L 211.29255 246.24 
L 211.29255 240.22209 
L 184.688519 240.22209 
z
" clip-path="url(#p8e2547df86)" style="fill: #0000ff"/>
   </g>
   <g id="patch_17">
    <path d="M 184.688519 246.24 
L 210.249255 246.24 
L 210.249255 240.22209 
L 184.688519 240.22209 
z
" clip-path="url(#p8e2547df86)" style="fill: #0000ff"/>
   </g>
   <g id="patch_18">
    <path d="M 184.688519 246.24 
L 211.29255 246.24 
L 211.29255 240.22209 
L 184.688519 240.22209 
z
" clip-path="url(#p8e2547df86)" style="fill: #0000ff"/>
   </g>
   <g id="patch_19">
    <path d="M 184.688519 246.24 
L 211.29255 246.24 
L 211.29255 240.22209 
L 184.688519 240.22209 
z
" clip-path="url(#p8e2547df86)" style="fill: #0000ff"/>
   </g>
   <g id="patch_20">
    <path d="M 184.688519 246.24 
L 211.29255 246.24 
L 211.29255 240.22209 
L 184.688519 240.22209 
z
" clip-path="url(#p8e2547df86)" style="fill: #0000ff"/>
   </g>
   <g id="patch_21">
    <path d="M 185.210167 246.24 
L 217.552323 246.24 
L 217.552323 240.22209 
L 185.210167 240.22209 
z
" clip-path="url(#p8e2547df86)" style="fill: #0000ff"/>
   </g>
   <g id="patch_22">
    <path d="M 185.210167 246.24 
L 209.20596 246.24 
L 209.20596 240.22209 
L 185.210167 240.22209 
z
" clip-path="url(#p8e2547df86)" style="fill: #0000ff"/>
   </g>
   <g id="patch_23">
    <path d="M 185.210167 246.24 
L 209.727607 246.24 
L 209.727607 240.22209 
L 185.210167 240.22209 
z
" clip-path="url(#p8e2547df86)" style="fill: #0000ff"/>
   </g>
   <g id="patch_24">
    <path d="M 185.210167 246.24 
L 203.467835 246.24 
L 203.467835 240.22209 
L 185.210167 240.22209 
z
" clip-path="url(#p8e2547df86)" style="fill: #0000ff"/>
   </g>
   <g id="patch_25">
    <path d="M 185.210167 246.24 
L 211.29255 246.24 
L 211.29255 240.22209 
L 185.210167 240.22209 
z
" clip-path="url(#p8e2547df86)" style="fill: #0000ff"/>
   </g>
   <g id="patch_26">
    <path d="M 218.595618 243.456716 
L 294.234531 243.456716 
L 294.234531 243.005373 
L 218.595618 243.005373 
z
" clip-path="url(#p8e2547df86)" style="fill: #0000ff"/>
   </g>
   <g id="patch_27">
    <path d="M 144 228.41194 
L 146.608238 228.41194 
L 146.608238 227.960597 
L 144 227.960597 
z
" clip-path="url(#p8e2547df86)" style="fill: #0000ff"/>
   </g>
   <g id="patch_28">
    <path d="M 147.129886 231.195224 
L 174.777213 231.195224 
L 174.777213 225.177313 
L 147.129886 225.177313 
z
" clip-path="url(#p8e2547df86)" style="fill: #0000ff"/>
   </g>
   <g id="patch_29">
    <path d="M 149.216477 231.195224 
L 178.428747 231.195224 
L 178.428747 225.177313 
L 149.216477 225.177313 
z
" clip-path="url(#p8e2547df86)" style="fill: #0000ff"/>
   </g>
   <g id="patch_30">
    <path d="M 149.216477 231.195224 
L 174.777213 231.195224 
L 174.777213 225.177313 
L 149.216477 225.177313 
z
" clip-path="url(#p8e2547df86)" style="fill: #0000ff"/>
   </g>
   <g id="patch_31">
    <path d="M 149.216477 231.195224 
L 174.255565 231.195224 
L 174.255565 225.177313 
L 149.216477 225.177313 
z
" clip-path="url(#p8e2547df86)" style="fill: #0000ff"/>
   </g>
   <g id="patch_32">
    <path d="M 149.216477 231.195224 
L 174.777213 231.195224 
L 174.777213 225.177313 
L 149.216477 225.177313 
z
" clip-path="url(#p8e2547df86)" style="fill: #0000ff"/>
   </g>
   <g id="patch_33">
    <path d="M 150.259772 231.195224 
L 179.99369 231.195224 
L 179.99369 225.177313 
L 150.259772 225.177313 
z
" clip-path="url(#p8e2547df86)" style="fill: #0000ff"/>
   </g>
   <g id="patch_34">
    <path d="M 150.259772 231.195224 
L 174.255565 231.195224 
L 174.255565 225.177313 
L 150.259772 225.177313 
z
" clip-path="url(#p8e2547df86)" style="fill: #0000ff"/>
   </g>
   <g id="patch_35">
    <path d="M 150.78142 231.195224 
L 174.777213 231.195224 
L 174.777213 225.177313 
L 150.78142 225.177313 
z
" clip-path="url(#p8e2547df86)" style="fill: #0000ff"/>
   </g>
   <g id="patch_36">
    <path d="M 150.78142 231.195224 
L 180.515337 231.195224 
L 180.515337 225.177313 
L 150.78142 225.177313 
z
" clip-path="url(#p8e2547df86)" style="fill: #0000ff"/>
   </g>
   <g id="patch_37">
    <path d="M 150.78142 231.195224 
L 174.255565 231.195224 
L 174.255565 225.177313 
L 150.78142 225.177313 
z
" clip-path="url(#p8e2547df86)" style="fill: #0000ff"/>
   </g>
   <g id="patch_38">
    <path d="M 150.78142 231.195224 
L 174.777213 231.195224 
L 174.777213 225.177313 
L 150.78142 225.177313 
z
" clip-path="url(#p8e2547df86)" style="fill: #0000ff"/>
   </g>
   <g id="patch_39">
    <path d="M 150.78142 231.195224 
L 174.255565 231.195224 
L 174.255565 225.177313 
L 150.78142 225.177313 
z
" clip-path="url(#p8e2547df86)" style="fill: #0000ff"/>
   </g>
   <g id="patch_40">
    <path d="M 150.78142 231.195224 
L 174.777213 231.195224 
L 174.777213 225.177313 
L 150.78142 225.177313 
z
" clip-path="url(#p8e2547df86)" style="fill: #0000ff"/>
   </g>
   <g id="patch_41">
    <path d="M 150.78142 231.195224 
L 179.99369 231.195224 
L 179.99369 225.177313 
L 150.78142 225.177313 
z
" clip-path="url(#p8e2547df86)" style="fill: #0000ff"/>
   </g>
   <g id="patch_42">
    <path d="M 150.78142 231.195224 
L 174.777213 231.195224 
L 174.777213 225.177313 
L 150.78142 225.177313 
z
" clip-path="url(#p8e2547df86)" style="fill: #0000ff"/>
   </g>
   <g id="patch_43">
    <path d="M 151.303067 231.195224 
L 174.255565 231.195224 
L 174.255565 225.177313 
L 151.303067 225.177313 
z
" clip-path="url(#p8e2547df86)" style="fill: #0000ff"/>
   </g>
   <g id="patch_44">
    <path d="M 151.303067 231.195224 
L 174.777213 231.195224 
L 174.777213 225.177313 
L 151.303067 225.177313 
z
" clip-path="url(#p8e2547df86)" style="fill: #0000ff"/>
   </g>
   <g id="patch_45">
    <path d="M 151.303067 231.195224 
L 176.342156 231.195224 
L 176.342156 225.177313 
L 151.303067 225.177313 
z
" clip-path="url(#p8e2547df86)" style="fill: #0000ff"/>
   </g>
   <g id="patch_46">
    <path d="M 181.036985 228.41194 
L 277.020158 228.41194 
L 277.020158 227.960597 
L 181.036985 227.960597 
z
" clip-path="url(#p8e2547df86)" style="fill: #0000ff"/>
   </g>
   <g id="patch_47">
    <path d="M 144 213.367164 
L 144 213.367164 
L 144 212.915821 
L 144 212.915821 
z
" clip-path="url(#p8e2547df86)" style="fill: #0000ff"/>
   </g>
   <g id="patch_48">
    <path d="M 144.521648 216.150448 
L 173.21227 216.150448 
L 173.21227 210.132537 
L 144.521648 210.132537 
z
" clip-path="url(#p8e2547df86)" style="fill: #0000ff"/>
   </g>
   <g id="patch_49">
    <path d="M 145.564943 216.150448 
L 190.948291 216.150448 
L 190.948291 210.132537 
L 145.564943 210.132537 
z
" clip-path="url(#p8e2547df86)" style="fill: #0000ff"/>
   </g>
   <g id="patch_50">
    <path d="M 145.564943 216.150448 
L 178.428747 216.150448 
L 178.428747 210.132537 
L 145.564943 210.132537 
z
" clip-path="url(#p8e2547df86)" style="fill: #0000ff"/>
   </g>
   <g id="patch_51">
    <path d="M 146.086591 216.150448 
L 172.690622 216.150448 
L 172.690622 210.132537 
L 146.086591 210.132537 
z
" clip-path="url(#p8e2547df86)" style="fill: #0000ff"/>
   </g>
   <g id="patch_52">
    <path d="M 146.086591 216.150448 
L 174.255565 216.150448 
L 174.255565 210.132537 
L 146.086591 210.132537 
z
" clip-path="url(#p8e2547df86)" style="fill: #0000ff"/>
   </g>
   <g id="patch_53">
    <path d="M 146.086591 216.150448 
L 173.733918 216.150448 
L 173.733918 210.132537 
L 146.086591 210.132537 
z
" clip-path="url(#p8e2547df86)" style="fill: #0000ff"/>
   </g>
   <g id="patch_54">
    <path d="M 146.608238 216.150448 
L 174.255565 216.150448 
L 174.255565 210.132537 
L 146.608238 210.132537 
z
" clip-path="url(#p8e2547df86)" style="fill: #0000ff"/>
   </g>
   <g id="patch_55">
    <path d="M 147.651534 216.150448 
L 172.690622 216.150448 
L 172.690622 210.132537 
L 147.651534 210.132537 
z
" clip-path="url(#p8e2547df86)" style="fill: #0000ff"/>
   </g>
   <g id="patch_56">
    <path d="M 147.651534 216.150448 
L 174.255565 216.150448 
L 174.255565 210.132537 
L 147.651534 210.132537 
z
" clip-path="url(#p8e2547df86)" style="fill: #0000ff"/>
   </g>
   <g id="patch_57">
    <path d="M 147.651534 216.150448 
L 174.255565 216.150448 
L 174.255565 210.132537 
L 147.651534 210.132537 
z
" clip-path="url(#p8e2547df86)" style="fill: #0000ff"/>
   </g>
   <g id="patch_58">
    <path d="M 147.651534 216.150448 
L 174.255565 216.150448 
L 174.255565 210.132537 
L 147.651534 210.132537 
z
" clip-path="url(#p8e2547df86)" style="fill: #0000ff"/>
   </g>
   <g id="patch_59">
    <path d="M 147.651534 216.150448 
L 174.255565 216.150448 
L 174.255565 210.132537 
L 147.651534 210.132537 
z
" clip-path="url(#p8e2547df86)" style="fill: #0000ff"/>
   </g>
   <g id="patch_60">
    <path d="M 147.651534 216.150448 
L 174.255565 216.150448 
L 174.255565 210.132537 
L 147.651534 210.132537 
z
" clip-path="url(#p8e2547df86)" style="fill: #0000ff"/>
   </g>
   <g id="patch_61">
    <path d="M 147.651534 216.150448 
L 173.21227 216.150448 
L 173.21227 210.132537 
L 147.651534 210.132537 
z
" clip-path="url(#p8e2547df86)" style="fill: #0000ff"/>
   </g>
   <g id="patch_62">
    <path d="M 147.651534 216.150448 
L 176.863804 216.150448 
L 176.863804 210.132537 
L 147.651534 210.132537 
z
" clip-path="url(#p8e2547df86)" style="fill: #0000ff"/>
   </g>
   <g id="patch_63">
    <path d="M 147.651534 216.150448 
L 174.255565 216.150448 
L 174.255565 210.132537 
L 147.651534 210.132537 
z
" clip-path="url(#p8e2547df86)" style="fill: #0000ff"/>
   </g>
   <g id="patch_64">
    <path d="M 148.173181 216.150448 
L 172.168975 216.150448 
L 172.168975 210.132537 
L 148.173181 210.132537 
z
" clip-path="url(#p8e2547df86)" style="fill: #0000ff"/>
   </g>
   <g id="patch_65">
    <path d="M 148.173181 216.150448 
L 172.690622 216.150448 
L 172.690622 210.132537 
L 148.173181 210.132537 
z
" clip-path="url(#p8e2547df86)" style="fill: #0000ff"/>
   </g>
   <g id="patch_66">
    <path d="M 148.173181 216.150448 
L 174.255565 216.150448 
L 174.255565 210.132537 
L 148.173181 210.132537 
z
" clip-path="url(#p8e2547df86)" style="fill: #0000ff"/>
   </g>
   <g id="patch_67">
    <path d="M 191.469939 213.367164 
L 618.177739 213.367164 
L 618.177739 212.915821 
L 191.469939 212.915821 
z
" clip-path="url(#p8e2547df86)" style="fill: #0000ff"/>
   </g>
   <g id="patch_68">
    <path d="M 144 201.105672 
L 308.840666 201.105672 
L 308.840666 195.087761 
L 144 195.087761 
z
" clip-path="url(#p8e2547df86)" style="fill: #0000ff"/>
   </g>
   <g id="patch_69">
    <path d="M 144.521648 201.105672 
L 299.451008 201.105672 
L 299.451008 195.087761 
L 144.521648 195.087761 
z
" clip-path="url(#p8e2547df86)" style="fill: #0000ff"/>
   </g>
   <g id="patch_70">
    <path d="M 144.521648 201.105672 
L 308.840666 201.105672 
L 308.840666 195.087761 
L 144.521648 195.087761 
z
" clip-path="url(#p8e2547df86)" style="fill: #0000ff"/>
   </g>
   <g id="patch_71">
    <path d="M 145.043295 201.105672 
L 308.840666 201.105672 
L 308.840666 195.087761 
L 145.043295 195.087761 
z
" clip-path="url(#p8e2547df86)" style="fill: #0000ff"/>
   </g>
   <g id="patch_72">
    <path d="M 146.086591 201.105672 
L 304.667485 201.105672 
L 304.667485 195.087761 
L 146.086591 195.087761 
z
" clip-path="url(#p8e2547df86)" style="fill: #0000ff"/>
   </g>
   <g id="patch_73">
    <path d="M 146.086591 201.105672 
L 249.372831 201.105672 
L 249.372831 195.087761 
L 146.086591 195.087761 
z
" clip-path="url(#p8e2547df86)" style="fill: #0000ff"/>
   </g>
   <g id="patch_74">
    <path d="M 146.086591 201.105672 
L 304.667485 201.105672 
L 304.667485 195.087761 
L 146.086591 195.087761 
z
" clip-path="url(#p8e2547df86)" style="fill: #0000ff"/>
   </g>
   <g id="patch_75">
    <path d="M 147.129886 201.105672 
L 300.494303 201.105672 
L 300.494303 195.087761 
L 147.129886 195.087761 
z
" clip-path="url(#p8e2547df86)" style="fill: #0000ff"/>
   </g>
   <g id="patch_76">
    <path d="M 147.651534 201.105672 
L 226.941981 201.105672 
L 226.941981 195.087761 
L 147.651534 195.087761 
z
" clip-path="url(#p8e2547df86)" style="fill: #0000ff"/>
   </g>
   <g id="patch_77">
    <path d="M 147.651534 201.105672 
L 227.463628 201.105672 
L 227.463628 195.087761 
L 147.651534 195.087761 
z
" clip-path="url(#p8e2547df86)" style="fill: #0000ff"/>
   </g>
   <g id="patch_78">
    <path d="M 147.651534 201.105672 
L 298.92936 201.105672 
L 298.92936 195.087761 
L 147.651534 195.087761 
z
" clip-path="url(#p8e2547df86)" style="fill: #0000ff"/>
   </g>
   <g id="patch_79">
    <path d="M 149.738124 201.105672 
L 207.641017 201.105672 
L 207.641017 195.087761 
L 149.738124 195.087761 
z
" clip-path="url(#p8e2547df86)" style="fill: #0000ff"/>
   </g>
   <g id="patch_80">
    <path d="M 153.389658 201.105672 
L 226.941981 201.105672 
L 226.941981 195.087761 
L 153.389658 195.087761 
z
" clip-path="url(#p8e2547df86)" style="fill: #0000ff"/>
   </g>
   <g id="patch_81">
    <path d="M 155.997897 201.105672 
L 226.941981 201.105672 
L 226.941981 195.087761 
L 155.997897 195.087761 
z
" clip-path="url(#p8e2547df86)" style="fill: #0000ff"/>
   </g>
   <g id="patch_82">
    <path d="M 157.56284 201.105672 
L 228.506924 201.105672 
L 228.506924 195.087761 
L 157.56284 195.087761 
z
" clip-path="url(#p8e2547df86)" style="fill: #0000ff"/>
   </g>
   <g id="patch_83">
    <path d="M 157.56284 201.105672 
L 259.284137 201.105672 
L 259.284137 195.087761 
L 157.56284 195.087761 
z
" clip-path="url(#p8e2547df86)" style="fill: #0000ff"/>
   </g>
   <g id="patch_84">
    <path d="M 157.56284 201.105672 
L 215.465732 201.105672 
L 215.465732 195.087761 
L 157.56284 195.087761 
z
" clip-path="url(#p8e2547df86)" style="fill: #0000ff"/>
   </g>
   <g id="patch_85">
    <path d="M 158.606135 201.105672 
L 216.509027 201.105672 
L 216.509027 195.087761 
L 158.606135 195.087761 
z
" clip-path="url(#p8e2547df86)" style="fill: #0000ff"/>
   </g>
   <g id="patch_86">
    <path d="M 162.779316 201.105672 
L 215.465732 201.105672 
L 215.465732 195.087761 
L 162.779316 195.087761 
z
" clip-path="url(#p8e2547df86)" style="fill: #0000ff"/>
   </g>
   <g id="patch_87">
    <path d="M 163.822612 201.105672 
L 224.85539 201.105672 
L 224.85539 195.087761 
L 163.822612 195.087761 
z
" clip-path="url(#p8e2547df86)" style="fill: #0000ff"/>
   </g>
   <g id="patch_88">
    <path d="M 163.822612 201.105672 
L 215.465732 201.105672 
L 215.465732 195.087761 
L 163.822612 195.087761 
z
" clip-path="url(#p8e2547df86)" style="fill: #0000ff"/>
   </g>
   <g id="patch_89">
    <path d="M 309.362314 198.322388 
L 309.883961 198.322388 
L 309.883961 197.871045 
L 309.362314 197.871045 
z
" clip-path="url(#p8e2547df86)" style="fill: #0000ff"/>
   </g>
   <g id="patch_90">
    <path d="M 144 183.277612 
L 172.168975 183.277612 
L 172.168975 182.826269 
L 144 182.826269 
z
" clip-path="url(#p8e2547df86)" style="fill: #0000ff"/>
   </g>
   <g id="patch_91">
    <path d="M 172.690622 186.060896 
L 199.816301 186.060896 
L 199.816301 180.042985 
L 172.690622 180.042985 
z
" clip-path="url(#p8e2547df86)" style="fill: #0000ff"/>
   </g>
   <g id="patch_92">
    <path d="M 173.21227 186.060896 
L 205.032778 186.060896 
L 205.032778 180.042985 
L 173.21227 180.042985 
z
" clip-path="url(#p8e2547df86)" style="fill: #0000ff"/>
   </g>
   <g id="patch_93">
    <path d="M 173.733918 186.060896 
L 208.684312 186.060896 
L 208.684312 180.042985 
L 173.733918 180.042985 
z
" clip-path="url(#p8e2547df86)" style="fill: #0000ff"/>
   </g>
   <g id="patch_94">
    <path d="M 174.255565 186.060896 
L 202.42454 186.060896 
L 202.42454 180.042985 
L 174.255565 180.042985 
z
" clip-path="url(#p8e2547df86)" style="fill: #0000ff"/>
   </g>
   <g id="patch_95">
    <path d="M 174.777213 186.060896 
L 202.42454 186.060896 
L 202.42454 180.042985 
L 174.777213 180.042985 
z
" clip-path="url(#p8e2547df86)" style="fill: #0000ff"/>
   </g>
   <g id="patch_96">
    <path d="M 174.777213 186.060896 
L 200.337949 186.060896 
L 200.337949 180.042985 
L 174.777213 180.042985 
z
" clip-path="url(#p8e2547df86)" style="fill: #0000ff"/>
   </g>
   <g id="patch_97">
    <path d="M 174.777213 186.060896 
L 200.337949 186.060896 
L 200.337949 180.042985 
L 174.777213 180.042985 
z
" clip-path="url(#p8e2547df86)" style="fill: #0000ff"/>
   </g>
   <g id="patch_98">
    <path d="M 175.820508 186.060896 
L 208.684312 186.060896 
L 208.684312 180.042985 
L 175.820508 180.042985 
z
" clip-path="url(#p8e2547df86)" style="fill: #0000ff"/>
   </g>
   <g id="patch_99">
    <path d="M 175.820508 186.060896 
L 202.42454 186.060896 
L 202.42454 180.042985 
L 175.820508 180.042985 
z
" clip-path="url(#p8e2547df86)" style="fill: #0000ff"/>
   </g>
   <g id="patch_100">
    <path d="M 175.820508 186.060896 
L 203.467835 186.060896 
L 203.467835 180.042985 
L 175.820508 180.042985 
z
" clip-path="url(#p8e2547df86)" style="fill: #0000ff"/>
   </g>
   <g id="patch_101">
    <path d="M 175.820508 186.060896 
L 202.42454 186.060896 
L 202.42454 180.042985 
L 175.820508 180.042985 
z
" clip-path="url(#p8e2547df86)" style="fill: #0000ff"/>
   </g>
   <g id="patch_102">
    <path d="M 175.820508 186.060896 
L 202.42454 186.060896 
L 202.42454 180.042985 
L 175.820508 180.042985 
z
" clip-path="url(#p8e2547df86)" style="fill: #0000ff"/>
   </g>
   <g id="patch_103">
    <path d="M 176.342156 186.060896 
L 200.859597 186.060896 
L 200.859597 180.042985 
L 176.342156 180.042985 
z
" clip-path="url(#p8e2547df86)" style="fill: #0000ff"/>
   </g>
   <g id="patch_104">
    <path d="M 176.342156 186.060896 
L 202.42454 186.060896 
L 202.42454 180.042985 
L 176.342156 180.042985 
z
" clip-path="url(#p8e2547df86)" style="fill: #0000ff"/>
   </g>
   <g id="patch_105">
    <path d="M 176.342156 186.060896 
L 201.381245 186.060896 
L 201.381245 180.042985 
L 176.342156 180.042985 
z
" clip-path="url(#p8e2547df86)" style="fill: #0000ff"/>
   </g>
   <g id="patch_106">
    <path d="M 176.863804 186.060896 
L 202.42454 186.060896 
L 202.42454 180.042985 
L 176.863804 180.042985 
z
" clip-path="url(#p8e2547df86)" style="fill: #0000ff"/>
   </g>
   <g id="patch_107">
    <path d="M 176.863804 186.060896 
L 202.42454 186.060896 
L 202.42454 180.042985 
L 176.863804 180.042985 
z
" clip-path="url(#p8e2547df86)" style="fill: #0000ff"/>
   </g>
   <g id="patch_108">
    <path d="M 176.863804 186.060896 
L 200.337949 186.060896 
L 200.337949 180.042985 
L 176.863804 180.042985 
z
" clip-path="url(#p8e2547df86)" style="fill: #0000ff"/>
   </g>
   <g id="patch_109">
    <path d="M 176.863804 186.060896 
L 200.859597 186.060896 
L 200.859597 180.042985 
L 176.863804 180.042985 
z
" clip-path="url(#p8e2547df86)" style="fill: #0000ff"/>
   </g>
   <g id="patch_110">
    <path d="M 176.863804 186.060896 
L 202.42454 186.060896 
L 202.42454 180.042985 
L 176.863804 180.042985 
z
" clip-path="url(#p8e2547df86)" style="fill: #0000ff"/>
   </g>
   <g id="patch_111">
    <path d="M 209.20596 183.277612 
L 271.803681 183.277612 
L 271.803681 182.826269 
L 209.20596 182.826269 
z
" clip-path="url(#p8e2547df86)" style="fill: #0000ff"/>
   </g>
   <g id="patch_112">
    <path d="M 144 168.232836 
L 160.692726 168.232836 
L 160.692726 167.781493 
L 144 167.781493 
z
" clip-path="url(#p8e2547df86)" style="fill: #0000ff"/>
   </g>
   <g id="patch_113">
    <path d="M 161.214373 171.016119 
L 190.426643 171.016119 
L 190.426643 164.998209 
L 161.214373 164.998209 
z
" clip-path="url(#p8e2547df86)" style="fill: #0000ff"/>
   </g>
   <g id="patch_114">
    <path d="M 162.779316 171.016119 
L 193.034882 171.016119 
L 193.034882 164.998209 
L 162.779316 164.998209 
z
" clip-path="url(#p8e2547df86)" style="fill: #0000ff"/>
   </g>
   <g id="patch_115">
    <path d="M 163.300964 171.016119 
L 221.203856 171.016119 
L 221.203856 164.998209 
L 163.300964 164.998209 
z
" clip-path="url(#p8e2547df86)" style="fill: #0000ff"/>
   </g>
   <g id="patch_116">
    <path d="M 163.300964 171.016119 
L 190.426643 171.016119 
L 190.426643 164.998209 
L 163.300964 164.998209 
z
" clip-path="url(#p8e2547df86)" style="fill: #0000ff"/>
   </g>
   <g id="patch_117">
    <path d="M 163.822612 171.016119 
L 190.426643 171.016119 
L 190.426643 164.998209 
L 163.822612 164.998209 
z
" clip-path="url(#p8e2547df86)" style="fill: #0000ff"/>
   </g>
   <g id="patch_118">
    <path d="M 164.865907 171.016119 
L 195.121472 171.016119 
L 195.121472 164.998209 
L 164.865907 164.998209 
z
" clip-path="url(#p8e2547df86)" style="fill: #0000ff"/>
   </g>
   <g id="patch_119">
    <path d="M 164.865907 171.016119 
L 191.991586 171.016119 
L 191.991586 164.998209 
L 164.865907 164.998209 
z
" clip-path="url(#p8e2547df86)" style="fill: #0000ff"/>
   </g>
   <g id="patch_120">
    <path d="M 164.865907 171.016119 
L 191.991586 171.016119 
L 191.991586 164.998209 
L 164.865907 164.998209 
z
" clip-path="url(#p8e2547df86)" style="fill: #0000ff"/>
   </g>
   <g id="patch_121">
    <path d="M 165.387555 171.016119 
L 191.991586 171.016119 
L 191.991586 164.998209 
L 165.387555 164.998209 
z
" clip-path="url(#p8e2547df86)" style="fill: #0000ff"/>
   </g>
   <g id="patch_122">
    <path d="M 165.387555 171.016119 
L 190.948291 171.016119 
L 190.948291 164.998209 
L 165.387555 164.998209 
z
" clip-path="url(#p8e2547df86)" style="fill: #0000ff"/>
   </g>
   <g id="patch_123">
    <path d="M 165.387555 171.016119 
L 189.904996 171.016119 
L 189.904996 164.998209 
L 165.387555 164.998209 
z
" clip-path="url(#p8e2547df86)" style="fill: #0000ff"/>
   </g>
   <g id="patch_124">
    <path d="M 165.909202 171.016119 
L 190.426643 171.016119 
L 190.426643 164.998209 
L 165.909202 164.998209 
z
" clip-path="url(#p8e2547df86)" style="fill: #0000ff"/>
   </g>
   <g id="patch_125">
    <path d="M 165.909202 171.016119 
L 196.164768 171.016119 
L 196.164768 164.998209 
L 165.909202 164.998209 
z
" clip-path="url(#p8e2547df86)" style="fill: #0000ff"/>
   </g>
   <g id="patch_126">
    <path d="M 165.909202 171.016119 
L 189.904996 171.016119 
L 189.904996 164.998209 
L 165.909202 164.998209 
z
" clip-path="url(#p8e2547df86)" style="fill: #0000ff"/>
   </g>
   <g id="patch_127">
    <path d="M 165.909202 171.016119 
L 191.991586 171.016119 
L 191.991586 164.998209 
L 165.909202 164.998209 
z
" clip-path="url(#p8e2547df86)" style="fill: #0000ff"/>
   </g>
   <g id="patch_128">
    <path d="M 165.909202 171.016119 
L 189.904996 171.016119 
L 189.904996 164.998209 
L 165.909202 164.998209 
z
" clip-path="url(#p8e2547df86)" style="fill: #0000ff"/>
   </g>
   <g id="patch_129">
    <path d="M 165.909202 171.016119 
L 189.904996 171.016119 
L 189.904996 164.998209 
L 165.909202 164.998209 
z
" clip-path="url(#p8e2547df86)" style="fill: #0000ff"/>
   </g>
   <g id="patch_130">
    <path d="M 165.909202 171.016119 
L 190.426643 171.016119 
L 190.426643 164.998209 
L 165.909202 164.998209 
z
" clip-path="url(#p8e2547df86)" style="fill: #0000ff"/>
   </g>
   <g id="patch_131">
    <path d="M 165.909202 171.016119 
L 190.426643 171.016119 
L 190.426643 164.998209 
L 165.909202 164.998209 
z
" clip-path="url(#p8e2547df86)" style="fill: #0000ff"/>
   </g>
   <g id="patch_132">
    <path d="M 165.909202 171.016119 
L 191.991586 171.016119 
L 191.991586 164.998209 
L 165.909202 164.998209 
z
" clip-path="url(#p8e2547df86)" style="fill: #0000ff"/>
   </g>
   <g id="patch_133">
    <path d="M 165.909202 171.016119 
L 191.991586 171.016119 
L 191.991586 164.998209 
L 165.909202 164.998209 
z
" clip-path="url(#p8e2547df86)" style="fill: #0000ff"/>
   </g>
   <g id="patch_134">
    <path d="M 165.909202 171.016119 
L 189.904996 171.016119 
L 189.904996 164.998209 
L 165.909202 164.998209 
z
" clip-path="url(#p8e2547df86)" style="fill: #0000ff"/>
   </g>
   <g id="patch_135">
    <path d="M 165.909202 171.016119 
L 189.904996 171.016119 
L 189.904996 164.998209 
L 165.909202 164.998209 
z
" clip-path="url(#p8e2547df86)" style="fill: #0000ff"/>
   </g>
   <g id="patch_136">
    <path d="M 221.725504 168.232836 
L 657.822962 168.232836 
L 657.822962 167.781493 
L 221.725504 167.781493 
z
" clip-path="url(#p8e2547df86)" style="fill: #0000ff"/>
   </g>
   <g id="patch_137">
    <path d="M 658.34461 171.016119 
L 986.460999 171.016119 
L 986.460999 164.998209 
L 658.34461 164.998209 
z
" clip-path="url(#p8e2547df86)" style="fill: #0000ff"/>
   </g>
   <g id="patch_138">
    <path d="M 986.982647 168.232836 
L 994.285714 168.232836 
L 994.285714 167.781493 
L 986.982647 167.781493 
z
" clip-path="url(#p8e2547df86)" style="fill: #0000ff"/>
   </g>
   <g id="patch_139">
    <path d="M 144 153.18806 
L 248.329535 153.18806 
L 248.329535 152.736716 
L 144 152.736716 
z
" clip-path="url(#p8e2547df86)" style="fill: #0000ff"/>
   </g>
   <g id="patch_140">
    <path d="M 248.851183 155.971343 
L 285.888168 155.971343 
L 285.888168 149.953433 
L 248.851183 149.953433 
z
" clip-path="url(#p8e2547df86)" style="fill: #0000ff"/>
   </g>
   <g id="patch_141">
    <path d="M 250.937774 155.971343 
L 281.714987 155.971343 
L 281.714987 149.953433 
L 250.937774 149.953433 
z
" clip-path="url(#p8e2547df86)" style="fill: #0000ff"/>
   </g>
   <g id="patch_142">
    <path d="M 252.502717 155.971343 
L 279.628396 155.971343 
L 279.628396 149.953433 
L 252.502717 149.953433 
z
" clip-path="url(#p8e2547df86)" style="fill: #0000ff"/>
   </g>
   <g id="patch_143">
    <path d="M 252.502717 155.971343 
L 281.193339 155.971343 
L 281.193339 149.953433 
L 252.502717 149.953433 
z
" clip-path="url(#p8e2547df86)" style="fill: #0000ff"/>
   </g>
   <g id="patch_144">
    <path d="M 253.024365 155.971343 
L 279.628396 155.971343 
L 279.628396 149.953433 
L 253.024365 149.953433 
z
" clip-path="url(#p8e2547df86)" style="fill: #0000ff"/>
   </g>
   <g id="patch_145">
    <path d="M 253.546012 155.971343 
L 279.628396 155.971343 
L 279.628396 149.953433 
L 253.546012 149.953433 
z
" clip-path="url(#p8e2547df86)" style="fill: #0000ff"/>
   </g>
   <g id="patch_146">
    <path d="M 255.110955 155.971343 
L 280.150044 155.971343 
L 280.150044 149.953433 
L 255.110955 149.953433 
z
" clip-path="url(#p8e2547df86)" style="fill: #0000ff"/>
   </g>
   <g id="patch_147">
    <path d="M 255.110955 155.971343 
L 279.628396 155.971343 
L 279.628396 149.953433 
L 255.110955 149.953433 
z
" clip-path="url(#p8e2547df86)" style="fill: #0000ff"/>
   </g>
   <g id="patch_148">
    <path d="M 255.110955 155.971343 
L 281.193339 155.971343 
L 281.193339 149.953433 
L 255.110955 149.953433 
z
" clip-path="url(#p8e2547df86)" style="fill: #0000ff"/>
   </g>
   <g id="patch_149">
    <path d="M 255.110955 155.971343 
L 279.628396 155.971343 
L 279.628396 149.953433 
L 255.110955 149.953433 
z
" clip-path="url(#p8e2547df86)" style="fill: #0000ff"/>
   </g>
   <g id="patch_150">
    <path d="M 255.110955 155.971343 
L 281.193339 155.971343 
L 281.193339 149.953433 
L 255.110955 149.953433 
z
" clip-path="url(#p8e2547df86)" style="fill: #0000ff"/>
   </g>
   <g id="patch_151">
    <path d="M 255.110955 155.971343 
L 284.323225 155.971343 
L 284.323225 149.953433 
L 255.110955 149.953433 
z
" clip-path="url(#p8e2547df86)" style="fill: #0000ff"/>
   </g>
   <g id="patch_152">
    <path d="M 255.110955 155.971343 
L 279.628396 155.971343 
L 279.628396 149.953433 
L 255.110955 149.953433 
z
" clip-path="url(#p8e2547df86)" style="fill: #0000ff"/>
   </g>
   <g id="patch_153">
    <path d="M 255.110955 155.971343 
L 281.193339 155.971343 
L 281.193339 149.953433 
L 255.110955 149.953433 
z
" clip-path="url(#p8e2547df86)" style="fill: #0000ff"/>
   </g>
   <g id="patch_154">
    <path d="M 255.110955 155.971343 
L 281.193339 155.971343 
L 281.193339 149.953433 
L 255.110955 149.953433 
z
" clip-path="url(#p8e2547df86)" style="fill: #0000ff"/>
   </g>
   <g id="patch_155">
    <path d="M 255.110955 155.971343 
L 280.671691 155.971343 
L 280.671691 149.953433 
L 255.110955 149.953433 
z
" clip-path="url(#p8e2547df86)" style="fill: #0000ff"/>
   </g>
   <g id="patch_156">
    <path d="M 255.110955 155.971343 
L 279.628396 155.971343 
L 279.628396 149.953433 
L 255.110955 149.953433 
z
" clip-path="url(#p8e2547df86)" style="fill: #0000ff"/>
   </g>
   <g id="patch_157">
    <path d="M 255.110955 155.971343 
L 279.628396 155.971343 
L 279.628396 149.953433 
L 255.110955 149.953433 
z
" clip-path="url(#p8e2547df86)" style="fill: #0000ff"/>
   </g>
   <g id="patch_158">
    <path d="M 255.632603 155.971343 
L 279.628396 155.971343 
L 279.628396 149.953433 
L 255.632603 149.953433 
z
" clip-path="url(#p8e2547df86)" style="fill: #0000ff"/>
   </g>
   <g id="patch_159">
    <path d="M 255.632603 155.971343 
L 279.628396 155.971343 
L 279.628396 149.953433 
L 255.632603 149.953433 
z
" clip-path="url(#p8e2547df86)" style="fill: #0000ff"/>
   </g>
   <g id="patch_160">
    <path d="M 255.632603 155.971343 
L 280.150044 155.971343 
L 280.150044 149.953433 
L 255.632603 149.953433 
z
" clip-path="url(#p8e2547df86)" style="fill: #0000ff"/>
   </g>
   <g id="patch_161">
    <path d="M 255.632603 155.971343 
L 279.628396 155.971343 
L 279.628396 149.953433 
L 255.632603 149.953433 
z
" clip-path="url(#p8e2547df86)" style="fill: #0000ff"/>
   </g>
   <g id="patch_162">
    <path d="M 255.632603 155.971343 
L 279.628396 155.971343 
L 279.628396 149.953433 
L 255.632603 149.953433 
z
" clip-path="url(#p8e2547df86)" style="fill: #0000ff"/>
   </g>
   <g id="patch_163">
    <path d="M 286.409816 153.18806 
L 364.13532 153.18806 
L 364.13532 152.736716 
L 286.409816 152.736716 
z
" clip-path="url(#p8e2547df86)" style="fill: #0000ff"/>
   </g>
   <g id="patch_164">
    <path d="M 144 138.143284 
L 343.269413 138.143284 
L 343.269413 137.69194 
L 144 137.69194 
z
" clip-path="url(#p8e2547df86)" style="fill: #0000ff"/>
   </g>
   <g id="patch_165">
    <path d="M 343.79106 140.926567 
L 377.176512 140.926567 
L 377.176512 134.908657 
L 343.79106 134.908657 
z
" clip-path="url(#p8e2547df86)" style="fill: #0000ff"/>
   </g>
   <g id="patch_166">
    <path d="M 343.79106 140.926567 
L 375.611569 140.926567 
L 375.611569 134.908657 
L 343.79106 134.908657 
z
" clip-path="url(#p8e2547df86)" style="fill: #0000ff"/>
   </g>
   <g id="patch_167">
    <path d="M 344.834356 140.926567 
L 365.178615 140.926567 
L 365.178615 134.908657 
L 344.834356 134.908657 
z
" clip-path="url(#p8e2547df86)" style="fill: #0000ff"/>
   </g>
   <g id="patch_168">
    <path d="M 345.356004 140.926567 
L 374.046626 140.926567 
L 374.046626 134.908657 
L 345.356004 134.908657 
z
" clip-path="url(#p8e2547df86)" style="fill: #0000ff"/>
   </g>
   <g id="patch_169">
    <path d="M 345.356004 140.926567 
L 375.611569 140.926567 
L 375.611569 134.908657 
L 345.356004 134.908657 
z
" clip-path="url(#p8e2547df86)" style="fill: #0000ff"/>
   </g>
   <g id="patch_170">
    <path d="M 345.356004 140.926567 
L 375.611569 140.926567 
L 375.611569 134.908657 
L 345.356004 134.908657 
z
" clip-path="url(#p8e2547df86)" style="fill: #0000ff"/>
   </g>
   <g id="patch_171">
    <path d="M 345.356004 140.926567 
L 375.611569 140.926567 
L 375.611569 134.908657 
L 345.356004 134.908657 
z
" clip-path="url(#p8e2547df86)" style="fill: #0000ff"/>
   </g>
   <g id="patch_172">
    <path d="M 345.877651 140.926567 
L 391.260999 140.926567 
L 391.260999 134.908657 
L 345.877651 134.908657 
z
" clip-path="url(#p8e2547df86)" style="fill: #0000ff"/>
   </g>
   <g id="patch_173">
    <path d="M 345.877651 140.926567 
L 375.611569 140.926567 
L 375.611569 134.908657 
L 345.877651 134.908657 
z
" clip-path="url(#p8e2547df86)" style="fill: #0000ff"/>
   </g>
   <g id="patch_174">
    <path d="M 345.877651 140.926567 
L 375.611569 140.926567 
L 375.611569 134.908657 
L 345.877651 134.908657 
z
" clip-path="url(#p8e2547df86)" style="fill: #0000ff"/>
   </g>
   <g id="patch_175">
    <path d="M 345.877651 140.926567 
L 373.524978 140.926567 
L 373.524978 134.908657 
L 345.877651 134.908657 
z
" clip-path="url(#p8e2547df86)" style="fill: #0000ff"/>
   </g>
   <g id="patch_176">
    <path d="M 345.877651 140.926567 
L 374.046626 140.926567 
L 374.046626 134.908657 
L 345.877651 134.908657 
z
" clip-path="url(#p8e2547df86)" style="fill: #0000ff"/>
   </g>
   <g id="patch_177">
    <path d="M 345.877651 140.926567 
L 375.611569 140.926567 
L 375.611569 134.908657 
L 345.877651 134.908657 
z
" clip-path="url(#p8e2547df86)" style="fill: #0000ff"/>
   </g>
   <g id="patch_178">
    <path d="M 345.877651 140.926567 
L 375.611569 140.926567 
L 375.611569 134.908657 
L 345.877651 134.908657 
z
" clip-path="url(#p8e2547df86)" style="fill: #0000ff"/>
   </g>
   <g id="patch_179">
    <path d="M 345.877651 140.926567 
L 374.568273 140.926567 
L 374.568273 134.908657 
L 345.877651 134.908657 
z
" clip-path="url(#p8e2547df86)" style="fill: #0000ff"/>
   </g>
   <g id="patch_180">
    <path d="M 345.877651 140.926567 
L 365.178615 140.926567 
L 365.178615 134.908657 
L 345.877651 134.908657 
z
" clip-path="url(#p8e2547df86)" style="fill: #0000ff"/>
   </g>
   <g id="patch_181">
    <path d="M 345.877651 140.926567 
L 375.611569 140.926567 
L 375.611569 134.908657 
L 345.877651 134.908657 
z
" clip-path="url(#p8e2547df86)" style="fill: #0000ff"/>
   </g>
   <g id="patch_182">
    <path d="M 345.877651 140.926567 
L 375.611569 140.926567 
L 375.611569 134.908657 
L 345.877651 134.908657 
z
" clip-path="url(#p8e2547df86)" style="fill: #0000ff"/>
   </g>
   <g id="patch_183">
    <path d="M 345.877651 140.926567 
L 375.611569 140.926567 
L 375.611569 134.908657 
L 345.877651 134.908657 
z
" clip-path="url(#p8e2547df86)" style="fill: #0000ff"/>
   </g>
   <g id="patch_184">
    <path d="M 345.877651 140.926567 
L 374.046626 140.926567 
L 374.046626 134.908657 
L 345.877651 134.908657 
z
" clip-path="url(#p8e2547df86)" style="fill: #0000ff"/>
   </g>
   <g id="patch_185">
    <path d="M 345.877651 140.926567 
L 375.611569 140.926567 
L 375.611569 134.908657 
L 345.877651 134.908657 
z
" clip-path="url(#p8e2547df86)" style="fill: #0000ff"/>
   </g>
   <g id="patch_186">
    <path d="M 391.782647 138.143284 
L 471.594741 138.143284 
L 471.594741 137.69194 
L 391.782647 137.69194 
z
" clip-path="url(#p8e2547df86)" style="fill: #0000ff"/>
   </g>
   <g id="patch_187">
    <path d="M 144 123.098507 
L 187.818405 123.098507 
L 187.818405 122.647164 
L 144 122.647164 
z
" clip-path="url(#p8e2547df86)" style="fill: #0000ff"/>
   </g>
   <g id="patch_188">
    <path d="M 188.340053 125.881791 
L 217.552323 125.881791 
L 217.552323 119.863881 
L 188.340053 119.863881 
z
" clip-path="url(#p8e2547df86)" style="fill: #0000ff"/>
   </g>
   <g id="patch_189">
    <path d="M 188.8617 125.881791 
L 215.465732 125.881791 
L 215.465732 119.863881 
L 188.8617 119.863881 
z
" clip-path="url(#p8e2547df86)" style="fill: #0000ff"/>
   </g>
   <g id="patch_190">
    <path d="M 189.383348 125.881791 
L 217.552323 125.881791 
L 217.552323 119.863881 
L 189.383348 119.863881 
z
" clip-path="url(#p8e2547df86)" style="fill: #0000ff"/>
   </g>
   <g id="patch_191">
    <path d="M 189.904996 125.881791 
L 209.727607 125.881791 
L 209.727607 119.863881 
L 189.904996 119.863881 
z
" clip-path="url(#p8e2547df86)" style="fill: #0000ff"/>
   </g>
   <g id="patch_192">
    <path d="M 190.948291 125.881791 
L 215.987379 125.881791 
L 215.987379 119.863881 
L 190.948291 119.863881 
z
" clip-path="url(#p8e2547df86)" style="fill: #0000ff"/>
   </g>
   <g id="patch_193">
    <path d="M 190.948291 125.881791 
L 215.465732 125.881791 
L 215.465732 119.863881 
L 190.948291 119.863881 
z
" clip-path="url(#p8e2547df86)" style="fill: #0000ff"/>
   </g>
   <g id="patch_194">
    <path d="M 191.469939 125.881791 
L 215.987379 125.881791 
L 215.987379 119.863881 
L 191.469939 119.863881 
z
" clip-path="url(#p8e2547df86)" style="fill: #0000ff"/>
   </g>
   <g id="patch_195">
    <path d="M 191.469939 125.881791 
L 223.290447 125.881791 
L 223.290447 119.863881 
L 191.469939 119.863881 
z
" clip-path="url(#p8e2547df86)" style="fill: #0000ff"/>
   </g>
   <g id="patch_196">
    <path d="M 191.469939 125.881791 
L 215.987379 125.881791 
L 215.987379 119.863881 
L 191.469939 119.863881 
z
" clip-path="url(#p8e2547df86)" style="fill: #0000ff"/>
   </g>
   <g id="patch_197">
    <path d="M 191.469939 125.881791 
L 217.552323 125.881791 
L 217.552323 119.863881 
L 191.469939 119.863881 
z
" clip-path="url(#p8e2547df86)" style="fill: #0000ff"/>
   </g>
   <g id="patch_198">
    <path d="M 191.469939 125.881791 
L 215.987379 125.881791 
L 215.987379 119.863881 
L 191.469939 119.863881 
z
" clip-path="url(#p8e2547df86)" style="fill: #0000ff"/>
   </g>
   <g id="patch_199">
    <path d="M 191.469939 125.881791 
L 215.465732 125.881791 
L 215.465732 119.863881 
L 191.469939 119.863881 
z
" clip-path="url(#p8e2547df86)" style="fill: #0000ff"/>
   </g>
   <g id="patch_200">
    <path d="M 191.469939 125.881791 
L 215.987379 125.881791 
L 215.987379 119.863881 
L 191.469939 119.863881 
z
" clip-path="url(#p8e2547df86)" style="fill: #0000ff"/>
   </g>
   <g id="patch_201">
    <path d="M 191.469939 125.881791 
L 215.465732 125.881791 
L 215.465732 119.863881 
L 191.469939 119.863881 
z
" clip-path="url(#p8e2547df86)" style="fill: #0000ff"/>
   </g>
   <g id="patch_202">
    <path d="M 191.469939 125.881791 
L 215.987379 125.881791 
L 215.987379 119.863881 
L 191.469939 119.863881 
z
" clip-path="url(#p8e2547df86)" style="fill: #0000ff"/>
   </g>
   <g id="patch_203">
    <path d="M 191.469939 125.881791 
L 223.290447 125.881791 
L 223.290447 119.863881 
L 191.469939 119.863881 
z
" clip-path="url(#p8e2547df86)" style="fill: #0000ff"/>
   </g>
   <g id="patch_204">
    <path d="M 191.469939 125.881791 
L 217.552323 125.881791 
L 217.552323 119.863881 
L 191.469939 119.863881 
z
" clip-path="url(#p8e2547df86)" style="fill: #0000ff"/>
   </g>
   <g id="patch_205">
    <path d="M 191.469939 125.881791 
L 215.987379 125.881791 
L 215.987379 119.863881 
L 191.469939 119.863881 
z
" clip-path="url(#p8e2547df86)" style="fill: #0000ff"/>
   </g>
   <g id="patch_206">
    <path d="M 191.469939 125.881791 
L 215.987379 125.881791 
L 215.987379 119.863881 
L 191.469939 119.863881 
z
" clip-path="url(#p8e2547df86)" style="fill: #0000ff"/>
   </g>
   <g id="patch_207">
    <path d="M 223.812095 123.098507 
L 281.714987 123.098507 
L 281.714987 122.647164 
L 223.812095 122.647164 
z
" clip-path="url(#p8e2547df86)" style="fill: #0000ff"/>
   </g>
   <g id="patch_208">
    <path d="M 144 108.053731 
L 175.820508 108.053731 
L 175.820508 107.602388 
L 144 107.602388 
z
" clip-path="url(#p8e2547df86)" style="fill: #0000ff"/>
   </g>
   <g id="patch_209">
    <path d="M 176.342156 110.837015 
L 206.076074 110.837015 
L 206.076074 104.819104 
L 176.342156 104.819104 
z
" clip-path="url(#p8e2547df86)" style="fill: #0000ff"/>
   </g>
   <g id="patch_210">
    <path d="M 177.385451 110.837015 
L 206.076074 110.837015 
L 206.076074 104.819104 
L 177.385451 104.819104 
z
" clip-path="url(#p8e2547df86)" style="fill: #0000ff"/>
   </g>
   <g id="patch_211">
    <path d="M 177.907099 110.837015 
L 212.335846 110.837015 
L 212.335846 104.819104 
L 177.907099 104.819104 
z
" clip-path="url(#p8e2547df86)" style="fill: #0000ff"/>
   </g>
   <g id="patch_212">
    <path d="M 179.472042 110.837015 
L 206.076074 110.837015 
L 206.076074 104.819104 
L 179.472042 104.819104 
z
" clip-path="url(#p8e2547df86)" style="fill: #0000ff"/>
   </g>
   <g id="patch_213">
    <path d="M 179.472042 110.837015 
L 207.119369 110.837015 
L 207.119369 104.819104 
L 179.472042 104.819104 
z
" clip-path="url(#p8e2547df86)" style="fill: #0000ff"/>
   </g>
   <g id="patch_214">
    <path d="M 179.472042 110.837015 
L 206.076074 110.837015 
L 206.076074 104.819104 
L 179.472042 104.819104 
z
" clip-path="url(#p8e2547df86)" style="fill: #0000ff"/>
   </g>
   <g id="patch_215">
    <path d="M 179.472042 110.837015 
L 206.076074 110.837015 
L 206.076074 104.819104 
L 179.472042 104.819104 
z
" clip-path="url(#p8e2547df86)" style="fill: #0000ff"/>
   </g>
   <g id="patch_216">
    <path d="M 179.99369 110.837015 
L 204.511131 110.837015 
L 204.511131 104.819104 
L 179.99369 104.819104 
z
" clip-path="url(#p8e2547df86)" style="fill: #0000ff"/>
   </g>
   <g id="patch_217">
    <path d="M 179.99369 110.837015 
L 206.076074 110.837015 
L 206.076074 104.819104 
L 179.99369 104.819104 
z
" clip-path="url(#p8e2547df86)" style="fill: #0000ff"/>
   </g>
   <g id="patch_218">
    <path d="M 179.99369 110.837015 
L 206.076074 110.837015 
L 206.076074 104.819104 
L 179.99369 104.819104 
z
" clip-path="url(#p8e2547df86)" style="fill: #0000ff"/>
   </g>
   <g id="patch_219">
    <path d="M 179.99369 110.837015 
L 206.076074 110.837015 
L 206.076074 104.819104 
L 179.99369 104.819104 
z
" clip-path="url(#p8e2547df86)" style="fill: #0000ff"/>
   </g>
   <g id="patch_220">
    <path d="M 179.99369 110.837015 
L 206.076074 110.837015 
L 206.076074 104.819104 
L 179.99369 104.819104 
z
" clip-path="url(#p8e2547df86)" style="fill: #0000ff"/>
   </g>
   <g id="patch_221">
    <path d="M 179.99369 110.837015 
L 204.511131 110.837015 
L 204.511131 104.819104 
L 179.99369 104.819104 
z
" clip-path="url(#p8e2547df86)" style="fill: #0000ff"/>
   </g>
   <g id="patch_222">
    <path d="M 179.99369 110.837015 
L 203.989483 110.837015 
L 203.989483 104.819104 
L 179.99369 104.819104 
z
" clip-path="url(#p8e2547df86)" style="fill: #0000ff"/>
   </g>
   <g id="patch_223">
    <path d="M 179.99369 110.837015 
L 212.335846 110.837015 
L 212.335846 104.819104 
L 179.99369 104.819104 
z
" clip-path="url(#p8e2547df86)" style="fill: #0000ff"/>
   </g>
   <g id="patch_224">
    <path d="M 179.99369 110.837015 
L 208.684312 110.837015 
L 208.684312 104.819104 
L 179.99369 104.819104 
z
" clip-path="url(#p8e2547df86)" style="fill: #0000ff"/>
   </g>
   <g id="patch_225">
    <path d="M 179.99369 110.837015 
L 203.989483 110.837015 
L 203.989483 104.819104 
L 179.99369 104.819104 
z
" clip-path="url(#p8e2547df86)" style="fill: #0000ff"/>
   </g>
   <g id="patch_226">
    <path d="M 180.515337 110.837015 
L 203.989483 110.837015 
L 203.989483 104.819104 
L 180.515337 104.819104 
z
" clip-path="url(#p8e2547df86)" style="fill: #0000ff"/>
   </g>
   <g id="patch_227">
    <path d="M 180.515337 110.837015 
L 204.511131 110.837015 
L 204.511131 104.819104 
L 180.515337 104.819104 
z
" clip-path="url(#p8e2547df86)" style="fill: #0000ff"/>
   </g>
   <g id="patch_228">
    <path d="M 180.515337 110.837015 
L 203.989483 110.837015 
L 203.989483 104.819104 
L 180.515337 104.819104 
z
" clip-path="url(#p8e2547df86)" style="fill: #0000ff"/>
   </g>
   <g id="patch_229">
    <path d="M 212.857493 108.053731 
L 275.455215 108.053731 
L 275.455215 107.602388 
L 212.857493 107.602388 
z
" clip-path="url(#p8e2547df86)" style="fill: #0000ff"/>
   </g>
   <g id="patch_230">
    <path d="M 144 93.008955 
L 524.281157 93.008955 
L 524.281157 92.557612 
L 144 92.557612 
z
" clip-path="url(#p8e2547df86)" style="fill: #0000ff"/>
   </g>
   <g id="patch_231">
    <path d="M 524.802805 95.792239 
L 552.450131 95.792239 
L 552.450131 89.774328 
L 524.802805 89.774328 
z
" clip-path="url(#p8e2547df86)" style="fill: #0000ff"/>
   </g>
   <g id="patch_232">
    <path d="M 524.802805 95.792239 
L 554.015074 95.792239 
L 554.015074 89.774328 
L 524.802805 89.774328 
z
" clip-path="url(#p8e2547df86)" style="fill: #0000ff"/>
   </g>
   <g id="patch_233">
    <path d="M 524.802805 95.792239 
L 554.015074 95.792239 
L 554.015074 89.774328 
L 524.802805 89.774328 
z
" clip-path="url(#p8e2547df86)" style="fill: #0000ff"/>
   </g>
   <g id="patch_234">
    <path d="M 524.802805 95.792239 
L 552.450131 95.792239 
L 552.450131 89.774328 
L 524.802805 89.774328 
z
" clip-path="url(#p8e2547df86)" style="fill: #0000ff"/>
   </g>
   <g id="patch_235">
    <path d="M 524.802805 95.792239 
L 551.928484 95.792239 
L 551.928484 89.774328 
L 524.802805 89.774328 
z
" clip-path="url(#p8e2547df86)" style="fill: #0000ff"/>
   </g>
   <g id="patch_236">
    <path d="M 525.324452 95.792239 
L 577.48922 95.792239 
L 577.48922 89.774328 
L 525.324452 89.774328 
z
" clip-path="url(#p8e2547df86)" style="fill: #0000ff"/>
   </g>
   <g id="patch_237">
    <path d="M 525.324452 95.792239 
L 554.536722 95.792239 
L 554.536722 89.774328 
L 525.324452 89.774328 
z
" clip-path="url(#p8e2547df86)" style="fill: #0000ff"/>
   </g>
   <g id="patch_238">
    <path d="M 525.324452 95.792239 
L 551.928484 95.792239 
L 551.928484 89.774328 
L 525.324452 89.774328 
z
" clip-path="url(#p8e2547df86)" style="fill: #0000ff"/>
   </g>
   <g id="patch_239">
    <path d="M 525.324452 95.792239 
L 551.928484 95.792239 
L 551.928484 89.774328 
L 525.324452 89.774328 
z
" clip-path="url(#p8e2547df86)" style="fill: #0000ff"/>
   </g>
   <g id="patch_240">
    <path d="M 525.324452 95.792239 
L 551.928484 95.792239 
L 551.928484 89.774328 
L 525.324452 89.774328 
z
" clip-path="url(#p8e2547df86)" style="fill: #0000ff"/>
   </g>
   <g id="patch_241">
    <path d="M 525.324452 95.792239 
L 552.450131 95.792239 
L 552.450131 89.774328 
L 525.324452 89.774328 
z
" clip-path="url(#p8e2547df86)" style="fill: #0000ff"/>
   </g>
   <g id="patch_242">
    <path d="M 525.324452 95.792239 
L 554.015074 95.792239 
L 554.015074 89.774328 
L 525.324452 89.774328 
z
" clip-path="url(#p8e2547df86)" style="fill: #0000ff"/>
   </g>
   <g id="patch_243">
    <path d="M 525.324452 95.792239 
L 554.015074 95.792239 
L 554.015074 89.774328 
L 525.324452 89.774328 
z
" clip-path="url(#p8e2547df86)" style="fill: #0000ff"/>
   </g>
   <g id="patch_244">
    <path d="M 525.324452 95.792239 
L 552.450131 95.792239 
L 552.450131 89.774328 
L 525.324452 89.774328 
z
" clip-path="url(#p8e2547df86)" style="fill: #0000ff"/>
   </g>
   <g id="patch_245">
    <path d="M 525.324452 95.792239 
L 560.274847 95.792239 
L 560.274847 89.774328 
L 525.324452 89.774328 
z
" clip-path="url(#p8e2547df86)" style="fill: #0000ff"/>
   </g>
   <g id="patch_246">
    <path d="M 525.324452 95.792239 
L 554.015074 95.792239 
L 554.015074 89.774328 
L 525.324452 89.774328 
z
" clip-path="url(#p8e2547df86)" style="fill: #0000ff"/>
   </g>
   <g id="patch_247">
    <path d="M 525.324452 95.792239 
L 554.015074 95.792239 
L 554.015074 89.774328 
L 525.324452 89.774328 
z
" clip-path="url(#p8e2547df86)" style="fill: #0000ff"/>
   </g>
   <g id="patch_248">
    <path d="M 525.324452 95.792239 
L 551.928484 95.792239 
L 551.928484 89.774328 
L 525.324452 89.774328 
z
" clip-path="url(#p8e2547df86)" style="fill: #0000ff"/>
   </g>
   <g id="patch_249">
    <path d="M 525.324452 95.792239 
L 552.971779 95.792239 
L 552.971779 89.774328 
L 525.324452 89.774328 
z
" clip-path="url(#p8e2547df86)" style="fill: #0000ff"/>
   </g>
   <g id="patch_250">
    <path d="M 525.324452 95.792239 
L 552.971779 95.792239 
L 552.971779 89.774328 
L 525.324452 89.774328 
z
" clip-path="url(#p8e2547df86)" style="fill: #0000ff"/>
   </g>
   <g id="patch_251">
    <path d="M 525.324452 95.792239 
L 551.928484 95.792239 
L 551.928484 89.774328 
L 525.324452 89.774328 
z
" clip-path="url(#p8e2547df86)" style="fill: #0000ff"/>
   </g>
   <g id="patch_252">
    <path d="M 578.010868 93.008955 
L 718.334093 93.008955 
L 718.334093 92.557612 
L 578.010868 92.557612 
z
" clip-path="url(#p8e2547df86)" style="fill: #0000ff"/>
   </g>
   <g id="patch_253">
    <path d="M 144 77.964179 
L 500.285364 77.964179 
L 500.285364 77.512836 
L 144 77.512836 
z
" clip-path="url(#p8e2547df86)" style="fill: #0000ff"/>
   </g>
   <g id="patch_254">
    <path d="M 500.807011 80.747463 
L 540.452235 80.747463 
L 540.452235 74.729552 
L 500.807011 74.729552 
z
" clip-path="url(#p8e2547df86)" style="fill: #0000ff"/>
   </g>
   <g id="patch_255">
    <path d="M 502.893602 80.747463 
L 535.757406 80.747463 
L 535.757406 74.729552 
L 502.893602 74.729552 
z
" clip-path="url(#p8e2547df86)" style="fill: #0000ff"/>
   </g>
   <g id="patch_256">
    <path d="M 503.41525 80.747463 
L 537.843996 80.747463 
L 537.843996 74.729552 
L 503.41525 74.729552 
z
" clip-path="url(#p8e2547df86)" style="fill: #0000ff"/>
   </g>
   <g id="patch_257">
    <path d="M 503.936897 80.747463 
L 535.235758 80.747463 
L 535.235758 74.729552 
L 503.936897 74.729552 
z
" clip-path="url(#p8e2547df86)" style="fill: #0000ff"/>
   </g>
   <g id="patch_258">
    <path d="M 504.980193 80.747463 
L 535.235758 80.747463 
L 535.235758 74.729552 
L 504.980193 74.729552 
z
" clip-path="url(#p8e2547df86)" style="fill: #0000ff"/>
   </g>
   <g id="patch_259">
    <path d="M 504.980193 80.747463 
L 535.235758 80.747463 
L 535.235758 74.729552 
L 504.980193 74.729552 
z
" clip-path="url(#p8e2547df86)" style="fill: #0000ff"/>
   </g>
   <g id="patch_260">
    <path d="M 505.50184 80.747463 
L 534.71411 80.747463 
L 534.71411 74.729552 
L 505.50184 74.729552 
z
" clip-path="url(#p8e2547df86)" style="fill: #0000ff"/>
   </g>
   <g id="patch_261">
    <path d="M 505.50184 80.747463 
L 534.71411 80.747463 
L 534.71411 74.729552 
L 505.50184 74.729552 
z
" clip-path="url(#p8e2547df86)" style="fill: #0000ff"/>
   </g>
   <g id="patch_262">
    <path d="M 505.50184 80.747463 
L 534.71411 80.747463 
L 534.71411 74.729552 
L 505.50184 74.729552 
z
" clip-path="url(#p8e2547df86)" style="fill: #0000ff"/>
   </g>
   <g id="patch_263">
    <path d="M 505.50184 80.747463 
L 535.235758 80.747463 
L 535.235758 74.729552 
L 505.50184 74.729552 
z
" clip-path="url(#p8e2547df86)" style="fill: #0000ff"/>
   </g>
   <g id="patch_264">
    <path d="M 505.50184 80.747463 
L 534.71411 80.747463 
L 534.71411 74.729552 
L 505.50184 74.729552 
z
" clip-path="url(#p8e2547df86)" style="fill: #0000ff"/>
   </g>
   <g id="patch_265">
    <path d="M 505.50184 80.747463 
L 534.71411 80.747463 
L 534.71411 74.729552 
L 505.50184 74.729552 
z
" clip-path="url(#p8e2547df86)" style="fill: #0000ff"/>
   </g>
   <g id="patch_266">
    <path d="M 505.50184 80.747463 
L 534.71411 80.747463 
L 534.71411 74.729552 
L 505.50184 74.729552 
z
" clip-path="url(#p8e2547df86)" style="fill: #0000ff"/>
   </g>
   <g id="patch_267">
    <path d="M 506.023488 80.747463 
L 535.235758 80.747463 
L 535.235758 74.729552 
L 506.023488 74.729552 
z
" clip-path="url(#p8e2547df86)" style="fill: #0000ff"/>
   </g>
   <g id="patch_268">
    <path d="M 506.023488 80.747463 
L 534.71411 80.747463 
L 534.71411 74.729552 
L 506.023488 74.729552 
z
" clip-path="url(#p8e2547df86)" style="fill: #0000ff"/>
   </g>
   <g id="patch_269">
    <path d="M 506.023488 80.747463 
L 535.235758 80.747463 
L 535.235758 74.729552 
L 506.023488 74.729552 
z
" clip-path="url(#p8e2547df86)" style="fill: #0000ff"/>
   </g>
   <g id="patch_270">
    <path d="M 506.023488 80.747463 
L 535.235758 80.747463 
L 535.235758 74.729552 
L 506.023488 74.729552 
z
" clip-path="url(#p8e2547df86)" style="fill: #0000ff"/>
   </g>
   <g id="patch_271">
    <path d="M 506.023488 80.747463 
L 535.235758 80.747463 
L 535.235758 74.729552 
L 506.023488 74.729552 
z
" clip-path="url(#p8e2547df86)" style="fill: #0000ff"/>
   </g>
   <g id="patch_272">
    <path d="M 506.023488 80.747463 
L 535.757406 80.747463 
L 535.757406 74.729552 
L 506.023488 74.729552 
z
" clip-path="url(#p8e2547df86)" style="fill: #0000ff"/>
   </g>
   <g id="patch_273">
    <path d="M 513.848203 80.747463 
L 534.71411 80.747463 
L 534.71411 74.729552 
L 513.848203 74.729552 
z
" clip-path="url(#p8e2547df86)" style="fill: #0000ff"/>
   </g>
   <g id="patch_274">
    <path d="M 540.973883 77.964179 
L 593.13865 77.964179 
L 593.13865 77.512836 
L 540.973883 77.512836 
z
" clip-path="url(#p8e2547df86)" style="fill: #0000ff"/>
   </g>
   <g id="patch_275">
    <path d="M 144 62.919403 
L 182.601928 62.919403 
L 182.601928 62.46806 
L 144 62.46806 
z
" clip-path="url(#p8e2547df86)" style="fill: #0000ff"/>
   </g>
   <g id="patch_276">
    <path d="M 183.123576 65.702687 
L 208.162664 65.702687 
L 208.162664 59.684776 
L 183.123576 59.684776 
z
" clip-path="url(#p8e2547df86)" style="fill: #0000ff"/>
   </g>
   <g id="patch_277">
    <path d="M 183.123576 65.702687 
L 208.162664 65.702687 
L 208.162664 59.684776 
L 183.123576 59.684776 
z
" clip-path="url(#p8e2547df86)" style="fill: #0000ff"/>
   </g>
   <g id="patch_278">
    <path d="M 183.123576 65.702687 
L 207.119369 65.702687 
L 207.119369 59.684776 
L 183.123576 59.684776 
z
" clip-path="url(#p8e2547df86)" style="fill: #0000ff"/>
   </g>
   <g id="patch_279">
    <path d="M 183.645223 65.702687 
L 207.641017 65.702687 
L 207.641017 59.684776 
L 183.645223 59.684776 
z
" clip-path="url(#p8e2547df86)" style="fill: #0000ff"/>
   </g>
   <g id="patch_280">
    <path d="M 183.645223 65.702687 
L 210.770903 65.702687 
L 210.770903 59.684776 
L 183.645223 59.684776 
z
" clip-path="url(#p8e2547df86)" style="fill: #0000ff"/>
   </g>
   <g id="patch_281">
    <path d="M 183.645223 65.702687 
L 207.641017 65.702687 
L 207.641017 59.684776 
L 183.645223 59.684776 
z
" clip-path="url(#p8e2547df86)" style="fill: #0000ff"/>
   </g>
   <g id="patch_282">
    <path d="M 183.645223 65.702687 
L 209.20596 65.702687 
L 209.20596 59.684776 
L 183.645223 59.684776 
z
" clip-path="url(#p8e2547df86)" style="fill: #0000ff"/>
   </g>
   <g id="patch_283">
    <path d="M 183.645223 65.702687 
L 207.119369 65.702687 
L 207.119369 59.684776 
L 183.645223 59.684776 
z
" clip-path="url(#p8e2547df86)" style="fill: #0000ff"/>
   </g>
   <g id="patch_284">
    <path d="M 183.645223 65.702687 
L 207.119369 65.702687 
L 207.119369 59.684776 
L 183.645223 59.684776 
z
" clip-path="url(#p8e2547df86)" style="fill: #0000ff"/>
   </g>
   <g id="patch_285">
    <path d="M 183.645223 65.702687 
L 207.641017 65.702687 
L 207.641017 59.684776 
L 183.645223 59.684776 
z
" clip-path="url(#p8e2547df86)" style="fill: #0000ff"/>
   </g>
   <g id="patch_286">
    <path d="M 183.645223 65.702687 
L 207.641017 65.702687 
L 207.641017 59.684776 
L 183.645223 59.684776 
z
" clip-path="url(#p8e2547df86)" style="fill: #0000ff"/>
   </g>
   <g id="patch_287">
    <path d="M 183.645223 65.702687 
L 207.641017 65.702687 
L 207.641017 59.684776 
L 183.645223 59.684776 
z
" clip-path="url(#p8e2547df86)" style="fill: #0000ff"/>
   </g>
   <g id="patch_288">
    <path d="M 183.645223 65.702687 
L 207.641017 65.702687 
L 207.641017 59.684776 
L 183.645223 59.684776 
z
" clip-path="url(#p8e2547df86)" style="fill: #0000ff"/>
   </g>
   <g id="patch_289">
    <path d="M 183.645223 65.702687 
L 207.119369 65.702687 
L 207.119369 59.684776 
L 183.645223 59.684776 
z
" clip-path="url(#p8e2547df86)" style="fill: #0000ff"/>
   </g>
   <g id="patch_290">
    <path d="M 183.645223 65.702687 
L 214.422436 65.702687 
L 214.422436 59.684776 
L 183.645223 59.684776 
z
" clip-path="url(#p8e2547df86)" style="fill: #0000ff"/>
   </g>
   <g id="patch_291">
    <path d="M 183.645223 65.702687 
L 209.20596 65.702687 
L 209.20596 59.684776 
L 183.645223 59.684776 
z
" clip-path="url(#p8e2547df86)" style="fill: #0000ff"/>
   </g>
   <g id="patch_292">
    <path d="M 183.645223 65.702687 
L 209.20596 65.702687 
L 209.20596 59.684776 
L 183.645223 59.684776 
z
" clip-path="url(#p8e2547df86)" style="fill: #0000ff"/>
   </g>
   <g id="patch_293">
    <path d="M 183.645223 65.702687 
L 207.119369 65.702687 
L 207.119369 59.684776 
L 183.645223 59.684776 
z
" clip-path="url(#p8e2547df86)" style="fill: #0000ff"/>
   </g>
   <g id="patch_294">
    <path d="M 183.645223 65.702687 
L 208.162664 65.702687 
L 208.162664 59.684776 
L 183.645223 59.684776 
z
" clip-path="url(#p8e2547df86)" style="fill: #0000ff"/>
   </g>
   <g id="patch_295">
    <path d="M 183.645223 65.702687 
L 207.119369 65.702687 
L 207.119369 59.684776 
L 183.645223 59.684776 
z
" clip-path="url(#p8e2547df86)" style="fill: #0000ff"/>
   </g>
   <g id="patch_296">
    <path d="M 210.249255 65.702687 
L 270.760386 65.702687 
L 270.760386 59.684776 
L 210.249255 59.684776 
z
" clip-path="url(#p8e2547df86)" style="fill: #0000ff"/>
   </g>
   <g id="patch_297">
    <path d="M 271.282033 62.919403 
L 279.106748 62.919403 
L 279.106748 62.46806 
L 271.282033 62.46806 
z
" clip-path="url(#p8e2547df86)" style="fill: #0000ff"/>
   </g>
   <g id="patch_298">
    <path d="M 144 47.874627 
L 153.911306 47.874627 
L 153.911306 47.423284 
L 144 47.423284 
z
" clip-path="url(#p8e2547df86)" style="fill: #0000ff"/>
   </g>
   <g id="patch_299">
    <path d="M 154.432954 50.65791 
L 181.558633 50.65791 
L 181.558633 44.64 
L 154.432954 44.64 
z
" clip-path="url(#p8e2547df86)" style="fill: #0000ff"/>
   </g>
   <g id="patch_300">
    <path d="M 154.432954 50.65791 
L 181.558633 50.65791 
L 181.558633 44.64 
L 154.432954 44.64 
z
" clip-path="url(#p8e2547df86)" style="fill: #0000ff"/>
   </g>
   <g id="patch_301">
    <path d="M 154.432954 50.65791 
L 179.472042 50.65791 
L 179.472042 44.64 
L 154.432954 44.64 
z
" clip-path="url(#p8e2547df86)" style="fill: #0000ff"/>
   </g>
   <g id="patch_302">
    <path d="M 154.432954 50.65791 
L 181.558633 50.65791 
L 181.558633 44.64 
L 154.432954 44.64 
z
" clip-path="url(#p8e2547df86)" style="fill: #0000ff"/>
   </g>
   <g id="patch_303">
    <path d="M 154.432954 50.65791 
L 179.472042 50.65791 
L 179.472042 44.64 
L 154.432954 44.64 
z
" clip-path="url(#p8e2547df86)" style="fill: #0000ff"/>
   </g>
   <g id="patch_304">
    <path d="M 154.432954 50.65791 
L 181.558633 50.65791 
L 181.558633 44.64 
L 154.432954 44.64 
z
" clip-path="url(#p8e2547df86)" style="fill: #0000ff"/>
   </g>
   <g id="patch_305">
    <path d="M 154.432954 50.65791 
L 181.558633 50.65791 
L 181.558633 44.64 
L 154.432954 44.64 
z
" clip-path="url(#p8e2547df86)" style="fill: #0000ff"/>
   </g>
   <g id="patch_306">
    <path d="M 154.432954 50.65791 
L 179.472042 50.65791 
L 179.472042 44.64 
L 154.432954 44.64 
z
" clip-path="url(#p8e2547df86)" style="fill: #0000ff"/>
   </g>
   <g id="patch_307">
    <path d="M 154.432954 50.65791 
L 182.08028 50.65791 
L 182.08028 44.64 
L 154.432954 44.64 
z
" clip-path="url(#p8e2547df86)" style="fill: #0000ff"/>
   </g>
   <g id="patch_308">
    <path d="M 154.432954 50.65791 
L 179.472042 50.65791 
L 179.472042 44.64 
L 154.432954 44.64 
z
" clip-path="url(#p8e2547df86)" style="fill: #0000ff"/>
   </g>
   <g id="patch_309">
    <path d="M 154.432954 50.65791 
L 181.558633 50.65791 
L 181.558633 44.64 
L 154.432954 44.64 
z
" clip-path="url(#p8e2547df86)" style="fill: #0000ff"/>
   </g>
   <g id="patch_310">
    <path d="M 154.954601 50.65791 
L 179.472042 50.65791 
L 179.472042 44.64 
L 154.954601 44.64 
z
" clip-path="url(#p8e2547df86)" style="fill: #0000ff"/>
   </g>
   <g id="patch_311">
    <path d="M 154.954601 50.65791 
L 182.08028 50.65791 
L 182.08028 44.64 
L 154.954601 44.64 
z
" clip-path="url(#p8e2547df86)" style="fill: #0000ff"/>
   </g>
   <g id="patch_312">
    <path d="M 154.954601 50.65791 
L 179.472042 50.65791 
L 179.472042 44.64 
L 154.954601 44.64 
z
" clip-path="url(#p8e2547df86)" style="fill: #0000ff"/>
   </g>
   <g id="patch_313">
    <path d="M 154.954601 50.65791 
L 179.472042 50.65791 
L 179.472042 44.64 
L 154.954601 44.64 
z
" clip-path="url(#p8e2547df86)" style="fill: #0000ff"/>
   </g>
   <g id="patch_314">
    <path d="M 154.954601 50.65791 
L 179.472042 50.65791 
L 179.472042 44.64 
L 154.954601 44.64 
z
" clip-path="url(#p8e2547df86)" style="fill: #0000ff"/>
   </g>
   <g id="patch_315">
    <path d="M 154.954601 50.65791 
L 175.298861 50.65791 
L 175.298861 44.64 
L 154.954601 44.64 
z
" clip-path="url(#p8e2547df86)" style="fill: #0000ff"/>
   </g>
   <g id="patch_316">
    <path d="M 154.954601 50.65791 
L 179.472042 50.65791 
L 179.472042 44.64 
L 154.954601 44.64 
z
" clip-path="url(#p8e2547df86)" style="fill: #0000ff"/>
   </g>
   <g id="patch_317">
    <path d="M 154.954601 50.65791 
L 181.558633 50.65791 
L 181.558633 44.64 
L 154.954601 44.64 
z
" clip-path="url(#p8e2547df86)" style="fill: #0000ff"/>
   </g>
   <g id="patch_318">
    <path d="M 154.954601 50.65791 
L 181.558633 50.65791 
L 181.558633 44.64 
L 154.954601 44.64 
z
" clip-path="url(#p8e2547df86)" style="fill: #0000ff"/>
   </g>
   <g id="patch_319">
    <path d="M 182.601928 50.65791 
L 237.896582 50.65791 
L 237.896582 44.64 
L 182.601928 44.64 
z
" clip-path="url(#p8e2547df86)" style="fill: #0000ff"/>
   </g>
   <g id="patch_320">
    <path d="M 238.41823 47.874627 
L 251.459422 47.874627 
L 251.459422 47.423284 
L 238.41823 47.423284 
z
" clip-path="url(#p8e2547df86)" style="fill: #0000ff"/>
   </g>
   <g id="matplotlib.axis_1">
    <g id="xtick_1">
     <g id="line2d_1">
      <defs>
       <path id="mac775d69f7" d="M 0 0 
L 0 3.5 
" style="stroke: #000000; stroke-width: 0.8"/>
      </defs>
      <g>
       <use xlink:href="#mac775d69f7" x="247.807888" y="256.32" style="stroke: #000000; stroke-width: 0.8"/>
      </g>
     </g>
     <g id="text_1">
      <!-- 200 -->
      <g transform="translate(238.264138 270.918437) scale(0.1 -0.1)">
       <defs>
        <path id="DejaVuSans-32" d="M 1228 531 
L 3431 531 
L 3431 0 
L 469 0 
L 469 531 
Q 828 903 1448 1529 
Q 2069 2156 2228 2338 
Q 2531 2678 2651 2914 
Q 2772 3150 2772 3378 
Q 2772 3750 2511 3984 
Q 2250 4219 1831 4219 
Q 1534 4219 1204 4116 
Q 875 4013 500 3803 
L 500 4441 
Q 881 4594 1212 4672 
Q 1544 4750 1819 4750 
Q 2544 4750 2975 4387 
Q 3406 4025 3406 3419 
Q 3406 3131 3298 2873 
Q 3191 2616 2906 2266 
Q 2828 2175 2409 1742 
Q 1991 1309 1228 531 
z
" transform="scale(0.015625)"/>
        <path id="DejaVuSans-30" d="M 2034 4250 
Q 1547 4250 1301 3770 
Q 1056 3291 1056 2328 
Q 1056 1369 1301 889 
Q 1547 409 2034 409 
Q 2525 409 2770 889 
Q 3016 1369 3016 2328 
Q 3016 3291 2770 3770 
Q 2525 4250 2034 4250 
z
M 2034 4750 
Q 2819 4750 3233 4129 
Q 3647 3509 3647 2328 
Q 3647 1150 3233 529 
Q 2819 -91 2034 -91 
Q 1250 -91 836 529 
Q 422 1150 422 2328 
Q 422 3509 836 4129 
Q 1250 4750 2034 4750 
z
" transform="scale(0.015625)"/>
       </defs>
       <use xlink:href="#DejaVuSans-32"/>
       <use xlink:href="#DejaVuSans-30" x="63.623047"/>
       <use xlink:href="#DejaVuSans-30" x="127.246094"/>
      </g>
     </g>
    </g>
    <g id="xtick_2">
     <g id="line2d_2">
      <g>
       <use xlink:href="#mac775d69f7" x="352.137423" y="256.32" style="stroke: #000000; stroke-width: 0.8"/>
      </g>
     </g>
     <g id="text_2">
      <!-- 400 -->
      <g transform="translate(342.593673 270.918437) scale(0.1 -0.1)">
       <defs>
        <path id="DejaVuSans-34" d="M 2419 4116 
L 825 1625 
L 2419 1625 
L 2419 4116 
z
M 2253 4666 
L 3047 4666 
L 3047 1625 
L 3713 1625 
L 3713 1100 
L 3047 1100 
L 3047 0 
L 2419 0 
L 2419 1100 
L 313 1100 
L 313 1709 
L 2253 4666 
z
" transform="scale(0.015625)"/>
       </defs>
       <use xlink:href="#DejaVuSans-34"/>
       <use xlink:href="#DejaVuSans-30" x="63.623047"/>
       <use xlink:href="#DejaVuSans-30" x="127.246094"/>
      </g>
     </g>
    </g>
    <g id="xtick_3">
     <g id="line2d_3">
      <g>
       <use xlink:href="#mac775d69f7" x="456.466959" y="256.32" style="stroke: #000000; stroke-width: 0.8"/>
      </g>
     </g>
     <g id="text_3">
      <!-- 600 -->
      <g transform="translate(446.923209 270.918437) scale(0.1 -0.1)">
       <defs>
        <path id="DejaVuSans-36" d="M 2113 2584 
Q 1688 2584 1439 2293 
Q 1191 2003 1191 1497 
Q 1191 994 1439 701 
Q 1688 409 2113 409 
Q 2538 409 2786 701 
Q 3034 994 3034 1497 
Q 3034 2003 2786 2293 
Q 2538 2584 2113 2584 
z
M 3366 4563 
L 3366 3988 
Q 3128 4100 2886 4159 
Q 2644 4219 2406 4219 
Q 1781 4219 1451 3797 
Q 1122 3375 1075 2522 
Q 1259 2794 1537 2939 
Q 1816 3084 2150 3084 
Q 2853 3084 3261 2657 
Q 3669 2231 3669 1497 
Q 3669 778 3244 343 
Q 2819 -91 2113 -91 
Q 1303 -91 875 529 
Q 447 1150 447 2328 
Q 447 3434 972 4092 
Q 1497 4750 2381 4750 
Q 2619 4750 2861 4703 
Q 3103 4656 3366 4563 
z
" transform="scale(0.015625)"/>
       </defs>
       <use xlink:href="#DejaVuSans-36"/>
       <use xlink:href="#DejaVuSans-30" x="63.623047"/>
       <use xlink:href="#DejaVuSans-30" x="127.246094"/>
      </g>
     </g>
    </g>
    <g id="xtick_4">
     <g id="line2d_4">
      <g>
       <use xlink:href="#mac775d69f7" x="560.796494" y="256.32" style="stroke: #000000; stroke-width: 0.8"/>
      </g>
     </g>
     <g id="text_4">
      <!-- 800 -->
      <g transform="translate(551.252744 270.918437) scale(0.1 -0.1)">
       <defs>
        <path id="DejaVuSans-38" d="M 2034 2216 
Q 1584 2216 1326 1975 
Q 1069 1734 1069 1313 
Q 1069 891 1326 650 
Q 1584 409 2034 409 
Q 2484 409 2743 651 
Q 3003 894 3003 1313 
Q 3003 1734 2745 1975 
Q 2488 2216 2034 2216 
z
M 1403 2484 
Q 997 2584 770 2862 
Q 544 3141 544 3541 
Q 544 4100 942 4425 
Q 1341 4750 2034 4750 
Q 2731 4750 3128 4425 
Q 3525 4100 3525 3541 
Q 3525 3141 3298 2862 
Q 3072 2584 2669 2484 
Q 3125 2378 3379 2068 
Q 3634 1759 3634 1313 
Q 3634 634 3220 271 
Q 2806 -91 2034 -91 
Q 1263 -91 848 271 
Q 434 634 434 1313 
Q 434 1759 690 2068 
Q 947 2378 1403 2484 
z
M 1172 3481 
Q 1172 3119 1398 2916 
Q 1625 2713 2034 2713 
Q 2441 2713 2670 2916 
Q 2900 3119 2900 3481 
Q 2900 3844 2670 4047 
Q 2441 4250 2034 4250 
Q 1625 4250 1398 4047 
Q 1172 3844 1172 3481 
z
" transform="scale(0.015625)"/>
       </defs>
       <use xlink:href="#DejaVuSans-38"/>
       <use xlink:href="#DejaVuSans-30" x="63.623047"/>
       <use xlink:href="#DejaVuSans-30" x="127.246094"/>
      </g>
     </g>
    </g>
    <g id="xtick_5">
     <g id="line2d_5">
      <g>
       <use xlink:href="#mac775d69f7" x="665.12603" y="256.32" style="stroke: #000000; stroke-width: 0.8"/>
      </g>
     </g>
     <g id="text_5">
      <!-- 1000 -->
      <g transform="translate(652.40103 270.918437) scale(0.1 -0.1)">
       <defs>
        <path id="DejaVuSans-31" d="M 794 531 
L 1825 531 
L 1825 4091 
L 703 3866 
L 703 4441 
L 1819 4666 
L 2450 4666 
L 2450 531 
L 3481 531 
L 3481 0 
L 794 0 
L 794 531 
z
" transform="scale(0.015625)"/>
       </defs>
       <use xlink:href="#DejaVuSans-31"/>
       <use xlink:href="#DejaVuSans-30" x="63.623047"/>
       <use xlink:href="#DejaVuSans-30" x="127.246094"/>
       <use xlink:href="#DejaVuSans-30" x="190.869141"/>
      </g>
     </g>
    </g>
    <g id="xtick_6">
     <g id="line2d_6">
      <g>
       <use xlink:href="#mac775d69f7" x="769.455565" y="256.32" style="stroke: #000000; stroke-width: 0.8"/>
      </g>
     </g>
     <g id="text_6">
      <!-- 1200 -->
      <g transform="translate(756.730565 270.918437) scale(0.1 -0.1)">
       <use xlink:href="#DejaVuSans-31"/>
       <use xlink:href="#DejaVuSans-32" x="63.623047"/>
       <use xlink:href="#DejaVuSans-30" x="127.246094"/>
       <use xlink:href="#DejaVuSans-30" x="190.869141"/>
      </g>
     </g>
    </g>
    <g id="xtick_7">
     <g id="line2d_7">
      <g>
       <use xlink:href="#mac775d69f7" x="873.785101" y="256.32" style="stroke: #000000; stroke-width: 0.8"/>
      </g>
     </g>
     <g id="text_7">
      <!-- 1400 -->
      <g transform="translate(861.060101 270.918437) scale(0.1 -0.1)">
       <use xlink:href="#DejaVuSans-31"/>
       <use xlink:href="#DejaVuSans-34" x="63.623047"/>
       <use xlink:href="#DejaVuSans-30" x="127.246094"/>
       <use xlink:href="#DejaVuSans-30" x="190.869141"/>
      </g>
     </g>
    </g>
    <g id="xtick_8">
     <g id="line2d_8">
      <g>
       <use xlink:href="#mac775d69f7" x="978.114636" y="256.32" style="stroke: #000000; stroke-width: 0.8"/>
      </g>
     </g>
     <g id="text_8">
      <!-- 1600 -->
      <g transform="translate(965.389636 270.918437) scale(0.1 -0.1)">
       <use xlink:href="#DejaVuSans-31"/>
       <use xlink:href="#DejaVuSans-36" x="63.623047"/>
       <use xlink:href="#DejaVuSans-30" x="127.246094"/>
       <use xlink:href="#DejaVuSans-30" x="190.869141"/>
      </g>
     </g>
    </g>
    <g id="text_9">
     <!-- Residual -->
     <g transform="translate(569.284375 284.596563) scale(0.1 -0.1)">
      <defs>
       <path id="DejaVuSans-52" d="M 2841 2188 
Q 3044 2119 3236 1894 
Q 3428 1669 3622 1275 
L 4263 0 
L 3584 0 
L 2988 1197 
Q 2756 1666 2539 1819 
Q 2322 1972 1947 1972 
L 1259 1972 
L 1259 0 
L 628 0 
L 628 4666 
L 2053 4666 
Q 2853 4666 3247 4331 
Q 3641 3997 3641 3322 
Q 3641 2881 3436 2590 
Q 3231 2300 2841 2188 
z
M 1259 4147 
L 1259 2491 
L 2053 2491 
Q 2509 2491 2742 2702 
Q 2975 2913 2975 3322 
Q 2975 3731 2742 3939 
Q 2509 4147 2053 4147 
L 1259 4147 
z
" transform="scale(0.015625)"/>
       <path id="DejaVuSans-65" d="M 3597 1894 
L 3597 1613 
L 953 1613 
Q 991 1019 1311 708 
Q 1631 397 2203 397 
Q 2534 397 2845 478 
Q 3156 559 3463 722 
L 3463 178 
Q 3153 47 2828 -22 
Q 2503 -91 2169 -91 
Q 1331 -91 842 396 
Q 353 884 353 1716 
Q 353 2575 817 3079 
Q 1281 3584 2069 3584 
Q 2775 3584 3186 3129 
Q 3597 2675 3597 1894 
z
M 3022 2063 
Q 3016 2534 2758 2815 
Q 2500 3097 2075 3097 
Q 1594 3097 1305 2825 
Q 1016 2553 972 2059 
L 3022 2063 
z
" transform="scale(0.015625)"/>
       <path id="DejaVuSans-73" d="M 2834 3397 
L 2834 2853 
Q 2591 2978 2328 3040 
Q 2066 3103 1784 3103 
Q 1356 3103 1142 2972 
Q 928 2841 928 2578 
Q 928 2378 1081 2264 
Q 1234 2150 1697 2047 
L 1894 2003 
Q 2506 1872 2764 1633 
Q 3022 1394 3022 966 
Q 3022 478 2636 193 
Q 2250 -91 1575 -91 
Q 1294 -91 989 -36 
Q 684 19 347 128 
L 347 722 
Q 666 556 975 473 
Q 1284 391 1588 391 
Q 1994 391 2212 530 
Q 2431 669 2431 922 
Q 2431 1156 2273 1281 
Q 2116 1406 1581 1522 
L 1381 1569 
Q 847 1681 609 1914 
Q 372 2147 372 2553 
Q 372 3047 722 3315 
Q 1072 3584 1716 3584 
Q 2034 3584 2315 3537 
Q 2597 3491 2834 3397 
z
" transform="scale(0.015625)"/>
       <path id="DejaVuSans-69" d="M 603 3500 
L 1178 3500 
L 1178 0 
L 603 0 
L 603 3500 
z
M 603 4863 
L 1178 4863 
L 1178 4134 
L 603 4134 
L 603 4863 
z
" transform="scale(0.015625)"/>
       <path id="DejaVuSans-64" d="M 2906 2969 
L 2906 4863 
L 3481 4863 
L 3481 0 
L 2906 0 
L 2906 525 
Q 2725 213 2448 61 
Q 2172 -91 1784 -91 
Q 1150 -91 751 415 
Q 353 922 353 1747 
Q 353 2572 751 3078 
Q 1150 3584 1784 3584 
Q 2172 3584 2448 3432 
Q 2725 3281 2906 2969 
z
M 947 1747 
Q 947 1113 1208 752 
Q 1469 391 1925 391 
Q 2381 391 2643 752 
Q 2906 1113 2906 1747 
Q 2906 2381 2643 2742 
Q 2381 3103 1925 3103 
Q 1469 3103 1208 2742 
Q 947 2381 947 1747 
z
" transform="scale(0.015625)"/>
       <path id="DejaVuSans-75" d="M 544 1381 
L 544 3500 
L 1119 3500 
L 1119 1403 
Q 1119 906 1312 657 
Q 1506 409 1894 409 
Q 2359 409 2629 706 
Q 2900 1003 2900 1516 
L 2900 3500 
L 3475 3500 
L 3475 0 
L 2900 0 
L 2900 538 
Q 2691 219 2414 64 
Q 2138 -91 1772 -91 
Q 1169 -91 856 284 
Q 544 659 544 1381 
z
M 1991 3584 
L 1991 3584 
z
" transform="scale(0.015625)"/>
       <path id="DejaVuSans-61" d="M 2194 1759 
Q 1497 1759 1228 1600 
Q 959 1441 959 1056 
Q 959 750 1161 570 
Q 1363 391 1709 391 
Q 2188 391 2477 730 
Q 2766 1069 2766 1631 
L 2766 1759 
L 2194 1759 
z
M 3341 1997 
L 3341 0 
L 2766 0 
L 2766 531 
Q 2569 213 2275 61 
Q 1981 -91 1556 -91 
Q 1019 -91 701 211 
Q 384 513 384 1019 
Q 384 1609 779 1909 
Q 1175 2209 1959 2209 
L 2766 2209 
L 2766 2266 
Q 2766 2663 2505 2880 
Q 2244 3097 1772 3097 
Q 1472 3097 1187 3025 
Q 903 2953 641 2809 
L 641 3341 
Q 956 3463 1253 3523 
Q 1550 3584 1831 3584 
Q 2591 3584 2966 3190 
Q 3341 2797 3341 1997 
z
" transform="scale(0.015625)"/>
       <path id="DejaVuSans-6c" d="M 603 4863 
L 1178 4863 
L 1178 0 
L 603 0 
L 603 4863 
z
" transform="scale(0.015625)"/>
      </defs>
      <use xlink:href="#DejaVuSans-52"/>
      <use xlink:href="#DejaVuSans-65" x="64.982422"/>
      <use xlink:href="#DejaVuSans-73" x="126.505859"/>
      <use xlink:href="#DejaVuSans-69" x="178.605469"/>
      <use xlink:href="#DejaVuSans-64" x="206.388672"/>
      <use xlink:href="#DejaVuSans-75" x="269.865234"/>
      <use xlink:href="#DejaVuSans-61" x="333.244141"/>
      <use xlink:href="#DejaVuSans-6c" x="394.523438"/>
     </g>
    </g>
   </g>
   <g id="matplotlib.axis_2">
    <g id="ytick_1">
     <g id="line2d_9">
      <defs>
       <path id="m954129c4a1" d="M 0 0 
L -3.5 0 
" style="stroke: #000000; stroke-width: 0.8"/>
      </defs>
      <g>
       <use xlink:href="#m954129c4a1" x="144" y="243.231045" style="stroke: #000000; stroke-width: 0.8"/>
      </g>
     </g>
     <g id="text_10">
      <!-- 8.A.159.1.1 -->
      <g transform="translate(79.446875 247.030264) scale(0.1 -0.1)">
       <defs>
        <path id="DejaVuSans-2e" d="M 684 794 
L 1344 794 
L 1344 0 
L 684 0 
L 684 794 
z
" transform="scale(0.015625)"/>
        <path id="DejaVuSans-41" d="M 2188 4044 
L 1331 1722 
L 3047 1722 
L 2188 4044 
z
M 1831 4666 
L 2547 4666 
L 4325 0 
L 3669 0 
L 3244 1197 
L 1141 1197 
L 716 0 
L 50 0 
L 1831 4666 
z
" transform="scale(0.015625)"/>
        <path id="DejaVuSans-35" d="M 691 4666 
L 3169 4666 
L 3169 4134 
L 1269 4134 
L 1269 2991 
Q 1406 3038 1543 3061 
Q 1681 3084 1819 3084 
Q 2600 3084 3056 2656 
Q 3513 2228 3513 1497 
Q 3513 744 3044 326 
Q 2575 -91 1722 -91 
Q 1428 -91 1123 -41 
Q 819 9 494 109 
L 494 744 
Q 775 591 1075 516 
Q 1375 441 1709 441 
Q 2250 441 2565 725 
Q 2881 1009 2881 1497 
Q 2881 1984 2565 2268 
Q 2250 2553 1709 2553 
Q 1456 2553 1204 2497 
Q 953 2441 691 2322 
L 691 4666 
z
" transform="scale(0.015625)"/>
        <path id="DejaVuSans-39" d="M 703 97 
L 703 672 
Q 941 559 1184 500 
Q 1428 441 1663 441 
Q 2288 441 2617 861 
Q 2947 1281 2994 2138 
Q 2813 1869 2534 1725 
Q 2256 1581 1919 1581 
Q 1219 1581 811 2004 
Q 403 2428 403 3163 
Q 403 3881 828 4315 
Q 1253 4750 1959 4750 
Q 2769 4750 3195 4129 
Q 3622 3509 3622 2328 
Q 3622 1225 3098 567 
Q 2575 -91 1691 -91 
Q 1453 -91 1209 -44 
Q 966 3 703 97 
z
M 1959 2075 
Q 2384 2075 2632 2365 
Q 2881 2656 2881 3163 
Q 2881 3666 2632 3958 
Q 2384 4250 1959 4250 
Q 1534 4250 1286 3958 
Q 1038 3666 1038 3163 
Q 1038 2656 1286 2365 
Q 1534 2075 1959 2075 
z
" transform="scale(0.015625)"/>
       </defs>
       <use xlink:href="#DejaVuSans-38"/>
       <use xlink:href="#DejaVuSans-2e" x="63.623047"/>
       <use xlink:href="#DejaVuSans-41" x="95.410156"/>
       <use xlink:href="#DejaVuSans-2e" x="162.068359"/>
       <use xlink:href="#DejaVuSans-31" x="193.855469"/>
       <use xlink:href="#DejaVuSans-35" x="257.478516"/>
       <use xlink:href="#DejaVuSans-39" x="321.101562"/>
       <use xlink:href="#DejaVuSans-2e" x="384.724609"/>
       <use xlink:href="#DejaVuSans-31" x="416.511719"/>
       <use xlink:href="#DejaVuSans-2e" x="480.134766"/>
       <use xlink:href="#DejaVuSans-31" x="511.921875"/>
      </g>
     </g>
    </g>
    <g id="ytick_2">
     <g id="line2d_10">
      <g>
       <use xlink:href="#m954129c4a1" x="144" y="228.186269" style="stroke: #000000; stroke-width: 0.8"/>
      </g>
     </g>
     <g id="text_11">
      <!-- 8.A.159.1.10 -->
      <g transform="translate(73.084375 231.985487) scale(0.1 -0.1)">
       <use xlink:href="#DejaVuSans-38"/>
       <use xlink:href="#DejaVuSans-2e" x="63.623047"/>
       <use xlink:href="#DejaVuSans-41" x="95.410156"/>
       <use xlink:href="#DejaVuSans-2e" x="162.068359"/>
       <use xlink:href="#DejaVuSans-31" x="193.855469"/>
       <use xlink:href="#DejaVuSans-35" x="257.478516"/>
       <use xlink:href="#DejaVuSans-39" x="321.101562"/>
       <use xlink:href="#DejaVuSans-2e" x="384.724609"/>
       <use xlink:href="#DejaVuSans-31" x="416.511719"/>
       <use xlink:href="#DejaVuSans-2e" x="480.134766"/>
       <use xlink:href="#DejaVuSans-31" x="511.921875"/>
       <use xlink:href="#DejaVuSans-30" x="575.544922"/>
      </g>
     </g>
    </g>
    <g id="ytick_3">
     <g id="line2d_11">
      <g>
       <use xlink:href="#m954129c4a1" x="144" y="213.141493" style="stroke: #000000; stroke-width: 0.8"/>
      </g>
     </g>
     <g id="text_12">
      <!-- 8.A.159.1.11 -->
      <g transform="translate(73.084375 216.940711) scale(0.1 -0.1)">
       <use xlink:href="#DejaVuSans-38"/>
       <use xlink:href="#DejaVuSans-2e" x="63.623047"/>
       <use xlink:href="#DejaVuSans-41" x="95.410156"/>
       <use xlink:href="#DejaVuSans-2e" x="162.068359"/>
       <use xlink:href="#DejaVuSans-31" x="193.855469"/>
       <use xlink:href="#DejaVuSans-35" x="257.478516"/>
       <use xlink:href="#DejaVuSans-39" x="321.101562"/>
       <use xlink:href="#DejaVuSans-2e" x="384.724609"/>
       <use xlink:href="#DejaVuSans-31" x="416.511719"/>
       <use xlink:href="#DejaVuSans-2e" x="480.134766"/>
       <use xlink:href="#DejaVuSans-31" x="511.921875"/>
       <use xlink:href="#DejaVuSans-31" x="575.544922"/>
      </g>
     </g>
    </g>
    <g id="ytick_4">
     <g id="line2d_12">
      <g>
       <use xlink:href="#m954129c4a1" x="144" y="198.096716" style="stroke: #000000; stroke-width: 0.8"/>
      </g>
     </g>
     <g id="text_13">
      <!-- 8.A.159.1.2 -->
      <g transform="translate(79.446875 201.895935) scale(0.1 -0.1)">
       <use xlink:href="#DejaVuSans-38"/>
       <use xlink:href="#DejaVuSans-2e" x="63.623047"/>
       <use xlink:href="#DejaVuSans-41" x="95.410156"/>
       <use xlink:href="#DejaVuSans-2e" x="162.068359"/>
       <use xlink:href="#DejaVuSans-31" x="193.855469"/>
       <use xlink:href="#DejaVuSans-35" x="257.478516"/>
       <use xlink:href="#DejaVuSans-39" x="321.101562"/>
       <use xlink:href="#DejaVuSans-2e" x="384.724609"/>
       <use xlink:href="#DejaVuSans-31" x="416.511719"/>
       <use xlink:href="#DejaVuSans-2e" x="480.134766"/>
       <use xlink:href="#DejaVuSans-32" x="511.921875"/>
      </g>
     </g>
    </g>
    <g id="ytick_5">
     <g id="line2d_13">
      <g>
       <use xlink:href="#m954129c4a1" x="144" y="183.05194" style="stroke: #000000; stroke-width: 0.8"/>
      </g>
     </g>
     <g id="text_14">
      <!-- 8.A.159.1.3 -->
      <g transform="translate(79.446875 186.851159) scale(0.1 -0.1)">
       <defs>
        <path id="DejaVuSans-33" d="M 2597 2516 
Q 3050 2419 3304 2112 
Q 3559 1806 3559 1356 
Q 3559 666 3084 287 
Q 2609 -91 1734 -91 
Q 1441 -91 1130 -33 
Q 819 25 488 141 
L 488 750 
Q 750 597 1062 519 
Q 1375 441 1716 441 
Q 2309 441 2620 675 
Q 2931 909 2931 1356 
Q 2931 1769 2642 2001 
Q 2353 2234 1838 2234 
L 1294 2234 
L 1294 2753 
L 1863 2753 
Q 2328 2753 2575 2939 
Q 2822 3125 2822 3475 
Q 2822 3834 2567 4026 
Q 2313 4219 1838 4219 
Q 1578 4219 1281 4162 
Q 984 4106 628 3988 
L 628 4550 
Q 988 4650 1302 4700 
Q 1616 4750 1894 4750 
Q 2613 4750 3031 4423 
Q 3450 4097 3450 3541 
Q 3450 3153 3228 2886 
Q 3006 2619 2597 2516 
z
" transform="scale(0.015625)"/>
       </defs>
       <use xlink:href="#DejaVuSans-38"/>
       <use xlink:href="#DejaVuSans-2e" x="63.623047"/>
       <use xlink:href="#DejaVuSans-41" x="95.410156"/>
       <use xlink:href="#DejaVuSans-2e" x="162.068359"/>
       <use xlink:href="#DejaVuSans-31" x="193.855469"/>
       <use xlink:href="#DejaVuSans-35" x="257.478516"/>
       <use xlink:href="#DejaVuSans-39" x="321.101562"/>
       <use xlink:href="#DejaVuSans-2e" x="384.724609"/>
       <use xlink:href="#DejaVuSans-31" x="416.511719"/>
       <use xlink:href="#DejaVuSans-2e" x="480.134766"/>
       <use xlink:href="#DejaVuSans-33" x="511.921875"/>
      </g>
     </g>
    </g>
    <g id="ytick_6">
     <g id="line2d_14">
      <g>
       <use xlink:href="#m954129c4a1" x="144" y="168.007164" style="stroke: #000000; stroke-width: 0.8"/>
      </g>
     </g>
     <g id="text_15">
      <!-- 8.A.159.1.4 -->
      <g transform="translate(79.446875 171.806383) scale(0.1 -0.1)">
       <use xlink:href="#DejaVuSans-38"/>
       <use xlink:href="#DejaVuSans-2e" x="63.623047"/>
       <use xlink:href="#DejaVuSans-41" x="95.410156"/>
       <use xlink:href="#DejaVuSans-2e" x="162.068359"/>
       <use xlink:href="#DejaVuSans-31" x="193.855469"/>
       <use xlink:href="#DejaVuSans-35" x="257.478516"/>
       <use xlink:href="#DejaVuSans-39" x="321.101562"/>
       <use xlink:href="#DejaVuSans-2e" x="384.724609"/>
       <use xlink:href="#DejaVuSans-31" x="416.511719"/>
       <use xlink:href="#DejaVuSans-2e" x="480.134766"/>
       <use xlink:href="#DejaVuSans-34" x="511.921875"/>
      </g>
     </g>
    </g>
    <g id="ytick_7">
     <g id="line2d_15">
      <g>
       <use xlink:href="#m954129c4a1" x="144" y="152.962388" style="stroke: #000000; stroke-width: 0.8"/>
      </g>
     </g>
     <g id="text_16">
      <!-- 8.A.159.1.6 -->
      <g transform="translate(79.446875 156.761607) scale(0.1 -0.1)">
       <use xlink:href="#DejaVuSans-38"/>
       <use xlink:href="#DejaVuSans-2e" x="63.623047"/>
       <use xlink:href="#DejaVuSans-41" x="95.410156"/>
       <use xlink:href="#DejaVuSans-2e" x="162.068359"/>
       <use xlink:href="#DejaVuSans-31" x="193.855469"/>
       <use xlink:href="#DejaVuSans-35" x="257.478516"/>
       <use xlink:href="#DejaVuSans-39" x="321.101562"/>
       <use xlink:href="#DejaVuSans-2e" x="384.724609"/>
       <use xlink:href="#DejaVuSans-31" x="416.511719"/>
       <use xlink:href="#DejaVuSans-2e" x="480.134766"/>
       <use xlink:href="#DejaVuSans-36" x="511.921875"/>
      </g>
     </g>
    </g>
    <g id="ytick_8">
     <g id="line2d_16">
      <g>
       <use xlink:href="#m954129c4a1" x="144" y="137.917612" style="stroke: #000000; stroke-width: 0.8"/>
      </g>
     </g>
     <g id="text_17">
      <!-- 8.A.159.1.7 -->
      <g transform="translate(79.446875 141.716831) scale(0.1 -0.1)">
       <defs>
        <path id="DejaVuSans-37" d="M 525 4666 
L 3525 4666 
L 3525 4397 
L 1831 0 
L 1172 0 
L 2766 4134 
L 525 4134 
L 525 4666 
z
" transform="scale(0.015625)"/>
       </defs>
       <use xlink:href="#DejaVuSans-38"/>
       <use xlink:href="#DejaVuSans-2e" x="63.623047"/>
       <use xlink:href="#DejaVuSans-41" x="95.410156"/>
       <use xlink:href="#DejaVuSans-2e" x="162.068359"/>
       <use xlink:href="#DejaVuSans-31" x="193.855469"/>
       <use xlink:href="#DejaVuSans-35" x="257.478516"/>
       <use xlink:href="#DejaVuSans-39" x="321.101562"/>
       <use xlink:href="#DejaVuSans-2e" x="384.724609"/>
       <use xlink:href="#DejaVuSans-31" x="416.511719"/>
       <use xlink:href="#DejaVuSans-2e" x="480.134766"/>
       <use xlink:href="#DejaVuSans-37" x="511.921875"/>
      </g>
     </g>
    </g>
    <g id="ytick_9">
     <g id="line2d_17">
      <g>
       <use xlink:href="#m954129c4a1" x="144" y="122.872836" style="stroke: #000000; stroke-width: 0.8"/>
      </g>
     </g>
     <g id="text_18">
      <!-- 8.A.159.1.8 -->
      <g transform="translate(79.446875 126.672055) scale(0.1 -0.1)">
       <use xlink:href="#DejaVuSans-38"/>
       <use xlink:href="#DejaVuSans-2e" x="63.623047"/>
       <use xlink:href="#DejaVuSans-41" x="95.410156"/>
       <use xlink:href="#DejaVuSans-2e" x="162.068359"/>
       <use xlink:href="#DejaVuSans-31" x="193.855469"/>
       <use xlink:href="#DejaVuSans-35" x="257.478516"/>
       <use xlink:href="#DejaVuSans-39" x="321.101562"/>
       <use xlink:href="#DejaVuSans-2e" x="384.724609"/>
       <use xlink:href="#DejaVuSans-31" x="416.511719"/>
       <use xlink:href="#DejaVuSans-2e" x="480.134766"/>
       <use xlink:href="#DejaVuSans-38" x="511.921875"/>
      </g>
     </g>
    </g>
    <g id="ytick_10">
     <g id="line2d_18">
      <g>
       <use xlink:href="#m954129c4a1" x="144" y="107.82806" style="stroke: #000000; stroke-width: 0.8"/>
      </g>
     </g>
     <g id="text_19">
      <!-- 8.A.159.1.9 -->
      <g transform="translate(79.446875 111.627278) scale(0.1 -0.1)">
       <use xlink:href="#DejaVuSans-38"/>
       <use xlink:href="#DejaVuSans-2e" x="63.623047"/>
       <use xlink:href="#DejaVuSans-41" x="95.410156"/>
       <use xlink:href="#DejaVuSans-2e" x="162.068359"/>
       <use xlink:href="#DejaVuSans-31" x="193.855469"/>
       <use xlink:href="#DejaVuSans-35" x="257.478516"/>
       <use xlink:href="#DejaVuSans-39" x="321.101562"/>
       <use xlink:href="#DejaVuSans-2e" x="384.724609"/>
       <use xlink:href="#DejaVuSans-31" x="416.511719"/>
       <use xlink:href="#DejaVuSans-2e" x="480.134766"/>
       <use xlink:href="#DejaVuSans-39" x="511.921875"/>
      </g>
     </g>
    </g>
    <g id="ytick_11">
     <g id="line2d_19">
      <g>
       <use xlink:href="#m954129c4a1" x="144" y="92.783284" style="stroke: #000000; stroke-width: 0.8"/>
      </g>
     </g>
     <g id="text_20">
      <!-- 8.A.159.2.1 -->
      <g transform="translate(79.446875 96.582502) scale(0.1 -0.1)">
       <use xlink:href="#DejaVuSans-38"/>
       <use xlink:href="#DejaVuSans-2e" x="63.623047"/>
       <use xlink:href="#DejaVuSans-41" x="95.410156"/>
       <use xlink:href="#DejaVuSans-2e" x="162.068359"/>
       <use xlink:href="#DejaVuSans-31" x="193.855469"/>
       <use xlink:href="#DejaVuSans-35" x="257.478516"/>
       <use xlink:href="#DejaVuSans-39" x="321.101562"/>
       <use xlink:href="#DejaVuSans-2e" x="384.724609"/>
       <use xlink:href="#DejaVuSans-32" x="416.511719"/>
       <use xlink:href="#DejaVuSans-2e" x="480.134766"/>
       <use xlink:href="#DejaVuSans-31" x="511.921875"/>
      </g>
     </g>
    </g>
    <g id="ytick_12">
     <g id="line2d_20">
      <g>
       <use xlink:href="#m954129c4a1" x="144" y="77.738507" style="stroke: #000000; stroke-width: 0.8"/>
      </g>
     </g>
     <g id="text_21">
      <!-- 8.A.159.2.2 -->
      <g transform="translate(79.446875 81.537726) scale(0.1 -0.1)">
       <use xlink:href="#DejaVuSans-38"/>
       <use xlink:href="#DejaVuSans-2e" x="63.623047"/>
       <use xlink:href="#DejaVuSans-41" x="95.410156"/>
       <use xlink:href="#DejaVuSans-2e" x="162.068359"/>
       <use xlink:href="#DejaVuSans-31" x="193.855469"/>
       <use xlink:href="#DejaVuSans-35" x="257.478516"/>
       <use xlink:href="#DejaVuSans-39" x="321.101562"/>
       <use xlink:href="#DejaVuSans-2e" x="384.724609"/>
       <use xlink:href="#DejaVuSans-32" x="416.511719"/>
       <use xlink:href="#DejaVuSans-2e" x="480.134766"/>
       <use xlink:href="#DejaVuSans-32" x="511.921875"/>
      </g>
     </g>
    </g>
    <g id="ytick_13">
     <g id="line2d_21">
      <g>
       <use xlink:href="#m954129c4a1" x="144" y="62.693731" style="stroke: #000000; stroke-width: 0.8"/>
      </g>
     </g>
     <g id="text_22">
      <!-- 8.A.159.3.1 -->
      <g transform="translate(79.446875 66.49295) scale(0.1 -0.1)">
       <use xlink:href="#DejaVuSans-38"/>
       <use xlink:href="#DejaVuSans-2e" x="63.623047"/>
       <use xlink:href="#DejaVuSans-41" x="95.410156"/>
       <use xlink:href="#DejaVuSans-2e" x="162.068359"/>
       <use xlink:href="#DejaVuSans-31" x="193.855469"/>
       <use xlink:href="#DejaVuSans-35" x="257.478516"/>
       <use xlink:href="#DejaVuSans-39" x="321.101562"/>
       <use xlink:href="#DejaVuSans-2e" x="384.724609"/>
       <use xlink:href="#DejaVuSans-33" x="416.511719"/>
       <use xlink:href="#DejaVuSans-2e" x="480.134766"/>
       <use xlink:href="#DejaVuSans-31" x="511.921875"/>
      </g>
     </g>
    </g>
    <g id="ytick_14">
     <g id="line2d_22">
      <g>
       <use xlink:href="#m954129c4a1" x="144" y="47.648955" style="stroke: #000000; stroke-width: 0.8"/>
      </g>
     </g>
     <g id="text_23">
      <!-- 8.A.159.3.2 -->
      <g transform="translate(79.446875 51.448174) scale(0.1 -0.1)">
       <use xlink:href="#DejaVuSans-38"/>
       <use xlink:href="#DejaVuSans-2e" x="63.623047"/>
       <use xlink:href="#DejaVuSans-41" x="95.410156"/>
       <use xlink:href="#DejaVuSans-2e" x="162.068359"/>
       <use xlink:href="#DejaVuSans-31" x="193.855469"/>
       <use xlink:href="#DejaVuSans-35" x="257.478516"/>
       <use xlink:href="#DejaVuSans-39" x="321.101562"/>
       <use xlink:href="#DejaVuSans-2e" x="384.724609"/>
       <use xlink:href="#DejaVuSans-33" x="416.511719"/>
       <use xlink:href="#DejaVuSans-2e" x="480.134766"/>
       <use xlink:href="#DejaVuSans-32" x="511.921875"/>
      </g>
     </g>
    </g>
   </g>
   <g id="patch_321">
    <path d="M 144 256.32 
L 144 34.56 
" style="fill: none; stroke: #000000; stroke-width: 0.8; stroke-linejoin: miter; stroke-linecap: square"/>
   </g>
   <g id="patch_322">
    <path d="M 1036.8 256.32 
L 1036.8 34.56 
" style="fill: none; stroke: #000000; stroke-width: 0.8; stroke-linejoin: miter; stroke-linecap: square"/>
   </g>
   <g id="patch_323">
    <path d="M 144 256.32 
L 1036.8 256.32 
" style="fill: none; stroke: #000000; stroke-width: 0.8; stroke-linejoin: miter; stroke-linecap: square"/>
   </g>
   <g id="patch_324">
    <path d="M 144 34.56 
L 1036.8 34.56 
" style="fill: none; stroke: #000000; stroke-width: 0.8; stroke-linejoin: miter; stroke-linecap: square"/>
   </g>
   <g id="text_24">
    <!-- 8.A.159 Summary -->
    <g transform="translate(536.415 28.56) scale(0.12 -0.12)">
     <defs>
      <path id="DejaVuSans-20" transform="scale(0.015625)"/>
      <path id="DejaVuSans-53" d="M 3425 4513 
L 3425 3897 
Q 3066 4069 2747 4153 
Q 2428 4238 2131 4238 
Q 1616 4238 1336 4038 
Q 1056 3838 1056 3469 
Q 1056 3159 1242 3001 
Q 1428 2844 1947 2747 
L 2328 2669 
Q 3034 2534 3370 2195 
Q 3706 1856 3706 1288 
Q 3706 609 3251 259 
Q 2797 -91 1919 -91 
Q 1588 -91 1214 -16 
Q 841 59 441 206 
L 441 856 
Q 825 641 1194 531 
Q 1563 422 1919 422 
Q 2459 422 2753 634 
Q 3047 847 3047 1241 
Q 3047 1584 2836 1778 
Q 2625 1972 2144 2069 
L 1759 2144 
Q 1053 2284 737 2584 
Q 422 2884 422 3419 
Q 422 4038 858 4394 
Q 1294 4750 2059 4750 
Q 2388 4750 2728 4690 
Q 3069 4631 3425 4513 
z
" transform="scale(0.015625)"/>
      <path id="DejaVuSans-6d" d="M 3328 2828 
Q 3544 3216 3844 3400 
Q 4144 3584 4550 3584 
Q 5097 3584 5394 3201 
Q 5691 2819 5691 2113 
L 5691 0 
L 5113 0 
L 5113 2094 
Q 5113 2597 4934 2840 
Q 4756 3084 4391 3084 
Q 3944 3084 3684 2787 
Q 3425 2491 3425 1978 
L 3425 0 
L 2847 0 
L 2847 2094 
Q 2847 2600 2669 2842 
Q 2491 3084 2119 3084 
Q 1678 3084 1418 2786 
Q 1159 2488 1159 1978 
L 1159 0 
L 581 0 
L 581 3500 
L 1159 3500 
L 1159 2956 
Q 1356 3278 1631 3431 
Q 1906 3584 2284 3584 
Q 2666 3584 2933 3390 
Q 3200 3197 3328 2828 
z
" transform="scale(0.015625)"/>
      <path id="DejaVuSans-72" d="M 2631 2963 
Q 2534 3019 2420 3045 
Q 2306 3072 2169 3072 
Q 1681 3072 1420 2755 
Q 1159 2438 1159 1844 
L 1159 0 
L 581 0 
L 581 3500 
L 1159 3500 
L 1159 2956 
Q 1341 3275 1631 3429 
Q 1922 3584 2338 3584 
Q 2397 3584 2469 3576 
Q 2541 3569 2628 3553 
L 2631 2963 
z
" transform="scale(0.015625)"/>
      <path id="DejaVuSans-79" d="M 2059 -325 
Q 1816 -950 1584 -1140 
Q 1353 -1331 966 -1331 
L 506 -1331 
L 506 -850 
L 844 -850 
Q 1081 -850 1212 -737 
Q 1344 -625 1503 -206 
L 1606 56 
L 191 3500 
L 800 3500 
L 1894 763 
L 2988 3500 
L 3597 3500 
L 2059 -325 
z
" transform="scale(0.015625)"/>
     </defs>
     <use xlink:href="#DejaVuSans-38"/>
     <use xlink:href="#DejaVuSans-2e" x="63.623047"/>
     <use xlink:href="#DejaVuSans-41" x="95.410156"/>
     <use xlink:href="#DejaVuSans-2e" x="162.068359"/>
     <use xlink:href="#DejaVuSans-31" x="193.855469"/>
     <use xlink:href="#DejaVuSans-35" x="257.478516"/>
     <use xlink:href="#DejaVuSans-39" x="321.101562"/>
     <use xlink:href="#DejaVuSans-20" x="384.724609"/>
     <use xlink:href="#DejaVuSans-53" x="416.511719"/>
     <use xlink:href="#DejaVuSans-75" x="479.988281"/>
     <use xlink:href="#DejaVuSans-6d" x="543.367188"/>
     <use xlink:href="#DejaVuSans-6d" x="640.779297"/>
     <use xlink:href="#DejaVuSans-61" x="738.191406"/>
     <use xlink:href="#DejaVuSans-72" x="799.470703"/>
     <use xlink:href="#DejaVuSans-79" x="840.583984"/>
    </g>
   </g>
  </g>
 </g>
 <defs>
  <clipPath id="p8e2547df86">
   <rect x="144" y="34.56" width="892.8" height="221.76"/>
  </clipPath>
 </defs>
</svg>
