<?xml version="1.0" encoding="utf-8" standalone="no"?>
<!DOCTYPE svg PUBLIC "-//W3C//DTD SVG 1.1//EN"
  "http://www.w3.org/Graphics/SVG/1.1/DTD/svg11.dtd">
<svg xmlns:xlink="http://www.w3.org/1999/xlink" width="1152pt" height="108pt" viewBox="0 0 1152 108" xmlns="http://www.w3.org/2000/svg" version="1.1">
 <metadata>
  <rdf:RDF xmlns:dc="http://purl.org/dc/elements/1.1/" xmlns:cc="http://creativecommons.org/ns#" xmlns:rdf="http://www.w3.org/1999/02/22-rdf-syntax-ns#">
   <cc:Work>
    <dc:type rdf:resource="http://purl.org/dc/dcmitype/StillImage"/>
    <dc:date>2024-10-25T07:55:44.398681</dc:date>
    <dc:format>image/svg+xml</dc:format>
    <dc:creator>
     <cc:Agent>
      <dc:title>Matplotlib v3.9.2, https://matplotlib.org/</dc:title>
     </cc:Agent>
    </dc:creator>
   </cc:Work>
  </rdf:RDF>
 </metadata>
 <defs>
  <style type="text/css">*{stroke-linejoin: round; stroke-linecap: butt}</style>
 </defs>
 <g id="figure_1">
  <g id="patch_1">
   <path d="M 0 108 
L 1152 108 
L 1152 0 
L 0 0 
z
" style="fill: #ffffff"/>
  </g>
  <g id="axes_1">
   <g id="patch_2">
    <path d="M 144 96.12 
L 1036.8 96.12 
L 1036.8 12.96 
L 144 12.96 
z
" style="fill: #ffffff"/>
   </g>
   <g id="patch_3">
    <path d="M 144 86.5125 
L 159.419689 86.5125 
L 159.419689 85.5675 
L 144 85.5675 
z
" clip-path="url(#p4c964954a1)" style="fill: #0000ff"/>
   </g>
   <g id="patch_4">
    <path d="M 160.15396 92.34 
L 304.805329 92.34 
L 304.805329 79.74 
L 160.15396 79.74 
z
" clip-path="url(#p4c964954a1)" style="fill: #0000ff"/>
   </g>
   <g id="patch_5">
    <path d="M 161.622502 92.34 
L 295.994078 92.34 
L 295.994078 79.74 
L 161.622502 79.74 
z
" clip-path="url(#p4c964954a1)" style="fill: #0000ff"/>
   </g>
   <g id="patch_6">
    <path d="M 161.622502 92.34 
L 296.728349 92.34 
L 296.728349 79.74 
L 161.622502 79.74 
z
" clip-path="url(#p4c964954a1)" style="fill: #0000ff"/>
   </g>
   <g id="patch_7">
    <path d="M 161.622502 92.34 
L 296.728349 92.34 
L 296.728349 79.74 
L 161.622502 79.74 
z
" clip-path="url(#p4c964954a1)" style="fill: #0000ff"/>
   </g>
   <g id="patch_8">
    <path d="M 162.356773 92.34 
L 295.994078 92.34 
L 295.994078 79.74 
L 162.356773 79.74 
z
" clip-path="url(#p4c964954a1)" style="fill: #0000ff"/>
   </g>
   <g id="patch_9">
    <path d="M 162.356773 92.34 
L 295.994078 92.34 
L 295.994078 79.74 
L 162.356773 79.74 
z
" clip-path="url(#p4c964954a1)" style="fill: #0000ff"/>
   </g>
   <g id="patch_10">
    <path d="M 162.356773 92.34 
L 295.994078 92.34 
L 295.994078 79.74 
L 162.356773 79.74 
z
" clip-path="url(#p4c964954a1)" style="fill: #0000ff"/>
   </g>
   <g id="patch_11">
    <path d="M 162.356773 92.34 
L 296.728349 92.34 
L 296.728349 79.74 
L 162.356773 79.74 
z
" clip-path="url(#p4c964954a1)" style="fill: #0000ff"/>
   </g>
   <g id="patch_12">
    <path d="M 162.356773 92.34 
L 296.728349 92.34 
L 296.728349 79.74 
L 162.356773 79.74 
z
" clip-path="url(#p4c964954a1)" style="fill: #0000ff"/>
   </g>
   <g id="patch_13">
    <path d="M 162.356773 92.34 
L 296.728349 92.34 
L 296.728349 79.74 
L 162.356773 79.74 
z
" clip-path="url(#p4c964954a1)" style="fill: #0000ff"/>
   </g>
   <g id="patch_14">
    <path d="M 163.825315 92.34 
L 295.259808 92.34 
L 295.259808 79.74 
L 163.825315 79.74 
z
" clip-path="url(#p4c964954a1)" style="fill: #0000ff"/>
   </g>
   <g id="patch_15">
    <path d="M 202.007402 92.34 
L 293.056995 92.34 
L 293.056995 79.74 
L 202.007402 79.74 
z
" clip-path="url(#p4c964954a1)" style="fill: #0000ff"/>
   </g>
   <g id="patch_16">
    <path d="M 207.881569 92.34 
L 293.056995 92.34 
L 293.056995 79.74 
L 207.881569 79.74 
z
" clip-path="url(#p4c964954a1)" style="fill: #0000ff"/>
   </g>
   <g id="patch_17">
    <path d="M 207.881569 92.34 
L 292.322724 92.34 
L 292.322724 79.74 
L 207.881569 79.74 
z
" clip-path="url(#p4c964954a1)" style="fill: #0000ff"/>
   </g>
   <g id="patch_18">
    <path d="M 211.552924 92.34 
L 293.056995 92.34 
L 293.056995 79.74 
L 211.552924 79.74 
z
" clip-path="url(#p4c964954a1)" style="fill: #0000ff"/>
   </g>
   <g id="patch_19">
    <path d="M 214.490007 92.34 
L 310.679497 92.34 
L 310.679497 79.74 
L 214.490007 79.74 
z
" clip-path="url(#p4c964954a1)" style="fill: #0000ff"/>
   </g>
   <g id="patch_20">
    <path d="M 214.490007 92.34 
L 293.056995 92.34 
L 293.056995 79.74 
L 214.490007 79.74 
z
" clip-path="url(#p4c964954a1)" style="fill: #0000ff"/>
   </g>
   <g id="patch_21">
    <path d="M 215.224278 92.34 
L 312.882309 92.34 
L 312.882309 79.74 
L 215.224278 79.74 
z
" clip-path="url(#p4c964954a1)" style="fill: #0000ff"/>
   </g>
   <g id="patch_22">
    <path d="M 215.224278 92.34 
L 293.056995 92.34 
L 293.056995 79.74 
L 215.224278 79.74 
z
" clip-path="url(#p4c964954a1)" style="fill: #0000ff"/>
   </g>
   <g id="patch_23">
    <path d="M 215.224278 92.34 
L 293.056995 92.34 
L 293.056995 79.74 
L 215.224278 79.74 
z
" clip-path="url(#p4c964954a1)" style="fill: #0000ff"/>
   </g>
   <g id="patch_24">
    <path d="M 215.224278 92.34 
L 293.056995 92.34 
L 293.056995 79.74 
L 215.224278 79.74 
z
" clip-path="url(#p4c964954a1)" style="fill: #0000ff"/>
   </g>
   <g id="patch_25">
    <path d="M 215.224278 92.34 
L 293.056995 92.34 
L 293.056995 79.74 
L 215.224278 79.74 
z
" clip-path="url(#p4c964954a1)" style="fill: #0000ff"/>
   </g>
   <g id="patch_26">
    <path d="M 215.224278 92.34 
L 310.679497 92.34 
L 310.679497 79.74 
L 215.224278 79.74 
z
" clip-path="url(#p4c964954a1)" style="fill: #0000ff"/>
   </g>
   <g id="patch_27">
    <path d="M 216.69282 92.34 
L 293.056995 92.34 
L 293.056995 79.74 
L 216.69282 79.74 
z
" clip-path="url(#p4c964954a1)" style="fill: #0000ff"/>
   </g>
   <g id="patch_28">
    <path d="M 216.69282 92.34 
L 293.056995 92.34 
L 293.056995 79.74 
L 216.69282 79.74 
z
" clip-path="url(#p4c964954a1)" style="fill: #0000ff"/>
   </g>
   <g id="patch_29">
    <path d="M 216.69282 92.34 
L 293.056995 92.34 
L 293.056995 79.74 
L 216.69282 79.74 
z
" clip-path="url(#p4c964954a1)" style="fill: #0000ff"/>
   </g>
   <g id="patch_30">
    <path d="M 216.69282 92.34 
L 293.056995 92.34 
L 293.056995 79.74 
L 216.69282 79.74 
z
" clip-path="url(#p4c964954a1)" style="fill: #0000ff"/>
   </g>
   <g id="patch_31">
    <path d="M 216.69282 92.34 
L 293.056995 92.34 
L 293.056995 79.74 
L 216.69282 79.74 
z
" clip-path="url(#p4c964954a1)" style="fill: #0000ff"/>
   </g>
   <g id="patch_32">
    <path d="M 216.69282 92.34 
L 293.056995 92.34 
L 293.056995 79.74 
L 216.69282 79.74 
z
" clip-path="url(#p4c964954a1)" style="fill: #0000ff"/>
   </g>
   <g id="patch_33">
    <path d="M 216.69282 92.34 
L 293.056995 92.34 
L 293.056995 79.74 
L 216.69282 79.74 
z
" clip-path="url(#p4c964954a1)" style="fill: #0000ff"/>
   </g>
   <g id="patch_34">
    <path d="M 217.427091 92.34 
L 293.056995 92.34 
L 293.056995 79.74 
L 217.427091 79.74 
z
" clip-path="url(#p4c964954a1)" style="fill: #0000ff"/>
   </g>
   <g id="patch_35">
    <path d="M 307.008142 92.34 
L 409.80607 92.34 
L 409.80607 79.74 
L 307.008142 79.74 
z
" clip-path="url(#p4c964954a1)" style="fill: #0000ff"/>
   </g>
   <g id="patch_36">
    <path d="M 307.008142 92.34 
L 412.008882 92.34 
L 412.008882 79.74 
L 307.008142 79.74 
z
" clip-path="url(#p4c964954a1)" style="fill: #0000ff"/>
   </g>
   <g id="patch_37">
    <path d="M 307.008142 92.34 
L 409.80607 92.34 
L 409.80607 79.74 
L 307.008142 79.74 
z
" clip-path="url(#p4c964954a1)" style="fill: #0000ff"/>
   </g>
   <g id="patch_38">
    <path d="M 307.008142 92.34 
L 412.008882 92.34 
L 412.008882 79.74 
L 307.008142 79.74 
z
" clip-path="url(#p4c964954a1)" style="fill: #0000ff"/>
   </g>
   <g id="patch_39">
    <path d="M 307.008142 92.34 
L 406.868986 92.34 
L 406.868986 79.74 
L 307.008142 79.74 
z
" clip-path="url(#p4c964954a1)" style="fill: #0000ff"/>
   </g>
   <g id="patch_40">
    <path d="M 307.742413 92.34 
L 409.80607 92.34 
L 409.80607 79.74 
L 307.742413 79.74 
z
" clip-path="url(#p4c964954a1)" style="fill: #0000ff"/>
   </g>
   <g id="patch_41">
    <path d="M 307.742413 92.34 
L 409.80607 92.34 
L 409.80607 79.74 
L 307.742413 79.74 
z
" clip-path="url(#p4c964954a1)" style="fill: #0000ff"/>
   </g>
   <g id="patch_42">
    <path d="M 308.476684 92.34 
L 409.80607 92.34 
L 409.80607 79.74 
L 308.476684 79.74 
z
" clip-path="url(#p4c964954a1)" style="fill: #0000ff"/>
   </g>
   <g id="patch_43">
    <path d="M 309.210955 92.34 
L 409.80607 92.34 
L 409.80607 79.74 
L 309.210955 79.74 
z
" clip-path="url(#p4c964954a1)" style="fill: #0000ff"/>
   </g>
   <g id="patch_44">
    <path d="M 311.413768 92.34 
L 412.008882 92.34 
L 412.008882 79.74 
L 311.413768 79.74 
z
" clip-path="url(#p4c964954a1)" style="fill: #0000ff"/>
   </g>
   <g id="patch_45">
    <path d="M 312.148038 92.34 
L 412.743153 92.34 
L 412.743153 79.74 
L 312.148038 79.74 
z
" clip-path="url(#p4c964954a1)" style="fill: #0000ff"/>
   </g>
   <g id="patch_46">
    <path d="M 333.441895 92.34 
L 409.80607 92.34 
L 409.80607 79.74 
L 333.441895 79.74 
z
" clip-path="url(#p4c964954a1)" style="fill: #0000ff"/>
   </g>
   <g id="patch_47">
    <path d="M 413.477424 86.5125 
L 419.351591 86.5125 
L 419.351591 85.5675 
L 413.477424 85.5675 
z
" clip-path="url(#p4c964954a1)" style="fill: #0000ff"/>
   </g>
   <g id="patch_48">
    <path d="M 420.085862 92.34 
L 563.26869 92.34 
L 563.26869 79.74 
L 420.085862 79.74 
z
" clip-path="url(#p4c964954a1)" style="fill: #0000ff"/>
   </g>
   <g id="patch_49">
    <path d="M 420.820133 92.34 
L 555.19171 92.34 
L 555.19171 79.74 
L 420.820133 79.74 
z
" clip-path="url(#p4c964954a1)" style="fill: #0000ff"/>
   </g>
   <g id="patch_50">
    <path d="M 420.820133 92.34 
L 555.925981 92.34 
L 555.925981 79.74 
L 420.820133 79.74 
z
" clip-path="url(#p4c964954a1)" style="fill: #0000ff"/>
   </g>
   <g id="patch_51">
    <path d="M 421.554404 92.34 
L 556.660252 92.34 
L 556.660252 79.74 
L 421.554404 79.74 
z
" clip-path="url(#p4c964954a1)" style="fill: #0000ff"/>
   </g>
   <g id="patch_52">
    <path d="M 422.288675 92.34 
L 555.925981 92.34 
L 555.925981 79.74 
L 422.288675 79.74 
z
" clip-path="url(#p4c964954a1)" style="fill: #0000ff"/>
   </g>
   <g id="patch_53">
    <path d="M 422.288675 92.34 
L 555.19171 92.34 
L 555.19171 79.74 
L 422.288675 79.74 
z
" clip-path="url(#p4c964954a1)" style="fill: #0000ff"/>
   </g>
   <g id="patch_54">
    <path d="M 422.288675 92.34 
L 555.19171 92.34 
L 555.19171 79.74 
L 422.288675 79.74 
z
" clip-path="url(#p4c964954a1)" style="fill: #0000ff"/>
   </g>
   <g id="patch_55">
    <path d="M 422.288675 92.34 
L 556.660252 92.34 
L 556.660252 79.74 
L 422.288675 79.74 
z
" clip-path="url(#p4c964954a1)" style="fill: #0000ff"/>
   </g>
   <g id="patch_56">
    <path d="M 422.288675 92.34 
L 556.660252 92.34 
L 556.660252 79.74 
L 422.288675 79.74 
z
" clip-path="url(#p4c964954a1)" style="fill: #0000ff"/>
   </g>
   <g id="patch_57">
    <path d="M 422.288675 92.34 
L 556.660252 92.34 
L 556.660252 79.74 
L 422.288675 79.74 
z
" clip-path="url(#p4c964954a1)" style="fill: #0000ff"/>
   </g>
   <g id="patch_58">
    <path d="M 422.288675 92.34 
L 556.660252 92.34 
L 556.660252 79.74 
L 422.288675 79.74 
z
" clip-path="url(#p4c964954a1)" style="fill: #0000ff"/>
   </g>
   <g id="patch_59">
    <path d="M 476.624722 92.34 
L 554.457439 92.34 
L 554.457439 79.74 
L 476.624722 79.74 
z
" clip-path="url(#p4c964954a1)" style="fill: #0000ff"/>
   </g>
   <g id="patch_60">
    <path d="M 476.624722 92.34 
L 553.723168 92.34 
L 553.723168 79.74 
L 476.624722 79.74 
z
" clip-path="url(#p4c964954a1)" style="fill: #0000ff"/>
   </g>
   <g id="patch_61">
    <path d="M 477.358993 92.34 
L 553.723168 92.34 
L 553.723168 79.74 
L 477.358993 79.74 
z
" clip-path="url(#p4c964954a1)" style="fill: #0000ff"/>
   </g>
   <g id="patch_62">
    <path d="M 478.827535 92.34 
L 553.723168 92.34 
L 553.723168 79.74 
L 478.827535 79.74 
z
" clip-path="url(#p4c964954a1)" style="fill: #0000ff"/>
   </g>
   <g id="patch_63">
    <path d="M 478.827535 92.34 
L 529.492228 92.34 
L 529.492228 79.74 
L 478.827535 79.74 
z
" clip-path="url(#p4c964954a1)" style="fill: #0000ff"/>
   </g>
   <g id="patch_64">
    <path d="M 478.827535 92.34 
L 553.723168 92.34 
L 553.723168 79.74 
L 478.827535 79.74 
z
" clip-path="url(#p4c964954a1)" style="fill: #0000ff"/>
   </g>
   <g id="patch_65">
    <path d="M 478.827535 92.34 
L 553.723168 92.34 
L 553.723168 79.74 
L 478.827535 79.74 
z
" clip-path="url(#p4c964954a1)" style="fill: #0000ff"/>
   </g>
   <g id="patch_66">
    <path d="M 478.827535 92.34 
L 555.19171 92.34 
L 555.19171 79.74 
L 478.827535 79.74 
z
" clip-path="url(#p4c964954a1)" style="fill: #0000ff"/>
   </g>
   <g id="patch_67">
    <path d="M 564.002961 86.5125 
L 564.737232 86.5125 
L 564.737232 85.5675 
L 564.002961 85.5675 
z
" clip-path="url(#p4c964954a1)" style="fill: #0000ff"/>
   </g>
   <g id="patch_68">
    <path d="M 565.471503 92.34 
L 668.26943 92.34 
L 668.26943 79.74 
L 565.471503 79.74 
z
" clip-path="url(#p4c964954a1)" style="fill: #0000ff"/>
   </g>
   <g id="patch_69">
    <path d="M 565.471503 92.34 
L 670.472243 92.34 
L 670.472243 79.74 
L 565.471503 79.74 
z
" clip-path="url(#p4c964954a1)" style="fill: #0000ff"/>
   </g>
   <g id="patch_70">
    <path d="M 565.471503 92.34 
L 668.26943 92.34 
L 668.26943 79.74 
L 565.471503 79.74 
z
" clip-path="url(#p4c964954a1)" style="fill: #0000ff"/>
   </g>
   <g id="patch_71">
    <path d="M 565.471503 92.34 
L 670.472243 92.34 
L 670.472243 79.74 
L 565.471503 79.74 
z
" clip-path="url(#p4c964954a1)" style="fill: #0000ff"/>
   </g>
   <g id="patch_72">
    <path d="M 565.471503 92.34 
L 668.26943 92.34 
L 668.26943 79.74 
L 565.471503 79.74 
z
" clip-path="url(#p4c964954a1)" style="fill: #0000ff"/>
   </g>
   <g id="patch_73">
    <path d="M 565.471503 92.34 
L 664.598075 92.34 
L 664.598075 79.74 
L 565.471503 79.74 
z
" clip-path="url(#p4c964954a1)" style="fill: #0000ff"/>
   </g>
   <g id="patch_74">
    <path d="M 566.205774 92.34 
L 668.26943 92.34 
L 668.26943 79.74 
L 566.205774 79.74 
z
" clip-path="url(#p4c964954a1)" style="fill: #0000ff"/>
   </g>
   <g id="patch_75">
    <path d="M 566.205774 92.34 
L 668.26943 92.34 
L 668.26943 79.74 
L 566.205774 79.74 
z
" clip-path="url(#p4c964954a1)" style="fill: #0000ff"/>
   </g>
   <g id="patch_76">
    <path d="M 566.205774 92.34 
L 668.26943 92.34 
L 668.26943 79.74 
L 566.205774 79.74 
z
" clip-path="url(#p4c964954a1)" style="fill: #0000ff"/>
   </g>
   <g id="patch_77">
    <path d="M 566.205774 92.34 
L 668.26943 92.34 
L 668.26943 79.74 
L 566.205774 79.74 
z
" clip-path="url(#p4c964954a1)" style="fill: #0000ff"/>
   </g>
   <g id="patch_78">
    <path d="M 594.842339 92.34 
L 668.26943 92.34 
L 668.26943 79.74 
L 594.842339 79.74 
z
" clip-path="url(#p4c964954a1)" style="fill: #0000ff"/>
   </g>
   <g id="patch_79">
    <path d="M 671.206514 86.5125 
L 680.752036 86.5125 
L 680.752036 85.5675 
L 671.206514 85.5675 
z
" clip-path="url(#p4c964954a1)" style="fill: #0000ff"/>
   </g>
   <g id="patch_80">
    <path d="M 681.486306 92.34 
L 807.780903 92.34 
L 807.780903 79.74 
L 681.486306 79.74 
z
" clip-path="url(#p4c964954a1)" style="fill: #0000ff"/>
   </g>
   <g id="patch_81">
    <path d="M 681.486306 92.34 
L 807.780903 92.34 
L 807.780903 79.74 
L 681.486306 79.74 
z
" clip-path="url(#p4c964954a1)" style="fill: #0000ff"/>
   </g>
   <g id="patch_82">
    <path d="M 681.486306 92.34 
L 812.920799 92.34 
L 812.920799 79.74 
L 681.486306 79.74 
z
" clip-path="url(#p4c964954a1)" style="fill: #0000ff"/>
   </g>
   <g id="patch_83">
    <path d="M 681.486306 92.34 
L 807.780903 92.34 
L 807.780903 79.74 
L 681.486306 79.74 
z
" clip-path="url(#p4c964954a1)" style="fill: #0000ff"/>
   </g>
   <g id="patch_84">
    <path d="M 681.486306 92.34 
L 808.515174 92.34 
L 808.515174 79.74 
L 681.486306 79.74 
z
" clip-path="url(#p4c964954a1)" style="fill: #0000ff"/>
   </g>
   <g id="patch_85">
    <path d="M 681.486306 92.34 
L 808.515174 92.34 
L 808.515174 79.74 
L 681.486306 79.74 
z
" clip-path="url(#p4c964954a1)" style="fill: #0000ff"/>
   </g>
   <g id="patch_86">
    <path d="M 681.486306 92.34 
L 808.515174 92.34 
L 808.515174 79.74 
L 681.486306 79.74 
z
" clip-path="url(#p4c964954a1)" style="fill: #0000ff"/>
   </g>
   <g id="patch_87">
    <path d="M 681.486306 92.34 
L 808.515174 92.34 
L 808.515174 79.74 
L 681.486306 79.74 
z
" clip-path="url(#p4c964954a1)" style="fill: #0000ff"/>
   </g>
   <g id="patch_88">
    <path d="M 681.486306 92.34 
L 808.515174 92.34 
L 808.515174 79.74 
L 681.486306 79.74 
z
" clip-path="url(#p4c964954a1)" style="fill: #0000ff"/>
   </g>
   <g id="patch_89">
    <path d="M 682.954848 92.34 
L 807.780903 92.34 
L 807.780903 79.74 
L 682.954848 79.74 
z
" clip-path="url(#p4c964954a1)" style="fill: #0000ff"/>
   </g>
   <g id="patch_90">
    <path d="M 682.954848 92.34 
L 807.046632 92.34 
L 807.046632 79.74 
L 682.954848 79.74 
z
" clip-path="url(#p4c964954a1)" style="fill: #0000ff"/>
   </g>
   <g id="patch_91">
    <path d="M 728.479645 92.34 
L 806.312361 92.34 
L 806.312361 79.74 
L 728.479645 79.74 
z
" clip-path="url(#p4c964954a1)" style="fill: #0000ff"/>
   </g>
   <g id="patch_92">
    <path d="M 736.556625 92.34 
L 804.109548 92.34 
L 804.109548 79.74 
L 736.556625 79.74 
z
" clip-path="url(#p4c964954a1)" style="fill: #0000ff"/>
   </g>
   <g id="patch_93">
    <path d="M 737.290896 92.34 
L 781.34715 92.34 
L 781.34715 79.74 
L 737.290896 79.74 
z
" clip-path="url(#p4c964954a1)" style="fill: #0000ff"/>
   </g>
   <g id="patch_94">
    <path d="M 738.759437 92.34 
L 776.207254 92.34 
L 776.207254 79.74 
L 738.759437 79.74 
z
" clip-path="url(#p4c964954a1)" style="fill: #0000ff"/>
   </g>
   <g id="patch_95">
    <path d="M 738.759437 92.34 
L 781.34715 92.34 
L 781.34715 79.74 
L 738.759437 79.74 
z
" clip-path="url(#p4c964954a1)" style="fill: #0000ff"/>
   </g>
   <g id="patch_96">
    <path d="M 738.759437 92.34 
L 805.57809 92.34 
L 805.57809 79.74 
L 738.759437 79.74 
z
" clip-path="url(#p4c964954a1)" style="fill: #0000ff"/>
   </g>
   <g id="patch_97">
    <path d="M 738.759437 92.34 
L 781.34715 92.34 
L 781.34715 79.74 
L 738.759437 79.74 
z
" clip-path="url(#p4c964954a1)" style="fill: #0000ff"/>
   </g>
   <g id="patch_98">
    <path d="M 813.65507 86.5125 
L 816.592154 86.5125 
L 816.592154 85.5675 
L 813.65507 85.5675 
z
" clip-path="url(#p4c964954a1)" style="fill: #0000ff"/>
   </g>
   <g id="patch_99">
    <path d="M 817.326425 92.34 
L 923.061436 92.34 
L 923.061436 79.74 
L 817.326425 79.74 
z
" clip-path="url(#p4c964954a1)" style="fill: #0000ff"/>
   </g>
   <g id="patch_100">
    <path d="M 817.326425 92.34 
L 924.529978 92.34 
L 924.529978 79.74 
L 817.326425 79.74 
z
" clip-path="url(#p4c964954a1)" style="fill: #0000ff"/>
   </g>
   <g id="patch_101">
    <path d="M 817.326425 92.34 
L 923.061436 92.34 
L 923.061436 79.74 
L 817.326425 79.74 
z
" clip-path="url(#p4c964954a1)" style="fill: #0000ff"/>
   </g>
   <g id="patch_102">
    <path d="M 817.326425 92.34 
L 923.061436 92.34 
L 923.061436 79.74 
L 817.326425 79.74 
z
" clip-path="url(#p4c964954a1)" style="fill: #0000ff"/>
   </g>
   <g id="patch_103">
    <path d="M 817.326425 92.34 
L 923.061436 92.34 
L 923.061436 79.74 
L 817.326425 79.74 
z
" clip-path="url(#p4c964954a1)" style="fill: #0000ff"/>
   </g>
   <g id="patch_104">
    <path d="M 817.326425 92.34 
L 918.655811 92.34 
L 918.655811 79.74 
L 817.326425 79.74 
z
" clip-path="url(#p4c964954a1)" style="fill: #0000ff"/>
   </g>
   <g id="patch_105">
    <path d="M 817.326425 92.34 
L 909.84456 92.34 
L 909.84456 79.74 
L 817.326425 79.74 
z
" clip-path="url(#p4c964954a1)" style="fill: #0000ff"/>
   </g>
   <g id="patch_106">
    <path d="M 818.060696 92.34 
L 923.061436 92.34 
L 923.061436 79.74 
L 818.060696 79.74 
z
" clip-path="url(#p4c964954a1)" style="fill: #0000ff"/>
   </g>
   <g id="patch_107">
    <path d="M 818.060696 92.34 
L 923.061436 92.34 
L 923.061436 79.74 
L 818.060696 79.74 
z
" clip-path="url(#p4c964954a1)" style="fill: #0000ff"/>
   </g>
   <g id="patch_108">
    <path d="M 818.060696 92.34 
L 923.061436 92.34 
L 923.061436 79.74 
L 818.060696 79.74 
z
" clip-path="url(#p4c964954a1)" style="fill: #0000ff"/>
   </g>
   <g id="patch_109">
    <path d="M 818.794967 92.34 
L 923.795707 92.34 
L 923.795707 79.74 
L 818.794967 79.74 
z
" clip-path="url(#p4c964954a1)" style="fill: #0000ff"/>
   </g>
   <g id="patch_110">
    <path d="M 845.96299 92.34 
L 923.061436 92.34 
L 923.061436 79.74 
L 845.96299 79.74 
z
" clip-path="url(#p4c964954a1)" style="fill: #0000ff"/>
   </g>
   <g id="patch_111">
    <path d="M 849.634345 92.34 
L 923.061436 92.34 
L 923.061436 79.74 
L 849.634345 79.74 
z
" clip-path="url(#p4c964954a1)" style="fill: #0000ff"/>
   </g>
   <g id="patch_112">
    <path d="M 851.102887 92.34 
L 923.795707 92.34 
L 923.795707 79.74 
L 851.102887 79.74 
z
" clip-path="url(#p4c964954a1)" style="fill: #0000ff"/>
   </g>
   <g id="patch_113">
    <path d="M 851.102887 92.34 
L 923.061436 92.34 
L 923.061436 79.74 
L 851.102887 79.74 
z
" clip-path="url(#p4c964954a1)" style="fill: #0000ff"/>
   </g>
   <g id="patch_114">
    <path d="M 852.571429 92.34 
L 923.061436 92.34 
L 923.061436 79.74 
L 852.571429 79.74 
z
" clip-path="url(#p4c964954a1)" style="fill: #0000ff"/>
   </g>
   <g id="patch_115">
    <path d="M 852.571429 92.34 
L 922.327165 92.34 
L 922.327165 79.74 
L 852.571429 79.74 
z
" clip-path="url(#p4c964954a1)" style="fill: #0000ff"/>
   </g>
   <g id="patch_116">
    <path d="M 853.305699 92.34 
L 923.061436 92.34 
L 923.061436 79.74 
L 853.305699 79.74 
z
" clip-path="url(#p4c964954a1)" style="fill: #0000ff"/>
   </g>
   <g id="patch_117">
    <path d="M 853.305699 92.34 
L 921.592894 92.34 
L 921.592894 79.74 
L 853.305699 79.74 
z
" clip-path="url(#p4c964954a1)" style="fill: #0000ff"/>
   </g>
   <g id="patch_118">
    <path d="M 861.382679 92.34 
L 923.061436 92.34 
L 923.061436 79.74 
L 861.382679 79.74 
z
" clip-path="url(#p4c964954a1)" style="fill: #0000ff"/>
   </g>
   <g id="patch_119">
    <path d="M 873.131014 92.34 
L 921.592894 92.34 
L 921.592894 79.74 
L 873.131014 79.74 
z
" clip-path="url(#p4c964954a1)" style="fill: #0000ff"/>
   </g>
   <g id="patch_120">
    <path d="M 873.865285 92.34 
L 921.592894 92.34 
L 921.592894 79.74 
L 873.865285 79.74 
z
" clip-path="url(#p4c964954a1)" style="fill: #0000ff"/>
   </g>
   <g id="patch_121">
    <path d="M 875.333827 92.34 
L 921.592894 92.34 
L 921.592894 79.74 
L 875.333827 79.74 
z
" clip-path="url(#p4c964954a1)" style="fill: #0000ff"/>
   </g>
   <g id="patch_122">
    <path d="M 875.333827 92.34 
L 923.061436 92.34 
L 923.061436 79.74 
L 875.333827 79.74 
z
" clip-path="url(#p4c964954a1)" style="fill: #0000ff"/>
   </g>
   <g id="patch_123">
    <path d="M 877.53664 92.34 
L 923.061436 92.34 
L 923.061436 79.74 
L 877.53664 79.74 
z
" clip-path="url(#p4c964954a1)" style="fill: #0000ff"/>
   </g>
   <g id="patch_124">
    <path d="M 877.53664 92.34 
L 923.061436 92.34 
L 923.061436 79.74 
L 877.53664 79.74 
z
" clip-path="url(#p4c964954a1)" style="fill: #0000ff"/>
   </g>
   <g id="patch_125">
    <path d="M 883.410807 92.34 
L 923.061436 92.34 
L 923.061436 79.74 
L 883.410807 79.74 
z
" clip-path="url(#p4c964954a1)" style="fill: #0000ff"/>
   </g>
   <g id="patch_126">
    <path d="M 890.753516 92.34 
L 918.655811 92.34 
L 918.655811 79.74 
L 890.753516 79.74 
z
" clip-path="url(#p4c964954a1)" style="fill: #0000ff"/>
   </g>
   <g id="patch_127">
    <path d="M 890.753516 92.34 
L 917.92154 92.34 
L 917.92154 79.74 
L 890.753516 79.74 
z
" clip-path="url(#p4c964954a1)" style="fill: #0000ff"/>
   </g>
   <g id="patch_128">
    <path d="M 892.222058 92.34 
L 921.592894 92.34 
L 921.592894 79.74 
L 892.222058 79.74 
z
" clip-path="url(#p4c964954a1)" style="fill: #0000ff"/>
   </g>
   <g id="patch_129">
    <path d="M 892.222058 92.34 
L 921.592894 92.34 
L 921.592894 79.74 
L 892.222058 79.74 
z
" clip-path="url(#p4c964954a1)" style="fill: #0000ff"/>
   </g>
   <g id="patch_130">
    <path d="M 893.6906 92.34 
L 921.592894 92.34 
L 921.592894 79.74 
L 893.6906 79.74 
z
" clip-path="url(#p4c964954a1)" style="fill: #0000ff"/>
   </g>
   <g id="patch_131">
    <path d="M 900.299038 92.34 
L 923.061436 92.34 
L 923.061436 79.74 
L 900.299038 79.74 
z
" clip-path="url(#p4c964954a1)" style="fill: #0000ff"/>
   </g>
   <g id="patch_132">
    <path d="M 900.299038 92.34 
L 929.669874 92.34 
L 929.669874 79.74 
L 900.299038 79.74 
z
" clip-path="url(#p4c964954a1)" style="fill: #0000ff"/>
   </g>
   <g id="patch_133">
    <path d="M 900.299038 92.34 
L 918.655811 92.34 
L 918.655811 79.74 
L 900.299038 79.74 
z
" clip-path="url(#p4c964954a1)" style="fill: #0000ff"/>
   </g>
   <g id="patch_134">
    <path d="M 930.404145 86.5125 
L 993.551443 86.5125 
L 993.551443 85.5675 
L 930.404145 85.5675 
z
" clip-path="url(#p4c964954a1)" style="fill: #0000ff"/>
   </g>
   <g id="patch_135">
    <path d="M 144 55.0125 
L 157.216876 55.0125 
L 157.216876 54.0675 
L 144 54.0675 
z
" clip-path="url(#p4c964954a1)" style="fill: #0000ff"/>
   </g>
   <g id="patch_136">
    <path d="M 157.951147 60.84 
L 294.525537 60.84 
L 294.525537 48.24 
L 157.951147 48.24 
z
" clip-path="url(#p4c964954a1)" style="fill: #0000ff"/>
   </g>
   <g id="patch_137">
    <path d="M 157.951147 60.84 
L 290.854182 60.84 
L 290.854182 48.24 
L 157.951147 48.24 
z
" clip-path="url(#p4c964954a1)" style="fill: #0000ff"/>
   </g>
   <g id="patch_138">
    <path d="M 158.685418 60.84 
L 291.588453 60.84 
L 291.588453 48.24 
L 158.685418 48.24 
z
" clip-path="url(#p4c964954a1)" style="fill: #0000ff"/>
   </g>
   <g id="patch_139">
    <path d="M 159.419689 60.84 
L 291.588453 60.84 
L 291.588453 48.24 
L 159.419689 48.24 
z
" clip-path="url(#p4c964954a1)" style="fill: #0000ff"/>
   </g>
   <g id="patch_140">
    <path d="M 159.419689 60.84 
L 291.588453 60.84 
L 291.588453 48.24 
L 159.419689 48.24 
z
" clip-path="url(#p4c964954a1)" style="fill: #0000ff"/>
   </g>
   <g id="patch_141">
    <path d="M 159.419689 60.84 
L 291.588453 60.84 
L 291.588453 48.24 
L 159.419689 48.24 
z
" clip-path="url(#p4c964954a1)" style="fill: #0000ff"/>
   </g>
   <g id="patch_142">
    <path d="M 159.419689 60.84 
L 291.588453 60.84 
L 291.588453 48.24 
L 159.419689 48.24 
z
" clip-path="url(#p4c964954a1)" style="fill: #0000ff"/>
   </g>
   <g id="patch_143">
    <path d="M 159.419689 60.84 
L 291.588453 60.84 
L 291.588453 48.24 
L 159.419689 48.24 
z
" clip-path="url(#p4c964954a1)" style="fill: #0000ff"/>
   </g>
   <g id="patch_144">
    <path d="M 159.419689 60.84 
L 292.322724 60.84 
L 292.322724 48.24 
L 159.419689 48.24 
z
" clip-path="url(#p4c964954a1)" style="fill: #0000ff"/>
   </g>
   <g id="patch_145">
    <path d="M 159.419689 60.84 
L 290.854182 60.84 
L 290.854182 48.24 
L 159.419689 48.24 
z
" clip-path="url(#p4c964954a1)" style="fill: #0000ff"/>
   </g>
   <g id="patch_146">
    <path d="M 160.888231 60.84 
L 291.588453 60.84 
L 291.588453 48.24 
L 160.888231 48.24 
z
" clip-path="url(#p4c964954a1)" style="fill: #0000ff"/>
   </g>
   <g id="patch_147">
    <path d="M 197.601776 60.84 
L 289.38564 60.84 
L 289.38564 48.24 
L 197.601776 48.24 
z
" clip-path="url(#p4c964954a1)" style="fill: #0000ff"/>
   </g>
   <g id="patch_148">
    <path d="M 199.070318 60.84 
L 304.805329 60.84 
L 304.805329 48.24 
L 199.070318 48.24 
z
" clip-path="url(#p4c964954a1)" style="fill: #0000ff"/>
   </g>
   <g id="patch_149">
    <path d="M 203.475944 60.84 
L 289.38564 60.84 
L 289.38564 48.24 
L 203.475944 48.24 
z
" clip-path="url(#p4c964954a1)" style="fill: #0000ff"/>
   </g>
   <g id="patch_150">
    <path d="M 207.147298 60.84 
L 289.38564 60.84 
L 289.38564 48.24 
L 207.147298 48.24 
z
" clip-path="url(#p4c964954a1)" style="fill: #0000ff"/>
   </g>
   <g id="patch_151">
    <path d="M 210.084382 60.84 
L 290.119911 60.84 
L 290.119911 48.24 
L 210.084382 48.24 
z
" clip-path="url(#p4c964954a1)" style="fill: #0000ff"/>
   </g>
   <g id="patch_152">
    <path d="M 210.084382 60.84 
L 289.38564 60.84 
L 289.38564 48.24 
L 210.084382 48.24 
z
" clip-path="url(#p4c964954a1)" style="fill: #0000ff"/>
   </g>
   <g id="patch_153">
    <path d="M 210.818653 60.84 
L 306.273871 60.84 
L 306.273871 48.24 
L 210.818653 48.24 
z
" clip-path="url(#p4c964954a1)" style="fill: #0000ff"/>
   </g>
   <g id="patch_154">
    <path d="M 210.818653 60.84 
L 289.38564 60.84 
L 289.38564 48.24 
L 210.818653 48.24 
z
" clip-path="url(#p4c964954a1)" style="fill: #0000ff"/>
   </g>
   <g id="patch_155">
    <path d="M 210.818653 60.84 
L 289.38564 60.84 
L 289.38564 48.24 
L 210.818653 48.24 
z
" clip-path="url(#p4c964954a1)" style="fill: #0000ff"/>
   </g>
   <g id="patch_156">
    <path d="M 210.818653 60.84 
L 306.273871 60.84 
L 306.273871 48.24 
L 210.818653 48.24 
z
" clip-path="url(#p4c964954a1)" style="fill: #0000ff"/>
   </g>
   <g id="patch_157">
    <path d="M 212.287195 60.84 
L 289.38564 60.84 
L 289.38564 48.24 
L 212.287195 48.24 
z
" clip-path="url(#p4c964954a1)" style="fill: #0000ff"/>
   </g>
   <g id="patch_158">
    <path d="M 212.287195 60.84 
L 289.38564 60.84 
L 289.38564 48.24 
L 212.287195 48.24 
z
" clip-path="url(#p4c964954a1)" style="fill: #0000ff"/>
   </g>
   <g id="patch_159">
    <path d="M 212.287195 60.84 
L 289.38564 60.84 
L 289.38564 48.24 
L 212.287195 48.24 
z
" clip-path="url(#p4c964954a1)" style="fill: #0000ff"/>
   </g>
   <g id="patch_160">
    <path d="M 212.287195 60.84 
L 289.38564 60.84 
L 289.38564 48.24 
L 212.287195 48.24 
z
" clip-path="url(#p4c964954a1)" style="fill: #0000ff"/>
   </g>
   <g id="patch_161">
    <path d="M 300.399704 60.84 
L 403.197631 60.84 
L 403.197631 48.24 
L 300.399704 48.24 
z
" clip-path="url(#p4c964954a1)" style="fill: #0000ff"/>
   </g>
   <g id="patch_162">
    <path d="M 300.399704 60.84 
L 395.120651 60.84 
L 395.120651 48.24 
L 300.399704 48.24 
z
" clip-path="url(#p4c964954a1)" style="fill: #0000ff"/>
   </g>
   <g id="patch_163">
    <path d="M 300.399704 60.84 
L 405.400444 60.84 
L 405.400444 48.24 
L 300.399704 48.24 
z
" clip-path="url(#p4c964954a1)" style="fill: #0000ff"/>
   </g>
   <g id="patch_164">
    <path d="M 300.399704 60.84 
L 403.197631 60.84 
L 403.197631 48.24 
L 300.399704 48.24 
z
" clip-path="url(#p4c964954a1)" style="fill: #0000ff"/>
   </g>
   <g id="patch_165">
    <path d="M 300.399704 60.84 
L 405.400444 60.84 
L 405.400444 48.24 
L 300.399704 48.24 
z
" clip-path="url(#p4c964954a1)" style="fill: #0000ff"/>
   </g>
   <g id="patch_166">
    <path d="M 300.399704 60.84 
L 403.197631 60.84 
L 403.197631 48.24 
L 300.399704 48.24 
z
" clip-path="url(#p4c964954a1)" style="fill: #0000ff"/>
   </g>
   <g id="patch_167">
    <path d="M 300.399704 60.84 
L 405.400444 60.84 
L 405.400444 48.24 
L 300.399704 48.24 
z
" clip-path="url(#p4c964954a1)" style="fill: #0000ff"/>
   </g>
   <g id="patch_168">
    <path d="M 301.133975 60.84 
L 403.197631 60.84 
L 403.197631 48.24 
L 301.133975 48.24 
z
" clip-path="url(#p4c964954a1)" style="fill: #0000ff"/>
   </g>
   <g id="patch_169">
    <path d="M 301.133975 60.84 
L 403.197631 60.84 
L 403.197631 48.24 
L 301.133975 48.24 
z
" clip-path="url(#p4c964954a1)" style="fill: #0000ff"/>
   </g>
   <g id="patch_170">
    <path d="M 301.133975 60.84 
L 403.197631 60.84 
L 403.197631 48.24 
L 301.133975 48.24 
z
" clip-path="url(#p4c964954a1)" style="fill: #0000ff"/>
   </g>
   <g id="patch_171">
    <path d="M 301.868246 60.84 
L 403.197631 60.84 
L 403.197631 48.24 
L 301.868246 48.24 
z
" clip-path="url(#p4c964954a1)" style="fill: #0000ff"/>
   </g>
   <g id="patch_172">
    <path d="M 305.5396 60.84 
L 406.134715 60.84 
L 406.134715 48.24 
L 305.5396 48.24 
z
" clip-path="url(#p4c964954a1)" style="fill: #0000ff"/>
   </g>
   <g id="patch_173">
    <path d="M 307.008142 60.84 
L 403.197631 60.84 
L 403.197631 48.24 
L 307.008142 48.24 
z
" clip-path="url(#p4c964954a1)" style="fill: #0000ff"/>
   </g>
   <g id="patch_174">
    <path d="M 331.239082 60.84 
L 402.46336 60.84 
L 402.46336 48.24 
L 331.239082 48.24 
z
" clip-path="url(#p4c964954a1)" style="fill: #0000ff"/>
   </g>
   <g id="patch_175">
    <path d="M 348.861584 60.84 
L 403.931902 60.84 
L 403.931902 48.24 
L 348.861584 48.24 
z
" clip-path="url(#p4c964954a1)" style="fill: #0000ff"/>
   </g>
   <g id="patch_176">
    <path d="M 359.141377 60.84 
L 404.666173 60.84 
L 404.666173 48.24 
L 359.141377 48.24 
z
" clip-path="url(#p4c964954a1)" style="fill: #0000ff"/>
   </g>
   <g id="patch_177">
    <path d="M 406.868986 55.0125 
L 413.477424 55.0125 
L 413.477424 54.0675 
L 406.868986 54.0675 
z
" clip-path="url(#p4c964954a1)" style="fill: #0000ff"/>
   </g>
   <g id="patch_178">
    <path d="M 414.211695 60.84 
L 563.26869 60.84 
L 563.26869 48.24 
L 414.211695 48.24 
z
" clip-path="url(#p4c964954a1)" style="fill: #0000ff"/>
   </g>
   <g id="patch_179">
    <path d="M 415.680237 60.84 
L 556.660252 60.84 
L 556.660252 48.24 
L 415.680237 48.24 
z
" clip-path="url(#p4c964954a1)" style="fill: #0000ff"/>
   </g>
   <g id="patch_180">
    <path d="M 416.414508 60.84 
L 555.925981 60.84 
L 555.925981 48.24 
L 416.414508 48.24 
z
" clip-path="url(#p4c964954a1)" style="fill: #0000ff"/>
   </g>
   <g id="patch_181">
    <path d="M 416.414508 60.84 
L 555.925981 60.84 
L 555.925981 48.24 
L 416.414508 48.24 
z
" clip-path="url(#p4c964954a1)" style="fill: #0000ff"/>
   </g>
   <g id="patch_182">
    <path d="M 416.414508 60.84 
L 555.925981 60.84 
L 555.925981 48.24 
L 416.414508 48.24 
z
" clip-path="url(#p4c964954a1)" style="fill: #0000ff"/>
   </g>
   <g id="patch_183">
    <path d="M 416.414508 60.84 
L 556.660252 60.84 
L 556.660252 48.24 
L 416.414508 48.24 
z
" clip-path="url(#p4c964954a1)" style="fill: #0000ff"/>
   </g>
   <g id="patch_184">
    <path d="M 416.414508 60.84 
L 556.660252 60.84 
L 556.660252 48.24 
L 416.414508 48.24 
z
" clip-path="url(#p4c964954a1)" style="fill: #0000ff"/>
   </g>
   <g id="patch_185">
    <path d="M 416.414508 60.84 
L 556.660252 60.84 
L 556.660252 48.24 
L 416.414508 48.24 
z
" clip-path="url(#p4c964954a1)" style="fill: #0000ff"/>
   </g>
   <g id="patch_186">
    <path d="M 416.414508 60.84 
L 556.660252 60.84 
L 556.660252 48.24 
L 416.414508 48.24 
z
" clip-path="url(#p4c964954a1)" style="fill: #0000ff"/>
   </g>
   <g id="patch_187">
    <path d="M 417.88305 60.84 
L 555.925981 60.84 
L 555.925981 48.24 
L 417.88305 48.24 
z
" clip-path="url(#p4c964954a1)" style="fill: #0000ff"/>
   </g>
   <g id="patch_188">
    <path d="M 417.88305 60.84 
L 555.19171 60.84 
L 555.19171 48.24 
L 417.88305 48.24 
z
" clip-path="url(#p4c964954a1)" style="fill: #0000ff"/>
   </g>
   <g id="patch_189">
    <path d="M 456.799408 60.84 
L 529.492228 60.84 
L 529.492228 48.24 
L 456.799408 48.24 
z
" clip-path="url(#p4c964954a1)" style="fill: #0000ff"/>
   </g>
   <g id="patch_190">
    <path d="M 463.407846 60.84 
L 554.457439 60.84 
L 554.457439 48.24 
L 463.407846 48.24 
z
" clip-path="url(#p4c964954a1)" style="fill: #0000ff"/>
   </g>
   <g id="patch_191">
    <path d="M 471.484826 60.84 
L 526.555144 60.84 
L 526.555144 48.24 
L 471.484826 48.24 
z
" clip-path="url(#p4c964954a1)" style="fill: #0000ff"/>
   </g>
   <g id="patch_192">
    <path d="M 473.687639 60.84 
L 529.492228 60.84 
L 529.492228 48.24 
L 473.687639 48.24 
z
" clip-path="url(#p4c964954a1)" style="fill: #0000ff"/>
   </g>
   <g id="patch_193">
    <path d="M 473.687639 60.84 
L 529.492228 60.84 
L 529.492228 48.24 
L 473.687639 48.24 
z
" clip-path="url(#p4c964954a1)" style="fill: #0000ff"/>
   </g>
   <g id="patch_194">
    <path d="M 473.687639 60.84 
L 524.352332 60.84 
L 524.352332 48.24 
L 473.687639 48.24 
z
" clip-path="url(#p4c964954a1)" style="fill: #0000ff"/>
   </g>
   <g id="patch_195">
    <path d="M 564.002961 55.0125 
L 564.737232 55.0125 
L 564.737232 54.0675 
L 564.002961 54.0675 
z
" clip-path="url(#p4c964954a1)" style="fill: #0000ff"/>
   </g>
   <g id="patch_196">
    <path d="M 565.471503 60.84 
L 668.26943 60.84 
L 668.26943 48.24 
L 565.471503 48.24 
z
" clip-path="url(#p4c964954a1)" style="fill: #0000ff"/>
   </g>
   <g id="patch_197">
    <path d="M 565.471503 60.84 
L 670.472243 60.84 
L 670.472243 48.24 
L 565.471503 48.24 
z
" clip-path="url(#p4c964954a1)" style="fill: #0000ff"/>
   </g>
   <g id="patch_198">
    <path d="M 565.471503 60.84 
L 668.26943 60.84 
L 668.26943 48.24 
L 565.471503 48.24 
z
" clip-path="url(#p4c964954a1)" style="fill: #0000ff"/>
   </g>
   <g id="patch_199">
    <path d="M 565.471503 60.84 
L 670.472243 60.84 
L 670.472243 48.24 
L 565.471503 48.24 
z
" clip-path="url(#p4c964954a1)" style="fill: #0000ff"/>
   </g>
   <g id="patch_200">
    <path d="M 565.471503 60.84 
L 663.863805 60.84 
L 663.863805 48.24 
L 565.471503 48.24 
z
" clip-path="url(#p4c964954a1)" style="fill: #0000ff"/>
   </g>
   <g id="patch_201">
    <path d="M 565.471503 60.84 
L 670.472243 60.84 
L 670.472243 48.24 
L 565.471503 48.24 
z
" clip-path="url(#p4c964954a1)" style="fill: #0000ff"/>
   </g>
   <g id="patch_202">
    <path d="M 566.205774 60.84 
L 668.26943 60.84 
L 668.26943 48.24 
L 566.205774 48.24 
z
" clip-path="url(#p4c964954a1)" style="fill: #0000ff"/>
   </g>
   <g id="patch_203">
    <path d="M 566.205774 60.84 
L 668.26943 60.84 
L 668.26943 48.24 
L 566.205774 48.24 
z
" clip-path="url(#p4c964954a1)" style="fill: #0000ff"/>
   </g>
   <g id="patch_204">
    <path d="M 566.205774 60.84 
L 668.26943 60.84 
L 668.26943 48.24 
L 566.205774 48.24 
z
" clip-path="url(#p4c964954a1)" style="fill: #0000ff"/>
   </g>
   <g id="patch_205">
    <path d="M 566.205774 60.84 
L 668.26943 60.84 
L 668.26943 48.24 
L 566.205774 48.24 
z
" clip-path="url(#p4c964954a1)" style="fill: #0000ff"/>
   </g>
   <g id="patch_206">
    <path d="M 591.905255 60.84 
L 668.26943 60.84 
L 668.26943 48.24 
L 591.905255 48.24 
z
" clip-path="url(#p4c964954a1)" style="fill: #0000ff"/>
   </g>
   <g id="patch_207">
    <path d="M 671.206514 55.0125 
L 679.283494 55.0125 
L 679.283494 54.0675 
L 671.206514 54.0675 
z
" clip-path="url(#p4c964954a1)" style="fill: #0000ff"/>
   </g>
   <g id="patch_208">
    <path d="M 680.017765 60.84 
L 805.57809 60.84 
L 805.57809 48.24 
L 680.017765 48.24 
z
" clip-path="url(#p4c964954a1)" style="fill: #0000ff"/>
   </g>
   <g id="patch_209">
    <path d="M 680.017765 60.84 
L 805.57809 60.84 
L 805.57809 48.24 
L 680.017765 48.24 
z
" clip-path="url(#p4c964954a1)" style="fill: #0000ff"/>
   </g>
   <g id="patch_210">
    <path d="M 680.752036 60.84 
L 805.57809 60.84 
L 805.57809 48.24 
L 680.752036 48.24 
z
" clip-path="url(#p4c964954a1)" style="fill: #0000ff"/>
   </g>
   <g id="patch_211">
    <path d="M 680.752036 60.84 
L 805.57809 60.84 
L 805.57809 48.24 
L 680.752036 48.24 
z
" clip-path="url(#p4c964954a1)" style="fill: #0000ff"/>
   </g>
   <g id="patch_212">
    <path d="M 680.752036 60.84 
L 805.57809 60.84 
L 805.57809 48.24 
L 680.752036 48.24 
z
" clip-path="url(#p4c964954a1)" style="fill: #0000ff"/>
   </g>
   <g id="patch_213">
    <path d="M 680.752036 60.84 
L 805.57809 60.84 
L 805.57809 48.24 
L 680.752036 48.24 
z
" clip-path="url(#p4c964954a1)" style="fill: #0000ff"/>
   </g>
   <g id="patch_214">
    <path d="M 680.752036 60.84 
L 805.57809 60.84 
L 805.57809 48.24 
L 680.752036 48.24 
z
" clip-path="url(#p4c964954a1)" style="fill: #0000ff"/>
   </g>
   <g id="patch_215">
    <path d="M 680.752036 60.84 
L 805.57809 60.84 
L 805.57809 48.24 
L 680.752036 48.24 
z
" clip-path="url(#p4c964954a1)" style="fill: #0000ff"/>
   </g>
   <g id="patch_216">
    <path d="M 680.752036 60.84 
L 804.843819 60.84 
L 804.843819 48.24 
L 680.752036 48.24 
z
" clip-path="url(#p4c964954a1)" style="fill: #0000ff"/>
   </g>
   <g id="patch_217">
    <path d="M 681.486306 60.84 
L 805.57809 60.84 
L 805.57809 48.24 
L 681.486306 48.24 
z
" clip-path="url(#p4c964954a1)" style="fill: #0000ff"/>
   </g>
   <g id="patch_218">
    <path d="M 681.486306 60.84 
L 804.843819 60.84 
L 804.843819 48.24 
L 681.486306 48.24 
z
" clip-path="url(#p4c964954a1)" style="fill: #0000ff"/>
   </g>
   <g id="patch_219">
    <path d="M 727.011103 60.84 
L 804.109548 60.84 
L 804.109548 48.24 
L 727.011103 48.24 
z
" clip-path="url(#p4c964954a1)" style="fill: #0000ff"/>
   </g>
   <g id="patch_220">
    <path d="M 735.088083 60.84 
L 803.375278 60.84 
L 803.375278 48.24 
L 735.088083 48.24 
z
" clip-path="url(#p4c964954a1)" style="fill: #0000ff"/>
   </g>
   <g id="patch_221">
    <path d="M 735.088083 60.84 
L 803.375278 60.84 
L 803.375278 48.24 
L 735.088083 48.24 
z
" clip-path="url(#p4c964954a1)" style="fill: #0000ff"/>
   </g>
   <g id="patch_222">
    <path d="M 735.822354 60.84 
L 774.738712 60.84 
L 774.738712 48.24 
L 735.822354 48.24 
z
" clip-path="url(#p4c964954a1)" style="fill: #0000ff"/>
   </g>
   <g id="patch_223">
    <path d="M 735.822354 60.84 
L 803.375278 60.84 
L 803.375278 48.24 
L 735.822354 48.24 
z
" clip-path="url(#p4c964954a1)" style="fill: #0000ff"/>
   </g>
   <g id="patch_224">
    <path d="M 735.822354 60.84 
L 779.144338 60.84 
L 779.144338 48.24 
L 735.822354 48.24 
z
" clip-path="url(#p4c964954a1)" style="fill: #0000ff"/>
   </g>
   <g id="patch_225">
    <path d="M 737.290896 60.84 
L 779.878608 60.84 
L 779.878608 48.24 
L 737.290896 48.24 
z
" clip-path="url(#p4c964954a1)" style="fill: #0000ff"/>
   </g>
   <g id="patch_226">
    <path d="M 737.290896 60.84 
L 774.738712 60.84 
L 774.738712 48.24 
L 737.290896 48.24 
z
" clip-path="url(#p4c964954a1)" style="fill: #0000ff"/>
   </g>
   <g id="patch_227">
    <path d="M 737.290896 60.84 
L 803.375278 60.84 
L 803.375278 48.24 
L 737.290896 48.24 
z
" clip-path="url(#p4c964954a1)" style="fill: #0000ff"/>
   </g>
   <g id="patch_228">
    <path d="M 737.290896 60.84 
L 779.878608 60.84 
L 779.878608 48.24 
L 737.290896 48.24 
z
" clip-path="url(#p4c964954a1)" style="fill: #0000ff"/>
   </g>
   <g id="patch_229">
    <path d="M 737.290896 60.84 
L 803.375278 60.84 
L 803.375278 48.24 
L 737.290896 48.24 
z
" clip-path="url(#p4c964954a1)" style="fill: #0000ff"/>
   </g>
   <g id="patch_230">
    <path d="M 737.290896 60.84 
L 803.375278 60.84 
L 803.375278 48.24 
L 737.290896 48.24 
z
" clip-path="url(#p4c964954a1)" style="fill: #0000ff"/>
   </g>
   <g id="patch_231">
    <path d="M 737.290896 60.84 
L 803.375278 60.84 
L 803.375278 48.24 
L 737.290896 48.24 
z
" clip-path="url(#p4c964954a1)" style="fill: #0000ff"/>
   </g>
   <g id="patch_232">
    <path d="M 737.290896 60.84 
L 803.375278 60.84 
L 803.375278 48.24 
L 737.290896 48.24 
z
" clip-path="url(#p4c964954a1)" style="fill: #0000ff"/>
   </g>
   <g id="patch_233">
    <path d="M 737.290896 60.84 
L 805.57809 60.84 
L 805.57809 48.24 
L 737.290896 48.24 
z
" clip-path="url(#p4c964954a1)" style="fill: #0000ff"/>
   </g>
   <g id="patch_234">
    <path d="M 738.025167 60.84 
L 803.375278 60.84 
L 803.375278 48.24 
L 738.025167 48.24 
z
" clip-path="url(#p4c964954a1)" style="fill: #0000ff"/>
   </g>
   <g id="patch_235">
    <path d="M 806.312361 55.0125 
L 812.920799 55.0125 
L 812.920799 54.0675 
L 806.312361 54.0675 
z
" clip-path="url(#p4c964954a1)" style="fill: #0000ff"/>
   </g>
   <g id="patch_236">
    <path d="M 813.65507 60.84 
L 918.655811 60.84 
L 918.655811 48.24 
L 813.65507 48.24 
z
" clip-path="url(#p4c964954a1)" style="fill: #0000ff"/>
   </g>
   <g id="patch_237">
    <path d="M 813.65507 60.84 
L 919.390081 60.84 
L 919.390081 48.24 
L 813.65507 48.24 
z
" clip-path="url(#p4c964954a1)" style="fill: #0000ff"/>
   </g>
   <g id="patch_238">
    <path d="M 814.389341 60.84 
L 905.438934 60.84 
L 905.438934 48.24 
L 814.389341 48.24 
z
" clip-path="url(#p4c964954a1)" style="fill: #0000ff"/>
   </g>
   <g id="patch_239">
    <path d="M 815.123612 60.84 
L 918.655811 60.84 
L 918.655811 48.24 
L 815.123612 48.24 
z
" clip-path="url(#p4c964954a1)" style="fill: #0000ff"/>
   </g>
   <g id="patch_240">
    <path d="M 815.123612 60.84 
L 918.655811 60.84 
L 918.655811 48.24 
L 815.123612 48.24 
z
" clip-path="url(#p4c964954a1)" style="fill: #0000ff"/>
   </g>
   <g id="patch_241">
    <path d="M 815.123612 60.84 
L 918.655811 60.84 
L 918.655811 48.24 
L 815.123612 48.24 
z
" clip-path="url(#p4c964954a1)" style="fill: #0000ff"/>
   </g>
   <g id="patch_242">
    <path d="M 815.123612 60.84 
L 920.124352 60.84 
L 920.124352 48.24 
L 815.123612 48.24 
z
" clip-path="url(#p4c964954a1)" style="fill: #0000ff"/>
   </g>
   <g id="patch_243">
    <path d="M 815.123612 60.84 
L 914.250185 60.84 
L 914.250185 48.24 
L 815.123612 48.24 
z
" clip-path="url(#p4c964954a1)" style="fill: #0000ff"/>
   </g>
   <g id="patch_244">
    <path d="M 815.123612 60.84 
L 918.655811 60.84 
L 918.655811 48.24 
L 815.123612 48.24 
z
" clip-path="url(#p4c964954a1)" style="fill: #0000ff"/>
   </g>
   <g id="patch_245">
    <path d="M 817.326425 60.84 
L 920.124352 60.84 
L 920.124352 48.24 
L 817.326425 48.24 
z
" clip-path="url(#p4c964954a1)" style="fill: #0000ff"/>
   </g>
   <g id="patch_246">
    <path d="M 818.794967 60.84 
L 917.187269 60.84 
L 917.187269 48.24 
L 818.794967 48.24 
z
" clip-path="url(#p4c964954a1)" style="fill: #0000ff"/>
   </g>
   <g id="patch_247">
    <path d="M 839.354552 60.84 
L 918.655811 60.84 
L 918.655811 48.24 
L 839.354552 48.24 
z
" clip-path="url(#p4c964954a1)" style="fill: #0000ff"/>
   </g>
   <g id="patch_248">
    <path d="M 845.228719 60.84 
L 918.655811 60.84 
L 918.655811 48.24 
L 845.228719 48.24 
z
" clip-path="url(#p4c964954a1)" style="fill: #0000ff"/>
   </g>
   <g id="patch_249">
    <path d="M 846.697261 60.84 
L 914.250185 60.84 
L 914.250185 48.24 
L 846.697261 48.24 
z
" clip-path="url(#p4c964954a1)" style="fill: #0000ff"/>
   </g>
   <g id="patch_250">
    <path d="M 846.697261 60.84 
L 914.250185 60.84 
L 914.250185 48.24 
L 846.697261 48.24 
z
" clip-path="url(#p4c964954a1)" style="fill: #0000ff"/>
   </g>
   <g id="patch_251">
    <path d="M 848.165803 60.84 
L 917.92154 60.84 
L 917.92154 48.24 
L 848.165803 48.24 
z
" clip-path="url(#p4c964954a1)" style="fill: #0000ff"/>
   </g>
   <g id="patch_252">
    <path d="M 848.165803 60.84 
L 918.655811 60.84 
L 918.655811 48.24 
L 848.165803 48.24 
z
" clip-path="url(#p4c964954a1)" style="fill: #0000ff"/>
   </g>
   <g id="patch_253">
    <path d="M 848.900074 60.84 
L 918.655811 60.84 
L 918.655811 48.24 
L 848.900074 48.24 
z
" clip-path="url(#p4c964954a1)" style="fill: #0000ff"/>
   </g>
   <g id="patch_254">
    <path d="M 849.634345 60.84 
L 914.250185 60.84 
L 914.250185 48.24 
L 849.634345 48.24 
z
" clip-path="url(#p4c964954a1)" style="fill: #0000ff"/>
   </g>
   <g id="patch_255">
    <path d="M 858.445596 60.84 
L 914.250185 60.84 
L 914.250185 48.24 
L 858.445596 48.24 
z
" clip-path="url(#p4c964954a1)" style="fill: #0000ff"/>
   </g>
   <g id="patch_256">
    <path d="M 859.914138 60.84 
L 914.250185 60.84 
L 914.250185 48.24 
L 859.914138 48.24 
z
" clip-path="url(#p4c964954a1)" style="fill: #0000ff"/>
   </g>
   <g id="patch_257">
    <path d="M 868.725389 60.84 
L 914.250185 60.84 
L 914.250185 48.24 
L 868.725389 48.24 
z
" clip-path="url(#p4c964954a1)" style="fill: #0000ff"/>
   </g>
   <g id="patch_258">
    <path d="M 873.131014 60.84 
L 918.655811 60.84 
L 918.655811 48.24 
L 873.131014 48.24 
z
" clip-path="url(#p4c964954a1)" style="fill: #0000ff"/>
   </g>
   <g id="patch_259">
    <path d="M 873.131014 60.84 
L 914.250185 60.84 
L 914.250185 48.24 
L 873.131014 48.24 
z
" clip-path="url(#p4c964954a1)" style="fill: #0000ff"/>
   </g>
   <g id="patch_260">
    <path d="M 873.131014 60.84 
L 914.250185 60.84 
L 914.250185 48.24 
L 873.131014 48.24 
z
" clip-path="url(#p4c964954a1)" style="fill: #0000ff"/>
   </g>
   <g id="patch_261">
    <path d="M 873.131014 60.84 
L 919.390081 60.84 
L 919.390081 48.24 
L 873.131014 48.24 
z
" clip-path="url(#p4c964954a1)" style="fill: #0000ff"/>
   </g>
   <g id="patch_262">
    <path d="M 920.858623 55.0125 
L 925.264249 55.0125 
L 925.264249 54.0675 
L 920.858623 54.0675 
z
" clip-path="url(#p4c964954a1)" style="fill: #0000ff"/>
   </g>
   <g id="patch_263">
    <path d="M 144 23.5125 
L 160.15396 23.5125 
L 160.15396 22.5675 
L 144 22.5675 
z
" clip-path="url(#p4c964954a1)" style="fill: #0000ff"/>
   </g>
   <g id="patch_264">
    <path d="M 160.888231 29.34 
L 300.399704 29.34 
L 300.399704 16.74 
L 160.888231 16.74 
z
" clip-path="url(#p4c964954a1)" style="fill: #0000ff"/>
   </g>
   <g id="patch_265">
    <path d="M 161.622502 29.34 
L 295.994078 29.34 
L 295.994078 16.74 
L 161.622502 16.74 
z
" clip-path="url(#p4c964954a1)" style="fill: #0000ff"/>
   </g>
   <g id="patch_266">
    <path d="M 162.356773 29.34 
L 297.46262 29.34 
L 297.46262 16.74 
L 162.356773 16.74 
z
" clip-path="url(#p4c964954a1)" style="fill: #0000ff"/>
   </g>
   <g id="patch_267">
    <path d="M 162.356773 29.34 
L 297.46262 29.34 
L 297.46262 16.74 
L 162.356773 16.74 
z
" clip-path="url(#p4c964954a1)" style="fill: #0000ff"/>
   </g>
   <g id="patch_268">
    <path d="M 163.091044 29.34 
L 296.728349 29.34 
L 296.728349 16.74 
L 163.091044 16.74 
z
" clip-path="url(#p4c964954a1)" style="fill: #0000ff"/>
   </g>
   <g id="patch_269">
    <path d="M 163.091044 29.34 
L 296.728349 29.34 
L 296.728349 16.74 
L 163.091044 16.74 
z
" clip-path="url(#p4c964954a1)" style="fill: #0000ff"/>
   </g>
   <g id="patch_270">
    <path d="M 163.091044 29.34 
L 295.994078 29.34 
L 295.994078 16.74 
L 163.091044 16.74 
z
" clip-path="url(#p4c964954a1)" style="fill: #0000ff"/>
   </g>
   <g id="patch_271">
    <path d="M 163.091044 29.34 
L 297.46262 29.34 
L 297.46262 16.74 
L 163.091044 16.74 
z
" clip-path="url(#p4c964954a1)" style="fill: #0000ff"/>
   </g>
   <g id="patch_272">
    <path d="M 163.091044 29.34 
L 297.46262 29.34 
L 297.46262 16.74 
L 163.091044 16.74 
z
" clip-path="url(#p4c964954a1)" style="fill: #0000ff"/>
   </g>
   <g id="patch_273">
    <path d="M 163.091044 29.34 
L 297.46262 29.34 
L 297.46262 16.74 
L 163.091044 16.74 
z
" clip-path="url(#p4c964954a1)" style="fill: #0000ff"/>
   </g>
   <g id="patch_274">
    <path d="M 163.825315 29.34 
L 295.994078 29.34 
L 295.994078 16.74 
L 163.825315 16.74 
z
" clip-path="url(#p4c964954a1)" style="fill: #0000ff"/>
   </g>
   <g id="patch_275">
    <path d="M 203.475944 29.34 
L 294.525537 29.34 
L 294.525537 16.74 
L 203.475944 16.74 
z
" clip-path="url(#p4c964954a1)" style="fill: #0000ff"/>
   </g>
   <g id="patch_276">
    <path d="M 215.224278 29.34 
L 295.259808 29.34 
L 295.259808 16.74 
L 215.224278 16.74 
z
" clip-path="url(#p4c964954a1)" style="fill: #0000ff"/>
   </g>
   <g id="patch_277">
    <path d="M 215.224278 29.34 
L 294.525537 29.34 
L 294.525537 16.74 
L 215.224278 16.74 
z
" clip-path="url(#p4c964954a1)" style="fill: #0000ff"/>
   </g>
   <g id="patch_278">
    <path d="M 215.224278 29.34 
L 294.525537 29.34 
L 294.525537 16.74 
L 215.224278 16.74 
z
" clip-path="url(#p4c964954a1)" style="fill: #0000ff"/>
   </g>
   <g id="patch_279">
    <path d="M 215.958549 29.34 
L 273.23168 29.34 
L 273.23168 16.74 
L 215.958549 16.74 
z
" clip-path="url(#p4c964954a1)" style="fill: #0000ff"/>
   </g>
   <g id="patch_280">
    <path d="M 215.958549 29.34 
L 294.525537 29.34 
L 294.525537 16.74 
L 215.958549 16.74 
z
" clip-path="url(#p4c964954a1)" style="fill: #0000ff"/>
   </g>
   <g id="patch_281">
    <path d="M 215.958549 29.34 
L 294.525537 29.34 
L 294.525537 16.74 
L 215.958549 16.74 
z
" clip-path="url(#p4c964954a1)" style="fill: #0000ff"/>
   </g>
   <g id="patch_282">
    <path d="M 215.958549 29.34 
L 294.525537 29.34 
L 294.525537 16.74 
L 215.958549 16.74 
z
" clip-path="url(#p4c964954a1)" style="fill: #0000ff"/>
   </g>
   <g id="patch_283">
    <path d="M 215.958549 29.34 
L 294.525537 29.34 
L 294.525537 16.74 
L 215.958549 16.74 
z
" clip-path="url(#p4c964954a1)" style="fill: #0000ff"/>
   </g>
   <g id="patch_284">
    <path d="M 215.958549 29.34 
L 294.525537 29.34 
L 294.525537 16.74 
L 215.958549 16.74 
z
" clip-path="url(#p4c964954a1)" style="fill: #0000ff"/>
   </g>
   <g id="patch_285">
    <path d="M 215.958549 29.34 
L 294.525537 29.34 
L 294.525537 16.74 
L 215.958549 16.74 
z
" clip-path="url(#p4c964954a1)" style="fill: #0000ff"/>
   </g>
   <g id="patch_286">
    <path d="M 217.427091 29.34 
L 294.525537 29.34 
L 294.525537 16.74 
L 217.427091 16.74 
z
" clip-path="url(#p4c964954a1)" style="fill: #0000ff"/>
   </g>
   <g id="patch_287">
    <path d="M 217.427091 29.34 
L 282.042931 29.34 
L 282.042931 16.74 
L 217.427091 16.74 
z
" clip-path="url(#p4c964954a1)" style="fill: #0000ff"/>
   </g>
   <g id="patch_288">
    <path d="M 217.427091 29.34 
L 294.525537 29.34 
L 294.525537 16.74 
L 217.427091 16.74 
z
" clip-path="url(#p4c964954a1)" style="fill: #0000ff"/>
   </g>
   <g id="patch_289">
    <path d="M 217.427091 29.34 
L 294.525537 29.34 
L 294.525537 16.74 
L 217.427091 16.74 
z
" clip-path="url(#p4c964954a1)" style="fill: #0000ff"/>
   </g>
   <g id="patch_290">
    <path d="M 217.427091 29.34 
L 294.525537 29.34 
L 294.525537 16.74 
L 217.427091 16.74 
z
" clip-path="url(#p4c964954a1)" style="fill: #0000ff"/>
   </g>
   <g id="patch_291">
    <path d="M 217.427091 29.34 
L 294.525537 29.34 
L 294.525537 16.74 
L 217.427091 16.74 
z
" clip-path="url(#p4c964954a1)" style="fill: #0000ff"/>
   </g>
   <g id="patch_292">
    <path d="M 218.161362 29.34 
L 294.525537 29.34 
L 294.525537 16.74 
L 218.161362 16.74 
z
" clip-path="url(#p4c964954a1)" style="fill: #0000ff"/>
   </g>
   <g id="patch_293">
    <path d="M 301.133975 23.5125 
L 306.273871 23.5125 
L 306.273871 22.5675 
L 301.133975 22.5675 
z
" clip-path="url(#p4c964954a1)" style="fill: #0000ff"/>
   </g>
   <g id="patch_294">
    <path d="M 307.008142 29.34 
L 405.400444 29.34 
L 405.400444 16.74 
L 307.008142 16.74 
z
" clip-path="url(#p4c964954a1)" style="fill: #0000ff"/>
   </g>
   <g id="patch_295">
    <path d="M 307.008142 29.34 
L 406.868986 29.34 
L 406.868986 16.74 
L 307.008142 16.74 
z
" clip-path="url(#p4c964954a1)" style="fill: #0000ff"/>
   </g>
   <g id="patch_296">
    <path d="M 307.008142 29.34 
L 412.008882 29.34 
L 412.008882 16.74 
L 307.008142 16.74 
z
" clip-path="url(#p4c964954a1)" style="fill: #0000ff"/>
   </g>
   <g id="patch_297">
    <path d="M 307.008142 29.34 
L 409.80607 29.34 
L 409.80607 16.74 
L 307.008142 16.74 
z
" clip-path="url(#p4c964954a1)" style="fill: #0000ff"/>
   </g>
   <g id="patch_298">
    <path d="M 307.008142 29.34 
L 412.008882 29.34 
L 412.008882 16.74 
L 307.008142 16.74 
z
" clip-path="url(#p4c964954a1)" style="fill: #0000ff"/>
   </g>
   <g id="patch_299">
    <path d="M 307.008142 29.34 
L 409.80607 29.34 
L 409.80607 16.74 
L 307.008142 16.74 
z
" clip-path="url(#p4c964954a1)" style="fill: #0000ff"/>
   </g>
   <g id="patch_300">
    <path d="M 307.008142 29.34 
L 405.400444 29.34 
L 405.400444 16.74 
L 307.008142 16.74 
z
" clip-path="url(#p4c964954a1)" style="fill: #0000ff"/>
   </g>
   <g id="patch_301">
    <path d="M 307.742413 29.34 
L 405.400444 29.34 
L 405.400444 16.74 
L 307.742413 16.74 
z
" clip-path="url(#p4c964954a1)" style="fill: #0000ff"/>
   </g>
   <g id="patch_302">
    <path d="M 307.742413 29.34 
L 405.400444 29.34 
L 405.400444 16.74 
L 307.742413 16.74 
z
" clip-path="url(#p4c964954a1)" style="fill: #0000ff"/>
   </g>
   <g id="patch_303">
    <path d="M 307.742413 29.34 
L 405.400444 29.34 
L 405.400444 16.74 
L 307.742413 16.74 
z
" clip-path="url(#p4c964954a1)" style="fill: #0000ff"/>
   </g>
   <g id="patch_304">
    <path d="M 308.476684 29.34 
L 409.80607 29.34 
L 409.80607 16.74 
L 308.476684 16.74 
z
" clip-path="url(#p4c964954a1)" style="fill: #0000ff"/>
   </g>
   <g id="patch_305">
    <path d="M 335.644708 29.34 
L 411.274611 29.34 
L 411.274611 16.74 
L 335.644708 16.74 
z
" clip-path="url(#p4c964954a1)" style="fill: #0000ff"/>
   </g>
   <g id="patch_306">
    <path d="M 336.378979 29.34 
L 409.80607 29.34 
L 409.80607 16.74 
L 336.378979 16.74 
z
" clip-path="url(#p4c964954a1)" style="fill: #0000ff"/>
   </g>
   <g id="patch_307">
    <path d="M 341.518875 29.34 
L 405.400444 29.34 
L 405.400444 16.74 
L 341.518875 16.74 
z
" clip-path="url(#p4c964954a1)" style="fill: #0000ff"/>
   </g>
   <g id="patch_308">
    <path d="M 353.267209 29.34 
L 409.80607 29.34 
L 409.80607 16.74 
L 353.267209 16.74 
z
" clip-path="url(#p4c964954a1)" style="fill: #0000ff"/>
   </g>
   <g id="patch_309">
    <path d="M 356.938564 29.34 
L 406.868986 29.34 
L 406.868986 16.74 
L 356.938564 16.74 
z
" clip-path="url(#p4c964954a1)" style="fill: #0000ff"/>
   </g>
   <g id="patch_310">
    <path d="M 366.484086 29.34 
L 405.400444 29.34 
L 405.400444 16.74 
L 366.484086 16.74 
z
" clip-path="url(#p4c964954a1)" style="fill: #0000ff"/>
   </g>
   <g id="patch_311">
    <path d="M 412.743153 23.5125 
L 419.351591 23.5125 
L 419.351591 22.5675 
L 412.743153 22.5675 
z
" clip-path="url(#p4c964954a1)" style="fill: #0000ff"/>
   </g>
   <g id="patch_312">
    <path d="M 420.085862 29.34 
L 564.002961 29.34 
L 564.002961 16.74 
L 420.085862 16.74 
z
" clip-path="url(#p4c964954a1)" style="fill: #0000ff"/>
   </g>
   <g id="patch_313">
    <path d="M 421.554404 29.34 
L 557.394523 29.34 
L 557.394523 16.74 
L 421.554404 16.74 
z
" clip-path="url(#p4c964954a1)" style="fill: #0000ff"/>
   </g>
   <g id="patch_314">
    <path d="M 422.288675 29.34 
L 556.660252 29.34 
L 556.660252 16.74 
L 422.288675 16.74 
z
" clip-path="url(#p4c964954a1)" style="fill: #0000ff"/>
   </g>
   <g id="patch_315">
    <path d="M 422.288675 29.34 
L 556.660252 29.34 
L 556.660252 16.74 
L 422.288675 16.74 
z
" clip-path="url(#p4c964954a1)" style="fill: #0000ff"/>
   </g>
   <g id="patch_316">
    <path d="M 422.288675 29.34 
L 556.660252 29.34 
L 556.660252 16.74 
L 422.288675 16.74 
z
" clip-path="url(#p4c964954a1)" style="fill: #0000ff"/>
   </g>
   <g id="patch_317">
    <path d="M 422.288675 29.34 
L 557.394523 29.34 
L 557.394523 16.74 
L 422.288675 16.74 
z
" clip-path="url(#p4c964954a1)" style="fill: #0000ff"/>
   </g>
   <g id="patch_318">
    <path d="M 422.288675 29.34 
L 557.394523 29.34 
L 557.394523 16.74 
L 422.288675 16.74 
z
" clip-path="url(#p4c964954a1)" style="fill: #0000ff"/>
   </g>
   <g id="patch_319">
    <path d="M 422.288675 29.34 
L 557.394523 29.34 
L 557.394523 16.74 
L 422.288675 16.74 
z
" clip-path="url(#p4c964954a1)" style="fill: #0000ff"/>
   </g>
   <g id="patch_320">
    <path d="M 422.288675 29.34 
L 557.394523 29.34 
L 557.394523 16.74 
L 422.288675 16.74 
z
" clip-path="url(#p4c964954a1)" style="fill: #0000ff"/>
   </g>
   <g id="patch_321">
    <path d="M 423.757217 29.34 
L 556.660252 29.34 
L 556.660252 16.74 
L 423.757217 16.74 
z
" clip-path="url(#p4c964954a1)" style="fill: #0000ff"/>
   </g>
   <g id="patch_322">
    <path d="M 423.757217 29.34 
L 555.925981 29.34 
L 555.925981 16.74 
L 423.757217 16.74 
z
" clip-path="url(#p4c964954a1)" style="fill: #0000ff"/>
   </g>
   <g id="patch_323">
    <path d="M 468.547742 29.34 
L 554.457439 29.34 
L 554.457439 16.74 
L 468.547742 16.74 
z
" clip-path="url(#p4c964954a1)" style="fill: #0000ff"/>
   </g>
   <g id="patch_324">
    <path d="M 476.624722 29.34 
L 527.289415 29.34 
L 527.289415 16.74 
L 476.624722 16.74 
z
" clip-path="url(#p4c964954a1)" style="fill: #0000ff"/>
   </g>
   <g id="patch_325">
    <path d="M 477.358993 29.34 
L 555.19171 29.34 
L 555.19171 16.74 
L 477.358993 16.74 
z
" clip-path="url(#p4c964954a1)" style="fill: #0000ff"/>
   </g>
   <g id="patch_326">
    <path d="M 477.358993 29.34 
L 528.757957 29.34 
L 528.757957 16.74 
L 477.358993 16.74 
z
" clip-path="url(#p4c964954a1)" style="fill: #0000ff"/>
   </g>
   <g id="patch_327">
    <path d="M 477.358993 29.34 
L 554.457439 29.34 
L 554.457439 16.74 
L 477.358993 16.74 
z
" clip-path="url(#p4c964954a1)" style="fill: #0000ff"/>
   </g>
   <g id="patch_328">
    <path d="M 478.093264 29.34 
L 554.457439 29.34 
L 554.457439 16.74 
L 478.093264 16.74 
z
" clip-path="url(#p4c964954a1)" style="fill: #0000ff"/>
   </g>
   <g id="patch_329">
    <path d="M 479.561806 29.34 
L 554.457439 29.34 
L 554.457439 16.74 
L 479.561806 16.74 
z
" clip-path="url(#p4c964954a1)" style="fill: #0000ff"/>
   </g>
   <g id="patch_330">
    <path d="M 479.561806 29.34 
L 554.457439 29.34 
L 554.457439 16.74 
L 479.561806 16.74 
z
" clip-path="url(#p4c964954a1)" style="fill: #0000ff"/>
   </g>
   <g id="patch_331">
    <path d="M 479.561806 29.34 
L 554.457439 29.34 
L 554.457439 16.74 
L 479.561806 16.74 
z
" clip-path="url(#p4c964954a1)" style="fill: #0000ff"/>
   </g>
   <g id="patch_332">
    <path d="M 479.561806 29.34 
L 554.457439 29.34 
L 554.457439 16.74 
L 479.561806 16.74 
z
" clip-path="url(#p4c964954a1)" style="fill: #0000ff"/>
   </g>
   <g id="patch_333">
    <path d="M 479.561806 29.34 
L 554.457439 29.34 
L 554.457439 16.74 
L 479.561806 16.74 
z
" clip-path="url(#p4c964954a1)" style="fill: #0000ff"/>
   </g>
   <g id="patch_334">
    <path d="M 479.561806 29.34 
L 554.457439 29.34 
L 554.457439 16.74 
L 479.561806 16.74 
z
" clip-path="url(#p4c964954a1)" style="fill: #0000ff"/>
   </g>
   <g id="patch_335">
    <path d="M 564.737232 23.5125 
L 565.471503 23.5125 
L 565.471503 22.5675 
L 564.737232 22.5675 
z
" clip-path="url(#p4c964954a1)" style="fill: #0000ff"/>
   </g>
   <g id="patch_336">
    <path d="M 566.205774 29.34 
L 669.003701 29.34 
L 669.003701 16.74 
L 566.205774 16.74 
z
" clip-path="url(#p4c964954a1)" style="fill: #0000ff"/>
   </g>
   <g id="patch_337">
    <path d="M 566.205774 29.34 
L 671.206514 29.34 
L 671.206514 16.74 
L 566.205774 16.74 
z
" clip-path="url(#p4c964954a1)" style="fill: #0000ff"/>
   </g>
   <g id="patch_338">
    <path d="M 566.205774 29.34 
L 669.003701 29.34 
L 669.003701 16.74 
L 566.205774 16.74 
z
" clip-path="url(#p4c964954a1)" style="fill: #0000ff"/>
   </g>
   <g id="patch_339">
    <path d="M 566.205774 29.34 
L 671.206514 29.34 
L 671.206514 16.74 
L 566.205774 16.74 
z
" clip-path="url(#p4c964954a1)" style="fill: #0000ff"/>
   </g>
   <g id="patch_340">
    <path d="M 566.205774 29.34 
L 664.598075 29.34 
L 664.598075 16.74 
L 566.205774 16.74 
z
" clip-path="url(#p4c964954a1)" style="fill: #0000ff"/>
   </g>
   <g id="patch_341">
    <path d="M 566.205774 29.34 
L 654.318283 29.34 
L 654.318283 16.74 
L 566.205774 16.74 
z
" clip-path="url(#p4c964954a1)" style="fill: #0000ff"/>
   </g>
   <g id="patch_342">
    <path d="M 566.940044 29.34 
L 669.003701 29.34 
L 669.003701 16.74 
L 566.940044 16.74 
z
" clip-path="url(#p4c964954a1)" style="fill: #0000ff"/>
   </g>
   <g id="patch_343">
    <path d="M 566.940044 29.34 
L 669.003701 29.34 
L 669.003701 16.74 
L 566.940044 16.74 
z
" clip-path="url(#p4c964954a1)" style="fill: #0000ff"/>
   </g>
   <g id="patch_344">
    <path d="M 566.940044 29.34 
L 669.003701 29.34 
L 669.003701 16.74 
L 566.940044 16.74 
z
" clip-path="url(#p4c964954a1)" style="fill: #0000ff"/>
   </g>
   <g id="patch_345">
    <path d="M 566.940044 29.34 
L 669.003701 29.34 
L 669.003701 16.74 
L 566.940044 16.74 
z
" clip-path="url(#p4c964954a1)" style="fill: #0000ff"/>
   </g>
   <g id="patch_346">
    <path d="M 583.094004 29.34 
L 669.003701 29.34 
L 669.003701 16.74 
L 583.094004 16.74 
z
" clip-path="url(#p4c964954a1)" style="fill: #0000ff"/>
   </g>
   <g id="patch_347">
    <path d="M 671.940785 23.5125 
L 678.549223 23.5125 
L 678.549223 22.5675 
L 671.940785 22.5675 
z
" clip-path="url(#p4c964954a1)" style="fill: #0000ff"/>
   </g>
   <g id="patch_348">
    <path d="M 679.283494 29.34 
L 816.592154 29.34 
L 816.592154 16.74 
L 679.283494 16.74 
z
" clip-path="url(#p4c964954a1)" style="fill: #0000ff"/>
   </g>
   <g id="patch_349">
    <path d="M 680.752036 29.34 
L 811.452258 29.34 
L 811.452258 16.74 
L 680.752036 16.74 
z
" clip-path="url(#p4c964954a1)" style="fill: #0000ff"/>
   </g>
   <g id="patch_350">
    <path d="M 681.486306 29.34 
L 810.717987 29.34 
L 810.717987 16.74 
L 681.486306 16.74 
z
" clip-path="url(#p4c964954a1)" style="fill: #0000ff"/>
   </g>
   <g id="patch_351">
    <path d="M 681.486306 29.34 
L 810.717987 29.34 
L 810.717987 16.74 
L 681.486306 16.74 
z
" clip-path="url(#p4c964954a1)" style="fill: #0000ff"/>
   </g>
   <g id="patch_352">
    <path d="M 681.486306 29.34 
L 810.717987 29.34 
L 810.717987 16.74 
L 681.486306 16.74 
z
" clip-path="url(#p4c964954a1)" style="fill: #0000ff"/>
   </g>
   <g id="patch_353">
    <path d="M 681.486306 29.34 
L 811.452258 29.34 
L 811.452258 16.74 
L 681.486306 16.74 
z
" clip-path="url(#p4c964954a1)" style="fill: #0000ff"/>
   </g>
   <g id="patch_354">
    <path d="M 681.486306 29.34 
L 811.452258 29.34 
L 811.452258 16.74 
L 681.486306 16.74 
z
" clip-path="url(#p4c964954a1)" style="fill: #0000ff"/>
   </g>
   <g id="patch_355">
    <path d="M 681.486306 29.34 
L 811.452258 29.34 
L 811.452258 16.74 
L 681.486306 16.74 
z
" clip-path="url(#p4c964954a1)" style="fill: #0000ff"/>
   </g>
   <g id="patch_356">
    <path d="M 681.486306 29.34 
L 811.452258 29.34 
L 811.452258 16.74 
L 681.486306 16.74 
z
" clip-path="url(#p4c964954a1)" style="fill: #0000ff"/>
   </g>
   <g id="patch_357">
    <path d="M 682.220577 29.34 
L 810.717987 29.34 
L 810.717987 16.74 
L 682.220577 16.74 
z
" clip-path="url(#p4c964954a1)" style="fill: #0000ff"/>
   </g>
   <g id="patch_358">
    <path d="M 682.220577 29.34 
L 809.983716 29.34 
L 809.983716 16.74 
L 682.220577 16.74 
z
" clip-path="url(#p4c964954a1)" style="fill: #0000ff"/>
   </g>
   <g id="patch_359">
    <path d="M 737.290896 29.34 
L 784.284234 29.34 
L 784.284234 16.74 
L 737.290896 16.74 
z
" clip-path="url(#p4c964954a1)" style="fill: #0000ff"/>
   </g>
   <g id="patch_360">
    <path d="M 738.759437 29.34 
L 807.780903 29.34 
L 807.780903 16.74 
L 738.759437 16.74 
z
" clip-path="url(#p4c964954a1)" style="fill: #0000ff"/>
   </g>
   <g id="patch_361">
    <path d="M 739.493708 29.34 
L 779.144338 29.34 
L 779.144338 16.74 
L 739.493708 16.74 
z
" clip-path="url(#p4c964954a1)" style="fill: #0000ff"/>
   </g>
   <g id="patch_362">
    <path d="M 739.493708 29.34 
L 807.780903 29.34 
L 807.780903 16.74 
L 739.493708 16.74 
z
" clip-path="url(#p4c964954a1)" style="fill: #0000ff"/>
   </g>
   <g id="patch_363">
    <path d="M 817.326425 23.5125 
L 819.529238 23.5125 
L 819.529238 22.5675 
L 817.326425 22.5675 
z
" clip-path="url(#p4c964954a1)" style="fill: #0000ff"/>
   </g>
   <g id="patch_364">
    <path d="M 820.263509 29.34 
L 925.264249 29.34 
L 925.264249 16.74 
L 820.263509 16.74 
z
" clip-path="url(#p4c964954a1)" style="fill: #0000ff"/>
   </g>
   <g id="patch_365">
    <path d="M 820.263509 29.34 
L 925.99852 29.34 
L 925.99852 16.74 
L 820.263509 16.74 
z
" clip-path="url(#p4c964954a1)" style="fill: #0000ff"/>
   </g>
   <g id="patch_366">
    <path d="M 820.263509 29.34 
L 925.264249 29.34 
L 925.264249 16.74 
L 820.263509 16.74 
z
" clip-path="url(#p4c964954a1)" style="fill: #0000ff"/>
   </g>
   <g id="patch_367">
    <path d="M 820.263509 29.34 
L 925.264249 29.34 
L 925.264249 16.74 
L 820.263509 16.74 
z
" clip-path="url(#p4c964954a1)" style="fill: #0000ff"/>
   </g>
   <g id="patch_368">
    <path d="M 820.263509 29.34 
L 920.858623 29.34 
L 920.858623 16.74 
L 820.263509 16.74 
z
" clip-path="url(#p4c964954a1)" style="fill: #0000ff"/>
   </g>
   <g id="patch_369">
    <path d="M 820.263509 29.34 
L 924.529978 29.34 
L 924.529978 16.74 
L 820.263509 16.74 
z
" clip-path="url(#p4c964954a1)" style="fill: #0000ff"/>
   </g>
   <g id="patch_370">
    <path d="M 821.73205 29.34 
L 925.99852 29.34 
L 925.99852 16.74 
L 821.73205 16.74 
z
" clip-path="url(#p4c964954a1)" style="fill: #0000ff"/>
   </g>
   <g id="patch_371">
    <path d="M 821.73205 29.34 
L 925.264249 29.34 
L 925.264249 16.74 
L 821.73205 16.74 
z
" clip-path="url(#p4c964954a1)" style="fill: #0000ff"/>
   </g>
   <g id="patch_372">
    <path d="M 821.73205 29.34 
L 925.264249 29.34 
L 925.264249 16.74 
L 821.73205 16.74 
z
" clip-path="url(#p4c964954a1)" style="fill: #0000ff"/>
   </g>
   <g id="patch_373">
    <path d="M 821.73205 29.34 
L 925.264249 29.34 
L 925.264249 16.74 
L 821.73205 16.74 
z
" clip-path="url(#p4c964954a1)" style="fill: #0000ff"/>
   </g>
   <g id="patch_374">
    <path d="M 840.823094 29.34 
L 925.264249 29.34 
L 925.264249 16.74 
L 840.823094 16.74 
z
" clip-path="url(#p4c964954a1)" style="fill: #0000ff"/>
   </g>
   <g id="patch_375">
    <path d="M 842.291636 29.34 
L 924.529978 29.34 
L 924.529978 16.74 
L 842.291636 16.74 
z
" clip-path="url(#p4c964954a1)" style="fill: #0000ff"/>
   </g>
   <g id="patch_376">
    <path d="M 845.96299 29.34 
L 920.858623 29.34 
L 920.858623 16.74 
L 845.96299 16.74 
z
" clip-path="url(#p4c964954a1)" style="fill: #0000ff"/>
   </g>
   <g id="patch_377">
    <path d="M 849.634345 29.34 
L 925.264249 29.34 
L 925.264249 16.74 
L 849.634345 16.74 
z
" clip-path="url(#p4c964954a1)" style="fill: #0000ff"/>
   </g>
   <g id="patch_378">
    <path d="M 853.305699 29.34 
L 920.858623 29.34 
L 920.858623 16.74 
L 853.305699 16.74 
z
" clip-path="url(#p4c964954a1)" style="fill: #0000ff"/>
   </g>
   <g id="patch_379">
    <path d="M 854.774241 29.34 
L 925.264249 29.34 
L 925.264249 16.74 
L 854.774241 16.74 
z
" clip-path="url(#p4c964954a1)" style="fill: #0000ff"/>
   </g>
   <g id="patch_380">
    <path d="M 854.774241 29.34 
L 925.264249 29.34 
L 925.264249 16.74 
L 854.774241 16.74 
z
" clip-path="url(#p4c964954a1)" style="fill: #0000ff"/>
   </g>
   <g id="patch_381">
    <path d="M 855.508512 29.34 
L 925.264249 29.34 
L 925.264249 16.74 
L 855.508512 16.74 
z
" clip-path="url(#p4c964954a1)" style="fill: #0000ff"/>
   </g>
   <g id="patch_382">
    <path d="M 871.662472 29.34 
L 920.858623 29.34 
L 920.858623 16.74 
L 871.662472 16.74 
z
" clip-path="url(#p4c964954a1)" style="fill: #0000ff"/>
   </g>
   <g id="patch_383">
    <path d="M 872.396743 29.34 
L 931.872687 29.34 
L 931.872687 16.74 
L 872.396743 16.74 
z
" clip-path="url(#p4c964954a1)" style="fill: #0000ff"/>
   </g>
   <g id="patch_384">
    <path d="M 872.396743 29.34 
L 920.858623 29.34 
L 920.858623 16.74 
L 872.396743 16.74 
z
" clip-path="url(#p4c964954a1)" style="fill: #0000ff"/>
   </g>
   <g id="patch_385">
    <path d="M 875.333827 29.34 
L 920.858623 29.34 
L 920.858623 16.74 
L 875.333827 16.74 
z
" clip-path="url(#p4c964954a1)" style="fill: #0000ff"/>
   </g>
   <g id="patch_386">
    <path d="M 878.27091 29.34 
L 920.124352 29.34 
L 920.124352 16.74 
L 878.27091 16.74 
z
" clip-path="url(#p4c964954a1)" style="fill: #0000ff"/>
   </g>
   <g id="patch_387">
    <path d="M 879.739452 29.34 
L 920.858623 29.34 
L 920.858623 16.74 
L 879.739452 16.74 
z
" clip-path="url(#p4c964954a1)" style="fill: #0000ff"/>
   </g>
   <g id="patch_388">
    <path d="M 879.739452 29.34 
L 925.99852 29.34 
L 925.99852 16.74 
L 879.739452 16.74 
z
" clip-path="url(#p4c964954a1)" style="fill: #0000ff"/>
   </g>
   <g id="patch_389">
    <path d="M 892.956329 29.34 
L 920.858623 29.34 
L 920.858623 16.74 
L 892.956329 16.74 
z
" clip-path="url(#p4c964954a1)" style="fill: #0000ff"/>
   </g>
   <g id="patch_390">
    <path d="M 892.956329 29.34 
L 920.858623 29.34 
L 920.858623 16.74 
L 892.956329 16.74 
z
" clip-path="url(#p4c964954a1)" style="fill: #0000ff"/>
   </g>
   <g id="patch_391">
    <path d="M 892.956329 29.34 
L 920.124352 29.34 
L 920.124352 16.74 
L 892.956329 16.74 
z
" clip-path="url(#p4c964954a1)" style="fill: #0000ff"/>
   </g>
   <g id="patch_392">
    <path d="M 903.236121 29.34 
L 925.264249 29.34 
L 925.264249 16.74 
L 903.236121 16.74 
z
" clip-path="url(#p4c964954a1)" style="fill: #0000ff"/>
   </g>
   <g id="patch_393">
    <path d="M 903.236121 29.34 
L 921.592894 29.34 
L 921.592894 16.74 
L 903.236121 16.74 
z
" clip-path="url(#p4c964954a1)" style="fill: #0000ff"/>
   </g>
   <g id="patch_394">
    <path d="M 932.606958 23.5125 
L 994.285714 23.5125 
L 994.285714 22.5675 
L 932.606958 22.5675 
z
" clip-path="url(#p4c964954a1)" style="fill: #0000ff"/>
   </g>
   <g id="matplotlib.axis_1">
    <g id="xtick_1">
     <g id="line2d_1">
      <defs>
       <path id="me0ced78d8d" d="M 0 0 
L 0 3.5 
" style="stroke: #000000; stroke-width: 0.8"/>
      </defs>
      <g>
       <use xlink:href="#me0ced78d8d" x="290.119911" y="96.12" style="stroke: #000000; stroke-width: 0.8"/>
      </g>
     </g>
     <g id="text_1">
      <!-- 200 -->
      <g transform="translate(280.576161 110.718438) scale(0.1 -0.1)">
       <defs>
        <path id="DejaVuSans-32" d="M 1228 531 
L 3431 531 
L 3431 0 
L 469 0 
L 469 531 
Q 828 903 1448 1529 
Q 2069 2156 2228 2338 
Q 2531 2678 2651 2914 
Q 2772 3150 2772 3378 
Q 2772 3750 2511 3984 
Q 2250 4219 1831 4219 
Q 1534 4219 1204 4116 
Q 875 4013 500 3803 
L 500 4441 
Q 881 4594 1212 4672 
Q 1544 4750 1819 4750 
Q 2544 4750 2975 4387 
Q 3406 4025 3406 3419 
Q 3406 3131 3298 2873 
Q 3191 2616 2906 2266 
Q 2828 2175 2409 1742 
Q 1991 1309 1228 531 
z
" transform="scale(0.015625)"/>
        <path id="DejaVuSans-30" d="M 2034 4250 
Q 1547 4250 1301 3770 
Q 1056 3291 1056 2328 
Q 1056 1369 1301 889 
Q 1547 409 2034 409 
Q 2525 409 2770 889 
Q 3016 1369 3016 2328 
Q 3016 3291 2770 3770 
Q 2525 4250 2034 4250 
z
M 2034 4750 
Q 2819 4750 3233 4129 
Q 3647 3509 3647 2328 
Q 3647 1150 3233 529 
Q 2819 -91 2034 -91 
Q 1250 -91 836 529 
Q 422 1150 422 2328 
Q 422 3509 836 4129 
Q 1250 4750 2034 4750 
z
" transform="scale(0.015625)"/>
       </defs>
       <use xlink:href="#DejaVuSans-32"/>
       <use xlink:href="#DejaVuSans-30" x="63.623047"/>
       <use xlink:href="#DejaVuSans-30" x="127.246094"/>
      </g>
     </g>
    </g>
    <g id="xtick_2">
     <g id="line2d_2">
      <g>
       <use xlink:href="#me0ced78d8d" x="436.974093" y="96.12" style="stroke: #000000; stroke-width: 0.8"/>
      </g>
     </g>
     <g id="text_2">
      <!-- 400 -->
      <g transform="translate(427.430343 110.718438) scale(0.1 -0.1)">
       <defs>
        <path id="DejaVuSans-34" d="M 2419 4116 
L 825 1625 
L 2419 1625 
L 2419 4116 
z
M 2253 4666 
L 3047 4666 
L 3047 1625 
L 3713 1625 
L 3713 1100 
L 3047 1100 
L 3047 0 
L 2419 0 
L 2419 1100 
L 313 1100 
L 313 1709 
L 2253 4666 
z
" transform="scale(0.015625)"/>
       </defs>
       <use xlink:href="#DejaVuSans-34"/>
       <use xlink:href="#DejaVuSans-30" x="63.623047"/>
       <use xlink:href="#DejaVuSans-30" x="127.246094"/>
      </g>
     </g>
    </g>
    <g id="xtick_3">
     <g id="line2d_3">
      <g>
       <use xlink:href="#me0ced78d8d" x="583.828275" y="96.12" style="stroke: #000000; stroke-width: 0.8"/>
      </g>
     </g>
     <g id="text_3">
      <!-- 600 -->
      <g transform="translate(574.284525 110.718438) scale(0.1 -0.1)">
       <defs>
        <path id="DejaVuSans-36" d="M 2113 2584 
Q 1688 2584 1439 2293 
Q 1191 2003 1191 1497 
Q 1191 994 1439 701 
Q 1688 409 2113 409 
Q 2538 409 2786 701 
Q 3034 994 3034 1497 
Q 3034 2003 2786 2293 
Q 2538 2584 2113 2584 
z
M 3366 4563 
L 3366 3988 
Q 3128 4100 2886 4159 
Q 2644 4219 2406 4219 
Q 1781 4219 1451 3797 
Q 1122 3375 1075 2522 
Q 1259 2794 1537 2939 
Q 1816 3084 2150 3084 
Q 2853 3084 3261 2657 
Q 3669 2231 3669 1497 
Q 3669 778 3244 343 
Q 2819 -91 2113 -91 
Q 1303 -91 875 529 
Q 447 1150 447 2328 
Q 447 3434 972 4092 
Q 1497 4750 2381 4750 
Q 2619 4750 2861 4703 
Q 3103 4656 3366 4563 
z
" transform="scale(0.015625)"/>
       </defs>
       <use xlink:href="#DejaVuSans-36"/>
       <use xlink:href="#DejaVuSans-30" x="63.623047"/>
       <use xlink:href="#DejaVuSans-30" x="127.246094"/>
      </g>
     </g>
    </g>
    <g id="xtick_4">
     <g id="line2d_4">
      <g>
       <use xlink:href="#me0ced78d8d" x="730.682457" y="96.12" style="stroke: #000000; stroke-width: 0.8"/>
      </g>
     </g>
     <g id="text_4">
      <!-- 800 -->
      <g transform="translate(721.138707 110.718438) scale(0.1 -0.1)">
       <defs>
        <path id="DejaVuSans-38" d="M 2034 2216 
Q 1584 2216 1326 1975 
Q 1069 1734 1069 1313 
Q 1069 891 1326 650 
Q 1584 409 2034 409 
Q 2484 409 2743 651 
Q 3003 894 3003 1313 
Q 3003 1734 2745 1975 
Q 2488 2216 2034 2216 
z
M 1403 2484 
Q 997 2584 770 2862 
Q 544 3141 544 3541 
Q 544 4100 942 4425 
Q 1341 4750 2034 4750 
Q 2731 4750 3128 4425 
Q 3525 4100 3525 3541 
Q 3525 3141 3298 2862 
Q 3072 2584 2669 2484 
Q 3125 2378 3379 2068 
Q 3634 1759 3634 1313 
Q 3634 634 3220 271 
Q 2806 -91 2034 -91 
Q 1263 -91 848 271 
Q 434 634 434 1313 
Q 434 1759 690 2068 
Q 947 2378 1403 2484 
z
M 1172 3481 
Q 1172 3119 1398 2916 
Q 1625 2713 2034 2713 
Q 2441 2713 2670 2916 
Q 2900 3119 2900 3481 
Q 2900 3844 2670 4047 
Q 2441 4250 2034 4250 
Q 1625 4250 1398 4047 
Q 1172 3844 1172 3481 
z
" transform="scale(0.015625)"/>
       </defs>
       <use xlink:href="#DejaVuSans-38"/>
       <use xlink:href="#DejaVuSans-30" x="63.623047"/>
       <use xlink:href="#DejaVuSans-30" x="127.246094"/>
      </g>
     </g>
    </g>
    <g id="xtick_5">
     <g id="line2d_5">
      <g>
       <use xlink:href="#me0ced78d8d" x="877.53664" y="96.12" style="stroke: #000000; stroke-width: 0.8"/>
      </g>
     </g>
     <g id="text_5">
      <!-- 1000 -->
      <g transform="translate(864.81164 110.718438) scale(0.1 -0.1)">
       <defs>
        <path id="DejaVuSans-31" d="M 794 531 
L 1825 531 
L 1825 4091 
L 703 3866 
L 703 4441 
L 1819 4666 
L 2450 4666 
L 2450 531 
L 3481 531 
L 3481 0 
L 794 0 
L 794 531 
z
" transform="scale(0.015625)"/>
       </defs>
       <use xlink:href="#DejaVuSans-31"/>
       <use xlink:href="#DejaVuSans-30" x="63.623047"/>
       <use xlink:href="#DejaVuSans-30" x="127.246094"/>
       <use xlink:href="#DejaVuSans-30" x="190.869141"/>
      </g>
     </g>
    </g>
    <g id="xtick_6">
     <g id="line2d_6">
      <g>
       <use xlink:href="#me0ced78d8d" x="1024.390822" y="96.12" style="stroke: #000000; stroke-width: 0.8"/>
      </g>
     </g>
     <g id="text_6">
      <!-- 1200 -->
      <g transform="translate(1011.665822 110.718438) scale(0.1 -0.1)">
       <use xlink:href="#DejaVuSans-31"/>
       <use xlink:href="#DejaVuSans-32" x="63.623047"/>
       <use xlink:href="#DejaVuSans-30" x="127.246094"/>
       <use xlink:href="#DejaVuSans-30" x="190.869141"/>
      </g>
     </g>
    </g>
    <g id="text_7">
     <!-- Residual -->
     <g transform="translate(569.284375 124.396563) scale(0.1 -0.1)">
      <defs>
       <path id="DejaVuSans-52" d="M 2841 2188 
Q 3044 2119 3236 1894 
Q 3428 1669 3622 1275 
L 4263 0 
L 3584 0 
L 2988 1197 
Q 2756 1666 2539 1819 
Q 2322 1972 1947 1972 
L 1259 1972 
L 1259 0 
L 628 0 
L 628 4666 
L 2053 4666 
Q 2853 4666 3247 4331 
Q 3641 3997 3641 3322 
Q 3641 2881 3436 2590 
Q 3231 2300 2841 2188 
z
M 1259 4147 
L 1259 2491 
L 2053 2491 
Q 2509 2491 2742 2702 
Q 2975 2913 2975 3322 
Q 2975 3731 2742 3939 
Q 2509 4147 2053 4147 
L 1259 4147 
z
" transform="scale(0.015625)"/>
       <path id="DejaVuSans-65" d="M 3597 1894 
L 3597 1613 
L 953 1613 
Q 991 1019 1311 708 
Q 1631 397 2203 397 
Q 2534 397 2845 478 
Q 3156 559 3463 722 
L 3463 178 
Q 3153 47 2828 -22 
Q 2503 -91 2169 -91 
Q 1331 -91 842 396 
Q 353 884 353 1716 
Q 353 2575 817 3079 
Q 1281 3584 2069 3584 
Q 2775 3584 3186 3129 
Q 3597 2675 3597 1894 
z
M 3022 2063 
Q 3016 2534 2758 2815 
Q 2500 3097 2075 3097 
Q 1594 3097 1305 2825 
Q 1016 2553 972 2059 
L 3022 2063 
z
" transform="scale(0.015625)"/>
       <path id="DejaVuSans-73" d="M 2834 3397 
L 2834 2853 
Q 2591 2978 2328 3040 
Q 2066 3103 1784 3103 
Q 1356 3103 1142 2972 
Q 928 2841 928 2578 
Q 928 2378 1081 2264 
Q 1234 2150 1697 2047 
L 1894 2003 
Q 2506 1872 2764 1633 
Q 3022 1394 3022 966 
Q 3022 478 2636 193 
Q 2250 -91 1575 -91 
Q 1294 -91 989 -36 
Q 684 19 347 128 
L 347 722 
Q 666 556 975 473 
Q 1284 391 1588 391 
Q 1994 391 2212 530 
Q 2431 669 2431 922 
Q 2431 1156 2273 1281 
Q 2116 1406 1581 1522 
L 1381 1569 
Q 847 1681 609 1914 
Q 372 2147 372 2553 
Q 372 3047 722 3315 
Q 1072 3584 1716 3584 
Q 2034 3584 2315 3537 
Q 2597 3491 2834 3397 
z
" transform="scale(0.015625)"/>
       <path id="DejaVuSans-69" d="M 603 3500 
L 1178 3500 
L 1178 0 
L 603 0 
L 603 3500 
z
M 603 4863 
L 1178 4863 
L 1178 4134 
L 603 4134 
L 603 4863 
z
" transform="scale(0.015625)"/>
       <path id="DejaVuSans-64" d="M 2906 2969 
L 2906 4863 
L 3481 4863 
L 3481 0 
L 2906 0 
L 2906 525 
Q 2725 213 2448 61 
Q 2172 -91 1784 -91 
Q 1150 -91 751 415 
Q 353 922 353 1747 
Q 353 2572 751 3078 
Q 1150 3584 1784 3584 
Q 2172 3584 2448 3432 
Q 2725 3281 2906 2969 
z
M 947 1747 
Q 947 1113 1208 752 
Q 1469 391 1925 391 
Q 2381 391 2643 752 
Q 2906 1113 2906 1747 
Q 2906 2381 2643 2742 
Q 2381 3103 1925 3103 
Q 1469 3103 1208 2742 
Q 947 2381 947 1747 
z
" transform="scale(0.015625)"/>
       <path id="DejaVuSans-75" d="M 544 1381 
L 544 3500 
L 1119 3500 
L 1119 1403 
Q 1119 906 1312 657 
Q 1506 409 1894 409 
Q 2359 409 2629 706 
Q 2900 1003 2900 1516 
L 2900 3500 
L 3475 3500 
L 3475 0 
L 2900 0 
L 2900 538 
Q 2691 219 2414 64 
Q 2138 -91 1772 -91 
Q 1169 -91 856 284 
Q 544 659 544 1381 
z
M 1991 3584 
L 1991 3584 
z
" transform="scale(0.015625)"/>
       <path id="DejaVuSans-61" d="M 2194 1759 
Q 1497 1759 1228 1600 
Q 959 1441 959 1056 
Q 959 750 1161 570 
Q 1363 391 1709 391 
Q 2188 391 2477 730 
Q 2766 1069 2766 1631 
L 2766 1759 
L 2194 1759 
z
M 3341 1997 
L 3341 0 
L 2766 0 
L 2766 531 
Q 2569 213 2275 61 
Q 1981 -91 1556 -91 
Q 1019 -91 701 211 
Q 384 513 384 1019 
Q 384 1609 779 1909 
Q 1175 2209 1959 2209 
L 2766 2209 
L 2766 2266 
Q 2766 2663 2505 2880 
Q 2244 3097 1772 3097 
Q 1472 3097 1187 3025 
Q 903 2953 641 2809 
L 641 3341 
Q 956 3463 1253 3523 
Q 1550 3584 1831 3584 
Q 2591 3584 2966 3190 
Q 3341 2797 3341 1997 
z
" transform="scale(0.015625)"/>
       <path id="DejaVuSans-6c" d="M 603 4863 
L 1178 4863 
L 1178 0 
L 603 0 
L 603 4863 
z
" transform="scale(0.015625)"/>
      </defs>
      <use xlink:href="#DejaVuSans-52"/>
      <use xlink:href="#DejaVuSans-65" x="64.982422"/>
      <use xlink:href="#DejaVuSans-73" x="126.505859"/>
      <use xlink:href="#DejaVuSans-69" x="178.605469"/>
      <use xlink:href="#DejaVuSans-64" x="206.388672"/>
      <use xlink:href="#DejaVuSans-75" x="269.865234"/>
      <use xlink:href="#DejaVuSans-61" x="333.244141"/>
      <use xlink:href="#DejaVuSans-6c" x="394.523438"/>
     </g>
    </g>
   </g>
   <g id="matplotlib.axis_2">
    <g id="ytick_1">
     <g id="line2d_7">
      <defs>
       <path id="m0395564879" d="M 0 0 
L -3.5 0 
" style="stroke: #000000; stroke-width: 0.8"/>
      </defs>
      <g>
       <use xlink:href="#m0395564879" x="144" y="86.04" style="stroke: #000000; stroke-width: 0.8"/>
      </g>
     </g>
     <g id="text_8">
      <!-- 8.A.105.1.1 -->
      <g transform="translate(79.446875 89.839219) scale(0.1 -0.1)">
       <defs>
        <path id="DejaVuSans-2e" d="M 684 794 
L 1344 794 
L 1344 0 
L 684 0 
L 684 794 
z
" transform="scale(0.015625)"/>
        <path id="DejaVuSans-41" d="M 2188 4044 
L 1331 1722 
L 3047 1722 
L 2188 4044 
z
M 1831 4666 
L 2547 4666 
L 4325 0 
L 3669 0 
L 3244 1197 
L 1141 1197 
L 716 0 
L 50 0 
L 1831 4666 
z
" transform="scale(0.015625)"/>
        <path id="DejaVuSans-35" d="M 691 4666 
L 3169 4666 
L 3169 4134 
L 1269 4134 
L 1269 2991 
Q 1406 3038 1543 3061 
Q 1681 3084 1819 3084 
Q 2600 3084 3056 2656 
Q 3513 2228 3513 1497 
Q 3513 744 3044 326 
Q 2575 -91 1722 -91 
Q 1428 -91 1123 -41 
Q 819 9 494 109 
L 494 744 
Q 775 591 1075 516 
Q 1375 441 1709 441 
Q 2250 441 2565 725 
Q 2881 1009 2881 1497 
Q 2881 1984 2565 2268 
Q 2250 2553 1709 2553 
Q 1456 2553 1204 2497 
Q 953 2441 691 2322 
L 691 4666 
z
" transform="scale(0.015625)"/>
       </defs>
       <use xlink:href="#DejaVuSans-38"/>
       <use xlink:href="#DejaVuSans-2e" x="63.623047"/>
       <use xlink:href="#DejaVuSans-41" x="95.410156"/>
       <use xlink:href="#DejaVuSans-2e" x="162.068359"/>
       <use xlink:href="#DejaVuSans-31" x="193.855469"/>
       <use xlink:href="#DejaVuSans-30" x="257.478516"/>
       <use xlink:href="#DejaVuSans-35" x="321.101562"/>
       <use xlink:href="#DejaVuSans-2e" x="384.724609"/>
       <use xlink:href="#DejaVuSans-31" x="416.511719"/>
       <use xlink:href="#DejaVuSans-2e" x="480.134766"/>
       <use xlink:href="#DejaVuSans-31" x="511.921875"/>
      </g>
     </g>
    </g>
    <g id="ytick_2">
     <g id="line2d_8">
      <g>
       <use xlink:href="#m0395564879" x="144" y="54.54" style="stroke: #000000; stroke-width: 0.8"/>
      </g>
     </g>
     <g id="text_9">
      <!-- 8.A.105.1.2 -->
      <g transform="translate(79.446875 58.339219) scale(0.1 -0.1)">
       <use xlink:href="#DejaVuSans-38"/>
       <use xlink:href="#DejaVuSans-2e" x="63.623047"/>
       <use xlink:href="#DejaVuSans-41" x="95.410156"/>
       <use xlink:href="#DejaVuSans-2e" x="162.068359"/>
       <use xlink:href="#DejaVuSans-31" x="193.855469"/>
       <use xlink:href="#DejaVuSans-30" x="257.478516"/>
       <use xlink:href="#DejaVuSans-35" x="321.101562"/>
       <use xlink:href="#DejaVuSans-2e" x="384.724609"/>
       <use xlink:href="#DejaVuSans-31" x="416.511719"/>
       <use xlink:href="#DejaVuSans-2e" x="480.134766"/>
       <use xlink:href="#DejaVuSans-32" x="511.921875"/>
      </g>
     </g>
    </g>
    <g id="ytick_3">
     <g id="line2d_9">
      <g>
       <use xlink:href="#m0395564879" x="144" y="23.04" style="stroke: #000000; stroke-width: 0.8"/>
      </g>
     </g>
     <g id="text_10">
      <!-- 8.A.105.1.3 -->
      <g transform="translate(79.446875 26.839219) scale(0.1 -0.1)">
       <defs>
        <path id="DejaVuSans-33" d="M 2597 2516 
Q 3050 2419 3304 2112 
Q 3559 1806 3559 1356 
Q 3559 666 3084 287 
Q 2609 -91 1734 -91 
Q 1441 -91 1130 -33 
Q 819 25 488 141 
L 488 750 
Q 750 597 1062 519 
Q 1375 441 1716 441 
Q 2309 441 2620 675 
Q 2931 909 2931 1356 
Q 2931 1769 2642 2001 
Q 2353 2234 1838 2234 
L 1294 2234 
L 1294 2753 
L 1863 2753 
Q 2328 2753 2575 2939 
Q 2822 3125 2822 3475 
Q 2822 3834 2567 4026 
Q 2313 4219 1838 4219 
Q 1578 4219 1281 4162 
Q 984 4106 628 3988 
L 628 4550 
Q 988 4650 1302 4700 
Q 1616 4750 1894 4750 
Q 2613 4750 3031 4423 
Q 3450 4097 3450 3541 
Q 3450 3153 3228 2886 
Q 3006 2619 2597 2516 
z
" transform="scale(0.015625)"/>
       </defs>
       <use xlink:href="#DejaVuSans-38"/>
       <use xlink:href="#DejaVuSans-2e" x="63.623047"/>
       <use xlink:href="#DejaVuSans-41" x="95.410156"/>
       <use xlink:href="#DejaVuSans-2e" x="162.068359"/>
       <use xlink:href="#DejaVuSans-31" x="193.855469"/>
       <use xlink:href="#DejaVuSans-30" x="257.478516"/>
       <use xlink:href="#DejaVuSans-35" x="321.101562"/>
       <use xlink:href="#DejaVuSans-2e" x="384.724609"/>
       <use xlink:href="#DejaVuSans-31" x="416.511719"/>
       <use xlink:href="#DejaVuSans-2e" x="480.134766"/>
       <use xlink:href="#DejaVuSans-33" x="511.921875"/>
      </g>
     </g>
    </g>
   </g>
   <g id="patch_395">
    <path d="M 144 96.12 
L 144 12.96 
" style="fill: none; stroke: #000000; stroke-width: 0.8; stroke-linejoin: miter; stroke-linecap: square"/>
   </g>
   <g id="patch_396">
    <path d="M 1036.8 96.12 
L 1036.8 12.96 
" style="fill: none; stroke: #000000; stroke-width: 0.8; stroke-linejoin: miter; stroke-linecap: square"/>
   </g>
   <g id="patch_397">
    <path d="M 144 96.12 
L 1036.8 96.12 
" style="fill: none; stroke: #000000; stroke-width: 0.8; stroke-linejoin: miter; stroke-linecap: square"/>
   </g>
   <g id="patch_398">
    <path d="M 144 12.96 
L 1036.8 12.96 
" style="fill: none; stroke: #000000; stroke-width: 0.8; stroke-linejoin: miter; stroke-linecap: square"/>
   </g>
   <g id="text_11">
    <!-- 8.A.105 Summary -->
    <g transform="translate(536.415 6.96) scale(0.12 -0.12)">
     <defs>
      <path id="DejaVuSans-20" transform="scale(0.015625)"/>
      <path id="DejaVuSans-53" d="M 3425 4513 
L 3425 3897 
Q 3066 4069 2747 4153 
Q 2428 4238 2131 4238 
Q 1616 4238 1336 4038 
Q 1056 3838 1056 3469 
Q 1056 3159 1242 3001 
Q 1428 2844 1947 2747 
L 2328 2669 
Q 3034 2534 3370 2195 
Q 3706 1856 3706 1288 
Q 3706 609 3251 259 
Q 2797 -91 1919 -91 
Q 1588 -91 1214 -16 
Q 841 59 441 206 
L 441 856 
Q 825 641 1194 531 
Q 1563 422 1919 422 
Q 2459 422 2753 634 
Q 3047 847 3047 1241 
Q 3047 1584 2836 1778 
Q 2625 1972 2144 2069 
L 1759 2144 
Q 1053 2284 737 2584 
Q 422 2884 422 3419 
Q 422 4038 858 4394 
Q 1294 4750 2059 4750 
Q 2388 4750 2728 4690 
Q 3069 4631 3425 4513 
z
" transform="scale(0.015625)"/>
      <path id="DejaVuSans-6d" d="M 3328 2828 
Q 3544 3216 3844 3400 
Q 4144 3584 4550 3584 
Q 5097 3584 5394 3201 
Q 5691 2819 5691 2113 
L 5691 0 
L 5113 0 
L 5113 2094 
Q 5113 2597 4934 2840 
Q 4756 3084 4391 3084 
Q 3944 3084 3684 2787 
Q 3425 2491 3425 1978 
L 3425 0 
L 2847 0 
L 2847 2094 
Q 2847 2600 2669 2842 
Q 2491 3084 2119 3084 
Q 1678 3084 1418 2786 
Q 1159 2488 1159 1978 
L 1159 0 
L 581 0 
L 581 3500 
L 1159 3500 
L 1159 2956 
Q 1356 3278 1631 3431 
Q 1906 3584 2284 3584 
Q 2666 3584 2933 3390 
Q 3200 3197 3328 2828 
z
" transform="scale(0.015625)"/>
      <path id="DejaVuSans-72" d="M 2631 2963 
Q 2534 3019 2420 3045 
Q 2306 3072 2169 3072 
Q 1681 3072 1420 2755 
Q 1159 2438 1159 1844 
L 1159 0 
L 581 0 
L 581 3500 
L 1159 3500 
L 1159 2956 
Q 1341 3275 1631 3429 
Q 1922 3584 2338 3584 
Q 2397 3584 2469 3576 
Q 2541 3569 2628 3553 
L 2631 2963 
z
" transform="scale(0.015625)"/>
      <path id="DejaVuSans-79" d="M 2059 -325 
Q 1816 -950 1584 -1140 
Q 1353 -1331 966 -1331 
L 506 -1331 
L 506 -850 
L 844 -850 
Q 1081 -850 1212 -737 
Q 1344 -625 1503 -206 
L 1606 56 
L 191 3500 
L 800 3500 
L 1894 763 
L 2988 3500 
L 3597 3500 
L 2059 -325 
z
" transform="scale(0.015625)"/>
     </defs>
     <use xlink:href="#DejaVuSans-38"/>
     <use xlink:href="#DejaVuSans-2e" x="63.623047"/>
     <use xlink:href="#DejaVuSans-41" x="95.410156"/>
     <use xlink:href="#DejaVuSans-2e" x="162.068359"/>
     <use xlink:href="#DejaVuSans-31" x="193.855469"/>
     <use xlink:href="#DejaVuSans-30" x="257.478516"/>
     <use xlink:href="#DejaVuSans-35" x="321.101562"/>
     <use xlink:href="#DejaVuSans-20" x="384.724609"/>
     <use xlink:href="#DejaVuSans-53" x="416.511719"/>
     <use xlink:href="#DejaVuSans-75" x="479.988281"/>
     <use xlink:href="#DejaVuSans-6d" x="543.367188"/>
     <use xlink:href="#DejaVuSans-6d" x="640.779297"/>
     <use xlink:href="#DejaVuSans-61" x="738.191406"/>
     <use xlink:href="#DejaVuSans-72" x="799.470703"/>
     <use xlink:href="#DejaVuSans-79" x="840.583984"/>
    </g>
   </g>
  </g>
 </g>
 <defs>
  <clipPath id="p4c964954a1">
   <rect x="144" y="12.96" width="892.8" height="83.16"/>
  </clipPath>
 </defs>
</svg>
