<?xml version="1.0" encoding="utf-8" standalone="no"?>
<!DOCTYPE svg PUBLIC "-//W3C//DTD SVG 1.1//EN"
  "http://www.w3.org/Graphics/SVG/1.1/DTD/svg11.dtd">
<svg xmlns:xlink="http://www.w3.org/1999/xlink" width="1152pt" height="234pt" viewBox="0 0 1152 234" xmlns="http://www.w3.org/2000/svg" version="1.1">
 <metadata>
  <rdf:RDF xmlns:dc="http://purl.org/dc/elements/1.1/" xmlns:cc="http://creativecommons.org/ns#" xmlns:rdf="http://www.w3.org/1999/02/22-rdf-syntax-ns#">
   <cc:Work>
    <dc:type rdf:resource="http://purl.org/dc/dcmitype/StillImage"/>
    <dc:date>2024-10-24T21:19:14.992713</dc:date>
    <dc:format>image/svg+xml</dc:format>
    <dc:creator>
     <cc:Agent>
      <dc:title>Matplotlib v3.8.4, https://matplotlib.org/</dc:title>
     </cc:Agent>
    </dc:creator>
   </cc:Work>
  </rdf:RDF>
 </metadata>
 <defs>
  <style type="text/css">*{stroke-linejoin: round; stroke-linecap: butt}</style>
 </defs>
 <g id="figure_1">
  <g id="patch_1">
   <path d="M 0 234 
L 1152 234 
L 1152 0 
L 0 0 
z
" style="fill: #ffffff"/>
  </g>
  <g id="axes_1">
   <g id="patch_2">
    <path d="M 144 208.26 
L 1036.8 208.26 
L 1036.8 28.08 
L 144 28.08 
z
" style="fill: #ffffff"/>
   </g>
   <g id="patch_3">
    <path d="M 144 197.15625 
L 203.047619 197.15625 
L 203.047619 196.68375 
L 144 196.68375 
z
" clip-path="url(#pc067340651)" style="fill: #0000ff"/>
   </g>
   <g id="patch_4">
    <path d="M 204.734694 200.07 
L 793.52381 200.07 
L 793.52381 193.77 
L 204.734694 193.77 
z
" clip-path="url(#pc067340651)" style="fill: #0000ff"/>
   </g>
   <g id="patch_5">
    <path d="M 208.108844 200.07 
L 408.870748 200.07 
L 408.870748 193.77 
L 208.108844 193.77 
z
" clip-path="url(#pc067340651)" style="fill: #0000ff"/>
   </g>
   <g id="patch_6">
    <path d="M 224.979592 200.07 
L 403.809524 200.07 
L 403.809524 193.77 
L 224.979592 193.77 
z
" clip-path="url(#pc067340651)" style="fill: #0000ff"/>
   </g>
   <g id="patch_7">
    <path d="M 299.210884 200.07 
L 791.836735 200.07 
L 791.836735 193.77 
L 299.210884 193.77 
z
" clip-path="url(#pc067340651)" style="fill: #0000ff"/>
   </g>
   <g id="patch_8">
    <path d="M 302.585034 200.07 
L 574.204082 200.07 
L 574.204082 193.77 
L 302.585034 193.77 
z
" clip-path="url(#pc067340651)" style="fill: #0000ff"/>
   </g>
   <g id="patch_9">
    <path d="M 412.244898 200.07 
L 582.639456 200.07 
L 582.639456 193.77 
L 412.244898 193.77 
z
" clip-path="url(#pc067340651)" style="fill: #0000ff"/>
   </g>
   <g id="patch_10">
    <path d="M 412.244898 200.07 
L 579.265306 200.07 
L 579.265306 193.77 
L 412.244898 193.77 
z
" clip-path="url(#pc067340651)" style="fill: #0000ff"/>
   </g>
   <g id="patch_11">
    <path d="M 413.931973 200.07 
L 579.265306 200.07 
L 579.265306 193.77 
L 413.931973 193.77 
z
" clip-path="url(#pc067340651)" style="fill: #0000ff"/>
   </g>
   <g id="patch_12">
    <path d="M 456.108844 200.07 
L 781.714286 200.07 
L 781.714286 193.77 
L 456.108844 193.77 
z
" clip-path="url(#pc067340651)" style="fill: #0000ff"/>
   </g>
   <g id="patch_13">
    <path d="M 584.326531 200.07 
L 785.088435 200.07 
L 785.088435 193.77 
L 584.326531 193.77 
z
" clip-path="url(#pc067340651)" style="fill: #0000ff"/>
   </g>
   <g id="patch_14">
    <path d="M 601.197279 200.07 
L 785.088435 200.07 
L 785.088435 193.77 
L 601.197279 193.77 
z
" clip-path="url(#pc067340651)" style="fill: #0000ff"/>
   </g>
   <g id="patch_15">
    <path d="M 795.210884 197.15625 
L 810.394558 197.15625 
L 810.394558 196.68375 
L 795.210884 196.68375 
z
" clip-path="url(#pc067340651)" style="fill: #0000ff"/>
   </g>
   <g id="patch_16">
    <path d="M 144 181.40625 
L 179.428571 181.40625 
L 179.428571 180.93375 
L 144 180.93375 
z
" clip-path="url(#pc067340651)" style="fill: #0000ff"/>
   </g>
   <g id="patch_17">
    <path d="M 181.115646 184.32 
L 793.52381 184.32 
L 793.52381 178.02 
L 181.115646 178.02 
z
" clip-path="url(#pc067340651)" style="fill: #0000ff"/>
   </g>
   <g id="patch_18">
    <path d="M 184.489796 184.32 
L 408.870748 184.32 
L 408.870748 178.02 
L 184.489796 178.02 
z
" clip-path="url(#pc067340651)" style="fill: #0000ff"/>
   </g>
   <g id="patch_19">
    <path d="M 201.360544 184.32 
L 403.809524 184.32 
L 403.809524 178.02 
L 201.360544 178.02 
z
" clip-path="url(#pc067340651)" style="fill: #0000ff"/>
   </g>
   <g id="patch_20">
    <path d="M 292.462585 184.32 
L 795.210884 184.32 
L 795.210884 178.02 
L 292.462585 178.02 
z
" clip-path="url(#pc067340651)" style="fill: #0000ff"/>
   </g>
   <g id="patch_21">
    <path d="M 412.244898 184.32 
L 582.639456 184.32 
L 582.639456 178.02 
L 412.244898 178.02 
z
" clip-path="url(#pc067340651)" style="fill: #0000ff"/>
   </g>
   <g id="patch_22">
    <path d="M 412.244898 184.32 
L 579.265306 184.32 
L 579.265306 178.02 
L 412.244898 178.02 
z
" clip-path="url(#pc067340651)" style="fill: #0000ff"/>
   </g>
   <g id="patch_23">
    <path d="M 413.931973 184.32 
L 579.265306 184.32 
L 579.265306 178.02 
L 413.931973 178.02 
z
" clip-path="url(#pc067340651)" style="fill: #0000ff"/>
   </g>
   <g id="patch_24">
    <path d="M 456.108844 184.32 
L 781.714286 184.32 
L 781.714286 178.02 
L 456.108844 178.02 
z
" clip-path="url(#pc067340651)" style="fill: #0000ff"/>
   </g>
   <g id="patch_25">
    <path d="M 584.326531 184.32 
L 785.088435 184.32 
L 785.088435 178.02 
L 584.326531 178.02 
z
" clip-path="url(#pc067340651)" style="fill: #0000ff"/>
   </g>
   <g id="patch_26">
    <path d="M 621.442177 184.32 
L 783.401361 184.32 
L 783.401361 178.02 
L 621.442177 178.02 
z
" clip-path="url(#pc067340651)" style="fill: #0000ff"/>
   </g>
   <g id="patch_27">
    <path d="M 796.897959 181.40625 
L 908.244898 181.40625 
L 908.244898 180.93375 
L 796.897959 180.93375 
z
" clip-path="url(#pc067340651)" style="fill: #0000ff"/>
   </g>
   <g id="patch_28">
    <path d="M 144 165.65625 
L 169.306122 165.65625 
L 169.306122 165.18375 
L 144 165.18375 
z
" clip-path="url(#pc067340651)" style="fill: #0000ff"/>
   </g>
   <g id="patch_29">
    <path d="M 170.993197 168.57 
L 749.659864 168.57 
L 749.659864 162.27 
L 170.993197 162.27 
z
" clip-path="url(#pc067340651)" style="fill: #0000ff"/>
   </g>
   <g id="patch_30">
    <path d="M 368.380952 168.57 
L 533.714286 168.57 
L 533.714286 162.27 
L 368.380952 162.27 
z
" clip-path="url(#pc067340651)" style="fill: #0000ff"/>
   </g>
   <g id="patch_31">
    <path d="M 751.346939 165.65625 
L 958.857143 165.65625 
L 958.857143 165.18375 
L 751.346939 165.18375 
z
" clip-path="url(#pc067340651)" style="fill: #0000ff"/>
   </g>
   <g id="patch_32">
    <path d="M 144 149.90625 
L 177.741497 149.90625 
L 177.741497 149.43375 
L 144 149.43375 
z
" clip-path="url(#pc067340651)" style="fill: #0000ff"/>
   </g>
   <g id="patch_33">
    <path d="M 179.428571 152.82 
L 768.217687 152.82 
L 768.217687 146.52 
L 179.428571 146.52 
z
" clip-path="url(#pc067340651)" style="fill: #0000ff"/>
   </g>
   <g id="patch_34">
    <path d="M 182.802721 152.82 
L 383.564626 152.82 
L 383.564626 146.52 
L 182.802721 146.52 
z
" clip-path="url(#pc067340651)" style="fill: #0000ff"/>
   </g>
   <g id="patch_35">
    <path d="M 206.421769 152.82 
L 378.503401 152.82 
L 378.503401 146.52 
L 206.421769 146.52 
z
" clip-path="url(#pc067340651)" style="fill: #0000ff"/>
   </g>
   <g id="patch_36">
    <path d="M 332.952381 152.82 
L 548.897959 152.82 
L 548.897959 146.52 
L 332.952381 146.52 
z
" clip-path="url(#pc067340651)" style="fill: #0000ff"/>
   </g>
   <g id="patch_37">
    <path d="M 344.761905 152.82 
L 766.530612 152.82 
L 766.530612 146.52 
L 344.761905 146.52 
z
" clip-path="url(#pc067340651)" style="fill: #0000ff"/>
   </g>
   <g id="patch_38">
    <path d="M 386.938776 152.82 
L 557.333333 152.82 
L 557.333333 146.52 
L 386.938776 146.52 
z
" clip-path="url(#pc067340651)" style="fill: #0000ff"/>
   </g>
   <g id="patch_39">
    <path d="M 386.938776 152.82 
L 553.959184 152.82 
L 553.959184 146.52 
L 386.938776 146.52 
z
" clip-path="url(#pc067340651)" style="fill: #0000ff"/>
   </g>
   <g id="patch_40">
    <path d="M 388.62585 152.82 
L 553.959184 152.82 
L 553.959184 146.52 
L 388.62585 146.52 
z
" clip-path="url(#pc067340651)" style="fill: #0000ff"/>
   </g>
   <g id="patch_41">
    <path d="M 430.802721 152.82 
L 756.408163 152.82 
L 756.408163 146.52 
L 430.802721 146.52 
z
" clip-path="url(#pc067340651)" style="fill: #0000ff"/>
   </g>
   <g id="patch_42">
    <path d="M 559.020408 152.82 
L 759.782313 152.82 
L 759.782313 146.52 
L 559.020408 146.52 
z
" clip-path="url(#pc067340651)" style="fill: #0000ff"/>
   </g>
   <g id="patch_43">
    <path d="M 575.891156 152.82 
L 759.782313 152.82 
L 759.782313 146.52 
L 575.891156 146.52 
z
" clip-path="url(#pc067340651)" style="fill: #0000ff"/>
   </g>
   <g id="patch_44">
    <path d="M 769.904762 149.90625 
L 815.455782 149.90625 
L 815.455782 149.43375 
L 769.904762 149.43375 
z
" clip-path="url(#pc067340651)" style="fill: #0000ff"/>
   </g>
   <g id="patch_45">
    <path d="M 144 137.07 
L 353.197279 137.07 
L 353.197279 130.77 
L 144 130.77 
z
" clip-path="url(#pc067340651)" style="fill: #0000ff"/>
   </g>
   <g id="patch_46">
    <path d="M 145.687075 137.07 
L 317.768707 137.07 
L 317.768707 130.77 
L 145.687075 130.77 
z
" clip-path="url(#pc067340651)" style="fill: #0000ff"/>
   </g>
   <g id="patch_47">
    <path d="M 155.809524 137.07 
L 370.068027 137.07 
L 370.068027 130.77 
L 155.809524 130.77 
z
" clip-path="url(#pc067340651)" style="fill: #0000ff"/>
   </g>
   <g id="patch_48">
    <path d="M 179.428571 137.07 
L 353.197279 137.07 
L 353.197279 130.77 
L 179.428571 130.77 
z
" clip-path="url(#pc067340651)" style="fill: #0000ff"/>
   </g>
   <g id="patch_49">
    <path d="M 182.802721 137.07 
L 317.768707 137.07 
L 317.768707 130.77 
L 182.802721 130.77 
z
" clip-path="url(#pc067340651)" style="fill: #0000ff"/>
   </g>
   <g id="patch_50">
    <path d="M 182.802721 137.07 
L 587.70068 137.07 
L 587.70068 130.77 
L 182.802721 130.77 
z
" clip-path="url(#pc067340651)" style="fill: #0000ff"/>
   </g>
   <g id="patch_51">
    <path d="M 184.489796 137.07 
L 327.891156 137.07 
L 327.891156 130.77 
L 184.489796 130.77 
z
" clip-path="url(#pc067340651)" style="fill: #0000ff"/>
   </g>
   <g id="patch_52">
    <path d="M 186.176871 137.07 
L 317.768707 137.07 
L 317.768707 130.77 
L 186.176871 130.77 
z
" clip-path="url(#pc067340651)" style="fill: #0000ff"/>
   </g>
   <g id="patch_53">
    <path d="M 186.176871 137.07 
L 373.442177 137.07 
L 373.442177 130.77 
L 186.176871 130.77 
z
" clip-path="url(#pc067340651)" style="fill: #0000ff"/>
   </g>
   <g id="patch_54">
    <path d="M 186.176871 137.07 
L 353.197279 137.07 
L 353.197279 130.77 
L 186.176871 130.77 
z
" clip-path="url(#pc067340651)" style="fill: #0000ff"/>
   </g>
   <g id="patch_55">
    <path d="M 186.176871 137.07 
L 353.197279 137.07 
L 353.197279 130.77 
L 186.176871 130.77 
z
" clip-path="url(#pc067340651)" style="fill: #0000ff"/>
   </g>
   <g id="patch_56">
    <path d="M 186.176871 137.07 
L 351.510204 137.07 
L 351.510204 130.77 
L 186.176871 130.77 
z
" clip-path="url(#pc067340651)" style="fill: #0000ff"/>
   </g>
   <g id="patch_57">
    <path d="M 186.176871 137.07 
L 358.258503 137.07 
L 358.258503 130.77 
L 186.176871 130.77 
z
" clip-path="url(#pc067340651)" style="fill: #0000ff"/>
   </g>
   <g id="patch_58">
    <path d="M 186.176871 137.07 
L 356.571429 137.07 
L 356.571429 130.77 
L 186.176871 130.77 
z
" clip-path="url(#pc067340651)" style="fill: #0000ff"/>
   </g>
   <g id="patch_59">
    <path d="M 187.863946 137.07 
L 353.197279 137.07 
L 353.197279 130.77 
L 187.863946 130.77 
z
" clip-path="url(#pc067340651)" style="fill: #0000ff"/>
   </g>
   <g id="patch_60">
    <path d="M 187.863946 137.07 
L 353.197279 137.07 
L 353.197279 130.77 
L 187.863946 130.77 
z
" clip-path="url(#pc067340651)" style="fill: #0000ff"/>
   </g>
   <g id="patch_61">
    <path d="M 187.863946 137.07 
L 349.823129 137.07 
L 349.823129 130.77 
L 187.863946 130.77 
z
" clip-path="url(#pc067340651)" style="fill: #0000ff"/>
   </g>
   <g id="patch_62">
    <path d="M 187.863946 137.07 
L 349.823129 137.07 
L 349.823129 130.77 
L 187.863946 130.77 
z
" clip-path="url(#pc067340651)" style="fill: #0000ff"/>
   </g>
   <g id="patch_63">
    <path d="M 187.863946 137.07 
L 361.632653 137.07 
L 361.632653 130.77 
L 187.863946 130.77 
z
" clip-path="url(#pc067340651)" style="fill: #0000ff"/>
   </g>
   <g id="patch_64">
    <path d="M 189.55102 137.07 
L 332.952381 137.07 
L 332.952381 130.77 
L 189.55102 130.77 
z
" clip-path="url(#pc067340651)" style="fill: #0000ff"/>
   </g>
   <g id="patch_65">
    <path d="M 189.55102 137.07 
L 353.197279 137.07 
L 353.197279 130.77 
L 189.55102 130.77 
z
" clip-path="url(#pc067340651)" style="fill: #0000ff"/>
   </g>
   <g id="patch_66">
    <path d="M 192.92517 137.07 
L 376.816327 137.07 
L 376.816327 130.77 
L 192.92517 130.77 
z
" clip-path="url(#pc067340651)" style="fill: #0000ff"/>
   </g>
   <g id="patch_67">
    <path d="M 192.92517 137.07 
L 353.197279 137.07 
L 353.197279 130.77 
L 192.92517 130.77 
z
" clip-path="url(#pc067340651)" style="fill: #0000ff"/>
   </g>
   <g id="patch_68">
    <path d="M 194.612245 137.07 
L 317.768707 137.07 
L 317.768707 130.77 
L 194.612245 130.77 
z
" clip-path="url(#pc067340651)" style="fill: #0000ff"/>
   </g>
   <g id="patch_69">
    <path d="M 197.986395 137.07 
L 317.768707 137.07 
L 317.768707 130.77 
L 197.986395 130.77 
z
" clip-path="url(#pc067340651)" style="fill: #0000ff"/>
   </g>
   <g id="patch_70">
    <path d="M 197.986395 137.07 
L 349.823129 137.07 
L 349.823129 130.77 
L 197.986395 130.77 
z
" clip-path="url(#pc067340651)" style="fill: #0000ff"/>
   </g>
   <g id="patch_71">
    <path d="M 211.482993 137.07 
L 338.013605 137.07 
L 338.013605 130.77 
L 211.482993 130.77 
z
" clip-path="url(#pc067340651)" style="fill: #0000ff"/>
   </g>
   <g id="patch_72">
    <path d="M 214.857143 137.07 
L 356.571429 137.07 
L 356.571429 130.77 
L 214.857143 130.77 
z
" clip-path="url(#pc067340651)" style="fill: #0000ff"/>
   </g>
   <g id="patch_73">
    <path d="M 219.918367 137.07 
L 334.639456 137.07 
L 334.639456 130.77 
L 219.918367 130.77 
z
" clip-path="url(#pc067340651)" style="fill: #0000ff"/>
   </g>
   <g id="patch_74">
    <path d="M 219.918367 137.07 
L 341.387755 137.07 
L 341.387755 130.77 
L 219.918367 130.77 
z
" clip-path="url(#pc067340651)" style="fill: #0000ff"/>
   </g>
   <g id="patch_75">
    <path d="M 219.918367 137.07 
L 365.006803 137.07 
L 365.006803 130.77 
L 219.918367 130.77 
z
" clip-path="url(#pc067340651)" style="fill: #0000ff"/>
   </g>
   <g id="patch_76">
    <path d="M 221.605442 137.07 
L 353.197279 137.07 
L 353.197279 130.77 
L 221.605442 130.77 
z
" clip-path="url(#pc067340651)" style="fill: #0000ff"/>
   </g>
   <g id="patch_77">
    <path d="M 221.605442 137.07 
L 321.142857 137.07 
L 321.142857 130.77 
L 221.605442 130.77 
z
" clip-path="url(#pc067340651)" style="fill: #0000ff"/>
   </g>
   <g id="patch_78">
    <path d="M 221.605442 137.07 
L 317.768707 137.07 
L 317.768707 130.77 
L 221.605442 130.77 
z
" clip-path="url(#pc067340651)" style="fill: #0000ff"/>
   </g>
   <g id="patch_79">
    <path d="M 221.605442 137.07 
L 326.204082 137.07 
L 326.204082 130.77 
L 221.605442 130.77 
z
" clip-path="url(#pc067340651)" style="fill: #0000ff"/>
   </g>
   <g id="patch_80">
    <path d="M 415.619048 137.07 
L 560.707483 137.07 
L 560.707483 130.77 
L 415.619048 130.77 
z
" clip-path="url(#pc067340651)" style="fill: #0000ff"/>
   </g>
   <g id="patch_81">
    <path d="M 415.619048 137.07 
L 562.394558 137.07 
L 562.394558 130.77 
L 415.619048 130.77 
z
" clip-path="url(#pc067340651)" style="fill: #0000ff"/>
   </g>
   <g id="patch_82">
    <path d="M 415.619048 137.07 
L 559.020408 137.07 
L 559.020408 130.77 
L 415.619048 130.77 
z
" clip-path="url(#pc067340651)" style="fill: #0000ff"/>
   </g>
   <g id="patch_83">
    <path d="M 415.619048 137.07 
L 587.70068 137.07 
L 587.70068 130.77 
L 415.619048 130.77 
z
" clip-path="url(#pc067340651)" style="fill: #0000ff"/>
   </g>
   <g id="patch_84">
    <path d="M 415.619048 137.07 
L 577.578231 137.07 
L 577.578231 130.77 
L 415.619048 130.77 
z
" clip-path="url(#pc067340651)" style="fill: #0000ff"/>
   </g>
   <g id="patch_85">
    <path d="M 415.619048 137.07 
L 587.70068 137.07 
L 587.70068 130.77 
L 415.619048 130.77 
z
" clip-path="url(#pc067340651)" style="fill: #0000ff"/>
   </g>
   <g id="patch_86">
    <path d="M 415.619048 137.07 
L 587.70068 137.07 
L 587.70068 130.77 
L 415.619048 130.77 
z
" clip-path="url(#pc067340651)" style="fill: #0000ff"/>
   </g>
   <g id="patch_87">
    <path d="M 415.619048 137.07 
L 592.761905 137.07 
L 592.761905 130.77 
L 415.619048 130.77 
z
" clip-path="url(#pc067340651)" style="fill: #0000ff"/>
   </g>
   <g id="patch_88">
    <path d="M 415.619048 137.07 
L 579.265306 137.07 
L 579.265306 130.77 
L 415.619048 130.77 
z
" clip-path="url(#pc067340651)" style="fill: #0000ff"/>
   </g>
   <g id="patch_89">
    <path d="M 415.619048 137.07 
L 587.70068 137.07 
L 587.70068 130.77 
L 415.619048 130.77 
z
" clip-path="url(#pc067340651)" style="fill: #0000ff"/>
   </g>
   <g id="patch_90">
    <path d="M 417.306122 137.07 
L 587.70068 137.07 
L 587.70068 130.77 
L 417.306122 130.77 
z
" clip-path="url(#pc067340651)" style="fill: #0000ff"/>
   </g>
   <g id="patch_91">
    <path d="M 417.306122 137.07 
L 619.755102 137.07 
L 619.755102 130.77 
L 417.306122 130.77 
z
" clip-path="url(#pc067340651)" style="fill: #0000ff"/>
   </g>
   <g id="patch_92">
    <path d="M 417.306122 137.07 
L 614.693878 137.07 
L 614.693878 130.77 
L 417.306122 130.77 
z
" clip-path="url(#pc067340651)" style="fill: #0000ff"/>
   </g>
   <g id="patch_93">
    <path d="M 417.306122 137.07 
L 555.646259 137.07 
L 555.646259 130.77 
L 417.306122 130.77 
z
" clip-path="url(#pc067340651)" style="fill: #0000ff"/>
   </g>
   <g id="patch_94">
    <path d="M 417.306122 137.07 
L 587.70068 137.07 
L 587.70068 130.77 
L 417.306122 130.77 
z
" clip-path="url(#pc067340651)" style="fill: #0000ff"/>
   </g>
   <g id="patch_95">
    <path d="M 417.306122 137.07 
L 587.70068 137.07 
L 587.70068 130.77 
L 417.306122 130.77 
z
" clip-path="url(#pc067340651)" style="fill: #0000ff"/>
   </g>
   <g id="patch_96">
    <path d="M 417.306122 137.07 
L 572.517007 137.07 
L 572.517007 130.77 
L 417.306122 130.77 
z
" clip-path="url(#pc067340651)" style="fill: #0000ff"/>
   </g>
   <g id="patch_97">
    <path d="M 417.306122 137.07 
L 577.578231 137.07 
L 577.578231 130.77 
L 417.306122 130.77 
z
" clip-path="url(#pc067340651)" style="fill: #0000ff"/>
   </g>
   <g id="patch_98">
    <path d="M 417.306122 137.07 
L 577.578231 137.07 
L 577.578231 130.77 
L 417.306122 130.77 
z
" clip-path="url(#pc067340651)" style="fill: #0000ff"/>
   </g>
   <g id="patch_99">
    <path d="M 417.306122 137.07 
L 586.013605 137.07 
L 586.013605 130.77 
L 417.306122 130.77 
z
" clip-path="url(#pc067340651)" style="fill: #0000ff"/>
   </g>
   <g id="patch_100">
    <path d="M 418.993197 137.07 
L 587.70068 137.07 
L 587.70068 130.77 
L 418.993197 130.77 
z
" clip-path="url(#pc067340651)" style="fill: #0000ff"/>
   </g>
   <g id="patch_101">
    <path d="M 418.993197 137.07 
L 587.70068 137.07 
L 587.70068 130.77 
L 418.993197 130.77 
z
" clip-path="url(#pc067340651)" style="fill: #0000ff"/>
   </g>
   <g id="patch_102">
    <path d="M 422.367347 137.07 
L 565.768707 137.07 
L 565.768707 130.77 
L 422.367347 130.77 
z
" clip-path="url(#pc067340651)" style="fill: #0000ff"/>
   </g>
   <g id="patch_103">
    <path d="M 422.367347 137.07 
L 587.70068 137.07 
L 587.70068 130.77 
L 422.367347 130.77 
z
" clip-path="url(#pc067340651)" style="fill: #0000ff"/>
   </g>
   <g id="patch_104">
    <path d="M 424.054422 137.07 
L 580.952381 137.07 
L 580.952381 130.77 
L 424.054422 130.77 
z
" clip-path="url(#pc067340651)" style="fill: #0000ff"/>
   </g>
   <g id="patch_105">
    <path d="M 427.428571 137.07 
L 587.70068 137.07 
L 587.70068 130.77 
L 427.428571 130.77 
z
" clip-path="url(#pc067340651)" style="fill: #0000ff"/>
   </g>
   <g id="patch_106">
    <path d="M 427.428571 137.07 
L 574.204082 137.07 
L 574.204082 130.77 
L 427.428571 130.77 
z
" clip-path="url(#pc067340651)" style="fill: #0000ff"/>
   </g>
   <g id="patch_107">
    <path d="M 430.802721 137.07 
L 567.455782 137.07 
L 567.455782 130.77 
L 430.802721 130.77 
z
" clip-path="url(#pc067340651)" style="fill: #0000ff"/>
   </g>
   <g id="patch_108">
    <path d="M 434.176871 137.07 
L 589.387755 137.07 
L 589.387755 130.77 
L 434.176871 130.77 
z
" clip-path="url(#pc067340651)" style="fill: #0000ff"/>
   </g>
   <g id="patch_109">
    <path d="M 444.29932 137.07 
L 559.020408 137.07 
L 559.020408 130.77 
L 444.29932 130.77 
z
" clip-path="url(#pc067340651)" style="fill: #0000ff"/>
   </g>
   <g id="patch_110">
    <path d="M 451.047619 137.07 
L 596.136054 137.07 
L 596.136054 130.77 
L 451.047619 130.77 
z
" clip-path="url(#pc067340651)" style="fill: #0000ff"/>
   </g>
   <g id="patch_111">
    <path d="M 451.047619 137.07 
L 560.707483 137.07 
L 560.707483 130.77 
L 451.047619 130.77 
z
" clip-path="url(#pc067340651)" style="fill: #0000ff"/>
   </g>
   <g id="patch_112">
    <path d="M 451.047619 137.07 
L 609.632653 137.07 
L 609.632653 130.77 
L 451.047619 130.77 
z
" clip-path="url(#pc067340651)" style="fill: #0000ff"/>
   </g>
   <g id="patch_113">
    <path d="M 607.945578 137.07 
L 825.578231 137.07 
L 825.578231 130.77 
L 607.945578 130.77 
z
" clip-path="url(#pc067340651)" style="fill: #0000ff"/>
   </g>
   <g id="patch_114">
    <path d="M 827.265306 134.15625 
L 886.312925 134.15625 
L 886.312925 133.68375 
L 827.265306 133.68375 
z
" clip-path="url(#pc067340651)" style="fill: #0000ff"/>
   </g>
   <g id="patch_115">
    <path d="M 144 118.40625 
L 154.122449 118.40625 
L 154.122449 117.93375 
L 144 117.93375 
z
" clip-path="url(#pc067340651)" style="fill: #0000ff"/>
   </g>
   <g id="patch_116">
    <path d="M 155.809524 121.32 
L 763.156463 121.32 
L 763.156463 115.02 
L 155.809524 115.02 
z
" clip-path="url(#pc067340651)" style="fill: #0000ff"/>
   </g>
   <g id="patch_117">
    <path d="M 191.238095 121.32 
L 371.755102 121.32 
L 371.755102 115.02 
L 191.238095 115.02 
z
" clip-path="url(#pc067340651)" style="fill: #0000ff"/>
   </g>
   <g id="patch_118">
    <path d="M 191.238095 121.32 
L 371.755102 121.32 
L 371.755102 115.02 
L 191.238095 115.02 
z
" clip-path="url(#pc067340651)" style="fill: #0000ff"/>
   </g>
   <g id="patch_119">
    <path d="M 191.238095 121.32 
L 371.755102 121.32 
L 371.755102 115.02 
L 191.238095 115.02 
z
" clip-path="url(#pc067340651)" style="fill: #0000ff"/>
   </g>
   <g id="patch_120">
    <path d="M 191.238095 121.32 
L 742.911565 121.32 
L 742.911565 115.02 
L 191.238095 115.02 
z
" clip-path="url(#pc067340651)" style="fill: #0000ff"/>
   </g>
   <g id="patch_121">
    <path d="M 192.92517 121.32 
L 338.013605 121.32 
L 338.013605 115.02 
L 192.92517 115.02 
z
" clip-path="url(#pc067340651)" style="fill: #0000ff"/>
   </g>
   <g id="patch_122">
    <path d="M 192.92517 121.32 
L 371.755102 121.32 
L 371.755102 115.02 
L 192.92517 115.02 
z
" clip-path="url(#pc067340651)" style="fill: #0000ff"/>
   </g>
   <g id="patch_123">
    <path d="M 192.92517 121.32 
L 370.068027 121.32 
L 370.068027 115.02 
L 192.92517 115.02 
z
" clip-path="url(#pc067340651)" style="fill: #0000ff"/>
   </g>
   <g id="patch_124">
    <path d="M 194.612245 121.32 
L 376.816327 121.32 
L 376.816327 115.02 
L 194.612245 115.02 
z
" clip-path="url(#pc067340651)" style="fill: #0000ff"/>
   </g>
   <g id="patch_125">
    <path d="M 194.612245 121.32 
L 371.755102 121.32 
L 371.755102 115.02 
L 194.612245 115.02 
z
" clip-path="url(#pc067340651)" style="fill: #0000ff"/>
   </g>
   <g id="patch_126">
    <path d="M 194.612245 121.32 
L 371.755102 121.32 
L 371.755102 115.02 
L 194.612245 115.02 
z
" clip-path="url(#pc067340651)" style="fill: #0000ff"/>
   </g>
   <g id="patch_127">
    <path d="M 196.29932 121.32 
L 371.755102 121.32 
L 371.755102 115.02 
L 196.29932 115.02 
z
" clip-path="url(#pc067340651)" style="fill: #0000ff"/>
   </g>
   <g id="patch_128">
    <path d="M 197.986395 121.32 
L 371.755102 121.32 
L 371.755102 115.02 
L 197.986395 115.02 
z
" clip-path="url(#pc067340651)" style="fill: #0000ff"/>
   </g>
   <g id="patch_129">
    <path d="M 199.673469 121.32 
L 346.44898 121.32 
L 346.44898 115.02 
L 199.673469 115.02 
z
" clip-path="url(#pc067340651)" style="fill: #0000ff"/>
   </g>
   <g id="patch_130">
    <path d="M 199.673469 121.32 
L 368.380952 121.32 
L 368.380952 115.02 
L 199.673469 115.02 
z
" clip-path="url(#pc067340651)" style="fill: #0000ff"/>
   </g>
   <g id="patch_131">
    <path d="M 206.421769 121.32 
L 341.387755 121.32 
L 341.387755 115.02 
L 206.421769 115.02 
z
" clip-path="url(#pc067340651)" style="fill: #0000ff"/>
   </g>
   <g id="patch_132">
    <path d="M 206.421769 121.32 
L 371.755102 121.32 
L 371.755102 115.02 
L 206.421769 115.02 
z
" clip-path="url(#pc067340651)" style="fill: #0000ff"/>
   </g>
   <g id="patch_133">
    <path d="M 206.421769 121.32 
L 371.755102 121.32 
L 371.755102 115.02 
L 206.421769 115.02 
z
" clip-path="url(#pc067340651)" style="fill: #0000ff"/>
   </g>
   <g id="patch_134">
    <path d="M 209.795918 121.32 
L 373.442177 121.32 
L 373.442177 115.02 
L 209.795918 115.02 
z
" clip-path="url(#pc067340651)" style="fill: #0000ff"/>
   </g>
   <g id="patch_135">
    <path d="M 211.482993 121.32 
L 338.013605 121.32 
L 338.013605 115.02 
L 211.482993 115.02 
z
" clip-path="url(#pc067340651)" style="fill: #0000ff"/>
   </g>
   <g id="patch_136">
    <path d="M 216.544218 121.32 
L 346.44898 121.32 
L 346.44898 115.02 
L 216.544218 115.02 
z
" clip-path="url(#pc067340651)" style="fill: #0000ff"/>
   </g>
   <g id="patch_137">
    <path d="M 216.544218 121.32 
L 371.755102 121.32 
L 371.755102 115.02 
L 216.544218 115.02 
z
" clip-path="url(#pc067340651)" style="fill: #0000ff"/>
   </g>
   <g id="patch_138">
    <path d="M 221.605442 121.32 
L 336.326531 121.32 
L 336.326531 115.02 
L 221.605442 115.02 
z
" clip-path="url(#pc067340651)" style="fill: #0000ff"/>
   </g>
   <g id="patch_139">
    <path d="M 221.605442 121.32 
L 370.068027 121.32 
L 370.068027 115.02 
L 221.605442 115.02 
z
" clip-path="url(#pc067340651)" style="fill: #0000ff"/>
   </g>
   <g id="patch_140">
    <path d="M 223.292517 121.32 
L 375.129252 121.32 
L 375.129252 115.02 
L 223.292517 115.02 
z
" clip-path="url(#pc067340651)" style="fill: #0000ff"/>
   </g>
   <g id="patch_141">
    <path d="M 226.666667 121.32 
L 385.251701 121.32 
L 385.251701 115.02 
L 226.666667 115.02 
z
" clip-path="url(#pc067340651)" style="fill: #0000ff"/>
   </g>
   <g id="patch_142">
    <path d="M 226.666667 121.32 
L 338.013605 121.32 
L 338.013605 115.02 
L 226.666667 115.02 
z
" clip-path="url(#pc067340651)" style="fill: #0000ff"/>
   </g>
   <g id="patch_143">
    <path d="M 226.666667 121.32 
L 344.761905 121.32 
L 344.761905 115.02 
L 226.666667 115.02 
z
" clip-path="url(#pc067340651)" style="fill: #0000ff"/>
   </g>
   <g id="patch_144">
    <path d="M 226.666667 121.32 
L 351.510204 121.32 
L 351.510204 115.02 
L 226.666667 115.02 
z
" clip-path="url(#pc067340651)" style="fill: #0000ff"/>
   </g>
   <g id="patch_145">
    <path d="M 226.666667 121.32 
L 338.013605 121.32 
L 338.013605 115.02 
L 226.666667 115.02 
z
" clip-path="url(#pc067340651)" style="fill: #0000ff"/>
   </g>
   <g id="patch_146">
    <path d="M 246.911565 121.32 
L 744.598639 121.32 
L 744.598639 115.02 
L 246.911565 115.02 
z
" clip-path="url(#pc067340651)" style="fill: #0000ff"/>
   </g>
   <g id="patch_147">
    <path d="M 385.251701 121.32 
L 537.088435 121.32 
L 537.088435 115.02 
L 385.251701 115.02 
z
" clip-path="url(#pc067340651)" style="fill: #0000ff"/>
   </g>
   <g id="patch_148">
    <path d="M 385.251701 121.32 
L 537.088435 121.32 
L 537.088435 115.02 
L 385.251701 115.02 
z
" clip-path="url(#pc067340651)" style="fill: #0000ff"/>
   </g>
   <g id="patch_149">
    <path d="M 424.054422 121.32 
L 729.414966 121.32 
L 729.414966 115.02 
L 424.054422 115.02 
z
" clip-path="url(#pc067340651)" style="fill: #0000ff"/>
   </g>
   <g id="patch_150">
    <path d="M 555.646259 121.32 
L 741.22449 121.32 
L 741.22449 115.02 
L 555.646259 115.02 
z
" clip-path="url(#pc067340651)" style="fill: #0000ff"/>
   </g>
   <g id="patch_151">
    <path d="M 557.333333 121.32 
L 736.163265 121.32 
L 736.163265 115.02 
L 557.333333 115.02 
z
" clip-path="url(#pc067340651)" style="fill: #0000ff"/>
   </g>
   <g id="patch_152">
    <path d="M 764.843537 118.40625 
L 827.265306 118.40625 
L 827.265306 117.93375 
L 764.843537 117.93375 
z
" clip-path="url(#pc067340651)" style="fill: #0000ff"/>
   </g>
   <g id="patch_153">
    <path d="M 144 102.65625 
L 177.741497 102.65625 
L 177.741497 102.18375 
L 144 102.18375 
z
" clip-path="url(#pc067340651)" style="fill: #0000ff"/>
   </g>
   <g id="patch_154">
    <path d="M 179.428571 105.57 
L 724.353741 105.57 
L 724.353741 99.27 
L 179.428571 99.27 
z
" clip-path="url(#pc067340651)" style="fill: #0000ff"/>
   </g>
   <g id="patch_155">
    <path d="M 186.176871 105.57 
L 353.197279 105.57 
L 353.197279 99.27 
L 186.176871 99.27 
z
" clip-path="url(#pc067340651)" style="fill: #0000ff"/>
   </g>
   <g id="patch_156">
    <path d="M 187.863946 105.57 
L 361.632653 105.57 
L 361.632653 99.27 
L 187.863946 99.27 
z
" clip-path="url(#pc067340651)" style="fill: #0000ff"/>
   </g>
   <g id="patch_157">
    <path d="M 189.55102 105.57 
L 353.197279 105.57 
L 353.197279 99.27 
L 189.55102 99.27 
z
" clip-path="url(#pc067340651)" style="fill: #0000ff"/>
   </g>
   <g id="patch_158">
    <path d="M 189.55102 105.57 
L 354.884354 105.57 
L 354.884354 99.27 
L 189.55102 99.27 
z
" clip-path="url(#pc067340651)" style="fill: #0000ff"/>
   </g>
   <g id="patch_159">
    <path d="M 189.55102 105.57 
L 354.884354 105.57 
L 354.884354 99.27 
L 189.55102 99.27 
z
" clip-path="url(#pc067340651)" style="fill: #0000ff"/>
   </g>
   <g id="patch_160">
    <path d="M 191.238095 105.57 
L 726.040816 105.57 
L 726.040816 99.27 
L 191.238095 99.27 
z
" clip-path="url(#pc067340651)" style="fill: #0000ff"/>
   </g>
   <g id="patch_161">
    <path d="M 194.612245 105.57 
L 322.829932 105.57 
L 322.829932 99.27 
L 194.612245 99.27 
z
" clip-path="url(#pc067340651)" style="fill: #0000ff"/>
   </g>
   <g id="patch_162">
    <path d="M 194.612245 105.57 
L 359.945578 105.57 
L 359.945578 99.27 
L 194.612245 99.27 
z
" clip-path="url(#pc067340651)" style="fill: #0000ff"/>
   </g>
   <g id="patch_163">
    <path d="M 196.29932 105.57 
L 353.197279 105.57 
L 353.197279 99.27 
L 196.29932 99.27 
z
" clip-path="url(#pc067340651)" style="fill: #0000ff"/>
   </g>
   <g id="patch_164">
    <path d="M 196.29932 105.57 
L 324.517007 105.57 
L 324.517007 99.27 
L 196.29932 99.27 
z
" clip-path="url(#pc067340651)" style="fill: #0000ff"/>
   </g>
   <g id="patch_165">
    <path d="M 196.29932 105.57 
L 354.884354 105.57 
L 354.884354 99.27 
L 196.29932 99.27 
z
" clip-path="url(#pc067340651)" style="fill: #0000ff"/>
   </g>
   <g id="patch_166">
    <path d="M 196.29932 105.57 
L 353.197279 105.57 
L 353.197279 99.27 
L 196.29932 99.27 
z
" clip-path="url(#pc067340651)" style="fill: #0000ff"/>
   </g>
   <g id="patch_167">
    <path d="M 196.29932 105.57 
L 354.884354 105.57 
L 354.884354 99.27 
L 196.29932 99.27 
z
" clip-path="url(#pc067340651)" style="fill: #0000ff"/>
   </g>
   <g id="patch_168">
    <path d="M 196.29932 105.57 
L 353.197279 105.57 
L 353.197279 99.27 
L 196.29932 99.27 
z
" clip-path="url(#pc067340651)" style="fill: #0000ff"/>
   </g>
   <g id="patch_169">
    <path d="M 197.986395 105.57 
L 353.197279 105.57 
L 353.197279 99.27 
L 197.986395 99.27 
z
" clip-path="url(#pc067340651)" style="fill: #0000ff"/>
   </g>
   <g id="patch_170">
    <path d="M 204.734694 105.57 
L 319.455782 105.57 
L 319.455782 99.27 
L 204.734694 99.27 
z
" clip-path="url(#pc067340651)" style="fill: #0000ff"/>
   </g>
   <g id="patch_171">
    <path d="M 204.734694 105.57 
L 348.136054 105.57 
L 348.136054 99.27 
L 204.734694 99.27 
z
" clip-path="url(#pc067340651)" style="fill: #0000ff"/>
   </g>
   <g id="patch_172">
    <path d="M 204.734694 105.57 
L 348.136054 105.57 
L 348.136054 99.27 
L 204.734694 99.27 
z
" clip-path="url(#pc067340651)" style="fill: #0000ff"/>
   </g>
   <g id="patch_173">
    <path d="M 208.108844 105.57 
L 353.197279 105.57 
L 353.197279 99.27 
L 208.108844 99.27 
z
" clip-path="url(#pc067340651)" style="fill: #0000ff"/>
   </g>
   <g id="patch_174">
    <path d="M 209.795918 105.57 
L 353.197279 105.57 
L 353.197279 99.27 
L 209.795918 99.27 
z
" clip-path="url(#pc067340651)" style="fill: #0000ff"/>
   </g>
   <g id="patch_175">
    <path d="M 209.795918 105.57 
L 353.197279 105.57 
L 353.197279 99.27 
L 209.795918 99.27 
z
" clip-path="url(#pc067340651)" style="fill: #0000ff"/>
   </g>
   <g id="patch_176">
    <path d="M 211.482993 105.57 
L 321.142857 105.57 
L 321.142857 99.27 
L 211.482993 99.27 
z
" clip-path="url(#pc067340651)" style="fill: #0000ff"/>
   </g>
   <g id="patch_177">
    <path d="M 213.170068 105.57 
L 354.884354 105.57 
L 354.884354 99.27 
L 213.170068 99.27 
z
" clip-path="url(#pc067340651)" style="fill: #0000ff"/>
   </g>
   <g id="patch_178">
    <path d="M 216.544218 105.57 
L 376.816327 105.57 
L 376.816327 99.27 
L 216.544218 99.27 
z
" clip-path="url(#pc067340651)" style="fill: #0000ff"/>
   </g>
   <g id="patch_179">
    <path d="M 216.544218 105.57 
L 370.068027 105.57 
L 370.068027 99.27 
L 216.544218 99.27 
z
" clip-path="url(#pc067340651)" style="fill: #0000ff"/>
   </g>
   <g id="patch_180">
    <path d="M 218.231293 105.57 
L 321.142857 105.57 
L 321.142857 99.27 
L 218.231293 99.27 
z
" clip-path="url(#pc067340651)" style="fill: #0000ff"/>
   </g>
   <g id="patch_181">
    <path d="M 218.231293 105.57 
L 359.945578 105.57 
L 359.945578 99.27 
L 218.231293 99.27 
z
" clip-path="url(#pc067340651)" style="fill: #0000ff"/>
   </g>
   <g id="patch_182">
    <path d="M 218.231293 105.57 
L 365.006803 105.57 
L 365.006803 99.27 
L 218.231293 99.27 
z
" clip-path="url(#pc067340651)" style="fill: #0000ff"/>
   </g>
   <g id="patch_183">
    <path d="M 218.231293 105.57 
L 332.952381 105.57 
L 332.952381 99.27 
L 218.231293 99.27 
z
" clip-path="url(#pc067340651)" style="fill: #0000ff"/>
   </g>
   <g id="patch_184">
    <path d="M 218.231293 105.57 
L 353.197279 105.57 
L 353.197279 99.27 
L 218.231293 99.27 
z
" clip-path="url(#pc067340651)" style="fill: #0000ff"/>
   </g>
   <g id="patch_185">
    <path d="M 218.231293 105.57 
L 322.829932 105.57 
L 322.829932 99.27 
L 218.231293 99.27 
z
" clip-path="url(#pc067340651)" style="fill: #0000ff"/>
   </g>
   <g id="patch_186">
    <path d="M 218.231293 105.57 
L 353.197279 105.57 
L 353.197279 99.27 
L 218.231293 99.27 
z
" clip-path="url(#pc067340651)" style="fill: #0000ff"/>
   </g>
   <g id="patch_187">
    <path d="M 218.231293 105.57 
L 354.884354 105.57 
L 354.884354 99.27 
L 218.231293 99.27 
z
" clip-path="url(#pc067340651)" style="fill: #0000ff"/>
   </g>
   <g id="patch_188">
    <path d="M 257.034014 105.57 
L 722.666667 105.57 
L 722.666667 99.27 
L 257.034014 99.27 
z
" clip-path="url(#pc067340651)" style="fill: #0000ff"/>
   </g>
   <g id="patch_189">
    <path d="M 412.244898 105.57 
L 712.544218 105.57 
L 712.544218 99.27 
L 412.244898 99.27 
z
" clip-path="url(#pc067340651)" style="fill: #0000ff"/>
   </g>
   <g id="patch_190">
    <path d="M 727.727891 102.65625 
L 908.244898 102.65625 
L 908.244898 102.18375 
L 727.727891 102.18375 
z
" clip-path="url(#pc067340651)" style="fill: #0000ff"/>
   </g>
   <g id="patch_191">
    <path d="M 144 86.90625 
L 157.496599 86.90625 
L 157.496599 86.43375 
L 144 86.43375 
z
" clip-path="url(#pc067340651)" style="fill: #0000ff"/>
   </g>
   <g id="patch_192">
    <path d="M 159.183673 89.82 
L 354.884354 89.82 
L 354.884354 83.52 
L 159.183673 83.52 
z
" clip-path="url(#pc067340651)" style="fill: #0000ff"/>
   </g>
   <g id="patch_193">
    <path d="M 177.741497 89.82 
L 285.714286 89.82 
L 285.714286 83.52 
L 177.741497 83.52 
z
" clip-path="url(#pc067340651)" style="fill: #0000ff"/>
   </g>
   <g id="patch_194">
    <path d="M 182.802721 89.82 
L 564.081633 89.82 
L 564.081633 83.52 
L 182.802721 83.52 
z
" clip-path="url(#pc067340651)" style="fill: #0000ff"/>
   </g>
   <g id="patch_195">
    <path d="M 186.176871 89.82 
L 319.455782 89.82 
L 319.455782 83.52 
L 186.176871 83.52 
z
" clip-path="url(#pc067340651)" style="fill: #0000ff"/>
   </g>
   <g id="patch_196">
    <path d="M 186.176871 89.82 
L 417.306122 89.82 
L 417.306122 83.52 
L 186.176871 83.52 
z
" clip-path="url(#pc067340651)" style="fill: #0000ff"/>
   </g>
   <g id="patch_197">
    <path d="M 187.863946 89.82 
L 331.265306 89.82 
L 331.265306 83.52 
L 187.863946 83.52 
z
" clip-path="url(#pc067340651)" style="fill: #0000ff"/>
   </g>
   <g id="patch_198">
    <path d="M 189.55102 89.82 
L 331.265306 89.82 
L 331.265306 83.52 
L 189.55102 83.52 
z
" clip-path="url(#pc067340651)" style="fill: #0000ff"/>
   </g>
   <g id="patch_199">
    <path d="M 189.55102 89.82 
L 354.884354 89.82 
L 354.884354 83.52 
L 189.55102 83.52 
z
" clip-path="url(#pc067340651)" style="fill: #0000ff"/>
   </g>
   <g id="patch_200">
    <path d="M 189.55102 89.82 
L 368.380952 89.82 
L 368.380952 83.52 
L 189.55102 83.52 
z
" clip-path="url(#pc067340651)" style="fill: #0000ff"/>
   </g>
   <g id="patch_201">
    <path d="M 189.55102 89.82 
L 373.442177 89.82 
L 373.442177 83.52 
L 189.55102 83.52 
z
" clip-path="url(#pc067340651)" style="fill: #0000ff"/>
   </g>
   <g id="patch_202">
    <path d="M 189.55102 89.82 
L 373.442177 89.82 
L 373.442177 83.52 
L 189.55102 83.52 
z
" clip-path="url(#pc067340651)" style="fill: #0000ff"/>
   </g>
   <g id="patch_203">
    <path d="M 189.55102 89.82 
L 371.755102 89.82 
L 371.755102 83.52 
L 189.55102 83.52 
z
" clip-path="url(#pc067340651)" style="fill: #0000ff"/>
   </g>
   <g id="patch_204">
    <path d="M 191.238095 89.82 
L 339.70068 89.82 
L 339.70068 83.52 
L 191.238095 83.52 
z
" clip-path="url(#pc067340651)" style="fill: #0000ff"/>
   </g>
   <g id="patch_205">
    <path d="M 191.238095 89.82 
L 336.326531 89.82 
L 336.326531 83.52 
L 191.238095 83.52 
z
" clip-path="url(#pc067340651)" style="fill: #0000ff"/>
   </g>
   <g id="patch_206">
    <path d="M 191.238095 89.82 
L 368.380952 89.82 
L 368.380952 83.52 
L 191.238095 83.52 
z
" clip-path="url(#pc067340651)" style="fill: #0000ff"/>
   </g>
   <g id="patch_207">
    <path d="M 191.238095 89.82 
L 371.755102 89.82 
L 371.755102 83.52 
L 191.238095 83.52 
z
" clip-path="url(#pc067340651)" style="fill: #0000ff"/>
   </g>
   <g id="patch_208">
    <path d="M 191.238095 89.82 
L 353.197279 89.82 
L 353.197279 83.52 
L 191.238095 83.52 
z
" clip-path="url(#pc067340651)" style="fill: #0000ff"/>
   </g>
   <g id="patch_209">
    <path d="M 191.238095 89.82 
L 358.258503 89.82 
L 358.258503 83.52 
L 191.238095 83.52 
z
" clip-path="url(#pc067340651)" style="fill: #0000ff"/>
   </g>
   <g id="patch_210">
    <path d="M 192.92517 89.82 
L 371.755102 89.82 
L 371.755102 83.52 
L 192.92517 83.52 
z
" clip-path="url(#pc067340651)" style="fill: #0000ff"/>
   </g>
   <g id="patch_211">
    <path d="M 196.29932 89.82 
L 343.07483 89.82 
L 343.07483 83.52 
L 196.29932 83.52 
z
" clip-path="url(#pc067340651)" style="fill: #0000ff"/>
   </g>
   <g id="patch_212">
    <path d="M 196.29932 89.82 
L 371.755102 89.82 
L 371.755102 83.52 
L 196.29932 83.52 
z
" clip-path="url(#pc067340651)" style="fill: #0000ff"/>
   </g>
   <g id="patch_213">
    <path d="M 209.795918 89.82 
L 326.204082 89.82 
L 326.204082 83.52 
L 209.795918 83.52 
z
" clip-path="url(#pc067340651)" style="fill: #0000ff"/>
   </g>
   <g id="patch_214">
    <path d="M 211.482993 89.82 
L 371.755102 89.82 
L 371.755102 83.52 
L 211.482993 83.52 
z
" clip-path="url(#pc067340651)" style="fill: #0000ff"/>
   </g>
   <g id="patch_215">
    <path d="M 216.544218 89.82 
L 383.564626 89.82 
L 383.564626 83.52 
L 216.544218 83.52 
z
" clip-path="url(#pc067340651)" style="fill: #0000ff"/>
   </g>
   <g id="patch_216">
    <path d="M 216.544218 89.82 
L 319.455782 89.82 
L 319.455782 83.52 
L 216.544218 83.52 
z
" clip-path="url(#pc067340651)" style="fill: #0000ff"/>
   </g>
   <g id="patch_217">
    <path d="M 224.979592 89.82 
L 332.952381 89.82 
L 332.952381 83.52 
L 224.979592 83.52 
z
" clip-path="url(#pc067340651)" style="fill: #0000ff"/>
   </g>
   <g id="patch_218">
    <path d="M 224.979592 89.82 
L 371.755102 89.82 
L 371.755102 83.52 
L 224.979592 83.52 
z
" clip-path="url(#pc067340651)" style="fill: #0000ff"/>
   </g>
   <g id="patch_219">
    <path d="M 224.979592 89.82 
L 359.945578 89.82 
L 359.945578 83.52 
L 224.979592 83.52 
z
" clip-path="url(#pc067340651)" style="fill: #0000ff"/>
   </g>
   <g id="patch_220">
    <path d="M 224.979592 89.82 
L 358.258503 89.82 
L 358.258503 83.52 
L 224.979592 83.52 
z
" clip-path="url(#pc067340651)" style="fill: #0000ff"/>
   </g>
   <g id="patch_221">
    <path d="M 224.979592 89.82 
L 368.380952 89.82 
L 368.380952 83.52 
L 224.979592 83.52 
z
" clip-path="url(#pc067340651)" style="fill: #0000ff"/>
   </g>
   <g id="patch_222">
    <path d="M 224.979592 89.82 
L 368.380952 89.82 
L 368.380952 83.52 
L 224.979592 83.52 
z
" clip-path="url(#pc067340651)" style="fill: #0000ff"/>
   </g>
   <g id="patch_223">
    <path d="M 392 89.82 
L 545.52381 89.82 
L 545.52381 83.52 
L 392 83.52 
z
" clip-path="url(#pc067340651)" style="fill: #0000ff"/>
   </g>
   <g id="patch_224">
    <path d="M 565.768707 86.90625 
L 909.931973 86.90625 
L 909.931973 86.43375 
L 565.768707 86.43375 
z
" clip-path="url(#pc067340651)" style="fill: #0000ff"/>
   </g>
   <g id="patch_225">
    <path d="M 144 71.15625 
L 184.489796 71.15625 
L 184.489796 70.68375 
L 144 70.68375 
z
" clip-path="url(#pc067340651)" style="fill: #0000ff"/>
   </g>
   <g id="patch_226">
    <path d="M 186.176871 74.07 
L 326.204082 74.07 
L 326.204082 67.77 
L 186.176871 67.77 
z
" clip-path="url(#pc067340651)" style="fill: #0000ff"/>
   </g>
   <g id="patch_227">
    <path d="M 191.238095 74.07 
L 354.884354 74.07 
L 354.884354 67.77 
L 191.238095 67.77 
z
" clip-path="url(#pc067340651)" style="fill: #0000ff"/>
   </g>
   <g id="patch_228">
    <path d="M 191.238095 74.07 
L 282.340136 74.07 
L 282.340136 67.77 
L 191.238095 67.77 
z
" clip-path="url(#pc067340651)" style="fill: #0000ff"/>
   </g>
   <g id="patch_229">
    <path d="M 191.238095 74.07 
L 359.945578 74.07 
L 359.945578 67.77 
L 191.238095 67.77 
z
" clip-path="url(#pc067340651)" style="fill: #0000ff"/>
   </g>
   <g id="patch_230">
    <path d="M 191.238095 74.07 
L 356.571429 74.07 
L 356.571429 67.77 
L 191.238095 67.77 
z
" clip-path="url(#pc067340651)" style="fill: #0000ff"/>
   </g>
   <g id="patch_231">
    <path d="M 191.238095 74.07 
L 338.013605 74.07 
L 338.013605 67.77 
L 191.238095 67.77 
z
" clip-path="url(#pc067340651)" style="fill: #0000ff"/>
   </g>
   <g id="patch_232">
    <path d="M 191.238095 74.07 
L 361.632653 74.07 
L 361.632653 67.77 
L 191.238095 67.77 
z
" clip-path="url(#pc067340651)" style="fill: #0000ff"/>
   </g>
   <g id="patch_233">
    <path d="M 192.92517 74.07 
L 356.571429 74.07 
L 356.571429 67.77 
L 192.92517 67.77 
z
" clip-path="url(#pc067340651)" style="fill: #0000ff"/>
   </g>
   <g id="patch_234">
    <path d="M 192.92517 74.07 
L 354.884354 74.07 
L 354.884354 67.77 
L 192.92517 67.77 
z
" clip-path="url(#pc067340651)" style="fill: #0000ff"/>
   </g>
   <g id="patch_235">
    <path d="M 192.92517 74.07 
L 356.571429 74.07 
L 356.571429 67.77 
L 192.92517 67.77 
z
" clip-path="url(#pc067340651)" style="fill: #0000ff"/>
   </g>
   <g id="patch_236">
    <path d="M 192.92517 74.07 
L 359.945578 74.07 
L 359.945578 67.77 
L 192.92517 67.77 
z
" clip-path="url(#pc067340651)" style="fill: #0000ff"/>
   </g>
   <g id="patch_237">
    <path d="M 194.612245 74.07 
L 356.571429 74.07 
L 356.571429 67.77 
L 194.612245 67.77 
z
" clip-path="url(#pc067340651)" style="fill: #0000ff"/>
   </g>
   <g id="patch_238">
    <path d="M 194.612245 74.07 
L 359.945578 74.07 
L 359.945578 67.77 
L 194.612245 67.77 
z
" clip-path="url(#pc067340651)" style="fill: #0000ff"/>
   </g>
   <g id="patch_239">
    <path d="M 197.986395 74.07 
L 327.891156 74.07 
L 327.891156 67.77 
L 197.986395 67.77 
z
" clip-path="url(#pc067340651)" style="fill: #0000ff"/>
   </g>
   <g id="patch_240">
    <path d="M 197.986395 74.07 
L 356.571429 74.07 
L 356.571429 67.77 
L 197.986395 67.77 
z
" clip-path="url(#pc067340651)" style="fill: #0000ff"/>
   </g>
   <g id="patch_241">
    <path d="M 199.673469 74.07 
L 359.945578 74.07 
L 359.945578 67.77 
L 199.673469 67.77 
z
" clip-path="url(#pc067340651)" style="fill: #0000ff"/>
   </g>
   <g id="patch_242">
    <path d="M 199.673469 74.07 
L 356.571429 74.07 
L 356.571429 67.77 
L 199.673469 67.77 
z
" clip-path="url(#pc067340651)" style="fill: #0000ff"/>
   </g>
   <g id="patch_243">
    <path d="M 201.360544 74.07 
L 327.891156 74.07 
L 327.891156 67.77 
L 201.360544 67.77 
z
" clip-path="url(#pc067340651)" style="fill: #0000ff"/>
   </g>
   <g id="patch_244">
    <path d="M 201.360544 74.07 
L 326.204082 74.07 
L 326.204082 67.77 
L 201.360544 67.77 
z
" clip-path="url(#pc067340651)" style="fill: #0000ff"/>
   </g>
   <g id="patch_245">
    <path d="M 204.734694 74.07 
L 356.571429 74.07 
L 356.571429 67.77 
L 204.734694 67.77 
z
" clip-path="url(#pc067340651)" style="fill: #0000ff"/>
   </g>
   <g id="patch_246">
    <path d="M 216.544218 74.07 
L 327.891156 74.07 
L 327.891156 67.77 
L 216.544218 67.77 
z
" clip-path="url(#pc067340651)" style="fill: #0000ff"/>
   </g>
   <g id="patch_247">
    <path d="M 216.544218 74.07 
L 354.884354 74.07 
L 354.884354 67.77 
L 216.544218 67.77 
z
" clip-path="url(#pc067340651)" style="fill: #0000ff"/>
   </g>
   <g id="patch_248">
    <path d="M 221.605442 74.07 
L 361.632653 74.07 
L 361.632653 67.77 
L 221.605442 67.77 
z
" clip-path="url(#pc067340651)" style="fill: #0000ff"/>
   </g>
   <g id="patch_249">
    <path d="M 221.605442 74.07 
L 316.081633 74.07 
L 316.081633 67.77 
L 221.605442 67.77 
z
" clip-path="url(#pc067340651)" style="fill: #0000ff"/>
   </g>
   <g id="patch_250">
    <path d="M 221.605442 74.07 
L 354.884354 74.07 
L 354.884354 67.77 
L 221.605442 67.77 
z
" clip-path="url(#pc067340651)" style="fill: #0000ff"/>
   </g>
   <g id="patch_251">
    <path d="M 223.292517 74.07 
L 358.258503 74.07 
L 358.258503 67.77 
L 223.292517 67.77 
z
" clip-path="url(#pc067340651)" style="fill: #0000ff"/>
   </g>
   <g id="patch_252">
    <path d="M 223.292517 74.07 
L 334.639456 74.07 
L 334.639456 67.77 
L 223.292517 67.77 
z
" clip-path="url(#pc067340651)" style="fill: #0000ff"/>
   </g>
   <g id="patch_253">
    <path d="M 223.292517 74.07 
L 358.258503 74.07 
L 358.258503 67.77 
L 223.292517 67.77 
z
" clip-path="url(#pc067340651)" style="fill: #0000ff"/>
   </g>
   <g id="patch_254">
    <path d="M 224.979592 74.07 
L 326.204082 74.07 
L 326.204082 67.77 
L 224.979592 67.77 
z
" clip-path="url(#pc067340651)" style="fill: #0000ff"/>
   </g>
   <g id="patch_255">
    <path d="M 228.353741 74.07 
L 356.571429 74.07 
L 356.571429 67.77 
L 228.353741 67.77 
z
" clip-path="url(#pc067340651)" style="fill: #0000ff"/>
   </g>
   <g id="patch_256">
    <path d="M 363.319728 71.15625 
L 614.693878 71.15625 
L 614.693878 70.68375 
L 363.319728 70.68375 
z
" clip-path="url(#pc067340651)" style="fill: #0000ff"/>
   </g>
   <g id="patch_257">
    <path d="M 144 55.40625 
L 186.176871 55.40625 
L 186.176871 54.93375 
L 144 54.93375 
z
" clip-path="url(#pc067340651)" style="fill: #0000ff"/>
   </g>
   <g id="patch_258">
    <path d="M 187.863946 58.32 
L 349.823129 58.32 
L 349.823129 52.02 
L 187.863946 52.02 
z
" clip-path="url(#pc067340651)" style="fill: #0000ff"/>
   </g>
   <g id="patch_259">
    <path d="M 187.863946 58.32 
L 349.823129 58.32 
L 349.823129 52.02 
L 187.863946 52.02 
z
" clip-path="url(#pc067340651)" style="fill: #0000ff"/>
   </g>
   <g id="patch_260">
    <path d="M 187.863946 58.32 
L 349.823129 58.32 
L 349.823129 52.02 
L 187.863946 52.02 
z
" clip-path="url(#pc067340651)" style="fill: #0000ff"/>
   </g>
   <g id="patch_261">
    <path d="M 187.863946 58.32 
L 358.258503 58.32 
L 358.258503 52.02 
L 187.863946 52.02 
z
" clip-path="url(#pc067340651)" style="fill: #0000ff"/>
   </g>
   <g id="patch_262">
    <path d="M 187.863946 58.32 
L 349.823129 58.32 
L 349.823129 52.02 
L 187.863946 52.02 
z
" clip-path="url(#pc067340651)" style="fill: #0000ff"/>
   </g>
   <g id="patch_263">
    <path d="M 189.55102 58.32 
L 349.823129 58.32 
L 349.823129 52.02 
L 189.55102 52.02 
z
" clip-path="url(#pc067340651)" style="fill: #0000ff"/>
   </g>
   <g id="patch_264">
    <path d="M 189.55102 58.32 
L 353.197279 58.32 
L 353.197279 52.02 
L 189.55102 52.02 
z
" clip-path="url(#pc067340651)" style="fill: #0000ff"/>
   </g>
   <g id="patch_265">
    <path d="M 189.55102 58.32 
L 741.22449 58.32 
L 741.22449 52.02 
L 189.55102 52.02 
z
" clip-path="url(#pc067340651)" style="fill: #0000ff"/>
   </g>
   <g id="patch_266">
    <path d="M 189.55102 58.32 
L 349.823129 58.32 
L 349.823129 52.02 
L 189.55102 52.02 
z
" clip-path="url(#pc067340651)" style="fill: #0000ff"/>
   </g>
   <g id="patch_267">
    <path d="M 196.29932 58.32 
L 351.510204 58.32 
L 351.510204 52.02 
L 196.29932 52.02 
z
" clip-path="url(#pc067340651)" style="fill: #0000ff"/>
   </g>
   <g id="patch_268">
    <path d="M 208.108844 58.32 
L 316.081633 58.32 
L 316.081633 52.02 
L 208.108844 52.02 
z
" clip-path="url(#pc067340651)" style="fill: #0000ff"/>
   </g>
   <g id="patch_269">
    <path d="M 208.108844 58.32 
L 341.387755 58.32 
L 341.387755 52.02 
L 208.108844 52.02 
z
" clip-path="url(#pc067340651)" style="fill: #0000ff"/>
   </g>
   <g id="patch_270">
    <path d="M 209.795918 58.32 
L 314.394558 58.32 
L 314.394558 52.02 
L 209.795918 52.02 
z
" clip-path="url(#pc067340651)" style="fill: #0000ff"/>
   </g>
   <g id="patch_271">
    <path d="M 213.170068 58.32 
L 353.197279 58.32 
L 353.197279 52.02 
L 213.170068 52.02 
z
" clip-path="url(#pc067340651)" style="fill: #0000ff"/>
   </g>
   <g id="patch_272">
    <path d="M 216.544218 58.32 
L 341.387755 58.32 
L 341.387755 52.02 
L 216.544218 52.02 
z
" clip-path="url(#pc067340651)" style="fill: #0000ff"/>
   </g>
   <g id="patch_273">
    <path d="M 216.544218 58.32 
L 338.013605 58.32 
L 338.013605 52.02 
L 216.544218 52.02 
z
" clip-path="url(#pc067340651)" style="fill: #0000ff"/>
   </g>
   <g id="patch_274">
    <path d="M 216.544218 58.32 
L 351.510204 58.32 
L 351.510204 52.02 
L 216.544218 52.02 
z
" clip-path="url(#pc067340651)" style="fill: #0000ff"/>
   </g>
   <g id="patch_275">
    <path d="M 216.544218 58.32 
L 351.510204 58.32 
L 351.510204 52.02 
L 216.544218 52.02 
z
" clip-path="url(#pc067340651)" style="fill: #0000ff"/>
   </g>
   <g id="patch_276">
    <path d="M 216.544218 58.32 
L 321.142857 58.32 
L 321.142857 52.02 
L 216.544218 52.02 
z
" clip-path="url(#pc067340651)" style="fill: #0000ff"/>
   </g>
   <g id="patch_277">
    <path d="M 218.231293 58.32 
L 332.952381 58.32 
L 332.952381 52.02 
L 218.231293 52.02 
z
" clip-path="url(#pc067340651)" style="fill: #0000ff"/>
   </g>
   <g id="patch_278">
    <path d="M 218.231293 58.32 
L 319.455782 58.32 
L 319.455782 52.02 
L 218.231293 52.02 
z
" clip-path="url(#pc067340651)" style="fill: #0000ff"/>
   </g>
   <g id="patch_279">
    <path d="M 218.231293 58.32 
L 343.07483 58.32 
L 343.07483 52.02 
L 218.231293 52.02 
z
" clip-path="url(#pc067340651)" style="fill: #0000ff"/>
   </g>
   <g id="patch_280">
    <path d="M 218.231293 58.32 
L 319.455782 58.32 
L 319.455782 52.02 
L 218.231293 52.02 
z
" clip-path="url(#pc067340651)" style="fill: #0000ff"/>
   </g>
   <g id="patch_281">
    <path d="M 218.231293 58.32 
L 321.142857 58.32 
L 321.142857 52.02 
L 218.231293 52.02 
z
" clip-path="url(#pc067340651)" style="fill: #0000ff"/>
   </g>
   <g id="patch_282">
    <path d="M 218.231293 58.32 
L 331.265306 58.32 
L 331.265306 52.02 
L 218.231293 52.02 
z
" clip-path="url(#pc067340651)" style="fill: #0000ff"/>
   </g>
   <g id="patch_283">
    <path d="M 218.231293 58.32 
L 319.455782 58.32 
L 319.455782 52.02 
L 218.231293 52.02 
z
" clip-path="url(#pc067340651)" style="fill: #0000ff"/>
   </g>
   <g id="patch_284">
    <path d="M 218.231293 58.32 
L 319.455782 58.32 
L 319.455782 52.02 
L 218.231293 52.02 
z
" clip-path="url(#pc067340651)" style="fill: #0000ff"/>
   </g>
   <g id="patch_285">
    <path d="M 218.231293 58.32 
L 321.142857 58.32 
L 321.142857 52.02 
L 218.231293 52.02 
z
" clip-path="url(#pc067340651)" style="fill: #0000ff"/>
   </g>
   <g id="patch_286">
    <path d="M 218.231293 58.32 
L 349.823129 58.32 
L 349.823129 52.02 
L 218.231293 52.02 
z
" clip-path="url(#pc067340651)" style="fill: #0000ff"/>
   </g>
   <g id="patch_287">
    <path d="M 218.231293 58.32 
L 349.823129 58.32 
L 349.823129 52.02 
L 218.231293 52.02 
z
" clip-path="url(#pc067340651)" style="fill: #0000ff"/>
   </g>
   <g id="patch_288">
    <path d="M 218.231293 58.32 
L 349.823129 58.32 
L 349.823129 52.02 
L 218.231293 52.02 
z
" clip-path="url(#pc067340651)" style="fill: #0000ff"/>
   </g>
   <g id="patch_289">
    <path d="M 218.231293 58.32 
L 353.197279 58.32 
L 353.197279 52.02 
L 218.231293 52.02 
z
" clip-path="url(#pc067340651)" style="fill: #0000ff"/>
   </g>
   <g id="patch_290">
    <path d="M 218.231293 58.32 
L 677.115646 58.32 
L 677.115646 52.02 
L 218.231293 52.02 
z
" clip-path="url(#pc067340651)" style="fill: #0000ff"/>
   </g>
   <g id="patch_291">
    <path d="M 218.231293 58.32 
L 327.891156 58.32 
L 327.891156 52.02 
L 218.231293 52.02 
z
" clip-path="url(#pc067340651)" style="fill: #0000ff"/>
   </g>
   <g id="patch_292">
    <path d="M 243.537415 58.32 
L 449.360544 58.32 
L 449.360544 52.02 
L 243.537415 52.02 
z
" clip-path="url(#pc067340651)" style="fill: #0000ff"/>
   </g>
   <g id="patch_293">
    <path d="M 418.993197 58.32 
L 734.47619 58.32 
L 734.47619 52.02 
L 418.993197 52.02 
z
" clip-path="url(#pc067340651)" style="fill: #0000ff"/>
   </g>
   <g id="patch_294">
    <path d="M 742.911565 55.40625 
L 867.755102 55.40625 
L 867.755102 54.93375 
L 742.911565 54.93375 
z
" clip-path="url(#pc067340651)" style="fill: #0000ff"/>
   </g>
   <g id="patch_295">
    <path d="M 144 39.65625 
L 182.802721 39.65625 
L 182.802721 39.18375 
L 144 39.18375 
z
" clip-path="url(#pc067340651)" style="fill: #0000ff"/>
   </g>
   <g id="patch_296">
    <path d="M 184.489796 42.57 
L 376.816327 42.57 
L 376.816327 36.27 
L 184.489796 36.27 
z
" clip-path="url(#pc067340651)" style="fill: #0000ff"/>
   </g>
   <g id="patch_297">
    <path d="M 184.489796 42.57 
L 361.632653 42.57 
L 361.632653 36.27 
L 184.489796 36.27 
z
" clip-path="url(#pc067340651)" style="fill: #0000ff"/>
   </g>
   <g id="patch_298">
    <path d="M 184.489796 42.57 
L 351.510204 42.57 
L 351.510204 36.27 
L 184.489796 36.27 
z
" clip-path="url(#pc067340651)" style="fill: #0000ff"/>
   </g>
   <g id="patch_299">
    <path d="M 184.489796 42.57 
L 321.142857 42.57 
L 321.142857 36.27 
L 184.489796 36.27 
z
" clip-path="url(#pc067340651)" style="fill: #0000ff"/>
   </g>
   <g id="patch_300">
    <path d="M 184.489796 42.57 
L 358.258503 42.57 
L 358.258503 36.27 
L 184.489796 36.27 
z
" clip-path="url(#pc067340651)" style="fill: #0000ff"/>
   </g>
   <g id="patch_301">
    <path d="M 184.489796 42.57 
L 963.918367 42.57 
L 963.918367 36.27 
L 184.489796 36.27 
z
" clip-path="url(#pc067340651)" style="fill: #0000ff"/>
   </g>
   <g id="patch_302">
    <path d="M 184.489796 42.57 
L 963.918367 42.57 
L 963.918367 36.27 
L 184.489796 36.27 
z
" clip-path="url(#pc067340651)" style="fill: #0000ff"/>
   </g>
   <g id="patch_303">
    <path d="M 186.176871 42.57 
L 327.891156 42.57 
L 327.891156 36.27 
L 186.176871 36.27 
z
" clip-path="url(#pc067340651)" style="fill: #0000ff"/>
   </g>
   <g id="patch_304">
    <path d="M 186.176871 42.57 
L 358.258503 42.57 
L 358.258503 36.27 
L 186.176871 36.27 
z
" clip-path="url(#pc067340651)" style="fill: #0000ff"/>
   </g>
   <g id="patch_305">
    <path d="M 186.176871 42.57 
L 354.884354 42.57 
L 354.884354 36.27 
L 186.176871 36.27 
z
" clip-path="url(#pc067340651)" style="fill: #0000ff"/>
   </g>
   <g id="patch_306">
    <path d="M 186.176871 42.57 
L 354.884354 42.57 
L 354.884354 36.27 
L 186.176871 36.27 
z
" clip-path="url(#pc067340651)" style="fill: #0000ff"/>
   </g>
   <g id="patch_307">
    <path d="M 186.176871 42.57 
L 354.884354 42.57 
L 354.884354 36.27 
L 186.176871 36.27 
z
" clip-path="url(#pc067340651)" style="fill: #0000ff"/>
   </g>
   <g id="patch_308">
    <path d="M 187.863946 42.57 
L 339.70068 42.57 
L 339.70068 36.27 
L 187.863946 36.27 
z
" clip-path="url(#pc067340651)" style="fill: #0000ff"/>
   </g>
   <g id="patch_309">
    <path d="M 187.863946 42.57 
L 370.068027 42.57 
L 370.068027 36.27 
L 187.863946 36.27 
z
" clip-path="url(#pc067340651)" style="fill: #0000ff"/>
   </g>
   <g id="patch_310">
    <path d="M 187.863946 42.57 
L 322.829932 42.57 
L 322.829932 36.27 
L 187.863946 36.27 
z
" clip-path="url(#pc067340651)" style="fill: #0000ff"/>
   </g>
   <g id="patch_311">
    <path d="M 187.863946 42.57 
L 353.197279 42.57 
L 353.197279 36.27 
L 187.863946 36.27 
z
" clip-path="url(#pc067340651)" style="fill: #0000ff"/>
   </g>
   <g id="patch_312">
    <path d="M 187.863946 42.57 
L 365.006803 42.57 
L 365.006803 36.27 
L 187.863946 36.27 
z
" clip-path="url(#pc067340651)" style="fill: #0000ff"/>
   </g>
   <g id="patch_313">
    <path d="M 187.863946 42.57 
L 354.884354 42.57 
L 354.884354 36.27 
L 187.863946 36.27 
z
" clip-path="url(#pc067340651)" style="fill: #0000ff"/>
   </g>
   <g id="patch_314">
    <path d="M 187.863946 42.57 
L 348.136054 42.57 
L 348.136054 36.27 
L 187.863946 36.27 
z
" clip-path="url(#pc067340651)" style="fill: #0000ff"/>
   </g>
   <g id="patch_315">
    <path d="M 187.863946 42.57 
L 361.632653 42.57 
L 361.632653 36.27 
L 187.863946 36.27 
z
" clip-path="url(#pc067340651)" style="fill: #0000ff"/>
   </g>
   <g id="patch_316">
    <path d="M 189.55102 42.57 
L 358.258503 42.57 
L 358.258503 36.27 
L 189.55102 36.27 
z
" clip-path="url(#pc067340651)" style="fill: #0000ff"/>
   </g>
   <g id="patch_317">
    <path d="M 192.92517 42.57 
L 329.578231 42.57 
L 329.578231 36.27 
L 192.92517 36.27 
z
" clip-path="url(#pc067340651)" style="fill: #0000ff"/>
   </g>
   <g id="patch_318">
    <path d="M 192.92517 42.57 
L 365.006803 42.57 
L 365.006803 36.27 
L 192.92517 36.27 
z
" clip-path="url(#pc067340651)" style="fill: #0000ff"/>
   </g>
   <g id="patch_319">
    <path d="M 194.612245 42.57 
L 339.70068 42.57 
L 339.70068 36.27 
L 194.612245 36.27 
z
" clip-path="url(#pc067340651)" style="fill: #0000ff"/>
   </g>
   <g id="patch_320">
    <path d="M 197.986395 42.57 
L 359.945578 42.57 
L 359.945578 36.27 
L 197.986395 36.27 
z
" clip-path="url(#pc067340651)" style="fill: #0000ff"/>
   </g>
   <g id="patch_321">
    <path d="M 216.544218 42.57 
L 327.891156 42.57 
L 327.891156 36.27 
L 216.544218 36.27 
z
" clip-path="url(#pc067340651)" style="fill: #0000ff"/>
   </g>
   <g id="patch_322">
    <path d="M 221.605442 42.57 
L 343.07483 42.57 
L 343.07483 36.27 
L 221.605442 36.27 
z
" clip-path="url(#pc067340651)" style="fill: #0000ff"/>
   </g>
   <g id="patch_323">
    <path d="M 223.292517 42.57 
L 353.197279 42.57 
L 353.197279 36.27 
L 223.292517 36.27 
z
" clip-path="url(#pc067340651)" style="fill: #0000ff"/>
   </g>
   <g id="patch_324">
    <path d="M 224.979592 42.57 
L 366.693878 42.57 
L 366.693878 36.27 
L 224.979592 36.27 
z
" clip-path="url(#pc067340651)" style="fill: #0000ff"/>
   </g>
   <g id="patch_325">
    <path d="M 224.979592 42.57 
L 327.891156 42.57 
L 327.891156 36.27 
L 224.979592 36.27 
z
" clip-path="url(#pc067340651)" style="fill: #0000ff"/>
   </g>
   <g id="patch_326">
    <path d="M 224.979592 42.57 
L 329.578231 42.57 
L 329.578231 36.27 
L 224.979592 36.27 
z
" clip-path="url(#pc067340651)" style="fill: #0000ff"/>
   </g>
   <g id="patch_327">
    <path d="M 224.979592 42.57 
L 351.510204 42.57 
L 351.510204 36.27 
L 224.979592 36.27 
z
" clip-path="url(#pc067340651)" style="fill: #0000ff"/>
   </g>
   <g id="patch_328">
    <path d="M 370.068027 42.57 
L 545.52381 42.57 
L 545.52381 36.27 
L 370.068027 36.27 
z
" clip-path="url(#pc067340651)" style="fill: #0000ff"/>
   </g>
   <g id="patch_329">
    <path d="M 370.068027 42.57 
L 547.210884 42.57 
L 547.210884 36.27 
L 370.068027 36.27 
z
" clip-path="url(#pc067340651)" style="fill: #0000ff"/>
   </g>
   <g id="patch_330">
    <path d="M 371.755102 42.57 
L 545.52381 42.57 
L 545.52381 36.27 
L 371.755102 36.27 
z
" clip-path="url(#pc067340651)" style="fill: #0000ff"/>
   </g>
   <g id="patch_331">
    <path d="M 412.244898 42.57 
L 741.22449 42.57 
L 741.22449 36.27 
L 412.244898 36.27 
z
" clip-path="url(#pc067340651)" style="fill: #0000ff"/>
   </g>
   <g id="patch_332">
    <path d="M 553.959184 42.57 
L 744.598639 42.57 
L 744.598639 36.27 
L 553.959184 36.27 
z
" clip-path="url(#pc067340651)" style="fill: #0000ff"/>
   </g>
   <g id="patch_333">
    <path d="M 557.333333 42.57 
L 744.598639 42.57 
L 744.598639 36.27 
L 557.333333 36.27 
z
" clip-path="url(#pc067340651)" style="fill: #0000ff"/>
   </g>
   <g id="patch_334">
    <path d="M 724.353741 42.57 
L 952.108844 42.57 
L 952.108844 36.27 
L 724.353741 36.27 
z
" clip-path="url(#pc067340651)" style="fill: #0000ff"/>
   </g>
   <g id="patch_335">
    <path d="M 774.965986 42.57 
L 906.557823 42.57 
L 906.557823 36.27 
L 774.965986 36.27 
z
" clip-path="url(#pc067340651)" style="fill: #0000ff"/>
   </g>
   <g id="patch_336">
    <path d="M 776.653061 42.57 
L 952.108844 42.57 
L 952.108844 36.27 
L 776.653061 36.27 
z
" clip-path="url(#pc067340651)" style="fill: #0000ff"/>
   </g>
   <g id="patch_337">
    <path d="M 776.653061 42.57 
L 906.557823 42.57 
L 906.557823 36.27 
L 776.653061 36.27 
z
" clip-path="url(#pc067340651)" style="fill: #0000ff"/>
   </g>
   <g id="patch_338">
    <path d="M 778.340136 42.57 
L 904.870748 42.57 
L 904.870748 36.27 
L 778.340136 36.27 
z
" clip-path="url(#pc067340651)" style="fill: #0000ff"/>
   </g>
   <g id="patch_339">
    <path d="M 778.340136 42.57 
L 955.482993 42.57 
L 955.482993 36.27 
L 778.340136 36.27 
z
" clip-path="url(#pc067340651)" style="fill: #0000ff"/>
   </g>
   <g id="patch_340">
    <path d="M 778.340136 42.57 
L 952.108844 42.57 
L 952.108844 36.27 
L 778.340136 36.27 
z
" clip-path="url(#pc067340651)" style="fill: #0000ff"/>
   </g>
   <g id="patch_341">
    <path d="M 778.340136 42.57 
L 948.734694 42.57 
L 948.734694 36.27 
L 778.340136 36.27 
z
" clip-path="url(#pc067340651)" style="fill: #0000ff"/>
   </g>
   <g id="patch_342">
    <path d="M 778.340136 42.57 
L 950.421769 42.57 
L 950.421769 36.27 
L 778.340136 36.27 
z
" clip-path="url(#pc067340651)" style="fill: #0000ff"/>
   </g>
   <g id="patch_343">
    <path d="M 778.340136 42.57 
L 955.482993 42.57 
L 955.482993 36.27 
L 778.340136 36.27 
z
" clip-path="url(#pc067340651)" style="fill: #0000ff"/>
   </g>
   <g id="patch_344">
    <path d="M 780.027211 42.57 
L 955.482993 42.57 
L 955.482993 36.27 
L 780.027211 36.27 
z
" clip-path="url(#pc067340651)" style="fill: #0000ff"/>
   </g>
   <g id="patch_345">
    <path d="M 780.027211 42.57 
L 908.244898 42.57 
L 908.244898 36.27 
L 780.027211 36.27 
z
" clip-path="url(#pc067340651)" style="fill: #0000ff"/>
   </g>
   <g id="patch_346">
    <path d="M 780.027211 42.57 
L 952.108844 42.57 
L 952.108844 36.27 
L 780.027211 36.27 
z
" clip-path="url(#pc067340651)" style="fill: #0000ff"/>
   </g>
   <g id="patch_347">
    <path d="M 780.027211 42.57 
L 952.108844 42.57 
L 952.108844 36.27 
L 780.027211 36.27 
z
" clip-path="url(#pc067340651)" style="fill: #0000ff"/>
   </g>
   <g id="patch_348">
    <path d="M 781.714286 42.57 
L 952.108844 42.57 
L 952.108844 36.27 
L 781.714286 36.27 
z
" clip-path="url(#pc067340651)" style="fill: #0000ff"/>
   </g>
   <g id="patch_349">
    <path d="M 785.088435 42.57 
L 930.176871 42.57 
L 930.176871 36.27 
L 785.088435 36.27 
z
" clip-path="url(#pc067340651)" style="fill: #0000ff"/>
   </g>
   <g id="patch_350">
    <path d="M 785.088435 42.57 
L 952.108844 42.57 
L 952.108844 36.27 
L 785.088435 36.27 
z
" clip-path="url(#pc067340651)" style="fill: #0000ff"/>
   </g>
   <g id="patch_351">
    <path d="M 785.088435 42.57 
L 958.857143 42.57 
L 958.857143 36.27 
L 785.088435 36.27 
z
" clip-path="url(#pc067340651)" style="fill: #0000ff"/>
   </g>
   <g id="patch_352">
    <path d="M 788.462585 42.57 
L 909.931973 42.57 
L 909.931973 36.27 
L 788.462585 36.27 
z
" clip-path="url(#pc067340651)" style="fill: #0000ff"/>
   </g>
   <g id="patch_353">
    <path d="M 788.462585 42.57 
L 923.428571 42.57 
L 923.428571 36.27 
L 788.462585 36.27 
z
" clip-path="url(#pc067340651)" style="fill: #0000ff"/>
   </g>
   <g id="patch_354">
    <path d="M 790.14966 42.57 
L 906.557823 42.57 
L 906.557823 36.27 
L 790.14966 36.27 
z
" clip-path="url(#pc067340651)" style="fill: #0000ff"/>
   </g>
   <g id="patch_355">
    <path d="M 790.14966 42.57 
L 958.857143 42.57 
L 958.857143 36.27 
L 790.14966 36.27 
z
" clip-path="url(#pc067340651)" style="fill: #0000ff"/>
   </g>
   <g id="patch_356">
    <path d="M 790.14966 42.57 
L 909.931973 42.57 
L 909.931973 36.27 
L 790.14966 36.27 
z
" clip-path="url(#pc067340651)" style="fill: #0000ff"/>
   </g>
   <g id="patch_357">
    <path d="M 790.14966 42.57 
L 947.047619 42.57 
L 947.047619 36.27 
L 790.14966 36.27 
z
" clip-path="url(#pc067340651)" style="fill: #0000ff"/>
   </g>
   <g id="patch_358">
    <path d="M 790.14966 42.57 
L 947.047619 42.57 
L 947.047619 36.27 
L 790.14966 36.27 
z
" clip-path="url(#pc067340651)" style="fill: #0000ff"/>
   </g>
   <g id="patch_359">
    <path d="M 791.836735 42.57 
L 950.421769 42.57 
L 950.421769 36.27 
L 791.836735 36.27 
z
" clip-path="url(#pc067340651)" style="fill: #0000ff"/>
   </g>
   <g id="patch_360">
    <path d="M 795.210884 42.57 
L 909.931973 42.57 
L 909.931973 36.27 
L 795.210884 36.27 
z
" clip-path="url(#pc067340651)" style="fill: #0000ff"/>
   </g>
   <g id="patch_361">
    <path d="M 795.210884 42.57 
L 958.857143 42.57 
L 958.857143 36.27 
L 795.210884 36.27 
z
" clip-path="url(#pc067340651)" style="fill: #0000ff"/>
   </g>
   <g id="patch_362">
    <path d="M 803.646259 42.57 
L 936.92517 42.57 
L 936.92517 36.27 
L 803.646259 36.27 
z
" clip-path="url(#pc067340651)" style="fill: #0000ff"/>
   </g>
   <g id="patch_363">
    <path d="M 805.333333 42.57 
L 952.108844 42.57 
L 952.108844 36.27 
L 805.333333 36.27 
z
" clip-path="url(#pc067340651)" style="fill: #0000ff"/>
   </g>
   <g id="patch_364">
    <path d="M 813.768707 42.57 
L 970.666667 42.57 
L 970.666667 36.27 
L 813.768707 36.27 
z
" clip-path="url(#pc067340651)" style="fill: #0000ff"/>
   </g>
   <g id="patch_365">
    <path d="M 813.768707 42.57 
L 909.931973 42.57 
L 909.931973 36.27 
L 813.768707 36.27 
z
" clip-path="url(#pc067340651)" style="fill: #0000ff"/>
   </g>
   <g id="patch_366">
    <path d="M 972.353741 39.65625 
L 994.285714 39.65625 
L 994.285714 39.18375 
L 972.353741 39.18375 
z
" clip-path="url(#pc067340651)" style="fill: #0000ff"/>
   </g>
   <g id="matplotlib.axis_1">
    <g id="xtick_1">
     <g id="line2d_1">
      <defs>
       <path id="m5e2e35a32b" d="M 0 0 
L 0 3.5 
" style="stroke: #000000; stroke-width: 0.8"/>
      </defs>
      <g>
       <use xlink:href="#m5e2e35a32b" x="311.020408" y="208.26" style="stroke: #000000; stroke-width: 0.8"/>
      </g>
     </g>
     <g id="text_1">
      <!-- 100 -->
      <g transform="translate(301.476658 222.858438) scale(0.1 -0.1)">
       <defs>
        <path id="DejaVuSans-31" d="M 794 531 
L 1825 531 
L 1825 4091 
L 703 3866 
L 703 4441 
L 1819 4666 
L 2450 4666 
L 2450 531 
L 3481 531 
L 3481 0 
L 794 0 
L 794 531 
z
" transform="scale(0.015625)"/>
        <path id="DejaVuSans-30" d="M 2034 4250 
Q 1547 4250 1301 3770 
Q 1056 3291 1056 2328 
Q 1056 1369 1301 889 
Q 1547 409 2034 409 
Q 2525 409 2770 889 
Q 3016 1369 3016 2328 
Q 3016 3291 2770 3770 
Q 2525 4250 2034 4250 
z
M 2034 4750 
Q 2819 4750 3233 4129 
Q 3647 3509 3647 2328 
Q 3647 1150 3233 529 
Q 2819 -91 2034 -91 
Q 1250 -91 836 529 
Q 422 1150 422 2328 
Q 422 3509 836 4129 
Q 1250 4750 2034 4750 
z
" transform="scale(0.015625)"/>
       </defs>
       <use xlink:href="#DejaVuSans-31"/>
       <use xlink:href="#DejaVuSans-30" x="63.623047"/>
       <use xlink:href="#DejaVuSans-30" x="127.246094"/>
      </g>
     </g>
    </g>
    <g id="xtick_2">
     <g id="line2d_2">
      <g>
       <use xlink:href="#m5e2e35a32b" x="479.727891" y="208.26" style="stroke: #000000; stroke-width: 0.8"/>
      </g>
     </g>
     <g id="text_2">
      <!-- 200 -->
      <g transform="translate(470.184141 222.858438) scale(0.1 -0.1)">
       <defs>
        <path id="DejaVuSans-32" d="M 1228 531 
L 3431 531 
L 3431 0 
L 469 0 
L 469 531 
Q 828 903 1448 1529 
Q 2069 2156 2228 2338 
Q 2531 2678 2651 2914 
Q 2772 3150 2772 3378 
Q 2772 3750 2511 3984 
Q 2250 4219 1831 4219 
Q 1534 4219 1204 4116 
Q 875 4013 500 3803 
L 500 4441 
Q 881 4594 1212 4672 
Q 1544 4750 1819 4750 
Q 2544 4750 2975 4387 
Q 3406 4025 3406 3419 
Q 3406 3131 3298 2873 
Q 3191 2616 2906 2266 
Q 2828 2175 2409 1742 
Q 1991 1309 1228 531 
z
" transform="scale(0.015625)"/>
       </defs>
       <use xlink:href="#DejaVuSans-32"/>
       <use xlink:href="#DejaVuSans-30" x="63.623047"/>
       <use xlink:href="#DejaVuSans-30" x="127.246094"/>
      </g>
     </g>
    </g>
    <g id="xtick_3">
     <g id="line2d_3">
      <g>
       <use xlink:href="#m5e2e35a32b" x="648.435374" y="208.26" style="stroke: #000000; stroke-width: 0.8"/>
      </g>
     </g>
     <g id="text_3">
      <!-- 300 -->
      <g transform="translate(638.891624 222.858438) scale(0.1 -0.1)">
       <defs>
        <path id="DejaVuSans-33" d="M 2597 2516 
Q 3050 2419 3304 2112 
Q 3559 1806 3559 1356 
Q 3559 666 3084 287 
Q 2609 -91 1734 -91 
Q 1441 -91 1130 -33 
Q 819 25 488 141 
L 488 750 
Q 750 597 1062 519 
Q 1375 441 1716 441 
Q 2309 441 2620 675 
Q 2931 909 2931 1356 
Q 2931 1769 2642 2001 
Q 2353 2234 1838 2234 
L 1294 2234 
L 1294 2753 
L 1863 2753 
Q 2328 2753 2575 2939 
Q 2822 3125 2822 3475 
Q 2822 3834 2567 4026 
Q 2313 4219 1838 4219 
Q 1578 4219 1281 4162 
Q 984 4106 628 3988 
L 628 4550 
Q 988 4650 1302 4700 
Q 1616 4750 1894 4750 
Q 2613 4750 3031 4423 
Q 3450 4097 3450 3541 
Q 3450 3153 3228 2886 
Q 3006 2619 2597 2516 
z
" transform="scale(0.015625)"/>
       </defs>
       <use xlink:href="#DejaVuSans-33"/>
       <use xlink:href="#DejaVuSans-30" x="63.623047"/>
       <use xlink:href="#DejaVuSans-30" x="127.246094"/>
      </g>
     </g>
    </g>
    <g id="xtick_4">
     <g id="line2d_4">
      <g>
       <use xlink:href="#m5e2e35a32b" x="817.142857" y="208.26" style="stroke: #000000; stroke-width: 0.8"/>
      </g>
     </g>
     <g id="text_4">
      <!-- 400 -->
      <g transform="translate(807.599107 222.858438) scale(0.1 -0.1)">
       <defs>
        <path id="DejaVuSans-34" d="M 2419 4116 
L 825 1625 
L 2419 1625 
L 2419 4116 
z
M 2253 4666 
L 3047 4666 
L 3047 1625 
L 3713 1625 
L 3713 1100 
L 3047 1100 
L 3047 0 
L 2419 0 
L 2419 1100 
L 313 1100 
L 313 1709 
L 2253 4666 
z
" transform="scale(0.015625)"/>
       </defs>
       <use xlink:href="#DejaVuSans-34"/>
       <use xlink:href="#DejaVuSans-30" x="63.623047"/>
       <use xlink:href="#DejaVuSans-30" x="127.246094"/>
      </g>
     </g>
    </g>
    <g id="xtick_5">
     <g id="line2d_5">
      <g>
       <use xlink:href="#m5e2e35a32b" x="985.85034" y="208.26" style="stroke: #000000; stroke-width: 0.8"/>
      </g>
     </g>
     <g id="text_5">
      <!-- 500 -->
      <g transform="translate(976.30659 222.858438) scale(0.1 -0.1)">
       <defs>
        <path id="DejaVuSans-35" d="M 691 4666 
L 3169 4666 
L 3169 4134 
L 1269 4134 
L 1269 2991 
Q 1406 3038 1543 3061 
Q 1681 3084 1819 3084 
Q 2600 3084 3056 2656 
Q 3513 2228 3513 1497 
Q 3513 744 3044 326 
Q 2575 -91 1722 -91 
Q 1428 -91 1123 -41 
Q 819 9 494 109 
L 494 744 
Q 775 591 1075 516 
Q 1375 441 1709 441 
Q 2250 441 2565 725 
Q 2881 1009 2881 1497 
Q 2881 1984 2565 2268 
Q 2250 2553 1709 2553 
Q 1456 2553 1204 2497 
Q 953 2441 691 2322 
L 691 4666 
z
" transform="scale(0.015625)"/>
       </defs>
       <use xlink:href="#DejaVuSans-35"/>
       <use xlink:href="#DejaVuSans-30" x="63.623047"/>
       <use xlink:href="#DejaVuSans-30" x="127.246094"/>
      </g>
     </g>
    </g>
    <g id="text_6">
     <!-- Residual -->
     <g transform="translate(569.284375 236.536563) scale(0.1 -0.1)">
      <defs>
       <path id="DejaVuSans-52" d="M 2841 2188 
Q 3044 2119 3236 1894 
Q 3428 1669 3622 1275 
L 4263 0 
L 3584 0 
L 2988 1197 
Q 2756 1666 2539 1819 
Q 2322 1972 1947 1972 
L 1259 1972 
L 1259 0 
L 628 0 
L 628 4666 
L 2053 4666 
Q 2853 4666 3247 4331 
Q 3641 3997 3641 3322 
Q 3641 2881 3436 2590 
Q 3231 2300 2841 2188 
z
M 1259 4147 
L 1259 2491 
L 2053 2491 
Q 2509 2491 2742 2702 
Q 2975 2913 2975 3322 
Q 2975 3731 2742 3939 
Q 2509 4147 2053 4147 
L 1259 4147 
z
" transform="scale(0.015625)"/>
       <path id="DejaVuSans-65" d="M 3597 1894 
L 3597 1613 
L 953 1613 
Q 991 1019 1311 708 
Q 1631 397 2203 397 
Q 2534 397 2845 478 
Q 3156 559 3463 722 
L 3463 178 
Q 3153 47 2828 -22 
Q 2503 -91 2169 -91 
Q 1331 -91 842 396 
Q 353 884 353 1716 
Q 353 2575 817 3079 
Q 1281 3584 2069 3584 
Q 2775 3584 3186 3129 
Q 3597 2675 3597 1894 
z
M 3022 2063 
Q 3016 2534 2758 2815 
Q 2500 3097 2075 3097 
Q 1594 3097 1305 2825 
Q 1016 2553 972 2059 
L 3022 2063 
z
" transform="scale(0.015625)"/>
       <path id="DejaVuSans-73" d="M 2834 3397 
L 2834 2853 
Q 2591 2978 2328 3040 
Q 2066 3103 1784 3103 
Q 1356 3103 1142 2972 
Q 928 2841 928 2578 
Q 928 2378 1081 2264 
Q 1234 2150 1697 2047 
L 1894 2003 
Q 2506 1872 2764 1633 
Q 3022 1394 3022 966 
Q 3022 478 2636 193 
Q 2250 -91 1575 -91 
Q 1294 -91 989 -36 
Q 684 19 347 128 
L 347 722 
Q 666 556 975 473 
Q 1284 391 1588 391 
Q 1994 391 2212 530 
Q 2431 669 2431 922 
Q 2431 1156 2273 1281 
Q 2116 1406 1581 1522 
L 1381 1569 
Q 847 1681 609 1914 
Q 372 2147 372 2553 
Q 372 3047 722 3315 
Q 1072 3584 1716 3584 
Q 2034 3584 2315 3537 
Q 2597 3491 2834 3397 
z
" transform="scale(0.015625)"/>
       <path id="DejaVuSans-69" d="M 603 3500 
L 1178 3500 
L 1178 0 
L 603 0 
L 603 3500 
z
M 603 4863 
L 1178 4863 
L 1178 4134 
L 603 4134 
L 603 4863 
z
" transform="scale(0.015625)"/>
       <path id="DejaVuSans-64" d="M 2906 2969 
L 2906 4863 
L 3481 4863 
L 3481 0 
L 2906 0 
L 2906 525 
Q 2725 213 2448 61 
Q 2172 -91 1784 -91 
Q 1150 -91 751 415 
Q 353 922 353 1747 
Q 353 2572 751 3078 
Q 1150 3584 1784 3584 
Q 2172 3584 2448 3432 
Q 2725 3281 2906 2969 
z
M 947 1747 
Q 947 1113 1208 752 
Q 1469 391 1925 391 
Q 2381 391 2643 752 
Q 2906 1113 2906 1747 
Q 2906 2381 2643 2742 
Q 2381 3103 1925 3103 
Q 1469 3103 1208 2742 
Q 947 2381 947 1747 
z
" transform="scale(0.015625)"/>
       <path id="DejaVuSans-75" d="M 544 1381 
L 544 3500 
L 1119 3500 
L 1119 1403 
Q 1119 906 1312 657 
Q 1506 409 1894 409 
Q 2359 409 2629 706 
Q 2900 1003 2900 1516 
L 2900 3500 
L 3475 3500 
L 3475 0 
L 2900 0 
L 2900 538 
Q 2691 219 2414 64 
Q 2138 -91 1772 -91 
Q 1169 -91 856 284 
Q 544 659 544 1381 
z
M 1991 3584 
L 1991 3584 
z
" transform="scale(0.015625)"/>
       <path id="DejaVuSans-61" d="M 2194 1759 
Q 1497 1759 1228 1600 
Q 959 1441 959 1056 
Q 959 750 1161 570 
Q 1363 391 1709 391 
Q 2188 391 2477 730 
Q 2766 1069 2766 1631 
L 2766 1759 
L 2194 1759 
z
M 3341 1997 
L 3341 0 
L 2766 0 
L 2766 531 
Q 2569 213 2275 61 
Q 1981 -91 1556 -91 
Q 1019 -91 701 211 
Q 384 513 384 1019 
Q 384 1609 779 1909 
Q 1175 2209 1959 2209 
L 2766 2209 
L 2766 2266 
Q 2766 2663 2505 2880 
Q 2244 3097 1772 3097 
Q 1472 3097 1187 3025 
Q 903 2953 641 2809 
L 641 3341 
Q 956 3463 1253 3523 
Q 1550 3584 1831 3584 
Q 2591 3584 2966 3190 
Q 3341 2797 3341 1997 
z
" transform="scale(0.015625)"/>
       <path id="DejaVuSans-6c" d="M 603 4863 
L 1178 4863 
L 1178 0 
L 603 0 
L 603 4863 
z
" transform="scale(0.015625)"/>
      </defs>
      <use xlink:href="#DejaVuSans-52"/>
      <use xlink:href="#DejaVuSans-65" x="64.982422"/>
      <use xlink:href="#DejaVuSans-73" x="126.505859"/>
      <use xlink:href="#DejaVuSans-69" x="178.605469"/>
      <use xlink:href="#DejaVuSans-64" x="206.388672"/>
      <use xlink:href="#DejaVuSans-75" x="269.865234"/>
      <use xlink:href="#DejaVuSans-61" x="333.244141"/>
      <use xlink:href="#DejaVuSans-6c" x="394.523438"/>
     </g>
    </g>
   </g>
   <g id="matplotlib.axis_2">
    <g id="ytick_1">
     <g id="line2d_6">
      <defs>
       <path id="m90374acb29" d="M 0 0 
L -3.5 0 
" style="stroke: #000000; stroke-width: 0.8"/>
      </defs>
      <g>
       <use xlink:href="#m90374acb29" x="144" y="196.92" style="stroke: #000000; stroke-width: 0.8"/>
      </g>
     </g>
     <g id="text_7">
      <!-- 8.A.88.1.1 -->
      <g transform="translate(85.809375 200.719219) scale(0.1 -0.1)">
       <defs>
        <path id="DejaVuSans-38" d="M 2034 2216 
Q 1584 2216 1326 1975 
Q 1069 1734 1069 1313 
Q 1069 891 1326 650 
Q 1584 409 2034 409 
Q 2484 409 2743 651 
Q 3003 894 3003 1313 
Q 3003 1734 2745 1975 
Q 2488 2216 2034 2216 
z
M 1403 2484 
Q 997 2584 770 2862 
Q 544 3141 544 3541 
Q 544 4100 942 4425 
Q 1341 4750 2034 4750 
Q 2731 4750 3128 4425 
Q 3525 4100 3525 3541 
Q 3525 3141 3298 2862 
Q 3072 2584 2669 2484 
Q 3125 2378 3379 2068 
Q 3634 1759 3634 1313 
Q 3634 634 3220 271 
Q 2806 -91 2034 -91 
Q 1263 -91 848 271 
Q 434 634 434 1313 
Q 434 1759 690 2068 
Q 947 2378 1403 2484 
z
M 1172 3481 
Q 1172 3119 1398 2916 
Q 1625 2713 2034 2713 
Q 2441 2713 2670 2916 
Q 2900 3119 2900 3481 
Q 2900 3844 2670 4047 
Q 2441 4250 2034 4250 
Q 1625 4250 1398 4047 
Q 1172 3844 1172 3481 
z
" transform="scale(0.015625)"/>
        <path id="DejaVuSans-2e" d="M 684 794 
L 1344 794 
L 1344 0 
L 684 0 
L 684 794 
z
" transform="scale(0.015625)"/>
        <path id="DejaVuSans-41" d="M 2188 4044 
L 1331 1722 
L 3047 1722 
L 2188 4044 
z
M 1831 4666 
L 2547 4666 
L 4325 0 
L 3669 0 
L 3244 1197 
L 1141 1197 
L 716 0 
L 50 0 
L 1831 4666 
z
" transform="scale(0.015625)"/>
       </defs>
       <use xlink:href="#DejaVuSans-38"/>
       <use xlink:href="#DejaVuSans-2e" x="63.623047"/>
       <use xlink:href="#DejaVuSans-41" x="95.410156"/>
       <use xlink:href="#DejaVuSans-2e" x="162.068359"/>
       <use xlink:href="#DejaVuSans-38" x="193.855469"/>
       <use xlink:href="#DejaVuSans-38" x="257.478516"/>
       <use xlink:href="#DejaVuSans-2e" x="321.101562"/>
       <use xlink:href="#DejaVuSans-31" x="352.888672"/>
       <use xlink:href="#DejaVuSans-2e" x="416.511719"/>
       <use xlink:href="#DejaVuSans-31" x="448.298828"/>
      </g>
     </g>
    </g>
    <g id="ytick_2">
     <g id="line2d_7">
      <g>
       <use xlink:href="#m90374acb29" x="144" y="181.17" style="stroke: #000000; stroke-width: 0.8"/>
      </g>
     </g>
     <g id="text_8">
      <!-- 8.A.88.1.2 -->
      <g transform="translate(85.809375 184.969219) scale(0.1 -0.1)">
       <use xlink:href="#DejaVuSans-38"/>
       <use xlink:href="#DejaVuSans-2e" x="63.623047"/>
       <use xlink:href="#DejaVuSans-41" x="95.410156"/>
       <use xlink:href="#DejaVuSans-2e" x="162.068359"/>
       <use xlink:href="#DejaVuSans-38" x="193.855469"/>
       <use xlink:href="#DejaVuSans-38" x="257.478516"/>
       <use xlink:href="#DejaVuSans-2e" x="321.101562"/>
       <use xlink:href="#DejaVuSans-31" x="352.888672"/>
       <use xlink:href="#DejaVuSans-2e" x="416.511719"/>
       <use xlink:href="#DejaVuSans-32" x="448.298828"/>
      </g>
     </g>
    </g>
    <g id="ytick_3">
     <g id="line2d_8">
      <g>
       <use xlink:href="#m90374acb29" x="144" y="165.42" style="stroke: #000000; stroke-width: 0.8"/>
      </g>
     </g>
     <g id="text_9">
      <!-- 8.A.88.1.3 -->
      <g transform="translate(85.809375 169.219219) scale(0.1 -0.1)">
       <use xlink:href="#DejaVuSans-38"/>
       <use xlink:href="#DejaVuSans-2e" x="63.623047"/>
       <use xlink:href="#DejaVuSans-41" x="95.410156"/>
       <use xlink:href="#DejaVuSans-2e" x="162.068359"/>
       <use xlink:href="#DejaVuSans-38" x="193.855469"/>
       <use xlink:href="#DejaVuSans-38" x="257.478516"/>
       <use xlink:href="#DejaVuSans-2e" x="321.101562"/>
       <use xlink:href="#DejaVuSans-31" x="352.888672"/>
       <use xlink:href="#DejaVuSans-2e" x="416.511719"/>
       <use xlink:href="#DejaVuSans-33" x="448.298828"/>
      </g>
     </g>
    </g>
    <g id="ytick_4">
     <g id="line2d_9">
      <g>
       <use xlink:href="#m90374acb29" x="144" y="149.67" style="stroke: #000000; stroke-width: 0.8"/>
      </g>
     </g>
     <g id="text_10">
      <!-- 8.A.88.1.5 -->
      <g transform="translate(85.809375 153.469219) scale(0.1 -0.1)">
       <use xlink:href="#DejaVuSans-38"/>
       <use xlink:href="#DejaVuSans-2e" x="63.623047"/>
       <use xlink:href="#DejaVuSans-41" x="95.410156"/>
       <use xlink:href="#DejaVuSans-2e" x="162.068359"/>
       <use xlink:href="#DejaVuSans-38" x="193.855469"/>
       <use xlink:href="#DejaVuSans-38" x="257.478516"/>
       <use xlink:href="#DejaVuSans-2e" x="321.101562"/>
       <use xlink:href="#DejaVuSans-31" x="352.888672"/>
       <use xlink:href="#DejaVuSans-2e" x="416.511719"/>
       <use xlink:href="#DejaVuSans-35" x="448.298828"/>
      </g>
     </g>
    </g>
    <g id="ytick_5">
     <g id="line2d_10">
      <g>
       <use xlink:href="#m90374acb29" x="144" y="133.92" style="stroke: #000000; stroke-width: 0.8"/>
      </g>
     </g>
     <g id="text_11">
      <!-- 8.A.88.2.1 -->
      <g transform="translate(85.809375 137.719219) scale(0.1 -0.1)">
       <use xlink:href="#DejaVuSans-38"/>
       <use xlink:href="#DejaVuSans-2e" x="63.623047"/>
       <use xlink:href="#DejaVuSans-41" x="95.410156"/>
       <use xlink:href="#DejaVuSans-2e" x="162.068359"/>
       <use xlink:href="#DejaVuSans-38" x="193.855469"/>
       <use xlink:href="#DejaVuSans-38" x="257.478516"/>
       <use xlink:href="#DejaVuSans-2e" x="321.101562"/>
       <use xlink:href="#DejaVuSans-32" x="352.888672"/>
       <use xlink:href="#DejaVuSans-2e" x="416.511719"/>
       <use xlink:href="#DejaVuSans-31" x="448.298828"/>
      </g>
     </g>
    </g>
    <g id="ytick_6">
     <g id="line2d_11">
      <g>
       <use xlink:href="#m90374acb29" x="144" y="118.17" style="stroke: #000000; stroke-width: 0.8"/>
      </g>
     </g>
     <g id="text_12">
      <!-- 8.A.88.2.2 -->
      <g transform="translate(85.809375 121.969219) scale(0.1 -0.1)">
       <use xlink:href="#DejaVuSans-38"/>
       <use xlink:href="#DejaVuSans-2e" x="63.623047"/>
       <use xlink:href="#DejaVuSans-41" x="95.410156"/>
       <use xlink:href="#DejaVuSans-2e" x="162.068359"/>
       <use xlink:href="#DejaVuSans-38" x="193.855469"/>
       <use xlink:href="#DejaVuSans-38" x="257.478516"/>
       <use xlink:href="#DejaVuSans-2e" x="321.101562"/>
       <use xlink:href="#DejaVuSans-32" x="352.888672"/>
       <use xlink:href="#DejaVuSans-2e" x="416.511719"/>
       <use xlink:href="#DejaVuSans-32" x="448.298828"/>
      </g>
     </g>
    </g>
    <g id="ytick_7">
     <g id="line2d_12">
      <g>
       <use xlink:href="#m90374acb29" x="144" y="102.42" style="stroke: #000000; stroke-width: 0.8"/>
      </g>
     </g>
     <g id="text_13">
      <!-- 8.A.88.2.3 -->
      <g transform="translate(85.809375 106.219219) scale(0.1 -0.1)">
       <use xlink:href="#DejaVuSans-38"/>
       <use xlink:href="#DejaVuSans-2e" x="63.623047"/>
       <use xlink:href="#DejaVuSans-41" x="95.410156"/>
       <use xlink:href="#DejaVuSans-2e" x="162.068359"/>
       <use xlink:href="#DejaVuSans-38" x="193.855469"/>
       <use xlink:href="#DejaVuSans-38" x="257.478516"/>
       <use xlink:href="#DejaVuSans-2e" x="321.101562"/>
       <use xlink:href="#DejaVuSans-32" x="352.888672"/>
       <use xlink:href="#DejaVuSans-2e" x="416.511719"/>
       <use xlink:href="#DejaVuSans-33" x="448.298828"/>
      </g>
     </g>
    </g>
    <g id="ytick_8">
     <g id="line2d_13">
      <g>
       <use xlink:href="#m90374acb29" x="144" y="86.67" style="stroke: #000000; stroke-width: 0.8"/>
      </g>
     </g>
     <g id="text_14">
      <!-- 8.A.88.2.4 -->
      <g transform="translate(85.809375 90.469219) scale(0.1 -0.1)">
       <use xlink:href="#DejaVuSans-38"/>
       <use xlink:href="#DejaVuSans-2e" x="63.623047"/>
       <use xlink:href="#DejaVuSans-41" x="95.410156"/>
       <use xlink:href="#DejaVuSans-2e" x="162.068359"/>
       <use xlink:href="#DejaVuSans-38" x="193.855469"/>
       <use xlink:href="#DejaVuSans-38" x="257.478516"/>
       <use xlink:href="#DejaVuSans-2e" x="321.101562"/>
       <use xlink:href="#DejaVuSans-32" x="352.888672"/>
       <use xlink:href="#DejaVuSans-2e" x="416.511719"/>
       <use xlink:href="#DejaVuSans-34" x="448.298828"/>
      </g>
     </g>
    </g>
    <g id="ytick_9">
     <g id="line2d_14">
      <g>
       <use xlink:href="#m90374acb29" x="144" y="70.92" style="stroke: #000000; stroke-width: 0.8"/>
      </g>
     </g>
     <g id="text_15">
      <!-- 8.A.88.2.5 -->
      <g transform="translate(85.809375 74.719219) scale(0.1 -0.1)">
       <use xlink:href="#DejaVuSans-38"/>
       <use xlink:href="#DejaVuSans-2e" x="63.623047"/>
       <use xlink:href="#DejaVuSans-41" x="95.410156"/>
       <use xlink:href="#DejaVuSans-2e" x="162.068359"/>
       <use xlink:href="#DejaVuSans-38" x="193.855469"/>
       <use xlink:href="#DejaVuSans-38" x="257.478516"/>
       <use xlink:href="#DejaVuSans-2e" x="321.101562"/>
       <use xlink:href="#DejaVuSans-32" x="352.888672"/>
       <use xlink:href="#DejaVuSans-2e" x="416.511719"/>
       <use xlink:href="#DejaVuSans-35" x="448.298828"/>
      </g>
     </g>
    </g>
    <g id="ytick_10">
     <g id="line2d_15">
      <g>
       <use xlink:href="#m90374acb29" x="144" y="55.17" style="stroke: #000000; stroke-width: 0.8"/>
      </g>
     </g>
     <g id="text_16">
      <!-- 8.A.88.2.6 -->
      <g transform="translate(85.809375 58.969219) scale(0.1 -0.1)">
       <defs>
        <path id="DejaVuSans-36" d="M 2113 2584 
Q 1688 2584 1439 2293 
Q 1191 2003 1191 1497 
Q 1191 994 1439 701 
Q 1688 409 2113 409 
Q 2538 409 2786 701 
Q 3034 994 3034 1497 
Q 3034 2003 2786 2293 
Q 2538 2584 2113 2584 
z
M 3366 4563 
L 3366 3988 
Q 3128 4100 2886 4159 
Q 2644 4219 2406 4219 
Q 1781 4219 1451 3797 
Q 1122 3375 1075 2522 
Q 1259 2794 1537 2939 
Q 1816 3084 2150 3084 
Q 2853 3084 3261 2657 
Q 3669 2231 3669 1497 
Q 3669 778 3244 343 
Q 2819 -91 2113 -91 
Q 1303 -91 875 529 
Q 447 1150 447 2328 
Q 447 3434 972 4092 
Q 1497 4750 2381 4750 
Q 2619 4750 2861 4703 
Q 3103 4656 3366 4563 
z
" transform="scale(0.015625)"/>
       </defs>
       <use xlink:href="#DejaVuSans-38"/>
       <use xlink:href="#DejaVuSans-2e" x="63.623047"/>
       <use xlink:href="#DejaVuSans-41" x="95.410156"/>
       <use xlink:href="#DejaVuSans-2e" x="162.068359"/>
       <use xlink:href="#DejaVuSans-38" x="193.855469"/>
       <use xlink:href="#DejaVuSans-38" x="257.478516"/>
       <use xlink:href="#DejaVuSans-2e" x="321.101562"/>
       <use xlink:href="#DejaVuSans-32" x="352.888672"/>
       <use xlink:href="#DejaVuSans-2e" x="416.511719"/>
       <use xlink:href="#DejaVuSans-36" x="448.298828"/>
      </g>
     </g>
    </g>
    <g id="ytick_11">
     <g id="line2d_16">
      <g>
       <use xlink:href="#m90374acb29" x="144" y="39.42" style="stroke: #000000; stroke-width: 0.8"/>
      </g>
     </g>
     <g id="text_17">
      <!-- 8.A.88.2.7 -->
      <g transform="translate(85.809375 43.219219) scale(0.1 -0.1)">
       <defs>
        <path id="DejaVuSans-37" d="M 525 4666 
L 3525 4666 
L 3525 4397 
L 1831 0 
L 1172 0 
L 2766 4134 
L 525 4134 
L 525 4666 
z
" transform="scale(0.015625)"/>
       </defs>
       <use xlink:href="#DejaVuSans-38"/>
       <use xlink:href="#DejaVuSans-2e" x="63.623047"/>
       <use xlink:href="#DejaVuSans-41" x="95.410156"/>
       <use xlink:href="#DejaVuSans-2e" x="162.068359"/>
       <use xlink:href="#DejaVuSans-38" x="193.855469"/>
       <use xlink:href="#DejaVuSans-38" x="257.478516"/>
       <use xlink:href="#DejaVuSans-2e" x="321.101562"/>
       <use xlink:href="#DejaVuSans-32" x="352.888672"/>
       <use xlink:href="#DejaVuSans-2e" x="416.511719"/>
       <use xlink:href="#DejaVuSans-37" x="448.298828"/>
      </g>
     </g>
    </g>
   </g>
   <g id="patch_367">
    <path d="M 144 208.26 
L 144 28.08 
" style="fill: none; stroke: #000000; stroke-width: 0.8; stroke-linejoin: miter; stroke-linecap: square"/>
   </g>
   <g id="patch_368">
    <path d="M 1036.8 208.26 
L 1036.8 28.08 
" style="fill: none; stroke: #000000; stroke-width: 0.8; stroke-linejoin: miter; stroke-linecap: square"/>
   </g>
   <g id="patch_369">
    <path d="M 144 208.26 
L 1036.8 208.26 
" style="fill: none; stroke: #000000; stroke-width: 0.8; stroke-linejoin: miter; stroke-linecap: square"/>
   </g>
   <g id="patch_370">
    <path d="M 144 28.08 
L 1036.8 28.08 
" style="fill: none; stroke: #000000; stroke-width: 0.8; stroke-linejoin: miter; stroke-linecap: square"/>
   </g>
   <g id="text_18">
    <!-- 8.A.88 Summary -->
    <g transform="translate(540.2325 22.08) scale(0.12 -0.12)">
     <defs>
      <path id="DejaVuSans-20" transform="scale(0.015625)"/>
      <path id="DejaVuSans-53" d="M 3425 4513 
L 3425 3897 
Q 3066 4069 2747 4153 
Q 2428 4238 2131 4238 
Q 1616 4238 1336 4038 
Q 1056 3838 1056 3469 
Q 1056 3159 1242 3001 
Q 1428 2844 1947 2747 
L 2328 2669 
Q 3034 2534 3370 2195 
Q 3706 1856 3706 1288 
Q 3706 609 3251 259 
Q 2797 -91 1919 -91 
Q 1588 -91 1214 -16 
Q 841 59 441 206 
L 441 856 
Q 825 641 1194 531 
Q 1563 422 1919 422 
Q 2459 422 2753 634 
Q 3047 847 3047 1241 
Q 3047 1584 2836 1778 
Q 2625 1972 2144 2069 
L 1759 2144 
Q 1053 2284 737 2584 
Q 422 2884 422 3419 
Q 422 4038 858 4394 
Q 1294 4750 2059 4750 
Q 2388 4750 2728 4690 
Q 3069 4631 3425 4513 
z
" transform="scale(0.015625)"/>
      <path id="DejaVuSans-6d" d="M 3328 2828 
Q 3544 3216 3844 3400 
Q 4144 3584 4550 3584 
Q 5097 3584 5394 3201 
Q 5691 2819 5691 2113 
L 5691 0 
L 5113 0 
L 5113 2094 
Q 5113 2597 4934 2840 
Q 4756 3084 4391 3084 
Q 3944 3084 3684 2787 
Q 3425 2491 3425 1978 
L 3425 0 
L 2847 0 
L 2847 2094 
Q 2847 2600 2669 2842 
Q 2491 3084 2119 3084 
Q 1678 3084 1418 2786 
Q 1159 2488 1159 1978 
L 1159 0 
L 581 0 
L 581 3500 
L 1159 3500 
L 1159 2956 
Q 1356 3278 1631 3431 
Q 1906 3584 2284 3584 
Q 2666 3584 2933 3390 
Q 3200 3197 3328 2828 
z
" transform="scale(0.015625)"/>
      <path id="DejaVuSans-72" d="M 2631 2963 
Q 2534 3019 2420 3045 
Q 2306 3072 2169 3072 
Q 1681 3072 1420 2755 
Q 1159 2438 1159 1844 
L 1159 0 
L 581 0 
L 581 3500 
L 1159 3500 
L 1159 2956 
Q 1341 3275 1631 3429 
Q 1922 3584 2338 3584 
Q 2397 3584 2469 3576 
Q 2541 3569 2628 3553 
L 2631 2963 
z
" transform="scale(0.015625)"/>
      <path id="DejaVuSans-79" d="M 2059 -325 
Q 1816 -950 1584 -1140 
Q 1353 -1331 966 -1331 
L 506 -1331 
L 506 -850 
L 844 -850 
Q 1081 -850 1212 -737 
Q 1344 -625 1503 -206 
L 1606 56 
L 191 3500 
L 800 3500 
L 1894 763 
L 2988 3500 
L 3597 3500 
L 2059 -325 
z
" transform="scale(0.015625)"/>
     </defs>
     <use xlink:href="#DejaVuSans-38"/>
     <use xlink:href="#DejaVuSans-2e" x="63.623047"/>
     <use xlink:href="#DejaVuSans-41" x="95.410156"/>
     <use xlink:href="#DejaVuSans-2e" x="162.068359"/>
     <use xlink:href="#DejaVuSans-38" x="193.855469"/>
     <use xlink:href="#DejaVuSans-38" x="257.478516"/>
     <use xlink:href="#DejaVuSans-20" x="321.101562"/>
     <use xlink:href="#DejaVuSans-53" x="352.888672"/>
     <use xlink:href="#DejaVuSans-75" x="416.365234"/>
     <use xlink:href="#DejaVuSans-6d" x="479.744141"/>
     <use xlink:href="#DejaVuSans-6d" x="577.15625"/>
     <use xlink:href="#DejaVuSans-61" x="674.568359"/>
     <use xlink:href="#DejaVuSans-72" x="735.847656"/>
     <use xlink:href="#DejaVuSans-79" x="776.960938"/>
    </g>
   </g>
  </g>
 </g>
 <defs>
  <clipPath id="pc067340651">
   <rect x="144" y="28.08" width="892.8" height="180.18"/>
  </clipPath>
 </defs>
</svg>
