<?xml version="1.0" encoding="utf-8" standalone="no"?>
<!DOCTYPE svg PUBLIC "-//W3C//DTD SVG 1.1//EN"
  "http://www.w3.org/Graphics/SVG/1.1/DTD/svg11.dtd">
<svg xmlns:xlink="http://www.w3.org/1999/xlink" width="1152pt" height="144pt" viewBox="0 0 1152 144" xmlns="http://www.w3.org/2000/svg" version="1.1">
 <metadata>
  <rdf:RDF xmlns:dc="http://purl.org/dc/elements/1.1/" xmlns:cc="http://creativecommons.org/ns#" xmlns:rdf="http://www.w3.org/1999/02/22-rdf-syntax-ns#">
   <cc:Work>
    <dc:type rdf:resource="http://purl.org/dc/dcmitype/StillImage"/>
    <dc:date>2024-10-10T19:21:10.877166</dc:date>
    <dc:format>image/svg+xml</dc:format>
    <dc:creator>
     <cc:Agent>
      <dc:title>Matplotlib v3.9.2, https://matplotlib.org/</dc:title>
     </cc:Agent>
    </dc:creator>
   </cc:Work>
  </rdf:RDF>
 </metadata>
 <defs>
  <style type="text/css">*{stroke-linejoin: round; stroke-linecap: butt}</style>
 </defs>
 <g id="figure_1">
  <g id="patch_1">
   <path d="M 0 144 
L 1152 144 
L 1152 0 
L 0 0 
z
" style="fill: #ffffff"/>
  </g>
  <g id="axes_1">
   <g id="patch_2">
    <path d="M 144 128.16 
L 1036.8 128.16 
L 1036.8 17.28 
L 144 17.28 
z
" style="fill: #ffffff"/>
   </g>
   <g id="patch_3">
    <path d="M 144 119.666667 
L 177.643453 119.666667 
L 177.643453 119.106667 
L 144 119.106667 
z
" clip-path="url(#p7d21587332)" style="fill: #0000ff"/>
   </g>
   <g id="patch_4">
    <path d="M 177.906293 123.12 
L 193.150983 123.12 
L 193.150983 115.653333 
L 177.906293 115.653333 
z
" clip-path="url(#p7d21587332)" style="fill: #0000ff"/>
   </g>
   <g id="patch_5">
    <path d="M 193.413822 119.666667 
L 230.211349 119.666667 
L 230.211349 119.106667 
L 193.413822 119.106667 
z
" clip-path="url(#p7d21587332)" style="fill: #0000ff"/>
   </g>
   <g id="patch_6">
    <path d="M 230.474189 123.12 
L 249.661471 123.12 
L 249.661471 115.653333 
L 230.474189 115.653333 
z
" clip-path="url(#p7d21587332)" style="fill: #0000ff"/>
   </g>
   <g id="patch_7">
    <path d="M 230.474189 123.12 
L 249.92431 123.12 
L 249.92431 115.653333 
L 230.474189 115.653333 
z
" clip-path="url(#p7d21587332)" style="fill: #0000ff"/>
   </g>
   <g id="patch_8">
    <path d="M 230.737028 123.12 
L 249.92431 123.12 
L 249.92431 115.653333 
L 230.737028 115.653333 
z
" clip-path="url(#p7d21587332)" style="fill: #0000ff"/>
   </g>
   <g id="patch_9">
    <path d="M 250.187149 119.666667 
L 356.111459 119.666667 
L 356.111459 119.106667 
L 250.187149 119.106667 
z
" clip-path="url(#p7d21587332)" style="fill: #0000ff"/>
   </g>
   <g id="patch_10">
    <path d="M 356.374299 123.12 
L 418.667255 123.12 
L 418.667255 115.653333 
L 356.374299 115.653333 
z
" clip-path="url(#p7d21587332)" style="fill: #0000ff"/>
   </g>
   <g id="patch_11">
    <path d="M 373.458865 123.12 
L 387.389357 123.12 
L 387.389357 115.653333 
L 373.458865 115.653333 
z
" clip-path="url(#p7d21587332)" style="fill: #0000ff"/>
   </g>
   <g id="patch_12">
    <path d="M 397.377258 123.12 
L 419.192934 123.12 
L 419.192934 115.653333 
L 397.377258 115.653333 
z
" clip-path="url(#p7d21587332)" style="fill: #0000ff"/>
   </g>
   <g id="patch_13">
    <path d="M 419.455774 119.666667 
L 476.75478 119.666667 
L 476.75478 119.106667 
L 419.455774 119.106667 
z
" clip-path="url(#p7d21587332)" style="fill: #0000ff"/>
   </g>
   <g id="patch_14">
    <path d="M 144 101 
L 144.262839 101 
L 144.262839 100.44 
L 144 100.44 
z
" clip-path="url(#p7d21587332)" style="fill: #0000ff"/>
   </g>
   <g id="patch_15">
    <path d="M 144.525679 104.453333 
L 545.618724 104.453333 
L 545.618724 96.986667 
L 144.525679 96.986667 
z
" clip-path="url(#p7d21587332)" style="fill: #0000ff"/>
   </g>
   <g id="patch_16">
    <path d="M 156.616295 104.453333 
L 174.22654 104.453333 
L 174.22654 96.986667 
L 156.616295 96.986667 
z
" clip-path="url(#p7d21587332)" style="fill: #0000ff"/>
   </g>
   <g id="patch_17">
    <path d="M 262.014926 104.453333 
L 292.767145 104.453333 
L 292.767145 96.986667 
L 262.014926 96.986667 
z
" clip-path="url(#p7d21587332)" style="fill: #0000ff"/>
   </g>
   <g id="patch_18">
    <path d="M 408.416516 104.453333 
L 508.821197 104.453333 
L 508.821197 96.986667 
L 408.416516 96.986667 
z
" clip-path="url(#p7d21587332)" style="fill: #0000ff"/>
   </g>
   <g id="patch_19">
    <path d="M 411.833429 104.453333 
L 430.495032 104.453333 
L 430.495032 96.986667 
L 411.833429 96.986667 
z
" clip-path="url(#p7d21587332)" style="fill: #0000ff"/>
   </g>
   <g id="patch_20">
    <path d="M 437.066019 104.453333 
L 454.676264 104.453333 
L 454.676264 96.986667 
L 437.066019 96.986667 
z
" clip-path="url(#p7d21587332)" style="fill: #0000ff"/>
   </g>
   <g id="patch_21">
    <path d="M 461.247251 104.453333 
L 479.120336 104.453333 
L 479.120336 96.986667 
L 461.247251 96.986667 
z
" clip-path="url(#p7d21587332)" style="fill: #0000ff"/>
   </g>
   <g id="patch_22">
    <path d="M 485.954162 104.453333 
L 503.564407 104.453333 
L 503.564407 96.986667 
L 485.954162 96.986667 
z
" clip-path="url(#p7d21587332)" style="fill: #0000ff"/>
   </g>
   <g id="patch_23">
    <path d="M 508.295518 104.453333 
L 524.065887 104.453333 
L 524.065887 96.986667 
L 508.295518 96.986667 
z
" clip-path="url(#p7d21587332)" style="fill: #0000ff"/>
   </g>
   <g id="patch_24">
    <path d="M 144 82.333333 
L 185.265798 82.333333 
L 185.265798 81.773333 
L 144 81.773333 
z
" clip-path="url(#p7d21587332)" style="fill: #0000ff"/>
   </g>
   <g id="patch_25">
    <path d="M 185.528638 85.786667 
L 223.377523 85.786667 
L 223.377523 78.32 
L 185.528638 78.32 
z
" clip-path="url(#p7d21587332)" style="fill: #0000ff"/>
   </g>
   <g id="patch_26">
    <path d="M 189.47123 85.786667 
L 226.268757 85.786667 
L 226.268757 78.32 
L 189.47123 78.32 
z
" clip-path="url(#p7d21587332)" style="fill: #0000ff"/>
   </g>
   <g id="patch_27">
    <path d="M 189.47123 85.786667 
L 220.223449 85.786667 
L 220.223449 78.32 
L 189.47123 78.32 
z
" clip-path="url(#p7d21587332)" style="fill: #0000ff"/>
   </g>
   <g id="patch_28">
    <path d="M 190.259748 85.786667 
L 226.268757 85.786667 
L 226.268757 78.32 
L 190.259748 78.32 
z
" clip-path="url(#p7d21587332)" style="fill: #0000ff"/>
   </g>
   <g id="patch_29">
    <path d="M 190.522588 85.786667 
L 230.211349 85.786667 
L 230.211349 78.32 
L 190.522588 78.32 
z
" clip-path="url(#p7d21587332)" style="fill: #0000ff"/>
   </g>
   <g id="patch_30">
    <path d="M 191.048267 85.786667 
L 225.743078 85.786667 
L 225.743078 78.32 
L 191.048267 78.32 
z
" clip-path="url(#p7d21587332)" style="fill: #0000ff"/>
   </g>
   <g id="patch_31">
    <path d="M 192.888143 85.786667 
L 225.480238 85.786667 
L 225.480238 78.32 
L 192.888143 78.32 
z
" clip-path="url(#p7d21587332)" style="fill: #0000ff"/>
   </g>
   <g id="patch_32">
    <path d="M 218.120733 85.786667 
L 598.449459 85.786667 
L 598.449459 78.32 
L 218.120733 78.32 
z
" clip-path="url(#p7d21587332)" style="fill: #0000ff"/>
   </g>
   <g id="patch_33">
    <path d="M 232.576904 85.786667 
L 257.546655 85.786667 
L 257.546655 78.32 
L 232.576904 78.32 
z
" clip-path="url(#p7d21587332)" style="fill: #0000ff"/>
   </g>
   <g id="patch_34">
    <path d="M 264.380481 85.786667 
L 297.498256 85.786667 
L 297.498256 78.32 
L 264.380481 78.32 
z
" clip-path="url(#p7d21587332)" style="fill: #0000ff"/>
   </g>
   <g id="patch_35">
    <path d="M 303.543564 85.786667 
L 336.135659 85.786667 
L 336.135659 78.32 
L 303.543564 78.32 
z
" clip-path="url(#p7d21587332)" style="fill: #0000ff"/>
   </g>
   <g id="patch_36">
    <path d="M 373.984544 85.786667 
L 407.890837 85.786667 
L 407.890837 78.32 
L 373.984544 78.32 
z
" clip-path="url(#p7d21587332)" style="fill: #0000ff"/>
   </g>
   <g id="patch_37">
    <path d="M 411.57059 85.786667 
L 477.280459 85.786667 
L 477.280459 78.32 
L 411.57059 78.32 
z
" clip-path="url(#p7d21587332)" style="fill: #0000ff"/>
   </g>
   <g id="patch_38">
    <path d="M 412.621947 85.786667 
L 443.637006 85.786667 
L 443.637006 78.32 
L 412.621947 78.32 
z
" clip-path="url(#p7d21587332)" style="fill: #0000ff"/>
   </g>
   <g id="patch_39">
    <path d="M 454.939104 85.786667 
L 470.183793 85.786667 
L 470.183793 78.32 
L 454.939104 78.32 
z
" clip-path="url(#p7d21587332)" style="fill: #0000ff"/>
   </g>
   <g id="patch_40">
    <path d="M 479.908854 85.786667 
L 498.044778 85.786667 
L 498.044778 78.32 
L 479.908854 78.32 
z
" clip-path="url(#p7d21587332)" style="fill: #0000ff"/>
   </g>
   <g id="patch_41">
    <path d="M 504.352926 85.786667 
L 522.751689 85.786667 
L 522.751689 78.32 
L 504.352926 78.32 
z
" clip-path="url(#p7d21587332)" style="fill: #0000ff"/>
   </g>
   <g id="patch_42">
    <path d="M 519.597615 85.786667 
L 974.309914 85.786667 
L 974.309914 78.32 
L 519.597615 78.32 
z
" clip-path="url(#p7d21587332)" style="fill: #0000ff"/>
   </g>
   <g id="patch_43">
    <path d="M 529.585516 85.786667 
L 547.72144 85.786667 
L 547.72144 78.32 
L 529.585516 78.32 
z
" clip-path="url(#p7d21587332)" style="fill: #0000ff"/>
   </g>
   <g id="patch_44">
    <path d="M 554.818106 85.786667 
L 572.165511 85.786667 
L 572.165511 78.32 
L 554.818106 78.32 
z
" clip-path="url(#p7d21587332)" style="fill: #0000ff"/>
   </g>
   <g id="patch_45">
    <path d="M 579.787856 85.786667 
L 597.92378 85.786667 
L 597.92378 78.32 
L 579.787856 78.32 
z
" clip-path="url(#p7d21587332)" style="fill: #0000ff"/>
   </g>
   <g id="patch_46">
    <path d="M 604.757607 85.786667 
L 622.893531 85.786667 
L 622.893531 78.32 
L 604.757607 78.32 
z
" clip-path="url(#p7d21587332)" style="fill: #0000ff"/>
   </g>
   <g id="patch_47">
    <path d="M 625.784765 85.786667 
L 986.40053 85.786667 
L 986.40053 78.32 
L 625.784765 78.32 
z
" clip-path="url(#p7d21587332)" style="fill: #0000ff"/>
   </g>
   <g id="patch_48">
    <path d="M 629.727357 85.786667 
L 647.600442 85.786667 
L 647.600442 78.32 
L 629.727357 78.32 
z
" clip-path="url(#p7d21587332)" style="fill: #0000ff"/>
   </g>
   <g id="patch_49">
    <path d="M 654.697108 85.786667 
L 673.095871 85.786667 
L 673.095871 78.32 
L 654.697108 78.32 
z
" clip-path="url(#p7d21587332)" style="fill: #0000ff"/>
   </g>
   <g id="patch_50">
    <path d="M 680.981055 85.786667 
L 696.751424 85.786667 
L 696.751424 78.32 
L 680.981055 78.32 
z
" clip-path="url(#p7d21587332)" style="fill: #0000ff"/>
   </g>
   <g id="patch_51">
    <path d="M 704.899448 85.786667 
L 722.246854 85.786667 
L 722.246854 78.32 
L 704.899448 78.32 
z
" clip-path="url(#p7d21587332)" style="fill: #0000ff"/>
   </g>
   <g id="patch_52">
    <path d="M 728.817841 85.786667 
L 746.690925 85.786667 
L 746.690925 78.32 
L 728.817841 78.32 
z
" clip-path="url(#p7d21587332)" style="fill: #0000ff"/>
   </g>
   <g id="patch_53">
    <path d="M 753.524752 85.786667 
L 771.397836 85.786667 
L 771.397836 78.32 
L 753.524752 78.32 
z
" clip-path="url(#p7d21587332)" style="fill: #0000ff"/>
   </g>
   <g id="patch_54">
    <path d="M 777.968823 85.786667 
L 795.841908 85.786667 
L 795.841908 78.32 
L 777.968823 78.32 
z
" clip-path="url(#p7d21587332)" style="fill: #0000ff"/>
   </g>
   <g id="patch_55">
    <path d="M 802.412895 85.786667 
L 820.285979 85.786667 
L 820.285979 78.32 
L 802.412895 78.32 
z
" clip-path="url(#p7d21587332)" style="fill: #0000ff"/>
   </g>
   <g id="patch_56">
    <path d="M 827.645485 85.786667 
L 844.204372 85.786667 
L 844.204372 78.32 
L 827.645485 78.32 
z
" clip-path="url(#p7d21587332)" style="fill: #0000ff"/>
   </g>
   <g id="patch_57">
    <path d="M 851.826717 85.786667 
L 868.911283 85.786667 
L 868.911283 78.32 
L 851.826717 78.32 
z
" clip-path="url(#p7d21587332)" style="fill: #0000ff"/>
   </g>
   <g id="patch_58">
    <path d="M 877.059307 85.786667 
L 894.406712 85.786667 
L 894.406712 78.32 
L 877.059307 78.32 
z
" clip-path="url(#p7d21587332)" style="fill: #0000ff"/>
   </g>
   <g id="patch_59">
    <path d="M 901.240539 85.786667 
L 918.850784 85.786667 
L 918.850784 78.32 
L 901.240539 78.32 
z
" clip-path="url(#p7d21587332)" style="fill: #0000ff"/>
   </g>
   <g id="patch_60">
    <path d="M 925.68461 85.786667 
L 943.294855 85.786667 
L 943.294855 78.32 
L 925.68461 78.32 
z
" clip-path="url(#p7d21587332)" style="fill: #0000ff"/>
   </g>
   <g id="patch_61">
    <path d="M 950.9172 85.786667 
L 967.738927 85.786667 
L 967.738927 78.32 
L 950.9172 78.32 
z
" clip-path="url(#p7d21587332)" style="fill: #0000ff"/>
   </g>
   <g id="patch_62">
    <path d="M 986.663369 82.333333 
L 994.285714 82.333333 
L 994.285714 81.773333 
L 986.663369 81.773333 
z
" clip-path="url(#p7d21587332)" style="fill: #0000ff"/>
   </g>
   <g id="patch_63">
    <path d="M 144 63.666667 
L 186.842835 63.666667 
L 186.842835 63.106667 
L 144 63.106667 
z
" clip-path="url(#p7d21587332)" style="fill: #0000ff"/>
   </g>
   <g id="patch_64">
    <path d="M 187.105675 67.12 
L 209.44703 67.12 
L 209.44703 59.653333 
L 187.105675 59.653333 
z
" clip-path="url(#p7d21587332)" style="fill: #0000ff"/>
   </g>
   <g id="patch_65">
    <path d="M 187.105675 67.12 
L 206.030117 67.12 
L 206.030117 59.653333 
L 187.105675 59.653333 
z
" clip-path="url(#p7d21587332)" style="fill: #0000ff"/>
   </g>
   <g id="patch_66">
    <path d="M 209.70987 63.666667 
L 255.1811 63.666667 
L 255.1811 63.106667 
L 209.70987 63.106667 
z
" clip-path="url(#p7d21587332)" style="fill: #0000ff"/>
   </g>
   <g id="patch_67">
    <path d="M 255.443939 67.12 
L 275.682579 67.12 
L 275.682579 59.653333 
L 255.443939 59.653333 
z
" clip-path="url(#p7d21587332)" style="fill: #0000ff"/>
   </g>
   <g id="patch_68">
    <path d="M 255.706779 67.12 
L 275.682579 67.12 
L 275.682579 59.653333 
L 255.706779 59.653333 
z
" clip-path="url(#p7d21587332)" style="fill: #0000ff"/>
   </g>
   <g id="patch_69">
    <path d="M 275.945418 63.666667 
L 276.471097 63.666667 
L 276.471097 63.106667 
L 275.945418 63.106667 
z
" clip-path="url(#p7d21587332)" style="fill: #0000ff"/>
   </g>
   <g id="patch_70">
    <path d="M 276.733937 67.12 
L 295.1327 67.12 
L 295.1327 59.653333 
L 276.733937 59.653333 
z
" clip-path="url(#p7d21587332)" style="fill: #0000ff"/>
   </g>
   <g id="patch_71">
    <path d="M 295.39554 63.666667 
L 321.679488 63.666667 
L 321.679488 63.106667 
L 295.39554 63.106667 
z
" clip-path="url(#p7d21587332)" style="fill: #0000ff"/>
   </g>
   <g id="patch_72">
    <path d="M 144 45 
L 147.416913 45 
L 147.416913 44.44 
L 144 44.44 
z
" clip-path="url(#p7d21587332)" style="fill: #0000ff"/>
   </g>
   <g id="patch_73">
    <path d="M 147.679753 48.453333 
L 164.23864 48.453333 
L 164.23864 40.986667 
L 147.679753 40.986667 
z
" clip-path="url(#p7d21587332)" style="fill: #0000ff"/>
   </g>
   <g id="patch_74">
    <path d="M 149.519629 48.453333 
L 163.450121 48.453333 
L 163.450121 40.986667 
L 149.519629 40.986667 
z
" clip-path="url(#p7d21587332)" style="fill: #0000ff"/>
   </g>
   <g id="patch_75">
    <path d="M 164.501479 45 
L 164.764319 45 
L 164.764319 44.44 
L 164.501479 44.44 
z
" clip-path="url(#p7d21587332)" style="fill: #0000ff"/>
   </g>
   <g id="patch_76">
    <path d="M 165.027158 48.453333 
L 184.740119 48.453333 
L 184.740119 40.986667 
L 165.027158 40.986667 
z
" clip-path="url(#p7d21587332)" style="fill: #0000ff"/>
   </g>
   <g id="patch_77">
    <path d="M 168.706911 48.453333 
L 177.643453 48.453333 
L 177.643453 40.986667 
L 168.706911 40.986667 
z
" clip-path="url(#p7d21587332)" style="fill: #0000ff"/>
   </g>
   <g id="patch_78">
    <path d="M 168.96975 48.453333 
L 187.631353 48.453333 
L 187.631353 40.986667 
L 168.96975 40.986667 
z
" clip-path="url(#p7d21587332)" style="fill: #0000ff"/>
   </g>
   <g id="patch_79">
    <path d="M 187.894193 45 
L 189.996909 45 
L 189.996909 44.44 
L 187.894193 44.44 
z
" clip-path="url(#p7d21587332)" style="fill: #0000ff"/>
   </g>
   <g id="patch_80">
    <path d="M 190.259748 48.453333 
L 206.030117 48.453333 
L 206.030117 40.986667 
L 190.259748 40.986667 
z
" clip-path="url(#p7d21587332)" style="fill: #0000ff"/>
   </g>
   <g id="patch_81">
    <path d="M 190.259748 48.453333 
L 206.030117 48.453333 
L 206.030117 40.986667 
L 190.259748 40.986667 
z
" clip-path="url(#p7d21587332)" style="fill: #0000ff"/>
   </g>
   <g id="patch_82">
    <path d="M 206.292957 45 
L 206.818635 45 
L 206.818635 44.44 
L 206.292957 44.44 
z
" clip-path="url(#p7d21587332)" style="fill: #0000ff"/>
   </g>
   <g id="patch_83">
    <path d="M 207.081475 48.453333 
L 226.268757 48.453333 
L 226.268757 40.986667 
L 207.081475 40.986667 
z
" clip-path="url(#p7d21587332)" style="fill: #0000ff"/>
   </g>
   <g id="patch_84">
    <path d="M 207.869993 48.453333 
L 226.268757 48.453333 
L 226.268757 40.986667 
L 207.869993 40.986667 
z
" clip-path="url(#p7d21587332)" style="fill: #0000ff"/>
   </g>
   <g id="patch_85">
    <path d="M 207.869993 48.453333 
L 227.320115 48.453333 
L 227.320115 40.986667 
L 207.869993 40.986667 
z
" clip-path="url(#p7d21587332)" style="fill: #0000ff"/>
   </g>
   <g id="patch_86">
    <path d="M 207.869993 48.453333 
L 227.320115 48.453333 
L 227.320115 40.986667 
L 207.869993 40.986667 
z
" clip-path="url(#p7d21587332)" style="fill: #0000ff"/>
   </g>
   <g id="patch_87">
    <path d="M 227.582954 45 
L 232.576904 45 
L 232.576904 44.44 
L 227.582954 44.44 
z
" clip-path="url(#p7d21587332)" style="fill: #0000ff"/>
   </g>
   <g id="patch_88">
    <path d="M 232.839744 48.453333 
L 248.610113 48.453333 
L 248.610113 40.986667 
L 232.839744 40.986667 
z
" clip-path="url(#p7d21587332)" style="fill: #0000ff"/>
   </g>
   <g id="patch_89">
    <path d="M 233.102583 48.453333 
L 248.347273 48.453333 
L 248.347273 40.986667 
L 233.102583 40.986667 
z
" clip-path="url(#p7d21587332)" style="fill: #0000ff"/>
   </g>
   <g id="patch_90">
    <path d="M 248.872952 45 
L 248.872952 45 
L 248.872952 44.44 
L 248.872952 44.44 
z
" clip-path="url(#p7d21587332)" style="fill: #0000ff"/>
   </g>
   <g id="patch_91">
    <path d="M 249.135792 48.453333 
L 269.111592 48.453333 
L 269.111592 40.986667 
L 249.135792 40.986667 
z
" clip-path="url(#p7d21587332)" style="fill: #0000ff"/>
   </g>
   <g id="patch_92">
    <path d="M 249.92431 48.453333 
L 269.637271 48.453333 
L 269.637271 40.986667 
L 249.92431 40.986667 
z
" clip-path="url(#p7d21587332)" style="fill: #0000ff"/>
   </g>
   <g id="patch_93">
    <path d="M 250.187149 48.453333 
L 291.978627 48.453333 
L 291.978627 40.986667 
L 250.187149 40.986667 
z
" clip-path="url(#p7d21587332)" style="fill: #0000ff"/>
   </g>
   <g id="patch_94">
    <path d="M 253.341223 48.453333 
L 269.111592 48.453333 
L 269.111592 40.986667 
L 253.341223 40.986667 
z
" clip-path="url(#p7d21587332)" style="fill: #0000ff"/>
   </g>
   <g id="patch_95">
    <path d="M 257.546655 48.453333 
L 306.171958 48.453333 
L 306.171958 40.986667 
L 257.546655 40.986667 
z
" clip-path="url(#p7d21587332)" style="fill: #0000ff"/>
   </g>
   <g id="patch_96">
    <path d="M 270.425789 48.453333 
L 290.13875 48.453333 
L 290.13875 40.986667 
L 270.425789 40.986667 
z
" clip-path="url(#p7d21587332)" style="fill: #0000ff"/>
   </g>
   <g id="patch_97">
    <path d="M 271.477147 48.453333 
L 290.927269 48.453333 
L 290.927269 40.986667 
L 271.477147 40.986667 
z
" clip-path="url(#p7d21587332)" style="fill: #0000ff"/>
   </g>
   <g id="patch_98">
    <path d="M 278.573813 48.453333 
L 289.613071 48.453333 
L 289.613071 40.986667 
L 278.573813 40.986667 
z
" clip-path="url(#p7d21587332)" style="fill: #0000ff"/>
   </g>
   <g id="patch_99">
    <path d="M 292.767145 48.453333 
L 312.217267 48.453333 
L 312.217267 40.986667 
L 292.767145 40.986667 
z
" clip-path="url(#p7d21587332)" style="fill: #0000ff"/>
   </g>
   <g id="patch_100">
    <path d="M 292.767145 48.453333 
L 312.480106 48.453333 
L 312.480106 40.986667 
L 292.767145 40.986667 
z
" clip-path="url(#p7d21587332)" style="fill: #0000ff"/>
   </g>
   <g id="patch_101">
    <path d="M 312.742945 45 
L 344.809362 45 
L 344.809362 44.44 
L 312.742945 44.44 
z
" clip-path="url(#p7d21587332)" style="fill: #0000ff"/>
   </g>
   <g id="patch_102">
    <path d="M 345.072201 48.453333 
L 376.08726 48.453333 
L 376.08726 40.986667 
L 345.072201 40.986667 
z
" clip-path="url(#p7d21587332)" style="fill: #0000ff"/>
   </g>
   <g id="patch_103">
    <path d="M 356.899978 48.453333 
L 364.259483 48.453333 
L 364.259483 40.986667 
L 356.899978 40.986667 
z
" clip-path="url(#p7d21587332)" style="fill: #0000ff"/>
   </g>
   <g id="patch_104">
    <path d="M 376.350099 45 
L 389.754913 45 
L 389.754913 44.44 
L 376.350099 44.44 
z
" clip-path="url(#p7d21587332)" style="fill: #0000ff"/>
   </g>
   <g id="patch_105">
    <path d="M 144 26.333333 
L 250.187149 26.333333 
L 250.187149 25.773333 
L 144 25.773333 
z
" clip-path="url(#p7d21587332)" style="fill: #0000ff"/>
   </g>
   <g id="patch_106">
    <path d="M 250.449989 29.786667 
L 399.742813 29.786667 
L 399.742813 22.32 
L 250.449989 22.32 
z
" clip-path="url(#p7d21587332)" style="fill: #0000ff"/>
   </g>
   <g id="patch_107">
    <path d="M 256.232457 29.786667 
L 278.310974 29.786667 
L 278.310974 22.32 
L 256.232457 22.32 
z
" clip-path="url(#p7d21587332)" style="fill: #0000ff"/>
   </g>
   <g id="patch_108">
    <path d="M 256.232457 29.786667 
L 274.89406 29.786667 
L 274.89406 22.32 
L 256.232457 22.32 
z
" clip-path="url(#p7d21587332)" style="fill: #0000ff"/>
   </g>
   <g id="patch_109">
    <path d="M 256.232457 29.786667 
L 278.573813 29.786667 
L 278.573813 22.32 
L 256.232457 22.32 
z
" clip-path="url(#p7d21587332)" style="fill: #0000ff"/>
   </g>
   <g id="patch_110">
    <path d="M 276.996776 29.786667 
L 297.235416 29.786667 
L 297.235416 22.32 
L 276.996776 22.32 
z
" clip-path="url(#p7d21587332)" style="fill: #0000ff"/>
   </g>
   <g id="patch_111">
    <path d="M 298.812453 29.786667 
L 316.948377 29.786667 
L 316.948377 22.32 
L 298.812453 22.32 
z
" clip-path="url(#p7d21587332)" style="fill: #0000ff"/>
   </g>
   <g id="patch_112">
    <path d="M 343.758004 29.786667 
L 362.945286 29.786667 
L 362.945286 22.32 
L 343.758004 22.32 
z
" clip-path="url(#p7d21587332)" style="fill: #0000ff"/>
   </g>
   <g id="patch_113">
    <path d="M 344.020843 29.786667 
L 362.156767 29.786667 
L 362.156767 22.32 
L 344.020843 22.32 
z
" clip-path="url(#p7d21587332)" style="fill: #0000ff"/>
   </g>
   <g id="patch_114">
    <path d="M 400.005652 26.333333 
L 410.519232 26.333333 
L 410.519232 25.773333 
L 400.005652 25.773333 
z
" clip-path="url(#p7d21587332)" style="fill: #0000ff"/>
   </g>
   <g id="patch_115">
    <path d="M 410.782071 29.786667 
L 433.649106 29.786667 
L 433.649106 22.32 
L 410.782071 22.32 
z
" clip-path="url(#p7d21587332)" style="fill: #0000ff"/>
   </g>
   <g id="patch_116">
    <path d="M 411.044911 29.786667 
L 436.54034 29.786667 
L 436.54034 22.32 
L 411.044911 22.32 
z
" clip-path="url(#p7d21587332)" style="fill: #0000ff"/>
   </g>
   <g id="patch_117">
    <path d="M 435.488982 29.786667 
L 455.990461 29.786667 
L 455.990461 22.32 
L 435.488982 22.32 
z
" clip-path="url(#p7d21587332)" style="fill: #0000ff"/>
   </g>
   <g id="patch_118">
    <path d="M 437.066019 29.786667 
L 644.709207 29.786667 
L 644.709207 22.32 
L 437.066019 22.32 
z
" clip-path="url(#p7d21587332)" style="fill: #0000ff"/>
   </g>
   <g id="patch_119">
    <path d="M 437.328858 29.786667 
L 452.573548 29.786667 
L 452.573548 22.32 
L 437.328858 22.32 
z
" clip-path="url(#p7d21587332)" style="fill: #0000ff"/>
   </g>
   <g id="patch_120">
    <path d="M 439.431574 29.786667 
L 504.352926 29.786667 
L 504.352926 22.32 
L 439.431574 22.32 
z
" clip-path="url(#p7d21587332)" style="fill: #0000ff"/>
   </g>
   <g id="patch_121">
    <path d="M 458.356017 29.786667 
L 477.280459 29.786667 
L 477.280459 22.32 
L 458.356017 22.32 
z
" clip-path="url(#p7d21587332)" style="fill: #0000ff"/>
   </g>
   <g id="patch_122">
    <path d="M 458.618856 29.786667 
L 470.446633 29.786667 
L 470.446633 22.32 
L 458.618856 22.32 
z
" clip-path="url(#p7d21587332)" style="fill: #0000ff"/>
   </g>
   <g id="patch_123">
    <path d="M 479.120336 29.786667 
L 498.570457 29.786667 
L 498.570457 22.32 
L 479.120336 22.32 
z
" clip-path="url(#p7d21587332)" style="fill: #0000ff"/>
   </g>
   <g id="patch_124">
    <path d="M 501.724531 29.786667 
L 522.48885 29.786667 
L 522.48885 22.32 
L 501.724531 22.32 
z
" clip-path="url(#p7d21587332)" style="fill: #0000ff"/>
   </g>
   <g id="patch_125">
    <path d="M 524.065887 29.786667 
L 545.093045 29.786667 
L 545.093045 22.32 
L 524.065887 22.32 
z
" clip-path="url(#p7d21587332)" style="fill: #0000ff"/>
   </g>
   <g id="patch_126">
    <path d="M 524.328726 29.786667 
L 545.093045 29.786667 
L 545.093045 22.32 
L 524.328726 22.32 
z
" clip-path="url(#p7d21587332)" style="fill: #0000ff"/>
   </g>
   <g id="patch_127">
    <path d="M 525.117244 29.786667 
L 545.355884 29.786667 
L 545.355884 22.32 
L 525.117244 22.32 
z
" clip-path="url(#p7d21587332)" style="fill: #0000ff"/>
   </g>
   <g id="patch_128">
    <path d="M 547.984279 29.786667 
L 568.222919 29.786667 
L 568.222919 22.32 
L 547.984279 22.32 
z
" clip-path="url(#p7d21587332)" style="fill: #0000ff"/>
   </g>
   <g id="patch_129">
    <path d="M 598.18662 29.786667 
L 617.111062 29.786667 
L 617.111062 22.32 
L 598.18662 22.32 
z
" clip-path="url(#p7d21587332)" style="fill: #0000ff"/>
   </g>
   <g id="patch_130">
    <path d="M 644.972047 26.333333 
L 648.126121 26.333333 
L 648.126121 25.773333 
L 644.972047 25.773333 
z
" clip-path="url(#p7d21587332)" style="fill: #0000ff"/>
   </g>
   <g id="patch_131">
    <path d="M 648.38896 29.786667 
L 667.839081 29.786667 
L 667.839081 22.32 
L 648.38896 22.32 
z
" clip-path="url(#p7d21587332)" style="fill: #0000ff"/>
   </g>
   <g id="patch_132">
    <path d="M 668.101921 26.333333 
L 744.32537 26.333333 
L 744.32537 25.773333 
L 668.101921 25.773333 
z
" clip-path="url(#p7d21587332)" style="fill: #0000ff"/>
   </g>
   <g id="patch_133">
    <path d="M 744.588209 29.786667 
L 770.609318 29.786667 
L 770.609318 22.32 
L 744.588209 22.32 
z
" clip-path="url(#p7d21587332)" style="fill: #0000ff"/>
   </g>
   <g id="patch_134">
    <path d="M 770.872157 26.333333 
L 812.400795 26.333333 
L 812.400795 25.773333 
L 770.872157 25.773333 
z
" clip-path="url(#p7d21587332)" style="fill: #0000ff"/>
   </g>
   <g id="matplotlib.axis_1">
    <g id="xtick_1">
     <g id="line2d_1">
      <defs>
       <path id="mebcf6cc4ad" d="M 0 0 
L 0 3.5 
" style="stroke: #000000; stroke-width: 0.8"/>
      </defs>
      <g>
       <use xlink:href="#mebcf6cc4ad" x="275.1569" y="128.16" style="stroke: #000000; stroke-width: 0.8"/>
      </g>
     </g>
     <g id="text_1">
      <!-- 500 -->
      <g transform="translate(265.61315 142.758438) scale(0.1 -0.1)">
       <defs>
        <path id="DejaVuSans-35" d="M 691 4666 
L 3169 4666 
L 3169 4134 
L 1269 4134 
L 1269 2991 
Q 1406 3038 1543 3061 
Q 1681 3084 1819 3084 
Q 2600 3084 3056 2656 
Q 3513 2228 3513 1497 
Q 3513 744 3044 326 
Q 2575 -91 1722 -91 
Q 1428 -91 1123 -41 
Q 819 9 494 109 
L 494 744 
Q 775 591 1075 516 
Q 1375 441 1709 441 
Q 2250 441 2565 725 
Q 2881 1009 2881 1497 
Q 2881 1984 2565 2268 
Q 2250 2553 1709 2553 
Q 1456 2553 1204 2497 
Q 953 2441 691 2322 
L 691 4666 
z
" transform="scale(0.015625)"/>
        <path id="DejaVuSans-30" d="M 2034 4250 
Q 1547 4250 1301 3770 
Q 1056 3291 1056 2328 
Q 1056 1369 1301 889 
Q 1547 409 2034 409 
Q 2525 409 2770 889 
Q 3016 1369 3016 2328 
Q 3016 3291 2770 3770 
Q 2525 4250 2034 4250 
z
M 2034 4750 
Q 2819 4750 3233 4129 
Q 3647 3509 3647 2328 
Q 3647 1150 3233 529 
Q 2819 -91 2034 -91 
Q 1250 -91 836 529 
Q 422 1150 422 2328 
Q 422 3509 836 4129 
Q 1250 4750 2034 4750 
z
" transform="scale(0.015625)"/>
       </defs>
       <use xlink:href="#DejaVuSans-35"/>
       <use xlink:href="#DejaVuSans-30" x="63.623047"/>
       <use xlink:href="#DejaVuSans-30" x="127.246094"/>
      </g>
     </g>
    </g>
    <g id="xtick_2">
     <g id="line2d_2">
      <g>
       <use xlink:href="#mebcf6cc4ad" x="406.576639" y="128.16" style="stroke: #000000; stroke-width: 0.8"/>
      </g>
     </g>
     <g id="text_2">
      <!-- 1000 -->
      <g transform="translate(393.851639 142.758438) scale(0.1 -0.1)">
       <defs>
        <path id="DejaVuSans-31" d="M 794 531 
L 1825 531 
L 1825 4091 
L 703 3866 
L 703 4441 
L 1819 4666 
L 2450 4666 
L 2450 531 
L 3481 531 
L 3481 0 
L 794 0 
L 794 531 
z
" transform="scale(0.015625)"/>
       </defs>
       <use xlink:href="#DejaVuSans-31"/>
       <use xlink:href="#DejaVuSans-30" x="63.623047"/>
       <use xlink:href="#DejaVuSans-30" x="127.246094"/>
       <use xlink:href="#DejaVuSans-30" x="190.869141"/>
      </g>
     </g>
    </g>
    <g id="xtick_3">
     <g id="line2d_3">
      <g>
       <use xlink:href="#mebcf6cc4ad" x="537.996379" y="128.16" style="stroke: #000000; stroke-width: 0.8"/>
      </g>
     </g>
     <g id="text_3">
      <!-- 1500 -->
      <g transform="translate(525.271379 142.758438) scale(0.1 -0.1)">
       <use xlink:href="#DejaVuSans-31"/>
       <use xlink:href="#DejaVuSans-35" x="63.623047"/>
       <use xlink:href="#DejaVuSans-30" x="127.246094"/>
       <use xlink:href="#DejaVuSans-30" x="190.869141"/>
      </g>
     </g>
    </g>
    <g id="xtick_4">
     <g id="line2d_4">
      <g>
       <use xlink:href="#mebcf6cc4ad" x="669.416118" y="128.16" style="stroke: #000000; stroke-width: 0.8"/>
      </g>
     </g>
     <g id="text_4">
      <!-- 2000 -->
      <g transform="translate(656.691118 142.758438) scale(0.1 -0.1)">
       <defs>
        <path id="DejaVuSans-32" d="M 1228 531 
L 3431 531 
L 3431 0 
L 469 0 
L 469 531 
Q 828 903 1448 1529 
Q 2069 2156 2228 2338 
Q 2531 2678 2651 2914 
Q 2772 3150 2772 3378 
Q 2772 3750 2511 3984 
Q 2250 4219 1831 4219 
Q 1534 4219 1204 4116 
Q 875 4013 500 3803 
L 500 4441 
Q 881 4594 1212 4672 
Q 1544 4750 1819 4750 
Q 2544 4750 2975 4387 
Q 3406 4025 3406 3419 
Q 3406 3131 3298 2873 
Q 3191 2616 2906 2266 
Q 2828 2175 2409 1742 
Q 1991 1309 1228 531 
z
" transform="scale(0.015625)"/>
       </defs>
       <use xlink:href="#DejaVuSans-32"/>
       <use xlink:href="#DejaVuSans-30" x="63.623047"/>
       <use xlink:href="#DejaVuSans-30" x="127.246094"/>
       <use xlink:href="#DejaVuSans-30" x="190.869141"/>
      </g>
     </g>
    </g>
    <g id="xtick_5">
     <g id="line2d_5">
      <g>
       <use xlink:href="#mebcf6cc4ad" x="800.835858" y="128.16" style="stroke: #000000; stroke-width: 0.8"/>
      </g>
     </g>
     <g id="text_5">
      <!-- 2500 -->
      <g transform="translate(788.110858 142.758438) scale(0.1 -0.1)">
       <use xlink:href="#DejaVuSans-32"/>
       <use xlink:href="#DejaVuSans-35" x="63.623047"/>
       <use xlink:href="#DejaVuSans-30" x="127.246094"/>
       <use xlink:href="#DejaVuSans-30" x="190.869141"/>
      </g>
     </g>
    </g>
    <g id="xtick_6">
     <g id="line2d_6">
      <g>
       <use xlink:href="#mebcf6cc4ad" x="932.255597" y="128.16" style="stroke: #000000; stroke-width: 0.8"/>
      </g>
     </g>
     <g id="text_6">
      <!-- 3000 -->
      <g transform="translate(919.530597 142.758438) scale(0.1 -0.1)">
       <defs>
        <path id="DejaVuSans-33" d="M 2597 2516 
Q 3050 2419 3304 2112 
Q 3559 1806 3559 1356 
Q 3559 666 3084 287 
Q 2609 -91 1734 -91 
Q 1441 -91 1130 -33 
Q 819 25 488 141 
L 488 750 
Q 750 597 1062 519 
Q 1375 441 1716 441 
Q 2309 441 2620 675 
Q 2931 909 2931 1356 
Q 2931 1769 2642 2001 
Q 2353 2234 1838 2234 
L 1294 2234 
L 1294 2753 
L 1863 2753 
Q 2328 2753 2575 2939 
Q 2822 3125 2822 3475 
Q 2822 3834 2567 4026 
Q 2313 4219 1838 4219 
Q 1578 4219 1281 4162 
Q 984 4106 628 3988 
L 628 4550 
Q 988 4650 1302 4700 
Q 1616 4750 1894 4750 
Q 2613 4750 3031 4423 
Q 3450 4097 3450 3541 
Q 3450 3153 3228 2886 
Q 3006 2619 2597 2516 
z
" transform="scale(0.015625)"/>
       </defs>
       <use xlink:href="#DejaVuSans-33"/>
       <use xlink:href="#DejaVuSans-30" x="63.623047"/>
       <use xlink:href="#DejaVuSans-30" x="127.246094"/>
       <use xlink:href="#DejaVuSans-30" x="190.869141"/>
      </g>
     </g>
    </g>
    <g id="text_7">
     <!-- Residual -->
     <g transform="translate(569.284375 156.436563) scale(0.1 -0.1)">
      <defs>
       <path id="DejaVuSans-52" d="M 2841 2188 
Q 3044 2119 3236 1894 
Q 3428 1669 3622 1275 
L 4263 0 
L 3584 0 
L 2988 1197 
Q 2756 1666 2539 1819 
Q 2322 1972 1947 1972 
L 1259 1972 
L 1259 0 
L 628 0 
L 628 4666 
L 2053 4666 
Q 2853 4666 3247 4331 
Q 3641 3997 3641 3322 
Q 3641 2881 3436 2590 
Q 3231 2300 2841 2188 
z
M 1259 4147 
L 1259 2491 
L 2053 2491 
Q 2509 2491 2742 2702 
Q 2975 2913 2975 3322 
Q 2975 3731 2742 3939 
Q 2509 4147 2053 4147 
L 1259 4147 
z
" transform="scale(0.015625)"/>
       <path id="DejaVuSans-65" d="M 3597 1894 
L 3597 1613 
L 953 1613 
Q 991 1019 1311 708 
Q 1631 397 2203 397 
Q 2534 397 2845 478 
Q 3156 559 3463 722 
L 3463 178 
Q 3153 47 2828 -22 
Q 2503 -91 2169 -91 
Q 1331 -91 842 396 
Q 353 884 353 1716 
Q 353 2575 817 3079 
Q 1281 3584 2069 3584 
Q 2775 3584 3186 3129 
Q 3597 2675 3597 1894 
z
M 3022 2063 
Q 3016 2534 2758 2815 
Q 2500 3097 2075 3097 
Q 1594 3097 1305 2825 
Q 1016 2553 972 2059 
L 3022 2063 
z
" transform="scale(0.015625)"/>
       <path id="DejaVuSans-73" d="M 2834 3397 
L 2834 2853 
Q 2591 2978 2328 3040 
Q 2066 3103 1784 3103 
Q 1356 3103 1142 2972 
Q 928 2841 928 2578 
Q 928 2378 1081 2264 
Q 1234 2150 1697 2047 
L 1894 2003 
Q 2506 1872 2764 1633 
Q 3022 1394 3022 966 
Q 3022 478 2636 193 
Q 2250 -91 1575 -91 
Q 1294 -91 989 -36 
Q 684 19 347 128 
L 347 722 
Q 666 556 975 473 
Q 1284 391 1588 391 
Q 1994 391 2212 530 
Q 2431 669 2431 922 
Q 2431 1156 2273 1281 
Q 2116 1406 1581 1522 
L 1381 1569 
Q 847 1681 609 1914 
Q 372 2147 372 2553 
Q 372 3047 722 3315 
Q 1072 3584 1716 3584 
Q 2034 3584 2315 3537 
Q 2597 3491 2834 3397 
z
" transform="scale(0.015625)"/>
       <path id="DejaVuSans-69" d="M 603 3500 
L 1178 3500 
L 1178 0 
L 603 0 
L 603 3500 
z
M 603 4863 
L 1178 4863 
L 1178 4134 
L 603 4134 
L 603 4863 
z
" transform="scale(0.015625)"/>
       <path id="DejaVuSans-64" d="M 2906 2969 
L 2906 4863 
L 3481 4863 
L 3481 0 
L 2906 0 
L 2906 525 
Q 2725 213 2448 61 
Q 2172 -91 1784 -91 
Q 1150 -91 751 415 
Q 353 922 353 1747 
Q 353 2572 751 3078 
Q 1150 3584 1784 3584 
Q 2172 3584 2448 3432 
Q 2725 3281 2906 2969 
z
M 947 1747 
Q 947 1113 1208 752 
Q 1469 391 1925 391 
Q 2381 391 2643 752 
Q 2906 1113 2906 1747 
Q 2906 2381 2643 2742 
Q 2381 3103 1925 3103 
Q 1469 3103 1208 2742 
Q 947 2381 947 1747 
z
" transform="scale(0.015625)"/>
       <path id="DejaVuSans-75" d="M 544 1381 
L 544 3500 
L 1119 3500 
L 1119 1403 
Q 1119 906 1312 657 
Q 1506 409 1894 409 
Q 2359 409 2629 706 
Q 2900 1003 2900 1516 
L 2900 3500 
L 3475 3500 
L 3475 0 
L 2900 0 
L 2900 538 
Q 2691 219 2414 64 
Q 2138 -91 1772 -91 
Q 1169 -91 856 284 
Q 544 659 544 1381 
z
M 1991 3584 
L 1991 3584 
z
" transform="scale(0.015625)"/>
       <path id="DejaVuSans-61" d="M 2194 1759 
Q 1497 1759 1228 1600 
Q 959 1441 959 1056 
Q 959 750 1161 570 
Q 1363 391 1709 391 
Q 2188 391 2477 730 
Q 2766 1069 2766 1631 
L 2766 1759 
L 2194 1759 
z
M 3341 1997 
L 3341 0 
L 2766 0 
L 2766 531 
Q 2569 213 2275 61 
Q 1981 -91 1556 -91 
Q 1019 -91 701 211 
Q 384 513 384 1019 
Q 384 1609 779 1909 
Q 1175 2209 1959 2209 
L 2766 2209 
L 2766 2266 
Q 2766 2663 2505 2880 
Q 2244 3097 1772 3097 
Q 1472 3097 1187 3025 
Q 903 2953 641 2809 
L 641 3341 
Q 956 3463 1253 3523 
Q 1550 3584 1831 3584 
Q 2591 3584 2966 3190 
Q 3341 2797 3341 1997 
z
" transform="scale(0.015625)"/>
       <path id="DejaVuSans-6c" d="M 603 4863 
L 1178 4863 
L 1178 0 
L 603 0 
L 603 4863 
z
" transform="scale(0.015625)"/>
      </defs>
      <use xlink:href="#DejaVuSans-52"/>
      <use xlink:href="#DejaVuSans-65" x="64.982422"/>
      <use xlink:href="#DejaVuSans-73" x="126.505859"/>
      <use xlink:href="#DejaVuSans-69" x="178.605469"/>
      <use xlink:href="#DejaVuSans-64" x="206.388672"/>
      <use xlink:href="#DejaVuSans-75" x="269.865234"/>
      <use xlink:href="#DejaVuSans-61" x="333.244141"/>
      <use xlink:href="#DejaVuSans-6c" x="394.523438"/>
     </g>
    </g>
   </g>
   <g id="matplotlib.axis_2">
    <g id="ytick_1">
     <g id="line2d_7">
      <defs>
       <path id="m6e8ee4f637" d="M 0 0 
L -3.5 0 
" style="stroke: #000000; stroke-width: 0.8"/>
      </defs>
      <g>
       <use xlink:href="#m6e8ee4f637" x="144" y="119.386667" style="stroke: #000000; stroke-width: 0.8"/>
      </g>
     </g>
     <g id="text_8">
      <!-- 8.A.146.1.1 -->
      <g transform="translate(79.446875 123.185885) scale(0.1 -0.1)">
       <defs>
        <path id="DejaVuSans-38" d="M 2034 2216 
Q 1584 2216 1326 1975 
Q 1069 1734 1069 1313 
Q 1069 891 1326 650 
Q 1584 409 2034 409 
Q 2484 409 2743 651 
Q 3003 894 3003 1313 
Q 3003 1734 2745 1975 
Q 2488 2216 2034 2216 
z
M 1403 2484 
Q 997 2584 770 2862 
Q 544 3141 544 3541 
Q 544 4100 942 4425 
Q 1341 4750 2034 4750 
Q 2731 4750 3128 4425 
Q 3525 4100 3525 3541 
Q 3525 3141 3298 2862 
Q 3072 2584 2669 2484 
Q 3125 2378 3379 2068 
Q 3634 1759 3634 1313 
Q 3634 634 3220 271 
Q 2806 -91 2034 -91 
Q 1263 -91 848 271 
Q 434 634 434 1313 
Q 434 1759 690 2068 
Q 947 2378 1403 2484 
z
M 1172 3481 
Q 1172 3119 1398 2916 
Q 1625 2713 2034 2713 
Q 2441 2713 2670 2916 
Q 2900 3119 2900 3481 
Q 2900 3844 2670 4047 
Q 2441 4250 2034 4250 
Q 1625 4250 1398 4047 
Q 1172 3844 1172 3481 
z
" transform="scale(0.015625)"/>
        <path id="DejaVuSans-2e" d="M 684 794 
L 1344 794 
L 1344 0 
L 684 0 
L 684 794 
z
" transform="scale(0.015625)"/>
        <path id="DejaVuSans-41" d="M 2188 4044 
L 1331 1722 
L 3047 1722 
L 2188 4044 
z
M 1831 4666 
L 2547 4666 
L 4325 0 
L 3669 0 
L 3244 1197 
L 1141 1197 
L 716 0 
L 50 0 
L 1831 4666 
z
" transform="scale(0.015625)"/>
        <path id="DejaVuSans-34" d="M 2419 4116 
L 825 1625 
L 2419 1625 
L 2419 4116 
z
M 2253 4666 
L 3047 4666 
L 3047 1625 
L 3713 1625 
L 3713 1100 
L 3047 1100 
L 3047 0 
L 2419 0 
L 2419 1100 
L 313 1100 
L 313 1709 
L 2253 4666 
z
" transform="scale(0.015625)"/>
        <path id="DejaVuSans-36" d="M 2113 2584 
Q 1688 2584 1439 2293 
Q 1191 2003 1191 1497 
Q 1191 994 1439 701 
Q 1688 409 2113 409 
Q 2538 409 2786 701 
Q 3034 994 3034 1497 
Q 3034 2003 2786 2293 
Q 2538 2584 2113 2584 
z
M 3366 4563 
L 3366 3988 
Q 3128 4100 2886 4159 
Q 2644 4219 2406 4219 
Q 1781 4219 1451 3797 
Q 1122 3375 1075 2522 
Q 1259 2794 1537 2939 
Q 1816 3084 2150 3084 
Q 2853 3084 3261 2657 
Q 3669 2231 3669 1497 
Q 3669 778 3244 343 
Q 2819 -91 2113 -91 
Q 1303 -91 875 529 
Q 447 1150 447 2328 
Q 447 3434 972 4092 
Q 1497 4750 2381 4750 
Q 2619 4750 2861 4703 
Q 3103 4656 3366 4563 
z
" transform="scale(0.015625)"/>
       </defs>
       <use xlink:href="#DejaVuSans-38"/>
       <use xlink:href="#DejaVuSans-2e" x="63.623047"/>
       <use xlink:href="#DejaVuSans-41" x="95.410156"/>
       <use xlink:href="#DejaVuSans-2e" x="162.068359"/>
       <use xlink:href="#DejaVuSans-31" x="193.855469"/>
       <use xlink:href="#DejaVuSans-34" x="257.478516"/>
       <use xlink:href="#DejaVuSans-36" x="321.101562"/>
       <use xlink:href="#DejaVuSans-2e" x="384.724609"/>
       <use xlink:href="#DejaVuSans-31" x="416.511719"/>
       <use xlink:href="#DejaVuSans-2e" x="480.134766"/>
       <use xlink:href="#DejaVuSans-31" x="511.921875"/>
      </g>
     </g>
    </g>
    <g id="ytick_2">
     <g id="line2d_8">
      <g>
       <use xlink:href="#m6e8ee4f637" x="144" y="100.72" style="stroke: #000000; stroke-width: 0.8"/>
      </g>
     </g>
     <g id="text_9">
      <!-- 8.A.146.2.1 -->
      <g transform="translate(79.446875 104.519219) scale(0.1 -0.1)">
       <use xlink:href="#DejaVuSans-38"/>
       <use xlink:href="#DejaVuSans-2e" x="63.623047"/>
       <use xlink:href="#DejaVuSans-41" x="95.410156"/>
       <use xlink:href="#DejaVuSans-2e" x="162.068359"/>
       <use xlink:href="#DejaVuSans-31" x="193.855469"/>
       <use xlink:href="#DejaVuSans-34" x="257.478516"/>
       <use xlink:href="#DejaVuSans-36" x="321.101562"/>
       <use xlink:href="#DejaVuSans-2e" x="384.724609"/>
       <use xlink:href="#DejaVuSans-32" x="416.511719"/>
       <use xlink:href="#DejaVuSans-2e" x="480.134766"/>
       <use xlink:href="#DejaVuSans-31" x="511.921875"/>
      </g>
     </g>
    </g>
    <g id="ytick_3">
     <g id="line2d_9">
      <g>
       <use xlink:href="#m6e8ee4f637" x="144" y="82.053333" style="stroke: #000000; stroke-width: 0.8"/>
      </g>
     </g>
     <g id="text_10">
      <!-- 8.A.146.2.2 -->
      <g transform="translate(79.446875 85.852552) scale(0.1 -0.1)">
       <use xlink:href="#DejaVuSans-38"/>
       <use xlink:href="#DejaVuSans-2e" x="63.623047"/>
       <use xlink:href="#DejaVuSans-41" x="95.410156"/>
       <use xlink:href="#DejaVuSans-2e" x="162.068359"/>
       <use xlink:href="#DejaVuSans-31" x="193.855469"/>
       <use xlink:href="#DejaVuSans-34" x="257.478516"/>
       <use xlink:href="#DejaVuSans-36" x="321.101562"/>
       <use xlink:href="#DejaVuSans-2e" x="384.724609"/>
       <use xlink:href="#DejaVuSans-32" x="416.511719"/>
       <use xlink:href="#DejaVuSans-2e" x="480.134766"/>
       <use xlink:href="#DejaVuSans-32" x="511.921875"/>
      </g>
     </g>
    </g>
    <g id="ytick_4">
     <g id="line2d_10">
      <g>
       <use xlink:href="#m6e8ee4f637" x="144" y="63.386667" style="stroke: #000000; stroke-width: 0.8"/>
      </g>
     </g>
     <g id="text_11">
      <!-- 8.A.146.3.1 -->
      <g transform="translate(79.446875 67.185885) scale(0.1 -0.1)">
       <use xlink:href="#DejaVuSans-38"/>
       <use xlink:href="#DejaVuSans-2e" x="63.623047"/>
       <use xlink:href="#DejaVuSans-41" x="95.410156"/>
       <use xlink:href="#DejaVuSans-2e" x="162.068359"/>
       <use xlink:href="#DejaVuSans-31" x="193.855469"/>
       <use xlink:href="#DejaVuSans-34" x="257.478516"/>
       <use xlink:href="#DejaVuSans-36" x="321.101562"/>
       <use xlink:href="#DejaVuSans-2e" x="384.724609"/>
       <use xlink:href="#DejaVuSans-33" x="416.511719"/>
       <use xlink:href="#DejaVuSans-2e" x="480.134766"/>
       <use xlink:href="#DejaVuSans-31" x="511.921875"/>
      </g>
     </g>
    </g>
    <g id="ytick_5">
     <g id="line2d_11">
      <g>
       <use xlink:href="#m6e8ee4f637" x="144" y="44.72" style="stroke: #000000; stroke-width: 0.8"/>
      </g>
     </g>
     <g id="text_12">
      <!-- 8.A.146.3.2 -->
      <g transform="translate(79.446875 48.519219) scale(0.1 -0.1)">
       <use xlink:href="#DejaVuSans-38"/>
       <use xlink:href="#DejaVuSans-2e" x="63.623047"/>
       <use xlink:href="#DejaVuSans-41" x="95.410156"/>
       <use xlink:href="#DejaVuSans-2e" x="162.068359"/>
       <use xlink:href="#DejaVuSans-31" x="193.855469"/>
       <use xlink:href="#DejaVuSans-34" x="257.478516"/>
       <use xlink:href="#DejaVuSans-36" x="321.101562"/>
       <use xlink:href="#DejaVuSans-2e" x="384.724609"/>
       <use xlink:href="#DejaVuSans-33" x="416.511719"/>
       <use xlink:href="#DejaVuSans-2e" x="480.134766"/>
       <use xlink:href="#DejaVuSans-32" x="511.921875"/>
      </g>
     </g>
    </g>
    <g id="ytick_6">
     <g id="line2d_12">
      <g>
       <use xlink:href="#m6e8ee4f637" x="144" y="26.053333" style="stroke: #000000; stroke-width: 0.8"/>
      </g>
     </g>
     <g id="text_13">
      <!-- 8.A.146.3.3 -->
      <g transform="translate(79.446875 29.852552) scale(0.1 -0.1)">
       <use xlink:href="#DejaVuSans-38"/>
       <use xlink:href="#DejaVuSans-2e" x="63.623047"/>
       <use xlink:href="#DejaVuSans-41" x="95.410156"/>
       <use xlink:href="#DejaVuSans-2e" x="162.068359"/>
       <use xlink:href="#DejaVuSans-31" x="193.855469"/>
       <use xlink:href="#DejaVuSans-34" x="257.478516"/>
       <use xlink:href="#DejaVuSans-36" x="321.101562"/>
       <use xlink:href="#DejaVuSans-2e" x="384.724609"/>
       <use xlink:href="#DejaVuSans-33" x="416.511719"/>
       <use xlink:href="#DejaVuSans-2e" x="480.134766"/>
       <use xlink:href="#DejaVuSans-33" x="511.921875"/>
      </g>
     </g>
    </g>
   </g>
   <g id="patch_135">
    <path d="M 144 128.16 
L 144 17.28 
" style="fill: none; stroke: #000000; stroke-width: 0.8; stroke-linejoin: miter; stroke-linecap: square"/>
   </g>
   <g id="patch_136">
    <path d="M 1036.8 128.16 
L 1036.8 17.28 
" style="fill: none; stroke: #000000; stroke-width: 0.8; stroke-linejoin: miter; stroke-linecap: square"/>
   </g>
   <g id="patch_137">
    <path d="M 144 128.16 
L 1036.8 128.16 
" style="fill: none; stroke: #000000; stroke-width: 0.8; stroke-linejoin: miter; stroke-linecap: square"/>
   </g>
   <g id="patch_138">
    <path d="M 144 17.28 
L 1036.8 17.28 
" style="fill: none; stroke: #000000; stroke-width: 0.8; stroke-linejoin: miter; stroke-linecap: square"/>
   </g>
   <g id="text_14">
    <!-- 8.A.146 Summary -->
    <g transform="translate(536.415 11.28) scale(0.12 -0.12)">
     <defs>
      <path id="DejaVuSans-20" transform="scale(0.015625)"/>
      <path id="DejaVuSans-53" d="M 3425 4513 
L 3425 3897 
Q 3066 4069 2747 4153 
Q 2428 4238 2131 4238 
Q 1616 4238 1336 4038 
Q 1056 3838 1056 3469 
Q 1056 3159 1242 3001 
Q 1428 2844 1947 2747 
L 2328 2669 
Q 3034 2534 3370 2195 
Q 3706 1856 3706 1288 
Q 3706 609 3251 259 
Q 2797 -91 1919 -91 
Q 1588 -91 1214 -16 
Q 841 59 441 206 
L 441 856 
Q 825 641 1194 531 
Q 1563 422 1919 422 
Q 2459 422 2753 634 
Q 3047 847 3047 1241 
Q 3047 1584 2836 1778 
Q 2625 1972 2144 2069 
L 1759 2144 
Q 1053 2284 737 2584 
Q 422 2884 422 3419 
Q 422 4038 858 4394 
Q 1294 4750 2059 4750 
Q 2388 4750 2728 4690 
Q 3069 4631 3425 4513 
z
" transform="scale(0.015625)"/>
      <path id="DejaVuSans-6d" d="M 3328 2828 
Q 3544 3216 3844 3400 
Q 4144 3584 4550 3584 
Q 5097 3584 5394 3201 
Q 5691 2819 5691 2113 
L 5691 0 
L 5113 0 
L 5113 2094 
Q 5113 2597 4934 2840 
Q 4756 3084 4391 3084 
Q 3944 3084 3684 2787 
Q 3425 2491 3425 1978 
L 3425 0 
L 2847 0 
L 2847 2094 
Q 2847 2600 2669 2842 
Q 2491 3084 2119 3084 
Q 1678 3084 1418 2786 
Q 1159 2488 1159 1978 
L 1159 0 
L 581 0 
L 581 3500 
L 1159 3500 
L 1159 2956 
Q 1356 3278 1631 3431 
Q 1906 3584 2284 3584 
Q 2666 3584 2933 3390 
Q 3200 3197 3328 2828 
z
" transform="scale(0.015625)"/>
      <path id="DejaVuSans-72" d="M 2631 2963 
Q 2534 3019 2420 3045 
Q 2306 3072 2169 3072 
Q 1681 3072 1420 2755 
Q 1159 2438 1159 1844 
L 1159 0 
L 581 0 
L 581 3500 
L 1159 3500 
L 1159 2956 
Q 1341 3275 1631 3429 
Q 1922 3584 2338 3584 
Q 2397 3584 2469 3576 
Q 2541 3569 2628 3553 
L 2631 2963 
z
" transform="scale(0.015625)"/>
      <path id="DejaVuSans-79" d="M 2059 -325 
Q 1816 -950 1584 -1140 
Q 1353 -1331 966 -1331 
L 506 -1331 
L 506 -850 
L 844 -850 
Q 1081 -850 1212 -737 
Q 1344 -625 1503 -206 
L 1606 56 
L 191 3500 
L 800 3500 
L 1894 763 
L 2988 3500 
L 3597 3500 
L 2059 -325 
z
" transform="scale(0.015625)"/>
     </defs>
     <use xlink:href="#DejaVuSans-38"/>
     <use xlink:href="#DejaVuSans-2e" x="63.623047"/>
     <use xlink:href="#DejaVuSans-41" x="95.410156"/>
     <use xlink:href="#DejaVuSans-2e" x="162.068359"/>
     <use xlink:href="#DejaVuSans-31" x="193.855469"/>
     <use xlink:href="#DejaVuSans-34" x="257.478516"/>
     <use xlink:href="#DejaVuSans-36" x="321.101562"/>
     <use xlink:href="#DejaVuSans-20" x="384.724609"/>
     <use xlink:href="#DejaVuSans-53" x="416.511719"/>
     <use xlink:href="#DejaVuSans-75" x="479.988281"/>
     <use xlink:href="#DejaVuSans-6d" x="543.367188"/>
     <use xlink:href="#DejaVuSans-6d" x="640.779297"/>
     <use xlink:href="#DejaVuSans-61" x="738.191406"/>
     <use xlink:href="#DejaVuSans-72" x="799.470703"/>
     <use xlink:href="#DejaVuSans-79" x="840.583984"/>
    </g>
   </g>
  </g>
 </g>
 <defs>
  <clipPath id="p7d21587332">
   <rect x="144" y="17.28" width="892.8" height="110.88"/>
  </clipPath>
 </defs>
</svg>
