<?xml version="1.0" encoding="utf-8" standalone="no"?>
<!DOCTYPE svg PUBLIC "-//W3C//DTD SVG 1.1//EN"
  "http://www.w3.org/Graphics/SVG/1.1/DTD/svg11.dtd">
<svg xmlns:xlink="http://www.w3.org/1999/xlink" width="1152pt" height="180pt" viewBox="0 0 1152 180" xmlns="http://www.w3.org/2000/svg" version="1.1">
 <metadata>
  <rdf:RDF xmlns:dc="http://purl.org/dc/elements/1.1/" xmlns:cc="http://creativecommons.org/ns#" xmlns:rdf="http://www.w3.org/1999/02/22-rdf-syntax-ns#">
   <cc:Work>
    <dc:type rdf:resource="http://purl.org/dc/dcmitype/StillImage"/>
    <dc:date>2024-10-10T19:25:31.234411</dc:date>
    <dc:format>image/svg+xml</dc:format>
    <dc:creator>
     <cc:Agent>
      <dc:title>Matplotlib v3.9.2, https://matplotlib.org/</dc:title>
     </cc:Agent>
    </dc:creator>
   </cc:Work>
  </rdf:RDF>
 </metadata>
 <defs>
  <style type="text/css">*{stroke-linejoin: round; stroke-linecap: butt}</style>
 </defs>
 <g id="figure_1">
  <g id="patch_1">
   <path d="M 0 180 
L 1152 180 
L 1152 0 
L 0 0 
z
" style="fill: #ffffff"/>
  </g>
  <g id="axes_1">
   <g id="patch_2">
    <path d="M 144 160.2 
L 1036.8 160.2 
L 1036.8 21.6 
L 144 21.6 
z
" style="fill: #ffffff"/>
   </g>
   <g id="patch_3">
    <path d="M 144 150.75 
L 163.011785 150.75 
L 163.011785 150.239189 
L 144 150.239189 
z
" clip-path="url(#p8e12c170a0)" style="fill: #0000ff"/>
   </g>
   <g id="patch_4">
    <path d="M 163.667364 153.9 
L 267.904395 153.9 
L 267.904395 147.089189 
L 163.667364 147.089189 
z
" clip-path="url(#p8e12c170a0)" style="fill: #0000ff"/>
   </g>
   <g id="patch_5">
    <path d="M 215.45809 153.9 
L 258.726291 153.9 
L 258.726291 147.089189 
L 215.45809 147.089189 
z
" clip-path="url(#p8e12c170a0)" style="fill: #0000ff"/>
   </g>
   <g id="patch_6">
    <path d="M 220.702721 153.9 
L 258.726291 153.9 
L 258.726291 147.089189 
L 220.702721 147.089189 
z
" clip-path="url(#p8e12c170a0)" style="fill: #0000ff"/>
   </g>
   <g id="patch_7">
    <path d="M 268.559974 150.75 
L 269.215552 150.75 
L 269.215552 150.239189 
L 268.559974 150.239189 
z
" clip-path="url(#p8e12c170a0)" style="fill: #0000ff"/>
   </g>
   <g id="patch_8">
    <path d="M 269.871131 153.9 
L 429.83236 153.9 
L 429.83236 147.089189 
L 269.871131 147.089189 
z
" clip-path="url(#p8e12c170a0)" style="fill: #0000ff"/>
   </g>
   <g id="patch_9">
    <path d="M 351.818482 153.9 
L 429.83236 153.9 
L 429.83236 147.089189 
L 351.818482 147.089189 
z
" clip-path="url(#p8e12c170a0)" style="fill: #0000ff"/>
   </g>
   <g id="patch_10">
    <path d="M 370.830268 153.9 
L 438.354885 153.9 
L 438.354885 147.089189 
L 370.830268 147.089189 
z
" clip-path="url(#p8e12c170a0)" style="fill: #0000ff"/>
   </g>
   <g id="patch_11">
    <path d="M 374.763741 153.9 
L 429.83236 153.9 
L 429.83236 147.089189 
L 374.763741 147.089189 
z
" clip-path="url(#p8e12c170a0)" style="fill: #0000ff"/>
   </g>
   <g id="patch_12">
    <path d="M 382.630686 153.9 
L 430.487939 153.9 
L 430.487939 147.089189 
L 382.630686 147.089189 
z
" clip-path="url(#p8e12c170a0)" style="fill: #0000ff"/>
   </g>
   <g id="patch_13">
    <path d="M 383.286265 153.9 
L 437.043727 153.9 
L 437.043727 147.089189 
L 383.286265 147.089189 
z
" clip-path="url(#p8e12c170a0)" style="fill: #0000ff"/>
   </g>
   <g id="patch_14">
    <path d="M 383.286265 153.9 
L 433.110254 153.9 
L 433.110254 147.089189 
L 383.286265 147.089189 
z
" clip-path="url(#p8e12c170a0)" style="fill: #0000ff"/>
   </g>
   <g id="patch_15">
    <path d="M 439.010464 150.75 
L 667.807468 150.75 
L 667.807468 150.239189 
L 439.010464 150.239189 
z
" clip-path="url(#p8e12c170a0)" style="fill: #0000ff"/>
   </g>
   <g id="patch_16">
    <path d="M 668.463047 153.9 
L 709.764512 153.9 
L 709.764512 147.089189 
L 668.463047 147.089189 
z
" clip-path="url(#p8e12c170a0)" style="fill: #0000ff"/>
   </g>
   <g id="patch_17">
    <path d="M 699.930829 153.9 
L 909.060469 153.9 
L 909.060469 147.089189 
L 699.930829 147.089189 
z
" clip-path="url(#p8e12c170a0)" style="fill: #0000ff"/>
   </g>
   <g id="patch_18">
    <path d="M 745.165767 153.9 
L 885.459632 153.9 
L 885.459632 147.089189 
L 745.165767 147.089189 
z
" clip-path="url(#p8e12c170a0)" style="fill: #0000ff"/>
   </g>
   <g id="patch_19">
    <path d="M 749.09924 153.9 
L 885.459632 153.9 
L 885.459632 147.089189 
L 749.09924 147.089189 
z
" clip-path="url(#p8e12c170a0)" style="fill: #0000ff"/>
   </g>
   <g id="patch_20">
    <path d="M 897.260051 153.9 
L 976.585086 153.9 
L 976.585086 147.089189 
L 897.260051 147.089189 
z
" clip-path="url(#p8e12c170a0)" style="fill: #0000ff"/>
   </g>
   <g id="patch_21">
    <path d="M 977.240665 150.75 
L 994.285714 150.75 
L 994.285714 150.239189 
L 977.240665 150.239189 
z
" clip-path="url(#p8e12c170a0)" style="fill: #0000ff"/>
   </g>
   <g id="patch_22">
    <path d="M 144 133.722973 
L 318.383963 133.722973 
L 318.383963 133.212162 
L 144 133.212162 
z
" clip-path="url(#p8e12c170a0)" style="fill: #0000ff"/>
   </g>
   <g id="patch_23">
    <path d="M 319.039542 136.872973 
L 595.03822 136.872973 
L 595.03822 130.062162 
L 319.039542 130.062162 
z
" clip-path="url(#p8e12c170a0)" style="fill: #0000ff"/>
   </g>
   <g id="patch_24">
    <path d="M 388.530895 136.872973 
L 437.043727 136.872973 
L 437.043727 130.062162 
L 388.530895 130.062162 
z
" clip-path="url(#p8e12c170a0)" style="fill: #0000ff"/>
   </g>
   <g id="patch_25">
    <path d="M 450.155303 136.872973 
L 595.03822 136.872973 
L 595.03822 130.062162 
L 450.155303 130.062162 
z
" clip-path="url(#p8e12c170a0)" style="fill: #0000ff"/>
   </g>
   <g id="patch_26">
    <path d="M 454.088776 136.872973 
L 595.03822 136.872973 
L 595.03822 130.062162 
L 454.088776 130.062162 
z
" clip-path="url(#p8e12c170a0)" style="fill: #0000ff"/>
   </g>
   <g id="patch_27">
    <path d="M 595.693799 133.722973 
L 631.750633 133.722973 
L 631.750633 133.212162 
L 595.693799 133.212162 
z
" clip-path="url(#p8e12c170a0)" style="fill: #0000ff"/>
   </g>
   <g id="patch_28">
    <path d="M 144 116.695946 
L 155.14484 116.695946 
L 155.14484 116.185135 
L 144 116.185135 
z
" clip-path="url(#p8e12c170a0)" style="fill: #0000ff"/>
   </g>
   <g id="patch_29">
    <path d="M 155.800419 119.845946 
L 241.025664 119.845946 
L 241.025664 113.035135 
L 155.800419 113.035135 
z
" clip-path="url(#p8e12c170a0)" style="fill: #0000ff"/>
   </g>
   <g id="patch_30">
    <path d="M 155.800419 119.845946 
L 241.025664 119.845946 
L 241.025664 113.035135 
L 155.800419 113.035135 
z
" clip-path="url(#p8e12c170a0)" style="fill: #0000ff"/>
   </g>
   <g id="patch_31">
    <path d="M 241.681242 116.695946 
L 250.859346 116.695946 
L 250.859346 116.185135 
L 241.681242 116.185135 
z
" clip-path="url(#p8e12c170a0)" style="fill: #0000ff"/>
   </g>
   <g id="patch_32">
    <path d="M 251.514925 119.845946 
L 376.074898 119.845946 
L 376.074898 113.035135 
L 251.514925 113.035135 
z
" clip-path="url(#p8e12c170a0)" style="fill: #0000ff"/>
   </g>
   <g id="patch_33">
    <path d="M 291.505232 119.845946 
L 378.041635 119.845946 
L 378.041635 113.035135 
L 291.505232 113.035135 
z
" clip-path="url(#p8e12c170a0)" style="fill: #0000ff"/>
   </g>
   <g id="patch_34">
    <path d="M 313.794911 119.845946 
L 383.941844 119.845946 
L 383.941844 113.035135 
L 313.794911 113.035135 
z
" clip-path="url(#p8e12c170a0)" style="fill: #0000ff"/>
   </g>
   <g id="patch_35">
    <path d="M 319.039542 119.845946 
L 376.074898 119.845946 
L 376.074898 113.035135 
L 319.039542 113.035135 
z
" clip-path="url(#p8e12c170a0)" style="fill: #0000ff"/>
   </g>
   <g id="patch_36">
    <path d="M 319.039542 119.845946 
L 380.008371 119.845946 
L 380.008371 113.035135 
L 319.039542 113.035135 
z
" clip-path="url(#p8e12c170a0)" style="fill: #0000ff"/>
   </g>
   <g id="patch_37">
    <path d="M 326.250909 119.845946 
L 376.730477 119.845946 
L 376.730477 113.035135 
L 326.250909 113.035135 
z
" clip-path="url(#p8e12c170a0)" style="fill: #0000ff"/>
   </g>
   <g id="patch_38">
    <path d="M 329.528803 119.845946 
L 378.041635 119.845946 
L 378.041635 113.035135 
L 329.528803 113.035135 
z
" clip-path="url(#p8e12c170a0)" style="fill: #0000ff"/>
   </g>
   <g id="patch_39">
    <path d="M 331.495539 119.845946 
L 376.074898 119.845946 
L 376.074898 113.035135 
L 331.495539 113.035135 
z
" clip-path="url(#p8e12c170a0)" style="fill: #0000ff"/>
   </g>
   <g id="patch_40">
    <path d="M 384.597423 116.695946 
L 600.282851 116.695946 
L 600.282851 116.185135 
L 384.597423 116.185135 
z
" clip-path="url(#p8e12c170a0)" style="fill: #0000ff"/>
   </g>
   <g id="patch_41">
    <path d="M 600.938429 119.845946 
L 626.506003 119.845946 
L 626.506003 113.035135 
L 600.938429 113.035135 
z
" clip-path="url(#p8e12c170a0)" style="fill: #0000ff"/>
   </g>
   <g id="patch_42">
    <path d="M 602.249587 119.845946 
L 806.134596 119.845946 
L 806.134596 113.035135 
L 602.249587 113.035135 
z
" clip-path="url(#p8e12c170a0)" style="fill: #0000ff"/>
   </g>
   <g id="patch_43">
    <path d="M 661.907259 119.845946 
L 802.856702 119.845946 
L 802.856702 113.035135 
L 661.907259 113.035135 
z
" clip-path="url(#p8e12c170a0)" style="fill: #0000ff"/>
   </g>
   <g id="patch_44">
    <path d="M 664.529574 119.845946 
L 802.856702 119.845946 
L 802.856702 113.035135 
L 664.529574 113.035135 
z
" clip-path="url(#p8e12c170a0)" style="fill: #0000ff"/>
   </g>
   <g id="patch_45">
    <path d="M 801.545545 119.845946 
L 888.081947 119.845946 
L 888.081947 113.035135 
L 801.545545 113.035135 
z
" clip-path="url(#p8e12c170a0)" style="fill: #0000ff"/>
   </g>
   <g id="patch_46">
    <path d="M 144 99.668919 
L 156.455997 99.668919 
L 156.455997 99.158108 
L 144 99.158108 
z
" clip-path="url(#p8e12c170a0)" style="fill: #0000ff"/>
   </g>
   <g id="patch_47">
    <path d="M 157.111576 102.818919 
L 241.681242 102.818919 
L 241.681242 96.008108 
L 157.111576 96.008108 
z
" clip-path="url(#p8e12c170a0)" style="fill: #0000ff"/>
   </g>
   <g id="patch_48">
    <path d="M 242.336821 99.668919 
L 250.203767 99.668919 
L 250.203767 99.158108 
L 242.336821 99.158108 
z
" clip-path="url(#p8e12c170a0)" style="fill: #0000ff"/>
   </g>
   <g id="patch_49">
    <path d="M 250.859346 102.818919 
L 386.564159 102.818919 
L 386.564159 96.008108 
L 250.859346 96.008108 
z
" clip-path="url(#p8e12c170a0)" style="fill: #0000ff"/>
   </g>
   <g id="patch_50">
    <path d="M 319.695121 102.818919 
L 386.564159 102.818919 
L 386.564159 96.008108 
L 319.695121 96.008108 
z
" clip-path="url(#p8e12c170a0)" style="fill: #0000ff"/>
   </g>
   <g id="patch_51">
    <path d="M 327.562066 102.818919 
L 394.431105 102.818919 
L 394.431105 96.008108 
L 327.562066 96.008108 
z
" clip-path="url(#p8e12c170a0)" style="fill: #0000ff"/>
   </g>
   <g id="patch_52">
    <path d="M 330.83996 102.818919 
L 386.564159 102.818919 
L 386.564159 96.008108 
L 330.83996 96.008108 
z
" clip-path="url(#p8e12c170a0)" style="fill: #0000ff"/>
   </g>
   <g id="patch_53">
    <path d="M 336.084591 102.818919 
L 387.219738 102.818919 
L 387.219738 96.008108 
L 336.084591 96.008108 
z
" clip-path="url(#p8e12c170a0)" style="fill: #0000ff"/>
   </g>
   <g id="patch_54">
    <path d="M 340.018064 102.818919 
L 388.530895 102.818919 
L 388.530895 96.008108 
L 340.018064 96.008108 
z
" clip-path="url(#p8e12c170a0)" style="fill: #0000ff"/>
   </g>
   <g id="patch_55">
    <path d="M 340.018064 102.818919 
L 389.186474 102.818919 
L 389.186474 96.008108 
L 340.018064 96.008108 
z
" clip-path="url(#p8e12c170a0)" style="fill: #0000ff"/>
   </g>
   <g id="patch_56">
    <path d="M 395.086684 99.668919 
L 595.03822 99.668919 
L 595.03822 99.158108 
L 395.086684 99.158108 
z
" clip-path="url(#p8e12c170a0)" style="fill: #0000ff"/>
   </g>
   <g id="patch_57">
    <path d="M 595.693799 102.818919 
L 631.750633 102.818919 
L 631.750633 96.008108 
L 595.693799 96.008108 
z
" clip-path="url(#p8e12c170a0)" style="fill: #0000ff"/>
   </g>
   <g id="patch_58">
    <path d="M 620.605794 102.818919 
L 831.70217 102.818919 
L 831.70217 96.008108 
L 620.605794 96.008108 
z
" clip-path="url(#p8e12c170a0)" style="fill: #0000ff"/>
   </g>
   <g id="patch_59">
    <path d="M 665.840731 102.818919 
L 808.101333 102.818919 
L 808.101333 96.008108 
L 665.840731 96.008108 
z
" clip-path="url(#p8e12c170a0)" style="fill: #0000ff"/>
   </g>
   <g id="patch_60">
    <path d="M 671.085362 102.818919 
L 808.101333 102.818919 
L 808.101333 96.008108 
L 671.085362 96.008108 
z
" clip-path="url(#p8e12c170a0)" style="fill: #0000ff"/>
   </g>
   <g id="patch_61">
    <path d="M 832.357749 99.668919 
L 909.060469 99.668919 
L 909.060469 99.158108 
L 832.357749 99.158108 
z
" clip-path="url(#p8e12c170a0)" style="fill: #0000ff"/>
   </g>
   <g id="patch_62">
    <path d="M 144 82.641892 
L 206.935566 82.641892 
L 206.935566 82.131081 
L 144 82.131081 
z
" clip-path="url(#p8e12c170a0)" style="fill: #0000ff"/>
   </g>
   <g id="patch_63">
    <path d="M 207.591144 85.791892 
L 376.730477 85.791892 
L 376.730477 78.981081 
L 207.591144 78.981081 
z
" clip-path="url(#p8e12c170a0)" style="fill: #0000ff"/>
   </g>
   <g id="patch_64">
    <path d="M 218.080405 85.791892 
L 356.407534 85.791892 
L 356.407534 78.981081 
L 218.080405 78.981081 
z
" clip-path="url(#p8e12c170a0)" style="fill: #0000ff"/>
   </g>
   <g id="patch_65">
    <path d="M 220.047142 85.791892 
L 356.407534 85.791892 
L 356.407534 78.981081 
L 220.047142 78.981081 
z
" clip-path="url(#p8e12c170a0)" style="fill: #0000ff"/>
   </g>
   <g id="patch_66">
    <path d="M 377.386056 82.641892 
L 458.677828 82.641892 
L 458.677828 82.131081 
L 377.386056 82.131081 
z
" clip-path="url(#p8e12c170a0)" style="fill: #0000ff"/>
   </g>
   <g id="patch_67">
    <path d="M 459.333407 85.791892 
L 494.079084 85.791892 
L 494.079084 78.981081 
L 459.333407 78.981081 
z
" clip-path="url(#p8e12c170a0)" style="fill: #0000ff"/>
   </g>
   <g id="patch_68">
    <path d="M 459.988986 85.791892 
L 494.734662 85.791892 
L 494.734662 78.981081 
L 459.988986 78.981081 
z
" clip-path="url(#p8e12c170a0)" style="fill: #0000ff"/>
   </g>
   <g id="patch_69">
    <path d="M 459.988986 85.791892 
L 493.423505 85.791892 
L 493.423505 78.981081 
L 459.988986 78.981081 
z
" clip-path="url(#p8e12c170a0)" style="fill: #0000ff"/>
   </g>
   <g id="patch_70">
    <path d="M 459.988986 85.791892 
L 495.390241 85.791892 
L 495.390241 78.981081 
L 459.988986 78.981081 
z
" clip-path="url(#p8e12c170a0)" style="fill: #0000ff"/>
   </g>
   <g id="patch_71">
    <path d="M 459.988986 85.791892 
L 495.390241 85.791892 
L 495.390241 78.981081 
L 459.988986 78.981081 
z
" clip-path="url(#p8e12c170a0)" style="fill: #0000ff"/>
   </g>
   <g id="patch_72">
    <path d="M 459.988986 85.791892 
L 495.390241 85.791892 
L 495.390241 78.981081 
L 459.988986 78.981081 
z
" clip-path="url(#p8e12c170a0)" style="fill: #0000ff"/>
   </g>
   <g id="patch_73">
    <path d="M 459.988986 85.791892 
L 493.423505 85.791892 
L 493.423505 78.981081 
L 459.988986 78.981081 
z
" clip-path="url(#p8e12c170a0)" style="fill: #0000ff"/>
   </g>
   <g id="patch_74">
    <path d="M 459.988986 85.791892 
L 493.423505 85.791892 
L 493.423505 78.981081 
L 459.988986 78.981081 
z
" clip-path="url(#p8e12c170a0)" style="fill: #0000ff"/>
   </g>
   <g id="patch_75">
    <path d="M 459.988986 85.791892 
L 495.390241 85.791892 
L 495.390241 78.981081 
L 459.988986 78.981081 
z
" clip-path="url(#p8e12c170a0)" style="fill: #0000ff"/>
   </g>
   <g id="patch_76">
    <path d="M 460.644564 85.791892 
L 492.767926 85.791892 
L 492.767926 78.981081 
L 460.644564 78.981081 
z
" clip-path="url(#p8e12c170a0)" style="fill: #0000ff"/>
   </g>
   <g id="patch_77">
    <path d="M 460.644564 85.791892 
L 494.734662 85.791892 
L 494.734662 78.981081 
L 460.644564 78.981081 
z
" clip-path="url(#p8e12c170a0)" style="fill: #0000ff"/>
   </g>
   <g id="patch_78">
    <path d="M 460.644564 85.791892 
L 494.079084 85.791892 
L 494.079084 78.981081 
L 460.644564 78.981081 
z
" clip-path="url(#p8e12c170a0)" style="fill: #0000ff"/>
   </g>
   <g id="patch_79">
    <path d="M 460.644564 85.791892 
L 494.734662 85.791892 
L 494.734662 78.981081 
L 460.644564 78.981081 
z
" clip-path="url(#p8e12c170a0)" style="fill: #0000ff"/>
   </g>
   <g id="patch_80">
    <path d="M 460.644564 85.791892 
L 494.734662 85.791892 
L 494.734662 78.981081 
L 460.644564 78.981081 
z
" clip-path="url(#p8e12c170a0)" style="fill: #0000ff"/>
   </g>
   <g id="patch_81">
    <path d="M 460.644564 85.791892 
L 494.079084 85.791892 
L 494.079084 78.981081 
L 460.644564 78.981081 
z
" clip-path="url(#p8e12c170a0)" style="fill: #0000ff"/>
   </g>
   <g id="patch_82">
    <path d="M 460.644564 85.791892 
L 495.390241 85.791892 
L 495.390241 78.981081 
L 460.644564 78.981081 
z
" clip-path="url(#p8e12c170a0)" style="fill: #0000ff"/>
   </g>
   <g id="patch_83">
    <path d="M 460.644564 85.791892 
L 493.423505 85.791892 
L 493.423505 78.981081 
L 460.644564 78.981081 
z
" clip-path="url(#p8e12c170a0)" style="fill: #0000ff"/>
   </g>
   <g id="patch_84">
    <path d="M 460.644564 85.791892 
L 494.734662 85.791892 
L 494.734662 78.981081 
L 460.644564 78.981081 
z
" clip-path="url(#p8e12c170a0)" style="fill: #0000ff"/>
   </g>
   <g id="patch_85">
    <path d="M 460.644564 85.791892 
L 494.734662 85.791892 
L 494.734662 78.981081 
L 460.644564 78.981081 
z
" clip-path="url(#p8e12c170a0)" style="fill: #0000ff"/>
   </g>
   <g id="patch_86">
    <path d="M 460.644564 85.791892 
L 493.423505 85.791892 
L 493.423505 78.981081 
L 460.644564 78.981081 
z
" clip-path="url(#p8e12c170a0)" style="fill: #0000ff"/>
   </g>
   <g id="patch_87">
    <path d="M 460.644564 85.791892 
L 492.767926 85.791892 
L 492.767926 78.981081 
L 460.644564 78.981081 
z
" clip-path="url(#p8e12c170a0)" style="fill: #0000ff"/>
   </g>
   <g id="patch_88">
    <path d="M 460.644564 85.791892 
L 494.079084 85.791892 
L 494.079084 78.981081 
L 460.644564 78.981081 
z
" clip-path="url(#p8e12c170a0)" style="fill: #0000ff"/>
   </g>
   <g id="patch_89">
    <path d="M 460.644564 85.791892 
L 492.767926 85.791892 
L 492.767926 78.981081 
L 460.644564 78.981081 
z
" clip-path="url(#p8e12c170a0)" style="fill: #0000ff"/>
   </g>
   <g id="patch_90">
    <path d="M 460.644564 85.791892 
L 494.734662 85.791892 
L 494.734662 78.981081 
L 460.644564 78.981081 
z
" clip-path="url(#p8e12c170a0)" style="fill: #0000ff"/>
   </g>
   <g id="patch_91">
    <path d="M 460.644564 85.791892 
L 494.079084 85.791892 
L 494.079084 78.981081 
L 460.644564 78.981081 
z
" clip-path="url(#p8e12c170a0)" style="fill: #0000ff"/>
   </g>
   <g id="patch_92">
    <path d="M 460.644564 85.791892 
L 494.079084 85.791892 
L 494.079084 78.981081 
L 460.644564 78.981081 
z
" clip-path="url(#p8e12c170a0)" style="fill: #0000ff"/>
   </g>
   <g id="patch_93">
    <path d="M 460.644564 85.791892 
L 493.423505 85.791892 
L 493.423505 78.981081 
L 460.644564 78.981081 
z
" clip-path="url(#p8e12c170a0)" style="fill: #0000ff"/>
   </g>
   <g id="patch_94">
    <path d="M 460.644564 85.791892 
L 494.079084 85.791892 
L 494.079084 78.981081 
L 460.644564 78.981081 
z
" clip-path="url(#p8e12c170a0)" style="fill: #0000ff"/>
   </g>
   <g id="patch_95">
    <path d="M 460.644564 85.791892 
L 493.423505 85.791892 
L 493.423505 78.981081 
L 460.644564 78.981081 
z
" clip-path="url(#p8e12c170a0)" style="fill: #0000ff"/>
   </g>
   <g id="patch_96">
    <path d="M 460.644564 85.791892 
L 494.734662 85.791892 
L 494.734662 78.981081 
L 460.644564 78.981081 
z
" clip-path="url(#p8e12c170a0)" style="fill: #0000ff"/>
   </g>
   <g id="patch_97">
    <path d="M 460.644564 85.791892 
L 494.079084 85.791892 
L 494.079084 78.981081 
L 460.644564 78.981081 
z
" clip-path="url(#p8e12c170a0)" style="fill: #0000ff"/>
   </g>
   <g id="patch_98">
    <path d="M 460.644564 85.791892 
L 495.390241 85.791892 
L 495.390241 78.981081 
L 460.644564 78.981081 
z
" clip-path="url(#p8e12c170a0)" style="fill: #0000ff"/>
   </g>
   <g id="patch_99">
    <path d="M 460.644564 85.791892 
L 494.734662 85.791892 
L 494.734662 78.981081 
L 460.644564 78.981081 
z
" clip-path="url(#p8e12c170a0)" style="fill: #0000ff"/>
   </g>
   <g id="patch_100">
    <path d="M 460.644564 85.791892 
L 494.734662 85.791892 
L 494.734662 78.981081 
L 460.644564 78.981081 
z
" clip-path="url(#p8e12c170a0)" style="fill: #0000ff"/>
   </g>
   <g id="patch_101">
    <path d="M 460.644564 85.791892 
L 494.079084 85.791892 
L 494.079084 78.981081 
L 460.644564 78.981081 
z
" clip-path="url(#p8e12c170a0)" style="fill: #0000ff"/>
   </g>
   <g id="patch_102">
    <path d="M 460.644564 85.791892 
L 494.734662 85.791892 
L 494.734662 78.981081 
L 460.644564 78.981081 
z
" clip-path="url(#p8e12c170a0)" style="fill: #0000ff"/>
   </g>
   <g id="patch_103">
    <path d="M 460.644564 85.791892 
L 494.734662 85.791892 
L 494.734662 78.981081 
L 460.644564 78.981081 
z
" clip-path="url(#p8e12c170a0)" style="fill: #0000ff"/>
   </g>
   <g id="patch_104">
    <path d="M 460.644564 85.791892 
L 494.734662 85.791892 
L 494.734662 78.981081 
L 460.644564 78.981081 
z
" clip-path="url(#p8e12c170a0)" style="fill: #0000ff"/>
   </g>
   <g id="patch_105">
    <path d="M 460.644564 85.791892 
L 494.079084 85.791892 
L 494.079084 78.981081 
L 460.644564 78.981081 
z
" clip-path="url(#p8e12c170a0)" style="fill: #0000ff"/>
   </g>
   <g id="patch_106">
    <path d="M 460.644564 85.791892 
L 494.734662 85.791892 
L 494.734662 78.981081 
L 460.644564 78.981081 
z
" clip-path="url(#p8e12c170a0)" style="fill: #0000ff"/>
   </g>
   <g id="patch_107">
    <path d="M 460.644564 85.791892 
L 495.390241 85.791892 
L 495.390241 78.981081 
L 460.644564 78.981081 
z
" clip-path="url(#p8e12c170a0)" style="fill: #0000ff"/>
   </g>
   <g id="patch_108">
    <path d="M 460.644564 85.791892 
L 493.423505 85.791892 
L 493.423505 78.981081 
L 460.644564 78.981081 
z
" clip-path="url(#p8e12c170a0)" style="fill: #0000ff"/>
   </g>
   <g id="patch_109">
    <path d="M 460.644564 85.791892 
L 495.390241 85.791892 
L 495.390241 78.981081 
L 460.644564 78.981081 
z
" clip-path="url(#p8e12c170a0)" style="fill: #0000ff"/>
   </g>
   <g id="patch_110">
    <path d="M 460.644564 85.791892 
L 494.734662 85.791892 
L 494.734662 78.981081 
L 460.644564 78.981081 
z
" clip-path="url(#p8e12c170a0)" style="fill: #0000ff"/>
   </g>
   <g id="patch_111">
    <path d="M 460.644564 85.791892 
L 494.734662 85.791892 
L 494.734662 78.981081 
L 460.644564 78.981081 
z
" clip-path="url(#p8e12c170a0)" style="fill: #0000ff"/>
   </g>
   <g id="patch_112">
    <path d="M 460.644564 85.791892 
L 494.079084 85.791892 
L 494.079084 78.981081 
L 460.644564 78.981081 
z
" clip-path="url(#p8e12c170a0)" style="fill: #0000ff"/>
   </g>
   <g id="patch_113">
    <path d="M 460.644564 85.791892 
L 494.079084 85.791892 
L 494.079084 78.981081 
L 460.644564 78.981081 
z
" clip-path="url(#p8e12c170a0)" style="fill: #0000ff"/>
   </g>
   <g id="patch_114">
    <path d="M 460.644564 85.791892 
L 494.079084 85.791892 
L 494.079084 78.981081 
L 460.644564 78.981081 
z
" clip-path="url(#p8e12c170a0)" style="fill: #0000ff"/>
   </g>
   <g id="patch_115">
    <path d="M 460.644564 85.791892 
L 494.079084 85.791892 
L 494.079084 78.981081 
L 460.644564 78.981081 
z
" clip-path="url(#p8e12c170a0)" style="fill: #0000ff"/>
   </g>
   <g id="patch_116">
    <path d="M 460.644564 85.791892 
L 495.390241 85.791892 
L 495.390241 78.981081 
L 460.644564 78.981081 
z
" clip-path="url(#p8e12c170a0)" style="fill: #0000ff"/>
   </g>
   <g id="patch_117">
    <path d="M 461.300143 85.791892 
L 494.079084 85.791892 
L 494.079084 78.981081 
L 461.300143 78.981081 
z
" clip-path="url(#p8e12c170a0)" style="fill: #0000ff"/>
   </g>
   <g id="patch_118">
    <path d="M 461.300143 85.791892 
L 494.734662 85.791892 
L 494.734662 78.981081 
L 461.300143 78.981081 
z
" clip-path="url(#p8e12c170a0)" style="fill: #0000ff"/>
   </g>
   <g id="patch_119">
    <path d="M 461.300143 85.791892 
L 494.734662 85.791892 
L 494.734662 78.981081 
L 461.300143 78.981081 
z
" clip-path="url(#p8e12c170a0)" style="fill: #0000ff"/>
   </g>
   <g id="patch_120">
    <path d="M 461.300143 85.791892 
L 492.767926 85.791892 
L 492.767926 78.981081 
L 461.300143 78.981081 
z
" clip-path="url(#p8e12c170a0)" style="fill: #0000ff"/>
   </g>
   <g id="patch_121">
    <path d="M 461.300143 85.791892 
L 495.390241 85.791892 
L 495.390241 78.981081 
L 461.300143 78.981081 
z
" clip-path="url(#p8e12c170a0)" style="fill: #0000ff"/>
   </g>
   <g id="patch_122">
    <path d="M 461.300143 85.791892 
L 493.423505 85.791892 
L 493.423505 78.981081 
L 461.300143 78.981081 
z
" clip-path="url(#p8e12c170a0)" style="fill: #0000ff"/>
   </g>
   <g id="patch_123">
    <path d="M 461.300143 85.791892 
L 493.423505 85.791892 
L 493.423505 78.981081 
L 461.300143 78.981081 
z
" clip-path="url(#p8e12c170a0)" style="fill: #0000ff"/>
   </g>
   <g id="patch_124">
    <path d="M 461.300143 85.791892 
L 492.767926 85.791892 
L 492.767926 78.981081 
L 461.300143 78.981081 
z
" clip-path="url(#p8e12c170a0)" style="fill: #0000ff"/>
   </g>
   <g id="patch_125">
    <path d="M 461.300143 85.791892 
L 494.079084 85.791892 
L 494.079084 78.981081 
L 461.300143 78.981081 
z
" clip-path="url(#p8e12c170a0)" style="fill: #0000ff"/>
   </g>
   <g id="patch_126">
    <path d="M 461.300143 85.791892 
L 494.734662 85.791892 
L 494.734662 78.981081 
L 461.300143 78.981081 
z
" clip-path="url(#p8e12c170a0)" style="fill: #0000ff"/>
   </g>
   <g id="patch_127">
    <path d="M 461.300143 85.791892 
L 494.079084 85.791892 
L 494.079084 78.981081 
L 461.300143 78.981081 
z
" clip-path="url(#p8e12c170a0)" style="fill: #0000ff"/>
   </g>
   <g id="patch_128">
    <path d="M 461.300143 85.791892 
L 493.423505 85.791892 
L 493.423505 78.981081 
L 461.300143 78.981081 
z
" clip-path="url(#p8e12c170a0)" style="fill: #0000ff"/>
   </g>
   <g id="patch_129">
    <path d="M 461.300143 85.791892 
L 494.734662 85.791892 
L 494.734662 78.981081 
L 461.300143 78.981081 
z
" clip-path="url(#p8e12c170a0)" style="fill: #0000ff"/>
   </g>
   <g id="patch_130">
    <path d="M 461.300143 85.791892 
L 494.079084 85.791892 
L 494.079084 78.981081 
L 461.300143 78.981081 
z
" clip-path="url(#p8e12c170a0)" style="fill: #0000ff"/>
   </g>
   <g id="patch_131">
    <path d="M 461.300143 85.791892 
L 495.390241 85.791892 
L 495.390241 78.981081 
L 461.300143 78.981081 
z
" clip-path="url(#p8e12c170a0)" style="fill: #0000ff"/>
   </g>
   <g id="patch_132">
    <path d="M 461.300143 85.791892 
L 494.734662 85.791892 
L 494.734662 78.981081 
L 461.300143 78.981081 
z
" clip-path="url(#p8e12c170a0)" style="fill: #0000ff"/>
   </g>
   <g id="patch_133">
    <path d="M 461.300143 85.791892 
L 494.734662 85.791892 
L 494.734662 78.981081 
L 461.300143 78.981081 
z
" clip-path="url(#p8e12c170a0)" style="fill: #0000ff"/>
   </g>
   <g id="patch_134">
    <path d="M 461.300143 85.791892 
L 494.734662 85.791892 
L 494.734662 78.981081 
L 461.300143 78.981081 
z
" clip-path="url(#p8e12c170a0)" style="fill: #0000ff"/>
   </g>
   <g id="patch_135">
    <path d="M 461.300143 85.791892 
L 494.734662 85.791892 
L 494.734662 78.981081 
L 461.300143 78.981081 
z
" clip-path="url(#p8e12c170a0)" style="fill: #0000ff"/>
   </g>
   <g id="patch_136">
    <path d="M 461.300143 85.791892 
L 494.079084 85.791892 
L 494.079084 78.981081 
L 461.300143 78.981081 
z
" clip-path="url(#p8e12c170a0)" style="fill: #0000ff"/>
   </g>
   <g id="patch_137">
    <path d="M 461.300143 85.791892 
L 494.079084 85.791892 
L 494.079084 78.981081 
L 461.300143 78.981081 
z
" clip-path="url(#p8e12c170a0)" style="fill: #0000ff"/>
   </g>
   <g id="patch_138">
    <path d="M 461.300143 85.791892 
L 493.423505 85.791892 
L 493.423505 78.981081 
L 461.300143 78.981081 
z
" clip-path="url(#p8e12c170a0)" style="fill: #0000ff"/>
   </g>
   <g id="patch_139">
    <path d="M 461.300143 85.791892 
L 490.80119 85.791892 
L 490.80119 78.981081 
L 461.300143 78.981081 
z
" clip-path="url(#p8e12c170a0)" style="fill: #0000ff"/>
   </g>
   <g id="patch_140">
    <path d="M 461.300143 85.791892 
L 494.734662 85.791892 
L 494.734662 78.981081 
L 461.300143 78.981081 
z
" clip-path="url(#p8e12c170a0)" style="fill: #0000ff"/>
   </g>
   <g id="patch_141">
    <path d="M 461.300143 85.791892 
L 494.079084 85.791892 
L 494.079084 78.981081 
L 461.300143 78.981081 
z
" clip-path="url(#p8e12c170a0)" style="fill: #0000ff"/>
   </g>
   <g id="patch_142">
    <path d="M 461.300143 85.791892 
L 494.734662 85.791892 
L 494.734662 78.981081 
L 461.300143 78.981081 
z
" clip-path="url(#p8e12c170a0)" style="fill: #0000ff"/>
   </g>
   <g id="patch_143">
    <path d="M 461.300143 85.791892 
L 494.734662 85.791892 
L 494.734662 78.981081 
L 461.300143 78.981081 
z
" clip-path="url(#p8e12c170a0)" style="fill: #0000ff"/>
   </g>
   <g id="patch_144">
    <path d="M 461.300143 85.791892 
L 494.734662 85.791892 
L 494.734662 78.981081 
L 461.300143 78.981081 
z
" clip-path="url(#p8e12c170a0)" style="fill: #0000ff"/>
   </g>
   <g id="patch_145">
    <path d="M 461.300143 85.791892 
L 494.079084 85.791892 
L 494.079084 78.981081 
L 461.300143 78.981081 
z
" clip-path="url(#p8e12c170a0)" style="fill: #0000ff"/>
   </g>
   <g id="patch_146">
    <path d="M 461.300143 85.791892 
L 494.079084 85.791892 
L 494.079084 78.981081 
L 461.300143 78.981081 
z
" clip-path="url(#p8e12c170a0)" style="fill: #0000ff"/>
   </g>
   <g id="patch_147">
    <path d="M 461.300143 85.791892 
L 494.079084 85.791892 
L 494.079084 78.981081 
L 461.300143 78.981081 
z
" clip-path="url(#p8e12c170a0)" style="fill: #0000ff"/>
   </g>
   <g id="patch_148">
    <path d="M 461.300143 85.791892 
L 495.390241 85.791892 
L 495.390241 78.981081 
L 461.300143 78.981081 
z
" clip-path="url(#p8e12c170a0)" style="fill: #0000ff"/>
   </g>
   <g id="patch_149">
    <path d="M 461.300143 85.791892 
L 495.390241 85.791892 
L 495.390241 78.981081 
L 461.300143 78.981081 
z
" clip-path="url(#p8e12c170a0)" style="fill: #0000ff"/>
   </g>
   <g id="patch_150">
    <path d="M 461.955722 85.791892 
L 494.079084 85.791892 
L 494.079084 78.981081 
L 461.955722 78.981081 
z
" clip-path="url(#p8e12c170a0)" style="fill: #0000ff"/>
   </g>
   <g id="patch_151">
    <path d="M 461.955722 85.791892 
L 494.079084 85.791892 
L 494.079084 78.981081 
L 461.955722 78.981081 
z
" clip-path="url(#p8e12c170a0)" style="fill: #0000ff"/>
   </g>
   <g id="patch_152">
    <path d="M 461.955722 85.791892 
L 492.767926 85.791892 
L 492.767926 78.981081 
L 461.955722 78.981081 
z
" clip-path="url(#p8e12c170a0)" style="fill: #0000ff"/>
   </g>
   <g id="patch_153">
    <path d="M 461.955722 85.791892 
L 494.079084 85.791892 
L 494.079084 78.981081 
L 461.955722 78.981081 
z
" clip-path="url(#p8e12c170a0)" style="fill: #0000ff"/>
   </g>
   <g id="patch_154">
    <path d="M 461.955722 85.791892 
L 494.079084 85.791892 
L 494.079084 78.981081 
L 461.955722 78.981081 
z
" clip-path="url(#p8e12c170a0)" style="fill: #0000ff"/>
   </g>
   <g id="patch_155">
    <path d="M 461.955722 85.791892 
L 494.079084 85.791892 
L 494.079084 78.981081 
L 461.955722 78.981081 
z
" clip-path="url(#p8e12c170a0)" style="fill: #0000ff"/>
   </g>
   <g id="patch_156">
    <path d="M 461.955722 85.791892 
L 494.079084 85.791892 
L 494.079084 78.981081 
L 461.955722 78.981081 
z
" clip-path="url(#p8e12c170a0)" style="fill: #0000ff"/>
   </g>
   <g id="patch_157">
    <path d="M 461.955722 85.791892 
L 494.079084 85.791892 
L 494.079084 78.981081 
L 461.955722 78.981081 
z
" clip-path="url(#p8e12c170a0)" style="fill: #0000ff"/>
   </g>
   <g id="patch_158">
    <path d="M 461.955722 85.791892 
L 494.079084 85.791892 
L 494.079084 78.981081 
L 461.955722 78.981081 
z
" clip-path="url(#p8e12c170a0)" style="fill: #0000ff"/>
   </g>
   <g id="patch_159">
    <path d="M 461.955722 85.791892 
L 494.079084 85.791892 
L 494.079084 78.981081 
L 461.955722 78.981081 
z
" clip-path="url(#p8e12c170a0)" style="fill: #0000ff"/>
   </g>
   <g id="patch_160">
    <path d="M 461.955722 85.791892 
L 493.423505 85.791892 
L 493.423505 78.981081 
L 461.955722 78.981081 
z
" clip-path="url(#p8e12c170a0)" style="fill: #0000ff"/>
   </g>
   <g id="patch_161">
    <path d="M 461.955722 85.791892 
L 495.390241 85.791892 
L 495.390241 78.981081 
L 461.955722 78.981081 
z
" clip-path="url(#p8e12c170a0)" style="fill: #0000ff"/>
   </g>
   <g id="patch_162">
    <path d="M 461.955722 85.791892 
L 494.079084 85.791892 
L 494.079084 78.981081 
L 461.955722 78.981081 
z
" clip-path="url(#p8e12c170a0)" style="fill: #0000ff"/>
   </g>
   <g id="patch_163">
    <path d="M 461.955722 85.791892 
L 493.423505 85.791892 
L 493.423505 78.981081 
L 461.955722 78.981081 
z
" clip-path="url(#p8e12c170a0)" style="fill: #0000ff"/>
   </g>
   <g id="patch_164">
    <path d="M 461.955722 85.791892 
L 494.734662 85.791892 
L 494.734662 78.981081 
L 461.955722 78.981081 
z
" clip-path="url(#p8e12c170a0)" style="fill: #0000ff"/>
   </g>
   <g id="patch_165">
    <path d="M 461.955722 85.791892 
L 491.456768 85.791892 
L 491.456768 78.981081 
L 461.955722 78.981081 
z
" clip-path="url(#p8e12c170a0)" style="fill: #0000ff"/>
   </g>
   <g id="patch_166">
    <path d="M 462.611301 85.791892 
L 494.734662 85.791892 
L 494.734662 78.981081 
L 462.611301 78.981081 
z
" clip-path="url(#p8e12c170a0)" style="fill: #0000ff"/>
   </g>
   <g id="patch_167">
    <path d="M 462.611301 85.791892 
L 490.80119 85.791892 
L 490.80119 78.981081 
L 462.611301 78.981081 
z
" clip-path="url(#p8e12c170a0)" style="fill: #0000ff"/>
   </g>
   <g id="patch_168">
    <path d="M 462.611301 85.791892 
L 493.423505 85.791892 
L 493.423505 78.981081 
L 462.611301 78.981081 
z
" clip-path="url(#p8e12c170a0)" style="fill: #0000ff"/>
   </g>
   <g id="patch_169">
    <path d="M 462.611301 85.791892 
L 493.423505 85.791892 
L 493.423505 78.981081 
L 462.611301 78.981081 
z
" clip-path="url(#p8e12c170a0)" style="fill: #0000ff"/>
   </g>
   <g id="patch_170">
    <path d="M 462.611301 85.791892 
L 494.734662 85.791892 
L 494.734662 78.981081 
L 462.611301 78.981081 
z
" clip-path="url(#p8e12c170a0)" style="fill: #0000ff"/>
   </g>
   <g id="patch_171">
    <path d="M 462.611301 85.791892 
L 494.079084 85.791892 
L 494.079084 78.981081 
L 462.611301 78.981081 
z
" clip-path="url(#p8e12c170a0)" style="fill: #0000ff"/>
   </g>
   <g id="patch_172">
    <path d="M 462.611301 85.791892 
L 494.079084 85.791892 
L 494.079084 78.981081 
L 462.611301 78.981081 
z
" clip-path="url(#p8e12c170a0)" style="fill: #0000ff"/>
   </g>
   <g id="patch_173">
    <path d="M 462.611301 85.791892 
L 493.423505 85.791892 
L 493.423505 78.981081 
L 462.611301 78.981081 
z
" clip-path="url(#p8e12c170a0)" style="fill: #0000ff"/>
   </g>
   <g id="patch_174">
    <path d="M 462.611301 85.791892 
L 492.767926 85.791892 
L 492.767926 78.981081 
L 462.611301 78.981081 
z
" clip-path="url(#p8e12c170a0)" style="fill: #0000ff"/>
   </g>
   <g id="patch_175">
    <path d="M 462.611301 85.791892 
L 494.079084 85.791892 
L 494.079084 78.981081 
L 462.611301 78.981081 
z
" clip-path="url(#p8e12c170a0)" style="fill: #0000ff"/>
   </g>
   <g id="patch_176">
    <path d="M 462.611301 85.791892 
L 494.079084 85.791892 
L 494.079084 78.981081 
L 462.611301 78.981081 
z
" clip-path="url(#p8e12c170a0)" style="fill: #0000ff"/>
   </g>
   <g id="patch_177">
    <path d="M 462.611301 85.791892 
L 494.734662 85.791892 
L 494.734662 78.981081 
L 462.611301 78.981081 
z
" clip-path="url(#p8e12c170a0)" style="fill: #0000ff"/>
   </g>
   <g id="patch_178">
    <path d="M 462.611301 85.791892 
L 494.734662 85.791892 
L 494.734662 78.981081 
L 462.611301 78.981081 
z
" clip-path="url(#p8e12c170a0)" style="fill: #0000ff"/>
   </g>
   <g id="patch_179">
    <path d="M 462.611301 85.791892 
L 494.079084 85.791892 
L 494.079084 78.981081 
L 462.611301 78.981081 
z
" clip-path="url(#p8e12c170a0)" style="fill: #0000ff"/>
   </g>
   <g id="patch_180">
    <path d="M 462.611301 85.791892 
L 493.423505 85.791892 
L 493.423505 78.981081 
L 462.611301 78.981081 
z
" clip-path="url(#p8e12c170a0)" style="fill: #0000ff"/>
   </g>
   <g id="patch_181">
    <path d="M 462.611301 85.791892 
L 493.423505 85.791892 
L 493.423505 78.981081 
L 462.611301 78.981081 
z
" clip-path="url(#p8e12c170a0)" style="fill: #0000ff"/>
   </g>
   <g id="patch_182">
    <path d="M 462.611301 85.791892 
L 494.079084 85.791892 
L 494.079084 78.981081 
L 462.611301 78.981081 
z
" clip-path="url(#p8e12c170a0)" style="fill: #0000ff"/>
   </g>
   <g id="patch_183">
    <path d="M 463.922458 85.791892 
L 493.423505 85.791892 
L 493.423505 78.981081 
L 463.922458 78.981081 
z
" clip-path="url(#p8e12c170a0)" style="fill: #0000ff"/>
   </g>
   <g id="patch_184">
    <path d="M 464.578037 85.791892 
L 494.079084 85.791892 
L 494.079084 78.981081 
L 464.578037 78.981081 
z
" clip-path="url(#p8e12c170a0)" style="fill: #0000ff"/>
   </g>
   <g id="patch_185">
    <path d="M 468.51151 85.791892 
L 494.079084 85.791892 
L 494.079084 78.981081 
L 468.51151 78.981081 
z
" clip-path="url(#p8e12c170a0)" style="fill: #0000ff"/>
   </g>
   <g id="patch_186">
    <path d="M 469.822668 85.791892 
L 494.079084 85.791892 
L 494.079084 78.981081 
L 469.822668 78.981081 
z
" clip-path="url(#p8e12c170a0)" style="fill: #0000ff"/>
   </g>
   <g id="patch_187">
    <path d="M 480.311929 85.791892 
L 619.950215 85.791892 
L 619.950215 78.981081 
L 480.311929 78.981081 
z
" clip-path="url(#p8e12c170a0)" style="fill: #0000ff"/>
   </g>
   <g id="patch_188">
    <path d="M 494.079084 85.791892 
L 610.772111 85.791892 
L 610.772111 78.981081 
L 494.079084 78.981081 
z
" clip-path="url(#p8e12c170a0)" style="fill: #0000ff"/>
   </g>
   <g id="patch_189">
    <path d="M 496.04582 85.791892 
L 599.627272 85.791892 
L 599.627272 78.981081 
L 496.04582 78.981081 
z
" clip-path="url(#p8e12c170a0)" style="fill: #0000ff"/>
   </g>
   <g id="patch_190">
    <path d="M 512.43529 85.791892 
L 613.394427 85.791892 
L 613.394427 78.981081 
L 512.43529 78.981081 
z
" clip-path="url(#p8e12c170a0)" style="fill: #0000ff"/>
   </g>
   <g id="patch_191">
    <path d="M 513.090869 85.791892 
L 598.316114 85.791892 
L 598.316114 78.981081 
L 513.090869 78.981081 
z
" clip-path="url(#p8e12c170a0)" style="fill: #0000ff"/>
   </g>
   <g id="patch_192">
    <path d="M 572.092962 85.791892 
L 612.738848 85.791892 
L 612.738848 78.981081 
L 572.092962 78.981081 
z
" clip-path="url(#p8e12c170a0)" style="fill: #0000ff"/>
   </g>
   <g id="patch_193">
    <path d="M 620.605794 82.641892 
L 634.372949 82.641892 
L 634.372949 82.131081 
L 620.605794 82.131081 
z
" clip-path="url(#p8e12c170a0)" style="fill: #0000ff"/>
   </g>
   <g id="patch_194">
    <path d="M 144 65.614865 
L 164.322943 65.614865 
L 164.322943 65.104054 
L 144 65.104054 
z
" clip-path="url(#p8e12c170a0)" style="fill: #0000ff"/>
   </g>
   <g id="patch_195">
    <path d="M 164.978522 68.764865 
L 205.624408 68.764865 
L 205.624408 61.954054 
L 164.978522 61.954054 
z
" clip-path="url(#p8e12c170a0)" style="fill: #0000ff"/>
   </g>
   <g id="patch_196">
    <path d="M 166.289679 68.764865 
L 201.690935 68.764865 
L 201.690935 61.954054 
L 166.289679 61.954054 
z
" clip-path="url(#p8e12c170a0)" style="fill: #0000ff"/>
   </g>
   <g id="patch_197">
    <path d="M 206.279987 65.614865 
L 214.802511 65.614865 
L 214.802511 65.104054 
L 206.279987 65.104054 
z
" clip-path="url(#p8e12c170a0)" style="fill: #0000ff"/>
   </g>
   <g id="patch_198">
    <path d="M 215.45809 68.764865 
L 254.792819 68.764865 
L 254.792819 61.954054 
L 215.45809 61.954054 
z
" clip-path="url(#p8e12c170a0)" style="fill: #0000ff"/>
   </g>
   <g id="patch_199">
    <path d="M 215.45809 68.764865 
L 254.13724 68.764865 
L 254.13724 61.954054 
L 215.45809 61.954054 
z
" clip-path="url(#p8e12c170a0)" style="fill: #0000ff"/>
   </g>
   <g id="patch_200">
    <path d="M 255.448397 65.614865 
L 277.738077 65.614865 
L 277.738077 65.104054 
L 255.448397 65.104054 
z
" clip-path="url(#p8e12c170a0)" style="fill: #0000ff"/>
   </g>
   <g id="patch_201">
    <path d="M 278.393656 68.764865 
L 306.583544 68.764865 
L 306.583544 61.954054 
L 278.393656 61.954054 
z
" clip-path="url(#p8e12c170a0)" style="fill: #0000ff"/>
   </g>
   <g id="patch_202">
    <path d="M 307.239123 65.614865 
L 313.794911 65.614865 
L 313.794911 65.104054 
L 307.239123 65.104054 
z
" clip-path="url(#p8e12c170a0)" style="fill: #0000ff"/>
   </g>
   <g id="patch_203">
    <path d="M 314.45049 68.764865 
L 370.830268 68.764865 
L 370.830268 61.954054 
L 314.45049 61.954054 
z
" clip-path="url(#p8e12c170a0)" style="fill: #0000ff"/>
   </g>
   <g id="patch_204">
    <path d="M 319.695121 68.764865 
L 364.930058 68.764865 
L 364.930058 61.954054 
L 319.695121 61.954054 
z
" clip-path="url(#p8e12c170a0)" style="fill: #0000ff"/>
   </g>
   <g id="patch_205">
    <path d="M 371.485846 65.614865 
L 377.386056 65.614865 
L 377.386056 65.104054 
L 371.485846 65.104054 
z
" clip-path="url(#p8e12c170a0)" style="fill: #0000ff"/>
   </g>
   <g id="patch_206">
    <path d="M 144 48.587838 
L 145.311158 48.587838 
L 145.311158 48.077027 
L 144 48.077027 
z
" clip-path="url(#p8e12c170a0)" style="fill: #0000ff"/>
   </g>
   <g id="patch_207">
    <path d="M 145.966736 51.737838 
L 395.086684 51.737838 
L 395.086684 44.927027 
L 145.966736 44.927027 
z
" clip-path="url(#p8e12c170a0)" style="fill: #0000ff"/>
   </g>
   <g id="patch_208">
    <path d="M 195.135147 51.737838 
L 393.119947 51.737838 
L 393.119947 44.927027 
L 195.135147 44.927027 
z
" clip-path="url(#p8e12c170a0)" style="fill: #0000ff"/>
   </g>
   <g id="patch_209">
    <path d="M 198.413041 51.737838 
L 393.119947 51.737838 
L 393.119947 44.927027 
L 198.413041 44.927027 
z
" clip-path="url(#p8e12c170a0)" style="fill: #0000ff"/>
   </g>
   <g id="patch_210">
    <path d="M 395.742262 48.587838 
L 664.529574 48.587838 
L 664.529574 48.077027 
L 395.742262 48.077027 
z
" clip-path="url(#p8e12c170a0)" style="fill: #0000ff"/>
   </g>
   <g id="patch_211">
    <path d="M 144 31.560811 
L 186.612623 31.560811 
L 186.612623 31.05 
L 144 31.05 
z
" clip-path="url(#p8e12c170a0)" style="fill: #0000ff"/>
   </g>
   <g id="patch_212">
    <path d="M 187.268201 34.710811 
L 275.115762 34.710811 
L 275.115762 27.9 
L 187.268201 27.9 
z
" clip-path="url(#p8e12c170a0)" style="fill: #0000ff"/>
   </g>
   <g id="patch_213">
    <path d="M 187.92378 34.710811 
L 260.693028 34.710811 
L 260.693028 27.9 
L 187.92378 27.9 
z
" clip-path="url(#p8e12c170a0)" style="fill: #0000ff"/>
   </g>
   <g id="patch_214">
    <path d="M 188.579359 34.710811 
L 258.070713 34.710811 
L 258.070713 27.9 
L 188.579359 27.9 
z
" clip-path="url(#p8e12c170a0)" style="fill: #0000ff"/>
   </g>
   <g id="patch_215">
    <path d="M 191.201674 34.710811 
L 279.704813 34.710811 
L 279.704813 27.9 
L 191.201674 27.9 
z
" clip-path="url(#p8e12c170a0)" style="fill: #0000ff"/>
   </g>
   <g id="patch_216">
    <path d="M 194.479568 34.710811 
L 279.704813 34.710811 
L 279.704813 27.9 
L 194.479568 27.9 
z
" clip-path="url(#p8e12c170a0)" style="fill: #0000ff"/>
   </g>
   <g id="patch_217">
    <path d="M 196.446305 34.710811 
L 271.182289 34.710811 
L 271.182289 27.9 
L 196.446305 27.9 
z
" clip-path="url(#p8e12c170a0)" style="fill: #0000ff"/>
   </g>
   <g id="patch_218">
    <path d="M 197.101883 34.710811 
L 271.182289 34.710811 
L 271.182289 27.9 
L 197.101883 27.9 
z
" clip-path="url(#p8e12c170a0)" style="fill: #0000ff"/>
   </g>
   <g id="patch_219">
    <path d="M 197.101883 34.710811 
L 250.859346 34.710811 
L 250.859346 27.9 
L 197.101883 27.9 
z
" clip-path="url(#p8e12c170a0)" style="fill: #0000ff"/>
   </g>
   <g id="patch_220">
    <path d="M 197.101883 34.710811 
L 259.38187 34.710811 
L 259.38187 27.9 
L 197.101883 27.9 
z
" clip-path="url(#p8e12c170a0)" style="fill: #0000ff"/>
   </g>
   <g id="patch_221">
    <path d="M 197.101883 34.710811 
L 271.182289 34.710811 
L 271.182289 27.9 
L 197.101883 27.9 
z
" clip-path="url(#p8e12c170a0)" style="fill: #0000ff"/>
   </g>
   <g id="patch_222">
    <path d="M 197.101883 34.710811 
L 271.182289 34.710811 
L 271.182289 27.9 
L 197.101883 27.9 
z
" clip-path="url(#p8e12c170a0)" style="fill: #0000ff"/>
   </g>
   <g id="patch_223">
    <path d="M 197.757462 34.710811 
L 271.182289 34.710811 
L 271.182289 27.9 
L 197.757462 27.9 
z
" clip-path="url(#p8e12c170a0)" style="fill: #0000ff"/>
   </g>
   <g id="patch_224">
    <path d="M 197.757462 34.710811 
L 270.52671 34.710811 
L 270.52671 27.9 
L 197.757462 27.9 
z
" clip-path="url(#p8e12c170a0)" style="fill: #0000ff"/>
   </g>
   <g id="patch_225">
    <path d="M 197.757462 34.710811 
L 274.460183 34.710811 
L 274.460183 27.9 
L 197.757462 27.9 
z
" clip-path="url(#p8e12c170a0)" style="fill: #0000ff"/>
   </g>
   <g id="patch_226">
    <path d="M 197.757462 34.710811 
L 273.149025 34.710811 
L 273.149025 27.9 
L 197.757462 27.9 
z
" clip-path="url(#p8e12c170a0)" style="fill: #0000ff"/>
   </g>
   <g id="patch_227">
    <path d="M 213.491354 34.710811 
L 271.182289 34.710811 
L 271.182289 27.9 
L 213.491354 27.9 
z
" clip-path="url(#p8e12c170a0)" style="fill: #0000ff"/>
   </g>
   <g id="patch_228">
    <path d="M 280.360392 31.560811 
L 320.350699 31.560811 
L 320.350699 31.05 
L 280.360392 31.05 
z
" clip-path="url(#p8e12c170a0)" style="fill: #0000ff"/>
   </g>
   <g id="patch_229">
    <path d="M 321.006278 34.710811 
L 388.530895 34.710811 
L 388.530895 27.9 
L 321.006278 27.9 
z
" clip-path="url(#p8e12c170a0)" style="fill: #0000ff"/>
   </g>
   <g id="patch_230">
    <path d="M 389.186474 31.560811 
L 507.846239 31.560811 
L 507.846239 31.05 
L 389.186474 31.05 
z
" clip-path="url(#p8e12c170a0)" style="fill: #0000ff"/>
   </g>
   <g id="matplotlib.axis_1">
    <g id="xtick_1">
     <g id="line2d_1">
      <defs>
       <path id="mf91731beea" d="M 0 0 
L 0 3.5 
" style="stroke: #000000; stroke-width: 0.8"/>
      </defs>
      <g>
       <use xlink:href="#mf91731beea" x="274.460183" y="160.2" style="stroke: #000000; stroke-width: 0.8"/>
      </g>
     </g>
     <g id="text_1">
      <!-- 200 -->
      <g transform="translate(264.916433 174.798438) scale(0.1 -0.1)">
       <defs>
        <path id="DejaVuSans-32" d="M 1228 531 
L 3431 531 
L 3431 0 
L 469 0 
L 469 531 
Q 828 903 1448 1529 
Q 2069 2156 2228 2338 
Q 2531 2678 2651 2914 
Q 2772 3150 2772 3378 
Q 2772 3750 2511 3984 
Q 2250 4219 1831 4219 
Q 1534 4219 1204 4116 
Q 875 4013 500 3803 
L 500 4441 
Q 881 4594 1212 4672 
Q 1544 4750 1819 4750 
Q 2544 4750 2975 4387 
Q 3406 4025 3406 3419 
Q 3406 3131 3298 2873 
Q 3191 2616 2906 2266 
Q 2828 2175 2409 1742 
Q 1991 1309 1228 531 
z
" transform="scale(0.015625)"/>
        <path id="DejaVuSans-30" d="M 2034 4250 
Q 1547 4250 1301 3770 
Q 1056 3291 1056 2328 
Q 1056 1369 1301 889 
Q 1547 409 2034 409 
Q 2525 409 2770 889 
Q 3016 1369 3016 2328 
Q 3016 3291 2770 3770 
Q 2525 4250 2034 4250 
z
M 2034 4750 
Q 2819 4750 3233 4129 
Q 3647 3509 3647 2328 
Q 3647 1150 3233 529 
Q 2819 -91 2034 -91 
Q 1250 -91 836 529 
Q 422 1150 422 2328 
Q 422 3509 836 4129 
Q 1250 4750 2034 4750 
z
" transform="scale(0.015625)"/>
       </defs>
       <use xlink:href="#DejaVuSans-32"/>
       <use xlink:href="#DejaVuSans-30" x="63.623047"/>
       <use xlink:href="#DejaVuSans-30" x="127.246094"/>
      </g>
     </g>
    </g>
    <g id="xtick_2">
     <g id="line2d_2">
      <g>
       <use xlink:href="#mf91731beea" x="405.575944" y="160.2" style="stroke: #000000; stroke-width: 0.8"/>
      </g>
     </g>
     <g id="text_2">
      <!-- 400 -->
      <g transform="translate(396.032194 174.798438) scale(0.1 -0.1)">
       <defs>
        <path id="DejaVuSans-34" d="M 2419 4116 
L 825 1625 
L 2419 1625 
L 2419 4116 
z
M 2253 4666 
L 3047 4666 
L 3047 1625 
L 3713 1625 
L 3713 1100 
L 3047 1100 
L 3047 0 
L 2419 0 
L 2419 1100 
L 313 1100 
L 313 1709 
L 2253 4666 
z
" transform="scale(0.015625)"/>
       </defs>
       <use xlink:href="#DejaVuSans-34"/>
       <use xlink:href="#DejaVuSans-30" x="63.623047"/>
       <use xlink:href="#DejaVuSans-30" x="127.246094"/>
      </g>
     </g>
    </g>
    <g id="xtick_3">
     <g id="line2d_3">
      <g>
       <use xlink:href="#mf91731beea" x="536.691706" y="160.2" style="stroke: #000000; stroke-width: 0.8"/>
      </g>
     </g>
     <g id="text_3">
      <!-- 600 -->
      <g transform="translate(527.147956 174.798438) scale(0.1 -0.1)">
       <defs>
        <path id="DejaVuSans-36" d="M 2113 2584 
Q 1688 2584 1439 2293 
Q 1191 2003 1191 1497 
Q 1191 994 1439 701 
Q 1688 409 2113 409 
Q 2538 409 2786 701 
Q 3034 994 3034 1497 
Q 3034 2003 2786 2293 
Q 2538 2584 2113 2584 
z
M 3366 4563 
L 3366 3988 
Q 3128 4100 2886 4159 
Q 2644 4219 2406 4219 
Q 1781 4219 1451 3797 
Q 1122 3375 1075 2522 
Q 1259 2794 1537 2939 
Q 1816 3084 2150 3084 
Q 2853 3084 3261 2657 
Q 3669 2231 3669 1497 
Q 3669 778 3244 343 
Q 2819 -91 2113 -91 
Q 1303 -91 875 529 
Q 447 1150 447 2328 
Q 447 3434 972 4092 
Q 1497 4750 2381 4750 
Q 2619 4750 2861 4703 
Q 3103 4656 3366 4563 
z
" transform="scale(0.015625)"/>
       </defs>
       <use xlink:href="#DejaVuSans-36"/>
       <use xlink:href="#DejaVuSans-30" x="63.623047"/>
       <use xlink:href="#DejaVuSans-30" x="127.246094"/>
      </g>
     </g>
    </g>
    <g id="xtick_4">
     <g id="line2d_4">
      <g>
       <use xlink:href="#mf91731beea" x="667.807468" y="160.2" style="stroke: #000000; stroke-width: 0.8"/>
      </g>
     </g>
     <g id="text_4">
      <!-- 800 -->
      <g transform="translate(658.263718 174.798438) scale(0.1 -0.1)">
       <defs>
        <path id="DejaVuSans-38" d="M 2034 2216 
Q 1584 2216 1326 1975 
Q 1069 1734 1069 1313 
Q 1069 891 1326 650 
Q 1584 409 2034 409 
Q 2484 409 2743 651 
Q 3003 894 3003 1313 
Q 3003 1734 2745 1975 
Q 2488 2216 2034 2216 
z
M 1403 2484 
Q 997 2584 770 2862 
Q 544 3141 544 3541 
Q 544 4100 942 4425 
Q 1341 4750 2034 4750 
Q 2731 4750 3128 4425 
Q 3525 4100 3525 3541 
Q 3525 3141 3298 2862 
Q 3072 2584 2669 2484 
Q 3125 2378 3379 2068 
Q 3634 1759 3634 1313 
Q 3634 634 3220 271 
Q 2806 -91 2034 -91 
Q 1263 -91 848 271 
Q 434 634 434 1313 
Q 434 1759 690 2068 
Q 947 2378 1403 2484 
z
M 1172 3481 
Q 1172 3119 1398 2916 
Q 1625 2713 2034 2713 
Q 2441 2713 2670 2916 
Q 2900 3119 2900 3481 
Q 2900 3844 2670 4047 
Q 2441 4250 2034 4250 
Q 1625 4250 1398 4047 
Q 1172 3844 1172 3481 
z
" transform="scale(0.015625)"/>
       </defs>
       <use xlink:href="#DejaVuSans-38"/>
       <use xlink:href="#DejaVuSans-30" x="63.623047"/>
       <use xlink:href="#DejaVuSans-30" x="127.246094"/>
      </g>
     </g>
    </g>
    <g id="xtick_5">
     <g id="line2d_5">
      <g>
       <use xlink:href="#mf91731beea" x="798.923229" y="160.2" style="stroke: #000000; stroke-width: 0.8"/>
      </g>
     </g>
     <g id="text_5">
      <!-- 1000 -->
      <g transform="translate(786.198229 174.798438) scale(0.1 -0.1)">
       <defs>
        <path id="DejaVuSans-31" d="M 794 531 
L 1825 531 
L 1825 4091 
L 703 3866 
L 703 4441 
L 1819 4666 
L 2450 4666 
L 2450 531 
L 3481 531 
L 3481 0 
L 794 0 
L 794 531 
z
" transform="scale(0.015625)"/>
       </defs>
       <use xlink:href="#DejaVuSans-31"/>
       <use xlink:href="#DejaVuSans-30" x="63.623047"/>
       <use xlink:href="#DejaVuSans-30" x="127.246094"/>
       <use xlink:href="#DejaVuSans-30" x="190.869141"/>
      </g>
     </g>
    </g>
    <g id="xtick_6">
     <g id="line2d_6">
      <g>
       <use xlink:href="#mf91731beea" x="930.038991" y="160.2" style="stroke: #000000; stroke-width: 0.8"/>
      </g>
     </g>
     <g id="text_6">
      <!-- 1200 -->
      <g transform="translate(917.313991 174.798438) scale(0.1 -0.1)">
       <use xlink:href="#DejaVuSans-31"/>
       <use xlink:href="#DejaVuSans-32" x="63.623047"/>
       <use xlink:href="#DejaVuSans-30" x="127.246094"/>
       <use xlink:href="#DejaVuSans-30" x="190.869141"/>
      </g>
     </g>
    </g>
    <g id="text_7">
     <!-- Residual -->
     <g transform="translate(569.284375 188.476562) scale(0.1 -0.1)">
      <defs>
       <path id="DejaVuSans-52" d="M 2841 2188 
Q 3044 2119 3236 1894 
Q 3428 1669 3622 1275 
L 4263 0 
L 3584 0 
L 2988 1197 
Q 2756 1666 2539 1819 
Q 2322 1972 1947 1972 
L 1259 1972 
L 1259 0 
L 628 0 
L 628 4666 
L 2053 4666 
Q 2853 4666 3247 4331 
Q 3641 3997 3641 3322 
Q 3641 2881 3436 2590 
Q 3231 2300 2841 2188 
z
M 1259 4147 
L 1259 2491 
L 2053 2491 
Q 2509 2491 2742 2702 
Q 2975 2913 2975 3322 
Q 2975 3731 2742 3939 
Q 2509 4147 2053 4147 
L 1259 4147 
z
" transform="scale(0.015625)"/>
       <path id="DejaVuSans-65" d="M 3597 1894 
L 3597 1613 
L 953 1613 
Q 991 1019 1311 708 
Q 1631 397 2203 397 
Q 2534 397 2845 478 
Q 3156 559 3463 722 
L 3463 178 
Q 3153 47 2828 -22 
Q 2503 -91 2169 -91 
Q 1331 -91 842 396 
Q 353 884 353 1716 
Q 353 2575 817 3079 
Q 1281 3584 2069 3584 
Q 2775 3584 3186 3129 
Q 3597 2675 3597 1894 
z
M 3022 2063 
Q 3016 2534 2758 2815 
Q 2500 3097 2075 3097 
Q 1594 3097 1305 2825 
Q 1016 2553 972 2059 
L 3022 2063 
z
" transform="scale(0.015625)"/>
       <path id="DejaVuSans-73" d="M 2834 3397 
L 2834 2853 
Q 2591 2978 2328 3040 
Q 2066 3103 1784 3103 
Q 1356 3103 1142 2972 
Q 928 2841 928 2578 
Q 928 2378 1081 2264 
Q 1234 2150 1697 2047 
L 1894 2003 
Q 2506 1872 2764 1633 
Q 3022 1394 3022 966 
Q 3022 478 2636 193 
Q 2250 -91 1575 -91 
Q 1294 -91 989 -36 
Q 684 19 347 128 
L 347 722 
Q 666 556 975 473 
Q 1284 391 1588 391 
Q 1994 391 2212 530 
Q 2431 669 2431 922 
Q 2431 1156 2273 1281 
Q 2116 1406 1581 1522 
L 1381 1569 
Q 847 1681 609 1914 
Q 372 2147 372 2553 
Q 372 3047 722 3315 
Q 1072 3584 1716 3584 
Q 2034 3584 2315 3537 
Q 2597 3491 2834 3397 
z
" transform="scale(0.015625)"/>
       <path id="DejaVuSans-69" d="M 603 3500 
L 1178 3500 
L 1178 0 
L 603 0 
L 603 3500 
z
M 603 4863 
L 1178 4863 
L 1178 4134 
L 603 4134 
L 603 4863 
z
" transform="scale(0.015625)"/>
       <path id="DejaVuSans-64" d="M 2906 2969 
L 2906 4863 
L 3481 4863 
L 3481 0 
L 2906 0 
L 2906 525 
Q 2725 213 2448 61 
Q 2172 -91 1784 -91 
Q 1150 -91 751 415 
Q 353 922 353 1747 
Q 353 2572 751 3078 
Q 1150 3584 1784 3584 
Q 2172 3584 2448 3432 
Q 2725 3281 2906 2969 
z
M 947 1747 
Q 947 1113 1208 752 
Q 1469 391 1925 391 
Q 2381 391 2643 752 
Q 2906 1113 2906 1747 
Q 2906 2381 2643 2742 
Q 2381 3103 1925 3103 
Q 1469 3103 1208 2742 
Q 947 2381 947 1747 
z
" transform="scale(0.015625)"/>
       <path id="DejaVuSans-75" d="M 544 1381 
L 544 3500 
L 1119 3500 
L 1119 1403 
Q 1119 906 1312 657 
Q 1506 409 1894 409 
Q 2359 409 2629 706 
Q 2900 1003 2900 1516 
L 2900 3500 
L 3475 3500 
L 3475 0 
L 2900 0 
L 2900 538 
Q 2691 219 2414 64 
Q 2138 -91 1772 -91 
Q 1169 -91 856 284 
Q 544 659 544 1381 
z
M 1991 3584 
L 1991 3584 
z
" transform="scale(0.015625)"/>
       <path id="DejaVuSans-61" d="M 2194 1759 
Q 1497 1759 1228 1600 
Q 959 1441 959 1056 
Q 959 750 1161 570 
Q 1363 391 1709 391 
Q 2188 391 2477 730 
Q 2766 1069 2766 1631 
L 2766 1759 
L 2194 1759 
z
M 3341 1997 
L 3341 0 
L 2766 0 
L 2766 531 
Q 2569 213 2275 61 
Q 1981 -91 1556 -91 
Q 1019 -91 701 211 
Q 384 513 384 1019 
Q 384 1609 779 1909 
Q 1175 2209 1959 2209 
L 2766 2209 
L 2766 2266 
Q 2766 2663 2505 2880 
Q 2244 3097 1772 3097 
Q 1472 3097 1187 3025 
Q 903 2953 641 2809 
L 641 3341 
Q 956 3463 1253 3523 
Q 1550 3584 1831 3584 
Q 2591 3584 2966 3190 
Q 3341 2797 3341 1997 
z
" transform="scale(0.015625)"/>
       <path id="DejaVuSans-6c" d="M 603 4863 
L 1178 4863 
L 1178 0 
L 603 0 
L 603 4863 
z
" transform="scale(0.015625)"/>
      </defs>
      <use xlink:href="#DejaVuSans-52"/>
      <use xlink:href="#DejaVuSans-65" x="64.982422"/>
      <use xlink:href="#DejaVuSans-73" x="126.505859"/>
      <use xlink:href="#DejaVuSans-69" x="178.605469"/>
      <use xlink:href="#DejaVuSans-64" x="206.388672"/>
      <use xlink:href="#DejaVuSans-75" x="269.865234"/>
      <use xlink:href="#DejaVuSans-61" x="333.244141"/>
      <use xlink:href="#DejaVuSans-6c" x="394.523438"/>
     </g>
    </g>
   </g>
   <g id="matplotlib.axis_2">
    <g id="ytick_1">
     <g id="line2d_7">
      <defs>
       <path id="mbcb6af0d10" d="M 0 0 
L -3.5 0 
" style="stroke: #000000; stroke-width: 0.8"/>
      </defs>
      <g>
       <use xlink:href="#mbcb6af0d10" x="144" y="150.494595" style="stroke: #000000; stroke-width: 0.8"/>
      </g>
     </g>
     <g id="text_8">
      <!-- 8.A.87.1.1 -->
      <g transform="translate(85.809375 154.293813) scale(0.1 -0.1)">
       <defs>
        <path id="DejaVuSans-2e" d="M 684 794 
L 1344 794 
L 1344 0 
L 684 0 
L 684 794 
z
" transform="scale(0.015625)"/>
        <path id="DejaVuSans-41" d="M 2188 4044 
L 1331 1722 
L 3047 1722 
L 2188 4044 
z
M 1831 4666 
L 2547 4666 
L 4325 0 
L 3669 0 
L 3244 1197 
L 1141 1197 
L 716 0 
L 50 0 
L 1831 4666 
z
" transform="scale(0.015625)"/>
        <path id="DejaVuSans-37" d="M 525 4666 
L 3525 4666 
L 3525 4397 
L 1831 0 
L 1172 0 
L 2766 4134 
L 525 4134 
L 525 4666 
z
" transform="scale(0.015625)"/>
       </defs>
       <use xlink:href="#DejaVuSans-38"/>
       <use xlink:href="#DejaVuSans-2e" x="63.623047"/>
       <use xlink:href="#DejaVuSans-41" x="95.410156"/>
       <use xlink:href="#DejaVuSans-2e" x="162.068359"/>
       <use xlink:href="#DejaVuSans-38" x="193.855469"/>
       <use xlink:href="#DejaVuSans-37" x="257.478516"/>
       <use xlink:href="#DejaVuSans-2e" x="321.101562"/>
       <use xlink:href="#DejaVuSans-31" x="352.888672"/>
       <use xlink:href="#DejaVuSans-2e" x="416.511719"/>
       <use xlink:href="#DejaVuSans-31" x="448.298828"/>
      </g>
     </g>
    </g>
    <g id="ytick_2">
     <g id="line2d_8">
      <g>
       <use xlink:href="#mbcb6af0d10" x="144" y="133.467568" style="stroke: #000000; stroke-width: 0.8"/>
      </g>
     </g>
     <g id="text_9">
      <!-- 8.A.87.1.2 -->
      <g transform="translate(85.809375 137.266786) scale(0.1 -0.1)">
       <use xlink:href="#DejaVuSans-38"/>
       <use xlink:href="#DejaVuSans-2e" x="63.623047"/>
       <use xlink:href="#DejaVuSans-41" x="95.410156"/>
       <use xlink:href="#DejaVuSans-2e" x="162.068359"/>
       <use xlink:href="#DejaVuSans-38" x="193.855469"/>
       <use xlink:href="#DejaVuSans-37" x="257.478516"/>
       <use xlink:href="#DejaVuSans-2e" x="321.101562"/>
       <use xlink:href="#DejaVuSans-31" x="352.888672"/>
       <use xlink:href="#DejaVuSans-2e" x="416.511719"/>
       <use xlink:href="#DejaVuSans-32" x="448.298828"/>
      </g>
     </g>
    </g>
    <g id="ytick_3">
     <g id="line2d_9">
      <g>
       <use xlink:href="#mbcb6af0d10" x="144" y="116.440541" style="stroke: #000000; stroke-width: 0.8"/>
      </g>
     </g>
     <g id="text_10">
      <!-- 8.A.87.1.3 -->
      <g transform="translate(85.809375 120.239759) scale(0.1 -0.1)">
       <defs>
        <path id="DejaVuSans-33" d="M 2597 2516 
Q 3050 2419 3304 2112 
Q 3559 1806 3559 1356 
Q 3559 666 3084 287 
Q 2609 -91 1734 -91 
Q 1441 -91 1130 -33 
Q 819 25 488 141 
L 488 750 
Q 750 597 1062 519 
Q 1375 441 1716 441 
Q 2309 441 2620 675 
Q 2931 909 2931 1356 
Q 2931 1769 2642 2001 
Q 2353 2234 1838 2234 
L 1294 2234 
L 1294 2753 
L 1863 2753 
Q 2328 2753 2575 2939 
Q 2822 3125 2822 3475 
Q 2822 3834 2567 4026 
Q 2313 4219 1838 4219 
Q 1578 4219 1281 4162 
Q 984 4106 628 3988 
L 628 4550 
Q 988 4650 1302 4700 
Q 1616 4750 1894 4750 
Q 2613 4750 3031 4423 
Q 3450 4097 3450 3541 
Q 3450 3153 3228 2886 
Q 3006 2619 2597 2516 
z
" transform="scale(0.015625)"/>
       </defs>
       <use xlink:href="#DejaVuSans-38"/>
       <use xlink:href="#DejaVuSans-2e" x="63.623047"/>
       <use xlink:href="#DejaVuSans-41" x="95.410156"/>
       <use xlink:href="#DejaVuSans-2e" x="162.068359"/>
       <use xlink:href="#DejaVuSans-38" x="193.855469"/>
       <use xlink:href="#DejaVuSans-37" x="257.478516"/>
       <use xlink:href="#DejaVuSans-2e" x="321.101562"/>
       <use xlink:href="#DejaVuSans-31" x="352.888672"/>
       <use xlink:href="#DejaVuSans-2e" x="416.511719"/>
       <use xlink:href="#DejaVuSans-33" x="448.298828"/>
      </g>
     </g>
    </g>
    <g id="ytick_4">
     <g id="line2d_10">
      <g>
       <use xlink:href="#mbcb6af0d10" x="144" y="99.413514" style="stroke: #000000; stroke-width: 0.8"/>
      </g>
     </g>
     <g id="text_11">
      <!-- 8.A.87.1.4 -->
      <g transform="translate(85.809375 103.212732) scale(0.1 -0.1)">
       <use xlink:href="#DejaVuSans-38"/>
       <use xlink:href="#DejaVuSans-2e" x="63.623047"/>
       <use xlink:href="#DejaVuSans-41" x="95.410156"/>
       <use xlink:href="#DejaVuSans-2e" x="162.068359"/>
       <use xlink:href="#DejaVuSans-38" x="193.855469"/>
       <use xlink:href="#DejaVuSans-37" x="257.478516"/>
       <use xlink:href="#DejaVuSans-2e" x="321.101562"/>
       <use xlink:href="#DejaVuSans-31" x="352.888672"/>
       <use xlink:href="#DejaVuSans-2e" x="416.511719"/>
       <use xlink:href="#DejaVuSans-34" x="448.298828"/>
      </g>
     </g>
    </g>
    <g id="ytick_5">
     <g id="line2d_11">
      <g>
       <use xlink:href="#mbcb6af0d10" x="144" y="82.386486" style="stroke: #000000; stroke-width: 0.8"/>
      </g>
     </g>
     <g id="text_12">
      <!-- 8.A.87.1.5 -->
      <g transform="translate(85.809375 86.185705) scale(0.1 -0.1)">
       <defs>
        <path id="DejaVuSans-35" d="M 691 4666 
L 3169 4666 
L 3169 4134 
L 1269 4134 
L 1269 2991 
Q 1406 3038 1543 3061 
Q 1681 3084 1819 3084 
Q 2600 3084 3056 2656 
Q 3513 2228 3513 1497 
Q 3513 744 3044 326 
Q 2575 -91 1722 -91 
Q 1428 -91 1123 -41 
Q 819 9 494 109 
L 494 744 
Q 775 591 1075 516 
Q 1375 441 1709 441 
Q 2250 441 2565 725 
Q 2881 1009 2881 1497 
Q 2881 1984 2565 2268 
Q 2250 2553 1709 2553 
Q 1456 2553 1204 2497 
Q 953 2441 691 2322 
L 691 4666 
z
" transform="scale(0.015625)"/>
       </defs>
       <use xlink:href="#DejaVuSans-38"/>
       <use xlink:href="#DejaVuSans-2e" x="63.623047"/>
       <use xlink:href="#DejaVuSans-41" x="95.410156"/>
       <use xlink:href="#DejaVuSans-2e" x="162.068359"/>
       <use xlink:href="#DejaVuSans-38" x="193.855469"/>
       <use xlink:href="#DejaVuSans-37" x="257.478516"/>
       <use xlink:href="#DejaVuSans-2e" x="321.101562"/>
       <use xlink:href="#DejaVuSans-31" x="352.888672"/>
       <use xlink:href="#DejaVuSans-2e" x="416.511719"/>
       <use xlink:href="#DejaVuSans-35" x="448.298828"/>
      </g>
     </g>
    </g>
    <g id="ytick_6">
     <g id="line2d_12">
      <g>
       <use xlink:href="#mbcb6af0d10" x="144" y="65.359459" style="stroke: #000000; stroke-width: 0.8"/>
      </g>
     </g>
     <g id="text_13">
      <!-- 8.A.87.1.6 -->
      <g transform="translate(85.809375 69.158678) scale(0.1 -0.1)">
       <use xlink:href="#DejaVuSans-38"/>
       <use xlink:href="#DejaVuSans-2e" x="63.623047"/>
       <use xlink:href="#DejaVuSans-41" x="95.410156"/>
       <use xlink:href="#DejaVuSans-2e" x="162.068359"/>
       <use xlink:href="#DejaVuSans-38" x="193.855469"/>
       <use xlink:href="#DejaVuSans-37" x="257.478516"/>
       <use xlink:href="#DejaVuSans-2e" x="321.101562"/>
       <use xlink:href="#DejaVuSans-31" x="352.888672"/>
       <use xlink:href="#DejaVuSans-2e" x="416.511719"/>
       <use xlink:href="#DejaVuSans-36" x="448.298828"/>
      </g>
     </g>
    </g>
    <g id="ytick_7">
     <g id="line2d_13">
      <g>
       <use xlink:href="#mbcb6af0d10" x="144" y="48.332432" style="stroke: #000000; stroke-width: 0.8"/>
      </g>
     </g>
     <g id="text_14">
      <!-- 8.A.87.2.1 -->
      <g transform="translate(85.809375 52.131651) scale(0.1 -0.1)">
       <use xlink:href="#DejaVuSans-38"/>
       <use xlink:href="#DejaVuSans-2e" x="63.623047"/>
       <use xlink:href="#DejaVuSans-41" x="95.410156"/>
       <use xlink:href="#DejaVuSans-2e" x="162.068359"/>
       <use xlink:href="#DejaVuSans-38" x="193.855469"/>
       <use xlink:href="#DejaVuSans-37" x="257.478516"/>
       <use xlink:href="#DejaVuSans-2e" x="321.101562"/>
       <use xlink:href="#DejaVuSans-32" x="352.888672"/>
       <use xlink:href="#DejaVuSans-2e" x="416.511719"/>
       <use xlink:href="#DejaVuSans-31" x="448.298828"/>
      </g>
     </g>
    </g>
    <g id="ytick_8">
     <g id="line2d_14">
      <g>
       <use xlink:href="#mbcb6af0d10" x="144" y="31.305405" style="stroke: #000000; stroke-width: 0.8"/>
      </g>
     </g>
     <g id="text_15">
      <!-- 8.A.87.3.1 -->
      <g transform="translate(85.809375 35.104624) scale(0.1 -0.1)">
       <use xlink:href="#DejaVuSans-38"/>
       <use xlink:href="#DejaVuSans-2e" x="63.623047"/>
       <use xlink:href="#DejaVuSans-41" x="95.410156"/>
       <use xlink:href="#DejaVuSans-2e" x="162.068359"/>
       <use xlink:href="#DejaVuSans-38" x="193.855469"/>
       <use xlink:href="#DejaVuSans-37" x="257.478516"/>
       <use xlink:href="#DejaVuSans-2e" x="321.101562"/>
       <use xlink:href="#DejaVuSans-33" x="352.888672"/>
       <use xlink:href="#DejaVuSans-2e" x="416.511719"/>
       <use xlink:href="#DejaVuSans-31" x="448.298828"/>
      </g>
     </g>
    </g>
   </g>
   <g id="patch_231">
    <path d="M 144 160.2 
L 144 21.6 
" style="fill: none; stroke: #000000; stroke-width: 0.8; stroke-linejoin: miter; stroke-linecap: square"/>
   </g>
   <g id="patch_232">
    <path d="M 1036.8 160.2 
L 1036.8 21.6 
" style="fill: none; stroke: #000000; stroke-width: 0.8; stroke-linejoin: miter; stroke-linecap: square"/>
   </g>
   <g id="patch_233">
    <path d="M 144 160.2 
L 1036.8 160.2 
" style="fill: none; stroke: #000000; stroke-width: 0.8; stroke-linejoin: miter; stroke-linecap: square"/>
   </g>
   <g id="patch_234">
    <path d="M 144 21.6 
L 1036.8 21.6 
" style="fill: none; stroke: #000000; stroke-width: 0.8; stroke-linejoin: miter; stroke-linecap: square"/>
   </g>
   <g id="text_16">
    <!-- 8.A.87 Summary -->
    <g transform="translate(540.2325 15.6) scale(0.12 -0.12)">
     <defs>
      <path id="DejaVuSans-20" transform="scale(0.015625)"/>
      <path id="DejaVuSans-53" d="M 3425 4513 
L 3425 3897 
Q 3066 4069 2747 4153 
Q 2428 4238 2131 4238 
Q 1616 4238 1336 4038 
Q 1056 3838 1056 3469 
Q 1056 3159 1242 3001 
Q 1428 2844 1947 2747 
L 2328 2669 
Q 3034 2534 3370 2195 
Q 3706 1856 3706 1288 
Q 3706 609 3251 259 
Q 2797 -91 1919 -91 
Q 1588 -91 1214 -16 
Q 841 59 441 206 
L 441 856 
Q 825 641 1194 531 
Q 1563 422 1919 422 
Q 2459 422 2753 634 
Q 3047 847 3047 1241 
Q 3047 1584 2836 1778 
Q 2625 1972 2144 2069 
L 1759 2144 
Q 1053 2284 737 2584 
Q 422 2884 422 3419 
Q 422 4038 858 4394 
Q 1294 4750 2059 4750 
Q 2388 4750 2728 4690 
Q 3069 4631 3425 4513 
z
" transform="scale(0.015625)"/>
      <path id="DejaVuSans-6d" d="M 3328 2828 
Q 3544 3216 3844 3400 
Q 4144 3584 4550 3584 
Q 5097 3584 5394 3201 
Q 5691 2819 5691 2113 
L 5691 0 
L 5113 0 
L 5113 2094 
Q 5113 2597 4934 2840 
Q 4756 3084 4391 3084 
Q 3944 3084 3684 2787 
Q 3425 2491 3425 1978 
L 3425 0 
L 2847 0 
L 2847 2094 
Q 2847 2600 2669 2842 
Q 2491 3084 2119 3084 
Q 1678 3084 1418 2786 
Q 1159 2488 1159 1978 
L 1159 0 
L 581 0 
L 581 3500 
L 1159 3500 
L 1159 2956 
Q 1356 3278 1631 3431 
Q 1906 3584 2284 3584 
Q 2666 3584 2933 3390 
Q 3200 3197 3328 2828 
z
" transform="scale(0.015625)"/>
      <path id="DejaVuSans-72" d="M 2631 2963 
Q 2534 3019 2420 3045 
Q 2306 3072 2169 3072 
Q 1681 3072 1420 2755 
Q 1159 2438 1159 1844 
L 1159 0 
L 581 0 
L 581 3500 
L 1159 3500 
L 1159 2956 
Q 1341 3275 1631 3429 
Q 1922 3584 2338 3584 
Q 2397 3584 2469 3576 
Q 2541 3569 2628 3553 
L 2631 2963 
z
" transform="scale(0.015625)"/>
      <path id="DejaVuSans-79" d="M 2059 -325 
Q 1816 -950 1584 -1140 
Q 1353 -1331 966 -1331 
L 506 -1331 
L 506 -850 
L 844 -850 
Q 1081 -850 1212 -737 
Q 1344 -625 1503 -206 
L 1606 56 
L 191 3500 
L 800 3500 
L 1894 763 
L 2988 3500 
L 3597 3500 
L 2059 -325 
z
" transform="scale(0.015625)"/>
     </defs>
     <use xlink:href="#DejaVuSans-38"/>
     <use xlink:href="#DejaVuSans-2e" x="63.623047"/>
     <use xlink:href="#DejaVuSans-41" x="95.410156"/>
     <use xlink:href="#DejaVuSans-2e" x="162.068359"/>
     <use xlink:href="#DejaVuSans-38" x="193.855469"/>
     <use xlink:href="#DejaVuSans-37" x="257.478516"/>
     <use xlink:href="#DejaVuSans-20" x="321.101562"/>
     <use xlink:href="#DejaVuSans-53" x="352.888672"/>
     <use xlink:href="#DejaVuSans-75" x="416.365234"/>
     <use xlink:href="#DejaVuSans-6d" x="479.744141"/>
     <use xlink:href="#DejaVuSans-6d" x="577.15625"/>
     <use xlink:href="#DejaVuSans-61" x="674.568359"/>
     <use xlink:href="#DejaVuSans-72" x="735.847656"/>
     <use xlink:href="#DejaVuSans-79" x="776.960938"/>
    </g>
   </g>
  </g>
 </g>
 <defs>
  <clipPath id="p8e12c170a0">
   <rect x="144" y="21.6" width="892.8" height="138.6"/>
  </clipPath>
 </defs>
</svg>
