<?xml version="1.0" encoding="utf-8" standalone="no"?>
<!DOCTYPE svg PUBLIC "-//W3C//DTD SVG 1.1//EN"
  "http://www.w3.org/Graphics/SVG/1.1/DTD/svg11.dtd">
<svg xmlns:xlink="http://www.w3.org/1999/xlink" width="1152pt" height="194.4pt" viewBox="0 0 1152 194.4" xmlns="http://www.w3.org/2000/svg" version="1.1">
 <metadata>
  <rdf:RDF xmlns:dc="http://purl.org/dc/elements/1.1/" xmlns:cc="http://creativecommons.org/ns#" xmlns:rdf="http://www.w3.org/1999/02/22-rdf-syntax-ns#">
   <cc:Work>
    <dc:type rdf:resource="http://purl.org/dc/dcmitype/StillImage"/>
    <dc:date>2024-10-25T07:58:07.814635</dc:date>
    <dc:format>image/svg+xml</dc:format>
    <dc:creator>
     <cc:Agent>
      <dc:title>Matplotlib v3.9.2, https://matplotlib.org/</dc:title>
     </cc:Agent>
    </dc:creator>
   </cc:Work>
  </rdf:RDF>
 </metadata>
 <defs>
  <style type="text/css">*{stroke-linejoin: round; stroke-linecap: butt}</style>
 </defs>
 <g id="figure_1">
  <g id="patch_1">
   <path d="M 0 194.4 
L 1152 194.4 
L 1152 0 
L 0 0 
z
" style="fill: #ffffff"/>
  </g>
  <g id="axes_1">
   <g id="patch_2">
    <path d="M 144 173.016 
L 1036.8 173.016 
L 1036.8 23.328 
L 144 23.328 
z
" style="fill: #ffffff"/>
   </g>
   <g id="patch_3">
    <path d="M 144 162.278437 
L 164.264197 162.278437 
L 164.264197 161.640562 
L 144 161.640562 
z
" clip-path="url(#p09de8ca804)" style="fill: #0000ff"/>
   </g>
   <g id="patch_4">
    <path d="M 165.074765 166.212 
L 237.215307 166.212 
L 237.215307 157.707 
L 165.074765 157.707 
z
" clip-path="url(#p09de8ca804)" style="fill: #0000ff"/>
   </g>
   <g id="patch_5">
    <path d="M 165.885333 166.212 
L 235.594171 166.212 
L 235.594171 157.707 
L 165.885333 157.707 
z
" clip-path="url(#p09de8ca804)" style="fill: #0000ff"/>
   </g>
   <g id="patch_6">
    <path d="M 238.025875 162.278437 
L 270.44859 162.278437 
L 270.44859 161.640562 
L 238.025875 161.640562 
z
" clip-path="url(#p09de8ca804)" style="fill: #0000ff"/>
   </g>
   <g id="patch_7">
    <path d="M 271.259158 166.212 
L 352.315947 166.212 
L 352.315947 157.707 
L 271.259158 157.707 
z
" clip-path="url(#p09de8ca804)" style="fill: #0000ff"/>
   </g>
   <g id="patch_8">
    <path d="M 272.069726 166.212 
L 348.263108 166.212 
L 348.263108 157.707 
L 272.069726 157.707 
z
" clip-path="url(#p09de8ca804)" style="fill: #0000ff"/>
   </g>
   <g id="patch_9">
    <path d="M 273.690862 166.212 
L 352.315947 166.212 
L 352.315947 157.707 
L 273.690862 157.707 
z
" clip-path="url(#p09de8ca804)" style="fill: #0000ff"/>
   </g>
   <g id="patch_10">
    <path d="M 293.955059 166.212 
L 353.937083 166.212 
L 353.937083 157.707 
L 293.955059 157.707 
z
" clip-path="url(#p09de8ca804)" style="fill: #0000ff"/>
   </g>
   <g id="patch_11">
    <path d="M 354.747651 162.278437 
L 357.989922 162.278437 
L 357.989922 161.640562 
L 354.747651 161.640562 
z
" clip-path="url(#p09de8ca804)" style="fill: #0000ff"/>
   </g>
   <g id="patch_12">
    <path d="M 358.80049 166.212 
L 443.910118 166.212 
L 443.910118 157.707 
L 358.80049 157.707 
z
" clip-path="url(#p09de8ca804)" style="fill: #0000ff"/>
   </g>
   <g id="patch_13">
    <path d="M 361.232194 166.212 
L 431.7516 166.212 
L 431.7516 157.707 
L 361.232194 157.707 
z
" clip-path="url(#p09de8ca804)" style="fill: #0000ff"/>
   </g>
   <g id="patch_14">
    <path d="M 374.20128 166.212 
L 445.531254 166.212 
L 445.531254 157.707 
L 374.20128 157.707 
z
" clip-path="url(#p09de8ca804)" style="fill: #0000ff"/>
   </g>
   <g id="patch_15">
    <path d="M 446.341822 162.278437 
L 449.584094 162.278437 
L 449.584094 161.640562 
L 446.341822 161.640562 
z
" clip-path="url(#p09de8ca804)" style="fill: #0000ff"/>
   </g>
   <g id="patch_16">
    <path d="M 450.394662 166.212 
L 533.883154 166.212 
L 533.883154 157.707 
L 450.394662 157.707 
z
" clip-path="url(#p09de8ca804)" style="fill: #0000ff"/>
   </g>
   <g id="patch_17">
    <path d="M 451.205229 166.212 
L 530.640882 166.212 
L 530.640882 157.707 
L 451.205229 157.707 
z
" clip-path="url(#p09de8ca804)" style="fill: #0000ff"/>
   </g>
   <g id="patch_18">
    <path d="M 464.984884 166.212 
L 535.50429 166.212 
L 535.50429 157.707 
L 464.984884 157.707 
z
" clip-path="url(#p09de8ca804)" style="fill: #0000ff"/>
   </g>
   <g id="patch_19">
    <path d="M 536.314858 162.278437 
L 541.178265 162.278437 
L 541.178265 161.640562 
L 536.314858 161.640562 
z
" clip-path="url(#p09de8ca804)" style="fill: #0000ff"/>
   </g>
   <g id="patch_20">
    <path d="M 541.988833 166.212 
L 622.235054 166.212 
L 622.235054 157.707 
L 541.988833 157.707 
z
" clip-path="url(#p09de8ca804)" style="fill: #0000ff"/>
   </g>
   <g id="patch_21">
    <path d="M 542.799401 166.212 
L 614.129375 166.212 
L 614.129375 157.707 
L 542.799401 157.707 
z
" clip-path="url(#p09de8ca804)" style="fill: #0000ff"/>
   </g>
   <g id="patch_22">
    <path d="M 555.768487 166.212 
L 623.85619 166.212 
L 623.85619 157.707 
L 555.768487 157.707 
z
" clip-path="url(#p09de8ca804)" style="fill: #0000ff"/>
   </g>
   <g id="patch_23">
    <path d="M 624.666757 162.278437 
L 627.098461 162.278437 
L 627.098461 161.640562 
L 624.666757 161.640562 
z
" clip-path="url(#p09de8ca804)" style="fill: #0000ff"/>
   </g>
   <g id="patch_24">
    <path d="M 627.909029 166.212 
L 699.239003 166.212 
L 699.239003 157.707 
L 627.909029 157.707 
z
" clip-path="url(#p09de8ca804)" style="fill: #0000ff"/>
   </g>
   <g id="patch_25">
    <path d="M 700.049571 162.278437 
L 740.577965 162.278437 
L 740.577965 161.640562 
L 700.049571 161.640562 
z
" clip-path="url(#p09de8ca804)" style="fill: #0000ff"/>
   </g>
   <g id="patch_26">
    <path d="M 741.388533 166.212 
L 854.05747 166.212 
L 854.05747 157.707 
L 741.388533 157.707 
z
" clip-path="url(#p09de8ca804)" style="fill: #0000ff"/>
   </g>
   <g id="patch_27">
    <path d="M 854.868038 162.278437 
L 858.110309 162.278437 
L 858.110309 161.640562 
L 854.868038 161.640562 
z
" clip-path="url(#p09de8ca804)" style="fill: #0000ff"/>
   </g>
   <g id="patch_28">
    <path d="M 144 141.015938 
L 237.215307 141.015938 
L 237.215307 140.378062 
L 144 140.378062 
z
" clip-path="url(#p09de8ca804)" style="fill: #0000ff"/>
   </g>
   <g id="patch_29">
    <path d="M 238.025875 144.9495 
L 305.30301 144.9495 
L 305.30301 136.4445 
L 238.025875 136.4445 
z
" clip-path="url(#p09de8ca804)" style="fill: #0000ff"/>
   </g>
   <g id="patch_30">
    <path d="M 243.69985 144.9495 
L 308.545281 144.9495 
L 308.545281 136.4445 
L 243.69985 136.4445 
z
" clip-path="url(#p09de8ca804)" style="fill: #0000ff"/>
   </g>
   <g id="patch_31">
    <path d="M 247.75269 144.9495 
L 310.976985 144.9495 
L 310.976985 136.4445 
L 247.75269 136.4445 
z
" clip-path="url(#p09de8ca804)" style="fill: #0000ff"/>
   </g>
   <g id="patch_32">
    <path d="M 311.787553 141.015938 
L 315.029824 141.015938 
L 315.029824 140.378062 
L 311.787553 140.378062 
z
" clip-path="url(#p09de8ca804)" style="fill: #0000ff"/>
   </g>
   <g id="patch_33">
    <path d="M 315.840392 144.9495 
L 397.707749 144.9495 
L 397.707749 136.4445 
L 315.840392 136.4445 
z
" clip-path="url(#p09de8ca804)" style="fill: #0000ff"/>
   </g>
   <g id="patch_34">
    <path d="M 316.65096 144.9495 
L 393.654909 144.9495 
L 393.654909 136.4445 
L 316.65096 136.4445 
z
" clip-path="url(#p09de8ca804)" style="fill: #0000ff"/>
   </g>
   <g id="patch_35">
    <path d="M 332.05175 144.9495 
L 399.328885 144.9495 
L 399.328885 136.4445 
L 332.05175 136.4445 
z
" clip-path="url(#p09de8ca804)" style="fill: #0000ff"/>
   </g>
   <g id="patch_36">
    <path d="M 400.139453 141.015938 
L 404.192292 141.015938 
L 404.192292 140.378062 
L 400.139453 140.378062 
z
" clip-path="url(#p09de8ca804)" style="fill: #0000ff"/>
   </g>
   <g id="patch_37">
    <path d="M 405.00286 144.9495 
L 490.923056 144.9495 
L 490.923056 136.4445 
L 405.00286 136.4445 
z
" clip-path="url(#p09de8ca804)" style="fill: #0000ff"/>
   </g>
   <g id="patch_38">
    <path d="M 405.00286 144.9495 
L 487.680784 144.9495 
L 487.680784 136.4445 
L 405.00286 136.4445 
z
" clip-path="url(#p09de8ca804)" style="fill: #0000ff"/>
   </g>
   <g id="patch_39">
    <path d="M 419.593082 144.9495 
L 492.544192 144.9495 
L 492.544192 136.4445 
L 419.593082 136.4445 
z
" clip-path="url(#p09de8ca804)" style="fill: #0000ff"/>
   </g>
   <g id="patch_40">
    <path d="M 493.35476 141.015938 
L 499.028735 141.015938 
L 499.028735 140.378062 
L 493.35476 140.378062 
z
" clip-path="url(#p09de8ca804)" style="fill: #0000ff"/>
   </g>
   <g id="patch_41">
    <path d="M 499.839303 144.9495 
L 571.979845 144.9495 
L 571.979845 136.4445 
L 499.839303 136.4445 
z
" clip-path="url(#p09de8ca804)" style="fill: #0000ff"/>
   </g>
   <g id="patch_42">
    <path d="M 500.649871 144.9495 
L 576.032684 144.9495 
L 576.032684 136.4445 
L 500.649871 136.4445 
z
" clip-path="url(#p09de8ca804)" style="fill: #0000ff"/>
   </g>
   <g id="patch_43">
    <path d="M 512.808389 144.9495 
L 577.65382 144.9495 
L 577.65382 136.4445 
L 512.808389 136.4445 
z
" clip-path="url(#p09de8ca804)" style="fill: #0000ff"/>
   </g>
   <g id="patch_44">
    <path d="M 578.464388 141.015938 
L 580.896092 141.015938 
L 580.896092 140.378062 
L 578.464388 140.378062 
z
" clip-path="url(#p09de8ca804)" style="fill: #0000ff"/>
   </g>
   <g id="patch_45">
    <path d="M 581.706659 144.9495 
L 661.142312 144.9495 
L 661.142312 136.4445 
L 581.706659 136.4445 
z
" clip-path="url(#p09de8ca804)" style="fill: #0000ff"/>
   </g>
   <g id="patch_46">
    <path d="M 582.517227 144.9495 
L 661.142312 144.9495 
L 661.142312 136.4445 
L 582.517227 136.4445 
z
" clip-path="url(#p09de8ca804)" style="fill: #0000ff"/>
   </g>
   <g id="patch_47">
    <path d="M 597.107449 144.9495 
L 663.574016 144.9495 
L 663.574016 136.4445 
L 597.107449 136.4445 
z
" clip-path="url(#p09de8ca804)" style="fill: #0000ff"/>
   </g>
   <g id="patch_48">
    <path d="M 664.384584 141.015938 
L 699.239003 141.015938 
L 699.239003 140.378062 
L 664.384584 140.378062 
z
" clip-path="url(#p09de8ca804)" style="fill: #0000ff"/>
   </g>
   <g id="patch_49">
    <path d="M 700.049571 144.9495 
L 828.119297 144.9495 
L 828.119297 136.4445 
L 700.049571 136.4445 
z
" clip-path="url(#p09de8ca804)" style="fill: #0000ff"/>
   </g>
   <g id="patch_50">
    <path d="M 828.929865 141.015938 
L 837.035544 141.015938 
L 837.035544 140.378062 
L 828.929865 140.378062 
z
" clip-path="url(#p09de8ca804)" style="fill: #0000ff"/>
   </g>
   <g id="patch_51">
    <path d="M 144 119.753437 
L 186.14953 119.753437 
L 186.14953 119.115562 
L 144 119.115562 
z
" clip-path="url(#p09de8ca804)" style="fill: #0000ff"/>
   </g>
   <g id="patch_52">
    <path d="M 186.960098 123.687 
L 263.15348 123.687 
L 263.15348 115.182 
L 186.960098 115.182 
z
" clip-path="url(#p09de8ca804)" style="fill: #0000ff"/>
   </g>
   <g id="patch_53">
    <path d="M 189.391802 123.687 
L 267.206319 123.687 
L 267.206319 115.182 
L 189.391802 115.182 
z
" clip-path="url(#p09de8ca804)" style="fill: #0000ff"/>
   </g>
   <g id="patch_54">
    <path d="M 193.444641 123.687 
L 267.206319 123.687 
L 267.206319 115.182 
L 193.444641 115.182 
z
" clip-path="url(#p09de8ca804)" style="fill: #0000ff"/>
   </g>
   <g id="patch_55">
    <path d="M 202.360888 123.687 
L 268.827455 123.687 
L 268.827455 115.182 
L 202.360888 115.182 
z
" clip-path="url(#p09de8ca804)" style="fill: #0000ff"/>
   </g>
   <g id="patch_56">
    <path d="M 269.638023 119.753437 
L 272.880294 119.753437 
L 272.880294 119.115562 
L 269.638023 119.115562 
z
" clip-path="url(#p09de8ca804)" style="fill: #0000ff"/>
   </g>
   <g id="patch_57">
    <path d="M 273.690862 123.687 
L 357.989922 123.687 
L 357.989922 115.182 
L 273.690862 115.182 
z
" clip-path="url(#p09de8ca804)" style="fill: #0000ff"/>
   </g>
   <g id="patch_58">
    <path d="M 274.50143 123.687 
L 353.937083 123.687 
L 353.937083 115.182 
L 274.50143 115.182 
z
" clip-path="url(#p09de8ca804)" style="fill: #0000ff"/>
   </g>
   <g id="patch_59">
    <path d="M 289.091652 123.687 
L 359.611058 123.687 
L 359.611058 115.182 
L 289.091652 115.182 
z
" clip-path="url(#p09de8ca804)" style="fill: #0000ff"/>
   </g>
   <g id="patch_60">
    <path d="M 360.421626 119.753437 
L 363.663898 119.753437 
L 363.663898 119.115562 
L 360.421626 119.115562 
z
" clip-path="url(#p09de8ca804)" style="fill: #0000ff"/>
   </g>
   <g id="patch_61">
    <path d="M 364.474465 123.687 
L 450.394662 123.687 
L 450.394662 115.182 
L 364.474465 115.182 
z
" clip-path="url(#p09de8ca804)" style="fill: #0000ff"/>
   </g>
   <g id="patch_62">
    <path d="M 365.285033 123.687 
L 431.7516 123.687 
L 431.7516 115.182 
L 365.285033 115.182 
z
" clip-path="url(#p09de8ca804)" style="fill: #0000ff"/>
   </g>
   <g id="patch_63">
    <path d="M 379.064687 123.687 
L 450.394662 123.687 
L 450.394662 115.182 
L 379.064687 115.182 
z
" clip-path="url(#p09de8ca804)" style="fill: #0000ff"/>
   </g>
   <g id="patch_64">
    <path d="M 451.205229 119.753437 
L 459.310908 119.753437 
L 459.310908 119.115562 
L 451.205229 119.115562 
z
" clip-path="url(#p09de8ca804)" style="fill: #0000ff"/>
   </g>
   <g id="patch_65">
    <path d="M 460.121476 123.687 
L 535.50429 123.687 
L 535.50429 115.182 
L 460.121476 115.182 
z
" clip-path="url(#p09de8ca804)" style="fill: #0000ff"/>
   </g>
   <g id="patch_66">
    <path d="M 468.227155 123.687 
L 535.50429 123.687 
L 535.50429 115.182 
L 468.227155 115.182 
z
" clip-path="url(#p09de8ca804)" style="fill: #0000ff"/>
   </g>
   <g id="patch_67">
    <path d="M 536.314858 119.753437 
L 716.260929 119.753437 
L 716.260929 119.115562 
L 536.314858 119.115562 
z
" clip-path="url(#p09de8ca804)" style="fill: #0000ff"/>
   </g>
   <g id="patch_68">
    <path d="M 717.071497 123.687 
L 761.65273 123.687 
L 761.65273 115.182 
L 717.071497 115.182 
z
" clip-path="url(#p09de8ca804)" style="fill: #0000ff"/>
   </g>
   <g id="patch_69">
    <path d="M 762.463298 119.753437 
L 994.285714 119.753437 
L 994.285714 119.115562 
L 762.463298 119.115562 
z
" clip-path="url(#p09de8ca804)" style="fill: #0000ff"/>
   </g>
   <g id="patch_70">
    <path d="M 144 98.490937 
L 178.854419 98.490937 
L 178.854419 97.853062 
L 144 97.853062 
z
" clip-path="url(#p09de8ca804)" style="fill: #0000ff"/>
   </g>
   <g id="patch_71">
    <path d="M 179.664987 102.4245 
L 257.479504 102.4245 
L 257.479504 93.9195 
L 179.664987 93.9195 
z
" clip-path="url(#p09de8ca804)" style="fill: #0000ff"/>
   </g>
   <g id="patch_72">
    <path d="M 203.171456 102.4245 
L 234.783603 102.4245 
L 234.783603 93.9195 
L 203.171456 93.9195 
z
" clip-path="url(#p09de8ca804)" style="fill: #0000ff"/>
   </g>
   <g id="patch_73">
    <path d="M 207.224295 102.4245 
L 259.10064 102.4245 
L 259.10064 93.9195 
L 207.224295 93.9195 
z
" clip-path="url(#p09de8ca804)" style="fill: #0000ff"/>
   </g>
   <g id="patch_74">
    <path d="M 259.911208 98.490937 
L 264.774615 98.490937 
L 264.774615 97.853062 
L 259.911208 97.853062 
z
" clip-path="url(#p09de8ca804)" style="fill: #0000ff"/>
   </g>
   <g id="patch_75">
    <path d="M 265.585183 102.4245 
L 348.263108 102.4245 
L 348.263108 93.9195 
L 265.585183 93.9195 
z
" clip-path="url(#p09de8ca804)" style="fill: #0000ff"/>
   </g>
   <g id="patch_76">
    <path d="M 265.585183 102.4245 
L 344.210268 102.4245 
L 344.210268 93.9195 
L 265.585183 93.9195 
z
" clip-path="url(#p09de8ca804)" style="fill: #0000ff"/>
   </g>
   <g id="patch_77">
    <path d="M 280.985973 102.4245 
L 349.884243 102.4245 
L 349.884243 93.9195 
L 280.985973 93.9195 
z
" clip-path="url(#p09de8ca804)" style="fill: #0000ff"/>
   </g>
   <g id="patch_78">
    <path d="M 350.694811 98.490937 
L 460.121476 98.490937 
L 460.121476 97.853062 
L 350.694811 97.853062 
z
" clip-path="url(#p09de8ca804)" style="fill: #0000ff"/>
   </g>
   <g id="patch_79">
    <path d="M 460.932044 102.4245 
L 534.693722 102.4245 
L 534.693722 93.9195 
L 460.932044 93.9195 
z
" clip-path="url(#p09de8ca804)" style="fill: #0000ff"/>
   </g>
   <g id="patch_80">
    <path d="M 460.932044 102.4245 
L 529.830315 102.4245 
L 529.830315 93.9195 
L 460.932044 93.9195 
z
" clip-path="url(#p09de8ca804)" style="fill: #0000ff"/>
   </g>
   <g id="patch_81">
    <path d="M 470.658859 102.4245 
L 536.314858 102.4245 
L 536.314858 93.9195 
L 470.658859 93.9195 
z
" clip-path="url(#p09de8ca804)" style="fill: #0000ff"/>
   </g>
   <g id="patch_82">
    <path d="M 537.125426 98.490937 
L 811.90794 98.490937 
L 811.90794 97.853062 
L 537.125426 97.853062 
z
" clip-path="url(#p09de8ca804)" style="fill: #0000ff"/>
   </g>
   <g id="patch_83">
    <path d="M 144 77.228438 
L 167.506469 77.228438 
L 167.506469 76.590563 
L 144 76.590563 
z
" clip-path="url(#p09de8ca804)" style="fill: #0000ff"/>
   </g>
   <g id="patch_84">
    <path d="M 168.317037 81.162 
L 233.162468 81.162 
L 233.162468 72.657 
L 168.317037 72.657 
z
" clip-path="url(#p09de8ca804)" style="fill: #0000ff"/>
   </g>
   <g id="patch_85">
    <path d="M 172.369876 81.162 
L 221.003949 81.162 
L 221.003949 72.657 
L 172.369876 72.657 
z
" clip-path="url(#p09de8ca804)" style="fill: #0000ff"/>
   </g>
   <g id="patch_86">
    <path d="M 233.973036 77.228438 
L 255.858369 77.228438 
L 255.858369 76.590563 
L 233.973036 76.590563 
z
" clip-path="url(#p09de8ca804)" style="fill: #0000ff"/>
   </g>
   <g id="patch_87">
    <path d="M 256.668936 81.162 
L 336.915157 81.162 
L 336.915157 72.657 
L 256.668936 72.657 
z
" clip-path="url(#p09de8ca804)" style="fill: #0000ff"/>
   </g>
   <g id="patch_88">
    <path d="M 256.668936 81.162 
L 332.862318 81.162 
L 332.862318 72.657 
L 256.668936 72.657 
z
" clip-path="url(#p09de8ca804)" style="fill: #0000ff"/>
   </g>
   <g id="patch_89">
    <path d="M 273.690862 81.162 
L 338.536293 81.162 
L 338.536293 72.657 
L 273.690862 72.657 
z
" clip-path="url(#p09de8ca804)" style="fill: #0000ff"/>
   </g>
   <g id="patch_90">
    <path d="M 274.50143 81.162 
L 336.915157 81.162 
L 336.915157 72.657 
L 274.50143 72.657 
z
" clip-path="url(#p09de8ca804)" style="fill: #0000ff"/>
   </g>
   <g id="patch_91">
    <path d="M 339.346861 77.228438 
L 342.589133 77.228438 
L 342.589133 76.590563 
L 339.346861 76.590563 
z
" clip-path="url(#p09de8ca804)" style="fill: #0000ff"/>
   </g>
   <g id="patch_92">
    <path d="M 343.3997 81.162 
L 427.698761 81.162 
L 427.698761 72.657 
L 343.3997 72.657 
z
" clip-path="url(#p09de8ca804)" style="fill: #0000ff"/>
   </g>
   <g id="patch_93">
    <path d="M 344.210268 81.162 
L 422.835353 81.162 
L 422.835353 72.657 
L 344.210268 72.657 
z
" clip-path="url(#p09de8ca804)" style="fill: #0000ff"/>
   </g>
   <g id="patch_94">
    <path d="M 359.611058 81.162 
L 429.319897 81.162 
L 429.319897 72.657 
L 359.611058 72.657 
z
" clip-path="url(#p09de8ca804)" style="fill: #0000ff"/>
   </g>
   <g id="patch_95">
    <path d="M 430.130464 77.228438 
L 433.372736 77.228438 
L 433.372736 76.590563 
L 430.130464 76.590563 
z
" clip-path="url(#p09de8ca804)" style="fill: #0000ff"/>
   </g>
   <g id="patch_96">
    <path d="M 434.183304 81.162 
L 521.724636 81.162 
L 521.724636 72.657 
L 434.183304 72.657 
z
" clip-path="url(#p09de8ca804)" style="fill: #0000ff"/>
   </g>
   <g id="patch_97">
    <path d="M 434.993872 81.162 
L 518.482364 81.162 
L 518.482364 72.657 
L 434.993872 72.657 
z
" clip-path="url(#p09de8ca804)" style="fill: #0000ff"/>
   </g>
   <g id="patch_98">
    <path d="M 448.773526 81.162 
L 527.398611 81.162 
L 527.398611 72.657 
L 448.773526 72.657 
z
" clip-path="url(#p09de8ca804)" style="fill: #0000ff"/>
   </g>
   <g id="patch_99">
    <path d="M 528.209179 77.228438 
L 528.209179 77.228438 
L 528.209179 76.590563 
L 528.209179 76.590563 
z
" clip-path="url(#p09de8ca804)" style="fill: #0000ff"/>
   </g>
   <g id="patch_100">
    <path d="M 529.019747 81.162 
L 603.591992 81.162 
L 603.591992 72.657 
L 529.019747 72.657 
z
" clip-path="url(#p09de8ca804)" style="fill: #0000ff"/>
   </g>
   <g id="patch_101">
    <path d="M 529.830315 81.162 
L 607.644832 81.162 
L 607.644832 72.657 
L 529.830315 72.657 
z
" clip-path="url(#p09de8ca804)" style="fill: #0000ff"/>
   </g>
   <g id="patch_102">
    <path d="M 543.609969 81.162 
L 609.265968 81.162 
L 609.265968 72.657 
L 543.609969 72.657 
z
" clip-path="url(#p09de8ca804)" style="fill: #0000ff"/>
   </g>
   <g id="patch_103">
    <path d="M 610.076535 77.228438 
L 832.982705 77.228438 
L 832.982705 76.590563 
L 610.076535 76.590563 
z
" clip-path="url(#p09de8ca804)" style="fill: #0000ff"/>
   </g>
   <g id="patch_104">
    <path d="M 833.793273 81.162 
L 869.45826 81.162 
L 869.45826 72.657 
L 833.793273 72.657 
z
" clip-path="url(#p09de8ca804)" style="fill: #0000ff"/>
   </g>
   <g id="patch_105">
    <path d="M 870.268827 77.228438 
L 873.511099 77.228438 
L 873.511099 76.590563 
L 870.268827 76.590563 
z
" clip-path="url(#p09de8ca804)" style="fill: #0000ff"/>
   </g>
   <g id="patch_106">
    <path d="M 144 55.965938 
L 190.20237 55.965938 
L 190.20237 55.328063 
L 144 55.328063 
z
" clip-path="url(#p09de8ca804)" style="fill: #0000ff"/>
   </g>
   <g id="patch_107">
    <path d="M 191.012937 59.8995 
L 268.827455 59.8995 
L 268.827455 51.3945 
L 191.012937 51.3945 
z
" clip-path="url(#p09de8ca804)" style="fill: #0000ff"/>
   </g>
   <g id="patch_108">
    <path d="M 199.118616 59.8995 
L 264.774615 59.8995 
L 264.774615 51.3945 
L 199.118616 51.3945 
z
" clip-path="url(#p09de8ca804)" style="fill: #0000ff"/>
   </g>
   <g id="patch_109">
    <path d="M 200.739752 59.8995 
L 268.827455 59.8995 
L 268.827455 51.3945 
L 200.739752 51.3945 
z
" clip-path="url(#p09de8ca804)" style="fill: #0000ff"/>
   </g>
   <g id="patch_110">
    <path d="M 207.224295 59.8995 
L 270.44859 59.8995 
L 270.44859 51.3945 
L 207.224295 51.3945 
z
" clip-path="url(#p09de8ca804)" style="fill: #0000ff"/>
   </g>
   <g id="patch_111">
    <path d="M 271.259158 55.965938 
L 274.50143 55.965938 
L 274.50143 55.328063 
L 271.259158 55.328063 
z
" clip-path="url(#p09de8ca804)" style="fill: #0000ff"/>
   </g>
   <g id="patch_112">
    <path d="M 275.311998 59.8995 
L 357.179354 59.8995 
L 357.179354 51.3945 
L 275.311998 51.3945 
z
" clip-path="url(#p09de8ca804)" style="fill: #0000ff"/>
   </g>
   <g id="patch_113">
    <path d="M 276.122566 59.8995 
L 353.126515 59.8995 
L 353.126515 51.3945 
L 276.122566 51.3945 
z
" clip-path="url(#p09de8ca804)" style="fill: #0000ff"/>
   </g>
   <g id="patch_114">
    <path d="M 290.712788 59.8995 
L 358.80049 59.8995 
L 358.80049 51.3945 
L 290.712788 51.3945 
z
" clip-path="url(#p09de8ca804)" style="fill: #0000ff"/>
   </g>
   <g id="patch_115">
    <path d="M 359.611058 55.965938 
L 362.85333 55.965938 
L 362.85333 55.328063 
L 359.611058 55.328063 
z
" clip-path="url(#p09de8ca804)" style="fill: #0000ff"/>
   </g>
   <g id="patch_116">
    <path d="M 363.663898 59.8995 
L 450.394662 59.8995 
L 450.394662 51.3945 
L 363.663898 51.3945 
z
" clip-path="url(#p09de8ca804)" style="fill: #0000ff"/>
   </g>
   <g id="patch_117">
    <path d="M 364.474465 59.8995 
L 425.267057 59.8995 
L 425.267057 51.3945 
L 364.474465 51.3945 
z
" clip-path="url(#p09de8ca804)" style="fill: #0000ff"/>
   </g>
   <g id="patch_118">
    <path d="M 379.064687 59.8995 
L 452.015797 59.8995 
L 452.015797 51.3945 
L 379.064687 51.3945 
z
" clip-path="url(#p09de8ca804)" style="fill: #0000ff"/>
   </g>
   <g id="patch_119">
    <path d="M 452.826365 55.965938 
L 456.068637 55.965938 
L 456.068637 55.328063 
L 452.826365 55.328063 
z
" clip-path="url(#p09de8ca804)" style="fill: #0000ff"/>
   </g>
   <g id="patch_120">
    <path d="M 456.879205 59.8995 
L 535.50429 59.8995 
L 535.50429 51.3945 
L 456.879205 51.3945 
z
" clip-path="url(#p09de8ca804)" style="fill: #0000ff"/>
   </g>
   <g id="patch_121">
    <path d="M 457.689773 59.8995 
L 531.45145 59.8995 
L 531.45145 51.3945 
L 457.689773 51.3945 
z
" clip-path="url(#p09de8ca804)" style="fill: #0000ff"/>
   </g>
   <g id="patch_122">
    <path d="M 473.090562 59.8995 
L 537.125426 59.8995 
L 537.125426 51.3945 
L 473.090562 51.3945 
z
" clip-path="url(#p09de8ca804)" style="fill: #0000ff"/>
   </g>
   <g id="patch_123">
    <path d="M 537.935993 55.965938 
L 540.367697 55.965938 
L 540.367697 55.328063 
L 537.935993 55.328063 
z
" clip-path="url(#p09de8ca804)" style="fill: #0000ff"/>
   </g>
   <g id="patch_124">
    <path d="M 541.178265 59.8995 
L 620.613918 59.8995 
L 620.613918 51.3945 
L 541.178265 51.3945 
z
" clip-path="url(#p09de8ca804)" style="fill: #0000ff"/>
   </g>
   <g id="patch_125">
    <path d="M 541.988833 59.8995 
L 620.613918 59.8995 
L 620.613918 51.3945 
L 541.988833 51.3945 
z
" clip-path="url(#p09de8ca804)" style="fill: #0000ff"/>
   </g>
   <g id="patch_126">
    <path d="M 621.424486 55.965938 
L 658.710609 55.965938 
L 658.710609 55.328063 
L 621.424486 55.328063 
z
" clip-path="url(#p09de8ca804)" style="fill: #0000ff"/>
   </g>
   <g id="patch_127">
    <path d="M 659.521177 59.8995 
L 777.05352 59.8995 
L 777.05352 51.3945 
L 659.521177 51.3945 
z
" clip-path="url(#p09de8ca804)" style="fill: #0000ff"/>
   </g>
   <g id="patch_128">
    <path d="M 777.864088 55.965938 
L 783.538063 55.965938 
L 783.538063 55.328063 
L 777.864088 55.328063 
z
" clip-path="url(#p09de8ca804)" style="fill: #0000ff"/>
   </g>
   <g id="patch_129">
    <path d="M 144 34.703438 
L 189.391802 34.703438 
L 189.391802 34.065563 
L 144 34.065563 
z
" clip-path="url(#p09de8ca804)" style="fill: #0000ff"/>
   </g>
   <g id="patch_130">
    <path d="M 190.20237 38.637 
L 267.206319 38.637 
L 267.206319 30.132 
L 190.20237 30.132 
z
" clip-path="url(#p09de8ca804)" style="fill: #0000ff"/>
   </g>
   <g id="patch_131">
    <path d="M 190.20237 38.637 
L 263.15348 38.637 
L 263.15348 30.132 
L 190.20237 30.132 
z
" clip-path="url(#p09de8ca804)" style="fill: #0000ff"/>
   </g>
   <g id="patch_132">
    <path d="M 193.444641 38.637 
L 267.206319 38.637 
L 267.206319 30.132 
L 193.444641 30.132 
z
" clip-path="url(#p09de8ca804)" style="fill: #0000ff"/>
   </g>
   <g id="patch_133">
    <path d="M 209.655999 38.637 
L 268.827455 38.637 
L 268.827455 30.132 
L 209.655999 30.132 
z
" clip-path="url(#p09de8ca804)" style="fill: #0000ff"/>
   </g>
   <g id="patch_134">
    <path d="M 269.638023 34.703438 
L 275.311998 34.703438 
L 275.311998 34.065563 
L 269.638023 34.065563 
z
" clip-path="url(#p09de8ca804)" style="fill: #0000ff"/>
   </g>
   <g id="patch_135">
    <path d="M 276.122566 38.637 
L 351.505379 38.637 
L 351.505379 30.132 
L 276.122566 30.132 
z
" clip-path="url(#p09de8ca804)" style="fill: #0000ff"/>
   </g>
   <g id="patch_136">
    <path d="M 276.933134 38.637 
L 356.368787 38.637 
L 356.368787 30.132 
L 276.933134 30.132 
z
" clip-path="url(#p09de8ca804)" style="fill: #0000ff"/>
   </g>
   <g id="patch_137">
    <path d="M 289.091652 38.637 
L 357.989922 38.637 
L 357.989922 30.132 
L 289.091652 30.132 
z
" clip-path="url(#p09de8ca804)" style="fill: #0000ff"/>
   </g>
   <g id="patch_138">
    <path d="M 358.80049 34.703438 
L 362.042762 34.703438 
L 362.042762 34.065563 
L 358.80049 34.065563 
z
" clip-path="url(#p09de8ca804)" style="fill: #0000ff"/>
   </g>
   <g id="patch_139">
    <path d="M 362.85333 38.637 
L 448.773526 38.637 
L 448.773526 30.132 
L 362.85333 30.132 
z
" clip-path="url(#p09de8ca804)" style="fill: #0000ff"/>
   </g>
   <g id="patch_140">
    <path d="M 363.663898 38.637 
L 447.15239 38.637 
L 447.15239 30.132 
L 363.663898 30.132 
z
" clip-path="url(#p09de8ca804)" style="fill: #0000ff"/>
   </g>
   <g id="patch_141">
    <path d="M 377.443552 38.637 
L 448.773526 38.637 
L 448.773526 30.132 
L 377.443552 30.132 
z
" clip-path="url(#p09de8ca804)" style="fill: #0000ff"/>
   </g>
   <g id="patch_142">
    <path d="M 449.584094 34.703438 
L 468.227155 34.703438 
L 468.227155 34.065563 
L 449.584094 34.065563 
z
" clip-path="url(#p09de8ca804)" style="fill: #0000ff"/>
   </g>
   <g id="patch_143">
    <path d="M 469.037723 38.637 
L 541.178265 38.637 
L 541.178265 30.132 
L 469.037723 30.132 
z
" clip-path="url(#p09de8ca804)" style="fill: #0000ff"/>
   </g>
   <g id="patch_144">
    <path d="M 475.522266 38.637 
L 542.799401 38.637 
L 542.799401 30.132 
L 475.522266 30.132 
z
" clip-path="url(#p09de8ca804)" style="fill: #0000ff"/>
   </g>
   <g id="patch_145">
    <path d="M 543.609969 34.703438 
L 952.946752 34.703438 
L 952.946752 34.065563 
L 543.609969 34.065563 
z
" clip-path="url(#p09de8ca804)" style="fill: #0000ff"/>
   </g>
   <g id="matplotlib.axis_1">
    <g id="xtick_1">
     <g id="line2d_1">
      <defs>
       <path id="m16076b0ead" d="M 0 0 
L 0 3.5 
" style="stroke: #000000; stroke-width: 0.8"/>
      </defs>
      <g>
       <use xlink:href="#m16076b0ead" x="305.30301" y="173.016" style="stroke: #000000; stroke-width: 0.8"/>
      </g>
     </g>
     <g id="text_1">
      <!-- 200 -->
      <g transform="translate(295.75926 187.614437) scale(0.1 -0.1)">
       <defs>
        <path id="DejaVuSans-32" d="M 1228 531 
L 3431 531 
L 3431 0 
L 469 0 
L 469 531 
Q 828 903 1448 1529 
Q 2069 2156 2228 2338 
Q 2531 2678 2651 2914 
Q 2772 3150 2772 3378 
Q 2772 3750 2511 3984 
Q 2250 4219 1831 4219 
Q 1534 4219 1204 4116 
Q 875 4013 500 3803 
L 500 4441 
Q 881 4594 1212 4672 
Q 1544 4750 1819 4750 
Q 2544 4750 2975 4387 
Q 3406 4025 3406 3419 
Q 3406 3131 3298 2873 
Q 3191 2616 2906 2266 
Q 2828 2175 2409 1742 
Q 1991 1309 1228 531 
z
" transform="scale(0.015625)"/>
        <path id="DejaVuSans-30" d="M 2034 4250 
Q 1547 4250 1301 3770 
Q 1056 3291 1056 2328 
Q 1056 1369 1301 889 
Q 1547 409 2034 409 
Q 2525 409 2770 889 
Q 3016 1369 3016 2328 
Q 3016 3291 2770 3770 
Q 2525 4250 2034 4250 
z
M 2034 4750 
Q 2819 4750 3233 4129 
Q 3647 3509 3647 2328 
Q 3647 1150 3233 529 
Q 2819 -91 2034 -91 
Q 1250 -91 836 529 
Q 422 1150 422 2328 
Q 422 3509 836 4129 
Q 1250 4750 2034 4750 
z
" transform="scale(0.015625)"/>
       </defs>
       <use xlink:href="#DejaVuSans-32"/>
       <use xlink:href="#DejaVuSans-30" x="63.623047"/>
       <use xlink:href="#DejaVuSans-30" x="127.246094"/>
      </g>
     </g>
    </g>
    <g id="xtick_2">
     <g id="line2d_2">
      <g>
       <use xlink:href="#m16076b0ead" x="467.416587" y="173.016" style="stroke: #000000; stroke-width: 0.8"/>
      </g>
     </g>
     <g id="text_2">
      <!-- 400 -->
      <g transform="translate(457.872837 187.614437) scale(0.1 -0.1)">
       <defs>
        <path id="DejaVuSans-34" d="M 2419 4116 
L 825 1625 
L 2419 1625 
L 2419 4116 
z
M 2253 4666 
L 3047 4666 
L 3047 1625 
L 3713 1625 
L 3713 1100 
L 3047 1100 
L 3047 0 
L 2419 0 
L 2419 1100 
L 313 1100 
L 313 1709 
L 2253 4666 
z
" transform="scale(0.015625)"/>
       </defs>
       <use xlink:href="#DejaVuSans-34"/>
       <use xlink:href="#DejaVuSans-30" x="63.623047"/>
       <use xlink:href="#DejaVuSans-30" x="127.246094"/>
      </g>
     </g>
    </g>
    <g id="xtick_3">
     <g id="line2d_3">
      <g>
       <use xlink:href="#m16076b0ead" x="629.530165" y="173.016" style="stroke: #000000; stroke-width: 0.8"/>
      </g>
     </g>
     <g id="text_3">
      <!-- 600 -->
      <g transform="translate(619.986415 187.614437) scale(0.1 -0.1)">
       <defs>
        <path id="DejaVuSans-36" d="M 2113 2584 
Q 1688 2584 1439 2293 
Q 1191 2003 1191 1497 
Q 1191 994 1439 701 
Q 1688 409 2113 409 
Q 2538 409 2786 701 
Q 3034 994 3034 1497 
Q 3034 2003 2786 2293 
Q 2538 2584 2113 2584 
z
M 3366 4563 
L 3366 3988 
Q 3128 4100 2886 4159 
Q 2644 4219 2406 4219 
Q 1781 4219 1451 3797 
Q 1122 3375 1075 2522 
Q 1259 2794 1537 2939 
Q 1816 3084 2150 3084 
Q 2853 3084 3261 2657 
Q 3669 2231 3669 1497 
Q 3669 778 3244 343 
Q 2819 -91 2113 -91 
Q 1303 -91 875 529 
Q 447 1150 447 2328 
Q 447 3434 972 4092 
Q 1497 4750 2381 4750 
Q 2619 4750 2861 4703 
Q 3103 4656 3366 4563 
z
" transform="scale(0.015625)"/>
       </defs>
       <use xlink:href="#DejaVuSans-36"/>
       <use xlink:href="#DejaVuSans-30" x="63.623047"/>
       <use xlink:href="#DejaVuSans-30" x="127.246094"/>
      </g>
     </g>
    </g>
    <g id="xtick_4">
     <g id="line2d_4">
      <g>
       <use xlink:href="#m16076b0ead" x="791.643742" y="173.016" style="stroke: #000000; stroke-width: 0.8"/>
      </g>
     </g>
     <g id="text_4">
      <!-- 800 -->
      <g transform="translate(782.099992 187.614437) scale(0.1 -0.1)">
       <defs>
        <path id="DejaVuSans-38" d="M 2034 2216 
Q 1584 2216 1326 1975 
Q 1069 1734 1069 1313 
Q 1069 891 1326 650 
Q 1584 409 2034 409 
Q 2484 409 2743 651 
Q 3003 894 3003 1313 
Q 3003 1734 2745 1975 
Q 2488 2216 2034 2216 
z
M 1403 2484 
Q 997 2584 770 2862 
Q 544 3141 544 3541 
Q 544 4100 942 4425 
Q 1341 4750 2034 4750 
Q 2731 4750 3128 4425 
Q 3525 4100 3525 3541 
Q 3525 3141 3298 2862 
Q 3072 2584 2669 2484 
Q 3125 2378 3379 2068 
Q 3634 1759 3634 1313 
Q 3634 634 3220 271 
Q 2806 -91 2034 -91 
Q 1263 -91 848 271 
Q 434 634 434 1313 
Q 434 1759 690 2068 
Q 947 2378 1403 2484 
z
M 1172 3481 
Q 1172 3119 1398 2916 
Q 1625 2713 2034 2713 
Q 2441 2713 2670 2916 
Q 2900 3119 2900 3481 
Q 2900 3844 2670 4047 
Q 2441 4250 2034 4250 
Q 1625 4250 1398 4047 
Q 1172 3844 1172 3481 
z
" transform="scale(0.015625)"/>
       </defs>
       <use xlink:href="#DejaVuSans-38"/>
       <use xlink:href="#DejaVuSans-30" x="63.623047"/>
       <use xlink:href="#DejaVuSans-30" x="127.246094"/>
      </g>
     </g>
    </g>
    <g id="xtick_5">
     <g id="line2d_5">
      <g>
       <use xlink:href="#m16076b0ead" x="953.75732" y="173.016" style="stroke: #000000; stroke-width: 0.8"/>
      </g>
     </g>
     <g id="text_5">
      <!-- 1000 -->
      <g transform="translate(941.03232 187.614437) scale(0.1 -0.1)">
       <defs>
        <path id="DejaVuSans-31" d="M 794 531 
L 1825 531 
L 1825 4091 
L 703 3866 
L 703 4441 
L 1819 4666 
L 2450 4666 
L 2450 531 
L 3481 531 
L 3481 0 
L 794 0 
L 794 531 
z
" transform="scale(0.015625)"/>
       </defs>
       <use xlink:href="#DejaVuSans-31"/>
       <use xlink:href="#DejaVuSans-30" x="63.623047"/>
       <use xlink:href="#DejaVuSans-30" x="127.246094"/>
       <use xlink:href="#DejaVuSans-30" x="190.869141"/>
      </g>
     </g>
    </g>
    <g id="text_6">
     <!-- Residual -->
     <g transform="translate(569.284375 201.292562) scale(0.1 -0.1)">
      <defs>
       <path id="DejaVuSans-52" d="M 2841 2188 
Q 3044 2119 3236 1894 
Q 3428 1669 3622 1275 
L 4263 0 
L 3584 0 
L 2988 1197 
Q 2756 1666 2539 1819 
Q 2322 1972 1947 1972 
L 1259 1972 
L 1259 0 
L 628 0 
L 628 4666 
L 2053 4666 
Q 2853 4666 3247 4331 
Q 3641 3997 3641 3322 
Q 3641 2881 3436 2590 
Q 3231 2300 2841 2188 
z
M 1259 4147 
L 1259 2491 
L 2053 2491 
Q 2509 2491 2742 2702 
Q 2975 2913 2975 3322 
Q 2975 3731 2742 3939 
Q 2509 4147 2053 4147 
L 1259 4147 
z
" transform="scale(0.015625)"/>
       <path id="DejaVuSans-65" d="M 3597 1894 
L 3597 1613 
L 953 1613 
Q 991 1019 1311 708 
Q 1631 397 2203 397 
Q 2534 397 2845 478 
Q 3156 559 3463 722 
L 3463 178 
Q 3153 47 2828 -22 
Q 2503 -91 2169 -91 
Q 1331 -91 842 396 
Q 353 884 353 1716 
Q 353 2575 817 3079 
Q 1281 3584 2069 3584 
Q 2775 3584 3186 3129 
Q 3597 2675 3597 1894 
z
M 3022 2063 
Q 3016 2534 2758 2815 
Q 2500 3097 2075 3097 
Q 1594 3097 1305 2825 
Q 1016 2553 972 2059 
L 3022 2063 
z
" transform="scale(0.015625)"/>
       <path id="DejaVuSans-73" d="M 2834 3397 
L 2834 2853 
Q 2591 2978 2328 3040 
Q 2066 3103 1784 3103 
Q 1356 3103 1142 2972 
Q 928 2841 928 2578 
Q 928 2378 1081 2264 
Q 1234 2150 1697 2047 
L 1894 2003 
Q 2506 1872 2764 1633 
Q 3022 1394 3022 966 
Q 3022 478 2636 193 
Q 2250 -91 1575 -91 
Q 1294 -91 989 -36 
Q 684 19 347 128 
L 347 722 
Q 666 556 975 473 
Q 1284 391 1588 391 
Q 1994 391 2212 530 
Q 2431 669 2431 922 
Q 2431 1156 2273 1281 
Q 2116 1406 1581 1522 
L 1381 1569 
Q 847 1681 609 1914 
Q 372 2147 372 2553 
Q 372 3047 722 3315 
Q 1072 3584 1716 3584 
Q 2034 3584 2315 3537 
Q 2597 3491 2834 3397 
z
" transform="scale(0.015625)"/>
       <path id="DejaVuSans-69" d="M 603 3500 
L 1178 3500 
L 1178 0 
L 603 0 
L 603 3500 
z
M 603 4863 
L 1178 4863 
L 1178 4134 
L 603 4134 
L 603 4863 
z
" transform="scale(0.015625)"/>
       <path id="DejaVuSans-64" d="M 2906 2969 
L 2906 4863 
L 3481 4863 
L 3481 0 
L 2906 0 
L 2906 525 
Q 2725 213 2448 61 
Q 2172 -91 1784 -91 
Q 1150 -91 751 415 
Q 353 922 353 1747 
Q 353 2572 751 3078 
Q 1150 3584 1784 3584 
Q 2172 3584 2448 3432 
Q 2725 3281 2906 2969 
z
M 947 1747 
Q 947 1113 1208 752 
Q 1469 391 1925 391 
Q 2381 391 2643 752 
Q 2906 1113 2906 1747 
Q 2906 2381 2643 2742 
Q 2381 3103 1925 3103 
Q 1469 3103 1208 2742 
Q 947 2381 947 1747 
z
" transform="scale(0.015625)"/>
       <path id="DejaVuSans-75" d="M 544 1381 
L 544 3500 
L 1119 3500 
L 1119 1403 
Q 1119 906 1312 657 
Q 1506 409 1894 409 
Q 2359 409 2629 706 
Q 2900 1003 2900 1516 
L 2900 3500 
L 3475 3500 
L 3475 0 
L 2900 0 
L 2900 538 
Q 2691 219 2414 64 
Q 2138 -91 1772 -91 
Q 1169 -91 856 284 
Q 544 659 544 1381 
z
M 1991 3584 
L 1991 3584 
z
" transform="scale(0.015625)"/>
       <path id="DejaVuSans-61" d="M 2194 1759 
Q 1497 1759 1228 1600 
Q 959 1441 959 1056 
Q 959 750 1161 570 
Q 1363 391 1709 391 
Q 2188 391 2477 730 
Q 2766 1069 2766 1631 
L 2766 1759 
L 2194 1759 
z
M 3341 1997 
L 3341 0 
L 2766 0 
L 2766 531 
Q 2569 213 2275 61 
Q 1981 -91 1556 -91 
Q 1019 -91 701 211 
Q 384 513 384 1019 
Q 384 1609 779 1909 
Q 1175 2209 1959 2209 
L 2766 2209 
L 2766 2266 
Q 2766 2663 2505 2880 
Q 2244 3097 1772 3097 
Q 1472 3097 1187 3025 
Q 903 2953 641 2809 
L 641 3341 
Q 956 3463 1253 3523 
Q 1550 3584 1831 3584 
Q 2591 3584 2966 3190 
Q 3341 2797 3341 1997 
z
" transform="scale(0.015625)"/>
       <path id="DejaVuSans-6c" d="M 603 4863 
L 1178 4863 
L 1178 0 
L 603 0 
L 603 4863 
z
" transform="scale(0.015625)"/>
      </defs>
      <use xlink:href="#DejaVuSans-52"/>
      <use xlink:href="#DejaVuSans-65" x="64.982422"/>
      <use xlink:href="#DejaVuSans-73" x="126.505859"/>
      <use xlink:href="#DejaVuSans-69" x="178.605469"/>
      <use xlink:href="#DejaVuSans-64" x="206.388672"/>
      <use xlink:href="#DejaVuSans-75" x="269.865234"/>
      <use xlink:href="#DejaVuSans-61" x="333.244141"/>
      <use xlink:href="#DejaVuSans-6c" x="394.523438"/>
     </g>
    </g>
   </g>
   <g id="matplotlib.axis_2">
    <g id="ytick_1">
     <g id="line2d_6">
      <defs>
       <path id="m1e316b3b40" d="M 0 0 
L -3.5 0 
" style="stroke: #000000; stroke-width: 0.8"/>
      </defs>
      <g>
       <use xlink:href="#m1e316b3b40" x="144" y="161.9595" style="stroke: #000000; stroke-width: 0.8"/>
      </g>
     </g>
     <g id="text_7">
      <!-- 8.A.204.1.1 -->
      <g transform="translate(79.446875 165.758719) scale(0.1 -0.1)">
       <defs>
        <path id="DejaVuSans-2e" d="M 684 794 
L 1344 794 
L 1344 0 
L 684 0 
L 684 794 
z
" transform="scale(0.015625)"/>
        <path id="DejaVuSans-41" d="M 2188 4044 
L 1331 1722 
L 3047 1722 
L 2188 4044 
z
M 1831 4666 
L 2547 4666 
L 4325 0 
L 3669 0 
L 3244 1197 
L 1141 1197 
L 716 0 
L 50 0 
L 1831 4666 
z
" transform="scale(0.015625)"/>
       </defs>
       <use xlink:href="#DejaVuSans-38"/>
       <use xlink:href="#DejaVuSans-2e" x="63.623047"/>
       <use xlink:href="#DejaVuSans-41" x="95.410156"/>
       <use xlink:href="#DejaVuSans-2e" x="162.068359"/>
       <use xlink:href="#DejaVuSans-32" x="193.855469"/>
       <use xlink:href="#DejaVuSans-30" x="257.478516"/>
       <use xlink:href="#DejaVuSans-34" x="321.101562"/>
       <use xlink:href="#DejaVuSans-2e" x="384.724609"/>
       <use xlink:href="#DejaVuSans-31" x="416.511719"/>
       <use xlink:href="#DejaVuSans-2e" x="480.134766"/>
       <use xlink:href="#DejaVuSans-31" x="511.921875"/>
      </g>
     </g>
    </g>
    <g id="ytick_2">
     <g id="line2d_7">
      <g>
       <use xlink:href="#m1e316b3b40" x="144" y="140.697" style="stroke: #000000; stroke-width: 0.8"/>
      </g>
     </g>
     <g id="text_8">
      <!-- 8.A.204.1.2 -->
      <g transform="translate(79.446875 144.496219) scale(0.1 -0.1)">
       <use xlink:href="#DejaVuSans-38"/>
       <use xlink:href="#DejaVuSans-2e" x="63.623047"/>
       <use xlink:href="#DejaVuSans-41" x="95.410156"/>
       <use xlink:href="#DejaVuSans-2e" x="162.068359"/>
       <use xlink:href="#DejaVuSans-32" x="193.855469"/>
       <use xlink:href="#DejaVuSans-30" x="257.478516"/>
       <use xlink:href="#DejaVuSans-34" x="321.101562"/>
       <use xlink:href="#DejaVuSans-2e" x="384.724609"/>
       <use xlink:href="#DejaVuSans-31" x="416.511719"/>
       <use xlink:href="#DejaVuSans-2e" x="480.134766"/>
       <use xlink:href="#DejaVuSans-32" x="511.921875"/>
      </g>
     </g>
    </g>
    <g id="ytick_3">
     <g id="line2d_8">
      <g>
       <use xlink:href="#m1e316b3b40" x="144" y="119.4345" style="stroke: #000000; stroke-width: 0.8"/>
      </g>
     </g>
     <g id="text_9">
      <!-- 8.A.204.1.3 -->
      <g transform="translate(79.446875 123.233719) scale(0.1 -0.1)">
       <defs>
        <path id="DejaVuSans-33" d="M 2597 2516 
Q 3050 2419 3304 2112 
Q 3559 1806 3559 1356 
Q 3559 666 3084 287 
Q 2609 -91 1734 -91 
Q 1441 -91 1130 -33 
Q 819 25 488 141 
L 488 750 
Q 750 597 1062 519 
Q 1375 441 1716 441 
Q 2309 441 2620 675 
Q 2931 909 2931 1356 
Q 2931 1769 2642 2001 
Q 2353 2234 1838 2234 
L 1294 2234 
L 1294 2753 
L 1863 2753 
Q 2328 2753 2575 2939 
Q 2822 3125 2822 3475 
Q 2822 3834 2567 4026 
Q 2313 4219 1838 4219 
Q 1578 4219 1281 4162 
Q 984 4106 628 3988 
L 628 4550 
Q 988 4650 1302 4700 
Q 1616 4750 1894 4750 
Q 2613 4750 3031 4423 
Q 3450 4097 3450 3541 
Q 3450 3153 3228 2886 
Q 3006 2619 2597 2516 
z
" transform="scale(0.015625)"/>
       </defs>
       <use xlink:href="#DejaVuSans-38"/>
       <use xlink:href="#DejaVuSans-2e" x="63.623047"/>
       <use xlink:href="#DejaVuSans-41" x="95.410156"/>
       <use xlink:href="#DejaVuSans-2e" x="162.068359"/>
       <use xlink:href="#DejaVuSans-32" x="193.855469"/>
       <use xlink:href="#DejaVuSans-30" x="257.478516"/>
       <use xlink:href="#DejaVuSans-34" x="321.101562"/>
       <use xlink:href="#DejaVuSans-2e" x="384.724609"/>
       <use xlink:href="#DejaVuSans-31" x="416.511719"/>
       <use xlink:href="#DejaVuSans-2e" x="480.134766"/>
       <use xlink:href="#DejaVuSans-33" x="511.921875"/>
      </g>
     </g>
    </g>
    <g id="ytick_4">
     <g id="line2d_9">
      <g>
       <use xlink:href="#m1e316b3b40" x="144" y="98.172" style="stroke: #000000; stroke-width: 0.8"/>
      </g>
     </g>
     <g id="text_10">
      <!-- 8.A.204.1.4 -->
      <g transform="translate(79.446875 101.971219) scale(0.1 -0.1)">
       <use xlink:href="#DejaVuSans-38"/>
       <use xlink:href="#DejaVuSans-2e" x="63.623047"/>
       <use xlink:href="#DejaVuSans-41" x="95.410156"/>
       <use xlink:href="#DejaVuSans-2e" x="162.068359"/>
       <use xlink:href="#DejaVuSans-32" x="193.855469"/>
       <use xlink:href="#DejaVuSans-30" x="257.478516"/>
       <use xlink:href="#DejaVuSans-34" x="321.101562"/>
       <use xlink:href="#DejaVuSans-2e" x="384.724609"/>
       <use xlink:href="#DejaVuSans-31" x="416.511719"/>
       <use xlink:href="#DejaVuSans-2e" x="480.134766"/>
       <use xlink:href="#DejaVuSans-34" x="511.921875"/>
      </g>
     </g>
    </g>
    <g id="ytick_5">
     <g id="line2d_10">
      <g>
       <use xlink:href="#m1e316b3b40" x="144" y="76.9095" style="stroke: #000000; stroke-width: 0.8"/>
      </g>
     </g>
     <g id="text_11">
      <!-- 8.A.204.1.5 -->
      <g transform="translate(79.446875 80.708719) scale(0.1 -0.1)">
       <defs>
        <path id="DejaVuSans-35" d="M 691 4666 
L 3169 4666 
L 3169 4134 
L 1269 4134 
L 1269 2991 
Q 1406 3038 1543 3061 
Q 1681 3084 1819 3084 
Q 2600 3084 3056 2656 
Q 3513 2228 3513 1497 
Q 3513 744 3044 326 
Q 2575 -91 1722 -91 
Q 1428 -91 1123 -41 
Q 819 9 494 109 
L 494 744 
Q 775 591 1075 516 
Q 1375 441 1709 441 
Q 2250 441 2565 725 
Q 2881 1009 2881 1497 
Q 2881 1984 2565 2268 
Q 2250 2553 1709 2553 
Q 1456 2553 1204 2497 
Q 953 2441 691 2322 
L 691 4666 
z
" transform="scale(0.015625)"/>
       </defs>
       <use xlink:href="#DejaVuSans-38"/>
       <use xlink:href="#DejaVuSans-2e" x="63.623047"/>
       <use xlink:href="#DejaVuSans-41" x="95.410156"/>
       <use xlink:href="#DejaVuSans-2e" x="162.068359"/>
       <use xlink:href="#DejaVuSans-32" x="193.855469"/>
       <use xlink:href="#DejaVuSans-30" x="257.478516"/>
       <use xlink:href="#DejaVuSans-34" x="321.101562"/>
       <use xlink:href="#DejaVuSans-2e" x="384.724609"/>
       <use xlink:href="#DejaVuSans-31" x="416.511719"/>
       <use xlink:href="#DejaVuSans-2e" x="480.134766"/>
       <use xlink:href="#DejaVuSans-35" x="511.921875"/>
      </g>
     </g>
    </g>
    <g id="ytick_6">
     <g id="line2d_11">
      <g>
       <use xlink:href="#m1e316b3b40" x="144" y="55.647" style="stroke: #000000; stroke-width: 0.8"/>
      </g>
     </g>
     <g id="text_12">
      <!-- 8.A.204.1.6 -->
      <g transform="translate(79.446875 59.446219) scale(0.1 -0.1)">
       <use xlink:href="#DejaVuSans-38"/>
       <use xlink:href="#DejaVuSans-2e" x="63.623047"/>
       <use xlink:href="#DejaVuSans-41" x="95.410156"/>
       <use xlink:href="#DejaVuSans-2e" x="162.068359"/>
       <use xlink:href="#DejaVuSans-32" x="193.855469"/>
       <use xlink:href="#DejaVuSans-30" x="257.478516"/>
       <use xlink:href="#DejaVuSans-34" x="321.101562"/>
       <use xlink:href="#DejaVuSans-2e" x="384.724609"/>
       <use xlink:href="#DejaVuSans-31" x="416.511719"/>
       <use xlink:href="#DejaVuSans-2e" x="480.134766"/>
       <use xlink:href="#DejaVuSans-36" x="511.921875"/>
      </g>
     </g>
    </g>
    <g id="ytick_7">
     <g id="line2d_12">
      <g>
       <use xlink:href="#m1e316b3b40" x="144" y="34.3845" style="stroke: #000000; stroke-width: 0.8"/>
      </g>
     </g>
     <g id="text_13">
      <!-- 8.A.204.1.7 -->
      <g transform="translate(79.446875 38.183719) scale(0.1 -0.1)">
       <defs>
        <path id="DejaVuSans-37" d="M 525 4666 
L 3525 4666 
L 3525 4397 
L 1831 0 
L 1172 0 
L 2766 4134 
L 525 4134 
L 525 4666 
z
" transform="scale(0.015625)"/>
       </defs>
       <use xlink:href="#DejaVuSans-38"/>
       <use xlink:href="#DejaVuSans-2e" x="63.623047"/>
       <use xlink:href="#DejaVuSans-41" x="95.410156"/>
       <use xlink:href="#DejaVuSans-2e" x="162.068359"/>
       <use xlink:href="#DejaVuSans-32" x="193.855469"/>
       <use xlink:href="#DejaVuSans-30" x="257.478516"/>
       <use xlink:href="#DejaVuSans-34" x="321.101562"/>
       <use xlink:href="#DejaVuSans-2e" x="384.724609"/>
       <use xlink:href="#DejaVuSans-31" x="416.511719"/>
       <use xlink:href="#DejaVuSans-2e" x="480.134766"/>
       <use xlink:href="#DejaVuSans-37" x="511.921875"/>
      </g>
     </g>
    </g>
   </g>
   <g id="patch_146">
    <path d="M 144 173.016 
L 144 23.328 
" style="fill: none; stroke: #000000; stroke-width: 0.8; stroke-linejoin: miter; stroke-linecap: square"/>
   </g>
   <g id="patch_147">
    <path d="M 1036.8 173.016 
L 1036.8 23.328 
" style="fill: none; stroke: #000000; stroke-width: 0.8; stroke-linejoin: miter; stroke-linecap: square"/>
   </g>
   <g id="patch_148">
    <path d="M 144 173.016 
L 1036.8 173.016 
" style="fill: none; stroke: #000000; stroke-width: 0.8; stroke-linejoin: miter; stroke-linecap: square"/>
   </g>
   <g id="patch_149">
    <path d="M 144 23.328 
L 1036.8 23.328 
" style="fill: none; stroke: #000000; stroke-width: 0.8; stroke-linejoin: miter; stroke-linecap: square"/>
   </g>
   <g id="text_14">
    <!-- 8.A.204 Summary -->
    <g transform="translate(536.415 17.328) scale(0.12 -0.12)">
     <defs>
      <path id="DejaVuSans-20" transform="scale(0.015625)"/>
      <path id="DejaVuSans-53" d="M 3425 4513 
L 3425 3897 
Q 3066 4069 2747 4153 
Q 2428 4238 2131 4238 
Q 1616 4238 1336 4038 
Q 1056 3838 1056 3469 
Q 1056 3159 1242 3001 
Q 1428 2844 1947 2747 
L 2328 2669 
Q 3034 2534 3370 2195 
Q 3706 1856 3706 1288 
Q 3706 609 3251 259 
Q 2797 -91 1919 -91 
Q 1588 -91 1214 -16 
Q 841 59 441 206 
L 441 856 
Q 825 641 1194 531 
Q 1563 422 1919 422 
Q 2459 422 2753 634 
Q 3047 847 3047 1241 
Q 3047 1584 2836 1778 
Q 2625 1972 2144 2069 
L 1759 2144 
Q 1053 2284 737 2584 
Q 422 2884 422 3419 
Q 422 4038 858 4394 
Q 1294 4750 2059 4750 
Q 2388 4750 2728 4690 
Q 3069 4631 3425 4513 
z
" transform="scale(0.015625)"/>
      <path id="DejaVuSans-6d" d="M 3328 2828 
Q 3544 3216 3844 3400 
Q 4144 3584 4550 3584 
Q 5097 3584 5394 3201 
Q 5691 2819 5691 2113 
L 5691 0 
L 5113 0 
L 5113 2094 
Q 5113 2597 4934 2840 
Q 4756 3084 4391 3084 
Q 3944 3084 3684 2787 
Q 3425 2491 3425 1978 
L 3425 0 
L 2847 0 
L 2847 2094 
Q 2847 2600 2669 2842 
Q 2491 3084 2119 3084 
Q 1678 3084 1418 2786 
Q 1159 2488 1159 1978 
L 1159 0 
L 581 0 
L 581 3500 
L 1159 3500 
L 1159 2956 
Q 1356 3278 1631 3431 
Q 1906 3584 2284 3584 
Q 2666 3584 2933 3390 
Q 3200 3197 3328 2828 
z
" transform="scale(0.015625)"/>
      <path id="DejaVuSans-72" d="M 2631 2963 
Q 2534 3019 2420 3045 
Q 2306 3072 2169 3072 
Q 1681 3072 1420 2755 
Q 1159 2438 1159 1844 
L 1159 0 
L 581 0 
L 581 3500 
L 1159 3500 
L 1159 2956 
Q 1341 3275 1631 3429 
Q 1922 3584 2338 3584 
Q 2397 3584 2469 3576 
Q 2541 3569 2628 3553 
L 2631 2963 
z
" transform="scale(0.015625)"/>
      <path id="DejaVuSans-79" d="M 2059 -325 
Q 1816 -950 1584 -1140 
Q 1353 -1331 966 -1331 
L 506 -1331 
L 506 -850 
L 844 -850 
Q 1081 -850 1212 -737 
Q 1344 -625 1503 -206 
L 1606 56 
L 191 3500 
L 800 3500 
L 1894 763 
L 2988 3500 
L 3597 3500 
L 2059 -325 
z
" transform="scale(0.015625)"/>
     </defs>
     <use xlink:href="#DejaVuSans-38"/>
     <use xlink:href="#DejaVuSans-2e" x="63.623047"/>
     <use xlink:href="#DejaVuSans-41" x="95.410156"/>
     <use xlink:href="#DejaVuSans-2e" x="162.068359"/>
     <use xlink:href="#DejaVuSans-32" x="193.855469"/>
     <use xlink:href="#DejaVuSans-30" x="257.478516"/>
     <use xlink:href="#DejaVuSans-34" x="321.101562"/>
     <use xlink:href="#DejaVuSans-20" x="384.724609"/>
     <use xlink:href="#DejaVuSans-53" x="416.511719"/>
     <use xlink:href="#DejaVuSans-75" x="479.988281"/>
     <use xlink:href="#DejaVuSans-6d" x="543.367188"/>
     <use xlink:href="#DejaVuSans-6d" x="640.779297"/>
     <use xlink:href="#DejaVuSans-61" x="738.191406"/>
     <use xlink:href="#DejaVuSans-72" x="799.470703"/>
     <use xlink:href="#DejaVuSans-79" x="840.583984"/>
    </g>
   </g>
  </g>
 </g>
 <defs>
  <clipPath id="p09de8ca804">
   <rect x="144" y="23.328" width="892.8" height="149.688"/>
  </clipPath>
 </defs>
</svg>
