<?xml version="1.0" encoding="utf-8" standalone="no"?>
<!DOCTYPE svg PUBLIC "-//W3C//DTD SVG 1.1//EN"
  "http://www.w3.org/Graphics/SVG/1.1/DTD/svg11.dtd">
<svg xmlns:xlink="http://www.w3.org/1999/xlink" width="1152pt" height="302.4pt" viewBox="0 0 1152 302.4" xmlns="http://www.w3.org/2000/svg" version="1.1">
 <metadata>
  <rdf:RDF xmlns:dc="http://purl.org/dc/elements/1.1/" xmlns:cc="http://creativecommons.org/ns#" xmlns:rdf="http://www.w3.org/1999/02/22-rdf-syntax-ns#">
   <cc:Work>
    <dc:type rdf:resource="http://purl.org/dc/dcmitype/StillImage"/>
    <dc:date>2024-10-25T08:02:37.799006</dc:date>
    <dc:format>image/svg+xml</dc:format>
    <dc:creator>
     <cc:Agent>
      <dc:title>Matplotlib v3.9.2, https://matplotlib.org/</dc:title>
     </cc:Agent>
    </dc:creator>
   </cc:Work>
  </rdf:RDF>
 </metadata>
 <defs>
  <style type="text/css">*{stroke-linejoin: round; stroke-linecap: butt}</style>
 </defs>
 <g id="figure_1">
  <g id="patch_1">
   <path d="M 0 302.4 
L 1152 302.4 
L 1152 0 
L 0 0 
z
" style="fill: #ffffff"/>
  </g>
  <g id="axes_1">
   <g id="patch_2">
    <path d="M 144 269.136 
L 1036.8 269.136 
L 1036.8 36.288 
L 144 36.288 
z
" style="fill: #ffffff"/>
   </g>
   <g id="patch_3">
    <path d="M 144 255.116842 
L 151.836735 255.116842 
L 151.836735 254.559789 
L 144 254.559789 
z
" clip-path="url(#p0b4985740b)" style="fill: #0000ff"/>
   </g>
   <g id="patch_4">
    <path d="M 153.795918 258.552 
L 884.571429 258.552 
L 884.571429 251.124632 
L 153.795918 251.124632 
z
" clip-path="url(#p0b4985740b)" style="fill: #0000ff"/>
   </g>
   <g id="patch_5">
    <path d="M 155.755102 258.552 
L 259.591837 258.552 
L 259.591837 251.124632 
L 155.755102 251.124632 
z
" clip-path="url(#p0b4985740b)" style="fill: #0000ff"/>
   </g>
   <g id="patch_6">
    <path d="M 187.102041 258.552 
L 786.612245 258.552 
L 786.612245 251.124632 
L 187.102041 251.124632 
z
" clip-path="url(#p0b4985740b)" style="fill: #0000ff"/>
   </g>
   <g id="patch_7">
    <path d="M 191.020408 258.552 
L 798.367347 258.552 
L 798.367347 251.124632 
L 191.020408 251.124632 
z
" clip-path="url(#p0b4985740b)" style="fill: #0000ff"/>
   </g>
   <g id="patch_8">
    <path d="M 234.122449 258.552 
L 759.183673 258.552 
L 759.183673 251.124632 
L 234.122449 251.124632 
z
" clip-path="url(#p0b4985740b)" style="fill: #0000ff"/>
   </g>
   <g id="patch_9">
    <path d="M 288.979592 258.552 
L 790.530612 258.552 
L 790.530612 251.124632 
L 288.979592 251.124632 
z
" clip-path="url(#p0b4985740b)" style="fill: #0000ff"/>
   </g>
   <g id="patch_10">
    <path d="M 288.979592 258.552 
L 788.571429 258.552 
L 788.571429 251.124632 
L 288.979592 251.124632 
z
" clip-path="url(#p0b4985740b)" style="fill: #0000ff"/>
   </g>
   <g id="patch_11">
    <path d="M 290.938776 258.552 
L 792.489796 258.552 
L 792.489796 251.124632 
L 290.938776 251.124632 
z
" clip-path="url(#p0b4985740b)" style="fill: #0000ff"/>
   </g>
   <g id="patch_12">
    <path d="M 290.938776 258.552 
L 437.877551 258.552 
L 437.877551 251.124632 
L 290.938776 251.124632 
z
" clip-path="url(#p0b4985740b)" style="fill: #0000ff"/>
   </g>
   <g id="patch_13">
    <path d="M 316.408163 258.552 
L 759.183673 258.552 
L 759.183673 251.124632 
L 316.408163 251.124632 
z
" clip-path="url(#p0b4985740b)" style="fill: #0000ff"/>
   </g>
   <g id="patch_14">
    <path d="M 886.530612 255.116842 
L 892.408163 255.116842 
L 892.408163 254.559789 
L 886.530612 254.559789 
z
" clip-path="url(#p0b4985740b)" style="fill: #0000ff"/>
   </g>
   <g id="patch_15">
    <path d="M 144 236.548421 
L 159.673469 236.548421 
L 159.673469 235.991368 
L 144 235.991368 
z
" clip-path="url(#p0b4985740b)" style="fill: #0000ff"/>
   </g>
   <g id="patch_16">
    <path d="M 161.632653 239.983579 
L 721.959184 239.983579 
L 721.959184 232.556211 
L 161.632653 232.556211 
z
" clip-path="url(#p0b4985740b)" style="fill: #0000ff"/>
   </g>
   <g id="patch_17">
    <path d="M 192.979592 239.983579 
L 369.306122 239.983579 
L 369.306122 232.556211 
L 192.979592 232.556211 
z
" clip-path="url(#p0b4985740b)" style="fill: #0000ff"/>
   </g>
   <g id="patch_18">
    <path d="M 194.938776 239.983579 
L 706.285714 239.983579 
L 706.285714 232.556211 
L 194.938776 232.556211 
z
" clip-path="url(#p0b4985740b)" style="fill: #0000ff"/>
   </g>
   <g id="patch_19">
    <path d="M 218.44898 239.983579 
L 371.265306 239.983579 
L 371.265306 232.556211 
L 218.44898 232.556211 
z
" clip-path="url(#p0b4985740b)" style="fill: #0000ff"/>
   </g>
   <g id="patch_20">
    <path d="M 220.408163 239.983579 
L 714.122449 239.983579 
L 714.122449 232.556211 
L 220.408163 232.556211 
z
" clip-path="url(#p0b4985740b)" style="fill: #0000ff"/>
   </g>
   <g id="patch_21">
    <path d="M 234.122449 239.983579 
L 718.040816 239.983579 
L 718.040816 232.556211 
L 234.122449 232.556211 
z
" clip-path="url(#p0b4985740b)" style="fill: #0000ff"/>
   </g>
   <g id="patch_22">
    <path d="M 245.877551 239.983579 
L 714.122449 239.983579 
L 714.122449 232.556211 
L 245.877551 232.556211 
z
" clip-path="url(#p0b4985740b)" style="fill: #0000ff"/>
   </g>
   <g id="patch_23">
    <path d="M 247.836735 239.983579 
L 384.979592 239.983579 
L 384.979592 232.556211 
L 247.836735 232.556211 
z
" clip-path="url(#p0b4985740b)" style="fill: #0000ff"/>
   </g>
   <g id="patch_24">
    <path d="M 255.673469 239.983579 
L 706.285714 239.983579 
L 706.285714 232.556211 
L 255.673469 232.556211 
z
" clip-path="url(#p0b4985740b)" style="fill: #0000ff"/>
   </g>
   <g id="patch_25">
    <path d="M 269.387755 239.983579 
L 704.326531 239.983579 
L 704.326531 232.556211 
L 269.387755 232.556211 
z
" clip-path="url(#p0b4985740b)" style="fill: #0000ff"/>
   </g>
   <g id="patch_26">
    <path d="M 283.102041 239.983579 
L 706.285714 239.983579 
L 706.285714 232.556211 
L 283.102041 232.556211 
z
" clip-path="url(#p0b4985740b)" style="fill: #0000ff"/>
   </g>
   <g id="patch_27">
    <path d="M 723.918367 236.548421 
L 816 236.548421 
L 816 235.991368 
L 723.918367 235.991368 
z
" clip-path="url(#p0b4985740b)" style="fill: #0000ff"/>
   </g>
   <g id="patch_28">
    <path d="M 144 217.98 
L 263.510204 217.98 
L 263.510204 217.422947 
L 144 217.422947 
z
" clip-path="url(#p0b4985740b)" style="fill: #0000ff"/>
   </g>
   <g id="patch_29">
    <path d="M 265.469388 221.415158 
L 512.326531 221.415158 
L 512.326531 213.987789 
L 265.469388 213.987789 
z
" clip-path="url(#p0b4985740b)" style="fill: #0000ff"/>
   </g>
   <g id="patch_30">
    <path d="M 269.387755 221.415158 
L 467.265306 221.415158 
L 467.265306 213.987789 
L 269.387755 213.987789 
z
" clip-path="url(#p0b4985740b)" style="fill: #0000ff"/>
   </g>
   <g id="patch_31">
    <path d="M 269.387755 221.415158 
L 463.346939 221.415158 
L 463.346939 213.987789 
L 269.387755 213.987789 
z
" clip-path="url(#p0b4985740b)" style="fill: #0000ff"/>
   </g>
   <g id="patch_32">
    <path d="M 269.387755 221.415158 
L 414.367347 221.415158 
L 414.367347 213.987789 
L 269.387755 213.987789 
z
" clip-path="url(#p0b4985740b)" style="fill: #0000ff"/>
   </g>
   <g id="patch_33">
    <path d="M 269.387755 221.415158 
L 447.673469 221.415158 
L 447.673469 213.987789 
L 269.387755 213.987789 
z
" clip-path="url(#p0b4985740b)" style="fill: #0000ff"/>
   </g>
   <g id="patch_34">
    <path d="M 514.285714 217.98 
L 622.040816 217.98 
L 622.040816 217.422947 
L 514.285714 217.422947 
z
" clip-path="url(#p0b4985740b)" style="fill: #0000ff"/>
   </g>
   <g id="patch_35">
    <path d="M 144 199.411579 
L 171.428571 199.411579 
L 171.428571 198.854526 
L 144 198.854526 
z
" clip-path="url(#p0b4985740b)" style="fill: #0000ff"/>
   </g>
   <g id="patch_36">
    <path d="M 173.387755 202.846737 
L 802.285714 202.846737 
L 802.285714 195.419368 
L 173.387755 195.419368 
z
" clip-path="url(#p0b4985740b)" style="fill: #0000ff"/>
   </g>
   <g id="patch_37">
    <path d="M 181.22449 202.846737 
L 802.285714 202.846737 
L 802.285714 195.419368 
L 181.22449 195.419368 
z
" clip-path="url(#p0b4985740b)" style="fill: #0000ff"/>
   </g>
   <g id="patch_38">
    <path d="M 185.142857 202.846737 
L 749.387755 202.846737 
L 749.387755 195.419368 
L 185.142857 195.419368 
z
" clip-path="url(#p0b4985740b)" style="fill: #0000ff"/>
   </g>
   <g id="patch_39">
    <path d="M 236.081633 202.846737 
L 727.836735 202.846737 
L 727.836735 195.419368 
L 236.081633 195.419368 
z
" clip-path="url(#p0b4985740b)" style="fill: #0000ff"/>
   </g>
   <g id="patch_40">
    <path d="M 236.081633 202.846737 
L 412.408163 202.846737 
L 412.408163 195.419368 
L 236.081633 195.419368 
z
" clip-path="url(#p0b4985740b)" style="fill: #0000ff"/>
   </g>
   <g id="patch_41">
    <path d="M 238.040816 202.846737 
L 810.122449 202.846737 
L 810.122449 195.419368 
L 238.040816 195.419368 
z
" clip-path="url(#p0b4985740b)" style="fill: #0000ff"/>
   </g>
   <g id="patch_42">
    <path d="M 265.469388 202.846737 
L 767.020408 202.846737 
L 767.020408 195.419368 
L 265.469388 195.419368 
z
" clip-path="url(#p0b4985740b)" style="fill: #0000ff"/>
   </g>
   <g id="patch_43">
    <path d="M 267.428571 202.846737 
L 416.326531 202.846737 
L 416.326531 195.419368 
L 267.428571 195.419368 
z
" clip-path="url(#p0b4985740b)" style="fill: #0000ff"/>
   </g>
   <g id="patch_44">
    <path d="M 273.306122 202.846737 
L 759.183673 202.846737 
L 759.183673 195.419368 
L 273.306122 195.419368 
z
" clip-path="url(#p0b4985740b)" style="fill: #0000ff"/>
   </g>
   <g id="patch_45">
    <path d="M 812.081633 199.411579 
L 831.673469 199.411579 
L 831.673469 198.854526 
L 812.081633 198.854526 
z
" clip-path="url(#p0b4985740b)" style="fill: #0000ff"/>
   </g>
   <g id="patch_46">
    <path d="M 144 180.843158 
L 243.918367 180.843158 
L 243.918367 180.286105 
L 144 180.286105 
z
" clip-path="url(#p0b4985740b)" style="fill: #0000ff"/>
   </g>
   <g id="patch_47">
    <path d="M 245.877551 184.278316 
L 902.204082 184.278316 
L 902.204082 176.850947 
L 245.877551 176.850947 
z
" clip-path="url(#p0b4985740b)" style="fill: #0000ff"/>
   </g>
   <g id="patch_48">
    <path d="M 247.836735 184.278316 
L 974.693878 184.278316 
L 974.693878 176.850947 
L 247.836735 176.850947 
z
" clip-path="url(#p0b4985740b)" style="fill: #0000ff"/>
   </g>
   <g id="patch_49">
    <path d="M 247.836735 184.278316 
L 906.122449 184.278316 
L 906.122449 176.850947 
L 247.836735 176.850947 
z
" clip-path="url(#p0b4985740b)" style="fill: #0000ff"/>
   </g>
   <g id="patch_50">
    <path d="M 247.836735 184.278316 
L 308.571429 184.278316 
L 308.571429 176.850947 
L 247.836735 176.850947 
z
" clip-path="url(#p0b4985740b)" style="fill: #0000ff"/>
   </g>
   <g id="patch_51">
    <path d="M 257.632653 184.278316 
L 929.632653 184.278316 
L 929.632653 176.850947 
L 257.632653 176.850947 
z
" clip-path="url(#p0b4985740b)" style="fill: #0000ff"/>
   </g>
   <g id="patch_52">
    <path d="M 283.102041 184.278316 
L 874.77551 184.278316 
L 874.77551 176.850947 
L 283.102041 176.850947 
z
" clip-path="url(#p0b4985740b)" style="fill: #0000ff"/>
   </g>
   <g id="patch_53">
    <path d="M 377.142857 184.278316 
L 908.081633 184.278316 
L 908.081633 176.850947 
L 377.142857 176.850947 
z
" clip-path="url(#p0b4985740b)" style="fill: #0000ff"/>
   </g>
   <g id="patch_54">
    <path d="M 392.816327 184.278316 
L 533.877551 184.278316 
L 533.877551 176.850947 
L 392.816327 176.850947 
z
" clip-path="url(#p0b4985740b)" style="fill: #0000ff"/>
   </g>
   <g id="patch_55">
    <path d="M 392.816327 184.278316 
L 508.408163 184.278316 
L 508.408163 176.850947 
L 392.816327 176.850947 
z
" clip-path="url(#p0b4985740b)" style="fill: #0000ff"/>
   </g>
   <g id="patch_56">
    <path d="M 394.77551 184.278316 
L 496.653061 184.278316 
L 496.653061 176.850947 
L 394.77551 176.850947 
z
" clip-path="url(#p0b4985740b)" style="fill: #0000ff"/>
   </g>
   <g id="patch_57">
    <path d="M 976.653061 180.843158 
L 994.285714 180.843158 
L 994.285714 180.286105 
L 976.653061 180.286105 
z
" clip-path="url(#p0b4985740b)" style="fill: #0000ff"/>
   </g>
   <g id="patch_58">
    <path d="M 144 162.274737 
L 216.489796 162.274737 
L 216.489796 161.717684 
L 144 161.717684 
z
" clip-path="url(#p0b4985740b)" style="fill: #0000ff"/>
   </g>
   <g id="patch_59">
    <path d="M 218.44898 165.709895 
L 882.612245 165.709895 
L 882.612245 158.282526 
L 218.44898 158.282526 
z
" clip-path="url(#p0b4985740b)" style="fill: #0000ff"/>
   </g>
   <g id="patch_60">
    <path d="M 224.326531 165.709895 
L 853.22449 165.709895 
L 853.22449 158.282526 
L 224.326531 158.282526 
z
" clip-path="url(#p0b4985740b)" style="fill: #0000ff"/>
   </g>
   <g id="patch_61">
    <path d="M 226.285714 165.709895 
L 919.836735 165.709895 
L 919.836735 158.282526 
L 226.285714 158.282526 
z
" clip-path="url(#p0b4985740b)" style="fill: #0000ff"/>
   </g>
   <g id="patch_62">
    <path d="M 226.285714 165.709895 
L 857.142857 165.709895 
L 857.142857 158.282526 
L 226.285714 158.282526 
z
" clip-path="url(#p0b4985740b)" style="fill: #0000ff"/>
   </g>
   <g id="patch_63">
    <path d="M 249.795918 165.709895 
L 827.755102 165.709895 
L 827.755102 158.282526 
L 249.795918 158.282526 
z
" clip-path="url(#p0b4985740b)" style="fill: #0000ff"/>
   </g>
   <g id="patch_64">
    <path d="M 275.265306 165.709895 
L 445.714286 165.709895 
L 445.714286 158.282526 
L 275.265306 158.282526 
z
" clip-path="url(#p0b4985740b)" style="fill: #0000ff"/>
   </g>
   <g id="patch_65">
    <path d="M 316.408163 165.709895 
L 859.102041 165.709895 
L 859.102041 158.282526 
L 316.408163 158.282526 
z
" clip-path="url(#p0b4985740b)" style="fill: #0000ff"/>
   </g>
   <g id="patch_66">
    <path d="M 320.326531 165.709895 
L 461.387755 165.709895 
L 461.387755 158.282526 
L 320.326531 158.282526 
z
" clip-path="url(#p0b4985740b)" style="fill: #0000ff"/>
   </g>
   <g id="patch_67">
    <path d="M 322.285714 165.709895 
L 859.102041 165.709895 
L 859.102041 158.282526 
L 322.285714 158.282526 
z
" clip-path="url(#p0b4985740b)" style="fill: #0000ff"/>
   </g>
   <g id="patch_68">
    <path d="M 921.795918 162.274737 
L 935.510204 162.274737 
L 935.510204 161.717684 
L 921.795918 161.717684 
z
" clip-path="url(#p0b4985740b)" style="fill: #0000ff"/>
   </g>
   <g id="patch_69">
    <path d="M 144 143.706316 
L 222.367347 143.706316 
L 222.367347 143.149263 
L 144 143.149263 
z
" clip-path="url(#p0b4985740b)" style="fill: #0000ff"/>
   </g>
   <g id="patch_70">
    <path d="M 224.326531 147.141474 
L 951.183673 147.141474 
L 951.183673 139.714105 
L 224.326531 139.714105 
z
" clip-path="url(#p0b4985740b)" style="fill: #0000ff"/>
   </g>
   <g id="patch_71">
    <path d="M 343.836735 147.141474 
L 866.938776 147.141474 
L 866.938776 139.714105 
L 343.836735 139.714105 
z
" clip-path="url(#p0b4985740b)" style="fill: #0000ff"/>
   </g>
   <g id="patch_72">
    <path d="M 347.755102 147.141474 
L 941.387755 147.141474 
L 941.387755 139.714105 
L 347.755102 139.714105 
z
" clip-path="url(#p0b4985740b)" style="fill: #0000ff"/>
   </g>
   <g id="patch_73">
    <path d="M 361.469388 147.141474 
L 868.897959 147.141474 
L 868.897959 139.714105 
L 361.469388 139.714105 
z
" clip-path="url(#p0b4985740b)" style="fill: #0000ff"/>
   </g>
   <g id="patch_74">
    <path d="M 371.265306 147.141474 
L 518.204082 147.141474 
L 518.204082 139.714105 
L 371.265306 139.714105 
z
" clip-path="url(#p0b4985740b)" style="fill: #0000ff"/>
   </g>
   <g id="patch_75">
    <path d="M 377.142857 147.141474 
L 876.734694 147.141474 
L 876.734694 139.714105 
L 377.142857 139.714105 
z
" clip-path="url(#p0b4985740b)" style="fill: #0000ff"/>
   </g>
   <g id="patch_76">
    <path d="M 377.142857 147.141474 
L 528 147.141474 
L 528 139.714105 
L 377.142857 139.714105 
z
" clip-path="url(#p0b4985740b)" style="fill: #0000ff"/>
   </g>
   <g id="patch_77">
    <path d="M 388.897959 147.141474 
L 866.938776 147.141474 
L 866.938776 139.714105 
L 388.897959 139.714105 
z
" clip-path="url(#p0b4985740b)" style="fill: #0000ff"/>
   </g>
   <g id="patch_78">
    <path d="M 390.857143 147.141474 
L 528 147.141474 
L 528 139.714105 
L 390.857143 139.714105 
z
" clip-path="url(#p0b4985740b)" style="fill: #0000ff"/>
   </g>
   <g id="patch_79">
    <path d="M 390.857143 147.141474 
L 904.163265 147.141474 
L 904.163265 139.714105 
L 390.857143 139.714105 
z
" clip-path="url(#p0b4985740b)" style="fill: #0000ff"/>
   </g>
   <g id="patch_80">
    <path d="M 428.081633 147.141474 
L 880.653061 147.141474 
L 880.653061 139.714105 
L 428.081633 139.714105 
z
" clip-path="url(#p0b4985740b)" style="fill: #0000ff"/>
   </g>
   <g id="patch_81">
    <path d="M 953.142857 143.706316 
L 962.938776 143.706316 
L 962.938776 143.149263 
L 953.142857 143.149263 
z
" clip-path="url(#p0b4985740b)" style="fill: #0000ff"/>
   </g>
   <g id="patch_82">
    <path d="M 144 128.573053 
L 819.918367 128.573053 
L 819.918367 121.145684 
L 144 121.145684 
z
" clip-path="url(#p0b4985740b)" style="fill: #0000ff"/>
   </g>
   <g id="patch_83">
    <path d="M 187.102041 128.573053 
L 796.408163 128.573053 
L 796.408163 121.145684 
L 187.102041 121.145684 
z
" clip-path="url(#p0b4985740b)" style="fill: #0000ff"/>
   </g>
   <g id="patch_84">
    <path d="M 189.061224 128.573053 
L 868.897959 128.573053 
L 868.897959 121.145684 
L 189.061224 121.145684 
z
" clip-path="url(#p0b4985740b)" style="fill: #0000ff"/>
   </g>
   <g id="patch_85">
    <path d="M 194.938776 128.573053 
L 802.285714 128.573053 
L 802.285714 121.145684 
L 194.938776 121.145684 
z
" clip-path="url(#p0b4985740b)" style="fill: #0000ff"/>
   </g>
   <g id="patch_86">
    <path d="M 226.285714 128.573053 
L 778.77551 128.573053 
L 778.77551 121.145684 
L 226.285714 121.145684 
z
" clip-path="url(#p0b4985740b)" style="fill: #0000ff"/>
   </g>
   <g id="patch_87">
    <path d="M 279.183673 128.573053 
L 408.489796 128.573053 
L 408.489796 121.145684 
L 279.183673 121.145684 
z
" clip-path="url(#p0b4985740b)" style="fill: #0000ff"/>
   </g>
   <g id="patch_88">
    <path d="M 279.183673 128.573053 
L 810.122449 128.573053 
L 810.122449 121.145684 
L 279.183673 121.145684 
z
" clip-path="url(#p0b4985740b)" style="fill: #0000ff"/>
   </g>
   <g id="patch_89">
    <path d="M 285.061224 128.573053 
L 422.204082 128.573053 
L 422.204082 121.145684 
L 285.061224 121.145684 
z
" clip-path="url(#p0b4985740b)" style="fill: #0000ff"/>
   </g>
   <g id="patch_90">
    <path d="M 292.897959 128.573053 
L 798.367347 128.573053 
L 798.367347 121.145684 
L 292.897959 121.145684 
z
" clip-path="url(#p0b4985740b)" style="fill: #0000ff"/>
   </g>
   <g id="patch_91">
    <path d="M 144 106.569474 
L 147.918367 106.569474 
L 147.918367 106.012421 
L 144 106.012421 
z
" clip-path="url(#p0b4985740b)" style="fill: #0000ff"/>
   </g>
   <g id="patch_92">
    <path d="M 149.877551 110.004632 
L 737.632653 110.004632 
L 737.632653 102.577263 
L 149.877551 102.577263 
z
" clip-path="url(#p0b4985740b)" style="fill: #0000ff"/>
   </g>
   <g id="patch_93">
    <path d="M 151.836735 110.004632 
L 745.469388 110.004632 
L 745.469388 102.577263 
L 151.836735 102.577263 
z
" clip-path="url(#p0b4985740b)" style="fill: #0000ff"/>
   </g>
   <g id="patch_94">
    <path d="M 159.673469 110.004632 
L 806.204082 110.004632 
L 806.204082 102.577263 
L 159.673469 102.577263 
z
" clip-path="url(#p0b4985740b)" style="fill: #0000ff"/>
   </g>
   <g id="patch_95">
    <path d="M 159.673469 110.004632 
L 792.489796 110.004632 
L 792.489796 102.577263 
L 159.673469 102.577263 
z
" clip-path="url(#p0b4985740b)" style="fill: #0000ff"/>
   </g>
   <g id="patch_96">
    <path d="M 191.020408 110.004632 
L 721.959184 110.004632 
L 721.959184 102.577263 
L 191.020408 102.577263 
z
" clip-path="url(#p0b4985740b)" style="fill: #0000ff"/>
   </g>
   <g id="patch_97">
    <path d="M 196.897959 110.004632 
L 721.959184 110.004632 
L 721.959184 102.577263 
L 196.897959 102.577263 
z
" clip-path="url(#p0b4985740b)" style="fill: #0000ff"/>
   </g>
   <g id="patch_98">
    <path d="M 202.77551 110.004632 
L 727.836735 110.004632 
L 727.836735 102.577263 
L 202.77551 102.577263 
z
" clip-path="url(#p0b4985740b)" style="fill: #0000ff"/>
   </g>
   <g id="patch_99">
    <path d="M 214.530612 110.004632 
L 743.510204 110.004632 
L 743.510204 102.577263 
L 214.530612 102.577263 
z
" clip-path="url(#p0b4985740b)" style="fill: #0000ff"/>
   </g>
   <g id="patch_100">
    <path d="M 220.408163 110.004632 
L 737.632653 110.004632 
L 737.632653 102.577263 
L 220.408163 102.577263 
z
" clip-path="url(#p0b4985740b)" style="fill: #0000ff"/>
   </g>
   <g id="patch_101">
    <path d="M 236.081633 110.004632 
L 381.061224 110.004632 
L 381.061224 102.577263 
L 236.081633 102.577263 
z
" clip-path="url(#p0b4985740b)" style="fill: #0000ff"/>
   </g>
   <g id="patch_102">
    <path d="M 249.795918 110.004632 
L 753.306122 110.004632 
L 753.306122 102.577263 
L 249.795918 102.577263 
z
" clip-path="url(#p0b4985740b)" style="fill: #0000ff"/>
   </g>
   <g id="patch_103">
    <path d="M 259.591837 110.004632 
L 388.897959 110.004632 
L 388.897959 102.577263 
L 259.591837 102.577263 
z
" clip-path="url(#p0b4985740b)" style="fill: #0000ff"/>
   </g>
   <g id="patch_104">
    <path d="M 267.428571 110.004632 
L 727.836735 110.004632 
L 727.836735 102.577263 
L 267.428571 102.577263 
z
" clip-path="url(#p0b4985740b)" style="fill: #0000ff"/>
   </g>
   <g id="patch_105">
    <path d="M 667.102041 110.004632 
L 735.673469 110.004632 
L 735.673469 102.577263 
L 667.102041 102.577263 
z
" clip-path="url(#p0b4985740b)" style="fill: #0000ff"/>
   </g>
   <g id="patch_106">
    <path d="M 808.163265 106.569474 
L 857.142857 106.569474 
L 857.142857 106.012421 
L 808.163265 106.012421 
z
" clip-path="url(#p0b4985740b)" style="fill: #0000ff"/>
   </g>
   <g id="patch_107">
    <path d="M 144 88.001053 
L 232.163265 88.001053 
L 232.163265 87.444 
L 144 87.444 
z
" clip-path="url(#p0b4985740b)" style="fill: #0000ff"/>
   </g>
   <g id="patch_108">
    <path d="M 234.122449 91.436211 
L 831.673469 91.436211 
L 831.673469 84.008842 
L 234.122449 84.008842 
z
" clip-path="url(#p0b4985740b)" style="fill: #0000ff"/>
   </g>
   <g id="patch_109">
    <path d="M 238.040816 91.436211 
L 827.755102 91.436211 
L 827.755102 84.008842 
L 238.040816 84.008842 
z
" clip-path="url(#p0b4985740b)" style="fill: #0000ff"/>
   </g>
   <g id="patch_110">
    <path d="M 251.755102 91.436211 
L 866.938776 91.436211 
L 866.938776 84.008842 
L 251.755102 84.008842 
z
" clip-path="url(#p0b4985740b)" style="fill: #0000ff"/>
   </g>
   <g id="patch_111">
    <path d="M 257.632653 91.436211 
L 814.040816 91.436211 
L 814.040816 84.008842 
L 257.632653 84.008842 
z
" clip-path="url(#p0b4985740b)" style="fill: #0000ff"/>
   </g>
   <g id="patch_112">
    <path d="M 283.102041 91.436211 
L 806.204082 91.436211 
L 806.204082 84.008842 
L 283.102041 84.008842 
z
" clip-path="url(#p0b4985740b)" style="fill: #0000ff"/>
   </g>
   <g id="patch_113">
    <path d="M 306.612245 91.436211 
L 473.142857 91.436211 
L 473.142857 84.008842 
L 306.612245 84.008842 
z
" clip-path="url(#p0b4985740b)" style="fill: #0000ff"/>
   </g>
   <g id="patch_114">
    <path d="M 345.795918 91.436211 
L 557.387755 91.436211 
L 557.387755 84.008842 
L 345.795918 84.008842 
z
" clip-path="url(#p0b4985740b)" style="fill: #0000ff"/>
   </g>
   <g id="patch_115">
    <path d="M 349.714286 91.436211 
L 845.387755 91.436211 
L 845.387755 84.008842 
L 349.714286 84.008842 
z
" clip-path="url(#p0b4985740b)" style="fill: #0000ff"/>
   </g>
   <g id="patch_116">
    <path d="M 367.346939 91.436211 
L 831.673469 91.436211 
L 831.673469 84.008842 
L 367.346939 84.008842 
z
" clip-path="url(#p0b4985740b)" style="fill: #0000ff"/>
   </g>
   <g id="patch_117">
    <path d="M 868.897959 88.001053 
L 902.204082 88.001053 
L 902.204082 87.444 
L 868.897959 87.444 
z
" clip-path="url(#p0b4985740b)" style="fill: #0000ff"/>
   </g>
   <g id="patch_118">
    <path d="M 144 69.432632 
L 157.714286 69.432632 
L 157.714286 68.875579 
L 144 68.875579 
z
" clip-path="url(#p0b4985740b)" style="fill: #0000ff"/>
   </g>
   <g id="patch_119">
    <path d="M 159.673469 72.867789 
L 704.326531 72.867789 
L 704.326531 65.440421 
L 159.673469 65.440421 
z
" clip-path="url(#p0b4985740b)" style="fill: #0000ff"/>
   </g>
   <g id="patch_120">
    <path d="M 159.673469 72.867789 
L 778.77551 72.867789 
L 778.77551 65.440421 
L 159.673469 65.440421 
z
" clip-path="url(#p0b4985740b)" style="fill: #0000ff"/>
   </g>
   <g id="patch_121">
    <path d="M 189.061224 72.867789 
L 698.44898 72.867789 
L 698.44898 65.440421 
L 189.061224 65.440421 
z
" clip-path="url(#p0b4985740b)" style="fill: #0000ff"/>
   </g>
   <g id="patch_122">
    <path d="M 189.061224 72.867789 
L 718.040816 72.867789 
L 718.040816 65.440421 
L 189.061224 65.440421 
z
" clip-path="url(#p0b4985740b)" style="fill: #0000ff"/>
   </g>
   <g id="patch_123">
    <path d="M 192.979592 72.867789 
L 361.469388 72.867789 
L 361.469388 65.440421 
L 192.979592 65.440421 
z
" clip-path="url(#p0b4985740b)" style="fill: #0000ff"/>
   </g>
   <g id="patch_124">
    <path d="M 202.77551 72.867789 
L 706.285714 72.867789 
L 706.285714 65.440421 
L 202.77551 65.440421 
z
" clip-path="url(#p0b4985740b)" style="fill: #0000ff"/>
   </g>
   <g id="patch_125">
    <path d="M 222.367347 72.867789 
L 706.285714 72.867789 
L 706.285714 65.440421 
L 222.367347 65.440421 
z
" clip-path="url(#p0b4985740b)" style="fill: #0000ff"/>
   </g>
   <g id="patch_126">
    <path d="M 230.204082 72.867789 
L 702.367347 72.867789 
L 702.367347 65.440421 
L 230.204082 65.440421 
z
" clip-path="url(#p0b4985740b)" style="fill: #0000ff"/>
   </g>
   <g id="patch_127">
    <path d="M 238.040816 72.867789 
L 706.285714 72.867789 
L 706.285714 65.440421 
L 238.040816 65.440421 
z
" clip-path="url(#p0b4985740b)" style="fill: #0000ff"/>
   </g>
   <g id="patch_128">
    <path d="M 245.877551 72.867789 
L 718.040816 72.867789 
L 718.040816 65.440421 
L 245.877551 65.440421 
z
" clip-path="url(#p0b4985740b)" style="fill: #0000ff"/>
   </g>
   <g id="patch_129">
    <path d="M 247.836735 72.867789 
L 377.142857 72.867789 
L 377.142857 65.440421 
L 247.836735 65.440421 
z
" clip-path="url(#p0b4985740b)" style="fill: #0000ff"/>
   </g>
   <g id="patch_130">
    <path d="M 247.836735 72.867789 
L 690.612245 72.867789 
L 690.612245 65.440421 
L 247.836735 65.440421 
z
" clip-path="url(#p0b4985740b)" style="fill: #0000ff"/>
   </g>
   <g id="patch_131">
    <path d="M 275.265306 72.867789 
L 363.428571 72.867789 
L 363.428571 65.440421 
L 275.265306 65.440421 
z
" clip-path="url(#p0b4985740b)" style="fill: #0000ff"/>
   </g>
   <g id="patch_132">
    <path d="M 780.734694 69.432632 
L 806.204082 69.432632 
L 806.204082 68.875579 
L 780.734694 68.875579 
z
" clip-path="url(#p0b4985740b)" style="fill: #0000ff"/>
   </g>
   <g id="patch_133">
    <path d="M 144 50.864211 
L 198.857143 50.864211 
L 198.857143 50.307158 
L 144 50.307158 
z
" clip-path="url(#p0b4985740b)" style="fill: #0000ff"/>
   </g>
   <g id="patch_134">
    <path d="M 200.816327 54.299368 
L 753.306122 54.299368 
L 753.306122 46.872 
L 200.816327 46.872 
z
" clip-path="url(#p0b4985740b)" style="fill: #0000ff"/>
   </g>
   <g id="patch_135">
    <path d="M 204.734694 54.299368 
L 817.959184 54.299368 
L 817.959184 46.872 
L 204.734694 46.872 
z
" clip-path="url(#p0b4985740b)" style="fill: #0000ff"/>
   </g>
   <g id="patch_136">
    <path d="M 206.693878 54.299368 
L 770.938776 54.299368 
L 770.938776 46.872 
L 206.693878 46.872 
z
" clip-path="url(#p0b4985740b)" style="fill: #0000ff"/>
   </g>
   <g id="patch_137">
    <path d="M 206.693878 54.299368 
L 765.061224 54.299368 
L 765.061224 46.872 
L 206.693878 46.872 
z
" clip-path="url(#p0b4985740b)" style="fill: #0000ff"/>
   </g>
   <g id="patch_138">
    <path d="M 228.244898 54.299368 
L 768.979592 54.299368 
L 768.979592 46.872 
L 228.244898 46.872 
z
" clip-path="url(#p0b4985740b)" style="fill: #0000ff"/>
   </g>
   <g id="patch_139">
    <path d="M 230.204082 54.299368 
L 737.632653 54.299368 
L 737.632653 46.872 
L 230.204082 46.872 
z
" clip-path="url(#p0b4985740b)" style="fill: #0000ff"/>
   </g>
   <g id="patch_140">
    <path d="M 240 54.299368 
L 759.183673 54.299368 
L 759.183673 46.872 
L 240 46.872 
z
" clip-path="url(#p0b4985740b)" style="fill: #0000ff"/>
   </g>
   <g id="patch_141">
    <path d="M 247.836735 54.299368 
L 432 54.299368 
L 432 46.872 
L 247.836735 46.872 
z
" clip-path="url(#p0b4985740b)" style="fill: #0000ff"/>
   </g>
   <g id="patch_142">
    <path d="M 277.22449 54.299368 
L 761.142857 54.299368 
L 761.142857 46.872 
L 277.22449 46.872 
z
" clip-path="url(#p0b4985740b)" style="fill: #0000ff"/>
   </g>
   <g id="patch_143">
    <path d="M 279.183673 54.299368 
L 424.163265 54.299368 
L 424.163265 46.872 
L 279.183673 46.872 
z
" clip-path="url(#p0b4985740b)" style="fill: #0000ff"/>
   </g>
   <g id="patch_144">
    <path d="M 287.020408 54.299368 
L 755.265306 54.299368 
L 755.265306 46.872 
L 287.020408 46.872 
z
" clip-path="url(#p0b4985740b)" style="fill: #0000ff"/>
   </g>
   <g id="patch_145">
    <path d="M 819.918367 50.864211 
L 859.102041 50.864211 
L 859.102041 50.307158 
L 819.918367 50.307158 
z
" clip-path="url(#p0b4985740b)" style="fill: #0000ff"/>
   </g>
   <g id="matplotlib.axis_1">
    <g id="xtick_1">
     <g id="line2d_1">
      <defs>
       <path id="md0161b38fb" d="M 0 0 
L 0 3.5 
" style="stroke: #000000; stroke-width: 0.8"/>
      </defs>
      <g>
       <use xlink:href="#md0161b38fb" x="337.959184" y="269.136" style="stroke: #000000; stroke-width: 0.8"/>
      </g>
     </g>
     <g id="text_1">
      <!-- 100 -->
      <g transform="translate(328.415434 283.734438) scale(0.1 -0.1)">
       <defs>
        <path id="DejaVuSans-31" d="M 794 531 
L 1825 531 
L 1825 4091 
L 703 3866 
L 703 4441 
L 1819 4666 
L 2450 4666 
L 2450 531 
L 3481 531 
L 3481 0 
L 794 0 
L 794 531 
z
" transform="scale(0.015625)"/>
        <path id="DejaVuSans-30" d="M 2034 4250 
Q 1547 4250 1301 3770 
Q 1056 3291 1056 2328 
Q 1056 1369 1301 889 
Q 1547 409 2034 409 
Q 2525 409 2770 889 
Q 3016 1369 3016 2328 
Q 3016 3291 2770 3770 
Q 2525 4250 2034 4250 
z
M 2034 4750 
Q 2819 4750 3233 4129 
Q 3647 3509 3647 2328 
Q 3647 1150 3233 529 
Q 2819 -91 2034 -91 
Q 1250 -91 836 529 
Q 422 1150 422 2328 
Q 422 3509 836 4129 
Q 1250 4750 2034 4750 
z
" transform="scale(0.015625)"/>
       </defs>
       <use xlink:href="#DejaVuSans-31"/>
       <use xlink:href="#DejaVuSans-30" x="63.623047"/>
       <use xlink:href="#DejaVuSans-30" x="127.246094"/>
      </g>
     </g>
    </g>
    <g id="xtick_2">
     <g id="line2d_2">
      <g>
       <use xlink:href="#md0161b38fb" x="533.877551" y="269.136" style="stroke: #000000; stroke-width: 0.8"/>
      </g>
     </g>
     <g id="text_2">
      <!-- 200 -->
      <g transform="translate(524.333801 283.734438) scale(0.1 -0.1)">
       <defs>
        <path id="DejaVuSans-32" d="M 1228 531 
L 3431 531 
L 3431 0 
L 469 0 
L 469 531 
Q 828 903 1448 1529 
Q 2069 2156 2228 2338 
Q 2531 2678 2651 2914 
Q 2772 3150 2772 3378 
Q 2772 3750 2511 3984 
Q 2250 4219 1831 4219 
Q 1534 4219 1204 4116 
Q 875 4013 500 3803 
L 500 4441 
Q 881 4594 1212 4672 
Q 1544 4750 1819 4750 
Q 2544 4750 2975 4387 
Q 3406 4025 3406 3419 
Q 3406 3131 3298 2873 
Q 3191 2616 2906 2266 
Q 2828 2175 2409 1742 
Q 1991 1309 1228 531 
z
" transform="scale(0.015625)"/>
       </defs>
       <use xlink:href="#DejaVuSans-32"/>
       <use xlink:href="#DejaVuSans-30" x="63.623047"/>
       <use xlink:href="#DejaVuSans-30" x="127.246094"/>
      </g>
     </g>
    </g>
    <g id="xtick_3">
     <g id="line2d_3">
      <g>
       <use xlink:href="#md0161b38fb" x="729.795918" y="269.136" style="stroke: #000000; stroke-width: 0.8"/>
      </g>
     </g>
     <g id="text_3">
      <!-- 300 -->
      <g transform="translate(720.252168 283.734438) scale(0.1 -0.1)">
       <defs>
        <path id="DejaVuSans-33" d="M 2597 2516 
Q 3050 2419 3304 2112 
Q 3559 1806 3559 1356 
Q 3559 666 3084 287 
Q 2609 -91 1734 -91 
Q 1441 -91 1130 -33 
Q 819 25 488 141 
L 488 750 
Q 750 597 1062 519 
Q 1375 441 1716 441 
Q 2309 441 2620 675 
Q 2931 909 2931 1356 
Q 2931 1769 2642 2001 
Q 2353 2234 1838 2234 
L 1294 2234 
L 1294 2753 
L 1863 2753 
Q 2328 2753 2575 2939 
Q 2822 3125 2822 3475 
Q 2822 3834 2567 4026 
Q 2313 4219 1838 4219 
Q 1578 4219 1281 4162 
Q 984 4106 628 3988 
L 628 4550 
Q 988 4650 1302 4700 
Q 1616 4750 1894 4750 
Q 2613 4750 3031 4423 
Q 3450 4097 3450 3541 
Q 3450 3153 3228 2886 
Q 3006 2619 2597 2516 
z
" transform="scale(0.015625)"/>
       </defs>
       <use xlink:href="#DejaVuSans-33"/>
       <use xlink:href="#DejaVuSans-30" x="63.623047"/>
       <use xlink:href="#DejaVuSans-30" x="127.246094"/>
      </g>
     </g>
    </g>
    <g id="xtick_4">
     <g id="line2d_4">
      <g>
       <use xlink:href="#md0161b38fb" x="925.714286" y="269.136" style="stroke: #000000; stroke-width: 0.8"/>
      </g>
     </g>
     <g id="text_4">
      <!-- 400 -->
      <g transform="translate(916.170536 283.734438) scale(0.1 -0.1)">
       <defs>
        <path id="DejaVuSans-34" d="M 2419 4116 
L 825 1625 
L 2419 1625 
L 2419 4116 
z
M 2253 4666 
L 3047 4666 
L 3047 1625 
L 3713 1625 
L 3713 1100 
L 3047 1100 
L 3047 0 
L 2419 0 
L 2419 1100 
L 313 1100 
L 313 1709 
L 2253 4666 
z
" transform="scale(0.015625)"/>
       </defs>
       <use xlink:href="#DejaVuSans-34"/>
       <use xlink:href="#DejaVuSans-30" x="63.623047"/>
       <use xlink:href="#DejaVuSans-30" x="127.246094"/>
      </g>
     </g>
    </g>
    <g id="text_5">
     <!-- Residual -->
     <g transform="translate(569.284375 297.412563) scale(0.1 -0.1)">
      <defs>
       <path id="DejaVuSans-52" d="M 2841 2188 
Q 3044 2119 3236 1894 
Q 3428 1669 3622 1275 
L 4263 0 
L 3584 0 
L 2988 1197 
Q 2756 1666 2539 1819 
Q 2322 1972 1947 1972 
L 1259 1972 
L 1259 0 
L 628 0 
L 628 4666 
L 2053 4666 
Q 2853 4666 3247 4331 
Q 3641 3997 3641 3322 
Q 3641 2881 3436 2590 
Q 3231 2300 2841 2188 
z
M 1259 4147 
L 1259 2491 
L 2053 2491 
Q 2509 2491 2742 2702 
Q 2975 2913 2975 3322 
Q 2975 3731 2742 3939 
Q 2509 4147 2053 4147 
L 1259 4147 
z
" transform="scale(0.015625)"/>
       <path id="DejaVuSans-65" d="M 3597 1894 
L 3597 1613 
L 953 1613 
Q 991 1019 1311 708 
Q 1631 397 2203 397 
Q 2534 397 2845 478 
Q 3156 559 3463 722 
L 3463 178 
Q 3153 47 2828 -22 
Q 2503 -91 2169 -91 
Q 1331 -91 842 396 
Q 353 884 353 1716 
Q 353 2575 817 3079 
Q 1281 3584 2069 3584 
Q 2775 3584 3186 3129 
Q 3597 2675 3597 1894 
z
M 3022 2063 
Q 3016 2534 2758 2815 
Q 2500 3097 2075 3097 
Q 1594 3097 1305 2825 
Q 1016 2553 972 2059 
L 3022 2063 
z
" transform="scale(0.015625)"/>
       <path id="DejaVuSans-73" d="M 2834 3397 
L 2834 2853 
Q 2591 2978 2328 3040 
Q 2066 3103 1784 3103 
Q 1356 3103 1142 2972 
Q 928 2841 928 2578 
Q 928 2378 1081 2264 
Q 1234 2150 1697 2047 
L 1894 2003 
Q 2506 1872 2764 1633 
Q 3022 1394 3022 966 
Q 3022 478 2636 193 
Q 2250 -91 1575 -91 
Q 1294 -91 989 -36 
Q 684 19 347 128 
L 347 722 
Q 666 556 975 473 
Q 1284 391 1588 391 
Q 1994 391 2212 530 
Q 2431 669 2431 922 
Q 2431 1156 2273 1281 
Q 2116 1406 1581 1522 
L 1381 1569 
Q 847 1681 609 1914 
Q 372 2147 372 2553 
Q 372 3047 722 3315 
Q 1072 3584 1716 3584 
Q 2034 3584 2315 3537 
Q 2597 3491 2834 3397 
z
" transform="scale(0.015625)"/>
       <path id="DejaVuSans-69" d="M 603 3500 
L 1178 3500 
L 1178 0 
L 603 0 
L 603 3500 
z
M 603 4863 
L 1178 4863 
L 1178 4134 
L 603 4134 
L 603 4863 
z
" transform="scale(0.015625)"/>
       <path id="DejaVuSans-64" d="M 2906 2969 
L 2906 4863 
L 3481 4863 
L 3481 0 
L 2906 0 
L 2906 525 
Q 2725 213 2448 61 
Q 2172 -91 1784 -91 
Q 1150 -91 751 415 
Q 353 922 353 1747 
Q 353 2572 751 3078 
Q 1150 3584 1784 3584 
Q 2172 3584 2448 3432 
Q 2725 3281 2906 2969 
z
M 947 1747 
Q 947 1113 1208 752 
Q 1469 391 1925 391 
Q 2381 391 2643 752 
Q 2906 1113 2906 1747 
Q 2906 2381 2643 2742 
Q 2381 3103 1925 3103 
Q 1469 3103 1208 2742 
Q 947 2381 947 1747 
z
" transform="scale(0.015625)"/>
       <path id="DejaVuSans-75" d="M 544 1381 
L 544 3500 
L 1119 3500 
L 1119 1403 
Q 1119 906 1312 657 
Q 1506 409 1894 409 
Q 2359 409 2629 706 
Q 2900 1003 2900 1516 
L 2900 3500 
L 3475 3500 
L 3475 0 
L 2900 0 
L 2900 538 
Q 2691 219 2414 64 
Q 2138 -91 1772 -91 
Q 1169 -91 856 284 
Q 544 659 544 1381 
z
M 1991 3584 
L 1991 3584 
z
" transform="scale(0.015625)"/>
       <path id="DejaVuSans-61" d="M 2194 1759 
Q 1497 1759 1228 1600 
Q 959 1441 959 1056 
Q 959 750 1161 570 
Q 1363 391 1709 391 
Q 2188 391 2477 730 
Q 2766 1069 2766 1631 
L 2766 1759 
L 2194 1759 
z
M 3341 1997 
L 3341 0 
L 2766 0 
L 2766 531 
Q 2569 213 2275 61 
Q 1981 -91 1556 -91 
Q 1019 -91 701 211 
Q 384 513 384 1019 
Q 384 1609 779 1909 
Q 1175 2209 1959 2209 
L 2766 2209 
L 2766 2266 
Q 2766 2663 2505 2880 
Q 2244 3097 1772 3097 
Q 1472 3097 1187 3025 
Q 903 2953 641 2809 
L 641 3341 
Q 956 3463 1253 3523 
Q 1550 3584 1831 3584 
Q 2591 3584 2966 3190 
Q 3341 2797 3341 1997 
z
" transform="scale(0.015625)"/>
       <path id="DejaVuSans-6c" d="M 603 4863 
L 1178 4863 
L 1178 0 
L 603 0 
L 603 4863 
z
" transform="scale(0.015625)"/>
      </defs>
      <use xlink:href="#DejaVuSans-52"/>
      <use xlink:href="#DejaVuSans-65" x="64.982422"/>
      <use xlink:href="#DejaVuSans-73" x="126.505859"/>
      <use xlink:href="#DejaVuSans-69" x="178.605469"/>
      <use xlink:href="#DejaVuSans-64" x="206.388672"/>
      <use xlink:href="#DejaVuSans-75" x="269.865234"/>
      <use xlink:href="#DejaVuSans-61" x="333.244141"/>
      <use xlink:href="#DejaVuSans-6c" x="394.523438"/>
     </g>
    </g>
   </g>
   <g id="matplotlib.axis_2">
    <g id="ytick_1">
     <g id="line2d_5">
      <defs>
       <path id="m7d3e36a0ed" d="M 0 0 
L -3.5 0 
" style="stroke: #000000; stroke-width: 0.8"/>
      </defs>
      <g>
       <use xlink:href="#m7d3e36a0ed" x="144" y="254.838316" style="stroke: #000000; stroke-width: 0.8"/>
      </g>
     </g>
     <g id="text_6">
      <!-- 9.A.76.1.1 -->
      <g transform="translate(85.809375 258.637535) scale(0.1 -0.1)">
       <defs>
        <path id="DejaVuSans-39" d="M 703 97 
L 703 672 
Q 941 559 1184 500 
Q 1428 441 1663 441 
Q 2288 441 2617 861 
Q 2947 1281 2994 2138 
Q 2813 1869 2534 1725 
Q 2256 1581 1919 1581 
Q 1219 1581 811 2004 
Q 403 2428 403 3163 
Q 403 3881 828 4315 
Q 1253 4750 1959 4750 
Q 2769 4750 3195 4129 
Q 3622 3509 3622 2328 
Q 3622 1225 3098 567 
Q 2575 -91 1691 -91 
Q 1453 -91 1209 -44 
Q 966 3 703 97 
z
M 1959 2075 
Q 2384 2075 2632 2365 
Q 2881 2656 2881 3163 
Q 2881 3666 2632 3958 
Q 2384 4250 1959 4250 
Q 1534 4250 1286 3958 
Q 1038 3666 1038 3163 
Q 1038 2656 1286 2365 
Q 1534 2075 1959 2075 
z
" transform="scale(0.015625)"/>
        <path id="DejaVuSans-2e" d="M 684 794 
L 1344 794 
L 1344 0 
L 684 0 
L 684 794 
z
" transform="scale(0.015625)"/>
        <path id="DejaVuSans-41" d="M 2188 4044 
L 1331 1722 
L 3047 1722 
L 2188 4044 
z
M 1831 4666 
L 2547 4666 
L 4325 0 
L 3669 0 
L 3244 1197 
L 1141 1197 
L 716 0 
L 50 0 
L 1831 4666 
z
" transform="scale(0.015625)"/>
        <path id="DejaVuSans-37" d="M 525 4666 
L 3525 4666 
L 3525 4397 
L 1831 0 
L 1172 0 
L 2766 4134 
L 525 4134 
L 525 4666 
z
" transform="scale(0.015625)"/>
        <path id="DejaVuSans-36" d="M 2113 2584 
Q 1688 2584 1439 2293 
Q 1191 2003 1191 1497 
Q 1191 994 1439 701 
Q 1688 409 2113 409 
Q 2538 409 2786 701 
Q 3034 994 3034 1497 
Q 3034 2003 2786 2293 
Q 2538 2584 2113 2584 
z
M 3366 4563 
L 3366 3988 
Q 3128 4100 2886 4159 
Q 2644 4219 2406 4219 
Q 1781 4219 1451 3797 
Q 1122 3375 1075 2522 
Q 1259 2794 1537 2939 
Q 1816 3084 2150 3084 
Q 2853 3084 3261 2657 
Q 3669 2231 3669 1497 
Q 3669 778 3244 343 
Q 2819 -91 2113 -91 
Q 1303 -91 875 529 
Q 447 1150 447 2328 
Q 447 3434 972 4092 
Q 1497 4750 2381 4750 
Q 2619 4750 2861 4703 
Q 3103 4656 3366 4563 
z
" transform="scale(0.015625)"/>
       </defs>
       <use xlink:href="#DejaVuSans-39"/>
       <use xlink:href="#DejaVuSans-2e" x="63.623047"/>
       <use xlink:href="#DejaVuSans-41" x="95.410156"/>
       <use xlink:href="#DejaVuSans-2e" x="162.068359"/>
       <use xlink:href="#DejaVuSans-37" x="193.855469"/>
       <use xlink:href="#DejaVuSans-36" x="257.478516"/>
       <use xlink:href="#DejaVuSans-2e" x="321.101562"/>
       <use xlink:href="#DejaVuSans-31" x="352.888672"/>
       <use xlink:href="#DejaVuSans-2e" x="416.511719"/>
       <use xlink:href="#DejaVuSans-31" x="448.298828"/>
      </g>
     </g>
    </g>
    <g id="ytick_2">
     <g id="line2d_6">
      <g>
       <use xlink:href="#m7d3e36a0ed" x="144" y="236.269895" style="stroke: #000000; stroke-width: 0.8"/>
      </g>
     </g>
     <g id="text_7">
      <!-- 9.A.76.1.10 -->
      <g transform="translate(79.446875 240.069113) scale(0.1 -0.1)">
       <use xlink:href="#DejaVuSans-39"/>
       <use xlink:href="#DejaVuSans-2e" x="63.623047"/>
       <use xlink:href="#DejaVuSans-41" x="95.410156"/>
       <use xlink:href="#DejaVuSans-2e" x="162.068359"/>
       <use xlink:href="#DejaVuSans-37" x="193.855469"/>
       <use xlink:href="#DejaVuSans-36" x="257.478516"/>
       <use xlink:href="#DejaVuSans-2e" x="321.101562"/>
       <use xlink:href="#DejaVuSans-31" x="352.888672"/>
       <use xlink:href="#DejaVuSans-2e" x="416.511719"/>
       <use xlink:href="#DejaVuSans-31" x="448.298828"/>
       <use xlink:href="#DejaVuSans-30" x="511.921875"/>
      </g>
     </g>
    </g>
    <g id="ytick_3">
     <g id="line2d_7">
      <g>
       <use xlink:href="#m7d3e36a0ed" x="144" y="217.701474" style="stroke: #000000; stroke-width: 0.8"/>
      </g>
     </g>
     <g id="text_8">
      <!-- 9.A.76.1.11 -->
      <g transform="translate(79.446875 221.500692) scale(0.1 -0.1)">
       <use xlink:href="#DejaVuSans-39"/>
       <use xlink:href="#DejaVuSans-2e" x="63.623047"/>
       <use xlink:href="#DejaVuSans-41" x="95.410156"/>
       <use xlink:href="#DejaVuSans-2e" x="162.068359"/>
       <use xlink:href="#DejaVuSans-37" x="193.855469"/>
       <use xlink:href="#DejaVuSans-36" x="257.478516"/>
       <use xlink:href="#DejaVuSans-2e" x="321.101562"/>
       <use xlink:href="#DejaVuSans-31" x="352.888672"/>
       <use xlink:href="#DejaVuSans-2e" x="416.511719"/>
       <use xlink:href="#DejaVuSans-31" x="448.298828"/>
       <use xlink:href="#DejaVuSans-31" x="511.921875"/>
      </g>
     </g>
    </g>
    <g id="ytick_4">
     <g id="line2d_8">
      <g>
       <use xlink:href="#m7d3e36a0ed" x="144" y="199.133053" style="stroke: #000000; stroke-width: 0.8"/>
      </g>
     </g>
     <g id="text_9">
      <!-- 9.A.76.1.12 -->
      <g transform="translate(79.446875 202.932271) scale(0.1 -0.1)">
       <use xlink:href="#DejaVuSans-39"/>
       <use xlink:href="#DejaVuSans-2e" x="63.623047"/>
       <use xlink:href="#DejaVuSans-41" x="95.410156"/>
       <use xlink:href="#DejaVuSans-2e" x="162.068359"/>
       <use xlink:href="#DejaVuSans-37" x="193.855469"/>
       <use xlink:href="#DejaVuSans-36" x="257.478516"/>
       <use xlink:href="#DejaVuSans-2e" x="321.101562"/>
       <use xlink:href="#DejaVuSans-31" x="352.888672"/>
       <use xlink:href="#DejaVuSans-2e" x="416.511719"/>
       <use xlink:href="#DejaVuSans-31" x="448.298828"/>
       <use xlink:href="#DejaVuSans-32" x="511.921875"/>
      </g>
     </g>
    </g>
    <g id="ytick_5">
     <g id="line2d_9">
      <g>
       <use xlink:href="#m7d3e36a0ed" x="144" y="180.564632" style="stroke: #000000; stroke-width: 0.8"/>
      </g>
     </g>
     <g id="text_10">
      <!-- 9.A.76.1.2 -->
      <g transform="translate(85.809375 184.36385) scale(0.1 -0.1)">
       <use xlink:href="#DejaVuSans-39"/>
       <use xlink:href="#DejaVuSans-2e" x="63.623047"/>
       <use xlink:href="#DejaVuSans-41" x="95.410156"/>
       <use xlink:href="#DejaVuSans-2e" x="162.068359"/>
       <use xlink:href="#DejaVuSans-37" x="193.855469"/>
       <use xlink:href="#DejaVuSans-36" x="257.478516"/>
       <use xlink:href="#DejaVuSans-2e" x="321.101562"/>
       <use xlink:href="#DejaVuSans-31" x="352.888672"/>
       <use xlink:href="#DejaVuSans-2e" x="416.511719"/>
       <use xlink:href="#DejaVuSans-32" x="448.298828"/>
      </g>
     </g>
    </g>
    <g id="ytick_6">
     <g id="line2d_10">
      <g>
       <use xlink:href="#m7d3e36a0ed" x="144" y="161.996211" style="stroke: #000000; stroke-width: 0.8"/>
      </g>
     </g>
     <g id="text_11">
      <!-- 9.A.76.1.3 -->
      <g transform="translate(85.809375 165.795429) scale(0.1 -0.1)">
       <use xlink:href="#DejaVuSans-39"/>
       <use xlink:href="#DejaVuSans-2e" x="63.623047"/>
       <use xlink:href="#DejaVuSans-41" x="95.410156"/>
       <use xlink:href="#DejaVuSans-2e" x="162.068359"/>
       <use xlink:href="#DejaVuSans-37" x="193.855469"/>
       <use xlink:href="#DejaVuSans-36" x="257.478516"/>
       <use xlink:href="#DejaVuSans-2e" x="321.101562"/>
       <use xlink:href="#DejaVuSans-31" x="352.888672"/>
       <use xlink:href="#DejaVuSans-2e" x="416.511719"/>
       <use xlink:href="#DejaVuSans-33" x="448.298828"/>
      </g>
     </g>
    </g>
    <g id="ytick_7">
     <g id="line2d_11">
      <g>
       <use xlink:href="#m7d3e36a0ed" x="144" y="143.427789" style="stroke: #000000; stroke-width: 0.8"/>
      </g>
     </g>
     <g id="text_12">
      <!-- 9.A.76.1.4 -->
      <g transform="translate(85.809375 147.227008) scale(0.1 -0.1)">
       <use xlink:href="#DejaVuSans-39"/>
       <use xlink:href="#DejaVuSans-2e" x="63.623047"/>
       <use xlink:href="#DejaVuSans-41" x="95.410156"/>
       <use xlink:href="#DejaVuSans-2e" x="162.068359"/>
       <use xlink:href="#DejaVuSans-37" x="193.855469"/>
       <use xlink:href="#DejaVuSans-36" x="257.478516"/>
       <use xlink:href="#DejaVuSans-2e" x="321.101562"/>
       <use xlink:href="#DejaVuSans-31" x="352.888672"/>
       <use xlink:href="#DejaVuSans-2e" x="416.511719"/>
       <use xlink:href="#DejaVuSans-34" x="448.298828"/>
      </g>
     </g>
    </g>
    <g id="ytick_8">
     <g id="line2d_12">
      <g>
       <use xlink:href="#m7d3e36a0ed" x="144" y="124.859368" style="stroke: #000000; stroke-width: 0.8"/>
      </g>
     </g>
     <g id="text_13">
      <!-- 9.A.76.1.5 -->
      <g transform="translate(85.809375 128.658587) scale(0.1 -0.1)">
       <defs>
        <path id="DejaVuSans-35" d="M 691 4666 
L 3169 4666 
L 3169 4134 
L 1269 4134 
L 1269 2991 
Q 1406 3038 1543 3061 
Q 1681 3084 1819 3084 
Q 2600 3084 3056 2656 
Q 3513 2228 3513 1497 
Q 3513 744 3044 326 
Q 2575 -91 1722 -91 
Q 1428 -91 1123 -41 
Q 819 9 494 109 
L 494 744 
Q 775 591 1075 516 
Q 1375 441 1709 441 
Q 2250 441 2565 725 
Q 2881 1009 2881 1497 
Q 2881 1984 2565 2268 
Q 2250 2553 1709 2553 
Q 1456 2553 1204 2497 
Q 953 2441 691 2322 
L 691 4666 
z
" transform="scale(0.015625)"/>
       </defs>
       <use xlink:href="#DejaVuSans-39"/>
       <use xlink:href="#DejaVuSans-2e" x="63.623047"/>
       <use xlink:href="#DejaVuSans-41" x="95.410156"/>
       <use xlink:href="#DejaVuSans-2e" x="162.068359"/>
       <use xlink:href="#DejaVuSans-37" x="193.855469"/>
       <use xlink:href="#DejaVuSans-36" x="257.478516"/>
       <use xlink:href="#DejaVuSans-2e" x="321.101562"/>
       <use xlink:href="#DejaVuSans-31" x="352.888672"/>
       <use xlink:href="#DejaVuSans-2e" x="416.511719"/>
       <use xlink:href="#DejaVuSans-35" x="448.298828"/>
      </g>
     </g>
    </g>
    <g id="ytick_9">
     <g id="line2d_13">
      <g>
       <use xlink:href="#m7d3e36a0ed" x="144" y="106.290947" style="stroke: #000000; stroke-width: 0.8"/>
      </g>
     </g>
     <g id="text_14">
      <!-- 9.A.76.1.6 -->
      <g transform="translate(85.809375 110.090166) scale(0.1 -0.1)">
       <use xlink:href="#DejaVuSans-39"/>
       <use xlink:href="#DejaVuSans-2e" x="63.623047"/>
       <use xlink:href="#DejaVuSans-41" x="95.410156"/>
       <use xlink:href="#DejaVuSans-2e" x="162.068359"/>
       <use xlink:href="#DejaVuSans-37" x="193.855469"/>
       <use xlink:href="#DejaVuSans-36" x="257.478516"/>
       <use xlink:href="#DejaVuSans-2e" x="321.101562"/>
       <use xlink:href="#DejaVuSans-31" x="352.888672"/>
       <use xlink:href="#DejaVuSans-2e" x="416.511719"/>
       <use xlink:href="#DejaVuSans-36" x="448.298828"/>
      </g>
     </g>
    </g>
    <g id="ytick_10">
     <g id="line2d_14">
      <g>
       <use xlink:href="#m7d3e36a0ed" x="144" y="87.722526" style="stroke: #000000; stroke-width: 0.8"/>
      </g>
     </g>
     <g id="text_15">
      <!-- 9.A.76.1.7 -->
      <g transform="translate(85.809375 91.521745) scale(0.1 -0.1)">
       <use xlink:href="#DejaVuSans-39"/>
       <use xlink:href="#DejaVuSans-2e" x="63.623047"/>
       <use xlink:href="#DejaVuSans-41" x="95.410156"/>
       <use xlink:href="#DejaVuSans-2e" x="162.068359"/>
       <use xlink:href="#DejaVuSans-37" x="193.855469"/>
       <use xlink:href="#DejaVuSans-36" x="257.478516"/>
       <use xlink:href="#DejaVuSans-2e" x="321.101562"/>
       <use xlink:href="#DejaVuSans-31" x="352.888672"/>
       <use xlink:href="#DejaVuSans-2e" x="416.511719"/>
       <use xlink:href="#DejaVuSans-37" x="448.298828"/>
      </g>
     </g>
    </g>
    <g id="ytick_11">
     <g id="line2d_15">
      <g>
       <use xlink:href="#m7d3e36a0ed" x="144" y="69.154105" style="stroke: #000000; stroke-width: 0.8"/>
      </g>
     </g>
     <g id="text_16">
      <!-- 9.A.76.1.8 -->
      <g transform="translate(85.809375 72.953324) scale(0.1 -0.1)">
       <defs>
        <path id="DejaVuSans-38" d="M 2034 2216 
Q 1584 2216 1326 1975 
Q 1069 1734 1069 1313 
Q 1069 891 1326 650 
Q 1584 409 2034 409 
Q 2484 409 2743 651 
Q 3003 894 3003 1313 
Q 3003 1734 2745 1975 
Q 2488 2216 2034 2216 
z
M 1403 2484 
Q 997 2584 770 2862 
Q 544 3141 544 3541 
Q 544 4100 942 4425 
Q 1341 4750 2034 4750 
Q 2731 4750 3128 4425 
Q 3525 4100 3525 3541 
Q 3525 3141 3298 2862 
Q 3072 2584 2669 2484 
Q 3125 2378 3379 2068 
Q 3634 1759 3634 1313 
Q 3634 634 3220 271 
Q 2806 -91 2034 -91 
Q 1263 -91 848 271 
Q 434 634 434 1313 
Q 434 1759 690 2068 
Q 947 2378 1403 2484 
z
M 1172 3481 
Q 1172 3119 1398 2916 
Q 1625 2713 2034 2713 
Q 2441 2713 2670 2916 
Q 2900 3119 2900 3481 
Q 2900 3844 2670 4047 
Q 2441 4250 2034 4250 
Q 1625 4250 1398 4047 
Q 1172 3844 1172 3481 
z
" transform="scale(0.015625)"/>
       </defs>
       <use xlink:href="#DejaVuSans-39"/>
       <use xlink:href="#DejaVuSans-2e" x="63.623047"/>
       <use xlink:href="#DejaVuSans-41" x="95.410156"/>
       <use xlink:href="#DejaVuSans-2e" x="162.068359"/>
       <use xlink:href="#DejaVuSans-37" x="193.855469"/>
       <use xlink:href="#DejaVuSans-36" x="257.478516"/>
       <use xlink:href="#DejaVuSans-2e" x="321.101562"/>
       <use xlink:href="#DejaVuSans-31" x="352.888672"/>
       <use xlink:href="#DejaVuSans-2e" x="416.511719"/>
       <use xlink:href="#DejaVuSans-38" x="448.298828"/>
      </g>
     </g>
    </g>
    <g id="ytick_12">
     <g id="line2d_16">
      <g>
       <use xlink:href="#m7d3e36a0ed" x="144" y="50.585684" style="stroke: #000000; stroke-width: 0.8"/>
      </g>
     </g>
     <g id="text_17">
      <!-- 9.A.76.1.9 -->
      <g transform="translate(85.809375 54.384903) scale(0.1 -0.1)">
       <use xlink:href="#DejaVuSans-39"/>
       <use xlink:href="#DejaVuSans-2e" x="63.623047"/>
       <use xlink:href="#DejaVuSans-41" x="95.410156"/>
       <use xlink:href="#DejaVuSans-2e" x="162.068359"/>
       <use xlink:href="#DejaVuSans-37" x="193.855469"/>
       <use xlink:href="#DejaVuSans-36" x="257.478516"/>
       <use xlink:href="#DejaVuSans-2e" x="321.101562"/>
       <use xlink:href="#DejaVuSans-31" x="352.888672"/>
       <use xlink:href="#DejaVuSans-2e" x="416.511719"/>
       <use xlink:href="#DejaVuSans-39" x="448.298828"/>
      </g>
     </g>
    </g>
   </g>
   <g id="patch_146">
    <path d="M 144 269.136 
L 144 36.288 
" style="fill: none; stroke: #000000; stroke-width: 0.8; stroke-linejoin: miter; stroke-linecap: square"/>
   </g>
   <g id="patch_147">
    <path d="M 1036.8 269.136 
L 1036.8 36.288 
" style="fill: none; stroke: #000000; stroke-width: 0.8; stroke-linejoin: miter; stroke-linecap: square"/>
   </g>
   <g id="patch_148">
    <path d="M 144 269.136 
L 1036.8 269.136 
" style="fill: none; stroke: #000000; stroke-width: 0.8; stroke-linejoin: miter; stroke-linecap: square"/>
   </g>
   <g id="patch_149">
    <path d="M 144 36.288 
L 1036.8 36.288 
" style="fill: none; stroke: #000000; stroke-width: 0.8; stroke-linejoin: miter; stroke-linecap: square"/>
   </g>
   <g id="text_18">
    <!-- 9.A.76 Summary -->
    <g transform="translate(540.2325 30.288) scale(0.12 -0.12)">
     <defs>
      <path id="DejaVuSans-20" transform="scale(0.015625)"/>
      <path id="DejaVuSans-53" d="M 3425 4513 
L 3425 3897 
Q 3066 4069 2747 4153 
Q 2428 4238 2131 4238 
Q 1616 4238 1336 4038 
Q 1056 3838 1056 3469 
Q 1056 3159 1242 3001 
Q 1428 2844 1947 2747 
L 2328 2669 
Q 3034 2534 3370 2195 
Q 3706 1856 3706 1288 
Q 3706 609 3251 259 
Q 2797 -91 1919 -91 
Q 1588 -91 1214 -16 
Q 841 59 441 206 
L 441 856 
Q 825 641 1194 531 
Q 1563 422 1919 422 
Q 2459 422 2753 634 
Q 3047 847 3047 1241 
Q 3047 1584 2836 1778 
Q 2625 1972 2144 2069 
L 1759 2144 
Q 1053 2284 737 2584 
Q 422 2884 422 3419 
Q 422 4038 858 4394 
Q 1294 4750 2059 4750 
Q 2388 4750 2728 4690 
Q 3069 4631 3425 4513 
z
" transform="scale(0.015625)"/>
      <path id="DejaVuSans-6d" d="M 3328 2828 
Q 3544 3216 3844 3400 
Q 4144 3584 4550 3584 
Q 5097 3584 5394 3201 
Q 5691 2819 5691 2113 
L 5691 0 
L 5113 0 
L 5113 2094 
Q 5113 2597 4934 2840 
Q 4756 3084 4391 3084 
Q 3944 3084 3684 2787 
Q 3425 2491 3425 1978 
L 3425 0 
L 2847 0 
L 2847 2094 
Q 2847 2600 2669 2842 
Q 2491 3084 2119 3084 
Q 1678 3084 1418 2786 
Q 1159 2488 1159 1978 
L 1159 0 
L 581 0 
L 581 3500 
L 1159 3500 
L 1159 2956 
Q 1356 3278 1631 3431 
Q 1906 3584 2284 3584 
Q 2666 3584 2933 3390 
Q 3200 3197 3328 2828 
z
" transform="scale(0.015625)"/>
      <path id="DejaVuSans-72" d="M 2631 2963 
Q 2534 3019 2420 3045 
Q 2306 3072 2169 3072 
Q 1681 3072 1420 2755 
Q 1159 2438 1159 1844 
L 1159 0 
L 581 0 
L 581 3500 
L 1159 3500 
L 1159 2956 
Q 1341 3275 1631 3429 
Q 1922 3584 2338 3584 
Q 2397 3584 2469 3576 
Q 2541 3569 2628 3553 
L 2631 2963 
z
" transform="scale(0.015625)"/>
      <path id="DejaVuSans-79" d="M 2059 -325 
Q 1816 -950 1584 -1140 
Q 1353 -1331 966 -1331 
L 506 -1331 
L 506 -850 
L 844 -850 
Q 1081 -850 1212 -737 
Q 1344 -625 1503 -206 
L 1606 56 
L 191 3500 
L 800 3500 
L 1894 763 
L 2988 3500 
L 3597 3500 
L 2059 -325 
z
" transform="scale(0.015625)"/>
     </defs>
     <use xlink:href="#DejaVuSans-39"/>
     <use xlink:href="#DejaVuSans-2e" x="63.623047"/>
     <use xlink:href="#DejaVuSans-41" x="95.410156"/>
     <use xlink:href="#DejaVuSans-2e" x="162.068359"/>
     <use xlink:href="#DejaVuSans-37" x="193.855469"/>
     <use xlink:href="#DejaVuSans-36" x="257.478516"/>
     <use xlink:href="#DejaVuSans-20" x="321.101562"/>
     <use xlink:href="#DejaVuSans-53" x="352.888672"/>
     <use xlink:href="#DejaVuSans-75" x="416.365234"/>
     <use xlink:href="#DejaVuSans-6d" x="479.744141"/>
     <use xlink:href="#DejaVuSans-6d" x="577.15625"/>
     <use xlink:href="#DejaVuSans-61" x="674.568359"/>
     <use xlink:href="#DejaVuSans-72" x="735.847656"/>
     <use xlink:href="#DejaVuSans-79" x="776.960938"/>
    </g>
   </g>
  </g>
 </g>
 <defs>
  <clipPath id="p0b4985740b">
   <rect x="144" y="36.288" width="892.8" height="232.848"/>
  </clipPath>
 </defs>
</svg>
