<?xml version="1.0" encoding="utf-8" standalone="no"?>
<!DOCTYPE svg PUBLIC "-//W3C//DTD SVG 1.1//EN"
  "http://www.w3.org/Graphics/SVG/1.1/DTD/svg11.dtd">
<svg xmlns:xlink="http://www.w3.org/1999/xlink" width="1152pt" height="306pt" viewBox="0 0 1152 306" xmlns="http://www.w3.org/2000/svg" version="1.1">
 <metadata>
  <rdf:RDF xmlns:dc="http://purl.org/dc/elements/1.1/" xmlns:cc="http://creativecommons.org/ns#" xmlns:rdf="http://www.w3.org/1999/02/22-rdf-syntax-ns#">
   <cc:Work>
    <dc:type rdf:resource="http://purl.org/dc/dcmitype/StillImage"/>
    <dc:date>2024-10-24T21:53:32.536318</dc:date>
    <dc:format>image/svg+xml</dc:format>
    <dc:creator>
     <cc:Agent>
      <dc:title>Matplotlib v3.8.4, https://matplotlib.org/</dc:title>
     </cc:Agent>
    </dc:creator>
   </cc:Work>
  </rdf:RDF>
 </metadata>
 <defs>
  <style type="text/css">*{stroke-linejoin: round; stroke-linecap: butt}</style>
 </defs>
 <g id="figure_1">
  <g id="patch_1">
   <path d="M 0 306 
L 1152 306 
L 1152 0 
L 0 0 
z
" style="fill: #ffffff"/>
  </g>
  <g id="axes_1">
   <g id="patch_2">
    <path d="M 144 272.34 
L 1036.8 272.34 
L 1036.8 36.72 
L 144 36.72 
z
" style="fill: #ffffff"/>
   </g>
   <g id="patch_3">
    <path d="M 144 258.878125 
L 271.966844 258.878125 
L 271.966844 258.431875 
L 144 258.431875 
z
" clip-path="url(#pa959cb4ca1)" style="fill: #0000ff"/>
   </g>
   <g id="patch_4">
    <path d="M 272.737728 261.63 
L 587.258645 261.63 
L 587.258645 255.68 
L 272.737728 255.68 
z
" clip-path="url(#pa959cb4ca1)" style="fill: #0000ff"/>
   </g>
   <g id="patch_5">
    <path d="M 311.281958 261.63 
L 625.031991 261.63 
L 625.031991 255.68 
L 311.281958 255.68 
z
" clip-path="url(#pa959cb4ca1)" style="fill: #0000ff"/>
   </g>
   <g id="patch_6">
    <path d="M 312.823727 261.63 
L 625.031991 261.63 
L 625.031991 255.68 
L 312.823727 255.68 
z
" clip-path="url(#pa959cb4ca1)" style="fill: #0000ff"/>
   </g>
   <g id="patch_7">
    <path d="M 312.823727 261.63 
L 625.031991 261.63 
L 625.031991 255.68 
L 312.823727 255.68 
z
" clip-path="url(#pa959cb4ca1)" style="fill: #0000ff"/>
   </g>
   <g id="patch_8">
    <path d="M 312.823727 261.63 
L 625.031991 261.63 
L 625.031991 255.68 
L 312.823727 255.68 
z
" clip-path="url(#pa959cb4ca1)" style="fill: #0000ff"/>
   </g>
   <g id="patch_9">
    <path d="M 314.365497 261.63 
L 625.031991 261.63 
L 625.031991 255.68 
L 314.365497 255.68 
z
" clip-path="url(#pa959cb4ca1)" style="fill: #0000ff"/>
   </g>
   <g id="patch_10">
    <path d="M 315.136381 261.63 
L 624.261106 261.63 
L 624.261106 255.68 
L 315.136381 255.68 
z
" clip-path="url(#pa959cb4ca1)" style="fill: #0000ff"/>
   </g>
   <g id="patch_11">
    <path d="M 315.136381 261.63 
L 585.716876 261.63 
L 585.716876 255.68 
L 315.136381 255.68 
z
" clip-path="url(#pa959cb4ca1)" style="fill: #0000ff"/>
   </g>
   <g id="patch_12">
    <path d="M 315.136381 261.63 
L 618.094029 261.63 
L 618.094029 255.68 
L 315.136381 255.68 
z
" clip-path="url(#pa959cb4ca1)" style="fill: #0000ff"/>
   </g>
   <g id="patch_13">
    <path d="M 315.136381 261.63 
L 625.031991 261.63 
L 625.031991 255.68 
L 315.136381 255.68 
z
" clip-path="url(#pa959cb4ca1)" style="fill: #0000ff"/>
   </g>
   <g id="patch_14">
    <path d="M 315.136381 261.63 
L 624.261106 261.63 
L 624.261106 255.68 
L 315.136381 255.68 
z
" clip-path="url(#pa959cb4ca1)" style="fill: #0000ff"/>
   </g>
   <g id="patch_15">
    <path d="M 322.074343 261.63 
L 615.010491 261.63 
L 615.010491 255.68 
L 322.074343 255.68 
z
" clip-path="url(#pa959cb4ca1)" style="fill: #0000ff"/>
   </g>
   <g id="patch_16">
    <path d="M 323.616112 261.63 
L 621.177568 261.63 
L 621.177568 255.68 
L 323.616112 255.68 
z
" clip-path="url(#pa959cb4ca1)" style="fill: #0000ff"/>
   </g>
   <g id="patch_17">
    <path d="M 324.386997 261.63 
L 617.323145 261.63 
L 617.323145 255.68 
L 324.386997 255.68 
z
" clip-path="url(#pa959cb4ca1)" style="fill: #0000ff"/>
   </g>
   <g id="patch_18">
    <path d="M 331.324958 261.63 
L 625.031991 261.63 
L 625.031991 255.68 
L 331.324958 255.68 
z
" clip-path="url(#pa959cb4ca1)" style="fill: #0000ff"/>
   </g>
   <g id="patch_19">
    <path d="M 342.888227 261.63 
L 625.031991 261.63 
L 625.031991 255.68 
L 342.888227 255.68 
z
" clip-path="url(#pa959cb4ca1)" style="fill: #0000ff"/>
   </g>
   <g id="patch_20">
    <path d="M 376.807149 261.63 
L 618.094029 261.63 
L 618.094029 255.68 
L 376.807149 255.68 
z
" clip-path="url(#pa959cb4ca1)" style="fill: #0000ff"/>
   </g>
   <g id="patch_21">
    <path d="M 390.683072 261.63 
L 588.02953 261.63 
L 588.02953 255.68 
L 390.683072 255.68 
z
" clip-path="url(#pa959cb4ca1)" style="fill: #0000ff"/>
   </g>
   <g id="patch_22">
    <path d="M 399.162803 261.63 
L 617.323145 261.63 
L 617.323145 255.68 
L 399.162803 255.68 
z
" clip-path="url(#pa959cb4ca1)" style="fill: #0000ff"/>
   </g>
   <g id="patch_23">
    <path d="M 407.642533 261.63 
L 625.031991 261.63 
L 625.031991 255.68 
L 407.642533 255.68 
z
" clip-path="url(#pa959cb4ca1)" style="fill: #0000ff"/>
   </g>
   <g id="patch_24">
    <path d="M 467.000648 261.63 
L 701.349566 261.63 
L 701.349566 255.68 
L 467.000648 255.68 
z
" clip-path="url(#pa959cb4ca1)" style="fill: #0000ff"/>
   </g>
   <g id="patch_25">
    <path d="M 481.647455 261.63 
L 622.719337 261.63 
L 622.719337 255.68 
L 481.647455 255.68 
z
" clip-path="url(#pa959cb4ca1)" style="fill: #0000ff"/>
   </g>
   <g id="patch_26">
    <path d="M 502.461339 261.63 
L 601.134568 261.63 
L 601.134568 255.68 
L 502.461339 255.68 
z
" clip-path="url(#pa959cb4ca1)" style="fill: #0000ff"/>
   </g>
   <g id="patch_27">
    <path d="M 512.482839 261.63 
L 586.487761 261.63 
L 586.487761 255.68 
L 512.482839 255.68 
z
" clip-path="url(#pa959cb4ca1)" style="fill: #0000ff"/>
   </g>
   <g id="patch_28">
    <path d="M 537.922031 261.63 
L 624.261106 261.63 
L 624.261106 255.68 
L 537.922031 255.68 
z
" clip-path="url(#pa959cb4ca1)" style="fill: #0000ff"/>
   </g>
   <g id="patch_29">
    <path d="M 702.120451 258.878125 
L 706.745758 258.878125 
L 706.745758 258.431875 
L 702.120451 258.431875 
z
" clip-path="url(#pa959cb4ca1)" style="fill: #0000ff"/>
   </g>
   <g id="patch_30">
    <path d="M 144 244.003125 
L 221.08846 244.003125 
L 221.08846 243.556875 
L 144 243.556875 
z
" clip-path="url(#pa959cb4ca1)" style="fill: #0000ff"/>
   </g>
   <g id="patch_31">
    <path d="M 221.859345 246.755 
L 460.833571 246.755 
L 460.833571 240.805 
L 221.859345 240.805 
z
" clip-path="url(#pa959cb4ca1)" style="fill: #0000ff"/>
   </g>
   <g id="patch_32">
    <path d="M 221.859345 246.755 
L 411.496956 246.755 
L 411.496956 240.805 
L 221.859345 240.805 
z
" clip-path="url(#pa959cb4ca1)" style="fill: #0000ff"/>
   </g>
   <g id="patch_33">
    <path d="M 223.401114 246.755 
L 482.41834 246.755 
L 482.41834 240.805 
L 223.401114 240.805 
z
" clip-path="url(#pa959cb4ca1)" style="fill: #0000ff"/>
   </g>
   <g id="patch_34">
    <path d="M 226.484652 246.755 
L 476.251263 246.755 
L 476.251263 240.805 
L 226.484652 240.805 
z
" clip-path="url(#pa959cb4ca1)" style="fill: #0000ff"/>
   </g>
   <g id="patch_35">
    <path d="M 227.255537 246.755 
L 469.313301 246.755 
L 469.313301 240.805 
L 227.255537 240.805 
z
" clip-path="url(#pa959cb4ca1)" style="fill: #0000ff"/>
   </g>
   <g id="patch_36">
    <path d="M 228.026421 246.755 
L 410.726072 246.755 
L 410.726072 240.805 
L 228.026421 240.805 
z
" clip-path="url(#pa959cb4ca1)" style="fill: #0000ff"/>
   </g>
   <g id="patch_37">
    <path d="M 234.193498 246.755 
L 389.912188 246.755 
L 389.912188 240.805 
L 234.193498 240.805 
z
" clip-path="url(#pa959cb4ca1)" style="fill: #0000ff"/>
   </g>
   <g id="patch_38">
    <path d="M 275.821267 246.755 
L 409.955187 246.755 
L 409.955187 240.805 
L 275.821267 240.805 
z
" clip-path="url(#pa959cb4ca1)" style="fill: #0000ff"/>
   </g>
   <g id="patch_39">
    <path d="M 305.114881 246.755 
L 540.234685 246.755 
L 540.234685 240.805 
L 305.114881 240.805 
z
" clip-path="url(#pa959cb4ca1)" style="fill: #0000ff"/>
   </g>
   <g id="patch_40">
    <path d="M 541.005569 244.003125 
L 541.005569 244.003125 
L 541.005569 243.556875 
L 541.005569 243.556875 
z
" clip-path="url(#pa959cb4ca1)" style="fill: #0000ff"/>
   </g>
   <g id="patch_41">
    <path d="M 144 231.88 
L 462.37534 231.88 
L 462.37534 225.93 
L 144 225.93 
z
" clip-path="url(#pa959cb4ca1)" style="fill: #0000ff"/>
   </g>
   <g id="patch_42">
    <path d="M 144.770885 231.88 
L 436.165264 231.88 
L 436.165264 225.93 
L 144.770885 225.93 
z
" clip-path="url(#pa959cb4ca1)" style="fill: #0000ff"/>
   </g>
   <g id="patch_43">
    <path d="M 146.312654 231.88 
L 447.728533 231.88 
L 447.728533 225.93 
L 146.312654 225.93 
z
" clip-path="url(#pa959cb4ca1)" style="fill: #0000ff"/>
   </g>
   <g id="patch_44">
    <path d="M 146.312654 231.88 
L 427.685533 231.88 
L 427.685533 225.93 
L 146.312654 225.93 
z
" clip-path="url(#pa959cb4ca1)" style="fill: #0000ff"/>
   </g>
   <g id="patch_45">
    <path d="M 146.312654 231.88 
L 386.828649 231.88 
L 386.828649 225.93 
L 146.312654 225.93 
z
" clip-path="url(#pa959cb4ca1)" style="fill: #0000ff"/>
   </g>
   <g id="patch_46">
    <path d="M 147.854423 231.88 
L 457.750032 231.88 
L 457.750032 225.93 
L 147.854423 225.93 
z
" clip-path="url(#pa959cb4ca1)" style="fill: #0000ff"/>
   </g>
   <g id="patch_47">
    <path d="M 148.625308 231.88 
L 460.062686 231.88 
L 460.062686 225.93 
L 148.625308 225.93 
z
" clip-path="url(#pa959cb4ca1)" style="fill: #0000ff"/>
   </g>
   <g id="patch_48">
    <path d="M 148.625308 231.88 
L 459.291802 231.88 
L 459.291802 225.93 
L 148.625308 225.93 
z
" clip-path="url(#pa959cb4ca1)" style="fill: #0000ff"/>
   </g>
   <g id="patch_49">
    <path d="M 148.625308 231.88 
L 460.833571 231.88 
L 460.833571 225.93 
L 148.625308 225.93 
z
" clip-path="url(#pa959cb4ca1)" style="fill: #0000ff"/>
   </g>
   <g id="patch_50">
    <path d="M 150.167077 231.88 
L 459.291802 231.88 
L 459.291802 225.93 
L 150.167077 225.93 
z
" clip-path="url(#pa959cb4ca1)" style="fill: #0000ff"/>
   </g>
   <g id="patch_51">
    <path d="M 157.105038 231.88 
L 487.043647 231.88 
L 487.043647 225.93 
L 157.105038 225.93 
z
" clip-path="url(#pa959cb4ca1)" style="fill: #0000ff"/>
   </g>
   <g id="patch_52">
    <path d="M 158.646807 231.88 
L 507.857531 231.88 
L 507.857531 225.93 
L 158.646807 225.93 
z
" clip-path="url(#pa959cb4ca1)" style="fill: #0000ff"/>
   </g>
   <g id="patch_53">
    <path d="M 165.584769 231.88 
L 433.85261 231.88 
L 433.85261 225.93 
L 165.584769 225.93 
z
" clip-path="url(#pa959cb4ca1)" style="fill: #0000ff"/>
   </g>
   <g id="patch_54">
    <path d="M 180.231576 231.88 
L 446.957648 231.88 
L 446.957648 225.93 
L 180.231576 225.93 
z
" clip-path="url(#pa959cb4ca1)" style="fill: #0000ff"/>
   </g>
   <g id="patch_55">
    <path d="M 182.54423 231.88 
L 456.208263 231.88 
L 456.208263 225.93 
L 182.54423 225.93 
z
" clip-path="url(#pa959cb4ca1)" style="fill: #0000ff"/>
   </g>
   <g id="patch_56">
    <path d="M 184.856884 231.88 
L 435.394379 231.88 
L 435.394379 225.93 
L 184.856884 225.93 
z
" clip-path="url(#pa959cb4ca1)" style="fill: #0000ff"/>
   </g>
   <g id="patch_57">
    <path d="M 216.463152 231.88 
L 409.955187 231.88 
L 409.955187 225.93 
L 216.463152 225.93 
z
" clip-path="url(#pa959cb4ca1)" style="fill: #0000ff"/>
   </g>
   <g id="patch_58">
    <path d="M 218.004922 231.88 
L 460.833571 231.88 
L 460.833571 225.93 
L 218.004922 225.93 
z
" clip-path="url(#pa959cb4ca1)" style="fill: #0000ff"/>
   </g>
   <g id="patch_59">
    <path d="M 218.775806 231.88 
L 445.415879 231.88 
L 445.415879 225.93 
L 218.775806 225.93 
z
" clip-path="url(#pa959cb4ca1)" style="fill: #0000ff"/>
   </g>
   <g id="patch_60">
    <path d="M 218.775806 231.88 
L 463.917109 231.88 
L 463.917109 225.93 
L 218.775806 225.93 
z
" clip-path="url(#pa959cb4ca1)" style="fill: #0000ff"/>
   </g>
   <g id="patch_61">
    <path d="M 232.651729 231.88 
L 406.100764 231.88 
L 406.100764 225.93 
L 232.651729 225.93 
z
" clip-path="url(#pa959cb4ca1)" style="fill: #0000ff"/>
   </g>
   <g id="patch_62">
    <path d="M 260.403575 231.88 
L 455.437379 231.88 
L 455.437379 225.93 
L 260.403575 225.93 
z
" clip-path="url(#pa959cb4ca1)" style="fill: #0000ff"/>
   </g>
   <g id="patch_63">
    <path d="M 261.174459 231.88 
L 413.038726 231.88 
L 413.038726 225.93 
L 261.174459 225.93 
z
" clip-path="url(#pa959cb4ca1)" style="fill: #0000ff"/>
   </g>
   <g id="patch_64">
    <path d="M 268.112421 231.88 
L 398.391918 231.88 
L 398.391918 225.93 
L 268.112421 225.93 
z
" clip-path="url(#pa959cb4ca1)" style="fill: #0000ff"/>
   </g>
   <g id="patch_65">
    <path d="M 272.737728 231.88 
L 382.974226 231.88 
L 382.974226 225.93 
L 272.737728 225.93 
z
" clip-path="url(#pa959cb4ca1)" style="fill: #0000ff"/>
   </g>
   <g id="patch_66">
    <path d="M 291.238959 231.88 
L 544.859992 231.88 
L 544.859992 225.93 
L 291.238959 225.93 
z
" clip-path="url(#pa959cb4ca1)" style="fill: #0000ff"/>
   </g>
   <g id="patch_67">
    <path d="M 293.551612 231.88 
L 404.558995 231.88 
L 404.558995 225.93 
L 293.551612 225.93 
z
" clip-path="url(#pa959cb4ca1)" style="fill: #0000ff"/>
   </g>
   <g id="patch_68">
    <path d="M 343.659112 231.88 
L 448.499417 231.88 
L 448.499417 225.93 
L 343.659112 225.93 
z
" clip-path="url(#pa959cb4ca1)" style="fill: #0000ff"/>
   </g>
   <g id="patch_69">
    <path d="M 545.630877 229.128125 
L 570.299184 229.128125 
L 570.299184 228.681875 
L 545.630877 228.681875 
z
" clip-path="url(#pa959cb4ca1)" style="fill: #0000ff"/>
   </g>
   <g id="patch_70">
    <path d="M 144 214.253125 
L 311.281958 214.253125 
L 311.281958 213.806875 
L 144 213.806875 
z
" clip-path="url(#pa959cb4ca1)" style="fill: #0000ff"/>
   </g>
   <g id="patch_71">
    <path d="M 312.052843 217.005 
L 522.504339 217.005 
L 522.504339 211.055 
L 312.052843 211.055 
z
" clip-path="url(#pa959cb4ca1)" style="fill: #0000ff"/>
   </g>
   <g id="patch_72">
    <path d="M 325.928766 217.005 
L 519.4208 217.005 
L 519.4208 211.055 
L 325.928766 211.055 
z
" clip-path="url(#pa959cb4ca1)" style="fill: #0000ff"/>
   </g>
   <g id="patch_73">
    <path d="M 463.917109 217.005 
L 712.141951 217.005 
L 712.141951 211.055 
L 463.917109 211.055 
z
" clip-path="url(#pa959cb4ca1)" style="fill: #0000ff"/>
   </g>
   <g id="patch_74">
    <path d="M 712.912835 214.253125 
L 726.788758 214.253125 
L 726.788758 213.806875 
L 712.912835 213.806875 
z
" clip-path="url(#pa959cb4ca1)" style="fill: #0000ff"/>
   </g>
   <g id="patch_75">
    <path d="M 144 199.378125 
L 238.047921 199.378125 
L 238.047921 198.931875 
L 144 198.931875 
z
" clip-path="url(#pa959cb4ca1)" style="fill: #0000ff"/>
   </g>
   <g id="patch_76">
    <path d="M 238.818806 202.13 
L 525.587877 202.13 
L 525.587877 196.18 
L 238.818806 196.18 
z
" clip-path="url(#pa959cb4ca1)" style="fill: #0000ff"/>
   </g>
   <g id="patch_77">
    <path d="M 244.214998 202.13 
L 489.356301 202.13 
L 489.356301 196.18 
L 244.214998 196.18 
z
" clip-path="url(#pa959cb4ca1)" style="fill: #0000ff"/>
   </g>
   <g id="patch_78">
    <path d="M 244.985883 202.13 
L 502.461339 202.13 
L 502.461339 196.18 
L 244.985883 196.18 
z
" clip-path="url(#pa959cb4ca1)" style="fill: #0000ff"/>
   </g>
   <g id="patch_79">
    <path d="M 276.592151 202.13 
L 386.057765 202.13 
L 386.057765 196.18 
L 276.592151 196.18 
z
" clip-path="url(#pa959cb4ca1)" style="fill: #0000ff"/>
   </g>
   <g id="patch_80">
    <path d="M 461.604455 202.13 
L 544.859992 202.13 
L 544.859992 196.18 
L 461.604455 196.18 
z
" clip-path="url(#pa959cb4ca1)" style="fill: #0000ff"/>
   </g>
   <g id="patch_81">
    <path d="M 545.630877 199.378125 
L 560.277684 199.378125 
L 560.277684 198.931875 
L 545.630877 198.931875 
z
" clip-path="url(#pa959cb4ca1)" style="fill: #0000ff"/>
   </g>
   <g id="patch_82">
    <path d="M 144 184.503125 
L 397.621034 184.503125 
L 397.621034 184.056875 
L 144 184.056875 
z
" clip-path="url(#pa959cb4ca1)" style="fill: #0000ff"/>
   </g>
   <g id="patch_83">
    <path d="M 398.391918 187.255 
L 723.70522 187.255 
L 723.70522 181.305 
L 398.391918 181.305 
z
" clip-path="url(#pa959cb4ca1)" style="fill: #0000ff"/>
   </g>
   <g id="patch_84">
    <path d="M 408.413418 187.255 
L 714.454604 187.255 
L 714.454604 181.305 
L 408.413418 181.305 
z
" clip-path="url(#pa959cb4ca1)" style="fill: #0000ff"/>
   </g>
   <g id="patch_85">
    <path d="M 409.955187 187.255 
L 704.433105 187.255 
L 704.433105 181.305 
L 409.955187 181.305 
z
" clip-path="url(#pa959cb4ca1)" style="fill: #0000ff"/>
   </g>
   <g id="patch_86">
    <path d="M 414.580495 187.255 
L 730.643181 187.255 
L 730.643181 181.305 
L 414.580495 181.305 
z
" clip-path="url(#pa959cb4ca1)" style="fill: #0000ff"/>
   </g>
   <g id="patch_87">
    <path d="M 415.351379 187.255 
L 705.974874 187.255 
L 705.974874 181.305 
L 415.351379 181.305 
z
" clip-path="url(#pa959cb4ca1)" style="fill: #0000ff"/>
   </g>
   <g id="patch_88">
    <path d="M 433.85261 187.255 
L 702.120451 187.255 
L 702.120451 181.305 
L 433.85261 181.305 
z
" clip-path="url(#pa959cb4ca1)" style="fill: #0000ff"/>
   </g>
   <g id="patch_89">
    <path d="M 433.85261 187.255 
L 717.538143 187.255 
L 717.538143 181.305 
L 433.85261 181.305 
z
" clip-path="url(#pa959cb4ca1)" style="fill: #0000ff"/>
   </g>
   <g id="patch_90">
    <path d="M 433.85261 187.255 
L 739.893796 187.255 
L 739.893796 181.305 
L 433.85261 181.305 
z
" clip-path="url(#pa959cb4ca1)" style="fill: #0000ff"/>
   </g>
   <g id="patch_91">
    <path d="M 434.623494 187.255 
L 652.783836 187.255 
L 652.783836 181.305 
L 434.623494 181.305 
z
" clip-path="url(#pa959cb4ca1)" style="fill: #0000ff"/>
   </g>
   <g id="patch_92">
    <path d="M 436.165264 187.255 
L 753.769719 187.255 
L 753.769719 181.305 
L 436.165264 181.305 
z
" clip-path="url(#pa959cb4ca1)" style="fill: #0000ff"/>
   </g>
   <g id="patch_93">
    <path d="M 437.707033 187.255 
L 702.120451 187.255 
L 702.120451 181.305 
L 437.707033 181.305 
z
" clip-path="url(#pa959cb4ca1)" style="fill: #0000ff"/>
   </g>
   <g id="patch_94">
    <path d="M 440.019687 187.255 
L 571.840953 187.255 
L 571.840953 181.305 
L 440.019687 181.305 
z
" clip-path="url(#pa959cb4ca1)" style="fill: #0000ff"/>
   </g>
   <g id="patch_95">
    <path d="M 443.87411 187.255 
L 646.616759 187.255 
L 646.616759 181.305 
L 443.87411 181.305 
z
" clip-path="url(#pa959cb4ca1)" style="fill: #0000ff"/>
   </g>
   <g id="patch_96">
    <path d="M 445.415879 187.255 
L 712.912835 187.255 
L 712.912835 181.305 
L 445.415879 181.305 
z
" clip-path="url(#pa959cb4ca1)" style="fill: #0000ff"/>
   </g>
   <g id="patch_97">
    <path d="M 453.124725 187.255 
L 703.66222 187.255 
L 703.66222 181.305 
L 453.124725 181.305 
z
" clip-path="url(#pa959cb4ca1)" style="fill: #0000ff"/>
   </g>
   <g id="patch_98">
    <path d="M 473.167724 187.255 
L 699.036912 187.255 
L 699.036912 181.305 
L 473.167724 181.305 
z
" clip-path="url(#pa959cb4ca1)" style="fill: #0000ff"/>
   </g>
   <g id="patch_99">
    <path d="M 497.065147 187.255 
L 702.120451 187.255 
L 702.120451 181.305 
L 497.065147 181.305 
z
" clip-path="url(#pa959cb4ca1)" style="fill: #0000ff"/>
   </g>
   <g id="patch_100">
    <path d="M 574.153607 187.255 
L 678.223028 187.255 
L 678.223028 181.305 
L 574.153607 181.305 
z
" clip-path="url(#pa959cb4ca1)" style="fill: #0000ff"/>
   </g>
   <g id="patch_101">
    <path d="M 590.342184 187.255 
L 785.375988 187.255 
L 785.375988 181.305 
L 590.342184 181.305 
z
" clip-path="url(#pa959cb4ca1)" style="fill: #0000ff"/>
   </g>
   <g id="patch_102">
    <path d="M 786.146872 184.503125 
L 800.79368 184.503125 
L 800.79368 184.056875 
L 786.146872 184.056875 
z
" clip-path="url(#pa959cb4ca1)" style="fill: #0000ff"/>
   </g>
   <g id="patch_103">
    <path d="M 144 169.628125 
L 318.21992 169.628125 
L 318.21992 169.181875 
L 144 169.181875 
z
" clip-path="url(#pa959cb4ca1)" style="fill: #0000ff"/>
   </g>
   <g id="patch_104">
    <path d="M 318.990804 172.38 
L 565.673876 172.38 
L 565.673876 166.43 
L 318.990804 166.43 
z
" clip-path="url(#pa959cb4ca1)" style="fill: #0000ff"/>
   </g>
   <g id="patch_105">
    <path d="M 319.761689 172.38 
L 641.220567 172.38 
L 641.220567 166.43 
L 319.761689 166.43 
z
" clip-path="url(#pa959cb4ca1)" style="fill: #0000ff"/>
   </g>
   <g id="patch_106">
    <path d="M 329.783189 172.38 
L 678.223028 172.38 
L 678.223028 166.43 
L 329.783189 166.43 
z
" clip-path="url(#pa959cb4ca1)" style="fill: #0000ff"/>
   </g>
   <g id="patch_107">
    <path d="M 329.783189 172.38 
L 645.07499 172.38 
L 645.07499 166.43 
L 329.783189 166.43 
z
" clip-path="url(#pa959cb4ca1)" style="fill: #0000ff"/>
   </g>
   <g id="patch_108">
    <path d="M 331.324958 172.38 
L 640.449683 172.38 
L 640.449683 166.43 
L 331.324958 166.43 
z
" clip-path="url(#pa959cb4ca1)" style="fill: #0000ff"/>
   </g>
   <g id="patch_109">
    <path d="M 331.324958 172.38 
L 412.267841 172.38 
L 412.267841 166.43 
L 331.324958 166.43 
z
" clip-path="url(#pa959cb4ca1)" style="fill: #0000ff"/>
   </g>
   <g id="patch_110">
    <path d="M 335.950266 172.38 
L 598.821914 172.38 
L 598.821914 166.43 
L 335.950266 166.43 
z
" clip-path="url(#pa959cb4ca1)" style="fill: #0000ff"/>
   </g>
   <g id="patch_111">
    <path d="M 344.429996 172.38 
L 640.449683 172.38 
L 640.449683 166.43 
L 344.429996 166.43 
z
" clip-path="url(#pa959cb4ca1)" style="fill: #0000ff"/>
   </g>
   <g id="patch_112">
    <path d="M 358.305919 172.38 
L 601.134568 172.38 
L 601.134568 166.43 
L 358.305919 166.43 
z
" clip-path="url(#pa959cb4ca1)" style="fill: #0000ff"/>
   </g>
   <g id="patch_113">
    <path d="M 362.931227 172.38 
L 475.480378 172.38 
L 475.480378 166.43 
L 362.931227 166.43 
z
" clip-path="url(#pa959cb4ca1)" style="fill: #0000ff"/>
   </g>
   <g id="patch_114">
    <path d="M 371.410957 172.38 
L 609.614299 172.38 
L 609.614299 166.43 
L 371.410957 166.43 
z
" clip-path="url(#pa959cb4ca1)" style="fill: #0000ff"/>
   </g>
   <g id="patch_115">
    <path d="M 378.348919 172.38 
L 614.239606 172.38 
L 614.239606 166.43 
L 378.348919 166.43 
z
" clip-path="url(#pa959cb4ca1)" style="fill: #0000ff"/>
   </g>
   <g id="patch_116">
    <path d="M 404.558995 172.38 
L 580.320684 172.38 
L 580.320684 166.43 
L 404.558995 166.43 
z
" clip-path="url(#pa959cb4ca1)" style="fill: #0000ff"/>
   </g>
   <g id="patch_117">
    <path d="M 416.122264 172.38 
L 625.802875 172.38 
L 625.802875 166.43 
L 416.122264 166.43 
z
" clip-path="url(#pa959cb4ca1)" style="fill: #0000ff"/>
   </g>
   <g id="patch_118">
    <path d="M 504.773993 172.38 
L 668.972413 172.38 
L 668.972413 166.43 
L 504.773993 166.43 
z
" clip-path="url(#pa959cb4ca1)" style="fill: #0000ff"/>
   </g>
   <g id="patch_119">
    <path d="M 678.993913 169.628125 
L 688.244528 169.628125 
L 688.244528 169.181875 
L 678.993913 169.181875 
z
" clip-path="url(#pa959cb4ca1)" style="fill: #0000ff"/>
   </g>
   <g id="patch_120">
    <path d="M 144 154.753125 
L 144 154.753125 
L 144 154.306875 
L 144 154.306875 
z
" clip-path="url(#pa959cb4ca1)" style="fill: #0000ff"/>
   </g>
   <g id="patch_121">
    <path d="M 144.770885 157.505 
L 403.78811 157.505 
L 403.78811 151.555 
L 144.770885 151.555 
z
" clip-path="url(#pa959cb4ca1)" style="fill: #0000ff"/>
   </g>
   <g id="patch_122">
    <path d="M 144.770885 157.505 
L 416.893149 157.505 
L 416.893149 151.555 
L 144.770885 151.555 
z
" clip-path="url(#pa959cb4ca1)" style="fill: #0000ff"/>
   </g>
   <g id="patch_123">
    <path d="M 149.396192 157.505 
L 406.100764 157.505 
L 406.100764 151.555 
L 149.396192 151.555 
z
" clip-path="url(#pa959cb4ca1)" style="fill: #0000ff"/>
   </g>
   <g id="patch_124">
    <path d="M 150.937961 157.505 
L 414.580495 157.505 
L 414.580495 151.555 
L 150.937961 151.555 
z
" clip-path="url(#pa959cb4ca1)" style="fill: #0000ff"/>
   </g>
   <g id="patch_125">
    <path d="M 151.708846 157.505 
L 368.327419 157.505 
L 368.327419 151.555 
L 151.708846 151.555 
z
" clip-path="url(#pa959cb4ca1)" style="fill: #0000ff"/>
   </g>
   <g id="patch_126">
    <path d="M 152.479731 157.505 
L 418.434918 157.505 
L 418.434918 151.555 
L 152.479731 151.555 
z
" clip-path="url(#pa959cb4ca1)" style="fill: #0000ff"/>
   </g>
   <g id="patch_127">
    <path d="M 152.479731 157.505 
L 406.871649 157.505 
L 406.871649 151.555 
L 152.479731 151.555 
z
" clip-path="url(#pa959cb4ca1)" style="fill: #0000ff"/>
   </g>
   <g id="patch_128">
    <path d="M 154.0215 157.505 
L 564.132107 157.505 
L 564.132107 151.555 
L 154.0215 151.555 
z
" clip-path="url(#pa959cb4ca1)" style="fill: #0000ff"/>
   </g>
   <g id="patch_129">
    <path d="M 154.792384 157.505 
L 407.642533 157.505 
L 407.642533 151.555 
L 154.792384 151.555 
z
" clip-path="url(#pa959cb4ca1)" style="fill: #0000ff"/>
   </g>
   <g id="patch_130">
    <path d="M 158.646807 157.505 
L 423.060225 157.505 
L 423.060225 151.555 
L 158.646807 151.555 
z
" clip-path="url(#pa959cb4ca1)" style="fill: #0000ff"/>
   </g>
   <g id="patch_131">
    <path d="M 163.272115 157.505 
L 416.893149 157.505 
L 416.893149 151.555 
L 163.272115 151.555 
z
" clip-path="url(#pa959cb4ca1)" style="fill: #0000ff"/>
   </g>
   <g id="patch_132">
    <path d="M 164.043 157.505 
L 397.621034 157.505 
L 397.621034 151.555 
L 164.043 151.555 
z
" clip-path="url(#pa959cb4ca1)" style="fill: #0000ff"/>
   </g>
   <g id="patch_133">
    <path d="M 169.439192 157.505 
L 416.893149 157.505 
L 416.893149 151.555 
L 169.439192 151.555 
z
" clip-path="url(#pa959cb4ca1)" style="fill: #0000ff"/>
   </g>
   <g id="patch_134">
    <path d="M 173.293615 157.505 
L 421.518456 157.505 
L 421.518456 151.555 
L 173.293615 151.555 
z
" clip-path="url(#pa959cb4ca1)" style="fill: #0000ff"/>
   </g>
   <g id="patch_135">
    <path d="M 174.064499 157.505 
L 409.955187 157.505 
L 409.955187 151.555 
L 174.064499 151.555 
z
" clip-path="url(#pa959cb4ca1)" style="fill: #0000ff"/>
   </g>
   <g id="patch_136">
    <path d="M 175.606269 157.505 
L 362.931227 157.505 
L 362.931227 151.555 
L 175.606269 151.555 
z
" clip-path="url(#pa959cb4ca1)" style="fill: #0000ff"/>
   </g>
   <g id="patch_137">
    <path d="M 180.231576 157.505 
L 403.78811 157.505 
L 403.78811 151.555 
L 180.231576 151.555 
z
" clip-path="url(#pa959cb4ca1)" style="fill: #0000ff"/>
   </g>
   <g id="patch_138">
    <path d="M 180.231576 157.505 
L 409.184303 157.505 
L 409.184303 151.555 
L 180.231576 151.555 
z
" clip-path="url(#pa959cb4ca1)" style="fill: #0000ff"/>
   </g>
   <g id="patch_139">
    <path d="M 185.627768 157.505 
L 406.100764 157.505 
L 406.100764 151.555 
L 185.627768 151.555 
z
" clip-path="url(#pa959cb4ca1)" style="fill: #0000ff"/>
   </g>
   <g id="patch_140">
    <path d="M 193.336614 157.505 
L 352.909727 157.505 
L 352.909727 151.555 
L 193.336614 151.555 
z
" clip-path="url(#pa959cb4ca1)" style="fill: #0000ff"/>
   </g>
   <g id="patch_141">
    <path d="M 194.878384 157.505 
L 431.539956 157.505 
L 431.539956 151.555 
L 194.878384 151.555 
z
" clip-path="url(#pa959cb4ca1)" style="fill: #0000ff"/>
   </g>
   <g id="patch_142">
    <path d="M 194.878384 157.505 
L 352.909727 157.505 
L 352.909727 151.555 
L 194.878384 151.555 
z
" clip-path="url(#pa959cb4ca1)" style="fill: #0000ff"/>
   </g>
   <g id="patch_143">
    <path d="M 195.649268 157.505 
L 409.184303 157.505 
L 409.184303 151.555 
L 195.649268 151.555 
z
" clip-path="url(#pa959cb4ca1)" style="fill: #0000ff"/>
   </g>
   <g id="patch_144">
    <path d="M 213.379614 157.505 
L 411.496956 157.505 
L 411.496956 151.555 
L 213.379614 151.555 
z
" clip-path="url(#pa959cb4ca1)" style="fill: #0000ff"/>
   </g>
   <g id="patch_145">
    <path d="M 229.568191 157.505 
L 345.200881 157.505 
L 345.200881 151.555 
L 229.568191 151.555 
z
" clip-path="url(#pa959cb4ca1)" style="fill: #0000ff"/>
   </g>
   <g id="patch_146">
    <path d="M 242.673229 157.505 
L 345.971765 157.505 
L 345.971765 151.555 
L 242.673229 151.555 
z
" clip-path="url(#pa959cb4ca1)" style="fill: #0000ff"/>
   </g>
   <g id="patch_147">
    <path d="M 247.298536 157.505 
L 399.933687 157.505 
L 399.933687 151.555 
L 247.298536 151.555 
z
" clip-path="url(#pa959cb4ca1)" style="fill: #0000ff"/>
   </g>
   <g id="patch_148">
    <path d="M 270.425074 157.505 
L 366.014765 157.505 
L 366.014765 151.555 
L 270.425074 151.555 
z
" clip-path="url(#pa959cb4ca1)" style="fill: #0000ff"/>
   </g>
   <g id="patch_149">
    <path d="M 283.530113 157.505 
L 363.702111 157.505 
L 363.702111 151.555 
L 283.530113 151.555 
z
" clip-path="url(#pa959cb4ca1)" style="fill: #0000ff"/>
   </g>
   <g id="patch_150">
    <path d="M 315.907266 157.505 
L 405.32988 157.505 
L 405.32988 151.555 
L 315.907266 151.555 
z
" clip-path="url(#pa959cb4ca1)" style="fill: #0000ff"/>
   </g>
   <g id="patch_151">
    <path d="M 564.902992 154.753125 
L 608.072529 154.753125 
L 608.072529 154.306875 
L 564.902992 154.306875 
z
" clip-path="url(#pa959cb4ca1)" style="fill: #0000ff"/>
   </g>
   <g id="patch_152">
    <path d="M 144 139.878125 
L 152.479731 139.878125 
L 152.479731 139.431875 
L 144 139.431875 
z
" clip-path="url(#pa959cb4ca1)" style="fill: #0000ff"/>
   </g>
   <g id="patch_153">
    <path d="M 153.250615 142.63 
L 561.819453 142.63 
L 561.819453 136.68 
L 153.250615 136.68 
z
" clip-path="url(#pa959cb4ca1)" style="fill: #0000ff"/>
   </g>
   <g id="patch_154">
    <path d="M 155.563269 142.63 
L 482.41834 142.63 
L 482.41834 136.68 
L 155.563269 136.68 
z
" clip-path="url(#pa959cb4ca1)" style="fill: #0000ff"/>
   </g>
   <g id="patch_155">
    <path d="M 155.563269 142.63 
L 558.735915 142.63 
L 558.735915 136.68 
L 155.563269 136.68 
z
" clip-path="url(#pa959cb4ca1)" style="fill: #0000ff"/>
   </g>
   <g id="patch_156">
    <path d="M 157.105038 142.63 
L 372.952726 142.63 
L 372.952726 136.68 
L 157.105038 136.68 
z
" clip-path="url(#pa959cb4ca1)" style="fill: #0000ff"/>
   </g>
   <g id="patch_157">
    <path d="M 166.355653 142.63 
L 561.048569 142.63 
L 561.048569 136.68 
L 166.355653 136.68 
z
" clip-path="url(#pa959cb4ca1)" style="fill: #0000ff"/>
   </g>
   <g id="patch_158">
    <path d="M 196.420153 142.63 
L 464.687994 142.63 
L 464.687994 136.68 
L 196.420153 136.68 
z
" clip-path="url(#pa959cb4ca1)" style="fill: #0000ff"/>
   </g>
   <g id="patch_159">
    <path d="M 198.732807 142.63 
L 369.869188 142.63 
L 369.869188 136.68 
L 198.732807 136.68 
z
" clip-path="url(#pa959cb4ca1)" style="fill: #0000ff"/>
   </g>
   <g id="patch_160">
    <path d="M 199.503691 142.63 
L 606.53076 142.63 
L 606.53076 136.68 
L 199.503691 136.68 
z
" clip-path="url(#pa959cb4ca1)" style="fill: #0000ff"/>
   </g>
   <g id="patch_161">
    <path d="M 201.04546 142.63 
L 351.367958 142.63 
L 351.367958 136.68 
L 201.04546 136.68 
z
" clip-path="url(#pa959cb4ca1)" style="fill: #0000ff"/>
   </g>
   <g id="patch_162">
    <path d="M 205.670768 142.63 
L 384.515995 142.63 
L 384.515995 136.68 
L 205.670768 136.68 
z
" clip-path="url(#pa959cb4ca1)" style="fill: #0000ff"/>
   </g>
   <g id="patch_163">
    <path d="M 215.692268 142.63 
L 482.41834 142.63 
L 482.41834 136.68 
L 215.692268 136.68 
z
" clip-path="url(#pa959cb4ca1)" style="fill: #0000ff"/>
   </g>
   <g id="patch_164">
    <path d="M 224.171998 142.63 
L 406.871649 142.63 
L 406.871649 136.68 
L 224.171998 136.68 
z
" clip-path="url(#pa959cb4ca1)" style="fill: #0000ff"/>
   </g>
   <g id="patch_165">
    <path d="M 224.942883 142.63 
L 347.513535 142.63 
L 347.513535 136.68 
L 224.942883 136.68 
z
" clip-path="url(#pa959cb4ca1)" style="fill: #0000ff"/>
   </g>
   <g id="patch_166">
    <path d="M 225.713768 142.63 
L 557.96503 142.63 
L 557.96503 136.68 
L 225.713768 136.68 
z
" clip-path="url(#pa959cb4ca1)" style="fill: #0000ff"/>
   </g>
   <g id="patch_167">
    <path d="M 227.255537 142.63 
L 604.218106 142.63 
L 604.218106 136.68 
L 227.255537 136.68 
z
" clip-path="url(#pa959cb4ca1)" style="fill: #0000ff"/>
   </g>
   <g id="patch_168">
    <path d="M 227.255537 142.63 
L 486.272763 142.63 
L 486.272763 136.68 
L 227.255537 136.68 
z
" clip-path="url(#pa959cb4ca1)" style="fill: #0000ff"/>
   </g>
   <g id="patch_169">
    <path d="M 229.568191 142.63 
L 550.256184 142.63 
L 550.256184 136.68 
L 229.568191 136.68 
z
" clip-path="url(#pa959cb4ca1)" style="fill: #0000ff"/>
   </g>
   <g id="patch_170">
    <path d="M 230.339075 142.63 
L 496.294262 142.63 
L 496.294262 136.68 
L 230.339075 136.68 
z
" clip-path="url(#pa959cb4ca1)" style="fill: #0000ff"/>
   </g>
   <g id="patch_171">
    <path d="M 230.339075 142.63 
L 341.346458 142.63 
L 341.346458 136.68 
L 230.339075 136.68 
z
" clip-path="url(#pa959cb4ca1)" style="fill: #0000ff"/>
   </g>
   <g id="patch_172">
    <path d="M 231.10996 142.63 
L 380.661572 142.63 
L 380.661572 136.68 
L 231.10996 136.68 
z
" clip-path="url(#pa959cb4ca1)" style="fill: #0000ff"/>
   </g>
   <g id="patch_173">
    <path d="M 232.651729 142.63 
L 566.444761 142.63 
L 566.444761 136.68 
L 232.651729 136.68 
z
" clip-path="url(#pa959cb4ca1)" style="fill: #0000ff"/>
   </g>
   <g id="patch_174">
    <path d="M 239.58969 142.63 
L 423.83111 142.63 
L 423.83111 136.68 
L 239.58969 136.68 
z
" clip-path="url(#pa959cb4ca1)" style="fill: #0000ff"/>
   </g>
   <g id="patch_175">
    <path d="M 241.902344 142.63 
L 495.523378 142.63 
L 495.523378 136.68 
L 241.902344 136.68 
z
" clip-path="url(#pa959cb4ca1)" style="fill: #0000ff"/>
   </g>
   <g id="patch_176">
    <path d="M 249.61119 142.63 
L 429.998187 142.63 
L 429.998187 136.68 
L 249.61119 136.68 
z
" clip-path="url(#pa959cb4ca1)" style="fill: #0000ff"/>
   </g>
   <g id="patch_177">
    <path d="M 464.687994 142.63 
L 639.678798 142.63 
L 639.678798 136.68 
L 464.687994 136.68 
z
" clip-path="url(#pa959cb4ca1)" style="fill: #0000ff"/>
   </g>
   <g id="patch_178">
    <path d="M 640.449683 139.878125 
L 672.826836 139.878125 
L 672.826836 139.431875 
L 640.449683 139.431875 
z
" clip-path="url(#pa959cb4ca1)" style="fill: #0000ff"/>
   </g>
   <g id="patch_179">
    <path d="M 144 125.003125 
L 153.250615 125.003125 
L 153.250615 124.556875 
L 144 124.556875 
z
" clip-path="url(#pa959cb4ca1)" style="fill: #0000ff"/>
   </g>
   <g id="patch_180">
    <path d="M 154.0215 127.755 
L 502.461339 127.755 
L 502.461339 121.805 
L 154.0215 121.805 
z
" clip-path="url(#pa959cb4ca1)" style="fill: #0000ff"/>
   </g>
   <g id="patch_181">
    <path d="M 154.0215 127.755 
L 581.091568 127.755 
L 581.091568 121.805 
L 154.0215 121.805 
z
" clip-path="url(#pa959cb4ca1)" style="fill: #0000ff"/>
   </g>
   <g id="patch_182">
    <path d="M 157.105038 127.755 
L 487.814532 127.755 
L 487.814532 121.805 
L 157.105038 121.805 
z
" clip-path="url(#pa959cb4ca1)" style="fill: #0000ff"/>
   </g>
   <g id="patch_183">
    <path d="M 161.730346 127.755 
L 565.673876 127.755 
L 565.673876 121.805 
L 161.730346 121.805 
z
" clip-path="url(#pa959cb4ca1)" style="fill: #0000ff"/>
   </g>
   <g id="patch_184">
    <path d="M 175.606269 127.755 
L 515.566377 127.755 
L 515.566377 121.805 
L 175.606269 121.805 
z
" clip-path="url(#pa959cb4ca1)" style="fill: #0000ff"/>
   </g>
   <g id="patch_185">
    <path d="M 188.711307 127.755 
L 482.41834 127.755 
L 482.41834 121.805 
L 188.711307 121.805 
z
" clip-path="url(#pa959cb4ca1)" style="fill: #0000ff"/>
   </g>
   <g id="patch_186">
    <path d="M 188.711307 127.755 
L 497.065147 127.755 
L 497.065147 121.805 
L 188.711307 121.805 
z
" clip-path="url(#pa959cb4ca1)" style="fill: #0000ff"/>
   </g>
   <g id="patch_187">
    <path d="M 193.336614 127.755 
L 483.960109 127.755 
L 483.960109 121.805 
L 193.336614 121.805 
z
" clip-path="url(#pa959cb4ca1)" style="fill: #0000ff"/>
   </g>
   <g id="patch_188">
    <path d="M 216.463152 127.755 
L 386.057765 127.755 
L 386.057765 121.805 
L 216.463152 121.805 
z
" clip-path="url(#pa959cb4ca1)" style="fill: #0000ff"/>
   </g>
   <g id="patch_189">
    <path d="M 261.945344 127.755 
L 506.315762 127.755 
L 506.315762 121.805 
L 261.945344 121.805 
z
" clip-path="url(#pa959cb4ca1)" style="fill: #0000ff"/>
   </g>
   <g id="patch_190">
    <path d="M 283.530113 127.755 
L 493.210724 127.755 
L 493.210724 121.805 
L 283.530113 121.805 
z
" clip-path="url(#pa959cb4ca1)" style="fill: #0000ff"/>
   </g>
   <g id="patch_191">
    <path d="M 322.845227 127.755 
L 474.709494 127.755 
L 474.709494 121.805 
L 322.845227 121.805 
z
" clip-path="url(#pa959cb4ca1)" style="fill: #0000ff"/>
   </g>
   <g id="patch_192">
    <path d="M 458.520917 127.755 
L 635.05349 127.755 
L 635.05349 121.805 
L 458.520917 121.805 
z
" clip-path="url(#pa959cb4ca1)" style="fill: #0000ff"/>
   </g>
   <g id="patch_193">
    <path d="M 635.824375 125.003125 
L 666.659759 125.003125 
L 666.659759 124.556875 
L 635.824375 124.556875 
z
" clip-path="url(#pa959cb4ca1)" style="fill: #0000ff"/>
   </g>
   <g id="patch_194">
    <path d="M 144 110.128125 
L 169.439192 110.128125 
L 169.439192 109.681875 
L 144 109.681875 
z
" clip-path="url(#pa959cb4ca1)" style="fill: #0000ff"/>
   </g>
   <g id="patch_195">
    <path d="M 170.210076 112.88 
L 501.690455 112.88 
L 501.690455 106.93 
L 170.210076 106.93 
z
" clip-path="url(#pa959cb4ca1)" style="fill: #0000ff"/>
   </g>
   <g id="patch_196">
    <path d="M 170.980961 112.88 
L 504.773993 112.88 
L 504.773993 106.93 
L 170.980961 106.93 
z
" clip-path="url(#pa959cb4ca1)" style="fill: #0000ff"/>
   </g>
   <g id="patch_197">
    <path d="M 189.482191 112.88 
L 503.232224 112.88 
L 503.232224 106.93 
L 189.482191 106.93 
z
" clip-path="url(#pa959cb4ca1)" style="fill: #0000ff"/>
   </g>
   <g id="patch_198">
    <path d="M 190.253076 112.88 
L 501.690455 112.88 
L 501.690455 106.93 
L 190.253076 106.93 
z
" clip-path="url(#pa959cb4ca1)" style="fill: #0000ff"/>
   </g>
   <g id="patch_199">
    <path d="M 248.069421 112.88 
L 501.690455 112.88 
L 501.690455 106.93 
L 248.069421 106.93 
z
" clip-path="url(#pa959cb4ca1)" style="fill: #0000ff"/>
   </g>
   <g id="patch_200">
    <path d="M 254.236498 112.88 
L 501.690455 112.88 
L 501.690455 106.93 
L 254.236498 106.93 
z
" clip-path="url(#pa959cb4ca1)" style="fill: #0000ff"/>
   </g>
   <g id="patch_201">
    <path d="M 255.778267 112.88 
L 456.208263 112.88 
L 456.208263 106.93 
L 255.778267 106.93 
z
" clip-path="url(#pa959cb4ca1)" style="fill: #0000ff"/>
   </g>
   <g id="patch_202">
    <path d="M 257.320036 112.88 
L 501.690455 112.88 
L 501.690455 106.93 
L 257.320036 106.93 
z
" clip-path="url(#pa959cb4ca1)" style="fill: #0000ff"/>
   </g>
   <g id="patch_203">
    <path d="M 303.573112 112.88 
L 487.043647 112.88 
L 487.043647 106.93 
L 303.573112 106.93 
z
" clip-path="url(#pa959cb4ca1)" style="fill: #0000ff"/>
   </g>
   <g id="patch_204">
    <path d="M 477.022147 112.88 
L 681.306567 112.88 
L 681.306567 106.93 
L 477.022147 106.93 
z
" clip-path="url(#pa959cb4ca1)" style="fill: #0000ff"/>
   </g>
   <g id="patch_205">
    <path d="M 682.077451 110.128125 
L 732.955835 110.128125 
L 732.955835 109.681875 
L 682.077451 109.681875 
z
" clip-path="url(#pa959cb4ca1)" style="fill: #0000ff"/>
   </g>
   <g id="patch_206">
    <path d="M 144 95.253125 
L 148.625308 95.253125 
L 148.625308 94.806875 
L 144 94.806875 
z
" clip-path="url(#pa959cb4ca1)" style="fill: #0000ff"/>
   </g>
   <g id="patch_207">
    <path d="M 149.396192 98.005 
L 464.687994 98.005 
L 464.687994 92.055 
L 149.396192 92.055 
z
" clip-path="url(#pa959cb4ca1)" style="fill: #0000ff"/>
   </g>
   <g id="patch_208">
    <path d="M 150.167077 98.005 
L 508.628416 98.005 
L 508.628416 92.055 
L 150.167077 92.055 
z
" clip-path="url(#pa959cb4ca1)" style="fill: #0000ff"/>
   </g>
   <g id="patch_209">
    <path d="M 150.937961 98.005 
L 489.356301 98.005 
L 489.356301 92.055 
L 150.937961 92.055 
z
" clip-path="url(#pa959cb4ca1)" style="fill: #0000ff"/>
   </g>
   <g id="patch_210">
    <path d="M 151.708846 98.005 
L 506.315762 98.005 
L 506.315762 92.055 
L 151.708846 92.055 
z
" clip-path="url(#pa959cb4ca1)" style="fill: #0000ff"/>
   </g>
   <g id="patch_211">
    <path d="M 154.0215 98.005 
L 463.917109 98.005 
L 463.917109 92.055 
L 154.0215 92.055 
z
" clip-path="url(#pa959cb4ca1)" style="fill: #0000ff"/>
   </g>
   <g id="patch_212">
    <path d="M 185.627768 98.005 
L 487.814532 98.005 
L 487.814532 92.055 
L 185.627768 92.055 
z
" clip-path="url(#pa959cb4ca1)" style="fill: #0000ff"/>
   </g>
   <g id="patch_213">
    <path d="M 185.627768 98.005 
L 492.439839 98.005 
L 492.439839 92.055 
L 185.627768 92.055 
z
" clip-path="url(#pa959cb4ca1)" style="fill: #0000ff"/>
   </g>
   <g id="patch_214">
    <path d="M 189.482191 98.005 
L 492.439839 98.005 
L 492.439839 92.055 
L 189.482191 92.055 
z
" clip-path="url(#pa959cb4ca1)" style="fill: #0000ff"/>
   </g>
   <g id="patch_215">
    <path d="M 189.482191 98.005 
L 507.857531 98.005 
L 507.857531 92.055 
L 189.482191 92.055 
z
" clip-path="url(#pa959cb4ca1)" style="fill: #0000ff"/>
   </g>
   <g id="patch_216">
    <path d="M 200.274576 98.005 
L 490.127186 98.005 
L 490.127186 92.055 
L 200.274576 92.055 
z
" clip-path="url(#pa959cb4ca1)" style="fill: #0000ff"/>
   </g>
   <g id="patch_217">
    <path d="M 230.339075 98.005 
L 491.668955 98.005 
L 491.668955 92.055 
L 230.339075 92.055 
z
" clip-path="url(#pa959cb4ca1)" style="fill: #0000ff"/>
   </g>
   <g id="patch_218">
    <path d="M 230.339075 98.005 
L 470.084186 98.005 
L 470.084186 92.055 
L 230.339075 92.055 
z
" clip-path="url(#pa959cb4ca1)" style="fill: #0000ff"/>
   </g>
   <g id="patch_219">
    <path d="M 252.694729 98.005 
L 484.730993 98.005 
L 484.730993 92.055 
L 252.694729 92.055 
z
" clip-path="url(#pa959cb4ca1)" style="fill: #0000ff"/>
   </g>
   <g id="patch_220">
    <path d="M 271.195959 98.005 
L 459.291802 98.005 
L 459.291802 92.055 
L 271.195959 92.055 
z
" clip-path="url(#pa959cb4ca1)" style="fill: #0000ff"/>
   </g>
   <g id="patch_221">
    <path d="M 344.429996 98.005 
L 561.048569 98.005 
L 561.048569 92.055 
L 344.429996 92.055 
z
" clip-path="url(#pa959cb4ca1)" style="fill: #0000ff"/>
   </g>
   <g id="patch_222">
    <path d="M 144 80.378125 
L 187.940422 80.378125 
L 187.940422 79.931875 
L 144 79.931875 
z
" clip-path="url(#pa959cb4ca1)" style="fill: #0000ff"/>
   </g>
   <g id="patch_223">
    <path d="M 188.711307 83.13 
L 706.745758 83.13 
L 706.745758 77.18 
L 188.711307 77.18 
z
" clip-path="url(#pa959cb4ca1)" style="fill: #0000ff"/>
   </g>
   <g id="patch_224">
    <path d="M 707.516643 80.378125 
L 820.065795 80.378125 
L 820.065795 79.931875 
L 707.516643 79.931875 
z
" clip-path="url(#pa959cb4ca1)" style="fill: #0000ff"/>
   </g>
   <g id="patch_225">
    <path d="M 144 65.503125 
L 156.334154 65.503125 
L 156.334154 65.056875 
L 144 65.056875 
z
" clip-path="url(#pa959cb4ca1)" style="fill: #0000ff"/>
   </g>
   <g id="patch_226">
    <path d="M 157.105038 68.255 
L 869.402409 68.255 
L 869.402409 62.305 
L 157.105038 62.305 
z
" clip-path="url(#pa959cb4ca1)" style="fill: #0000ff"/>
   </g>
   <g id="patch_227">
    <path d="M 258.090921 68.255 
L 761.478565 68.255 
L 761.478565 62.305 
L 258.090921 62.305 
z
" clip-path="url(#pa959cb4ca1)" style="fill: #0000ff"/>
   </g>
   <g id="patch_228">
    <path d="M 258.861805 68.255 
L 773.041834 68.255 
L 773.041834 62.305 
L 258.861805 62.305 
z
" clip-path="url(#pa959cb4ca1)" style="fill: #0000ff"/>
   </g>
   <g id="patch_229">
    <path d="M 259.63269 68.255 
L 750.686181 68.255 
L 750.686181 62.305 
L 259.63269 62.305 
z
" clip-path="url(#pa959cb4ca1)" style="fill: #0000ff"/>
   </g>
   <g id="patch_230">
    <path d="M 264.257998 68.255 
L 867.089755 68.255 
L 867.089755 62.305 
L 264.257998 62.305 
z
" clip-path="url(#pa959cb4ca1)" style="fill: #0000ff"/>
   </g>
   <g id="patch_231">
    <path d="M 265.799767 68.255 
L 783.834218 68.255 
L 783.834218 62.305 
L 265.799767 62.305 
z
" clip-path="url(#pa959cb4ca1)" style="fill: #0000ff"/>
   </g>
   <g id="patch_232">
    <path d="M 269.65419 68.255 
L 889.445409 68.255 
L 889.445409 62.305 
L 269.65419 62.305 
z
" clip-path="url(#pa959cb4ca1)" style="fill: #0000ff"/>
   </g>
   <g id="patch_233">
    <path d="M 285.071882 68.255 
L 864.006217 68.255 
L 864.006217 62.305 
L 285.071882 62.305 
z
" clip-path="url(#pa959cb4ca1)" style="fill: #0000ff"/>
   </g>
   <g id="patch_234">
    <path d="M 285.071882 68.255 
L 773.041834 68.255 
L 773.041834 62.305 
L 285.071882 62.305 
z
" clip-path="url(#pa959cb4ca1)" style="fill: #0000ff"/>
   </g>
   <g id="patch_235">
    <path d="M 289.697189 68.255 
L 773.041834 68.255 
L 773.041834 62.305 
L 289.697189 62.305 
z
" clip-path="url(#pa959cb4ca1)" style="fill: #0000ff"/>
   </g>
   <g id="patch_236">
    <path d="M 289.697189 68.255 
L 773.041834 68.255 
L 773.041834 62.305 
L 289.697189 62.305 
z
" clip-path="url(#pa959cb4ca1)" style="fill: #0000ff"/>
   </g>
   <g id="patch_237">
    <path d="M 310.511074 68.255 
L 769.958296 68.255 
L 769.958296 62.305 
L 310.511074 62.305 
z
" clip-path="url(#pa959cb4ca1)" style="fill: #0000ff"/>
   </g>
   <g id="patch_238">
    <path d="M 311.281958 68.255 
L 773.041834 68.255 
L 773.041834 62.305 
L 311.281958 62.305 
z
" clip-path="url(#pa959cb4ca1)" style="fill: #0000ff"/>
   </g>
   <g id="patch_239">
    <path d="M 311.281958 68.255 
L 765.332988 68.255 
L 765.332988 62.305 
L 311.281958 62.305 
z
" clip-path="url(#pa959cb4ca1)" style="fill: #0000ff"/>
   </g>
   <g id="patch_240">
    <path d="M 311.281958 68.255 
L 773.041834 68.255 
L 773.041834 62.305 
L 311.281958 62.305 
z
" clip-path="url(#pa959cb4ca1)" style="fill: #0000ff"/>
   </g>
   <g id="patch_241">
    <path d="M 313.594612 68.255 
L 520.191685 68.255 
L 520.191685 62.305 
L 313.594612 62.305 
z
" clip-path="url(#pa959cb4ca1)" style="fill: #0000ff"/>
   </g>
   <g id="patch_242">
    <path d="M 319.761689 68.255 
L 481.647455 68.255 
L 481.647455 62.305 
L 319.761689 62.305 
z
" clip-path="url(#pa959cb4ca1)" style="fill: #0000ff"/>
   </g>
   <g id="patch_243">
    <path d="M 325.157881 68.255 
L 496.294262 68.255 
L 496.294262 62.305 
L 325.157881 62.305 
z
" clip-path="url(#pa959cb4ca1)" style="fill: #0000ff"/>
   </g>
   <g id="patch_244">
    <path d="M 325.928766 68.255 
L 773.812719 68.255 
L 773.812719 62.305 
L 325.928766 62.305 
z
" clip-path="url(#pa959cb4ca1)" style="fill: #0000ff"/>
   </g>
   <g id="patch_245">
    <path d="M 326.69965 68.255 
L 509.399301 68.255 
L 509.399301 62.305 
L 326.69965 62.305 
z
" clip-path="url(#pa959cb4ca1)" style="fill: #0000ff"/>
   </g>
   <g id="patch_246">
    <path d="M 357.535034 68.255 
L 680.535682 68.255 
L 680.535682 62.305 
L 357.535034 62.305 
z
" clip-path="url(#pa959cb4ca1)" style="fill: #0000ff"/>
   </g>
   <g id="patch_247">
    <path d="M 358.305919 68.255 
L 525.587877 68.255 
L 525.587877 62.305 
L 358.305919 62.305 
z
" clip-path="url(#pa959cb4ca1)" style="fill: #0000ff"/>
   </g>
   <g id="patch_248">
    <path d="M 360.618573 68.255 
L 769.187411 68.255 
L 769.187411 62.305 
L 360.618573 62.305 
z
" clip-path="url(#pa959cb4ca1)" style="fill: #0000ff"/>
   </g>
   <g id="patch_249">
    <path d="M 367.556534 68.255 
L 512.482839 68.255 
L 512.482839 62.305 
L 367.556534 62.305 
z
" clip-path="url(#pa959cb4ca1)" style="fill: #0000ff"/>
   </g>
   <g id="patch_250">
    <path d="M 368.327419 68.255 
L 773.041834 68.255 
L 773.041834 62.305 
L 368.327419 62.305 
z
" clip-path="url(#pa959cb4ca1)" style="fill: #0000ff"/>
   </g>
   <g id="patch_251">
    <path d="M 378.348919 68.255 
L 728.330527 68.255 
L 728.330527 62.305 
L 378.348919 62.305 
z
" clip-path="url(#pa959cb4ca1)" style="fill: #0000ff"/>
   </g>
   <g id="patch_252">
    <path d="M 406.100764 68.255 
L 498.606916 68.255 
L 498.606916 62.305 
L 406.100764 62.305 
z
" clip-path="url(#pa959cb4ca1)" style="fill: #0000ff"/>
   </g>
   <g id="patch_253">
    <path d="M 406.100764 68.255 
L 734.497604 68.255 
L 734.497604 62.305 
L 406.100764 62.305 
z
" clip-path="url(#pa959cb4ca1)" style="fill: #0000ff"/>
   </g>
   <g id="patch_254">
    <path d="M 423.83111 68.255 
L 674.368605 68.255 
L 674.368605 62.305 
L 423.83111 62.305 
z
" clip-path="url(#pa959cb4ca1)" style="fill: #0000ff"/>
   </g>
   <g id="patch_255">
    <path d="M 490.89807 68.255 
L 769.958296 68.255 
L 769.958296 62.305 
L 490.89807 62.305 
z
" clip-path="url(#pa959cb4ca1)" style="fill: #0000ff"/>
   </g>
   <g id="patch_256">
    <path d="M 573.382722 68.255 
L 702.891335 68.255 
L 702.891335 62.305 
L 573.382722 62.305 
z
" clip-path="url(#pa959cb4ca1)" style="fill: #0000ff"/>
   </g>
   <g id="patch_257">
    <path d="M 574.153607 68.255 
L 746.831758 68.255 
L 746.831758 62.305 
L 574.153607 62.305 
z
" clip-path="url(#pa959cb4ca1)" style="fill: #0000ff"/>
   </g>
   <g id="patch_258">
    <path d="M 581.862453 68.255 
L 692.098951 68.255 
L 692.098951 62.305 
L 581.862453 62.305 
z
" clip-path="url(#pa959cb4ca1)" style="fill: #0000ff"/>
   </g>
   <g id="patch_259">
    <path d="M 584.945991 68.255 
L 678.223028 68.255 
L 678.223028 62.305 
L 584.945991 62.305 
z
" clip-path="url(#pa959cb4ca1)" style="fill: #0000ff"/>
   </g>
   <g id="patch_260">
    <path d="M 621.177568 68.255 
L 702.891335 68.255 
L 702.891335 62.305 
L 621.177568 62.305 
z
" clip-path="url(#pa959cb4ca1)" style="fill: #0000ff"/>
   </g>
   <g id="patch_261">
    <path d="M 890.216293 65.503125 
L 994.285714 65.503125 
L 994.285714 65.056875 
L 890.216293 65.056875 
z
" clip-path="url(#pa959cb4ca1)" style="fill: #0000ff"/>
   </g>
   <g id="patch_262">
    <path d="M 144 50.628125 
L 228.026421 50.628125 
L 228.026421 50.181875 
L 144 50.181875 
z
" clip-path="url(#pa959cb4ca1)" style="fill: #0000ff"/>
   </g>
   <g id="patch_263">
    <path d="M 228.797306 53.38 
L 731.414066 53.38 
L 731.414066 47.43 
L 228.797306 47.43 
z
" clip-path="url(#pa959cb4ca1)" style="fill: #0000ff"/>
   </g>
   <g id="patch_264">
    <path d="M 230.339075 53.38 
L 752.998834 53.38 
L 752.998834 47.43 
L 230.339075 47.43 
z
" clip-path="url(#pa959cb4ca1)" style="fill: #0000ff"/>
   </g>
   <g id="patch_265">
    <path d="M 244.985883 53.38 
L 752.22795 53.38 
L 752.22795 47.43 
L 244.985883 47.43 
z
" clip-path="url(#pa959cb4ca1)" style="fill: #0000ff"/>
   </g>
   <g id="patch_266">
    <path d="M 271.195959 53.38 
L 748.373527 53.38 
L 748.373527 47.43 
L 271.195959 47.43 
z
" clip-path="url(#pa959cb4ca1)" style="fill: #0000ff"/>
   </g>
   <g id="patch_267">
    <path d="M 271.966844 53.38 
L 752.998834 53.38 
L 752.998834 47.43 
L 271.966844 47.43 
z
" clip-path="url(#pa959cb4ca1)" style="fill: #0000ff"/>
   </g>
   <g id="patch_268">
    <path d="M 354.451496 53.38 
L 534.067608 53.38 
L 534.067608 47.43 
L 354.451496 47.43 
z
" clip-path="url(#pa959cb4ca1)" style="fill: #0000ff"/>
   </g>
   <g id="patch_269">
    <path d="M 364.472996 53.38 
L 751.457065 53.38 
L 751.457065 47.43 
L 364.472996 47.43 
z
" clip-path="url(#pa959cb4ca1)" style="fill: #0000ff"/>
   </g>
   <g id="patch_270">
    <path d="M 375.26538 53.38 
L 732.18495 53.38 
L 732.18495 47.43 
L 375.26538 47.43 
z
" clip-path="url(#pa959cb4ca1)" style="fill: #0000ff"/>
   </g>
   <g id="patch_271">
    <path d="M 376.807149 53.38 
L 722.934335 53.38 
L 722.934335 47.43 
L 376.807149 47.43 
z
" clip-path="url(#pa959cb4ca1)" style="fill: #0000ff"/>
   </g>
   <g id="patch_272">
    <path d="M 378.348919 53.38 
L 756.082373 53.38 
L 756.082373 47.43 
L 378.348919 47.43 
z
" clip-path="url(#pa959cb4ca1)" style="fill: #0000ff"/>
   </g>
   <g id="patch_273">
    <path d="M 415.351379 53.38 
L 755.311488 53.38 
L 755.311488 47.43 
L 415.351379 47.43 
z
" clip-path="url(#pa959cb4ca1)" style="fill: #0000ff"/>
   </g>
   <g id="patch_274">
    <path d="M 579.549799 53.38 
L 722.934335 53.38 
L 722.934335 47.43 
L 579.549799 47.43 
z
" clip-path="url(#pa959cb4ca1)" style="fill: #0000ff"/>
   </g>
   <g id="patch_275">
    <path d="M 741.435565 53.38 
L 791.543064 53.38 
L 791.543064 47.43 
L 741.435565 47.43 
z
" clip-path="url(#pa959cb4ca1)" style="fill: #0000ff"/>
   </g>
   <g id="patch_276">
    <path d="M 742.20645 53.38 
L 793.855718 53.38 
L 793.855718 47.43 
L 742.20645 47.43 
z
" clip-path="url(#pa959cb4ca1)" style="fill: #0000ff"/>
   </g>
   <g id="patch_277">
    <path d="M 742.977335 53.38 
L 790.77218 53.38 
L 790.77218 47.43 
L 742.977335 47.43 
z
" clip-path="url(#pa959cb4ca1)" style="fill: #0000ff"/>
   </g>
   <g id="patch_278">
    <path d="M 743.748219 53.38 
L 790.77218 53.38 
L 790.77218 47.43 
L 743.748219 47.43 
z
" clip-path="url(#pa959cb4ca1)" style="fill: #0000ff"/>
   </g>
   <g id="patch_279">
    <path d="M 743.748219 53.38 
L 793.084834 53.38 
L 793.084834 47.43 
L 743.748219 47.43 
z
" clip-path="url(#pa959cb4ca1)" style="fill: #0000ff"/>
   </g>
   <g id="patch_280">
    <path d="M 743.748219 53.38 
L 789.230411 53.38 
L 789.230411 47.43 
L 743.748219 47.43 
z
" clip-path="url(#pa959cb4ca1)" style="fill: #0000ff"/>
   </g>
   <g id="patch_281">
    <path d="M 743.748219 53.38 
L 793.855718 53.38 
L 793.855718 47.43 
L 743.748219 47.43 
z
" clip-path="url(#pa959cb4ca1)" style="fill: #0000ff"/>
   </g>
   <g id="patch_282">
    <path d="M 744.519104 53.38 
L 793.855718 53.38 
L 793.855718 47.43 
L 744.519104 47.43 
z
" clip-path="url(#pa959cb4ca1)" style="fill: #0000ff"/>
   </g>
   <g id="patch_283">
    <path d="M 746.831758 53.38 
L 790.77218 53.38 
L 790.77218 47.43 
L 746.831758 47.43 
z
" clip-path="url(#pa959cb4ca1)" style="fill: #0000ff"/>
   </g>
   <g id="patch_284">
    <path d="M 747.602642 53.38 
L 792.313949 53.38 
L 792.313949 47.43 
L 747.602642 47.43 
z
" clip-path="url(#pa959cb4ca1)" style="fill: #0000ff"/>
   </g>
   <g id="patch_285">
    <path d="M 749.915296 53.38 
L 783.063334 53.38 
L 783.063334 47.43 
L 749.915296 47.43 
z
" clip-path="url(#pa959cb4ca1)" style="fill: #0000ff"/>
   </g>
   <g id="patch_286">
    <path d="M 749.915296 53.38 
L 790.001295 53.38 
L 790.001295 47.43 
L 749.915296 47.43 
z
" clip-path="url(#pa959cb4ca1)" style="fill: #0000ff"/>
   </g>
   <g id="patch_287">
    <path d="M 749.915296 53.38 
L 783.063334 53.38 
L 783.063334 47.43 
L 749.915296 47.43 
z
" clip-path="url(#pa959cb4ca1)" style="fill: #0000ff"/>
   </g>
   <g id="patch_288">
    <path d="M 750.686181 53.38 
L 789.230411 53.38 
L 789.230411 47.43 
L 750.686181 47.43 
z
" clip-path="url(#pa959cb4ca1)" style="fill: #0000ff"/>
   </g>
   <g id="patch_289">
    <path d="M 750.686181 53.38 
L 786.917757 53.38 
L 786.917757 47.43 
L 750.686181 47.43 
z
" clip-path="url(#pa959cb4ca1)" style="fill: #0000ff"/>
   </g>
   <g id="patch_290">
    <path d="M 751.457065 53.38 
L 785.375988 53.38 
L 785.375988 47.43 
L 751.457065 47.43 
z
" clip-path="url(#pa959cb4ca1)" style="fill: #0000ff"/>
   </g>
   <g id="patch_291">
    <path d="M 751.457065 53.38 
L 785.375988 53.38 
L 785.375988 47.43 
L 751.457065 47.43 
z
" clip-path="url(#pa959cb4ca1)" style="fill: #0000ff"/>
   </g>
   <g id="patch_292">
    <path d="M 752.22795 53.38 
L 790.77218 53.38 
L 790.77218 47.43 
L 752.22795 47.43 
z
" clip-path="url(#pa959cb4ca1)" style="fill: #0000ff"/>
   </g>
   <g id="patch_293">
    <path d="M 752.22795 53.38 
L 783.063334 53.38 
L 783.063334 47.43 
L 752.22795 47.43 
z
" clip-path="url(#pa959cb4ca1)" style="fill: #0000ff"/>
   </g>
   <g id="patch_294">
    <path d="M 752.22795 53.38 
L 781.521565 53.38 
L 781.521565 47.43 
L 752.22795 47.43 
z
" clip-path="url(#pa959cb4ca1)" style="fill: #0000ff"/>
   </g>
   <g id="patch_295">
    <path d="M 752.22795 53.38 
L 785.375988 53.38 
L 785.375988 47.43 
L 752.22795 47.43 
z
" clip-path="url(#pa959cb4ca1)" style="fill: #0000ff"/>
   </g>
   <g id="patch_296">
    <path d="M 752.22795 53.38 
L 783.063334 53.38 
L 783.063334 47.43 
L 752.22795 47.43 
z
" clip-path="url(#pa959cb4ca1)" style="fill: #0000ff"/>
   </g>
   <g id="patch_297">
    <path d="M 752.22795 53.38 
L 784.605103 53.38 
L 784.605103 47.43 
L 752.22795 47.43 
z
" clip-path="url(#pa959cb4ca1)" style="fill: #0000ff"/>
   </g>
   <g id="patch_298">
    <path d="M 752.22795 53.38 
L 787.688641 53.38 
L 787.688641 47.43 
L 752.22795 47.43 
z
" clip-path="url(#pa959cb4ca1)" style="fill: #0000ff"/>
   </g>
   <g id="patch_299">
    <path d="M 752.22795 53.38 
L 786.146872 53.38 
L 786.146872 47.43 
L 752.22795 47.43 
z
" clip-path="url(#pa959cb4ca1)" style="fill: #0000ff"/>
   </g>
   <g id="patch_300">
    <path d="M 752.22795 53.38 
L 785.375988 53.38 
L 785.375988 47.43 
L 752.22795 47.43 
z
" clip-path="url(#pa959cb4ca1)" style="fill: #0000ff"/>
   </g>
   <g id="patch_301">
    <path d="M 752.22795 53.38 
L 783.063334 53.38 
L 783.063334 47.43 
L 752.22795 47.43 
z
" clip-path="url(#pa959cb4ca1)" style="fill: #0000ff"/>
   </g>
   <g id="patch_302">
    <path d="M 752.22795 53.38 
L 783.063334 53.38 
L 783.063334 47.43 
L 752.22795 47.43 
z
" clip-path="url(#pa959cb4ca1)" style="fill: #0000ff"/>
   </g>
   <g id="patch_303">
    <path d="M 752.22795 53.38 
L 783.063334 53.38 
L 783.063334 47.43 
L 752.22795 47.43 
z
" clip-path="url(#pa959cb4ca1)" style="fill: #0000ff"/>
   </g>
   <g id="patch_304">
    <path d="M 752.22795 53.38 
L 783.063334 53.38 
L 783.063334 47.43 
L 752.22795 47.43 
z
" clip-path="url(#pa959cb4ca1)" style="fill: #0000ff"/>
   </g>
   <g id="patch_305">
    <path d="M 752.22795 53.38 
L 790.77218 53.38 
L 790.77218 47.43 
L 752.22795 47.43 
z
" clip-path="url(#pa959cb4ca1)" style="fill: #0000ff"/>
   </g>
   <g id="patch_306">
    <path d="M 752.22795 53.38 
L 786.917757 53.38 
L 786.917757 47.43 
L 752.22795 47.43 
z
" clip-path="url(#pa959cb4ca1)" style="fill: #0000ff"/>
   </g>
   <g id="patch_307">
    <path d="M 752.22795 53.38 
L 783.063334 53.38 
L 783.063334 47.43 
L 752.22795 47.43 
z
" clip-path="url(#pa959cb4ca1)" style="fill: #0000ff"/>
   </g>
   <g id="patch_308">
    <path d="M 752.22795 53.38 
L 785.375988 53.38 
L 785.375988 47.43 
L 752.22795 47.43 
z
" clip-path="url(#pa959cb4ca1)" style="fill: #0000ff"/>
   </g>
   <g id="patch_309">
    <path d="M 752.22795 53.38 
L 786.146872 53.38 
L 786.146872 47.43 
L 752.22795 47.43 
z
" clip-path="url(#pa959cb4ca1)" style="fill: #0000ff"/>
   </g>
   <g id="patch_310">
    <path d="M 752.22795 53.38 
L 790.77218 53.38 
L 790.77218 47.43 
L 752.22795 47.43 
z
" clip-path="url(#pa959cb4ca1)" style="fill: #0000ff"/>
   </g>
   <g id="patch_311">
    <path d="M 752.22795 53.38 
L 790.77218 53.38 
L 790.77218 47.43 
L 752.22795 47.43 
z
" clip-path="url(#pa959cb4ca1)" style="fill: #0000ff"/>
   </g>
   <g id="patch_312">
    <path d="M 752.22795 53.38 
L 788.459526 53.38 
L 788.459526 47.43 
L 752.22795 47.43 
z
" clip-path="url(#pa959cb4ca1)" style="fill: #0000ff"/>
   </g>
   <g id="patch_313">
    <path d="M 752.998834 53.38 
L 783.063334 53.38 
L 783.063334 47.43 
L 752.998834 47.43 
z
" clip-path="url(#pa959cb4ca1)" style="fill: #0000ff"/>
   </g>
   <g id="patch_314">
    <path d="M 752.998834 53.38 
L 784.605103 53.38 
L 784.605103 47.43 
L 752.998834 47.43 
z
" clip-path="url(#pa959cb4ca1)" style="fill: #0000ff"/>
   </g>
   <g id="patch_315">
    <path d="M 752.998834 53.38 
L 784.605103 53.38 
L 784.605103 47.43 
L 752.998834 47.43 
z
" clip-path="url(#pa959cb4ca1)" style="fill: #0000ff"/>
   </g>
   <g id="patch_316">
    <path d="M 752.998834 53.38 
L 790.77218 53.38 
L 790.77218 47.43 
L 752.998834 47.43 
z
" clip-path="url(#pa959cb4ca1)" style="fill: #0000ff"/>
   </g>
   <g id="patch_317">
    <path d="M 752.998834 53.38 
L 785.375988 53.38 
L 785.375988 47.43 
L 752.998834 47.43 
z
" clip-path="url(#pa959cb4ca1)" style="fill: #0000ff"/>
   </g>
   <g id="patch_318">
    <path d="M 752.998834 53.38 
L 786.146872 53.38 
L 786.146872 47.43 
L 752.998834 47.43 
z
" clip-path="url(#pa959cb4ca1)" style="fill: #0000ff"/>
   </g>
   <g id="patch_319">
    <path d="M 752.998834 53.38 
L 790.001295 53.38 
L 790.001295 47.43 
L 752.998834 47.43 
z
" clip-path="url(#pa959cb4ca1)" style="fill: #0000ff"/>
   </g>
   <g id="patch_320">
    <path d="M 752.998834 53.38 
L 790.001295 53.38 
L 790.001295 47.43 
L 752.998834 47.43 
z
" clip-path="url(#pa959cb4ca1)" style="fill: #0000ff"/>
   </g>
   <g id="patch_321">
    <path d="M 753.769719 53.38 
L 793.855718 53.38 
L 793.855718 47.43 
L 753.769719 47.43 
z
" clip-path="url(#pa959cb4ca1)" style="fill: #0000ff"/>
   </g>
   <g id="patch_322">
    <path d="M 753.769719 53.38 
L 783.063334 53.38 
L 783.063334 47.43 
L 753.769719 47.43 
z
" clip-path="url(#pa959cb4ca1)" style="fill: #0000ff"/>
   </g>
   <g id="patch_323">
    <path d="M 753.769719 53.38 
L 783.063334 53.38 
L 783.063334 47.43 
L 753.769719 47.43 
z
" clip-path="url(#pa959cb4ca1)" style="fill: #0000ff"/>
   </g>
   <g id="patch_324">
    <path d="M 753.769719 53.38 
L 781.521565 53.38 
L 781.521565 47.43 
L 753.769719 47.43 
z
" clip-path="url(#pa959cb4ca1)" style="fill: #0000ff"/>
   </g>
   <g id="patch_325">
    <path d="M 753.769719 53.38 
L 783.063334 53.38 
L 783.063334 47.43 
L 753.769719 47.43 
z
" clip-path="url(#pa959cb4ca1)" style="fill: #0000ff"/>
   </g>
   <g id="patch_326">
    <path d="M 753.769719 53.38 
L 783.063334 53.38 
L 783.063334 47.43 
L 753.769719 47.43 
z
" clip-path="url(#pa959cb4ca1)" style="fill: #0000ff"/>
   </g>
   <g id="patch_327">
    <path d="M 753.769719 53.38 
L 790.77218 53.38 
L 790.77218 47.43 
L 753.769719 47.43 
z
" clip-path="url(#pa959cb4ca1)" style="fill: #0000ff"/>
   </g>
   <g id="patch_328">
    <path d="M 753.769719 53.38 
L 783.063334 53.38 
L 783.063334 47.43 
L 753.769719 47.43 
z
" clip-path="url(#pa959cb4ca1)" style="fill: #0000ff"/>
   </g>
   <g id="patch_329">
    <path d="M 753.769719 53.38 
L 783.063334 53.38 
L 783.063334 47.43 
L 753.769719 47.43 
z
" clip-path="url(#pa959cb4ca1)" style="fill: #0000ff"/>
   </g>
   <g id="patch_330">
    <path d="M 753.769719 53.38 
L 785.375988 53.38 
L 785.375988 47.43 
L 753.769719 47.43 
z
" clip-path="url(#pa959cb4ca1)" style="fill: #0000ff"/>
   </g>
   <g id="patch_331">
    <path d="M 753.769719 53.38 
L 790.001295 53.38 
L 790.001295 47.43 
L 753.769719 47.43 
z
" clip-path="url(#pa959cb4ca1)" style="fill: #0000ff"/>
   </g>
   <g id="patch_332">
    <path d="M 753.769719 53.38 
L 783.063334 53.38 
L 783.063334 47.43 
L 753.769719 47.43 
z
" clip-path="url(#pa959cb4ca1)" style="fill: #0000ff"/>
   </g>
   <g id="patch_333">
    <path d="M 753.769719 53.38 
L 783.063334 53.38 
L 783.063334 47.43 
L 753.769719 47.43 
z
" clip-path="url(#pa959cb4ca1)" style="fill: #0000ff"/>
   </g>
   <g id="patch_334">
    <path d="M 753.769719 53.38 
L 783.063334 53.38 
L 783.063334 47.43 
L 753.769719 47.43 
z
" clip-path="url(#pa959cb4ca1)" style="fill: #0000ff"/>
   </g>
   <g id="patch_335">
    <path d="M 753.769719 53.38 
L 783.063334 53.38 
L 783.063334 47.43 
L 753.769719 47.43 
z
" clip-path="url(#pa959cb4ca1)" style="fill: #0000ff"/>
   </g>
   <g id="patch_336">
    <path d="M 753.769719 53.38 
L 786.146872 53.38 
L 786.146872 47.43 
L 753.769719 47.43 
z
" clip-path="url(#pa959cb4ca1)" style="fill: #0000ff"/>
   </g>
   <g id="patch_337">
    <path d="M 753.769719 53.38 
L 788.459526 53.38 
L 788.459526 47.43 
L 753.769719 47.43 
z
" clip-path="url(#pa959cb4ca1)" style="fill: #0000ff"/>
   </g>
   <g id="patch_338">
    <path d="M 753.769719 53.38 
L 783.834218 53.38 
L 783.834218 47.43 
L 753.769719 47.43 
z
" clip-path="url(#pa959cb4ca1)" style="fill: #0000ff"/>
   </g>
   <g id="patch_339">
    <path d="M 753.769719 53.38 
L 787.688641 53.38 
L 787.688641 47.43 
L 753.769719 47.43 
z
" clip-path="url(#pa959cb4ca1)" style="fill: #0000ff"/>
   </g>
   <g id="patch_340">
    <path d="M 753.769719 53.38 
L 783.063334 53.38 
L 783.063334 47.43 
L 753.769719 47.43 
z
" clip-path="url(#pa959cb4ca1)" style="fill: #0000ff"/>
   </g>
   <g id="patch_341">
    <path d="M 753.769719 53.38 
L 783.834218 53.38 
L 783.834218 47.43 
L 753.769719 47.43 
z
" clip-path="url(#pa959cb4ca1)" style="fill: #0000ff"/>
   </g>
   <g id="patch_342">
    <path d="M 753.769719 53.38 
L 792.313949 53.38 
L 792.313949 47.43 
L 753.769719 47.43 
z
" clip-path="url(#pa959cb4ca1)" style="fill: #0000ff"/>
   </g>
   <g id="patch_343">
    <path d="M 753.769719 53.38 
L 786.146872 53.38 
L 786.146872 47.43 
L 753.769719 47.43 
z
" clip-path="url(#pa959cb4ca1)" style="fill: #0000ff"/>
   </g>
   <g id="patch_344">
    <path d="M 753.769719 53.38 
L 790.001295 53.38 
L 790.001295 47.43 
L 753.769719 47.43 
z
" clip-path="url(#pa959cb4ca1)" style="fill: #0000ff"/>
   </g>
   <g id="matplotlib.axis_1">
    <g id="xtick_1">
     <g id="line2d_1">
      <defs>
       <path id="m41a3f60e01" d="M 0 0 
L 0 3.5 
" style="stroke: #000000; stroke-width: 0.8"/>
      </defs>
      <g>
       <use xlink:href="#m41a3f60e01" x="297.406035" y="272.34" style="stroke: #000000; stroke-width: 0.8"/>
      </g>
     </g>
     <g id="text_1">
      <!-- 200 -->
      <g transform="translate(287.862285 286.938438) scale(0.1 -0.1)">
       <defs>
        <path id="DejaVuSans-32" d="M 1228 531 
L 3431 531 
L 3431 0 
L 469 0 
L 469 531 
Q 828 903 1448 1529 
Q 2069 2156 2228 2338 
Q 2531 2678 2651 2914 
Q 2772 3150 2772 3378 
Q 2772 3750 2511 3984 
Q 2250 4219 1831 4219 
Q 1534 4219 1204 4116 
Q 875 4013 500 3803 
L 500 4441 
Q 881 4594 1212 4672 
Q 1544 4750 1819 4750 
Q 2544 4750 2975 4387 
Q 3406 4025 3406 3419 
Q 3406 3131 3298 2873 
Q 3191 2616 2906 2266 
Q 2828 2175 2409 1742 
Q 1991 1309 1228 531 
z
" transform="scale(0.015625)"/>
        <path id="DejaVuSans-30" d="M 2034 4250 
Q 1547 4250 1301 3770 
Q 1056 3291 1056 2328 
Q 1056 1369 1301 889 
Q 1547 409 2034 409 
Q 2525 409 2770 889 
Q 3016 1369 3016 2328 
Q 3016 3291 2770 3770 
Q 2525 4250 2034 4250 
z
M 2034 4750 
Q 2819 4750 3233 4129 
Q 3647 3509 3647 2328 
Q 3647 1150 3233 529 
Q 2819 -91 2034 -91 
Q 1250 -91 836 529 
Q 422 1150 422 2328 
Q 422 3509 836 4129 
Q 1250 4750 2034 4750 
z
" transform="scale(0.015625)"/>
       </defs>
       <use xlink:href="#DejaVuSans-32"/>
       <use xlink:href="#DejaVuSans-30" x="63.623047"/>
       <use xlink:href="#DejaVuSans-30" x="127.246094"/>
      </g>
     </g>
    </g>
    <g id="xtick_2">
     <g id="line2d_2">
      <g>
       <use xlink:href="#m41a3f60e01" x="451.582956" y="272.34" style="stroke: #000000; stroke-width: 0.8"/>
      </g>
     </g>
     <g id="text_2">
      <!-- 400 -->
      <g transform="translate(442.039206 286.938438) scale(0.1 -0.1)">
       <defs>
        <path id="DejaVuSans-34" d="M 2419 4116 
L 825 1625 
L 2419 1625 
L 2419 4116 
z
M 2253 4666 
L 3047 4666 
L 3047 1625 
L 3713 1625 
L 3713 1100 
L 3047 1100 
L 3047 0 
L 2419 0 
L 2419 1100 
L 313 1100 
L 313 1709 
L 2253 4666 
z
" transform="scale(0.015625)"/>
       </defs>
       <use xlink:href="#DejaVuSans-34"/>
       <use xlink:href="#DejaVuSans-30" x="63.623047"/>
       <use xlink:href="#DejaVuSans-30" x="127.246094"/>
      </g>
     </g>
    </g>
    <g id="xtick_3">
     <g id="line2d_3">
      <g>
       <use xlink:href="#m41a3f60e01" x="605.759876" y="272.34" style="stroke: #000000; stroke-width: 0.8"/>
      </g>
     </g>
     <g id="text_3">
      <!-- 600 -->
      <g transform="translate(596.216126 286.938438) scale(0.1 -0.1)">
       <defs>
        <path id="DejaVuSans-36" d="M 2113 2584 
Q 1688 2584 1439 2293 
Q 1191 2003 1191 1497 
Q 1191 994 1439 701 
Q 1688 409 2113 409 
Q 2538 409 2786 701 
Q 3034 994 3034 1497 
Q 3034 2003 2786 2293 
Q 2538 2584 2113 2584 
z
M 3366 4563 
L 3366 3988 
Q 3128 4100 2886 4159 
Q 2644 4219 2406 4219 
Q 1781 4219 1451 3797 
Q 1122 3375 1075 2522 
Q 1259 2794 1537 2939 
Q 1816 3084 2150 3084 
Q 2853 3084 3261 2657 
Q 3669 2231 3669 1497 
Q 3669 778 3244 343 
Q 2819 -91 2113 -91 
Q 1303 -91 875 529 
Q 447 1150 447 2328 
Q 447 3434 972 4092 
Q 1497 4750 2381 4750 
Q 2619 4750 2861 4703 
Q 3103 4656 3366 4563 
z
" transform="scale(0.015625)"/>
       </defs>
       <use xlink:href="#DejaVuSans-36"/>
       <use xlink:href="#DejaVuSans-30" x="63.623047"/>
       <use xlink:href="#DejaVuSans-30" x="127.246094"/>
      </g>
     </g>
    </g>
    <g id="xtick_4">
     <g id="line2d_4">
      <g>
       <use xlink:href="#m41a3f60e01" x="759.936796" y="272.34" style="stroke: #000000; stroke-width: 0.8"/>
      </g>
     </g>
     <g id="text_4">
      <!-- 800 -->
      <g transform="translate(750.393046 286.938438) scale(0.1 -0.1)">
       <defs>
        <path id="DejaVuSans-38" d="M 2034 2216 
Q 1584 2216 1326 1975 
Q 1069 1734 1069 1313 
Q 1069 891 1326 650 
Q 1584 409 2034 409 
Q 2484 409 2743 651 
Q 3003 894 3003 1313 
Q 3003 1734 2745 1975 
Q 2488 2216 2034 2216 
z
M 1403 2484 
Q 997 2584 770 2862 
Q 544 3141 544 3541 
Q 544 4100 942 4425 
Q 1341 4750 2034 4750 
Q 2731 4750 3128 4425 
Q 3525 4100 3525 3541 
Q 3525 3141 3298 2862 
Q 3072 2584 2669 2484 
Q 3125 2378 3379 2068 
Q 3634 1759 3634 1313 
Q 3634 634 3220 271 
Q 2806 -91 2034 -91 
Q 1263 -91 848 271 
Q 434 634 434 1313 
Q 434 1759 690 2068 
Q 947 2378 1403 2484 
z
M 1172 3481 
Q 1172 3119 1398 2916 
Q 1625 2713 2034 2713 
Q 2441 2713 2670 2916 
Q 2900 3119 2900 3481 
Q 2900 3844 2670 4047 
Q 2441 4250 2034 4250 
Q 1625 4250 1398 4047 
Q 1172 3844 1172 3481 
z
" transform="scale(0.015625)"/>
       </defs>
       <use xlink:href="#DejaVuSans-38"/>
       <use xlink:href="#DejaVuSans-30" x="63.623047"/>
       <use xlink:href="#DejaVuSans-30" x="127.246094"/>
      </g>
     </g>
    </g>
    <g id="xtick_5">
     <g id="line2d_5">
      <g>
       <use xlink:href="#m41a3f60e01" x="914.113716" y="272.34" style="stroke: #000000; stroke-width: 0.8"/>
      </g>
     </g>
     <g id="text_5">
      <!-- 1000 -->
      <g transform="translate(901.388716 286.938438) scale(0.1 -0.1)">
       <defs>
        <path id="DejaVuSans-31" d="M 794 531 
L 1825 531 
L 1825 4091 
L 703 3866 
L 703 4441 
L 1819 4666 
L 2450 4666 
L 2450 531 
L 3481 531 
L 3481 0 
L 794 0 
L 794 531 
z
" transform="scale(0.015625)"/>
       </defs>
       <use xlink:href="#DejaVuSans-31"/>
       <use xlink:href="#DejaVuSans-30" x="63.623047"/>
       <use xlink:href="#DejaVuSans-30" x="127.246094"/>
       <use xlink:href="#DejaVuSans-30" x="190.869141"/>
      </g>
     </g>
    </g>
    <g id="text_6">
     <!-- Residual -->
     <g transform="translate(569.284375 300.616562) scale(0.1 -0.1)">
      <defs>
       <path id="DejaVuSans-52" d="M 2841 2188 
Q 3044 2119 3236 1894 
Q 3428 1669 3622 1275 
L 4263 0 
L 3584 0 
L 2988 1197 
Q 2756 1666 2539 1819 
Q 2322 1972 1947 1972 
L 1259 1972 
L 1259 0 
L 628 0 
L 628 4666 
L 2053 4666 
Q 2853 4666 3247 4331 
Q 3641 3997 3641 3322 
Q 3641 2881 3436 2590 
Q 3231 2300 2841 2188 
z
M 1259 4147 
L 1259 2491 
L 2053 2491 
Q 2509 2491 2742 2702 
Q 2975 2913 2975 3322 
Q 2975 3731 2742 3939 
Q 2509 4147 2053 4147 
L 1259 4147 
z
" transform="scale(0.015625)"/>
       <path id="DejaVuSans-65" d="M 3597 1894 
L 3597 1613 
L 953 1613 
Q 991 1019 1311 708 
Q 1631 397 2203 397 
Q 2534 397 2845 478 
Q 3156 559 3463 722 
L 3463 178 
Q 3153 47 2828 -22 
Q 2503 -91 2169 -91 
Q 1331 -91 842 396 
Q 353 884 353 1716 
Q 353 2575 817 3079 
Q 1281 3584 2069 3584 
Q 2775 3584 3186 3129 
Q 3597 2675 3597 1894 
z
M 3022 2063 
Q 3016 2534 2758 2815 
Q 2500 3097 2075 3097 
Q 1594 3097 1305 2825 
Q 1016 2553 972 2059 
L 3022 2063 
z
" transform="scale(0.015625)"/>
       <path id="DejaVuSans-73" d="M 2834 3397 
L 2834 2853 
Q 2591 2978 2328 3040 
Q 2066 3103 1784 3103 
Q 1356 3103 1142 2972 
Q 928 2841 928 2578 
Q 928 2378 1081 2264 
Q 1234 2150 1697 2047 
L 1894 2003 
Q 2506 1872 2764 1633 
Q 3022 1394 3022 966 
Q 3022 478 2636 193 
Q 2250 -91 1575 -91 
Q 1294 -91 989 -36 
Q 684 19 347 128 
L 347 722 
Q 666 556 975 473 
Q 1284 391 1588 391 
Q 1994 391 2212 530 
Q 2431 669 2431 922 
Q 2431 1156 2273 1281 
Q 2116 1406 1581 1522 
L 1381 1569 
Q 847 1681 609 1914 
Q 372 2147 372 2553 
Q 372 3047 722 3315 
Q 1072 3584 1716 3584 
Q 2034 3584 2315 3537 
Q 2597 3491 2834 3397 
z
" transform="scale(0.015625)"/>
       <path id="DejaVuSans-69" d="M 603 3500 
L 1178 3500 
L 1178 0 
L 603 0 
L 603 3500 
z
M 603 4863 
L 1178 4863 
L 1178 4134 
L 603 4134 
L 603 4863 
z
" transform="scale(0.015625)"/>
       <path id="DejaVuSans-64" d="M 2906 2969 
L 2906 4863 
L 3481 4863 
L 3481 0 
L 2906 0 
L 2906 525 
Q 2725 213 2448 61 
Q 2172 -91 1784 -91 
Q 1150 -91 751 415 
Q 353 922 353 1747 
Q 353 2572 751 3078 
Q 1150 3584 1784 3584 
Q 2172 3584 2448 3432 
Q 2725 3281 2906 2969 
z
M 947 1747 
Q 947 1113 1208 752 
Q 1469 391 1925 391 
Q 2381 391 2643 752 
Q 2906 1113 2906 1747 
Q 2906 2381 2643 2742 
Q 2381 3103 1925 3103 
Q 1469 3103 1208 2742 
Q 947 2381 947 1747 
z
" transform="scale(0.015625)"/>
       <path id="DejaVuSans-75" d="M 544 1381 
L 544 3500 
L 1119 3500 
L 1119 1403 
Q 1119 906 1312 657 
Q 1506 409 1894 409 
Q 2359 409 2629 706 
Q 2900 1003 2900 1516 
L 2900 3500 
L 3475 3500 
L 3475 0 
L 2900 0 
L 2900 538 
Q 2691 219 2414 64 
Q 2138 -91 1772 -91 
Q 1169 -91 856 284 
Q 544 659 544 1381 
z
M 1991 3584 
L 1991 3584 
z
" transform="scale(0.015625)"/>
       <path id="DejaVuSans-61" d="M 2194 1759 
Q 1497 1759 1228 1600 
Q 959 1441 959 1056 
Q 959 750 1161 570 
Q 1363 391 1709 391 
Q 2188 391 2477 730 
Q 2766 1069 2766 1631 
L 2766 1759 
L 2194 1759 
z
M 3341 1997 
L 3341 0 
L 2766 0 
L 2766 531 
Q 2569 213 2275 61 
Q 1981 -91 1556 -91 
Q 1019 -91 701 211 
Q 384 513 384 1019 
Q 384 1609 779 1909 
Q 1175 2209 1959 2209 
L 2766 2209 
L 2766 2266 
Q 2766 2663 2505 2880 
Q 2244 3097 1772 3097 
Q 1472 3097 1187 3025 
Q 903 2953 641 2809 
L 641 3341 
Q 956 3463 1253 3523 
Q 1550 3584 1831 3584 
Q 2591 3584 2966 3190 
Q 3341 2797 3341 1997 
z
" transform="scale(0.015625)"/>
       <path id="DejaVuSans-6c" d="M 603 4863 
L 1178 4863 
L 1178 0 
L 603 0 
L 603 4863 
z
" transform="scale(0.015625)"/>
      </defs>
      <use xlink:href="#DejaVuSans-52"/>
      <use xlink:href="#DejaVuSans-65" x="64.982422"/>
      <use xlink:href="#DejaVuSans-73" x="126.505859"/>
      <use xlink:href="#DejaVuSans-69" x="178.605469"/>
      <use xlink:href="#DejaVuSans-64" x="206.388672"/>
      <use xlink:href="#DejaVuSans-75" x="269.865234"/>
      <use xlink:href="#DejaVuSans-61" x="333.244141"/>
      <use xlink:href="#DejaVuSans-6c" x="394.523438"/>
     </g>
    </g>
   </g>
   <g id="matplotlib.axis_2">
    <g id="ytick_1">
     <g id="line2d_6">
      <defs>
       <path id="m31b6a2a81b" d="M 0 0 
L -3.5 0 
" style="stroke: #000000; stroke-width: 0.8"/>
      </defs>
      <g>
       <use xlink:href="#m31b6a2a81b" x="144" y="258.655" style="stroke: #000000; stroke-width: 0.8"/>
      </g>
     </g>
     <g id="text_7">
      <!-- 9.B.392.1.1 -->
      <g transform="translate(79.251563 262.454219) scale(0.1 -0.1)">
       <defs>
        <path id="DejaVuSans-39" d="M 703 97 
L 703 672 
Q 941 559 1184 500 
Q 1428 441 1663 441 
Q 2288 441 2617 861 
Q 2947 1281 2994 2138 
Q 2813 1869 2534 1725 
Q 2256 1581 1919 1581 
Q 1219 1581 811 2004 
Q 403 2428 403 3163 
Q 403 3881 828 4315 
Q 1253 4750 1959 4750 
Q 2769 4750 3195 4129 
Q 3622 3509 3622 2328 
Q 3622 1225 3098 567 
Q 2575 -91 1691 -91 
Q 1453 -91 1209 -44 
Q 966 3 703 97 
z
M 1959 2075 
Q 2384 2075 2632 2365 
Q 2881 2656 2881 3163 
Q 2881 3666 2632 3958 
Q 2384 4250 1959 4250 
Q 1534 4250 1286 3958 
Q 1038 3666 1038 3163 
Q 1038 2656 1286 2365 
Q 1534 2075 1959 2075 
z
" transform="scale(0.015625)"/>
        <path id="DejaVuSans-2e" d="M 684 794 
L 1344 794 
L 1344 0 
L 684 0 
L 684 794 
z
" transform="scale(0.015625)"/>
        <path id="DejaVuSans-42" d="M 1259 2228 
L 1259 519 
L 2272 519 
Q 2781 519 3026 730 
Q 3272 941 3272 1375 
Q 3272 1813 3026 2020 
Q 2781 2228 2272 2228 
L 1259 2228 
z
M 1259 4147 
L 1259 2741 
L 2194 2741 
Q 2656 2741 2882 2914 
Q 3109 3088 3109 3444 
Q 3109 3797 2882 3972 
Q 2656 4147 2194 4147 
L 1259 4147 
z
M 628 4666 
L 2241 4666 
Q 2963 4666 3353 4366 
Q 3744 4066 3744 3513 
Q 3744 3084 3544 2831 
Q 3344 2578 2956 2516 
Q 3422 2416 3680 2098 
Q 3938 1781 3938 1306 
Q 3938 681 3513 340 
Q 3088 0 2303 0 
L 628 0 
L 628 4666 
z
" transform="scale(0.015625)"/>
        <path id="DejaVuSans-33" d="M 2597 2516 
Q 3050 2419 3304 2112 
Q 3559 1806 3559 1356 
Q 3559 666 3084 287 
Q 2609 -91 1734 -91 
Q 1441 -91 1130 -33 
Q 819 25 488 141 
L 488 750 
Q 750 597 1062 519 
Q 1375 441 1716 441 
Q 2309 441 2620 675 
Q 2931 909 2931 1356 
Q 2931 1769 2642 2001 
Q 2353 2234 1838 2234 
L 1294 2234 
L 1294 2753 
L 1863 2753 
Q 2328 2753 2575 2939 
Q 2822 3125 2822 3475 
Q 2822 3834 2567 4026 
Q 2313 4219 1838 4219 
Q 1578 4219 1281 4162 
Q 984 4106 628 3988 
L 628 4550 
Q 988 4650 1302 4700 
Q 1616 4750 1894 4750 
Q 2613 4750 3031 4423 
Q 3450 4097 3450 3541 
Q 3450 3153 3228 2886 
Q 3006 2619 2597 2516 
z
" transform="scale(0.015625)"/>
       </defs>
       <use xlink:href="#DejaVuSans-39"/>
       <use xlink:href="#DejaVuSans-2e" x="63.623047"/>
       <use xlink:href="#DejaVuSans-42" x="95.410156"/>
       <use xlink:href="#DejaVuSans-2e" x="164.013672"/>
       <use xlink:href="#DejaVuSans-33" x="195.800781"/>
       <use xlink:href="#DejaVuSans-39" x="259.423828"/>
       <use xlink:href="#DejaVuSans-32" x="323.046875"/>
       <use xlink:href="#DejaVuSans-2e" x="386.669922"/>
       <use xlink:href="#DejaVuSans-31" x="418.457031"/>
       <use xlink:href="#DejaVuSans-2e" x="482.080078"/>
       <use xlink:href="#DejaVuSans-31" x="513.867188"/>
      </g>
     </g>
    </g>
    <g id="ytick_2">
     <g id="line2d_7">
      <g>
       <use xlink:href="#m31b6a2a81b" x="144" y="243.78" style="stroke: #000000; stroke-width: 0.8"/>
      </g>
     </g>
     <g id="text_8">
      <!-- 9.B.392.1.2 -->
      <g transform="translate(79.251563 247.579219) scale(0.1 -0.1)">
       <use xlink:href="#DejaVuSans-39"/>
       <use xlink:href="#DejaVuSans-2e" x="63.623047"/>
       <use xlink:href="#DejaVuSans-42" x="95.410156"/>
       <use xlink:href="#DejaVuSans-2e" x="164.013672"/>
       <use xlink:href="#DejaVuSans-33" x="195.800781"/>
       <use xlink:href="#DejaVuSans-39" x="259.423828"/>
       <use xlink:href="#DejaVuSans-32" x="323.046875"/>
       <use xlink:href="#DejaVuSans-2e" x="386.669922"/>
       <use xlink:href="#DejaVuSans-31" x="418.457031"/>
       <use xlink:href="#DejaVuSans-2e" x="482.080078"/>
       <use xlink:href="#DejaVuSans-32" x="513.867188"/>
      </g>
     </g>
    </g>
    <g id="ytick_3">
     <g id="line2d_8">
      <g>
       <use xlink:href="#m31b6a2a81b" x="144" y="228.905" style="stroke: #000000; stroke-width: 0.8"/>
      </g>
     </g>
     <g id="text_9">
      <!-- 9.B.392.1.3 -->
      <g transform="translate(79.251563 232.704219) scale(0.1 -0.1)">
       <use xlink:href="#DejaVuSans-39"/>
       <use xlink:href="#DejaVuSans-2e" x="63.623047"/>
       <use xlink:href="#DejaVuSans-42" x="95.410156"/>
       <use xlink:href="#DejaVuSans-2e" x="164.013672"/>
       <use xlink:href="#DejaVuSans-33" x="195.800781"/>
       <use xlink:href="#DejaVuSans-39" x="259.423828"/>
       <use xlink:href="#DejaVuSans-32" x="323.046875"/>
       <use xlink:href="#DejaVuSans-2e" x="386.669922"/>
       <use xlink:href="#DejaVuSans-31" x="418.457031"/>
       <use xlink:href="#DejaVuSans-2e" x="482.080078"/>
       <use xlink:href="#DejaVuSans-33" x="513.867188"/>
      </g>
     </g>
    </g>
    <g id="ytick_4">
     <g id="line2d_9">
      <g>
       <use xlink:href="#m31b6a2a81b" x="144" y="214.03" style="stroke: #000000; stroke-width: 0.8"/>
      </g>
     </g>
     <g id="text_10">
      <!-- 9.B.392.1.4 -->
      <g transform="translate(79.251563 217.829219) scale(0.1 -0.1)">
       <use xlink:href="#DejaVuSans-39"/>
       <use xlink:href="#DejaVuSans-2e" x="63.623047"/>
       <use xlink:href="#DejaVuSans-42" x="95.410156"/>
       <use xlink:href="#DejaVuSans-2e" x="164.013672"/>
       <use xlink:href="#DejaVuSans-33" x="195.800781"/>
       <use xlink:href="#DejaVuSans-39" x="259.423828"/>
       <use xlink:href="#DejaVuSans-32" x="323.046875"/>
       <use xlink:href="#DejaVuSans-2e" x="386.669922"/>
       <use xlink:href="#DejaVuSans-31" x="418.457031"/>
       <use xlink:href="#DejaVuSans-2e" x="482.080078"/>
       <use xlink:href="#DejaVuSans-34" x="513.867188"/>
      </g>
     </g>
    </g>
    <g id="ytick_5">
     <g id="line2d_10">
      <g>
       <use xlink:href="#m31b6a2a81b" x="144" y="199.155" style="stroke: #000000; stroke-width: 0.8"/>
      </g>
     </g>
     <g id="text_11">
      <!-- 9.B.392.1.5 -->
      <g transform="translate(79.251563 202.954219) scale(0.1 -0.1)">
       <defs>
        <path id="DejaVuSans-35" d="M 691 4666 
L 3169 4666 
L 3169 4134 
L 1269 4134 
L 1269 2991 
Q 1406 3038 1543 3061 
Q 1681 3084 1819 3084 
Q 2600 3084 3056 2656 
Q 3513 2228 3513 1497 
Q 3513 744 3044 326 
Q 2575 -91 1722 -91 
Q 1428 -91 1123 -41 
Q 819 9 494 109 
L 494 744 
Q 775 591 1075 516 
Q 1375 441 1709 441 
Q 2250 441 2565 725 
Q 2881 1009 2881 1497 
Q 2881 1984 2565 2268 
Q 2250 2553 1709 2553 
Q 1456 2553 1204 2497 
Q 953 2441 691 2322 
L 691 4666 
z
" transform="scale(0.015625)"/>
       </defs>
       <use xlink:href="#DejaVuSans-39"/>
       <use xlink:href="#DejaVuSans-2e" x="63.623047"/>
       <use xlink:href="#DejaVuSans-42" x="95.410156"/>
       <use xlink:href="#DejaVuSans-2e" x="164.013672"/>
       <use xlink:href="#DejaVuSans-33" x="195.800781"/>
       <use xlink:href="#DejaVuSans-39" x="259.423828"/>
       <use xlink:href="#DejaVuSans-32" x="323.046875"/>
       <use xlink:href="#DejaVuSans-2e" x="386.669922"/>
       <use xlink:href="#DejaVuSans-31" x="418.457031"/>
       <use xlink:href="#DejaVuSans-2e" x="482.080078"/>
       <use xlink:href="#DejaVuSans-35" x="513.867188"/>
      </g>
     </g>
    </g>
    <g id="ytick_6">
     <g id="line2d_11">
      <g>
       <use xlink:href="#m31b6a2a81b" x="144" y="184.28" style="stroke: #000000; stroke-width: 0.8"/>
      </g>
     </g>
     <g id="text_12">
      <!-- 9.B.392.2.1 -->
      <g transform="translate(79.251563 188.079219) scale(0.1 -0.1)">
       <use xlink:href="#DejaVuSans-39"/>
       <use xlink:href="#DejaVuSans-2e" x="63.623047"/>
       <use xlink:href="#DejaVuSans-42" x="95.410156"/>
       <use xlink:href="#DejaVuSans-2e" x="164.013672"/>
       <use xlink:href="#DejaVuSans-33" x="195.800781"/>
       <use xlink:href="#DejaVuSans-39" x="259.423828"/>
       <use xlink:href="#DejaVuSans-32" x="323.046875"/>
       <use xlink:href="#DejaVuSans-2e" x="386.669922"/>
       <use xlink:href="#DejaVuSans-32" x="418.457031"/>
       <use xlink:href="#DejaVuSans-2e" x="482.080078"/>
       <use xlink:href="#DejaVuSans-31" x="513.867188"/>
      </g>
     </g>
    </g>
    <g id="ytick_7">
     <g id="line2d_12">
      <g>
       <use xlink:href="#m31b6a2a81b" x="144" y="169.405" style="stroke: #000000; stroke-width: 0.8"/>
      </g>
     </g>
     <g id="text_13">
      <!-- 9.B.392.2.2 -->
      <g transform="translate(79.251563 173.204219) scale(0.1 -0.1)">
       <use xlink:href="#DejaVuSans-39"/>
       <use xlink:href="#DejaVuSans-2e" x="63.623047"/>
       <use xlink:href="#DejaVuSans-42" x="95.410156"/>
       <use xlink:href="#DejaVuSans-2e" x="164.013672"/>
       <use xlink:href="#DejaVuSans-33" x="195.800781"/>
       <use xlink:href="#DejaVuSans-39" x="259.423828"/>
       <use xlink:href="#DejaVuSans-32" x="323.046875"/>
       <use xlink:href="#DejaVuSans-2e" x="386.669922"/>
       <use xlink:href="#DejaVuSans-32" x="418.457031"/>
       <use xlink:href="#DejaVuSans-2e" x="482.080078"/>
       <use xlink:href="#DejaVuSans-32" x="513.867188"/>
      </g>
     </g>
    </g>
    <g id="ytick_8">
     <g id="line2d_13">
      <g>
       <use xlink:href="#m31b6a2a81b" x="144" y="154.53" style="stroke: #000000; stroke-width: 0.8"/>
      </g>
     </g>
     <g id="text_14">
      <!-- 9.B.392.2.3 -->
      <g transform="translate(79.251563 158.329219) scale(0.1 -0.1)">
       <use xlink:href="#DejaVuSans-39"/>
       <use xlink:href="#DejaVuSans-2e" x="63.623047"/>
       <use xlink:href="#DejaVuSans-42" x="95.410156"/>
       <use xlink:href="#DejaVuSans-2e" x="164.013672"/>
       <use xlink:href="#DejaVuSans-33" x="195.800781"/>
       <use xlink:href="#DejaVuSans-39" x="259.423828"/>
       <use xlink:href="#DejaVuSans-32" x="323.046875"/>
       <use xlink:href="#DejaVuSans-2e" x="386.669922"/>
       <use xlink:href="#DejaVuSans-32" x="418.457031"/>
       <use xlink:href="#DejaVuSans-2e" x="482.080078"/>
       <use xlink:href="#DejaVuSans-33" x="513.867188"/>
      </g>
     </g>
    </g>
    <g id="ytick_9">
     <g id="line2d_14">
      <g>
       <use xlink:href="#m31b6a2a81b" x="144" y="139.655" style="stroke: #000000; stroke-width: 0.8"/>
      </g>
     </g>
     <g id="text_15">
      <!-- 9.B.392.3.1 -->
      <g transform="translate(79.251563 143.454219) scale(0.1 -0.1)">
       <use xlink:href="#DejaVuSans-39"/>
       <use xlink:href="#DejaVuSans-2e" x="63.623047"/>
       <use xlink:href="#DejaVuSans-42" x="95.410156"/>
       <use xlink:href="#DejaVuSans-2e" x="164.013672"/>
       <use xlink:href="#DejaVuSans-33" x="195.800781"/>
       <use xlink:href="#DejaVuSans-39" x="259.423828"/>
       <use xlink:href="#DejaVuSans-32" x="323.046875"/>
       <use xlink:href="#DejaVuSans-2e" x="386.669922"/>
       <use xlink:href="#DejaVuSans-33" x="418.457031"/>
       <use xlink:href="#DejaVuSans-2e" x="482.080078"/>
       <use xlink:href="#DejaVuSans-31" x="513.867188"/>
      </g>
     </g>
    </g>
    <g id="ytick_10">
     <g id="line2d_15">
      <g>
       <use xlink:href="#m31b6a2a81b" x="144" y="124.78" style="stroke: #000000; stroke-width: 0.8"/>
      </g>
     </g>
     <g id="text_16">
      <!-- 9.B.392.3.2 -->
      <g transform="translate(79.251563 128.579219) scale(0.1 -0.1)">
       <use xlink:href="#DejaVuSans-39"/>
       <use xlink:href="#DejaVuSans-2e" x="63.623047"/>
       <use xlink:href="#DejaVuSans-42" x="95.410156"/>
       <use xlink:href="#DejaVuSans-2e" x="164.013672"/>
       <use xlink:href="#DejaVuSans-33" x="195.800781"/>
       <use xlink:href="#DejaVuSans-39" x="259.423828"/>
       <use xlink:href="#DejaVuSans-32" x="323.046875"/>
       <use xlink:href="#DejaVuSans-2e" x="386.669922"/>
       <use xlink:href="#DejaVuSans-33" x="418.457031"/>
       <use xlink:href="#DejaVuSans-2e" x="482.080078"/>
       <use xlink:href="#DejaVuSans-32" x="513.867188"/>
      </g>
     </g>
    </g>
    <g id="ytick_11">
     <g id="line2d_16">
      <g>
       <use xlink:href="#m31b6a2a81b" x="144" y="109.905" style="stroke: #000000; stroke-width: 0.8"/>
      </g>
     </g>
     <g id="text_17">
      <!-- 9.B.392.3.3 -->
      <g transform="translate(79.251563 113.704219) scale(0.1 -0.1)">
       <use xlink:href="#DejaVuSans-39"/>
       <use xlink:href="#DejaVuSans-2e" x="63.623047"/>
       <use xlink:href="#DejaVuSans-42" x="95.410156"/>
       <use xlink:href="#DejaVuSans-2e" x="164.013672"/>
       <use xlink:href="#DejaVuSans-33" x="195.800781"/>
       <use xlink:href="#DejaVuSans-39" x="259.423828"/>
       <use xlink:href="#DejaVuSans-32" x="323.046875"/>
       <use xlink:href="#DejaVuSans-2e" x="386.669922"/>
       <use xlink:href="#DejaVuSans-33" x="418.457031"/>
       <use xlink:href="#DejaVuSans-2e" x="482.080078"/>
       <use xlink:href="#DejaVuSans-33" x="513.867188"/>
      </g>
     </g>
    </g>
    <g id="ytick_12">
     <g id="line2d_17">
      <g>
       <use xlink:href="#m31b6a2a81b" x="144" y="95.03" style="stroke: #000000; stroke-width: 0.8"/>
      </g>
     </g>
     <g id="text_18">
      <!-- 9.B.392.4.1 -->
      <g transform="translate(79.251563 98.829219) scale(0.1 -0.1)">
       <use xlink:href="#DejaVuSans-39"/>
       <use xlink:href="#DejaVuSans-2e" x="63.623047"/>
       <use xlink:href="#DejaVuSans-42" x="95.410156"/>
       <use xlink:href="#DejaVuSans-2e" x="164.013672"/>
       <use xlink:href="#DejaVuSans-33" x="195.800781"/>
       <use xlink:href="#DejaVuSans-39" x="259.423828"/>
       <use xlink:href="#DejaVuSans-32" x="323.046875"/>
       <use xlink:href="#DejaVuSans-2e" x="386.669922"/>
       <use xlink:href="#DejaVuSans-34" x="418.457031"/>
       <use xlink:href="#DejaVuSans-2e" x="482.080078"/>
       <use xlink:href="#DejaVuSans-31" x="513.867188"/>
      </g>
     </g>
    </g>
    <g id="ytick_13">
     <g id="line2d_18">
      <g>
       <use xlink:href="#m31b6a2a81b" x="144" y="80.155" style="stroke: #000000; stroke-width: 0.8"/>
      </g>
     </g>
     <g id="text_19">
      <!-- 9.B.392.4.2 -->
      <g transform="translate(79.251563 83.954219) scale(0.1 -0.1)">
       <use xlink:href="#DejaVuSans-39"/>
       <use xlink:href="#DejaVuSans-2e" x="63.623047"/>
       <use xlink:href="#DejaVuSans-42" x="95.410156"/>
       <use xlink:href="#DejaVuSans-2e" x="164.013672"/>
       <use xlink:href="#DejaVuSans-33" x="195.800781"/>
       <use xlink:href="#DejaVuSans-39" x="259.423828"/>
       <use xlink:href="#DejaVuSans-32" x="323.046875"/>
       <use xlink:href="#DejaVuSans-2e" x="386.669922"/>
       <use xlink:href="#DejaVuSans-34" x="418.457031"/>
       <use xlink:href="#DejaVuSans-2e" x="482.080078"/>
       <use xlink:href="#DejaVuSans-32" x="513.867188"/>
      </g>
     </g>
    </g>
    <g id="ytick_14">
     <g id="line2d_19">
      <g>
       <use xlink:href="#m31b6a2a81b" x="144" y="65.28" style="stroke: #000000; stroke-width: 0.8"/>
      </g>
     </g>
     <g id="text_20">
      <!-- 9.B.392.4.3 -->
      <g transform="translate(79.251563 69.079219) scale(0.1 -0.1)">
       <use xlink:href="#DejaVuSans-39"/>
       <use xlink:href="#DejaVuSans-2e" x="63.623047"/>
       <use xlink:href="#DejaVuSans-42" x="95.410156"/>
       <use xlink:href="#DejaVuSans-2e" x="164.013672"/>
       <use xlink:href="#DejaVuSans-33" x="195.800781"/>
       <use xlink:href="#DejaVuSans-39" x="259.423828"/>
       <use xlink:href="#DejaVuSans-32" x="323.046875"/>
       <use xlink:href="#DejaVuSans-2e" x="386.669922"/>
       <use xlink:href="#DejaVuSans-34" x="418.457031"/>
       <use xlink:href="#DejaVuSans-2e" x="482.080078"/>
       <use xlink:href="#DejaVuSans-33" x="513.867188"/>
      </g>
     </g>
    </g>
    <g id="ytick_15">
     <g id="line2d_20">
      <g>
       <use xlink:href="#m31b6a2a81b" x="144" y="50.405" style="stroke: #000000; stroke-width: 0.8"/>
      </g>
     </g>
     <g id="text_21">
      <!-- 9.B.392.4.4 -->
      <g transform="translate(79.251563 54.204219) scale(0.1 -0.1)">
       <use xlink:href="#DejaVuSans-39"/>
       <use xlink:href="#DejaVuSans-2e" x="63.623047"/>
       <use xlink:href="#DejaVuSans-42" x="95.410156"/>
       <use xlink:href="#DejaVuSans-2e" x="164.013672"/>
       <use xlink:href="#DejaVuSans-33" x="195.800781"/>
       <use xlink:href="#DejaVuSans-39" x="259.423828"/>
       <use xlink:href="#DejaVuSans-32" x="323.046875"/>
       <use xlink:href="#DejaVuSans-2e" x="386.669922"/>
       <use xlink:href="#DejaVuSans-34" x="418.457031"/>
       <use xlink:href="#DejaVuSans-2e" x="482.080078"/>
       <use xlink:href="#DejaVuSans-34" x="513.867188"/>
      </g>
     </g>
    </g>
   </g>
   <g id="patch_345">
    <path d="M 144 272.34 
L 144 36.72 
" style="fill: none; stroke: #000000; stroke-width: 0.8; stroke-linejoin: miter; stroke-linecap: square"/>
   </g>
   <g id="patch_346">
    <path d="M 1036.8 272.34 
L 1036.8 36.72 
" style="fill: none; stroke: #000000; stroke-width: 0.8; stroke-linejoin: miter; stroke-linecap: square"/>
   </g>
   <g id="patch_347">
    <path d="M 144 272.34 
L 1036.8 272.34 
" style="fill: none; stroke: #000000; stroke-width: 0.8; stroke-linejoin: miter; stroke-linecap: square"/>
   </g>
   <g id="patch_348">
    <path d="M 144 36.72 
L 1036.8 36.72 
" style="fill: none; stroke: #000000; stroke-width: 0.8; stroke-linejoin: miter; stroke-linecap: square"/>
   </g>
   <g id="text_22">
    <!-- 9.B.392 Summary -->
    <g transform="translate(536.297812 30.72) scale(0.12 -0.12)">
     <defs>
      <path id="DejaVuSans-20" transform="scale(0.015625)"/>
      <path id="DejaVuSans-53" d="M 3425 4513 
L 3425 3897 
Q 3066 4069 2747 4153 
Q 2428 4238 2131 4238 
Q 1616 4238 1336 4038 
Q 1056 3838 1056 3469 
Q 1056 3159 1242 3001 
Q 1428 2844 1947 2747 
L 2328 2669 
Q 3034 2534 3370 2195 
Q 3706 1856 3706 1288 
Q 3706 609 3251 259 
Q 2797 -91 1919 -91 
Q 1588 -91 1214 -16 
Q 841 59 441 206 
L 441 856 
Q 825 641 1194 531 
Q 1563 422 1919 422 
Q 2459 422 2753 634 
Q 3047 847 3047 1241 
Q 3047 1584 2836 1778 
Q 2625 1972 2144 2069 
L 1759 2144 
Q 1053 2284 737 2584 
Q 422 2884 422 3419 
Q 422 4038 858 4394 
Q 1294 4750 2059 4750 
Q 2388 4750 2728 4690 
Q 3069 4631 3425 4513 
z
" transform="scale(0.015625)"/>
      <path id="DejaVuSans-6d" d="M 3328 2828 
Q 3544 3216 3844 3400 
Q 4144 3584 4550 3584 
Q 5097 3584 5394 3201 
Q 5691 2819 5691 2113 
L 5691 0 
L 5113 0 
L 5113 2094 
Q 5113 2597 4934 2840 
Q 4756 3084 4391 3084 
Q 3944 3084 3684 2787 
Q 3425 2491 3425 1978 
L 3425 0 
L 2847 0 
L 2847 2094 
Q 2847 2600 2669 2842 
Q 2491 3084 2119 3084 
Q 1678 3084 1418 2786 
Q 1159 2488 1159 1978 
L 1159 0 
L 581 0 
L 581 3500 
L 1159 3500 
L 1159 2956 
Q 1356 3278 1631 3431 
Q 1906 3584 2284 3584 
Q 2666 3584 2933 3390 
Q 3200 3197 3328 2828 
z
" transform="scale(0.015625)"/>
      <path id="DejaVuSans-72" d="M 2631 2963 
Q 2534 3019 2420 3045 
Q 2306 3072 2169 3072 
Q 1681 3072 1420 2755 
Q 1159 2438 1159 1844 
L 1159 0 
L 581 0 
L 581 3500 
L 1159 3500 
L 1159 2956 
Q 1341 3275 1631 3429 
Q 1922 3584 2338 3584 
Q 2397 3584 2469 3576 
Q 2541 3569 2628 3553 
L 2631 2963 
z
" transform="scale(0.015625)"/>
      <path id="DejaVuSans-79" d="M 2059 -325 
Q 1816 -950 1584 -1140 
Q 1353 -1331 966 -1331 
L 506 -1331 
L 506 -850 
L 844 -850 
Q 1081 -850 1212 -737 
Q 1344 -625 1503 -206 
L 1606 56 
L 191 3500 
L 800 3500 
L 1894 763 
L 2988 3500 
L 3597 3500 
L 2059 -325 
z
" transform="scale(0.015625)"/>
     </defs>
     <use xlink:href="#DejaVuSans-39"/>
     <use xlink:href="#DejaVuSans-2e" x="63.623047"/>
     <use xlink:href="#DejaVuSans-42" x="95.410156"/>
     <use xlink:href="#DejaVuSans-2e" x="164.013672"/>
     <use xlink:href="#DejaVuSans-33" x="195.800781"/>
     <use xlink:href="#DejaVuSans-39" x="259.423828"/>
     <use xlink:href="#DejaVuSans-32" x="323.046875"/>
     <use xlink:href="#DejaVuSans-20" x="386.669922"/>
     <use xlink:href="#DejaVuSans-53" x="418.457031"/>
     <use xlink:href="#DejaVuSans-75" x="481.933594"/>
     <use xlink:href="#DejaVuSans-6d" x="545.3125"/>
     <use xlink:href="#DejaVuSans-6d" x="642.724609"/>
     <use xlink:href="#DejaVuSans-61" x="740.136719"/>
     <use xlink:href="#DejaVuSans-72" x="801.416016"/>
     <use xlink:href="#DejaVuSans-79" x="842.529297"/>
    </g>
   </g>
  </g>
 </g>
 <defs>
  <clipPath id="pa959cb4ca1">
   <rect x="144" y="36.72" width="892.8" height="235.62"/>
  </clipPath>
 </defs>
</svg>
