<?xml version="1.0" encoding="utf-8" standalone="no"?>
<!DOCTYPE svg PUBLIC "-//W3C//DTD SVG 1.1//EN"
  "http://www.w3.org/Graphics/SVG/1.1/DTD/svg11.dtd">
<svg xmlns:xlink="http://www.w3.org/1999/xlink" width="1152pt" height="270pt" viewBox="0 0 1152 270" xmlns="http://www.w3.org/2000/svg" version="1.1">
 <metadata>
  <rdf:RDF xmlns:dc="http://purl.org/dc/elements/1.1/" xmlns:cc="http://creativecommons.org/ns#" xmlns:rdf="http://www.w3.org/1999/02/22-rdf-syntax-ns#">
   <cc:Work>
    <dc:type rdf:resource="http://purl.org/dc/dcmitype/StillImage"/>
    <dc:date>2024-10-24T21:44:50.816967</dc:date>
    <dc:format>image/svg+xml</dc:format>
    <dc:creator>
     <cc:Agent>
      <dc:title>Matplotlib v3.8.4, https://matplotlib.org/</dc:title>
     </cc:Agent>
    </dc:creator>
   </cc:Work>
  </rdf:RDF>
 </metadata>
 <defs>
  <style type="text/css">*{stroke-linejoin: round; stroke-linecap: butt}</style>
 </defs>
 <g id="figure_1">
  <g id="patch_1">
   <path d="M 0 270 
L 1152 270 
L 1152 0 
L 0 0 
z
" style="fill: #ffffff"/>
  </g>
  <g id="axes_1">
   <g id="patch_2">
    <path d="M 144 240.3 
L 1036.8 240.3 
L 1036.8 32.4 
L 144 32.4 
z
" style="fill: #ffffff"/>
   </g>
   <g id="patch_3">
    <path d="M 144 228.030242 
L 185.107961 228.030242 
L 185.107961 227.572984 
L 144 227.572984 
z
" clip-path="url(#p97bf3907ae)" style="fill: #0000ff"/>
   </g>
   <g id="patch_4">
    <path d="M 187.271538 230.85 
L 557.243184 230.85 
L 557.243184 224.753226 
L 187.271538 224.753226 
z
" clip-path="url(#p97bf3907ae)" style="fill: #0000ff"/>
   </g>
   <g id="patch_5">
    <path d="M 559.406761 228.030242 
L 799.563795 228.030242 
L 799.563795 227.572984 
L 559.406761 227.572984 
z
" clip-path="url(#p97bf3907ae)" style="fill: #0000ff"/>
   </g>
   <g id="patch_6">
    <path d="M 144 212.788306 
L 165.635769 212.788306 
L 165.635769 212.331048 
L 144 212.331048 
z
" clip-path="url(#p97bf3907ae)" style="fill: #0000ff"/>
   </g>
   <g id="patch_7">
    <path d="M 167.799346 215.608065 
L 529.116685 215.608065 
L 529.116685 209.51129 
L 167.799346 209.51129 
z
" clip-path="url(#p97bf3907ae)" style="fill: #0000ff"/>
   </g>
   <g id="patch_8">
    <path d="M 531.280262 212.788306 
L 548.588877 212.788306 
L 548.588877 212.331048 
L 531.280262 212.331048 
z
" clip-path="url(#p97bf3907ae)" style="fill: #0000ff"/>
   </g>
   <g id="patch_9">
    <path d="M 144 197.546371 
L 258.669575 197.546371 
L 258.669575 197.089113 
L 144 197.089113 
z
" clip-path="url(#p97bf3907ae)" style="fill: #0000ff"/>
   </g>
   <g id="patch_10">
    <path d="M 260.833152 200.366129 
L 531.280262 200.366129 
L 531.280262 194.269355 
L 260.833152 194.269355 
z
" clip-path="url(#p97bf3907ae)" style="fill: #0000ff"/>
   </g>
   <g id="patch_11">
    <path d="M 533.443839 197.546371 
L 637.295529 197.546371 
L 637.295529 197.089113 
L 533.443839 197.089113 
z
" clip-path="url(#p97bf3907ae)" style="fill: #0000ff"/>
   </g>
   <g id="patch_12">
    <path d="M 144 182.304435 
L 152.654308 182.304435 
L 152.654308 181.847177 
L 144 181.847177 
z
" clip-path="url(#p97bf3907ae)" style="fill: #0000ff"/>
   </g>
   <g id="patch_13">
    <path d="M 154.817884 185.124194 
L 232.706652 185.124194 
L 232.706652 179.027419 
L 154.817884 179.027419 
z
" clip-path="url(#p97bf3907ae)" style="fill: #0000ff"/>
   </g>
   <g id="patch_14">
    <path d="M 234.870229 182.304435 
L 994.285714 182.304435 
L 994.285714 181.847177 
L 234.870229 181.847177 
z
" clip-path="url(#p97bf3907ae)" style="fill: #0000ff"/>
   </g>
   <g id="patch_15">
    <path d="M 144 167.0625 
L 165.635769 167.0625 
L 165.635769 166.605242 
L 144 166.605242 
z
" clip-path="url(#p97bf3907ae)" style="fill: #0000ff"/>
   </g>
   <g id="patch_16">
    <path d="M 167.799346 169.882258 
L 535.607415 169.882258 
L 535.607415 163.785484 
L 167.799346 163.785484 
z
" clip-path="url(#p97bf3907ae)" style="fill: #0000ff"/>
   </g>
   <g id="patch_17">
    <path d="M 537.770992 167.0625 
L 578.878953 167.0625 
L 578.878953 166.605242 
L 537.770992 166.605242 
z
" clip-path="url(#p97bf3907ae)" style="fill: #0000ff"/>
   </g>
   <g id="patch_18">
    <path d="M 144 151.820565 
L 161.308615 151.820565 
L 161.308615 151.363306 
L 144 151.363306 
z
" clip-path="url(#p97bf3907ae)" style="fill: #0000ff"/>
   </g>
   <g id="patch_19">
    <path d="M 163.472192 154.640323 
L 570.224646 154.640323 
L 570.224646 148.543548 
L 163.472192 148.543548 
z
" clip-path="url(#p97bf3907ae)" style="fill: #0000ff"/>
   </g>
   <g id="patch_20">
    <path d="M 572.388222 151.820565 
L 589.696838 151.820565 
L 589.696838 151.363306 
L 572.388222 151.363306 
z
" clip-path="url(#p97bf3907ae)" style="fill: #0000ff"/>
   </g>
   <g id="patch_21">
    <path d="M 144 136.578629 
L 180.780807 136.578629 
L 180.780807 136.121371 
L 144 136.121371 
z
" clip-path="url(#p97bf3907ae)" style="fill: #0000ff"/>
   </g>
   <g id="patch_22">
    <path d="M 182.944384 139.398387 
L 583.206107 139.398387 
L 583.206107 133.301613 
L 182.944384 133.301613 
z
" clip-path="url(#p97bf3907ae)" style="fill: #0000ff"/>
   </g>
   <g id="patch_23">
    <path d="M 585.369684 136.578629 
L 624.314068 136.578629 
L 624.314068 136.121371 
L 585.369684 136.121371 
z
" clip-path="url(#p97bf3907ae)" style="fill: #0000ff"/>
   </g>
   <g id="patch_24">
    <path d="M 144 121.336694 
L 180.780807 121.336694 
L 180.780807 120.879435 
L 144 120.879435 
z
" clip-path="url(#p97bf3907ae)" style="fill: #0000ff"/>
   </g>
   <g id="patch_25">
    <path d="M 182.944384 124.156452 
L 583.206107 124.156452 
L 583.206107 118.059677 
L 182.944384 118.059677 
z
" clip-path="url(#p97bf3907ae)" style="fill: #0000ff"/>
   </g>
   <g id="patch_26">
    <path d="M 585.369684 121.336694 
L 600.514722 121.336694 
L 600.514722 120.879435 
L 585.369684 120.879435 
z
" clip-path="url(#p97bf3907ae)" style="fill: #0000ff"/>
   </g>
   <g id="patch_27">
    <path d="M 144 106.094758 
L 163.472192 106.094758 
L 163.472192 105.6375 
L 144 105.6375 
z
" clip-path="url(#p97bf3907ae)" style="fill: #0000ff"/>
   </g>
   <g id="patch_28">
    <path d="M 165.635769 108.914516 
L 565.897492 108.914516 
L 565.897492 102.817742 
L 165.635769 102.817742 
z
" clip-path="url(#p97bf3907ae)" style="fill: #0000ff"/>
   </g>
   <g id="patch_29">
    <path d="M 568.061069 106.094758 
L 604.841876 106.094758 
L 604.841876 105.6375 
L 568.061069 105.6375 
z
" clip-path="url(#p97bf3907ae)" style="fill: #0000ff"/>
   </g>
   <g id="patch_30">
    <path d="M 144 90.852823 
L 163.472192 90.852823 
L 163.472192 90.395565 
L 144 90.395565 
z
" clip-path="url(#p97bf3907ae)" style="fill: #0000ff"/>
   </g>
   <g id="patch_31">
    <path d="M 165.635769 93.672581 
L 539.934569 93.672581 
L 539.934569 87.575806 
L 165.635769 87.575806 
z
" clip-path="url(#p97bf3907ae)" style="fill: #0000ff"/>
   </g>
   <g id="patch_32">
    <path d="M 542.098146 90.852823 
L 576.715376 90.852823 
L 576.715376 90.395565 
L 542.098146 90.395565 
z
" clip-path="url(#p97bf3907ae)" style="fill: #0000ff"/>
   </g>
   <g id="patch_33">
    <path d="M 144 75.610887 
L 191.598691 75.610887 
L 191.598691 75.153629 
L 144 75.153629 
z
" clip-path="url(#p97bf3907ae)" style="fill: #0000ff"/>
   </g>
   <g id="patch_34">
    <path d="M 193.762268 78.430645 
L 596.187568 78.430645 
L 596.187568 72.333871 
L 193.762268 72.333871 
z
" clip-path="url(#p97bf3907ae)" style="fill: #0000ff"/>
   </g>
   <g id="patch_35">
    <path d="M 598.351145 75.610887 
L 635.131952 75.610887 
L 635.131952 75.153629 
L 598.351145 75.153629 
z
" clip-path="url(#p97bf3907ae)" style="fill: #0000ff"/>
   </g>
   <g id="patch_36">
    <path d="M 144 60.368952 
L 172.126499 60.368952 
L 172.126499 59.911694 
L 144 59.911694 
z
" clip-path="url(#p97bf3907ae)" style="fill: #0000ff"/>
   </g>
   <g id="patch_37">
    <path d="M 174.290076 63.18871 
L 574.551799 63.18871 
L 574.551799 57.091935 
L 174.290076 57.091935 
z
" clip-path="url(#p97bf3907ae)" style="fill: #0000ff"/>
   </g>
   <g id="patch_38">
    <path d="M 576.715376 60.368952 
L 645.949836 60.368952 
L 645.949836 59.911694 
L 576.715376 59.911694 
z
" clip-path="url(#p97bf3907ae)" style="fill: #0000ff"/>
   </g>
   <g id="patch_39">
    <path d="M 144 45.127016 
L 353.866957 45.127016 
L 353.866957 44.669758 
L 144 44.669758 
z
" clip-path="url(#p97bf3907ae)" style="fill: #0000ff"/>
   </g>
   <g id="patch_40">
    <path d="M 356.030534 47.946774 
L 767.110142 47.946774 
L 767.110142 41.85 
L 356.030534 41.85 
z
" clip-path="url(#p97bf3907ae)" style="fill: #0000ff"/>
   </g>
   <g id="patch_41">
    <path d="M 769.273719 45.127016 
L 799.563795 45.127016 
L 799.563795 44.669758 
L 769.273719 44.669758 
z
" clip-path="url(#p97bf3907ae)" style="fill: #0000ff"/>
   </g>
   <g id="matplotlib.axis_1">
    <g id="xtick_1">
     <g id="line2d_1">
      <defs>
       <path id="m701fe05405" d="M 0 0 
L 0 3.5 
" style="stroke: #000000; stroke-width: 0.8"/>
      </defs>
      <g>
       <use xlink:href="#m701fe05405" x="250.015267" y="240.3" style="stroke: #000000; stroke-width: 0.8"/>
      </g>
     </g>
     <g id="text_1">
      <!-- 50 -->
      <g transform="translate(243.652767 254.898438) scale(0.1 -0.1)">
       <defs>
        <path id="DejaVuSans-35" d="M 691 4666 
L 3169 4666 
L 3169 4134 
L 1269 4134 
L 1269 2991 
Q 1406 3038 1543 3061 
Q 1681 3084 1819 3084 
Q 2600 3084 3056 2656 
Q 3513 2228 3513 1497 
Q 3513 744 3044 326 
Q 2575 -91 1722 -91 
Q 1428 -91 1123 -41 
Q 819 9 494 109 
L 494 744 
Q 775 591 1075 516 
Q 1375 441 1709 441 
Q 2250 441 2565 725 
Q 2881 1009 2881 1497 
Q 2881 1984 2565 2268 
Q 2250 2553 1709 2553 
Q 1456 2553 1204 2497 
Q 953 2441 691 2322 
L 691 4666 
z
" transform="scale(0.015625)"/>
        <path id="DejaVuSans-30" d="M 2034 4250 
Q 1547 4250 1301 3770 
Q 1056 3291 1056 2328 
Q 1056 1369 1301 889 
Q 1547 409 2034 409 
Q 2525 409 2770 889 
Q 3016 1369 3016 2328 
Q 3016 3291 2770 3770 
Q 2525 4250 2034 4250 
z
M 2034 4750 
Q 2819 4750 3233 4129 
Q 3647 3509 3647 2328 
Q 3647 1150 3233 529 
Q 2819 -91 2034 -91 
Q 1250 -91 836 529 
Q 422 1150 422 2328 
Q 422 3509 836 4129 
Q 1250 4750 2034 4750 
z
" transform="scale(0.015625)"/>
       </defs>
       <use xlink:href="#DejaVuSans-35"/>
       <use xlink:href="#DejaVuSans-30" x="63.623047"/>
      </g>
     </g>
    </g>
    <g id="xtick_2">
     <g id="line2d_2">
      <g>
       <use xlink:href="#m701fe05405" x="358.194111" y="240.3" style="stroke: #000000; stroke-width: 0.8"/>
      </g>
     </g>
     <g id="text_2">
      <!-- 100 -->
      <g transform="translate(348.650361 254.898438) scale(0.1 -0.1)">
       <defs>
        <path id="DejaVuSans-31" d="M 794 531 
L 1825 531 
L 1825 4091 
L 703 3866 
L 703 4441 
L 1819 4666 
L 2450 4666 
L 2450 531 
L 3481 531 
L 3481 0 
L 794 0 
L 794 531 
z
" transform="scale(0.015625)"/>
       </defs>
       <use xlink:href="#DejaVuSans-31"/>
       <use xlink:href="#DejaVuSans-30" x="63.623047"/>
       <use xlink:href="#DejaVuSans-30" x="127.246094"/>
      </g>
     </g>
    </g>
    <g id="xtick_3">
     <g id="line2d_3">
      <g>
       <use xlink:href="#m701fe05405" x="466.372955" y="240.3" style="stroke: #000000; stroke-width: 0.8"/>
      </g>
     </g>
     <g id="text_3">
      <!-- 150 -->
      <g transform="translate(456.829205 254.898438) scale(0.1 -0.1)">
       <use xlink:href="#DejaVuSans-31"/>
       <use xlink:href="#DejaVuSans-35" x="63.623047"/>
       <use xlink:href="#DejaVuSans-30" x="127.246094"/>
      </g>
     </g>
    </g>
    <g id="xtick_4">
     <g id="line2d_4">
      <g>
       <use xlink:href="#m701fe05405" x="574.551799" y="240.3" style="stroke: #000000; stroke-width: 0.8"/>
      </g>
     </g>
     <g id="text_4">
      <!-- 200 -->
      <g transform="translate(565.008049 254.898438) scale(0.1 -0.1)">
       <defs>
        <path id="DejaVuSans-32" d="M 1228 531 
L 3431 531 
L 3431 0 
L 469 0 
L 469 531 
Q 828 903 1448 1529 
Q 2069 2156 2228 2338 
Q 2531 2678 2651 2914 
Q 2772 3150 2772 3378 
Q 2772 3750 2511 3984 
Q 2250 4219 1831 4219 
Q 1534 4219 1204 4116 
Q 875 4013 500 3803 
L 500 4441 
Q 881 4594 1212 4672 
Q 1544 4750 1819 4750 
Q 2544 4750 2975 4387 
Q 3406 4025 3406 3419 
Q 3406 3131 3298 2873 
Q 3191 2616 2906 2266 
Q 2828 2175 2409 1742 
Q 1991 1309 1228 531 
z
" transform="scale(0.015625)"/>
       </defs>
       <use xlink:href="#DejaVuSans-32"/>
       <use xlink:href="#DejaVuSans-30" x="63.623047"/>
       <use xlink:href="#DejaVuSans-30" x="127.246094"/>
      </g>
     </g>
    </g>
    <g id="xtick_5">
     <g id="line2d_5">
      <g>
       <use xlink:href="#m701fe05405" x="682.730643" y="240.3" style="stroke: #000000; stroke-width: 0.8"/>
      </g>
     </g>
     <g id="text_5">
      <!-- 250 -->
      <g transform="translate(673.186893 254.898438) scale(0.1 -0.1)">
       <use xlink:href="#DejaVuSans-32"/>
       <use xlink:href="#DejaVuSans-35" x="63.623047"/>
       <use xlink:href="#DejaVuSans-30" x="127.246094"/>
      </g>
     </g>
    </g>
    <g id="xtick_6">
     <g id="line2d_6">
      <g>
       <use xlink:href="#m701fe05405" x="790.909487" y="240.3" style="stroke: #000000; stroke-width: 0.8"/>
      </g>
     </g>
     <g id="text_6">
      <!-- 300 -->
      <g transform="translate(781.365737 254.898438) scale(0.1 -0.1)">
       <defs>
        <path id="DejaVuSans-33" d="M 2597 2516 
Q 3050 2419 3304 2112 
Q 3559 1806 3559 1356 
Q 3559 666 3084 287 
Q 2609 -91 1734 -91 
Q 1441 -91 1130 -33 
Q 819 25 488 141 
L 488 750 
Q 750 597 1062 519 
Q 1375 441 1716 441 
Q 2309 441 2620 675 
Q 2931 909 2931 1356 
Q 2931 1769 2642 2001 
Q 2353 2234 1838 2234 
L 1294 2234 
L 1294 2753 
L 1863 2753 
Q 2328 2753 2575 2939 
Q 2822 3125 2822 3475 
Q 2822 3834 2567 4026 
Q 2313 4219 1838 4219 
Q 1578 4219 1281 4162 
Q 984 4106 628 3988 
L 628 4550 
Q 988 4650 1302 4700 
Q 1616 4750 1894 4750 
Q 2613 4750 3031 4423 
Q 3450 4097 3450 3541 
Q 3450 3153 3228 2886 
Q 3006 2619 2597 2516 
z
" transform="scale(0.015625)"/>
       </defs>
       <use xlink:href="#DejaVuSans-33"/>
       <use xlink:href="#DejaVuSans-30" x="63.623047"/>
       <use xlink:href="#DejaVuSans-30" x="127.246094"/>
      </g>
     </g>
    </g>
    <g id="xtick_7">
     <g id="line2d_7">
      <g>
       <use xlink:href="#m701fe05405" x="899.088332" y="240.3" style="stroke: #000000; stroke-width: 0.8"/>
      </g>
     </g>
     <g id="text_7">
      <!-- 350 -->
      <g transform="translate(889.544582 254.898438) scale(0.1 -0.1)">
       <use xlink:href="#DejaVuSans-33"/>
       <use xlink:href="#DejaVuSans-35" x="63.623047"/>
       <use xlink:href="#DejaVuSans-30" x="127.246094"/>
      </g>
     </g>
    </g>
    <g id="xtick_8">
     <g id="line2d_8">
      <g>
       <use xlink:href="#m701fe05405" x="1007.267176" y="240.3" style="stroke: #000000; stroke-width: 0.8"/>
      </g>
     </g>
     <g id="text_8">
      <!-- 400 -->
      <g transform="translate(997.723426 254.898438) scale(0.1 -0.1)">
       <defs>
        <path id="DejaVuSans-34" d="M 2419 4116 
L 825 1625 
L 2419 1625 
L 2419 4116 
z
M 2253 4666 
L 3047 4666 
L 3047 1625 
L 3713 1625 
L 3713 1100 
L 3047 1100 
L 3047 0 
L 2419 0 
L 2419 1100 
L 313 1100 
L 313 1709 
L 2253 4666 
z
" transform="scale(0.015625)"/>
       </defs>
       <use xlink:href="#DejaVuSans-34"/>
       <use xlink:href="#DejaVuSans-30" x="63.623047"/>
       <use xlink:href="#DejaVuSans-30" x="127.246094"/>
      </g>
     </g>
    </g>
    <g id="text_9">
     <!-- Residual -->
     <g transform="translate(569.284375 268.576563) scale(0.1 -0.1)">
      <defs>
       <path id="DejaVuSans-52" d="M 2841 2188 
Q 3044 2119 3236 1894 
Q 3428 1669 3622 1275 
L 4263 0 
L 3584 0 
L 2988 1197 
Q 2756 1666 2539 1819 
Q 2322 1972 1947 1972 
L 1259 1972 
L 1259 0 
L 628 0 
L 628 4666 
L 2053 4666 
Q 2853 4666 3247 4331 
Q 3641 3997 3641 3322 
Q 3641 2881 3436 2590 
Q 3231 2300 2841 2188 
z
M 1259 4147 
L 1259 2491 
L 2053 2491 
Q 2509 2491 2742 2702 
Q 2975 2913 2975 3322 
Q 2975 3731 2742 3939 
Q 2509 4147 2053 4147 
L 1259 4147 
z
" transform="scale(0.015625)"/>
       <path id="DejaVuSans-65" d="M 3597 1894 
L 3597 1613 
L 953 1613 
Q 991 1019 1311 708 
Q 1631 397 2203 397 
Q 2534 397 2845 478 
Q 3156 559 3463 722 
L 3463 178 
Q 3153 47 2828 -22 
Q 2503 -91 2169 -91 
Q 1331 -91 842 396 
Q 353 884 353 1716 
Q 353 2575 817 3079 
Q 1281 3584 2069 3584 
Q 2775 3584 3186 3129 
Q 3597 2675 3597 1894 
z
M 3022 2063 
Q 3016 2534 2758 2815 
Q 2500 3097 2075 3097 
Q 1594 3097 1305 2825 
Q 1016 2553 972 2059 
L 3022 2063 
z
" transform="scale(0.015625)"/>
       <path id="DejaVuSans-73" d="M 2834 3397 
L 2834 2853 
Q 2591 2978 2328 3040 
Q 2066 3103 1784 3103 
Q 1356 3103 1142 2972 
Q 928 2841 928 2578 
Q 928 2378 1081 2264 
Q 1234 2150 1697 2047 
L 1894 2003 
Q 2506 1872 2764 1633 
Q 3022 1394 3022 966 
Q 3022 478 2636 193 
Q 2250 -91 1575 -91 
Q 1294 -91 989 -36 
Q 684 19 347 128 
L 347 722 
Q 666 556 975 473 
Q 1284 391 1588 391 
Q 1994 391 2212 530 
Q 2431 669 2431 922 
Q 2431 1156 2273 1281 
Q 2116 1406 1581 1522 
L 1381 1569 
Q 847 1681 609 1914 
Q 372 2147 372 2553 
Q 372 3047 722 3315 
Q 1072 3584 1716 3584 
Q 2034 3584 2315 3537 
Q 2597 3491 2834 3397 
z
" transform="scale(0.015625)"/>
       <path id="DejaVuSans-69" d="M 603 3500 
L 1178 3500 
L 1178 0 
L 603 0 
L 603 3500 
z
M 603 4863 
L 1178 4863 
L 1178 4134 
L 603 4134 
L 603 4863 
z
" transform="scale(0.015625)"/>
       <path id="DejaVuSans-64" d="M 2906 2969 
L 2906 4863 
L 3481 4863 
L 3481 0 
L 2906 0 
L 2906 525 
Q 2725 213 2448 61 
Q 2172 -91 1784 -91 
Q 1150 -91 751 415 
Q 353 922 353 1747 
Q 353 2572 751 3078 
Q 1150 3584 1784 3584 
Q 2172 3584 2448 3432 
Q 2725 3281 2906 2969 
z
M 947 1747 
Q 947 1113 1208 752 
Q 1469 391 1925 391 
Q 2381 391 2643 752 
Q 2906 1113 2906 1747 
Q 2906 2381 2643 2742 
Q 2381 3103 1925 3103 
Q 1469 3103 1208 2742 
Q 947 2381 947 1747 
z
" transform="scale(0.015625)"/>
       <path id="DejaVuSans-75" d="M 544 1381 
L 544 3500 
L 1119 3500 
L 1119 1403 
Q 1119 906 1312 657 
Q 1506 409 1894 409 
Q 2359 409 2629 706 
Q 2900 1003 2900 1516 
L 2900 3500 
L 3475 3500 
L 3475 0 
L 2900 0 
L 2900 538 
Q 2691 219 2414 64 
Q 2138 -91 1772 -91 
Q 1169 -91 856 284 
Q 544 659 544 1381 
z
M 1991 3584 
L 1991 3584 
z
" transform="scale(0.015625)"/>
       <path id="DejaVuSans-61" d="M 2194 1759 
Q 1497 1759 1228 1600 
Q 959 1441 959 1056 
Q 959 750 1161 570 
Q 1363 391 1709 391 
Q 2188 391 2477 730 
Q 2766 1069 2766 1631 
L 2766 1759 
L 2194 1759 
z
M 3341 1997 
L 3341 0 
L 2766 0 
L 2766 531 
Q 2569 213 2275 61 
Q 1981 -91 1556 -91 
Q 1019 -91 701 211 
Q 384 513 384 1019 
Q 384 1609 779 1909 
Q 1175 2209 1959 2209 
L 2766 2209 
L 2766 2266 
Q 2766 2663 2505 2880 
Q 2244 3097 1772 3097 
Q 1472 3097 1187 3025 
Q 903 2953 641 2809 
L 641 3341 
Q 956 3463 1253 3523 
Q 1550 3584 1831 3584 
Q 2591 3584 2966 3190 
Q 3341 2797 3341 1997 
z
" transform="scale(0.015625)"/>
       <path id="DejaVuSans-6c" d="M 603 4863 
L 1178 4863 
L 1178 0 
L 603 0 
L 603 4863 
z
" transform="scale(0.015625)"/>
      </defs>
      <use xlink:href="#DejaVuSans-52"/>
      <use xlink:href="#DejaVuSans-65" x="64.982422"/>
      <use xlink:href="#DejaVuSans-73" x="126.505859"/>
      <use xlink:href="#DejaVuSans-69" x="178.605469"/>
      <use xlink:href="#DejaVuSans-64" x="206.388672"/>
      <use xlink:href="#DejaVuSans-75" x="269.865234"/>
      <use xlink:href="#DejaVuSans-61" x="333.244141"/>
      <use xlink:href="#DejaVuSans-6c" x="394.523438"/>
     </g>
    </g>
   </g>
   <g id="matplotlib.axis_2">
    <g id="ytick_1">
     <g id="line2d_9">
      <defs>
       <path id="m4be8ad707e" d="M 0 0 
L -3.5 0 
" style="stroke: #000000; stroke-width: 0.8"/>
      </defs>
      <g>
       <use xlink:href="#m4be8ad707e" x="144" y="227.801613" style="stroke: #000000; stroke-width: 0.8"/>
      </g>
     </g>
     <g id="text_10">
      <!-- 9.B.257.1.6 -->
      <g transform="translate(79.251563 231.600832) scale(0.1 -0.1)">
       <defs>
        <path id="DejaVuSans-39" d="M 703 97 
L 703 672 
Q 941 559 1184 500 
Q 1428 441 1663 441 
Q 2288 441 2617 861 
Q 2947 1281 2994 2138 
Q 2813 1869 2534 1725 
Q 2256 1581 1919 1581 
Q 1219 1581 811 2004 
Q 403 2428 403 3163 
Q 403 3881 828 4315 
Q 1253 4750 1959 4750 
Q 2769 4750 3195 4129 
Q 3622 3509 3622 2328 
Q 3622 1225 3098 567 
Q 2575 -91 1691 -91 
Q 1453 -91 1209 -44 
Q 966 3 703 97 
z
M 1959 2075 
Q 2384 2075 2632 2365 
Q 2881 2656 2881 3163 
Q 2881 3666 2632 3958 
Q 2384 4250 1959 4250 
Q 1534 4250 1286 3958 
Q 1038 3666 1038 3163 
Q 1038 2656 1286 2365 
Q 1534 2075 1959 2075 
z
" transform="scale(0.015625)"/>
        <path id="DejaVuSans-2e" d="M 684 794 
L 1344 794 
L 1344 0 
L 684 0 
L 684 794 
z
" transform="scale(0.015625)"/>
        <path id="DejaVuSans-42" d="M 1259 2228 
L 1259 519 
L 2272 519 
Q 2781 519 3026 730 
Q 3272 941 3272 1375 
Q 3272 1813 3026 2020 
Q 2781 2228 2272 2228 
L 1259 2228 
z
M 1259 4147 
L 1259 2741 
L 2194 2741 
Q 2656 2741 2882 2914 
Q 3109 3088 3109 3444 
Q 3109 3797 2882 3972 
Q 2656 4147 2194 4147 
L 1259 4147 
z
M 628 4666 
L 2241 4666 
Q 2963 4666 3353 4366 
Q 3744 4066 3744 3513 
Q 3744 3084 3544 2831 
Q 3344 2578 2956 2516 
Q 3422 2416 3680 2098 
Q 3938 1781 3938 1306 
Q 3938 681 3513 340 
Q 3088 0 2303 0 
L 628 0 
L 628 4666 
z
" transform="scale(0.015625)"/>
        <path id="DejaVuSans-37" d="M 525 4666 
L 3525 4666 
L 3525 4397 
L 1831 0 
L 1172 0 
L 2766 4134 
L 525 4134 
L 525 4666 
z
" transform="scale(0.015625)"/>
        <path id="DejaVuSans-36" d="M 2113 2584 
Q 1688 2584 1439 2293 
Q 1191 2003 1191 1497 
Q 1191 994 1439 701 
Q 1688 409 2113 409 
Q 2538 409 2786 701 
Q 3034 994 3034 1497 
Q 3034 2003 2786 2293 
Q 2538 2584 2113 2584 
z
M 3366 4563 
L 3366 3988 
Q 3128 4100 2886 4159 
Q 2644 4219 2406 4219 
Q 1781 4219 1451 3797 
Q 1122 3375 1075 2522 
Q 1259 2794 1537 2939 
Q 1816 3084 2150 3084 
Q 2853 3084 3261 2657 
Q 3669 2231 3669 1497 
Q 3669 778 3244 343 
Q 2819 -91 2113 -91 
Q 1303 -91 875 529 
Q 447 1150 447 2328 
Q 447 3434 972 4092 
Q 1497 4750 2381 4750 
Q 2619 4750 2861 4703 
Q 3103 4656 3366 4563 
z
" transform="scale(0.015625)"/>
       </defs>
       <use xlink:href="#DejaVuSans-39"/>
       <use xlink:href="#DejaVuSans-2e" x="63.623047"/>
       <use xlink:href="#DejaVuSans-42" x="95.410156"/>
       <use xlink:href="#DejaVuSans-2e" x="164.013672"/>
       <use xlink:href="#DejaVuSans-32" x="195.800781"/>
       <use xlink:href="#DejaVuSans-35" x="259.423828"/>
       <use xlink:href="#DejaVuSans-37" x="323.046875"/>
       <use xlink:href="#DejaVuSans-2e" x="386.669922"/>
       <use xlink:href="#DejaVuSans-31" x="418.457031"/>
       <use xlink:href="#DejaVuSans-2e" x="482.080078"/>
       <use xlink:href="#DejaVuSans-36" x="513.867188"/>
      </g>
     </g>
    </g>
    <g id="ytick_2">
     <g id="line2d_10">
      <g>
       <use xlink:href="#m4be8ad707e" x="144" y="212.559677" style="stroke: #000000; stroke-width: 0.8"/>
      </g>
     </g>
     <g id="text_11">
      <!-- 9.B.257.1.7 -->
      <g transform="translate(79.251563 216.358896) scale(0.1 -0.1)">
       <use xlink:href="#DejaVuSans-39"/>
       <use xlink:href="#DejaVuSans-2e" x="63.623047"/>
       <use xlink:href="#DejaVuSans-42" x="95.410156"/>
       <use xlink:href="#DejaVuSans-2e" x="164.013672"/>
       <use xlink:href="#DejaVuSans-32" x="195.800781"/>
       <use xlink:href="#DejaVuSans-35" x="259.423828"/>
       <use xlink:href="#DejaVuSans-37" x="323.046875"/>
       <use xlink:href="#DejaVuSans-2e" x="386.669922"/>
       <use xlink:href="#DejaVuSans-31" x="418.457031"/>
       <use xlink:href="#DejaVuSans-2e" x="482.080078"/>
       <use xlink:href="#DejaVuSans-37" x="513.867188"/>
      </g>
     </g>
    </g>
    <g id="ytick_3">
     <g id="line2d_11">
      <g>
       <use xlink:href="#m4be8ad707e" x="144" y="197.317742" style="stroke: #000000; stroke-width: 0.8"/>
      </g>
     </g>
     <g id="text_12">
      <!-- 9.B.257.2.2 -->
      <g transform="translate(79.251563 201.116961) scale(0.1 -0.1)">
       <use xlink:href="#DejaVuSans-39"/>
       <use xlink:href="#DejaVuSans-2e" x="63.623047"/>
       <use xlink:href="#DejaVuSans-42" x="95.410156"/>
       <use xlink:href="#DejaVuSans-2e" x="164.013672"/>
       <use xlink:href="#DejaVuSans-32" x="195.800781"/>
       <use xlink:href="#DejaVuSans-35" x="259.423828"/>
       <use xlink:href="#DejaVuSans-37" x="323.046875"/>
       <use xlink:href="#DejaVuSans-2e" x="386.669922"/>
       <use xlink:href="#DejaVuSans-32" x="418.457031"/>
       <use xlink:href="#DejaVuSans-2e" x="482.080078"/>
       <use xlink:href="#DejaVuSans-32" x="513.867188"/>
      </g>
     </g>
    </g>
    <g id="ytick_4">
     <g id="line2d_12">
      <g>
       <use xlink:href="#m4be8ad707e" x="144" y="182.075806" style="stroke: #000000; stroke-width: 0.8"/>
      </g>
     </g>
     <g id="text_13">
      <!-- 9.B.257.2.3 -->
      <g transform="translate(79.251563 185.875025) scale(0.1 -0.1)">
       <use xlink:href="#DejaVuSans-39"/>
       <use xlink:href="#DejaVuSans-2e" x="63.623047"/>
       <use xlink:href="#DejaVuSans-42" x="95.410156"/>
       <use xlink:href="#DejaVuSans-2e" x="164.013672"/>
       <use xlink:href="#DejaVuSans-32" x="195.800781"/>
       <use xlink:href="#DejaVuSans-35" x="259.423828"/>
       <use xlink:href="#DejaVuSans-37" x="323.046875"/>
       <use xlink:href="#DejaVuSans-2e" x="386.669922"/>
       <use xlink:href="#DejaVuSans-32" x="418.457031"/>
       <use xlink:href="#DejaVuSans-2e" x="482.080078"/>
       <use xlink:href="#DejaVuSans-33" x="513.867188"/>
      </g>
     </g>
    </g>
    <g id="ytick_5">
     <g id="line2d_13">
      <g>
       <use xlink:href="#m4be8ad707e" x="144" y="166.833871" style="stroke: #000000; stroke-width: 0.8"/>
      </g>
     </g>
     <g id="text_14">
      <!-- 9.B.257.3.1 -->
      <g transform="translate(79.251563 170.63309) scale(0.1 -0.1)">
       <use xlink:href="#DejaVuSans-39"/>
       <use xlink:href="#DejaVuSans-2e" x="63.623047"/>
       <use xlink:href="#DejaVuSans-42" x="95.410156"/>
       <use xlink:href="#DejaVuSans-2e" x="164.013672"/>
       <use xlink:href="#DejaVuSans-32" x="195.800781"/>
       <use xlink:href="#DejaVuSans-35" x="259.423828"/>
       <use xlink:href="#DejaVuSans-37" x="323.046875"/>
       <use xlink:href="#DejaVuSans-2e" x="386.669922"/>
       <use xlink:href="#DejaVuSans-33" x="418.457031"/>
       <use xlink:href="#DejaVuSans-2e" x="482.080078"/>
       <use xlink:href="#DejaVuSans-31" x="513.867188"/>
      </g>
     </g>
    </g>
    <g id="ytick_6">
     <g id="line2d_14">
      <g>
       <use xlink:href="#m4be8ad707e" x="144" y="151.591935" style="stroke: #000000; stroke-width: 0.8"/>
      </g>
     </g>
     <g id="text_15">
      <!-- 9.B.257.3.2 -->
      <g transform="translate(79.251563 155.391154) scale(0.1 -0.1)">
       <use xlink:href="#DejaVuSans-39"/>
       <use xlink:href="#DejaVuSans-2e" x="63.623047"/>
       <use xlink:href="#DejaVuSans-42" x="95.410156"/>
       <use xlink:href="#DejaVuSans-2e" x="164.013672"/>
       <use xlink:href="#DejaVuSans-32" x="195.800781"/>
       <use xlink:href="#DejaVuSans-35" x="259.423828"/>
       <use xlink:href="#DejaVuSans-37" x="323.046875"/>
       <use xlink:href="#DejaVuSans-2e" x="386.669922"/>
       <use xlink:href="#DejaVuSans-33" x="418.457031"/>
       <use xlink:href="#DejaVuSans-2e" x="482.080078"/>
       <use xlink:href="#DejaVuSans-32" x="513.867188"/>
      </g>
     </g>
    </g>
    <g id="ytick_7">
     <g id="line2d_15">
      <g>
       <use xlink:href="#m4be8ad707e" x="144" y="136.35" style="stroke: #000000; stroke-width: 0.8"/>
      </g>
     </g>
     <g id="text_16">
      <!-- 9.B.257.3.3 -->
      <g transform="translate(79.251563 140.149219) scale(0.1 -0.1)">
       <use xlink:href="#DejaVuSans-39"/>
       <use xlink:href="#DejaVuSans-2e" x="63.623047"/>
       <use xlink:href="#DejaVuSans-42" x="95.410156"/>
       <use xlink:href="#DejaVuSans-2e" x="164.013672"/>
       <use xlink:href="#DejaVuSans-32" x="195.800781"/>
       <use xlink:href="#DejaVuSans-35" x="259.423828"/>
       <use xlink:href="#DejaVuSans-37" x="323.046875"/>
       <use xlink:href="#DejaVuSans-2e" x="386.669922"/>
       <use xlink:href="#DejaVuSans-33" x="418.457031"/>
       <use xlink:href="#DejaVuSans-2e" x="482.080078"/>
       <use xlink:href="#DejaVuSans-33" x="513.867188"/>
      </g>
     </g>
    </g>
    <g id="ytick_8">
     <g id="line2d_16">
      <g>
       <use xlink:href="#m4be8ad707e" x="144" y="121.108065" style="stroke: #000000; stroke-width: 0.8"/>
      </g>
     </g>
     <g id="text_17">
      <!-- 9.B.257.3.4 -->
      <g transform="translate(79.251563 124.907283) scale(0.1 -0.1)">
       <use xlink:href="#DejaVuSans-39"/>
       <use xlink:href="#DejaVuSans-2e" x="63.623047"/>
       <use xlink:href="#DejaVuSans-42" x="95.410156"/>
       <use xlink:href="#DejaVuSans-2e" x="164.013672"/>
       <use xlink:href="#DejaVuSans-32" x="195.800781"/>
       <use xlink:href="#DejaVuSans-35" x="259.423828"/>
       <use xlink:href="#DejaVuSans-37" x="323.046875"/>
       <use xlink:href="#DejaVuSans-2e" x="386.669922"/>
       <use xlink:href="#DejaVuSans-33" x="418.457031"/>
       <use xlink:href="#DejaVuSans-2e" x="482.080078"/>
       <use xlink:href="#DejaVuSans-34" x="513.867188"/>
      </g>
     </g>
    </g>
    <g id="ytick_9">
     <g id="line2d_17">
      <g>
       <use xlink:href="#m4be8ad707e" x="144" y="105.866129" style="stroke: #000000; stroke-width: 0.8"/>
      </g>
     </g>
     <g id="text_18">
      <!-- 9.B.257.3.5 -->
      <g transform="translate(79.251563 109.665348) scale(0.1 -0.1)">
       <use xlink:href="#DejaVuSans-39"/>
       <use xlink:href="#DejaVuSans-2e" x="63.623047"/>
       <use xlink:href="#DejaVuSans-42" x="95.410156"/>
       <use xlink:href="#DejaVuSans-2e" x="164.013672"/>
       <use xlink:href="#DejaVuSans-32" x="195.800781"/>
       <use xlink:href="#DejaVuSans-35" x="259.423828"/>
       <use xlink:href="#DejaVuSans-37" x="323.046875"/>
       <use xlink:href="#DejaVuSans-2e" x="386.669922"/>
       <use xlink:href="#DejaVuSans-33" x="418.457031"/>
       <use xlink:href="#DejaVuSans-2e" x="482.080078"/>
       <use xlink:href="#DejaVuSans-35" x="513.867188"/>
      </g>
     </g>
    </g>
    <g id="ytick_10">
     <g id="line2d_18">
      <g>
       <use xlink:href="#m4be8ad707e" x="144" y="90.624194" style="stroke: #000000; stroke-width: 0.8"/>
      </g>
     </g>
     <g id="text_19">
      <!-- 9.B.257.3.6 -->
      <g transform="translate(79.251563 94.423412) scale(0.1 -0.1)">
       <use xlink:href="#DejaVuSans-39"/>
       <use xlink:href="#DejaVuSans-2e" x="63.623047"/>
       <use xlink:href="#DejaVuSans-42" x="95.410156"/>
       <use xlink:href="#DejaVuSans-2e" x="164.013672"/>
       <use xlink:href="#DejaVuSans-32" x="195.800781"/>
       <use xlink:href="#DejaVuSans-35" x="259.423828"/>
       <use xlink:href="#DejaVuSans-37" x="323.046875"/>
       <use xlink:href="#DejaVuSans-2e" x="386.669922"/>
       <use xlink:href="#DejaVuSans-33" x="418.457031"/>
       <use xlink:href="#DejaVuSans-2e" x="482.080078"/>
       <use xlink:href="#DejaVuSans-36" x="513.867188"/>
      </g>
     </g>
    </g>
    <g id="ytick_11">
     <g id="line2d_19">
      <g>
       <use xlink:href="#m4be8ad707e" x="144" y="75.382258" style="stroke: #000000; stroke-width: 0.8"/>
      </g>
     </g>
     <g id="text_20">
      <!-- 9.B.257.4.1 -->
      <g transform="translate(79.251563 79.181477) scale(0.1 -0.1)">
       <use xlink:href="#DejaVuSans-39"/>
       <use xlink:href="#DejaVuSans-2e" x="63.623047"/>
       <use xlink:href="#DejaVuSans-42" x="95.410156"/>
       <use xlink:href="#DejaVuSans-2e" x="164.013672"/>
       <use xlink:href="#DejaVuSans-32" x="195.800781"/>
       <use xlink:href="#DejaVuSans-35" x="259.423828"/>
       <use xlink:href="#DejaVuSans-37" x="323.046875"/>
       <use xlink:href="#DejaVuSans-2e" x="386.669922"/>
       <use xlink:href="#DejaVuSans-34" x="418.457031"/>
       <use xlink:href="#DejaVuSans-2e" x="482.080078"/>
       <use xlink:href="#DejaVuSans-31" x="513.867188"/>
      </g>
     </g>
    </g>
    <g id="ytick_12">
     <g id="line2d_20">
      <g>
       <use xlink:href="#m4be8ad707e" x="144" y="60.140323" style="stroke: #000000; stroke-width: 0.8"/>
      </g>
     </g>
     <g id="text_21">
      <!-- 9.B.257.4.2 -->
      <g transform="translate(79.251563 63.939541) scale(0.1 -0.1)">
       <use xlink:href="#DejaVuSans-39"/>
       <use xlink:href="#DejaVuSans-2e" x="63.623047"/>
       <use xlink:href="#DejaVuSans-42" x="95.410156"/>
       <use xlink:href="#DejaVuSans-2e" x="164.013672"/>
       <use xlink:href="#DejaVuSans-32" x="195.800781"/>
       <use xlink:href="#DejaVuSans-35" x="259.423828"/>
       <use xlink:href="#DejaVuSans-37" x="323.046875"/>
       <use xlink:href="#DejaVuSans-2e" x="386.669922"/>
       <use xlink:href="#DejaVuSans-34" x="418.457031"/>
       <use xlink:href="#DejaVuSans-2e" x="482.080078"/>
       <use xlink:href="#DejaVuSans-32" x="513.867188"/>
      </g>
     </g>
    </g>
    <g id="ytick_13">
     <g id="line2d_21">
      <g>
       <use xlink:href="#m4be8ad707e" x="144" y="44.898387" style="stroke: #000000; stroke-width: 0.8"/>
      </g>
     </g>
     <g id="text_22">
      <!-- 9.B.257.4.3 -->
      <g transform="translate(79.251563 48.697606) scale(0.1 -0.1)">
       <use xlink:href="#DejaVuSans-39"/>
       <use xlink:href="#DejaVuSans-2e" x="63.623047"/>
       <use xlink:href="#DejaVuSans-42" x="95.410156"/>
       <use xlink:href="#DejaVuSans-2e" x="164.013672"/>
       <use xlink:href="#DejaVuSans-32" x="195.800781"/>
       <use xlink:href="#DejaVuSans-35" x="259.423828"/>
       <use xlink:href="#DejaVuSans-37" x="323.046875"/>
       <use xlink:href="#DejaVuSans-2e" x="386.669922"/>
       <use xlink:href="#DejaVuSans-34" x="418.457031"/>
       <use xlink:href="#DejaVuSans-2e" x="482.080078"/>
       <use xlink:href="#DejaVuSans-33" x="513.867188"/>
      </g>
     </g>
    </g>
   </g>
   <g id="patch_42">
    <path d="M 144 240.3 
L 144 32.4 
" style="fill: none; stroke: #000000; stroke-width: 0.8; stroke-linejoin: miter; stroke-linecap: square"/>
   </g>
   <g id="patch_43">
    <path d="M 1036.8 240.3 
L 1036.8 32.4 
" style="fill: none; stroke: #000000; stroke-width: 0.8; stroke-linejoin: miter; stroke-linecap: square"/>
   </g>
   <g id="patch_44">
    <path d="M 144 240.3 
L 1036.8 240.3 
" style="fill: none; stroke: #000000; stroke-width: 0.8; stroke-linejoin: miter; stroke-linecap: square"/>
   </g>
   <g id="patch_45">
    <path d="M 144 32.4 
L 1036.8 32.4 
" style="fill: none; stroke: #000000; stroke-width: 0.8; stroke-linejoin: miter; stroke-linecap: square"/>
   </g>
   <g id="text_23">
    <!-- 9.B.257 Summary -->
    <g transform="translate(536.297812 26.4) scale(0.12 -0.12)">
     <defs>
      <path id="DejaVuSans-20" transform="scale(0.015625)"/>
      <path id="DejaVuSans-53" d="M 3425 4513 
L 3425 3897 
Q 3066 4069 2747 4153 
Q 2428 4238 2131 4238 
Q 1616 4238 1336 4038 
Q 1056 3838 1056 3469 
Q 1056 3159 1242 3001 
Q 1428 2844 1947 2747 
L 2328 2669 
Q 3034 2534 3370 2195 
Q 3706 1856 3706 1288 
Q 3706 609 3251 259 
Q 2797 -91 1919 -91 
Q 1588 -91 1214 -16 
Q 841 59 441 206 
L 441 856 
Q 825 641 1194 531 
Q 1563 422 1919 422 
Q 2459 422 2753 634 
Q 3047 847 3047 1241 
Q 3047 1584 2836 1778 
Q 2625 1972 2144 2069 
L 1759 2144 
Q 1053 2284 737 2584 
Q 422 2884 422 3419 
Q 422 4038 858 4394 
Q 1294 4750 2059 4750 
Q 2388 4750 2728 4690 
Q 3069 4631 3425 4513 
z
" transform="scale(0.015625)"/>
      <path id="DejaVuSans-6d" d="M 3328 2828 
Q 3544 3216 3844 3400 
Q 4144 3584 4550 3584 
Q 5097 3584 5394 3201 
Q 5691 2819 5691 2113 
L 5691 0 
L 5113 0 
L 5113 2094 
Q 5113 2597 4934 2840 
Q 4756 3084 4391 3084 
Q 3944 3084 3684 2787 
Q 3425 2491 3425 1978 
L 3425 0 
L 2847 0 
L 2847 2094 
Q 2847 2600 2669 2842 
Q 2491 3084 2119 3084 
Q 1678 3084 1418 2786 
Q 1159 2488 1159 1978 
L 1159 0 
L 581 0 
L 581 3500 
L 1159 3500 
L 1159 2956 
Q 1356 3278 1631 3431 
Q 1906 3584 2284 3584 
Q 2666 3584 2933 3390 
Q 3200 3197 3328 2828 
z
" transform="scale(0.015625)"/>
      <path id="DejaVuSans-72" d="M 2631 2963 
Q 2534 3019 2420 3045 
Q 2306 3072 2169 3072 
Q 1681 3072 1420 2755 
Q 1159 2438 1159 1844 
L 1159 0 
L 581 0 
L 581 3500 
L 1159 3500 
L 1159 2956 
Q 1341 3275 1631 3429 
Q 1922 3584 2338 3584 
Q 2397 3584 2469 3576 
Q 2541 3569 2628 3553 
L 2631 2963 
z
" transform="scale(0.015625)"/>
      <path id="DejaVuSans-79" d="M 2059 -325 
Q 1816 -950 1584 -1140 
Q 1353 -1331 966 -1331 
L 506 -1331 
L 506 -850 
L 844 -850 
Q 1081 -850 1212 -737 
Q 1344 -625 1503 -206 
L 1606 56 
L 191 3500 
L 800 3500 
L 1894 763 
L 2988 3500 
L 3597 3500 
L 2059 -325 
z
" transform="scale(0.015625)"/>
     </defs>
     <use xlink:href="#DejaVuSans-39"/>
     <use xlink:href="#DejaVuSans-2e" x="63.623047"/>
     <use xlink:href="#DejaVuSans-42" x="95.410156"/>
     <use xlink:href="#DejaVuSans-2e" x="164.013672"/>
     <use xlink:href="#DejaVuSans-32" x="195.800781"/>
     <use xlink:href="#DejaVuSans-35" x="259.423828"/>
     <use xlink:href="#DejaVuSans-37" x="323.046875"/>
     <use xlink:href="#DejaVuSans-20" x="386.669922"/>
     <use xlink:href="#DejaVuSans-53" x="418.457031"/>
     <use xlink:href="#DejaVuSans-75" x="481.933594"/>
     <use xlink:href="#DejaVuSans-6d" x="545.3125"/>
     <use xlink:href="#DejaVuSans-6d" x="642.724609"/>
     <use xlink:href="#DejaVuSans-61" x="740.136719"/>
     <use xlink:href="#DejaVuSans-72" x="801.416016"/>
     <use xlink:href="#DejaVuSans-79" x="842.529297"/>
    </g>
   </g>
  </g>
 </g>
 <defs>
  <clipPath id="p97bf3907ae">
   <rect x="144" y="32.4" width="892.8" height="207.9"/>
  </clipPath>
 </defs>
</svg>
