<?xml version="1.0" encoding="utf-8" standalone="no"?>
<!DOCTYPE svg PUBLIC "-//W3C//DTD SVG 1.1//EN"
  "http://www.w3.org/Graphics/SVG/1.1/DTD/svg11.dtd">
<svg xmlns:xlink="http://www.w3.org/1999/xlink" width="1152pt" height="302.4pt" viewBox="0 0 1152 302.4" xmlns="http://www.w3.org/2000/svg" version="1.1">
 <metadata>
  <rdf:RDF xmlns:dc="http://purl.org/dc/elements/1.1/" xmlns:cc="http://creativecommons.org/ns#" xmlns:rdf="http://www.w3.org/1999/02/22-rdf-syntax-ns#">
   <cc:Work>
    <dc:type rdf:resource="http://purl.org/dc/dcmitype/StillImage"/>
    <dc:date>2024-10-25T08:04:27.746853</dc:date>
    <dc:format>image/svg+xml</dc:format>
    <dc:creator>
     <cc:Agent>
      <dc:title>Matplotlib v3.9.2, https://matplotlib.org/</dc:title>
     </cc:Agent>
    </dc:creator>
   </cc:Work>
  </rdf:RDF>
 </metadata>
 <defs>
  <style type="text/css">*{stroke-linejoin: round; stroke-linecap: butt}</style>
 </defs>
 <g id="figure_1">
  <g id="patch_1">
   <path d="M 0 302.4 
L 1152 302.4 
L 1152 0 
L 0 0 
z
" style="fill: #ffffff"/>
  </g>
  <g id="axes_1">
   <g id="patch_2">
    <path d="M 144 269.136 
L 1036.8 269.136 
L 1036.8 36.288 
L 144 36.288 
z
" style="fill: #ffffff"/>
   </g>
   <g id="patch_3">
    <path d="M 144 255.116842 
L 158.792723 255.116842 
L 158.792723 254.559789 
L 144 254.559789 
z
" clip-path="url(#p506718650e)" style="fill: #0000ff"/>
   </g>
   <g id="patch_4">
    <path d="M 159.384432 258.552 
L 288.968685 258.552 
L 288.968685 251.124632 
L 159.384432 251.124632 
z
" clip-path="url(#p506718650e)" style="fill: #0000ff"/>
   </g>
   <g id="patch_5">
    <path d="M 289.560394 255.116842 
L 326.838055 255.116842 
L 326.838055 254.559789 
L 289.560394 254.559789 
z
" clip-path="url(#p506718650e)" style="fill: #0000ff"/>
   </g>
   <g id="patch_6">
    <path d="M 327.429764 258.552 
L 392.517745 258.552 
L 392.517745 251.124632 
L 327.429764 251.124632 
z
" clip-path="url(#p506718650e)" style="fill: #0000ff"/>
   </g>
   <g id="patch_7">
    <path d="M 327.429764 258.552 
L 394.884581 258.552 
L 394.884581 251.124632 
L 327.429764 251.124632 
z
" clip-path="url(#p506718650e)" style="fill: #0000ff"/>
   </g>
   <g id="patch_8">
    <path d="M 327.429764 258.552 
L 389.559201 258.552 
L 389.559201 251.124632 
L 327.429764 251.124632 
z
" clip-path="url(#p506718650e)" style="fill: #0000ff"/>
   </g>
   <g id="patch_9">
    <path d="M 328.021473 258.552 
L 389.559201 258.552 
L 389.559201 251.124632 
L 328.021473 251.124632 
z
" clip-path="url(#p506718650e)" style="fill: #0000ff"/>
   </g>
   <g id="patch_10">
    <path d="M 328.021473 258.552 
L 394.884581 258.552 
L 394.884581 251.124632 
L 328.021473 251.124632 
z
" clip-path="url(#p506718650e)" style="fill: #0000ff"/>
   </g>
   <g id="patch_11">
    <path d="M 328.021473 258.552 
L 392.517745 258.552 
L 392.517745 251.124632 
L 328.021473 251.124632 
z
" clip-path="url(#p506718650e)" style="fill: #0000ff"/>
   </g>
   <g id="patch_12">
    <path d="M 395.47629 255.116842 
L 870.026842 255.116842 
L 870.026842 254.559789 
L 395.47629 254.559789 
z
" clip-path="url(#p506718650e)" style="fill: #0000ff"/>
   </g>
   <g id="patch_13">
    <path d="M 144 236.548421 
L 161.751268 236.548421 
L 161.751268 235.991368 
L 144 235.991368 
z
" clip-path="url(#p506718650e)" style="fill: #0000ff"/>
   </g>
   <g id="patch_14">
    <path d="M 162.342976 239.983579 
L 293.110647 239.983579 
L 293.110647 232.556211 
L 162.342976 232.556211 
z
" clip-path="url(#p506718650e)" style="fill: #0000ff"/>
   </g>
   <g id="patch_15">
    <path d="M 167.076648 239.983579 
L 270.625708 239.983579 
L 270.625708 232.556211 
L 167.076648 232.556211 
z
" clip-path="url(#p506718650e)" style="fill: #0000ff"/>
   </g>
   <g id="patch_16">
    <path d="M 293.702356 236.548421 
L 326.246347 236.548421 
L 326.246347 235.991368 
L 293.702356 235.991368 
z
" clip-path="url(#p506718650e)" style="fill: #0000ff"/>
   </g>
   <g id="patch_17">
    <path d="M 326.838055 239.983579 
L 393.701163 239.983579 
L 393.701163 232.556211 
L 326.838055 232.556211 
z
" clip-path="url(#p506718650e)" style="fill: #0000ff"/>
   </g>
   <g id="patch_18">
    <path d="M 326.838055 239.983579 
L 393.701163 239.983579 
L 393.701163 232.556211 
L 326.838055 232.556211 
z
" clip-path="url(#p506718650e)" style="fill: #0000ff"/>
   </g>
   <g id="patch_19">
    <path d="M 327.429764 239.983579 
L 396.067999 239.983579 
L 396.067999 232.556211 
L 327.429764 232.556211 
z
" clip-path="url(#p506718650e)" style="fill: #0000ff"/>
   </g>
   <g id="patch_20">
    <path d="M 328.021473 239.983579 
L 368.849389 239.983579 
L 368.849389 232.556211 
L 328.021473 232.556211 
z
" clip-path="url(#p506718650e)" style="fill: #0000ff"/>
   </g>
   <g id="patch_21">
    <path d="M 328.021473 239.983579 
L 390.742619 239.983579 
L 390.742619 232.556211 
L 328.021473 232.556211 
z
" clip-path="url(#p506718650e)" style="fill: #0000ff"/>
   </g>
   <g id="patch_22">
    <path d="M 396.659708 236.548421 
L 601.982702 236.548421 
L 601.982702 235.991368 
L 396.659708 235.991368 
z
" clip-path="url(#p506718650e)" style="fill: #0000ff"/>
   </g>
   <g id="patch_23">
    <path d="M 602.574411 239.983579 
L 703.164927 239.983579 
L 703.164927 232.556211 
L 602.574411 232.556211 
z
" clip-path="url(#p506718650e)" style="fill: #0000ff"/>
   </g>
   <g id="patch_24">
    <path d="M 703.756636 236.548421 
L 870.618551 236.548421 
L 870.618551 235.991368 
L 703.756636 235.991368 
z
" clip-path="url(#p506718650e)" style="fill: #0000ff"/>
   </g>
   <g id="patch_25">
    <path d="M 144 217.98 
L 175.952282 217.98 
L 175.952282 217.422947 
L 144 217.422947 
z
" clip-path="url(#p506718650e)" style="fill: #0000ff"/>
   </g>
   <g id="patch_26">
    <path d="M 176.54399 221.415158 
L 266.483746 221.415158 
L 266.483746 213.987789 
L 176.54399 213.987789 
z
" clip-path="url(#p506718650e)" style="fill: #0000ff"/>
   </g>
   <g id="patch_27">
    <path d="M 267.075455 217.98 
L 300.211154 217.98 
L 300.211154 217.422947 
L 267.075455 217.422947 
z
" clip-path="url(#p506718650e)" style="fill: #0000ff"/>
   </g>
   <g id="patch_28">
    <path d="M 300.802863 221.415158 
L 358.198628 221.415158 
L 358.198628 213.987789 
L 300.802863 213.987789 
z
" clip-path="url(#p506718650e)" style="fill: #0000ff"/>
   </g>
   <g id="patch_29">
    <path d="M 301.986281 221.415158 
L 357.01521 221.415158 
L 357.01521 213.987789 
L 301.986281 213.987789 
z
" clip-path="url(#p506718650e)" style="fill: #0000ff"/>
   </g>
   <g id="patch_30">
    <path d="M 302.57799 221.415158 
L 362.340591 221.415158 
L 362.340591 213.987789 
L 302.57799 213.987789 
z
" clip-path="url(#p506718650e)" style="fill: #0000ff"/>
   </g>
   <g id="patch_31">
    <path d="M 303.169699 221.415158 
L 361.748882 221.415158 
L 361.748882 213.987789 
L 303.169699 213.987789 
z
" clip-path="url(#p506718650e)" style="fill: #0000ff"/>
   </g>
   <g id="patch_32">
    <path d="M 303.169699 221.415158 
L 360.565464 221.415158 
L 360.565464 213.987789 
L 303.169699 213.987789 
z
" clip-path="url(#p506718650e)" style="fill: #0000ff"/>
   </g>
   <g id="patch_33">
    <path d="M 303.761408 221.415158 
L 357.606919 221.415158 
L 357.606919 213.987789 
L 303.761408 213.987789 
z
" clip-path="url(#p506718650e)" style="fill: #0000ff"/>
   </g>
   <g id="patch_34">
    <path d="M 303.761408 221.415158 
L 361.748882 221.415158 
L 361.748882 213.987789 
L 303.761408 213.987789 
z
" clip-path="url(#p506718650e)" style="fill: #0000ff"/>
   </g>
   <g id="patch_35">
    <path d="M 303.761408 221.415158 
L 358.198628 221.415158 
L 358.198628 213.987789 
L 303.761408 213.987789 
z
" clip-path="url(#p506718650e)" style="fill: #0000ff"/>
   </g>
   <g id="patch_36">
    <path d="M 303.761408 221.415158 
L 362.932299 221.415158 
L 362.932299 213.987789 
L 303.761408 213.987789 
z
" clip-path="url(#p506718650e)" style="fill: #0000ff"/>
   </g>
   <g id="patch_37">
    <path d="M 303.761408 221.415158 
L 355.831792 221.415158 
L 355.831792 213.987789 
L 303.761408 213.987789 
z
" clip-path="url(#p506718650e)" style="fill: #0000ff"/>
   </g>
   <g id="patch_38">
    <path d="M 303.761408 221.415158 
L 357.606919 221.415158 
L 357.606919 213.987789 
L 303.761408 213.987789 
z
" clip-path="url(#p506718650e)" style="fill: #0000ff"/>
   </g>
   <g id="patch_39">
    <path d="M 309.678497 221.415158 
L 359.973755 221.415158 
L 359.973755 213.987789 
L 309.678497 213.987789 
z
" clip-path="url(#p506718650e)" style="fill: #0000ff"/>
   </g>
   <g id="patch_40">
    <path d="M 363.524008 217.98 
L 428.611989 217.98 
L 428.611989 217.422947 
L 363.524008 217.422947 
z
" clip-path="url(#p506718650e)" style="fill: #0000ff"/>
   </g>
   <g id="patch_41">
    <path d="M 144 199.411579 
L 194.295258 199.411579 
L 194.295258 198.854526 
L 144 198.854526 
z
" clip-path="url(#p506718650e)" style="fill: #0000ff"/>
   </g>
   <g id="patch_42">
    <path d="M 194.886967 202.846737 
L 255.241276 202.846737 
L 255.241276 195.419368 
L 194.886967 195.419368 
z
" clip-path="url(#p506718650e)" style="fill: #0000ff"/>
   </g>
   <g id="patch_43">
    <path d="M 195.478676 202.846737 
L 253.46615 202.846737 
L 253.46615 195.419368 
L 195.478676 195.419368 
z
" clip-path="url(#p506718650e)" style="fill: #0000ff"/>
   </g>
   <g id="patch_44">
    <path d="M 197.845511 202.846737 
L 252.874441 202.846737 
L 252.874441 195.419368 
L 197.845511 195.419368 
z
" clip-path="url(#p506718650e)" style="fill: #0000ff"/>
   </g>
   <g id="patch_45">
    <path d="M 198.43722 202.846737 
L 256.424694 202.846737 
L 256.424694 195.419368 
L 198.43722 195.419368 
z
" clip-path="url(#p506718650e)" style="fill: #0000ff"/>
   </g>
   <g id="patch_46">
    <path d="M 198.43722 202.846737 
L 256.424694 202.846737 
L 256.424694 195.419368 
L 198.43722 195.419368 
z
" clip-path="url(#p506718650e)" style="fill: #0000ff"/>
   </g>
   <g id="patch_47">
    <path d="M 198.43722 202.846737 
L 257.016403 202.846737 
L 257.016403 195.419368 
L 198.43722 195.419368 
z
" clip-path="url(#p506718650e)" style="fill: #0000ff"/>
   </g>
   <g id="patch_48">
    <path d="M 198.43722 202.846737 
L 258.79153 202.846737 
L 258.79153 195.419368 
L 198.43722 195.419368 
z
" clip-path="url(#p506718650e)" style="fill: #0000ff"/>
   </g>
   <g id="patch_49">
    <path d="M 198.43722 202.846737 
L 258.79153 202.846737 
L 258.79153 195.419368 
L 198.43722 195.419368 
z
" clip-path="url(#p506718650e)" style="fill: #0000ff"/>
   </g>
   <g id="patch_50">
    <path d="M 198.43722 202.846737 
L 255.241276 202.846737 
L 255.241276 195.419368 
L 198.43722 195.419368 
z
" clip-path="url(#p506718650e)" style="fill: #0000ff"/>
   </g>
   <g id="patch_51">
    <path d="M 198.43722 202.846737 
L 257.608112 202.846737 
L 257.608112 195.419368 
L 198.43722 195.419368 
z
" clip-path="url(#p506718650e)" style="fill: #0000ff"/>
   </g>
   <g id="patch_52">
    <path d="M 198.43722 202.846737 
L 253.46615 202.846737 
L 253.46615 195.419368 
L 198.43722 195.419368 
z
" clip-path="url(#p506718650e)" style="fill: #0000ff"/>
   </g>
   <g id="patch_53">
    <path d="M 198.43722 202.846737 
L 253.46615 202.846737 
L 253.46615 195.419368 
L 198.43722 195.419368 
z
" clip-path="url(#p506718650e)" style="fill: #0000ff"/>
   </g>
   <g id="patch_54">
    <path d="M 198.43722 202.846737 
L 256.424694 202.846737 
L 256.424694 195.419368 
L 198.43722 195.419368 
z
" clip-path="url(#p506718650e)" style="fill: #0000ff"/>
   </g>
   <g id="patch_55">
    <path d="M 259.383239 199.411579 
L 386.008947 199.411579 
L 386.008947 198.854526 
L 259.383239 198.854526 
z
" clip-path="url(#p506718650e)" style="fill: #0000ff"/>
   </g>
   <g id="patch_56">
    <path d="M 386.600656 202.846737 
L 431.570534 202.846737 
L 431.570534 195.419368 
L 386.600656 195.419368 
z
" clip-path="url(#p506718650e)" style="fill: #0000ff"/>
   </g>
   <g id="patch_57">
    <path d="M 432.162243 199.411579 
L 521.510289 199.411579 
L 521.510289 198.854526 
L 432.162243 198.854526 
z
" clip-path="url(#p506718650e)" style="fill: #0000ff"/>
   </g>
   <g id="patch_58">
    <path d="M 522.101998 202.846737 
L 605.532956 202.846737 
L 605.532956 195.419368 
L 522.101998 195.419368 
z
" clip-path="url(#p506718650e)" style="fill: #0000ff"/>
   </g>
   <g id="patch_59">
    <path d="M 606.124664 199.411579 
L 791.329556 199.411579 
L 791.329556 198.854526 
L 606.124664 198.854526 
z
" clip-path="url(#p506718650e)" style="fill: #0000ff"/>
   </g>
   <g id="patch_60">
    <path d="M 791.921265 202.846737 
L 901.387414 202.846737 
L 901.387414 195.419368 
L 791.921265 195.419368 
z
" clip-path="url(#p506718650e)" style="fill: #0000ff"/>
   </g>
   <g id="patch_61">
    <path d="M 792.512973 202.846737 
L 901.979123 202.846737 
L 901.979123 195.419368 
L 792.512973 195.419368 
z
" clip-path="url(#p506718650e)" style="fill: #0000ff"/>
   </g>
   <g id="patch_62">
    <path d="M 793.104682 202.846737 
L 901.387414 202.846737 
L 901.387414 195.419368 
L 793.104682 195.419368 
z
" clip-path="url(#p506718650e)" style="fill: #0000ff"/>
   </g>
   <g id="patch_63">
    <path d="M 902.570832 199.411579 
L 949.907545 199.411579 
L 949.907545 198.854526 
L 902.570832 198.854526 
z
" clip-path="url(#p506718650e)" style="fill: #0000ff"/>
   </g>
   <g id="patch_64">
    <path d="M 144 180.843158 
L 152.283925 180.843158 
L 152.283925 180.286105 
L 144 180.286105 
z
" clip-path="url(#p506718650e)" style="fill: #0000ff"/>
   </g>
   <g id="patch_65">
    <path d="M 152.875634 184.278316 
L 264.708619 184.278316 
L 264.708619 176.850947 
L 152.875634 176.850947 
z
" clip-path="url(#p506718650e)" style="fill: #0000ff"/>
   </g>
   <g id="patch_66">
    <path d="M 160.56785 184.278316 
L 239.265136 184.278316 
L 239.265136 176.850947 
L 160.56785 176.850947 
z
" clip-path="url(#p506718650e)" style="fill: #0000ff"/>
   </g>
   <g id="patch_67">
    <path d="M 160.56785 184.278316 
L 238.081718 184.278316 
L 238.081718 176.850947 
L 160.56785 176.850947 
z
" clip-path="url(#p506718650e)" style="fill: #0000ff"/>
   </g>
   <g id="patch_68">
    <path d="M 161.159559 184.278316 
L 246.365643 184.278316 
L 246.365643 176.850947 
L 161.159559 176.850947 
z
" clip-path="url(#p506718650e)" style="fill: #0000ff"/>
   </g>
   <g id="patch_69">
    <path d="M 161.159559 184.278316 
L 275.35938 184.278316 
L 275.35938 176.850947 
L 161.159559 176.850947 
z
" clip-path="url(#p506718650e)" style="fill: #0000ff"/>
   </g>
   <g id="patch_70">
    <path d="M 161.159559 184.278316 
L 269.44229 184.278316 
L 269.44229 176.850947 
L 161.159559 176.850947 
z
" clip-path="url(#p506718650e)" style="fill: #0000ff"/>
   </g>
   <g id="patch_71">
    <path d="M 164.709812 184.278316 
L 261.750075 184.278316 
L 261.750075 176.850947 
L 164.709812 176.850947 
z
" clip-path="url(#p506718650e)" style="fill: #0000ff"/>
   </g>
   <g id="patch_72">
    <path d="M 166.484939 184.278316 
L 275.951089 184.278316 
L 275.951089 176.850947 
L 166.484939 176.850947 
z
" clip-path="url(#p506718650e)" style="fill: #0000ff"/>
   </g>
   <g id="patch_73">
    <path d="M 199.620638 184.278316 
L 275.35938 184.278316 
L 275.35938 176.850947 
L 199.620638 176.850947 
z
" clip-path="url(#p506718650e)" style="fill: #0000ff"/>
   </g>
   <g id="patch_74">
    <path d="M 204.946018 184.278316 
L 259.383239 184.278316 
L 259.383239 176.850947 
L 204.946018 176.850947 
z
" clip-path="url(#p506718650e)" style="fill: #0000ff"/>
   </g>
   <g id="patch_75">
    <path d="M 204.946018 184.278316 
L 267.667164 184.278316 
L 267.667164 176.850947 
L 204.946018 176.850947 
z
" clip-path="url(#p506718650e)" style="fill: #0000ff"/>
   </g>
   <g id="patch_76">
    <path d="M 204.946018 184.278316 
L 261.750075 184.278316 
L 261.750075 176.850947 
L 204.946018 176.850947 
z
" clip-path="url(#p506718650e)" style="fill: #0000ff"/>
   </g>
   <g id="patch_77">
    <path d="M 212.046525 184.278316 
L 261.750075 184.278316 
L 261.750075 176.850947 
L 212.046525 176.850947 
z
" clip-path="url(#p506718650e)" style="fill: #0000ff"/>
   </g>
   <g id="patch_78">
    <path d="M 276.542797 180.843158 
L 317.962422 180.843158 
L 317.962422 180.286105 
L 276.542797 180.286105 
z
" clip-path="url(#p506718650e)" style="fill: #0000ff"/>
   </g>
   <g id="patch_79">
    <path d="M 318.554131 184.278316 
L 381.866985 184.278316 
L 381.866985 176.850947 
L 318.554131 176.850947 
z
" clip-path="url(#p506718650e)" style="fill: #0000ff"/>
   </g>
   <g id="patch_80">
    <path d="M 325.062929 184.278316 
L 383.050403 184.278316 
L 383.050403 176.850947 
L 325.062929 176.850947 
z
" clip-path="url(#p506718650e)" style="fill: #0000ff"/>
   </g>
   <g id="patch_81">
    <path d="M 325.654638 184.278316 
L 380.091858 184.278316 
L 380.091858 176.850947 
L 325.654638 176.850947 
z
" clip-path="url(#p506718650e)" style="fill: #0000ff"/>
   </g>
   <g id="patch_82">
    <path d="M 325.654638 184.278316 
L 380.091858 184.278316 
L 380.091858 176.850947 
L 325.654638 176.850947 
z
" clip-path="url(#p506718650e)" style="fill: #0000ff"/>
   </g>
   <g id="patch_83">
    <path d="M 325.654638 184.278316 
L 379.500149 184.278316 
L 379.500149 176.850947 
L 325.654638 176.850947 
z
" clip-path="url(#p506718650e)" style="fill: #0000ff"/>
   </g>
   <g id="patch_84">
    <path d="M 325.654638 184.278316 
L 383.050403 184.278316 
L 383.050403 176.850947 
L 325.654638 176.850947 
z
" clip-path="url(#p506718650e)" style="fill: #0000ff"/>
   </g>
   <g id="patch_85">
    <path d="M 325.654638 184.278316 
L 382.458694 184.278316 
L 382.458694 176.850947 
L 325.654638 176.850947 
z
" clip-path="url(#p506718650e)" style="fill: #0000ff"/>
   </g>
   <g id="patch_86">
    <path d="M 325.654638 184.278316 
L 384.825529 184.278316 
L 384.825529 176.850947 
L 325.654638 176.850947 
z
" clip-path="url(#p506718650e)" style="fill: #0000ff"/>
   </g>
   <g id="patch_87">
    <path d="M 325.654638 184.278316 
L 381.866985 184.278316 
L 381.866985 176.850947 
L 325.654638 176.850947 
z
" clip-path="url(#p506718650e)" style="fill: #0000ff"/>
   </g>
   <g id="patch_88">
    <path d="M 325.654638 184.278316 
L 386.008947 184.278316 
L 386.008947 176.850947 
L 325.654638 176.850947 
z
" clip-path="url(#p506718650e)" style="fill: #0000ff"/>
   </g>
   <g id="patch_89">
    <path d="M 325.654638 184.278316 
L 380.091858 184.278316 
L 380.091858 176.850947 
L 325.654638 176.850947 
z
" clip-path="url(#p506718650e)" style="fill: #0000ff"/>
   </g>
   <g id="patch_90">
    <path d="M 325.654638 184.278316 
L 383.050403 184.278316 
L 383.050403 176.850947 
L 325.654638 176.850947 
z
" clip-path="url(#p506718650e)" style="fill: #0000ff"/>
   </g>
   <g id="patch_91">
    <path d="M 325.654638 184.278316 
L 381.866985 184.278316 
L 381.866985 176.850947 
L 325.654638 176.850947 
z
" clip-path="url(#p506718650e)" style="fill: #0000ff"/>
   </g>
   <g id="patch_92">
    <path d="M 325.654638 184.278316 
L 384.23382 184.278316 
L 384.23382 176.850947 
L 325.654638 176.850947 
z
" clip-path="url(#p506718650e)" style="fill: #0000ff"/>
   </g>
   <g id="patch_93">
    <path d="M 326.838055 184.278316 
L 380.091858 184.278316 
L 380.091858 176.850947 
L 326.838055 176.850947 
z
" clip-path="url(#p506718650e)" style="fill: #0000ff"/>
   </g>
   <g id="patch_94">
    <path d="M 333.938562 184.278316 
L 381.866985 184.278316 
L 381.866985 176.850947 
L 333.938562 176.850947 
z
" clip-path="url(#p506718650e)" style="fill: #0000ff"/>
   </g>
   <g id="patch_95">
    <path d="M 335.713689 184.278316 
L 384.825529 184.278316 
L 384.825529 176.850947 
L 335.713689 176.850947 
z
" clip-path="url(#p506718650e)" style="fill: #0000ff"/>
   </g>
   <g id="patch_96">
    <path d="M 335.713689 184.278316 
L 380.091858 184.278316 
L 380.091858 176.850947 
L 335.713689 176.850947 
z
" clip-path="url(#p506718650e)" style="fill: #0000ff"/>
   </g>
   <g id="patch_97">
    <path d="M 386.600656 180.843158 
L 664.112138 180.843158 
L 664.112138 180.286105 
L 386.600656 180.286105 
z
" clip-path="url(#p506718650e)" style="fill: #0000ff"/>
   </g>
   <g id="patch_98">
    <path d="M 664.703847 184.278316 
L 746.951387 184.278316 
L 746.951387 176.850947 
L 664.703847 176.850947 
z
" clip-path="url(#p506718650e)" style="fill: #0000ff"/>
   </g>
   <g id="patch_99">
    <path d="M 747.543096 180.843158 
L 873.577095 180.843158 
L 873.577095 180.286105 
L 747.543096 180.286105 
z
" clip-path="url(#p506718650e)" style="fill: #0000ff"/>
   </g>
   <g id="patch_100">
    <path d="M 144 162.274737 
L 525.652252 162.274737 
L 525.652252 161.717684 
L 144 161.717684 
z
" clip-path="url(#p506718650e)" style="fill: #0000ff"/>
   </g>
   <g id="patch_101">
    <path d="M 526.243961 165.709895 
L 591.92365 165.709895 
L 591.92365 158.282526 
L 526.243961 158.282526 
z
" clip-path="url(#p506718650e)" style="fill: #0000ff"/>
   </g>
   <g id="patch_102">
    <path d="M 532.16105 165.709895 
L 567.071876 165.709895 
L 567.071876 158.282526 
L 532.16105 158.282526 
z
" clip-path="url(#p506718650e)" style="fill: #0000ff"/>
   </g>
   <g id="patch_103">
    <path d="M 533.936177 165.709895 
L 588.965106 165.709895 
L 588.965106 158.282526 
L 533.936177 158.282526 
z
" clip-path="url(#p506718650e)" style="fill: #0000ff"/>
   </g>
   <g id="patch_104">
    <path d="M 534.527885 165.709895 
L 588.965106 165.709895 
L 588.965106 158.282526 
L 534.527885 158.282526 
z
" clip-path="url(#p506718650e)" style="fill: #0000ff"/>
   </g>
   <g id="patch_105">
    <path d="M 534.527885 165.709895 
L 583.639726 165.709895 
L 583.639726 158.282526 
L 534.527885 158.282526 
z
" clip-path="url(#p506718650e)" style="fill: #0000ff"/>
   </g>
   <g id="patch_106">
    <path d="M 535.119594 165.709895 
L 589.556815 165.709895 
L 589.556815 158.282526 
L 535.119594 158.282526 
z
" clip-path="url(#p506718650e)" style="fill: #0000ff"/>
   </g>
   <g id="patch_107">
    <path d="M 535.119594 165.709895 
L 584.823143 165.709895 
L 584.823143 158.282526 
L 535.119594 158.282526 
z
" clip-path="url(#p506718650e)" style="fill: #0000ff"/>
   </g>
   <g id="patch_108">
    <path d="M 535.119594 165.709895 
L 586.59827 165.709895 
L 586.59827 158.282526 
L 535.119594 158.282526 
z
" clip-path="url(#p506718650e)" style="fill: #0000ff"/>
   </g>
   <g id="patch_109">
    <path d="M 535.119594 165.709895 
L 589.556815 165.709895 
L 589.556815 158.282526 
L 535.119594 158.282526 
z
" clip-path="url(#p506718650e)" style="fill: #0000ff"/>
   </g>
   <g id="patch_110">
    <path d="M 545.770355 165.709895 
L 583.639726 165.709895 
L 583.639726 158.282526 
L 545.770355 158.282526 
z
" clip-path="url(#p506718650e)" style="fill: #0000ff"/>
   </g>
   <g id="patch_111">
    <path d="M 545.770355 165.709895 
L 587.781688 165.709895 
L 587.781688 158.282526 
L 545.770355 158.282526 
z
" clip-path="url(#p506718650e)" style="fill: #0000ff"/>
   </g>
   <g id="patch_112">
    <path d="M 592.515359 162.274737 
L 648.135998 162.274737 
L 648.135998 161.717684 
L 592.515359 161.717684 
z
" clip-path="url(#p506718650e)" style="fill: #0000ff"/>
   </g>
   <g id="patch_113">
    <path d="M 648.727707 165.709895 
L 733.933791 165.709895 
L 733.933791 158.282526 
L 648.727707 158.282526 
z
" clip-path="url(#p506718650e)" style="fill: #0000ff"/>
   </g>
   <g id="patch_114">
    <path d="M 734.5255 162.274737 
L 771.211452 162.274737 
L 771.211452 161.717684 
L 734.5255 161.717684 
z
" clip-path="url(#p506718650e)" style="fill: #0000ff"/>
   </g>
   <g id="patch_115">
    <path d="M 771.803161 165.709895 
L 856.417537 165.709895 
L 856.417537 158.282526 
L 771.803161 158.282526 
z
" clip-path="url(#p506718650e)" style="fill: #0000ff"/>
   </g>
   <g id="patch_116">
    <path d="M 857.009245 162.274737 
L 994.285714 162.274737 
L 994.285714 161.717684 
L 857.009245 161.717684 
z
" clip-path="url(#p506718650e)" style="fill: #0000ff"/>
   </g>
   <g id="patch_117">
    <path d="M 144 143.706316 
L 468.256487 143.706316 
L 468.256487 143.149263 
L 144 143.149263 
z
" clip-path="url(#p506718650e)" style="fill: #0000ff"/>
   </g>
   <g id="patch_118">
    <path d="M 468.848196 147.141474 
L 533.344468 147.141474 
L 533.344468 139.714105 
L 468.848196 139.714105 
z
" clip-path="url(#p506718650e)" style="fill: #0000ff"/>
   </g>
   <g id="patch_119">
    <path d="M 473.581867 147.141474 
L 507.309275 147.141474 
L 507.309275 139.714105 
L 473.581867 139.714105 
z
" clip-path="url(#p506718650e)" style="fill: #0000ff"/>
   </g>
   <g id="patch_120">
    <path d="M 475.356994 147.141474 
L 530.385923 147.141474 
L 530.385923 139.714105 
L 475.356994 139.714105 
z
" clip-path="url(#p506718650e)" style="fill: #0000ff"/>
   </g>
   <g id="patch_121">
    <path d="M 475.948703 147.141474 
L 530.385923 147.141474 
L 530.385923 139.714105 
L 475.948703 139.714105 
z
" clip-path="url(#p506718650e)" style="fill: #0000ff"/>
   </g>
   <g id="patch_122">
    <path d="M 475.948703 147.141474 
L 528.019087 147.141474 
L 528.019087 139.714105 
L 475.948703 139.714105 
z
" clip-path="url(#p506718650e)" style="fill: #0000ff"/>
   </g>
   <g id="patch_123">
    <path d="M 476.540412 147.141474 
L 530.977632 147.141474 
L 530.977632 139.714105 
L 476.540412 139.714105 
z
" clip-path="url(#p506718650e)" style="fill: #0000ff"/>
   </g>
   <g id="patch_124">
    <path d="M 476.540412 147.141474 
L 528.019087 147.141474 
L 528.019087 139.714105 
L 476.540412 139.714105 
z
" clip-path="url(#p506718650e)" style="fill: #0000ff"/>
   </g>
   <g id="patch_125">
    <path d="M 476.540412 147.141474 
L 530.977632 147.141474 
L 530.977632 139.714105 
L 476.540412 139.714105 
z
" clip-path="url(#p506718650e)" style="fill: #0000ff"/>
   </g>
   <g id="patch_126">
    <path d="M 487.191172 147.141474 
L 525.060543 147.141474 
L 525.060543 139.714105 
L 487.191172 139.714105 
z
" clip-path="url(#p506718650e)" style="fill: #0000ff"/>
   </g>
   <g id="patch_127">
    <path d="M 487.191172 147.141474 
L 529.202505 147.141474 
L 529.202505 139.714105 
L 487.191172 139.714105 
z
" clip-path="url(#p506718650e)" style="fill: #0000ff"/>
   </g>
   <g id="patch_128">
    <path d="M 533.936177 143.706316 
L 593.107068 143.706316 
L 593.107068 143.149263 
L 533.936177 143.149263 
z
" clip-path="url(#p506718650e)" style="fill: #0000ff"/>
   </g>
   <g id="patch_129">
    <path d="M 593.698777 147.141474 
L 681.863406 147.141474 
L 681.863406 139.714105 
L 593.698777 139.714105 
z
" clip-path="url(#p506718650e)" style="fill: #0000ff"/>
   </g>
   <g id="patch_130">
    <path d="M 682.455115 143.706316 
L 719.141068 143.706316 
L 719.141068 143.149263 
L 682.455115 143.149263 
z
" clip-path="url(#p506718650e)" style="fill: #0000ff"/>
   </g>
   <g id="patch_131">
    <path d="M 719.732777 147.141474 
L 805.53057 147.141474 
L 805.53057 139.714105 
L 719.732777 139.714105 
z
" clip-path="url(#p506718650e)" style="fill: #0000ff"/>
   </g>
   <g id="patch_132">
    <path d="M 806.122279 143.706316 
L 939.256785 143.706316 
L 939.256785 143.149263 
L 806.122279 143.149263 
z
" clip-path="url(#p506718650e)" style="fill: #0000ff"/>
   </g>
   <g id="patch_133">
    <path d="M 144 125.137895 
L 259.974948 125.137895 
L 259.974948 124.580842 
L 144 124.580842 
z
" clip-path="url(#p506718650e)" style="fill: #0000ff"/>
   </g>
   <g id="patch_134">
    <path d="M 260.566657 128.573053 
L 325.062929 128.573053 
L 325.062929 121.145684 
L 260.566657 121.145684 
z
" clip-path="url(#p506718650e)" style="fill: #0000ff"/>
   </g>
   <g id="patch_135">
    <path d="M 265.300328 128.573053 
L 300.211154 128.573053 
L 300.211154 121.145684 
L 265.300328 121.145684 
z
" clip-path="url(#p506718650e)" style="fill: #0000ff"/>
   </g>
   <g id="patch_136">
    <path d="M 267.075455 128.573053 
L 322.104384 128.573053 
L 322.104384 121.145684 
L 267.075455 121.145684 
z
" clip-path="url(#p506718650e)" style="fill: #0000ff"/>
   </g>
   <g id="patch_137">
    <path d="M 267.667164 128.573053 
L 322.104384 128.573053 
L 322.104384 121.145684 
L 267.667164 121.145684 
z
" clip-path="url(#p506718650e)" style="fill: #0000ff"/>
   </g>
   <g id="patch_138">
    <path d="M 267.667164 128.573053 
L 319.737548 128.573053 
L 319.737548 121.145684 
L 267.667164 121.145684 
z
" clip-path="url(#p506718650e)" style="fill: #0000ff"/>
   </g>
   <g id="patch_139">
    <path d="M 267.667164 128.573053 
L 320.920966 128.573053 
L 320.920966 121.145684 
L 267.667164 121.145684 
z
" clip-path="url(#p506718650e)" style="fill: #0000ff"/>
   </g>
   <g id="patch_140">
    <path d="M 278.317924 128.573053 
L 324.47122 128.573053 
L 324.47122 121.145684 
L 278.317924 121.145684 
z
" clip-path="url(#p506718650e)" style="fill: #0000ff"/>
   </g>
   <g id="patch_141">
    <path d="M 278.317924 128.573053 
L 322.104384 128.573053 
L 322.104384 121.145684 
L 278.317924 121.145684 
z
" clip-path="url(#p506718650e)" style="fill: #0000ff"/>
   </g>
   <g id="patch_142">
    <path d="M 278.317924 128.573053 
L 319.737548 128.573053 
L 319.737548 121.145684 
L 278.317924 121.145684 
z
" clip-path="url(#p506718650e)" style="fill: #0000ff"/>
   </g>
   <g id="patch_143">
    <path d="M 278.317924 128.573053 
L 321.512675 128.573053 
L 321.512675 121.145684 
L 278.317924 121.145684 
z
" clip-path="url(#p506718650e)" style="fill: #0000ff"/>
   </g>
   <g id="patch_144">
    <path d="M 325.654638 125.137895 
L 390.15091 125.137895 
L 390.15091 124.580842 
L 325.654638 124.580842 
z
" clip-path="url(#p506718650e)" style="fill: #0000ff"/>
   </g>
   <g id="patch_145">
    <path d="M 390.742619 128.573053 
L 475.948703 128.573053 
L 475.948703 121.145684 
L 390.742619 121.145684 
z
" clip-path="url(#p506718650e)" style="fill: #0000ff"/>
   </g>
   <g id="patch_146">
    <path d="M 476.540412 125.137895 
L 542.220101 125.137895 
L 542.220101 124.580842 
L 476.540412 124.580842 
z
" clip-path="url(#p506718650e)" style="fill: #0000ff"/>
   </g>
   <g id="patch_147">
    <path d="M 144 106.569474 
L 239.856845 106.569474 
L 239.856845 106.012421 
L 144 106.012421 
z
" clip-path="url(#p506718650e)" style="fill: #0000ff"/>
   </g>
   <g id="patch_148">
    <path d="M 240.448554 110.004632 
L 303.169699 110.004632 
L 303.169699 102.577263 
L 240.448554 102.577263 
z
" clip-path="url(#p506718650e)" style="fill: #0000ff"/>
   </g>
   <g id="patch_149">
    <path d="M 245.182225 110.004632 
L 280.093051 110.004632 
L 280.093051 102.577263 
L 245.182225 102.577263 
z
" clip-path="url(#p506718650e)" style="fill: #0000ff"/>
   </g>
   <g id="patch_150">
    <path d="M 246.957352 110.004632 
L 300.211154 110.004632 
L 300.211154 102.577263 
L 246.957352 102.577263 
z
" clip-path="url(#p506718650e)" style="fill: #0000ff"/>
   </g>
   <g id="patch_151">
    <path d="M 247.549061 110.004632 
L 275.951089 110.004632 
L 275.951089 102.577263 
L 247.549061 102.577263 
z
" clip-path="url(#p506718650e)" style="fill: #0000ff"/>
   </g>
   <g id="patch_152">
    <path d="M 248.140769 110.004632 
L 306.128243 110.004632 
L 306.128243 102.577263 
L 248.140769 102.577263 
z
" clip-path="url(#p506718650e)" style="fill: #0000ff"/>
   </g>
   <g id="patch_153">
    <path d="M 248.140769 110.004632 
L 304.944826 110.004632 
L 304.944826 102.577263 
L 248.140769 102.577263 
z
" clip-path="url(#p506718650e)" style="fill: #0000ff"/>
   </g>
   <g id="patch_154">
    <path d="M 248.732478 110.004632 
L 297.844319 110.004632 
L 297.844319 102.577263 
L 248.732478 102.577263 
z
" clip-path="url(#p506718650e)" style="fill: #0000ff"/>
   </g>
   <g id="patch_155">
    <path d="M 248.732478 110.004632 
L 300.211154 110.004632 
L 300.211154 102.577263 
L 248.732478 102.577263 
z
" clip-path="url(#p506718650e)" style="fill: #0000ff"/>
   </g>
   <g id="patch_156">
    <path d="M 248.732478 110.004632 
L 299.619445 110.004632 
L 299.619445 102.577263 
L 248.732478 102.577263 
z
" clip-path="url(#p506718650e)" style="fill: #0000ff"/>
   </g>
   <g id="patch_157">
    <path d="M 249.324187 110.004632 
L 300.211154 110.004632 
L 300.211154 102.577263 
L 249.324187 102.577263 
z
" clip-path="url(#p506718650e)" style="fill: #0000ff"/>
   </g>
   <g id="patch_158">
    <path d="M 258.79153 110.004632 
L 298.436027 110.004632 
L 298.436027 102.577263 
L 258.79153 102.577263 
z
" clip-path="url(#p506718650e)" style="fill: #0000ff"/>
   </g>
   <g id="patch_159">
    <path d="M 306.719952 106.569474 
L 383.050403 106.569474 
L 383.050403 106.012421 
L 306.719952 106.012421 
z
" clip-path="url(#p506718650e)" style="fill: #0000ff"/>
   </g>
   <g id="patch_160">
    <path d="M 383.642112 110.004632 
L 472.398449 110.004632 
L 472.398449 102.577263 
L 383.642112 102.577263 
z
" clip-path="url(#p506718650e)" style="fill: #0000ff"/>
   </g>
   <g id="patch_161">
    <path d="M 472.990158 106.569474 
L 553.462571 106.569474 
L 553.462571 106.012421 
L 472.990158 106.012421 
z
" clip-path="url(#p506718650e)" style="fill: #0000ff"/>
   </g>
   <g id="patch_162">
    <path d="M 144 88.001053 
L 199.620638 88.001053 
L 199.620638 87.444 
L 144 87.444 
z
" clip-path="url(#p506718650e)" style="fill: #0000ff"/>
   </g>
   <g id="patch_163">
    <path d="M 200.212347 91.436211 
L 264.708619 91.436211 
L 264.708619 84.008842 
L 200.212347 84.008842 
z
" clip-path="url(#p506718650e)" style="fill: #0000ff"/>
   </g>
   <g id="patch_164">
    <path d="M 205.537727 91.436211 
L 239.856845 91.436211 
L 239.856845 84.008842 
L 205.537727 84.008842 
z
" clip-path="url(#p506718650e)" style="fill: #0000ff"/>
   </g>
   <g id="patch_165">
    <path d="M 206.721145 91.436211 
L 261.750075 91.436211 
L 261.750075 84.008842 
L 206.721145 84.008842 
z
" clip-path="url(#p506718650e)" style="fill: #0000ff"/>
   </g>
   <g id="patch_166">
    <path d="M 207.312854 91.436211 
L 259.383239 91.436211 
L 259.383239 84.008842 
L 207.312854 84.008842 
z
" clip-path="url(#p506718650e)" style="fill: #0000ff"/>
   </g>
   <g id="patch_167">
    <path d="M 207.904563 91.436211 
L 235.714882 91.436211 
L 235.714882 84.008842 
L 207.904563 84.008842 
z
" clip-path="url(#p506718650e)" style="fill: #0000ff"/>
   </g>
   <g id="patch_168">
    <path d="M 207.904563 91.436211 
L 264.11691 91.436211 
L 264.11691 84.008842 
L 207.904563 84.008842 
z
" clip-path="url(#p506718650e)" style="fill: #0000ff"/>
   </g>
   <g id="patch_169">
    <path d="M 207.904563 91.436211 
L 261.750075 91.436211 
L 261.750075 84.008842 
L 207.904563 84.008842 
z
" clip-path="url(#p506718650e)" style="fill: #0000ff"/>
   </g>
   <g id="patch_170">
    <path d="M 207.904563 91.436211 
L 264.11691 91.436211 
L 264.11691 84.008842 
L 207.904563 84.008842 
z
" clip-path="url(#p506718650e)" style="fill: #0000ff"/>
   </g>
   <g id="patch_171">
    <path d="M 207.904563 91.436211 
L 261.158366 91.436211 
L 261.158366 84.008842 
L 207.904563 84.008842 
z
" clip-path="url(#p506718650e)" style="fill: #0000ff"/>
   </g>
   <g id="patch_172">
    <path d="M 207.904563 91.436211 
L 261.158366 91.436211 
L 261.158366 84.008842 
L 207.904563 84.008842 
z
" clip-path="url(#p506718650e)" style="fill: #0000ff"/>
   </g>
   <g id="patch_173">
    <path d="M 218.555324 91.436211 
L 256.424694 91.436211 
L 256.424694 84.008842 
L 218.555324 84.008842 
z
" clip-path="url(#p506718650e)" style="fill: #0000ff"/>
   </g>
   <g id="patch_174">
    <path d="M 265.300328 88.001053 
L 364.707426 88.001053 
L 364.707426 87.444 
L 265.300328 87.444 
z
" clip-path="url(#p506718650e)" style="fill: #0000ff"/>
   </g>
   <g id="patch_175">
    <path d="M 365.299135 91.436211 
L 452.872055 91.436211 
L 452.872055 84.008842 
L 365.299135 84.008842 
z
" clip-path="url(#p506718650e)" style="fill: #0000ff"/>
   </g>
   <g id="patch_176">
    <path d="M 453.463764 88.001053 
L 580.089472 88.001053 
L 580.089472 87.444 
L 453.463764 87.444 
z
" clip-path="url(#p506718650e)" style="fill: #0000ff"/>
   </g>
   <g id="patch_177">
    <path d="M 144 69.432632 
L 196.662094 69.432632 
L 196.662094 68.875579 
L 144 68.875579 
z
" clip-path="url(#p506718650e)" style="fill: #0000ff"/>
   </g>
   <g id="patch_178">
    <path d="M 197.253803 72.867789 
L 261.750075 72.867789 
L 261.750075 65.440421 
L 197.253803 65.440421 
z
" clip-path="url(#p506718650e)" style="fill: #0000ff"/>
   </g>
   <g id="patch_179">
    <path d="M 201.987474 72.867789 
L 236.8983 72.867789 
L 236.8983 65.440421 
L 201.987474 65.440421 
z
" clip-path="url(#p506718650e)" style="fill: #0000ff"/>
   </g>
   <g id="patch_180">
    <path d="M 203.762601 72.867789 
L 258.79153 72.867789 
L 258.79153 65.440421 
L 203.762601 65.440421 
z
" clip-path="url(#p506718650e)" style="fill: #0000ff"/>
   </g>
   <g id="patch_181">
    <path d="M 204.35431 72.867789 
L 258.199821 72.867789 
L 258.199821 65.440421 
L 204.35431 65.440421 
z
" clip-path="url(#p506718650e)" style="fill: #0000ff"/>
   </g>
   <g id="patch_182">
    <path d="M 204.35431 72.867789 
L 261.158366 72.867789 
L 261.158366 65.440421 
L 204.35431 65.440421 
z
" clip-path="url(#p506718650e)" style="fill: #0000ff"/>
   </g>
   <g id="patch_183">
    <path d="M 204.946018 72.867789 
L 259.383239 72.867789 
L 259.383239 65.440421 
L 204.946018 65.440421 
z
" clip-path="url(#p506718650e)" style="fill: #0000ff"/>
   </g>
   <g id="patch_184">
    <path d="M 204.946018 72.867789 
L 258.79153 72.867789 
L 258.79153 65.440421 
L 204.946018 65.440421 
z
" clip-path="url(#p506718650e)" style="fill: #0000ff"/>
   </g>
   <g id="patch_185">
    <path d="M 204.946018 72.867789 
L 256.424694 72.867789 
L 256.424694 65.440421 
L 204.946018 65.440421 
z
" clip-path="url(#p506718650e)" style="fill: #0000ff"/>
   </g>
   <g id="patch_186">
    <path d="M 204.946018 72.867789 
L 258.199821 72.867789 
L 258.199821 65.440421 
L 204.946018 65.440421 
z
" clip-path="url(#p506718650e)" style="fill: #0000ff"/>
   </g>
   <g id="patch_187">
    <path d="M 204.946018 72.867789 
L 250.507605 72.867789 
L 250.507605 65.440421 
L 204.946018 65.440421 
z
" clip-path="url(#p506718650e)" style="fill: #0000ff"/>
   </g>
   <g id="patch_188">
    <path d="M 215.596779 72.867789 
L 255.832985 72.867789 
L 255.832985 65.440421 
L 215.596779 65.440421 
z
" clip-path="url(#p506718650e)" style="fill: #0000ff"/>
   </g>
   <g id="patch_189">
    <path d="M 262.341783 69.432632 
L 361.748882 69.432632 
L 361.748882 68.875579 
L 262.341783 68.875579 
z
" clip-path="url(#p506718650e)" style="fill: #0000ff"/>
   </g>
   <g id="patch_190">
    <path d="M 362.340591 72.867789 
L 449.91351 72.867789 
L 449.91351 65.440421 
L 362.340591 65.440421 
z
" clip-path="url(#p506718650e)" style="fill: #0000ff"/>
   </g>
   <g id="patch_191">
    <path d="M 450.505219 69.432632 
L 571.805547 69.432632 
L 571.805547 68.875579 
L 450.505219 68.875579 
z
" clip-path="url(#p506718650e)" style="fill: #0000ff"/>
   </g>
   <g id="patch_192">
    <path d="M 144 50.864211 
L 186.011333 50.864211 
L 186.011333 50.307158 
L 144 50.307158 
z
" clip-path="url(#p506718650e)" style="fill: #0000ff"/>
   </g>
   <g id="patch_193">
    <path d="M 186.603042 54.299368 
L 248.732478 54.299368 
L 248.732478 46.872 
L 186.603042 46.872 
z
" clip-path="url(#p506718650e)" style="fill: #0000ff"/>
   </g>
   <g id="patch_194">
    <path d="M 189.561587 54.299368 
L 223.880704 54.299368 
L 223.880704 46.872 
L 189.561587 46.872 
z
" clip-path="url(#p506718650e)" style="fill: #0000ff"/>
   </g>
   <g id="patch_195">
    <path d="M 190.745004 54.299368 
L 245.773934 54.299368 
L 245.773934 46.872 
L 190.745004 46.872 
z
" clip-path="url(#p506718650e)" style="fill: #0000ff"/>
   </g>
   <g id="patch_196">
    <path d="M 191.336713 54.299368 
L 239.856845 54.299368 
L 239.856845 46.872 
L 191.336713 46.872 
z
" clip-path="url(#p506718650e)" style="fill: #0000ff"/>
   </g>
   <g id="patch_197">
    <path d="M 191.928422 54.299368 
L 246.365643 54.299368 
L 246.365643 46.872 
L 191.928422 46.872 
z
" clip-path="url(#p506718650e)" style="fill: #0000ff"/>
   </g>
   <g id="patch_198">
    <path d="M 191.928422 54.299368 
L 245.773934 54.299368 
L 245.773934 46.872 
L 191.928422 46.872 
z
" clip-path="url(#p506718650e)" style="fill: #0000ff"/>
   </g>
   <g id="patch_199">
    <path d="M 191.928422 54.299368 
L 237.490009 54.299368 
L 237.490009 46.872 
L 191.928422 46.872 
z
" clip-path="url(#p506718650e)" style="fill: #0000ff"/>
   </g>
   <g id="patch_200">
    <path d="M 191.928422 54.299368 
L 242.22368 54.299368 
L 242.22368 46.872 
L 191.928422 46.872 
z
" clip-path="url(#p506718650e)" style="fill: #0000ff"/>
   </g>
   <g id="patch_201">
    <path d="M 191.928422 54.299368 
L 237.490009 54.299368 
L 237.490009 46.872 
L 191.928422 46.872 
z
" clip-path="url(#p506718650e)" style="fill: #0000ff"/>
   </g>
   <g id="patch_202">
    <path d="M 202.579183 54.299368 
L 240.448554 54.299368 
L 240.448554 46.872 
L 202.579183 46.872 
z
" clip-path="url(#p506718650e)" style="fill: #0000ff"/>
   </g>
   <g id="patch_203">
    <path d="M 249.324187 50.864211 
L 337.488816 50.864211 
L 337.488816 50.307158 
L 249.324187 50.307158 
z
" clip-path="url(#p506718650e)" style="fill: #0000ff"/>
   </g>
   <g id="patch_204">
    <path d="M 338.080525 54.299368 
L 425.061736 54.299368 
L 425.061736 46.872 
L 338.080525 46.872 
z
" clip-path="url(#p506718650e)" style="fill: #0000ff"/>
   </g>
   <g id="patch_205">
    <path d="M 425.653445 50.864211 
L 535.119594 50.864211 
L 535.119594 50.307158 
L 425.653445 50.307158 
z
" clip-path="url(#p506718650e)" style="fill: #0000ff"/>
   </g>
   <g id="matplotlib.axis_1">
    <g id="xtick_1">
     <g id="line2d_1">
      <defs>
       <path id="m9085bbded4" d="M 0 0 
L 0 3.5 
" style="stroke: #000000; stroke-width: 0.8"/>
      </defs>
      <g>
       <use xlink:href="#m9085bbded4" x="261.750075" y="269.136" style="stroke: #000000; stroke-width: 0.8"/>
      </g>
     </g>
     <g id="text_1">
      <!-- 200 -->
      <g transform="translate(252.206325 283.734438) scale(0.1 -0.1)">
       <defs>
        <path id="DejaVuSans-32" d="M 1228 531 
L 3431 531 
L 3431 0 
L 469 0 
L 469 531 
Q 828 903 1448 1529 
Q 2069 2156 2228 2338 
Q 2531 2678 2651 2914 
Q 2772 3150 2772 3378 
Q 2772 3750 2511 3984 
Q 2250 4219 1831 4219 
Q 1534 4219 1204 4116 
Q 875 4013 500 3803 
L 500 4441 
Q 881 4594 1212 4672 
Q 1544 4750 1819 4750 
Q 2544 4750 2975 4387 
Q 3406 4025 3406 3419 
Q 3406 3131 3298 2873 
Q 3191 2616 2906 2266 
Q 2828 2175 2409 1742 
Q 1991 1309 1228 531 
z
" transform="scale(0.015625)"/>
        <path id="DejaVuSans-30" d="M 2034 4250 
Q 1547 4250 1301 3770 
Q 1056 3291 1056 2328 
Q 1056 1369 1301 889 
Q 1547 409 2034 409 
Q 2525 409 2770 889 
Q 3016 1369 3016 2328 
Q 3016 3291 2770 3770 
Q 2525 4250 2034 4250 
z
M 2034 4750 
Q 2819 4750 3233 4129 
Q 3647 3509 3647 2328 
Q 3647 1150 3233 529 
Q 2819 -91 2034 -91 
Q 1250 -91 836 529 
Q 422 1150 422 2328 
Q 422 3509 836 4129 
Q 1250 4750 2034 4750 
z
" transform="scale(0.015625)"/>
       </defs>
       <use xlink:href="#DejaVuSans-32"/>
       <use xlink:href="#DejaVuSans-30" x="63.623047"/>
       <use xlink:href="#DejaVuSans-30" x="127.246094"/>
      </g>
     </g>
    </g>
    <g id="xtick_2">
     <g id="line2d_2">
      <g>
       <use xlink:href="#m9085bbded4" x="380.091858" y="269.136" style="stroke: #000000; stroke-width: 0.8"/>
      </g>
     </g>
     <g id="text_2">
      <!-- 400 -->
      <g transform="translate(370.548108 283.734438) scale(0.1 -0.1)">
       <defs>
        <path id="DejaVuSans-34" d="M 2419 4116 
L 825 1625 
L 2419 1625 
L 2419 4116 
z
M 2253 4666 
L 3047 4666 
L 3047 1625 
L 3713 1625 
L 3713 1100 
L 3047 1100 
L 3047 0 
L 2419 0 
L 2419 1100 
L 313 1100 
L 313 1709 
L 2253 4666 
z
" transform="scale(0.015625)"/>
       </defs>
       <use xlink:href="#DejaVuSans-34"/>
       <use xlink:href="#DejaVuSans-30" x="63.623047"/>
       <use xlink:href="#DejaVuSans-30" x="127.246094"/>
      </g>
     </g>
    </g>
    <g id="xtick_3">
     <g id="line2d_3">
      <g>
       <use xlink:href="#m9085bbded4" x="498.433642" y="269.136" style="stroke: #000000; stroke-width: 0.8"/>
      </g>
     </g>
     <g id="text_3">
      <!-- 600 -->
      <g transform="translate(488.889892 283.734438) scale(0.1 -0.1)">
       <defs>
        <path id="DejaVuSans-36" d="M 2113 2584 
Q 1688 2584 1439 2293 
Q 1191 2003 1191 1497 
Q 1191 994 1439 701 
Q 1688 409 2113 409 
Q 2538 409 2786 701 
Q 3034 994 3034 1497 
Q 3034 2003 2786 2293 
Q 2538 2584 2113 2584 
z
M 3366 4563 
L 3366 3988 
Q 3128 4100 2886 4159 
Q 2644 4219 2406 4219 
Q 1781 4219 1451 3797 
Q 1122 3375 1075 2522 
Q 1259 2794 1537 2939 
Q 1816 3084 2150 3084 
Q 2853 3084 3261 2657 
Q 3669 2231 3669 1497 
Q 3669 778 3244 343 
Q 2819 -91 2113 -91 
Q 1303 -91 875 529 
Q 447 1150 447 2328 
Q 447 3434 972 4092 
Q 1497 4750 2381 4750 
Q 2619 4750 2861 4703 
Q 3103 4656 3366 4563 
z
" transform="scale(0.015625)"/>
       </defs>
       <use xlink:href="#DejaVuSans-36"/>
       <use xlink:href="#DejaVuSans-30" x="63.623047"/>
       <use xlink:href="#DejaVuSans-30" x="127.246094"/>
      </g>
     </g>
    </g>
    <g id="xtick_4">
     <g id="line2d_4">
      <g>
       <use xlink:href="#m9085bbded4" x="616.775425" y="269.136" style="stroke: #000000; stroke-width: 0.8"/>
      </g>
     </g>
     <g id="text_4">
      <!-- 800 -->
      <g transform="translate(607.231675 283.734438) scale(0.1 -0.1)">
       <defs>
        <path id="DejaVuSans-38" d="M 2034 2216 
Q 1584 2216 1326 1975 
Q 1069 1734 1069 1313 
Q 1069 891 1326 650 
Q 1584 409 2034 409 
Q 2484 409 2743 651 
Q 3003 894 3003 1313 
Q 3003 1734 2745 1975 
Q 2488 2216 2034 2216 
z
M 1403 2484 
Q 997 2584 770 2862 
Q 544 3141 544 3541 
Q 544 4100 942 4425 
Q 1341 4750 2034 4750 
Q 2731 4750 3128 4425 
Q 3525 4100 3525 3541 
Q 3525 3141 3298 2862 
Q 3072 2584 2669 2484 
Q 3125 2378 3379 2068 
Q 3634 1759 3634 1313 
Q 3634 634 3220 271 
Q 2806 -91 2034 -91 
Q 1263 -91 848 271 
Q 434 634 434 1313 
Q 434 1759 690 2068 
Q 947 2378 1403 2484 
z
M 1172 3481 
Q 1172 3119 1398 2916 
Q 1625 2713 2034 2713 
Q 2441 2713 2670 2916 
Q 2900 3119 2900 3481 
Q 2900 3844 2670 4047 
Q 2441 4250 2034 4250 
Q 1625 4250 1398 4047 
Q 1172 3844 1172 3481 
z
" transform="scale(0.015625)"/>
       </defs>
       <use xlink:href="#DejaVuSans-38"/>
       <use xlink:href="#DejaVuSans-30" x="63.623047"/>
       <use xlink:href="#DejaVuSans-30" x="127.246094"/>
      </g>
     </g>
    </g>
    <g id="xtick_5">
     <g id="line2d_5">
      <g>
       <use xlink:href="#m9085bbded4" x="735.117208" y="269.136" style="stroke: #000000; stroke-width: 0.8"/>
      </g>
     </g>
     <g id="text_5">
      <!-- 1000 -->
      <g transform="translate(722.392208 283.734438) scale(0.1 -0.1)">
       <defs>
        <path id="DejaVuSans-31" d="M 794 531 
L 1825 531 
L 1825 4091 
L 703 3866 
L 703 4441 
L 1819 4666 
L 2450 4666 
L 2450 531 
L 3481 531 
L 3481 0 
L 794 0 
L 794 531 
z
" transform="scale(0.015625)"/>
       </defs>
       <use xlink:href="#DejaVuSans-31"/>
       <use xlink:href="#DejaVuSans-30" x="63.623047"/>
       <use xlink:href="#DejaVuSans-30" x="127.246094"/>
       <use xlink:href="#DejaVuSans-30" x="190.869141"/>
      </g>
     </g>
    </g>
    <g id="xtick_6">
     <g id="line2d_6">
      <g>
       <use xlink:href="#m9085bbded4" x="853.458992" y="269.136" style="stroke: #000000; stroke-width: 0.8"/>
      </g>
     </g>
     <g id="text_6">
      <!-- 1200 -->
      <g transform="translate(840.733992 283.734438) scale(0.1 -0.1)">
       <use xlink:href="#DejaVuSans-31"/>
       <use xlink:href="#DejaVuSans-32" x="63.623047"/>
       <use xlink:href="#DejaVuSans-30" x="127.246094"/>
       <use xlink:href="#DejaVuSans-30" x="190.869141"/>
      </g>
     </g>
    </g>
    <g id="xtick_7">
     <g id="line2d_7">
      <g>
       <use xlink:href="#m9085bbded4" x="971.800775" y="269.136" style="stroke: #000000; stroke-width: 0.8"/>
      </g>
     </g>
     <g id="text_7">
      <!-- 1400 -->
      <g transform="translate(959.075775 283.734438) scale(0.1 -0.1)">
       <use xlink:href="#DejaVuSans-31"/>
       <use xlink:href="#DejaVuSans-34" x="63.623047"/>
       <use xlink:href="#DejaVuSans-30" x="127.246094"/>
       <use xlink:href="#DejaVuSans-30" x="190.869141"/>
      </g>
     </g>
    </g>
    <g id="text_8">
     <!-- Residual -->
     <g transform="translate(569.284375 297.412563) scale(0.1 -0.1)">
      <defs>
       <path id="DejaVuSans-52" d="M 2841 2188 
Q 3044 2119 3236 1894 
Q 3428 1669 3622 1275 
L 4263 0 
L 3584 0 
L 2988 1197 
Q 2756 1666 2539 1819 
Q 2322 1972 1947 1972 
L 1259 1972 
L 1259 0 
L 628 0 
L 628 4666 
L 2053 4666 
Q 2853 4666 3247 4331 
Q 3641 3997 3641 3322 
Q 3641 2881 3436 2590 
Q 3231 2300 2841 2188 
z
M 1259 4147 
L 1259 2491 
L 2053 2491 
Q 2509 2491 2742 2702 
Q 2975 2913 2975 3322 
Q 2975 3731 2742 3939 
Q 2509 4147 2053 4147 
L 1259 4147 
z
" transform="scale(0.015625)"/>
       <path id="DejaVuSans-65" d="M 3597 1894 
L 3597 1613 
L 953 1613 
Q 991 1019 1311 708 
Q 1631 397 2203 397 
Q 2534 397 2845 478 
Q 3156 559 3463 722 
L 3463 178 
Q 3153 47 2828 -22 
Q 2503 -91 2169 -91 
Q 1331 -91 842 396 
Q 353 884 353 1716 
Q 353 2575 817 3079 
Q 1281 3584 2069 3584 
Q 2775 3584 3186 3129 
Q 3597 2675 3597 1894 
z
M 3022 2063 
Q 3016 2534 2758 2815 
Q 2500 3097 2075 3097 
Q 1594 3097 1305 2825 
Q 1016 2553 972 2059 
L 3022 2063 
z
" transform="scale(0.015625)"/>
       <path id="DejaVuSans-73" d="M 2834 3397 
L 2834 2853 
Q 2591 2978 2328 3040 
Q 2066 3103 1784 3103 
Q 1356 3103 1142 2972 
Q 928 2841 928 2578 
Q 928 2378 1081 2264 
Q 1234 2150 1697 2047 
L 1894 2003 
Q 2506 1872 2764 1633 
Q 3022 1394 3022 966 
Q 3022 478 2636 193 
Q 2250 -91 1575 -91 
Q 1294 -91 989 -36 
Q 684 19 347 128 
L 347 722 
Q 666 556 975 473 
Q 1284 391 1588 391 
Q 1994 391 2212 530 
Q 2431 669 2431 922 
Q 2431 1156 2273 1281 
Q 2116 1406 1581 1522 
L 1381 1569 
Q 847 1681 609 1914 
Q 372 2147 372 2553 
Q 372 3047 722 3315 
Q 1072 3584 1716 3584 
Q 2034 3584 2315 3537 
Q 2597 3491 2834 3397 
z
" transform="scale(0.015625)"/>
       <path id="DejaVuSans-69" d="M 603 3500 
L 1178 3500 
L 1178 0 
L 603 0 
L 603 3500 
z
M 603 4863 
L 1178 4863 
L 1178 4134 
L 603 4134 
L 603 4863 
z
" transform="scale(0.015625)"/>
       <path id="DejaVuSans-64" d="M 2906 2969 
L 2906 4863 
L 3481 4863 
L 3481 0 
L 2906 0 
L 2906 525 
Q 2725 213 2448 61 
Q 2172 -91 1784 -91 
Q 1150 -91 751 415 
Q 353 922 353 1747 
Q 353 2572 751 3078 
Q 1150 3584 1784 3584 
Q 2172 3584 2448 3432 
Q 2725 3281 2906 2969 
z
M 947 1747 
Q 947 1113 1208 752 
Q 1469 391 1925 391 
Q 2381 391 2643 752 
Q 2906 1113 2906 1747 
Q 2906 2381 2643 2742 
Q 2381 3103 1925 3103 
Q 1469 3103 1208 2742 
Q 947 2381 947 1747 
z
" transform="scale(0.015625)"/>
       <path id="DejaVuSans-75" d="M 544 1381 
L 544 3500 
L 1119 3500 
L 1119 1403 
Q 1119 906 1312 657 
Q 1506 409 1894 409 
Q 2359 409 2629 706 
Q 2900 1003 2900 1516 
L 2900 3500 
L 3475 3500 
L 3475 0 
L 2900 0 
L 2900 538 
Q 2691 219 2414 64 
Q 2138 -91 1772 -91 
Q 1169 -91 856 284 
Q 544 659 544 1381 
z
M 1991 3584 
L 1991 3584 
z
" transform="scale(0.015625)"/>
       <path id="DejaVuSans-61" d="M 2194 1759 
Q 1497 1759 1228 1600 
Q 959 1441 959 1056 
Q 959 750 1161 570 
Q 1363 391 1709 391 
Q 2188 391 2477 730 
Q 2766 1069 2766 1631 
L 2766 1759 
L 2194 1759 
z
M 3341 1997 
L 3341 0 
L 2766 0 
L 2766 531 
Q 2569 213 2275 61 
Q 1981 -91 1556 -91 
Q 1019 -91 701 211 
Q 384 513 384 1019 
Q 384 1609 779 1909 
Q 1175 2209 1959 2209 
L 2766 2209 
L 2766 2266 
Q 2766 2663 2505 2880 
Q 2244 3097 1772 3097 
Q 1472 3097 1187 3025 
Q 903 2953 641 2809 
L 641 3341 
Q 956 3463 1253 3523 
Q 1550 3584 1831 3584 
Q 2591 3584 2966 3190 
Q 3341 2797 3341 1997 
z
" transform="scale(0.015625)"/>
       <path id="DejaVuSans-6c" d="M 603 4863 
L 1178 4863 
L 1178 0 
L 603 0 
L 603 4863 
z
" transform="scale(0.015625)"/>
      </defs>
      <use xlink:href="#DejaVuSans-52"/>
      <use xlink:href="#DejaVuSans-65" x="64.982422"/>
      <use xlink:href="#DejaVuSans-73" x="126.505859"/>
      <use xlink:href="#DejaVuSans-69" x="178.605469"/>
      <use xlink:href="#DejaVuSans-64" x="206.388672"/>
      <use xlink:href="#DejaVuSans-75" x="269.865234"/>
      <use xlink:href="#DejaVuSans-61" x="333.244141"/>
      <use xlink:href="#DejaVuSans-6c" x="394.523438"/>
     </g>
    </g>
   </g>
   <g id="matplotlib.axis_2">
    <g id="ytick_1">
     <g id="line2d_8">
      <defs>
       <path id="mbfce6845e9" d="M 0 0 
L -3.5 0 
" style="stroke: #000000; stroke-width: 0.8"/>
      </defs>
      <g>
       <use xlink:href="#mbfce6845e9" x="144" y="254.838316" style="stroke: #000000; stroke-width: 0.8"/>
      </g>
     </g>
     <g id="text_9">
      <!-- 9.B.198.1.1 -->
      <g transform="translate(79.251563 258.637535) scale(0.1 -0.1)">
       <defs>
        <path id="DejaVuSans-39" d="M 703 97 
L 703 672 
Q 941 559 1184 500 
Q 1428 441 1663 441 
Q 2288 441 2617 861 
Q 2947 1281 2994 2138 
Q 2813 1869 2534 1725 
Q 2256 1581 1919 1581 
Q 1219 1581 811 2004 
Q 403 2428 403 3163 
Q 403 3881 828 4315 
Q 1253 4750 1959 4750 
Q 2769 4750 3195 4129 
Q 3622 3509 3622 2328 
Q 3622 1225 3098 567 
Q 2575 -91 1691 -91 
Q 1453 -91 1209 -44 
Q 966 3 703 97 
z
M 1959 2075 
Q 2384 2075 2632 2365 
Q 2881 2656 2881 3163 
Q 2881 3666 2632 3958 
Q 2384 4250 1959 4250 
Q 1534 4250 1286 3958 
Q 1038 3666 1038 3163 
Q 1038 2656 1286 2365 
Q 1534 2075 1959 2075 
z
" transform="scale(0.015625)"/>
        <path id="DejaVuSans-2e" d="M 684 794 
L 1344 794 
L 1344 0 
L 684 0 
L 684 794 
z
" transform="scale(0.015625)"/>
        <path id="DejaVuSans-42" d="M 1259 2228 
L 1259 519 
L 2272 519 
Q 2781 519 3026 730 
Q 3272 941 3272 1375 
Q 3272 1813 3026 2020 
Q 2781 2228 2272 2228 
L 1259 2228 
z
M 1259 4147 
L 1259 2741 
L 2194 2741 
Q 2656 2741 2882 2914 
Q 3109 3088 3109 3444 
Q 3109 3797 2882 3972 
Q 2656 4147 2194 4147 
L 1259 4147 
z
M 628 4666 
L 2241 4666 
Q 2963 4666 3353 4366 
Q 3744 4066 3744 3513 
Q 3744 3084 3544 2831 
Q 3344 2578 2956 2516 
Q 3422 2416 3680 2098 
Q 3938 1781 3938 1306 
Q 3938 681 3513 340 
Q 3088 0 2303 0 
L 628 0 
L 628 4666 
z
" transform="scale(0.015625)"/>
       </defs>
       <use xlink:href="#DejaVuSans-39"/>
       <use xlink:href="#DejaVuSans-2e" x="63.623047"/>
       <use xlink:href="#DejaVuSans-42" x="95.410156"/>
       <use xlink:href="#DejaVuSans-2e" x="164.013672"/>
       <use xlink:href="#DejaVuSans-31" x="195.800781"/>
       <use xlink:href="#DejaVuSans-39" x="259.423828"/>
       <use xlink:href="#DejaVuSans-38" x="323.046875"/>
       <use xlink:href="#DejaVuSans-2e" x="386.669922"/>
       <use xlink:href="#DejaVuSans-31" x="418.457031"/>
       <use xlink:href="#DejaVuSans-2e" x="482.080078"/>
       <use xlink:href="#DejaVuSans-31" x="513.867188"/>
      </g>
     </g>
    </g>
    <g id="ytick_2">
     <g id="line2d_9">
      <g>
       <use xlink:href="#mbfce6845e9" x="144" y="236.269895" style="stroke: #000000; stroke-width: 0.8"/>
      </g>
     </g>
     <g id="text_10">
      <!-- 9.B.198.1.2 -->
      <g transform="translate(79.251563 240.069113) scale(0.1 -0.1)">
       <use xlink:href="#DejaVuSans-39"/>
       <use xlink:href="#DejaVuSans-2e" x="63.623047"/>
       <use xlink:href="#DejaVuSans-42" x="95.410156"/>
       <use xlink:href="#DejaVuSans-2e" x="164.013672"/>
       <use xlink:href="#DejaVuSans-31" x="195.800781"/>
       <use xlink:href="#DejaVuSans-39" x="259.423828"/>
       <use xlink:href="#DejaVuSans-38" x="323.046875"/>
       <use xlink:href="#DejaVuSans-2e" x="386.669922"/>
       <use xlink:href="#DejaVuSans-31" x="418.457031"/>
       <use xlink:href="#DejaVuSans-2e" x="482.080078"/>
       <use xlink:href="#DejaVuSans-32" x="513.867188"/>
      </g>
     </g>
    </g>
    <g id="ytick_3">
     <g id="line2d_10">
      <g>
       <use xlink:href="#mbfce6845e9" x="144" y="217.701474" style="stroke: #000000; stroke-width: 0.8"/>
      </g>
     </g>
     <g id="text_11">
      <!-- 9.B.198.1.3 -->
      <g transform="translate(79.251563 221.500692) scale(0.1 -0.1)">
       <defs>
        <path id="DejaVuSans-33" d="M 2597 2516 
Q 3050 2419 3304 2112 
Q 3559 1806 3559 1356 
Q 3559 666 3084 287 
Q 2609 -91 1734 -91 
Q 1441 -91 1130 -33 
Q 819 25 488 141 
L 488 750 
Q 750 597 1062 519 
Q 1375 441 1716 441 
Q 2309 441 2620 675 
Q 2931 909 2931 1356 
Q 2931 1769 2642 2001 
Q 2353 2234 1838 2234 
L 1294 2234 
L 1294 2753 
L 1863 2753 
Q 2328 2753 2575 2939 
Q 2822 3125 2822 3475 
Q 2822 3834 2567 4026 
Q 2313 4219 1838 4219 
Q 1578 4219 1281 4162 
Q 984 4106 628 3988 
L 628 4550 
Q 988 4650 1302 4700 
Q 1616 4750 1894 4750 
Q 2613 4750 3031 4423 
Q 3450 4097 3450 3541 
Q 3450 3153 3228 2886 
Q 3006 2619 2597 2516 
z
" transform="scale(0.015625)"/>
       </defs>
       <use xlink:href="#DejaVuSans-39"/>
       <use xlink:href="#DejaVuSans-2e" x="63.623047"/>
       <use xlink:href="#DejaVuSans-42" x="95.410156"/>
       <use xlink:href="#DejaVuSans-2e" x="164.013672"/>
       <use xlink:href="#DejaVuSans-31" x="195.800781"/>
       <use xlink:href="#DejaVuSans-39" x="259.423828"/>
       <use xlink:href="#DejaVuSans-38" x="323.046875"/>
       <use xlink:href="#DejaVuSans-2e" x="386.669922"/>
       <use xlink:href="#DejaVuSans-31" x="418.457031"/>
       <use xlink:href="#DejaVuSans-2e" x="482.080078"/>
       <use xlink:href="#DejaVuSans-33" x="513.867188"/>
      </g>
     </g>
    </g>
    <g id="ytick_4">
     <g id="line2d_11">
      <g>
       <use xlink:href="#mbfce6845e9" x="144" y="199.133053" style="stroke: #000000; stroke-width: 0.8"/>
      </g>
     </g>
     <g id="text_12">
      <!-- 9.B.198.1.4 -->
      <g transform="translate(79.251563 202.932271) scale(0.1 -0.1)">
       <use xlink:href="#DejaVuSans-39"/>
       <use xlink:href="#DejaVuSans-2e" x="63.623047"/>
       <use xlink:href="#DejaVuSans-42" x="95.410156"/>
       <use xlink:href="#DejaVuSans-2e" x="164.013672"/>
       <use xlink:href="#DejaVuSans-31" x="195.800781"/>
       <use xlink:href="#DejaVuSans-39" x="259.423828"/>
       <use xlink:href="#DejaVuSans-38" x="323.046875"/>
       <use xlink:href="#DejaVuSans-2e" x="386.669922"/>
       <use xlink:href="#DejaVuSans-31" x="418.457031"/>
       <use xlink:href="#DejaVuSans-2e" x="482.080078"/>
       <use xlink:href="#DejaVuSans-34" x="513.867188"/>
      </g>
     </g>
    </g>
    <g id="ytick_5">
     <g id="line2d_12">
      <g>
       <use xlink:href="#mbfce6845e9" x="144" y="180.564632" style="stroke: #000000; stroke-width: 0.8"/>
      </g>
     </g>
     <g id="text_13">
      <!-- 9.B.198.1.5 -->
      <g transform="translate(79.251563 184.36385) scale(0.1 -0.1)">
       <defs>
        <path id="DejaVuSans-35" d="M 691 4666 
L 3169 4666 
L 3169 4134 
L 1269 4134 
L 1269 2991 
Q 1406 3038 1543 3061 
Q 1681 3084 1819 3084 
Q 2600 3084 3056 2656 
Q 3513 2228 3513 1497 
Q 3513 744 3044 326 
Q 2575 -91 1722 -91 
Q 1428 -91 1123 -41 
Q 819 9 494 109 
L 494 744 
Q 775 591 1075 516 
Q 1375 441 1709 441 
Q 2250 441 2565 725 
Q 2881 1009 2881 1497 
Q 2881 1984 2565 2268 
Q 2250 2553 1709 2553 
Q 1456 2553 1204 2497 
Q 953 2441 691 2322 
L 691 4666 
z
" transform="scale(0.015625)"/>
       </defs>
       <use xlink:href="#DejaVuSans-39"/>
       <use xlink:href="#DejaVuSans-2e" x="63.623047"/>
       <use xlink:href="#DejaVuSans-42" x="95.410156"/>
       <use xlink:href="#DejaVuSans-2e" x="164.013672"/>
       <use xlink:href="#DejaVuSans-31" x="195.800781"/>
       <use xlink:href="#DejaVuSans-39" x="259.423828"/>
       <use xlink:href="#DejaVuSans-38" x="323.046875"/>
       <use xlink:href="#DejaVuSans-2e" x="386.669922"/>
       <use xlink:href="#DejaVuSans-31" x="418.457031"/>
       <use xlink:href="#DejaVuSans-2e" x="482.080078"/>
       <use xlink:href="#DejaVuSans-35" x="513.867188"/>
      </g>
     </g>
    </g>
    <g id="ytick_6">
     <g id="line2d_13">
      <g>
       <use xlink:href="#mbfce6845e9" x="144" y="161.996211" style="stroke: #000000; stroke-width: 0.8"/>
      </g>
     </g>
     <g id="text_14">
      <!-- 9.B.198.2.1 -->
      <g transform="translate(79.251563 165.795429) scale(0.1 -0.1)">
       <use xlink:href="#DejaVuSans-39"/>
       <use xlink:href="#DejaVuSans-2e" x="63.623047"/>
       <use xlink:href="#DejaVuSans-42" x="95.410156"/>
       <use xlink:href="#DejaVuSans-2e" x="164.013672"/>
       <use xlink:href="#DejaVuSans-31" x="195.800781"/>
       <use xlink:href="#DejaVuSans-39" x="259.423828"/>
       <use xlink:href="#DejaVuSans-38" x="323.046875"/>
       <use xlink:href="#DejaVuSans-2e" x="386.669922"/>
       <use xlink:href="#DejaVuSans-32" x="418.457031"/>
       <use xlink:href="#DejaVuSans-2e" x="482.080078"/>
       <use xlink:href="#DejaVuSans-31" x="513.867188"/>
      </g>
     </g>
    </g>
    <g id="ytick_7">
     <g id="line2d_14">
      <g>
       <use xlink:href="#mbfce6845e9" x="144" y="143.427789" style="stroke: #000000; stroke-width: 0.8"/>
      </g>
     </g>
     <g id="text_15">
      <!-- 9.B.198.2.2 -->
      <g transform="translate(79.251563 147.227008) scale(0.1 -0.1)">
       <use xlink:href="#DejaVuSans-39"/>
       <use xlink:href="#DejaVuSans-2e" x="63.623047"/>
       <use xlink:href="#DejaVuSans-42" x="95.410156"/>
       <use xlink:href="#DejaVuSans-2e" x="164.013672"/>
       <use xlink:href="#DejaVuSans-31" x="195.800781"/>
       <use xlink:href="#DejaVuSans-39" x="259.423828"/>
       <use xlink:href="#DejaVuSans-38" x="323.046875"/>
       <use xlink:href="#DejaVuSans-2e" x="386.669922"/>
       <use xlink:href="#DejaVuSans-32" x="418.457031"/>
       <use xlink:href="#DejaVuSans-2e" x="482.080078"/>
       <use xlink:href="#DejaVuSans-32" x="513.867188"/>
      </g>
     </g>
    </g>
    <g id="ytick_8">
     <g id="line2d_15">
      <g>
       <use xlink:href="#mbfce6845e9" x="144" y="124.859368" style="stroke: #000000; stroke-width: 0.8"/>
      </g>
     </g>
     <g id="text_16">
      <!-- 9.B.198.2.3 -->
      <g transform="translate(79.251563 128.658587) scale(0.1 -0.1)">
       <use xlink:href="#DejaVuSans-39"/>
       <use xlink:href="#DejaVuSans-2e" x="63.623047"/>
       <use xlink:href="#DejaVuSans-42" x="95.410156"/>
       <use xlink:href="#DejaVuSans-2e" x="164.013672"/>
       <use xlink:href="#DejaVuSans-31" x="195.800781"/>
       <use xlink:href="#DejaVuSans-39" x="259.423828"/>
       <use xlink:href="#DejaVuSans-38" x="323.046875"/>
       <use xlink:href="#DejaVuSans-2e" x="386.669922"/>
       <use xlink:href="#DejaVuSans-32" x="418.457031"/>
       <use xlink:href="#DejaVuSans-2e" x="482.080078"/>
       <use xlink:href="#DejaVuSans-33" x="513.867188"/>
      </g>
     </g>
    </g>
    <g id="ytick_9">
     <g id="line2d_16">
      <g>
       <use xlink:href="#mbfce6845e9" x="144" y="106.290947" style="stroke: #000000; stroke-width: 0.8"/>
      </g>
     </g>
     <g id="text_17">
      <!-- 9.B.198.2.4 -->
      <g transform="translate(79.251563 110.090166) scale(0.1 -0.1)">
       <use xlink:href="#DejaVuSans-39"/>
       <use xlink:href="#DejaVuSans-2e" x="63.623047"/>
       <use xlink:href="#DejaVuSans-42" x="95.410156"/>
       <use xlink:href="#DejaVuSans-2e" x="164.013672"/>
       <use xlink:href="#DejaVuSans-31" x="195.800781"/>
       <use xlink:href="#DejaVuSans-39" x="259.423828"/>
       <use xlink:href="#DejaVuSans-38" x="323.046875"/>
       <use xlink:href="#DejaVuSans-2e" x="386.669922"/>
       <use xlink:href="#DejaVuSans-32" x="418.457031"/>
       <use xlink:href="#DejaVuSans-2e" x="482.080078"/>
       <use xlink:href="#DejaVuSans-34" x="513.867188"/>
      </g>
     </g>
    </g>
    <g id="ytick_10">
     <g id="line2d_17">
      <g>
       <use xlink:href="#mbfce6845e9" x="144" y="87.722526" style="stroke: #000000; stroke-width: 0.8"/>
      </g>
     </g>
     <g id="text_18">
      <!-- 9.B.198.2.5 -->
      <g transform="translate(79.251563 91.521745) scale(0.1 -0.1)">
       <use xlink:href="#DejaVuSans-39"/>
       <use xlink:href="#DejaVuSans-2e" x="63.623047"/>
       <use xlink:href="#DejaVuSans-42" x="95.410156"/>
       <use xlink:href="#DejaVuSans-2e" x="164.013672"/>
       <use xlink:href="#DejaVuSans-31" x="195.800781"/>
       <use xlink:href="#DejaVuSans-39" x="259.423828"/>
       <use xlink:href="#DejaVuSans-38" x="323.046875"/>
       <use xlink:href="#DejaVuSans-2e" x="386.669922"/>
       <use xlink:href="#DejaVuSans-32" x="418.457031"/>
       <use xlink:href="#DejaVuSans-2e" x="482.080078"/>
       <use xlink:href="#DejaVuSans-35" x="513.867188"/>
      </g>
     </g>
    </g>
    <g id="ytick_11">
     <g id="line2d_18">
      <g>
       <use xlink:href="#mbfce6845e9" x="144" y="69.154105" style="stroke: #000000; stroke-width: 0.8"/>
      </g>
     </g>
     <g id="text_19">
      <!-- 9.B.198.2.6 -->
      <g transform="translate(79.251563 72.953324) scale(0.1 -0.1)">
       <use xlink:href="#DejaVuSans-39"/>
       <use xlink:href="#DejaVuSans-2e" x="63.623047"/>
       <use xlink:href="#DejaVuSans-42" x="95.410156"/>
       <use xlink:href="#DejaVuSans-2e" x="164.013672"/>
       <use xlink:href="#DejaVuSans-31" x="195.800781"/>
       <use xlink:href="#DejaVuSans-39" x="259.423828"/>
       <use xlink:href="#DejaVuSans-38" x="323.046875"/>
       <use xlink:href="#DejaVuSans-2e" x="386.669922"/>
       <use xlink:href="#DejaVuSans-32" x="418.457031"/>
       <use xlink:href="#DejaVuSans-2e" x="482.080078"/>
       <use xlink:href="#DejaVuSans-36" x="513.867188"/>
      </g>
     </g>
    </g>
    <g id="ytick_12">
     <g id="line2d_19">
      <g>
       <use xlink:href="#mbfce6845e9" x="144" y="50.585684" style="stroke: #000000; stroke-width: 0.8"/>
      </g>
     </g>
     <g id="text_20">
      <!-- 9.B.198.2.7 -->
      <g transform="translate(79.251563 54.384903) scale(0.1 -0.1)">
       <defs>
        <path id="DejaVuSans-37" d="M 525 4666 
L 3525 4666 
L 3525 4397 
L 1831 0 
L 1172 0 
L 2766 4134 
L 525 4134 
L 525 4666 
z
" transform="scale(0.015625)"/>
       </defs>
       <use xlink:href="#DejaVuSans-39"/>
       <use xlink:href="#DejaVuSans-2e" x="63.623047"/>
       <use xlink:href="#DejaVuSans-42" x="95.410156"/>
       <use xlink:href="#DejaVuSans-2e" x="164.013672"/>
       <use xlink:href="#DejaVuSans-31" x="195.800781"/>
       <use xlink:href="#DejaVuSans-39" x="259.423828"/>
       <use xlink:href="#DejaVuSans-38" x="323.046875"/>
       <use xlink:href="#DejaVuSans-2e" x="386.669922"/>
       <use xlink:href="#DejaVuSans-32" x="418.457031"/>
       <use xlink:href="#DejaVuSans-2e" x="482.080078"/>
       <use xlink:href="#DejaVuSans-37" x="513.867188"/>
      </g>
     </g>
    </g>
   </g>
   <g id="patch_206">
    <path d="M 144 269.136 
L 144 36.288 
" style="fill: none; stroke: #000000; stroke-width: 0.8; stroke-linejoin: miter; stroke-linecap: square"/>
   </g>
   <g id="patch_207">
    <path d="M 1036.8 269.136 
L 1036.8 36.288 
" style="fill: none; stroke: #000000; stroke-width: 0.8; stroke-linejoin: miter; stroke-linecap: square"/>
   </g>
   <g id="patch_208">
    <path d="M 144 269.136 
L 1036.8 269.136 
" style="fill: none; stroke: #000000; stroke-width: 0.8; stroke-linejoin: miter; stroke-linecap: square"/>
   </g>
   <g id="patch_209">
    <path d="M 144 36.288 
L 1036.8 36.288 
" style="fill: none; stroke: #000000; stroke-width: 0.8; stroke-linejoin: miter; stroke-linecap: square"/>
   </g>
   <g id="text_21">
    <!-- 9.B.198 Summary -->
    <g transform="translate(536.297812 30.288) scale(0.12 -0.12)">
     <defs>
      <path id="DejaVuSans-20" transform="scale(0.015625)"/>
      <path id="DejaVuSans-53" d="M 3425 4513 
L 3425 3897 
Q 3066 4069 2747 4153 
Q 2428 4238 2131 4238 
Q 1616 4238 1336 4038 
Q 1056 3838 1056 3469 
Q 1056 3159 1242 3001 
Q 1428 2844 1947 2747 
L 2328 2669 
Q 3034 2534 3370 2195 
Q 3706 1856 3706 1288 
Q 3706 609 3251 259 
Q 2797 -91 1919 -91 
Q 1588 -91 1214 -16 
Q 841 59 441 206 
L 441 856 
Q 825 641 1194 531 
Q 1563 422 1919 422 
Q 2459 422 2753 634 
Q 3047 847 3047 1241 
Q 3047 1584 2836 1778 
Q 2625 1972 2144 2069 
L 1759 2144 
Q 1053 2284 737 2584 
Q 422 2884 422 3419 
Q 422 4038 858 4394 
Q 1294 4750 2059 4750 
Q 2388 4750 2728 4690 
Q 3069 4631 3425 4513 
z
" transform="scale(0.015625)"/>
      <path id="DejaVuSans-6d" d="M 3328 2828 
Q 3544 3216 3844 3400 
Q 4144 3584 4550 3584 
Q 5097 3584 5394 3201 
Q 5691 2819 5691 2113 
L 5691 0 
L 5113 0 
L 5113 2094 
Q 5113 2597 4934 2840 
Q 4756 3084 4391 3084 
Q 3944 3084 3684 2787 
Q 3425 2491 3425 1978 
L 3425 0 
L 2847 0 
L 2847 2094 
Q 2847 2600 2669 2842 
Q 2491 3084 2119 3084 
Q 1678 3084 1418 2786 
Q 1159 2488 1159 1978 
L 1159 0 
L 581 0 
L 581 3500 
L 1159 3500 
L 1159 2956 
Q 1356 3278 1631 3431 
Q 1906 3584 2284 3584 
Q 2666 3584 2933 3390 
Q 3200 3197 3328 2828 
z
" transform="scale(0.015625)"/>
      <path id="DejaVuSans-72" d="M 2631 2963 
Q 2534 3019 2420 3045 
Q 2306 3072 2169 3072 
Q 1681 3072 1420 2755 
Q 1159 2438 1159 1844 
L 1159 0 
L 581 0 
L 581 3500 
L 1159 3500 
L 1159 2956 
Q 1341 3275 1631 3429 
Q 1922 3584 2338 3584 
Q 2397 3584 2469 3576 
Q 2541 3569 2628 3553 
L 2631 2963 
z
" transform="scale(0.015625)"/>
      <path id="DejaVuSans-79" d="M 2059 -325 
Q 1816 -950 1584 -1140 
Q 1353 -1331 966 -1331 
L 506 -1331 
L 506 -850 
L 844 -850 
Q 1081 -850 1212 -737 
Q 1344 -625 1503 -206 
L 1606 56 
L 191 3500 
L 800 3500 
L 1894 763 
L 2988 3500 
L 3597 3500 
L 2059 -325 
z
" transform="scale(0.015625)"/>
     </defs>
     <use xlink:href="#DejaVuSans-39"/>
     <use xlink:href="#DejaVuSans-2e" x="63.623047"/>
     <use xlink:href="#DejaVuSans-42" x="95.410156"/>
     <use xlink:href="#DejaVuSans-2e" x="164.013672"/>
     <use xlink:href="#DejaVuSans-31" x="195.800781"/>
     <use xlink:href="#DejaVuSans-39" x="259.423828"/>
     <use xlink:href="#DejaVuSans-38" x="323.046875"/>
     <use xlink:href="#DejaVuSans-20" x="386.669922"/>
     <use xlink:href="#DejaVuSans-53" x="418.457031"/>
     <use xlink:href="#DejaVuSans-75" x="481.933594"/>
     <use xlink:href="#DejaVuSans-6d" x="545.3125"/>
     <use xlink:href="#DejaVuSans-6d" x="642.724609"/>
     <use xlink:href="#DejaVuSans-61" x="740.136719"/>
     <use xlink:href="#DejaVuSans-72" x="801.416016"/>
     <use xlink:href="#DejaVuSans-79" x="842.529297"/>
    </g>
   </g>
  </g>
 </g>
 <defs>
  <clipPath id="p506718650e">
   <rect x="144" y="36.288" width="892.8" height="232.848"/>
  </clipPath>
 </defs>
</svg>
