<?xml version="1.0" encoding="utf-8" standalone="no"?>
<!DOCTYPE svg PUBLIC "-//W3C//DTD SVG 1.1//EN"
  "http://www.w3.org/Graphics/SVG/1.1/DTD/svg11.dtd">
<svg xmlns:xlink="http://www.w3.org/1999/xlink" width="1152pt" height="237.6pt" viewBox="0 0 1152 237.6" xmlns="http://www.w3.org/2000/svg" version="1.1">
 <metadata>
  <rdf:RDF xmlns:dc="http://purl.org/dc/elements/1.1/" xmlns:cc="http://creativecommons.org/ns#" xmlns:rdf="http://www.w3.org/1999/02/22-rdf-syntax-ns#">
   <cc:Work>
    <dc:type rdf:resource="http://purl.org/dc/dcmitype/StillImage"/>
    <dc:date>2024-10-25T08:04:05.631455</dc:date>
    <dc:format>image/svg+xml</dc:format>
    <dc:creator>
     <cc:Agent>
      <dc:title>Matplotlib v3.9.2, https://matplotlib.org/</dc:title>
     </cc:Agent>
    </dc:creator>
   </cc:Work>
  </rdf:RDF>
 </metadata>
 <defs>
  <style type="text/css">*{stroke-linejoin: round; stroke-linecap: butt}</style>
 </defs>
 <g id="figure_1">
  <g id="patch_1">
   <path d="M 0 237.6 
L 1152 237.6 
L 1152 0 
L 0 0 
z
" style="fill: #ffffff"/>
  </g>
  <g id="axes_1">
   <g id="patch_2">
    <path d="M 144 211.464 
L 1036.8 211.464 
L 1036.8 28.512 
L 144 28.512 
z
" style="fill: #ffffff"/>
   </g>
   <g id="patch_3">
    <path d="M 144 199.485 
L 157.996473 199.485 
L 157.996473 198.891 
L 144 198.891 
z
" clip-path="url(#p26a10b84d1)" style="fill: #0000ff"/>
   </g>
   <g id="patch_4">
    <path d="M 159.162845 203.148 
L 615.21458 203.148 
L 615.21458 195.228 
L 159.162845 195.228 
z
" clip-path="url(#p26a10b84d1)" style="fill: #0000ff"/>
   </g>
   <g id="patch_5">
    <path d="M 198.819518 203.148 
L 581.389771 203.148 
L 581.389771 195.228 
L 198.819518 195.228 
z
" clip-path="url(#p26a10b84d1)" style="fill: #0000ff"/>
   </g>
   <g id="patch_6">
    <path d="M 216.315109 203.148 
L 609.382716 203.148 
L 609.382716 195.228 
L 216.315109 195.228 
z
" clip-path="url(#p26a10b84d1)" style="fill: #0000ff"/>
   </g>
   <g id="patch_7">
    <path d="M 217.481481 203.148 
L 329.453263 203.148 
L 329.453263 195.228 
L 217.481481 195.228 
z
" clip-path="url(#p26a10b84d1)" style="fill: #0000ff"/>
   </g>
   <g id="patch_8">
    <path d="M 233.8107 203.148 
L 598.885362 203.148 
L 598.885362 195.228 
L 233.8107 195.228 
z
" clip-path="url(#p26a10b84d1)" style="fill: #0000ff"/>
   </g>
   <g id="patch_9">
    <path d="M 246.6408 203.148 
L 538.23398 203.148 
L 538.23398 195.228 
L 246.6408 195.228 
z
" clip-path="url(#p26a10b84d1)" style="fill: #0000ff"/>
   </g>
   <g id="patch_10">
    <path d="M 267.635509 203.148 
L 356.279835 203.148 
L 356.279835 195.228 
L 267.635509 195.228 
z
" clip-path="url(#p26a10b84d1)" style="fill: #0000ff"/>
   </g>
   <g id="patch_11">
    <path d="M 272.300999 203.148 
L 370.276308 203.148 
L 370.276308 195.228 
L 272.300999 195.228 
z
" clip-path="url(#p26a10b84d1)" style="fill: #0000ff"/>
   </g>
   <g id="patch_12">
    <path d="M 273.467372 203.148 
L 352.780717 203.148 
L 352.780717 195.228 
L 273.467372 195.228 
z
" clip-path="url(#p26a10b84d1)" style="fill: #0000ff"/>
   </g>
   <g id="patch_13">
    <path d="M 275.800118 203.148 
L 364.444444 203.148 
L 364.444444 195.228 
L 275.800118 195.228 
z
" clip-path="url(#p26a10b84d1)" style="fill: #0000ff"/>
   </g>
   <g id="patch_14">
    <path d="M 280.465608 203.148 
L 351.614345 203.148 
L 351.614345 195.228 
L 280.465608 195.228 
z
" clip-path="url(#p26a10b84d1)" style="fill: #0000ff"/>
   </g>
   <g id="patch_15">
    <path d="M 282.798354 203.148 
L 363.278072 203.148 
L 363.278072 195.228 
L 282.798354 195.228 
z
" clip-path="url(#p26a10b84d1)" style="fill: #0000ff"/>
   </g>
   <g id="patch_16">
    <path d="M 283.964727 203.148 
L 352.780717 203.148 
L 352.780717 195.228 
L 283.964727 195.228 
z
" clip-path="url(#p26a10b84d1)" style="fill: #0000ff"/>
   </g>
   <g id="patch_17">
    <path d="M 288.630218 203.148 
L 363.278072 203.148 
L 363.278072 195.228 
L 288.630218 195.228 
z
" clip-path="url(#p26a10b84d1)" style="fill: #0000ff"/>
   </g>
   <g id="patch_18">
    <path d="M 288.630218 203.148 
L 358.612581 203.148 
L 358.612581 195.228 
L 288.630218 195.228 
z
" clip-path="url(#p26a10b84d1)" style="fill: #0000ff"/>
   </g>
   <g id="patch_19">
    <path d="M 288.630218 203.148 
L 393.603762 203.148 
L 393.603762 195.228 
L 288.630218 195.228 
z
" clip-path="url(#p26a10b84d1)" style="fill: #0000ff"/>
   </g>
   <g id="patch_20">
    <path d="M 289.79659 203.148 
L 363.278072 203.148 
L 363.278072 195.228 
L 289.79659 195.228 
z
" clip-path="url(#p26a10b84d1)" style="fill: #0000ff"/>
   </g>
   <g id="patch_21">
    <path d="M 289.79659 203.148 
L 353.94709 203.148 
L 353.94709 195.228 
L 289.79659 195.228 
z
" clip-path="url(#p26a10b84d1)" style="fill: #0000ff"/>
   </g>
   <g id="patch_22">
    <path d="M 296.794827 203.148 
L 363.278072 203.148 
L 363.278072 195.228 
L 296.794827 195.228 
z
" clip-path="url(#p26a10b84d1)" style="fill: #0000ff"/>
   </g>
   <g id="patch_23">
    <path d="M 358.612581 203.148 
L 581.389771 203.148 
L 581.389771 195.228 
L 358.612581 195.228 
z
" clip-path="url(#p26a10b84d1)" style="fill: #0000ff"/>
   </g>
   <g id="patch_24">
    <path d="M 378.440917 203.148 
L 590.720752 203.148 
L 590.720752 195.228 
L 378.440917 195.228 
z
" clip-path="url(#p26a10b84d1)" style="fill: #0000ff"/>
   </g>
   <g id="patch_25">
    <path d="M 388.938272 203.148 
L 580.223398 203.148 
L 580.223398 195.228 
L 388.938272 195.228 
z
" clip-path="url(#p26a10b84d1)" style="fill: #0000ff"/>
   </g>
   <g id="patch_26">
    <path d="M 391.271017 203.148 
L 581.389771 203.148 
L 581.389771 195.228 
L 391.271017 195.228 
z
" clip-path="url(#p26a10b84d1)" style="fill: #0000ff"/>
   </g>
   <g id="patch_27">
    <path d="M 391.271017 203.148 
L 589.55438 203.148 
L 589.55438 195.228 
L 391.271017 195.228 
z
" clip-path="url(#p26a10b84d1)" style="fill: #0000ff"/>
   </g>
   <g id="patch_28">
    <path d="M 392.43739 203.148 
L 580.223398 203.148 
L 580.223398 195.228 
L 392.43739 195.228 
z
" clip-path="url(#p26a10b84d1)" style="fill: #0000ff"/>
   </g>
   <g id="patch_29">
    <path d="M 589.55438 203.148 
L 675.865961 203.148 
L 675.865961 195.228 
L 589.55438 195.228 
z
" clip-path="url(#p26a10b84d1)" style="fill: #0000ff"/>
   </g>
   <g id="patch_30">
    <path d="M 605.883598 203.148 
L 671.20047 203.148 
L 671.20047 195.228 
L 605.883598 195.228 
z
" clip-path="url(#p26a10b84d1)" style="fill: #0000ff"/>
   </g>
   <g id="patch_31">
    <path d="M 677.032334 199.485 
L 702.692534 199.485 
L 702.692534 198.891 
L 677.032334 198.891 
z
" clip-path="url(#p26a10b84d1)" style="fill: #0000ff"/>
   </g>
   <g id="patch_32">
    <path d="M 144 179.685 
L 146.332745 179.685 
L 146.332745 179.091 
L 144 179.091 
z
" clip-path="url(#p26a10b84d1)" style="fill: #0000ff"/>
   </g>
   <g id="patch_33">
    <path d="M 147.499118 183.348 
L 928.968842 183.348 
L 928.968842 175.428 
L 147.499118 175.428 
z
" clip-path="url(#p26a10b84d1)" style="fill: #0000ff"/>
   </g>
   <g id="patch_34">
    <path d="M 198.819518 183.348 
L 413.432099 183.348 
L 413.432099 175.428 
L 198.819518 175.428 
z
" clip-path="url(#p26a10b84d1)" style="fill: #0000ff"/>
   </g>
   <g id="patch_35">
    <path d="M 286.297472 183.348 
L 813.497942 183.348 
L 813.497942 175.428 
L 286.297472 175.428 
z
" clip-path="url(#p26a10b84d1)" style="fill: #0000ff"/>
   </g>
   <g id="patch_36">
    <path d="M 369.109935 183.348 
L 785.504997 183.348 
L 785.504997 175.428 
L 369.109935 175.428 
z
" clip-path="url(#p26a10b84d1)" style="fill: #0000ff"/>
   </g>
   <g id="patch_37">
    <path d="M 402.934744 183.348 
L 763.343915 183.348 
L 763.343915 175.428 
L 402.934744 175.428 
z
" clip-path="url(#p26a10b84d1)" style="fill: #0000ff"/>
   </g>
   <g id="patch_38">
    <path d="M 416.931217 183.348 
L 519.572016 183.348 
L 519.572016 175.428 
L 416.931217 175.428 
z
" clip-path="url(#p26a10b84d1)" style="fill: #0000ff"/>
   </g>
   <g id="patch_39">
    <path d="M 428.594944 183.348 
L 535.901235 183.348 
L 535.901235 175.428 
L 428.594944 175.428 
z
" clip-path="url(#p26a10b84d1)" style="fill: #0000ff"/>
   </g>
   <g id="patch_40">
    <path d="M 429.761317 183.348 
L 516.072898 183.348 
L 516.072898 175.428 
L 429.761317 175.428 
z
" clip-path="url(#p26a10b84d1)" style="fill: #0000ff"/>
   </g>
   <g id="patch_41">
    <path d="M 429.761317 183.348 
L 516.072898 183.348 
L 516.072898 175.428 
L 429.761317 175.428 
z
" clip-path="url(#p26a10b84d1)" style="fill: #0000ff"/>
   </g>
   <g id="patch_42">
    <path d="M 434.426808 183.348 
L 516.072898 183.348 
L 516.072898 175.428 
L 434.426808 175.428 
z
" clip-path="url(#p26a10b84d1)" style="fill: #0000ff"/>
   </g>
   <g id="patch_43">
    <path d="M 446.090535 183.348 
L 530.069371 183.348 
L 530.069371 175.428 
L 446.090535 175.428 
z
" clip-path="url(#p26a10b84d1)" style="fill: #0000ff"/>
   </g>
   <g id="patch_44">
    <path d="M 523.071135 183.348 
L 762.177543 183.348 
L 762.177543 175.428 
L 523.071135 175.428 
z
" clip-path="url(#p26a10b84d1)" style="fill: #0000ff"/>
   </g>
   <g id="patch_45">
    <path d="M 532.402116 183.348 
L 758.678424 183.348 
L 758.678424 175.428 
L 532.402116 175.428 
z
" clip-path="url(#p26a10b84d1)" style="fill: #0000ff"/>
   </g>
   <g id="patch_46">
    <path d="M 548.731335 183.348 
L 758.678424 183.348 
L 758.678424 175.428 
L 548.731335 175.428 
z
" clip-path="url(#p26a10b84d1)" style="fill: #0000ff"/>
   </g>
   <g id="patch_47">
    <path d="M 558.062316 183.348 
L 762.177543 183.348 
L 762.177543 175.428 
L 558.062316 175.428 
z
" clip-path="url(#p26a10b84d1)" style="fill: #0000ff"/>
   </g>
   <g id="patch_48">
    <path d="M 558.062316 183.348 
L 759.844797 183.348 
L 759.844797 175.428 
L 558.062316 175.428 
z
" clip-path="url(#p26a10b84d1)" style="fill: #0000ff"/>
   </g>
   <g id="patch_49">
    <path d="M 559.228689 183.348 
L 762.177543 183.348 
L 762.177543 175.428 
L 559.228689 175.428 
z
" clip-path="url(#p26a10b84d1)" style="fill: #0000ff"/>
   </g>
   <g id="patch_50">
    <path d="M 559.228689 183.348 
L 762.177543 183.348 
L 762.177543 175.428 
L 559.228689 175.428 
z
" clip-path="url(#p26a10b84d1)" style="fill: #0000ff"/>
   </g>
   <g id="patch_51">
    <path d="M 770.342152 183.348 
L 921.970606 183.348 
L 921.970606 175.428 
L 770.342152 175.428 
z
" clip-path="url(#p26a10b84d1)" style="fill: #0000ff"/>
   </g>
   <g id="patch_52">
    <path d="M 930.135215 179.685 
L 938.299824 179.685 
L 938.299824 179.091 
L 930.135215 179.091 
z
" clip-path="url(#p26a10b84d1)" style="fill: #0000ff"/>
   </g>
   <g id="patch_53">
    <path d="M 144 159.885 
L 181.323927 159.885 
L 181.323927 159.291 
L 144 159.291 
z
" clip-path="url(#p26a10b84d1)" style="fill: #0000ff"/>
   </g>
   <g id="patch_54">
    <path d="M 182.4903 163.548 
L 551.06408 163.548 
L 551.06408 155.628 
L 182.4903 155.628 
z
" clip-path="url(#p26a10b84d1)" style="fill: #0000ff"/>
   </g>
   <g id="patch_55">
    <path d="M 201.152263 163.548 
L 549.897707 163.548 
L 549.897707 155.628 
L 201.152263 155.628 
z
" clip-path="url(#p26a10b84d1)" style="fill: #0000ff"/>
   </g>
   <g id="patch_56">
    <path d="M 201.152263 163.548 
L 549.897707 163.548 
L 549.897707 155.628 
L 201.152263 155.628 
z
" clip-path="url(#p26a10b84d1)" style="fill: #0000ff"/>
   </g>
   <g id="patch_57">
    <path d="M 215.148736 163.548 
L 551.06408 163.548 
L 551.06408 155.628 
L 215.148736 155.628 
z
" clip-path="url(#p26a10b84d1)" style="fill: #0000ff"/>
   </g>
   <g id="patch_58">
    <path d="M 233.8107 163.548 
L 352.780717 163.548 
L 352.780717 155.628 
L 233.8107 155.628 
z
" clip-path="url(#p26a10b84d1)" style="fill: #0000ff"/>
   </g>
   <g id="patch_59">
    <path d="M 252.472663 163.548 
L 350.447972 163.548 
L 350.447972 155.628 
L 252.472663 155.628 
z
" clip-path="url(#p26a10b84d1)" style="fill: #0000ff"/>
   </g>
   <g id="patch_60">
    <path d="M 253.639036 163.548 
L 336.451499 163.548 
L 336.451499 155.628 
L 253.639036 155.628 
z
" clip-path="url(#p26a10b84d1)" style="fill: #0000ff"/>
   </g>
   <g id="patch_61">
    <path d="M 253.639036 163.548 
L 332.952381 163.548 
L 332.952381 155.628 
L 253.639036 155.628 
z
" clip-path="url(#p26a10b84d1)" style="fill: #0000ff"/>
   </g>
   <g id="patch_62">
    <path d="M 253.639036 163.548 
L 346.948854 163.548 
L 346.948854 155.628 
L 253.639036 155.628 
z
" clip-path="url(#p26a10b84d1)" style="fill: #0000ff"/>
   </g>
   <g id="patch_63">
    <path d="M 254.805409 163.548 
L 539.400353 163.548 
L 539.400353 155.628 
L 254.805409 155.628 
z
" clip-path="url(#p26a10b84d1)" style="fill: #0000ff"/>
   </g>
   <g id="patch_64">
    <path d="M 257.138154 163.548 
L 358.612581 163.548 
L 358.612581 155.628 
L 257.138154 155.628 
z
" clip-path="url(#p26a10b84d1)" style="fill: #0000ff"/>
   </g>
   <g id="patch_65">
    <path d="M 268.801881 163.548 
L 334.118754 163.548 
L 334.118754 155.628 
L 268.801881 155.628 
z
" clip-path="url(#p26a10b84d1)" style="fill: #0000ff"/>
   </g>
   <g id="patch_66">
    <path d="M 268.801881 163.548 
L 345.782481 163.548 
L 345.782481 155.628 
L 268.801881 155.628 
z
" clip-path="url(#p26a10b84d1)" style="fill: #0000ff"/>
   </g>
   <g id="patch_67">
    <path d="M 268.801881 163.548 
L 334.118754 163.548 
L 334.118754 155.628 
L 268.801881 155.628 
z
" clip-path="url(#p26a10b84d1)" style="fill: #0000ff"/>
   </g>
   <g id="patch_68">
    <path d="M 268.801881 163.548 
L 332.952381 163.548 
L 332.952381 155.628 
L 268.801881 155.628 
z
" clip-path="url(#p26a10b84d1)" style="fill: #0000ff"/>
   </g>
   <g id="patch_69">
    <path d="M 268.801881 163.548 
L 371.442681 163.548 
L 371.442681 155.628 
L 268.801881 155.628 
z
" clip-path="url(#p26a10b84d1)" style="fill: #0000ff"/>
   </g>
   <g id="patch_70">
    <path d="M 268.801881 163.548 
L 345.782481 163.548 
L 345.782481 155.628 
L 268.801881 155.628 
z
" clip-path="url(#p26a10b84d1)" style="fill: #0000ff"/>
   </g>
   <g id="patch_71">
    <path d="M 271.134627 163.548 
L 344.616108 163.548 
L 344.616108 155.628 
L 271.134627 155.628 
z
" clip-path="url(#p26a10b84d1)" style="fill: #0000ff"/>
   </g>
   <g id="patch_72">
    <path d="M 271.134627 163.548 
L 332.952381 163.548 
L 332.952381 155.628 
L 271.134627 155.628 
z
" clip-path="url(#p26a10b84d1)" style="fill: #0000ff"/>
   </g>
   <g id="patch_73">
    <path d="M 276.96649 163.548 
L 332.952381 163.548 
L 332.952381 155.628 
L 276.96649 155.628 
z
" clip-path="url(#p26a10b84d1)" style="fill: #0000ff"/>
   </g>
   <g id="patch_74">
    <path d="M 337.617872 163.548 
L 551.06408 163.548 
L 551.06408 155.628 
L 337.617872 155.628 
z
" clip-path="url(#p26a10b84d1)" style="fill: #0000ff"/>
   </g>
   <g id="patch_75">
    <path d="M 356.279835 163.548 
L 548.731335 163.548 
L 548.731335 155.628 
L 356.279835 155.628 
z
" clip-path="url(#p26a10b84d1)" style="fill: #0000ff"/>
   </g>
   <g id="patch_76">
    <path d="M 356.279835 163.548 
L 539.400353 163.548 
L 539.400353 155.628 
L 356.279835 155.628 
z
" clip-path="url(#p26a10b84d1)" style="fill: #0000ff"/>
   </g>
   <g id="patch_77">
    <path d="M 366.77719 163.548 
L 521.904762 163.548 
L 521.904762 155.628 
L 366.77719 155.628 
z
" clip-path="url(#p26a10b84d1)" style="fill: #0000ff"/>
   </g>
   <g id="patch_78">
    <path d="M 367.943563 163.548 
L 551.06408 163.548 
L 551.06408 155.628 
L 367.943563 155.628 
z
" clip-path="url(#p26a10b84d1)" style="fill: #0000ff"/>
   </g>
   <g id="patch_79">
    <path d="M 369.109935 163.548 
L 542.899471 163.548 
L 542.899471 155.628 
L 369.109935 155.628 
z
" clip-path="url(#p26a10b84d1)" style="fill: #0000ff"/>
   </g>
   <g id="patch_80">
    <path d="M 552.230453 159.885 
L 789.004115 159.885 
L 789.004115 159.291 
L 552.230453 159.291 
z
" clip-path="url(#p26a10b84d1)" style="fill: #0000ff"/>
   </g>
   <g id="patch_81">
    <path d="M 144 140.085 
L 239.642563 140.085 
L 239.642563 139.491 
L 144 139.491 
z
" clip-path="url(#p26a10b84d1)" style="fill: #0000ff"/>
   </g>
   <g id="patch_82">
    <path d="M 240.808936 143.748 
L 698.027043 143.748 
L 698.027043 135.828 
L 240.808936 135.828 
z
" clip-path="url(#p26a10b84d1)" style="fill: #0000ff"/>
   </g>
   <g id="patch_83">
    <path d="M 289.79659 143.748 
L 698.027043 143.748 
L 698.027043 135.828 
L 289.79659 135.828 
z
" clip-path="url(#p26a10b84d1)" style="fill: #0000ff"/>
   </g>
   <g id="patch_84">
    <path d="M 315.45679 143.748 
L 657.203998 143.748 
L 657.203998 135.828 
L 315.45679 135.828 
z
" clip-path="url(#p26a10b84d1)" style="fill: #0000ff"/>
   </g>
   <g id="patch_85">
    <path d="M 327.120517 143.748 
L 729.519106 143.748 
L 729.519106 135.828 
L 327.120517 135.828 
z
" clip-path="url(#p26a10b84d1)" style="fill: #0000ff"/>
   </g>
   <g id="patch_86">
    <path d="M 366.77719 143.748 
L 458.920635 143.748 
L 458.920635 135.828 
L 366.77719 135.828 
z
" clip-path="url(#p26a10b84d1)" style="fill: #0000ff"/>
   </g>
   <g id="patch_87">
    <path d="M 366.77719 143.748 
L 458.920635 143.748 
L 458.920635 135.828 
L 366.77719 135.828 
z
" clip-path="url(#p26a10b84d1)" style="fill: #0000ff"/>
   </g>
   <g id="patch_88">
    <path d="M 376.108172 143.748 
L 472.917108 143.748 
L 472.917108 135.828 
L 376.108172 135.828 
z
" clip-path="url(#p26a10b84d1)" style="fill: #0000ff"/>
   </g>
   <g id="patch_89">
    <path d="M 377.274544 143.748 
L 461.25338 143.748 
L 461.25338 135.828 
L 377.274544 135.828 
z
" clip-path="url(#p26a10b84d1)" style="fill: #0000ff"/>
   </g>
   <g id="patch_90">
    <path d="M 379.60729 143.748 
L 477.582598 143.748 
L 477.582598 135.828 
L 379.60729 135.828 
z
" clip-path="url(#p26a10b84d1)" style="fill: #0000ff"/>
   </g>
   <g id="patch_91">
    <path d="M 380.773663 143.748 
L 478.748971 143.748 
L 478.748971 135.828 
L 380.773663 135.828 
z
" clip-path="url(#p26a10b84d1)" style="fill: #0000ff"/>
   </g>
   <g id="patch_92">
    <path d="M 387.771899 143.748 
L 479.915344 143.748 
L 479.915344 135.828 
L 387.771899 135.828 
z
" clip-path="url(#p26a10b84d1)" style="fill: #0000ff"/>
   </g>
   <g id="patch_93">
    <path d="M 392.43739 143.748 
L 458.920635 143.748 
L 458.920635 135.828 
L 392.43739 135.828 
z
" clip-path="url(#p26a10b84d1)" style="fill: #0000ff"/>
   </g>
   <g id="patch_94">
    <path d="M 394.770135 143.748 
L 481.081717 143.748 
L 481.081717 135.828 
L 394.770135 135.828 
z
" clip-path="url(#p26a10b84d1)" style="fill: #0000ff"/>
   </g>
   <g id="patch_95">
    <path d="M 394.770135 143.748 
L 472.917108 143.748 
L 472.917108 135.828 
L 394.770135 135.828 
z
" clip-path="url(#p26a10b84d1)" style="fill: #0000ff"/>
   </g>
   <g id="patch_96">
    <path d="M 395.936508 143.748 
L 482.248089 143.748 
L 482.248089 135.828 
L 395.936508 135.828 
z
" clip-path="url(#p26a10b84d1)" style="fill: #0000ff"/>
   </g>
   <g id="patch_97">
    <path d="M 401.768372 143.748 
L 464.752499 143.748 
L 464.752499 135.828 
L 401.768372 135.828 
z
" clip-path="url(#p26a10b84d1)" style="fill: #0000ff"/>
   </g>
   <g id="patch_98">
    <path d="M 401.768372 143.748 
L 457.754262 143.748 
L 457.754262 135.828 
L 401.768372 135.828 
z
" clip-path="url(#p26a10b84d1)" style="fill: #0000ff"/>
   </g>
   <g id="patch_99">
    <path d="M 476.416226 143.748 
L 700.359788 143.748 
L 700.359788 135.828 
L 476.416226 135.828 
z
" clip-path="url(#p26a10b84d1)" style="fill: #0000ff"/>
   </g>
   <g id="patch_100">
    <path d="M 498.577307 143.748 
L 698.027043 143.748 
L 698.027043 135.828 
L 498.577307 135.828 
z
" clip-path="url(#p26a10b84d1)" style="fill: #0000ff"/>
   </g>
   <g id="patch_101">
    <path d="M 510.241035 143.748 
L 699.193416 143.748 
L 699.193416 135.828 
L 510.241035 135.828 
z
" clip-path="url(#p26a10b84d1)" style="fill: #0000ff"/>
   </g>
   <g id="patch_102">
    <path d="M 510.241035 143.748 
L 699.193416 143.748 
L 699.193416 135.828 
L 510.241035 135.828 
z
" clip-path="url(#p26a10b84d1)" style="fill: #0000ff"/>
   </g>
   <g id="patch_103">
    <path d="M 510.241035 143.748 
L 698.027043 143.748 
L 698.027043 135.828 
L 510.241035 135.828 
z
" clip-path="url(#p26a10b84d1)" style="fill: #0000ff"/>
   </g>
   <g id="patch_104">
    <path d="M 512.57378 143.748 
L 699.193416 143.748 
L 699.193416 135.828 
L 512.57378 135.828 
z
" clip-path="url(#p26a10b84d1)" style="fill: #0000ff"/>
   </g>
   <g id="patch_105">
    <path d="M 512.57378 143.748 
L 705.025279 143.748 
L 705.025279 135.828 
L 512.57378 135.828 
z
" clip-path="url(#p26a10b84d1)" style="fill: #0000ff"/>
   </g>
   <g id="patch_106">
    <path d="M 730.685479 140.085 
L 752.846561 140.085 
L 752.846561 139.491 
L 730.685479 139.491 
z
" clip-path="url(#p26a10b84d1)" style="fill: #0000ff"/>
   </g>
   <g id="patch_107">
    <path d="M 144 120.285 
L 190.654909 120.285 
L 190.654909 119.691 
L 144 119.691 
z
" clip-path="url(#p26a10b84d1)" style="fill: #0000ff"/>
   </g>
   <g id="patch_108">
    <path d="M 191.821282 123.948 
L 547.564962 123.948 
L 547.564962 116.028 
L 191.821282 116.028 
z
" clip-path="url(#p26a10b84d1)" style="fill: #0000ff"/>
   </g>
   <g id="patch_109">
    <path d="M 310.791299 123.948 
L 535.901235 123.948 
L 535.901235 116.028 
L 310.791299 116.028 
z
" clip-path="url(#p26a10b84d1)" style="fill: #0000ff"/>
   </g>
   <g id="patch_110">
    <path d="M 315.45679 123.948 
L 535.901235 123.948 
L 535.901235 116.028 
L 315.45679 116.028 
z
" clip-path="url(#p26a10b84d1)" style="fill: #0000ff"/>
   </g>
   <g id="patch_111">
    <path d="M 315.45679 123.948 
L 547.564962 123.948 
L 547.564962 116.028 
L 315.45679 116.028 
z
" clip-path="url(#p26a10b84d1)" style="fill: #0000ff"/>
   </g>
   <g id="patch_112">
    <path d="M 315.45679 123.948 
L 535.901235 123.948 
L 535.901235 116.028 
L 315.45679 116.028 
z
" clip-path="url(#p26a10b84d1)" style="fill: #0000ff"/>
   </g>
   <g id="patch_113">
    <path d="M 316.623163 123.948 
L 537.067607 123.948 
L 537.067607 116.028 
L 316.623163 116.028 
z
" clip-path="url(#p26a10b84d1)" style="fill: #0000ff"/>
   </g>
   <g id="patch_114">
    <path d="M 316.623163 123.948 
L 537.067607 123.948 
L 537.067607 116.028 
L 316.623163 116.028 
z
" clip-path="url(#p26a10b84d1)" style="fill: #0000ff"/>
   </g>
   <g id="patch_115">
    <path d="M 316.623163 123.948 
L 535.901235 123.948 
L 535.901235 116.028 
L 316.623163 116.028 
z
" clip-path="url(#p26a10b84d1)" style="fill: #0000ff"/>
   </g>
   <g id="patch_116">
    <path d="M 548.731335 120.285 
L 582.556143 120.285 
L 582.556143 119.691 
L 548.731335 119.691 
z
" clip-path="url(#p26a10b84d1)" style="fill: #0000ff"/>
   </g>
   <g id="patch_117">
    <path d="M 144 100.485 
L 666.534979 100.485 
L 666.534979 99.891 
L 144 99.891 
z
" clip-path="url(#p26a10b84d1)" style="fill: #0000ff"/>
   </g>
   <g id="patch_118">
    <path d="M 667.701352 104.148 
L 989.620223 104.148 
L 989.620223 96.228 
L 667.701352 96.228 
z
" clip-path="url(#p26a10b84d1)" style="fill: #0000ff"/>
   </g>
   <g id="patch_119">
    <path d="M 736.517343 104.148 
L 967.459142 104.148 
L 967.459142 96.228 
L 736.517343 96.228 
z
" clip-path="url(#p26a10b84d1)" style="fill: #0000ff"/>
   </g>
   <g id="patch_120">
    <path d="M 748.18107 104.148 
L 967.459142 104.148 
L 967.459142 96.228 
L 748.18107 96.228 
z
" clip-path="url(#p26a10b84d1)" style="fill: #0000ff"/>
   </g>
   <g id="patch_121">
    <path d="M 773.84127 104.148 
L 994.285714 104.148 
L 994.285714 96.228 
L 773.84127 96.228 
z
" clip-path="url(#p26a10b84d1)" style="fill: #0000ff"/>
   </g>
   <g id="patch_122">
    <path d="M 775.007643 104.148 
L 967.459142 104.148 
L 967.459142 96.228 
L 775.007643 96.228 
z
" clip-path="url(#p26a10b84d1)" style="fill: #0000ff"/>
   </g>
   <g id="patch_123">
    <path d="M 775.007643 104.148 
L 966.292769 104.148 
L 966.292769 96.228 
L 775.007643 96.228 
z
" clip-path="url(#p26a10b84d1)" style="fill: #0000ff"/>
   </g>
   <g id="patch_124">
    <path d="M 776.174015 104.148 
L 987.287478 104.148 
L 987.287478 96.228 
L 776.174015 96.228 
z
" clip-path="url(#p26a10b84d1)" style="fill: #0000ff"/>
   </g>
   <g id="patch_125">
    <path d="M 144 84.348 
L 456.587889 84.348 
L 456.587889 76.428 
L 144 76.428 
z
" clip-path="url(#p26a10b84d1)" style="fill: #0000ff"/>
   </g>
   <g id="patch_126">
    <path d="M 212.815991 84.348 
L 444.924162 84.348 
L 444.924162 76.428 
L 212.815991 76.428 
z
" clip-path="url(#p26a10b84d1)" style="fill: #0000ff"/>
   </g>
   <g id="patch_127">
    <path d="M 229.145209 84.348 
L 458.920635 84.348 
L 458.920635 76.428 
L 229.145209 76.428 
z
" clip-path="url(#p26a10b84d1)" style="fill: #0000ff"/>
   </g>
   <g id="patch_128">
    <path d="M 229.145209 84.348 
L 444.924162 84.348 
L 444.924162 76.428 
L 229.145209 76.428 
z
" clip-path="url(#p26a10b84d1)" style="fill: #0000ff"/>
   </g>
   <g id="patch_129">
    <path d="M 236.143445 84.348 
L 444.924162 84.348 
L 444.924162 76.428 
L 236.143445 76.428 
z
" clip-path="url(#p26a10b84d1)" style="fill: #0000ff"/>
   </g>
   <g id="patch_130">
    <path d="M 236.143445 84.348 
L 443.75779 84.348 
L 443.75779 76.428 
L 236.143445 76.428 
z
" clip-path="url(#p26a10b84d1)" style="fill: #0000ff"/>
   </g>
   <g id="patch_131">
    <path d="M 446.090535 84.348 
L 591.887125 84.348 
L 591.887125 76.428 
L 446.090535 76.428 
z
" clip-path="url(#p26a10b84d1)" style="fill: #0000ff"/>
   </g>
   <g id="patch_132">
    <path d="M 474.08348 84.348 
L 541.733098 84.348 
L 541.733098 76.428 
L 474.08348 76.428 
z
" clip-path="url(#p26a10b84d1)" style="fill: #0000ff"/>
   </g>
   <g id="patch_133">
    <path d="M 593.053498 80.685 
L 619.880071 80.685 
L 619.880071 80.091 
L 593.053498 80.091 
z
" clip-path="url(#p26a10b84d1)" style="fill: #0000ff"/>
   </g>
   <g id="patch_134">
    <path d="M 144 60.885 
L 369.109935 60.885 
L 369.109935 60.291 
L 144 60.291 
z
" clip-path="url(#p26a10b84d1)" style="fill: #0000ff"/>
   </g>
   <g id="patch_135">
    <path d="M 370.276308 64.548 
L 661.869489 64.548 
L 661.869489 56.628 
L 370.276308 56.628 
z
" clip-path="url(#p26a10b84d1)" style="fill: #0000ff"/>
   </g>
   <g id="patch_136">
    <path d="M 402.934744 64.548 
L 639.708407 64.548 
L 639.708407 56.628 
L 402.934744 56.628 
z
" clip-path="url(#p26a10b84d1)" style="fill: #0000ff"/>
   </g>
   <g id="patch_137">
    <path d="M 415.764844 64.548 
L 659.536743 64.548 
L 659.536743 56.628 
L 415.764844 56.628 
z
" clip-path="url(#p26a10b84d1)" style="fill: #0000ff"/>
   </g>
   <g id="patch_138">
    <path d="M 426.262199 64.548 
L 639.708407 64.548 
L 639.708407 56.628 
L 426.262199 56.628 
z
" clip-path="url(#p26a10b84d1)" style="fill: #0000ff"/>
   </g>
   <g id="patch_139">
    <path d="M 429.761317 64.548 
L 639.708407 64.548 
L 639.708407 56.628 
L 429.761317 56.628 
z
" clip-path="url(#p26a10b84d1)" style="fill: #0000ff"/>
   </g>
   <g id="patch_140">
    <path d="M 429.761317 64.548 
L 659.536743 64.548 
L 659.536743 56.628 
L 429.761317 56.628 
z
" clip-path="url(#p26a10b84d1)" style="fill: #0000ff"/>
   </g>
   <g id="patch_141">
    <path d="M 429.761317 64.548 
L 638.542034 64.548 
L 638.542034 56.628 
L 429.761317 56.628 
z
" clip-path="url(#p26a10b84d1)" style="fill: #0000ff"/>
   </g>
   <g id="patch_142">
    <path d="M 448.42328 64.548 
L 664.202234 64.548 
L 664.202234 56.628 
L 448.42328 56.628 
z
" clip-path="url(#p26a10b84d1)" style="fill: #0000ff"/>
   </g>
   <g id="patch_143">
    <path d="M 665.368607 60.885 
L 677.032334 60.885 
L 677.032334 60.291 
L 665.368607 60.291 
z
" clip-path="url(#p26a10b84d1)" style="fill: #0000ff"/>
   </g>
   <g id="patch_144">
    <path d="M 144 41.085 
L 402.934744 41.085 
L 402.934744 40.491 
L 144 40.491 
z
" clip-path="url(#p26a10b84d1)" style="fill: #0000ff"/>
   </g>
   <g id="patch_145">
    <path d="M 404.101117 44.748 
L 757.512052 44.748 
L 757.512052 36.828 
L 404.101117 36.828 
z
" clip-path="url(#p26a10b84d1)" style="fill: #0000ff"/>
   </g>
   <g id="patch_146">
    <path d="M 428.594944 44.748 
L 747.014697 44.748 
L 747.014697 36.828 
L 428.594944 36.828 
z
" clip-path="url(#p26a10b84d1)" style="fill: #0000ff"/>
   </g>
   <g id="patch_147">
    <path d="M 479.915344 44.748 
L 733.018225 44.748 
L 733.018225 36.828 
L 479.915344 36.828 
z
" clip-path="url(#p26a10b84d1)" style="fill: #0000ff"/>
   </g>
   <g id="patch_148">
    <path d="M 479.915344 44.748 
L 736.517343 44.748 
L 736.517343 36.828 
L 479.915344 36.828 
z
" clip-path="url(#p26a10b84d1)" style="fill: #0000ff"/>
   </g>
   <g id="patch_149">
    <path d="M 482.248089 44.748 
L 733.018225 44.748 
L 733.018225 36.828 
L 482.248089 36.828 
z
" clip-path="url(#p26a10b84d1)" style="fill: #0000ff"/>
   </g>
   <g id="patch_150">
    <path d="M 483.414462 44.748 
L 674.699588 44.748 
L 674.699588 36.828 
L 483.414462 36.828 
z
" clip-path="url(#p26a10b84d1)" style="fill: #0000ff"/>
   </g>
   <g id="patch_151">
    <path d="M 485.747208 44.748 
L 552.230453 44.748 
L 552.230453 36.828 
L 485.747208 36.828 
z
" clip-path="url(#p26a10b84d1)" style="fill: #0000ff"/>
   </g>
   <g id="patch_152">
    <path d="M 486.91358 44.748 
L 733.018225 44.748 
L 733.018225 36.828 
L 486.91358 36.828 
z
" clip-path="url(#p26a10b84d1)" style="fill: #0000ff"/>
   </g>
   <g id="patch_153">
    <path d="M 758.678424 41.085 
L 762.177543 41.085 
L 762.177543 40.491 
L 758.678424 40.491 
z
" clip-path="url(#p26a10b84d1)" style="fill: #0000ff"/>
   </g>
   <g id="matplotlib.axis_1">
    <g id="xtick_1">
     <g id="line2d_1">
      <defs>
       <path id="madc7a3e5fd" d="M 0 0 
L 0 3.5 
" style="stroke: #000000; stroke-width: 0.8"/>
      </defs>
      <g>
       <use xlink:href="#madc7a3e5fd" x="259.470899" y="211.464" style="stroke: #000000; stroke-width: 0.8"/>
      </g>
     </g>
     <g id="text_1">
      <!-- 100 -->
      <g transform="translate(249.927149 226.062437) scale(0.1 -0.1)">
       <defs>
        <path id="DejaVuSans-31" d="M 794 531 
L 1825 531 
L 1825 4091 
L 703 3866 
L 703 4441 
L 1819 4666 
L 2450 4666 
L 2450 531 
L 3481 531 
L 3481 0 
L 794 0 
L 794 531 
z
" transform="scale(0.015625)"/>
        <path id="DejaVuSans-30" d="M 2034 4250 
Q 1547 4250 1301 3770 
Q 1056 3291 1056 2328 
Q 1056 1369 1301 889 
Q 1547 409 2034 409 
Q 2525 409 2770 889 
Q 3016 1369 3016 2328 
Q 3016 3291 2770 3770 
Q 2525 4250 2034 4250 
z
M 2034 4750 
Q 2819 4750 3233 4129 
Q 3647 3509 3647 2328 
Q 3647 1150 3233 529 
Q 2819 -91 2034 -91 
Q 1250 -91 836 529 
Q 422 1150 422 2328 
Q 422 3509 836 4129 
Q 1250 4750 2034 4750 
z
" transform="scale(0.015625)"/>
       </defs>
       <use xlink:href="#DejaVuSans-31"/>
       <use xlink:href="#DejaVuSans-30" x="63.623047"/>
       <use xlink:href="#DejaVuSans-30" x="127.246094"/>
      </g>
     </g>
    </g>
    <g id="xtick_2">
     <g id="line2d_2">
      <g>
       <use xlink:href="#madc7a3e5fd" x="376.108172" y="211.464" style="stroke: #000000; stroke-width: 0.8"/>
      </g>
     </g>
     <g id="text_2">
      <!-- 200 -->
      <g transform="translate(366.564422 226.062437) scale(0.1 -0.1)">
       <defs>
        <path id="DejaVuSans-32" d="M 1228 531 
L 3431 531 
L 3431 0 
L 469 0 
L 469 531 
Q 828 903 1448 1529 
Q 2069 2156 2228 2338 
Q 2531 2678 2651 2914 
Q 2772 3150 2772 3378 
Q 2772 3750 2511 3984 
Q 2250 4219 1831 4219 
Q 1534 4219 1204 4116 
Q 875 4013 500 3803 
L 500 4441 
Q 881 4594 1212 4672 
Q 1544 4750 1819 4750 
Q 2544 4750 2975 4387 
Q 3406 4025 3406 3419 
Q 3406 3131 3298 2873 
Q 3191 2616 2906 2266 
Q 2828 2175 2409 1742 
Q 1991 1309 1228 531 
z
" transform="scale(0.015625)"/>
       </defs>
       <use xlink:href="#DejaVuSans-32"/>
       <use xlink:href="#DejaVuSans-30" x="63.623047"/>
       <use xlink:href="#DejaVuSans-30" x="127.246094"/>
      </g>
     </g>
    </g>
    <g id="xtick_3">
     <g id="line2d_3">
      <g>
       <use xlink:href="#madc7a3e5fd" x="492.745444" y="211.464" style="stroke: #000000; stroke-width: 0.8"/>
      </g>
     </g>
     <g id="text_3">
      <!-- 300 -->
      <g transform="translate(483.201694 226.062437) scale(0.1 -0.1)">
       <defs>
        <path id="DejaVuSans-33" d="M 2597 2516 
Q 3050 2419 3304 2112 
Q 3559 1806 3559 1356 
Q 3559 666 3084 287 
Q 2609 -91 1734 -91 
Q 1441 -91 1130 -33 
Q 819 25 488 141 
L 488 750 
Q 750 597 1062 519 
Q 1375 441 1716 441 
Q 2309 441 2620 675 
Q 2931 909 2931 1356 
Q 2931 1769 2642 2001 
Q 2353 2234 1838 2234 
L 1294 2234 
L 1294 2753 
L 1863 2753 
Q 2328 2753 2575 2939 
Q 2822 3125 2822 3475 
Q 2822 3834 2567 4026 
Q 2313 4219 1838 4219 
Q 1578 4219 1281 4162 
Q 984 4106 628 3988 
L 628 4550 
Q 988 4650 1302 4700 
Q 1616 4750 1894 4750 
Q 2613 4750 3031 4423 
Q 3450 4097 3450 3541 
Q 3450 3153 3228 2886 
Q 3006 2619 2597 2516 
z
" transform="scale(0.015625)"/>
       </defs>
       <use xlink:href="#DejaVuSans-33"/>
       <use xlink:href="#DejaVuSans-30" x="63.623047"/>
       <use xlink:href="#DejaVuSans-30" x="127.246094"/>
      </g>
     </g>
    </g>
    <g id="xtick_4">
     <g id="line2d_4">
      <g>
       <use xlink:href="#madc7a3e5fd" x="609.382716" y="211.464" style="stroke: #000000; stroke-width: 0.8"/>
      </g>
     </g>
     <g id="text_4">
      <!-- 400 -->
      <g transform="translate(599.838966 226.062437) scale(0.1 -0.1)">
       <defs>
        <path id="DejaVuSans-34" d="M 2419 4116 
L 825 1625 
L 2419 1625 
L 2419 4116 
z
M 2253 4666 
L 3047 4666 
L 3047 1625 
L 3713 1625 
L 3713 1100 
L 3047 1100 
L 3047 0 
L 2419 0 
L 2419 1100 
L 313 1100 
L 313 1709 
L 2253 4666 
z
" transform="scale(0.015625)"/>
       </defs>
       <use xlink:href="#DejaVuSans-34"/>
       <use xlink:href="#DejaVuSans-30" x="63.623047"/>
       <use xlink:href="#DejaVuSans-30" x="127.246094"/>
      </g>
     </g>
    </g>
    <g id="xtick_5">
     <g id="line2d_5">
      <g>
       <use xlink:href="#madc7a3e5fd" x="726.019988" y="211.464" style="stroke: #000000; stroke-width: 0.8"/>
      </g>
     </g>
     <g id="text_5">
      <!-- 500 -->
      <g transform="translate(716.476238 226.062437) scale(0.1 -0.1)">
       <defs>
        <path id="DejaVuSans-35" d="M 691 4666 
L 3169 4666 
L 3169 4134 
L 1269 4134 
L 1269 2991 
Q 1406 3038 1543 3061 
Q 1681 3084 1819 3084 
Q 2600 3084 3056 2656 
Q 3513 2228 3513 1497 
Q 3513 744 3044 326 
Q 2575 -91 1722 -91 
Q 1428 -91 1123 -41 
Q 819 9 494 109 
L 494 744 
Q 775 591 1075 516 
Q 1375 441 1709 441 
Q 2250 441 2565 725 
Q 2881 1009 2881 1497 
Q 2881 1984 2565 2268 
Q 2250 2553 1709 2553 
Q 1456 2553 1204 2497 
Q 953 2441 691 2322 
L 691 4666 
z
" transform="scale(0.015625)"/>
       </defs>
       <use xlink:href="#DejaVuSans-35"/>
       <use xlink:href="#DejaVuSans-30" x="63.623047"/>
       <use xlink:href="#DejaVuSans-30" x="127.246094"/>
      </g>
     </g>
    </g>
    <g id="xtick_6">
     <g id="line2d_6">
      <g>
       <use xlink:href="#madc7a3e5fd" x="842.65726" y="211.464" style="stroke: #000000; stroke-width: 0.8"/>
      </g>
     </g>
     <g id="text_6">
      <!-- 600 -->
      <g transform="translate(833.11351 226.062437) scale(0.1 -0.1)">
       <defs>
        <path id="DejaVuSans-36" d="M 2113 2584 
Q 1688 2584 1439 2293 
Q 1191 2003 1191 1497 
Q 1191 994 1439 701 
Q 1688 409 2113 409 
Q 2538 409 2786 701 
Q 3034 994 3034 1497 
Q 3034 2003 2786 2293 
Q 2538 2584 2113 2584 
z
M 3366 4563 
L 3366 3988 
Q 3128 4100 2886 4159 
Q 2644 4219 2406 4219 
Q 1781 4219 1451 3797 
Q 1122 3375 1075 2522 
Q 1259 2794 1537 2939 
Q 1816 3084 2150 3084 
Q 2853 3084 3261 2657 
Q 3669 2231 3669 1497 
Q 3669 778 3244 343 
Q 2819 -91 2113 -91 
Q 1303 -91 875 529 
Q 447 1150 447 2328 
Q 447 3434 972 4092 
Q 1497 4750 2381 4750 
Q 2619 4750 2861 4703 
Q 3103 4656 3366 4563 
z
" transform="scale(0.015625)"/>
       </defs>
       <use xlink:href="#DejaVuSans-36"/>
       <use xlink:href="#DejaVuSans-30" x="63.623047"/>
       <use xlink:href="#DejaVuSans-30" x="127.246094"/>
      </g>
     </g>
    </g>
    <g id="xtick_7">
     <g id="line2d_7">
      <g>
       <use xlink:href="#madc7a3e5fd" x="959.294533" y="211.464" style="stroke: #000000; stroke-width: 0.8"/>
      </g>
     </g>
     <g id="text_7">
      <!-- 700 -->
      <g transform="translate(949.750783 226.062437) scale(0.1 -0.1)">
       <defs>
        <path id="DejaVuSans-37" d="M 525 4666 
L 3525 4666 
L 3525 4397 
L 1831 0 
L 1172 0 
L 2766 4134 
L 525 4134 
L 525 4666 
z
" transform="scale(0.015625)"/>
       </defs>
       <use xlink:href="#DejaVuSans-37"/>
       <use xlink:href="#DejaVuSans-30" x="63.623047"/>
       <use xlink:href="#DejaVuSans-30" x="127.246094"/>
      </g>
     </g>
    </g>
    <g id="text_8">
     <!-- Residual -->
     <g transform="translate(569.284375 239.740563) scale(0.1 -0.1)">
      <defs>
       <path id="DejaVuSans-52" d="M 2841 2188 
Q 3044 2119 3236 1894 
Q 3428 1669 3622 1275 
L 4263 0 
L 3584 0 
L 2988 1197 
Q 2756 1666 2539 1819 
Q 2322 1972 1947 1972 
L 1259 1972 
L 1259 0 
L 628 0 
L 628 4666 
L 2053 4666 
Q 2853 4666 3247 4331 
Q 3641 3997 3641 3322 
Q 3641 2881 3436 2590 
Q 3231 2300 2841 2188 
z
M 1259 4147 
L 1259 2491 
L 2053 2491 
Q 2509 2491 2742 2702 
Q 2975 2913 2975 3322 
Q 2975 3731 2742 3939 
Q 2509 4147 2053 4147 
L 1259 4147 
z
" transform="scale(0.015625)"/>
       <path id="DejaVuSans-65" d="M 3597 1894 
L 3597 1613 
L 953 1613 
Q 991 1019 1311 708 
Q 1631 397 2203 397 
Q 2534 397 2845 478 
Q 3156 559 3463 722 
L 3463 178 
Q 3153 47 2828 -22 
Q 2503 -91 2169 -91 
Q 1331 -91 842 396 
Q 353 884 353 1716 
Q 353 2575 817 3079 
Q 1281 3584 2069 3584 
Q 2775 3584 3186 3129 
Q 3597 2675 3597 1894 
z
M 3022 2063 
Q 3016 2534 2758 2815 
Q 2500 3097 2075 3097 
Q 1594 3097 1305 2825 
Q 1016 2553 972 2059 
L 3022 2063 
z
" transform="scale(0.015625)"/>
       <path id="DejaVuSans-73" d="M 2834 3397 
L 2834 2853 
Q 2591 2978 2328 3040 
Q 2066 3103 1784 3103 
Q 1356 3103 1142 2972 
Q 928 2841 928 2578 
Q 928 2378 1081 2264 
Q 1234 2150 1697 2047 
L 1894 2003 
Q 2506 1872 2764 1633 
Q 3022 1394 3022 966 
Q 3022 478 2636 193 
Q 2250 -91 1575 -91 
Q 1294 -91 989 -36 
Q 684 19 347 128 
L 347 722 
Q 666 556 975 473 
Q 1284 391 1588 391 
Q 1994 391 2212 530 
Q 2431 669 2431 922 
Q 2431 1156 2273 1281 
Q 2116 1406 1581 1522 
L 1381 1569 
Q 847 1681 609 1914 
Q 372 2147 372 2553 
Q 372 3047 722 3315 
Q 1072 3584 1716 3584 
Q 2034 3584 2315 3537 
Q 2597 3491 2834 3397 
z
" transform="scale(0.015625)"/>
       <path id="DejaVuSans-69" d="M 603 3500 
L 1178 3500 
L 1178 0 
L 603 0 
L 603 3500 
z
M 603 4863 
L 1178 4863 
L 1178 4134 
L 603 4134 
L 603 4863 
z
" transform="scale(0.015625)"/>
       <path id="DejaVuSans-64" d="M 2906 2969 
L 2906 4863 
L 3481 4863 
L 3481 0 
L 2906 0 
L 2906 525 
Q 2725 213 2448 61 
Q 2172 -91 1784 -91 
Q 1150 -91 751 415 
Q 353 922 353 1747 
Q 353 2572 751 3078 
Q 1150 3584 1784 3584 
Q 2172 3584 2448 3432 
Q 2725 3281 2906 2969 
z
M 947 1747 
Q 947 1113 1208 752 
Q 1469 391 1925 391 
Q 2381 391 2643 752 
Q 2906 1113 2906 1747 
Q 2906 2381 2643 2742 
Q 2381 3103 1925 3103 
Q 1469 3103 1208 2742 
Q 947 2381 947 1747 
z
" transform="scale(0.015625)"/>
       <path id="DejaVuSans-75" d="M 544 1381 
L 544 3500 
L 1119 3500 
L 1119 1403 
Q 1119 906 1312 657 
Q 1506 409 1894 409 
Q 2359 409 2629 706 
Q 2900 1003 2900 1516 
L 2900 3500 
L 3475 3500 
L 3475 0 
L 2900 0 
L 2900 538 
Q 2691 219 2414 64 
Q 2138 -91 1772 -91 
Q 1169 -91 856 284 
Q 544 659 544 1381 
z
M 1991 3584 
L 1991 3584 
z
" transform="scale(0.015625)"/>
       <path id="DejaVuSans-61" d="M 2194 1759 
Q 1497 1759 1228 1600 
Q 959 1441 959 1056 
Q 959 750 1161 570 
Q 1363 391 1709 391 
Q 2188 391 2477 730 
Q 2766 1069 2766 1631 
L 2766 1759 
L 2194 1759 
z
M 3341 1997 
L 3341 0 
L 2766 0 
L 2766 531 
Q 2569 213 2275 61 
Q 1981 -91 1556 -91 
Q 1019 -91 701 211 
Q 384 513 384 1019 
Q 384 1609 779 1909 
Q 1175 2209 1959 2209 
L 2766 2209 
L 2766 2266 
Q 2766 2663 2505 2880 
Q 2244 3097 1772 3097 
Q 1472 3097 1187 3025 
Q 903 2953 641 2809 
L 641 3341 
Q 956 3463 1253 3523 
Q 1550 3584 1831 3584 
Q 2591 3584 2966 3190 
Q 3341 2797 3341 1997 
z
" transform="scale(0.015625)"/>
       <path id="DejaVuSans-6c" d="M 603 4863 
L 1178 4863 
L 1178 0 
L 603 0 
L 603 4863 
z
" transform="scale(0.015625)"/>
      </defs>
      <use xlink:href="#DejaVuSans-52"/>
      <use xlink:href="#DejaVuSans-65" x="64.982422"/>
      <use xlink:href="#DejaVuSans-73" x="126.505859"/>
      <use xlink:href="#DejaVuSans-69" x="178.605469"/>
      <use xlink:href="#DejaVuSans-64" x="206.388672"/>
      <use xlink:href="#DejaVuSans-75" x="269.865234"/>
      <use xlink:href="#DejaVuSans-61" x="333.244141"/>
      <use xlink:href="#DejaVuSans-6c" x="394.523438"/>
     </g>
    </g>
   </g>
   <g id="matplotlib.axis_2">
    <g id="ytick_1">
     <g id="line2d_8">
      <defs>
       <path id="m2040879dbb" d="M 0 0 
L -3.5 0 
" style="stroke: #000000; stroke-width: 0.8"/>
      </defs>
      <g>
       <use xlink:href="#m2040879dbb" x="144" y="199.188" style="stroke: #000000; stroke-width: 0.8"/>
      </g>
     </g>
     <g id="text_9">
      <!-- 9.B.174.1.1 -->
      <g transform="translate(79.251563 202.987219) scale(0.1 -0.1)">
       <defs>
        <path id="DejaVuSans-39" d="M 703 97 
L 703 672 
Q 941 559 1184 500 
Q 1428 441 1663 441 
Q 2288 441 2617 861 
Q 2947 1281 2994 2138 
Q 2813 1869 2534 1725 
Q 2256 1581 1919 1581 
Q 1219 1581 811 2004 
Q 403 2428 403 3163 
Q 403 3881 828 4315 
Q 1253 4750 1959 4750 
Q 2769 4750 3195 4129 
Q 3622 3509 3622 2328 
Q 3622 1225 3098 567 
Q 2575 -91 1691 -91 
Q 1453 -91 1209 -44 
Q 966 3 703 97 
z
M 1959 2075 
Q 2384 2075 2632 2365 
Q 2881 2656 2881 3163 
Q 2881 3666 2632 3958 
Q 2384 4250 1959 4250 
Q 1534 4250 1286 3958 
Q 1038 3666 1038 3163 
Q 1038 2656 1286 2365 
Q 1534 2075 1959 2075 
z
" transform="scale(0.015625)"/>
        <path id="DejaVuSans-2e" d="M 684 794 
L 1344 794 
L 1344 0 
L 684 0 
L 684 794 
z
" transform="scale(0.015625)"/>
        <path id="DejaVuSans-42" d="M 1259 2228 
L 1259 519 
L 2272 519 
Q 2781 519 3026 730 
Q 3272 941 3272 1375 
Q 3272 1813 3026 2020 
Q 2781 2228 2272 2228 
L 1259 2228 
z
M 1259 4147 
L 1259 2741 
L 2194 2741 
Q 2656 2741 2882 2914 
Q 3109 3088 3109 3444 
Q 3109 3797 2882 3972 
Q 2656 4147 2194 4147 
L 1259 4147 
z
M 628 4666 
L 2241 4666 
Q 2963 4666 3353 4366 
Q 3744 4066 3744 3513 
Q 3744 3084 3544 2831 
Q 3344 2578 2956 2516 
Q 3422 2416 3680 2098 
Q 3938 1781 3938 1306 
Q 3938 681 3513 340 
Q 3088 0 2303 0 
L 628 0 
L 628 4666 
z
" transform="scale(0.015625)"/>
       </defs>
       <use xlink:href="#DejaVuSans-39"/>
       <use xlink:href="#DejaVuSans-2e" x="63.623047"/>
       <use xlink:href="#DejaVuSans-42" x="95.410156"/>
       <use xlink:href="#DejaVuSans-2e" x="164.013672"/>
       <use xlink:href="#DejaVuSans-31" x="195.800781"/>
       <use xlink:href="#DejaVuSans-37" x="259.423828"/>
       <use xlink:href="#DejaVuSans-34" x="323.046875"/>
       <use xlink:href="#DejaVuSans-2e" x="386.669922"/>
       <use xlink:href="#DejaVuSans-31" x="418.457031"/>
       <use xlink:href="#DejaVuSans-2e" x="482.080078"/>
       <use xlink:href="#DejaVuSans-31" x="513.867188"/>
      </g>
     </g>
    </g>
    <g id="ytick_2">
     <g id="line2d_9">
      <g>
       <use xlink:href="#m2040879dbb" x="144" y="179.388" style="stroke: #000000; stroke-width: 0.8"/>
      </g>
     </g>
     <g id="text_10">
      <!-- 9.B.174.1.2 -->
      <g transform="translate(79.251563 183.187219) scale(0.1 -0.1)">
       <use xlink:href="#DejaVuSans-39"/>
       <use xlink:href="#DejaVuSans-2e" x="63.623047"/>
       <use xlink:href="#DejaVuSans-42" x="95.410156"/>
       <use xlink:href="#DejaVuSans-2e" x="164.013672"/>
       <use xlink:href="#DejaVuSans-31" x="195.800781"/>
       <use xlink:href="#DejaVuSans-37" x="259.423828"/>
       <use xlink:href="#DejaVuSans-34" x="323.046875"/>
       <use xlink:href="#DejaVuSans-2e" x="386.669922"/>
       <use xlink:href="#DejaVuSans-31" x="418.457031"/>
       <use xlink:href="#DejaVuSans-2e" x="482.080078"/>
       <use xlink:href="#DejaVuSans-32" x="513.867188"/>
      </g>
     </g>
    </g>
    <g id="ytick_3">
     <g id="line2d_10">
      <g>
       <use xlink:href="#m2040879dbb" x="144" y="159.588" style="stroke: #000000; stroke-width: 0.8"/>
      </g>
     </g>
     <g id="text_11">
      <!-- 9.B.174.1.3 -->
      <g transform="translate(79.251563 163.387219) scale(0.1 -0.1)">
       <use xlink:href="#DejaVuSans-39"/>
       <use xlink:href="#DejaVuSans-2e" x="63.623047"/>
       <use xlink:href="#DejaVuSans-42" x="95.410156"/>
       <use xlink:href="#DejaVuSans-2e" x="164.013672"/>
       <use xlink:href="#DejaVuSans-31" x="195.800781"/>
       <use xlink:href="#DejaVuSans-37" x="259.423828"/>
       <use xlink:href="#DejaVuSans-34" x="323.046875"/>
       <use xlink:href="#DejaVuSans-2e" x="386.669922"/>
       <use xlink:href="#DejaVuSans-31" x="418.457031"/>
       <use xlink:href="#DejaVuSans-2e" x="482.080078"/>
       <use xlink:href="#DejaVuSans-33" x="513.867188"/>
      </g>
     </g>
    </g>
    <g id="ytick_4">
     <g id="line2d_11">
      <g>
       <use xlink:href="#m2040879dbb" x="144" y="139.788" style="stroke: #000000; stroke-width: 0.8"/>
      </g>
     </g>
     <g id="text_12">
      <!-- 9.B.174.1.4 -->
      <g transform="translate(79.251563 143.587219) scale(0.1 -0.1)">
       <use xlink:href="#DejaVuSans-39"/>
       <use xlink:href="#DejaVuSans-2e" x="63.623047"/>
       <use xlink:href="#DejaVuSans-42" x="95.410156"/>
       <use xlink:href="#DejaVuSans-2e" x="164.013672"/>
       <use xlink:href="#DejaVuSans-31" x="195.800781"/>
       <use xlink:href="#DejaVuSans-37" x="259.423828"/>
       <use xlink:href="#DejaVuSans-34" x="323.046875"/>
       <use xlink:href="#DejaVuSans-2e" x="386.669922"/>
       <use xlink:href="#DejaVuSans-31" x="418.457031"/>
       <use xlink:href="#DejaVuSans-2e" x="482.080078"/>
       <use xlink:href="#DejaVuSans-34" x="513.867188"/>
      </g>
     </g>
    </g>
    <g id="ytick_5">
     <g id="line2d_12">
      <g>
       <use xlink:href="#m2040879dbb" x="144" y="119.988" style="stroke: #000000; stroke-width: 0.8"/>
      </g>
     </g>
     <g id="text_13">
      <!-- 9.B.174.2.1 -->
      <g transform="translate(79.251563 123.787219) scale(0.1 -0.1)">
       <use xlink:href="#DejaVuSans-39"/>
       <use xlink:href="#DejaVuSans-2e" x="63.623047"/>
       <use xlink:href="#DejaVuSans-42" x="95.410156"/>
       <use xlink:href="#DejaVuSans-2e" x="164.013672"/>
       <use xlink:href="#DejaVuSans-31" x="195.800781"/>
       <use xlink:href="#DejaVuSans-37" x="259.423828"/>
       <use xlink:href="#DejaVuSans-34" x="323.046875"/>
       <use xlink:href="#DejaVuSans-2e" x="386.669922"/>
       <use xlink:href="#DejaVuSans-32" x="418.457031"/>
       <use xlink:href="#DejaVuSans-2e" x="482.080078"/>
       <use xlink:href="#DejaVuSans-31" x="513.867188"/>
      </g>
     </g>
    </g>
    <g id="ytick_6">
     <g id="line2d_13">
      <g>
       <use xlink:href="#m2040879dbb" x="144" y="100.188" style="stroke: #000000; stroke-width: 0.8"/>
      </g>
     </g>
     <g id="text_14">
      <!-- 9.B.174.2.2 -->
      <g transform="translate(79.251563 103.987219) scale(0.1 -0.1)">
       <use xlink:href="#DejaVuSans-39"/>
       <use xlink:href="#DejaVuSans-2e" x="63.623047"/>
       <use xlink:href="#DejaVuSans-42" x="95.410156"/>
       <use xlink:href="#DejaVuSans-2e" x="164.013672"/>
       <use xlink:href="#DejaVuSans-31" x="195.800781"/>
       <use xlink:href="#DejaVuSans-37" x="259.423828"/>
       <use xlink:href="#DejaVuSans-34" x="323.046875"/>
       <use xlink:href="#DejaVuSans-2e" x="386.669922"/>
       <use xlink:href="#DejaVuSans-32" x="418.457031"/>
       <use xlink:href="#DejaVuSans-2e" x="482.080078"/>
       <use xlink:href="#DejaVuSans-32" x="513.867188"/>
      </g>
     </g>
    </g>
    <g id="ytick_7">
     <g id="line2d_14">
      <g>
       <use xlink:href="#m2040879dbb" x="144" y="80.388" style="stroke: #000000; stroke-width: 0.8"/>
      </g>
     </g>
     <g id="text_15">
      <!-- 9.B.174.2.3 -->
      <g transform="translate(79.251563 84.187219) scale(0.1 -0.1)">
       <use xlink:href="#DejaVuSans-39"/>
       <use xlink:href="#DejaVuSans-2e" x="63.623047"/>
       <use xlink:href="#DejaVuSans-42" x="95.410156"/>
       <use xlink:href="#DejaVuSans-2e" x="164.013672"/>
       <use xlink:href="#DejaVuSans-31" x="195.800781"/>
       <use xlink:href="#DejaVuSans-37" x="259.423828"/>
       <use xlink:href="#DejaVuSans-34" x="323.046875"/>
       <use xlink:href="#DejaVuSans-2e" x="386.669922"/>
       <use xlink:href="#DejaVuSans-32" x="418.457031"/>
       <use xlink:href="#DejaVuSans-2e" x="482.080078"/>
       <use xlink:href="#DejaVuSans-33" x="513.867188"/>
      </g>
     </g>
    </g>
    <g id="ytick_8">
     <g id="line2d_15">
      <g>
       <use xlink:href="#m2040879dbb" x="144" y="60.588" style="stroke: #000000; stroke-width: 0.8"/>
      </g>
     </g>
     <g id="text_16">
      <!-- 9.B.174.2.4 -->
      <g transform="translate(79.251563 64.387219) scale(0.1 -0.1)">
       <use xlink:href="#DejaVuSans-39"/>
       <use xlink:href="#DejaVuSans-2e" x="63.623047"/>
       <use xlink:href="#DejaVuSans-42" x="95.410156"/>
       <use xlink:href="#DejaVuSans-2e" x="164.013672"/>
       <use xlink:href="#DejaVuSans-31" x="195.800781"/>
       <use xlink:href="#DejaVuSans-37" x="259.423828"/>
       <use xlink:href="#DejaVuSans-34" x="323.046875"/>
       <use xlink:href="#DejaVuSans-2e" x="386.669922"/>
       <use xlink:href="#DejaVuSans-32" x="418.457031"/>
       <use xlink:href="#DejaVuSans-2e" x="482.080078"/>
       <use xlink:href="#DejaVuSans-34" x="513.867188"/>
      </g>
     </g>
    </g>
    <g id="ytick_9">
     <g id="line2d_16">
      <g>
       <use xlink:href="#m2040879dbb" x="144" y="40.788" style="stroke: #000000; stroke-width: 0.8"/>
      </g>
     </g>
     <g id="text_17">
      <!-- 9.B.174.2.5 -->
      <g transform="translate(79.251563 44.587219) scale(0.1 -0.1)">
       <use xlink:href="#DejaVuSans-39"/>
       <use xlink:href="#DejaVuSans-2e" x="63.623047"/>
       <use xlink:href="#DejaVuSans-42" x="95.410156"/>
       <use xlink:href="#DejaVuSans-2e" x="164.013672"/>
       <use xlink:href="#DejaVuSans-31" x="195.800781"/>
       <use xlink:href="#DejaVuSans-37" x="259.423828"/>
       <use xlink:href="#DejaVuSans-34" x="323.046875"/>
       <use xlink:href="#DejaVuSans-2e" x="386.669922"/>
       <use xlink:href="#DejaVuSans-32" x="418.457031"/>
       <use xlink:href="#DejaVuSans-2e" x="482.080078"/>
       <use xlink:href="#DejaVuSans-35" x="513.867188"/>
      </g>
     </g>
    </g>
   </g>
   <g id="patch_154">
    <path d="M 144 211.464 
L 144 28.512 
" style="fill: none; stroke: #000000; stroke-width: 0.8; stroke-linejoin: miter; stroke-linecap: square"/>
   </g>
   <g id="patch_155">
    <path d="M 1036.8 211.464 
L 1036.8 28.512 
" style="fill: none; stroke: #000000; stroke-width: 0.8; stroke-linejoin: miter; stroke-linecap: square"/>
   </g>
   <g id="patch_156">
    <path d="M 144 211.464 
L 1036.8 211.464 
" style="fill: none; stroke: #000000; stroke-width: 0.8; stroke-linejoin: miter; stroke-linecap: square"/>
   </g>
   <g id="patch_157">
    <path d="M 144 28.512 
L 1036.8 28.512 
" style="fill: none; stroke: #000000; stroke-width: 0.8; stroke-linejoin: miter; stroke-linecap: square"/>
   </g>
   <g id="text_18">
    <!-- 9.B.174 Summary -->
    <g transform="translate(536.297812 22.512) scale(0.12 -0.12)">
     <defs>
      <path id="DejaVuSans-20" transform="scale(0.015625)"/>
      <path id="DejaVuSans-53" d="M 3425 4513 
L 3425 3897 
Q 3066 4069 2747 4153 
Q 2428 4238 2131 4238 
Q 1616 4238 1336 4038 
Q 1056 3838 1056 3469 
Q 1056 3159 1242 3001 
Q 1428 2844 1947 2747 
L 2328 2669 
Q 3034 2534 3370 2195 
Q 3706 1856 3706 1288 
Q 3706 609 3251 259 
Q 2797 -91 1919 -91 
Q 1588 -91 1214 -16 
Q 841 59 441 206 
L 441 856 
Q 825 641 1194 531 
Q 1563 422 1919 422 
Q 2459 422 2753 634 
Q 3047 847 3047 1241 
Q 3047 1584 2836 1778 
Q 2625 1972 2144 2069 
L 1759 2144 
Q 1053 2284 737 2584 
Q 422 2884 422 3419 
Q 422 4038 858 4394 
Q 1294 4750 2059 4750 
Q 2388 4750 2728 4690 
Q 3069 4631 3425 4513 
z
" transform="scale(0.015625)"/>
      <path id="DejaVuSans-6d" d="M 3328 2828 
Q 3544 3216 3844 3400 
Q 4144 3584 4550 3584 
Q 5097 3584 5394 3201 
Q 5691 2819 5691 2113 
L 5691 0 
L 5113 0 
L 5113 2094 
Q 5113 2597 4934 2840 
Q 4756 3084 4391 3084 
Q 3944 3084 3684 2787 
Q 3425 2491 3425 1978 
L 3425 0 
L 2847 0 
L 2847 2094 
Q 2847 2600 2669 2842 
Q 2491 3084 2119 3084 
Q 1678 3084 1418 2786 
Q 1159 2488 1159 1978 
L 1159 0 
L 581 0 
L 581 3500 
L 1159 3500 
L 1159 2956 
Q 1356 3278 1631 3431 
Q 1906 3584 2284 3584 
Q 2666 3584 2933 3390 
Q 3200 3197 3328 2828 
z
" transform="scale(0.015625)"/>
      <path id="DejaVuSans-72" d="M 2631 2963 
Q 2534 3019 2420 3045 
Q 2306 3072 2169 3072 
Q 1681 3072 1420 2755 
Q 1159 2438 1159 1844 
L 1159 0 
L 581 0 
L 581 3500 
L 1159 3500 
L 1159 2956 
Q 1341 3275 1631 3429 
Q 1922 3584 2338 3584 
Q 2397 3584 2469 3576 
Q 2541 3569 2628 3553 
L 2631 2963 
z
" transform="scale(0.015625)"/>
      <path id="DejaVuSans-79" d="M 2059 -325 
Q 1816 -950 1584 -1140 
Q 1353 -1331 966 -1331 
L 506 -1331 
L 506 -850 
L 844 -850 
Q 1081 -850 1212 -737 
Q 1344 -625 1503 -206 
L 1606 56 
L 191 3500 
L 800 3500 
L 1894 763 
L 2988 3500 
L 3597 3500 
L 2059 -325 
z
" transform="scale(0.015625)"/>
     </defs>
     <use xlink:href="#DejaVuSans-39"/>
     <use xlink:href="#DejaVuSans-2e" x="63.623047"/>
     <use xlink:href="#DejaVuSans-42" x="95.410156"/>
     <use xlink:href="#DejaVuSans-2e" x="164.013672"/>
     <use xlink:href="#DejaVuSans-31" x="195.800781"/>
     <use xlink:href="#DejaVuSans-37" x="259.423828"/>
     <use xlink:href="#DejaVuSans-34" x="323.046875"/>
     <use xlink:href="#DejaVuSans-20" x="386.669922"/>
     <use xlink:href="#DejaVuSans-53" x="418.457031"/>
     <use xlink:href="#DejaVuSans-75" x="481.933594"/>
     <use xlink:href="#DejaVuSans-6d" x="545.3125"/>
     <use xlink:href="#DejaVuSans-6d" x="642.724609"/>
     <use xlink:href="#DejaVuSans-61" x="740.136719"/>
     <use xlink:href="#DejaVuSans-72" x="801.416016"/>
     <use xlink:href="#DejaVuSans-79" x="842.529297"/>
    </g>
   </g>
  </g>
 </g>
 <defs>
  <clipPath id="p26a10b84d1">
   <rect x="144" y="28.512" width="892.8" height="182.952"/>
  </clipPath>
 </defs>
</svg>
