<?xml version="1.0" encoding="utf-8" standalone="no"?>
<!DOCTYPE svg PUBLIC "-//W3C//DTD SVG 1.1//EN"
  "http://www.w3.org/Graphics/SVG/1.1/DTD/svg11.dtd">
<svg xmlns:xlink="http://www.w3.org/1999/xlink" width="1152pt" height="237.6pt" viewBox="0 0 1152 237.6" xmlns="http://www.w3.org/2000/svg" version="1.1">
 <metadata>
  <rdf:RDF xmlns:dc="http://purl.org/dc/elements/1.1/" xmlns:cc="http://creativecommons.org/ns#" xmlns:rdf="http://www.w3.org/1999/02/22-rdf-syntax-ns#">
   <cc:Work>
    <dc:type rdf:resource="http://purl.org/dc/dcmitype/StillImage"/>
    <dc:date>2024-10-25T08:06:40.821416</dc:date>
    <dc:format>image/svg+xml</dc:format>
    <dc:creator>
     <cc:Agent>
      <dc:title>Matplotlib v3.9.2, https://matplotlib.org/</dc:title>
     </cc:Agent>
    </dc:creator>
   </cc:Work>
  </rdf:RDF>
 </metadata>
 <defs>
  <style type="text/css">*{stroke-linejoin: round; stroke-linecap: butt}</style>
 </defs>
 <g id="figure_1">
  <g id="patch_1">
   <path d="M 0 237.6 
L 1152 237.6 
L 1152 0 
L 0 0 
z
" style="fill: #ffffff"/>
  </g>
  <g id="axes_1">
   <g id="patch_2">
    <path d="M 144 211.464 
L 1036.8 211.464 
L 1036.8 28.512 
L 144 28.512 
z
" style="fill: #ffffff"/>
   </g>
   <g id="patch_3">
    <path d="M 144 199.485 
L 166.549013 199.485 
L 166.549013 198.891 
L 144 198.891 
z
" clip-path="url(#p6b1df81e30)" style="fill: #0000ff"/>
   </g>
   <g id="patch_4">
    <path d="M 167.488556 203.148 
L 312.178058 203.148 
L 312.178058 195.228 
L 167.488556 195.228 
z
" clip-path="url(#p6b1df81e30)" style="fill: #0000ff"/>
   </g>
   <g id="patch_5">
    <path d="M 293.387214 203.148 
L 467.202526 203.148 
L 467.202526 195.228 
L 293.387214 195.228 
z
" clip-path="url(#p6b1df81e30)" style="fill: #0000ff"/>
   </g>
   <g id="patch_6">
    <path d="M 312.178058 203.148 
L 460.62573 203.148 
L 460.62573 195.228 
L 312.178058 195.228 
z
" clip-path="url(#p6b1df81e30)" style="fill: #0000ff"/>
   </g>
   <g id="patch_7">
    <path d="M 315.936227 203.148 
L 470.021152 203.148 
L 470.021152 195.228 
L 315.936227 195.228 
z
" clip-path="url(#p6b1df81e30)" style="fill: #0000ff"/>
   </g>
   <g id="patch_8">
    <path d="M 319.694396 203.148 
L 467.202526 203.148 
L 467.202526 195.228 
L 319.694396 195.228 
z
" clip-path="url(#p6b1df81e30)" style="fill: #0000ff"/>
   </g>
   <g id="patch_9">
    <path d="M 321.573481 203.148 
L 468.142068 203.148 
L 468.142068 195.228 
L 321.573481 195.228 
z
" clip-path="url(#p6b1df81e30)" style="fill: #0000ff"/>
   </g>
   <g id="patch_10">
    <path d="M 324.392107 203.148 
L 464.383899 203.148 
L 464.383899 195.228 
L 324.392107 195.228 
z
" clip-path="url(#p6b1df81e30)" style="fill: #0000ff"/>
   </g>
   <g id="patch_11">
    <path d="M 325.33165 203.148 
L 468.142068 203.148 
L 468.142068 195.228 
L 325.33165 195.228 
z
" clip-path="url(#p6b1df81e30)" style="fill: #0000ff"/>
   </g>
   <g id="patch_12">
    <path d="M 325.33165 203.148 
L 467.202526 203.148 
L 467.202526 195.228 
L 325.33165 195.228 
z
" clip-path="url(#p6b1df81e30)" style="fill: #0000ff"/>
   </g>
   <g id="patch_13">
    <path d="M 325.33165 203.148 
L 467.202526 203.148 
L 467.202526 195.228 
L 325.33165 195.228 
z
" clip-path="url(#p6b1df81e30)" style="fill: #0000ff"/>
   </g>
   <g id="patch_14">
    <path d="M 325.33165 203.148 
L 466.262983 203.148 
L 466.262983 195.228 
L 325.33165 195.228 
z
" clip-path="url(#p6b1df81e30)" style="fill: #0000ff"/>
   </g>
   <g id="patch_15">
    <path d="M 326.271192 203.148 
L 468.142068 203.148 
L 468.142068 195.228 
L 326.271192 195.228 
z
" clip-path="url(#p6b1df81e30)" style="fill: #0000ff"/>
   </g>
   <g id="patch_16">
    <path d="M 327.210734 203.148 
L 468.142068 203.148 
L 468.142068 195.228 
L 327.210734 195.228 
z
" clip-path="url(#p6b1df81e30)" style="fill: #0000ff"/>
   </g>
   <g id="patch_17">
    <path d="M 328.150276 203.148 
L 465.323441 203.148 
L 465.323441 195.228 
L 328.150276 195.228 
z
" clip-path="url(#p6b1df81e30)" style="fill: #0000ff"/>
   </g>
   <g id="patch_18">
    <path d="M 360.094712 203.148 
L 460.62573 203.148 
L 460.62573 195.228 
L 360.094712 195.228 
z
" clip-path="url(#p6b1df81e30)" style="fill: #0000ff"/>
   </g>
   <g id="patch_19">
    <path d="M 360.094712 203.148 
L 470.021152 203.148 
L 470.021152 195.228 
L 360.094712 195.228 
z
" clip-path="url(#p6b1df81e30)" style="fill: #0000ff"/>
   </g>
   <g id="patch_20">
    <path d="M 360.094712 203.148 
L 464.383899 203.148 
L 464.383899 195.228 
L 360.094712 195.228 
z
" clip-path="url(#p6b1df81e30)" style="fill: #0000ff"/>
   </g>
   <g id="patch_21">
    <path d="M 470.960695 199.485 
L 470.960695 199.485 
L 470.960695 198.891 
L 470.960695 198.891 
z
" clip-path="url(#p6b1df81e30)" style="fill: #0000ff"/>
   </g>
   <g id="patch_22">
    <path d="M 144 179.685 
L 147.758169 179.685 
L 147.758169 179.091 
L 144 179.091 
z
" clip-path="url(#p6b1df81e30)" style="fill: #0000ff"/>
   </g>
   <g id="patch_23">
    <path d="M 148.697711 183.348 
L 491.630624 183.348 
L 491.630624 175.428 
L 148.697711 175.428 
z
" clip-path="url(#p6b1df81e30)" style="fill: #0000ff"/>
   </g>
   <g id="patch_24">
    <path d="M 180.642147 183.348 
L 263.321863 183.348 
L 263.321863 175.428 
L 180.642147 175.428 
z
" clip-path="url(#p6b1df81e30)" style="fill: #0000ff"/>
   </g>
   <g id="patch_25">
    <path d="M 308.41989 183.348 
L 486.932912 183.348 
L 486.932912 175.428 
L 308.41989 175.428 
z
" clip-path="url(#p6b1df81e30)" style="fill: #0000ff"/>
   </g>
   <g id="patch_26">
    <path d="M 323.452565 183.348 
L 485.053828 183.348 
L 485.053828 175.428 
L 323.452565 175.428 
z
" clip-path="url(#p6b1df81e30)" style="fill: #0000ff"/>
   </g>
   <g id="patch_27">
    <path d="M 324.392107 183.348 
L 489.751539 183.348 
L 489.751539 175.428 
L 324.392107 175.428 
z
" clip-path="url(#p6b1df81e30)" style="fill: #0000ff"/>
   </g>
   <g id="patch_28">
    <path d="M 327.210734 183.348 
L 490.691081 183.348 
L 490.691081 175.428 
L 327.210734 175.428 
z
" clip-path="url(#p6b1df81e30)" style="fill: #0000ff"/>
   </g>
   <g id="patch_29">
    <path d="M 328.150276 183.348 
L 485.053828 183.348 
L 485.053828 175.428 
L 328.150276 175.428 
z
" clip-path="url(#p6b1df81e30)" style="fill: #0000ff"/>
   </g>
   <g id="patch_30">
    <path d="M 329.089818 183.348 
L 481.295659 183.348 
L 481.295659 175.428 
L 329.089818 175.428 
z
" clip-path="url(#p6b1df81e30)" style="fill: #0000ff"/>
   </g>
   <g id="patch_31">
    <path d="M 329.089818 183.348 
L 491.630624 183.348 
L 491.630624 175.428 
L 329.089818 175.428 
z
" clip-path="url(#p6b1df81e30)" style="fill: #0000ff"/>
   </g>
   <g id="patch_32">
    <path d="M 331.908445 183.348 
L 435.25809 183.348 
L 435.25809 175.428 
L 331.908445 175.428 
z
" clip-path="url(#p6b1df81e30)" style="fill: #0000ff"/>
   </g>
   <g id="patch_33">
    <path d="M 335.666614 183.348 
L 486.932912 183.348 
L 486.932912 175.428 
L 335.666614 175.428 
z
" clip-path="url(#p6b1df81e30)" style="fill: #0000ff"/>
   </g>
   <g id="patch_34">
    <path d="M 336.606156 183.348 
L 487.872455 183.348 
L 487.872455 175.428 
L 336.606156 175.428 
z
" clip-path="url(#p6b1df81e30)" style="fill: #0000ff"/>
   </g>
   <g id="patch_35">
    <path d="M 339.424783 183.348 
L 490.691081 183.348 
L 490.691081 175.428 
L 339.424783 175.428 
z
" clip-path="url(#p6b1df81e30)" style="fill: #0000ff"/>
   </g>
   <g id="patch_36">
    <path d="M 339.424783 183.348 
L 486.932912 183.348 
L 486.932912 175.428 
L 339.424783 175.428 
z
" clip-path="url(#p6b1df81e30)" style="fill: #0000ff"/>
   </g>
   <g id="patch_37">
    <path d="M 339.424783 183.348 
L 491.630624 183.348 
L 491.630624 175.428 
L 339.424783 175.428 
z
" clip-path="url(#p6b1df81e30)" style="fill: #0000ff"/>
   </g>
   <g id="patch_38">
    <path d="M 340.364325 183.348 
L 486.932912 183.348 
L 486.932912 175.428 
L 340.364325 175.428 
z
" clip-path="url(#p6b1df81e30)" style="fill: #0000ff"/>
   </g>
   <g id="patch_39">
    <path d="M 341.303867 183.348 
L 486.932912 183.348 
L 486.932912 175.428 
L 341.303867 175.428 
z
" clip-path="url(#p6b1df81e30)" style="fill: #0000ff"/>
   </g>
   <g id="patch_40">
    <path d="M 370.429676 183.348 
L 481.295659 183.348 
L 481.295659 175.428 
L 370.429676 175.428 
z
" clip-path="url(#p6b1df81e30)" style="fill: #0000ff"/>
   </g>
   <g id="patch_41">
    <path d="M 144 159.885 
L 324.392107 159.885 
L 324.392107 159.291 
L 144 159.291 
z
" clip-path="url(#p6b1df81e30)" style="fill: #0000ff"/>
   </g>
   <g id="patch_42">
    <path d="M 325.33165 163.548 
L 511.36101 163.548 
L 511.36101 155.628 
L 325.33165 155.628 
z
" clip-path="url(#p6b1df81e30)" style="fill: #0000ff"/>
   </g>
   <g id="patch_43">
    <path d="M 342.24341 163.548 
L 507.602841 163.548 
L 507.602841 155.628 
L 342.24341 155.628 
z
" clip-path="url(#p6b1df81e30)" style="fill: #0000ff"/>
   </g>
   <g id="patch_44">
    <path d="M 346.001579 163.548 
L 513.240095 163.548 
L 513.240095 155.628 
L 346.001579 155.628 
z
" clip-path="url(#p6b1df81e30)" style="fill: #0000ff"/>
   </g>
   <g id="patch_45">
    <path d="M 348.820205 163.548 
L 513.240095 163.548 
L 513.240095 155.628 
L 348.820205 155.628 
z
" clip-path="url(#p6b1df81e30)" style="fill: #0000ff"/>
   </g>
   <g id="patch_46">
    <path d="M 349.759747 163.548 
L 513.240095 163.548 
L 513.240095 155.628 
L 349.759747 155.628 
z
" clip-path="url(#p6b1df81e30)" style="fill: #0000ff"/>
   </g>
   <g id="patch_47">
    <path d="M 349.759747 163.548 
L 512.300552 163.548 
L 512.300552 155.628 
L 349.759747 155.628 
z
" clip-path="url(#p6b1df81e30)" style="fill: #0000ff"/>
   </g>
   <g id="patch_48">
    <path d="M 354.457459 163.548 
L 512.300552 163.548 
L 512.300552 155.628 
L 354.457459 155.628 
z
" clip-path="url(#p6b1df81e30)" style="fill: #0000ff"/>
   </g>
   <g id="patch_49">
    <path d="M 354.457459 163.548 
L 513.240095 163.548 
L 513.240095 155.628 
L 354.457459 155.628 
z
" clip-path="url(#p6b1df81e30)" style="fill: #0000ff"/>
   </g>
   <g id="patch_50">
    <path d="M 356.336543 163.548 
L 510.421468 163.548 
L 510.421468 155.628 
L 356.336543 155.628 
z
" clip-path="url(#p6b1df81e30)" style="fill: #0000ff"/>
   </g>
   <g id="patch_51">
    <path d="M 358.215627 163.548 
L 512.300552 163.548 
L 512.300552 155.628 
L 358.215627 155.628 
z
" clip-path="url(#p6b1df81e30)" style="fill: #0000ff"/>
   </g>
   <g id="patch_52">
    <path d="M 360.094712 163.548 
L 513.240095 163.548 
L 513.240095 155.628 
L 360.094712 155.628 
z
" clip-path="url(#p6b1df81e30)" style="fill: #0000ff"/>
   </g>
   <g id="patch_53">
    <path d="M 361.034254 163.548 
L 509.481926 163.548 
L 509.481926 155.628 
L 361.034254 155.628 
z
" clip-path="url(#p6b1df81e30)" style="fill: #0000ff"/>
   </g>
   <g id="patch_54">
    <path d="M 361.034254 163.548 
L 514.179637 163.548 
L 514.179637 155.628 
L 361.034254 155.628 
z
" clip-path="url(#p6b1df81e30)" style="fill: #0000ff"/>
   </g>
   <g id="patch_55">
    <path d="M 361.034254 163.548 
L 512.300552 163.548 
L 512.300552 155.628 
L 361.034254 155.628 
z
" clip-path="url(#p6b1df81e30)" style="fill: #0000ff"/>
   </g>
   <g id="patch_56">
    <path d="M 361.973796 163.548 
L 511.36101 163.548 
L 511.36101 155.628 
L 361.973796 155.628 
z
" clip-path="url(#p6b1df81e30)" style="fill: #0000ff"/>
   </g>
   <g id="patch_57">
    <path d="M 362.913339 163.548 
L 513.240095 163.548 
L 513.240095 155.628 
L 362.913339 155.628 
z
" clip-path="url(#p6b1df81e30)" style="fill: #0000ff"/>
   </g>
   <g id="patch_58">
    <path d="M 364.792423 163.548 
L 515.119179 163.548 
L 515.119179 155.628 
L 364.792423 155.628 
z
" clip-path="url(#p6b1df81e30)" style="fill: #0000ff"/>
   </g>
   <g id="patch_59">
    <path d="M 391.099605 163.548 
L 464.383899 163.548 
L 464.383899 155.628 
L 391.099605 155.628 
z
" clip-path="url(#p6b1df81e30)" style="fill: #0000ff"/>
   </g>
   <g id="patch_60">
    <path d="M 144 143.748 
L 672.962273 143.748 
L 672.962273 135.828 
L 144 135.828 
z
" clip-path="url(#p6b1df81e30)" style="fill: #0000ff"/>
   </g>
   <g id="patch_61">
    <path d="M 181.581689 143.748 
L 356.336543 143.748 
L 356.336543 135.828 
L 181.581689 135.828 
z
" clip-path="url(#p6b1df81e30)" style="fill: #0000ff"/>
   </g>
   <g id="patch_62">
    <path d="M 264.261405 143.748 
L 464.383899 143.748 
L 464.383899 135.828 
L 264.261405 135.828 
z
" clip-path="url(#p6b1df81e30)" style="fill: #0000ff"/>
   </g>
   <g id="patch_63">
    <path d="M 439.955801 143.748 
L 661.687766 143.748 
L 661.687766 135.828 
L 439.955801 135.828 
z
" clip-path="url(#p6b1df81e30)" style="fill: #0000ff"/>
   </g>
   <g id="patch_64">
    <path d="M 476.597948 143.748 
L 671.083189 143.748 
L 671.083189 135.828 
L 476.597948 135.828 
z
" clip-path="url(#p6b1df81e30)" style="fill: #0000ff"/>
   </g>
   <g id="patch_65">
    <path d="M 509.481926 143.748 
L 667.32502 143.748 
L 667.32502 135.828 
L 509.481926 135.828 
z
" clip-path="url(#p6b1df81e30)" style="fill: #0000ff"/>
   </g>
   <g id="patch_66">
    <path d="M 509.481926 143.748 
L 671.083189 143.748 
L 671.083189 135.828 
L 509.481926 135.828 
z
" clip-path="url(#p6b1df81e30)" style="fill: #0000ff"/>
   </g>
   <g id="patch_67">
    <path d="M 510.421468 143.748 
L 669.204104 143.748 
L 669.204104 135.828 
L 510.421468 135.828 
z
" clip-path="url(#p6b1df81e30)" style="fill: #0000ff"/>
   </g>
   <g id="patch_68">
    <path d="M 513.240095 143.748 
L 666.385478 143.748 
L 666.385478 135.828 
L 513.240095 135.828 
z
" clip-path="url(#p6b1df81e30)" style="fill: #0000ff"/>
   </g>
   <g id="patch_69">
    <path d="M 513.240095 143.748 
L 667.32502 143.748 
L 667.32502 135.828 
L 513.240095 135.828 
z
" clip-path="url(#p6b1df81e30)" style="fill: #0000ff"/>
   </g>
   <g id="patch_70">
    <path d="M 513.240095 143.748 
L 667.32502 143.748 
L 667.32502 135.828 
L 513.240095 135.828 
z
" clip-path="url(#p6b1df81e30)" style="fill: #0000ff"/>
   </g>
   <g id="patch_71">
    <path d="M 515.119179 143.748 
L 668.264562 143.748 
L 668.264562 135.828 
L 515.119179 135.828 
z
" clip-path="url(#p6b1df81e30)" style="fill: #0000ff"/>
   </g>
   <g id="patch_72">
    <path d="M 516.058721 143.748 
L 671.083189 143.748 
L 671.083189 135.828 
L 516.058721 135.828 
z
" clip-path="url(#p6b1df81e30)" style="fill: #0000ff"/>
   </g>
   <g id="patch_73">
    <path d="M 516.998264 143.748 
L 666.385478 143.748 
L 666.385478 135.828 
L 516.998264 135.828 
z
" clip-path="url(#p6b1df81e30)" style="fill: #0000ff"/>
   </g>
   <g id="patch_74">
    <path d="M 518.877348 143.748 
L 667.32502 143.748 
L 667.32502 135.828 
L 518.877348 135.828 
z
" clip-path="url(#p6b1df81e30)" style="fill: #0000ff"/>
   </g>
   <g id="patch_75">
    <path d="M 519.81689 143.748 
L 667.32502 143.748 
L 667.32502 135.828 
L 519.81689 135.828 
z
" clip-path="url(#p6b1df81e30)" style="fill: #0000ff"/>
   </g>
   <g id="patch_76">
    <path d="M 519.81689 143.748 
L 670.143646 143.748 
L 670.143646 135.828 
L 519.81689 135.828 
z
" clip-path="url(#p6b1df81e30)" style="fill: #0000ff"/>
   </g>
   <g id="patch_77">
    <path d="M 546.124073 143.748 
L 660.748224 143.748 
L 660.748224 135.828 
L 546.124073 135.828 
z
" clip-path="url(#p6b1df81e30)" style="fill: #0000ff"/>
   </g>
   <g id="patch_78">
    <path d="M 144 120.285 
L 435.25809 120.285 
L 435.25809 119.691 
L 144 119.691 
z
" clip-path="url(#p6b1df81e30)" style="fill: #0000ff"/>
   </g>
   <g id="patch_79">
    <path d="M 436.197632 123.948 
L 593.101184 123.948 
L 593.101184 116.028 
L 436.197632 116.028 
z
" clip-path="url(#p6b1df81e30)" style="fill: #0000ff"/>
   </g>
   <g id="patch_80">
    <path d="M 474.718863 123.948 
L 589.343015 123.948 
L 589.343015 116.028 
L 474.718863 116.028 
z
" clip-path="url(#p6b1df81e30)" style="fill: #0000ff"/>
   </g>
   <g id="patch_81">
    <path d="M 478.477032 123.948 
L 592.161642 123.948 
L 592.161642 116.028 
L 478.477032 116.028 
z
" clip-path="url(#p6b1df81e30)" style="fill: #0000ff"/>
   </g>
   <g id="patch_82">
    <path d="M 479.416575 123.948 
L 539.547277 123.948 
L 539.547277 116.028 
L 479.416575 116.028 
z
" clip-path="url(#p6b1df81e30)" style="fill: #0000ff"/>
   </g>
   <g id="patch_83">
    <path d="M 479.416575 123.948 
L 582.766219 123.948 
L 582.766219 116.028 
L 479.416575 116.028 
z
" clip-path="url(#p6b1df81e30)" style="fill: #0000ff"/>
   </g>
   <g id="patch_84">
    <path d="M 488.811997 123.948 
L 582.766219 123.948 
L 582.766219 116.028 
L 488.811997 116.028 
z
" clip-path="url(#p6b1df81e30)" style="fill: #0000ff"/>
   </g>
   <g id="patch_85">
    <path d="M 488.811997 123.948 
L 583.705762 123.948 
L 583.705762 116.028 
L 488.811997 116.028 
z
" clip-path="url(#p6b1df81e30)" style="fill: #0000ff"/>
   </g>
   <g id="patch_86">
    <path d="M 488.811997 123.948 
L 583.705762 123.948 
L 583.705762 116.028 
L 488.811997 116.028 
z
" clip-path="url(#p6b1df81e30)" style="fill: #0000ff"/>
   </g>
   <g id="patch_87">
    <path d="M 529.212313 123.948 
L 988.648461 123.948 
L 988.648461 116.028 
L 529.212313 116.028 
z
" clip-path="url(#p6b1df81e30)" style="fill: #0000ff"/>
   </g>
   <g id="patch_88">
    <path d="M 561.156748 123.948 
L 741.548856 123.948 
L 741.548856 116.028 
L 561.156748 116.028 
z
" clip-path="url(#p6b1df81e30)" style="fill: #0000ff"/>
   </g>
   <g id="patch_89">
    <path d="M 579.008051 123.948 
L 746.246567 123.948 
L 746.246567 116.028 
L 579.008051 116.028 
z
" clip-path="url(#p6b1df81e30)" style="fill: #0000ff"/>
   </g>
   <g id="patch_90">
    <path d="M 581.826677 123.948 
L 747.186109 123.948 
L 747.186109 116.028 
L 581.826677 116.028 
z
" clip-path="url(#p6b1df81e30)" style="fill: #0000ff"/>
   </g>
   <g id="patch_91">
    <path d="M 581.826677 123.948 
L 993.346172 123.948 
L 993.346172 116.028 
L 581.826677 116.028 
z
" clip-path="url(#p6b1df81e30)" style="fill: #0000ff"/>
   </g>
   <g id="patch_92">
    <path d="M 582.766219 123.948 
L 986.769376 123.948 
L 986.769376 116.028 
L 582.766219 116.028 
z
" clip-path="url(#p6b1df81e30)" style="fill: #0000ff"/>
   </g>
   <g id="patch_93">
    <path d="M 584.645304 123.948 
L 738.730229 123.948 
L 738.730229 116.028 
L 584.645304 116.028 
z
" clip-path="url(#p6b1df81e30)" style="fill: #0000ff"/>
   </g>
   <g id="patch_94">
    <path d="M 584.645304 123.948 
L 987.708919 123.948 
L 987.708919 116.028 
L 584.645304 116.028 
z
" clip-path="url(#p6b1df81e30)" style="fill: #0000ff"/>
   </g>
   <g id="patch_95">
    <path d="M 586.524388 123.948 
L 986.769376 123.948 
L 986.769376 116.028 
L 586.524388 116.028 
z
" clip-path="url(#p6b1df81e30)" style="fill: #0000ff"/>
   </g>
   <g id="patch_96">
    <path d="M 589.343015 123.948 
L 751.88382 123.948 
L 751.88382 116.028 
L 589.343015 116.028 
z
" clip-path="url(#p6b1df81e30)" style="fill: #0000ff"/>
   </g>
   <g id="patch_97">
    <path d="M 594.040726 123.948 
L 746.246567 123.948 
L 746.246567 116.028 
L 594.040726 116.028 
z
" clip-path="url(#p6b1df81e30)" style="fill: #0000ff"/>
   </g>
   <g id="patch_98">
    <path d="M 594.980268 123.948 
L 747.186109 123.948 
L 747.186109 116.028 
L 594.980268 116.028 
z
" clip-path="url(#p6b1df81e30)" style="fill: #0000ff"/>
   </g>
   <g id="patch_99">
    <path d="M 594.980268 123.948 
L 747.186109 123.948 
L 747.186109 116.028 
L 594.980268 116.028 
z
" clip-path="url(#p6b1df81e30)" style="fill: #0000ff"/>
   </g>
   <g id="patch_100">
    <path d="M 595.919811 123.948 
L 985.829834 123.948 
L 985.829834 116.028 
L 595.919811 116.028 
z
" clip-path="url(#p6b1df81e30)" style="fill: #0000ff"/>
   </g>
   <g id="patch_101">
    <path d="M 595.919811 123.948 
L 741.548856 123.948 
L 741.548856 116.028 
L 595.919811 116.028 
z
" clip-path="url(#p6b1df81e30)" style="fill: #0000ff"/>
   </g>
   <g id="patch_102">
    <path d="M 596.859353 123.948 
L 744.367482 123.948 
L 744.367482 116.028 
L 596.859353 116.028 
z
" clip-path="url(#p6b1df81e30)" style="fill: #0000ff"/>
   </g>
   <g id="patch_103">
    <path d="M 598.738437 123.948 
L 750.944278 123.948 
L 750.944278 116.028 
L 598.738437 116.028 
z
" clip-path="url(#p6b1df81e30)" style="fill: #0000ff"/>
   </g>
   <g id="patch_104">
    <path d="M 600.617522 123.948 
L 988.648461 123.948 
L 988.648461 116.028 
L 600.617522 116.028 
z
" clip-path="url(#p6b1df81e30)" style="fill: #0000ff"/>
   </g>
   <g id="patch_105">
    <path d="M 626.924704 123.948 
L 714.302131 123.948 
L 714.302131 116.028 
L 626.924704 116.028 
z
" clip-path="url(#p6b1df81e30)" style="fill: #0000ff"/>
   </g>
   <g id="patch_106">
    <path d="M 754.702447 123.948 
L 992.40663 123.948 
L 992.40663 116.028 
L 754.702447 116.028 
z
" clip-path="url(#p6b1df81e30)" style="fill: #0000ff"/>
   </g>
   <g id="patch_107">
    <path d="M 755.641989 123.948 
L 993.346172 123.948 
L 993.346172 116.028 
L 755.641989 116.028 
z
" clip-path="url(#p6b1df81e30)" style="fill: #0000ff"/>
   </g>
   <g id="patch_108">
    <path d="M 756.581531 123.948 
L 994.285714 123.948 
L 994.285714 116.028 
L 756.581531 116.028 
z
" clip-path="url(#p6b1df81e30)" style="fill: #0000ff"/>
   </g>
   <g id="patch_109">
    <path d="M 760.3397 123.948 
L 986.769376 123.948 
L 986.769376 116.028 
L 760.3397 116.028 
z
" clip-path="url(#p6b1df81e30)" style="fill: #0000ff"/>
   </g>
   <g id="patch_110">
    <path d="M 760.3397 123.948 
L 982.071665 123.948 
L 982.071665 116.028 
L 760.3397 116.028 
z
" clip-path="url(#p6b1df81e30)" style="fill: #0000ff"/>
   </g>
   <g id="patch_111">
    <path d="M 761.279242 123.948 
L 986.769376 123.948 
L 986.769376 116.028 
L 761.279242 116.028 
z
" clip-path="url(#p6b1df81e30)" style="fill: #0000ff"/>
   </g>
   <g id="patch_112">
    <path d="M 857.112549 123.948 
L 982.071665 123.948 
L 982.071665 116.028 
L 857.112549 116.028 
z
" clip-path="url(#p6b1df81e30)" style="fill: #0000ff"/>
   </g>
   <g id="patch_113">
    <path d="M 874.963852 123.948 
L 987.708919 123.948 
L 987.708919 116.028 
L 874.963852 116.028 
z
" clip-path="url(#p6b1df81e30)" style="fill: #0000ff"/>
   </g>
   <g id="patch_114">
    <path d="M 144 100.485 
L 189.098027 100.485 
L 189.098027 99.891 
L 144 99.891 
z
" clip-path="url(#p6b1df81e30)" style="fill: #0000ff"/>
   </g>
   <g id="patch_115">
    <path d="M 190.037569 104.148 
L 375.127388 104.148 
L 375.127388 96.228 
L 190.037569 96.228 
z
" clip-path="url(#p6b1df81e30)" style="fill: #0000ff"/>
   </g>
   <g id="patch_116">
    <path d="M 193.795738 104.148 
L 383.583268 104.148 
L 383.583268 96.228 
L 193.795738 96.228 
z
" clip-path="url(#p6b1df81e30)" style="fill: #0000ff"/>
   </g>
   <g id="patch_117">
    <path d="M 207.888871 104.148 
L 373.248303 104.148 
L 373.248303 96.228 
L 207.888871 96.228 
z
" clip-path="url(#p6b1df81e30)" style="fill: #0000ff"/>
   </g>
   <g id="patch_118">
    <path d="M 209.767956 104.148 
L 373.248303 104.148 
L 373.248303 96.228 
L 209.767956 96.228 
z
" clip-path="url(#p6b1df81e30)" style="fill: #0000ff"/>
   </g>
   <g id="patch_119">
    <path d="M 211.64704 104.148 
L 373.248303 104.148 
L 373.248303 96.228 
L 211.64704 96.228 
z
" clip-path="url(#p6b1df81e30)" style="fill: #0000ff"/>
   </g>
   <g id="patch_120">
    <path d="M 211.64704 104.148 
L 373.248303 104.148 
L 373.248303 96.228 
L 211.64704 96.228 
z
" clip-path="url(#p6b1df81e30)" style="fill: #0000ff"/>
   </g>
   <g id="patch_121">
    <path d="M 213.526125 104.148 
L 377.006472 104.148 
L 377.006472 96.228 
L 213.526125 96.228 
z
" clip-path="url(#p6b1df81e30)" style="fill: #0000ff"/>
   </g>
   <g id="patch_122">
    <path d="M 218.223836 104.148 
L 369.490134 104.148 
L 369.490134 96.228 
L 218.223836 96.228 
z
" clip-path="url(#p6b1df81e30)" style="fill: #0000ff"/>
   </g>
   <g id="patch_123">
    <path d="M 220.10292 104.148 
L 373.248303 104.148 
L 373.248303 96.228 
L 220.10292 96.228 
z
" clip-path="url(#p6b1df81e30)" style="fill: #0000ff"/>
   </g>
   <g id="patch_124">
    <path d="M 222.921547 104.148 
L 376.06693 104.148 
L 376.06693 96.228 
L 222.921547 96.228 
z
" clip-path="url(#p6b1df81e30)" style="fill: #0000ff"/>
   </g>
   <g id="patch_125">
    <path d="M 225.740174 104.148 
L 377.006472 104.148 
L 377.006472 96.228 
L 225.740174 96.228 
z
" clip-path="url(#p6b1df81e30)" style="fill: #0000ff"/>
   </g>
   <g id="patch_126">
    <path d="M 226.679716 104.148 
L 373.248303 104.148 
L 373.248303 96.228 
L 226.679716 96.228 
z
" clip-path="url(#p6b1df81e30)" style="fill: #0000ff"/>
   </g>
   <g id="patch_127">
    <path d="M 227.619258 104.148 
L 373.248303 104.148 
L 373.248303 96.228 
L 227.619258 96.228 
z
" clip-path="url(#p6b1df81e30)" style="fill: #0000ff"/>
   </g>
   <g id="patch_128">
    <path d="M 228.5588 104.148 
L 373.248303 104.148 
L 373.248303 96.228 
L 228.5588 96.228 
z
" clip-path="url(#p6b1df81e30)" style="fill: #0000ff"/>
   </g>
   <g id="patch_129">
    <path d="M 230.437885 104.148 
L 377.006472 104.148 
L 377.006472 96.228 
L 230.437885 96.228 
z
" clip-path="url(#p6b1df81e30)" style="fill: #0000ff"/>
   </g>
   <g id="patch_130">
    <path d="M 231.377427 104.148 
L 373.248303 104.148 
L 373.248303 96.228 
L 231.377427 96.228 
z
" clip-path="url(#p6b1df81e30)" style="fill: #0000ff"/>
   </g>
   <g id="patch_131">
    <path d="M 232.316969 104.148 
L 377.006472 104.148 
L 377.006472 96.228 
L 232.316969 96.228 
z
" clip-path="url(#p6b1df81e30)" style="fill: #0000ff"/>
   </g>
   <g id="patch_132">
    <path d="M 258.624152 104.148 
L 349.759747 104.148 
L 349.759747 96.228 
L 258.624152 96.228 
z
" clip-path="url(#p6b1df81e30)" style="fill: #0000ff"/>
   </g>
   <g id="patch_133">
    <path d="M 384.52281 100.485 
L 398.615943 100.485 
L 398.615943 99.891 
L 384.52281 99.891 
z
" clip-path="url(#p6b1df81e30)" style="fill: #0000ff"/>
   </g>
   <g id="patch_134">
    <path d="M 144 80.685 
L 154.334964 80.685 
L 154.334964 80.091 
L 144 80.091 
z
" clip-path="url(#p6b1df81e30)" style="fill: #0000ff"/>
   </g>
   <g id="patch_135">
    <path d="M 155.274507 84.348 
L 309.359432 84.348 
L 309.359432 76.428 
L 155.274507 76.428 
z
" clip-path="url(#p6b1df81e30)" style="fill: #0000ff"/>
   </g>
   <g id="patch_136">
    <path d="M 247.349645 84.348 
L 439.955801 84.348 
L 439.955801 76.428 
L 247.349645 76.428 
z
" clip-path="url(#p6b1df81e30)" style="fill: #0000ff"/>
   </g>
   <g id="patch_137">
    <path d="M 314.996685 84.348 
L 652.292344 84.348 
L 652.292344 76.428 
L 314.996685 76.428 
z
" clip-path="url(#p6b1df81e30)" style="fill: #0000ff"/>
   </g>
   <g id="patch_138">
    <path d="M 327.210734 84.348 
L 439.955801 84.348 
L 439.955801 76.428 
L 327.210734 76.428 
z
" clip-path="url(#p6b1df81e30)" style="fill: #0000ff"/>
   </g>
   <g id="patch_139">
    <path d="M 349.759747 84.348 
L 427.741752 84.348 
L 427.741752 76.428 
L 349.759747 76.428 
z
" clip-path="url(#p6b1df81e30)" style="fill: #0000ff"/>
   </g>
   <g id="patch_140">
    <path d="M 352.578374 84.348 
L 432.439463 84.348 
L 432.439463 76.428 
L 352.578374 76.428 
z
" clip-path="url(#p6b1df81e30)" style="fill: #0000ff"/>
   </g>
   <g id="patch_141">
    <path d="M 352.578374 84.348 
L 437.137174 84.348 
L 437.137174 76.428 
L 352.578374 76.428 
z
" clip-path="url(#p6b1df81e30)" style="fill: #0000ff"/>
   </g>
   <g id="patch_142">
    <path d="M 353.517916 84.348 
L 637.259669 84.348 
L 637.259669 76.428 
L 353.517916 76.428 
z
" clip-path="url(#p6b1df81e30)" style="fill: #0000ff"/>
   </g>
   <g id="patch_143">
    <path d="M 353.517916 84.348 
L 663.566851 84.348 
L 663.566851 76.428 
L 353.517916 76.428 
z
" clip-path="url(#p6b1df81e30)" style="fill: #0000ff"/>
   </g>
   <g id="patch_144">
    <path d="M 353.517916 84.348 
L 656.990055 84.348 
L 656.990055 76.428 
L 353.517916 76.428 
z
" clip-path="url(#p6b1df81e30)" style="fill: #0000ff"/>
   </g>
   <g id="patch_145">
    <path d="M 357.276085 84.348 
L 747.186109 84.348 
L 747.186109 76.428 
L 357.276085 76.428 
z
" clip-path="url(#p6b1df81e30)" style="fill: #0000ff"/>
   </g>
   <g id="patch_146">
    <path d="M 357.276085 84.348 
L 647.594633 84.348 
L 647.594633 76.428 
L 357.276085 76.428 
z
" clip-path="url(#p6b1df81e30)" style="fill: #0000ff"/>
   </g>
   <g id="patch_147">
    <path d="M 360.094712 84.348 
L 646.655091 84.348 
L 646.655091 76.428 
L 360.094712 76.428 
z
" clip-path="url(#p6b1df81e30)" style="fill: #0000ff"/>
   </g>
   <g id="patch_148">
    <path d="M 399.555485 84.348 
L 438.076717 84.348 
L 438.076717 76.428 
L 399.555485 76.428 
z
" clip-path="url(#p6b1df81e30)" style="fill: #0000ff"/>
   </g>
   <g id="patch_149">
    <path d="M 422.104499 84.348 
L 657.929597 84.348 
L 657.929597 76.428 
L 422.104499 76.428 
z
" clip-path="url(#p6b1df81e30)" style="fill: #0000ff"/>
   </g>
   <g id="patch_150">
    <path d="M 432.439463 84.348 
L 738.730229 84.348 
L 738.730229 76.428 
L 432.439463 76.428 
z
" clip-path="url(#p6b1df81e30)" style="fill: #0000ff"/>
   </g>
   <g id="patch_151">
    <path d="M 432.439463 84.348 
L 652.292344 84.348 
L 652.292344 76.428 
L 432.439463 76.428 
z
" clip-path="url(#p6b1df81e30)" style="fill: #0000ff"/>
   </g>
   <g id="patch_152">
    <path d="M 434.318548 84.348 
L 654.171429 84.348 
L 654.171429 76.428 
L 434.318548 76.428 
z
" clip-path="url(#p6b1df81e30)" style="fill: #0000ff"/>
   </g>
   <g id="patch_153">
    <path d="M 436.197632 84.348 
L 664.506393 84.348 
L 664.506393 76.428 
L 436.197632 76.428 
z
" clip-path="url(#p6b1df81e30)" style="fill: #0000ff"/>
   </g>
   <g id="patch_154">
    <path d="M 437.137174 84.348 
L 734.032518 84.348 
L 734.032518 76.428 
L 437.137174 76.428 
z
" clip-path="url(#p6b1df81e30)" style="fill: #0000ff"/>
   </g>
   <g id="patch_155">
    <path d="M 438.076717 84.348 
L 659.808682 84.348 
L 659.808682 76.428 
L 438.076717 76.428 
z
" clip-path="url(#p6b1df81e30)" style="fill: #0000ff"/>
   </g>
   <g id="patch_156">
    <path d="M 438.076717 84.348 
L 661.687766 84.348 
L 661.687766 76.428 
L 438.076717 76.428 
z
" clip-path="url(#p6b1df81e30)" style="fill: #0000ff"/>
   </g>
   <g id="patch_157">
    <path d="M 438.076717 84.348 
L 652.292344 84.348 
L 652.292344 76.428 
L 438.076717 76.428 
z
" clip-path="url(#p6b1df81e30)" style="fill: #0000ff"/>
   </g>
   <g id="patch_158">
    <path d="M 438.076717 84.348 
L 652.292344 84.348 
L 652.292344 76.428 
L 438.076717 76.428 
z
" clip-path="url(#p6b1df81e30)" style="fill: #0000ff"/>
   </g>
   <g id="patch_159">
    <path d="M 441.834886 84.348 
L 503.844672 84.348 
L 503.844672 76.428 
L 441.834886 76.428 
z
" clip-path="url(#p6b1df81e30)" style="fill: #0000ff"/>
   </g>
   <g id="patch_160">
    <path d="M 441.834886 84.348 
L 675.7809 84.348 
L 675.7809 76.428 
L 441.834886 76.428 
z
" clip-path="url(#p6b1df81e30)" style="fill: #0000ff"/>
   </g>
   <g id="patch_161">
    <path d="M 441.834886 84.348 
L 679.539069 84.348 
L 679.539069 76.428 
L 441.834886 76.428 
z
" clip-path="url(#p6b1df81e30)" style="fill: #0000ff"/>
   </g>
   <g id="patch_162">
    <path d="M 441.834886 84.348 
L 736.851144 84.348 
L 736.851144 76.428 
L 441.834886 76.428 
z
" clip-path="url(#p6b1df81e30)" style="fill: #0000ff"/>
   </g>
   <g id="patch_163">
    <path d="M 442.774428 84.348 
L 652.292344 84.348 
L 652.292344 76.428 
L 442.774428 76.428 
z
" clip-path="url(#p6b1df81e30)" style="fill: #0000ff"/>
   </g>
   <g id="patch_164">
    <path d="M 444.653512 84.348 
L 507.602841 84.348 
L 507.602841 76.428 
L 444.653512 76.428 
z
" clip-path="url(#p6b1df81e30)" style="fill: #0000ff"/>
   </g>
   <g id="patch_165">
    <path d="M 444.653512 84.348 
L 652.292344 84.348 
L 652.292344 76.428 
L 444.653512 76.428 
z
" clip-path="url(#p6b1df81e30)" style="fill: #0000ff"/>
   </g>
   <g id="patch_166">
    <path d="M 444.653512 84.348 
L 660.748224 84.348 
L 660.748224 76.428 
L 444.653512 76.428 
z
" clip-path="url(#p6b1df81e30)" style="fill: #0000ff"/>
   </g>
   <g id="patch_167">
    <path d="M 444.653512 84.348 
L 507.602841 84.348 
L 507.602841 76.428 
L 444.653512 76.428 
z
" clip-path="url(#p6b1df81e30)" style="fill: #0000ff"/>
   </g>
   <g id="patch_168">
    <path d="M 446.532597 84.348 
L 654.171429 84.348 
L 654.171429 76.428 
L 446.532597 76.428 
z
" clip-path="url(#p6b1df81e30)" style="fill: #0000ff"/>
   </g>
   <g id="patch_169">
    <path d="M 446.532597 84.348 
L 657.929597 84.348 
L 657.929597 76.428 
L 446.532597 76.428 
z
" clip-path="url(#p6b1df81e30)" style="fill: #0000ff"/>
   </g>
   <g id="patch_170">
    <path d="M 446.532597 84.348 
L 637.259669 84.348 
L 637.259669 76.428 
L 446.532597 76.428 
z
" clip-path="url(#p6b1df81e30)" style="fill: #0000ff"/>
   </g>
   <g id="patch_171">
    <path d="M 446.532597 84.348 
L 652.292344 84.348 
L 652.292344 76.428 
L 446.532597 76.428 
z
" clip-path="url(#p6b1df81e30)" style="fill: #0000ff"/>
   </g>
   <g id="patch_172">
    <path d="M 447.472139 84.348 
L 652.292344 84.348 
L 652.292344 76.428 
L 447.472139 76.428 
z
" clip-path="url(#p6b1df81e30)" style="fill: #0000ff"/>
   </g>
   <g id="patch_173">
    <path d="M 447.472139 84.348 
L 635.380584 84.348 
L 635.380584 76.428 
L 447.472139 76.428 
z
" clip-path="url(#p6b1df81e30)" style="fill: #0000ff"/>
   </g>
   <g id="patch_174">
    <path d="M 447.472139 84.348 
L 640.078295 84.348 
L 640.078295 76.428 
L 447.472139 76.428 
z
" clip-path="url(#p6b1df81e30)" style="fill: #0000ff"/>
   </g>
   <g id="patch_175">
    <path d="M 448.411681 84.348 
L 637.259669 84.348 
L 637.259669 76.428 
L 448.411681 76.428 
z
" clip-path="url(#p6b1df81e30)" style="fill: #0000ff"/>
   </g>
   <g id="patch_176">
    <path d="M 448.411681 84.348 
L 644.776006 84.348 
L 644.776006 76.428 
L 448.411681 76.428 
z
" clip-path="url(#p6b1df81e30)" style="fill: #0000ff"/>
   </g>
   <g id="patch_177">
    <path d="M 451.230308 84.348 
L 653.231886 84.348 
L 653.231886 76.428 
L 451.230308 76.428 
z
" clip-path="url(#p6b1df81e30)" style="fill: #0000ff"/>
   </g>
   <g id="patch_178">
    <path d="M 451.230308 84.348 
L 637.259669 84.348 
L 637.259669 76.428 
L 451.230308 76.428 
z
" clip-path="url(#p6b1df81e30)" style="fill: #0000ff"/>
   </g>
   <g id="patch_179">
    <path d="M 451.230308 84.348 
L 659.808682 84.348 
L 659.808682 76.428 
L 451.230308 76.428 
z
" clip-path="url(#p6b1df81e30)" style="fill: #0000ff"/>
   </g>
   <g id="patch_180">
    <path d="M 495.388792 84.348 
L 682.357695 84.348 
L 682.357695 76.428 
L 495.388792 76.428 
z
" clip-path="url(#p6b1df81e30)" style="fill: #0000ff"/>
   </g>
   <g id="patch_181">
    <path d="M 530.151855 84.348 
L 652.292344 84.348 
L 652.292344 76.428 
L 530.151855 76.428 
z
" clip-path="url(#p6b1df81e30)" style="fill: #0000ff"/>
   </g>
   <g id="patch_182">
    <path d="M 533.910024 84.348 
L 658.86914 84.348 
L 658.86914 76.428 
L 533.910024 76.428 
z
" clip-path="url(#p6b1df81e30)" style="fill: #0000ff"/>
   </g>
   <g id="patch_183">
    <path d="M 534.849566 84.348 
L 652.292344 84.348 
L 652.292344 76.428 
L 534.849566 76.428 
z
" clip-path="url(#p6b1df81e30)" style="fill: #0000ff"/>
   </g>
   <g id="patch_184">
    <path d="M 535.789108 84.348 
L 644.776006 84.348 
L 644.776006 76.428 
L 535.789108 76.428 
z
" clip-path="url(#p6b1df81e30)" style="fill: #0000ff"/>
   </g>
   <g id="patch_185">
    <path d="M 545.18453 84.348 
L 640.078295 84.348 
L 640.078295 76.428 
L 545.18453 76.428 
z
" clip-path="url(#p6b1df81e30)" style="fill: #0000ff"/>
   </g>
   <g id="patch_186">
    <path d="M 549.882242 84.348 
L 651.352802 84.348 
L 651.352802 76.428 
L 549.882242 76.428 
z
" clip-path="url(#p6b1df81e30)" style="fill: #0000ff"/>
   </g>
   <g id="patch_187">
    <path d="M 550.821784 84.348 
L 652.292344 84.348 
L 652.292344 76.428 
L 550.821784 76.428 
z
" clip-path="url(#p6b1df81e30)" style="fill: #0000ff"/>
   </g>
   <g id="patch_188">
    <path d="M 550.821784 84.348 
L 655.110971 84.348 
L 655.110971 76.428 
L 550.821784 76.428 
z
" clip-path="url(#p6b1df81e30)" style="fill: #0000ff"/>
   </g>
   <g id="patch_189">
    <path d="M 551.761326 84.348 
L 656.050513 84.348 
L 656.050513 76.428 
L 551.761326 76.428 
z
" clip-path="url(#p6b1df81e30)" style="fill: #0000ff"/>
   </g>
   <g id="patch_190">
    <path d="M 551.761326 84.348 
L 782.888713 84.348 
L 782.888713 76.428 
L 551.761326 76.428 
z
" clip-path="url(#p6b1df81e30)" style="fill: #0000ff"/>
   </g>
   <g id="patch_191">
    <path d="M 551.761326 84.348 
L 652.292344 84.348 
L 652.292344 76.428 
L 551.761326 76.428 
z
" clip-path="url(#p6b1df81e30)" style="fill: #0000ff"/>
   </g>
   <g id="patch_192">
    <path d="M 551.761326 84.348 
L 637.259669 84.348 
L 637.259669 76.428 
L 551.761326 76.428 
z
" clip-path="url(#p6b1df81e30)" style="fill: #0000ff"/>
   </g>
   <g id="patch_193">
    <path d="M 551.761326 84.348 
L 644.776006 84.348 
L 644.776006 76.428 
L 551.761326 76.428 
z
" clip-path="url(#p6b1df81e30)" style="fill: #0000ff"/>
   </g>
   <g id="patch_194">
    <path d="M 551.761326 84.348 
L 637.259669 84.348 
L 637.259669 76.428 
L 551.761326 76.428 
z
" clip-path="url(#p6b1df81e30)" style="fill: #0000ff"/>
   </g>
   <g id="patch_195">
    <path d="M 551.761326 84.348 
L 652.292344 84.348 
L 652.292344 76.428 
L 551.761326 76.428 
z
" clip-path="url(#p6b1df81e30)" style="fill: #0000ff"/>
   </g>
   <g id="patch_196">
    <path d="M 551.761326 84.348 
L 644.776006 84.348 
L 644.776006 76.428 
L 551.761326 76.428 
z
" clip-path="url(#p6b1df81e30)" style="fill: #0000ff"/>
   </g>
   <g id="patch_197">
    <path d="M 551.761326 84.348 
L 645.715549 84.348 
L 645.715549 76.428 
L 551.761326 76.428 
z
" clip-path="url(#p6b1df81e30)" style="fill: #0000ff"/>
   </g>
   <g id="patch_198">
    <path d="M 552.700868 84.348 
L 652.292344 84.348 
L 652.292344 76.428 
L 552.700868 76.428 
z
" clip-path="url(#p6b1df81e30)" style="fill: #0000ff"/>
   </g>
   <g id="patch_199">
    <path d="M 555.519495 84.348 
L 651.352802 84.348 
L 651.352802 76.428 
L 555.519495 76.428 
z
" clip-path="url(#p6b1df81e30)" style="fill: #0000ff"/>
   </g>
   <g id="patch_200">
    <path d="M 555.519495 84.348 
L 652.292344 84.348 
L 652.292344 76.428 
L 555.519495 76.428 
z
" clip-path="url(#p6b1df81e30)" style="fill: #0000ff"/>
   </g>
   <g id="patch_201">
    <path d="M 555.519495 84.348 
L 653.231886 84.348 
L 653.231886 76.428 
L 555.519495 76.428 
z
" clip-path="url(#p6b1df81e30)" style="fill: #0000ff"/>
   </g>
   <g id="patch_202">
    <path d="M 556.459037 84.348 
L 652.292344 84.348 
L 652.292344 76.428 
L 556.459037 76.428 
z
" clip-path="url(#p6b1df81e30)" style="fill: #0000ff"/>
   </g>
   <g id="patch_203">
    <path d="M 556.459037 84.348 
L 653.231886 84.348 
L 653.231886 76.428 
L 556.459037 76.428 
z
" clip-path="url(#p6b1df81e30)" style="fill: #0000ff"/>
   </g>
   <g id="patch_204">
    <path d="M 556.459037 84.348 
L 652.292344 84.348 
L 652.292344 76.428 
L 556.459037 76.428 
z
" clip-path="url(#p6b1df81e30)" style="fill: #0000ff"/>
   </g>
   <g id="patch_205">
    <path d="M 557.398579 84.348 
L 652.292344 84.348 
L 652.292344 76.428 
L 557.398579 76.428 
z
" clip-path="url(#p6b1df81e30)" style="fill: #0000ff"/>
   </g>
   <g id="patch_206">
    <path d="M 557.398579 84.348 
L 652.292344 84.348 
L 652.292344 76.428 
L 557.398579 76.428 
z
" clip-path="url(#p6b1df81e30)" style="fill: #0000ff"/>
   </g>
   <g id="patch_207">
    <path d="M 557.398579 84.348 
L 652.292344 84.348 
L 652.292344 76.428 
L 557.398579 76.428 
z
" clip-path="url(#p6b1df81e30)" style="fill: #0000ff"/>
   </g>
   <g id="patch_208">
    <path d="M 557.398579 84.348 
L 644.776006 84.348 
L 644.776006 76.428 
L 557.398579 76.428 
z
" clip-path="url(#p6b1df81e30)" style="fill: #0000ff"/>
   </g>
   <g id="patch_209">
    <path d="M 557.398579 84.348 
L 652.292344 84.348 
L 652.292344 76.428 
L 557.398579 76.428 
z
" clip-path="url(#p6b1df81e30)" style="fill: #0000ff"/>
   </g>
   <g id="patch_210">
    <path d="M 557.398579 84.348 
L 651.352802 84.348 
L 651.352802 76.428 
L 557.398579 76.428 
z
" clip-path="url(#p6b1df81e30)" style="fill: #0000ff"/>
   </g>
   <g id="patch_211">
    <path d="M 558.338122 84.348 
L 635.380584 84.348 
L 635.380584 76.428 
L 558.338122 76.428 
z
" clip-path="url(#p6b1df81e30)" style="fill: #0000ff"/>
   </g>
   <g id="patch_212">
    <path d="M 558.338122 84.348 
L 652.292344 84.348 
L 652.292344 76.428 
L 558.338122 76.428 
z
" clip-path="url(#p6b1df81e30)" style="fill: #0000ff"/>
   </g>
   <g id="patch_213">
    <path d="M 558.338122 84.348 
L 652.292344 84.348 
L 652.292344 76.428 
L 558.338122 76.428 
z
" clip-path="url(#p6b1df81e30)" style="fill: #0000ff"/>
   </g>
   <g id="patch_214">
    <path d="M 558.338122 84.348 
L 652.292344 84.348 
L 652.292344 76.428 
L 558.338122 76.428 
z
" clip-path="url(#p6b1df81e30)" style="fill: #0000ff"/>
   </g>
   <g id="patch_215">
    <path d="M 562.09629 84.348 
L 658.86914 84.348 
L 658.86914 76.428 
L 562.09629 76.428 
z
" clip-path="url(#p6b1df81e30)" style="fill: #0000ff"/>
   </g>
   <g id="patch_216">
    <path d="M 563.035833 84.348 
L 652.292344 84.348 
L 652.292344 76.428 
L 563.035833 76.428 
z
" clip-path="url(#p6b1df81e30)" style="fill: #0000ff"/>
   </g>
   <g id="patch_217">
    <path d="M 616.58974 84.348 
L 843.019416 84.348 
L 843.019416 76.428 
L 616.58974 76.428 
z
" clip-path="url(#p6b1df81e30)" style="fill: #0000ff"/>
   </g>
   <g id="patch_218">
    <path d="M 671.083189 84.348 
L 770.674665 84.348 
L 770.674665 76.428 
L 671.083189 76.428 
z
" clip-path="url(#p6b1df81e30)" style="fill: #0000ff"/>
   </g>
   <g id="patch_219">
    <path d="M 673.901815 84.348 
L 770.674665 84.348 
L 770.674665 76.428 
L 673.901815 76.428 
z
" clip-path="url(#p6b1df81e30)" style="fill: #0000ff"/>
   </g>
   <g id="patch_220">
    <path d="M 673.901815 84.348 
L 781.949171 84.348 
L 781.949171 76.428 
L 673.901815 76.428 
z
" clip-path="url(#p6b1df81e30)" style="fill: #0000ff"/>
   </g>
   <g id="patch_221">
    <path d="M 673.901815 84.348 
L 754.702447 84.348 
L 754.702447 76.428 
L 673.901815 76.428 
z
" clip-path="url(#p6b1df81e30)" style="fill: #0000ff"/>
   </g>
   <g id="patch_222">
    <path d="M 673.901815 84.348 
L 750.944278 84.348 
L 750.944278 76.428 
L 673.901815 76.428 
z
" clip-path="url(#p6b1df81e30)" style="fill: #0000ff"/>
   </g>
   <g id="patch_223">
    <path d="M 673.901815 84.348 
L 738.730229 84.348 
L 738.730229 76.428 
L 673.901815 76.428 
z
" clip-path="url(#p6b1df81e30)" style="fill: #0000ff"/>
   </g>
   <g id="patch_224">
    <path d="M 673.901815 84.348 
L 759.400158 84.348 
L 759.400158 76.428 
L 673.901815 76.428 
z
" clip-path="url(#p6b1df81e30)" style="fill: #0000ff"/>
   </g>
   <g id="patch_225">
    <path d="M 673.901815 84.348 
L 770.674665 84.348 
L 770.674665 76.428 
L 673.901815 76.428 
z
" clip-path="url(#p6b1df81e30)" style="fill: #0000ff"/>
   </g>
   <g id="patch_226">
    <path d="M 674.841358 84.348 
L 770.674665 84.348 
L 770.674665 76.428 
L 674.841358 76.428 
z
" clip-path="url(#p6b1df81e30)" style="fill: #0000ff"/>
   </g>
   <g id="patch_227">
    <path d="M 674.841358 84.348 
L 775.372376 84.348 
L 775.372376 76.428 
L 674.841358 76.428 
z
" clip-path="url(#p6b1df81e30)" style="fill: #0000ff"/>
   </g>
   <g id="patch_228">
    <path d="M 674.841358 84.348 
L 781.949171 84.348 
L 781.949171 76.428 
L 674.841358 76.428 
z
" clip-path="url(#p6b1df81e30)" style="fill: #0000ff"/>
   </g>
   <g id="patch_229">
    <path d="M 674.841358 84.348 
L 770.674665 84.348 
L 770.674665 76.428 
L 674.841358 76.428 
z
" clip-path="url(#p6b1df81e30)" style="fill: #0000ff"/>
   </g>
   <g id="patch_230">
    <path d="M 674.841358 84.348 
L 770.674665 84.348 
L 770.674665 76.428 
L 674.841358 76.428 
z
" clip-path="url(#p6b1df81e30)" style="fill: #0000ff"/>
   </g>
   <g id="patch_231">
    <path d="M 674.841358 84.348 
L 756.581531 84.348 
L 756.581531 76.428 
L 674.841358 76.428 
z
" clip-path="url(#p6b1df81e30)" style="fill: #0000ff"/>
   </g>
   <g id="patch_232">
    <path d="M 674.841358 84.348 
L 772.553749 84.348 
L 772.553749 76.428 
L 674.841358 76.428 
z
" clip-path="url(#p6b1df81e30)" style="fill: #0000ff"/>
   </g>
   <g id="patch_233">
    <path d="M 674.841358 84.348 
L 782.888713 84.348 
L 782.888713 76.428 
L 674.841358 76.428 
z
" clip-path="url(#p6b1df81e30)" style="fill: #0000ff"/>
   </g>
   <g id="patch_234">
    <path d="M 674.841358 84.348 
L 770.674665 84.348 
L 770.674665 76.428 
L 674.841358 76.428 
z
" clip-path="url(#p6b1df81e30)" style="fill: #0000ff"/>
   </g>
   <g id="patch_235">
    <path d="M 675.7809 84.348 
L 775.372376 84.348 
L 775.372376 76.428 
L 675.7809 76.428 
z
" clip-path="url(#p6b1df81e30)" style="fill: #0000ff"/>
   </g>
   <g id="patch_236">
    <path d="M 675.7809 84.348 
L 770.674665 84.348 
L 770.674665 76.428 
L 675.7809 76.428 
z
" clip-path="url(#p6b1df81e30)" style="fill: #0000ff"/>
   </g>
   <g id="patch_237">
    <path d="M 675.7809 84.348 
L 770.674665 84.348 
L 770.674665 76.428 
L 675.7809 76.428 
z
" clip-path="url(#p6b1df81e30)" style="fill: #0000ff"/>
   </g>
   <g id="patch_238">
    <path d="M 675.7809 84.348 
L 770.674665 84.348 
L 770.674665 76.428 
L 675.7809 76.428 
z
" clip-path="url(#p6b1df81e30)" style="fill: #0000ff"/>
   </g>
   <g id="patch_239">
    <path d="M 675.7809 84.348 
L 770.674665 84.348 
L 770.674665 76.428 
L 675.7809 76.428 
z
" clip-path="url(#p6b1df81e30)" style="fill: #0000ff"/>
   </g>
   <g id="patch_240">
    <path d="M 675.7809 84.348 
L 770.674665 84.348 
L 770.674665 76.428 
L 675.7809 76.428 
z
" clip-path="url(#p6b1df81e30)" style="fill: #0000ff"/>
   </g>
   <g id="patch_241">
    <path d="M 675.7809 84.348 
L 770.674665 84.348 
L 770.674665 76.428 
L 675.7809 76.428 
z
" clip-path="url(#p6b1df81e30)" style="fill: #0000ff"/>
   </g>
   <g id="patch_242">
    <path d="M 675.7809 84.348 
L 770.674665 84.348 
L 770.674665 76.428 
L 675.7809 76.428 
z
" clip-path="url(#p6b1df81e30)" style="fill: #0000ff"/>
   </g>
   <g id="patch_243">
    <path d="M 675.7809 84.348 
L 770.674665 84.348 
L 770.674665 76.428 
L 675.7809 76.428 
z
" clip-path="url(#p6b1df81e30)" style="fill: #0000ff"/>
   </g>
   <g id="patch_244">
    <path d="M 675.7809 84.348 
L 775.372376 84.348 
L 775.372376 76.428 
L 675.7809 76.428 
z
" clip-path="url(#p6b1df81e30)" style="fill: #0000ff"/>
   </g>
   <g id="patch_245">
    <path d="M 675.7809 84.348 
L 770.674665 84.348 
L 770.674665 76.428 
L 675.7809 76.428 
z
" clip-path="url(#p6b1df81e30)" style="fill: #0000ff"/>
   </g>
   <g id="patch_246">
    <path d="M 675.7809 84.348 
L 781.949171 84.348 
L 781.949171 76.428 
L 675.7809 76.428 
z
" clip-path="url(#p6b1df81e30)" style="fill: #0000ff"/>
   </g>
   <g id="patch_247">
    <path d="M 675.7809 84.348 
L 750.004736 84.348 
L 750.004736 76.428 
L 675.7809 76.428 
z
" clip-path="url(#p6b1df81e30)" style="fill: #0000ff"/>
   </g>
   <g id="patch_248">
    <path d="M 675.7809 84.348 
L 750.944278 84.348 
L 750.944278 76.428 
L 675.7809 76.428 
z
" clip-path="url(#p6b1df81e30)" style="fill: #0000ff"/>
   </g>
   <g id="patch_249">
    <path d="M 675.7809 84.348 
L 750.004736 84.348 
L 750.004736 76.428 
L 675.7809 76.428 
z
" clip-path="url(#p6b1df81e30)" style="fill: #0000ff"/>
   </g>
   <g id="patch_250">
    <path d="M 675.7809 84.348 
L 750.004736 84.348 
L 750.004736 76.428 
L 675.7809 76.428 
z
" clip-path="url(#p6b1df81e30)" style="fill: #0000ff"/>
   </g>
   <g id="patch_251">
    <path d="M 675.7809 84.348 
L 782.888713 84.348 
L 782.888713 76.428 
L 675.7809 76.428 
z
" clip-path="url(#p6b1df81e30)" style="fill: #0000ff"/>
   </g>
   <g id="patch_252">
    <path d="M 676.720442 84.348 
L 770.674665 84.348 
L 770.674665 76.428 
L 676.720442 76.428 
z
" clip-path="url(#p6b1df81e30)" style="fill: #0000ff"/>
   </g>
   <g id="patch_253">
    <path d="M 676.720442 84.348 
L 770.674665 84.348 
L 770.674665 76.428 
L 676.720442 76.428 
z
" clip-path="url(#p6b1df81e30)" style="fill: #0000ff"/>
   </g>
   <g id="patch_254">
    <path d="M 676.720442 84.348 
L 770.674665 84.348 
L 770.674665 76.428 
L 676.720442 76.428 
z
" clip-path="url(#p6b1df81e30)" style="fill: #0000ff"/>
   </g>
   <g id="patch_255">
    <path d="M 676.720442 84.348 
L 770.674665 84.348 
L 770.674665 76.428 
L 676.720442 76.428 
z
" clip-path="url(#p6b1df81e30)" style="fill: #0000ff"/>
   </g>
   <g id="patch_256">
    <path d="M 720.878927 84.348 
L 812.954065 84.348 
L 812.954065 76.428 
L 720.878927 76.428 
z
" clip-path="url(#p6b1df81e30)" style="fill: #0000ff"/>
   </g>
   <g id="patch_257">
    <path d="M 790.405051 84.348 
L 862.749803 84.348 
L 862.749803 76.428 
L 790.405051 76.428 
z
" clip-path="url(#p6b1df81e30)" style="fill: #0000ff"/>
   </g>
   <g id="patch_258">
    <path d="M 793.223678 84.348 
L 842.079874 84.348 
L 842.079874 76.428 
L 793.223678 76.428 
z
" clip-path="url(#p6b1df81e30)" style="fill: #0000ff"/>
   </g>
   <g id="patch_259">
    <path d="M 793.223678 84.348 
L 862.749803 84.348 
L 862.749803 76.428 
L 793.223678 76.428 
z
" clip-path="url(#p6b1df81e30)" style="fill: #0000ff"/>
   </g>
   <g id="patch_260">
    <path d="M 793.223678 84.348 
L 862.749803 84.348 
L 862.749803 76.428 
L 793.223678 76.428 
z
" clip-path="url(#p6b1df81e30)" style="fill: #0000ff"/>
   </g>
   <g id="patch_261">
    <path d="M 793.223678 84.348 
L 892.815154 84.348 
L 892.815154 76.428 
L 793.223678 76.428 
z
" clip-path="url(#p6b1df81e30)" style="fill: #0000ff"/>
   </g>
   <g id="patch_262">
    <path d="M 793.223678 84.348 
L 861.81026 84.348 
L 861.81026 76.428 
L 793.223678 76.428 
z
" clip-path="url(#p6b1df81e30)" style="fill: #0000ff"/>
   </g>
   <g id="patch_263">
    <path d="M 793.223678 84.348 
L 852.414838 84.348 
L 852.414838 76.428 
L 793.223678 76.428 
z
" clip-path="url(#p6b1df81e30)" style="fill: #0000ff"/>
   </g>
   <g id="patch_264">
    <path d="M 793.223678 84.348 
L 852.414838 84.348 
L 852.414838 76.428 
L 793.223678 76.428 
z
" clip-path="url(#p6b1df81e30)" style="fill: #0000ff"/>
   </g>
   <g id="patch_265">
    <path d="M 794.16322 84.348 
L 852.414838 84.348 
L 852.414838 76.428 
L 794.16322 76.428 
z
" clip-path="url(#p6b1df81e30)" style="fill: #0000ff"/>
   </g>
   <g id="patch_266">
    <path d="M 794.16322 84.348 
L 862.749803 84.348 
L 862.749803 76.428 
L 794.16322 76.428 
z
" clip-path="url(#p6b1df81e30)" style="fill: #0000ff"/>
   </g>
   <g id="patch_267">
    <path d="M 794.16322 84.348 
L 871.205683 84.348 
L 871.205683 76.428 
L 794.16322 76.428 
z
" clip-path="url(#p6b1df81e30)" style="fill: #0000ff"/>
   </g>
   <g id="patch_268">
    <path d="M 794.16322 84.348 
L 843.958958 84.348 
L 843.958958 76.428 
L 794.16322 76.428 
z
" clip-path="url(#p6b1df81e30)" style="fill: #0000ff"/>
   </g>
   <g id="patch_269">
    <path d="M 794.16322 84.348 
L 862.749803 84.348 
L 862.749803 76.428 
L 794.16322 76.428 
z
" clip-path="url(#p6b1df81e30)" style="fill: #0000ff"/>
   </g>
   <g id="patch_270">
    <path d="M 795.102762 84.348 
L 862.749803 84.348 
L 862.749803 76.428 
L 795.102762 76.428 
z
" clip-path="url(#p6b1df81e30)" style="fill: #0000ff"/>
   </g>
   <g id="patch_271">
    <path d="M 795.102762 84.348 
L 861.81026 84.348 
L 861.81026 76.428 
L 795.102762 76.428 
z
" clip-path="url(#p6b1df81e30)" style="fill: #0000ff"/>
   </g>
   <g id="patch_272">
    <path d="M 795.102762 84.348 
L 862.749803 84.348 
L 862.749803 76.428 
L 795.102762 76.428 
z
" clip-path="url(#p6b1df81e30)" style="fill: #0000ff"/>
   </g>
   <g id="patch_273">
    <path d="M 795.102762 84.348 
L 862.749803 84.348 
L 862.749803 76.428 
L 795.102762 76.428 
z
" clip-path="url(#p6b1df81e30)" style="fill: #0000ff"/>
   </g>
   <g id="patch_274">
    <path d="M 795.102762 84.348 
L 849.596212 84.348 
L 849.596212 76.428 
L 795.102762 76.428 
z
" clip-path="url(#p6b1df81e30)" style="fill: #0000ff"/>
   </g>
   <g id="patch_275">
    <path d="M 795.102762 84.348 
L 863.689345 84.348 
L 863.689345 76.428 
L 795.102762 76.428 
z
" clip-path="url(#p6b1df81e30)" style="fill: #0000ff"/>
   </g>
   <g id="patch_276">
    <path d="M 795.102762 84.348 
L 863.689345 84.348 
L 863.689345 76.428 
L 795.102762 76.428 
z
" clip-path="url(#p6b1df81e30)" style="fill: #0000ff"/>
   </g>
   <g id="patch_277">
    <path d="M 795.102762 84.348 
L 852.414838 84.348 
L 852.414838 76.428 
L 795.102762 76.428 
z
" clip-path="url(#p6b1df81e30)" style="fill: #0000ff"/>
   </g>
   <g id="patch_278">
    <path d="M 795.102762 84.348 
L 863.689345 84.348 
L 863.689345 76.428 
L 795.102762 76.428 
z
" clip-path="url(#p6b1df81e30)" style="fill: #0000ff"/>
   </g>
   <g id="patch_279">
    <path d="M 797.921389 84.348 
L 863.689345 84.348 
L 863.689345 76.428 
L 797.921389 76.428 
z
" clip-path="url(#p6b1df81e30)" style="fill: #0000ff"/>
   </g>
   <g id="patch_280">
    <path d="M 797.921389 84.348 
L 862.749803 84.348 
L 862.749803 76.428 
L 797.921389 76.428 
z
" clip-path="url(#p6b1df81e30)" style="fill: #0000ff"/>
   </g>
   <g id="patch_281">
    <path d="M 893.754696 80.685 
L 896.573323 80.685 
L 896.573323 80.091 
L 893.754696 80.091 
z
" clip-path="url(#p6b1df81e30)" style="fill: #0000ff"/>
   </g>
   <g id="patch_282">
    <path d="M 144 60.885 
L 146.818627 60.885 
L 146.818627 60.291 
L 144 60.291 
z
" clip-path="url(#p6b1df81e30)" style="fill: #0000ff"/>
   </g>
   <g id="patch_283">
    <path d="M 147.758169 64.548 
L 262.38232 64.548 
L 262.38232 56.628 
L 147.758169 56.628 
z
" clip-path="url(#p6b1df81e30)" style="fill: #0000ff"/>
   </g>
   <g id="patch_284">
    <path d="M 180.642147 64.548 
L 309.359432 64.548 
L 309.359432 56.628 
L 180.642147 56.628 
z
" clip-path="url(#p6b1df81e30)" style="fill: #0000ff"/>
   </g>
   <g id="patch_285">
    <path d="M 310.298974 60.885 
L 318.754854 60.885 
L 318.754854 60.291 
L 310.298974 60.291 
z
" clip-path="url(#p6b1df81e30)" style="fill: #0000ff"/>
   </g>
   <g id="patch_286">
    <path d="M 319.694396 64.548 
L 558.338122 64.548 
L 558.338122 56.628 
L 319.694396 56.628 
z
" clip-path="url(#p6b1df81e30)" style="fill: #0000ff"/>
   </g>
   <g id="patch_287">
    <path d="M 320.633938 64.548 
L 555.519495 64.548 
L 555.519495 56.628 
L 320.633938 56.628 
z
" clip-path="url(#p6b1df81e30)" style="fill: #0000ff"/>
   </g>
   <g id="patch_288">
    <path d="M 330.029361 64.548 
L 558.338122 64.548 
L 558.338122 56.628 
L 330.029361 56.628 
z
" clip-path="url(#p6b1df81e30)" style="fill: #0000ff"/>
   </g>
   <g id="patch_289">
    <path d="M 331.908445 64.548 
L 393.918232 64.548 
L 393.918232 56.628 
L 331.908445 56.628 
z
" clip-path="url(#p6b1df81e30)" style="fill: #0000ff"/>
   </g>
   <g id="patch_290">
    <path d="M 339.424783 64.548 
L 439.016259 64.548 
L 439.016259 56.628 
L 339.424783 56.628 
z
" clip-path="url(#p6b1df81e30)" style="fill: #0000ff"/>
   </g>
   <g id="patch_291">
    <path d="M 340.364325 64.548 
L 435.25809 64.548 
L 435.25809 56.628 
L 340.364325 56.628 
z
" clip-path="url(#p6b1df81e30)" style="fill: #0000ff"/>
   </g>
   <g id="patch_292">
    <path d="M 376.06693 64.548 
L 959.522652 64.548 
L 959.522652 56.628 
L 376.06693 56.628 
z
" clip-path="url(#p6b1df81e30)" style="fill: #0000ff"/>
   </g>
   <g id="patch_293">
    <path d="M 396.736859 64.548 
L 559.277664 64.548 
L 559.277664 56.628 
L 396.736859 56.628 
z
" clip-path="url(#p6b1df81e30)" style="fill: #0000ff"/>
   </g>
   <g id="patch_294">
    <path d="M 412.709077 64.548 
L 558.338122 64.548 
L 558.338122 56.628 
L 412.709077 56.628 
z
" clip-path="url(#p6b1df81e30)" style="fill: #0000ff"/>
   </g>
   <g id="patch_295">
    <path d="M 420.225414 64.548 
L 557.398579 64.548 
L 557.398579 56.628 
L 420.225414 56.628 
z
" clip-path="url(#p6b1df81e30)" style="fill: #0000ff"/>
   </g>
   <g id="patch_296">
    <path d="M 431.499921 64.548 
L 957.643567 64.548 
L 957.643567 56.628 
L 431.499921 56.628 
z
" clip-path="url(#p6b1df81e30)" style="fill: #0000ff"/>
   </g>
   <g id="patch_297">
    <path d="M 431.499921 64.548 
L 557.398579 64.548 
L 557.398579 56.628 
L 431.499921 56.628 
z
" clip-path="url(#p6b1df81e30)" style="fill: #0000ff"/>
   </g>
   <g id="patch_298">
    <path d="M 444.653512 64.548 
L 485.99337 64.548 
L 485.99337 56.628 
L 444.653512 56.628 
z
" clip-path="url(#p6b1df81e30)" style="fill: #0000ff"/>
   </g>
   <g id="patch_299">
    <path d="M 453.109392 64.548 
L 553.64041 64.548 
L 553.64041 56.628 
L 453.109392 56.628 
z
" clip-path="url(#p6b1df81e30)" style="fill: #0000ff"/>
   </g>
   <g id="patch_300">
    <path d="M 455.928019 64.548 
L 548.942699 64.548 
L 548.942699 56.628 
L 455.928019 56.628 
z
" clip-path="url(#p6b1df81e30)" style="fill: #0000ff"/>
   </g>
   <g id="patch_301">
    <path d="M 455.928019 64.548 
L 548.942699 64.548 
L 548.942699 56.628 
L 455.928019 56.628 
z
" clip-path="url(#p6b1df81e30)" style="fill: #0000ff"/>
   </g>
   <g id="patch_302">
    <path d="M 455.928019 64.548 
L 550.821784 64.548 
L 550.821784 56.628 
L 455.928019 56.628 
z
" clip-path="url(#p6b1df81e30)" style="fill: #0000ff"/>
   </g>
   <g id="patch_303">
    <path d="M 456.867561 64.548 
L 559.277664 64.548 
L 559.277664 56.628 
L 456.867561 56.628 
z
" clip-path="url(#p6b1df81e30)" style="fill: #0000ff"/>
   </g>
   <g id="patch_304">
    <path d="M 458.746646 64.548 
L 598.738437 64.548 
L 598.738437 56.628 
L 458.746646 56.628 
z
" clip-path="url(#p6b1df81e30)" style="fill: #0000ff"/>
   </g>
   <g id="patch_305">
    <path d="M 465.323441 64.548 
L 544.244988 64.548 
L 544.244988 56.628 
L 465.323441 56.628 
z
" clip-path="url(#p6b1df81e30)" style="fill: #0000ff"/>
   </g>
   <g id="patch_306">
    <path d="M 512.300552 64.548 
L 551.761326 64.548 
L 551.761326 56.628 
L 512.300552 56.628 
z
" clip-path="url(#p6b1df81e30)" style="fill: #0000ff"/>
   </g>
   <g id="patch_307">
    <path d="M 544.244988 64.548 
L 718.0603 64.548 
L 718.0603 56.628 
L 544.244988 56.628 
z
" clip-path="url(#p6b1df81e30)" style="fill: #0000ff"/>
   </g>
   <g id="patch_308">
    <path d="M 547.063615 64.548 
L 961.401736 64.548 
L 961.401736 56.628 
L 547.063615 56.628 
z
" clip-path="url(#p6b1df81e30)" style="fill: #0000ff"/>
   </g>
   <g id="patch_309">
    <path d="M 548.942699 64.548 
L 958.58311 64.548 
L 958.58311 56.628 
L 548.942699 56.628 
z
" clip-path="url(#p6b1df81e30)" style="fill: #0000ff"/>
   </g>
   <g id="patch_310">
    <path d="M 548.942699 64.548 
L 956.704025 64.548 
L 956.704025 56.628 
L 548.942699 56.628 
z
" clip-path="url(#p6b1df81e30)" style="fill: #0000ff"/>
   </g>
   <g id="patch_311">
    <path d="M 549.882242 64.548 
L 713.362589 64.548 
L 713.362589 56.628 
L 549.882242 56.628 
z
" clip-path="url(#p6b1df81e30)" style="fill: #0000ff"/>
   </g>
   <g id="patch_312">
    <path d="M 550.821784 64.548 
L 966.099448 64.548 
L 966.099448 56.628 
L 550.821784 56.628 
z
" clip-path="url(#p6b1df81e30)" style="fill: #0000ff"/>
   </g>
   <g id="patch_313">
    <path d="M 556.459037 64.548 
L 719.939384 64.548 
L 719.939384 56.628 
L 556.459037 56.628 
z
" clip-path="url(#p6b1df81e30)" style="fill: #0000ff"/>
   </g>
   <g id="patch_314">
    <path d="M 556.459037 64.548 
L 713.362589 64.548 
L 713.362589 56.628 
L 556.459037 56.628 
z
" clip-path="url(#p6b1df81e30)" style="fill: #0000ff"/>
   </g>
   <g id="patch_315">
    <path d="M 560.217206 64.548 
L 713.362589 64.548 
L 713.362589 56.628 
L 560.217206 56.628 
z
" clip-path="url(#p6b1df81e30)" style="fill: #0000ff"/>
   </g>
   <g id="patch_316">
    <path d="M 561.156748 64.548 
L 718.0603 64.548 
L 718.0603 56.628 
L 561.156748 56.628 
z
" clip-path="url(#p6b1df81e30)" style="fill: #0000ff"/>
   </g>
   <g id="patch_317">
    <path d="M 561.156748 64.548 
L 713.362589 64.548 
L 713.362589 56.628 
L 561.156748 56.628 
z
" clip-path="url(#p6b1df81e30)" style="fill: #0000ff"/>
   </g>
   <g id="patch_318">
    <path d="M 561.156748 64.548 
L 718.999842 64.548 
L 718.999842 56.628 
L 561.156748 56.628 
z
" clip-path="url(#p6b1df81e30)" style="fill: #0000ff"/>
   </g>
   <g id="patch_319">
    <path d="M 562.09629 64.548 
L 709.60442 64.548 
L 709.60442 56.628 
L 562.09629 56.628 
z
" clip-path="url(#p6b1df81e30)" style="fill: #0000ff"/>
   </g>
   <g id="patch_320">
    <path d="M 562.09629 64.548 
L 713.362589 64.548 
L 713.362589 56.628 
L 562.09629 56.628 
z
" clip-path="url(#p6b1df81e30)" style="fill: #0000ff"/>
   </g>
   <g id="patch_321">
    <path d="M 563.035833 64.548 
L 713.362589 64.548 
L 713.362589 56.628 
L 563.035833 56.628 
z
" clip-path="url(#p6b1df81e30)" style="fill: #0000ff"/>
   </g>
   <g id="patch_322">
    <path d="M 563.975375 64.548 
L 722.758011 64.548 
L 722.758011 56.628 
L 563.975375 56.628 
z
" clip-path="url(#p6b1df81e30)" style="fill: #0000ff"/>
   </g>
   <g id="patch_323">
    <path d="M 565.854459 64.548 
L 961.401736 64.548 
L 961.401736 56.628 
L 565.854459 56.628 
z
" clip-path="url(#p6b1df81e30)" style="fill: #0000ff"/>
   </g>
   <g id="patch_324">
    <path d="M 594.040726 64.548 
L 708.664878 64.548 
L 708.664878 56.628 
L 594.040726 56.628 
z
" clip-path="url(#p6b1df81e30)" style="fill: #0000ff"/>
   </g>
   <g id="patch_325">
    <path d="M 726.51618 64.548 
L 959.522652 64.548 
L 959.522652 56.628 
L 726.51618 56.628 
z
" clip-path="url(#p6b1df81e30)" style="fill: #0000ff"/>
   </g>
   <g id="patch_326">
    <path d="M 728.395264 64.548 
L 959.522652 64.548 
L 959.522652 56.628 
L 728.395264 56.628 
z
" clip-path="url(#p6b1df81e30)" style="fill: #0000ff"/>
   </g>
   <g id="patch_327">
    <path d="M 728.395264 64.548 
L 962.341279 64.548 
L 962.341279 56.628 
L 728.395264 56.628 
z
" clip-path="url(#p6b1df81e30)" style="fill: #0000ff"/>
   </g>
   <g id="patch_328">
    <path d="M 732.153433 64.548 
L 958.58311 64.548 
L 958.58311 56.628 
L 732.153433 56.628 
z
" clip-path="url(#p6b1df81e30)" style="fill: #0000ff"/>
   </g>
   <g id="patch_329">
    <path d="M 732.153433 64.548 
L 953.885399 64.548 
L 953.885399 56.628 
L 732.153433 56.628 
z
" clip-path="url(#p6b1df81e30)" style="fill: #0000ff"/>
   </g>
   <g id="patch_330">
    <path d="M 734.032518 64.548 
L 958.58311 64.548 
L 958.58311 56.628 
L 734.032518 56.628 
z
" clip-path="url(#p6b1df81e30)" style="fill: #0000ff"/>
   </g>
   <g id="patch_331">
    <path d="M 746.246567 64.548 
L 965.159905 64.548 
L 965.159905 56.628 
L 746.246567 56.628 
z
" clip-path="url(#p6b1df81e30)" style="fill: #0000ff"/>
   </g>
   <g id="patch_332">
    <path d="M 857.112549 64.548 
L 953.885399 64.548 
L 953.885399 56.628 
L 857.112549 56.628 
z
" clip-path="url(#p6b1df81e30)" style="fill: #0000ff"/>
   </g>
   <g id="patch_333">
    <path d="M 967.03899 60.885 
L 967.978532 60.885 
L 967.978532 60.291 
L 967.03899 60.291 
z
" clip-path="url(#p6b1df81e30)" style="fill: #0000ff"/>
   </g>
   <g id="patch_334">
    <path d="M 144 41.085 
L 423.044041 41.085 
L 423.044041 40.491 
L 144 40.491 
z
" clip-path="url(#p6b1df81e30)" style="fill: #0000ff"/>
   </g>
   <g id="patch_335">
    <path d="M 423.983583 44.748 
L 598.738437 44.748 
L 598.738437 36.828 
L 423.983583 36.828 
z
" clip-path="url(#p6b1df81e30)" style="fill: #0000ff"/>
   </g>
   <g id="patch_336">
    <path d="M 430.560379 44.748 
L 598.738437 44.748 
L 598.738437 36.828 
L 430.560379 36.828 
z
" clip-path="url(#p6b1df81e30)" style="fill: #0000ff"/>
   </g>
   <g id="patch_337">
    <path d="M 430.560379 44.748 
L 596.859353 44.748 
L 596.859353 36.828 
L 430.560379 36.828 
z
" clip-path="url(#p6b1df81e30)" style="fill: #0000ff"/>
   </g>
   <g id="patch_338">
    <path d="M 438.076717 44.748 
L 600.617522 44.748 
L 600.617522 36.828 
L 438.076717 36.828 
z
" clip-path="url(#p6b1df81e30)" style="fill: #0000ff"/>
   </g>
   <g id="patch_339">
    <path d="M 439.016259 44.748 
L 853.35438 44.748 
L 853.35438 36.828 
L 439.016259 36.828 
z
" clip-path="url(#p6b1df81e30)" style="fill: #0000ff"/>
   </g>
   <g id="patch_340">
    <path d="M 439.955801 44.748 
L 865.568429 44.748 
L 865.568429 36.828 
L 439.955801 36.828 
z
" clip-path="url(#p6b1df81e30)" style="fill: #0000ff"/>
   </g>
   <g id="patch_341">
    <path d="M 440.895343 44.748 
L 606.254775 44.748 
L 606.254775 36.828 
L 440.895343 36.828 
z
" clip-path="url(#p6b1df81e30)" style="fill: #0000ff"/>
   </g>
   <g id="patch_342">
    <path d="M 440.895343 44.748 
L 860.870718 44.748 
L 860.870718 36.828 
L 440.895343 36.828 
z
" clip-path="url(#p6b1df81e30)" style="fill: #0000ff"/>
   </g>
   <g id="patch_343">
    <path d="M 445.593054 44.748 
L 598.738437 44.748 
L 598.738437 36.828 
L 445.593054 36.828 
z
" clip-path="url(#p6b1df81e30)" style="fill: #0000ff"/>
   </g>
   <g id="patch_344">
    <path d="M 448.411681 44.748 
L 598.738437 44.748 
L 598.738437 36.828 
L 448.411681 36.828 
z
" clip-path="url(#p6b1df81e30)" style="fill: #0000ff"/>
   </g>
   <g id="patch_345">
    <path d="M 449.351223 44.748 
L 861.81026 44.748 
L 861.81026 36.828 
L 449.351223 36.828 
z
" clip-path="url(#p6b1df81e30)" style="fill: #0000ff"/>
   </g>
   <g id="patch_346">
    <path d="M 452.16985 44.748 
L 872.145225 44.748 
L 872.145225 36.828 
L 452.16985 36.828 
z
" clip-path="url(#p6b1df81e30)" style="fill: #0000ff"/>
   </g>
   <g id="patch_347">
    <path d="M 453.109392 44.748 
L 606.254775 44.748 
L 606.254775 36.828 
L 453.109392 36.828 
z
" clip-path="url(#p6b1df81e30)" style="fill: #0000ff"/>
   </g>
   <g id="patch_348">
    <path d="M 453.109392 44.748 
L 863.689345 44.748 
L 863.689345 36.828 
L 453.109392 36.828 
z
" clip-path="url(#p6b1df81e30)" style="fill: #0000ff"/>
   </g>
   <g id="patch_349">
    <path d="M 454.048934 44.748 
L 858.052092 44.748 
L 858.052092 36.828 
L 454.048934 36.828 
z
" clip-path="url(#p6b1df81e30)" style="fill: #0000ff"/>
   </g>
   <g id="patch_350">
    <path d="M 454.048934 44.748 
L 603.436148 44.748 
L 603.436148 36.828 
L 454.048934 36.828 
z
" clip-path="url(#p6b1df81e30)" style="fill: #0000ff"/>
   </g>
   <g id="patch_351">
    <path d="M 454.988477 44.748 
L 598.738437 44.748 
L 598.738437 36.828 
L 454.988477 36.828 
z
" clip-path="url(#p6b1df81e30)" style="fill: #0000ff"/>
   </g>
   <g id="patch_352">
    <path d="M 455.928019 44.748 
L 604.375691 44.748 
L 604.375691 36.828 
L 455.928019 36.828 
z
" clip-path="url(#p6b1df81e30)" style="fill: #0000ff"/>
   </g>
   <g id="patch_353">
    <path d="M 485.053828 44.748 
L 596.859353 44.748 
L 596.859353 36.828 
L 485.053828 36.828 
z
" clip-path="url(#p6b1df81e30)" style="fill: #0000ff"/>
   </g>
   <g id="patch_354">
    <path d="M 634.441042 44.748 
L 869.326598 44.748 
L 869.326598 36.828 
L 634.441042 36.828 
z
" clip-path="url(#p6b1df81e30)" style="fill: #0000ff"/>
   </g>
   <g id="patch_355">
    <path d="M 636.320126 44.748 
L 869.326598 44.748 
L 869.326598 36.828 
L 636.320126 36.828 
z
" clip-path="url(#p6b1df81e30)" style="fill: #0000ff"/>
   </g>
   <g id="patch_356">
    <path d="M 638.199211 44.748 
L 859.931176 44.748 
L 859.931176 36.828 
L 638.199211 36.828 
z
" clip-path="url(#p6b1df81e30)" style="fill: #0000ff"/>
   </g>
   <g id="patch_357">
    <path d="M 639.138753 44.748 
L 869.326598 44.748 
L 869.326598 36.828 
L 639.138753 36.828 
z
" clip-path="url(#p6b1df81e30)" style="fill: #0000ff"/>
   </g>
   <g id="patch_358">
    <path d="M 639.138753 44.748 
L 858.991634 44.748 
L 858.991634 36.828 
L 639.138753 36.828 
z
" clip-path="url(#p6b1df81e30)" style="fill: #0000ff"/>
   </g>
   <g id="patch_359">
    <path d="M 639.138753 44.748 
L 858.052092 44.748 
L 858.052092 36.828 
L 639.138753 36.828 
z
" clip-path="url(#p6b1df81e30)" style="fill: #0000ff"/>
   </g>
   <g id="patch_360">
    <path d="M 873.084767 41.085 
L 900.331492 41.085 
L 900.331492 40.491 
L 873.084767 40.491 
z
" clip-path="url(#p6b1df81e30)" style="fill: #0000ff"/>
   </g>
   <g id="matplotlib.axis_1">
    <g id="xtick_1">
     <g id="line2d_1">
      <defs>
       <path id="me05d8b6985" d="M 0 0 
L 0 3.5 
" style="stroke: #000000; stroke-width: 0.8"/>
      </defs>
      <g>
       <use xlink:href="#me05d8b6985" x="330.968903" y="211.464" style="stroke: #000000; stroke-width: 0.8"/>
      </g>
     </g>
     <g id="text_1">
      <!-- 200 -->
      <g transform="translate(321.425153 226.062437) scale(0.1 -0.1)">
       <defs>
        <path id="DejaVuSans-32" d="M 1228 531 
L 3431 531 
L 3431 0 
L 469 0 
L 469 531 
Q 828 903 1448 1529 
Q 2069 2156 2228 2338 
Q 2531 2678 2651 2914 
Q 2772 3150 2772 3378 
Q 2772 3750 2511 3984 
Q 2250 4219 1831 4219 
Q 1534 4219 1204 4116 
Q 875 4013 500 3803 
L 500 4441 
Q 881 4594 1212 4672 
Q 1544 4750 1819 4750 
Q 2544 4750 2975 4387 
Q 3406 4025 3406 3419 
Q 3406 3131 3298 2873 
Q 3191 2616 2906 2266 
Q 2828 2175 2409 1742 
Q 1991 1309 1228 531 
z
" transform="scale(0.015625)"/>
        <path id="DejaVuSans-30" d="M 2034 4250 
Q 1547 4250 1301 3770 
Q 1056 3291 1056 2328 
Q 1056 1369 1301 889 
Q 1547 409 2034 409 
Q 2525 409 2770 889 
Q 3016 1369 3016 2328 
Q 3016 3291 2770 3770 
Q 2525 4250 2034 4250 
z
M 2034 4750 
Q 2819 4750 3233 4129 
Q 3647 3509 3647 2328 
Q 3647 1150 3233 529 
Q 2819 -91 2034 -91 
Q 1250 -91 836 529 
Q 422 1150 422 2328 
Q 422 3509 836 4129 
Q 1250 4750 2034 4750 
z
" transform="scale(0.015625)"/>
       </defs>
       <use xlink:href="#DejaVuSans-32"/>
       <use xlink:href="#DejaVuSans-30" x="63.623047"/>
       <use xlink:href="#DejaVuSans-30" x="127.246094"/>
      </g>
     </g>
    </g>
    <g id="xtick_2">
     <g id="line2d_2">
      <g>
       <use xlink:href="#me05d8b6985" x="518.877348" y="211.464" style="stroke: #000000; stroke-width: 0.8"/>
      </g>
     </g>
     <g id="text_2">
      <!-- 400 -->
      <g transform="translate(509.333598 226.062437) scale(0.1 -0.1)">
       <defs>
        <path id="DejaVuSans-34" d="M 2419 4116 
L 825 1625 
L 2419 1625 
L 2419 4116 
z
M 2253 4666 
L 3047 4666 
L 3047 1625 
L 3713 1625 
L 3713 1100 
L 3047 1100 
L 3047 0 
L 2419 0 
L 2419 1100 
L 313 1100 
L 313 1709 
L 2253 4666 
z
" transform="scale(0.015625)"/>
       </defs>
       <use xlink:href="#DejaVuSans-34"/>
       <use xlink:href="#DejaVuSans-30" x="63.623047"/>
       <use xlink:href="#DejaVuSans-30" x="127.246094"/>
      </g>
     </g>
    </g>
    <g id="xtick_3">
     <g id="line2d_3">
      <g>
       <use xlink:href="#me05d8b6985" x="706.785793" y="211.464" style="stroke: #000000; stroke-width: 0.8"/>
      </g>
     </g>
     <g id="text_3">
      <!-- 600 -->
      <g transform="translate(697.242043 226.062437) scale(0.1 -0.1)">
       <defs>
        <path id="DejaVuSans-36" d="M 2113 2584 
Q 1688 2584 1439 2293 
Q 1191 2003 1191 1497 
Q 1191 994 1439 701 
Q 1688 409 2113 409 
Q 2538 409 2786 701 
Q 3034 994 3034 1497 
Q 3034 2003 2786 2293 
Q 2538 2584 2113 2584 
z
M 3366 4563 
L 3366 3988 
Q 3128 4100 2886 4159 
Q 2644 4219 2406 4219 
Q 1781 4219 1451 3797 
Q 1122 3375 1075 2522 
Q 1259 2794 1537 2939 
Q 1816 3084 2150 3084 
Q 2853 3084 3261 2657 
Q 3669 2231 3669 1497 
Q 3669 778 3244 343 
Q 2819 -91 2113 -91 
Q 1303 -91 875 529 
Q 447 1150 447 2328 
Q 447 3434 972 4092 
Q 1497 4750 2381 4750 
Q 2619 4750 2861 4703 
Q 3103 4656 3366 4563 
z
" transform="scale(0.015625)"/>
       </defs>
       <use xlink:href="#DejaVuSans-36"/>
       <use xlink:href="#DejaVuSans-30" x="63.623047"/>
       <use xlink:href="#DejaVuSans-30" x="127.246094"/>
      </g>
     </g>
    </g>
    <g id="xtick_4">
     <g id="line2d_4">
      <g>
       <use xlink:href="#me05d8b6985" x="894.694238" y="211.464" style="stroke: #000000; stroke-width: 0.8"/>
      </g>
     </g>
     <g id="text_4">
      <!-- 800 -->
      <g transform="translate(885.150488 226.062437) scale(0.1 -0.1)">
       <defs>
        <path id="DejaVuSans-38" d="M 2034 2216 
Q 1584 2216 1326 1975 
Q 1069 1734 1069 1313 
Q 1069 891 1326 650 
Q 1584 409 2034 409 
Q 2484 409 2743 651 
Q 3003 894 3003 1313 
Q 3003 1734 2745 1975 
Q 2488 2216 2034 2216 
z
M 1403 2484 
Q 997 2584 770 2862 
Q 544 3141 544 3541 
Q 544 4100 942 4425 
Q 1341 4750 2034 4750 
Q 2731 4750 3128 4425 
Q 3525 4100 3525 3541 
Q 3525 3141 3298 2862 
Q 3072 2584 2669 2484 
Q 3125 2378 3379 2068 
Q 3634 1759 3634 1313 
Q 3634 634 3220 271 
Q 2806 -91 2034 -91 
Q 1263 -91 848 271 
Q 434 634 434 1313 
Q 434 1759 690 2068 
Q 947 2378 1403 2484 
z
M 1172 3481 
Q 1172 3119 1398 2916 
Q 1625 2713 2034 2713 
Q 2441 2713 2670 2916 
Q 2900 3119 2900 3481 
Q 2900 3844 2670 4047 
Q 2441 4250 2034 4250 
Q 1625 4250 1398 4047 
Q 1172 3844 1172 3481 
z
" transform="scale(0.015625)"/>
       </defs>
       <use xlink:href="#DejaVuSans-38"/>
       <use xlink:href="#DejaVuSans-30" x="63.623047"/>
       <use xlink:href="#DejaVuSans-30" x="127.246094"/>
      </g>
     </g>
    </g>
    <g id="text_5">
     <!-- Residual -->
     <g transform="translate(569.284375 239.740563) scale(0.1 -0.1)">
      <defs>
       <path id="DejaVuSans-52" d="M 2841 2188 
Q 3044 2119 3236 1894 
Q 3428 1669 3622 1275 
L 4263 0 
L 3584 0 
L 2988 1197 
Q 2756 1666 2539 1819 
Q 2322 1972 1947 1972 
L 1259 1972 
L 1259 0 
L 628 0 
L 628 4666 
L 2053 4666 
Q 2853 4666 3247 4331 
Q 3641 3997 3641 3322 
Q 3641 2881 3436 2590 
Q 3231 2300 2841 2188 
z
M 1259 4147 
L 1259 2491 
L 2053 2491 
Q 2509 2491 2742 2702 
Q 2975 2913 2975 3322 
Q 2975 3731 2742 3939 
Q 2509 4147 2053 4147 
L 1259 4147 
z
" transform="scale(0.015625)"/>
       <path id="DejaVuSans-65" d="M 3597 1894 
L 3597 1613 
L 953 1613 
Q 991 1019 1311 708 
Q 1631 397 2203 397 
Q 2534 397 2845 478 
Q 3156 559 3463 722 
L 3463 178 
Q 3153 47 2828 -22 
Q 2503 -91 2169 -91 
Q 1331 -91 842 396 
Q 353 884 353 1716 
Q 353 2575 817 3079 
Q 1281 3584 2069 3584 
Q 2775 3584 3186 3129 
Q 3597 2675 3597 1894 
z
M 3022 2063 
Q 3016 2534 2758 2815 
Q 2500 3097 2075 3097 
Q 1594 3097 1305 2825 
Q 1016 2553 972 2059 
L 3022 2063 
z
" transform="scale(0.015625)"/>
       <path id="DejaVuSans-73" d="M 2834 3397 
L 2834 2853 
Q 2591 2978 2328 3040 
Q 2066 3103 1784 3103 
Q 1356 3103 1142 2972 
Q 928 2841 928 2578 
Q 928 2378 1081 2264 
Q 1234 2150 1697 2047 
L 1894 2003 
Q 2506 1872 2764 1633 
Q 3022 1394 3022 966 
Q 3022 478 2636 193 
Q 2250 -91 1575 -91 
Q 1294 -91 989 -36 
Q 684 19 347 128 
L 347 722 
Q 666 556 975 473 
Q 1284 391 1588 391 
Q 1994 391 2212 530 
Q 2431 669 2431 922 
Q 2431 1156 2273 1281 
Q 2116 1406 1581 1522 
L 1381 1569 
Q 847 1681 609 1914 
Q 372 2147 372 2553 
Q 372 3047 722 3315 
Q 1072 3584 1716 3584 
Q 2034 3584 2315 3537 
Q 2597 3491 2834 3397 
z
" transform="scale(0.015625)"/>
       <path id="DejaVuSans-69" d="M 603 3500 
L 1178 3500 
L 1178 0 
L 603 0 
L 603 3500 
z
M 603 4863 
L 1178 4863 
L 1178 4134 
L 603 4134 
L 603 4863 
z
" transform="scale(0.015625)"/>
       <path id="DejaVuSans-64" d="M 2906 2969 
L 2906 4863 
L 3481 4863 
L 3481 0 
L 2906 0 
L 2906 525 
Q 2725 213 2448 61 
Q 2172 -91 1784 -91 
Q 1150 -91 751 415 
Q 353 922 353 1747 
Q 353 2572 751 3078 
Q 1150 3584 1784 3584 
Q 2172 3584 2448 3432 
Q 2725 3281 2906 2969 
z
M 947 1747 
Q 947 1113 1208 752 
Q 1469 391 1925 391 
Q 2381 391 2643 752 
Q 2906 1113 2906 1747 
Q 2906 2381 2643 2742 
Q 2381 3103 1925 3103 
Q 1469 3103 1208 2742 
Q 947 2381 947 1747 
z
" transform="scale(0.015625)"/>
       <path id="DejaVuSans-75" d="M 544 1381 
L 544 3500 
L 1119 3500 
L 1119 1403 
Q 1119 906 1312 657 
Q 1506 409 1894 409 
Q 2359 409 2629 706 
Q 2900 1003 2900 1516 
L 2900 3500 
L 3475 3500 
L 3475 0 
L 2900 0 
L 2900 538 
Q 2691 219 2414 64 
Q 2138 -91 1772 -91 
Q 1169 -91 856 284 
Q 544 659 544 1381 
z
M 1991 3584 
L 1991 3584 
z
" transform="scale(0.015625)"/>
       <path id="DejaVuSans-61" d="M 2194 1759 
Q 1497 1759 1228 1600 
Q 959 1441 959 1056 
Q 959 750 1161 570 
Q 1363 391 1709 391 
Q 2188 391 2477 730 
Q 2766 1069 2766 1631 
L 2766 1759 
L 2194 1759 
z
M 3341 1997 
L 3341 0 
L 2766 0 
L 2766 531 
Q 2569 213 2275 61 
Q 1981 -91 1556 -91 
Q 1019 -91 701 211 
Q 384 513 384 1019 
Q 384 1609 779 1909 
Q 1175 2209 1959 2209 
L 2766 2209 
L 2766 2266 
Q 2766 2663 2505 2880 
Q 2244 3097 1772 3097 
Q 1472 3097 1187 3025 
Q 903 2953 641 2809 
L 641 3341 
Q 956 3463 1253 3523 
Q 1550 3584 1831 3584 
Q 2591 3584 2966 3190 
Q 3341 2797 3341 1997 
z
" transform="scale(0.015625)"/>
       <path id="DejaVuSans-6c" d="M 603 4863 
L 1178 4863 
L 1178 0 
L 603 0 
L 603 4863 
z
" transform="scale(0.015625)"/>
      </defs>
      <use xlink:href="#DejaVuSans-52"/>
      <use xlink:href="#DejaVuSans-65" x="64.982422"/>
      <use xlink:href="#DejaVuSans-73" x="126.505859"/>
      <use xlink:href="#DejaVuSans-69" x="178.605469"/>
      <use xlink:href="#DejaVuSans-64" x="206.388672"/>
      <use xlink:href="#DejaVuSans-75" x="269.865234"/>
      <use xlink:href="#DejaVuSans-61" x="333.244141"/>
      <use xlink:href="#DejaVuSans-6c" x="394.523438"/>
     </g>
    </g>
   </g>
   <g id="matplotlib.axis_2">
    <g id="ytick_1">
     <g id="line2d_5">
      <defs>
       <path id="m0f83b42bb6" d="M 0 0 
L -3.5 0 
" style="stroke: #000000; stroke-width: 0.8"/>
      </defs>
      <g>
       <use xlink:href="#m0f83b42bb6" x="144" y="199.188" style="stroke: #000000; stroke-width: 0.8"/>
      </g>
     </g>
     <g id="text_6">
      <!-- 9.B.34.1.1 -->
      <g transform="translate(85.614062 202.987219) scale(0.1 -0.1)">
       <defs>
        <path id="DejaVuSans-39" d="M 703 97 
L 703 672 
Q 941 559 1184 500 
Q 1428 441 1663 441 
Q 2288 441 2617 861 
Q 2947 1281 2994 2138 
Q 2813 1869 2534 1725 
Q 2256 1581 1919 1581 
Q 1219 1581 811 2004 
Q 403 2428 403 3163 
Q 403 3881 828 4315 
Q 1253 4750 1959 4750 
Q 2769 4750 3195 4129 
Q 3622 3509 3622 2328 
Q 3622 1225 3098 567 
Q 2575 -91 1691 -91 
Q 1453 -91 1209 -44 
Q 966 3 703 97 
z
M 1959 2075 
Q 2384 2075 2632 2365 
Q 2881 2656 2881 3163 
Q 2881 3666 2632 3958 
Q 2384 4250 1959 4250 
Q 1534 4250 1286 3958 
Q 1038 3666 1038 3163 
Q 1038 2656 1286 2365 
Q 1534 2075 1959 2075 
z
" transform="scale(0.015625)"/>
        <path id="DejaVuSans-2e" d="M 684 794 
L 1344 794 
L 1344 0 
L 684 0 
L 684 794 
z
" transform="scale(0.015625)"/>
        <path id="DejaVuSans-42" d="M 1259 2228 
L 1259 519 
L 2272 519 
Q 2781 519 3026 730 
Q 3272 941 3272 1375 
Q 3272 1813 3026 2020 
Q 2781 2228 2272 2228 
L 1259 2228 
z
M 1259 4147 
L 1259 2741 
L 2194 2741 
Q 2656 2741 2882 2914 
Q 3109 3088 3109 3444 
Q 3109 3797 2882 3972 
Q 2656 4147 2194 4147 
L 1259 4147 
z
M 628 4666 
L 2241 4666 
Q 2963 4666 3353 4366 
Q 3744 4066 3744 3513 
Q 3744 3084 3544 2831 
Q 3344 2578 2956 2516 
Q 3422 2416 3680 2098 
Q 3938 1781 3938 1306 
Q 3938 681 3513 340 
Q 3088 0 2303 0 
L 628 0 
L 628 4666 
z
" transform="scale(0.015625)"/>
        <path id="DejaVuSans-33" d="M 2597 2516 
Q 3050 2419 3304 2112 
Q 3559 1806 3559 1356 
Q 3559 666 3084 287 
Q 2609 -91 1734 -91 
Q 1441 -91 1130 -33 
Q 819 25 488 141 
L 488 750 
Q 750 597 1062 519 
Q 1375 441 1716 441 
Q 2309 441 2620 675 
Q 2931 909 2931 1356 
Q 2931 1769 2642 2001 
Q 2353 2234 1838 2234 
L 1294 2234 
L 1294 2753 
L 1863 2753 
Q 2328 2753 2575 2939 
Q 2822 3125 2822 3475 
Q 2822 3834 2567 4026 
Q 2313 4219 1838 4219 
Q 1578 4219 1281 4162 
Q 984 4106 628 3988 
L 628 4550 
Q 988 4650 1302 4700 
Q 1616 4750 1894 4750 
Q 2613 4750 3031 4423 
Q 3450 4097 3450 3541 
Q 3450 3153 3228 2886 
Q 3006 2619 2597 2516 
z
" transform="scale(0.015625)"/>
        <path id="DejaVuSans-31" d="M 794 531 
L 1825 531 
L 1825 4091 
L 703 3866 
L 703 4441 
L 1819 4666 
L 2450 4666 
L 2450 531 
L 3481 531 
L 3481 0 
L 794 0 
L 794 531 
z
" transform="scale(0.015625)"/>
       </defs>
       <use xlink:href="#DejaVuSans-39"/>
       <use xlink:href="#DejaVuSans-2e" x="63.623047"/>
       <use xlink:href="#DejaVuSans-42" x="95.410156"/>
       <use xlink:href="#DejaVuSans-2e" x="164.013672"/>
       <use xlink:href="#DejaVuSans-33" x="195.800781"/>
       <use xlink:href="#DejaVuSans-34" x="259.423828"/>
       <use xlink:href="#DejaVuSans-2e" x="323.046875"/>
       <use xlink:href="#DejaVuSans-31" x="354.833984"/>
       <use xlink:href="#DejaVuSans-2e" x="418.457031"/>
       <use xlink:href="#DejaVuSans-31" x="450.244141"/>
      </g>
     </g>
    </g>
    <g id="ytick_2">
     <g id="line2d_6">
      <g>
       <use xlink:href="#m0f83b42bb6" x="144" y="179.388" style="stroke: #000000; stroke-width: 0.8"/>
      </g>
     </g>
     <g id="text_7">
      <!-- 9.B.34.1.2 -->
      <g transform="translate(85.614062 183.187219) scale(0.1 -0.1)">
       <use xlink:href="#DejaVuSans-39"/>
       <use xlink:href="#DejaVuSans-2e" x="63.623047"/>
       <use xlink:href="#DejaVuSans-42" x="95.410156"/>
       <use xlink:href="#DejaVuSans-2e" x="164.013672"/>
       <use xlink:href="#DejaVuSans-33" x="195.800781"/>
       <use xlink:href="#DejaVuSans-34" x="259.423828"/>
       <use xlink:href="#DejaVuSans-2e" x="323.046875"/>
       <use xlink:href="#DejaVuSans-31" x="354.833984"/>
       <use xlink:href="#DejaVuSans-2e" x="418.457031"/>
       <use xlink:href="#DejaVuSans-32" x="450.244141"/>
      </g>
     </g>
    </g>
    <g id="ytick_3">
     <g id="line2d_7">
      <g>
       <use xlink:href="#m0f83b42bb6" x="144" y="159.588" style="stroke: #000000; stroke-width: 0.8"/>
      </g>
     </g>
     <g id="text_8">
      <!-- 9.B.34.1.3 -->
      <g transform="translate(85.614062 163.387219) scale(0.1 -0.1)">
       <use xlink:href="#DejaVuSans-39"/>
       <use xlink:href="#DejaVuSans-2e" x="63.623047"/>
       <use xlink:href="#DejaVuSans-42" x="95.410156"/>
       <use xlink:href="#DejaVuSans-2e" x="164.013672"/>
       <use xlink:href="#DejaVuSans-33" x="195.800781"/>
       <use xlink:href="#DejaVuSans-34" x="259.423828"/>
       <use xlink:href="#DejaVuSans-2e" x="323.046875"/>
       <use xlink:href="#DejaVuSans-31" x="354.833984"/>
       <use xlink:href="#DejaVuSans-2e" x="418.457031"/>
       <use xlink:href="#DejaVuSans-33" x="450.244141"/>
      </g>
     </g>
    </g>
    <g id="ytick_4">
     <g id="line2d_8">
      <g>
       <use xlink:href="#m0f83b42bb6" x="144" y="139.788" style="stroke: #000000; stroke-width: 0.8"/>
      </g>
     </g>
     <g id="text_9">
      <!-- 9.B.34.1.4 -->
      <g transform="translate(85.614062 143.587219) scale(0.1 -0.1)">
       <use xlink:href="#DejaVuSans-39"/>
       <use xlink:href="#DejaVuSans-2e" x="63.623047"/>
       <use xlink:href="#DejaVuSans-42" x="95.410156"/>
       <use xlink:href="#DejaVuSans-2e" x="164.013672"/>
       <use xlink:href="#DejaVuSans-33" x="195.800781"/>
       <use xlink:href="#DejaVuSans-34" x="259.423828"/>
       <use xlink:href="#DejaVuSans-2e" x="323.046875"/>
       <use xlink:href="#DejaVuSans-31" x="354.833984"/>
       <use xlink:href="#DejaVuSans-2e" x="418.457031"/>
       <use xlink:href="#DejaVuSans-34" x="450.244141"/>
      </g>
     </g>
    </g>
    <g id="ytick_5">
     <g id="line2d_9">
      <g>
       <use xlink:href="#m0f83b42bb6" x="144" y="119.988" style="stroke: #000000; stroke-width: 0.8"/>
      </g>
     </g>
     <g id="text_10">
      <!-- 9.B.34.1.5 -->
      <g transform="translate(85.614062 123.787219) scale(0.1 -0.1)">
       <defs>
        <path id="DejaVuSans-35" d="M 691 4666 
L 3169 4666 
L 3169 4134 
L 1269 4134 
L 1269 2991 
Q 1406 3038 1543 3061 
Q 1681 3084 1819 3084 
Q 2600 3084 3056 2656 
Q 3513 2228 3513 1497 
Q 3513 744 3044 326 
Q 2575 -91 1722 -91 
Q 1428 -91 1123 -41 
Q 819 9 494 109 
L 494 744 
Q 775 591 1075 516 
Q 1375 441 1709 441 
Q 2250 441 2565 725 
Q 2881 1009 2881 1497 
Q 2881 1984 2565 2268 
Q 2250 2553 1709 2553 
Q 1456 2553 1204 2497 
Q 953 2441 691 2322 
L 691 4666 
z
" transform="scale(0.015625)"/>
       </defs>
       <use xlink:href="#DejaVuSans-39"/>
       <use xlink:href="#DejaVuSans-2e" x="63.623047"/>
       <use xlink:href="#DejaVuSans-42" x="95.410156"/>
       <use xlink:href="#DejaVuSans-2e" x="164.013672"/>
       <use xlink:href="#DejaVuSans-33" x="195.800781"/>
       <use xlink:href="#DejaVuSans-34" x="259.423828"/>
       <use xlink:href="#DejaVuSans-2e" x="323.046875"/>
       <use xlink:href="#DejaVuSans-31" x="354.833984"/>
       <use xlink:href="#DejaVuSans-2e" x="418.457031"/>
       <use xlink:href="#DejaVuSans-35" x="450.244141"/>
      </g>
     </g>
    </g>
    <g id="ytick_6">
     <g id="line2d_10">
      <g>
       <use xlink:href="#m0f83b42bb6" x="144" y="100.188" style="stroke: #000000; stroke-width: 0.8"/>
      </g>
     </g>
     <g id="text_11">
      <!-- 9.B.34.1.6 -->
      <g transform="translate(85.614062 103.987219) scale(0.1 -0.1)">
       <use xlink:href="#DejaVuSans-39"/>
       <use xlink:href="#DejaVuSans-2e" x="63.623047"/>
       <use xlink:href="#DejaVuSans-42" x="95.410156"/>
       <use xlink:href="#DejaVuSans-2e" x="164.013672"/>
       <use xlink:href="#DejaVuSans-33" x="195.800781"/>
       <use xlink:href="#DejaVuSans-34" x="259.423828"/>
       <use xlink:href="#DejaVuSans-2e" x="323.046875"/>
       <use xlink:href="#DejaVuSans-31" x="354.833984"/>
       <use xlink:href="#DejaVuSans-2e" x="418.457031"/>
       <use xlink:href="#DejaVuSans-36" x="450.244141"/>
      </g>
     </g>
    </g>
    <g id="ytick_7">
     <g id="line2d_11">
      <g>
       <use xlink:href="#m0f83b42bb6" x="144" y="80.388" style="stroke: #000000; stroke-width: 0.8"/>
      </g>
     </g>
     <g id="text_12">
      <!-- 9.B.34.1.7 -->
      <g transform="translate(85.614062 84.187219) scale(0.1 -0.1)">
       <defs>
        <path id="DejaVuSans-37" d="M 525 4666 
L 3525 4666 
L 3525 4397 
L 1831 0 
L 1172 0 
L 2766 4134 
L 525 4134 
L 525 4666 
z
" transform="scale(0.015625)"/>
       </defs>
       <use xlink:href="#DejaVuSans-39"/>
       <use xlink:href="#DejaVuSans-2e" x="63.623047"/>
       <use xlink:href="#DejaVuSans-42" x="95.410156"/>
       <use xlink:href="#DejaVuSans-2e" x="164.013672"/>
       <use xlink:href="#DejaVuSans-33" x="195.800781"/>
       <use xlink:href="#DejaVuSans-34" x="259.423828"/>
       <use xlink:href="#DejaVuSans-2e" x="323.046875"/>
       <use xlink:href="#DejaVuSans-31" x="354.833984"/>
       <use xlink:href="#DejaVuSans-2e" x="418.457031"/>
       <use xlink:href="#DejaVuSans-37" x="450.244141"/>
      </g>
     </g>
    </g>
    <g id="ytick_8">
     <g id="line2d_12">
      <g>
       <use xlink:href="#m0f83b42bb6" x="144" y="60.588" style="stroke: #000000; stroke-width: 0.8"/>
      </g>
     </g>
     <g id="text_13">
      <!-- 9.B.34.1.8 -->
      <g transform="translate(85.614062 64.387219) scale(0.1 -0.1)">
       <use xlink:href="#DejaVuSans-39"/>
       <use xlink:href="#DejaVuSans-2e" x="63.623047"/>
       <use xlink:href="#DejaVuSans-42" x="95.410156"/>
       <use xlink:href="#DejaVuSans-2e" x="164.013672"/>
       <use xlink:href="#DejaVuSans-33" x="195.800781"/>
       <use xlink:href="#DejaVuSans-34" x="259.423828"/>
       <use xlink:href="#DejaVuSans-2e" x="323.046875"/>
       <use xlink:href="#DejaVuSans-31" x="354.833984"/>
       <use xlink:href="#DejaVuSans-2e" x="418.457031"/>
       <use xlink:href="#DejaVuSans-38" x="450.244141"/>
      </g>
     </g>
    </g>
    <g id="ytick_9">
     <g id="line2d_13">
      <g>
       <use xlink:href="#m0f83b42bb6" x="144" y="40.788" style="stroke: #000000; stroke-width: 0.8"/>
      </g>
     </g>
     <g id="text_14">
      <!-- 9.B.34.1.9 -->
      <g transform="translate(85.614062 44.587219) scale(0.1 -0.1)">
       <use xlink:href="#DejaVuSans-39"/>
       <use xlink:href="#DejaVuSans-2e" x="63.623047"/>
       <use xlink:href="#DejaVuSans-42" x="95.410156"/>
       <use xlink:href="#DejaVuSans-2e" x="164.013672"/>
       <use xlink:href="#DejaVuSans-33" x="195.800781"/>
       <use xlink:href="#DejaVuSans-34" x="259.423828"/>
       <use xlink:href="#DejaVuSans-2e" x="323.046875"/>
       <use xlink:href="#DejaVuSans-31" x="354.833984"/>
       <use xlink:href="#DejaVuSans-2e" x="418.457031"/>
       <use xlink:href="#DejaVuSans-39" x="450.244141"/>
      </g>
     </g>
    </g>
   </g>
   <g id="patch_361">
    <path d="M 144 211.464 
L 144 28.512 
" style="fill: none; stroke: #000000; stroke-width: 0.8; stroke-linejoin: miter; stroke-linecap: square"/>
   </g>
   <g id="patch_362">
    <path d="M 1036.8 211.464 
L 1036.8 28.512 
" style="fill: none; stroke: #000000; stroke-width: 0.8; stroke-linejoin: miter; stroke-linecap: square"/>
   </g>
   <g id="patch_363">
    <path d="M 144 211.464 
L 1036.8 211.464 
" style="fill: none; stroke: #000000; stroke-width: 0.8; stroke-linejoin: miter; stroke-linecap: square"/>
   </g>
   <g id="patch_364">
    <path d="M 144 28.512 
L 1036.8 28.512 
" style="fill: none; stroke: #000000; stroke-width: 0.8; stroke-linejoin: miter; stroke-linecap: square"/>
   </g>
   <g id="text_15">
    <!-- 9.B.34 Summary -->
    <g transform="translate(540.115312 22.512) scale(0.12 -0.12)">
     <defs>
      <path id="DejaVuSans-20" transform="scale(0.015625)"/>
      <path id="DejaVuSans-53" d="M 3425 4513 
L 3425 3897 
Q 3066 4069 2747 4153 
Q 2428 4238 2131 4238 
Q 1616 4238 1336 4038 
Q 1056 3838 1056 3469 
Q 1056 3159 1242 3001 
Q 1428 2844 1947 2747 
L 2328 2669 
Q 3034 2534 3370 2195 
Q 3706 1856 3706 1288 
Q 3706 609 3251 259 
Q 2797 -91 1919 -91 
Q 1588 -91 1214 -16 
Q 841 59 441 206 
L 441 856 
Q 825 641 1194 531 
Q 1563 422 1919 422 
Q 2459 422 2753 634 
Q 3047 847 3047 1241 
Q 3047 1584 2836 1778 
Q 2625 1972 2144 2069 
L 1759 2144 
Q 1053 2284 737 2584 
Q 422 2884 422 3419 
Q 422 4038 858 4394 
Q 1294 4750 2059 4750 
Q 2388 4750 2728 4690 
Q 3069 4631 3425 4513 
z
" transform="scale(0.015625)"/>
      <path id="DejaVuSans-6d" d="M 3328 2828 
Q 3544 3216 3844 3400 
Q 4144 3584 4550 3584 
Q 5097 3584 5394 3201 
Q 5691 2819 5691 2113 
L 5691 0 
L 5113 0 
L 5113 2094 
Q 5113 2597 4934 2840 
Q 4756 3084 4391 3084 
Q 3944 3084 3684 2787 
Q 3425 2491 3425 1978 
L 3425 0 
L 2847 0 
L 2847 2094 
Q 2847 2600 2669 2842 
Q 2491 3084 2119 3084 
Q 1678 3084 1418 2786 
Q 1159 2488 1159 1978 
L 1159 0 
L 581 0 
L 581 3500 
L 1159 3500 
L 1159 2956 
Q 1356 3278 1631 3431 
Q 1906 3584 2284 3584 
Q 2666 3584 2933 3390 
Q 3200 3197 3328 2828 
z
" transform="scale(0.015625)"/>
      <path id="DejaVuSans-72" d="M 2631 2963 
Q 2534 3019 2420 3045 
Q 2306 3072 2169 3072 
Q 1681 3072 1420 2755 
Q 1159 2438 1159 1844 
L 1159 0 
L 581 0 
L 581 3500 
L 1159 3500 
L 1159 2956 
Q 1341 3275 1631 3429 
Q 1922 3584 2338 3584 
Q 2397 3584 2469 3576 
Q 2541 3569 2628 3553 
L 2631 2963 
z
" transform="scale(0.015625)"/>
      <path id="DejaVuSans-79" d="M 2059 -325 
Q 1816 -950 1584 -1140 
Q 1353 -1331 966 -1331 
L 506 -1331 
L 506 -850 
L 844 -850 
Q 1081 -850 1212 -737 
Q 1344 -625 1503 -206 
L 1606 56 
L 191 3500 
L 800 3500 
L 1894 763 
L 2988 3500 
L 3597 3500 
L 2059 -325 
z
" transform="scale(0.015625)"/>
     </defs>
     <use xlink:href="#DejaVuSans-39"/>
     <use xlink:href="#DejaVuSans-2e" x="63.623047"/>
     <use xlink:href="#DejaVuSans-42" x="95.410156"/>
     <use xlink:href="#DejaVuSans-2e" x="164.013672"/>
     <use xlink:href="#DejaVuSans-33" x="195.800781"/>
     <use xlink:href="#DejaVuSans-34" x="259.423828"/>
     <use xlink:href="#DejaVuSans-20" x="323.046875"/>
     <use xlink:href="#DejaVuSans-53" x="354.833984"/>
     <use xlink:href="#DejaVuSans-75" x="418.310547"/>
     <use xlink:href="#DejaVuSans-6d" x="481.689453"/>
     <use xlink:href="#DejaVuSans-6d" x="579.101562"/>
     <use xlink:href="#DejaVuSans-61" x="676.513672"/>
     <use xlink:href="#DejaVuSans-72" x="737.792969"/>
     <use xlink:href="#DejaVuSans-79" x="778.90625"/>
    </g>
   </g>
  </g>
 </g>
 <defs>
  <clipPath id="p6b1df81e30">
   <rect x="144" y="28.512" width="892.8" height="182.952"/>
  </clipPath>
 </defs>
</svg>
