<?xml version="1.0" encoding="utf-8" standalone="no"?>
<!DOCTYPE svg PUBLIC "-//W3C//DTD SVG 1.1//EN"
  "http://www.w3.org/Graphics/SVG/1.1/DTD/svg11.dtd">
<svg xmlns:xlink="http://www.w3.org/1999/xlink" width="1152pt" height="108pt" viewBox="0 0 1152 108" xmlns="http://www.w3.org/2000/svg" version="1.1">
 <metadata>
  <rdf:RDF xmlns:dc="http://purl.org/dc/elements/1.1/" xmlns:cc="http://creativecommons.org/ns#" xmlns:rdf="http://www.w3.org/1999/02/22-rdf-syntax-ns#">
   <cc:Work>
    <dc:type rdf:resource="http://purl.org/dc/dcmitype/StillImage"/>
    <dc:date>2024-10-24T21:30:01.260906</dc:date>
    <dc:format>image/svg+xml</dc:format>
    <dc:creator>
     <cc:Agent>
      <dc:title>Matplotlib v3.8.4, https://matplotlib.org/</dc:title>
     </cc:Agent>
    </dc:creator>
   </cc:Work>
  </rdf:RDF>
 </metadata>
 <defs>
  <style type="text/css">*{stroke-linejoin: round; stroke-linecap: butt}</style>
 </defs>
 <g id="figure_1">
  <g id="patch_1">
   <path d="M 0 108 
L 1152 108 
L 1152 0 
L 0 0 
z
" style="fill: #ffffff"/>
  </g>
  <g id="axes_1">
   <g id="patch_2">
    <path d="M 144 96.12 
L 1036.8 96.12 
L 1036.8 12.96 
L 144 12.96 
z
" style="fill: #ffffff"/>
   </g>
   <g id="patch_3">
    <path d="M 144 88.226471 
L 158.986892 88.226471 
L 158.986892 87.559412 
L 144 87.559412 
z
" clip-path="url(#p03c9e1967c)" style="fill: #0000ff"/>
   </g>
   <g id="patch_4">
    <path d="M 159.427683 92.34 
L 198.217285 92.34 
L 198.217285 83.445882 
L 159.427683 83.445882 
z
" clip-path="url(#p03c9e1967c)" style="fill: #0000ff"/>
   </g>
   <g id="patch_5">
    <path d="M 159.868474 92.34 
L 191.16463 92.34 
L 191.16463 83.445882 
L 159.868474 83.445882 
z
" clip-path="url(#p03c9e1967c)" style="fill: #0000ff"/>
   </g>
   <g id="patch_6">
    <path d="M 160.309265 92.34 
L 191.605421 92.34 
L 191.605421 83.445882 
L 160.309265 83.445882 
z
" clip-path="url(#p03c9e1967c)" style="fill: #0000ff"/>
   </g>
   <g id="patch_7">
    <path d="M 160.309265 92.34 
L 194.250167 92.34 
L 194.250167 83.445882 
L 160.309265 83.445882 
z
" clip-path="url(#p03c9e1967c)" style="fill: #0000ff"/>
   </g>
   <g id="patch_8">
    <path d="M 160.309265 92.34 
L 191.605421 92.34 
L 191.605421 83.445882 
L 160.309265 83.445882 
z
" clip-path="url(#p03c9e1967c)" style="fill: #0000ff"/>
   </g>
   <g id="patch_9">
    <path d="M 165.157965 92.34 
L 189.842257 92.34 
L 189.842257 83.445882 
L 165.157965 83.445882 
z
" clip-path="url(#p03c9e1967c)" style="fill: #0000ff"/>
   </g>
   <g id="patch_10">
    <path d="M 198.658076 88.226471 
L 458.724728 88.226471 
L 458.724728 87.559412 
L 198.658076 87.559412 
z
" clip-path="url(#p03c9e1967c)" style="fill: #0000ff"/>
   </g>
   <g id="patch_11">
    <path d="M 459.165519 92.34 
L 636.804266 92.34 
L 636.804266 83.445882 
L 459.165519 83.445882 
z
" clip-path="url(#p03c9e1967c)" style="fill: #0000ff"/>
   </g>
   <g id="patch_12">
    <path d="M 588.758054 92.34 
L 644.738503 92.34 
L 644.738503 83.445882 
L 588.758054 83.445882 
z
" clip-path="url(#p03c9e1967c)" style="fill: #0000ff"/>
   </g>
   <g id="patch_13">
    <path d="M 590.521218 92.34 
L 647.824039 92.34 
L 647.824039 83.445882 
L 590.521218 83.445882 
z
" clip-path="url(#p03c9e1967c)" style="fill: #0000ff"/>
   </g>
   <g id="patch_14">
    <path d="M 594.047545 92.34 
L 642.534548 92.34 
L 642.534548 83.445882 
L 594.047545 83.445882 
z
" clip-path="url(#p03c9e1967c)" style="fill: #0000ff"/>
   </g>
   <g id="patch_15">
    <path d="M 598.896245 92.34 
L 635.922684 92.34 
L 635.922684 83.445882 
L 598.896245 83.445882 
z
" clip-path="url(#p03c9e1967c)" style="fill: #0000ff"/>
   </g>
   <g id="patch_16">
    <path d="M 648.26483 88.226471 
L 673.830704 88.226471 
L 673.830704 87.559412 
L 648.26483 87.559412 
z
" clip-path="url(#p03c9e1967c)" style="fill: #0000ff"/>
   </g>
   <g id="patch_17">
    <path d="M 674.271495 92.34 
L 740.830926 92.34 
L 740.830926 83.445882 
L 674.271495 83.445882 
z
" clip-path="url(#p03c9e1967c)" style="fill: #0000ff"/>
   </g>
   <g id="patch_18">
    <path d="M 674.271495 92.34 
L 748.324372 92.34 
L 748.324372 83.445882 
L 674.271495 83.445882 
z
" clip-path="url(#p03c9e1967c)" style="fill: #0000ff"/>
   </g>
   <g id="patch_19">
    <path d="M 676.916241 92.34 
L 752.291491 92.34 
L 752.291491 83.445882 
L 676.916241 83.445882 
z
" clip-path="url(#p03c9e1967c)" style="fill: #0000ff"/>
   </g>
   <g id="patch_20">
    <path d="M 681.764941 92.34 
L 874.831371 92.34 
L 874.831371 83.445882 
L 681.764941 83.445882 
z
" clip-path="url(#p03c9e1967c)" style="fill: #0000ff"/>
   </g>
   <g id="patch_21">
    <path d="M 683.968896 92.34 
L 877.916907 92.34 
L 877.916907 83.445882 
L 683.968896 83.445882 
z
" clip-path="url(#p03c9e1967c)" style="fill: #0000ff"/>
   </g>
   <g id="patch_22">
    <path d="M 684.409687 92.34 
L 859.403688 92.34 
L 859.403688 83.445882 
L 684.409687 83.445882 
z
" clip-path="url(#p03c9e1967c)" style="fill: #0000ff"/>
   </g>
   <g id="patch_23">
    <path d="M 685.291269 92.34 
L 853.232615 92.34 
L 853.232615 83.445882 
L 685.291269 83.445882 
z
" clip-path="url(#p03c9e1967c)" style="fill: #0000ff"/>
   </g>
   <g id="patch_24">
    <path d="M 686.17285 92.34 
L 854.114197 92.34 
L 854.114197 83.445882 
L 686.17285 83.445882 
z
" clip-path="url(#p03c9e1967c)" style="fill: #0000ff"/>
   </g>
   <g id="patch_25">
    <path d="M 686.613641 92.34 
L 877.916907 92.34 
L 877.916907 83.445882 
L 686.613641 83.445882 
z
" clip-path="url(#p03c9e1967c)" style="fill: #0000ff"/>
   </g>
   <g id="patch_26">
    <path d="M 688.817596 92.34 
L 877.916907 92.34 
L 877.916907 83.445882 
L 688.817596 83.445882 
z
" clip-path="url(#p03c9e1967c)" style="fill: #0000ff"/>
   </g>
   <g id="patch_27">
    <path d="M 688.817596 92.34 
L 861.166852 92.34 
L 861.166852 83.445882 
L 688.817596 83.445882 
z
" clip-path="url(#p03c9e1967c)" style="fill: #0000ff"/>
   </g>
   <g id="patch_28">
    <path d="M 689.699178 92.34 
L 875.272162 92.34 
L 875.272162 83.445882 
L 689.699178 83.445882 
z
" clip-path="url(#p03c9e1967c)" style="fill: #0000ff"/>
   </g>
   <g id="patch_29">
    <path d="M 690.58076 92.34 
L 875.712953 92.34 
L 875.712953 83.445882 
L 690.58076 83.445882 
z
" clip-path="url(#p03c9e1967c)" style="fill: #0000ff"/>
   </g>
   <g id="patch_30">
    <path d="M 690.58076 92.34 
L 862.489225 92.34 
L 862.489225 83.445882 
L 690.58076 83.445882 
z
" clip-path="url(#p03c9e1967c)" style="fill: #0000ff"/>
   </g>
   <g id="patch_31">
    <path d="M 691.903133 92.34 
L 898.19329 92.34 
L 898.19329 83.445882 
L 691.903133 83.445882 
z
" clip-path="url(#p03c9e1967c)" style="fill: #0000ff"/>
   </g>
   <g id="patch_32">
    <path d="M 692.343924 92.34 
L 856.758942 92.34 
L 856.758942 83.445882 
L 692.343924 83.445882 
z
" clip-path="url(#p03c9e1967c)" style="fill: #0000ff"/>
   </g>
   <g id="patch_33">
    <path d="M 693.225505 92.34 
L 854.554988 92.34 
L 854.554988 83.445882 
L 693.225505 83.445882 
z
" clip-path="url(#p03c9e1967c)" style="fill: #0000ff"/>
   </g>
   <g id="patch_34">
    <path d="M 693.225505 92.34 
L 860.726061 92.34 
L 860.726061 83.445882 
L 693.225505 83.445882 
z
" clip-path="url(#p03c9e1967c)" style="fill: #0000ff"/>
   </g>
   <g id="patch_35">
    <path d="M 726.284826 92.34 
L 836.92335 92.34 
L 836.92335 83.445882 
L 726.284826 83.445882 
z
" clip-path="url(#p03c9e1967c)" style="fill: #0000ff"/>
   </g>
   <g id="patch_36">
    <path d="M 732.015108 92.34 
L 856.758942 92.34 
L 856.758942 83.445882 
L 732.015108 83.445882 
z
" clip-path="url(#p03c9e1967c)" style="fill: #0000ff"/>
   </g>
   <g id="patch_37">
    <path d="M 791.521884 92.34 
L 852.351033 92.34 
L 852.351033 83.445882 
L 791.521884 83.445882 
z
" clip-path="url(#p03c9e1967c)" style="fill: #0000ff"/>
   </g>
   <g id="patch_38">
    <path d="M 802.541657 92.34 
L 855.877361 92.34 
L 855.877361 83.445882 
L 802.541657 83.445882 
z
" clip-path="url(#p03c9e1967c)" style="fill: #0000ff"/>
   </g>
   <g id="patch_39">
    <path d="M 810.916685 92.34 
L 858.522106 92.34 
L 858.522106 83.445882 
L 810.916685 83.445882 
z
" clip-path="url(#p03c9e1967c)" style="fill: #0000ff"/>
   </g>
   <g id="patch_40">
    <path d="M 880.120862 92.34 
L 994.285714 92.34 
L 994.285714 83.445882 
L 880.120862 83.445882 
z
" clip-path="url(#p03c9e1967c)" style="fill: #0000ff"/>
   </g>
   <g id="patch_41">
    <path d="M 881.443235 92.34 
L 994.285714 92.34 
L 994.285714 83.445882 
L 881.443235 83.445882 
z
" clip-path="url(#p03c9e1967c)" style="fill: #0000ff"/>
   </g>
   <g id="patch_42">
    <path d="M 144 65.991176 
L 158.986892 65.991176 
L 158.986892 65.324118 
L 144 65.324118 
z
" clip-path="url(#p03c9e1967c)" style="fill: #0000ff"/>
   </g>
   <g id="patch_43">
    <path d="M 159.427683 70.104706 
L 198.217285 70.104706 
L 198.217285 61.210588 
L 159.427683 61.210588 
z
" clip-path="url(#p03c9e1967c)" style="fill: #0000ff"/>
   </g>
   <g id="patch_44">
    <path d="M 159.868474 70.104706 
L 191.605421 70.104706 
L 191.605421 61.210588 
L 159.868474 61.210588 
z
" clip-path="url(#p03c9e1967c)" style="fill: #0000ff"/>
   </g>
   <g id="patch_45">
    <path d="M 159.868474 70.104706 
L 191.16463 70.104706 
L 191.16463 61.210588 
L 159.868474 61.210588 
z
" clip-path="url(#p03c9e1967c)" style="fill: #0000ff"/>
   </g>
   <g id="patch_46">
    <path d="M 159.868474 70.104706 
L 191.605421 70.104706 
L 191.605421 61.210588 
L 159.868474 61.210588 
z
" clip-path="url(#p03c9e1967c)" style="fill: #0000ff"/>
   </g>
   <g id="patch_47">
    <path d="M 160.309265 70.104706 
L 191.605421 70.104706 
L 191.605421 61.210588 
L 160.309265 61.210588 
z
" clip-path="url(#p03c9e1967c)" style="fill: #0000ff"/>
   </g>
   <g id="patch_48">
    <path d="M 164.717174 70.104706 
L 188.960675 70.104706 
L 188.960675 61.210588 
L 164.717174 61.210588 
z
" clip-path="url(#p03c9e1967c)" style="fill: #0000ff"/>
   </g>
   <g id="patch_49">
    <path d="M 165.157965 70.104706 
L 189.842257 70.104706 
L 189.842257 61.210588 
L 165.157965 61.210588 
z
" clip-path="url(#p03c9e1967c)" style="fill: #0000ff"/>
   </g>
   <g id="patch_50">
    <path d="M 165.157965 70.104706 
L 189.842257 70.104706 
L 189.842257 61.210588 
L 165.157965 61.210588 
z
" clip-path="url(#p03c9e1967c)" style="fill: #0000ff"/>
   </g>
   <g id="patch_51">
    <path d="M 166.480338 70.104706 
L 186.756721 70.104706 
L 186.756721 61.210588 
L 166.480338 61.210588 
z
" clip-path="url(#p03c9e1967c)" style="fill: #0000ff"/>
   </g>
   <g id="patch_52">
    <path d="M 166.480338 70.104706 
L 186.756721 70.104706 
L 186.756721 61.210588 
L 166.480338 61.210588 
z
" clip-path="url(#p03c9e1967c)" style="fill: #0000ff"/>
   </g>
   <g id="patch_53">
    <path d="M 198.658076 65.991176 
L 665.455677 65.991176 
L 665.455677 65.324118 
L 198.658076 65.324118 
z
" clip-path="url(#p03c9e1967c)" style="fill: #0000ff"/>
   </g>
   <g id="patch_54">
    <path d="M 665.896467 70.104706 
L 724.962453 70.104706 
L 724.962453 61.210588 
L 665.896467 61.210588 
z
" clip-path="url(#p03c9e1967c)" style="fill: #0000ff"/>
   </g>
   <g id="patch_55">
    <path d="M 667.21884 70.104706 
L 758.462564 70.104706 
L 758.462564 61.210588 
L 667.21884 61.210588 
z
" clip-path="url(#p03c9e1967c)" style="fill: #0000ff"/>
   </g>
   <g id="patch_56">
    <path d="M 670.304377 70.104706 
L 753.613864 70.104706 
L 753.613864 61.210588 
L 670.304377 61.210588 
z
" clip-path="url(#p03c9e1967c)" style="fill: #0000ff"/>
   </g>
   <g id="patch_57">
    <path d="M 672.508331 70.104706 
L 847.502333 70.104706 
L 847.502333 61.210588 
L 672.508331 61.210588 
z
" clip-path="url(#p03c9e1967c)" style="fill: #0000ff"/>
   </g>
   <g id="patch_58">
    <path d="M 673.830704 70.104706 
L 868.219507 70.104706 
L 868.219507 61.210588 
L 673.830704 61.210588 
z
" clip-path="url(#p03c9e1967c)" style="fill: #0000ff"/>
   </g>
   <g id="patch_59">
    <path d="M 674.712286 70.104706 
L 863.811597 70.104706 
L 863.811597 61.210588 
L 674.712286 61.210588 
z
" clip-path="url(#p03c9e1967c)" style="fill: #0000ff"/>
   </g>
   <g id="patch_60">
    <path d="M 675.593868 70.104706 
L 757.140191 70.104706 
L 757.140191 61.210588 
L 675.593868 61.210588 
z
" clip-path="url(#p03c9e1967c)" style="fill: #0000ff"/>
   </g>
   <g id="patch_61">
    <path d="M 676.034659 70.104706 
L 756.258609 70.104706 
L 756.258609 61.210588 
L 676.034659 61.210588 
z
" clip-path="url(#p03c9e1967c)" style="fill: #0000ff"/>
   </g>
   <g id="patch_62">
    <path d="M 676.47545 70.104706 
L 866.015552 70.104706 
L 866.015552 61.210588 
L 676.47545 61.210588 
z
" clip-path="url(#p03c9e1967c)" style="fill: #0000ff"/>
   </g>
   <g id="patch_63">
    <path d="M 676.916241 70.104706 
L 866.015552 70.104706 
L 866.015552 61.210588 
L 676.916241 61.210588 
z
" clip-path="url(#p03c9e1967c)" style="fill: #0000ff"/>
   </g>
   <g id="patch_64">
    <path d="M 677.797823 70.104706 
L 842.212842 70.104706 
L 842.212842 61.210588 
L 677.797823 61.210588 
z
" clip-path="url(#p03c9e1967c)" style="fill: #0000ff"/>
   </g>
   <g id="patch_65">
    <path d="M 678.238614 70.104706 
L 842.212842 70.104706 
L 842.212842 61.210588 
L 678.238614 61.210588 
z
" clip-path="url(#p03c9e1967c)" style="fill: #0000ff"/>
   </g>
   <g id="patch_66">
    <path d="M 678.238614 70.104706 
L 866.015552 70.104706 
L 866.015552 61.210588 
L 678.238614 61.210588 
z
" clip-path="url(#p03c9e1967c)" style="fill: #0000ff"/>
   </g>
   <g id="patch_67">
    <path d="M 678.679405 70.104706 
L 861.607643 70.104706 
L 861.607643 61.210588 
L 678.679405 61.210588 
z
" clip-path="url(#p03c9e1967c)" style="fill: #0000ff"/>
   </g>
   <g id="patch_68">
    <path d="M 678.679405 70.104706 
L 866.015552 70.104706 
L 866.015552 61.210588 
L 678.679405 61.210588 
z
" clip-path="url(#p03c9e1967c)" style="fill: #0000ff"/>
   </g>
   <g id="patch_69">
    <path d="M 678.679405 70.104706 
L 841.33126 70.104706 
L 841.33126 61.210588 
L 678.679405 61.210588 
z
" clip-path="url(#p03c9e1967c)" style="fill: #0000ff"/>
   </g>
   <g id="patch_70">
    <path d="M 678.679405 70.104706 
L 866.015552 70.104706 
L 866.015552 61.210588 
L 678.679405 61.210588 
z
" clip-path="url(#p03c9e1967c)" style="fill: #0000ff"/>
   </g>
   <g id="patch_71">
    <path d="M 679.120196 70.104706 
L 847.943124 70.104706 
L 847.943124 61.210588 
L 679.120196 61.210588 
z
" clip-path="url(#p03c9e1967c)" style="fill: #0000ff"/>
   </g>
   <g id="patch_72">
    <path d="M 683.528105 70.104706 
L 777.416574 70.104706 
L 777.416574 61.210588 
L 683.528105 61.210588 
z
" clip-path="url(#p03c9e1967c)" style="fill: #0000ff"/>
   </g>
   <g id="patch_73">
    <path d="M 684.850478 70.104706 
L 847.502333 70.104706 
L 847.502333 61.210588 
L 684.850478 61.210588 
z
" clip-path="url(#p03c9e1967c)" style="fill: #0000ff"/>
   </g>
   <g id="patch_74">
    <path d="M 690.58076 70.104706 
L 818.410131 70.104706 
L 818.410131 61.210588 
L 690.58076 61.210588 
z
" clip-path="url(#p03c9e1967c)" style="fill: #0000ff"/>
   </g>
   <g id="patch_75">
    <path d="M 703.363697 70.104706 
L 763.311264 70.104706 
L 763.311264 61.210588 
L 703.363697 61.210588 
z
" clip-path="url(#p03c9e1967c)" style="fill: #0000ff"/>
   </g>
   <g id="patch_76">
    <path d="M 714.38347 70.104706 
L 818.850922 70.104706 
L 818.850922 61.210588 
L 714.38347 61.210588 
z
" clip-path="url(#p03c9e1967c)" style="fill: #0000ff"/>
   </g>
   <g id="patch_77">
    <path d="M 720.113752 70.104706 
L 817.96934 70.104706 
L 817.96934 61.210588 
L 720.113752 61.210588 
z
" clip-path="url(#p03c9e1967c)" style="fill: #0000ff"/>
   </g>
   <g id="patch_78">
    <path d="M 862.048434 70.104706 
L 984.147523 70.104706 
L 984.147523 61.210588 
L 862.048434 61.210588 
z
" clip-path="url(#p03c9e1967c)" style="fill: #0000ff"/>
   </g>
   <g id="patch_79">
    <path d="M 865.13397 70.104706 
L 984.147523 70.104706 
L 984.147523 61.210588 
L 865.13397 61.210588 
z
" clip-path="url(#p03c9e1967c)" style="fill: #0000ff"/>
   </g>
   <g id="patch_80">
    <path d="M 866.456343 70.104706 
L 972.686958 70.104706 
L 972.686958 61.210588 
L 866.456343 61.210588 
z
" clip-path="url(#p03c9e1967c)" style="fill: #0000ff"/>
   </g>
   <g id="patch_81">
    <path d="M 868.219507 70.104706 
L 979.298822 70.104706 
L 979.298822 61.210588 
L 868.219507 61.210588 
z
" clip-path="url(#p03c9e1967c)" style="fill: #0000ff"/>
   </g>
   <g id="patch_82">
    <path d="M 868.219507 70.104706 
L 927.285492 70.104706 
L 927.285492 61.210588 
L 868.219507 61.210588 
z
" clip-path="url(#p03c9e1967c)" style="fill: #0000ff"/>
   </g>
   <g id="patch_83">
    <path d="M 873.068207 70.104706 
L 969.601422 70.104706 
L 969.601422 61.210588 
L 873.068207 61.210588 
z
" clip-path="url(#p03c9e1967c)" style="fill: #0000ff"/>
   </g>
   <g id="patch_84">
    <path d="M 144 43.755882 
L 161.631637 43.755882 
L 161.631637 43.088824 
L 144 43.088824 
z
" clip-path="url(#p03c9e1967c)" style="fill: #0000ff"/>
   </g>
   <g id="patch_85">
    <path d="M 162.072428 47.869412 
L 193.368585 47.869412 
L 193.368585 38.975294 
L 162.072428 38.975294 
z
" clip-path="url(#p03c9e1967c)" style="fill: #0000ff"/>
   </g>
   <g id="patch_86">
    <path d="M 162.513219 47.869412 
L 193.809376 47.869412 
L 193.809376 38.975294 
L 162.513219 38.975294 
z
" clip-path="url(#p03c9e1967c)" style="fill: #0000ff"/>
   </g>
   <g id="patch_87">
    <path d="M 194.250167 43.755882 
L 197.776494 43.755882 
L 197.776494 43.088824 
L 194.250167 43.088824 
z
" clip-path="url(#p03c9e1967c)" style="fill: #0000ff"/>
   </g>
   <g id="patch_88">
    <path d="M 198.217285 47.869412 
L 266.099089 47.869412 
L 266.099089 38.975294 
L 198.217285 38.975294 
z
" clip-path="url(#p03c9e1967c)" style="fill: #0000ff"/>
   </g>
   <g id="patch_89">
    <path d="M 212.763386 47.869412 
L 377.178405 47.869412 
L 377.178405 38.975294 
L 212.763386 38.975294 
z
" clip-path="url(#p03c9e1967c)" style="fill: #0000ff"/>
   </g>
   <g id="patch_90">
    <path d="M 227.750278 47.869412 
L 439.770718 47.869412 
L 439.770718 38.975294 
L 227.750278 38.975294 
z
" clip-path="url(#p03c9e1967c)" style="fill: #0000ff"/>
   </g>
   <g id="patch_91">
    <path d="M 278.882026 47.869412 
L 691.903133 47.869412 
L 691.903133 38.975294 
L 278.882026 38.975294 
z
" clip-path="url(#p03c9e1967c)" style="fill: #0000ff"/>
   </g>
   <g id="patch_92">
    <path d="M 289.9018 47.869412 
L 420.816707 47.869412 
L 420.816707 38.975294 
L 289.9018 38.975294 
z
" clip-path="url(#p03c9e1967c)" style="fill: #0000ff"/>
   </g>
   <g id="patch_93">
    <path d="M 349.849367 47.869412 
L 405.389025 47.869412 
L 405.389025 38.975294 
L 349.849367 38.975294 
z
" clip-path="url(#p03c9e1967c)" style="fill: #0000ff"/>
   </g>
   <g id="patch_94">
    <path d="M 353.375694 47.869412 
L 410.237725 47.869412 
L 410.237725 38.975294 
L 353.375694 38.975294 
z
" clip-path="url(#p03c9e1967c)" style="fill: #0000ff"/>
   </g>
   <g id="patch_95">
    <path d="M 356.461231 47.869412 
L 670.745168 47.869412 
L 670.745168 38.975294 
L 356.461231 38.975294 
z
" clip-path="url(#p03c9e1967c)" style="fill: #0000ff"/>
   </g>
   <g id="patch_96">
    <path d="M 358.665186 47.869412 
L 426.54699 47.869412 
L 426.54699 38.975294 
L 358.665186 38.975294 
z
" clip-path="url(#p03c9e1967c)" style="fill: #0000ff"/>
   </g>
   <g id="patch_97">
    <path d="M 359.105976 47.869412 
L 409.356143 47.869412 
L 409.356143 38.975294 
L 359.105976 38.975294 
z
" clip-path="url(#p03c9e1967c)" style="fill: #0000ff"/>
   </g>
   <g id="patch_98">
    <path d="M 359.987558 47.869412 
L 420.816707 47.869412 
L 420.816707 38.975294 
L 359.987558 38.975294 
z
" clip-path="url(#p03c9e1967c)" style="fill: #0000ff"/>
   </g>
   <g id="patch_99">
    <path d="M 360.428349 47.869412 
L 404.066652 47.869412 
L 404.066652 38.975294 
L 360.428349 38.975294 
z
" clip-path="url(#p03c9e1967c)" style="fill: #0000ff"/>
   </g>
   <g id="patch_100">
    <path d="M 361.309931 47.869412 
L 703.804488 47.869412 
L 703.804488 38.975294 
L 361.309931 38.975294 
z
" clip-path="url(#p03c9e1967c)" style="fill: #0000ff"/>
   </g>
   <g id="patch_101">
    <path d="M 361.750722 47.869412 
L 678.238614 47.869412 
L 678.238614 38.975294 
L 361.750722 38.975294 
z
" clip-path="url(#p03c9e1967c)" style="fill: #0000ff"/>
   </g>
   <g id="patch_102">
    <path d="M 361.750722 47.869412 
L 425.665408 47.869412 
L 425.665408 38.975294 
L 361.750722 38.975294 
z
" clip-path="url(#p03c9e1967c)" style="fill: #0000ff"/>
   </g>
   <g id="patch_103">
    <path d="M 361.750722 47.869412 
L 417.731171 47.869412 
L 417.731171 38.975294 
L 361.750722 38.975294 
z
" clip-path="url(#p03c9e1967c)" style="fill: #0000ff"/>
   </g>
   <g id="patch_104">
    <path d="M 361.750722 47.869412 
L 420.375916 47.869412 
L 420.375916 38.975294 
L 361.750722 38.975294 
z
" clip-path="url(#p03c9e1967c)" style="fill: #0000ff"/>
   </g>
   <g id="patch_105">
    <path d="M 361.750722 47.869412 
L 410.678516 47.869412 
L 410.678516 38.975294 
L 361.750722 38.975294 
z
" clip-path="url(#p03c9e1967c)" style="fill: #0000ff"/>
   </g>
   <g id="patch_106">
    <path d="M 361.750722 47.869412 
L 409.796934 47.869412 
L 409.796934 38.975294 
L 361.750722 38.975294 
z
" clip-path="url(#p03c9e1967c)" style="fill: #0000ff"/>
   </g>
   <g id="patch_107">
    <path d="M 361.750722 47.869412 
L 434.040435 47.869412 
L 434.040435 38.975294 
L 361.750722 38.975294 
z
" clip-path="url(#p03c9e1967c)" style="fill: #0000ff"/>
   </g>
   <g id="patch_108">
    <path d="M 361.750722 47.869412 
L 404.066652 47.869412 
L 404.066652 38.975294 
L 361.750722 38.975294 
z
" clip-path="url(#p03c9e1967c)" style="fill: #0000ff"/>
   </g>
   <g id="patch_109">
    <path d="M 361.750722 47.869412 
L 441.533881 47.869412 
L 441.533881 38.975294 
L 361.750722 38.975294 
z
" clip-path="url(#p03c9e1967c)" style="fill: #0000ff"/>
   </g>
   <g id="patch_110">
    <path d="M 361.750722 47.869412 
L 405.389025 47.869412 
L 405.389025 38.975294 
L 361.750722 38.975294 
z
" clip-path="url(#p03c9e1967c)" style="fill: #0000ff"/>
   </g>
   <g id="patch_111">
    <path d="M 361.750722 47.869412 
L 410.678516 47.869412 
L 410.678516 38.975294 
L 361.750722 38.975294 
z
" clip-path="url(#p03c9e1967c)" style="fill: #0000ff"/>
   </g>
   <g id="patch_112">
    <path d="M 361.750722 47.869412 
L 423.461453 47.869412 
L 423.461453 38.975294 
L 361.750722 38.975294 
z
" clip-path="url(#p03c9e1967c)" style="fill: #0000ff"/>
   </g>
   <g id="patch_113">
    <path d="M 363.073095 47.869412 
L 689.699178 47.869412 
L 689.699178 38.975294 
L 363.073095 38.975294 
z
" clip-path="url(#p03c9e1967c)" style="fill: #0000ff"/>
   </g>
   <g id="patch_114">
    <path d="M 363.073095 47.869412 
L 408.474561 47.869412 
L 408.474561 38.975294 
L 363.073095 38.975294 
z
" clip-path="url(#p03c9e1967c)" style="fill: #0000ff"/>
   </g>
   <g id="patch_115">
    <path d="M 363.954677 47.869412 
L 407.592979 47.869412 
L 407.592979 38.975294 
L 363.954677 38.975294 
z
" clip-path="url(#p03c9e1967c)" style="fill: #0000ff"/>
   </g>
   <g id="patch_116">
    <path d="M 508.974894 47.869412 
L 670.745168 47.869412 
L 670.745168 38.975294 
L 508.974894 38.975294 
z
" clip-path="url(#p03c9e1967c)" style="fill: #0000ff"/>
   </g>
   <g id="patch_117">
    <path d="M 509.856476 47.869412 
L 677.797823 47.869412 
L 677.797823 38.975294 
L 509.856476 38.975294 
z
" clip-path="url(#p03c9e1967c)" style="fill: #0000ff"/>
   </g>
   <g id="patch_118">
    <path d="M 510.738058 47.869412 
L 672.949122 47.869412 
L 672.949122 38.975294 
L 510.738058 38.975294 
z
" clip-path="url(#p03c9e1967c)" style="fill: #0000ff"/>
   </g>
   <g id="patch_119">
    <path d="M 519.553877 47.869412 
L 656.639858 47.869412 
L 656.639858 38.975294 
L 519.553877 38.975294 
z
" clip-path="url(#p03c9e1967c)" style="fill: #0000ff"/>
   </g>
   <g id="patch_120">
    <path d="M 519.994668 47.869412 
L 691.021551 47.869412 
L 691.021551 38.975294 
L 519.994668 38.975294 
z
" clip-path="url(#p03c9e1967c)" style="fill: #0000ff"/>
   </g>
   <g id="patch_121">
    <path d="M 527.047323 47.869412 
L 691.021551 47.869412 
L 691.021551 38.975294 
L 527.047323 38.975294 
z
" clip-path="url(#p03c9e1967c)" style="fill: #0000ff"/>
   </g>
   <g id="patch_122">
    <path d="M 527.488114 47.869412 
L 678.238614 47.869412 
L 678.238614 38.975294 
L 527.488114 38.975294 
z
" clip-path="url(#p03c9e1967c)" style="fill: #0000ff"/>
   </g>
   <g id="patch_123">
    <path d="M 528.369696 47.869412 
L 701.159742 47.869412 
L 701.159742 38.975294 
L 528.369696 38.975294 
z
" clip-path="url(#p03c9e1967c)" style="fill: #0000ff"/>
   </g>
   <g id="patch_124">
    <path d="M 530.57365 47.869412 
L 674.712286 47.869412 
L 674.712286 38.975294 
L 530.57365 38.975294 
z
" clip-path="url(#p03c9e1967c)" style="fill: #0000ff"/>
   </g>
   <g id="patch_125">
    <path d="M 531.014441 47.869412 
L 665.896467 47.869412 
L 665.896467 38.975294 
L 531.014441 38.975294 
z
" clip-path="url(#p03c9e1967c)" style="fill: #0000ff"/>
   </g>
   <g id="patch_126">
    <path d="M 544.238169 47.869412 
L 648.26483 47.869412 
L 648.26483 38.975294 
L 544.238169 38.975294 
z
" clip-path="url(#p03c9e1967c)" style="fill: #0000ff"/>
   </g>
   <g id="patch_127">
    <path d="M 553.053988 47.869412 
L 671.185959 47.869412 
L 671.185959 38.975294 
L 553.053988 38.975294 
z
" clip-path="url(#p03c9e1967c)" style="fill: #0000ff"/>
   </g>
   <g id="patch_128">
    <path d="M 554.817152 47.869412 
L 685.73206 47.869412 
L 685.73206 38.975294 
L 554.817152 38.975294 
z
" clip-path="url(#p03c9e1967c)" style="fill: #0000ff"/>
   </g>
   <g id="patch_129">
    <path d="M 554.817152 47.869412 
L 690.58076 47.869412 
L 690.58076 38.975294 
L 554.817152 38.975294 
z
" clip-path="url(#p03c9e1967c)" style="fill: #0000ff"/>
   </g>
   <g id="patch_130">
    <path d="M 581.705399 47.869412 
L 689.258387 47.869412 
L 689.258387 38.975294 
L 581.705399 38.975294 
z
" clip-path="url(#p03c9e1967c)" style="fill: #0000ff"/>
   </g>
   <g id="patch_131">
    <path d="M 704.245279 43.755882 
L 773.890247 43.755882 
L 773.890247 43.088824 
L 704.245279 43.088824 
z
" clip-path="url(#p03c9e1967c)" style="fill: #0000ff"/>
   </g>
   <g id="patch_132">
    <path d="M 144 21.520588 
L 156.342146 21.520588 
L 156.342146 20.853529 
L 144 20.853529 
z
" clip-path="url(#p03c9e1967c)" style="fill: #0000ff"/>
   </g>
   <g id="patch_133">
    <path d="M 156.782937 25.634118 
L 195.572539 25.634118 
L 195.572539 16.74 
L 156.782937 16.74 
z
" clip-path="url(#p03c9e1967c)" style="fill: #0000ff"/>
   </g>
   <g id="patch_134">
    <path d="M 157.223728 25.634118 
L 188.960675 25.634118 
L 188.960675 16.74 
L 157.223728 16.74 
z
" clip-path="url(#p03c9e1967c)" style="fill: #0000ff"/>
   </g>
   <g id="patch_135">
    <path d="M 157.223728 25.634118 
L 188.960675 25.634118 
L 188.960675 16.74 
L 157.223728 16.74 
z
" clip-path="url(#p03c9e1967c)" style="fill: #0000ff"/>
   </g>
   <g id="patch_136">
    <path d="M 157.223728 25.634118 
L 188.519884 25.634118 
L 188.519884 16.74 
L 157.223728 16.74 
z
" clip-path="url(#p03c9e1967c)" style="fill: #0000ff"/>
   </g>
   <g id="patch_137">
    <path d="M 157.664519 25.634118 
L 188.519884 25.634118 
L 188.519884 16.74 
L 157.664519 16.74 
z
" clip-path="url(#p03c9e1967c)" style="fill: #0000ff"/>
   </g>
   <g id="patch_138">
    <path d="M 163.835592 25.634118 
L 187.197512 25.634118 
L 187.197512 16.74 
L 163.835592 16.74 
z
" clip-path="url(#p03c9e1967c)" style="fill: #0000ff"/>
   </g>
   <g id="patch_139">
    <path d="M 196.01333 21.520588 
L 438.007554 21.520588 
L 438.007554 20.853529 
L 196.01333 20.853529 
z
" clip-path="url(#p03c9e1967c)" style="fill: #0000ff"/>
   </g>
   <g id="patch_140">
    <path d="M 438.448345 25.634118 
L 641.652966 25.634118 
L 641.652966 16.74 
L 438.448345 16.74 
z
" clip-path="url(#p03c9e1967c)" style="fill: #0000ff"/>
   </g>
   <g id="patch_141">
    <path d="M 444.178627 25.634118 
L 633.718729 25.634118 
L 633.718729 16.74 
L 444.178627 16.74 
z
" clip-path="url(#p03c9e1967c)" style="fill: #0000ff"/>
   </g>
   <g id="patch_142">
    <path d="M 444.178627 25.634118 
L 632.396356 25.634118 
L 632.396356 16.74 
L 444.178627 16.74 
z
" clip-path="url(#p03c9e1967c)" style="fill: #0000ff"/>
   </g>
   <g id="patch_143">
    <path d="M 444.178627 25.634118 
L 632.837147 25.634118 
L 632.837147 16.74 
L 444.178627 16.74 
z
" clip-path="url(#p03c9e1967c)" style="fill: #0000ff"/>
   </g>
   <g id="patch_144">
    <path d="M 445.060209 25.634118 
L 632.396356 25.634118 
L 632.396356 16.74 
L 445.060209 16.74 
z
" clip-path="url(#p03c9e1967c)" style="fill: #0000ff"/>
   </g>
   <g id="patch_145">
    <path d="M 447.704954 25.634118 
L 631.955565 25.634118 
L 631.955565 16.74 
L 447.704954 16.74 
z
" clip-path="url(#p03c9e1967c)" style="fill: #0000ff"/>
   </g>
   <g id="patch_146">
    <path d="M 449.468118 25.634118 
L 627.988447 25.634118 
L 627.988447 16.74 
L 449.468118 16.74 
z
" clip-path="url(#p03c9e1967c)" style="fill: #0000ff"/>
   </g>
   <g id="patch_147">
    <path d="M 449.468118 25.634118 
L 634.15952 25.634118 
L 634.15952 16.74 
L 449.468118 16.74 
z
" clip-path="url(#p03c9e1967c)" style="fill: #0000ff"/>
   </g>
   <g id="patch_148">
    <path d="M 449.468118 25.634118 
L 632.396356 25.634118 
L 632.396356 16.74 
L 449.468118 16.74 
z
" clip-path="url(#p03c9e1967c)" style="fill: #0000ff"/>
   </g>
   <g id="patch_149">
    <path d="M 449.908909 25.634118 
L 631.955565 25.634118 
L 631.955565 16.74 
L 449.908909 16.74 
z
" clip-path="url(#p03c9e1967c)" style="fill: #0000ff"/>
   </g>
   <g id="patch_150">
    <path d="M 458.724728 25.634118 
L 625.784492 25.634118 
L 625.784492 16.74 
L 458.724728 16.74 
z
" clip-path="url(#p03c9e1967c)" style="fill: #0000ff"/>
   </g>
   <g id="patch_151">
    <path d="M 473.270829 25.634118 
L 610.797601 25.634118 
L 610.797601 16.74 
L 473.270829 16.74 
z
" clip-path="url(#p03c9e1967c)" style="fill: #0000ff"/>
   </g>
   <g id="patch_152">
    <path d="M 481.645856 25.634118 
L 629.31082 25.634118 
L 629.31082 16.74 
L 481.645856 16.74 
z
" clip-path="url(#p03c9e1967c)" style="fill: #0000ff"/>
   </g>
   <g id="patch_153">
    <path d="M 483.40902 25.634118 
L 532.777605 25.634118 
L 532.777605 16.74 
L 483.40902 16.74 
z
" clip-path="url(#p03c9e1967c)" style="fill: #0000ff"/>
   </g>
   <g id="patch_154">
    <path d="M 485.612975 25.634118 
L 623.139747 25.634118 
L 623.139747 16.74 
L 485.612975 16.74 
z
" clip-path="url(#p03c9e1967c)" style="fill: #0000ff"/>
   </g>
   <g id="patch_155">
    <path d="M 486.935348 25.634118 
L 632.396356 25.634118 
L 632.396356 16.74 
L 486.935348 16.74 
z
" clip-path="url(#p03c9e1967c)" style="fill: #0000ff"/>
   </g>
   <g id="patch_156">
    <path d="M 496.191957 25.634118 
L 607.712064 25.634118 
L 607.712064 16.74 
L 496.191957 16.74 
z
" clip-path="url(#p03c9e1967c)" style="fill: #0000ff"/>
   </g>
   <g id="patch_157">
    <path d="M 501.481449 25.634118 
L 618.291046 25.634118 
L 618.291046 16.74 
L 501.481449 16.74 
z
" clip-path="url(#p03c9e1967c)" style="fill: #0000ff"/>
   </g>
   <g id="patch_158">
    <path d="M 507.211731 25.634118 
L 610.797601 25.634118 
L 610.797601 16.74 
L 507.211731 16.74 
z
" clip-path="url(#p03c9e1967c)" style="fill: #0000ff"/>
   </g>
   <g id="patch_159">
    <path d="M 514.264386 25.634118 
L 607.271273 25.634118 
L 607.271273 16.74 
L 514.264386 16.74 
z
" clip-path="url(#p03c9e1967c)" style="fill: #0000ff"/>
   </g>
   <g id="patch_160">
    <path d="M 549.527661 25.634118 
L 608.593646 25.634118 
L 608.593646 16.74 
L 549.527661 16.74 
z
" clip-path="url(#p03c9e1967c)" style="fill: #0000ff"/>
   </g>
   <g id="patch_161">
    <path d="M 565.836925 25.634118 
L 624.46212 25.634118 
L 624.46212 16.74 
L 565.836925 16.74 
z
" clip-path="url(#p03c9e1967c)" style="fill: #0000ff"/>
   </g>
   <g id="patch_162">
    <path d="M 642.093757 21.520588 
L 765.95601 21.520588 
L 765.95601 20.853529 
L 642.093757 20.853529 
z
" clip-path="url(#p03c9e1967c)" style="fill: #0000ff"/>
   </g>
   <g id="matplotlib.axis_1">
    <g id="xtick_1">
     <g id="line2d_1">
      <defs>
       <path id="m3cdc422652" d="M 0 0 
L 0 3.5 
" style="stroke: #000000; stroke-width: 0.8"/>
      </defs>
      <g>
       <use xlink:href="#m3cdc422652" x="253.756943" y="96.12" style="stroke: #000000; stroke-width: 0.8"/>
      </g>
     </g>
     <g id="text_1">
      <!-- 250 -->
      <g transform="translate(244.213193 110.718438) scale(0.1 -0.1)">
       <defs>
        <path id="DejaVuSans-32" d="M 1228 531 
L 3431 531 
L 3431 0 
L 469 0 
L 469 531 
Q 828 903 1448 1529 
Q 2069 2156 2228 2338 
Q 2531 2678 2651 2914 
Q 2772 3150 2772 3378 
Q 2772 3750 2511 3984 
Q 2250 4219 1831 4219 
Q 1534 4219 1204 4116 
Q 875 4013 500 3803 
L 500 4441 
Q 881 4594 1212 4672 
Q 1544 4750 1819 4750 
Q 2544 4750 2975 4387 
Q 3406 4025 3406 3419 
Q 3406 3131 3298 2873 
Q 3191 2616 2906 2266 
Q 2828 2175 2409 1742 
Q 1991 1309 1228 531 
z
" transform="scale(0.015625)"/>
        <path id="DejaVuSans-35" d="M 691 4666 
L 3169 4666 
L 3169 4134 
L 1269 4134 
L 1269 2991 
Q 1406 3038 1543 3061 
Q 1681 3084 1819 3084 
Q 2600 3084 3056 2656 
Q 3513 2228 3513 1497 
Q 3513 744 3044 326 
Q 2575 -91 1722 -91 
Q 1428 -91 1123 -41 
Q 819 9 494 109 
L 494 744 
Q 775 591 1075 516 
Q 1375 441 1709 441 
Q 2250 441 2565 725 
Q 2881 1009 2881 1497 
Q 2881 1984 2565 2268 
Q 2250 2553 1709 2553 
Q 1456 2553 1204 2497 
Q 953 2441 691 2322 
L 691 4666 
z
" transform="scale(0.015625)"/>
        <path id="DejaVuSans-30" d="M 2034 4250 
Q 1547 4250 1301 3770 
Q 1056 3291 1056 2328 
Q 1056 1369 1301 889 
Q 1547 409 2034 409 
Q 2525 409 2770 889 
Q 3016 1369 3016 2328 
Q 3016 3291 2770 3770 
Q 2525 4250 2034 4250 
z
M 2034 4750 
Q 2819 4750 3233 4129 
Q 3647 3509 3647 2328 
Q 3647 1150 3233 529 
Q 2819 -91 2034 -91 
Q 1250 -91 836 529 
Q 422 1150 422 2328 
Q 422 3509 836 4129 
Q 1250 4750 2034 4750 
z
" transform="scale(0.015625)"/>
       </defs>
       <use xlink:href="#DejaVuSans-32"/>
       <use xlink:href="#DejaVuSans-35" x="63.623047"/>
       <use xlink:href="#DejaVuSans-30" x="127.246094"/>
      </g>
     </g>
    </g>
    <g id="xtick_2">
     <g id="line2d_2">
      <g>
       <use xlink:href="#m3cdc422652" x="363.954677" y="96.12" style="stroke: #000000; stroke-width: 0.8"/>
      </g>
     </g>
     <g id="text_2">
      <!-- 500 -->
      <g transform="translate(354.410927 110.718438) scale(0.1 -0.1)">
       <use xlink:href="#DejaVuSans-35"/>
       <use xlink:href="#DejaVuSans-30" x="63.623047"/>
       <use xlink:href="#DejaVuSans-30" x="127.246094"/>
      </g>
     </g>
    </g>
    <g id="xtick_3">
     <g id="line2d_3">
      <g>
       <use xlink:href="#m3cdc422652" x="474.152411" y="96.12" style="stroke: #000000; stroke-width: 0.8"/>
      </g>
     </g>
     <g id="text_3">
      <!-- 750 -->
      <g transform="translate(464.608661 110.718438) scale(0.1 -0.1)">
       <defs>
        <path id="DejaVuSans-37" d="M 525 4666 
L 3525 4666 
L 3525 4397 
L 1831 0 
L 1172 0 
L 2766 4134 
L 525 4134 
L 525 4666 
z
" transform="scale(0.015625)"/>
       </defs>
       <use xlink:href="#DejaVuSans-37"/>
       <use xlink:href="#DejaVuSans-35" x="63.623047"/>
       <use xlink:href="#DejaVuSans-30" x="127.246094"/>
      </g>
     </g>
    </g>
    <g id="xtick_4">
     <g id="line2d_4">
      <g>
       <use xlink:href="#m3cdc422652" x="584.350144" y="96.12" style="stroke: #000000; stroke-width: 0.8"/>
      </g>
     </g>
     <g id="text_4">
      <!-- 1000 -->
      <g transform="translate(571.625144 110.718438) scale(0.1 -0.1)">
       <defs>
        <path id="DejaVuSans-31" d="M 794 531 
L 1825 531 
L 1825 4091 
L 703 3866 
L 703 4441 
L 1819 4666 
L 2450 4666 
L 2450 531 
L 3481 531 
L 3481 0 
L 794 0 
L 794 531 
z
" transform="scale(0.015625)"/>
       </defs>
       <use xlink:href="#DejaVuSans-31"/>
       <use xlink:href="#DejaVuSans-30" x="63.623047"/>
       <use xlink:href="#DejaVuSans-30" x="127.246094"/>
       <use xlink:href="#DejaVuSans-30" x="190.869141"/>
      </g>
     </g>
    </g>
    <g id="xtick_5">
     <g id="line2d_5">
      <g>
       <use xlink:href="#m3cdc422652" x="694.547878" y="96.12" style="stroke: #000000; stroke-width: 0.8"/>
      </g>
     </g>
     <g id="text_5">
      <!-- 1250 -->
      <g transform="translate(681.822878 110.718438) scale(0.1 -0.1)">
       <use xlink:href="#DejaVuSans-31"/>
       <use xlink:href="#DejaVuSans-32" x="63.623047"/>
       <use xlink:href="#DejaVuSans-35" x="127.246094"/>
       <use xlink:href="#DejaVuSans-30" x="190.869141"/>
      </g>
     </g>
    </g>
    <g id="xtick_6">
     <g id="line2d_6">
      <g>
       <use xlink:href="#m3cdc422652" x="804.745612" y="96.12" style="stroke: #000000; stroke-width: 0.8"/>
      </g>
     </g>
     <g id="text_6">
      <!-- 1500 -->
      <g transform="translate(792.020612 110.718438) scale(0.1 -0.1)">
       <use xlink:href="#DejaVuSans-31"/>
       <use xlink:href="#DejaVuSans-35" x="63.623047"/>
       <use xlink:href="#DejaVuSans-30" x="127.246094"/>
       <use xlink:href="#DejaVuSans-30" x="190.869141"/>
      </g>
     </g>
    </g>
    <g id="xtick_7">
     <g id="line2d_7">
      <g>
       <use xlink:href="#m3cdc422652" x="914.943346" y="96.12" style="stroke: #000000; stroke-width: 0.8"/>
      </g>
     </g>
     <g id="text_7">
      <!-- 1750 -->
      <g transform="translate(902.218346 110.718438) scale(0.1 -0.1)">
       <use xlink:href="#DejaVuSans-31"/>
       <use xlink:href="#DejaVuSans-37" x="63.623047"/>
       <use xlink:href="#DejaVuSans-35" x="127.246094"/>
       <use xlink:href="#DejaVuSans-30" x="190.869141"/>
      </g>
     </g>
    </g>
    <g id="xtick_8">
     <g id="line2d_8">
      <g>
       <use xlink:href="#m3cdc422652" x="1025.14108" y="96.12" style="stroke: #000000; stroke-width: 0.8"/>
      </g>
     </g>
     <g id="text_8">
      <!-- 2000 -->
      <g transform="translate(1012.41608 110.718438) scale(0.1 -0.1)">
       <use xlink:href="#DejaVuSans-32"/>
       <use xlink:href="#DejaVuSans-30" x="63.623047"/>
       <use xlink:href="#DejaVuSans-30" x="127.246094"/>
       <use xlink:href="#DejaVuSans-30" x="190.869141"/>
      </g>
     </g>
    </g>
    <g id="text_9">
     <!-- Residual -->
     <g transform="translate(569.284375 124.396563) scale(0.1 -0.1)">
      <defs>
       <path id="DejaVuSans-52" d="M 2841 2188 
Q 3044 2119 3236 1894 
Q 3428 1669 3622 1275 
L 4263 0 
L 3584 0 
L 2988 1197 
Q 2756 1666 2539 1819 
Q 2322 1972 1947 1972 
L 1259 1972 
L 1259 0 
L 628 0 
L 628 4666 
L 2053 4666 
Q 2853 4666 3247 4331 
Q 3641 3997 3641 3322 
Q 3641 2881 3436 2590 
Q 3231 2300 2841 2188 
z
M 1259 4147 
L 1259 2491 
L 2053 2491 
Q 2509 2491 2742 2702 
Q 2975 2913 2975 3322 
Q 2975 3731 2742 3939 
Q 2509 4147 2053 4147 
L 1259 4147 
z
" transform="scale(0.015625)"/>
       <path id="DejaVuSans-65" d="M 3597 1894 
L 3597 1613 
L 953 1613 
Q 991 1019 1311 708 
Q 1631 397 2203 397 
Q 2534 397 2845 478 
Q 3156 559 3463 722 
L 3463 178 
Q 3153 47 2828 -22 
Q 2503 -91 2169 -91 
Q 1331 -91 842 396 
Q 353 884 353 1716 
Q 353 2575 817 3079 
Q 1281 3584 2069 3584 
Q 2775 3584 3186 3129 
Q 3597 2675 3597 1894 
z
M 3022 2063 
Q 3016 2534 2758 2815 
Q 2500 3097 2075 3097 
Q 1594 3097 1305 2825 
Q 1016 2553 972 2059 
L 3022 2063 
z
" transform="scale(0.015625)"/>
       <path id="DejaVuSans-73" d="M 2834 3397 
L 2834 2853 
Q 2591 2978 2328 3040 
Q 2066 3103 1784 3103 
Q 1356 3103 1142 2972 
Q 928 2841 928 2578 
Q 928 2378 1081 2264 
Q 1234 2150 1697 2047 
L 1894 2003 
Q 2506 1872 2764 1633 
Q 3022 1394 3022 966 
Q 3022 478 2636 193 
Q 2250 -91 1575 -91 
Q 1294 -91 989 -36 
Q 684 19 347 128 
L 347 722 
Q 666 556 975 473 
Q 1284 391 1588 391 
Q 1994 391 2212 530 
Q 2431 669 2431 922 
Q 2431 1156 2273 1281 
Q 2116 1406 1581 1522 
L 1381 1569 
Q 847 1681 609 1914 
Q 372 2147 372 2553 
Q 372 3047 722 3315 
Q 1072 3584 1716 3584 
Q 2034 3584 2315 3537 
Q 2597 3491 2834 3397 
z
" transform="scale(0.015625)"/>
       <path id="DejaVuSans-69" d="M 603 3500 
L 1178 3500 
L 1178 0 
L 603 0 
L 603 3500 
z
M 603 4863 
L 1178 4863 
L 1178 4134 
L 603 4134 
L 603 4863 
z
" transform="scale(0.015625)"/>
       <path id="DejaVuSans-64" d="M 2906 2969 
L 2906 4863 
L 3481 4863 
L 3481 0 
L 2906 0 
L 2906 525 
Q 2725 213 2448 61 
Q 2172 -91 1784 -91 
Q 1150 -91 751 415 
Q 353 922 353 1747 
Q 353 2572 751 3078 
Q 1150 3584 1784 3584 
Q 2172 3584 2448 3432 
Q 2725 3281 2906 2969 
z
M 947 1747 
Q 947 1113 1208 752 
Q 1469 391 1925 391 
Q 2381 391 2643 752 
Q 2906 1113 2906 1747 
Q 2906 2381 2643 2742 
Q 2381 3103 1925 3103 
Q 1469 3103 1208 2742 
Q 947 2381 947 1747 
z
" transform="scale(0.015625)"/>
       <path id="DejaVuSans-75" d="M 544 1381 
L 544 3500 
L 1119 3500 
L 1119 1403 
Q 1119 906 1312 657 
Q 1506 409 1894 409 
Q 2359 409 2629 706 
Q 2900 1003 2900 1516 
L 2900 3500 
L 3475 3500 
L 3475 0 
L 2900 0 
L 2900 538 
Q 2691 219 2414 64 
Q 2138 -91 1772 -91 
Q 1169 -91 856 284 
Q 544 659 544 1381 
z
M 1991 3584 
L 1991 3584 
z
" transform="scale(0.015625)"/>
       <path id="DejaVuSans-61" d="M 2194 1759 
Q 1497 1759 1228 1600 
Q 959 1441 959 1056 
Q 959 750 1161 570 
Q 1363 391 1709 391 
Q 2188 391 2477 730 
Q 2766 1069 2766 1631 
L 2766 1759 
L 2194 1759 
z
M 3341 1997 
L 3341 0 
L 2766 0 
L 2766 531 
Q 2569 213 2275 61 
Q 1981 -91 1556 -91 
Q 1019 -91 701 211 
Q 384 513 384 1019 
Q 384 1609 779 1909 
Q 1175 2209 1959 2209 
L 2766 2209 
L 2766 2266 
Q 2766 2663 2505 2880 
Q 2244 3097 1772 3097 
Q 1472 3097 1187 3025 
Q 903 2953 641 2809 
L 641 3341 
Q 956 3463 1253 3523 
Q 1550 3584 1831 3584 
Q 2591 3584 2966 3190 
Q 3341 2797 3341 1997 
z
" transform="scale(0.015625)"/>
       <path id="DejaVuSans-6c" d="M 603 4863 
L 1178 4863 
L 1178 0 
L 603 0 
L 603 4863 
z
" transform="scale(0.015625)"/>
      </defs>
      <use xlink:href="#DejaVuSans-52"/>
      <use xlink:href="#DejaVuSans-65" x="64.982422"/>
      <use xlink:href="#DejaVuSans-73" x="126.505859"/>
      <use xlink:href="#DejaVuSans-69" x="178.605469"/>
      <use xlink:href="#DejaVuSans-64" x="206.388672"/>
      <use xlink:href="#DejaVuSans-75" x="269.865234"/>
      <use xlink:href="#DejaVuSans-61" x="333.244141"/>
      <use xlink:href="#DejaVuSans-6c" x="394.523438"/>
     </g>
    </g>
   </g>
   <g id="matplotlib.axis_2">
    <g id="ytick_1">
     <g id="line2d_9">
      <defs>
       <path id="m69d726d200" d="M 0 0 
L -3.5 0 
" style="stroke: #000000; stroke-width: 0.8"/>
      </defs>
      <g>
       <use xlink:href="#m69d726d200" x="144" y="87.892941" style="stroke: #000000; stroke-width: 0.8"/>
      </g>
     </g>
     <g id="text_10">
      <!-- 9.B.113.1.1 -->
      <g transform="translate(79.251563 91.69216) scale(0.1 -0.1)">
       <defs>
        <path id="DejaVuSans-39" d="M 703 97 
L 703 672 
Q 941 559 1184 500 
Q 1428 441 1663 441 
Q 2288 441 2617 861 
Q 2947 1281 2994 2138 
Q 2813 1869 2534 1725 
Q 2256 1581 1919 1581 
Q 1219 1581 811 2004 
Q 403 2428 403 3163 
Q 403 3881 828 4315 
Q 1253 4750 1959 4750 
Q 2769 4750 3195 4129 
Q 3622 3509 3622 2328 
Q 3622 1225 3098 567 
Q 2575 -91 1691 -91 
Q 1453 -91 1209 -44 
Q 966 3 703 97 
z
M 1959 2075 
Q 2384 2075 2632 2365 
Q 2881 2656 2881 3163 
Q 2881 3666 2632 3958 
Q 2384 4250 1959 4250 
Q 1534 4250 1286 3958 
Q 1038 3666 1038 3163 
Q 1038 2656 1286 2365 
Q 1534 2075 1959 2075 
z
" transform="scale(0.015625)"/>
        <path id="DejaVuSans-2e" d="M 684 794 
L 1344 794 
L 1344 0 
L 684 0 
L 684 794 
z
" transform="scale(0.015625)"/>
        <path id="DejaVuSans-42" d="M 1259 2228 
L 1259 519 
L 2272 519 
Q 2781 519 3026 730 
Q 3272 941 3272 1375 
Q 3272 1813 3026 2020 
Q 2781 2228 2272 2228 
L 1259 2228 
z
M 1259 4147 
L 1259 2741 
L 2194 2741 
Q 2656 2741 2882 2914 
Q 3109 3088 3109 3444 
Q 3109 3797 2882 3972 
Q 2656 4147 2194 4147 
L 1259 4147 
z
M 628 4666 
L 2241 4666 
Q 2963 4666 3353 4366 
Q 3744 4066 3744 3513 
Q 3744 3084 3544 2831 
Q 3344 2578 2956 2516 
Q 3422 2416 3680 2098 
Q 3938 1781 3938 1306 
Q 3938 681 3513 340 
Q 3088 0 2303 0 
L 628 0 
L 628 4666 
z
" transform="scale(0.015625)"/>
        <path id="DejaVuSans-33" d="M 2597 2516 
Q 3050 2419 3304 2112 
Q 3559 1806 3559 1356 
Q 3559 666 3084 287 
Q 2609 -91 1734 -91 
Q 1441 -91 1130 -33 
Q 819 25 488 141 
L 488 750 
Q 750 597 1062 519 
Q 1375 441 1716 441 
Q 2309 441 2620 675 
Q 2931 909 2931 1356 
Q 2931 1769 2642 2001 
Q 2353 2234 1838 2234 
L 1294 2234 
L 1294 2753 
L 1863 2753 
Q 2328 2753 2575 2939 
Q 2822 3125 2822 3475 
Q 2822 3834 2567 4026 
Q 2313 4219 1838 4219 
Q 1578 4219 1281 4162 
Q 984 4106 628 3988 
L 628 4550 
Q 988 4650 1302 4700 
Q 1616 4750 1894 4750 
Q 2613 4750 3031 4423 
Q 3450 4097 3450 3541 
Q 3450 3153 3228 2886 
Q 3006 2619 2597 2516 
z
" transform="scale(0.015625)"/>
       </defs>
       <use xlink:href="#DejaVuSans-39"/>
       <use xlink:href="#DejaVuSans-2e" x="63.623047"/>
       <use xlink:href="#DejaVuSans-42" x="95.410156"/>
       <use xlink:href="#DejaVuSans-2e" x="164.013672"/>
       <use xlink:href="#DejaVuSans-31" x="195.800781"/>
       <use xlink:href="#DejaVuSans-31" x="259.423828"/>
       <use xlink:href="#DejaVuSans-33" x="323.046875"/>
       <use xlink:href="#DejaVuSans-2e" x="386.669922"/>
       <use xlink:href="#DejaVuSans-31" x="418.457031"/>
       <use xlink:href="#DejaVuSans-2e" x="482.080078"/>
       <use xlink:href="#DejaVuSans-31" x="513.867188"/>
      </g>
     </g>
    </g>
    <g id="ytick_2">
     <g id="line2d_10">
      <g>
       <use xlink:href="#m69d726d200" x="144" y="65.657647" style="stroke: #000000; stroke-width: 0.8"/>
      </g>
     </g>
     <g id="text_11">
      <!-- 9.B.113.1.2 -->
      <g transform="translate(79.251563 69.456866) scale(0.1 -0.1)">
       <use xlink:href="#DejaVuSans-39"/>
       <use xlink:href="#DejaVuSans-2e" x="63.623047"/>
       <use xlink:href="#DejaVuSans-42" x="95.410156"/>
       <use xlink:href="#DejaVuSans-2e" x="164.013672"/>
       <use xlink:href="#DejaVuSans-31" x="195.800781"/>
       <use xlink:href="#DejaVuSans-31" x="259.423828"/>
       <use xlink:href="#DejaVuSans-33" x="323.046875"/>
       <use xlink:href="#DejaVuSans-2e" x="386.669922"/>
       <use xlink:href="#DejaVuSans-31" x="418.457031"/>
       <use xlink:href="#DejaVuSans-2e" x="482.080078"/>
       <use xlink:href="#DejaVuSans-32" x="513.867188"/>
      </g>
     </g>
    </g>
    <g id="ytick_3">
     <g id="line2d_11">
      <g>
       <use xlink:href="#m69d726d200" x="144" y="43.422353" style="stroke: #000000; stroke-width: 0.8"/>
      </g>
     </g>
     <g id="text_12">
      <!-- 9.B.113.1.3 -->
      <g transform="translate(79.251563 47.221572) scale(0.1 -0.1)">
       <use xlink:href="#DejaVuSans-39"/>
       <use xlink:href="#DejaVuSans-2e" x="63.623047"/>
       <use xlink:href="#DejaVuSans-42" x="95.410156"/>
       <use xlink:href="#DejaVuSans-2e" x="164.013672"/>
       <use xlink:href="#DejaVuSans-31" x="195.800781"/>
       <use xlink:href="#DejaVuSans-31" x="259.423828"/>
       <use xlink:href="#DejaVuSans-33" x="323.046875"/>
       <use xlink:href="#DejaVuSans-2e" x="386.669922"/>
       <use xlink:href="#DejaVuSans-31" x="418.457031"/>
       <use xlink:href="#DejaVuSans-2e" x="482.080078"/>
       <use xlink:href="#DejaVuSans-33" x="513.867188"/>
      </g>
     </g>
    </g>
    <g id="ytick_4">
     <g id="line2d_12">
      <g>
       <use xlink:href="#m69d726d200" x="144" y="21.187059" style="stroke: #000000; stroke-width: 0.8"/>
      </g>
     </g>
     <g id="text_13">
      <!-- 9.B.113.1.4 -->
      <g transform="translate(79.251563 24.986278) scale(0.1 -0.1)">
       <defs>
        <path id="DejaVuSans-34" d="M 2419 4116 
L 825 1625 
L 2419 1625 
L 2419 4116 
z
M 2253 4666 
L 3047 4666 
L 3047 1625 
L 3713 1625 
L 3713 1100 
L 3047 1100 
L 3047 0 
L 2419 0 
L 2419 1100 
L 313 1100 
L 313 1709 
L 2253 4666 
z
" transform="scale(0.015625)"/>
       </defs>
       <use xlink:href="#DejaVuSans-39"/>
       <use xlink:href="#DejaVuSans-2e" x="63.623047"/>
       <use xlink:href="#DejaVuSans-42" x="95.410156"/>
       <use xlink:href="#DejaVuSans-2e" x="164.013672"/>
       <use xlink:href="#DejaVuSans-31" x="195.800781"/>
       <use xlink:href="#DejaVuSans-31" x="259.423828"/>
       <use xlink:href="#DejaVuSans-33" x="323.046875"/>
       <use xlink:href="#DejaVuSans-2e" x="386.669922"/>
       <use xlink:href="#DejaVuSans-31" x="418.457031"/>
       <use xlink:href="#DejaVuSans-2e" x="482.080078"/>
       <use xlink:href="#DejaVuSans-34" x="513.867188"/>
      </g>
     </g>
    </g>
   </g>
   <g id="patch_163">
    <path d="M 144 96.12 
L 144 12.96 
" style="fill: none; stroke: #000000; stroke-width: 0.8; stroke-linejoin: miter; stroke-linecap: square"/>
   </g>
   <g id="patch_164">
    <path d="M 1036.8 96.12 
L 1036.8 12.96 
" style="fill: none; stroke: #000000; stroke-width: 0.8; stroke-linejoin: miter; stroke-linecap: square"/>
   </g>
   <g id="patch_165">
    <path d="M 144 96.12 
L 1036.8 96.12 
" style="fill: none; stroke: #000000; stroke-width: 0.8; stroke-linejoin: miter; stroke-linecap: square"/>
   </g>
   <g id="patch_166">
    <path d="M 144 12.96 
L 1036.8 12.96 
" style="fill: none; stroke: #000000; stroke-width: 0.8; stroke-linejoin: miter; stroke-linecap: square"/>
   </g>
   <g id="text_14">
    <!-- 9.B.113 Summary -->
    <g transform="translate(536.297812 6.96) scale(0.12 -0.12)">
     <defs>
      <path id="DejaVuSans-20" transform="scale(0.015625)"/>
      <path id="DejaVuSans-53" d="M 3425 4513 
L 3425 3897 
Q 3066 4069 2747 4153 
Q 2428 4238 2131 4238 
Q 1616 4238 1336 4038 
Q 1056 3838 1056 3469 
Q 1056 3159 1242 3001 
Q 1428 2844 1947 2747 
L 2328 2669 
Q 3034 2534 3370 2195 
Q 3706 1856 3706 1288 
Q 3706 609 3251 259 
Q 2797 -91 1919 -91 
Q 1588 -91 1214 -16 
Q 841 59 441 206 
L 441 856 
Q 825 641 1194 531 
Q 1563 422 1919 422 
Q 2459 422 2753 634 
Q 3047 847 3047 1241 
Q 3047 1584 2836 1778 
Q 2625 1972 2144 2069 
L 1759 2144 
Q 1053 2284 737 2584 
Q 422 2884 422 3419 
Q 422 4038 858 4394 
Q 1294 4750 2059 4750 
Q 2388 4750 2728 4690 
Q 3069 4631 3425 4513 
z
" transform="scale(0.015625)"/>
      <path id="DejaVuSans-6d" d="M 3328 2828 
Q 3544 3216 3844 3400 
Q 4144 3584 4550 3584 
Q 5097 3584 5394 3201 
Q 5691 2819 5691 2113 
L 5691 0 
L 5113 0 
L 5113 2094 
Q 5113 2597 4934 2840 
Q 4756 3084 4391 3084 
Q 3944 3084 3684 2787 
Q 3425 2491 3425 1978 
L 3425 0 
L 2847 0 
L 2847 2094 
Q 2847 2600 2669 2842 
Q 2491 3084 2119 3084 
Q 1678 3084 1418 2786 
Q 1159 2488 1159 1978 
L 1159 0 
L 581 0 
L 581 3500 
L 1159 3500 
L 1159 2956 
Q 1356 3278 1631 3431 
Q 1906 3584 2284 3584 
Q 2666 3584 2933 3390 
Q 3200 3197 3328 2828 
z
" transform="scale(0.015625)"/>
      <path id="DejaVuSans-72" d="M 2631 2963 
Q 2534 3019 2420 3045 
Q 2306 3072 2169 3072 
Q 1681 3072 1420 2755 
Q 1159 2438 1159 1844 
L 1159 0 
L 581 0 
L 581 3500 
L 1159 3500 
L 1159 2956 
Q 1341 3275 1631 3429 
Q 1922 3584 2338 3584 
Q 2397 3584 2469 3576 
Q 2541 3569 2628 3553 
L 2631 2963 
z
" transform="scale(0.015625)"/>
      <path id="DejaVuSans-79" d="M 2059 -325 
Q 1816 -950 1584 -1140 
Q 1353 -1331 966 -1331 
L 506 -1331 
L 506 -850 
L 844 -850 
Q 1081 -850 1212 -737 
Q 1344 -625 1503 -206 
L 1606 56 
L 191 3500 
L 800 3500 
L 1894 763 
L 2988 3500 
L 3597 3500 
L 2059 -325 
z
" transform="scale(0.015625)"/>
     </defs>
     <use xlink:href="#DejaVuSans-39"/>
     <use xlink:href="#DejaVuSans-2e" x="63.623047"/>
     <use xlink:href="#DejaVuSans-42" x="95.410156"/>
     <use xlink:href="#DejaVuSans-2e" x="164.013672"/>
     <use xlink:href="#DejaVuSans-31" x="195.800781"/>
     <use xlink:href="#DejaVuSans-31" x="259.423828"/>
     <use xlink:href="#DejaVuSans-33" x="323.046875"/>
     <use xlink:href="#DejaVuSans-20" x="386.669922"/>
     <use xlink:href="#DejaVuSans-53" x="418.457031"/>
     <use xlink:href="#DejaVuSans-75" x="481.933594"/>
     <use xlink:href="#DejaVuSans-6d" x="545.3125"/>
     <use xlink:href="#DejaVuSans-6d" x="642.724609"/>
     <use xlink:href="#DejaVuSans-61" x="740.136719"/>
     <use xlink:href="#DejaVuSans-72" x="801.416016"/>
     <use xlink:href="#DejaVuSans-79" x="842.529297"/>
    </g>
   </g>
  </g>
 </g>
 <defs>
  <clipPath id="p03c9e1967c">
   <rect x="144" y="12.96" width="892.8" height="83.16"/>
  </clipPath>
 </defs>
</svg>
