<?xml version="1.0" encoding="utf-8" standalone="no"?>
<!DOCTYPE svg PUBLIC "-//W3C//DTD SVG 1.1//EN"
  "http://www.w3.org/Graphics/SVG/1.1/DTD/svg11.dtd">
<svg xmlns:xlink="http://www.w3.org/1999/xlink" width="1152pt" height="367.2pt" viewBox="0 0 1152 367.2" xmlns="http://www.w3.org/2000/svg" version="1.1">
 <metadata>
  <rdf:RDF xmlns:dc="http://purl.org/dc/elements/1.1/" xmlns:cc="http://creativecommons.org/ns#" xmlns:rdf="http://www.w3.org/1999/02/22-rdf-syntax-ns#">
   <cc:Work>
    <dc:type rdf:resource="http://purl.org/dc/dcmitype/StillImage"/>
    <dc:date>2024-10-25T08:07:22.663686</dc:date>
    <dc:format>image/svg+xml</dc:format>
    <dc:creator>
     <cc:Agent>
      <dc:title>Matplotlib v3.9.2, https://matplotlib.org/</dc:title>
     </cc:Agent>
    </dc:creator>
   </cc:Work>
  </rdf:RDF>
 </metadata>
 <defs>
  <style type="text/css">*{stroke-linejoin: round; stroke-linecap: butt}</style>
 </defs>
 <g id="figure_1">
  <g id="patch_1">
   <path d="M 0 367.2 
L 1152 367.2 
L 1152 0 
L 0 0 
z
" style="fill: #ffffff"/>
  </g>
  <g id="axes_1">
   <g id="patch_2">
    <path d="M 144 326.808 
L 1036.8 326.808 
L 1036.8 44.064 
L 144 44.064 
z
" style="fill: #ffffff"/>
   </g>
   <g id="patch_3">
    <path d="M 144 310.65375 
L 271.966844 310.65375 
L 271.966844 310.11825 
L 144 310.11825 
z
" clip-path="url(#pa391abd68a)" style="fill: #0000ff"/>
   </g>
   <g id="patch_4">
    <path d="M 272.737728 313.956 
L 587.258645 313.956 
L 587.258645 306.816 
L 272.737728 306.816 
z
" clip-path="url(#pa391abd68a)" style="fill: #0000ff"/>
   </g>
   <g id="patch_5">
    <path d="M 311.281958 313.956 
L 625.031991 313.956 
L 625.031991 306.816 
L 311.281958 306.816 
z
" clip-path="url(#pa391abd68a)" style="fill: #0000ff"/>
   </g>
   <g id="patch_6">
    <path d="M 312.823727 313.956 
L 625.031991 313.956 
L 625.031991 306.816 
L 312.823727 306.816 
z
" clip-path="url(#pa391abd68a)" style="fill: #0000ff"/>
   </g>
   <g id="patch_7">
    <path d="M 312.823727 313.956 
L 625.031991 313.956 
L 625.031991 306.816 
L 312.823727 306.816 
z
" clip-path="url(#pa391abd68a)" style="fill: #0000ff"/>
   </g>
   <g id="patch_8">
    <path d="M 312.823727 313.956 
L 625.031991 313.956 
L 625.031991 306.816 
L 312.823727 306.816 
z
" clip-path="url(#pa391abd68a)" style="fill: #0000ff"/>
   </g>
   <g id="patch_9">
    <path d="M 314.365497 313.956 
L 625.031991 313.956 
L 625.031991 306.816 
L 314.365497 306.816 
z
" clip-path="url(#pa391abd68a)" style="fill: #0000ff"/>
   </g>
   <g id="patch_10">
    <path d="M 315.136381 313.956 
L 624.261106 313.956 
L 624.261106 306.816 
L 315.136381 306.816 
z
" clip-path="url(#pa391abd68a)" style="fill: #0000ff"/>
   </g>
   <g id="patch_11">
    <path d="M 315.136381 313.956 
L 585.716876 313.956 
L 585.716876 306.816 
L 315.136381 306.816 
z
" clip-path="url(#pa391abd68a)" style="fill: #0000ff"/>
   </g>
   <g id="patch_12">
    <path d="M 315.136381 313.956 
L 618.094029 313.956 
L 618.094029 306.816 
L 315.136381 306.816 
z
" clip-path="url(#pa391abd68a)" style="fill: #0000ff"/>
   </g>
   <g id="patch_13">
    <path d="M 315.136381 313.956 
L 625.031991 313.956 
L 625.031991 306.816 
L 315.136381 306.816 
z
" clip-path="url(#pa391abd68a)" style="fill: #0000ff"/>
   </g>
   <g id="patch_14">
    <path d="M 315.136381 313.956 
L 624.261106 313.956 
L 624.261106 306.816 
L 315.136381 306.816 
z
" clip-path="url(#pa391abd68a)" style="fill: #0000ff"/>
   </g>
   <g id="patch_15">
    <path d="M 322.074343 313.956 
L 615.010491 313.956 
L 615.010491 306.816 
L 322.074343 306.816 
z
" clip-path="url(#pa391abd68a)" style="fill: #0000ff"/>
   </g>
   <g id="patch_16">
    <path d="M 323.616112 313.956 
L 621.177568 313.956 
L 621.177568 306.816 
L 323.616112 306.816 
z
" clip-path="url(#pa391abd68a)" style="fill: #0000ff"/>
   </g>
   <g id="patch_17">
    <path d="M 324.386997 313.956 
L 617.323145 313.956 
L 617.323145 306.816 
L 324.386997 306.816 
z
" clip-path="url(#pa391abd68a)" style="fill: #0000ff"/>
   </g>
   <g id="patch_18">
    <path d="M 331.324958 313.956 
L 625.031991 313.956 
L 625.031991 306.816 
L 331.324958 306.816 
z
" clip-path="url(#pa391abd68a)" style="fill: #0000ff"/>
   </g>
   <g id="patch_19">
    <path d="M 342.888227 313.956 
L 625.031991 313.956 
L 625.031991 306.816 
L 342.888227 306.816 
z
" clip-path="url(#pa391abd68a)" style="fill: #0000ff"/>
   </g>
   <g id="patch_20">
    <path d="M 376.807149 313.956 
L 618.094029 313.956 
L 618.094029 306.816 
L 376.807149 306.816 
z
" clip-path="url(#pa391abd68a)" style="fill: #0000ff"/>
   </g>
   <g id="patch_21">
    <path d="M 390.683072 313.956 
L 588.02953 313.956 
L 588.02953 306.816 
L 390.683072 306.816 
z
" clip-path="url(#pa391abd68a)" style="fill: #0000ff"/>
   </g>
   <g id="patch_22">
    <path d="M 399.162803 313.956 
L 617.323145 313.956 
L 617.323145 306.816 
L 399.162803 306.816 
z
" clip-path="url(#pa391abd68a)" style="fill: #0000ff"/>
   </g>
   <g id="patch_23">
    <path d="M 407.642533 313.956 
L 625.031991 313.956 
L 625.031991 306.816 
L 407.642533 306.816 
z
" clip-path="url(#pa391abd68a)" style="fill: #0000ff"/>
   </g>
   <g id="patch_24">
    <path d="M 467.000648 313.956 
L 701.349566 313.956 
L 701.349566 306.816 
L 467.000648 306.816 
z
" clip-path="url(#pa391abd68a)" style="fill: #0000ff"/>
   </g>
   <g id="patch_25">
    <path d="M 481.647455 313.956 
L 622.719337 313.956 
L 622.719337 306.816 
L 481.647455 306.816 
z
" clip-path="url(#pa391abd68a)" style="fill: #0000ff"/>
   </g>
   <g id="patch_26">
    <path d="M 502.461339 313.956 
L 601.134568 313.956 
L 601.134568 306.816 
L 502.461339 306.816 
z
" clip-path="url(#pa391abd68a)" style="fill: #0000ff"/>
   </g>
   <g id="patch_27">
    <path d="M 512.482839 313.956 
L 586.487761 313.956 
L 586.487761 306.816 
L 512.482839 306.816 
z
" clip-path="url(#pa391abd68a)" style="fill: #0000ff"/>
   </g>
   <g id="patch_28">
    <path d="M 537.922031 313.956 
L 624.261106 313.956 
L 624.261106 306.816 
L 537.922031 306.816 
z
" clip-path="url(#pa391abd68a)" style="fill: #0000ff"/>
   </g>
   <g id="patch_29">
    <path d="M 702.120451 310.65375 
L 706.745758 310.65375 
L 706.745758 310.11825 
L 702.120451 310.11825 
z
" clip-path="url(#pa391abd68a)" style="fill: #0000ff"/>
   </g>
   <g id="patch_30">
    <path d="M 144 292.80375 
L 221.08846 292.80375 
L 221.08846 292.26825 
L 144 292.26825 
z
" clip-path="url(#pa391abd68a)" style="fill: #0000ff"/>
   </g>
   <g id="patch_31">
    <path d="M 221.859345 296.106 
L 460.833571 296.106 
L 460.833571 288.966 
L 221.859345 288.966 
z
" clip-path="url(#pa391abd68a)" style="fill: #0000ff"/>
   </g>
   <g id="patch_32">
    <path d="M 221.859345 296.106 
L 411.496956 296.106 
L 411.496956 288.966 
L 221.859345 288.966 
z
" clip-path="url(#pa391abd68a)" style="fill: #0000ff"/>
   </g>
   <g id="patch_33">
    <path d="M 223.401114 296.106 
L 482.41834 296.106 
L 482.41834 288.966 
L 223.401114 288.966 
z
" clip-path="url(#pa391abd68a)" style="fill: #0000ff"/>
   </g>
   <g id="patch_34">
    <path d="M 226.484652 296.106 
L 476.251263 296.106 
L 476.251263 288.966 
L 226.484652 288.966 
z
" clip-path="url(#pa391abd68a)" style="fill: #0000ff"/>
   </g>
   <g id="patch_35">
    <path d="M 227.255537 296.106 
L 469.313301 296.106 
L 469.313301 288.966 
L 227.255537 288.966 
z
" clip-path="url(#pa391abd68a)" style="fill: #0000ff"/>
   </g>
   <g id="patch_36">
    <path d="M 228.026421 296.106 
L 410.726072 296.106 
L 410.726072 288.966 
L 228.026421 288.966 
z
" clip-path="url(#pa391abd68a)" style="fill: #0000ff"/>
   </g>
   <g id="patch_37">
    <path d="M 234.193498 296.106 
L 389.912188 296.106 
L 389.912188 288.966 
L 234.193498 288.966 
z
" clip-path="url(#pa391abd68a)" style="fill: #0000ff"/>
   </g>
   <g id="patch_38">
    <path d="M 275.821267 296.106 
L 409.955187 296.106 
L 409.955187 288.966 
L 275.821267 288.966 
z
" clip-path="url(#pa391abd68a)" style="fill: #0000ff"/>
   </g>
   <g id="patch_39">
    <path d="M 305.114881 296.106 
L 540.234685 296.106 
L 540.234685 288.966 
L 305.114881 288.966 
z
" clip-path="url(#pa391abd68a)" style="fill: #0000ff"/>
   </g>
   <g id="patch_40">
    <path d="M 541.005569 292.80375 
L 541.005569 292.80375 
L 541.005569 292.26825 
L 541.005569 292.26825 
z
" clip-path="url(#pa391abd68a)" style="fill: #0000ff"/>
   </g>
   <g id="patch_41">
    <path d="M 144 278.256 
L 462.37534 278.256 
L 462.37534 271.116 
L 144 271.116 
z
" clip-path="url(#pa391abd68a)" style="fill: #0000ff"/>
   </g>
   <g id="patch_42">
    <path d="M 144.770885 278.256 
L 436.165264 278.256 
L 436.165264 271.116 
L 144.770885 271.116 
z
" clip-path="url(#pa391abd68a)" style="fill: #0000ff"/>
   </g>
   <g id="patch_43">
    <path d="M 146.312654 278.256 
L 447.728533 278.256 
L 447.728533 271.116 
L 146.312654 271.116 
z
" clip-path="url(#pa391abd68a)" style="fill: #0000ff"/>
   </g>
   <g id="patch_44">
    <path d="M 146.312654 278.256 
L 427.685533 278.256 
L 427.685533 271.116 
L 146.312654 271.116 
z
" clip-path="url(#pa391abd68a)" style="fill: #0000ff"/>
   </g>
   <g id="patch_45">
    <path d="M 146.312654 278.256 
L 386.828649 278.256 
L 386.828649 271.116 
L 146.312654 271.116 
z
" clip-path="url(#pa391abd68a)" style="fill: #0000ff"/>
   </g>
   <g id="patch_46">
    <path d="M 147.854423 278.256 
L 457.750032 278.256 
L 457.750032 271.116 
L 147.854423 271.116 
z
" clip-path="url(#pa391abd68a)" style="fill: #0000ff"/>
   </g>
   <g id="patch_47">
    <path d="M 148.625308 278.256 
L 460.062686 278.256 
L 460.062686 271.116 
L 148.625308 271.116 
z
" clip-path="url(#pa391abd68a)" style="fill: #0000ff"/>
   </g>
   <g id="patch_48">
    <path d="M 148.625308 278.256 
L 459.291802 278.256 
L 459.291802 271.116 
L 148.625308 271.116 
z
" clip-path="url(#pa391abd68a)" style="fill: #0000ff"/>
   </g>
   <g id="patch_49">
    <path d="M 148.625308 278.256 
L 460.833571 278.256 
L 460.833571 271.116 
L 148.625308 271.116 
z
" clip-path="url(#pa391abd68a)" style="fill: #0000ff"/>
   </g>
   <g id="patch_50">
    <path d="M 150.167077 278.256 
L 459.291802 278.256 
L 459.291802 271.116 
L 150.167077 271.116 
z
" clip-path="url(#pa391abd68a)" style="fill: #0000ff"/>
   </g>
   <g id="patch_51">
    <path d="M 157.105038 278.256 
L 487.043647 278.256 
L 487.043647 271.116 
L 157.105038 271.116 
z
" clip-path="url(#pa391abd68a)" style="fill: #0000ff"/>
   </g>
   <g id="patch_52">
    <path d="M 158.646807 278.256 
L 507.857531 278.256 
L 507.857531 271.116 
L 158.646807 271.116 
z
" clip-path="url(#pa391abd68a)" style="fill: #0000ff"/>
   </g>
   <g id="patch_53">
    <path d="M 165.584769 278.256 
L 433.85261 278.256 
L 433.85261 271.116 
L 165.584769 271.116 
z
" clip-path="url(#pa391abd68a)" style="fill: #0000ff"/>
   </g>
   <g id="patch_54">
    <path d="M 180.231576 278.256 
L 446.957648 278.256 
L 446.957648 271.116 
L 180.231576 271.116 
z
" clip-path="url(#pa391abd68a)" style="fill: #0000ff"/>
   </g>
   <g id="patch_55">
    <path d="M 182.54423 278.256 
L 456.208263 278.256 
L 456.208263 271.116 
L 182.54423 271.116 
z
" clip-path="url(#pa391abd68a)" style="fill: #0000ff"/>
   </g>
   <g id="patch_56">
    <path d="M 184.856884 278.256 
L 435.394379 278.256 
L 435.394379 271.116 
L 184.856884 271.116 
z
" clip-path="url(#pa391abd68a)" style="fill: #0000ff"/>
   </g>
   <g id="patch_57">
    <path d="M 216.463152 278.256 
L 409.955187 278.256 
L 409.955187 271.116 
L 216.463152 271.116 
z
" clip-path="url(#pa391abd68a)" style="fill: #0000ff"/>
   </g>
   <g id="patch_58">
    <path d="M 218.004922 278.256 
L 460.833571 278.256 
L 460.833571 271.116 
L 218.004922 271.116 
z
" clip-path="url(#pa391abd68a)" style="fill: #0000ff"/>
   </g>
   <g id="patch_59">
    <path d="M 218.775806 278.256 
L 445.415879 278.256 
L 445.415879 271.116 
L 218.775806 271.116 
z
" clip-path="url(#pa391abd68a)" style="fill: #0000ff"/>
   </g>
   <g id="patch_60">
    <path d="M 218.775806 278.256 
L 463.917109 278.256 
L 463.917109 271.116 
L 218.775806 271.116 
z
" clip-path="url(#pa391abd68a)" style="fill: #0000ff"/>
   </g>
   <g id="patch_61">
    <path d="M 232.651729 278.256 
L 406.100764 278.256 
L 406.100764 271.116 
L 232.651729 271.116 
z
" clip-path="url(#pa391abd68a)" style="fill: #0000ff"/>
   </g>
   <g id="patch_62">
    <path d="M 260.403575 278.256 
L 455.437379 278.256 
L 455.437379 271.116 
L 260.403575 271.116 
z
" clip-path="url(#pa391abd68a)" style="fill: #0000ff"/>
   </g>
   <g id="patch_63">
    <path d="M 261.174459 278.256 
L 413.038726 278.256 
L 413.038726 271.116 
L 261.174459 271.116 
z
" clip-path="url(#pa391abd68a)" style="fill: #0000ff"/>
   </g>
   <g id="patch_64">
    <path d="M 268.112421 278.256 
L 398.391918 278.256 
L 398.391918 271.116 
L 268.112421 271.116 
z
" clip-path="url(#pa391abd68a)" style="fill: #0000ff"/>
   </g>
   <g id="patch_65">
    <path d="M 272.737728 278.256 
L 382.974226 278.256 
L 382.974226 271.116 
L 272.737728 271.116 
z
" clip-path="url(#pa391abd68a)" style="fill: #0000ff"/>
   </g>
   <g id="patch_66">
    <path d="M 291.238959 278.256 
L 544.859992 278.256 
L 544.859992 271.116 
L 291.238959 271.116 
z
" clip-path="url(#pa391abd68a)" style="fill: #0000ff"/>
   </g>
   <g id="patch_67">
    <path d="M 293.551612 278.256 
L 404.558995 278.256 
L 404.558995 271.116 
L 293.551612 271.116 
z
" clip-path="url(#pa391abd68a)" style="fill: #0000ff"/>
   </g>
   <g id="patch_68">
    <path d="M 343.659112 278.256 
L 448.499417 278.256 
L 448.499417 271.116 
L 343.659112 271.116 
z
" clip-path="url(#pa391abd68a)" style="fill: #0000ff"/>
   </g>
   <g id="patch_69">
    <path d="M 545.630877 274.95375 
L 570.299184 274.95375 
L 570.299184 274.41825 
L 545.630877 274.41825 
z
" clip-path="url(#pa391abd68a)" style="fill: #0000ff"/>
   </g>
   <g id="patch_70">
    <path d="M 144 257.10375 
L 311.281958 257.10375 
L 311.281958 256.56825 
L 144 256.56825 
z
" clip-path="url(#pa391abd68a)" style="fill: #0000ff"/>
   </g>
   <g id="patch_71">
    <path d="M 312.052843 260.406 
L 522.504339 260.406 
L 522.504339 253.266 
L 312.052843 253.266 
z
" clip-path="url(#pa391abd68a)" style="fill: #0000ff"/>
   </g>
   <g id="patch_72">
    <path d="M 325.928766 260.406 
L 519.4208 260.406 
L 519.4208 253.266 
L 325.928766 253.266 
z
" clip-path="url(#pa391abd68a)" style="fill: #0000ff"/>
   </g>
   <g id="patch_73">
    <path d="M 463.917109 260.406 
L 712.141951 260.406 
L 712.141951 253.266 
L 463.917109 253.266 
z
" clip-path="url(#pa391abd68a)" style="fill: #0000ff"/>
   </g>
   <g id="patch_74">
    <path d="M 712.912835 257.10375 
L 726.788758 257.10375 
L 726.788758 256.56825 
L 712.912835 256.56825 
z
" clip-path="url(#pa391abd68a)" style="fill: #0000ff"/>
   </g>
   <g id="patch_75">
    <path d="M 144 239.25375 
L 238.047921 239.25375 
L 238.047921 238.71825 
L 144 238.71825 
z
" clip-path="url(#pa391abd68a)" style="fill: #0000ff"/>
   </g>
   <g id="patch_76">
    <path d="M 238.818806 242.556 
L 525.587877 242.556 
L 525.587877 235.416 
L 238.818806 235.416 
z
" clip-path="url(#pa391abd68a)" style="fill: #0000ff"/>
   </g>
   <g id="patch_77">
    <path d="M 244.214998 242.556 
L 489.356301 242.556 
L 489.356301 235.416 
L 244.214998 235.416 
z
" clip-path="url(#pa391abd68a)" style="fill: #0000ff"/>
   </g>
   <g id="patch_78">
    <path d="M 244.985883 242.556 
L 502.461339 242.556 
L 502.461339 235.416 
L 244.985883 235.416 
z
" clip-path="url(#pa391abd68a)" style="fill: #0000ff"/>
   </g>
   <g id="patch_79">
    <path d="M 276.592151 242.556 
L 386.057765 242.556 
L 386.057765 235.416 
L 276.592151 235.416 
z
" clip-path="url(#pa391abd68a)" style="fill: #0000ff"/>
   </g>
   <g id="patch_80">
    <path d="M 461.604455 242.556 
L 544.859992 242.556 
L 544.859992 235.416 
L 461.604455 235.416 
z
" clip-path="url(#pa391abd68a)" style="fill: #0000ff"/>
   </g>
   <g id="patch_81">
    <path d="M 545.630877 239.25375 
L 560.277684 239.25375 
L 560.277684 238.71825 
L 545.630877 238.71825 
z
" clip-path="url(#pa391abd68a)" style="fill: #0000ff"/>
   </g>
   <g id="patch_82">
    <path d="M 144 221.40375 
L 397.621034 221.40375 
L 397.621034 220.86825 
L 144 220.86825 
z
" clip-path="url(#pa391abd68a)" style="fill: #0000ff"/>
   </g>
   <g id="patch_83">
    <path d="M 398.391918 224.706 
L 723.70522 224.706 
L 723.70522 217.566 
L 398.391918 217.566 
z
" clip-path="url(#pa391abd68a)" style="fill: #0000ff"/>
   </g>
   <g id="patch_84">
    <path d="M 408.413418 224.706 
L 714.454604 224.706 
L 714.454604 217.566 
L 408.413418 217.566 
z
" clip-path="url(#pa391abd68a)" style="fill: #0000ff"/>
   </g>
   <g id="patch_85">
    <path d="M 409.955187 224.706 
L 704.433105 224.706 
L 704.433105 217.566 
L 409.955187 217.566 
z
" clip-path="url(#pa391abd68a)" style="fill: #0000ff"/>
   </g>
   <g id="patch_86">
    <path d="M 414.580495 224.706 
L 730.643181 224.706 
L 730.643181 217.566 
L 414.580495 217.566 
z
" clip-path="url(#pa391abd68a)" style="fill: #0000ff"/>
   </g>
   <g id="patch_87">
    <path d="M 415.351379 224.706 
L 705.974874 224.706 
L 705.974874 217.566 
L 415.351379 217.566 
z
" clip-path="url(#pa391abd68a)" style="fill: #0000ff"/>
   </g>
   <g id="patch_88">
    <path d="M 433.85261 224.706 
L 702.120451 224.706 
L 702.120451 217.566 
L 433.85261 217.566 
z
" clip-path="url(#pa391abd68a)" style="fill: #0000ff"/>
   </g>
   <g id="patch_89">
    <path d="M 433.85261 224.706 
L 717.538143 224.706 
L 717.538143 217.566 
L 433.85261 217.566 
z
" clip-path="url(#pa391abd68a)" style="fill: #0000ff"/>
   </g>
   <g id="patch_90">
    <path d="M 433.85261 224.706 
L 739.893796 224.706 
L 739.893796 217.566 
L 433.85261 217.566 
z
" clip-path="url(#pa391abd68a)" style="fill: #0000ff"/>
   </g>
   <g id="patch_91">
    <path d="M 434.623494 224.706 
L 652.783836 224.706 
L 652.783836 217.566 
L 434.623494 217.566 
z
" clip-path="url(#pa391abd68a)" style="fill: #0000ff"/>
   </g>
   <g id="patch_92">
    <path d="M 436.165264 224.706 
L 753.769719 224.706 
L 753.769719 217.566 
L 436.165264 217.566 
z
" clip-path="url(#pa391abd68a)" style="fill: #0000ff"/>
   </g>
   <g id="patch_93">
    <path d="M 437.707033 224.706 
L 702.120451 224.706 
L 702.120451 217.566 
L 437.707033 217.566 
z
" clip-path="url(#pa391abd68a)" style="fill: #0000ff"/>
   </g>
   <g id="patch_94">
    <path d="M 440.019687 224.706 
L 571.840953 224.706 
L 571.840953 217.566 
L 440.019687 217.566 
z
" clip-path="url(#pa391abd68a)" style="fill: #0000ff"/>
   </g>
   <g id="patch_95">
    <path d="M 443.87411 224.706 
L 646.616759 224.706 
L 646.616759 217.566 
L 443.87411 217.566 
z
" clip-path="url(#pa391abd68a)" style="fill: #0000ff"/>
   </g>
   <g id="patch_96">
    <path d="M 445.415879 224.706 
L 712.912835 224.706 
L 712.912835 217.566 
L 445.415879 217.566 
z
" clip-path="url(#pa391abd68a)" style="fill: #0000ff"/>
   </g>
   <g id="patch_97">
    <path d="M 453.124725 224.706 
L 703.66222 224.706 
L 703.66222 217.566 
L 453.124725 217.566 
z
" clip-path="url(#pa391abd68a)" style="fill: #0000ff"/>
   </g>
   <g id="patch_98">
    <path d="M 473.167724 224.706 
L 699.036912 224.706 
L 699.036912 217.566 
L 473.167724 217.566 
z
" clip-path="url(#pa391abd68a)" style="fill: #0000ff"/>
   </g>
   <g id="patch_99">
    <path d="M 497.065147 224.706 
L 702.120451 224.706 
L 702.120451 217.566 
L 497.065147 217.566 
z
" clip-path="url(#pa391abd68a)" style="fill: #0000ff"/>
   </g>
   <g id="patch_100">
    <path d="M 574.153607 224.706 
L 678.223028 224.706 
L 678.223028 217.566 
L 574.153607 217.566 
z
" clip-path="url(#pa391abd68a)" style="fill: #0000ff"/>
   </g>
   <g id="patch_101">
    <path d="M 590.342184 224.706 
L 785.375988 224.706 
L 785.375988 217.566 
L 590.342184 217.566 
z
" clip-path="url(#pa391abd68a)" style="fill: #0000ff"/>
   </g>
   <g id="patch_102">
    <path d="M 786.146872 221.40375 
L 800.79368 221.40375 
L 800.79368 220.86825 
L 786.146872 220.86825 
z
" clip-path="url(#pa391abd68a)" style="fill: #0000ff"/>
   </g>
   <g id="patch_103">
    <path d="M 144 203.55375 
L 318.21992 203.55375 
L 318.21992 203.01825 
L 144 203.01825 
z
" clip-path="url(#pa391abd68a)" style="fill: #0000ff"/>
   </g>
   <g id="patch_104">
    <path d="M 318.990804 206.856 
L 565.673876 206.856 
L 565.673876 199.716 
L 318.990804 199.716 
z
" clip-path="url(#pa391abd68a)" style="fill: #0000ff"/>
   </g>
   <g id="patch_105">
    <path d="M 319.761689 206.856 
L 641.220567 206.856 
L 641.220567 199.716 
L 319.761689 199.716 
z
" clip-path="url(#pa391abd68a)" style="fill: #0000ff"/>
   </g>
   <g id="patch_106">
    <path d="M 329.783189 206.856 
L 678.223028 206.856 
L 678.223028 199.716 
L 329.783189 199.716 
z
" clip-path="url(#pa391abd68a)" style="fill: #0000ff"/>
   </g>
   <g id="patch_107">
    <path d="M 329.783189 206.856 
L 645.07499 206.856 
L 645.07499 199.716 
L 329.783189 199.716 
z
" clip-path="url(#pa391abd68a)" style="fill: #0000ff"/>
   </g>
   <g id="patch_108">
    <path d="M 331.324958 206.856 
L 640.449683 206.856 
L 640.449683 199.716 
L 331.324958 199.716 
z
" clip-path="url(#pa391abd68a)" style="fill: #0000ff"/>
   </g>
   <g id="patch_109">
    <path d="M 331.324958 206.856 
L 412.267841 206.856 
L 412.267841 199.716 
L 331.324958 199.716 
z
" clip-path="url(#pa391abd68a)" style="fill: #0000ff"/>
   </g>
   <g id="patch_110">
    <path d="M 335.950266 206.856 
L 598.821914 206.856 
L 598.821914 199.716 
L 335.950266 199.716 
z
" clip-path="url(#pa391abd68a)" style="fill: #0000ff"/>
   </g>
   <g id="patch_111">
    <path d="M 344.429996 206.856 
L 640.449683 206.856 
L 640.449683 199.716 
L 344.429996 199.716 
z
" clip-path="url(#pa391abd68a)" style="fill: #0000ff"/>
   </g>
   <g id="patch_112">
    <path d="M 358.305919 206.856 
L 601.134568 206.856 
L 601.134568 199.716 
L 358.305919 199.716 
z
" clip-path="url(#pa391abd68a)" style="fill: #0000ff"/>
   </g>
   <g id="patch_113">
    <path d="M 362.931227 206.856 
L 475.480378 206.856 
L 475.480378 199.716 
L 362.931227 199.716 
z
" clip-path="url(#pa391abd68a)" style="fill: #0000ff"/>
   </g>
   <g id="patch_114">
    <path d="M 371.410957 206.856 
L 609.614299 206.856 
L 609.614299 199.716 
L 371.410957 199.716 
z
" clip-path="url(#pa391abd68a)" style="fill: #0000ff"/>
   </g>
   <g id="patch_115">
    <path d="M 378.348919 206.856 
L 614.239606 206.856 
L 614.239606 199.716 
L 378.348919 199.716 
z
" clip-path="url(#pa391abd68a)" style="fill: #0000ff"/>
   </g>
   <g id="patch_116">
    <path d="M 404.558995 206.856 
L 580.320684 206.856 
L 580.320684 199.716 
L 404.558995 199.716 
z
" clip-path="url(#pa391abd68a)" style="fill: #0000ff"/>
   </g>
   <g id="patch_117">
    <path d="M 416.122264 206.856 
L 625.802875 206.856 
L 625.802875 199.716 
L 416.122264 199.716 
z
" clip-path="url(#pa391abd68a)" style="fill: #0000ff"/>
   </g>
   <g id="patch_118">
    <path d="M 504.773993 206.856 
L 668.972413 206.856 
L 668.972413 199.716 
L 504.773993 199.716 
z
" clip-path="url(#pa391abd68a)" style="fill: #0000ff"/>
   </g>
   <g id="patch_119">
    <path d="M 678.993913 203.55375 
L 688.244528 203.55375 
L 688.244528 203.01825 
L 678.993913 203.01825 
z
" clip-path="url(#pa391abd68a)" style="fill: #0000ff"/>
   </g>
   <g id="patch_120">
    <path d="M 144 185.70375 
L 144 185.70375 
L 144 185.16825 
L 144 185.16825 
z
" clip-path="url(#pa391abd68a)" style="fill: #0000ff"/>
   </g>
   <g id="patch_121">
    <path d="M 144.770885 189.006 
L 403.78811 189.006 
L 403.78811 181.866 
L 144.770885 181.866 
z
" clip-path="url(#pa391abd68a)" style="fill: #0000ff"/>
   </g>
   <g id="patch_122">
    <path d="M 144.770885 189.006 
L 416.893149 189.006 
L 416.893149 181.866 
L 144.770885 181.866 
z
" clip-path="url(#pa391abd68a)" style="fill: #0000ff"/>
   </g>
   <g id="patch_123">
    <path d="M 149.396192 189.006 
L 406.100764 189.006 
L 406.100764 181.866 
L 149.396192 181.866 
z
" clip-path="url(#pa391abd68a)" style="fill: #0000ff"/>
   </g>
   <g id="patch_124">
    <path d="M 150.937961 189.006 
L 414.580495 189.006 
L 414.580495 181.866 
L 150.937961 181.866 
z
" clip-path="url(#pa391abd68a)" style="fill: #0000ff"/>
   </g>
   <g id="patch_125">
    <path d="M 151.708846 189.006 
L 368.327419 189.006 
L 368.327419 181.866 
L 151.708846 181.866 
z
" clip-path="url(#pa391abd68a)" style="fill: #0000ff"/>
   </g>
   <g id="patch_126">
    <path d="M 152.479731 189.006 
L 418.434918 189.006 
L 418.434918 181.866 
L 152.479731 181.866 
z
" clip-path="url(#pa391abd68a)" style="fill: #0000ff"/>
   </g>
   <g id="patch_127">
    <path d="M 152.479731 189.006 
L 406.871649 189.006 
L 406.871649 181.866 
L 152.479731 181.866 
z
" clip-path="url(#pa391abd68a)" style="fill: #0000ff"/>
   </g>
   <g id="patch_128">
    <path d="M 154.0215 189.006 
L 564.132107 189.006 
L 564.132107 181.866 
L 154.0215 181.866 
z
" clip-path="url(#pa391abd68a)" style="fill: #0000ff"/>
   </g>
   <g id="patch_129">
    <path d="M 154.792384 189.006 
L 407.642533 189.006 
L 407.642533 181.866 
L 154.792384 181.866 
z
" clip-path="url(#pa391abd68a)" style="fill: #0000ff"/>
   </g>
   <g id="patch_130">
    <path d="M 158.646807 189.006 
L 423.060225 189.006 
L 423.060225 181.866 
L 158.646807 181.866 
z
" clip-path="url(#pa391abd68a)" style="fill: #0000ff"/>
   </g>
   <g id="patch_131">
    <path d="M 163.272115 189.006 
L 416.893149 189.006 
L 416.893149 181.866 
L 163.272115 181.866 
z
" clip-path="url(#pa391abd68a)" style="fill: #0000ff"/>
   </g>
   <g id="patch_132">
    <path d="M 164.043 189.006 
L 397.621034 189.006 
L 397.621034 181.866 
L 164.043 181.866 
z
" clip-path="url(#pa391abd68a)" style="fill: #0000ff"/>
   </g>
   <g id="patch_133">
    <path d="M 169.439192 189.006 
L 416.893149 189.006 
L 416.893149 181.866 
L 169.439192 181.866 
z
" clip-path="url(#pa391abd68a)" style="fill: #0000ff"/>
   </g>
   <g id="patch_134">
    <path d="M 173.293615 189.006 
L 421.518456 189.006 
L 421.518456 181.866 
L 173.293615 181.866 
z
" clip-path="url(#pa391abd68a)" style="fill: #0000ff"/>
   </g>
   <g id="patch_135">
    <path d="M 174.064499 189.006 
L 409.955187 189.006 
L 409.955187 181.866 
L 174.064499 181.866 
z
" clip-path="url(#pa391abd68a)" style="fill: #0000ff"/>
   </g>
   <g id="patch_136">
    <path d="M 175.606269 189.006 
L 362.931227 189.006 
L 362.931227 181.866 
L 175.606269 181.866 
z
" clip-path="url(#pa391abd68a)" style="fill: #0000ff"/>
   </g>
   <g id="patch_137">
    <path d="M 180.231576 189.006 
L 403.78811 189.006 
L 403.78811 181.866 
L 180.231576 181.866 
z
" clip-path="url(#pa391abd68a)" style="fill: #0000ff"/>
   </g>
   <g id="patch_138">
    <path d="M 180.231576 189.006 
L 409.184303 189.006 
L 409.184303 181.866 
L 180.231576 181.866 
z
" clip-path="url(#pa391abd68a)" style="fill: #0000ff"/>
   </g>
   <g id="patch_139">
    <path d="M 185.627768 189.006 
L 406.100764 189.006 
L 406.100764 181.866 
L 185.627768 181.866 
z
" clip-path="url(#pa391abd68a)" style="fill: #0000ff"/>
   </g>
   <g id="patch_140">
    <path d="M 193.336614 189.006 
L 352.909727 189.006 
L 352.909727 181.866 
L 193.336614 181.866 
z
" clip-path="url(#pa391abd68a)" style="fill: #0000ff"/>
   </g>
   <g id="patch_141">
    <path d="M 194.878384 189.006 
L 431.539956 189.006 
L 431.539956 181.866 
L 194.878384 181.866 
z
" clip-path="url(#pa391abd68a)" style="fill: #0000ff"/>
   </g>
   <g id="patch_142">
    <path d="M 194.878384 189.006 
L 352.909727 189.006 
L 352.909727 181.866 
L 194.878384 181.866 
z
" clip-path="url(#pa391abd68a)" style="fill: #0000ff"/>
   </g>
   <g id="patch_143">
    <path d="M 195.649268 189.006 
L 409.184303 189.006 
L 409.184303 181.866 
L 195.649268 181.866 
z
" clip-path="url(#pa391abd68a)" style="fill: #0000ff"/>
   </g>
   <g id="patch_144">
    <path d="M 213.379614 189.006 
L 411.496956 189.006 
L 411.496956 181.866 
L 213.379614 181.866 
z
" clip-path="url(#pa391abd68a)" style="fill: #0000ff"/>
   </g>
   <g id="patch_145">
    <path d="M 229.568191 189.006 
L 345.200881 189.006 
L 345.200881 181.866 
L 229.568191 181.866 
z
" clip-path="url(#pa391abd68a)" style="fill: #0000ff"/>
   </g>
   <g id="patch_146">
    <path d="M 242.673229 189.006 
L 345.971765 189.006 
L 345.971765 181.866 
L 242.673229 181.866 
z
" clip-path="url(#pa391abd68a)" style="fill: #0000ff"/>
   </g>
   <g id="patch_147">
    <path d="M 247.298536 189.006 
L 399.933687 189.006 
L 399.933687 181.866 
L 247.298536 181.866 
z
" clip-path="url(#pa391abd68a)" style="fill: #0000ff"/>
   </g>
   <g id="patch_148">
    <path d="M 270.425074 189.006 
L 366.014765 189.006 
L 366.014765 181.866 
L 270.425074 181.866 
z
" clip-path="url(#pa391abd68a)" style="fill: #0000ff"/>
   </g>
   <g id="patch_149">
    <path d="M 283.530113 189.006 
L 363.702111 189.006 
L 363.702111 181.866 
L 283.530113 181.866 
z
" clip-path="url(#pa391abd68a)" style="fill: #0000ff"/>
   </g>
   <g id="patch_150">
    <path d="M 315.907266 189.006 
L 405.32988 189.006 
L 405.32988 181.866 
L 315.907266 181.866 
z
" clip-path="url(#pa391abd68a)" style="fill: #0000ff"/>
   </g>
   <g id="patch_151">
    <path d="M 564.902992 185.70375 
L 608.072529 185.70375 
L 608.072529 185.16825 
L 564.902992 185.16825 
z
" clip-path="url(#pa391abd68a)" style="fill: #0000ff"/>
   </g>
   <g id="patch_152">
    <path d="M 144 167.85375 
L 152.479731 167.85375 
L 152.479731 167.31825 
L 144 167.31825 
z
" clip-path="url(#pa391abd68a)" style="fill: #0000ff"/>
   </g>
   <g id="patch_153">
    <path d="M 153.250615 171.156 
L 561.819453 171.156 
L 561.819453 164.016 
L 153.250615 164.016 
z
" clip-path="url(#pa391abd68a)" style="fill: #0000ff"/>
   </g>
   <g id="patch_154">
    <path d="M 155.563269 171.156 
L 482.41834 171.156 
L 482.41834 164.016 
L 155.563269 164.016 
z
" clip-path="url(#pa391abd68a)" style="fill: #0000ff"/>
   </g>
   <g id="patch_155">
    <path d="M 155.563269 171.156 
L 558.735915 171.156 
L 558.735915 164.016 
L 155.563269 164.016 
z
" clip-path="url(#pa391abd68a)" style="fill: #0000ff"/>
   </g>
   <g id="patch_156">
    <path d="M 157.105038 171.156 
L 372.952726 171.156 
L 372.952726 164.016 
L 157.105038 164.016 
z
" clip-path="url(#pa391abd68a)" style="fill: #0000ff"/>
   </g>
   <g id="patch_157">
    <path d="M 166.355653 171.156 
L 561.048569 171.156 
L 561.048569 164.016 
L 166.355653 164.016 
z
" clip-path="url(#pa391abd68a)" style="fill: #0000ff"/>
   </g>
   <g id="patch_158">
    <path d="M 196.420153 171.156 
L 464.687994 171.156 
L 464.687994 164.016 
L 196.420153 164.016 
z
" clip-path="url(#pa391abd68a)" style="fill: #0000ff"/>
   </g>
   <g id="patch_159">
    <path d="M 198.732807 171.156 
L 369.869188 171.156 
L 369.869188 164.016 
L 198.732807 164.016 
z
" clip-path="url(#pa391abd68a)" style="fill: #0000ff"/>
   </g>
   <g id="patch_160">
    <path d="M 199.503691 171.156 
L 606.53076 171.156 
L 606.53076 164.016 
L 199.503691 164.016 
z
" clip-path="url(#pa391abd68a)" style="fill: #0000ff"/>
   </g>
   <g id="patch_161">
    <path d="M 201.04546 171.156 
L 351.367958 171.156 
L 351.367958 164.016 
L 201.04546 164.016 
z
" clip-path="url(#pa391abd68a)" style="fill: #0000ff"/>
   </g>
   <g id="patch_162">
    <path d="M 205.670768 171.156 
L 384.515995 171.156 
L 384.515995 164.016 
L 205.670768 164.016 
z
" clip-path="url(#pa391abd68a)" style="fill: #0000ff"/>
   </g>
   <g id="patch_163">
    <path d="M 215.692268 171.156 
L 482.41834 171.156 
L 482.41834 164.016 
L 215.692268 164.016 
z
" clip-path="url(#pa391abd68a)" style="fill: #0000ff"/>
   </g>
   <g id="patch_164">
    <path d="M 224.171998 171.156 
L 406.871649 171.156 
L 406.871649 164.016 
L 224.171998 164.016 
z
" clip-path="url(#pa391abd68a)" style="fill: #0000ff"/>
   </g>
   <g id="patch_165">
    <path d="M 224.942883 171.156 
L 347.513535 171.156 
L 347.513535 164.016 
L 224.942883 164.016 
z
" clip-path="url(#pa391abd68a)" style="fill: #0000ff"/>
   </g>
   <g id="patch_166">
    <path d="M 225.713768 171.156 
L 557.96503 171.156 
L 557.96503 164.016 
L 225.713768 164.016 
z
" clip-path="url(#pa391abd68a)" style="fill: #0000ff"/>
   </g>
   <g id="patch_167">
    <path d="M 227.255537 171.156 
L 604.218106 171.156 
L 604.218106 164.016 
L 227.255537 164.016 
z
" clip-path="url(#pa391abd68a)" style="fill: #0000ff"/>
   </g>
   <g id="patch_168">
    <path d="M 227.255537 171.156 
L 486.272763 171.156 
L 486.272763 164.016 
L 227.255537 164.016 
z
" clip-path="url(#pa391abd68a)" style="fill: #0000ff"/>
   </g>
   <g id="patch_169">
    <path d="M 229.568191 171.156 
L 550.256184 171.156 
L 550.256184 164.016 
L 229.568191 164.016 
z
" clip-path="url(#pa391abd68a)" style="fill: #0000ff"/>
   </g>
   <g id="patch_170">
    <path d="M 230.339075 171.156 
L 496.294262 171.156 
L 496.294262 164.016 
L 230.339075 164.016 
z
" clip-path="url(#pa391abd68a)" style="fill: #0000ff"/>
   </g>
   <g id="patch_171">
    <path d="M 230.339075 171.156 
L 341.346458 171.156 
L 341.346458 164.016 
L 230.339075 164.016 
z
" clip-path="url(#pa391abd68a)" style="fill: #0000ff"/>
   </g>
   <g id="patch_172">
    <path d="M 231.10996 171.156 
L 380.661572 171.156 
L 380.661572 164.016 
L 231.10996 164.016 
z
" clip-path="url(#pa391abd68a)" style="fill: #0000ff"/>
   </g>
   <g id="patch_173">
    <path d="M 232.651729 171.156 
L 566.444761 171.156 
L 566.444761 164.016 
L 232.651729 164.016 
z
" clip-path="url(#pa391abd68a)" style="fill: #0000ff"/>
   </g>
   <g id="patch_174">
    <path d="M 239.58969 171.156 
L 423.83111 171.156 
L 423.83111 164.016 
L 239.58969 164.016 
z
" clip-path="url(#pa391abd68a)" style="fill: #0000ff"/>
   </g>
   <g id="patch_175">
    <path d="M 241.902344 171.156 
L 495.523378 171.156 
L 495.523378 164.016 
L 241.902344 164.016 
z
" clip-path="url(#pa391abd68a)" style="fill: #0000ff"/>
   </g>
   <g id="patch_176">
    <path d="M 249.61119 171.156 
L 429.998187 171.156 
L 429.998187 164.016 
L 249.61119 164.016 
z
" clip-path="url(#pa391abd68a)" style="fill: #0000ff"/>
   </g>
   <g id="patch_177">
    <path d="M 464.687994 171.156 
L 639.678798 171.156 
L 639.678798 164.016 
L 464.687994 164.016 
z
" clip-path="url(#pa391abd68a)" style="fill: #0000ff"/>
   </g>
   <g id="patch_178">
    <path d="M 640.449683 167.85375 
L 672.826836 167.85375 
L 672.826836 167.31825 
L 640.449683 167.31825 
z
" clip-path="url(#pa391abd68a)" style="fill: #0000ff"/>
   </g>
   <g id="patch_179">
    <path d="M 144 150.00375 
L 153.250615 150.00375 
L 153.250615 149.46825 
L 144 149.46825 
z
" clip-path="url(#pa391abd68a)" style="fill: #0000ff"/>
   </g>
   <g id="patch_180">
    <path d="M 154.0215 153.306 
L 502.461339 153.306 
L 502.461339 146.166 
L 154.0215 146.166 
z
" clip-path="url(#pa391abd68a)" style="fill: #0000ff"/>
   </g>
   <g id="patch_181">
    <path d="M 154.0215 153.306 
L 581.091568 153.306 
L 581.091568 146.166 
L 154.0215 146.166 
z
" clip-path="url(#pa391abd68a)" style="fill: #0000ff"/>
   </g>
   <g id="patch_182">
    <path d="M 157.105038 153.306 
L 487.814532 153.306 
L 487.814532 146.166 
L 157.105038 146.166 
z
" clip-path="url(#pa391abd68a)" style="fill: #0000ff"/>
   </g>
   <g id="patch_183">
    <path d="M 161.730346 153.306 
L 565.673876 153.306 
L 565.673876 146.166 
L 161.730346 146.166 
z
" clip-path="url(#pa391abd68a)" style="fill: #0000ff"/>
   </g>
   <g id="patch_184">
    <path d="M 175.606269 153.306 
L 515.566377 153.306 
L 515.566377 146.166 
L 175.606269 146.166 
z
" clip-path="url(#pa391abd68a)" style="fill: #0000ff"/>
   </g>
   <g id="patch_185">
    <path d="M 188.711307 153.306 
L 482.41834 153.306 
L 482.41834 146.166 
L 188.711307 146.166 
z
" clip-path="url(#pa391abd68a)" style="fill: #0000ff"/>
   </g>
   <g id="patch_186">
    <path d="M 188.711307 153.306 
L 497.065147 153.306 
L 497.065147 146.166 
L 188.711307 146.166 
z
" clip-path="url(#pa391abd68a)" style="fill: #0000ff"/>
   </g>
   <g id="patch_187">
    <path d="M 193.336614 153.306 
L 483.960109 153.306 
L 483.960109 146.166 
L 193.336614 146.166 
z
" clip-path="url(#pa391abd68a)" style="fill: #0000ff"/>
   </g>
   <g id="patch_188">
    <path d="M 216.463152 153.306 
L 386.057765 153.306 
L 386.057765 146.166 
L 216.463152 146.166 
z
" clip-path="url(#pa391abd68a)" style="fill: #0000ff"/>
   </g>
   <g id="patch_189">
    <path d="M 261.945344 153.306 
L 506.315762 153.306 
L 506.315762 146.166 
L 261.945344 146.166 
z
" clip-path="url(#pa391abd68a)" style="fill: #0000ff"/>
   </g>
   <g id="patch_190">
    <path d="M 283.530113 153.306 
L 493.210724 153.306 
L 493.210724 146.166 
L 283.530113 146.166 
z
" clip-path="url(#pa391abd68a)" style="fill: #0000ff"/>
   </g>
   <g id="patch_191">
    <path d="M 322.845227 153.306 
L 474.709494 153.306 
L 474.709494 146.166 
L 322.845227 146.166 
z
" clip-path="url(#pa391abd68a)" style="fill: #0000ff"/>
   </g>
   <g id="patch_192">
    <path d="M 458.520917 153.306 
L 635.05349 153.306 
L 635.05349 146.166 
L 458.520917 146.166 
z
" clip-path="url(#pa391abd68a)" style="fill: #0000ff"/>
   </g>
   <g id="patch_193">
    <path d="M 635.824375 150.00375 
L 666.659759 150.00375 
L 666.659759 149.46825 
L 635.824375 149.46825 
z
" clip-path="url(#pa391abd68a)" style="fill: #0000ff"/>
   </g>
   <g id="patch_194">
    <path d="M 144 132.15375 
L 169.439192 132.15375 
L 169.439192 131.61825 
L 144 131.61825 
z
" clip-path="url(#pa391abd68a)" style="fill: #0000ff"/>
   </g>
   <g id="patch_195">
    <path d="M 170.210076 135.456 
L 501.690455 135.456 
L 501.690455 128.316 
L 170.210076 128.316 
z
" clip-path="url(#pa391abd68a)" style="fill: #0000ff"/>
   </g>
   <g id="patch_196">
    <path d="M 170.980961 135.456 
L 504.773993 135.456 
L 504.773993 128.316 
L 170.980961 128.316 
z
" clip-path="url(#pa391abd68a)" style="fill: #0000ff"/>
   </g>
   <g id="patch_197">
    <path d="M 189.482191 135.456 
L 503.232224 135.456 
L 503.232224 128.316 
L 189.482191 128.316 
z
" clip-path="url(#pa391abd68a)" style="fill: #0000ff"/>
   </g>
   <g id="patch_198">
    <path d="M 190.253076 135.456 
L 501.690455 135.456 
L 501.690455 128.316 
L 190.253076 128.316 
z
" clip-path="url(#pa391abd68a)" style="fill: #0000ff"/>
   </g>
   <g id="patch_199">
    <path d="M 248.069421 135.456 
L 501.690455 135.456 
L 501.690455 128.316 
L 248.069421 128.316 
z
" clip-path="url(#pa391abd68a)" style="fill: #0000ff"/>
   </g>
   <g id="patch_200">
    <path d="M 254.236498 135.456 
L 501.690455 135.456 
L 501.690455 128.316 
L 254.236498 128.316 
z
" clip-path="url(#pa391abd68a)" style="fill: #0000ff"/>
   </g>
   <g id="patch_201">
    <path d="M 255.778267 135.456 
L 456.208263 135.456 
L 456.208263 128.316 
L 255.778267 128.316 
z
" clip-path="url(#pa391abd68a)" style="fill: #0000ff"/>
   </g>
   <g id="patch_202">
    <path d="M 257.320036 135.456 
L 501.690455 135.456 
L 501.690455 128.316 
L 257.320036 128.316 
z
" clip-path="url(#pa391abd68a)" style="fill: #0000ff"/>
   </g>
   <g id="patch_203">
    <path d="M 303.573112 135.456 
L 487.043647 135.456 
L 487.043647 128.316 
L 303.573112 128.316 
z
" clip-path="url(#pa391abd68a)" style="fill: #0000ff"/>
   </g>
   <g id="patch_204">
    <path d="M 477.022147 135.456 
L 681.306567 135.456 
L 681.306567 128.316 
L 477.022147 128.316 
z
" clip-path="url(#pa391abd68a)" style="fill: #0000ff"/>
   </g>
   <g id="patch_205">
    <path d="M 682.077451 132.15375 
L 732.955835 132.15375 
L 732.955835 131.61825 
L 682.077451 131.61825 
z
" clip-path="url(#pa391abd68a)" style="fill: #0000ff"/>
   </g>
   <g id="patch_206">
    <path d="M 144 114.30375 
L 148.625308 114.30375 
L 148.625308 113.76825 
L 144 113.76825 
z
" clip-path="url(#pa391abd68a)" style="fill: #0000ff"/>
   </g>
   <g id="patch_207">
    <path d="M 149.396192 117.606 
L 464.687994 117.606 
L 464.687994 110.466 
L 149.396192 110.466 
z
" clip-path="url(#pa391abd68a)" style="fill: #0000ff"/>
   </g>
   <g id="patch_208">
    <path d="M 150.167077 117.606 
L 508.628416 117.606 
L 508.628416 110.466 
L 150.167077 110.466 
z
" clip-path="url(#pa391abd68a)" style="fill: #0000ff"/>
   </g>
   <g id="patch_209">
    <path d="M 150.937961 117.606 
L 489.356301 117.606 
L 489.356301 110.466 
L 150.937961 110.466 
z
" clip-path="url(#pa391abd68a)" style="fill: #0000ff"/>
   </g>
   <g id="patch_210">
    <path d="M 151.708846 117.606 
L 506.315762 117.606 
L 506.315762 110.466 
L 151.708846 110.466 
z
" clip-path="url(#pa391abd68a)" style="fill: #0000ff"/>
   </g>
   <g id="patch_211">
    <path d="M 154.0215 117.606 
L 463.917109 117.606 
L 463.917109 110.466 
L 154.0215 110.466 
z
" clip-path="url(#pa391abd68a)" style="fill: #0000ff"/>
   </g>
   <g id="patch_212">
    <path d="M 185.627768 117.606 
L 487.814532 117.606 
L 487.814532 110.466 
L 185.627768 110.466 
z
" clip-path="url(#pa391abd68a)" style="fill: #0000ff"/>
   </g>
   <g id="patch_213">
    <path d="M 185.627768 117.606 
L 492.439839 117.606 
L 492.439839 110.466 
L 185.627768 110.466 
z
" clip-path="url(#pa391abd68a)" style="fill: #0000ff"/>
   </g>
   <g id="patch_214">
    <path d="M 189.482191 117.606 
L 492.439839 117.606 
L 492.439839 110.466 
L 189.482191 110.466 
z
" clip-path="url(#pa391abd68a)" style="fill: #0000ff"/>
   </g>
   <g id="patch_215">
    <path d="M 189.482191 117.606 
L 507.857531 117.606 
L 507.857531 110.466 
L 189.482191 110.466 
z
" clip-path="url(#pa391abd68a)" style="fill: #0000ff"/>
   </g>
   <g id="patch_216">
    <path d="M 200.274576 117.606 
L 490.127186 117.606 
L 490.127186 110.466 
L 200.274576 110.466 
z
" clip-path="url(#pa391abd68a)" style="fill: #0000ff"/>
   </g>
   <g id="patch_217">
    <path d="M 230.339075 117.606 
L 491.668955 117.606 
L 491.668955 110.466 
L 230.339075 110.466 
z
" clip-path="url(#pa391abd68a)" style="fill: #0000ff"/>
   </g>
   <g id="patch_218">
    <path d="M 230.339075 117.606 
L 470.084186 117.606 
L 470.084186 110.466 
L 230.339075 110.466 
z
" clip-path="url(#pa391abd68a)" style="fill: #0000ff"/>
   </g>
   <g id="patch_219">
    <path d="M 252.694729 117.606 
L 484.730993 117.606 
L 484.730993 110.466 
L 252.694729 110.466 
z
" clip-path="url(#pa391abd68a)" style="fill: #0000ff"/>
   </g>
   <g id="patch_220">
    <path d="M 271.195959 117.606 
L 459.291802 117.606 
L 459.291802 110.466 
L 271.195959 110.466 
z
" clip-path="url(#pa391abd68a)" style="fill: #0000ff"/>
   </g>
   <g id="patch_221">
    <path d="M 344.429996 117.606 
L 561.048569 117.606 
L 561.048569 110.466 
L 344.429996 110.466 
z
" clip-path="url(#pa391abd68a)" style="fill: #0000ff"/>
   </g>
   <g id="patch_222">
    <path d="M 144 96.45375 
L 187.940422 96.45375 
L 187.940422 95.91825 
L 144 95.91825 
z
" clip-path="url(#pa391abd68a)" style="fill: #0000ff"/>
   </g>
   <g id="patch_223">
    <path d="M 188.711307 99.756 
L 706.745758 99.756 
L 706.745758 92.616 
L 188.711307 92.616 
z
" clip-path="url(#pa391abd68a)" style="fill: #0000ff"/>
   </g>
   <g id="patch_224">
    <path d="M 707.516643 96.45375 
L 820.065795 96.45375 
L 820.065795 95.91825 
L 707.516643 95.91825 
z
" clip-path="url(#pa391abd68a)" style="fill: #0000ff"/>
   </g>
   <g id="patch_225">
    <path d="M 144 78.60375 
L 156.334154 78.60375 
L 156.334154 78.06825 
L 144 78.06825 
z
" clip-path="url(#pa391abd68a)" style="fill: #0000ff"/>
   </g>
   <g id="patch_226">
    <path d="M 157.105038 81.906 
L 869.402409 81.906 
L 869.402409 74.766 
L 157.105038 74.766 
z
" clip-path="url(#pa391abd68a)" style="fill: #0000ff"/>
   </g>
   <g id="patch_227">
    <path d="M 258.090921 81.906 
L 761.478565 81.906 
L 761.478565 74.766 
L 258.090921 74.766 
z
" clip-path="url(#pa391abd68a)" style="fill: #0000ff"/>
   </g>
   <g id="patch_228">
    <path d="M 258.861805 81.906 
L 773.041834 81.906 
L 773.041834 74.766 
L 258.861805 74.766 
z
" clip-path="url(#pa391abd68a)" style="fill: #0000ff"/>
   </g>
   <g id="patch_229">
    <path d="M 259.63269 81.906 
L 750.686181 81.906 
L 750.686181 74.766 
L 259.63269 74.766 
z
" clip-path="url(#pa391abd68a)" style="fill: #0000ff"/>
   </g>
   <g id="patch_230">
    <path d="M 264.257998 81.906 
L 867.089755 81.906 
L 867.089755 74.766 
L 264.257998 74.766 
z
" clip-path="url(#pa391abd68a)" style="fill: #0000ff"/>
   </g>
   <g id="patch_231">
    <path d="M 265.799767 81.906 
L 783.834218 81.906 
L 783.834218 74.766 
L 265.799767 74.766 
z
" clip-path="url(#pa391abd68a)" style="fill: #0000ff"/>
   </g>
   <g id="patch_232">
    <path d="M 269.65419 81.906 
L 889.445409 81.906 
L 889.445409 74.766 
L 269.65419 74.766 
z
" clip-path="url(#pa391abd68a)" style="fill: #0000ff"/>
   </g>
   <g id="patch_233">
    <path d="M 285.071882 81.906 
L 864.006217 81.906 
L 864.006217 74.766 
L 285.071882 74.766 
z
" clip-path="url(#pa391abd68a)" style="fill: #0000ff"/>
   </g>
   <g id="patch_234">
    <path d="M 285.071882 81.906 
L 773.041834 81.906 
L 773.041834 74.766 
L 285.071882 74.766 
z
" clip-path="url(#pa391abd68a)" style="fill: #0000ff"/>
   </g>
   <g id="patch_235">
    <path d="M 289.697189 81.906 
L 773.041834 81.906 
L 773.041834 74.766 
L 289.697189 74.766 
z
" clip-path="url(#pa391abd68a)" style="fill: #0000ff"/>
   </g>
   <g id="patch_236">
    <path d="M 289.697189 81.906 
L 773.041834 81.906 
L 773.041834 74.766 
L 289.697189 74.766 
z
" clip-path="url(#pa391abd68a)" style="fill: #0000ff"/>
   </g>
   <g id="patch_237">
    <path d="M 310.511074 81.906 
L 769.958296 81.906 
L 769.958296 74.766 
L 310.511074 74.766 
z
" clip-path="url(#pa391abd68a)" style="fill: #0000ff"/>
   </g>
   <g id="patch_238">
    <path d="M 311.281958 81.906 
L 773.041834 81.906 
L 773.041834 74.766 
L 311.281958 74.766 
z
" clip-path="url(#pa391abd68a)" style="fill: #0000ff"/>
   </g>
   <g id="patch_239">
    <path d="M 311.281958 81.906 
L 765.332988 81.906 
L 765.332988 74.766 
L 311.281958 74.766 
z
" clip-path="url(#pa391abd68a)" style="fill: #0000ff"/>
   </g>
   <g id="patch_240">
    <path d="M 311.281958 81.906 
L 773.041834 81.906 
L 773.041834 74.766 
L 311.281958 74.766 
z
" clip-path="url(#pa391abd68a)" style="fill: #0000ff"/>
   </g>
   <g id="patch_241">
    <path d="M 313.594612 81.906 
L 520.191685 81.906 
L 520.191685 74.766 
L 313.594612 74.766 
z
" clip-path="url(#pa391abd68a)" style="fill: #0000ff"/>
   </g>
   <g id="patch_242">
    <path d="M 319.761689 81.906 
L 481.647455 81.906 
L 481.647455 74.766 
L 319.761689 74.766 
z
" clip-path="url(#pa391abd68a)" style="fill: #0000ff"/>
   </g>
   <g id="patch_243">
    <path d="M 325.157881 81.906 
L 496.294262 81.906 
L 496.294262 74.766 
L 325.157881 74.766 
z
" clip-path="url(#pa391abd68a)" style="fill: #0000ff"/>
   </g>
   <g id="patch_244">
    <path d="M 325.928766 81.906 
L 773.812719 81.906 
L 773.812719 74.766 
L 325.928766 74.766 
z
" clip-path="url(#pa391abd68a)" style="fill: #0000ff"/>
   </g>
   <g id="patch_245">
    <path d="M 326.69965 81.906 
L 509.399301 81.906 
L 509.399301 74.766 
L 326.69965 74.766 
z
" clip-path="url(#pa391abd68a)" style="fill: #0000ff"/>
   </g>
   <g id="patch_246">
    <path d="M 357.535034 81.906 
L 680.535682 81.906 
L 680.535682 74.766 
L 357.535034 74.766 
z
" clip-path="url(#pa391abd68a)" style="fill: #0000ff"/>
   </g>
   <g id="patch_247">
    <path d="M 358.305919 81.906 
L 525.587877 81.906 
L 525.587877 74.766 
L 358.305919 74.766 
z
" clip-path="url(#pa391abd68a)" style="fill: #0000ff"/>
   </g>
   <g id="patch_248">
    <path d="M 360.618573 81.906 
L 769.187411 81.906 
L 769.187411 74.766 
L 360.618573 74.766 
z
" clip-path="url(#pa391abd68a)" style="fill: #0000ff"/>
   </g>
   <g id="patch_249">
    <path d="M 367.556534 81.906 
L 512.482839 81.906 
L 512.482839 74.766 
L 367.556534 74.766 
z
" clip-path="url(#pa391abd68a)" style="fill: #0000ff"/>
   </g>
   <g id="patch_250">
    <path d="M 368.327419 81.906 
L 773.041834 81.906 
L 773.041834 74.766 
L 368.327419 74.766 
z
" clip-path="url(#pa391abd68a)" style="fill: #0000ff"/>
   </g>
   <g id="patch_251">
    <path d="M 378.348919 81.906 
L 728.330527 81.906 
L 728.330527 74.766 
L 378.348919 74.766 
z
" clip-path="url(#pa391abd68a)" style="fill: #0000ff"/>
   </g>
   <g id="patch_252">
    <path d="M 406.100764 81.906 
L 498.606916 81.906 
L 498.606916 74.766 
L 406.100764 74.766 
z
" clip-path="url(#pa391abd68a)" style="fill: #0000ff"/>
   </g>
   <g id="patch_253">
    <path d="M 406.100764 81.906 
L 734.497604 81.906 
L 734.497604 74.766 
L 406.100764 74.766 
z
" clip-path="url(#pa391abd68a)" style="fill: #0000ff"/>
   </g>
   <g id="patch_254">
    <path d="M 423.83111 81.906 
L 674.368605 81.906 
L 674.368605 74.766 
L 423.83111 74.766 
z
" clip-path="url(#pa391abd68a)" style="fill: #0000ff"/>
   </g>
   <g id="patch_255">
    <path d="M 490.89807 81.906 
L 769.958296 81.906 
L 769.958296 74.766 
L 490.89807 74.766 
z
" clip-path="url(#pa391abd68a)" style="fill: #0000ff"/>
   </g>
   <g id="patch_256">
    <path d="M 573.382722 81.906 
L 702.891335 81.906 
L 702.891335 74.766 
L 573.382722 74.766 
z
" clip-path="url(#pa391abd68a)" style="fill: #0000ff"/>
   </g>
   <g id="patch_257">
    <path d="M 574.153607 81.906 
L 746.831758 81.906 
L 746.831758 74.766 
L 574.153607 74.766 
z
" clip-path="url(#pa391abd68a)" style="fill: #0000ff"/>
   </g>
   <g id="patch_258">
    <path d="M 581.862453 81.906 
L 692.098951 81.906 
L 692.098951 74.766 
L 581.862453 74.766 
z
" clip-path="url(#pa391abd68a)" style="fill: #0000ff"/>
   </g>
   <g id="patch_259">
    <path d="M 584.945991 81.906 
L 678.223028 81.906 
L 678.223028 74.766 
L 584.945991 74.766 
z
" clip-path="url(#pa391abd68a)" style="fill: #0000ff"/>
   </g>
   <g id="patch_260">
    <path d="M 621.177568 81.906 
L 702.891335 81.906 
L 702.891335 74.766 
L 621.177568 74.766 
z
" clip-path="url(#pa391abd68a)" style="fill: #0000ff"/>
   </g>
   <g id="patch_261">
    <path d="M 890.216293 78.60375 
L 994.285714 78.60375 
L 994.285714 78.06825 
L 890.216293 78.06825 
z
" clip-path="url(#pa391abd68a)" style="fill: #0000ff"/>
   </g>
   <g id="patch_262">
    <path d="M 144 60.75375 
L 228.026421 60.75375 
L 228.026421 60.21825 
L 144 60.21825 
z
" clip-path="url(#pa391abd68a)" style="fill: #0000ff"/>
   </g>
   <g id="patch_263">
    <path d="M 228.797306 64.056 
L 731.414066 64.056 
L 731.414066 56.916 
L 228.797306 56.916 
z
" clip-path="url(#pa391abd68a)" style="fill: #0000ff"/>
   </g>
   <g id="patch_264">
    <path d="M 230.339075 64.056 
L 752.998834 64.056 
L 752.998834 56.916 
L 230.339075 56.916 
z
" clip-path="url(#pa391abd68a)" style="fill: #0000ff"/>
   </g>
   <g id="patch_265">
    <path d="M 244.985883 64.056 
L 752.22795 64.056 
L 752.22795 56.916 
L 244.985883 56.916 
z
" clip-path="url(#pa391abd68a)" style="fill: #0000ff"/>
   </g>
   <g id="patch_266">
    <path d="M 271.195959 64.056 
L 748.373527 64.056 
L 748.373527 56.916 
L 271.195959 56.916 
z
" clip-path="url(#pa391abd68a)" style="fill: #0000ff"/>
   </g>
   <g id="patch_267">
    <path d="M 271.966844 64.056 
L 752.998834 64.056 
L 752.998834 56.916 
L 271.966844 56.916 
z
" clip-path="url(#pa391abd68a)" style="fill: #0000ff"/>
   </g>
   <g id="patch_268">
    <path d="M 354.451496 64.056 
L 534.067608 64.056 
L 534.067608 56.916 
L 354.451496 56.916 
z
" clip-path="url(#pa391abd68a)" style="fill: #0000ff"/>
   </g>
   <g id="patch_269">
    <path d="M 364.472996 64.056 
L 751.457065 64.056 
L 751.457065 56.916 
L 364.472996 56.916 
z
" clip-path="url(#pa391abd68a)" style="fill: #0000ff"/>
   </g>
   <g id="patch_270">
    <path d="M 375.26538 64.056 
L 732.18495 64.056 
L 732.18495 56.916 
L 375.26538 56.916 
z
" clip-path="url(#pa391abd68a)" style="fill: #0000ff"/>
   </g>
   <g id="patch_271">
    <path d="M 376.807149 64.056 
L 722.934335 64.056 
L 722.934335 56.916 
L 376.807149 56.916 
z
" clip-path="url(#pa391abd68a)" style="fill: #0000ff"/>
   </g>
   <g id="patch_272">
    <path d="M 378.348919 64.056 
L 756.082373 64.056 
L 756.082373 56.916 
L 378.348919 56.916 
z
" clip-path="url(#pa391abd68a)" style="fill: #0000ff"/>
   </g>
   <g id="patch_273">
    <path d="M 415.351379 64.056 
L 755.311488 64.056 
L 755.311488 56.916 
L 415.351379 56.916 
z
" clip-path="url(#pa391abd68a)" style="fill: #0000ff"/>
   </g>
   <g id="patch_274">
    <path d="M 579.549799 64.056 
L 722.934335 64.056 
L 722.934335 56.916 
L 579.549799 56.916 
z
" clip-path="url(#pa391abd68a)" style="fill: #0000ff"/>
   </g>
   <g id="patch_275">
    <path d="M 741.435565 64.056 
L 791.543064 64.056 
L 791.543064 56.916 
L 741.435565 56.916 
z
" clip-path="url(#pa391abd68a)" style="fill: #0000ff"/>
   </g>
   <g id="patch_276">
    <path d="M 742.20645 64.056 
L 793.855718 64.056 
L 793.855718 56.916 
L 742.20645 56.916 
z
" clip-path="url(#pa391abd68a)" style="fill: #0000ff"/>
   </g>
   <g id="patch_277">
    <path d="M 742.977335 64.056 
L 790.77218 64.056 
L 790.77218 56.916 
L 742.977335 56.916 
z
" clip-path="url(#pa391abd68a)" style="fill: #0000ff"/>
   </g>
   <g id="patch_278">
    <path d="M 743.748219 64.056 
L 790.77218 64.056 
L 790.77218 56.916 
L 743.748219 56.916 
z
" clip-path="url(#pa391abd68a)" style="fill: #0000ff"/>
   </g>
   <g id="patch_279">
    <path d="M 743.748219 64.056 
L 793.084834 64.056 
L 793.084834 56.916 
L 743.748219 56.916 
z
" clip-path="url(#pa391abd68a)" style="fill: #0000ff"/>
   </g>
   <g id="patch_280">
    <path d="M 743.748219 64.056 
L 789.230411 64.056 
L 789.230411 56.916 
L 743.748219 56.916 
z
" clip-path="url(#pa391abd68a)" style="fill: #0000ff"/>
   </g>
   <g id="patch_281">
    <path d="M 743.748219 64.056 
L 793.855718 64.056 
L 793.855718 56.916 
L 743.748219 56.916 
z
" clip-path="url(#pa391abd68a)" style="fill: #0000ff"/>
   </g>
   <g id="patch_282">
    <path d="M 744.519104 64.056 
L 793.855718 64.056 
L 793.855718 56.916 
L 744.519104 56.916 
z
" clip-path="url(#pa391abd68a)" style="fill: #0000ff"/>
   </g>
   <g id="patch_283">
    <path d="M 746.831758 64.056 
L 790.77218 64.056 
L 790.77218 56.916 
L 746.831758 56.916 
z
" clip-path="url(#pa391abd68a)" style="fill: #0000ff"/>
   </g>
   <g id="patch_284">
    <path d="M 747.602642 64.056 
L 792.313949 64.056 
L 792.313949 56.916 
L 747.602642 56.916 
z
" clip-path="url(#pa391abd68a)" style="fill: #0000ff"/>
   </g>
   <g id="patch_285">
    <path d="M 749.915296 64.056 
L 783.063334 64.056 
L 783.063334 56.916 
L 749.915296 56.916 
z
" clip-path="url(#pa391abd68a)" style="fill: #0000ff"/>
   </g>
   <g id="patch_286">
    <path d="M 749.915296 64.056 
L 790.001295 64.056 
L 790.001295 56.916 
L 749.915296 56.916 
z
" clip-path="url(#pa391abd68a)" style="fill: #0000ff"/>
   </g>
   <g id="patch_287">
    <path d="M 749.915296 64.056 
L 783.063334 64.056 
L 783.063334 56.916 
L 749.915296 56.916 
z
" clip-path="url(#pa391abd68a)" style="fill: #0000ff"/>
   </g>
   <g id="patch_288">
    <path d="M 750.686181 64.056 
L 789.230411 64.056 
L 789.230411 56.916 
L 750.686181 56.916 
z
" clip-path="url(#pa391abd68a)" style="fill: #0000ff"/>
   </g>
   <g id="patch_289">
    <path d="M 750.686181 64.056 
L 786.917757 64.056 
L 786.917757 56.916 
L 750.686181 56.916 
z
" clip-path="url(#pa391abd68a)" style="fill: #0000ff"/>
   </g>
   <g id="patch_290">
    <path d="M 751.457065 64.056 
L 785.375988 64.056 
L 785.375988 56.916 
L 751.457065 56.916 
z
" clip-path="url(#pa391abd68a)" style="fill: #0000ff"/>
   </g>
   <g id="patch_291">
    <path d="M 751.457065 64.056 
L 785.375988 64.056 
L 785.375988 56.916 
L 751.457065 56.916 
z
" clip-path="url(#pa391abd68a)" style="fill: #0000ff"/>
   </g>
   <g id="patch_292">
    <path d="M 752.22795 64.056 
L 790.77218 64.056 
L 790.77218 56.916 
L 752.22795 56.916 
z
" clip-path="url(#pa391abd68a)" style="fill: #0000ff"/>
   </g>
   <g id="patch_293">
    <path d="M 752.22795 64.056 
L 783.063334 64.056 
L 783.063334 56.916 
L 752.22795 56.916 
z
" clip-path="url(#pa391abd68a)" style="fill: #0000ff"/>
   </g>
   <g id="patch_294">
    <path d="M 752.22795 64.056 
L 781.521565 64.056 
L 781.521565 56.916 
L 752.22795 56.916 
z
" clip-path="url(#pa391abd68a)" style="fill: #0000ff"/>
   </g>
   <g id="patch_295">
    <path d="M 752.22795 64.056 
L 785.375988 64.056 
L 785.375988 56.916 
L 752.22795 56.916 
z
" clip-path="url(#pa391abd68a)" style="fill: #0000ff"/>
   </g>
   <g id="patch_296">
    <path d="M 752.22795 64.056 
L 783.063334 64.056 
L 783.063334 56.916 
L 752.22795 56.916 
z
" clip-path="url(#pa391abd68a)" style="fill: #0000ff"/>
   </g>
   <g id="patch_297">
    <path d="M 752.22795 64.056 
L 784.605103 64.056 
L 784.605103 56.916 
L 752.22795 56.916 
z
" clip-path="url(#pa391abd68a)" style="fill: #0000ff"/>
   </g>
   <g id="patch_298">
    <path d="M 752.22795 64.056 
L 787.688641 64.056 
L 787.688641 56.916 
L 752.22795 56.916 
z
" clip-path="url(#pa391abd68a)" style="fill: #0000ff"/>
   </g>
   <g id="patch_299">
    <path d="M 752.22795 64.056 
L 786.146872 64.056 
L 786.146872 56.916 
L 752.22795 56.916 
z
" clip-path="url(#pa391abd68a)" style="fill: #0000ff"/>
   </g>
   <g id="patch_300">
    <path d="M 752.22795 64.056 
L 785.375988 64.056 
L 785.375988 56.916 
L 752.22795 56.916 
z
" clip-path="url(#pa391abd68a)" style="fill: #0000ff"/>
   </g>
   <g id="patch_301">
    <path d="M 752.22795 64.056 
L 783.063334 64.056 
L 783.063334 56.916 
L 752.22795 56.916 
z
" clip-path="url(#pa391abd68a)" style="fill: #0000ff"/>
   </g>
   <g id="patch_302">
    <path d="M 752.22795 64.056 
L 783.063334 64.056 
L 783.063334 56.916 
L 752.22795 56.916 
z
" clip-path="url(#pa391abd68a)" style="fill: #0000ff"/>
   </g>
   <g id="patch_303">
    <path d="M 752.22795 64.056 
L 783.063334 64.056 
L 783.063334 56.916 
L 752.22795 56.916 
z
" clip-path="url(#pa391abd68a)" style="fill: #0000ff"/>
   </g>
   <g id="patch_304">
    <path d="M 752.22795 64.056 
L 783.063334 64.056 
L 783.063334 56.916 
L 752.22795 56.916 
z
" clip-path="url(#pa391abd68a)" style="fill: #0000ff"/>
   </g>
   <g id="patch_305">
    <path d="M 752.22795 64.056 
L 790.77218 64.056 
L 790.77218 56.916 
L 752.22795 56.916 
z
" clip-path="url(#pa391abd68a)" style="fill: #0000ff"/>
   </g>
   <g id="patch_306">
    <path d="M 752.22795 64.056 
L 786.917757 64.056 
L 786.917757 56.916 
L 752.22795 56.916 
z
" clip-path="url(#pa391abd68a)" style="fill: #0000ff"/>
   </g>
   <g id="patch_307">
    <path d="M 752.22795 64.056 
L 783.063334 64.056 
L 783.063334 56.916 
L 752.22795 56.916 
z
" clip-path="url(#pa391abd68a)" style="fill: #0000ff"/>
   </g>
   <g id="patch_308">
    <path d="M 752.22795 64.056 
L 785.375988 64.056 
L 785.375988 56.916 
L 752.22795 56.916 
z
" clip-path="url(#pa391abd68a)" style="fill: #0000ff"/>
   </g>
   <g id="patch_309">
    <path d="M 752.22795 64.056 
L 786.146872 64.056 
L 786.146872 56.916 
L 752.22795 56.916 
z
" clip-path="url(#pa391abd68a)" style="fill: #0000ff"/>
   </g>
   <g id="patch_310">
    <path d="M 752.22795 64.056 
L 790.77218 64.056 
L 790.77218 56.916 
L 752.22795 56.916 
z
" clip-path="url(#pa391abd68a)" style="fill: #0000ff"/>
   </g>
   <g id="patch_311">
    <path d="M 752.22795 64.056 
L 790.77218 64.056 
L 790.77218 56.916 
L 752.22795 56.916 
z
" clip-path="url(#pa391abd68a)" style="fill: #0000ff"/>
   </g>
   <g id="patch_312">
    <path d="M 752.22795 64.056 
L 788.459526 64.056 
L 788.459526 56.916 
L 752.22795 56.916 
z
" clip-path="url(#pa391abd68a)" style="fill: #0000ff"/>
   </g>
   <g id="patch_313">
    <path d="M 752.998834 64.056 
L 783.063334 64.056 
L 783.063334 56.916 
L 752.998834 56.916 
z
" clip-path="url(#pa391abd68a)" style="fill: #0000ff"/>
   </g>
   <g id="patch_314">
    <path d="M 752.998834 64.056 
L 784.605103 64.056 
L 784.605103 56.916 
L 752.998834 56.916 
z
" clip-path="url(#pa391abd68a)" style="fill: #0000ff"/>
   </g>
   <g id="patch_315">
    <path d="M 752.998834 64.056 
L 784.605103 64.056 
L 784.605103 56.916 
L 752.998834 56.916 
z
" clip-path="url(#pa391abd68a)" style="fill: #0000ff"/>
   </g>
   <g id="patch_316">
    <path d="M 752.998834 64.056 
L 790.77218 64.056 
L 790.77218 56.916 
L 752.998834 56.916 
z
" clip-path="url(#pa391abd68a)" style="fill: #0000ff"/>
   </g>
   <g id="patch_317">
    <path d="M 752.998834 64.056 
L 785.375988 64.056 
L 785.375988 56.916 
L 752.998834 56.916 
z
" clip-path="url(#pa391abd68a)" style="fill: #0000ff"/>
   </g>
   <g id="patch_318">
    <path d="M 752.998834 64.056 
L 786.146872 64.056 
L 786.146872 56.916 
L 752.998834 56.916 
z
" clip-path="url(#pa391abd68a)" style="fill: #0000ff"/>
   </g>
   <g id="patch_319">
    <path d="M 752.998834 64.056 
L 790.001295 64.056 
L 790.001295 56.916 
L 752.998834 56.916 
z
" clip-path="url(#pa391abd68a)" style="fill: #0000ff"/>
   </g>
   <g id="patch_320">
    <path d="M 752.998834 64.056 
L 790.001295 64.056 
L 790.001295 56.916 
L 752.998834 56.916 
z
" clip-path="url(#pa391abd68a)" style="fill: #0000ff"/>
   </g>
   <g id="patch_321">
    <path d="M 753.769719 64.056 
L 793.855718 64.056 
L 793.855718 56.916 
L 753.769719 56.916 
z
" clip-path="url(#pa391abd68a)" style="fill: #0000ff"/>
   </g>
   <g id="patch_322">
    <path d="M 753.769719 64.056 
L 783.063334 64.056 
L 783.063334 56.916 
L 753.769719 56.916 
z
" clip-path="url(#pa391abd68a)" style="fill: #0000ff"/>
   </g>
   <g id="patch_323">
    <path d="M 753.769719 64.056 
L 783.063334 64.056 
L 783.063334 56.916 
L 753.769719 56.916 
z
" clip-path="url(#pa391abd68a)" style="fill: #0000ff"/>
   </g>
   <g id="patch_324">
    <path d="M 753.769719 64.056 
L 781.521565 64.056 
L 781.521565 56.916 
L 753.769719 56.916 
z
" clip-path="url(#pa391abd68a)" style="fill: #0000ff"/>
   </g>
   <g id="patch_325">
    <path d="M 753.769719 64.056 
L 783.063334 64.056 
L 783.063334 56.916 
L 753.769719 56.916 
z
" clip-path="url(#pa391abd68a)" style="fill: #0000ff"/>
   </g>
   <g id="patch_326">
    <path d="M 753.769719 64.056 
L 783.063334 64.056 
L 783.063334 56.916 
L 753.769719 56.916 
z
" clip-path="url(#pa391abd68a)" style="fill: #0000ff"/>
   </g>
   <g id="patch_327">
    <path d="M 753.769719 64.056 
L 790.77218 64.056 
L 790.77218 56.916 
L 753.769719 56.916 
z
" clip-path="url(#pa391abd68a)" style="fill: #0000ff"/>
   </g>
   <g id="patch_328">
    <path d="M 753.769719 64.056 
L 783.063334 64.056 
L 783.063334 56.916 
L 753.769719 56.916 
z
" clip-path="url(#pa391abd68a)" style="fill: #0000ff"/>
   </g>
   <g id="patch_329">
    <path d="M 753.769719 64.056 
L 783.063334 64.056 
L 783.063334 56.916 
L 753.769719 56.916 
z
" clip-path="url(#pa391abd68a)" style="fill: #0000ff"/>
   </g>
   <g id="patch_330">
    <path d="M 753.769719 64.056 
L 785.375988 64.056 
L 785.375988 56.916 
L 753.769719 56.916 
z
" clip-path="url(#pa391abd68a)" style="fill: #0000ff"/>
   </g>
   <g id="patch_331">
    <path d="M 753.769719 64.056 
L 790.001295 64.056 
L 790.001295 56.916 
L 753.769719 56.916 
z
" clip-path="url(#pa391abd68a)" style="fill: #0000ff"/>
   </g>
   <g id="patch_332">
    <path d="M 753.769719 64.056 
L 783.063334 64.056 
L 783.063334 56.916 
L 753.769719 56.916 
z
" clip-path="url(#pa391abd68a)" style="fill: #0000ff"/>
   </g>
   <g id="patch_333">
    <path d="M 753.769719 64.056 
L 783.063334 64.056 
L 783.063334 56.916 
L 753.769719 56.916 
z
" clip-path="url(#pa391abd68a)" style="fill: #0000ff"/>
   </g>
   <g id="patch_334">
    <path d="M 753.769719 64.056 
L 783.063334 64.056 
L 783.063334 56.916 
L 753.769719 56.916 
z
" clip-path="url(#pa391abd68a)" style="fill: #0000ff"/>
   </g>
   <g id="patch_335">
    <path d="M 753.769719 64.056 
L 783.063334 64.056 
L 783.063334 56.916 
L 753.769719 56.916 
z
" clip-path="url(#pa391abd68a)" style="fill: #0000ff"/>
   </g>
   <g id="patch_336">
    <path d="M 753.769719 64.056 
L 786.146872 64.056 
L 786.146872 56.916 
L 753.769719 56.916 
z
" clip-path="url(#pa391abd68a)" style="fill: #0000ff"/>
   </g>
   <g id="patch_337">
    <path d="M 753.769719 64.056 
L 788.459526 64.056 
L 788.459526 56.916 
L 753.769719 56.916 
z
" clip-path="url(#pa391abd68a)" style="fill: #0000ff"/>
   </g>
   <g id="patch_338">
    <path d="M 753.769719 64.056 
L 783.834218 64.056 
L 783.834218 56.916 
L 753.769719 56.916 
z
" clip-path="url(#pa391abd68a)" style="fill: #0000ff"/>
   </g>
   <g id="patch_339">
    <path d="M 753.769719 64.056 
L 787.688641 64.056 
L 787.688641 56.916 
L 753.769719 56.916 
z
" clip-path="url(#pa391abd68a)" style="fill: #0000ff"/>
   </g>
   <g id="patch_340">
    <path d="M 753.769719 64.056 
L 783.063334 64.056 
L 783.063334 56.916 
L 753.769719 56.916 
z
" clip-path="url(#pa391abd68a)" style="fill: #0000ff"/>
   </g>
   <g id="patch_341">
    <path d="M 753.769719 64.056 
L 783.834218 64.056 
L 783.834218 56.916 
L 753.769719 56.916 
z
" clip-path="url(#pa391abd68a)" style="fill: #0000ff"/>
   </g>
   <g id="patch_342">
    <path d="M 753.769719 64.056 
L 792.313949 64.056 
L 792.313949 56.916 
L 753.769719 56.916 
z
" clip-path="url(#pa391abd68a)" style="fill: #0000ff"/>
   </g>
   <g id="patch_343">
    <path d="M 753.769719 64.056 
L 786.146872 64.056 
L 786.146872 56.916 
L 753.769719 56.916 
z
" clip-path="url(#pa391abd68a)" style="fill: #0000ff"/>
   </g>
   <g id="patch_344">
    <path d="M 753.769719 64.056 
L 790.001295 64.056 
L 790.001295 56.916 
L 753.769719 56.916 
z
" clip-path="url(#pa391abd68a)" style="fill: #0000ff"/>
   </g>
   <g id="matplotlib.axis_1">
    <g id="xtick_1">
     <g id="line2d_1">
      <defs>
       <path id="md9519ff9f2" d="M 0 0 
L 0 3.5 
" style="stroke: #000000; stroke-width: 0.8"/>
      </defs>
      <g>
       <use xlink:href="#md9519ff9f2" x="297.406035" y="326.808" style="stroke: #000000; stroke-width: 0.8"/>
      </g>
     </g>
     <g id="text_1">
      <!-- 200 -->
      <g transform="translate(287.862285 341.406437) scale(0.1 -0.1)">
       <defs>
        <path id="DejaVuSans-32" d="M 1228 531 
L 3431 531 
L 3431 0 
L 469 0 
L 469 531 
Q 828 903 1448 1529 
Q 2069 2156 2228 2338 
Q 2531 2678 2651 2914 
Q 2772 3150 2772 3378 
Q 2772 3750 2511 3984 
Q 2250 4219 1831 4219 
Q 1534 4219 1204 4116 
Q 875 4013 500 3803 
L 500 4441 
Q 881 4594 1212 4672 
Q 1544 4750 1819 4750 
Q 2544 4750 2975 4387 
Q 3406 4025 3406 3419 
Q 3406 3131 3298 2873 
Q 3191 2616 2906 2266 
Q 2828 2175 2409 1742 
Q 1991 1309 1228 531 
z
" transform="scale(0.015625)"/>
        <path id="DejaVuSans-30" d="M 2034 4250 
Q 1547 4250 1301 3770 
Q 1056 3291 1056 2328 
Q 1056 1369 1301 889 
Q 1547 409 2034 409 
Q 2525 409 2770 889 
Q 3016 1369 3016 2328 
Q 3016 3291 2770 3770 
Q 2525 4250 2034 4250 
z
M 2034 4750 
Q 2819 4750 3233 4129 
Q 3647 3509 3647 2328 
Q 3647 1150 3233 529 
Q 2819 -91 2034 -91 
Q 1250 -91 836 529 
Q 422 1150 422 2328 
Q 422 3509 836 4129 
Q 1250 4750 2034 4750 
z
" transform="scale(0.015625)"/>
       </defs>
       <use xlink:href="#DejaVuSans-32"/>
       <use xlink:href="#DejaVuSans-30" x="63.623047"/>
       <use xlink:href="#DejaVuSans-30" x="127.246094"/>
      </g>
     </g>
    </g>
    <g id="xtick_2">
     <g id="line2d_2">
      <g>
       <use xlink:href="#md9519ff9f2" x="451.582956" y="326.808" style="stroke: #000000; stroke-width: 0.8"/>
      </g>
     </g>
     <g id="text_2">
      <!-- 400 -->
      <g transform="translate(442.039206 341.406437) scale(0.1 -0.1)">
       <defs>
        <path id="DejaVuSans-34" d="M 2419 4116 
L 825 1625 
L 2419 1625 
L 2419 4116 
z
M 2253 4666 
L 3047 4666 
L 3047 1625 
L 3713 1625 
L 3713 1100 
L 3047 1100 
L 3047 0 
L 2419 0 
L 2419 1100 
L 313 1100 
L 313 1709 
L 2253 4666 
z
" transform="scale(0.015625)"/>
       </defs>
       <use xlink:href="#DejaVuSans-34"/>
       <use xlink:href="#DejaVuSans-30" x="63.623047"/>
       <use xlink:href="#DejaVuSans-30" x="127.246094"/>
      </g>
     </g>
    </g>
    <g id="xtick_3">
     <g id="line2d_3">
      <g>
       <use xlink:href="#md9519ff9f2" x="605.759876" y="326.808" style="stroke: #000000; stroke-width: 0.8"/>
      </g>
     </g>
     <g id="text_3">
      <!-- 600 -->
      <g transform="translate(596.216126 341.406437) scale(0.1 -0.1)">
       <defs>
        <path id="DejaVuSans-36" d="M 2113 2584 
Q 1688 2584 1439 2293 
Q 1191 2003 1191 1497 
Q 1191 994 1439 701 
Q 1688 409 2113 409 
Q 2538 409 2786 701 
Q 3034 994 3034 1497 
Q 3034 2003 2786 2293 
Q 2538 2584 2113 2584 
z
M 3366 4563 
L 3366 3988 
Q 3128 4100 2886 4159 
Q 2644 4219 2406 4219 
Q 1781 4219 1451 3797 
Q 1122 3375 1075 2522 
Q 1259 2794 1537 2939 
Q 1816 3084 2150 3084 
Q 2853 3084 3261 2657 
Q 3669 2231 3669 1497 
Q 3669 778 3244 343 
Q 2819 -91 2113 -91 
Q 1303 -91 875 529 
Q 447 1150 447 2328 
Q 447 3434 972 4092 
Q 1497 4750 2381 4750 
Q 2619 4750 2861 4703 
Q 3103 4656 3366 4563 
z
" transform="scale(0.015625)"/>
       </defs>
       <use xlink:href="#DejaVuSans-36"/>
       <use xlink:href="#DejaVuSans-30" x="63.623047"/>
       <use xlink:href="#DejaVuSans-30" x="127.246094"/>
      </g>
     </g>
    </g>
    <g id="xtick_4">
     <g id="line2d_4">
      <g>
       <use xlink:href="#md9519ff9f2" x="759.936796" y="326.808" style="stroke: #000000; stroke-width: 0.8"/>
      </g>
     </g>
     <g id="text_4">
      <!-- 800 -->
      <g transform="translate(750.393046 341.406437) scale(0.1 -0.1)">
       <defs>
        <path id="DejaVuSans-38" d="M 2034 2216 
Q 1584 2216 1326 1975 
Q 1069 1734 1069 1313 
Q 1069 891 1326 650 
Q 1584 409 2034 409 
Q 2484 409 2743 651 
Q 3003 894 3003 1313 
Q 3003 1734 2745 1975 
Q 2488 2216 2034 2216 
z
M 1403 2484 
Q 997 2584 770 2862 
Q 544 3141 544 3541 
Q 544 4100 942 4425 
Q 1341 4750 2034 4750 
Q 2731 4750 3128 4425 
Q 3525 4100 3525 3541 
Q 3525 3141 3298 2862 
Q 3072 2584 2669 2484 
Q 3125 2378 3379 2068 
Q 3634 1759 3634 1313 
Q 3634 634 3220 271 
Q 2806 -91 2034 -91 
Q 1263 -91 848 271 
Q 434 634 434 1313 
Q 434 1759 690 2068 
Q 947 2378 1403 2484 
z
M 1172 3481 
Q 1172 3119 1398 2916 
Q 1625 2713 2034 2713 
Q 2441 2713 2670 2916 
Q 2900 3119 2900 3481 
Q 2900 3844 2670 4047 
Q 2441 4250 2034 4250 
Q 1625 4250 1398 4047 
Q 1172 3844 1172 3481 
z
" transform="scale(0.015625)"/>
       </defs>
       <use xlink:href="#DejaVuSans-38"/>
       <use xlink:href="#DejaVuSans-30" x="63.623047"/>
       <use xlink:href="#DejaVuSans-30" x="127.246094"/>
      </g>
     </g>
    </g>
    <g id="xtick_5">
     <g id="line2d_5">
      <g>
       <use xlink:href="#md9519ff9f2" x="914.113716" y="326.808" style="stroke: #000000; stroke-width: 0.8"/>
      </g>
     </g>
     <g id="text_5">
      <!-- 1000 -->
      <g transform="translate(901.388716 341.406437) scale(0.1 -0.1)">
       <defs>
        <path id="DejaVuSans-31" d="M 794 531 
L 1825 531 
L 1825 4091 
L 703 3866 
L 703 4441 
L 1819 4666 
L 2450 4666 
L 2450 531 
L 3481 531 
L 3481 0 
L 794 0 
L 794 531 
z
" transform="scale(0.015625)"/>
       </defs>
       <use xlink:href="#DejaVuSans-31"/>
       <use xlink:href="#DejaVuSans-30" x="63.623047"/>
       <use xlink:href="#DejaVuSans-30" x="127.246094"/>
       <use xlink:href="#DejaVuSans-30" x="190.869141"/>
      </g>
     </g>
    </g>
    <g id="text_6">
     <!-- Residual -->
     <g transform="translate(569.284375 355.084563) scale(0.1 -0.1)">
      <defs>
       <path id="DejaVuSans-52" d="M 2841 2188 
Q 3044 2119 3236 1894 
Q 3428 1669 3622 1275 
L 4263 0 
L 3584 0 
L 2988 1197 
Q 2756 1666 2539 1819 
Q 2322 1972 1947 1972 
L 1259 1972 
L 1259 0 
L 628 0 
L 628 4666 
L 2053 4666 
Q 2853 4666 3247 4331 
Q 3641 3997 3641 3322 
Q 3641 2881 3436 2590 
Q 3231 2300 2841 2188 
z
M 1259 4147 
L 1259 2491 
L 2053 2491 
Q 2509 2491 2742 2702 
Q 2975 2913 2975 3322 
Q 2975 3731 2742 3939 
Q 2509 4147 2053 4147 
L 1259 4147 
z
" transform="scale(0.015625)"/>
       <path id="DejaVuSans-65" d="M 3597 1894 
L 3597 1613 
L 953 1613 
Q 991 1019 1311 708 
Q 1631 397 2203 397 
Q 2534 397 2845 478 
Q 3156 559 3463 722 
L 3463 178 
Q 3153 47 2828 -22 
Q 2503 -91 2169 -91 
Q 1331 -91 842 396 
Q 353 884 353 1716 
Q 353 2575 817 3079 
Q 1281 3584 2069 3584 
Q 2775 3584 3186 3129 
Q 3597 2675 3597 1894 
z
M 3022 2063 
Q 3016 2534 2758 2815 
Q 2500 3097 2075 3097 
Q 1594 3097 1305 2825 
Q 1016 2553 972 2059 
L 3022 2063 
z
" transform="scale(0.015625)"/>
       <path id="DejaVuSans-73" d="M 2834 3397 
L 2834 2853 
Q 2591 2978 2328 3040 
Q 2066 3103 1784 3103 
Q 1356 3103 1142 2972 
Q 928 2841 928 2578 
Q 928 2378 1081 2264 
Q 1234 2150 1697 2047 
L 1894 2003 
Q 2506 1872 2764 1633 
Q 3022 1394 3022 966 
Q 3022 478 2636 193 
Q 2250 -91 1575 -91 
Q 1294 -91 989 -36 
Q 684 19 347 128 
L 347 722 
Q 666 556 975 473 
Q 1284 391 1588 391 
Q 1994 391 2212 530 
Q 2431 669 2431 922 
Q 2431 1156 2273 1281 
Q 2116 1406 1581 1522 
L 1381 1569 
Q 847 1681 609 1914 
Q 372 2147 372 2553 
Q 372 3047 722 3315 
Q 1072 3584 1716 3584 
Q 2034 3584 2315 3537 
Q 2597 3491 2834 3397 
z
" transform="scale(0.015625)"/>
       <path id="DejaVuSans-69" d="M 603 3500 
L 1178 3500 
L 1178 0 
L 603 0 
L 603 3500 
z
M 603 4863 
L 1178 4863 
L 1178 4134 
L 603 4134 
L 603 4863 
z
" transform="scale(0.015625)"/>
       <path id="DejaVuSans-64" d="M 2906 2969 
L 2906 4863 
L 3481 4863 
L 3481 0 
L 2906 0 
L 2906 525 
Q 2725 213 2448 61 
Q 2172 -91 1784 -91 
Q 1150 -91 751 415 
Q 353 922 353 1747 
Q 353 2572 751 3078 
Q 1150 3584 1784 3584 
Q 2172 3584 2448 3432 
Q 2725 3281 2906 2969 
z
M 947 1747 
Q 947 1113 1208 752 
Q 1469 391 1925 391 
Q 2381 391 2643 752 
Q 2906 1113 2906 1747 
Q 2906 2381 2643 2742 
Q 2381 3103 1925 3103 
Q 1469 3103 1208 2742 
Q 947 2381 947 1747 
z
" transform="scale(0.015625)"/>
       <path id="DejaVuSans-75" d="M 544 1381 
L 544 3500 
L 1119 3500 
L 1119 1403 
Q 1119 906 1312 657 
Q 1506 409 1894 409 
Q 2359 409 2629 706 
Q 2900 1003 2900 1516 
L 2900 3500 
L 3475 3500 
L 3475 0 
L 2900 0 
L 2900 538 
Q 2691 219 2414 64 
Q 2138 -91 1772 -91 
Q 1169 -91 856 284 
Q 544 659 544 1381 
z
M 1991 3584 
L 1991 3584 
z
" transform="scale(0.015625)"/>
       <path id="DejaVuSans-61" d="M 2194 1759 
Q 1497 1759 1228 1600 
Q 959 1441 959 1056 
Q 959 750 1161 570 
Q 1363 391 1709 391 
Q 2188 391 2477 730 
Q 2766 1069 2766 1631 
L 2766 1759 
L 2194 1759 
z
M 3341 1997 
L 3341 0 
L 2766 0 
L 2766 531 
Q 2569 213 2275 61 
Q 1981 -91 1556 -91 
Q 1019 -91 701 211 
Q 384 513 384 1019 
Q 384 1609 779 1909 
Q 1175 2209 1959 2209 
L 2766 2209 
L 2766 2266 
Q 2766 2663 2505 2880 
Q 2244 3097 1772 3097 
Q 1472 3097 1187 3025 
Q 903 2953 641 2809 
L 641 3341 
Q 956 3463 1253 3523 
Q 1550 3584 1831 3584 
Q 2591 3584 2966 3190 
Q 3341 2797 3341 1997 
z
" transform="scale(0.015625)"/>
       <path id="DejaVuSans-6c" d="M 603 4863 
L 1178 4863 
L 1178 0 
L 603 0 
L 603 4863 
z
" transform="scale(0.015625)"/>
      </defs>
      <use xlink:href="#DejaVuSans-52"/>
      <use xlink:href="#DejaVuSans-65" x="64.982422"/>
      <use xlink:href="#DejaVuSans-73" x="126.505859"/>
      <use xlink:href="#DejaVuSans-69" x="178.605469"/>
      <use xlink:href="#DejaVuSans-64" x="206.388672"/>
      <use xlink:href="#DejaVuSans-75" x="269.865234"/>
      <use xlink:href="#DejaVuSans-61" x="333.244141"/>
      <use xlink:href="#DejaVuSans-6c" x="394.523438"/>
     </g>
    </g>
   </g>
   <g id="matplotlib.axis_2">
    <g id="ytick_1">
     <g id="line2d_6">
      <defs>
       <path id="mc1496fef86" d="M 0 0 
L -3.5 0 
" style="stroke: #000000; stroke-width: 0.8"/>
      </defs>
      <g>
       <use xlink:href="#mc1496fef86" x="144" y="310.386" style="stroke: #000000; stroke-width: 0.8"/>
      </g>
     </g>
     <g id="text_7">
      <!-- 9.B.392.1.1 -->
      <g transform="translate(79.251563 314.185219) scale(0.1 -0.1)">
       <defs>
        <path id="DejaVuSans-39" d="M 703 97 
L 703 672 
Q 941 559 1184 500 
Q 1428 441 1663 441 
Q 2288 441 2617 861 
Q 2947 1281 2994 2138 
Q 2813 1869 2534 1725 
Q 2256 1581 1919 1581 
Q 1219 1581 811 2004 
Q 403 2428 403 3163 
Q 403 3881 828 4315 
Q 1253 4750 1959 4750 
Q 2769 4750 3195 4129 
Q 3622 3509 3622 2328 
Q 3622 1225 3098 567 
Q 2575 -91 1691 -91 
Q 1453 -91 1209 -44 
Q 966 3 703 97 
z
M 1959 2075 
Q 2384 2075 2632 2365 
Q 2881 2656 2881 3163 
Q 2881 3666 2632 3958 
Q 2384 4250 1959 4250 
Q 1534 4250 1286 3958 
Q 1038 3666 1038 3163 
Q 1038 2656 1286 2365 
Q 1534 2075 1959 2075 
z
" transform="scale(0.015625)"/>
        <path id="DejaVuSans-2e" d="M 684 794 
L 1344 794 
L 1344 0 
L 684 0 
L 684 794 
z
" transform="scale(0.015625)"/>
        <path id="DejaVuSans-42" d="M 1259 2228 
L 1259 519 
L 2272 519 
Q 2781 519 3026 730 
Q 3272 941 3272 1375 
Q 3272 1813 3026 2020 
Q 2781 2228 2272 2228 
L 1259 2228 
z
M 1259 4147 
L 1259 2741 
L 2194 2741 
Q 2656 2741 2882 2914 
Q 3109 3088 3109 3444 
Q 3109 3797 2882 3972 
Q 2656 4147 2194 4147 
L 1259 4147 
z
M 628 4666 
L 2241 4666 
Q 2963 4666 3353 4366 
Q 3744 4066 3744 3513 
Q 3744 3084 3544 2831 
Q 3344 2578 2956 2516 
Q 3422 2416 3680 2098 
Q 3938 1781 3938 1306 
Q 3938 681 3513 340 
Q 3088 0 2303 0 
L 628 0 
L 628 4666 
z
" transform="scale(0.015625)"/>
        <path id="DejaVuSans-33" d="M 2597 2516 
Q 3050 2419 3304 2112 
Q 3559 1806 3559 1356 
Q 3559 666 3084 287 
Q 2609 -91 1734 -91 
Q 1441 -91 1130 -33 
Q 819 25 488 141 
L 488 750 
Q 750 597 1062 519 
Q 1375 441 1716 441 
Q 2309 441 2620 675 
Q 2931 909 2931 1356 
Q 2931 1769 2642 2001 
Q 2353 2234 1838 2234 
L 1294 2234 
L 1294 2753 
L 1863 2753 
Q 2328 2753 2575 2939 
Q 2822 3125 2822 3475 
Q 2822 3834 2567 4026 
Q 2313 4219 1838 4219 
Q 1578 4219 1281 4162 
Q 984 4106 628 3988 
L 628 4550 
Q 988 4650 1302 4700 
Q 1616 4750 1894 4750 
Q 2613 4750 3031 4423 
Q 3450 4097 3450 3541 
Q 3450 3153 3228 2886 
Q 3006 2619 2597 2516 
z
" transform="scale(0.015625)"/>
       </defs>
       <use xlink:href="#DejaVuSans-39"/>
       <use xlink:href="#DejaVuSans-2e" x="63.623047"/>
       <use xlink:href="#DejaVuSans-42" x="95.410156"/>
       <use xlink:href="#DejaVuSans-2e" x="164.013672"/>
       <use xlink:href="#DejaVuSans-33" x="195.800781"/>
       <use xlink:href="#DejaVuSans-39" x="259.423828"/>
       <use xlink:href="#DejaVuSans-32" x="323.046875"/>
       <use xlink:href="#DejaVuSans-2e" x="386.669922"/>
       <use xlink:href="#DejaVuSans-31" x="418.457031"/>
       <use xlink:href="#DejaVuSans-2e" x="482.080078"/>
       <use xlink:href="#DejaVuSans-31" x="513.867188"/>
      </g>
     </g>
    </g>
    <g id="ytick_2">
     <g id="line2d_7">
      <g>
       <use xlink:href="#mc1496fef86" x="144" y="292.536" style="stroke: #000000; stroke-width: 0.8"/>
      </g>
     </g>
     <g id="text_8">
      <!-- 9.B.392.1.2 -->
      <g transform="translate(79.251563 296.335219) scale(0.1 -0.1)">
       <use xlink:href="#DejaVuSans-39"/>
       <use xlink:href="#DejaVuSans-2e" x="63.623047"/>
       <use xlink:href="#DejaVuSans-42" x="95.410156"/>
       <use xlink:href="#DejaVuSans-2e" x="164.013672"/>
       <use xlink:href="#DejaVuSans-33" x="195.800781"/>
       <use xlink:href="#DejaVuSans-39" x="259.423828"/>
       <use xlink:href="#DejaVuSans-32" x="323.046875"/>
       <use xlink:href="#DejaVuSans-2e" x="386.669922"/>
       <use xlink:href="#DejaVuSans-31" x="418.457031"/>
       <use xlink:href="#DejaVuSans-2e" x="482.080078"/>
       <use xlink:href="#DejaVuSans-32" x="513.867188"/>
      </g>
     </g>
    </g>
    <g id="ytick_3">
     <g id="line2d_8">
      <g>
       <use xlink:href="#mc1496fef86" x="144" y="274.686" style="stroke: #000000; stroke-width: 0.8"/>
      </g>
     </g>
     <g id="text_9">
      <!-- 9.B.392.1.3 -->
      <g transform="translate(79.251563 278.485219) scale(0.1 -0.1)">
       <use xlink:href="#DejaVuSans-39"/>
       <use xlink:href="#DejaVuSans-2e" x="63.623047"/>
       <use xlink:href="#DejaVuSans-42" x="95.410156"/>
       <use xlink:href="#DejaVuSans-2e" x="164.013672"/>
       <use xlink:href="#DejaVuSans-33" x="195.800781"/>
       <use xlink:href="#DejaVuSans-39" x="259.423828"/>
       <use xlink:href="#DejaVuSans-32" x="323.046875"/>
       <use xlink:href="#DejaVuSans-2e" x="386.669922"/>
       <use xlink:href="#DejaVuSans-31" x="418.457031"/>
       <use xlink:href="#DejaVuSans-2e" x="482.080078"/>
       <use xlink:href="#DejaVuSans-33" x="513.867188"/>
      </g>
     </g>
    </g>
    <g id="ytick_4">
     <g id="line2d_9">
      <g>
       <use xlink:href="#mc1496fef86" x="144" y="256.836" style="stroke: #000000; stroke-width: 0.8"/>
      </g>
     </g>
     <g id="text_10">
      <!-- 9.B.392.1.4 -->
      <g transform="translate(79.251563 260.635219) scale(0.1 -0.1)">
       <use xlink:href="#DejaVuSans-39"/>
       <use xlink:href="#DejaVuSans-2e" x="63.623047"/>
       <use xlink:href="#DejaVuSans-42" x="95.410156"/>
       <use xlink:href="#DejaVuSans-2e" x="164.013672"/>
       <use xlink:href="#DejaVuSans-33" x="195.800781"/>
       <use xlink:href="#DejaVuSans-39" x="259.423828"/>
       <use xlink:href="#DejaVuSans-32" x="323.046875"/>
       <use xlink:href="#DejaVuSans-2e" x="386.669922"/>
       <use xlink:href="#DejaVuSans-31" x="418.457031"/>
       <use xlink:href="#DejaVuSans-2e" x="482.080078"/>
       <use xlink:href="#DejaVuSans-34" x="513.867188"/>
      </g>
     </g>
    </g>
    <g id="ytick_5">
     <g id="line2d_10">
      <g>
       <use xlink:href="#mc1496fef86" x="144" y="238.986" style="stroke: #000000; stroke-width: 0.8"/>
      </g>
     </g>
     <g id="text_11">
      <!-- 9.B.392.1.5 -->
      <g transform="translate(79.251563 242.785219) scale(0.1 -0.1)">
       <defs>
        <path id="DejaVuSans-35" d="M 691 4666 
L 3169 4666 
L 3169 4134 
L 1269 4134 
L 1269 2991 
Q 1406 3038 1543 3061 
Q 1681 3084 1819 3084 
Q 2600 3084 3056 2656 
Q 3513 2228 3513 1497 
Q 3513 744 3044 326 
Q 2575 -91 1722 -91 
Q 1428 -91 1123 -41 
Q 819 9 494 109 
L 494 744 
Q 775 591 1075 516 
Q 1375 441 1709 441 
Q 2250 441 2565 725 
Q 2881 1009 2881 1497 
Q 2881 1984 2565 2268 
Q 2250 2553 1709 2553 
Q 1456 2553 1204 2497 
Q 953 2441 691 2322 
L 691 4666 
z
" transform="scale(0.015625)"/>
       </defs>
       <use xlink:href="#DejaVuSans-39"/>
       <use xlink:href="#DejaVuSans-2e" x="63.623047"/>
       <use xlink:href="#DejaVuSans-42" x="95.410156"/>
       <use xlink:href="#DejaVuSans-2e" x="164.013672"/>
       <use xlink:href="#DejaVuSans-33" x="195.800781"/>
       <use xlink:href="#DejaVuSans-39" x="259.423828"/>
       <use xlink:href="#DejaVuSans-32" x="323.046875"/>
       <use xlink:href="#DejaVuSans-2e" x="386.669922"/>
       <use xlink:href="#DejaVuSans-31" x="418.457031"/>
       <use xlink:href="#DejaVuSans-2e" x="482.080078"/>
       <use xlink:href="#DejaVuSans-35" x="513.867188"/>
      </g>
     </g>
    </g>
    <g id="ytick_6">
     <g id="line2d_11">
      <g>
       <use xlink:href="#mc1496fef86" x="144" y="221.136" style="stroke: #000000; stroke-width: 0.8"/>
      </g>
     </g>
     <g id="text_12">
      <!-- 9.B.392.2.1 -->
      <g transform="translate(79.251563 224.935219) scale(0.1 -0.1)">
       <use xlink:href="#DejaVuSans-39"/>
       <use xlink:href="#DejaVuSans-2e" x="63.623047"/>
       <use xlink:href="#DejaVuSans-42" x="95.410156"/>
       <use xlink:href="#DejaVuSans-2e" x="164.013672"/>
       <use xlink:href="#DejaVuSans-33" x="195.800781"/>
       <use xlink:href="#DejaVuSans-39" x="259.423828"/>
       <use xlink:href="#DejaVuSans-32" x="323.046875"/>
       <use xlink:href="#DejaVuSans-2e" x="386.669922"/>
       <use xlink:href="#DejaVuSans-32" x="418.457031"/>
       <use xlink:href="#DejaVuSans-2e" x="482.080078"/>
       <use xlink:href="#DejaVuSans-31" x="513.867188"/>
      </g>
     </g>
    </g>
    <g id="ytick_7">
     <g id="line2d_12">
      <g>
       <use xlink:href="#mc1496fef86" x="144" y="203.286" style="stroke: #000000; stroke-width: 0.8"/>
      </g>
     </g>
     <g id="text_13">
      <!-- 9.B.392.2.2 -->
      <g transform="translate(79.251563 207.085219) scale(0.1 -0.1)">
       <use xlink:href="#DejaVuSans-39"/>
       <use xlink:href="#DejaVuSans-2e" x="63.623047"/>
       <use xlink:href="#DejaVuSans-42" x="95.410156"/>
       <use xlink:href="#DejaVuSans-2e" x="164.013672"/>
       <use xlink:href="#DejaVuSans-33" x="195.800781"/>
       <use xlink:href="#DejaVuSans-39" x="259.423828"/>
       <use xlink:href="#DejaVuSans-32" x="323.046875"/>
       <use xlink:href="#DejaVuSans-2e" x="386.669922"/>
       <use xlink:href="#DejaVuSans-32" x="418.457031"/>
       <use xlink:href="#DejaVuSans-2e" x="482.080078"/>
       <use xlink:href="#DejaVuSans-32" x="513.867188"/>
      </g>
     </g>
    </g>
    <g id="ytick_8">
     <g id="line2d_13">
      <g>
       <use xlink:href="#mc1496fef86" x="144" y="185.436" style="stroke: #000000; stroke-width: 0.8"/>
      </g>
     </g>
     <g id="text_14">
      <!-- 9.B.392.2.3 -->
      <g transform="translate(79.251563 189.235219) scale(0.1 -0.1)">
       <use xlink:href="#DejaVuSans-39"/>
       <use xlink:href="#DejaVuSans-2e" x="63.623047"/>
       <use xlink:href="#DejaVuSans-42" x="95.410156"/>
       <use xlink:href="#DejaVuSans-2e" x="164.013672"/>
       <use xlink:href="#DejaVuSans-33" x="195.800781"/>
       <use xlink:href="#DejaVuSans-39" x="259.423828"/>
       <use xlink:href="#DejaVuSans-32" x="323.046875"/>
       <use xlink:href="#DejaVuSans-2e" x="386.669922"/>
       <use xlink:href="#DejaVuSans-32" x="418.457031"/>
       <use xlink:href="#DejaVuSans-2e" x="482.080078"/>
       <use xlink:href="#DejaVuSans-33" x="513.867188"/>
      </g>
     </g>
    </g>
    <g id="ytick_9">
     <g id="line2d_14">
      <g>
       <use xlink:href="#mc1496fef86" x="144" y="167.586" style="stroke: #000000; stroke-width: 0.8"/>
      </g>
     </g>
     <g id="text_15">
      <!-- 9.B.392.3.1 -->
      <g transform="translate(79.251563 171.385219) scale(0.1 -0.1)">
       <use xlink:href="#DejaVuSans-39"/>
       <use xlink:href="#DejaVuSans-2e" x="63.623047"/>
       <use xlink:href="#DejaVuSans-42" x="95.410156"/>
       <use xlink:href="#DejaVuSans-2e" x="164.013672"/>
       <use xlink:href="#DejaVuSans-33" x="195.800781"/>
       <use xlink:href="#DejaVuSans-39" x="259.423828"/>
       <use xlink:href="#DejaVuSans-32" x="323.046875"/>
       <use xlink:href="#DejaVuSans-2e" x="386.669922"/>
       <use xlink:href="#DejaVuSans-33" x="418.457031"/>
       <use xlink:href="#DejaVuSans-2e" x="482.080078"/>
       <use xlink:href="#DejaVuSans-31" x="513.867188"/>
      </g>
     </g>
    </g>
    <g id="ytick_10">
     <g id="line2d_15">
      <g>
       <use xlink:href="#mc1496fef86" x="144" y="149.736" style="stroke: #000000; stroke-width: 0.8"/>
      </g>
     </g>
     <g id="text_16">
      <!-- 9.B.392.3.2 -->
      <g transform="translate(79.251563 153.535219) scale(0.1 -0.1)">
       <use xlink:href="#DejaVuSans-39"/>
       <use xlink:href="#DejaVuSans-2e" x="63.623047"/>
       <use xlink:href="#DejaVuSans-42" x="95.410156"/>
       <use xlink:href="#DejaVuSans-2e" x="164.013672"/>
       <use xlink:href="#DejaVuSans-33" x="195.800781"/>
       <use xlink:href="#DejaVuSans-39" x="259.423828"/>
       <use xlink:href="#DejaVuSans-32" x="323.046875"/>
       <use xlink:href="#DejaVuSans-2e" x="386.669922"/>
       <use xlink:href="#DejaVuSans-33" x="418.457031"/>
       <use xlink:href="#DejaVuSans-2e" x="482.080078"/>
       <use xlink:href="#DejaVuSans-32" x="513.867188"/>
      </g>
     </g>
    </g>
    <g id="ytick_11">
     <g id="line2d_16">
      <g>
       <use xlink:href="#mc1496fef86" x="144" y="131.886" style="stroke: #000000; stroke-width: 0.8"/>
      </g>
     </g>
     <g id="text_17">
      <!-- 9.B.392.3.3 -->
      <g transform="translate(79.251563 135.685219) scale(0.1 -0.1)">
       <use xlink:href="#DejaVuSans-39"/>
       <use xlink:href="#DejaVuSans-2e" x="63.623047"/>
       <use xlink:href="#DejaVuSans-42" x="95.410156"/>
       <use xlink:href="#DejaVuSans-2e" x="164.013672"/>
       <use xlink:href="#DejaVuSans-33" x="195.800781"/>
       <use xlink:href="#DejaVuSans-39" x="259.423828"/>
       <use xlink:href="#DejaVuSans-32" x="323.046875"/>
       <use xlink:href="#DejaVuSans-2e" x="386.669922"/>
       <use xlink:href="#DejaVuSans-33" x="418.457031"/>
       <use xlink:href="#DejaVuSans-2e" x="482.080078"/>
       <use xlink:href="#DejaVuSans-33" x="513.867188"/>
      </g>
     </g>
    </g>
    <g id="ytick_12">
     <g id="line2d_17">
      <g>
       <use xlink:href="#mc1496fef86" x="144" y="114.036" style="stroke: #000000; stroke-width: 0.8"/>
      </g>
     </g>
     <g id="text_18">
      <!-- 9.B.392.4.1 -->
      <g transform="translate(79.251563 117.835219) scale(0.1 -0.1)">
       <use xlink:href="#DejaVuSans-39"/>
       <use xlink:href="#DejaVuSans-2e" x="63.623047"/>
       <use xlink:href="#DejaVuSans-42" x="95.410156"/>
       <use xlink:href="#DejaVuSans-2e" x="164.013672"/>
       <use xlink:href="#DejaVuSans-33" x="195.800781"/>
       <use xlink:href="#DejaVuSans-39" x="259.423828"/>
       <use xlink:href="#DejaVuSans-32" x="323.046875"/>
       <use xlink:href="#DejaVuSans-2e" x="386.669922"/>
       <use xlink:href="#DejaVuSans-34" x="418.457031"/>
       <use xlink:href="#DejaVuSans-2e" x="482.080078"/>
       <use xlink:href="#DejaVuSans-31" x="513.867188"/>
      </g>
     </g>
    </g>
    <g id="ytick_13">
     <g id="line2d_18">
      <g>
       <use xlink:href="#mc1496fef86" x="144" y="96.186" style="stroke: #000000; stroke-width: 0.8"/>
      </g>
     </g>
     <g id="text_19">
      <!-- 9.B.392.4.2 -->
      <g transform="translate(79.251563 99.985219) scale(0.1 -0.1)">
       <use xlink:href="#DejaVuSans-39"/>
       <use xlink:href="#DejaVuSans-2e" x="63.623047"/>
       <use xlink:href="#DejaVuSans-42" x="95.410156"/>
       <use xlink:href="#DejaVuSans-2e" x="164.013672"/>
       <use xlink:href="#DejaVuSans-33" x="195.800781"/>
       <use xlink:href="#DejaVuSans-39" x="259.423828"/>
       <use xlink:href="#DejaVuSans-32" x="323.046875"/>
       <use xlink:href="#DejaVuSans-2e" x="386.669922"/>
       <use xlink:href="#DejaVuSans-34" x="418.457031"/>
       <use xlink:href="#DejaVuSans-2e" x="482.080078"/>
       <use xlink:href="#DejaVuSans-32" x="513.867188"/>
      </g>
     </g>
    </g>
    <g id="ytick_14">
     <g id="line2d_19">
      <g>
       <use xlink:href="#mc1496fef86" x="144" y="78.336" style="stroke: #000000; stroke-width: 0.8"/>
      </g>
     </g>
     <g id="text_20">
      <!-- 9.B.392.4.3 -->
      <g transform="translate(79.251563 82.135219) scale(0.1 -0.1)">
       <use xlink:href="#DejaVuSans-39"/>
       <use xlink:href="#DejaVuSans-2e" x="63.623047"/>
       <use xlink:href="#DejaVuSans-42" x="95.410156"/>
       <use xlink:href="#DejaVuSans-2e" x="164.013672"/>
       <use xlink:href="#DejaVuSans-33" x="195.800781"/>
       <use xlink:href="#DejaVuSans-39" x="259.423828"/>
       <use xlink:href="#DejaVuSans-32" x="323.046875"/>
       <use xlink:href="#DejaVuSans-2e" x="386.669922"/>
       <use xlink:href="#DejaVuSans-34" x="418.457031"/>
       <use xlink:href="#DejaVuSans-2e" x="482.080078"/>
       <use xlink:href="#DejaVuSans-33" x="513.867188"/>
      </g>
     </g>
    </g>
    <g id="ytick_15">
     <g id="line2d_20">
      <g>
       <use xlink:href="#mc1496fef86" x="144" y="60.486" style="stroke: #000000; stroke-width: 0.8"/>
      </g>
     </g>
     <g id="text_21">
      <!-- 9.B.392.4.4 -->
      <g transform="translate(79.251563 64.285219) scale(0.1 -0.1)">
       <use xlink:href="#DejaVuSans-39"/>
       <use xlink:href="#DejaVuSans-2e" x="63.623047"/>
       <use xlink:href="#DejaVuSans-42" x="95.410156"/>
       <use xlink:href="#DejaVuSans-2e" x="164.013672"/>
       <use xlink:href="#DejaVuSans-33" x="195.800781"/>
       <use xlink:href="#DejaVuSans-39" x="259.423828"/>
       <use xlink:href="#DejaVuSans-32" x="323.046875"/>
       <use xlink:href="#DejaVuSans-2e" x="386.669922"/>
       <use xlink:href="#DejaVuSans-34" x="418.457031"/>
       <use xlink:href="#DejaVuSans-2e" x="482.080078"/>
       <use xlink:href="#DejaVuSans-34" x="513.867188"/>
      </g>
     </g>
    </g>
   </g>
   <g id="patch_345">
    <path d="M 144 326.808 
L 144 44.064 
" style="fill: none; stroke: #000000; stroke-width: 0.8; stroke-linejoin: miter; stroke-linecap: square"/>
   </g>
   <g id="patch_346">
    <path d="M 1036.8 326.808 
L 1036.8 44.064 
" style="fill: none; stroke: #000000; stroke-width: 0.8; stroke-linejoin: miter; stroke-linecap: square"/>
   </g>
   <g id="patch_347">
    <path d="M 144 326.808 
L 1036.8 326.808 
" style="fill: none; stroke: #000000; stroke-width: 0.8; stroke-linejoin: miter; stroke-linecap: square"/>
   </g>
   <g id="patch_348">
    <path d="M 144 44.064 
L 1036.8 44.064 
" style="fill: none; stroke: #000000; stroke-width: 0.8; stroke-linejoin: miter; stroke-linecap: square"/>
   </g>
   <g id="text_22">
    <!-- 9.B.392 Summary -->
    <g transform="translate(536.297812 38.064) scale(0.12 -0.12)">
     <defs>
      <path id="DejaVuSans-20" transform="scale(0.015625)"/>
      <path id="DejaVuSans-53" d="M 3425 4513 
L 3425 3897 
Q 3066 4069 2747 4153 
Q 2428 4238 2131 4238 
Q 1616 4238 1336 4038 
Q 1056 3838 1056 3469 
Q 1056 3159 1242 3001 
Q 1428 2844 1947 2747 
L 2328 2669 
Q 3034 2534 3370 2195 
Q 3706 1856 3706 1288 
Q 3706 609 3251 259 
Q 2797 -91 1919 -91 
Q 1588 -91 1214 -16 
Q 841 59 441 206 
L 441 856 
Q 825 641 1194 531 
Q 1563 422 1919 422 
Q 2459 422 2753 634 
Q 3047 847 3047 1241 
Q 3047 1584 2836 1778 
Q 2625 1972 2144 2069 
L 1759 2144 
Q 1053 2284 737 2584 
Q 422 2884 422 3419 
Q 422 4038 858 4394 
Q 1294 4750 2059 4750 
Q 2388 4750 2728 4690 
Q 3069 4631 3425 4513 
z
" transform="scale(0.015625)"/>
      <path id="DejaVuSans-6d" d="M 3328 2828 
Q 3544 3216 3844 3400 
Q 4144 3584 4550 3584 
Q 5097 3584 5394 3201 
Q 5691 2819 5691 2113 
L 5691 0 
L 5113 0 
L 5113 2094 
Q 5113 2597 4934 2840 
Q 4756 3084 4391 3084 
Q 3944 3084 3684 2787 
Q 3425 2491 3425 1978 
L 3425 0 
L 2847 0 
L 2847 2094 
Q 2847 2600 2669 2842 
Q 2491 3084 2119 3084 
Q 1678 3084 1418 2786 
Q 1159 2488 1159 1978 
L 1159 0 
L 581 0 
L 581 3500 
L 1159 3500 
L 1159 2956 
Q 1356 3278 1631 3431 
Q 1906 3584 2284 3584 
Q 2666 3584 2933 3390 
Q 3200 3197 3328 2828 
z
" transform="scale(0.015625)"/>
      <path id="DejaVuSans-72" d="M 2631 2963 
Q 2534 3019 2420 3045 
Q 2306 3072 2169 3072 
Q 1681 3072 1420 2755 
Q 1159 2438 1159 1844 
L 1159 0 
L 581 0 
L 581 3500 
L 1159 3500 
L 1159 2956 
Q 1341 3275 1631 3429 
Q 1922 3584 2338 3584 
Q 2397 3584 2469 3576 
Q 2541 3569 2628 3553 
L 2631 2963 
z
" transform="scale(0.015625)"/>
      <path id="DejaVuSans-79" d="M 2059 -325 
Q 1816 -950 1584 -1140 
Q 1353 -1331 966 -1331 
L 506 -1331 
L 506 -850 
L 844 -850 
Q 1081 -850 1212 -737 
Q 1344 -625 1503 -206 
L 1606 56 
L 191 3500 
L 800 3500 
L 1894 763 
L 2988 3500 
L 3597 3500 
L 2059 -325 
z
" transform="scale(0.015625)"/>
     </defs>
     <use xlink:href="#DejaVuSans-39"/>
     <use xlink:href="#DejaVuSans-2e" x="63.623047"/>
     <use xlink:href="#DejaVuSans-42" x="95.410156"/>
     <use xlink:href="#DejaVuSans-2e" x="164.013672"/>
     <use xlink:href="#DejaVuSans-33" x="195.800781"/>
     <use xlink:href="#DejaVuSans-39" x="259.423828"/>
     <use xlink:href="#DejaVuSans-32" x="323.046875"/>
     <use xlink:href="#DejaVuSans-20" x="386.669922"/>
     <use xlink:href="#DejaVuSans-53" x="418.457031"/>
     <use xlink:href="#DejaVuSans-75" x="481.933594"/>
     <use xlink:href="#DejaVuSans-6d" x="545.3125"/>
     <use xlink:href="#DejaVuSans-6d" x="642.724609"/>
     <use xlink:href="#DejaVuSans-61" x="740.136719"/>
     <use xlink:href="#DejaVuSans-72" x="801.416016"/>
     <use xlink:href="#DejaVuSans-79" x="842.529297"/>
    </g>
   </g>
  </g>
 </g>
 <defs>
  <clipPath id="pa391abd68a">
   <rect x="144" y="44.064" width="892.8" height="282.744"/>
  </clipPath>
 </defs>
</svg>
