<?xml version="1.0" encoding="utf-8" standalone="no"?>
<!DOCTYPE svg PUBLIC "-//W3C//DTD SVG 1.1//EN"
  "http://www.w3.org/Graphics/SVG/1.1/DTD/svg11.dtd">
<svg xmlns:xlink="http://www.w3.org/1999/xlink" width="1152pt" height="198pt" viewBox="0 0 1152 198" xmlns="http://www.w3.org/2000/svg" version="1.1">
 <metadata>
  <rdf:RDF xmlns:dc="http://purl.org/dc/elements/1.1/" xmlns:cc="http://creativecommons.org/ns#" xmlns:rdf="http://www.w3.org/1999/02/22-rdf-syntax-ns#">
   <cc:Work>
    <dc:type rdf:resource="http://purl.org/dc/dcmitype/StillImage"/>
    <dc:date>2024-10-24T21:36:37.012598</dc:date>
    <dc:format>image/svg+xml</dc:format>
    <dc:creator>
     <cc:Agent>
      <dc:title>Matplotlib v3.8.4, https://matplotlib.org/</dc:title>
     </cc:Agent>
    </dc:creator>
   </cc:Work>
  </rdf:RDF>
 </metadata>
 <defs>
  <style type="text/css">*{stroke-linejoin: round; stroke-linecap: butt}</style>
 </defs>
 <g id="figure_1">
  <g id="patch_1">
   <path d="M 0 198 
L 1152 198 
L 1152 0 
L 0 0 
z
" style="fill: #ffffff"/>
  </g>
  <g id="axes_1">
   <g id="patch_2">
    <path d="M 144 176.22 
L 1036.8 176.22 
L 1036.8 23.76 
L 144 23.76 
z
" style="fill: #ffffff"/>
   </g>
   <g id="patch_3">
    <path d="M 144 166.2375 
L 161.298457 166.2375 
L 161.298457 165.7425 
L 144 165.7425 
z
" clip-path="url(#p09e04da999)" style="fill: #0000ff"/>
   </g>
   <g id="patch_4">
    <path d="M 162.629108 169.29 
L 786.704225 169.29 
L 786.704225 162.69 
L 162.629108 162.69 
z
" clip-path="url(#p09e04da999)" style="fill: #0000ff"/>
   </g>
   <g id="patch_5">
    <path d="M 185.250168 169.29 
L 786.704225 169.29 
L 786.704225 162.69 
L 185.250168 162.69 
z
" clip-path="url(#p09e04da999)" style="fill: #0000ff"/>
   </g>
   <g id="patch_6">
    <path d="M 185.250168 169.29 
L 786.704225 169.29 
L 786.704225 162.69 
L 185.250168 162.69 
z
" clip-path="url(#p09e04da999)" style="fill: #0000ff"/>
   </g>
   <g id="patch_7">
    <path d="M 231.822938 169.29 
L 786.704225 169.29 
L 786.704225 162.69 
L 231.822938 162.69 
z
" clip-path="url(#p09e04da999)" style="fill: #0000ff"/>
   </g>
   <g id="patch_8">
    <path d="M 243.798793 169.29 
L 481.985245 169.29 
L 481.985245 162.69 
L 243.798793 162.69 
z
" clip-path="url(#p09e04da999)" style="fill: #0000ff"/>
   </g>
   <g id="patch_9">
    <path d="M 384.847753 169.29 
L 777.389671 169.29 
L 777.389671 162.69 
L 384.847753 162.69 
z
" clip-path="url(#p09e04da999)" style="fill: #0000ff"/>
   </g>
   <g id="patch_10">
    <path d="M 476.662643 169.29 
L 786.704225 169.29 
L 786.704225 162.69 
L 476.662643 162.69 
z
" clip-path="url(#p09e04da999)" style="fill: #0000ff"/>
   </g>
   <g id="patch_11">
    <path d="M 532.549966 169.29 
L 780.050973 169.29 
L 780.050973 162.69 
L 532.549966 162.69 
z
" clip-path="url(#p09e04da999)" style="fill: #0000ff"/>
   </g>
   <g id="patch_12">
    <path d="M 144 149.7375 
L 219.847082 149.7375 
L 219.847082 149.2425 
L 144 149.2425 
z
" clip-path="url(#p09e04da999)" style="fill: #0000ff"/>
   </g>
   <g id="patch_13">
    <path d="M 221.177733 152.79 
L 495.291751 152.79 
L 495.291751 146.19 
L 221.177733 146.19 
z
" clip-path="url(#p09e04da999)" style="fill: #0000ff"/>
   </g>
   <g id="patch_14">
    <path d="M 221.177733 152.79 
L 831.946345 152.79 
L 831.946345 146.19 
L 221.177733 146.19 
z
" clip-path="url(#p09e04da999)" style="fill: #0000ff"/>
   </g>
   <g id="patch_15">
    <path d="M 223.839034 152.79 
L 831.946345 152.79 
L 831.946345 146.19 
L 223.839034 146.19 
z
" clip-path="url(#p09e04da999)" style="fill: #0000ff"/>
   </g>
   <g id="patch_16">
    <path d="M 226.500335 152.79 
L 826.623742 152.79 
L 826.623742 146.19 
L 226.500335 146.19 
z
" clip-path="url(#p09e04da999)" style="fill: #0000ff"/>
   </g>
   <g id="patch_17">
    <path d="M 302.347418 152.79 
L 825.293092 152.79 
L 825.293092 146.19 
L 302.347418 146.19 
z
" clip-path="url(#p09e04da999)" style="fill: #0000ff"/>
   </g>
   <g id="patch_18">
    <path d="M 315.653924 152.79 
L 496.622401 152.79 
L 496.622401 146.19 
L 315.653924 146.19 
z
" clip-path="url(#p09e04da999)" style="fill: #0000ff"/>
   </g>
   <g id="patch_19">
    <path d="M 336.944333 152.79 
L 831.946345 152.79 
L 831.946345 146.19 
L 336.944333 146.19 
z
" clip-path="url(#p09e04da999)" style="fill: #0000ff"/>
   </g>
   <g id="patch_20">
    <path d="M 544.525822 152.79 
L 831.946345 152.79 
L 831.946345 146.19 
L 544.525822 146.19 
z
" clip-path="url(#p09e04da999)" style="fill: #0000ff"/>
   </g>
   <g id="patch_21">
    <path d="M 581.784038 152.79 
L 831.946345 152.79 
L 831.946345 146.19 
L 581.784038 146.19 
z
" clip-path="url(#p09e04da999)" style="fill: #0000ff"/>
   </g>
   <g id="patch_22">
    <path d="M 833.276995 149.7375 
L 841.260899 149.7375 
L 841.260899 149.2425 
L 833.276995 149.2425 
z
" clip-path="url(#p09e04da999)" style="fill: #0000ff"/>
   </g>
   <g id="patch_23">
    <path d="M 144 133.2375 
L 150.653253 133.2375 
L 150.653253 132.7425 
L 144 132.7425 
z
" clip-path="url(#p09e04da999)" style="fill: #0000ff"/>
   </g>
   <g id="patch_24">
    <path d="M 151.983903 136.29 
L 458.033535 136.29 
L 458.033535 129.69 
L 151.983903 129.69 
z
" clip-path="url(#p09e04da999)" style="fill: #0000ff"/>
   </g>
   <g id="patch_25">
    <path d="M 151.983903 136.29 
L 742.792757 136.29 
L 742.792757 129.69 
L 151.983903 129.69 
z
" clip-path="url(#p09e04da999)" style="fill: #0000ff"/>
   </g>
   <g id="patch_26">
    <path d="M 151.983903 136.29 
L 744.123407 136.29 
L 744.123407 129.69 
L 151.983903 129.69 
z
" clip-path="url(#p09e04da999)" style="fill: #0000ff"/>
   </g>
   <g id="patch_27">
    <path d="M 153.314554 136.29 
L 744.123407 136.29 
L 744.123407 129.69 
L 153.314554 129.69 
z
" clip-path="url(#p09e04da999)" style="fill: #0000ff"/>
   </g>
   <g id="patch_28">
    <path d="M 153.314554 136.29 
L 744.123407 136.29 
L 744.123407 129.69 
L 153.314554 129.69 
z
" clip-path="url(#p09e04da999)" style="fill: #0000ff"/>
   </g>
   <g id="patch_29">
    <path d="M 171.943662 136.29 
L 733.478203 136.29 
L 733.478203 129.69 
L 171.943662 129.69 
z
" clip-path="url(#p09e04da999)" style="fill: #0000ff"/>
   </g>
   <g id="patch_30">
    <path d="M 207.871227 136.29 
L 448.718981 136.29 
L 448.718981 129.69 
L 207.871227 129.69 
z
" clip-path="url(#p09e04da999)" style="fill: #0000ff"/>
   </g>
   <g id="patch_31">
    <path d="M 219.847082 136.29 
L 744.123407 136.29 
L 744.123407 129.69 
L 219.847082 129.69 
z
" clip-path="url(#p09e04da999)" style="fill: #0000ff"/>
   </g>
   <g id="patch_32">
    <path d="M 464.686787 136.29 
L 744.123407 136.29 
L 744.123407 129.69 
L 464.686787 129.69 
z
" clip-path="url(#p09e04da999)" style="fill: #0000ff"/>
   </g>
   <g id="patch_33">
    <path d="M 496.622401 136.29 
L 740.131455 136.29 
L 740.131455 129.69 
L 496.622401 129.69 
z
" clip-path="url(#p09e04da999)" style="fill: #0000ff"/>
   </g>
   <g id="patch_34">
    <path d="M 745.454058 133.2375 
L 745.454058 133.2375 
L 745.454058 132.7425 
L 745.454058 132.7425 
z
" clip-path="url(#p09e04da999)" style="fill: #0000ff"/>
   </g>
   <g id="patch_35">
    <path d="M 144 116.7375 
L 154.645205 116.7375 
L 154.645205 116.2425 
L 144 116.2425 
z
" clip-path="url(#p09e04da999)" style="fill: #0000ff"/>
   </g>
   <g id="patch_36">
    <path d="M 155.975855 119.79 
L 776.059021 119.79 
L 776.059021 113.19 
L 155.975855 113.19 
z
" clip-path="url(#p09e04da999)" style="fill: #0000ff"/>
   </g>
   <g id="patch_37">
    <path d="M 161.298457 119.79 
L 776.059021 119.79 
L 776.059021 113.19 
L 161.298457 113.19 
z
" clip-path="url(#p09e04da999)" style="fill: #0000ff"/>
   </g>
   <g id="patch_38">
    <path d="M 163.959759 119.79 
L 776.059021 119.79 
L 776.059021 113.19 
L 163.959759 113.19 
z
" clip-path="url(#p09e04da999)" style="fill: #0000ff"/>
   </g>
   <g id="patch_39">
    <path d="M 163.959759 119.79 
L 776.059021 119.79 
L 776.059021 113.19 
L 163.959759 113.19 
z
" clip-path="url(#p09e04da999)" style="fill: #0000ff"/>
   </g>
   <g id="patch_40">
    <path d="M 246.460094 119.79 
L 388.839705 119.79 
L 388.839705 113.19 
L 246.460094 113.19 
z
" clip-path="url(#p09e04da999)" style="fill: #0000ff"/>
   </g>
   <g id="patch_41">
    <path d="M 462.025486 119.79 
L 776.059021 119.79 
L 776.059021 113.19 
L 462.025486 113.19 
z
" clip-path="url(#p09e04da999)" style="fill: #0000ff"/>
   </g>
   <g id="patch_42">
    <path d="M 511.259557 119.79 
L 762.752515 119.79 
L 762.752515 113.19 
L 511.259557 113.19 
z
" clip-path="url(#p09e04da999)" style="fill: #0000ff"/>
   </g>
   <g id="patch_43">
    <path d="M 515.251509 119.79 
L 769.405768 119.79 
L 769.405768 113.19 
L 515.251509 113.19 
z
" clip-path="url(#p09e04da999)" style="fill: #0000ff"/>
   </g>
   <g id="patch_44">
    <path d="M 144 100.2375 
L 203.879276 100.2375 
L 203.879276 99.7425 
L 144 99.7425 
z
" clip-path="url(#p09e04da999)" style="fill: #0000ff"/>
   </g>
   <g id="patch_45">
    <path d="M 205.209926 103.29 
L 798.68008 103.29 
L 798.68008 96.69 
L 205.209926 96.69 
z
" clip-path="url(#p09e04da999)" style="fill: #0000ff"/>
   </g>
   <g id="patch_46">
    <path d="M 209.201878 103.29 
L 798.68008 103.29 
L 798.68008 96.69 
L 209.201878 96.69 
z
" clip-path="url(#p09e04da999)" style="fill: #0000ff"/>
   </g>
   <g id="patch_47">
    <path d="M 331.62173 103.29 
L 458.033535 103.29 
L 458.033535 96.69 
L 331.62173 96.69 
z
" clip-path="url(#p09e04da999)" style="fill: #0000ff"/>
   </g>
   <g id="patch_48">
    <path d="M 533.880617 103.29 
L 798.68008 103.29 
L 798.68008 96.69 
L 533.880617 96.69 
z
" clip-path="url(#p09e04da999)" style="fill: #0000ff"/>
   </g>
   <g id="patch_49">
    <path d="M 537.872569 103.29 
L 798.68008 103.29 
L 798.68008 96.69 
L 537.872569 96.69 
z
" clip-path="url(#p09e04da999)" style="fill: #0000ff"/>
   </g>
   <g id="patch_50">
    <path d="M 539.203219 103.29 
L 786.704225 103.29 
L 786.704225 96.69 
L 539.203219 96.69 
z
" clip-path="url(#p09e04da999)" style="fill: #0000ff"/>
   </g>
   <g id="patch_51">
    <path d="M 541.86452 103.29 
L 798.68008 103.29 
L 798.68008 96.69 
L 541.86452 96.69 
z
" clip-path="url(#p09e04da999)" style="fill: #0000ff"/>
   </g>
   <g id="patch_52">
    <path d="M 543.195171 103.29 
L 793.357478 103.29 
L 793.357478 96.69 
L 543.195171 96.69 
z
" clip-path="url(#p09e04da999)" style="fill: #0000ff"/>
   </g>
   <g id="patch_53">
    <path d="M 800.010731 100.2375 
L 800.010731 100.2375 
L 800.010731 99.7425 
L 800.010731 99.7425 
z
" clip-path="url(#p09e04da999)" style="fill: #0000ff"/>
   </g>
   <g id="patch_54">
    <path d="M 144 83.7375 
L 177.266264 83.7375 
L 177.266264 83.2425 
L 144 83.2425 
z
" clip-path="url(#p09e04da999)" style="fill: #0000ff"/>
   </g>
   <g id="patch_55">
    <path d="M 178.596915 86.79 
L 974.325956 86.79 
L 974.325956 80.19 
L 178.596915 80.19 
z
" clip-path="url(#p09e04da999)" style="fill: #0000ff"/>
   </g>
   <g id="patch_56">
    <path d="M 323.637827 86.79 
L 468.678739 86.79 
L 468.678739 80.19 
L 323.637827 80.19 
z
" clip-path="url(#p09e04da999)" style="fill: #0000ff"/>
   </g>
   <g id="patch_57">
    <path d="M 343.597586 86.79 
L 416.783367 86.79 
L 416.783367 80.19 
L 343.597586 80.19 
z
" clip-path="url(#p09e04da999)" style="fill: #0000ff"/>
   </g>
   <g id="patch_58">
    <path d="M 529.888665 86.79 
L 915.777331 86.79 
L 915.777331 80.19 
L 529.888665 80.19 
z
" clip-path="url(#p09e04da999)" style="fill: #0000ff"/>
   </g>
   <g id="patch_59">
    <path d="M 529.888665 86.79 
L 756.099262 86.79 
L 756.099262 80.19 
L 529.888665 80.19 
z
" clip-path="url(#p09e04da999)" style="fill: #0000ff"/>
   </g>
   <g id="patch_60">
    <path d="M 531.219316 86.79 
L 680.25218 86.79 
L 680.25218 80.19 
L 531.219316 80.19 
z
" clip-path="url(#p09e04da999)" style="fill: #0000ff"/>
   </g>
   <g id="patch_61">
    <path d="M 531.219316 86.79 
L 885.172368 86.79 
L 885.172368 80.19 
L 531.219316 80.19 
z
" clip-path="url(#p09e04da999)" style="fill: #0000ff"/>
   </g>
   <g id="patch_62">
    <path d="M 531.219316 86.79 
L 862.551308 86.79 
L 862.551308 80.19 
L 531.219316 80.19 
z
" clip-path="url(#p09e04da999)" style="fill: #0000ff"/>
   </g>
   <g id="patch_63">
    <path d="M 532.549966 86.79 
L 705.534541 86.79 
L 705.534541 80.19 
L 532.549966 80.19 
z
" clip-path="url(#p09e04da999)" style="fill: #0000ff"/>
   </g>
   <g id="patch_64">
    <path d="M 533.880617 86.79 
L 761.421865 86.79 
L 761.421865 80.19 
L 533.880617 80.19 
z
" clip-path="url(#p09e04da999)" style="fill: #0000ff"/>
   </g>
   <g id="patch_65">
    <path d="M 533.880617 86.79 
L 857.228706 86.79 
L 857.228706 80.19 
L 533.880617 80.19 
z
" clip-path="url(#p09e04da999)" style="fill: #0000ff"/>
   </g>
   <g id="patch_66">
    <path d="M 533.880617 86.79 
L 757.429913 86.79 
L 757.429913 80.19 
L 533.880617 80.19 
z
" clip-path="url(#p09e04da999)" style="fill: #0000ff"/>
   </g>
   <g id="patch_67">
    <path d="M 533.880617 86.79 
L 774.72837 86.79 
L 774.72837 80.19 
L 533.880617 80.19 
z
" clip-path="url(#p09e04da999)" style="fill: #0000ff"/>
   </g>
   <g id="patch_68">
    <path d="M 533.880617 86.79 
L 756.099262 86.79 
L 756.099262 80.19 
L 533.880617 80.19 
z
" clip-path="url(#p09e04da999)" style="fill: #0000ff"/>
   </g>
   <g id="patch_69">
    <path d="M 533.880617 86.79 
L 895.817572 86.79 
L 895.817572 80.19 
L 533.880617 80.19 
z
" clip-path="url(#p09e04da999)" style="fill: #0000ff"/>
   </g>
   <g id="patch_70">
    <path d="M 533.880617 86.79 
L 886.503018 86.79 
L 886.503018 80.19 
L 533.880617 80.19 
z
" clip-path="url(#p09e04da999)" style="fill: #0000ff"/>
   </g>
   <g id="patch_71">
    <path d="M 533.880617 86.79 
L 790.696177 86.79 
L 790.696177 80.19 
L 533.880617 80.19 
z
" clip-path="url(#p09e04da999)" style="fill: #0000ff"/>
   </g>
   <g id="patch_72">
    <path d="M 533.880617 86.79 
L 887.833669 86.79 
L 887.833669 80.19 
L 533.880617 80.19 
z
" clip-path="url(#p09e04da999)" style="fill: #0000ff"/>
   </g>
   <g id="patch_73">
    <path d="M 533.880617 86.79 
L 895.817572 86.79 
L 895.817572 80.19 
L 533.880617 80.19 
z
" clip-path="url(#p09e04da999)" style="fill: #0000ff"/>
   </g>
   <g id="patch_74">
    <path d="M 533.880617 86.79 
L 722.832998 86.79 
L 722.832998 80.19 
L 533.880617 80.19 
z
" clip-path="url(#p09e04da999)" style="fill: #0000ff"/>
   </g>
   <g id="patch_75">
    <path d="M 533.880617 86.79 
L 863.881958 86.79 
L 863.881958 80.19 
L 533.880617 80.19 
z
" clip-path="url(#p09e04da999)" style="fill: #0000ff"/>
   </g>
   <g id="patch_76">
    <path d="M 533.880617 86.79 
L 829.285044 86.79 
L 829.285044 80.19 
L 533.880617 80.19 
z
" clip-path="url(#p09e04da999)" style="fill: #0000ff"/>
   </g>
   <g id="patch_77">
    <path d="M 533.880617 86.79 
L 756.099262 86.79 
L 756.099262 80.19 
L 533.880617 80.19 
z
" clip-path="url(#p09e04da999)" style="fill: #0000ff"/>
   </g>
   <g id="patch_78">
    <path d="M 533.880617 86.79 
L 698.881288 86.79 
L 698.881288 80.19 
L 533.880617 80.19 
z
" clip-path="url(#p09e04da999)" style="fill: #0000ff"/>
   </g>
   <g id="patch_79">
    <path d="M 533.880617 86.79 
L 866.54326 86.79 
L 866.54326 80.19 
L 533.880617 80.19 
z
" clip-path="url(#p09e04da999)" style="fill: #0000ff"/>
   </g>
   <g id="patch_80">
    <path d="M 533.880617 86.79 
L 680.25218 86.79 
L 680.25218 80.19 
L 533.880617 80.19 
z
" clip-path="url(#p09e04da999)" style="fill: #0000ff"/>
   </g>
   <g id="patch_81">
    <path d="M 533.880617 86.79 
L 829.285044 86.79 
L 829.285044 80.19 
L 533.880617 80.19 
z
" clip-path="url(#p09e04da999)" style="fill: #0000ff"/>
   </g>
   <g id="patch_82">
    <path d="M 533.880617 86.79 
L 921.099933 86.79 
L 921.099933 80.19 
L 533.880617 80.19 
z
" clip-path="url(#p09e04da999)" style="fill: #0000ff"/>
   </g>
   <g id="patch_83">
    <path d="M 533.880617 86.79 
L 760.091214 86.79 
L 760.091214 80.19 
L 533.880617 80.19 
z
" clip-path="url(#p09e04da999)" style="fill: #0000ff"/>
   </g>
   <g id="patch_84">
    <path d="M 535.211268 86.79 
L 705.534541 86.79 
L 705.534541 80.19 
L 535.211268 80.19 
z
" clip-path="url(#p09e04da999)" style="fill: #0000ff"/>
   </g>
   <g id="patch_85">
    <path d="M 535.211268 86.79 
L 698.881288 86.79 
L 698.881288 80.19 
L 535.211268 80.19 
z
" clip-path="url(#p09e04da999)" style="fill: #0000ff"/>
   </g>
   <g id="patch_86">
    <path d="M 975.656606 83.7375 
L 975.656606 83.7375 
L 975.656606 83.2425 
L 975.656606 83.2425 
z
" clip-path="url(#p09e04da999)" style="fill: #0000ff"/>
   </g>
   <g id="patch_87">
    <path d="M 144 67.2375 
L 151.983903 67.2375 
L 151.983903 66.7425 
L 144 66.7425 
z
" clip-path="url(#p09e04da999)" style="fill: #0000ff"/>
   </g>
   <g id="patch_88">
    <path d="M 153.314554 70.29 
L 954.366197 70.29 
L 954.366197 63.69 
L 153.314554 63.69 
z
" clip-path="url(#p09e04da999)" style="fill: #0000ff"/>
   </g>
   <g id="patch_89">
    <path d="M 283.71831 70.29 
L 458.033535 70.29 
L 458.033535 63.69 
L 283.71831 63.69 
z
" clip-path="url(#p09e04da999)" style="fill: #0000ff"/>
   </g>
   <g id="patch_90">
    <path d="M 512.590208 70.29 
L 891.82562 70.29 
L 891.82562 63.69 
L 512.590208 63.69 
z
" clip-path="url(#p09e04da999)" style="fill: #0000ff"/>
   </g>
   <g id="patch_91">
    <path d="M 515.251509 70.29 
L 680.25218 70.29 
L 680.25218 63.69 
L 515.251509 63.69 
z
" clip-path="url(#p09e04da999)" style="fill: #0000ff"/>
   </g>
   <g id="patch_92">
    <path d="M 515.251509 70.29 
L 684.244131 70.29 
L 684.244131 63.69 
L 515.251509 63.69 
z
" clip-path="url(#p09e04da999)" style="fill: #0000ff"/>
   </g>
   <g id="patch_93">
    <path d="M 515.251509 70.29 
L 794.688129 70.29 
L 794.688129 63.69 
L 515.251509 63.69 
z
" clip-path="url(#p09e04da999)" style="fill: #0000ff"/>
   </g>
   <g id="patch_94">
    <path d="M 515.251509 70.29 
L 684.244131 70.29 
L 684.244131 63.69 
L 515.251509 63.69 
z
" clip-path="url(#p09e04da999)" style="fill: #0000ff"/>
   </g>
   <g id="patch_95">
    <path d="M 515.251509 70.29 
L 882.511066 70.29 
L 882.511066 63.69 
L 515.251509 63.69 
z
" clip-path="url(#p09e04da999)" style="fill: #0000ff"/>
   </g>
   <g id="patch_96">
    <path d="M 515.251509 70.29 
L 843.9222 70.29 
L 843.9222 63.69 
L 515.251509 63.69 
z
" clip-path="url(#p09e04da999)" style="fill: #0000ff"/>
   </g>
   <g id="patch_97">
    <path d="M 516.58216 70.29 
L 710.857143 70.29 
L 710.857143 63.69 
L 516.58216 63.69 
z
" clip-path="url(#p09e04da999)" style="fill: #0000ff"/>
   </g>
   <g id="patch_98">
    <path d="M 516.58216 70.29 
L 681.58283 70.29 
L 681.58283 63.69 
L 516.58216 63.69 
z
" clip-path="url(#p09e04da999)" style="fill: #0000ff"/>
   </g>
   <g id="patch_99">
    <path d="M 517.91281 70.29 
L 742.792757 70.29 
L 742.792757 63.69 
L 517.91281 63.69 
z
" clip-path="url(#p09e04da999)" style="fill: #0000ff"/>
   </g>
   <g id="patch_100">
    <path d="M 517.91281 70.29 
L 681.58283 70.29 
L 681.58283 63.69 
L 517.91281 63.69 
z
" clip-path="url(#p09e04da999)" style="fill: #0000ff"/>
   </g>
   <g id="patch_101">
    <path d="M 517.91281 70.29 
L 738.800805 70.29 
L 738.800805 63.69 
L 517.91281 63.69 
z
" clip-path="url(#p09e04da999)" style="fill: #0000ff"/>
   </g>
   <g id="patch_102">
    <path d="M 517.91281 70.29 
L 749.446009 70.29 
L 749.446009 63.69 
L 517.91281 63.69 
z
" clip-path="url(#p09e04da999)" style="fill: #0000ff"/>
   </g>
   <g id="patch_103">
    <path d="M 517.91281 70.29 
L 837.268947 70.29 
L 837.268947 63.69 
L 517.91281 63.69 
z
" clip-path="url(#p09e04da999)" style="fill: #0000ff"/>
   </g>
   <g id="patch_104">
    <path d="M 517.91281 70.29 
L 765.413816 70.29 
L 765.413816 63.69 
L 517.91281 63.69 
z
" clip-path="url(#p09e04da999)" style="fill: #0000ff"/>
   </g>
   <g id="patch_105">
    <path d="M 517.91281 70.29 
L 742.792757 70.29 
L 742.792757 63.69 
L 517.91281 63.69 
z
" clip-path="url(#p09e04da999)" style="fill: #0000ff"/>
   </g>
   <g id="patch_106">
    <path d="M 517.91281 70.29 
L 858.559356 70.29 
L 858.559356 63.69 
L 517.91281 63.69 
z
" clip-path="url(#p09e04da999)" style="fill: #0000ff"/>
   </g>
   <g id="patch_107">
    <path d="M 517.91281 70.29 
L 882.511066 70.29 
L 882.511066 63.69 
L 517.91281 63.69 
z
" clip-path="url(#p09e04da999)" style="fill: #0000ff"/>
   </g>
   <g id="patch_108">
    <path d="M 517.91281 70.29 
L 859.890007 70.29 
L 859.890007 63.69 
L 517.91281 63.69 
z
" clip-path="url(#p09e04da999)" style="fill: #0000ff"/>
   </g>
   <g id="patch_109">
    <path d="M 517.91281 70.29 
L 807.994634 70.29 
L 807.994634 63.69 
L 517.91281 63.69 
z
" clip-path="url(#p09e04da999)" style="fill: #0000ff"/>
   </g>
   <g id="patch_110">
    <path d="M 517.91281 70.29 
L 690.897384 70.29 
L 690.897384 63.69 
L 517.91281 63.69 
z
" clip-path="url(#p09e04da999)" style="fill: #0000ff"/>
   </g>
   <g id="patch_111">
    <path d="M 517.91281 70.29 
L 854.567404 70.29 
L 854.567404 63.69 
L 517.91281 63.69 
z
" clip-path="url(#p09e04da999)" style="fill: #0000ff"/>
   </g>
   <g id="patch_112">
    <path d="M 517.91281 70.29 
L 911.785379 70.29 
L 911.785379 63.69 
L 517.91281 63.69 
z
" clip-path="url(#p09e04da999)" style="fill: #0000ff"/>
   </g>
   <g id="patch_113">
    <path d="M 517.91281 70.29 
L 810.655936 70.29 
L 810.655936 63.69 
L 517.91281 63.69 
z
" clip-path="url(#p09e04da999)" style="fill: #0000ff"/>
   </g>
   <g id="patch_114">
    <path d="M 517.91281 70.29 
L 788.034876 70.29 
L 788.034876 63.69 
L 517.91281 63.69 
z
" clip-path="url(#p09e04da999)" style="fill: #0000ff"/>
   </g>
   <g id="patch_115">
    <path d="M 517.91281 70.29 
L 712.187793 70.29 
L 712.187793 63.69 
L 517.91281 63.69 
z
" clip-path="url(#p09e04da999)" style="fill: #0000ff"/>
   </g>
   <g id="patch_116">
    <path d="M 517.91281 70.29 
L 858.559356 70.29 
L 858.559356 63.69 
L 517.91281 63.69 
z
" clip-path="url(#p09e04da999)" style="fill: #0000ff"/>
   </g>
   <g id="patch_117">
    <path d="M 517.91281 70.29 
L 684.244131 70.29 
L 684.244131 63.69 
L 517.91281 63.69 
z
" clip-path="url(#p09e04da999)" style="fill: #0000ff"/>
   </g>
   <g id="patch_118">
    <path d="M 517.91281 70.29 
L 810.655936 70.29 
L 810.655936 63.69 
L 517.91281 63.69 
z
" clip-path="url(#p09e04da999)" style="fill: #0000ff"/>
   </g>
   <g id="patch_119">
    <path d="M 517.91281 70.29 
L 895.817572 70.29 
L 895.817572 63.69 
L 517.91281 63.69 
z
" clip-path="url(#p09e04da999)" style="fill: #0000ff"/>
   </g>
   <g id="patch_120">
    <path d="M 517.91281 70.29 
L 741.462106 70.29 
L 741.462106 63.69 
L 517.91281 63.69 
z
" clip-path="url(#p09e04da999)" style="fill: #0000ff"/>
   </g>
   <g id="patch_121">
    <path d="M 519.243461 70.29 
L 712.187793 70.29 
L 712.187793 63.69 
L 519.243461 63.69 
z
" clip-path="url(#p09e04da999)" style="fill: #0000ff"/>
   </g>
   <g id="patch_122">
    <path d="M 520.574111 70.29 
L 689.566734 70.29 
L 689.566734 63.69 
L 520.574111 63.69 
z
" clip-path="url(#p09e04da999)" style="fill: #0000ff"/>
   </g>
   <g id="patch_123">
    <path d="M 591.098592 70.29 
L 737.470154 70.29 
L 737.470154 63.69 
L 591.098592 63.69 
z
" clip-path="url(#p09e04da999)" style="fill: #0000ff"/>
   </g>
   <g id="patch_124">
    <path d="M 955.696848 67.2375 
L 994.285714 67.2375 
L 994.285714 66.7425 
L 955.696848 66.7425 
z
" clip-path="url(#p09e04da999)" style="fill: #0000ff"/>
   </g>
   <g id="patch_125">
    <path d="M 144 50.7375 
L 159.967807 50.7375 
L 159.967807 50.2425 
L 144 50.2425 
z
" clip-path="url(#p09e04da999)" style="fill: #0000ff"/>
   </g>
   <g id="patch_126">
    <path d="M 161.298457 53.79 
L 953.035547 53.79 
L 953.035547 47.19 
L 161.298457 47.19 
z
" clip-path="url(#p09e04da999)" style="fill: #0000ff"/>
   </g>
   <g id="patch_127">
    <path d="M 223.839034 53.79 
L 447.38833 53.79 
L 447.38833 47.19 
L 223.839034 47.19 
z
" clip-path="url(#p09e04da999)" style="fill: #0000ff"/>
   </g>
   <g id="patch_128">
    <path d="M 328.960429 53.79 
L 459.364185 53.79 
L 459.364185 47.19 
L 328.960429 47.19 
z
" clip-path="url(#p09e04da999)" style="fill: #0000ff"/>
   </g>
   <g id="patch_129">
    <path d="M 335.613682 53.79 
L 459.364185 53.79 
L 459.364185 47.19 
L 335.613682 47.19 
z
" clip-path="url(#p09e04da999)" style="fill: #0000ff"/>
   </g>
   <g id="patch_130">
    <path d="M 336.944333 53.79 
L 454.041583 53.79 
L 454.041583 47.19 
L 336.944333 47.19 
z
" clip-path="url(#p09e04da999)" style="fill: #0000ff"/>
   </g>
   <g id="patch_131">
    <path d="M 338.274983 53.79 
L 458.033535 53.79 
L 458.033535 47.19 
L 338.274983 47.19 
z
" clip-path="url(#p09e04da999)" style="fill: #0000ff"/>
   </g>
   <g id="patch_132">
    <path d="M 338.274983 53.79 
L 427.428571 53.79 
L 427.428571 47.19 
L 338.274983 47.19 
z
" clip-path="url(#p09e04da999)" style="fill: #0000ff"/>
   </g>
   <g id="patch_133">
    <path d="M 340.936284 53.79 
L 464.686787 53.79 
L 464.686787 47.19 
L 340.936284 47.19 
z
" clip-path="url(#p09e04da999)" style="fill: #0000ff"/>
   </g>
   <g id="patch_134">
    <path d="M 513.920858 53.79 
L 678.921529 53.79 
L 678.921529 47.19 
L 513.920858 47.19 
z
" clip-path="url(#p09e04da999)" style="fill: #0000ff"/>
   </g>
   <g id="patch_135">
    <path d="M 513.920858 53.79 
L 588.43729 53.79 
L 588.43729 47.19 
L 513.920858 47.19 
z
" clip-path="url(#p09e04da999)" style="fill: #0000ff"/>
   </g>
   <g id="patch_136">
    <path d="M 515.251509 53.79 
L 721.502347 53.79 
L 721.502347 47.19 
L 515.251509 47.19 
z
" clip-path="url(#p09e04da999)" style="fill: #0000ff"/>
   </g>
   <g id="patch_137">
    <path d="M 515.251509 53.79 
L 673.598927 53.79 
L 673.598927 47.19 
L 515.251509 47.19 
z
" clip-path="url(#p09e04da999)" style="fill: #0000ff"/>
   </g>
   <g id="patch_138">
    <path d="M 515.251509 53.79 
L 694.889336 53.79 
L 694.889336 47.19 
L 515.251509 47.19 
z
" clip-path="url(#p09e04da999)" style="fill: #0000ff"/>
   </g>
   <g id="patch_139">
    <path d="M 517.91281 53.79 
L 898.478873 53.79 
L 898.478873 47.19 
L 517.91281 47.19 
z
" clip-path="url(#p09e04da999)" style="fill: #0000ff"/>
   </g>
   <g id="patch_140">
    <path d="M 517.91281 53.79 
L 781.381623 53.79 
L 781.381623 47.19 
L 517.91281 47.19 
z
" clip-path="url(#p09e04da999)" style="fill: #0000ff"/>
   </g>
   <g id="patch_141">
    <path d="M 519.243461 53.79 
L 701.542589 53.79 
L 701.542589 47.19 
L 519.243461 47.19 
z
" clip-path="url(#p09e04da999)" style="fill: #0000ff"/>
   </g>
   <g id="patch_142">
    <path d="M 519.243461 53.79 
L 669.606975 53.79 
L 669.606975 47.19 
L 519.243461 47.19 
z
" clip-path="url(#p09e04da999)" style="fill: #0000ff"/>
   </g>
   <g id="patch_143">
    <path d="M 519.243461 53.79 
L 686.905433 53.79 
L 686.905433 47.19 
L 519.243461 47.19 
z
" clip-path="url(#p09e04da999)" style="fill: #0000ff"/>
   </g>
   <g id="patch_144">
    <path d="M 519.243461 53.79 
L 689.566734 53.79 
L 689.566734 47.19 
L 519.243461 47.19 
z
" clip-path="url(#p09e04da999)" style="fill: #0000ff"/>
   </g>
   <g id="patch_145">
    <path d="M 519.243461 53.79 
L 889.164319 53.79 
L 889.164319 47.19 
L 519.243461 47.19 
z
" clip-path="url(#p09e04da999)" style="fill: #0000ff"/>
   </g>
   <g id="patch_146">
    <path d="M 519.243461 53.79 
L 705.534541 53.79 
L 705.534541 47.19 
L 519.243461 47.19 
z
" clip-path="url(#p09e04da999)" style="fill: #0000ff"/>
   </g>
   <g id="patch_147">
    <path d="M 520.574111 53.79 
L 686.905433 53.79 
L 686.905433 47.19 
L 520.574111 47.19 
z
" clip-path="url(#p09e04da999)" style="fill: #0000ff"/>
   </g>
   <g id="patch_148">
    <path d="M 520.574111 53.79 
L 694.889336 53.79 
L 694.889336 47.19 
L 520.574111 47.19 
z
" clip-path="url(#p09e04da999)" style="fill: #0000ff"/>
   </g>
   <g id="patch_149">
    <path d="M 521.904762 53.79 
L 749.446009 53.79 
L 749.446009 47.19 
L 521.904762 47.19 
z
" clip-path="url(#p09e04da999)" style="fill: #0000ff"/>
   </g>
   <g id="patch_150">
    <path d="M 521.904762 53.79 
L 752.107311 53.79 
L 752.107311 47.19 
L 521.904762 47.19 
z
" clip-path="url(#p09e04da999)" style="fill: #0000ff"/>
   </g>
   <g id="patch_151">
    <path d="M 521.904762 53.79 
L 714.849095 53.79 
L 714.849095 47.19 
L 521.904762 47.19 
z
" clip-path="url(#p09e04da999)" style="fill: #0000ff"/>
   </g>
   <g id="patch_152">
    <path d="M 521.904762 53.79 
L 905.132126 53.79 
L 905.132126 47.19 
L 521.904762 47.19 
z
" clip-path="url(#p09e04da999)" style="fill: #0000ff"/>
   </g>
   <g id="patch_153">
    <path d="M 521.904762 53.79 
L 887.833669 53.79 
L 887.833669 47.19 
L 521.904762 47.19 
z
" clip-path="url(#p09e04da999)" style="fill: #0000ff"/>
   </g>
   <g id="patch_154">
    <path d="M 521.904762 53.79 
L 756.099262 53.79 
L 756.099262 47.19 
L 521.904762 47.19 
z
" clip-path="url(#p09e04da999)" style="fill: #0000ff"/>
   </g>
   <g id="patch_155">
    <path d="M 521.904762 53.79 
L 857.228706 53.79 
L 857.228706 47.19 
L 521.904762 47.19 
z
" clip-path="url(#p09e04da999)" style="fill: #0000ff"/>
   </g>
   <g id="patch_156">
    <path d="M 521.904762 53.79 
L 874.527163 53.79 
L 874.527163 47.19 
L 521.904762 47.19 
z
" clip-path="url(#p09e04da999)" style="fill: #0000ff"/>
   </g>
   <g id="patch_157">
    <path d="M 521.904762 53.79 
L 749.446009 53.79 
L 749.446009 47.19 
L 521.904762 47.19 
z
" clip-path="url(#p09e04da999)" style="fill: #0000ff"/>
   </g>
   <g id="patch_158">
    <path d="M 521.904762 53.79 
L 712.187793 53.79 
L 712.187793 47.19 
L 521.904762 47.19 
z
" clip-path="url(#p09e04da999)" style="fill: #0000ff"/>
   </g>
   <g id="patch_159">
    <path d="M 521.904762 53.79 
L 778.720322 53.79 
L 778.720322 47.19 
L 521.904762 47.19 
z
" clip-path="url(#p09e04da999)" style="fill: #0000ff"/>
   </g>
   <g id="patch_160">
    <path d="M 521.904762 53.79 
L 866.54326 53.79 
L 866.54326 47.19 
L 521.904762 47.19 
z
" clip-path="url(#p09e04da999)" style="fill: #0000ff"/>
   </g>
   <g id="patch_161">
    <path d="M 521.904762 53.79 
L 874.527163 53.79 
L 874.527163 47.19 
L 521.904762 47.19 
z
" clip-path="url(#p09e04da999)" style="fill: #0000ff"/>
   </g>
   <g id="patch_162">
    <path d="M 521.904762 53.79 
L 814.647887 53.79 
L 814.647887 47.19 
L 521.904762 47.19 
z
" clip-path="url(#p09e04da999)" style="fill: #0000ff"/>
   </g>
   <g id="patch_163">
    <path d="M 521.904762 53.79 
L 737.470154 53.79 
L 737.470154 47.19 
L 521.904762 47.19 
z
" clip-path="url(#p09e04da999)" style="fill: #0000ff"/>
   </g>
   <g id="patch_164">
    <path d="M 521.904762 53.79 
L 831.946345 53.79 
L 831.946345 47.19 
L 521.904762 47.19 
z
" clip-path="url(#p09e04da999)" style="fill: #0000ff"/>
   </g>
   <g id="patch_165">
    <path d="M 521.904762 53.79 
L 673.598927 53.79 
L 673.598927 47.19 
L 521.904762 47.19 
z
" clip-path="url(#p09e04da999)" style="fill: #0000ff"/>
   </g>
   <g id="patch_166">
    <path d="M 521.904762 53.79 
L 814.647887 53.79 
L 814.647887 47.19 
L 521.904762 47.19 
z
" clip-path="url(#p09e04da999)" style="fill: #0000ff"/>
   </g>
   <g id="patch_167">
    <path d="M 521.904762 53.79 
L 863.881958 53.79 
L 863.881958 47.19 
L 521.904762 47.19 
z
" clip-path="url(#p09e04da999)" style="fill: #0000ff"/>
   </g>
   <g id="patch_168">
    <path d="M 521.904762 53.79 
L 923.761234 53.79 
L 923.761234 47.19 
L 521.904762 47.19 
z
" clip-path="url(#p09e04da999)" style="fill: #0000ff"/>
   </g>
   <g id="patch_169">
    <path d="M 521.904762 53.79 
L 744.123407 53.79 
L 744.123407 47.19 
L 521.904762 47.19 
z
" clip-path="url(#p09e04da999)" style="fill: #0000ff"/>
   </g>
   <g id="patch_170">
    <path d="M 521.904762 53.79 
L 722.832998 53.79 
L 722.832998 47.19 
L 521.904762 47.19 
z
" clip-path="url(#p09e04da999)" style="fill: #0000ff"/>
   </g>
   <g id="patch_171">
    <path d="M 521.904762 53.79 
L 843.9222 53.79 
L 843.9222 47.19 
L 521.904762 47.19 
z
" clip-path="url(#p09e04da999)" style="fill: #0000ff"/>
   </g>
   <g id="patch_172">
    <path d="M 521.904762 53.79 
L 689.566734 53.79 
L 689.566734 47.19 
L 521.904762 47.19 
z
" clip-path="url(#p09e04da999)" style="fill: #0000ff"/>
   </g>
   <g id="patch_173">
    <path d="M 521.904762 53.79 
L 745.454058 53.79 
L 745.454058 47.19 
L 521.904762 47.19 
z
" clip-path="url(#p09e04da999)" style="fill: #0000ff"/>
   </g>
   <g id="patch_174">
    <path d="M 521.904762 53.79 
L 772.067069 53.79 
L 772.067069 47.19 
L 521.904762 47.19 
z
" clip-path="url(#p09e04da999)" style="fill: #0000ff"/>
   </g>
   <g id="patch_175">
    <path d="M 521.904762 53.79 
L 901.140174 53.79 
L 901.140174 47.19 
L 521.904762 47.19 
z
" clip-path="url(#p09e04da999)" style="fill: #0000ff"/>
   </g>
   <g id="patch_176">
    <path d="M 521.904762 53.79 
L 774.72837 53.79 
L 774.72837 47.19 
L 521.904762 47.19 
z
" clip-path="url(#p09e04da999)" style="fill: #0000ff"/>
   </g>
   <g id="patch_177">
    <path d="M 523.235412 53.79 
L 688.236083 53.79 
L 688.236083 47.19 
L 523.235412 47.19 
z
" clip-path="url(#p09e04da999)" style="fill: #0000ff"/>
   </g>
   <g id="patch_178">
    <path d="M 524.566063 53.79 
L 685.574782 53.79 
L 685.574782 47.19 
L 524.566063 47.19 
z
" clip-path="url(#p09e04da999)" style="fill: #0000ff"/>
   </g>
   <g id="patch_179">
    <path d="M 524.566063 53.79 
L 694.889336 53.79 
L 694.889336 47.19 
L 524.566063 47.19 
z
" clip-path="url(#p09e04da999)" style="fill: #0000ff"/>
   </g>
   <g id="patch_180">
    <path d="M 524.566063 53.79 
L 686.905433 53.79 
L 686.905433 47.19 
L 524.566063 47.19 
z
" clip-path="url(#p09e04da999)" style="fill: #0000ff"/>
   </g>
   <g id="patch_181">
    <path d="M 954.366197 50.7375 
L 975.656606 50.7375 
L 975.656606 50.2425 
L 954.366197 50.2425 
z
" clip-path="url(#p09e04da999)" style="fill: #0000ff"/>
   </g>
   <g id="patch_182">
    <path d="M 144 37.29 
L 615.050302 37.29 
L 615.050302 30.69 
L 144 30.69 
z
" clip-path="url(#p09e04da999)" style="fill: #0000ff"/>
   </g>
   <g id="patch_183">
    <path d="M 144 37.29 
L 585.775989 37.29 
L 585.775989 30.69 
L 144 30.69 
z
" clip-path="url(#p09e04da999)" style="fill: #0000ff"/>
   </g>
   <g id="patch_184">
    <path d="M 144 37.29 
L 363.557344 37.29 
L 363.557344 30.69 
L 144 30.69 
z
" clip-path="url(#p09e04da999)" style="fill: #0000ff"/>
   </g>
   <g id="patch_185">
    <path d="M 144 37.29 
L 585.775989 37.29 
L 585.775989 30.69 
L 144 30.69 
z
" clip-path="url(#p09e04da999)" style="fill: #0000ff"/>
   </g>
   <g id="patch_186">
    <path d="M 145.330651 37.29 
L 560.493628 37.29 
L 560.493628 30.69 
L 145.330651 30.69 
z
" clip-path="url(#p09e04da999)" style="fill: #0000ff"/>
   </g>
   <g id="patch_187">
    <path d="M 145.330651 37.29 
L 589.767941 37.29 
L 589.767941 30.69 
L 145.330651 30.69 
z
" clip-path="url(#p09e04da999)" style="fill: #0000ff"/>
   </g>
   <g id="patch_188">
    <path d="M 145.330651 37.29 
L 583.114688 37.29 
L 583.114688 30.69 
L 145.330651 30.69 
z
" clip-path="url(#p09e04da999)" style="fill: #0000ff"/>
   </g>
   <g id="patch_189">
    <path d="M 145.330651 37.29 
L 372.871898 37.29 
L 372.871898 30.69 
L 145.330651 30.69 
z
" clip-path="url(#p09e04da999)" style="fill: #0000ff"/>
   </g>
   <g id="patch_190">
    <path d="M 145.330651 37.29 
L 589.767941 37.29 
L 589.767941 30.69 
L 145.330651 30.69 
z
" clip-path="url(#p09e04da999)" style="fill: #0000ff"/>
   </g>
   <g id="patch_191">
    <path d="M 145.330651 37.29 
L 583.114688 37.29 
L 583.114688 30.69 
L 145.330651 30.69 
z
" clip-path="url(#p09e04da999)" style="fill: #0000ff"/>
   </g>
   <g id="patch_192">
    <path d="M 145.330651 37.29 
L 583.114688 37.29 
L 583.114688 30.69 
L 145.330651 30.69 
z
" clip-path="url(#p09e04da999)" style="fill: #0000ff"/>
   </g>
   <g id="patch_193">
    <path d="M 145.330651 37.29 
L 501.945003 37.29 
L 501.945003 30.69 
L 145.330651 30.69 
z
" clip-path="url(#p09e04da999)" style="fill: #0000ff"/>
   </g>
   <g id="patch_194">
    <path d="M 145.330651 37.29 
L 391.501006 37.29 
L 391.501006 30.69 
L 145.330651 30.69 
z
" clip-path="url(#p09e04da999)" style="fill: #0000ff"/>
   </g>
   <g id="patch_195">
    <path d="M 145.330651 37.29 
L 596.421194 37.29 
L 596.421194 30.69 
L 145.330651 30.69 
z
" clip-path="url(#p09e04da999)" style="fill: #0000ff"/>
   </g>
   <g id="patch_196">
    <path d="M 145.330651 37.29 
L 475.331992 37.29 
L 475.331992 30.69 
L 145.330651 30.69 
z
" clip-path="url(#p09e04da999)" style="fill: #0000ff"/>
   </g>
   <g id="patch_197">
    <path d="M 145.330651 37.29 
L 372.871898 37.29 
L 372.871898 30.69 
L 145.330651 30.69 
z
" clip-path="url(#p09e04da999)" style="fill: #0000ff"/>
   </g>
   <g id="patch_198">
    <path d="M 145.330651 37.29 
L 615.050302 37.29 
L 615.050302 30.69 
L 145.330651 30.69 
z
" clip-path="url(#p09e04da999)" style="fill: #0000ff"/>
   </g>
   <g id="patch_199">
    <path d="M 145.330651 37.29 
L 238.47619 37.29 
L 238.47619 30.69 
L 145.330651 30.69 
z
" clip-path="url(#p09e04da999)" style="fill: #0000ff"/>
   </g>
   <g id="patch_200">
    <path d="M 146.661301 37.29 
L 579.122736 37.29 
L 579.122736 30.69 
L 146.661301 30.69 
z
" clip-path="url(#p09e04da999)" style="fill: #0000ff"/>
   </g>
   <g id="patch_201">
    <path d="M 146.661301 37.29 
L 573.800134 37.29 
L 573.800134 30.69 
L 146.661301 30.69 
z
" clip-path="url(#p09e04da999)" style="fill: #0000ff"/>
   </g>
   <g id="patch_202">
    <path d="M 146.661301 37.29 
L 581.784038 37.29 
L 581.784038 30.69 
L 146.661301 30.69 
z
" clip-path="url(#p09e04da999)" style="fill: #0000ff"/>
   </g>
   <g id="patch_203">
    <path d="M 146.661301 37.29 
L 601.743796 37.29 
L 601.743796 30.69 
L 146.661301 30.69 
z
" clip-path="url(#p09e04da999)" style="fill: #0000ff"/>
   </g>
   <g id="patch_204">
    <path d="M 146.661301 37.29 
L 581.784038 37.29 
L 581.784038 30.69 
L 146.661301 30.69 
z
" clip-path="url(#p09e04da999)" style="fill: #0000ff"/>
   </g>
   <g id="patch_205">
    <path d="M 146.661301 37.29 
L 467.348089 37.29 
L 467.348089 30.69 
L 146.661301 30.69 
z
" clip-path="url(#p09e04da999)" style="fill: #0000ff"/>
   </g>
   <g id="patch_206">
    <path d="M 146.661301 37.29 
L 577.792086 37.29 
L 577.792086 30.69 
L 146.661301 30.69 
z
" clip-path="url(#p09e04da999)" style="fill: #0000ff"/>
   </g>
   <g id="patch_207">
    <path d="M 146.661301 37.29 
L 572.469484 37.29 
L 572.469484 30.69 
L 146.661301 30.69 
z
" clip-path="url(#p09e04da999)" style="fill: #0000ff"/>
   </g>
   <g id="patch_208">
    <path d="M 146.661301 37.29 
L 584.445339 37.29 
L 584.445339 30.69 
L 146.661301 30.69 
z
" clip-path="url(#p09e04da999)" style="fill: #0000ff"/>
   </g>
   <g id="patch_209">
    <path d="M 146.661301 37.29 
L 583.114688 37.29 
L 583.114688 30.69 
L 146.661301 30.69 
z
" clip-path="url(#p09e04da999)" style="fill: #0000ff"/>
   </g>
   <g id="patch_210">
    <path d="M 146.661301 37.29 
L 585.775989 37.29 
L 585.775989 30.69 
L 146.661301 30.69 
z
" clip-path="url(#p09e04da999)" style="fill: #0000ff"/>
   </g>
   <g id="patch_211">
    <path d="M 146.661301 37.29 
L 587.10664 37.29 
L 587.10664 30.69 
L 146.661301 30.69 
z
" clip-path="url(#p09e04da999)" style="fill: #0000ff"/>
   </g>
   <g id="patch_212">
    <path d="M 146.661301 37.29 
L 479.323944 37.29 
L 479.323944 30.69 
L 146.661301 30.69 
z
" clip-path="url(#p09e04da999)" style="fill: #0000ff"/>
   </g>
   <g id="patch_213">
    <path d="M 146.661301 37.29 
L 456.702884 37.29 
L 456.702884 30.69 
L 146.661301 30.69 
z
" clip-path="url(#p09e04da999)" style="fill: #0000ff"/>
   </g>
   <g id="patch_214">
    <path d="M 146.661301 37.29 
L 583.114688 37.29 
L 583.114688 30.69 
L 146.661301 30.69 
z
" clip-path="url(#p09e04da999)" style="fill: #0000ff"/>
   </g>
   <g id="patch_215">
    <path d="M 146.661301 37.29 
L 587.10664 37.29 
L 587.10664 30.69 
L 146.661301 30.69 
z
" clip-path="url(#p09e04da999)" style="fill: #0000ff"/>
   </g>
   <g id="patch_216">
    <path d="M 146.661301 37.29 
L 584.445339 37.29 
L 584.445339 30.69 
L 146.661301 30.69 
z
" clip-path="url(#p09e04da999)" style="fill: #0000ff"/>
   </g>
   <g id="patch_217">
    <path d="M 146.661301 37.29 
L 398.154259 37.29 
L 398.154259 30.69 
L 146.661301 30.69 
z
" clip-path="url(#p09e04da999)" style="fill: #0000ff"/>
   </g>
   <g id="patch_218">
    <path d="M 146.661301 37.29 
L 581.784038 37.29 
L 581.784038 30.69 
L 146.661301 30.69 
z
" clip-path="url(#p09e04da999)" style="fill: #0000ff"/>
   </g>
   <g id="patch_219">
    <path d="M 146.661301 37.29 
L 295.694165 37.29 
L 295.694165 30.69 
L 146.661301 30.69 
z
" clip-path="url(#p09e04da999)" style="fill: #0000ff"/>
   </g>
   <g id="patch_220">
    <path d="M 146.661301 37.29 
L 587.10664 37.29 
L 587.10664 30.69 
L 146.661301 30.69 
z
" clip-path="url(#p09e04da999)" style="fill: #0000ff"/>
   </g>
   <g id="patch_221">
    <path d="M 146.661301 37.29 
L 583.114688 37.29 
L 583.114688 30.69 
L 146.661301 30.69 
z
" clip-path="url(#p09e04da999)" style="fill: #0000ff"/>
   </g>
   <g id="patch_222">
    <path d="M 146.661301 37.29 
L 588.43729 37.29 
L 588.43729 30.69 
L 146.661301 30.69 
z
" clip-path="url(#p09e04da999)" style="fill: #0000ff"/>
   </g>
   <g id="patch_223">
    <path d="M 146.661301 37.29 
L 564.48558 37.29 
L 564.48558 30.69 
L 146.661301 30.69 
z
" clip-path="url(#p09e04da999)" style="fill: #0000ff"/>
   </g>
   <g id="patch_224">
    <path d="M 146.661301 37.29 
L 483.315895 37.29 
L 483.315895 30.69 
L 146.661301 30.69 
z
" clip-path="url(#p09e04da999)" style="fill: #0000ff"/>
   </g>
   <g id="patch_225">
    <path d="M 146.661301 37.29 
L 604.405097 37.29 
L 604.405097 30.69 
L 146.661301 30.69 
z
" clip-path="url(#p09e04da999)" style="fill: #0000ff"/>
   </g>
   <g id="patch_226">
    <path d="M 146.661301 37.29 
L 592.429242 37.29 
L 592.429242 30.69 
L 146.661301 30.69 
z
" clip-path="url(#p09e04da999)" style="fill: #0000ff"/>
   </g>
   <g id="patch_227">
    <path d="M 146.661301 37.29 
L 456.702884 37.29 
L 456.702884 30.69 
L 146.661301 30.69 
z
" clip-path="url(#p09e04da999)" style="fill: #0000ff"/>
   </g>
   <g id="patch_228">
    <path d="M 147.991952 37.29 
L 476.662643 37.29 
L 476.662643 30.69 
L 147.991952 30.69 
z
" clip-path="url(#p09e04da999)" style="fill: #0000ff"/>
   </g>
   <g id="patch_229">
    <path d="M 147.991952 37.29 
L 511.259557 37.29 
L 511.259557 30.69 
L 147.991952 30.69 
z
" clip-path="url(#p09e04da999)" style="fill: #0000ff"/>
   </g>
   <g id="patch_230">
    <path d="M 147.991952 37.29 
L 476.662643 37.29 
L 476.662643 30.69 
L 147.991952 30.69 
z
" clip-path="url(#p09e04da999)" style="fill: #0000ff"/>
   </g>
   <g id="patch_231">
    <path d="M 147.991952 37.29 
L 583.114688 37.29 
L 583.114688 30.69 
L 147.991952 30.69 
z
" clip-path="url(#p09e04da999)" style="fill: #0000ff"/>
   </g>
   <g id="patch_232">
    <path d="M 147.991952 37.29 
L 579.122736 37.29 
L 579.122736 30.69 
L 147.991952 30.69 
z
" clip-path="url(#p09e04da999)" style="fill: #0000ff"/>
   </g>
   <g id="patch_233">
    <path d="M 147.991952 37.29 
L 575.130785 37.29 
L 575.130785 30.69 
L 147.991952 30.69 
z
" clip-path="url(#p09e04da999)" style="fill: #0000ff"/>
   </g>
   <g id="patch_234">
    <path d="M 147.991952 37.29 
L 583.114688 37.29 
L 583.114688 30.69 
L 147.991952 30.69 
z
" clip-path="url(#p09e04da999)" style="fill: #0000ff"/>
   </g>
   <g id="patch_235">
    <path d="M 147.991952 37.29 
L 403.476861 37.29 
L 403.476861 30.69 
L 147.991952 30.69 
z
" clip-path="url(#p09e04da999)" style="fill: #0000ff"/>
   </g>
   <g id="patch_236">
    <path d="M 147.991952 37.29 
L 501.945003 37.29 
L 501.945003 30.69 
L 147.991952 30.69 
z
" clip-path="url(#p09e04da999)" style="fill: #0000ff"/>
   </g>
   <g id="patch_237">
    <path d="M 147.991952 37.29 
L 477.993293 37.29 
L 477.993293 30.69 
L 147.991952 30.69 
z
" clip-path="url(#p09e04da999)" style="fill: #0000ff"/>
   </g>
   <g id="patch_238">
    <path d="M 147.991952 37.29 
L 458.033535 37.29 
L 458.033535 30.69 
L 147.991952 30.69 
z
" clip-path="url(#p09e04da999)" style="fill: #0000ff"/>
   </g>
   <g id="patch_239">
    <path d="M 147.991952 37.29 
L 585.775989 37.29 
L 585.775989 30.69 
L 147.991952 30.69 
z
" clip-path="url(#p09e04da999)" style="fill: #0000ff"/>
   </g>
   <g id="patch_240">
    <path d="M 147.991952 37.29 
L 564.48558 37.29 
L 564.48558 30.69 
L 147.991952 30.69 
z
" clip-path="url(#p09e04da999)" style="fill: #0000ff"/>
   </g>
   <g id="patch_241">
    <path d="M 147.991952 37.29 
L 477.993293 37.29 
L 477.993293 30.69 
L 147.991952 30.69 
z
" clip-path="url(#p09e04da999)" style="fill: #0000ff"/>
   </g>
   <g id="patch_242">
    <path d="M 147.991952 37.29 
L 372.871898 37.29 
L 372.871898 30.69 
L 147.991952 30.69 
z
" clip-path="url(#p09e04da999)" style="fill: #0000ff"/>
   </g>
   <g id="patch_243">
    <path d="M 147.991952 37.29 
L 372.871898 37.29 
L 372.871898 30.69 
L 147.991952 30.69 
z
" clip-path="url(#p09e04da999)" style="fill: #0000ff"/>
   </g>
   <g id="patch_244">
    <path d="M 149.322602 37.29 
L 588.43729 37.29 
L 588.43729 30.69 
L 149.322602 30.69 
z
" clip-path="url(#p09e04da999)" style="fill: #0000ff"/>
   </g>
   <g id="patch_245">
    <path d="M 149.322602 37.29 
L 583.114688 37.29 
L 583.114688 30.69 
L 149.322602 30.69 
z
" clip-path="url(#p09e04da999)" style="fill: #0000ff"/>
   </g>
   <g id="patch_246">
    <path d="M 149.322602 37.29 
L 583.114688 37.29 
L 583.114688 30.69 
L 149.322602 30.69 
z
" clip-path="url(#p09e04da999)" style="fill: #0000ff"/>
   </g>
   <g id="patch_247">
    <path d="M 149.322602 37.29 
L 293.032864 37.29 
L 293.032864 30.69 
L 149.322602 30.69 
z
" clip-path="url(#p09e04da999)" style="fill: #0000ff"/>
   </g>
   <g id="patch_248">
    <path d="M 149.322602 37.29 
L 372.871898 37.29 
L 372.871898 30.69 
L 149.322602 30.69 
z
" clip-path="url(#p09e04da999)" style="fill: #0000ff"/>
   </g>
   <g id="patch_249">
    <path d="M 149.322602 37.29 
L 462.025486 37.29 
L 462.025486 30.69 
L 149.322602 30.69 
z
" clip-path="url(#p09e04da999)" style="fill: #0000ff"/>
   </g>
   <g id="patch_250">
    <path d="M 149.322602 37.29 
L 577.792086 37.29 
L 577.792086 30.69 
L 149.322602 30.69 
z
" clip-path="url(#p09e04da999)" style="fill: #0000ff"/>
   </g>
   <g id="patch_251">
    <path d="M 150.653253 37.29 
L 394.162307 37.29 
L 394.162307 30.69 
L 150.653253 30.69 
z
" clip-path="url(#p09e04da999)" style="fill: #0000ff"/>
   </g>
   <g id="patch_252">
    <path d="M 203.879276 37.29 
L 569.808182 37.29 
L 569.808182 30.69 
L 203.879276 30.69 
z
" clip-path="url(#p09e04da999)" style="fill: #0000ff"/>
   </g>
   <g id="matplotlib.axis_1">
    <g id="xtick_1">
     <g id="line2d_1">
      <defs>
       <path id="m5581fa9140" d="M 0 0 
L 0 3.5 
" style="stroke: #000000; stroke-width: 0.8"/>
      </defs>
      <g>
       <use xlink:href="#m5581fa9140" x="275.734406" y="176.22" style="stroke: #000000; stroke-width: 0.8"/>
      </g>
     </g>
     <g id="text_1">
      <!-- 100 -->
      <g transform="translate(266.190656 190.818438) scale(0.1 -0.1)">
       <defs>
        <path id="DejaVuSans-31" d="M 794 531 
L 1825 531 
L 1825 4091 
L 703 3866 
L 703 4441 
L 1819 4666 
L 2450 4666 
L 2450 531 
L 3481 531 
L 3481 0 
L 794 0 
L 794 531 
z
" transform="scale(0.015625)"/>
        <path id="DejaVuSans-30" d="M 2034 4250 
Q 1547 4250 1301 3770 
Q 1056 3291 1056 2328 
Q 1056 1369 1301 889 
Q 1547 409 2034 409 
Q 2525 409 2770 889 
Q 3016 1369 3016 2328 
Q 3016 3291 2770 3770 
Q 2525 4250 2034 4250 
z
M 2034 4750 
Q 2819 4750 3233 4129 
Q 3647 3509 3647 2328 
Q 3647 1150 3233 529 
Q 2819 -91 2034 -91 
Q 1250 -91 836 529 
Q 422 1150 422 2328 
Q 422 3509 836 4129 
Q 1250 4750 2034 4750 
z
" transform="scale(0.015625)"/>
       </defs>
       <use xlink:href="#DejaVuSans-31"/>
       <use xlink:href="#DejaVuSans-30" x="63.623047"/>
       <use xlink:href="#DejaVuSans-30" x="127.246094"/>
      </g>
     </g>
    </g>
    <g id="xtick_2">
     <g id="line2d_2">
      <g>
       <use xlink:href="#m5581fa9140" x="408.799463" y="176.22" style="stroke: #000000; stroke-width: 0.8"/>
      </g>
     </g>
     <g id="text_2">
      <!-- 200 -->
      <g transform="translate(399.255713 190.818438) scale(0.1 -0.1)">
       <defs>
        <path id="DejaVuSans-32" d="M 1228 531 
L 3431 531 
L 3431 0 
L 469 0 
L 469 531 
Q 828 903 1448 1529 
Q 2069 2156 2228 2338 
Q 2531 2678 2651 2914 
Q 2772 3150 2772 3378 
Q 2772 3750 2511 3984 
Q 2250 4219 1831 4219 
Q 1534 4219 1204 4116 
Q 875 4013 500 3803 
L 500 4441 
Q 881 4594 1212 4672 
Q 1544 4750 1819 4750 
Q 2544 4750 2975 4387 
Q 3406 4025 3406 3419 
Q 3406 3131 3298 2873 
Q 3191 2616 2906 2266 
Q 2828 2175 2409 1742 
Q 1991 1309 1228 531 
z
" transform="scale(0.015625)"/>
       </defs>
       <use xlink:href="#DejaVuSans-32"/>
       <use xlink:href="#DejaVuSans-30" x="63.623047"/>
       <use xlink:href="#DejaVuSans-30" x="127.246094"/>
      </g>
     </g>
    </g>
    <g id="xtick_3">
     <g id="line2d_3">
      <g>
       <use xlink:href="#m5581fa9140" x="541.86452" y="176.22" style="stroke: #000000; stroke-width: 0.8"/>
      </g>
     </g>
     <g id="text_3">
      <!-- 300 -->
      <g transform="translate(532.32077 190.818438) scale(0.1 -0.1)">
       <defs>
        <path id="DejaVuSans-33" d="M 2597 2516 
Q 3050 2419 3304 2112 
Q 3559 1806 3559 1356 
Q 3559 666 3084 287 
Q 2609 -91 1734 -91 
Q 1441 -91 1130 -33 
Q 819 25 488 141 
L 488 750 
Q 750 597 1062 519 
Q 1375 441 1716 441 
Q 2309 441 2620 675 
Q 2931 909 2931 1356 
Q 2931 1769 2642 2001 
Q 2353 2234 1838 2234 
L 1294 2234 
L 1294 2753 
L 1863 2753 
Q 2328 2753 2575 2939 
Q 2822 3125 2822 3475 
Q 2822 3834 2567 4026 
Q 2313 4219 1838 4219 
Q 1578 4219 1281 4162 
Q 984 4106 628 3988 
L 628 4550 
Q 988 4650 1302 4700 
Q 1616 4750 1894 4750 
Q 2613 4750 3031 4423 
Q 3450 4097 3450 3541 
Q 3450 3153 3228 2886 
Q 3006 2619 2597 2516 
z
" transform="scale(0.015625)"/>
       </defs>
       <use xlink:href="#DejaVuSans-33"/>
       <use xlink:href="#DejaVuSans-30" x="63.623047"/>
       <use xlink:href="#DejaVuSans-30" x="127.246094"/>
      </g>
     </g>
    </g>
    <g id="xtick_4">
     <g id="line2d_4">
      <g>
       <use xlink:href="#m5581fa9140" x="674.929577" y="176.22" style="stroke: #000000; stroke-width: 0.8"/>
      </g>
     </g>
     <g id="text_4">
      <!-- 400 -->
      <g transform="translate(665.385827 190.818438) scale(0.1 -0.1)">
       <defs>
        <path id="DejaVuSans-34" d="M 2419 4116 
L 825 1625 
L 2419 1625 
L 2419 4116 
z
M 2253 4666 
L 3047 4666 
L 3047 1625 
L 3713 1625 
L 3713 1100 
L 3047 1100 
L 3047 0 
L 2419 0 
L 2419 1100 
L 313 1100 
L 313 1709 
L 2253 4666 
z
" transform="scale(0.015625)"/>
       </defs>
       <use xlink:href="#DejaVuSans-34"/>
       <use xlink:href="#DejaVuSans-30" x="63.623047"/>
       <use xlink:href="#DejaVuSans-30" x="127.246094"/>
      </g>
     </g>
    </g>
    <g id="xtick_5">
     <g id="line2d_5">
      <g>
       <use xlink:href="#m5581fa9140" x="807.994634" y="176.22" style="stroke: #000000; stroke-width: 0.8"/>
      </g>
     </g>
     <g id="text_5">
      <!-- 500 -->
      <g transform="translate(798.450884 190.818438) scale(0.1 -0.1)">
       <defs>
        <path id="DejaVuSans-35" d="M 691 4666 
L 3169 4666 
L 3169 4134 
L 1269 4134 
L 1269 2991 
Q 1406 3038 1543 3061 
Q 1681 3084 1819 3084 
Q 2600 3084 3056 2656 
Q 3513 2228 3513 1497 
Q 3513 744 3044 326 
Q 2575 -91 1722 -91 
Q 1428 -91 1123 -41 
Q 819 9 494 109 
L 494 744 
Q 775 591 1075 516 
Q 1375 441 1709 441 
Q 2250 441 2565 725 
Q 2881 1009 2881 1497 
Q 2881 1984 2565 2268 
Q 2250 2553 1709 2553 
Q 1456 2553 1204 2497 
Q 953 2441 691 2322 
L 691 4666 
z
" transform="scale(0.015625)"/>
       </defs>
       <use xlink:href="#DejaVuSans-35"/>
       <use xlink:href="#DejaVuSans-30" x="63.623047"/>
       <use xlink:href="#DejaVuSans-30" x="127.246094"/>
      </g>
     </g>
    </g>
    <g id="xtick_6">
     <g id="line2d_6">
      <g>
       <use xlink:href="#m5581fa9140" x="941.059691" y="176.22" style="stroke: #000000; stroke-width: 0.8"/>
      </g>
     </g>
     <g id="text_6">
      <!-- 600 -->
      <g transform="translate(931.515941 190.818438) scale(0.1 -0.1)">
       <defs>
        <path id="DejaVuSans-36" d="M 2113 2584 
Q 1688 2584 1439 2293 
Q 1191 2003 1191 1497 
Q 1191 994 1439 701 
Q 1688 409 2113 409 
Q 2538 409 2786 701 
Q 3034 994 3034 1497 
Q 3034 2003 2786 2293 
Q 2538 2584 2113 2584 
z
M 3366 4563 
L 3366 3988 
Q 3128 4100 2886 4159 
Q 2644 4219 2406 4219 
Q 1781 4219 1451 3797 
Q 1122 3375 1075 2522 
Q 1259 2794 1537 2939 
Q 1816 3084 2150 3084 
Q 2853 3084 3261 2657 
Q 3669 2231 3669 1497 
Q 3669 778 3244 343 
Q 2819 -91 2113 -91 
Q 1303 -91 875 529 
Q 447 1150 447 2328 
Q 447 3434 972 4092 
Q 1497 4750 2381 4750 
Q 2619 4750 2861 4703 
Q 3103 4656 3366 4563 
z
" transform="scale(0.015625)"/>
       </defs>
       <use xlink:href="#DejaVuSans-36"/>
       <use xlink:href="#DejaVuSans-30" x="63.623047"/>
       <use xlink:href="#DejaVuSans-30" x="127.246094"/>
      </g>
     </g>
    </g>
    <g id="text_7">
     <!-- Residual -->
     <g transform="translate(569.284375 204.496563) scale(0.1 -0.1)">
      <defs>
       <path id="DejaVuSans-52" d="M 2841 2188 
Q 3044 2119 3236 1894 
Q 3428 1669 3622 1275 
L 4263 0 
L 3584 0 
L 2988 1197 
Q 2756 1666 2539 1819 
Q 2322 1972 1947 1972 
L 1259 1972 
L 1259 0 
L 628 0 
L 628 4666 
L 2053 4666 
Q 2853 4666 3247 4331 
Q 3641 3997 3641 3322 
Q 3641 2881 3436 2590 
Q 3231 2300 2841 2188 
z
M 1259 4147 
L 1259 2491 
L 2053 2491 
Q 2509 2491 2742 2702 
Q 2975 2913 2975 3322 
Q 2975 3731 2742 3939 
Q 2509 4147 2053 4147 
L 1259 4147 
z
" transform="scale(0.015625)"/>
       <path id="DejaVuSans-65" d="M 3597 1894 
L 3597 1613 
L 953 1613 
Q 991 1019 1311 708 
Q 1631 397 2203 397 
Q 2534 397 2845 478 
Q 3156 559 3463 722 
L 3463 178 
Q 3153 47 2828 -22 
Q 2503 -91 2169 -91 
Q 1331 -91 842 396 
Q 353 884 353 1716 
Q 353 2575 817 3079 
Q 1281 3584 2069 3584 
Q 2775 3584 3186 3129 
Q 3597 2675 3597 1894 
z
M 3022 2063 
Q 3016 2534 2758 2815 
Q 2500 3097 2075 3097 
Q 1594 3097 1305 2825 
Q 1016 2553 972 2059 
L 3022 2063 
z
" transform="scale(0.015625)"/>
       <path id="DejaVuSans-73" d="M 2834 3397 
L 2834 2853 
Q 2591 2978 2328 3040 
Q 2066 3103 1784 3103 
Q 1356 3103 1142 2972 
Q 928 2841 928 2578 
Q 928 2378 1081 2264 
Q 1234 2150 1697 2047 
L 1894 2003 
Q 2506 1872 2764 1633 
Q 3022 1394 3022 966 
Q 3022 478 2636 193 
Q 2250 -91 1575 -91 
Q 1294 -91 989 -36 
Q 684 19 347 128 
L 347 722 
Q 666 556 975 473 
Q 1284 391 1588 391 
Q 1994 391 2212 530 
Q 2431 669 2431 922 
Q 2431 1156 2273 1281 
Q 2116 1406 1581 1522 
L 1381 1569 
Q 847 1681 609 1914 
Q 372 2147 372 2553 
Q 372 3047 722 3315 
Q 1072 3584 1716 3584 
Q 2034 3584 2315 3537 
Q 2597 3491 2834 3397 
z
" transform="scale(0.015625)"/>
       <path id="DejaVuSans-69" d="M 603 3500 
L 1178 3500 
L 1178 0 
L 603 0 
L 603 3500 
z
M 603 4863 
L 1178 4863 
L 1178 4134 
L 603 4134 
L 603 4863 
z
" transform="scale(0.015625)"/>
       <path id="DejaVuSans-64" d="M 2906 2969 
L 2906 4863 
L 3481 4863 
L 3481 0 
L 2906 0 
L 2906 525 
Q 2725 213 2448 61 
Q 2172 -91 1784 -91 
Q 1150 -91 751 415 
Q 353 922 353 1747 
Q 353 2572 751 3078 
Q 1150 3584 1784 3584 
Q 2172 3584 2448 3432 
Q 2725 3281 2906 2969 
z
M 947 1747 
Q 947 1113 1208 752 
Q 1469 391 1925 391 
Q 2381 391 2643 752 
Q 2906 1113 2906 1747 
Q 2906 2381 2643 2742 
Q 2381 3103 1925 3103 
Q 1469 3103 1208 2742 
Q 947 2381 947 1747 
z
" transform="scale(0.015625)"/>
       <path id="DejaVuSans-75" d="M 544 1381 
L 544 3500 
L 1119 3500 
L 1119 1403 
Q 1119 906 1312 657 
Q 1506 409 1894 409 
Q 2359 409 2629 706 
Q 2900 1003 2900 1516 
L 2900 3500 
L 3475 3500 
L 3475 0 
L 2900 0 
L 2900 538 
Q 2691 219 2414 64 
Q 2138 -91 1772 -91 
Q 1169 -91 856 284 
Q 544 659 544 1381 
z
M 1991 3584 
L 1991 3584 
z
" transform="scale(0.015625)"/>
       <path id="DejaVuSans-61" d="M 2194 1759 
Q 1497 1759 1228 1600 
Q 959 1441 959 1056 
Q 959 750 1161 570 
Q 1363 391 1709 391 
Q 2188 391 2477 730 
Q 2766 1069 2766 1631 
L 2766 1759 
L 2194 1759 
z
M 3341 1997 
L 3341 0 
L 2766 0 
L 2766 531 
Q 2569 213 2275 61 
Q 1981 -91 1556 -91 
Q 1019 -91 701 211 
Q 384 513 384 1019 
Q 384 1609 779 1909 
Q 1175 2209 1959 2209 
L 2766 2209 
L 2766 2266 
Q 2766 2663 2505 2880 
Q 2244 3097 1772 3097 
Q 1472 3097 1187 3025 
Q 903 2953 641 2809 
L 641 3341 
Q 956 3463 1253 3523 
Q 1550 3584 1831 3584 
Q 2591 3584 2966 3190 
Q 3341 2797 3341 1997 
z
" transform="scale(0.015625)"/>
       <path id="DejaVuSans-6c" d="M 603 4863 
L 1178 4863 
L 1178 0 
L 603 0 
L 603 4863 
z
" transform="scale(0.015625)"/>
      </defs>
      <use xlink:href="#DejaVuSans-52"/>
      <use xlink:href="#DejaVuSans-65" x="64.982422"/>
      <use xlink:href="#DejaVuSans-73" x="126.505859"/>
      <use xlink:href="#DejaVuSans-69" x="178.605469"/>
      <use xlink:href="#DejaVuSans-64" x="206.388672"/>
      <use xlink:href="#DejaVuSans-75" x="269.865234"/>
      <use xlink:href="#DejaVuSans-61" x="333.244141"/>
      <use xlink:href="#DejaVuSans-6c" x="394.523438"/>
     </g>
    </g>
   </g>
   <g id="matplotlib.axis_2">
    <g id="ytick_1">
     <g id="line2d_7">
      <defs>
       <path id="mcbd167bbc4" d="M 0 0 
L -3.5 0 
" style="stroke: #000000; stroke-width: 0.8"/>
      </defs>
      <g>
       <use xlink:href="#mcbd167bbc4" x="144" y="165.99" style="stroke: #000000; stroke-width: 0.8"/>
      </g>
     </g>
     <g id="text_8">
      <!-- 9.B.18.1.1 -->
      <g transform="translate(85.614062 169.789219) scale(0.1 -0.1)">
       <defs>
        <path id="DejaVuSans-39" d="M 703 97 
L 703 672 
Q 941 559 1184 500 
Q 1428 441 1663 441 
Q 2288 441 2617 861 
Q 2947 1281 2994 2138 
Q 2813 1869 2534 1725 
Q 2256 1581 1919 1581 
Q 1219 1581 811 2004 
Q 403 2428 403 3163 
Q 403 3881 828 4315 
Q 1253 4750 1959 4750 
Q 2769 4750 3195 4129 
Q 3622 3509 3622 2328 
Q 3622 1225 3098 567 
Q 2575 -91 1691 -91 
Q 1453 -91 1209 -44 
Q 966 3 703 97 
z
M 1959 2075 
Q 2384 2075 2632 2365 
Q 2881 2656 2881 3163 
Q 2881 3666 2632 3958 
Q 2384 4250 1959 4250 
Q 1534 4250 1286 3958 
Q 1038 3666 1038 3163 
Q 1038 2656 1286 2365 
Q 1534 2075 1959 2075 
z
" transform="scale(0.015625)"/>
        <path id="DejaVuSans-2e" d="M 684 794 
L 1344 794 
L 1344 0 
L 684 0 
L 684 794 
z
" transform="scale(0.015625)"/>
        <path id="DejaVuSans-42" d="M 1259 2228 
L 1259 519 
L 2272 519 
Q 2781 519 3026 730 
Q 3272 941 3272 1375 
Q 3272 1813 3026 2020 
Q 2781 2228 2272 2228 
L 1259 2228 
z
M 1259 4147 
L 1259 2741 
L 2194 2741 
Q 2656 2741 2882 2914 
Q 3109 3088 3109 3444 
Q 3109 3797 2882 3972 
Q 2656 4147 2194 4147 
L 1259 4147 
z
M 628 4666 
L 2241 4666 
Q 2963 4666 3353 4366 
Q 3744 4066 3744 3513 
Q 3744 3084 3544 2831 
Q 3344 2578 2956 2516 
Q 3422 2416 3680 2098 
Q 3938 1781 3938 1306 
Q 3938 681 3513 340 
Q 3088 0 2303 0 
L 628 0 
L 628 4666 
z
" transform="scale(0.015625)"/>
        <path id="DejaVuSans-38" d="M 2034 2216 
Q 1584 2216 1326 1975 
Q 1069 1734 1069 1313 
Q 1069 891 1326 650 
Q 1584 409 2034 409 
Q 2484 409 2743 651 
Q 3003 894 3003 1313 
Q 3003 1734 2745 1975 
Q 2488 2216 2034 2216 
z
M 1403 2484 
Q 997 2584 770 2862 
Q 544 3141 544 3541 
Q 544 4100 942 4425 
Q 1341 4750 2034 4750 
Q 2731 4750 3128 4425 
Q 3525 4100 3525 3541 
Q 3525 3141 3298 2862 
Q 3072 2584 2669 2484 
Q 3125 2378 3379 2068 
Q 3634 1759 3634 1313 
Q 3634 634 3220 271 
Q 2806 -91 2034 -91 
Q 1263 -91 848 271 
Q 434 634 434 1313 
Q 434 1759 690 2068 
Q 947 2378 1403 2484 
z
M 1172 3481 
Q 1172 3119 1398 2916 
Q 1625 2713 2034 2713 
Q 2441 2713 2670 2916 
Q 2900 3119 2900 3481 
Q 2900 3844 2670 4047 
Q 2441 4250 2034 4250 
Q 1625 4250 1398 4047 
Q 1172 3844 1172 3481 
z
" transform="scale(0.015625)"/>
       </defs>
       <use xlink:href="#DejaVuSans-39"/>
       <use xlink:href="#DejaVuSans-2e" x="63.623047"/>
       <use xlink:href="#DejaVuSans-42" x="95.410156"/>
       <use xlink:href="#DejaVuSans-2e" x="164.013672"/>
       <use xlink:href="#DejaVuSans-31" x="195.800781"/>
       <use xlink:href="#DejaVuSans-38" x="259.423828"/>
       <use xlink:href="#DejaVuSans-2e" x="323.046875"/>
       <use xlink:href="#DejaVuSans-31" x="354.833984"/>
       <use xlink:href="#DejaVuSans-2e" x="418.457031"/>
       <use xlink:href="#DejaVuSans-31" x="450.244141"/>
      </g>
     </g>
    </g>
    <g id="ytick_2">
     <g id="line2d_8">
      <g>
       <use xlink:href="#mcbd167bbc4" x="144" y="149.49" style="stroke: #000000; stroke-width: 0.8"/>
      </g>
     </g>
     <g id="text_9">
      <!-- 9.B.18.1.2 -->
      <g transform="translate(85.614062 153.289219) scale(0.1 -0.1)">
       <use xlink:href="#DejaVuSans-39"/>
       <use xlink:href="#DejaVuSans-2e" x="63.623047"/>
       <use xlink:href="#DejaVuSans-42" x="95.410156"/>
       <use xlink:href="#DejaVuSans-2e" x="164.013672"/>
       <use xlink:href="#DejaVuSans-31" x="195.800781"/>
       <use xlink:href="#DejaVuSans-38" x="259.423828"/>
       <use xlink:href="#DejaVuSans-2e" x="323.046875"/>
       <use xlink:href="#DejaVuSans-31" x="354.833984"/>
       <use xlink:href="#DejaVuSans-2e" x="418.457031"/>
       <use xlink:href="#DejaVuSans-32" x="450.244141"/>
      </g>
     </g>
    </g>
    <g id="ytick_3">
     <g id="line2d_9">
      <g>
       <use xlink:href="#mcbd167bbc4" x="144" y="132.99" style="stroke: #000000; stroke-width: 0.8"/>
      </g>
     </g>
     <g id="text_10">
      <!-- 9.B.18.1.3 -->
      <g transform="translate(85.614062 136.789219) scale(0.1 -0.1)">
       <use xlink:href="#DejaVuSans-39"/>
       <use xlink:href="#DejaVuSans-2e" x="63.623047"/>
       <use xlink:href="#DejaVuSans-42" x="95.410156"/>
       <use xlink:href="#DejaVuSans-2e" x="164.013672"/>
       <use xlink:href="#DejaVuSans-31" x="195.800781"/>
       <use xlink:href="#DejaVuSans-38" x="259.423828"/>
       <use xlink:href="#DejaVuSans-2e" x="323.046875"/>
       <use xlink:href="#DejaVuSans-31" x="354.833984"/>
       <use xlink:href="#DejaVuSans-2e" x="418.457031"/>
       <use xlink:href="#DejaVuSans-33" x="450.244141"/>
      </g>
     </g>
    </g>
    <g id="ytick_4">
     <g id="line2d_10">
      <g>
       <use xlink:href="#mcbd167bbc4" x="144" y="116.49" style="stroke: #000000; stroke-width: 0.8"/>
      </g>
     </g>
     <g id="text_11">
      <!-- 9.B.18.1.4 -->
      <g transform="translate(85.614062 120.289219) scale(0.1 -0.1)">
       <use xlink:href="#DejaVuSans-39"/>
       <use xlink:href="#DejaVuSans-2e" x="63.623047"/>
       <use xlink:href="#DejaVuSans-42" x="95.410156"/>
       <use xlink:href="#DejaVuSans-2e" x="164.013672"/>
       <use xlink:href="#DejaVuSans-31" x="195.800781"/>
       <use xlink:href="#DejaVuSans-38" x="259.423828"/>
       <use xlink:href="#DejaVuSans-2e" x="323.046875"/>
       <use xlink:href="#DejaVuSans-31" x="354.833984"/>
       <use xlink:href="#DejaVuSans-2e" x="418.457031"/>
       <use xlink:href="#DejaVuSans-34" x="450.244141"/>
      </g>
     </g>
    </g>
    <g id="ytick_5">
     <g id="line2d_11">
      <g>
       <use xlink:href="#mcbd167bbc4" x="144" y="99.99" style="stroke: #000000; stroke-width: 0.8"/>
      </g>
     </g>
     <g id="text_12">
      <!-- 9.B.18.1.6 -->
      <g transform="translate(85.614062 103.789219) scale(0.1 -0.1)">
       <use xlink:href="#DejaVuSans-39"/>
       <use xlink:href="#DejaVuSans-2e" x="63.623047"/>
       <use xlink:href="#DejaVuSans-42" x="95.410156"/>
       <use xlink:href="#DejaVuSans-2e" x="164.013672"/>
       <use xlink:href="#DejaVuSans-31" x="195.800781"/>
       <use xlink:href="#DejaVuSans-38" x="259.423828"/>
       <use xlink:href="#DejaVuSans-2e" x="323.046875"/>
       <use xlink:href="#DejaVuSans-31" x="354.833984"/>
       <use xlink:href="#DejaVuSans-2e" x="418.457031"/>
       <use xlink:href="#DejaVuSans-36" x="450.244141"/>
      </g>
     </g>
    </g>
    <g id="ytick_6">
     <g id="line2d_12">
      <g>
       <use xlink:href="#mcbd167bbc4" x="144" y="83.49" style="stroke: #000000; stroke-width: 0.8"/>
      </g>
     </g>
     <g id="text_13">
      <!-- 9.B.18.2.1 -->
      <g transform="translate(85.614062 87.289219) scale(0.1 -0.1)">
       <use xlink:href="#DejaVuSans-39"/>
       <use xlink:href="#DejaVuSans-2e" x="63.623047"/>
       <use xlink:href="#DejaVuSans-42" x="95.410156"/>
       <use xlink:href="#DejaVuSans-2e" x="164.013672"/>
       <use xlink:href="#DejaVuSans-31" x="195.800781"/>
       <use xlink:href="#DejaVuSans-38" x="259.423828"/>
       <use xlink:href="#DejaVuSans-2e" x="323.046875"/>
       <use xlink:href="#DejaVuSans-32" x="354.833984"/>
       <use xlink:href="#DejaVuSans-2e" x="418.457031"/>
       <use xlink:href="#DejaVuSans-31" x="450.244141"/>
      </g>
     </g>
    </g>
    <g id="ytick_7">
     <g id="line2d_13">
      <g>
       <use xlink:href="#mcbd167bbc4" x="144" y="66.99" style="stroke: #000000; stroke-width: 0.8"/>
      </g>
     </g>
     <g id="text_14">
      <!-- 9.B.18.2.2 -->
      <g transform="translate(85.614062 70.789219) scale(0.1 -0.1)">
       <use xlink:href="#DejaVuSans-39"/>
       <use xlink:href="#DejaVuSans-2e" x="63.623047"/>
       <use xlink:href="#DejaVuSans-42" x="95.410156"/>
       <use xlink:href="#DejaVuSans-2e" x="164.013672"/>
       <use xlink:href="#DejaVuSans-31" x="195.800781"/>
       <use xlink:href="#DejaVuSans-38" x="259.423828"/>
       <use xlink:href="#DejaVuSans-2e" x="323.046875"/>
       <use xlink:href="#DejaVuSans-32" x="354.833984"/>
       <use xlink:href="#DejaVuSans-2e" x="418.457031"/>
       <use xlink:href="#DejaVuSans-32" x="450.244141"/>
      </g>
     </g>
    </g>
    <g id="ytick_8">
     <g id="line2d_14">
      <g>
       <use xlink:href="#mcbd167bbc4" x="144" y="50.49" style="stroke: #000000; stroke-width: 0.8"/>
      </g>
     </g>
     <g id="text_15">
      <!-- 9.B.18.2.3 -->
      <g transform="translate(85.614062 54.289219) scale(0.1 -0.1)">
       <use xlink:href="#DejaVuSans-39"/>
       <use xlink:href="#DejaVuSans-2e" x="63.623047"/>
       <use xlink:href="#DejaVuSans-42" x="95.410156"/>
       <use xlink:href="#DejaVuSans-2e" x="164.013672"/>
       <use xlink:href="#DejaVuSans-31" x="195.800781"/>
       <use xlink:href="#DejaVuSans-38" x="259.423828"/>
       <use xlink:href="#DejaVuSans-2e" x="323.046875"/>
       <use xlink:href="#DejaVuSans-32" x="354.833984"/>
       <use xlink:href="#DejaVuSans-2e" x="418.457031"/>
       <use xlink:href="#DejaVuSans-33" x="450.244141"/>
      </g>
     </g>
    </g>
    <g id="ytick_9">
     <g id="line2d_15">
      <g>
       <use xlink:href="#mcbd167bbc4" x="144" y="33.99" style="stroke: #000000; stroke-width: 0.8"/>
      </g>
     </g>
     <g id="text_16">
      <!-- 9.B.18.2.4 -->
      <g transform="translate(85.614062 37.789219) scale(0.1 -0.1)">
       <use xlink:href="#DejaVuSans-39"/>
       <use xlink:href="#DejaVuSans-2e" x="63.623047"/>
       <use xlink:href="#DejaVuSans-42" x="95.410156"/>
       <use xlink:href="#DejaVuSans-2e" x="164.013672"/>
       <use xlink:href="#DejaVuSans-31" x="195.800781"/>
       <use xlink:href="#DejaVuSans-38" x="259.423828"/>
       <use xlink:href="#DejaVuSans-2e" x="323.046875"/>
       <use xlink:href="#DejaVuSans-32" x="354.833984"/>
       <use xlink:href="#DejaVuSans-2e" x="418.457031"/>
       <use xlink:href="#DejaVuSans-34" x="450.244141"/>
      </g>
     </g>
    </g>
   </g>
   <g id="patch_253">
    <path d="M 144 176.22 
L 144 23.76 
" style="fill: none; stroke: #000000; stroke-width: 0.8; stroke-linejoin: miter; stroke-linecap: square"/>
   </g>
   <g id="patch_254">
    <path d="M 1036.8 176.22 
L 1036.8 23.76 
" style="fill: none; stroke: #000000; stroke-width: 0.8; stroke-linejoin: miter; stroke-linecap: square"/>
   </g>
   <g id="patch_255">
    <path d="M 144 176.22 
L 1036.8 176.22 
" style="fill: none; stroke: #000000; stroke-width: 0.8; stroke-linejoin: miter; stroke-linecap: square"/>
   </g>
   <g id="patch_256">
    <path d="M 144 23.76 
L 1036.8 23.76 
" style="fill: none; stroke: #000000; stroke-width: 0.8; stroke-linejoin: miter; stroke-linecap: square"/>
   </g>
   <g id="text_17">
    <!-- 9.B.18 Summary -->
    <g transform="translate(540.115312 17.76) scale(0.12 -0.12)">
     <defs>
      <path id="DejaVuSans-20" transform="scale(0.015625)"/>
      <path id="DejaVuSans-53" d="M 3425 4513 
L 3425 3897 
Q 3066 4069 2747 4153 
Q 2428 4238 2131 4238 
Q 1616 4238 1336 4038 
Q 1056 3838 1056 3469 
Q 1056 3159 1242 3001 
Q 1428 2844 1947 2747 
L 2328 2669 
Q 3034 2534 3370 2195 
Q 3706 1856 3706 1288 
Q 3706 609 3251 259 
Q 2797 -91 1919 -91 
Q 1588 -91 1214 -16 
Q 841 59 441 206 
L 441 856 
Q 825 641 1194 531 
Q 1563 422 1919 422 
Q 2459 422 2753 634 
Q 3047 847 3047 1241 
Q 3047 1584 2836 1778 
Q 2625 1972 2144 2069 
L 1759 2144 
Q 1053 2284 737 2584 
Q 422 2884 422 3419 
Q 422 4038 858 4394 
Q 1294 4750 2059 4750 
Q 2388 4750 2728 4690 
Q 3069 4631 3425 4513 
z
" transform="scale(0.015625)"/>
      <path id="DejaVuSans-6d" d="M 3328 2828 
Q 3544 3216 3844 3400 
Q 4144 3584 4550 3584 
Q 5097 3584 5394 3201 
Q 5691 2819 5691 2113 
L 5691 0 
L 5113 0 
L 5113 2094 
Q 5113 2597 4934 2840 
Q 4756 3084 4391 3084 
Q 3944 3084 3684 2787 
Q 3425 2491 3425 1978 
L 3425 0 
L 2847 0 
L 2847 2094 
Q 2847 2600 2669 2842 
Q 2491 3084 2119 3084 
Q 1678 3084 1418 2786 
Q 1159 2488 1159 1978 
L 1159 0 
L 581 0 
L 581 3500 
L 1159 3500 
L 1159 2956 
Q 1356 3278 1631 3431 
Q 1906 3584 2284 3584 
Q 2666 3584 2933 3390 
Q 3200 3197 3328 2828 
z
" transform="scale(0.015625)"/>
      <path id="DejaVuSans-72" d="M 2631 2963 
Q 2534 3019 2420 3045 
Q 2306 3072 2169 3072 
Q 1681 3072 1420 2755 
Q 1159 2438 1159 1844 
L 1159 0 
L 581 0 
L 581 3500 
L 1159 3500 
L 1159 2956 
Q 1341 3275 1631 3429 
Q 1922 3584 2338 3584 
Q 2397 3584 2469 3576 
Q 2541 3569 2628 3553 
L 2631 2963 
z
" transform="scale(0.015625)"/>
      <path id="DejaVuSans-79" d="M 2059 -325 
Q 1816 -950 1584 -1140 
Q 1353 -1331 966 -1331 
L 506 -1331 
L 506 -850 
L 844 -850 
Q 1081 -850 1212 -737 
Q 1344 -625 1503 -206 
L 1606 56 
L 191 3500 
L 800 3500 
L 1894 763 
L 2988 3500 
L 3597 3500 
L 2059 -325 
z
" transform="scale(0.015625)"/>
     </defs>
     <use xlink:href="#DejaVuSans-39"/>
     <use xlink:href="#DejaVuSans-2e" x="63.623047"/>
     <use xlink:href="#DejaVuSans-42" x="95.410156"/>
     <use xlink:href="#DejaVuSans-2e" x="164.013672"/>
     <use xlink:href="#DejaVuSans-31" x="195.800781"/>
     <use xlink:href="#DejaVuSans-38" x="259.423828"/>
     <use xlink:href="#DejaVuSans-20" x="323.046875"/>
     <use xlink:href="#DejaVuSans-53" x="354.833984"/>
     <use xlink:href="#DejaVuSans-75" x="418.310547"/>
     <use xlink:href="#DejaVuSans-6d" x="481.689453"/>
     <use xlink:href="#DejaVuSans-6d" x="579.101562"/>
     <use xlink:href="#DejaVuSans-61" x="676.513672"/>
     <use xlink:href="#DejaVuSans-72" x="737.792969"/>
     <use xlink:href="#DejaVuSans-79" x="778.90625"/>
    </g>
   </g>
  </g>
 </g>
 <defs>
  <clipPath id="p09e04da999">
   <rect x="144" y="23.76" width="892.8" height="152.46"/>
  </clipPath>
 </defs>
</svg>
