<?xml version="1.0" encoding="utf-8" standalone="no"?>
<!DOCTYPE svg PUBLIC "-//W3C//DTD SVG 1.1//EN"
  "http://www.w3.org/Graphics/SVG/1.1/DTD/svg11.dtd">
<svg xmlns:xlink="http://www.w3.org/1999/xlink" width="1152pt" height="252pt" viewBox="0 0 1152 252" xmlns="http://www.w3.org/2000/svg" version="1.1">
 <metadata>
  <rdf:RDF xmlns:dc="http://purl.org/dc/elements/1.1/" xmlns:cc="http://creativecommons.org/ns#" xmlns:rdf="http://www.w3.org/1999/02/22-rdf-syntax-ns#">
   <cc:Work>
    <dc:type rdf:resource="http://purl.org/dc/dcmitype/StillImage"/>
    <dc:date>2024-10-24T21:37:57.012705</dc:date>
    <dc:format>image/svg+xml</dc:format>
    <dc:creator>
     <cc:Agent>
      <dc:title>Matplotlib v3.8.4, https://matplotlib.org/</dc:title>
     </cc:Agent>
    </dc:creator>
   </cc:Work>
  </rdf:RDF>
 </metadata>
 <defs>
  <style type="text/css">*{stroke-linejoin: round; stroke-linecap: butt}</style>
 </defs>
 <g id="figure_1">
  <g id="patch_1">
   <path d="M 0 252 
L 1152 252 
L 1152 0 
L 0 0 
z
" style="fill: #ffffff"/>
  </g>
  <g id="axes_1">
   <g id="patch_2">
    <path d="M 144 224.28 
L 1036.8 224.28 
L 1036.8 30.24 
L 144 30.24 
z
" style="fill: #ffffff"/>
   </g>
   <g id="patch_3">
    <path d="M 144 212.597368 
L 158.792723 212.597368 
L 158.792723 212.133158 
L 144 212.133158 
z
" clip-path="url(#pa1110eae7c)" style="fill: #0000ff"/>
   </g>
   <g id="patch_4">
    <path d="M 159.384432 215.46 
L 288.968685 215.46 
L 288.968685 209.270526 
L 159.384432 209.270526 
z
" clip-path="url(#pa1110eae7c)" style="fill: #0000ff"/>
   </g>
   <g id="patch_5">
    <path d="M 289.560394 212.597368 
L 326.838055 212.597368 
L 326.838055 212.133158 
L 289.560394 212.133158 
z
" clip-path="url(#pa1110eae7c)" style="fill: #0000ff"/>
   </g>
   <g id="patch_6">
    <path d="M 327.429764 215.46 
L 392.517745 215.46 
L 392.517745 209.270526 
L 327.429764 209.270526 
z
" clip-path="url(#pa1110eae7c)" style="fill: #0000ff"/>
   </g>
   <g id="patch_7">
    <path d="M 327.429764 215.46 
L 394.884581 215.46 
L 394.884581 209.270526 
L 327.429764 209.270526 
z
" clip-path="url(#pa1110eae7c)" style="fill: #0000ff"/>
   </g>
   <g id="patch_8">
    <path d="M 327.429764 215.46 
L 389.559201 215.46 
L 389.559201 209.270526 
L 327.429764 209.270526 
z
" clip-path="url(#pa1110eae7c)" style="fill: #0000ff"/>
   </g>
   <g id="patch_9">
    <path d="M 328.021473 215.46 
L 389.559201 215.46 
L 389.559201 209.270526 
L 328.021473 209.270526 
z
" clip-path="url(#pa1110eae7c)" style="fill: #0000ff"/>
   </g>
   <g id="patch_10">
    <path d="M 328.021473 215.46 
L 394.884581 215.46 
L 394.884581 209.270526 
L 328.021473 209.270526 
z
" clip-path="url(#pa1110eae7c)" style="fill: #0000ff"/>
   </g>
   <g id="patch_11">
    <path d="M 328.021473 215.46 
L 392.517745 215.46 
L 392.517745 209.270526 
L 328.021473 209.270526 
z
" clip-path="url(#pa1110eae7c)" style="fill: #0000ff"/>
   </g>
   <g id="patch_12">
    <path d="M 395.47629 212.597368 
L 870.026842 212.597368 
L 870.026842 212.133158 
L 395.47629 212.133158 
z
" clip-path="url(#pa1110eae7c)" style="fill: #0000ff"/>
   </g>
   <g id="patch_13">
    <path d="M 144 197.123684 
L 161.751268 197.123684 
L 161.751268 196.659474 
L 144 196.659474 
z
" clip-path="url(#pa1110eae7c)" style="fill: #0000ff"/>
   </g>
   <g id="patch_14">
    <path d="M 162.342976 199.986316 
L 293.110647 199.986316 
L 293.110647 193.796842 
L 162.342976 193.796842 
z
" clip-path="url(#pa1110eae7c)" style="fill: #0000ff"/>
   </g>
   <g id="patch_15">
    <path d="M 167.076648 199.986316 
L 270.625708 199.986316 
L 270.625708 193.796842 
L 167.076648 193.796842 
z
" clip-path="url(#pa1110eae7c)" style="fill: #0000ff"/>
   </g>
   <g id="patch_16">
    <path d="M 293.702356 197.123684 
L 326.246347 197.123684 
L 326.246347 196.659474 
L 293.702356 196.659474 
z
" clip-path="url(#pa1110eae7c)" style="fill: #0000ff"/>
   </g>
   <g id="patch_17">
    <path d="M 326.838055 199.986316 
L 393.701163 199.986316 
L 393.701163 193.796842 
L 326.838055 193.796842 
z
" clip-path="url(#pa1110eae7c)" style="fill: #0000ff"/>
   </g>
   <g id="patch_18">
    <path d="M 326.838055 199.986316 
L 393.701163 199.986316 
L 393.701163 193.796842 
L 326.838055 193.796842 
z
" clip-path="url(#pa1110eae7c)" style="fill: #0000ff"/>
   </g>
   <g id="patch_19">
    <path d="M 327.429764 199.986316 
L 396.067999 199.986316 
L 396.067999 193.796842 
L 327.429764 193.796842 
z
" clip-path="url(#pa1110eae7c)" style="fill: #0000ff"/>
   </g>
   <g id="patch_20">
    <path d="M 328.021473 199.986316 
L 368.849389 199.986316 
L 368.849389 193.796842 
L 328.021473 193.796842 
z
" clip-path="url(#pa1110eae7c)" style="fill: #0000ff"/>
   </g>
   <g id="patch_21">
    <path d="M 328.021473 199.986316 
L 390.742619 199.986316 
L 390.742619 193.796842 
L 328.021473 193.796842 
z
" clip-path="url(#pa1110eae7c)" style="fill: #0000ff"/>
   </g>
   <g id="patch_22">
    <path d="M 396.659708 197.123684 
L 601.982702 197.123684 
L 601.982702 196.659474 
L 396.659708 196.659474 
z
" clip-path="url(#pa1110eae7c)" style="fill: #0000ff"/>
   </g>
   <g id="patch_23">
    <path d="M 602.574411 199.986316 
L 703.164927 199.986316 
L 703.164927 193.796842 
L 602.574411 193.796842 
z
" clip-path="url(#pa1110eae7c)" style="fill: #0000ff"/>
   </g>
   <g id="patch_24">
    <path d="M 703.756636 197.123684 
L 870.618551 197.123684 
L 870.618551 196.659474 
L 703.756636 196.659474 
z
" clip-path="url(#pa1110eae7c)" style="fill: #0000ff"/>
   </g>
   <g id="patch_25">
    <path d="M 144 181.65 
L 175.952282 181.65 
L 175.952282 181.185789 
L 144 181.185789 
z
" clip-path="url(#pa1110eae7c)" style="fill: #0000ff"/>
   </g>
   <g id="patch_26">
    <path d="M 176.54399 184.512632 
L 266.483746 184.512632 
L 266.483746 178.323158 
L 176.54399 178.323158 
z
" clip-path="url(#pa1110eae7c)" style="fill: #0000ff"/>
   </g>
   <g id="patch_27">
    <path d="M 267.075455 181.65 
L 300.211154 181.65 
L 300.211154 181.185789 
L 267.075455 181.185789 
z
" clip-path="url(#pa1110eae7c)" style="fill: #0000ff"/>
   </g>
   <g id="patch_28">
    <path d="M 300.802863 184.512632 
L 358.198628 184.512632 
L 358.198628 178.323158 
L 300.802863 178.323158 
z
" clip-path="url(#pa1110eae7c)" style="fill: #0000ff"/>
   </g>
   <g id="patch_29">
    <path d="M 301.986281 184.512632 
L 357.01521 184.512632 
L 357.01521 178.323158 
L 301.986281 178.323158 
z
" clip-path="url(#pa1110eae7c)" style="fill: #0000ff"/>
   </g>
   <g id="patch_30">
    <path d="M 302.57799 184.512632 
L 362.340591 184.512632 
L 362.340591 178.323158 
L 302.57799 178.323158 
z
" clip-path="url(#pa1110eae7c)" style="fill: #0000ff"/>
   </g>
   <g id="patch_31">
    <path d="M 303.169699 184.512632 
L 361.748882 184.512632 
L 361.748882 178.323158 
L 303.169699 178.323158 
z
" clip-path="url(#pa1110eae7c)" style="fill: #0000ff"/>
   </g>
   <g id="patch_32">
    <path d="M 303.169699 184.512632 
L 360.565464 184.512632 
L 360.565464 178.323158 
L 303.169699 178.323158 
z
" clip-path="url(#pa1110eae7c)" style="fill: #0000ff"/>
   </g>
   <g id="patch_33">
    <path d="M 303.761408 184.512632 
L 357.606919 184.512632 
L 357.606919 178.323158 
L 303.761408 178.323158 
z
" clip-path="url(#pa1110eae7c)" style="fill: #0000ff"/>
   </g>
   <g id="patch_34">
    <path d="M 303.761408 184.512632 
L 361.748882 184.512632 
L 361.748882 178.323158 
L 303.761408 178.323158 
z
" clip-path="url(#pa1110eae7c)" style="fill: #0000ff"/>
   </g>
   <g id="patch_35">
    <path d="M 303.761408 184.512632 
L 358.198628 184.512632 
L 358.198628 178.323158 
L 303.761408 178.323158 
z
" clip-path="url(#pa1110eae7c)" style="fill: #0000ff"/>
   </g>
   <g id="patch_36">
    <path d="M 303.761408 184.512632 
L 362.932299 184.512632 
L 362.932299 178.323158 
L 303.761408 178.323158 
z
" clip-path="url(#pa1110eae7c)" style="fill: #0000ff"/>
   </g>
   <g id="patch_37">
    <path d="M 303.761408 184.512632 
L 355.831792 184.512632 
L 355.831792 178.323158 
L 303.761408 178.323158 
z
" clip-path="url(#pa1110eae7c)" style="fill: #0000ff"/>
   </g>
   <g id="patch_38">
    <path d="M 303.761408 184.512632 
L 357.606919 184.512632 
L 357.606919 178.323158 
L 303.761408 178.323158 
z
" clip-path="url(#pa1110eae7c)" style="fill: #0000ff"/>
   </g>
   <g id="patch_39">
    <path d="M 309.678497 184.512632 
L 359.973755 184.512632 
L 359.973755 178.323158 
L 309.678497 178.323158 
z
" clip-path="url(#pa1110eae7c)" style="fill: #0000ff"/>
   </g>
   <g id="patch_40">
    <path d="M 363.524008 181.65 
L 428.611989 181.65 
L 428.611989 181.185789 
L 363.524008 181.185789 
z
" clip-path="url(#pa1110eae7c)" style="fill: #0000ff"/>
   </g>
   <g id="patch_41">
    <path d="M 144 166.176316 
L 194.295258 166.176316 
L 194.295258 165.712105 
L 144 165.712105 
z
" clip-path="url(#pa1110eae7c)" style="fill: #0000ff"/>
   </g>
   <g id="patch_42">
    <path d="M 194.886967 169.038947 
L 255.241276 169.038947 
L 255.241276 162.849474 
L 194.886967 162.849474 
z
" clip-path="url(#pa1110eae7c)" style="fill: #0000ff"/>
   </g>
   <g id="patch_43">
    <path d="M 195.478676 169.038947 
L 253.46615 169.038947 
L 253.46615 162.849474 
L 195.478676 162.849474 
z
" clip-path="url(#pa1110eae7c)" style="fill: #0000ff"/>
   </g>
   <g id="patch_44">
    <path d="M 197.845511 169.038947 
L 252.874441 169.038947 
L 252.874441 162.849474 
L 197.845511 162.849474 
z
" clip-path="url(#pa1110eae7c)" style="fill: #0000ff"/>
   </g>
   <g id="patch_45">
    <path d="M 198.43722 169.038947 
L 256.424694 169.038947 
L 256.424694 162.849474 
L 198.43722 162.849474 
z
" clip-path="url(#pa1110eae7c)" style="fill: #0000ff"/>
   </g>
   <g id="patch_46">
    <path d="M 198.43722 169.038947 
L 256.424694 169.038947 
L 256.424694 162.849474 
L 198.43722 162.849474 
z
" clip-path="url(#pa1110eae7c)" style="fill: #0000ff"/>
   </g>
   <g id="patch_47">
    <path d="M 198.43722 169.038947 
L 257.016403 169.038947 
L 257.016403 162.849474 
L 198.43722 162.849474 
z
" clip-path="url(#pa1110eae7c)" style="fill: #0000ff"/>
   </g>
   <g id="patch_48">
    <path d="M 198.43722 169.038947 
L 258.79153 169.038947 
L 258.79153 162.849474 
L 198.43722 162.849474 
z
" clip-path="url(#pa1110eae7c)" style="fill: #0000ff"/>
   </g>
   <g id="patch_49">
    <path d="M 198.43722 169.038947 
L 258.79153 169.038947 
L 258.79153 162.849474 
L 198.43722 162.849474 
z
" clip-path="url(#pa1110eae7c)" style="fill: #0000ff"/>
   </g>
   <g id="patch_50">
    <path d="M 198.43722 169.038947 
L 255.241276 169.038947 
L 255.241276 162.849474 
L 198.43722 162.849474 
z
" clip-path="url(#pa1110eae7c)" style="fill: #0000ff"/>
   </g>
   <g id="patch_51">
    <path d="M 198.43722 169.038947 
L 257.608112 169.038947 
L 257.608112 162.849474 
L 198.43722 162.849474 
z
" clip-path="url(#pa1110eae7c)" style="fill: #0000ff"/>
   </g>
   <g id="patch_52">
    <path d="M 198.43722 169.038947 
L 253.46615 169.038947 
L 253.46615 162.849474 
L 198.43722 162.849474 
z
" clip-path="url(#pa1110eae7c)" style="fill: #0000ff"/>
   </g>
   <g id="patch_53">
    <path d="M 198.43722 169.038947 
L 253.46615 169.038947 
L 253.46615 162.849474 
L 198.43722 162.849474 
z
" clip-path="url(#pa1110eae7c)" style="fill: #0000ff"/>
   </g>
   <g id="patch_54">
    <path d="M 198.43722 169.038947 
L 256.424694 169.038947 
L 256.424694 162.849474 
L 198.43722 162.849474 
z
" clip-path="url(#pa1110eae7c)" style="fill: #0000ff"/>
   </g>
   <g id="patch_55">
    <path d="M 259.383239 166.176316 
L 386.008947 166.176316 
L 386.008947 165.712105 
L 259.383239 165.712105 
z
" clip-path="url(#pa1110eae7c)" style="fill: #0000ff"/>
   </g>
   <g id="patch_56">
    <path d="M 386.600656 169.038947 
L 431.570534 169.038947 
L 431.570534 162.849474 
L 386.600656 162.849474 
z
" clip-path="url(#pa1110eae7c)" style="fill: #0000ff"/>
   </g>
   <g id="patch_57">
    <path d="M 432.162243 166.176316 
L 521.510289 166.176316 
L 521.510289 165.712105 
L 432.162243 165.712105 
z
" clip-path="url(#pa1110eae7c)" style="fill: #0000ff"/>
   </g>
   <g id="patch_58">
    <path d="M 522.101998 169.038947 
L 605.532956 169.038947 
L 605.532956 162.849474 
L 522.101998 162.849474 
z
" clip-path="url(#pa1110eae7c)" style="fill: #0000ff"/>
   </g>
   <g id="patch_59">
    <path d="M 606.124664 166.176316 
L 791.329556 166.176316 
L 791.329556 165.712105 
L 606.124664 165.712105 
z
" clip-path="url(#pa1110eae7c)" style="fill: #0000ff"/>
   </g>
   <g id="patch_60">
    <path d="M 791.921265 169.038947 
L 901.387414 169.038947 
L 901.387414 162.849474 
L 791.921265 162.849474 
z
" clip-path="url(#pa1110eae7c)" style="fill: #0000ff"/>
   </g>
   <g id="patch_61">
    <path d="M 792.512973 169.038947 
L 901.979123 169.038947 
L 901.979123 162.849474 
L 792.512973 162.849474 
z
" clip-path="url(#pa1110eae7c)" style="fill: #0000ff"/>
   </g>
   <g id="patch_62">
    <path d="M 793.104682 169.038947 
L 901.387414 169.038947 
L 901.387414 162.849474 
L 793.104682 162.849474 
z
" clip-path="url(#pa1110eae7c)" style="fill: #0000ff"/>
   </g>
   <g id="patch_63">
    <path d="M 902.570832 166.176316 
L 949.907545 166.176316 
L 949.907545 165.712105 
L 902.570832 165.712105 
z
" clip-path="url(#pa1110eae7c)" style="fill: #0000ff"/>
   </g>
   <g id="patch_64">
    <path d="M 144 150.702632 
L 152.283925 150.702632 
L 152.283925 150.238421 
L 144 150.238421 
z
" clip-path="url(#pa1110eae7c)" style="fill: #0000ff"/>
   </g>
   <g id="patch_65">
    <path d="M 152.875634 153.565263 
L 264.708619 153.565263 
L 264.708619 147.375789 
L 152.875634 147.375789 
z
" clip-path="url(#pa1110eae7c)" style="fill: #0000ff"/>
   </g>
   <g id="patch_66">
    <path d="M 160.56785 153.565263 
L 239.265136 153.565263 
L 239.265136 147.375789 
L 160.56785 147.375789 
z
" clip-path="url(#pa1110eae7c)" style="fill: #0000ff"/>
   </g>
   <g id="patch_67">
    <path d="M 160.56785 153.565263 
L 238.081718 153.565263 
L 238.081718 147.375789 
L 160.56785 147.375789 
z
" clip-path="url(#pa1110eae7c)" style="fill: #0000ff"/>
   </g>
   <g id="patch_68">
    <path d="M 161.159559 153.565263 
L 246.365643 153.565263 
L 246.365643 147.375789 
L 161.159559 147.375789 
z
" clip-path="url(#pa1110eae7c)" style="fill: #0000ff"/>
   </g>
   <g id="patch_69">
    <path d="M 161.159559 153.565263 
L 275.35938 153.565263 
L 275.35938 147.375789 
L 161.159559 147.375789 
z
" clip-path="url(#pa1110eae7c)" style="fill: #0000ff"/>
   </g>
   <g id="patch_70">
    <path d="M 161.159559 153.565263 
L 269.44229 153.565263 
L 269.44229 147.375789 
L 161.159559 147.375789 
z
" clip-path="url(#pa1110eae7c)" style="fill: #0000ff"/>
   </g>
   <g id="patch_71">
    <path d="M 164.709812 153.565263 
L 261.750075 153.565263 
L 261.750075 147.375789 
L 164.709812 147.375789 
z
" clip-path="url(#pa1110eae7c)" style="fill: #0000ff"/>
   </g>
   <g id="patch_72">
    <path d="M 166.484939 153.565263 
L 275.951089 153.565263 
L 275.951089 147.375789 
L 166.484939 147.375789 
z
" clip-path="url(#pa1110eae7c)" style="fill: #0000ff"/>
   </g>
   <g id="patch_73">
    <path d="M 199.620638 153.565263 
L 275.35938 153.565263 
L 275.35938 147.375789 
L 199.620638 147.375789 
z
" clip-path="url(#pa1110eae7c)" style="fill: #0000ff"/>
   </g>
   <g id="patch_74">
    <path d="M 204.946018 153.565263 
L 259.383239 153.565263 
L 259.383239 147.375789 
L 204.946018 147.375789 
z
" clip-path="url(#pa1110eae7c)" style="fill: #0000ff"/>
   </g>
   <g id="patch_75">
    <path d="M 204.946018 153.565263 
L 267.667164 153.565263 
L 267.667164 147.375789 
L 204.946018 147.375789 
z
" clip-path="url(#pa1110eae7c)" style="fill: #0000ff"/>
   </g>
   <g id="patch_76">
    <path d="M 204.946018 153.565263 
L 261.750075 153.565263 
L 261.750075 147.375789 
L 204.946018 147.375789 
z
" clip-path="url(#pa1110eae7c)" style="fill: #0000ff"/>
   </g>
   <g id="patch_77">
    <path d="M 212.046525 153.565263 
L 261.750075 153.565263 
L 261.750075 147.375789 
L 212.046525 147.375789 
z
" clip-path="url(#pa1110eae7c)" style="fill: #0000ff"/>
   </g>
   <g id="patch_78">
    <path d="M 276.542797 150.702632 
L 317.962422 150.702632 
L 317.962422 150.238421 
L 276.542797 150.238421 
z
" clip-path="url(#pa1110eae7c)" style="fill: #0000ff"/>
   </g>
   <g id="patch_79">
    <path d="M 318.554131 153.565263 
L 381.866985 153.565263 
L 381.866985 147.375789 
L 318.554131 147.375789 
z
" clip-path="url(#pa1110eae7c)" style="fill: #0000ff"/>
   </g>
   <g id="patch_80">
    <path d="M 325.062929 153.565263 
L 383.050403 153.565263 
L 383.050403 147.375789 
L 325.062929 147.375789 
z
" clip-path="url(#pa1110eae7c)" style="fill: #0000ff"/>
   </g>
   <g id="patch_81">
    <path d="M 325.654638 153.565263 
L 380.091858 153.565263 
L 380.091858 147.375789 
L 325.654638 147.375789 
z
" clip-path="url(#pa1110eae7c)" style="fill: #0000ff"/>
   </g>
   <g id="patch_82">
    <path d="M 325.654638 153.565263 
L 380.091858 153.565263 
L 380.091858 147.375789 
L 325.654638 147.375789 
z
" clip-path="url(#pa1110eae7c)" style="fill: #0000ff"/>
   </g>
   <g id="patch_83">
    <path d="M 325.654638 153.565263 
L 379.500149 153.565263 
L 379.500149 147.375789 
L 325.654638 147.375789 
z
" clip-path="url(#pa1110eae7c)" style="fill: #0000ff"/>
   </g>
   <g id="patch_84">
    <path d="M 325.654638 153.565263 
L 383.050403 153.565263 
L 383.050403 147.375789 
L 325.654638 147.375789 
z
" clip-path="url(#pa1110eae7c)" style="fill: #0000ff"/>
   </g>
   <g id="patch_85">
    <path d="M 325.654638 153.565263 
L 382.458694 153.565263 
L 382.458694 147.375789 
L 325.654638 147.375789 
z
" clip-path="url(#pa1110eae7c)" style="fill: #0000ff"/>
   </g>
   <g id="patch_86">
    <path d="M 325.654638 153.565263 
L 384.825529 153.565263 
L 384.825529 147.375789 
L 325.654638 147.375789 
z
" clip-path="url(#pa1110eae7c)" style="fill: #0000ff"/>
   </g>
   <g id="patch_87">
    <path d="M 325.654638 153.565263 
L 381.866985 153.565263 
L 381.866985 147.375789 
L 325.654638 147.375789 
z
" clip-path="url(#pa1110eae7c)" style="fill: #0000ff"/>
   </g>
   <g id="patch_88">
    <path d="M 325.654638 153.565263 
L 386.008947 153.565263 
L 386.008947 147.375789 
L 325.654638 147.375789 
z
" clip-path="url(#pa1110eae7c)" style="fill: #0000ff"/>
   </g>
   <g id="patch_89">
    <path d="M 325.654638 153.565263 
L 380.091858 153.565263 
L 380.091858 147.375789 
L 325.654638 147.375789 
z
" clip-path="url(#pa1110eae7c)" style="fill: #0000ff"/>
   </g>
   <g id="patch_90">
    <path d="M 325.654638 153.565263 
L 383.050403 153.565263 
L 383.050403 147.375789 
L 325.654638 147.375789 
z
" clip-path="url(#pa1110eae7c)" style="fill: #0000ff"/>
   </g>
   <g id="patch_91">
    <path d="M 325.654638 153.565263 
L 381.866985 153.565263 
L 381.866985 147.375789 
L 325.654638 147.375789 
z
" clip-path="url(#pa1110eae7c)" style="fill: #0000ff"/>
   </g>
   <g id="patch_92">
    <path d="M 325.654638 153.565263 
L 384.23382 153.565263 
L 384.23382 147.375789 
L 325.654638 147.375789 
z
" clip-path="url(#pa1110eae7c)" style="fill: #0000ff"/>
   </g>
   <g id="patch_93">
    <path d="M 326.838055 153.565263 
L 380.091858 153.565263 
L 380.091858 147.375789 
L 326.838055 147.375789 
z
" clip-path="url(#pa1110eae7c)" style="fill: #0000ff"/>
   </g>
   <g id="patch_94">
    <path d="M 333.938562 153.565263 
L 381.866985 153.565263 
L 381.866985 147.375789 
L 333.938562 147.375789 
z
" clip-path="url(#pa1110eae7c)" style="fill: #0000ff"/>
   </g>
   <g id="patch_95">
    <path d="M 335.713689 153.565263 
L 384.825529 153.565263 
L 384.825529 147.375789 
L 335.713689 147.375789 
z
" clip-path="url(#pa1110eae7c)" style="fill: #0000ff"/>
   </g>
   <g id="patch_96">
    <path d="M 335.713689 153.565263 
L 380.091858 153.565263 
L 380.091858 147.375789 
L 335.713689 147.375789 
z
" clip-path="url(#pa1110eae7c)" style="fill: #0000ff"/>
   </g>
   <g id="patch_97">
    <path d="M 386.600656 150.702632 
L 664.112138 150.702632 
L 664.112138 150.238421 
L 386.600656 150.238421 
z
" clip-path="url(#pa1110eae7c)" style="fill: #0000ff"/>
   </g>
   <g id="patch_98">
    <path d="M 664.703847 153.565263 
L 746.951387 153.565263 
L 746.951387 147.375789 
L 664.703847 147.375789 
z
" clip-path="url(#pa1110eae7c)" style="fill: #0000ff"/>
   </g>
   <g id="patch_99">
    <path d="M 747.543096 150.702632 
L 873.577095 150.702632 
L 873.577095 150.238421 
L 747.543096 150.238421 
z
" clip-path="url(#pa1110eae7c)" style="fill: #0000ff"/>
   </g>
   <g id="patch_100">
    <path d="M 144 135.228947 
L 525.652252 135.228947 
L 525.652252 134.764737 
L 144 134.764737 
z
" clip-path="url(#pa1110eae7c)" style="fill: #0000ff"/>
   </g>
   <g id="patch_101">
    <path d="M 526.243961 138.091579 
L 591.92365 138.091579 
L 591.92365 131.902105 
L 526.243961 131.902105 
z
" clip-path="url(#pa1110eae7c)" style="fill: #0000ff"/>
   </g>
   <g id="patch_102">
    <path d="M 532.16105 138.091579 
L 567.071876 138.091579 
L 567.071876 131.902105 
L 532.16105 131.902105 
z
" clip-path="url(#pa1110eae7c)" style="fill: #0000ff"/>
   </g>
   <g id="patch_103">
    <path d="M 533.936177 138.091579 
L 588.965106 138.091579 
L 588.965106 131.902105 
L 533.936177 131.902105 
z
" clip-path="url(#pa1110eae7c)" style="fill: #0000ff"/>
   </g>
   <g id="patch_104">
    <path d="M 534.527885 138.091579 
L 588.965106 138.091579 
L 588.965106 131.902105 
L 534.527885 131.902105 
z
" clip-path="url(#pa1110eae7c)" style="fill: #0000ff"/>
   </g>
   <g id="patch_105">
    <path d="M 534.527885 138.091579 
L 583.639726 138.091579 
L 583.639726 131.902105 
L 534.527885 131.902105 
z
" clip-path="url(#pa1110eae7c)" style="fill: #0000ff"/>
   </g>
   <g id="patch_106">
    <path d="M 535.119594 138.091579 
L 589.556815 138.091579 
L 589.556815 131.902105 
L 535.119594 131.902105 
z
" clip-path="url(#pa1110eae7c)" style="fill: #0000ff"/>
   </g>
   <g id="patch_107">
    <path d="M 535.119594 138.091579 
L 584.823143 138.091579 
L 584.823143 131.902105 
L 535.119594 131.902105 
z
" clip-path="url(#pa1110eae7c)" style="fill: #0000ff"/>
   </g>
   <g id="patch_108">
    <path d="M 535.119594 138.091579 
L 586.59827 138.091579 
L 586.59827 131.902105 
L 535.119594 131.902105 
z
" clip-path="url(#pa1110eae7c)" style="fill: #0000ff"/>
   </g>
   <g id="patch_109">
    <path d="M 535.119594 138.091579 
L 589.556815 138.091579 
L 589.556815 131.902105 
L 535.119594 131.902105 
z
" clip-path="url(#pa1110eae7c)" style="fill: #0000ff"/>
   </g>
   <g id="patch_110">
    <path d="M 545.770355 138.091579 
L 583.639726 138.091579 
L 583.639726 131.902105 
L 545.770355 131.902105 
z
" clip-path="url(#pa1110eae7c)" style="fill: #0000ff"/>
   </g>
   <g id="patch_111">
    <path d="M 545.770355 138.091579 
L 587.781688 138.091579 
L 587.781688 131.902105 
L 545.770355 131.902105 
z
" clip-path="url(#pa1110eae7c)" style="fill: #0000ff"/>
   </g>
   <g id="patch_112">
    <path d="M 592.515359 135.228947 
L 648.135998 135.228947 
L 648.135998 134.764737 
L 592.515359 134.764737 
z
" clip-path="url(#pa1110eae7c)" style="fill: #0000ff"/>
   </g>
   <g id="patch_113">
    <path d="M 648.727707 138.091579 
L 733.933791 138.091579 
L 733.933791 131.902105 
L 648.727707 131.902105 
z
" clip-path="url(#pa1110eae7c)" style="fill: #0000ff"/>
   </g>
   <g id="patch_114">
    <path d="M 734.5255 135.228947 
L 771.211452 135.228947 
L 771.211452 134.764737 
L 734.5255 134.764737 
z
" clip-path="url(#pa1110eae7c)" style="fill: #0000ff"/>
   </g>
   <g id="patch_115">
    <path d="M 771.803161 138.091579 
L 856.417537 138.091579 
L 856.417537 131.902105 
L 771.803161 131.902105 
z
" clip-path="url(#pa1110eae7c)" style="fill: #0000ff"/>
   </g>
   <g id="patch_116">
    <path d="M 857.009245 135.228947 
L 994.285714 135.228947 
L 994.285714 134.764737 
L 857.009245 134.764737 
z
" clip-path="url(#pa1110eae7c)" style="fill: #0000ff"/>
   </g>
   <g id="patch_117">
    <path d="M 144 119.755263 
L 468.256487 119.755263 
L 468.256487 119.291053 
L 144 119.291053 
z
" clip-path="url(#pa1110eae7c)" style="fill: #0000ff"/>
   </g>
   <g id="patch_118">
    <path d="M 468.848196 122.617895 
L 533.344468 122.617895 
L 533.344468 116.428421 
L 468.848196 116.428421 
z
" clip-path="url(#pa1110eae7c)" style="fill: #0000ff"/>
   </g>
   <g id="patch_119">
    <path d="M 473.581867 122.617895 
L 507.309275 122.617895 
L 507.309275 116.428421 
L 473.581867 116.428421 
z
" clip-path="url(#pa1110eae7c)" style="fill: #0000ff"/>
   </g>
   <g id="patch_120">
    <path d="M 475.356994 122.617895 
L 530.385923 122.617895 
L 530.385923 116.428421 
L 475.356994 116.428421 
z
" clip-path="url(#pa1110eae7c)" style="fill: #0000ff"/>
   </g>
   <g id="patch_121">
    <path d="M 475.948703 122.617895 
L 530.385923 122.617895 
L 530.385923 116.428421 
L 475.948703 116.428421 
z
" clip-path="url(#pa1110eae7c)" style="fill: #0000ff"/>
   </g>
   <g id="patch_122">
    <path d="M 475.948703 122.617895 
L 528.019087 122.617895 
L 528.019087 116.428421 
L 475.948703 116.428421 
z
" clip-path="url(#pa1110eae7c)" style="fill: #0000ff"/>
   </g>
   <g id="patch_123">
    <path d="M 476.540412 122.617895 
L 530.977632 122.617895 
L 530.977632 116.428421 
L 476.540412 116.428421 
z
" clip-path="url(#pa1110eae7c)" style="fill: #0000ff"/>
   </g>
   <g id="patch_124">
    <path d="M 476.540412 122.617895 
L 528.019087 122.617895 
L 528.019087 116.428421 
L 476.540412 116.428421 
z
" clip-path="url(#pa1110eae7c)" style="fill: #0000ff"/>
   </g>
   <g id="patch_125">
    <path d="M 476.540412 122.617895 
L 530.977632 122.617895 
L 530.977632 116.428421 
L 476.540412 116.428421 
z
" clip-path="url(#pa1110eae7c)" style="fill: #0000ff"/>
   </g>
   <g id="patch_126">
    <path d="M 487.191172 122.617895 
L 525.060543 122.617895 
L 525.060543 116.428421 
L 487.191172 116.428421 
z
" clip-path="url(#pa1110eae7c)" style="fill: #0000ff"/>
   </g>
   <g id="patch_127">
    <path d="M 487.191172 122.617895 
L 529.202505 122.617895 
L 529.202505 116.428421 
L 487.191172 116.428421 
z
" clip-path="url(#pa1110eae7c)" style="fill: #0000ff"/>
   </g>
   <g id="patch_128">
    <path d="M 533.936177 119.755263 
L 593.107068 119.755263 
L 593.107068 119.291053 
L 533.936177 119.291053 
z
" clip-path="url(#pa1110eae7c)" style="fill: #0000ff"/>
   </g>
   <g id="patch_129">
    <path d="M 593.698777 122.617895 
L 681.863406 122.617895 
L 681.863406 116.428421 
L 593.698777 116.428421 
z
" clip-path="url(#pa1110eae7c)" style="fill: #0000ff"/>
   </g>
   <g id="patch_130">
    <path d="M 682.455115 119.755263 
L 719.141068 119.755263 
L 719.141068 119.291053 
L 682.455115 119.291053 
z
" clip-path="url(#pa1110eae7c)" style="fill: #0000ff"/>
   </g>
   <g id="patch_131">
    <path d="M 719.732777 122.617895 
L 805.53057 122.617895 
L 805.53057 116.428421 
L 719.732777 116.428421 
z
" clip-path="url(#pa1110eae7c)" style="fill: #0000ff"/>
   </g>
   <g id="patch_132">
    <path d="M 806.122279 119.755263 
L 939.256785 119.755263 
L 939.256785 119.291053 
L 806.122279 119.291053 
z
" clip-path="url(#pa1110eae7c)" style="fill: #0000ff"/>
   </g>
   <g id="patch_133">
    <path d="M 144 104.281579 
L 259.974948 104.281579 
L 259.974948 103.817368 
L 144 103.817368 
z
" clip-path="url(#pa1110eae7c)" style="fill: #0000ff"/>
   </g>
   <g id="patch_134">
    <path d="M 260.566657 107.144211 
L 325.062929 107.144211 
L 325.062929 100.954737 
L 260.566657 100.954737 
z
" clip-path="url(#pa1110eae7c)" style="fill: #0000ff"/>
   </g>
   <g id="patch_135">
    <path d="M 265.300328 107.144211 
L 300.211154 107.144211 
L 300.211154 100.954737 
L 265.300328 100.954737 
z
" clip-path="url(#pa1110eae7c)" style="fill: #0000ff"/>
   </g>
   <g id="patch_136">
    <path d="M 267.075455 107.144211 
L 322.104384 107.144211 
L 322.104384 100.954737 
L 267.075455 100.954737 
z
" clip-path="url(#pa1110eae7c)" style="fill: #0000ff"/>
   </g>
   <g id="patch_137">
    <path d="M 267.667164 107.144211 
L 322.104384 107.144211 
L 322.104384 100.954737 
L 267.667164 100.954737 
z
" clip-path="url(#pa1110eae7c)" style="fill: #0000ff"/>
   </g>
   <g id="patch_138">
    <path d="M 267.667164 107.144211 
L 319.737548 107.144211 
L 319.737548 100.954737 
L 267.667164 100.954737 
z
" clip-path="url(#pa1110eae7c)" style="fill: #0000ff"/>
   </g>
   <g id="patch_139">
    <path d="M 267.667164 107.144211 
L 320.920966 107.144211 
L 320.920966 100.954737 
L 267.667164 100.954737 
z
" clip-path="url(#pa1110eae7c)" style="fill: #0000ff"/>
   </g>
   <g id="patch_140">
    <path d="M 278.317924 107.144211 
L 324.47122 107.144211 
L 324.47122 100.954737 
L 278.317924 100.954737 
z
" clip-path="url(#pa1110eae7c)" style="fill: #0000ff"/>
   </g>
   <g id="patch_141">
    <path d="M 278.317924 107.144211 
L 322.104384 107.144211 
L 322.104384 100.954737 
L 278.317924 100.954737 
z
" clip-path="url(#pa1110eae7c)" style="fill: #0000ff"/>
   </g>
   <g id="patch_142">
    <path d="M 278.317924 107.144211 
L 319.737548 107.144211 
L 319.737548 100.954737 
L 278.317924 100.954737 
z
" clip-path="url(#pa1110eae7c)" style="fill: #0000ff"/>
   </g>
   <g id="patch_143">
    <path d="M 278.317924 107.144211 
L 321.512675 107.144211 
L 321.512675 100.954737 
L 278.317924 100.954737 
z
" clip-path="url(#pa1110eae7c)" style="fill: #0000ff"/>
   </g>
   <g id="patch_144">
    <path d="M 325.654638 104.281579 
L 390.15091 104.281579 
L 390.15091 103.817368 
L 325.654638 103.817368 
z
" clip-path="url(#pa1110eae7c)" style="fill: #0000ff"/>
   </g>
   <g id="patch_145">
    <path d="M 390.742619 107.144211 
L 475.948703 107.144211 
L 475.948703 100.954737 
L 390.742619 100.954737 
z
" clip-path="url(#pa1110eae7c)" style="fill: #0000ff"/>
   </g>
   <g id="patch_146">
    <path d="M 476.540412 104.281579 
L 542.220101 104.281579 
L 542.220101 103.817368 
L 476.540412 103.817368 
z
" clip-path="url(#pa1110eae7c)" style="fill: #0000ff"/>
   </g>
   <g id="patch_147">
    <path d="M 144 88.807895 
L 239.856845 88.807895 
L 239.856845 88.343684 
L 144 88.343684 
z
" clip-path="url(#pa1110eae7c)" style="fill: #0000ff"/>
   </g>
   <g id="patch_148">
    <path d="M 240.448554 91.670526 
L 303.169699 91.670526 
L 303.169699 85.481053 
L 240.448554 85.481053 
z
" clip-path="url(#pa1110eae7c)" style="fill: #0000ff"/>
   </g>
   <g id="patch_149">
    <path d="M 245.182225 91.670526 
L 280.093051 91.670526 
L 280.093051 85.481053 
L 245.182225 85.481053 
z
" clip-path="url(#pa1110eae7c)" style="fill: #0000ff"/>
   </g>
   <g id="patch_150">
    <path d="M 246.957352 91.670526 
L 300.211154 91.670526 
L 300.211154 85.481053 
L 246.957352 85.481053 
z
" clip-path="url(#pa1110eae7c)" style="fill: #0000ff"/>
   </g>
   <g id="patch_151">
    <path d="M 247.549061 91.670526 
L 275.951089 91.670526 
L 275.951089 85.481053 
L 247.549061 85.481053 
z
" clip-path="url(#pa1110eae7c)" style="fill: #0000ff"/>
   </g>
   <g id="patch_152">
    <path d="M 248.140769 91.670526 
L 306.128243 91.670526 
L 306.128243 85.481053 
L 248.140769 85.481053 
z
" clip-path="url(#pa1110eae7c)" style="fill: #0000ff"/>
   </g>
   <g id="patch_153">
    <path d="M 248.140769 91.670526 
L 304.944826 91.670526 
L 304.944826 85.481053 
L 248.140769 85.481053 
z
" clip-path="url(#pa1110eae7c)" style="fill: #0000ff"/>
   </g>
   <g id="patch_154">
    <path d="M 248.732478 91.670526 
L 297.844319 91.670526 
L 297.844319 85.481053 
L 248.732478 85.481053 
z
" clip-path="url(#pa1110eae7c)" style="fill: #0000ff"/>
   </g>
   <g id="patch_155">
    <path d="M 248.732478 91.670526 
L 300.211154 91.670526 
L 300.211154 85.481053 
L 248.732478 85.481053 
z
" clip-path="url(#pa1110eae7c)" style="fill: #0000ff"/>
   </g>
   <g id="patch_156">
    <path d="M 248.732478 91.670526 
L 299.619445 91.670526 
L 299.619445 85.481053 
L 248.732478 85.481053 
z
" clip-path="url(#pa1110eae7c)" style="fill: #0000ff"/>
   </g>
   <g id="patch_157">
    <path d="M 249.324187 91.670526 
L 300.211154 91.670526 
L 300.211154 85.481053 
L 249.324187 85.481053 
z
" clip-path="url(#pa1110eae7c)" style="fill: #0000ff"/>
   </g>
   <g id="patch_158">
    <path d="M 258.79153 91.670526 
L 298.436027 91.670526 
L 298.436027 85.481053 
L 258.79153 85.481053 
z
" clip-path="url(#pa1110eae7c)" style="fill: #0000ff"/>
   </g>
   <g id="patch_159">
    <path d="M 306.719952 88.807895 
L 383.050403 88.807895 
L 383.050403 88.343684 
L 306.719952 88.343684 
z
" clip-path="url(#pa1110eae7c)" style="fill: #0000ff"/>
   </g>
   <g id="patch_160">
    <path d="M 383.642112 91.670526 
L 472.398449 91.670526 
L 472.398449 85.481053 
L 383.642112 85.481053 
z
" clip-path="url(#pa1110eae7c)" style="fill: #0000ff"/>
   </g>
   <g id="patch_161">
    <path d="M 472.990158 88.807895 
L 553.462571 88.807895 
L 553.462571 88.343684 
L 472.990158 88.343684 
z
" clip-path="url(#pa1110eae7c)" style="fill: #0000ff"/>
   </g>
   <g id="patch_162">
    <path d="M 144 73.334211 
L 199.620638 73.334211 
L 199.620638 72.87 
L 144 72.87 
z
" clip-path="url(#pa1110eae7c)" style="fill: #0000ff"/>
   </g>
   <g id="patch_163">
    <path d="M 200.212347 76.196842 
L 264.708619 76.196842 
L 264.708619 70.007368 
L 200.212347 70.007368 
z
" clip-path="url(#pa1110eae7c)" style="fill: #0000ff"/>
   </g>
   <g id="patch_164">
    <path d="M 205.537727 76.196842 
L 239.856845 76.196842 
L 239.856845 70.007368 
L 205.537727 70.007368 
z
" clip-path="url(#pa1110eae7c)" style="fill: #0000ff"/>
   </g>
   <g id="patch_165">
    <path d="M 206.721145 76.196842 
L 261.750075 76.196842 
L 261.750075 70.007368 
L 206.721145 70.007368 
z
" clip-path="url(#pa1110eae7c)" style="fill: #0000ff"/>
   </g>
   <g id="patch_166">
    <path d="M 207.312854 76.196842 
L 259.383239 76.196842 
L 259.383239 70.007368 
L 207.312854 70.007368 
z
" clip-path="url(#pa1110eae7c)" style="fill: #0000ff"/>
   </g>
   <g id="patch_167">
    <path d="M 207.904563 76.196842 
L 235.714882 76.196842 
L 235.714882 70.007368 
L 207.904563 70.007368 
z
" clip-path="url(#pa1110eae7c)" style="fill: #0000ff"/>
   </g>
   <g id="patch_168">
    <path d="M 207.904563 76.196842 
L 264.11691 76.196842 
L 264.11691 70.007368 
L 207.904563 70.007368 
z
" clip-path="url(#pa1110eae7c)" style="fill: #0000ff"/>
   </g>
   <g id="patch_169">
    <path d="M 207.904563 76.196842 
L 261.750075 76.196842 
L 261.750075 70.007368 
L 207.904563 70.007368 
z
" clip-path="url(#pa1110eae7c)" style="fill: #0000ff"/>
   </g>
   <g id="patch_170">
    <path d="M 207.904563 76.196842 
L 264.11691 76.196842 
L 264.11691 70.007368 
L 207.904563 70.007368 
z
" clip-path="url(#pa1110eae7c)" style="fill: #0000ff"/>
   </g>
   <g id="patch_171">
    <path d="M 207.904563 76.196842 
L 261.158366 76.196842 
L 261.158366 70.007368 
L 207.904563 70.007368 
z
" clip-path="url(#pa1110eae7c)" style="fill: #0000ff"/>
   </g>
   <g id="patch_172">
    <path d="M 207.904563 76.196842 
L 261.158366 76.196842 
L 261.158366 70.007368 
L 207.904563 70.007368 
z
" clip-path="url(#pa1110eae7c)" style="fill: #0000ff"/>
   </g>
   <g id="patch_173">
    <path d="M 218.555324 76.196842 
L 256.424694 76.196842 
L 256.424694 70.007368 
L 218.555324 70.007368 
z
" clip-path="url(#pa1110eae7c)" style="fill: #0000ff"/>
   </g>
   <g id="patch_174">
    <path d="M 265.300328 73.334211 
L 364.707426 73.334211 
L 364.707426 72.87 
L 265.300328 72.87 
z
" clip-path="url(#pa1110eae7c)" style="fill: #0000ff"/>
   </g>
   <g id="patch_175">
    <path d="M 365.299135 76.196842 
L 452.872055 76.196842 
L 452.872055 70.007368 
L 365.299135 70.007368 
z
" clip-path="url(#pa1110eae7c)" style="fill: #0000ff"/>
   </g>
   <g id="patch_176">
    <path d="M 453.463764 73.334211 
L 580.089472 73.334211 
L 580.089472 72.87 
L 453.463764 72.87 
z
" clip-path="url(#pa1110eae7c)" style="fill: #0000ff"/>
   </g>
   <g id="patch_177">
    <path d="M 144 57.860526 
L 196.662094 57.860526 
L 196.662094 57.396316 
L 144 57.396316 
z
" clip-path="url(#pa1110eae7c)" style="fill: #0000ff"/>
   </g>
   <g id="patch_178">
    <path d="M 197.253803 60.723158 
L 261.750075 60.723158 
L 261.750075 54.533684 
L 197.253803 54.533684 
z
" clip-path="url(#pa1110eae7c)" style="fill: #0000ff"/>
   </g>
   <g id="patch_179">
    <path d="M 201.987474 60.723158 
L 236.8983 60.723158 
L 236.8983 54.533684 
L 201.987474 54.533684 
z
" clip-path="url(#pa1110eae7c)" style="fill: #0000ff"/>
   </g>
   <g id="patch_180">
    <path d="M 203.762601 60.723158 
L 258.79153 60.723158 
L 258.79153 54.533684 
L 203.762601 54.533684 
z
" clip-path="url(#pa1110eae7c)" style="fill: #0000ff"/>
   </g>
   <g id="patch_181">
    <path d="M 204.35431 60.723158 
L 258.199821 60.723158 
L 258.199821 54.533684 
L 204.35431 54.533684 
z
" clip-path="url(#pa1110eae7c)" style="fill: #0000ff"/>
   </g>
   <g id="patch_182">
    <path d="M 204.35431 60.723158 
L 261.158366 60.723158 
L 261.158366 54.533684 
L 204.35431 54.533684 
z
" clip-path="url(#pa1110eae7c)" style="fill: #0000ff"/>
   </g>
   <g id="patch_183">
    <path d="M 204.946018 60.723158 
L 259.383239 60.723158 
L 259.383239 54.533684 
L 204.946018 54.533684 
z
" clip-path="url(#pa1110eae7c)" style="fill: #0000ff"/>
   </g>
   <g id="patch_184">
    <path d="M 204.946018 60.723158 
L 258.79153 60.723158 
L 258.79153 54.533684 
L 204.946018 54.533684 
z
" clip-path="url(#pa1110eae7c)" style="fill: #0000ff"/>
   </g>
   <g id="patch_185">
    <path d="M 204.946018 60.723158 
L 256.424694 60.723158 
L 256.424694 54.533684 
L 204.946018 54.533684 
z
" clip-path="url(#pa1110eae7c)" style="fill: #0000ff"/>
   </g>
   <g id="patch_186">
    <path d="M 204.946018 60.723158 
L 258.199821 60.723158 
L 258.199821 54.533684 
L 204.946018 54.533684 
z
" clip-path="url(#pa1110eae7c)" style="fill: #0000ff"/>
   </g>
   <g id="patch_187">
    <path d="M 204.946018 60.723158 
L 250.507605 60.723158 
L 250.507605 54.533684 
L 204.946018 54.533684 
z
" clip-path="url(#pa1110eae7c)" style="fill: #0000ff"/>
   </g>
   <g id="patch_188">
    <path d="M 215.596779 60.723158 
L 255.832985 60.723158 
L 255.832985 54.533684 
L 215.596779 54.533684 
z
" clip-path="url(#pa1110eae7c)" style="fill: #0000ff"/>
   </g>
   <g id="patch_189">
    <path d="M 262.341783 57.860526 
L 361.748882 57.860526 
L 361.748882 57.396316 
L 262.341783 57.396316 
z
" clip-path="url(#pa1110eae7c)" style="fill: #0000ff"/>
   </g>
   <g id="patch_190">
    <path d="M 362.340591 60.723158 
L 449.91351 60.723158 
L 449.91351 54.533684 
L 362.340591 54.533684 
z
" clip-path="url(#pa1110eae7c)" style="fill: #0000ff"/>
   </g>
   <g id="patch_191">
    <path d="M 450.505219 57.860526 
L 571.805547 57.860526 
L 571.805547 57.396316 
L 450.505219 57.396316 
z
" clip-path="url(#pa1110eae7c)" style="fill: #0000ff"/>
   </g>
   <g id="patch_192">
    <path d="M 144 42.386842 
L 186.011333 42.386842 
L 186.011333 41.922632 
L 144 41.922632 
z
" clip-path="url(#pa1110eae7c)" style="fill: #0000ff"/>
   </g>
   <g id="patch_193">
    <path d="M 186.603042 45.249474 
L 248.732478 45.249474 
L 248.732478 39.06 
L 186.603042 39.06 
z
" clip-path="url(#pa1110eae7c)" style="fill: #0000ff"/>
   </g>
   <g id="patch_194">
    <path d="M 189.561587 45.249474 
L 223.880704 45.249474 
L 223.880704 39.06 
L 189.561587 39.06 
z
" clip-path="url(#pa1110eae7c)" style="fill: #0000ff"/>
   </g>
   <g id="patch_195">
    <path d="M 190.745004 45.249474 
L 245.773934 45.249474 
L 245.773934 39.06 
L 190.745004 39.06 
z
" clip-path="url(#pa1110eae7c)" style="fill: #0000ff"/>
   </g>
   <g id="patch_196">
    <path d="M 191.336713 45.249474 
L 239.856845 45.249474 
L 239.856845 39.06 
L 191.336713 39.06 
z
" clip-path="url(#pa1110eae7c)" style="fill: #0000ff"/>
   </g>
   <g id="patch_197">
    <path d="M 191.928422 45.249474 
L 246.365643 45.249474 
L 246.365643 39.06 
L 191.928422 39.06 
z
" clip-path="url(#pa1110eae7c)" style="fill: #0000ff"/>
   </g>
   <g id="patch_198">
    <path d="M 191.928422 45.249474 
L 245.773934 45.249474 
L 245.773934 39.06 
L 191.928422 39.06 
z
" clip-path="url(#pa1110eae7c)" style="fill: #0000ff"/>
   </g>
   <g id="patch_199">
    <path d="M 191.928422 45.249474 
L 237.490009 45.249474 
L 237.490009 39.06 
L 191.928422 39.06 
z
" clip-path="url(#pa1110eae7c)" style="fill: #0000ff"/>
   </g>
   <g id="patch_200">
    <path d="M 191.928422 45.249474 
L 242.22368 45.249474 
L 242.22368 39.06 
L 191.928422 39.06 
z
" clip-path="url(#pa1110eae7c)" style="fill: #0000ff"/>
   </g>
   <g id="patch_201">
    <path d="M 191.928422 45.249474 
L 237.490009 45.249474 
L 237.490009 39.06 
L 191.928422 39.06 
z
" clip-path="url(#pa1110eae7c)" style="fill: #0000ff"/>
   </g>
   <g id="patch_202">
    <path d="M 202.579183 45.249474 
L 240.448554 45.249474 
L 240.448554 39.06 
L 202.579183 39.06 
z
" clip-path="url(#pa1110eae7c)" style="fill: #0000ff"/>
   </g>
   <g id="patch_203">
    <path d="M 249.324187 42.386842 
L 337.488816 42.386842 
L 337.488816 41.922632 
L 249.324187 41.922632 
z
" clip-path="url(#pa1110eae7c)" style="fill: #0000ff"/>
   </g>
   <g id="patch_204">
    <path d="M 338.080525 45.249474 
L 425.061736 45.249474 
L 425.061736 39.06 
L 338.080525 39.06 
z
" clip-path="url(#pa1110eae7c)" style="fill: #0000ff"/>
   </g>
   <g id="patch_205">
    <path d="M 425.653445 42.386842 
L 535.119594 42.386842 
L 535.119594 41.922632 
L 425.653445 41.922632 
z
" clip-path="url(#pa1110eae7c)" style="fill: #0000ff"/>
   </g>
   <g id="matplotlib.axis_1">
    <g id="xtick_1">
     <g id="line2d_1">
      <defs>
       <path id="me2f2d27c94" d="M 0 0 
L 0 3.5 
" style="stroke: #000000; stroke-width: 0.8"/>
      </defs>
      <g>
       <use xlink:href="#me2f2d27c94" x="261.750075" y="224.28" style="stroke: #000000; stroke-width: 0.8"/>
      </g>
     </g>
     <g id="text_1">
      <!-- 200 -->
      <g transform="translate(252.206325 238.878438) scale(0.1 -0.1)">
       <defs>
        <path id="DejaVuSans-32" d="M 1228 531 
L 3431 531 
L 3431 0 
L 469 0 
L 469 531 
Q 828 903 1448 1529 
Q 2069 2156 2228 2338 
Q 2531 2678 2651 2914 
Q 2772 3150 2772 3378 
Q 2772 3750 2511 3984 
Q 2250 4219 1831 4219 
Q 1534 4219 1204 4116 
Q 875 4013 500 3803 
L 500 4441 
Q 881 4594 1212 4672 
Q 1544 4750 1819 4750 
Q 2544 4750 2975 4387 
Q 3406 4025 3406 3419 
Q 3406 3131 3298 2873 
Q 3191 2616 2906 2266 
Q 2828 2175 2409 1742 
Q 1991 1309 1228 531 
z
" transform="scale(0.015625)"/>
        <path id="DejaVuSans-30" d="M 2034 4250 
Q 1547 4250 1301 3770 
Q 1056 3291 1056 2328 
Q 1056 1369 1301 889 
Q 1547 409 2034 409 
Q 2525 409 2770 889 
Q 3016 1369 3016 2328 
Q 3016 3291 2770 3770 
Q 2525 4250 2034 4250 
z
M 2034 4750 
Q 2819 4750 3233 4129 
Q 3647 3509 3647 2328 
Q 3647 1150 3233 529 
Q 2819 -91 2034 -91 
Q 1250 -91 836 529 
Q 422 1150 422 2328 
Q 422 3509 836 4129 
Q 1250 4750 2034 4750 
z
" transform="scale(0.015625)"/>
       </defs>
       <use xlink:href="#DejaVuSans-32"/>
       <use xlink:href="#DejaVuSans-30" x="63.623047"/>
       <use xlink:href="#DejaVuSans-30" x="127.246094"/>
      </g>
     </g>
    </g>
    <g id="xtick_2">
     <g id="line2d_2">
      <g>
       <use xlink:href="#me2f2d27c94" x="380.091858" y="224.28" style="stroke: #000000; stroke-width: 0.8"/>
      </g>
     </g>
     <g id="text_2">
      <!-- 400 -->
      <g transform="translate(370.548108 238.878438) scale(0.1 -0.1)">
       <defs>
        <path id="DejaVuSans-34" d="M 2419 4116 
L 825 1625 
L 2419 1625 
L 2419 4116 
z
M 2253 4666 
L 3047 4666 
L 3047 1625 
L 3713 1625 
L 3713 1100 
L 3047 1100 
L 3047 0 
L 2419 0 
L 2419 1100 
L 313 1100 
L 313 1709 
L 2253 4666 
z
" transform="scale(0.015625)"/>
       </defs>
       <use xlink:href="#DejaVuSans-34"/>
       <use xlink:href="#DejaVuSans-30" x="63.623047"/>
       <use xlink:href="#DejaVuSans-30" x="127.246094"/>
      </g>
     </g>
    </g>
    <g id="xtick_3">
     <g id="line2d_3">
      <g>
       <use xlink:href="#me2f2d27c94" x="498.433642" y="224.28" style="stroke: #000000; stroke-width: 0.8"/>
      </g>
     </g>
     <g id="text_3">
      <!-- 600 -->
      <g transform="translate(488.889892 238.878438) scale(0.1 -0.1)">
       <defs>
        <path id="DejaVuSans-36" d="M 2113 2584 
Q 1688 2584 1439 2293 
Q 1191 2003 1191 1497 
Q 1191 994 1439 701 
Q 1688 409 2113 409 
Q 2538 409 2786 701 
Q 3034 994 3034 1497 
Q 3034 2003 2786 2293 
Q 2538 2584 2113 2584 
z
M 3366 4563 
L 3366 3988 
Q 3128 4100 2886 4159 
Q 2644 4219 2406 4219 
Q 1781 4219 1451 3797 
Q 1122 3375 1075 2522 
Q 1259 2794 1537 2939 
Q 1816 3084 2150 3084 
Q 2853 3084 3261 2657 
Q 3669 2231 3669 1497 
Q 3669 778 3244 343 
Q 2819 -91 2113 -91 
Q 1303 -91 875 529 
Q 447 1150 447 2328 
Q 447 3434 972 4092 
Q 1497 4750 2381 4750 
Q 2619 4750 2861 4703 
Q 3103 4656 3366 4563 
z
" transform="scale(0.015625)"/>
       </defs>
       <use xlink:href="#DejaVuSans-36"/>
       <use xlink:href="#DejaVuSans-30" x="63.623047"/>
       <use xlink:href="#DejaVuSans-30" x="127.246094"/>
      </g>
     </g>
    </g>
    <g id="xtick_4">
     <g id="line2d_4">
      <g>
       <use xlink:href="#me2f2d27c94" x="616.775425" y="224.28" style="stroke: #000000; stroke-width: 0.8"/>
      </g>
     </g>
     <g id="text_4">
      <!-- 800 -->
      <g transform="translate(607.231675 238.878438) scale(0.1 -0.1)">
       <defs>
        <path id="DejaVuSans-38" d="M 2034 2216 
Q 1584 2216 1326 1975 
Q 1069 1734 1069 1313 
Q 1069 891 1326 650 
Q 1584 409 2034 409 
Q 2484 409 2743 651 
Q 3003 894 3003 1313 
Q 3003 1734 2745 1975 
Q 2488 2216 2034 2216 
z
M 1403 2484 
Q 997 2584 770 2862 
Q 544 3141 544 3541 
Q 544 4100 942 4425 
Q 1341 4750 2034 4750 
Q 2731 4750 3128 4425 
Q 3525 4100 3525 3541 
Q 3525 3141 3298 2862 
Q 3072 2584 2669 2484 
Q 3125 2378 3379 2068 
Q 3634 1759 3634 1313 
Q 3634 634 3220 271 
Q 2806 -91 2034 -91 
Q 1263 -91 848 271 
Q 434 634 434 1313 
Q 434 1759 690 2068 
Q 947 2378 1403 2484 
z
M 1172 3481 
Q 1172 3119 1398 2916 
Q 1625 2713 2034 2713 
Q 2441 2713 2670 2916 
Q 2900 3119 2900 3481 
Q 2900 3844 2670 4047 
Q 2441 4250 2034 4250 
Q 1625 4250 1398 4047 
Q 1172 3844 1172 3481 
z
" transform="scale(0.015625)"/>
       </defs>
       <use xlink:href="#DejaVuSans-38"/>
       <use xlink:href="#DejaVuSans-30" x="63.623047"/>
       <use xlink:href="#DejaVuSans-30" x="127.246094"/>
      </g>
     </g>
    </g>
    <g id="xtick_5">
     <g id="line2d_5">
      <g>
       <use xlink:href="#me2f2d27c94" x="735.117208" y="224.28" style="stroke: #000000; stroke-width: 0.8"/>
      </g>
     </g>
     <g id="text_5">
      <!-- 1000 -->
      <g transform="translate(722.392208 238.878438) scale(0.1 -0.1)">
       <defs>
        <path id="DejaVuSans-31" d="M 794 531 
L 1825 531 
L 1825 4091 
L 703 3866 
L 703 4441 
L 1819 4666 
L 2450 4666 
L 2450 531 
L 3481 531 
L 3481 0 
L 794 0 
L 794 531 
z
" transform="scale(0.015625)"/>
       </defs>
       <use xlink:href="#DejaVuSans-31"/>
       <use xlink:href="#DejaVuSans-30" x="63.623047"/>
       <use xlink:href="#DejaVuSans-30" x="127.246094"/>
       <use xlink:href="#DejaVuSans-30" x="190.869141"/>
      </g>
     </g>
    </g>
    <g id="xtick_6">
     <g id="line2d_6">
      <g>
       <use xlink:href="#me2f2d27c94" x="853.458992" y="224.28" style="stroke: #000000; stroke-width: 0.8"/>
      </g>
     </g>
     <g id="text_6">
      <!-- 1200 -->
      <g transform="translate(840.733992 238.878438) scale(0.1 -0.1)">
       <use xlink:href="#DejaVuSans-31"/>
       <use xlink:href="#DejaVuSans-32" x="63.623047"/>
       <use xlink:href="#DejaVuSans-30" x="127.246094"/>
       <use xlink:href="#DejaVuSans-30" x="190.869141"/>
      </g>
     </g>
    </g>
    <g id="xtick_7">
     <g id="line2d_7">
      <g>
       <use xlink:href="#me2f2d27c94" x="971.800775" y="224.28" style="stroke: #000000; stroke-width: 0.8"/>
      </g>
     </g>
     <g id="text_7">
      <!-- 1400 -->
      <g transform="translate(959.075775 238.878438) scale(0.1 -0.1)">
       <use xlink:href="#DejaVuSans-31"/>
       <use xlink:href="#DejaVuSans-34" x="63.623047"/>
       <use xlink:href="#DejaVuSans-30" x="127.246094"/>
       <use xlink:href="#DejaVuSans-30" x="190.869141"/>
      </g>
     </g>
    </g>
    <g id="text_8">
     <!-- Residual -->
     <g transform="translate(569.284375 252.556563) scale(0.1 -0.1)">
      <defs>
       <path id="DejaVuSans-52" d="M 2841 2188 
Q 3044 2119 3236 1894 
Q 3428 1669 3622 1275 
L 4263 0 
L 3584 0 
L 2988 1197 
Q 2756 1666 2539 1819 
Q 2322 1972 1947 1972 
L 1259 1972 
L 1259 0 
L 628 0 
L 628 4666 
L 2053 4666 
Q 2853 4666 3247 4331 
Q 3641 3997 3641 3322 
Q 3641 2881 3436 2590 
Q 3231 2300 2841 2188 
z
M 1259 4147 
L 1259 2491 
L 2053 2491 
Q 2509 2491 2742 2702 
Q 2975 2913 2975 3322 
Q 2975 3731 2742 3939 
Q 2509 4147 2053 4147 
L 1259 4147 
z
" transform="scale(0.015625)"/>
       <path id="DejaVuSans-65" d="M 3597 1894 
L 3597 1613 
L 953 1613 
Q 991 1019 1311 708 
Q 1631 397 2203 397 
Q 2534 397 2845 478 
Q 3156 559 3463 722 
L 3463 178 
Q 3153 47 2828 -22 
Q 2503 -91 2169 -91 
Q 1331 -91 842 396 
Q 353 884 353 1716 
Q 353 2575 817 3079 
Q 1281 3584 2069 3584 
Q 2775 3584 3186 3129 
Q 3597 2675 3597 1894 
z
M 3022 2063 
Q 3016 2534 2758 2815 
Q 2500 3097 2075 3097 
Q 1594 3097 1305 2825 
Q 1016 2553 972 2059 
L 3022 2063 
z
" transform="scale(0.015625)"/>
       <path id="DejaVuSans-73" d="M 2834 3397 
L 2834 2853 
Q 2591 2978 2328 3040 
Q 2066 3103 1784 3103 
Q 1356 3103 1142 2972 
Q 928 2841 928 2578 
Q 928 2378 1081 2264 
Q 1234 2150 1697 2047 
L 1894 2003 
Q 2506 1872 2764 1633 
Q 3022 1394 3022 966 
Q 3022 478 2636 193 
Q 2250 -91 1575 -91 
Q 1294 -91 989 -36 
Q 684 19 347 128 
L 347 722 
Q 666 556 975 473 
Q 1284 391 1588 391 
Q 1994 391 2212 530 
Q 2431 669 2431 922 
Q 2431 1156 2273 1281 
Q 2116 1406 1581 1522 
L 1381 1569 
Q 847 1681 609 1914 
Q 372 2147 372 2553 
Q 372 3047 722 3315 
Q 1072 3584 1716 3584 
Q 2034 3584 2315 3537 
Q 2597 3491 2834 3397 
z
" transform="scale(0.015625)"/>
       <path id="DejaVuSans-69" d="M 603 3500 
L 1178 3500 
L 1178 0 
L 603 0 
L 603 3500 
z
M 603 4863 
L 1178 4863 
L 1178 4134 
L 603 4134 
L 603 4863 
z
" transform="scale(0.015625)"/>
       <path id="DejaVuSans-64" d="M 2906 2969 
L 2906 4863 
L 3481 4863 
L 3481 0 
L 2906 0 
L 2906 525 
Q 2725 213 2448 61 
Q 2172 -91 1784 -91 
Q 1150 -91 751 415 
Q 353 922 353 1747 
Q 353 2572 751 3078 
Q 1150 3584 1784 3584 
Q 2172 3584 2448 3432 
Q 2725 3281 2906 2969 
z
M 947 1747 
Q 947 1113 1208 752 
Q 1469 391 1925 391 
Q 2381 391 2643 752 
Q 2906 1113 2906 1747 
Q 2906 2381 2643 2742 
Q 2381 3103 1925 3103 
Q 1469 3103 1208 2742 
Q 947 2381 947 1747 
z
" transform="scale(0.015625)"/>
       <path id="DejaVuSans-75" d="M 544 1381 
L 544 3500 
L 1119 3500 
L 1119 1403 
Q 1119 906 1312 657 
Q 1506 409 1894 409 
Q 2359 409 2629 706 
Q 2900 1003 2900 1516 
L 2900 3500 
L 3475 3500 
L 3475 0 
L 2900 0 
L 2900 538 
Q 2691 219 2414 64 
Q 2138 -91 1772 -91 
Q 1169 -91 856 284 
Q 544 659 544 1381 
z
M 1991 3584 
L 1991 3584 
z
" transform="scale(0.015625)"/>
       <path id="DejaVuSans-61" d="M 2194 1759 
Q 1497 1759 1228 1600 
Q 959 1441 959 1056 
Q 959 750 1161 570 
Q 1363 391 1709 391 
Q 2188 391 2477 730 
Q 2766 1069 2766 1631 
L 2766 1759 
L 2194 1759 
z
M 3341 1997 
L 3341 0 
L 2766 0 
L 2766 531 
Q 2569 213 2275 61 
Q 1981 -91 1556 -91 
Q 1019 -91 701 211 
Q 384 513 384 1019 
Q 384 1609 779 1909 
Q 1175 2209 1959 2209 
L 2766 2209 
L 2766 2266 
Q 2766 2663 2505 2880 
Q 2244 3097 1772 3097 
Q 1472 3097 1187 3025 
Q 903 2953 641 2809 
L 641 3341 
Q 956 3463 1253 3523 
Q 1550 3584 1831 3584 
Q 2591 3584 2966 3190 
Q 3341 2797 3341 1997 
z
" transform="scale(0.015625)"/>
       <path id="DejaVuSans-6c" d="M 603 4863 
L 1178 4863 
L 1178 0 
L 603 0 
L 603 4863 
z
" transform="scale(0.015625)"/>
      </defs>
      <use xlink:href="#DejaVuSans-52"/>
      <use xlink:href="#DejaVuSans-65" x="64.982422"/>
      <use xlink:href="#DejaVuSans-73" x="126.505859"/>
      <use xlink:href="#DejaVuSans-69" x="178.605469"/>
      <use xlink:href="#DejaVuSans-64" x="206.388672"/>
      <use xlink:href="#DejaVuSans-75" x="269.865234"/>
      <use xlink:href="#DejaVuSans-61" x="333.244141"/>
      <use xlink:href="#DejaVuSans-6c" x="394.523438"/>
     </g>
    </g>
   </g>
   <g id="matplotlib.axis_2">
    <g id="ytick_1">
     <g id="line2d_8">
      <defs>
       <path id="m582a7bc0a3" d="M 0 0 
L -3.5 0 
" style="stroke: #000000; stroke-width: 0.8"/>
      </defs>
      <g>
       <use xlink:href="#m582a7bc0a3" x="144" y="212.365263" style="stroke: #000000; stroke-width: 0.8"/>
      </g>
     </g>
     <g id="text_9">
      <!-- 9.B.198.1.1 -->
      <g transform="translate(79.251563 216.164482) scale(0.1 -0.1)">
       <defs>
        <path id="DejaVuSans-39" d="M 703 97 
L 703 672 
Q 941 559 1184 500 
Q 1428 441 1663 441 
Q 2288 441 2617 861 
Q 2947 1281 2994 2138 
Q 2813 1869 2534 1725 
Q 2256 1581 1919 1581 
Q 1219 1581 811 2004 
Q 403 2428 403 3163 
Q 403 3881 828 4315 
Q 1253 4750 1959 4750 
Q 2769 4750 3195 4129 
Q 3622 3509 3622 2328 
Q 3622 1225 3098 567 
Q 2575 -91 1691 -91 
Q 1453 -91 1209 -44 
Q 966 3 703 97 
z
M 1959 2075 
Q 2384 2075 2632 2365 
Q 2881 2656 2881 3163 
Q 2881 3666 2632 3958 
Q 2384 4250 1959 4250 
Q 1534 4250 1286 3958 
Q 1038 3666 1038 3163 
Q 1038 2656 1286 2365 
Q 1534 2075 1959 2075 
z
" transform="scale(0.015625)"/>
        <path id="DejaVuSans-2e" d="M 684 794 
L 1344 794 
L 1344 0 
L 684 0 
L 684 794 
z
" transform="scale(0.015625)"/>
        <path id="DejaVuSans-42" d="M 1259 2228 
L 1259 519 
L 2272 519 
Q 2781 519 3026 730 
Q 3272 941 3272 1375 
Q 3272 1813 3026 2020 
Q 2781 2228 2272 2228 
L 1259 2228 
z
M 1259 4147 
L 1259 2741 
L 2194 2741 
Q 2656 2741 2882 2914 
Q 3109 3088 3109 3444 
Q 3109 3797 2882 3972 
Q 2656 4147 2194 4147 
L 1259 4147 
z
M 628 4666 
L 2241 4666 
Q 2963 4666 3353 4366 
Q 3744 4066 3744 3513 
Q 3744 3084 3544 2831 
Q 3344 2578 2956 2516 
Q 3422 2416 3680 2098 
Q 3938 1781 3938 1306 
Q 3938 681 3513 340 
Q 3088 0 2303 0 
L 628 0 
L 628 4666 
z
" transform="scale(0.015625)"/>
       </defs>
       <use xlink:href="#DejaVuSans-39"/>
       <use xlink:href="#DejaVuSans-2e" x="63.623047"/>
       <use xlink:href="#DejaVuSans-42" x="95.410156"/>
       <use xlink:href="#DejaVuSans-2e" x="164.013672"/>
       <use xlink:href="#DejaVuSans-31" x="195.800781"/>
       <use xlink:href="#DejaVuSans-39" x="259.423828"/>
       <use xlink:href="#DejaVuSans-38" x="323.046875"/>
       <use xlink:href="#DejaVuSans-2e" x="386.669922"/>
       <use xlink:href="#DejaVuSans-31" x="418.457031"/>
       <use xlink:href="#DejaVuSans-2e" x="482.080078"/>
       <use xlink:href="#DejaVuSans-31" x="513.867188"/>
      </g>
     </g>
    </g>
    <g id="ytick_2">
     <g id="line2d_9">
      <g>
       <use xlink:href="#m582a7bc0a3" x="144" y="196.891579" style="stroke: #000000; stroke-width: 0.8"/>
      </g>
     </g>
     <g id="text_10">
      <!-- 9.B.198.1.2 -->
      <g transform="translate(79.251563 200.690798) scale(0.1 -0.1)">
       <use xlink:href="#DejaVuSans-39"/>
       <use xlink:href="#DejaVuSans-2e" x="63.623047"/>
       <use xlink:href="#DejaVuSans-42" x="95.410156"/>
       <use xlink:href="#DejaVuSans-2e" x="164.013672"/>
       <use xlink:href="#DejaVuSans-31" x="195.800781"/>
       <use xlink:href="#DejaVuSans-39" x="259.423828"/>
       <use xlink:href="#DejaVuSans-38" x="323.046875"/>
       <use xlink:href="#DejaVuSans-2e" x="386.669922"/>
       <use xlink:href="#DejaVuSans-31" x="418.457031"/>
       <use xlink:href="#DejaVuSans-2e" x="482.080078"/>
       <use xlink:href="#DejaVuSans-32" x="513.867188"/>
      </g>
     </g>
    </g>
    <g id="ytick_3">
     <g id="line2d_10">
      <g>
       <use xlink:href="#m582a7bc0a3" x="144" y="181.417895" style="stroke: #000000; stroke-width: 0.8"/>
      </g>
     </g>
     <g id="text_11">
      <!-- 9.B.198.1.3 -->
      <g transform="translate(79.251563 185.217113) scale(0.1 -0.1)">
       <defs>
        <path id="DejaVuSans-33" d="M 2597 2516 
Q 3050 2419 3304 2112 
Q 3559 1806 3559 1356 
Q 3559 666 3084 287 
Q 2609 -91 1734 -91 
Q 1441 -91 1130 -33 
Q 819 25 488 141 
L 488 750 
Q 750 597 1062 519 
Q 1375 441 1716 441 
Q 2309 441 2620 675 
Q 2931 909 2931 1356 
Q 2931 1769 2642 2001 
Q 2353 2234 1838 2234 
L 1294 2234 
L 1294 2753 
L 1863 2753 
Q 2328 2753 2575 2939 
Q 2822 3125 2822 3475 
Q 2822 3834 2567 4026 
Q 2313 4219 1838 4219 
Q 1578 4219 1281 4162 
Q 984 4106 628 3988 
L 628 4550 
Q 988 4650 1302 4700 
Q 1616 4750 1894 4750 
Q 2613 4750 3031 4423 
Q 3450 4097 3450 3541 
Q 3450 3153 3228 2886 
Q 3006 2619 2597 2516 
z
" transform="scale(0.015625)"/>
       </defs>
       <use xlink:href="#DejaVuSans-39"/>
       <use xlink:href="#DejaVuSans-2e" x="63.623047"/>
       <use xlink:href="#DejaVuSans-42" x="95.410156"/>
       <use xlink:href="#DejaVuSans-2e" x="164.013672"/>
       <use xlink:href="#DejaVuSans-31" x="195.800781"/>
       <use xlink:href="#DejaVuSans-39" x="259.423828"/>
       <use xlink:href="#DejaVuSans-38" x="323.046875"/>
       <use xlink:href="#DejaVuSans-2e" x="386.669922"/>
       <use xlink:href="#DejaVuSans-31" x="418.457031"/>
       <use xlink:href="#DejaVuSans-2e" x="482.080078"/>
       <use xlink:href="#DejaVuSans-33" x="513.867188"/>
      </g>
     </g>
    </g>
    <g id="ytick_4">
     <g id="line2d_11">
      <g>
       <use xlink:href="#m582a7bc0a3" x="144" y="165.944211" style="stroke: #000000; stroke-width: 0.8"/>
      </g>
     </g>
     <g id="text_12">
      <!-- 9.B.198.1.4 -->
      <g transform="translate(79.251563 169.743429) scale(0.1 -0.1)">
       <use xlink:href="#DejaVuSans-39"/>
       <use xlink:href="#DejaVuSans-2e" x="63.623047"/>
       <use xlink:href="#DejaVuSans-42" x="95.410156"/>
       <use xlink:href="#DejaVuSans-2e" x="164.013672"/>
       <use xlink:href="#DejaVuSans-31" x="195.800781"/>
       <use xlink:href="#DejaVuSans-39" x="259.423828"/>
       <use xlink:href="#DejaVuSans-38" x="323.046875"/>
       <use xlink:href="#DejaVuSans-2e" x="386.669922"/>
       <use xlink:href="#DejaVuSans-31" x="418.457031"/>
       <use xlink:href="#DejaVuSans-2e" x="482.080078"/>
       <use xlink:href="#DejaVuSans-34" x="513.867188"/>
      </g>
     </g>
    </g>
    <g id="ytick_5">
     <g id="line2d_12">
      <g>
       <use xlink:href="#m582a7bc0a3" x="144" y="150.470526" style="stroke: #000000; stroke-width: 0.8"/>
      </g>
     </g>
     <g id="text_13">
      <!-- 9.B.198.1.5 -->
      <g transform="translate(79.251563 154.269745) scale(0.1 -0.1)">
       <defs>
        <path id="DejaVuSans-35" d="M 691 4666 
L 3169 4666 
L 3169 4134 
L 1269 4134 
L 1269 2991 
Q 1406 3038 1543 3061 
Q 1681 3084 1819 3084 
Q 2600 3084 3056 2656 
Q 3513 2228 3513 1497 
Q 3513 744 3044 326 
Q 2575 -91 1722 -91 
Q 1428 -91 1123 -41 
Q 819 9 494 109 
L 494 744 
Q 775 591 1075 516 
Q 1375 441 1709 441 
Q 2250 441 2565 725 
Q 2881 1009 2881 1497 
Q 2881 1984 2565 2268 
Q 2250 2553 1709 2553 
Q 1456 2553 1204 2497 
Q 953 2441 691 2322 
L 691 4666 
z
" transform="scale(0.015625)"/>
       </defs>
       <use xlink:href="#DejaVuSans-39"/>
       <use xlink:href="#DejaVuSans-2e" x="63.623047"/>
       <use xlink:href="#DejaVuSans-42" x="95.410156"/>
       <use xlink:href="#DejaVuSans-2e" x="164.013672"/>
       <use xlink:href="#DejaVuSans-31" x="195.800781"/>
       <use xlink:href="#DejaVuSans-39" x="259.423828"/>
       <use xlink:href="#DejaVuSans-38" x="323.046875"/>
       <use xlink:href="#DejaVuSans-2e" x="386.669922"/>
       <use xlink:href="#DejaVuSans-31" x="418.457031"/>
       <use xlink:href="#DejaVuSans-2e" x="482.080078"/>
       <use xlink:href="#DejaVuSans-35" x="513.867188"/>
      </g>
     </g>
    </g>
    <g id="ytick_6">
     <g id="line2d_13">
      <g>
       <use xlink:href="#m582a7bc0a3" x="144" y="134.996842" style="stroke: #000000; stroke-width: 0.8"/>
      </g>
     </g>
     <g id="text_14">
      <!-- 9.B.198.2.1 -->
      <g transform="translate(79.251563 138.796061) scale(0.1 -0.1)">
       <use xlink:href="#DejaVuSans-39"/>
       <use xlink:href="#DejaVuSans-2e" x="63.623047"/>
       <use xlink:href="#DejaVuSans-42" x="95.410156"/>
       <use xlink:href="#DejaVuSans-2e" x="164.013672"/>
       <use xlink:href="#DejaVuSans-31" x="195.800781"/>
       <use xlink:href="#DejaVuSans-39" x="259.423828"/>
       <use xlink:href="#DejaVuSans-38" x="323.046875"/>
       <use xlink:href="#DejaVuSans-2e" x="386.669922"/>
       <use xlink:href="#DejaVuSans-32" x="418.457031"/>
       <use xlink:href="#DejaVuSans-2e" x="482.080078"/>
       <use xlink:href="#DejaVuSans-31" x="513.867188"/>
      </g>
     </g>
    </g>
    <g id="ytick_7">
     <g id="line2d_14">
      <g>
       <use xlink:href="#m582a7bc0a3" x="144" y="119.523158" style="stroke: #000000; stroke-width: 0.8"/>
      </g>
     </g>
     <g id="text_15">
      <!-- 9.B.198.2.2 -->
      <g transform="translate(79.251563 123.322377) scale(0.1 -0.1)">
       <use xlink:href="#DejaVuSans-39"/>
       <use xlink:href="#DejaVuSans-2e" x="63.623047"/>
       <use xlink:href="#DejaVuSans-42" x="95.410156"/>
       <use xlink:href="#DejaVuSans-2e" x="164.013672"/>
       <use xlink:href="#DejaVuSans-31" x="195.800781"/>
       <use xlink:href="#DejaVuSans-39" x="259.423828"/>
       <use xlink:href="#DejaVuSans-38" x="323.046875"/>
       <use xlink:href="#DejaVuSans-2e" x="386.669922"/>
       <use xlink:href="#DejaVuSans-32" x="418.457031"/>
       <use xlink:href="#DejaVuSans-2e" x="482.080078"/>
       <use xlink:href="#DejaVuSans-32" x="513.867188"/>
      </g>
     </g>
    </g>
    <g id="ytick_8">
     <g id="line2d_15">
      <g>
       <use xlink:href="#m582a7bc0a3" x="144" y="104.049474" style="stroke: #000000; stroke-width: 0.8"/>
      </g>
     </g>
     <g id="text_16">
      <!-- 9.B.198.2.3 -->
      <g transform="translate(79.251563 107.848692) scale(0.1 -0.1)">
       <use xlink:href="#DejaVuSans-39"/>
       <use xlink:href="#DejaVuSans-2e" x="63.623047"/>
       <use xlink:href="#DejaVuSans-42" x="95.410156"/>
       <use xlink:href="#DejaVuSans-2e" x="164.013672"/>
       <use xlink:href="#DejaVuSans-31" x="195.800781"/>
       <use xlink:href="#DejaVuSans-39" x="259.423828"/>
       <use xlink:href="#DejaVuSans-38" x="323.046875"/>
       <use xlink:href="#DejaVuSans-2e" x="386.669922"/>
       <use xlink:href="#DejaVuSans-32" x="418.457031"/>
       <use xlink:href="#DejaVuSans-2e" x="482.080078"/>
       <use xlink:href="#DejaVuSans-33" x="513.867188"/>
      </g>
     </g>
    </g>
    <g id="ytick_9">
     <g id="line2d_16">
      <g>
       <use xlink:href="#m582a7bc0a3" x="144" y="88.575789" style="stroke: #000000; stroke-width: 0.8"/>
      </g>
     </g>
     <g id="text_17">
      <!-- 9.B.198.2.4 -->
      <g transform="translate(79.251563 92.375008) scale(0.1 -0.1)">
       <use xlink:href="#DejaVuSans-39"/>
       <use xlink:href="#DejaVuSans-2e" x="63.623047"/>
       <use xlink:href="#DejaVuSans-42" x="95.410156"/>
       <use xlink:href="#DejaVuSans-2e" x="164.013672"/>
       <use xlink:href="#DejaVuSans-31" x="195.800781"/>
       <use xlink:href="#DejaVuSans-39" x="259.423828"/>
       <use xlink:href="#DejaVuSans-38" x="323.046875"/>
       <use xlink:href="#DejaVuSans-2e" x="386.669922"/>
       <use xlink:href="#DejaVuSans-32" x="418.457031"/>
       <use xlink:href="#DejaVuSans-2e" x="482.080078"/>
       <use xlink:href="#DejaVuSans-34" x="513.867188"/>
      </g>
     </g>
    </g>
    <g id="ytick_10">
     <g id="line2d_17">
      <g>
       <use xlink:href="#m582a7bc0a3" x="144" y="73.102105" style="stroke: #000000; stroke-width: 0.8"/>
      </g>
     </g>
     <g id="text_18">
      <!-- 9.B.198.2.5 -->
      <g transform="translate(79.251563 76.901324) scale(0.1 -0.1)">
       <use xlink:href="#DejaVuSans-39"/>
       <use xlink:href="#DejaVuSans-2e" x="63.623047"/>
       <use xlink:href="#DejaVuSans-42" x="95.410156"/>
       <use xlink:href="#DejaVuSans-2e" x="164.013672"/>
       <use xlink:href="#DejaVuSans-31" x="195.800781"/>
       <use xlink:href="#DejaVuSans-39" x="259.423828"/>
       <use xlink:href="#DejaVuSans-38" x="323.046875"/>
       <use xlink:href="#DejaVuSans-2e" x="386.669922"/>
       <use xlink:href="#DejaVuSans-32" x="418.457031"/>
       <use xlink:href="#DejaVuSans-2e" x="482.080078"/>
       <use xlink:href="#DejaVuSans-35" x="513.867188"/>
      </g>
     </g>
    </g>
    <g id="ytick_11">
     <g id="line2d_18">
      <g>
       <use xlink:href="#m582a7bc0a3" x="144" y="57.628421" style="stroke: #000000; stroke-width: 0.8"/>
      </g>
     </g>
     <g id="text_19">
      <!-- 9.B.198.2.6 -->
      <g transform="translate(79.251563 61.42764) scale(0.1 -0.1)">
       <use xlink:href="#DejaVuSans-39"/>
       <use xlink:href="#DejaVuSans-2e" x="63.623047"/>
       <use xlink:href="#DejaVuSans-42" x="95.410156"/>
       <use xlink:href="#DejaVuSans-2e" x="164.013672"/>
       <use xlink:href="#DejaVuSans-31" x="195.800781"/>
       <use xlink:href="#DejaVuSans-39" x="259.423828"/>
       <use xlink:href="#DejaVuSans-38" x="323.046875"/>
       <use xlink:href="#DejaVuSans-2e" x="386.669922"/>
       <use xlink:href="#DejaVuSans-32" x="418.457031"/>
       <use xlink:href="#DejaVuSans-2e" x="482.080078"/>
       <use xlink:href="#DejaVuSans-36" x="513.867188"/>
      </g>
     </g>
    </g>
    <g id="ytick_12">
     <g id="line2d_19">
      <g>
       <use xlink:href="#m582a7bc0a3" x="144" y="42.154737" style="stroke: #000000; stroke-width: 0.8"/>
      </g>
     </g>
     <g id="text_20">
      <!-- 9.B.198.2.7 -->
      <g transform="translate(79.251563 45.953956) scale(0.1 -0.1)">
       <defs>
        <path id="DejaVuSans-37" d="M 525 4666 
L 3525 4666 
L 3525 4397 
L 1831 0 
L 1172 0 
L 2766 4134 
L 525 4134 
L 525 4666 
z
" transform="scale(0.015625)"/>
       </defs>
       <use xlink:href="#DejaVuSans-39"/>
       <use xlink:href="#DejaVuSans-2e" x="63.623047"/>
       <use xlink:href="#DejaVuSans-42" x="95.410156"/>
       <use xlink:href="#DejaVuSans-2e" x="164.013672"/>
       <use xlink:href="#DejaVuSans-31" x="195.800781"/>
       <use xlink:href="#DejaVuSans-39" x="259.423828"/>
       <use xlink:href="#DejaVuSans-38" x="323.046875"/>
       <use xlink:href="#DejaVuSans-2e" x="386.669922"/>
       <use xlink:href="#DejaVuSans-32" x="418.457031"/>
       <use xlink:href="#DejaVuSans-2e" x="482.080078"/>
       <use xlink:href="#DejaVuSans-37" x="513.867188"/>
      </g>
     </g>
    </g>
   </g>
   <g id="patch_206">
    <path d="M 144 224.28 
L 144 30.24 
" style="fill: none; stroke: #000000; stroke-width: 0.8; stroke-linejoin: miter; stroke-linecap: square"/>
   </g>
   <g id="patch_207">
    <path d="M 1036.8 224.28 
L 1036.8 30.24 
" style="fill: none; stroke: #000000; stroke-width: 0.8; stroke-linejoin: miter; stroke-linecap: square"/>
   </g>
   <g id="patch_208">
    <path d="M 144 224.28 
L 1036.8 224.28 
" style="fill: none; stroke: #000000; stroke-width: 0.8; stroke-linejoin: miter; stroke-linecap: square"/>
   </g>
   <g id="patch_209">
    <path d="M 144 30.24 
L 1036.8 30.24 
" style="fill: none; stroke: #000000; stroke-width: 0.8; stroke-linejoin: miter; stroke-linecap: square"/>
   </g>
   <g id="text_21">
    <!-- 9.B.198 Summary -->
    <g transform="translate(536.297812 24.24) scale(0.12 -0.12)">
     <defs>
      <path id="DejaVuSans-20" transform="scale(0.015625)"/>
      <path id="DejaVuSans-53" d="M 3425 4513 
L 3425 3897 
Q 3066 4069 2747 4153 
Q 2428 4238 2131 4238 
Q 1616 4238 1336 4038 
Q 1056 3838 1056 3469 
Q 1056 3159 1242 3001 
Q 1428 2844 1947 2747 
L 2328 2669 
Q 3034 2534 3370 2195 
Q 3706 1856 3706 1288 
Q 3706 609 3251 259 
Q 2797 -91 1919 -91 
Q 1588 -91 1214 -16 
Q 841 59 441 206 
L 441 856 
Q 825 641 1194 531 
Q 1563 422 1919 422 
Q 2459 422 2753 634 
Q 3047 847 3047 1241 
Q 3047 1584 2836 1778 
Q 2625 1972 2144 2069 
L 1759 2144 
Q 1053 2284 737 2584 
Q 422 2884 422 3419 
Q 422 4038 858 4394 
Q 1294 4750 2059 4750 
Q 2388 4750 2728 4690 
Q 3069 4631 3425 4513 
z
" transform="scale(0.015625)"/>
      <path id="DejaVuSans-6d" d="M 3328 2828 
Q 3544 3216 3844 3400 
Q 4144 3584 4550 3584 
Q 5097 3584 5394 3201 
Q 5691 2819 5691 2113 
L 5691 0 
L 5113 0 
L 5113 2094 
Q 5113 2597 4934 2840 
Q 4756 3084 4391 3084 
Q 3944 3084 3684 2787 
Q 3425 2491 3425 1978 
L 3425 0 
L 2847 0 
L 2847 2094 
Q 2847 2600 2669 2842 
Q 2491 3084 2119 3084 
Q 1678 3084 1418 2786 
Q 1159 2488 1159 1978 
L 1159 0 
L 581 0 
L 581 3500 
L 1159 3500 
L 1159 2956 
Q 1356 3278 1631 3431 
Q 1906 3584 2284 3584 
Q 2666 3584 2933 3390 
Q 3200 3197 3328 2828 
z
" transform="scale(0.015625)"/>
      <path id="DejaVuSans-72" d="M 2631 2963 
Q 2534 3019 2420 3045 
Q 2306 3072 2169 3072 
Q 1681 3072 1420 2755 
Q 1159 2438 1159 1844 
L 1159 0 
L 581 0 
L 581 3500 
L 1159 3500 
L 1159 2956 
Q 1341 3275 1631 3429 
Q 1922 3584 2338 3584 
Q 2397 3584 2469 3576 
Q 2541 3569 2628 3553 
L 2631 2963 
z
" transform="scale(0.015625)"/>
      <path id="DejaVuSans-79" d="M 2059 -325 
Q 1816 -950 1584 -1140 
Q 1353 -1331 966 -1331 
L 506 -1331 
L 506 -850 
L 844 -850 
Q 1081 -850 1212 -737 
Q 1344 -625 1503 -206 
L 1606 56 
L 191 3500 
L 800 3500 
L 1894 763 
L 2988 3500 
L 3597 3500 
L 2059 -325 
z
" transform="scale(0.015625)"/>
     </defs>
     <use xlink:href="#DejaVuSans-39"/>
     <use xlink:href="#DejaVuSans-2e" x="63.623047"/>
     <use xlink:href="#DejaVuSans-42" x="95.410156"/>
     <use xlink:href="#DejaVuSans-2e" x="164.013672"/>
     <use xlink:href="#DejaVuSans-31" x="195.800781"/>
     <use xlink:href="#DejaVuSans-39" x="259.423828"/>
     <use xlink:href="#DejaVuSans-38" x="323.046875"/>
     <use xlink:href="#DejaVuSans-20" x="386.669922"/>
     <use xlink:href="#DejaVuSans-53" x="418.457031"/>
     <use xlink:href="#DejaVuSans-75" x="481.933594"/>
     <use xlink:href="#DejaVuSans-6d" x="545.3125"/>
     <use xlink:href="#DejaVuSans-6d" x="642.724609"/>
     <use xlink:href="#DejaVuSans-61" x="740.136719"/>
     <use xlink:href="#DejaVuSans-72" x="801.416016"/>
     <use xlink:href="#DejaVuSans-79" x="842.529297"/>
    </g>
   </g>
  </g>
 </g>
 <defs>
  <clipPath id="pa1110eae7c">
   <rect x="144" y="30.24" width="892.8" height="194.04"/>
  </clipPath>
 </defs>
</svg>
