<?xml version="1.0" encoding="utf-8" standalone="no"?>
<!DOCTYPE svg PUBLIC "-//W3C//DTD SVG 1.1//EN"
  "http://www.w3.org/Graphics/SVG/1.1/DTD/svg11.dtd">
<svg xmlns:xlink="http://www.w3.org/1999/xlink" width="1152pt" height="237.6pt" viewBox="0 0 1152 237.6" xmlns="http://www.w3.org/2000/svg" version="1.1">
 <metadata>
  <rdf:RDF xmlns:dc="http://purl.org/dc/elements/1.1/" xmlns:cc="http://creativecommons.org/ns#" xmlns:rdf="http://www.w3.org/1999/02/22-rdf-syntax-ns#">
   <cc:Work>
    <dc:type rdf:resource="http://purl.org/dc/dcmitype/StillImage"/>
    <dc:date>2024-10-25T08:08:02.970996</dc:date>
    <dc:format>image/svg+xml</dc:format>
    <dc:creator>
     <cc:Agent>
      <dc:title>Matplotlib v3.9.2, https://matplotlib.org/</dc:title>
     </cc:Agent>
    </dc:creator>
   </cc:Work>
  </rdf:RDF>
 </metadata>
 <defs>
  <style type="text/css">*{stroke-linejoin: round; stroke-linecap: butt}</style>
 </defs>
 <g id="figure_1">
  <g id="patch_1">
   <path d="M 0 237.6 
L 1152 237.6 
L 1152 0 
L 0 0 
z
" style="fill: #ffffff"/>
  </g>
  <g id="axes_1">
   <g id="patch_2">
    <path d="M 144 211.464 
L 1036.8 211.464 
L 1036.8 28.512 
L 144 28.512 
z
" style="fill: #ffffff"/>
   </g>
   <g id="patch_3">
    <path d="M 144 199.485 
L 216.637473 199.485 
L 216.637473 198.891 
L 144 198.891 
z
" clip-path="url(#p026049cabb)" style="fill: #0000ff"/>
   </g>
   <g id="patch_4">
    <path d="M 218.773869 203.148 
L 564.870065 203.148 
L 564.870065 195.228 
L 218.773869 195.228 
z
" clip-path="url(#p026049cabb)" style="fill: #0000ff"/>
   </g>
   <g id="patch_5">
    <path d="M 231.592247 203.148 
L 549.915291 203.148 
L 549.915291 195.228 
L 231.592247 195.228 
z
" clip-path="url(#p026049cabb)" style="fill: #0000ff"/>
   </g>
   <g id="patch_6">
    <path d="M 278.592965 203.148 
L 475.141421 203.148 
L 475.141421 195.228 
L 278.592965 195.228 
z
" clip-path="url(#p026049cabb)" style="fill: #0000ff"/>
   </g>
   <g id="patch_7">
    <path d="M 295.684135 203.148 
L 502.914573 203.148 
L 502.914573 195.228 
L 295.684135 195.228 
z
" clip-path="url(#p026049cabb)" style="fill: #0000ff"/>
   </g>
   <g id="patch_8">
    <path d="M 295.684135 203.148 
L 502.914573 203.148 
L 502.914573 195.228 
L 295.684135 195.228 
z
" clip-path="url(#p026049cabb)" style="fill: #0000ff"/>
   </g>
   <g id="patch_9">
    <path d="M 302.093324 203.148 
L 464.45944 203.148 
L 464.45944 195.228 
L 302.093324 195.228 
z
" clip-path="url(#p026049cabb)" style="fill: #0000ff"/>
   </g>
   <g id="patch_10">
    <path d="M 304.22972 203.148 
L 470.868629 203.148 
L 470.868629 195.228 
L 304.22972 195.228 
z
" clip-path="url(#p026049cabb)" style="fill: #0000ff"/>
   </g>
   <g id="patch_11">
    <path d="M 306.366116 203.148 
L 475.141421 203.148 
L 475.141421 195.228 
L 306.366116 195.228 
z
" clip-path="url(#p026049cabb)" style="fill: #0000ff"/>
   </g>
   <g id="patch_12">
    <path d="M 308.502513 203.148 
L 477.277818 203.148 
L 477.277818 195.228 
L 308.502513 195.228 
z
" clip-path="url(#p026049cabb)" style="fill: #0000ff"/>
   </g>
   <g id="patch_13">
    <path d="M 310.638909 203.148 
L 477.277818 203.148 
L 477.277818 195.228 
L 310.638909 195.228 
z
" clip-path="url(#p026049cabb)" style="fill: #0000ff"/>
   </g>
   <g id="patch_14">
    <path d="M 317.048098 203.148 
L 479.414214 203.148 
L 479.414214 195.228 
L 317.048098 195.228 
z
" clip-path="url(#p026049cabb)" style="fill: #0000ff"/>
   </g>
   <g id="patch_15">
    <path d="M 317.048098 203.148 
L 479.414214 203.148 
L 479.414214 195.228 
L 317.048098 195.228 
z
" clip-path="url(#p026049cabb)" style="fill: #0000ff"/>
   </g>
   <g id="patch_16">
    <path d="M 317.048098 203.148 
L 483.687006 203.148 
L 483.687006 195.228 
L 317.048098 195.228 
z
" clip-path="url(#p026049cabb)" style="fill: #0000ff"/>
   </g>
   <g id="patch_17">
    <path d="M 317.048098 203.148 
L 470.868629 203.148 
L 470.868629 195.228 
L 317.048098 195.228 
z
" clip-path="url(#p026049cabb)" style="fill: #0000ff"/>
   </g>
   <g id="patch_18">
    <path d="M 317.048098 203.148 
L 477.277818 203.148 
L 477.277818 195.228 
L 317.048098 195.228 
z
" clip-path="url(#p026049cabb)" style="fill: #0000ff"/>
   </g>
   <g id="patch_19">
    <path d="M 317.048098 203.148 
L 477.277818 203.148 
L 477.277818 195.228 
L 317.048098 195.228 
z
" clip-path="url(#p026049cabb)" style="fill: #0000ff"/>
   </g>
   <g id="patch_20">
    <path d="M 319.184494 203.148 
L 473.005025 203.148 
L 473.005025 195.228 
L 319.184494 195.228 
z
" clip-path="url(#p026049cabb)" style="fill: #0000ff"/>
   </g>
   <g id="patch_21">
    <path d="M 319.184494 203.148 
L 479.414214 203.148 
L 479.414214 195.228 
L 319.184494 195.228 
z
" clip-path="url(#p026049cabb)" style="fill: #0000ff"/>
   </g>
   <g id="patch_22">
    <path d="M 321.32089 203.148 
L 485.823403 203.148 
L 485.823403 195.228 
L 321.32089 195.228 
z
" clip-path="url(#p026049cabb)" style="fill: #0000ff"/>
   </g>
   <g id="patch_23">
    <path d="M 321.32089 203.148 
L 475.141421 203.148 
L 475.141421 195.228 
L 321.32089 195.228 
z
" clip-path="url(#p026049cabb)" style="fill: #0000ff"/>
   </g>
   <g id="patch_24">
    <path d="M 323.457286 203.148 
L 502.914573 203.148 
L 502.914573 195.228 
L 323.457286 195.228 
z
" clip-path="url(#p026049cabb)" style="fill: #0000ff"/>
   </g>
   <g id="patch_25">
    <path d="M 144 179.685 
L 197.409907 179.685 
L 197.409907 179.091 
L 144 179.091 
z
" clip-path="url(#p026049cabb)" style="fill: #0000ff"/>
   </g>
   <g id="patch_26">
    <path d="M 199.546303 183.348 
L 383.276382 183.348 
L 383.276382 175.428 
L 199.546303 175.428 
z
" clip-path="url(#p026049cabb)" style="fill: #0000ff"/>
   </g>
   <g id="patch_27">
    <path d="M 227.319454 183.348 
L 379.003589 183.348 
L 379.003589 175.428 
L 227.319454 175.428 
z
" clip-path="url(#p026049cabb)" style="fill: #0000ff"/>
   </g>
   <g id="patch_28">
    <path d="M 227.319454 183.348 
L 404.640345 183.348 
L 404.640345 175.428 
L 227.319454 175.428 
z
" clip-path="url(#p026049cabb)" style="fill: #0000ff"/>
   </g>
   <g id="patch_29">
    <path d="M 229.455851 183.348 
L 419.595118 183.348 
L 419.595118 175.428 
L 229.455851 175.428 
z
" clip-path="url(#p026049cabb)" style="fill: #0000ff"/>
   </g>
   <g id="patch_30">
    <path d="M 231.592247 183.348 
L 396.09476 183.348 
L 396.09476 175.428 
L 231.592247 175.428 
z
" clip-path="url(#p026049cabb)" style="fill: #0000ff"/>
   </g>
   <g id="patch_31">
    <path d="M 235.865039 183.348 
L 423.867911 183.348 
L 423.867911 175.428 
L 235.865039 175.428 
z
" clip-path="url(#p026049cabb)" style="fill: #0000ff"/>
   </g>
   <g id="patch_32">
    <path d="M 238.001436 183.348 
L 396.09476 183.348 
L 396.09476 175.428 
L 238.001436 175.428 
z
" clip-path="url(#p026049cabb)" style="fill: #0000ff"/>
   </g>
   <g id="patch_33">
    <path d="M 240.137832 183.348 
L 462.323044 183.348 
L 462.323044 175.428 
L 240.137832 175.428 
z
" clip-path="url(#p026049cabb)" style="fill: #0000ff"/>
   </g>
   <g id="patch_34">
    <path d="M 240.137832 183.348 
L 440.959081 183.348 
L 440.959081 175.428 
L 240.137832 175.428 
z
" clip-path="url(#p026049cabb)" style="fill: #0000ff"/>
   </g>
   <g id="patch_35">
    <path d="M 244.410625 183.348 
L 423.867911 183.348 
L 423.867911 175.428 
L 244.410625 175.428 
z
" clip-path="url(#p026049cabb)" style="fill: #0000ff"/>
   </g>
   <g id="patch_36">
    <path d="M 246.547021 183.348 
L 404.640345 183.348 
L 404.640345 175.428 
L 246.547021 175.428 
z
" clip-path="url(#p026049cabb)" style="fill: #0000ff"/>
   </g>
   <g id="patch_37">
    <path d="M 248.683417 183.348 
L 421.731515 183.348 
L 421.731515 175.428 
L 248.683417 175.428 
z
" clip-path="url(#p026049cabb)" style="fill: #0000ff"/>
   </g>
   <g id="patch_38">
    <path d="M 248.683417 183.348 
L 436.686289 183.348 
L 436.686289 175.428 
L 248.683417 175.428 
z
" clip-path="url(#p026049cabb)" style="fill: #0000ff"/>
   </g>
   <g id="patch_39">
    <path d="M 248.683417 183.348 
L 423.867911 183.348 
L 423.867911 175.428 
L 248.683417 175.428 
z
" clip-path="url(#p026049cabb)" style="fill: #0000ff"/>
   </g>
   <g id="patch_40">
    <path d="M 248.683417 183.348 
L 396.09476 183.348 
L 396.09476 175.428 
L 248.683417 175.428 
z
" clip-path="url(#p026049cabb)" style="fill: #0000ff"/>
   </g>
   <g id="patch_41">
    <path d="M 248.683417 183.348 
L 434.549892 183.348 
L 434.549892 175.428 
L 248.683417 175.428 
z
" clip-path="url(#p026049cabb)" style="fill: #0000ff"/>
   </g>
   <g id="patch_42">
    <path d="M 248.683417 183.348 
L 396.09476 183.348 
L 396.09476 175.428 
L 248.683417 175.428 
z
" clip-path="url(#p026049cabb)" style="fill: #0000ff"/>
   </g>
   <g id="patch_43">
    <path d="M 255.092606 183.348 
L 391.821967 183.348 
L 391.821967 175.428 
L 255.092606 175.428 
z
" clip-path="url(#p026049cabb)" style="fill: #0000ff"/>
   </g>
   <g id="patch_44">
    <path d="M 255.092606 183.348 
L 396.09476 183.348 
L 396.09476 175.428 
L 255.092606 175.428 
z
" clip-path="url(#p026049cabb)" style="fill: #0000ff"/>
   </g>
   <g id="patch_45">
    <path d="M 255.092606 183.348 
L 406.776741 183.348 
L 406.776741 175.428 
L 255.092606 175.428 
z
" clip-path="url(#p026049cabb)" style="fill: #0000ff"/>
   </g>
   <g id="patch_46">
    <path d="M 255.092606 183.348 
L 389.685571 183.348 
L 389.685571 175.428 
L 255.092606 175.428 
z
" clip-path="url(#p026049cabb)" style="fill: #0000ff"/>
   </g>
   <g id="patch_47">
    <path d="M 255.092606 183.348 
L 389.685571 183.348 
L 389.685571 175.428 
L 255.092606 175.428 
z
" clip-path="url(#p026049cabb)" style="fill: #0000ff"/>
   </g>
   <g id="patch_48">
    <path d="M 255.092606 183.348 
L 396.09476 183.348 
L 396.09476 175.428 
L 255.092606 175.428 
z
" clip-path="url(#p026049cabb)" style="fill: #0000ff"/>
   </g>
   <g id="patch_49">
    <path d="M 255.092606 183.348 
L 406.776741 183.348 
L 406.776741 175.428 
L 255.092606 175.428 
z
" clip-path="url(#p026049cabb)" style="fill: #0000ff"/>
   </g>
   <g id="patch_50">
    <path d="M 255.092606 183.348 
L 389.685571 183.348 
L 389.685571 175.428 
L 255.092606 175.428 
z
" clip-path="url(#p026049cabb)" style="fill: #0000ff"/>
   </g>
   <g id="patch_51">
    <path d="M 257.229002 183.348 
L 387.549174 183.348 
L 387.549174 175.428 
L 257.229002 175.428 
z
" clip-path="url(#p026049cabb)" style="fill: #0000ff"/>
   </g>
   <g id="patch_52">
    <path d="M 259.365398 183.348 
L 396.09476 183.348 
L 396.09476 175.428 
L 259.365398 175.428 
z
" clip-path="url(#p026049cabb)" style="fill: #0000ff"/>
   </g>
   <g id="patch_53">
    <path d="M 259.365398 183.348 
L 400.367552 183.348 
L 400.367552 175.428 
L 259.365398 175.428 
z
" clip-path="url(#p026049cabb)" style="fill: #0000ff"/>
   </g>
   <g id="patch_54">
    <path d="M 267.910983 183.348 
L 389.685571 183.348 
L 389.685571 175.428 
L 267.910983 175.428 
z
" clip-path="url(#p026049cabb)" style="fill: #0000ff"/>
   </g>
   <g id="patch_55">
    <path d="M 267.910983 183.348 
L 396.09476 183.348 
L 396.09476 175.428 
L 267.910983 175.428 
z
" clip-path="url(#p026049cabb)" style="fill: #0000ff"/>
   </g>
   <g id="patch_56">
    <path d="M 272.183776 183.348 
L 393.958363 183.348 
L 393.958363 175.428 
L 272.183776 175.428 
z
" clip-path="url(#p026049cabb)" style="fill: #0000ff"/>
   </g>
   <g id="patch_57">
    <path d="M 274.320172 183.348 
L 366.185212 183.348 
L 366.185212 175.428 
L 274.320172 175.428 
z
" clip-path="url(#p026049cabb)" style="fill: #0000ff"/>
   </g>
   <g id="patch_58">
    <path d="M 274.320172 183.348 
L 406.776741 183.348 
L 406.776741 175.428 
L 274.320172 175.428 
z
" clip-path="url(#p026049cabb)" style="fill: #0000ff"/>
   </g>
   <g id="patch_59">
    <path d="M 276.456569 183.348 
L 406.776741 183.348 
L 406.776741 175.428 
L 276.456569 175.428 
z
" clip-path="url(#p026049cabb)" style="fill: #0000ff"/>
   </g>
   <g id="patch_60">
    <path d="M 276.456569 183.348 
L 389.685571 183.348 
L 389.685571 175.428 
L 276.456569 175.428 
z
" clip-path="url(#p026049cabb)" style="fill: #0000ff"/>
   </g>
   <g id="patch_61">
    <path d="M 276.456569 183.348 
L 396.09476 183.348 
L 396.09476 175.428 
L 276.456569 175.428 
z
" clip-path="url(#p026049cabb)" style="fill: #0000ff"/>
   </g>
   <g id="patch_62">
    <path d="M 276.456569 183.348 
L 426.004307 183.348 
L 426.004307 175.428 
L 276.456569 175.428 
z
" clip-path="url(#p026049cabb)" style="fill: #0000ff"/>
   </g>
   <g id="patch_63">
    <path d="M 276.456569 183.348 
L 400.367552 183.348 
L 400.367552 175.428 
L 276.456569 175.428 
z
" clip-path="url(#p026049cabb)" style="fill: #0000ff"/>
   </g>
   <g id="patch_64">
    <path d="M 276.456569 183.348 
L 423.867911 183.348 
L 423.867911 175.428 
L 276.456569 175.428 
z
" clip-path="url(#p026049cabb)" style="fill: #0000ff"/>
   </g>
   <g id="patch_65">
    <path d="M 276.456569 183.348 
L 404.640345 183.348 
L 404.640345 175.428 
L 276.456569 175.428 
z
" clip-path="url(#p026049cabb)" style="fill: #0000ff"/>
   </g>
   <g id="patch_66">
    <path d="M 293.547739 183.348 
L 364.048816 183.348 
L 364.048816 175.428 
L 293.547739 175.428 
z
" clip-path="url(#p026049cabb)" style="fill: #0000ff"/>
   </g>
   <g id="patch_67">
    <path d="M 464.45944 179.685 
L 479.414214 179.685 
L 479.414214 179.091 
L 464.45944 179.091 
z
" clip-path="url(#p026049cabb)" style="fill: #0000ff"/>
   </g>
   <g id="patch_68">
    <path d="M 144 159.885 
L 148.272793 159.885 
L 148.272793 159.291 
L 144 159.291 
z
" clip-path="url(#p026049cabb)" style="fill: #0000ff"/>
   </g>
   <g id="patch_69">
    <path d="M 150.409189 163.548 
L 372.594401 163.548 
L 372.594401 155.628 
L 150.409189 155.628 
z
" clip-path="url(#p026049cabb)" style="fill: #0000ff"/>
   </g>
   <g id="patch_70">
    <path d="M 156.818378 163.548 
L 374.730797 163.548 
L 374.730797 155.628 
L 156.818378 155.628 
z
" clip-path="url(#p026049cabb)" style="fill: #0000ff"/>
   </g>
   <g id="patch_71">
    <path d="M 178.18234 163.548 
L 385.412778 163.548 
L 385.412778 155.628 
L 178.18234 155.628 
z
" clip-path="url(#p026049cabb)" style="fill: #0000ff"/>
   </g>
   <g id="patch_72">
    <path d="M 180.318737 163.548 
L 368.321608 163.548 
L 368.321608 155.628 
L 180.318737 155.628 
z
" clip-path="url(#p026049cabb)" style="fill: #0000ff"/>
   </g>
   <g id="patch_73">
    <path d="M 180.318737 163.548 
L 374.730797 163.548 
L 374.730797 155.628 
L 180.318737 155.628 
z
" clip-path="url(#p026049cabb)" style="fill: #0000ff"/>
   </g>
   <g id="patch_74">
    <path d="M 186.727925 163.548 
L 374.730797 163.548 
L 374.730797 155.628 
L 186.727925 155.628 
z
" clip-path="url(#p026049cabb)" style="fill: #0000ff"/>
   </g>
   <g id="patch_75">
    <path d="M 186.727925 163.548 
L 379.003589 163.548 
L 379.003589 155.628 
L 186.727925 155.628 
z
" clip-path="url(#p026049cabb)" style="fill: #0000ff"/>
   </g>
   <g id="patch_76">
    <path d="M 186.727925 163.548 
L 340.548457 163.548 
L 340.548457 155.628 
L 186.727925 155.628 
z
" clip-path="url(#p026049cabb)" style="fill: #0000ff"/>
   </g>
   <g id="patch_77">
    <path d="M 188.864322 163.548 
L 368.321608 163.548 
L 368.321608 155.628 
L 188.864322 155.628 
z
" clip-path="url(#p026049cabb)" style="fill: #0000ff"/>
   </g>
   <g id="patch_78">
    <path d="M 188.864322 163.548 
L 374.730797 163.548 
L 374.730797 155.628 
L 188.864322 155.628 
z
" clip-path="url(#p026049cabb)" style="fill: #0000ff"/>
   </g>
   <g id="patch_79">
    <path d="M 188.864322 163.548 
L 344.821249 163.548 
L 344.821249 155.628 
L 188.864322 155.628 
z
" clip-path="url(#p026049cabb)" style="fill: #0000ff"/>
   </g>
   <g id="patch_80">
    <path d="M 191.000718 163.548 
L 372.594401 163.548 
L 372.594401 155.628 
L 191.000718 155.628 
z
" clip-path="url(#p026049cabb)" style="fill: #0000ff"/>
   </g>
   <g id="patch_81">
    <path d="M 191.000718 163.548 
L 374.730797 163.548 
L 374.730797 155.628 
L 191.000718 155.628 
z
" clip-path="url(#p026049cabb)" style="fill: #0000ff"/>
   </g>
   <g id="patch_82">
    <path d="M 191.000718 163.548 
L 355.50323 163.548 
L 355.50323 155.628 
L 191.000718 155.628 
z
" clip-path="url(#p026049cabb)" style="fill: #0000ff"/>
   </g>
   <g id="patch_83">
    <path d="M 191.000718 163.548 
L 368.321608 163.548 
L 368.321608 155.628 
L 191.000718 155.628 
z
" clip-path="url(#p026049cabb)" style="fill: #0000ff"/>
   </g>
   <g id="patch_84">
    <path d="M 193.137114 163.548 
L 372.594401 163.548 
L 372.594401 155.628 
L 193.137114 155.628 
z
" clip-path="url(#p026049cabb)" style="fill: #0000ff"/>
   </g>
   <g id="patch_85">
    <path d="M 193.137114 163.548 
L 374.730797 163.548 
L 374.730797 155.628 
L 193.137114 155.628 
z
" clip-path="url(#p026049cabb)" style="fill: #0000ff"/>
   </g>
   <g id="patch_86">
    <path d="M 195.27351 163.548 
L 376.867193 163.548 
L 376.867193 155.628 
L 195.27351 155.628 
z
" clip-path="url(#p026049cabb)" style="fill: #0000ff"/>
   </g>
   <g id="patch_87">
    <path d="M 197.409907 163.548 
L 353.366834 163.548 
L 353.366834 155.628 
L 197.409907 155.628 
z
" clip-path="url(#p026049cabb)" style="fill: #0000ff"/>
   </g>
   <g id="patch_88">
    <path d="M 201.682699 163.548 
L 349.094042 163.548 
L 349.094042 155.628 
L 201.682699 155.628 
z
" clip-path="url(#p026049cabb)" style="fill: #0000ff"/>
   </g>
   <g id="patch_89">
    <path d="M 212.364681 163.548 
L 372.594401 163.548 
L 372.594401 155.628 
L 212.364681 155.628 
z
" clip-path="url(#p026049cabb)" style="fill: #0000ff"/>
   </g>
   <g id="patch_90">
    <path d="M 212.364681 163.548 
L 374.730797 163.548 
L 374.730797 155.628 
L 212.364681 155.628 
z
" clip-path="url(#p026049cabb)" style="fill: #0000ff"/>
   </g>
   <g id="patch_91">
    <path d="M 214.501077 163.548 
L 368.321608 163.548 
L 368.321608 155.628 
L 214.501077 155.628 
z
" clip-path="url(#p026049cabb)" style="fill: #0000ff"/>
   </g>
   <g id="patch_92">
    <path d="M 216.637473 163.548 
L 368.321608 163.548 
L 368.321608 155.628 
L 216.637473 155.628 
z
" clip-path="url(#p026049cabb)" style="fill: #0000ff"/>
   </g>
   <g id="patch_93">
    <path d="M 218.773869 163.548 
L 370.458004 163.548 
L 370.458004 155.628 
L 218.773869 155.628 
z
" clip-path="url(#p026049cabb)" style="fill: #0000ff"/>
   </g>
   <g id="patch_94">
    <path d="M 220.910266 163.548 
L 370.458004 163.548 
L 370.458004 155.628 
L 220.910266 155.628 
z
" clip-path="url(#p026049cabb)" style="fill: #0000ff"/>
   </g>
   <g id="patch_95">
    <path d="M 220.910266 163.548 
L 353.366834 163.548 
L 353.366834 155.628 
L 220.910266 155.628 
z
" clip-path="url(#p026049cabb)" style="fill: #0000ff"/>
   </g>
   <g id="patch_96">
    <path d="M 225.183058 163.548 
L 374.730797 163.548 
L 374.730797 155.628 
L 225.183058 155.628 
z
" clip-path="url(#p026049cabb)" style="fill: #0000ff"/>
   </g>
   <g id="patch_97">
    <path d="M 229.455851 163.548 
L 361.912419 163.548 
L 361.912419 155.628 
L 229.455851 155.628 
z
" clip-path="url(#p026049cabb)" style="fill: #0000ff"/>
   </g>
   <g id="patch_98">
    <path d="M 229.455851 163.548 
L 357.639627 163.548 
L 357.639627 155.628 
L 229.455851 155.628 
z
" clip-path="url(#p026049cabb)" style="fill: #0000ff"/>
   </g>
   <g id="patch_99">
    <path d="M 229.455851 163.548 
L 374.730797 163.548 
L 374.730797 155.628 
L 229.455851 155.628 
z
" clip-path="url(#p026049cabb)" style="fill: #0000ff"/>
   </g>
   <g id="patch_100">
    <path d="M 233.728643 163.548 
L 379.003589 163.548 
L 379.003589 155.628 
L 233.728643 155.628 
z
" clip-path="url(#p026049cabb)" style="fill: #0000ff"/>
   </g>
   <g id="patch_101">
    <path d="M 233.728643 163.548 
L 368.321608 163.548 
L 368.321608 155.628 
L 233.728643 155.628 
z
" clip-path="url(#p026049cabb)" style="fill: #0000ff"/>
   </g>
   <g id="patch_102">
    <path d="M 235.865039 163.548 
L 381.139986 163.548 
L 381.139986 155.628 
L 235.865039 155.628 
z
" clip-path="url(#p026049cabb)" style="fill: #0000ff"/>
   </g>
   <g id="patch_103">
    <path d="M 235.865039 163.548 
L 351.230438 163.548 
L 351.230438 155.628 
L 235.865039 155.628 
z
" clip-path="url(#p026049cabb)" style="fill: #0000ff"/>
   </g>
   <g id="patch_104">
    <path d="M 235.865039 163.548 
L 372.594401 163.548 
L 372.594401 155.628 
L 235.865039 155.628 
z
" clip-path="url(#p026049cabb)" style="fill: #0000ff"/>
   </g>
   <g id="patch_105">
    <path d="M 235.865039 163.548 
L 368.321608 163.548 
L 368.321608 155.628 
L 235.865039 155.628 
z
" clip-path="url(#p026049cabb)" style="fill: #0000ff"/>
   </g>
   <g id="patch_106">
    <path d="M 235.865039 163.548 
L 372.594401 163.548 
L 372.594401 155.628 
L 235.865039 155.628 
z
" clip-path="url(#p026049cabb)" style="fill: #0000ff"/>
   </g>
   <g id="patch_107">
    <path d="M 235.865039 163.548 
L 368.321608 163.548 
L 368.321608 155.628 
L 235.865039 155.628 
z
" clip-path="url(#p026049cabb)" style="fill: #0000ff"/>
   </g>
   <g id="patch_108">
    <path d="M 235.865039 163.548 
L 355.50323 163.548 
L 355.50323 155.628 
L 235.865039 155.628 
z
" clip-path="url(#p026049cabb)" style="fill: #0000ff"/>
   </g>
   <g id="patch_109">
    <path d="M 240.137832 163.548 
L 372.594401 163.548 
L 372.594401 155.628 
L 240.137832 155.628 
z
" clip-path="url(#p026049cabb)" style="fill: #0000ff"/>
   </g>
   <g id="patch_110">
    <path d="M 242.274228 163.548 
L 346.957645 163.548 
L 346.957645 155.628 
L 242.274228 155.628 
z
" clip-path="url(#p026049cabb)" style="fill: #0000ff"/>
   </g>
   <g id="patch_111">
    <path d="M 255.092606 163.548 
L 372.594401 163.548 
L 372.594401 155.628 
L 255.092606 155.628 
z
" clip-path="url(#p026049cabb)" style="fill: #0000ff"/>
   </g>
   <g id="patch_112">
    <path d="M 255.092606 163.548 
L 379.003589 163.548 
L 379.003589 155.628 
L 255.092606 155.628 
z
" clip-path="url(#p026049cabb)" style="fill: #0000ff"/>
   </g>
   <g id="patch_113">
    <path d="M 257.229002 163.548 
L 379.003589 163.548 
L 379.003589 155.628 
L 257.229002 155.628 
z
" clip-path="url(#p026049cabb)" style="fill: #0000ff"/>
   </g>
   <g id="patch_114">
    <path d="M 144 140.085 
L 227.319454 140.085 
L 227.319454 139.491 
L 144 139.491 
z
" clip-path="url(#p026049cabb)" style="fill: #0000ff"/>
   </g>
   <g id="patch_115">
    <path d="M 229.455851 143.748 
L 485.823403 143.748 
L 485.823403 135.828 
L 229.455851 135.828 
z
" clip-path="url(#p026049cabb)" style="fill: #0000ff"/>
   </g>
   <g id="patch_116">
    <path d="M 238.001436 143.748 
L 445.231874 143.748 
L 445.231874 135.828 
L 238.001436 135.828 
z
" clip-path="url(#p026049cabb)" style="fill: #0000ff"/>
   </g>
   <g id="patch_117">
    <path d="M 272.183776 143.748 
L 445.231874 143.748 
L 445.231874 135.828 
L 272.183776 135.828 
z
" clip-path="url(#p026049cabb)" style="fill: #0000ff"/>
   </g>
   <g id="patch_118">
    <path d="M 272.183776 143.748 
L 445.231874 143.748 
L 445.231874 135.828 
L 272.183776 135.828 
z
" clip-path="url(#p026049cabb)" style="fill: #0000ff"/>
   </g>
   <g id="patch_119">
    <path d="M 285.002154 143.748 
L 453.777459 143.748 
L 453.777459 135.828 
L 285.002154 135.828 
z
" clip-path="url(#p026049cabb)" style="fill: #0000ff"/>
   </g>
   <g id="patch_120">
    <path d="M 285.002154 143.748 
L 460.186648 143.748 
L 460.186648 135.828 
L 285.002154 135.828 
z
" clip-path="url(#p026049cabb)" style="fill: #0000ff"/>
   </g>
   <g id="patch_121">
    <path d="M 289.274946 143.748 
L 434.549892 143.748 
L 434.549892 135.828 
L 289.274946 135.828 
z
" clip-path="url(#p026049cabb)" style="fill: #0000ff"/>
   </g>
   <g id="patch_122">
    <path d="M 297.820531 143.748 
L 445.231874 143.748 
L 445.231874 135.828 
L 297.820531 135.828 
z
" clip-path="url(#p026049cabb)" style="fill: #0000ff"/>
   </g>
   <g id="patch_123">
    <path d="M 308.502513 143.748 
L 430.2771 143.748 
L 430.2771 135.828 
L 308.502513 135.828 
z
" clip-path="url(#p026049cabb)" style="fill: #0000ff"/>
   </g>
   <g id="patch_124">
    <path d="M 312.775305 143.748 
L 432.413496 143.748 
L 432.413496 135.828 
L 312.775305 135.828 
z
" clip-path="url(#p026049cabb)" style="fill: #0000ff"/>
   </g>
   <g id="patch_125">
    <path d="M 312.775305 143.748 
L 445.231874 143.748 
L 445.231874 135.828 
L 312.775305 135.828 
z
" clip-path="url(#p026049cabb)" style="fill: #0000ff"/>
   </g>
   <g id="patch_126">
    <path d="M 314.911701 143.748 
L 470.868629 143.748 
L 470.868629 135.828 
L 314.911701 135.828 
z
" clip-path="url(#p026049cabb)" style="fill: #0000ff"/>
   </g>
   <g id="patch_127">
    <path d="M 314.911701 143.748 
L 432.413496 143.748 
L 432.413496 135.828 
L 314.911701 135.828 
z
" clip-path="url(#p026049cabb)" style="fill: #0000ff"/>
   </g>
   <g id="patch_128">
    <path d="M 314.911701 143.748 
L 451.641062 143.748 
L 451.641062 135.828 
L 314.911701 135.828 
z
" clip-path="url(#p026049cabb)" style="fill: #0000ff"/>
   </g>
   <g id="patch_129">
    <path d="M 317.048098 143.748 
L 432.413496 143.748 
L 432.413496 135.828 
L 317.048098 135.828 
z
" clip-path="url(#p026049cabb)" style="fill: #0000ff"/>
   </g>
   <g id="patch_130">
    <path d="M 321.32089 143.748 
L 432.413496 143.748 
L 432.413496 135.828 
L 321.32089 135.828 
z
" clip-path="url(#p026049cabb)" style="fill: #0000ff"/>
   </g>
   <g id="patch_131">
    <path d="M 321.32089 143.748 
L 432.413496 143.748 
L 432.413496 135.828 
L 321.32089 135.828 
z
" clip-path="url(#p026049cabb)" style="fill: #0000ff"/>
   </g>
   <g id="patch_132">
    <path d="M 323.457286 143.748 
L 447.36827 143.748 
L 447.36827 135.828 
L 323.457286 135.828 
z
" clip-path="url(#p026049cabb)" style="fill: #0000ff"/>
   </g>
   <g id="patch_133">
    <path d="M 325.593683 143.748 
L 432.413496 143.748 
L 432.413496 135.828 
L 325.593683 135.828 
z
" clip-path="url(#p026049cabb)" style="fill: #0000ff"/>
   </g>
   <g id="patch_134">
    <path d="M 327.730079 143.748 
L 445.231874 143.748 
L 445.231874 135.828 
L 327.730079 135.828 
z
" clip-path="url(#p026049cabb)" style="fill: #0000ff"/>
   </g>
   <g id="patch_135">
    <path d="M 327.730079 143.748 
L 432.413496 143.748 
L 432.413496 135.828 
L 327.730079 135.828 
z
" clip-path="url(#p026049cabb)" style="fill: #0000ff"/>
   </g>
   <g id="patch_136">
    <path d="M 327.730079 143.748 
L 445.231874 143.748 
L 445.231874 135.828 
L 327.730079 135.828 
z
" clip-path="url(#p026049cabb)" style="fill: #0000ff"/>
   </g>
   <g id="patch_137">
    <path d="M 327.730079 143.748 
L 432.413496 143.748 
L 432.413496 135.828 
L 327.730079 135.828 
z
" clip-path="url(#p026049cabb)" style="fill: #0000ff"/>
   </g>
   <g id="patch_138">
    <path d="M 327.730079 143.748 
L 449.504666 143.748 
L 449.504666 135.828 
L 327.730079 135.828 
z
" clip-path="url(#p026049cabb)" style="fill: #0000ff"/>
   </g>
   <g id="patch_139">
    <path d="M 332.002872 143.748 
L 432.413496 143.748 
L 432.413496 135.828 
L 332.002872 135.828 
z
" clip-path="url(#p026049cabb)" style="fill: #0000ff"/>
   </g>
   <g id="patch_140">
    <path d="M 487.959799 140.085 
L 490.096195 140.085 
L 490.096195 139.491 
L 487.959799 139.491 
z
" clip-path="url(#p026049cabb)" style="fill: #0000ff"/>
   </g>
   <g id="patch_141">
    <path d="M 144 120.285 
L 154.681981 120.285 
L 154.681981 119.691 
L 144 119.691 
z
" clip-path="url(#p026049cabb)" style="fill: #0000ff"/>
   </g>
   <g id="patch_142">
    <path d="M 156.818378 123.948 
L 379.003589 123.948 
L 379.003589 116.028 
L 156.818378 116.028 
z
" clip-path="url(#p026049cabb)" style="fill: #0000ff"/>
   </g>
   <g id="patch_143">
    <path d="M 158.954774 123.948 
L 385.412778 123.948 
L 385.412778 116.028 
L 158.954774 116.028 
z
" clip-path="url(#p026049cabb)" style="fill: #0000ff"/>
   </g>
   <g id="patch_144">
    <path d="M 158.954774 123.948 
L 336.275664 123.948 
L 336.275664 116.028 
L 158.954774 116.028 
z
" clip-path="url(#p026049cabb)" style="fill: #0000ff"/>
   </g>
   <g id="patch_145">
    <path d="M 193.137114 123.948 
L 372.594401 123.948 
L 372.594401 116.028 
L 193.137114 116.028 
z
" clip-path="url(#p026049cabb)" style="fill: #0000ff"/>
   </g>
   <g id="patch_146">
    <path d="M 195.27351 123.948 
L 379.003589 123.948 
L 379.003589 116.028 
L 195.27351 116.028 
z
" clip-path="url(#p026049cabb)" style="fill: #0000ff"/>
   </g>
   <g id="patch_147">
    <path d="M 195.27351 123.948 
L 379.003589 123.948 
L 379.003589 116.028 
L 195.27351 116.028 
z
" clip-path="url(#p026049cabb)" style="fill: #0000ff"/>
   </g>
   <g id="patch_148">
    <path d="M 195.27351 123.948 
L 381.139986 123.948 
L 381.139986 116.028 
L 195.27351 116.028 
z
" clip-path="url(#p026049cabb)" style="fill: #0000ff"/>
   </g>
   <g id="patch_149">
    <path d="M 197.409907 123.948 
L 349.094042 123.948 
L 349.094042 116.028 
L 197.409907 116.028 
z
" clip-path="url(#p026049cabb)" style="fill: #0000ff"/>
   </g>
   <g id="patch_150">
    <path d="M 199.546303 123.948 
L 376.867193 123.948 
L 376.867193 116.028 
L 199.546303 116.028 
z
" clip-path="url(#p026049cabb)" style="fill: #0000ff"/>
   </g>
   <g id="patch_151">
    <path d="M 199.546303 123.948 
L 379.003589 123.948 
L 379.003589 116.028 
L 199.546303 116.028 
z
" clip-path="url(#p026049cabb)" style="fill: #0000ff"/>
   </g>
   <g id="patch_152">
    <path d="M 201.682699 123.948 
L 379.003589 123.948 
L 379.003589 116.028 
L 201.682699 116.028 
z
" clip-path="url(#p026049cabb)" style="fill: #0000ff"/>
   </g>
   <g id="patch_153">
    <path d="M 201.682699 123.948 
L 379.003589 123.948 
L 379.003589 116.028 
L 201.682699 116.028 
z
" clip-path="url(#p026049cabb)" style="fill: #0000ff"/>
   </g>
   <g id="patch_154">
    <path d="M 203.819095 123.948 
L 379.003589 123.948 
L 379.003589 116.028 
L 203.819095 116.028 
z
" clip-path="url(#p026049cabb)" style="fill: #0000ff"/>
   </g>
   <g id="patch_155">
    <path d="M 208.091888 123.948 
L 396.09476 123.948 
L 396.09476 116.028 
L 208.091888 116.028 
z
" clip-path="url(#p026049cabb)" style="fill: #0000ff"/>
   </g>
   <g id="patch_156">
    <path d="M 208.091888 123.948 
L 396.09476 123.948 
L 396.09476 116.028 
L 208.091888 116.028 
z
" clip-path="url(#p026049cabb)" style="fill: #0000ff"/>
   </g>
   <g id="patch_157">
    <path d="M 212.364681 123.948 
L 376.867193 123.948 
L 376.867193 116.028 
L 212.364681 116.028 
z
" clip-path="url(#p026049cabb)" style="fill: #0000ff"/>
   </g>
   <g id="patch_158">
    <path d="M 214.501077 123.948 
L 398.231156 123.948 
L 398.231156 116.028 
L 214.501077 116.028 
z
" clip-path="url(#p026049cabb)" style="fill: #0000ff"/>
   </g>
   <g id="patch_159">
    <path d="M 218.773869 123.948 
L 357.639627 123.948 
L 357.639627 116.028 
L 218.773869 116.028 
z
" clip-path="url(#p026049cabb)" style="fill: #0000ff"/>
   </g>
   <g id="patch_160">
    <path d="M 218.773869 123.948 
L 376.867193 123.948 
L 376.867193 116.028 
L 218.773869 116.028 
z
" clip-path="url(#p026049cabb)" style="fill: #0000ff"/>
   </g>
   <g id="patch_161">
    <path d="M 220.910266 123.948 
L 376.867193 123.948 
L 376.867193 116.028 
L 220.910266 116.028 
z
" clip-path="url(#p026049cabb)" style="fill: #0000ff"/>
   </g>
   <g id="patch_162">
    <path d="M 223.046662 123.948 
L 372.594401 123.948 
L 372.594401 116.028 
L 223.046662 116.028 
z
" clip-path="url(#p026049cabb)" style="fill: #0000ff"/>
   </g>
   <g id="patch_163">
    <path d="M 223.046662 123.948 
L 402.503948 123.948 
L 402.503948 116.028 
L 223.046662 116.028 
z
" clip-path="url(#p026049cabb)" style="fill: #0000ff"/>
   </g>
   <g id="patch_164">
    <path d="M 223.046662 123.948 
L 379.003589 123.948 
L 379.003589 116.028 
L 223.046662 116.028 
z
" clip-path="url(#p026049cabb)" style="fill: #0000ff"/>
   </g>
   <g id="patch_165">
    <path d="M 223.046662 123.948 
L 372.594401 123.948 
L 372.594401 116.028 
L 223.046662 116.028 
z
" clip-path="url(#p026049cabb)" style="fill: #0000ff"/>
   </g>
   <g id="patch_166">
    <path d="M 225.183058 123.948 
L 398.231156 123.948 
L 398.231156 116.028 
L 225.183058 116.028 
z
" clip-path="url(#p026049cabb)" style="fill: #0000ff"/>
   </g>
   <g id="patch_167">
    <path d="M 225.183058 123.948 
L 376.867193 123.948 
L 376.867193 116.028 
L 225.183058 116.028 
z
" clip-path="url(#p026049cabb)" style="fill: #0000ff"/>
   </g>
   <g id="patch_168">
    <path d="M 227.319454 123.948 
L 376.867193 123.948 
L 376.867193 116.028 
L 227.319454 116.028 
z
" clip-path="url(#p026049cabb)" style="fill: #0000ff"/>
   </g>
   <g id="patch_169">
    <path d="M 229.455851 123.948 
L 368.321608 123.948 
L 368.321608 116.028 
L 229.455851 116.028 
z
" clip-path="url(#p026049cabb)" style="fill: #0000ff"/>
   </g>
   <g id="patch_170">
    <path d="M 233.728643 123.948 
L 381.139986 123.948 
L 381.139986 116.028 
L 233.728643 116.028 
z
" clip-path="url(#p026049cabb)" style="fill: #0000ff"/>
   </g>
   <g id="patch_171">
    <path d="M 235.865039 123.948 
L 376.867193 123.948 
L 376.867193 116.028 
L 235.865039 116.028 
z
" clip-path="url(#p026049cabb)" style="fill: #0000ff"/>
   </g>
   <g id="patch_172">
    <path d="M 238.001436 123.948 
L 376.867193 123.948 
L 376.867193 116.028 
L 238.001436 116.028 
z
" clip-path="url(#p026049cabb)" style="fill: #0000ff"/>
   </g>
   <g id="patch_173">
    <path d="M 238.001436 123.948 
L 389.685571 123.948 
L 389.685571 116.028 
L 238.001436 116.028 
z
" clip-path="url(#p026049cabb)" style="fill: #0000ff"/>
   </g>
   <g id="patch_174">
    <path d="M 238.001436 123.948 
L 379.003589 123.948 
L 379.003589 116.028 
L 238.001436 116.028 
z
" clip-path="url(#p026049cabb)" style="fill: #0000ff"/>
   </g>
   <g id="patch_175">
    <path d="M 242.274228 123.948 
L 379.003589 123.948 
L 379.003589 116.028 
L 242.274228 116.028 
z
" clip-path="url(#p026049cabb)" style="fill: #0000ff"/>
   </g>
   <g id="patch_176">
    <path d="M 242.274228 123.948 
L 379.003589 123.948 
L 379.003589 116.028 
L 242.274228 116.028 
z
" clip-path="url(#p026049cabb)" style="fill: #0000ff"/>
   </g>
   <g id="patch_177">
    <path d="M 244.410625 123.948 
L 368.321608 123.948 
L 368.321608 116.028 
L 244.410625 116.028 
z
" clip-path="url(#p026049cabb)" style="fill: #0000ff"/>
   </g>
   <g id="patch_178">
    <path d="M 244.410625 123.948 
L 393.958363 123.948 
L 393.958363 116.028 
L 244.410625 116.028 
z
" clip-path="url(#p026049cabb)" style="fill: #0000ff"/>
   </g>
   <g id="patch_179">
    <path d="M 244.410625 123.948 
L 376.867193 123.948 
L 376.867193 116.028 
L 244.410625 116.028 
z
" clip-path="url(#p026049cabb)" style="fill: #0000ff"/>
   </g>
   <g id="patch_180">
    <path d="M 246.547021 123.948 
L 381.139986 123.948 
L 381.139986 116.028 
L 246.547021 116.028 
z
" clip-path="url(#p026049cabb)" style="fill: #0000ff"/>
   </g>
   <g id="patch_181">
    <path d="M 248.683417 123.948 
L 379.003589 123.948 
L 379.003589 116.028 
L 248.683417 116.028 
z
" clip-path="url(#p026049cabb)" style="fill: #0000ff"/>
   </g>
   <g id="patch_182">
    <path d="M 267.910983 123.948 
L 376.867193 123.948 
L 376.867193 116.028 
L 267.910983 116.028 
z
" clip-path="url(#p026049cabb)" style="fill: #0000ff"/>
   </g>
   <g id="patch_183">
    <path d="M 267.910983 123.948 
L 376.867193 123.948 
L 376.867193 116.028 
L 267.910983 116.028 
z
" clip-path="url(#p026049cabb)" style="fill: #0000ff"/>
   </g>
   <g id="patch_184">
    <path d="M 404.640345 120.285 
L 404.640345 120.285 
L 404.640345 119.691 
L 404.640345 119.691 
z
" clip-path="url(#p026049cabb)" style="fill: #0000ff"/>
   </g>
   <g id="patch_185">
    <path d="M 144 100.485 
L 218.773869 100.485 
L 218.773869 99.891 
L 144 99.891 
z
" clip-path="url(#p026049cabb)" style="fill: #0000ff"/>
   </g>
   <g id="patch_186">
    <path d="M 220.910266 104.148 
L 477.277818 104.148 
L 477.277818 96.228 
L 220.910266 96.228 
z
" clip-path="url(#p026049cabb)" style="fill: #0000ff"/>
   </g>
   <g id="patch_187">
    <path d="M 246.547021 104.148 
L 451.641062 104.148 
L 451.641062 96.228 
L 246.547021 96.228 
z
" clip-path="url(#p026049cabb)" style="fill: #0000ff"/>
   </g>
   <g id="patch_188">
    <path d="M 259.365398 104.148 
L 436.686289 104.148 
L 436.686289 96.228 
L 259.365398 96.228 
z
" clip-path="url(#p026049cabb)" style="fill: #0000ff"/>
   </g>
   <g id="patch_189">
    <path d="M 263.638191 104.148 
L 434.549892 104.148 
L 434.549892 96.228 
L 263.638191 96.228 
z
" clip-path="url(#p026049cabb)" style="fill: #0000ff"/>
   </g>
   <g id="patch_190">
    <path d="M 274.320172 104.148 
L 430.2771 104.148 
L 430.2771 96.228 
L 274.320172 96.228 
z
" clip-path="url(#p026049cabb)" style="fill: #0000ff"/>
   </g>
   <g id="patch_191">
    <path d="M 274.320172 104.148 
L 421.731515 104.148 
L 421.731515 96.228 
L 274.320172 96.228 
z
" clip-path="url(#p026049cabb)" style="fill: #0000ff"/>
   </g>
   <g id="patch_192">
    <path d="M 274.320172 104.148 
L 449.504666 104.148 
L 449.504666 96.228 
L 274.320172 96.228 
z
" clip-path="url(#p026049cabb)" style="fill: #0000ff"/>
   </g>
   <g id="patch_193">
    <path d="M 289.274946 104.148 
L 451.641062 104.148 
L 451.641062 96.228 
L 289.274946 96.228 
z
" clip-path="url(#p026049cabb)" style="fill: #0000ff"/>
   </g>
   <g id="patch_194">
    <path d="M 289.274946 104.148 
L 522.142139 104.148 
L 522.142139 96.228 
L 289.274946 96.228 
z
" clip-path="url(#p026049cabb)" style="fill: #0000ff"/>
   </g>
   <g id="patch_195">
    <path d="M 295.684135 104.148 
L 445.231874 104.148 
L 445.231874 96.228 
L 295.684135 96.228 
z
" clip-path="url(#p026049cabb)" style="fill: #0000ff"/>
   </g>
   <g id="patch_196">
    <path d="M 297.820531 104.148 
L 445.231874 104.148 
L 445.231874 96.228 
L 297.820531 96.228 
z
" clip-path="url(#p026049cabb)" style="fill: #0000ff"/>
   </g>
   <g id="patch_197">
    <path d="M 302.093324 104.148 
L 490.096195 104.148 
L 490.096195 96.228 
L 302.093324 96.228 
z
" clip-path="url(#p026049cabb)" style="fill: #0000ff"/>
   </g>
   <g id="patch_198">
    <path d="M 302.093324 104.148 
L 490.096195 104.148 
L 490.096195 96.228 
L 302.093324 96.228 
z
" clip-path="url(#p026049cabb)" style="fill: #0000ff"/>
   </g>
   <g id="patch_199">
    <path d="M 306.366116 104.148 
L 434.549892 104.148 
L 434.549892 96.228 
L 306.366116 96.228 
z
" clip-path="url(#p026049cabb)" style="fill: #0000ff"/>
   </g>
   <g id="patch_200">
    <path d="M 312.775305 104.148 
L 462.323044 104.148 
L 462.323044 96.228 
L 312.775305 96.228 
z
" clip-path="url(#p026049cabb)" style="fill: #0000ff"/>
   </g>
   <g id="patch_201">
    <path d="M 312.775305 104.148 
L 453.777459 104.148 
L 453.777459 96.228 
L 312.775305 96.228 
z
" clip-path="url(#p026049cabb)" style="fill: #0000ff"/>
   </g>
   <g id="patch_202">
    <path d="M 312.775305 104.148 
L 421.731515 104.148 
L 421.731515 96.228 
L 312.775305 96.228 
z
" clip-path="url(#p026049cabb)" style="fill: #0000ff"/>
   </g>
   <g id="patch_203">
    <path d="M 312.775305 104.148 
L 436.686289 104.148 
L 436.686289 96.228 
L 312.775305 96.228 
z
" clip-path="url(#p026049cabb)" style="fill: #0000ff"/>
   </g>
   <g id="patch_204">
    <path d="M 319.184494 104.148 
L 419.595118 104.148 
L 419.595118 96.228 
L 319.184494 96.228 
z
" clip-path="url(#p026049cabb)" style="fill: #0000ff"/>
   </g>
   <g id="patch_205">
    <path d="M 321.32089 104.148 
L 449.504666 104.148 
L 449.504666 96.228 
L 321.32089 96.228 
z
" clip-path="url(#p026049cabb)" style="fill: #0000ff"/>
   </g>
   <g id="patch_206">
    <path d="M 321.32089 104.148 
L 462.323044 104.148 
L 462.323044 96.228 
L 321.32089 96.228 
z
" clip-path="url(#p026049cabb)" style="fill: #0000ff"/>
   </g>
   <g id="patch_207">
    <path d="M 323.457286 104.148 
L 451.641062 104.148 
L 451.641062 96.228 
L 323.457286 96.228 
z
" clip-path="url(#p026049cabb)" style="fill: #0000ff"/>
   </g>
   <g id="patch_208">
    <path d="M 325.593683 104.148 
L 451.641062 104.148 
L 451.641062 96.228 
L 325.593683 96.228 
z
" clip-path="url(#p026049cabb)" style="fill: #0000ff"/>
   </g>
   <g id="patch_209">
    <path d="M 325.593683 104.148 
L 423.867911 104.148 
L 423.867911 96.228 
L 325.593683 96.228 
z
" clip-path="url(#p026049cabb)" style="fill: #0000ff"/>
   </g>
   <g id="patch_210">
    <path d="M 524.278536 100.485 
L 530.687724 100.485 
L 530.687724 99.891 
L 524.278536 99.891 
z
" clip-path="url(#p026049cabb)" style="fill: #0000ff"/>
   </g>
   <g id="patch_211">
    <path d="M 144 80.685 
L 173.909548 80.685 
L 173.909548 80.091 
L 144 80.091 
z
" clip-path="url(#p026049cabb)" style="fill: #0000ff"/>
   </g>
   <g id="patch_212">
    <path d="M 176.045944 84.348 
L 408.913137 84.348 
L 408.913137 76.428 
L 176.045944 76.428 
z
" clip-path="url(#p026049cabb)" style="fill: #0000ff"/>
   </g>
   <g id="patch_213">
    <path d="M 180.318737 84.348 
L 391.821967 84.348 
L 391.821967 76.428 
L 180.318737 76.428 
z
" clip-path="url(#p026049cabb)" style="fill: #0000ff"/>
   </g>
   <g id="patch_214">
    <path d="M 193.137114 84.348 
L 406.776741 84.348 
L 406.776741 76.428 
L 193.137114 76.428 
z
" clip-path="url(#p026049cabb)" style="fill: #0000ff"/>
   </g>
   <g id="patch_215">
    <path d="M 197.409907 84.348 
L 419.595118 84.348 
L 419.595118 76.428 
L 197.409907 76.428 
z
" clip-path="url(#p026049cabb)" style="fill: #0000ff"/>
   </g>
   <g id="patch_216">
    <path d="M 208.091888 84.348 
L 385.412778 84.348 
L 385.412778 76.428 
L 208.091888 76.428 
z
" clip-path="url(#p026049cabb)" style="fill: #0000ff"/>
   </g>
   <g id="patch_217">
    <path d="M 212.364681 84.348 
L 481.55061 84.348 
L 481.55061 76.428 
L 212.364681 76.428 
z
" clip-path="url(#p026049cabb)" style="fill: #0000ff"/>
   </g>
   <g id="patch_218">
    <path d="M 212.364681 84.348 
L 391.821967 84.348 
L 391.821967 76.428 
L 212.364681 76.428 
z
" clip-path="url(#p026049cabb)" style="fill: #0000ff"/>
   </g>
   <g id="patch_219">
    <path d="M 214.501077 84.348 
L 381.139986 84.348 
L 381.139986 76.428 
L 214.501077 76.428 
z
" clip-path="url(#p026049cabb)" style="fill: #0000ff"/>
   </g>
   <g id="patch_220">
    <path d="M 216.637473 84.348 
L 376.867193 84.348 
L 376.867193 76.428 
L 216.637473 76.428 
z
" clip-path="url(#p026049cabb)" style="fill: #0000ff"/>
   </g>
   <g id="patch_221">
    <path d="M 220.910266 84.348 
L 381.139986 84.348 
L 381.139986 76.428 
L 220.910266 76.428 
z
" clip-path="url(#p026049cabb)" style="fill: #0000ff"/>
   </g>
   <g id="patch_222">
    <path d="M 223.046662 84.348 
L 426.004307 84.348 
L 426.004307 76.428 
L 223.046662 76.428 
z
" clip-path="url(#p026049cabb)" style="fill: #0000ff"/>
   </g>
   <g id="patch_223">
    <path d="M 225.183058 84.348 
L 387.549174 84.348 
L 387.549174 76.428 
L 225.183058 76.428 
z
" clip-path="url(#p026049cabb)" style="fill: #0000ff"/>
   </g>
   <g id="patch_224">
    <path d="M 235.865039 84.348 
L 391.821967 84.348 
L 391.821967 76.428 
L 235.865039 76.428 
z
" clip-path="url(#p026049cabb)" style="fill: #0000ff"/>
   </g>
   <g id="patch_225">
    <path d="M 240.137832 84.348 
L 381.139986 84.348 
L 381.139986 76.428 
L 240.137832 76.428 
z
" clip-path="url(#p026049cabb)" style="fill: #0000ff"/>
   </g>
   <g id="patch_226">
    <path d="M 244.410625 84.348 
L 387.549174 84.348 
L 387.549174 76.428 
L 244.410625 76.428 
z
" clip-path="url(#p026049cabb)" style="fill: #0000ff"/>
   </g>
   <g id="patch_227">
    <path d="M 244.410625 84.348 
L 396.09476 84.348 
L 396.09476 76.428 
L 244.410625 76.428 
z
" clip-path="url(#p026049cabb)" style="fill: #0000ff"/>
   </g>
   <g id="patch_228">
    <path d="M 244.410625 84.348 
L 402.503948 84.348 
L 402.503948 76.428 
L 244.410625 76.428 
z
" clip-path="url(#p026049cabb)" style="fill: #0000ff"/>
   </g>
   <g id="patch_229">
    <path d="M 244.410625 84.348 
L 391.821967 84.348 
L 391.821967 76.428 
L 244.410625 76.428 
z
" clip-path="url(#p026049cabb)" style="fill: #0000ff"/>
   </g>
   <g id="patch_230">
    <path d="M 244.410625 84.348 
L 428.140704 84.348 
L 428.140704 76.428 
L 244.410625 76.428 
z
" clip-path="url(#p026049cabb)" style="fill: #0000ff"/>
   </g>
   <g id="patch_231">
    <path d="M 244.410625 84.348 
L 391.821967 84.348 
L 391.821967 76.428 
L 244.410625 76.428 
z
" clip-path="url(#p026049cabb)" style="fill: #0000ff"/>
   </g>
   <g id="patch_232">
    <path d="M 244.410625 84.348 
L 393.958363 84.348 
L 393.958363 76.428 
L 244.410625 76.428 
z
" clip-path="url(#p026049cabb)" style="fill: #0000ff"/>
   </g>
   <g id="patch_233">
    <path d="M 246.547021 84.348 
L 387.549174 84.348 
L 387.549174 76.428 
L 246.547021 76.428 
z
" clip-path="url(#p026049cabb)" style="fill: #0000ff"/>
   </g>
   <g id="patch_234">
    <path d="M 250.819813 84.348 
L 426.004307 84.348 
L 426.004307 76.428 
L 250.819813 76.428 
z
" clip-path="url(#p026049cabb)" style="fill: #0000ff"/>
   </g>
   <g id="patch_235">
    <path d="M 272.183776 84.348 
L 381.139986 84.348 
L 381.139986 76.428 
L 272.183776 76.428 
z
" clip-path="url(#p026049cabb)" style="fill: #0000ff"/>
   </g>
   <g id="patch_236">
    <path d="M 280.729361 84.348 
L 391.821967 84.348 
L 391.821967 76.428 
L 280.729361 76.428 
z
" clip-path="url(#p026049cabb)" style="fill: #0000ff"/>
   </g>
   <g id="patch_237">
    <path d="M 285.002154 84.348 
L 387.549174 84.348 
L 387.549174 76.428 
L 285.002154 76.428 
z
" clip-path="url(#p026049cabb)" style="fill: #0000ff"/>
   </g>
   <g id="patch_238">
    <path d="M 483.687006 80.685 
L 528.551328 80.685 
L 528.551328 80.091 
L 483.687006 80.091 
z
" clip-path="url(#p026049cabb)" style="fill: #0000ff"/>
   </g>
   <g id="patch_239">
    <path d="M 144 60.885 
L 291.411342 60.885 
L 291.411342 60.291 
L 144 60.291 
z
" clip-path="url(#p026049cabb)" style="fill: #0000ff"/>
   </g>
   <g id="patch_240">
    <path d="M 293.547739 64.548 
L 460.186648 64.548 
L 460.186648 56.628 
L 293.547739 56.628 
z
" clip-path="url(#p026049cabb)" style="fill: #0000ff"/>
   </g>
   <g id="patch_241">
    <path d="M 293.547739 64.548 
L 445.231874 64.548 
L 445.231874 56.628 
L 293.547739 56.628 
z
" clip-path="url(#p026049cabb)" style="fill: #0000ff"/>
   </g>
   <g id="patch_242">
    <path d="M 293.547739 64.548 
L 445.231874 64.548 
L 445.231874 56.628 
L 293.547739 56.628 
z
" clip-path="url(#p026049cabb)" style="fill: #0000ff"/>
   </g>
   <g id="patch_243">
    <path d="M 295.684135 64.548 
L 498.64178 64.548 
L 498.64178 56.628 
L 295.684135 56.628 
z
" clip-path="url(#p026049cabb)" style="fill: #0000ff"/>
   </g>
   <g id="patch_244">
    <path d="M 295.684135 64.548 
L 477.277818 64.548 
L 477.277818 56.628 
L 295.684135 56.628 
z
" clip-path="url(#p026049cabb)" style="fill: #0000ff"/>
   </g>
   <g id="patch_245">
    <path d="M 297.820531 64.548 
L 460.186648 64.548 
L 460.186648 56.628 
L 297.820531 56.628 
z
" clip-path="url(#p026049cabb)" style="fill: #0000ff"/>
   </g>
   <g id="patch_246">
    <path d="M 299.956927 64.548 
L 458.050251 64.548 
L 458.050251 56.628 
L 299.956927 56.628 
z
" clip-path="url(#p026049cabb)" style="fill: #0000ff"/>
   </g>
   <g id="patch_247">
    <path d="M 302.093324 64.548 
L 460.186648 64.548 
L 460.186648 56.628 
L 302.093324 56.628 
z
" clip-path="url(#p026049cabb)" style="fill: #0000ff"/>
   </g>
   <g id="patch_248">
    <path d="M 308.502513 64.548 
L 468.732233 64.548 
L 468.732233 56.628 
L 308.502513 56.628 
z
" clip-path="url(#p026049cabb)" style="fill: #0000ff"/>
   </g>
   <g id="patch_249">
    <path d="M 310.638909 64.548 
L 466.595836 64.548 
L 466.595836 56.628 
L 310.638909 56.628 
z
" clip-path="url(#p026049cabb)" style="fill: #0000ff"/>
   </g>
   <g id="patch_250">
    <path d="M 500.778177 60.885 
L 994.285714 60.885 
L 994.285714 60.291 
L 500.778177 60.291 
z
" clip-path="url(#p026049cabb)" style="fill: #0000ff"/>
   </g>
   <g id="patch_251">
    <path d="M 144 41.085 
L 184.591529 41.085 
L 184.591529 40.491 
L 144 40.491 
z
" clip-path="url(#p026049cabb)" style="fill: #0000ff"/>
   </g>
   <g id="patch_252">
    <path d="M 186.727925 44.748 
L 479.414214 44.748 
L 479.414214 36.828 
L 186.727925 36.828 
z
" clip-path="url(#p026049cabb)" style="fill: #0000ff"/>
   </g>
   <g id="patch_253">
    <path d="M 225.183058 44.748 
L 406.776741 44.748 
L 406.776741 36.828 
L 225.183058 36.828 
z
" clip-path="url(#p026049cabb)" style="fill: #0000ff"/>
   </g>
   <g id="patch_254">
    <path d="M 240.137832 44.748 
L 398.231156 44.748 
L 398.231156 36.828 
L 240.137832 36.828 
z
" clip-path="url(#p026049cabb)" style="fill: #0000ff"/>
   </g>
   <g id="patch_255">
    <path d="M 272.183776 44.748 
L 436.686289 44.748 
L 436.686289 36.828 
L 272.183776 36.828 
z
" clip-path="url(#p026049cabb)" style="fill: #0000ff"/>
   </g>
   <g id="patch_256">
    <path d="M 272.183776 44.748 
L 417.458722 44.748 
L 417.458722 36.828 
L 272.183776 36.828 
z
" clip-path="url(#p026049cabb)" style="fill: #0000ff"/>
   </g>
   <g id="patch_257">
    <path d="M 272.183776 44.748 
L 417.458722 44.748 
L 417.458722 36.828 
L 272.183776 36.828 
z
" clip-path="url(#p026049cabb)" style="fill: #0000ff"/>
   </g>
   <g id="patch_258">
    <path d="M 276.456569 44.748 
L 417.458722 44.748 
L 417.458722 36.828 
L 276.456569 36.828 
z
" clip-path="url(#p026049cabb)" style="fill: #0000ff"/>
   </g>
   <g id="patch_259">
    <path d="M 276.456569 44.748 
L 419.595118 44.748 
L 419.595118 36.828 
L 276.456569 36.828 
z
" clip-path="url(#p026049cabb)" style="fill: #0000ff"/>
   </g>
   <g id="patch_260">
    <path d="M 276.456569 44.748 
L 406.776741 44.748 
L 406.776741 36.828 
L 276.456569 36.828 
z
" clip-path="url(#p026049cabb)" style="fill: #0000ff"/>
   </g>
   <g id="patch_261">
    <path d="M 276.456569 44.748 
L 417.458722 44.748 
L 417.458722 36.828 
L 276.456569 36.828 
z
" clip-path="url(#p026049cabb)" style="fill: #0000ff"/>
   </g>
   <g id="patch_262">
    <path d="M 276.456569 44.748 
L 423.867911 44.748 
L 423.867911 36.828 
L 276.456569 36.828 
z
" clip-path="url(#p026049cabb)" style="fill: #0000ff"/>
   </g>
   <g id="patch_263">
    <path d="M 276.456569 44.748 
L 406.776741 44.748 
L 406.776741 36.828 
L 276.456569 36.828 
z
" clip-path="url(#p026049cabb)" style="fill: #0000ff"/>
   </g>
   <g id="patch_264">
    <path d="M 278.592965 44.748 
L 434.549892 44.748 
L 434.549892 36.828 
L 278.592965 36.828 
z
" clip-path="url(#p026049cabb)" style="fill: #0000ff"/>
   </g>
   <g id="patch_265">
    <path d="M 278.592965 44.748 
L 428.140704 44.748 
L 428.140704 36.828 
L 278.592965 36.828 
z
" clip-path="url(#p026049cabb)" style="fill: #0000ff"/>
   </g>
   <g id="patch_266">
    <path d="M 278.592965 44.748 
L 417.458722 44.748 
L 417.458722 36.828 
L 278.592965 36.828 
z
" clip-path="url(#p026049cabb)" style="fill: #0000ff"/>
   </g>
   <g id="patch_267">
    <path d="M 278.592965 44.748 
L 406.776741 44.748 
L 406.776741 36.828 
L 278.592965 36.828 
z
" clip-path="url(#p026049cabb)" style="fill: #0000ff"/>
   </g>
   <g id="patch_268">
    <path d="M 278.592965 44.748 
L 430.2771 44.748 
L 430.2771 36.828 
L 278.592965 36.828 
z
" clip-path="url(#p026049cabb)" style="fill: #0000ff"/>
   </g>
   <g id="patch_269">
    <path d="M 278.592965 44.748 
L 417.458722 44.748 
L 417.458722 36.828 
L 278.592965 36.828 
z
" clip-path="url(#p026049cabb)" style="fill: #0000ff"/>
   </g>
   <g id="patch_270">
    <path d="M 278.592965 44.748 
L 398.231156 44.748 
L 398.231156 36.828 
L 278.592965 36.828 
z
" clip-path="url(#p026049cabb)" style="fill: #0000ff"/>
   </g>
   <g id="patch_271">
    <path d="M 278.592965 44.748 
L 406.776741 44.748 
L 406.776741 36.828 
L 278.592965 36.828 
z
" clip-path="url(#p026049cabb)" style="fill: #0000ff"/>
   </g>
   <g id="patch_272">
    <path d="M 280.729361 44.748 
L 607.59799 44.748 
L 607.59799 36.828 
L 280.729361 36.828 
z
" clip-path="url(#p026049cabb)" style="fill: #0000ff"/>
   </g>
   <g id="patch_273">
    <path d="M 282.865757 44.748 
L 398.231156 44.748 
L 398.231156 36.828 
L 282.865757 36.828 
z
" clip-path="url(#p026049cabb)" style="fill: #0000ff"/>
   </g>
   <g id="patch_274">
    <path d="M 282.865757 44.748 
L 402.503948 44.748 
L 402.503948 36.828 
L 282.865757 36.828 
z
" clip-path="url(#p026049cabb)" style="fill: #0000ff"/>
   </g>
   <g id="patch_275">
    <path d="M 293.547739 44.748 
L 417.458722 44.748 
L 417.458722 36.828 
L 293.547739 36.828 
z
" clip-path="url(#p026049cabb)" style="fill: #0000ff"/>
   </g>
   <g id="patch_276">
    <path d="M 293.547739 44.748 
L 492.232592 44.748 
L 492.232592 36.828 
L 293.547739 36.828 
z
" clip-path="url(#p026049cabb)" style="fill: #0000ff"/>
   </g>
   <g id="patch_277">
    <path d="M 295.684135 44.748 
L 385.412778 44.748 
L 385.412778 36.828 
L 295.684135 36.828 
z
" clip-path="url(#p026049cabb)" style="fill: #0000ff"/>
   </g>
   <g id="patch_278">
    <path d="M 297.820531 44.748 
L 404.640345 44.748 
L 404.640345 36.828 
L 297.820531 36.828 
z
" clip-path="url(#p026049cabb)" style="fill: #0000ff"/>
   </g>
   <g id="patch_279">
    <path d="M 609.734386 41.085 
L 710.145011 41.085 
L 710.145011 40.491 
L 609.734386 40.491 
z
" clip-path="url(#p026049cabb)" style="fill: #0000ff"/>
   </g>
   <g id="matplotlib.axis_1">
    <g id="xtick_1">
     <g id="line2d_1">
      <defs>
       <path id="m684de4e23c" d="M 0 0 
L 0 3.5 
" style="stroke: #000000; stroke-width: 0.8"/>
      </defs>
      <g>
       <use xlink:href="#m684de4e23c" x="248.683417" y="211.464" style="stroke: #000000; stroke-width: 0.8"/>
      </g>
     </g>
     <g id="text_1">
      <!-- 50 -->
      <g transform="translate(242.320917 226.062437) scale(0.1 -0.1)">
       <defs>
        <path id="DejaVuSans-35" d="M 691 4666 
L 3169 4666 
L 3169 4134 
L 1269 4134 
L 1269 2991 
Q 1406 3038 1543 3061 
Q 1681 3084 1819 3084 
Q 2600 3084 3056 2656 
Q 3513 2228 3513 1497 
Q 3513 744 3044 326 
Q 2575 -91 1722 -91 
Q 1428 -91 1123 -41 
Q 819 9 494 109 
L 494 744 
Q 775 591 1075 516 
Q 1375 441 1709 441 
Q 2250 441 2565 725 
Q 2881 1009 2881 1497 
Q 2881 1984 2565 2268 
Q 2250 2553 1709 2553 
Q 1456 2553 1204 2497 
Q 953 2441 691 2322 
L 691 4666 
z
" transform="scale(0.015625)"/>
        <path id="DejaVuSans-30" d="M 2034 4250 
Q 1547 4250 1301 3770 
Q 1056 3291 1056 2328 
Q 1056 1369 1301 889 
Q 1547 409 2034 409 
Q 2525 409 2770 889 
Q 3016 1369 3016 2328 
Q 3016 3291 2770 3770 
Q 2525 4250 2034 4250 
z
M 2034 4750 
Q 2819 4750 3233 4129 
Q 3647 3509 3647 2328 
Q 3647 1150 3233 529 
Q 2819 -91 2034 -91 
Q 1250 -91 836 529 
Q 422 1150 422 2328 
Q 422 3509 836 4129 
Q 1250 4750 2034 4750 
z
" transform="scale(0.015625)"/>
       </defs>
       <use xlink:href="#DejaVuSans-35"/>
       <use xlink:href="#DejaVuSans-30" x="63.623047"/>
      </g>
     </g>
    </g>
    <g id="xtick_2">
     <g id="line2d_2">
      <g>
       <use xlink:href="#m684de4e23c" x="355.50323" y="211.464" style="stroke: #000000; stroke-width: 0.8"/>
      </g>
     </g>
     <g id="text_2">
      <!-- 100 -->
      <g transform="translate(345.95948 226.062437) scale(0.1 -0.1)">
       <defs>
        <path id="DejaVuSans-31" d="M 794 531 
L 1825 531 
L 1825 4091 
L 703 3866 
L 703 4441 
L 1819 4666 
L 2450 4666 
L 2450 531 
L 3481 531 
L 3481 0 
L 794 0 
L 794 531 
z
" transform="scale(0.015625)"/>
       </defs>
       <use xlink:href="#DejaVuSans-31"/>
       <use xlink:href="#DejaVuSans-30" x="63.623047"/>
       <use xlink:href="#DejaVuSans-30" x="127.246094"/>
      </g>
     </g>
    </g>
    <g id="xtick_3">
     <g id="line2d_3">
      <g>
       <use xlink:href="#m684de4e23c" x="462.323044" y="211.464" style="stroke: #000000; stroke-width: 0.8"/>
      </g>
     </g>
     <g id="text_3">
      <!-- 150 -->
      <g transform="translate(452.779294 226.062437) scale(0.1 -0.1)">
       <use xlink:href="#DejaVuSans-31"/>
       <use xlink:href="#DejaVuSans-35" x="63.623047"/>
       <use xlink:href="#DejaVuSans-30" x="127.246094"/>
      </g>
     </g>
    </g>
    <g id="xtick_4">
     <g id="line2d_4">
      <g>
       <use xlink:href="#m684de4e23c" x="569.142857" y="211.464" style="stroke: #000000; stroke-width: 0.8"/>
      </g>
     </g>
     <g id="text_4">
      <!-- 200 -->
      <g transform="translate(559.599107 226.062437) scale(0.1 -0.1)">
       <defs>
        <path id="DejaVuSans-32" d="M 1228 531 
L 3431 531 
L 3431 0 
L 469 0 
L 469 531 
Q 828 903 1448 1529 
Q 2069 2156 2228 2338 
Q 2531 2678 2651 2914 
Q 2772 3150 2772 3378 
Q 2772 3750 2511 3984 
Q 2250 4219 1831 4219 
Q 1534 4219 1204 4116 
Q 875 4013 500 3803 
L 500 4441 
Q 881 4594 1212 4672 
Q 1544 4750 1819 4750 
Q 2544 4750 2975 4387 
Q 3406 4025 3406 3419 
Q 3406 3131 3298 2873 
Q 3191 2616 2906 2266 
Q 2828 2175 2409 1742 
Q 1991 1309 1228 531 
z
" transform="scale(0.015625)"/>
       </defs>
       <use xlink:href="#DejaVuSans-32"/>
       <use xlink:href="#DejaVuSans-30" x="63.623047"/>
       <use xlink:href="#DejaVuSans-30" x="127.246094"/>
      </g>
     </g>
    </g>
    <g id="xtick_5">
     <g id="line2d_5">
      <g>
       <use xlink:href="#m684de4e23c" x="675.96267" y="211.464" style="stroke: #000000; stroke-width: 0.8"/>
      </g>
     </g>
     <g id="text_5">
      <!-- 250 -->
      <g transform="translate(666.41892 226.062437) scale(0.1 -0.1)">
       <use xlink:href="#DejaVuSans-32"/>
       <use xlink:href="#DejaVuSans-35" x="63.623047"/>
       <use xlink:href="#DejaVuSans-30" x="127.246094"/>
      </g>
     </g>
    </g>
    <g id="xtick_6">
     <g id="line2d_6">
      <g>
       <use xlink:href="#m684de4e23c" x="782.782484" y="211.464" style="stroke: #000000; stroke-width: 0.8"/>
      </g>
     </g>
     <g id="text_6">
      <!-- 300 -->
      <g transform="translate(773.238734 226.062437) scale(0.1 -0.1)">
       <defs>
        <path id="DejaVuSans-33" d="M 2597 2516 
Q 3050 2419 3304 2112 
Q 3559 1806 3559 1356 
Q 3559 666 3084 287 
Q 2609 -91 1734 -91 
Q 1441 -91 1130 -33 
Q 819 25 488 141 
L 488 750 
Q 750 597 1062 519 
Q 1375 441 1716 441 
Q 2309 441 2620 675 
Q 2931 909 2931 1356 
Q 2931 1769 2642 2001 
Q 2353 2234 1838 2234 
L 1294 2234 
L 1294 2753 
L 1863 2753 
Q 2328 2753 2575 2939 
Q 2822 3125 2822 3475 
Q 2822 3834 2567 4026 
Q 2313 4219 1838 4219 
Q 1578 4219 1281 4162 
Q 984 4106 628 3988 
L 628 4550 
Q 988 4650 1302 4700 
Q 1616 4750 1894 4750 
Q 2613 4750 3031 4423 
Q 3450 4097 3450 3541 
Q 3450 3153 3228 2886 
Q 3006 2619 2597 2516 
z
" transform="scale(0.015625)"/>
       </defs>
       <use xlink:href="#DejaVuSans-33"/>
       <use xlink:href="#DejaVuSans-30" x="63.623047"/>
       <use xlink:href="#DejaVuSans-30" x="127.246094"/>
      </g>
     </g>
    </g>
    <g id="xtick_7">
     <g id="line2d_7">
      <g>
       <use xlink:href="#m684de4e23c" x="889.602297" y="211.464" style="stroke: #000000; stroke-width: 0.8"/>
      </g>
     </g>
     <g id="text_7">
      <!-- 350 -->
      <g transform="translate(880.058547 226.062437) scale(0.1 -0.1)">
       <use xlink:href="#DejaVuSans-33"/>
       <use xlink:href="#DejaVuSans-35" x="63.623047"/>
       <use xlink:href="#DejaVuSans-30" x="127.246094"/>
      </g>
     </g>
    </g>
    <g id="xtick_8">
     <g id="line2d_8">
      <g>
       <use xlink:href="#m684de4e23c" x="996.422111" y="211.464" style="stroke: #000000; stroke-width: 0.8"/>
      </g>
     </g>
     <g id="text_8">
      <!-- 400 -->
      <g transform="translate(986.878361 226.062437) scale(0.1 -0.1)">
       <defs>
        <path id="DejaVuSans-34" d="M 2419 4116 
L 825 1625 
L 2419 1625 
L 2419 4116 
z
M 2253 4666 
L 3047 4666 
L 3047 1625 
L 3713 1625 
L 3713 1100 
L 3047 1100 
L 3047 0 
L 2419 0 
L 2419 1100 
L 313 1100 
L 313 1709 
L 2253 4666 
z
" transform="scale(0.015625)"/>
       </defs>
       <use xlink:href="#DejaVuSans-34"/>
       <use xlink:href="#DejaVuSans-30" x="63.623047"/>
       <use xlink:href="#DejaVuSans-30" x="127.246094"/>
      </g>
     </g>
    </g>
    <g id="text_9">
     <!-- Residual -->
     <g transform="translate(569.284375 239.740563) scale(0.1 -0.1)">
      <defs>
       <path id="DejaVuSans-52" d="M 2841 2188 
Q 3044 2119 3236 1894 
Q 3428 1669 3622 1275 
L 4263 0 
L 3584 0 
L 2988 1197 
Q 2756 1666 2539 1819 
Q 2322 1972 1947 1972 
L 1259 1972 
L 1259 0 
L 628 0 
L 628 4666 
L 2053 4666 
Q 2853 4666 3247 4331 
Q 3641 3997 3641 3322 
Q 3641 2881 3436 2590 
Q 3231 2300 2841 2188 
z
M 1259 4147 
L 1259 2491 
L 2053 2491 
Q 2509 2491 2742 2702 
Q 2975 2913 2975 3322 
Q 2975 3731 2742 3939 
Q 2509 4147 2053 4147 
L 1259 4147 
z
" transform="scale(0.015625)"/>
       <path id="DejaVuSans-65" d="M 3597 1894 
L 3597 1613 
L 953 1613 
Q 991 1019 1311 708 
Q 1631 397 2203 397 
Q 2534 397 2845 478 
Q 3156 559 3463 722 
L 3463 178 
Q 3153 47 2828 -22 
Q 2503 -91 2169 -91 
Q 1331 -91 842 396 
Q 353 884 353 1716 
Q 353 2575 817 3079 
Q 1281 3584 2069 3584 
Q 2775 3584 3186 3129 
Q 3597 2675 3597 1894 
z
M 3022 2063 
Q 3016 2534 2758 2815 
Q 2500 3097 2075 3097 
Q 1594 3097 1305 2825 
Q 1016 2553 972 2059 
L 3022 2063 
z
" transform="scale(0.015625)"/>
       <path id="DejaVuSans-73" d="M 2834 3397 
L 2834 2853 
Q 2591 2978 2328 3040 
Q 2066 3103 1784 3103 
Q 1356 3103 1142 2972 
Q 928 2841 928 2578 
Q 928 2378 1081 2264 
Q 1234 2150 1697 2047 
L 1894 2003 
Q 2506 1872 2764 1633 
Q 3022 1394 3022 966 
Q 3022 478 2636 193 
Q 2250 -91 1575 -91 
Q 1294 -91 989 -36 
Q 684 19 347 128 
L 347 722 
Q 666 556 975 473 
Q 1284 391 1588 391 
Q 1994 391 2212 530 
Q 2431 669 2431 922 
Q 2431 1156 2273 1281 
Q 2116 1406 1581 1522 
L 1381 1569 
Q 847 1681 609 1914 
Q 372 2147 372 2553 
Q 372 3047 722 3315 
Q 1072 3584 1716 3584 
Q 2034 3584 2315 3537 
Q 2597 3491 2834 3397 
z
" transform="scale(0.015625)"/>
       <path id="DejaVuSans-69" d="M 603 3500 
L 1178 3500 
L 1178 0 
L 603 0 
L 603 3500 
z
M 603 4863 
L 1178 4863 
L 1178 4134 
L 603 4134 
L 603 4863 
z
" transform="scale(0.015625)"/>
       <path id="DejaVuSans-64" d="M 2906 2969 
L 2906 4863 
L 3481 4863 
L 3481 0 
L 2906 0 
L 2906 525 
Q 2725 213 2448 61 
Q 2172 -91 1784 -91 
Q 1150 -91 751 415 
Q 353 922 353 1747 
Q 353 2572 751 3078 
Q 1150 3584 1784 3584 
Q 2172 3584 2448 3432 
Q 2725 3281 2906 2969 
z
M 947 1747 
Q 947 1113 1208 752 
Q 1469 391 1925 391 
Q 2381 391 2643 752 
Q 2906 1113 2906 1747 
Q 2906 2381 2643 2742 
Q 2381 3103 1925 3103 
Q 1469 3103 1208 2742 
Q 947 2381 947 1747 
z
" transform="scale(0.015625)"/>
       <path id="DejaVuSans-75" d="M 544 1381 
L 544 3500 
L 1119 3500 
L 1119 1403 
Q 1119 906 1312 657 
Q 1506 409 1894 409 
Q 2359 409 2629 706 
Q 2900 1003 2900 1516 
L 2900 3500 
L 3475 3500 
L 3475 0 
L 2900 0 
L 2900 538 
Q 2691 219 2414 64 
Q 2138 -91 1772 -91 
Q 1169 -91 856 284 
Q 544 659 544 1381 
z
M 1991 3584 
L 1991 3584 
z
" transform="scale(0.015625)"/>
       <path id="DejaVuSans-61" d="M 2194 1759 
Q 1497 1759 1228 1600 
Q 959 1441 959 1056 
Q 959 750 1161 570 
Q 1363 391 1709 391 
Q 2188 391 2477 730 
Q 2766 1069 2766 1631 
L 2766 1759 
L 2194 1759 
z
M 3341 1997 
L 3341 0 
L 2766 0 
L 2766 531 
Q 2569 213 2275 61 
Q 1981 -91 1556 -91 
Q 1019 -91 701 211 
Q 384 513 384 1019 
Q 384 1609 779 1909 
Q 1175 2209 1959 2209 
L 2766 2209 
L 2766 2266 
Q 2766 2663 2505 2880 
Q 2244 3097 1772 3097 
Q 1472 3097 1187 3025 
Q 903 2953 641 2809 
L 641 3341 
Q 956 3463 1253 3523 
Q 1550 3584 1831 3584 
Q 2591 3584 2966 3190 
Q 3341 2797 3341 1997 
z
" transform="scale(0.015625)"/>
       <path id="DejaVuSans-6c" d="M 603 4863 
L 1178 4863 
L 1178 0 
L 603 0 
L 603 4863 
z
" transform="scale(0.015625)"/>
      </defs>
      <use xlink:href="#DejaVuSans-52"/>
      <use xlink:href="#DejaVuSans-65" x="64.982422"/>
      <use xlink:href="#DejaVuSans-73" x="126.505859"/>
      <use xlink:href="#DejaVuSans-69" x="178.605469"/>
      <use xlink:href="#DejaVuSans-64" x="206.388672"/>
      <use xlink:href="#DejaVuSans-75" x="269.865234"/>
      <use xlink:href="#DejaVuSans-61" x="333.244141"/>
      <use xlink:href="#DejaVuSans-6c" x="394.523438"/>
     </g>
    </g>
   </g>
   <g id="matplotlib.axis_2">
    <g id="ytick_1">
     <g id="line2d_9">
      <defs>
       <path id="m575b8ed664" d="M 0 0 
L -3.5 0 
" style="stroke: #000000; stroke-width: 0.8"/>
      </defs>
      <g>
       <use xlink:href="#m575b8ed664" x="144" y="199.188" style="stroke: #000000; stroke-width: 0.8"/>
      </g>
     </g>
     <g id="text_10">
      <!-- 9.B.443.1.1 -->
      <g transform="translate(79.251563 202.987219) scale(0.1 -0.1)">
       <defs>
        <path id="DejaVuSans-39" d="M 703 97 
L 703 672 
Q 941 559 1184 500 
Q 1428 441 1663 441 
Q 2288 441 2617 861 
Q 2947 1281 2994 2138 
Q 2813 1869 2534 1725 
Q 2256 1581 1919 1581 
Q 1219 1581 811 2004 
Q 403 2428 403 3163 
Q 403 3881 828 4315 
Q 1253 4750 1959 4750 
Q 2769 4750 3195 4129 
Q 3622 3509 3622 2328 
Q 3622 1225 3098 567 
Q 2575 -91 1691 -91 
Q 1453 -91 1209 -44 
Q 966 3 703 97 
z
M 1959 2075 
Q 2384 2075 2632 2365 
Q 2881 2656 2881 3163 
Q 2881 3666 2632 3958 
Q 2384 4250 1959 4250 
Q 1534 4250 1286 3958 
Q 1038 3666 1038 3163 
Q 1038 2656 1286 2365 
Q 1534 2075 1959 2075 
z
" transform="scale(0.015625)"/>
        <path id="DejaVuSans-2e" d="M 684 794 
L 1344 794 
L 1344 0 
L 684 0 
L 684 794 
z
" transform="scale(0.015625)"/>
        <path id="DejaVuSans-42" d="M 1259 2228 
L 1259 519 
L 2272 519 
Q 2781 519 3026 730 
Q 3272 941 3272 1375 
Q 3272 1813 3026 2020 
Q 2781 2228 2272 2228 
L 1259 2228 
z
M 1259 4147 
L 1259 2741 
L 2194 2741 
Q 2656 2741 2882 2914 
Q 3109 3088 3109 3444 
Q 3109 3797 2882 3972 
Q 2656 4147 2194 4147 
L 1259 4147 
z
M 628 4666 
L 2241 4666 
Q 2963 4666 3353 4366 
Q 3744 4066 3744 3513 
Q 3744 3084 3544 2831 
Q 3344 2578 2956 2516 
Q 3422 2416 3680 2098 
Q 3938 1781 3938 1306 
Q 3938 681 3513 340 
Q 3088 0 2303 0 
L 628 0 
L 628 4666 
z
" transform="scale(0.015625)"/>
       </defs>
       <use xlink:href="#DejaVuSans-39"/>
       <use xlink:href="#DejaVuSans-2e" x="63.623047"/>
       <use xlink:href="#DejaVuSans-42" x="95.410156"/>
       <use xlink:href="#DejaVuSans-2e" x="164.013672"/>
       <use xlink:href="#DejaVuSans-34" x="195.800781"/>
       <use xlink:href="#DejaVuSans-34" x="259.423828"/>
       <use xlink:href="#DejaVuSans-33" x="323.046875"/>
       <use xlink:href="#DejaVuSans-2e" x="386.669922"/>
       <use xlink:href="#DejaVuSans-31" x="418.457031"/>
       <use xlink:href="#DejaVuSans-2e" x="482.080078"/>
       <use xlink:href="#DejaVuSans-31" x="513.867188"/>
      </g>
     </g>
    </g>
    <g id="ytick_2">
     <g id="line2d_10">
      <g>
       <use xlink:href="#m575b8ed664" x="144" y="179.388" style="stroke: #000000; stroke-width: 0.8"/>
      </g>
     </g>
     <g id="text_11">
      <!-- 9.B.443.1.2 -->
      <g transform="translate(79.251563 183.187219) scale(0.1 -0.1)">
       <use xlink:href="#DejaVuSans-39"/>
       <use xlink:href="#DejaVuSans-2e" x="63.623047"/>
       <use xlink:href="#DejaVuSans-42" x="95.410156"/>
       <use xlink:href="#DejaVuSans-2e" x="164.013672"/>
       <use xlink:href="#DejaVuSans-34" x="195.800781"/>
       <use xlink:href="#DejaVuSans-34" x="259.423828"/>
       <use xlink:href="#DejaVuSans-33" x="323.046875"/>
       <use xlink:href="#DejaVuSans-2e" x="386.669922"/>
       <use xlink:href="#DejaVuSans-31" x="418.457031"/>
       <use xlink:href="#DejaVuSans-2e" x="482.080078"/>
       <use xlink:href="#DejaVuSans-32" x="513.867188"/>
      </g>
     </g>
    </g>
    <g id="ytick_3">
     <g id="line2d_11">
      <g>
       <use xlink:href="#m575b8ed664" x="144" y="159.588" style="stroke: #000000; stroke-width: 0.8"/>
      </g>
     </g>
     <g id="text_12">
      <!-- 9.B.443.1.3 -->
      <g transform="translate(79.251563 163.387219) scale(0.1 -0.1)">
       <use xlink:href="#DejaVuSans-39"/>
       <use xlink:href="#DejaVuSans-2e" x="63.623047"/>
       <use xlink:href="#DejaVuSans-42" x="95.410156"/>
       <use xlink:href="#DejaVuSans-2e" x="164.013672"/>
       <use xlink:href="#DejaVuSans-34" x="195.800781"/>
       <use xlink:href="#DejaVuSans-34" x="259.423828"/>
       <use xlink:href="#DejaVuSans-33" x="323.046875"/>
       <use xlink:href="#DejaVuSans-2e" x="386.669922"/>
       <use xlink:href="#DejaVuSans-31" x="418.457031"/>
       <use xlink:href="#DejaVuSans-2e" x="482.080078"/>
       <use xlink:href="#DejaVuSans-33" x="513.867188"/>
      </g>
     </g>
    </g>
    <g id="ytick_4">
     <g id="line2d_12">
      <g>
       <use xlink:href="#m575b8ed664" x="144" y="139.788" style="stroke: #000000; stroke-width: 0.8"/>
      </g>
     </g>
     <g id="text_13">
      <!-- 9.B.443.1.4 -->
      <g transform="translate(79.251563 143.587219) scale(0.1 -0.1)">
       <use xlink:href="#DejaVuSans-39"/>
       <use xlink:href="#DejaVuSans-2e" x="63.623047"/>
       <use xlink:href="#DejaVuSans-42" x="95.410156"/>
       <use xlink:href="#DejaVuSans-2e" x="164.013672"/>
       <use xlink:href="#DejaVuSans-34" x="195.800781"/>
       <use xlink:href="#DejaVuSans-34" x="259.423828"/>
       <use xlink:href="#DejaVuSans-33" x="323.046875"/>
       <use xlink:href="#DejaVuSans-2e" x="386.669922"/>
       <use xlink:href="#DejaVuSans-31" x="418.457031"/>
       <use xlink:href="#DejaVuSans-2e" x="482.080078"/>
       <use xlink:href="#DejaVuSans-34" x="513.867188"/>
      </g>
     </g>
    </g>
    <g id="ytick_5">
     <g id="line2d_13">
      <g>
       <use xlink:href="#m575b8ed664" x="144" y="119.988" style="stroke: #000000; stroke-width: 0.8"/>
      </g>
     </g>
     <g id="text_14">
      <!-- 9.B.443.1.5 -->
      <g transform="translate(79.251563 123.787219) scale(0.1 -0.1)">
       <use xlink:href="#DejaVuSans-39"/>
       <use xlink:href="#DejaVuSans-2e" x="63.623047"/>
       <use xlink:href="#DejaVuSans-42" x="95.410156"/>
       <use xlink:href="#DejaVuSans-2e" x="164.013672"/>
       <use xlink:href="#DejaVuSans-34" x="195.800781"/>
       <use xlink:href="#DejaVuSans-34" x="259.423828"/>
       <use xlink:href="#DejaVuSans-33" x="323.046875"/>
       <use xlink:href="#DejaVuSans-2e" x="386.669922"/>
       <use xlink:href="#DejaVuSans-31" x="418.457031"/>
       <use xlink:href="#DejaVuSans-2e" x="482.080078"/>
       <use xlink:href="#DejaVuSans-35" x="513.867188"/>
      </g>
     </g>
    </g>
    <g id="ytick_6">
     <g id="line2d_14">
      <g>
       <use xlink:href="#m575b8ed664" x="144" y="100.188" style="stroke: #000000; stroke-width: 0.8"/>
      </g>
     </g>
     <g id="text_15">
      <!-- 9.B.443.1.6 -->
      <g transform="translate(79.251563 103.987219) scale(0.1 -0.1)">
       <defs>
        <path id="DejaVuSans-36" d="M 2113 2584 
Q 1688 2584 1439 2293 
Q 1191 2003 1191 1497 
Q 1191 994 1439 701 
Q 1688 409 2113 409 
Q 2538 409 2786 701 
Q 3034 994 3034 1497 
Q 3034 2003 2786 2293 
Q 2538 2584 2113 2584 
z
M 3366 4563 
L 3366 3988 
Q 3128 4100 2886 4159 
Q 2644 4219 2406 4219 
Q 1781 4219 1451 3797 
Q 1122 3375 1075 2522 
Q 1259 2794 1537 2939 
Q 1816 3084 2150 3084 
Q 2853 3084 3261 2657 
Q 3669 2231 3669 1497 
Q 3669 778 3244 343 
Q 2819 -91 2113 -91 
Q 1303 -91 875 529 
Q 447 1150 447 2328 
Q 447 3434 972 4092 
Q 1497 4750 2381 4750 
Q 2619 4750 2861 4703 
Q 3103 4656 3366 4563 
z
" transform="scale(0.015625)"/>
       </defs>
       <use xlink:href="#DejaVuSans-39"/>
       <use xlink:href="#DejaVuSans-2e" x="63.623047"/>
       <use xlink:href="#DejaVuSans-42" x="95.410156"/>
       <use xlink:href="#DejaVuSans-2e" x="164.013672"/>
       <use xlink:href="#DejaVuSans-34" x="195.800781"/>
       <use xlink:href="#DejaVuSans-34" x="259.423828"/>
       <use xlink:href="#DejaVuSans-33" x="323.046875"/>
       <use xlink:href="#DejaVuSans-2e" x="386.669922"/>
       <use xlink:href="#DejaVuSans-31" x="418.457031"/>
       <use xlink:href="#DejaVuSans-2e" x="482.080078"/>
       <use xlink:href="#DejaVuSans-36" x="513.867188"/>
      </g>
     </g>
    </g>
    <g id="ytick_7">
     <g id="line2d_15">
      <g>
       <use xlink:href="#m575b8ed664" x="144" y="80.388" style="stroke: #000000; stroke-width: 0.8"/>
      </g>
     </g>
     <g id="text_16">
      <!-- 9.B.443.1.7 -->
      <g transform="translate(79.251563 84.187219) scale(0.1 -0.1)">
       <defs>
        <path id="DejaVuSans-37" d="M 525 4666 
L 3525 4666 
L 3525 4397 
L 1831 0 
L 1172 0 
L 2766 4134 
L 525 4134 
L 525 4666 
z
" transform="scale(0.015625)"/>
       </defs>
       <use xlink:href="#DejaVuSans-39"/>
       <use xlink:href="#DejaVuSans-2e" x="63.623047"/>
       <use xlink:href="#DejaVuSans-42" x="95.410156"/>
       <use xlink:href="#DejaVuSans-2e" x="164.013672"/>
       <use xlink:href="#DejaVuSans-34" x="195.800781"/>
       <use xlink:href="#DejaVuSans-34" x="259.423828"/>
       <use xlink:href="#DejaVuSans-33" x="323.046875"/>
       <use xlink:href="#DejaVuSans-2e" x="386.669922"/>
       <use xlink:href="#DejaVuSans-31" x="418.457031"/>
       <use xlink:href="#DejaVuSans-2e" x="482.080078"/>
       <use xlink:href="#DejaVuSans-37" x="513.867188"/>
      </g>
     </g>
    </g>
    <g id="ytick_8">
     <g id="line2d_16">
      <g>
       <use xlink:href="#m575b8ed664" x="144" y="60.588" style="stroke: #000000; stroke-width: 0.8"/>
      </g>
     </g>
     <g id="text_17">
      <!-- 9.B.443.1.8 -->
      <g transform="translate(79.251563 64.387219) scale(0.1 -0.1)">
       <defs>
        <path id="DejaVuSans-38" d="M 2034 2216 
Q 1584 2216 1326 1975 
Q 1069 1734 1069 1313 
Q 1069 891 1326 650 
Q 1584 409 2034 409 
Q 2484 409 2743 651 
Q 3003 894 3003 1313 
Q 3003 1734 2745 1975 
Q 2488 2216 2034 2216 
z
M 1403 2484 
Q 997 2584 770 2862 
Q 544 3141 544 3541 
Q 544 4100 942 4425 
Q 1341 4750 2034 4750 
Q 2731 4750 3128 4425 
Q 3525 4100 3525 3541 
Q 3525 3141 3298 2862 
Q 3072 2584 2669 2484 
Q 3125 2378 3379 2068 
Q 3634 1759 3634 1313 
Q 3634 634 3220 271 
Q 2806 -91 2034 -91 
Q 1263 -91 848 271 
Q 434 634 434 1313 
Q 434 1759 690 2068 
Q 947 2378 1403 2484 
z
M 1172 3481 
Q 1172 3119 1398 2916 
Q 1625 2713 2034 2713 
Q 2441 2713 2670 2916 
Q 2900 3119 2900 3481 
Q 2900 3844 2670 4047 
Q 2441 4250 2034 4250 
Q 1625 4250 1398 4047 
Q 1172 3844 1172 3481 
z
" transform="scale(0.015625)"/>
       </defs>
       <use xlink:href="#DejaVuSans-39"/>
       <use xlink:href="#DejaVuSans-2e" x="63.623047"/>
       <use xlink:href="#DejaVuSans-42" x="95.410156"/>
       <use xlink:href="#DejaVuSans-2e" x="164.013672"/>
       <use xlink:href="#DejaVuSans-34" x="195.800781"/>
       <use xlink:href="#DejaVuSans-34" x="259.423828"/>
       <use xlink:href="#DejaVuSans-33" x="323.046875"/>
       <use xlink:href="#DejaVuSans-2e" x="386.669922"/>
       <use xlink:href="#DejaVuSans-31" x="418.457031"/>
       <use xlink:href="#DejaVuSans-2e" x="482.080078"/>
       <use xlink:href="#DejaVuSans-38" x="513.867188"/>
      </g>
     </g>
    </g>
    <g id="ytick_9">
     <g id="line2d_17">
      <g>
       <use xlink:href="#m575b8ed664" x="144" y="40.788" style="stroke: #000000; stroke-width: 0.8"/>
      </g>
     </g>
     <g id="text_18">
      <!-- 9.B.443.1.9 -->
      <g transform="translate(79.251563 44.587219) scale(0.1 -0.1)">
       <use xlink:href="#DejaVuSans-39"/>
       <use xlink:href="#DejaVuSans-2e" x="63.623047"/>
       <use xlink:href="#DejaVuSans-42" x="95.410156"/>
       <use xlink:href="#DejaVuSans-2e" x="164.013672"/>
       <use xlink:href="#DejaVuSans-34" x="195.800781"/>
       <use xlink:href="#DejaVuSans-34" x="259.423828"/>
       <use xlink:href="#DejaVuSans-33" x="323.046875"/>
       <use xlink:href="#DejaVuSans-2e" x="386.669922"/>
       <use xlink:href="#DejaVuSans-31" x="418.457031"/>
       <use xlink:href="#DejaVuSans-2e" x="482.080078"/>
       <use xlink:href="#DejaVuSans-39" x="513.867188"/>
      </g>
     </g>
    </g>
   </g>
   <g id="patch_280">
    <path d="M 144 211.464 
L 144 28.512 
" style="fill: none; stroke: #000000; stroke-width: 0.8; stroke-linejoin: miter; stroke-linecap: square"/>
   </g>
   <g id="patch_281">
    <path d="M 1036.8 211.464 
L 1036.8 28.512 
" style="fill: none; stroke: #000000; stroke-width: 0.8; stroke-linejoin: miter; stroke-linecap: square"/>
   </g>
   <g id="patch_282">
    <path d="M 144 211.464 
L 1036.8 211.464 
" style="fill: none; stroke: #000000; stroke-width: 0.8; stroke-linejoin: miter; stroke-linecap: square"/>
   </g>
   <g id="patch_283">
    <path d="M 144 28.512 
L 1036.8 28.512 
" style="fill: none; stroke: #000000; stroke-width: 0.8; stroke-linejoin: miter; stroke-linecap: square"/>
   </g>
   <g id="text_19">
    <!-- 9.B.443 Summary -->
    <g transform="translate(536.297812 22.512) scale(0.12 -0.12)">
     <defs>
      <path id="DejaVuSans-20" transform="scale(0.015625)"/>
      <path id="DejaVuSans-53" d="M 3425 4513 
L 3425 3897 
Q 3066 4069 2747 4153 
Q 2428 4238 2131 4238 
Q 1616 4238 1336 4038 
Q 1056 3838 1056 3469 
Q 1056 3159 1242 3001 
Q 1428 2844 1947 2747 
L 2328 2669 
Q 3034 2534 3370 2195 
Q 3706 1856 3706 1288 
Q 3706 609 3251 259 
Q 2797 -91 1919 -91 
Q 1588 -91 1214 -16 
Q 841 59 441 206 
L 441 856 
Q 825 641 1194 531 
Q 1563 422 1919 422 
Q 2459 422 2753 634 
Q 3047 847 3047 1241 
Q 3047 1584 2836 1778 
Q 2625 1972 2144 2069 
L 1759 2144 
Q 1053 2284 737 2584 
Q 422 2884 422 3419 
Q 422 4038 858 4394 
Q 1294 4750 2059 4750 
Q 2388 4750 2728 4690 
Q 3069 4631 3425 4513 
z
" transform="scale(0.015625)"/>
      <path id="DejaVuSans-6d" d="M 3328 2828 
Q 3544 3216 3844 3400 
Q 4144 3584 4550 3584 
Q 5097 3584 5394 3201 
Q 5691 2819 5691 2113 
L 5691 0 
L 5113 0 
L 5113 2094 
Q 5113 2597 4934 2840 
Q 4756 3084 4391 3084 
Q 3944 3084 3684 2787 
Q 3425 2491 3425 1978 
L 3425 0 
L 2847 0 
L 2847 2094 
Q 2847 2600 2669 2842 
Q 2491 3084 2119 3084 
Q 1678 3084 1418 2786 
Q 1159 2488 1159 1978 
L 1159 0 
L 581 0 
L 581 3500 
L 1159 3500 
L 1159 2956 
Q 1356 3278 1631 3431 
Q 1906 3584 2284 3584 
Q 2666 3584 2933 3390 
Q 3200 3197 3328 2828 
z
" transform="scale(0.015625)"/>
      <path id="DejaVuSans-72" d="M 2631 2963 
Q 2534 3019 2420 3045 
Q 2306 3072 2169 3072 
Q 1681 3072 1420 2755 
Q 1159 2438 1159 1844 
L 1159 0 
L 581 0 
L 581 3500 
L 1159 3500 
L 1159 2956 
Q 1341 3275 1631 3429 
Q 1922 3584 2338 3584 
Q 2397 3584 2469 3576 
Q 2541 3569 2628 3553 
L 2631 2963 
z
" transform="scale(0.015625)"/>
      <path id="DejaVuSans-79" d="M 2059 -325 
Q 1816 -950 1584 -1140 
Q 1353 -1331 966 -1331 
L 506 -1331 
L 506 -850 
L 844 -850 
Q 1081 -850 1212 -737 
Q 1344 -625 1503 -206 
L 1606 56 
L 191 3500 
L 800 3500 
L 1894 763 
L 2988 3500 
L 3597 3500 
L 2059 -325 
z
" transform="scale(0.015625)"/>
     </defs>
     <use xlink:href="#DejaVuSans-39"/>
     <use xlink:href="#DejaVuSans-2e" x="63.623047"/>
     <use xlink:href="#DejaVuSans-42" x="95.410156"/>
     <use xlink:href="#DejaVuSans-2e" x="164.013672"/>
     <use xlink:href="#DejaVuSans-34" x="195.800781"/>
     <use xlink:href="#DejaVuSans-34" x="259.423828"/>
     <use xlink:href="#DejaVuSans-33" x="323.046875"/>
     <use xlink:href="#DejaVuSans-20" x="386.669922"/>
     <use xlink:href="#DejaVuSans-53" x="418.457031"/>
     <use xlink:href="#DejaVuSans-75" x="481.933594"/>
     <use xlink:href="#DejaVuSans-6d" x="545.3125"/>
     <use xlink:href="#DejaVuSans-6d" x="642.724609"/>
     <use xlink:href="#DejaVuSans-61" x="740.136719"/>
     <use xlink:href="#DejaVuSans-72" x="801.416016"/>
     <use xlink:href="#DejaVuSans-79" x="842.529297"/>
    </g>
   </g>
  </g>
 </g>
 <defs>
  <clipPath id="p026049cabb">
   <rect x="144" y="28.512" width="892.8" height="182.952"/>
  </clipPath>
 </defs>
</svg>
