<?xml version="1.0" encoding="utf-8" standalone="no"?>
<!DOCTYPE svg PUBLIC "-//W3C//DTD SVG 1.1//EN"
  "http://www.w3.org/Graphics/SVG/1.1/DTD/svg11.dtd">
<svg xmlns:xlink="http://www.w3.org/1999/xlink" width="1152pt" height="396pt" viewBox="0 0 1152 396" xmlns="http://www.w3.org/2000/svg" version="1.1">
 <metadata>
  <rdf:RDF xmlns:dc="http://purl.org/dc/elements/1.1/" xmlns:cc="http://creativecommons.org/ns#" xmlns:rdf="http://www.w3.org/1999/02/22-rdf-syntax-ns#">
   <cc:Work>
    <dc:type rdf:resource="http://purl.org/dc/dcmitype/StillImage"/>
    <dc:date>2024-10-10T23:13:30.226090</dc:date>
    <dc:format>image/svg+xml</dc:format>
    <dc:creator>
     <cc:Agent>
      <dc:title>Matplotlib v3.9.2, https://matplotlib.org/</dc:title>
     </cc:Agent>
    </dc:creator>
   </cc:Work>
  </rdf:RDF>
 </metadata>
 <defs>
  <style type="text/css">*{stroke-linejoin: round; stroke-linecap: butt}</style>
 </defs>
 <g id="figure_1">
  <g id="patch_1">
   <path d="M 0 396 
L 1152 396 
L 1152 0 
L 0 0 
z
" style="fill: #ffffff"/>
  </g>
  <g id="axes_1">
   <g id="patch_2">
    <path d="M 144 352.44 
L 1036.8 352.44 
L 1036.8 47.52 
L 144 47.52 
z
" style="fill: #ffffff"/>
   </g>
   <g id="patch_3">
    <path d="M 144 335.936598 
L 947.161446 335.936598 
L 947.161446 335.507938 
L 144 335.507938 
z
" clip-path="url(#p240b80925b)" style="fill: #ff0000"/>
   </g>
   <g id="patch_4">
    <path d="M 736.809639 338.58 
L 947.161446 338.58 
L 947.161446 332.864536 
L 736.809639 332.864536 
z
" clip-path="url(#p240b80925b)" style="fill: #ff0000"/>
   </g>
   <g id="patch_5">
    <path d="M 144 321.647938 
L 565.386575 321.647938 
L 565.386575 321.219278 
L 144 321.219278 
z
" clip-path="url(#p240b80925b)" style="fill: #ff0000"/>
   </g>
   <g id="patch_6">
    <path d="M 144.68296 324.29134 
L 326.35043 324.29134 
L 326.35043 318.575876 
L 144.68296 318.575876 
z
" clip-path="url(#p240b80925b)" style="fill: #ff0000"/>
   </g>
   <g id="patch_7">
    <path d="M 459.527711 324.29134 
L 565.386575 324.29134 
L 565.386575 318.575876 
L 459.527711 318.575876 
z
" clip-path="url(#p240b80925b)" style="fill: #ff0000"/>
   </g>
   <g id="patch_8">
    <path d="M 144 307.359278 
L 537.385198 307.359278 
L 537.385198 306.930619 
L 144 306.930619 
z
" clip-path="url(#p240b80925b)" style="fill: #ff0000"/>
   </g>
   <g id="patch_9">
    <path d="M 245.761102 310.00268 
L 443.136661 310.00268 
L 443.136661 304.287216 
L 245.761102 304.287216 
z
" clip-path="url(#p240b80925b)" style="fill: #ff0000"/>
   </g>
   <g id="patch_10">
    <path d="M 144 293.070619 
L 443.136661 293.070619 
L 443.136661 292.641959 
L 144 292.641959 
z
" clip-path="url(#p240b80925b)" style="fill: #ff0000"/>
   </g>
   <g id="patch_11">
    <path d="M 315.423064 295.714021 
L 443.136661 295.714021 
L 443.136661 289.998557 
L 315.423064 289.998557 
z
" clip-path="url(#p240b80925b)" style="fill: #ff0000"/>
   </g>
   <g id="patch_12">
    <path d="M 144 278.781959 
L 622.072289 278.781959 
L 622.072289 278.353299 
L 144 278.353299 
z
" clip-path="url(#p240b80925b)" style="fill: #ff0000"/>
   </g>
   <g id="patch_13">
    <path d="M 144.68296 281.425361 
L 221.174527 281.425361 
L 221.174527 275.709897 
L 144.68296 275.709897 
z
" clip-path="url(#p240b80925b)" style="fill: #ff0000"/>
   </g>
   <g id="patch_14">
    <path d="M 290.836489 281.425361 
L 457.47883 281.425361 
L 457.47883 275.709897 
L 290.836489 275.709897 
z
" clip-path="url(#p240b80925b)" style="fill: #ff0000"/>
   </g>
   <g id="patch_15">
    <path d="M 500.505336 281.425361 
L 622.072289 281.425361 
L 622.072289 275.709897 
L 500.505336 275.709897 
z
" clip-path="url(#p240b80925b)" style="fill: #ff0000"/>
   </g>
   <g id="patch_16">
    <path d="M 144 264.493299 
L 580.411704 264.493299 
L 580.411704 264.064639 
L 144 264.064639 
z
" clip-path="url(#p240b80925b)" style="fill: #ff0000"/>
   </g>
   <g id="patch_17">
    <path d="M 144.68296 267.136701 
L 208.198279 267.136701 
L 208.198279 261.421237 
L 144.68296 261.421237 
z
" clip-path="url(#p240b80925b)" style="fill: #ff0000"/>
   </g>
   <g id="patch_18">
    <path d="M 383.036145 267.136701 
L 580.411704 267.136701 
L 580.411704 261.421237 
L 383.036145 261.421237 
z
" clip-path="url(#p240b80925b)" style="fill: #ff0000"/>
   </g>
   <g id="patch_19">
    <path d="M 144 250.204639 
L 919.843029 250.204639 
L 919.843029 249.775979 
L 144 249.775979 
z
" clip-path="url(#p240b80925b)" style="fill: #ff0000"/>
   </g>
   <g id="patch_20">
    <path d="M 144.68296 252.848041 
L 190.441308 252.848041 
L 190.441308 247.132577 
L 144.68296 247.132577 
z
" clip-path="url(#p240b80925b)" style="fill: #ff0000"/>
   </g>
   <g id="patch_21">
    <path d="M 761.396213 252.848041 
L 919.843029 252.848041 
L 919.843029 247.132577 
L 761.396213 247.132577 
z
" clip-path="url(#p240b80925b)" style="fill: #ff0000"/>
   </g>
   <g id="patch_22">
    <path d="M 144 235.915979 
L 932.819277 235.915979 
L 932.819277 235.48732 
L 144 235.48732 
z
" clip-path="url(#p240b80925b)" style="fill: #ff0000"/>
   </g>
   <g id="patch_23">
    <path d="M 719.735628 238.559381 
L 932.819277 238.559381 
L 932.819277 232.843918 
L 719.735628 232.843918 
z
" clip-path="url(#p240b80925b)" style="fill: #ff0000"/>
   </g>
   <g id="patch_24">
    <path d="M 144 221.62732 
L 943.746644 221.62732 
L 943.746644 221.19866 
L 144 221.19866 
z
" clip-path="url(#p240b80925b)" style="fill: #ff0000"/>
   </g>
   <g id="patch_25">
    <path d="M 559.922892 224.270722 
L 610.461962 224.270722 
L 610.461962 218.555258 
L 559.922892 218.555258 
z
" clip-path="url(#p240b80925b)" style="fill: #ff0000"/>
   </g>
   <g id="patch_26">
    <path d="M 737.492599 224.270722 
L 943.746644 224.270722 
L 943.746644 218.555258 
L 737.492599 218.555258 
z
" clip-path="url(#p240b80925b)" style="fill: #ff0000"/>
   </g>
   <g id="patch_27">
    <path d="M 144 207.33866 
L 925.306713 207.33866 
L 925.306713 206.91 
L 144 206.91 
z
" clip-path="url(#p240b80925b)" style="fill: #ff0000"/>
   </g>
   <g id="patch_28">
    <path d="M 144.68296 209.982062 
L 201.368675 209.982062 
L 201.368675 204.266598 
L 144.68296 204.266598 
z
" clip-path="url(#p240b80925b)" style="fill: #ff0000"/>
   </g>
   <g id="patch_29">
    <path d="M 599.534596 209.982062 
L 633.682616 209.982062 
L 633.682616 204.266598 
L 599.534596 204.266598 
z
" clip-path="url(#p240b80925b)" style="fill: #ff0000"/>
   </g>
   <g id="patch_30">
    <path d="M 760.030293 209.982062 
L 925.306713 209.982062 
L 925.306713 204.266598 
L 760.030293 204.266598 
z
" clip-path="url(#p240b80925b)" style="fill: #ff0000"/>
   </g>
   <g id="patch_31">
    <path d="M 144 193.05 
L 938.965921 193.05 
L 938.965921 192.62134 
L 144 192.62134 
z
" clip-path="url(#p240b80925b)" style="fill: #ff0000"/>
   </g>
   <g id="patch_32">
    <path d="M 144.68296 195.693402 
L 202.051635 195.693402 
L 202.051635 189.977938 
L 144.68296 189.977938 
z
" clip-path="url(#p240b80925b)" style="fill: #ff0000"/>
   </g>
   <g id="patch_33">
    <path d="M 589.97315 195.693402 
L 639.82926 195.693402 
L 639.82926 189.977938 
L 589.97315 189.977938 
z
" clip-path="url(#p240b80925b)" style="fill: #ff0000"/>
   </g>
   <g id="patch_34">
    <path d="M 766.176936 195.693402 
L 938.965921 195.693402 
L 938.965921 189.977938 
L 766.176936 189.977938 
z
" clip-path="url(#p240b80925b)" style="fill: #ff0000"/>
   </g>
   <g id="patch_35">
    <path d="M 144 178.76134 
L 583.826506 178.76134 
L 583.826506 178.33268 
L 144 178.33268 
z
" clip-path="url(#p240b80925b)" style="fill: #ff0000"/>
   </g>
   <g id="patch_36">
    <path d="M 144.68296 181.404742 
L 200.002754 181.404742 
L 200.002754 175.689278 
L 144.68296 175.689278 
z
" clip-path="url(#p240b80925b)" style="fill: #ff0000"/>
   </g>
   <g id="patch_37">
    <path d="M 144 164.47268 
L 707.442341 164.47268 
L 707.442341 164.044021 
L 144 164.044021 
z
" clip-path="url(#p240b80925b)" style="fill: #ff0000"/>
   </g>
   <g id="patch_38">
    <path d="M 144.68296 167.116082 
L 221.174527 167.116082 
L 221.174527 161.400619 
L 144.68296 161.400619 
z
" clip-path="url(#p240b80925b)" style="fill: #ff0000"/>
   </g>
   <g id="patch_39">
    <path d="M 144 150.184021 
L 486.846127 150.184021 
L 486.846127 149.755361 
L 144 149.755361 
z
" clip-path="url(#p240b80925b)" style="fill: #ff0000"/>
   </g>
   <g id="patch_40">
    <path d="M 285.372806 152.827423 
L 398.744234 152.827423 
L 398.744234 147.111959 
L 285.372806 147.111959 
z
" clip-path="url(#p240b80925b)" style="fill: #ff0000"/>
   </g>
   <g id="patch_41">
    <path d="M 144 135.895361 
L 583.143546 135.895361 
L 583.143546 135.466701 
L 144 135.466701 
z
" clip-path="url(#p240b80925b)" style="fill: #ff0000"/>
   </g>
   <g id="patch_42">
    <path d="M 144.68296 138.538763 
L 181.562823 138.538763 
L 181.562823 132.823299 
L 144.68296 132.823299 
z
" clip-path="url(#p240b80925b)" style="fill: #ff0000"/>
   </g>
   <g id="patch_43">
    <path d="M 307.910499 138.538763 
L 583.143546 138.538763 
L 583.143546 132.823299 
L 307.910499 132.823299 
z
" clip-path="url(#p240b80925b)" style="fill: #ff0000"/>
   </g>
   <g id="patch_44">
    <path d="M 144 121.606701 
L 576.313941 121.606701 
L 576.313941 121.178041 
L 144 121.178041 
z
" clip-path="url(#p240b80925b)" style="fill: #ff0000"/>
   </g>
   <g id="patch_45">
    <path d="M 144 107.318041 
L 656.22031 107.318041 
L 656.22031 106.889381 
L 144 106.889381 
z
" clip-path="url(#p240b80925b)" style="fill: #ff0000"/>
   </g>
   <g id="patch_46">
    <path d="M 144.68296 109.961443 
L 194.539071 109.961443 
L 194.539071 104.245979 
L 144.68296 104.245979 
z
" clip-path="url(#p240b80925b)" style="fill: #ff0000"/>
   </g>
   <g id="patch_47">
    <path d="M 307.910499 109.961443 
L 656.22031 109.961443 
L 656.22031 104.245979 
L 307.910499 104.245979 
z
" clip-path="url(#p240b80925b)" style="fill: #ff0000"/>
   </g>
   <g id="patch_48">
    <path d="M 144 93.029381 
L 692.417212 93.029381 
L 692.417212 92.600722 
L 144 92.600722 
z
" clip-path="url(#p240b80925b)" style="fill: #ff0000"/>
   </g>
   <g id="patch_49">
    <path d="M 144.68296 95.672784 
L 214.344923 95.672784 
L 214.344923 89.95732 
L 144.68296 89.95732 
z
" clip-path="url(#p240b80925b)" style="fill: #ff0000"/>
   </g>
   <g id="patch_50">
    <path d="M 362.547332 95.672784 
L 503.237177 95.672784 
L 503.237177 89.95732 
L 362.547332 89.95732 
z
" clip-path="url(#p240b80925b)" style="fill: #ff0000"/>
   </g>
   <g id="patch_51">
    <path d="M 617.291566 95.672784 
L 692.417212 95.672784 
L 692.417212 89.95732 
L 617.291566 89.95732 
z
" clip-path="url(#p240b80925b)" style="fill: #ff0000"/>
   </g>
   <g id="patch_52">
    <path d="M 144 78.740722 
L 994.285714 78.740722 
L 994.285714 78.312062 
L 144 78.312062 
z
" clip-path="url(#p240b80925b)" style="fill: #ff0000"/>
   </g>
   <g id="patch_53">
    <path d="M 144.68296 81.384124 
L 205.466437 81.384124 
L 205.466437 75.66866 
L 144.68296 75.66866 
z
" clip-path="url(#p240b80925b)" style="fill: #ff0000"/>
   </g>
   <g id="patch_54">
    <path d="M 368.011015 81.384124 
L 521.677108 81.384124 
L 521.677108 75.66866 
L 368.011015 75.66866 
z
" clip-path="url(#p240b80925b)" style="fill: #ff0000"/>
   </g>
   <g id="patch_55">
    <path d="M 619.340448 81.384124 
L 708.125301 81.384124 
L 708.125301 75.66866 
L 619.340448 75.66866 
z
" clip-path="url(#p240b80925b)" style="fill: #ff0000"/>
   </g>
   <g id="patch_56">
    <path d="M 818.081928 81.384124 
L 994.285714 81.384124 
L 994.285714 75.66866 
L 818.081928 75.66866 
z
" clip-path="url(#p240b80925b)" style="fill: #ff0000"/>
   </g>
   <g id="patch_57">
    <path d="M 144 64.452062 
L 977.211704 64.452062 
L 977.211704 64.023402 
L 144 64.023402 
z
" clip-path="url(#p240b80925b)" style="fill: #ff0000"/>
   </g>
   <g id="patch_58">
    <path d="M 144.68296 67.095464 
L 204.100516 67.095464 
L 204.100516 61.38 
L 144.68296 61.38 
z
" clip-path="url(#p240b80925b)" style="fill: #ff0000"/>
   </g>
   <g id="patch_59">
    <path d="M 357.083649 67.095464 
L 502.554217 67.095464 
L 502.554217 61.38 
L 357.083649 61.38 
z
" clip-path="url(#p240b80925b)" style="fill: #ff0000"/>
   </g>
   <g id="patch_60">
    <path d="M 602.266437 67.095464 
L 691.051291 67.095464 
L 691.051291 61.38 
L 602.266437 61.38 
z
" clip-path="url(#p240b80925b)" style="fill: #ff0000"/>
   </g>
   <g id="patch_61">
    <path d="M 801.007917 67.095464 
L 977.211704 67.095464 
L 977.211704 61.38 
L 801.007917 61.38 
z
" clip-path="url(#p240b80925b)" style="fill: #ff0000"/>
   </g>
   <g id="matplotlib.axis_1">
    <g id="xtick_1">
     <g id="line2d_1">
      <defs>
       <path id="ma44a16578e" d="M 0 0 
L 0 3.5 
" style="stroke: #000000; stroke-width: 0.8"/>
      </defs>
      <g>
       <use xlink:href="#ma44a16578e" x="144" y="352.44" style="stroke: #000000; stroke-width: 0.8"/>
      </g>
     </g>
     <g id="text_1">
      <!-- 0 -->
      <g transform="translate(140.81875 367.038437) scale(0.1 -0.1)">
       <defs>
        <path id="DejaVuSans-30" d="M 2034 4250 
Q 1547 4250 1301 3770 
Q 1056 3291 1056 2328 
Q 1056 1369 1301 889 
Q 1547 409 2034 409 
Q 2525 409 2770 889 
Q 3016 1369 3016 2328 
Q 3016 3291 2770 3770 
Q 2525 4250 2034 4250 
z
M 2034 4750 
Q 2819 4750 3233 4129 
Q 3647 3509 3647 2328 
Q 3647 1150 3233 529 
Q 2819 -91 2034 -91 
Q 1250 -91 836 529 
Q 422 1150 422 2328 
Q 422 3509 836 4129 
Q 1250 4750 2034 4750 
z
" transform="scale(0.015625)"/>
       </defs>
       <use xlink:href="#DejaVuSans-30"/>
      </g>
     </g>
    </g>
    <g id="xtick_2">
     <g id="line2d_2">
      <g>
       <use xlink:href="#ma44a16578e" x="280.592083" y="352.44" style="stroke: #000000; stroke-width: 0.8"/>
      </g>
     </g>
     <g id="text_2">
      <!-- 200 -->
      <g transform="translate(271.048333 367.038437) scale(0.1 -0.1)">
       <defs>
        <path id="DejaVuSans-32" d="M 1228 531 
L 3431 531 
L 3431 0 
L 469 0 
L 469 531 
Q 828 903 1448 1529 
Q 2069 2156 2228 2338 
Q 2531 2678 2651 2914 
Q 2772 3150 2772 3378 
Q 2772 3750 2511 3984 
Q 2250 4219 1831 4219 
Q 1534 4219 1204 4116 
Q 875 4013 500 3803 
L 500 4441 
Q 881 4594 1212 4672 
Q 1544 4750 1819 4750 
Q 2544 4750 2975 4387 
Q 3406 4025 3406 3419 
Q 3406 3131 3298 2873 
Q 3191 2616 2906 2266 
Q 2828 2175 2409 1742 
Q 1991 1309 1228 531 
z
" transform="scale(0.015625)"/>
       </defs>
       <use xlink:href="#DejaVuSans-32"/>
       <use xlink:href="#DejaVuSans-30" x="63.623047"/>
       <use xlink:href="#DejaVuSans-30" x="127.246094"/>
      </g>
     </g>
    </g>
    <g id="xtick_3">
     <g id="line2d_3">
      <g>
       <use xlink:href="#ma44a16578e" x="417.184165" y="352.44" style="stroke: #000000; stroke-width: 0.8"/>
      </g>
     </g>
     <g id="text_3">
      <!-- 400 -->
      <g transform="translate(407.640415 367.038437) scale(0.1 -0.1)">
       <defs>
        <path id="DejaVuSans-34" d="M 2419 4116 
L 825 1625 
L 2419 1625 
L 2419 4116 
z
M 2253 4666 
L 3047 4666 
L 3047 1625 
L 3713 1625 
L 3713 1100 
L 3047 1100 
L 3047 0 
L 2419 0 
L 2419 1100 
L 313 1100 
L 313 1709 
L 2253 4666 
z
" transform="scale(0.015625)"/>
       </defs>
       <use xlink:href="#DejaVuSans-34"/>
       <use xlink:href="#DejaVuSans-30" x="63.623047"/>
       <use xlink:href="#DejaVuSans-30" x="127.246094"/>
      </g>
     </g>
    </g>
    <g id="xtick_4">
     <g id="line2d_4">
      <g>
       <use xlink:href="#ma44a16578e" x="553.776248" y="352.44" style="stroke: #000000; stroke-width: 0.8"/>
      </g>
     </g>
     <g id="text_4">
      <!-- 600 -->
      <g transform="translate(544.232498 367.038437) scale(0.1 -0.1)">
       <defs>
        <path id="DejaVuSans-36" d="M 2113 2584 
Q 1688 2584 1439 2293 
Q 1191 2003 1191 1497 
Q 1191 994 1439 701 
Q 1688 409 2113 409 
Q 2538 409 2786 701 
Q 3034 994 3034 1497 
Q 3034 2003 2786 2293 
Q 2538 2584 2113 2584 
z
M 3366 4563 
L 3366 3988 
Q 3128 4100 2886 4159 
Q 2644 4219 2406 4219 
Q 1781 4219 1451 3797 
Q 1122 3375 1075 2522 
Q 1259 2794 1537 2939 
Q 1816 3084 2150 3084 
Q 2853 3084 3261 2657 
Q 3669 2231 3669 1497 
Q 3669 778 3244 343 
Q 2819 -91 2113 -91 
Q 1303 -91 875 529 
Q 447 1150 447 2328 
Q 447 3434 972 4092 
Q 1497 4750 2381 4750 
Q 2619 4750 2861 4703 
Q 3103 4656 3366 4563 
z
" transform="scale(0.015625)"/>
       </defs>
       <use xlink:href="#DejaVuSans-36"/>
       <use xlink:href="#DejaVuSans-30" x="63.623047"/>
       <use xlink:href="#DejaVuSans-30" x="127.246094"/>
      </g>
     </g>
    </g>
    <g id="xtick_5">
     <g id="line2d_5">
      <g>
       <use xlink:href="#ma44a16578e" x="690.36833" y="352.44" style="stroke: #000000; stroke-width: 0.8"/>
      </g>
     </g>
     <g id="text_5">
      <!-- 800 -->
      <g transform="translate(680.82458 367.038437) scale(0.1 -0.1)">
       <defs>
        <path id="DejaVuSans-38" d="M 2034 2216 
Q 1584 2216 1326 1975 
Q 1069 1734 1069 1313 
Q 1069 891 1326 650 
Q 1584 409 2034 409 
Q 2484 409 2743 651 
Q 3003 894 3003 1313 
Q 3003 1734 2745 1975 
Q 2488 2216 2034 2216 
z
M 1403 2484 
Q 997 2584 770 2862 
Q 544 3141 544 3541 
Q 544 4100 942 4425 
Q 1341 4750 2034 4750 
Q 2731 4750 3128 4425 
Q 3525 4100 3525 3541 
Q 3525 3141 3298 2862 
Q 3072 2584 2669 2484 
Q 3125 2378 3379 2068 
Q 3634 1759 3634 1313 
Q 3634 634 3220 271 
Q 2806 -91 2034 -91 
Q 1263 -91 848 271 
Q 434 634 434 1313 
Q 434 1759 690 2068 
Q 947 2378 1403 2484 
z
M 1172 3481 
Q 1172 3119 1398 2916 
Q 1625 2713 2034 2713 
Q 2441 2713 2670 2916 
Q 2900 3119 2900 3481 
Q 2900 3844 2670 4047 
Q 2441 4250 2034 4250 
Q 1625 4250 1398 4047 
Q 1172 3844 1172 3481 
z
" transform="scale(0.015625)"/>
       </defs>
       <use xlink:href="#DejaVuSans-38"/>
       <use xlink:href="#DejaVuSans-30" x="63.623047"/>
       <use xlink:href="#DejaVuSans-30" x="127.246094"/>
      </g>
     </g>
    </g>
    <g id="xtick_6">
     <g id="line2d_6">
      <g>
       <use xlink:href="#ma44a16578e" x="826.960413" y="352.44" style="stroke: #000000; stroke-width: 0.8"/>
      </g>
     </g>
     <g id="text_6">
      <!-- 1000 -->
      <g transform="translate(814.235413 367.038437) scale(0.1 -0.1)">
       <defs>
        <path id="DejaVuSans-31" d="M 794 531 
L 1825 531 
L 1825 4091 
L 703 3866 
L 703 4441 
L 1819 4666 
L 2450 4666 
L 2450 531 
L 3481 531 
L 3481 0 
L 794 0 
L 794 531 
z
" transform="scale(0.015625)"/>
       </defs>
       <use xlink:href="#DejaVuSans-31"/>
       <use xlink:href="#DejaVuSans-30" x="63.623047"/>
       <use xlink:href="#DejaVuSans-30" x="127.246094"/>
       <use xlink:href="#DejaVuSans-30" x="190.869141"/>
      </g>
     </g>
    </g>
    <g id="xtick_7">
     <g id="line2d_7">
      <g>
       <use xlink:href="#ma44a16578e" x="963.552496" y="352.44" style="stroke: #000000; stroke-width: 0.8"/>
      </g>
     </g>
     <g id="text_7">
      <!-- 1200 -->
      <g transform="translate(950.827496 367.038437) scale(0.1 -0.1)">
       <use xlink:href="#DejaVuSans-31"/>
       <use xlink:href="#DejaVuSans-32" x="63.623047"/>
       <use xlink:href="#DejaVuSans-30" x="127.246094"/>
       <use xlink:href="#DejaVuSans-30" x="190.869141"/>
      </g>
     </g>
    </g>
    <g id="text_8">
     <!-- Residual -->
     <g transform="translate(569.284375 380.716563) scale(0.1 -0.1)">
      <defs>
       <path id="DejaVuSans-52" d="M 2841 2188 
Q 3044 2119 3236 1894 
Q 3428 1669 3622 1275 
L 4263 0 
L 3584 0 
L 2988 1197 
Q 2756 1666 2539 1819 
Q 2322 1972 1947 1972 
L 1259 1972 
L 1259 0 
L 628 0 
L 628 4666 
L 2053 4666 
Q 2853 4666 3247 4331 
Q 3641 3997 3641 3322 
Q 3641 2881 3436 2590 
Q 3231 2300 2841 2188 
z
M 1259 4147 
L 1259 2491 
L 2053 2491 
Q 2509 2491 2742 2702 
Q 2975 2913 2975 3322 
Q 2975 3731 2742 3939 
Q 2509 4147 2053 4147 
L 1259 4147 
z
" transform="scale(0.015625)"/>
       <path id="DejaVuSans-65" d="M 3597 1894 
L 3597 1613 
L 953 1613 
Q 991 1019 1311 708 
Q 1631 397 2203 397 
Q 2534 397 2845 478 
Q 3156 559 3463 722 
L 3463 178 
Q 3153 47 2828 -22 
Q 2503 -91 2169 -91 
Q 1331 -91 842 396 
Q 353 884 353 1716 
Q 353 2575 817 3079 
Q 1281 3584 2069 3584 
Q 2775 3584 3186 3129 
Q 3597 2675 3597 1894 
z
M 3022 2063 
Q 3016 2534 2758 2815 
Q 2500 3097 2075 3097 
Q 1594 3097 1305 2825 
Q 1016 2553 972 2059 
L 3022 2063 
z
" transform="scale(0.015625)"/>
       <path id="DejaVuSans-73" d="M 2834 3397 
L 2834 2853 
Q 2591 2978 2328 3040 
Q 2066 3103 1784 3103 
Q 1356 3103 1142 2972 
Q 928 2841 928 2578 
Q 928 2378 1081 2264 
Q 1234 2150 1697 2047 
L 1894 2003 
Q 2506 1872 2764 1633 
Q 3022 1394 3022 966 
Q 3022 478 2636 193 
Q 2250 -91 1575 -91 
Q 1294 -91 989 -36 
Q 684 19 347 128 
L 347 722 
Q 666 556 975 473 
Q 1284 391 1588 391 
Q 1994 391 2212 530 
Q 2431 669 2431 922 
Q 2431 1156 2273 1281 
Q 2116 1406 1581 1522 
L 1381 1569 
Q 847 1681 609 1914 
Q 372 2147 372 2553 
Q 372 3047 722 3315 
Q 1072 3584 1716 3584 
Q 2034 3584 2315 3537 
Q 2597 3491 2834 3397 
z
" transform="scale(0.015625)"/>
       <path id="DejaVuSans-69" d="M 603 3500 
L 1178 3500 
L 1178 0 
L 603 0 
L 603 3500 
z
M 603 4863 
L 1178 4863 
L 1178 4134 
L 603 4134 
L 603 4863 
z
" transform="scale(0.015625)"/>
       <path id="DejaVuSans-64" d="M 2906 2969 
L 2906 4863 
L 3481 4863 
L 3481 0 
L 2906 0 
L 2906 525 
Q 2725 213 2448 61 
Q 2172 -91 1784 -91 
Q 1150 -91 751 415 
Q 353 922 353 1747 
Q 353 2572 751 3078 
Q 1150 3584 1784 3584 
Q 2172 3584 2448 3432 
Q 2725 3281 2906 2969 
z
M 947 1747 
Q 947 1113 1208 752 
Q 1469 391 1925 391 
Q 2381 391 2643 752 
Q 2906 1113 2906 1747 
Q 2906 2381 2643 2742 
Q 2381 3103 1925 3103 
Q 1469 3103 1208 2742 
Q 947 2381 947 1747 
z
" transform="scale(0.015625)"/>
       <path id="DejaVuSans-75" d="M 544 1381 
L 544 3500 
L 1119 3500 
L 1119 1403 
Q 1119 906 1312 657 
Q 1506 409 1894 409 
Q 2359 409 2629 706 
Q 2900 1003 2900 1516 
L 2900 3500 
L 3475 3500 
L 3475 0 
L 2900 0 
L 2900 538 
Q 2691 219 2414 64 
Q 2138 -91 1772 -91 
Q 1169 -91 856 284 
Q 544 659 544 1381 
z
M 1991 3584 
L 1991 3584 
z
" transform="scale(0.015625)"/>
       <path id="DejaVuSans-61" d="M 2194 1759 
Q 1497 1759 1228 1600 
Q 959 1441 959 1056 
Q 959 750 1161 570 
Q 1363 391 1709 391 
Q 2188 391 2477 730 
Q 2766 1069 2766 1631 
L 2766 1759 
L 2194 1759 
z
M 3341 1997 
L 3341 0 
L 2766 0 
L 2766 531 
Q 2569 213 2275 61 
Q 1981 -91 1556 -91 
Q 1019 -91 701 211 
Q 384 513 384 1019 
Q 384 1609 779 1909 
Q 1175 2209 1959 2209 
L 2766 2209 
L 2766 2266 
Q 2766 2663 2505 2880 
Q 2244 3097 1772 3097 
Q 1472 3097 1187 3025 
Q 903 2953 641 2809 
L 641 3341 
Q 956 3463 1253 3523 
Q 1550 3584 1831 3584 
Q 2591 3584 2966 3190 
Q 3341 2797 3341 1997 
z
" transform="scale(0.015625)"/>
       <path id="DejaVuSans-6c" d="M 603 4863 
L 1178 4863 
L 1178 0 
L 603 0 
L 603 4863 
z
" transform="scale(0.015625)"/>
      </defs>
      <use xlink:href="#DejaVuSans-52"/>
      <use xlink:href="#DejaVuSans-65" x="64.982422"/>
      <use xlink:href="#DejaVuSans-73" x="126.505859"/>
      <use xlink:href="#DejaVuSans-69" x="178.605469"/>
      <use xlink:href="#DejaVuSans-64" x="206.388672"/>
      <use xlink:href="#DejaVuSans-75" x="269.865234"/>
      <use xlink:href="#DejaVuSans-61" x="333.244141"/>
      <use xlink:href="#DejaVuSans-6c" x="394.523438"/>
     </g>
    </g>
   </g>
   <g id="matplotlib.axis_2">
    <g id="ytick_1">
     <g id="line2d_8">
      <defs>
       <path id="me11424dd5f" d="M 0 0 
L -3.5 0 
" style="stroke: #000000; stroke-width: 0.8"/>
      </defs>
      <g>
       <use xlink:href="#me11424dd5f" x="144" y="335.722268" style="stroke: #000000; stroke-width: 0.8"/>
      </g>
     </g>
     <g id="text_9">
      <!-- 1.C.2.1.1 -->
      <g transform="translate(91.854687 339.521487) scale(0.1 -0.1)">
       <defs>
        <path id="DejaVuSans-2e" d="M 684 794 
L 1344 794 
L 1344 0 
L 684 0 
L 684 794 
z
" transform="scale(0.015625)"/>
        <path id="DejaVuSans-43" d="M 4122 4306 
L 4122 3641 
Q 3803 3938 3442 4084 
Q 3081 4231 2675 4231 
Q 1875 4231 1450 3742 
Q 1025 3253 1025 2328 
Q 1025 1406 1450 917 
Q 1875 428 2675 428 
Q 3081 428 3442 575 
Q 3803 722 4122 1019 
L 4122 359 
Q 3791 134 3420 21 
Q 3050 -91 2638 -91 
Q 1578 -91 968 557 
Q 359 1206 359 2328 
Q 359 3453 968 4101 
Q 1578 4750 2638 4750 
Q 3056 4750 3426 4639 
Q 3797 4528 4122 4306 
z
" transform="scale(0.015625)"/>
       </defs>
       <use xlink:href="#DejaVuSans-31"/>
       <use xlink:href="#DejaVuSans-2e" x="63.623047"/>
       <use xlink:href="#DejaVuSans-43" x="95.410156"/>
       <use xlink:href="#DejaVuSans-2e" x="165.234375"/>
       <use xlink:href="#DejaVuSans-32" x="197.021484"/>
       <use xlink:href="#DejaVuSans-2e" x="260.644531"/>
       <use xlink:href="#DejaVuSans-31" x="292.431641"/>
       <use xlink:href="#DejaVuSans-2e" x="356.054688"/>
       <use xlink:href="#DejaVuSans-31" x="387.841797"/>
      </g>
     </g>
    </g>
    <g id="ytick_2">
     <g id="line2d_9">
      <g>
       <use xlink:href="#me11424dd5f" x="144" y="321.433608" style="stroke: #000000; stroke-width: 0.8"/>
      </g>
     </g>
     <g id="text_10">
      <!-- 1.C.2.1.10 -->
      <g transform="translate(85.492188 325.232827) scale(0.1 -0.1)">
       <use xlink:href="#DejaVuSans-31"/>
       <use xlink:href="#DejaVuSans-2e" x="63.623047"/>
       <use xlink:href="#DejaVuSans-43" x="95.410156"/>
       <use xlink:href="#DejaVuSans-2e" x="165.234375"/>
       <use xlink:href="#DejaVuSans-32" x="197.021484"/>
       <use xlink:href="#DejaVuSans-2e" x="260.644531"/>
       <use xlink:href="#DejaVuSans-31" x="292.431641"/>
       <use xlink:href="#DejaVuSans-2e" x="356.054688"/>
       <use xlink:href="#DejaVuSans-31" x="387.841797"/>
       <use xlink:href="#DejaVuSans-30" x="451.464844"/>
      </g>
     </g>
    </g>
    <g id="ytick_3">
     <g id="line2d_10">
      <g>
       <use xlink:href="#me11424dd5f" x="144" y="307.144948" style="stroke: #000000; stroke-width: 0.8"/>
      </g>
     </g>
     <g id="text_11">
      <!-- 1.C.2.1.11 -->
      <g transform="translate(85.492188 310.944167) scale(0.1 -0.1)">
       <use xlink:href="#DejaVuSans-31"/>
       <use xlink:href="#DejaVuSans-2e" x="63.623047"/>
       <use xlink:href="#DejaVuSans-43" x="95.410156"/>
       <use xlink:href="#DejaVuSans-2e" x="165.234375"/>
       <use xlink:href="#DejaVuSans-32" x="197.021484"/>
       <use xlink:href="#DejaVuSans-2e" x="260.644531"/>
       <use xlink:href="#DejaVuSans-31" x="292.431641"/>
       <use xlink:href="#DejaVuSans-2e" x="356.054688"/>
       <use xlink:href="#DejaVuSans-31" x="387.841797"/>
       <use xlink:href="#DejaVuSans-31" x="451.464844"/>
      </g>
     </g>
    </g>
    <g id="ytick_4">
     <g id="line2d_11">
      <g>
       <use xlink:href="#me11424dd5f" x="144" y="292.856289" style="stroke: #000000; stroke-width: 0.8"/>
      </g>
     </g>
     <g id="text_12">
      <!-- 1.C.2.1.13 -->
      <g transform="translate(85.492188 296.655507) scale(0.1 -0.1)">
       <defs>
        <path id="DejaVuSans-33" d="M 2597 2516 
Q 3050 2419 3304 2112 
Q 3559 1806 3559 1356 
Q 3559 666 3084 287 
Q 2609 -91 1734 -91 
Q 1441 -91 1130 -33 
Q 819 25 488 141 
L 488 750 
Q 750 597 1062 519 
Q 1375 441 1716 441 
Q 2309 441 2620 675 
Q 2931 909 2931 1356 
Q 2931 1769 2642 2001 
Q 2353 2234 1838 2234 
L 1294 2234 
L 1294 2753 
L 1863 2753 
Q 2328 2753 2575 2939 
Q 2822 3125 2822 3475 
Q 2822 3834 2567 4026 
Q 2313 4219 1838 4219 
Q 1578 4219 1281 4162 
Q 984 4106 628 3988 
L 628 4550 
Q 988 4650 1302 4700 
Q 1616 4750 1894 4750 
Q 2613 4750 3031 4423 
Q 3450 4097 3450 3541 
Q 3450 3153 3228 2886 
Q 3006 2619 2597 2516 
z
" transform="scale(0.015625)"/>
       </defs>
       <use xlink:href="#DejaVuSans-31"/>
       <use xlink:href="#DejaVuSans-2e" x="63.623047"/>
       <use xlink:href="#DejaVuSans-43" x="95.410156"/>
       <use xlink:href="#DejaVuSans-2e" x="165.234375"/>
       <use xlink:href="#DejaVuSans-32" x="197.021484"/>
       <use xlink:href="#DejaVuSans-2e" x="260.644531"/>
       <use xlink:href="#DejaVuSans-31" x="292.431641"/>
       <use xlink:href="#DejaVuSans-2e" x="356.054688"/>
       <use xlink:href="#DejaVuSans-31" x="387.841797"/>
       <use xlink:href="#DejaVuSans-33" x="451.464844"/>
      </g>
     </g>
    </g>
    <g id="ytick_5">
     <g id="line2d_12">
      <g>
       <use xlink:href="#me11424dd5f" x="144" y="278.567629" style="stroke: #000000; stroke-width: 0.8"/>
      </g>
     </g>
     <g id="text_13">
      <!-- 1.C.2.1.14 -->
      <g transform="translate(85.492188 282.366848) scale(0.1 -0.1)">
       <use xlink:href="#DejaVuSans-31"/>
       <use xlink:href="#DejaVuSans-2e" x="63.623047"/>
       <use xlink:href="#DejaVuSans-43" x="95.410156"/>
       <use xlink:href="#DejaVuSans-2e" x="165.234375"/>
       <use xlink:href="#DejaVuSans-32" x="197.021484"/>
       <use xlink:href="#DejaVuSans-2e" x="260.644531"/>
       <use xlink:href="#DejaVuSans-31" x="292.431641"/>
       <use xlink:href="#DejaVuSans-2e" x="356.054688"/>
       <use xlink:href="#DejaVuSans-31" x="387.841797"/>
       <use xlink:href="#DejaVuSans-34" x="451.464844"/>
      </g>
     </g>
    </g>
    <g id="ytick_6">
     <g id="line2d_13">
      <g>
       <use xlink:href="#me11424dd5f" x="144" y="264.278969" style="stroke: #000000; stroke-width: 0.8"/>
      </g>
     </g>
     <g id="text_14">
      <!-- 1.C.2.1.15 -->
      <g transform="translate(85.492188 268.078188) scale(0.1 -0.1)">
       <defs>
        <path id="DejaVuSans-35" d="M 691 4666 
L 3169 4666 
L 3169 4134 
L 1269 4134 
L 1269 2991 
Q 1406 3038 1543 3061 
Q 1681 3084 1819 3084 
Q 2600 3084 3056 2656 
Q 3513 2228 3513 1497 
Q 3513 744 3044 326 
Q 2575 -91 1722 -91 
Q 1428 -91 1123 -41 
Q 819 9 494 109 
L 494 744 
Q 775 591 1075 516 
Q 1375 441 1709 441 
Q 2250 441 2565 725 
Q 2881 1009 2881 1497 
Q 2881 1984 2565 2268 
Q 2250 2553 1709 2553 
Q 1456 2553 1204 2497 
Q 953 2441 691 2322 
L 691 4666 
z
" transform="scale(0.015625)"/>
       </defs>
       <use xlink:href="#DejaVuSans-31"/>
       <use xlink:href="#DejaVuSans-2e" x="63.623047"/>
       <use xlink:href="#DejaVuSans-43" x="95.410156"/>
       <use xlink:href="#DejaVuSans-2e" x="165.234375"/>
       <use xlink:href="#DejaVuSans-32" x="197.021484"/>
       <use xlink:href="#DejaVuSans-2e" x="260.644531"/>
       <use xlink:href="#DejaVuSans-31" x="292.431641"/>
       <use xlink:href="#DejaVuSans-2e" x="356.054688"/>
       <use xlink:href="#DejaVuSans-31" x="387.841797"/>
       <use xlink:href="#DejaVuSans-35" x="451.464844"/>
      </g>
     </g>
    </g>
    <g id="ytick_7">
     <g id="line2d_14">
      <g>
       <use xlink:href="#me11424dd5f" x="144" y="249.990309" style="stroke: #000000; stroke-width: 0.8"/>
      </g>
     </g>
     <g id="text_15">
      <!-- 1.C.2.1.2 -->
      <g transform="translate(91.854687 253.789528) scale(0.1 -0.1)">
       <use xlink:href="#DejaVuSans-31"/>
       <use xlink:href="#DejaVuSans-2e" x="63.623047"/>
       <use xlink:href="#DejaVuSans-43" x="95.410156"/>
       <use xlink:href="#DejaVuSans-2e" x="165.234375"/>
       <use xlink:href="#DejaVuSans-32" x="197.021484"/>
       <use xlink:href="#DejaVuSans-2e" x="260.644531"/>
       <use xlink:href="#DejaVuSans-31" x="292.431641"/>
       <use xlink:href="#DejaVuSans-2e" x="356.054688"/>
       <use xlink:href="#DejaVuSans-32" x="387.841797"/>
      </g>
     </g>
    </g>
    <g id="ytick_8">
     <g id="line2d_15">
      <g>
       <use xlink:href="#me11424dd5f" x="144" y="235.701649" style="stroke: #000000; stroke-width: 0.8"/>
      </g>
     </g>
     <g id="text_16">
      <!-- 1.C.2.1.3 -->
      <g transform="translate(91.854687 239.500868) scale(0.1 -0.1)">
       <use xlink:href="#DejaVuSans-31"/>
       <use xlink:href="#DejaVuSans-2e" x="63.623047"/>
       <use xlink:href="#DejaVuSans-43" x="95.410156"/>
       <use xlink:href="#DejaVuSans-2e" x="165.234375"/>
       <use xlink:href="#DejaVuSans-32" x="197.021484"/>
       <use xlink:href="#DejaVuSans-2e" x="260.644531"/>
       <use xlink:href="#DejaVuSans-31" x="292.431641"/>
       <use xlink:href="#DejaVuSans-2e" x="356.054688"/>
       <use xlink:href="#DejaVuSans-33" x="387.841797"/>
      </g>
     </g>
    </g>
    <g id="ytick_9">
     <g id="line2d_16">
      <g>
       <use xlink:href="#me11424dd5f" x="144" y="221.41299" style="stroke: #000000; stroke-width: 0.8"/>
      </g>
     </g>
     <g id="text_17">
      <!-- 1.C.2.1.4 -->
      <g transform="translate(91.854687 225.212208) scale(0.1 -0.1)">
       <use xlink:href="#DejaVuSans-31"/>
       <use xlink:href="#DejaVuSans-2e" x="63.623047"/>
       <use xlink:href="#DejaVuSans-43" x="95.410156"/>
       <use xlink:href="#DejaVuSans-2e" x="165.234375"/>
       <use xlink:href="#DejaVuSans-32" x="197.021484"/>
       <use xlink:href="#DejaVuSans-2e" x="260.644531"/>
       <use xlink:href="#DejaVuSans-31" x="292.431641"/>
       <use xlink:href="#DejaVuSans-2e" x="356.054688"/>
       <use xlink:href="#DejaVuSans-34" x="387.841797"/>
      </g>
     </g>
    </g>
    <g id="ytick_10">
     <g id="line2d_17">
      <g>
       <use xlink:href="#me11424dd5f" x="144" y="207.12433" style="stroke: #000000; stroke-width: 0.8"/>
      </g>
     </g>
     <g id="text_18">
      <!-- 1.C.2.1.5 -->
      <g transform="translate(91.854687 210.923549) scale(0.1 -0.1)">
       <use xlink:href="#DejaVuSans-31"/>
       <use xlink:href="#DejaVuSans-2e" x="63.623047"/>
       <use xlink:href="#DejaVuSans-43" x="95.410156"/>
       <use xlink:href="#DejaVuSans-2e" x="165.234375"/>
       <use xlink:href="#DejaVuSans-32" x="197.021484"/>
       <use xlink:href="#DejaVuSans-2e" x="260.644531"/>
       <use xlink:href="#DejaVuSans-31" x="292.431641"/>
       <use xlink:href="#DejaVuSans-2e" x="356.054688"/>
       <use xlink:href="#DejaVuSans-35" x="387.841797"/>
      </g>
     </g>
    </g>
    <g id="ytick_11">
     <g id="line2d_18">
      <g>
       <use xlink:href="#me11424dd5f" x="144" y="192.83567" style="stroke: #000000; stroke-width: 0.8"/>
      </g>
     </g>
     <g id="text_19">
      <!-- 1.C.2.1.6 -->
      <g transform="translate(91.854687 196.634889) scale(0.1 -0.1)">
       <use xlink:href="#DejaVuSans-31"/>
       <use xlink:href="#DejaVuSans-2e" x="63.623047"/>
       <use xlink:href="#DejaVuSans-43" x="95.410156"/>
       <use xlink:href="#DejaVuSans-2e" x="165.234375"/>
       <use xlink:href="#DejaVuSans-32" x="197.021484"/>
       <use xlink:href="#DejaVuSans-2e" x="260.644531"/>
       <use xlink:href="#DejaVuSans-31" x="292.431641"/>
       <use xlink:href="#DejaVuSans-2e" x="356.054688"/>
       <use xlink:href="#DejaVuSans-36" x="387.841797"/>
      </g>
     </g>
    </g>
    <g id="ytick_12">
     <g id="line2d_19">
      <g>
       <use xlink:href="#me11424dd5f" x="144" y="178.54701" style="stroke: #000000; stroke-width: 0.8"/>
      </g>
     </g>
     <g id="text_20">
      <!-- 1.C.2.1.7 -->
      <g transform="translate(91.854687 182.346229) scale(0.1 -0.1)">
       <defs>
        <path id="DejaVuSans-37" d="M 525 4666 
L 3525 4666 
L 3525 4397 
L 1831 0 
L 1172 0 
L 2766 4134 
L 525 4134 
L 525 4666 
z
" transform="scale(0.015625)"/>
       </defs>
       <use xlink:href="#DejaVuSans-31"/>
       <use xlink:href="#DejaVuSans-2e" x="63.623047"/>
       <use xlink:href="#DejaVuSans-43" x="95.410156"/>
       <use xlink:href="#DejaVuSans-2e" x="165.234375"/>
       <use xlink:href="#DejaVuSans-32" x="197.021484"/>
       <use xlink:href="#DejaVuSans-2e" x="260.644531"/>
       <use xlink:href="#DejaVuSans-31" x="292.431641"/>
       <use xlink:href="#DejaVuSans-2e" x="356.054688"/>
       <use xlink:href="#DejaVuSans-37" x="387.841797"/>
      </g>
     </g>
    </g>
    <g id="ytick_13">
     <g id="line2d_20">
      <g>
       <use xlink:href="#me11424dd5f" x="144" y="164.258351" style="stroke: #000000; stroke-width: 0.8"/>
      </g>
     </g>
     <g id="text_21">
      <!-- 1.C.2.1.8 -->
      <g transform="translate(91.854687 168.057569) scale(0.1 -0.1)">
       <use xlink:href="#DejaVuSans-31"/>
       <use xlink:href="#DejaVuSans-2e" x="63.623047"/>
       <use xlink:href="#DejaVuSans-43" x="95.410156"/>
       <use xlink:href="#DejaVuSans-2e" x="165.234375"/>
       <use xlink:href="#DejaVuSans-32" x="197.021484"/>
       <use xlink:href="#DejaVuSans-2e" x="260.644531"/>
       <use xlink:href="#DejaVuSans-31" x="292.431641"/>
       <use xlink:href="#DejaVuSans-2e" x="356.054688"/>
       <use xlink:href="#DejaVuSans-38" x="387.841797"/>
      </g>
     </g>
    </g>
    <g id="ytick_14">
     <g id="line2d_21">
      <g>
       <use xlink:href="#me11424dd5f" x="144" y="149.969691" style="stroke: #000000; stroke-width: 0.8"/>
      </g>
     </g>
     <g id="text_22">
      <!-- 1.C.2.1.9 -->
      <g transform="translate(91.854687 153.768909) scale(0.1 -0.1)">
       <defs>
        <path id="DejaVuSans-39" d="M 703 97 
L 703 672 
Q 941 559 1184 500 
Q 1428 441 1663 441 
Q 2288 441 2617 861 
Q 2947 1281 2994 2138 
Q 2813 1869 2534 1725 
Q 2256 1581 1919 1581 
Q 1219 1581 811 2004 
Q 403 2428 403 3163 
Q 403 3881 828 4315 
Q 1253 4750 1959 4750 
Q 2769 4750 3195 4129 
Q 3622 3509 3622 2328 
Q 3622 1225 3098 567 
Q 2575 -91 1691 -91 
Q 1453 -91 1209 -44 
Q 966 3 703 97 
z
M 1959 2075 
Q 2384 2075 2632 2365 
Q 2881 2656 2881 3163 
Q 2881 3666 2632 3958 
Q 2384 4250 1959 4250 
Q 1534 4250 1286 3958 
Q 1038 3666 1038 3163 
Q 1038 2656 1286 2365 
Q 1534 2075 1959 2075 
z
" transform="scale(0.015625)"/>
       </defs>
       <use xlink:href="#DejaVuSans-31"/>
       <use xlink:href="#DejaVuSans-2e" x="63.623047"/>
       <use xlink:href="#DejaVuSans-43" x="95.410156"/>
       <use xlink:href="#DejaVuSans-2e" x="165.234375"/>
       <use xlink:href="#DejaVuSans-32" x="197.021484"/>
       <use xlink:href="#DejaVuSans-2e" x="260.644531"/>
       <use xlink:href="#DejaVuSans-31" x="292.431641"/>
       <use xlink:href="#DejaVuSans-2e" x="356.054688"/>
       <use xlink:href="#DejaVuSans-39" x="387.841797"/>
      </g>
     </g>
    </g>
    <g id="ytick_15">
     <g id="line2d_22">
      <g>
       <use xlink:href="#me11424dd5f" x="144" y="135.681031" style="stroke: #000000; stroke-width: 0.8"/>
      </g>
     </g>
     <g id="text_23">
      <!-- 1.C.2.2.1 -->
      <g transform="translate(91.854687 139.48025) scale(0.1 -0.1)">
       <use xlink:href="#DejaVuSans-31"/>
       <use xlink:href="#DejaVuSans-2e" x="63.623047"/>
       <use xlink:href="#DejaVuSans-43" x="95.410156"/>
       <use xlink:href="#DejaVuSans-2e" x="165.234375"/>
       <use xlink:href="#DejaVuSans-32" x="197.021484"/>
       <use xlink:href="#DejaVuSans-2e" x="260.644531"/>
       <use xlink:href="#DejaVuSans-32" x="292.431641"/>
       <use xlink:href="#DejaVuSans-2e" x="356.054688"/>
       <use xlink:href="#DejaVuSans-31" x="387.841797"/>
      </g>
     </g>
    </g>
    <g id="ytick_16">
     <g id="line2d_23">
      <g>
       <use xlink:href="#me11424dd5f" x="144" y="121.392371" style="stroke: #000000; stroke-width: 0.8"/>
      </g>
     </g>
     <g id="text_24">
      <!-- 1.C.2.2.2 -->
      <g transform="translate(91.854687 125.19159) scale(0.1 -0.1)">
       <use xlink:href="#DejaVuSans-31"/>
       <use xlink:href="#DejaVuSans-2e" x="63.623047"/>
       <use xlink:href="#DejaVuSans-43" x="95.410156"/>
       <use xlink:href="#DejaVuSans-2e" x="165.234375"/>
       <use xlink:href="#DejaVuSans-32" x="197.021484"/>
       <use xlink:href="#DejaVuSans-2e" x="260.644531"/>
       <use xlink:href="#DejaVuSans-32" x="292.431641"/>
       <use xlink:href="#DejaVuSans-2e" x="356.054688"/>
       <use xlink:href="#DejaVuSans-32" x="387.841797"/>
      </g>
     </g>
    </g>
    <g id="ytick_17">
     <g id="line2d_24">
      <g>
       <use xlink:href="#me11424dd5f" x="144" y="107.103711" style="stroke: #000000; stroke-width: 0.8"/>
      </g>
     </g>
     <g id="text_25">
      <!-- 1.C.2.2.3 -->
      <g transform="translate(91.854687 110.90293) scale(0.1 -0.1)">
       <use xlink:href="#DejaVuSans-31"/>
       <use xlink:href="#DejaVuSans-2e" x="63.623047"/>
       <use xlink:href="#DejaVuSans-43" x="95.410156"/>
       <use xlink:href="#DejaVuSans-2e" x="165.234375"/>
       <use xlink:href="#DejaVuSans-32" x="197.021484"/>
       <use xlink:href="#DejaVuSans-2e" x="260.644531"/>
       <use xlink:href="#DejaVuSans-32" x="292.431641"/>
       <use xlink:href="#DejaVuSans-2e" x="356.054688"/>
       <use xlink:href="#DejaVuSans-33" x="387.841797"/>
      </g>
     </g>
    </g>
    <g id="ytick_18">
     <g id="line2d_25">
      <g>
       <use xlink:href="#me11424dd5f" x="144" y="92.815052" style="stroke: #000000; stroke-width: 0.8"/>
      </g>
     </g>
     <g id="text_26">
      <!-- 1.C.2.3.1 -->
      <g transform="translate(91.854687 96.61427) scale(0.1 -0.1)">
       <use xlink:href="#DejaVuSans-31"/>
       <use xlink:href="#DejaVuSans-2e" x="63.623047"/>
       <use xlink:href="#DejaVuSans-43" x="95.410156"/>
       <use xlink:href="#DejaVuSans-2e" x="165.234375"/>
       <use xlink:href="#DejaVuSans-32" x="197.021484"/>
       <use xlink:href="#DejaVuSans-2e" x="260.644531"/>
       <use xlink:href="#DejaVuSans-33" x="292.431641"/>
       <use xlink:href="#DejaVuSans-2e" x="356.054688"/>
       <use xlink:href="#DejaVuSans-31" x="387.841797"/>
      </g>
     </g>
    </g>
    <g id="ytick_19">
     <g id="line2d_26">
      <g>
       <use xlink:href="#me11424dd5f" x="144" y="78.526392" style="stroke: #000000; stroke-width: 0.8"/>
      </g>
     </g>
     <g id="text_27">
      <!-- 1.C.2.3.2 -->
      <g transform="translate(91.854687 82.325611) scale(0.1 -0.1)">
       <use xlink:href="#DejaVuSans-31"/>
       <use xlink:href="#DejaVuSans-2e" x="63.623047"/>
       <use xlink:href="#DejaVuSans-43" x="95.410156"/>
       <use xlink:href="#DejaVuSans-2e" x="165.234375"/>
       <use xlink:href="#DejaVuSans-32" x="197.021484"/>
       <use xlink:href="#DejaVuSans-2e" x="260.644531"/>
       <use xlink:href="#DejaVuSans-33" x="292.431641"/>
       <use xlink:href="#DejaVuSans-2e" x="356.054688"/>
       <use xlink:href="#DejaVuSans-32" x="387.841797"/>
      </g>
     </g>
    </g>
    <g id="ytick_20">
     <g id="line2d_27">
      <g>
       <use xlink:href="#me11424dd5f" x="144" y="64.237732" style="stroke: #000000; stroke-width: 0.8"/>
      </g>
     </g>
     <g id="text_28">
      <!-- 1.C.2.3.3 -->
      <g transform="translate(91.854687 68.036951) scale(0.1 -0.1)">
       <use xlink:href="#DejaVuSans-31"/>
       <use xlink:href="#DejaVuSans-2e" x="63.623047"/>
       <use xlink:href="#DejaVuSans-43" x="95.410156"/>
       <use xlink:href="#DejaVuSans-2e" x="165.234375"/>
       <use xlink:href="#DejaVuSans-32" x="197.021484"/>
       <use xlink:href="#DejaVuSans-2e" x="260.644531"/>
       <use xlink:href="#DejaVuSans-33" x="292.431641"/>
       <use xlink:href="#DejaVuSans-2e" x="356.054688"/>
       <use xlink:href="#DejaVuSans-33" x="387.841797"/>
      </g>
     </g>
    </g>
   </g>
   <g id="patch_62">
    <path d="M 144 352.44 
L 144 47.52 
" style="fill: none; stroke: #000000; stroke-width: 0.8; stroke-linejoin: miter; stroke-linecap: square"/>
   </g>
   <g id="patch_63">
    <path d="M 1036.8 352.44 
L 1036.8 47.52 
" style="fill: none; stroke: #000000; stroke-width: 0.8; stroke-linejoin: miter; stroke-linecap: square"/>
   </g>
   <g id="patch_64">
    <path d="M 144 352.44 
L 1036.8 352.44 
" style="fill: none; stroke: #000000; stroke-width: 0.8; stroke-linejoin: miter; stroke-linecap: square"/>
   </g>
   <g id="patch_65">
    <path d="M 144 47.52 
L 1036.8 47.52 
" style="fill: none; stroke: #000000; stroke-width: 0.8; stroke-linejoin: miter; stroke-linecap: square"/>
   </g>
   <g id="text_29">
    <!-- 1.C.2 Holes -->
    <g transform="translate(556.186875 41.52) scale(0.12 -0.12)">
     <defs>
      <path id="DejaVuSans-20" transform="scale(0.015625)"/>
      <path id="DejaVuSans-48" d="M 628 4666 
L 1259 4666 
L 1259 2753 
L 3553 2753 
L 3553 4666 
L 4184 4666 
L 4184 0 
L 3553 0 
L 3553 2222 
L 1259 2222 
L 1259 0 
L 628 0 
L 628 4666 
z
" transform="scale(0.015625)"/>
      <path id="DejaVuSans-6f" d="M 1959 3097 
Q 1497 3097 1228 2736 
Q 959 2375 959 1747 
Q 959 1119 1226 758 
Q 1494 397 1959 397 
Q 2419 397 2687 759 
Q 2956 1122 2956 1747 
Q 2956 2369 2687 2733 
Q 2419 3097 1959 3097 
z
M 1959 3584 
Q 2709 3584 3137 3096 
Q 3566 2609 3566 1747 
Q 3566 888 3137 398 
Q 2709 -91 1959 -91 
Q 1206 -91 779 398 
Q 353 888 353 1747 
Q 353 2609 779 3096 
Q 1206 3584 1959 3584 
z
" transform="scale(0.015625)"/>
     </defs>
     <use xlink:href="#DejaVuSans-31"/>
     <use xlink:href="#DejaVuSans-2e" x="63.623047"/>
     <use xlink:href="#DejaVuSans-43" x="95.410156"/>
     <use xlink:href="#DejaVuSans-2e" x="165.234375"/>
     <use xlink:href="#DejaVuSans-32" x="197.021484"/>
     <use xlink:href="#DejaVuSans-20" x="260.644531"/>
     <use xlink:href="#DejaVuSans-48" x="292.431641"/>
     <use xlink:href="#DejaVuSans-6f" x="367.626953"/>
     <use xlink:href="#DejaVuSans-6c" x="428.808594"/>
     <use xlink:href="#DejaVuSans-65" x="456.591797"/>
     <use xlink:href="#DejaVuSans-73" x="518.115234"/>
    </g>
   </g>
  </g>
 </g>
 <defs>
  <clipPath id="p240b80925b">
   <rect x="144" y="47.52" width="892.8" height="304.92"/>
  </clipPath>
 </defs>
</svg>
