<?xml version="1.0" encoding="utf-8" standalone="no"?>
<!DOCTYPE svg PUBLIC "-//W3C//DTD SVG 1.1//EN"
  "http://www.w3.org/Graphics/SVG/1.1/DTD/svg11.dtd">
<svg xmlns:xlink="http://www.w3.org/1999/xlink" width="1152pt" height="345.6pt" viewBox="0 0 1152 345.6" xmlns="http://www.w3.org/2000/svg" version="1.1">
 <metadata>
  <rdf:RDF xmlns:dc="http://purl.org/dc/elements/1.1/" xmlns:cc="http://creativecommons.org/ns#" xmlns:rdf="http://www.w3.org/1999/02/22-rdf-syntax-ns#">
   <cc:Work>
    <dc:type rdf:resource="http://purl.org/dc/dcmitype/StillImage"/>
    <dc:date>2024-10-25T07:48:57.829179</dc:date>
    <dc:format>image/svg+xml</dc:format>
    <dc:creator>
     <cc:Agent>
      <dc:title>Matplotlib v3.9.2, https://matplotlib.org/</dc:title>
     </cc:Agent>
    </dc:creator>
   </cc:Work>
  </rdf:RDF>
 </metadata>
 <defs>
  <style type="text/css">*{stroke-linejoin: round; stroke-linecap: butt}</style>
 </defs>
 <g id="figure_1">
  <g id="patch_1">
   <path d="M 0 345.6 
L 1152 345.6 
L 1152 0 
L 0 0 
z
" style="fill: #ffffff"/>
  </g>
  <g id="axes_1">
   <g id="patch_2">
    <path d="M 144 307.584 
L 1036.8 307.584 
L 1036.8 41.472 
L 144 41.472 
z
" style="fill: #ffffff"/>
   </g>
   <g id="patch_3">
    <path d="M 144 292.14806 
L 530.434114 292.14806 
L 530.434114 291.606448 
L 144 291.606448 
z
" clip-path="url(#pc35a30be46)" style="fill: #ff0000"/>
   </g>
   <g id="patch_4">
    <path d="M 144 274.094328 
L 586.618956 274.094328 
L 586.618956 273.552716 
L 144 273.552716 
z
" clip-path="url(#pc35a30be46)" style="fill: #ff0000"/>
   </g>
   <g id="patch_5">
    <path d="M 144 256.040597 
L 530.107458 256.040597 
L 530.107458 255.498985 
L 144 255.498985 
z
" clip-path="url(#pc35a30be46)" style="fill: #ff0000"/>
   </g>
   <g id="patch_6">
    <path d="M 144 237.986866 
L 499.728445 237.986866 
L 499.728445 237.445254 
L 144 237.445254 
z
" clip-path="url(#pc35a30be46)" style="fill: #ff0000"/>
   </g>
   <g id="patch_7">
    <path d="M 144 219.933134 
L 413.654574 219.933134 
L 413.654574 219.391522 
L 144 219.391522 
z
" clip-path="url(#pc35a30be46)" style="fill: #ff0000"/>
   </g>
   <g id="patch_8">
    <path d="M 144 201.879403 
L 632.840788 201.879403 
L 632.840788 201.337791 
L 144 201.337791 
z
" clip-path="url(#pc35a30be46)" style="fill: #ff0000"/>
   </g>
   <g id="patch_9">
    <path d="M 144 183.825672 
L 661.586521 183.825672 
L 661.586521 183.28406 
L 144 183.28406 
z
" clip-path="url(#pc35a30be46)" style="fill: #ff0000"/>
   </g>
   <g id="patch_10">
    <path d="M 144 165.77194 
L 675.632731 165.77194 
L 675.632731 165.230328 
L 144 165.230328 
z
" clip-path="url(#pc35a30be46)" style="fill: #ff0000"/>
   </g>
   <g id="patch_11">
    <path d="M 144 147.718209 
L 669.589594 147.718209 
L 669.589594 147.176597 
L 144 147.176597 
z
" clip-path="url(#pc35a30be46)" style="fill: #ff0000"/>
   </g>
   <g id="patch_12">
    <path d="M 144 129.664478 
L 353.876516 129.664478 
L 353.876516 129.122866 
L 144 129.122866 
z
" clip-path="url(#pc35a30be46)" style="fill: #ff0000"/>
   </g>
   <g id="patch_13">
    <path d="M 144 111.610746 
L 309.61462 111.610746 
L 309.61462 111.069134 
L 144 111.069134 
z
" clip-path="url(#pc35a30be46)" style="fill: #ff0000"/>
   </g>
   <g id="patch_14">
    <path d="M 144 93.557015 
L 309.61462 93.557015 
L 309.61462 93.015403 
L 144 93.015403 
z
" clip-path="url(#pc35a30be46)" style="fill: #ff0000"/>
   </g>
   <g id="patch_15">
    <path d="M 144 75.503284 
L 994.285714 75.503284 
L 994.285714 74.961672 
L 144 74.961672 
z
" clip-path="url(#pc35a30be46)" style="fill: #ff0000"/>
   </g>
   <g id="patch_16">
    <path d="M 144 57.449552 
L 888.449152 57.449552 
L 888.449152 56.90794 
L 144 56.90794 
z
" clip-path="url(#pc35a30be46)" style="fill: #ff0000"/>
   </g>
   <g id="patch_17">
    <path d="M 220.600845 295.488 
L 237.750288 295.488 
L 237.750288 288.266507 
L 220.600845 288.266507 
z
" clip-path="url(#pc35a30be46)" style="fill: #f77189"/>
   </g>
   <g id="patch_18">
    <path d="M 220.437517 277.434269 
L 238.076944 277.434269 
L 238.076944 270.212776 
L 220.437517 270.212776 
z
" clip-path="url(#pc35a30be46)" style="fill: #f77189"/>
   </g>
   <g id="patch_19">
    <path d="M 220.600845 259.380537 
L 238.076944 259.380537 
L 238.076944 252.159045 
L 220.600845 252.159045 
z
" clip-path="url(#pc35a30be46)" style="fill: #f77189"/>
   </g>
   <g id="patch_20">
    <path d="M 221.254157 241.326806 
L 237.096976 241.326806 
L 237.096976 234.105313 
L 221.254157 234.105313 
z
" clip-path="url(#pc35a30be46)" style="fill: #f77189"/>
   </g>
   <g id="patch_21">
    <path d="M 220.437517 223.273075 
L 238.240272 223.273075 
L 238.240272 216.051582 
L 220.437517 216.051582 
z
" clip-path="url(#pc35a30be46)" style="fill: #f77189"/>
   </g>
   <g id="patch_22">
    <path d="M 273.355798 295.488 
L 284.625432 295.488 
L 284.625432 288.266507 
L 273.355798 288.266507 
z
" clip-path="url(#pc35a30be46)" style="fill: #f7755a"/>
   </g>
   <g id="patch_23">
    <path d="M 273.682454 277.434269 
L 284.952088 277.434269 
L 284.952088 270.212776 
L 273.682454 270.212776 
z
" clip-path="url(#pc35a30be46)" style="fill: #f7755a"/>
   </g>
   <g id="patch_24">
    <path d="M 273.355798 259.380537 
L 284.625432 259.380537 
L 284.625432 252.159045 
L 273.355798 252.159045 
z
" clip-path="url(#pc35a30be46)" style="fill: #f7755a"/>
   </g>
   <g id="patch_25">
    <path d="M 274.499094 241.326806 
L 285.6054 241.326806 
L 285.6054 234.105313 
L 274.499094 234.105313 
z
" clip-path="url(#pc35a30be46)" style="fill: #f7755a"/>
   </g>
   <g id="patch_26">
    <path d="M 272.865814 223.273075 
L 282.175512 223.273075 
L 282.175512 216.051582 
L 272.865814 216.051582 
z
" clip-path="url(#pc35a30be46)" style="fill: #f7755a"/>
   </g>
   <g id="patch_27">
    <path d="M 389.808682 259.380537 
L 440.277043 259.380537 
L 440.277043 252.159045 
L 389.808682 252.159045 
z
" clip-path="url(#pc35a30be46)" style="fill: #e48432"/>
   </g>
   <g id="patch_28">
    <path d="M 393.565227 295.488 
L 438.317107 295.488 
L 438.317107 288.266507 
L 393.565227 288.266507 
z
" clip-path="url(#pc35a30be46)" style="fill: #e48432"/>
   </g>
   <g id="patch_29">
    <path d="M 381.805609 241.326806 
L 435.377202 241.326806 
L 435.377202 234.105313 
L 381.805609 234.105313 
z
" clip-path="url(#pc35a30be46)" style="fill: #e48432"/>
   </g>
   <g id="patch_30">
    <path d="M 393.075243 277.434269 
L 439.623731 277.434269 
L 439.623731 270.212776 
L 393.075243 270.212776 
z
" clip-path="url(#pc35a30be46)" style="fill: #e48432"/>
   </g>
   <g id="patch_31">
    <path d="M 516.877888 205.219343 
L 632.840788 205.219343 
L 632.840788 197.997851 
L 516.877888 197.997851 
z
" clip-path="url(#pc35a30be46)" style="fill: #cc9132"/>
   </g>
   <g id="patch_32">
    <path d="M 380.662313 223.273075 
L 413.654574 223.273075 
L 413.654574 216.051582 
L 380.662313 216.051582 
z
" clip-path="url(#pc35a30be46)" style="fill: #cc9132"/>
   </g>
   <g id="patch_33">
    <path d="M 144.163328 205.219343 
L 374.619176 205.219343 
L 374.619176 197.997851 
L 144.163328 197.997851 
z
" clip-path="url(#pc35a30be46)" style="fill: #b89932"/>
   </g>
   <g id="patch_34">
    <path d="M 403.528237 205.219343 
L 413.491246 205.219343 
L 413.491246 197.997851 
L 403.528237 197.997851 
z
" clip-path="url(#pc35a30be46)" style="fill: #a69f31"/>
   </g>
   <g id="patch_35">
    <path d="M 144.163328 187.165612 
L 172.909061 187.165612 
L 172.909061 179.944119 
L 144.163328 179.944119 
z
" clip-path="url(#pc35a30be46)" style="fill: #91a531"/>
   </g>
   <g id="patch_36">
    <path d="M 259.14626 187.165612 
L 375.272488 187.165612 
L 375.272488 179.944119 
L 259.14626 179.944119 
z
" clip-path="url(#pc35a30be46)" style="fill: #74ac31"/>
   </g>
   <g id="patch_37">
    <path d="M 406.141485 187.165612 
L 498.258493 187.165612 
L 498.258493 179.944119 
L 406.141485 179.944119 
z
" clip-path="url(#pc35a30be46)" style="fill: #31b338"/>
   </g>
   <g id="patch_38">
    <path d="M 626.960979 187.165612 
L 661.586521 187.165612 
L 661.586521 179.944119 
L 626.960979 179.944119 
z
" clip-path="url(#pc35a30be46)" style="fill: #33b174"/>
   </g>
   <g id="patch_39">
    <path d="M 144.163328 133.004418 
L 240.200209 133.004418 
L 240.200209 125.782925 
L 144.163328 125.782925 
z
" clip-path="url(#pc35a30be46)" style="fill: #34af8d"/>
   </g>
   <g id="patch_40">
    <path d="M 743.577191 78.843224 
L 779.999341 78.843224 
L 779.999341 71.621731 
L 743.577191 71.621731 
z
" clip-path="url(#pc35a30be46)" style="fill: #35ad9d"/>
   </g>
   <g id="patch_41">
    <path d="M 253.429779 133.004418 
L 292.628506 133.004418 
L 292.628506 125.782925 
L 253.429779 125.782925 
z
" clip-path="url(#pc35a30be46)" style="fill: #35ad9d"/>
   </g>
   <g id="patch_42">
    <path d="M 319.087646 133.004418 
L 353.876516 133.004418 
L 353.876516 125.782925 
L 319.087646 125.782925 
z
" clip-path="url(#pc35a30be46)" style="fill: #36acab"/>
   </g>
   <g id="patch_43">
    <path d="M 456.609846 78.843224 
L 532.067395 78.843224 
L 532.067395 71.621731 
L 456.609846 71.621731 
z
" clip-path="url(#pc35a30be46)" style="fill: #37abb9"/>
   </g>
   <g id="patch_44">
    <path d="M 546.276933 78.843224 
L 632.67746 78.843224 
L 632.67746 71.621731 
L 546.276933 71.621731 
z
" clip-path="url(#pc35a30be46)" style="fill: #38a8c9"/>
   </g>
   <g id="patch_45">
    <path d="M 662.403161 78.843224 
L 687.555678 78.843224 
L 687.555678 71.621731 
L 662.403161 71.621731 
z
" clip-path="url(#pc35a30be46)" style="fill: #3aa5e1"/>
   </g>
   <g id="patch_46">
    <path d="M 720.384611 78.843224 
L 730.674277 78.843224 
L 730.674277 71.621731 
L 720.384611 71.621731 
z
" clip-path="url(#pc35a30be46)" style="fill: #689cf4"/>
   </g>
   <g id="patch_47">
    <path d="M 741.127271 60.789493 
L 824.914549 60.789493 
L 824.914549 53.568 
L 741.127271 53.568 
z
" clip-path="url(#pc35a30be46)" style="fill: #9a90f4"/>
   </g>
   <g id="patch_48">
    <path d="M 847.127161 78.843224 
L 931.404423 78.843224 
L 931.404423 71.621731 
L 847.127161 71.621731 
z
" clip-path="url(#pc35a30be46)" style="fill: #9a90f4"/>
   </g>
   <g id="patch_49">
    <path d="M 877.83283 60.789493 
L 888.449152 60.789493 
L 888.449152 53.568 
L 877.83283 53.568 
z
" clip-path="url(#pc35a30be46)" style="fill: #be81f4"/>
   </g>
   <g id="patch_50">
    <path d="M 980.076176 78.843224 
L 994.285714 78.843224 
L 994.285714 71.621731 
L 980.076176 71.621731 
z
" clip-path="url(#pc35a30be46)" style="fill: #be81f4"/>
   </g>
   <g id="patch_51">
    <path d="M 457.91647 60.789493 
L 468.206136 60.789493 
L 468.206136 53.568 
L 457.91647 53.568 
z
" clip-path="url(#pc35a30be46)" style="fill: #e16cf4"/>
   </g>
   <g id="patch_52">
    <path d="M 531.414083 60.789493 
L 564.243016 60.789493 
L 564.243016 53.568 
L 531.414083 53.568 
z
" clip-path="url(#pc35a30be46)" style="fill: #f560e1"/>
   </g>
   <g id="patch_53">
    <path d="M 578.452555 60.789493 
L 655.706712 60.789493 
L 655.706712 53.568 
L 578.452555 53.568 
z
" clip-path="url(#pc35a30be46)" style="fill: #f667c4"/>
   </g>
   <g id="patch_54">
    <path d="M 696.702047 60.789493 
L 708.135009 60.789493 
L 708.135009 53.568 
L 696.702047 53.568 
z
" clip-path="url(#pc35a30be46)" style="fill: #f66ca9"/>
   </g>
   <g id="matplotlib.axis_1">
    <g id="xtick_1">
     <g id="line2d_1">
      <defs>
       <path id="m5729df3961" d="M 0 0 
L 0 3.5 
" style="stroke: #000000; stroke-width: 0.8"/>
      </defs>
      <g>
       <use xlink:href="#m5729df3961" x="144" y="307.584" style="stroke: #000000; stroke-width: 0.8"/>
      </g>
     </g>
     <g id="text_1">
      <!-- 0 -->
      <g transform="translate(140.81875 322.182437) scale(0.1 -0.1)">
       <defs>
        <path id="DejaVuSans-30" d="M 2034 4250 
Q 1547 4250 1301 3770 
Q 1056 3291 1056 2328 
Q 1056 1369 1301 889 
Q 1547 409 2034 409 
Q 2525 409 2770 889 
Q 3016 1369 3016 2328 
Q 3016 3291 2770 3770 
Q 2525 4250 2034 4250 
z
M 2034 4750 
Q 2819 4750 3233 4129 
Q 3647 3509 3647 2328 
Q 3647 1150 3233 529 
Q 2819 -91 2034 -91 
Q 1250 -91 836 529 
Q 422 1150 422 2328 
Q 422 3509 836 4129 
Q 1250 4750 2034 4750 
z
" transform="scale(0.015625)"/>
       </defs>
       <use xlink:href="#DejaVuSans-30"/>
      </g>
     </g>
    </g>
    <g id="xtick_2">
     <g id="line2d_2">
      <g>
       <use xlink:href="#m5729df3961" x="307.328028" y="307.584" style="stroke: #000000; stroke-width: 0.8"/>
      </g>
     </g>
     <g id="text_2">
      <!-- 1000 -->
      <g transform="translate(294.603028 322.182437) scale(0.1 -0.1)">
       <defs>
        <path id="DejaVuSans-31" d="M 794 531 
L 1825 531 
L 1825 4091 
L 703 3866 
L 703 4441 
L 1819 4666 
L 2450 4666 
L 2450 531 
L 3481 531 
L 3481 0 
L 794 0 
L 794 531 
z
" transform="scale(0.015625)"/>
       </defs>
       <use xlink:href="#DejaVuSans-31"/>
       <use xlink:href="#DejaVuSans-30" x="63.623047"/>
       <use xlink:href="#DejaVuSans-30" x="127.246094"/>
       <use xlink:href="#DejaVuSans-30" x="190.869141"/>
      </g>
     </g>
    </g>
    <g id="xtick_3">
     <g id="line2d_3">
      <g>
       <use xlink:href="#m5729df3961" x="470.656056" y="307.584" style="stroke: #000000; stroke-width: 0.8"/>
      </g>
     </g>
     <g id="text_3">
      <!-- 2000 -->
      <g transform="translate(457.931056 322.182437) scale(0.1 -0.1)">
       <defs>
        <path id="DejaVuSans-32" d="M 1228 531 
L 3431 531 
L 3431 0 
L 469 0 
L 469 531 
Q 828 903 1448 1529 
Q 2069 2156 2228 2338 
Q 2531 2678 2651 2914 
Q 2772 3150 2772 3378 
Q 2772 3750 2511 3984 
Q 2250 4219 1831 4219 
Q 1534 4219 1204 4116 
Q 875 4013 500 3803 
L 500 4441 
Q 881 4594 1212 4672 
Q 1544 4750 1819 4750 
Q 2544 4750 2975 4387 
Q 3406 4025 3406 3419 
Q 3406 3131 3298 2873 
Q 3191 2616 2906 2266 
Q 2828 2175 2409 1742 
Q 1991 1309 1228 531 
z
" transform="scale(0.015625)"/>
       </defs>
       <use xlink:href="#DejaVuSans-32"/>
       <use xlink:href="#DejaVuSans-30" x="63.623047"/>
       <use xlink:href="#DejaVuSans-30" x="127.246094"/>
       <use xlink:href="#DejaVuSans-30" x="190.869141"/>
      </g>
     </g>
    </g>
    <g id="xtick_4">
     <g id="line2d_4">
      <g>
       <use xlink:href="#m5729df3961" x="633.984084" y="307.584" style="stroke: #000000; stroke-width: 0.8"/>
      </g>
     </g>
     <g id="text_4">
      <!-- 3000 -->
      <g transform="translate(621.259084 322.182437) scale(0.1 -0.1)">
       <defs>
        <path id="DejaVuSans-33" d="M 2597 2516 
Q 3050 2419 3304 2112 
Q 3559 1806 3559 1356 
Q 3559 666 3084 287 
Q 2609 -91 1734 -91 
Q 1441 -91 1130 -33 
Q 819 25 488 141 
L 488 750 
Q 750 597 1062 519 
Q 1375 441 1716 441 
Q 2309 441 2620 675 
Q 2931 909 2931 1356 
Q 2931 1769 2642 2001 
Q 2353 2234 1838 2234 
L 1294 2234 
L 1294 2753 
L 1863 2753 
Q 2328 2753 2575 2939 
Q 2822 3125 2822 3475 
Q 2822 3834 2567 4026 
Q 2313 4219 1838 4219 
Q 1578 4219 1281 4162 
Q 984 4106 628 3988 
L 628 4550 
Q 988 4650 1302 4700 
Q 1616 4750 1894 4750 
Q 2613 4750 3031 4423 
Q 3450 4097 3450 3541 
Q 3450 3153 3228 2886 
Q 3006 2619 2597 2516 
z
" transform="scale(0.015625)"/>
       </defs>
       <use xlink:href="#DejaVuSans-33"/>
       <use xlink:href="#DejaVuSans-30" x="63.623047"/>
       <use xlink:href="#DejaVuSans-30" x="127.246094"/>
       <use xlink:href="#DejaVuSans-30" x="190.869141"/>
      </g>
     </g>
    </g>
    <g id="xtick_5">
     <g id="line2d_5">
      <g>
       <use xlink:href="#m5729df3961" x="797.312112" y="307.584" style="stroke: #000000; stroke-width: 0.8"/>
      </g>
     </g>
     <g id="text_5">
      <!-- 4000 -->
      <g transform="translate(784.587112 322.182437) scale(0.1 -0.1)">
       <defs>
        <path id="DejaVuSans-34" d="M 2419 4116 
L 825 1625 
L 2419 1625 
L 2419 4116 
z
M 2253 4666 
L 3047 4666 
L 3047 1625 
L 3713 1625 
L 3713 1100 
L 3047 1100 
L 3047 0 
L 2419 0 
L 2419 1100 
L 313 1100 
L 313 1709 
L 2253 4666 
z
" transform="scale(0.015625)"/>
       </defs>
       <use xlink:href="#DejaVuSans-34"/>
       <use xlink:href="#DejaVuSans-30" x="63.623047"/>
       <use xlink:href="#DejaVuSans-30" x="127.246094"/>
       <use xlink:href="#DejaVuSans-30" x="190.869141"/>
      </g>
     </g>
    </g>
    <g id="xtick_6">
     <g id="line2d_6">
      <g>
       <use xlink:href="#m5729df3961" x="960.64014" y="307.584" style="stroke: #000000; stroke-width: 0.8"/>
      </g>
     </g>
     <g id="text_6">
      <!-- 5000 -->
      <g transform="translate(947.91514 322.182437) scale(0.1 -0.1)">
       <defs>
        <path id="DejaVuSans-35" d="M 691 4666 
L 3169 4666 
L 3169 4134 
L 1269 4134 
L 1269 2991 
Q 1406 3038 1543 3061 
Q 1681 3084 1819 3084 
Q 2600 3084 3056 2656 
Q 3513 2228 3513 1497 
Q 3513 744 3044 326 
Q 2575 -91 1722 -91 
Q 1428 -91 1123 -41 
Q 819 9 494 109 
L 494 744 
Q 775 591 1075 516 
Q 1375 441 1709 441 
Q 2250 441 2565 725 
Q 2881 1009 2881 1497 
Q 2881 1984 2565 2268 
Q 2250 2553 1709 2553 
Q 1456 2553 1204 2497 
Q 953 2441 691 2322 
L 691 4666 
z
" transform="scale(0.015625)"/>
       </defs>
       <use xlink:href="#DejaVuSans-35"/>
       <use xlink:href="#DejaVuSans-30" x="63.623047"/>
       <use xlink:href="#DejaVuSans-30" x="127.246094"/>
       <use xlink:href="#DejaVuSans-30" x="190.869141"/>
      </g>
     </g>
    </g>
    <g id="text_7">
     <!-- Residual -->
     <g transform="translate(569.284375 335.860562) scale(0.1 -0.1)">
      <defs>
       <path id="DejaVuSans-52" d="M 2841 2188 
Q 3044 2119 3236 1894 
Q 3428 1669 3622 1275 
L 4263 0 
L 3584 0 
L 2988 1197 
Q 2756 1666 2539 1819 
Q 2322 1972 1947 1972 
L 1259 1972 
L 1259 0 
L 628 0 
L 628 4666 
L 2053 4666 
Q 2853 4666 3247 4331 
Q 3641 3997 3641 3322 
Q 3641 2881 3436 2590 
Q 3231 2300 2841 2188 
z
M 1259 4147 
L 1259 2491 
L 2053 2491 
Q 2509 2491 2742 2702 
Q 2975 2913 2975 3322 
Q 2975 3731 2742 3939 
Q 2509 4147 2053 4147 
L 1259 4147 
z
" transform="scale(0.015625)"/>
       <path id="DejaVuSans-65" d="M 3597 1894 
L 3597 1613 
L 953 1613 
Q 991 1019 1311 708 
Q 1631 397 2203 397 
Q 2534 397 2845 478 
Q 3156 559 3463 722 
L 3463 178 
Q 3153 47 2828 -22 
Q 2503 -91 2169 -91 
Q 1331 -91 842 396 
Q 353 884 353 1716 
Q 353 2575 817 3079 
Q 1281 3584 2069 3584 
Q 2775 3584 3186 3129 
Q 3597 2675 3597 1894 
z
M 3022 2063 
Q 3016 2534 2758 2815 
Q 2500 3097 2075 3097 
Q 1594 3097 1305 2825 
Q 1016 2553 972 2059 
L 3022 2063 
z
" transform="scale(0.015625)"/>
       <path id="DejaVuSans-73" d="M 2834 3397 
L 2834 2853 
Q 2591 2978 2328 3040 
Q 2066 3103 1784 3103 
Q 1356 3103 1142 2972 
Q 928 2841 928 2578 
Q 928 2378 1081 2264 
Q 1234 2150 1697 2047 
L 1894 2003 
Q 2506 1872 2764 1633 
Q 3022 1394 3022 966 
Q 3022 478 2636 193 
Q 2250 -91 1575 -91 
Q 1294 -91 989 -36 
Q 684 19 347 128 
L 347 722 
Q 666 556 975 473 
Q 1284 391 1588 391 
Q 1994 391 2212 530 
Q 2431 669 2431 922 
Q 2431 1156 2273 1281 
Q 2116 1406 1581 1522 
L 1381 1569 
Q 847 1681 609 1914 
Q 372 2147 372 2553 
Q 372 3047 722 3315 
Q 1072 3584 1716 3584 
Q 2034 3584 2315 3537 
Q 2597 3491 2834 3397 
z
" transform="scale(0.015625)"/>
       <path id="DejaVuSans-69" d="M 603 3500 
L 1178 3500 
L 1178 0 
L 603 0 
L 603 3500 
z
M 603 4863 
L 1178 4863 
L 1178 4134 
L 603 4134 
L 603 4863 
z
" transform="scale(0.015625)"/>
       <path id="DejaVuSans-64" d="M 2906 2969 
L 2906 4863 
L 3481 4863 
L 3481 0 
L 2906 0 
L 2906 525 
Q 2725 213 2448 61 
Q 2172 -91 1784 -91 
Q 1150 -91 751 415 
Q 353 922 353 1747 
Q 353 2572 751 3078 
Q 1150 3584 1784 3584 
Q 2172 3584 2448 3432 
Q 2725 3281 2906 2969 
z
M 947 1747 
Q 947 1113 1208 752 
Q 1469 391 1925 391 
Q 2381 391 2643 752 
Q 2906 1113 2906 1747 
Q 2906 2381 2643 2742 
Q 2381 3103 1925 3103 
Q 1469 3103 1208 2742 
Q 947 2381 947 1747 
z
" transform="scale(0.015625)"/>
       <path id="DejaVuSans-75" d="M 544 1381 
L 544 3500 
L 1119 3500 
L 1119 1403 
Q 1119 906 1312 657 
Q 1506 409 1894 409 
Q 2359 409 2629 706 
Q 2900 1003 2900 1516 
L 2900 3500 
L 3475 3500 
L 3475 0 
L 2900 0 
L 2900 538 
Q 2691 219 2414 64 
Q 2138 -91 1772 -91 
Q 1169 -91 856 284 
Q 544 659 544 1381 
z
M 1991 3584 
L 1991 3584 
z
" transform="scale(0.015625)"/>
       <path id="DejaVuSans-61" d="M 2194 1759 
Q 1497 1759 1228 1600 
Q 959 1441 959 1056 
Q 959 750 1161 570 
Q 1363 391 1709 391 
Q 2188 391 2477 730 
Q 2766 1069 2766 1631 
L 2766 1759 
L 2194 1759 
z
M 3341 1997 
L 3341 0 
L 2766 0 
L 2766 531 
Q 2569 213 2275 61 
Q 1981 -91 1556 -91 
Q 1019 -91 701 211 
Q 384 513 384 1019 
Q 384 1609 779 1909 
Q 1175 2209 1959 2209 
L 2766 2209 
L 2766 2266 
Q 2766 2663 2505 2880 
Q 2244 3097 1772 3097 
Q 1472 3097 1187 3025 
Q 903 2953 641 2809 
L 641 3341 
Q 956 3463 1253 3523 
Q 1550 3584 1831 3584 
Q 2591 3584 2966 3190 
Q 3341 2797 3341 1997 
z
" transform="scale(0.015625)"/>
       <path id="DejaVuSans-6c" d="M 603 4863 
L 1178 4863 
L 1178 0 
L 603 0 
L 603 4863 
z
" transform="scale(0.015625)"/>
      </defs>
      <use xlink:href="#DejaVuSans-52"/>
      <use xlink:href="#DejaVuSans-65" x="64.982422"/>
      <use xlink:href="#DejaVuSans-73" x="126.505859"/>
      <use xlink:href="#DejaVuSans-69" x="178.605469"/>
      <use xlink:href="#DejaVuSans-64" x="206.388672"/>
      <use xlink:href="#DejaVuSans-75" x="269.865234"/>
      <use xlink:href="#DejaVuSans-61" x="333.244141"/>
      <use xlink:href="#DejaVuSans-6c" x="394.523438"/>
     </g>
    </g>
   </g>
   <g id="matplotlib.axis_2">
    <g id="ytick_1">
     <g id="line2d_7">
      <defs>
       <path id="mdc4b822d4d" d="M 0 0 
L -3.5 0 
" style="stroke: #000000; stroke-width: 0.8"/>
      </defs>
      <g>
       <use xlink:href="#mdc4b822d4d" x="144" y="291.877254" style="stroke: #000000; stroke-width: 0.8"/>
      </g>
     </g>
     <g id="text_8">
      <!-- 1.C.57.1.1 -->
      <g transform="translate(85.492188 295.676472) scale(0.1 -0.1)">
       <defs>
        <path id="DejaVuSans-2e" d="M 684 794 
L 1344 794 
L 1344 0 
L 684 0 
L 684 794 
z
" transform="scale(0.015625)"/>
        <path id="DejaVuSans-43" d="M 4122 4306 
L 4122 3641 
Q 3803 3938 3442 4084 
Q 3081 4231 2675 4231 
Q 1875 4231 1450 3742 
Q 1025 3253 1025 2328 
Q 1025 1406 1450 917 
Q 1875 428 2675 428 
Q 3081 428 3442 575 
Q 3803 722 4122 1019 
L 4122 359 
Q 3791 134 3420 21 
Q 3050 -91 2638 -91 
Q 1578 -91 968 557 
Q 359 1206 359 2328 
Q 359 3453 968 4101 
Q 1578 4750 2638 4750 
Q 3056 4750 3426 4639 
Q 3797 4528 4122 4306 
z
" transform="scale(0.015625)"/>
        <path id="DejaVuSans-37" d="M 525 4666 
L 3525 4666 
L 3525 4397 
L 1831 0 
L 1172 0 
L 2766 4134 
L 525 4134 
L 525 4666 
z
" transform="scale(0.015625)"/>
       </defs>
       <use xlink:href="#DejaVuSans-31"/>
       <use xlink:href="#DejaVuSans-2e" x="63.623047"/>
       <use xlink:href="#DejaVuSans-43" x="95.410156"/>
       <use xlink:href="#DejaVuSans-2e" x="165.234375"/>
       <use xlink:href="#DejaVuSans-35" x="197.021484"/>
       <use xlink:href="#DejaVuSans-37" x="260.644531"/>
       <use xlink:href="#DejaVuSans-2e" x="324.267578"/>
       <use xlink:href="#DejaVuSans-31" x="356.054688"/>
       <use xlink:href="#DejaVuSans-2e" x="419.677734"/>
       <use xlink:href="#DejaVuSans-31" x="451.464844"/>
      </g>
     </g>
    </g>
    <g id="ytick_2">
     <g id="line2d_8">
      <g>
       <use xlink:href="#mdc4b822d4d" x="144" y="273.823522" style="stroke: #000000; stroke-width: 0.8"/>
      </g>
     </g>
     <g id="text_9">
      <!-- 1.C.57.1.2 -->
      <g transform="translate(85.492188 277.622741) scale(0.1 -0.1)">
       <use xlink:href="#DejaVuSans-31"/>
       <use xlink:href="#DejaVuSans-2e" x="63.623047"/>
       <use xlink:href="#DejaVuSans-43" x="95.410156"/>
       <use xlink:href="#DejaVuSans-2e" x="165.234375"/>
       <use xlink:href="#DejaVuSans-35" x="197.021484"/>
       <use xlink:href="#DejaVuSans-37" x="260.644531"/>
       <use xlink:href="#DejaVuSans-2e" x="324.267578"/>
       <use xlink:href="#DejaVuSans-31" x="356.054688"/>
       <use xlink:href="#DejaVuSans-2e" x="419.677734"/>
       <use xlink:href="#DejaVuSans-32" x="451.464844"/>
      </g>
     </g>
    </g>
    <g id="ytick_3">
     <g id="line2d_9">
      <g>
       <use xlink:href="#mdc4b822d4d" x="144" y="255.769791" style="stroke: #000000; stroke-width: 0.8"/>
      </g>
     </g>
     <g id="text_10">
      <!-- 1.C.57.1.3 -->
      <g transform="translate(85.492188 259.56901) scale(0.1 -0.1)">
       <use xlink:href="#DejaVuSans-31"/>
       <use xlink:href="#DejaVuSans-2e" x="63.623047"/>
       <use xlink:href="#DejaVuSans-43" x="95.410156"/>
       <use xlink:href="#DejaVuSans-2e" x="165.234375"/>
       <use xlink:href="#DejaVuSans-35" x="197.021484"/>
       <use xlink:href="#DejaVuSans-37" x="260.644531"/>
       <use xlink:href="#DejaVuSans-2e" x="324.267578"/>
       <use xlink:href="#DejaVuSans-31" x="356.054688"/>
       <use xlink:href="#DejaVuSans-2e" x="419.677734"/>
       <use xlink:href="#DejaVuSans-33" x="451.464844"/>
      </g>
     </g>
    </g>
    <g id="ytick_4">
     <g id="line2d_10">
      <g>
       <use xlink:href="#mdc4b822d4d" x="144" y="237.71606" style="stroke: #000000; stroke-width: 0.8"/>
      </g>
     </g>
     <g id="text_11">
      <!-- 1.C.57.1.4 -->
      <g transform="translate(85.492188 241.515278) scale(0.1 -0.1)">
       <use xlink:href="#DejaVuSans-31"/>
       <use xlink:href="#DejaVuSans-2e" x="63.623047"/>
       <use xlink:href="#DejaVuSans-43" x="95.410156"/>
       <use xlink:href="#DejaVuSans-2e" x="165.234375"/>
       <use xlink:href="#DejaVuSans-35" x="197.021484"/>
       <use xlink:href="#DejaVuSans-37" x="260.644531"/>
       <use xlink:href="#DejaVuSans-2e" x="324.267578"/>
       <use xlink:href="#DejaVuSans-31" x="356.054688"/>
       <use xlink:href="#DejaVuSans-2e" x="419.677734"/>
       <use xlink:href="#DejaVuSans-34" x="451.464844"/>
      </g>
     </g>
    </g>
    <g id="ytick_5">
     <g id="line2d_11">
      <g>
       <use xlink:href="#mdc4b822d4d" x="144" y="219.662328" style="stroke: #000000; stroke-width: 0.8"/>
      </g>
     </g>
     <g id="text_12">
      <!-- 1.C.57.1.5 -->
      <g transform="translate(85.492188 223.461547) scale(0.1 -0.1)">
       <use xlink:href="#DejaVuSans-31"/>
       <use xlink:href="#DejaVuSans-2e" x="63.623047"/>
       <use xlink:href="#DejaVuSans-43" x="95.410156"/>
       <use xlink:href="#DejaVuSans-2e" x="165.234375"/>
       <use xlink:href="#DejaVuSans-35" x="197.021484"/>
       <use xlink:href="#DejaVuSans-37" x="260.644531"/>
       <use xlink:href="#DejaVuSans-2e" x="324.267578"/>
       <use xlink:href="#DejaVuSans-31" x="356.054688"/>
       <use xlink:href="#DejaVuSans-2e" x="419.677734"/>
       <use xlink:href="#DejaVuSans-35" x="451.464844"/>
      </g>
     </g>
    </g>
    <g id="ytick_6">
     <g id="line2d_12">
      <g>
       <use xlink:href="#mdc4b822d4d" x="144" y="201.608597" style="stroke: #000000; stroke-width: 0.8"/>
      </g>
     </g>
     <g id="text_13">
      <!-- 1.C.57.1.6 -->
      <g transform="translate(85.492188 205.407816) scale(0.1 -0.1)">
       <defs>
        <path id="DejaVuSans-36" d="M 2113 2584 
Q 1688 2584 1439 2293 
Q 1191 2003 1191 1497 
Q 1191 994 1439 701 
Q 1688 409 2113 409 
Q 2538 409 2786 701 
Q 3034 994 3034 1497 
Q 3034 2003 2786 2293 
Q 2538 2584 2113 2584 
z
M 3366 4563 
L 3366 3988 
Q 3128 4100 2886 4159 
Q 2644 4219 2406 4219 
Q 1781 4219 1451 3797 
Q 1122 3375 1075 2522 
Q 1259 2794 1537 2939 
Q 1816 3084 2150 3084 
Q 2853 3084 3261 2657 
Q 3669 2231 3669 1497 
Q 3669 778 3244 343 
Q 2819 -91 2113 -91 
Q 1303 -91 875 529 
Q 447 1150 447 2328 
Q 447 3434 972 4092 
Q 1497 4750 2381 4750 
Q 2619 4750 2861 4703 
Q 3103 4656 3366 4563 
z
" transform="scale(0.015625)"/>
       </defs>
       <use xlink:href="#DejaVuSans-31"/>
       <use xlink:href="#DejaVuSans-2e" x="63.623047"/>
       <use xlink:href="#DejaVuSans-43" x="95.410156"/>
       <use xlink:href="#DejaVuSans-2e" x="165.234375"/>
       <use xlink:href="#DejaVuSans-35" x="197.021484"/>
       <use xlink:href="#DejaVuSans-37" x="260.644531"/>
       <use xlink:href="#DejaVuSans-2e" x="324.267578"/>
       <use xlink:href="#DejaVuSans-31" x="356.054688"/>
       <use xlink:href="#DejaVuSans-2e" x="419.677734"/>
       <use xlink:href="#DejaVuSans-36" x="451.464844"/>
      </g>
     </g>
    </g>
    <g id="ytick_7">
     <g id="line2d_13">
      <g>
       <use xlink:href="#mdc4b822d4d" x="144" y="183.554866" style="stroke: #000000; stroke-width: 0.8"/>
      </g>
     </g>
     <g id="text_14">
      <!-- 1.C.57.2.1 -->
      <g transform="translate(85.492188 187.354084) scale(0.1 -0.1)">
       <use xlink:href="#DejaVuSans-31"/>
       <use xlink:href="#DejaVuSans-2e" x="63.623047"/>
       <use xlink:href="#DejaVuSans-43" x="95.410156"/>
       <use xlink:href="#DejaVuSans-2e" x="165.234375"/>
       <use xlink:href="#DejaVuSans-35" x="197.021484"/>
       <use xlink:href="#DejaVuSans-37" x="260.644531"/>
       <use xlink:href="#DejaVuSans-2e" x="324.267578"/>
       <use xlink:href="#DejaVuSans-32" x="356.054688"/>
       <use xlink:href="#DejaVuSans-2e" x="419.677734"/>
       <use xlink:href="#DejaVuSans-31" x="451.464844"/>
      </g>
     </g>
    </g>
    <g id="ytick_8">
     <g id="line2d_14">
      <g>
       <use xlink:href="#mdc4b822d4d" x="144" y="165.501134" style="stroke: #000000; stroke-width: 0.8"/>
      </g>
     </g>
     <g id="text_15">
      <!-- 1.C.57.2.2 -->
      <g transform="translate(85.492188 169.300353) scale(0.1 -0.1)">
       <use xlink:href="#DejaVuSans-31"/>
       <use xlink:href="#DejaVuSans-2e" x="63.623047"/>
       <use xlink:href="#DejaVuSans-43" x="95.410156"/>
       <use xlink:href="#DejaVuSans-2e" x="165.234375"/>
       <use xlink:href="#DejaVuSans-35" x="197.021484"/>
       <use xlink:href="#DejaVuSans-37" x="260.644531"/>
       <use xlink:href="#DejaVuSans-2e" x="324.267578"/>
       <use xlink:href="#DejaVuSans-32" x="356.054688"/>
       <use xlink:href="#DejaVuSans-2e" x="419.677734"/>
       <use xlink:href="#DejaVuSans-32" x="451.464844"/>
      </g>
     </g>
    </g>
    <g id="ytick_9">
     <g id="line2d_15">
      <g>
       <use xlink:href="#mdc4b822d4d" x="144" y="147.447403" style="stroke: #000000; stroke-width: 0.8"/>
      </g>
     </g>
     <g id="text_16">
      <!-- 1.C.57.2.3 -->
      <g transform="translate(85.492188 151.246622) scale(0.1 -0.1)">
       <use xlink:href="#DejaVuSans-31"/>
       <use xlink:href="#DejaVuSans-2e" x="63.623047"/>
       <use xlink:href="#DejaVuSans-43" x="95.410156"/>
       <use xlink:href="#DejaVuSans-2e" x="165.234375"/>
       <use xlink:href="#DejaVuSans-35" x="197.021484"/>
       <use xlink:href="#DejaVuSans-37" x="260.644531"/>
       <use xlink:href="#DejaVuSans-2e" x="324.267578"/>
       <use xlink:href="#DejaVuSans-32" x="356.054688"/>
       <use xlink:href="#DejaVuSans-2e" x="419.677734"/>
       <use xlink:href="#DejaVuSans-33" x="451.464844"/>
      </g>
     </g>
    </g>
    <g id="ytick_10">
     <g id="line2d_16">
      <g>
       <use xlink:href="#mdc4b822d4d" x="144" y="129.393672" style="stroke: #000000; stroke-width: 0.8"/>
      </g>
     </g>
     <g id="text_17">
      <!-- 1.C.57.3.1 -->
      <g transform="translate(85.492188 133.19289) scale(0.1 -0.1)">
       <use xlink:href="#DejaVuSans-31"/>
       <use xlink:href="#DejaVuSans-2e" x="63.623047"/>
       <use xlink:href="#DejaVuSans-43" x="95.410156"/>
       <use xlink:href="#DejaVuSans-2e" x="165.234375"/>
       <use xlink:href="#DejaVuSans-35" x="197.021484"/>
       <use xlink:href="#DejaVuSans-37" x="260.644531"/>
       <use xlink:href="#DejaVuSans-2e" x="324.267578"/>
       <use xlink:href="#DejaVuSans-33" x="356.054688"/>
       <use xlink:href="#DejaVuSans-2e" x="419.677734"/>
       <use xlink:href="#DejaVuSans-31" x="451.464844"/>
      </g>
     </g>
    </g>
    <g id="ytick_11">
     <g id="line2d_17">
      <g>
       <use xlink:href="#mdc4b822d4d" x="144" y="111.33994" style="stroke: #000000; stroke-width: 0.8"/>
      </g>
     </g>
     <g id="text_18">
      <!-- 1.C.57.3.2 -->
      <g transform="translate(85.492188 115.139159) scale(0.1 -0.1)">
       <use xlink:href="#DejaVuSans-31"/>
       <use xlink:href="#DejaVuSans-2e" x="63.623047"/>
       <use xlink:href="#DejaVuSans-43" x="95.410156"/>
       <use xlink:href="#DejaVuSans-2e" x="165.234375"/>
       <use xlink:href="#DejaVuSans-35" x="197.021484"/>
       <use xlink:href="#DejaVuSans-37" x="260.644531"/>
       <use xlink:href="#DejaVuSans-2e" x="324.267578"/>
       <use xlink:href="#DejaVuSans-33" x="356.054688"/>
       <use xlink:href="#DejaVuSans-2e" x="419.677734"/>
       <use xlink:href="#DejaVuSans-32" x="451.464844"/>
      </g>
     </g>
    </g>
    <g id="ytick_12">
     <g id="line2d_18">
      <g>
       <use xlink:href="#mdc4b822d4d" x="144" y="93.286209" style="stroke: #000000; stroke-width: 0.8"/>
      </g>
     </g>
     <g id="text_19">
      <!-- 1.C.57.3.3 -->
      <g transform="translate(85.492188 97.085428) scale(0.1 -0.1)">
       <use xlink:href="#DejaVuSans-31"/>
       <use xlink:href="#DejaVuSans-2e" x="63.623047"/>
       <use xlink:href="#DejaVuSans-43" x="95.410156"/>
       <use xlink:href="#DejaVuSans-2e" x="165.234375"/>
       <use xlink:href="#DejaVuSans-35" x="197.021484"/>
       <use xlink:href="#DejaVuSans-37" x="260.644531"/>
       <use xlink:href="#DejaVuSans-2e" x="324.267578"/>
       <use xlink:href="#DejaVuSans-33" x="356.054688"/>
       <use xlink:href="#DejaVuSans-2e" x="419.677734"/>
       <use xlink:href="#DejaVuSans-33" x="451.464844"/>
      </g>
     </g>
    </g>
    <g id="ytick_13">
     <g id="line2d_19">
      <g>
       <use xlink:href="#mdc4b822d4d" x="144" y="75.232478" style="stroke: #000000; stroke-width: 0.8"/>
      </g>
     </g>
     <g id="text_20">
      <!-- 1.C.57.3.4 -->
      <g transform="translate(85.492188 79.031696) scale(0.1 -0.1)">
       <use xlink:href="#DejaVuSans-31"/>
       <use xlink:href="#DejaVuSans-2e" x="63.623047"/>
       <use xlink:href="#DejaVuSans-43" x="95.410156"/>
       <use xlink:href="#DejaVuSans-2e" x="165.234375"/>
       <use xlink:href="#DejaVuSans-35" x="197.021484"/>
       <use xlink:href="#DejaVuSans-37" x="260.644531"/>
       <use xlink:href="#DejaVuSans-2e" x="324.267578"/>
       <use xlink:href="#DejaVuSans-33" x="356.054688"/>
       <use xlink:href="#DejaVuSans-2e" x="419.677734"/>
       <use xlink:href="#DejaVuSans-34" x="451.464844"/>
      </g>
     </g>
    </g>
    <g id="ytick_14">
     <g id="line2d_20">
      <g>
       <use xlink:href="#mdc4b822d4d" x="144" y="57.178746" style="stroke: #000000; stroke-width: 0.8"/>
      </g>
     </g>
     <g id="text_21">
      <!-- 1.C.57.3.5 -->
      <g transform="translate(85.492188 60.977965) scale(0.1 -0.1)">
       <use xlink:href="#DejaVuSans-31"/>
       <use xlink:href="#DejaVuSans-2e" x="63.623047"/>
       <use xlink:href="#DejaVuSans-43" x="95.410156"/>
       <use xlink:href="#DejaVuSans-2e" x="165.234375"/>
       <use xlink:href="#DejaVuSans-35" x="197.021484"/>
       <use xlink:href="#DejaVuSans-37" x="260.644531"/>
       <use xlink:href="#DejaVuSans-2e" x="324.267578"/>
       <use xlink:href="#DejaVuSans-33" x="356.054688"/>
       <use xlink:href="#DejaVuSans-2e" x="419.677734"/>
       <use xlink:href="#DejaVuSans-35" x="451.464844"/>
      </g>
     </g>
    </g>
   </g>
   <g id="patch_55">
    <path d="M 144 307.584 
L 144 41.472 
" style="fill: none; stroke: #000000; stroke-width: 0.8; stroke-linejoin: miter; stroke-linecap: square"/>
   </g>
   <g id="patch_56">
    <path d="M 1036.8 307.584 
L 1036.8 41.472 
" style="fill: none; stroke: #000000; stroke-width: 0.8; stroke-linejoin: miter; stroke-linecap: square"/>
   </g>
   <g id="patch_57">
    <path d="M 144 307.584 
L 1036.8 307.584 
" style="fill: none; stroke: #000000; stroke-width: 0.8; stroke-linejoin: miter; stroke-linecap: square"/>
   </g>
   <g id="patch_58">
    <path d="M 144 41.472 
L 1036.8 41.472 
" style="fill: none; stroke: #000000; stroke-width: 0.8; stroke-linejoin: miter; stroke-linecap: square"/>
   </g>
   <g id="text_22">
    <!-- 1.C.57 Holes -->
    <g transform="translate(552.369375 35.472) scale(0.12 -0.12)">
     <defs>
      <path id="DejaVuSans-20" transform="scale(0.015625)"/>
      <path id="DejaVuSans-48" d="M 628 4666 
L 1259 4666 
L 1259 2753 
L 3553 2753 
L 3553 4666 
L 4184 4666 
L 4184 0 
L 3553 0 
L 3553 2222 
L 1259 2222 
L 1259 0 
L 628 0 
L 628 4666 
z
" transform="scale(0.015625)"/>
      <path id="DejaVuSans-6f" d="M 1959 3097 
Q 1497 3097 1228 2736 
Q 959 2375 959 1747 
Q 959 1119 1226 758 
Q 1494 397 1959 397 
Q 2419 397 2687 759 
Q 2956 1122 2956 1747 
Q 2956 2369 2687 2733 
Q 2419 3097 1959 3097 
z
M 1959 3584 
Q 2709 3584 3137 3096 
Q 3566 2609 3566 1747 
Q 3566 888 3137 398 
Q 2709 -91 1959 -91 
Q 1206 -91 779 398 
Q 353 888 353 1747 
Q 353 2609 779 3096 
Q 1206 3584 1959 3584 
z
" transform="scale(0.015625)"/>
     </defs>
     <use xlink:href="#DejaVuSans-31"/>
     <use xlink:href="#DejaVuSans-2e" x="63.623047"/>
     <use xlink:href="#DejaVuSans-43" x="95.410156"/>
     <use xlink:href="#DejaVuSans-2e" x="165.234375"/>
     <use xlink:href="#DejaVuSans-35" x="197.021484"/>
     <use xlink:href="#DejaVuSans-37" x="260.644531"/>
     <use xlink:href="#DejaVuSans-20" x="324.267578"/>
     <use xlink:href="#DejaVuSans-48" x="356.054688"/>
     <use xlink:href="#DejaVuSans-6f" x="431.25"/>
     <use xlink:href="#DejaVuSans-6c" x="492.431641"/>
     <use xlink:href="#DejaVuSans-65" x="520.214844"/>
     <use xlink:href="#DejaVuSans-73" x="581.738281"/>
    </g>
   </g>
  </g>
 </g>
 <defs>
  <clipPath id="pc35a30be46">
   <rect x="144" y="41.472" width="892.8" height="266.112"/>
  </clipPath>
 </defs>
</svg>
