<?xml version="1.0" encoding="utf-8" standalone="no"?>
<!DOCTYPE svg PUBLIC "-//W3C//DTD SVG 1.1//EN"
  "http://www.w3.org/Graphics/SVG/1.1/DTD/svg11.dtd">
<svg xmlns:xlink="http://www.w3.org/1999/xlink" width="1152pt" height="378pt" viewBox="0 0 1152 378" xmlns="http://www.w3.org/2000/svg" version="1.1">
 <metadata>
  <rdf:RDF xmlns:dc="http://purl.org/dc/elements/1.1/" xmlns:cc="http://creativecommons.org/ns#" xmlns:rdf="http://www.w3.org/1999/02/22-rdf-syntax-ns#">
   <cc:Work>
    <dc:type rdf:resource="http://purl.org/dc/dcmitype/StillImage"/>
    <dc:date>2024-10-24T16:19:19.004547</dc:date>
    <dc:format>image/svg+xml</dc:format>
    <dc:creator>
     <cc:Agent>
      <dc:title>Matplotlib v3.8.4, https://matplotlib.org/</dc:title>
     </cc:Agent>
    </dc:creator>
   </cc:Work>
  </rdf:RDF>
 </metadata>
 <defs>
  <style type="text/css">*{stroke-linejoin: round; stroke-linecap: butt}</style>
 </defs>
 <g id="figure_1">
  <g id="patch_1">
   <path d="M 0 378 
L 1152 378 
L 1152 0 
L 0 0 
z
" style="fill: #ffffff"/>
  </g>
  <g id="axes_1">
   <g id="patch_2">
    <path d="M 144 336.42 
L 1036.8 336.42 
L 1036.8 45.36 
L 144 45.36 
z
" style="fill: #ffffff"/>
   </g>
   <g id="patch_3">
    <path d="M 144 323.19 
L 475.177743 323.19 
L 475.177743 322.754205 
L 144 322.754205 
z
" clip-path="url(#p3d3bfa162e)" style="fill: #ff0000"/>
   </g>
   <g id="patch_4">
    <path d="M 144 308.663511 
L 435.751822 308.663511 
L 435.751822 308.227716 
L 144 308.227716 
z
" clip-path="url(#p3d3bfa162e)" style="fill: #ff0000"/>
   </g>
   <g id="patch_5">
    <path d="M 144 294.137022 
L 519.860455 294.137022 
L 519.860455 293.701227 
L 144 293.701227 
z
" clip-path="url(#p3d3bfa162e)" style="fill: #ff0000"/>
   </g>
   <g id="patch_6">
    <path d="M 144 279.610533 
L 473.863546 279.610533 
L 473.863546 279.174738 
L 144 279.174738 
z
" clip-path="url(#p3d3bfa162e)" style="fill: #ff0000"/>
   </g>
   <g id="patch_7">
    <path d="M 144 265.084043 
L 462.035769 265.084043 
L 462.035769 264.648249 
L 144 264.648249 
z
" clip-path="url(#p3d3bfa162e)" style="fill: #ff0000"/>
   </g>
   <g id="patch_8">
    <path d="M 144 250.557554 
L 454.150585 250.557554 
L 454.150585 250.12176 
L 144 250.12176 
z
" clip-path="url(#p3d3bfa162e)" style="fill: #ff0000"/>
   </g>
   <g id="patch_9">
    <path d="M 144 236.031065 
L 462.035769 236.031065 
L 462.035769 235.59527 
L 144 235.59527 
z
" clip-path="url(#p3d3bfa162e)" style="fill: #ff0000"/>
   </g>
   <g id="patch_10">
    <path d="M 144 221.504576 
L 548.772798 221.504576 
L 548.772798 221.068781 
L 144 221.068781 
z
" clip-path="url(#p3d3bfa162e)" style="fill: #ff0000"/>
   </g>
   <g id="patch_11">
    <path d="M 144 206.978087 
L 628.938839 206.978087 
L 628.938839 206.542292 
L 144 206.542292 
z
" clip-path="url(#p3d3bfa162e)" style="fill: #ff0000"/>
   </g>
   <g id="patch_12">
    <path d="M 144 192.451598 
L 994.285714 192.451598 
L 994.285714 192.015803 
L 144 192.015803 
z
" clip-path="url(#p3d3bfa162e)" style="fill: #ff0000"/>
   </g>
   <g id="patch_13">
    <path d="M 144 177.925108 
L 689.391919 177.925108 
L 689.391919 177.489314 
L 144 177.489314 
z
" clip-path="url(#p3d3bfa162e)" style="fill: #ff0000"/>
   </g>
   <g id="patch_14">
    <path d="M 144 163.398619 
L 847.095606 163.398619 
L 847.095606 162.962825 
L 144 162.962825 
z
" clip-path="url(#p3d3bfa162e)" style="fill: #ff0000"/>
   </g>
   <g id="patch_15">
    <path d="M 144 148.87213 
L 529.059837 148.87213 
L 529.059837 148.436335 
L 144 148.436335 
z
" clip-path="url(#p3d3bfa162e)" style="fill: #ff0000"/>
   </g>
   <g id="patch_16">
    <path d="M 144 134.345641 
L 661.793773 134.345641 
L 661.793773 133.909846 
L 144 133.909846 
z
" clip-path="url(#p3d3bfa162e)" style="fill: #ff0000"/>
   </g>
   <g id="patch_17">
    <path d="M 144 119.819152 
L 673.62155 119.819152 
L 673.62155 119.383357 
L 144 119.383357 
z
" clip-path="url(#p3d3bfa162e)" style="fill: #ff0000"/>
   </g>
   <g id="patch_18">
    <path d="M 144 105.292663 
L 739.33142 105.292663 
L 739.33142 104.856868 
L 144 104.856868 
z
" clip-path="url(#p3d3bfa162e)" style="fill: #ff0000"/>
   </g>
   <g id="patch_19">
    <path d="M 144 90.766173 
L 769.55796 90.766173 
L 769.55796 90.330379 
L 144 90.330379 
z
" clip-path="url(#p3d3bfa162e)" style="fill: #ff0000"/>
   </g>
   <g id="patch_20">
    <path d="M 144 76.239684 
L 883.893133 76.239684 
L 883.893133 75.80389 
L 144 75.80389 
z
" clip-path="url(#p3d3bfa162e)" style="fill: #ff0000"/>
   </g>
   <g id="patch_21">
    <path d="M 144 61.713195 
L 501.461691 61.713195 
L 501.461691 61.2774 
L 144 61.2774 
z
" clip-path="url(#p3d3bfa162e)" style="fill: #ff0000"/>
   </g>
   <g id="patch_22">
    <path d="M 216.280857 209.665487 
L 391.06911 209.665487 
L 391.06911 203.854892 
L 216.280857 203.854892 
z
" clip-path="url(#p3d3bfa162e)" style="fill: #f77189"/>
   </g>
   <g id="patch_23">
    <path d="M 242.564805 166.08602 
L 376.612939 166.08602 
L 376.612939 160.275424 
L 242.564805 160.275424 
z
" clip-path="url(#p3d3bfa162e)" style="fill: #f77189"/>
   </g>
   <g id="patch_24">
    <path d="M 446.265401 93.453574 
L 638.13822 93.453574 
L 638.13822 87.642978 
L 446.265401 87.642978 
z
" clip-path="url(#p3d3bfa162e)" style="fill: #c69432"/>
   </g>
   <g id="patch_25">
    <path d="M 614.482667 195.138998 
L 870.751159 195.138998 
L 870.751159 189.328402 
L 614.482667 189.328402 
z
" clip-path="url(#p3d3bfa162e)" style="fill: #c69432"/>
   </g>
   <g id="patch_26">
    <path d="M 582.94193 78.927085 
L 785.328329 78.927085 
L 785.328329 73.116489 
L 582.94193 73.116489 
z
" clip-path="url(#p3d3bfa162e)" style="fill: #c69432"/>
   </g>
   <g id="patch_27">
    <path d="M 468.606756 166.08602 
L 719.618459 166.08602 
L 719.618459 160.275424 
L 468.606756 160.275424 
z
" clip-path="url(#p3d3bfa162e)" style="fill: #c69432"/>
   </g>
   <g id="patch_28">
    <path d="M 367.413557 180.612509 
L 536.945021 180.612509 
L 536.945021 174.801913 
L 367.413557 174.801913 
z
" clip-path="url(#p3d3bfa162e)" style="fill: #82a931"/>
   </g>
   <g id="patch_29">
    <path d="M 538.259218 180.612509 
L 598.712299 180.612509 
L 598.712299 174.801913 
L 538.259218 174.801913 
z
" clip-path="url(#p3d3bfa162e)" style="fill: #34af8a"/>
   </g>
   <g id="patch_30">
    <path d="M 377.927136 166.08602 
L 467.292559 166.08602 
L 467.292559 160.275424 
L 377.927136 160.275424 
z
" clip-path="url(#p3d3bfa162e)" style="fill: #37aabb"/>
   </g>
   <g id="patch_31">
    <path d="M 267.534555 151.559531 
L 476.491941 151.559531 
L 476.491941 145.748935 
L 267.534555 145.748935 
z
" clip-path="url(#p3d3bfa162e)" style="fill: #8197f4"/>
   </g>
   <g id="patch_32">
    <path d="M 214.966659 64.400596 
L 451.52219 64.400596 
L 451.52219 58.59 
L 214.966659 58.59 
z
" clip-path="url(#p3d3bfa162e)" style="fill: #f45deb"/>
   </g>
   <g id="matplotlib.axis_1">
    <g id="xtick_1">
     <g id="line2d_1">
      <defs>
       <path id="md545f0a866" d="M 0 0 
L 0 3.5 
" style="stroke: #000000; stroke-width: 0.8"/>
      </defs>
      <g>
       <use xlink:href="#md545f0a866" x="144" y="336.42" style="stroke: #000000; stroke-width: 0.8"/>
      </g>
     </g>
     <g id="text_1">
      <!-- 0 -->
      <g transform="translate(140.81875 351.018438) scale(0.1 -0.1)">
       <defs>
        <path id="DejaVuSans-30" d="M 2034 4250 
Q 1547 4250 1301 3770 
Q 1056 3291 1056 2328 
Q 1056 1369 1301 889 
Q 1547 409 2034 409 
Q 2525 409 2770 889 
Q 3016 1369 3016 2328 
Q 3016 3291 2770 3770 
Q 2525 4250 2034 4250 
z
M 2034 4750 
Q 2819 4750 3233 4129 
Q 3647 3509 3647 2328 
Q 3647 1150 3233 529 
Q 2819 -91 2034 -91 
Q 1250 -91 836 529 
Q 422 1150 422 2328 
Q 422 3509 836 4129 
Q 1250 4750 2034 4750 
z
" transform="scale(0.015625)"/>
       </defs>
       <use xlink:href="#DejaVuSans-30"/>
      </g>
     </g>
    </g>
    <g id="xtick_2">
     <g id="line2d_2">
      <g>
       <use xlink:href="#md545f0a866" x="275.419739" y="336.42" style="stroke: #000000; stroke-width: 0.8"/>
      </g>
     </g>
     <g id="text_2">
      <!-- 100 -->
      <g transform="translate(265.875989 351.018438) scale(0.1 -0.1)">
       <defs>
        <path id="DejaVuSans-31" d="M 794 531 
L 1825 531 
L 1825 4091 
L 703 3866 
L 703 4441 
L 1819 4666 
L 2450 4666 
L 2450 531 
L 3481 531 
L 3481 0 
L 794 0 
L 794 531 
z
" transform="scale(0.015625)"/>
       </defs>
       <use xlink:href="#DejaVuSans-31"/>
       <use xlink:href="#DejaVuSans-30" x="63.623047"/>
       <use xlink:href="#DejaVuSans-30" x="127.246094"/>
      </g>
     </g>
    </g>
    <g id="xtick_3">
     <g id="line2d_3">
      <g>
       <use xlink:href="#md545f0a866" x="406.839479" y="336.42" style="stroke: #000000; stroke-width: 0.8"/>
      </g>
     </g>
     <g id="text_3">
      <!-- 200 -->
      <g transform="translate(397.295729 351.018438) scale(0.1 -0.1)">
       <defs>
        <path id="DejaVuSans-32" d="M 1228 531 
L 3431 531 
L 3431 0 
L 469 0 
L 469 531 
Q 828 903 1448 1529 
Q 2069 2156 2228 2338 
Q 2531 2678 2651 2914 
Q 2772 3150 2772 3378 
Q 2772 3750 2511 3984 
Q 2250 4219 1831 4219 
Q 1534 4219 1204 4116 
Q 875 4013 500 3803 
L 500 4441 
Q 881 4594 1212 4672 
Q 1544 4750 1819 4750 
Q 2544 4750 2975 4387 
Q 3406 4025 3406 3419 
Q 3406 3131 3298 2873 
Q 3191 2616 2906 2266 
Q 2828 2175 2409 1742 
Q 1991 1309 1228 531 
z
" transform="scale(0.015625)"/>
       </defs>
       <use xlink:href="#DejaVuSans-32"/>
       <use xlink:href="#DejaVuSans-30" x="63.623047"/>
       <use xlink:href="#DejaVuSans-30" x="127.246094"/>
      </g>
     </g>
    </g>
    <g id="xtick_4">
     <g id="line2d_4">
      <g>
       <use xlink:href="#md545f0a866" x="538.259218" y="336.42" style="stroke: #000000; stroke-width: 0.8"/>
      </g>
     </g>
     <g id="text_4">
      <!-- 300 -->
      <g transform="translate(528.715468 351.018438) scale(0.1 -0.1)">
       <defs>
        <path id="DejaVuSans-33" d="M 2597 2516 
Q 3050 2419 3304 2112 
Q 3559 1806 3559 1356 
Q 3559 666 3084 287 
Q 2609 -91 1734 -91 
Q 1441 -91 1130 -33 
Q 819 25 488 141 
L 488 750 
Q 750 597 1062 519 
Q 1375 441 1716 441 
Q 2309 441 2620 675 
Q 2931 909 2931 1356 
Q 2931 1769 2642 2001 
Q 2353 2234 1838 2234 
L 1294 2234 
L 1294 2753 
L 1863 2753 
Q 2328 2753 2575 2939 
Q 2822 3125 2822 3475 
Q 2822 3834 2567 4026 
Q 2313 4219 1838 4219 
Q 1578 4219 1281 4162 
Q 984 4106 628 3988 
L 628 4550 
Q 988 4650 1302 4700 
Q 1616 4750 1894 4750 
Q 2613 4750 3031 4423 
Q 3450 4097 3450 3541 
Q 3450 3153 3228 2886 
Q 3006 2619 2597 2516 
z
" transform="scale(0.015625)"/>
       </defs>
       <use xlink:href="#DejaVuSans-33"/>
       <use xlink:href="#DejaVuSans-30" x="63.623047"/>
       <use xlink:href="#DejaVuSans-30" x="127.246094"/>
      </g>
     </g>
    </g>
    <g id="xtick_5">
     <g id="line2d_5">
      <g>
       <use xlink:href="#md545f0a866" x="669.678958" y="336.42" style="stroke: #000000; stroke-width: 0.8"/>
      </g>
     </g>
     <g id="text_5">
      <!-- 400 -->
      <g transform="translate(660.135208 351.018438) scale(0.1 -0.1)">
       <defs>
        <path id="DejaVuSans-34" d="M 2419 4116 
L 825 1625 
L 2419 1625 
L 2419 4116 
z
M 2253 4666 
L 3047 4666 
L 3047 1625 
L 3713 1625 
L 3713 1100 
L 3047 1100 
L 3047 0 
L 2419 0 
L 2419 1100 
L 313 1100 
L 313 1709 
L 2253 4666 
z
" transform="scale(0.015625)"/>
       </defs>
       <use xlink:href="#DejaVuSans-34"/>
       <use xlink:href="#DejaVuSans-30" x="63.623047"/>
       <use xlink:href="#DejaVuSans-30" x="127.246094"/>
      </g>
     </g>
    </g>
    <g id="xtick_6">
     <g id="line2d_6">
      <g>
       <use xlink:href="#md545f0a866" x="801.098697" y="336.42" style="stroke: #000000; stroke-width: 0.8"/>
      </g>
     </g>
     <g id="text_6">
      <!-- 500 -->
      <g transform="translate(791.554947 351.018438) scale(0.1 -0.1)">
       <defs>
        <path id="DejaVuSans-35" d="M 691 4666 
L 3169 4666 
L 3169 4134 
L 1269 4134 
L 1269 2991 
Q 1406 3038 1543 3061 
Q 1681 3084 1819 3084 
Q 2600 3084 3056 2656 
Q 3513 2228 3513 1497 
Q 3513 744 3044 326 
Q 2575 -91 1722 -91 
Q 1428 -91 1123 -41 
Q 819 9 494 109 
L 494 744 
Q 775 591 1075 516 
Q 1375 441 1709 441 
Q 2250 441 2565 725 
Q 2881 1009 2881 1497 
Q 2881 1984 2565 2268 
Q 2250 2553 1709 2553 
Q 1456 2553 1204 2497 
Q 953 2441 691 2322 
L 691 4666 
z
" transform="scale(0.015625)"/>
       </defs>
       <use xlink:href="#DejaVuSans-35"/>
       <use xlink:href="#DejaVuSans-30" x="63.623047"/>
       <use xlink:href="#DejaVuSans-30" x="127.246094"/>
      </g>
     </g>
    </g>
    <g id="xtick_7">
     <g id="line2d_7">
      <g>
       <use xlink:href="#md545f0a866" x="932.518437" y="336.42" style="stroke: #000000; stroke-width: 0.8"/>
      </g>
     </g>
     <g id="text_7">
      <!-- 600 -->
      <g transform="translate(922.974687 351.018438) scale(0.1 -0.1)">
       <defs>
        <path id="DejaVuSans-36" d="M 2113 2584 
Q 1688 2584 1439 2293 
Q 1191 2003 1191 1497 
Q 1191 994 1439 701 
Q 1688 409 2113 409 
Q 2538 409 2786 701 
Q 3034 994 3034 1497 
Q 3034 2003 2786 2293 
Q 2538 2584 2113 2584 
z
M 3366 4563 
L 3366 3988 
Q 3128 4100 2886 4159 
Q 2644 4219 2406 4219 
Q 1781 4219 1451 3797 
Q 1122 3375 1075 2522 
Q 1259 2794 1537 2939 
Q 1816 3084 2150 3084 
Q 2853 3084 3261 2657 
Q 3669 2231 3669 1497 
Q 3669 778 3244 343 
Q 2819 -91 2113 -91 
Q 1303 -91 875 529 
Q 447 1150 447 2328 
Q 447 3434 972 4092 
Q 1497 4750 2381 4750 
Q 2619 4750 2861 4703 
Q 3103 4656 3366 4563 
z
" transform="scale(0.015625)"/>
       </defs>
       <use xlink:href="#DejaVuSans-36"/>
       <use xlink:href="#DejaVuSans-30" x="63.623047"/>
       <use xlink:href="#DejaVuSans-30" x="127.246094"/>
      </g>
     </g>
    </g>
    <g id="text_8">
     <!-- Residual -->
     <g transform="translate(569.284375 364.696563) scale(0.1 -0.1)">
      <defs>
       <path id="DejaVuSans-52" d="M 2841 2188 
Q 3044 2119 3236 1894 
Q 3428 1669 3622 1275 
L 4263 0 
L 3584 0 
L 2988 1197 
Q 2756 1666 2539 1819 
Q 2322 1972 1947 1972 
L 1259 1972 
L 1259 0 
L 628 0 
L 628 4666 
L 2053 4666 
Q 2853 4666 3247 4331 
Q 3641 3997 3641 3322 
Q 3641 2881 3436 2590 
Q 3231 2300 2841 2188 
z
M 1259 4147 
L 1259 2491 
L 2053 2491 
Q 2509 2491 2742 2702 
Q 2975 2913 2975 3322 
Q 2975 3731 2742 3939 
Q 2509 4147 2053 4147 
L 1259 4147 
z
" transform="scale(0.015625)"/>
       <path id="DejaVuSans-65" d="M 3597 1894 
L 3597 1613 
L 953 1613 
Q 991 1019 1311 708 
Q 1631 397 2203 397 
Q 2534 397 2845 478 
Q 3156 559 3463 722 
L 3463 178 
Q 3153 47 2828 -22 
Q 2503 -91 2169 -91 
Q 1331 -91 842 396 
Q 353 884 353 1716 
Q 353 2575 817 3079 
Q 1281 3584 2069 3584 
Q 2775 3584 3186 3129 
Q 3597 2675 3597 1894 
z
M 3022 2063 
Q 3016 2534 2758 2815 
Q 2500 3097 2075 3097 
Q 1594 3097 1305 2825 
Q 1016 2553 972 2059 
L 3022 2063 
z
" transform="scale(0.015625)"/>
       <path id="DejaVuSans-73" d="M 2834 3397 
L 2834 2853 
Q 2591 2978 2328 3040 
Q 2066 3103 1784 3103 
Q 1356 3103 1142 2972 
Q 928 2841 928 2578 
Q 928 2378 1081 2264 
Q 1234 2150 1697 2047 
L 1894 2003 
Q 2506 1872 2764 1633 
Q 3022 1394 3022 966 
Q 3022 478 2636 193 
Q 2250 -91 1575 -91 
Q 1294 -91 989 -36 
Q 684 19 347 128 
L 347 722 
Q 666 556 975 473 
Q 1284 391 1588 391 
Q 1994 391 2212 530 
Q 2431 669 2431 922 
Q 2431 1156 2273 1281 
Q 2116 1406 1581 1522 
L 1381 1569 
Q 847 1681 609 1914 
Q 372 2147 372 2553 
Q 372 3047 722 3315 
Q 1072 3584 1716 3584 
Q 2034 3584 2315 3537 
Q 2597 3491 2834 3397 
z
" transform="scale(0.015625)"/>
       <path id="DejaVuSans-69" d="M 603 3500 
L 1178 3500 
L 1178 0 
L 603 0 
L 603 3500 
z
M 603 4863 
L 1178 4863 
L 1178 4134 
L 603 4134 
L 603 4863 
z
" transform="scale(0.015625)"/>
       <path id="DejaVuSans-64" d="M 2906 2969 
L 2906 4863 
L 3481 4863 
L 3481 0 
L 2906 0 
L 2906 525 
Q 2725 213 2448 61 
Q 2172 -91 1784 -91 
Q 1150 -91 751 415 
Q 353 922 353 1747 
Q 353 2572 751 3078 
Q 1150 3584 1784 3584 
Q 2172 3584 2448 3432 
Q 2725 3281 2906 2969 
z
M 947 1747 
Q 947 1113 1208 752 
Q 1469 391 1925 391 
Q 2381 391 2643 752 
Q 2906 1113 2906 1747 
Q 2906 2381 2643 2742 
Q 2381 3103 1925 3103 
Q 1469 3103 1208 2742 
Q 947 2381 947 1747 
z
" transform="scale(0.015625)"/>
       <path id="DejaVuSans-75" d="M 544 1381 
L 544 3500 
L 1119 3500 
L 1119 1403 
Q 1119 906 1312 657 
Q 1506 409 1894 409 
Q 2359 409 2629 706 
Q 2900 1003 2900 1516 
L 2900 3500 
L 3475 3500 
L 3475 0 
L 2900 0 
L 2900 538 
Q 2691 219 2414 64 
Q 2138 -91 1772 -91 
Q 1169 -91 856 284 
Q 544 659 544 1381 
z
M 1991 3584 
L 1991 3584 
z
" transform="scale(0.015625)"/>
       <path id="DejaVuSans-61" d="M 2194 1759 
Q 1497 1759 1228 1600 
Q 959 1441 959 1056 
Q 959 750 1161 570 
Q 1363 391 1709 391 
Q 2188 391 2477 730 
Q 2766 1069 2766 1631 
L 2766 1759 
L 2194 1759 
z
M 3341 1997 
L 3341 0 
L 2766 0 
L 2766 531 
Q 2569 213 2275 61 
Q 1981 -91 1556 -91 
Q 1019 -91 701 211 
Q 384 513 384 1019 
Q 384 1609 779 1909 
Q 1175 2209 1959 2209 
L 2766 2209 
L 2766 2266 
Q 2766 2663 2505 2880 
Q 2244 3097 1772 3097 
Q 1472 3097 1187 3025 
Q 903 2953 641 2809 
L 641 3341 
Q 956 3463 1253 3523 
Q 1550 3584 1831 3584 
Q 2591 3584 2966 3190 
Q 3341 2797 3341 1997 
z
" transform="scale(0.015625)"/>
       <path id="DejaVuSans-6c" d="M 603 4863 
L 1178 4863 
L 1178 0 
L 603 0 
L 603 4863 
z
" transform="scale(0.015625)"/>
      </defs>
      <use xlink:href="#DejaVuSans-52"/>
      <use xlink:href="#DejaVuSans-65" x="64.982422"/>
      <use xlink:href="#DejaVuSans-73" x="126.505859"/>
      <use xlink:href="#DejaVuSans-69" x="178.605469"/>
      <use xlink:href="#DejaVuSans-64" x="206.388672"/>
      <use xlink:href="#DejaVuSans-75" x="269.865234"/>
      <use xlink:href="#DejaVuSans-61" x="333.244141"/>
      <use xlink:href="#DejaVuSans-6c" x="394.523438"/>
     </g>
    </g>
   </g>
   <g id="matplotlib.axis_2">
    <g id="ytick_1">
     <g id="line2d_8">
      <defs>
       <path id="me1e96c52da" d="M 0 0 
L -3.5 0 
" style="stroke: #000000; stroke-width: 0.8"/>
      </defs>
      <g>
       <use xlink:href="#me1e96c52da" x="144" y="322.972103" style="stroke: #000000; stroke-width: 0.8"/>
      </g>
     </g>
     <g id="text_9">
      <!-- 5.B.2.1.1 -->
      <g transform="translate(91.976562 326.771321) scale(0.1 -0.1)">
       <defs>
        <path id="DejaVuSans-2e" d="M 684 794 
L 1344 794 
L 1344 0 
L 684 0 
L 684 794 
z
" transform="scale(0.015625)"/>
        <path id="DejaVuSans-42" d="M 1259 2228 
L 1259 519 
L 2272 519 
Q 2781 519 3026 730 
Q 3272 941 3272 1375 
Q 3272 1813 3026 2020 
Q 2781 2228 2272 2228 
L 1259 2228 
z
M 1259 4147 
L 1259 2741 
L 2194 2741 
Q 2656 2741 2882 2914 
Q 3109 3088 3109 3444 
Q 3109 3797 2882 3972 
Q 2656 4147 2194 4147 
L 1259 4147 
z
M 628 4666 
L 2241 4666 
Q 2963 4666 3353 4366 
Q 3744 4066 3744 3513 
Q 3744 3084 3544 2831 
Q 3344 2578 2956 2516 
Q 3422 2416 3680 2098 
Q 3938 1781 3938 1306 
Q 3938 681 3513 340 
Q 3088 0 2303 0 
L 628 0 
L 628 4666 
z
" transform="scale(0.015625)"/>
       </defs>
       <use xlink:href="#DejaVuSans-35"/>
       <use xlink:href="#DejaVuSans-2e" x="63.623047"/>
       <use xlink:href="#DejaVuSans-42" x="95.410156"/>
       <use xlink:href="#DejaVuSans-2e" x="164.013672"/>
       <use xlink:href="#DejaVuSans-32" x="195.800781"/>
       <use xlink:href="#DejaVuSans-2e" x="259.423828"/>
       <use xlink:href="#DejaVuSans-31" x="291.210938"/>
       <use xlink:href="#DejaVuSans-2e" x="354.833984"/>
       <use xlink:href="#DejaVuSans-31" x="386.621094"/>
      </g>
     </g>
    </g>
    <g id="ytick_2">
     <g id="line2d_9">
      <g>
       <use xlink:href="#me1e96c52da" x="144" y="308.445614" style="stroke: #000000; stroke-width: 0.8"/>
      </g>
     </g>
     <g id="text_10">
      <!-- 5.B.2.1.2 -->
      <g transform="translate(91.976562 312.244832) scale(0.1 -0.1)">
       <use xlink:href="#DejaVuSans-35"/>
       <use xlink:href="#DejaVuSans-2e" x="63.623047"/>
       <use xlink:href="#DejaVuSans-42" x="95.410156"/>
       <use xlink:href="#DejaVuSans-2e" x="164.013672"/>
       <use xlink:href="#DejaVuSans-32" x="195.800781"/>
       <use xlink:href="#DejaVuSans-2e" x="259.423828"/>
       <use xlink:href="#DejaVuSans-31" x="291.210938"/>
       <use xlink:href="#DejaVuSans-2e" x="354.833984"/>
       <use xlink:href="#DejaVuSans-32" x="386.621094"/>
      </g>
     </g>
    </g>
    <g id="ytick_3">
     <g id="line2d_10">
      <g>
       <use xlink:href="#me1e96c52da" x="144" y="293.919124" style="stroke: #000000; stroke-width: 0.8"/>
      </g>
     </g>
     <g id="text_11">
      <!-- 5.B.2.1.3 -->
      <g transform="translate(91.976562 297.718343) scale(0.1 -0.1)">
       <use xlink:href="#DejaVuSans-35"/>
       <use xlink:href="#DejaVuSans-2e" x="63.623047"/>
       <use xlink:href="#DejaVuSans-42" x="95.410156"/>
       <use xlink:href="#DejaVuSans-2e" x="164.013672"/>
       <use xlink:href="#DejaVuSans-32" x="195.800781"/>
       <use xlink:href="#DejaVuSans-2e" x="259.423828"/>
       <use xlink:href="#DejaVuSans-31" x="291.210938"/>
       <use xlink:href="#DejaVuSans-2e" x="354.833984"/>
       <use xlink:href="#DejaVuSans-33" x="386.621094"/>
      </g>
     </g>
    </g>
    <g id="ytick_4">
     <g id="line2d_11">
      <g>
       <use xlink:href="#me1e96c52da" x="144" y="279.392635" style="stroke: #000000; stroke-width: 0.8"/>
      </g>
     </g>
     <g id="text_12">
      <!-- 5.B.2.1.4 -->
      <g transform="translate(91.976562 283.191854) scale(0.1 -0.1)">
       <use xlink:href="#DejaVuSans-35"/>
       <use xlink:href="#DejaVuSans-2e" x="63.623047"/>
       <use xlink:href="#DejaVuSans-42" x="95.410156"/>
       <use xlink:href="#DejaVuSans-2e" x="164.013672"/>
       <use xlink:href="#DejaVuSans-32" x="195.800781"/>
       <use xlink:href="#DejaVuSans-2e" x="259.423828"/>
       <use xlink:href="#DejaVuSans-31" x="291.210938"/>
       <use xlink:href="#DejaVuSans-2e" x="354.833984"/>
       <use xlink:href="#DejaVuSans-34" x="386.621094"/>
      </g>
     </g>
    </g>
    <g id="ytick_5">
     <g id="line2d_12">
      <g>
       <use xlink:href="#me1e96c52da" x="144" y="264.866146" style="stroke: #000000; stroke-width: 0.8"/>
      </g>
     </g>
     <g id="text_13">
      <!-- 5.B.2.1.5 -->
      <g transform="translate(91.976562 268.665365) scale(0.1 -0.1)">
       <use xlink:href="#DejaVuSans-35"/>
       <use xlink:href="#DejaVuSans-2e" x="63.623047"/>
       <use xlink:href="#DejaVuSans-42" x="95.410156"/>
       <use xlink:href="#DejaVuSans-2e" x="164.013672"/>
       <use xlink:href="#DejaVuSans-32" x="195.800781"/>
       <use xlink:href="#DejaVuSans-2e" x="259.423828"/>
       <use xlink:href="#DejaVuSans-31" x="291.210938"/>
       <use xlink:href="#DejaVuSans-2e" x="354.833984"/>
       <use xlink:href="#DejaVuSans-35" x="386.621094"/>
      </g>
     </g>
    </g>
    <g id="ytick_6">
     <g id="line2d_13">
      <g>
       <use xlink:href="#me1e96c52da" x="144" y="250.339657" style="stroke: #000000; stroke-width: 0.8"/>
      </g>
     </g>
     <g id="text_14">
      <!-- 5.B.2.1.6 -->
      <g transform="translate(91.976562 254.138876) scale(0.1 -0.1)">
       <use xlink:href="#DejaVuSans-35"/>
       <use xlink:href="#DejaVuSans-2e" x="63.623047"/>
       <use xlink:href="#DejaVuSans-42" x="95.410156"/>
       <use xlink:href="#DejaVuSans-2e" x="164.013672"/>
       <use xlink:href="#DejaVuSans-32" x="195.800781"/>
       <use xlink:href="#DejaVuSans-2e" x="259.423828"/>
       <use xlink:href="#DejaVuSans-31" x="291.210938"/>
       <use xlink:href="#DejaVuSans-2e" x="354.833984"/>
       <use xlink:href="#DejaVuSans-36" x="386.621094"/>
      </g>
     </g>
    </g>
    <g id="ytick_7">
     <g id="line2d_14">
      <g>
       <use xlink:href="#me1e96c52da" x="144" y="235.813168" style="stroke: #000000; stroke-width: 0.8"/>
      </g>
     </g>
     <g id="text_15">
      <!-- 5.B.2.1.7 -->
      <g transform="translate(91.976562 239.612386) scale(0.1 -0.1)">
       <defs>
        <path id="DejaVuSans-37" d="M 525 4666 
L 3525 4666 
L 3525 4397 
L 1831 0 
L 1172 0 
L 2766 4134 
L 525 4134 
L 525 4666 
z
" transform="scale(0.015625)"/>
       </defs>
       <use xlink:href="#DejaVuSans-35"/>
       <use xlink:href="#DejaVuSans-2e" x="63.623047"/>
       <use xlink:href="#DejaVuSans-42" x="95.410156"/>
       <use xlink:href="#DejaVuSans-2e" x="164.013672"/>
       <use xlink:href="#DejaVuSans-32" x="195.800781"/>
       <use xlink:href="#DejaVuSans-2e" x="259.423828"/>
       <use xlink:href="#DejaVuSans-31" x="291.210938"/>
       <use xlink:href="#DejaVuSans-2e" x="354.833984"/>
       <use xlink:href="#DejaVuSans-37" x="386.621094"/>
      </g>
     </g>
    </g>
    <g id="ytick_8">
     <g id="line2d_15">
      <g>
       <use xlink:href="#me1e96c52da" x="144" y="221.286679" style="stroke: #000000; stroke-width: 0.8"/>
      </g>
     </g>
     <g id="text_16">
      <!-- 5.B.2.2.1 -->
      <g transform="translate(91.976562 225.085897) scale(0.1 -0.1)">
       <use xlink:href="#DejaVuSans-35"/>
       <use xlink:href="#DejaVuSans-2e" x="63.623047"/>
       <use xlink:href="#DejaVuSans-42" x="95.410156"/>
       <use xlink:href="#DejaVuSans-2e" x="164.013672"/>
       <use xlink:href="#DejaVuSans-32" x="195.800781"/>
       <use xlink:href="#DejaVuSans-2e" x="259.423828"/>
       <use xlink:href="#DejaVuSans-32" x="291.210938"/>
       <use xlink:href="#DejaVuSans-2e" x="354.833984"/>
       <use xlink:href="#DejaVuSans-31" x="386.621094"/>
      </g>
     </g>
    </g>
    <g id="ytick_9">
     <g id="line2d_16">
      <g>
       <use xlink:href="#me1e96c52da" x="144" y="206.760189" style="stroke: #000000; stroke-width: 0.8"/>
      </g>
     </g>
     <g id="text_17">
      <!-- 5.B.2.2.2 -->
      <g transform="translate(91.976562 210.559408) scale(0.1 -0.1)">
       <use xlink:href="#DejaVuSans-35"/>
       <use xlink:href="#DejaVuSans-2e" x="63.623047"/>
       <use xlink:href="#DejaVuSans-42" x="95.410156"/>
       <use xlink:href="#DejaVuSans-2e" x="164.013672"/>
       <use xlink:href="#DejaVuSans-32" x="195.800781"/>
       <use xlink:href="#DejaVuSans-2e" x="259.423828"/>
       <use xlink:href="#DejaVuSans-32" x="291.210938"/>
       <use xlink:href="#DejaVuSans-2e" x="354.833984"/>
       <use xlink:href="#DejaVuSans-32" x="386.621094"/>
      </g>
     </g>
    </g>
    <g id="ytick_10">
     <g id="line2d_17">
      <g>
       <use xlink:href="#me1e96c52da" x="144" y="192.2337" style="stroke: #000000; stroke-width: 0.8"/>
      </g>
     </g>
     <g id="text_18">
      <!-- 5.B.2.2.3 -->
      <g transform="translate(91.976562 196.032919) scale(0.1 -0.1)">
       <use xlink:href="#DejaVuSans-35"/>
       <use xlink:href="#DejaVuSans-2e" x="63.623047"/>
       <use xlink:href="#DejaVuSans-42" x="95.410156"/>
       <use xlink:href="#DejaVuSans-2e" x="164.013672"/>
       <use xlink:href="#DejaVuSans-32" x="195.800781"/>
       <use xlink:href="#DejaVuSans-2e" x="259.423828"/>
       <use xlink:href="#DejaVuSans-32" x="291.210938"/>
       <use xlink:href="#DejaVuSans-2e" x="354.833984"/>
       <use xlink:href="#DejaVuSans-33" x="386.621094"/>
      </g>
     </g>
    </g>
    <g id="ytick_11">
     <g id="line2d_18">
      <g>
       <use xlink:href="#me1e96c52da" x="144" y="177.707211" style="stroke: #000000; stroke-width: 0.8"/>
      </g>
     </g>
     <g id="text_19">
      <!-- 5.B.2.2.4 -->
      <g transform="translate(91.976562 181.50643) scale(0.1 -0.1)">
       <use xlink:href="#DejaVuSans-35"/>
       <use xlink:href="#DejaVuSans-2e" x="63.623047"/>
       <use xlink:href="#DejaVuSans-42" x="95.410156"/>
       <use xlink:href="#DejaVuSans-2e" x="164.013672"/>
       <use xlink:href="#DejaVuSans-32" x="195.800781"/>
       <use xlink:href="#DejaVuSans-2e" x="259.423828"/>
       <use xlink:href="#DejaVuSans-32" x="291.210938"/>
       <use xlink:href="#DejaVuSans-2e" x="354.833984"/>
       <use xlink:href="#DejaVuSans-34" x="386.621094"/>
      </g>
     </g>
    </g>
    <g id="ytick_12">
     <g id="line2d_19">
      <g>
       <use xlink:href="#me1e96c52da" x="144" y="163.180722" style="stroke: #000000; stroke-width: 0.8"/>
      </g>
     </g>
     <g id="text_20">
      <!-- 5.B.2.2.5 -->
      <g transform="translate(91.976562 166.979941) scale(0.1 -0.1)">
       <use xlink:href="#DejaVuSans-35"/>
       <use xlink:href="#DejaVuSans-2e" x="63.623047"/>
       <use xlink:href="#DejaVuSans-42" x="95.410156"/>
       <use xlink:href="#DejaVuSans-2e" x="164.013672"/>
       <use xlink:href="#DejaVuSans-32" x="195.800781"/>
       <use xlink:href="#DejaVuSans-2e" x="259.423828"/>
       <use xlink:href="#DejaVuSans-32" x="291.210938"/>
       <use xlink:href="#DejaVuSans-2e" x="354.833984"/>
       <use xlink:href="#DejaVuSans-35" x="386.621094"/>
      </g>
     </g>
    </g>
    <g id="ytick_13">
     <g id="line2d_20">
      <g>
       <use xlink:href="#me1e96c52da" x="144" y="148.654233" style="stroke: #000000; stroke-width: 0.8"/>
      </g>
     </g>
     <g id="text_21">
      <!-- 5.B.2.2.6 -->
      <g transform="translate(91.976562 152.453452) scale(0.1 -0.1)">
       <use xlink:href="#DejaVuSans-35"/>
       <use xlink:href="#DejaVuSans-2e" x="63.623047"/>
       <use xlink:href="#DejaVuSans-42" x="95.410156"/>
       <use xlink:href="#DejaVuSans-2e" x="164.013672"/>
       <use xlink:href="#DejaVuSans-32" x="195.800781"/>
       <use xlink:href="#DejaVuSans-2e" x="259.423828"/>
       <use xlink:href="#DejaVuSans-32" x="291.210938"/>
       <use xlink:href="#DejaVuSans-2e" x="354.833984"/>
       <use xlink:href="#DejaVuSans-36" x="386.621094"/>
      </g>
     </g>
    </g>
    <g id="ytick_14">
     <g id="line2d_21">
      <g>
       <use xlink:href="#me1e96c52da" x="144" y="134.127744" style="stroke: #000000; stroke-width: 0.8"/>
      </g>
     </g>
     <g id="text_22">
      <!-- 5.B.2.2.7 -->
      <g transform="translate(91.976562 137.926962) scale(0.1 -0.1)">
       <use xlink:href="#DejaVuSans-35"/>
       <use xlink:href="#DejaVuSans-2e" x="63.623047"/>
       <use xlink:href="#DejaVuSans-42" x="95.410156"/>
       <use xlink:href="#DejaVuSans-2e" x="164.013672"/>
       <use xlink:href="#DejaVuSans-32" x="195.800781"/>
       <use xlink:href="#DejaVuSans-2e" x="259.423828"/>
       <use xlink:href="#DejaVuSans-32" x="291.210938"/>
       <use xlink:href="#DejaVuSans-2e" x="354.833984"/>
       <use xlink:href="#DejaVuSans-37" x="386.621094"/>
      </g>
     </g>
    </g>
    <g id="ytick_15">
     <g id="line2d_22">
      <g>
       <use xlink:href="#me1e96c52da" x="144" y="119.601254" style="stroke: #000000; stroke-width: 0.8"/>
      </g>
     </g>
     <g id="text_23">
      <!-- 5.B.2.3.1 -->
      <g transform="translate(91.976562 123.400473) scale(0.1 -0.1)">
       <use xlink:href="#DejaVuSans-35"/>
       <use xlink:href="#DejaVuSans-2e" x="63.623047"/>
       <use xlink:href="#DejaVuSans-42" x="95.410156"/>
       <use xlink:href="#DejaVuSans-2e" x="164.013672"/>
       <use xlink:href="#DejaVuSans-32" x="195.800781"/>
       <use xlink:href="#DejaVuSans-2e" x="259.423828"/>
       <use xlink:href="#DejaVuSans-33" x="291.210938"/>
       <use xlink:href="#DejaVuSans-2e" x="354.833984"/>
       <use xlink:href="#DejaVuSans-31" x="386.621094"/>
      </g>
     </g>
    </g>
    <g id="ytick_16">
     <g id="line2d_23">
      <g>
       <use xlink:href="#me1e96c52da" x="144" y="105.074765" style="stroke: #000000; stroke-width: 0.8"/>
      </g>
     </g>
     <g id="text_24">
      <!-- 5.B.2.3.2 -->
      <g transform="translate(91.976562 108.873984) scale(0.1 -0.1)">
       <use xlink:href="#DejaVuSans-35"/>
       <use xlink:href="#DejaVuSans-2e" x="63.623047"/>
       <use xlink:href="#DejaVuSans-42" x="95.410156"/>
       <use xlink:href="#DejaVuSans-2e" x="164.013672"/>
       <use xlink:href="#DejaVuSans-32" x="195.800781"/>
       <use xlink:href="#DejaVuSans-2e" x="259.423828"/>
       <use xlink:href="#DejaVuSans-33" x="291.210938"/>
       <use xlink:href="#DejaVuSans-2e" x="354.833984"/>
       <use xlink:href="#DejaVuSans-32" x="386.621094"/>
      </g>
     </g>
    </g>
    <g id="ytick_17">
     <g id="line2d_24">
      <g>
       <use xlink:href="#me1e96c52da" x="144" y="90.548276" style="stroke: #000000; stroke-width: 0.8"/>
      </g>
     </g>
     <g id="text_25">
      <!-- 5.B.2.3.3 -->
      <g transform="translate(91.976562 94.347495) scale(0.1 -0.1)">
       <use xlink:href="#DejaVuSans-35"/>
       <use xlink:href="#DejaVuSans-2e" x="63.623047"/>
       <use xlink:href="#DejaVuSans-42" x="95.410156"/>
       <use xlink:href="#DejaVuSans-2e" x="164.013672"/>
       <use xlink:href="#DejaVuSans-32" x="195.800781"/>
       <use xlink:href="#DejaVuSans-2e" x="259.423828"/>
       <use xlink:href="#DejaVuSans-33" x="291.210938"/>
       <use xlink:href="#DejaVuSans-2e" x="354.833984"/>
       <use xlink:href="#DejaVuSans-33" x="386.621094"/>
      </g>
     </g>
    </g>
    <g id="ytick_18">
     <g id="line2d_25">
      <g>
       <use xlink:href="#me1e96c52da" x="144" y="76.021787" style="stroke: #000000; stroke-width: 0.8"/>
      </g>
     </g>
     <g id="text_26">
      <!-- 5.B.2.3.4 -->
      <g transform="translate(91.976562 79.821006) scale(0.1 -0.1)">
       <use xlink:href="#DejaVuSans-35"/>
       <use xlink:href="#DejaVuSans-2e" x="63.623047"/>
       <use xlink:href="#DejaVuSans-42" x="95.410156"/>
       <use xlink:href="#DejaVuSans-2e" x="164.013672"/>
       <use xlink:href="#DejaVuSans-32" x="195.800781"/>
       <use xlink:href="#DejaVuSans-2e" x="259.423828"/>
       <use xlink:href="#DejaVuSans-33" x="291.210938"/>
       <use xlink:href="#DejaVuSans-2e" x="354.833984"/>
       <use xlink:href="#DejaVuSans-34" x="386.621094"/>
      </g>
     </g>
    </g>
    <g id="ytick_19">
     <g id="line2d_26">
      <g>
       <use xlink:href="#me1e96c52da" x="144" y="61.495298" style="stroke: #000000; stroke-width: 0.8"/>
      </g>
     </g>
     <g id="text_27">
      <!-- 5.B.2.3.5 -->
      <g transform="translate(91.976562 65.294517) scale(0.1 -0.1)">
       <use xlink:href="#DejaVuSans-35"/>
       <use xlink:href="#DejaVuSans-2e" x="63.623047"/>
       <use xlink:href="#DejaVuSans-42" x="95.410156"/>
       <use xlink:href="#DejaVuSans-2e" x="164.013672"/>
       <use xlink:href="#DejaVuSans-32" x="195.800781"/>
       <use xlink:href="#DejaVuSans-2e" x="259.423828"/>
       <use xlink:href="#DejaVuSans-33" x="291.210938"/>
       <use xlink:href="#DejaVuSans-2e" x="354.833984"/>
       <use xlink:href="#DejaVuSans-35" x="386.621094"/>
      </g>
     </g>
    </g>
   </g>
   <g id="patch_33">
    <path d="M 144 336.42 
L 144 45.36 
" style="fill: none; stroke: #000000; stroke-width: 0.8; stroke-linejoin: miter; stroke-linecap: square"/>
   </g>
   <g id="patch_34">
    <path d="M 1036.8 336.42 
L 1036.8 45.36 
" style="fill: none; stroke: #000000; stroke-width: 0.8; stroke-linejoin: miter; stroke-linecap: square"/>
   </g>
   <g id="patch_35">
    <path d="M 144 336.42 
L 1036.8 336.42 
" style="fill: none; stroke: #000000; stroke-width: 0.8; stroke-linejoin: miter; stroke-linecap: square"/>
   </g>
   <g id="patch_36">
    <path d="M 144 45.36 
L 1036.8 45.36 
" style="fill: none; stroke: #000000; stroke-width: 0.8; stroke-linejoin: miter; stroke-linecap: square"/>
   </g>
   <g id="text_28">
    <!-- 5.B.2 Holes -->
    <g transform="translate(556.26 39.36) scale(0.12 -0.12)">
     <defs>
      <path id="DejaVuSans-20" transform="scale(0.015625)"/>
      <path id="DejaVuSans-48" d="M 628 4666 
L 1259 4666 
L 1259 2753 
L 3553 2753 
L 3553 4666 
L 4184 4666 
L 4184 0 
L 3553 0 
L 3553 2222 
L 1259 2222 
L 1259 0 
L 628 0 
L 628 4666 
z
" transform="scale(0.015625)"/>
      <path id="DejaVuSans-6f" d="M 1959 3097 
Q 1497 3097 1228 2736 
Q 959 2375 959 1747 
Q 959 1119 1226 758 
Q 1494 397 1959 397 
Q 2419 397 2687 759 
Q 2956 1122 2956 1747 
Q 2956 2369 2687 2733 
Q 2419 3097 1959 3097 
z
M 1959 3584 
Q 2709 3584 3137 3096 
Q 3566 2609 3566 1747 
Q 3566 888 3137 398 
Q 2709 -91 1959 -91 
Q 1206 -91 779 398 
Q 353 888 353 1747 
Q 353 2609 779 3096 
Q 1206 3584 1959 3584 
z
" transform="scale(0.015625)"/>
     </defs>
     <use xlink:href="#DejaVuSans-35"/>
     <use xlink:href="#DejaVuSans-2e" x="63.623047"/>
     <use xlink:href="#DejaVuSans-42" x="95.410156"/>
     <use xlink:href="#DejaVuSans-2e" x="164.013672"/>
     <use xlink:href="#DejaVuSans-32" x="195.800781"/>
     <use xlink:href="#DejaVuSans-20" x="259.423828"/>
     <use xlink:href="#DejaVuSans-48" x="291.210938"/>
     <use xlink:href="#DejaVuSans-6f" x="366.40625"/>
     <use xlink:href="#DejaVuSans-6c" x="427.587891"/>
     <use xlink:href="#DejaVuSans-65" x="455.371094"/>
     <use xlink:href="#DejaVuSans-73" x="516.894531"/>
    </g>
   </g>
  </g>
 </g>
 <defs>
  <clipPath id="p3d3bfa162e">
   <rect x="144" y="45.36" width="892.8" height="291.06"/>
  </clipPath>
 </defs>
</svg>
